<svg xmlns="http://www.w3.org/2000/svg" width="30" height="30"><defs><filter id="a" x="-.429" width="1.859" y="-.473" height="1.945"><feGaussianBlur stdDeviation="3.023"/></filter><filter color-interpolation-filters="sRGB" id="b" x="-.429" width="1.859" y="-.473" height="1.945"><feGaussianBlur stdDeviation="3.023"/></filter></defs><g><g><path d="M28.922 15.16c.176 7.027-5.685 13.566-12.698 14.147-6.376.73-12.9-3.454-14.853-9.58C-.66 13.84 1.654 6.765 6.895 3.345c5.24-3.605 12.918-3.068 17.5 1.39 2.854 2.656 4.563 6.518 4.528 10.424z" fill="#6f530c" stroke="#000" stroke-width="1.277" stroke-opacity=".139"/><g opacity=".291" stroke="#fff" stroke-linecap="round"><path d="M18.407 8.23c-2.49 4.404-4.978 8.81-7.467 13.213 1.246-1.772 2.165-3.77 3.263-5.644 1.4-2.524 2.803-5.047 4.204-7.57z" opacity=".883" fill="#6f530c" stroke-width="1.007" stroke-linejoin="round"/><path d="M20.61 9.75l-7.466 13.213c1.246-1.772 2.165-3.768 3.263-5.643l4.204-7.57z" opacity=".883" fill="#fff" stroke-width="1.007" stroke-linejoin="round"/><path d="M19.974 12.61c-1.47-2.953-6.434-3.33-7.952-.224-1.158 2.136-1.504 5.228.34 7.08 2.253 1.794 5.854.92 7.574-1.213l.152-.242.127-.256" opacity=".883" fill="none" stroke-width="2.041"/></g><path d="M-4.165 13.04c.07 4.595-4.635 8.078-9.012 7.674-4.146-.143-8.19-3.738-7.888-8.062.226-4.49 4.867-7.74 9.175-7.277 3.96.272 7.792 3.507 7.725 7.666z" transform="matrix(1.237 0 0 .874 28.32 -.583)" opacity=".316" fill="#312405" fill-rule="evenodd" filter="url(#a)"/><path d="M27.654 15.092c.154 6.376-5.25 12.223-11.59 12.702-5.952.653-12.045-3.39-13.61-9.202-1.632-5.51.99-11.92 6.077-14.635C13.79.964 21.096 2.274 24.82 7.1c1.814 2.24 2.853 5.106 2.834 7.992z" opacity=".52" fill="none" stroke="#fff" stroke-width=".924"/><g stroke="#312405" stroke-linecap="round"><path d="M17.63 7.995c-2.49 4.404-4.978 8.81-7.467 13.213 1.246-1.773 2.165-3.77 3.264-5.645 1.4-2.523 2.802-5.045 4.203-7.568z" opacity=".883" fill="#6f530c" stroke-width="1.007" stroke-linejoin="round"/><path d="M19.834 9.516l-7.467 13.212c1.247-1.772 2.166-3.77 3.264-5.645l4.204-7.567z" opacity=".883" fill="#fff" stroke-width="1.007" stroke-linejoin="round"/><path d="M19.197 12.374c-1.47-2.952-6.434-3.33-7.952-.223-1.156 2.135-1.505 5.23.34 7.08 2.253 1.795 5.854.92 7.574-1.212l.15-.242.128-.257" opacity=".883" fill="none" stroke-width="2.041"/></g><path d="M-4.165 13.04c.067 5.01-5.432 8.574-10.096 7.55-4.35-.617-7.99-5.28-6.494-9.65 1.59-5.062 8.314-7.115 12.698-4.368 2.264 1.32 3.94 3.793 3.89 6.47z" transform="matrix(.885 0 0 .874 29.139 8.374)" opacity=".209" fill="#f6dfa7" fill-opacity=".676" fill-rule="evenodd" filter="url(#b)"/><path d="M26.913 15.48c.152 6.043-5.084 11.54-11.1 11.817-5.733.47-11.448-3.754-12.512-9.442-1.14-5.31 1.878-11.152 6.913-13.23C15.42 2.306 22.17 4.28 25.11 9.22c1.17 1.863 1.814 4.058 1.803 6.26z" opacity=".097" fill="none" stroke="#000" stroke-width=".858"/></g></g></svg>