<?xml version="1.0" encoding="iso-8859-1"?>
<!-- Generator: Adobe Illustrator 15.1.0, SVG Export Plug-In . SVG Version: 6.00 Build 0)  -->
<!DOCTYPE svg PUBLIC "-//W3C//DTD SVG 1.1//EN" "http://www.w3.org/Graphics/SVG/1.1/DTD/svg11.dtd">
<svg version="1.1" id="flash0.ai" xmlns="http://www.w3.org/2000/svg" xmlns:xlink="http://www.w3.org/1999/xlink" x="0px" y="0px"
	 width="27px" height="16.65px" viewBox="0 0 27 16.65" style="enable-background:new 0 0 27 16.65;" xml:space="preserve">
<path style="fill-rule:evenodd;clip-rule:evenodd;fill:#613C32;" d="M4,6.65C4.3,6.383,4.783,6.2,5.45,6.1
	C6.05,6.033,6.4,6.05,6.5,6.15c1.067,0.233,2.533,1,4.4,2.3l1.15-0.25l0.75,0.1c0.334-0.566,1.066-1.116,2.2-1.65
	c-1.667-0.133-2.733-0.267-3.2-0.4c-0.5-0.066-1.033-0.316-1.6-0.75C9.633,5.066,9.333,4.667,9.3,4.3
	C9.233,3.833,9.467,3.467,10,3.2c0.6-0.333,1.533-0.467,2.8-0.4l5.351-0.25c0.633-0.033,1.233,0.384,1.8,1.25
	c0.5,0.867,0.583,1.483,0.25,1.85C19.934,5.917,19.566,6.1,19.1,6.2l0.5,0.2c0.233,0.1,0.45,0.083,0.65-0.05s0.417-0.167,0.65-0.1
	c0.267,0.066,0.533,0.25,0.8,0.55c0.666-0.333,1.866-0.466,3.6-0.4c0.7,0.034,1.2,0.3,1.5,0.8c0.233,0.4,0.283,0.783,0.15,1.15
	C26.884,8.55,26.566,8.7,26,8.8c-0.7,0.134-1.167,0.283-1.4,0.45L24.5,9.3c0.7,0.367,1.017,0.917,0.95,1.65
	c-0.066,0.533-0.2,0.95-0.4,1.25c0.2,0.233,0.316,0.5,0.351,0.8c0.1,0.633-0.367,1.184-1.4,1.65c-1.533,0.533-2.783,0.966-3.75,1.3
	c-1.2,0.433-2.467,0.483-3.8,0.149c-1.167,0.634-2.634,0.733-4.4,0.301L8.35,16.6c-1.467,0.033-2.9-0.316-4.3-1.05
	C2.883,14.917,2.1,14.233,1.7,13.5c-0.733-0.367-1.167-0.8-1.3-1.3c-0.167-0.567,0.117-1.05,0.85-1.45L1.1,10.7
	C0.033,10.1-0.267,9.35,0.2,8.45C0.333,8.184,0.6,8,1,7.9c0.167-0.066,0.333-0.1,0.5-0.1l0.2,0.35C1.767,8.25,1.9,8.3,2.1,8.3
	c0.433-0.366,0.816-0.6,1.15-0.7C3.35,7.333,3.6,7.017,4,6.65z"/>
<path style="fill-rule:evenodd;clip-rule:evenodd;fill:#4D2F24;" d="M5.2,6.45C5.533,6.283,5.733,6.167,5.8,6.1l2.65,1.15
	c1.8,0.8,2.816,1.333,3.05,1.6c0.4,0.466,0.417,0.933,0.05,1.4c-0.3,0.467-1.2,0.7-2.7,0.7c-0.167,0-0.633-0.033-1.4-0.101
	c-0.367-0.033-0.6-0.017-0.7,0.051c-0.233,0.232-0.017,0.5,0.65,0.8c0.5,0.233,0.833,0.2,1-0.101l0.05,0.551
	c0.133,1.633-0.2,2.583-1,2.85C6.917,15.233,6.434,15.083,6,14.55C5.633,14.15,5.467,13.8,5.5,13.5c0.033-0.167-0.033-0.434-0.2-0.8
	l-0.25-0.5L4.2,13c-0.333,0.233-0.667,0.35-1,0.35c-0.367-0.033-0.65-0.183-0.85-0.449c-0.133-0.233-0.167-0.551-0.1-0.95l0.2-0.55
	l-1.2-0.65c-0.5-0.233-0.85-0.566-1.05-1L0,9.15l0.65,0.6c0.3,0.267,0.617,0.383,0.95,0.35c0.367-0.033,0.617-0.217,0.75-0.55
	L2.8,8.7l0.25,0.2C3.217,9,3.417,9.066,3.65,9.1c-0.066-0.166-0.1-0.383-0.1-0.649l0.05-0.4l0.25,0.5
	c0.066,0.2,0.283,0.434,0.65,0.7c0.4,0.3,0.85,0.517,1.35,0.65C6.717,10.133,6.9,9.866,6.4,9.1C6,8.667,5.6,8.117,5.2,7.45
	C4.934,7.017,4.934,6.684,5.2,6.45z"/>
<path style="fill-rule:evenodd;clip-rule:evenodd;fill:#4D2F24;" d="M18.15,8.05c0.666,0.333,1,0.784,1,1.351
	c0,0.6-0.301,1.149-0.9,1.649c-0.8,0.634-2.517,0.816-5.15,0.55l0.7-0.1c0.367-0.066,0.667-0.25,0.9-0.55
	c0.267-0.3,0.399-0.65,0.399-1.05c0.034-0.268-0.233-0.467-0.8-0.601C13.833,9.2,13.65,9.1,13.75,9c0.267-0.3,0.884-0.6,1.85-0.9
	C16.7,7.767,17.55,7.75,18.15,8.05z"/>
<path style="fill-rule:evenodd;clip-rule:evenodd;fill:#4D2F24;" d="M4.05,15.55C2.883,14.917,2.1,14.233,1.7,13.5
	c-0.733-0.367-1.167-0.8-1.3-1.3c-0.1-0.334,0.034-0.684,0.4-1.05c-0.066,0.267-0.05,0.517,0.05,0.75
	c0.133,0.267,0.333,0.399,0.6,0.399c0.5,0.033,0.867,0.017,1.1-0.05L2.8,13.3c0.267,0.767,0.684,1.3,1.25,1.601
	c0.7,0.366,1.85,0.649,3.45,0.85c1.667,0.167,2.8,0.083,3.4-0.25c0.867-0.434,1.333-0.867,1.4-1.3l0.4,0.649
	c0.434,0.4,1.1,0.567,2,0.5c1.467-0.1,2.5-0.149,3.1-0.149c0.267-0.033,0.434-0.217,0.5-0.55c0-0.034,0-0.351,0-0.95
	c0-0.167,0.217-0.3,0.65-0.4c0.633-0.167,1.2-0.483,1.7-0.95c0.767-0.6,1.216-0.967,1.35-1.1c0.167-0.167,0.184-0.367,0.05-0.6
	L21.5,9.85c0.7-0.199,1.167-0.666,1.4-1.399c0.233-0.667,0.35-1.067,0.35-1.2c0-0.233-0.2-0.333-0.6-0.3
	C22.35,6.983,21.967,7.066,21.5,7.2c-0.467,0.167-0.816,0.267-1.05,0.3L19.7,7.55c-0.434-0.4-0.783-0.616-1.05-0.65
	c-0.167-0.033-0.534,0.083-1.101,0.35c-0.033,0.033-0.25,0.2-0.649,0.5c-0.267,0.233-0.483,0.283-0.65,0.15
	c-0.2-0.133-0.384-0.333-0.55-0.6c-0.134-0.267-0.167-0.417-0.101-0.45c1.367-0.534,2.034-0.85,2-0.95c0-0.133-0.5-0.55-1.5-1.25
	c-0.3-0.2-0.8-0.367-1.5-0.5l-0.949-0.1L13.6,4.4C13.4,4.667,12.95,4.816,12.25,4.85C11.017,4.917,10.067,4.833,9.4,4.6
	C9.333,4.533,9.3,4.434,9.3,4.3C9.233,3.833,9.467,3.467,10,3.2c0.6-0.333,1.533-0.467,2.8-0.4l5.351-0.25
	c0.633-0.033,1.233,0.384,1.8,1.25c0.5,0.867,0.583,1.483,0.25,1.85C19.934,5.917,19.566,6.1,19.1,6.2l0.5,0.2
	c0.233,0.1,0.45,0.083,0.65-0.05s0.417-0.167,0.65-0.1c0.267,0.066,0.533,0.25,0.8,0.55c0.666-0.333,1.866-0.466,3.6-0.4
	c0.7,0.034,1.2,0.3,1.5,0.8c0.233,0.4,0.283,0.783,0.15,1.15C26.884,8.55,26.566,8.7,26,8.8c-0.7,0.134-1.167,0.283-1.4,0.45
	L24.5,9.3c0.7,0.367,1.017,0.917,0.95,1.65c-0.066,0.533-0.2,0.95-0.4,1.25c0.2,0.233,0.316,0.5,0.351,0.8
	c0.1,0.633-0.367,1.184-1.4,1.65c-1.533,0.533-2.783,0.966-3.75,1.3c-1.2,0.433-2.467,0.483-3.8,0.149
	c-1.167,0.634-2.634,0.733-4.4,0.301L8.35,16.6C6.883,16.633,5.45,16.283,4.05,15.55z"/>
<path style="fill-rule:evenodd;clip-rule:evenodd;fill:#4D2F24;" d="M14.25,13.15c1,0.066,1.866,0.083,2.6,0.05
	c-1.166,0.533-2.166,0.816-3,0.85c-1.233,0.066-2.133-0.1-2.7-0.5l-1.1-0.899L14.25,13.15z"/>
<path style="fill-rule:evenodd;clip-rule:evenodd;fill:#804F43;" d="M1.4,8.4c0.2,0.1,0.284,0.25,0.25,0.45
	c0,0.167-0.066,0.3-0.2,0.4C1.383,9.316,1.333,9.333,1.3,9.3C1.233,9.267,1.117,9.233,0.95,9.2H0.7c-0.2,0.033-0.2-0.134,0-0.5
	C0.8,8.367,1.033,8.267,1.4,8.4z"/>
<path style="fill-rule:evenodd;clip-rule:evenodd;fill:#804F43;" d="M4.25,6.85C4.483,6.684,4.6,6.7,4.6,6.9
	c0.033,0.167,0,0.317-0.1,0.45c-0.033,0.1-0.017,0.233,0.05,0.4L4.9,8.2c0.034,0.167,0.25,0.417,0.65,0.75L5.15,8.8l-0.4-0.3
	C4.55,8.4,4.4,8.267,4.3,8.1L4.1,7.5C3.934,7.233,3.983,7.017,4.25,6.85z"/>
<path style="fill-rule:evenodd;clip-rule:evenodd;fill:#804F43;" d="M13,10.1c0.3-0.1,0.517-0.083,0.65,0.051
	c0.166,0.1,0.233,0.25,0.199,0.449c-0.033,0.167-0.083,0.267-0.149,0.301c-0.167,0.033-0.316,0.083-0.45,0.149
	c-0.167,0.066-0.3,0.066-0.4,0c-0.133-0.1-0.267-0.184-0.4-0.25c-0.2-0.1-0.217-0.233-0.05-0.399
	C12.533,10.267,12.733,10.167,13,10.1z"/>
<path style="fill-rule:evenodd;clip-rule:evenodd;fill:#804F43;" d="M7.75,11.1c0.133,0.067,0.167,0.167,0.1,0.301
	c-0.1,0.133-0.317,0.149-0.65,0.05c-0.367-0.101-0.417-0.233-0.15-0.4C7.317,10.917,7.55,10.934,7.75,11.1z"/>
<path style="fill-rule:evenodd;clip-rule:evenodd;fill:#804F43;" d="M1.3,11.2c0.267-0.167,0.4-0.101,0.4,0.2
	c0.033,0.267-0.05,0.433-0.25,0.5c-0.133,0.033-0.217-0.051-0.25-0.25C1.167,11.417,1.2,11.267,1.3,11.2z"/>
<path style="fill-rule:evenodd;clip-rule:evenodd;fill:#804F43;" d="M4.7,13.35c0.267,0.067,0.466,0.233,0.6,0.5
	c0.1,0.301,0.067,0.517-0.1,0.65c-0.133,0.133-0.284,0.15-0.45,0.05c-0.233-0.167-0.433-0.3-0.6-0.399
	C3.883,13.983,3.833,13.8,4,13.6C4.133,13.366,4.367,13.283,4.7,13.35z"/>
<path style="fill-rule:evenodd;clip-rule:evenodd;fill:#804F43;" d="M11.3,11.45c0.6,0.066,0.983,0.149,1.15,0.25
	c0.3,0.233,0.899,0.3,1.8,0.2c0.5-0.034,1.083,0.017,1.75,0.149c0.267,0.033,0.3,0.134,0.1,0.3c-0.199,0.134-0.5,0.233-0.899,0.301
	c-0.3,0.066-0.517,0.083-0.65,0.05c-0.2-0.033-0.316-0.05-0.35-0.05L13,12.7c-0.233,0.033-0.4,0.017-0.5-0.05
	c-0.233-0.101-0.433-0.167-0.6-0.2L10.6,12c-0.333-0.134-0.417-0.267-0.25-0.4C10.483,11.467,10.8,11.417,11.3,11.45z"/>
<path style="fill-rule:evenodd;clip-rule:evenodd;fill:#804F43;" d="M17.95,12.4c0.1,0,0.149-0.084,0.149-0.25
	c0-0.167,0.084-0.284,0.25-0.351c0.267-0.033,0.434-0.017,0.5,0.05c0.101,0.101,0.167,0.317,0.2,0.65
	c0.033,0.3-0.233,0.383-0.8,0.25C17.616,12.616,17.517,12.5,17.95,12.4z"/>
<path style="fill-rule:evenodd;clip-rule:evenodd;fill:#804F43;" d="M20.95,9.15c0.2-0.2,0.333-0.367,0.399-0.5
	c0.167-0.5,0.334-0.783,0.5-0.85c0.267-0.133,0.434-0.183,0.5-0.15c0.067,0.034,0.167,0.167,0.301,0.4c0.1,0.167,0.1,0.333,0,0.5
	C22.583,8.65,22.434,8.8,22.2,9c-0.101,0.133-0.233,0.217-0.4,0.25L21.15,9.3C20.917,9.333,20.85,9.283,20.95,9.15z"/>
<path style="fill-rule:evenodd;clip-rule:evenodd;fill:#804F43;" d="M19.7,7.55c0.166,0.067,0.25,0.184,0.25,0.35
	c-0.033,0.167-0.167,0.25-0.4,0.25c-0.233-0.033-0.333-0.167-0.3-0.4C19.283,7.483,19.434,7.417,19.7,7.55z"/>
<path style="fill-rule:evenodd;clip-rule:evenodd;fill:#804F43;" d="M16.8,14.1c0.601-0.033,0.851,0.017,0.75,0.15
	c-0.066,0.1-0.267,0.25-0.6,0.45c-0.134,0.1-0.267,0.133-0.4,0.1c-0.166-0.033-0.3-0.05-0.399-0.05c-0.267,0-0.567-0.117-0.9-0.35
	c-0.134-0.101-0.05-0.167,0.25-0.2c0.2-0.033,0.566-0.067,1.1-0.101H16.8z"/>
<path style="fill-rule:evenodd;clip-rule:evenodd;fill:#42281F;" d="M9.65,3.85l2.9,0.1l1,0.2c-0.166,0.2-0.667,0.3-1.5,0.3
	L9.55,4.3c-0.033-0.066-0.066-0.15-0.1-0.25C9.45,3.883,9.517,3.816,9.65,3.85z"/>
<path style="fill-rule:evenodd;clip-rule:evenodd;fill:#42281F;" d="M18.4,3.1c0.399,0,0.816,0.333,1.25,1
	c0.267,0.433,0.416,0.7,0.449,0.8c0.067,0.233-0.05,0.467-0.35,0.7c-0.4,0.367-1.233,0.15-2.5-0.65c0.434-0.134,0.75-0.3,0.95-0.5
	c0.133-0.134,0.2-0.4,0.2-0.8V3.1z"/>
<path style="fill-rule:evenodd;clip-rule:evenodd;fill:#42281F;" d="M13.15,9.45c0.166-0.134,0.366-0.267,0.6-0.4
	c0.5-0.333,0.967-0.566,1.4-0.7c0.699-0.267,1.033-0.667,1-1.2L16.8,7.8l0.5,0.1c0.7,0.233,1.017,0.817,0.95,1.75
	c-0.066,1-0.6,1.649-1.6,1.949c0.6-0.566,0.899-1.05,0.899-1.449c0-0.7-0.434-1.067-1.3-1.101c-0.467-0.033-1.134,0.033-2,0.2
	L13.15,9.45z"/>
<path style="fill-rule:evenodd;clip-rule:evenodd;fill:#42281F;" d="M4.05,15.55C2.883,14.917,2.1,14.233,1.7,13.5
	c-0.733-0.367-1.167-0.8-1.3-1.3c0.467,0.566,1.233,0.816,2.3,0.75l0.1,0.45l-0.3,0.25l0.4,0.399C3.467,14.616,3.767,14.9,3.8,14.9
	c0.634,0.433,1.6,0.767,2.9,1c2.066,0.366,3.683,0.232,4.85-0.4l0.2,0.1c0.5,0.267,1.417,0.434,2.75,0.5
	c1.066,0.067,1.6-0.149,1.6-0.649l0.45,0.149c0.2,0.134,0.95,0.217,2.25,0.25c1.167,0.033,2.084-0.383,2.75-1.25
	c0.2-0.3-0.017-0.449-0.649-0.449L19.85,14.2c1.634-0.667,2.667-1.134,3.101-1.4c0.366-0.2,0.649-0.5,0.85-0.899
	c0.2-0.4,0.233-0.768,0.101-1.101c-0.067-0.267-0.434-0.5-1.101-0.7l-0.95-0.25l1.9-1.1c0.333-0.2,0.866-0.383,1.6-0.55
	c0.4-0.134,0.617-0.333,0.65-0.6s-0.217-0.667-0.75-1.2h0.05c0.7,0.034,1.2,0.3,1.5,0.8c0.233,0.4,0.283,0.783,0.15,1.15
	C26.884,8.55,26.566,8.7,26,8.8c-0.7,0.134-1.167,0.283-1.4,0.45L24.5,9.3c0.7,0.367,1.017,0.917,0.95,1.65
	c-0.066,0.533-0.2,0.95-0.4,1.25c0.2,0.233,0.316,0.5,0.351,0.8c0.1,0.633-0.367,1.184-1.4,1.65c-1.533,0.533-2.783,0.966-3.75,1.3
	c-1.2,0.433-2.467,0.483-3.8,0.149c-1.167,0.634-2.634,0.733-4.4,0.301L8.35,16.6C6.883,16.633,5.45,16.283,4.05,15.55z"/>
<path style="fill-rule:evenodd;clip-rule:evenodd;fill:#42281F;" d="M0.6,10.3l1.65,0.75c0.067,0.033,0.133-0.05,0.2-0.25
	c0.133-0.3,0.3-0.55,0.5-0.75c0.233-0.233,0.55-0.3,0.95-0.2C4.1,9.917,4.267,10,4.4,10.1c0.467,0.167,0.717,0.434,0.75,0.801
	c0.067,0.732-0.1,1.283-0.5,1.649c-0.2,0.134-0.533,0.033-1-0.3c-0.566-0.434-0.966-0.717-1.2-0.85L0.6,10.3z"/>
<path style="fill-rule:evenodd;clip-rule:evenodd;fill:#42281F;" d="M7.45,9.15l0.8,0.3c0.667,0.2,1.317,0.3,1.95,0.3l1.9-0.05
	c-0.434,0.6-1.033,0.899-1.8,0.899c-1.233,0-2.033-0.149-2.4-0.449L7.25,9.55L7.45,9.15z"/>
<path style="fill-rule:evenodd;clip-rule:evenodd;fill:#42281F;" d="M8.4,11.6C8.533,12,8.517,12.4,8.35,12.8
	c-0.167,0.367-0.383,0.517-0.65,0.45c-0.233-0.066-0.483-0.417-0.75-1.05l-0.3-0.95L7.4,11.7C7.8,11.9,8.133,11.866,8.4,11.6z"/>
<path style="fill-rule:evenodd;clip-rule:evenodd;fill:#42281F;" d="M13.75,13.15c0.167,0.066,0.45,0.083,0.85,0.05
	c-0.333,0.233-0.966,0.35-1.899,0.35c-0.567,0-1.1-0.133-1.6-0.399l-0.6-0.45l1.2,0.1c0.333,0.033,0.7,0.066,1.1,0.101
	C13.134,12.934,13.45,13.017,13.75,13.15z"/>
<path style="fill-rule:evenodd;clip-rule:evenodd;fill:#613C32;" d="M12.25,0.05c2.5-0.2,4.384,0.4,5.65,1.8
	c1.066,1.167,1.366,2,0.899,2.5c-0.233,0.3-0.833,0.466-1.8,0.5c-0.967,0.066-1.75-0.017-2.35-0.25c-1.101-0.434-2.567-0.7-4.4-0.8
	c-0.833-0.066-1.4-0.4-1.7-1c-0.233-0.566-0.2-1.1,0.1-1.6C8.983,0.633,10.184,0.25,12.25,0.05z"/>
<path style="fill-rule:evenodd;clip-rule:evenodd;fill:#4D2F24;" d="M18.75,3.1C18.983,3.733,19,4.15,18.8,4.35
	c-0.233,0.3-0.833,0.466-1.8,0.5c-0.967,0.066-1.75-0.017-2.35-0.25c-1.101-0.434-2.567-0.7-4.4-0.8c-0.867-0.1-1.433-0.45-1.7-1.05
	c0.333,0.367,0.95,0.533,1.85,0.5c0.667,0,1.483,0.033,2.45,0.1c0.733,0.1,1.233,0.117,1.5,0.05L15.2,3.25
	c0.267-0.533,0.583-0.983,0.95-1.35c0.199-0.233,0.517-0.367,0.949-0.4c0.233,0,0.301-0.083,0.2-0.25
	C17.967,1.783,18.45,2.4,18.75,3.1z"/>
<path style="fill-rule:evenodd;clip-rule:evenodd;fill:#613C32;" d="M16.65,2.05C16.917,2.017,16.967,2.2,16.8,2.6
	c-0.166,0.433-0.366,0.65-0.6,0.65s-0.283-0.184-0.15-0.55C16.184,2.333,16.384,2.117,16.65,2.05z"/>
<path style="fill-rule:evenodd;clip-rule:evenodd;fill:#613C32;" d="M17.3,2.7c0.167-0.067,0.267,0.017,0.3,0.25
	c0.034,0.2-0.05,0.316-0.25,0.35c-0.166,0.034-0.25-0.05-0.25-0.25C17.134,2.85,17.2,2.733,17.3,2.7z"/>
<path style="fill-rule:evenodd;clip-rule:evenodd;fill:#613C32;" d="M16.6,3.75c0.367,0.033,0.467,0.167,0.301,0.4
	c-0.2,0.2-0.417,0.267-0.65,0.2c-0.233-0.067-0.3-0.2-0.2-0.4C16.184,3.783,16.366,3.717,16.6,3.75z"/>
<path style="fill-rule:evenodd;clip-rule:evenodd;fill:#4D2F24;" d="M15,2.1c0.267,0,0.35,0.117,0.25,0.35
	c-0.1,0.2-0.267,0.316-0.5,0.35c-0.233,0-0.35-0.116-0.35-0.35S14.6,2.1,15,2.1z"/>
<path style="fill-rule:evenodd;clip-rule:evenodd;fill:#4D2F24;" d="M11.6,2.5c0.833,0.033,1.217,0.133,1.15,0.3
	C12.684,3,12.4,3.1,11.9,3.1c-0.367,0.033-0.617-0.067-0.75-0.3C11.017,2.6,11.167,2.5,11.6,2.5z"/>
<path style="fill-rule:evenodd;clip-rule:evenodd;fill:#804F43;" d="M10.35,0.75c0.667-0.167,1.533-0.316,2.6-0.45
	c0.533-0.033,1.017,0.083,1.45,0.35c0.366,0.034,0.583,0.1,0.649,0.2C15.116,0.917,15.167,1,15.2,1.1c0.166,0.167-0.15,0.167-0.95,0
	c-0.134-0.034-0.233-0.05-0.3-0.05c-0.101,0.067-0.316,0.1-0.65,0.1c-0.366,0-0.7-0.033-1-0.1c-0.233-0.066-0.4-0.1-0.5-0.1
	c-0.233,0-0.483,0.066-0.75,0.2c-0.2,0.133-0.517,0.1-0.95-0.1c-0.2-0.066-0.333-0.066-0.4,0c-0.1,0.067-0.184,0.1-0.25,0.1
	C8.983,1.15,9.283,1.017,10.35,0.75z"/>
<path style="fill-rule:evenodd;clip-rule:evenodd;fill:#613C32;" d="M5.25,6.1c0-0.633,0.283-1.383,0.85-2.25
	c0.566-0.867,1.083-1.367,1.55-1.5c0.467-0.1,0.9-0.083,1.3,0.05c0.367,0.133,0.566,0.317,0.6,0.55c0.167,0.733,0.217,1.2,0.15,1.4
	c-0.067,0.2-0.083,0.4-0.05,0.6c0.1,0.7,0.967,0.917,2.6,0.65c0.033,0,0.583-0.184,1.65-0.55c0.666-0.233,1.166-0.233,1.5,0
	c0.466,0.367,0.75,0.9,0.85,1.6c0.134,0.8-0.083,1.4-0.65,1.8C14.934,8.95,13.967,9.3,12.7,9.5c-1.3,0.233-2.517,0.25-3.65,0.05
	c-1.1-0.2-2.017-0.667-2.75-1.4C5.633,7.483,5.283,6.8,5.25,6.1z"/>
<path style="fill-rule:evenodd;clip-rule:evenodd;fill:#4D2F24;" d="M5.75,7.5L7.3,8.3c0.934,0.534,1.884,0.717,2.85,0.55
	c0.7-0.1,1.217-0.3,1.55-0.6c0.3-0.267,0.4-0.667,0.3-1.2c-0.133-0.633-0.65-0.966-1.55-1C9.617,6.05,8.934,5.8,8.4,5.3L7.85,4.5
	l0.5-0.85C8.583,3.184,8.633,2.733,8.5,2.3c0.633,0.067,0.983,0.284,1.05,0.65c0.167,0.733,0.217,1.2,0.15,1.4
	c-0.067,0.2-0.083,0.4-0.05,0.6c0.1,0.7,0.967,0.917,2.6,0.65c0.033,0,0.583-0.184,1.65-0.55c0.666-0.233,1.166-0.233,1.5,0
	c0.466,0.367,0.75,0.9,0.85,1.6c0.134,0.8-0.083,1.4-0.65,1.8C14.934,8.95,13.967,9.3,12.7,9.5c-1.3,0.233-2.517,0.25-3.65,0.05
	C7.583,9.25,6.483,8.566,5.75,7.5z"/>
<path style="fill-rule:evenodd;clip-rule:evenodd;fill:#613C32;" d="M13,6.3c0.2,0.167,0.217,0.35,0.05,0.55
	c-0.2,0.2-0.366,0.2-0.5,0c-0.167-0.167-0.183-0.333-0.05-0.5C12.633,6.15,12.8,6.133,13,6.3z"/>
<path style="fill-rule:evenodd;clip-rule:evenodd;fill:#613C32;" d="M13.3,7.55c0.267-0.033,0.3,0.167,0.101,0.6
	c-0.2,0.4-0.45,0.617-0.75,0.65c-0.5,0.034-0.6-0.133-0.3-0.5C12.717,7.833,13.033,7.583,13.3,7.55z"/>
<path style="fill-rule:evenodd;clip-rule:evenodd;fill:#613C32;" d="M13.6,6.9c0.233-0.1,0.367-0.15,0.4-0.15s0.066,0.05,0.1,0.15
	c0.067,0.167-0.1,0.284-0.5,0.35C13.434,7.283,13.366,7.233,13.4,7.1C13.434,7,13.5,6.934,13.6,6.9z"/>
<path style="fill-rule:evenodd;clip-rule:evenodd;fill:#613C32;" d="M14.45,8.05c0.1,0,0.133,0.1,0.1,0.3
	C14.517,8.55,14.4,8.667,14.2,8.7c-0.2,0.033-0.367,0.05-0.5,0.05C13.566,8.717,13.533,8.667,13.6,8.6
	C13.8,8.2,14.083,8.017,14.45,8.05z"/>
<path style="fill-rule:evenodd;clip-rule:evenodd;fill:#613C32;" d="M14.85,6.6c0.2-0.1,0.317-0.034,0.351,0.2
	c0.066,0.233-0.017,0.35-0.25,0.35c-0.2,0.034-0.283-0.05-0.25-0.25C14.7,6.733,14.75,6.633,14.85,6.6z"/>
<path style="fill-rule:evenodd;clip-rule:evenodd;fill:#613C32;" d="M11.15,9.05c0.233,0.033,0.267,0.134,0.1,0.3
	C11.083,9.483,10.9,9.517,10.7,9.45c-0.167-0.033-0.184-0.117-0.05-0.25C10.817,9.066,10.983,9.017,11.15,9.05z"/>
<path style="fill-rule:evenodd;clip-rule:evenodd;fill:#4D2F24;" d="M10.3,7.75c0.3-0.066,0.517-0.05,0.65,0.05
	c0.167,0.1,0.183,0.233,0.05,0.4c-0.2,0.3-0.6,0.366-1.2,0.2C9.633,8.333,9.6,8.233,9.7,8.1C9.8,7.967,10,7.85,10.3,7.75z"/>
<path style="fill-rule:evenodd;clip-rule:evenodd;fill:#4D2F24;" d="M11.15,6.95c0.133,0,0.217,0.083,0.25,0.25
	c0.034,0.167-0.033,0.267-0.2,0.3c-0.167,0.033-0.25-0.05-0.25-0.25C10.917,7.05,10.983,6.95,11.15,6.95z"/>
<path style="fill-rule:evenodd;clip-rule:evenodd;fill:#4D2F24;" d="M7.6,7.65C7.833,7.717,7.9,7.833,7.8,8
	C7.7,8.167,7.517,8.184,7.25,8.05C6.983,7.917,6.9,7.783,7,7.65S7.3,7.517,7.6,7.65z"/>
<path style="fill-rule:evenodd;clip-rule:evenodd;fill:#4D2F24;" d="M8.4,7.9c0.233,0.067,0.333,0.184,0.3,0.35
	C8.667,8.383,8.55,8.434,8.35,8.4c-0.167,0-0.233-0.083-0.2-0.25C8.217,7.95,8.3,7.867,8.4,7.9z"/>
<path style="fill-rule:evenodd;clip-rule:evenodd;fill:#4D2F24;" d="M8,2.85c0.2-0.067,0.283,0.033,0.25,0.3
	c0,0.267-0.117,0.45-0.35,0.55c-0.2,0.1-0.267,0-0.2-0.3C7.767,3.133,7.867,2.95,8,2.85z"/>
<path style="fill-rule:evenodd;clip-rule:evenodd;fill:#804F43;" d="M6.5,4.1C6.4,4.066,6.434,3.934,6.6,3.7
	c0.167-0.2,0.316-0.333,0.45-0.4c0.2-0.1,0.117,0.034-0.25,0.4C6.7,3.8,6.667,3.867,6.7,3.9c0.033,0,0.133,0,0.3,0
	c0.233,0.034,0.217,0.184-0.05,0.45l-0.2,0.4l0.2,0.4c0,0.1,0.117,0.233,0.35,0.4c0.134,0.134,0.467,0.333,1,0.6
	c0.46,0.246,0.594,0.337,0.4,0.275L9.05,6.55c0.267,0.1,0.617,0.167,1.05,0.2c-0.1,0.1-0.3,0.167-0.6,0.2
	C9.267,6.883,9.1,6.85,9,6.85L8.45,7C8.25,7,8.067,6.833,7.9,6.5C7.833,6.333,7.733,6.283,7.6,6.35C7.467,6.417,7.367,6.434,7.3,6.4
	C7.2,6.367,7.117,6.3,7.05,6.2C6.983,6.033,6.934,5.934,6.9,5.9C6.833,5.833,6.75,5.85,6.65,5.95C6.617,6.017,6.567,6.083,6.5,6.15
	C6.467,6.184,6.434,6.133,6.4,6c-0.033-0.167-0.033-0.3,0-0.4c0.067-0.3,0.034-0.434-0.1-0.4L5.6,5.55L5.7,5.2
	c0.2-0.6,0.533-0.917,1-0.95L6.65,4.2L6.5,4.1z"/>
<path style="fill-rule:evenodd;clip-rule:evenodd;fill:#804F43;" d="M6.9,6.35c0.133,0,0.184,0.066,0.15,0.2
	C6.983,6.65,6.9,6.717,6.8,6.75c-0.066,0-0.1-0.066-0.1-0.2C6.733,6.417,6.8,6.35,6.9,6.35z"/>
<path style="fill-rule:evenodd;clip-rule:evenodd;fill:#804F43;" d="M5.95,5.65c0.133,0.034,0.167,0.117,0.1,0.25
	C6.017,6,5.934,6.066,5.8,6.1c-0.133,0-0.183-0.083-0.15-0.25C5.717,5.684,5.817,5.617,5.95,5.65z"/>
<path style="fill-rule:evenodd;clip-rule:evenodd;fill:#804F43;" d="M9,7.1c0.167,0.033,0.283,0.1,0.35,0.2
	C9.383,7.4,9.3,7.45,9.1,7.45c-0.167-0.034-0.267-0.1-0.3-0.2C8.767,7.117,8.833,7.066,9,7.1z"/>
<path style="fill-rule:evenodd;clip-rule:evenodd;fill:#804F43;" d="M10,7.05c0.133,0,0.184,0.067,0.15,0.2c0,0.1-0.1,0.15-0.3,0.15
	c-0.167,0-0.217-0.05-0.15-0.15C9.733,7.117,9.833,7.05,10,7.05z"/>
</svg>
