<svg xmlns="http://www.w3.org/2000/svg" xmlns:xlink="http://www.w3.org/1999/xlink" width="130.824" height="108.812"><defs><linearGradient x1="4.434" y1="38.773" x2="4.414" y2="-47.878" xlink:href="#a" gradientUnits="userSpaceOnUse"/><linearGradient id="a"><stop offset="0" stop-color="#b3dcb6"/><stop offset="1" stop-color="#72dddf"/></linearGradient><linearGradient x1="4.434" y1="38.773" x2="4.414" y2="-47.878" xlink:href="#a" gradientUnits="userSpaceOnUse"/><linearGradient x1="4.434" y1="38.773" x2="4.414" y2="-47.878" xlink:href="#b" gradientUnits="userSpaceOnUse"/><linearGradient id="b"><stop offset="0" stop-color="#e16732"/><stop offset="1" stop-color="#f80000"/></linearGradient><linearGradient x1="4.434" y1="38.773" x2="4.414" y2="-47.878" xlink:href="#b" gradientUnits="userSpaceOnUse"/><linearGradient x1="1.735" y1="-43.062" x2="7.905" y2="58.693" xlink:href="#c" gradientUnits="userSpaceOnUse"/><linearGradient id="c"><stop offset="0" stop-color="#3c3c3c"/><stop offset="1" stop-color="#838383"/></linearGradient><linearGradient x1="1.735" y1="-43.062" x2="7.905" y2="58.693" xlink:href="#c" gradientUnits="userSpaceOnUse"/></defs><path d="M-.03 110.938l1.06-26.72c.148-6.553 5.493-10.942 10.533-11.437l12.656-.593c11.935.004 23.86-2.79 34.405-8.593C78.137 53.342 92.31 33.036 94.47 11.156c1.045-4.994 4.377-8.89 9.405-9.78l29.063-1.5C101.823-3.81 3.674-3.525-1.494-.395-9.12 42.375-3.478 79.1-.03 110.937zM80.72 3.06c.528-.013 1.1.01 1.718.063 8.852-.623 6.998 3.794 6.624 10-2.144 19.46-16.07 37.98-29.562 44.656-4.526 2.117-18.978 9.47-41.75 9.814-9.103-.57-11.962-.21-12-1.5-.13-4.39 13.573-13.392 14.875-12.438 10.3-.96 10.283.1 25.78-3.718 15.218-7.13 24.122-16.7 28.75-37.563.27-7.218 1.857-9.215 5.564-9.313z" fill="#eee"/><path d="M81.92 6.23c-3.307-.277-2.416.598-3.257 5.13C72.628 43.756 52.66 56.083 21.01 56.988" fill="none" stroke="#eee" stroke-width="1.9" stroke-linecap="round"/></svg>