<?xml version="1.0" encoding="iso-8859-1"?>
<!-- Generator: Adobe Illustrator 15.1.0, SVG Export Plug-In . SVG Version: 6.00 Build 0)  -->
<!DOCTYPE svg PUBLIC "-//W3C//DTD SVG 1.1//EN" "http://www.w3.org/Graphics/SVG/1.1/DTD/svg11.dtd">
<svg version="1.1" id="flash0.ai" xmlns="http://www.w3.org/2000/svg" xmlns:xlink="http://www.w3.org/1999/xlink" x="0px" y="0px"
	 width="56.2px" height="26.3px" viewBox="0 0 56.2 26.3" style="enable-background:new 0 0 56.2 26.3;" xml:space="preserve">
<radialGradient id="SVGID_1_" cx="16.5117" cy="-11.3638" r="14.7533" gradientTransform="matrix(0.4567 0.8896 0.8896 -0.4567 20.2191 -10.3796)" gradientUnits="userSpaceOnUse">
	<stop  offset="0" style="stop-color:#523729"/>
	<stop  offset="1" style="stop-color:#473125"/>
</radialGradient>
<path style="fill-rule:evenodd;clip-rule:evenodd;fill:url(#SVGID_1_);" d="M30.75,9.6c0.3,0.167,0.9,1.017,1.8,2.55
	c0.834,1.5,1.316,2.25,1.45,2.25c0.4,0,0.833,0.216,1.3,0.649c0.601,0.601,0.767,1.384,0.5,2.351
	c-0.267,0.966-0.967,1.449-2.1,1.449L32.1,18.5c-0.399-0.134-0.866-0.2-1.399-0.2c-1-0.033-1.733,0.25-2.2,0.851
	c-0.5,0.699-1.6,1.05-3.3,1.05c-1.5,0-2.684-0.217-3.55-0.65c-0.5-0.233-1.167-0.2-2,0.101c-1,0.399-1.8,0.566-2.4,0.5
	c-0.3-0.034-1.25-0.4-2.85-1.101c-1.167-0.533-2.217-0.633-3.15-0.3c-0.967,0.333-2.167,0.2-3.6-0.4
	c-1.267-0.666-1.967-1.033-2.1-1.1c-0.2-0.066-0.5-0.384-0.9-0.95c-0.367-0.566-0.517-0.916-0.45-1.05
	c0.066-0.134,0.283-0.316,0.65-0.55c0.767-0.5,1.217-0.8,1.35-0.9c0.867-0.667,2.35-1.417,4.45-2.25
	c0.434-0.167,1.217-0.45,2.35-0.85c1-0.4,1.7-0.784,2.1-1.15c3.267-3.1,5.033-4.95,5.3-5.55c1.567-0.267,3.233,0.117,5,1.15
	c0.567,0.3,0.783,0.75,0.65,1.35C25.883,7.2,25.867,7.633,26,7.8c0.2,0.3,0.95,0.65,2.25,1.05C29.783,9.283,30.616,9.533,30.75,9.6z
	"/>
<radialGradient id="SVGID_2_" cx="13.5537" cy="-20.6567" r="2.9909" gradientTransform="matrix(0.4556 0.8902 0.9738 -0.4179 39.1412 -16.7989)" gradientUnits="userSpaceOnUse">
	<stop  offset="0" style="stop-color:#7D4E35"/>
	<stop  offset="1" style="stop-color:#593826"/>
</radialGradient>
<path style="fill-rule:evenodd;clip-rule:evenodd;fill:url(#SVGID_2_);" d="M25.35,2.3c1.133-0.167,2,0.25,2.6,1.25
	c0.6,1,0.533,1.917-0.2,2.75C27.217,6.9,26.4,7.133,25.3,7c-1.033-0.133-1.716-0.483-2.05-1.05c-0.467-0.833-0.517-1.6-0.15-2.3
	C23.5,2.883,24.25,2.433,25.35,2.3z"/>
<radialGradient id="SVGID_3_" cx="13.9697" cy="-10.8423" r="2.9909" gradientTransform="matrix(0.4556 0.8902 0.9738 -0.4179 20.5444 -8.8174)" gradientUnits="userSpaceOnUse">
	<stop  offset="0" style="stop-color:#7D4E35"/>
	<stop  offset="1" style="stop-color:#593826"/>
</radialGradient>
<path style="fill-rule:evenodd;clip-rule:evenodd;fill:url(#SVGID_3_);" d="M16.5,6.55c1.133-0.133,2,0.3,2.6,1.3s0.533,1.9-0.2,2.7
	c-0.5,0.6-1.3,0.833-2.4,0.7c-1.067-0.1-1.767-0.433-2.1-1c-0.433-0.833-0.483-1.6-0.15-2.3C14.65,7.183,15.4,6.717,16.5,6.55z"/>
<radialGradient id="SVGID_4_" cx="14.2407" cy="-0.4482" r="2.9909" gradientTransform="matrix(0.4556 0.8902 0.9738 -0.4179 0.8493 -0.3646)" gradientUnits="userSpaceOnUse">
	<stop  offset="0" style="stop-color:#7D4E35"/>
	<stop  offset="1" style="stop-color:#593826"/>
</radialGradient>
<path style="fill-rule:evenodd;clip-rule:evenodd;fill:url(#SVGID_4_);" d="M7.05,10.9c1.133-0.133,2,0.3,2.6,1.3
	S10.2,14.1,9.5,14.9c-0.533,0.6-1.35,0.833-2.45,0.699c-1.066-0.1-1.75-0.433-2.05-1c-0.467-0.833-0.517-1.6-0.15-2.3
	C5.217,11.533,5.95,11.067,7.05,10.9z"/>
<radialGradient id="SVGID_5_" cx="18.8569" cy="-7.1763" r="2.9909" gradientTransform="matrix(0.4556 0.8902 0.9738 -0.4179 13.5979 -5.8361)" gradientUnits="userSpaceOnUse">
	<stop  offset="0" style="stop-color:#7D4E35"/>
	<stop  offset="1" style="stop-color:#593826"/>
</radialGradient>
<path style="fill-rule:evenodd;clip-rule:evenodd;fill:url(#SVGID_5_);" d="M15.35,12.35c1.133-0.133,2,0.3,2.6,1.3
	c0.6,1,0.533,1.9-0.2,2.7c-0.533,0.601-1.35,0.834-2.45,0.7c-1.033-0.1-1.716-0.434-2.05-1c-0.467-0.833-0.517-1.6-0.15-2.3
	C13.5,12.983,14.25,12.517,15.35,12.35z"/>
<radialGradient id="SVGID_6_" cx="24.4121" cy="-9.3145" r="2.9909" gradientTransform="matrix(0.4556 0.8902 0.9738 -0.4179 17.6494 -7.5749)" gradientUnits="userSpaceOnUse">
	<stop  offset="0" style="stop-color:#7D4E35"/>
	<stop  offset="1" style="stop-color:#593826"/>
</radialGradient>
<path style="fill-rule:evenodd;clip-rule:evenodd;fill:url(#SVGID_6_);" d="M19.8,16.45c1.167-0.167,2.05,0.25,2.65,1.25
	c0.566,1,0.5,1.916-0.2,2.75c-0.533,0.6-1.35,0.833-2.45,0.7c-1.033-0.134-1.716-0.483-2.05-1.051c-0.467-0.833-0.517-1.6-0.15-2.3
	C17.967,17.033,18.7,16.583,19.8,16.45z"/>
<radialGradient id="SVGID_7_" cx="17.335" cy="-15.6377" r="2.9909" gradientTransform="matrix(0.4556 0.8902 0.9738 -0.4179 29.6309 -12.7172)" gradientUnits="userSpaceOnUse">
	<stop  offset="0" style="stop-color:#7D4E35"/>
	<stop  offset="1" style="stop-color:#593826"/>
</radialGradient>
<path style="fill-rule:evenodd;clip-rule:evenodd;fill:url(#SVGID_7_);" d="M22.45,7.65c1.133-0.133,2,0.3,2.6,1.3
	c0.6,1,0.534,1.9-0.2,2.7c-0.533,0.6-1.35,0.833-2.45,0.7c-1.033-0.1-1.717-0.434-2.05-1C19.883,10.483,19.833,9.7,20.2,9
	C20.6,8.233,21.35,7.783,22.45,7.65z"/>
<radialGradient id="SVGID_8_" cx="22.896" cy="-17.2842" r="2.9909" gradientTransform="matrix(0.4556 0.8902 0.9738 -0.4179 32.7507 -14.0562)" gradientUnits="userSpaceOnUse">
	<stop  offset="0" style="stop-color:#7D4E35"/>
	<stop  offset="1" style="stop-color:#593826"/>
</radialGradient>
<path style="fill-rule:evenodd;clip-rule:evenodd;fill:url(#SVGID_8_);" d="M26.5,11.95c1.133-0.167,2,0.25,2.6,1.25
	c0.601,1,0.551,1.916-0.149,2.75c-0.533,0.6-1.35,0.833-2.45,0.7c-1.067-0.134-1.767-0.483-2.1-1.051
	c-0.433-0.833-0.483-1.6-0.15-2.3C24.65,12.533,25.4,12.083,26.5,11.95z"/>
<radialGradient id="SVGID_9_" cx="25.3931" cy="-22.4009" r="2.9909" gradientTransform="matrix(0.4556 0.8902 0.9738 -0.4179 42.446 -18.2173)" gradientUnits="userSpaceOnUse">
	<stop  offset="0" style="stop-color:#7D4E35"/>
	<stop  offset="1" style="stop-color:#593826"/>
</radialGradient>
<path style="fill-rule:evenodd;clip-rule:evenodd;fill:url(#SVGID_9_);" d="M32.35,12.15c1.134-0.133,2,0.3,2.601,1.3
	c0.6,1,0.55,1.899-0.15,2.7c-0.533,0.6-1.35,0.833-2.45,0.699c-1.066-0.1-1.75-0.433-2.05-1c-0.467-0.866-0.517-1.649-0.149-2.35
	C30.517,12.733,31.25,12.283,32.35,12.15z"/>
<radialGradient id="SVGID_10_" cx="29.79" cy="-25.6001" r="2.9909" gradientTransform="matrix(0.4556 0.8902 0.9738 -0.4179 48.5081 -20.819)" gradientUnits="userSpaceOnUse">
	<stop  offset="0" style="stop-color:#7D4E35"/>
	<stop  offset="1" style="stop-color:#593826"/>
</radialGradient>
<path style="fill-rule:evenodd;clip-rule:evenodd;fill:url(#SVGID_10_);" d="M37.3,14.8c1.134-0.166,2,0.25,2.601,1.25
	c0.6,1.033,0.55,1.95-0.15,2.75c-0.533,0.601-1.35,0.834-2.45,0.7c-1.066-0.134-1.75-0.483-2.05-1.05
	c-0.467-0.834-0.517-1.601-0.15-2.3C35.467,15.384,36.2,14.934,37.3,14.8z"/>
<radialGradient id="SVGID_11_" cx="20.3525" cy="-23.3193" r="2.9909" gradientTransform="matrix(0.4556 0.8902 0.9738 -0.4179 44.1864 -18.9642)" gradientUnits="userSpaceOnUse">
	<stop  offset="0" style="stop-color:#7D4E35"/>
	<stop  offset="1" style="stop-color:#593826"/>
</radialGradient>
<path style="fill-rule:evenodd;clip-rule:evenodd;fill:url(#SVGID_11_);" d="M30.9,7.3c1.133-0.167,2,0.25,2.6,1.25
	s0.55,1.917-0.15,2.75C32.816,11.9,32,12.133,30.9,12c-1.067-0.133-1.75-0.483-2.051-1.05c-0.466-0.833-0.517-1.6-0.149-2.3
	C29.066,7.883,29.8,7.433,30.9,7.3z"/>
<radialGradient id="SVGID_12_" cx="9.7661" cy="-18.0068" r="2.907" gradientTransform="matrix(0.4558 0.8901 0.9761 -0.4171 34.1746 -14.6036)" gradientUnits="userSpaceOnUse">
	<stop  offset="0" style="stop-color:#8D5739"/>
	<stop  offset="1" style="stop-color:#5E3B29"/>
</radialGradient>
<path style="fill-rule:evenodd;clip-rule:evenodd;fill:url(#SVGID_12_);" d="M21.2,0.05c1.1-0.167,1.95,0.233,2.55,1.2
	c0.6,1,0.55,1.9-0.15,2.7c-0.533,0.566-1.333,0.783-2.4,0.65c-1.034-0.1-1.7-0.434-2-1c-0.434-0.8-0.483-1.55-0.15-2.25
	C19.417,0.617,20.133,0.183,21.2,0.05z"/>
<radialGradient id="SVGID_13_" cx="12.3623" cy="-14.3677" r="3.054" gradientTransform="matrix(0.4341 0.9009 0.9295 -0.4218 26.4427 -11.9985)" gradientUnits="userSpaceOnUse">
	<stop  offset="0" style="stop-color:#8D5739"/>
	<stop  offset="1" style="stop-color:#5E3B29"/>
</radialGradient>
<path style="fill-rule:evenodd;clip-rule:evenodd;fill:url(#SVGID_13_);" d="M18.6,3.5c1.133-0.133,1.983,0.317,2.55,1.35
	c0.567,1.033,0.5,1.967-0.2,2.8c-0.5,0.633-1.284,0.883-2.35,0.75c-1.033-0.133-1.7-0.5-2-1.1c-0.467-0.867-0.517-1.667-0.15-2.4
	C16.817,4.133,17.533,3.667,18.6,3.5z"/>
<radialGradient id="SVGID_14_" cx="17.5044" cy="-19.5752" r="3.0178" gradientTransform="matrix(0.4389 0.8985 0.9399 -0.4224 36.2639 -16.2946)" gradientUnits="userSpaceOnUse">
	<stop  offset="0" style="stop-color:#8D5739"/>
	<stop  offset="1" style="stop-color:#5E3B29"/>
</radialGradient>
<path style="fill-rule:evenodd;clip-rule:evenodd;fill:url(#SVGID_14_);" d="M25.7,6.05c1.133-0.133,1.983,0.3,2.55,1.3
	c0.566,1.033,0.5,1.967-0.2,2.8c-0.5,0.6-1.283,0.833-2.35,0.7c-1.034-0.133-1.7-0.483-2-1.05c-0.467-0.833-0.517-1.617-0.15-2.35
	C23.917,6.683,24.633,6.217,25.7,6.05z"/>
<radialGradient id="SVGID_15_" cx="14.6436" cy="-4.9097" r="2.907" gradientTransform="matrix(0.4558 0.8901 0.9761 -0.4171 9.3179 -3.982)" gradientUnits="userSpaceOnUse">
	<stop  offset="0" style="stop-color:#8D5739"/>
	<stop  offset="1" style="stop-color:#5E3B29"/>
</radialGradient>
<path style="fill-rule:evenodd;clip-rule:evenodd;fill:url(#SVGID_15_);" d="M11.35,9.55c1.133-0.167,1.983,0.233,2.55,1.2
	c0.567,1,0.5,1.9-0.2,2.7c-0.5,0.566-1.284,0.783-2.35,0.649c-1.033-0.1-1.717-0.433-2.05-1c-0.433-0.8-0.466-1.55-0.1-2.25
	C9.567,10.117,10.283,9.683,11.35,9.55z"/>
<radialGradient id="SVGID_16_" cx="22.2896" cy="-11.6519" r="2.907" gradientTransform="matrix(0.4558 0.8901 0.9761 -0.4171 22.1137 -9.4498)" gradientUnits="userSpaceOnUse">
	<stop  offset="0" style="stop-color:#8D5739"/>
	<stop  offset="1" style="stop-color:#5E3B29"/>
</radialGradient>
<path style="fill-rule:evenodd;clip-rule:evenodd;fill:url(#SVGID_16_);" d="M21.05,13.65c1.1-0.133,1.95,0.283,2.55,1.25
	c0.6,1,0.55,1.883-0.15,2.649c-0.534,0.601-1.333,0.834-2.4,0.7c-1.033-0.1-1.7-0.434-2-1c-0.433-0.8-0.483-1.55-0.15-2.25
	C19.267,14.267,19.983,13.817,21.05,13.65z"/>
<radialGradient id="SVGID_17_" cx="27.4609" cy="-18.6416" r="2.907" gradientTransform="matrix(0.4558 0.8901 0.9761 -0.4171 35.3793 -15.1184)" gradientUnits="userSpaceOnUse">
	<stop  offset="0" style="stop-color:#8D5739"/>
	<stop  offset="1" style="stop-color:#5E3B29"/>
</radialGradient>
<path style="fill-rule:evenodd;clip-rule:evenodd;fill:url(#SVGID_17_);" d="M29.85,15.55c1.134-0.133,1.983,0.283,2.551,1.25
	c0.566,1,0.5,1.884-0.2,2.65c-0.5,0.566-1.283,0.8-2.351,0.7c-1.033-0.134-1.716-0.467-2.05-1c-0.433-0.834-0.483-1.601-0.15-2.301
	C28.017,16.116,28.75,15.684,29.85,15.55z"/>
<radialGradient id="SVGID_18_" cx="20.021" cy="-3.6064" r="2.907" gradientTransform="matrix(0.4558 0.8901 0.9761 -0.4171 6.8445 -2.9251)" gradientUnits="userSpaceOnUse">
	<stop  offset="0" style="stop-color:#8D5739"/>
	<stop  offset="1" style="stop-color:#5E3B29"/>
</radialGradient>
<path style="fill-rule:evenodd;clip-rule:evenodd;fill:url(#SVGID_18_);" d="M12.6,14.85c1.1-0.166,1.95,0.233,2.55,1.2
	c0.567,1,0.5,1.9-0.2,2.7c-0.5,0.566-1.284,0.783-2.35,0.65c-1.033-0.101-1.717-0.434-2.05-1c-0.433-0.801-0.483-1.551-0.15-2.25
	C10.767,15.417,11.5,14.983,12.6,14.85z"/>
<radialGradient id="SVGID_19_" cx="14.7329" cy="4.7896" r="2.907" gradientTransform="matrix(0.4558 0.8901 0.9761 -0.4171 -9.09 3.8839)" gradientUnits="userSpaceOnUse">
	<stop  offset="0" style="stop-color:#8D5739"/>
	<stop  offset="1" style="stop-color:#5E3B29"/>
</radialGradient>
<path style="fill-rule:evenodd;clip-rule:evenodd;fill:url(#SVGID_19_);" d="M2.45,13.45C3.583,13.317,4.433,13.733,5,14.7
	s0.517,1.85-0.15,2.649c-0.533,0.567-1.333,0.801-2.4,0.7c-1.034-0.133-1.7-0.467-2-1c-0.434-0.833-0.483-1.6-0.15-2.3
	C0.667,14.017,1.383,13.583,2.45,13.45z"/>
<radialGradient id="SVGID_20_" cx="11.1582" cy="-8.5854" r="2.907" gradientTransform="matrix(0.4558 0.8901 0.9761 -0.4171 16.294 -6.963)" gradientUnits="userSpaceOnUse">
	<stop  offset="0" style="stop-color:#8D5739"/>
	<stop  offset="1" style="stop-color:#5E3B29"/>
</radialGradient>
<path style="fill-rule:evenodd;clip-rule:evenodd;fill:url(#SVGID_20_);" d="M13.15,5c1.133-0.133,1.983,0.283,2.55,1.25
	c0.566,0.967,0.517,1.85-0.15,2.65c-0.533,0.567-1.333,0.8-2.4,0.7c-1.033-0.133-1.7-0.467-2-1C10.717,7.767,10.667,7,11,6.3
	C11.367,5.567,12.083,5.133,13.15,5z"/>
<radialGradient id="SVGID_21_" cx="22.9541" cy="-24.0703" r="2.907" gradientTransform="matrix(0.4558 0.8901 0.9761 -0.4171 45.6823 -19.521)" gradientUnits="userSpaceOnUse">
	<stop  offset="0" style="stop-color:#8D5739"/>
	<stop  offset="1" style="stop-color:#5E3B29"/>
</radialGradient>
<path style="fill-rule:evenodd;clip-rule:evenodd;fill:url(#SVGID_21_);" d="M32.8,9.4c1.134-0.133,1.983,0.283,2.55,1.25
	c0.567,0.967,0.517,1.85-0.149,2.65c-0.533,0.567-1.334,0.783-2.4,0.65c-1.033-0.1-1.7-0.434-2-1c-0.434-0.8-0.483-1.55-0.149-2.25
	C31.017,9.967,31.733,9.533,32.8,9.4z"/>
<radialGradient id="SVGID_22_" cx="27.5557" cy="-12.8262" r="3.0188" gradientTransform="matrix(0.4389 0.8985 0.9399 -0.4224 23.7609 -10.6765)" gradientUnits="userSpaceOnUse">
	<stop  offset="0" style="stop-color:#8D5739"/>
	<stop  offset="1" style="stop-color:#5E3B29"/>
</radialGradient>
<path style="fill-rule:evenodd;clip-rule:evenodd;fill:url(#SVGID_22_);" d="M23.95,17.9c1.133-0.167,1.983,0.267,2.55,1.3
	c0.567,1,0.5,1.916-0.2,2.75c-0.5,0.633-1.283,0.883-2.35,0.75c-1.034-0.134-1.717-0.483-2.05-1.05
	c-0.433-0.867-0.467-1.667-0.1-2.4C22.167,18.483,22.883,18.033,23.95,17.9z"/>
<radialGradient id="SVGID_23_" cx="14.8716" cy="-8.8745" r="3.1586" gradientTransform="matrix(0.4551 0.8904 0.9735 -0.4155 16.8211 -7.1799)" gradientUnits="userSpaceOnUse">
	<stop  offset="0" style="stop-color:#A66B49"/>
	<stop  offset="0.7412" style="stop-color:#865236"/>
	<stop  offset="1" style="stop-color:#663D29"/>
</radialGradient>
<path style="fill-rule:evenodd;clip-rule:evenodd;fill:url(#SVGID_23_);" d="M15.1,8.05c1.2-0.167,2.117,0.284,2.75,1.35
	c0.633,1.033,0.566,1.983-0.2,2.85c-0.566,0.633-1.433,0.883-2.6,0.75c-1.1-0.133-1.816-0.5-2.15-1.1
	c-0.467-0.9-0.517-1.717-0.15-2.45C13.15,8.65,13.933,8.183,15.1,8.05z"/>
<radialGradient id="SVGID_24_" cx="18.5269" cy="2.041" r="3.1586" gradientTransform="matrix(0.4551 0.8904 0.9735 -0.4155 -3.8689 1.6512)" gradientUnits="userSpaceOnUse">
	<stop  offset="0" style="stop-color:#A66B49"/>
	<stop  offset="0.7412" style="stop-color:#865236"/>
	<stop  offset="1" style="stop-color:#663D29"/>
</radialGradient>
<path style="fill-rule:evenodd;clip-rule:evenodd;fill:url(#SVGID_24_);" d="M6.7,15.6c1.2-0.166,2.133,0.284,2.8,1.351
	c0.633,1.033,0.567,1.983-0.2,2.85c-0.533,0.634-1.4,0.884-2.6,0.75c-1.1-0.133-1.817-0.5-2.15-1.1c-0.5-0.867-0.566-1.684-0.2-2.45
	C4.75,16.233,5.533,15.767,6.7,15.6z"/>
<radialGradient id="SVGID_25_" cx="19.2651" cy="-14.624" r="3.1586" gradientTransform="matrix(0.4551 0.8904 0.9735 -0.4155 27.7191 -11.8315)" gradientUnits="userSpaceOnUse">
	<stop  offset="0" style="stop-color:#A66B49"/>
	<stop  offset="0.7412" style="stop-color:#865236"/>
	<stop  offset="1" style="stop-color:#663D29"/>
</radialGradient>
<path style="fill-rule:evenodd;clip-rule:evenodd;fill:url(#SVGID_25_);" d="M22.4,9.7c1.2-0.133,2.117,0.333,2.75,1.4
	c0.633,1.033,0.567,1.983-0.2,2.85c-0.534,0.633-1.4,0.883-2.6,0.75c-1.1-0.134-1.817-0.5-2.15-1.1c-0.5-0.867-0.55-1.684-0.15-2.45
	C20.45,10.35,21.233,9.867,22.4,9.7z"/>
<radialGradient id="SVGID_26_" cx="12.5703" cy="-16.6274" r="3.1586" gradientTransform="matrix(0.4551 0.8904 0.9735 -0.4155 31.5165 -13.4523)" gradientUnits="userSpaceOnUse">
	<stop  offset="0" style="stop-color:#A66B49"/>
	<stop  offset="0.7412" style="stop-color:#865236"/>
	<stop  offset="1" style="stop-color:#663D29"/>
</radialGradient>
<path style="fill-rule:evenodd;clip-rule:evenodd;fill:url(#SVGID_26_);" d="M21.2,3c1.2-0.167,2.117,0.283,2.75,1.35
	c0.633,1.033,0.566,1.983-0.2,2.85c-0.567,0.633-1.433,0.883-2.6,0.75c-1.1-0.133-1.816-0.5-2.15-1.1
	c-0.5-0.867-0.55-1.684-0.15-2.45C19.25,3.6,20.033,3.133,21.2,3z"/>
<radialGradient id="SVGID_27_" cx="23.2607" cy="-5.1187" r="3.1608" gradientTransform="matrix(0.4551 0.8904 0.9735 -0.4155 9.702 -4.1413)" gradientUnits="userSpaceOnUse">
	<stop  offset="0" style="stop-color:#A66B49"/>
	<stop  offset="0.7412" style="stop-color:#865236"/>
	<stop  offset="1" style="stop-color:#663D29"/>
</radialGradient>
<path style="fill-rule:evenodd;clip-rule:evenodd;fill:url(#SVGID_27_);" d="M15.5,17c1.2-0.167,2.117,0.283,2.75,1.35
	c0.633,1.034,0.567,1.983-0.2,2.851c-0.533,0.633-1.4,0.883-2.6,0.75c-1.1-0.101-1.817-0.45-2.15-1.05
	c-0.5-0.867-0.55-1.684-0.15-2.45C13.55,17.65,14.333,17.167,15.5,17z"/>
<radialGradient id="SVGID_28_" cx="12.4722" cy="-16.9126" r="1.6553" gradientTransform="matrix(0.4229 0.9062 0.9062 -0.4229 30.6519 -14.3042)" gradientUnits="userSpaceOnUse">
	<stop  offset="0" style="stop-color:#A66B49"/>
	<stop  offset="1" style="stop-color:#804E33"/>
</radialGradient>
<path style="fill-rule:evenodd;clip-rule:evenodd;fill:url(#SVGID_28_);" d="M20.4,3.55c0.6-0.233,1.1-0.3,1.5-0.2
	c0.367,0.1,0.55,0.333,0.55,0.7c0,0.4-0.167,0.767-0.5,1.1c-0.434,0.4-1.034,0.583-1.8,0.55c-0.767-0.034-1.033-0.367-0.8-1
	C19.583,4.1,19.933,3.717,20.4,3.55z"/>
<radialGradient id="SVGID_29_" cx="14.5889" cy="-7.2813" r="1.4091" gradientTransform="matrix(0.4258 0.9048 0.9048 -0.4258 13.1767 -6.2001)" gradientUnits="userSpaceOnUse">
	<stop  offset="0" style="stop-color:#A66B49"/>
	<stop  offset="1" style="stop-color:#804E33"/>
</radialGradient>
<path style="fill-rule:evenodd;clip-rule:evenodd;fill:url(#SVGID_29_);" d="M13.4,9.5c0.2,0.4,0.333,0.817,0.4,1.25
	c0.034,0.5-0.083,0.85-0.35,1.05c-0.3,0.2-0.6,0.083-0.9-0.35c-0.3-0.434-0.45-0.883-0.45-1.35c0-0.434,0.167-0.717,0.5-0.85
	C12.967,9.083,13.233,9.167,13.4,9.5z"/>
<radialGradient id="SVGID_30_" cx="18.606" cy="-14.9375" r="1.7278" gradientTransform="matrix(0.4268 0.9043 0.9043 -0.4268 27.0165 -12.7517)" gradientUnits="userSpaceOnUse">
	<stop  offset="0" style="stop-color:#A66B49"/>
	<stop  offset="1" style="stop-color:#804E33"/>
</radialGradient>
<path style="fill-rule:evenodd;clip-rule:evenodd;fill:url(#SVGID_30_);" d="M20.8,9.85c1.367-0.6,2.15-0.483,2.35,0.35
	c0.233,0.8-0.233,1.417-1.4,1.85c-1,0.367-1.517,0.133-1.55-0.7C20.167,10.583,20.367,10.083,20.8,9.85z"/>
<radialGradient id="SVGID_31_" cx="28.8955" cy="-20.6323" r="1.5601" gradientTransform="matrix(0.4246 0.9054 0.9054 -0.4246 37.3593 -17.523)" gradientUnits="userSpaceOnUse">
	<stop  offset="0" style="stop-color:#A66B49"/>
	<stop  offset="1" style="stop-color:#804E33"/>
</radialGradient>
<path style="fill-rule:evenodd;clip-rule:evenodd;fill:url(#SVGID_31_);" d="M30.95,16.5c0.5,0,0.883,0.184,1.149,0.55
	c0.233,0.334,0.317,0.717,0.25,1.15c-0.233,1-0.866,1.217-1.899,0.649c-0.5-0.267-0.65-0.733-0.45-1.399
	C30.2,16.783,30.517,16.467,30.95,16.5z"/>
<radialGradient id="SVGID_32_" cx="29.8203" cy="-28.0596" r="1.465" gradientTransform="matrix(0.4266 0.9044 0.9044 -0.4266 50.7559 -23.9413)" gradientUnits="userSpaceOnUse">
	<stop  offset="0" style="stop-color:#A66B49"/>
	<stop  offset="1" style="stop-color:#804E33"/>
</radialGradient>
<path style="fill-rule:evenodd;clip-rule:evenodd;fill:url(#SVGID_32_);" d="M37.65,14.35c0.666,0,1.233,0.217,1.699,0.65
	c0.434,0.4,0.534,0.733,0.301,1c-0.334,0.434-1.067,0.35-2.2-0.25c-0.5-0.3-0.684-0.616-0.55-0.95
	C37.033,14.467,37.283,14.316,37.65,14.35z"/>
<radialGradient id="SVGID_33_" cx="12.8491" cy="-0.5107" r="1.259" gradientTransform="matrix(0.4272 0.9041 0.9041 -0.4272 0.9237 -0.4368)" gradientUnits="userSpaceOnUse">
	<stop  offset="0" style="stop-color:#A66B49"/>
	<stop  offset="1" style="stop-color:#804E33"/>
</radialGradient>
<path style="fill-rule:evenodd;clip-rule:evenodd;fill:url(#SVGID_33_);" d="M5.85,11.15c0.667-0.367,1.1-0.467,1.3-0.3
	c0.2,0.133,0.2,0.367,0,0.7c-0.1,0.267-0.367,0.517-0.8,0.75c-0.367,0.2-0.717,0.317-1.05,0.35C4.967,12.683,4.867,12.5,5,12.1
	S5.417,11.383,5.85,11.15z"/>
<radialGradient id="SVGID_34_" cx="13.1523" cy="4.8149" r="1.4371" gradientTransform="matrix(0.4262 0.9046 0.9046 -0.4262 -8.711 4.1041)" gradientUnits="userSpaceOnUse">
	<stop  offset="0" style="stop-color:#A66B49"/>
	<stop  offset="1" style="stop-color:#804E33"/>
</radialGradient>
<path style="fill-rule:evenodd;clip-rule:evenodd;fill:url(#SVGID_34_);" d="M1.45,13.35c1.2-0.067,1.683,0.316,1.45,1.15
	c-0.066,0.366-0.4,0.566-1,0.6c-0.7,0-1.2,0.017-1.5,0.051c-0.467,0.066-0.533-0.2-0.2-0.801C0.567,13.75,0.983,13.417,1.45,13.35z"
	/>
<radialGradient id="SVGID_35_" cx="19.5991" cy="0.8994" r="1.7784" gradientTransform="matrix(0.4217 0.9067 0.9067 -0.4217 -1.6311 0.7587)" gradientUnits="userSpaceOnUse">
	<stop  offset="0" style="stop-color:#A66B49"/>
	<stop  offset="1" style="stop-color:#804E33"/>
</radialGradient>
<path style="fill-rule:evenodd;clip-rule:evenodd;fill:url(#SVGID_35_);" d="M7.5,17.2c1.133-0.2,1.683,0.25,1.65,1.35
	c-0.066,1.134-0.617,1.634-1.65,1.5c-0.967-0.1-1.4-0.566-1.3-1.399C6.3,17.783,6.733,17.3,7.5,17.2z"/>
<radialGradient id="SVGID_36_" cx="29.7129" cy="-14.6421" r="1.644" gradientTransform="matrix(0.4258 0.9048 0.9048 -0.4258 26.4971 -12.4686)" gradientUnits="userSpaceOnUse">
	<stop  offset="0" style="stop-color:#A66B49"/>
	<stop  offset="1" style="stop-color:#804E33"/>
</radialGradient>
<path style="fill-rule:evenodd;clip-rule:evenodd;fill:url(#SVGID_36_);" d="M26.2,19.7c0.533-0.066,0.85-0.033,0.95,0.1
	c0.133,0.167,0.117,0.584-0.05,1.25c-0.167,0.667-0.45,1.117-0.85,1.351c-0.4,0.267-0.767,0.216-1.1-0.15
	c-0.333-0.366-0.367-0.866-0.1-1.5C25.283,20.116,25.667,19.767,26.2,19.7z"/>
<radialGradient id="SVGID_37_" cx="19.4351" cy="-19.4829" r="1.616" gradientTransform="matrix(0.4254 0.905 0.905 -0.4254 35.264 -16.5769)" gradientUnits="userSpaceOnUse">
	<stop  offset="0" style="stop-color:#A66B49"/>
	<stop  offset="1" style="stop-color:#804E33"/>
</radialGradient>
<path style="fill-rule:evenodd;clip-rule:evenodd;fill:url(#SVGID_37_);" d="M25.65,8.45c1.367-0.2,1.983,0.2,1.85,1.2
	c-0.133,1.033-0.667,1.467-1.6,1.3c-0.767-0.133-1.15-0.567-1.15-1.3C24.75,8.95,25.05,8.55,25.65,8.45z"/>
<radialGradient id="SVGID_38_" cx="12.4146" cy="-16.9912" r="1.0625" gradientTransform="matrix(0.4235 0.9059 0.9059 -0.4235 30.7841 -14.3925)" gradientUnits="userSpaceOnUse">
	<stop  offset="0" style="stop-color:#804E33"/>
	<stop  offset="1" style="stop-color:#704630"/>
</radialGradient>
<path style="fill-rule:evenodd;clip-rule:evenodd;fill:url(#SVGID_38_);" d="M20.4,3.8c1.067-0.3,1.567-0.25,1.5,0.15
	c-0.033,0.233-0.167,0.45-0.4,0.65c-0.333,0.233-0.733,0.35-1.2,0.35c-0.466,0-0.65-0.167-0.55-0.5
	C19.85,4.15,20.067,3.933,20.4,3.8z"/>
<radialGradient id="SVGID_39_" cx="14.6567" cy="-7.0576" r="0.7159" gradientTransform="matrix(0.4191 0.908 0.908 -0.4191 12.8158 -5.9152)" gradientUnits="userSpaceOnUse">
	<stop  offset="0" style="stop-color:#804E33"/>
	<stop  offset="1" style="stop-color:#704630"/>
</radialGradient>
<path style="fill-rule:evenodd;clip-rule:evenodd;fill:url(#SVGID_39_);" d="M12.4,10.1c-0.066-0.3,0-0.35,0.2-0.15
	c0.167,0.167,0.25,0.45,0.25,0.85c0,0.467-0.05,0.65-0.15,0.55C12.6,11.25,12.5,10.833,12.4,10.1z"/>
<radialGradient id="SVGID_40_" cx="12.8276" cy="-0.439" r="0.7718" gradientTransform="matrix(0.4211 0.907 0.907 -0.4211 0.7961 -0.37)" gradientUnits="userSpaceOnUse">
	<stop  offset="0" style="stop-color:#804E33"/>
	<stop  offset="1" style="stop-color:#704630"/>
</radialGradient>
<path style="fill-rule:evenodd;clip-rule:evenodd;fill:url(#SVGID_40_);" d="M6.35,11.1c0.367-0.033,0.433,0.117,0.2,0.45
	c-0.233,0.333-0.583,0.534-1.05,0.6c-0.467,0.033-0.517-0.133-0.15-0.5C5.683,11.283,6.017,11.1,6.35,11.1z"/>
<radialGradient id="SVGID_41_" cx="13.0894" cy="4.9595" r="0.8722" gradientTransform="matrix(0.4299 0.9029 0.9029 -0.4299 -8.9551 4.2646)" gradientUnits="userSpaceOnUse">
	<stop  offset="0" style="stop-color:#804E33"/>
	<stop  offset="1" style="stop-color:#704630"/>
</radialGradient>
<path style="fill-rule:evenodd;clip-rule:evenodd;fill:url(#SVGID_41_);" d="M1.45,13.6c0.466,0,0.716,0.15,0.75,0.45
	c0.033,0.233-0.117,0.4-0.45,0.5c-0.333,0.134-0.683,0.101-1.05-0.1C0.333,14.283,0.283,14.1,0.55,13.9
	C0.817,13.7,1.117,13.6,1.45,13.6z"/>
<radialGradient id="SVGID_42_" cx="19.8389" cy="0.7754" r="1.0621" gradientTransform="matrix(0.4235 0.9059 0.9059 -0.4235 -1.4048 0.6569)" gradientUnits="userSpaceOnUse">
	<stop  offset="0" style="stop-color:#A66B49"/>
	<stop  offset="0.7412" style="stop-color:#865236"/>
	<stop  offset="1" style="stop-color:#663D29"/>
</radialGradient>
<path style="fill-rule:evenodd;clip-rule:evenodd;fill:url(#SVGID_42_);" d="M8,17.7c0.367,0.033,0.583,0.149,0.65,0.35
	c0.033,0.066,0.033,0.283,0,0.65c-0.033,0.3-0.2,0.517-0.5,0.649c-0.367,0.167-0.7,0.134-1-0.1c-0.3-0.233-0.316-0.566-0.05-1
	C7.367,17.85,7.667,17.667,8,17.7z"/>
<radialGradient id="SVGID_43_" cx="30.1377" cy="-14.9805" r="0.7997" gradientTransform="matrix(0.422 0.9066 0.9066 -0.422 27.1616 -12.6439)" gradientUnits="userSpaceOnUse">
	<stop  offset="0" style="stop-color:#804E33"/>
	<stop  offset="1" style="stop-color:#704630"/>
</radialGradient>
<path style="fill-rule:evenodd;clip-rule:evenodd;fill:url(#SVGID_43_);" d="M26.85,20.5c-0.033,0.566-0.2,1.017-0.5,1.35
	c-0.3,0.334-0.45,0.267-0.45-0.199c0-0.4,0.167-0.733,0.5-1C26.733,20.384,26.883,20.333,26.85,20.5z"/>
<radialGradient id="SVGID_44_" cx="28.6826" cy="-21.2627" r="0.9455" gradientTransform="matrix(0.4098 0.9122 0.9122 -0.4098 38.79 -17.4278)" gradientUnits="userSpaceOnUse">
	<stop  offset="0" style="stop-color:#804E33"/>
	<stop  offset="1" style="stop-color:#704630"/>
</radialGradient>
<path style="fill-rule:evenodd;clip-rule:evenodd;fill:url(#SVGID_44_);" d="M31.35,16.9c0.301,0.133,0.5,0.283,0.601,0.449
	c0.033,0.101,0.017,0.301-0.05,0.601c-0.101,0.333-0.25,0.533-0.45,0.6c-0.267,0.101-0.517-0.05-0.75-0.45
	c-0.2-0.399-0.2-0.716,0-0.949C30.866,16.884,31.083,16.8,31.35,16.9z"/>
<radialGradient id="SVGID_45_" cx="29.6582" cy="-28.3018" r="0.7325" gradientTransform="matrix(0.4266 0.9044 0.9044 -0.4266 51.1937 -24.1482)" gradientUnits="userSpaceOnUse">
	<stop  offset="0" style="stop-color:#804E33"/>
	<stop  offset="1" style="stop-color:#704630"/>
</radialGradient>
<path style="fill-rule:evenodd;clip-rule:evenodd;fill:url(#SVGID_45_);" d="M38.5,14.6c0.533,0.301,0.75,0.534,0.65,0.7
	c-0.167,0.101-0.617-0.05-1.351-0.45c-0.267-0.133-0.283-0.25-0.05-0.35S38.233,14.434,38.5,14.6z"/>
<radialGradient id="SVGID_46_" cx="19.6494" cy="-19.6064" r="0.9115" gradientTransform="matrix(0.4251 0.9051 0.9051 -0.4251 35.4924 -16.6707)" gradientUnits="userSpaceOnUse">
	<stop  offset="0" style="stop-color:#804E33"/>
	<stop  offset="1" style="stop-color:#704630"/>
</radialGradient>
<path style="fill-rule:evenodd;clip-rule:evenodd;fill:url(#SVGID_46_);" d="M26.15,9c0.434,0.1,0.684,0.2,0.75,0.3
	c0.1,0.1,0.083,0.25-0.05,0.45c-0.434,0.7-0.833,0.833-1.2,0.4c-0.267-0.267-0.3-0.55-0.1-0.85C25.717,9,25.917,8.9,26.15,9z"/>
<radialGradient id="SVGID_47_" cx="18.5386" cy="-14.8428" r="1.0512" gradientTransform="matrix(0.4281 0.9037 0.9037 -0.4281 26.8276 -12.7078)" gradientUnits="userSpaceOnUse">
	<stop  offset="0" style="stop-color:#804E33"/>
	<stop  offset="1" style="stop-color:#704630"/>
</radialGradient>
<path style="fill-rule:evenodd;clip-rule:evenodd;fill:url(#SVGID_47_);" d="M21.7,9.85c0.433,0.033,0.683,0.1,0.75,0.2
	c0.066,0.1,0.017,0.284-0.15,0.55c-0.2,0.3-0.533,0.533-1,0.7c-0.466,0.167-0.716,0.117-0.75-0.15
	c-0.033-0.267,0.083-0.55,0.35-0.85C21.167,10,21.433,9.85,21.7,9.85z"/>
</svg>
