<?xml version="1.0" encoding="iso-8859-1"?>
<!-- Generator: Adobe Illustrator 15.1.0, SVG Export Plug-In . SVG Version: 6.00 Build 0)  -->
<!DOCTYPE svg PUBLIC "-//W3C//DTD SVG 1.1//EN" "http://www.w3.org/Graphics/SVG/1.1/DTD/svg11.dtd">
<svg version="1.1" id="flash0.ai" xmlns="http://www.w3.org/2000/svg" xmlns:xlink="http://www.w3.org/1999/xlink" x="0px" y="0px"
	 width="84.8px" height="92.55px" viewBox="0 0 84.8 92.55" style="enable-background:new 0 0 84.8 92.55;" xml:space="preserve">
<symbol  id="flash0.ai_x2F_Layer_17_x2F__x3C_Path_x3E_" viewBox="0.347 -8.979 39.615 8.879">
	<g id="Layer_1_17_">
		<path style="fill-rule:evenodd;clip-rule:evenodd;fill:#FFFFFF;" d="M36.15-3.7c2.4,1.467,3.667,1.833,3.8,1.1
			s-0.833-1.717-2.9-2.95c-4.4-2.633-9.767-3.75-16.1-3.35c-7.2,0.433-13.034,2.183-17.5,5.25c-2.133,1.5-3.167,2.683-3.1,3.55
			C1.483-1.333,3.067-2.533,5.1-3.7c4.033-2.333,8.75-3.7,14.15-4.1c4.1-0.333,7.4-0.133,9.9,0.6C30.883-6.7,33.217-5.533,36.15-3.7
			z"/>
	</g>
</symbol>
<symbol  id="flash0.ai_x2F_Layer_17_x2F__x3C_Path_x3E__x5F_10" viewBox="0 -22.712 41.25 22.712">
	<g id="Layer_1_11_">
		<path style="fill-rule:evenodd;clip-rule:evenodd;fill:#FFFFFF;" d="M41.25-13.9c-0.567-0.833-0.933-1.333-1.1-1.5
			c-1.5-1.733-3.35-3.2-5.55-4.4c-3.733-2.067-7.983-3.034-12.75-2.9c-5.5,0.133-10.383,1.617-14.65,4.45
			C2.967-15.483,0.817-12.4,0.75-9C0.65-5.833,0.4-3.2,0-1.1l0.3-0.05C0.867-1.283,1.683-0.9,2.75,0L2.7-0.9
			c-0.233-2,0.4-4.434,1.9-7.3c1.133-2.133,2.816-3.933,5.05-5.4c2.533-1.633,5.6-2.75,9.2-3.35c3.167-0.533,6.633-0.216,10.4,0.95
			c1.967,0.6,3.95,1.367,5.95,2.3c1.066,0.333,2.833,0.633,5.3,0.9L41.25-13.9z"/>
	</g>
</symbol>
<symbol  id="flash0.ai_x2F_Layer_17_x2F__x3C_Path_x3E__x5F_11" viewBox="0 -30 45.55 30">
	<g id="Layer_1_10_">
		<path style="fill-rule:evenodd;clip-rule:evenodd;" d="M43.25-22.35c-4.4-3.5-8.117-5.733-11.15-6.7
			c-3.934-1.267-8.7-1.267-14.3,0c-5.566,1.233-9.883,3.333-12.95,6.3c-2,1.933-3.417,4.183-4.25,6.75c-0.633,2.033-0.65,4-0.05,5.9
			c0.8,1.767,1.267,2.95,1.4,3.55c0.167,0.733-0.034,1.683-0.6,2.85c-0.3,0.6-0.667,1.25-1.1,1.95C0.117-1.35,0.033-0.767,0,0
			c0.1-0.467,0.367-0.933,0.8-1.4c0.233-0.267,0.567-0.45,1-0.55C2.067-1.983,2.467-2.017,3-2.05c0.4-2.1,0.65-4.733,0.75-7.9
			c0.067-3.4,2.217-6.483,6.45-9.25c4.267-2.833,9.15-4.316,14.65-4.45c4.767-0.133,9.017,0.833,12.75,2.9
			c2.2,1.2,4.05,2.667,5.55,4.4c0.4,0.467,0.883,1.15,1.45,2.05c0.167-0.1,0.25-0.233,0.25-0.4c0-0.367,0.233-0.95,0.7-1.75
			l-0.2-2.2C45.017-20.25,44.317-21.483,43.25-22.35z"/>
	</g>
</symbol>
<symbol  id="flash0.ai_x2F_Layer_17_x2F__x3C_Path_x3E__x5F_14" viewBox="-0.024 -5.95 31.475 5.992">
	<g id="Layer_1_9_">
		<path style="fill-rule:evenodd;clip-rule:evenodd;fill:#FFFFFF;" d="M14.75-5.95c-5.067,0-9.267,1.117-12.6,3.35
			C0.55-1.567-0.167-0.767,0-0.2c0.167,0.534,1.15,0.184,2.95-1.05C5.183-2.783,6.983-3.8,8.35-4.3c1.933-0.633,4.533-0.934,7.8-0.9
			c4.3,0.067,8.1,0.9,11.4,2.5c1.667,0.8,2.967,1.633,3.9,2.5c0.033-0.667-0.833-1.517-2.6-2.55
			C25.183-4.883,20.483-5.95,14.75-5.95z"/>
	</g>
</symbol>
<symbol  id="flash0.ai_x2F_Layer_17_x2F__x3C_Path_x3E__x5F_16" viewBox="0 -24.479 45.6 24.479">
	<g id="Layer_1_8_">
		<path style="fill-rule:evenodd;clip-rule:evenodd;fill:#42210B;" d="M45.15-14.35c-3.7-3.933-6.917-6.566-9.65-7.9
			c-3.6-1.767-8.2-2.483-13.8-2.15c-5.534,0.333-10.017,1.65-13.45,3.95c-2.233,1.5-3.95,3.383-5.15,5.65
			c-0.934,1.767-1.267,3.583-1,5.45C2.6-7.583,2.867-6.4,2.9-5.8c0.033,0.733-0.316,1.583-1.05,2.55
			c-0.367,0.533-0.817,1.1-1.35,1.7C0.333-1.217,0.167-0.7,0,0c0.167-0.433,0.483-0.833,0.95-1.2c0.3-0.2,0.8-0.3,1.5-0.3
			c0.1-0.2,0.233-0.717,0.4-1.55C3.017-3.883,3.233-4.533,3.5-5c0.433-0.833,0.583-2.433,0.45-4.8c-0.1-2.233,0.283-4.05,1.15-5.45
			c1.533-2.4,3.85-4.333,6.95-5.8c4.1-1.934,9.167-2.75,15.2-2.45c4.167,0.2,8.267,1.683,12.3,4.45c2.167,1.5,4.184,3.267,6.05,5.3
			L45.15-14.35z"/>
	</g>
</symbol>
<symbol  id="flash0.ai_x2F_Layer_17_x2F__x3C_Path_x3E__x5F_17" viewBox="0 -18.522 41.7 18.522">
	<g id="Layer_1_7_">
		<path style="fill-rule:evenodd;clip-rule:evenodd;fill:#FFFFFF;" d="M40.9-8.7c-1.133-1.833-2.667-3.483-4.6-4.95
			c-3.267-2.467-7.216-4-11.85-4.6c-5.3-0.7-10.233-0.05-14.8,1.95c-4.5,1.966-7.066,4.517-7.7,7.65C1.45-6.05,0.8-3.633,0-1.4h0.3
			C0.867-1.433,1.6-0.967,2.5,0l0.05-0.8c0.133-1.934,1.133-4.1,3-6.5c1.4-1.833,3.317-3.267,5.75-4.3
			c2.667-1.133,5.784-1.717,9.35-1.75c3.133,0,6.417,0.817,9.85,2.45c1.8,0.867,3.6,1.867,5.4,3c0.967,0.467,2.6,1.017,4.9,1.65
			l0.9-0.9C41.367-7.883,41.1-8.4,40.9-8.7z"/>
	</g>
</symbol>
<symbol  id="flash0.ai_x2F_Layer_17_x2F__x3C_Path_x3E__x5F_18" viewBox="0 -24.479 46.6 24.479">
	<g id="Layer_1_6_">
		<path style="fill-rule:evenodd;clip-rule:evenodd;" d="M45.15-14.35c-3.7-3.933-6.917-6.566-9.65-7.9
			c-3.6-1.767-8.2-2.483-13.8-2.15c-5.534,0.333-10.017,1.65-13.45,3.95c-2.233,1.5-3.95,3.383-5.15,5.65
			c-0.934,1.767-1.267,3.583-1,5.45C2.6-7.583,2.867-6.4,2.9-5.8c0.033,0.733-0.316,1.583-1.05,2.55
			c-0.367,0.533-0.817,1.1-1.35,1.7C0.333-1.217,0.167-0.7,0,0c0.167-0.433,0.483-0.833,0.95-1.2c0.267-0.2,0.633-0.3,1.1-0.3
			c0.267,0,0.65,0.017,1.15,0.05C4-3.55,4.65-5.967,5.15-8.7c0.633-3.133,3.2-5.683,7.7-7.65c4.566-2,9.5-2.65,14.8-1.95
			c4.633,0.6,8.583,2.133,11.85,4.6c1.933,1.467,3.467,3.117,4.6,4.95c0.333,0.533,0.683,1.233,1.05,2.1
			c0.2-0.1,0.317-0.217,0.35-0.35c0.033-0.333,0.35-0.833,0.95-1.5l0.15-2.05C46.533-12.117,46.05-13.383,45.15-14.35z"/>
	</g>
</symbol>
<symbol  id="flash0.ai_x2F_Layer_17_x2F__x3C_Path_x3E__x5F_2" viewBox="0 -30.15 58.6 30.15">
	<g id="Layer_1_16_">
		<path style="fill-rule:evenodd;clip-rule:evenodd;fill:#42210B;" d="M53.8-6.25c0.367,0.633,0.684,1.467,0.95,2.5
			c0.267,1.067,0.467,1.75,0.6,2.05c0.867-0.133,1.5-0.05,1.9,0.25C57.883-1.017,58.333-0.533,58.6,0
			c-0.267-0.867-0.533-1.533-0.8-2c-0.7-0.733-1.3-1.417-1.8-2.05c-1.033-1.233-1.55-2.317-1.55-3.25c0-0.767,0.25-2.333,0.75-4.7
			c0.2-2.467-0.367-4.817-1.7-7.05c-1.633-2.867-3.917-5.2-6.85-7c-4.5-2.733-10.25-4.1-17.25-4.1c-7.066,0-12.816,1.283-17.25,3.85
			c-3.367,2-7.233,5.7-11.6,11.1L0-14.35c2.2-2.833,4.617-5.3,7.25-7.4c4.9-3.933,9.967-6.183,15.2-6.75
			c7.6-0.867,14.066-0.2,19.4,2c3.967,1.667,7.017,4.017,9.15,7.05c1.2,1.733,1.817,4.067,1.85,7
			C52.85-9.383,53.167-7.317,53.8-6.25z"/>
	</g>
</symbol>
<symbol  id="flash0.ai_x2F_Layer_17_x2F__x3C_Path_x3E__x5F_21" viewBox="0.299 -6 34.523 6.013">
	<g id="Layer_1_5_">
		<path style="fill-rule:evenodd;clip-rule:evenodd;fill:#FFFFFF;" d="M18.65-6C12.35-5.967,7.2-4.867,3.2-2.7
			C1.233-1.633,0.267-0.767,0.3-0.1C1.333-1,2.767-1.85,4.6-2.65c3.633-1.633,7.8-2.483,12.5-2.55c3.6-0.066,6.45,0.233,8.55,0.9
			c1.5,0.466,3.467,1.466,5.9,3c2,1.267,3.083,1.617,3.25,1.05c0.167-0.567-0.617-1.367-2.35-2.4C28.817-4.883,24.217-6,18.65-6z"/>
	</g>
</symbol>
<symbol  id="flash0.ai_x2F_Layer_17_x2F__x3C_Path_x3E__x5F_23" viewBox="0 -24.678 50.1 24.678">
	<g id="Layer_1_4_">
		<path style="fill-rule:evenodd;clip-rule:evenodd;fill:#42210B;" d="M50.1,0c-0.2-0.7-0.4-1.233-0.6-1.6
			c-0.567-0.6-1.05-1.167-1.45-1.7c-0.833-1-1.216-1.85-1.15-2.55c0.033-0.6,0.317-1.8,0.85-3.6c0.3-1.9-0.05-3.75-1.05-5.55
			c-3.367-5.9-10.167-9.1-20.4-9.6c-6.133-0.333-11.167,0.4-15.1,2.2c-3.067,1.367-6.617,4.05-10.65,8.05L0-13.75
			c6.3-6.3,13.033-9.617,20.2-9.95c6.633-0.3,12.2,0.517,16.7,2.45c3.4,1.467,5.934,3.417,7.6,5.85c0.967,1.4,1.383,3.233,1.25,5.5
			c-0.133,2.367,0.033,3.983,0.5,4.85c0.3,0.5,0.533,1.15,0.7,1.95c0.167,0.867,0.3,1.4,0.4,1.6c0.767-0.067,1.316,0.033,1.65,0.3
			C49.533-0.833,49.9-0.433,50.1,0z"/>
	</g>
</symbol>
<symbol  id="flash0.ai_x2F_Layer_17_x2F__x3C_Path_x3E__x5F_24" viewBox="0 -18.692 45.8 18.692">
	<g id="Layer_1_3_">
		<path style="fill-rule:evenodd;clip-rule:evenodd;fill:#FFFFFF;" d="M43-0.8L43.05,0l0.85-0.7c0.667-0.5,1.2-0.733,1.6-0.7h0.3
			c-0.833-2.133-1.55-4.583-2.15-7.35c-0.667-3.167-3.467-5.733-8.4-7.7c-5-2.033-10.417-2.683-16.25-1.95
			c-5.067,0.633-9.4,2.2-13,4.7c-2.1,1.467-3.8,3.15-5.1,5.05L0-7.1l1,0.9c0.3-0.033,1.033-0.233,2.2-0.6
			c1.466-0.4,2.55-0.75,3.25-1.05c0.566-0.267,2.533-1.3,5.9-3.1c3.8-1.667,7.417-2.483,10.85-2.45c3.933,0,7.367,0.566,10.3,1.7
			c2.633,1.034,4.717,2.467,6.25,4.3C41.817-4.967,42.9-2.767,43-0.8z"/>
	</g>
</symbol>
<symbol  id="flash0.ai_x2F_Layer_17_x2F__x3C_Path_x3E__x5F_25" viewBox="0.05 -24.678 51.15 24.678">
	<g id="Layer_1_2_">
		<path style="fill-rule:evenodd;clip-rule:evenodd;" d="M50.6-1.6c-0.567-0.6-1.05-1.167-1.45-1.7c-0.833-1-1.217-1.85-1.15-2.55
			c0.033-0.6,0.317-1.8,0.85-3.6c0.3-1.9-0.05-3.75-1.05-5.55c-3.367-5.9-10.167-9.1-20.4-9.6c-6.133-0.333-11.167,0.4-15.1,2.2
			c-3.066,1.367-6.617,4.05-10.65,8.05c-0.967,0.967-1.5,2.233-1.6,3.8l0.15,2.1c0.633,0.667,0.983,1.167,1.05,1.5
			c0,0.133,0.117,0.267,0.35,0.4C2.033-7.483,2.417-8.2,2.75-8.7c1.3-1.9,3-3.583,5.1-5.05c3.6-2.5,7.933-4.067,13-4.7
			c5.833-0.733,11.25-0.083,16.25,1.95c4.933,1.967,7.733,4.533,8.4,7.7c0.6,2.767,1.317,5.216,2.15,7.35
			c0.3-0.033,0.733-0.066,1.3-0.1C49.417-1.517,49.8-1.4,50.1-1.2C50.633-0.833,51-0.433,51.2,0C51-0.7,50.8-1.233,50.6-1.6z"/>
	</g>
</symbol>
<symbol  id="flash0.ai_x2F_Layer_17_x2F__x3C_Path_x3E__x5F_3" viewBox="0 -22.841 53 22.841">
	<g id="Layer_1_15_">
		<path style="fill-rule:evenodd;clip-rule:evenodd;fill:#FFFFFF;" d="M45.6-9.3c2.467,2.9,3.883,5.65,4.25,8.25L50,0l0.95-1
			c0.7-0.667,1.267-1,1.7-1H53c-1.133-2.633-2.133-5.733-3-9.3c-1-4.067-4.417-7.2-10.25-9.4c-5.9-2.267-12.183-2.733-18.85-1.4
			c-5.767,1.133-10.617,3.434-14.55,6.9c-2.267,2.034-4.083,4.3-5.45,6.8C0.6-7.833,0.3-7.133,0-6.3l1.2,1.1
			c2.867-1,4.9-1.833,6.1-2.5c0.633-0.367,2.817-1.816,6.55-4.35c4.233-2.4,8.316-3.717,12.25-3.95
			c4.533-0.233,8.517,0.283,11.95,1.55C41.183-13.283,43.7-11.567,45.6-9.3z"/>
	</g>
</symbol>
<symbol  id="flash0.ai_x2F_Layer_17_x2F__x3C_Path_x3E__x5F_4" viewBox="-0.05 -30.15 59.6 30.15">
	<g id="Layer_1_14_">
		<path style="fill-rule:evenodd;clip-rule:evenodd;" d="M58.2-1.45c0.633,0.434,1.083,0.917,1.35,1.45
			c-0.267-0.867-0.533-1.533-0.8-2c-0.7-0.733-1.3-1.417-1.8-2.05C55.917-5.283,55.4-6.367,55.4-7.3c0-0.767,0.25-2.333,0.75-4.7
			c0.2-2.467-0.367-4.817-1.7-7.05c-1.633-2.867-3.917-5.2-6.85-7c-4.5-2.733-10.25-4.1-17.25-4.1c-7.067,0-12.817,1.283-17.25,3.85
			c-3.367,2-7.233,5.7-11.6,11.1c-1.033,1.3-1.55,2.983-1.55,5.05l0.35,2.7c0.8,0.8,1.25,1.417,1.35,1.85
			c0.033,0.2,0.167,0.35,0.4,0.45C2.517-6.417,2.917-7.367,3.25-8c1.367-2.5,3.183-4.767,5.45-6.8
			c3.933-3.467,8.783-5.767,14.55-6.9c6.667-1.333,12.95-0.867,18.85,1.4c5.833,2.2,9.25,5.333,10.25,9.4
			c0.933,3.6,1.95,6.7,3.05,9.3c0.333-0.033,0.817-0.1,1.45-0.2C57.417-1.833,57.867-1.717,58.2-1.45z"/>
	</g>
</symbol>
<symbol  id="flash0.ai_x2F_Layer_17_x2F__x3C_Path_x3E__x5F_7" viewBox="0.001 -9.053 31.849 9.103">
	<g id="Layer_1_13_">
		<path style="fill-rule:evenodd;clip-rule:evenodd;fill:#FFFFFF;" d="M14-8.55C8.833-7.75,4.783-5.9,1.85-3
			c-1.434,1.333-2.033,2.283-1.8,2.85c0.233,0.533,1.167,0,2.8-1.6c2.033-1.967,3.683-3.3,4.95-4C9.667-6.783,12.25-7.533,15.55-8
			c4.367-0.6,8.35-0.333,11.95,0.8c1.8,0.567,3.25,1.233,4.35,2c-0.067-0.7-1.083-1.45-3.05-2.25C24.733-9.117,19.8-9.483,14-8.55z"
			/>
	</g>
</symbol>
<symbol  id="flash0.ai_x2F_Layer_17_x2F__x3C_Path_x3E__x5F_9" viewBox="0 -30 43.85 30">
	<g id="Layer_1_12_">
		<path style="fill-rule:evenodd;clip-rule:evenodd;fill:#42210B;" d="M43.25-22.35c-4.4-3.5-8.117-5.733-11.15-6.7
			c-3.934-1.267-8.7-1.267-14.3,0c-5.566,1.233-9.883,3.333-12.95,6.3c-2,1.933-3.417,4.183-4.25,6.75c-0.633,2.033-0.65,4-0.05,5.9
			c0.8,1.767,1.267,2.95,1.4,3.55c0.167,0.733-0.034,1.683-0.6,2.85c-0.3,0.6-0.667,1.25-1.1,1.95C0.117-1.35,0.033-0.767,0,0
			c0.1-0.467,0.367-0.933,0.8-1.4c0.233-0.3,0.717-0.483,1.45-0.55C2.317-2.183,2.367-2.767,2.4-3.7c0-0.867,0.1-1.583,0.3-2.15
			C3-6.783,2.883-8.467,2.35-10.9c-0.533-2.333-0.467-4.3,0.2-5.9c1.133-2.767,3.133-5.167,6-7.2c3.833-2.667,8.833-4.35,15-5.05
			c6.633-0.733,13.4,1.683,20.3,7.25L43.25-22.35z"/>
	</g>
</symbol>
<g>
	<path style="fill-rule:evenodd;clip-rule:evenodd;fill:#7A601E;" d="M56.96,63.135c-0.934,0.49-1.622,1.063-2.065,1.716
		c-0.279,0.396-0.852,1.073-1.715,2.029l-1.225,1.295c0.84-2.029,1.236-3.383,1.189-4.06c-0.047-0.653-0.198-1.167-0.455-1.54
		l0.42-0.07c0.351-0.07,0.688-0.175,1.016-0.314l0.805-0.315l0.176,0.07c0.163,0.023,0.35-0.035,0.56-0.175
		c0.187-0.117,0.35-0.07,0.49,0.14c0.21,0.373,0.326,0.571,0.35,0.595C56.738,62.691,56.89,62.902,56.96,63.135z"/>
	
		<radialGradient id="SVGID_1_" cx="2.9741" cy="44.8838" r="31.2772" gradientTransform="matrix(0.4857 -0.5041 -0.5671 -0.4336 63.2233 100.3724)" gradientUnits="userSpaceOnUse">
		<stop  offset="0" style="stop-color:#F4DA42"/>
		<stop  offset="0.4784" style="stop-color:#F4D837"/>
		<stop  offset="0.6039" style="stop-color:#F1D736"/>
		<stop  offset="0.698" style="stop-color:#E7D431"/>
		<stop  offset="0.7843" style="stop-color:#D7CF29"/>
		<stop  offset="0.8667" style="stop-color:#BFC71E"/>
		<stop  offset="0.9412" style="stop-color:#A1BE10"/>
		<stop  offset="1" style="stop-color:#86B503"/>
	</radialGradient>
	<path style="fill-rule:evenodd;clip-rule:evenodd;fill:url(#SVGID_1_);" d="M55.665,64.851c-0.584,0.699-0.852,1.295-0.806,1.784
		c0.023,0.42,0.222,1.261,0.596,2.521c0.21,1.33-0.035,2.625-0.735,3.885c-2.356,4.13-7.116,6.37-14.28,6.72
		c-4.293,0.233-7.817-0.279-10.57-1.54c-2.147-0.956-4.632-2.835-7.455-5.635c-0.677-0.677-1.05-1.563-1.12-2.66l0.105-1.47
		c0.443-0.467,0.688-0.816,0.735-1.05c0.023-0.163,0.222-0.292,0.595-0.385c0.187-0.047,0.361-0.082,0.525-0.105l1.47,0.385
		c1.073,0.304,1.855,0.561,2.345,0.771c0.396,0.187,1.773,0.91,4.13,2.17c2.66,1.167,5.191,1.738,7.595,1.715
		c2.753,0,5.156-0.396,7.21-1.189c1.843-0.724,3.301-1.728,4.375-3.011c1.446-1.703,2.205-3.243,2.275-4.62l0.034-0.56l0.595,0.49
		c0.468,0.35,0.841,0.513,1.121,0.489c0.21,0,0.548,0.012,1.015,0.035c0.396,0.023,0.699-0.046,0.91-0.21
		c0.373-0.257,0.63-0.536,0.77-0.84c-0.14,0.49-0.28,0.863-0.42,1.12C56.283,64.08,55.944,64.477,55.665,64.851z"/>
	
		<use xlink:href="#flash0.ai_x2F_Layer_17_x2F__x3C_Path_x3E__x5F_25"  width="51.15" height="24.678" x="0.05" y="-24.678" transform="matrix(0.7 0 0 -0.7 21.25 62.5498)" style="overflow:visible;opacity:0.1406;enable-background:new    ;"/>
	
		<use xlink:href="#flash0.ai_x2F_Layer_17_x2F__x3C_Path_x3E__x5F_24"  width="45.8" height="18.692" y="-18.692" transform="matrix(0.7 0 0 -0.7 22.5498 62.5498)" style="overflow:visible;opacity:0.1914;enable-background:new    ;"/>
	
		<use xlink:href="#flash0.ai_x2F_Layer_17_x2F__x3C_Path_x3E__x5F_23"  width="50.1" height="24.678" y="-24.678" transform="matrix(0.7 0 0 -0.7 22.0498 62.5498)" style="overflow:visible;opacity:0.2813;enable-background:new    ;"/>
	<path style="fill-rule:evenodd;clip-rule:evenodd;fill:#82633B;" d="M22.73,67.021c0.187-0.047,0.361-0.082,0.525-0.105l0.42,0.105
		c-0.023,0.046-0.105,0.128-0.245,0.245c-0.163,0.14-0.268,0.257-0.314,0.35c-0.14,0.304-0.152,0.548-0.036,0.735
		c-0.327-0.023-0.7-0.023-1.12,0c-0.163,0-0.362,0.047-0.595,0.14l0.035-0.035c0.443-0.467,0.688-0.816,0.735-1.05
		C22.158,67.242,22.356,67.113,22.73,67.021z"/>
	
		<use xlink:href="#flash0.ai_x2F_Layer_17_x2F__x3C_Path_x3E__x5F_21"  width="34.523" height="6.013" x="0.299" y="-6" transform="matrix(0.7 0 0 -0.7 26.1499 71.4502)" style="overflow:visible;opacity:0.4609;enable-background:new    ;"/>
	<path style="fill-rule:evenodd;clip-rule:evenodd;fill:#7A601E;" d="M14.645,70.346c-0.257-0.397-0.642-0.794-1.155-1.19
		l-0.735-0.49c0.047-0.257,0.175-0.467,0.385-0.63c0.023-0.023,0.14-0.222,0.35-0.595c0.14-0.21,0.292-0.257,0.455-0.141
		c0.28,0.187,0.502,0.223,0.665,0.105l0.7,0.315c0.49,0.232,0.934,0.361,1.331,0.385l-0.175,0.385
		c-0.117,0.35-0.187,0.735-0.21,1.155c-0.046,0.653,0.315,1.982,1.085,3.989C15.94,72.072,15.042,70.976,14.645,70.346z"/>
	
		<radialGradient id="SVGID_2_" cx="-40.2969" cy="-4.4673" r="29.8756" gradientTransform="matrix(-0.4645 -0.5237 0.5395 -0.4475 12.6518 61.6986)" gradientUnits="userSpaceOnUse">
		<stop  offset="0" style="stop-color:#F4DA42"/>
		<stop  offset="0.4784" style="stop-color:#F4D837"/>
		<stop  offset="0.6039" style="stop-color:#F1D736"/>
		<stop  offset="0.698" style="stop-color:#E7D431"/>
		<stop  offset="0.7843" style="stop-color:#D7CF29"/>
		<stop  offset="0.8667" style="stop-color:#BFC71E"/>
		<stop  offset="0.9412" style="stop-color:#A1BE10"/>
		<stop  offset="1" style="stop-color:#86B503"/>
	</radialGradient>
	<path style="fill-rule:evenodd;clip-rule:evenodd;fill:url(#SVGID_2_);" d="M43.484,72.48l0.49,0.104
		c0.327,0.094,0.502,0.222,0.525,0.386c0.023,0.232,0.244,0.583,0.665,1.05l0.104,1.435c-0.047,1.097-0.385,1.983-1.015,2.66
		c-2.59,2.753-4.842,4.597-6.755,5.53c-2.521,1.236-5.74,1.738-9.66,1.505c-3.874-0.233-7.012-1.155-9.415-2.766
		c-1.563-1.05-2.765-2.368-3.605-3.955c-0.653-1.236-0.887-2.508-0.7-3.814c0.35-1.237,0.537-2.065,0.56-2.485
		c0.023-0.513-0.221-1.107-0.735-1.784c-0.56-0.654-0.875-1.051-0.945-1.19l-0.35-1.085l0.14,0.28
		c0.14,0.209,0.315,0.396,0.525,0.56s0.49,0.233,0.84,0.21c0.21,0,0.525-0.012,0.945-0.035c0.396,0.023,0.91-0.303,1.54-0.979
		l0.035,0.56c0.093,1.354,0.793,2.87,2.1,4.55c0.98,1.283,2.322,2.287,4.025,3.011c1.867,0.793,4.048,1.201,6.545,1.225
		c2.193,0,4.492-0.572,6.895-1.715c1.26-0.607,2.52-1.307,3.78-2.101C40.72,73.285,41.875,72.9,43.484,72.48z"/>
	
		<use xlink:href="#flash0.ai_x2F_Layer_17_x2F__x3C_Path_x3E__x5F_18"  width="46.6" height="24.479" y="-24.479" transform="matrix(0.7 0 0 -0.7 12.6499 68.0498)" style="overflow:visible;opacity:0.1406;enable-background:new    ;"/>
	
		<use xlink:href="#flash0.ai_x2F_Layer_17_x2F__x3C_Path_x3E__x5F_17"  width="41.7" height="18.522" y="-18.522" transform="matrix(0.7 0 0 -0.7 14.8999 68.0996)" style="overflow:visible;opacity:0.1914;enable-background:new    ;"/>
	
		<use xlink:href="#flash0.ai_x2F_Layer_17_x2F__x3C_Path_x3E__x5F_16"  width="45.6" height="24.479" y="-24.479" transform="matrix(0.7 0 0 -0.7 12.6499 68.0498)" style="overflow:visible;opacity:0.2813;enable-background:new    ;"/>
	<path style="fill-rule:evenodd;clip-rule:evenodd;fill:#82633B;" d="M45.165,74.055c-0.187-0.093-0.361-0.14-0.525-0.14h-1.015
		c0.094-0.187,0.081-0.432-0.035-0.735c-0.047-0.093-0.14-0.209-0.28-0.35c-0.14-0.116-0.222-0.198-0.245-0.245l0.42-0.104
		l0.49,0.104c0.327,0.094,0.502,0.222,0.525,0.386c0.023,0.232,0.244,0.583,0.665,1.05V74.055z"/>
	
		<use xlink:href="#flash0.ai_x2F_Layer_17_x2F__x3C_Path_x3E__x5F_14"  width="31.475" height="5.992" x="-0.024" y="-5.95" transform="matrix(0.7 0 0 -0.7 18.6499 76.9004)" style="overflow:visible;opacity:0.4609;enable-background:new    ;"/>
	<path style="fill-rule:evenodd;clip-rule:evenodd;fill:#7A601E;" d="M44.01,71.815c-1.12-1.867-1.831-3.174-2.135-3.92
		c-0.187-0.443-0.514-0.922-0.98-1.436l-0.666-0.63l0.14-0.21c0.117-0.14,0.245-0.257,0.385-0.35
		c0.023-0.023,0.175-0.211,0.455-0.561c0.164-0.21,0.315-0.245,0.456-0.104c0.256,0.256,0.479,0.326,0.665,0.21l0.664,0.489
		c0.444,0.304,0.863,0.49,1.261,0.561c-0.28,0.373-0.502,0.898-0.665,1.575C43.45,68.141,43.59,69.599,44.01,71.815z"/>
	
		<radialGradient id="SVGID_3_" cx="58.9004" cy="33.7998" r="31.1537" gradientTransform="matrix(0.7 0 0 0.7 12.6499 61.7002)" gradientUnits="userSpaceOnUse">
		<stop  offset="0" style="stop-color:#F4DA42"/>
		<stop  offset="0.4784" style="stop-color:#F4D837"/>
		<stop  offset="0.6039" style="stop-color:#F1D736"/>
		<stop  offset="0.698" style="stop-color:#E7D431"/>
		<stop  offset="0.7843" style="stop-color:#D7CF29"/>
		<stop  offset="0.8667" style="stop-color:#BFC71E"/>
		<stop  offset="0.9412" style="stop-color:#A1BE10"/>
		<stop  offset="1" style="stop-color:#86B503"/>
	</radialGradient>
	<path style="fill-rule:evenodd;clip-rule:evenodd;fill:url(#SVGID_3_);" d="M70.68,74.825L71.169,75
		c0.304,0.163,0.456,0.327,0.456,0.49c0,0.257,0.163,0.665,0.49,1.225l-0.141,1.54c-0.233,1.12-0.724,1.983-1.47,2.59
		c-3.08,2.45-5.682,4.014-7.806,4.69c-2.753,0.887-6.09,0.887-10.01,0c-3.896-0.863-6.918-2.333-9.064-4.41
		c-1.4-1.354-2.392-2.928-2.975-4.725c-0.443-1.424-0.455-2.8-0.035-4.13c0.56-1.237,0.887-2.065,0.98-2.485
		c0.117-0.513-0.023-1.179-0.42-1.995c-0.467-0.77-0.723-1.225-0.77-1.365L40.229,65.2l0.105,0.315
		c0.117,0.232,0.269,0.455,0.456,0.664c0.163,0.211,0.432,0.339,0.805,0.386c0.21,0.023,0.524,0.058,0.945,0.104
		c0.396,0.094,0.968-0.175,1.715-0.805l-0.035,0.63c-0.164,1.4,0.28,3.104,1.33,5.11c0.794,1.493,1.972,2.753,3.535,3.779
		c1.772,1.144,3.92,1.925,6.439,2.346c2.217,0.373,4.644,0.151,7.28-0.665c1.376-0.42,2.765-0.957,4.165-1.61
		C67.74,75.222,68.977,75.012,70.68,74.825z"/>
	
		<use xlink:href="#flash0.ai_x2F_Layer_17_x2F__x3C_Path_x3E__x5F_11"  width="45.55" height="30" y="-30" transform="matrix(0.7 0 0 -0.7 40.25 65.2002)" style="overflow:visible;opacity:0.1406;enable-background:new    ;"/>
	
		<use xlink:href="#flash0.ai_x2F_Layer_17_x2F__x3C_Path_x3E__x5F_10"  width="41.25" height="22.712" y="-22.712" transform="matrix(0.7 0 0 -0.7 42.3496 65.8496)" style="overflow:visible;opacity:0.1914;enable-background:new    ;"/>
	
		<use xlink:href="#flash0.ai_x2F_Layer_17_x2F__x3C_Path_x3E__x5F_9"  width="43.85" height="30" y="-30" transform="matrix(0.7 0 0 -0.7 40.25 65.2002)" style="overflow:visible;opacity:0.2813;enable-background:new    ;"/>
	<path style="fill-rule:evenodd;clip-rule:evenodd;fill:#82633B;" d="M71.625,76.505l-1.051-0.14
		c0.141-0.187,0.176-0.443,0.105-0.771c-0.047-0.116-0.128-0.256-0.245-0.42c-0.116-0.14-0.175-0.245-0.175-0.314l0.42-0.035
		L71.169,75c0.304,0.163,0.456,0.327,0.456,0.49c0,0.257,0.163,0.665,0.49,1.225v0.035C71.975,76.61,71.812,76.528,71.625,76.505z"
		/>
	
		<use xlink:href="#flash0.ai_x2F_Layer_17_x2F__x3C_Path_x3E__x5F_7"  width="31.849" height="9.103" x="0.001" y="-9.053" transform="matrix(0.7 0 0 -0.7 44.7002 75.5)" style="overflow:visible;opacity:0.4609;enable-background:new    ;"/>
	<path style="fill-rule:evenodd;clip-rule:evenodd;fill:#7A601E;" d="M58.534,78.36c1.144-2.544,1.716-4.259,1.716-5.146
		c0-0.536-0.059-1.038-0.176-1.505l-0.209-0.525l0.489-0.034c0.396-0.07,0.793-0.187,1.189-0.351l0.946-0.385l0.209,0.105
		c0.188,0.023,0.396-0.035,0.631-0.175c0.233-0.164,0.408-0.094,0.524,0.209c0.233,0.514,0.362,0.782,0.386,0.806
		c0.256,0.257,0.419,0.537,0.489,0.84c-1.12,0.56-1.96,1.248-2.52,2.065c-0.351,0.489-1.063,1.318-2.136,2.484L58.534,78.36z"/>
	
		<radialGradient id="SVGID_4_" cx="-0.917" cy="61.2998" r="38.3928" gradientTransform="matrix(0.4864 -0.5034 -0.5034 -0.4864 74.3725 121.3266)" gradientUnits="userSpaceOnUse">
		<stop  offset="0" style="stop-color:#F4DA42"/>
		<stop  offset="0.4784" style="stop-color:#F4D837"/>
		<stop  offset="0.6039" style="stop-color:#F1D736"/>
		<stop  offset="0.698" style="stop-color:#E7D431"/>
		<stop  offset="0.7843" style="stop-color:#D7CF29"/>
		<stop  offset="0.8667" style="stop-color:#BFC71E"/>
		<stop  offset="0.9412" style="stop-color:#A1BE10"/>
		<stop  offset="1" style="stop-color:#86B503"/>
	</radialGradient>
	<path style="fill-rule:evenodd;clip-rule:evenodd;fill:url(#SVGID_4_);" d="M61.72,72.585c0.257,0,0.642,0.035,1.155,0.105
		c0.467,0.046,0.828-0.023,1.085-0.21c0.443-0.304,0.759-0.642,0.945-1.016c-0.187,0.607-0.374,1.073-0.561,1.4
		c-0.49,0.513-0.91,0.991-1.26,1.435C62.361,75.163,62,75.922,62,76.575c0,0.536,0.175,1.634,0.524,3.29
		c0.141,1.727-0.256,3.371-1.189,4.935c-1.144,2.007-2.741,3.641-4.795,4.9c-3.15,1.913-7.175,2.87-12.075,2.87
		c-4.947,0-8.972-0.898-12.075-2.695c-2.357-1.4-5.063-3.99-8.12-7.77c-0.723-0.91-1.085-2.089-1.085-3.535l0.245-1.891
		c0.561-0.56,0.875-0.991,0.945-1.295c0.047-0.21,0.28-0.361,0.7-0.455c0.21-0.046,0.409-0.081,0.595-0.104l1.68,0.595
		c1.213,0.467,2.088,0.852,2.625,1.155c0.443,0.257,1.972,1.271,4.585,3.045c2.963,1.68,5.822,2.602,8.575,2.765
		c3.173,0.164,5.962-0.198,8.365-1.085c2.193-0.816,3.955-2.018,5.284-3.604c1.728-2.03,2.719-3.955,2.976-5.775l0.105-0.735
		l0.665,0.7C61.02,72.352,61.417,72.585,61.72,72.585z"/>
	
		<use xlink:href="#flash0.ai_x2F_Layer_17_x2F__x3C_Path_x3E__x5F_4"  width="59.6" height="30.15" x="-0.05" y="-30.15" transform="matrix(0.7 0 0 -0.7 23.2002 71.4502)" style="overflow:visible;opacity:0.1406;enable-background:new    ;"/>
	
		<use xlink:href="#flash0.ai_x2F_Layer_17_x2F__x3C_Path_x3E__x5F_3"  width="53" height="22.841" y="-22.841" transform="matrix(0.7 0 0 -0.7 24.8501 71.1504)" style="overflow:visible;opacity:0.1914;enable-background:new    ;"/>
	
		<use xlink:href="#flash0.ai_x2F_Layer_17_x2F__x3C_Path_x3E__x5F_2"  width="58.6" height="30.15" y="-30.15" transform="matrix(0.7 0 0 -0.7 23.8999 71.4502)" style="overflow:visible;opacity:0.2813;enable-background:new    ;"/>
	<path style="fill-rule:evenodd;clip-rule:evenodd;fill:#82633B;" d="M25.67,74.825L26.195,75c-0.023,0.047-0.128,0.152-0.315,0.315
		c-0.187,0.14-0.315,0.279-0.385,0.42c-0.187,0.373-0.222,0.688-0.105,0.944c-0.374-0.069-0.806-0.104-1.295-0.104
		c-0.256,0-0.479,0.059-0.665,0.175v-0.07c0.561-0.56,0.875-0.991,0.945-1.295c0.047-0.21,0.28-0.361,0.7-0.455
		C25.285,74.884,25.483,74.849,25.67,74.825z"/>
	
		<use xlink:href="#flash0.ai_x2F_Layer_17_x2F__x3C_Path_x3E_"  width="39.615" height="8.879" x="0.347" y="-8.979" transform="matrix(0.7 0 0 -0.7 28.7002 80.9004)" style="overflow:visible;opacity:0.4609;enable-background:new    ;"/>
</g>
</svg>
