<?xml version="1.0" encoding="iso-8859-1"?>
<!-- Generator: Adobe Illustrator 15.1.0, SVG Export Plug-In . SVG Version: 6.00 Build 0)  -->
<!DOCTYPE svg PUBLIC "-//W3C//DTD SVG 1.1//EN" "http://www.w3.org/Graphics/SVG/1.1/DTD/svg11.dtd">
<svg version="1.1" id="flash0.ai" xmlns="http://www.w3.org/2000/svg" xmlns:xlink="http://www.w3.org/1999/xlink" x="0px" y="0px"
	 width="58.3px" height="44.35px" viewBox="0 0 58.3 44.35" style="enable-background:new 0 0 58.3 44.35;" xml:space="preserve">
<symbol  id="flash0.ai_x5F_8_x2F_Layer_13_x2F__x3C_Path_x3E__x5F_48" viewBox="0 -12.8 31.625 12.8">
	<g id="Layer_1_2_">
		<path style="fill-rule:evenodd;clip-rule:evenodd;" d="M30.95-5.05c0.367-0.233,0.583-0.467,0.65-0.7
			c0.033-0.133,0.033-0.333,0-0.6c-0.033-0.167-0.117-0.283-0.25-0.35C31.083-6.8,30.8-6.9,30.5-7
			c-0.333-0.133-0.483-0.233-0.45-0.3c0.067-0.2,0.1-0.317,0.1-0.35c-0.033-0.1-0.133-0.184-0.3-0.25
			c-0.2-0.067-0.317-0.133-0.35-0.2c-0.1-0.566-0.2-0.917-0.3-1.05c-0.3-0.5-1.483-1.367-3.55-2.6c-0.867-0.533-1.467-0.867-1.8-1
			c-0.2-0.067-0.4-0.067-0.6,0c-0.3,0.033-0.6,0.083-0.9,0.15c-0.2,0.033-0.467,0.217-0.8,0.55l-0.45,0.5L21.3-11
			c0.1,0.333,0.233,1.333,0.4,3c0.167,1.8,0.2,2.8,0.1,3c-0.333,0.367-0.55,0.633-0.65,0.8c-0.467,0.567-0.9,0.883-1.3,0.95
			C19.05-3.083,18.433-2.9,18-2.7c-0.333,0.067-0.717,0.167-1.15,0.3c-0.267,0.1-0.533,0.05-0.8-0.15
			C15.817-2.783,15.633-2.933,15.5-3c-0.367-0.133-0.783,0.067-1.25,0.6c-0.133,0.233-0.267,0.35-0.4,0.35
			c-0.4-0.067-0.667-0.034-0.8,0.1C12.983-1.883,12.633-1.833,12-1.8c-0.133,0-0.533-0.05-1.2-0.15c-0.566-0.1-1-0.283-1.3-0.55
			C8.967-2.867,8.267-3.083,7.4-3.15c-0.2,0-0.683-0.117-1.45-0.35c-1-0.333-1.6-0.5-1.8-0.5c-0.2,0-0.467,0.167-0.8,0.5
			c-0.167,0.167-0.567,0.217-1.2,0.15c-0.4-0.033-0.617-0.167-0.65-0.4c-0.2,0.067-0.4,0.2-0.6,0.4c-0.233,0.2-0.533,0.533-0.9,1
			l0.35,0.1L18.25,0C26.117-3.067,30.35-4.75,30.95-5.05z"/>
	</g>
</symbol>
<g>
	<path style="fill-rule:evenodd;clip-rule:evenodd;fill:#FFFFFF;" d="M44.95,14.05L27.9,27c-0.6,0.4-1.35,0.634-2.25,0.7
		c-0.967,0.033-1.917-0.15-2.85-0.55l-21.95-9.7c-0.533-0.367-0.817-0.9-0.85-1.6c-0.033-0.7,0.183-1.133,0.65-1.3
		c0.067-0.066,0.333-0.05,0.8,0.05c0.5,0.1,0.8,0.117,0.9,0.05l13.85-8.2c1.733-0.967,2.933-1.567,3.6-1.8
		c0.867-0.333,1.6-0.4,2.2-0.2l22.75,6.35c0.634,0.267,0.967,0.784,1,1.55C45.783,13.083,45.517,13.65,44.95,14.05z"/>
	<path style="fill-rule:evenodd;clip-rule:evenodd;fill:#D4D5D6;" d="M44.75,10.8c0.634,0.267,0.967,0.784,1,1.55
		c0.033,0.733-0.233,1.3-0.8,1.7L27.9,27c-0.633,0.4-1.417,0.634-2.35,0.7c0.1-0.434,0.067-0.917-0.1-1.45
		c-0.133-0.533-0.3-0.884-0.5-1.05c8.233-10.434,12.5-15.767,12.8-16c0.134-0.067,0.5-0.05,1.1,0.05L44.75,10.8z"/>
	
		<linearGradient id="SVGID_1_" gradientUnits="userSpaceOnUse" x1="9.3301" y1="-16.8662" x2="39.9418" y2="-16.8662" gradientTransform="matrix(0.3389 0.9408 -0.9408 0.3389 4.309416e-004 2.770424e-004)">
		<stop  offset="0" style="stop-color:#E3E3E3"/>
		<stop  offset="1" style="stop-color:#FFFFFF"/>
	</linearGradient>
	<path style="fill-rule:evenodd;clip-rule:evenodd;fill:url(#SVGID_1_);" d="M44.65,13.1l-16.95,12c-0.567,0.4-1.284,0.65-2.15,0.75
		c-0.833,0.101-1.566,0.017-2.2-0.25L1.1,16.3c-0.967-0.433-1.25-1.017-0.85-1.75c0.167-0.3,0.4-0.55,0.7-0.75l15.3-8.6
		c1.7-0.934,2.9-1.534,3.6-1.8c0.867-0.333,1.6-0.4,2.2-0.2l22.45,7.45c0.634,0.267,0.967,0.65,1,1.15
		C45.5,12.267,45.217,12.7,44.65,13.1z"/>
	<path style="fill-rule:evenodd;clip-rule:evenodd;fill:#C9C9C9;" d="M3.1,15.35c0.667,0.7,2.5,1.85,5.5,3.45
		c2.7,1.467,5.45,2.817,8.25,4.05L1.1,16.3c-0.967-0.433-1.25-1.017-0.85-1.75c0.167-0.3,0.4-0.55,0.7-0.75l13.2-7.4
		c-5.2,3.267-7.933,5-8.2,5.2C3.417,13.4,2.467,14.65,3.1,15.35z"/>
	<path style="fill-rule:evenodd;clip-rule:evenodd;fill:#FFFFFF;" d="M44.5,10.65c0.634,0.267,0.967,0.65,1,1.15
		c0,0.467-0.283,0.9-0.85,1.3l-16.95,12c-0.567,0.4-1.284,0.65-2.15,0.75c-0.833,0.101-1.566,0.017-2.2-0.25l-2.7-1.149
		c1.033,0.166,1.867,0.233,2.5,0.2c0.867-0.067,1.833-0.317,2.9-0.75c2.333-0.934,5.467-2.684,9.4-5.25
		c3.533-2.333,6-4.133,7.399-5.4c1-0.9,1.551-1.483,1.65-1.75c0.167-0.367-0.083-0.733-0.75-1.1L44.5,10.65z"/>
	
		<use xlink:href="#flash0.ai_x5F_8_x2F_Layer_13_x2F__x3C_Path_x3E__x5F_48"  width="31.625" height="12.8" y="-12.8" transform="matrix(1 0 0 -1 6.6499 10.0498)" style="overflow:visible;opacity:0.2305;enable-background:new    ;"/>
	<path style="fill-rule:evenodd;clip-rule:evenodd;fill:#C9952C;" d="M35.45,8.35L36.5,9.4l0.45,0.25c0.333,0.233,0.533,0.5,0.6,0.8
		c0.066,0.267,0.101,0.517,0.101,0.75c-0.034,0.133-0.017,0.216,0.05,0.25c0.467,0.333,0.733,0.833,0.8,1.5
		c0.066,0.533-0.15,0.883-0.65,1.05l-0.35,0.3l0.3,0.2c0.233,0.167,0.334,0.35,0.3,0.55c-0.133,0.733-0.517,1.133-1.149,1.2
		c-0.3,0.033-0.45,0.183-0.45,0.45c0,0.3-0.033,0.45-0.1,0.45c-0.5-0.033-0.917,0.067-1.25,0.3c-0.267,0.267-0.467,0.45-0.601,0.55
		c-0.233,0.233-0.566,0.433-1,0.6c-0.333,0.167-0.5,0.383-0.5,0.65c0,0.3-0.149,0.567-0.45,0.8c-0.333,0.267-0.3,0.467,0.101,0.6
		c0.366,0.133,0.416,0.25,0.149,0.35c-0.366,0.167-0.833,0.267-1.399,0.3c-0.634,0.034-0.983,0.067-1.05,0.1l-0.5,0.15
		c-0.134,0-0.317-0.05-0.551-0.15c-0.199-0.066-0.35-0.066-0.45,0c-0.1,0.067-0.183,0.1-0.25,0.1c-0.033,0-0.3-0.183-0.8-0.55
		c-0.2-0.133-0.25-0.434-0.15-0.9c0.033-0.133-0.017-0.267-0.15-0.4c-0.2-0.133-0.316-0.25-0.35-0.35l-0.05-0.6
		c0.367-0.267,0.567-0.483,0.6-0.65c0-0.633,0.083-1.05,0.25-1.25c0.2-0.233,0.483-0.716,0.85-1.45
		c0.333-0.767,0.55-1.383,0.65-1.85c0.1-0.367-0.667-0.833-2.3-1.4c-1.733-0.467-2.684-0.733-2.85-0.8
		c-0.2-0.066-0.333-0.017-0.4,0.15L23.9,11.7c-0.633,0.2-1.017,0.3-1.15,0.3c-0.067,0-0.117,0.067-0.15,0.2
		c-0.067,0.133-0.167,0.2-0.3,0.2c-0.033,0-0.167,0.033-0.4,0.1c-0.133,0-0.25-0.033-0.35-0.1c-0.1-0.066-0.3-0.133-0.6-0.2
		c-0.267-0.034-0.45-0.1-0.55-0.2c-0.066-0.067-0.1-0.183-0.1-0.35c-0.033-0.1-0.167-0.167-0.4-0.2l-1.45-0.05
		c-0.333-0.1-0.633-0.05-0.9,0.15c-0.333,0.267-0.633,0.317-0.9,0.15c-0.167-0.1-0.467,0.033-0.9,0.4
		c-0.133,0.133-0.267,0.217-0.4,0.25s-0.217,0.05-0.25,0.05l-0.75,0.2c-0.133,0.066-0.434,0.017-0.9-0.15c-0.1-0.034-0.2,0-0.3,0.1
		c-0.066,0.067-0.117,0.117-0.15,0.15c-0.067,0.133-0.217,0.183-0.45,0.15c-0.167-0.033-0.316,0-0.45,0.1
		c-0.067,0.033-0.167,0.117-0.3,0.25c-0.133,0.1-0.367,0.2-0.7,0.3c-0.4,0.1-0.65,0.1-0.75,0l-0.7-0.3
		c-0.3,0.133-0.733,0.15-1.3,0.05L7.6,13c-0.267,0.033-0.567-0.117-0.9-0.45C6.4,12.183,6.6,12,7.3,12
		c8.867-4.233,14.567-6.517,17.1-6.85C26,4.95,27.867,5.167,30,5.8c1.1,0.3,2.15,0.667,3.15,1.1c0.966,0.367,1.533,0.567,1.699,0.6
		C35.017,7.567,35.217,7.85,35.45,8.35z"/>
	<g>
		<path style="fill-rule:evenodd;clip-rule:evenodd;fill:#B88318;" d="M16.6,11.35c0.133,0.066,0.316,0.117,0.55,0.15
			c0.209,0.052,0.334,0.077,0.375,0.075c-0.322,0.247-0.613,0.289-0.875,0.125c-0.167-0.1-0.467,0.033-0.9,0.4
			c-0.133,0.133-0.267,0.217-0.4,0.25s-0.217,0.05-0.25,0.05l-0.75,0.2c-0.1,0.033-0.217,0.033-0.35,0
			c0.367-0.1,0.567-0.167,0.6-0.2l0.25-0.15c0.3,0.1,0.7-0.067,1.2-0.5c0.133-0.133,0.233-0.267,0.3-0.4
			C16.383,11.317,16.467,11.317,16.6,11.35z"/>
		<path style="fill-rule:evenodd;clip-rule:evenodd;fill:#B88318;" d="M7.6,13l-0.35-0.1c0.267-0.133,0.4-0.183,0.4-0.15L7.8,13.1
			L7.6,13z"/>
		<path style="fill-rule:evenodd;clip-rule:evenodd;fill:#B88318;" d="M20.3,10.15c0.534-0.033,0.9,0.017,1.1,0.15
			c0.6,0.333,0.717,0.517,0.35,0.55c-0.2,0.033-0.367,0.15-0.5,0.35c-0.133,0.167-0.167,0.3-0.1,0.4c0.667,0.3,1,0.367,1,0.2
			c-0.033-0.167-0.05-0.283-0.05-0.35c0-0.133,0.066-0.133,0.2,0c0.2,0.2,0.45,0.233,0.75,0.1c-0.2-0.133-0.35-0.267-0.45-0.4
			c-0.2-0.2-0.2-0.333,0-0.4c0.733-0.267,1.217-0.267,1.45,0c0.1,0.133,0.483,0.4,1.15,0.8l-0.85-0.25
			c-0.2-0.066-0.333-0.017-0.4,0.15L23.9,11.7c-0.633,0.2-1.017,0.3-1.15,0.3c-0.067,0-0.117,0.067-0.15,0.2
			c-0.067,0.133-0.167,0.2-0.3,0.2c-0.033,0-0.167,0.033-0.4,0.1c-0.133,0-0.25-0.033-0.35-0.1c-0.1-0.066-0.3-0.133-0.6-0.2
			c-0.267-0.034-0.45-0.1-0.55-0.2c-0.066-0.067-0.1-0.183-0.1-0.35c-0.033-0.1-0.167-0.167-0.4-0.2l-1.45-0.05
			c-0.283-0.085-0.542-0.06-0.775,0.075c0.102-0.077,0.176-0.152,0.225-0.225c0.067-0.1,0.283-0.133,0.65-0.1
			c0.034,0,0.1,0.017,0.2,0.05c0.1,0,0.183-0.034,0.25-0.1c0.033-0.067,0.017-0.15-0.05-0.25c-0.1-0.067-0.167-0.133-0.2-0.2
			c-0.2-0.1-0.317-0.183-0.35-0.25c-0.1-0.1,0.05-0.15,0.45-0.15C19.183,10.25,19.667,10.217,20.3,10.15z"/>
		<path style="fill-rule:evenodd;clip-rule:evenodd;fill:#B88318;" d="M29.35,19.3c0.067,0,0.351-0.15,0.851-0.45
			c0.566-0.233,1.066-0.233,1.5,0c0.533,0.233,1.467-0.033,2.8-0.8c-0.333,0.233-0.65,0.417-0.95,0.55
			c-0.333,0.167-0.5,0.383-0.5,0.65c0,0.3-0.149,0.567-0.45,0.8c-0.333,0.267-0.3,0.467,0.101,0.6
			c0.366,0.133,0.416,0.25,0.149,0.35c-0.366,0.167-0.833,0.267-1.399,0.3c-0.634,0.034-0.983,0.067-1.05,0.1l-0.5,0.15
			c-0.134,0-0.317-0.05-0.551-0.15c-0.199-0.066-0.35-0.066-0.45,0c-0.1,0.067-0.183,0.1-0.25,0.1c-0.033,0-0.3-0.183-0.8-0.55
			c-0.2-0.133-0.25-0.434-0.15-0.9c0.033-0.133-0.017-0.267-0.15-0.4c-0.2-0.133-0.316-0.25-0.35-0.35l-0.05-0.6l0.4-0.35
			c0.034,0.267,0.1,0.45,0.2,0.55L27.8,19l0.3,0.5c0.033,0.1,0.1,0.317,0.2,0.65c0.034,0.133,0.117,0.184,0.25,0.15
			c0.167-0.033,0.25-0.117,0.25-0.25c0.067-0.233,0.1-0.367,0.1-0.4C29,19.417,29.15,19.3,29.35,19.3z"/>
		<path style="fill-rule:evenodd;clip-rule:evenodd;fill:#B88318;" d="M9.65,13.2c-0.3,0.133-0.733,0.15-1.3,0.05L8,13.2
			c0.4-0.3,0.633-0.417,0.7-0.35c0.1,0.3,0.25,0.35,0.45,0.15c0.033-0.033,0.117-0.167,0.25-0.4c0.067-0.1,0.15-0.1,0.25,0
			c0.233,0.2,0.383,0.3,0.45,0.3c0.033,0,0.133-0.1,0.3-0.3c0.1-0.167,0.184-0.167,0.25,0c0.067,0.167,0.133,0.316,0.2,0.45
			c0.033,0.1,0.133,0.1,0.3,0c0.233-0.133,0.367-0.267,0.4-0.4h0.5c0-0.033,0-0.066,0-0.1c0.067-0.033,0.167,0,0.3,0.1l0.3,0.2h-0.1
			c-0.167-0.033-0.316,0-0.45,0.1c-0.067,0.033-0.167,0.117-0.3,0.25c-0.133,0.1-0.367,0.2-0.7,0.3c-0.4,0.1-0.65,0.1-0.75,0
			L9.65,13.2z"/>
		<path style="fill-rule:evenodd;clip-rule:evenodd;fill:#B88318;" d="M37.7,12.05c0-0.233,0-0.383,0-0.45l0.05-0.1
			c0.434,0.3,0.684,0.783,0.75,1.45c0.066,0.533-0.15,0.883-0.65,1.05l-0.35,0.3l0.3,0.2c0.233,0.167,0.334,0.35,0.3,0.55
			c-0.133,0.733-0.517,1.133-1.149,1.2c-0.134,0-0.25,0.05-0.351,0.15l0.65-0.7l-0.1-0.5c0-0.467,0.05-0.767,0.149-0.9l0.3-0.15
			c0.101-0.066,0.15-0.183,0.15-0.35c0-0.1-0.066-0.233-0.2-0.4c-0.1-0.133-0.1-0.35,0-0.65C37.684,12.483,37.733,12.25,37.7,12.05z
			"/>
		<path style="fill-rule:evenodd;clip-rule:evenodd;fill:#B88318;" d="M36.4,17.15L35.85,17.2l0.5-0.45l0.226-0.3
			c-0.045,0.073-0.053,0.206-0.025,0.4C36.55,17.017,36.5,17.117,36.4,17.15z"/>
	</g>
	<path style="fill-rule:evenodd;clip-rule:evenodd;fill:#EBB038;" d="M31.2,3.05c1.2,0.3,2.017,0.733,2.45,1.3L34.85,7
		c0.267,0.567,0.784,1.533,1.551,2.9c0.533,0.9,0.883,1.75,1.05,2.55c0.2,0.9,0.066,1.85-0.4,2.85
		c-0.033,0.067-0.517,0.934-1.45,2.6c-0.066,0.1-0.3,0.633-0.699,1.6c-0.134,0.3-0.483,0.633-1.051,1c-1.233,0.8-2.566,0.9-4,0.3
		c-0.466-0.167-0.883-0.683-1.25-1.55l-0.35-1.3c0.3-1.733,0.317-2.867,0.05-3.4c-0.167-0.333-0.25-0.517-0.25-0.55
		c-0.133-0.133-0.35-0.4-0.65-0.8c-0.3-0.434-0.833-0.733-1.6-0.9c-1.1-0.2-1.9-0.433-2.4-0.7c-1.2-0.633-1.9-0.983-2.1-1.05
		c-0.633-0.167-1.633-0.167-3,0c-0.8,0.1-1.55,0.4-2.25,0.9c-0.5,0.367-1.083,0.466-1.75,0.3c-0.767-0.2-1.583-0.217-2.45-0.05
		c-1.733,0.333-2.684,0.5-2.85,0.5c-1,0.1-1.567,0.083-1.7-0.05c0-0.267-0.133-0.5-0.4-0.7c-0.367-0.233-0.583-0.4-0.65-0.5
		c-0.067-0.2-0.15-0.4-0.25-0.6C5.867,10.05,5.933,9.5,6.2,8.7c0.267-0.767,0.6-1.367,1-1.8C7.5,6.6,8,6.333,8.7,6.1
		c0.833-0.3,1.3-0.483,1.4-0.55c0.5-0.233,1.417-0.9,2.75-2c0.767-0.533,2.617-1.417,5.55-2.65c0.967-0.4,1.567-0.6,1.8-0.6
		c0.9,0.1,1.5,0.15,1.8,0.15c0.667-0.034,1.35-0.133,2.05-0.3c0.367-0.066,0.8-0.033,1.3,0.1c0.4,0.1,1.217,0.517,2.45,1.25
		C29.033,2.267,30.167,2.783,31.2,3.05z"/>
	<g>
		<path style="fill-rule:evenodd;clip-rule:evenodd;fill:#D4A035;" d="M33.2,3.9c0.3,0.233,0.583,0.633,0.85,1.2
			c0.134,0.333,0.4,0.967,0.8,1.9c0.267,0.567,0.784,1.533,1.551,2.9c0.533,0.9,0.883,1.75,1.05,2.55c0.2,0.9,0.066,1.85-0.4,2.85
			c-0.033,0.067-0.517,0.934-1.45,2.6c-0.066,0.1-0.3,0.633-0.699,1.6c-0.134,0.3-0.483,0.633-1.051,1c-1.233,0.8-2.566,0.9-4,0.3
			c-0.399-0.133-0.75-0.517-1.05-1.15h0.1c0.067-0.033,0.15-0.167,0.25-0.4c0.133-0.167,0.283-0.15,0.449,0.05
			c0.167,0.167,0.301,0.317,0.4,0.45c0.033,0.033,0.2,0.05,0.5,0.05c0.733,0,1.134-0.133,1.2-0.4c0-0.033,0-0.167,0-0.4
			c-0.033-0.2,0-0.35,0.1-0.45c0.2-0.133,0.4-0.25,0.601-0.35c-0.101,0-0.117-0.284-0.051-0.85c0.067-0.6,0.233-0.95,0.5-1.05
			c0.134-0.033,0.567-0.167,1.301-0.4c0.566-0.167,0.866-0.283,0.899-0.35c0.134-0.233,0.217-0.433,0.25-0.6
			c0.134-0.3,0.167-0.583,0.101-0.85c-0.334-1-0.617-1.633-0.851-1.9c-0.2-0.267-0.3-0.417-0.3-0.45
			c-0.066-0.133-0.083-0.317-0.05-0.55c0.033-0.233,0.1-0.45,0.2-0.65c0.066-0.066,0.116-0.133,0.149-0.2
			c-0.033-0.3-0.149-0.6-0.35-0.9c-0.566-0.733-0.816-1.133-0.75-1.2l0.6-0.7l0.15-0.6c-0.2-0.267-0.316-0.467-0.351-0.6l-0.75-1.5
			l0.25-0.5L33.2,3.9z"/>
		<path style="fill-rule:evenodd;clip-rule:evenodd;fill:#D49F33;" d="M21.05,5.05c0.067-0.133,0.167-0.083,0.3,0.15
			c0.2,0.433,0.367,0.733,0.5,0.9c0.433,0.5,0.85,0.717,1.25,0.65c0.033,0,0.2-0.133,0.5-0.4c0.2-0.2,0.367-0.233,0.5-0.1
			c0.033,0.033,0.367,0.2,1,0.5c0.467,0.267,0.717,0.483,0.75,0.65c0.1,0.867,0.233,1.383,0.4,1.55C26.35,9.017,26.6,9.067,27,9.1
			c0.267,0.033,0.4,0.183,0.4,0.45c0,0.233-0.05,0.583-0.15,1.05c-0.033,0.4,0.083,0.7,0.35,0.9c0.267,0.267,0.55,0.667,0.85,1.2
			c0.233,0.5,0.35,0.833,0.35,1c0,0.367-0.083,0.7-0.25,1l-0.1,0.4l-0.15-0.55c-0.167-0.333-0.25-0.517-0.25-0.55
			c-0.133-0.133-0.35-0.4-0.65-0.8c-0.3-0.434-0.833-0.733-1.6-0.9c-1.1-0.2-1.9-0.433-2.4-0.7c-1.2-0.633-1.9-0.983-2.1-1.05
			c-0.633-0.167-1.633-0.167-3,0c-0.8,0.1-1.55,0.4-2.25,0.9c-0.5,0.367-1.083,0.466-1.75,0.3c-0.767-0.2-1.583-0.217-2.45-0.05
			c-1.733,0.333-2.684,0.5-2.85,0.5c-1,0.1-1.567,0.083-1.7-0.05c0-0.267-0.133-0.5-0.4-0.7c-0.367-0.233-0.583-0.4-0.65-0.5
			c0.267,0.167,0.533,0.267,0.8,0.3c0.3,0.033,0.5,0,0.6-0.1c0.033-0.033,0.083-0.183,0.15-0.45c0-0.1,0.133-0.117,0.4-0.05
			l1.1,0.15c0.434,0.067,0.717-0.033,0.85-0.3c0.1-0.267,0.2-0.45,0.3-0.55c0.133-0.167,0.383-0.2,0.75-0.1l1.6,0.45
			c0.133,0.034,0.35,0.083,0.65,0.15c0.3,0.033,0.55,0,0.75-0.1c0.167-0.067,0.45-0.133,0.85-0.2c0.4-0.066,0.633-0.117,0.7-0.15
			s0.167-0.067,0.3-0.1c0.167,0,0.333-0.05,0.5-0.15c0.333-0.167,0.717-0.467,1.15-0.9C18,8.483,18.283,8.3,18.55,8.3
			c0.167,0,0.467,0.067,0.9,0.2c0.367,0.067,0.566-0.017,0.6-0.25c0-0.3,0-0.533,0-0.7c0-0.267,0.067-0.566,0.2-0.9L21.05,5.05z"/>
	</g>
	<path style="fill-rule:evenodd;clip-rule:evenodd;fill:#BF8E2C;" d="M23.35,9.1l0.35-0.05c0.267,0,0.5,0.117,0.7,0.35
		c0.2,0.3,0.333,0.483,0.4,0.55C24.9,9.983,25.117,10,25.45,10c0.833,0,1.25,0.2,1.25,0.6c0,0.2,0.167,0.467,0.5,0.8
		c0.367,0.367,0.566,0.65,0.6,0.85c0.1,0.467,0.233,0.9,0.4,1.3c0.633,0.3,0.65,0.6,0.05,0.9c-0.1-0.267-0.167-0.417-0.2-0.45
		c-0.233-0.267-0.45-0.533-0.65-0.8c-0.3-0.434-0.833-0.733-1.6-0.9c-1.1-0.2-1.9-0.433-2.4-0.7c-1.2-0.633-1.9-0.983-2.1-1.05
		c-0.633-0.167-1.633-0.167-3,0c-0.8,0.1-1.55,0.4-2.25,0.9c-0.5,0.367-1.083,0.466-1.75,0.3c-0.767-0.2-1.583-0.217-2.45-0.05
		c-1.733,0.333-2.684,0.5-2.85,0.5c-0.8,0.1-1.317,0.117-1.55,0.05c-0.1-0.033-0.184-0.167-0.25-0.4c0.533,0.1,1.283,0.033,2.25-0.2
		c0.533-0.1,1.05-0.167,1.55-0.2c0.367-0.034,0.567-0.067,0.6-0.1c0.1-0.1,0.35-0.15,0.75-0.15c1.6,0,2.483-0.067,2.65-0.2
		c0.133-0.133,0.433-0.3,0.9-0.5c0.867-0.333,1.45-0.5,1.75-0.5c0.867,0,1.4-0.083,1.6-0.25c0.433-0.367,0.867-0.517,1.3-0.45
		c0.2,0.067,0.4,0.067,0.6,0c0.2-0.066,0.283-0.167,0.25-0.3s0-0.267,0.1-0.4c0.067-0.133,0.133-0.2,0.2-0.2
		c0.2,0,0.466,0.133,0.8,0.4C22.7,8.933,22.983,9.033,23.35,9.1z"/>
	<path style="fill-rule:evenodd;clip-rule:evenodd;fill:#FAD68F;" d="M9.725,6.25C9.694,6.331,9.669,6.448,9.65,6.6
		c-0.033,0.333-0.066,0.533-0.1,0.6c-0.066,0.167-0.216,0.167-0.45,0C8.967,7.067,8.783,7.15,8.55,7.45
		c-0.233,0.333-0.4,0.483-0.5,0.45c-0.033,0-0.083-0.15-0.15-0.45C7.867,7.35,7.75,7.367,7.55,7.5c-0.1,0.067-0.2,0.133-0.3,0.2
		L7.3,7.2l0.45-0.55C8.083,6.483,8.4,6.383,8.7,6.35L9.5,6.3C9.596,6.288,9.671,6.271,9.725,6.25z"/>
	<path style="fill-rule:evenodd;clip-rule:evenodd;fill:#FAD68F;" d="M12.5,5c-0.2,0.4-0.3,0.617-0.3,0.65
		c0,0.133-0.083,0.233-0.25,0.3c-0.133,0-0.233-0.05-0.3-0.15c-0.066-0.133-0.033-0.4,0.1-0.8c0.038-0.093,0.071-0.176,0.1-0.25
		c0.084-0.023,0.167-0.09,0.25-0.2c0.033,0,0.217,0,0.55,0L12.5,5z M10.7,5.65c0.167-0.066,0.267-0.133,0.3-0.2
		c0.067-0.133,0.2-0.284,0.4-0.45c0.176-0.147,0.301-0.23,0.375-0.25C11.652,5.018,11.494,5.368,11.3,5.8
		c-0.1,0.267-0.183,0.367-0.25,0.3c-0.233,0.1-0.4,0.2-0.5,0.3c-0.2,0.267-0.367,0.717-0.5,1.35L9.9,7.2l0.25-1.05
		c0.167-0.167,0.267-0.283,0.3-0.35C10.483,5.733,10.567,5.683,10.7,5.65z"/>
	<path style="fill-rule:evenodd;clip-rule:evenodd;fill:#FAD68F;" d="M18.25,2.7L18,2.95c-0.433,0.2-0.683,0.383-0.75,0.55
		c-0.067,0.1-0.117,0.317-0.15,0.65c-0.067,0.3-0.184,0.517-0.35,0.65c-0.5-0.066-0.833-0.05-1,0.05C15.45,5.083,15.2,5.133,15,5
		c-0.133-0.067-0.3-0.083-0.5-0.05l-0.2,0.1l-0.25,0.3c-0.333,0.4-0.55,0.7-0.65,0.9c-0.066,0.133-0.117,0.167-0.15,0.1
		c-0.033-0.1-0.067-0.184-0.1-0.25c-0.066-0.1-0.1-0.233-0.1-0.4c-0.033-0.2-0.017-0.333,0.05-0.4l0.1-0.95
		c0.066-0.333,0.3-0.583,0.7-0.75l0.5-0.2c0.1-0.033,0.15,0,0.15,0.1c-0.066,0.2-0.083,0.333-0.05,0.4
		c0.067,0.2,0.233,0.067,0.5-0.4c0.3-0.367,0.5-0.517,0.6-0.45c0.133,0.1,0.417,0.034,0.85-0.2c0.267-0.167,0.483-0.367,0.65-0.6
		c0.167-0.133,0.333-0.183,0.5-0.15c0.066,0.033,0.217,0.083,0.45,0.15c0.167,0.033,0.25,0.083,0.25,0.15
		C18.3,2.467,18.283,2.567,18.25,2.7z"/>
	<path style="fill-rule:evenodd;clip-rule:evenodd;fill:#FAD68F;" d="M14.9,2.7c0.233,0,0.333,0.033,0.3,0.1l-0.45,0.4
		c-0.1,0.033-0.117-0.05-0.05-0.25C14.733,2.783,14.8,2.7,14.9,2.7z"/>
	<path style="fill-rule:evenodd;clip-rule:evenodd;fill:#FAD68F;" d="M23.7,0.7c0.466-0.167,0.783-0.184,0.95-0.05
		c0.067,0.033,0.05,0.067-0.05,0.1c-0.133,0.1-0.233,0.183-0.3,0.25c-0.133,0.133-0.2,0.517-0.2,1.15
		c-0.033,0.3-0.233,0.333-0.6,0.1c-0.033-0.3-0.133-0.5-0.3-0.6c-0.1-0.066-0.383,0-0.85,0.2c-0.467,0.2-0.717,0.3-0.75,0.3
		c-0.133,0-0.3,0.1-0.5,0.3c-0.067,0.1-0.167,0.117-0.3,0.05l-0.15-0.15c-0.133-0.267-0.25-0.367-0.35-0.3
		c-0.367,0.267-0.6,0.35-0.7,0.25c-0.167-0.167-0.2-0.417-0.1-0.75c0.067-0.3,0.367-0.5,0.9-0.6c0.1-0.034,0.5,0,1.2,0.1
		c0.233,0.067,0.6,0.017,1.1-0.15C23,0.9,23.333,0.833,23.7,0.7z"/>
	<path style="fill-rule:evenodd;clip-rule:evenodd;fill:#FAD68F;" d="M20.05,2.65c0.133-0.033,0.25,0,0.35,0.1
		C20.433,2.817,20.483,2.9,20.55,3c0.067,0.067,0.05,0.3-0.05,0.7c-0.033,0.167-0.083,0.25-0.15,0.25c-0.033,0-0.133-0.017-0.3-0.05
		c-0.3,0-0.45-0.3-0.45-0.9C19.567,2.767,19.717,2.65,20.05,2.65z"/>
	<path style="fill-rule:evenodd;clip-rule:evenodd;fill:#FAD68F;" d="M22.7,2c0.133,0,0.216,0.083,0.25,0.25
		c0.033,0.167,0.017,0.3-0.05,0.4c0,0.033-0.117,0.083-0.35,0.15c-0.133,0.067-0.267-0.033-0.4-0.3C22.017,2.167,22.2,2,22.7,2z"/>
	<path style="fill-rule:evenodd;clip-rule:evenodd;fill:#FAD68F;" d="M30.5,4.05c0.2,0.167,0.25,0.383,0.15,0.65
		C30.616,4.8,30.4,4.933,30,5.1l-0.35-0.6c-0.101-0.1-0.184-0.2-0.25-0.3c-0.167-0.167-0.267-0.367-0.301-0.6
		c-0.033-0.2-0.1-0.283-0.2-0.25c-0.233,0.1-0.45,0.15-0.65,0.15C27.583,3.467,27.167,3.317,27,3.05l-0.35-0.4L26.6,2.3
		c-0.033-0.133,0.017-0.2,0.15-0.2c0.067-0.033,0.35-0.017,0.85,0.05c0.2,0.033,0.683,0.267,1.45,0.7
		C29.15,2.883,29.267,2.967,29.4,3.1c0.1,0.1,0.333,0.267,0.699,0.5C30.2,3.8,30.333,3.95,30.5,4.05z"/>
	<path style="fill-rule:evenodd;clip-rule:evenodd;fill:#FAD68F;" d="M26,1.5c0.2,0.1,0.2,0.4,0,0.9l-0.15,0.25
		c-0.033-0.033-0.117-0.083-0.25-0.15c-0.1-0.033-0.167-0.117-0.2-0.25c-0.033-0.167-0.083-0.283-0.15-0.35
		c-0.1-0.133-0.05-0.267,0.15-0.4C25.6,1.367,25.8,1.367,26,1.5z"/>
	<path style="fill-rule:evenodd;clip-rule:evenodd;fill:#FAD68F;" d="M31.6,5.8c0.167-0.033,0.267,0,0.301,0.1
		c0.066,0.1,0.116,0.15,0.149,0.15c0.2,0,0.25,0.133,0.15,0.4L32.05,6.9L31.7,7.35c-0.066,0.133-0.066,0.233,0,0.3
		c0.066,0.033,0.184,0.1,0.35,0.2c0.2,0.133,0.3,0.3,0.3,0.5c0.167,0.167,0.117,0.367-0.149,0.6C31.967,9.183,31.85,9.5,31.85,9.9
		l0.101,0.5c0.033,0.233,0.017,0.4-0.05,0.5c-0.067,0.1-0.284,0.184-0.65,0.25l-0.6-0.05c-0.067-0.033-0.15-0.117-0.25-0.25
		c-0.067-0.133-0.101-0.233-0.101-0.3l0.2-0.5l0.15-0.7c0.033-0.133-0.134-0.15-0.5-0.05c-0.067,0.034-0.334,0.333-0.801,0.9
		c-0.066,0.133-0.1,0.15-0.1,0.05V10.1c0.033-0.233,0.066-0.483,0.1-0.75c0.134-0.533,0.267-0.934,0.4-1.2
		C29.884,7.917,30,7.5,30.1,6.9c0.067-0.267,0.301-0.517,0.7-0.75C31.134,5.917,31.4,5.8,31.6,5.8z"/>
	<path style="fill-rule:evenodd;clip-rule:evenodd;fill:#FAD68F;" d="M29.95,15.45c-0.066,0.167-0.134,0.283-0.2,0.35
		c-0.2,0.2-0.184,0.067,0.05-0.4c0-0.1,0.084-0.316,0.25-0.65c0.167-0.367,0.334-0.6,0.5-0.7c0.167-0.1,0.184-0.233,0.05-0.4
		c-0.166-0.3-0.25-0.483-0.25-0.55c-0.1-0.434,0.45-0.55,1.65-0.35c0.167,0.033,0.25,0.183,0.25,0.45c0,0.167-0.033,0.4-0.1,0.7
		c-0.067,0.267-0.2,0.367-0.4,0.3c-0.167,0.333-0.333,0.617-0.5,0.85c-0.1,0.133-0.2,0.184-0.3,0.15c-0.167-0.034-0.334-0.034-0.5,0
		C30.217,15.267,30.05,15.35,29.95,15.45z"/>
	<path style="fill-rule:evenodd;clip-rule:evenodd;fill:#FAD68F;" d="M30.7,11.75c0.2-0.067,0.383-0.017,0.55,0.15
		c0.134,0.133,0.2,0.25,0.2,0.35s-0.2,0.1-0.601,0H30.15l0.1-0.2C30.35,11.917,30.5,11.817,30.7,11.75z"/>
	<path style="fill-rule:evenodd;clip-rule:evenodd;fill:#D9D4CA;" d="M5.15,13.9l0.9-0.05c0.2,0,0.45,0.167,0.75,0.5
		c0.167,0.167,0.117,0.316-0.15,0.45s-0.533,0.184-0.8,0.15c-0.2-0.034-0.383-0.217-0.55-0.55L5.15,13.9z"/>
	<path style="fill-rule:evenodd;clip-rule:evenodd;fill:#D9D4CA;" d="M11.75,16.1l0.55-0.3c0.4-0.2,0.7-0.283,0.9-0.25
		c0.433,0.067,0.583,0.284,0.45,0.65c-0.066,0.167-0.2,0.316-0.4,0.45c-0.233,0.167-0.45,0.25-0.65,0.25c-0.2,0-0.4-0.133-0.6-0.4
		L11.75,16.1z"/>
	<path style="fill-rule:evenodd;clip-rule:evenodd;fill:#D9D4CA;" d="M21.6,16.65l1.15-0.5h0.45c0.633,0,0.95,0.167,0.95,0.5
		c0,0.3-0.433,0.45-1.3,0.45c-0.3,0-0.6-0.067-0.9-0.2L21.6,16.65z"/>
	<path style="fill-rule:evenodd;clip-rule:evenodd;fill:#D9D4CA;" d="M21.8,13.85l0.5-0.4h0.35c0.2,0,0.333,0.083,0.4,0.25
		c0.034,0.2-0.05,0.383-0.25,0.55c-0.2,0.133-0.433,0.117-0.7-0.05L21.8,13.85z"/>
	<path style="fill-rule:evenodd;clip-rule:evenodd;fill:#D9D4CA;" d="M25.5,21.25h0.6c0.4,0,0.7,0.033,0.9,0.1
		c0.3,0.167,0.317,0.4,0.05,0.7h-0.5c-0.2,0-0.433-0.133-0.7-0.4L25.5,21.25z"/>
	<path style="fill-rule:evenodd;clip-rule:evenodd;fill:#D9D4CA;" d="M40.85,11.25l0.2-0.15c0.167-0.067,0.367-0.083,0.601-0.05
		c0.3,0.067,0.433,0.167,0.399,0.3s-0.2,0.217-0.5,0.25c-0.2,0.033-0.383-0.017-0.55-0.15L40.85,11.25z"/>
	<path style="fill-rule:evenodd;clip-rule:evenodd;fill:#D9D4CA;" d="M38.25,10.75l0.35-0.2c0.267-0.133,0.5-0.2,0.7-0.2
		c0.233,0,0.334,0.083,0.3,0.25c-0.033,0.2-0.199,0.333-0.5,0.4c-0.233,0.1-0.449,0.083-0.649-0.05L38.25,10.75z"/>
	<path style="fill-rule:evenodd;clip-rule:evenodd;fill:#D9D4CA;" d="M40.85,13.35c0.233,0,0.417-0.017,0.551-0.05l-0.051,0.3
		c-0.033,0.2-0.133,0.367-0.3,0.5c-0.166,0.1-0.3,0.133-0.399,0.1l-0.7-0.15L40.1,13.7C40.3,13.467,40.55,13.35,40.85,13.35z"/>
	<path style="fill-rule:evenodd;clip-rule:evenodd;fill:#C9952C;" d="M12.85,14.95c0.566,0.4,0.75,0.8,0.55,1.2
		c-0.1,0.233-0.183,0.35-0.25,0.35c-0.1-0.067-0.2-0.1-0.3-0.1c-0.467,0-0.833-0.1-1.1-0.3C11.617,15.967,11.7,15.6,12,15l0.25-0.55
		L12.85,14.95z"/>
	<path style="fill-rule:evenodd;clip-rule:evenodd;fill:#C9952C;" d="M23.45,15.95c0.4,0.267,0.433,0.45,0.1,0.55
		c-0.633,0.367-1.2,0.5-1.7,0.4c-0.3-0.066-0.4-0.2-0.3-0.4c0.067-0.1,0.2-0.267,0.4-0.5l0.4-0.7l0.25-0.05
		c0.167-0.067,0.316-0.033,0.45,0.1L23.45,15.95z"/>
	<path style="fill-rule:evenodd;clip-rule:evenodd;fill:#C9952C;" d="M22.35,13.3c0.433-0.033,0.583,0.133,0.45,0.5
		c-0.066,0.2-0.333,0.25-0.8,0.15c-0.267-0.034-0.3-0.15-0.1-0.35C22.1,13.4,22.25,13.3,22.35,13.3z"/>
	<path style="fill-rule:evenodd;clip-rule:evenodd;fill:#C9952C;" d="M6.05,13.45c0.167,0.1,0.317,0.183,0.45,0.25
		c0.067,0.033,0.1,0.15,0.1,0.35c0,0.167-0.033,0.267-0.1,0.3c-0.267,0.066-0.417,0.1-0.45,0.1c-0.133,0.066-0.267,0.083-0.4,0.05
		c-0.133-0.1-0.267-0.183-0.4-0.25c-0.233-0.1-0.233-0.3,0-0.6C5.45,13.35,5.717,13.283,6.05,13.45z"/>
	<path style="fill-rule:evenodd;clip-rule:evenodd;fill:#C9952C;" d="M26.05,21h0.5c0.333,0.033,0.483,0.15,0.45,0.35
		c-0.033,0.167-0.067,0.233-0.1,0.2c-0.066-0.033-0.167-0.017-0.3,0.05c-0.167,0.1-0.317,0.133-0.45,0.1
		c-0.133-0.1-0.283-0.167-0.45-0.2c-0.2-0.067-0.267-0.183-0.2-0.35C25.6,21.017,25.783,20.967,26.05,21z"/>
	<path style="fill-rule:evenodd;clip-rule:evenodd;fill:#C9952C;" d="M38.5,10.2c0.233-0.167,0.55-0.1,0.95,0.2l-0.4,0.2
		c-0.166,0.1-0.366,0.167-0.6,0.2c-0.167,0.034-0.233-0.033-0.2-0.2C38.283,10.433,38.366,10.3,38.5,10.2z"/>
	<path style="fill-rule:evenodd;clip-rule:evenodd;fill:#C9952C;" d="M41.35,10.85c0.267,0.033,0.4,0.117,0.4,0.25
		c-0.033,0.133-0.167,0.233-0.4,0.3c-0.166,0.067-0.283,0.067-0.35,0c-0.033-0.066-0.083-0.117-0.15-0.15
		c-0.1-0.067-0.1-0.15,0-0.25C40.95,10.867,41.116,10.817,41.35,10.85z"/>
	<path style="fill-rule:evenodd;clip-rule:evenodd;fill:#C9952C;" d="M40.6,13.2c0.301-0.067,0.434,0.05,0.4,0.35
		c-0.033,0.233-0.15,0.45-0.35,0.65c-0.134,0.1-0.233,0.133-0.301,0.1c-0.166-0.133-0.3-0.216-0.399-0.25
		c-0.2-0.1-0.217-0.267-0.05-0.5C40.1,13.35,40.333,13.233,40.6,13.2z"/>
	<path style="fill-rule:evenodd;clip-rule:evenodd;fill:#BA7000;" d="M10.7,5.2c-0.133,0.133-0.267,0.283-0.4,0.45
		c-0.267,0.333-0.45,0.6-0.55,0.8c-0.133,0.3-0.3,0.933-0.5,1.9C9.017,9.45,8.9,10.333,8.9,11s-0.05,1.1-0.15,1.3
		C8.65,12.467,8.4,12.767,8,13.2c-0.5,0.633-1.067,1.1-1.7,1.4l1.4-0.25c0.333-0.067,0.75-0.15,1.25-0.25
		c0.466-0.1,1.033-0.317,1.7-0.65c0.7-0.3,1.417-0.85,2.15-1.65c0.767-0.8,1.25-1.6,1.45-2.4c0.333-2.133,0.65-3.833,0.95-5.1
		c0.4-1.966,0.917-3.05,1.55-3.25c0.533-0.133,0.933-0.133,1.2,0c-0.333,0.067-0.667,0.317-1,0.75
		c-0.567,0.633-1.017,2.284-1.35,4.95c-0.233,2.1-0.667,3.717-1.3,4.85c-0.3,0.533-0.933,1.133-1.9,1.8
		c-0.933,0.667-1.917,1.184-2.95,1.55c-1.667,0.6-3.1,0.883-4.3,0.85c-0.533-0.033-0.7-0.267-0.5-0.7c0.167-0.333,0.467-0.667,0.9-1
		l1.3-0.9l1.05-1.05c0.1-0.1,0.184-0.583,0.25-1.45c0.1-1.367,0.184-2.25,0.25-2.65C8.5,7.283,8.733,6.633,9.1,6.1
		c0.2-0.267,0.467-0.55,0.8-0.85C10.1,4.983,10.367,4.967,10.7,5.2z"/>
	<path style="fill-rule:evenodd;clip-rule:evenodd;fill:#BA7000;" d="M31.55,3.15l-0.35-0.1c-0.367-0.167-0.917,0.117-1.65,0.85
		c-0.467,0.467-0.733,1.1-0.8,1.9c-0.033,0.3-0.133,0.467-0.3,0.5c-0.167,0.034-0.284-0.1-0.35-0.4c-0.133-0.6,0.1-1.25,0.7-1.95
		c0.533-0.633,0.533-0.833,0-0.6c-0.433,0.167-0.833,0.5-1.2,1c-0.533,0.6-0.85,1.316-0.95,2.15c-0.2,1.267-0.316,3.167-0.35,5.7
		c-0.033,0.233-0.566,0.65-1.6,1.25c-1.333,0.7-2.317,1.216-2.95,1.55c-3.633,1.967-6.033,3.083-7.2,3.35
		c-0.833,0.2-1.483,0.217-1.95,0.05c-0.434-0.133-0.633-0.4-0.6-0.8c0.033-0.3,0.467-0.85,1.3-1.65c0.7-0.633,1.417-1.2,2.15-1.7
		c1.133-0.733,2.066-1.85,2.8-3.35c0.333-0.667,0.6-1.8,0.8-3.4c0.1-0.867,0.3-1.95,0.6-3.25c0.3-1.367,0.567-2.383,0.8-3.05
		c0.333-0.833,0.683-1.233,1.05-1.2c0.2,0,0.45,0.1,0.75,0.3c-0.433,0.2-0.8,0.617-1.1,1.25C20.683,2.583,20.3,4.567,20,7.5
		c-0.367,3.167-1.35,5.417-2.95,6.75c-1.367,1.167-2.483,2.083-3.35,2.75c-0.3,0.2-0.25,0.3,0.15,0.3c0.4-0.033,0.767-0.15,1.1-0.35
		c0.233-0.1,1.1-0.45,2.6-1.05c1.534-0.633,2.567-1.15,3.1-1.55c0.867-0.633,2.283-1.517,4.25-2.65c0.167-0.133,0.267-0.55,0.3-1.25
		c0.133-1.934,0.216-3,0.25-3.2C25.75,4.617,26.533,3,27.8,2.4c1.067-0.5,1.9-0.583,2.5-0.25C30.833,2.45,31.25,2.783,31.55,3.15z"
		/>
	<path style="fill-rule:evenodd;clip-rule:evenodd;fill:#BA7000;" d="M32.8,6.5c0.867-0.033,1.55,0.133,2.05,0.5
		c0.334,0.233,0.684,0.667,1.051,1.3c0.533,0.9,0.916,1.2,1.149,0.9C37.15,9.1,37.134,9.033,37,9c-0.267-0.033-0.45-0.083-0.55-0.15
		C36.116,8.617,36.7,8.6,38.2,8.8c0.399,0.067,0.45,0.217,0.149,0.45c-0.267,0.233-0.683,0.383-1.25,0.45c-0.5,0.1-0.85,0-1.05-0.3
		l-0.2-0.5c-0.333-0.533-0.816-0.933-1.449-1.2c-0.801-0.333-1.867-0.133-3.2,0.6c-0.601,0.3-1.15,0.883-1.65,1.75
		c-0.434,0.8-0.7,1.617-0.8,2.45c-0.167,1.4-0.483,2.4-0.95,3c-0.267,0.333-0.7,0.717-1.3,1.15l-3.35,2.1l1.45-0.1
		c0.566-0.066,1.583-0.517,3.05-1.35c0.133-0.066,0.217-0.183,0.25-0.35c0.033-0.267,0.083-0.55,0.15-0.85
		c0.4-1.667,0.917-2.767,1.55-3.3c0.9-0.767,1.967-1.033,3.2-0.8c0.533,0.1,1,0.417,1.4,0.95c0.033,0.066,0.267,0.5,0.7,1.3
		c0.233,0.467,0.449,1.367,0.649,2.7c0.134,0.433,0.066,0.7-0.2,0.8c-0.3,0.067-0.483-0.067-0.55-0.4
		c0.101-1.267,0.033-2.167-0.2-2.7c-0.399-0.8-1.3-1.25-2.699-1.35c-0.567-0.033-1.134,0.167-1.7,0.6
		c-0.467,0.4-0.834,0.883-1.101,1.45c-0.167,0.3-0.383,0.867-0.649,1.7c-0.233,0.667-0.383,1-0.45,1l-3.2,1.4
		c-0.7,0.3-1.35,0.466-1.95,0.5c-0.633,0.033-1.05-0.1-1.25-0.4c-0.133-0.233,0.433-0.8,1.7-1.7c0.667-0.467,1.517-1.017,2.55-1.65
		c0.566-0.4,1.3-1.034,2.2-1.9L28,13.75c0-1.6,0.367-3.117,1.1-4.55c0.467-0.867,1.067-1.55,1.801-2.05
		C31.533,6.75,32.167,6.533,32.8,6.5z"/>
	<path style="fill-rule:evenodd;clip-rule:evenodd;fill:#EB9800;" d="M9.4,6.05c0.333-0.4,0.517-0.533,0.55-0.4
		c-0.267,0.4-0.467,0.684-0.6,0.85C9.25,6.633,9.133,6.967,9,7.5C8.867,8.067,8.783,8.6,8.75,9.1c-0.067,0.733-0.167,1.25-0.3,1.55
		L8.4,10.1C8.333,9.4,8.417,8.533,8.65,7.5C8.783,6.933,9.033,6.45,9.4,6.05z"/>
	<path style="fill-rule:evenodd;clip-rule:evenodd;fill:#EB9800;" d="M5.6,14.35c0.167-0.033,0.25,0.017,0.25,0.15
		c-0.067,0.167-0.05,0.267,0.05,0.3c0.167,0.067,0.85,0,2.05-0.2c0.5,0,0.45,0.05-0.15,0.15L6.3,15.1c-0.3,0.1-0.7,0.083-1.2-0.05
		c-0.167-0.033-0.167-0.167,0-0.4C5.3,14.45,5.467,14.35,5.6,14.35z"/>
	<path style="fill-rule:evenodd;clip-rule:evenodd;fill:#EB9800;" d="M15.35,4.4c0.3-1.667,0.617-2.633,0.95-2.9
		c0.233-0.2,0.4-0.283,0.5-0.25c0.1,0,0.083,0.083-0.05,0.25c-0.167,0.133-0.35,0.417-0.55,0.85c-0.2,0.467-0.333,0.9-0.4,1.3
		c-0.066,0.6-0.383,2.15-0.95,4.65c-0.167,0.934-0.367,1.45-0.6,1.55c0.133-0.2,0.233-0.533,0.3-1L15.35,4.4z"/>
	<path style="fill-rule:evenodd;clip-rule:evenodd;fill:#EB9800;" d="M21.15,0.25c0.2-0.1,0.35-0.1,0.45,0l-0.55,0.7
		c-0.4,0.566-0.7,1.5-0.9,2.8l-0.9,4.45c-0.1,0.6-0.017-0.3,0.25-2.7c0.033-0.333,0.15-0.85,0.35-1.55c0.2-0.8,0.333-1.383,0.4-1.75
		C20.417,1.167,20.717,0.517,21.15,0.25z"/>
	<path style="fill-rule:evenodd;clip-rule:evenodd;fill:#EB9800;" d="M14.5,15.1c0.333-0.3,0.8-0.6,1.4-0.9
		c0.567-0.333,0.733-0.383,0.5-0.15c-0.467,0.333-0.85,0.65-1.15,0.95c-0.2,0.233-0.883,0.683-2.05,1.35
		c-0.167,0.066,0.033-0.15,0.6-0.65L14.5,15.1z"/>
	<path style="fill-rule:evenodd;clip-rule:evenodd;fill:#EB9800;" d="M16.1,16.95c-0.067,0.066-0.184,0.15-0.35,0.25
		c-0.133,0.2-0.617,0.4-1.45,0.6c-0.6,0.2-1.133,0.25-1.6,0.15c-0.267-0.067-0.4-0.217-0.4-0.45c-0.033-0.233,0.05-0.367,0.25-0.4
		c0.167-0.033,0.267-0.017,0.3,0.05c0,0.067-0.017,0.184-0.05,0.35c0,0.133,0.117,0.167,0.35,0.1c0.467-0.1,0.75-0.15,0.85-0.15
		c0.467,0,1.117-0.167,1.95-0.5C16.15,16.883,16.2,16.883,16.1,16.95z"/>
	<path style="fill-rule:evenodd;clip-rule:evenodd;fill:#EB9800;" d="M29.6,2.9c-0.066,0.033-0.133,0.017-0.199-0.05
		c-0.034-0.1-0.117-0.133-0.25-0.1c-0.534,0.167-0.984,0.333-1.351,0.5c-0.466,0.233-0.917,0.917-1.35,2.05
		C26.283,5.767,26,6.75,25.6,8.25c-0.033,0.067,0.017-0.5,0.15-1.7c0.133-1.133,0.5-2.15,1.1-3.05c0.433-0.7,1.1-1.133,2-1.3
		c0.8-0.034,1.35,0.1,1.65,0.4C30.667,2.8,30.366,2.9,29.6,2.9z"/>
	<path style="fill-rule:evenodd;clip-rule:evenodd;fill:#EB9800;" d="M28.5,4.65c0.167-0.233,0.2-0.133,0.1,0.3
		c0,0.1-0.017,0.3-0.05,0.6c-0.066,0.233-0.15,0.333-0.25,0.3c-0.1-0.033-0.117-0.2-0.05-0.5C28.317,5.017,28.4,4.783,28.5,4.65z"/>
	<path style="fill-rule:evenodd;clip-rule:evenodd;fill:#EB9800;" d="M25.2,11.75c0.133,0,0.267,0.067,0.4,0.2
		c0.1,0.133,0.117,0.233,0.05,0.3c-0.033,0.033-0.283,0.05-0.75,0.05c-0.233,0.034-0.283-0.05-0.15-0.25
		C24.85,11.85,25,11.75,25.2,11.75z"/>
	<path style="fill-rule:evenodd;clip-rule:evenodd;fill:#EB9800;" d="M23.45,19.1l0.95,0.1c-0.333,0.133-0.717,0.216-1.15,0.25
		c-0.267,0.033-0.467,0.033-0.6,0c-0.2-0.034-0.35-0.05-0.45-0.05c-0.233,0-0.284-0.083-0.15-0.25c0.1-0.167,0.25-0.3,0.45-0.4
		c0.067-0.033,0.133-0.017,0.2,0.05c0.033,0.067,0.033,0.117,0,0.15C22.667,19.05,22.917,19.1,23.45,19.1z"/>
	<path style="fill-rule:evenodd;clip-rule:evenodd;fill:#EB9800;" d="M31.6,7c1-0.367,1.75-0.333,2.25,0.1
		c-0.133,0-0.666,0.117-1.6,0.35c-0.733,0.133-1.35,0.4-1.85,0.8c-0.167,0.133-0.467,0.533-0.9,1.2c-0.366,0.6-0.567,0.9-0.6,0.9
		c-0.066-0.067,0.167-0.583,0.7-1.55C30.033,7.933,30.7,7.333,31.6,7z"/>
	<path style="fill-rule:evenodd;clip-rule:evenodd;fill:#EB9800;" d="M29.5,13.85c-0.333,0.5-0.567,0.816-0.7,0.95
		c-0.167,0.233-0.216,0.217-0.15-0.05c0.067-0.233,0.2-0.533,0.4-0.9c0.267-0.567,0.75-1,1.45-1.3c0.467-0.2,1.017-0.267,1.65-0.2
		c0.333,0.033,0.716,0.083,1.149,0.15c0.267,0.033,0.4,0.117,0.4,0.25c-0.033,0.1-0.15,0.15-0.351,0.15
		c-0.6-0.133-1.183-0.183-1.75-0.15c-0.3,0.033-0.716,0.15-1.25,0.35C30.116,13.167,29.833,13.417,29.5,13.85z"/>
	<path style="fill-rule:evenodd;clip-rule:evenodd;fill:#EB9800;" d="M37.8,8.85C38.1,8.817,38.217,8.867,38.15,9
		c-0.034,0.1-0.134,0.2-0.301,0.3c-0.233,0.1-0.399,0.05-0.5-0.15C37.217,8.95,37.366,8.85,37.8,8.85z"/>
	<path style="fill-rule:evenodd;clip-rule:evenodd;fill:#EB9800;" d="M35.1,16.85c0.301,0.3,0.317,0.5,0.051,0.6
		c-0.134,0.033-0.2-0.067-0.2-0.3C34.95,16.883,35,16.783,35.1,16.85z"/>
</g>
</svg>
