<?xml version="1.0" encoding="iso-8859-1"?>
<!-- Generator: Adobe Illustrator 15.1.0, SVG Export Plug-In . SVG Version: 6.00 Build 0)  -->
<!DOCTYPE svg PUBLIC "-//W3C//DTD SVG 1.1//EN" "http://www.w3.org/Graphics/SVG/1.1/DTD/svg11.dtd">
<svg version="1.1" id="flash0.ai" xmlns="http://www.w3.org/2000/svg" xmlns:xlink="http://www.w3.org/1999/xlink" x="0px" y="0px"
	 width="86.6px" height="36.6px" viewBox="0 0 86.6 36.6" style="enable-background:new 0 0 86.6 36.6;" xml:space="preserve">
<symbol  id="Symbol_1" viewBox="0.004 -21.565 40.121 21.563">
	<g id="Layer_1_4_">
		<use xlink:href="#Symbol_2"  width="40.121" height="21.563" x="0.004" y="-21.565" style="overflow:visible;"/>
	</g>
</symbol>
<symbol  id="Symbol_2" viewBox="0.004 -21.565 40.121 21.563">
	<g id="Layer_1_3_">
		<g>
			<path style="fill-rule:evenodd;clip-rule:evenodd;fill:#E6B70E;" d="M38.888-7.725c0.725-1.2,1.087-2.05,1.087-2.551
				c0-1.7-0.037-2.712-0.112-3.037c-0.149-0.675-0.638-1.212-1.462-1.612c-1.775-0.925-2.888-1.6-3.338-2.025
				c-0.35-0.375-0.587-0.612-0.713-0.712c-0.174-0.15-0.449-0.301-0.824-0.45c-1.275-0.575-2.101-0.962-2.476-1.163
				c-0.524-0.275-1.274-0.612-2.25-1.012c-1.15-0.45-1.912-0.676-2.287-0.676c-0.2,0-0.538,0.038-1.013,0.113
				c-0.35,0.074-0.713,0.087-1.088,0.037c-2.1-0.475-3.6-0.675-4.5-0.6C18.188-21.137,16.925-21,16.125-21
				c-0.6,0-1.425,0.075-2.475,0.225c-1.075,0.15-1.875,0.313-2.4,0.488c-0.3,0.1-0.875,0.225-1.725,0.375
				c-0.775,0.125-1.388,0.287-1.838,0.487c-0.15,0.05-1.225,0.45-3.225,1.2c-0.226,0.1-0.513,0.312-0.863,0.637
				C3.275-17.287,2.975-17.075,2.7-16.95c-1.55,0.625-2.375,1.075-2.476,1.351c-0.25,0.65,0.088,1.187,1.013,1.612
				c0.475,0.225,5.025,1.975,13.65,5.25c4.3,1.625,8.55,3.237,12.75,4.837l4.087,2.625c1.95-0.375,3.013-0.675,3.188-0.899
				c0.576-0.7,1.025-1.088,1.351-1.163c0.375-0.1,0.775-0.275,1.2-0.524c0.575-0.3,0.899-0.575,0.975-0.825
				c0.05-0.2,0.125-0.763,0.225-1.688C38.762-7.225,38.837-7.675,38.888-7.725z"/>
			<path style="fill-rule:evenodd;clip-rule:evenodd;fill:#C78A12;" d="M34.65-3.338c1.4-0.2,2.25-0.762,2.55-1.688
				c0.05-0.125,0.175-0.412,0.375-0.862c0.175-0.375,0.3-0.737,0.375-1.087c0.075-0.425,0-0.763-0.226-1.013
				C37.6-8.138,37.237-8.4,36.638-8.775c-0.425-0.25-0.388-0.812,0.112-1.688c0.45-0.8,0.85-1.25,1.2-1.35
				c0.325-0.1,0.538-0.35,0.638-0.75c0.125-0.45,0.037-0.913-0.263-1.388c-0.3-0.425-0.8-0.725-1.5-0.899
				c-0.25-0.05-0.813-0.113-1.688-0.188c-0.35-0.025-0.788-0.263-1.313-0.713c-0.825-0.725-1.45-1.225-1.875-1.5
				c-1.575-1.025-3.638-1.363-6.188-1.013c-0.825,0.1-1.538-0.012-2.138-0.337l-0.675-0.525l0.375-0.487
				c0.25-0.35,0.062-0.638-0.563-0.862L21.9-20.063c-0.226,0.125-0.55,0.4-0.976,0.825c-0.375,0.35-0.737,0.587-1.087,0.712
				c-0.475,0.175-1.3,0.238-2.476,0.188c-1.2-0.05-2.188-0.2-2.962-0.449c-0.65-0.201-1.525-0.138-2.625,0.188
				C10.6-18.2,9.787-17.95,9.338-17.85C8.362-17.675,7.65-17.538,7.2-17.438c-0.8,0.15-1.275,0.3-1.425,0.45
				c-0.125,0.125-0.663,0.3-1.613,0.524C3.163-16.188,2.575-16,2.4-15.9c-0.625,0.375-0.838,0.676-0.638,0.9
				c0.425,0.475,2.362,0.862,5.813,1.162c1.05,0.075,5.712,1.888,13.987,5.438C29.662-4.95,34.025-3.263,34.65-3.338z"/>
			<path style="fill-rule:evenodd;clip-rule:evenodd;fill:#FFD642;" d="M34.612-2.888c1.4-0.2,2.25-0.775,2.55-1.725
				c0.05-0.125,0.175-0.413,0.375-0.862c0.175-0.375,0.301-0.738,0.375-1.088c0.075-0.425,0-0.763-0.225-1.013
				c-0.1-0.1-0.462-0.35-1.088-0.75c-0.425-0.275-0.387-0.837,0.113-1.688c0.425-0.8,0.824-1.262,1.199-1.388
				c0.325-0.074,0.538-0.312,0.638-0.712c0.125-0.45,0.038-0.913-0.263-1.388c-0.3-0.45-0.8-0.763-1.5-0.938
				c-0.25-0.05-0.812-0.112-1.688-0.188c-0.35-0.025-0.787-0.263-1.313-0.713c-0.85-0.75-1.475-1.25-1.875-1.5
				c-1.574-1.025-3.637-1.362-6.188-1.012c-0.824,0.1-1.537,0-2.137-0.301l-0.676-0.524l0.375-0.525
				c0.25-0.35,0.063-0.638-0.563-0.862l-0.862,0.45c-0.25,0.125-0.575,0.387-0.975,0.787c-0.375,0.35-0.738,0.587-1.088,0.713
				c-0.475,0.175-1.3,0.237-2.475,0.188c-1.175-0.05-2.163-0.188-2.963-0.413c-0.625-0.225-1.5-0.174-2.625,0.15
				c-1.175,0.425-1.987,0.675-2.438,0.75c-0.975,0.175-1.688,0.313-2.138,0.412c-0.8,0.15-1.274,0.301-1.425,0.45
				c-0.125,0.125-0.662,0.313-1.612,0.563c-1,0.25-1.587,0.438-1.763,0.563c-0.625,0.375-0.837,0.675-0.638,0.9
				c0.425,0.45,2.363,0.825,5.813,1.125c1.051,0.1,5.713,1.912,13.988,5.438C29.625-4.513,33.988-2.813,34.612-2.888z"/>
			<path style="fill-rule:evenodd;clip-rule:evenodd;fill:#FFFC8A;" d="M4.237-15.338c0.525-0.1,0.938-0.262,1.237-0.487
				c0.301-0.225,0.338-0.337,0.113-0.337c-0.175,0-0.55,0.074-1.125,0.225c-0.601,0.175-0.988,0.313-1.163,0.412
				c-0.175,0.1-0.137,0.175,0.112,0.226C3.638-15.275,3.913-15.288,4.237-15.338z"/>
			<path style="fill-rule:evenodd;clip-rule:evenodd;fill:#FFFC8A;" d="M9.487-16.725c1.125-0.425,2.075-0.7,2.851-0.825
				c0.35-0.05,0.637-0.163,0.862-0.338c0.225-0.149,0.212-0.225-0.038-0.225c-0.5,0-1.062,0.125-1.688,0.375
				c-1.625,0.425-2.587,0.712-2.887,0.862C8.387-16.775,8.425-16.7,8.7-16.65C8.975-16.6,9.238-16.625,9.487-16.725z"/>
			<path style="fill-rule:evenodd;clip-rule:evenodd;fill:#FFFC8A;" d="M21.412-18.412c0.125-0.075,0.288-0.263,0.488-0.563
				c0.85-0.275,1.1-0.488,0.75-0.638c-0.226-0.1-0.513,0-0.863,0.3c-0.325,0.275-0.537,0.538-0.637,0.787L21-18.188L21.412-18.412z"
				/>
			<path style="fill-rule:evenodd;clip-rule:evenodd;fill:#FFFC8A;" d="M28.162-17.1c0.25,0,0.663,0.024,1.238,0.074
				c0.449,0.025,0.662-0.024,0.637-0.149c-0.074-0.3-0.7-0.487-1.875-0.563c-0.6-0.025-0.837,0.075-0.712,0.3
				C27.55-17.213,27.787-17.1,28.162-17.1z"/>
			<path style="fill-rule:evenodd;clip-rule:evenodd;fill:#FFFC8A;" d="M37.237-7.275c0.425,0.05,0.4-0.087-0.075-0.412
				c-0.5-0.325-0.812-0.462-0.938-0.412c-0.1,0.024-0.024,0.162,0.226,0.412C36.725-7.438,36.988-7.3,37.237-7.275z"/>
			<path style="fill-rule:evenodd;clip-rule:evenodd;fill:#D9870D;" d="M30.263-14.588c0.149,0.275-0.013,0.475-0.487,0.601
				c-0.5,0.125-0.825,0.012-0.976-0.338c-0.1-0.25,0.075-0.412,0.525-0.487C29.8-14.913,30.112-14.837,30.263-14.588z M34.35-14.475
				c-0.1-0.375,0.013-0.576,0.338-0.601c0.475-0.025,0.875,0.138,1.2,0.487c0.3,0.351,0.012,0.563-0.862,0.638
				C34.7-13.925,34.475-14.1,34.35-14.475z M32.775-12.975c-0.425,0.05-0.813-0.125-1.163-0.525
				c-0.375-0.375-0.287-0.638,0.263-0.787c0.675-0.175,1.262-0.013,1.763,0.487C34.138-13.325,33.85-13.05,32.775-12.975z
				 M37.2-13.2c0.025,0,0.037-0.137,0.037-0.412c-0.075-0.65-0.45-1.175-1.125-1.575c-0.425-0.225-0.938-0.388-1.537-0.487
				l-0.75-0.075c-0.25,0.25-0.65,0.388-1.2,0.412c-0.325,0.025-0.613-0.074-0.862-0.3L31.5-15.975l-1.162,0.112
				c-0.25,0.05-0.763,0.263-1.538,0.638l-1.125,0.563c0.375-0.15,2.138,1.313,5.288,4.387l1.5-0.3
				c1.075-0.225,1.75-0.437,2.024-0.638c0.425-0.3,0.563-0.587,0.413-0.862c-0.075-0.05-0.15-0.125-0.226-0.225
				c-0.125-0.226-0.2-0.487-0.225-0.788c-0.025-0.149,0.062-0.212,0.263-0.188C36.837-13.275,37-13.25,37.2-13.2z M34.763-12.338
				c0.3,0.125,0.462,0.313,0.487,0.563c0,0.301-0.288,0.475-0.862,0.525c-0.425,0.025-0.862-0.037-1.313-0.188
				c-0.45-0.125-0.688-0.263-0.713-0.412c-0.025-0.15,0.313-0.288,1.013-0.413C34.05-12.388,34.513-12.412,34.763-12.338z"/>
			<path style="fill-rule:evenodd;clip-rule:evenodd;fill:#FFA826;" d="M30.263-14.138c0.149,0.275-0.013,0.475-0.487,0.601
				c-0.5,0.125-0.825,0-0.976-0.375c-0.125-0.226,0.05-0.388,0.525-0.488C29.8-14.475,30.112-14.387,30.263-14.138z M34.35-14.063
				c-0.1-0.375,0.013-0.575,0.338-0.6c0.475-0.025,0.875,0.137,1.2,0.487c0.3,0.35,0.012,0.575-0.862,0.675
				C34.7-13.475,34.475-13.663,34.35-14.063z M31.612-13.088c-0.375-0.375-0.287-0.625,0.263-0.75
				c0.675-0.174,1.262-0.012,1.763,0.488c0.5,0.449,0.212,0.725-0.862,0.824C32.35-12.5,31.962-12.688,31.612-13.088z M36.45-12.675
				c-0.05-0.475,0.212-0.638,0.787-0.487c-0.075-0.65-0.45-1.175-1.125-1.575c-0.425-0.25-0.938-0.425-1.537-0.525l-0.75-0.075
				c-0.25,0.25-0.65,0.388-1.2,0.413C32.3-14.9,32.012-15,31.763-15.225L31.5-15.563l-1.162,0.15c-0.25,0.024-0.763,0.225-1.538,0.6
				l-1.125,0.563c0.375-0.125,2.138,1.337,5.288,4.388l1.199-0.075c0.825-0.075,1.375-0.2,1.65-0.375
				c0.45-0.325,0.813-0.775,1.088-1.35c-0.075-0.05-0.15-0.125-0.226-0.226C36.55-12.112,36.475-12.375,36.45-12.675z
				 M34.763-11.888c0.3,0.1,0.462,0.288,0.487,0.563c0,0.3-0.288,0.463-0.862,0.487c-0.425,0.025-0.862-0.037-1.313-0.188
				c-0.45-0.125-0.688-0.262-0.713-0.412s0.313-0.288,1.013-0.412C34.05-11.975,34.513-11.987,34.763-11.888z"/>
			<path style="fill-rule:evenodd;clip-rule:evenodd;fill:#D9870D;" d="M25.05-17.175l1.688,0.225l0.375-0.712
				c-0.575-0.45-1.1-0.738-1.575-0.863L24.3-19.05l-0.112,0.487v0.713L25.05-17.175z"/>
			<path style="fill-rule:evenodd;clip-rule:evenodd;fill:#D9870D;" d="M8.963-16.2l2.512,0.788l0.301-0.863l-0.601-0.337
				c-0.425-0.226-0.913-0.425-1.462-0.601H9.412c-0.2,0-1.037,0.125-2.512,0.375l-0.038,0.525L8.963-16.2z"/>
			<path style="fill-rule:evenodd;clip-rule:evenodd;fill:#FFA826;" d="M7.912-15.3l3.863-0.226c-1-0.8-1.763-1.199-2.288-1.199
				c-0.35,0-0.887,0.062-1.612,0.188l-1.013,0.225c0.075,0.175,0.175,0.35,0.3,0.525C7.388-15.438,7.637-15.275,7.912-15.3z"/>
			<path style="fill-rule:evenodd;clip-rule:evenodd;fill:#FFC042;" d="M24.3-19.05c-1.625,0.85-2.938,1.737-3.938,2.662
				c-0.625,0.601-0.175,0.688,1.351,0.263c0.774-0.225,1.6-0.5,2.475-0.825L24.3-19.05z"/>
			<path style="fill-rule:evenodd;clip-rule:evenodd;fill:#FFA826;" d="M26.737-16.95c-0.5-0.1-1.05-0.325-1.649-0.675L24.3-18.112
				c-1.05,0.375-1.887,0.712-2.513,1.013l-3.037,1.35l3,0.338l2.813-0.863C25.438-16.575,26.163-16.8,26.737-16.95z"/>
			
				<use xlink:href="#flash0.ai_x5F_3_x2F_Layer_3_x2F__x3C_Path_x3E__x5F_39"  width="48.962" height="17.978" x="-0.006" y="-18" transform="matrix(0.75 0 0 0.75 0.6001 -3.8999)" style="overflow:visible;opacity:0.6406;enable-background:new    ;"/>
			<path style="fill-rule:evenodd;clip-rule:evenodd;fill:#EDC913;" d="M32.963-0.037c0.3-0.1,0.587-0.375,0.862-0.825
				c0.25-0.425,0.375-0.8,0.375-1.125c0-0.25,0.237-0.587,0.712-1.013c0.55-0.475,0.838-0.75,0.863-0.825
				c0.75-1.25,0.938-2.125,0.563-2.625c-0.1-0.149-0.5-0.65-1.2-1.5c-0.5-0.6-0.75-0.975-0.75-1.125
				c0-0.175-0.425-0.638-1.275-1.388c-1-0.85-1.663-1.412-1.987-1.688c-0.525-0.449-1.5-1.037-2.925-1.762
				c-1.475-0.775-2.476-1.175-3-1.2c-1.075-0.075-2.663-0.3-4.763-0.675c-1.425-0.075-2.6-0.163-3.525-0.263
				c-0.7-0.1-1.162-0.175-1.387-0.226c-0.375-0.05-0.8-0.012-1.275,0.113c-0.225,0.05-0.675,0.262-1.35,0.637
				c-0.475,0.301-1,0.413-1.575,0.338c-1.726-0.225-3.063-0.238-4.013-0.037c-0.175,0.024-0.775,0.2-1.8,0.524
				c-0.85,0.25-1.475,0.388-1.875,0.413c-0.85,0.024-1.625,0-2.325-0.075c-0.725-0.1-1.038-0.463-0.938-1.088
				c0.075-0.675-0.013-0.675-0.263,0c-0.175,0.45-0.075,0.85,0.3,1.2c0.425,0.425,1.763,1.1,4.013,2.025
				c2.25,0.899,4.1,1.524,5.55,1.875C11.1-10.075,13.2-9.225,16.275-7.8c3.549,1.675,5.462,2.563,5.737,2.662
				c1.475,0.575,3.65,1.675,6.524,3.3c1.825,0.9,2.8,1.388,2.926,1.463C32.213-0.05,32.712,0.063,32.963-0.037z"/>
			<path style="fill-rule:evenodd;clip-rule:evenodd;fill:#D4AE1E;" d="M15.563-14.063c0.3-0.125,0.512-0.2,0.638-0.225
				c0.225-0.05,0.587-0.038,1.087,0.037c0-0.075-0.062-0.163-0.188-0.263c-0.125-0.1-0.188-0.2-0.188-0.3
				c-0.149-0.025-0.35,0.025-0.6,0.15c-0.3,0.149-0.5,0.237-0.6,0.262c-0.525,0.125-1,0.088-1.426-0.112
				c-0.1-0.1-0.2-0.163-0.3-0.188c-0.1-0.025-0.263-0.012-0.487,0.038c-0.225,0.05-0.388,0.074-0.487,0.074
				c-0.4-0.125-0.713-0.212-0.938-0.262c-0.9-0.175-1.738-0.238-2.513-0.188c-0.425,0-0.775,0.012-1.05,0.037
				c-0.5,0.05-0.725,0.175-0.675,0.375h0.037c0.025,0.05,0.263,0.075,0.713,0.075c0.1,0,0.3,0.05,0.6,0.149
				c0.225,0.05,0.388,0.063,0.487,0.038l0.487-0.15c0.175-0.05,0.45-0.025,0.825,0.075l1.538,0.338
				c0.125,0.024,0.262,0.05,0.412,0.074c0.075,0,0.125,0.075,0.15,0.226c0.05,0.175-0.088,0.325-0.413,0.45
				c-0.575,0.275-0.899,0.462-0.975,0.563c-0.275,0.275-0.475,0.449-0.601,0.524c-0.125,0.05-0.35,0.238-0.675,0.563
				c-0.275,0.275-0.538,0.425-0.787,0.45c-0.25,0.025-0.525-0.075-0.825-0.3c-0.35-0.275-0.587-0.438-0.713-0.487
				c-0.024,0-0.475-0.013-1.35-0.038C6.125-12.1,5.8-12.263,5.775-12.563c0.3-0.1,0.712-0.125,1.237-0.075
				c0.275,0.025,0.688,0.075,1.237,0.15c0.525,0.025,1.375-0.075,2.55-0.3c-0.05-0.201-0.225-0.325-0.524-0.375
				c-0.025,0-0.325,0-0.9,0C8.35-13.112,7.6-13.1,7.125-13.125c-0.925-0.1-1.625-0.15-2.1-0.15c-0.375,0-0.65,0.038-0.825,0.113
				c-0.25,0.149-0.475,0.225-0.675,0.225c-0.05,0.2,0.062,0.338,0.337,0.412C3.988-12.5,4.2-12.462,4.5-12.412
				C5.15-12.137,5.5-12,5.55-12c0.625,0.15,1.488,0.45,2.588,0.9L8.1-11.175c0.125,0.025,0.238,0.1,0.338,0.225
				c0.1,0.15,0.188,0.238,0.263,0.263c0.149,0.05,0.475,0.1,0.975,0.15c0.226,0.05,0.625,0.174,1.2,0.375
				c0.5,0.149,0.887,0.188,1.162,0.112c-0.05-0.1-0.35-0.275-0.899-0.525c-0.425-0.175-0.55-0.4-0.375-0.675
				c0.125-0.175,0.524-0.412,1.2-0.713c0.325-0.25,0.75-0.5,1.274-0.75c0.45-0.225,0.688-0.35,0.713-0.375
				c0.075-0.1,0.112-0.237,0.112-0.412c0.075-0.175,0.163-0.275,0.263-0.3c0.125-0.05,0.225-0.075,0.3-0.075l0.263,0.037
				C15.087-13.862,15.313-13.938,15.563-14.063z"/>
			<path style="fill-rule:evenodd;clip-rule:evenodd;fill:#D4AE1E;" d="M19.35-9.3c0.325,0.025,0.726-0.013,1.2-0.112
				c0.601-0.1,0.838-0.275,0.713-0.525c-0.075-0.175-0.4-0.325-0.976-0.45c-0.549-0.1-0.912-0.1-1.087,0
				c0.025,0.025,0.275,0.138,0.75,0.338c0.3,0.125,0.212,0.2-0.263,0.225c-0.575,0.05-1.1-0.062-1.575-0.337l0.038-0.413
				c-0.45,0.025-0.775,0.025-0.976,0c-0.3-0.175-0.538-0.287-0.712-0.337c-0.275-0.175-0.525-0.226-0.75-0.15
				c-0.125,0.15-0.263,0.263-0.413,0.338c-0.149,0.05-0.575,0.012-1.274-0.113c-0.601-0.125-0.988-0.1-1.163,0.075
				c-0.175,0.175,0,0.275,0.525,0.3c0.275,0.025,0.625,0.025,1.05,0l0.075,0.038c0.125,0.125,0.35,0.212,0.675,0.263
				c0.175,0.024,0.438,0.024,0.787,0l0.413,0.188c0.825,0.375,1.288,0.575,1.388,0.6C18.075-9.325,18.6-9.3,19.35-9.3z"/>
			<path style="fill-rule:evenodd;clip-rule:evenodd;fill:#D4AE1E;" d="M16.575-8.213l0.075,0.038
				c0.275,0.05,0.549,0.137,0.824,0.263c0.15,0.1,0.375,0.237,0.676,0.412c0.5,0.25,0.8,0.325,0.899,0.225
				c0.175-0.149,0.05-0.337-0.375-0.563c0.425-0.25,0.413-0.412-0.037-0.487c-0.625-0.05-1.013-0.1-1.163-0.149
				C17.5-8.525,17.55-8.6,17.625-8.7c0.05-0.1,0.05-0.175,0-0.225c-0.075-0.05-0.212-0.05-0.412,0
				c-0.226,0.075-0.375,0.125-0.45,0.149c-0.226,0.025-0.5-0.012-0.825-0.112c-0.35-0.1-0.625-0.137-0.825-0.112
				c0.05,0.25,0.25,0.425,0.601,0.525C15.887-8.425,16.175-8.337,16.575-8.213z"/>
			<path style="fill-rule:evenodd;clip-rule:evenodd;fill:#D4AE1E;" d="M16.2-13.5c-0.55-0.15-0.838-0.075-0.862,0.225
				c-0.325,0.025-0.576,0.088-0.75,0.188c-0.201,0.175-0.375,0.325-0.525,0.45c-0.475,0.15-0.725,0.313-0.75,0.487
				c0,0.201,0.263,0.263,0.787,0.188l0.038-0.112c0.025,0,0.225-0.05,0.6-0.149c0.226-0.025,0.313-0.138,0.263-0.338
				c0.75-0.1,1.275-0.125,1.575-0.075c0.575,0.075,0.775-0.025,0.6-0.3C17.05-13.138,16.725-13.325,16.2-13.5z"/>
			<path style="fill-rule:evenodd;clip-rule:evenodd;fill:#D4AE1E;" d="M19.65-11.888c0.125-0.05,0.024-0.137-0.301-0.263
				c-0.3-0.1-0.537-0.112-0.712-0.037c-0.5,0.2-0.9,0.275-1.2,0.225c-0.6-0.074-0.913-0.112-0.938-0.112c-0.7-0.05-1.1,0.05-1.2,0.3
				c-0.05,0.1,0.112,0.188,0.487,0.263s0.588,0.063,0.638-0.037c0.05-0.175,0.275-0.238,0.675-0.188
				c0.226,0.025,0.525,0.075,0.9,0.149C18.425-11.563,18.975-11.662,19.65-11.888z"/>
			<path style="fill-rule:evenodd;clip-rule:evenodd;fill:#D4AE1E;" d="M17.813-14.85c-0.125,0.074-0.013,0.162,0.338,0.262
				c0.35,0.1,0.587,0.113,0.712,0.038c0.2-0.125,0.463-0.2,0.788-0.226c0.2,0,0.487,0.013,0.862,0.038
				c0.475-0.025,1.162,0.025,2.063,0.149c0.475,0.025,0.313-0.1-0.487-0.375c-0.65-0.1-1.138-0.149-1.463-0.149h-1.05
				C18.675-15.112,18.087-15.025,17.813-14.85z"/>
			<path style="fill-rule:evenodd;clip-rule:evenodd;fill:#D4AE1E;" d="M19.294-13.331c0.075,0.012,0.144,0.019,0.206,0.019
				c0.225-0.075,0.338-0.125,0.338-0.15c0-0.174-0.213-0.287-0.638-0.337c-0.7-0.15-1.025-0.075-0.976,0.225
				c0,0.125,0.188,0.212,0.563,0.263C19.088-13.27,19.257-13.276,19.294-13.331z"/>
			<path style="fill-rule:evenodd;clip-rule:evenodd;fill:#D4AE1E;" d="M27.45-13.688L27.412-13.8c-0.2-0.175-0.475-0.275-0.824-0.3
				c-0.325-0.025-0.613,0.024-0.863,0.149l-0.037,0.075c0.025,0.075,0.112,0.137,0.263,0.188c0.042,0.033,0.104,0.071,0.188,0.112
				c0.275,0.075,0.538,0.1,0.787,0.075C27.2-13.55,27.375-13.612,27.45-13.688z"/>
			<path style="fill-rule:evenodd;clip-rule:evenodd;fill:#D4AE1E;" d="M24.862-14.138c0.05-0.025,0.112-0.062,0.188-0.112
				s0.1-0.1,0.075-0.15c-0.025-0.149-0.137-0.262-0.338-0.337c-0.35-0.2-0.75-0.238-1.199-0.112
				c-0.125,0.024-0.201,0.074-0.226,0.149s0,0.15,0.075,0.226c0.1,0.074,0.238,0.137,0.412,0.188
				c0.04,0.014,0.078,0.026,0.113,0.037c0.033,0.025,0.071,0.05,0.112,0.075C24.325-14.025,24.587-14.012,24.862-14.138z"/>
			<path style="fill-rule:evenodd;clip-rule:evenodd;fill:#D4AE1E;" d="M17.213-14.813l0.3-0.037
				c0.125-0.05,0.137-0.113,0.037-0.188c-0.4-0.4-0.987-0.513-1.763-0.338c-0.5-0.15-0.812-0.238-0.938-0.263
				c-0.3-0.075-0.6-0.075-0.899,0c-0.1,0-0.138,0.038-0.112,0.112c0.125,0.425,0.762,0.638,1.912,0.638
				c0.187,0,0.293-0.019,0.318-0.056c0.119,0,0.257-0.013,0.413-0.038c0.016,0.004,0.035,0.01,0.056,0.019
				C16.813-14.837,17.038-14.788,17.213-14.813z"/>
			<path style="fill-rule:evenodd;clip-rule:evenodd;fill:#D4AE1E;" d="M30.75-7.65c0.325-0.05,0.438-0.162,0.338-0.337
				c-0.125-0.2-0.463-0.463-1.013-0.788c-0.25-0.2-0.513-0.225-0.788-0.074c-0.225,0.1-0.2,0.237,0.075,0.412
				c0.35,0.2,0.575,0.375,0.675,0.525C30.188-7.738,30.425-7.65,30.75-7.65z"/>
			<path style="fill-rule:evenodd;clip-rule:evenodd;fill:#D4AE1E;" d="M28.05-12.638c0.053,0,0.097-0.006,0.132-0.019
				c0.069,0.019,0.15,0.038,0.243,0.057c0.45,0,0.713-0.013,0.788-0.038c0.174-0.05,0.237-0.163,0.188-0.337
				c-0.075-0.175-0.375-0.325-0.9-0.45c-0.675-0.075-1.2,0.075-1.575,0.45l0.112,0.149C27.362-12.65,27.7-12.587,28.05-12.638z"/>
			<path style="fill-rule:evenodd;clip-rule:evenodd;fill:#D4AE1E;" d="M31.763-3c0.225,0,0.287-0.075,0.188-0.225
				c-0.2-0.201-0.375-0.325-0.525-0.375c-0.125-0.05-0.287-0.088-0.487-0.113c-0.25-0.05-0.388-0.012-0.412,0.113
				c-0.025,0.1,0.012,0.212,0.112,0.337c0.009,0.019,0.021,0.038,0.037,0.057c0.062,0.056,0.174,0.105,0.338,0.149L31.275-3
				C31.45-2.975,31.612-2.975,31.763-3z M31.013-3.412l0.075-0.038l-0.02,0.038H31.013z"/>
			<path style="fill-rule:evenodd;clip-rule:evenodd;fill:#D4AE1E;" d="M23.775-6.825C23.65-6.65,23.762-6.5,24.112-6.375
				c0.325,0.1,0.55,0.075,0.675-0.075C24.988-6.725,25-6.975,24.825-7.2c-0.175-0.175-0.425-0.263-0.75-0.263
				c-0.325,0.075-0.425,0.188-0.3,0.338C23.85-7.025,23.85-6.925,23.775-6.825z"/>
			<path style="fill-rule:evenodd;clip-rule:evenodd;fill:#D4AE1E;" d="M14.662-9.037c0.201,0,0.313-0.025,0.338-0.075
				c0-0.075-0.05-0.138-0.15-0.188h-0.037c0-0.025-0.013-0.038-0.037-0.038l-0.113-0.188c-0.125-0.174-0.2-0.275-0.225-0.3
				c-0.175-0.175-0.4-0.263-0.675-0.263c-0.25,0-0.475,0.075-0.675,0.226c-0.079,0.059-0.06,0.108,0.056,0.149
				c-0.085,0.028-0.104,0.078-0.056,0.15C13.388-9.212,13.912-9.037,14.662-9.037z"/>
			<path style="fill-rule:evenodd;clip-rule:evenodd;fill:#D4AE1E;" d="M22.688-10.725c-0.5-0.25-0.787-0.413-0.862-0.488
				c-0.05-0.074-0.2-0.125-0.45-0.149c-0.3-0.025-0.563,0-0.787,0.075c-0.325,0.074-0.563,0.137-0.713,0.188
				c-0.225,0.074-0.35,0.137-0.375,0.188c-0.025,0.149,0.475,0.225,1.5,0.225c0.375,0,0.7,0.137,0.975,0.412
				c0.425,0.175,0.713,0.175,0.863,0C22.987-10.475,22.938-10.625,22.688-10.725z"/>
			<path style="fill-rule:evenodd;clip-rule:evenodd;fill:#D4AE1E;" d="M23.175-7.575c0.4-0.175,0.7-0.325,0.9-0.45
				c0.125-0.1-0.038-0.2-0.487-0.3c-0.55-0.125-0.85-0.212-0.9-0.263c-0.075-0.1,0.137-0.225,0.638-0.375
				c0.575-0.174,0.875-0.275,0.899-0.3C24.3-9.338,24.425-9.388,24.6-9.412c0.201-0.025,0.325-0.063,0.375-0.113
				c0.15-0.1,0.201-0.262,0.15-0.487c0.025-0.1,0.175-0.149,0.45-0.149c0.25,0,0.425,0.024,0.524,0.074
				c0.15,0.075,0.063,0.238-0.262,0.488C25.763-9.525,25.85-9.487,26.1-9.487c0.226,0,0.413-0.05,0.563-0.15
				c0.15-0.1,0.163-0.287,0.038-0.563c-0.075-0.275-0.212-0.512-0.413-0.712c-0.1-0.125-0.25-0.226-0.449-0.301
				c-0.175-0.074-0.275-0.149-0.301-0.225c-0.074-0.15-0.412-0.25-1.012-0.3c-0.175-0.025-0.363-0.1-0.563-0.226l-0.45-0.3
				c-0.1-0.075-0.3-0.1-0.601-0.075c-0.3,0.025-0.462,0.025-0.487,0c-0.05-0.35-0.225-0.563-0.524-0.637
				c-0.175-0.075-0.413-0.038-0.713,0.112c-0.225,0.1-0.412,0.225-0.563,0.375c-0.1,0.1-0.025,0.225,0.225,0.375
				c0.15,0.1,0.363,0.237,0.638,0.412c0.1,0.075,0.425,0.163,0.976,0.263c0.6,0.1,0.987,0.2,1.162,0.3
				c0.25,0.15,0.388,0.338,0.412,0.563c0.025,0.226-0.062,0.375-0.262,0.45c-0.15,0.05-0.263,0.175-0.338,0.375
				c-0.125,0.25-0.212,0.4-0.263,0.45c-0.125,0.1-0.437,0.212-0.938,0.337C21.512-8.788,21.1-8.688,21-8.662
				c-0.35,0.1-0.35,0.225,0,0.375c0.325,0.149,0.713,0.212,1.162,0.188c0.201,0,0.288,0.1,0.263,0.3
				c-0.025,0.25-0.025,0.387,0,0.412C22.5-7.337,22.75-7.4,23.175-7.575z"/>
			<path style="fill-rule:evenodd;clip-rule:evenodd;fill:#D4AE1E;" d="M21.75-7.838c-0.125,0.025-0.362-0.012-0.713-0.112
				C20.762-8,20.55-7.987,20.4-7.912c-0.175,0.074-0.226,0.188-0.15,0.337c0.05,0.1,0.125,0.175,0.225,0.226L21.9-6.787
				c0.3,0.1,0.325-0.063,0.074-0.488C21.95-7.3,21.988-7.438,22.088-7.688C22.138-7.838,22.025-7.888,21.75-7.838z"/>
			<path style="fill-rule:evenodd;clip-rule:evenodd;fill:#D4AE1E;" d="M21.412-14.063c-0.149,0-0.05,0.125,0.301,0.375
				c0.325,0.25,0.6,0.4,0.824,0.45c0.15,0.025,0.226,0.125,0.226,0.3c0,0.2,0.025,0.3,0.075,0.3c0.725,0.075,1.425,0.013,2.1-0.188
				c0.3-0.1,0.45-0.237,0.45-0.412c-0.025-0.175-0.163-0.288-0.413-0.338c-0.475-0.125-0.887-0.287-1.237-0.487
				C23.438-14.213,22.663-14.213,21.412-14.063z"/>
			<path style="fill-rule:evenodd;clip-rule:evenodd;fill:#D4AE1E;" d="M31.05-9.713C31.275-9.538,31.5-9.5,31.725-9.6
				c0.226-0.1,0.313-0.25,0.263-0.45c-0.1-0.475-0.524-0.862-1.274-1.163c-0.301-0.125-0.538-0.25-0.713-0.375
				c-0.15-0.1-0.325-0.188-0.525-0.262C29.2-11.95,29-12,28.875-12c-0.2,0.025-0.438,0.063-0.713,0.112
				C27.837-11.863,27.5-11.9,27.15-12c-0.475-0.15-0.775-0.238-0.9-0.263c-0.325-0.025-0.55-0.025-0.675,0
				c-0.05,0-0.175,0.063-0.375,0.188c-0.175,0.1-0.1,0.212,0.225,0.338c0.35,0.125,0.675,0.163,0.976,0.112
				c0.1-0.025,0.337,0.125,0.712,0.45c0.125,0.05,0.25,0.163,0.375,0.337c0.15,0.201,0.275,0.338,0.375,0.413
				c0.15,0.1,0.375,0.112,0.675,0.037c0.15-0.05,0.363-0.137,0.638-0.263c0.15-0.074,0.45,0.013,0.9,0.263
				C30.425-10.188,30.75-9.962,31.05-9.713z"/>
			<path style="fill-rule:evenodd;clip-rule:evenodd;fill:#D4AE1E;" d="M30.713-9.487c0.024-0.075-0.063-0.15-0.263-0.226
				c-0.275-0.125-0.463-0.237-0.563-0.337c-0.175-0.15-0.388-0.226-0.638-0.226c-0.225,0-0.388,0.038-0.487,0.113
				c-0.1,0.05-0.1,0.137,0,0.262c0.1,0.125,0.287,0.213,0.563,0.263C30.2-9.412,30.663-9.362,30.713-9.487z"/>
			<path style="fill-rule:evenodd;clip-rule:evenodd;fill:#D4AE1E;" d="M25.987-7.425c-0.025,0.05,0.1,0.163,0.375,0.337
				c0.275,0.226,0.575,0.413,0.9,0.563c0.45,0.226,0.987,0.15,1.612-0.225c-0.025-0.1,0.238-0.3,0.787-0.6
				c0.125-0.1,0.088-0.201-0.112-0.301c-0.3-0.074-0.512-0.137-0.638-0.188c-0.125-0.05-0.3-0.024-0.524,0.075
				c-0.25,0.125-0.425,0.188-0.525,0.188c-0.125,0-0.412-0.1-0.862-0.3c-0.475-0.2-0.75-0.3-0.825-0.3
				c-0.125,0-0.313-0.088-0.563-0.263c-0.3-0.225-0.55-0.375-0.75-0.45c-0.25-0.1-0.425-0.112-0.524-0.037
				c-0.1,0.125-0.188,0.225-0.263,0.3c-0.125,0.1,0.263,0.338,1.162,0.713C25.788-7.663,26.038-7.5,25.987-7.425z"/>
			<path style="fill-rule:evenodd;clip-rule:evenodd;fill:#D4AE1E;" d="M27.75-8.1c0.275,0.024,0.538-0.038,0.787-0.188
				c-0.275-0.301-0.5-0.5-0.675-0.601c-0.325-0.225-0.7-0.313-1.125-0.263c-0.2,0.025-0.337,0.088-0.412,0.188
				c-0.05,0.15-0.088,0.263-0.112,0.338c-0.025,0.1,0.125,0.212,0.449,0.338C27.013-8.188,27.375-8.125,27.75-8.1z"/>
			<path style="fill-rule:evenodd;clip-rule:evenodd;fill:#D4AE1E;" d="M27.787-9.563c0.201,0.075,0.301,0.025,0.301-0.15
				c0-0.2-0.075-0.337-0.226-0.412c-0.125-0.075-0.275-0.125-0.45-0.15c-0.174,0-0.275,0.063-0.3,0.188
				C27.087-9.962,27.15-9.862,27.3-9.787L27.787-9.563z"/>
			<path style="fill-rule:evenodd;clip-rule:evenodd;fill:#D4AE1E;" d="M23.625-5.475c0.55-0.05,0.7-0.163,0.45-0.338
				c-0.275-0.175-0.475-0.3-0.601-0.375c-0.2-0.075-0.449-0.125-0.75-0.15c-0.275-0.024-0.712-0.149-1.313-0.375
				c-0.8-0.3-1.212-0.449-1.237-0.449c-0.25-0.075-0.337-0.013-0.263,0.188c0.075,0.174,0.201,0.35,0.375,0.524
				c0.075,0.075,0.363,0.175,0.863,0.3C21.7-6,22.088-5.85,22.313-5.7C22.637-5.5,23.075-5.425,23.625-5.475z"/>
			<path style="fill-rule:evenodd;clip-rule:evenodd;fill:#D4AE1E;" d="M24.675-4.388c0.45,0.2,0.862,0.338,1.237,0.413
				c0.45,0.1,0.613,0.062,0.488-0.113c-0.275-0.5-0.8-0.812-1.575-0.938c-0.675-0.125-1.2-0.1-1.575,0.075
				c-0.175,0.05-0.063,0.138,0.338,0.263C24.263-4.513,24.625-4.413,24.675-4.388z"/>
			<path style="fill-rule:evenodd;clip-rule:evenodd;fill:#D4AE1E;" d="M30.638-1.388c0.5-0.1,0.712-0.2,0.638-0.3
				c-0.05-0.075-0.238-0.15-0.563-0.225c-0.351-0.1-0.55-0.175-0.601-0.226c-0.275-0.55-0.6-0.899-0.975-1.05
				c-0.575-0.225-1.25-0.388-2.025-0.487c-0.5-0.05-0.75,0.025-0.75,0.225c0.025,0.2,0.226,0.438,0.601,0.713
				C27.438-2.413,28.138-2,29.063-1.5C29.563-1.325,30.087-1.288,30.638-1.388z"/>
			<path style="fill-rule:evenodd;clip-rule:evenodd;fill:#D4AE1E;" d="M31.8-0.45c0.5,0.275,0.738,0.212,0.713-0.188
				c-0.025-0.275-0.188-0.475-0.487-0.6C31.825-1.313,31.6-1.325,31.35-1.275c-0.3,0.1-0.537,0.175-0.712,0.226
				c-0.2,0.025-0.15,0.087,0.149,0.188C31.288-0.688,31.625-0.55,31.8-0.45z"/>
			<path style="fill-rule:evenodd;clip-rule:evenodd;fill:#D4AE1E;" d="M29.362-3.638c0.475,0.125,0.675,0.05,0.601-0.225
				c-0.05-0.25-0.226-0.475-0.525-0.675c-0.225-0.226-0.388-0.388-0.487-0.488C28.775-5.175,28.537-5.3,28.237-5.4
				c-0.8-0.275-1.55-0.487-2.25-0.637c-0.45-0.075-0.7-0.075-0.75,0c0.05,0.125,0.075,0.237,0.075,0.337
				c0,0.1,0.275,0.238,0.825,0.413c0.275,0.1,0.625,0.212,1.05,0.337c0.25,0.075,0.388,0.388,0.412,0.938
				c0.075,0.15,0.301,0.238,0.676,0.263C28.875-3.7,29.237-3.663,29.362-3.638z"/>
			<path style="fill-rule:evenodd;clip-rule:evenodd;fill:#D4AE1E;" d="M25.912-6.338c0.201,0.025,0.15-0.074-0.149-0.3
				c-0.325-0.225-0.5-0.287-0.525-0.188C25.138-6.6,25.363-6.438,25.912-6.338z"/>
			<path style="fill-rule:evenodd;clip-rule:evenodd;fill:#D4AE1E;" d="M30.525-5.625c0.325,0.075,0.662,0.2,1.012,0.375
				c0.375,0.2,0.638,0.175,0.788-0.075c0.149-0.225,0.062-0.437-0.263-0.638C31.637-6.263,31.2-6.5,30.75-6.675
				c-0.3-0.1-0.538-0.125-0.713-0.075c-0.149,0.075-0.3,0.137-0.449,0.188C29.438-6.538,29.275-6.45,29.1-6.3
				c-0.225,0.225-0.362,0.35-0.412,0.375c-0.15,0.075-0.075,0.2,0.225,0.375c0.301,0.2,0.638,0.3,1.013,0.3
				c0.2,0,0.288-0.037,0.263-0.112c-0.025-0.05-0.063-0.125-0.112-0.226C30.075-5.662,30.225-5.675,30.525-5.625z"/>
			<path style="fill-rule:evenodd;clip-rule:evenodd;fill:#D4AE1E;" d="M31.05-4.313c0.275,0.025,0.413-0.05,0.413-0.225
				c0.024-0.15-0.138-0.25-0.488-0.301C30.625-4.888,30.5-4.825,30.6-4.65C30.675-4.45,30.825-4.337,31.05-4.313z"/>
			<path style="fill-rule:evenodd;clip-rule:evenodd;fill:#D4AE1E;" d="M33.6-3.037c0.375,0.024,0.663-0.125,0.863-0.45
				c0.174-0.3,0.162-0.55-0.038-0.75c-0.25-0.226-0.45-0.163-0.6,0.188c-0.05,0.1-0.388,0.2-1.013,0.3
				c-0.3,0.075-0.338,0.2-0.112,0.375C32.925-3.2,33.225-3.087,33.6-3.037z"/>
			<path style="fill-rule:evenodd;clip-rule:evenodd;fill:#D4AE1E;" d="M33-2.325c-0.175-0.149-0.438-0.188-0.787-0.112
				C31.838-2.362,31.7-2.287,31.8-2.213c0.15,0.15,0.375,0.226,0.675,0.226c0.125,0,0.263-0.038,0.413-0.112
				C33.063-2.175,33.1-2.25,33-2.325z"/>
			<path style="fill-rule:evenodd;clip-rule:evenodd;fill:#D4AE1E;" d="M32.7-4.8c0.025,0.025,0.362,0.062,1.013,0.112
				c0.6,0.075,0.899-0.275,0.899-1.05c0-0.175-0.188-0.363-0.563-0.563c-0.3-0.175-0.212-0.413,0.263-0.713
				c0.275-0.225,0.025-0.45-0.75-0.675c-0.25-0.075-0.613-0.037-1.088,0.112C32.05-7.425,31.825-7.3,31.8-7.2
				c0,0.05,0.226,0.238,0.675,0.563C33-6.263,33.3-6.025,33.375-5.925c0.1,0.149,0.05,0.3-0.15,0.45
				c-0.275,0.2-0.487,0.35-0.637,0.449C32.438-4.9,32.475-4.825,32.7-4.8z"/>
			<path style="fill-rule:evenodd;clip-rule:evenodd;fill:#D4AE1E;" d="M32.475-8.063c0.25,0.05,0.413-0.087,0.488-0.412
				c0.074-0.325-0.025-0.538-0.301-0.638c-0.25-0.1-0.437-0.15-0.563-0.15c-0.125,0.025-0.237,0.05-0.337,0.075
				c-0.3,0.1-0.475,0.313-0.525,0.638c-0.025,0.149,0.1,0.263,0.375,0.337C31.788-8.188,32.075-8.138,32.475-8.063z"/>
			<path style="fill-rule:evenodd;clip-rule:evenodd;fill:#D4AE1E;" d="M33.862-8.063c0.15-0.5,0.038-0.688-0.337-0.563
				C33.075-8.475,33.188-8.287,33.862-8.063z"/>
			<path style="fill-rule:evenodd;clip-rule:evenodd;fill:#FFF273;" d="M34.388-9.075c0,0.15,0.25,0.525,0.75,1.125
				c0.7,0.85,1.1,1.351,1.2,1.5c0.375,0.5,0.225,1.325-0.45,2.476c0.25-0.25,0.475-0.601,0.675-1.051
				c0.175-0.399,0.263-0.774,0.263-1.125c0-0.35-0.125-0.675-0.375-0.975c-0.325-0.325-0.563-0.563-0.713-0.713
				C35.387-8.188,35.125-8.575,34.95-9c-0.2-0.475-0.35-0.787-0.45-0.938c-0.45-0.625-1.275-1.438-2.475-2.438
				c-1.4-1.15-2.625-1.95-3.676-2.4c-0.975-0.449-1.75-0.762-2.324-0.938L22.912-16.2c-1.05-0.2-1.987-0.337-2.813-0.412
				c-0.275-0.025-0.899-0.025-1.875,0c-0.875,0-1.512-0.038-1.912-0.112c-0.65-0.226-1.3-0.213-1.95,0.037
				c-0.55,0.25-0.925,0.412-1.125,0.487c-0.275,0.1-0.538,0.163-0.787,0.188c-0.425,0.05-1.388,0.075-2.888,0.075
				c-1.575,0-2.875,0.163-3.9,0.487c-1.5,0.525-2.699,0.738-3.6,0.638c-0.85-0.075-1.288-0.125-1.313-0.15
				C0.475-15.037,0.462-15.25,0.713-15.6c0.174-0.25,0.612-0.475,1.313-0.676c0.8-0.2,1.299-0.375,1.5-0.524
				c0.074-0.05,0.35-0.288,0.824-0.713c0.275-0.25,0.638-0.437,1.088-0.563c1.075-0.325,2.075-0.675,3-1.05
				c0.3-0.125,0.813-0.225,1.537-0.3c0.75-0.1,1.275-0.2,1.575-0.3c0.875-0.325,2.138-0.588,3.788-0.788l3.824-0.337
				c1.326-0.125,2.538-0.063,3.638,0.188c1.2,0.3,2.125,0.387,2.775,0.262c0.375-0.074,0.7-0.174,0.975-0.3
				c0.075,0.025,0.513,0.175,1.313,0.45c0.9,0.325,1.638,0.638,2.213,0.938c0.1,0.05,0.837,0.388,2.212,1.013
				c0.85,0.4,1.45,0.775,1.801,1.125c0.3,0.3,0.662,0.688,1.087,1.162c0.4,0.375,0.962,0.713,1.688,1.013
				c0.55,0.25,1.2,0.538,1.95,0.862c0.475,0.275,0.75,0.638,0.825,1.088c0.275,1.55,0.362,2.55,0.263,3l-0.038,0.337l0.226-1.688
				c0.024-0.774,0.037-1.262,0.037-1.462c-0.05-0.575-0.175-1.013-0.375-1.313c-0.35-0.5-1.112-1-2.287-1.5
				c-1.101-0.55-1.938-1.1-2.513-1.65c-0.4-0.4-0.763-0.688-1.088-0.862c-0.149-0.075-0.524-0.225-1.125-0.45
				c-0.375-0.125-0.862-0.362-1.462-0.712c-0.7-0.4-1.075-0.613-1.125-0.638c-0.375-0.175-1-0.4-1.875-0.675
				c-1.051-0.325-1.75-0.45-2.101-0.375L25.763-21c-0.3,0.1-0.55,0.15-0.75,0.15c-0.35,0.05-0.825,0-1.425-0.15
				c-1.5-0.4-2.75-0.587-3.75-0.563c-0.4,0-0.775,0.05-1.125,0.15c-0.4,0.1-0.75,0.149-1.051,0.149
				c-1.225,0-2.063,0.025-2.512,0.075c-0.075,0-1.138,0.188-3.188,0.563l-1.013,0.188c-0.7,0.2-1.313,0.338-1.838,0.412
				C8.737-19.975,8.125-19.8,7.275-19.5c-0.201,0.05-0.613,0.212-1.238,0.487c-0.5,0.25-0.875,0.388-1.125,0.413
				c-0.399,0.05-0.887,0.362-1.462,0.938c-0.375,0.375-0.788,0.637-1.237,0.787c-1.2,0.4-1.888,0.763-2.063,1.088
				c-0.275,0.65-0.163,1.112,0.337,1.387c0.375,0.226,1.425,0.263,3.15,0.113c0.475-0.05,1.125-0.201,1.95-0.45
				c0.8-0.25,1.299-0.375,1.5-0.375c0.05,0,0.462-0.038,1.237-0.112c0.6-0.05,1.162-0.05,1.688,0
				c1.675,0.149,2.888-0.013,3.638-0.488c0.399-0.25,0.762-0.387,1.087-0.412c0.15-0.025,0.563,0,1.237,0.075
				c0.726,0.075,1.875,0.125,3.45,0.149c0.4,0.025,0.95,0.113,1.65,0.263c0.725,0.15,1.274,0.238,1.649,0.263l2.476,0.263
				c0.524,0.025,1.525,0.425,3,1.2c1.425,0.725,2.399,1.313,2.925,1.762c0.325,0.275,0.988,0.838,1.987,1.688
				C33.962-9.713,34.388-9.25,34.388-9.075z"/>
		</g>
	</g>
</symbol>
<symbol  id="flash0.ai_x5F_3_x2F_Layer_3_x2F__x3C_Path_x3E__x5F_39" viewBox="-0.006 -18 48.962 17.978">
	<g id="Layer_1_2_">
		<path style="fill-rule:evenodd;clip-rule:evenodd;fill:#AB6700;" d="M46.35-0.1c1.1-0.5,1.833-1.167,2.2-2
			c0.2-0.4,0.333-1.05,0.4-1.95c0.033-0.434-0.083-0.8-0.35-1.1c-0.434-0.4-0.783-0.75-1.05-1.05c-0.333-0.4-0.6-0.883-0.8-1.45
			c-0.133-0.333-0.267-0.717-0.4-1.15c-0.067-0.167-0.167-0.284-0.3-0.35c-0.3-0.233-0.7-0.583-1.2-1.05
			c-1.3-1.267-2.567-2.233-3.8-2.9c-0.633-0.333-1.3-0.85-2-1.55c-0.667-0.633-1.083-0.983-1.25-1.05
			c-1.367-0.5-2.066-0.75-2.1-0.75C34.533-16.817,33.567-17,32.8-17c-0.867,0-1.966-0.117-3.3-0.35c-1.233-0.2-1.95-0.367-2.15-0.5
			c-0.133-0.1-0.733-0.15-1.8-0.15c-1.033,0-2.017,0.05-2.95,0.15c-0.5,0.067-1.217,0.033-2.15-0.1c-0.767-0.1-1.467-0.033-2.1,0.2
			l-3,0.9l-1.4,0.05c-2.167-0.034-4.05,0.1-5.65,0.4c-0.7,0.133-1.6,0.35-2.7,0.65c-0.867,0.233-1.717,0.4-2.55,0.5
			c-0.933,0.067-1.466-0.15-1.6-0.65c-0.067-0.233-0.034-0.483,0.1-0.75c-0.833-0.133-1.333,0.133-1.5,0.8
			c-0.1,0.434-0.066,0.8,0.1,1.1l0.3,0.3c2.6,1.2,5.05,2.184,7.35,2.95c10.434,3.533,16.967,5.717,19.6,6.55
			C39-1.25,45.317,0.367,46.35-0.1z"/>
	</g>
</symbol>
<use xlink:href="#Symbol_1"  width="40.121" height="21.563" x="0.004" y="-21.565" transform="matrix(1 0 0 -1 13.25 15.0498)" style="overflow:visible;"/>
<g>
	<path style="fill-rule:evenodd;clip-rule:evenodd;fill-opacity:0.302;" d="M46.25,18.6c1.5,0.1,3.217,0.8,5.15,2.1
		c1.066,0.733,2.55,1.85,4.449,3.35c1.267,0.9,2.25,1.934,2.95,3.101c0.634,1.066,0.95,2.1,0.95,3.1c0,0.6-0.316,1.283-0.95,2.05
		c-0.633,0.733-0.95,1.267-0.95,1.601c0,0.166,0.467,0.1,1.4-0.2c-1.467,0.566-2.267,0.866-2.4,0.899H52.3
		c-0.106-0.046-0.223-0.096-0.35-0.149c-0.566-0.233-1.233-0.351-2-0.351c-0.494,0-0.902,0.042-1.226,0.125
		c-2.441-0.157-4.183-0.599-5.225-1.324c-0.967-1-1.85-1.784-2.65-2.351c-0.8-0.566-2.167-1.267-4.1-2.1
		c-0.767-0.3-1.15-0.967-1.15-2c0-1.434,0.467-2.733,1.4-3.9c0.867-1.066,2.45-2.383,4.75-3.95H46.25z"/>
</g>
<use xlink:href="#Symbol_1"  width="40.121" height="21.563" x="0.004" y="-21.565" transform="matrix(-1 0 0 -1 76.5996 12.7998)" style="overflow:visible;"/>
<g>
	<path style="fill-rule:evenodd;clip-rule:evenodd;fill-opacity:0.302;" d="M47.8,18.5l4.5,0.55c2.233,1.5,3.767,2.717,4.601,3.65
		c0.899,1,1.333,2.05,1.3,3.149c-0.033,0.767-0.434,1.217-1.2,1.351c-1.967,0.399-3.333,0.767-4.1,1.1
		c-0.834,0.3-1.75,0.783-2.75,1.45c-1.034,0.434-2.767,0.55-5.2,0.35c-0.3-0.133-0.7-0.233-1.2-0.3c-0.767-0.1-1.45-0.083-2.05,0.05
		c-0.133,0-0.25,0.017-0.35,0.051l-4.5-0.601c-0.133-0.066-0.9-0.399-2.3-1c0.9,0.334,1.35,0.434,1.35,0.3
		c0-0.233-0.283-0.666-0.85-1.3c-0.633-0.7-0.933-1.267-0.9-1.7c0.033-0.767,0.383-1.5,1.05-2.199c0.7-0.801,1.683-1.467,2.95-2
		c1.967-0.9,3.467-1.567,4.5-2C44.616,18.7,46.333,18.4,47.8,18.5z"/>
</g>
<use xlink:href="#Symbol_1"  width="40.121" height="21.563" x="0.004" y="-21.565" transform="matrix(0.9919 0.1302 0.0284 -0.7616 18 10.0498)" style="overflow:visible;"/>
<g>
	<path style="fill-rule:evenodd;clip-rule:evenodd;fill-opacity:0.302;" d="M65.45,19.85c-1.033,0.667-1.55,1.184-1.55,1.551
		c0,0.566,0.267,0.966,0.8,1.199c1.533,0.601,2.366,0.934,2.5,1c-0.167,0.167-0.467,0.334-0.9,0.5
		c-0.434,0.134-0.733,0.284-0.899,0.45c-2.2-0.166-3.567-0.05-4.101,0.351c-0.8,0.633-1.517,1-2.149,1.1
		c-0.304,0.035-0.595,0.068-0.875,0.1h-5.15c-0.294,0.099-0.544,0.182-0.75,0.25h0.05c-0.364,0.116-0.598,0.191-0.7,0.226L51.7,26.6
		l-4.55,0.25c-0.101-0.033-0.217-0.05-0.351-0.05c-0.566-0.2-1.233-0.267-2-0.2c-0.5,0.034-0.899,0.101-1.2,0.2
		c-2.466,0.033-4.2-0.217-5.2-0.75c-0.933-0.7-1.816-1.233-2.65-1.6c-0.733-0.367-2.067-0.834-4-1.4
		c-0.767-0.2-1.133-0.684-1.1-1.45c0.033-1.1,0.55-2.116,1.55-3.05c0.9-0.867,2.517-1.966,4.85-3.3l4.55-0.2
		c1.466,0,3.15,0.417,5.05,1.25c0.506,0.28,1.14,0.629,1.899,1.05c-0.019-0.038-0.035-0.071-0.05-0.1c0.866,0.167,1.866,0.433,3,0.8
		c1.167,0.4,2.55,0.75,4.15,1.05h3.85l0.35,0.101l3.25,0.05C63.4,19.316,63.7,19.366,64,19.4l2.1,0.074
		C65.887,19.582,65.671,19.707,65.45,19.85z"/>
</g>
<use xlink:href="#Symbol_1"  width="40.121" height="21.563" x="0.004" y="-21.565" transform="matrix(-0.9988 0.0569 0.0278 -0.7616 70.1504 8)" style="overflow:visible;"/>
</svg>
