<?xml version="1.0" encoding="iso-8859-1"?>
<!-- Generator: Adobe Illustrator 15.1.0, SVG Export Plug-In . SVG Version: 6.00 Build 0)  -->
<!DOCTYPE svg PUBLIC "-//W3C//DTD SVG 1.1//EN" "http://www.w3.org/Graphics/SVG/1.1/DTD/svg11.dtd">
<svg version="1.1" id="flash0.ai" xmlns="http://www.w3.org/2000/svg" xmlns:xlink="http://www.w3.org/1999/xlink" x="0px" y="0px"
	 width="38px" height="50.55px" viewBox="0 0 38 50.55" style="enable-background:new 0 0 38 50.55;" xml:space="preserve">
<symbol  id="flash0.ai_x5F_1_x2F_Layer_22_x2F__x3C_Path_x3E__x5F_51" viewBox="0 -13.45 12 13.45">
	<g id="Layer_1_2_">
		
			<linearGradient id="SVGID_1_" gradientUnits="userSpaceOnUse" x1="-2344.2666" y1="-12937.2168" x2="-2333.2617" y2="-12937.2168" gradientTransform="matrix(0.3521 -0.936 0.936 0.3521 12938.1416 2358.9668)">
			<stop  offset="0.0039" style="stop-color:#FFFFFF"/>
			<stop  offset="1" style="stop-color:#B8EEFF"/>
		</linearGradient>
		<path style="fill-rule:evenodd;clip-rule:evenodd;fill:url(#SVGID_1_);" d="M0.05,0l5.5-2.25c-0.167-0.3-0.283-0.767-0.35-1.4
			C5.033-4.85,5.217-6.2,5.75-7.7c0.6-1.833,1.817-3.35,3.65-4.55c0.934-0.567,1.8-0.967,2.6-1.2c-1.033,0.267-2.183,0.7-3.45,1.3
			c-2.533,1.2-4.367,2.617-5.5,4.25C1.55-5.7,0.6-3.733,0.2-2C0-1.1-0.05-0.433,0.05,0z"/>
	</g>
</symbol>
<g>
	
		<linearGradient id="SVGID_2_" gradientUnits="userSpaceOnUse" x1="0.2002" y1="15.4995" x2="35.5" y2="15.4995" gradientTransform="matrix(0.75 0 0 0.75 5.6001 33.4004)">
		<stop  offset="0" style="stop-color:#DAE9ED"/>
		<stop  offset="0.9843" style="stop-color:#8DD0D9"/>
	</linearGradient>
	<path style="fill-rule:evenodd;clip-rule:evenodd;fill:url(#SVGID_2_);" d="M18.988,41.35c5,0,9.413-0.612,13.237-1.837
		c-0.449,3.125-1.924,5.737-4.425,7.837c-2.524,2.125-5.462,3.188-8.812,3.188c-3.375,0-6.325-1.063-8.85-3.188
		c-2.5-2.1-3.963-4.712-4.388-7.837C9.575,40.737,13.987,41.35,18.988,41.35z"/>
	
		<use xlink:href="#flash0.ai_x5F_1_x2F_Layer_22_x2F__x3C_Path_x3E__x5F_51"  width="12" height="13.45" x="0" y="-13.45" transform="matrix(0.75 0 0 -0.75 7.25 39.7002)" style="overflow:visible;opacity:0.5313;enable-background:new    ;"/>
	<path style="fill-rule:evenodd;clip-rule:evenodd;fill:#91BDC4;" d="M28.513,40.487l2.85-1.05l-0.075,1.2
		c-0.199,1.125-0.662,2.475-1.387,4.05c-0.676,1.525-1.9,2.75-3.676,3.675l-2.25,0.882c0.54-0.235,1.103-0.566,1.688-0.994
		c1.325-0.975,2.188-2.112,2.588-3.412c0.4-1.325,0.563-2.45,0.487-3.375L28.513,40.487z"/>
	<path style="fill-rule:evenodd;clip-rule:evenodd;fill:#D1F5FF;" d="M32.375,38.912c0,0.926-1.313,1.713-3.938,2.363
		c-2.6,0.649-5.75,0.975-9.45,0.975c-3.7,0-6.85-0.325-9.45-0.975C6.913,40.625,5.6,39.838,5.6,38.912
		c0-0.925,1.313-1.712,3.938-2.362c2.6-0.649,5.75-0.975,9.45-0.975c3.7,0,6.85,0.325,9.45,0.975
		C31.063,37.2,32.375,37.987,32.375,38.912z"/>
	
		<linearGradient id="SVGID_3_" gradientUnits="userSpaceOnUse" x1="2" y1="6.9751" x2="33.7002" y2="6.9751" gradientTransform="matrix(0.75 0 0 0.75 5.6001 33.4004)">
		<stop  offset="0.0039" style="stop-color:#68A8B0"/>
		<stop  offset="1" style="stop-color:#B8EEFF"/>
	</linearGradient>
	<path style="fill-rule:evenodd;clip-rule:evenodd;fill:url(#SVGID_3_);" d="M30.875,38.612c0,0.725-1.162,1.351-3.487,1.875
		c-2.325,0.525-5.125,0.788-8.4,0.788s-6.075-0.263-8.4-0.788C8.263,39.963,7.1,39.337,7.1,38.612s1.163-1.35,3.487-1.875
		c2.3-0.5,5.1-0.75,8.4-0.75c3.299,0,6.1,0.25,8.4,0.75C29.713,37.263,30.875,37.888,30.875,38.612z"/>
	
		<radialGradient id="SVGID_4_" cx="14.8999" cy="4.75" r="18.1625" gradientTransform="matrix(0.75 0 0 -0.75 5.6001 40.5254)" gradientUnits="userSpaceOnUse">
		<stop  offset="0" style="stop-color:#EBAB70"/>
		<stop  offset="1" style="stop-color:#C99360"/>
	</radialGradient>
	<path style="fill-rule:evenodd;clip-rule:evenodd;fill:url(#SVGID_4_);" d="M30.313,39.475c-0.45,0.301-1.263,0.601-2.438,0.9
		c-2.35,0.6-5.313,0.9-8.887,0.9c-4.375,0-7.625-0.363-9.75-1.088c-1.075-0.375-1.712-0.75-1.913-1.125
		c0.5-0.7,0.975-1.063,1.425-1.088c0.225-0.024,0.388-0.024,0.488,0c0.05,0,0.1-0.024,0.15-0.074c0.35-0.351,0.55-0.613,0.6-0.788
		c0.05-0.25,0.1-0.412,0.15-0.487c0.075-0.15,0.262-0.288,0.563-0.412c1.225-0.4,1.85-0.626,1.875-0.676
		c0.35-0.449,0.6-0.688,0.75-0.712l1.875-0.038c0.175-0.024,0.438-0.112,0.788-0.262c0.4-0.15,0.762-0.263,1.087-0.338
		C17.6,34.063,18.275,34,19.1,34c0.926,0.025,1.563,0.138,1.913,0.338l0.75,0.449l0.45-0.225c0.4-0.125,0.8-0.125,1.199,0
		c0.351,0.1,0.813,0.225,1.388,0.375c0.426,0.125,0.7,0.25,0.825,0.375c0.075,0.075,0.412,0.213,1.013,0.412
		c0.6,0.226,1.013,0.463,1.237,0.713l0.975,1.237c0.051,0.05,0.238,0.175,0.563,0.375c0.301,0.2,0.45,0.388,0.45,0.563
		C29.862,38.888,30.013,39.175,30.313,39.475z"/>
	<path style="fill-rule:evenodd;clip-rule:evenodd;fill:#C98E57;" d="M22.4,35.05h1.462c0.5,0,0.763,0.213,0.788,0.638
		c0.05,0.274,0.025,0.438-0.075,0.487c-0.1,0.025-0.362-0.037-0.788-0.188c-0.35-0.125-0.688-0.313-1.012-0.563L22.4,35.05z"/>
	<path style="fill-rule:evenodd;clip-rule:evenodd;fill:#C98E57;" d="M14.488,35.725l0.825-0.6c0.625-0.425,1.175-0.638,1.65-0.638
		s0.788,0.15,0.938,0.45c0.05,0.1,0.075,0.35,0.075,0.75c0,0.225-0.063,0.375-0.188,0.45c-0.15,0.075-0.487,0.112-1.013,0.112
		c-0.425,0-0.938-0.088-1.537-0.263L14.488,35.725z"/>
	<path style="fill-rule:evenodd;clip-rule:evenodd;fill:#C98E57;" d="M10.475,39.1c0.2,0.176,0.325,0.488,0.375,0.938
		c-0.2,0.351-0.475,0.476-0.825,0.375l-1.612-0.6l0.375-0.825c0.125-0.3,0.375-0.45,0.75-0.45
		C9.837,38.537,10.15,38.725,10.475,39.1z"/>
	<path style="fill-rule:evenodd;clip-rule:evenodd;fill:#C98E57;" d="M10.288,37.713l0.45-0.676c0.025-0.399,0.4-0.688,1.125-0.862
		c0.35-0.075,0.612-0.149,0.787-0.225c0.025,0,0.15,0.138,0.375,0.412c0.275,0.3,0.363,0.575,0.263,0.825
		c-0.125,0.25-0.462,0.45-1.013,0.6C11.525,38.013,10.862,37.987,10.288,37.713z"/>
	<path style="fill-rule:evenodd;clip-rule:evenodd;fill:#C98E57;" d="M19.85,35.088l0.338-0.375c0.275-0.176,0.563-0.15,0.862,0.074
		c0.351,0.275,0.525,0.5,0.525,0.676c-0.025,0.175-0.188,0.25-0.487,0.225c-0.226-0.025-0.5-0.138-0.825-0.338L19.85,35.088z"/>
	<path style="fill-rule:evenodd;clip-rule:evenodd;fill:#C98E57;" d="M16.55,40.713L16.475,40.3c0.075-0.274,0.175-0.55,0.3-0.825
		c0.275-0.55,0.55-0.837,0.825-0.862c0.3-0.025,0.487,0.013,0.563,0.112c0.05,0.05,0.075,0.226,0.075,0.525c0,0.7-0.15,1.2-0.45,1.5
		C17.538,41,17.125,40.987,16.55,40.713z"/>
	<path style="fill-rule:evenodd;clip-rule:evenodd;fill:#C98E57;" d="M25.813,38.612c0.25-0.225,0.65-0.388,1.2-0.487
		c0.625-0.125,1.138-0.05,1.537,0.225c0.45,0.325,0.626,0.638,0.525,0.938c-0.1,0.301-0.487,0.45-1.163,0.45
		c-0.574,0-1.1-0.188-1.574-0.563L25.813,38.612z"/>
	<path style="fill-rule:evenodd;clip-rule:evenodd;fill:#CFA34B;" d="M16.925,35.987C16,35.912,15.413,35.7,15.163,35.35l-0.3-1.612
		L15.988,34c0.45,0.125,0.775,0.287,0.975,0.487L16.925,35.987z"/>
	<path style="fill-rule:evenodd;clip-rule:evenodd;fill:#FFE78A;" d="M14.488,35.725c0-0.325,0.125-0.987,0.375-1.987l1.725,1.987
		l0.338,0.263h-1.463c-0.3,0-0.55-0.037-0.75-0.112L14.488,35.725z"/>
	<path style="fill-rule:evenodd;clip-rule:evenodd;fill:#CFA34B;" d="M24.35,35.725c-0.324,0.125-0.637,0.176-0.938,0.15
		c-0.175-0.025-0.35-0.125-0.524-0.3l-0.226-0.226l1.013-1.05c0.15-0.1,0.288,0.025,0.413,0.375
		C24.162,34.9,24.25,35.25,24.35,35.725z"/>
	<path style="fill-rule:evenodd;clip-rule:evenodd;fill:#FFE78A;" d="M23.6,35.35l-0.188,0.525c-0.249-0.101-0.5-0.275-0.75-0.525
		l-0.262-0.3L22.55,34.9c0.101-0.125,0.226-0.226,0.375-0.301l0.75-0.3C23.625,34.625,23.6,34.975,23.6,35.35z"/>
	<path style="fill-rule:evenodd;clip-rule:evenodd;fill:#CFA34B;" d="M21.725,39.362l0.938-0.375l0.188,0.563
		c0,0.15-0.062,0.325-0.188,0.525c-0.125,0.199-0.249,0.3-0.375,0.3h-0.563c-0.1-0.05-0.199-0.125-0.3-0.225
		c-0.2-0.15-0.287-0.263-0.263-0.338c0.025-0.075,0.126-0.175,0.301-0.3C21.563,39.463,21.65,39.412,21.725,39.362z"/>
	<path style="fill-rule:evenodd;clip-rule:evenodd;fill:#FFE78A;" d="M21.162,39.813c0-0.35,0.088-0.612,0.263-0.787
		c0.175-0.176,0.4-0.226,0.675-0.15l0.563,0.112c-0.3,0.7-0.574,1.05-0.824,1.05c-0.15,0-0.313-0.037-0.488-0.112L21.162,39.813z"/>
	<path style="fill-rule:evenodd;clip-rule:evenodd;fill:#C98E57;" d="M11.9,38.537c0.3,0,0.425,0.176,0.375,0.525
		c-0.025,0.35-0.15,0.6-0.375,0.75c-0.175,0.1-0.387,0.025-0.637-0.225c-0.225-0.2-0.425-0.463-0.6-0.788
		c-0.125-0.225-0.125-0.337,0-0.337S11.2,38.487,11.9,38.537z"/>
	<path style="fill-rule:evenodd;clip-rule:evenodd;fill:#C98E57;" d="M12.913,39.175c0.275,0.025,0.363,0.162,0.263,0.413
		c-0.125,0.25-0.3,0.337-0.525,0.262c-0.2-0.05-0.25-0.175-0.15-0.375C12.6,39.25,12.737,39.149,12.913,39.175z"/>
	<path style="fill-rule:evenodd;clip-rule:evenodd;fill:#C98E57;" d="M19.588,36.287c0.449,0,0.563,0.15,0.337,0.45
		c-0.225,0.3-0.475,0.463-0.75,0.487c-0.25,0.05-0.5-0.024-0.75-0.225c-0.275-0.2-0.325-0.412-0.15-0.638
		c0.15-0.175,0.3-0.25,0.45-0.225C19.125,36.237,19.412,36.287,19.588,36.287z"/>
	<path style="fill-rule:evenodd;clip-rule:evenodd;fill:#C98E57;" d="M20.713,37.225c0.375-0.175,0.563,0.038,0.563,0.638
		c0,0.45-0.325,0.638-0.976,0.563c-0.324-0.025-0.388-0.2-0.188-0.524C20.263,37.6,20.463,37.375,20.713,37.225z"/>
	<path style="fill-rule:evenodd;clip-rule:evenodd;fill:#C98E57;" d="M19.963,38.8c0.324-0.025,0.449,0.112,0.375,0.413
		c-0.051,0.3-0.188,0.512-0.413,0.637c-0.325,0.226-0.537,0.088-0.638-0.412C19.213,39.063,19.438,38.85,19.963,38.8z"/>
	<path style="fill-rule:evenodd;clip-rule:evenodd;fill:#C98E57;" d="M24.237,39.737c0.125,0.05,0.125,0.162,0,0.338
		c-0.124,0.199-0.3,0.362-0.524,0.487c-0.35,0.2-0.55,0.075-0.601-0.375c-0.024-0.175,0.088-0.313,0.338-0.412
		C23.726,39.7,23.987,39.688,24.237,39.737z"/>
	<path style="fill-rule:evenodd;clip-rule:evenodd;fill:#C98E57;" d="M24.537,37c0.25-0.075,0.338,0.013,0.263,0.263
		c0,0.024-0.087,0.225-0.263,0.6c-0.049,0.125-0.175,0.213-0.375,0.263c-0.199,0.025-0.35-0.025-0.449-0.15
		c-0.101-0.125-0.075-0.287,0.074-0.487C23.938,37.287,24.188,37.125,24.537,37z"/>
	<path style="fill-rule:evenodd;clip-rule:evenodd;fill:#C98E57;" d="M24.987,35.725c0.2-0.05,0.438-0.05,0.713,0
		c0.3,0.075,0.476,0.2,0.524,0.375c0.126,0.4-0.225,0.575-1.05,0.525c-0.324-0.025-0.487-0.175-0.487-0.45
		C24.713,35.95,24.813,35.8,24.987,35.725z"/>
	<path style="fill-rule:evenodd;clip-rule:evenodd;fill:#C98E57;" d="M29.412,38.8c0.426,0.15,0.563,0.3,0.413,0.45
		c-0.15,0.125-0.325,0.188-0.525,0.188c-0.1,0-0.137-0.125-0.112-0.375C29.188,38.838,29.263,38.75,29.412,38.8z"/>
	<path style="fill-rule:evenodd;clip-rule:evenodd;fill:#E6C088;" d="M8.525,38.162c0.3-0.024,0.375,0.063,0.225,0.263
		c-0.075,0.101-0.225,0.263-0.45,0.487c-0.075,0.125-0.212,0.15-0.413,0.075c-0.061-0.018-0.111-0.023-0.15-0.019
		c0.039-0.061,0.088-0.142,0.15-0.244C8.063,38.375,8.275,38.188,8.525,38.162z"/>
	<path style="fill-rule:evenodd;clip-rule:evenodd;fill:#E6C088;" d="M13.175,35.162c0.325-0.325,0.575-0.074,0.75,0.75
		c0.025,0.25,0.275,0.551,0.75,0.9c0,0.2-0.087,0.3-0.263,0.3c-0.125,0-0.3-0.063-0.525-0.188c-0.2-0.1-0.313-0.2-0.337-0.3
		l-0.75-0.9L13.175,35.162z"/>
	<path style="fill-rule:evenodd;clip-rule:evenodd;fill:#E6C088;" d="M13.587,37.563c0.45,0.05,0.65,0.138,0.6,0.263
		c-0.15,0.149-0.262,0.263-0.337,0.337c-0.075,0.125-0.163,0.188-0.263,0.188c-0.05,0-0.15-0.037-0.3-0.112
		c-0.15-0.05-0.188-0.188-0.112-0.412C13.25,37.625,13.388,37.537,13.587,37.563z"/>
	<path style="fill-rule:evenodd;clip-rule:evenodd;fill:#E6C088;" d="M14.788,38.612c0.275-0.225,0.475-0.313,0.6-0.263
		c0.125,0.075,0.087,0.25-0.113,0.525c-0.15,0.225-0.225,0.513-0.225,0.862c0,0.175,0.012,0.362,0.037,0.563
		c0,0.101-0.087,0.075-0.262-0.075c-0.175-0.149-0.313-0.313-0.413-0.487C14.213,39.362,14.337,38.987,14.788,38.612z"/>
	<path style="fill-rule:evenodd;clip-rule:evenodd;fill:#E6C088;" d="M16.212,37c0.25-0.025,0.438,0,0.563,0.075
		c0.125,0.075,0.125,0.125,0,0.149c-0.45,0.301-0.762,0.45-0.938,0.45c-0.125,0-0.15-0.112-0.075-0.337
		C15.862,37.138,16.013,37.025,16.212,37z"/>
	<path style="fill-rule:evenodd;clip-rule:evenodd;fill:#E6C088;" d="M18.725,34.375c0.175-0.125,0.288-0.125,0.337,0
		c0.101,0.375,0.213,0.638,0.338,0.787c0.323,0.439,0.724,0.684,1.199,0.731c-0.883-0.068-1.42-0.175-1.612-0.318
		c-0.15-0.101-0.238-0.325-0.263-0.675V34.375z"/>
	<path style="fill-rule:evenodd;clip-rule:evenodd;fill:#E6C088;" d="M22.287,35.8c0.075-0.274,0.176-0.337,0.301-0.188
		c0.074,0.101,0.262,0.35,0.563,0.75c0.278,0.315,0.572,0.435,0.881,0.356c-0.205,0.063-0.449,0.094-0.731,0.094
		c-0.3,0-0.563-0.162-0.787-0.487L22.287,35.8z"/>
	<path style="fill-rule:evenodd;clip-rule:evenodd;fill:#E6C088;" d="M22.287,36.925c0.275,0.025,0.4,0.213,0.375,0.563
		c0,0.325-0.1,0.537-0.3,0.638c-0.225,0.125-0.462-0.025-0.712-0.45c-0.051-0.149-0.013-0.313,0.112-0.487
		C21.912,36.987,22.088,36.899,22.287,36.925z"/>
	<path style="fill-rule:evenodd;clip-rule:evenodd;fill:#E6C088;" d="M23.112,37.188c0.375,0,0.538,0.05,0.487,0.15
		c0,0.074-0.1,0.25-0.3,0.524c-0.124,0.226-0.212,0.175-0.263-0.149C22.963,37.362,22.988,37.188,23.112,37.188z"/>
	<path style="fill-rule:evenodd;clip-rule:evenodd;fill:#E6C088;" d="M18.65,37.563c0.4,0.025,0.575,0.213,0.525,0.563
		c-0.05,0.375-0.237,0.563-0.562,0.563c-0.3,0-0.438-0.188-0.413-0.563C18.225,37.725,18.375,37.537,18.65,37.563z"/>
	<path style="fill-rule:evenodd;clip-rule:evenodd;fill:#E6C088;" d="M18.837,39.925c0.35,0,0.513,0.138,0.488,0.413
		c-0.05,0.274-0.213,0.412-0.488,0.412c-0.225,0-0.325-0.138-0.3-0.412C18.563,40.063,18.663,39.925,18.837,39.925z"/>
	<path style="fill-rule:evenodd;clip-rule:evenodd;fill:#E6C088;" d="M20.9,40.225c0.375,0.176,0.512,0.325,0.412,0.45
		c-0.1,0.15-0.313,0.15-0.638,0c-0.3-0.125-0.388-0.25-0.263-0.375C20.538,40.175,20.7,40.15,20.9,40.225z"/>
	<path style="fill-rule:evenodd;clip-rule:evenodd;fill:#E6C088;" d="M25.4,37.75c0.1,0,0.137,0.087,0.112,0.263
		c-0.025,0.325-0.013,0.625,0.037,0.899c0.074,0.588,0.437,0.9,1.088,0.938c-0.853-0.028-1.365-0.153-1.538-0.375
		c-0.149-0.175-0.262-0.387-0.337-0.637c-0.075-0.325-0.05-0.588,0.075-0.788c0.225-0.35,0.362-0.513,0.412-0.487
		C25.275,37.588,25.325,37.649,25.4,37.75z"/>
	<path style="fill-rule:evenodd;clip-rule:evenodd;fill:#E6C088;" d="M27.05,36.25c0.375,0,0.438,0.087,0.188,0.263
		c-0.25,0.175-0.487,0.225-0.712,0.149c-0.2-0.05-0.226-0.138-0.075-0.262C26.575,36.3,26.775,36.25,27.05,36.25z"/>
	<path style="fill-rule:evenodd;clip-rule:evenodd;fill:#E6C088;" d="M13.775,39.438c0.275,0.2,0.4,0.4,0.375,0.6
		c-0.025,0.2-0.163,0.25-0.412,0.15c-0.25-0.075-0.338-0.25-0.263-0.525C13.525,39.388,13.625,39.313,13.775,39.438z"/>
	
		<radialGradient id="SVGID_5_" cx="6.6001" cy="2.9502" r="2.5625" gradientTransform="matrix(0.75 0 0 -0.75 5.6001 37.8257)" gradientUnits="userSpaceOnUse">
		<stop  offset="0" style="stop-color:#75AD45"/>
		<stop  offset="1" style="stop-color:#527737"/>
	</radialGradient>
	<path style="fill-rule:evenodd;clip-rule:evenodd;fill:url(#SVGID_5_);" d="M12.125,36.063c0.1,0.35-0.063,0.7-0.487,1.05
		c-0.425,0.375-0.875,0.575-1.35,0.601c0.125-0.375,0.063-0.626-0.188-0.75c-0.275-0.125-0.438-0.4-0.487-0.825
		c-0.075-0.5,0.163-0.851,0.712-1.05c0.525-0.176,0.987-0.063,1.387,0.337C11.913,35.625,12.05,35.838,12.125,36.063z"/>
	
		<radialGradient id="SVGID_6_" cx="29.9502" cy="5.2002" r="4.0125" gradientTransform="matrix(0.75 0 0 -0.75 5.6001 41.2007)" gradientUnits="userSpaceOnUse">
		<stop  offset="0" style="stop-color:#75AD45"/>
		<stop  offset="1" style="stop-color:#527737"/>
	</radialGradient>
	<path style="fill-rule:evenodd;clip-rule:evenodd;fill:url(#SVGID_6_);" d="M26.675,37.225C27,37.325,27.263,37.3,27.463,37.15
		c0.324-0.251,0.625-0.4,0.899-0.45c0.525-0.05,0.875,0.162,1.05,0.638c0.176,0.475,0.038,0.938-0.412,1.387
		c-0.45,0.45-1.063,0.676-1.838,0.676c-0.774-0.025-1.225-0.288-1.35-0.788c-0.125-0.475-0.05-0.85,0.225-1.125
		C26.263,37.237,26.475,37.15,26.675,37.225z"/>
	<path style="fill-rule:evenodd;clip-rule:evenodd;fill:#8FB360;" d="M19.737,34.638c-0.075-0.05-0.149-0.188-0.225-0.413
		c-0.05-0.225-0.013-0.487,0.112-0.787l0.263,0.037c0.275,0.075,0.587,0.275,0.938,0.601c0.524,0.475,0.712,0.8,0.563,0.975
		c-0.5,0.125-0.9,0.112-1.2-0.037c-0.175-0.075-0.3-0.163-0.375-0.263L19.737,34.638z"/>
	
		<radialGradient id="SVGID_7_" cx="19.7793" cy="2.2603" r="2.4717" gradientTransform="matrix(0.7472 -0.0645 -0.0796 -0.9217 5.9259 37.1726)" gradientUnits="userSpaceOnUse">
		<stop  offset="0" style="stop-color:#75AD45"/>
		<stop  offset="1" style="stop-color:#527737"/>
	</radialGradient>
	<path style="fill-rule:evenodd;clip-rule:evenodd;fill:url(#SVGID_7_);" d="M21.088,35.388c-0.476,0.125-0.888,0.024-1.238-0.3
		c-0.324-0.301-0.524-0.601-0.6-0.9V33.85l0.375-0.412c0,0.125,0.013,0.263,0.037,0.412c0.101,0.325,0.301,0.601,0.601,0.825
		c0.425,0.3,0.737,0.45,0.938,0.45c0.067,0,0.118-0.013,0.149-0.037L21.088,35.388z"/>
	<path style="fill-rule:evenodd;clip-rule:evenodd;fill:#8FB360;" d="M17.525,39.025C17.3,39.675,16.95,40.1,16.475,40.3
		c-0.35,0.15-0.625,0.075-0.825-0.225c-0.225-0.3-0.225-0.638,0-1.013c0.225-0.375,0.488-0.675,0.788-0.9
		c0.325-0.199,0.588-0.262,0.788-0.188C17.5,38.075,17.6,38.425,17.525,39.025z"/>
	
		<radialGradient id="SVGID_8_" cx="15.3999" cy="6.9502" r="3.65" gradientTransform="matrix(0.75 0 0 -0.75 5.6001 43.8257)" gradientUnits="userSpaceOnUse">
		<stop  offset="0" style="stop-color:#75AD45"/>
		<stop  offset="1" style="stop-color:#527737"/>
	</radialGradient>
	<path style="fill-rule:evenodd;clip-rule:evenodd;fill:url(#SVGID_8_);" d="M17.225,37.975l0.638,0.601
		c0.175,0.3,0.075,0.75-0.3,1.35c-0.35,0.601-0.688,0.862-1.012,0.788L15.837,40.3c0.275,0,0.65-0.263,1.125-0.787
		C17.463,38.987,17.55,38.475,17.225,37.975z"/>
	<path style="fill-rule:evenodd;clip-rule:evenodd;fill:#7FB85C;" d="M10.325,35.237c0.275-0.1,0.487-0.1,0.637,0
		C11.088,35.338,11.1,35.475,11,35.65c-0.4,0.6-0.712,0.774-0.938,0.524c-0.175-0.149-0.225-0.325-0.15-0.524
		C9.963,35.475,10.1,35.338,10.325,35.237z"/>
	<path style="fill-rule:evenodd;clip-rule:evenodd;fill:#7FB85C;" d="M19.55,33.85c0.25-0.05,0.2,0.101-0.149,0.45
		c-0.025-0.025-0.025-0.1,0-0.225C19.45,33.95,19.5,33.875,19.55,33.85z"/>
	<path style="fill-rule:evenodd;clip-rule:evenodd;fill:#7FB85C;" d="M16.288,40.225c0.075-0.125,0.188-0.1,0.337,0.075
		c0.075,0.05,0.138,0.088,0.188,0.112c0.025,0.025,0,0.05-0.075,0.075c-0.075,0.025-0.175-0.013-0.3-0.112L16.288,40.225z"/>
	<path style="fill-rule:evenodd;clip-rule:evenodd;fill:#95D96D;" d="M10.212,35.35c0.2-0.1,0.3-0.063,0.3,0.113
		c0,0.175-0.1,0.3-0.3,0.375c-0.15,0.05-0.225,0-0.225-0.15C10.013,35.513,10.088,35.399,10.212,35.35z"/>
</g>
</svg>
