<?xml version="1.0" encoding="iso-8859-1"?>
<!-- Generator: Adobe Illustrator 15.1.0, SVG Export Plug-In . SVG Version: 6.00 Build 0)  -->
<!DOCTYPE svg PUBLIC "-//W3C//DTD SVG 1.1//EN" "http://www.w3.org/Graphics/SVG/1.1/DTD/svg11.dtd">
<svg version="1.1" id="Layer_1" xmlns="http://www.w3.org/2000/svg" xmlns:xlink="http://www.w3.org/1999/xlink" x="0px" y="0px"
	 width="45.6px" height="26.3px" viewBox="0 0 45.6 26.3" style="enable-background:new 0 0 45.6 26.3;" xml:space="preserve">
<symbol  id="bacobit1" viewBox="0 -22.05 39.413 22.06">
	<g id="Layer_1_2_">
		<path style="fill-rule:evenodd;clip-rule:evenodd;fill:#98281C;" d="M38.85-19.8c0,0.067,0,0.133,0,0.2v0.05
			c0,0.167-0.017,0.35-0.05,0.55c-0.067,0.2-0.083,0.467-0.05,0.8c-0.2,0-0.417,0.167-0.65,0.5c-0.267,0.333-0.45,0.566-0.55,0.7
			c-0.067,0.067-0.283,0.167-0.65,0.3c-0.367,0.1-0.633,0.167-0.8,0.2c-0.233,0.034-0.517,0-0.85-0.1
			c-0.333-0.1-0.534-0.133-0.6-0.1c-0.867,0.133-1.7,0.483-2.5,1.05c-1.033,0.7-1.533,1.45-1.5,2.25c0,0.1,0.033,0.25,0.1,0.45
			c0.066,0.2,0.1,0.35,0.1,0.45c0,0.267-0.083,0.45-0.25,0.55c-0.233,0.133-0.4,0.333-0.5,0.6c-0.033,0.1-0.05,0.316-0.05,0.65
			c-0.033,0.333-0.067,0.533-0.1,0.6c-0.1,0.3-0.267,0.55-0.5,0.75c-0.066,0.066-0.133,0.133-0.2,0.2
			c-0.03,0.03-0.239,0.155-0.625,0.375C28.752-8.842,28.877-8.901,29-8.95c0.167-0.1,0.316-0.2,0.45-0.3
			c0.2-0.167,0.383-0.333,0.55-0.5c0.167-0.167,0.3-0.35,0.4-0.55s0.167-0.4,0.2-0.6c0.067-0.2,0.117-0.417,0.15-0.65
			c0.033-0.133,0.133-0.267,0.3-0.4c0.267-0.167,0.35-0.383,0.25-0.65c-0.067-0.2-0.1-0.4-0.1-0.6c-0.033-0.133-0.033-0.267,0-0.4
			c0.1-0.5,0.35-0.917,0.75-1.25c0.667-0.534,1.383-0.917,2.15-1.15c0.733-0.233,1.45-0.267,2.15-0.1
			c0.133,0.066,0.283,0.1,0.45,0.1c0.934-0.133,1.7-0.667,2.3-1.6c0.066-0.133,0.15-0.267,0.25-0.4c0.2-0.3,0.216-0.633,0.05-1
			v-0.05C39.167-19.35,39.017-19.6,38.85-19.8z M7.7-0.8C7.533-0.733,7.367-0.65,7.2-0.55c-0.469,0.25-0.836,0.384-1.1,0.4
			C6.4-0.05,6.7,0,7,0c0.2,0.034,0.4-0.017,0.6-0.15C7.7-0.216,7.816-0.3,7.95-0.4c0.2-0.167,0.434-0.35,0.7-0.55
			c0.167-0.133,0.333-0.283,0.5-0.45c0.433-0.433,0.933-0.833,1.5-1.2c0.433-0.267,0.867-0.5,1.3-0.7c0.667-0.333,1.333-0.6,2-0.8
			c0.1,0,0.2-0.017,0.3-0.05c0.633-0.066,1.267-0.233,1.9-0.5c0.5-0.2,0.967-0.316,1.4-0.35C17.783-5,18-4.983,18.2-4.95
			c0.133,0.033,0.283,0.017,0.45-0.05c0.467-0.167,0.933-0.367,1.4-0.6c-0.3,0-0.55,0.083-0.75,0.25c-0.233,0.167-0.4,0.25-0.5,0.25
			c-0.167,0.033-0.333-0.017-0.5-0.15s-0.3-0.2-0.4-0.2c-0.333,0.033-0.8,0.15-1.4,0.35c-0.833,0.267-1.333,0.417-1.5,0.45
			c-0.6,0.133-1.067,0.25-1.4,0.35C13-4.167,12.466-3.95,12-3.65c-0.2,0.1-0.417,0.2-0.65,0.3c-0.267,0.1-0.466,0.167-0.6,0.2
			C10.283-2.95,9.833-2.633,9.4-2.2c-0.467,0.467-0.8,0.783-1,0.95C8.167-1.05,7.933-0.9,7.7-0.8z"/>
		<path style="fill-rule:evenodd;clip-rule:evenodd;fill:#D41914;" d="M30.6-20.15c-0.066,0.033-0.133,0.067-0.2,0.1
			c-0.133,0.067-0.233,0.117-0.3,0.15c-0.066,0-0.167,0.017-0.3,0.05c-0.167,0-0.267,0-0.3,0c-0.133,0.033-0.367,0.15-0.7,0.35
			c0.367-0.1,0.767-0.117,1.2-0.05c0.133,0,0.25,0.017,0.35,0.05c0.333,0.133,0.517,0.367,0.55,0.7c0,0.333-0.15,0.667-0.45,1
			c-0.1,0.133-0.2,0.25-0.3,0.35c0.6-0.467,1.283-0.783,2.05-0.95c0.133-0.033,0.383-0.033,0.75,0c0.333,0.033,0.583,0.033,0.75,0
			c0.067,0,0.133-0.017,0.2-0.05c-0.167,0.2-0.333,0.316-0.5,0.35c-0.934,0.2-1.65,0.517-2.15,0.95
			c-0.333,0.233-0.65,0.65-0.95,1.25c-0.133,0.2-0.25,0.383-0.35,0.55c-0.167,0.3-0.316,0.517-0.45,0.65
			c-0.1,0.1-0.267,0.217-0.5,0.35c-0.267,0.133-0.467,0.233-0.6,0.3c-0.467,0.233-0.7,0.517-0.7,0.85c0,0.633-0.15,1.083-0.45,1.35
			c-0.167,0.1-0.267,0.183-0.3,0.25c-0.1,0.1-0.15,0.216-0.15,0.35c0,0.233,0.133,0.5,0.4,0.8c0.233,0.267,0.35,0.45,0.35,0.55
			c0,0.2-0.15,0.434-0.45,0.7c-0.367,0.3-0.566,0.467-0.6,0.5c-0.133,0.267-0.333,0.483-0.6,0.65c-0.3,0.2-0.617,0.3-0.95,0.3
			c-0.2,0.034-0.367,0.034-0.5,0c-0.133-0.033-0.283-0.033-0.45,0c-0.1,0-0.217,0.034-0.35,0.1c-0.167,0.067-0.3,0.133-0.4,0.2
			c-0.467,0.167-0.967,0.267-1.5,0.3c-0.167,0.033-0.434,0.033-0.8,0c-0.4,0-0.667,0-0.8,0c-0.367,0-0.7,0.067-1,0.2
			c-0.133,0.066-0.317,0.2-0.55,0.4c-0.233,0.167-0.433,0.3-0.6,0.4C17.767-6.05,17.45-6,17.05-6C16.45-6.033,16.1-6.066,16-6.1
			c-0.267,0-0.667,0.066-1.2,0.2s-0.833,0.2-0.9,0.2c-0.7-0.133-1.083-0.2-1.15-0.2c-0.067,0-0.333,0.117-0.8,0.35
			c-0.566,0.233-0.867,0.367-0.9,0.4c-0.433,0.133-0.75,0.3-0.95,0.5c-0.233,0.267-0.483,0.5-0.75,0.7
			c-0.167,0.133-0.333,0.233-0.5,0.3C8.65-3.617,8.5-3.583,8.4-3.55C8.233-3.483,8.1-3.367,8-3.2C7.867-2.966,7.767-2.816,7.7-2.75
			C7.566-2.617,7.333-2.5,7-2.4C6.733-2.267,6.417-2.183,6.05-2.15c-0.398,0-0.732,0-1,0c0.034,0.001,0.068,0.018,0.1,0.05
			c-0.067,0-0.133,0.017-0.2,0.05L5-2C4.767-2,4.5-1.95,4.2-1.85c-0.433,0.133-0.767,0.2-1,0.2c-0.066-0.033-0.183-0.066-0.35-0.1
			l-0.3-0.1c-0.1,0-0.183,0.033-0.25,0.1C2.2-1.716,2.15-1.667,2.15-1.6c-0.033,0.066-0.033,0.133,0,0.2
			c0.433,0.133,0.9,0.233,1.4,0.3c0.533,0,1,0.133,1.4,0.4c0.3,0.2,0.617,0.367,0.95,0.5c0.066-0.033,0.133-0.067,0.2-0.1
			c0-0.033,0.1-0.117,0.3-0.25C6.566-0.716,6.7-0.8,6.8-0.8c0.067-0.033,0.233-0.083,0.5-0.15c0.233-0.067,0.367-0.167,0.4-0.3V-1.6
			c0-0.233,0.017-0.383,0.05-0.45c0.1-0.167,0.316-0.367,0.65-0.6c0.3-0.2,0.5-0.3,0.6-0.3c0.233-0.033,0.483-0.167,0.75-0.4
			C9.883-3.483,10.083-3.7,10.35-4c0.434-0.5,0.867-0.867,1.3-1.1c0.467-0.233,0.95-0.317,1.45-0.25
			c0.633,0.033,1.167,0.066,1.6,0.1c0.533,0.034,0.983,0.067,1.35,0.1v0.05c-0.233,0.066-0.567,0.1-1,0.1
			c-0.467-0.033-0.833-0.05-1.1-0.05c-0.9-0.033-1.566,0.1-2,0.4c-0.3,0.2-0.6,0.467-0.9,0.8c-0.3,0.333-0.6,0.583-0.9,0.75
			C9.683-2.9,9.333-2.733,9.1-2.6C8.7-2.367,8.433-2.117,8.3-1.85c0,0.033-0.017,0.117-0.05,0.25c0,0.1-0.017,0.183-0.05,0.25
			C8.133-1.183,7.966-1,7.7-0.8c0.233-0.1,0.467-0.25,0.7-0.45c0.2-0.167,0.533-0.483,1-0.95c0.433-0.434,0.883-0.75,1.35-0.95
			c0.133-0.033,0.333-0.1,0.6-0.2c0.233-0.1,0.45-0.2,0.65-0.3c0.466-0.3,1-0.517,1.6-0.65c0.333-0.1,0.8-0.217,1.4-0.35
			c0.167-0.033,0.667-0.183,1.5-0.45c0.6-0.2,1.066-0.317,1.4-0.35c0.1,0,0.233,0.066,0.4,0.2s0.333,0.184,0.5,0.15
			c0.1,0,0.267-0.083,0.5-0.25c0.2-0.167,0.45-0.25,0.75-0.25c0.033,0,0.083,0,0.15,0c0.133-0.1,0.283-0.167,0.45-0.2
			c0.233-0.067,0.433-0.067,0.6,0c0.1,0.033,0.216,0.05,0.35,0.05c0.1,0.034,0.233,0,0.4-0.1c0.233-0.2,0.483-0.367,0.75-0.5h0.05
			c0.167,0,0.317,0.033,0.45,0.1c0.233-0.167,0.5-0.316,0.8-0.45c0.367-0.167,0.733-0.267,1.1-0.3c0.233-0.033,0.433-0.05,0.6-0.05
			c0.133,0,0.283,0,0.45,0c0.633-0.067,1.2-0.3,1.7-0.7C28-7.816,28.066-7.9,28.1-8c0.034-0.2,0.034-0.367,0-0.5
			c0.133-0.066,0.267-0.133,0.4-0.2c0.046-0.026,0.088-0.052,0.125-0.075c0.386-0.22,0.595-0.345,0.625-0.375
			c0.066-0.066,0.133-0.133,0.2-0.2c0.233-0.2,0.4-0.45,0.5-0.75c0.033-0.067,0.067-0.267,0.1-0.6c0-0.333,0.017-0.55,0.05-0.65
			c0.1-0.267,0.267-0.467,0.5-0.6c0.167-0.1,0.25-0.283,0.25-0.55c0-0.1-0.033-0.25-0.1-0.45c-0.067-0.2-0.1-0.35-0.1-0.45
			c-0.033-0.8,0.467-1.55,1.5-2.25c0.8-0.566,1.633-0.917,2.5-1.05c0.066-0.033,0.267,0,0.6,0.1c0.333,0.1,0.617,0.133,0.85,0.1
			c0.167-0.033,0.434-0.1,0.8-0.2c0.367-0.133,0.583-0.233,0.65-0.3c0.1-0.133,0.283-0.367,0.55-0.7c0.233-0.333,0.45-0.5,0.65-0.5
			c-0.034-0.333-0.017-0.6,0.05-0.8c0.033-0.2,0.05-0.383,0.05-0.55v-0.05c0-0.067,0-0.133,0-0.2c-0.133-0.1-0.267-0.183-0.4-0.25
			c-0.1-0.067-0.2-0.117-0.3-0.15c-0.8-0.4-1.667-0.65-2.6-0.75c-0.1,0-0.2,0-0.3,0C35.117-20.983,34.966-21,34.8-21
			c-1.033-0.066-2-0.233-2.9-0.5c0.167,0.133,0.25,0.3,0.25,0.5c0,0.167-0.083,0.333-0.25,0.5c-0.4,0.233-0.667,0.35-0.8,0.35
			C30.933-20.15,30.767-20.15,30.6-20.15z M36.35-17.25l0.3-0.2c0.167-0.1,0.283-0.15,0.35-0.15l0.15,0.15
			c0.1,0.066,0.183,0.1,0.25,0.1c-0.567,0.433-0.9,0.667-1,0.7c-0.1,0-0.417-0.083-0.95-0.25c-0.566-0.167-0.95-0.233-1.15-0.2
			c-0.367,0.066-0.767,0.216-1.2,0.45c-0.533,0.267-0.95,0.467-1.25,0.6c-0.133,0.067-0.267,0.15-0.4,0.25
			c-0.3,0.333-0.583,0.7-0.85,1.1c-0.033,0.033-0.1,0.1-0.2,0.2c-0.1,0.133-0.15,0.267-0.15,0.4c-0.067,0.167-0.117,0.483-0.15,0.95
			c-0.033,0.4-0.167,0.667-0.4,0.8h-0.05c-0.367,0.133-0.667,0.267-0.9,0.4c-0.4,0.2-0.6,0.4-0.6,0.6c0,0.167,0.183,0.367,0.55,0.6
			c0.4,0.233,0.6,0.45,0.6,0.65c0,0.233-0.3,0.55-0.9,0.95c-0.333,0.2-0.567,0.333-0.7,0.4c-0.267,0.133-0.433,0.233-0.5,0.3
			c0.033,0.033,0.083,0.1,0.15,0.2c0.067,0.067,0.1,0.117,0.1,0.15c0,0.033-0.017,0.066-0.05,0.1c-0.033,0-0.067,0.017-0.1,0.05
			c-0.033,0-0.083,0.017-0.15,0.05c-0.033,0-0.1-0.033-0.2-0.1c-0.1-0.066-0.15-0.117-0.15-0.15c0.067-0.2,0.317-0.45,0.75-0.75
			c0.4-0.3,0.6-0.517,0.6-0.65c0-0.233-0.15-0.467-0.45-0.7c-0.3-0.233-0.45-0.45-0.45-0.65c0-0.167,0.15-0.383,0.45-0.65
			c0.2-0.2,0.4-0.333,0.6-0.4c0.1-0.1,0.2-0.2,0.3-0.3c0.2-0.267,0.35-0.533,0.45-0.8c0.1-0.433,0.333-0.75,0.7-0.95
			c0.033-0.066,0.066-0.117,0.1-0.15h0.05c0-0.066,0.017-0.15,0.05-0.25c0.067-0.066,0.217-0.316,0.45-0.75
			c0.1-0.267,0.233-0.467,0.4-0.6c0.1-0.1,0.317-0.267,0.65-0.5c0.333-0.233,0.533-0.383,0.6-0.45c0.067-0.1,0.3-0.233,0.7-0.4
			c0.167-0.034,0.3-0.083,0.4-0.15c0.5-0.3,1.017-0.466,1.55-0.5c0.467-0.1,0.817-0.033,1.05,0.2l0.25,0.2
			C36.1-17.283,36.216-17.25,36.35-17.25z"/>
		<path style="fill-rule:evenodd;clip-rule:evenodd;fill:#DF481B;" d="M36.35-17.25c-0.133,0-0.25-0.033-0.35-0.1l-0.25-0.2
			c-0.233-0.233-0.583-0.3-1.05-0.2c-0.533,0.034-1.05,0.2-1.55,0.5c-0.1,0.067-0.233,0.117-0.4,0.15c-0.4,0.167-0.633,0.3-0.7,0.4
			c-0.067,0.066-0.267,0.217-0.6,0.45c-0.333,0.233-0.55,0.4-0.65,0.5c-0.167,0.133-0.3,0.333-0.4,0.6
			c-0.233,0.434-0.383,0.684-0.45,0.75c-0.033,0.1-0.05,0.184-0.05,0.25h-0.05c-0.033,0.033-0.066,0.083-0.1,0.15
			c-0.367,0.2-0.6,0.517-0.7,0.95c-0.1,0.267-0.25,0.533-0.45,0.8c-0.1,0.1-0.2,0.2-0.3,0.3c-0.2,0.066-0.4,0.2-0.6,0.4
			c-0.3,0.267-0.45,0.483-0.45,0.65c0,0.2,0.15,0.417,0.45,0.65c0.3,0.233,0.45,0.467,0.45,0.7c0,0.133-0.2,0.35-0.6,0.65
			c-0.433,0.3-0.683,0.55-0.75,0.75c0,0.033,0.05,0.083,0.15,0.15c0.1,0.067,0.167,0.1,0.2,0.1c0.066-0.033,0.117-0.05,0.15-0.05
			C27.333-7.983,27.367-8,27.4-8c0.033-0.033,0.05-0.066,0.05-0.1c0-0.034-0.033-0.083-0.1-0.15c-0.066-0.1-0.117-0.167-0.15-0.2
			c0.067-0.067,0.233-0.167,0.5-0.3c0.133-0.066,0.367-0.2,0.7-0.4c0.6-0.4,0.9-0.717,0.9-0.95c0-0.2-0.2-0.417-0.6-0.65
			c-0.367-0.233-0.55-0.433-0.55-0.6c0-0.2,0.2-0.4,0.6-0.6c0.233-0.133,0.533-0.267,0.9-0.4h0.05c0.233-0.133,0.367-0.4,0.4-0.8
			c0.034-0.467,0.083-0.783,0.15-0.95c0-0.133,0.05-0.267,0.15-0.4c0.1-0.1,0.167-0.167,0.2-0.2c0.267-0.4,0.55-0.767,0.85-1.1
			c0.133-0.1,0.267-0.183,0.4-0.25c0.3-0.133,0.717-0.333,1.25-0.6c0.434-0.233,0.833-0.383,1.2-0.45
			c0.2-0.034,0.583,0.033,1.15,0.2c0.533,0.167,0.85,0.25,0.95,0.25c0.1-0.033,0.433-0.267,1-0.7c-0.067,0-0.15-0.034-0.25-0.1
			L37-17.6c-0.067,0-0.184,0.05-0.35,0.15L36.35-17.25z M25.425-18.2H25.4c-0.067,0.066-0.133,0.167-0.2,0.3
			c-0.333,0.467-0.583,0.75-0.75,0.85c-0.2,0.133-0.367,0.267-0.5,0.4s-0.15,0.333-0.05,0.6c0.066,0.267-0.017,0.45-0.25,0.55
			c-0.267,0.1-0.417,0.167-0.45,0.2c-0.233,0.167-0.367,0.45-0.4,0.85c-0.033,0.667-0.05,1.017-0.05,1.05
			c-0.167,0.7-0.55,1.317-1.15,1.85c-0.566,0.467-1.133,0.717-1.7,0.75c-0.2,0-0.383,0-0.55,0c-0.167,0.033-0.483,0.3-0.95,0.8
			c-0.5,0.5-1.067,0.784-1.7,0.85c-0.6,0.033-1-0.117-1.2-0.45c0.1,0.267,0.033,0.45-0.2,0.55c-0.267,0.133-0.4,0.217-0.4,0.25
			c0.1-0.033,0.183-0.033,0.25,0c0-0.033,0.033-0.033,0.1,0l0.15,0.05c0.1,0.034,0.167,0.05,0.2,0.05c0.1,0,0.2-0.033,0.3-0.1
			s0.217-0.083,0.35-0.05c0.167,0,0.417,0.05,0.75,0.15c0.3,0.1,0.5,0.167,0.6,0.2c0.1,0,0.167-0.066,0.2-0.2
			c0-0.033-0.017-0.067-0.05-0.1c-0.034-0.033-0.05-0.067-0.05-0.1c0.1,0,0.233,0.017,0.4,0.05c0.1,0,0.2-0.034,0.3-0.1
			c0.033-0.1,0.066-0.184,0.1-0.25c0.033-0.067,0.117-0.083,0.25-0.05c0.1,0,0.216,0.034,0.35,0.1
			c0.167,0.067,0.284,0.117,0.35,0.15c0.1,0,0.2,0,0.3,0c0-0.066,0-0.133,0-0.2l-0.2-0.3c0-0.1,0.033-0.167,0.1-0.2
			c0.066-0.033,0.183-0.033,0.35,0c-0.1-0.367,0.05-0.583,0.45-0.65c0.233-0.034,0.633-0.034,1.2,0c-0.067-0.233-0.05-0.4,0.05-0.5
			c0.067-0.067,0.217-0.117,0.45-0.15c0.3-0.033,0.483-0.083,0.55-0.15c0.167-0.066,0.267-0.2,0.3-0.4c0.033-0.1,0.033-0.283,0-0.55
			c0-0.267,0.017-0.483,0.05-0.65c0.067-0.267,0.183-0.45,0.35-0.55c0.167-0.1,0.25-0.217,0.25-0.35
			c-0.033-0.1-0.083-0.25-0.15-0.45c-0.1-0.233-0.15-0.367-0.15-0.4c0-0.233,0.1-0.433,0.3-0.6c0.133-0.067,0.35-0.167,0.65-0.3
			c0.167-0.066,0.267-0.267,0.3-0.6c0.067-0.367,0.1-0.617,0.1-0.75c0-0.1,0.117-0.333,0.35-0.7s0.35-0.583,0.35-0.65
			C25.4-18.14,25.408-18.173,25.425-18.2z"/>
		<path style="fill-rule:evenodd;clip-rule:evenodd;fill:#861905;" d="M0.1-2.6c0-0.034,0-0.083,0-0.15c1-0.6,2.034-1.15,3.1-1.65
			C3.867-5.233,4.583-6,5.35-6.7c0.3-0.267,0.6-0.533,0.9-0.8c0.2-0.167,0.4-0.333,0.6-0.5C7.183-8.333,7.566-8.583,8-8.75
			c0.466-0.2,0.95-0.367,1.45-0.5c0.233-0.033,0.45-0.066,0.65-0.1c0.367,0,0.75,0.066,1.15,0.2c0.233,0.067,0.45,0.033,0.65-0.1
			c0.033-0.033,0.083-0.066,0.15-0.1C12.35-9.316,12.633-9.2,12.9-9c0.3,0.167,0.6,0.217,0.9,0.15C13.9-8.883,13.966-8.933,14-9
			c0.1-0.3,0.3-0.466,0.6-0.5c0.1-0.033,0.2-0.05,0.3-0.05c0.2,0.033,0.4,0.017,0.6-0.05c0.133-0.034,0.267-0.067,0.4-0.1
			c0.066-0.067,0.15-0.1,0.25-0.1c0.033-0.033,0.083-0.033,0.15,0c0.467,0.133,0.883,0.1,1.25-0.1c0.4-0.233,0.683-0.55,0.85-0.95
			c0.066-0.133,0.117-0.284,0.15-0.45c0.067-0.233,0.217-0.35,0.45-0.35c0.233,0.033,0.466,0.05,0.7,0.05
			c0.2-0.034,0.383-0.117,0.55-0.25c0.733-0.5,1.233-1.233,1.5-2.2c0.033-0.2,0.066-0.383,0.1-0.55c0.133-0.7,0.467-1.3,1-1.8
			c0.434-0.4,0.833-0.816,1.2-1.25c0.133-0.133,0.233-0.267,0.3-0.4c0.067-0.133,0.167-0.267,0.3-0.4s0.25-0.267,0.35-0.4
			c0.1-0.133,0.183-0.233,0.25-0.3c0.033-0.033,0.066-0.066,0.1-0.1c0.034,0,0.067-0.017,0.1-0.05c0.1-0.1,0.2-0.183,0.3-0.25
			c0.1-0.033,0.183-0.083,0.25-0.15c0.4-0.233,0.833-0.467,1.3-0.7c0.167-0.1,0.367-0.183,0.6-0.25c0.4-0.066,0.816-0.117,1.25-0.15
			c0.433-0.067,0.867-0.15,1.3-0.25c0.233-0.033,0.45-0.083,0.65-0.15c0.1-0.033,0.2-0.067,0.3-0.1c0.133-0.033,0.3-0.1,0.5-0.2
			c0.9,0.267,1.867,0.434,2.9,0.5c0.167,0,0.317,0.017,0.45,0.05c0.1,0,0.2,0,0.3,0c0.933,0.1,1.8,0.35,2.6,0.75
			c-0.2-0.2-0.317-0.317-0.35-0.35c-0.2-0.233-0.567-0.367-1.1-0.4c-0.667-0.033-1.05-0.067-1.15-0.1
			c-0.967-0.4-1.75-0.667-2.35-0.8c-0.667-0.133-1.433-0.2-2.3-0.2c-0.2,0-0.567,0.15-1.1,0.45c-0.533,0.3-1.267,0.45-2.2,0.45
			c-0.633,0-1.216,0.15-1.75,0.45c-0.4,0.233-0.816,0.566-1.25,1c-0.333,0.3-0.633,0.8-0.9,1.5c-0.233,0.5-0.583,0.867-1.05,1.1
			c-0.233,0.133-0.45,0.566-0.65,1.3c-0.034,0.067-0.184,0.233-0.45,0.5c-0.2,0.233-0.3,0.417-0.3,0.55c0,0.4-0.167,0.717-0.5,0.95
			c-0.333,0.233-0.5,0.433-0.5,0.6c0,0.066,0.033,0.15,0.1,0.25c0.1,0.066,0.15,0.117,0.15,0.15l-0.15,0.25
			c-0.133,0.2-0.233,0.333-0.3,0.4H19.2l-0.1-0.3c-0.033-0.1-0.133-0.15-0.3-0.15c-0.367,0-0.55,0.167-0.55,0.5
			c0,0.566-0.05,0.95-0.15,1.15c-0.2,0.2-0.4,0.467-0.6,0.8c-0.2,0.267-0.434,0.4-0.7,0.4c-0.2,0-0.4-0.1-0.6-0.3
			c-0.2-0.2-0.333-0.3-0.4-0.3s-0.15,0.083-0.25,0.25c-0.1,0.133-0.2,0.2-0.3,0.2c-0.067,0-0.2-0.033-0.4-0.1
			c-0.2-0.066-0.367-0.1-0.5-0.1c-0.433,0-0.65,0.117-0.65,0.35c-0.033,0.267-0.167,0.4-0.4,0.4c-0.2,0-0.367-0.117-0.5-0.35
			s-0.3-0.35-0.5-0.35c-0.067,0-0.183,0.083-0.35,0.25c-0.133,0.2-0.233,0.3-0.3,0.3c-0.1,0-0.267-0.066-0.5-0.2
			c-0.267-0.133-0.45-0.2-0.55-0.2c-0.9,0-2.017,0.4-3.35,1.2C6.117-8,5.3-7.35,4.8-6.75c-0.5,0.6-1.45,1.434-2.85,2.5L0-2.8
			c0,0.067,0.017,0.117,0.05,0.15C0.05-2.617,0.066-2.6,0.1-2.6z"/>
		<path style="fill-rule:evenodd;clip-rule:evenodd;fill:#C24B29;" d="M0.8-1.85c0.267,0.133,0.533,0.233,0.8,0.3
			c0.1-0.3,0.333-0.467,0.7-0.5c0.167,0,0.433,0.033,0.8,0.1C3.333-1.983,3.65-2.033,4.05-2.1c0.333-0.067,0.6-0.1,0.8-0.1
			c0.034,0,0.1,0.017,0.2,0.05c0.268,0,0.602,0,1,0C6.417-2.183,6.733-2.267,7-2.4c0.333-0.1,0.566-0.217,0.7-0.35
			C7.767-2.816,7.867-2.966,8-3.2c0.1-0.167,0.233-0.283,0.4-0.35c0.1-0.033,0.25-0.067,0.45-0.1c0.167-0.066,0.333-0.167,0.5-0.3
			c0.267-0.2,0.517-0.434,0.75-0.7c0.2-0.2,0.517-0.367,0.95-0.5c0.033-0.033,0.333-0.167,0.9-0.4c0.467-0.233,0.733-0.35,0.8-0.35
			c0.066,0,0.45,0.067,1.15,0.2c0.066,0,0.367-0.067,0.9-0.2s0.933-0.2,1.2-0.2c0.1,0.033,0.45,0.066,1.05,0.1
			c0.4,0,0.717-0.05,0.95-0.15c0.167-0.1,0.367-0.233,0.6-0.4c0.233-0.2,0.417-0.333,0.55-0.4c0.3-0.133,0.633-0.2,1-0.2
			c0.133,0,0.4,0,0.8,0c0.367,0.033,0.633,0.033,0.8,0c0.533-0.033,1.033-0.133,1.5-0.3c0.1-0.067,0.233-0.133,0.4-0.2
			c0.133-0.066,0.25-0.1,0.35-0.1c0.167-0.033,0.316-0.033,0.45,0c0.133,0.034,0.3,0.034,0.5,0c0.333,0,0.65-0.1,0.95-0.3
			c0.267-0.167,0.467-0.383,0.6-0.65c0.033-0.033,0.233-0.2,0.6-0.5c0.3-0.267,0.45-0.5,0.45-0.7c0-0.1-0.117-0.283-0.35-0.55
			c-0.267-0.3-0.4-0.567-0.4-0.8c0-0.133,0.05-0.25,0.15-0.35c0.033-0.067,0.133-0.15,0.3-0.25c0.3-0.267,0.45-0.717,0.45-1.35
			c0-0.333,0.233-0.617,0.7-0.85c0.133-0.067,0.333-0.167,0.6-0.3c0.233-0.133,0.4-0.25,0.5-0.35c0.133-0.133,0.283-0.35,0.45-0.65
			c0.1-0.167,0.217-0.35,0.35-0.55c0.3-0.6,0.617-1.017,0.95-1.25c0.5-0.433,1.216-0.75,2.15-0.95c0.167-0.034,0.333-0.15,0.5-0.35
			c-0.067,0.033-0.133,0.05-0.2,0.05c-0.167,0.033-0.417,0.033-0.75,0c-0.367-0.033-0.617-0.033-0.75,0
			c-0.767,0.167-1.45,0.483-2.05,0.95c0.1-0.1,0.2-0.217,0.3-0.35c0.3-0.333,0.45-0.667,0.45-1c-0.033-0.333-0.217-0.567-0.55-0.7
			c-0.1-0.033-0.216-0.05-0.35-0.05c-0.434-0.067-0.833-0.05-1.2,0.05c-0.3,0.1-0.85,0.25-1.65,0.45c-0.8,0.2-1.3,0.483-1.5,0.85
			c-0.233,0.367-0.35,0.9-0.35,1.6c0,0.7-0.017,1.083-0.05,1.15c-0.067,0.167-0.267,0.417-0.6,0.75c-0.233,0.2-0.333,0.467-0.3,0.8
			c0,0.067,0.083,0.217,0.25,0.45c0.167,0.267,0.267,0.433,0.3,0.5c-0.033,0.066-0.2,0.417-0.5,1.05c-0.367,0.567-0.583,0.9-0.65,1
			c-0.267,0.3-0.6,0.517-1,0.65c-0.4,0.1-0.617,0.184-0.65,0.25c-0.066,0.1-0.133,0.317-0.2,0.65c-0.033,0.233-0.1,0.4-0.2,0.5
			C21.466-8.617,21.233-8.466,21-8.4c-0.2,0.067-0.517,0.117-0.95,0.15c-0.2,0-0.383-0.033-0.55-0.1c-0.2-0.067-0.367-0.1-0.5-0.1
			c-0.067,0-0.184,0.066-0.35,0.2c-0.233,0.1-0.5,0.15-0.8,0.15c-0.333,0-0.583-0.05-0.75-0.15c-0.167-0.1-0.333-0.15-0.5-0.15
			l-0.25-0.05c-0.066,0.033-0.117,0.117-0.15,0.25c0,0.1,0.05,0.2,0.15,0.3c0.1,0.067,0.133,0.167,0.1,0.3
			c-0.2,0.033-0.5,0.066-0.9,0.1c-0.433,0.067-0.75,0.083-0.95,0.05c-0.033,0-0.35-0.083-0.95-0.25
			c-0.567-0.167-1.033-0.267-1.4-0.3c-0.167-0.033-0.35-0.05-0.55-0.05c-0.3,0-0.467,0.067-0.5,0.2c-0.033,0.1-0.066,0.316-0.1,0.65
			c-0.633-0.1-1.216-0.05-1.75,0.15C8.783-6.816,8.367-6.383,8.1-5.75C8.066-5.683,8.033-5.55,8-5.35C8-5.183,7.966-5.066,7.9-5
			C7.8-4.667,7.533-4.35,7.1-4.05C6.8-3.816,6.4-3.566,5.9-3.3C5.5-3.1,5.117-2.933,4.75-2.8C4.35-2.7,4-2.667,3.7-2.7
			c-0.533-0.033-1.05,0-1.55,0.1c-0.767,0.1-1.2,0.333-1.3,0.7C0.816-1.9,0.8-1.883,0.8-1.85z"/>
		<path style="fill-rule:evenodd;clip-rule:evenodd;fill:#FF8A4E;" d="M6.1-0.15c0.264-0.016,0.631-0.149,1.1-0.4
			c0.167-0.1,0.333-0.183,0.5-0.25C7.966-1,8.133-1.183,8.2-1.35C8.233-1.417,8.25-1.5,8.25-1.6C8.283-1.733,8.3-1.816,8.3-1.85
			C8.433-2.117,8.7-2.367,9.1-2.6c0.233-0.133,0.583-0.3,1.05-0.5c0.3-0.167,0.6-0.417,0.9-0.75c0.3-0.333,0.6-0.6,0.9-0.8
			c0.434-0.3,1.1-0.433,2-0.4c0.267,0,0.633,0.017,1.1,0.05c0.433,0,0.767-0.033,1-0.1v-0.05c-0.367-0.033-0.817-0.066-1.35-0.1
			c-0.433-0.033-0.967-0.066-1.6-0.1c-0.5-0.067-0.983,0.017-1.45,0.25c-0.434,0.233-0.867,0.6-1.3,1.1
			c-0.267,0.3-0.466,0.517-0.6,0.65C9.483-3.117,9.233-2.983,9-2.95c-0.1,0-0.3,0.1-0.6,0.3c-0.333,0.233-0.55,0.434-0.65,0.6
			C7.716-1.983,7.7-1.833,7.7-1.6v0.35c-0.033,0.133-0.167,0.233-0.4,0.3C7.033-0.883,6.867-0.833,6.8-0.8
			c-0.1,0-0.233,0.083-0.4,0.25C6.2-0.417,6.1-0.333,6.1-0.3C6.033-0.267,5.966-0.233,5.9-0.2c0.033,0,0.083,0.017,0.15,0.05H6.1z"
			/>
		<path style="fill-rule:evenodd;clip-rule:evenodd;fill:#AC0A00;" d="M28.8-19.5c0.333-0.2,0.567-0.316,0.7-0.35
			c0.033,0,0.133,0,0.3,0c0.133-0.034,0.233-0.05,0.3-0.05c0.067-0.033,0.167-0.083,0.3-0.15c0.066-0.033,0.133-0.067,0.2-0.1
			c-0.066,0-0.133-0.017-0.2-0.05c-0.667,0-1.167,0.05-1.5,0.15c-0.167,0.033-0.434,0.15-0.8,0.35l-0.55,0.25
			c-0.9,0.233-1.517,0.517-1.85,0.85c-0.066,0.1-0.15,0.216-0.25,0.35c0,0.027-0.008,0.043-0.025,0.05
			c-0.017,0.026-0.025,0.06-0.025,0.1c0,0.066-0.117,0.283-0.35,0.65s-0.35,0.6-0.35,0.7c0,0.133-0.033,0.383-0.1,0.75
			c-0.033,0.333-0.133,0.534-0.3,0.6c-0.3,0.133-0.517,0.233-0.65,0.3c-0.2,0.167-0.3,0.367-0.3,0.6c0,0.034,0.05,0.167,0.15,0.4
			c0.066,0.2,0.117,0.35,0.15,0.45c0,0.133-0.083,0.25-0.25,0.35c-0.167,0.1-0.283,0.283-0.35,0.55C23.017-12.583,23-12.367,23-12.1
			c0.033,0.267,0.033,0.45,0,0.55c-0.034,0.2-0.133,0.333-0.3,0.4c-0.066,0.067-0.25,0.117-0.55,0.15
			c-0.233,0.034-0.383,0.083-0.45,0.15c-0.1,0.1-0.117,0.267-0.05,0.5c-0.567-0.034-0.967-0.034-1.2,0
			c-0.4,0.066-0.55,0.283-0.45,0.65c-0.167-0.033-0.284-0.033-0.35,0c-0.067,0.033-0.1,0.1-0.1,0.2l0.2,0.3c0,0.066,0,0.133,0,0.2
			c-0.1,0-0.2,0-0.3,0c-0.066-0.033-0.183-0.083-0.35-0.15c-0.133-0.066-0.25-0.1-0.35-0.1c-0.133-0.033-0.217-0.017-0.25,0.05
			c-0.034,0.066-0.067,0.15-0.1,0.25c-0.1,0.066-0.2,0.1-0.3,0.1c-0.167-0.034-0.3-0.05-0.4-0.05c0,0.033,0.017,0.067,0.05,0.1
			c0.033,0.033,0.05,0.067,0.05,0.1c-0.033,0.133-0.1,0.2-0.2,0.2c-0.1-0.033-0.3-0.1-0.6-0.2c-0.333-0.1-0.583-0.15-0.75-0.15
			C16.117-8.883,16-8.867,15.9-8.8s-0.2,0.1-0.3,0.1c-0.033,0-0.1-0.017-0.2-0.05L15.25-8.8c-0.067-0.033-0.1-0.033-0.1,0
			c-0.067-0.033-0.15-0.033-0.25,0c-0.033,0.033-0.067,0.1-0.1,0.2c-0.033,0.167-0.117,0.267-0.25,0.3
			c-0.2,0.1-0.517,0.117-0.95,0.05c-0.167-0.033-0.417-0.1-0.75-0.2c-0.3-0.1-0.5-0.167-0.6-0.2c-0.067,0-0.15,0.033-0.25,0.1
			c-0.1,0.067-0.217,0.083-0.35,0.05c-0.033,0-0.1-0.017-0.2-0.05s-0.167-0.067-0.2-0.1c-0.9-0.133-1.9,0.033-3,0.5
			c-1.067,0.5-1.934,1.133-2.6,1.9c-0.567,0.633-1,1.117-1.3,1.45c-0.533,0.6-1,1.033-1.4,1.3c-0.1,0.067-0.3,0.15-0.6,0.25
			c-0.5,0.167-0.783,0.267-0.85,0.3c-0.667,0.267-1.083,0.533-1.25,0.8c0.133,0.1,0.283,0.2,0.45,0.3c0.033,0,0.067,0,0.1,0
			c0-0.034,0.017-0.05,0.05-0.05c0.1-0.367,0.534-0.6,1.3-0.7c0.5-0.1,1.017-0.133,1.55-0.1c0.3,0.033,0.65,0,1.05-0.1
			C5.117-2.933,5.5-3.1,5.9-3.3c0.5-0.267,0.9-0.517,1.2-0.75C7.533-4.35,7.8-4.667,7.9-5C7.966-5.066,8-5.183,8-5.35
			c0.033-0.2,0.066-0.333,0.1-0.4c0.267-0.633,0.684-1.066,1.25-1.3c0.534-0.2,1.117-0.25,1.75-0.15
			c0.034-0.333,0.067-0.55,0.1-0.65c0.033-0.133,0.2-0.2,0.5-0.2c0.2,0,0.383,0.017,0.55,0.05c0.367,0.034,0.833,0.133,1.4,0.3
			c0.6,0.167,0.917,0.25,0.95,0.25c0.2,0.033,0.517,0.017,0.95-0.05c0.4-0.033,0.7-0.066,0.9-0.1c0.033-0.133,0-0.233-0.1-0.3
			C16.25-8,16.2-8.1,16.2-8.2c0.033-0.133,0.083-0.217,0.15-0.25L16.6-8.4c0.167,0,0.333,0.05,0.5,0.15
			c0.167,0.1,0.417,0.15,0.75,0.15c0.3,0,0.567-0.05,0.8-0.15c0.167-0.133,0.283-0.2,0.35-0.2c0.133,0,0.3,0.033,0.5,0.1
			c0.167,0.066,0.35,0.1,0.55,0.1C20.483-8.283,20.8-8.333,21-8.4c0.233-0.066,0.466-0.217,0.7-0.45c0.1-0.1,0.167-0.267,0.2-0.5
			c0.066-0.333,0.133-0.55,0.2-0.65c0.034-0.066,0.25-0.15,0.65-0.25c0.4-0.133,0.733-0.35,1-0.65c0.066-0.1,0.283-0.433,0.65-1
			c0.3-0.633,0.467-0.983,0.5-1.05c-0.033-0.067-0.133-0.233-0.3-0.5c-0.167-0.233-0.25-0.383-0.25-0.45
			c-0.033-0.333,0.067-0.6,0.3-0.8c0.333-0.333,0.533-0.583,0.6-0.75c0.033-0.067,0.05-0.45,0.05-1.15c0-0.7,0.117-1.233,0.35-1.6
			c0.2-0.367,0.7-0.65,1.5-0.85C27.95-19.25,28.5-19.4,28.8-19.5z"/>
		<path style="fill-rule:evenodd;clip-rule:evenodd;fill:#DF5956;" d="M30.6-20.15c0.167,0,0.333,0,0.5,0
			c0.133,0,0.4-0.117,0.8-0.35c0.167-0.167,0.25-0.333,0.25-0.5c0-0.2-0.083-0.367-0.25-0.5c-0.2,0.1-0.367,0.167-0.5,0.2
			c-0.1,0.033-0.2,0.067-0.3,0.1c-0.2,0.066-0.417,0.117-0.65,0.15c-0.433,0.1-0.867,0.183-1.3,0.25
			c-0.434,0.033-0.85,0.083-1.25,0.15c-0.233,0.067-0.434,0.15-0.6,0.25c-0.467,0.233-0.9,0.467-1.3,0.7
			c-0.067,0.066-0.15,0.117-0.25,0.15c-0.1,0.067-0.2,0.15-0.3,0.25c-0.033,0.033-0.066,0.05-0.1,0.05
			c-0.033,0.034-0.066,0.067-0.1,0.1c-0.067,0.067-0.15,0.167-0.25,0.3c-0.1,0.133-0.217,0.267-0.35,0.4s-0.233,0.267-0.3,0.4
			c-0.066,0.133-0.167,0.267-0.3,0.4c-0.367,0.434-0.767,0.85-1.2,1.25c-0.533,0.5-0.867,1.1-1,1.8
			c-0.033,0.167-0.066,0.35-0.1,0.55c-0.267,0.967-0.767,1.7-1.5,2.2c-0.167,0.133-0.35,0.216-0.55,0.25
			c-0.233,0-0.467-0.017-0.7-0.05c-0.233,0-0.383,0.117-0.45,0.35c-0.033,0.167-0.083,0.317-0.15,0.45
			c-0.167,0.4-0.45,0.716-0.85,0.95c-0.367,0.2-0.783,0.233-1.25,0.1c-0.067-0.033-0.117-0.033-0.15,0c-0.1,0-0.184,0.033-0.25,0.1
			c-0.133,0.033-0.267,0.066-0.4,0.1c-0.2,0.066-0.4,0.083-0.6,0.05c-0.1,0-0.2,0.017-0.3,0.05C14.3-9.466,14.1-9.3,14-9
			c-0.034,0.067-0.1,0.117-0.2,0.15C13.5-8.783,13.2-8.833,12.9-9c-0.267-0.2-0.55-0.316-0.85-0.35
			c-0.067,0.033-0.117,0.066-0.15,0.1c-0.2,0.133-0.417,0.167-0.65,0.1c-0.4-0.133-0.784-0.2-1.15-0.2
			c-0.2,0.033-0.417,0.066-0.65,0.1C8.95-9.117,8.466-8.95,8-8.75C7.566-8.583,7.183-8.333,6.85-8c-0.2,0.167-0.4,0.333-0.6,0.5
			c-0.3,0.267-0.6,0.534-0.9,0.8C4.583-6,3.867-5.233,3.2-4.4C2.133-3.9,1.1-3.35,0.1-2.75c0,0.067,0,0.117,0,0.15
			C0.066-2.433,0.117-2.283,0.25-2.15c0.167-0.267,0.583-0.533,1.25-0.8c0.066-0.033,0.35-0.133,0.85-0.3
			c0.3-0.1,0.5-0.183,0.6-0.25c0.4-0.267,0.867-0.7,1.4-1.3c0.3-0.333,0.733-0.817,1.3-1.45c0.667-0.767,1.533-1.4,2.6-1.9
			c1.1-0.467,2.1-0.633,3-0.5c0.033,0.033,0.1,0.067,0.2,0.1s0.167,0.05,0.2,0.05C11.783-8.466,11.9-8.483,12-8.55
			c0.1-0.067,0.183-0.1,0.25-0.1c0.1,0.033,0.3,0.1,0.6,0.2c0.333,0.1,0.583,0.167,0.75,0.2c0.434,0.067,0.75,0.05,0.95-0.05
			c0.133-0.033,0.217-0.133,0.25-0.3c0.033-0.1,0.067-0.167,0.1-0.2c0-0.033,0.133-0.117,0.4-0.25c0.233-0.1,0.3-0.283,0.2-0.55
			c0.2,0.333,0.6,0.483,1.2,0.45c0.633-0.066,1.2-0.35,1.7-0.85c0.467-0.5,0.783-0.767,0.95-0.8c0.167,0,0.35,0,0.55,0
			c0.566-0.033,1.133-0.283,1.7-0.75c0.6-0.533,0.983-1.15,1.15-1.85c0-0.033,0.017-0.383,0.05-1.05c0.033-0.4,0.167-0.684,0.4-0.85
			c0.033-0.033,0.184-0.1,0.45-0.2c0.233-0.1,0.316-0.283,0.25-0.55c-0.1-0.267-0.083-0.467,0.05-0.6s0.3-0.267,0.5-0.4
			c0.167-0.1,0.417-0.383,0.75-0.85c0.067-0.133,0.133-0.233,0.2-0.3h0.025c0.017-0.007,0.025-0.023,0.025-0.05
			c0.1-0.133,0.184-0.25,0.25-0.35c0.333-0.333,0.95-0.617,1.85-0.85l0.55-0.25c0.367-0.2,0.633-0.317,0.8-0.35
			c0.333-0.1,0.833-0.15,1.5-0.15C30.466-20.167,30.533-20.15,30.6-20.15z"/>
		<path style="fill-rule:evenodd;clip-rule:evenodd;fill:#D34F42;" d="M2.15-1.4c-0.033-0.066-0.033-0.133,0-0.2
			c0-0.067,0.05-0.117,0.15-0.15c0.067-0.066,0.15-0.1,0.25-0.1l0.3,0.1c0.167,0.034,0.284,0.067,0.35,0.1
			c0.233,0,0.567-0.066,1-0.2C4.5-1.95,4.767-2,5-2L4.95-2.05C5.017-2.083,5.083-2.1,5.15-2.1c-0.032-0.033-0.066-0.049-0.1-0.05
			C4.95-2.183,4.883-2.2,4.85-2.2c-0.2,0-0.466,0.033-0.8,0.1C3.65-2.033,3.333-1.983,3.1-1.95c-0.367-0.067-0.633-0.1-0.8-0.1
			c-0.367,0.033-0.6,0.2-0.7,0.5C1.8-1.483,1.983-1.433,2.15-1.4z"/>
	</g>
</symbol>
<use xlink:href="#bacobit1"  width="39.413" height="22.06" y="-22.05" transform="matrix(1 0 0 -1 3.1001 4.25)" style="overflow:visible;"/>
</svg>
