<?xml version="1.0" encoding="iso-8859-1"?>
<!-- Generator: Adobe Illustrator 15.1.0, SVG Export Plug-In . SVG Version: 6.00 Build 0)  -->
<!DOCTYPE svg PUBLIC "-//W3C//DTD SVG 1.1//EN" "http://www.w3.org/Graphics/SVG/1.1/DTD/svg11.dtd">
<svg version="1.1" id="flash0.ai" xmlns="http://www.w3.org/2000/svg" xmlns:xlink="http://www.w3.org/1999/xlink" x="0px" y="0px"
	 width="57.5px" height="34.9px" viewBox="0 0 57.5 34.9" style="enable-background:new 0 0 57.5 34.9;" xml:space="preserve">
<symbol  id="bun4" viewBox="2.993 -34.318 51.889 30.9">
	<g id="Layer_2_2_">
		<g>
			
				<linearGradient id="SVGID_1_" gradientUnits="userSpaceOnUse" x1="-2976.5439" y1="-5288.5049" x2="-2956.8423" y2="-5288.5049" gradientTransform="matrix(0.4109 -0.242 0.2421 0.4108 2531.9063 1441.8291)">
				<stop  offset="0" style="stop-color:#FDCB53"/>
				<stop  offset="1" style="stop-color:#D48801"/>
			</linearGradient>
			<path style="fill-rule:evenodd;clip-rule:evenodd;fill:url(#SVGID_1_);" d="M34.812-8.386c1.717-1.239,2.639-2.599,2.767-4.077
				c0.111-1.271-0.541-2.265-1.956-2.98c-0.906-0.445-2.083-0.763-3.529-0.954c-1.51-0.19-2.854-0.04-4.03,0.453
				c-0.922,0.381-1.542,0.851-1.86,1.407c0.207,0.842,0.524,1.756,0.954,2.742c0.875,1.971,1.884,3.33,3.029,4.077
				C31.489-6.875,33.031-7.098,34.812-8.386z"/>
			<path style="fill-rule:evenodd;clip-rule:evenodd;fill:#C98000;" d="M37.101-11.127l0.143-0.143
				c0.175-0.429,0.286-0.826,0.334-1.192c0.111-1.271-0.541-2.265-1.956-2.98c-0.906-0.445-2.083-0.763-3.529-0.954
				c-1.51-0.19-2.854-0.04-4.03,0.453c-0.922,0.381-1.542,0.851-1.86,1.407c0.191,0.779,0.485,1.637,0.882,2.575
				c0.811,1.86,1.741,3.195,2.79,4.006c0.254,0.095,0.389,0.095,0.405,0c0.016-0.08,0.063-0.358,0.143-0.834
				c0.397-1.32,0.247-2.384-0.453-3.195c-0.35-0.397-0.739-0.667-1.168-0.811l-0.048-0.333c0-0.271,0.064-0.509,0.191-0.715
				c0.461-0.636,1.558-0.834,3.291-0.596c1.94,0.254,3.331,0.882,4.173,1.883C36.839-12.049,37.069-11.572,37.101-11.127z"/>
			<path style="fill-rule:evenodd;clip-rule:evenodd;fill:#A86F0D;" d="M37.578-12.462c0.111-1.271-0.541-2.265-1.956-2.98
				c-0.906-0.445-2.083-0.763-3.529-0.954c-2.051-0.27-3.736,0.063-5.055,1.001c1.908-0.731,3.847-0.874,5.818-0.429
				c1.097,0.239,2.051,0.667,2.862,1.288c0.985,0.763,1.51,1.653,1.574,2.67l0.047,0.333C37.451-11.803,37.53-12.113,37.578-12.462z
				"/>
			<path style="fill-rule:evenodd;clip-rule:evenodd;fill:#EDE2AD;" d="M23.557-9.387c0.97,0.429,2.011,0.794,3.124,1.097
				c2.194,0.636,3.617,0.667,4.268,0.095c0.811-0.715,0.684-1.923-0.381-3.624c-1.081-1.701-2.281-2.424-3.601-2.169
				c-2.242,0.445-3.561,0.747-3.958,0.906c-1.001,0.397-1.495,1.073-1.479,2.026c0.032,0.842,0.262,1.295,0.691,1.359
				C23.016-9.569,23.461-9.466,23.557-9.387z"/>
			
				<linearGradient id="SVGID_2_" gradientUnits="userSpaceOnUse" x1="-1213.0908" y1="-14857.4258" x2="-1202.0391" y2="-14857.4258" gradientTransform="matrix(0.0788 -0.4703 0.4704 0.0787 7109.7461 590.7188)">
				<stop  offset="0" style="stop-color:#FDCB53"/>
				<stop  offset="1" style="stop-color:#D48801"/>
			</linearGradient>
			<path style="fill-rule:evenodd;clip-rule:evenodd;fill:url(#SVGID_2_);" d="M23.008-14.012c-1.335,0.811-1.987,1.796-1.955,2.957
				c0.016,0.667,0.135,1.184,0.357,1.55c0.159,0.302,0.421,0.572,0.787,0.811c0.429,0.254,0.747,0.461,0.954,0.62l3.076,0.453
				c2.178,0.19,3.593,0,4.245-0.572c0.779-0.699,0.818-1.74,0.119-3.123c-0.715-1.399-1.828-2.424-3.338-3.076
				C25.822-15.014,24.407-14.886,23.008-14.012z"/>
			
				<linearGradient id="SVGID_3_" gradientUnits="userSpaceOnUse" x1="10753.8223" y1="-19387.4688" x2="10772.0596" y2="-19387.4688" gradientTransform="matrix(-0.4047 -0.2523 0.2524 -0.4046 9274.4443 -5139.8076)">
				<stop  offset="0" style="stop-color:#D69211"/>
				<stop  offset="1" style="stop-color:#C98000"/>
			</linearGradient>
			<path style="fill-rule:evenodd;clip-rule:evenodd;fill:url(#SVGID_3_);" d="M27.253-14.394c-1.431-0.62-2.846-0.493-4.245,0.381
				c-1.335,0.811-1.987,1.796-1.955,2.957c0,0.063,0.023,0.31,0.071,0.739c0.191-1.923,1.47-2.964,3.839-3.123
				c1.447-0.111,2.79,0.254,4.03,1.097c1.208,0.811,1.908,1.765,2.098,2.861c-0.047-1.176-0.58-2.281-1.598-3.314
				C28.763-13.527,28.016-14.06,27.253-14.394z"/>
			<path style="fill-rule:evenodd;clip-rule:evenodd;fill:#EDE2AD;" d="M27.968-4.618c0.493-0.032,1.049-0.612,1.669-1.741
				c0.318-0.556,0.58-1.113,0.787-1.669c0.159-0.016,0.191-0.063,0.095-0.143c-0.175-0.143-0.882-0.374-2.122-0.691
				c-1.59-0.397-3.076-0.524-4.459-0.381l-1.622,0.357c-0.207,0.207-0.318,0.493-0.334,0.858c0,0.715,0.524,1.43,1.574,2.146
				c0.699,0.477,1.646,0.827,2.838,1.049C26.982-4.706,27.507-4.634,27.968-4.618z"/>
			
				<linearGradient id="SVGID_4_" gradientUnits="userSpaceOnUse" x1="-3234.3682" y1="-6509.0083" x2="-3225.1682" y2="-6509.0083" gradientTransform="matrix(0.3823 -0.2851 0.2851 0.3822 3117.2583 1559.377)">
				<stop  offset="0" style="stop-color:#FDCB53"/>
				<stop  offset="1" style="stop-color:#D48801"/>
			</linearGradient>
			<path style="fill-rule:evenodd;clip-rule:evenodd;fill:url(#SVGID_4_);" d="M27.73-4.571c0.493-0.016,1.335-0.485,2.527-1.407
				c0.604-0.461,1.152-0.922,1.646-1.383c-0.397-0.302-1.59-0.699-3.577-1.192c-1.59-0.397-3.148-0.588-4.674-0.572L21.84-8.981
				c-0.175,0.238-0.247,0.548-0.215,0.93c0.08,0.779,0.644,1.526,1.693,2.241C24.018-5.35,24.963-5,26.156-4.762
				C26.744-4.65,27.269-4.587,27.73-4.571z"/>
			<path style="fill-rule:evenodd;clip-rule:evenodd;fill:#EDE2AD;" d="M34.144-5.596c-0.985-0.111-1.741-0.35-2.265-0.715
				c-0.525-0.381-0.954-0.818-1.288-1.311c-0.175-0.238-0.294-0.445-0.358-0.62c-0.97,0.731-1.732,1.391-2.289,1.979
				c-0.477,0.525-0.66,0.97-0.548,1.335c0.159,0.445,0.794,0.795,1.908,1.049c1.637,0.381,3.155,0.215,4.554-0.5
				c0.7-0.35,1.232-0.739,1.598-1.168C35.074-5.532,34.637-5.548,34.144-5.596z"/>
			
				<linearGradient id="SVGID_5_" gradientUnits="userSpaceOnUse" x1="27.3838" y1="-23.291" x2="44.3505" y2="-23.291" gradientTransform="matrix(0.4769 0 0 0.4768 14.3999 5.2998)">
				<stop  offset="0" style="stop-color:#FDCB53"/>
				<stop  offset="1" style="stop-color:#D48801"/>
			</linearGradient>
			<path style="fill-rule:evenodd;clip-rule:evenodd;fill:url(#SVGID_5_);" d="M34.24-5.333c-0.986-0.111-1.741-0.35-2.266-0.715
				c-0.524-0.382-0.93-0.851-1.216-1.407c-0.143-0.286-0.238-0.533-0.286-0.739c-1.065,0.874-1.876,1.605-2.433,2.193
				c-0.477,0.524-0.66,0.97-0.548,1.335c0.159,0.445,0.795,0.794,1.908,1.049c1.637,0.382,3.156,0.215,4.555-0.5
				c0.699-0.35,1.232-0.739,1.598-1.168C35.169-5.27,34.732-5.286,34.24-5.333z"/>
			<path style="fill-rule:evenodd;clip-rule:evenodd;fill:#EDE2AD;" d="M35.909-5.333c1.351-0.588,2.353-1.709,3.004-3.362
				c0.493-1.288,0.469-2.217-0.071-2.79l-0.954-0.477c0.063,0.541,0.023,1.113-0.12,1.717c-0.286,1.176-0.938,1.875-1.955,2.098
				c-1.59,0.35-2.997,0.469-4.221,0.357l-1.359-0.262c-0.032,0.223,0.024,0.485,0.167,0.787c0.254,0.636,0.779,1.192,1.574,1.669
				C33.278-4.833,34.589-4.746,35.909-5.333z"/>
			
				<linearGradient id="SVGID_6_" gradientUnits="userSpaceOnUse" x1="33.7251" y1="-30.0874" x2="53.2751" y2="-30.0874" gradientTransform="matrix(0.4769 0 0 0.4768 14.3999 5.2998)">
				<stop  offset="0" style="stop-color:#FDCB53"/>
				<stop  offset="1" style="stop-color:#D48801"/>
			</linearGradient>
			<path style="fill-rule:evenodd;clip-rule:evenodd;fill:url(#SVGID_6_);" d="M36.338-5.238c1.495-0.477,2.56-1.526,3.195-3.147
				c0.493-1.271,0.31-2.439-0.548-3.504c-0.429-0.541-0.914-0.946-1.455-1.216c-0.048,0.477-0.183,1.018-0.405,1.622
				c-0.445,1.192-1.113,2.058-2.003,2.599c-1.24,0.747-2.385,1.089-3.434,1.025l-1.216-0.334c-0.032,0.223,0.023,0.485,0.167,0.787
				c0.254,0.635,0.779,1.184,1.574,1.645C33.548-4.952,34.923-4.777,36.338-5.238z"/>
			<path style="fill-rule:evenodd;clip-rule:evenodd;fill:#C98000;" d="M37.53-13.106c-0.048,0.525-0.191,1.097-0.429,1.717
				c0.811,0.334,1.367,0.851,1.669,1.55c0.397,0.985,0.278,2.066-0.358,3.242c0.461-0.493,0.834-1.088,1.121-1.788
				c0.493-1.271,0.31-2.439-0.548-3.504C38.556-12.431,38.071-12.836,37.53-13.106z"/>
			<path style="fill-rule:evenodd;clip-rule:evenodd;fill:#A86F0D;" d="M39.7-8.862c0.286-1.145,0.008-2.193-0.834-3.147
				c-0.414-0.477-0.858-0.843-1.335-1.097c-0.032,0.334-0.119,0.724-0.262,1.168c0.238,0,0.524,0.087,0.858,0.262
				c0.445,0.254,0.842,0.644,1.192,1.168C39.542-10.174,39.668-9.625,39.7-8.862z"/>
			<path style="fill-rule:evenodd;clip-rule:evenodd;fill:#EDE2AD;" d="M35.646-8.934c0.445-0.35,0.819-0.818,1.121-1.406
				c0.302-0.588,0.453-1.121,0.453-1.598c-0.016,0.493-0.246,1.065-0.691,1.717c-0.414,0.636-0.819,1.065-1.216,1.287
				c-1.367,0.731-2.583,1.073-3.648,1.025l-1.192-0.286c-0.175-0.08-0.255-0.047-0.239,0.095c0.827,0.414,1.733,0.533,2.718,0.358
				C33.906-7.885,34.804-8.282,35.646-8.934z"/>
			<path style="fill-rule:evenodd;clip-rule:evenodd;fill:#EDE2AD;" d="M30.353-7.837c0.27,0.032,0.5,0.04,0.691,0.023
				c0.207-0.016,0.262-0.047,0.167-0.095c-0.27-0.111-0.389-0.254-0.357-0.429c0-0.08-0.056-0.095-0.167-0.048
				c-0.223,0.096-0.541,0.08-0.954-0.047l-0.155-0.06c0.127,0.061,0.234,0.16,0.322,0.298l0.167,0.262
				C30.114-7.933,30.209-7.9,30.353-7.837z"/>
			<path style="fill-rule:evenodd;clip-rule:evenodd;fill:#EDE2AD;" d="M25.655-5.691c0.445,0.048,0.684-0.08,0.715-0.381
				c0.016-0.318-0.263-0.469-0.834-0.453c-0.35,0.016-0.477,0.151-0.382,0.405C25.234-5.866,25.401-5.723,25.655-5.691z"/>
			<path style="fill-rule:evenodd;clip-rule:evenodd;fill:#EDE2AD;" d="M31.855-4.142c0.525-0.095,0.652-0.254,0.381-0.477
				c-0.27-0.223-0.556-0.271-0.858-0.144c-0.254,0.096-0.302,0.23-0.143,0.405C31.41-4.181,31.617-4.11,31.855-4.142z"/>
			<path style="fill-rule:evenodd;clip-rule:evenodd;fill:#EDE2AD;" d="M37.077-6.264c0.445-0.111,0.557-0.294,0.334-0.548
				c-0.223-0.238-0.469-0.207-0.739,0.095c-0.143,0.159-0.175,0.286-0.095,0.382C36.64-6.224,36.807-6.2,37.077-6.264z"/>
			<path style="fill-rule:evenodd;clip-rule:evenodd;fill:#EDE2AD;" d="M33.763-6.955c0.524,0.032,0.755-0.103,0.691-0.405
				c-0.063-0.318-0.35-0.381-0.858-0.191c-0.238,0.096-0.342,0.215-0.31,0.358S33.477-6.971,33.763-6.955z"/>
			<path style="fill-rule:evenodd;clip-rule:evenodd;fill:#EDE2AD;" d="M29.446-9.602c0.318-0.079,0.406-0.246,0.263-0.5
				s-0.382-0.405-0.715-0.453c-0.318-0.032-0.517-0.008-0.596,0.072s-0.087,0.23-0.024,0.453c0.048,0.175,0.207,0.302,0.477,0.382
				C29.089-9.569,29.288-9.554,29.446-9.602z"/>
		</g>
		<g>
			
				<linearGradient id="SVGID_7_" gradientUnits="userSpaceOnUse" x1="-2976.5439" y1="-5288.5039" x2="-2956.8423" y2="-5288.5039" gradientTransform="matrix(0.5148 -0.3032 0.3033 0.5147 3176.96 1801.9834)">
				<stop  offset="0" style="stop-color:#FDCB53"/>
				<stop  offset="1" style="stop-color:#D48801"/>
			</linearGradient>
			<path style="fill-rule:evenodd;clip-rule:evenodd;fill:url(#SVGID_7_);" d="M48.621-14.845c2.151-1.553,3.307-3.255,3.466-5.107
				c0.139-1.593-0.677-2.837-2.45-3.733c-1.135-0.558-2.609-0.956-4.421-1.195c-1.892-0.239-3.575-0.05-5.049,0.567
				c-1.155,0.478-1.932,1.065-2.33,1.762c0.259,1.055,0.657,2.201,1.195,3.435c1.096,2.469,2.36,4.172,3.794,5.108
				C44.459-12.953,46.391-13.232,48.621-14.845z"/>
			<path style="fill-rule:evenodd;clip-rule:evenodd;fill:#C98000;" d="M51.489-18.28l0.179-0.179
				c0.219-0.538,0.358-1.036,0.418-1.494c0.139-1.593-0.677-2.837-2.45-3.733c-1.135-0.558-2.609-0.956-4.421-1.195
				c-1.892-0.239-3.575-0.05-5.049,0.567c-1.155,0.478-1.932,1.065-2.33,1.762c0.239,0.976,0.607,2.051,1.105,3.226
				c1.016,2.33,2.181,4.003,3.495,5.019c0.319,0.119,0.488,0.119,0.508,0c0.02-0.1,0.08-0.448,0.179-1.045
				c0.498-1.653,0.309-2.987-0.567-4.002c-0.438-0.498-0.926-0.836-1.464-1.016l-0.06-0.418c0-0.338,0.08-0.637,0.239-0.896
				c0.578-0.796,1.952-1.045,4.123-0.747c2.43,0.318,4.172,1.105,5.228,2.359C51.161-19.435,51.449-18.837,51.489-18.28z"/>
			<path style="fill-rule:evenodd;clip-rule:evenodd;fill:#A86F0D;" d="M52.087-19.953c0.139-1.593-0.677-2.837-2.45-3.733
				c-1.135-0.558-2.609-0.956-4.421-1.195c-2.569-0.339-4.68,0.08-6.333,1.254c2.39-0.916,4.819-1.095,7.289-0.538
				c1.374,0.299,2.569,0.836,3.585,1.613c1.234,0.956,1.892,2.071,1.972,3.345l0.06,0.418
				C51.928-19.126,52.027-19.515,52.087-19.953z"/>
			<path style="fill-rule:evenodd;clip-rule:evenodd;fill:#EDE2AD;" d="M34.521-16.1c1.215,0.538,2.52,0.996,3.914,1.374
				c2.749,0.797,4.531,0.836,5.348,0.12c1.015-0.896,0.856-2.41-0.479-4.54c-1.354-2.131-2.858-3.037-4.511-2.718
				c-2.808,0.558-4.461,0.936-4.959,1.135c-1.254,0.498-1.872,1.344-1.852,2.539c0.04,1.056,0.329,1.623,0.866,1.703
				C33.844-16.328,34.401-16.199,34.521-16.1z"/>
			
				<linearGradient id="SVGID_8_" gradientUnits="userSpaceOnUse" x1="-1213.0908" y1="-14857.4258" x2="-1202.0391" y2="-14857.4258" gradientTransform="matrix(0.0987 -0.5892 0.5893 0.0986 8912.0391 735.7129)">
				<stop  offset="0" style="stop-color:#FDCB53"/>
				<stop  offset="1" style="stop-color:#D48801"/>
			</linearGradient>
			<path style="fill-rule:evenodd;clip-rule:evenodd;fill:url(#SVGID_8_);" d="M32.818-15.233c0.538,0.318,0.936,0.578,1.195,0.777
				l3.854,0.567c2.729,0.239,4.501,0,5.318-0.717c0.976-0.876,1.025-2.181,0.149-3.913c-0.896-1.752-2.291-3.037-4.183-3.853
				c-1.792-0.776-3.565-0.617-5.317,0.478c-1.673,1.016-2.49,2.25-2.45,3.704c0.02,0.836,0.169,1.483,0.448,1.942
				C32.032-15.871,32.36-15.532,32.818-15.233z"/>
			
				<linearGradient id="SVGID_9_" gradientUnits="userSpaceOnUse" x1="10753.8223" y1="-19387.4688" x2="10772.0596" y2="-19387.4688" gradientTransform="matrix(-0.507 -0.3161 0.3161 -0.5069 11623.9541 -6443.4907)">
				<stop  offset="0" style="stop-color:#D69211"/>
				<stop  offset="1" style="stop-color:#C98000"/>
			</linearGradient>
			<path style="fill-rule:evenodd;clip-rule:evenodd;fill:url(#SVGID_9_);" d="M39.151-22.372c-1.792-0.776-3.565-0.617-5.317,0.478
				c-1.673,1.016-2.49,2.25-2.45,3.704c0,0.08,0.03,0.389,0.09,0.926c0.239-2.41,1.842-3.714,4.81-3.913
				c1.812-0.139,3.495,0.319,5.049,1.374c1.513,1.016,2.39,2.21,2.628,3.584c-0.06-1.474-0.727-2.857-2.001-4.152
				C41.043-21.287,40.107-21.954,39.151-22.372z"/>
			<path style="fill-rule:evenodd;clip-rule:evenodd;fill:#EDE2AD;" d="M40.048-10.125c0.617-0.04,1.314-0.767,2.091-2.181
				c0.398-0.697,0.727-1.394,0.985-2.091c0.199-0.02,0.239-0.08,0.12-0.179c-0.219-0.179-1.105-0.468-2.659-0.866
				c-1.992-0.498-3.854-0.657-5.586-0.478l-2.031,0.448c-0.259,0.259-0.398,0.617-0.418,1.075c0,0.896,0.657,1.792,1.972,2.688
				c0.876,0.598,2.061,1.036,3.555,1.314C38.813-10.235,39.47-10.146,40.048-10.125z"/>
			
				<linearGradient id="SVGID_10_" gradientUnits="userSpaceOnUse" x1="-3234.3682" y1="-6509.0078" x2="-3225.1682" y2="-6509.0078" gradientTransform="matrix(0.479 -0.3571 0.3572 0.4789 3910.2842 1949.248)">
				<stop  offset="0" style="stop-color:#FDCB53"/>
				<stop  offset="1" style="stop-color:#D48801"/>
			</linearGradient>
			<path style="fill-rule:evenodd;clip-rule:evenodd;fill:url(#SVGID_10_);" d="M37.777-10.305c0.737,0.14,1.394,0.219,1.972,0.239
				c0.617-0.02,1.673-0.607,3.167-1.762c0.757-0.578,1.444-1.155,2.062-1.732c-0.498-0.378-1.992-0.876-4.481-1.493
				c-1.992-0.498-3.943-0.737-5.855-0.717l-2.271,0.179c-0.219,0.299-0.309,0.687-0.269,1.165c0.1,0.976,0.807,1.912,2.122,2.808
				C35.099-11.042,36.284-10.604,37.777-10.305z"/>
			<path style="fill-rule:evenodd;clip-rule:evenodd;fill:#EDE2AD;" d="M47.785-11.351c-1.234-0.139-2.181-0.438-2.838-0.896
				c-0.657-0.478-1.195-1.025-1.613-1.643c-0.219-0.299-0.369-0.558-0.448-0.776c-1.215,0.916-2.171,1.742-2.868,2.479
				c-0.597,0.657-0.826,1.214-0.687,1.672c0.199,0.558,0.996,0.996,2.39,1.314c2.051,0.478,3.953,0.269,5.706-0.627
				c0.876-0.438,1.543-0.926,2.001-1.464C48.95-11.271,48.402-11.291,47.785-11.351z"/>
			
				<linearGradient id="SVGID_11_" gradientUnits="userSpaceOnUse" x1="27.3838" y1="-23.291" x2="44.3496" y2="-23.291" gradientTransform="matrix(0.5975 0 0 0.5974 23.0498 2.2998)">
				<stop  offset="0" style="stop-color:#FDCB53"/>
				<stop  offset="1" style="stop-color:#D48801"/>
			</linearGradient>
			<path style="fill-rule:evenodd;clip-rule:evenodd;fill:url(#SVGID_11_);" d="M47.904-11.021c-1.235-0.14-2.181-0.438-2.838-0.896
				c-0.657-0.479-1.165-1.066-1.523-1.763c-0.179-0.358-0.299-0.667-0.358-0.926c-1.334,1.095-2.35,2.011-3.047,2.748
				c-0.597,0.657-0.826,1.215-0.687,1.673c0.199,0.558,0.996,0.996,2.39,1.314c2.051,0.478,3.953,0.269,5.706-0.627
				c0.876-0.438,1.543-0.926,2.001-1.463C49.069-10.942,48.522-10.962,47.904-11.021z"/>
			<path style="fill-rule:evenodd;clip-rule:evenodd;fill:#EDE2AD;" d="M49.996-11.021c1.693-0.737,2.947-2.141,3.764-4.212
				c0.617-1.613,0.587-2.778-0.09-3.495l-1.195-0.598c0.08,0.677,0.03,1.394-0.149,2.151c-0.358,1.474-1.175,2.35-2.45,2.628
				c-1.991,0.438-3.754,0.587-5.288,0.448l-1.703-0.329c-0.04,0.279,0.03,0.607,0.209,0.985c0.319,0.797,0.976,1.494,1.972,2.091
				C46.7-10.395,48.343-10.285,49.996-11.021z"/>
			
				<linearGradient id="SVGID_12_" gradientUnits="userSpaceOnUse" x1="33.7251" y1="-30.0874" x2="53.2751" y2="-30.0874" gradientTransform="matrix(0.5975 0 0 0.5974 23.0498 2.2998)">
				<stop  offset="0" style="stop-color:#FDCB53"/>
				<stop  offset="1" style="stop-color:#D48801"/>
			</linearGradient>
			<path style="fill-rule:evenodd;clip-rule:evenodd;fill:url(#SVGID_12_);" d="M50.533-10.902c1.872-0.597,3.207-1.912,4.003-3.943
				c0.617-1.593,0.388-3.057-0.688-4.391c-0.538-0.677-1.145-1.185-1.822-1.523c-0.06,0.598-0.229,1.274-0.508,2.031
				c-0.558,1.493-1.394,2.579-2.509,3.256c-1.553,0.936-2.987,1.364-4.302,1.284l-1.523-0.418c-0.04,0.279,0.03,0.607,0.209,0.986
				c0.319,0.796,0.976,1.483,1.972,2.061C47.038-10.544,48.761-10.325,50.533-10.902z"/>
			<path style="fill-rule:evenodd;clip-rule:evenodd;fill:#C98000;" d="M52.027-20.759c-0.06,0.657-0.239,1.375-0.538,2.151
				c1.016,0.418,1.713,1.065,2.091,1.941c0.498,1.235,0.348,2.589-0.448,4.062c0.578-0.617,1.045-1.364,1.404-2.24
				c0.617-1.593,0.388-3.057-0.688-4.391C53.312-19.913,52.704-20.42,52.027-20.759z"/>
			<path style="fill-rule:evenodd;clip-rule:evenodd;fill:#A86F0D;" d="M54.746-15.442c0.358-1.434,0.01-2.748-1.046-3.942
				c-0.518-0.598-1.075-1.056-1.673-1.375c-0.04,0.418-0.149,0.906-0.328,1.464c0.298,0,0.657,0.109,1.075,0.329
				c0.558,0.318,1.056,0.806,1.494,1.463C54.546-17.085,54.706-16.398,54.746-15.442z"/>
			<path style="fill-rule:evenodd;clip-rule:evenodd;fill:#EDE2AD;" d="M49.667-15.532c0.558-0.438,1.025-1.025,1.404-1.762
				c0.378-0.737,0.568-1.404,0.568-2.001c-0.02,0.617-0.309,1.334-0.866,2.15c-0.518,0.796-1.026,1.334-1.523,1.613
				c-1.713,0.916-3.237,1.344-4.571,1.285l-1.494-0.358c-0.219-0.1-0.319-0.06-0.299,0.119c1.036,0.518,2.171,0.667,3.405,0.448
				C47.486-14.218,48.611-14.716,49.667-15.532z"/>
			<path style="fill-rule:evenodd;clip-rule:evenodd;fill:#EDE2AD;" d="M43.035-14.158c0.338,0.04,0.627,0.049,0.866,0.03
				c0.259-0.02,0.329-0.06,0.209-0.12c-0.338-0.139-0.488-0.319-0.448-0.538c0-0.1-0.07-0.12-0.209-0.06
				c-0.279,0.12-0.677,0.1-1.195-0.06l-0.194-0.075c0.159,0.076,0.293,0.201,0.403,0.374l0.209,0.329
				C42.736-14.277,42.856-14.237,43.035-14.158z"/>
			<path style="fill-rule:evenodd;clip-rule:evenodd;fill:#EDE2AD;" d="M37.15-11.47c0.558,0.06,0.856-0.1,0.896-0.478
				c0.02-0.398-0.329-0.587-1.046-0.567c-0.438,0.02-0.597,0.189-0.478,0.508C36.622-11.689,36.832-11.51,37.15-11.47z"/>
			<path style="fill-rule:evenodd;clip-rule:evenodd;fill:#EDE2AD;" d="M44.917-9.528c0.657-0.12,0.817-0.319,0.478-0.597
				c-0.338-0.279-0.697-0.339-1.075-0.18c-0.319,0.12-0.378,0.289-0.18,0.508C44.359-9.578,44.618-9.488,44.917-9.528z"/>
			<path style="fill-rule:evenodd;clip-rule:evenodd;fill:#EDE2AD;" d="M51.459-12.187c0.558-0.14,0.697-0.369,0.418-0.687
				c-0.279-0.299-0.587-0.259-0.926,0.119c-0.179,0.199-0.219,0.358-0.12,0.478C50.912-12.137,51.121-12.107,51.459-12.187z"/>
			<path style="fill-rule:evenodd;clip-rule:evenodd;fill:#EDE2AD;" d="M47.307-13.053c0.657,0.04,0.946-0.129,0.866-0.508
				c-0.08-0.398-0.438-0.478-1.076-0.239c-0.298,0.12-0.428,0.269-0.388,0.448C46.749-13.172,46.948-13.073,47.307-13.053z"/>
			<path style="fill-rule:evenodd;clip-rule:evenodd;fill:#EDE2AD;" d="M41.9-16.368c0.398-0.1,0.508-0.309,0.329-0.627
				s-0.478-0.508-0.896-0.567c-0.399-0.04-0.647-0.01-0.747,0.089c-0.1,0.1-0.11,0.289-0.03,0.568
				c0.06,0.219,0.259,0.378,0.598,0.478C41.452-16.328,41.701-16.309,41.9-16.368z"/>
		</g>
		<g>
			
				<linearGradient id="SVGID_13_" gradientUnits="userSpaceOnUse" x1="-2976.5439" y1="-5288.5049" x2="-2956.8423" y2="-5288.5049" gradientTransform="matrix(0.4907 -0.289 0.2891 0.4906 3001.3169 1718.6641)">
				<stop  offset="0" style="stop-color:#FDCB53"/>
				<stop  offset="1" style="stop-color:#D48801"/>
			</linearGradient>
			<path style="fill-rule:evenodd;clip-rule:evenodd;fill:url(#SVGID_13_);" d="M19.424-13.193c2.05-1.48,3.151-3.103,3.303-4.869
				c0.133-1.518-0.646-2.705-2.335-3.559c-1.082-0.532-2.487-0.912-4.214-1.139c-1.804-0.228-3.408-0.047-4.813,0.541
				c-1.101,0.456-1.841,1.016-2.221,1.68c0.247,1.006,0.626,2.098,1.139,3.274c1.044,2.354,2.25,3.977,3.617,4.869
				C15.457-11.39,17.298-11.656,19.424-13.193z"/>
			<path style="fill-rule:evenodd;clip-rule:evenodd;fill:#C98000;" d="M22.158-16.467l0.17-0.171
				c0.209-0.513,0.342-0.987,0.399-1.424c0.133-1.518-0.646-2.705-2.335-3.559c-1.082-0.532-2.487-0.912-4.214-1.139
				c-1.804-0.228-3.408-0.047-4.813,0.541c-1.101,0.456-1.841,1.016-2.221,1.68c0.228,0.93,0.579,1.956,1.053,3.075
				c0.968,2.221,2.079,3.815,3.332,4.783c0.304,0.114,0.465,0.114,0.484,0c0.019-0.095,0.076-0.427,0.171-0.996
				c0.474-1.576,0.294-2.848-0.541-3.815c-0.418-0.475-0.883-0.797-1.396-0.968l-0.057-0.398c0-0.323,0.076-0.607,0.228-0.854
				c0.551-0.759,1.86-0.996,3.93-0.711c2.316,0.304,3.977,1.053,4.983,2.249C21.845-17.568,22.12-16.999,22.158-16.467z"/>
			<path style="fill-rule:evenodd;clip-rule:evenodd;fill:#A86F0D;" d="M22.728-18.062c0.133-1.518-0.646-2.705-2.335-3.559
				c-1.082-0.532-2.487-0.912-4.214-1.139c-2.449-0.323-4.461,0.076-6.037,1.196c2.278-0.873,4.594-1.044,6.948-0.512
				c1.31,0.285,2.449,0.797,3.417,1.537c1.177,0.911,1.804,1.974,1.879,3.189l0.057,0.399C22.576-17.274,22.67-17.644,22.728-18.062
				z"/>
			<path style="fill-rule:evenodd;clip-rule:evenodd;fill:#EDE2AD;" d="M5.984-14.389c1.158,0.512,2.401,0.949,3.73,1.31
				c2.62,0.759,4.319,0.797,5.097,0.114c0.968-0.854,0.816-2.297-0.456-4.328c-1.291-2.031-2.724-2.895-4.3-2.591
				c-2.677,0.532-4.252,0.893-4.727,1.083c-1.196,0.474-1.785,1.281-1.765,2.42c0.038,1.006,0.313,1.547,0.826,1.623
				C5.339-14.607,5.87-14.484,5.984-14.389z"/>
			
				<linearGradient id="SVGID_14_" gradientUnits="userSpaceOnUse" x1="-1213.0908" y1="-14857.4258" x2="-1202.0391" y2="-14857.4258" gradientTransform="matrix(0.094 -0.5616 0.5617 0.094 8467.9209 702.2627)">
				<stop  offset="0" style="stop-color:#FDCB53"/>
				<stop  offset="1" style="stop-color:#D48801"/>
			</linearGradient>
			<path style="fill-rule:evenodd;clip-rule:evenodd;fill:url(#SVGID_14_);" d="M2.994-16.382c0.019,0.797,0.162,1.414,0.427,1.851
				c0.19,0.361,0.503,0.683,0.939,0.968c0.513,0.304,0.892,0.551,1.139,0.741l3.673,0.541c2.601,0.228,4.291,0,5.069-0.683
				c0.93-0.835,0.977-2.079,0.142-3.73c-0.854-1.67-2.183-2.895-3.986-3.673C8.689-21.108,7-20.957,5.329-19.913
				C3.734-18.944,2.956-17.768,2.994-16.382z"/>
			
				<linearGradient id="SVGID_15_" gradientUnits="userSpaceOnUse" x1="10753.8223" y1="-19387.4688" x2="10772.0596" y2="-19387.4688" gradientTransform="matrix(-0.4832 -0.3013 0.3013 -0.4832 11052.8848 -6141.1787)">
				<stop  offset="0" style="stop-color:#D69211"/>
				<stop  offset="1" style="stop-color:#C98000"/>
			</linearGradient>
			<path style="fill-rule:evenodd;clip-rule:evenodd;fill:url(#SVGID_15_);" d="M10.398-20.368C8.689-21.108,7-20.957,5.329-19.913
				c-1.595,0.968-2.373,2.145-2.335,3.531c0,0.076,0.028,0.37,0.085,0.882c0.228-2.296,1.756-3.54,4.584-3.729
				c1.728-0.133,3.332,0.304,4.813,1.31c1.442,0.968,2.278,2.107,2.506,3.417c-0.057-1.405-0.693-2.724-1.908-3.958
				C12.201-19.333,11.309-19.97,10.398-20.368z"/>
			<path style="fill-rule:evenodd;clip-rule:evenodd;fill:#EDE2AD;" d="M11.252-8.694c0.588-0.038,1.253-0.731,1.994-2.079
				c0.379-0.665,0.692-1.329,0.939-1.993c0.189-0.019,0.228-0.076,0.114-0.171c-0.209-0.17-1.053-0.446-2.534-0.826
				c-1.898-0.474-3.673-0.626-5.325-0.456l-1.936,0.427c-0.247,0.247-0.38,0.588-0.399,1.025c0,0.854,0.626,1.708,1.88,2.563
				c0.835,0.569,1.964,0.987,3.388,1.253C10.075-8.799,10.702-8.713,11.252-8.694z"/>
			
				<linearGradient id="SVGID_16_" gradientUnits="userSpaceOnUse" x1="-3234.3682" y1="-6509.0078" x2="-3225.1682" y2="-6509.0078" gradientTransform="matrix(0.4565 -0.3404 0.3405 0.4565 3700.3125 1859.041)">
				<stop  offset="0" style="stop-color:#FDCB53"/>
				<stop  offset="1" style="stop-color:#D48801"/>
			</linearGradient>
			<path style="fill-rule:evenodd;clip-rule:evenodd;fill:url(#SVGID_16_);" d="M9.088-8.865c0.702,0.133,1.329,0.208,1.879,0.228
				c0.588-0.019,1.595-0.579,3.019-1.68c0.721-0.55,1.376-1.101,1.965-1.651c-0.475-0.36-1.898-0.835-4.271-1.423
				c-1.898-0.475-3.759-0.703-5.581-0.684l-2.164,0.171c-0.209,0.285-0.294,0.655-0.256,1.11c0.095,0.93,0.769,1.822,2.021,2.676
				C6.535-9.568,7.664-9.15,9.088-8.865z"/>
			<path style="fill-rule:evenodd;clip-rule:evenodd;fill:#EDE2AD;" d="M18.627-9.862c-1.177-0.133-2.079-0.417-2.705-0.854
				c-0.626-0.456-1.139-0.978-1.538-1.566c-0.208-0.285-0.351-0.531-0.427-0.74c-1.158,0.873-2.069,1.661-2.733,2.363
				c-0.57,0.626-0.788,1.158-0.655,1.594c0.19,0.532,0.949,0.95,2.278,1.253c1.955,0.456,3.768,0.256,5.438-0.598
				c0.835-0.417,1.471-0.883,1.908-1.395C19.738-9.786,19.215-9.805,18.627-9.862z"/>
			
				<linearGradient id="SVGID_17_" gradientUnits="userSpaceOnUse" x1="27.3843" y1="-23.291" x2="44.3503" y2="-23.291" gradientTransform="matrix(0.5695 0 0 0.5694 -4.9502 3.1499)">
				<stop  offset="0" style="stop-color:#FDCB53"/>
				<stop  offset="1" style="stop-color:#D48801"/>
			</linearGradient>
			<path style="fill-rule:evenodd;clip-rule:evenodd;fill:url(#SVGID_17_);" d="M18.741-9.548c-1.177-0.133-2.079-0.418-2.705-0.854
				c-0.627-0.456-1.111-1.016-1.453-1.68c-0.171-0.342-0.285-0.636-0.341-0.883c-1.272,1.044-2.24,1.917-2.905,2.619
				c-0.569,0.626-0.788,1.158-0.655,1.595c0.189,0.531,0.949,0.949,2.278,1.253c1.956,0.456,3.769,0.256,5.439-0.598
				c0.835-0.417,1.471-0.882,1.908-1.395C19.852-9.473,19.33-9.492,18.741-9.548z"/>
			<path style="fill-rule:evenodd;clip-rule:evenodd;fill:#EDE2AD;" d="M20.734-9.548c1.613-0.703,2.81-2.041,3.588-4.015
				c0.588-1.537,0.56-2.647-0.085-3.331l-1.139-0.569c0.076,0.645,0.028,1.329-0.143,2.05c-0.341,1.405-1.12,2.24-2.335,2.505
				c-1.898,0.418-3.578,0.56-5.04,0.427l-1.623-0.313c-0.038,0.266,0.029,0.579,0.199,0.939c0.304,0.759,0.93,1.424,1.88,1.993
				C17.593-8.951,19.159-8.847,20.734-9.548z"/>
			
				<linearGradient id="SVGID_18_" gradientUnits="userSpaceOnUse" x1="33.7251" y1="-30.0874" x2="53.2751" y2="-30.0874" gradientTransform="matrix(0.5695 0 0 0.5694 -4.9502 3.1499)">
				<stop  offset="0" style="stop-color:#FDCB53"/>
				<stop  offset="1" style="stop-color:#D48801"/>
			</linearGradient>
			<path style="fill-rule:evenodd;clip-rule:evenodd;fill:url(#SVGID_18_);" d="M21.247-9.435c1.785-0.57,3.057-1.822,3.816-3.759
				c0.588-1.518,0.37-2.914-0.655-4.185c-0.512-0.646-1.091-1.129-1.737-1.452c-0.057,0.569-0.218,1.215-0.484,1.936
				c-0.532,1.423-1.329,2.458-2.392,3.104c-1.48,0.892-2.847,1.3-4.1,1.224l-1.452-0.398c-0.038,0.266,0.028,0.579,0.199,0.939
				c0.304,0.759,0.93,1.415,1.88,1.965C17.915-9.093,19.557-8.884,21.247-9.435z"/>
			<path style="fill-rule:evenodd;clip-rule:evenodd;fill:#C98000;" d="M22.67-18.831c-0.057,0.626-0.228,1.31-0.512,2.05
				c0.968,0.399,1.632,1.016,1.993,1.851c0.474,1.177,0.332,2.467-0.427,3.872c0.551-0.588,0.997-1.3,1.338-2.136
				c0.588-1.518,0.37-2.914-0.655-4.185C23.895-18.024,23.316-18.508,22.67-18.831z"/>
			<path style="fill-rule:evenodd;clip-rule:evenodd;fill:#A86F0D;" d="M25.262-13.763c0.342-1.367,0.01-2.619-0.997-3.758
				c-0.494-0.57-1.025-1.006-1.595-1.31c-0.038,0.398-0.142,0.864-0.313,1.395c0.285,0,0.626,0.104,1.025,0.313
				c0.532,0.303,1.006,0.769,1.424,1.395C25.072-15.329,25.224-14.673,25.262-13.763z"/>
			<path style="fill-rule:evenodd;clip-rule:evenodd;fill:#EDE2AD;" d="M20.421-13.848c0.532-0.417,0.978-0.978,1.338-1.68
				s0.541-1.338,0.541-1.908c-0.019,0.588-0.294,1.272-0.826,2.05c-0.494,0.759-0.978,1.271-1.452,1.537
				c-1.633,0.873-3.085,1.281-4.357,1.225l-1.423-0.342c-0.209-0.095-0.304-0.057-0.285,0.114c0.987,0.494,2.069,0.636,3.246,0.427
				C18.342-12.595,19.415-13.07,20.421-13.848z"/>
			<path style="fill-rule:evenodd;clip-rule:evenodd;fill:#EDE2AD;" d="M14.1-12.538c0.323,0.038,0.598,0.047,0.826,0.028
				c0.247-0.019,0.313-0.057,0.199-0.114c-0.323-0.133-0.465-0.304-0.427-0.513c0-0.095-0.066-0.114-0.199-0.057
				c-0.266,0.114-0.646,0.095-1.139-0.057l-0.185-0.071c0.151,0.072,0.279,0.191,0.384,0.356l0.199,0.313
				C13.815-12.652,13.929-12.614,14.1-12.538z"/>
			<path style="fill-rule:evenodd;clip-rule:evenodd;fill:#EDE2AD;" d="M8.49-9.976c0.532,0.057,0.816-0.095,0.854-0.456
				c0.019-0.38-0.313-0.56-0.997-0.541c-0.418,0.019-0.569,0.18-0.456,0.484C7.987-10.185,8.187-10.014,8.49-9.976z"/>
			<path style="fill-rule:evenodd;clip-rule:evenodd;fill:#EDE2AD;" d="M15.894-8.125c0.626-0.114,0.778-0.304,0.456-0.569
				s-0.665-0.323-1.025-0.171c-0.304,0.114-0.361,0.275-0.171,0.484C15.362-8.172,15.609-8.087,15.894-8.125z"/>
			<path style="fill-rule:evenodd;clip-rule:evenodd;fill:#EDE2AD;" d="M22.129-10.659c0.532-0.133,0.665-0.351,0.399-0.655
				c-0.266-0.285-0.56-0.247-0.883,0.114c-0.171,0.19-0.209,0.342-0.114,0.456C21.607-10.611,21.807-10.583,22.129-10.659z"/>
			<path style="fill-rule:evenodd;clip-rule:evenodd;fill:#EDE2AD;" d="M18.171-11.485c0.626,0.038,0.902-0.123,0.826-0.484
				c-0.076-0.38-0.417-0.456-1.025-0.228c-0.285,0.114-0.408,0.256-0.37,0.427C17.64-11.599,17.83-11.504,18.171-11.485z"/>
			<path style="fill-rule:evenodd;clip-rule:evenodd;fill:#EDE2AD;" d="M13.018-14.645c0.379-0.095,0.484-0.294,0.313-0.598
				s-0.456-0.484-0.854-0.541c-0.38-0.038-0.617-0.009-0.712,0.085c-0.095,0.095-0.104,0.275-0.029,0.541
				c0.057,0.209,0.247,0.361,0.57,0.456C12.59-14.607,12.828-14.588,13.018-14.645z"/>
		</g>
		<g>
			
				<linearGradient id="SVGID_19_" gradientUnits="userSpaceOnUse" x1="-2976.5439" y1="-5288.5039" x2="-2956.8423" y2="-5288.5039" gradientTransform="matrix(0.6462 -0.3807 0.3807 0.6462 3959.0615 2259.415)">
				<stop  offset="0" style="stop-color:#FDCB53"/>
				<stop  offset="1" style="stop-color:#D48801"/>
			</linearGradient>
			<path style="fill-rule:evenodd;clip-rule:evenodd;fill:url(#SVGID_19_);" d="M32.1-21.575c2.7-1.949,4.15-4.087,4.351-6.412
				c0.175-2-0.85-3.563-3.075-4.688c-1.425-0.7-3.275-1.2-5.55-1.5c-2.375-0.3-4.488-0.063-6.338,0.713
				c-1.45,0.6-2.425,1.337-2.925,2.212c0.325,1.325,0.825,2.763,1.5,4.313c1.375,3.1,2.963,5.238,4.763,6.413
				C26.875-19.2,29.3-19.55,32.1-21.575z"/>
			<path style="fill-rule:evenodd;clip-rule:evenodd;fill:#C98000;" d="M35.7-25.888l0.225-0.225c0.275-0.675,0.45-1.3,0.525-1.875
				c0.175-2-0.85-3.563-3.075-4.688c-1.425-0.7-3.275-1.2-5.55-1.5c-2.375-0.3-4.488-0.063-6.338,0.713
				c-1.45,0.6-2.425,1.337-2.925,2.212c0.3,1.225,0.763,2.575,1.388,4.05c1.274,2.926,2.737,5.025,4.388,6.301
				c0.399,0.149,0.612,0.149,0.637,0c0.025-0.125,0.1-0.563,0.226-1.313c0.625-2.076,0.387-3.75-0.713-5.025
				c-0.55-0.625-1.162-1.05-1.837-1.275l-0.075-0.524c0-0.425,0.1-0.8,0.3-1.125c0.725-1,2.45-1.313,5.175-0.938
				c3.05,0.4,5.238,1.388,6.563,2.962C35.287-27.337,35.65-26.587,35.7-25.888z"/>
			<path style="fill-rule:evenodd;clip-rule:evenodd;fill:#A86F0D;" d="M36.45-27.987c0.175-2-0.85-3.563-3.075-4.688
				c-1.425-0.7-3.275-1.2-5.55-1.5c-3.226-0.425-5.875,0.1-7.95,1.575c3-1.15,6.05-1.375,9.15-0.675
				c1.725,0.375,3.225,1.05,4.5,2.024c1.55,1.2,2.375,2.6,2.475,4.2l0.075,0.525C36.25-26.95,36.375-27.438,36.45-27.987z"/>
			<path style="fill-rule:evenodd;clip-rule:evenodd;fill:#EDE2AD;" d="M14.4-23.149c1.524,0.675,3.162,1.25,4.912,1.725
				c3.45,1,5.688,1.05,6.713,0.15c1.274-1.125,1.075-3.025-0.601-5.7c-1.7-2.675-3.587-3.813-5.662-3.413
				c-3.525,0.7-5.6,1.175-6.226,1.426c-1.574,0.625-2.35,1.688-2.324,3.188c0.05,1.325,0.412,2.037,1.087,2.137
				C13.55-23.437,14.25-23.275,14.4-23.149z"/>
			
				<linearGradient id="SVGID_20_" gradientUnits="userSpaceOnUse" x1="-1213.0908" y1="-14857.4258" x2="-1202.0391" y2="-14857.4258" gradientTransform="matrix(0.1238 -0.7397 0.7397 0.1238 11158.2285 920.7354)">
				<stop  offset="0" style="stop-color:#FDCB53"/>
				<stop  offset="1" style="stop-color:#D48801"/>
			</linearGradient>
			<path style="fill-rule:evenodd;clip-rule:evenodd;fill:url(#SVGID_20_);" d="M11.025-23.337c0.25,0.475,0.662,0.899,1.237,1.274
				c0.675,0.4,1.175,0.725,1.5,0.976l4.837,0.712c3.425,0.3,5.65,0,6.676-0.899c1.225-1.101,1.287-2.738,0.188-4.913
				c-1.125-2.2-2.875-3.812-5.25-4.837c-2.25-0.976-4.476-0.775-6.676,0.6c-2.1,1.275-3.125,2.825-3.074,4.65
				C10.487-24.725,10.675-23.913,11.025-23.337z"/>
			
				<linearGradient id="SVGID_21_" gradientUnits="userSpaceOnUse" x1="10753.8223" y1="-19387.4688" x2="10772.0596" y2="-19387.4688" gradientTransform="matrix(-0.6364 -0.3969 0.3969 -0.6364 14562.46 -8092.604)">
				<stop  offset="0" style="stop-color:#D69211"/>
				<stop  offset="1" style="stop-color:#C98000"/>
			</linearGradient>
			<path style="fill-rule:evenodd;clip-rule:evenodd;fill:url(#SVGID_21_);" d="M20.213-31.024c-2.25-0.976-4.476-0.775-6.676,0.6
				c-2.1,1.275-3.125,2.825-3.074,4.65c0,0.1,0.037,0.487,0.112,1.162c0.3-3.025,2.312-4.663,6.037-4.912
				C18.887-29.7,21-29.125,22.95-27.8c1.9,1.275,3,2.775,3.3,4.5c-0.075-1.85-0.913-3.587-2.513-5.213
				C22.587-29.662,21.412-30.5,20.213-31.024z"/>
			<path style="fill-rule:evenodd;clip-rule:evenodd;fill:#EDE2AD;" d="M21.338-15.649c0.774-0.05,1.649-0.963,2.625-2.738
				c0.5-0.875,0.912-1.75,1.237-2.625c0.25-0.024,0.3-0.1,0.149-0.225c-0.275-0.225-1.387-0.587-3.337-1.088
				c-2.5-0.625-4.838-0.824-7.013-0.6l-2.55,0.563c-0.325,0.325-0.5,0.775-0.525,1.35c0,1.125,0.825,2.25,2.476,3.375
				c1.1,0.75,2.587,1.3,4.462,1.65C19.788-15.787,20.612-15.675,21.338-15.649z"/>
			
				<linearGradient id="SVGID_22_" gradientUnits="userSpaceOnUse" x1="-3234.3682" y1="-6509.0083" x2="-3225.1682" y2="-6509.0083" gradientTransform="matrix(0.6012 -0.4484 0.4484 0.6012 4879.5933 2444.3027)">
				<stop  offset="0" style="stop-color:#FDCB53"/>
				<stop  offset="1" style="stop-color:#D48801"/>
			</linearGradient>
			<path style="fill-rule:evenodd;clip-rule:evenodd;fill:url(#SVGID_22_);" d="M20.963-15.575c0.774-0.024,2.1-0.762,3.975-2.212
				c0.95-0.725,1.813-1.45,2.588-2.175c-0.625-0.475-2.5-1.101-5.625-1.875c-2.5-0.625-4.95-0.925-7.351-0.9l-2.85,0.225
				c-0.275,0.375-0.388,0.863-0.338,1.463c0.125,1.225,1.013,2.4,2.663,3.525c1.1,0.725,2.587,1.274,4.462,1.649
				C19.413-15.7,20.237-15.6,20.963-15.575z"/>
			<path style="fill-rule:evenodd;clip-rule:evenodd;fill:#EDE2AD;" d="M31.05-17.188c-1.55-0.175-2.737-0.55-3.563-1.125
				c-0.825-0.6-1.5-1.288-2.024-2.063C25.188-20.75,25-21.075,24.9-21.35c-1.525,1.15-2.725,2.188-3.601,3.112
				c-0.75,0.825-1.037,1.525-0.862,2.1c0.25,0.7,1.25,1.25,3,1.65c2.575,0.6,4.962,0.338,7.162-0.787
				c1.101-0.55,1.938-1.163,2.513-1.838C32.513-17.087,31.825-17.112,31.05-17.188z"/>
			
				<linearGradient id="SVGID_23_" gradientUnits="userSpaceOnUse" x1="27.3843" y1="-23.291" x2="44.3504" y2="-23.291" gradientTransform="matrix(0.75 0 0 0.75 0 -0.0498)">
				<stop  offset="0" style="stop-color:#FDCB53"/>
				<stop  offset="1" style="stop-color:#D48801"/>
			</linearGradient>
			<path style="fill-rule:evenodd;clip-rule:evenodd;fill:url(#SVGID_23_);" d="M31.2-16.774c-1.55-0.175-2.737-0.55-3.563-1.125
				c-0.825-0.601-1.463-1.338-1.913-2.213c-0.225-0.45-0.375-0.837-0.449-1.162c-1.675,1.375-2.95,2.525-3.825,3.449
				C20.7-17,20.413-16.3,20.588-15.725c0.25,0.7,1.25,1.25,3,1.649c2.575,0.601,4.962,0.338,7.162-0.787
				c1.1-0.55,1.938-1.162,2.513-1.838C32.662-16.675,31.975-16.7,31.2-16.774z"/>
			<path style="fill-rule:evenodd;clip-rule:evenodd;fill:#EDE2AD;" d="M33.825-16.774c2.125-0.925,3.7-2.688,4.725-5.288
				c0.775-2.024,0.738-3.487-0.112-4.388l-1.5-0.75c0.1,0.85,0.037,1.75-0.188,2.7c-0.45,1.85-1.475,2.95-3.075,3.3
				c-2.5,0.55-4.712,0.738-6.638,0.563L24.9-21.05c-0.05,0.35,0.037,0.763,0.262,1.237c0.4,1,1.225,1.875,2.476,2.625
				C29.688-15.987,31.75-15.85,33.825-16.774z"/>
			
				<linearGradient id="SVGID_24_" gradientUnits="userSpaceOnUse" x1="33.7251" y1="-30.0874" x2="53.2751" y2="-30.0874" gradientTransform="matrix(0.75 0 0 0.75 0 -0.0498)">
				<stop  offset="0" style="stop-color:#FDCB53"/>
				<stop  offset="1" style="stop-color:#D48801"/>
			</linearGradient>
			<path style="fill-rule:evenodd;clip-rule:evenodd;fill:url(#SVGID_24_);" d="M34.5-16.625c2.35-0.75,4.025-2.399,5.025-4.95
				c0.774-2,0.487-3.837-0.863-5.512c-0.675-0.85-1.437-1.488-2.287-1.913c-0.075,0.75-0.288,1.6-0.638,2.55
				c-0.7,1.875-1.75,3.238-3.149,4.088c-1.95,1.175-3.75,1.712-5.4,1.612l-1.912-0.524c-0.05,0.35,0.037,0.762,0.262,1.237
				c0.4,1,1.225,1.862,2.476,2.587C30.112-16.175,32.275-15.9,34.5-16.625z"/>
			<path style="fill-rule:evenodd;clip-rule:evenodd;fill:#C98000;" d="M36.375-29c-0.075,0.825-0.3,1.726-0.675,2.7
				c1.274,0.525,2.15,1.337,2.625,2.438c0.625,1.55,0.437,3.25-0.563,5.1c0.725-0.774,1.313-1.712,1.763-2.813
				c0.774-2,0.487-3.837-0.863-5.512C37.987-27.937,37.225-28.575,36.375-29z"/>
			<path style="fill-rule:evenodd;clip-rule:evenodd;fill:#A86F0D;" d="M39.787-22.325c0.45-1.8,0.013-3.449-1.313-4.949
				c-0.65-0.75-1.35-1.326-2.1-1.726c-0.05,0.525-0.188,1.138-0.412,1.838c0.375,0,0.824,0.137,1.35,0.412
				c0.7,0.4,1.325,1.013,1.875,1.838C39.538-24.388,39.737-23.524,39.787-22.325z"/>
			<path style="fill-rule:evenodd;clip-rule:evenodd;fill:#EDE2AD;" d="M33.412-22.438c0.7-0.55,1.288-1.288,1.763-2.212
				c0.475-0.925,0.713-1.763,0.713-2.513c-0.025,0.775-0.388,1.675-1.088,2.7c-0.65,1-1.288,1.674-1.912,2.024
				c-2.15,1.15-4.063,1.688-5.737,1.612l-1.875-0.449C25-21.4,24.875-21.35,24.9-21.125c1.299,0.65,2.725,0.838,4.274,0.563
				C30.675-20.787,32.087-21.412,33.412-22.438z"/>
			<path style="fill-rule:evenodd;clip-rule:evenodd;fill:#EDE2AD;" d="M25.088-20.712c0.425,0.05,0.787,0.062,1.087,0.037
				c0.325-0.025,0.413-0.075,0.263-0.15C26.012-21,25.825-21.225,25.875-21.5c0-0.125-0.087-0.149-0.263-0.075
				c-0.35,0.15-0.85,0.125-1.5-0.074l-0.243-0.094c0.199,0.095,0.368,0.251,0.506,0.469l0.263,0.412
				C24.713-20.862,24.862-20.812,25.088-20.712z"/>
			<path style="fill-rule:evenodd;clip-rule:evenodd;fill:#EDE2AD;" d="M17.7-17.337c0.7,0.074,1.075-0.125,1.125-0.601
				c0.025-0.5-0.413-0.737-1.313-0.712c-0.55,0.024-0.75,0.237-0.601,0.637C17.038-17.612,17.3-17.387,17.7-17.337z"/>
			<path style="fill-rule:evenodd;clip-rule:evenodd;fill:#EDE2AD;" d="M27.45-14.899c0.825-0.15,1.025-0.4,0.6-0.75
				c-0.425-0.351-0.875-0.425-1.35-0.226c-0.4,0.15-0.475,0.363-0.226,0.638C26.75-14.962,27.075-14.85,27.45-14.899z"/>
			<path style="fill-rule:evenodd;clip-rule:evenodd;fill:#EDE2AD;" d="M35.662-18.237c0.7-0.175,0.875-0.462,0.525-0.862
				c-0.35-0.375-0.737-0.325-1.162,0.149c-0.226,0.25-0.275,0.45-0.15,0.601C34.975-18.175,35.237-18.137,35.662-18.237z"/>
			<path style="fill-rule:evenodd;clip-rule:evenodd;fill:#EDE2AD;" d="M30.45-19.325c0.825,0.05,1.187-0.162,1.087-0.637
				c-0.1-0.5-0.549-0.601-1.35-0.301c-0.375,0.15-0.538,0.338-0.487,0.563C29.75-19.475,30-19.35,30.45-19.325z"/>
			<path style="fill-rule:evenodd;clip-rule:evenodd;fill:#EDE2AD;" d="M23.662-23.487c0.5-0.125,0.638-0.388,0.413-0.787
				c-0.226-0.4-0.601-0.638-1.125-0.713c-0.5-0.05-0.813-0.013-0.938,0.112c-0.125,0.125-0.138,0.363-0.038,0.713
				c0.075,0.275,0.325,0.475,0.75,0.6C23.1-23.437,23.413-23.412,23.662-23.487z"/>
		</g>
	</g>
</symbol>
<use xlink:href="#bun4"  width="51.889" height="30.9" x="2.993" y="-34.318" transform="matrix(1 0 0 -1 0 0.5498)" style="overflow:visible;"/>
</svg>
