<?xml version="1.0" encoding="iso-8859-1"?>
<!-- Generator: Adobe Illustrator 15.1.0, SVG Export Plug-In . SVG Version: 6.00 Build 0)  -->
<!DOCTYPE svg PUBLIC "-//W3C//DTD SVG 1.1//EN" "http://www.w3.org/Graphics/SVG/1.1/DTD/svg11.dtd">
<svg version="1.1" id="flash0.ai" xmlns="http://www.w3.org/2000/svg" xmlns:xlink="http://www.w3.org/1999/xlink" x="0px" y="0px"
	 width="83px" height="62.8px" viewBox="0 0 83 62.8" style="enable-background:new 0 0 83 62.8;" xml:space="preserve">
<symbol  id="flash0.ai_x5F_3_x2F_Layer_3_copy_x2F__x3C_Path_x3E__x5F_2" viewBox="0 -12.7 8.75 12.7">
	<g id="Layer_1_2_">
		<path style="fill-rule:evenodd;clip-rule:evenodd;" d="M6-1.55C6.1-0.917,6.317-0.4,6.65,0C6.417-0.7,6.3-1.317,6.3-1.85
			S6.35-2.733,6.45-2.9C6.583-3,6.833-2.833,7.2-2.4C7.567-1.967,7.833-1.5,8-1C7.9-1.5,7.733-2,7.5-2.5s-0.567-0.8-1-0.9l0.15-2.55
			C7.117-5.85,7.533-5.533,7.9-5c0.367,0.567,0.65,1.133,0.85,1.7c-0.333-1.267-0.667-2.15-1-2.65c-0.367-0.5-0.733-0.716-1.1-0.65
			L6.1-8.55l-0.15-0.4C5.85-9.15,6.117-9,6.75-8.5c0.448,0.336,0.814,0.669,1.1,1C7.133-8.47,6.616-9.07,6.3-9.3
			C5.9-9.567,5.633-9.7,5.5-9.7c-0.433-0.7-1.183-1.316-2.25-1.85C2.217-12.117,1.133-12.5,0-12.7c1.5,0.4,2.7,1.034,3.6,1.9L5-9.5
			C4.067-9.467,3.317-9.217,2.75-8.75c-0.367,0.3-0.683,0.667-0.95,1.1L1.55-7.1L2-7.6c0.367-0.367,0.717-0.617,1.05-0.75
			C3.583-8.617,4.317-8.8,5.25-8.9C5.417-8.633,5.6-8.217,5.8-7.65l0.3,1.1c-1.167,0.167-2,0.483-2.5,0.95
			c-0.533,0.5-0.934,1-1.2,1.5c0.667-0.8,1.4-1.316,2.2-1.55c0.8-0.233,1.3-0.333,1.5-0.3c0.033,0.8,0.033,1.417,0,1.85v0.6
			c-0.767,0-1.367,0.15-1.8,0.45L3.35-2.3L3.9-2.55c0.467-0.2,0.85-0.317,1.15-0.35L6-3C5.9-2.633,5.9-2.15,6-1.55z"/>
	</g>
</symbol>
<symbol  id="flash0.ai_x5F_3_x2F_Layer_3_copy_x2F__x3C_Path_x3E__x5F_2_x5F_0" viewBox="0 -17.45 11.65 17.45">
	<g id="Layer_1_3_">
		<path style="fill-rule:evenodd;clip-rule:evenodd;" d="M10.3-8.15c-0.466-0.667-0.95-0.967-1.45-0.9L7.9-12.3
			c-0.133-0.267,0.233-0.05,1.1,0.65c0.637,0.489,1.153,0.989,1.55,1.5c-1.021-1.44-1.754-2.324-2.2-2.65
			c-0.5-0.367-0.833-0.55-1-0.55c-0.633-0.933-1.65-1.767-3.05-2.5c-1.4-0.767-2.833-1.3-4.3-1.6c1.967,0.567,3.567,1.434,4.8,2.6
			l1.8,1.8c-1.2,0.066-2.2,0.417-3,1.05c-0.5,0.4-0.9,0.9-1.2,1.5L2.05-9.75l0.6-0.7c0.467-0.5,0.934-0.85,1.4-1.05
			c0.7-0.333,1.667-0.583,2.9-0.75c0.233,0.4,0.483,1,0.75,1.8L8.1-9C6.533-8.767,5.417-8.317,4.75-7.65
			c-0.433,0.4-0.833,0.867-1.2,1.4L3.15-5.6C4.017-6.733,5-7.45,6.1-7.75c1.066-0.333,1.75-0.467,2.05-0.4
			c0.033,1.066,0.033,1.9,0,2.5L8.1-4.8c-1.033,0-1.833,0.2-2.4,0.6L4.4-3.15L5.2-3.5C5.8-3.767,6.3-3.933,6.7-4
			c0.633-0.1,1.05-0.133,1.25-0.1c-0.133,0.467-0.133,1.133,0,2C8.117-1.233,8.417-0.533,8.85,0C8.55-0.967,8.4-1.817,8.4-2.55
			c0-0.7,0.05-1.184,0.15-1.45C8.75-4.133,9.1-3.9,9.6-3.3c0.5,0.6,0.833,1.233,1,1.9c-0.1-0.7-0.317-1.383-0.65-2.05
			C9.65-4.15,9.233-4.567,8.7-4.7l0.15-3.45c0.6,0.1,1.15,0.533,1.65,1.3s0.883,1.533,1.15,2.3C11.217-6.25,10.767-7.45,10.3-8.15z"
			/>
	</g>
</symbol>
<symbol  id="flash0.ai_x5F_3_x2F_Layer_3_copy_x2F__x3C_Path_x3E__x5F_2_x5F_1" viewBox="0 -20.55 13.75 20.55">
	<g id="Layer_1_4_">
		<path style="fill-rule:evenodd;clip-rule:evenodd;" d="M12.55-1.65c-0.133-0.833-0.4-1.65-0.8-2.45
			c-0.367-0.8-0.867-1.283-1.5-1.45l0.1-2.75c0-0.467,0.033-0.9,0.1-1.3c0.7,0.1,1.35,0.6,1.95,1.5s1.05,1.817,1.35,2.75
			c-0.5-2.033-1.033-3.45-1.6-4.25c-0.533-0.833-1.1-1.2-1.7-1.1l-1.1-3.8c-0.167-0.3,0.267-0.05,1.3,0.75
			c0.757,0.605,1.374,1.214,1.85,1.825c-1.226-1.726-2.109-2.784-2.65-3.175c-0.6-0.433-1-0.65-1.2-0.65
			c-0.733-1.1-1.917-2.083-3.55-2.95c-1.667-0.9-3.367-1.517-5.1-1.85c2.333,0.633,4.217,1.65,5.65,3.05l2.2,2.1
			c-1.467,0.066-2.667,0.483-3.6,1.25C3.683-13.683,3.2-13.1,2.8-12.4l-0.4,0.85l0.7-0.8c0.566-0.566,1.117-0.967,1.65-1.2
			c0.867-0.4,2.017-0.7,3.45-0.9c0.3,0.467,0.6,1.167,0.9,2.1l0.45,1.7c-1.833,0.3-3.15,0.833-3.95,1.6
			C5.1-8.583,4.65-8.033,4.25-7.4l-0.5,0.75C4.783-7.95,5.933-8.8,7.2-9.2c1.267-0.367,2.066-0.5,2.4-0.4
			c0.033,1.267,0.033,2.233,0,2.9l-0.05,1c-1.2,0-2.133,0.233-2.8,0.7L5.2-3.7l0.9-0.45c0.733-0.333,1.333-0.533,1.8-0.6
			c0.767-0.1,1.267-0.133,1.5-0.1c-0.167,0.533-0.167,1.317,0,2.35C9.567-1.467,9.917-0.633,10.45,0c-0.333-1.167-0.5-2.167-0.5-3
			c0-0.867,0.05-1.45,0.15-1.75c0.233-0.167,0.65,0.117,1.25,0.85C11.917-3.167,12.317-2.417,12.55-1.65z"/>
	</g>
</symbol>
<symbol  id="flash0.ai_x5F_3_x2F_Layer_3_copy_x2F__x3C_Path_x3E__x5F_2_x5F_2" viewBox="0 -22.35 14.95 22.35">
	<g id="Layer_1_5_">
		<path style="fill-rule:evenodd;clip-rule:evenodd;" d="M11.35,0c-0.367-1.233-0.55-2.317-0.55-3.25S10.867-4.8,11-5.1
			c0.233-0.2,0.667,0.1,1.3,0.9c0.633,0.767,1.067,1.567,1.3,2.4c-0.133-0.867-0.4-1.733-0.8-2.6c-0.433-0.9-1-1.434-1.7-1.6l0.15-3
			c0-0.5,0.033-0.983,0.1-1.45c0.767,0.133,1.483,0.7,2.15,1.7c0.633,0.967,1.117,1.95,1.45,2.95C14.383-8,13.8-9.55,13.2-10.45
			c-0.6-0.867-1.217-1.25-1.85-1.15l-1.2-4.15c-0.167-0.333,0.3-0.067,1.4,0.8c0.945,0.773,1.695,1.531,2.25,2.275
			c-1.437-2.042-2.47-3.284-3.1-3.725c-0.633-0.434-1.067-0.65-1.3-0.65c-0.8-1.2-2.1-2.284-3.9-3.25
			c-1.8-0.967-3.633-1.65-5.5-2.05c2.533,0.7,4.583,1.817,6.15,3.35l2.35,2.25c-1.567,0.1-2.867,0.567-3.9,1.4
			c-0.633,0.533-1.15,1.167-1.55,1.9L2.6-12.5l0.75-0.9c0.633-0.633,1.233-1.067,1.8-1.3c0.934-0.433,2.184-0.75,3.75-0.95
			c0.333,0.467,0.667,1.217,1,2.25l0.45,1.85c-1.967,0.333-3.4,0.917-4.3,1.75c-0.533,0.533-1.033,1.117-1.5,1.75L4.05-7.2
			C5.183-8.633,6.433-9.55,7.8-9.95c1.4-0.4,2.284-0.566,2.65-0.5c0.033,1.4,0.033,2.467,0,3.2l-0.1,1.1
			C9.083-6.15,8.067-5.9,7.3-5.4c-0.466,0.3-0.883,0.633-1.25,1L5.65-4l1-0.5c0.733-0.333,1.367-0.533,1.9-0.6
			c0.833-0.133,1.383-0.183,1.65-0.15c-0.167,0.6-0.167,1.45,0,2.55C10.4-1.6,10.783-0.7,11.35,0z"/>
	</g>
</symbol>
<g>
	<g>
		<path style="fill-rule:evenodd;clip-rule:evenodd;fill:#3C571C;" d="M45.261,38.897c0.271-0.523,0.756-0.854,1.454-0.989
			c0.349-0.058,0.669-0.067,0.959-0.028c-0.136,0.019-0.28,0.048-0.436,0.087c-0.271,0.077-0.417,0.194-0.437,0.349
			c0,0.136,0.029,0.311,0.087,0.523c0.039,0.271-0.029,0.621-0.203,1.048c-0.233,0.562-0.61,1.075-1.135,1.541
			c-0.581,0.523-1.192,0.833-1.832,0.931C44.32,40.885,44.834,39.73,45.261,38.897z"/>
		<path style="fill-rule:evenodd;clip-rule:evenodd;fill:#446120;" d="M44.358,40.41c0.602,0.174,1.231,0.058,1.891-0.35
			c0.349-0.213,0.63-0.445,0.844-0.698c-0.039,0.427-0.194,0.883-0.466,1.367c-0.523,0.97-1.318,1.639-2.385,2.007
			c-0.931,0.31-2.161,0.427-3.693,0.349c-1.57-0.097-2.016-0.223-1.337-0.378c0.116-0.02,0.843-0.465,2.181-1.338
			C42.788,40.555,43.777,40.235,44.358,40.41z"/>
		<path style="fill-rule:evenodd;clip-rule:evenodd;fill:#6E9C33;" d="M36.681,41.573c3.257,0.427,4.808,0.746,4.653,0.959
			c-0.232,0.252-0.552,0.446-0.959,0.582c-0.775,0.213-1.968,0.291-3.577,0.232c-0.834-0.02-1.6-0.184-2.298-0.494
			c-1.241-0.484-2.365-1.328-3.374-2.53l-0.233-0.291l0.96,0.523c0.717,0.35,1.289,0.515,1.716,0.495c0.814-0.02,1.338-0.02,1.571,0
			C35.741,41.107,36.254,41.282,36.681,41.573z"/>
		<path style="fill-rule:evenodd;clip-rule:evenodd;fill:#6B9631;" d="M30.516,36.483l1.193,2.269
			c0.988,1.629,1.938,2.753,2.85,3.373c0.892,0.621,2.491,1.019,4.799,1.192c-0.698,0.116-1.513,0.146-2.443,0.088
			c-1.861-0.136-3.393-0.659-4.595-1.57c-1.008-0.737-1.609-1.852-1.803-3.345V36.483z"/>
		<path style="fill-rule:evenodd;clip-rule:evenodd;fill:#6B9630;" d="M43.951,33.546c0.02,0.175-0.436,0.301-1.366,0.379
			c-0.931,0.058-1.483-0.02-1.658-0.233c-0.155-0.174-0.31-0.475-0.465-0.901l-0.174-0.553c0.271-0.097,0.533-0.31,0.785-0.639
			c0.116-0.155,0.262-0.369,0.437-0.64c0.097-0.097,0.252-0.078,0.465,0.058c0.116,0.078,0.243,0.165,0.379,0.262
			c0.058,0,0.154,0.087,0.29,0.262c0.078,0.097,0.185,0.252,0.32,0.465c0.155,0.175,0.329,0.106,0.523-0.204l0.116,0.204
			c0.097,0.116,0.213,0.136,0.349,0.059l0.64-0.524c-0.115,0.271-0.232,0.563-0.349,0.873
			C44.029,33.032,43.933,33.411,43.951,33.546z"/>
		<path style="fill-rule:evenodd;clip-rule:evenodd;fill:#5C822A;" d="M34.878,42.3c-0.232-0.02-0.504-0.146-0.814-0.378
			c-0.621-0.466-1.134-1.202-1.542-2.21c-0.756-1.842-1.192-2.918-1.309-3.229c-0.271-0.814-0.243-1.212,0.087-1.192
			c0.31,0.02,0.542-0.077,0.698-0.291l0.349-0.756c0.349-0.368,0.844-0.185,1.483,0.553C34.2,35.224,34.549,37.725,34.878,42.3z"/>
		<path style="fill-rule:evenodd;clip-rule:evenodd;fill:#89BF3F;" d="M34.064,33.372l0.668-1.019
			c0.679-0.698,1.629-1.124,2.85-1.279c1.512-0.213,2.821-0.097,3.926,0.349c1.163,0.465,1.948,1.221,2.355,2.268
			c0.504,1.222,0.397,2.628-0.32,4.217c-0.795,1.765-1.986,2.676-3.577,2.734c-1.726,0.058-3.286-0.756-4.682-2.443
			C33.89,36.474,33.482,34.865,34.064,33.372z"/>
		<path style="fill-rule:evenodd;clip-rule:evenodd;fill:#7BAB38;" d="M41.684,35.088c0.601-0.388,1.037-0.814,1.309-1.28
			c0.291,1.59,0.242,3.063-0.146,4.421c-0.232,0.854-0.708,1.338-1.425,1.454c-1.202,0-2.336,0.059-3.403,0.175
			c-1.318,0.154-2.143-0.185-2.472-1.019c-0.116-0.949-0.223-1.492-0.32-1.628c-0.349-0.563-0.485-1.009-0.407-1.338
			c0.136-0.602,1.018-0.688,2.646-0.262C39.076,36.019,40.481,35.844,41.684,35.088z"/>
		<path style="fill-rule:evenodd;clip-rule:evenodd;fill:#689131;" d="M34.005,33.721c0.078-0.116,0.136-0.31,0.175-0.581
			l1.076,0.174c0.795,0.214,1.425,0.523,1.891,0.931c0.31,0.271,0.456,0.494,0.436,0.669l0.553,1.367
			c0.504,0.969,1.066,1.6,1.687,1.89c0.446,0.214,0.854-0.126,1.221-1.018c0.136,1.066,0,1.735-0.407,2.007
			c-0.407,0.252-2.695-0.756-6.863-3.024c0.02-0.368,0.049-0.746,0.087-1.135C33.918,34.225,33.967,33.799,34.005,33.721z"/>
		<path style="fill-rule:evenodd;clip-rule:evenodd;fill:#A5E64C;" d="M42.235,33.808c0.175,0.505,0.165,1.058-0.028,1.658
			c-0.117,0.311-0.242,0.563-0.378,0.756c0.136-0.717,0.136-1.396,0-2.035c-0.117-0.505-0.281-0.854-0.495-1.047
			c-0.136-0.136-0.291-0.253-0.465-0.35l-0.204-0.087c-0.621-0.039-1.202-0.02-1.745,0.059c-0.33,0.038-0.708,0.184-1.134,0.436
			l-0.523,0.378l0.349-0.319c0.271-0.252,0.523-0.437,0.756-0.553c0.369-0.175,0.97-0.252,1.803-0.232
			c-0.155-0.136-0.358-0.271-0.61-0.407l-0.378-0.204c-0.892,0.02-1.57,0.223-2.036,0.611l-1.076,0.93l0.203-0.319
			c0.194-0.271,0.427-0.504,0.698-0.698c0.407-0.329,1.076-0.572,2.006-0.727c-0.31-0.135-0.572-0.213-0.785-0.232
			c-0.232-0.039-0.591,0.039-1.076,0.232c-0.582,0.233-0.979,0.543-1.192,0.931l-0.437,0.843c0-0.154,0.097-0.436,0.291-0.843
			c0.252-0.505,0.523-0.814,0.814-0.931c0.446-0.213,0.863-0.339,1.25-0.378c-0.562-0.078-0.94-0.087-1.134-0.029l-0.291,0.058
			l0.582-0.146c0.427-0.097,0.766-0.126,1.018-0.087l0.204,0.029l0.756-0.146c0.194,0,0.349,0.01,0.465,0.029l-1.018,0.204
			l0.552,0.262l0.291,0.174V31.54c0.078-0.077,0.271-0.155,0.582-0.232c0.485-0.136,0.999-0.126,1.542,0.029
			c-0.679-0.039-1.096-0.029-1.25,0.029l-0.611,0.436l0.553,0.32c0.136,0.078,0.242,0.175,0.32,0.291l0.204-0.232
			c0.174-0.175,0.378-0.281,0.61-0.32c0.368-0.077,0.805-0.058,1.309,0.059c-0.775-0.059-1.231,0-1.366,0.174
			c-0.098,0.117-0.155,0.233-0.175,0.35c0,0.058,0,0.106,0,0.146l0.466,0.175C41.8,32.955,42.062,33.304,42.235,33.808z"/>
		
			<radialGradient id="SVGID_1_" cx="25.2998" cy="11.0498" r="9.225" gradientTransform="matrix(0.5816 0 0 -0.5667 20.2497 43.5883)" gradientUnits="userSpaceOnUse">
			<stop  offset="0" style="stop-color:#A9E858"/>
			<stop  offset="1" style="stop-color:#77A63A"/>
		</radialGradient>
		<path style="fill-rule:evenodd;clip-rule:evenodd;fill:url(#SVGID_1_);" d="M33.002,33.313c0.059-0.01,0.122-0.02,0.189-0.029
			h0.029c0.108-0.181,0.185-0.2,0.233-0.058c0.004,0.012,0.009,0.021,0.015,0.029c0.278-0.011,0.564,0.027,0.858,0.116
			c0.155,0.058,0.649,0.271,1.483,0.64c0.698,0.311,1.192,0.669,1.483,1.076c0.039,0.038,0.204,0.388,0.494,1.047
			c0.271,0.563,0.63,1.104,1.076,1.628c0.543,0.621,1.105,1.066,1.687,1.338c0.543,0.252,0.882,0.824,1.018,1.716
			c0.117,0.679,0.641,0.97,1.571,0.873c-0.485,0.484-1.416,0.882-2.792,1.192c-0.775,0.155-1.647,0.213-2.617,0.174
			c-1.919-0.077-3.315-0.601-4.188-1.57c-1.125-1.26-1.609-2.733-1.454-4.42c0.058-0.795,0.349-1.881,0.873-3.258
			c0.068-0.167,0.131-0.303,0.188-0.407c-0.016-0.009-0.03-0.019-0.043-0.028C33.063,33.343,33.029,33.323,33.002,33.313z
			 M32.9,33.43c-0.019,0.175-0.068,0.262-0.145,0.262c-0.097,0-0.291,0.098-0.582,0.291c-0.232,0.155-0.32,0.165-0.262,0.029
			c0.15-0.334,0.49-0.562,1.018-0.684C32.91,33.352,32.9,33.385,32.9,33.43z"/>
		
			<radialGradient id="SVGID_2_" cx="24.2002" cy="10.5498" r="10.3" gradientTransform="matrix(0.5816 0 0 -0.5668 20.2497 43.0158)" gradientUnits="userSpaceOnUse">
			<stop  offset="0.3255" style="stop-color:#A9E858"/>
			<stop  offset="1" style="stop-color:#77A63A"/>
		</radialGradient>
		<path style="fill-rule:evenodd;clip-rule:evenodd;fill:url(#SVGID_2_);" d="M35.111,34.273c0.116-0.175,0.233-0.339,0.349-0.494
			l-0.552,1.366l-0.116,0.728l0.756-0.204c0.233-0.097,0.611-0.368,1.134-0.814c-0.136,0.194-0.388,0.466-0.756,0.814
			c-0.233,0.233-0.504,0.388-0.814,0.466l-0.407,0.029l-0.146,1.599l0.291-0.028c0.232-0.059,0.456-0.136,0.669-0.232
			c0.349-0.155,0.621-0.311,0.814-0.466l0.087-0.814l0.262-0.581l-0.029,0.552c0,0.233,0.029,0.427,0.087,0.582l0.407-0.262
			l0.523-0.437c-0.213,0.446-0.717,0.883-1.512,1.309c-0.504,0.271-0.931,0.466-1.28,0.582l-0.349,0.087l0.029,0.814
			c0,0.388,0.126,0.921,0.378,1.6h0.437c0.368-0.02,0.766-0.087,1.192-0.203c0.659-0.175,1.085-0.359,1.279-0.553l-0.029-0.728
			l0.146-0.872l0.087,0.698c0.059,0.349,0.184,0.571,0.378,0.669l0.145-0.146l1.105-0.901c-0.465,0.853-1.134,1.512-2.007,1.978
			c-0.562,0.29-1.163,0.484-1.803,0.581l-0.786,0.029l0.146,0.262c0.136,0.213,0.33,0.455,0.582,0.727
			c0.388,0.446,1.047,0.747,1.978,0.901l-0.901,0.029c-0.368,0-0.737-0.106-1.105-0.319c-0.233-0.136-0.485-0.437-0.756-0.901
			l-0.349-0.669c-0.756-0.446-1.337-1.028-1.745-1.745c-0.233-0.466-0.407-0.97-0.523-1.513l-0.087-0.697l0.204,0.843
			c0.078,0.311,0.213,0.572,0.407,0.785l0.058-0.64c0.019-0.213,0.019-0.397,0-0.553l-0.029-0.174l0.145,0.203
			c0.078,0.194,0.126,0.397,0.146,0.61c0.02,0.35-0.029,0.641-0.146,0.873l0.32,0.407c0.194,0.252,0.563,0.601,1.105,1.047
			l-0.174-0.523c-0.077-0.214-0.136-0.611-0.174-1.192l-0.029-0.785c-0.659-0.446-1.085-0.901-1.279-1.367
			c-0.116-0.291-0.184-0.553-0.204-0.785v-0.291l0.087,0.495c0.039,0.193,0.126,0.368,0.262,0.523l0.087-0.35
			c0.059-0.136,0.097-0.388,0.116-0.756v0.814l-0.058,0.494l0.465,0.494c0.213,0.233,0.407,0.378,0.582,0.437
			c0-0.194,0.029-0.446,0.087-0.756l0.175-0.814c-0.524-0.291-0.853-0.649-0.989-1.076c-0.078-0.271-0.126-0.504-0.146-0.698v-0.203
			l0.058,0.407c0.058,0.31,0.184,0.581,0.378,0.814c0.291,0.368,0.543,0.533,0.756,0.494l0.175-0.844
			C34.742,34.874,34.878,34.622,35.111,34.273z"/>
		<path style="fill-rule:evenodd;clip-rule:evenodd;fill:#6F9C32;" d="M37.815,36.6c0.465,0.757,0.863,1.299,1.192,1.629
			c0.562,0.504,0.999,0.834,1.309,0.988c-0.291,0.737-0.543,1.212-0.756,1.426c-0.194,0.213-2.724-0.262-7.591-1.426l0.117-2.035
			l0.349,0.116c0.329,0.02,0.756-0.077,1.279-0.291c0.504-0.213,1.144-0.281,1.919-0.203c0.426,0.039,0.892,0.097,1.396,0.175
			c0.291,0.019,0.456,0.019,0.494,0c0.078-0.059,0.068-0.224-0.029-0.495l-0.262-0.901L37.815,36.6z"/>
		<path style="fill-rule:evenodd;clip-rule:evenodd;fill:#90CC3F;" d="M46.017,39.188c-0.33,1.066-1.163,1.822-2.501,2.268
			c-2.056,0.718-4.43,1.193-7.125,1.426l1.687-0.757c1.202-0.833,2.016-2.035,2.443-3.605c0.349-1.299,0.514-2.414,0.495-3.345
			c0-0.717,0.01-1.096,0.028-1.134c0.117-0.136,0.271-0.233,0.466-0.291c0.097-0.039,0.446-0.097,1.047-0.175
			c0.465-0.077,0.814-0.232,1.047-0.465c0.136-0.136,0.281-0.407,0.437-0.814c0.155-0.446,0.339-0.698,0.552-0.756
			c-0.154,0.233-0.271,0.485-0.349,0.756c-0.174,0.581-0.097,1.008,0.233,1.279c0.406,0.33,0.766,0.814,1.075,1.454
			c0.349,0.64,0.533,1.241,0.553,1.804C46.181,37.938,46.152,38.723,46.017,39.188z"/>
		<path style="fill-rule:evenodd;clip-rule:evenodd;fill:#6A9431;" d="M46.19,39.188c-0.329,1.066-1.153,1.822-2.472,2.268
			c-2.055,0.718-4.439,1.193-7.154,1.426l1.687-0.757c1.202-0.833,2.017-2.035,2.443-3.605c0.349-1.299,0.523-2.414,0.523-3.345
			c-0.02-0.717-0.02-1.096,0-1.134c0.116-0.155,0.271-0.252,0.466-0.291c0.116-0.039,0.475-0.097,1.076-0.175
			c0.465-0.077,0.795-0.213,0.988-0.407c0.136-0.136,0.281-0.388,0.437-0.756c0.155-0.446,0.291-0.737,0.406-0.873
			c-0.115,0.233-0.203,0.485-0.261,0.756c-0.116,0.581-0.01,1.008,0.319,1.279c0.407,0.33,0.775,0.814,1.105,1.454
			c0.329,0.64,0.514,1.241,0.552,1.804C46.385,37.918,46.346,38.703,46.19,39.188z"/>
		<path style="fill-rule:evenodd;clip-rule:evenodd;fill:#658C2D;" d="M44.649,33.575c0.349,0.271,0.669,0.669,0.96,1.192
			c0.311,0.523,0.514,1.047,0.61,1.57c-0.058,0.155-0.154,0.34-0.29,0.553c-0.271,0.407-0.796,0.543-1.571,0.407
			c-0.795-0.155-1.027-0.465-0.697-0.931c0.31-0.465,0.445-0.911,0.407-1.338c-0.059-0.407-0.281-0.698-0.669-0.872
			c-0.252-0.136-0.35-0.358-0.291-0.669c0.329-0.077,0.571-0.204,0.727-0.378c0.098-0.136,0.214-0.369,0.35-0.698
			c0.155-0.446,0.291-0.737,0.406-0.873c-0.115,0.233-0.203,0.485-0.261,0.756C44.214,32.877,44.32,33.304,44.649,33.575z"/>
		<path style="fill-rule:evenodd;clip-rule:evenodd;fill:#8CC63F;" d="M30.952,35.611c0.097-0.136,0.165-0.136,0.204,0
			c0.097,0.252,0.475,1.356,1.134,3.315c0.368,1.047,1.105,2.025,2.21,2.937c0.543,0.446,1.057,0.786,1.542,1.019
			c-0.33-0.098-0.727-0.271-1.192-0.523c-0.931-0.523-1.697-1.202-2.297-2.036c-0.718-1.008-1.231-1.938-1.542-2.792
			C30.719,36.658,30.7,36.019,30.952,35.611z"/>
		<path style="fill-rule:evenodd;clip-rule:evenodd;fill:#86C236;" d="M46.424,36.92c0.019,0.775-0.049,1.425-0.204,1.948
			c-0.311,1.047-0.94,1.958-1.89,2.733c-1.086,0.873-2.356,1.367-3.81,1.483c-1.532,0.155-2.802,0.155-3.81,0l-1.047-0.262
			l0.465,0.059c0.407,0,0.824-0.039,1.251-0.116c1.047-0.214,1.919-0.659,2.617-1.338c0.775-0.775,1.27-1.784,1.483-3.024
			c0.291-1.92,0.572-2.831,0.844-2.734c0.058,0.02,0.213,0.078,0.465,0.175c0.271,0.097,0.456,0.126,0.553,0.087
			c0.02,0,0.136-0.126,0.349-0.378c0.194-0.232,0.427-0.358,0.698-0.378c0.543-0.077,0.921-0.185,1.135-0.32
			c0.213-0.116,0.532-0.174,0.959-0.174c0.485,0.02,0.757,0.174,0.814,0.465c0.058,0.388,0.049,0.611-0.029,0.669
			c-0.058,0.039-0.154,0-0.29-0.116c-0.33-0.252-0.524-0.242-0.582,0.029C46.375,35.805,46.385,36.202,46.424,36.92z"/>
		<path style="fill-rule:evenodd;clip-rule:evenodd;fill:#60872C;" d="M46.627,36.92c0,0.795-0.077,1.444-0.232,1.948
			c-0.311,1.047-0.94,1.958-1.891,2.733c-1.066,0.873-2.326,1.367-3.78,1.483c-2.462,0.232-4.091,0.146-4.886-0.262l0.494,0.059
			c0.407,0,0.824-0.039,1.25-0.116c1.028-0.214,1.891-0.659,2.588-1.338c0.776-0.775,1.27-1.784,1.483-3.024
			c0.175-1.086,0.397-1.688,0.669-1.804c0.155-0.077,0.388-0.106,0.697-0.087c0.602-0.368,0.912-0.553,0.931-0.553
			c0.078-0.02,0.263-0.146,0.553-0.378c0.311-0.232,0.602-0.358,0.873-0.378c0.252-0.039,0.358-0.078,0.319-0.116
			c-0.077-0.098-0.077-0.175,0-0.233c0.431-0.281,0.838-0.049,1.222,0.698c-0.171-0.064-0.278-0.007-0.32,0.175L46.627,36.92z
			 M46.918,35.553c0.068,0.032,0.146,0.08,0.232,0.146c0.146,0.109,0.199-0.046,0.16-0.465c0.126,1.068,0.179,1.64,0.16,1.716
			c0,0.038-0.068-0.146-0.204-0.553C47.153,36.069,47.037,35.788,46.918,35.553z"/>
		<path style="fill-rule:evenodd;clip-rule:evenodd;fill:#537526;" d="M46.598,35.728l0.029,1.192c0,0.795-0.077,1.444-0.232,1.948
			c-0.311,1.047-0.94,1.958-1.891,2.733c-1.066,0.873-2.326,1.367-3.78,1.483l-0.32,0.029c1.532-0.232,2.772-0.785,3.722-1.658
			c0.776-0.697,1.183-1.396,1.222-2.094c0.077-1.57-0.068-2.753-0.437-3.548v-0.087c0.02-0.078,0.126-0.146,0.32-0.203
			c0.155-0.059,0.368-0.146,0.64-0.263c0.252-0.097,0.485-0.106,0.698-0.028c0.271,0.077,0.358,0.155,0.262,0.232
			c-0.059,0.039-0.126,0.087-0.204,0.146L46.598,35.728z"/>
		
			<use xlink:href="#flash0.ai_x5F_3_x2F_Layer_3_copy_x2F__x3C_Path_x3E__x5F_2"  width="8.75" height="12.7" y="-12.7" transform="matrix(0.5816 0 0 -0.5816 41.2002 35.5996)" style="overflow:visible;opacity:0.1992;enable-background:new    ;"/>
		<path style="fill-rule:evenodd;clip-rule:evenodd;fill:#94D142;" d="M32.755,33.691c-0.233-0.116-0.476-0.048-0.727,0.204
			c-0.097,0.097-0.155,0.097-0.175,0s0.058-0.252,0.233-0.466c0.271-0.349,0.766-0.475,1.483-0.378
			c0.136,0.039,0.32,0.106,0.553,0.204c0.194,0.097,0.417,0.155,0.669,0.174c0.601,0.059,1.183,0.242,1.745,0.553
			c0.485,0.291,0.756,0.582,0.814,0.872c-0.039-0.019-0.039,0.088,0,0.32c0.039,0.291,0.01,0.466-0.087,0.523
			c-0.078,0.059-0.194-0.049-0.349-0.319c-0.174-0.311-0.31-0.476-0.407-0.495c-0.136-0.019-0.243,0.02-0.32,0.116
			c-0.077,0.136-0.136,0.233-0.174,0.291c-0.058,0.116-0.194,0.126-0.407,0.029c-0.193-0.077-0.358-0.223-0.494-0.437
			c-0.039-0.038-0.116-0.184-0.233-0.436c-0.058-0.117-0.155-0.214-0.291-0.291c-0.116-0.098-0.291-0.155-0.523-0.175h-0.32
			l-0.146,0.059C33.579,34.041,33.298,33.925,32.755,33.691z"/>
		<path style="fill-rule:evenodd;clip-rule:evenodd;fill:#39521A;" d="M45.405,42.678c-1.531,0.775-2.879,1.009-4.042,0.698
			c-1.241-0.33-1.803-0.514-1.687-0.553c0.097-0.039,0.659-0.058,1.687-0.058c0.911-0.02,1.755-0.233,2.53-0.641
			c0.388-0.193,0.785-0.29,1.192-0.29c0.543,0,0.892-0.02,1.047-0.059c0.504-0.136,0.901-0.262,1.192-0.378
			C46.802,41.863,46.162,42.29,45.405,42.678z"/>
	</g>
	<g>
		<path style="fill-rule:evenodd;clip-rule:evenodd;fill:#3C571C;" d="M63.731,44.685c0.368-0.717,1.019-1.163,1.948-1.338
			c0.484-0.077,0.921-0.087,1.309-0.029c-0.193,0.02-0.388,0.049-0.581,0.088c-0.388,0.116-0.592,0.281-0.61,0.494
			c-0.02,0.175,0.009,0.427,0.086,0.756c0.059,0.368-0.028,0.834-0.261,1.396c-0.291,0.775-0.785,1.483-1.483,2.123
			c-0.775,0.717-1.6,1.144-2.473,1.279c0.214-0.504,0.456-1.076,0.728-1.716C62.937,46.439,63.383,45.422,63.731,44.685z"/>
		<path style="fill-rule:evenodd;clip-rule:evenodd;fill:#446120;" d="M65.069,46.284c0.465-0.271,0.844-0.582,1.135-0.931
			c-0.059,0.582-0.271,1.202-0.641,1.861c-0.698,1.338-1.765,2.259-3.199,2.763c-1.24,0.427-2.879,0.581-4.915,0.465
			c-2.132-0.136-2.732-0.31-1.803-0.522c0.136-0.02,1.105-0.631,2.908-1.833c1.9-1.124,3.229-1.561,3.984-1.309
			C63.334,47.03,64.178,46.866,65.069,46.284z"/>
		<path style="fill-rule:evenodd;clip-rule:evenodd;fill:#6E9C33;" d="M48.114,47.68c1.027-0.038,1.726-0.038,2.095,0
			c0.775,0.078,1.454,0.311,2.035,0.698c4.362,0.602,6.437,1.037,6.224,1.309c-0.252,0.35-0.679,0.61-1.279,0.785
			c-1.027,0.311-2.627,0.427-4.799,0.35c-1.105-0.059-2.123-0.281-3.054-0.67c-1.744-0.717-3.238-1.87-4.479-3.46l-0.319-0.437
			l1.279,0.728C46.786,47.467,47.552,47.699,48.114,47.68z"/>
		<path style="fill-rule:evenodd;clip-rule:evenodd;fill:#6B9631;" d="M43.985,41.398l1.628,3.111c1.338,2.249,2.608,3.8,3.81,4.653
			c0.737,0.523,2.026,0.95,3.868,1.279c0.911,0.155,1.755,0.262,2.53,0.32c-0.911,0.155-1.997,0.194-3.257,0.116
			c-2.481-0.175-4.537-0.882-6.166-2.123c-1.338-1.027-2.142-2.559-2.413-4.595V41.398z"/>
		<path style="fill-rule:evenodd;clip-rule:evenodd;fill:#6B9630;" d="M59.34,33.896l0.523,0.349c0.117,0,0.389,0.34,0.814,1.018
			c0.194,0.233,0.427,0.136,0.698-0.29l0.146,0.29c0.116,0.175,0.262,0.194,0.436,0.059c0.291-0.194,0.582-0.437,0.873-0.727
			c-0.155,0.388-0.311,0.795-0.466,1.221c-0.291,0.834-0.427,1.357-0.407,1.57c0.039,0.253-0.562,0.417-1.803,0.495
			c-1.261,0.077-2.007-0.029-2.239-0.32c-0.194-0.252-0.388-0.659-0.581-1.222l-0.262-0.756c0.367-0.136,0.717-0.427,1.047-0.872
			c0.174-0.233,0.368-0.533,0.581-0.902C58.836,33.672,59.049,33.701,59.34,33.896z"/>
		<path style="fill-rule:evenodd;clip-rule:evenodd;fill:#5C822A;" d="M49.83,49.396c-0.31-0.038-0.669-0.223-1.075-0.552
			c-0.834-0.621-1.522-1.619-2.065-2.996c-1.086-2.753-1.667-4.236-1.745-4.449c-0.368-1.124-0.339-1.677,0.088-1.657
			c0.445,0.038,0.766-0.088,0.96-0.379l0.436-1.047c0.484-0.504,1.154-0.252,2.007,0.756C48.938,39.653,49.404,43.095,49.83,49.396z
			"/>
		<path style="fill-rule:evenodd;clip-rule:evenodd;fill:#89BF3F;" d="M48.755,37.152l0.872-1.396c0.911-0.97,2.19-1.57,3.839-1.804
			c2.017-0.271,3.771-0.097,5.264,0.523c1.531,0.641,2.578,1.668,3.141,3.083c0.64,1.687,0.484,3.625-0.465,5.816
			c-1.048,2.424-2.627,3.664-4.74,3.723c-2.308,0.077-4.392-1.047-6.253-3.374C48.531,41.398,47.979,39.207,48.755,37.152z"/>
		<path style="fill-rule:evenodd;clip-rule:evenodd;fill:#7BAB38;" d="M60.707,37.763l0.203,1.979
			c0.059,1.551-0.067,2.897-0.378,4.042c-0.329,1.183-0.979,1.852-1.948,2.007c-1.609,0.02-3.121,0.106-4.537,0.262
			c-1.764,0.213-2.879-0.262-3.344-1.425c-0.136-1.28-0.262-2.017-0.379-2.211c-0.484-0.756-0.668-1.366-0.552-1.832
			c0.193-0.854,1.376-0.988,3.548-0.407c2.133,0.582,4.004,0.359,5.613-0.669C59.747,38.984,60.339,38.403,60.707,37.763z"/>
		<path style="fill-rule:evenodd;clip-rule:evenodd;fill:#689131;" d="M52.651,43.173l-4.275-2.269
			c0.039-0.504,0.078-1.018,0.117-1.542c0.077-1.065,0.145-1.647,0.203-1.745c0.097-0.174,0.174-0.436,0.232-0.784l1.426,0.232
			c1.065,0.271,1.909,0.688,2.529,1.25c0.407,0.388,0.61,0.708,0.61,0.96l0.728,1.861c0.659,1.318,1.396,2.172,2.21,2.56
			c0.388,0.174,0.785,0,1.193-0.523c0.193-0.271,0.349-0.563,0.465-0.873l0.029,1.163c-0.039,0.834-0.233,1.367-0.582,1.6
			C57.208,45.276,55.579,44.646,52.651,43.173z"/>
		<path style="fill-rule:evenodd;clip-rule:evenodd;fill:#A5E64C;" d="M59.253,35.117c-0.563,0.019-0.901,0.106-1.018,0.262
			c-0.116,0.154-0.194,0.31-0.233,0.465c0,0.097,0,0.165,0,0.204l0.641,0.232c0.465,0.271,0.813,0.756,1.047,1.454
			c0.252,0.698,0.232,1.454-0.059,2.268c-0.136,0.408-0.301,0.747-0.494,1.019c0.174-0.989,0.165-1.92-0.029-2.792
			c-0.155-0.698-0.368-1.173-0.64-1.425c-0.175-0.175-0.378-0.33-0.611-0.466l-0.29-0.116c-0.814-0.058-1.58-0.038-2.298,0.059
			c-0.446,0.058-0.95,0.262-1.512,0.61l-0.698,0.523l0.436-0.465c0.369-0.33,0.708-0.572,1.019-0.728
			c0.504-0.252,1.309-0.358,2.414-0.319c-0.194-0.194-0.466-0.378-0.814-0.553l-0.523-0.291c-1.184,0.02-2.095,0.301-2.733,0.844
			l-1.396,1.279l0.262-0.466c0.252-0.368,0.553-0.688,0.901-0.959c0.563-0.446,1.464-0.775,2.705-0.989
			c-0.427-0.193-0.776-0.301-1.047-0.319c-0.33-0.039-0.814,0.067-1.454,0.319c-0.776,0.33-1.299,0.757-1.57,1.28
			c-0.194,0.388-0.369,0.756-0.524,1.104c-0.058,0.116-0.087,0.136-0.087,0.059c0-0.194,0.136-0.572,0.407-1.135
			c0.35-0.679,0.717-1.114,1.105-1.309c0.601-0.271,1.153-0.445,1.657-0.523c-0.756-0.097-1.26-0.106-1.512-0.029l-0.379,0.088
			l0.757-0.204c0.582-0.136,1.037-0.174,1.366-0.116l0.291,0.029l0.32-0.087c0.271-0.059,0.494-0.088,0.669-0.088l0.61,0.029
			L54.6,34.157l0.728,0.319l0.407,0.262v-0.116c0.097-0.097,0.349-0.203,0.756-0.319c0.659-0.194,1.348-0.175,2.064,0.058
			c-0.911-0.077-1.474-0.067-1.687,0.029l-0.814,0.582l0.756,0.465c0.175,0.097,0.32,0.223,0.437,0.378l0.262-0.319
			c0.232-0.233,0.504-0.378,0.814-0.437c0.504-0.097,1.086-0.068,1.745,0.087C59.815,35.126,59.544,35.117,59.253,35.117z"/>
		
			<radialGradient id="SVGID_3_" cx="58.4502" cy="20.0498" r="12.3375" gradientTransform="matrix(0.5816 0 0 -0.5816 15.9499 54.2232)" gradientUnits="userSpaceOnUse">
			<stop  offset="0" style="stop-color:#A9E858"/>
			<stop  offset="1" style="stop-color:#77A63A"/>
		</radialGradient>
		<path style="fill-rule:evenodd;clip-rule:evenodd;fill:url(#SVGID_3_);" d="M57.421,44.976c0.736,0.349,1.201,1.144,1.396,2.385
			c0.136,0.931,0.824,1.328,2.065,1.192c-0.155,0.155-0.427,0.339-0.814,0.552c-0.795,0.446-1.774,0.806-2.938,1.077
			c-1.047,0.213-2.21,0.29-3.49,0.232c-2.559-0.097-4.41-0.814-5.554-2.152c-1.513-1.726-2.172-3.752-1.979-6.078
			c0.078-1.124,0.476-2.607,1.193-4.449c0.093-0.236,0.175-0.426,0.247-0.567c-0.013-0.015-0.027-0.029-0.044-0.044
			c-0.046-0.037-0.085-0.065-0.116-0.087c0.054-0.009,0.111-0.019,0.174-0.029c0.029-0.005,0.059-0.011,0.088-0.015
			c0.138-0.21,0.234-0.224,0.291-0.043v0.014c0.383-0.023,0.771,0.03,1.163,0.16c0.232,0.078,0.901,0.379,2.007,0.902
			c0.93,0.426,1.59,0.911,1.977,1.454c0.214,0.329,0.427,0.804,0.641,1.425c0.349,0.756,0.834,1.492,1.454,2.21
			C55.899,43.986,56.646,44.607,57.421,44.976z M47.184,37.182c-0.019,0.252-0.077,0.378-0.174,0.378
			c-0.116,0-0.378,0.146-0.785,0.437c-0.311,0.213-0.427,0.223-0.35,0.029c0.2-0.451,0.646-0.766,1.338-0.945
			C47.197,37.107,47.188,37.141,47.184,37.182z"/>
		
			<radialGradient id="SVGID_4_" cx="57" cy="19.3501" r="13.775" gradientTransform="matrix(0.5816 0 0 -0.5811 15.9499 53.3991)" gradientUnits="userSpaceOnUse">
			<stop  offset="0.3255" style="stop-color:#A9E858"/>
			<stop  offset="1" style="stop-color:#77A63A"/>
		</radialGradient>
		<path style="fill-rule:evenodd;clip-rule:evenodd;fill:url(#SVGID_4_);" d="M51.924,41.021c0.039-0.175,0.107-0.35,0.204-0.523
			l0.116-0.232l-0.029,0.727c0,0.311,0.039,0.582,0.116,0.814l0.553-0.378c0.252-0.194,0.484-0.397,0.698-0.611
			c-0.291,0.621-0.97,1.231-2.036,1.833c-0.679,0.368-1.24,0.63-1.687,0.784l-0.465,0.117l0.028,1.134
			c0,0.504,0.165,1.231,0.495,2.182H50.5c0.503-0.039,1.037-0.136,1.599-0.291c0.873-0.233,1.444-0.485,1.716-0.757l-0.029-0.959
			l0.204-1.222l0.116,0.96c0.077,0.465,0.232,0.766,0.466,0.901l0.203-0.204c0.136-0.136,0.64-0.542,1.512-1.221
			c-0.155,0.29-0.387,0.62-0.697,0.988c-0.602,0.737-1.271,1.309-2.007,1.716s-1.532,0.669-2.385,0.785l-1.076,0.059l0.175,0.349
			c0.194,0.311,0.455,0.649,0.785,1.019c0.543,0.601,1.425,1.008,2.646,1.221l-1.192,0.029c-0.485,0-0.989-0.146-1.513-0.437
			c-0.31-0.174-0.64-0.581-0.988-1.222l-0.437-0.901c-1.027-0.62-1.813-1.425-2.355-2.413c-0.33-0.621-0.572-1.309-0.728-2.065
			l-0.116-0.959l0.291,1.163c0.097,0.427,0.281,0.785,0.553,1.076l0.087-0.873c0.039-0.291,0.049-0.543,0.029-0.756l-0.058-0.262
			l0.174,0.291c0.097,0.252,0.155,0.533,0.175,0.843c0.038,0.485-0.01,0.883-0.146,1.192l0.378,0.523
			c0.271,0.35,0.775,0.834,1.513,1.454l-0.262-0.727c-0.097-0.311-0.165-0.854-0.204-1.629l-0.059-1.076
			c-0.892-0.601-1.454-1.221-1.687-1.861c-0.154-0.406-0.252-0.766-0.29-1.076v-0.378l0.116,0.641
			c0.058,0.271,0.174,0.514,0.349,0.727l0.146-0.494l0.116-0.989l-0.059,1.774l0.611,0.669c0.291,0.329,0.543,0.523,0.756,0.581
			l0.378-2.123c-0.697-0.387-1.144-0.882-1.338-1.482c-0.116-0.368-0.184-0.688-0.203-0.96v-0.291l0.087,0.553
			c0.098,0.427,0.262,0.805,0.495,1.135c0.407,0.504,0.746,0.736,1.018,0.697l0.262-1.192c0.058-0.213,0.242-0.563,0.552-1.047
			c0.155-0.252,0.312-0.475,0.466-0.669l-0.32,0.728c-0.232,0.543-0.377,0.931-0.436,1.163l-0.175,1.018l0.35-0.059
			c0.291-0.077,0.522-0.154,0.697-0.232c0.291-0.136,0.785-0.504,1.483-1.104c-0.155,0.252-0.494,0.62-1.018,1.104
			c-0.311,0.311-0.669,0.514-1.076,0.611l-0.523,0.058l-0.232,2.211l0.407-0.059c0.329-0.077,0.63-0.185,0.901-0.319
			c0.465-0.214,0.834-0.417,1.105-0.611C51.827,41.68,51.866,41.292,51.924,41.021z"/>
		<path style="fill-rule:evenodd;clip-rule:evenodd;fill:#5B8029;" d="M57.101,45.121c-0.368,1.027-0.698,1.687-0.988,1.978
			c-0.271,0.31-3.655-0.35-10.15-1.978l0.146-2.792l0.466,0.175c0.446,0.038,1.009-0.088,1.687-0.379
			c0.698-0.29,1.561-0.388,2.589-0.29c0.562,0.038,1.183,0.126,1.861,0.262c0.407,0.019,0.63,0.019,0.668,0
			c0.098-0.078,0.078-0.311-0.058-0.698L53,40.147l0.785,1.426c0.602,1.027,1.135,1.764,1.6,2.21
			C56.122,44.5,56.693,44.946,57.101,45.121z"/>
		<path style="fill-rule:evenodd;clip-rule:evenodd;fill:#90CC3F;" d="M64.72,45.121c-0.427,1.454-1.531,2.491-3.314,3.111
			c-1.726,0.602-3.829,1.105-6.312,1.513l-3.228,0.437l2.239-1.048c1.629-1.124,2.724-2.772,3.286-4.943
			c0.465-1.784,0.688-3.315,0.669-4.595c-0.02-0.97-0.01-1.483,0.029-1.542c0.155-0.193,0.358-0.329,0.61-0.407
			c0.116-0.038,0.592-0.126,1.425-0.262c0.621-0.097,1.076-0.3,1.367-0.61c0.194-0.213,0.388-0.591,0.581-1.134
			c0.233-0.582,0.485-0.931,0.757-1.047l-0.466,1.075c-0.232,0.775-0.136,1.348,0.291,1.716c0.543,0.466,1.037,1.135,1.483,2.007
			c0.445,0.892,0.688,1.726,0.727,2.501C64.981,43.366,64.934,44.442,64.72,45.121z"/>
		<path style="fill-rule:evenodd;clip-rule:evenodd;fill:#6A9431;" d="M64.981,45.121c-0.445,1.454-1.55,2.491-3.315,3.111
			c-1.725,0.602-3.828,1.105-6.311,1.513l-3.228,0.437l2.239-1.048c1.609-1.124,2.695-2.772,3.258-4.943
			c0.465-1.784,0.697-3.315,0.697-4.595c-0.02-0.989-0.01-1.503,0.029-1.542c0.155-0.193,0.358-0.329,0.61-0.407
			c0.117-0.038,0.592-0.126,1.426-0.262c0.62-0.097,1.065-0.271,1.337-0.523c0.155-0.174,0.34-0.523,0.553-1.047
			c0.213-0.601,0.397-1.008,0.553-1.221l-0.35,1.075c-0.154,0.775-0.009,1.348,0.437,1.716c0.543,0.446,1.027,1.115,1.454,2.007
			c0.446,0.892,0.698,1.726,0.756,2.501C65.205,43.425,65.156,44.5,64.981,45.121z"/>
		<path style="fill-rule:evenodd;clip-rule:evenodd;fill:#658C2D;" d="M64.197,39.043c0.407,0.717,0.688,1.435,0.843,2.152
			l-0.407,0.756c-0.368,0.563-1.076,0.746-2.123,0.553c-1.047-0.214-1.356-0.641-0.931-1.28c0.427-0.64,0.602-1.24,0.523-1.803
			c-0.077-0.563-0.358-0.97-0.843-1.222c-0.368-0.155-0.514-0.455-0.437-0.901c0.446-0.097,0.775-0.271,0.988-0.523
			c0.136-0.175,0.291-0.494,0.466-0.96c0.213-0.601,0.397-1.008,0.553-1.221l-0.35,1.075c-0.154,0.775-0.009,1.348,0.437,1.716
			C63.363,37.773,63.79,38.325,64.197,39.043z"/>
		<path style="fill-rule:evenodd;clip-rule:evenodd;fill:#8CC63F;" d="M44.625,40.177c0.038-0.058,0.077-0.136,0.116-0.232
			c0.02-0.02,0.067,0.077,0.146,0.291c0.116,0.329,0.62,1.832,1.512,4.508c0.485,1.435,1.464,2.772,2.938,4.013
			c0.737,0.62,1.425,1.096,2.065,1.426c-0.446-0.136-0.979-0.379-1.6-0.728c-1.241-0.718-2.259-1.639-3.054-2.763
			c-0.97-1.396-1.658-2.676-2.064-3.839C44.295,41.65,44.276,40.759,44.625,40.177z"/>
		<path style="fill-rule:evenodd;clip-rule:evenodd;fill:#86C236;" d="M64.981,44.655c-0.407,1.435-1.25,2.686-2.529,3.752
			c-1.416,1.202-3.103,1.89-5.061,2.064c-2.055,0.175-3.752,0.175-5.089,0l-1.426-0.349l0.641,0.028
			c0.542,0.021,1.104-0.028,1.687-0.145c1.377-0.291,2.54-0.902,3.489-1.832c1.047-1.047,1.706-2.424,1.978-4.13
			c0.408-2.617,0.785-3.878,1.135-3.78c0.077,0.038,0.291,0.136,0.64,0.29c0.329,0.136,0.563,0.175,0.698,0.116
			c0.058-0.019,0.223-0.193,0.494-0.523c0.252-0.329,0.563-0.514,0.931-0.552c0.756-0.098,1.26-0.233,1.512-0.407
			c0.271-0.175,0.698-0.262,1.28-0.262c0.659,0.02,1.018,0.232,1.075,0.64c0.078,0.523,0.068,0.824-0.028,0.901
			c-0.078,0.058-0.213,0.01-0.407-0.146c-0.155-0.136-0.311-0.203-0.466-0.203c-0.154,0-0.252,0.077-0.29,0.232
			c-0.02,0.116-0.01,0.659,0.028,1.628C65.292,43.065,65.195,43.958,64.981,44.655z"/>
		<path style="fill-rule:evenodd;clip-rule:evenodd;fill:#60872C;" d="M66.262,40.322c0.173,0.139,0.24-0.051,0.203-0.567
			c0.155,1.447,0.233,2.198,0.233,2.254c0,0.059-0.098-0.193-0.291-0.756c-0.147-0.434-0.298-0.802-0.451-1.105
			c-0.054-0.019-0.106-0.028-0.159-0.028c-0.155,0-0.253,0.077-0.291,0.232c-0.02,0.116-0.01,0.659,0.028,1.628
			c0.02,1.086-0.077,1.979-0.29,2.676c-0.427,1.435-1.271,2.686-2.53,3.752c-1.415,1.202-3.103,1.89-5.061,2.064
			c-2.055,0.175-3.752,0.175-5.089,0l-1.426-0.349l0.64,0.028c0.524,0.021,1.086-0.028,1.688-0.145
			c1.376-0.291,2.529-0.902,3.461-1.832c1.047-1.047,1.706-2.424,1.977-4.13c0.233-1.493,0.534-2.326,0.902-2.501
			c0.193-0.097,0.504-0.136,0.931-0.116c0.64-0.427,1.047-0.669,1.221-0.728c0.021,0,0.271-0.175,0.757-0.523
			c0.427-0.329,0.823-0.514,1.192-0.553c0.329-0.038,0.465-0.097,0.407-0.174c-0.098-0.098-0.098-0.185,0-0.262
			c0.581-0.389,1.129-0.068,1.643,0.959C66.058,40.175,66.159,40.233,66.262,40.322z"/>
		<path style="fill-rule:evenodd;clip-rule:evenodd;fill:#537526;" d="M65.563,40.235l-0.058,0.116
			c-0.02,0.116-0.01,0.659,0.028,1.628c0.02,1.086-0.077,1.979-0.29,2.676c-0.427,1.435-1.271,2.686-2.53,3.752
			c-1.415,1.202-3.103,1.89-5.061,2.064l-0.407,0.029c2.036-0.35,3.693-1.105,4.973-2.269c1.028-0.969,1.571-1.929,1.629-2.879
			c0.059-1.338-0.02-2.55-0.232-3.635l-0.35-1.222c-0.038-0.039-0.048-0.078-0.028-0.116c0.038-0.116,0.184-0.224,0.436-0.32
			c0.214-0.059,0.505-0.174,0.873-0.349c0.349-0.116,0.669-0.126,0.96-0.029c0.329,0.097,0.427,0.204,0.291,0.319
			C65.738,40.08,65.66,40.157,65.563,40.235z"/>
		
			<use xlink:href="#flash0.ai_x5F_3_x2F_Layer_3_copy_x2F__x3C_Path_x3E__x5F_2_x5F_0"  width="11.65" height="17.45" y="-17.45" transform="matrix(0.5816 0 0 -0.5816 58.3496 40.0996)" style="overflow:visible;opacity:0.1992;enable-background:new    ;"/>
		<path style="fill-rule:evenodd;clip-rule:evenodd;fill:#94D142;" d="M52.069,37.967c0.659,0.388,1.027,0.785,1.105,1.192
			c-0.058-0.039-0.067,0.106-0.029,0.437c0.039,0.406,0.01,0.659-0.087,0.756c-0.116,0.077-0.281-0.077-0.494-0.465
			c-0.233-0.427-0.417-0.65-0.553-0.67c-0.175-0.038-0.311,0.011-0.407,0.146c-0.116,0.175-0.203,0.311-0.262,0.407
			c-0.077,0.155-0.242,0.175-0.494,0.059c-0.271-0.136-0.504-0.34-0.698-0.611c-0.039-0.077-0.146-0.271-0.32-0.581
			c-0.097-0.175-0.223-0.32-0.378-0.437c-0.175-0.116-0.406-0.193-0.697-0.232h-0.407l-0.204,0.087
			c-0.077,0.02-0.252-0.028-0.523-0.146c-0.291-0.174-0.494-0.291-0.61-0.349c-0.291-0.136-0.611-0.049-0.96,0.262
			c-0.136,0.136-0.213,0.146-0.232,0.029c-0.039-0.116,0.067-0.33,0.32-0.64c0.213-0.291,0.601-0.466,1.163-0.523
			c0.291-0.02,0.552-0.02,0.785,0c0.154,0.038,0.407,0.135,0.756,0.291c0.252,0.116,0.553,0.193,0.901,0.232
			c0.484,0.058,0.862,0.126,1.134,0.203C51.227,37.511,51.624,37.695,52.069,37.967z"/>
		<path style="fill-rule:evenodd;clip-rule:evenodd;fill:#39521A;" d="M63.906,49.891c-2.036,1.066-3.839,1.386-5.409,0.959
			c-1.648-0.445-2.395-0.698-2.239-0.756c0.136-0.058,0.882-0.078,2.239-0.058c0.678-0.039,1.24-0.107,1.687-0.204
			c0.523-0.136,1.105-0.368,1.745-0.698c0.504-0.271,1.027-0.397,1.57-0.378c0.679,0,1.134-0.029,1.366-0.087
			c0.698-0.194,1.241-0.368,1.629-0.523C65.797,48.766,64.934,49.348,63.906,49.891z"/>
	</g>
	<g>
		<path style="fill-rule:evenodd;clip-rule:evenodd;fill:#3C571C;" d="M40.059,48.64c0.427-0.854,1.018-1.648,1.774-2.385
			c0.368-0.368,0.698-0.659,0.989-0.872c-0.039,0.039-0.088,0.097-0.146,0.175c-0.098,0.174-0.155,0.388-0.175,0.64
			c-0.02,0.213,0.02,0.756,0.116,1.628c0.039,0.931-0.077,1.735-0.349,2.414c-0.369,0.911-0.96,1.745-1.774,2.501
			c-0.911,0.854-1.871,1.357-2.879,1.513C38.566,51.868,39.38,49.997,40.059,48.64z"/>
		<path style="fill-rule:evenodd;clip-rule:evenodd;fill:#446120;" d="M41.804,53.06c0.504-0.31,0.921-0.648,1.25-1.018
			c-0.406,0.505-0.93,1.058-1.569,1.658c-1.28,1.183-2.531,1.978-3.752,2.385c-1.474,0.504-3.422,0.679-5.846,0.523
			c-2.481-0.136-3.189-0.329-2.123-0.582c0.174-0.038,1.483-0.563,3.926-1.57c2.559-0.911,4.294-1.221,5.206-0.931
			C39.826,53.836,40.796,53.681,41.804,53.06z"/>
		<path style="fill-rule:evenodd;clip-rule:evenodd;fill:#6E9C33;" d="M17.055,52.188l-0.378-0.494
			c1.745,1.144,3.15,1.696,4.217,1.657c1.183-0.038,1.997-0.038,2.443,0c0.95,0.098,1.764,0.379,2.443,0.844
			c5.138,0.698,7.581,1.212,7.329,1.541c-0.31,0.427-0.814,0.747-1.512,0.96c-1.202,0.35-3.083,0.476-5.642,0.378
			c-1.28-0.058-2.482-0.319-3.606-0.785C20.216,55.416,18.451,54.049,17.055,52.188z"/>
		<path style="fill-rule:evenodd;clip-rule:evenodd;fill:#6B9631;" d="M16.038,45.964l1.919,3.665
			c1.551,2.655,3.043,4.488,4.479,5.496c0.872,0.62,2.394,1.124,4.566,1.513c1.085,0.193,2.084,0.319,2.995,0.378
			c-1.086,0.193-2.365,0.232-3.839,0.116c-2.947-0.214-5.37-1.047-7.271-2.501c-1.57-1.202-2.52-3.005-2.85-5.409V45.964z"/>
		<path style="fill-rule:evenodd;clip-rule:evenodd;fill:#6B9630;" d="M34.737,37.53c0.155,0,0.485,0.397,0.989,1.192
			c0.233,0.291,0.504,0.175,0.814-0.349l0.175,0.349c0.135,0.214,0.31,0.242,0.523,0.088c0.329-0.233,0.659-0.514,0.988-0.844
			l-0.523,1.425c-0.329,0.989-0.484,1.6-0.465,1.832c0.039,0.311-0.669,0.514-2.123,0.611c-1.474,0.077-2.356-0.049-2.646-0.379
			c-0.233-0.31-0.465-0.795-0.698-1.454l-0.291-0.901c0.426-0.136,0.833-0.465,1.221-0.988c0.213-0.291,0.446-0.649,0.698-1.076
			c0.136-0.175,0.378-0.146,0.727,0.087L34.737,37.53z"/>
		<path style="fill-rule:evenodd;clip-rule:evenodd;fill:#5C822A;" d="M18.422,43.551c0.077-0.523,0.251-0.94,0.523-1.251
			c0.543-0.581,1.318-0.271,2.327,0.931c0.369,0.446,0.756,2.607,1.164,6.485c0.213,1.938,0.378,3.839,0.494,5.7
			c-0.368-0.059-0.795-0.271-1.28-0.64c-0.988-0.757-1.803-1.948-2.442-3.577c-1.28-3.258-1.949-5.002-2.007-5.235
			c-0.446-1.318-0.417-1.968,0.087-1.948C17.792,44.055,18.17,43.899,18.422,43.551z"/>
		<path style="fill-rule:evenodd;clip-rule:evenodd;fill:#89BF3F;" d="M21.679,40.962c0.155-0.523,0.495-1.075,1.018-1.657
			c1.066-1.144,2.569-1.842,4.508-2.094c2.404-0.33,4.478-0.136,6.223,0.581c1.803,0.757,3.034,1.978,3.693,3.664
			c0.776,1.959,0.591,4.236-0.552,6.835c-1.241,2.869-3.102,4.333-5.584,4.392c-2.714,0.096-5.176-1.222-7.387-3.956
			C21.389,45.974,20.749,43.386,21.679,40.962z"/>
		<path style="fill-rule:evenodd;clip-rule:evenodd;fill:#7BAB38;" d="M35.755,41.66l0.233,2.355
			c0.077,1.822-0.078,3.412-0.466,4.77c-0.388,1.376-1.144,2.152-2.268,2.326c-1.9,0.02-3.684,0.127-5.351,0.32
			c-2.094,0.232-3.402-0.33-3.926-1.687c-0.174-1.513-0.33-2.375-0.465-2.589c-0.562-0.911-0.785-1.638-0.668-2.181
			c0.232-0.989,1.628-1.135,4.188-0.437c2.501,0.679,4.711,0.407,6.631-0.814C34.611,43.104,35.309,42.416,35.755,41.66z"/>
		<path style="fill-rule:evenodd;clip-rule:evenodd;fill:#689131;" d="M22.901,39.246l0.058-0.116l1.542,0.64
			c1.105,0.621,1.871,1.426,2.297,2.414c0.252,0.62,0.397,1.037,0.436,1.25l0.873,2.211c0.775,1.551,1.648,2.559,2.617,3.024
			c0.446,0.213,0.902,0.01,1.367-0.61c0.252-0.311,0.446-0.65,0.582-1.019l0.029,1.367c-0.058,0.969-0.281,1.59-0.669,1.861
			c-0.407,0.271-2.336-0.466-5.787-2.21c-1.726-0.854-3.412-1.745-5.06-2.676c0.252-0.97,0.514-1.958,0.785-2.967
			C22.513,40.419,22.823,39.362,22.901,39.246z"/>
		<path style="fill-rule:evenodd;clip-rule:evenodd;fill:#A5E64C;" d="M28.223,37.269l0.407-0.116
			c0.291-0.077,0.543-0.116,0.756-0.116c0.329,0,0.582,0.02,0.756,0.059c-0.543,0.077-0.94,0.154-1.192,0.232l-0.407,0.116
			l0.844,0.378l0.494,0.291l0.029-0.116c0.097-0.116,0.388-0.252,0.873-0.407c0.776-0.214,1.59-0.194,2.443,0.058
			c-1.085-0.077-1.754-0.058-2.006,0.059c-0.155,0.077-0.359,0.213-0.611,0.407l-0.32,0.262l0.872,0.553
			c0.213,0.116,0.378,0.262,0.495,0.436l0.32-0.378c0.271-0.252,0.592-0.417,0.96-0.494c0.601-0.116,1.289-0.078,2.064,0.116
			c-0.31-0.02-0.63-0.029-0.959-0.029c-0.659,0.02-1.066,0.116-1.222,0.291c-0.136,0.194-0.223,0.388-0.262,0.582
			c0,0.077,0,0.146,0,0.203l0.756,0.262c0.563,0.35,0.979,0.931,1.25,1.745c0.271,0.795,0.242,1.677-0.087,2.646
			c-0.155,0.484-0.349,0.892-0.582,1.222c0.213-1.145,0.204-2.239-0.029-3.286c-0.174-0.795-0.426-1.367-0.756-1.717
			c-0.213-0.213-0.446-0.378-0.698-0.494l-0.349-0.145c-0.97-0.078-1.88-0.059-2.734,0.058c-0.523,0.058-1.115,0.291-1.774,0.698
			c-0.33,0.213-0.611,0.417-0.843,0.61c0.136-0.155,0.31-0.329,0.523-0.523c0.446-0.388,0.853-0.669,1.222-0.843
			c0.582-0.311,1.522-0.446,2.821-0.407c-0.213-0.214-0.523-0.437-0.931-0.669l-0.611-0.32c-0.349,0.02-0.747,0.067-1.192,0.146
			c-0.892,0.175-1.57,0.456-2.036,0.844l-1.687,1.512c0.271-0.601,0.736-1.153,1.396-1.657c0.679-0.523,1.735-0.922,3.17-1.192
			c-0.485-0.214-0.892-0.34-1.222-0.379c-0.368-0.038-0.931,0.098-1.687,0.407c-0.931,0.388-1.551,0.883-1.861,1.483
			c-0.233,0.466-0.446,0.901-0.64,1.309c-0.058,0.136-0.087,0.165-0.087,0.088c0-0.233,0.165-0.679,0.494-1.338
			c0.407-0.814,0.833-1.338,1.28-1.57c0.698-0.33,1.347-0.533,1.948-0.611c-0.892-0.097-1.483-0.106-1.774-0.028l-0.436,0.087
			l0.901-0.232c0.659-0.155,1.192-0.204,1.6-0.146L28.223,37.269z"/>
		
			<radialGradient id="SVGID_5_" cx="12.5498" cy="25.3999" r="15.3875" gradientTransform="matrix(0.5816 0 0 -0.5812 15.9499 60.4348)" gradientUnits="userSpaceOnUse">
			<stop  offset="0" style="stop-color:#A9E858"/>
			<stop  offset="1" style="stop-color:#77A63A"/>
		</radialGradient>
		<path style="fill-rule:evenodd;clip-rule:evenodd;fill:url(#SVGID_5_);" d="M18.8,39.362c-0.078,0.136-0.068,0.088,0.029-0.146
			c0.174-0.445,0.32-0.736,0.436-0.872c0.232-0.271,0.611-0.455,1.134-0.553c0.485-0.097,0.999,0.088,1.542,0.553
			c0.853,0.718,1.561,1.212,2.123,1.483c1.066,0.484,1.9,1.415,2.501,2.792c0.31,0.736,0.63,1.657,0.96,2.763
			c0.426,0.892,0.999,1.764,1.716,2.617c0.853,1.008,1.735,1.735,2.646,2.182c0.854,0.426,1.386,1.366,1.6,2.82
			c0.175,1.086,0.999,1.552,2.472,1.396c-0.194,0.193-0.523,0.416-0.989,0.668c-0.911,0.505-2.055,0.922-3.432,1.251
			c-1.241,0.252-2.607,0.349-4.101,0.291c-3.024-0.136-5.215-0.989-6.572-2.56c-1.765-2.036-2.54-4.42-2.327-7.154
			c0.097-1.376,0.562-3.121,1.396-5.234c0.504-1.105,0.805-1.784,0.901-2.036c0.097-0.29-0.039-0.581-0.407-0.872
			c-0.291-0.213-0.552-0.301-0.785-0.262c-0.213,0.039-0.388,0.155-0.523,0.349C19.101,38.878,18.994,39.053,18.8,39.362z"/>
		
			<radialGradient id="SVGID_6_" cx="10.5" cy="27.4502" r="16.25" gradientTransform="matrix(0.5816 0 0 -0.5812 15.9499 62.8196)" gradientUnits="userSpaceOnUse">
			<stop  offset="0.3255" style="stop-color:#A9E858"/>
			<stop  offset="1" style="stop-color:#77A63A"/>
		</radialGradient>
		<path style="fill-rule:evenodd;clip-rule:evenodd;fill:url(#SVGID_6_);" d="M19.44,44.917v-0.436l0.146,0.756
			c0.078,0.329,0.223,0.62,0.436,0.872l0.146-0.581l0.146-1.192l-0.087,2.123l0.756,0.785c0.349,0.368,0.649,0.591,0.901,0.669
			c0-0.271,0.048-0.659,0.146-1.164l0.262-1.337c-0.814-0.466-1.328-1.048-1.542-1.745c-0.136-0.427-0.223-0.795-0.262-1.105v-0.349
			l0.087,0.64c0.116,0.523,0.32,0.97,0.611,1.338c0.485,0.601,0.882,0.872,1.192,0.814l0.32-1.396
			c0.058-0.252,0.271-0.659,0.64-1.222l0.523-0.785l-0.378,0.844c-0.271,0.64-0.436,1.096-0.495,1.367
			c-0.097,0.445-0.155,0.843-0.174,1.192l0.407-0.059c0.31-0.077,0.572-0.165,0.785-0.262c0.349-0.155,0.94-0.601,1.774-1.338
			c-0.194,0.311-0.591,0.757-1.192,1.338c-0.601,0.563-1.231,0.824-1.89,0.785l-0.262,2.589c0.484-0.039,0.999-0.185,1.541-0.437
			c0.524-0.252,0.95-0.494,1.28-0.728c0.02-0.601,0.068-1.057,0.146-1.366c0.039-0.194,0.116-0.397,0.232-0.611l0.146-0.29
			l-0.058,0.843c0,0.388,0.048,0.718,0.146,0.989c0.174-0.098,0.397-0.252,0.669-0.466l0.814-0.698
			c-0.349,0.718-1.153,1.426-2.414,2.123c-1.26,0.698-2.104,1.066-2.53,1.105l0.029,1.338c0,0.602,0.194,1.454,0.582,2.559
			c0.659,0.059,1.512-0.058,2.559-0.349c1.047-0.271,1.726-0.571,2.036-0.901l-0.029-1.134c0-0.214,0.039-0.515,0.116-0.902
			l0.116-0.523l0.146,1.135c0.097,0.542,0.281,0.892,0.553,1.047l2.006-1.658c-0.174,0.35-0.446,0.737-0.814,1.163
			c-0.717,0.873-1.502,1.542-2.355,2.007c-0.872,0.485-1.813,0.805-2.821,0.96l-1.28,0.059l0.233,0.407
			c0.213,0.368,0.514,0.766,0.901,1.191c0.64,0.698,1.687,1.173,3.141,1.426L26.1,56.404c-0.562,0-1.144-0.175-1.745-0.523
			c-0.368-0.213-0.766-0.697-1.192-1.454l-0.523-1.076c-0.291-0.174-0.63-0.427-1.018-0.756c-0.756-0.659-1.337-1.356-1.745-2.094
			c-0.408-0.717-0.688-1.521-0.844-2.414l-0.146-1.134l0.32,1.367c0.136,0.504,0.358,0.93,0.669,1.279l0.087-1.019
			c0.058-0.329,0.068-0.63,0.029-0.901l-0.058-0.29l0.204,0.349c0.116,0.291,0.184,0.61,0.203,0.96
			c0.039,0.581-0.019,1.057-0.174,1.425l0.465,0.64c0.33,0.407,0.921,0.97,1.774,1.687l-0.291-0.844
			c-0.117-0.349-0.213-0.988-0.291-1.919l-0.058-1.279c-1.027-0.698-1.687-1.435-1.978-2.21
			C19.614,45.731,19.498,45.305,19.44,44.917z"/>
		<path style="fill-rule:evenodd;clip-rule:evenodd;fill:#90CC3F;" d="M40.495,50.327c-0.523,1.725-1.832,2.956-3.926,3.692
			c-2.017,0.737-4.498,1.338-7.445,1.803c-1.473,0.233-2.743,0.398-3.81,0.495c0.814-0.155,1.696-0.563,2.646-1.222
			c1.919-1.318,3.208-3.267,3.868-5.846c0.543-2.094,0.814-3.887,0.814-5.38c-0.02-1.163-0.01-1.773,0.029-1.832
			c0.174-0.252,0.417-0.427,0.727-0.523c0.155-0.039,0.708-0.126,1.658-0.262c0.736-0.116,1.279-0.358,1.628-0.728
			c0.213-0.232,0.446-0.678,0.698-1.337c0.252-0.698,0.533-1.105,0.843-1.222l-0.552,1.25c-0.271,0.931-0.146,1.609,0.378,2.036
			c0.64,0.543,1.222,1.328,1.745,2.355c0.523,1.047,0.814,2.026,0.872,2.938C40.786,48.33,40.728,49.59,40.495,50.327z"/>
		<path style="fill-rule:evenodd;clip-rule:evenodd;fill:#6A9431;" d="M40.786,50.327c-0.504,1.725-1.803,2.956-3.897,3.692
			c-2.036,0.737-4.518,1.338-7.445,1.803c-1.474,0.233-2.744,0.398-3.81,0.495c0.814-0.155,1.697-0.563,2.646-1.222
			c1.9-1.318,3.18-3.267,3.839-5.846c0.543-2.094,0.814-3.887,0.814-5.38c-0.02-1.163-0.01-1.773,0.029-1.832
			c0.174-0.252,0.417-0.427,0.727-0.523c0.155-0.039,0.708-0.126,1.658-0.262c0.756-0.116,1.29-0.329,1.6-0.64
			c0.213-0.213,0.427-0.62,0.64-1.222c0.271-0.717,0.485-1.192,0.64-1.425l-0.407,1.25c-0.175,0.931,0,1.609,0.523,2.036
			c0.64,0.523,1.221,1.309,1.745,2.355c0.524,1.047,0.814,2.026,0.873,2.938C41.077,48.33,41.019,49.59,40.786,50.327z"/>
		<path style="fill-rule:evenodd;clip-rule:evenodd;fill:#658C2D;" d="M39.855,43.201c0.485,0.854,0.814,1.697,0.989,2.53
			c-0.078,0.214-0.232,0.514-0.465,0.901c-0.427,0.659-1.26,0.863-2.501,0.611c-1.241-0.232-1.609-0.728-1.105-1.483
			c0.504-0.756,0.717-1.474,0.64-2.152c-0.078-0.64-0.417-1.104-1.018-1.396c-0.407-0.194-0.572-0.553-0.494-1.076
			c0.523-0.136,0.901-0.349,1.134-0.64c0.155-0.194,0.339-0.563,0.552-1.105c0.271-0.717,0.485-1.192,0.64-1.425l-0.407,1.25
			c-0.175,0.931,0,1.609,0.523,2.036C38.886,41.699,39.39,42.349,39.855,43.201z"/>
		<path style="fill-rule:evenodd;clip-rule:evenodd;fill:#8CC63F;" d="M16.765,44.539c0.058-0.175,0.106-0.271,0.145-0.291
			c0.02-0.02,0.078,0.098,0.175,0.35c0.135,0.388,0.727,2.161,1.774,5.322c0.582,1.706,1.745,3.285,3.49,4.739
			c0.853,0.718,1.658,1.271,2.414,1.658c-0.523-0.155-1.153-0.437-1.89-0.844c-1.435-0.853-2.627-1.948-3.577-3.286
			c-1.163-1.629-1.978-3.131-2.443-4.508C16.386,46.284,16.357,45.237,16.765,44.539z"/>
		<path style="fill-rule:evenodd;clip-rule:evenodd;fill:#86C236;" d="M40.815,49.803c-0.504,1.707-1.502,3.18-2.995,4.421
			c-1.687,1.415-3.684,2.229-5.991,2.442c-2.404,0.214-4.411,0.214-6.02,0l-1.658-0.407c0.737,0.116,1.658,0.068,2.763-0.146
			c1.628-0.329,2.995-1.047,4.101-2.151c1.221-1.241,1.997-2.869,2.326-4.886c0.485-3.083,0.94-4.557,1.367-4.421
			c0.078,0.02,0.32,0.116,0.727,0.291c0.388,0.155,0.669,0.204,0.843,0.146c0.039-0.02,0.233-0.232,0.582-0.64
			c0.291-0.368,0.65-0.572,1.076-0.611c0.543-0.058,0.921-0.116,1.134-0.174c0.213-0.059,0.426-0.165,0.64-0.32
			c0.33-0.213,0.833-0.31,1.513-0.291c0.794,0.02,1.23,0.271,1.309,0.757c0.077,0.64,0.058,0.998-0.059,1.075
			c-0.077,0.059-0.232,0-0.466-0.174c-0.193-0.155-0.377-0.232-0.552-0.232c-0.194-0.02-0.311,0.067-0.35,0.262
			c-0.019,0.136,0,0.766,0.059,1.89C41.184,47.913,41.067,48.97,40.815,49.803z"/>
		<path style="fill-rule:evenodd;clip-rule:evenodd;fill:#60872C;" d="M41.105,49.803c-0.503,1.707-1.502,3.18-2.995,4.421
			c-1.687,1.415-3.674,2.229-5.961,2.442c-2.404,0.214-4.411,0.214-6.02,0l-1.687-0.407c0.737,0.116,1.658,0.068,2.763-0.146
			c1.628-0.329,2.995-1.047,4.1-2.151c1.241-1.241,2.017-2.869,2.327-4.886c0.485-3.083,0.94-4.557,1.367-4.421
			c0.078,0.02,0.32,0.116,0.727,0.291c0.388,0.155,0.669,0.204,0.844,0.146c0.058-0.02,0.252-0.232,0.582-0.64
			c0.291-0.368,0.649-0.572,1.076-0.611c0.563-0.058,0.94-0.116,1.134-0.174c0.213-0.059,0.427-0.165,0.64-0.32
			c0.33-0.213,0.795-0.31,1.396-0.291c0.698,0.02,1.076,0.271,1.135,0.757c0.058,0.562,0.077,0.892,0.058,0.988
			c-0.02,0.078-0.116,0.049-0.291-0.087c-0.193-0.155-0.368-0.232-0.522-0.232c-0.194-0.02-0.32,0.067-0.379,0.262
			c-0.02,0.136,0,0.766,0.059,1.89C41.475,47.913,41.358,48.97,41.105,49.803z"/>
		<path style="fill-rule:evenodd;clip-rule:evenodd;fill:#537526;" d="M41.396,44.743c-0.02,0.136,0,0.766,0.059,1.89
			c0.02,1.28-0.097,2.337-0.35,3.17c-0.503,1.707-1.502,3.18-2.995,4.421c-1.687,1.415-3.674,2.229-5.961,2.442
			c-0.117,0.02-0.281,0.029-0.495,0.029c2.404-0.388,4.362-1.279,5.875-2.676c1.222-1.144,1.861-2.269,1.919-3.373
			c0.078-1.59-0.048-3.063-0.378-4.421l-0.523-1.541l0.698-0.291c0.271-0.097,0.494-0.116,0.669-0.058
			c0.252,0.077,0.504,0.116,0.756,0.116c0.408,0,0.679,0.039,0.815,0.116L41.396,44.743z"/>
		
			<use xlink:href="#flash0.ai_x5F_3_x2F_Layer_3_copy_x2F__x3C_Path_x3E__x5F_2_x5F_1"  width="13.75" height="20.55" y="-20.55" transform="matrix(0.5816 0 0 -0.5816 32.9502 44.5)" style="overflow:visible;opacity:0.1992;enable-background:new    ;"/>
		<path style="fill-rule:evenodd;clip-rule:evenodd;fill:#94D142;" d="M19.382,37.908c0.368-0.232,0.873-0.28,1.512-0.146
			c0.33,0.078,0.621,0.175,0.873,0.291c0.155,0.116,0.397,0.33,0.727,0.64c0.232,0.214,0.533,0.407,0.901,0.582
			c0.524,0.232,0.931,0.455,1.222,0.669c0.31,0.232,0.679,0.592,1.105,1.076c0.388,0.445,0.649,0.892,0.785,1.338
			c0.155,0.445,0.155,0.581,0,0.407c-0.058-0.059-0.126,0.106-0.204,0.494c-0.097,0.445-0.223,0.698-0.378,0.756
			c-0.155,0.059-0.271-0.165-0.349-0.669c-0.116-0.563-0.242-0.882-0.378-0.96c-0.174-0.097-0.397,0.088-0.669,0.553
			c-0.349,0.659-0.533,0.989-0.553,0.989c-0.135,0.136-0.32,0.039-0.552-0.291c-0.194-0.311-0.349-0.669-0.465-1.076
			c-0.039-0.193-0.058-0.601-0.058-1.221c0.019-0.505-0.039-0.854-0.175-1.048c-0.136-0.193-0.368-0.358-0.698-0.494l-0.465-0.175
			H21.33c-0.155,0-0.349-0.048-0.582-0.145c-0.271-0.117-0.485-0.252-0.64-0.408c-0.136-0.135-0.369-0.058-0.698,0.233
			c-0.175,0.136-0.397,0.319-0.669,0.553c-0.193,0.097-0.232-0.136-0.116-0.698C18.742,38.577,18.994,38.161,19.382,37.908z"/>
		<g>
			<path style="fill-rule:evenodd;clip-rule:evenodd;fill:#7DB038;" d="M21.33,39.624c-0.155,0-0.349-0.048-0.582-0.145
				c-0.271-0.117-0.485-0.252-0.64-0.408c-0.136-0.135-0.369-0.058-0.698,0.233c-0.175,0.136-0.397,0.319-0.669,0.553
				c-0.135,0.058-0.184-0.088-0.145-0.437c0.233-0.078,0.446-0.204,0.64-0.378l0.523-0.494l0.32-0.059
				c0.213,0,0.329,0.087,0.349,0.262c0.02,0.194,0.155,0.388,0.407,0.582c0.21,0.178,0.414,0.274,0.611,0.29H21.33z"/>
			<path style="fill-rule:evenodd;clip-rule:evenodd;fill:#7DB038;" d="M25.634,43.667c0.097,0,0.213-0.155,0.349-0.466
				c0.136-0.388,0.291-0.727,0.465-1.018c0.077,0.232,0.126,0.407,0.145,0.523c0,0.116-0.029,0.136-0.087,0.059
				c-0.058-0.059-0.126,0.106-0.204,0.494c-0.097,0.445-0.223,0.698-0.378,0.756C25.79,44.074,25.692,43.958,25.634,43.667z"/>
			<path style="fill-rule:evenodd;clip-rule:evenodd;fill:#7DB038;" d="M24.18,42.91c0.155-0.388,0.359-0.649,0.611-0.785
				c0.252-0.135,0.388-0.048,0.407,0.262c-0.174-0.097-0.397,0.088-0.669,0.553c-0.349,0.659-0.533,0.989-0.553,0.989
				c-0.097,0.136-0.262,0.067-0.494-0.204c0.194,0.02,0.33-0.028,0.407-0.146C23.928,43.541,24.025,43.317,24.18,42.91z"/>
		</g>
		<path style="fill-rule:evenodd;clip-rule:evenodd;fill:#C1FA73;" d="M20.08,37.821c-0.078-0.097,0.029-0.106,0.319-0.029
			c0.213,0.059,0.476,0.262,0.786,0.611c0.116,0.174,0.61,0.417,1.483,0.727c0.233,0.136,0.388,0.252,0.465,0.35
			c0.097,0.097,0.155,0.242,0.174,0.436c0.02,0.136,0.126,0.242,0.32,0.32c0.252,0.097,0.417,0.184,0.494,0.262
			c0.407,0.329,0.737,0.484,0.989,0.465c0.174,0,0.369,0.262,0.582,0.785c-0.097-0.193-0.213-0.358-0.349-0.494
			c-0.059-0.039-0.213-0.068-0.465-0.087c-0.233-0.02-0.417-0.088-0.553-0.204c-0.155-0.155-0.271-0.262-0.349-0.319
			c-0.078-0.059-0.232-0.106-0.465-0.146c-0.232-0.039-0.397-0.155-0.494-0.35c-0.078-0.232-0.146-0.406-0.204-0.523
			c-0.116-0.29-0.649-0.571-1.6-0.843c-0.116-0.02-0.232-0.126-0.349-0.32c-0.117-0.174-0.243-0.291-0.378-0.349
			C20.273,38.034,20.138,37.938,20.08,37.821z"/>
	</g>
	<path style="fill-rule:evenodd;clip-rule:evenodd;fill:#446120;" d="M57.392,58.876c1.008,0.33,2.064,0.155,3.17-0.522
		c0.563-0.33,1.018-0.698,1.367-1.105c-0.446,0.563-1.019,1.163-1.717,1.803c-1.414,1.279-2.781,2.143-4.1,2.588
		c-1.59,0.543-3.693,0.737-6.311,0.582c-2.695-0.155-3.461-0.368-2.298-0.64c0.175-0.038,1.59-0.601,4.246-1.687
		C54.522,58.886,56.402,58.547,57.392,58.876z"/>
	<path style="fill-rule:evenodd;clip-rule:evenodd;fill:#6E9C33;" d="M40.524,58.673c1.008,0.116,1.881,0.427,2.617,0.931
		c5.604,0.757,8.26,1.318,7.969,1.687c-0.35,0.446-0.901,0.785-1.658,1.019c-1.318,0.388-3.363,0.523-6.136,0.407
		c-1.26-0.02-2.559-0.301-3.897-0.844c-2.269-0.931-4.188-2.414-5.758-4.45l-0.407-0.552l1.628,0.931
		c1.241,0.62,2.229,0.911,2.966,0.872C39.167,58.635,40.059,58.635,40.524,58.673z"/>
	<g>
		<path style="fill-rule:evenodd;clip-rule:evenodd;fill:#3C571C;" d="M60.591,50.966c0.407-0.407,0.766-0.727,1.075-0.959
			c-0.038,0.039-0.087,0.106-0.145,0.203c-0.116,0.194-0.185,0.427-0.204,0.698c-0.019,0.232,0.029,0.824,0.146,1.774
			c0.039,1.008-0.087,1.88-0.378,2.617c-0.388,0.988-1.027,1.899-1.919,2.733c-1.009,0.911-2.065,1.454-3.171,1.629
			c1.048-2.599,1.939-4.634,2.676-6.107C59.137,52.644,59.776,51.781,60.591,50.966z"/>
		<path style="fill-rule:evenodd;clip-rule:evenodd;fill:#83B83C;" d="M33.021,54.049l1.076,2.53c1.008,1.9,2.297,3.402,3.868,4.508
			c0.95,0.679,2.297,1.163,4.042,1.454c0.893,0.155,1.678,0.232,2.356,0.232c-0.854,0.078-1.852,0.02-2.995-0.175
			c-2.289-0.388-4.188-1.23-5.701-2.529c-1.628-1.396-2.559-2.821-2.792-4.275L33.021,54.049z"/>
		<path style="fill-rule:evenodd;clip-rule:evenodd;fill:#6B9630;" d="M52.215,41.05l0.669,0.436c0.078,0,0.291-0.067,0.64-0.203
			c0.35-0.116,0.602-0.077,0.757,0.116c0.271,0.311,0.455,0.649,0.552,1.018l0.175,0.379c0.175,0.213,0.378,0.242,0.611,0.087
			c0.349-0.271,0.707-0.582,1.075-0.931l-0.581,1.541c-0.368,1.086-0.533,1.755-0.494,2.007c0.038,0.329-0.737,0.543-2.327,0.64
			c-1.609,0.116-2.568-0.02-2.879-0.407c-0.252-0.31-0.504-0.833-0.756-1.57l-0.32-0.988c0.484-0.155,0.931-0.515,1.338-1.076
			c0.232-0.311,0.484-0.698,0.756-1.164C51.585,40.739,51.847,40.778,52.215,41.05z"/>
		<path style="fill-rule:evenodd;clip-rule:evenodd;fill:#5C822A;" d="M38.256,47.68c0.388,0.485,0.805,2.841,1.25,7.067
			c0.213,2.094,0.388,4.149,0.524,6.165c-0.388-0.058-0.854-0.291-1.396-0.697c-1.047-0.814-1.919-2.104-2.617-3.868
			c-0.892-2.288-1.406-4.44-1.542-6.456c-0.136-1.939,0.116-2.89,0.756-2.851c0.562,0.039,0.824,0.146,0.785,0.32l0.61-0.494
			C37.131,46.672,37.674,46.943,38.256,47.68z"/>
		<path style="fill-rule:evenodd;clip-rule:evenodd;fill:#89BF3F;" d="M40.786,53.642c-2.424-3.005-3.122-5.816-2.094-8.434
			l1.105-1.774c1.163-1.26,2.801-2.025,4.915-2.297c2.579-0.349,4.828-0.136,6.747,0.64c1.958,0.814,3.296,2.133,4.014,3.955
			c0.834,2.152,0.64,4.634-0.582,7.445c-1.357,3.103-3.383,4.701-6.078,4.798C45.866,58.072,43.189,56.628,40.786,53.642z"/>
		<path style="fill-rule:evenodd;clip-rule:evenodd;fill:#689131;" d="M40.35,42.939l1.28,0.873c1.065,0.601,2.19,0.959,3.373,1.075
			c1.861,0.194,3.044,0.417,3.548,0.67v1.832c0.038,1.318,0.174,2.229,0.407,2.733c0.349,0.775,0.911,1.338,1.687,1.687l0.029,1.513
			c-0.059,1.046-0.301,1.716-0.727,2.006c-0.427,0.291-2.521-0.503-6.282-2.384l-5.496-2.908c0.271-1.066,0.552-2.143,0.843-3.229
			c0.582-2.19,0.912-3.345,0.989-3.461C40.136,43.114,40.253,42.979,40.35,42.939z"/>
		<path style="fill-rule:evenodd;clip-rule:evenodd;fill:#A5E64C;" d="M52.128,42.62c-0.718,0-1.153,0.106-1.309,0.319
			c-0.155,0.214-0.252,0.417-0.291,0.611c-0.02,0.097-0.028,0.174-0.028,0.232l0.813,0.291c0.601,0.368,1.057,0.998,1.367,1.89
			c0.311,0.873,0.281,1.843-0.088,2.908c-0.174,0.523-0.388,0.96-0.64,1.31c0.252-1.28,0.252-2.473,0-3.577
			c-0.193-0.873-0.475-1.493-0.843-1.861c-0.214-0.214-0.466-0.397-0.756-0.553l-0.379-0.175c-1.047-0.077-2.035-0.048-2.966,0.088
			c-0.582,0.077-1.222,0.339-1.92,0.784l-0.901,0.641l0.582-0.582c0.445-0.407,0.872-0.718,1.279-0.931
			c0.64-0.311,1.667-0.446,3.083-0.407c-0.253-0.252-0.602-0.494-1.047-0.727l-0.64-0.35c-0.389,0.02-0.824,0.068-1.309,0.146
			c-0.97,0.194-1.707,0.504-2.211,0.931l-1.803,1.629l0.349-0.582c0.33-0.465,0.717-0.872,1.163-1.222
			c0.718-0.562,1.861-0.988,3.432-1.279c-0.523-0.232-0.96-0.368-1.309-0.407c-0.427-0.038-1.037,0.107-1.832,0.437
			c-1.009,0.407-1.687,0.94-2.036,1.6c-0.251,0.504-0.484,0.979-0.697,1.425c-0.059,0.136-0.088,0.165-0.088,0.087
			c0-0.252,0.175-0.736,0.524-1.454c0.445-0.892,0.911-1.454,1.396-1.687c0.775-0.368,1.482-0.591,2.123-0.669
			c-0.97-0.116-1.619-0.136-1.949-0.058l-0.465,0.116l0.96-0.262c0.736-0.175,1.318-0.223,1.745-0.146l0.378,0.059l0.407-0.117
			c0.329-0.077,0.61-0.116,0.843-0.116l0.814,0.029l-1.716,0.378l1.454,0.728v-0.146c0.116-0.116,0.437-0.252,0.96-0.407
			c0.853-0.232,1.734-0.214,2.646,0.058c-1.163-0.077-1.881-0.048-2.152,0.088c-0.174,0.077-0.407,0.213-0.698,0.407l-0.349,0.29
			l0.988,0.611c0.214,0.116,0.389,0.281,0.524,0.494l0.349-0.407c0.29-0.29,0.64-0.475,1.047-0.553
			c0.64-0.136,1.386-0.097,2.239,0.117C52.846,42.61,52.496,42.601,52.128,42.62z"/>
		
			<radialGradient id="SVGID_7_" cx="42.0498" cy="33.4004" r="16.725" gradientTransform="matrix(0.5816 0 0 -0.5812 15.9499 69.739)" gradientUnits="userSpaceOnUse">
			<stop  offset="0" style="stop-color:#A9E858"/>
			<stop  offset="1" style="stop-color:#77A63A"/>
		</radialGradient>
		<path style="fill-rule:evenodd;clip-rule:evenodd;fill:url(#SVGID_7_);" d="M50.703,56.899c0.601,2.112,1.773,3.082,3.519,2.908
			c-0.213,0.213-0.572,0.455-1.076,0.727c-1.008,0.563-2.249,1.018-3.723,1.367c-1.337,0.271-2.83,0.368-4.479,0.29
			c-3.276-0.136-5.661-1.057-7.154-2.763c-1.919-2.21-2.763-4.798-2.53-7.765c0.116-1.454,0.63-3.354,1.541-5.7
			c0.563-1.201,0.882-1.938,0.96-2.21c0.116-0.329-0.029-0.649-0.437-0.959c-0.582-0.446-1.057-0.408-1.425,0.115
			c-0.02,0.039-0.136,0.224-0.349,0.553c-0.078,0.155-0.068,0.098,0.029-0.174c0.232-0.505,0.397-0.814,0.494-0.931
			c0.252-0.311,0.659-0.514,1.222-0.611c0.523-0.097,1.085,0.116,1.687,0.64c0.912,0.757,1.677,1.28,2.297,1.571
			c1.861,0.853,4.101,1.435,6.718,1.744c-0.155-0.02-0.136,0.854,0.059,2.618c0.174,1.841,0.514,3.063,1.018,3.664
			c0.388,0.465,0.718,1.211,0.989,2.239C50.199,54.805,50.412,55.697,50.703,56.899z"/>
		
			<radialGradient id="SVGID_8_" cx="39.8501" cy="35.5996" r="17.65" gradientTransform="matrix(0.5816 0 0 -0.5812 15.9499 72.2972)" gradientUnits="userSpaceOnUse">
			<stop  offset="0.3255" style="stop-color:#A9E858"/>
			<stop  offset="1" style="stop-color:#77A63A"/>
		</radialGradient>
		<path style="fill-rule:evenodd;clip-rule:evenodd;fill:url(#SVGID_8_);" d="M41.077,45.906l-0.437,0.931
			c-0.291,0.679-0.465,1.173-0.523,1.483c-0.097,0.484-0.165,0.911-0.204,1.279l0.437-0.088c0.349-0.058,0.639-0.145,0.873-0.262
			c0.387-0.174,1.027-0.659,1.919-1.454c-0.213,0.35-0.64,0.834-1.279,1.454c-0.659,0.621-1.348,0.901-2.065,0.844l-0.291,2.82
			L40,52.828c0.427-0.078,0.824-0.204,1.193-0.379c0.582-0.271,1.037-0.543,1.366-0.813c0.039-0.621,0.098-1.105,0.175-1.454
			c0.039-0.214,0.116-0.446,0.232-0.698l0.175-0.291l-0.058,0.931c0,0.407,0.048,0.756,0.146,1.047l0.727-0.466l0.901-0.784
			c-0.097,0.193-0.271,0.436-0.523,0.727c-0.543,0.601-1.24,1.135-2.094,1.6c-1.377,0.756-2.298,1.153-2.763,1.192l0.058,1.425
			c0,0.659,0.204,1.59,0.611,2.792h0.756c0.64-0.039,1.318-0.155,2.036-0.349c1.124-0.311,1.86-0.641,2.21-0.989l-0.059-1.251
			c0-0.232,0.049-0.563,0.146-0.988l0.116-0.553l0.175,1.251c0.097,0.581,0.3,0.959,0.611,1.134l0.261-0.262
			c0.175-0.175,0.805-0.688,1.891-1.541c-0.194,0.368-0.484,0.785-0.873,1.25c-0.756,0.95-1.608,1.678-2.559,2.182
			c-0.95,0.523-1.978,0.862-3.082,1.018l-1.368,0.087l0.233,0.437c0.232,0.407,0.563,0.844,0.989,1.309
			c0.445,0.466,1.153,0.863,2.122,1.192c0.485,0.175,0.922,0.291,1.309,0.349l-1.57,0.059c-0.62,0-1.25-0.194-1.891-0.581
			c-0.406-0.233-0.842-0.757-1.308-1.571l-0.553-1.163c-0.329-0.193-0.698-0.465-1.105-0.814c-0.833-0.718-1.463-1.474-1.89-2.268
			c-0.427-0.796-0.737-1.678-0.931-2.646l-0.146-1.222l0.349,1.482c0.136,0.563,0.378,1.027,0.727,1.396l0.087-1.135
			c0.058-0.367,0.068-0.688,0.029-0.959l-0.058-0.32l0.204,0.378c0.155,0.33,0.242,0.688,0.262,1.076
			c0.019,0.621-0.058,1.135-0.232,1.542l0.523,0.669c0.349,0.445,0.989,1.065,1.92,1.86l-0.32-0.931
			c-0.116-0.388-0.213-1.085-0.291-2.093l-0.059-1.396c-1.124-0.756-1.851-1.552-2.181-2.385c-0.193-0.504-0.31-0.97-0.349-1.396
			v-0.465l0.146,0.814c0.078,0.349,0.232,0.659,0.465,0.931l0.146-0.61l0.174-1.31l-0.087,2.298l0.814,0.872
			c0.368,0.407,0.688,0.649,0.96,0.728c0.019-0.311,0.077-0.737,0.174-1.279l0.291-1.454c-0.892-0.485-1.454-1.105-1.687-1.861
			c-0.155-0.466-0.243-0.873-0.262-1.222v-0.378l0.087,0.697c0.117,0.543,0.339,1.019,0.669,1.426
			c0.504,0.659,0.93,0.959,1.279,0.901l0.349-1.513c0.058-0.271,0.291-0.717,0.698-1.338C40.689,46.439,40.883,46.158,41.077,45.906
			z"/>
		<path style="fill-rule:evenodd;clip-rule:evenodd;fill:#90CC3F;" d="M55.764,43.289c0.174-0.485,0.387-0.854,0.639-1.105
			c0.117-0.116,0.214-0.193,0.291-0.232l-0.61,1.366c-0.291,0.989-0.155,1.726,0.407,2.211c0.698,0.581,1.328,1.425,1.891,2.53
			c0.563,1.144,0.872,2.22,0.93,3.228c0.136,1.9,0.078,3.276-0.174,4.13c-0.563,1.86-1.978,3.199-4.246,4.013
			c-2.21,0.776-4.915,1.426-8.114,1.949l-4.129,0.523c0.892-0.155,1.852-0.602,2.879-1.338c2.074-1.435,3.47-3.548,4.188-6.34
			c0.601-2.269,0.892-4.217,0.872-5.846c0-1.279,0.02-1.948,0.059-2.007c0.194-0.271,0.456-0.455,0.785-0.553
			c0.175-0.038,0.775-0.136,1.803-0.29c0.796-0.116,1.387-0.378,1.774-0.785C55.239,44.491,55.491,44.006,55.764,43.289z"/>
		<path style="fill-rule:evenodd;clip-rule:evenodd;fill:#6A9431;" d="M55.995,43.492l0.698-1.541l-0.465,1.366
			c-0.175,0.989,0.02,1.726,0.581,2.211c0.698,0.581,1.328,1.425,1.891,2.53c0.563,1.144,0.882,2.22,0.96,3.228
			c0.116,1.939,0.049,3.315-0.204,4.13c-0.563,1.86-1.977,3.199-4.245,4.013c-2.211,0.776-4.915,1.426-8.114,1.949l-4.13,0.523
			c0.893-0.155,1.853-0.602,2.88-1.338c2.074-1.435,3.479-3.548,4.217-6.34c0.581-2.269,0.862-4.217,0.843-5.846
			c0-1.279,0.02-1.948,0.059-2.007c0.193-0.271,0.455-0.455,0.785-0.553c0.174-0.038,0.775-0.136,1.803-0.29
			c0.814-0.116,1.387-0.35,1.716-0.698C55.501,44.617,55.744,44.171,55.995,43.492z"/>
		<path style="fill-rule:evenodd;clip-rule:evenodd;fill:#658C2D;" d="M56.693,41.951l-0.465,1.366
			c-0.175,0.989,0.02,1.726,0.581,2.211c0.602,0.504,1.154,1.212,1.658,2.122c0.504,0.912,0.853,1.823,1.047,2.734
			c-0.097,0.291-0.262,0.62-0.494,0.989c-0.466,0.717-1.377,0.939-2.734,0.668c-1.338-0.252-1.735-0.785-1.192-1.6
			c0.563-0.833,0.796-1.608,0.698-2.326c-0.097-0.717-0.465-1.231-1.105-1.541c-0.445-0.233-0.62-0.621-0.522-1.163
			c0.562-0.155,0.969-0.389,1.221-0.698c0.194-0.214,0.397-0.621,0.61-1.222L56.693,41.951z"/>
		<path style="fill-rule:evenodd;clip-rule:evenodd;fill:#8CC63F;" d="M33.777,47.215c0.388-0.484,0.63-0.708,0.727-0.669
			c0.097,0.059,0.174,0.407,0.232,1.047c0.194,2.889,0.495,5.342,0.902,7.357c0.368,1.92,1.551,3.655,3.548,5.206
			c1.008,0.775,1.968,1.357,2.879,1.745c-0.581-0.155-1.27-0.466-2.065-0.931c-1.57-0.911-2.869-2.095-3.896-3.549
			c-1.202-1.687-2.036-3.645-2.501-5.874C33.137,49.396,33.196,47.951,33.777,47.215z"/>
		<path style="fill-rule:evenodd;clip-rule:evenodd;fill:#86C236;" d="M59.863,51.402c0.02,1.396-0.106,2.54-0.378,3.432
			c-0.542,1.842-1.629,3.441-3.257,4.799c-1.823,1.531-3.984,2.413-6.485,2.646c-2.617,0.252-4.789,0.252-6.514,0l-1.833-0.465
			l0.814,0.058c0.679,0.02,1.396-0.049,2.152-0.203c1.783-0.35,3.276-1.125,4.479-2.327c1.337-1.357,2.181-3.121,2.53-5.293
			c0.523-3.354,1.018-4.963,1.483-4.827c0.096,0.039,0.358,0.154,0.784,0.349c0.427,0.155,0.728,0.204,0.901,0.146
			c0.04-0.02,0.253-0.252,0.641-0.698c0.329-0.388,0.727-0.61,1.192-0.669c0.601-0.077,1.008-0.146,1.221-0.203
			c0.233-0.059,0.466-0.165,0.698-0.32c0.35-0.252,0.901-0.368,1.658-0.349c0.853,0.02,1.318,0.301,1.396,0.844
			c0.097,0.678,0.078,1.065-0.058,1.163c-0.098,0.058-0.271-0.01-0.524-0.204c-0.213-0.154-0.407-0.242-0.581-0.262
			c-0.194,0-0.32,0.098-0.378,0.291C59.767,49.464,59.786,50.161,59.863,51.402z"/>
		<path style="fill-rule:evenodd;clip-rule:evenodd;fill:#60872C;" d="M60.184,51.402c0.02,1.396-0.107,2.54-0.378,3.432
			c-0.543,1.842-1.629,3.441-3.258,4.799c-1.822,1.531-3.983,2.413-6.484,2.646c-2.617,0.252-4.789,0.252-6.515,0l-1.832-0.465
			l0.814,0.058c0.698,0.02,1.415-0.049,2.152-0.203c1.783-0.35,3.275-1.125,4.478-2.327c1.339-1.357,2.182-3.121,2.53-5.293
			c0.523-3.354,1.019-4.963,1.483-4.827c0.097,0.039,0.358,0.154,0.785,0.349c0.427,0.155,0.727,0.204,0.901,0.146
			c0.039-0.02,0.252-0.252,0.64-0.698c0.33-0.388,0.728-0.61,1.192-0.669c0.602-0.077,1.009-0.146,1.222-0.203
			c0.232-0.059,0.466-0.165,0.698-0.32c0.349-0.252,0.853-0.368,1.512-0.349c0.757,0.02,1.164,0.301,1.222,0.844
			c0.059,0.62,0.078,0.969,0.059,1.047c-0.02,0.077-0.126,0.048-0.32-0.088c-0.193-0.154-0.378-0.242-0.553-0.262
			c-0.213,0-0.349,0.098-0.407,0.291C60.087,49.464,60.106,50.161,60.184,51.402z"/>
		<path style="fill-rule:evenodd;clip-rule:evenodd;fill:#537526;" d="M60.125,49.309c-0.038,0.155-0.019,0.853,0.059,2.094
			c0.02,1.396-0.107,2.54-0.378,3.432c-0.543,1.842-1.629,3.441-3.258,4.799c-1.822,1.531-3.983,2.413-6.484,2.646l-0.523,0.058
			c2.617-0.427,4.74-1.396,6.368-2.908c1.338-1.26,2.036-2.491,2.094-3.693c0.078-1.726-0.058-3.324-0.407-4.798l-0.552-1.658
			l0.756-0.319c0.311-0.116,0.543-0.146,0.698-0.088c0.31,0.078,0.591,0.117,0.843,0.117c0.388,0,0.679,0.048,0.872,0.145
			L60.125,49.309z"/>
		
			<use xlink:href="#flash0.ai_x5F_3_x2F_Layer_3_copy_x2F__x3C_Path_x3E__x5F_2_x5F_2"  width="14.95" height="22.35" y="-22.35" transform="matrix(0.5816 0 0 -0.5816 51 49.0996)" style="overflow:visible;opacity:0.1992;enable-background:new    ;"/>
		<path style="fill-rule:evenodd;clip-rule:evenodd;fill:#94D142;" d="M40.873,43.579c0.33,0.175,0.854,0.407,1.57,0.698
			c0.834,0.368,2.686,0.844,5.555,1.425c-0.175,0.039-0.378,0.185-0.61,0.437c-0.427,0.504-0.747,1.261-0.96,2.269
			c-0.136,0.679-0.358,1.037-0.669,1.076l-0.407-0.175c-0.504-0.193-0.717-0.591-0.64-1.192l0.262-0.844l-0.553,0.757
			c-0.31,0.445-0.475,0.679-0.494,0.697c-0.252,0.214-0.697,0.35-1.338,0.407c-0.601,0.078-1.027-0.494-1.279-1.716
			c-0.175-1.299-0.311-2.025-0.407-2.181c-0.136-0.214-0.465-0.358-0.989-0.437c-0.426-0.077-0.902-0.087-1.425-0.029
			c-0.369,0.039-0.659-0.203-0.873-0.727l-0.204-0.814c-0.252,0-0.563,0.194-0.931,0.582c-0.233,0.252-0.437,0.388-0.611,0.407
			l-0.174-0.029c-0.116-0.214-0.155-0.514-0.116-0.901c0.058-0.407,0.145-0.718,0.262-0.931c0.194-0.33,0.514-0.553,0.959-0.669
			c0.931-0.271,1.813,0.029,2.646,0.901C39.836,42.979,40.311,43.309,40.873,43.579z"/>
		<g>
			<path style="fill-rule:evenodd;clip-rule:evenodd;fill:#7DB038;" d="M37.471,42.766l-0.087,0.465
				c-0.232,0-0.533,0.194-0.901,0.582c-0.233,0.252-0.437,0.388-0.611,0.407l-0.174-0.029l-0.116-0.407
				c0.155,0.058,0.378-0.029,0.668-0.262C36.772,43.056,37.18,42.804,37.471,42.766z"/>
			<path style="fill-rule:evenodd;clip-rule:evenodd;fill:#7DB038;" d="M46.486,46.778c0.445-0.426,0.707-0.669,0.784-0.727
				c0.291-0.233,0.495-0.33,0.611-0.291c-0.232,0.097-0.466,0.311-0.698,0.64c-0.349,0.484-0.601,1.153-0.756,2.007
				c-0.136,0.679-0.358,1.037-0.669,1.076l-0.407-0.175c-0.445-0.193-0.668-0.543-0.668-1.047c0.077,0.601,0.367,0.843,0.872,0.728
				c0.193-0.059,0.329-0.359,0.406-0.902C46.06,47.467,46.233,47.03,46.486,46.778z"/>
			<path style="fill-rule:evenodd;clip-rule:evenodd;fill:#7DB038;" d="M40.408,44.598c0.35,0.193,0.514,0.407,0.495,0.64
				c-0.136-0.214-0.465-0.358-0.989-0.437c-0.426-0.077-0.902-0.087-1.425-0.029c-0.194,0.02-0.378-0.058-0.553-0.232
				c0.155,0.02,0.368-0.01,0.64-0.087c0.31-0.078,0.582-0.116,0.814-0.116C39.758,44.336,40.098,44.423,40.408,44.598z"/>
			<path style="fill-rule:evenodd;clip-rule:evenodd;fill:#7DB038;" d="M43.927,47.884c0.155-0.271,0.301-0.484,0.437-0.64
				c0.252-0.271,0.571-0.523,0.959-0.757c-0.058,0.078-0.126,0.185-0.203,0.32c-0.136,0.252-0.242,0.484-0.32,0.698l-0.378,0.523
				c-0.174,0.31-0.329,0.533-0.465,0.669c-0.232,0.213-0.64,0.358-1.222,0.436c0.271-0.097,0.504-0.252,0.698-0.465
				C43.588,48.455,43.752,48.194,43.927,47.884z"/>
		</g>
		<path style="fill-rule:evenodd;clip-rule:evenodd;fill:#C1FA73;" d="M40.844,43.929c0.078,0.058,0.271,0.232,0.582,0.523
			c0.194,0.193,0.368,0.311,0.523,0.349c0.058,0.02,0.311,0.02,0.756,0c0.369,0,0.64,0.059,0.814,0.175
			c0.136,0.077,0.291,0.203,0.466,0.378c0.174,0.155,0.329,0.271,0.465,0.349c0.136,0.098,0.339,0.146,0.61,0.146
			c0.271,0.02,0.437,0.039,0.495,0.059c0.17,0.075,0.33,0.226,0.479,0.451c-0.077-0.111-0.207-0.214-0.393-0.306
			c-0.175-0.098-0.533-0.146-1.076-0.146c-0.154,0-0.358-0.078-0.61-0.232c-0.232-0.155-0.417-0.33-0.553-0.523
			c-0.116-0.175-0.358-0.243-0.727-0.204c-0.582,0.039-0.883,0.059-0.901,0.059c-0.233-0.02-0.495-0.165-0.786-0.437
			c-0.271-0.311-0.456-0.504-0.552-0.582c-0.136-0.116-0.378-0.242-0.727-0.378c-0.368-0.136-0.659-0.203-0.873-0.203
			c-0.194,0-0.388-0.116-0.582-0.35c-0.019-0.019-0.155-0.203-0.407-0.552c-0.194-0.271-0.563-0.379-1.105-0.32
			c-0.427,0.155-0.591,0.185-0.495,0.087c0.155-0.193,0.369-0.31,0.64-0.349c0.232-0.02,0.456,0.02,0.668,0.116
			c0.388,0.155,0.679,0.417,0.873,0.785c0.117,0.155,0.223,0.262,0.32,0.32c0.078,0.02,0.242,0.048,0.494,0.087
			C39.788,43.327,40.321,43.561,40.844,43.929z"/>
	</g>
</g>
</svg>
