<?xml version="1.0" encoding="iso-8859-1"?>
<!-- Generator: Adobe Illustrator 15.1.0, SVG Export Plug-In . SVG Version: 6.00 Build 0)  -->
<!DOCTYPE svg PUBLIC "-//W3C//DTD SVG 1.1//EN" "http://www.w3.org/Graphics/SVG/1.1/DTD/svg11.dtd">
<svg version="1.1" id="flash0.ai" xmlns="http://www.w3.org/2000/svg" xmlns:xlink="http://www.w3.org/1999/xlink" x="0px" y="0px"
	 width="67.6px" height="22.75px" viewBox="0 0 67.6 22.75" style="enable-background:new 0 0 67.6 22.75;" xml:space="preserve">
<symbol  id="flash0.ai_x5F_0_x2F_Layer_4_x2F__x3C_Path_x3E__x5F_30" viewBox="-0.052 -4.75 3.552 4.75">
	<g id="Layer_1_7_">
		<path style="fill-rule:evenodd;clip-rule:evenodd;fill:#B4BFD4;" d="M3.5,0C3.467-0.033,3.433-0.633,3.4-1.8
			c0-1.2-0.15-1.967-0.45-2.3c-0.333-0.4-0.8-0.617-1.4-0.65c-0.333,0-0.767,0.033-1.3,0.1c-0.433,0-0.4,1.1,0.1,3.3L3.5,0z"/>
	</g>
</symbol>
<symbol  id="flash0.ai_x5F_0_x2F_Layer_4_x2F__x3C_Path_x3E__x5F_31" viewBox="0 -3.361 2.75 3.385">
	<g id="Layer_1_6_">
		<path style="fill-rule:evenodd;clip-rule:evenodd;fill:#B4BFD4;" d="M2.75-1.3C2.617-2.533,2.133-3.217,1.3-3.35
			C0.5-3.483,0.067-2.433,0-0.2L0.75,0C1.283,0.133,1.95-0.3,2.75-1.3z"/>
	</g>
</symbol>
<symbol  id="flash0.ai_x5F_0_x2F_Layer_4_x2F__x3C_Path_x3E__x5F_32" viewBox="-0.023 -1.892 1.723 1.892">
	<g id="Layer_1_5_">
		<path style="fill-rule:evenodd;clip-rule:evenodd;fill:#B4BFD4;" d="M1.35,0L1.7-1.85C0.733-1.983,0.167-1.8,0-1.3
			C-0.133-0.8,0.317-0.367,1.35,0z"/>
	</g>
</symbol>
<symbol  id="flash0.ai_x5F_0_x2F_Layer_4_x2F__x3C_Path_x3E__x5F_33" viewBox="0 -2.806 2.9 2.806">
	<g id="Layer_1_4_">
		<path style="fill-rule:evenodd;clip-rule:evenodd;fill:#B4BFD4;" d="M2.9,0C2.767-1,2.317-1.817,1.55-2.45
			C1.083-2.817,0.683-2.9,0.35-2.7C0.183-2.6,0.067-2.45,0-2.25L1-0.4L2.9,0z"/>
	</g>
</symbol>
<symbol  id="flash0.ai_x5F_0_x2F_Layer_4_x2F__x3C_Path_x3E__x5F_34" viewBox="0 -3.552 2.836 3.552">
	<g id="Layer_1_3_">
		<path style="fill-rule:evenodd;clip-rule:evenodd;fill:#B4BFD4;" d="M2.8-1.1c0.133-1.133-0.1-1.883-0.7-2.25S0.8-3.583,0-2.95
			L0.75,0l0.9-0.15C2.25-0.283,2.633-0.6,2.8-1.1z"/>
	</g>
</symbol>
<symbol  id="flash0.ai_x5F_0_x2F_Layer_4_x2F__x3C_Path_x3E__x5F_35" viewBox="0 -6.387 7.05 6.387">
	<g id="Layer_1_2_">
		<path style="fill-rule:evenodd;clip-rule:evenodd;fill:#B4BFD4;" d="M7.05-3.55c0-0.333-0.183-0.717-0.55-1.15
			C6.067-5.2,5.583-5.5,5.05-5.6c-0.767-0.367-1.367-0.6-1.8-0.7C2.517-6.533,1.767-6.3,1-5.6C0.333-4.367,0-3.433,0-2.8v0.9
			c0.433,0.133,1.283,0.267,2.55,0.4C3.817-1.367,5.233-0.867,6.8,0L7.05-3.55z"/>
	</g>
</symbol>
<path style="fill-rule:evenodd;clip-rule:evenodd;fill:#BECDEC;" d="M32,11.4c-0.2-0.033-1.25,0.217-3.15,0.75l-2.75,0.8
	c-1.6,0.467-2.517,0.583-2.75,0.35c-0.167-0.133-0.533-0.316-1.1-0.55c-0.533-0.2-0.867-0.3-1-0.3c-1.7,0.566-2.6,0.833-2.7,0.8
	l-2-0.45c-1.6-0.434-2.466-0.649-2.6-0.649L12,11.85l-0.8-1.3l0.5-0.7l0.75-0.8c0.233-0.066,0.617-0.316,1.15-0.75
	c0.533-0.433,0.816-0.733,0.85-0.9l1.4-1.6l1.4,0.15L18.1,4.3l1.7-2c0.1-0.1,0.233-0.45,0.4-1.05c0.133-0.533,0.2-0.883,0.2-1.05
	c0-0.133,0.45-0.067,1.35,0.2c0.467,0.167,0.917,0.333,1.35,0.5l1.5,2.25c0.133,0.233,0.816,1.15,2.05,2.75l1.55,0.3l2.85,2.75
	c0.967,0.533,1.483,0.867,1.55,1c0.066,0.133,0.1,0.466,0.1,1C32.533,11.283,32.3,11.433,32,11.4z"/>
<path style="fill-rule:evenodd;clip-rule:evenodd;fill:#A1AEC9;" d="M23.1,0.9c0.267,0.167,0.783,1.033,1.55,2.6
	c-0.2,0.1-0.383,0.117-0.55,0.05h-1.15L22.7,2.5L23.1,0.9z"/>
<path style="fill-rule:evenodd;clip-rule:evenodd;fill:#A1AEC9;" d="M26.65,5.9l-0.9,1.05l-0.9-0.6L24.2,5.3l0.55-0.35
	c0.067,0,0.233-0.034,0.5-0.1c0.3-0.033,0.467-0.017,0.5,0.05C25.817,5.033,26.117,5.367,26.65,5.9z"/>
<path style="fill-rule:evenodd;clip-rule:evenodd;fill:#A1AEC9;" d="M28.2,6.2l1.05,1.1c0.167,0.133,0.3,0.35,0.4,0.65l-0.55,0.2
	L28.5,8.1L27.7,7L28.2,6.2z"/>
<path style="fill-rule:evenodd;clip-rule:evenodd;fill:#A1AEC9;" d="M26.95,7.7c-0.133-0.067-0.217-0.1-0.25-0.1
	c-0.133,0-0.017,0.117,0.35,0.35c0.534,0.4,0.8,1.066,0.8,2l-0.95-0.5l-1.25,0.3v-1.4L26.5,7.3L26.95,7.7z"/>
<path style="fill-rule:evenodd;clip-rule:evenodd;fill:#A1AEC9;" d="M30.5,9.8c0.567,0.434,0.8,0.717,0.7,0.85
	c-0.067,0.1-0.25,0.15-0.55,0.15l-0.95,0.05v-1L30.5,9.8z"/>
<polygon style="fill-rule:evenodd;clip-rule:evenodd;fill:#A1AEC9;" points="32.6,9.95 32.7,10.95 32.45,11.05 31.55,10.95 31.7,10 
	"/>
<polygon style="fill-rule:evenodd;clip-rule:evenodd;fill:#A1AEC9;" points="22.65,8.2 23.1,8.7 23.5,8.9 24.2,10.15 25,11.2 
	24.85,12.4 23.6,13.4 22.7,13 22.5,12.05 22.9,11.4 22.8,9.75 21.75,7.7 "/>
<path style="fill-rule:evenodd;clip-rule:evenodd;fill:#A1AEC9;" d="M21.4,11.8l-0.15,0.65c-0.433,0.2-0.767,0.316-1,0.35l-1.7,0.45
	l0.75-1.05l0.15-2.05l0.4-0.95l0.1-0.5l-0.5-0.75L20.5,9.2l0.15,1.45L21.4,11.8z"/>
<polygon style="fill-rule:evenodd;clip-rule:evenodd;fill:#A1AEC9;" points="17.8,12.05 17.4,11.8 17.25,10.65 17.6,9.25 17.9,8.55 
	18.5,9.25 18.35,10.15 "/>
<polygon style="fill-rule:evenodd;clip-rule:evenodd;fill:#A1AEC9;" points="16,9.95 15.65,10.75 15.15,10.6 15,9.6 15.55,9.45 
	15.25,8.2 16.05,8.75 "/>
<path style="fill-rule:evenodd;clip-rule:evenodd;fill:#A1AEC9;" d="M20.8,6c-0.066-0.267-0.15-0.55-0.25-0.85
	c-0.133-0.533-0.167-0.816-0.1-0.85l1-0.45l0.2,1.1L22.6,6.1l-0.8,0.65L20.75,6.7L20.8,6z"/>
<polygon style="fill-rule:evenodd;clip-rule:evenodd;fill:#A1AEC9;" points="18.95,5.9 19.4,6.95 18.85,7.3 17.9,6.7 18,5.9 "/>
<path style="fill-rule:evenodd;clip-rule:evenodd;fill:#A1AEC9;" d="M24.5,7.8l0.3,0.7l-0.45,0.25l-0.55-1
	c-0.066-0.067,0.034-0.083,0.3-0.05C24.233,7.733,24.367,7.767,24.5,7.8z"/>
<polygon style="fill-rule:evenodd;clip-rule:evenodd;fill:#A1AEC9;" points="25.7,10.2 26.5,10.25 26.65,10.8 27.65,11.85 
	27.3,12.55 26.1,12.95 25.45,12.2 25.5,11.35 "/>
<polygon style="fill-rule:evenodd;clip-rule:evenodd;fill:#A1AEC9;" points="21.35,3.1 21.05,2.55 21.6,2.45 22.05,2.45 22.05,2.9 
	21.85,3.15 21.55,3.35 "/>
<polygon style="fill-rule:evenodd;clip-rule:evenodd;fill:#A1AEC9;" points="28.35,10.05 29.4,11.6 28.55,11.8 27.9,11.55 "/>
<path style="fill-rule:evenodd;clip-rule:evenodd;fill:#E6E6F0;" d="M23.1,0.9c0.033,0.3-0.033,0.517-0.2,0.65
	c-0.1,0.1-0.2,0.284-0.3,0.55c-0.033,0.133-0.067,0.267-0.1,0.4l-0.9-0.05v-1l-0.45,0.9L19.8,2.3c0-0.133,0-0.3,0-0.5
	c0.034-0.367,0.083-0.65,0.15-0.85c0.133-0.3,0.283-0.55,0.45-0.75L20.9,0l1.45,0.6C22.75,0.7,23,0.8,23.1,0.9z"/>
<polygon style="fill-rule:evenodd;clip-rule:evenodd;fill:#E6E6F0;" points="19.5,2.55 20.5,3.45 21.45,3.85 20.45,4.3 19.85,4.35 
	18.95,4.25 18.4,3.65 "/>
<polygon style="fill-rule:evenodd;clip-rule:evenodd;fill:#E6E6F0;" points="18.1,4.3 19.25,5.5 18.95,5.9 18,5.9 17.35,5.7 "/>
<polygon style="fill-rule:evenodd;clip-rule:evenodd;fill:#E6E6F0;" points="22.6,4.9 23.2,5 24.15,4.95 24.5,5.35 24.35,6.55 
	23.7,6.8 23,6.7 22.55,5.7 "/>
<polygon style="fill-rule:evenodd;clip-rule:evenodd;fill:#E6E6F0;" points="22.25,3.75 23,4.45 22.1,5 21.7,4.45 "/>
<polygon style="fill-rule:evenodd;clip-rule:evenodd;fill:#E6E6F0;" points="20.65,8.55 20.25,7.15 19.65,8 19.65,7.5 20.35,6.8 
	21,6.95 21.85,7.3 22.8,9.75 22.35,9.65 21.8,9.05 20.95,9.25 "/>
<polygon style="fill-rule:evenodd;clip-rule:evenodd;fill:#E6E6F0;" points="22.25,10.4 22.9,11.4 22.2,11.75 21.4,11.35 
	21.4,10.55 "/>
<polygon style="fill-rule:evenodd;clip-rule:evenodd;fill:#E6E6F0;" points="16.45,7.4 16.15,6.15 17.5,6.75 18.85,7.6 19.45,7.6 
	19.75,8.6 19.5,9.6 "/>
<polygon style="fill-rule:evenodd;clip-rule:evenodd;fill:#E6E6F0;" points="19.45,10.15 19.5,11.95 18.75,12.15 17.8,12.05 
	18.45,9.75 "/>
<path style="fill-rule:evenodd;clip-rule:evenodd;fill:#E6E6F0;" d="M19,12.55L18.75,13.4c-0.467-0.067-0.75-0.134-0.85-0.2
	l-1.05-0.65l0.65-0.3L19,12.55z"/>
<polygon style="fill-rule:evenodd;clip-rule:evenodd;fill:#E6E6F0;" points="16.4,8.55 17.5,9.8 16.8,10.45 16.2,9.8 "/>
<polygon style="fill-rule:evenodd;clip-rule:evenodd;fill:#E6E6F0;" points="15.25,8.2 15.55,9.45 14.35,9.4 13.95,8.6 14.65,7.95 
	"/>
<polygon style="fill-rule:evenodd;clip-rule:evenodd;fill:#E6E6F0;" points="14.9,6.35 15.85,5.8 16.15,6.15 16.25,7.6 15.75,8.2 
	14.25,7.5 "/>
<polygon style="fill-rule:evenodd;clip-rule:evenodd;fill:#E6E6F0;" points="29.45,9.15 29.7,9.85 29.45,10 29.7,10.85 28.95,11 
	27.45,8.8 27.7,8.3 28.5,8.1 "/>
<polygon style="fill-rule:evenodd;clip-rule:evenodd;fill:#E6E6F0;" points="31.1,10.35 30.15,9.55 29.75,8.75 30,8.55 31.2,9.6 
	32.1,10.2 31.6,10.6 31.25,11 "/>
<polygon style="fill-rule:evenodd;clip-rule:evenodd;fill:#E6E6F0;" points="25.25,9.65 27.15,9.6 28.35,10.05 27.75,11.2 
	26.65,10.8 "/>
<polygon style="fill-rule:evenodd;clip-rule:evenodd;fill:#E6E6F0;" points="25.8,8.6 24,7.5 24.8,6.75 26.2,7.1 "/>
<polygon style="fill-rule:evenodd;clip-rule:evenodd;fill:#E6E6F0;" points="25.45,12.2 23.7,9.45 24.35,8.75 25.55,9.4 "/>
<use xlink:href="#flash0.ai_x5F_0_x2F_Layer_4_x2F__x3C_Path_x3E__x5F_35"  width="7.05" height="6.387" y="-6.387" transform="matrix(1 0 0 -1 10.1499 10.8501)" style="overflow:visible;opacity:0.8008;enable-background:new    ;"/>
<use xlink:href="#flash0.ai_x5F_0_x2F_Layer_4_x2F__x3C_Path_x3E__x5F_34"  width="2.836" height="3.552" y="-3.552" transform="matrix(1 0 0 -1 7 10.25)" style="overflow:visible;opacity:0.8008;enable-background:new    ;"/>
<use xlink:href="#flash0.ai_x5F_0_x2F_Layer_4_x2F__x3C_Path_x3E__x5F_33"  width="2.9" height="2.806" y="-2.806" transform="matrix(1 0 0 -1 0.1001 9.3999)" style="overflow:visible;opacity:0.8008;enable-background:new    ;"/>
<use xlink:href="#flash0.ai_x5F_0_x2F_Layer_4_x2F__x3C_Path_x3E__x5F_32"  width="1.723" height="1.892" x="-0.023" y="-1.892" transform="matrix(1 0 0 -1 7.2998 15.25)" style="overflow:visible;opacity:0.8008;enable-background:new    ;"/>
<use xlink:href="#flash0.ai_x5F_0_x2F_Layer_4_x2F__x3C_Path_x3E__x5F_31"  width="2.75" height="3.385" y="-3.361" transform="matrix(1 0 0 -1 8.7998 12.0996)" style="overflow:visible;opacity:0.8008;enable-background:new    ;"/>
<use xlink:href="#flash0.ai_x5F_0_x2F_Layer_4_x2F__x3C_Path_x3E__x5F_30"  width="3.552" height="4.75" x="-0.052" y="-4.75" transform="matrix(1 0 0 -1 2.2002 11.7002)" style="overflow:visible;opacity:0.8008;enable-background:new    ;"/>
<path style="fill-rule:evenodd;clip-rule:evenodd;fill:#B4BFD4;" d="M17.7,13.4l1.8,2.25c-0.3,0.6-1.05,0.899-2.25,0.899
	c-0.733,0-1.083-0.217-1.05-0.649l0.3-0.65L17.7,13.4z"/>
<path style="fill-rule:evenodd;clip-rule:evenodd;fill:#B4BFD4;" d="M23.95,11.35l2.5,0.75c0.5,1,0.383,2-0.35,3
	c-0.467,0.601-0.917,0.834-1.35,0.7c-0.4-0.233-0.667-0.35-0.8-0.35S23.5,15.167,23,14.6l-0.7-0.85L23.95,11.35z"/>
<path style="fill-rule:evenodd;clip-rule:evenodd;fill:#B4BFD4;" d="M31.45,9.85c3,0.633,4.533,1.133,4.6,1.5
	c0.033,0.233-0.066,0.483-0.3,0.75c-0.333,0.334-0.6,0.584-0.8,0.75c-0.267,0.233-0.783,0.434-1.55,0.601
	c-0.567,0.1-1.067,0.149-1.5,0.149c-0.233,0-0.583-0.116-1.05-0.35l-0.6-0.4L31.45,9.85z"/>
<path style="fill-rule:evenodd;clip-rule:evenodd;fill:#B4BFD4;" d="M34.4,6.15c0.767,0.5,1.283,1.3,1.55,2.4
	c0.267,1,0.267,1.567,0,1.7c-0.233,0.133-0.95-0.367-2.15-1.5L34.4,6.15z"/>
<path style="fill-rule:evenodd;clip-rule:evenodd;fill:#B4BFD4;" d="M28.85,12.8c1.633,0.867,2.233,1.667,1.8,2.4
	c-0.467,0.733-1.183,0.866-2.15,0.399l-2.55-1.5l0.9-1.5L28.85,12.8z"/>
<path style="fill-rule:evenodd;clip-rule:evenodd;fill:#B4BFD4;" d="M40.85,8c0.667,1.5,0.733,2.5,0.2,3
	c-0.3,0.3-0.717,0.383-1.25,0.25C39.267,11.083,38.95,11,38.85,11c-0.133,0-0.183-0.283-0.149-0.85L38.85,9.3L40.85,8z"/>
<path style="fill-rule:evenodd;clip-rule:evenodd;fill:#B4BFD4;" d="M30,4.65c1.967,1,2.65,1.883,2.05,2.65L30.6,8.15L29.7,8.9
	l-2.35-1.5l0.2-2.75H30z"/>
<path style="fill-rule:evenodd;clip-rule:evenodd;fill:#B4BFD4;" d="M5.85,7.7c1.2,0.133,2.283,0.5,3.25,1.1
	c-0.9,1-1.467,1.684-1.7,2.05c-0.2,0.367-0.983,0.316-2.35-0.15L4.4,8.05L5.85,7.7z"/>
<path style="fill-rule:evenodd;clip-rule:evenodd;fill:#B4BFD4;" d="M11.05,6.45c1.833-0.333,2.833,0.083,3,1.25
	c0.067,0.733-0.15,1.617-0.65,2.65c-0.233,0.467-0.733,0.717-1.5,0.75c-0.767-0.1-1.233-0.15-1.4-0.15c-0.3,0-0.75-1-1.35-3
	L11.05,6.45z"/>
<path style="fill-rule:evenodd;clip-rule:evenodd;fill:#B4BFD4;" d="M39.75,9.9l0.2,4.1c-1.167,0.233-1.867,0.35-2.101,0.35
	c-0.133,0-0.399-0.3-0.8-0.899L36.5,12.5l1.15-2.45L39.75,9.9z"/>
<path style="fill-rule:evenodd;clip-rule:evenodd;fill:#B4BFD4;" d="M41.1,13.65l2.351-1.15l0.35,1.7c0.434,0.866,0.5,1.3,0.2,1.3
	h-1.9l-1-0.55V13.65z"/>
<polygon style="fill-rule:evenodd;clip-rule:evenodd;fill:#B4BFD4;" points="34.75,13.95 37.4,14.5 36.95,17.5 35.5,17.65 
	33.95,17.5 33.4,15.8 "/>
<polygon style="fill-rule:evenodd;clip-rule:evenodd;fill:#EFEFFA;" points="9.15,7.95 11.05,6.45 11.7,6.4 13.15,6.5 13,7.55 
	11.8,8.35 "/>
<polygon style="fill-rule:evenodd;clip-rule:evenodd;fill:#EFEFFA;" points="4.6,8 5.6,7.6 6.55,7.7 8,8.35 6.6,8.65 "/>
<polygon style="fill-rule:evenodd;clip-rule:evenodd;fill:#EFEFFA;" points="2.8,9.8 0,11.85 1.1,9.8 1.35,9.5 3,9.4 "/>
<polygon style="fill-rule:evenodd;clip-rule:evenodd;fill:#EFEFFA;" points="5.55,11.45 5.7,11.7 5.15,12.3 4.55,13.85 2.35,15.7 
	2.3,14.7 2.4,12.65 "/>
<polygon style="fill-rule:evenodd;clip-rule:evenodd;fill:#EFEFFA;" points="7.75,10.25 9.15,10.5 9,11.3 7.8,13.05 6.95,12.65 "/>
<polygon style="fill-rule:evenodd;clip-rule:evenodd;fill:#EFEFFA;" points="9.85,12.1 10.7,12.3 11.1,13.1 11.25,13.5 10.35,13.6 
	9.1,13.6 8.8,12.3 "/>
<path style="fill-rule:evenodd;clip-rule:evenodd;fill:#EFEFFA;" d="M10.95,12.35l1.25-0.1l1.55-0.45h1.2l2-0.95L16.9,11.4
	c-0.433,0.833-0.717,1.3-0.85,1.4c-0.133,0.134-0.816,0.3-2.05,0.5l-2.15,0.2l-0.8-0.8L10.95,12.35z"/>
<polygon style="fill-rule:evenodd;clip-rule:evenodd;fill:#EFEFFA;" points="8.7,15.05 8.75,15.9 8.7,16.5 7.25,16.35 7.3,16.05 "/>
<polygon style="fill-rule:evenodd;clip-rule:evenodd;fill:#EFEFFA;" points="17.7,13.4 18.8,15.65 17.6,15.85 16.25,15.85 
	16.25,15.4 "/>
<path style="fill-rule:evenodd;clip-rule:evenodd;fill:#EFEFFA;" d="M23.95,11.35l1.35,0.15l1.15,0.6l-0.95,1.4l-0.15-0.6
	c-0.467,0.699-0.783,1.116-0.95,1.25c-0.066,0.1-0.3,0.1-0.7,0C23.333,14.05,23.117,14,23.05,14c-0.066,0-0.316-0.184-0.75-0.55
	L23.95,11.35z"/>
<polygon style="fill-rule:evenodd;clip-rule:evenodd;fill:#EFEFFA;" points="26.85,12.6 29,12.95 29.2,13.2 28.55,14.1 27.75,14.05 
	26.65,13.55 "/>
<path style="fill-rule:evenodd;clip-rule:evenodd;fill:#EFEFFA;" d="M31.4,10.05l3.25,0.7v0.45c-0.867,0.433-1.534,0.733-2,0.899
	l-1.05,0.4h-0.9L31.4,10.05z"/>
<path style="fill-rule:evenodd;clip-rule:evenodd;fill:#EFEFFA;" d="M27.55,4.65l1.9,0.4l0.95,0.5l-0.45,0.8
	c-0.034,0.1-0.383,0.367-1.05,0.8l-1.4-0.6C27.6,5.483,27.617,4.85,27.55,4.65z"/>
<polygon style="fill-rule:evenodd;clip-rule:evenodd;fill:#EFEFFA;" points="39.15,11.3 38.9,12.55 37.6,13.25 36.5,12.5 
	37.65,10.05 "/>
<path style="fill-rule:evenodd;clip-rule:evenodd;fill:#EFEFFA;" d="M36.55,14.4l0.05,1c0,0.199-0.25,0.383-0.75,0.55l-1.699,0.6
	L33.3,15.65l1.45-1.7L36.55,14.4z"/>
<path style="fill-rule:evenodd;clip-rule:evenodd;fill:#EFEFFA;" d="M43.45,12.5L43.1,13.95c-0.033,0.1-0.199,0.083-0.5-0.05
	L41.7,14.55l-0.7-1L43.45,12.5z"/>
<polygon style="fill-rule:evenodd;clip-rule:evenodd;fill:#EFEFFA;" points="40.85,8 40.7,9.45 39.55,9.95 38.85,9.3 "/>
<polygon style="fill-rule:evenodd;clip-rule:evenodd;fill:#EFEFFA;" points="34.4,6.15 35.05,7.1 35.4,8.35 35.15,8.2 34.65,9 
	33.8,8.75 "/>
</svg>
