<?xml version="1.0" encoding="iso-8859-1"?>
<!-- Generator: Adobe Illustrator 15.1.0, SVG Export Plug-In . SVG Version: 6.00 Build 0)  -->
<!DOCTYPE svg PUBLIC "-//W3C//DTD SVG 1.1//EN" "http://www.w3.org/Graphics/SVG/1.1/DTD/svg11.dtd">
<svg version="1.1" id="flash0.ai" xmlns="http://www.w3.org/2000/svg" xmlns:xlink="http://www.w3.org/1999/xlink" x="0px" y="0px"
	 width="51.65px" height="16.4px" viewBox="0 0 51.65 16.4" style="enable-background:new 0 0 51.65 16.4;" xml:space="preserve">
<linearGradient id="SVGID_1_" gradientUnits="userSpaceOnUse" x1="4.2002" y1="5.7227" x2="41.0498" y2="5.7227">
	<stop  offset="0" style="stop-color:#E0FF8A"/>
	<stop  offset="1" style="stop-color:#898F40"/>
</linearGradient>
<path style="fill-rule:evenodd;clip-rule:evenodd;fill:url(#SVGID_1_);" d="M4.2,8.35c1.7-0.533,3.566-1.434,5.6-2.7
	c1.8-1.167,3.65-2.283,5.55-3.35c2.267-1.267,3.717-1.966,4.35-2.1c2.767-0.567,5.767,0.066,9,1.9c2.566,1.467,5.767,3.083,9.6,4.85
	c1.2,0.533,2.117,1,2.75,1.4c-0.833,0.433-2.166,0.9-4,1.4c-3.666,0.934-8,1.483-13,1.65c-6.2,0.199-11.367-0.25-15.5-1.351
	C6.483,9.517,5.033,8.95,4.2,8.35z"/>
<path style="fill-rule:evenodd;clip-rule:evenodd;fill:#888C4B;" d="M37.25,7.25c0.967,0.6,1.033,1.017,0.2,1.25
	c-0.9,0.233-1.434,0.117-1.601-0.35c-0.166-0.4-0.083-0.717,0.25-0.95C36.434,6.967,36.816,6.983,37.25,7.25z"/>
<path style="fill-rule:evenodd;clip-rule:evenodd;fill:#888C4B;" d="M34.3,5.65c0.8,0.533,0.783,0.9-0.05,1.1
	c-0.934,0.233-1.417,0.133-1.45-0.3c-0.066-0.4,0.066-0.7,0.4-0.9C33.533,5.35,33.9,5.383,34.3,5.65z"/>
<path style="fill-rule:evenodd;clip-rule:evenodd;fill:#888C4B;" d="M34.4,7.65c0.566,0.567,0.416,0.95-0.45,1.15
	c-0.9,0.233-1.367,0.067-1.4-0.5c-0.033-0.533,0.167-0.867,0.601-1C33.583,7.133,34,7.25,34.4,7.65z"/>
<path style="fill-rule:evenodd;clip-rule:evenodd;fill:#888C4B;" d="M31.2,7.35c0.5,0.566,0.45,0.967-0.15,1.2
	c-0.6,0.233-1.017,0.167-1.25-0.2c-0.2-0.3-0.083-0.617,0.351-0.95C30.55,7.033,30.9,7.017,31.2,7.35z"/>
<path style="fill-rule:evenodd;clip-rule:evenodd;fill:#888C4B;" d="M29.25,3.55c0.7,0.167,1.1,0.483,1.2,0.95
	c0.133,0.433-0.05,0.65-0.55,0.65c-0.434,0-0.75-0.283-0.95-0.85C28.75,3.733,28.85,3.483,29.25,3.55z"/>
<path style="fill-rule:evenodd;clip-rule:evenodd;fill:#888C4B;" d="M26.45,2.05c0.633,0.2,0.916,0.567,0.85,1.1s-0.267,0.7-0.6,0.5
	c-0.233-0.167-0.384-0.5-0.45-1C26.184,2.183,26.25,1.983,26.45,2.05z"/>
<path style="fill-rule:evenodd;clip-rule:evenodd;fill:#888C4B;" d="M28.6,5.4c0.767,0.667,0.867,1.167,0.301,1.5
	c-0.634,0.367-1.067,0.3-1.301-0.2C27.4,6.267,27.45,5.883,27.75,5.55C28.05,5.217,28.333,5.167,28.6,5.4z"/>
<path style="fill-rule:evenodd;clip-rule:evenodd;fill:#888C4B;" d="M29.1,9.1c0.667,0.367,0.767,0.717,0.301,1.051
	c-0.467,0.333-0.884,0.3-1.25-0.101C27.85,9.717,27.833,9.417,28.1,9.15C28.4,8.917,28.733,8.9,29.1,9.1z"/>
<path style="fill-rule:evenodd;clip-rule:evenodd;fill:#888C4B;" d="M32.3,9.1C33,9.2,33.116,9.4,32.65,9.7
	C32.15,10,31.8,10.083,31.6,9.95C31.4,9.85,31.366,9.667,31.5,9.4S31.9,9.033,32.3,9.1z"/>
<linearGradient id="SVGID_2_" gradientUnits="userSpaceOnUse" x1="2.5874" y1="8.8374" x2="5.7124" y2="8.8374">
	<stop  offset="0" style="stop-color:#E0FF8A"/>
	<stop  offset="1" style="stop-color:#898F40"/>
</linearGradient>
<path style="fill-rule:evenodd;clip-rule:evenodd;fill:url(#SVGID_2_);" d="M5.2,8.45c0.2,0.367,0.383,0.7,0.55,1
	c0,0.1-0.25,0.166-0.75,0.2c-0.667,0.066-1.267,0-1.8-0.2c-0.6-0.233-0.75-0.534-0.45-0.9S3.517,8,4.15,8
	C4.717,8.033,5.067,8.183,5.2,8.45z"/>
<linearGradient id="SVGID_3_" gradientUnits="userSpaceOnUse" x1="0.0249" y1="9.6406" x2="2.5749" y2="9.6406">
	<stop  offset="0" style="stop-color:#E0FF8A"/>
	<stop  offset="1" style="stop-color:#898F40"/>
</linearGradient>
<path style="fill-rule:evenodd;clip-rule:evenodd;fill:url(#SVGID_3_);" d="M2.4,9.35C2.833,9.65,2.567,9.917,1.6,10.15
	c-1,0.233-1.533,0.166-1.6-0.2C-0.033,9.55,0.233,9.267,0.8,9.1C1.367,8.9,1.9,8.983,2.4,9.35z"/>
<linearGradient id="SVGID_4_" gradientUnits="userSpaceOnUse" x1="9.8374" y1="10.6162" x2="12.5624" y2="10.6162">
	<stop  offset="0" style="stop-color:#E0FF8A"/>
	<stop  offset="1" style="stop-color:#898F40"/>
</linearGradient>
<path style="fill-rule:evenodd;clip-rule:evenodd;fill:url(#SVGID_4_);" d="M11.15,9.75c1.367,0.1,1.783,0.45,1.25,1.05
	c-0.533,0.634-1.167,0.834-1.9,0.601c-0.6-0.2-0.783-0.534-0.55-1C10.183,9.9,10.583,9.684,11.15,9.75z"/>
<linearGradient id="SVGID_5_" gradientUnits="userSpaceOnUse" x1="6.75" y1="11.1475" x2="8.25" y2="11.1475">
	<stop  offset="0" style="stop-color:#E0FF8A"/>
	<stop  offset="1" style="stop-color:#898F40"/>
</linearGradient>
<path style="fill-rule:evenodd;clip-rule:evenodd;fill:url(#SVGID_5_);" d="M7.55,10.6c0.7-0.133,0.9,0.067,0.6,0.601
	c-0.3,0.5-0.633,0.649-1,0.45c-0.367-0.2-0.5-0.4-0.4-0.601C6.817,10.816,7.083,10.667,7.55,10.6z"/>
<linearGradient id="SVGID_6_" gradientUnits="userSpaceOnUse" x1="16.7002" y1="11.625" x2="21.3002" y2="11.625">
	<stop  offset="0" style="stop-color:#E0FF8A"/>
	<stop  offset="1" style="stop-color:#898F40"/>
</linearGradient>
<path style="fill-rule:evenodd;clip-rule:evenodd;fill:url(#SVGID_6_);" d="M19.3,10.35c0.8,0,1.4,0.267,1.8,0.801
	c0.4,0.533,0.316,0.933-0.25,1.199c-0.633,0.334-1.333,0.517-2.1,0.551c-0.867,0-1.483-0.233-1.85-0.7s-0.267-0.9,0.3-1.3
	C17.733,10.533,18.433,10.35,19.3,10.35z"/>
<linearGradient id="SVGID_7_" gradientUnits="userSpaceOnUse" x1="19.7251" y1="12.6895" x2="23.9751" y2="12.6895">
	<stop  offset="0" style="stop-color:#E0FF8A"/>
	<stop  offset="1" style="stop-color:#898F40"/>
</linearGradient>
<path style="fill-rule:evenodd;clip-rule:evenodd;fill:url(#SVGID_7_);" d="M23.75,12.35c0.3,0.4,0.317,0.75,0.05,1.051
	c-0.333,0.366-1.083,0.5-2.25,0.399c-1.167-0.1-1.783-0.3-1.85-0.6c-0.067-0.167,0.15-0.517,0.65-1.05
	c0.4-0.434,0.967-0.634,1.7-0.601C22.75,11.616,23.317,11.884,23.75,12.35z"/>
<linearGradient id="SVGID_8_" gradientUnits="userSpaceOnUse" x1="30.1123" y1="11.2979" x2="35.1873" y2="11.2979">
	<stop  offset="0" style="stop-color:#E0FF8A"/>
	<stop  offset="1" style="stop-color:#898F40"/>
</linearGradient>
<path style="fill-rule:evenodd;clip-rule:evenodd;fill:url(#SVGID_8_);" d="M32.15,12.85c-0.534,0-1.017-0.1-1.45-0.3
	c-0.467-0.233-0.65-0.533-0.55-0.899c0.166-0.5,0.433-0.934,0.8-1.301c0.467-0.433,1-0.633,1.6-0.6
	c0.634,0.033,1.25,0.35,1.851,0.95c0.6,0.566,0.866,1.05,0.8,1.45C35.1,12.616,34.083,12.85,32.15,12.85z"/>
<linearGradient id="SVGID_9_" gradientUnits="userSpaceOnUse" x1="29.1377" y1="13.0234" x2="32.6592" y2="13.0234">
	<stop  offset="0" style="stop-color:#E0FF8A"/>
	<stop  offset="1" style="stop-color:#898F40"/>
</linearGradient>
<path style="fill-rule:evenodd;clip-rule:evenodd;fill:url(#SVGID_9_);" d="M32.6,13.25c-0.1,0.434-0.466,0.684-1.1,0.75
	c-0.566,0.066-1.184-0.017-1.85-0.25c-0.534-0.2-0.667-0.483-0.4-0.85c0.233-0.4,0.616-0.65,1.15-0.75
	c0.566-0.167,1.083-0.167,1.55,0C32.517,12.35,32.733,12.717,32.6,13.25z"/>
<linearGradient id="SVGID_10_" gradientUnits="userSpaceOnUse" x1="26.2002" y1="14.3535" x2="28.5002" y2="14.3535">
	<stop  offset="0" style="stop-color:#E0FF8A"/>
	<stop  offset="1" style="stop-color:#898F40"/>
</linearGradient>
<path style="fill-rule:evenodd;clip-rule:evenodd;fill:url(#SVGID_10_);" d="M28.15,14c0.5,0.267,0.5,0.5,0,0.7
	c-0.467,0.2-1,0.25-1.601,0.149c-0.566-0.066-0.566-0.3,0-0.699C27.083,13.75,27.616,13.7,28.15,14z"/>
<linearGradient id="SVGID_11_" gradientUnits="userSpaceOnUse" x1="15.2373" y1="13.7617" x2="17.7623" y2="13.7617">
	<stop  offset="0" style="stop-color:#E0FF8A"/>
	<stop  offset="1" style="stop-color:#898F40"/>
</linearGradient>
<path style="fill-rule:evenodd;clip-rule:evenodd;fill:url(#SVGID_11_);" d="M17.4,13.25c0.567,0.2,0.567,0.483,0,0.85
	c-0.6,0.367-1.183,0.4-1.75,0.101c-0.566-0.3-0.566-0.584,0-0.851C16.217,13.083,16.8,13.05,17.4,13.25z"/>
<linearGradient id="SVGID_12_" gradientUnits="userSpaceOnUse" x1="8.1626" y1="12.5176" x2="9.5376" y2="12.5176">
	<stop  offset="0" style="stop-color:#E0FF8A"/>
	<stop  offset="1" style="stop-color:#898F40"/>
</linearGradient>
<path style="fill-rule:evenodd;clip-rule:evenodd;fill:url(#SVGID_12_);" d="M8.65,12.05c0.567,0.066,0.867,0.25,0.9,0.55
	C9.583,12.866,9.367,13,8.9,13c-0.4,0-0.633-0.167-0.7-0.5C8.133,12.134,8.283,11.983,8.65,12.05z"/>
<linearGradient id="SVGID_13_" gradientUnits="userSpaceOnUse" x1="26.7373" y1="11.001" x2="29.2623" y2="11.001">
	<stop  offset="0" style="stop-color:#E0FF8A"/>
	<stop  offset="1" style="stop-color:#898F40"/>
</linearGradient>
<path style="fill-rule:evenodd;clip-rule:evenodd;fill:url(#SVGID_13_);" d="M28.15,10.05c1.166,0.167,1.466,0.55,0.899,1.15
	c-0.533,0.566-1.149,0.816-1.85,0.75c-0.566-0.033-0.65-0.367-0.25-1C27.316,10.283,27.717,9.983,28.15,10.05z"/>
<linearGradient id="SVGID_14_" gradientUnits="userSpaceOnUse" x1="34.2871" y1="11.918" x2="39.1121" y2="11.918">
	<stop  offset="0" style="stop-color:#E0FF8A"/>
	<stop  offset="1" style="stop-color:#898F40"/>
</linearGradient>
<path style="fill-rule:evenodd;clip-rule:evenodd;fill:url(#SVGID_14_);" d="M37.35,10.45c0.534,0.166,0.983,0.45,1.351,0.85
	c0.333,0.434,0.467,0.867,0.399,1.3c-0.066,0.4-0.399,0.667-1,0.801c-0.399,0.066-1.1,0.066-2.1,0
	c-0.833-0.034-1.35-0.117-1.55-0.25c-0.167-0.101-0.184-0.384-0.05-0.851c0.133-0.5,0.5-0.967,1.1-1.399
	C36.134,10.434,36.75,10.283,37.35,10.45z"/>
<linearGradient id="SVGID_15_" gradientUnits="userSpaceOnUse" x1="39.9502" y1="12.6895" x2="42.1502" y2="12.6895">
	<stop  offset="0" style="stop-color:#E0FF8A"/>
	<stop  offset="1" style="stop-color:#898F40"/>
</linearGradient>
<path style="fill-rule:evenodd;clip-rule:evenodd;fill:url(#SVGID_15_);" d="M41.6,12.15c0.667,0.233,0.817,0.517,0.45,0.85
	c-0.366,0.333-0.883,0.4-1.55,0.2c-0.634-0.2-0.717-0.467-0.25-0.8C40.717,12.066,41.167,11.983,41.6,12.15z"/>
<linearGradient id="SVGID_16_" gradientUnits="userSpaceOnUse" x1="37.4375" y1="9.2891" x2="40.2625" y2="9.2891">
	<stop  offset="0" style="stop-color:#E0FF8A"/>
	<stop  offset="1" style="stop-color:#898F40"/>
</linearGradient>
<path style="fill-rule:evenodd;clip-rule:evenodd;fill:url(#SVGID_16_);" d="M39.6,8.45c0.434,0.066,0.667,0.316,0.7,0.75
	c0.033,0.399-0.149,0.684-0.55,0.85c-0.366,0.167-0.833,0.184-1.4,0.05c-0.6-0.133-0.899-0.316-0.899-0.55
	c0-0.333,0.149-0.617,0.45-0.85C38.3,8.4,38.866,8.317,39.6,8.45z"/>
<linearGradient id="SVGID_17_" gradientUnits="userSpaceOnUse" x1="41.2998" y1="10.8516" x2="44.5998" y2="10.8516">
	<stop  offset="0" style="stop-color:#E0FF8A"/>
	<stop  offset="1" style="stop-color:#898F40"/>
</linearGradient>
<path style="fill-rule:evenodd;clip-rule:evenodd;fill:url(#SVGID_17_);" d="M43.2,9.9c1.399,0.233,1.767,0.783,1.1,1.649
	c-0.166,0.267-0.566,0.351-1.2,0.25c-0.666-0.066-1.199-0.283-1.6-0.649c-0.366-0.334-0.316-0.65,0.15-0.95
	C42.116,9.9,42.634,9.8,43.2,9.9z"/>
<linearGradient id="SVGID_18_" gradientUnits="userSpaceOnUse" x1="40.4629" y1="8.1543" x2="42.7379" y2="8.1543">
	<stop  offset="0" style="stop-color:#E0FF8A"/>
	<stop  offset="1" style="stop-color:#898F40"/>
</linearGradient>
<path style="fill-rule:evenodd;clip-rule:evenodd;fill:url(#SVGID_18_);" d="M41.3,7.35c0.601,0,1.033,0.2,1.3,0.6
	c0.233,0.333,0.25,0.6,0.051,0.8c-0.167,0.167-0.384,0.233-0.65,0.2c-0.134,0-0.5-0.067-1.1-0.2C40.467,8.683,40.366,8.433,40.6,8
	C40.8,7.567,41.033,7.35,41.3,7.35z"/>
<linearGradient id="SVGID_19_" gradientUnits="userSpaceOnUse" x1="43.7246" y1="8.8867" x2="45.4746" y2="8.8867">
	<stop  offset="0" style="stop-color:#E0FF8A"/>
	<stop  offset="1" style="stop-color:#898F40"/>
</linearGradient>
<path style="fill-rule:evenodd;clip-rule:evenodd;fill:url(#SVGID_19_);" d="M44.8,8.2c0.733,0.233,0.884,0.566,0.45,1
	S44.4,9.733,44,9.5c-0.333-0.2-0.384-0.5-0.15-0.9S44.4,8.067,44.8,8.2z"/>
<linearGradient id="SVGID_20_" gradientUnits="userSpaceOnUse" x1="1.8623" y1="10.7285" x2="3.8373" y2="10.7285">
	<stop  offset="0" style="stop-color:#E0FF8A"/>
	<stop  offset="1" style="stop-color:#898F40"/>
</linearGradient>
<path style="fill-rule:evenodd;clip-rule:evenodd;fill:url(#SVGID_20_);" d="M3.45,10.2C3.883,10.434,4,10.717,3.8,11.05
	c-0.233,0.367-0.7,0.4-1.4,0.101c-0.667-0.267-0.75-0.534-0.25-0.801C2.683,10.083,3.117,10.033,3.45,10.2z"/>
<linearGradient id="SVGID_21_" gradientUnits="userSpaceOnUse" x1="7.2998" y1="7.9326" x2="8.9998" y2="7.9326">
	<stop  offset="0" style="stop-color:#F7FFA1"/>
	<stop  offset="1" style="stop-color:#F8FFB3"/>
</linearGradient>
<path style="fill-rule:evenodd;clip-rule:evenodd;fill:url(#SVGID_21_);" d="M8.35,7.4c0.7,0,0.883,0.2,0.55,0.6
	C8.533,8.367,8.117,8.517,7.65,8.45C7.25,8.383,7.2,8.183,7.5,7.85C7.8,7.55,8.083,7.4,8.35,7.4z"/>
<linearGradient id="SVGID_22_" gradientUnits="userSpaceOnUse" x1="10.1626" y1="6.5029" x2="11.9376" y2="6.5029">
	<stop  offset="0" style="stop-color:#F7FFA1"/>
	<stop  offset="1" style="stop-color:#F8FFB3"/>
</linearGradient>
<path style="fill-rule:evenodd;clip-rule:evenodd;fill:url(#SVGID_22_);" d="M11,5.95c0.767-0.133,1.067,0.033,0.9,0.5
	c-0.167,0.433-0.55,0.65-1.15,0.65c-0.5,0-0.683-0.184-0.55-0.55C10.333,6.217,10.6,6.017,11,5.95z"/>
<linearGradient id="SVGID_23_" gradientUnits="userSpaceOnUse" x1="9.8125" y1="8.5313" x2="11.5875" y2="8.5313">
	<stop  offset="0" style="stop-color:#F7FFA1"/>
	<stop  offset="1" style="stop-color:#F8FFB3"/>
</linearGradient>
<path style="fill-rule:evenodd;clip-rule:evenodd;fill:url(#SVGID_23_);" d="M11.05,7.65c0.534,0.067,0.7,0.434,0.5,1.1
	c-0.167,0.667-0.566,0.833-1.2,0.5C9.783,8.95,9.667,8.583,10,8.15C10.3,7.783,10.65,7.617,11.05,7.65z"/>
<linearGradient id="SVGID_24_" gradientUnits="userSpaceOnUse" x1="13.25" y1="8.4307" x2="14.35" y2="8.4307">
	<stop  offset="0" style="stop-color:#F7FFA1"/>
	<stop  offset="1" style="stop-color:#F8FFB3"/>
</linearGradient>
<path style="fill-rule:evenodd;clip-rule:evenodd;fill:url(#SVGID_24_);" d="M14.1,7.75c0.3,0.3,0.316,0.667,0.05,1.1
	c-0.267,0.4-0.517,0.5-0.75,0.3c-0.267-0.2-0.267-0.55,0-1.05C13.633,7.6,13.867,7.483,14.1,7.75z"/>
<linearGradient id="SVGID_25_" gradientUnits="userSpaceOnUse" x1="15.4502" y1="9.334" x2="16.9502" y2="9.334">
	<stop  offset="0" style="stop-color:#F7FFA1"/>
	<stop  offset="1" style="stop-color:#F8FFB3"/>
</linearGradient>
<path style="fill-rule:evenodd;clip-rule:evenodd;fill:url(#SVGID_25_);" d="M16.7,8.75c0.333,0.133,0.4,0.4,0.2,0.8
	c-0.233,0.434-0.566,0.55-1,0.351c-0.5-0.2-0.6-0.483-0.3-0.851C15.9,8.683,16.267,8.583,16.7,8.75z"/>
<linearGradient id="SVGID_26_" gradientUnits="userSpaceOnUse" x1="17.0015" y1="7.5635" x2="18.9015" y2="7.5635">
	<stop  offset="0" style="stop-color:#F7FFA1"/>
	<stop  offset="1" style="stop-color:#F8FFB3"/>
</linearGradient>
<path style="fill-rule:evenodd;clip-rule:evenodd;fill:url(#SVGID_26_);" d="M18.35,6.85c0.6,0.267,0.767,0.617,0.5,1.05
	c-0.3,0.467-0.75,0.567-1.35,0.3c-0.567-0.2-0.65-0.517-0.25-0.95C17.617,6.817,17.983,6.683,18.35,6.85z"/>
<linearGradient id="SVGID_27_" gradientUnits="userSpaceOnUse" x1="14.6499" y1="7.1455" x2="16.2499" y2="7.1455">
	<stop  offset="0" style="stop-color:#F7FFA1"/>
	<stop  offset="1" style="stop-color:#F8FFB3"/>
</linearGradient>
<path style="fill-rule:evenodd;clip-rule:evenodd;fill:url(#SVGID_27_);" d="M15.5,6.3c0.8,0.067,1,0.4,0.6,1
	c-0.434,0.633-0.833,0.833-1.2,0.6c-0.3-0.2-0.35-0.517-0.15-0.95C14.95,6.483,15.2,6.267,15.5,6.3z"/>
<linearGradient id="SVGID_28_" gradientUnits="userSpaceOnUse" x1="12.6626" y1="6.02" x2="14.1376" y2="6.02">
	<stop  offset="0" style="stop-color:#F7FFA1"/>
	<stop  offset="1" style="stop-color:#F8FFB3"/>
</linearGradient>
<path style="fill-rule:evenodd;clip-rule:evenodd;fill:url(#SVGID_28_);" d="M13.25,5.3c0.8,0,1.067,0.267,0.8,0.8
	C13.75,6.633,13.4,6.833,13,6.7c-0.333-0.1-0.433-0.367-0.3-0.8C12.8,5.5,12.983,5.3,13.25,5.3z"/>
<linearGradient id="SVGID_29_" gradientUnits="userSpaceOnUse" x1="13.9126" y1="4.1724" x2="14.8876" y2="4.1724">
	<stop  offset="0" style="stop-color:#F7FFA1"/>
	<stop  offset="1" style="stop-color:#F8FFB3"/>
</linearGradient>
<path style="fill-rule:evenodd;clip-rule:evenodd;fill:url(#SVGID_29_);" d="M14.45,3.8c0.4-0.133,0.533-0.05,0.4,0.25
	c-0.1,0.3-0.317,0.483-0.65,0.55c-0.3,0.033-0.383-0.067-0.25-0.3C14.05,4.033,14.217,3.867,14.45,3.8z"/>
<linearGradient id="SVGID_30_" gradientUnits="userSpaceOnUse" x1="16.1748" y1="3.4258" x2="17.6248" y2="3.4258">
	<stop  offset="0" style="stop-color:#F7FFA1"/>
	<stop  offset="1" style="stop-color:#F8FFB3"/>
</linearGradient>
<path style="fill-rule:evenodd;clip-rule:evenodd;fill:url(#SVGID_30_);" d="M17.25,2.9c0.467,0.133,0.533,0.367,0.2,0.7
	c-0.3,0.3-0.633,0.417-1,0.35c-0.367-0.067-0.4-0.284-0.1-0.65C16.617,2.967,16.917,2.833,17.25,2.9z"/>
<linearGradient id="SVGID_31_" gradientUnits="userSpaceOnUse" x1="18.1377" y1="1.9346" x2="19.2627" y2="1.9346">
	<stop  offset="0" style="stop-color:#F7FFA1"/>
	<stop  offset="1" style="stop-color:#F8FFB3"/>
</linearGradient>
<path style="fill-rule:evenodd;clip-rule:evenodd;fill:url(#SVGID_31_);" d="M18.75,1.55c0.5,0.034,0.667,0.184,0.5,0.45
	s-0.433,0.367-0.8,0.3c-0.3-0.1-0.367-0.25-0.2-0.45C18.383,1.65,18.55,1.55,18.75,1.55z"/>
<linearGradient id="SVGID_32_" gradientUnits="userSpaceOnUse" x1="17.8252" y1="3.9365" x2="19.5752" y2="3.9365">
	<stop  offset="0" style="stop-color:#F7FFA1"/>
	<stop  offset="1" style="stop-color:#F8FFB3"/>
</linearGradient>
<path style="fill-rule:evenodd;clip-rule:evenodd;fill:url(#SVGID_32_);" d="M19,3.25c0.733,0.133,0.817,0.433,0.25,0.9
	c-0.567,0.5-1,0.617-1.3,0.35c-0.267-0.2-0.233-0.483,0.1-0.85C18.35,3.317,18.667,3.183,19,3.25z"/>
<linearGradient id="SVGID_33_" gradientUnits="userSpaceOnUse" x1="15.3999" y1="5.082" x2="16.4999" y2="5.082">
	<stop  offset="0" style="stop-color:#F7FFA1"/>
	<stop  offset="1" style="stop-color:#F8FFB3"/>
</linearGradient>
<path style="fill-rule:evenodd;clip-rule:evenodd;fill:url(#SVGID_33_);" d="M16.45,4.75c0.133,0.367,0.066,0.633-0.2,0.8
	c-0.267,0.133-0.517,0.117-0.75-0.05c-0.2-0.167-0.133-0.417,0.2-0.75C16.067,4.45,16.317,4.45,16.45,4.75z"/>
<linearGradient id="SVGID_34_" gradientUnits="userSpaceOnUse" x1="17.4873" y1="5.6045" x2="18.9123" y2="5.6045">
	<stop  offset="0" style="stop-color:#F7FFA1"/>
	<stop  offset="1" style="stop-color:#F8FFB3"/>
</linearGradient>
<path style="fill-rule:evenodd;clip-rule:evenodd;fill:url(#SVGID_34_);" d="M18.45,5.1c0.333,0,0.466,0.267,0.4,0.8
	c-0.033,0.167-0.217,0.233-0.55,0.2c-0.333-0.033-0.583-0.133-0.75-0.3c-0.167-0.167-0.15-0.316,0.05-0.45
	C17.8,5.183,18.083,5.1,18.45,5.1z"/>
<linearGradient id="SVGID_35_" gradientUnits="userSpaceOnUse" x1="20.2251" y1="5.7041" x2="21.5751" y2="5.7041">
	<stop  offset="0" style="stop-color:#F7FFA1"/>
	<stop  offset="1" style="stop-color:#F8FFB3"/>
</linearGradient>
<path style="fill-rule:evenodd;clip-rule:evenodd;fill:url(#SVGID_35_);" d="M20.95,5c0.667,0.1,0.833,0.383,0.5,0.85
	c-0.367,0.5-0.7,0.667-1,0.5c-0.267-0.1-0.317-0.367-0.15-0.8C20.433,5.15,20.65,4.967,20.95,5z"/>
<linearGradient id="SVGID_36_" gradientUnits="userSpaceOnUse" x1="20.1499" y1="8.9902" x2="21.4499" y2="8.9902">
	<stop  offset="0" style="stop-color:#F7FFA1"/>
	<stop  offset="1" style="stop-color:#F8FFB3"/>
</linearGradient>
<path style="fill-rule:evenodd;clip-rule:evenodd;fill:url(#SVGID_36_);" d="M21,8.3c0.533,0.067,0.65,0.35,0.35,0.851
	c-0.3,0.466-0.6,0.633-0.9,0.5c-0.3-0.134-0.383-0.4-0.25-0.8C20.367,8.417,20.633,8.233,21,8.3z"/>
<linearGradient id="SVGID_37_" gradientUnits="userSpaceOnUse" x1="22.75" y1="9.4717" x2="24.55" y2="9.4717">
	<stop  offset="0" style="stop-color:#F7FFA1"/>
	<stop  offset="1" style="stop-color:#F8FFB3"/>
</linearGradient>
<path style="fill-rule:evenodd;clip-rule:evenodd;fill:url(#SVGID_37_);" d="M23.9,8.85c0.833,0.333,0.9,0.667,0.2,1
	c-0.733,0.334-1.184,0.4-1.35,0.2c-0.1-0.166-0.033-0.434,0.2-0.8C23.217,8.817,23.533,8.683,23.9,8.85z"/>
<linearGradient id="SVGID_38_" gradientUnits="userSpaceOnUse" x1="10.2124" y1="10.3975" x2="11.1874" y2="10.3975">
	<stop  offset="0" style="stop-color:#F7FFA1"/>
	<stop  offset="1" style="stop-color:#F8FFB3"/>
</linearGradient>
<path style="fill-rule:evenodd;clip-rule:evenodd;fill:url(#SVGID_38_);" d="M10.85,9.95c0.367,0.1,0.467,0.283,0.3,0.55
	c-0.167,0.233-0.4,0.35-0.7,0.35c-0.267,0-0.317-0.149-0.15-0.449C10.467,10.066,10.65,9.917,10.85,9.95z"/>
<linearGradient id="SVGID_39_" gradientUnits="userSpaceOnUse" x1="17.4248" y1="11.4121" x2="18.9748" y2="11.4121">
	<stop  offset="0" style="stop-color:#F7FFA1"/>
	<stop  offset="1" style="stop-color:#F8FFB3"/>
</linearGradient>
<path style="fill-rule:evenodd;clip-rule:evenodd;fill:url(#SVGID_39_);" d="M18.5,10.85c0.5,0.134,0.6,0.4,0.3,0.801
	c-0.333,0.366-0.7,0.466-1.1,0.3c-0.4-0.134-0.467-0.384-0.2-0.75C17.8,10.833,18.133,10.717,18.5,10.85z"/>
<linearGradient id="SVGID_40_" gradientUnits="userSpaceOnUse" x1="20.0625" y1="12.7207" x2="21.6375" y2="12.7207">
	<stop  offset="0" style="stop-color:#F7FFA1"/>
	<stop  offset="1" style="stop-color:#F8FFB3"/>
</linearGradient>
<path style="fill-rule:evenodd;clip-rule:evenodd;fill:url(#SVGID_40_);" d="M21.35,12.05c0.433,0.066,0.45,0.334,0.05,0.8
	c-0.367,0.467-0.733,0.634-1.1,0.5c-0.367-0.133-0.367-0.383,0-0.75C20.667,12.2,21.017,12.017,21.35,12.05z"/>
<linearGradient id="SVGID_41_" gradientUnits="userSpaceOnUse" x1="15.7627" y1="13.6504" x2="16.5377" y2="13.6504">
	<stop  offset="0" style="stop-color:#F7FFA1"/>
	<stop  offset="1" style="stop-color:#F8FFB3"/>
</linearGradient>
<path style="fill-rule:evenodd;clip-rule:evenodd;fill:url(#SVGID_41_);" d="M16.5,13.4c0.133,0.133,0.117,0.283-0.05,0.449
	c-0.167,0.167-0.35,0.184-0.55,0.051c-0.2-0.134-0.183-0.284,0.05-0.45C16.183,13.283,16.367,13.267,16.5,13.4z"/>
<linearGradient id="SVGID_42_" gradientUnits="userSpaceOnUse" x1="34.8496" y1="12.0527" x2="36.5496" y2="12.0527">
	<stop  offset="0" style="stop-color:#F7FFA1"/>
	<stop  offset="1" style="stop-color:#F8FFB3"/>
</linearGradient>
<path style="fill-rule:evenodd;clip-rule:evenodd;fill:url(#SVGID_42_);" d="M36.25,11.15c0.467,0.267,0.434,0.683-0.1,1.25
	c-0.5,0.533-0.9,0.716-1.2,0.55c-0.267-0.2-0.2-0.584,0.2-1.15C35.517,11.2,35.884,10.983,36.25,11.15z"/>
<linearGradient id="SVGID_43_" gradientUnits="userSpaceOnUse" x1="30.6875" y1="10.8945" x2="32.3125" y2="10.8945">
	<stop  offset="0" style="stop-color:#F7FFA1"/>
	<stop  offset="1" style="stop-color:#F8FFB3"/>
</linearGradient>
<path style="fill-rule:evenodd;clip-rule:evenodd;fill:url(#SVGID_43_);" d="M32.2,10.2c0.233,0.133,0.184,0.45-0.15,0.95
	c-0.366,0.466-0.733,0.633-1.1,0.5c-0.4-0.167-0.4-0.5,0-1C31.384,10.116,31.8,9.967,32.2,10.2z"/>
<linearGradient id="SVGID_44_" gradientUnits="userSpaceOnUse" x1="29.6621" y1="12.8086" x2="30.9371" y2="12.8086">
	<stop  offset="0" style="stop-color:#F7FFA1"/>
	<stop  offset="1" style="stop-color:#F8FFB3"/>
</linearGradient>
<path style="fill-rule:evenodd;clip-rule:evenodd;fill:url(#SVGID_44_);" d="M30.85,12.35c0.2,0.101,0.117,0.317-0.25,0.65
	c-0.366,0.333-0.649,0.4-0.85,0.2s-0.134-0.417,0.2-0.65C30.283,12.316,30.583,12.25,30.85,12.35z"/>
<linearGradient id="SVGID_45_" gradientUnits="userSpaceOnUse" x1="27.0879" y1="10.959" x2="28.1129" y2="10.959">
	<stop  offset="0" style="stop-color:#F7FFA1"/>
	<stop  offset="1" style="stop-color:#F8FFB3"/>
</linearGradient>
<path style="fill-rule:evenodd;clip-rule:evenodd;fill:url(#SVGID_45_);" d="M27.9,10.55c0.3,0.066,0.316,0.25,0.05,0.55
	c-0.3,0.267-0.55,0.351-0.75,0.25c-0.2-0.1-0.184-0.283,0.05-0.55C27.517,10.566,27.733,10.483,27.9,10.55z"/>
<linearGradient id="SVGID_46_" gradientUnits="userSpaceOnUse" x1="37.9873" y1="9.207" x2="39.2123" y2="9.207">
	<stop  offset="0" style="stop-color:#F7FFA1"/>
	<stop  offset="1" style="stop-color:#F8FFB3"/>
</linearGradient>
<path style="fill-rule:evenodd;clip-rule:evenodd;fill:url(#SVGID_46_);" d="M38.65,8.75c0.533-0.033,0.699,0.133,0.5,0.5
	c-0.2,0.333-0.483,0.467-0.851,0.4c-0.333-0.067-0.434-0.233-0.3-0.5C38.1,8.917,38.316,8.783,38.65,8.75z"/>
<linearGradient id="SVGID_47_" gradientUnits="userSpaceOnUse" x1="42.0127" y1="10.4668" x2="43.6877" y2="10.4668">
	<stop  offset="0" style="stop-color:#F7FFA1"/>
	<stop  offset="1" style="stop-color:#F8FFB3"/>
</linearGradient>
<path style="fill-rule:evenodd;clip-rule:evenodd;fill:url(#SVGID_47_);" d="M43.2,9.9c0.6,0.066,0.666,0.3,0.2,0.699
	c-0.467,0.4-0.851,0.534-1.15,0.4s-0.35-0.366-0.15-0.7C42.333,9.967,42.7,9.833,43.2,9.9z"/>
<linearGradient id="SVGID_48_" gradientUnits="userSpaceOnUse" x1="40.7871" y1="8.0391" x2="41.9121" y2="8.0391">
	<stop  offset="0" style="stop-color:#F7FFA1"/>
	<stop  offset="1" style="stop-color:#F8FFB3"/>
</linearGradient>
<path style="fill-rule:evenodd;clip-rule:evenodd;fill:url(#SVGID_48_);" d="M41.6,7.65c0.334,0.133,0.417,0.333,0.25,0.6
	c-0.199,0.267-0.466,0.3-0.8,0.1C40.717,8.183,40.667,8,40.9,7.8C41.1,7.6,41.333,7.55,41.6,7.65z"/>
<linearGradient id="SVGID_49_" gradientUnits="userSpaceOnUse" x1="3.5249" y1="8.6719" x2="4.4749" y2="8.6719">
	<stop  offset="0" style="stop-color:#F7FFA1"/>
	<stop  offset="1" style="stop-color:#F8FFB3"/>
</linearGradient>
<path style="fill-rule:evenodd;clip-rule:evenodd;fill:url(#SVGID_49_);" d="M4.2,8.35c0.233,0.133,0.316,0.3,0.25,0.5
	C4.35,9.083,4.15,9.134,3.85,9C3.517,8.867,3.4,8.683,3.5,8.45C3.633,8.25,3.867,8.217,4.2,8.35z"/>
</svg>
