<?xml version="1.0" encoding="iso-8859-1"?>
<!-- Generator: Adobe Illustrator 15.1.0, SVG Export Plug-In . SVG Version: 6.00 Build 0)  -->
<!DOCTYPE svg PUBLIC "-//W3C//DTD SVG 1.1//EN" "http://www.w3.org/Graphics/SVG/1.1/DTD/svg11.dtd">
<svg version="1.1" id="flash0.ai" xmlns="http://www.w3.org/2000/svg" xmlns:xlink="http://www.w3.org/1999/xlink" x="0px" y="0px"
	 width="67.05px" height="38.6px" viewBox="0 0 67.05 38.6" style="enable-background:new 0 0 67.05 38.6;" xml:space="preserve">
<symbol  id="flash0.ai_x5F_0_x2F_Layer_13_x2F__x3C_Path_x3E__x5F_71" viewBox="0 -9.75 12.275 9.75">
	<g id="Layer_1_3_">
		<path style="fill-rule:evenodd;clip-rule:evenodd;fill:#7D5608;" d="M12.275-3.55C12.069-3.74,11.86-3.923,11.65-4.1
			c-0.6-0.433-1.566-1.383-2.9-2.85C8.481-7.232,8.24-7.49,8.025-7.725C7.273-7.937,6.431-8.146,5.5-8.35c0-0.4-0.567-0.867-1.7-1.4
			l-3.55,1.2L0-6.2l2.2,2.65L3.6-2.4C3.733-2.367,4.267-1.567,5.2,0l0.45-0.1C9.131-1.33,11.339-2.479,12.275-3.55z"/>
	</g>
</symbol>
<symbol  id="flash0.ai_x5F_0_x2F_Layer_13_x2F__x3C_Path_x3E__x5F_72" viewBox="0 -19.85 36.85 19.88">
	<g id="Layer_1_2_">
		<path style="fill-rule:evenodd;clip-rule:evenodd;fill:#7D5608;" d="M36.85-0.15c-0.167-0.567-0.434-1.15-0.8-1.75l-1.7-2.55
			C33.917-4.283,33.567-4.2,33.3-4.2c-0.2,0-0.383,0.034-0.55,0.1L32.5-3.95l0.1-0.25c0.066-0.2,0.233-0.5,0.5-0.9
			c-0.167-0.533-0.434-1.066-0.8-1.6l-2-2.8c-0.333,0.2-0.6,0.317-0.8,0.35l-2.35,0.8l0.35-0.9c0.233-0.633,0.383-0.967,0.45-1
			l1.2-0.55l-3.25-3.7l-0.6,0.85c-0.633,0.933-1.533,2.183-2.7,3.75c-0.7,0.967-1.567,1.95-2.6,2.95l-1.35,1.2
			c-0.533-2.7-0.983-4.6-1.35-5.7l-2-6.2l-0.05-2.2c-0.333,0.2-0.7,0.533-1.1,1c-0.233,0.267-0.917,0.783-2.05,1.55
			c-1.267,0.867-1.983,1.367-2.15,1.5L8.7-14.65L8.55-11.8L7.7-12.75L6.65-14.7l-1.2,1.55L4-10.55l-1,0.7
			C2.1-9.25,1.533-8.7,1.3-8.2L0-5.5l8.3,5.2c7.233-0.467,10.95-0.75,11.15-0.85c0.233-0.1,0.4-0.217,0.5-0.35l-0.5-2.95l0.5-0.35
			l2.8,0.65l3.8,4c5.034,0.2,7.8,0.233,8.3,0.1C35.35-0.15,36.017-0.183,36.85-0.15z"/>
	</g>
</symbol>
<path style="fill-rule:evenodd;clip-rule:evenodd;fill:#AB8C41;" d="M40.25,16.85c-6.1,6.567-10.233,11.1-12.4,13.6
	c-1.367,1.566-2.35,3.399-2.95,5.5c-0.3,1.033-0.467,1.916-0.5,2.649l-14.2-9.25c-3.633-2.366-6.967-4.833-10-7.399
	c-0.034-0.467-0.083-0.934-0.15-1.4c-0.066-0.9-0.066-1.367,0-1.4c2.867-0.667,7.083-2.85,12.65-6.55c2.8-1.867,5.3-3.667,7.5-5.4
	l16.35,8.2L40.25,16.85z"/>
<path style="fill-rule:evenodd;clip-rule:evenodd;fill:#967A33;" d="M44.35,16.9c-6.366,7.133-10.633,11.95-12.8,14.45
	c-2.167,2.5-4.6,4.9-7.3,7.2L24.1,34.9c0-6.2-2.383-10.334-7.15-12.4c-1.5-0.634-3.15-1.017-4.95-1.15L9.75,21.3L18.6,15
	c2.867-0.7,4.017-2.2,3.45-4.5l-1.7-3.25c3.367,0.8,6.9,1.667,10.6,2.6c7.366,1.867,11.816,3.183,13.35,3.95L44.35,16.9z"/>
<path style="fill-rule:evenodd;clip-rule:evenodd;fill:#876E2E;" d="M43.85,13.6l0.051,3.8l-0.95,1.1l-0.2-3.25L41.4,16.2
	l-0.051,4.1l-1.5,1.65v-3.6l-1.649,0.7l0.149,4.601L37.15,25L37.1,21.3L36.6,21.4L33.55,24.1c-0.166,0.167-0.316,0.334-0.45,0.5
	c-0.333,0.367-0.5,0.65-0.5,0.851l-0.05,4.75l-1.3,1.5l-0.1-3.851L30.4,27.45L30,28.7l-0.15,4.55L29.2,33.9l-0.15-3.75l-1.15,1.1
	l0.05,3.9L26.6,36.4l-0.05-4.75l4.3-16.15l5.35-1c3.8-0.667,6.184-1.033,7.149-1.1H43.4L43.85,13.6z"/>
<path style="fill-rule:evenodd;clip-rule:evenodd;fill:#C9A958;" d="M0.05,19c3-3.133,6.383-6.267,10.15-9.4
	c3.767-3.133,7.15-5.8,10.15-8l23.95,12c-6.467,6.867-10.783,11.55-12.95,14.05c-2.2,2.5-4.6,5-7.2,7.5
	c-6.4-4.233-11.433-7.434-15.1-9.601C5.417,23.35,2.417,21.167,0.05,19z"/>
<g>
	<path style="fill-rule:evenodd;clip-rule:evenodd;fill:#B5974A;" d="M13.15,11.6c-0.167-0.633-0.816-1.583-1.95-2.85l0.65-0.5
		c0.833,0.833,1.65,1.9,2.45,3.2c0.867,1.433,0.95,2.45,0.25,3.05c-0.7,0.567-1.783,0.45-3.25-0.35c-1.267-0.7-2.25-1.683-2.95-2.95
		l1.25-1.1l0.85,1.25c0.633,0.9,1.3,1.35,2,1.35C13.117,12.667,13.35,12.3,13.15,11.6z"/>
	<path style="fill-rule:evenodd;clip-rule:evenodd;fill:#B5974A;" d="M21.4,19.1c1.4,0.767,2.5,1.567,3.3,2.4
		c1.033,1.066,2.083,2.616,3.15,4.65c0.667,1.233,1.383,2.233,2.15,3l-0.95,1c-0.566-0.601-1.6-1.801-3.1-3.601
		c-1.534-1.866-2.6-3.133-3.2-3.8c-0.8-0.9-2.917-1.717-6.35-2.45c-3.533-0.733-5.7-1.483-6.5-2.25c-1.4-1.267-3-2.583-4.8-3.95
		l1.8-1.65c0.733,1.233,1.967,2.517,3.7,3.85c1.3,0.967,3.217,1.583,5.75,1.85C19.05,18.417,20.733,18.733,21.4,19.1z"/>
	<path style="fill-rule:evenodd;clip-rule:evenodd;fill:#B5974A;" d="M7.35,18.4c0.867,1.3,1.816,2.45,2.85,3.45
		c1.233,1.233,2.867,2.584,4.9,4.051c1.667,1.199,3.35,1.883,5.05,2.05c1.934,0.2,3.2,0.45,3.8,0.75c1.2,0.633,2.55,1.483,4.05,2.55
		l-1.45,1.55c-0.667-0.733-1.6-1.434-2.8-2.1c-1-0.533-2.267-1.05-3.8-1.55c-2.2-0.634-4.184-1.25-5.95-1.851
		c-2.2-0.733-4.017-1.866-5.45-3.399c-1.433-1.867-2.6-3.267-3.5-4.2c-1.233-1.3-2.367-2.067-3.4-2.3l2.4-2.35
		C5.483,16.183,6.583,17.3,7.35,18.4z"/>
	<path style="fill-rule:evenodd;clip-rule:evenodd;fill:#B5974A;" d="M23.15,16.65c3.367,1.767,6.1,4.216,8.2,7.35
		c0.433,0.634,0.867,1.35,1.3,2.15l-1.3,1.5l-0.2,0.199L31,27.55c-1-1.767-2.2-3.45-3.6-5.05c-1.9-2.134-3.816-3.7-5.75-4.7
		c-1.733-0.9-3.383-2.566-4.95-5c-1.4-2.566-2.383-4.15-2.95-4.75c-0.333-0.333-0.6-0.566-0.8-0.7L14.8,5.9
		c0.967,2.033,1.483,3.15,1.55,3.35C17.783,12.483,20.05,14.95,23.15,16.65z"/>
	<path style="fill-rule:evenodd;clip-rule:evenodd;fill:#B5974A;" d="M43.45,13.15l0.45,0.9l-1.15,1.2
		c-0.934-1.233-2.45-2.8-4.55-4.7L43.45,13.15z"/>
	<path style="fill-rule:evenodd;clip-rule:evenodd;fill:#B5974A;" d="M24.85,5.6c-1.233-1.4-2.25-2.483-3.05-3.25l3.65,1.8
		c0.533,0.7,0.983,1.184,1.35,1.45c1.034,0.8,2.167,1.117,3.4,0.95l3.5,1.75h-2.4c-1.433,0-2.5-0.117-3.2-0.35
		C26.967,7.583,25.883,6.8,24.85,5.6z"/>
	<path style="fill-rule:evenodd;clip-rule:evenodd;fill:#B5974A;" d="M26.5,11.7c-0.767-0.534-1.683-1.434-2.75-2.7
		c-1.733-2.033-2.767-3.233-3.1-3.6c-0.833-0.933-1.7-1.617-2.6-2.05L19.2,2.5c0.933,0.7,1.6,1.233,2,1.6
		c0.367,0.3,1.25,1.217,2.65,2.75c1.433,1.533,2.583,2.533,3.45,3c0.5,0.267,1.9,0.633,4.2,1.1c2.167,0.466,3.934,1.117,5.3,1.95
		c1.5,0.9,3.033,2.167,4.601,3.8l-1.551,1.65c-2.233-2.467-4.116-4.1-5.649-4.9c-1.101-0.567-2.517-0.883-4.25-0.95
		C28.317,12.4,27.167,12.133,26.5,11.7z"/>
	<path style="fill-rule:evenodd;clip-rule:evenodd;fill:#B5974A;" d="M35.15,17.7c1.199,0.667,2.267,1.433,3.199,2.3l-1.25,1.3
		l-2-1.149c-2.2-1-3.966-1.851-5.3-2.55c-2.5-1.267-4.367-2.45-5.6-3.55c-1.133-1-2.233-2.216-3.3-3.65
		c-1.367-1.8-2.217-2.883-2.55-3.25c-0.733-0.8-1.617-1.45-2.65-1.95l1.85-1.45L18.8,5c2.934,3.7,5.034,6.283,6.3,7.75
		c0.967,1.133,2.517,2.083,4.65,2.85C32.65,16.6,34.45,17.3,35.15,17.7z"/>
	<path style="fill-rule:evenodd;clip-rule:evenodd;fill:#B5974A;" d="M19,23.3c-1.267-0.133-1.983,0.066-2.15,0.601
		c-0.133,0.433,0.1,0.767,0.7,1c0.367,0.133,0.95,0.267,1.75,0.399c0.7,0.167,0.617-0.184-0.25-1.05l1.1,0.45
		c0.767,0.366,1.317,0.717,1.65,1.05c0.467,0.5,0.35,0.884-0.35,1.15c-0.767,0.267-1.9,0.133-3.4-0.4c-1.7-0.6-2.783-1.533-3.25-2.8
		c-0.466-1.267,0.117-1.783,1.75-1.55c2.155,0.289,4.063,1.03,5.725,2.225C21.342,23.752,20.25,23.394,19,23.3z"/>
</g>
<use xlink:href="#flash0.ai_x5F_0_x2F_Layer_13_x2F__x3C_Path_x3E__x5F_72"  width="36.85" height="19.88" y="-19.85" transform="matrix(1 0 0 -1 4.2002 14.5498)" style="overflow:visible;opacity:0.5;enable-background:new    ;"/>
<use xlink:href="#flash0.ai_x5F_0_x2F_Layer_13_x2F__x3C_Path_x3E__x5F_71"  width="12.275" height="9.75" y="-9.75" transform="matrix(1 0.0459 0 -1 18.6001 3.6001)" style="overflow:visible;opacity:0.5;enable-background:new    ;"/>
<linearGradient id="SVGID_1_" gradientUnits="userSpaceOnUse" x1="18.3354" y1="6.9751" x2="19.5115" y2="6.9751" gradientTransform="matrix(2.6419 0.2141 -0.0746 1.114 -22.7499 -4.8996)">
	<stop  offset="0" style="stop-color:#CF8E2E"/>
	<stop  offset="1" style="stop-color:#D48D24"/>
</linearGradient>
<polygon style="fill-rule:evenodd;clip-rule:evenodd;fill:url(#SVGID_1_);" points="28.882,5.605 25.907,13.28 26.095,4.656 
	28.067,1.315 29.309,0.708 "/>
<linearGradient id="SVGID_2_" gradientUnits="userSpaceOnUse" x1="16.9888" y1="7.2051" x2="18.5905" y2="7.2051" gradientTransform="matrix(2.6422 0.2093 -0.0632 1.115 -22.7499 -4.8997)">
	<stop  offset="0" style="stop-color:#EBA844"/>
	<stop  offset="1" style="stop-color:#EBA031"/>
</linearGradient>
<path style="fill-rule:evenodd;clip-rule:evenodd;fill:url(#SVGID_2_);" d="M26.284,1.559L25.907,13.28
	c-0.022-0.348-0.181-0.859-0.477-1.534l-1.894-4.257l0.089-0.524c0.088-0.399-0.042-2.536-0.389-6.409L26.284,1.559z"/>
<linearGradient id="SVGID_3_" gradientUnits="userSpaceOnUse" x1="17.0361" y1="3.8481" x2="19.4882" y2="3.8481" gradientTransform="matrix(2.6418 0.2161 -0.0792 1.1137 -22.7512 -4.899)">
	<stop  offset="0" style="stop-color:#FFBB54"/>
	<stop  offset="1" style="stop-color:#F7CC5E"/>
</linearGradient>
<path style="fill-rule:evenodd;clip-rule:evenodd;fill:url(#SVGID_3_);" d="M26.007,6.358l-2.77-5.803l0.612-0.051
	c0.648-0.015,1.493,0.004,2.537,0.055l2.924,0.149c-0.493,0.467-0.997,1.203-1.513,2.208L26.007,6.358z"/>
<linearGradient id="SVGID_4_" gradientUnits="userSpaceOnUse" x1="12.7319" y1="8.5459" x2="16.9735" y2="8.5459" gradientTransform="matrix(1.3519 -0.0579 0.12 1.3574 -0.4004 -3.2008)">
	<stop  offset="0" style="stop-color:#EBA844"/>
	<stop  offset="1" style="stop-color:#EBA031"/>
</linearGradient>
<path style="fill-rule:evenodd;clip-rule:evenodd;fill:url(#SVGID_4_);" d="M21.586,3.51l1.9,2.598l0.61,7.425
	c-1.357-0.741-2.51-1.518-3.46-2.331l-2.442-2.012c-0.272-0.6-0.385-1.149-0.339-1.645c0.045-0.496-0.113-2.493-0.475-5.993
	l1.425-0.07L21.586,3.51z"/>
<linearGradient id="SVGID_5_" gradientUnits="userSpaceOnUse" x1="13.3169" y1="0.042" x2="18.5395" y2="0.042" gradientTransform="matrix(1.3257 0.3516 -0.2907 1.3123 -0.4 -3.2007)">
	<stop  offset="0" style="stop-color:#FFBB54"/>
	<stop  offset="1" style="stop-color:#F7CC5E"/>
</linearGradient>
<path style="fill-rule:evenodd;clip-rule:evenodd;fill:url(#SVGID_5_);" d="M17.243,1.478l1.697-1.076
	c0.542-0.292,1.199-0.579,1.968-0.86l2.375,6.216l0.271,0.42c-1.9-1.264-3.212-2.184-3.936-2.759L17.243,1.478z"/>
<linearGradient id="SVGID_6_" gradientUnits="userSpaceOnUse" x1="8.2476" y1="10.583" x2="14.825" y2="10.583" gradientTransform="matrix(1.4376 -0.2018 0.1317 0.9994 -1.4997 1.6002)">
	<stop  offset="0" style="stop-color:#EBA844"/>
	<stop  offset="1" style="stop-color:#EBA031"/>
</linearGradient>
<path style="fill-rule:evenodd;clip-rule:evenodd;fill:url(#SVGID_6_);" d="M12.07,12.631l-0.794-5.819l1.299-0.403l3.104-0.033
	l5.269,1.019l0.578,5.734c-2.358,0.01-4.091-0.027-5.197-0.111L12.07,12.631z"/>
<linearGradient id="SVGID_7_" gradientUnits="userSpaceOnUse" x1="8.2407" y1="6.8174" x2="14.8181" y2="6.8174" gradientTransform="matrix(1.4376 -0.2005 0.1317 0.9858 -1.4997 1.7995)">
	<stop  offset="0" style="stop-color:#FFBB54"/>
	<stop  offset="1" style="stop-color:#F7CC5E"/>
</linearGradient>
<path style="fill-rule:evenodd;clip-rule:evenodd;fill:url(#SVGID_7_);" d="M20.949,7.493c-2.887-0.014-4.884-0.062-5.991-0.145
	c-0.914-0.063-1.805-0.146-2.671-0.247l-1.01-0.173c0.145-0.178,0.361-0.394,0.649-0.649c0.481-0.503,0.987-0.908,1.516-1.215
	c0.818-0.429,1.444-0.676,1.876-0.743L20.949,7.493z"/>
<path style="fill-rule:evenodd;clip-rule:evenodd;fill:#E6C44E;" d="M20.85,13.5l-0.15,3.8c-1.067,0.867-1.817,1.534-2.25,2
	l-3.8,4.3c-0.767,0.967-1.983,2.084-3.65,3.351l-0.7-3.9l0.6-2.75c0.033-0.166,0.283-0.533,0.75-1.1c0.467-0.567,0.8-0.917,1-1.05
	c1.5-0.767,2.383-1.3,2.65-1.6c1-1.4,1.767-2.183,2.3-2.35L20.85,13.5z"/>
<path style="fill-rule:evenodd;clip-rule:evenodd;fill:#FFDE64;" d="M4.5,21.2l-0.35-7.95l3.2,2.15c0.133,1,1.433,2.4,3.9,4.2
	L11,26.95c-1.9-1.5-2.933-2.351-3.1-2.55L6.35,23c-0.067-0.3-0.167-0.55-0.3-0.75c-0.066-0.134-0.216-0.2-0.45-0.2H5.25L4.5,21.2z"
	/>
<path style="fill-rule:evenodd;clip-rule:evenodd;fill:#FFF6A1;" d="M4.15,13.25c2,0.5,3.867,0.617,5.6,0.35
	c0.8-0.1,1.817-0.167,3.05-0.2c1.034-0.033,1.717-0.083,2.05-0.15c0.667-0.167,1.667-0.2,3-0.1l1.9,0.15l1.1,0.2
	c-2.533,1.733-4.333,2.933-5.4,3.6c-1.1,0.667-2.5,1.583-4.2,2.75c-1.3-0.733-2.55-1.767-3.75-3.1
	C6.133,15.25,5.017,14.083,4.15,13.25z"/>
<path style="fill-rule:evenodd;clip-rule:evenodd;fill:#E6C44E;" d="M23.95,17.9l-1.25,3c-0.867,2.333-1.534,4.25-2,5.75
	c-0.4,1.233-0.917,2.583-1.55,4.05l-1.5-1.8c-0.033-1.5-0.033-2.351,0-2.551c0-0.166,0.117-0.616,0.35-1.35s0.417-1.233,0.55-1.5
	c0.867-1.467,1.383-2.434,1.55-2.9c0.167-0.566,0.333-1.066,0.5-1.5c0.267-0.867,0.517-1.45,0.75-1.75l2.1-2.55L23.95,17.9z"/>
<path style="fill-rule:evenodd;clip-rule:evenodd;fill:#FFDE64;" d="M15.05,21.35c0.267,0.733,1.5,1.4,3.7,2l0.2,6.301
	c0.133,0.566,0.167,0.916,0.1,1.05L15.7,28.6L14.45,28.4c-0.1-0.167-0.217-0.284-0.35-0.351L13.55,27.9l-0.7-0.551
	c-0.133-0.066-0.217-0.233-0.25-0.5c-0.067-0.3-0.217-2.233-0.45-5.8L15.05,21.35z"/>
<path style="fill-rule:evenodd;clip-rule:evenodd;fill:#FFF6A1;" d="M23.45,14.85c-0.833,2.233-1.6,3.8-2.3,4.7
	c-0.733,0.934-1.55,2.351-2.45,4.25c-1.633-0.866-2.934-1.5-3.9-1.899l-2.7-0.95c1.467-0.533,2.8-1.25,4-2.15
	c0.6-0.433,1.316-0.9,2.15-1.4c0.733-0.467,1.2-0.783,1.4-0.95c0.467-0.434,1.184-0.767,2.15-1L23.45,14.85z"/>
<linearGradient id="SVGID_8_" gradientUnits="userSpaceOnUse" x1="7.3999" y1="15.4648" x2="10.5999" y2="15.4648">
	<stop  offset="0" style="stop-color:#E6C44E"/>
	<stop  offset="1" style="stop-color:#FFF6A1"/>
</linearGradient>
<path style="fill-rule:evenodd;clip-rule:evenodd;fill:url(#SVGID_8_);" d="M9.05,14.45c0.733,0.066,1.217,0.267,1.45,0.6
	c0.233,0.333,0.133,0.65-0.3,0.95c-0.467,0.333-0.917,0.5-1.35,0.5c-0.533,0-0.95-0.233-1.25-0.7
	c-0.333-0.433-0.283-0.783,0.15-1.05C8.083,14.483,8.517,14.383,9.05,14.45z"/>
<linearGradient id="SVGID_9_" gradientUnits="userSpaceOnUse" x1="11.4873" y1="16.3916" x2="13.5123" y2="16.3916">
	<stop  offset="0" style="stop-color:#E6C44E"/>
	<stop  offset="1" style="stop-color:#FFF6A1"/>
</linearGradient>
<path style="fill-rule:evenodd;clip-rule:evenodd;fill:url(#SVGID_9_);" d="M12.45,15.5c1.033,0,1.35,0.317,0.95,0.95
	c-0.4,0.667-0.883,0.933-1.45,0.8c-0.434-0.1-0.55-0.417-0.35-0.95C11.8,15.767,12.083,15.5,12.45,15.5z"/>
<linearGradient id="SVGID_10_" gradientUnits="userSpaceOnUse" x1="15.0249" y1="14.4233" x2="17.0749" y2="14.4233">
	<stop  offset="0" style="stop-color:#E6C44E"/>
	<stop  offset="1" style="stop-color:#FFF6A1"/>
</linearGradient>
<path style="fill-rule:evenodd;clip-rule:evenodd;fill:url(#SVGID_10_);" d="M16,13.7c1.033,0.033,1.333,0.283,0.9,0.75
	c-0.433,0.466-0.933,0.7-1.5,0.7c-0.433,0-0.533-0.25-0.3-0.75C15.3,13.9,15.6,13.667,16,13.7z"/>
<linearGradient id="SVGID_11_" gradientUnits="userSpaceOnUse" x1="11.8125" y1="14.2754" x2="12.8875" y2="14.2754">
	<stop  offset="0" style="stop-color:#E6C44E"/>
	<stop  offset="1" style="stop-color:#FFF6A1"/>
</linearGradient>
<path style="fill-rule:evenodd;clip-rule:evenodd;fill:url(#SVGID_11_);" d="M12.3,14c0.667,0.1,0.817,0.233,0.45,0.4
	c-0.4,0.2-0.683,0.217-0.85,0.05c-0.1-0.167-0.1-0.284,0-0.35C12,14,12.133,13.967,12.3,14z"/>
<linearGradient id="SVGID_12_" gradientUnits="userSpaceOnUse" x1="10.1499" y1="17.7412" x2="11.2499" y2="17.7412">
	<stop  offset="0" style="stop-color:#E6C44E"/>
	<stop  offset="1" style="stop-color:#FFF6A1"/>
</linearGradient>
<path style="fill-rule:evenodd;clip-rule:evenodd;fill:url(#SVGID_12_);" d="M10.45,17.05c0.667-0.1,0.933,0.133,0.8,0.7
	c-0.2,0.6-0.45,0.817-0.75,0.65c-0.267-0.1-0.383-0.35-0.35-0.75C10.15,17.283,10.25,17.083,10.45,17.05z"/>
<linearGradient id="SVGID_13_" gradientUnits="userSpaceOnUse" x1="6.0498" y1="14.4141" x2="7.0498" y2="14.4141">
	<stop  offset="0" style="stop-color:#E6C44E"/>
	<stop  offset="1" style="stop-color:#FFF6A1"/>
</linearGradient>
<path style="fill-rule:evenodd;clip-rule:evenodd;fill:url(#SVGID_13_);" d="M6.4,13.9c0.567,0.033,0.783,0.25,0.65,0.65
	c-0.1,0.367-0.316,0.467-0.65,0.3c-0.267-0.133-0.383-0.333-0.35-0.6C6.083,14.017,6.2,13.9,6.4,13.9z"/>
<linearGradient id="SVGID_14_" gradientUnits="userSpaceOnUse" x1="14.4624" y1="20.6602" x2="16.7374" y2="20.6602">
	<stop  offset="0" style="stop-color:#E6C44E"/>
	<stop  offset="1" style="stop-color:#FFF6A1"/>
</linearGradient>
<path style="fill-rule:evenodd;clip-rule:evenodd;fill:url(#SVGID_14_);" d="M16.15,19.8c0.9-0.033,0.967,0.316,0.2,1.05
	s-1.333,0.867-1.7,0.4c-0.3-0.434-0.25-0.783,0.15-1.05C15.133,19.967,15.583,19.833,16.15,19.8z"/>
<linearGradient id="SVGID_15_" gradientUnits="userSpaceOnUse" x1="17.6875" y1="19.376" x2="19.6125" y2="19.376">
	<stop  offset="0" style="stop-color:#E6C44E"/>
	<stop  offset="1" style="stop-color:#FFF6A1"/>
</linearGradient>
<path style="fill-rule:evenodd;clip-rule:evenodd;fill:url(#SVGID_15_);" d="M18.7,18.2c0.933-0.267,1.167,0.117,0.7,1.15
	c-0.5,1.133-0.967,1.516-1.4,1.15c-0.367-0.267-0.433-0.7-0.2-1.3C18,18.667,18.3,18.333,18.7,18.2z"/>
<linearGradient id="SVGID_16_" gradientUnits="userSpaceOnUse" x1="20.5376" y1="17.1748" x2="21.9626" y2="17.1748">
	<stop  offset="0" style="stop-color:#E6C44E"/>
	<stop  offset="1" style="stop-color:#FFF6A1"/>
</linearGradient>
<path style="fill-rule:evenodd;clip-rule:evenodd;fill:url(#SVGID_16_);" d="M20.95,16.3c0.9-0.167,1.216,0.083,0.95,0.75
	c-0.3,0.7-0.65,1.05-1.05,1.05c-0.267,0-0.367-0.283-0.3-0.85C20.617,16.683,20.75,16.367,20.95,16.3z"/>
<linearGradient id="SVGID_17_" gradientUnits="userSpaceOnUse" x1="19.3374" y1="17.3027" x2="20.0624" y2="17.3027">
	<stop  offset="0" style="stop-color:#E6C44E"/>
	<stop  offset="1" style="stop-color:#FFF6A1"/>
</linearGradient>
<path style="fill-rule:evenodd;clip-rule:evenodd;fill:url(#SVGID_17_);" d="M19.45,17.05c0.4-0.167,0.617-0.167,0.65,0
	c0.033,0.167-0.067,0.35-0.3,0.55c-0.2,0.133-0.333,0.1-0.4-0.1C19.3,17.3,19.317,17.15,19.45,17.05z"/>
<linearGradient id="SVGID_18_" gradientUnits="userSpaceOnUse" x1="19.6377" y1="19.5034" x2="20.4627" y2="19.5034">
	<stop  offset="0" style="stop-color:#E6C44E"/>
	<stop  offset="1" style="stop-color:#FFF6A1"/>
</linearGradient>
<path style="fill-rule:evenodd;clip-rule:evenodd;fill:url(#SVGID_18_);" d="M20.25,18.75c0.3,0,0.35,0.283,0.15,0.85
	c-0.233,0.567-0.45,0.766-0.65,0.6c-0.167-0.134-0.167-0.417,0-0.85C19.917,18.95,20.083,18.75,20.25,18.75z"/>
<linearGradient id="SVGID_19_" gradientUnits="userSpaceOnUse" x1="17.375" y1="21.8057" x2="18.125" y2="21.8057">
	<stop  offset="0" style="stop-color:#E6C44E"/>
	<stop  offset="1" style="stop-color:#FFF6A1"/>
</linearGradient>
<path style="fill-rule:evenodd;clip-rule:evenodd;fill:url(#SVGID_19_);" d="M17.8,21.25c0.367-0.033,0.45,0.167,0.25,0.6
	c-0.167,0.467-0.35,0.617-0.55,0.45c-0.133-0.133-0.15-0.333-0.05-0.6C17.517,21.434,17.633,21.283,17.8,21.25z"/>
<linearGradient id="SVGID_20_" gradientUnits="userSpaceOnUse" x1="18.4126" y1="22.0234" x2="19.1876" y2="22.0234">
	<stop  offset="0" style="stop-color:#E6C44E"/>
	<stop  offset="1" style="stop-color:#FFF6A1"/>
</linearGradient>
<path style="fill-rule:evenodd;clip-rule:evenodd;fill:url(#SVGID_20_);" d="M18.85,21.35c0.333-0.033,0.433,0.184,0.3,0.65
	s-0.316,0.7-0.55,0.7c-0.2,0-0.25-0.217-0.15-0.65C18.55,21.616,18.683,21.384,18.85,21.35z"/>
<linearGradient id="SVGID_21_" gradientUnits="userSpaceOnUse" x1="15.9683" y1="-5.0205" x2="19.6196" y2="-5.0205" gradientTransform="matrix(0.0274 0.9996 -0.9996 0.0274 3.362317e-004 -2.361983e-004)">
	<stop  offset="0" style="stop-color:#C7AA44"/>
	<stop  offset="1" style="stop-color:#FFE278"/>
</linearGradient>
<path style="fill-rule:evenodd;clip-rule:evenodd;fill:url(#SVGID_21_);" d="M5.9,16.55c0.333,1.8,0.25,2.8-0.25,3
	c-0.5,0.2-0.733-0.316-0.7-1.55c0.033-1.067,0.167-1.783,0.4-2.15S5.767,15.717,5.9,16.55z"/>
<linearGradient id="SVGID_22_" gradientUnits="userSpaceOnUse" x1="18.1958" y1="-6.2295" x2="21.3224" y2="-6.2295" gradientTransform="matrix(0.032 0.9995 -0.9995 0.032 -8.013099e-005 -4.866719e-005)">
	<stop  offset="0" style="stop-color:#C7AA44"/>
	<stop  offset="1" style="stop-color:#FFE278"/>
</linearGradient>
<path style="fill-rule:evenodd;clip-rule:evenodd;fill:url(#SVGID_22_);" d="M7.05,18.1c0.267,0.733,0.267,1.583,0,2.55
	C6.75,21.616,6.567,21.6,6.5,20.6c-0.067-0.866-0.033-1.6,0.1-2.2S6.883,17.7,7.05,18.1z"/>
<linearGradient id="SVGID_23_" gradientUnits="userSpaceOnUse" x1="18.4883" y1="-7.6582" x2="20.9894" y2="-7.6582" gradientTransform="matrix(0.03 0.9996 -0.9996 0.03 -1.864228e-004 3.779829e-004)">
	<stop  offset="0" style="stop-color:#C7AA44"/>
	<stop  offset="1" style="stop-color:#FFE278"/>
</linearGradient>
<path style="fill-rule:evenodd;clip-rule:evenodd;fill:url(#SVGID_23_);" d="M8.15,18.2c0.367,0,0.55,0.517,0.55,1.55
	s-0.167,1.366-0.5,1c-0.3-0.333-0.434-0.85-0.4-1.55C7.8,18.533,7.917,18.2,8.15,18.2z"/>
<linearGradient id="SVGID_24_" gradientUnits="userSpaceOnUse" x1="22.749" y1="-8.6016" x2="24.6247" y2="-8.6016" gradientTransform="matrix(0.0267 0.9996 -0.9996 0.0267 -2.192091e-004 4.361272e-004)">
	<stop  offset="0" style="stop-color:#C7AA44"/>
	<stop  offset="1" style="stop-color:#FFE278"/>
</linearGradient>
<path style="fill-rule:evenodd;clip-rule:evenodd;fill:url(#SVGID_24_);" d="M9.3,22.6c0.567,0.801,0.667,1.367,0.3,1.7
	c-0.367,0.367-0.65,0.334-0.85-0.1c-0.133-0.334-0.117-0.75,0.05-1.25C8.933,22.45,9.1,22.333,9.3,22.6z"/>
<linearGradient id="SVGID_25_" gradientUnits="userSpaceOnUse" x1="20.6328" y1="-9.7881" x2="22.5835" y2="-9.7881" gradientTransform="matrix(0.0256 0.9997 -0.9997 0.0256 3.205258e-004 -1.314133e-004)">
	<stop  offset="0" style="stop-color:#C7AA44"/>
	<stop  offset="1" style="stop-color:#FFE278"/>
</linearGradient>
<path style="fill-rule:evenodd;clip-rule:evenodd;fill:url(#SVGID_25_);" d="M10.35,20.3c0.267,0,0.4,0.4,0.4,1.2
	s-0.15,1.066-0.45,0.8c-0.3-0.233-0.417-0.633-0.35-1.2C10.017,20.566,10.15,20.3,10.35,20.3z"/>
<linearGradient id="SVGID_26_" gradientUnits="userSpaceOnUse" x1="22.4185" y1="-12.5146" x2="24.7946" y2="-12.5146" gradientTransform="matrix(0.0316 0.9995 -0.9995 0.0316 2.347790e-004 -4.811585e-005)">
	<stop  offset="0" style="stop-color:#C7AA44"/>
	<stop  offset="1" style="stop-color:#FFE278"/>
</linearGradient>
<path style="fill-rule:evenodd;clip-rule:evenodd;fill:url(#SVGID_26_);" d="M13.65,22.7c0.2,1.133,0.133,1.733-0.2,1.8
	c-0.3,0.066-0.517-0.25-0.65-0.95c-0.1-0.6-0.017-1.083,0.25-1.45C13.317,21.733,13.517,21.934,13.65,22.7z"/>
<linearGradient id="SVGID_27_" gradientUnits="userSpaceOnUse" x1="25.4268" y1="-14.394" x2="27.9529" y2="-14.394" gradientTransform="matrix(0.0297 0.9996 -0.9996 0.0297 -2.681054e-004 -8.574128e-005)">
	<stop  offset="0" style="stop-color:#C7AA44"/>
	<stop  offset="1" style="stop-color:#FFE278"/>
</linearGradient>
<path style="fill-rule:evenodd;clip-rule:evenodd;fill:url(#SVGID_27_);" d="M14.9,24.95c0.6-0.167,0.883,0.267,0.85,1.3
	c-0.067,1.033-0.283,1.467-0.65,1.3c-0.3-0.133-0.467-0.583-0.5-1.35S14.667,25.017,14.9,24.95z"/>
<linearGradient id="SVGID_28_" gradientUnits="userSpaceOnUse" x1="27.417" y1="-15.917" x2="28.8928" y2="-15.917" gradientTransform="matrix(0.0339 0.9994 -0.9994 0.0339 -2.125353e-004 -6.508827e-005)">
	<stop  offset="0" style="stop-color:#C7AA44"/>
	<stop  offset="1" style="stop-color:#FFE278"/>
</linearGradient>
<path style="fill-rule:evenodd;clip-rule:evenodd;fill:url(#SVGID_28_);" d="M16.95,26.8c0.267,0.066,0.35,0.4,0.25,1
	c-0.1,0.566-0.267,0.733-0.5,0.5c-0.2-0.267-0.267-0.583-0.2-0.95C16.567,26.95,16.717,26.767,16.95,26.8z"/>
<linearGradient id="SVGID_29_" gradientUnits="userSpaceOnUse" x1="23.9868" y1="-15.792" x2="26.413" y2="-15.792" gradientTransform="matrix(0.0309 0.9995 -0.9995 0.0309 1.417343e-004 -4.088432e-004)">
	<stop  offset="0" style="stop-color:#C7AA44"/>
	<stop  offset="1" style="stop-color:#FFE278"/>
</linearGradient>
<path style="fill-rule:evenodd;clip-rule:evenodd;fill:url(#SVGID_29_);" d="M16.25,23.55c0.533-0.366,0.783-0.083,0.75,0.851
	c-0.067,0.966-0.217,1.5-0.45,1.6c-0.167,0.066-0.3-0.3-0.4-1.1C16.05,24.134,16.083,23.684,16.25,23.55z"/>
<linearGradient id="SVGID_30_" gradientUnits="userSpaceOnUse" x1="25.7749" y1="-17.0225" x2="28.0012" y2="-17.0225" gradientTransform="matrix(0.0337 0.9994 -0.9994 0.0337 -6.687269e-005 1.357645e-004)">
	<stop  offset="0" style="stop-color:#C7AA44"/>
	<stop  offset="1" style="stop-color:#FFE278"/>
</linearGradient>
<path style="fill-rule:evenodd;clip-rule:evenodd;fill:url(#SVGID_30_);" d="M17.9,25.15c0.267-0.101,0.417,0.3,0.45,1.199
	c0,0.867-0.15,1.233-0.45,1.101c-0.3-0.134-0.433-0.533-0.4-1.2S17.667,25.217,17.9,25.15z"/>
<linearGradient id="SVGID_31_" gradientUnits="userSpaceOnUse" x1="26.3516" y1="-12.4121" x2="27.2019" y2="-12.4121" gradientTransform="matrix(0.0294 0.9996 -0.9996 0.0294 1.446065e-004 4.598424e-004)">
	<stop  offset="0" style="stop-color:#C7AA44"/>
	<stop  offset="1" style="stop-color:#FFE278"/>
</linearGradient>
<path style="fill-rule:evenodd;clip-rule:evenodd;fill:url(#SVGID_31_);" d="M13.4,26.1c-0.1,0.601-0.217,0.834-0.35,0.7
	c-0.1-0.1-0.083-0.316,0.05-0.649C13.2,25.85,13.3,25.833,13.4,26.1z"/>
<path style="fill-rule:evenodd;clip-rule:evenodd;fill:#FFF38F;" d="M37.75,11.95l0.05,0.15c-1.633,1.867-2.883,2.767-3.75,2.7
	l-4.95-0.1l1.95-1.5l1.7-0.55c1.267-0.467,2.25-0.9,2.95-1.3c1.066-0.633,2.45-1.333,4.149-2.1L37.75,11.95z"/>
<linearGradient id="SVGID_32_" gradientUnits="userSpaceOnUse" x1="-20.7051" y1="36.8408" x2="-14.2995" y2="36.8408" gradientTransform="matrix(-0.0981 -0.9952 0.9952 -0.0981 1.334324e-004 7.888675e-005)">
	<stop  offset="0.0235" style="stop-color:#C28221"/>
	<stop  offset="1" style="stop-color:#C9932A"/>
</linearGradient>
<path style="fill-rule:evenodd;clip-rule:evenodd;fill:url(#SVGID_32_);" d="M40.15,10.6c0.1,1.1,0.149,2.017,0.149,2.75l-0.05,2.25
	c-1.167,1.566-1.85,2.45-2.05,2.65l-0.351,0.3l-1.55-4.7c0.5-0.7,1.033-1.55,1.601-2.55l1.25-1.2C39.616,9.633,39.9,9.317,40,9.15
	L40.15,10.6z"/>
<path style="fill-rule:evenodd;clip-rule:evenodd;fill:#DEC96A;" d="M29,14.75l2.25-0.5c1.667-0.433,2.9-0.867,3.7-1.3
	c1.1-0.567,2.05-1.1,2.85-1.6c0.167,0.133,0.25,1.4,0.25,3.8c0,1.667-0.05,2.833-0.149,3.5c-1.134-1.333-2.334-2.133-3.601-2.4
	c-1.4-0.3-2.7-0.65-3.9-1.05L29,14.75z"/>
<path style="fill-rule:evenodd;clip-rule:evenodd;fill:#FFF38F;" d="M27.6,17.9l-2.8-0.3l0.7-0.6c0.333-0.167,0.817-0.517,1.45-1.05
	l2.25-0.45c1.633-0.4,2.867-0.783,3.7-1.15c1.3-0.533,2.45-1.067,3.45-1.6L35.9,15.8v0.15c-1.967,1.833-3.434,2.65-4.4,2.45
	C30.9,18.267,29.6,18.1,27.6,17.9z"/>
<linearGradient id="SVGID_33_" gradientUnits="userSpaceOnUse" x1="-22.7285" y1="33.5176" x2="-15.4224" y2="33.5176" gradientTransform="matrix(-0.0406 -0.9992 0.9992 -0.0406 1.257993e-004 -3.561378e-004)">
	<stop  offset="0.0235" style="stop-color:#C28221"/>
	<stop  offset="1" style="stop-color:#C9932A"/>
</linearGradient>
<path style="fill-rule:evenodd;clip-rule:evenodd;fill:url(#SVGID_33_);" d="M36.45,14.35c0.1,1.233,0.133,2.25,0.1,3.05
	c-0.033,1.3-0.083,2.117-0.149,2.45c-1.4,1.6-2.217,2.483-2.45,2.65l-0.4,0.3l-1.65-5.35c0.6-0.7,1.25-1.567,1.95-2.6l2.5-2.1
	L36.45,14.35z"/>
<path style="fill-rule:evenodd;clip-rule:evenodd;fill:#DEC96A;" d="M24.75,17.65l2-0.35c1.5-0.333,2.7-0.667,3.6-1
	c1.3-0.5,2.433-0.966,3.4-1.4c0.167,0.167,0.217,1.567,0.15,4.2c-0.067,1.833-0.167,3.1-0.301,3.8
	c-1.566-1.067-2.933-2.084-4.1-3.05c-0.7-0.633-1.7-1.184-3-1.65L24.75,17.65z"/>
<path style="fill-rule:evenodd;clip-rule:evenodd;fill:#FFF38F;" d="M28,21.8c-0.533-0.233-1.567-0.583-3.1-1.05l-2.1-0.6l0.8-1.05
	l1.1-1l4.7-0.4c1.233-0.167,2.3-0.467,3.2-0.9l-0.5,3.1v0.15C30.267,21.616,28.9,22.2,28,21.8z"/>
<linearGradient id="SVGID_34_" gradientUnits="userSpaceOnUse" x1="-23.856" y1="31.1777" x2="-17.4778" y2="31.1777" gradientTransform="matrix(0.0302 -0.9995 0.9995 0.0302 2.528392e-004 -2.535135e-004)">
	<stop  offset="0.0235" style="stop-color:#C28221"/>
	<stop  offset="1" style="stop-color:#C9932A"/>
</linearGradient>
<path style="fill-rule:evenodd;clip-rule:evenodd;fill:url(#SVGID_34_);" d="M28.4,20.85c0.567-0.6,1.184-1.366,1.85-2.3l1.4-0.9
	c0.5-0.4,0.817-0.683,0.95-0.85l0.1,4.851c-0.067,1.333-0.133,2.149-0.2,2.449c-1.333,1.434-2.117,2.217-2.35,2.351l-0.4,0.2
	L28.4,20.85z"/>
<path style="fill-rule:evenodd;clip-rule:evenodd;fill:#DEC96A;" d="M22.6,20l1.45-0.1c1.133-0.1,2.133-0.25,3-0.45
	c1.2-0.267,2.25-0.55,3.15-0.85c0.133,0.2,0.133,1.65,0,4.35c-0.1,1.833-0.233,3.1-0.4,3.8c-1.4-1.333-2.617-2.6-3.65-3.8
	c-0.633-0.733-1.417-1.45-2.35-2.15L22.6,20z"/>
</svg>
