<?xml version="1.0" encoding="iso-8859-1"?>
<!-- Generator: Adobe Illustrator 15.1.0, SVG Export Plug-In . SVG Version: 6.00 Build 0)  -->
<!DOCTYPE svg PUBLIC "-//W3C//DTD SVG 1.1//EN" "http://www.w3.org/Graphics/SVG/1.1/DTD/svg11.dtd">
<svg version="1.1" id="flash0.ai" xmlns="http://www.w3.org/2000/svg" xmlns:xlink="http://www.w3.org/1999/xlink" x="0px" y="0px"
	 width="43.3px" height="42.1px" viewBox="0 0 43.3 42.1" style="enable-background:new 0 0 43.3 42.1;" xml:space="preserve">
<symbol  id="flash0.ai_x5F_8_x2F_Layer_43_x2F__x3C_Path_x3E__x5F_10" viewBox="0 -31.5 5.3 31.5">
	<g id="Layer_1_3_">
		<linearGradient id="SVGID_1_" gradientUnits="userSpaceOnUse" x1="4.2661" y1="-27.4805" x2="2.5161" y2="-2.3805">
			<stop  offset="0" style="stop-color:#FFFFFF"/>
			<stop  offset="1" style="stop-color:#000000"/>
		</linearGradient>
		<path style="fill-rule:evenodd;clip-rule:evenodd;fill:url(#SVGID_1_);" d="M2-0.55c0.167-0.6,0.617-1.483,1.35-2.65
			C3.55-3.5,3.933-4,4.5-4.7C5-5.4,5.267-6,5.3-6.5l-0.35-21l-0.4-0.85c-0.333-0.667-0.7-1.233-1.1-1.7
			c-0.6-0.733-1.067-1.217-1.4-1.45c0.333,1.267,0.517,3.333,0.55,6.2c0.066,2.4,0.083,5.767,0.05,10.1c0,4.633-0.05,7.267-0.15,7.9
			C2.433-6.8,2.167-6.017,1.7-4.95C1.133-3.583,0.767-2.667,0.6-2.2C0.2-1,0-0.267,0,0L2-0.55z"/>
	</g>
</symbol>
<symbol  id="flash0.ai_x5F_8_x2F_Layer_43_x2F__x3C_Path_x3E__x5F_11" viewBox="0 -31.5 5.25 31.5">
	<g id="Layer_1_2_">
		
			<linearGradient id="SVGID_2_" gradientUnits="userSpaceOnUse" x1="-544.9443" y1="-15751.1602" x2="-519.7834" y2="-15751.1602" gradientTransform="matrix(0.0696 -0.9976 0.9976 0.0696 15752.9023 549.4541)">
			<stop  offset="0" style="stop-color:#FFFFFF"/>
			<stop  offset="1" style="stop-color:#000000"/>
		</linearGradient>
		<path style="fill-rule:evenodd;clip-rule:evenodd;fill:url(#SVGID_2_);" d="M3.3-0.55L5.25,0c0-0.267-0.2-1-0.6-2.2
			C4.483-2.733,4.133-3.65,3.6-4.95C3.133-6.017,2.867-6.8,2.8-7.3c-0.1-0.6-0.15-3.233-0.15-7.9c-0.033-3.966-0.033-7.333,0-10.1
			c0.033-2.867,0.233-4.934,0.6-6.2c-0.367,0.233-0.85,0.717-1.45,1.45c-0.367,0.466-0.733,1.033-1.1,1.7L0.3-27.5L0-6.5
			C0.033-6,0.3-5.4,0.8-4.7C1.4-4,1.783-3.5,1.95-3.2C2.683-2.033,3.133-1.15,3.3-0.55z"/>
	</g>
</symbol>
<symbol  id="flash0.ai_x5F_8_x2F_Layer_43_x2F__x3C_Path_x3E__x5F_4" viewBox="-0.022 -1.206 9.522 1.206">
	<g id="Layer_1_5_">
		<path style="fill-rule:evenodd;clip-rule:evenodd;fill:#FFFFFF;" d="M0.4-0.05c0.633-0.2,1.667-0.4,3.1-0.6
			c1.8-0.267,3.8-0.4,6-0.4c-0.067-0.167-1.15-0.2-3.25-0.1c-2.533,0.066-4.533,0.35-6,0.85C0.017-0.2-0.067-0.117,0-0.05
			C0.067,0.017,0.2,0.017,0.4-0.05z"/>
	</g>
</symbol>
<symbol  id="flash0.ai_x5F_8_x2F_Layer_43_x2F__x3C_Path_x3E__x5F_9" viewBox="0 -3.112 16.45 3.112">
	<g id="Layer_1_4_">
		<path style="fill-rule:evenodd;clip-rule:evenodd;fill:#94894D;" d="M15.55,0c0.1-0.233,0.4-0.717,0.9-1.45
			c-1.467-1.2-4.034-1.75-7.7-1.65C4.617-3,1.7-2.25,0-0.85L0.5,0L8-0.4L15.55,0z"/>
	</g>
</symbol>
<linearGradient id="SVGID_3_" gradientUnits="userSpaceOnUse" x1="-0.0376" y1="22.9814" x2="24.1374" y2="22.9814">
	<stop  offset="0" style="stop-color:#FFE8AD"/>
	<stop  offset="1" style="stop-color:#8F7441"/>
</linearGradient>
<path style="fill-rule:evenodd;clip-rule:evenodd;fill:url(#SVGID_3_);" d="M22.3,9.7c0.667,0.733,1.134,1.433,1.4,2.1
	c0.3,0.8,0.45,1.9,0.45,3.3c0,1.267-0.117,4.467-0.351,9.6c-0.2,4.434-0.35,7.3-0.45,8.6c-0.1,1.066-0.566,2.101-1.399,3.101
	c-1.1,1.366-2.717,2.35-4.85,2.949c-1.733,0.467-3.417,0.667-5.05,0.601c-1.6,0.066-3.267-0.134-5-0.601
	C4.917,38.75,3.3,37.767,2.2,36.4c-0.833-1-1.3-2.034-1.4-3.101c-0.066-0.866-0.216-3.733-0.45-8.6C0.117,19.667,0,16.467,0,15.1
	c0-1.4,0.15-2.5,0.45-3.3c0.267-0.667,0.733-1.367,1.4-2.1C3.183,8.267,4.083,7.033,4.55,6l7.5,0.4L19.6,6
	C20.067,7.033,20.967,8.267,22.3,9.7z"/>
<linearGradient id="SVGID_4_" gradientUnits="userSpaceOnUse" x1="0.6499" y1="22.8066" x2="23.3496" y2="22.8066">
	<stop  offset="0" style="stop-color:#FFD770"/>
	<stop  offset="1" style="stop-color:#A3844A"/>
</linearGradient>
<path style="fill-rule:evenodd;clip-rule:evenodd;fill:url(#SVGID_4_);" d="M21.6,9.9c0.634,0.733,1.067,1.417,1.301,2.05
	c0.3,0.8,0.449,1.867,0.449,3.2c0,1.333-0.116,4.45-0.35,9.35c-0.2,4.733-0.35,7.517-0.45,8.35c-0.066,1.034-0.483,2.034-1.25,3
	c-1.066,1.334-2.6,2.284-4.6,2.851c-1.633,0.467-3.2,0.666-4.7,0.6c-1.567,0.066-3.15-0.133-4.75-0.6
	c-2-0.566-3.517-1.517-4.55-2.851c-0.767-0.933-1.2-1.933-1.3-3C1.333,31.717,1.2,28.934,1,24.5c-0.233-5-0.35-8.117-0.35-9.35
	c0-1.333,0.15-2.4,0.45-3.2c0.233-0.633,0.667-1.317,1.3-2.05c1.2-1.333,2.033-2.533,2.5-3.6L12,6.7l7.05-0.4
	C19.55,7.4,20.4,8.6,21.6,9.9z"/>
<linearGradient id="SVGID_5_" gradientUnits="userSpaceOnUse" x1="1.7749" y1="25.3252" x2="14.5249" y2="25.3252">
	<stop  offset="0" style="stop-color:#FF8E4D"/>
	<stop  offset="1" style="stop-color:#AB591F"/>
</linearGradient>
<path style="fill-rule:evenodd;clip-rule:evenodd;fill:url(#SVGID_5_);" d="M10.45,18.15c1.7,0.733,3.066,1.7,4.1,2.9L7.3,35.55
	c-0.8-1.633-1.7-3.866-2.7-6.7c-0.633-1.767-1.283-3.816-1.95-6.149l-0.85-3c0.434-0.867,1.25-1.517,2.45-1.95
	c0.233-0.8,0.617-1.433,1.15-1.9c0.567-0.5,1.2-0.75,1.9-0.75c0.767,0,1.45,0.3,2.05,0.9C9.917,16.567,10.283,17.283,10.45,18.15z"
	/>
<linearGradient id="SVGID_6_" gradientUnits="userSpaceOnUse" x1="3.1377" y1="24.8252" x2="12.4627" y2="24.8252">
	<stop  offset="0" style="stop-color:#FFDC5C"/>
	<stop  offset="1" style="stop-color:#C99A25"/>
</linearGradient>
<path style="fill-rule:evenodd;clip-rule:evenodd;fill:url(#SVGID_6_);" d="M9.45,18.95c1.233,0.6,2.233,1.383,3,2.35l-1.9,4.65
	c-0.633,1.434-1.767,3.85-3.4,7.25c-0.566-1.3-1.217-3.117-1.95-5.45L3.1,20.2c0.333-0.7,0.933-1.233,1.8-1.6
	c0.167-0.633,0.45-1.15,0.85-1.55c0.433-0.4,0.9-0.6,1.4-0.6c0.567,0,1.067,0.25,1.5,0.75C9.05,17.633,9.317,18.217,9.45,18.95z"/>
<use xlink:href="#flash0.ai_x5F_8_x2F_Layer_43_x2F__x3C_Path_x3E__x5F_11"  width="5.25" height="31.5" y="-31.5" transform="matrix(1 0 0 -1 2.2002 6.2998)" style="overflow:visible;opacity:0.5781;enable-background:new    ;"/>
<use xlink:href="#flash0.ai_x5F_8_x2F_Layer_43_x2F__x3C_Path_x3E__x5F_10"  width="5.3" height="31.5" y="-31.5" transform="matrix(1 0 0 -1 16.8501 6.2998)" style="overflow:visible;opacity:0.2109;enable-background:new    ;"/>
<use xlink:href="#flash0.ai_x5F_8_x2F_Layer_43_x2F__x3C_Path_x3E__x5F_9"  width="16.45" height="3.112" y="-3.112" transform="matrix(1 0 0 -1 4.0498 6)" style="overflow:visible;opacity:0.6719;enable-background:new    ;"/>
<linearGradient id="SVGID_7_" gradientUnits="userSpaceOnUse" x1="3.2998" y1="6" x2="20.7748" y2="6">
	<stop  offset="0" style="stop-color:#FFFFF0"/>
	<stop  offset="1" style="stop-color:#918649"/>
</linearGradient>
<path style="fill-rule:evenodd;clip-rule:evenodd;fill:url(#SVGID_7_);" d="M20.8,6c0,0.567-0.85,1.05-2.55,1.45
	c-1.733,0.4-3.8,0.6-6.2,0.6c-2.433,0-4.5-0.2-6.2-0.6C4.15,7.05,3.3,6.567,3.3,6s0.85-1.05,2.55-1.45c1.733-0.4,3.8-0.6,6.2-0.6
	c2.4,0,4.467,0.2,6.2,0.6C19.95,4.95,20.8,5.433,20.8,6z"/>
<linearGradient id="SVGID_8_" gradientUnits="userSpaceOnUse" x1="3" y1="5.5249" x2="21.2002" y2="5.5249">
	<stop  offset="0" style="stop-color:#E68045"/>
	<stop  offset="0.2118" style="stop-color:#FF9B61"/>
	<stop  offset="1" style="stop-color:#914C1A"/>
</linearGradient>
<path style="fill-rule:evenodd;clip-rule:evenodd;fill:url(#SVGID_8_);" d="M21.2,5.55c0,0.567-0.883,1.034-2.65,1.4
	c-1.767,0.4-3.917,0.6-6.45,0.6c-2.5,0-4.633-0.2-6.4-0.6C3.9,6.583,3,6.117,3,5.55C3,4.983,3.9,4.5,5.7,4.1
	c1.767-0.4,3.9-0.6,6.4-0.6c2.533,0,4.683,0.2,6.45,0.6C20.317,4.5,21.2,4.983,21.2,5.55z"/>
<linearGradient id="SVGID_9_" gradientUnits="userSpaceOnUse" x1="3.2124" y1="4.2998" x2="20.8874" y2="4.2998">
	<stop  offset="0" style="stop-color:#FF8E4D"/>
	<stop  offset="0.2118" style="stop-color:#FF9B61"/>
	<stop  offset="1" style="stop-color:#AB591F"/>
</linearGradient>
<path style="fill-rule:evenodd;clip-rule:evenodd;fill:url(#SVGID_9_);" d="M20.9,1.65V5.2c-0.066,0.433-0.95,0.833-2.65,1.2
	c-1.767,0.367-3.833,0.55-6.2,0.55c-2.333,0-4.383-0.184-6.15-0.55C4.2,6.033,3.317,5.633,3.25,5.2V1.65H20.9z"/>
<path style="fill-rule:evenodd;clip-rule:evenodd;fill:#FF9B61;" d="M20.9,1.7c0,0.466-0.867,0.867-2.6,1.2
	c-1.7,0.333-3.783,0.5-6.25,0.5c-2.433,0-4.5-0.167-6.2-0.5c-1.733-0.333-2.6-0.733-2.6-1.2c0-0.467,0.867-0.867,2.6-1.2
	C7.55,0.167,9.617,0,12.05,0c2.467,0,4.55,0.167,6.25,0.5C20.033,0.833,20.9,1.233,20.9,1.7z"/>
<use xlink:href="#flash0.ai_x5F_8_x2F_Layer_43_x2F__x3C_Path_x3E__x5F_4"  width="9.522" height="1.206" x="-0.022" y="-1.206" transform="matrix(1 0 0 -1 4.2998 6.7998)" style="overflow:visible;opacity:0.4805;enable-background:new    ;"/>
<path style="fill-rule:evenodd;clip-rule:evenodd;fill:#FFFFFF;" d="M4.55,36.35c0.7,0.367,1.117,0.75,1.25,1.15
	c0.133,0.366,0.05,0.55-0.25,0.55c-0.466,0-1.117-0.383-1.95-1.149c-0.367-0.367-0.4-0.601-0.1-0.7
	C3.8,36.066,4.15,36.116,4.55,36.35z"/>
<path style="fill-rule:evenodd;clip-rule:evenodd;fill:#FFFFFF;" d="M7.2,37.7c0.5,0.1,0.633,0.283,0.4,0.55S7.167,38.566,7,38.4
	c-0.167-0.134-0.25-0.301-0.25-0.5C6.717,37.7,6.867,37.634,7.2,37.7z"/>
<linearGradient id="SVGID_10_" gradientUnits="userSpaceOnUse" x1="2.7251" y1="30.5332" x2="13.375" y2="30.5332">
	<stop  offset="0" style="stop-color:#FFF38A"/>
	<stop  offset="1" style="stop-color:#D4AB46"/>
</linearGradient>
<path style="fill-rule:evenodd;clip-rule:evenodd;fill:url(#SVGID_10_);" d="M7.85,27.2l5.5,2.899l-0.3,3.75
	c-1.333,0.067-2.983-0.066-4.95-0.399c-1.934-0.334-3.6-0.834-5-1.5l-0.4-4.4L7.85,27.2z"/>
<linearGradient id="SVGID_11_" gradientUnits="userSpaceOnUse" x1="2.7251" y1="27.9004" x2="13.375" y2="27.9004">
	<stop  offset="0" style="stop-color:#FFF7AB"/>
	<stop  offset="1" style="stop-color:#F7CE68"/>
</linearGradient>
<polygon style="fill-rule:evenodd;clip-rule:evenodd;fill:url(#SVGID_11_);" points="7.85,25.7 13.35,30.1 2.7,27.55 "/>
</svg>
