<?xml version="1.0" encoding="iso-8859-1"?>
<!-- Generator: Adobe Illustrator 15.1.0, SVG Export Plug-In . SVG Version: 6.00 Build 0)  -->
<!DOCTYPE svg PUBLIC "-//W3C//DTD SVG 1.1//EN" "http://www.w3.org/Graphics/SVG/1.1/DTD/svg11.dtd">
<svg version="1.1" id="Layer_1" xmlns="http://www.w3.org/2000/svg" xmlns:xlink="http://www.w3.org/1999/xlink" x="0px" y="0px"
	 width="68.15px" height="45.8px" viewBox="0 0 68.15 45.8" style="enable-background:new 0 0 68.15 45.8;" xml:space="preserve">
<symbol  id="cheeseWS2" viewBox="0 -113.35 140.8 113.35">
	<g id="Layer_1_2_">
		<path style="fill-rule:evenodd;clip-rule:evenodd;fill:#CAAC6E;" d="M85.65-36l-0.3,0.2c0-0.267-0.033-0.55-0.1-0.85
			c-0.433-0.6-0.933-1.117-1.5-1.55c-1.867-1.4-4.867-2.1-9-2.1c-1.533,0-3.2,0.216-5,0.65c-2.033,0.467-3.883,1.15-5.55,2.05
			c-3,1.567-4.934,3.517-5.8,5.85c-0.367,0.967-0.55,2-0.55,3.1c0,3.167,2.117,5.816,6.35,7.95c1.667,0.833,3.483,1.483,5.45,1.95
			c1.833,0.433,3.45,0.65,4.85,0.65c2,0,3.45-0.033,4.35-0.1c1.233-0.5,2.35-1.15,3.35-1.95c3.133-2.4,4.7-5.684,4.7-9.85
			C86.9-32.433,86.483-34.433,85.65-36z M93.9-35.3c0.4,0.133,1.35,0.2,2.85,0.2c1.833,0,2.75-0.55,2.75-1.65
			c0-0.633-0.25-1.167-0.75-1.6c-0.567-0.5-1.317-0.75-2.25-0.75c-0.5,0.2-1,0.45-1.5,0.75c-1,0.6-1.5,1.184-1.5,1.75
			c0,0.434,0.05,0.817,0.15,1.15C93.717-35.383,93.8-35.333,93.9-35.3z M92.7-24.7c-0.633,0.333-0.95,0.733-0.95,1.2
			c0,0.4,0.317,0.917,0.95,1.55c0.033,0.034,0.066,0.067,0.1,0.1c0.6-0.133,0.983-0.233,1.15-0.3c1.033-0.434,1.55-1.217,1.55-2.35
			c0-0.233-0.033-0.383-0.1-0.45c-0.1-0.033-0.15-0.083-0.15-0.15h-1.5C93.383-25,93.033-24.867,92.7-24.7z M81.5-13.1
			c-0.167-0.167-0.25-0.417-0.25-0.75h-1.5c-0.167,0.167-0.917,0.5-2.25,1c0,0.167,0.033,0.367,0.1,0.6
			c0.467,0.267,0.767,0.4,0.9,0.4c0.067,0,0.15-0.017,0.25-0.05c0.033,0,0.083-0.017,0.15-0.05h0.05c0.3-0.066,0.7-0.2,1.2-0.4
			C80.917-12.683,81.367-12.933,81.5-13.1z M62.85-27.5c-0.067-0.4-0.1-0.817-0.1-1.25c0-2.8,1.25-4.833,3.75-6.1
			c1.633-0.833,3.55-1.25,5.75-1.25c1.367,0,3.3,0.167,5.8,0.5c0.167,0.033,0.35,0.05,0.55,0.05c0.267,0.033,0.566,0.066,0.9,0.1
			l-0.9-0.05c1.566,0.467,2.7,1.133,3.4,2c1,1.267,1.5,2.233,1.5,2.9c0,3.1-1.333,5.517-4,7.25c-2.3,1.5-5.133,2.25-8.5,2.25
			c-2.433,0-4.433-0.75-6-2.25C63.8-24.483,63.083-25.867,62.85-27.5z M84.25-47.85c-0.667,0.367-1,0.7-1,1
			c0,0.3,0.117,0.633,0.35,1c0.667,0.333,1.3,0.5,1.9,0.5c1.167,0,1.75-0.417,1.75-1.25c0-1.167-0.583-1.75-1.75-1.75
			C85.233-48.35,84.817-48.183,84.25-47.85z M109.05-48.95c0.034-0.2,0.05-0.417,0.05-0.65c0.233,0.267,0.433,0.617,0.6,1.05
			c0.133,0.133,0.283,0.25,0.45,0.35c0-0.367,0-0.733,0-1.1c0-1-0.517-2.05-1.55-3.15c-0.1-0.1-0.2-0.2-0.3-0.3l-0.15,0.25
			c-0.667-0.833-1.483-1.333-2.45-1.5c-0.094-0.031-0.186-0.048-0.275-0.05H105.4c-0.167,0.033-0.333,0.05-0.5,0.05
			c-1.967,0.133-3.733,0.833-5.3,2.1c-1.767,1.433-2.65,3.1-2.65,5c0,0.967,0.1,1.85,0.3,2.65c0.2,0.767,0.467,1.467,0.8,2.1
			c0.467,0.2,0.983,0.4,1.55,0.6c2.233,0.833,3.55,1.25,3.95,1.25c1.3,0,2.567-0.184,3.8-0.55c0.267-0.3,0.517-0.633,0.75-1
			c0.533-0.833,0.967-1.733,1.3-2.7c-0.4,0.667-1.033,1.233-1.9,1.7c-1.5,0.833-3.3,1.25-5.4,1.25c-0.667,0-1.45-0.25-2.35-0.75
			c-0.667-0.367-1.15-0.8-1.45-1.3c-0.2-0.333-0.3-0.7-0.3-1.1c0-3.733,2.417-5.6,7.25-5.6c0.833,0,2,0.417,3.5,1.25
			C108.85-49.033,108.95-48.983,109.05-48.95z M101.25-32.35c0,0.267,0.05,0.5,0.15,0.7c0.167,0.033,0.4,0.05,0.7,0.05
			c0.833,0,1.3-0.05,1.4-0.15c0.033-0.033,0.367-0.65,1-1.85c-0.667-0.333-1.25-0.5-1.75-0.5c-0.367,0-0.7,0.167-1,0.5
			C101.417-33.233,101.25-32.817,101.25-32.35z M118.4-47.8c0.367-0.067,0.717-0.2,1.05-0.4c0.6-0.333,1.033-0.883,1.3-1.65
			c-0.333-0.333-0.833-0.5-1.5-0.5c-1.167,0-1.75,0.45-1.75,1.35C117.5-48.633,117.8-48.233,118.4-47.8z M119.75-69.35
			c0.4,0,0.733-0.083,1-0.25v-1.25c-0.333-0.333-0.833-0.5-1.5-0.5c-1,0-1.567,0.333-1.7,1c0.167,0.167,0.383,0.333,0.65,0.5
			C118.733-69.517,119.25-69.35,119.75-69.35z M105.5-68.9c-0.3,0.533-0.467,1.05-0.5,1.55c0.167,0,0.5,0.083,1,0.25
			c0.067,0,0.15,0,0.25,0c0.6,0,1.017-0.183,1.25-0.55c0.167-0.267,0.417-0.833,0.75-1.7c-0.333-0.333-0.8-0.5-1.4-0.5
			C106.317-69.85,105.867-69.533,105.5-68.9z M119.4-53.65c0.2,0.267,0.434,0.483,0.7,0.65c0.3,0.3,0.633,0.55,1,0.75
			c0.167,0.1,0.65,0.3,1.45,0.6c0.067,0.033,0.133,0.05,0.2,0.05c0.167,0,0.333-0.017,0.5-0.05c0.533-0.067,1.117-0.3,1.75-0.7
			c0.833-0.566,1.25-1.15,1.25-1.75c0-0.9-0.333-1.483-1-1.75c-0.4-0.167-1.2-0.25-2.4-0.25c-0.667,0-1.367,0.25-2.1,0.75
			C120.05-54.883,119.6-54.317,119.4-53.65z M92.35-56.45c-0.733-0.6-1.283-1.066-1.65-1.4c-0.8-0.7-1.2-1.283-1.2-1.75
			c0-0.133,0.017-0.267,0.05-0.4c-0.333-0.2-0.617-0.383-0.85-0.55c-0.667,0.333-1.434,0.75-2.3,1.25
			c0.3,1.667,1.217,2.883,2.75,3.65c1.333-0.067,2.55-0.217,3.65-0.45h-0.05C92.617-56.2,92.483-56.317,92.35-56.45z M82.45-55.45
			c0.167-0.6,0.25-1.267,0.25-2c0-2.033-1.05-3.883-3.15-5.55c-2.233-1.767-4.883-2.65-7.95-2.65c-2.434,0-4.367,0.35-5.8,1.05
			c-0.4,0.2-0.75,0.417-1.05,0.65c-1.433,1.067-2.15,2.617-2.15,4.65c0,2.9,0.8,5,2.4,6.3c1.233,1,3.583,1.883,7.05,2.65
			c3.3-0.1,5.8-0.617,7.5-1.55c1.4-0.733,2.333-1.817,2.8-3.25l-0.25-0.1C82.2-55.317,82.317-55.383,82.45-55.45z M80.75-54.55
			c-0.633,0.533-1.367,1.017-2.2,1.45c-0.133,0.067-0.25,0.117-0.35,0.15c-1.667,0.733-3.45,1.1-5.35,1.1
			c-4.567,0-6.85-2.083-6.85-6.25c0-0.9,0.217-1.733,0.65-2.5c0.5-0.867,1.283-1.617,2.35-2.25c1.667-1,3.45-1.5,5.35-1.5
			c1.566,0,3.283,0.833,5.15,2.5c1.833,1.633,2.75,3.083,2.75,4.35c0,0.533-0.083,1-0.25,1.4v0.05c-0.2,0.333-0.433,0.65-0.7,0.95
			l0.05,0.25C81.15-54.75,80.95-54.65,80.75-54.55z M84.75-73.1c0.067,0,0.15,0.017,0.25,0.05h7.5c1.7-0.6,3.367-1.65,5-3.15
			c1.133-1.066,2.017-2.2,2.65-3.4c0.7-1.2,1.05-2.283,1.05-3.25c0-3.1-1.233-5.467-3.7-7.1c-0.9-0.6-1.9-1.083-3-1.45
			c-0.433-0.1-0.883-0.2-1.35-0.3c-1.167-0.267-2.45-0.4-3.85-0.4c-1.1,0-2.4,0.167-3.9,0.5c-1.733,0.4-3.333,0.95-4.8,1.65
			c-0.967,0.434-1.8,0.9-2.5,1.4c-0.233,0.167-0.45,0.333-0.65,0.5c-1.8,1.466-2.7,3.2-2.7,5.2c0,1.233,0.1,2.15,0.3,2.75
			c0.2,0.733,0.617,1.417,1.25,2.05C77.233-77.183,80.05-75.533,84.75-73.1z M95.3-85.5c0.967,1.233,1.45,2.483,1.45,3.75
			c0,0.9-0.2,1.8-0.6,2.7c-0.167,0.3-0.333,0.6-0.5,0.9c-0.733,1.2-1.65,1.933-2.75,2.2c-0.133,0.067-0.25,0.133-0.35,0.2
			c-0.6,0.267-1.2,0.4-1.8,0.4c-6.667,0-10.083-2.433-10.25-7.3c-0.067-0.067-0.117-0.133-0.15-0.2L80.5-83
			c0-1.633,0.833-3.083,2.5-4.35c1.533-1.167,3.117-1.75,4.75-1.75c2.7,0,4.95,0.917,6.75,2.75C94.767-86.083,95.033-85.8,95.3-85.5
			z M82.5-97.35c0,0.033,0.15,0.4,0.45,1.1c0.7,0.267,1.167,0.4,1.4,0.4c0.433,0,0.816-0.083,1.15-0.25c0.167-0.6,0.25-1.1,0.25-1.5
			c0-0.833-0.5-1.25-1.5-1.25c-0.367,0-0.7,0.083-1,0.25C82.75-98.333,82.5-97.917,82.5-97.35z M38.3-43.05c0,0.033,0,0.066,0,0.1
			L38.25-43c-0.667,1.033-1,2.383-1,4.05c0,0.633,0.45,1.45,1.35,2.45c0.433,0.5,0.9,0.983,1.4,1.45
			c0.333,0.033,0.683,0.066,1.05,0.1c0.4,0,0.8-0.017,1.2-0.05c2.167,0,4.2-0.533,6.1-1.6c1.767-0.967,2.783-2.1,3.05-3.4
			c0.067-0.267,0.1-0.533,0.1-0.8c0-1.633-0.7-2.867-2.1-3.7c-1.167-0.733-2.583-1.1-4.25-1.1c-2.3,0-4.05,0.367-5.25,1.1
			C39.233-44.133,38.7-43.65,38.3-43.05z M57.5-14.5c0,0.2,0.017,0.417,0.05,0.65c0.467,0.167,0.867,0.25,1.2,0.25
			c0.7,0,1.367-0.333,2-1c-0.833-0.833-1.55-1.25-2.15-1.25c-0.2,0-0.4,0.083-0.6,0.25C57.667-15.367,57.5-15,57.5-14.5z M48.4-24.4
			c0.467-0.033,1.083-0.1,1.85-0.2v-2.25h-2.5c-0.333,0.333-0.5,0.7-0.5,1.1s0.033,0.65,0.1,0.75C47.483-24.8,47.833-24.6,48.4-24.4
			z M40.25-40.35c-0.067-0.033-0.117-0.066-0.15-0.1l0.15-0.15c0-1.367,0.583-2.45,1.75-3.25c0.967-0.667,2.083-1,3.35-1
			c1.5,0,2.633,0.417,3.4,1.25c0.667,0.7,1,1.65,1,2.85c0,0.6-0.15,1.167-0.45,1.7c-0.333,0.566-0.867,1.083-1.6,1.55
			c-1.6,0.833-2.983,1.017-4.15,0.55c-0.8-0.066-1.4-0.2-1.8-0.4C40.817-37.85,40.317-38.85,40.25-40.35z M62.8-45.3
			c-0.733,0.333-1.167,0.566-1.3,0.7c0.033,0.033,0.067,0.05,0.1,0.05c0.566,0.333,1.283,0.65,2.15,0.95
			c0.833,0,1.417-0.167,1.75-0.5c-0.033-0.467-0.2-0.883-0.5-1.25c-0.267-0.333-0.567-0.5-0.9-0.5
			C63.967-45.85,63.533-45.667,62.8-45.3z M25.95-34.15c0.5-0.067,0.933-0.217,1.3-0.45c0.667-0.4,1-0.95,1-1.65
			c0-1.233-0.583-1.85-1.75-1.85c-0.533,0-1.2,0.167-2,0.5c-1,0.4-1.5,0.85-1.5,1.35c0,0.233,0.417,0.833,1.25,1.8
			c0.433,0.233,0.717,0.35,0.85,0.35C25.4-34.1,25.683-34.117,25.95-34.15z M38.95-48.6L39-48.65c0.5-0.367,0.75-0.983,0.75-1.85
			c0-0.3-0.25-0.667-0.75-1.1c-0.533-0.5-1.033-0.75-1.5-0.75c-0.5,0-1.083,0.25-1.75,0.75c-0.667,0.467-1,0.883-1,1.25
			c0,1.333,0.917,2,2.75,2C37.9-48.35,38.383-48.433,38.95-48.6z M49.8-50.55l-0.05-0.3c-0.667-0.4-1-0.95-1-1.65
			c0-0.333,0.083-0.667,0.25-1c0.133-0.367,0.383-0.733,0.75-1.1c0.667-0.667,1.367-1,2.1-1c0.7,0,1.583,0.25,2.65,0.75
			c0.2,0.1,0.383,0.184,0.55,0.25c-0.167-0.566-0.466-1.083-0.9-1.55c-0.633-0.7-1.333-1.05-2.1-1.05c-0.8,0-2.017,0.467-3.65,1.4
			l-0.05,0.05c-1.5,0.9-2.733,1.817-3.7,2.75c1,0.5,2.35,1.183,4.05,2.05C49.067-50.783,49.433-50.65,49.8-50.55z M56.75-69.1
			c0.5-0.133,0.75-0.55,0.75-1.25c0-0.267-0.083-0.517-0.25-0.75c-0.267-0.333-0.65-0.5-1.15-0.5c-0.367,0-0.733,0.083-1.1,0.25
			c-0.667,0.3-1,0.833-1,1.6c0,0.067,0.15,0.267,0.45,0.6c0.233,0.033,0.5,0.05,0.8,0.05H56.75z"/>
		<path style="fill-rule:evenodd;clip-rule:evenodd;fill:#F2CF8D;" d="M81.5-13.1c-0.133,0.167-0.583,0.417-1.35,0.75
			c-0.5,0.2-0.9,0.333-1.2,0.4H78.9c-0.066,0.034-0.117,0.05-0.15,0.05c-0.1,0.033-0.183,0.05-0.25,0.05
			c-0.133,0-0.433-0.133-0.9-0.4c-0.067-0.233-0.1-0.433-0.1-0.6c1.333-0.5,2.083-0.833,2.25-1h1.5
			C81.25-13.517,81.333-13.267,81.5-13.1z M92.7-24.7c0.333-0.167,0.683-0.3,1.05-0.4h1.5c0,0.067,0.05,0.117,0.15,0.15
			c0.067,0.067,0.1,0.217,0.1,0.45c0,1.133-0.517,1.917-1.55,2.35c-0.167,0.066-0.55,0.167-1.15,0.3
			c-0.033-0.033-0.066-0.066-0.1-0.1c-0.633-0.633-0.95-1.15-0.95-1.55C91.75-23.967,92.067-24.367,92.7-24.7z M93.9-35.3
			c-0.1-0.034-0.183-0.083-0.25-0.15c-0.1-0.333-0.15-0.716-0.15-1.15c0-0.566,0.5-1.15,1.5-1.75c0.5-0.3,1-0.55,1.5-0.75
			c0.933,0,1.683,0.25,2.25,0.75c0.5,0.434,0.75,0.967,0.75,1.6c0,1.1-0.917,1.65-2.75,1.65C95.25-35.1,94.3-35.167,93.9-35.3z
			 M85.65-36c0.833,1.567,1.25,3.567,1.25,6c0,4.167-1.566,7.45-4.7,9.85c-1,0.8-2.117,1.45-3.35,1.95c-0.9,0.067-2.35,0.1-4.35,0.1
			c-1.4,0-3.017-0.217-4.85-0.65c-1.967-0.467-3.783-1.117-5.45-1.95c-4.233-2.133-6.35-4.783-6.35-7.95c0-1.1,0.183-2.133,0.55-3.1
			c0.867-2.333,2.8-4.283,5.8-5.85c1.667-0.9,3.517-1.583,5.55-2.05c1.8-0.434,3.467-0.65,5-0.65c4.133,0,7.133,0.7,9,2.1
			c0.567,0.434,1.067,0.95,1.5,1.55C85.383-36.45,85.517-36.233,85.65-36z M84.25-47.85c0.567-0.333,0.983-0.5,1.25-0.5
			c1.167,0,1.75,0.583,1.75,1.75c0,0.833-0.583,1.25-1.75,1.25c-0.6,0-1.233-0.167-1.9-0.5c-0.233-0.367-0.35-0.7-0.35-1
			C83.25-47.15,83.583-47.483,84.25-47.85z M105.425-54.05c0.09,0,0.182,0,0.275,0c0.8,0,1.667,0.433,2.6,1.3
			c0.1,0.1,0.2,0.2,0.3,0.3c1.033,1.1,1.55,2.15,1.55,3.15c0,0.367,0,0.733,0,1.1c-0.066,0.434-0.117,0.85-0.15,1.25
			c-0.133,0.833-0.333,1.633-0.6,2.4c-0.333,0.966-0.767,1.867-1.3,2.7c-0.233,0.367-0.483,0.7-0.75,1
			c-1.233,0.367-2.5,0.55-3.8,0.55c-0.4,0-1.716-0.417-3.95-1.25c-0.567-0.2-1.083-0.4-1.55-0.6c-0.333-0.633-0.6-1.333-0.8-2.1
			c-0.2-0.8-0.3-1.683-0.3-2.65c0-1.9,0.883-3.567,2.65-5c1.566-1.267,3.333-1.967,5.3-2.1c0.167,0,0.333-0.017,0.5-0.05H105.425z
			 M101.25-32.35c0-0.467,0.167-0.883,0.5-1.25c0.3-0.333,0.633-0.5,1-0.5c0.5,0,1.083,0.167,1.75,0.5
			c-0.633,1.2-0.967,1.817-1,1.85c-0.1,0.1-0.567,0.15-1.4,0.15c-0.3,0-0.533-0.017-0.7-0.05
			C101.3-31.85,101.25-32.083,101.25-32.35z M118.4-47.8c-0.6-0.434-0.9-0.833-0.9-1.2c0-0.9,0.583-1.35,1.75-1.35
			c0.667,0,1.167,0.167,1.5,0.5c-0.267,0.767-0.7,1.317-1.3,1.65C119.117-48,118.767-47.867,118.4-47.8z M119.85-60.05
			c0.167-0.6,0.683-1.233,1.55-1.9c0.9-0.7,1.5-1.05,1.8-1.05c0.533,0,1.083,0.65,1.65,1.95c0.1,0.267,0.183,0.517,0.25,0.75
			c0.3,0.833,0.45,1.517,0.45,2.05c-0.1,0-0.433,0.083-1,0.25c-0.566,0.167-1.1,0.25-1.6,0.25c-0.434,0-0.817,0-1.15,0
			c-1.033-0.267-1.65-0.517-1.85-0.75c-0.133-0.1-0.2-0.467-0.2-1.1C119.75-59.733,119.783-59.883,119.85-60.05z M119.4-53.65
			c0.2-0.667,0.65-1.233,1.35-1.7c0.733-0.5,1.433-0.75,2.1-0.75c1.2,0,2,0.083,2.4,0.25c0.667,0.267,1,0.85,1,1.75
			c0,0.6-0.417,1.184-1.25,1.75c-0.633,0.4-1.217,0.633-1.75,0.7c-0.167,0.033-0.333,0.05-0.5,0.05c-0.067,0-0.133-0.017-0.2-0.05
			c-0.8-0.3-1.283-0.5-1.45-0.6c-0.367-0.2-0.7-0.45-1-0.75C119.833-53.167,119.6-53.383,119.4-53.65z M105.5-68.9
			c0.367-0.633,0.817-0.95,1.35-0.95c0.6,0,1.066,0.167,1.4,0.5c-0.333,0.867-0.583,1.434-0.75,1.7
			c-0.233,0.367-0.65,0.55-1.25,0.55c-0.1,0-0.183,0-0.25,0c-0.5-0.167-0.833-0.25-1-0.25C105.033-67.85,105.2-68.367,105.5-68.9z
			 M119.75-69.35c-0.5,0-1.017-0.167-1.55-0.5c-0.267-0.167-0.483-0.333-0.65-0.5c0.133-0.667,0.7-1,1.7-1
			c0.667,0,1.167,0.167,1.5,0.5v1.25C120.483-69.433,120.15-69.35,119.75-69.35z M88.7-60.55c0.566-0.267,1.05-0.467,1.45-0.6
			c0.167-0.067,0.333-0.117,0.5-0.15c0.434-0.1,1.75-0.15,3.95-0.15c0.9,0,1.583,0.034,2.05,0.1c0.067,0,0.133,0,0.2,0
			c0.7,0.1,1.267,0.25,1.7,0.45c0,0.267-0.017,0.517-0.05,0.75c-0.2,1-0.767,1.833-1.7,2.5c-0.433,0.333-0.933,0.617-1.5,0.85
			c-0.667,0.267-1.417,0.483-2.25,0.65c-0.033,0.033-0.066,0.05-0.1,0.05c-0.067,0-0.117,0-0.15,0c-1.1,0.233-2.316,0.383-3.65,0.45
			c-1.533-0.767-2.45-1.983-2.75-3.65C87.267-59.8,88.033-60.217,88.7-60.55z M82.35-55.15c-0.467,1.433-1.4,2.517-2.8,3.25
			c-1.7,0.933-4.2,1.45-7.5,1.55C68.583-51.117,66.233-52,65-53c-1.6-1.3-2.4-3.4-2.4-6.3c0-2.034,0.717-3.583,2.15-4.65
			c0.3-0.233,0.65-0.45,1.05-0.65c1.434-0.7,3.367-1.05,5.8-1.05c3.066,0,5.717,0.883,7.95,2.65c2.1,1.667,3.15,3.517,3.15,5.55
			c0,0.733-0.083,1.4-0.25,2C82.417-55.35,82.383-55.25,82.35-55.15z M84.75-73.1c-4.7-2.433-7.517-4.083-8.45-4.95
			c-0.633-0.633-1.05-1.317-1.25-2.05c-0.2-0.6-0.3-1.517-0.3-2.75c0-2,0.9-3.733,2.7-5.2c0.2-0.167,0.417-0.333,0.65-0.5
			c0.7-0.5,1.533-0.967,2.5-1.4c1.467-0.7,3.066-1.25,4.8-1.65c1.5-0.333,2.8-0.5,3.9-0.5c1.4,0,2.684,0.133,3.85,0.4
			c0.467,0.1,0.917,0.2,1.35,0.3c1.1,0.367,2.1,0.85,3,1.45c2.467,1.633,3.7,4,3.7,7.1c0,0.967-0.35,2.05-1.05,3.25
			c-0.633,1.2-1.517,2.333-2.65,3.4c-1.633,1.5-3.3,2.55-5,3.15H85C84.9-73.083,84.817-73.1,84.75-73.1z M82.5-97.35
			c0-0.566,0.25-0.983,0.75-1.25c0.3-0.167,0.633-0.25,1-0.25c1,0,1.5,0.417,1.5,1.25c0,0.4-0.083,0.9-0.25,1.5
			c-0.333,0.167-0.717,0.25-1.15,0.25c-0.233,0-0.7-0.133-1.4-0.4C82.65-96.95,82.5-97.317,82.5-97.35z M45-13.05
			c-4.567-2.8-7.067-4.317-7.5-4.55c-0.2-0.1-0.4-0.2-0.6-0.3c0.434,0.3,0.9,0.6,1.4,0.9C40.533-15.6,42.767-14.283,45-13.05z
			 M138.4-63.9c-7.3-4.867-16.066-11.383-26.3-19.55c-12.434-9.867-21.184-16.617-26.25-20.25c-4,2.667-8.733,6.7-14.2,12.1
			c-6.733,6.633-14.767,13.184-24.1,19.65c-9.333,6.5-17.1,13.217-23.3,20.15C18.083-44.833,15-40.417,15-38.55
			c0.033,1.9,2.367,5.017,7,9.35c0.867,0.8,1.783,1.6,2.75,2.4c0.833,0.533,1.717,1.033,2.65,1.5c3.667,1.867,8.95,4.35,15.85,7.45
			c2.433,1.333,5.117,3.083,8.05,5.25c1.633,1.167,3.967,2.867,7,5.1c1.4,0.967,2.8,1.817,4.2,2.55c4.067,1.467,7.367,2.2,9.9,2.2
			c6.6,0,18.033-8.317,34.3-24.95c6-6.133,12.283-13.017,18.85-20.65C129.75-53.283,134.033-58.467,138.4-63.9z M48.4-24.4
			c-0.566-0.2-0.917-0.4-1.05-0.6c-0.067-0.1-0.1-0.35-0.1-0.75s0.167-0.767,0.5-1.1h2.5v2.25C49.483-24.5,48.867-24.433,48.4-24.4z
			 M57.5-14.5c0-0.5,0.167-0.867,0.5-1.1c0.2-0.167,0.4-0.25,0.6-0.25c0.6,0,1.316,0.417,2.15,1.25c-0.633,0.667-1.3,1-2,1
			c-0.333,0-0.733-0.083-1.2-0.25C57.517-14.083,57.5-14.3,57.5-14.5z M38.3-43.05c0.4-0.6,0.934-1.083,1.6-1.45
			c1.2-0.733,2.95-1.1,5.25-1.1c1.667,0,3.083,0.367,4.25,1.1c1.4,0.833,2.1,2.067,2.1,3.7c0,0.267-0.033,0.533-0.1,0.8
			c-0.267,1.3-1.283,2.433-3.05,3.4c-1.9,1.067-3.934,1.6-6.1,1.6c-0.4,0.033-0.8,0.05-1.2,0.05c-0.367-0.033-0.716-0.066-1.05-0.1
			c-0.5-0.467-0.967-0.95-1.4-1.45c-0.9-1-1.35-1.817-1.35-2.45c0-1.667,0.333-3.017,1-4.05L38.3-43.05z M62.8-45.3
			c0.733-0.367,1.167-0.55,1.3-0.55c0.333,0,0.633,0.167,0.9,0.5c0.3,0.367,0.467,0.783,0.5,1.25c-0.333,0.333-0.917,0.5-1.75,0.5
			c-0.867-0.3-1.583-0.617-2.15-0.95c-0.033,0-0.067-0.017-0.1-0.05C61.633-44.733,62.067-44.967,62.8-45.3z M25.95-34.15
			c-0.267,0.033-0.55,0.05-0.85,0.05c-0.133,0-0.417-0.117-0.85-0.35c-0.833-0.966-1.25-1.566-1.25-1.8c0-0.5,0.5-0.95,1.5-1.35
			c0.8-0.333,1.467-0.5,2-0.5c1.167,0,1.75,0.617,1.75,1.85c0,0.7-0.333,1.25-1,1.65C26.883-34.367,26.45-34.217,25.95-34.15z
			 M38.95-48.6c-0.567,0.167-1.05,0.25-1.45,0.25c-1.833,0-2.75-0.667-2.75-2c0-0.367,0.333-0.783,1-1.25
			c0.667-0.5,1.25-0.75,1.75-0.75c0.467,0,0.967,0.25,1.5,0.75c0.5,0.434,0.75,0.8,0.75,1.1c0,0.867-0.25,1.483-0.75,1.85
			L38.95-48.6z M49.8-50.55c-0.367-0.1-0.733-0.233-1.1-0.4C47-51.817,45.65-52.5,44.65-53c0.967-0.933,2.2-1.85,3.7-2.75l0.05-0.05
			c1.633-0.934,2.85-1.4,3.65-1.4c0.767,0,1.467,0.35,2.1,1.05c0.434,0.467,0.733,0.983,0.9,1.55c0.1,0.367,0.15,0.733,0.15,1.1
			s-0.034,0.717-0.1,1.05c-0.033,0.133-0.067,0.25-0.1,0.35c-0.2,0.467-0.483,0.883-0.85,1.25c-0.2,0.2-0.417,0.35-0.65,0.45
			c-0.433,0.233-0.933,0.4-1.5,0.5C51.333-50.033,50.6-50.25,49.8-50.55z M56.75-69.1h-1.5c-0.3,0-0.567-0.017-0.8-0.05
			c-0.3-0.333-0.45-0.533-0.45-0.6c0-0.767,0.333-1.3,1-1.6c0.367-0.167,0.733-0.25,1.1-0.25c0.5,0,0.883,0.167,1.15,0.5
			c0.167,0.233,0.25,0.483,0.25,0.75C57.5-69.65,57.25-69.233,56.75-69.1z"/>
		<path style="fill-rule:evenodd;clip-rule:evenodd;fill:#B69532;" d="M78.6-35.5v-0.05c-0.2,0-0.383-0.017-0.55-0.05
			c-2.5-0.333-4.433-0.5-5.8-0.5c-2.2,0-4.117,0.417-5.75,1.25c-2.5,1.267-3.75,3.3-3.75,6.1c0,0.433,0.033,0.85,0.1,1.25
			c0.267,0.133,0.55,0.267,0.85,0.4c2.633,1.067,5.883,1.6,9.75,1.6c3,0,5.733-1.05,8.2-3.15c0.733-0.633,1.35-1.283,1.85-1.95
			c0-0.667-0.5-1.633-1.5-2.9C81.3-34.367,80.167-35.033,78.6-35.5z M109.05-48.95c-0.1-0.033-0.2-0.083-0.3-0.15
			c-1.5-0.833-2.667-1.25-3.5-1.25c-4.833,0-7.25,1.867-7.25,5.6c0,0.4,0.1,0.767,0.3,1.1c0.4,0.133,0.85,0.217,1.35,0.25
			c0.4,0,1-0.017,1.8-0.05c2.167,0,4.017-0.7,5.55-2.1C108.133-46.617,108.817-47.75,109.05-48.95z M119.85-60.05
			c0.467,0.133,1.05,0.2,1.75,0.2c0.2,0,0.767,0.033,1.7,0.1c0.567,0.033,0.967,0.017,1.2-0.05c0.267-0.1,0.467-0.267,0.6-0.5
			c-0.067-0.233-0.15-0.483-0.25-0.75c-0.567-1.3-1.117-1.95-1.65-1.95c-0.3,0-0.9,0.35-1.8,1.05
			C120.533-61.283,120.017-60.65,119.85-60.05z M89.55-60c0.967,0.533,2.383,1.117,4.25,1.75c0.8,0,1.95-0.4,3.45-1.2v-0.05
			c0-0.667-0.133-1.283-0.4-1.85c-0.067,0-0.133,0-0.2,0c-0.467-0.066-1.15-0.1-2.05-0.1c-2.2,0-3.517,0.05-3.95,0.15
			c-0.167,0.033-0.333,0.083-0.5,0.15C89.817-60.783,89.617-60.4,89.55-60z M81.3-55.1c0.267-0.3,0.5-0.617,0.7-0.95v-0.05
			c0.167-0.4,0.25-0.867,0.25-1.4c0-1.267-0.917-2.717-2.75-4.35c-1.867-1.667-3.583-2.5-5.15-2.5c-1.9,0-3.684,0.5-5.35,1.5
			c-1.067,0.633-1.85,1.383-2.35,2.25c0.934,0.833,2.233,1.783,3.9,2.85c1.633,1.067,3.184,1.933,4.65,2.6
			c1.6,0.733,2.7,1.417,3.3,2.05c0.6-0.533,1.233-0.967,1.9-1.3C80.733-54.667,81.033-54.9,81.3-55.1z M95.3-85.5
			c-0.267-0.3-0.533-0.583-0.8-0.85c-1.8-1.833-4.05-2.75-6.75-2.75c-1.633,0-3.217,0.583-4.75,1.75
			c-1.667,1.267-2.5,2.717-2.5,4.35c0,0.133,0,0.25,0,0.35c1.567,1.467,3.183,2.2,4.85,2.2c0.4,0,1.15-0.2,2.25-0.6
			c1.233-0.434,2.417-0.95,3.55-1.55C93.15-83.6,94.533-84.567,95.3-85.5z M40.25-40.6c0,0.1,0,0.184,0,0.25
			c0.367,0.2,0.783,0.4,1.25,0.6c1.7,0.7,3.267,1.05,4.7,1.05c1.167,0,2.2-0.117,3.1-0.35c0.3-0.534,0.45-1.1,0.45-1.7
			c0-1.2-0.333-2.15-1-2.85c-0.767-0.833-1.9-1.25-3.4-1.25c-1.267,0-2.383,0.333-3.35,1C40.833-43.05,40.25-41.967,40.25-40.6z
			 M55.05-54.6c-0.167-0.066-0.35-0.15-0.55-0.25c-1.067-0.5-1.95-0.75-2.65-0.75c-0.733,0-1.434,0.333-2.1,1
			c-0.367,0.367-0.617,0.733-0.75,1.1c0.1,0.2,0.233,0.383,0.4,0.55c0.733,0.7,1.967,1.05,3.7,1.05c0.7,0,1.35-0.167,1.95-0.5
			C55.017-52.3,55-52.2,55-52.1c0.033-0.1,0.067-0.217,0.1-0.35c0.066-0.333,0.1-0.683,0.1-1.05S55.15-54.233,55.05-54.6z"/>
		<path style="fill-rule:evenodd;clip-rule:evenodd;fill:#CFAE63;" d="M62.85-27.5c0.233,1.633,0.95,3.017,2.15,4.15
			c1.567,1.5,3.567,2.25,6,2.25c3.367,0,6.2-0.75,8.5-2.25c2.667-1.733,4-4.15,4-7.25c-0.5,0.667-1.117,1.317-1.85,1.95
			c-2.467,2.1-5.2,3.15-8.2,3.15c-3.867,0-7.117-0.533-9.75-1.6C63.4-27.233,63.117-27.367,62.85-27.5z M98.3-43.65
			c0.3,0.5,0.784,0.933,1.45,1.3c0.9,0.5,1.683,0.75,2.35,0.75c2.1,0,3.9-0.417,5.4-1.25c0.867-0.467,1.5-1.033,1.9-1.7
			c0.267-0.767,0.467-1.567,0.6-2.4c-0.033-0.3-0.1-0.667-0.2-1.1c-0.033-0.167-0.066-0.333-0.1-0.5
			c-0.2-0.133-0.417-0.267-0.65-0.4c-0.233,1.2-0.917,2.333-2.05,3.4c-1.533,1.4-3.383,2.1-5.55,2.1c-0.8,0.034-1.4,0.05-1.8,0.05
			C99.15-43.433,98.7-43.517,98.3-43.65z M125.1-60.3c-0.133,0.233-0.333,0.4-0.6,0.5c-0.233,0.066-0.633,0.083-1.2,0.05
			c-0.933-0.067-1.5-0.1-1.7-0.1c-0.7,0-1.283-0.066-1.75-0.2c-0.067,0.167-0.1,0.316-0.1,0.45c0,0.633,0.067,1,0.2,1.1
			c0.2,0.233,0.816,0.483,1.85,0.75c0.333,0,0.717,0,1.15,0c0.5,0,1.033-0.083,1.6-0.25c0.567-0.167,0.9-0.25,1-0.25
			C125.55-58.783,125.4-59.467,125.1-60.3z M89.55-60c-0.033,0.133-0.05,0.267-0.05,0.4c0,0.467,0.4,1.05,1.2,1.75
			c0.367,0.333,0.917,0.8,1.65,1.4c0.3,0.1,0.533,0.2,0.7,0.3c0.833-0.167,1.583-0.383,2.25-0.65c0.567-0.233,1.067-0.517,1.5-0.85
			c0.3-0.533,0.45-1.133,0.45-1.8c-1.5,0.8-2.65,1.2-3.45,1.2C91.933-58.883,90.517-59.467,89.55-60z M78.55-53.1H78.5
			c-0.6-0.633-1.7-1.316-3.3-2.05c-1.467-0.667-3.017-1.533-4.65-2.6c-1.667-1.067-2.966-2.017-3.9-2.85
			C66.217-59.833,66-59,66-58.1c0,4.167,2.283,6.25,6.85,6.25c1.9,0,3.683-0.367,5.35-1.1C78.3-52.983,78.417-53.033,78.55-53.1z
			 M96.15-79.05c0.4-0.9,0.6-1.8,0.6-2.7c0-1.267-0.483-2.517-1.45-3.75c-0.767,0.933-2.15,1.9-4.15,2.9
			c-1.133,0.6-2.316,1.117-3.55,1.55c-1.1,0.4-1.85,0.6-2.25,0.6c-1.667,0-3.283-0.733-4.85-2.2c0.167,4.867,3.583,7.3,10.25,7.3
			c0.6,0,1.2-0.133,1.8-0.4c0.1-0.067,0.217-0.133,0.35-0.2C93.967-76.55,95.05-77.583,96.15-79.05z M40.25-40.35
			c0.067,1.5,0.567,2.5,1.5,3c0.4,0.2,1,0.333,1.8,0.4c0.434,0.067,0.95,0.1,1.55,0.1c0.233,0,0.65-0.05,1.25-0.15
			c0.267-0.033,0.717-0.2,1.35-0.5c0.733-0.467,1.267-0.983,1.6-1.55c-0.9,0.233-1.933,0.35-3.1,0.35c-1.434,0-3-0.35-4.7-1.05
			C41.033-39.95,40.617-40.15,40.25-40.35z M53.5-50.4c0.233-0.1,0.45-0.25,0.65-0.45c0.367-0.367,0.65-0.783,0.85-1.25
			c0-0.1,0.017-0.2,0.05-0.3c-0.6,0.333-1.25,0.5-1.95,0.5c-1.733,0-2.967-0.35-3.7-1.05c-0.167-0.167-0.3-0.35-0.4-0.55
			c-0.167,0.333-0.25,0.667-0.25,1c0,0.7,0.333,1.25,1,1.65c0.6,0.333,1.383,0.5,2.35,0.5C52.667-50.35,53.133-50.367,53.5-50.4z"/>
		<path style="fill-rule:evenodd;clip-rule:evenodd;fill:#DDAF64;" d="M85.65-36c-0.133-0.233-0.267-0.45-0.4-0.65
			c0.067,0.3,0.1,0.583,0.1,0.85L85.65-36z M109.7-48.55c-0.167-0.434-0.367-0.784-0.6-1.05c0,0.233-0.017,0.45-0.05,0.65
			C109.283-48.817,109.5-48.683,109.7-48.55c0.033,0.167,0.066,0.333,0.1,0.5c0.1,0.433,0.167,0.8,0.2,1.1
			c0.033-0.4,0.083-0.816,0.15-1.25C109.983-48.3,109.833-48.417,109.7-48.55z M108.3-52.75c-0.933-0.867-1.8-1.3-2.6-1.3
			c-0.094,0-0.186,0-0.275,0c0.09,0.002,0.182,0.019,0.275,0.05c0.966,0.167,1.783,0.667,2.45,1.5L108.3-52.75z M92.8-56.1
			c0.034,0,0.083,0,0.15,0c0.033,0,0.066-0.017,0.1-0.05c-0.167-0.1-0.4-0.2-0.7-0.3c0.133,0.133,0.267,0.25,0.4,0.35H92.8z
			 M97.25-59.45c0,0.667-0.15,1.267-0.45,1.8c0.934-0.667,1.5-1.5,1.7-2.5C98.067-59.883,97.65-59.65,97.25-59.45z M82.35-55.15
			c0.033-0.1,0.066-0.2,0.1-0.3c-0.133,0.067-0.25,0.133-0.35,0.2L82.35-55.15z M78.55-53.1c0.833-0.433,1.567-0.917,2.2-1.45
			c-0.133,0.033-0.25,0.083-0.35,0.15c-0.667,0.333-1.3,0.767-1.9,1.3H78.55z M96.15-79.05c-1.1,1.466-2.183,2.5-3.25,3.1
			c1.1-0.267,2.017-1,2.75-2.2C95.817-78.45,95.983-78.75,96.15-79.05z M38.25-43l0.05,0.05c0-0.033,0-0.066,0-0.1L38.25-43z
			 M43.55-36.95c1.167,0.467,2.55,0.284,4.15-0.55c-0.633,0.3-1.083,0.467-1.35,0.5c-0.6,0.1-1.017,0.15-1.25,0.15
			C44.5-36.85,43.983-36.883,43.55-36.95z M49.75-50.85l0.05,0.3c0.8,0.3,1.534,0.517,2.2,0.65c0.567-0.1,1.067-0.267,1.5-0.5
			c-0.367,0.033-0.833,0.05-1.4,0.05C51.133-50.35,50.35-50.517,49.75-50.85z"/>
		<path style="fill-rule:evenodd;clip-rule:evenodd;fill:#BD8437;" d="M96.85-61.35c0.267,0.567,0.4,1.184,0.4,1.85v0.05
			c0.4-0.2,0.817-0.433,1.25-0.7c0.033-0.233,0.05-0.483,0.05-0.75C98.117-61.1,97.55-61.25,96.85-61.35z M90.15-61.15
			c-0.4,0.133-0.883,0.333-1.45,0.6c0.233,0.167,0.517,0.35,0.85,0.55C89.617-60.4,89.817-60.783,90.15-61.15z M80.4-54.4
			c0.1-0.067,0.217-0.117,0.35-0.15c0.2-0.1,0.4-0.2,0.6-0.3L81.3-55.1C81.033-54.9,80.733-54.667,80.4-54.4z M80.5-83l-0.15,0.15
			c0.033,0.067,0.083,0.133,0.15,0.2C80.5-82.75,80.5-82.867,80.5-83z M78.6-35.55v0.05l0.9,0.05
			C79.167-35.483,78.867-35.517,78.6-35.55z M40.25-40.35c0-0.066,0-0.15,0-0.25l-0.15,0.15
			C40.133-40.417,40.183-40.383,40.25-40.35z"/>
		<path style="fill-rule:evenodd;clip-rule:evenodd;fill:#F5E1A3;" d="M85.85-103.7c5.066,3.633,13.816,10.383,26.25,20.25
			c10.233,8.167,19,14.684,26.3,19.55c0.133-0.2,0.283-0.4,0.45-0.6c0.133-0.2,0.283-0.4,0.45-0.6v-0.05
			c-0.033-0.033-0.066-0.067-0.1-0.1c-0.233-0.133-0.617-0.25-1.15-0.35h-0.55c-1.333-1.133-2.9-2.566-4.7-4.3
			c-3.966-3.733-7.25-7.083-9.85-10.05c-0.733-0.8-2.534-2.167-5.4-4.1c-3.833-2.5-6.833-4.467-9-5.9
			c-6.466-4.267-12.966-9.2-19.5-14.8c-0.2-0.167-0.383-0.333-0.55-0.5c-0.3,0.167-0.617,0.333-0.95,0.5
			C86.983-104.417,86.417-104.067,85.85-103.7z"/>
		<path style="fill-rule:evenodd;clip-rule:evenodd;fill:#ECD091;" d="M87.55-106c0,0.433,0,0.85,0,1.25
			c0.333-0.167,0.65-0.333,0.95-0.5c0.167,0.167,0.35,0.333,0.55,0.5c6.534,5.6,13.034,10.533,19.5,14.8
			c2.167,1.434,5.167,3.4,9,5.9c2.867,1.933,4.667,3.3,5.4,4.1c2.6,2.967,5.883,6.317,9.85,10.05c1.8,1.733,3.367,3.167,4.7,4.3
			h0.55c0.534,0.1,0.917,0.217,1.15,0.35c0.033,0.033,0.066,0.067,0.1,0.1v0.05c0.167-0.033,0.35-0.05,0.55-0.05
			c0.3,0,0.583,0.083,0.85,0.25c-0.133-0.967-0.333-2.033-0.6-3.2c-0.267-1-0.467-1.783-0.6-2.35
			c-2.833-2.433-6.383-5.65-10.65-9.65c-6.833-6.4-11.3-10.533-13.4-12.4c-10.4-9.267-19.767-16.017-28.1-20.25
			c-0.067,1.333-0.033,3.117,0.1,5.35C87.483-106.9,87.517-106.433,87.55-106z"/>
		<path style="fill-rule:evenodd;clip-rule:evenodd;fill:#DDBF79;" d="M87.55-104.75c0-0.4,0-0.817,0-1.25
			c-0.667,0.033-1.683,0.433-3.05,1.2c-2.767,1.566-6.95,4.617-12.55,9.15c-10.767,8.733-23.534,19.7-38.3,32.9
			c-13.5,12.067-20.867,19.567-22.1,22.5c-0.133,0.3-0.2,0.55-0.2,0.75c0,0.333,0.066,0.7,0.2,1.1c0.034,0.2,0.1,0.4,0.2,0.6
			c0.033,1.867,0.967,3.833,2.8,5.9c1.934,2.167,4.85,4.467,8.75,6.9c1.267,0.8,3.167,1.85,5.7,3.15
			c2.133,1.133,4.767,2.45,7.9,3.95c0.2,0.1,0.4,0.2,0.6,0.3c0.433,0.233,2.933,1.75,7.5,4.55c2.433,1.5,5.467,3.383,9.1,5.65
			C60.8-3.233,67.317-0.767,73.65,0c8.367-2.933,20.65-12.967,36.85-30.1c4.867-5.167,11.467-12.517,19.8-22.05
			c4.9-5.567,8.15-9.117,9.75-10.65c0.133-0.133,0.25-0.25,0.35-0.35c0.133-0.333,0.267-0.65,0.4-0.95
			c-0.033-0.267-0.066-0.533-0.1-0.8c-0.267-0.167-0.55-0.25-0.85-0.25c-0.2,0-0.383,0.017-0.55,0.05c-0.167,0.2-0.316,0.4-0.45,0.6
			c-0.167,0.2-0.317,0.4-0.45,0.6c-4.367,5.433-8.65,10.617-12.85,15.55c-6.566,7.633-12.85,14.517-18.85,20.65
			C90.433-11.067,79-2.75,72.4-2.75c-2.533,0-5.833-0.733-9.9-2.2c-1.4-0.733-2.8-1.583-4.2-2.55c-3.033-2.233-5.367-3.933-7-5.1
			c-2.933-2.167-5.617-3.917-8.05-5.25c-6.9-3.1-12.183-5.583-15.85-7.45c-0.933-0.467-1.816-0.967-2.65-1.5
			c-0.967-0.8-1.883-1.6-2.75-2.4c-4.633-4.333-6.967-7.45-7-9.35c0-1.867,3.083-6.284,9.25-13.25
			c6.2-6.934,13.967-13.65,23.3-20.15c9.333-6.466,17.367-13.017,24.1-19.65c5.467-5.4,10.2-9.433,14.2-12.1
			C86.417-104.067,86.983-104.417,87.55-104.75z"/>
		<path style="fill-rule:evenodd;clip-rule:evenodd;fill:#E49C30;" d="M87.55-106c-0.033-0.433-0.066-0.9-0.1-1.4
			c-0.133-2.233-0.167-4.017-0.1-5.35c-0.367-0.2-0.733-0.4-1.1-0.6C71.85-108.25,57.933-102.8,44.5-97
			C23.767-88.067,10.883-81.033,5.85-75.9c-1.367,1.066-2.45,2.316-3.25,3.75C0.867-69.083,0-64.317,0-57.85
			C0-53.083,2.033-47.6,6.1-41.4c3.033,4.633,5.85,7.8,8.45,9.5c-1.833-2.067-2.767-4.033-2.8-5.9c-0.1-0.2-0.167-0.4-0.2-0.6
			c-0.133-0.4-0.2-0.767-0.2-1.1c0-0.2,0.066-0.45,0.2-0.75c1.233-2.933,8.6-10.433,22.1-22.5c14.767-13.2,27.533-24.167,38.3-32.9
			c5.6-4.533,9.783-7.583,12.55-9.15C85.867-105.567,86.883-105.967,87.55-106z"/>
	</g>
</symbol>
<symbol  id="wsize_x5F_cheese2" viewBox="0 -34.004 42.238 34.004">
	<g id="Layer_1_3_">
		
			<use xlink:href="#cheeseWS2"  width="140.8" height="113.35" y="-113.35" transform="matrix(0.3 0 0 0.3 0 -4.882813e-004)" style="overflow:visible;"/>
	</g>
</symbol>
<use xlink:href="#wsize_x5F_cheese2"  width="42.238" height="34.004" y="-34.004" transform="matrix(1.0922 0 0 -1.0933 0 0)" style="overflow:visible;"/>
</svg>
