<?xml version="1.0" encoding="iso-8859-1"?>
<!-- Generator: Adobe Illustrator 15.1.0, SVG Export Plug-In . SVG Version: 6.00 Build 0)  -->
<!DOCTYPE svg PUBLIC "-//W3C//DTD SVG 1.1//EN" "http://www.w3.org/Graphics/SVG/1.1/DTD/svg11.dtd">
<svg version="1.1" id="flash0.ai" xmlns="http://www.w3.org/2000/svg" xmlns:xlink="http://www.w3.org/1999/xlink" x="0px" y="0px"
	 width="51.65px" height="17.6px" viewBox="0 0 51.65 17.6" style="enable-background:new 0 0 51.65 17.6;" xml:space="preserve">
<linearGradient id="SVGID_1_" gradientUnits="userSpaceOnUse" x1="6.5142" y1="7.2217" x2="41.6146" y2="7.2217" gradientTransform="matrix(1 -0.005 0.005 1 3.339346e-004 -2.228124e-004)">
	<stop  offset="0" style="stop-color:#A1530B"/>
	<stop  offset="0.9882" style="stop-color:#5E350E"/>
</linearGradient>
<path style="fill-rule:evenodd;clip-rule:evenodd;fill:url(#SVGID_1_);" d="M25.4,13.85c-6.567,0.233-12.05-0.233-16.45-1.399
	c-2.2-0.566-3.733-1.167-4.6-1.8c1.8-0.567,3.783-1.534,5.95-2.9c1.8-1.167,4.117-2.567,6.95-4.2c3.067-1.8,4.933-2.833,5.6-3.1
	c0.767-0.3,1.667-0.133,2.7,0.5c0.7,0.433,2.3,1.45,4.8,3.05c2.301,1.333,5.7,3.033,10.2,5.1c1.233,0.567,2.2,1.084,2.9,1.551
	c-0.867,0.466-2.283,0.949-4.25,1.449C35.3,13.1,30.7,13.684,25.4,13.85z"/>
<path style="fill-rule:evenodd;clip-rule:evenodd;fill:#592E04;" d="M39.6,9.45c1,0.633,1.067,1.066,0.2,1.3
	c-0.967,0.267-1.533,0.15-1.7-0.35c-0.166-0.434-0.066-0.767,0.301-1C38.767,9.167,39.167,9.184,39.6,9.45z"/>
<path style="fill-rule:evenodd;clip-rule:evenodd;fill:#592E04;" d="M34.25,6.9c0.866,0.6,0.85,1-0.05,1.2
	c-0.967,0.233-1.483,0.117-1.55-0.35c-0.067-0.4,0.083-0.717,0.449-0.95C33.467,6.567,33.85,6.6,34.25,6.9z"/>
<path style="fill-rule:evenodd;clip-rule:evenodd;fill:#592E04;" d="M36.7,9.2c0.633,0.6,0.483,1.017-0.45,1.25
	s-1.434,0.05-1.5-0.55C34.717,9.333,34.934,8.967,35.4,8.8C35.866,8.633,36.3,8.767,36.7,9.2z"/>
<path style="fill-rule:evenodd;clip-rule:evenodd;fill:#592E04;" d="M32.65,9.2c0.533,0.6,0.5,1.033-0.101,1.3
	c-0.666,0.233-1.116,0.167-1.35-0.2c-0.233-0.3-0.134-0.649,0.3-1.05C31.967,8.85,32.35,8.833,32.65,9.2z"/>
<path style="fill-rule:evenodd;clip-rule:evenodd;fill:#592E04;" d="M29.75,4.5C30.483,4.667,30.9,5,31,5.5
	c0.134,0.467-0.05,0.7-0.55,0.7c-0.467,0-0.8-0.3-1-0.9C29.217,4.7,29.316,4.433,29.75,4.5z"/>
<path style="fill-rule:evenodd;clip-rule:evenodd;fill:#592E04;" d="M27.1,3.1c0.7,0.233,1,0.617,0.9,1.15
	C27.934,4.817,27.717,5,27.35,4.8c-0.233-0.167-0.383-0.517-0.449-1.05C26.833,3.25,26.9,3.033,27.1,3.1z"/>
<path style="fill-rule:evenodd;clip-rule:evenodd;fill:#592E04;" d="M29.6,6.8c0.801,0.7,0.884,1.233,0.25,1.6
	c-0.666,0.4-1.116,0.333-1.35-0.2c-0.2-0.467-0.134-0.867,0.2-1.2C29,6.633,29.3,6.567,29.6,6.8z"/>
<path style="fill-rule:evenodd;clip-rule:evenodd;fill:#592E04;" d="M30.95,11.4c0.7,0.399,0.8,0.783,0.3,1.149
	c-0.533,0.334-0.983,0.3-1.35-0.1c-0.301-0.4-0.301-0.717,0-0.95C30.2,11.233,30.55,11.2,30.95,11.4z"/>
<path style="fill-rule:evenodd;clip-rule:evenodd;fill:#592E04;" d="M34.35,11.4c0.7,0.1,0.817,0.316,0.351,0.649
	c-0.5,0.3-0.867,0.4-1.101,0.3c-0.199-0.133-0.233-0.333-0.1-0.6C33.634,11.45,33.917,11.333,34.35,11.4z"/>
<linearGradient id="SVGID_2_" gradientUnits="userSpaceOnUse" x1="2.8501" y1="11.1348" x2="6.1501" y2="11.1348">
	<stop  offset="0" style="stop-color:#A15A18"/>
	<stop  offset="0.9882" style="stop-color:#5E350E"/>
</linearGradient>
<path style="fill-rule:evenodd;clip-rule:evenodd;fill:url(#SVGID_2_);" d="M5.6,10.75c0.2,0.4,0.383,0.733,0.55,1
	c0,0.134-0.267,0.217-0.8,0.25c-0.7,0.066-1.333-0.017-1.9-0.25C2.817,11.517,2.667,11.2,3,10.8c0.3-0.399,0.783-0.583,1.45-0.55
	C5.083,10.283,5.467,10.45,5.6,10.75z"/>
<linearGradient id="SVGID_3_" gradientUnits="userSpaceOnUse" x1="0.1001" y1="12.002" x2="2.8001" y2="12.002">
	<stop  offset="0" style="stop-color:#A15A18"/>
	<stop  offset="0.9882" style="stop-color:#5E350E"/>
</linearGradient>
<path style="fill-rule:evenodd;clip-rule:evenodd;fill:url(#SVGID_3_);" d="M2.65,11.65c0.434,0.333,0.133,0.633-0.9,0.899
	c-1.067,0.267-1.617,0.2-1.65-0.2C0.033,11.95,0.3,11.634,0.9,11.4C1.533,11.2,2.117,11.283,2.65,11.65z"/>
<linearGradient id="SVGID_4_" gradientUnits="userSpaceOnUse" x1="10.5498" y1="13.0264" x2="13.4498" y2="13.0264">
	<stop  offset="0" style="stop-color:#A15A18"/>
	<stop  offset="0.9882" style="stop-color:#5E350E"/>
</linearGradient>
<path style="fill-rule:evenodd;clip-rule:evenodd;fill:url(#SVGID_4_);" d="M11.9,12.1c1.467,0.101,1.917,0.483,1.35,1.15
	s-1.25,0.866-2.05,0.6c-0.667-0.199-0.867-0.55-0.6-1.05C10.833,12.267,11.267,12.033,11.9,12.1z"/>
<linearGradient id="SVGID_5_" gradientUnits="userSpaceOnUse" x1="7.2002" y1="13.5967" x2="8.8002" y2="13.5967">
	<stop  offset="0" style="stop-color:#A15A18"/>
	<stop  offset="0.9882" style="stop-color:#5E350E"/>
</linearGradient>
<path style="fill-rule:evenodd;clip-rule:evenodd;fill:url(#SVGID_5_);" d="M8.1,13c0.7-0.134,0.9,0.083,0.6,0.65
	c-0.3,0.533-0.65,0.699-1.05,0.5c-0.367-0.233-0.5-0.45-0.4-0.65C7.35,13.267,7.633,13.1,8.1,13z"/>
<linearGradient id="SVGID_6_" gradientUnits="userSpaceOnUse" x1="17.8125" y1="14.0762" x2="22.6875" y2="14.0762">
	<stop  offset="0" style="stop-color:#A15A18"/>
	<stop  offset="0.9882" style="stop-color:#5E350E"/>
</linearGradient>
<path style="fill-rule:evenodd;clip-rule:evenodd;fill:url(#SVGID_6_);" d="M20.55,12.75c0.833,0,1.467,0.283,1.9,0.85
	c0.433,0.567,0.35,1-0.25,1.301c-0.667,0.333-1.417,0.5-2.25,0.5c-0.9,0.033-1.55-0.2-1.95-0.7c-0.4-0.467-0.3-0.917,0.3-1.351
	C18.867,12.95,19.617,12.75,20.55,12.75z"/>
<linearGradient id="SVGID_7_" gradientUnits="userSpaceOnUse" x1="20.9888" y1="15.2441" x2="25.5127" y2="15.2441">
	<stop  offset="0" style="stop-color:#A15A18"/>
	<stop  offset="0.9882" style="stop-color:#5E350E"/>
</linearGradient>
<path style="fill-rule:evenodd;clip-rule:evenodd;fill:url(#SVGID_7_);" d="M25.25,14.9c0.333,0.399,0.35,0.767,0.05,1.1
	c-0.367,0.4-1.15,0.533-2.35,0.4c-1.233-0.101-1.883-0.317-1.95-0.65c-0.067-0.167,0.167-0.533,0.7-1.1
	c0.433-0.467,1.017-0.667,1.75-0.601C24.183,14.083,24.783,14.366,25.25,14.9z"/>
<linearGradient id="SVGID_8_" gradientUnits="userSpaceOnUse" x1="32.0127" y1="13.748" x2="37.3877" y2="13.748">
	<stop  offset="0" style="stop-color:#A15A18"/>
	<stop  offset="0.9882" style="stop-color:#5E350E"/>
</linearGradient>
<path style="fill-rule:evenodd;clip-rule:evenodd;fill:url(#SVGID_8_);" d="M34.15,15.4c-0.567,0-1.067-0.101-1.5-0.301
	c-0.5-0.233-0.7-0.55-0.601-0.949c0.167-0.5,0.45-0.967,0.851-1.4c0.533-0.467,1.1-0.684,1.699-0.65c0.634,0.034,1.284,0.367,1.95,1
	c0.634,0.601,0.917,1.117,0.851,1.551C37.3,15.15,36.217,15.4,34.15,15.4z"/>
<linearGradient id="SVGID_9_" gradientUnits="userSpaceOnUse" x1="30.9873" y1="15.5908" x2="34.7123" y2="15.5908">
	<stop  offset="0" style="stop-color:#A15A18"/>
	<stop  offset="0.9882" style="stop-color:#5E350E"/>
</linearGradient>
<path style="fill-rule:evenodd;clip-rule:evenodd;fill:url(#SVGID_9_);" d="M34.7,15.85c-0.101,0.467-0.5,0.733-1.2,0.801
	c-0.6,0.033-1.25-0.067-1.95-0.301c-0.566-0.199-0.717-0.5-0.45-0.899c0.233-0.4,0.634-0.667,1.2-0.8c0.634-0.167,1.2-0.167,1.7,0
	C34.6,14.85,34.833,15.25,34.7,15.85z"/>
<linearGradient id="SVGID_10_" gradientUnits="userSpaceOnUse" x1="27.875" y1="16.9912" x2="30.325" y2="16.9912">
	<stop  offset="0" style="stop-color:#A15A18"/>
	<stop  offset="0.9882" style="stop-color:#5E350E"/>
</linearGradient>
<path style="fill-rule:evenodd;clip-rule:evenodd;fill:url(#SVGID_10_);" d="M29.9,16.6c0.566,0.301,0.583,0.567,0.05,0.801
	c-0.5,0.199-1.084,0.25-1.75,0.149c-0.601-0.1-0.601-0.366,0-0.8C28.8,16.316,29.366,16.267,29.9,16.6z"/>
<linearGradient id="SVGID_11_" gradientUnits="userSpaceOnUse" x1="16.2627" y1="16.3818" x2="18.9377" y2="16.3818">
	<stop  offset="0" style="stop-color:#A15A18"/>
	<stop  offset="0.9882" style="stop-color:#5E350E"/>
</linearGradient>
<path style="fill-rule:evenodd;clip-rule:evenodd;fill:url(#SVGID_11_);" d="M18.55,15.85c0.6,0.2,0.583,0.5-0.05,0.9
	c-0.6,0.4-1.217,0.434-1.85,0.1c-0.6-0.333-0.6-0.649,0-0.949C17.283,15.634,17.917,15.616,18.55,15.85z"/>
<linearGradient id="SVGID_12_" gradientUnits="userSpaceOnUse" x1="8.7749" y1="15.042" x2="10.2249" y2="15.042">
	<stop  offset="0" style="stop-color:#A15A18"/>
	<stop  offset="0.9882" style="stop-color:#5E350E"/>
</linearGradient>
<path style="fill-rule:evenodd;clip-rule:evenodd;fill:url(#SVGID_12_);" d="M9.25,14.55c0.633,0.066,0.95,0.25,0.95,0.55
	c0.033,0.301-0.2,0.45-0.7,0.45c-0.433,0-0.683-0.184-0.75-0.55S8.85,14.483,9.25,14.55z"/>
<linearGradient id="SVGID_13_" gradientUnits="userSpaceOnUse" x1="28.4629" y1="13.4512" x2="31.1379" y2="13.4512">
	<stop  offset="0" style="stop-color:#A15A18"/>
	<stop  offset="0.9882" style="stop-color:#5E350E"/>
</linearGradient>
<path style="fill-rule:evenodd;clip-rule:evenodd;fill:url(#SVGID_13_);" d="M29.9,12.45c1.233,0.166,1.566,0.566,1,1.2
	c-0.601,0.6-1.267,0.866-2,0.8c-0.567-0.033-0.65-0.384-0.25-1.05C29.05,12.7,29.467,12.384,29.9,12.45z"/>
<linearGradient id="SVGID_14_" gradientUnits="userSpaceOnUse" x1="36.4375" y1="14.4023" x2="41.5625" y2="14.4023">
	<stop  offset="0" style="stop-color:#A15A18"/>
	<stop  offset="0.9882" style="stop-color:#5E350E"/>
</linearGradient>
<path style="fill-rule:evenodd;clip-rule:evenodd;fill:url(#SVGID_14_);" d="M41.15,13.8c0.366,0.434,0.5,0.884,0.399,1.351
	c-0.066,0.433-0.416,0.699-1.05,0.8c-0.434,0.1-1.184,0.116-2.25,0.05c-0.9-0.033-1.434-0.134-1.6-0.3
	c-0.2-0.134-0.233-0.434-0.101-0.9c0.134-0.533,0.517-1.033,1.15-1.5c0.7-0.5,1.366-0.649,2-0.45
	C40.3,13.017,40.783,13.333,41.15,13.8z"/>
<linearGradient id="SVGID_15_" gradientUnits="userSpaceOnUse" x1="42.4873" y1="15.2148" x2="44.8123" y2="15.2148">
	<stop  offset="0" style="stop-color:#A15A18"/>
	<stop  offset="0.9882" style="stop-color:#5E350E"/>
</linearGradient>
<path style="fill-rule:evenodd;clip-rule:evenodd;fill:url(#SVGID_15_);" d="M44.2,14.65c0.666,0.267,0.816,0.566,0.45,0.899
	c-0.367,0.334-0.917,0.4-1.65,0.2c-0.667-0.2-0.75-0.483-0.25-0.85C43.283,14.566,43.767,14.483,44.2,14.65z"/>
<linearGradient id="SVGID_16_" gradientUnits="userSpaceOnUse" x1="39.7998" y1="11.6279" x2="42.7998" y2="11.6279">
	<stop  offset="0" style="stop-color:#A15A18"/>
	<stop  offset="0.9882" style="stop-color:#5E350E"/>
</linearGradient>
<path style="fill-rule:evenodd;clip-rule:evenodd;fill:url(#SVGID_16_);" d="M42.1,10.75c0.434,0.066,0.667,0.333,0.7,0.8
	c0.033,0.434-0.149,0.733-0.55,0.9c-0.4,0.166-0.9,0.184-1.5,0.05c-0.634-0.134-0.95-0.333-0.95-0.6c0-0.367,0.167-0.667,0.5-0.9
	C40.7,10.667,41.3,10.583,42.1,10.75z"/>
<linearGradient id="SVGID_17_" gradientUnits="userSpaceOnUse" x1="42.9873" y1="10.4043" x2="45.4123" y2="10.4043">
	<stop  offset="0" style="stop-color:#A15A18"/>
	<stop  offset="0.9882" style="stop-color:#5E350E"/>
</linearGradient>
<path style="fill-rule:evenodd;clip-rule:evenodd;fill:url(#SVGID_17_);" d="M43.85,9.55c0.667,0,1.134,0.217,1.4,0.65
	c0.267,0.366,0.283,0.649,0.05,0.85c-0.166,0.167-0.399,0.233-0.7,0.2c-0.133,0-0.517-0.066-1.149-0.2
	c-0.467-0.066-0.584-0.333-0.351-0.8S43.583,9.55,43.85,9.55z"/>
<linearGradient id="SVGID_18_" gradientUnits="userSpaceOnUse" x1="2.0498" y1="13.1543" x2="4.1498" y2="13.1543">
	<stop  offset="0" style="stop-color:#A15A18"/>
	<stop  offset="0.9882" style="stop-color:#5E350E"/>
</linearGradient>
<path style="fill-rule:evenodd;clip-rule:evenodd;fill:url(#SVGID_18_);" d="M3.75,12.6c0.433,0.233,0.55,0.534,0.35,0.9
	c-0.233,0.4-0.717,0.434-1.45,0.1c-0.733-0.3-0.833-0.583-0.3-0.85C2.917,12.45,3.383,12.4,3.75,12.6z"/>
<path style="fill-rule:evenodd;clip-rule:evenodd;fill:#BA6414;" d="M8.95,9.6c0.767,0,0.95,0.217,0.55,0.65
	c-0.4,0.4-0.85,0.566-1.35,0.5c-0.4-0.1-0.433-0.316-0.1-0.65C8.383,9.767,8.683,9.6,8.95,9.6z"/>
<path style="fill-rule:evenodd;clip-rule:evenodd;fill:#BA6414;" d="M11.75,8.1c0.8-0.133,1.117,0.033,0.95,0.5
	c-0.2,0.466-0.6,0.7-1.2,0.7c-0.567,0-0.767-0.184-0.6-0.55C11.033,8.383,11.317,8.167,11.75,8.1z"/>
<path style="fill-rule:evenodd;clip-rule:evenodd;fill:#BA6414;" d="M11.8,9.9c0.567,0.033,0.75,0.416,0.55,1.149
	c-0.233,0.733-0.667,0.917-1.3,0.55c-0.6-0.366-0.716-0.767-0.35-1.199C11,10,11.367,9.833,11.8,9.9z"/>
<path style="fill-rule:evenodd;clip-rule:evenodd;fill:#BA6414;" d="M14.55,10.4c0.3,0.3,0.317,0.683,0.05,1.149
	s-0.55,0.584-0.85,0.351c-0.267-0.2-0.267-0.567,0-1.101S14.283,10.134,14.55,10.4z"/>
<path style="fill-rule:evenodd;clip-rule:evenodd;fill:#BA6414;" d="M17.7,11.6c0.367,0.134,0.433,0.417,0.2,0.851
	c-0.233,0.399-0.583,0.5-1.05,0.3c-0.5-0.2-0.6-0.483-0.3-0.85C16.85,11.533,17.233,11.434,17.7,11.6z"/>
<path style="fill-rule:evenodd;clip-rule:evenodd;fill:#BA6414;" d="M19.9,9.35c0.633,0.301,0.8,0.684,0.5,1.15
	c-0.267,0.467-0.717,0.566-1.35,0.3c-0.6-0.233-0.7-0.566-0.3-1C19.117,9.333,19.5,9.184,19.9,9.35z"/>
<path style="fill-rule:evenodd;clip-rule:evenodd;fill:#BA6414;" d="M16.5,8.45c0.833,0.066,1.05,0.417,0.65,1.05
	c-0.433,0.667-0.85,0.884-1.25,0.65C15.567,9.95,15.5,9.6,15.7,9.1C15.9,8.633,16.167,8.417,16.5,8.45z"/>
<path style="fill-rule:evenodd;clip-rule:evenodd;fill:#BA6414;" d="M14.1,7.4c0.867,0,1.15,0.267,0.85,0.8
	c-0.3,0.6-0.667,0.816-1.1,0.65c-0.333-0.1-0.434-0.367-0.3-0.8C13.65,7.617,13.833,7.4,14.1,7.4z"/>
<path style="fill-rule:evenodd;clip-rule:evenodd;fill:#BA6414;" d="M15.4,5.8c0.4-0.133,0.55-0.033,0.45,0.3
	c-0.133,0.3-0.367,0.483-0.7,0.55c-0.333,0.033-0.433-0.083-0.3-0.35C14.983,6.033,15.167,5.867,15.4,5.8z"/>
<path style="fill-rule:evenodd;clip-rule:evenodd;fill:#BA6414;" d="M18.2,3.85c0.466,0.133,0.55,0.367,0.25,0.7
	c-0.333,0.333-0.7,0.467-1.1,0.4c-0.367-0.067-0.4-0.284-0.1-0.65S17.867,3.783,18.2,3.85z"/>
<path style="fill-rule:evenodd;clip-rule:evenodd;fill:#BA6414;" d="M20.15,2.55c0.533,0.034,0.7,0.2,0.5,0.5
	c-0.2,0.267-0.483,0.367-0.85,0.3c-0.3-0.1-0.367-0.25-0.2-0.45C19.733,2.667,19.917,2.55,20.15,2.55z"/>
<path style="fill-rule:evenodd;clip-rule:evenodd;fill:#BA6414;" d="M20.3,4.5c0.767,0.133,0.867,0.467,0.3,1
	c-0.6,0.533-1.067,0.667-1.4,0.4c-0.267-0.267-0.233-0.583,0.1-0.95C19.6,4.583,19.933,4.433,20.3,4.5z"/>
<path style="fill-rule:evenodd;clip-rule:evenodd;fill:#BA6414;" d="M17.7,6.05c0.133,0.4,0.033,0.717-0.3,0.95
	c-0.3,0.2-0.566,0.2-0.8,0c-0.233-0.167-0.15-0.45,0.25-0.85C17.283,5.75,17.567,5.717,17.7,6.05z"/>
<path style="fill-rule:evenodd;clip-rule:evenodd;fill:#BA6414;" d="M19.4,6.9c0.434,0,0.567,0.283,0.4,0.85
	c-0.033,0.167-0.233,0.233-0.6,0.2c-0.333-0.034-0.583-0.133-0.75-0.3c-0.167-0.167-0.15-0.333,0.05-0.5C18.7,6.983,19,6.9,19.4,6.9
	z"/>
<path style="fill-rule:evenodd;clip-rule:evenodd;fill:#BA6414;" d="M21.85,7.05C22.583,7.183,22.767,7.5,22.4,8
	s-0.717,0.667-1.05,0.5c-0.267-0.133-0.317-0.417-0.15-0.85C21.333,7.217,21.55,7.017,21.85,7.05z"/>
<path style="fill-rule:evenodd;clip-rule:evenodd;fill:#BA6414;" d="M22.35,10.55c0.566,0.101,0.7,0.4,0.4,0.9
	c-0.333,0.5-0.667,0.684-1,0.55c-0.3-0.134-0.383-0.417-0.25-0.85C21.667,10.717,21.95,10.517,22.35,10.55z"/>
<path style="fill-rule:evenodd;clip-rule:evenodd;fill:#BA6414;" d="M25.4,11.15c0.899,0.366,0.983,0.716,0.25,1.05
	c-0.8,0.399-1.267,0.483-1.4,0.25c-0.133-0.2-0.067-0.5,0.2-0.9C24.717,11.116,25.033,10.983,25.4,11.15z"/>
<path style="fill-rule:evenodd;clip-rule:evenodd;fill:#BA6414;" d="M11.55,12.35c0.4,0.067,0.517,0.25,0.35,0.551
	c-0.167,0.267-0.417,0.399-0.75,0.399c-0.267,0-0.316-0.166-0.15-0.5C11.2,12.467,11.383,12.316,11.55,12.35z"/>
<path style="fill-rule:evenodd;clip-rule:evenodd;fill:#BA6414;" d="M19.7,13.3c0.566,0.134,0.683,0.4,0.35,0.8
	c-0.367,0.4-0.767,0.517-1.2,0.351c-0.434-0.134-0.5-0.4-0.2-0.8C18.95,13.283,19.3,13.167,19.7,13.3z"/>
<path style="fill-rule:evenodd;clip-rule:evenodd;fill:#BA6414;" d="M22.7,14.55c0.466,0.066,0.5,0.334,0.1,0.8
	c-0.433,0.5-0.833,0.684-1.2,0.551c-0.367-0.134-0.367-0.4,0-0.801C21.967,14.7,22.333,14.517,22.7,14.55z"/>
<path style="fill-rule:evenodd;clip-rule:evenodd;fill:#BA6414;" d="M17.6,16c0.133,0.134,0.1,0.283-0.1,0.45
	c-0.2,0.166-0.4,0.184-0.6,0.05c-0.2-0.134-0.167-0.283,0.1-0.45C17.267,15.884,17.467,15.866,17.6,16z"/>
<path style="fill-rule:evenodd;clip-rule:evenodd;fill:#BA6414;" d="M38.5,13.6c0.5,0.267,0.483,0.7-0.05,1.301
	c-0.566,0.6-1,0.8-1.3,0.6c-0.267-0.2-0.2-0.616,0.199-1.25C37.75,13.616,38.134,13.4,38.5,13.6z"/>
<path style="fill-rule:evenodd;clip-rule:evenodd;fill:#BA6414;" d="M34.25,12.6c0.267,0.134,0.2,0.467-0.2,1
	c-0.366,0.5-0.75,0.684-1.149,0.551c-0.434-0.167-0.434-0.534,0-1.101C33.333,12.483,33.783,12.333,34.25,12.6z"/>
<path style="fill-rule:evenodd;clip-rule:evenodd;fill:#BA6414;" d="M32.8,14.9c0.233,0.066,0.15,0.283-0.25,0.649
	c-0.434,0.334-0.75,0.4-0.95,0.2c-0.199-0.233-0.116-0.467,0.25-0.7C32.217,14.816,32.533,14.767,32.8,14.9z"/>
<path style="fill-rule:evenodd;clip-rule:evenodd;fill:#BA6414;" d="M29.65,12.95c0.333,0.066,0.35,0.267,0.05,0.6
	c-0.3,0.3-0.566,0.384-0.8,0.25c-0.2-0.1-0.167-0.283,0.1-0.55S29.483,12.884,29.65,12.95z"/>
<path style="fill-rule:evenodd;clip-rule:evenodd;fill:#BA6414;" d="M41.05,11.05c0.566-0.033,0.75,0.134,0.55,0.5
	c-0.233,0.367-0.533,0.517-0.899,0.45c-0.334-0.066-0.434-0.233-0.3-0.5C40.5,11.233,40.717,11.083,41.05,11.05z"/>
<path style="fill-rule:evenodd;clip-rule:evenodd;fill:#BA6414;" d="M44.2,9.9c0.366,0.133,0.45,0.333,0.25,0.6
	c-0.2,0.3-0.483,0.35-0.851,0.15c-0.333-0.2-0.383-0.4-0.149-0.601S43.934,9.8,44.2,9.9z"/>
<path style="fill-rule:evenodd;clip-rule:evenodd;fill:#BA6414;" d="M4.5,10.65c0.267,0.133,0.367,0.316,0.3,0.55
	c-0.1,0.2-0.316,0.233-0.65,0.1c-0.333-0.133-0.45-0.316-0.35-0.55C3.933,10.517,4.167,10.483,4.5,10.65z"/>
</svg>
