<?xml version="1.0" encoding="iso-8859-1"?>
<!-- Generator: Adobe Illustrator 15.1.0, SVG Export Plug-In . SVG Version: 6.00 Build 0)  -->
<!DOCTYPE svg PUBLIC "-//W3C//DTD SVG 1.1//EN" "http://www.w3.org/Graphics/SVG/1.1/DTD/svg11.dtd">
<svg version="1.1" id="flash0.ai" xmlns="http://www.w3.org/2000/svg" xmlns:xlink="http://www.w3.org/1999/xlink" x="0px" y="0px"
	 width="46.45px" height="44.1px" viewBox="0 0 46.45 44.1" style="enable-background:new 0 0 46.45 44.1;" xml:space="preserve">
<symbol  id="flash0.ai_x5F_2_x2F_Layer_10_copy_x2F__x3C_Path_x3E__x5F_10" viewBox="-0.032 -0.9 1.669 0.906">
	<g id="Layer_1_18_">
		<path style="fill-rule:evenodd;clip-rule:evenodd;fill:#FFF59E;" d="M1.55-0.3c0.233-0.4,0-0.6-0.7-0.6
			C0.15-0.9-0.133-0.75,0-0.45C0.133-0.183,0.4-0.033,0.8,0C1.133,0.033,1.383-0.067,1.55-0.3z"/>
	</g>
</symbol>
<symbol  id="flash0.ai_x5F_2_x2F_Layer_10_copy_x2F__x3C_Path_x3E__x5F_11" viewBox="-0.041 -0.617 1.561 0.6">
	<g id="Layer_1_17_">
		<path style="fill-rule:evenodd;clip-rule:evenodd;fill:#FFF59E;" d="M1.5-0.35c0.1-0.267-0.167-0.333-0.8-0.2
			c-0.667,0.133-0.883,0.267-0.65,0.4c0.267,0.133,0.567,0.167,0.9,0.1C1.283-0.083,1.467-0.183,1.5-0.35z"/>
	</g>
</symbol>
<symbol  id="flash0.ai_x5F_2_x2F_Layer_10_copy_x2F__x3C_Path_x3E__x5F_12" viewBox="-0.006 -1.284 1.255 1.256">
	<g id="Layer_1_16_">
		<path style="fill-rule:evenodd;clip-rule:evenodd;fill:#FFF59E;" d="M1.05-0.05C1.383-0.183,1.3-0.467,0.8-0.9
			C0.267-1.333,0-1.4,0-1.1c-0.033,0.3,0.083,0.567,0.35,0.8C0.617-0.067,0.85,0.017,1.05-0.05z"/>
	</g>
</symbol>
<symbol  id="flash0.ai_x5F_2_x2F_Layer_10_copy_x2F__x3C_Path_x3E__x5F_13" viewBox="0.041 -0.983 1.576 0.983">
	<g id="Layer_1_15_">
		<path style="fill-rule:evenodd;clip-rule:evenodd;fill:#FFF59E;" d="M1.45-0.2c0.333-0.333,0.167-0.566-0.5-0.7
			c-0.667-0.167-0.967-0.083-0.9,0.25c0.067,0.3,0.284,0.5,0.65,0.6C1.033,0.05,1.283,0,1.45-0.2z"/>
	</g>
</symbol>
<symbol  id="flash0.ai_x5F_2_x2F_Layer_10_copy_x2F__x3C_Path_x3E__x5F_14" viewBox="-0.005 -1.213 1.478 1.236">
	<g id="Layer_1_14_">
		<path style="fill-rule:evenodd;clip-rule:evenodd;fill:#FFF59E;" d="M1.2-0.05c0.433-0.2,0.35-0.483-0.25-0.85
			C0.35-1.3,0.033-1.317,0-0.95C-0.033-0.65,0.1-0.4,0.4-0.2C0.7,0.033,0.967,0.083,1.2-0.05z"/>
	</g>
</symbol>
<symbol  id="flash0.ai_x5F_2_x2F_Layer_10_copy_x2F__x3C_Path_x3E__x5F_2" viewBox="0 -17.4 0.25 17.4">
	<g id="Layer_1_25_">
		<path style="fill-rule:evenodd;clip-rule:evenodd;fill:#DFF7F7;" d="M0.25-8.7c0-5.8-0.05-8.7-0.15-8.7C0.033-17.4,0-14.5,0-8.7
			C0-2.9,0.033,0,0.1,0C0.2,0,0.25-2.9,0.25-8.7z"/>
	</g>
</symbol>
<symbol  id="flash0.ai_x5F_2_x2F_Layer_10_copy_x2F__x3C_Path_x3E__x5F_4" viewBox="-0.03 -1.569 0.655 1.554">
	<g id="Layer_1_24_">
		<path style="fill-rule:evenodd;clip-rule:evenodd;fill:#FFF59E;" d="M0.55-0.05c0.1-0.1,0.1-0.317,0-0.65
			c-0.1-0.333-0.233-0.6-0.4-0.8c-0.2-0.2-0.233,0.033-0.1,0.7C0.217-0.167,0.383,0.083,0.55-0.05z"/>
	</g>
</symbol>
<symbol  id="flash0.ai_x5F_2_x2F_Layer_10_copy_x2F__x3C_Path_x3E__x5F_5" viewBox="0.017 -1.398 0.762 1.408">
	<g id="Layer_1_23_">
		<path style="fill-rule:evenodd;clip-rule:evenodd;fill:#FFF59E;" d="M0.1-0.75C-0.067-0.183,0.017,0.067,0.35,0
			c0.2-0.067,0.333-0.25,0.4-0.55C0.817-0.85,0.767-1.1,0.6-1.3C0.433-1.533,0.267-1.35,0.1-0.75z"/>
	</g>
</symbol>
<symbol  id="flash0.ai_x5F_2_x2F_Layer_10_copy_x2F__x3C_Path_x3E__x5F_6" viewBox="-0.013 -0.906 0.704 0.913">
	<g id="Layer_1_22_">
		<path style="fill-rule:evenodd;clip-rule:evenodd;fill:#FFF59E;" d="M0.15-0.55C-0.083-0.217-0.067-0.033,0.2,0
			c0.167,0.033,0.3-0.05,0.4-0.25S0.717-0.633,0.65-0.8C0.583-1,0.417-0.917,0.15-0.55z"/>
	</g>
</symbol>
<symbol  id="flash0.ai_x5F_2_x2F_Layer_10_copy_x2F__x3C_Path_x3E__x5F_62" viewBox="0 -16.39 44.6 16.39">
	<g id="Layer_1_13_">
		<linearGradient id="SVGID_1_" gradientUnits="userSpaceOnUse" x1="0" y1="-8.1948" x2="44.6001" y2="-8.1948">
			<stop  offset="0" style="stop-color:#A1DAFF"/>
			<stop  offset="1" style="stop-color:#537F9C"/>
		</linearGradient>
		<path style="fill-rule:evenodd;clip-rule:evenodd;fill:url(#SVGID_1_);" d="M42.3-1.5c0.867,0.533,1.633,1.033,2.3,1.5
			c-7.033-5.233-11.767-8.65-14.2-10.25c-3.066-2.033-5.117-3.717-6.15-5.05c-0.333-0.5-0.733-0.833-1.2-1
			c-0.3-0.1-0.55-0.117-0.75-0.05c-0.733-0.133-1.4,0.217-2,1.05c-0.9,1.267-2.95,2.95-6.15,5.05C11.717-8.65,7-5.233,0,0
			c0.667-0.467,1.417-0.967,2.25-1.5c1.7-1.1,2.983-1.733,3.85-1.9c1.4-0.267,6.8-0.833,16.2-1.7c9.4,0.867,14.8,1.434,16.2,1.7
			C39.333-3.233,40.6-2.6,42.3-1.5z"/>
	</g>
</symbol>
<symbol  id="flash0.ai_x5F_2_x2F_Layer_10_copy_x2F__x3C_Path_x3E__x5F_63" viewBox="0.001 -8.482 11.949 8.482">
	<g id="Layer_1_12_">
		
			<linearGradient id="SVGID_2_" gradientUnits="userSpaceOnUse" x1="5744.4961" y1="-19457.623" x2="5753.5176" y2="-19457.623" gradientTransform="matrix(-0.5431 -0.8396 0.8396 -0.5431 19464.9375 -5746.8247)">
			<stop  offset="0" style="stop-color:#FFFFFF"/>
			<stop  offset="1" style="stop-color:#000000"/>
		</linearGradient>
		<path style="fill-rule:evenodd;clip-rule:evenodd;fill:url(#SVGID_2_);" d="M8.8-0.35L11.95,0L11.3-0.65
			c-0.566-0.567-1.833-1.6-3.8-3.1C5.133-5.583,3.25-6.867,1.85-7.6c-1.434-0.767-2.033-1.033-1.8-0.8c0.067,0.1,1,0.85,2.8,2.25
			C4.85-4.617,6.833-2.683,8.8-0.35z"/>
	</g>
</symbol>
<symbol  id="flash0.ai_x5F_2_x2F_Layer_10_copy_x2F__x3C_Path_x3E__x5F_64" viewBox="0 -10.202 15.95 10.202">
	<g id="Layer_1_11_">
		<linearGradient id="SVGID_3_" gradientUnits="userSpaceOnUse" x1="2.8501" y1="-5.1011" x2="12.6501" y2="-5.1011">
			<stop  offset="0" style="stop-color:#FFFFFF"/>
			<stop  offset="1" style="stop-color:#000000"/>
		</linearGradient>
		<path style="fill-rule:evenodd;clip-rule:evenodd;fill:url(#SVGID_3_);" d="M0,0l15.95-1.35l-0.1-7c0-1.733-0.85-2.25-2.55-1.55
			l-2.6,1.55c-0.467,0.4-2,1.533-4.6,3.4C3.5-3.05,1.467-1.4,0,0z"/>
	</g>
</symbol>
<symbol  id="flash0.ai_x5F_2_x2F_Layer_10_copy_x2F__x3C_Path_x3E__x5F_68" viewBox="0 -9.25 43.8 9.25">
	<g id="Layer_1_10_">
		<linearGradient id="SVGID_4_" gradientUnits="userSpaceOnUse" x1="0" y1="-4.625" x2="43.7998" y2="-4.625">
			<stop  offset="0" style="stop-color:#C2E7FF"/>
			<stop  offset="1" style="stop-color:#88ABC2"/>
		</linearGradient>
		<path style="fill-rule:evenodd;clip-rule:evenodd;fill:url(#SVGID_4_);" d="M37.4-1.35c4.267-0.9,6.4-1.983,6.4-3.25
			s-2.133-2.367-6.4-3.3c-4.3-0.9-9.467-1.35-15.5-1.35S10.7-8.8,6.4-7.9C2.133-6.967,0-5.867,0-4.6s2.133,2.35,6.4,3.25
			S15.833,0,21.9,0C27.967,0,33.133-0.45,37.4-1.35z"/>
	</g>
</symbol>
<symbol  id="flash0.ai_x5F_2_x2F_Layer_10_copy_x2F__x3C_Path_x3E__x5F_69" viewBox="0.05 -3.4 3.109 3.485">
	<g id="Layer_1_9_">
		<path style="fill-rule:evenodd;clip-rule:evenodd;fill:#CEF2F2;" d="M1.8-2.05c0.267,0.433,0.45,0.833,0.55,1.2
			C2.417-0.517,2.5-0.283,2.6-0.15c0.267,0.433,0.45,0.267,0.55-0.5C3.217-1.317,2.9-1.917,2.2-2.45C1.4-3.083,0.683-3.4,0.05-3.4
			C0.917-2.933,1.5-2.483,1.8-2.05z"/>
	</g>
</symbol>
<symbol  id="flash0.ai_x5F_2_x2F_Layer_10_copy_x2F__x3C_Path_x3E__x5F_7" viewBox="0.012 -1.545 1.461 1.545">
	<g id="Layer_1_21_">
		<path style="fill-rule:evenodd;clip-rule:evenodd;fill:#FFF59E;" d="M0.95,0c0.6,0,0.683-0.3,0.25-0.9
			c-0.434-0.633-0.767-0.8-1-0.5c-0.233,0.267-0.25,0.566-0.05,0.9C0.317-0.167,0.583,0,0.95,0z"/>
	</g>
</symbol>
<symbol  id="flash0.ai_x5F_2_x2F_Layer_10_copy_x2F__x3C_Path_x3E__x5F_70" viewBox="0 -0.714 0.906 0.728">
	<g id="Layer_1_8_">
		<path style="fill-rule:evenodd;clip-rule:evenodd;fill:#CEF2F2;" d="M0.55-0.1C0.917-0.267,1-0.433,0.8-0.6
			C0.6-0.767,0.4-0.75,0.2-0.55C0-0.35-0.05-0.183,0.05-0.05C0.15,0.05,0.317,0.033,0.55-0.1z"/>
	</g>
</symbol>
<symbol  id="flash0.ai_x5F_2_x2F_Layer_10_copy_x2F__x3C_Path_x3E__x5F_71" viewBox="0.022 -3.511 2.47 3.499">
	<g id="Layer_1_7_">
		<path style="fill-rule:evenodd;clip-rule:evenodd;fill:#CEF2F2;" d="M0.7-0.05C0.967,0.083,1.15-0.133,1.25-0.7
			c0.2-0.9,0.517-1.6,0.95-2.1c0.433-0.534,0.383-0.767-0.15-0.7c-0.533,0.1-1.033,0.45-1.5,1.05c-0.433,0.567-0.6,1.083-0.5,1.55
			C0.117-0.5,0.333-0.217,0.7-0.05z"/>
	</g>
</symbol>
<symbol  id="flash0.ai_x5F_2_x2F_Layer_10_copy_x2F__x3C_Path_x3E__x5F_73" viewBox="0 -20.65 3.95 20.65">
	<g id="Layer_1_6_">
		<linearGradient id="SVGID_5_" gradientUnits="userSpaceOnUse" x1="0" y1="-10.3252" x2="3.9" y2="-10.3252">
			<stop  offset="0" style="stop-color:#5A9BC9"/>
			<stop  offset="0.4588" style="stop-color:#EDF8FF"/>
			<stop  offset="0.9765" style="stop-color:#61BEFF"/>
		</linearGradient>
		<path style="fill-rule:evenodd;clip-rule:evenodd;fill:url(#SVGID_5_);" d="M1.95-0.75l2,0.75C3.417-0.367,3.133-1.483,3.1-3.35
			c-0.033-2.467-0.033-8.05,0-16.75c-0.1-0.333-0.417-0.517-0.95-0.55H1.8c-0.533,0.033-0.85,0.217-0.95,0.55
			c0.033,8.7,0.033,14.283,0,16.75C0.817-1.483,0.533-0.367,0,0L1.95-0.75z"/>
	</g>
</symbol>
<symbol  id="flash0.ai_x5F_2_x2F_Layer_10_copy_x2F__x3C_Path_x3E__x5F_74" viewBox="-0.02 -2.6 4.49 2.6">
	<g id="Layer_1_5_">
		<linearGradient id="SVGID_6_" gradientUnits="userSpaceOnUse" x1="-0.0376" y1="-1.2998" x2="4.4374" y2="-1.2998">
			<stop  offset="0" style="stop-color:#ABC5D9"/>
			<stop  offset="0.4588" style="stop-color:#EDF8FF"/>
			<stop  offset="0.9765" style="stop-color:#B8D1E3"/>
		</linearGradient>
		<path style="fill-rule:evenodd;clip-rule:evenodd;fill:url(#SVGID_6_);" d="M3.45,0C3.717-0.133,3.967-0.333,4.2-0.6
			C4.5-1,4.55-1.4,4.35-1.8c-0.233-0.434-0.9-0.7-2-0.8H2.1c-1.133,0.1-1.8,0.367-2,0.8C-0.1-1.4-0.05-1,0.25-0.6
			C0.483-0.333,0.733-0.133,1,0l1.2-0.35L3.45,0z"/>
	</g>
</symbol>
<symbol  id="flash0.ai_x5F_2_x2F_Layer_10_copy_x2F__x3C_Path_x3E__x5F_75" viewBox="0 -8.55 20.4 8.55">
	<g id="Layer_1_4_">
		<path style="fill-rule:evenodd;clip-rule:evenodd;fill:#162C33;" d="M17.4-7.2c-2-0.9-4.4-1.35-7.2-1.35
			C7.367-8.55,4.967-8.1,3-7.2C1-6.267,0-5.15,0-3.85c0,0.8,0.4,1.533,1.2,2.2C1.933-0.983,2.967-0.433,4.3,0
			C3.267-0.567,2.583-1.067,2.25-1.5c-0.467-0.633-0.5-1.333-0.1-2.1c0.7-1.4,2.367-2.4,5-3c2.6-0.6,5.2-0.6,7.8,0
			c1.9,0.434,3.066,1.3,3.5,2.6c0.4,1.233,0.083,2.383-0.95,3.45c1.933-0.9,2.9-2,2.9-3.3C20.4-5.15,19.4-6.267,17.4-7.2z"/>
	</g>
</symbol>
<symbol  id="flash0.ai_x5F_2_x2F_Layer_10_copy_x2F__x3C_Path_x3E__x5F_76" viewBox="0 -9.45 20.4 9.45">
	<g id="Layer_1_3_">
		
			<radialGradient id="SVGID_7_" cx="2.8091" cy="-16327.2754" r="8.6125" gradientTransform="matrix(5.805515e-005 -1 -1.3193 5.805515e-005 -21530.3789 1.3071)" gradientUnits="userSpaceOnUse">
			<stop  offset="0" style="stop-color:#FFFFFF"/>
			<stop  offset="0.9882" style="stop-color:#83CFE6"/>
		</radialGradient>
		<path style="fill-rule:evenodd;clip-rule:evenodd;fill:url(#SVGID_7_);" d="M20.4-4.75c0-1.3-1-2.417-3-3.35
			c-2-0.9-4.4-1.35-7.2-1.35C7.367-9.45,4.967-9,3-8.1C1-7.167,0-6.05,0-4.75C0-3.417,1-2.3,3-1.4C4.967-0.467,7.367,0,10.2,0
			c2.8,0,5.2-0.467,7.2-1.4C19.4-2.3,20.4-3.417,20.4-4.75z"/>
	</g>
</symbol>
<symbol  id="flash0.ai_x5F_2_x2F_Layer_10_copy_x2F__x3C_Path_x3E__x5F_77" viewBox="0 -5.35 20.35 5.35">
	<g id="Layer_1_2_">
		<path style="fill-rule:evenodd;clip-rule:evenodd;fill:#162C33;" d="M20.35-0.2v-0.4c0-1.333-0.983-2.45-2.95-3.35
			c-2-0.933-4.4-1.4-7.2-1.4c-2.833,0-5.233,0.467-7.2,1.4C1-3.05,0-1.933,0-0.6L0.05,0C0.183-1.233,1.233-2.283,3.2-3.15
			c1.966-0.867,4.3-1.3,7-1.3c2.633,0,4.933,0.4,6.9,1.2C19.033-2.417,20.117-1.4,20.35-0.2z"/>
	</g>
</symbol>
<symbol  id="flash0.ai_x5F_2_x2F_Layer_10_copy_x2F__x3C_Path_x3E__x5F_8" viewBox="-0.008 -1.269 1.011 1.274">
	<g id="Layer_1_20_">
		<path style="fill-rule:evenodd;clip-rule:evenodd;fill:#FFF59E;" d="M0.8,0c0.3-0.067,0.267-0.333-0.1-0.8
			C0.3-1.3,0.067-1.4,0-1.1c-0.033,0.233,0.033,0.483,0.2,0.75C0.4-0.083,0.6,0.033,0.8,0z"/>
	</g>
</symbol>
<symbol  id="flash0.ai_x5F_2_x2F_Layer_10_copy_x2F__x3C_Path_x3E__x5F_9" viewBox="0.005 -1.392 1.308 1.398">
	<g id="Layer_1_19_">
		<path style="fill-rule:evenodd;clip-rule:evenodd;fill:#FFF59E;" d="M1,0c0.433-0.133,0.417-0.433-0.05-0.9
			c-0.5-0.533-0.8-0.633-0.9-0.3c-0.1,0.3-0.033,0.583,0.2,0.85S0.733,0.033,1,0z"/>
	</g>
</symbol>
<g>
	
		<use xlink:href="#flash0.ai_x5F_2_x2F_Layer_10_copy_x2F__x3C_Path_x3E__x5F_77"  width="20.35" height="5.35" y="-5.35" transform="matrix(0.65 0 0 -0.65 15.4502 40.5996)" style="overflow:visible;opacity:0.4219;enable-background:new    ;"/>
	
		<use xlink:href="#flash0.ai_x5F_2_x2F_Layer_10_copy_x2F__x3C_Path_x3E__x5F_76"  width="20.4" height="9.45" y="-9.45" transform="matrix(0.65 0 0 -0.65 15.4502 37.3496)" style="overflow:visible;opacity:0.1992;enable-background:new    ;"/>
	
		<use xlink:href="#flash0.ai_x5F_2_x2F_Layer_10_copy_x2F__x3C_Path_x3E__x5F_75"  width="20.4" height="8.55" y="-8.55" transform="matrix(0.65 0 0 -0.65 15.4502 37.9502)" style="overflow:visible;opacity:0.2109;enable-background:new    ;"/>
	
		<use xlink:href="#flash0.ai_x5F_2_x2F_Layer_10_copy_x2F__x3C_Path_x3E__x5F_74"  width="4.49" height="2.6" x="-0.02" y="-2.6" transform="matrix(0.65 0 0 -0.65 20.6499 37.4502)" style="overflow:visible;opacity:0.4219;enable-background:new    ;"/>
	
		<use xlink:href="#flash0.ai_x5F_2_x2F_Layer_10_copy_x2F__x3C_Path_x3E__x5F_73"  width="3.95" height="20.65" y="-20.65" transform="matrix(0.65 0 0 -0.65 20.75 24.6504)" style="overflow:visible;opacity:0.1914;enable-background:new    ;"/>
	<path style="fill-rule:evenodd;clip-rule:evenodd;fill:#B4CFE0;" d="M23.387,24.772c-0.324,0.217-0.487,0.898-0.487,2.047
		c-0.021,1.582-0.021,5.211,0,10.888c-0.108,0.304-0.346,0.466-0.715,0.487v0.032h-0.13l-0.033-0.162l-0.032,0.162l-0.098-0.032
		C21.654,38.173,21.47,38.108,21.34,38c-0.087-0.131-0.141-0.206-0.163-0.228c0.021-5.721,0.021-9.371,0-10.953
		c-0.021-1.126-0.184-1.809-0.487-2.047l0.097-0.293l1.235,0.488l1.235-0.488L23.387,24.772z M21.145,24.935
		c0.174,0.455,0.271,1.083,0.292,1.885c0.022,1.518,0.022,5.136,0,10.855c0.065,0.13,0.228,0.205,0.488,0.228l0.065,0.032v-0.032
		h0.163c0.26-0.022,0.422-0.098,0.487-0.228c-0.022-5.72-0.022-9.338,0-10.855c0-0.823,0.098-1.451,0.292-1.885l-0.91,0.325
		L21.145,24.935z"/>
	<path style="fill-rule:evenodd;clip-rule:evenodd;fill:#B4CFE0;" d="M22.022,25.13c0.434,0.043,0.758,0,0.976-0.13l-0.163,0.715
		c-0.044,0.238-0.055,0.823-0.033,1.755c-0.064-0.064-0.108-0.357-0.129-0.877c-0.022-0.368-0.13-0.65-0.325-0.846
		c-0.174-0.173-0.379-0.195-0.618-0.065c-0.195,0.109-0.325,0.357-0.39,0.748c-0.014,0.106-0.024,0.215-0.033,0.325
		c-0.001-0.265-0.045-0.601-0.13-1.008l-0.163-0.715L22.022,25.13z"/>
	
		<use xlink:href="#flash0.ai_x5F_2_x2F_Layer_10_copy_x2F__x3C_Path_x3E__x5F_71"  width="2.47" height="3.499" x="0.022" y="-3.511" transform="matrix(0.65 0 0 -0.65 15.6001 39.5996)" style="overflow:visible;opacity:0.6211;enable-background:new    ;"/>
	
		<use xlink:href="#flash0.ai_x5F_2_x2F_Layer_10_copy_x2F__x3C_Path_x3E__x5F_70"  width="0.906" height="0.728" x="0" y="-0.714" transform="matrix(0.65 0 0 -0.65 17.5 42)" style="overflow:visible;opacity:0.6211;enable-background:new    ;"/>
	
		<use xlink:href="#flash0.ai_x5F_2_x2F_Layer_10_copy_x2F__x3C_Path_x3E__x5F_69"  width="3.109" height="3.485" x="0.05" y="-3.4" transform="matrix(0.65 0 0 -0.65 26.5 39.9004)" style="overflow:visible;opacity:0.6211;enable-background:new    ;"/>
	
		<use xlink:href="#flash0.ai_x5F_2_x2F_Layer_10_copy_x2F__x3C_Path_x3E__x5F_68"  width="43.8" height="9.25" y="-9.25" transform="matrix(0.65 0 0 -0.65 7.8999 11.1001)" style="overflow:visible;opacity:0.2617;enable-background:new    ;"/>
	
		<radialGradient id="SVGID_8_" cx="18.645" cy="-3.7202" r="18.323" gradientTransform="matrix(0.4612 0.4581 0.4581 -0.4612 10.7081 5.9688)" gradientUnits="userSpaceOnUse">
		<stop  offset="0" style="stop-color:#FFA34D"/>
		<stop  offset="1" style="stop-color:#CC4B14"/>
	</radialGradient>
	<path style="fill-rule:evenodd;clip-rule:evenodd;fill:url(#SVGID_8_);" d="M25.792,22.27c-0.281,0.217-0.585,0.444-0.91,0.683
		c-0.649,0.521-1.051,0.878-1.202,1.072c-0.108,0.174-0.26,0.412-0.455,0.715c-0.217,0.261-0.531,0.401-0.942,0.423
		c-0.434,0.021-0.78-0.054-1.04-0.228c-0.108-0.087-0.336-0.324-0.683-0.715c-0.606-0.693-1.604-1.517-2.99-2.47l-6.37-4.453h21.613
		L25.792,22.27z"/>
	
		<linearGradient id="SVGID_9_" gradientUnits="userSpaceOnUse" x1="3.8115" y1="8.2637" x2="52.5948" y2="8.2637" gradientTransform="matrix(0.6462 0.07 -0.07 0.6462 7.2997 9.4002)">
		<stop  offset="0" style="stop-color:#FFA34D"/>
		<stop  offset="1" style="stop-color:#CC4B14"/>
	</linearGradient>
	<path style="fill-rule:evenodd;clip-rule:evenodd;fill:url(#SVGID_9_);" d="M33.592,16.42c0,0.693-1.115,1.278-3.348,1.755
		c-2.253,0.499-4.972,0.748-8.157,0.748s-5.904-0.249-8.158-0.748c-2.253-0.477-3.38-1.062-3.38-1.755s1.126-1.289,3.38-1.788
		s4.973-0.748,8.158-0.748s5.904,0.249,8.157,0.748C32.477,15.131,33.592,15.727,33.592,16.42z"/>
	
		<linearGradient id="SVGID_10_" gradientUnits="userSpaceOnUse" x1="8.915" y1="6.5059" x2="43.3892" y2="6.5059" gradientTransform="matrix(0.6462 0.0698 -0.0698 0.6462 7.3 9.4001)">
		<stop  offset="0" style="stop-color:#FFA34D"/>
		<stop  offset="1" style="stop-color:#CC4B14"/>
	</linearGradient>
	<path style="fill-rule:evenodd;clip-rule:evenodd;fill:url(#SVGID_10_);" d="M19.877,12.552c2.08,0.022,3.466,0.065,4.16,0.13
		c1.712,0.174,3.229,0.542,4.55,1.105c1.538,0.65,1.777,1.386,0.715,2.209c-1.062,0.845-2.925,1.376-5.59,1.593
		c-2.621,0.216-4.723,0.184-6.305-0.097c-1.495-0.239-2.676-0.737-3.542-1.496c-0.758-0.65-0.206-1.408,1.657-2.275
		C17.256,12.92,18.707,12.531,19.877,12.552z"/>
	
		<use xlink:href="#flash0.ai_x5F_2_x2F_Layer_10_copy_x2F__x3C_Path_x3E__x5F_64"  width="15.95" height="10.202" y="-10.202" transform="matrix(0.65 0 0 -0.65 12.7002 16.6499)" style="overflow:visible;opacity:0.3594;enable-background:new    ;"/>
	
		<use xlink:href="#flash0.ai_x5F_2_x2F_Layer_10_copy_x2F__x3C_Path_x3E__x5F_63"  width="11.949" height="8.482" x="0.001" y="-8.482" transform="matrix(0.65 0 0 -0.65 23.5 16.7002)" style="overflow:visible;opacity:0.3516;enable-background:new    ;"/>
	
		<use xlink:href="#flash0.ai_x5F_2_x2F_Layer_10_copy_x2F__x3C_Path_x3E__x5F_62"  width="44.6" height="16.39" y="-16.39" transform="matrix(0.65 0 0 -0.65 7.5498 14.5498)" style="overflow:visible;opacity:0.2109;enable-background:new    ;"/>
	<path style="fill-rule:evenodd;clip-rule:evenodd;fill:#B4CFE0;" d="M36.582,14.665c-4.593,3.423-7.67,5.655-9.23,6.695
		c-2.015,1.321-3.325,2.405-3.932,3.25c-0.325,0.477-0.748,0.715-1.268,0.715h-0.293c-0.52,0-0.942-0.238-1.267-0.715
		c-0.542-0.803-1.853-1.886-3.933-3.25c-1.56-1.04-4.637-3.271-9.23-6.695l-0.065-0.033V14.34h0.163l0.585,0.325
		c1.928,1.126,3.207,1.766,3.835,1.917c1.668,0.39,3.326,0.661,4.972,0.813c0.824,0.065,2.048,0.109,3.673,0.13l1.495,0.032
		c4.81-0.238,8.363-0.65,10.66-1.235c0.976-0.26,2.123-0.855,3.445-1.788l0.325-0.195h0.13v0.292L36.582,14.665z M20.592,17.882
		c-3.25-0.043-6.153-0.368-8.71-0.975c-0.542-0.13-1.246-0.433-2.113-0.91c3.51,2.579,5.861,4.258,7.053,5.038
		c2.037,1.344,3.38,2.459,4.03,3.347c0.347,0.499,0.726,0.693,1.138,0.586L22.152,25c0.39,0,0.736-0.206,1.04-0.618
		c0.585-0.845,1.929-1.96,4.03-3.347c1.256-0.823,3.455-2.405,6.597-4.745c-0.238,0.13-0.573,0.249-1.007,0.357
		c-2.384,0.606-5.959,1.029-10.725,1.268L20.592,17.882z"/>
	<path style="fill-rule:evenodd;clip-rule:evenodd;fill:#B4CFE0;" d="M31.739,12.13c-2.687-0.563-5.915-0.845-9.685-0.845
		c-3.792,0-7.02,0.282-9.685,0.845c-2.687,0.542-4.03,1.202-4.03,1.982c0,0.802,1.343,1.473,4.03,2.015
		c2.665,0.563,5.894,0.845,9.685,0.845c3.77,0,6.998-0.281,9.685-0.845c2.665-0.542,3.998-1.213,3.998-2.015
		C35.737,13.332,34.404,12.671,31.739,12.13z M22.022,11.025c4.074,0,7.541,0.325,10.4,0.975c2.86,0.628,4.29,1.408,4.29,2.34
		c0,0.91-1.43,1.69-4.29,2.34c-2.859,0.628-6.326,0.942-10.4,0.942c-4.073,0-7.54-0.314-10.4-0.942C8.741,16.03,7.3,15.25,7.3,14.34
		c0-0.932,1.441-1.711,4.322-2.34C14.482,11.35,17.949,11.025,22.022,11.025z"/>
	
		<linearGradient id="SVGID_11_" gradientUnits="userSpaceOnUse" x1="13.8789" y1="1.8037" x2="34.4496" y2="1.8037" gradientTransform="matrix(0.6462 0.0703 -0.0703 0.6462 7.2997 9.3999)">
		<stop  offset="0" style="stop-color:#FFA34D"/>
		<stop  offset="1" style="stop-color:#CC4B14"/>
	</linearGradient>
	<path style="fill-rule:evenodd;clip-rule:evenodd;fill:url(#SVGID_11_);" d="M20.527,14.502c-1.127,0.021-2.102-0.13-2.925-0.455
		c-0.91-0.347-1.202-0.791-0.877-1.333c0.282-0.434,1.073-0.888,2.373-1.365c1.538-0.542,2.394-0.867,2.567-0.975
		c0.412-0.26,0.618-0.499,0.618-0.715V9.644c0.276,0.546,0.536,1.147,0.78,1.804c0.151,0.369,0.769,0.671,1.852,0.91
		c0.997,0.217,1.463,0.509,1.398,0.877c-0.065,0.498-0.693,0.845-1.886,1.04C23.669,14.383,22.369,14.459,20.527,14.502z"/>
	<path style="fill-rule:evenodd;clip-rule:evenodd;fill:#FFBD5C;" d="M18.35,12c0.26-0.043,0.401,0.043,0.422,0.26
		c0.022,0.217-0.119,0.325-0.422,0.325c-0.281,0-0.401-0.098-0.357-0.292C18.036,12.119,18.155,12.021,18.35,12z"/>
	<path style="fill-rule:evenodd;clip-rule:evenodd;fill:#FFBD5C;" d="M17.862,13.072c0.281,0.043,0.401,0.173,0.357,0.39
		c-0.022,0.238-0.173,0.314-0.455,0.228c-0.238-0.065-0.325-0.184-0.26-0.358C17.591,13.159,17.71,13.072,17.862,13.072z"/>
	<path style="fill-rule:evenodd;clip-rule:evenodd;fill:#FFBD5C;" d="M19.227,12.813c0.39,0.021,0.509,0.151,0.357,0.39
		c-0.151,0.238-0.325,0.325-0.52,0.26c-0.152-0.043-0.206-0.163-0.163-0.357C18.967,12.91,19.076,12.813,19.227,12.813z"/>
	<path style="fill-rule:evenodd;clip-rule:evenodd;fill:#FFBD5C;" d="M20.365,13.365c0.303,0.022,0.433,0.152,0.39,0.39
		c-0.065,0.217-0.271,0.314-0.618,0.292c-0.325-0.021-0.433-0.152-0.325-0.39C19.899,13.419,20.083,13.321,20.365,13.365z"/>
	<path style="fill-rule:evenodd;clip-rule:evenodd;fill:#FFBD5C;" d="M19.942,12c0.542,0.26,0.379,0.39-0.488,0.39
		c-0.13-0.065-0.119-0.163,0.033-0.293C19.617,11.946,19.769,11.913,19.942,12z"/>
	<path style="fill-rule:evenodd;clip-rule:evenodd;fill:#FFBD5C;" d="M15.815,13.95c0.346,0,0.455,0.119,0.325,0.357
		c-0.13,0.217-0.314,0.292-0.552,0.228c-0.217-0.043-0.293-0.151-0.228-0.325C15.425,14.037,15.577,13.95,15.815,13.95z"/>
	<path style="fill-rule:evenodd;clip-rule:evenodd;fill:#FFBD5C;" d="M16.53,15.022c0.542,0.217,0.715,0.444,0.52,0.683
		c-0.195,0.216-0.444,0.249-0.748,0.097c-0.238-0.13-0.303-0.314-0.195-0.552C16.194,15.033,16.334,14.957,16.53,15.022z"/>
	<path style="fill-rule:evenodd;clip-rule:evenodd;fill:#FFBD5C;" d="M14.742,14.99c0.282-0.065,0.379,0.065,0.292,0.39
		c-0.108,0.347-0.249,0.433-0.422,0.26c-0.152-0.152-0.206-0.293-0.163-0.423C14.471,15.109,14.569,15.033,14.742,14.99z"/>
	<path style="fill-rule:evenodd;clip-rule:evenodd;fill:#FFBD5C;" d="M12.63,15.152c0.325-0.021,0.477,0.032,0.455,0.163
		c-0.021,0.152-0.173,0.26-0.455,0.325c-0.26,0.043-0.379-0.022-0.358-0.195C12.294,15.271,12.413,15.174,12.63,15.152z"/>
	<path style="fill-rule:evenodd;clip-rule:evenodd;fill:#FFBD5C;" d="M17.602,14.372c0.52,0.065,0.737,0.228,0.65,0.488
		c-0.109,0.238-0.325,0.314-0.65,0.228C17.32,15,17.18,14.849,17.18,14.632C17.18,14.438,17.32,14.351,17.602,14.372z"/>
	<path style="fill-rule:evenodd;clip-rule:evenodd;fill:#FFBD5C;" d="M18.48,15.412c0.368,0,0.498,0.119,0.39,0.357
		c-0.13,0.217-0.303,0.293-0.52,0.228c-0.195-0.043-0.281-0.151-0.26-0.325S18.242,15.412,18.48,15.412z"/>
	<path style="fill-rule:evenodd;clip-rule:evenodd;fill:#FFBD5C;" d="M20.527,11.252c0.26-0.152,0.357-0.108,0.292,0.13
		c-0.064,0.238-0.216,0.357-0.455,0.357c-0.217,0-0.282-0.065-0.195-0.195C20.213,11.458,20.332,11.361,20.527,11.252z"/>
	<path style="fill-rule:evenodd;clip-rule:evenodd;fill:#FFBD5C;" d="M15.75,15.737c0.152,0.087,0.173,0.195,0.065,0.325
		c-0.109,0.151-0.238,0.184-0.39,0.097c-0.152-0.086-0.184-0.206-0.098-0.357C15.414,15.629,15.555,15.607,15.75,15.737z"/>
	<path style="fill-rule:evenodd;clip-rule:evenodd;fill:#CC4B14;" d="M23.614,12.487c0.304,0.152,0.412,0.292,0.325,0.422
		c-0.108,0.13-0.292,0.13-0.553,0c-0.26-0.108-0.357-0.238-0.292-0.39C23.16,12.347,23.333,12.335,23.614,12.487z"/>
	<path style="fill-rule:evenodd;clip-rule:evenodd;fill:#CC4B14;" d="M22.737,11.285c0.195,0.173,0.238,0.39,0.13,0.65
		c-0.108,0.26-0.26,0.282-0.455,0.065c-0.173-0.195-0.206-0.401-0.098-0.618C22.423,11.188,22.564,11.155,22.737,11.285z"/>
	<path style="fill-rule:evenodd;clip-rule:evenodd;fill:#CC4B14;" d="M25.239,12.715c0.412,0.087,0.574,0.206,0.487,0.357
		c-0.107,0.13-0.292,0.152-0.552,0.065c-0.195-0.086-0.282-0.184-0.261-0.292C24.958,12.715,25.066,12.671,25.239,12.715z"/>
	<path style="fill-rule:evenodd;clip-rule:evenodd;fill:#CC4B14;" d="M24.427,13.235c0.304,0.021,0.434,0.119,0.391,0.292
		c-0.065,0.173-0.217,0.26-0.455,0.26c-0.217,0-0.314-0.098-0.293-0.293C24.091,13.3,24.21,13.213,24.427,13.235z"/>
	<path style="fill-rule:evenodd;clip-rule:evenodd;fill:#CC4B14;" d="M28.425,14.177c0.216,0.173,0.205,0.314-0.032,0.422
		c-0.239,0.108-0.423,0.087-0.553-0.065c-0.13-0.151-0.108-0.292,0.064-0.422C28.057,13.982,28.229,14.004,28.425,14.177z"/>
	<path style="fill-rule:evenodd;clip-rule:evenodd;fill:#CC4B14;" d="M26.8,13.527c0.347-0.021,0.498,0.065,0.455,0.26
		c-0.065,0.216-0.217,0.303-0.455,0.26c-0.195-0.021-0.282-0.108-0.261-0.26C26.562,13.614,26.647,13.527,26.8,13.527z"/>
	<path style="fill-rule:evenodd;clip-rule:evenodd;fill:#CC4B14;" d="M26.962,14.275c0.412,0.152,0.531,0.325,0.357,0.52
		c-0.173,0.195-0.4,0.26-0.683,0.195c-0.26-0.065-0.335-0.228-0.227-0.487C26.518,14.264,26.702,14.188,26.962,14.275z"/>
	<path style="fill-rule:evenodd;clip-rule:evenodd;fill:#CC4B14;" d="M28.555,15.087c0.325,0.108,0.411,0.303,0.26,0.585
		c-0.174,0.26-0.336,0.368-0.487,0.325c-0.13-0.021-0.174-0.195-0.13-0.52C28.24,15.152,28.359,15.022,28.555,15.087z"/>
	<path style="fill-rule:evenodd;clip-rule:evenodd;fill:#CC4B14;" d="M29.367,14.438c0.238,0.108,0.314,0.26,0.228,0.455
		c-0.108,0.195-0.228,0.26-0.357,0.195c-0.108-0.065-0.152-0.206-0.13-0.422C29.107,14.448,29.194,14.372,29.367,14.438z"/>
	<path style="fill-rule:evenodd;clip-rule:evenodd;fill:#CC4B14;" d="M31.252,15.185c0.281,0.087,0.369,0.195,0.26,0.325
		c-0.108,0.13-0.249,0.152-0.423,0.065c-0.151-0.086-0.205-0.184-0.162-0.292C30.992,15.174,31.101,15.142,31.252,15.185z"/>
	<path style="fill-rule:evenodd;clip-rule:evenodd;fill:#CC4B14;" d="M30.212,15.64c0.347,0.021,0.477,0.108,0.39,0.26
		c-0.086,0.173-0.249,0.26-0.487,0.26c-0.194,0-0.271-0.086-0.228-0.26C29.931,15.705,30.039,15.618,30.212,15.64z"/>
	<path style="fill-rule:evenodd;clip-rule:evenodd;fill:#CC4B14;" d="M26.604,15.737c0.26,0,0.357,0.098,0.293,0.292
		c-0.087,0.195-0.282,0.282-0.585,0.26c-0.282-0.021-0.357-0.12-0.228-0.293C26.192,15.824,26.366,15.737,26.604,15.737z"/>
	<path style="fill-rule:evenodd;clip-rule:evenodd;fill:#CC4B14;" d="M24.492,14.6c0.174,0.044,0.238,0.13,0.195,0.26
		c-0.044,0.13-0.152,0.173-0.325,0.13c-0.152-0.065-0.195-0.151-0.13-0.26C24.319,14.622,24.405,14.578,24.492,14.6z"/>
	<path style="fill-rule:evenodd;clip-rule:evenodd;fill:#CC4B14;" d="M23.289,13.397c0.218,0.151,0.261,0.282,0.131,0.39
		c-0.131,0.108-0.282,0.086-0.456-0.065c-0.152-0.13-0.163-0.238-0.032-0.325C23.041,13.311,23.16,13.311,23.289,13.397z"/>
	
		<linearGradient id="SVGID_12_" gradientUnits="userSpaceOnUse" x1="14.4834" y1="-42.7246" x2="17.3796" y2="-42.7246" gradientTransform="matrix(0.0785 0.6452 -0.6452 0.0785 7.2996 9.3997)">
		<stop  offset="0" style="stop-color:#524218"/>
		<stop  offset="1" style="stop-color:#805D15"/>
	</linearGradient>
	<path style="fill-rule:evenodd;clip-rule:evenodd;fill:url(#SVGID_12_);" d="M36.225,15.185l-0.325,0.456
		c-0.173,0.368-0.173,0.682,0,0.942c0.261,0.412,0.661,0.499,1.202,0.26c-0.151,0.13-0.347,0.228-0.584,0.292
		c-0.455,0.108-0.846-0.011-1.17-0.357c-0.196-0.238-0.186-0.596,0.032-1.072l0.39-0.683L36.225,15.185z"/>
	
		<linearGradient id="SVGID_13_" gradientUnits="userSpaceOnUse" x1="15.6968" y1="-42.7373" x2="20.0287" y2="-42.7373" gradientTransform="matrix(0.0788 0.6452 -0.6452 0.0788 7.3001 9.4005)">
		<stop  offset="0" style="stop-color:#705A21"/>
		<stop  offset="1" style="stop-color:#A1741B"/>
	</linearGradient>
	<path style="fill-rule:evenodd;clip-rule:evenodd;fill:url(#SVGID_13_);" d="M36.289,15.9l-0.422,0.65
		c-0.238,0.499-0.217,0.943,0.064,1.333c0.304,0.39,0.705,0.596,1.203,0.618c0.26,0,0.487-0.033,0.683-0.098
		c-0.218,0.173-0.498,0.292-0.845,0.357c-0.673,0.108-1.29-0.119-1.854-0.683c-0.347-0.346-0.379-0.856-0.097-1.527l0.552-0.91
		L36.289,15.9z"/>
	
		<linearGradient id="SVGID_14_" gradientUnits="userSpaceOnUse" x1="15.606" y1="-41.7222" x2="19.3829" y2="-41.7222" gradientTransform="matrix(0.0774 0.6454 -0.6454 0.0774 7.3002 9.4001)">
		<stop  offset="0" style="stop-color:#523C1A"/>
		<stop  offset="1" style="stop-color:#A1741B"/>
	</linearGradient>
	<path style="fill-rule:evenodd;clip-rule:evenodd;fill:url(#SVGID_14_);" d="M35.997,16.03c-0.108,0.108-0.217,0.239-0.325,0.39
		c-0.195,0.303-0.26,0.585-0.195,0.845c0.108,0.434,0.336,0.78,0.684,1.041c-0.325-0.109-0.542-0.304-0.65-0.585l-0.195-0.845
		l-0.13,0.325c-0.065,0.26,0.011,0.499,0.228,0.715c0.32,0.362,0.569,0.558,0.748,0.585c-0.521-0.068-0.879-0.338-1.073-0.813
		c-0.151-0.304-0.162-0.683-0.032-1.138c0.086-0.347,0.195-0.606,0.325-0.78C35.51,15.64,35.716,15.727,35.997,16.03z"/>
	
		<linearGradient id="SVGID_15_" gradientUnits="userSpaceOnUse" x1="44.29" y1="14.8477" x2="45.465" y2="9.6977" gradientTransform="matrix(0.65 0 0 0.65 7.3001 9.3997)">
		<stop  offset="0" style="stop-color:#FFC859"/>
		<stop  offset="1" style="stop-color:#A1741B"/>
	</linearGradient>
	<path style="fill-rule:evenodd;clip-rule:evenodd;fill:url(#SVGID_15_);" d="M35.672,15.51l-0.39,0.813
		c-0.26,0.607-0.325,1.062-0.195,1.365c0.304,0.867,0.942,1.191,1.918,0.975c0.623-0.121,1.127-0.38,1.511-0.78
		c-0.206,0.225-0.46,0.441-0.764,0.65c-0.693,0.455-1.354,0.639-1.982,0.553c-0.672-0.087-1.105-0.423-1.3-1.008
		c-0.152-0.455-0.142-0.953,0.032-1.495c0.108-0.368,0.292-0.693,0.553-0.975c0.13-0.151,0.249-0.26,0.357-0.325L35.672,15.51z"/>
	
		<linearGradient id="SVGID_16_" gradientUnits="userSpaceOnUse" x1="10.1323" y1="-37.9849" x2="14.6658" y2="-37.9849" gradientTransform="matrix(0.0789 0.6452 -0.6452 0.0789 7.3 9.4)">
		<stop  offset="0" style="stop-color:#8C7B2A"/>
		<stop  offset="1" style="stop-color:#A1741B"/>
	</linearGradient>
	<path style="fill-rule:evenodd;clip-rule:evenodd;fill:url(#SVGID_16_);" d="M34.535,14.6c-0.455,0.499-0.856,0.813-1.203,0.943
		c-0.217,0.086-0.433,0.151-0.65,0.195L32.39,15.77c-0.412,0.195-0.758,0.022-1.04-0.52c-0.173-0.325-0.304-0.878-0.39-1.658
		l-0.065-1.073l0.325,1.43c0.368,0.91,0.953,1.268,1.755,1.073c0.65-0.152,1.029-0.423,1.138-0.813l-0.065-0.553L34.535,14.6z"/>
	
		<linearGradient id="SVGID_17_" gradientUnits="userSpaceOnUse" x1="12.3281" y1="-37.749" x2="14.722" y2="-37.749" gradientTransform="matrix(0.0815 0.6449 -0.6449 0.0815 7.3 9.4001)">
		<stop  offset="0" style="stop-color:#706323"/>
		<stop  offset="1" style="stop-color:#A1741B"/>
	</linearGradient>
	<path style="fill-rule:evenodd;clip-rule:evenodd;fill:url(#SVGID_17_);" d="M33.787,14.697c0.347-0.108,0.434-0.043,0.26,0.195
		c-0.151,0.238-0.39,0.455-0.715,0.65c-0.39,0.216-0.758,0.292-1.105,0.227c-0.303-0.043-0.584-0.325-0.845-0.845l-0.13-0.357
		c0.157,0.231,0.417,0.48,0.78,0.748c0.368,0.281,0.736,0.314,1.104,0.097l-0.39-0.032c-0.151,0-0.379-0.086-0.683-0.26l-0.39-0.26
		l0.26,0.163c0.195,0.13,0.4,0.206,0.617,0.228h0.098C33.039,15.271,33.419,15.087,33.787,14.697z"/>
	
		<linearGradient id="SVGID_18_" gradientUnits="userSpaceOnUse" x1="10.0376" y1="-38.124" x2="14.6455" y2="-38.124" gradientTransform="matrix(0.0776 0.6453 -0.6453 0.0776 7.3 9.4001)">
		<stop  offset="0" style="stop-color:#FFC859"/>
		<stop  offset="1" style="stop-color:#A1741B"/>
	</linearGradient>
	<path style="fill-rule:evenodd;clip-rule:evenodd;fill:url(#SVGID_18_);" d="M34.404,14.145l0.325,0.13l0.228,0.163
		c0.108,0.173,0.055,0.412-0.163,0.715c-0.173,0.26-0.79,0.466-1.852,0.617c-1.063,0.152-1.668,0.109-1.82-0.129
		c-0.325-0.542-0.455-1.224-0.39-2.048l0.162-1.073v0.423c0.021,0.39,0.087,0.791,0.194,1.202c0.131,0.499,0.336,0.889,0.618,1.17
		c0.304,0.281,0.639,0.401,1.007,0.357C33.213,15.629,33.776,15.12,34.404,14.145z"/>
	
		<radialGradient id="SVGID_19_" cx="0.0396" cy="-40.5737" r="2.4603" gradientTransform="matrix(-0.0594 0.6473 0.6473 0.0594 59.824 14.224)" gradientUnits="userSpaceOnUse">
		<stop  offset="0" style="stop-color:#FFA34D"/>
		<stop  offset="1" style="stop-color:#CC4B14"/>
	</radialGradient>
	<path style="fill-rule:evenodd;clip-rule:evenodd;fill:url(#SVGID_19_);" d="M34.112,11.188c0.368,0.325,0.487,0.769,0.357,1.332
		c-0.108,0.521-0.304,0.813-0.585,0.878c-0.997,0.217-1.463-0.098-1.397-0.942c0.021-0.542,0.249-0.943,0.683-1.203
		C33.56,11.036,33.874,11.014,34.112,11.188z"/>
	
		<radialGradient id="SVGID_20_" cx="3.6572" cy="-47.082" r="2.3222" gradientTransform="matrix(-0.0595 0.6473 0.6473 0.0595 68.2492 15.0009)" gradientUnits="userSpaceOnUse">
		<stop  offset="0" style="stop-color:#FFA34D"/>
		<stop  offset="1" style="stop-color:#CC4B14"/>
	</radialGradient>
	<path style="fill-rule:evenodd;clip-rule:evenodd;fill:url(#SVGID_20_);" d="M38.305,14.112c0.195,0.065,0.293,0.282,0.293,0.65
		c-0.022,0.39-0.163,0.715-0.423,0.975c-0.693,0.671-1.225,0.618-1.593-0.163c-0.217-0.433-0.108-0.834,0.325-1.203
		C37.341,14.004,37.807,13.917,38.305,14.112z"/>
	
		<radialGradient id="SVGID_21_" cx="-1.4287" cy="-47.2705" r="2.2973" gradientTransform="matrix(-0.0601 0.6472 0.6472 0.0601 68.4872 15.0842)" gradientUnits="userSpaceOnUse">
		<stop  offset="0" style="stop-color:#FFA34D"/>
		<stop  offset="1" style="stop-color:#CC4B14"/>
	</radialGradient>
	<path style="fill-rule:evenodd;clip-rule:evenodd;fill:url(#SVGID_21_);" d="M37.752,10.57c0.281-0.065,0.606,0.076,0.975,0.423
		c0.412,0.39,0.498,0.823,0.261,1.3c-0.238,0.477-0.563,0.661-0.976,0.552c-0.324-0.086-0.617-0.303-0.877-0.65
		c-0.195-0.282-0.217-0.606-0.065-0.975C37.199,10.852,37.427,10.635,37.752,10.57z"/>
	
		<radialGradient id="SVGID_22_" cx="-2.354" cy="-42.8154" r="2.8496" gradientTransform="matrix(-0.0599 0.6472 0.6472 0.0599 62.723 14.5274)" gradientUnits="userSpaceOnUse">
		<stop  offset="0" style="stop-color:#FFA34D"/>
		<stop  offset="1" style="stop-color:#CC4B14"/>
	</radialGradient>
	<path style="fill-rule:evenodd;clip-rule:evenodd;fill:url(#SVGID_22_);" d="M36.419,10.57c0.304,0.499,0.185,0.942-0.356,1.333
		c-0.542,0.368-1.063,0.422-1.561,0.163c-0.455-0.217-0.683-0.585-0.683-1.105c0.021-0.499,0.25-0.878,0.683-1.138
		C35.261,9.389,35.899,9.638,36.419,10.57z"/>
	
		<radialGradient id="SVGID_23_" cx="-2.9453" cy="-45.4204" r="2.4728" gradientTransform="matrix(-0.0591 0.6473 0.6473 0.0591 66.1008 14.7727)" gradientUnits="userSpaceOnUse">
		<stop  offset="0" style="stop-color:#FFA34D"/>
		<stop  offset="1" style="stop-color:#CC4B14"/>
	</radialGradient>
	<path style="fill-rule:evenodd;clip-rule:evenodd;fill:url(#SVGID_23_);" d="M35.77,10.927c-0.13-0.282-0.043-0.617,0.26-1.007
		c0.325-0.434,0.736-0.552,1.235-0.357c0.563,0.195,0.845,0.52,0.845,0.975c0,0.368-0.151,0.693-0.455,0.975
		c-0.238,0.26-0.542,0.357-0.91,0.293C36.333,11.74,36.008,11.447,35.77,10.927z"/>
	
		<radialGradient id="SVGID_24_" cx="0.9976" cy="-47.1382" r="2.7364" gradientTransform="matrix(-0.0594 0.6473 0.6473 0.0594 68.3219 14.9984)" gradientUnits="userSpaceOnUse">
		<stop  offset="0" style="stop-color:#FFA34D"/>
		<stop  offset="1" style="stop-color:#CC4B14"/>
	</radialGradient>
	<path style="fill-rule:evenodd;clip-rule:evenodd;fill:url(#SVGID_24_);" d="M38.305,12.228c0.347,0.086,0.574,0.347,0.683,0.78
		c0.108,0.412,0.043,0.769-0.195,1.073c-0.606,0.736-1.235,0.823-1.885,0.26c-0.39-0.347-0.477-0.823-0.26-1.43
		C36.907,12.26,37.46,12.032,38.305,12.228z"/>
	
		<radialGradient id="SVGID_25_" cx="1.6523" cy="-41.4697" r="2.7613" gradientTransform="matrix(-0.0588 0.6473 0.6473 0.0588 60.989 14.2811)" gradientUnits="userSpaceOnUse">
		<stop  offset="0" style="stop-color:#FFA34D"/>
		<stop  offset="1" style="stop-color:#CC4B14"/>
	</radialGradient>
	<path style="fill-rule:evenodd;clip-rule:evenodd;fill:url(#SVGID_25_);" d="M34.827,12.422c0.39,0.542,0.563,0.953,0.521,1.235
		c-0.044,0.26-0.314,0.542-0.813,0.845c-0.478,0.26-0.91,0.249-1.301-0.033c-0.368-0.282-0.509-0.661-0.422-1.138
		c0.087-0.541,0.379-0.92,0.877-1.137C34.166,11.979,34.546,12.054,34.827,12.422z"/>
	
		<radialGradient id="SVGID_26_" cx="3.9961" cy="-45.6064" r="2.4603" gradientTransform="matrix(-0.0594 0.6473 0.6473 0.0594 66.3391 14.8223)" gradientUnits="userSpaceOnUse">
		<stop  offset="0" style="stop-color:#FFA34D"/>
		<stop  offset="1" style="stop-color:#CC4B14"/>
	</radialGradient>
	<path style="fill-rule:evenodd;clip-rule:evenodd;fill:url(#SVGID_26_);" d="M37.297,14.145c0.412,0.542,0.434,1.062,0.065,1.561
		c-0.368,0.498-0.834,0.671-1.398,0.52c-0.454-0.13-0.639-0.412-0.552-0.845c0.043-0.195,0.206-0.52,0.487-0.975
		c0.151-0.238,0.379-0.39,0.683-0.455C36.907,13.885,37.146,13.95,37.297,14.145z"/>
	
		<radialGradient id="SVGID_27_" cx="3.1006" cy="-43.0186" r="2.8496" gradientTransform="matrix(-0.0599 0.6472 0.6472 0.0599 62.986 14.5517)" gradientUnits="userSpaceOnUse">
		<stop  offset="0" style="stop-color:#FFA34D"/>
		<stop  offset="1" style="stop-color:#CC4B14"/>
	</radialGradient>
	<path style="fill-rule:evenodd;clip-rule:evenodd;fill:url(#SVGID_27_);" d="M36.257,14.34c-0.021,1.127-0.433,1.646-1.234,1.56
		c-0.759-0.108-1.203-0.477-1.333-1.105c-0.087-0.477,0.044-0.889,0.391-1.235c0.303-0.325,0.628-0.455,0.975-0.39
		C35.878,13.387,36.278,13.776,36.257,14.34z"/>
	
		<radialGradient id="SVGID_28_" cx="-1.9561" cy="-45.2637" r="2.561" gradientTransform="matrix(-0.0603 0.6472 0.6472 0.0603 65.8888 14.8572)" gradientUnits="userSpaceOnUse">
		<stop  offset="0" style="stop-color:#FFA34D"/>
		<stop  offset="1" style="stop-color:#CC4B14"/>
	</radialGradient>
	<path style="fill-rule:evenodd;clip-rule:evenodd;fill:url(#SVGID_28_);" d="M37.85,10.993c0.13,0.26,0.173,0.509,0.13,0.747
		c-0.021,0.239-0.119,0.434-0.292,0.585c-0.174,0.152-0.336,0.173-0.488,0.065c-0.13-0.087-0.347-0.163-0.649-0.228l-0.455-0.065
		c-0.021-0.043-0.163-0.216-0.423-0.52c-0.173-0.217-0.249-0.39-0.228-0.521c0.043-0.238,0.195-0.444,0.455-0.617
		c0.325-0.217,0.693-0.26,1.105-0.13C37.416,10.418,37.698,10.646,37.85,10.993z"/>
	
		<radialGradient id="SVGID_29_" cx="-0.271" cy="-42.5518" r="2.7489" gradientTransform="matrix(-0.0591 0.6473 0.6473 0.0591 62.3869 14.4308)" gradientUnits="userSpaceOnUse">
		<stop  offset="0" style="stop-color:#FFA34D"/>
		<stop  offset="1" style="stop-color:#CC4B14"/>
	</radialGradient>
	<path style="fill-rule:evenodd;clip-rule:evenodd;fill:url(#SVGID_29_);" d="M36.225,12c0.021,0.13-0.075,0.347-0.293,0.65
		c-0.26,0.325-0.411,0.52-0.455,0.585c-0.086,0.13-0.162,0.206-0.227,0.228c-0.109,0.065-0.293,0.097-0.553,0.097
		c-0.348,0-0.553-0.032-0.617-0.097c-0.131-0.108-0.229-0.412-0.293-0.91c-0.064-0.455,0.064-0.856,0.39-1.202
		c0.282-0.325,0.563-0.477,0.846-0.456c0.26,0.022,0.509,0.141,0.747,0.358C36.029,11.469,36.182,11.718,36.225,12z"/>
	
		<radialGradient id="SVGID_30_" cx="1.1997" cy="-45.3447" r="2.4852" gradientTransform="matrix(-0.0588 0.6473 0.6473 0.0588 66.0048 14.7367)" gradientUnits="userSpaceOnUse">
		<stop  offset="0" style="stop-color:#FFA34D"/>
		<stop  offset="1" style="stop-color:#CC4B14"/>
	</radialGradient>
	<path style="fill-rule:evenodd;clip-rule:evenodd;fill:url(#SVGID_30_);" d="M36.127,12.195c0.151-0.195,0.38-0.238,0.683-0.13
		c0.455,0.13,0.736,0.325,0.845,0.585c0.217,0.433,0.044,0.954-0.52,1.56c-0.238,0.238-0.423,0.379-0.553,0.422
		c-0.151,0.043-0.304,0.022-0.455-0.065c-0.152-0.086-0.314-0.26-0.487-0.52c-0.152-0.216-0.238-0.39-0.26-0.52
		c-0.021-0.108,0.086-0.347,0.325-0.715C35.835,12.639,35.975,12.433,36.127,12.195z"/>
	
		<use xlink:href="#flash0.ai_x5F_2_x2F_Layer_10_copy_x2F__x3C_Path_x3E__x5F_14"  width="1.478" height="1.236" x="-0.005" y="-1.213" transform="matrix(0.65 0 0 -0.65 34.4004 11.2002)" style="overflow:visible;opacity:0.2813;enable-background:new    ;"/>
	
		<use xlink:href="#flash0.ai_x5F_2_x2F_Layer_10_copy_x2F__x3C_Path_x3E__x5F_13"  width="1.576" height="0.983" x="0.041" y="-0.983" transform="matrix(0.65 0 0 -0.65 34.5 9.7998)" style="overflow:visible;opacity:0.2813;enable-background:new    ;"/>
	
		<use xlink:href="#flash0.ai_x5F_2_x2F_Layer_10_copy_x2F__x3C_Path_x3E__x5F_12"  width="1.255" height="1.256" x="-0.006" y="-1.284" transform="matrix(0.65 0 0 -0.65 32.8496 11.3501)" style="overflow:visible;opacity:0.2813;enable-background:new    ;"/>
	
		<use xlink:href="#flash0.ai_x5F_2_x2F_Layer_10_copy_x2F__x3C_Path_x3E__x5F_11"  width="1.561" height="0.6" x="-0.041" y="-0.617" transform="matrix(0.65 0 0 -0.65 36.5 9.6001)" style="overflow:visible;opacity:0.2813;enable-background:new    ;"/>
	
		<use xlink:href="#flash0.ai_x5F_2_x2F_Layer_10_copy_x2F__x3C_Path_x3E__x5F_10"  width="1.669" height="0.906" x="-0.032" y="-0.9" transform="matrix(0.65 0 0 -0.65 36.0996 10.4502)" style="overflow:visible;opacity:0.2813;enable-background:new    ;"/>
	
		<use xlink:href="#flash0.ai_x5F_2_x2F_Layer_10_copy_x2F__x3C_Path_x3E__x5F_9"  width="1.308" height="1.398" x="0.005" y="-1.392" transform="matrix(0.65 0 0 -0.65 36.2002 12.5)" style="overflow:visible;opacity:0.2813;enable-background:new    ;"/>
	
		<use xlink:href="#flash0.ai_x5F_2_x2F_Layer_10_copy_x2F__x3C_Path_x3E__x5F_8"  width="1.011" height="1.274" x="-0.008" y="-1.269" transform="matrix(0.65 0 0 -0.65 33 12.7002)" style="overflow:visible;opacity:0.2813;enable-background:new    ;"/>
	
		<use xlink:href="#flash0.ai_x5F_2_x2F_Layer_10_copy_x2F__x3C_Path_x3E__x5F_7"  width="1.461" height="1.545" x="0.012" y="-1.545" transform="matrix(0.65 0 0 -0.65 34.1504 13.8999)" style="overflow:visible;opacity:0.2813;enable-background:new    ;"/>
	
		<use xlink:href="#flash0.ai_x5F_2_x2F_Layer_10_copy_x2F__x3C_Path_x3E__x5F_6"  width="0.704" height="0.913" x="-0.013" y="-0.906" transform="matrix(0.65 0 0 -0.65 38.2998 11.1001)" style="overflow:visible;opacity:0.2813;enable-background:new    ;"/>
	
		<use xlink:href="#flash0.ai_x5F_2_x2F_Layer_10_copy_x2F__x3C_Path_x3E__x5F_5"  width="0.762" height="1.408" x="0.017" y="-1.398" transform="matrix(0.65 0 0 -0.65 38.25 12.6001)" style="overflow:visible;opacity:0.2813;enable-background:new    ;"/>
	
		<use xlink:href="#flash0.ai_x5F_2_x2F_Layer_10_copy_x2F__x3C_Path_x3E__x5F_4"  width="0.655" height="1.554" x="-0.03" y="-1.569" transform="matrix(0.65 0 0 -0.65 36.3496 14.7998)" style="overflow:visible;opacity:0.2813;enable-background:new    ;"/>
	<path style="fill-rule:evenodd;clip-rule:evenodd;fill:#DFF7F7;" d="M22.022,31.792c0,3.271-0.054,4.907-0.163,4.907
		c-0.108,0-0.162-1.636-0.162-4.907c0-3.293,0.054-4.94,0.162-4.94C21.968,26.852,22.022,28.499,22.022,31.792z"/>
	
		<use xlink:href="#flash0.ai_x5F_2_x2F_Layer_10_copy_x2F__x3C_Path_x3E__x5F_2"  width="0.25" height="17.4" y="-17.4" transform="matrix(0.65 0 0 -0.65 22.3501 26.25)" style="overflow:visible;opacity:0.2891;enable-background:new    ;"/>
	<path style="fill-rule:evenodd;clip-rule:evenodd;fill:#B4CFE0;" d="M16.107,39.202c-0.476,0.521-0.714,1.04-0.714,1.56
		c0,0.066,0,0.125,0,0.18c-0.014-0.098-0.024-0.2-0.033-0.31c-0.043-0.606,0.097-1.072,0.422-1.396
		c0.628-0.607,1.701-1.116,3.217-1.528c0.78-0.195,1.484-0.336,2.113-0.422c0.065,0.151,0.065,0.227,0,0.227
		c-0.412-0.064-1.224,0.087-2.438,0.455C17.375,38.357,16.519,38.769,16.107,39.202z"/>
	<path style="fill-rule:evenodd;clip-rule:evenodd;fill:#B4CFE0;" d="M22.867,37.479l-0.032-0.194l0.292-0.033
		c0.325,0.022,0.867,0.13,1.625,0.325c1.54,0.409,2.58,0.87,3.12,1.381c-0.237-0.162-0.736-0.395-1.495-0.698
		c-0.672-0.26-1.463-0.466-2.372-0.617L22.867,37.479z"/>
</g>
</svg>
