<?xml version="1.0" encoding="iso-8859-1"?>
<!-- Generator: Adobe Illustrator 15.1.0, SVG Export Plug-In . SVG Version: 6.00 Build 0)  -->
<!DOCTYPE svg PUBLIC "-//W3C//DTD SVG 1.1//EN" "http://www.w3.org/Graphics/SVG/1.1/DTD/svg11.dtd">
<svg version="1.1" id="flash0.ai" xmlns="http://www.w3.org/2000/svg" xmlns:xlink="http://www.w3.org/1999/xlink" x="0px" y="0px"
	 width="39.95px" height="42.9px" viewBox="0 0 39.95 42.9" style="enable-background:new 0 0 39.95 42.9;" xml:space="preserve">
<symbol  id="crab" viewBox="0 -31 18.08 31.02">
	<g id="Layer_1_6_">
		<g>
			<g>
				
					<linearGradient id="SVGID_1_" gradientUnits="userSpaceOnUse" x1="0.2002" y1="-34.6997" x2="22.6252" y2="-34.6997" gradientTransform="matrix(0.8 0 0 0.8 0 0)">
					<stop  offset="0" style="stop-color:#FFFFFF"/>
					<stop  offset="0.8431" style="stop-color:#808080"/>
					<stop  offset="1" style="stop-color:#BDBDBD"/>
				</linearGradient>
				<path style="fill-rule:evenodd;clip-rule:evenodd;fill:url(#SVGID_1_);" d="M18.08-27.76c0-0.907-0.867-1.667-2.6-2.28
					C13.72-30.68,11.6-31,9.12-31c-2.48,0-4.586,0.32-6.32,0.96c-1.76,0.613-2.64,1.373-2.64,2.28s0.88,1.667,2.64,2.28
					c1.733,0.641,3.84,0.96,6.32,0.96c2.48,0,4.6-0.32,6.36-0.96C17.213-26.093,18.08-26.853,18.08-27.76z"/>
				
					<linearGradient id="SVGID_2_" gradientUnits="userSpaceOnUse" x1="1.7373" y1="-35.9253" x2="8.8623" y2="-35.9253" gradientTransform="matrix(0.8 0 0 0.8 0 0)">
					<stop  offset="0" style="stop-color:#FFFFFF"/>
					<stop  offset="1" style="stop-color:#FFFFFF"/>
				</linearGradient>
				<path style="fill-rule:evenodd;clip-rule:evenodd;fill:url(#SVGID_2_);" d="M1.4-29.24v2.48h5.68v-3.96
					C4.573-30.506,2.68-30.013,1.4-29.24z"/>
				
					<use xlink:href="#flash0.ai_x5F_7_x2F_Layer_37_copy_x2F__x3C_Path_x3E__x5F_1"  width="20.925" height="6.26" y="-6.26" transform="matrix(0.8 0 0 0.8 0.9502 -25.2002)" style="overflow:visible;opacity:0.5195;enable-background:new    ;"/>
				
					<linearGradient id="SVGID_3_" gradientUnits="userSpaceOnUse" x1="0.7002" y1="-20.0254" x2="22.1002" y2="-20.0254" gradientTransform="matrix(0.8 0 0 0.8 0 0)">
					<stop  offset="0" style="stop-color:#53BEFC"/>
					<stop  offset="1" style="stop-color:#085682"/>
				</linearGradient>
				<path style="fill-rule:evenodd;clip-rule:evenodd;fill:url(#SVGID_3_);" d="M17.12-3.36c0.4-0.266,0.587-0.667,0.56-1.2v-22.52
					c0-0.773-0.84-1.44-2.52-2c-1.654-0.533-3.667-0.8-6.041-0.8c-2.373,0-4.4,0.267-6.08,0.8c-1.68,0.56-2.52,1.227-2.52,2v22.52
					c-0.026,0.533,0.16,0.934,0.56,1.2c0.533,0.347,0.866,0.747,1,1.2h14.04l0.2-0.4C16.533-2.88,16.8-3.146,17.12-3.36z"/>
				<g>
					<g>
						<g>
							<path style="fill-rule:evenodd;clip-rule:evenodd;fill:#0A6394;" d="M1.52-7.48c-0.374,0-0.68-0.453-0.92-1.36V-6
								c0.24,0.293,0.546,0.413,0.92,0.36c0.267,0,0.52-0.107,0.76-0.32C2.573-6.253,2.72-6.653,2.72-7.16C2.72-7.72,2.6-8,2.36-8
								C2.307-8,2.2-7.92,2.04-7.76C1.88-7.6,1.707-7.507,1.52-7.48z"/>
							<path style="fill-rule:evenodd;clip-rule:evenodd;fill:#0A6394;" d="M1.88-15.12L0.76-14.76l-0.2,0.16v2.48
								c0.187-0.773,0.507-1.16,0.96-1.16c0.16-0.027,0.333,0.053,0.52,0.24c0.187,0.16,0.307,0.24,0.36,0.24
								c0.24,0,0.36-0.307,0.36-0.92C2.76-14.467,2.467-14.933,1.88-15.12z"/>
						</g>
						<path style="fill-rule:evenodd;clip-rule:evenodd;fill:#0A6394;" d="M5.48-9.44c0,0.347-0.08,0.667-0.24,0.96
							C5.08-8.213,4.894-8.067,4.68-8.04L4-8v-2.24l0.52-0.24c0.24,0,0.454,0.08,0.64,0.24C5.374-10.054,5.48-9.787,5.48-9.44z
							 M2.88-7.16c0,0.693,0.187,1.014,0.56,0.96l1.44-0.2c0.72-0.213,1.187-0.494,1.4-0.84c0.24-0.347,0.359-1.014,0.359-2
							c0-1.387-0.466-2.173-1.4-2.36L6.52-14c0.106-0.187,0.16-0.374,0.16-0.56c0-0.24-0.054-0.466-0.16-0.68
							c-0.107-0.187-0.24-0.28-0.4-0.28c-0.187,0.053-0.333,0.174-0.44,0.36L4-11.6v-2.8c0-0.613-0.173-0.92-0.52-0.92H3.32
							c-0.293,0.106-0.44,0.44-0.44,1V-7.16z"/>
						<path style="fill-rule:evenodd;clip-rule:evenodd;fill:#0A6394;" d="M9.52-8.48H9.48L8.72-12.2h1.56L9.52-8.48z M8.6-7.56
							c0.187,0.72,0.493,1.08,0.92,1.08c0.4,0,0.693-0.36,0.88-1.08l1.72-7.4c0-0.24-0.08-0.466-0.24-0.68h-0.72
							c-0.107,0.106-0.187,0.266-0.24,0.479l-0.24,1.2H8.36l-0.28-1.2c-0.054-0.24-0.12-0.4-0.2-0.479
							c-0.16,0.026-0.426,0.04-0.8,0.04c-0.134,0.187-0.2,0.414-0.2,0.68l0.04,0.4L8.6-7.56z"/>
						<path style="fill-rule:evenodd;clip-rule:evenodd;fill:#0A6394;" d="M13.6-11.64v-2.121l1,0.121
							c0.507,0.053,0.76,0.44,0.76,1.16c0,0.693-0.293,1-0.88,0.92L13.6-11.64z M14.24-9.88c0.454,0.053,0.68,0.413,0.68,1.08
							c0,0.613-0.227,0.893-0.68,0.84L13.6-8.04v-1.92L14.24-9.88z M16.32-10.96c0.24-0.373,0.36-0.84,0.36-1.4
							c0-0.8-0.133-1.414-0.4-1.84c-0.24-0.4-0.667-0.733-1.28-1l-0.84-0.2L13-15.52c-0.427-0.053-0.64,0.253-0.64,0.92v7.16
							c0,0.64,0.213,0.986,0.64,1.04l1.6,0.16c0.454,0.053,0.827-0.121,1.12-0.521c0.32-0.4,0.48-0.933,0.48-1.6
							c0-0.826-0.267-1.466-0.8-1.92v-0.04C15.773-10.374,16.08-10.587,16.32-10.96z"/>
						<path style="fill-rule:evenodd;clip-rule:evenodd;fill:#0A6394;" d="M16.72-14.2l0.96,7v-6c-0.053-0.24-0.093-0.6-0.12-1.08
							l-0.76-0.36L16.72-14.2z"/>
					</g>
					<g>
						<g>
							
								<linearGradient id="SVGID_4_" gradientUnits="userSpaceOnUse" x1="0.6626" y1="-8.375" x2="21.5376" y2="-8.375" gradientTransform="matrix(0.8 0 0 0.8 0 0)">
								<stop  offset="0" style="stop-color:#FFFFFF"/>
								<stop  offset="1" style="stop-color:#8BB5CC"/>
							</linearGradient>
							<path style="fill-rule:evenodd;clip-rule:evenodd;fill:url(#SVGID_4_);" d="M1.36-7.12c-0.347,0-0.627-0.347-0.84-1.04v2.521
								c0.32,0.266,0.613,0.4,0.88,0.4C1.667-5.267,1.92-5.387,2.16-5.6c0.293-0.267,0.427-0.653,0.4-1.16
								c0-0.586-0.106-0.879-0.32-0.879c-0.053,0-0.173,0.08-0.36,0.24C1.72-7.24,1.546-7.146,1.36-7.12z"/>
							
								<linearGradient id="SVGID_5_" gradientUnits="userSpaceOnUse" x1="0.6626" y1="-16.5996" x2="21.5376" y2="-16.5996" gradientTransform="matrix(0.8 0 0 0.8 0 0)">
								<stop  offset="0" style="stop-color:#FFFFFF"/>
								<stop  offset="1" style="stop-color:#8BB5CC"/>
							</linearGradient>
							<path style="fill-rule:evenodd;clip-rule:evenodd;fill:url(#SVGID_5_);" d="M1.72-14.72L0.64-14.4l-0.12,0.08v2.48
								c0.213-0.693,0.493-1.053,0.84-1.08c0.186-0.026,0.373,0.053,0.56,0.24c0.16,0.16,0.267,0.24,0.32,0.24
								c0.24,0,0.36-0.293,0.36-0.88c0-0.773-0.28-1.24-0.84-1.4H1.72z"/>
						</g>
						
							<linearGradient id="SVGID_6_" gradientUnits="userSpaceOnUse" x1="-18.3569" y1="-588.2583" x2="2.5667" y2="-588.2583" gradientTransform="matrix(0.7981 -0.0545 0 0.8018 15.1812 460.501)">
							<stop  offset="0" style="stop-color:#FFFFFF"/>
							<stop  offset="1" style="stop-color:#8BB5CC"/>
						</linearGradient>
						<path style="fill-rule:evenodd;clip-rule:evenodd;fill:url(#SVGID_6_);" d="M2.72-6.76c0,0.64,0.2,0.96,0.6,0.96l1.44-0.24
							c0.72-0.213,1.186-0.493,1.4-0.84c0.213-0.347,0.32-1.014,0.32-2c0-1.36-0.454-2.133-1.36-2.32l1.24-2.4
							c0.106-0.187,0.16-0.387,0.16-0.6c0-0.24-0.053-0.454-0.16-0.64c-0.107-0.213-0.24-0.307-0.4-0.28
							c-0.187,0-0.333,0.12-0.44,0.359L3.88-11.24H3.84V-14c0-0.64-0.173-0.96-0.52-0.96H3.2c-0.32,0.133-0.48,0.467-0.48,1V-6.76z
							 M3.84-7.6v-2.28l0.56-0.2c0.213-0.026,0.427,0.054,0.64,0.24s0.32,0.453,0.32,0.8S5.28-8.387,5.12-8.12
							S4.773-7.707,4.56-7.68L3.84-7.6z"/>
						
							<linearGradient id="SVGID_7_" gradientUnits="userSpaceOnUse" x1="0.6626" y1="-13.375" x2="21.5376" y2="-13.375" gradientTransform="matrix(0.8 0 0 0.8 0 0)">
							<stop  offset="0" style="stop-color:#FFFFFF"/>
							<stop  offset="1" style="stop-color:#8BB5CC"/>
						</linearGradient>
						<path style="fill-rule:evenodd;clip-rule:evenodd;fill:url(#SVGID_7_);" d="M8.56-11.8h1.6l-0.8,3.68L8.56-11.8z M8.48-7.2
							c0.133,0.72,0.427,1.08,0.88,1.08s0.747-0.36,0.88-1.08l1.64-6.919l0.08-0.48c0-0.32-0.08-0.533-0.24-0.64
							c-0.16-0.027-0.4-0.04-0.72-0.04c-0.133,0.133-0.213,0.307-0.24,0.52l-0.24,1.2H8.2l-0.24-1.2
							c-0.027-0.16-0.093-0.32-0.2-0.479c-0.374,0-0.64,0.013-0.8,0.04c-0.16,0.16-0.24,0.373-0.24,0.64L8.48-7.2z"/>
						
							<linearGradient id="SVGID_8_" gradientUnits="userSpaceOnUse" x1="-55.4297" y1="881.9824" x2="-34.4114" y2="881.9824" gradientTransform="matrix(0.7945 0.0933 0 0.8055 44.5718 -717.2788)">
							<stop  offset="0" style="stop-color:#FFFFFF"/>
							<stop  offset="1" style="stop-color:#8BB5CC"/>
						</linearGradient>
						<path style="fill-rule:evenodd;clip-rule:evenodd;fill:url(#SVGID_8_);" d="M14.36-11.16l-0.92-0.12v-2.12l1,0.12
							c0.534,0.053,0.8,0.453,0.8,1.2C15.24-11.413,14.946-11.106,14.36-11.16z M13.44-7.68V-9.6l0.68,0.08
							c0.454,0.053,0.68,0.414,0.68,1.08c0,0.613-0.227,0.894-0.68,0.84L13.44-7.68z M14.48-5.88C14.906-5.827,15.267-6,15.56-6.4
							c0.32-0.374,0.479-0.894,0.479-1.56c0-0.88-0.266-1.533-0.8-1.96v-0.04c0.374-0.053,0.68-0.267,0.92-0.64
							c0.24-0.374,0.359-0.84,0.359-1.4c0-0.8-0.133-1.413-0.4-1.84c-0.24-0.4-0.667-0.733-1.28-1l-1.96-0.28
							c-0.454-0.054-0.68,0.24-0.68,0.88v7.16c0,0.64,0.227,0.987,0.68,1.04L14.48-5.88z"/>
						
							<linearGradient id="SVGID_9_" gradientUnits="userSpaceOnUse" x1="0.6626" y1="-13.1748" x2="21.5376" y2="-13.1748" gradientTransform="matrix(0.8 0 0 0.8 0 0)">
							<stop  offset="0" style="stop-color:#FFFFFF"/>
							<stop  offset="1" style="stop-color:#8BB5CC"/>
						</linearGradient>
						<path style="fill-rule:evenodd;clip-rule:evenodd;fill:url(#SVGID_9_);" d="M17.4-13.88c-0.24-0.16-0.494-0.28-0.76-0.36
							L16.6-13.8l0.04,0.44l1.04,6.52v-5.96L17.4-13.88z"/>
					</g>
				</g>
				<g>
					
						<linearGradient id="SVGID_10_" gradientUnits="userSpaceOnUse" x1="2.1875" y1="-25.9063" x2="21.8125" y2="-25.9063" gradientTransform="matrix(0.8 0 0 0.8 0 0)">
						<stop  offset="0" style="stop-color:#FFFFFF"/>
						<stop  offset="1" style="stop-color:#D4D4D4"/>
					</linearGradient>
					<path style="fill-rule:evenodd;clip-rule:evenodd;fill:url(#SVGID_10_);" d="M16.92-17.24l-0.16-0.6
						c0.533-0.586,0.84-1.293,0.92-2.12v-6.92c0-0.8-0.88-1.493-2.64-2.08c-1.733-0.586-3.853-0.893-6.359-0.92
						c-1.974,0.054-3.64,0.253-5,0.6L6-25.08c-1.387,0.373-2.48,1.106-3.28,2.2c-0.773,1.093-0.959,2.413-0.56,3.96
						c-0.454,0.693-0.707,1.44-0.76,2.24c-0.106,0.987,0.12,1.894,0.68,2.72c0.747,1.12,1.733,1.854,2.96,2.2
						c1.014,0.267,1.8,0.254,2.36-0.04c0.427-0.213,0.72-0.4,0.88-0.56c0.747-0.586,0.64-1.094-0.32-1.52
						c-0.293-0.08-0.52-0.133-0.68-0.16c-0.293-0.08-0.453-0.174-0.48-0.28c0-0.054,0-0.24,0-0.56c0-0.24-0.053-0.374-0.16-0.4
						c-0.24-0.027-0.426-0.053-0.56-0.08c-0.267-0.08-0.374-0.213-0.32-0.4c0.266-0.666,0.28-1.026,0.04-1.08
						c-0.213-0.053-0.4-0.147-0.56-0.28C5.026-17.253,5-17.374,5.16-17.48c0.133-0.106,0.253-0.093,0.36,0.04
						c0.16,0.24,0.267,0.373,0.32,0.4c0.08,0.026,0.173,0.026,0.28,0c0.133-0.027,0.253-0.027,0.36,0
						c0.133,0.026,0.2,0.106,0.2,0.24c0.026,0.187,0.08,0.32,0.16,0.4c0.054,0.08,0.16,0.093,0.32,0.04
						c0.16-0.053,0.266-0.053,0.32,0c0.08,0.08,0.12,0.253,0.12,0.52c0.026,0.293,0.053,0.466,0.08,0.52
						c0.053,0.08,0.173,0.12,0.359,0.12c0.214-0.027,0.334,0.013,0.36,0.12c0.08,0.347,0.187,0.587,0.32,0.72
						c0.24,0.267,0.6,0.16,1.08-0.32c0.347-0.346,0.48-0.906,0.4-1.68c-0.133-0.986-0.68-1.88-1.64-2.68
						c-1.253-0.987-2.56-1.4-3.92-1.24c-0.053-0.96,0.214-1.733,0.8-2.32c0.374-0.374,0.88-0.627,1.52-0.76
						c1.894,3.12,3.6,5.106,5.12,5.96l-0.44,1.16l0.96,0.28c0.667,0.187,0.986,0.213,0.96,0.08l0.12-1
						c0.88,0.133,1.627,0.013,2.24-0.36l0.28,2.6c0.88-0.747,1.24-1.24,1.08-1.48v-0.041c0.133-0.08,0.2-0.253,0.2-0.52
						c0-0.426-0.134-0.64-0.4-0.64L16.92-17.24z"/>
					
						<linearGradient id="SVGID_11_" gradientUnits="userSpaceOnUse" x1="2.1875" y1="-32" x2="21.8125" y2="-32" gradientTransform="matrix(0.8 0 0 0.8 0 0)">
						<stop  offset="0" style="stop-color:#FFFFFF"/>
						<stop  offset="1" style="stop-color:#D4D4D4"/>
					</linearGradient>
					<path style="fill-rule:evenodd;clip-rule:evenodd;fill:url(#SVGID_11_);" d="M4.16-25.6c0-0.293-0.08-0.533-0.24-0.72
						c-0.187-0.213-0.4-0.32-0.64-0.32c-0.24,0-0.44,0.107-0.6,0.32C2.493-26.133,2.4-25.893,2.4-25.6s0.093,0.533,0.28,0.72
						c0.16,0.213,0.36,0.32,0.6,0.32c0.24,0,0.453-0.106,0.64-0.32C4.08-25.066,4.16-25.306,4.16-25.6z"/>
					
						<linearGradient id="SVGID_12_" gradientUnits="userSpaceOnUse" x1="2.1875" y1="-28.5503" x2="21.8125" y2="-28.5503" gradientTransform="matrix(0.8 0 0 0.8 0 0)">
						<stop  offset="0" style="stop-color:#FFFFFF"/>
						<stop  offset="1" style="stop-color:#D4D4D4"/>
					</linearGradient>
					<path style="fill-rule:evenodd;clip-rule:evenodd;fill:url(#SVGID_12_);" d="M1.52-22.32c0.24,0,0.36-0.173,0.36-0.52
						s-0.12-0.52-0.36-0.52c-0.24,0-0.36,0.173-0.36,0.52S1.28-22.32,1.52-22.32z"/>
					
						<linearGradient id="SVGID_13_" gradientUnits="userSpaceOnUse" x1="2.1875" y1="-27.2002" x2="21.8125" y2="-27.2002" gradientTransform="matrix(0.8 0 0 0.8 0 0)">
						<stop  offset="0" style="stop-color:#FFFFFF"/>
						<stop  offset="1" style="stop-color:#D4D4D4"/>
					</linearGradient>
					<path style="fill-rule:evenodd;clip-rule:evenodd;fill:url(#SVGID_13_);" d="M5.52-21.76c0,0.427,0.227,0.64,0.68,0.64
						c0.187,0,0.346-0.067,0.48-0.2c0.133-0.106,0.2-0.253,0.2-0.44s-0.066-0.333-0.2-0.44c-0.134-0.133-0.293-0.2-0.48-0.2
						C5.747-22.4,5.52-22.187,5.52-21.76z"/>
				</g>
				<g>
					
						<linearGradient id="SVGID_14_" gradientUnits="userSpaceOnUse" x1="6.0498" y1="-29.5728" x2="22.0748" y2="-29.5728" gradientTransform="matrix(0.8 0 0 0.8 0 0)">
						<stop  offset="0" style="stop-color:#F03800"/>
						<stop  offset="1" style="stop-color:#731B07"/>
					</linearGradient>
					<path style="fill-rule:evenodd;clip-rule:evenodd;fill:url(#SVGID_14_);" d="M9.12-29.88c-1.6,0-3.026,0.12-4.28,0.36
						c1.36,2.853,2.467,5,3.32,6.439c1.866,3.067,3.533,4.867,5,5.4c1.173,0.426,2.213,0.293,3.12-0.4
						c0.827-0.64,1.293-1.52,1.4-2.64v-6.36c0-0.773-0.84-1.44-2.52-2C13.506-29.613,11.493-29.88,9.12-29.88z"/>
					
						<linearGradient id="SVGID_15_" gradientUnits="userSpaceOnUse" x1="11.2251" y1="-31.8843" x2="22.0751" y2="-31.8843" gradientTransform="matrix(0.8 0 0 0.8 0 0)">
						<stop  offset="0" style="stop-color:#DB901F"/>
						<stop  offset="1" style="stop-color:#734807"/>
					</linearGradient>
					<path style="fill-rule:evenodd;clip-rule:evenodd;fill:url(#SVGID_15_);" d="M14.56-21.32c0.8,0.32,1.506,0.227,2.12-0.28
						c0.587-0.48,0.92-1.133,1-1.96v-3.52c0-0.773-0.84-1.44-2.52-2c-1.654-0.533-3.667-0.8-6.041-0.8H8.96
						C11.227-24.76,13.093-21.906,14.56-21.32z"/>
					
						<linearGradient id="SVGID_16_" gradientUnits="userSpaceOnUse" x1="3.0771" y1="-26.8115" x2="11.1271" y2="-26.8115" gradientTransform="matrix(0.8 0 0 0.8 0 0)">
						<stop  offset="0" style="stop-color:#F03800"/>
						<stop  offset="1" style="stop-color:#99240A"/>
					</linearGradient>
					<path style="fill-rule:evenodd;clip-rule:evenodd;fill:url(#SVGID_16_);" d="M3.08-17.76l1.4-0.36L4.16-19.8
						c-0.106-1.253,0.12-2.2,0.68-2.84c0.56-0.64,1.374-1.04,2.44-1.2c0.533-0.08,1-0.093,1.4-0.04L8.84-24
						c0.08-0.106,0.067-0.306-0.04-0.6c-0.213-0.427-0.467-0.6-0.76-0.52c-0.56,0.053-1.186,0.187-1.879,0.4
						c-1.387,0.453-2.387,1.133-3,2.04c-0.64,0.906-0.84,2-0.6,3.28L3.08-17.76z"/>
					
						<linearGradient id="SVGID_17_" gradientUnits="userSpaceOnUse" x1="2.2485" y1="-19.9863" x2="12.1485" y2="-19.9863" gradientTransform="matrix(0.8 0 0 0.8 0 0)">
						<stop  offset="0" style="stop-color:#F03800"/>
						<stop  offset="1" style="stop-color:#99240A"/>
					</linearGradient>
					<path style="fill-rule:evenodd;clip-rule:evenodd;fill:url(#SVGID_17_);" d="M7.2-12.2c0.853-0.454,1.133-0.8,0.839-1.04
						c-0.106-0.106-0.4-0.214-0.879-0.32c-0.427-0.08-0.653-0.173-0.68-0.28c0-0.027-0.013-0.28-0.04-0.76
						c0-0.32-0.053-0.493-0.16-0.52c-0.32-0.054-0.574-0.107-0.76-0.16c-0.32-0.08-0.453-0.24-0.4-0.48
						c0.08-0.186,0.2-0.426,0.36-0.72c0.08-0.213,0.027-0.347-0.16-0.4c-0.266-0.08-0.52-0.24-0.76-0.48
						c-0.267-0.293-0.293-0.52-0.08-0.68c0.187-0.16,0.374-0.173,0.56-0.041c0.24,0.187,0.427,0.334,0.56,0.44
						c0.16,0.08,0.307,0.12,0.44,0.12c0.16-0.026,0.307-0.026,0.44,0c0.16,0.053,0.253,0.12,0.28,0.2
						c0.053,0.187,0.12,0.333,0.2,0.44c0.133,0.16,0.293,0.24,0.48,0.24c0.213,0,0.36,0.026,0.44,0.08
						c0.08,0.08,0.093,0.2,0.04,0.36c-0.053,0.24-0.053,0.413,0,0.52c0.053,0.107,0.187,0.16,0.4,0.16
						c0.213-0.026,0.347,0.027,0.4,0.16c0.08,0.267,0.147,0.453,0.2,0.56c0.08,0.133,0.213,0.12,0.4-0.04
						c0.347-0.267,0.48-0.773,0.4-1.52c-0.106-0.907-0.6-1.72-1.48-2.44c-1.52-1.253-3.16-1.507-4.92-0.76
						c-0.56,0.24-1,0.894-1.32,1.96c-0.374,1.253-0.227,2.386,0.44,3.4c0.667,1.04,1.547,1.707,2.64,2
						C5.987-11.933,6.693-11.933,7.2-12.2z"/>
					
						<linearGradient id="SVGID_18_" gradientUnits="userSpaceOnUse" x1="14.2002" y1="-21.1958" x2="16.9999" y2="-21.1958" gradientTransform="matrix(0.8 0 0 0.8 0 0)">
						<stop  offset="0" style="stop-color:#A62704"/>
						<stop  offset="1" style="stop-color:#9B2405"/>
					</linearGradient>
					<path style="fill-rule:evenodd;clip-rule:evenodd;fill:url(#SVGID_18_);" d="M11.36-15.28l0.48,0.16
						c0.347,0.106,0.627,0.16,0.84,0.16c0.373,0.027,0.613,0.027,0.72,0v-2.32l0.2-1.48c-0.026-0.133-0.173-0.2-0.439-0.2
						c-0.187-0.026-0.32-0.013-0.4,0.04l-0.08,0.08c-0.16,0.96-0.32,1.733-0.48,2.32c-0.08,0.374-0.24,0.693-0.48,0.96L11.36-15.28z
						"/>
					
						<linearGradient id="SVGID_19_" gradientUnits="userSpaceOnUse" x1="19.8374" y1="-21.0254" x2="21.6624" y2="-21.0254" gradientTransform="matrix(0.8 0 0 0.8 0 0)">
						<stop  offset="0" style="stop-color:#861F06"/>
						<stop  offset="1" style="stop-color:#731B07"/>
					</linearGradient>
					<path style="fill-rule:evenodd;clip-rule:evenodd;fill:url(#SVGID_19_);" d="M16.4-14.68l0.4-0.2
						c0.267-0.187,0.413-0.333,0.44-0.44l0.12-0.32c-0.053-0.027-0.106-0.093-0.16-0.2c-0.133-0.187-0.24-0.427-0.32-0.72l-0.64-2.4
						c-0.133,0.027-0.227,0.067-0.28,0.12l-0.08,0.24l0.44,2.32L16.4-14.68z"/>
					
						<linearGradient id="SVGID_20_" gradientUnits="userSpaceOnUse" x1="1.7749" y1="-17.9253" x2="21.6249" y2="-17.9253" gradientTransform="matrix(0.8 0 0 0.8 0 0)">
						<stop  offset="0" style="stop-color:#FFFFFF"/>
						<stop  offset="1" style="stop-color:#D4D4D4"/>
					</linearGradient>
					<path style="fill-rule:evenodd;clip-rule:evenodd;fill:url(#SVGID_20_);" d="M14.56-14.36c0-0.667-0.227-1.227-0.68-1.68
						c-0.454-0.48-1-0.721-1.64-0.721c-0.64,0-1.173,0.24-1.6,0.721c-0.453,0.453-0.68,1.013-0.68,1.68
						c0,0.693,0.227,1.267,0.68,1.72c0.427,0.479,0.96,0.72,1.6,0.72c0.64,0,1.187-0.24,1.64-0.72
						C14.333-13.12,14.56-13.693,14.56-14.36z"/>
					
						<linearGradient id="SVGID_21_" gradientUnits="userSpaceOnUse" x1="1.7749" y1="-17.5498" x2="21.6249" y2="-17.5498" gradientTransform="matrix(0.8 0 0 0.8 0 0)">
						<stop  offset="0" style="stop-color:#FFFFFF"/>
						<stop  offset="1" style="stop-color:#D4D4D4"/>
					</linearGradient>
					<path style="fill-rule:evenodd;clip-rule:evenodd;fill:url(#SVGID_21_);" d="M17.68-11.84v-4.4c-0.106-0.08-0.24-0.12-0.4-0.12
						c-0.347,0-0.626,0.227-0.84,0.68c-0.24,0.454-0.359,1-0.359,1.641c0,0.64,0.12,1.186,0.359,1.64
						c0.214,0.454,0.494,0.68,0.84,0.68C17.439-11.72,17.573-11.76,17.68-11.84z"/>
					
						<linearGradient id="SVGID_22_" gradientUnits="userSpaceOnUse" x1="12.8252" y1="-18.0249" x2="22.0752" y2="-18.0249" gradientTransform="matrix(0.8 0 0 0.8 0 0)">
						<stop  offset="0" style="stop-color:#8C7F7B"/>
						<stop  offset="1" style="stop-color:#6E615F"/>
					</linearGradient>
					<path style="fill-rule:evenodd;clip-rule:evenodd;fill:url(#SVGID_22_);" d="M12.4-12.56c0.507,0,0.946-0.187,1.32-0.56
						c0.374-0.347,0.56-0.773,0.56-1.28c0-0.533-0.187-0.974-0.56-1.32c-0.346-0.374-0.787-0.56-1.32-0.56
						c-0.507,0-0.933,0.173-1.28,0.52c-0.346,0.347-0.533,0.787-0.56,1.32c0.213-0.32,0.52-0.48,0.92-0.48
						c0.32,0,0.6,0.12,0.84,0.36c0.213,0.214,0.32,0.493,0.32,0.84c0,0.533-0.227,0.893-0.68,1.08L12.4-12.56z"/>
					
						<linearGradient id="SVGID_23_" gradientUnits="userSpaceOnUse" x1="12.8125" y1="-17.5503" x2="22.0875" y2="-17.5503" gradientTransform="matrix(0.8 0 0 0.8 0 0)">
						<stop  offset="0" style="stop-color:#8C7F7B"/>
						<stop  offset="1" style="stop-color:#6E615F"/>
					</linearGradient>
					<path style="fill-rule:evenodd;clip-rule:evenodd;fill:url(#SVGID_23_);" d="M17.4-12.32l0.28-0.08v-3.28l-0.28-0.08
						c-0.213,0-0.414,0.16-0.6,0.48c-0.16,0.347-0.24,0.76-0.24,1.24l0.04,0.279c0.107-0.186,0.227-0.279,0.36-0.279
						c0.347,0,0.52,0.307,0.52,0.92c0,0.32-0.08,0.586-0.24,0.8H17.4z"/>
				</g>
				<g>
					
						<use xlink:href="#flash0.ai_x5F_7_x2F_Layer_37_copy_x2F__x3C_Path_x3E__x5F_1_x5F_0"  width="8.9" height="32.95" y="-32.95" transform="matrix(0.8 0 0 0.8 1.5 -3.5498)" style="overflow:visible;opacity:0.4609;enable-background:new    ;"/>
					
						<use xlink:href="#flash0.ai_x5F_7_x2F_Layer_37_copy_x2F__x3C_Path_x3E_"  width="2.95" height="29.85" y="-29.85" transform="matrix(0.8 0 0 0.8 14.2002 -5.4502)" style="overflow:visible;opacity:0.3711;enable-background:new    ;"/>
				</g>
				<g>
					
						<use xlink:href="#flash0.ai_x5F_7_x2F_Layer_37_copy_x2F__x3C_Path_x3E__x5F_12"  width="21.35" height="5.45" y="-5.45" transform="matrix(0.8 0 0 0.8 0.5498 -2.25)" style="overflow:visible;opacity:0.2188;enable-background:new    ;"/>
					
						<linearGradient id="SVGID_24_" gradientUnits="userSpaceOnUse" x1="0" y1="-4.5747" x2="22.5003" y2="-4.5747" gradientTransform="matrix(0.8 0 0 0.8 0 0)">
						<stop  offset="0" style="stop-color:#EDEDED"/>
						<stop  offset="0.8039" style="stop-color:#919191"/>
						<stop  offset="0.851" style="stop-color:#979797"/>
						<stop  offset="0.9176" style="stop-color:#A8A8A8"/>
						<stop  offset="0.9922" style="stop-color:#C3C3C3"/>
						<stop  offset="1" style="stop-color:#C7C7C7"/>
					</linearGradient>
					<path style="fill-rule:evenodd;clip-rule:evenodd;fill:url(#SVGID_24_);" d="M18-2.12V-3.8h-0.04
						c-0.106-0.586-1.027-1.066-2.76-1.439c-1.733-0.4-3.8-0.6-6.2-0.6s-4.467,0.2-6.2,0.6C1.093-4.867,0.173-4.387,0.04-3.8H0v1.68
						h2.72C4.48-1.693,6.573-1.48,9-1.48c2.454,0,4.533-0.213,6.24-0.64H18z"/>
					
						<linearGradient id="SVGID_25_" gradientUnits="userSpaceOnUse" x1="16325.2373" y1="-16335.125" x2="16331.9619" y2="-16335.125" gradientTransform="matrix(-0.8 0 0 -0.8 13076.6006 -13071.8008)">
						<stop  offset="0" style="stop-color:#C9C9C9"/>
						<stop  offset="1" style="stop-color:#A8A8A8"/>
					</linearGradient>
					<path style="fill-rule:evenodd;clip-rule:evenodd;fill:url(#SVGID_25_);" d="M13.44-5.56v3.32h3.48v-2.48
						C16.146-5.067,14.986-5.347,13.44-5.56z"/>
					
						<linearGradient id="SVGID_26_" gradientUnits="userSpaceOnUse" x1="1.6123" y1="-4.6499" x2="9.5873" y2="-4.6499" gradientTransform="matrix(0.8 0 0 0.8 0 0)">
						<stop  offset="0" style="stop-color:#FFFFFF"/>
						<stop  offset="1" style="stop-color:#FFFFFF"/>
					</linearGradient>
					<path style="fill-rule:evenodd;clip-rule:evenodd;fill:url(#SVGID_26_);" d="M1.28-2.12H2.72C3.573-1.907,4.68-1.733,6.04-1.6
						h1.6v-4.24C4.733-5.707,2.613-5.36,1.28-4.8V-2.12z"/>
					
						<linearGradient id="SVGID_27_" gradientUnits="userSpaceOnUse" x1="0" y1="-2.8999" x2="22.5003" y2="-2.8999" gradientTransform="matrix(0.8 0 0 0.8 0 0)">
						<stop  offset="0" style="stop-color:#FFFFFF"/>
						<stop  offset="1" style="stop-color:#949494"/>
					</linearGradient>
					<path style="fill-rule:evenodd;clip-rule:evenodd;fill:url(#SVGID_27_);" d="M18-2.16c0-0.64-0.88-1.213-2.64-1.72
						C13.546-4.387,11.426-4.64,9-4.64c-2.427,0-4.546,0.253-6.36,0.76C0.88-3.374,0-2.8,0-2.16c0,0.586,0.88,1.093,2.64,1.52
						C4.4-0.213,6.52,0,9,0s4.6-0.213,6.36-0.64C17.12-1.067,18-1.574,18-2.16z"/>
					
						<linearGradient id="SVGID_28_" gradientUnits="userSpaceOnUse" x1="13.7251" y1="-17.5747" x2="36.1751" y2="-17.5747" gradientTransform="matrix(0.8 0 0 0.8 -10.8999 11.8999)">
						<stop  offset="0" style="stop-color:#FFFFFF"/>
						<stop  offset="1" style="stop-color:#B0B0B0"/>
					</linearGradient>
					<path style="fill-rule:evenodd;clip-rule:evenodd;fill:url(#SVGID_28_);" d="M18.02-2.14c0-0.614-0.88-1.134-2.64-1.561
						c-1.733-0.426-3.854-0.64-6.36-0.64c-2.48,0-4.6,0.213-6.36,0.64C0.9-3.273,0.02-2.753,0.02-2.14c0,0.586,0.88,1.093,2.64,1.52
						C4.42-0.193,6.54,0.02,9.02,0.02c2.48,0,4.6-0.213,6.36-0.64C17.14-1.046,18.02-1.554,18.02-2.14z"/>
					
						<linearGradient id="SVGID_29_" gradientUnits="userSpaceOnUse" x1="16324.3125" y1="-16337.375" x2="16344.3877" y2="-16337.375" gradientTransform="matrix(-0.8 0 0 -0.8 13076.6006 -13071.8008)">
						<stop  offset="0" style="stop-color:#FFFFFF"/>
						<stop  offset="1" style="stop-color:#B0B0B0"/>
					</linearGradient>
					<path style="fill-rule:evenodd;clip-rule:evenodd;fill:url(#SVGID_29_);" d="M17.4-2.08c0-0.533-0.8-0.974-2.4-1.32
						C13.374-3.773,11.413-3.96,9.12-3.96C6.854-3.96,4.907-3.773,3.28-3.4c-1.6,0.346-2.4,0.787-2.4,1.32
						c0,0.506,0.8,0.934,2.4,1.28C4.907-0.427,6.854-0.24,9.12-0.24c2.293,0,4.254-0.187,5.88-0.561
						C16.6-1.146,17.4-1.574,17.4-2.08z"/>
					
						<linearGradient id="SVGID_30_" gradientUnits="userSpaceOnUse" x1="1.2749" y1="-2.8755" x2="21.4249" y2="-2.8755" gradientTransform="matrix(0.8 0 0 0.8 0 0)">
						<stop  offset="0" style="stop-color:#FFFFFF"/>
						<stop  offset="1" style="stop-color:#B0B0B0"/>
					</linearGradient>
					<path style="fill-rule:evenodd;clip-rule:evenodd;fill:url(#SVGID_30_);" d="M9.12-3.96c-2.08,0-3.893,0.147-5.439,0.44
						C2.16-3.2,1.253-2.813,0.96-2.36c0.267,0.507,1.173,0.92,2.72,1.24C5.2-0.8,7.013-0.64,9.12-0.64c2.134,0,3.96-0.16,5.48-0.48
						c1.547-0.32,2.454-0.733,2.72-1.24c-0.267-0.453-1.173-0.84-2.72-1.16C13.053-3.813,11.227-3.96,9.12-3.96z"/>
					<path style="fill-rule:evenodd;clip-rule:evenodd;fill:#949494;" d="M15.24-2.16c0-0.347-0.586-0.653-1.76-0.92
						c-1.2-0.24-2.64-0.36-4.32-0.36c-1.68,0-3.106,0.12-4.28,0.36C3.707-2.813,3.12-2.507,3.12-2.16s0.586,0.64,1.76,0.88
						c1.2,0.267,2.626,0.4,4.28,0.4c1.653,0,3.093-0.133,4.32-0.4C14.653-1.52,15.24-1.813,15.24-2.16z"/>
					
						<linearGradient id="SVGID_31_" gradientUnits="userSpaceOnUse" x1="3.8501" y1="-3" x2="18.6751" y2="-3" gradientTransform="matrix(0.8 0 0 0.8 0 0)">
						<stop  offset="0" style="stop-color:#FFFFFF"/>
						<stop  offset="1" style="stop-color:#949494"/>
					</linearGradient>
					<path style="fill-rule:evenodd;clip-rule:evenodd;fill:url(#SVGID_31_);" d="M14.92-2.16V-2.2
						c-0.107-0.24-0.574-0.467-1.4-0.68c-1.094-0.293-2.56-0.439-4.4-0.439c-1.787,0-3.266,0.146-4.439,0.439
						C3.72-2.667,3.187-2.44,3.08-2.2v0.56h1.8C5.84-1.533,7.213-1.48,9-1.48c1.813,0,3.187-0.053,4.12-0.16h1.8v-0.48l0.04-0.04
						H14.92z"/>
					
						<linearGradient id="SVGID_32_" gradientUnits="userSpaceOnUse" x1="3.9375" y1="-2.125" x2="18.5625" y2="-2.125" gradientTransform="matrix(0.8 0 0 0.8 0 0)">
						<stop  offset="0" style="stop-color:#FFFFFF"/>
						<stop  offset="1" style="stop-color:#B0B0B0"/>
					</linearGradient>
					<path style="fill-rule:evenodd;clip-rule:evenodd;fill:url(#SVGID_32_);" d="M14.96-1.72c0-0.347-0.587-0.64-1.76-0.88
						S10.626-2.96,9-2.96S5.987-2.84,4.84-2.6C3.667-2.36,3.08-2.067,3.08-1.72S3.667-1.067,4.84-0.8C5.987-0.56,7.374-0.44,9-0.44
						c1.653,0,3.053-0.12,4.2-0.36C14.373-1.067,14.96-1.374,14.96-1.72z"/>
					
						<linearGradient id="SVGID_33_" gradientUnits="userSpaceOnUse" x1="16328.2754" y1="-16338.0254" x2="16341.125" y2="-16338.0254" gradientTransform="matrix(-0.8 0 0 -0.8 13076.6006 -13071.8008)">
						<stop  offset="0" style="stop-color:#FFFFFF"/>
						<stop  offset="1" style="stop-color:#B0B0B0"/>
					</linearGradient>
					<path style="fill-rule:evenodd;clip-rule:evenodd;fill:url(#SVGID_33_);" d="M14.32-1.56c0-0.267-0.507-0.48-1.52-0.64
						c-0.987-0.187-2.2-0.28-3.64-0.28c-1.44,0-2.667,0.093-3.68,0.28C4.467-2.04,3.96-1.827,3.96-1.56c0,0.24,0.507,0.44,1.52,0.6
						c1.013,0.187,2.24,0.28,3.68,0.28c1.413,0,2.626-0.093,3.64-0.28C13.813-1.12,14.32-1.32,14.32-1.56z"/>
					
						<linearGradient id="SVGID_34_" gradientUnits="userSpaceOnUse" x1="5.2251" y1="-2.1997" x2="17.5751" y2="-2.1997" gradientTransform="matrix(0.8 0 0 0.8 0 0)">
						<stop  offset="0" style="stop-color:#FFFFFF"/>
						<stop  offset="1" style="stop-color:#B0B0B0"/>
					</linearGradient>
					<path style="fill-rule:evenodd;clip-rule:evenodd;fill:url(#SVGID_34_);" d="M9.16-2.52c-1.28,0-2.4,0.066-3.36,0.2
						C4.867-2.16,4.307-1.974,4.12-1.76C4.493-1.253,6.173-1,9.16-1c2.959,0,4.626-0.253,5-0.76C13.733-2.267,12.067-2.52,9.16-2.52
						z"/>
				</g>
			</g>
		</g>
	</g>
</symbol>
<symbol  id="flash0.ai_x5F_7_x2F_Layer_37_copy_x2F__x3C_Path_x3E_" viewBox="0 -29.85 2.95 29.85">
	<g id="Layer_1_4_">
		
			<linearGradient id="SVGID_35_" gradientUnits="userSpaceOnUse" x1="11.7456" y1="-16341.1533" x2="33.7956" y2="-16341.1533" gradientTransform="matrix(4.535148e-005 -1 1 -0.001 16342.6299 -5.1699)">
			<stop  offset="0" style="stop-color:#FFFFFF"/>
			<stop  offset="0.2118" style="stop-color:#FCFCFC"/>
			<stop  offset="0.349" style="stop-color:#F4F4F4"/>
			<stop  offset="0.4627" style="stop-color:#E5E5E5"/>
			<stop  offset="0.5647" style="stop-color:#D0D0D0"/>
			<stop  offset="0.6588" style="stop-color:#B5B5B5"/>
			<stop  offset="0.7451" style="stop-color:#949494"/>
			<stop  offset="0.8275" style="stop-color:#6C6C6C"/>
			<stop  offset="0.9098" style="stop-color:#3E3E3E"/>
			<stop  offset="0.9843" style="stop-color:#0C0C0C"/>
			<stop  offset="1" style="stop-color:#000000"/>
		</linearGradient>
		<path style="fill-rule:evenodd;clip-rule:evenodd;fill:url(#SVGID_35_);" d="M0-29.85v29c0.003-0.1,0.386-0.083,1.15,0.05
			C1.917-0.633,2.517-0.367,2.95,0L2.9-28.85C2.133-29.283,1.167-29.617,0-29.85z"/>
	</g>
</symbol>
<symbol  id="flash0.ai_x5F_7_x2F_Layer_37_copy_x2F__x3C_Path_x3E__x5F_1" viewBox="0 -6.26 20.925 6.26">
	<g id="Layer_1_2_">
		<path style="fill-rule:evenodd;clip-rule:evenodd;" d="M20.7-1.7C21-2.4,21-3,20.7-3.5l-0.55-0.55C19.717-4.483,18.9-4.9,17.7-5.3
			c-2.434-0.8-5.55-1.1-9.35-0.9C5.583-6.033,3.367-5.517,1.7-4.65C0.867-4.183,0.3-3.75,0-3.35L0.2,0c3.3,0,6.633-0.083,10-0.25
			C16.9-0.517,20.4-1,20.7-1.7z"/>
	</g>
</symbol>
<symbol  id="flash0.ai_x5F_7_x2F_Layer_37_copy_x2F__x3C_Path_x3E__x5F_12" viewBox="0 -5.45 21.35 5.45">
	<g id="Layer_1_5_">
		<path style="fill-rule:evenodd;clip-rule:evenodd;" d="M21.35-0.8v-2.1H21.3c-0.133-0.733-1.233-1.333-3.3-1.8
			c-2.033-0.5-4.483-0.75-7.35-0.75S5.333-5.2,3.3-4.7C1.267-4.233,0.167-3.633,0-2.9v2.1h3.25C5.283-0.267,7.75,0,10.65,0
			c2.934,0,5.417-0.267,7.45-0.8H21.35z"/>
	</g>
</symbol>
<symbol  id="flash0.ai_x5F_7_x2F_Layer_37_copy_x2F__x3C_Path_x3E__x5F_1_x5F_0" viewBox="0 -32.95 8.9 32.95">
	<g id="Layer_1_3_">
		<linearGradient id="SVGID_36_" gradientUnits="userSpaceOnUse" x1="-0.0127" y1="-16.4751" x2="8.9123" y2="-16.4751">
			<stop  offset="0" style="stop-color:#FFFFFF"/>
			<stop  offset="1" style="stop-color:#000000"/>
		</linearGradient>
		<path style="fill-rule:evenodd;clip-rule:evenodd;fill:url(#SVGID_36_);" d="M1.1,0c1.566-0.8,4.15-1.233,7.75-1.3L8.9-1.85v-31.1
			c-3.467,0.034-6.233,0.55-8.3,1.55c-0.3,0.3-0.483,0.633-0.55,1L0-30v28.1c0,0.433,0.05,0.7,0.15,0.8C0.383-0.9,0.6-0.667,0.8-0.4
			L1.1,0z"/>
	</g>
</symbol>
<g>
	
		<use xlink:href="#crab"  width="18.08" height="31.02" y="-31" transform="matrix(0.8545 0 0 -0.8799 14.2002 3.1001)" style="overflow:visible;"/>
	
		<use xlink:href="#crab"  width="18.08" height="31.02" y="-31" transform="matrix(-0.9711 0 0 -1 19.2002 6.8501)" style="overflow:visible;"/>
	
		<use xlink:href="#crab"  width="18.08" height="31.02" y="-31" transform="matrix(1 0 0 -1 19.9004 7.3999)" style="overflow:visible;"/>
	
		<use xlink:href="#crab"  width="18.08" height="31.02" y="-31" transform="matrix(1 0 0 -1 6.9502 11.8999)" style="overflow:visible;"/>
</g>
</svg>
