<?xml version="1.0" encoding="iso-8859-1"?>
<!-- Generator: Adobe Illustrator 15.1.0, SVG Export Plug-In . SVG Version: 6.00 Build 0)  -->
<!DOCTYPE svg PUBLIC "-//W3C//DTD SVG 1.1//EN" "http://www.w3.org/Graphics/SVG/1.1/DTD/svg11.dtd">
<svg version="1.1" id="flash0.ai" xmlns="http://www.w3.org/2000/svg" xmlns:xlink="http://www.w3.org/1999/xlink" x="0px" y="0px"
	 width="34.4px" height="31px" viewBox="0 0 34.4 31" style="enable-background:new 0 0 34.4 31;" xml:space="preserve">
<symbol  id="cubimal_1_" viewBox="-1.529 -27.149 29.93 30.98">
	<g id="Layer_1_5_">
		<g>
			<polygon style="fill-rule:evenodd;clip-rule:evenodd;fill:#786131;" points="12.65,-26.55 12.3,-23.35 16.5,-22.55 
				16.851,-25.149 16.2,-25.55 13.601,-26.8 			"/>
			<g>
				<path style="fill-rule:evenodd;clip-rule:evenodd;fill:#5F4E27;" d="M12.65-26.55l-0.15,1.7c0.233-0.066,0.4-0.217,0.5-0.45
					c0.033-0.033,0.083-0.25,0.15-0.65l0.2-0.75L12.65-26.55z"/>
				<path style="fill-rule:evenodd;clip-rule:evenodd;fill:#5F4E27;" d="M14.5-24.7h-0.85v0.15c0.067,0.034,0.367,0.083,0.9,0.15
					L14.5-24.7z"/>
				<path style="fill-rule:evenodd;clip-rule:evenodd;fill:#5F4E27;" d="M16.2-23.7l0.05,0.25l0.45-0.6l0.05-0.55l-0.55-0.05
					c-0.167-0.034-0.683-0.05-1.55-0.05l-0.1,0.3h0.05C15.5-24.3,16.034-24.066,16.2-23.7z"/>
				<polygon style="fill-rule:evenodd;clip-rule:evenodd;fill:#5F4E27;" points="13.601,-26.8 13.4,-26.75 13.4,-26 13.601,-26.75 
									"/>
				<path style="fill-rule:evenodd;clip-rule:evenodd;fill:#40351A;" d="M16.25-23.45L16.2-23.7c-0.167-0.367-0.7-0.6-1.6-0.7h-0.05
					c-0.533-0.067-0.833-0.117-0.9-0.15v-0.15l-0.2-0.9L13.4-26v-0.75l-0.05,0.05l-0.2,0.75c-0.067,0.4-0.117,0.617-0.15,0.65
					c-0.1,0.233-0.267,0.384-0.5,0.45l-0.2,1.5l3.4,0.65l0.05-0.1C16.017-22.966,16.184-23.183,16.25-23.45z"/>
				<path style="fill-rule:evenodd;clip-rule:evenodd;fill:#5F4E27;" d="M14.3-26.45l0.25,2.05l0.1-0.3c0.2-0.733,0.3-1.167,0.3-1.3
					l-0.05-0.05l0.05-0.1L14.3-26.45z"/>
				<path style="fill-rule:evenodd;clip-rule:evenodd;fill:#5F4E27;" d="M16.101-25.55l-0.15-0.1v0.45
					C16.05-25.3,16.101-25.416,16.101-25.55z"/>
				<polygon style="fill-rule:evenodd;clip-rule:evenodd;fill:#5F4E27;" points="16.75,-25.2 16.3,-25.45 16.3,-24.95 				"/>
				<polygon style="fill-rule:evenodd;clip-rule:evenodd;fill:#5F4E27;" points="15.601,-25.85 14.95,-26.149 14.9,-26.05 
					14.95,-26 15.3,-25.45 				"/>
			</g>
			
				<linearGradient id="SVGID_1_" gradientUnits="userSpaceOnUse" x1="372.811" y1="321.4453" x2="374.5627" y2="321.4453" gradientTransform="matrix(0.9991 0.0428 -0.0428 0.9991 -342.5811 -357.5347)">
				<stop  offset="0" style="stop-color:#5F4E29"/>
				<stop  offset="0.9373" style="stop-color:#3A2B0E"/>
			</linearGradient>
			<path style="fill-rule:evenodd;clip-rule:evenodd;fill:url(#SVGID_1_);" d="M15.101-18.1l4.65-0.35
				c-0.333-1.367-0.6-2.316-0.8-2.85c-0.4-1.033-0.816-1.5-1.25-1.4C16.867-22.5,16-20.966,15.101-18.1z"/>
			
				<linearGradient id="SVGID_2_" gradientUnits="userSpaceOnUse" x1="-2107.0039" y1="-13439.3066" x2="-2087.8555" y2="-13439.3066" gradientTransform="matrix(0.3068 -0.9518 0.9518 0.3068 13448.4844 2113.2158)">
				<stop  offset="0" style="stop-color:#F6DF99"/>
				<stop  offset="1" style="stop-color:#DDC889"/>
			</linearGradient>
			<path style="fill-rule:evenodd;clip-rule:evenodd;fill:url(#SVGID_2_);" d="M11.05-1c0.9,0.033,2.833-0.15,5.8-0.55
				c3.1-0.433,5.017-0.65,5.75-0.65c1.133,0,1.983-0.216,2.55-0.65c0.367-0.333,0.633-0.8,0.8-1.4
				c0.167-0.534,0.25-4.383,0.25-11.55v-1.45c-0.033-0.5-0.183-0.95-0.45-1.35c-0.267-0.434-1.167-1.184-2.7-2.25
				c-1.367-0.967-2.35-1.6-2.95-1.9c-1.633-0.934-2.9-1.4-3.8-1.4c-2.4,0.3-4.25,0.45-5.55,0.45c-0.767,0.034-2.217,0.2-4.35,0.5
				c-2.1,0.3-3.35,0.483-3.75,0.55c-0.7,0.133-1.183,0.433-1.45,0.9c-0.333,0.667-0.517,2.017-0.55,4.05
				c-0.167,3.233-0.25,5.6-0.25,7.1c0.033,2.667,0.417,4.25,1.15,4.75c0.967,0.667,2.5,1.566,4.6,2.7
				C8.684-1.75,10.317-1.033,11.05-1z"/>
			
				<linearGradient id="SVGID_3_" gradientUnits="userSpaceOnUse" x1="-2369.7686" y1="-12874.2607" x2="-2352.7708" y2="-12874.2607" gradientTransform="matrix(0.3574 -0.934 0.934 0.3574 12889.2227 2381.1631)">
				<stop  offset="0" style="stop-color:#D8C486"/>
				<stop  offset="1" style="stop-color:#A09063"/>
			</linearGradient>
			<path style="fill-rule:evenodd;clip-rule:evenodd;fill:url(#SVGID_3_);" d="M18.2-23.55c-0.966-0.366-1.6-0.566-1.9-0.6
				c0.333,0.667,0.483,1.383,0.45,2.15L16.7-8l0.05,0.15c0.2,0.2,1.117,0.7,2.75,1.5c1.833,0.9,3.017,1.517,3.55,1.85
				c0.434,0.3,1.184,0.8,2.25,1.5c0.333-0.367,0.55-0.784,0.65-1.25c0.067-0.2,0.133-1.067,0.2-2.6c0.033-1.066,0.05-4.05,0.05-8.95
				v-1.45c-0.033-0.5-0.183-0.95-0.45-1.35c-0.267-0.434-1.167-1.184-2.7-2.25c-1.367-0.967-2.35-1.6-2.95-1.9
				C19.8-22.916,19.167-23.183,18.2-23.55z"/>
			<linearGradient id="SVGID_4_" gradientUnits="userSpaceOnUse" x1="1.1006" y1="-4.417" x2="25.3006" y2="-4.417">
				<stop  offset="0" style="stop-color:#F7E4AA"/>
				<stop  offset="1" style="stop-color:#E9D390"/>
			</linearGradient>
			<path style="fill-rule:evenodd;clip-rule:evenodd;fill:url(#SVGID_4_);" d="M19.851-6.2c-1.867-0.9-2.9-1.45-3.1-1.65
				c-0.867,0.066-3.767,0.367-8.7,0.9c-3.733,0.4-6.066,0.567-7,0.5c0.167,0.267,0.333,0.467,0.5,0.6c0.967,0.667,2.5,1.566,4.6,2.7
				c2.533,1.4,4.167,2.116,4.9,2.15c2.267,0.1,6.117-0.3,11.55-1.2c1.433-0.2,2.333-0.466,2.7-0.8
				c-0.367-0.367-0.883-0.767-1.55-1.2C23.25-4.5,21.95-5.166,19.851-6.2z"/>
			<path style="fill-rule:evenodd;clip-rule:evenodd;fill:#FAEFD7;" d="M13.55-7.45c1.833-0.133,2.883-0.167,3.15-0.1
				c0.333,0.034,1.633,0.65,3.9,1.85c1.466,0.767,3.033,1.667,4.7,2.7c-0.066-0.4-1.45-1.333-4.15-2.8
				c-2.7-1.5-4.083-2.417-4.15-2.75c-0.067-0.366-0.067-4.517,0-12.45c-0.033-1.7-0.267-2.75-0.7-3.15l0.2,0.6
				c0.1,0.267,0.133,2.267,0.1,6c-0.034,3.467-0.083,5.833-0.15,7.1c-0.066,1.1-0.133,1.733-0.2,1.9c-0.067,0.2-0.25,0.333-0.55,0.4
				c-0.4,0.1-3.233,0.417-8.5,0.95l-6.1,1L8.7-7C10.067-7.166,11.684-7.316,13.55-7.45z"/>
			<path style="fill-rule:evenodd;clip-rule:evenodd;fill:#5B5239;" d="M16.351-23.45c-2.434,0.233-4.3,0.333-5.6,0.3
				c-0.867,0-3.567,0.283-8.1,0.85c-0.667,0.067-1.117,0.317-1.35,0.75c-0.367,0.634-0.566,1.884-0.6,3.75L1.4-18
				c0.4-0.034,2.917-0.25,7.55-0.65c4.6-0.4,7.117-0.534,7.55-0.4c0.7,0.167,2.35,1.034,4.95,2.6c2.767,1.667,4.35,2.833,4.75,3.5
				v-3.3c-0.033-0.5-0.183-0.95-0.45-1.35c-0.267-0.434-1.167-1.217-2.7-2.35c-1.367-1-2.35-1.667-2.95-2
				C18.333-22.95,17.083-23.45,16.351-23.45z"/>
			<path style="fill-rule:evenodd;clip-rule:evenodd;fill:#954720;" d="M16.3-24.149c-2.4,0.3-4.25,0.45-5.55,0.45
				c-0.767,0.034-2.217,0.2-4.35,0.5c-2.1,0.3-3.35,0.483-3.75,0.55c-0.667,0.1-1.133,0.366-1.4,0.8
				c-0.367,0.667-0.567,1.934-0.6,3.8c0.267-0.133,0.517-0.216,0.75-0.25c0.367-0.033,2.883-0.333,7.55-0.9
				c4.567-0.5,7.083-0.7,7.55-0.6c0.667,0.167,2.316,0.983,4.95,2.45c2.767,1.6,4.35,2.733,4.75,3.4v-3.3
				c-0.033-0.5-0.183-0.95-0.45-1.35c-0.267-0.434-1.167-1.184-2.7-2.25c-1.367-0.967-2.35-1.6-2.95-1.9
				C18.467-23.683,17.2-24.149,16.3-24.149z"/>
			<g>
				<polygon style="fill-rule:evenodd;clip-rule:evenodd;fill:#637118;" points="8.7,-23.55 8.7,-20.899 9.45,-21.149 9.45,-21.399 
					9.7,-23.35 9.7,-23.649 				"/>
				<path style="fill-rule:evenodd;clip-rule:evenodd;fill:#637118;" d="M3.05-19.399v-3.3l-0.4,0.05H2.5v0.25
					c-0.2,0.933-0.3,1.866-0.3,2.8l0.45,0.2H3.05z"/>
				<path style="fill-rule:evenodd;clip-rule:evenodd;fill:#637118;" d="M13.95-23.899l-0.15,2.8l1.1,0.25
					c0.067-1.066,0.067-2.117,0-3.15L13.95-23.899z"/>
				<path style="fill-rule:evenodd;clip-rule:evenodd;fill:#642F15;" d="M16.5-19.8l1.05,0.45l-0.1-0.45
					c-0.167-0.566-0.466-0.883-0.9-0.95c-0.667,0.033-1.15,0.017-1.45-0.05l-1.3-0.3h-0.15c-0.433-0.066-0.833-0.15-1.2-0.25
					c-0.433-0.167-0.933-0.217-1.5-0.15c-0.267,0.033-0.767,0.15-1.5,0.35l-0.75,0.25c-1.033,0.433-1.816,0.75-2.35,0.95
					c-0.8,0.3-1.9,0.483-3.3,0.55L0.7-19.45l-0.05,1.4c0.267-0.133,0.517-0.216,0.75-0.25c0.367-0.033,2.883-0.333,7.55-0.9
					C13.517-19.7,16.034-19.899,16.5-19.8z"/>
			</g>
			<path style="fill-rule:evenodd;clip-rule:evenodd;fill:#642F15;" d="M16.5-24.149c0.066,0.3,0.133,1.167,0.2,2.6
				c0.2,0.634,0.3,1.284,0.3,1.95c1.233,0.533,2.917,1.417,5.05,2.65c2.4,1.4,3.783,2.4,4.15,3v-3.3
				c-0.033-0.5-0.183-0.95-0.45-1.35c-0.267-0.434-1.167-1.184-2.7-2.25c-1.367-0.967-2.35-1.6-2.95-1.9
				C18.634-23.55,17.434-24.016,16.5-24.149z"/>
			<g>
				<polygon style="fill-rule:evenodd;clip-rule:evenodd;fill:#485311;" points="22.2,-21.45 22.2,-18.25 22.95,-18.149 
					22.95,-20.899 				"/>
				<polygon style="fill-rule:evenodd;clip-rule:evenodd;fill:#485311;" points="18.9,-23.35 18.95,-20.7 19.55,-20.35 
					19.55,-23.05 				"/>
				<polygon style="fill-rule:evenodd;clip-rule:evenodd;fill:#485311;" points="24.95,-19.399 25.101,-16.7 25.2,-16.7 
					25.2,-18.899 25.25,-19.149 				"/>
				<path style="fill-rule:evenodd;clip-rule:evenodd;fill:#4D2410;" d="M19.55-20.35l-0.6-0.35l-0.5-0.15
					c-0.133-0.033-0.6,0-1.4,0.1v0.2l-0.1,0.25L17-19.6c1.233,0.533,2.917,1.417,5.05,2.65c2.4,1.4,3.783,2.4,4.15,3v-2.6
					l-0.05-0.05c-0.433-0.033-0.75-0.066-0.95-0.1h-0.1c-0.1,0-0.233-0.05-0.4-0.15l-0.9-0.9c-0.333-0.167-0.583-0.3-0.75-0.4h-0.1
					l-0.75-0.1c-0.333,0-0.55-0.034-0.65-0.1c-0.2-0.367-0.367-0.617-0.5-0.75L19.55-20.35z"/>
			</g>
			<path style="fill-rule:evenodd;clip-rule:evenodd;fill:#3D3628;" d="M23.5-18.05l0.75-0.1c0.233-0.3,0.25-0.65,0.05-1.05
				c-0.167-0.367-0.55-0.483-1.15-0.35c-0.233,0.067-0.367,0.15-0.4,0.25c0,0.034,0.05,0.2,0.15,0.5
				C23.034-18.333,23.234-18.083,23.5-18.05z"/>
			<path style="fill-rule:evenodd;clip-rule:evenodd;fill:#242017;" d="M23.15-18.149l0.35-0.25c-0.233-0.1-0.4-0.184-0.5-0.25
				c-0.133-0.067-0.167-0.233-0.1-0.5l1.35-0.4c-0.2-0.167-0.533-0.267-1-0.3c-0.467,0-0.75,0.1-0.85,0.3
				c-0.133,0.233-0.1,0.517,0.1,0.85C22.667-18.399,22.884-18.216,23.15-18.149z"/>
			
				<linearGradient id="SVGID_5_" gradientUnits="userSpaceOnUse" x1="-3237.1328" y1="-6433.5215" x2="-3232.0176" y2="-6433.5215" gradientTransform="matrix(0.8064 -0.5914 0.5914 0.8064 6417.6284 3251.5645)">
				<stop  offset="0" style="stop-color:#F6DF99"/>
				<stop  offset="1" style="stop-color:#DDC889"/>
			</linearGradient>
			<path style="fill-rule:evenodd;clip-rule:evenodd;fill:url(#SVGID_5_);" d="M4-20.45l0.3,0.35c0.934,0.4,1.667,0.15,2.2-0.75
				c0.5-0.867,0.517-1.467,0.05-1.8C6.25-22.883,6.067-23.5,6-24.5c0-0.5,0.017-0.967,0.05-1.4L5.4-25.3
				c-0.3,0.267-0.467,0.583-0.5,0.95v0.45l-0.75-0.95c-0.3-0.4-0.45-0.9-0.45-1.5c0.034-0.3,0.083-0.566,0.15-0.8
				c-0.467,0.4-0.784,0.95-0.95,1.65c-0.067,0.466-0.083,0.85-0.05,1.15L2.9-24l-0.35-0.4l-0.8-1.45c-0.033,0.4,0.083,1,0.35,1.8
				c0.133,0.534,0.466,1.2,1,2c0.267,0.4,0.517,0.75,0.75,1.05c0,0.1,0,0.183,0,0.25C3.884-20.55,3.934-20.45,4-20.45z"/>
			<g>
				
					<linearGradient id="SVGID_6_" gradientUnits="userSpaceOnUse" x1="-3239.4844" y1="-6443.167" x2="-3230.9539" y2="-6443.167" gradientTransform="matrix(0.8059 -0.592 0.592 0.8059 6426.6304 3252.9463)">
					<stop  offset="0" style="stop-color:#DEC989"/>
					<stop  offset="1" style="stop-color:#5F563B"/>
				</linearGradient>
				<path style="fill-rule:evenodd;clip-rule:evenodd;fill:url(#SVGID_6_);" d="M4.8-22.8v-0.85l0.25,1.25
					c0.1,0.2,0.167,0.35,0.2,0.45c0.033,0.167,0.017,0.317-0.05,0.45c-0.167,0.367-0.517,0.517-1.05,0.45v0.1
					c0.3,0,0.567-0.066,0.8-0.2c0.4-0.134,0.684-0.534,0.85-1.2c0.133-0.4,0.283-0.65,0.45-0.75C6.083-23.5,6-24.083,6-24.85
					c0-0.4,0.017-0.75,0.05-1.05L5.4-25.3c-0.3,0.267-0.467,0.583-0.5,0.95v0.45l-0.75-0.95c-0.3-0.4-0.45-0.9-0.45-1.5
					c0.034-0.3,0.083-0.566,0.15-0.8c-0.467,0.4-0.784,0.95-0.95,1.65c-0.067,0.466-0.083,0.85-0.05,1.15L2.9-24l-0.35-0.4
					l-0.8-1.45l0.1,0.95l0.45,0.65c0.333,0.5,0.6,0.75,0.8,0.75c0.033-0.3,0.05-0.767,0.05-1.4c0.067,0.233,0.233,0.5,0.5,0.8
					l0.6,0.75C4.45-22.916,4.634-22.733,4.8-22.8z"/>
				<path style="fill-rule:evenodd;clip-rule:evenodd;fill:#726941;" d="M4.15-20.95h-0.3c0,0.333,0.05,0.5,0.15,0.5l0.3,0.35
					c0.934,0.4,1.667,0.15,2.2-0.75c0.5-0.867,0.517-1.467,0.05-1.8c-0.133-0.1-0.233-0.25-0.3-0.45C6.083-23,5.934-22.75,5.8-22.35
					c-0.167,0.667-0.45,1.066-0.85,1.2C4.717-21.016,4.45-20.95,4.15-20.95z"/>
			</g>
			<path style="fill-rule:evenodd;clip-rule:evenodd;fill:#833F1C;" d="M4.2-19.399c0.6,0.267,1.284,0.267,2.05,0
				c0.7-0.2,1.167-0.5,1.4-0.9c0.367-0.7,0.4-1.383,0.1-2.05c-0.1-0.3-0.55-0.467-1.35-0.5c0.1,0.233,0.15,0.483,0.15,0.75
				c-0.033,0.566-0.35,0.967-0.95,1.2c-0.6,0.233-1.1,0.25-1.5,0.05L3.7-21.2c-0.133,0.2-0.233,0.45-0.3,0.75
				c-0.067,0.167,0,0.367,0.2,0.6C3.8-19.649,4-19.5,4.2-19.399z"/>
			<path style="fill-rule:evenodd;clip-rule:evenodd;fill:#745336;" d="M18.95-11.6c0.3,0.434,0.633,0.65,1,0.65
				c0.867,0,1.367-0.216,1.5-0.65c0.067-0.267,0.05-0.783-0.05-1.55c0-0.434,0.05-0.967,0.15-1.6c-0.066-0.434-0.6-0.65-1.6-0.65
				c-0.367,0-0.7,0.216-1,0.65c-0.267,0.433-0.4,0.966-0.4,1.6C18.55-12.55,18.684-12.033,18.95-11.6z"/>
			<path style="fill-rule:evenodd;clip-rule:evenodd;fill:#745336;" d="M25.8-10.5c0-0.367,0.033-0.85,0.1-1.45
				c-0.033-0.4-0.383-0.6-1.05-0.6c-0.267,0-0.483,0.2-0.65,0.6c-0.2,0.434-0.3,0.917-0.3,1.45c0,0.566,0.1,1.066,0.3,1.5
				c0.167,0.4,0.383,0.6,0.65,0.6c0.667,0,1.017-0.2,1.05-0.6C25.934-9.266,25.9-9.766,25.8-10.5z"/>
			<path style="fill-rule:evenodd;clip-rule:evenodd;fill:#A0744B;" d="M19.65-11.6c0.267,0.434,0.6,0.65,1,0.65
				c0.367,0,0.7-0.216,1-0.65c0.267-0.434,0.4-0.95,0.4-1.55c0-0.634-0.133-1.167-0.4-1.6c-0.3-0.434-0.633-0.65-1-0.65
				c-0.4,0-0.733,0.216-1,0.65c-0.3,0.433-0.45,0.966-0.45,1.6C19.2-12.516,19.351-12,19.65-11.6z"/>
			<path style="fill-rule:evenodd;clip-rule:evenodd;fill:#A0744B;" d="M26.45-10.5c0-0.534-0.1-1.017-0.3-1.45
				c-0.167-0.4-0.383-0.6-0.65-0.6s-0.483,0.2-0.65,0.6c-0.2,0.434-0.3,0.917-0.3,1.45c0,0.566,0.1,1.066,0.3,1.5
				c0.167,0.4,0.383,0.6,0.65,0.6s0.483-0.2,0.65-0.6C26.351-9.433,26.45-9.933,26.45-10.5z"/>
			<path style="fill-rule:evenodd;clip-rule:evenodd;fill:#BD9372;" d="M19.55-12.149c0,0.233,0.1,0.316,0.3,0.25
				c0.667-0.134,1.216-0.583,1.65-1.35c0.433-0.733,0.517-1.15,0.25-1.25c-0.133-0.034-0.4,0.167-0.8,0.6
				c-0.533,0.6-0.867,0.95-1,1.05C19.65-12.649,19.517-12.416,19.55-12.149z"/>
			<path style="fill-rule:evenodd;clip-rule:evenodd;fill:#BD9372;" d="M21.15-11.649c0.367-0.1,0.433-0.567,0.2-1.4
				c-0.034-0.233-0.167-0.566-0.4-1c-0.267-0.533-0.517-0.8-0.75-0.8c-0.2-0.033-0.283,0.05-0.25,0.25
				c0.034,0.033,0.15,0.267,0.35,0.7C20.467-13.6,20.75-12.85,21.15-11.649z"/>
			<path style="fill-rule:evenodd;clip-rule:evenodd;fill:#BD9372;" d="M25.05-9.2c0.434-0.233,0.75-0.716,0.95-1.45
				c0.2-0.7,0.233-1.083,0.1-1.15c-0.067-0.033-0.2,0.134-0.4,0.5c-0.3,0.567-0.483,0.884-0.55,0.95c-0.2,0.267-0.3,0.55-0.3,0.85
				C24.851-9.233,24.917-9.133,25.05-9.2z"/>
			<path style="fill-rule:evenodd;clip-rule:evenodd;fill:#BD9372;" d="M25.851-8.899c0.2-0.134,0.233-0.7,0.1-1.7
				c-0.167-0.967-0.367-1.45-0.6-1.45c-0.1-0.033-0.083,0.2,0.05,0.7L25.851-8.899z"/>
			<path style="fill-rule:evenodd;clip-rule:evenodd;fill:#776042;" d="M24.55-13.45c0.167-0.066,0.15-0.25-0.05-0.55
				c-0.2-0.267-0.45-0.467-0.75-0.6c-0.733-0.333-1.25-0.483-1.55-0.45c-0.2,0-0.2,0.1,0,0.3c0.167,0.167,0.4,0.267,0.7,0.3
				c0.433,0.067,0.817,0.267,1.15,0.6C24.317-13.55,24.484-13.416,24.55-13.45z"/>
			
				<linearGradient id="SVGID_7_" gradientUnits="userSpaceOnUse" x1="-2090.9297" y1="-13451.4297" x2="-2084.4705" y2="-13451.4297" gradientTransform="matrix(0.3058 -0.9521 0.9521 0.3058 13459.8662 2107.375)">
				<stop  offset="0" style="stop-color:#9D8E62"/>
				<stop  offset="1" style="stop-color:#94865C"/>
			</linearGradient>
			<path style="fill-rule:evenodd;clip-rule:evenodd;fill:url(#SVGID_7_);" d="M12.601-20.8c-0.6-0.233-1.217-0.2-1.85,0.1
				c-0.733,0.3-1.7,0.6-2.9,0.9c-1.167,0.267-1.95,0.4-2.35,0.4c-1.5,0.2-2.65,0.316-3.45,0.35h-2.6l0.35,0.5
				c0.267,0.267,0.5,0.583,0.7,0.95L2.45-18c1.633-0.3,3.3-0.517,5-0.65c2.7-0.267,5.784-0.434,9.25-0.5l2.4,1.3
				c1.733,0.967,2.966,1.684,3.7,2.15c1.167,0.733,2.283,1.534,3.35,2.4l0.4-0.2c0.367-0.167,0.7-0.267,1-0.3l0.75-0.05
				c-0.167-0.867-0.533-1.3-1.1-1.3c-0.7,0-1.45-0.267-2.25-0.8c-0.5-0.433-0.9-0.767-1.2-1c-0.567-0.433-1.017-0.667-1.35-0.7
				c-0.733-0.034-1.45-0.45-2.15-1.25c-0.934-1.034-1.85-1.534-2.75-1.5c-0.233,0-0.867,0.083-1.9,0.25c-0.7,0.1-1.233,0.1-1.6,0
				C13.4-20.45,12.934-20.666,12.601-20.8z"/>
			
				<linearGradient id="SVGID_8_" gradientUnits="userSpaceOnUse" x1="-2091.1846" y1="-13451.2578" x2="-2084.7253" y2="-13451.2578" gradientTransform="matrix(0.3058 -0.9521 0.9521 0.3058 13459.8662 2107.375)">
				<stop  offset="0" style="stop-color:#F6DF99"/>
				<stop  offset="1" style="stop-color:#DDC889"/>
			</linearGradient>
			<path style="fill-rule:evenodd;clip-rule:evenodd;fill:url(#SVGID_8_);" d="M12.7-20.5c-0.6-0.233-1.233-0.2-1.9,0.1
				c-0.7,0.333-1.667,0.633-2.9,0.9c-1.133,0.267-1.917,0.4-2.35,0.4c-1.5,0.2-2.633,0.333-3.4,0.4H-0.5l0.4,0.5
				c0.233,0.233,0.45,0.534,0.65,0.9l1.95-0.4c1.633-0.267,3.3-0.483,5-0.65c2.7-0.233,5.783-0.4,9.25-0.5l2.4,1.3
				c1.767,0.967,3.017,1.684,3.75,2.15c1.167,0.733,2.267,1.55,3.3,2.45l0.45-0.25c0.367-0.133,0.7-0.216,1-0.25l0.75-0.1
				c-0.167-0.866-0.55-1.3-1.15-1.3c-0.733,0-1.483-0.267-2.25-0.8c-0.467-0.434-0.867-0.767-1.2-1
				c-0.533-0.434-0.983-0.667-1.35-0.7C21.717-17.383,21-17.8,20.3-18.6c-0.833-1.033-1.75-1.533-2.75-1.5
				c-0.233,0-0.867,0.083-1.9,0.25c-0.7,0.1-1.233,0.1-1.6,0C13.484-20.149,13.034-20.366,12.7-20.5z"/>
			
				<linearGradient id="SVGID_9_" gradientUnits="userSpaceOnUse" x1="-2095.1289" y1="-13449.7129" x2="-2089.0095" y2="-13449.7129" gradientTransform="matrix(0.3064 -0.9519 0.9519 0.3064 13452.873 2110.9648)">
				<stop  offset="0" style="stop-color:#C9B67D"/>
				<stop  offset="1" style="stop-color:#C2AF78"/>
			</linearGradient>
			<path style="fill-rule:evenodd;clip-rule:evenodd;fill:url(#SVGID_9_);" d="M13.45-19.3c-0.533-0.167-0.9-0.3-1.1-0.4
				c-0.267-0.167-0.567-0.233-0.9-0.2c-0.3,0.033-0.566,0.116-0.8,0.25c-0.267,0.2-0.483,0.35-0.65,0.45
				c-0.633,0.2-1.1,0.35-1.4,0.45c-0.534,0.133-1.284,0.233-2.25,0.3c-1.233,0.1-1.917,0.167-2.05,0.2
				c-0.267,0.133-0.45,0.216-0.55,0.25c-0.133,0.066-0.45,0.1-0.95,0.1c-0.533,0-0.967,0.083-1.3,0.25
				c-0.333,0.1-0.583,0.216-0.75,0.35c1.467-0.4,3.717-0.75,6.75-1.05c2.7-0.233,5.783-0.4,9.25-0.5l0.2,0.1
				c0.034-0.233-0.017-0.567-0.15-1c-0.367-0.067-0.65-0.05-0.85,0.05c-0.2,0.233-0.4,0.383-0.6,0.45
				C14.55-19.116,13.917-19.133,13.45-19.3z"/>
			
				<linearGradient id="SVGID_10_" gradientUnits="userSpaceOnUse" x1="-2091.1973" y1="-13442.959" x2="-2084.738" y2="-13442.959" gradientTransform="matrix(0.3058 -0.9521 0.9521 0.3058 13459.8662 2107.375)">
				<stop  offset="0" style="stop-color:#D8C486"/>
				<stop  offset="1" style="stop-color:#A09063"/>
			</linearGradient>
			<path style="fill-rule:evenodd;clip-rule:evenodd;fill:url(#SVGID_10_);" d="M17.55-20.1h-0.1l-0.5,1.35
				c0.567,0.333,2.55,1.45,5.95,3.35c1.167,0.733,2.267,1.55,3.3,2.45l0.45-0.25c0.367-0.133,0.7-0.216,1-0.25l0.75-0.1
				c-0.167-0.866-0.55-1.3-1.15-1.3c-0.733,0-1.483-0.267-2.25-0.8c-0.467-0.434-0.867-0.767-1.2-1
				c-0.533-0.434-0.983-0.667-1.35-0.7C21.717-17.383,21-17.8,20.3-18.6C19.467-19.633,18.55-20.133,17.55-20.1z"/>
			
				<linearGradient id="SVGID_11_" gradientUnits="userSpaceOnUse" x1="-2102.2705" y1="-13426.1104" x2="-2094.6255" y2="-13426.1104" gradientTransform="matrix(0.3074 -0.9516 0.9516 0.3074 13442.2891 2116.3877)">
				<stop  offset="0" style="stop-color:#C9B67C"/>
				<stop  offset="1" style="stop-color:#96875C"/>
			</linearGradient>
			<path style="fill-rule:evenodd;clip-rule:evenodd;fill:url(#SVGID_11_);" d="M19.7-17.8l-0.8-0.85c-0.4-0.333-0.633-0.5-0.7-0.5
				c-0.4-0.1-0.8-0.017-1.2,0.25l-0.05,0.15c0.567,0.333,2.55,1.45,5.95,3.35c1.167,0.733,2.267,1.55,3.3,2.45l0.65-0.3
				c-0.133-0.133-0.217-0.2-0.25-0.2c-0.133-0.033-0.233-0.1-0.3-0.2c0-0.034,0.017-0.117,0.05-0.25l-0.2-0.2
				c-0.2-0.2-0.467-0.333-0.8-0.4l-0.75-0.3c-0.267-0.1-0.5-0.316-0.7-0.65c-0.333-0.466-0.683-0.833-1.05-1.1
				c-0.233-0.2-0.733-0.3-1.5-0.3C20.784-16.85,20.234-17.166,19.7-17.8z"/>
			
				<linearGradient id="SVGID_12_" gradientUnits="userSpaceOnUse" x1="-2120.333" y1="-13445.1572" x2="-2097.0337" y2="-13445.1572" gradientTransform="matrix(0.3069 -0.9517 0.9517 0.3069 13447.7773 2113.5781)">
				<stop  offset="0" style="stop-color:#C9B67D"/>
				<stop  offset="1" style="stop-color:#C2AF78"/>
			</linearGradient>
			<path style="fill-rule:evenodd;clip-rule:evenodd;fill:url(#SVGID_12_);" d="M6.55-7.399c0.5-3.2,0.55-6.833,0.15-10.9
				c-0.1,0.333-0.183,1.284-0.25,2.85L6.55-7.399z"/>
			
				<linearGradient id="SVGID_13_" gradientUnits="userSpaceOnUse" x1="-2108.0664" y1="-13443.0664" x2="-2103.1804" y2="-13443.0664" gradientTransform="matrix(0.307 -0.9517 0.9517 0.307 13446.4209 2114.2725)">
				<stop  offset="0" style="stop-color:#C9B67D"/>
				<stop  offset="1" style="stop-color:#C2AF78"/>
			</linearGradient>
			<path style="fill-rule:evenodd;clip-rule:evenodd;fill:url(#SVGID_13_);" d="M7.4-11.05v-0.25c-0.433,0-0.817,0.2-1.15,0.6
				c-0.3,0.367-0.417,0.767-0.35,1.2l0.5-0.65c0.233-0.3,0.433-0.5,0.6-0.6C7.267-10.916,7.4-11.016,7.4-11.05z"/>
			
				<linearGradient id="SVGID_14_" gradientUnits="userSpaceOnUse" x1="-2087.2402" y1="-13479.5752" x2="-2084.8525" y2="-13479.5752" gradientTransform="matrix(0.3036 -0.9528 0.9528 0.3036 13482.7725 2095.5693)">
				<stop  offset="0" style="stop-color:#C9B67D"/>
				<stop  offset="1" style="stop-color:#C2AF78"/>
			</linearGradient>
			<path style="fill-rule:evenodd;clip-rule:evenodd;fill:url(#SVGID_14_);" d="M7.15-9.75l0.25-0.15c0-0.367-0.25-0.717-0.75-1.05
				c-0.5-0.3-0.9-0.333-1.2-0.1L6.3-10.5C6.8-10,7.083-9.75,7.15-9.75z"/>
			
				<linearGradient id="SVGID_15_" gradientUnits="userSpaceOnUse" x1="-2103.0225" y1="-13447.0449" x2="-2096.666" y2="-13447.0449" gradientTransform="matrix(0.3068 -0.9518 0.9518 0.3068 13448.9072 2113)">
				<stop  offset="0" style="stop-color:#C9B67D"/>
				<stop  offset="1" style="stop-color:#C2AF78"/>
			</linearGradient>
			<path style="fill-rule:evenodd;clip-rule:evenodd;fill:url(#SVGID_15_);" d="M6.4-15.1l1.55-1.6
				c-0.367-0.033-0.917,0.233-1.65,0.8c-0.533,0.333-0.75,0.816-0.65,1.45C5.784-14.516,6.034-14.733,6.4-15.1z"/>
			
				<linearGradient id="SVGID_16_" gradientUnits="userSpaceOnUse" x1="-2113.9424" y1="-13422.0664" x2="-2109.7363" y2="-13422.0664" gradientTransform="matrix(0.3091 -0.951 0.951 0.3091 13423.876 2125.791)">
				<stop  offset="0" style="stop-color:#C9B67D"/>
				<stop  offset="1" style="stop-color:#C2AF78"/>
			</linearGradient>
			<path style="fill-rule:evenodd;clip-rule:evenodd;fill:url(#SVGID_16_);" d="M7.7-14.35h0.2c-0.167-0.167-0.333-0.483-0.5-0.95
				c-0.133-0.5-0.267-0.816-0.4-0.95c-0.167-0.2-0.434-0.383-0.8-0.55c-0.433-0.2-0.683-0.167-0.75,0.1
				c-0.033,0.2,0.117,0.417,0.45,0.65c0.167,0.134,0.4,0.284,0.7,0.45c0.1,0.1,0.267,0.333,0.5,0.7C7.3-14.6,7.5-14.416,7.7-14.35z"
				/>
			<linearGradient id="SVGID_17_" gradientUnits="userSpaceOnUse" x1="0.5005" y1="-6.2461" x2="26.0255" y2="-6.2461">
				<stop  offset="0" style="stop-color:#B6A471"/>
				<stop  offset="1" style="stop-color:#A09063"/>
			</linearGradient>
			<path style="fill-rule:evenodd;clip-rule:evenodd;fill:url(#SVGID_17_);" d="M2.25-5.3C2.717-4.966,5.134-4.8,9.5-4.8l11.4,2.35
				c0.367,0.034,1.083-0.05,2.15-0.25c1.167-0.2,2.033-0.45,2.6-0.75c0.567-0.267,0.567-0.65,0-1.15C25.117-5.066,24.567-5.3,24-5.3
				c-0.434,0-0.967-0.35-1.6-1.05c-0.833-0.934-1.5-1.667-2-2.2c-0.667-0.733-1.5-1.183-2.5-1.35c-0.5-0.1-1.583-0.15-3.25-0.15
				c-0.967,0-2.1,0.25-3.4,0.75C9.95-8.8,9.2-8.55,9-8.55C8.101-8.583,7.367-8.6,6.8-8.6c-1.066,0-1.867,0.1-2.4,0.3
				C3.867-8.1,3.067-8,2-8L0.5-8.05l0.25,1.1c0.1,0.467,0.3,0.817,0.6,1.05C1.517-5.766,1.817-5.566,2.25-5.3z"/>
			<linearGradient id="SVGID_18_" gradientUnits="userSpaceOnUse" x1="0.4878" y1="-6.2461" x2="26.0128" y2="-6.2461">
				<stop  offset="0" style="stop-color:#736847"/>
				<stop  offset="1" style="stop-color:#857751"/>
			</linearGradient>
			<path style="fill-rule:evenodd;clip-rule:evenodd;fill:url(#SVGID_18_);" d="M16.9-10.05c-0.233,2.233-1.05,3.75-2.45,4.55
				c-0.9,0.466-2.35,0.733-4.35,0.8l10.8,2.25c0.367,0.034,1.083-0.05,2.15-0.25c1.167-0.2,2.033-0.45,2.6-0.75
				c0.567-0.267,0.567-0.65,0-1.15C25.117-5.066,24.567-5.3,24-5.3c-0.434,0-0.967-0.35-1.6-1.05c-0.833-0.934-1.5-1.667-2-2.2
				C19.567-9.45,18.4-9.95,16.9-10.05z"/>
			<path style="fill-rule:evenodd;clip-rule:evenodd;fill:#644A1C;" d="M6-0.75c1.967,1.066,3.85,1.55,5.65,1.45L15.5,0
				c0.367-0.067,1.833-0.167,4.4-0.3c2.267-0.133,4.083-0.366,5.45-0.7c1.7-0.4,2.383-1,2.05-1.8c-0.333-0.733-1.283-1.2-2.85-1.4
				c-1.133-0.167-2.15-0.75-3.05-1.75c-1.033-1.233-1.767-1.95-2.2-2.15c-0.967-0.434-2.133-0.633-3.5-0.6
				c-1.367,0-2.5,0.25-3.4,0.75c-1.433,0.8-3.85,1-7.25,0.6C4.284-7.45,3.417-7.333,2.55-7C1.484-6.533,0.534-6.149-0.3-5.85
				c-1.133,0.4-1.483,0.867-1.05,1.4c0.267,0.367,1.017,0.867,2.25,1.5C2.167-2.283,3.867-1.55,6-0.75z"/>
			<path style="fill-rule:evenodd;clip-rule:evenodd;fill:#8C6627;" d="M6-0.6c1.933,0.967,3.816,1.4,5.65,1.3
				c1.033-0.033,2.317-0.233,3.85-0.6c0.467-0.067,1.933-0.167,4.4-0.3c2.267-0.1,4.083-0.3,5.45-0.6
				c1.7-0.366,2.383-0.917,2.05-1.65c-0.333-0.667-1.283-1.1-2.85-1.3c-1.133-0.133-2.15-0.667-3.05-1.6
				c-1.033-1.1-1.767-1.733-2.2-1.9c-0.967-0.4-2.133-0.6-3.5-0.6c-1.367,0.033-2.5,0.283-3.4,0.75
				c-1.367,0.7-3.783,0.883-7.25,0.55c-0.9-0.1-1.767,0-2.6,0.3C1.484-5.816,0.534-5.466-0.3-5.2
				c-1.133,0.367-1.483,0.784-1.05,1.25C-1.083-3.616-0.333-3.166,0.9-2.6C2.167-2,3.867-1.333,6-0.6z"/>
			<g>
				<path style="fill-rule:evenodd;clip-rule:evenodd;fill:#7B5A23;" d="M6-0.6l1.95,0.8c1.4,0.434,2.817,0.6,4.25,0.5
					c0.8-0.1,1.817-0.283,3.05-0.55c-0.5,0-0.867,0.017-1.1,0.05l-9-1.9c-0.233,0-1.033-0.083-2.4-0.25
					c0.1-0.433,0.633-0.667,1.6-0.7c1.133,0,1.767-0.05,1.9-0.15c-2.067-0.767-2.6-1.233-1.6-1.4c0.533-0.066,1.167,0,1.9,0.2
					L8.4-3.45C9-3.35,9.917-3.3,11.15-3.3c0.4-0.033,1.1-0.3,2.1-0.8c0.533-0.3,0.9-0.467,1.1-0.5l1.25-0.25l1.05,0.05
					c0.233,0.034,0.417,0.1,0.55,0.2c0.1,0.1,0.233,0.267,0.4,0.5c0.3,0.3,0.816,0.717,1.55,1.25c0.1,0.066,0.467,0.184,1.1,0.35
					c1.167,0.333,1.667,0.8,1.5,1.4c-0.1,0.367-0.417,0.6-0.95,0.7c-0.033,0-0.483,0.033-1.35,0.1l-1.9,0.2l4.05-0.2L22.7-1
					c0.267-0.1,0.684-0.167,1.25-0.2l0.4-0.1c0.066-0.033,0.083-0.167,0.05-0.4S24.234-2.1,24-2.2
					c-0.233-0.133-0.583-0.25-1.05-0.35c-0.533-0.066-0.917-0.116-1.15-0.15c-1-0.3-1.617-0.667-1.85-1.1
					c-0.1-0.267-0.216-0.616-0.35-1.05c-0.167-0.367-0.4-0.667-0.7-0.9c-1.133-0.833-2.567-0.983-4.3-0.45
					c-0.4,0.133-0.9,0.467-1.5,1c-0.6,0.534-1.083,0.867-1.45,1C10.517-3.833,9.034-3.933,7.2-4.5C5.934-4.866,4.784-5.05,3.75-5.05
					C3.417-5.083,3.15-5.1,2.95-5.1c-0.367,0.033-0.566,0.167-0.6,0.4c-0.067,0.3,0.2,0.667,0.8,1.1c0.767,0.5,1.167,0.783,1.2,0.85
					C3.984-2.683,3.333-2.7,2.4-2.8c-0.867-0.1-1.517-0.1-1.95,0L0.9-2.6C2.167-2,3.867-1.333,6-0.6z"/>
				<path style="fill-rule:evenodd;clip-rule:evenodd;fill:#60461B;" d="M8.4-3.45L6.55-4c-0.733-0.2-1.367-0.267-1.9-0.2
					c-1,0.167-0.467,0.633,1.6,1.4c-0.133,0.1-0.767,0.15-1.9,0.15c-0.967,0.033-1.5,0.267-1.6,0.7C4.117-1.783,4.917-1.7,5.15-1.7
					l9,1.9c0.233-0.033,0.6-0.05,1.1-0.05l0.25-0.05l3.95-0.4c0.867-0.066,1.317-0.1,1.35-0.1c0.533-0.1,0.85-0.333,0.95-0.7
					c0.167-0.6-0.333-1.066-1.5-1.4c-0.633-0.167-1-0.284-1.1-0.35c-0.733-0.533-1.25-0.95-1.55-1.25c-0.167-0.233-0.3-0.4-0.4-0.5
					c-0.133-0.1-0.316-0.167-0.55-0.2l-1.05-0.05l-1.25,0.25c-0.2,0.033-0.567,0.2-1.1,0.5c-1,0.5-1.7,0.767-2.1,0.8
					C9.917-3.3,9-3.35,8.4-3.45z"/>
				<path style="fill-rule:evenodd;clip-rule:evenodd;fill:#A3762E;" d="M5.15-6.55c-0.9-0.1-1.767,0-2.6,0.3
					C1.484-5.816,0.534-5.466-0.3-5.2c-0.9,0.267-1.3,0.6-1.2,1c0.3-0.033,0.967-0.283,2-0.75l1.35-0.5C2.583-5.683,3.8-5.8,5.5-5.8
					c0.767,0,1.917,0.034,3.45,0.1c1.333,0,2.434-0.216,3.3-0.65c0.566-0.3,1.233-0.483,2-0.55c0.4-0.034,1.1-0.05,2.1-0.05
					c0.833,0,1.333,0,1.5,0c0.566,0.034,1.05,0.117,1.45,0.25c0.367,0.1,0.967,0.434,1.8,1l0.1,0.05c-0.8-0.867-1.433-1.4-1.9-1.6
					c-0.967-0.4-2.133-0.6-3.5-0.6c-1.367,0.033-2.5,0.283-3.4,0.75C11.034-6.399,8.617-6.216,5.15-6.55z"/>
			</g>
			<path style="fill-rule:evenodd;clip-rule:evenodd;fill:#866226;" d="M6.95,2.101L9.2,2.9c1.534,0.566,2.483,0.867,2.85,0.9
				c0.733,0.1,1.967-0.05,3.7-0.45c1.033-0.233,1.816-0.5,2.35-0.8L18.05,2.2c0.067-0.333,0.317-0.783,0.75-1.35
				c0.733-0.9,1.3-1.717,1.7-2.45c-1.2-0.667-2.15-1.233-2.85-1.7c-0.533-0.3-1.217-0.566-2.05-0.8c-0.767-0.2-1.317-0.267-1.65-0.2
				c-0.533,0.167-1.033,0.333-1.5,0.5c-0.9,0.267-1.783,0.4-2.65,0.4c-2.566,0-4.117,0.3-4.65,0.9L6.95,2.101z"/>
			<g>
				<path style="fill-rule:evenodd;clip-rule:evenodd;fill:#755521;" d="M6-2.8C5.634-2.6,5.384-2.416,5.25-2.25v0.05
					c0.267-0.2,0.483-0.316,0.65-0.35C6.067-2.616,6.333-2.633,6.7-2.6c0.167,0,0.434,0.017,0.8,0.05c0.333,0,0.867-0.017,1.6-0.05
					c0.633,0,1.15,0.1,1.55,0.3C10.517-2.1,10.3-1.933,10-1.8C9.705-1.652,9.447-1.568,9.226-1.55c1.497-0.065,2.622-0.065,3.375,0
					c1.2,0.134,1.833,0.367,1.9,0.7c-0.367,0-0.65,0.083-0.85,0.25l0.7,0.1C14.684-0.433,14.9-0.35,15-0.25
					c0.167,0.167,0.2,0.267,0.1,0.3c-0.034,0.034-0.184,0.067-0.45,0.1c-0.767,0.066-1.35,0.133-1.75,0.2
					c-0.8,0.066-1.3,0.3-1.5,0.7l1.5,2.75L14,3.7l-1-3.15c1.467,0,3.083,0.284,4.85,0.85c-0.034-0.3-0.284-0.6-0.75-0.9
					c-0.5-0.333-0.767-0.6-0.8-0.8c0.167-0.033,0.45-0.033,0.85,0c0.333,0.067,0.583,0.067,0.75,0c-0.033-0.7-0.467-1.116-1.3-1.25
					c-1.267-0.2-1.917-0.316-1.95-0.35c0.467-0.1,0.733-0.167,0.8-0.2c0.133-0.133,0.05-0.383-0.25-0.75
					c-0.267-0.367-0.7-0.617-1.3-0.75c-0.367-0.033-0.817,0-1.35,0.1c-0.667,0.133-1.083,0.2-1.25,0.2C9.833-3.3,8.734-3.266,8-3.2
					C6.9-3.066,6.234-2.933,6-2.8z"/>
				<path style="fill-rule:evenodd;clip-rule:evenodd;fill:#5D431A;" d="M5.15-2.5l0.1,0.25C5.384-2.416,5.634-2.6,6-2.8
					c0.233-0.133,0.9-0.267,2-0.4c0.733-0.066,1.833-0.1,3.3-0.1c0.167,0,0.583-0.066,1.25-0.2c0.533-0.1,0.983-0.133,1.35-0.1
					c0.6,0.133,1.033,0.383,1.3,0.75c0.3,0.367,0.383,0.617,0.25,0.75c-0.066,0.033-0.333,0.1-0.8,0.2
					c0.033,0.033,0.683,0.15,1.95,0.35C17.434-1.416,17.867-1,17.9-0.3c-0.167,0.067-0.417,0.067-0.75,0
					c-0.4-0.033-0.683-0.033-0.85,0c0.033,0.2,0.3,0.467,0.8,0.8c0.466,0.3,0.716,0.6,0.75,0.9C16.083,0.834,14.467,0.55,13,0.55
					l1,3.15l1.75-0.35c1.033-0.233,1.816-0.5,2.35-0.8L18.05,2.2c0.067-0.333,0.317-0.783,0.75-1.35
					c0.067-0.067,0.434-0.55,1.1-1.45c-0.033-0.233-0.083-0.4-0.15-0.5c-0.2-0.367-0.617-0.617-1.25-0.75
					C18-1.916,17.634-2,17.4-2.1c-0.167-0.066-0.333-0.2-0.5-0.4c-0.2-0.233-0.333-0.383-0.4-0.45c-0.3-0.267-0.85-0.533-1.65-0.8
					c-0.9-0.267-1.434-0.284-1.6-0.05L13.2-4.05c-1.3,0.434-2.433,0.65-3.4,0.65C7.234-3.399,5.684-3.1,5.15-2.5z"/>
				<path style="fill-rule:evenodd;clip-rule:evenodd;fill:#463114;" d="M18.5-1.85c0.633,0.133,1.05,0.383,1.25,0.75
					c0.066,0.1,0.117,0.267,0.15,0.5l0.6-1c-1.2-0.667-2.15-1.233-2.85-1.7c-0.533-0.3-1.217-0.566-2.05-0.8
					c-0.767-0.2-1.317-0.267-1.65-0.2c-0.333,0.067-0.583,0.15-0.75,0.25l0.05,0.25c0.167-0.233,0.7-0.216,1.6,0.05
					c0.8,0.267,1.35,0.533,1.65,0.8c0.066,0.067,0.2,0.217,0.4,0.45c0.167,0.2,0.333,0.333,0.5,0.4C17.634-2,18-1.916,18.5-1.85z"/>
			</g>
			<path style="fill-rule:evenodd;clip-rule:evenodd;fill:#9C732D;" d="M15.55,1.3c-2.233-1.133-5.183-1-8.85,0.4l0.25,0.4L9.2,2.9
				c1.534,0.566,2.483,0.867,2.85,0.9c0.733,0.1,1.967-0.05,3.7-0.45c0.767-0.167,1.417-0.367,1.95-0.6
				C17.067,2.217,16.351,1.734,15.55,1.3z"/>
			<path style="fill-rule:evenodd;clip-rule:evenodd;fill:#B98E44;" d="M6.7,1.7l0.05,0.1l1.15-0.45
				c0.367-0.167,0.95-0.317,1.75-0.45c0.567-0.1,1.1-0.133,1.6-0.1l2.15,0.15c0.433,0.1,0.883,0.3,1.35,0.6
				c0.167,0.1,0.467,0.217,0.9,0.35c0.333,0.133,0.8,0.417,1.4,0.85L17.3,2.9l0.4-0.15c-0.633-0.534-1.35-1.017-2.15-1.45
				C13.317,0.167,10.367,0.3,6.7,1.7z"/>
		</g>
	</g>
</symbol>
<symbol  id="cubimal_x5F_mc" viewBox="-0.385 -27.1 34.385 30.98">
	<g id="Layer_5_1_">
	</g>
	<g id="Layer_4_2_">
	</g>
	<g id="Layer_2_copy_2_">
	</g>
	<g id="Layer_2_2_">
	</g>
	<g id="Layer_1_9_">
		
			<use xlink:href="#cubimal_x5F_scene1"  width="34.385" height="30.98" x="0.015" y="-27.149" transform="matrix(1 0 0 1 -0.3999 0.0498)" style="overflow:visible;"/>
	</g>
	<g id="Layer_6_1_">
	</g>
</symbol>
<symbol  id="cubimal_x5F_scene1" viewBox="0.015 -27.149 34.385 30.98">
	<g id="Layer_1_8_">
		
			<use xlink:href="#winder_x5F_static"  width="10.185" height="8.474" x="0.015" y="-8.472" transform="matrix(1 0 0 1 0 -7.9502)" style="overflow:visible;"/>
		
			<use xlink:href="#cubimal_1_"  width="29.93" height="30.98" x="-1.529" y="-27.149" transform="matrix(1 0 0 1 6 0)" style="overflow:visible;"/>
	</g>
</symbol>
<symbol  id="winder_x5F_static" viewBox="0.015 -8.472 10.185 8.474">
	<g id="Layer_4_1_">
		
			<use xlink:href="#winderedge"  width="4.537" height="8.127" x="0.015" y="-8.126" transform="matrix(1 0 0 1 0.7002 0)" style="overflow:visible;"/>
	</g>
	<g id="Layer_3_1_">
		
			<use xlink:href="#winderfacehighlight"  width="4.573" height="8.174" x="0.016" y="-8.173" transform="matrix(1 0 0 1 0.2002 -0.2002)" style="overflow:visible;"/>
	</g>
	<g id="Layer_2_copy_1_">
		
			<use xlink:href="#winderface1a"  width="4.573" height="8.174" x="0.015" y="-8.172" transform="matrix(1 0 0 1 0 -0.2998)" style="overflow:visible;"/>
	</g>
	<g id="Layer_1_7_">
		<g>
			
				<linearGradient id="SVGID_19_" gradientUnits="userSpaceOnUse" x1="1516.3662" y1="-17617.4609" x2="1517.6855" y2="-17617.4609" gradientTransform="matrix(-0.1705 -0.9854 0.9854 -0.1705 17625.4004 -1515.1064)">
				<stop  offset="0" style="stop-color:#8F8F8F"/>
				<stop  offset="0.2275" style="stop-color:#E8E8E8"/>
				<stop  offset="1" style="stop-color:#696969"/>
			</linearGradient>
			<path style="fill-rule:evenodd;clip-rule:evenodd;fill:url(#SVGID_19_);" d="M10.2-6.3L4.8-5.5C4.5-5.533,4.351-5.366,4.351-5
				c0,0.233,0.083,0.4,0.25,0.5c0.066,0.066,0.133,0.1,0.2,0.1l5.4-0.8V-6.3z"/>
		</g>
	</g>
</symbol>
<symbol  id="winderedge" viewBox="0.015 -8.126 4.537 8.127">
	<g id="Layer_1_4_">
		<g>
			
				<linearGradient id="SVGID_20_" gradientUnits="userSpaceOnUse" x1="7.209" y1="-16347.5195" x2="14.034" y2="-16347.5195" gradientTransform="matrix(1.465202e-004 -1 1 -0.001 16349.8027 -9.1758)">
				<stop  offset="0" style="stop-color:#8F8F8F"/>
				<stop  offset="0.2275" style="stop-color:#E8E8E8"/>
				<stop  offset="1" style="stop-color:#696969"/>
			</linearGradient>
			<path style="fill-rule:evenodd;clip-rule:evenodd;fill:url(#SVGID_20_);" d="M3.5-5.899c0.066,0.6-0.083,0.983-0.45,1.15L2.6-4.7
				C2.367-4.7,2.167-4.733,2-4.8c-0.533-0.167-0.833-0.533-0.9-1.1c-0.034-0.5,0.1-0.85,0.4-1.05c0.434-0.233,0.867-0.233,1.3,0
				C3.2-6.716,3.434-6.366,3.5-5.899z M0.05-1.25c0.1,0.8,0.5,1.216,1.2,1.25c1.367,0.033,2.333-0.633,2.9-2
				c0.5-1.233,0.534-2.05,0.1-2.45c0.434-0.533,0.4-1.333-0.1-2.4c-0.567-1.167-1.533-1.533-2.9-1.1c-0.7,0.233-1.1,0.767-1.2,1.6
				c-0.133,0.867,0.117,1.533,0.75,2L1.25-4L0.8-3.55C0.167-2.85-0.083-2.083,0.05-1.25z M3.5-2.75C3.434-2.25,3.2-1.833,2.8-1.5
				C2.367-1.1,1.934-0.966,1.5-1.1c-0.3-0.133-0.434-0.467-0.4-1C1.167-2.666,1.467-3.116,2-3.45l0.6-0.3L3.05-3.8
				C3.417-3.766,3.566-3.416,3.5-2.75z"/>
		</g>
	</g>
</symbol>
<symbol  id="winderface1a" viewBox="0.015 -8.172 4.573 8.174">
	<g id="Layer_1_2_">
		
			<linearGradient id="SVGID_21_" gradientUnits="userSpaceOnUse" x1="-1920.583" y1="-13812.1104" x2="-1911.4108" y2="-13812.1104" gradientTransform="matrix(0.2726 -0.9621 0.9621 0.2726 13813.2627 1917.9385)">
			<stop  offset="0" style="stop-color:#E8E8E8"/>
			<stop  offset="1" style="stop-color:#878787"/>
		</linearGradient>
		<path style="fill-rule:evenodd;clip-rule:evenodd;fill:url(#SVGID_21_);" d="M2.05-4.8c-0.566-0.133-0.867-0.483-0.9-1.05
			c-0.033-0.533,0.1-0.9,0.4-1.1c0.4-0.267,0.817-0.267,1.25,0C3.2-6.717,3.433-6.367,3.5-5.9c0.133,0.633,0,1-0.4,1.1L2.65-4.7
			L2.05-4.8z M0.05-1.25C0.183-0.45,0.6-0.033,1.3,0c1.367,0.033,2.333-0.633,2.9-2c0.5-1.233,0.517-2.05,0.05-2.45
			c0.467-0.5,0.45-1.3-0.05-2.4C3.633-8.05,2.667-8.433,1.3-8C0.6-7.733,0.183-7.183,0.05-6.35c-0.133,0.867,0.117,1.533,0.75,2
			L1.3-4L0.8-3.55C0.167-2.85-0.083-2.083,0.05-1.25z M3.5-2.75C3.433-2.25,3.2-1.833,2.8-1.5C2.367-1.1,1.95-0.967,1.55-1.1
			c-0.3-0.133-0.433-0.467-0.4-1c0.033-0.6,0.333-1.05,0.9-1.35l0.6-0.3L3.1-3.8C3.467-3.767,3.6-3.417,3.5-2.75z"/>
	</g>
</symbol>
<symbol  id="winderfacehighlight" viewBox="0.016 -8.173 4.573 8.174">
	<g id="Layer_1_3_">
		
			<linearGradient id="SVGID_22_" gradientUnits="userSpaceOnUse" x1="-1920.582" y1="-13812.1104" x2="-1911.4098" y2="-13812.1104" gradientTransform="matrix(0.2726 -0.9621 0.9621 0.2726 13813.2627 1917.9385)">
			<stop  offset="0" style="stop-color:#E8E8E8"/>
			<stop  offset="1" style="stop-color:#EDEDED"/>
		</linearGradient>
		<path style="fill-rule:evenodd;clip-rule:evenodd;fill:url(#SVGID_22_);" d="M2.05-4.8c-0.567-0.133-0.867-0.483-0.9-1.05
			c-0.033-0.533,0.1-0.9,0.4-1.1c0.4-0.267,0.817-0.267,1.25,0C3.2-6.717,3.434-6.367,3.5-5.9c0.1,0.6-0.034,0.967-0.4,1.1L2.65-4.7
			L2.05-4.8z M0.05-1.25C0.184-0.45,0.601-0.034,1.3,0c1.367,0.034,2.333-0.633,2.9-2c0.5-1.233,0.517-2.05,0.05-2.45
			c0.466-0.5,0.45-1.3-0.05-2.4C3.634-8.05,2.667-8.434,1.3-8c-0.7,0.267-1.117,0.817-1.25,1.65c-0.133,0.867,0.117,1.534,0.75,2
			L1.3-4L0.8-3.55C0.167-2.851-0.083-2.084,0.05-1.25z M1.55-1.101c-0.3-0.133-0.433-0.466-0.4-1c0.033-0.6,0.333-1.05,0.9-1.35
			l0.6-0.3l0.45-0.05c0.366,0.033,0.5,0.383,0.4,1.05C3.434-2.25,3.2-1.834,2.8-1.5C2.367-1.101,1.95-0.967,1.55-1.101z"/>
	</g>
</symbol>
<use xlink:href="#cubimal_x5F_mc"  width="34.385" height="30.98" id="cubimal" x="-0.385" y="-27.1" transform="matrix(1 0 0 -1 0.3999 3.8999)" style="overflow:visible;"/>
</svg>
