<?xml version="1.0" encoding="iso-8859-1"?>
<!-- Generator: Adobe Illustrator 15.1.0, SVG Export Plug-In . SVG Version: 6.00 Build 0)  -->
<!DOCTYPE svg PUBLIC "-//W3C//DTD SVG 1.1//EN" "http://www.w3.org/Graphics/SVG/1.1/DTD/svg11.dtd">
<svg version="1.1" id="flash0.ai" xmlns="http://www.w3.org/2000/svg" xmlns:xlink="http://www.w3.org/1999/xlink" x="0px" y="0px"
	 width="34px" height="30.3px" viewBox="0 0 34 30.3" style="enable-background:new 0 0 34 30.3;" xml:space="preserve">
<symbol  id="cubimal_1_" viewBox="-0.779 -25.963 28.804 30.324">
	<g id="Layer_1_5_">
		<g>
			
				<linearGradient id="SVGID_1_" gradientUnits="userSpaceOnUse" x1="365.9297" y1="318.4873" x2="367.6813" y2="318.4873" gradientTransform="matrix(0.9991 0.0428 -0.0428 0.9991 -342.5811 -357.5347)">
				<stop  offset="0" style="stop-color:#4E4439"/>
				<stop  offset="1" style="stop-color:#2B2621"/>
			</linearGradient>
			<path style="fill-rule:evenodd;clip-rule:evenodd;fill:url(#SVGID_1_);" d="M8.35-21.35l4.7-0.35c-0.4-1.5-0.683-2.45-0.85-2.85
				c-0.4-1.034-0.816-1.5-1.25-1.4C10.117-25.75,9.25-24.217,8.35-21.35z"/>
			
				<linearGradient id="SVGID_2_" gradientUnits="userSpaceOnUse" x1="-2107.1289" y1="-13439.3496" x2="-2087.9805" y2="-13439.3496" gradientTransform="matrix(0.3068 -0.9518 0.9518 0.3068 13448.4844 2113.2158)">
				<stop  offset="0" style="stop-color:#ECE1AE"/>
				<stop  offset="1" style="stop-color:#B0A162"/>
			</linearGradient>
			<path style="fill-rule:evenodd;clip-rule:evenodd;fill:url(#SVGID_2_);" d="M16.75-1.45c3.133-0.433,5.066-0.65,5.8-0.65
				c1.1,0,1.933-0.216,2.5-0.65c0.367-0.3,0.65-0.767,0.85-1.4c0.1-0.434,0.167-2.333,0.2-5.7c0.034-3.066,0.034-5.017,0-5.85v-1.45
				c-0.033-0.5-0.183-0.95-0.45-1.35c-0.267-0.434-1.167-1.184-2.7-2.25c-1.333-0.967-2.3-1.6-2.9-1.9c-1.7-0.934-2.967-1.4-3.8-1.4
				c-2.434,0.3-4.3,0.45-5.6,0.45c-0.767,0.034-2.217,0.2-4.35,0.5c-2.1,0.3-3.35,0.483-3.75,0.55c-0.7,0.133-1.183,0.433-1.45,0.9
				c-0.333,0.667-0.517,2.017-0.55,4.05c-0.133,3.233-0.2,5.6-0.2,7.1c0.034,2.667,0.4,4.25,1.1,4.75c0.967,0.667,2.5,1.566,4.6,2.7
				c2.533,1.4,4.167,2.116,4.9,2.15C11.85-0.867,13.783-1.05,16.75-1.45z"/>
			
				<linearGradient id="SVGID_3_" gradientUnits="userSpaceOnUse" x1="-2369.8975" y1="-12874.2861" x2="-2352.8997" y2="-12874.2861" gradientTransform="matrix(0.3574 -0.934 0.934 0.3574 12889.2227 2381.1631)">
				<stop  offset="0" style="stop-color:#DCCC88"/>
				<stop  offset="1" style="stop-color:#877843"/>
			</linearGradient>
			<path style="fill-rule:evenodd;clip-rule:evenodd;fill:url(#SVGID_3_);" d="M25.9-4.15l0.15-2.6
				c0.133-4.333,0.15-7.316,0.05-8.95v-1.45c-0.033-0.5-0.183-0.95-0.45-1.35c-0.267-0.434-1.167-1.184-2.7-2.25
				c-1.333-0.967-2.3-1.6-2.9-1.9c-0.333-0.167-0.967-0.434-1.9-0.8c-1-0.366-1.633-0.566-1.9-0.6c0.3,0.6,0.45,1.316,0.45,2.15
				l-0.1,14l0.1,0.15c0.167,0.2,1.067,0.7,2.7,1.5c1.867,0.9,3.05,1.517,3.55,1.85c0.434,0.3,1.184,0.8,2.25,1.5
				C25.5-3.233,25.733-3.65,25.9-4.15z"/>
			
				<linearGradient id="SVGID_4_" gradientUnits="userSpaceOnUse" x1="-2111.9248" y1="-13439.7344" x2="-2089.7009" y2="-13439.7344" gradientTransform="matrix(0.3071 -0.9517 0.9517 0.3071 13445.3555 2114.8184)">
				<stop  offset="0" style="stop-color:#6F84A1"/>
				<stop  offset="1" style="stop-color:#3F4C5F"/>
			</linearGradient>
			<path style="fill-rule:evenodd;clip-rule:evenodd;fill:url(#SVGID_4_);" d="M0.6-17.1c1.3-0.333,4.367-0.816,9.2-1.45
				c3.6-0.5,6.817-1.35,9.65-2.55c0.3-0.2,1-0.133,2.1,0.2c0.6,0.167,1.333,0.4,2.2,0.7c-1.6-1.2-2.833-2.017-3.7-2.45
				c-1.7-0.934-2.967-1.4-3.8-1.4c-2.434,0.3-4.3,0.45-5.6,0.45c-0.7,0.034-2.133,0.2-4.3,0.5c-2.2,0.367-3.466,0.55-3.8,0.55
				c-0.933,0.033-1.5,0.533-1.7,1.5C0.783-20.783,0.7-19.467,0.6-17.1z"/>
			
				<linearGradient id="SVGID_5_" gradientUnits="userSpaceOnUse" x1="-2111.9639" y1="-13442.3047" x2="-2089.74" y2="-13442.3047" gradientTransform="matrix(0.3071 -0.9517 0.9517 0.3071 13445.3555 2114.8184)">
				<stop  offset="0" style="stop-color:#4E4439"/>
				<stop  offset="1" style="stop-color:#2B2621"/>
			</linearGradient>
			<path style="fill-rule:evenodd;clip-rule:evenodd;fill:url(#SVGID_5_);" d="M1.1-21.75c-0.2,0.4-0.333,1.066-0.4,2
				c1.167-0.833,6.133-1.566,14.9-2.2c1.2-0.2,1.8-0.433,1.8-0.7c0-0.2,0.617-0.333,1.85-0.4c-1.434-0.667-2.434-1-3-1
				c-2.434,0.3-4.3,0.45-5.6,0.45c-0.7,0.034-2.133,0.2-4.3,0.5c-2.2,0.367-3.466,0.55-3.8,0.55C1.883-22.517,1.4-22.25,1.1-21.75z"
				/>
			<path style="fill-rule:evenodd;clip-rule:evenodd;fill:#E9DDA7;" d="M23.65-4.1c-0.5-0.3-1.783-0.966-3.85-2
				c-1.9-0.9-2.933-1.45-3.1-1.65c-0.933,0.066-3.85,0.367-8.75,0.9C4.216-6.45,1.9-6.283,1-6.35c0.066,0.167,0.216,0.367,0.45,0.6
				c0.967,0.667,2.5,1.566,4.6,2.7c2.533,1.4,4.167,2.116,4.9,2.15c2.233,0.1,6.1-0.3,11.6-1.2c1.4-0.2,2.283-0.466,2.65-0.8
				C24.833-3.267,24.316-3.667,23.65-4.1z"/>
			<g>
				<path style="fill-rule:evenodd;clip-rule:evenodd;fill:#7D7447;" d="M20.25-14.65c0-0.5-0.1-0.917-0.3-1.25
					c-0.233-0.333-0.5-0.5-0.8-0.5c-0.3,0-0.55,0.167-0.75,0.5c-0.233,0.333-0.35,0.75-0.35,1.25c0,0.466,0.117,0.867,0.35,1.2
					c0.2,0.333,0.45,0.5,0.75,0.5c0.3,0,0.566-0.167,0.8-0.5C20.15-13.783,20.25-14.184,20.25-14.65z"/>
				
					<linearGradient id="SVGID_6_" gradientUnits="userSpaceOnUse" x1="509.9814" y1="-16801.0586" x2="512.9366" y2="-16801.0586" gradientTransform="matrix(-0.0592 -0.9982 0.9982 -0.0592 16820.7559 -499.5112)">
					<stop  offset="0" style="stop-color:#5F4E29"/>
					<stop  offset="0.8588" style="stop-color:#271D09"/>
				</linearGradient>
				<path style="fill-rule:evenodd;clip-rule:evenodd;fill:url(#SVGID_6_);" d="M19.85-14.7c0-0.333-0.1-0.633-0.3-0.9
					c-0.167-0.233-0.383-0.35-0.65-0.35c-0.233,0-0.45,0.117-0.65,0.35C18.083-15.367,18-15.066,18-14.7
					c0,0.367,0.083,0.684,0.25,0.95c0.167,0.233,0.383,0.35,0.65,0.35s0.483-0.117,0.65-0.35C19.75-14.017,19.85-14.333,19.85-14.7z
					"/>
			</g>
			<g>
				<path style="fill-rule:evenodd;clip-rule:evenodd;fill:#7D7447;" d="M25.45-11.25c0-0.467-0.066-0.85-0.2-1.15
					c-0.133-0.333-0.3-0.5-0.5-0.5c-0.2,0-0.367,0.167-0.5,0.5C24.083-12.066,24-11.684,24-11.25s0.083,0.8,0.25,1.1
					c0.133,0.3,0.3,0.45,0.5,0.45C25.216-9.7,25.45-10.217,25.45-11.25z"/>
				
					<linearGradient id="SVGID_7_" gradientUnits="userSpaceOnUse" x1="543.4229" y1="-16828.5234" x2="546.1784" y2="-16828.5234" gradientTransform="matrix(-0.0635 -0.998 0.998 -0.0635 16853.6738 -536.7437)">
					<stop  offset="0" style="stop-color:#5F4E29"/>
					<stop  offset="0.8588" style="stop-color:#271D09"/>
				</linearGradient>
				<path style="fill-rule:evenodd;clip-rule:evenodd;fill:url(#SVGID_7_);" d="M25.15-11.25c0-0.8-0.2-1.2-0.6-1.2
					c-0.167,0-0.3,0.117-0.4,0.35c-0.133,0.233-0.2,0.517-0.2,0.85c0,0.3,0.067,0.566,0.2,0.8c0.1,0.233,0.233,0.35,0.4,0.35
					C24.95-10.1,25.15-10.483,25.15-11.25z"/>
			</g>
			<path style="fill-rule:evenodd;clip-rule:evenodd;fill:#FBF0BF;" d="M25.2-2.9c-0.066-0.4-1.45-1.333-4.15-2.8
				c-2.7-1.5-4.083-2.417-4.15-2.75c-0.067-0.366-0.067-4.517,0-12.45c-0.033-1.7-0.25-2.75-0.65-3.15l0.15,0.6
				c0.1,0.267,0.133,2.267,0.1,6c-0.034,3.634-0.083,6-0.15,7.1c-0.066,1.1-0.133,1.733-0.2,1.9c-0.067,0.2-0.25,0.333-0.55,0.4
				c-0.4,0.1-3.233,0.417-8.5,0.95l-6.05,1L8.6-6.9c1.4-0.167,3.017-0.317,4.85-0.45c1.833-0.133,2.9-0.167,3.2-0.1
				c0.3,0.034,1.6,0.65,3.9,1.85C21.983-4.833,23.533-3.934,25.2-2.9z"/>
			<path style="fill-rule:evenodd;clip-rule:evenodd;fill:#E1DFD0;" d="M21.325-19.65c2.514,1.17,4.056,2.537,4.625,4.1l0.15,2.1
				l1.35-2.4c0.767-1.833,0.767-3.3,0-4.4c-0.833-1.233-1.316-2.316-1.45-3.25c-0.1-0.9,0.1-1.1,0.6-0.6l0.85,0.85
				c0.133-0.3,0.117-0.617-0.05-0.95c-0.4-0.7-1.434-1.117-3.1-1.25c-1.833-0.133-3.867,0.283-6.1,1.25
				c-1.934,0.864-3.268,1.697-4,2.5c-0.733,0.806-2.967,1.672-6.7,2.6c-3.727,0.931-5.927,1.439-6.6,1.525
				c-0.682,0.077-1.224,2.294-1.625,6.65c-0.402,4.359,1.423,6.092,5.475,5.2c4.053-0.9,7.203-3.742,9.45-8.525
				C16.442-19.027,18.817-20.827,21.325-19.65z"/>
			<g>
				<path style="fill-rule:evenodd;clip-rule:evenodd;fill:#CBC9BC;" d="M20.9-19.7l-1.5,0.05c0.566,0,1.15,0.1,1.75,0.3l0.5-0.15
					L20.9-19.7z"/>
				<path style="fill-rule:evenodd;clip-rule:evenodd;fill:#CBC9BC;" d="M26.2-14.55c0.2-0.4,0.317-0.733,0.35-1
					c0.1-1-0.117-1.55-0.65-1.65c0.033-0.7-0.25-1.066-0.85-1.1c-0.033-0.5-0.367-0.833-1-1c-0.133,0-0.7-0.034-1.7-0.1l0.1,0.55
					l0.45,0.25l0.25-0.1c0-0.233,0.117-0.35,0.35-0.35c0.033,0.133,0.017,0.383-0.05,0.75l0.65,0.45c0.133-0.133,0.3-0.316,0.5-0.55
					c0.034,0.1,0.05,0.417,0.05,0.95c0.233-0.033,0.55-0.15,0.95-0.35c0.067,0.1,0.067,0.25,0,0.45c-0.066,0.2-0.083,0.35-0.05,0.45
					c0.033,0.066,0.1,0.083,0.2,0.05c0.1,0,0.15,0.017,0.15,0.05c0.1,0.167,0.15,0.383,0.15,0.65l-0.1,0.6
					C26.05-15.283,26.133-14.95,26.2-14.55z"/>
				<polygon style="fill-rule:evenodd;clip-rule:evenodd;fill:#9D9B91;" points="27.5,-23.7 27.35,-23.85 26.45,-24.2 26.6,-24.1 
					27.45,-23.25 				"/>
				<path style="fill-rule:evenodd;clip-rule:evenodd;fill:#9D9B91;" d="M25-24.05c0,0.466,0.167,0.933,0.5,1.4
					c0.333,0.433,0.716,0.783,1.15,1.05c-0.367-0.733-0.567-1.383-0.6-1.95c-0.067-0.5,0.017-0.75,0.25-0.75
					c-0.4-0.1-0.783-0.15-1.15-0.15c-1.4-0.066-2.434-0.066-3.1,0c-0.567,0.067-1.417,0.233-2.55,0.5c0.333,0.034,0.45,0.2,0.35,0.5
					c-0.133,0.367-0.216,0.65-0.25,0.85c0.434-0.333,1.133-0.8,2.1-1.4c0.067,0.1,0.05,0.367-0.05,0.8
					c1.066-0.767,1.816-1.133,2.25-1.1c0.233,0,0.35,0.033,0.35,0.1c0,0.167,0.017,0.35,0.05,0.55
					C24.633-23.983,24.867-24.117,25-24.05z"/>
				<path style="fill-rule:evenodd;clip-rule:evenodd;fill:#9D9B91;" d="M23.5-19.05c-0.233,0-0.35,0.116-0.35,0.35l-0.25,0.1
					l0.55,0.3C23.517-18.667,23.533-18.917,23.5-19.05z"/>
				<path style="fill-rule:evenodd;clip-rule:evenodd;fill:#9D9B91;" d="M25.95-15.55l0.1-0.6c0-0.267-0.05-0.483-0.15-0.65
					c0-0.034-0.05-0.05-0.15-0.05c-0.1,0.034-0.167,0.017-0.2-0.05c-0.033-0.1-0.017-0.25,0.05-0.45c0.067-0.2,0.067-0.35,0-0.45
					c-0.4,0.2-0.716,0.316-0.95,0.35c0-0.533-0.017-0.85-0.05-0.95c-0.2,0.233-0.367,0.417-0.5,0.55
					C25.033-17.184,25.65-16.417,25.95-15.55z"/>
				<path style="fill-rule:evenodd;clip-rule:evenodd;fill:#9D9B91;" d="M21.15-19.35l1.3,0.5l-0.1-0.55H22.3
					c-0.1-0.133-0.317-0.167-0.65-0.1L21.15-19.35z"/>
				<path style="fill-rule:evenodd;clip-rule:evenodd;fill:#605F59;" d="M13.9-20.95c0.133-0.3,0.6-0.6,1.4-0.9
					c0.267-0.167,0.683-0.45,1.25-0.85c0.4-0.2,1.017-0.517,1.85-0.95l1.1-0.3c1.133-0.267,1.983-0.433,2.55-0.5
					c0.667-0.066,1.7-0.066,3.1,0c0.367,0,0.75,0.05,1.15,0.15l0.15,0.1l0.9,0.35l0.15,0.15c0-0.966-1.067-1.55-3.2-1.75
					c-1.833-0.133-3.867,0.284-6.1,1.25c-1.933,0.867-3.3,1.784-4.1,2.75l-0.4,0.35L13.9-20.95z"/>
				<g>
					<path style="fill-rule:evenodd;clip-rule:evenodd;fill:#CBC9BC;" d="M18.4-23.65l-0.35,0.2c-0.267,0.167-1.033,0.8-2.3,1.9
						c-0.7,0.733-1.25,1.283-1.65,1.65c-0.733,0.667-1.434,0.983-2.1,0.95c-0.4-0.066-0.717-0.1-0.95-0.1
						c-0.4,0-0.683,0.117-0.85,0.35c-0.067,0.133-0.1,0.4-0.1,0.8c0,0.467-0.017,0.75-0.05,0.85c-0.367,1.367-1.117,2.4-2.25,3.1
						H7.75v-0.25l-0.5-0.05c0.4-0.3,0.683-0.533,0.85-0.7v-0.1H7.8l-0.15,0.1L7.1-15c-0.1-0.067-0.167-0.217-0.2-0.45
						c-0.033-0.267-0.066-0.433-0.1-0.5L6.4-16v-0.35H6.05l-0.8,0.25l0.35-0.35v-0.1H5.35c-0.467,0.167-0.867,0.367-1.2,0.6
						c-0.3,0.267-0.566,0.467-0.8,0.6c0.433-0.667,0.717-1.083,0.85-1.25v-0.25c-0.367,0.133-0.8,0.4-1.3,0.8
						c-0.5,0.466-0.85,0.783-1.05,0.95c0.033-0.267,0-0.467-0.1-0.6c-0.467,0.5-0.767,0.917-0.9,1.25L0.8-14.4
						c-0.1-0.333-0.167-0.55-0.2-0.65c-0.167,0.167-0.3,0.45-0.4,0.85c-0.133,0.434-0.233,0.767-0.3,1h0.05
						c-0.067,0.034-0.133,0.067-0.2,0.1v-0.05H-0.4v1C-0.133-10.817,0-9.8,0-9.1h0.15c-0.133-0.433-0.066-0.983,0.2-1.65
						c0.133-0.367,0.367-0.9,0.7-1.6H1.1c-0.033,0.3,0.033,0.684,0.2,1.15c0.233,0.534,0.383,0.934,0.45,1.2h0.1
						c-0.033-0.267,0.1-0.617,0.4-1.05c0.467-0.733,0.7-1.117,0.7-1.15H3c0.067,0.5,0.133,0.883,0.2,1.15
						C3.333-10.617,3.6-10.267,4-10c0.067-0.233,0.133-0.633,0.2-1.2c0.167-0.533,0.433-0.95,0.8-1.25h0.05L5.1-12
						c0.033,0,0.083,0.017,0.15,0.05l0.55-0.3h0.3c-0.2,0.933,0.083,1.867,0.85,2.8H7.1c-0.067-0.267,0.017-0.6,0.25-1
						c0.033,0,0.283-0.316,0.75-0.95c0.066,0.2,0.117,0.367,0.15,0.5c0.1,0.233,0.2,0.35,0.3,0.35c0.567,0,1.133-1.05,1.7-3.15
						c0.233-0.933,1.017-1.983,2.35-3.15l-0.1-0.1c-0.267,0.167-0.917,0.65-1.95,1.45c-0.3,0.2-0.566,0.383-0.8,0.55
						c0.367-1.333,1.083-2.25,2.15-2.75l1.15-0.45c0.534-0.267,1.133-0.733,1.8-1.4c0.566-0.467,1.783-1.167,3.65-2.1l0.05,0.9
						c0.3,0.1,0.8-0.083,1.5-0.55c0.534-0.367,0.967-0.733,1.3-1.1c0,0.467,0.017,0.833,0.05,1.1c0.3,0.066,0.717-0.133,1.25-0.6
						s0.833-0.85,0.9-1.15c0.267,0.033,0.467,0.25,0.6,0.65c0.167,0.5,0.3,0.783,0.4,0.85c0-0.034,0.034-0.117,0.1-0.25
						c0.5-0.167,0.983,0.1,1.45,0.8c0.133,0.133,0.283,0.367,0.45,0.7c0.067,0.1,0.184,0.216,0.35,0.35l0.4,0.15
						c0.2,0.133,0.35,0.417,0.45,0.85c0.067,0.5,0.117,0.833,0.15,1l0.05,0.4c0.167-1.067,0-1.967-0.5-2.7
						c-0.3-0.4-0.567-0.85-0.8-1.35c-0.433-0.267-0.816-0.617-1.15-1.05c-0.333-0.467-0.5-0.934-0.5-1.4
						c-0.133-0.067-0.367,0.066-0.7,0.4c-0.033-0.2-0.05-0.383-0.05-0.55c0-0.066-0.117-0.1-0.35-0.1
						c-0.433-0.034-1.183,0.333-2.25,1.1c0.1-0.433,0.117-0.7,0.05-0.8c-0.967,0.6-1.667,1.067-2.1,1.4
						c0.033-0.2,0.117-0.483,0.25-0.85c0.1-0.3-0.017-0.466-0.35-0.5L18.4-23.65z M11.7-10c0-0.067-0.034-0.117-0.1-0.15l-1.75,1.3
						H9.6C9.667-9.117,9.833-9.5,10.1-10v-0.4H10c-0.067,0.267-0.35,0.617-0.85,1.05C8.417-8.717,8.033-8.383,8-8.35H7.6L8.15-9.5
						v-0.3C7.45-9.1,6.933-8.633,6.6-8.4H6.25L6.2-8.75L6.05-8.8c-0.066,0-0.183,0.117-0.35,0.35C5.5-8.117,5.383-7.933,5.35-7.9H5
						C4.7-8.2,4.5-8.367,4.4-8.4C4.133-7.867,3.917-7.517,3.75-7.35h-0.5v0.25H3C2.467-7.433,2.15-7.6,2.05-7.6L1.9-7.55V-7
						L1.85-6.95c-0.6-0.367-0.934-0.683-1-0.95h-0.2v1.55c0.067,0.1,0.15,0.167,0.25,0.2c-0.033,0.033-0.083,0.033-0.15,0v0.1H1.1
						v-0.1L3.9-6.2C4.233-6.233,4.6-6.283,5-6.35C5.267-6.417,6-6.467,7.2-6.5C7.167-6.433,7.15-6.383,7.15-6.35h0.1
						c0-0.033,0.017-0.083,0.05-0.15c0.067,0,0.133,0,0.2,0v-0.15H7.4c0-0.033,0.017-0.067,0.05-0.1c1.3-0.5,2.2-1.033,2.7-1.6
						C10.217-8.417,10.5-8.667,11-9.1C11.467-9.567,11.7-9.867,11.7-10z"/>
					<path style="fill-rule:evenodd;clip-rule:evenodd;fill:#9D9B91;" d="M-0.25-13.15v0.05c0.067-0.033,0.133-0.066,0.2-0.1H-0.1
						c0.067-0.233,0.167-0.566,0.3-1c0.1-0.4,0.233-0.683,0.4-0.85c0.033,0.1,0.1,0.316,0.2,0.65l0.05-0.05
						c0.133-0.333,0.433-0.75,0.9-1.25c0.1,0.133,0.133,0.333,0.1,0.6c0.2-0.167,0.55-0.483,1.05-0.95c0.5-0.4,0.934-0.667,1.3-0.8
						v0.25c-0.133,0.167-0.417,0.583-0.85,1.25c0.233-0.133,0.5-0.333,0.8-0.6c0.333-0.233,0.733-0.433,1.2-0.6H5.6v0.1L5.25-16.1
						l0.8-0.25H6.4V-16l0.4,0.05c0.034,0.067,0.067,0.233,0.1,0.5C6.933-15.217,7-15.067,7.1-15l0.55,0.05l0.15-0.1h0.3v0.1
						c-0.167,0.167-0.45,0.4-0.85,0.7l0.5,0.05v0.25H7.8c1.133-0.7,1.883-1.733,2.25-3.1c0.034-0.1,0.05-0.383,0.05-0.85
						c0-0.4,0.033-0.667,0.1-0.8c0.167-0.233,0.45-0.35,0.85-0.35c0.233,0,0.55,0.033,0.95,0.1c0.667,0.034,1.367-0.283,2.1-0.95
						c0.4-0.367,0.95-0.917,1.65-1.65c1.267-1.1,2.033-1.733,2.3-1.9l0.35-0.2c-0.833,0.433-1.45,0.75-1.85,0.95
						c-0.566,0.4-0.983,0.684-1.25,0.85c-0.8,0.3-1.267,0.6-1.4,0.9l-0.2-0.15c-2.034,0.434-4.4,0.983-7.1,1.65
						C3.867-18.783,2-18.217,1-17.75C0.033-17.25-0.383-15.717-0.25-13.15z M6.4-17.55c0.1-0.1,0.233-0.383,0.4-0.85
						c0.133-0.434,0.284-0.733,0.45-0.9c0.333-0.333,0.883-0.5,1.65-0.5c0.3,0,0.5,0.05,0.6,0.15c0.067,0.1,0.117,0.3,0.15,0.6
						c0.133,1.2-0.233,2.316-1.1,3.35L6.4-17.55z"/>
					<path style="fill-rule:evenodd;clip-rule:evenodd;fill:#605F59;" d="M6.4-17.55l2.15,1.85c0.867-1.033,1.233-2.15,1.1-3.35
						c-0.033-0.3-0.083-0.5-0.15-0.6c-0.1-0.1-0.3-0.15-0.6-0.15c-0.767,0-1.316,0.167-1.65,0.5c-0.167,0.167-0.317,0.466-0.45,0.9
						C6.633-17.933,6.5-17.65,6.4-17.55z"/>
				</g>
			</g>
			
				<linearGradient id="SVGID_8_" gradientUnits="userSpaceOnUse" x1="-1905.541" y1="-13809.0742" x2="-1900.6819" y2="-13809.0742" gradientTransform="matrix(0.2727 -0.9621 0.9621 0.2727 13811.9883 1918.6494)">
				<stop  offset="0" style="stop-color:#ECE1AE"/>
				<stop  offset="1" style="stop-color:#B0A162"/>
			</linearGradient>
			<path style="fill-rule:evenodd;clip-rule:evenodd;fill:url(#SVGID_8_);" d="M8.3-14.45c0.067-0.333,0.383-1.167,0.95-2.5
				c0.367-0.933,0.433-1.433,0.2-1.5c-0.533-0.133-1.183-0.083-1.95,0.15c-1,0.333-1.567,0.9-1.7,1.7
				c-0.167,0.867,0.167,1.617,1,2.25C7.633-13.75,8.133-13.783,8.3-14.45z"/>
			<path style="fill-rule:evenodd;clip-rule:evenodd;fill:#8D6145;" d="M19.3-16.95c0.867-0.233,1.217-0.633,1.05-1.2
				c-0.2-0.534-0.75-0.817-1.65-0.85c-0.833-0.033-1.083,0.333-0.75,1.1C18.283-17.133,18.733-16.816,19.3-16.95z"/>
			<path style="fill-rule:evenodd;clip-rule:evenodd;fill:#8D6145;" d="M25.45-13.2c0.3,0.1,0.467,0,0.5-0.3
				c0.033-0.167,0.033-0.417,0-0.75c0-0.267-0.083-0.5-0.25-0.7c-0.233-0.233-0.5-0.267-0.8-0.1c-0.3,0.2-0.35,0.55-0.15,1.05
				C24.95-13.566,25.183-13.3,25.45-13.2z"/>
			
				<linearGradient id="SVGID_9_" gradientUnits="userSpaceOnUse" x1="-3.1377" y1="244.3564" x2="22.1492" y2="244.3564" gradientTransform="matrix(0.9995 0.0306 0 1.0005 3.8403 -246.707)">
				<stop  offset="0" style="stop-color:#A4652A"/>
				<stop  offset="1" style="stop-color:#543415"/>
			</linearGradient>
			<path style="fill-rule:evenodd;clip-rule:evenodd;fill:url(#SVGID_9_);" d="M19.95,1c1.767-1.2,3.417-2.4,4.95-3.6
				c1.2-0.466,1.467-0.867,0.8-1.2c-4.333-2.7-7.467-4.15-9.4-4.35c-1-0.1-2.7,0.033-5.1,0.4C8.1-7.316,5.7-7.05,4-6.95
				c-2.733,0.134-3.767,0.733-3.1,1.8C1.233-4.617,1.85-4.1,2.75-3.6L3-3.05C3.3-2.483,4.617-1.233,6.95,0.7
				c2.7,2.267,4.717,3.483,6.05,3.65C14.1,4.483,16.417,3.367,19.95,1z"/>
			<path style="fill-rule:evenodd;clip-rule:evenodd;fill:#E1DFD0;" d="M18.55-9.2h0.5c0.4,0.034,0.667-0.1,0.8-0.4
				c0.1-0.167,0.167-0.5,0.2-1c0-0.633-0.417-1.15-1.25-1.55c-0.767-0.367-1.35-0.367-1.75,0c-0.333,0.333-0.417,1.017-0.25,2.05
				c0.167,0.067,0.45,0.217,0.85,0.45C17.983-9.417,18.283-9.267,18.55-9.2z"/>
			<path style="fill-rule:evenodd;clip-rule:evenodd;fill:#E1DFD0;" d="M25.4-5.45v-0.4c0.7-0.2,0.9-0.733,0.6-1.6
				c-0.2-0.6-0.65-0.95-1.35-1.05c-0.333-0.066-0.667,0.083-1,0.45C23.35-7.684,23.267-7.333,23.4-7
				c0.133,0.267,0.433,0.583,0.9,0.95C24.733-5.75,25.1-5.55,25.4-5.45z"/>
			<path style="fill-rule:evenodd;clip-rule:evenodd;fill:#CBC9BC;" d="M19.75-10.5L20-10.25l0.05-0.35
				c0-0.633-0.417-1.15-1.25-1.55c-0.767-0.367-1.35-0.367-1.75,0c-0.333,0.333-0.417,1.017-0.25,2.05
				c0.067,0.034,0.333,0.184,0.8,0.45c-0.3-0.367-0.333-0.633-0.1-0.8l0.1,0.1c-0.066-0.167-0.1-0.383-0.1-0.65
				c0.133,0.033,0.283,0.2,0.45,0.5c0.067-0.066,0.15-0.167,0.25-0.3c0.1-0.134,0.217-0.184,0.35-0.15
				c0.1,0.034,0.167,0.15,0.2,0.35c0.133,0.1,0.316,0.133,0.55,0.1H19.75z"/>
			<path style="fill-rule:evenodd;clip-rule:evenodd;fill:#CBC9BC;" d="M23.4-7l0.2,0.35l0.2-0.55c0.3-0.433,0.6-0.366,0.9,0.2
				c0.233-0.1,0.467-0.133,0.7-0.1l0.25,0.25c0.1,0.067,0.25,0.117,0.45,0.15h0.05L26-7.45c-0.2-0.6-0.65-0.95-1.35-1.05
				c-0.333-0.066-0.667,0.083-1,0.45C23.35-7.684,23.267-7.333,23.4-7z"/>
			<path style="fill-rule:evenodd;clip-rule:evenodd;fill:#9D9B91;" d="M20.05-11.2l0.25,0.75c0-0.6-0.083-1.033-0.25-1.3
				c-0.2-0.367-0.583-0.6-1.15-0.7c-0.4-0.066-0.817-0.066-1.25,0c-0.567,0.1-0.9,0.3-1,0.6c0.733-0.2,1.283-0.267,1.65-0.2
				c0.167,0.033,0.467,0.2,0.9,0.5C19.566-11.283,19.85-11.167,20.05-11.2z"/>
			<path style="fill-rule:evenodd;clip-rule:evenodd;fill:#9D9B91;" d="M26.05-7.45L26.3-7.7c-0.333-0.333-0.6-0.55-0.8-0.65
				c-0.233-0.1-0.55-0.133-0.95-0.1c-0.4,0-0.65,0.067-0.75,0.2c-0.067,0.1-0.117,0.35-0.15,0.75c0.3-0.267,0.483-0.4,0.55-0.4
				c0.167-0.067,0.4-0.083,0.7-0.05C25.2-7.917,25.583-7.75,26.05-7.45z"/>
			
				<linearGradient id="SVGID_10_" gradientUnits="userSpaceOnUse" x1="-3.1299" y1="244.2129" x2="22.157" y2="244.2129" gradientTransform="matrix(0.9995 0.0306 0 1.0005 3.8403 -246.707)">
				<stop  offset="0" style="stop-color:#845122"/>
				<stop  offset="1" style="stop-color:#492C13"/>
			</linearGradient>
			<path style="fill-rule:evenodd;clip-rule:evenodd;fill:url(#SVGID_10_);" d="M24.9-2.6c1.2-0.466,1.467-0.867,0.8-1.2
				c-4.333-2.7-7.467-4.15-9.4-4.35c-0.4-0.067-0.867-0.067-1.4,0c-1.067,0.767-2.383,1.35-3.95,1.75l2.1,0.2
				c0.6,0.067,1.15,0.417,1.65,1.05c0.467,0.633,0.667,1.25,0.6,1.85c-0.233,1.7-0.517,3.167-0.85,4.4c0.067,0.1-0.117,0.5-0.55,1.2
				c-0.5,0.7-0.7,1.117-0.6,1.25c0.233,0.333,0.383,0.517,0.45,0.55c0.3,0.066,0.933-0.1,1.9-0.5C18.117,2.4,21.2,0.333,24.9-2.6z"
				/>
		</g>
	</g>
</symbol>
<symbol  id="cubimal_x5F_mc" viewBox="-0.385 -25.914 34.01 30.324">
	<g id="Layer_5_1_">
	</g>
	<g id="Layer_4_2_">
	</g>
	<g id="Layer_2_copy_2_">
	</g>
	<g id="Layer_2_2_">
	</g>
	<g id="Layer_1_9_">
		
			<use xlink:href="#cubimal_x5F_scene1"  width="34.01" height="30.324" x="0.015" y="-25.963" transform="matrix(1 0 0 1 -0.3999 0.0498)" style="overflow:visible;"/>
	</g>
	<g id="Layer_6_1_">
	</g>
</symbol>
<symbol  id="cubimal_x5F_scene1" viewBox="0.015 -25.963 34.01 30.324">
	<g id="Layer_1_8_">
		
			<use xlink:href="#winder_x5F_static"  width="10.185" height="8.474" x="0.015" y="-8.472" transform="matrix(1 0 0 1 0 -7.9502)" style="overflow:visible;"/>
		
			<use xlink:href="#cubimal_1_"  width="28.804" height="30.324" x="-0.779" y="-25.963" transform="matrix(1 0 0 1 6 0)" style="overflow:visible;"/>
	</g>
</symbol>
<symbol  id="winder_x5F_static" viewBox="0.015 -8.472 10.185 8.474">
	<g id="Layer_4_1_">
		
			<use xlink:href="#winderedge"  width="4.537" height="8.127" x="0.015" y="-8.126" transform="matrix(1 0 0 1 0.7002 0)" style="overflow:visible;"/>
	</g>
	<g id="Layer_3_1_">
		
			<use xlink:href="#winderfacehighlight"  width="4.573" height="8.174" x="0.016" y="-8.173" transform="matrix(1 0 0 1 0.2002 -0.2002)" style="overflow:visible;"/>
	</g>
	<g id="Layer_2_copy_1_">
		
			<use xlink:href="#winderface1a"  width="4.573" height="8.174" x="0.015" y="-8.172" transform="matrix(1 0 0 1 0 -0.2998)" style="overflow:visible;"/>
	</g>
	<g id="Layer_1_7_">
		<g>
			
				<linearGradient id="SVGID_11_" gradientUnits="userSpaceOnUse" x1="1516.3662" y1="-17617.4609" x2="1517.6855" y2="-17617.4609" gradientTransform="matrix(-0.1705 -0.9854 0.9854 -0.1705 17625.4004 -1515.1064)">
				<stop  offset="0" style="stop-color:#8F8F8F"/>
				<stop  offset="0.2275" style="stop-color:#E8E8E8"/>
				<stop  offset="1" style="stop-color:#696969"/>
			</linearGradient>
			<path style="fill-rule:evenodd;clip-rule:evenodd;fill:url(#SVGID_11_);" d="M10.2-6.3L4.8-5.5C4.5-5.533,4.351-5.366,4.351-5
				c0,0.233,0.083,0.4,0.25,0.5c0.066,0.066,0.133,0.1,0.2,0.1l5.4-0.8V-6.3z"/>
		</g>
	</g>
</symbol>
<symbol  id="winderedge" viewBox="0.015 -8.126 4.537 8.127">
	<g id="Layer_1_4_">
		<g>
			
				<linearGradient id="SVGID_12_" gradientUnits="userSpaceOnUse" x1="7.209" y1="-16347.5195" x2="14.034" y2="-16347.5195" gradientTransform="matrix(1.465202e-004 -1 1 -0.001 16349.8027 -9.1758)">
				<stop  offset="0" style="stop-color:#8F8F8F"/>
				<stop  offset="0.2275" style="stop-color:#E8E8E8"/>
				<stop  offset="1" style="stop-color:#696969"/>
			</linearGradient>
			<path style="fill-rule:evenodd;clip-rule:evenodd;fill:url(#SVGID_12_);" d="M3.5-5.899c0.066,0.6-0.083,0.983-0.45,1.15L2.6-4.7
				C2.367-4.7,2.167-4.733,2-4.8c-0.533-0.167-0.833-0.533-0.9-1.1c-0.034-0.5,0.1-0.85,0.4-1.05c0.434-0.233,0.867-0.233,1.3,0
				C3.2-6.716,3.434-6.366,3.5-5.899z M0.05-1.25c0.1,0.8,0.5,1.216,1.2,1.25c1.367,0.033,2.333-0.633,2.9-2
				c0.5-1.233,0.534-2.05,0.1-2.45c0.434-0.533,0.4-1.333-0.1-2.4c-0.567-1.167-1.533-1.533-2.9-1.1c-0.7,0.233-1.1,0.767-1.2,1.6
				c-0.133,0.867,0.117,1.533,0.75,2L1.25-4L0.8-3.55C0.167-2.85-0.083-2.083,0.05-1.25z M3.5-2.75C3.434-2.25,3.2-1.833,2.8-1.5
				C2.367-1.1,1.934-0.966,1.5-1.1c-0.3-0.133-0.434-0.467-0.4-1C1.167-2.666,1.467-3.116,2-3.45l0.6-0.3L3.05-3.8
				C3.417-3.766,3.566-3.416,3.5-2.75z"/>
		</g>
	</g>
</symbol>
<symbol  id="winderface1a" viewBox="0.015 -8.172 4.573 8.174">
	<g id="Layer_1_2_">
		
			<linearGradient id="SVGID_13_" gradientUnits="userSpaceOnUse" x1="-1920.583" y1="-13812.1104" x2="-1911.4108" y2="-13812.1104" gradientTransform="matrix(0.2726 -0.9621 0.9621 0.2726 13813.2627 1917.9385)">
			<stop  offset="0" style="stop-color:#E8E8E8"/>
			<stop  offset="1" style="stop-color:#878787"/>
		</linearGradient>
		<path style="fill-rule:evenodd;clip-rule:evenodd;fill:url(#SVGID_13_);" d="M2.05-4.8c-0.566-0.133-0.867-0.483-0.9-1.05
			c-0.033-0.533,0.1-0.9,0.4-1.1c0.4-0.267,0.817-0.267,1.25,0C3.2-6.717,3.433-6.367,3.5-5.9c0.133,0.633,0,1-0.4,1.1L2.65-4.7
			L2.05-4.8z M0.05-1.25C0.183-0.45,0.6-0.033,1.3,0c1.367,0.033,2.333-0.633,2.9-2c0.5-1.233,0.517-2.05,0.05-2.45
			c0.467-0.5,0.45-1.3-0.05-2.4C3.633-8.05,2.667-8.433,1.3-8C0.6-7.733,0.183-7.183,0.05-6.35c-0.133,0.867,0.117,1.533,0.75,2
			L1.3-4L0.8-3.55C0.167-2.85-0.083-2.083,0.05-1.25z M3.5-2.75C3.433-2.25,3.2-1.833,2.8-1.5C2.367-1.1,1.95-0.967,1.55-1.1
			c-0.3-0.133-0.433-0.467-0.4-1c0.033-0.6,0.333-1.05,0.9-1.35l0.6-0.3L3.1-3.8C3.467-3.767,3.6-3.417,3.5-2.75z"/>
	</g>
</symbol>
<symbol  id="winderfacehighlight" viewBox="0.016 -8.173 4.573 8.174">
	<g id="Layer_1_3_">
		
			<linearGradient id="SVGID_14_" gradientUnits="userSpaceOnUse" x1="-1920.582" y1="-13812.1104" x2="-1911.4098" y2="-13812.1104" gradientTransform="matrix(0.2726 -0.9621 0.9621 0.2726 13813.2627 1917.9385)">
			<stop  offset="0" style="stop-color:#E8E8E8"/>
			<stop  offset="1" style="stop-color:#EDEDED"/>
		</linearGradient>
		<path style="fill-rule:evenodd;clip-rule:evenodd;fill:url(#SVGID_14_);" d="M2.05-4.8c-0.567-0.133-0.867-0.483-0.9-1.05
			c-0.033-0.533,0.1-0.9,0.4-1.1c0.4-0.267,0.817-0.267,1.25,0C3.2-6.717,3.434-6.367,3.5-5.9c0.1,0.6-0.034,0.967-0.4,1.1L2.65-4.7
			L2.05-4.8z M0.05-1.25C0.184-0.45,0.601-0.034,1.3,0c1.367,0.034,2.333-0.633,2.9-2c0.5-1.233,0.517-2.05,0.05-2.45
			c0.466-0.5,0.45-1.3-0.05-2.4C3.634-8.05,2.667-8.434,1.3-8c-0.7,0.267-1.117,0.817-1.25,1.65c-0.133,0.867,0.117,1.534,0.75,2
			L1.3-4L0.8-3.55C0.167-2.851-0.083-2.084,0.05-1.25z M1.55-1.101c-0.3-0.133-0.433-0.466-0.4-1c0.033-0.6,0.333-1.05,0.9-1.35
			l0.6-0.3l0.45-0.05c0.366,0.033,0.5,0.383,0.4,1.05C3.434-2.25,3.2-1.834,2.8-1.5C2.367-1.101,1.95-0.967,1.55-1.101z"/>
	</g>
</symbol>
<use xlink:href="#cubimal_x5F_mc"  width="34.01" height="30.324" id="cubimal" x="-0.385" y="-25.914" transform="matrix(1 0 0 -1 0.3999 4.3999)" style="overflow:visible;"/>
</svg>
