<?xml version="1.0" encoding="iso-8859-1"?>
<!-- Generator: Adobe Illustrator 15.1.0, SVG Export Plug-In . SVG Version: 6.00 Build 0)  -->
<!DOCTYPE svg PUBLIC "-//W3C//DTD SVG 1.1//EN" "http://www.w3.org/Graphics/SVG/1.1/DTD/svg11.dtd">
<svg version="1.1" id="flash0.ai" xmlns="http://www.w3.org/2000/svg" xmlns:xlink="http://www.w3.org/1999/xlink" x="0px" y="0px"
	 width="32.2px" height="27.15px" viewBox="0 0 32.2 27.15" style="enable-background:new 0 0 32.2 27.15;" xml:space="preserve">
<symbol  id="cubimal_1_" viewBox="-3.685 -26.655 29.895 27.155">
	<g id="Layer_1_5_">
		<g>
			
				<linearGradient id="SVGID_1_" gradientUnits="userSpaceOnUse" x1="363.4404" y1="317.9893" x2="365.192" y2="317.9893" gradientTransform="matrix(0.9991 0.0428 -0.0428 0.9991 -342.665 -357.5791)">
				<stop  offset="0" style="stop-color:#3D6C08"/>
				<stop  offset="0.9373" style="stop-color:#315705"/>
			</linearGradient>
			<path style="fill-rule:evenodd;clip-rule:evenodd;fill:url(#SVGID_1_);" d="M5.8-22l4.65-0.35c-0.733-3-1.434-4.417-2.1-4.25
				C7.55-26.4,6.7-24.867,5.8-22z"/>
			
				<linearGradient id="SVGID_2_" gradientUnits="userSpaceOnUse" x1="371.8955" y1="321.4805" x2="373.6471" y2="321.4805" gradientTransform="matrix(0.9991 0.0428 -0.0428 0.9991 -342.665 -357.5791)">
				<stop  offset="0" style="stop-color:#5F4E29"/>
				<stop  offset="0.9373" style="stop-color:#3A2B0E"/>
			</linearGradient>
			<path style="fill-rule:evenodd;clip-rule:evenodd;fill:url(#SVGID_2_);" d="M14.1-18.15l4.65-0.35c-0.733-3-1.433-4.417-2.1-4.25
				C15.85-22.55,15-21.017,14.1-18.15z"/>
			<g>
				
					<linearGradient id="SVGID_3_" gradientUnits="userSpaceOnUse" x1="-2093.9834" y1="-13468.4844" x2="-2087.603" y2="-13468.4844" gradientTransform="matrix(0.3056 -0.9522 0.9522 0.3056 13463.8682 2106.2148)">
					<stop  offset="0" style="stop-color:#487C10"/>
					<stop  offset="0.9373" style="stop-color:#2E4D04"/>
				</linearGradient>
				<path style="fill-rule:evenodd;clip-rule:evenodd;fill:url(#SVGID_3_);" d="M1.1-14.7l3.85-2.25v-2.35
					c-0.167-1.6-0.65-2.583-1.45-2.95c-0.867-0.4-2.117-0.383-3.75,0.05c-1.267,0.333-2.283,0.733-3.05,1.2
					c-0.434,0.233-0.5,0.567-0.2,1c0.1,0.133,0.633,0.667,1.6,1.6S0.066-16.234,1.1-14.7z"/>
				
					<linearGradient id="SVGID_4_" gradientUnits="userSpaceOnUse" x1="-3242.8701" y1="-9936.7891" x2="-3236.6648" y2="-9936.7891" gradientTransform="matrix(0.5922 -0.8058 0.8058 0.5922 9923.4121 3253.2383)">
					<stop  offset="0" style="stop-color:#55901B"/>
					<stop  offset="0.9373" style="stop-color:#477C0B"/>
				</linearGradient>
				<path style="fill-rule:evenodd;clip-rule:evenodd;fill:url(#SVGID_4_);" d="M-2.101-20c0.2-0.3,0.1-0.55-0.3-0.75
					c-0.333-0.2-0.6-0.167-0.8,0.1c-0.133,0.333-0.034,0.583,0.3,0.75c0.133,0.1,0.3,0.133,0.5,0.1
					C-2.267-19.834-2.167-19.9-2.101-20z"/>
				
					<linearGradient id="SVGID_5_" gradientUnits="userSpaceOnUse" x1="-3242.8281" y1="-9934.9697" x2="-3236.6228" y2="-9934.9697" gradientTransform="matrix(0.5922 -0.8058 0.8058 0.5922 9923.4121 3253.2383)">
					<stop  offset="0" style="stop-color:#55901B"/>
					<stop  offset="0.9373" style="stop-color:#477C0B"/>
				</linearGradient>
				<path style="fill-rule:evenodd;clip-rule:evenodd;fill:url(#SVGID_5_);" d="M-0.851-18.65c0.267-0.267,0.25-0.533-0.05-0.8
					c-0.233-0.333-0.5-0.384-0.8-0.15c-0.233,0.233-0.217,0.5,0.05,0.8C-1.351-18.5-1.083-18.45-0.851-18.65z"/>
				
					<linearGradient id="SVGID_6_" gradientUnits="userSpaceOnUse" x1="-3242.8555" y1="-9933.1172" x2="-3236.6501" y2="-9933.1172" gradientTransform="matrix(0.5922 -0.8058 0.8058 0.5922 9923.4121 3253.2383)">
					<stop  offset="0" style="stop-color:#55901B"/>
					<stop  offset="0.9373" style="stop-color:#477C0B"/>
				</linearGradient>
				<path style="fill-rule:evenodd;clip-rule:evenodd;fill:url(#SVGID_6_);" d="M0.399-17.25c0.1-0.066,0.15-0.183,0.15-0.35
					c0-0.167-0.067-0.316-0.2-0.45c-0.233-0.3-0.5-0.333-0.8-0.1c-0.233,0.2-0.217,0.467,0.05,0.8
					C-0.101-17.05,0.167-17.017,0.399-17.25z"/>
				
					<linearGradient id="SVGID_7_" gradientUnits="userSpaceOnUse" x1="-3242.8477" y1="-9935.9688" x2="-3236.6423" y2="-9935.9688" gradientTransform="matrix(0.5922 -0.8058 0.8058 0.5922 9923.4121 3253.2383)">
					<stop  offset="0" style="stop-color:#55901B"/>
					<stop  offset="0.9373" style="stop-color:#477C0B"/>
				</linearGradient>
				<path style="fill-rule:evenodd;clip-rule:evenodd;fill:url(#SVGID_7_);" d="M-0.75-20.5c0.167-0.267,0.083-0.517-0.25-0.75
					c-0.367-0.233-0.633-0.2-0.8,0.1c-0.167,0.267-0.067,0.517,0.3,0.75c0.133,0.1,0.283,0.133,0.45,0.1
					C-0.884-20.3-0.784-20.367-0.75-20.5z"/>
				
					<linearGradient id="SVGID_8_" gradientUnits="userSpaceOnUse" x1="-3242.8652" y1="-9934.25" x2="-3236.6599" y2="-9934.25" gradientTransform="matrix(0.5922 -0.8058 0.8058 0.5922 9923.4121 3253.2383)">
					<stop  offset="0" style="stop-color:#55901B"/>
					<stop  offset="0.9373" style="stop-color:#477C0B"/>
				</linearGradient>
				<path style="fill-rule:evenodd;clip-rule:evenodd;fill:url(#SVGID_8_);" d="M0.75-19.601c0.2-0.333,0.117-0.583-0.25-0.75
					c-0.333-0.233-0.6-0.216-0.8,0.05C-0.5-20-0.4-19.75,0-19.55c0.133,0.1,0.283,0.133,0.45,0.1
					C0.583-19.45,0.683-19.5,0.75-19.601z"/>
			</g>
			
				<linearGradient id="SVGID_9_" gradientUnits="userSpaceOnUse" x1="-2108.4727" y1="-13442.6211" x2="-2089.3242" y2="-13442.6211" gradientTransform="matrix(0.3068 -0.9518 0.9518 0.3068 13451.0811 2112.7813)">
				<stop  offset="0" style="stop-color:#487C10"/>
				<stop  offset="0.9373" style="stop-color:#2E4D04"/>
			</linearGradient>
			<path style="fill-rule:evenodd;clip-rule:evenodd;fill:url(#SVGID_9_);" d="M9.75-23.75c-0.8,0.034-2.25,0.2-4.35,0.5
				c-2.133,0.3-3.4,0.483-3.8,0.55c-0.667,0.133-1.133,0.433-1.4,0.9c-0.367,0.667-0.567,2.017-0.6,4.05
				c-0.133,3.233-0.2,5.6-0.2,7.1C-0.567-7.984-0.184-6.4,0.55-5.9c0.867,0.633,2.4,1.533,4.6,2.7C7.683-1.8,9.3-1.084,10-1.05
				c0.934,0.033,2.867-0.15,5.8-0.55c3.133-0.433,5.066-0.65,5.8-0.65c1.1,0,1.933-0.216,2.5-0.65c0.367-0.3,0.65-0.767,0.85-1.4
				c0.167-0.534,0.25-4.383,0.25-11.55c0-0.366,0-0.85,0-1.45c-0.033-0.5-0.184-0.95-0.45-1.35c-0.3-0.434-1.217-1.184-2.75-2.25
				c-1.333-0.967-2.3-1.6-2.9-1.9c-1.7-0.934-2.967-1.4-3.8-1.4C12.866-23.9,11.016-23.75,9.75-23.75z"/>
			<g>
				
					<linearGradient id="SVGID_10_" gradientUnits="userSpaceOnUse" x1="-3220.7676" y1="-10094.373" x2="-3204.5278" y2="-10094.373" gradientTransform="matrix(0.5804 -0.8144 0.8144 0.5804 10090.7549 3226.4023)">
					<stop  offset="0" style="stop-color:#55901B"/>
					<stop  offset="0.9373" style="stop-color:#477C0B"/>
				</linearGradient>
				<path style="fill-rule:evenodd;clip-rule:evenodd;fill:url(#SVGID_10_);" d="M2.85-10.25c0-0.367-0.1-0.683-0.3-0.95
					c-0.2-0.233-0.434-0.35-0.7-0.35S1.366-11.434,1.2-11.2c-0.2,0.267-0.3,0.583-0.3,0.95s0.1,0.7,0.3,1
					c0.2,0.267,0.417,0.4,0.65,0.4c0.267,0,0.5-0.133,0.7-0.4C2.75-9.55,2.85-9.884,2.85-10.25z"/>
				
					<linearGradient id="SVGID_11_" gradientUnits="userSpaceOnUse" x1="-3220.7715" y1="-10096.666" x2="-3204.5317" y2="-10096.666" gradientTransform="matrix(0.5804 -0.8144 0.8144 0.5804 10090.7549 3226.4023)">
					<stop  offset="0" style="stop-color:#55901B"/>
					<stop  offset="0.9373" style="stop-color:#477C0B"/>
				</linearGradient>
				<path style="fill-rule:evenodd;clip-rule:evenodd;fill:url(#SVGID_11_);" d="M2.85-14.2c0-0.367-0.1-0.684-0.3-0.95
					c-0.2-0.267-0.434-0.4-0.7-0.4s-0.483,0.133-0.65,0.4c-0.2,0.267-0.3,0.583-0.3,0.95c0,0.366,0.1,0.7,0.3,1
					c0.2,0.267,0.417,0.4,0.65,0.4c0.267,0,0.5-0.133,0.7-0.4C2.75-13.5,2.85-13.834,2.85-14.2z"/>
				
					<linearGradient id="SVGID_12_" gradientUnits="userSpaceOnUse" x1="-3220.7803" y1="-10099.1914" x2="-3204.5405" y2="-10099.1914" gradientTransform="matrix(0.5804 -0.8144 0.8144 0.5804 10090.7549 3226.4023)">
					<stop  offset="0" style="stop-color:#55901B"/>
					<stop  offset="0.9373" style="stop-color:#477C0B"/>
				</linearGradient>
				<path style="fill-rule:evenodd;clip-rule:evenodd;fill:url(#SVGID_12_);" d="M2.85-18.5c0-0.367-0.1-0.7-0.3-1
					c-0.2-0.267-0.434-0.4-0.7-0.4c-0.233,0-0.45,0.133-0.65,0.4c-0.2,0.3-0.3,0.633-0.3,1s0.1,0.684,0.3,0.95
					c0.167,0.267,0.383,0.4,0.65,0.4s0.5-0.133,0.7-0.4C2.75-17.817,2.85-18.134,2.85-18.5z"/>
				
					<linearGradient id="SVGID_13_" gradientUnits="userSpaceOnUse" x1="-3220.7822" y1="-10092.1641" x2="-3204.5425" y2="-10092.1641" gradientTransform="matrix(0.5804 -0.8144 0.8144 0.5804 10090.7549 3226.4023)">
					<stop  offset="0" style="stop-color:#55901B"/>
					<stop  offset="0.9373" style="stop-color:#477C0B"/>
				</linearGradient>
				<path style="fill-rule:evenodd;clip-rule:evenodd;fill:url(#SVGID_13_);" d="M5.899-10.7c0-0.367-0.1-0.684-0.3-0.95
					c-0.167-0.267-0.383-0.4-0.65-0.4s-0.5,0.133-0.7,0.4C4.083-11.384,4-11.067,4-10.7c0,0.366,0.083,0.683,0.25,0.95
					c0.2,0.267,0.434,0.4,0.7,0.4s0.483-0.133,0.65-0.4C5.8-10.017,5.899-10.334,5.899-10.7z"/>
				
					<linearGradient id="SVGID_14_" gradientUnits="userSpaceOnUse" x1="-3220.7852" y1="-10094.4707" x2="-3204.5454" y2="-10094.4707" gradientTransform="matrix(0.5804 -0.8144 0.8144 0.5804 10090.7549 3226.4023)">
					<stop  offset="0" style="stop-color:#55901B"/>
					<stop  offset="0.9373" style="stop-color:#477C0B"/>
				</linearGradient>
				<path style="fill-rule:evenodd;clip-rule:evenodd;fill:url(#SVGID_14_);" d="M5.899-14.65c0-0.367-0.1-0.7-0.3-1
					c-0.167-0.267-0.383-0.4-0.65-0.4s-0.5,0.133-0.7,0.4c-0.167,0.3-0.25,0.633-0.25,1s0.083,0.684,0.25,0.95
					c0.2,0.267,0.434,0.4,0.7,0.4s0.483-0.133,0.65-0.4C5.8-13.967,5.899-14.284,5.899-14.65z"/>
				
					<linearGradient id="SVGID_15_" gradientUnits="userSpaceOnUse" x1="-3220.7939" y1="-10096.9668" x2="-3204.5542" y2="-10096.9668" gradientTransform="matrix(0.5804 -0.8144 0.8144 0.5804 10090.7549 3226.4023)">
					<stop  offset="0" style="stop-color:#55901B"/>
					<stop  offset="0.9373" style="stop-color:#477C0B"/>
				</linearGradient>
				<path style="fill-rule:evenodd;clip-rule:evenodd;fill:url(#SVGID_15_);" d="M5.899-18.95c0-0.4-0.1-0.733-0.3-1
					c-0.167-0.267-0.383-0.4-0.65-0.4s-0.5,0.134-0.7,0.4c-0.167,0.267-0.25,0.6-0.25,1c0,0.366,0.083,0.683,0.25,0.95
					c0.2,0.267,0.434,0.4,0.7,0.4S5.433-17.734,5.6-18C5.8-18.267,5.899-18.584,5.899-18.95z"/>
				
					<linearGradient id="SVGID_16_" gradientUnits="userSpaceOnUse" x1="-3220.7617" y1="-10089.6816" x2="-3204.522" y2="-10089.6816" gradientTransform="matrix(0.5804 -0.8144 0.8144 0.5804 10090.7549 3226.4023)">
					<stop  offset="0" style="stop-color:#55901B"/>
					<stop  offset="0.9373" style="stop-color:#477C0B"/>
				</linearGradient>
				<path style="fill-rule:evenodd;clip-rule:evenodd;fill:url(#SVGID_16_);" d="M9.149-11.05c0-0.367-0.083-0.684-0.25-0.95
					c-0.2-0.267-0.433-0.4-0.7-0.4c-0.233,0-0.45,0.133-0.65,0.4c-0.2,0.267-0.3,0.583-0.3,0.95s0.1,0.683,0.3,0.95
					C7.716-9.834,7.933-9.7,8.2-9.7s0.5-0.134,0.7-0.4C9.066-10.367,9.149-10.684,9.149-11.05z"/>
				
					<linearGradient id="SVGID_17_" gradientUnits="userSpaceOnUse" x1="-3220.7646" y1="-10091.9883" x2="-3204.5249" y2="-10091.9883" gradientTransform="matrix(0.5804 -0.8144 0.8144 0.5804 10090.7549 3226.4023)">
					<stop  offset="0" style="stop-color:#55901B"/>
					<stop  offset="0.9373" style="stop-color:#477C0B"/>
				</linearGradient>
				<path style="fill-rule:evenodd;clip-rule:evenodd;fill:url(#SVGID_17_);" d="M9.149-15c0-0.367-0.083-0.7-0.25-1
					c-0.2-0.267-0.433-0.4-0.7-0.4c-0.233,0-0.45,0.133-0.65,0.4c-0.2,0.3-0.3,0.633-0.3,1s0.1,0.684,0.3,0.95
					c0.167,0.267,0.383,0.4,0.65,0.4s0.5-0.133,0.7-0.4C9.066-14.317,9.149-14.634,9.149-15z"/>
				
					<linearGradient id="SVGID_18_" gradientUnits="userSpaceOnUse" x1="-3220.7441" y1="-10094.4844" x2="-3204.5044" y2="-10094.4844" gradientTransform="matrix(0.5804 -0.8144 0.8144 0.5804 10090.7549 3226.4023)">
					<stop  offset="0" style="stop-color:#55901B"/>
					<stop  offset="0.9373" style="stop-color:#477C0B"/>
				</linearGradient>
				<path style="fill-rule:evenodd;clip-rule:evenodd;fill:url(#SVGID_18_);" d="M9.149-19.3c0-0.367-0.083-0.7-0.25-1
					c-0.2-0.267-0.433-0.4-0.7-0.4c-0.233,0-0.45,0.133-0.65,0.4c-0.2,0.3-0.3,0.633-0.3,1s0.1,0.683,0.3,0.95
					c0.167,0.267,0.383,0.4,0.65,0.4s0.5-0.134,0.7-0.4C9.066-18.617,9.149-18.934,9.149-19.3z"/>
				
					<linearGradient id="SVGID_19_" gradientUnits="userSpaceOnUse" x1="-3220.7822" y1="-10086.8184" x2="-3204.5425" y2="-10086.8184" gradientTransform="matrix(0.5804 -0.8144 0.8144 0.5804 10090.7549 3226.4023)">
					<stop  offset="0" style="stop-color:#55901B"/>
					<stop  offset="0.9373" style="stop-color:#477C0B"/>
				</linearGradient>
				<path style="fill-rule:evenodd;clip-rule:evenodd;fill:url(#SVGID_19_);" d="M13-11.4c0-0.367-0.1-0.7-0.3-1
					c-0.167-0.267-0.383-0.4-0.65-0.4c-0.267,0-0.5,0.133-0.7,0.4c-0.167,0.3-0.25,0.633-0.25,1s0.083,0.667,0.25,0.9
					c0.2,0.267,0.433,0.4,0.7,0.4c0.267,0,0.483-0.133,0.65-0.4C12.899-10.767,13-11.067,13-11.4z"/>
				
					<linearGradient id="SVGID_20_" gradientUnits="userSpaceOnUse" x1="-3220.7852" y1="-10089.125" x2="-3204.5454" y2="-10089.125" gradientTransform="matrix(0.5804 -0.8144 0.8144 0.5804 10090.7549 3226.4023)">
					<stop  offset="0" style="stop-color:#55901B"/>
					<stop  offset="0.9373" style="stop-color:#477C0B"/>
				</linearGradient>
				<path style="fill-rule:evenodd;clip-rule:evenodd;fill:url(#SVGID_20_);" d="M13-15.4c0-0.367-0.1-0.7-0.3-1
					c-0.167-0.267-0.383-0.4-0.65-0.4c-0.267,0-0.5,0.133-0.7,0.4c-0.167,0.3-0.25,0.633-0.25,1s0.083,0.684,0.25,0.95
					c0.2,0.267,0.433,0.4,0.7,0.4c0.267,0,0.483-0.133,0.65-0.4C12.899-14.717,13-15.034,13-15.4z"/>
				
					<linearGradient id="SVGID_21_" gradientUnits="userSpaceOnUse" x1="-3220.7939" y1="-10091.6211" x2="-3204.5542" y2="-10091.6211" gradientTransform="matrix(0.5804 -0.8144 0.8144 0.5804 10090.7549 3226.4023)">
					<stop  offset="0" style="stop-color:#55901B"/>
					<stop  offset="0.9373" style="stop-color:#477C0B"/>
				</linearGradient>
				<path style="fill-rule:evenodd;clip-rule:evenodd;fill:url(#SVGID_21_);" d="M13-19.7c0-0.4-0.1-0.733-0.3-1
					c-0.167-0.267-0.383-0.4-0.65-0.4c-0.267,0-0.5,0.134-0.7,0.4c-0.167,0.267-0.25,0.6-0.25,1c0,0.366,0.083,0.683,0.25,0.95
					c0.2,0.267,0.433,0.4,0.7,0.4c0.267,0,0.483-0.133,0.65-0.4C12.899-19.017,13-19.334,13-19.7z"/>
			</g>
			
				<linearGradient id="SVGID_22_" gradientUnits="userSpaceOnUse" x1="-2371.3213" y1="-12877.4355" x2="-2354.3235" y2="-12877.4355" gradientTransform="matrix(0.3574 -0.934 0.934 0.3574 12891.7334 2380.8115)">
				<stop  offset="0" style="stop-color:#A79876"/>
				<stop  offset="1" style="stop-color:#685C44"/>
			</linearGradient>
			<path style="fill-rule:evenodd;clip-rule:evenodd;fill:url(#SVGID_22_);" d="M24.95-4.3c0.066-0.2,0.133-1.067,0.2-2.6l0.05-8.95
				c0-0.366,0-0.85,0-1.45c-0.033-0.5-0.184-0.95-0.45-1.35c-0.3-0.434-1.217-1.184-2.75-2.25c-1.333-0.967-2.3-1.6-2.9-1.9
				c-0.267-0.167-0.9-0.434-1.9-0.8c-1-0.366-1.633-0.566-1.9-0.6c0.333,0.667,0.483,1.383,0.45,2.15l-0.1,14l0.1,0.15
				c0.2,0.2,1.117,0.7,2.75,1.5c1.8,0.9,2.967,1.517,3.5,1.85c1.4,0.9,2.15,1.4,2.25,1.5C24.616-3.417,24.85-3.834,24.95-4.3z"/>
			<linearGradient id="SVGID_23_" gradientUnits="userSpaceOnUse" x1="0.0498" y1="-4.4678" x2="24.2495" y2="-4.4678">
				<stop  offset="0" style="stop-color:#55901B"/>
				<stop  offset="0.9373" style="stop-color:#477C0B"/>
			</linearGradient>
			<path style="fill-rule:evenodd;clip-rule:evenodd;fill:url(#SVGID_23_);" d="M7.05-7c-3.733,0.4-6.067,0.567-7,0.5
				c0.167,0.267,0.333,0.467,0.5,0.6c0.867,0.633,2.4,1.533,4.6,2.7C7.683-1.8,9.3-1.084,10-1.05c2.3,0.1,6.167-0.3,11.6-1.2
				c1.433-0.2,2.317-0.466,2.65-0.8c-0.333-0.367-0.833-0.767-1.5-1.2c-0.5-0.3-1.8-0.966-3.9-2c-1.867-0.9-2.9-1.45-3.1-1.65
				C14.883-7.834,11.983-7.534,7.05-7z"/>
			<path style="fill-rule:evenodd;clip-rule:evenodd;fill:#86B932;" d="M6.149-7.25C5.35-7.184,4.1-7,2.399-6.7L0.1-6.25l7.6-0.8
				c1.367-0.167,2.983-0.317,4.85-0.45c1.8-0.133,2.85-0.167,3.15-0.1c0.367,0.034,1.667,0.65,3.9,1.85
				c1.433,0.767,2.983,1.667,4.65,2.7c-0.066-0.4-1.433-1.333-4.1-2.8c-2.7-1.5-4.083-2.417-4.15-2.75
				c-0.066-0.366-0.066-4.517,0-12.45c-0.066-1.7-0.3-2.75-0.7-3.15l0.2,0.6c0.067,0.3,0.083,2.3,0.05,6
				c-0.034,3.667-0.083,6.034-0.15,7.1c-0.066,1.167-0.117,1.8-0.15,1.9C15.183-8.4,15-8.267,14.7-8.2
				C14.333-8.101,11.483-7.784,6.149-7.25z"/>
			<g>
				<path style="fill-rule:evenodd;clip-rule:evenodd;fill:#C29F58;" d="M13-21.351c0.133,0.3,0.35,0.367,0.65,0.2
					c0.3-0.133,0.383-0.35,0.25-0.65c-0.767-1.867-1.083-3.317-0.95-4.35c0.066-0.333-0.067-0.5-0.4-0.5
					c-0.333-0.033-0.534,0.1-0.6,0.4C11.783-25.084,12.133-23.45,13-21.351z"/>
				<path style="fill-rule:evenodd;clip-rule:evenodd;fill:#C29F58;" d="M17.85-23.45c0,0.333,0.167,0.5,0.5,0.5s0.5-0.167,0.5-0.5
					v-1.1c0-0.333-0.167-0.5-0.5-0.5s-0.5,0.15-0.5,0.45V-23.45z"/>
				<path style="fill-rule:evenodd;clip-rule:evenodd;fill:#C29F58;" d="M20.7-23.55c-0.133,0.133-0.2,0.316-0.2,0.55
					c0.067,0.233,0.1,0.417,0.1,0.55c0.033,0.333,0.217,0.5,0.55,0.5c0.333,0,0.483-0.167,0.45-0.5l-0.1-0.35c0-0.042,0-0.076,0-0.1
					c0.184-0.183,0.167-0.383-0.05-0.6C21.183-23.734,20.933-23.75,20.7-23.55z"/>
				<path style="fill-rule:evenodd;clip-rule:evenodd;fill:#C29F58;" d="M22.95-19.65c0,0.333,0.167,0.483,0.5,0.45
					c0.333-0.034,0.5-0.217,0.5-0.55c0-0.4,0.083-0.683,0.25-0.85c0.233-0.233,0.217-0.466-0.05-0.7c-0.233-0.233-0.466-0.233-0.7,0
					C23.116-20.934,22.95-20.384,22.95-19.65z"/>
				<path style="fill-rule:evenodd;clip-rule:evenodd;fill:#C29F58;" d="M10.05-9.851c-0.133-0.3-0.35-0.383-0.65-0.25
					C9.1-9.934,9-9.7,9.1-9.4C9.266-8.934,9.583-8.467,10.05-8c0.433,0.434,0.883,0.75,1.35,0.95C12.5-6.517,13.283-6.5,13.75-7
					C13.983-7.234,14-7.467,13.8-7.7c-0.2-0.267-0.417-0.284-0.65-0.05c-0.333,0.333-0.95,0.15-1.85-0.55
					C10.633-8.8,10.216-9.317,10.05-9.851z"/>
				<path style="fill-rule:evenodd;clip-rule:evenodd;fill:#C29F58;" d="M10.45-6.05C10.183-6.217,9.966-6.167,9.8-5.9
					c-0.167,0.3-0.117,0.533,0.15,0.7c1.533,1,3.033,1.45,4.5,1.35c0.533-0.066,1.283-0.216,2.25-0.45c0.4-0.067,1.017-0.1,1.85-0.1
					c0.333-0.033,0.45-0.217,0.35-0.55c-0.066-0.333-0.25-0.467-0.55-0.4c-0.867-0.1-1.5-0.083-1.9,0.05
					c-0.967,0.3-1.633,0.45-2,0.45C13.083-4.851,11.75-5.25,10.45-6.05z"/>
				<path style="fill-rule:evenodd;clip-rule:evenodd;fill:#C29F58;" d="M21.85-2.851c0.267-0.167,0.3-0.383,0.1-0.65
					c-0.167-0.267-0.383-0.316-0.65-0.15c-0.9,0.6-1.284,1.233-1.15,1.9c0.1,0.467,0.467,1.017,1.1,1.65
					c0.233,0.233,0.45,0.217,0.65-0.05c0.233-0.267,0.233-0.517,0-0.75c-0.5-0.5-0.75-0.816-0.75-0.95
					C21.149-2.117,21.383-2.45,21.85-2.851z"/>
				<path style="fill-rule:evenodd;clip-rule:evenodd;fill:#C29F58;" d="M9.3-15.601c-0.7-0.333-1.117-0.8-1.25-1.4
					c-0.034-0.3-0.217-0.433-0.55-0.4c-0.333,0-0.467,0.167-0.4,0.5c0.1,0.633,0.317,1.117,0.65,1.45c0.3,0.3,0.767,0.566,1.4,0.8
					c0.8,0.3,1.5,0.783,2.1,1.45c0.4,0.466,0.867,1.167,1.4,2.1c0.167,0.267,0.383,0.317,0.65,0.15c0.3-0.167,0.367-0.384,0.2-0.65
					c-0.8-1.4-1.583-2.433-2.35-3.1C11.05-14.8,10.433-15.101,9.3-15.601z"/>
				<path style="fill-rule:evenodd;clip-rule:evenodd;fill:#C29F58;" d="M9.5-20.601c-0.566-0.833-0.8-1.616-0.7-2.35
					c0.066-0.333-0.067-0.534-0.4-0.6c-0.3-0.1-0.483,0.017-0.55,0.35c-0.1,0.8-0.033,1.483,0.2,2.05c0.167,0.434,0.55,1,1.15,1.7
					c1.4,1.667,2.55,3.333,3.45,5c0.133,0.3,0.35,0.366,0.65,0.2c0.3-0.2,0.367-0.433,0.2-0.7c-0.833-1.5-1.633-2.733-2.4-3.7
					C10.366-19.484,9.833-20.134,9.5-20.601z"/>
				<path style="fill-rule:evenodd;clip-rule:evenodd;fill:#C29F58;" d="M10.5-26.3c-0.333-0.034-0.517,0.117-0.55,0.45
					c-0.1,1.9,0.083,3.534,0.55,4.9c0.833,1.7,1.4,2.983,1.7,3.85c0.1,0.3,0.316,0.417,0.65,0.35c0.333-0.066,0.45-0.25,0.35-0.55
					c-0.267-0.8-0.783-1.95-1.55-3.45c-0.566-1.566-0.8-3.25-0.7-5.05C10.983-26.134,10.833-26.3,10.5-26.3z"/>
			</g>
			<g>
				<path style="fill-rule:evenodd;clip-rule:evenodd;fill:#DBB464;" d="M10.45-11c-0.3-0.4-0.467-0.75-0.5-1.05
					c-0.033-0.3-0.217-0.417-0.55-0.35c-0.333,0.033-0.483,0.217-0.45,0.55c0.033,0.2,0.283,0.65,0.75,1.35
					c0.7,0.967,1.066,1.483,1.1,1.55c0.767,0.933,1.55,1.366,2.35,1.3c0.333,0,0.467-0.167,0.4-0.5
					c-0.034-0.333-0.217-0.483-0.55-0.45c-0.6,0.034-1.2-0.466-1.8-1.5C10.866-10.5,10.616-10.8,10.45-11z"/>
				<path style="fill-rule:evenodd;clip-rule:evenodd;fill:#DBB464;" d="M13.5-9.15c0.333,0.1,0.517-0.017,0.55-0.35
					c0.033-0.333-0.1-0.533-0.4-0.6c-0.6-0.167-1.1-0.75-1.5-1.75c-0.133-0.5-0.383-1.267-0.75-2.3c-0.066-0.3-0.267-0.383-0.6-0.25
					c-0.3,0.1-0.4,0.316-0.3,0.65l0.55,1.65c0.167,0.634,0.367,1.117,0.6,1.45C12.216-9.817,12.833-9.317,13.5-9.15z"/>
				<path style="fill-rule:evenodd;clip-rule:evenodd;fill:#DBB464;" d="M13.25-11.2c0.267,0.167,0.5,0.133,0.7-0.1
					c0.233-0.233,0.217-0.45-0.05-0.65c-0.333-0.233-0.583-0.667-0.75-1.3c-0.1-0.333-0.25-0.816-0.45-1.45
					c-0.5-1.1-0.8-1.983-0.9-2.65c-0.034-0.333-0.217-0.45-0.55-0.35c-0.3,0.1-0.433,0.316-0.4,0.65c0.1,0.5,0.283,1.133,0.55,1.9
					c0.434,1.066,0.667,1.684,0.7,1.85C12.433-12.2,12.816-11.5,13.25-11.2z"/>
				<path style="fill-rule:evenodd;clip-rule:evenodd;fill:#DBB464;" d="M10.25-18.851c-0.267-0.167-0.5-0.116-0.7,0.15
					c-0.2,0.267-0.167,0.483,0.1,0.65c1,0.566,1.667,1.033,2,1.4c0.4,0.467,0.767,1.15,1.1,2.05c0.133,0.3,0.35,0.367,0.65,0.2
					c0.3-0.133,0.383-0.35,0.25-0.65c-0.333-0.967-0.75-1.717-1.25-2.25C11.966-17.734,11.25-18.25,10.25-18.851z"/>
				<path style="fill-rule:evenodd;clip-rule:evenodd;fill:#DBB464;" d="M10.35-21.8c-0.3,0.066-0.433,0.267-0.4,0.6
					c0.367,1.866,1.117,3.4,2.25,4.6c0.233,0.233,0.467,0.233,0.7,0c0.267-0.233,0.284-0.466,0.05-0.7c-1-1.034-1.667-2.417-2-4.15
					C10.883-21.75,10.683-21.867,10.35-21.8z"/>
				<path style="fill-rule:evenodd;clip-rule:evenodd;fill:#DBB464;" d="M12.3-18.15c0.2,0.233,0.433,0.25,0.7,0.05
					c0.267-0.2,0.3-0.417,0.1-0.65c-0.767-0.933-1.15-2.35-1.15-4.25c0-0.333-0.167-0.483-0.5-0.45c-0.333,0.033-0.5,0.216-0.5,0.55
					C10.95-20.8,11.399-19.217,12.3-18.15z"/>
				<path style="fill-rule:evenodd;clip-rule:evenodd;fill:#DBB464;" d="M10.25-24.9c-0.1,0.3-0.017,0.517,0.25,0.65
					c0.7,0.3,1.233,0.85,1.6,1.65c0.333,1,0.583,1.75,0.75,2.25c0.133,0.3,0.35,0.367,0.65,0.2c0.3-0.133,0.4-0.35,0.3-0.65
					c-0.233-0.6-0.567-1.45-1-2.55c-0.467-0.866-1.1-1.466-1.9-1.8C10.6-25.284,10.383-25.2,10.25-24.9z"/>
				<path style="fill-rule:evenodd;clip-rule:evenodd;fill:#DBB464;" d="M13.35-24.55c-0.033,0.3,0.117,0.45,0.45,0.45
					c0.333,0,0.517-0.167,0.55-0.5c0-0.466,0.117-0.767,0.35-0.9c0.267-0.167,0.316-0.4,0.15-0.7c-0.167-0.3-0.383-0.367-0.65-0.2
					C13.633-26.067,13.35-25.45,13.35-24.55z"/>
				<path style="fill-rule:evenodd;clip-rule:evenodd;fill:#DBB464;" d="M14.7-24.55c-0.067,0.3,0.066,0.483,0.4,0.55
					c0.333,0.1,0.533-0.017,0.6-0.35c0.133-0.5,0.217-0.767,0.25-0.8c0.3-0.133,0.367-0.35,0.2-0.65c-0.167-0.3-0.4-0.367-0.7-0.2
					c-0.233,0.1-0.4,0.3-0.5,0.6C14.85-25.034,14.766-24.75,14.7-24.55z"/>
				<path style="fill-rule:evenodd;clip-rule:evenodd;fill:#DBB464;" d="M16.2-24.3c-0.1,0.3,0.017,0.483,0.35,0.55
					c0.333,0.067,0.55-0.05,0.65-0.35c0.167-0.5,0.25-0.966,0.25-1.4c0-0.3-0.167-0.433-0.5-0.4c-0.333,0-0.5,0.167-0.5,0.5
					S16.366-24.7,16.2-24.3z"/>
				<path style="fill-rule:evenodd;clip-rule:evenodd;fill:#DBB464;" d="M19.1-23.3c0,0.3,0.167,0.45,0.5,0.45s0.5-0.167,0.5-0.5
					v-0.85c0-0.333-0.167-0.5-0.5-0.5s-0.5,0.167-0.5,0.5V-23.3z"/>
				<path style="fill-rule:evenodd;clip-rule:evenodd;fill:#DBB464;" d="M20.95-21.101c0,0.333,0.167,0.5,0.5,0.5
					c0.333,0.034,0.5-0.116,0.5-0.45c0-0.567,0.066-0.9,0.2-1c0.233-0.233,0.25-0.467,0.05-0.7c-0.2-0.267-0.434-0.3-0.7-0.1
					C21.133-22.517,20.95-21.934,20.95-21.101z"/>
				<path style="fill-rule:evenodd;clip-rule:evenodd;fill:#DBB464;" d="M22.1-19.9c0,0.333,0.167,0.483,0.5,0.45
					c0.3-0.034,0.45-0.217,0.45-0.55v-2.25c0-0.333-0.15-0.483-0.45-0.45c-0.333,0.033-0.5,0.216-0.5,0.55V-19.9z"/>
				<path style="fill-rule:evenodd;clip-rule:evenodd;fill:#DBB464;" d="M24.1-18.55c0,0.333,0.167,0.483,0.5,0.45
					c0.333-0.033,0.483-0.2,0.45-0.5c0-0.7,0.1-1.167,0.3-1.4c0.2-0.267,0.167-0.5-0.1-0.7c-0.233-0.2-0.467-0.184-0.7,0.05
					C24.183-20.25,24.033-19.55,24.1-18.55z"/>
				<path style="fill-rule:evenodd;clip-rule:evenodd;fill:#DBB464;" d="M24.85-18.15c0.133,0.267,0.35,0.35,0.65,0.25
					c0.333-0.1,0.434-0.3,0.3-0.6c-0.067-0.133-0.083-0.25-0.05-0.35c0.167-0.267,0.1-0.483-0.2-0.65
					c-0.267-0.133-0.483-0.066-0.65,0.2C24.7-19,24.683-18.617,24.85-18.15z"/>
				<path style="fill-rule:evenodd;clip-rule:evenodd;fill:#DBB464;" d="M10.45-7c-0.3-0.066-0.5,0.05-0.6,0.35
					C9.75-6.317,9.866-6.101,10.2-6c3.033,0.9,4.533,0.733,4.5-0.5c0-0.333-0.167-0.5-0.5-0.5c-0.304,0-0.471,0.142-0.5,0.425
					L13.6-6.55h-0.5l-1-0.1C11.5-6.717,10.95-6.834,10.45-7z"/>
				<path style="fill-rule:evenodd;clip-rule:evenodd;fill:#DBB464;" d="M10.35-4.101c-0.3-0.033-0.467,0.117-0.5,0.45
					s0.117,0.5,0.45,0.5c0.367,0,1.033,0.033,2,0.1c0.867,0,1.533-0.117,2-0.35c1.033-0.633,1.966-1.533,2.8-2.7
					c0.2-0.267,0.167-0.483-0.1-0.65c-0.3-0.2-0.533-0.167-0.7,0.1c-0.667,0.867-1.05,1.35-1.15,1.45
					c-0.5,0.533-1.017,0.85-1.55,0.95S11.983-4.101,10.35-4.101z"/>
				<path style="fill-rule:evenodd;clip-rule:evenodd;fill:#DBB464;" d="M18.7-4.8c0.233-0.233,0.217-0.45-0.05-0.65
					c-0.233-0.233-0.466-0.233-0.7,0c-0.9,0.566-1.533,1.066-1.9,1.5c-0.434,0.466-0.75,1.033-0.95,1.7
					c-0.133,0.333-0.033,0.534,0.3,0.6C15.733-1.584,15.95-1.7,16.05-2c0.233-0.7,0.583-1.233,1.05-1.6
					C18.033-4.267,18.566-4.667,18.7-4.8z"/>
				<path style="fill-rule:evenodd;clip-rule:evenodd;fill:#DBB464;" d="M16.899-2.351c-0.233,0.134-0.55,0.233-0.95,0.3
					c-0.4,0.066-0.717,0.133-0.95,0.2c-0.333,0.034-0.467,0.217-0.4,0.55c0.033,0.333,0.217,0.466,0.55,0.4
					c1.267-0.233,2.083-0.467,2.45-0.7c0.567-0.4,1.083-1.05,1.55-1.95c0.133-0.3,0.067-0.517-0.2-0.65
					c-0.3-0.1-0.533-0.017-0.7,0.25C17.783-3.117,17.333-2.584,16.899-2.351z"/>
				<path style="fill-rule:evenodd;clip-rule:evenodd;fill:#DBB464;" d="M21.75-3.101c0.167-0.267,0.117-0.483-0.15-0.65
					c-0.267-0.2-0.5-0.167-0.7,0.1C19.8-2.117,18.417-1.234,16.75-1c-0.333,0.034-0.467,0.217-0.4,0.55
					c0.033,0.333,0.217,0.483,0.55,0.45C18.899-0.3,20.516-1.334,21.75-3.101z"/>
				<path style="fill-rule:evenodd;clip-rule:evenodd;fill:#DBB464;" d="M22.3-2.45c-0.067-0.333-0.267-0.467-0.6-0.4
					c-0.3,0.067-0.417,0.25-0.35,0.55c0.167,0.8,0.6,1.466,1.3,2c0.7,0.5,1.45,0.767,2.25,0.8c0.333,0,0.517-0.167,0.55-0.5
					S25.333-0.5,25-0.5c-0.6-0.033-1.15-0.216-1.65-0.55C22.783-1.417,22.433-1.884,22.3-2.45z"/>
				<path style="fill-rule:evenodd;clip-rule:evenodd;fill:#DBB464;" d="M23.399-2.351c-0.3-0.066-0.483,0.067-0.55,0.4
					c-0.067,0.3,0.067,0.483,0.4,0.55c0.6,0.167,1.167,0.117,1.7-0.15c0.566-0.233,0.967-0.65,1.2-1.25
					c0.133-0.267,0.05-0.483-0.25-0.65c-0.3-0.134-0.517-0.05-0.65,0.25C24.95-2.467,24.333-2.184,23.399-2.351z"/>
				<path style="fill-rule:evenodd;clip-rule:evenodd;fill:#DBB464;" d="M8.7-19.55c-0.067-0.3-0.267-0.417-0.6-0.35
					c-0.3,0.033-0.433,0.217-0.4,0.55c0.367,1.634,0.95,2.917,1.75,3.85c1.533,1.767,2.65,2.917,3.35,3.45
					c0.267,0.2,0.483,0.167,0.65-0.1c0.2-0.267,0.167-0.5-0.1-0.7C10.75-14.884,9.2-17.117,8.7-19.55z"/>
				<path style="fill-rule:evenodd;clip-rule:evenodd;fill:#DBB464;" d="M12.649-19.65c0.167,0.267,0.383,0.316,0.65,0.15
					c0.3-0.2,0.367-0.45,0.2-0.75c-0.233-0.4-0.383-0.933-0.45-1.6c0-0.333-0.167-0.483-0.5-0.45c-0.333,0-0.483,0.167-0.45,0.5
					C12.1-21.101,12.283-20.384,12.649-19.65z"/>
			</g>
			<g>
				<path style="fill-rule:evenodd;clip-rule:evenodd;fill:#DBB464;" d="M20.7-2.55c1.6,0.966,2.816,1.183,3.65,0.65
					c0.6-0.4,0.933-1.133,1-2.2c0.733-8.1,0.9-12.716,0.5-13.85c-0.267-0.8-1.4-1.917-3.4-3.35c-0.867-0.633-2.5-1.7-4.9-3.2
					c-1.267-0.8-2.35-0.95-3.25-0.45c-0.8,0.466-1.2,1.183-1.2,2.15c-0.233,8.5-0.283,13.417-0.15,14.75
					c0.1,0.9,1.183,1.95,3.25,3.15C17.3-4.267,18.8-3.484,20.7-2.55z"/>
				<path style="fill-rule:evenodd;clip-rule:evenodd;fill:#AB8743;" d="M14.6-6.4c-0.467-0.566-0.717-1.05-0.75-1.45
					c-0.167-1.5-0.133-6.417,0.1-14.75c0-0.9,0.433-1.517,1.3-1.85c0.933-0.354,2.008-0.179,3.225,0.525L17.55-24.5
					c-1.267-0.8-2.35-0.95-3.25-0.45c-0.8,0.466-1.2,1.183-1.2,2.15c-0.233,8.5-0.283,13.417-0.15,14.75
					c0.133,0.9,1.2,1.933,3.2,3.1C15.583-5.351,15.066-5.834,14.6-6.4z"/>
				<path style="fill-rule:evenodd;clip-rule:evenodd;fill:#F0E0BB;" d="M21.2-3.101c1.433,0.9,2.533,1.1,3.3,0.6
					c0.533-0.367,0.85-1.05,0.95-2.05c0.033-0.534,0.183-2.667,0.45-6.4c0.233-3.634,0.217-5.8-0.05-6.5
					c-0.233-0.733-1.25-1.767-3.05-3.1c-0.434-0.333-1.9-1.333-4.4-3c-1.133-0.733-2.117-0.867-2.95-0.4
					c-0.733,0.4-1.117,1.066-1.15,2c-0.2,7.733-0.233,12.3-0.1,13.7c0.1,0.833,1.066,1.817,2.9,2.95C18.133-4.734,19.5-4,21.2-3.101
					z"/>
				<g>
					<path style="fill-rule:evenodd;clip-rule:evenodd;fill:#A8420E;" d="M14.2-8.25c0.1,0.833,1.066,1.817,2.9,2.95
						c1.033,0.566,2.4,1.3,4.1,2.2c1.433,0.9,2.533,1.1,3.3,0.6c0.533-0.367,0.85-1.05,0.95-2.05c0.033-0.5,0.183-2.6,0.45-6.3
						c0.233-3.6,0.233-5.783,0-6.55l-0.55-0.45c0.267,0.467,0.4,0.9,0.4,1.3c-0.033,0.367-0.217,0.6-0.55,0.7
						c-0.434,0.134-0.65,0.467-0.65,1c0,0.567,0.216,0.784,0.65,0.65c0.433-0.134,0.683,0.066,0.75,0.6
						c0.033,0.5-0.083,0.917-0.35,1.25c-0.3,0.4-0.55,0.8-0.75,1.2c-0.233,0.5-0.233,0.717,0,0.65c0.267-0.066,0.433,0.267,0.5,1
						c0.033,0.7-0.1,1.2-0.4,1.5c-0.434,0.467-0.833,1-1.2,1.6c-0.433,0.733-0.483,1.117-0.15,1.15c0.4,0.067,0.55,0.333,0.45,0.8
						c-0.067,0.466-0.35,0.75-0.85,0.85c-0.733,0.1-2.1-0.45-4.1-1.65c-1.867-1.133-2.983-2.017-3.35-2.65
						c-0.3-0.533-0.433-0.833-0.4-0.9c0.033-0.067,0.25,0,0.65,0.2c0.434,0.233,0.85,0.217,1.25-0.05c0.4-0.3,0.35-0.783-0.15-1.45
						c-0.8-1.033-1.317-1.783-1.55-2.25c-0.467-0.833-0.583-1.5-0.35-2c0.2-0.4,0.483-0.383,0.85,0.05
						c0.4,0.533,0.667,0.767,0.8,0.7c0.667-0.333,0.533-1.167-0.4-2.5c-0.633-0.9-1.05-1.75-1.25-2.55
						c-0.267-0.9-0.133-1.383,0.4-1.45c0.367-0.033,0.817,0.35,1.35,1.15c0.467,0.733,0.85,1.066,1.15,1
						c0.8-0.233,0.583-1.2-0.65-2.9c-0.5-0.7-0.733-1.183-0.7-1.45c0-0.333,0.417-0.5,1.25-0.5c-1-0.567-2.017-0.817-3.05-0.75
						c-0.434,0.5-0.65,1.033-0.65,1.6C14.1-14.217,14.066-9.65,14.2-8.25z"/>
					<path style="fill-rule:evenodd;clip-rule:evenodd;fill:#604821;" d="M18.1-8.5c-0.2,0.5,0,0.717,0.6,0.65
						c0.433-0.066,0.667,0.217,0.7,0.85c0.034,0.767,0.1,1.184,0.2,1.25c0.367,0.267,0.617,0.417,0.75,0.45
						c0.267,0.033,0.433-0.2,0.5-0.7l0.1-1.1l0.55,0.45c0.4,0.233,0.684,0.167,0.85-0.2c0.133-0.366,0.083-0.816-0.15-1.35
						c-0.1-0.3-0.267-0.684-0.5-1.15c-0.067-0.366-0.067-1.116,0-2.25c0.033-1.233,0.117-2.233,0.25-3
						c0.2-1.133,0.55-1.533,1.05-1.2c0.467,0.333,0.7,0.45,0.7,0.35c0.033-0.267-0.017-0.767-0.15-1.5
						c-0.1-0.634-0.083-1.017,0.05-1.15c0.367-0.366,0.95-0.283,1.75,0.25l0.55,0.45l-0.05-0.05c-0.233-0.733-1.25-1.767-3.05-3.1
						c-0.434-0.333-1.9-1.333-4.4-3c-0.667-0.367-1.267-0.583-1.8-0.65c-0.167,0.2-0.717,0.4-1.65,0.6v0.05
						C15.983-23.617,17-23.367,18-22.8c0.467,0.233,0.95,0.55,1.45,0.95c1,0.867,1.55,1.65,1.65,2.35c0.1,0.567-0.117,1-0.65,1.3
						c-0.434,0.233-0.6,0.5-0.5,0.8c0.1,0.267,0.433,0.5,1,0.7c0.633,0.2,0.783,1.316,0.45,3.35c-0.333,2.1-0.933,3.3-1.8,3.6
						C18.766-9.45,18.266-9.034,18.1-8.5z"/>
				</g>
			</g>
			<g>
				<g>
					<path style="fill-rule:evenodd;clip-rule:evenodd;fill:#B6A176;" d="M20.899-13.7c0-0.667-0.15-1.233-0.45-1.7
						c-0.3-0.467-0.65-0.7-1.05-0.7c-0.433,0-0.783,0.233-1.05,0.7c-0.3,0.467-0.45,1.033-0.45,1.7c0,0.667,0.15,1.216,0.45,1.65
						c0.267,0.466,0.617,0.7,1.05,0.7c0.4,0,0.75-0.233,1.05-0.7C20.75-12.517,20.899-13.067,20.899-13.7z"/>
					
						<radialGradient id="SVGID_24_" cx="18.4497" cy="-14.3506" r="1.5125" gradientTransform="matrix(1 0 0 -1 0 -28.7012)" gradientUnits="userSpaceOnUse">
						<stop  offset="0" style="stop-color:#4D3B1D"/>
						<stop  offset="1" style="stop-color:#2B1D04"/>
					</radialGradient>
					<path style="fill-rule:evenodd;clip-rule:evenodd;fill:url(#SVGID_24_);" d="M20.3-13.7c0-0.5-0.117-0.917-0.35-1.25
						c-0.233-0.333-0.533-0.5-0.9-0.5s-0.667,0.167-0.9,0.5c-0.233,0.333-0.35,0.75-0.35,1.25c0,0.466,0.117,0.866,0.35,1.2
						c0.267,0.333,0.567,0.5,0.9,0.5c0.367,0,0.667-0.167,0.9-0.5S20.3-13.234,20.3-13.7z"/>
				</g>
				<g>
					<path style="fill-rule:evenodd;clip-rule:evenodd;fill:#584D39;" d="M24.399-11.75c0-0.6-0.117-1.117-0.35-1.55
						c-0.233-0.434-0.517-0.633-0.85-0.6c-0.333,0-0.617,0.217-0.85,0.65c-0.233,0.434-0.35,0.967-0.35,1.6
						c0,0.566,0.117,1.066,0.35,1.5s0.517,0.633,0.85,0.6c0.333,0,0.617-0.217,0.85-0.65C24.283-10.634,24.399-11.15,24.399-11.75z"
						/>
					
						<radialGradient id="SVGID_25_" cx="19.6133" cy="-211.8057" r="1.5505" gradientTransform="matrix(0.9997 -0.0242 0 -0.8223 2.3916 -185.9019)" gradientUnits="userSpaceOnUse">
						<stop  offset="0" style="stop-color:#4D3B1D"/>
						<stop  offset="1" style="stop-color:#2B1D04"/>
					</radialGradient>
					<path style="fill-rule:evenodd;clip-rule:evenodd;fill:url(#SVGID_25_);" d="M23.95-11.7c0-0.467-0.1-0.85-0.3-1.15
						c-0.2-0.333-0.433-0.5-0.7-0.5c-0.267,0.034-0.5,0.2-0.7,0.5c-0.2,0.333-0.3,0.717-0.3,1.15c0,0.433,0.1,0.8,0.3,1.1
						c0.2,0.333,0.434,0.483,0.7,0.45c0.267,0,0.5-0.167,0.7-0.5C23.85-10.95,23.95-11.3,23.95-11.7z"/>
				</g>
			</g>
			
				<linearGradient id="SVGID_26_" gradientUnits="userSpaceOnUse" x1="-3235.0889" y1="-6410.355" x2="-3231.1885" y2="-6410.355" gradientTransform="matrix(0.8076 -0.5897 0.5897 0.8076 6395.3779 3248.1113)">
				<stop  offset="0" style="stop-color:#4A810C"/>
				<stop  offset="0.9373" style="stop-color:#2F5405"/>
			</linearGradient>
			<path style="fill-rule:evenodd;clip-rule:evenodd;fill:url(#SVGID_26_);" d="M3.55-20.101c1.267,0.467,2.133,0.233,2.6-0.7
				c0.233-0.467,0.333-0.983,0.3-1.55c-2.033-1.433-3.383-2.2-4.05-2.3c-0.466-0.066-0.483,0.633-0.05,2.1
				C2.75-21.084,3.149-20.267,3.55-20.101z"/>
		</g>
	</g>
</symbol>
<symbol  id="cubimal_x5F_mc" viewBox="-0.385 -26.606 32.196 27.155">
	<g id="Layer_5_1_">
	</g>
	<g id="Layer_4_2_">
	</g>
	<g id="Layer_2_copy_2_">
	</g>
	<g id="Layer_2_2_">
	</g>
	<g id="Layer_1_9_">
		
			<use xlink:href="#cubimal_x5F_scene1"  width="32.196" height="27.155" x="0.015" y="-26.655" transform="matrix(1 0 0 1 -0.3999 0.0498)" style="overflow:visible;"/>
	</g>
	<g id="Layer_6_1_">
	</g>
</symbol>
<symbol  id="cubimal_x5F_scene1" viewBox="0.015 -26.655 32.196 27.155">
	<g id="Layer_1_8_">
		
			<use xlink:href="#winder_x5F_static"  width="10.185" height="8.474" x="0.015" y="-8.472" transform="matrix(1 0 0 1 0 -7.9502)" style="overflow:visible;"/>
		
			<use xlink:href="#cubimal_1_"  width="29.895" height="27.155" x="-3.685" y="-26.655" transform="matrix(1 0 0 1 6 0)" style="overflow:visible;"/>
	</g>
</symbol>
<symbol  id="winder_x5F_static" viewBox="0.015 -8.472 10.185 8.474">
	<g id="Layer_4_1_">
		
			<use xlink:href="#winderedge"  width="4.537" height="8.127" x="0.015" y="-8.126" transform="matrix(1 0 0 1 0.7002 0)" style="overflow:visible;"/>
	</g>
	<g id="Layer_3_1_">
		
			<use xlink:href="#winderfacehighlight"  width="4.573" height="8.174" x="0.016" y="-8.173" transform="matrix(1 0 0 1 0.2002 -0.2002)" style="overflow:visible;"/>
	</g>
	<g id="Layer_2_copy_1_">
		
			<use xlink:href="#winderface1a"  width="4.573" height="8.174" x="0.015" y="-8.172" transform="matrix(1 0 0 1 0 -0.2998)" style="overflow:visible;"/>
	</g>
	<g id="Layer_1_7_">
		<g>
			
				<linearGradient id="SVGID_27_" gradientUnits="userSpaceOnUse" x1="1515.5659" y1="-17620.7891" x2="1516.8853" y2="-17620.7891" gradientTransform="matrix(-0.1705 -0.9854 0.9854 -0.1705 17628.541 -1516.4619)">
				<stop  offset="0" style="stop-color:#8F8F8F"/>
				<stop  offset="0.2275" style="stop-color:#E8E8E8"/>
				<stop  offset="1" style="stop-color:#696969"/>
			</linearGradient>
			<path style="fill-rule:evenodd;clip-rule:evenodd;fill:url(#SVGID_27_);" d="M10.2-6.3L4.8-5.5C4.5-5.533,4.351-5.366,4.351-5
				c0,0.233,0.083,0.4,0.25,0.5c0.066,0.066,0.133,0.1,0.2,0.1l5.4-0.8V-6.3z"/>
		</g>
	</g>
</symbol>
<symbol  id="winderedge" viewBox="0.015 -8.126 4.537 8.127">
	<g id="Layer_1_4_">
		<g>
			
				<linearGradient id="SVGID_28_" gradientUnits="userSpaceOnUse" x1="6.21" y1="-16350.5176" x2="13.035" y2="-16350.5176" gradientTransform="matrix(1.465202e-004 -1 1 -0.001 16352.8027 -10.1782)">
				<stop  offset="0" style="stop-color:#8F8F8F"/>
				<stop  offset="0.2275" style="stop-color:#E8E8E8"/>
				<stop  offset="1" style="stop-color:#696969"/>
			</linearGradient>
			<path style="fill-rule:evenodd;clip-rule:evenodd;fill:url(#SVGID_28_);" d="M3.5-5.899c0.066,0.6-0.083,0.983-0.45,1.15L2.6-4.7
				C2.367-4.7,2.167-4.733,2-4.8c-0.533-0.167-0.833-0.533-0.9-1.1c-0.034-0.5,0.1-0.85,0.4-1.05c0.434-0.233,0.867-0.233,1.3,0
				C3.2-6.716,3.434-6.366,3.5-5.899z M0.05-1.25c0.1,0.8,0.5,1.216,1.2,1.25c1.367,0.033,2.333-0.633,2.9-2
				c0.5-1.233,0.534-2.05,0.1-2.45c0.434-0.533,0.4-1.333-0.1-2.4c-0.567-1.167-1.533-1.533-2.9-1.1c-0.7,0.233-1.1,0.767-1.2,1.6
				c-0.133,0.867,0.117,1.533,0.75,2L1.25-4L0.8-3.55C0.167-2.85-0.083-2.083,0.05-1.25z M3.5-2.75C3.434-2.25,3.2-1.833,2.8-1.5
				C2.367-1.1,1.934-0.966,1.5-1.1c-0.3-0.133-0.434-0.467-0.4-1C1.167-2.666,1.467-3.116,2-3.45l0.6-0.3L3.05-3.8
				C3.417-3.766,3.566-3.416,3.5-2.75z"/>
		</g>
	</g>
</symbol>
<symbol  id="winderface1a" viewBox="0.015 -8.172 4.573 8.174">
	<g id="Layer_1_2_">
		
			<linearGradient id="SVGID_29_" gradientUnits="userSpaceOnUse" x1="-1921.7793" y1="-13814.5264" x2="-1912.6071" y2="-13814.5264" gradientTransform="matrix(0.2726 -0.9621 0.9621 0.2726 13815.9141 1917.4453)">
			<stop  offset="0" style="stop-color:#E8E8E8"/>
			<stop  offset="1" style="stop-color:#878787"/>
		</linearGradient>
		<path style="fill-rule:evenodd;clip-rule:evenodd;fill:url(#SVGID_29_);" d="M2.05-4.8c-0.566-0.133-0.867-0.483-0.9-1.05
			c-0.033-0.533,0.1-0.9,0.4-1.1c0.4-0.267,0.817-0.267,1.25,0C3.2-6.717,3.433-6.367,3.5-5.9c0.133,0.633,0,1-0.4,1.1L2.65-4.7
			L2.05-4.8z M0.05-1.25C0.183-0.45,0.6-0.033,1.3,0c1.367,0.033,2.333-0.633,2.9-2c0.5-1.233,0.517-2.05,0.05-2.45
			c0.467-0.5,0.45-1.3-0.05-2.4C3.633-8.05,2.667-8.433,1.3-8C0.6-7.733,0.183-7.183,0.05-6.35c-0.133,0.867,0.117,1.533,0.75,2
			L1.3-4L0.8-3.55C0.167-2.85-0.083-2.083,0.05-1.25z M3.5-2.75C3.433-2.25,3.2-1.833,2.8-1.5C2.367-1.1,1.95-0.967,1.55-1.1
			c-0.3-0.133-0.433-0.467-0.4-1c0.033-0.6,0.333-1.05,0.9-1.35l0.6-0.3L3.1-3.8C3.467-3.767,3.6-3.417,3.5-2.75z"/>
	</g>
</symbol>
<symbol  id="winderfacehighlight" viewBox="0.016 -8.173 4.573 8.174">
	<g id="Layer_1_3_">
		
			<linearGradient id="SVGID_30_" gradientUnits="userSpaceOnUse" x1="-1921.7783" y1="-13814.5264" x2="-1912.6061" y2="-13814.5264" gradientTransform="matrix(0.2726 -0.9621 0.9621 0.2726 13815.9141 1917.4453)">
			<stop  offset="0" style="stop-color:#E8E8E8"/>
			<stop  offset="1" style="stop-color:#EDEDED"/>
		</linearGradient>
		<path style="fill-rule:evenodd;clip-rule:evenodd;fill:url(#SVGID_30_);" d="M2.05-4.8c-0.567-0.133-0.867-0.483-0.9-1.05
			c-0.033-0.533,0.1-0.9,0.4-1.1c0.4-0.267,0.817-0.267,1.25,0C3.2-6.717,3.434-6.367,3.5-5.9c0.1,0.6-0.034,0.967-0.4,1.1L2.65-4.7
			L2.05-4.8z M0.05-1.25C0.184-0.45,0.601-0.034,1.3,0c1.367,0.034,2.333-0.633,2.9-2c0.5-1.233,0.517-2.05,0.05-2.45
			c0.466-0.5,0.45-1.3-0.05-2.4C3.634-8.05,2.667-8.434,1.3-8c-0.7,0.267-1.117,0.817-1.25,1.65c-0.133,0.867,0.117,1.534,0.75,2
			L1.3-4L0.8-3.55C0.167-2.851-0.083-2.084,0.05-1.25z M1.55-1.101c-0.3-0.133-0.433-0.466-0.4-1c0.033-0.6,0.333-1.05,0.9-1.35
			l0.6-0.3l0.45-0.05c0.366,0.033,0.5,0.383,0.4,1.05C3.434-2.25,3.2-1.834,2.8-1.5C2.367-1.101,1.95-0.967,1.55-1.101z"/>
	</g>
</symbol>
<use xlink:href="#cubimal_x5F_mc"  width="32.196" height="27.155" id="cubimal" x="-0.385" y="-26.606" transform="matrix(1 0 0 -1 0.3999 0.5498)" style="overflow:visible;"/>
</svg>
