<?xml version="1.0" encoding="iso-8859-1"?>
<!-- Generator: Adobe Illustrator 15.1.0, SVG Export Plug-In . SVG Version: 6.00 Build 0)  -->
<!DOCTYPE svg PUBLIC "-//W3C//DTD SVG 1.1//EN" "http://www.w3.org/Graphics/SVG/1.1/DTD/svg11.dtd">
<svg version="1.1" id="flash0.ai" xmlns="http://www.w3.org/2000/svg" xmlns:xlink="http://www.w3.org/1999/xlink" x="0px" y="0px"
	 width="56px" height="19.5px" viewBox="0 0 56 19.5" style="enable-background:new 0 0 56 19.5;" xml:space="preserve">
<linearGradient id="SVGID_1_" gradientUnits="userSpaceOnUse" x1="7.2002" y1="7.1509" x2="40.5" y2="7.1509">
	<stop  offset="0" style="stop-color:#FFD773"/>
	<stop  offset="1" style="stop-color:#CC9831"/>
</linearGradient>
<path style="fill-rule:evenodd;clip-rule:evenodd;fill:url(#SVGID_1_);" d="M32,5.9l8.5,5.2c-1.233,0.567-2.917,1.117-5.05,1.65
	c-4.3,1.066-8.717,1.583-13.25,1.55c-4.534-0.066-8.4-0.666-11.6-1.8c-1.567-0.533-2.7-1.083-3.4-1.65c0.3,0,1.033-0.35,2.2-1.05
	c1.434-0.867,2.817-1.9,4.15-3.1c1.434-1.267,3.284-2.733,5.55-4.4C21.2,0.767,22.35,0,22.55,0C22.783,0,25.933,1.967,32,5.9z"/>
<path style="fill-rule:evenodd;clip-rule:evenodd;fill:#C98E36;" d="M24.95,1.85c0.933,0.667,1.267,1.117,1,1.35
	c-0.2,0.167-0.517,0.133-0.95-0.1c-0.433-0.267-0.65-0.55-0.65-0.85C24.35,1.683,24.55,1.55,24.95,1.85z"/>
<path style="fill-rule:evenodd;clip-rule:evenodd;fill:#C98E36;" d="M28.35,4.05c0.634,0.6,0.75,0.967,0.351,1.1
	c-0.467,0.167-0.8,0.017-1-0.45c-0.133-0.367-0.117-0.617,0.05-0.75C27.883,3.783,28.083,3.817,28.35,4.05z"/>
<path style="fill-rule:evenodd;clip-rule:evenodd;fill:#C98E36;" d="M26.6,3.85c0.4,0.367,0.566,0.7,0.5,1
	c-0.033,0.2-0.2,0.417-0.5,0.65c-0.233,0.167-0.567,0.167-1,0c-0.467-0.167-0.684-0.467-0.65-0.9c0.033-0.467,0.25-0.783,0.65-0.95
	C26,3.517,26.333,3.583,26.6,3.85z"/>
<path style="fill-rule:evenodd;clip-rule:evenodd;fill:#C98E36;" d="M24.3,3.4c0.367,0.633,0.35,1.067-0.05,1.3
	c-0.4,0.233-0.65,0.15-0.75-0.25c-0.067-0.333,0.017-0.65,0.25-0.95C23.95,3.167,24.133,3.133,24.3,3.4z"/>
<path style="fill-rule:evenodd;clip-rule:evenodd;fill:#C98E36;" d="M29.35,6.35c0.733,0.5,0.9,1.033,0.5,1.6
	c-0.399,0.6-0.783,0.6-1.149,0c-0.334-0.5-0.4-0.967-0.2-1.4C28.7,6.15,28.983,6.083,29.35,6.35z"/>
<path style="fill-rule:evenodd;clip-rule:evenodd;fill:#C98E36;" d="M31.3,6.25c0.434,0.3,0.55,0.6,0.351,0.9
	c-0.233,0.3-0.467,0.3-0.7,0c-0.2-0.267-0.267-0.533-0.2-0.8C30.85,6.083,31.033,6.05,31.3,6.25z"/>
<path style="fill-rule:evenodd;clip-rule:evenodd;fill:#C98E36;" d="M36.25,9c0.566,0.433,0.7,0.917,0.4,1.45
	c-0.301,0.5-0.684,0.566-1.15,0.2c-0.467-0.367-0.6-0.833-0.4-1.4C35.3,8.683,35.684,8.6,36.25,9z"/>
<path style="fill-rule:evenodd;clip-rule:evenodd;fill:#C98E36;" d="M33.05,7.15c0.334,0.267,0.367,0.467,0.101,0.6
	c-0.267,0.1-0.45,0.033-0.551-0.2c-0.066-0.2-0.05-0.35,0.051-0.45C32.783,7,32.917,7.017,33.05,7.15z"/>
<path style="fill-rule:evenodd;clip-rule:evenodd;fill:#C98E36;" d="M31.55,8c0.8,0.5,1.033,1,0.7,1.5
	c-0.333,0.533-0.684,0.616-1.05,0.25C30.934,9.483,30.866,9.1,31,8.6C31.167,8.1,31.35,7.9,31.55,8z"/>
<path style="fill-rule:evenodd;clip-rule:evenodd;fill:#C98E36;" d="M28.95,9.65c0.7,0.233,0.983,0.683,0.85,1.35
	c-0.1,0.7-0.434,0.95-1,0.75c-0.5-0.167-0.7-0.583-0.6-1.25C28.267,9.8,28.517,9.517,28.95,9.65z"/>
<path style="fill-rule:evenodd;clip-rule:evenodd;fill:#C98E36;" d="M32.8,11.1c0.601,0.534,0.717,0.967,0.351,1.301
	c-0.367,0.3-0.733,0.3-1.101,0c-0.333-0.233-0.366-0.567-0.1-1C32.217,10.967,32.5,10.866,32.8,11.1z"/>
<path style="fill-rule:evenodd;clip-rule:evenodd;fill:#C98E36;" d="M34.65,10.75c0.366,0.066,0.566,0.25,0.6,0.55
	c0,0.3-0.2,0.467-0.6,0.5c-0.367,0.033-0.517-0.133-0.45-0.5C34.267,10.934,34.417,10.75,34.65,10.75z"/>
<path style="fill-rule:evenodd;clip-rule:evenodd;fill:#C98E36;" d="M38.05,10.5c0.3,0.167,0.367,0.35,0.2,0.55
	s-0.417,0.267-0.75,0.2c-0.333-0.033-0.4-0.2-0.2-0.5C37.5,10.417,37.75,10.333,38.05,10.5z"/>
<path style="fill-rule:evenodd;clip-rule:evenodd;fill:#C98E36;" d="M26.15,7.9c0.3,0.233,0.35,0.467,0.15,0.7
	c-0.2,0.267-0.433,0.3-0.7,0.1c-0.2-0.167-0.2-0.367,0-0.6C25.767,7.833,25.95,7.767,26.15,7.9z"/>
<path style="fill-rule:evenodd;clip-rule:evenodd;fill:#C98E36;" d="M25.55,10.65c0.534,0.466,0.65,0.916,0.35,1.35
	c-0.267,0.434-0.6,0.55-1,0.35c-0.367-0.166-0.4-0.55-0.1-1.149C25.067,10.6,25.317,10.417,25.55,10.65z"/>
<path style="fill-rule:evenodd;clip-rule:evenodd;fill:#C98E36;" d="M27.65,12.5c0.4,0.267,0.534,0.5,0.4,0.7
	c-0.133,0.2-0.367,0.3-0.7,0.3c-0.333,0-0.434-0.217-0.3-0.65C27.183,12.45,27.383,12.333,27.65,12.5z"/>
<path style="fill-rule:evenodd;clip-rule:evenodd;fill:#C98E36;" d="M22.85,12.3c0.367,0.267,0.433,0.55,0.2,0.851
	c-0.2,0.267-0.483,0.35-0.85,0.25c-0.3-0.101-0.333-0.351-0.1-0.75C22.333,12.217,22.583,12.1,22.85,12.3z"/>
<path style="fill-rule:evenodd;clip-rule:evenodd;fill:#C98E36;" d="M26.75,6.1c0.567-0.133,0.817,0.083,0.75,0.65
	c-0.067,0.6-0.317,0.867-0.75,0.8c-0.367-0.066-0.5-0.316-0.4-0.75C26.417,6.367,26.55,6.133,26.75,6.1z"/>
<path style="fill-rule:evenodd;clip-rule:evenodd;fill:#C98E36;" d="M23.6,7.4c0.533,0.367,0.633,0.75,0.3,1.15
	c-0.333,0.367-0.633,0.467-0.9,0.3c-0.2-0.133-0.2-0.45,0-0.95C23.2,7.433,23.4,7.267,23.6,7.4z"/>
<path style="fill-rule:evenodd;clip-rule:evenodd;fill:#FFE68A;" d="M21,1.55c0.4,0,0.317,0.333-0.25,1
	c-0.567,0.667-0.917,0.833-1.05,0.5c-0.133-0.3-0.034-0.633,0.3-1C20.333,1.717,20.667,1.55,21,1.55z"/>
<path style="fill-rule:evenodd;clip-rule:evenodd;fill:#FFE68A;" d="M11,9.55c0.267,0.367,0.167,0.667-0.3,0.9
	c-0.5,0.233-0.8,0.2-0.9-0.101c-0.066-0.267,0.083-0.516,0.45-0.75C10.617,9.333,10.867,9.317,11,9.55z"/>
<path style="fill-rule:evenodd;clip-rule:evenodd;fill:#FFE68A;" d="M18.4,3.5c0.733-0.233,0.817,0.1,0.25,1
	c-0.6,0.933-1.083,1.267-1.45,1c-0.333-0.233-0.3-0.617,0.1-1.15C17.667,3.883,18.033,3.6,18.4,3.5z"/>
<path style="fill-rule:evenodd;clip-rule:evenodd;fill:#FFE68A;" d="M14.5,6.8c0.733-0.066,0.933,0.25,0.6,0.95
	c-0.333,0.667-0.783,0.917-1.35,0.75c-0.533-0.167-0.65-0.483-0.35-0.95C13.7,7.083,14.067,6.833,14.5,6.8z"/>
<path style="fill-rule:evenodd;clip-rule:evenodd;fill:#FFE68A;" d="M12.7,9.05c0.667,0.034,0.883,0.4,0.65,1.101
	c-0.267,0.733-0.617,0.916-1.05,0.55c-0.4-0.3-0.5-0.667-0.3-1.1C12.167,9.233,12.4,9.05,12.7,9.05z"/>
<path style="fill-rule:evenodd;clip-rule:evenodd;fill:#FFE68A;" d="M20,3.9c0.5-0.167,0.633,0.133,0.4,0.9
	c-0.2,0.767-0.517,1.034-0.95,0.8c-0.4-0.167-0.5-0.467-0.3-0.9C19.35,4.3,19.633,4.033,20,3.9z"/>
<path style="fill-rule:evenodd;clip-rule:evenodd;fill:#FFE68A;" d="M21.45,2.75c0.267-0.067,0.316,0.083,0.15,0.45
	c-0.2,0.367-0.417,0.533-0.65,0.5c-0.2-0.034-0.217-0.184-0.05-0.45C21.067,2.983,21.25,2.817,21.45,2.75z"/>
<path style="fill-rule:evenodd;clip-rule:evenodd;fill:#FFE68A;" d="M22.2,0.6c0.4-0.067,0.517,0.066,0.35,0.4
	c-0.167,0.367-0.4,0.55-0.7,0.55c-0.233,0-0.267-0.15-0.1-0.45C21.883,0.8,22.033,0.633,22.2,0.6z"/>
<path style="fill-rule:evenodd;clip-rule:evenodd;fill:#FFE68A;" d="M18,6.25c0.733-0.133,0.933,0.2,0.6,1
	c-0.3,0.833-0.667,1.2-1.1,1.1c-0.333-0.1-0.4-0.467-0.2-1.1C17.533,6.617,17.767,6.283,18,6.25z"/>
<path style="fill-rule:evenodd;clip-rule:evenodd;fill:#FFE68A;" d="M18.5,9.4c0.5-0.367,0.667-0.15,0.5,0.65
	c-0.167,0.767-0.467,1.101-0.9,1c-0.4-0.1-0.517-0.35-0.35-0.75C17.883,9.933,18.133,9.633,18.5,9.4z"/>
<path style="fill-rule:evenodd;clip-rule:evenodd;fill:#FFE68A;" d="M15.5,8.7c0.367-0.133,0.367,0.167,0,0.9
	c-0.333,0.7-0.65,0.883-0.95,0.55C14.117,9.683,14.433,9.2,15.5,8.7z"/>
<path style="fill-rule:evenodd;clip-rule:evenodd;fill:#FFE68A;" d="M15.6,5.5c0.4-0.367,0.583-0.35,0.55,0.05
	C16.117,6.017,16,6.283,15.8,6.35c-0.167,0.066-0.267-0.017-0.3-0.25C15.433,5.833,15.467,5.633,15.6,5.5z"/>
<path style="fill-rule:evenodd;clip-rule:evenodd;fill:#FFE68A;" d="M21.75,4.5c0.567-0.033,0.717,0.133,0.45,0.5
	c-0.233,0.367-0.483,0.533-0.75,0.5C21.25,5.467,21.2,5.3,21.3,5C21.433,4.7,21.583,4.533,21.75,4.5z"/>
<path style="fill-rule:evenodd;clip-rule:evenodd;fill:#FFE68A;" d="M11.75,11.05c0.533,0.167,0.667,0.467,0.4,0.9
	s-0.667,0.566-1.2,0.399c-0.467-0.1-0.534-0.366-0.2-0.8C11.117,11.116,11.45,10.95,11.75,11.05z"/>
<path style="fill-rule:evenodd;clip-rule:evenodd;fill:#FFE68A;" d="M14.1,11.45c0.833,0.1,1.066,0.366,0.7,0.8
	c-0.4,0.434-0.767,0.583-1.1,0.45c-0.267-0.101-0.317-0.334-0.15-0.7C13.683,11.6,13.867,11.417,14.1,11.45z"/>
<linearGradient id="SVGID_2_" gradientUnits="userSpaceOnUse" x1="4.3999" y1="11.1201" x2="8.1999" y2="11.1201">
	<stop  offset="0" style="stop-color:#FFDD8A"/>
	<stop  offset="1" style="stop-color:#CC982F"/>
</linearGradient>
<path style="fill-rule:evenodd;clip-rule:evenodd;fill:url(#SVGID_2_);" d="M8.05,10.85c0.233,0.301,0.2,0.584-0.1,0.851
	c-0.367,0.3-1.034,0.434-2,0.399c-0.967-0.033-1.483-0.183-1.55-0.449c-0.066-0.167,0.1-0.5,0.5-1c0.3-0.4,0.817-0.567,1.55-0.5
	C7.183,10.217,7.717,10.45,8.05,10.85z"/>
<linearGradient id="SVGID_3_" gradientUnits="userSpaceOnUse" x1="11.6499" y1="13.8604" x2="17.1499" y2="13.8604">
	<stop  offset="0" style="stop-color:#FFDD8A"/>
	<stop  offset="1" style="stop-color:#CC982F"/>
</linearGradient>
<path style="fill-rule:evenodd;clip-rule:evenodd;fill:url(#SVGID_3_);" d="M16.95,14.4c-0.367,0.366-1.1,0.633-2.2,0.8
	c-1.167,0.166-2.05,0.083-2.65-0.25c-0.6-0.3-0.617-0.767-0.05-1.4c0.534-0.6,1.15-0.95,1.85-1.05c0.9-0.167,1.75,0,2.55,0.5
	C17.25,13.467,17.417,13.934,16.95,14.4z"/>
<linearGradient id="SVGID_4_" gradientUnits="userSpaceOnUse" x1="17.7373" y1="15.2549" x2="24.6592" y2="15.2549">
	<stop  offset="0" style="stop-color:#FFDD8A"/>
	<stop  offset="1" style="stop-color:#CC982F"/>
</linearGradient>
<path style="fill-rule:evenodd;clip-rule:evenodd;fill:url(#SVGID_4_);" d="M24.05,14.2c0.534,0,0.733,0.416,0.6,1.25
	c-0.133,0.8-0.45,1.267-0.95,1.399c-0.333,0.067-0.917-0.017-1.75-0.25C21.183,16.4,20.7,16.333,20.5,16.4
	c-0.333,0.166-0.833,0.199-1.5,0.1c-0.7-0.134-1.1-0.35-1.2-0.65c-0.1-0.267,0.034-0.55,0.4-0.85c0.3-0.233,0.883-0.583,1.75-1.05
	c0.6-0.334,1.316-0.4,2.15-0.2C23.3,14.05,23.95,14.2,24.05,14.2z"/>
<linearGradient id="SVGID_5_" gradientUnits="userSpaceOnUse" x1="27.1499" y1="14.1504" x2="33.2499" y2="14.1504">
	<stop  offset="0" style="stop-color:#FFDD8A"/>
	<stop  offset="1" style="stop-color:#CC982F"/>
</linearGradient>
<path style="fill-rule:evenodd;clip-rule:evenodd;fill:url(#SVGID_5_);" d="M30,12.7c1.134,0.033,2.033,0.399,2.7,1.1
	c0.633,0.667,0.733,1.2,0.3,1.601c-0.3,0.233-0.733,0.267-1.3,0.1c-0.8-0.233-1.334-0.35-1.601-0.35
	c-1.366,0.133-2.316-0.017-2.85-0.45c-0.333-0.3-0.167-0.7,0.5-1.2C28.45,12.934,29.2,12.667,30,12.7z"/>
<linearGradient id="SVGID_6_" gradientUnits="userSpaceOnUse" x1="33.6377" y1="14.9912" x2="38.2627" y2="14.9912">
	<stop  offset="0" style="stop-color:#FFDD8A"/>
	<stop  offset="1" style="stop-color:#CC982F"/>
</linearGradient>
<path style="fill-rule:evenodd;clip-rule:evenodd;fill:url(#SVGID_6_);" d="M36,13.3c1.267-0.033,2.017,0.384,2.25,1.25
	c0.2,0.8-0.017,1.384-0.65,1.75c-0.533,0.334-1.166,0.45-1.899,0.351c-0.834-0.067-1.45-0.4-1.851-1
	c-0.399-0.601-0.3-1.134,0.301-1.601C34.684,13.616,35.3,13.366,36,13.3z"/>
<linearGradient id="SVGID_7_" gradientUnits="userSpaceOnUse" x1="37.8496" y1="11.8701" x2="42.7496" y2="11.8701">
	<stop  offset="0" style="stop-color:#FFDD8A"/>
	<stop  offset="1" style="stop-color:#CC982F"/>
</linearGradient>
<path style="fill-rule:evenodd;clip-rule:evenodd;fill:url(#SVGID_7_);" d="M41.15,10.7c1.699,0.133,2.066,0.533,1.1,1.2
	c-0.833,0.633-1.767,1.017-2.8,1.149c-0.634,0.101-1.101-0.116-1.4-0.649c-0.2-0.367-0.267-0.733-0.2-1.101
	c0.067-0.2,0.4-0.366,1-0.5C39.517,10.667,40.283,10.634,41.15,10.7z"/>
<linearGradient id="SVGID_8_" gradientUnits="userSpaceOnUse" x1="5.2124" y1="13.4551" x2="7.5874" y2="13.4551">
	<stop  offset="0" style="stop-color:#FFDD8A"/>
	<stop  offset="1" style="stop-color:#CC982F"/>
</linearGradient>
<path style="fill-rule:evenodd;clip-rule:evenodd;fill:url(#SVGID_8_);" d="M7.2,12.7c0.667,0.066,0.6,0.399-0.2,1
	c-0.8,0.566-1.35,0.666-1.65,0.3c-0.3-0.333-0.167-0.65,0.4-0.95C6.283,12.783,6.767,12.667,7.2,12.7z"/>
<linearGradient id="SVGID_9_" gradientUnits="userSpaceOnUse" x1="0.0625" y1="11.9014" x2="2.9375" y2="11.9014">
	<stop  offset="0" style="stop-color:#FFDD8A"/>
	<stop  offset="1" style="stop-color:#CC982F"/>
</linearGradient>
<path style="fill-rule:evenodd;clip-rule:evenodd;fill:url(#SVGID_9_);" d="M2.2,11.05c0.966,0.334,1.083,0.767,0.35,1.3
	c-0.767,0.534-1.466,0.634-2.1,0.301c-0.567-0.334-0.567-0.733,0-1.2C0.983,10.983,1.567,10.85,2.2,11.05z"/>
<linearGradient id="SVGID_10_" gradientUnits="userSpaceOnUse" x1="7.2876" y1="14.3945" x2="9.1126" y2="14.3945">
	<stop  offset="0" style="stop-color:#FFDD8A"/>
	<stop  offset="1" style="stop-color:#CC982F"/>
</linearGradient>
<path style="fill-rule:evenodd;clip-rule:evenodd;fill:url(#SVGID_10_);" d="M8.7,13.75c0.533,0.134,0.6,0.434,0.2,0.9
	c-0.4,0.466-0.833,0.55-1.3,0.25c-0.434-0.267-0.45-0.551-0.05-0.851C7.917,13.75,8.3,13.65,8.7,13.75z"/>
<linearGradient id="SVGID_11_" gradientUnits="userSpaceOnUse" x1="11.5249" y1="15.6396" x2="15.8749" y2="15.6396">
	<stop  offset="0" style="stop-color:#FFDD8A"/>
	<stop  offset="1" style="stop-color:#CC982F"/>
</linearGradient>
<path style="fill-rule:evenodd;clip-rule:evenodd;fill:url(#SVGID_11_);" d="M15.9,15.6c0.067,0.534-0.283,0.9-1.05,1.101
	c-0.767,0.233-1.617,0.184-2.55-0.15c-0.8-0.3-0.966-0.6-0.5-0.899c0.3-0.167,0.833-0.417,1.6-0.75
	c0.533-0.367,1.033-0.517,1.5-0.45C15.467,14.483,15.8,14.866,15.9,15.6z"/>
<linearGradient id="SVGID_12_" gradientUnits="userSpaceOnUse" x1="18.2251" y1="17.3145" x2="22.3751" y2="17.3145">
	<stop  offset="0" style="stop-color:#FFDD8A"/>
	<stop  offset="1" style="stop-color:#CC982F"/>
</linearGradient>
<path style="fill-rule:evenodd;clip-rule:evenodd;fill:url(#SVGID_12_);" d="M22.2,17.1c0.433,0.134,0.316,0.467-0.35,1
	c-0.667,0.567-1.4,0.767-2.2,0.601c-0.833-0.167-1.3-0.566-1.4-1.2c-0.1-0.6,0.167-1.083,0.8-1.45
	c0.434-0.267,0.917-0.233,1.45,0.101C21.4,16.717,21.967,17.033,22.2,17.1z"/>
<linearGradient id="SVGID_13_" gradientUnits="userSpaceOnUse" x1="25.7856" y1="15.8311" x2="29.9106" y2="15.8311">
	<stop  offset="0" style="stop-color:#FFDD8A"/>
	<stop  offset="1" style="stop-color:#CC982F"/>
</linearGradient>
<path style="fill-rule:evenodd;clip-rule:evenodd;fill:url(#SVGID_13_);" d="M29.9,16.05c-0.4,0.634-1.101,0.983-2.101,1.05
	c-0.966,0.067-1.6-0.133-1.9-0.6c-0.267-0.4-0.066-0.833,0.6-1.3c0.6-0.434,1.167-0.65,1.7-0.65c0.434,0,0.866,0.2,1.3,0.601
	C29.934,15.517,30.066,15.816,29.9,16.05z"/>
<path style="fill-rule:evenodd;clip-rule:evenodd;fill:#FFF38A;" d="M1.35,11.35C1.683,11.45,1.667,11.6,1.3,11.8
	c-0.4,0.233-0.633,0.267-0.7,0.101c-0.067-0.167-0.017-0.317,0.15-0.45C0.95,11.316,1.15,11.283,1.35,11.35z"/>
<path style="fill-rule:evenodd;clip-rule:evenodd;fill:#FFF38A;" d="M5.85,10.4c0.333-0.034,0.583,0.033,0.75,0.199
	C6.8,10.767,6.783,10.9,6.55,11c-1.133,0.5-1.716,0.634-1.75,0.4c-0.033-0.167,0.083-0.384,0.35-0.65
	C5.417,10.517,5.65,10.4,5.85,10.4z"/>
<path style="fill-rule:evenodd;clip-rule:evenodd;fill:#FFF38A;" d="M6.2,13.15c0.233,0,0.2,0.133-0.1,0.399
	c-0.267,0.233-0.45,0.3-0.55,0.2c-0.1-0.066-0.066-0.184,0.1-0.35C5.817,13.233,6,13.15,6.2,13.15z"/>
<path style="fill-rule:evenodd;clip-rule:evenodd;fill:#FFF38A;" d="M8.15,13.95c0.2,0,0.184,0.116-0.05,0.35
	c-0.233,0.267-0.4,0.334-0.5,0.2c-0.067-0.1-0.05-0.217,0.05-0.35C7.75,14.017,7.917,13.95,8.15,13.95z"/>
<path style="fill-rule:evenodd;clip-rule:evenodd;fill:#FFF38A;" d="M14.1,12.8c0.333-0.033,0.467,0.05,0.4,0.25
	c-0.067,0.167-0.283,0.351-0.65,0.55c-0.5,0.267-0.833,0.417-1,0.45c-0.267,0.101-0.4,0.05-0.4-0.149c0-0.233,0.2-0.467,0.6-0.7
	C13.417,12.967,13.767,12.833,14.1,12.8z"/>
<path style="fill-rule:evenodd;clip-rule:evenodd;fill:#FFF38A;" d="M13.95,14.85c0.3-0.033,0.483,0.017,0.55,0.15
	s-0.033,0.233-0.3,0.3c-0.067,0.033-0.333,0.184-0.8,0.45c-0.3,0.2-0.483,0.217-0.55,0.05c-0.033-0.2,0.066-0.399,0.3-0.6
	C13.383,15.033,13.65,14.917,13.95,14.85z"/>
<path style="fill-rule:evenodd;clip-rule:evenodd;fill:#FFF38A;" d="M12.15,15.7c-0.066,0.166-0.167,0.25-0.3,0.25
	c-0.1,0-0.1-0.033,0-0.101C11.917,15.75,12.017,15.7,12.15,15.7z"/>
<path style="fill-rule:evenodd;clip-rule:evenodd;fill:#FFF38A;" d="M20.9,14c0.267,0.033,0.383,0.184,0.35,0.45
	c-0.033,0.2-0.15,0.383-0.35,0.55c-0.2,0.167-0.633,0.3-1.3,0.4c-0.7,0.1-1,0.017-0.9-0.25c0.1-0.267,0.433-0.534,1-0.801
	C20.2,14.116,20.6,14,20.9,14z"/>
<path style="fill-rule:evenodd;clip-rule:evenodd;fill:#FFF38A;" d="M23.4,14.65c0.2-0.067,0.333-0.034,0.4,0.1
	c0.067,0.134,0.034,0.283-0.1,0.45c-0.467,0.566-0.75,0.733-0.85,0.5c-0.1-0.167-0.083-0.384,0.05-0.65
	C23.067,14.816,23.233,14.684,23.4,14.65z"/>
<path style="fill-rule:evenodd;clip-rule:evenodd;fill:#FFF38A;" d="M19.45,16.3c0.566,0.033,0.617,0.267,0.15,0.7
	c-0.5,0.467-0.75,0.517-0.75,0.15C18.783,16.517,18.983,16.233,19.45,16.3z"/>
<path style="fill-rule:evenodd;clip-rule:evenodd;fill:#FFF38A;" d="M27.35,14.95c0.566-0.167,0.716,0.083,0.45,0.75
	c-0.1,0.233-0.3,0.416-0.6,0.55c-0.3,0.134-0.55,0.066-0.75-0.2C26.15,15.65,26.45,15.283,27.35,14.95z"/>
<path style="fill-rule:evenodd;clip-rule:evenodd;fill:#FFF38A;" d="M29.35,13.1c0.233-0.033,0.334,0.084,0.301,0.351
	c-0.034,0.267-0.184,0.483-0.45,0.649c-0.233,0.167-0.517,0.217-0.851,0.15c-0.333-0.033-0.483-0.134-0.45-0.3
	c0-0.134,0.183-0.3,0.55-0.5C28.783,13.283,29.083,13.167,29.35,13.1z"/>
<path style="fill-rule:evenodd;clip-rule:evenodd;fill:#FFF38A;" d="M32.15,13.95c0.366,0.1,0.433,0.3,0.199,0.6
	c-0.233,0.267-0.416,0.367-0.55,0.3c-0.1-0.066-0.116-0.25-0.05-0.55C31.85,14.033,31.983,13.917,32.15,13.95z"/>
<path style="fill-rule:evenodd;clip-rule:evenodd;fill:#FFF38A;" d="M35.2,13.95c0.399-0.101,0.533,0.166,0.399,0.8
	c-0.6,0.533-0.983,0.65-1.149,0.35c-0.101-0.199-0.066-0.433,0.1-0.699C34.75,14.167,34.967,14.017,35.2,13.95z"/>
<path style="fill-rule:evenodd;clip-rule:evenodd;fill:#FFF38A;" d="M39.4,11.2c0.233-0.033,0.383,0.033,0.449,0.2
	c0.034,0.199-0.05,0.366-0.25,0.5c-0.199,0.133-0.449,0.166-0.75,0.1c-0.267-0.066-0.416-0.184-0.449-0.35
	c0-0.134,0.1-0.217,0.3-0.25C38.833,11.366,39.066,11.3,39.4,11.2z"/>
</svg>
