<?xml version="1.0" encoding="iso-8859-1"?>
<!-- Generator: Adobe Illustrator 15.1.0, SVG Export Plug-In . SVG Version: 6.00 Build 0)  -->
<!DOCTYPE svg PUBLIC "-//W3C//DTD SVG 1.1//EN" "http://www.w3.org/Graphics/SVG/1.1/DTD/svg11.dtd">
<svg version="1.1" id="flash0.ai" xmlns="http://www.w3.org/2000/svg" xmlns:xlink="http://www.w3.org/1999/xlink" x="0px" y="0px"
	 width="55.55px" height="20.1px" viewBox="0 0 55.55 20.1" style="enable-background:new 0 0 55.55 20.1;" xml:space="preserve">
<linearGradient id="SVGID_1_" gradientUnits="userSpaceOnUse" x1="11.5854" y1="22.0273" x2="20.9951" y2="22.0273" gradientTransform="matrix(0.8263 -0.5633 0.5633 0.8263 -8.267164e-005 9.757280e-005)">
	<stop  offset="0" style="stop-color:#F9AF00"/>
	<stop  offset="1" style="stop-color:#E08006"/>
</linearGradient>
<path style="fill-rule:evenodd;clip-rule:evenodd;fill:url(#SVGID_1_);" d="M35.05,14.25c-3.2,1.4-7.166,2.1-11.9,2.1
	c-5.467,0-9.9-0.783-13.3-2.35c-1.667-0.767-2.8-1.55-3.4-2.35c1-0.167,2.25-0.884,3.75-2.15C13,7.167,14.6,5.867,15,5.6
	c2.6-1.867,4.85-3.733,6.75-5.6c1.167,1.233,4.117,3.417,8.85,6.55c3.067,2,5.667,3.867,7.801,5.601
	C37.767,12.85,36.65,13.55,35.05,14.25z"/>
<linearGradient id="SVGID_2_" gradientUnits="userSpaceOnUse" x1="-2.1567" y1="13.7217" x2="-1.5464" y2="13.7217" gradientTransform="matrix(0.8192 -0.5735 0.5735 0.8192 3.869534e-004 -2.346039e-004)">
	<stop  offset="0" style="stop-color:#F9AF00"/>
	<stop  offset="1" style="stop-color:#E08006"/>
</linearGradient>
<path style="fill-rule:evenodd;clip-rule:evenodd;fill:url(#SVGID_2_);" d="M6.65,11.65C7.217,12.517,7.167,13,6.5,13.1
	c-0.733,0.134-1.15-0.017-1.25-0.449c-0.067-0.301,0.1-0.617,0.5-0.95C6.15,11.4,6.45,11.384,6.65,11.65z"/>
<linearGradient id="SVGID_3_" gradientUnits="userSpaceOnUse" x1="-4.3037" y1="13.3066" x2="-3.7282" y2="13.3066" gradientTransform="matrix(0.8253 -0.5647 0.5647 0.8253 2.974272e-004 1.149178e-004)">
	<stop  offset="0" style="stop-color:#F9AF00"/>
	<stop  offset="1" style="stop-color:#E08006"/>
</linearGradient>
<path style="fill-rule:evenodd;clip-rule:evenodd;fill:url(#SVGID_3_);" d="M4.2,12.75c0.867,0.4,0.983,0.75,0.35,1.05
	c-0.633,0.334-1.083,0.334-1.35,0c-0.167-0.233-0.1-0.5,0.2-0.8C3.7,12.733,3.967,12.65,4.2,12.75z"/>
<linearGradient id="SVGID_4_" gradientUnits="userSpaceOnUse" x1="-7.374" y1="11.958" x2="-7.1036" y2="11.958" gradientTransform="matrix(0.8321 -0.5547 0.5547 0.8321 3.235340e-004 1.349449e-004)">
	<stop  offset="0" style="stop-color:#F9AF00"/>
	<stop  offset="1" style="stop-color:#E08006"/>
</linearGradient>
<path style="fill-rule:evenodd;clip-rule:evenodd;fill:url(#SVGID_4_);" d="M0.4,13.8c0.167,0.101,0.383,0.217,0.65,0.351
	c0.1,0.1-0.033,0.149-0.4,0.149C0.217,14.3,0,14.184,0,13.95C0.033,13.684,0.167,13.634,0.4,13.8z"/>
<linearGradient id="SVGID_5_" gradientUnits="userSpaceOnUse" x1="-2.8657" y1="15.9648" x2="-2.4356" y2="15.9648" gradientTransform="matrix(0.8137 -0.5812 0.5812 0.8137 3.224015e-004 1.754761e-004)">
	<stop  offset="0" style="stop-color:#F9AF00"/>
	<stop  offset="1" style="stop-color:#E08006"/>
</linearGradient>
<path style="fill-rule:evenodd;clip-rule:evenodd;fill:url(#SVGID_5_);" d="M7.1,14.2c0.566,0.267,0.717,0.5,0.45,0.7
	c-0.267,0.199-0.6,0.233-1,0.1c-0.333-0.1-0.383-0.283-0.15-0.55C6.6,14.15,6.833,14.066,7.1,14.2z"/>
<linearGradient id="SVGID_6_" gradientUnits="userSpaceOnUse" x1="-0.6597" y1="15.8037" x2="-0.4446" y2="15.8037" gradientTransform="matrix(0.8137 -0.5812 0.5812 0.8137 3.224015e-004 1.754761e-004)">
	<stop  offset="0" style="stop-color:#F9AF00"/>
	<stop  offset="1" style="stop-color:#E08006"/>
</linearGradient>
<path style="fill-rule:evenodd;clip-rule:evenodd;fill:url(#SVGID_6_);" d="M8.7,13.05c0.3,0.033,0.383,0.134,0.25,0.3
	c-0.167,0.167-0.333,0.2-0.5,0.101C8.283,13.384,8.233,13.3,8.3,13.2C8.367,13.066,8.5,13.017,8.7,13.05z"/>
<linearGradient id="SVGID_7_" gradientUnits="userSpaceOnUse" x1="0.8701" y1="17.1699" x2="1.0159" y2="17.1699" gradientTransform="matrix(0.8575 -0.5145 0.5145 0.8575 -2.385378e-004 -1.728535e-005)">
	<stop  offset="0" style="stop-color:#F9AF00"/>
	<stop  offset="1" style="stop-color:#E08006"/>
</linearGradient>
<path style="fill-rule:evenodd;clip-rule:evenodd;fill:url(#SVGID_7_);" d="M9.65,14.15c0.333,0.133,0.25,0.216-0.25,0.25
	c-0.1-0.034-0.117-0.084-0.05-0.15C9.417,14.15,9.517,14.116,9.65,14.15z"/>
<linearGradient id="SVGID_8_" gradientUnits="userSpaceOnUse" x1="2.3989" y1="21.0957" x2="3.335" y2="21.0957" gradientTransform="matrix(0.8279 -0.5608 0.5608 0.8279 -1.851916e-004 1.488328e-004)">
	<stop  offset="0" style="stop-color:#F9AF00"/>
	<stop  offset="1" style="stop-color:#E08006"/>
</linearGradient>
<path style="fill-rule:evenodd;clip-rule:evenodd;fill:url(#SVGID_8_);" d="M12.95,15.25c0.1,0.033,0.267,0.05,0.5,0.05
	c0.3-0.033,0.667-0.017,1.1,0.05c0.467,0.067,0.684,0.334,0.65,0.801c0,0.233-0.017,0.5-0.05,0.8c0.1,0.133,0,0.233-0.3,0.3
	c-0.3,0.033-0.583,0.017-0.85-0.05c-0.2-0.033-0.333-0.15-0.4-0.351c-0.067-0.199-0.133-0.316-0.2-0.35
	c-0.333-0.1-0.75-0.3-1.25-0.6c-0.333-0.2-0.333-0.384,0-0.551C12.45,15.184,12.717,15.15,12.95,15.25z"/>
<linearGradient id="SVGID_9_" gradientUnits="userSpaceOnUse" x1="0.7036" y1="20.5801" x2="1.0989" y2="20.5801" gradientTransform="matrix(0.8222 -0.5692 0.5692 0.8222 -5.084276e-005 -1.536012e-004)">
	<stop  offset="0" style="stop-color:#F9AF00"/>
	<stop  offset="1" style="stop-color:#E08006"/>
</linearGradient>
<path style="fill-rule:evenodd;clip-rule:evenodd;fill:url(#SVGID_9_);" d="M12.55,16.3c0.333,0.101,0.467,0.217,0.4,0.351
	c-0.067,0.1-0.217,0.166-0.45,0.199c-0.4,0.034-0.7-0.05-0.9-0.25c-0.133-0.133-0.05-0.233,0.25-0.3
	C12.117,16.233,12.35,16.233,12.55,16.3z"/>
<linearGradient id="SVGID_10_" gradientUnits="userSpaceOnUse" x1="-0.0313" y1="13.2207" x2="0.4194" y2="13.2207" gradientTransform="matrix(0.8321 -0.5547 0.5547 0.8321 -1.631379e-004 1.349449e-004)">
	<stop  offset="0" style="stop-color:#F9AF00"/>
	<stop  offset="1" style="stop-color:#E08006"/>
</linearGradient>
<path style="fill-rule:evenodd;clip-rule:evenodd;fill:url(#SVGID_10_);" d="M8,11.1c-0.3,0.2-0.583,0.284-0.85,0.25
	c-0.367-0.066-0.533-0.116-0.5-0.149c0.067-0.167,0.15-0.3,0.25-0.4c0.133-0.2,0.333-0.267,0.6-0.2C7.933,10.733,8.1,10.9,8,11.1z"
	/>
<linearGradient id="SVGID_11_" gradientUnits="userSpaceOnUse" x1="-3.1475" y1="13.3516" x2="-2.9324" y2="13.3516" gradientTransform="matrix(0.8137 -0.5812 0.5812 0.8137 3.224015e-004 1.754761e-004)">
	<stop  offset="0" style="stop-color:#F9AF00"/>
	<stop  offset="1" style="stop-color:#E08006"/>
</linearGradient>
<path style="fill-rule:evenodd;clip-rule:evenodd;fill:url(#SVGID_11_);" d="M5.5,12.9c-0.067,0.133-0.183,0.183-0.35,0.149
	c-0.267-0.033-0.367-0.2-0.3-0.5c0.066-0.2,0.233-0.233,0.5-0.1C5.45,12.45,5.5,12.6,5.5,12.9z"/>
<linearGradient id="SVGID_12_" gradientUnits="userSpaceOnUse" x1="-5.0757" y1="13.5723" x2="-4.7151" y2="13.5723" gradientTransform="matrix(0.8321 -0.5547 0.5547 0.8321 3.212690e-004 1.352429e-004)">
	<stop  offset="0" style="stop-color:#F9AF00"/>
	<stop  offset="1" style="stop-color:#E08006"/>
</linearGradient>
<path style="fill-rule:evenodd;clip-rule:evenodd;fill:url(#SVGID_12_);" d="M3.9,14.1c-0.167,0.233-0.383,0.351-0.65,0.351
	c-0.2,0-0.35-0.033-0.45-0.101L2.7,14.2c0.033-0.066,0.083-0.134,0.15-0.2c0.133-0.167,0.25-0.233,0.35-0.2
	C3.567,13.8,3.8,13.9,3.9,14.1z"/>
<linearGradient id="SVGID_13_" gradientUnits="userSpaceOnUse" x1="-6.751" y1="12.4316" x2="-6.5359" y2="12.4316" gradientTransform="matrix(0.8137 -0.5812 0.5812 0.8137 3.224015e-004 1.754761e-004)">
	<stop  offset="0" style="stop-color:#F9AF00"/>
	<stop  offset="1" style="stop-color:#E08006"/>
</linearGradient>
<path style="fill-rule:evenodd;clip-rule:evenodd;fill:url(#SVGID_13_);" d="M1.9,13.9c0.2,0,0.2,0.083,0,0.25
	C1.7,14.283,1.567,14.3,1.5,14.2C1.367,14,1.5,13.9,1.9,13.9z"/>
<linearGradient id="SVGID_14_" gradientUnits="userSpaceOnUse" x1="-4.0771" y1="15.4863" x2="-3.7166" y2="15.4863" gradientTransform="matrix(0.8321 -0.5547 0.5547 0.8321 3.212690e-004 1.352429e-004)">
	<stop  offset="0" style="stop-color:#F9AF00"/>
	<stop  offset="1" style="stop-color:#E08006"/>
</linearGradient>
<path style="fill-rule:evenodd;clip-rule:evenodd;fill:url(#SVGID_14_);" d="M5.4,14.9C5.633,14.934,5.75,15,5.75,15.1
	c0,0.067-0.083,0.134-0.25,0.2c-0.4,0.2-0.65,0.2-0.75,0c-0.067-0.1-0.033-0.2,0.1-0.3C5.017,14.9,5.2,14.866,5.4,14.9z"/>
<linearGradient id="SVGID_15_" gradientUnits="userSpaceOnUse" x1="-0.8999" y1="19.6035" x2="-0.3937" y2="19.6035" gradientTransform="matrix(0.8396 -0.5433 0.5433 0.8396 3.740788e-004 -1.048446e-004)">
	<stop  offset="0" style="stop-color:#F9AF00"/>
	<stop  offset="1" style="stop-color:#E08006"/>
</linearGradient>
<path style="fill-rule:evenodd;clip-rule:evenodd;fill:url(#SVGID_15_);" d="M10.2,16.55c0.5,0.066,0.633,0.267,0.4,0.601
	c-0.233,0.333-0.6,0.383-1.1,0.149C9,17.1,8.883,16.9,9.15,16.7C9.417,16.533,9.767,16.483,10.2,16.55z"/>
<linearGradient id="SVGID_16_" gradientUnits="userSpaceOnUse" x1="7.0894" y1="25.1855" x2="8.5663" y2="25.1855" gradientTransform="matrix(0.8294 -0.5586 0.5586 0.8294 1.505017e-004 -9.113550e-005)">
	<stop  offset="0" style="stop-color:#F9AF00"/>
	<stop  offset="1" style="stop-color:#E08006"/>
</linearGradient>
<path style="fill-rule:evenodd;clip-rule:evenodd;fill:url(#SVGID_16_);" d="M21.55,17.6c-0.867,0.134-1.583,0.2-2.15,0.2
	c-0.566,0-1.017-0.1-1.35-0.3c-0.333-0.2-0.466-0.4-0.4-0.6c0.167-0.534,0.517-1,1.05-1.4c0.367-0.267,0.833-0.35,1.4-0.25
	c0.467,0.1,0.9,0.3,1.3,0.6c0.333,0.233,0.65,0.534,0.95,0.9c0.267,0.3,0.4,0.483,0.4,0.55S22.35,17.467,21.55,17.6z"/>
<linearGradient id="SVGID_17_" gradientUnits="userSpaceOnUse" x1="8.5786" y1="27.5293" x2="9.7297" y2="27.5293" gradientTransform="matrix(0.8253 -0.5647 0.5647 0.8253 2.996922e-004 1.155734e-004)">
	<stop  offset="0" style="stop-color:#F9AF00"/>
	<stop  offset="1" style="stop-color:#E08006"/>
</linearGradient>
<path style="fill-rule:evenodd;clip-rule:evenodd;fill:url(#SVGID_17_);" d="M23.6,16.9l0.95,0.899
	c-0.1,0.434-0.466,0.717-1.1,0.851c-0.867,0.233-1.633,0.166-2.3-0.2c-0.2-0.134-0.183-0.367,0.05-0.7
	c0.133-0.2,0.316-0.45,0.55-0.75c0.133-0.2,0.367-0.333,0.7-0.4C22.883,16.533,23.267,16.634,23.6,16.9z"/>
<linearGradient id="SVGID_18_" gradientUnits="userSpaceOnUse" x1="4.2944" y1="25.9893" x2="5.085" y2="25.9893" gradientTransform="matrix(0.8222 -0.5692 0.5692 0.8222 -5.084276e-005 -1.536012e-004)">
	<stop  offset="0" style="stop-color:#F9AF00"/>
	<stop  offset="1" style="stop-color:#E08006"/>
</linearGradient>
<path style="fill-rule:evenodd;clip-rule:evenodd;fill:url(#SVGID_18_);" d="M18.75,18.05c0.267,0.066,0.517,0.25,0.75,0.55
	c0.2,0.267,0.233,0.483,0.1,0.65c-0.1,0.134-0.45,0.184-1.05,0.15c-0.5-0.034-0.917-0.101-1.25-0.2C17.067,19.1,16.967,19,17,18.9
	c0.033-0.067,0.167-0.233,0.4-0.5C17.733,18,18.183,17.884,18.75,18.05z"/>
<linearGradient id="SVGID_19_" gradientUnits="userSpaceOnUse" x1="3.7178" y1="25.6152" x2="4.224" y2="25.6152" gradientTransform="matrix(0.8396 -0.5433 0.5433 0.8396 3.740788e-004 -1.048446e-004)">
	<stop  offset="0" style="stop-color:#F9AF00"/>
	<stop  offset="1" style="stop-color:#E08006"/>
</linearGradient>
<path style="fill-rule:evenodd;clip-rule:evenodd;fill:url(#SVGID_19_);" d="M17.8,19.4c0.1,0.133,0.083,0.233-0.05,0.3
	c-0.1,0.1-0.267,0.149-0.5,0.149c-0.267,0.034-0.533,0-0.8-0.1c-0.233-0.1-0.267-0.233-0.1-0.4C16.617,19.15,16.8,19,16.9,18.9
	c0.133-0.134,0.283-0.15,0.45-0.051C17.55,18.983,17.7,19.167,17.8,19.4z"/>
<linearGradient id="SVGID_20_" gradientUnits="userSpaceOnUse" x1="16.0552" y1="31.5039" x2="17.4561" y2="31.5039" gradientTransform="matrix(0.8209 -0.5711 0.5711 0.8209 1.415014e-004 1.122355e-004)">
	<stop  offset="0" style="stop-color:#F9AF00"/>
	<stop  offset="1" style="stop-color:#E08006"/>
</linearGradient>
<path style="fill-rule:evenodd;clip-rule:evenodd;fill:url(#SVGID_20_);" d="M29.35,16.65c0.134-0.4,0.233-0.7,0.301-0.9
	c0.133-0.366,0.316-0.616,0.55-0.75c0.3-0.167,0.649-0.217,1.05-0.15c0.434,0.067,0.733,0.217,0.9,0.45
	c0.199,0.334,0.5,0.584,0.899,0.75c0.167,0.066,0.334,0.283,0.5,0.65c0.167,0.333,0.217,0.533,0.15,0.6
	C33.6,17.4,33.316,17.517,32.85,17.65c-0.466,0.133-0.866,0.216-1.199,0.25C31.184,17.967,30.833,18,30.6,18
	c-0.366,0.033-0.649,0-0.85-0.1c-0.2-0.134-0.333-0.334-0.4-0.601C29.283,17.066,29.283,16.85,29.35,16.65z"/>
<linearGradient id="SVGID_21_" gradientUnits="userSpaceOnUse" x1="14.1221" y1="31.665" x2="15.0582" y2="31.665" gradientTransform="matrix(0.8279 -0.5608 0.5608 0.8279 -1.851916e-004 1.488328e-004)">
	<stop  offset="0" style="stop-color:#F9AF00"/>
	<stop  offset="1" style="stop-color:#E08006"/>
</linearGradient>
<path style="fill-rule:evenodd;clip-rule:evenodd;fill:url(#SVGID_21_);" d="M29.9,17.25c0.3,0.066,0.6,0.3,0.899,0.7
	c0.3,0.399,0.351,0.666,0.15,0.8c-0.533,0.333-1.05,0.5-1.55,0.5c-0.7,0-1.184-0.316-1.45-0.95c-0.033-0.133,0.05-0.25,0.25-0.35
	c0.267-0.2,0.45-0.384,0.55-0.55c0.134-0.233,0.3-0.334,0.5-0.301C29.35,17.1,29.566,17.15,29.9,17.25z"/>
<linearGradient id="SVGID_22_" gradientUnits="userSpaceOnUse" x1="11.3711" y1="31.6553" x2="11.8565" y2="31.6553" gradientTransform="matrix(0.824 -0.5665 0.5665 0.824 7.927418e-006 -1.163483e-004)">
	<stop  offset="0" style="stop-color:#F9AF00"/>
	<stop  offset="1" style="stop-color:#E08006"/>
</linearGradient>
<path style="fill-rule:evenodd;clip-rule:evenodd;fill:url(#SVGID_22_);" d="M27.65,19.2c0.433,0.233,0.533,0.45,0.3,0.649
	c-0.233,0.2-0.533,0.284-0.9,0.25c-0.4-0.033-0.533-0.233-0.4-0.6c0.033-0.1,0.167-0.2,0.4-0.3C27.316,19.1,27.517,19.1,27.65,19.2z
	"/>
<linearGradient id="SVGID_23_" gradientUnits="userSpaceOnUse" x1="13.9683" y1="29.0322" x2="14.5992" y2="29.0322" gradientTransform="matrix(0.8321 -0.5547 0.5547 0.8321 -1.654029e-004 1.352429e-004)">
	<stop  offset="0" style="stop-color:#F9AF00"/>
	<stop  offset="1" style="stop-color:#E08006"/>
</linearGradient>
<path style="fill-rule:evenodd;clip-rule:evenodd;fill:url(#SVGID_23_);" d="M28.55,16.05c0.233,0.566-0.184,0.851-1.25,0.851
	c-0.466,0-0.5-0.267-0.1-0.801c0.166-0.233,0.399-0.366,0.7-0.399C28.233,15.667,28.45,15.783,28.55,16.05z"/>
<linearGradient id="SVGID_24_" gradientUnits="userSpaceOnUse" x1="21.2422" y1="31.9141" x2="22.3031" y2="31.9141" gradientTransform="matrix(0.8247 -0.5655 0.5655 0.8247 2.799630e-004 -1.794100e-005)">
	<stop  offset="0" style="stop-color:#F9AF00"/>
	<stop  offset="1" style="stop-color:#E08006"/>
</linearGradient>
<path style="fill-rule:evenodd;clip-rule:evenodd;fill:url(#SVGID_24_);" d="M37.2,14.1c-0.134,0.267-0.316,0.517-0.55,0.75
	c-0.5,0.467-1.067,0.634-1.7,0.5c-0.634-0.1-0.8-0.416-0.5-0.949c0.1-0.233,0.467-0.684,1.1-1.351c0.3-0.333,0.55-0.383,0.75-0.149
	C36.467,13.066,36.767,13.467,37.2,14.1z"/>
<linearGradient id="SVGID_25_" gradientUnits="userSpaceOnUse" x1="23.2852" y1="32.6992" x2="24.0618" y2="32.6992" gradientTransform="matrix(0.837 -0.5472 0.5472 0.837 -2.456307e-004 2.188087e-004)">
	<stop  offset="0" style="stop-color:#F9AF00"/>
	<stop  offset="1" style="stop-color:#E08006"/>
</linearGradient>
<path style="fill-rule:evenodd;clip-rule:evenodd;fill:url(#SVGID_25_);" d="M38.45,14.25c-0.134,0.833-0.55,1.25-1.25,1.25
	c-0.467,0.033-0.7-0.1-0.7-0.4c0-0.066,0.066-0.366,0.2-0.899c0.1-0.267,0.3-0.384,0.6-0.351
	C37.434,13.884,37.816,14.017,38.45,14.25z"/>
<linearGradient id="SVGID_26_" gradientUnits="userSpaceOnUse" x1="25.3291" y1="35.6816" x2="26.2305" y2="35.6816" gradientTransform="matrix(0.8321 -0.5547 0.5547 0.8321 -1.631379e-004 1.349449e-004)">
	<stop  offset="0" style="stop-color:#F9AF00"/>
	<stop  offset="1" style="stop-color:#E08006"/>
</linearGradient>
<path style="fill-rule:evenodd;clip-rule:evenodd;fill:url(#SVGID_26_);" d="M41.7,14.75c0.1,0.033,0.217,0.167,0.35,0.4
	c0.167,0.3,0.233,0.533,0.2,0.699c-0.066,0.334-0.816,0.4-2.25,0.2c-0.434-0.033-0.583-0.116-0.45-0.25l0.4-0.5
	c0.066-0.267,0.267-0.483,0.6-0.649C40.95,14.483,41.333,14.517,41.7,14.75z"/>
<linearGradient id="SVGID_27_" gradientUnits="userSpaceOnUse" x1="25.5718" y1="31.5684" x2="25.9323" y2="31.5684" gradientTransform="matrix(0.8321 -0.5547 0.5547 0.8321 3.212690e-004 1.352429e-004)">
	<stop  offset="0" style="stop-color:#F9AF00"/>
	<stop  offset="1" style="stop-color:#E08006"/>
</linearGradient>
<path style="fill-rule:evenodd;clip-rule:evenodd;fill:url(#SVGID_27_);" d="M37.75,11.45l0.15-0.2c0.133-0.1,0.333-0.083,0.6,0.05
	c0.233,0.134,0.434,0.3,0.6,0.5c0.067,0.101,0.184,0.25,0.351,0.45c0.166,0.134,0.283,0.267,0.35,0.4
	c0.033,0.133,0.017,0.199-0.05,0.199s-0.283-0.1-0.65-0.3c-0.433-0.2-0.716-0.35-0.85-0.45L37.75,11.45z"/>
<linearGradient id="SVGID_28_" gradientUnits="userSpaceOnUse" x1="25.1519" y1="32.8398" x2="26.0879" y2="32.8398" gradientTransform="matrix(0.8279 -0.5608 0.5608 0.8279 -1.851916e-004 1.488328e-004)">
	<stop  offset="0" style="stop-color:#F9AF00"/>
	<stop  offset="1" style="stop-color:#E08006"/>
</linearGradient>
<path style="fill-rule:evenodd;clip-rule:evenodd;fill:url(#SVGID_28_);" d="M38.2,12.85c0.467-0.8,0.95-1.033,1.45-0.699
	c0.333,0.199,0.75,0.55,1.25,1.05c-0.634,0.366-1.101,0.55-1.4,0.55c-0.233,0-0.566-0.066-1-0.2c-0.4-0.133-0.634-0.233-0.7-0.3
	L38.2,12.85z"/>
<linearGradient id="SVGID_29_" gradientUnits="userSpaceOnUse" x1="25.3159" y1="34.9238" x2="25.9611" y2="34.9238" gradientTransform="matrix(0.8137 -0.5812 0.5812 0.8137 -1.652241e-004 1.777411e-004)">
	<stop  offset="0" style="stop-color:#F9AF00"/>
	<stop  offset="1" style="stop-color:#E08006"/>
</linearGradient>
<path style="fill-rule:evenodd;clip-rule:evenodd;fill:url(#SVGID_29_);" d="M41.45,13c0.5,0.467,0.666,0.767,0.5,0.9
	c-0.134,0.133-0.7,0.166-1.7,0.1c-0.3-0.033-0.4-0.134-0.3-0.3c0.066-0.101,0.166-0.233,0.3-0.4c0.1-0.166,0.25-0.283,0.45-0.35
	C40.967,12.783,41.217,12.8,41.45,13z"/>
<linearGradient id="SVGID_30_" gradientUnits="userSpaceOnUse" x1="28.5879" y1="33.625" x2="29.1287" y2="33.625" gradientTransform="matrix(0.8321 -0.5547 0.5547 0.8321 3.235340e-004 1.349449e-004)">
	<stop  offset="0" style="stop-color:#F9AF00"/>
	<stop  offset="1" style="stop-color:#E08006"/>
</linearGradient>
<path style="fill-rule:evenodd;clip-rule:evenodd;fill:url(#SVGID_30_);" d="M41.55,12.15c0.334-0.567,0.65-0.801,0.95-0.7
	c0.333,0.133,0.667,0.399,1,0.8c-0.434,0.233-0.816,0.333-1.15,0.3c-0.199-0.033-0.383-0.1-0.55-0.2L41.55,12.15z"/>
<linearGradient id="SVGID_31_" gradientUnits="userSpaceOnUse" x1="26.2676" y1="31.8965" x2="26.5727" y2="31.8965" gradientTransform="matrix(0.8192 -0.5735 0.5735 0.8192 3.869534e-004 -2.346039e-004)">
	<stop  offset="0" style="stop-color:#F9AF00"/>
	<stop  offset="1" style="stop-color:#E08006"/>
</linearGradient>
<path style="fill-rule:evenodd;clip-rule:evenodd;fill:url(#SVGID_31_);" d="M39.9,10.6c0.133,0.1,0.25,0.217,0.35,0.35
	c0.134,0.166,0.15,0.283,0.05,0.35c-0.233,0.167-0.55,0.101-0.95-0.2c-0.133-0.066-0.1-0.183,0.101-0.35S39.8,10.533,39.9,10.6z"/>
<linearGradient id="SVGID_32_" gradientUnits="userSpaceOnUse" x1="19.502" y1="34.291" x2="20.9582" y2="34.291" gradientTransform="matrix(0.824 -0.5665 0.5665 0.824 7.927418e-006 -1.170039e-004)">
	<stop  offset="0" style="stop-color:#F9AF00"/>
	<stop  offset="1" style="stop-color:#E08006"/>
</linearGradient>
<path style="fill-rule:evenodd;clip-rule:evenodd;fill:url(#SVGID_32_);" d="M37.15,16c0.733,0.967,0.966,1.55,0.699,1.75
	c-0.233,0.134-0.666,0.283-1.3,0.45c-0.666,0.2-1.217,0.3-1.649,0.3c-0.367-0.033-0.717-0.167-1.051-0.4L33.4,17.7l0.55-1.2
	c0.133-0.233,0.366-0.5,0.7-0.8c0.433-0.4,0.767-0.617,1-0.65s0.5,0.066,0.8,0.3C36.616,15.483,36.85,15.7,37.15,16z"/>
<linearGradient id="SVGID_33_" gradientUnits="userSpaceOnUse" x1="23.4004" y1="36.0166" x2="23.9066" y2="36.0166" gradientTransform="matrix(0.8396 -0.5433 0.5433 0.8396 3.740788e-004 -1.048446e-004)">
	<stop  offset="0" style="stop-color:#F9AF00"/>
	<stop  offset="1" style="stop-color:#E08006"/>
</linearGradient>
<path style="fill-rule:evenodd;clip-rule:evenodd;fill:url(#SVGID_33_);" d="M39.4,17.05C39.9,17.217,40.1,17.4,40,17.6
	c-0.066,0.167-0.267,0.284-0.6,0.351c-0.434,0.033-0.733-0.05-0.9-0.25c-0.1-0.101-0.05-0.25,0.15-0.45
	C38.884,17.017,39.134,16.95,39.4,17.05z"/>
<path style="fill-rule:evenodd;clip-rule:evenodd;fill:#C97700;" d="M32.1,10c0.267,0.4,0.384,0.667,0.351,0.8
	c0,0.067-0.033,0.184-0.101,0.351c0,0.267-0.199,0.399-0.6,0.399c-0.4,0.033-0.634-0.184-0.7-0.65c-0.1-0.667-0.066-1.133,0.101-1.4
	C31.35,9.167,31.667,9.333,32.1,10z"/>
<path style="fill-rule:evenodd;clip-rule:evenodd;fill:#C97700;" d="M34.65,10.35c0.633,0.4,0.816,0.833,0.55,1.3
	c-0.134,0.233-0.384,0.233-0.75,0c-0.334-0.267-0.5-0.551-0.5-0.851C33.884,10.1,34.116,9.95,34.65,10.35z"/>
<path style="fill-rule:evenodd;clip-rule:evenodd;fill:#C97700;" d="M36.1,11.2c0.233,0.267,0.367,0.416,0.4,0.45
	c0.033,0.066,0,0.149-0.1,0.25c-0.134,0.199-0.351,0.149-0.65-0.15c-0.167-0.134-0.184-0.3-0.05-0.5
	C35.866,11.083,36,11.066,36.1,11.2z"/>
<path style="fill-rule:evenodd;clip-rule:evenodd;fill:#C97700;" d="M29.5,6.75c0.2,0.2,0.3,0.417,0.3,0.65
	c0.033,0.3-0.066,0.517-0.3,0.65S29.083,8.1,28.95,7.8c-0.101-0.367-0.2-0.65-0.3-0.85c-0.134-0.3-0.101-0.483,0.1-0.55
	C28.95,6.367,29.2,6.483,29.5,6.75z"/>
<path style="fill-rule:evenodd;clip-rule:evenodd;fill:#C97700;" d="M31.3,7.45c0.467,0.466,0.601,0.867,0.4,1.2
	C31.5,8.917,31.2,8.7,30.8,8c-0.166-0.267-0.184-0.483-0.05-0.65C30.917,7.217,31.1,7.25,31.3,7.45z"/>
<path style="fill-rule:evenodd;clip-rule:evenodd;fill:#C97700;" d="M32.95,11.25c0.267,0.267,0.416,0.566,0.45,0.9
	c0.033,0.333-0.084,0.517-0.351,0.55S32.6,12.6,32.5,12.3c-0.1-0.267-0.1-0.517,0-0.75C32.7,11.184,32.85,11.083,32.95,11.25z"/>
<path style="fill-rule:evenodd;clip-rule:evenodd;fill:#C97700;" d="M25.75,3.75c0.2,0.2,0.3,0.433,0.3,0.7
	c0.034,0.3-0.083,0.5-0.35,0.6C25.433,5.15,25.217,5,25.05,4.6c-0.133-0.3-0.2-0.65-0.2-1.05C24.85,3.083,25.15,3.15,25.75,3.75z"/>
<path style="fill-rule:evenodd;clip-rule:evenodd;fill:#C97700;" d="M24.3,3.15c0.267,0.4,0.267,0.667,0,0.8
	c-0.1,0.066-0.216,0-0.35-0.2c-0.133-0.167-0.2-0.333-0.2-0.5s0.067-0.283,0.2-0.35C24.083,2.867,24.2,2.95,24.3,3.15z"/>
<path style="fill-rule:evenodd;clip-rule:evenodd;fill:#C97700;" d="M28.75,9.25c0.434,1.033,0.283,1.65-0.45,1.85
	c-0.333,0.101-0.45-0.45-0.35-1.649C27.983,9.117,28.1,8.933,28.3,8.9S28.65,8.983,28.75,9.25z"/>
<path style="fill-rule:evenodd;clip-rule:evenodd;fill:#C97700;" d="M29.9,10.7c0.199,0.3,0.25,0.649,0.149,1.05
	c-0.033,0.134-0.133,0.167-0.3,0.1c-0.2-0.1-0.35-0.3-0.45-0.6c-0.1-0.3-0.05-0.5,0.15-0.6C29.684,10.55,29.833,10.567,29.9,10.7z"
	/>
<path style="fill-rule:evenodd;clip-rule:evenodd;fill:#C97700;" d="M28.6,13.1c0.2,0.267,0.334,0.601,0.4,1
	c0.1,0.467,0.017,0.75-0.25,0.851c-0.233,0.1-0.417,0.083-0.55-0.05C28.1,14.8,27.967,14.533,27.8,14.1
	c-0.133-0.399-0.083-0.733,0.15-1C28.217,12.8,28.434,12.8,28.6,13.1z"/>
<path style="fill-rule:evenodd;clip-rule:evenodd;fill:#C97700;" d="M25.85,13c0.1-0.033,0.233,0.1,0.4,0.4
	c0.2,0.267,0.283,0.5,0.25,0.699c-0.033,0.334-0.3,0.45-0.8,0.351c-0.233-0.033-0.317-0.267-0.25-0.7
	C25.517,13.316,25.65,13.066,25.85,13z"/>
<path style="fill-rule:evenodd;clip-rule:evenodd;fill:#C97700;" d="M32.6,13.3c0.167,0.2,0.267,0.417,0.301,0.65
	c0.033,0.267-0.034,0.467-0.2,0.6c-0.334,0.2-0.601-0.05-0.8-0.75c-0.067-0.233-0.017-0.434,0.149-0.6
	C32.217,13.066,32.4,13.1,32.6,13.3z"/>
<path style="fill-rule:evenodd;clip-rule:evenodd;fill:#C97700;" d="M33.35,8.9c0.067,0.633-0.05,1.017-0.35,1.15
	c-0.2,0.067-0.333-0.017-0.4-0.25c-0.033-0.333-0.083-0.583-0.149-0.75C32.283,8.617,32.583,8.567,33.35,8.9z"/>
<path style="fill-rule:evenodd;clip-rule:evenodd;fill:#FFC633;" d="M19.05,3.3c0.534-0.3,0.667,0,0.4,0.9
	C19.383,4.5,19.233,4.7,19,4.8c-0.267,0.133-0.567,0.067-0.9-0.2C17.633,4.267,17.95,3.833,19.05,3.3z"/>
<path style="fill-rule:evenodd;clip-rule:evenodd;fill:#FFC633;" d="M17.75,5.3c0.2,0,0.317,0.117,0.35,0.35s-0.033,0.417-0.2,0.55
	c-0.233,0.233-0.433,0.15-0.6-0.25C17.133,5.517,17.283,5.3,17.75,5.3z"/>
<path style="fill-rule:evenodd;clip-rule:evenodd;fill:#FFC633;" d="M22.65,3.3c0.133,0.467-0.017,0.817-0.45,1.05
	C21.933,4.517,21.867,4.267,22,3.6c0-0.133,0.083-0.267,0.25-0.4C22.45,3.067,22.583,3.1,22.65,3.3z"/>
<path style="fill-rule:evenodd;clip-rule:evenodd;fill:#FFC633;" d="M20.9,5c0.167-0.067,0.317-0.133,0.45-0.2
	c0.033,0,0.05,0.1,0.05,0.3c0,0.4-0.15,0.566-0.45,0.5c-0.133-0.033-0.2-0.133-0.2-0.3C20.717,5.167,20.767,5.067,20.9,5z"/>
<path style="fill-rule:evenodd;clip-rule:evenodd;fill:#FFC633;" d="M14.4,6.9c0.333-0.1,0.533-0.05,0.6,0.15
	c0.067,0.167,0.033,0.4-0.1,0.7C14.7,8.183,14.267,8.267,13.6,8c-0.233-0.1-0.2-0.3,0.1-0.6C13.967,7.1,14.2,6.933,14.4,6.9z"/>
<path style="fill-rule:evenodd;clip-rule:evenodd;fill:#FFC633;" d="M16.05,6.6c0.4-0.233,0.567-0.15,0.5,0.25
	c-0.033,0.367-0.167,0.633-0.4,0.8c-0.3,0.233-0.566,0.2-0.8-0.1c-0.067-0.1-0.033-0.25,0.1-0.45C15.583,6.9,15.783,6.733,16.05,6.6
	z"/>
<path style="fill-rule:evenodd;clip-rule:evenodd;fill:#FFC633;" d="M11.45,9.75c0.233-0.033,0.367,0.117,0.4,0.45
	c0.066,0.3-0.033,0.583-0.3,0.85c-0.233,0.233-0.466,0.334-0.7,0.3c-0.133,0-0.333-0.116-0.6-0.35c-0.2-0.167-0.15-0.4,0.15-0.7
	C10.7,10,11.05,9.817,11.45,9.75z"/>
<path style="fill-rule:evenodd;clip-rule:evenodd;fill:#FFC633;" d="M12.65,9.4c0.267-0.066,0.434,0,0.5,0.2
	c0.033,0.167-0.066,0.367-0.3,0.6c-0.2,0.2-0.35,0.3-0.45,0.3c-0.1-0.033-0.183-0.067-0.25-0.1c-0.133-0.033-0.133-0.183,0-0.45
	C12.283,9.65,12.45,9.467,12.65,9.4z"/>
<path style="fill-rule:evenodd;clip-rule:evenodd;fill:#FFC633;" d="M17.5,9.45c0.767-0.034,0.85,0.45,0.25,1.45
	c-0.2,0.333-0.35,0.466-0.45,0.4c-0.133-0.2-0.283-0.333-0.45-0.4c-0.2-0.1-0.217-0.367-0.05-0.8C16.967,9.7,17.2,9.483,17.5,9.45z"
	/>
<path style="fill-rule:evenodd;clip-rule:evenodd;fill:#FFC633;" d="M20.2,9.85c0.167-0.033,0.316,0.05,0.45,0.25
	c0.133,0.2,0.167,0.367,0.1,0.5c-0.033,0.233-0.317,0.283-0.85,0.15c-0.233-0.033-0.3-0.183-0.2-0.45
	C19.767,10.067,19.933,9.917,20.2,9.85z"/>
<path style="fill-rule:evenodd;clip-rule:evenodd;fill:#FFC633;" d="M20,11.25c0.2,0.033,0.317,0.116,0.35,0.25s0,0.25-0.1,0.35
	c-0.167,0.2-0.367,0.15-0.6-0.149c-0.133-0.134-0.15-0.25-0.05-0.351C19.7,11.217,19.833,11.184,20,11.25z"/>
<path style="fill-rule:evenodd;clip-rule:evenodd;fill:#FFC633;" d="M16.2,12.9c0.566-0.233,0.85-0.051,0.85,0.55
	c0.034,0.566-0.1,0.95-0.4,1.149c-0.267,0.2-0.55,0.017-0.85-0.55c-0.1-0.2-0.1-0.434,0-0.7C15.9,13.116,16.033,12.967,16.2,12.9z"
	/>
<path style="fill-rule:evenodd;clip-rule:evenodd;fill:#FFC633;" d="M12.65,11.8c0.333-0.233,0.583-0.3,0.75-0.2
	c0.133,0.067,0.184,0.184,0.15,0.351c-0.066,0.399-0.3,0.649-0.7,0.75c-0.233,0.066-0.367-0.033-0.4-0.3
	C12.45,12.134,12.517,11.934,12.65,11.8z"/>
<path style="fill-rule:evenodd;clip-rule:evenodd;fill:#FFC633;" d="M22.25,13.7c0.733-0.033,0.767,0.283,0.1,0.95
	c-0.133,0.1-0.233,0.133-0.3,0.1c-0.066-0.1-0.133-0.167-0.2-0.2c-0.1-0.066-0.1-0.217,0-0.45S22.083,13.733,22.25,13.7z"/>
<path style="fill-rule:evenodd;clip-rule:evenodd;fill:#FFC633;" d="M19.2,15.45c0.3,0.066,0.45,0.283,0.45,0.649
	c0,0.4-0.15,0.7-0.45,0.9c-0.267,0.167-0.434,0.2-0.5,0.1c-0.034-0.199-0.1-0.383-0.2-0.55c-0.133-0.2-0.1-0.45,0.1-0.75
	C18.8,15.533,19,15.417,19.2,15.45z"/>
<path style="fill-rule:evenodd;clip-rule:evenodd;fill:#FFC633;" d="M22.1,17c0.1,0.066,0.183,0.184,0.25,0.35
	c0.066,0.233,0.066,0.434,0,0.601c-0.1,0.166-0.184,0.217-0.25,0.149c-0.133-0.166-0.267-0.333-0.4-0.5
	c-0.2-0.199-0.217-0.366-0.05-0.5C21.783,16.934,21.933,16.9,22.1,17z"/>
<path style="fill-rule:evenodd;clip-rule:evenodd;fill:#FFC633;" d="M30.4,15.25c0.399-0.066,0.6,0.134,0.6,0.6
	c-0.033,0.334-0.134,0.667-0.3,1c-0.134,0.2-0.3,0.2-0.5,0c-0.2-0.133-0.334-0.3-0.4-0.5c-0.1-0.166-0.1-0.366,0-0.6
	C29.9,15.45,30.1,15.283,30.4,15.25z"/>
<path style="fill-rule:evenodd;clip-rule:evenodd;fill:#FFC633;" d="M3.75,13.05c0.2,0.167,0.25,0.3,0.15,0.4
	c-0.066,0.1-0.183,0.1-0.35,0c-0.167-0.101-0.183-0.2-0.05-0.3C3.6,13.017,3.683,12.983,3.75,13.05z"/>
<path style="fill-rule:evenodd;clip-rule:evenodd;fill:#FFC633;" d="M5.9,11.8c0.2-0.066,0.267,0.066,0.2,0.4
	c-0.067,0.333-0.217,0.483-0.45,0.45c-0.233-0.034-0.283-0.167-0.15-0.4C5.6,12.05,5.733,11.9,5.9,11.8z"/>
<path style="fill-rule:evenodd;clip-rule:evenodd;fill:#FFC633;" d="M6.85,14.4c0.133,0,0.167,0.066,0.1,0.199
	C6.917,14.7,6.8,14.75,6.6,14.75c-0.167,0-0.2-0.05-0.1-0.15C6.633,14.467,6.75,14.4,6.85,14.4z"/>
<path style="fill-rule:evenodd;clip-rule:evenodd;fill:#FFC633;" d="M12.4,15.4c0.1,0.033,0.167,0.116,0.2,0.25
	c0,0.133-0.083,0.199-0.25,0.199c-0.167,0-0.233-0.083-0.2-0.25C12.217,15.434,12.3,15.366,12.4,15.4z"/>
<path style="fill-rule:evenodd;clip-rule:evenodd;fill:#FFC633;" d="M13.95,15.6c0.167,0.034,0.283,0.15,0.35,0.351
	c0.067,0.2,0.034,0.366-0.1,0.5c-0.1,0.1-0.217,0.1-0.35,0L13.45,16C13.25,15.733,13.417,15.6,13.95,15.6z"/>
<path style="fill-rule:evenodd;clip-rule:evenodd;fill:#FFC633;" d="M29.1,17.75c0.134,0,0.217,0.116,0.25,0.35
	c0.034,0.233,0.017,0.4-0.05,0.5C29.267,18.7,29.167,18.733,29,18.7c-0.2-0.033-0.417-0.15-0.65-0.351
	c-0.233-0.166-0.233-0.316,0-0.449C28.55,17.8,28.8,17.75,29.1,17.75z"/>
<path style="fill-rule:evenodd;clip-rule:evenodd;fill:#FFC633;" d="M34.5,16.3c0.167-0.066,0.35,0.05,0.55,0.351
	c0.2,0.267,0.283,0.517,0.25,0.75s-0.2,0.366-0.5,0.399c-0.267,0.066-0.517,0.05-0.75-0.05c-0.2-0.1-0.233-0.333-0.1-0.7
	C34.05,16.65,34.233,16.4,34.5,16.3z"/>
<path style="fill-rule:evenodd;clip-rule:evenodd;fill:#FFC633;" d="M35.2,13.85c0.267,0,0.35,0.184,0.25,0.551
	c-0.033,0.199-0.167,0.316-0.4,0.35c-0.166,0-0.3-0.05-0.399-0.15c-0.067-0.1-0.017-0.25,0.149-0.449
	C34.934,13.95,35.066,13.85,35.2,13.85z"/>
<path style="fill-rule:evenodd;clip-rule:evenodd;fill:#FFC633;" d="M36.95,14.25c0.1-0.033,0.2,0,0.3,0.1
	c0.066,0.101,0.1,0.217,0.1,0.351c0,0.3-0.199,0.416-0.6,0.35c-0.167-0.033-0.217-0.166-0.15-0.399
	C36.667,14.45,36.783,14.316,36.95,14.25z"/>
<path style="fill-rule:evenodd;clip-rule:evenodd;fill:#FFC633;" d="M40.65,15.3c0.033,0.167,0.017,0.283-0.051,0.351
	c-0.1,0.133-0.3,0.149-0.6,0.05c0-0.101,0.017-0.2,0.05-0.3c0.033-0.167,0.134-0.267,0.3-0.301
	C40.483,15.066,40.583,15.134,40.65,15.3z"/>
<path style="fill-rule:evenodd;clip-rule:evenodd;fill:#FFC633;" d="M40.6,13.25c0.134-0.033,0.217,0.017,0.25,0.15
	c0.034,0.1,0,0.199-0.1,0.3c-0.1,0.133-0.283,0.149-0.55,0.05c-0.101-0.033-0.084-0.116,0.05-0.25S40.5,13.283,40.6,13.25z"/>
<path style="fill-rule:evenodd;clip-rule:evenodd;fill:#FFC633;" d="M38.7,12.5c0.133-0.1,0.233,0,0.3,0.3c0.1,0.3,0.1,0.5,0,0.601
	c-0.066,0.1-0.15,0.083-0.25-0.051c-0.1-0.133-0.184-0.233-0.25-0.3C38.333,12.884,38.4,12.7,38.7,12.5z"/>
<path style="fill-rule:evenodd;clip-rule:evenodd;fill:#FFC633;" d="M38.5,11.55c0.134,0.334,0.134,0.483,0,0.45
	c-0.167-0.033-0.283-0.15-0.35-0.35c-0.034-0.134,0-0.2,0.1-0.2C38.384,11.417,38.467,11.45,38.5,11.55z"/>
<path style="fill-rule:evenodd;clip-rule:evenodd;fill:#FFC633;" d="M42.15,11.6c0.166,0.167,0.233,0.384,0.199,0.65
	c-0.033,0.134-0.183,0.116-0.449-0.05c-0.134-0.101-0.15-0.25-0.051-0.45C41.95,11.583,42.05,11.533,42.15,11.6z"/>
<path style="fill-rule:evenodd;clip-rule:evenodd;fill:#FFC633;" d="M17.85,18.15c0.233,0,0.367,0.017,0.4,0.05s0.067,0.133,0.1,0.3
	c0.066,0.167,0.083,0.267,0.05,0.3c-0.066,0.033-0.283,0-0.65-0.1c-0.333-0.101-0.433-0.217-0.3-0.351
	C17.55,18.217,17.683,18.15,17.85,18.15z"/>
<path style="fill-rule:evenodd;clip-rule:evenodd;fill:#FFC633;" d="M16.95,19.05c0.2,0.033,0.233,0.117,0.1,0.25
	c-0.133,0.134-0.283,0.15-0.45,0.05c-0.167-0.066-0.184-0.133-0.05-0.199C16.65,19.05,16.783,19.017,16.95,19.05z"/>
</svg>
