<?xml version="1.0" encoding="iso-8859-1"?>
<!-- Generator: Adobe Illustrator 15.1.0, SVG Export Plug-In . SVG Version: 6.00 Build 0)  -->
<!DOCTYPE svg PUBLIC "-//W3C//DTD SVG 1.1//EN" "http://www.w3.org/Graphics/SVG/1.1/DTD/svg11.dtd">
<svg version="1.1" id="flash0.ai" xmlns="http://www.w3.org/2000/svg" xmlns:xlink="http://www.w3.org/1999/xlink" x="0px" y="0px"
	 width="20.05px" height="22.3px" viewBox="0 0 20.05 22.3" style="enable-background:new 0 0 20.05 22.3;" xml:space="preserve">
<symbol  id="flash0.ai_Assets_x2F_Isolation_Mode_x2F__x3C_Path_x3E__x5F_10" viewBox="-0.006 -14.352 3.056 14.352">
	<g id="Layer_1_3_">
		<path style="fill-rule:evenodd;clip-rule:evenodd;fill:#4A4A4A;" d="M1.55,0l1.5-0.15c-0.667-8.067-1.033-12.233-1.1-12.5
			c-0.167-0.4-0.45-0.817-0.85-1.25c-0.533-0.567-0.883-0.6-1.05-0.1C-0.183-13.267,0.317-8.6,1.55,0z"/>
	</g>
</symbol>
<symbol  id="flash0.ai_Assets_x2F_Isolation_Mode_x2F__x3C_Path_x3E__x5F_8" viewBox="0 -10.6 14.5 10.6">
	<g id="Layer_1_4_">
		<path style="fill-rule:evenodd;clip-rule:evenodd;fill:#FFFFFF;" d="M14.5-0.85L10.95-1.7l2.5-1.1
			c-1.467-0.534-2.917-0.817-4.35-0.85c-1.4-0.033-2.967-0.367-4.7-1c-0.733-0.267,0.15-0.633,2.65-1.1
			c-2.1-0.833-3.633-1.3-4.6-1.4c-0.6-0.1-1.184-0.7-1.75-1.8C0.4-9.517,0.167-10.067,0-10.6c0.5,2.667,0.783,4.517,0.85,5.55
			C0.917-3.983,1.183-2.3,1.65,0c1.4,0,2.817-0.033,4.25-0.1L14.5-0.85z"/>
	</g>
</symbol>
<symbol  id="spice" viewBox="-0.007 -12.261 15.414 12.252">
	<g id="Layer_1_2_">
		<g>
			
				<radialGradient id="SVGID_1_" cx="-2816.6289" cy="-11710.7061" r="14.0098" gradientTransform="matrix(0.1717 -0.3343 -0.3343 -0.1717 -3424.6436 -2955.1064)" gradientUnits="userSpaceOnUse">
				<stop  offset="0" style="stop-color:#523729"/>
				<stop  offset="1" style="stop-color:#473125"/>
			</radialGradient>
			<path style="fill-rule:evenodd;clip-rule:evenodd;fill:url(#SVGID_1_);" d="M9.074-1.841C9.275-1.954,9.35-2.11,9.3-2.311
				C9.25-2.562,9.244-2.718,9.281-2.78c0.087-0.113,0.363-0.238,0.827-0.376c0.539-0.15,0.827-0.238,0.864-0.263
				c0.113-0.063,0.326-0.37,0.639-0.92c0.313-0.526,0.489-0.789,0.526-0.789c0.15,0,0.307-0.082,0.47-0.244
				c0.213-0.213,0.27-0.495,0.169-0.846c-0.088-0.351-0.332-0.52-0.733-0.507L11.46-6.613c-0.15,0.05-0.313,0.075-0.488,0.075
				c-0.363,0.012-0.626-0.088-0.789-0.301C10.008-7.077,9.613-7.196,9-7.196c-0.539,0-0.958,0.075-1.259,0.226
				C7.553-6.883,7.309-6.901,7.008-7.027C6.657-7.165,6.375-7.221,6.162-7.196C6.037-7.183,5.699-7.052,5.148-6.801
				C4.722-6.613,4.346-6.576,4.021-6.688C3.682-6.801,3.256-6.757,2.743-6.557c-0.451,0.238-0.701,0.37-0.751,0.395
				C1.916-6.137,1.81-6.024,1.672-5.824c-0.138,0.2-0.194,0.326-0.169,0.376c0.012,0.025,0.25,0.2,0.714,0.526
				c0.338,0.25,0.871,0.514,1.597,0.789c0.15,0.063,0.426,0.163,0.827,0.301C5.004-3.682,5.254-3.538,5.392-3.4
				C6.507-2.411,7.139-1.753,7.29-1.428C7.841-1.34,8.436-1.478,9.074-1.841z"/>
			
				<radialGradient id="SVGID_2_" cx="-2577.4385" cy="-11690.5186" r="2.84" gradientTransform="matrix(0.172 -0.3341 -0.3655 -0.1571 -3820.6523 -2699.2739)" gradientUnits="userSpaceOnUse">
				<stop  offset="0" style="stop-color:#7D4E35"/>
				<stop  offset="1" style="stop-color:#593826"/>
			</radialGradient>
			<path style="fill-rule:evenodd;clip-rule:evenodd;fill:url(#SVGID_2_);" d="M9.056-0.808c0.401,0.05,0.708-0.106,0.92-0.47
				c0.213-0.363,0.194-0.689-0.056-0.977C9.732-2.467,9.438-2.549,9.037-2.499c-0.375,0.038-0.62,0.163-0.732,0.375
				C8.141-1.835,8.123-1.559,8.248-1.296C8.386-1.033,8.655-0.871,9.056-0.808z"/>
			
				<radialGradient id="SVGID_3_" cx="-2577.0342" cy="-11699.8408" r="2.84" gradientTransform="matrix(0.172 -0.3341 -0.3655 -0.1571 -3827.2852 -2702.1255)" gradientUnits="userSpaceOnUse">
				<stop  offset="0" style="stop-color:#7D4E35"/>
				<stop  offset="1" style="stop-color:#593826"/>
			</radialGradient>
			<path style="fill-rule:evenodd;clip-rule:evenodd;fill:url(#SVGID_3_);" d="M5.88-2.349c0.414,0.05,0.727-0.1,0.939-0.451
				c0.213-0.363,0.194-0.689-0.056-0.977C6.576-3.989,6.281-4.077,5.88-4.04c-0.375,0.05-0.62,0.176-0.732,0.376
				C4.985-3.363,4.966-3.087,5.091-2.837C5.229-2.562,5.492-2.398,5.88-2.349z"/>
			
				<radialGradient id="SVGID_4_" cx="-2576.7754" cy="-11709.7383" r="2.8416" gradientTransform="matrix(0.172 -0.3341 -0.3655 -0.1571 -3834.3281 -2705.1528)" gradientUnits="userSpaceOnUse">
				<stop  offset="0" style="stop-color:#7D4E35"/>
				<stop  offset="1" style="stop-color:#593826"/>
			</radialGradient>
			<path style="fill-rule:evenodd;clip-rule:evenodd;fill:url(#SVGID_4_);" d="M2.518-3.889c0.413,0.05,0.726-0.106,0.939-0.47
				C3.67-4.709,3.651-5.035,3.4-5.336C3.212-5.549,2.918-5.63,2.518-5.58c-0.376,0.038-0.62,0.163-0.733,0.376
				C1.622-4.916,1.603-4.641,1.729-4.377C1.866-4.115,2.129-3.952,2.518-3.889z"/>
			
				<radialGradient id="SVGID_5_" cx="-2572.3584" cy="-11703.3594" r="2.84" gradientTransform="matrix(0.172 -0.3341 -0.3655 -0.1571 -3829.7891 -2703.2017)" gradientUnits="userSpaceOnUse">
				<stop  offset="0" style="stop-color:#7D4E35"/>
				<stop  offset="1" style="stop-color:#593826"/>
			</radialGradient>
			<path style="fill-rule:evenodd;clip-rule:evenodd;fill:url(#SVGID_5_);" d="M5.467-4.415c0.413,0.05,0.727-0.1,0.939-0.451
				C6.62-5.229,6.601-5.555,6.35-5.843C6.162-6.056,5.868-6.144,5.467-6.106c-0.376,0.05-0.62,0.175-0.733,0.375
				C4.572-5.43,4.553-5.154,4.678-4.903C4.816-4.628,5.079-4.465,5.467-4.415z"/>
			
				<radialGradient id="SVGID_6_" cx="-2567.1299" cy="-11701.3428" r="2.84" gradientTransform="matrix(0.172 -0.3341 -0.3655 -0.1571 -3828.3545 -2702.585)" gradientUnits="userSpaceOnUse">
				<stop  offset="0" style="stop-color:#7D4E35"/>
				<stop  offset="1" style="stop-color:#593826"/>
			</radialGradient>
			<path style="fill-rule:evenodd;clip-rule:evenodd;fill:url(#SVGID_6_);" d="M7.083-5.862c0.414,0.05,0.727-0.106,0.939-0.47
				C8.235-6.682,8.21-7.001,7.947-7.29C7.759-7.502,7.465-7.59,7.064-7.553c-0.375,0.05-0.62,0.175-0.732,0.376
				c-0.15,0.3-0.163,0.576-0.038,0.827C6.432-6.075,6.695-5.912,7.083-5.862z"/>
			
				<radialGradient id="SVGID_7_" cx="-2573.8301" cy="-11695.2979" r="2.84" gradientTransform="matrix(0.172 -0.3341 -0.3655 -0.1571 -3824.0527 -2700.7358)" gradientUnits="userSpaceOnUse">
				<stop  offset="0" style="stop-color:#7D4E35"/>
				<stop  offset="1" style="stop-color:#593826"/>
			</radialGradient>
			<path style="fill-rule:evenodd;clip-rule:evenodd;fill:url(#SVGID_7_);" d="M8.003-2.724c0.414,0.05,0.727-0.106,0.939-0.47
				c0.213-0.351,0.194-0.67-0.056-0.958C8.699-4.365,8.404-4.453,8.003-4.415C7.628-4.377,7.383-4.252,7.271-4.04
				C7.108-3.751,7.089-3.476,7.214-3.212C7.353-2.95,7.615-2.787,8.003-2.724z"/>
			
				<radialGradient id="SVGID_8_" cx="-2568.5762" cy="-11693.7295" r="2.84" gradientTransform="matrix(0.172 -0.3341 -0.3655 -0.1571 -3822.9365 -2700.2559)" gradientUnits="userSpaceOnUse">
				<stop  offset="0" style="stop-color:#7D4E35"/>
				<stop  offset="1" style="stop-color:#593826"/>
			</radialGradient>
			<path style="fill-rule:evenodd;clip-rule:evenodd;fill:url(#SVGID_8_);" d="M9.469-4.265c0.4,0.05,0.708-0.101,0.92-0.451
				c0.213-0.363,0.194-0.689-0.056-0.977c-0.188-0.213-0.482-0.3-0.883-0.263C9.074-5.906,8.83-5.78,8.718-5.58
				C8.555-5.279,8.536-5.004,8.661-4.753C8.799-4.478,9.068-4.315,9.469-4.265z"/>
			
				<radialGradient id="SVGID_9_" cx="-2566.1953" cy="-11688.8857" r="2.84" gradientTransform="matrix(0.172 -0.3341 -0.3655 -0.1571 -3819.4902 -2698.7744)" gradientUnits="userSpaceOnUse">
				<stop  offset="0" style="stop-color:#7D4E35"/>
				<stop  offset="1" style="stop-color:#593826"/>
			</radialGradient>
			<path style="fill-rule:evenodd;clip-rule:evenodd;fill:url(#SVGID_9_);" d="M11.555-4.34c0.413,0.05,0.726-0.101,0.939-0.451
				c0.213-0.363,0.194-0.689-0.057-0.977c-0.188-0.212-0.482-0.3-0.883-0.263c-0.376,0.05-0.62,0.175-0.733,0.375
				c-0.163,0.301-0.182,0.576-0.056,0.827C10.903-4.553,11.167-4.39,11.555-4.34z"/>
			
				<radialGradient id="SVGID_10_" cx="-2561.9658" cy="-11685.8301" r="2.84" gradientTransform="matrix(0.172 -0.3341 -0.3655 -0.1571 -3817.3164 -2697.8398)" gradientUnits="userSpaceOnUse">
				<stop  offset="0" style="stop-color:#7D4E35"/>
				<stop  offset="1" style="stop-color:#593826"/>
			</radialGradient>
			<path style="fill-rule:evenodd;clip-rule:evenodd;fill:url(#SVGID_10_);" d="M13.321-5.279c0.413,0.05,0.726-0.1,0.939-0.451
				c0.213-0.363,0.194-0.689-0.057-0.977c-0.188-0.212-0.482-0.3-0.883-0.263c-0.376,0.05-0.62,0.175-0.733,0.376
				c-0.163,0.3-0.182,0.576-0.056,0.826C12.669-5.492,12.932-5.33,13.321-5.279z"/>
			
				<radialGradient id="SVGID_11_" cx="-2570.9658" cy="-11687.9805" r="2.84" gradientTransform="matrix(0.172 -0.3341 -0.3655 -0.1571 -3818.8457 -2698.4976)" gradientUnits="userSpaceOnUse">
				<stop  offset="0" style="stop-color:#7D4E35"/>
				<stop  offset="1" style="stop-color:#593826"/>
			</radialGradient>
			<path style="fill-rule:evenodd;clip-rule:evenodd;fill:url(#SVGID_11_);" d="M11.047-2.611c0.401,0.063,0.708-0.088,0.92-0.451
				s0.194-0.689-0.056-0.977c-0.188-0.213-0.482-0.294-0.883-0.244c-0.375,0.038-0.62,0.163-0.732,0.376
				C10.133-3.62,10.114-3.351,10.239-3.1C10.377-2.824,10.646-2.662,11.047-2.611z"/>
			
				<radialGradient id="SVGID_12_" cx="-2581.833" cy="-11711.8379" r="2.7673" gradientTransform="matrix(0.1714 -0.3344 -0.3666 -0.1579 -3843.7607 -2712.6274)" gradientUnits="userSpaceOnUse">
				<stop  offset="0" style="stop-color:#8D5739"/>
				<stop  offset="1" style="stop-color:#5E3B29"/>
			</radialGradient>
			<path style="fill-rule:evenodd;clip-rule:evenodd;fill:url(#SVGID_12_);" d="M7.571-0.019c0.401,0.05,0.702-0.101,0.902-0.451
				c0.213-0.338,0.194-0.651-0.056-0.939C8.242-1.622,7.959-1.703,7.571-1.653C7.208-1.616,6.97-1.497,6.857-1.296
				C6.695-1.008,6.676-0.739,6.801-0.488C6.926-0.226,7.183-0.069,7.571-0.019z"/>
			
				<radialGradient id="SVGID_13_" cx="-2638.6426" cy="-11994.4043" r="2.9128" gradientTransform="matrix(0.1629 -0.3386 -0.3483 -0.158 -3741.4092 -2790.8521)" gradientUnits="userSpaceOnUse">
				<stop  offset="0" style="stop-color:#8D5739"/>
				<stop  offset="1" style="stop-color:#5E3B29"/>
			</radialGradient>
			<path style="fill-rule:evenodd;clip-rule:evenodd;fill:url(#SVGID_13_);" d="M6.651-1.259c0.388,0.05,0.689-0.106,0.902-0.47
				c0.213-0.375,0.194-0.714-0.056-1.014C7.309-2.956,7.02-3.038,6.632-2.987C6.269-2.95,6.031-2.824,5.918-2.611
				C5.755-2.298,5.736-2.01,5.862-1.747C6-1.472,6.263-1.309,6.651-1.259z"/>
			
				<radialGradient id="SVGID_14_" cx="-2620.8242" cy="-11927.7393" r="2.8791" gradientTransform="matrix(0.1648 -0.3377 -0.3524 -0.1582 -3762.251 -2775.3779)" gradientUnits="userSpaceOnUse">
				<stop  offset="0" style="stop-color:#8D5739"/>
				<stop  offset="1" style="stop-color:#5E3B29"/>
			</radialGradient>
			<path style="fill-rule:evenodd;clip-rule:evenodd;fill:url(#SVGID_14_);" d="M9.188-2.161c0.388,0.05,0.688-0.106,0.901-0.47
				s0.194-0.695-0.056-0.996C9.845-3.839,9.557-3.92,9.168-3.87C8.805-3.833,8.567-3.708,8.455-3.495
				C8.292-3.194,8.273-2.912,8.398-2.649C8.536-2.374,8.799-2.21,9.188-2.161z"/>
			
				<radialGradient id="SVGID_15_" cx="-2577.208" cy="-11724.2871" r="2.7673" gradientTransform="matrix(0.1714 -0.3344 -0.3666 -0.1579 -3852.6318 -2716.4468)" gradientUnits="userSpaceOnUse">
				<stop  offset="0" style="stop-color:#8D5739"/>
				<stop  offset="1" style="stop-color:#5E3B29"/>
			</radialGradient>
			<path style="fill-rule:evenodd;clip-rule:evenodd;fill:url(#SVGID_15_);" d="M4.058-3.4c0.388,0.05,0.689-0.101,0.902-0.451
				c0.213-0.338,0.194-0.651-0.057-0.939C4.715-5.004,4.428-5.085,4.039-5.035C3.676-4.998,3.438-4.878,3.325-4.678
				C3.175-4.39,3.163-4.121,3.288-3.87C3.425-3.607,3.682-3.451,4.058-3.4z"/>
			
				<radialGradient id="SVGID_16_" cx="-2569.9053" cy="-11717.8584" r="2.7673" gradientTransform="matrix(0.1714 -0.3344 -0.3666 -0.1579 -3848.0508 -2714.4746)" gradientUnits="userSpaceOnUse">
				<stop  offset="0" style="stop-color:#8D5739"/>
				<stop  offset="1" style="stop-color:#5E3B29"/>
			</radialGradient>
			<path style="fill-rule:evenodd;clip-rule:evenodd;fill:url(#SVGID_16_);" d="M7.515-4.885c0.401,0.05,0.708-0.1,0.92-0.451
				C8.636-5.674,8.611-5.987,8.36-6.275C8.185-6.488,7.903-6.569,7.515-6.52C7.152-6.482,6.914-6.363,6.801-6.162
				c-0.15,0.288-0.169,0.557-0.057,0.808C6.883-5.091,7.139-4.935,7.515-4.885z"/>
			
				<radialGradient id="SVGID_17_" cx="-2565.0049" cy="-11711.2705" r="2.7673" gradientTransform="matrix(0.1714 -0.3344 -0.3666 -0.1579 -3843.3564 -2712.4536)" gradientUnits="userSpaceOnUse">
				<stop  offset="0" style="stop-color:#8D5739"/>
				<stop  offset="1" style="stop-color:#5E3B29"/>
			</radialGradient>
			<path style="fill-rule:evenodd;clip-rule:evenodd;fill:url(#SVGID_17_);" d="M10.653-5.561c0.4,0.05,0.701-0.101,0.902-0.451
				c0.213-0.338,0.194-0.651-0.057-0.939c-0.175-0.2-0.457-0.282-0.845-0.244c-0.376,0.05-0.614,0.169-0.714,0.357
				C9.776-6.551,9.757-6.281,9.882-6.031C10.008-5.768,10.265-5.611,10.653-5.561z"/>
			
				<radialGradient id="SVGID_18_" cx="-2572.1035" cy="-11725.5723" r="2.7656" gradientTransform="matrix(0.1714 -0.3344 -0.3666 -0.1579 -3853.5469 -2716.8413)" gradientUnits="userSpaceOnUse">
				<stop  offset="0" style="stop-color:#8D5739"/>
				<stop  offset="1" style="stop-color:#5E3B29"/>
			</radialGradient>
			<path style="fill-rule:evenodd;clip-rule:evenodd;fill:url(#SVGID_18_);" d="M4.49-5.298c0.401,0.05,0.702-0.1,0.902-0.451
				C5.605-6.087,5.586-6.4,5.336-6.688C5.16-6.901,4.878-6.983,4.49-6.933C4.114-6.895,3.876-6.776,3.776-6.576
				C3.613-6.288,3.595-6.019,3.72-5.768C3.845-5.505,4.102-5.348,4.49-5.298z"/>
			
				<radialGradient id="SVGID_19_" cx="-2577.1504" cy="-11733.4941" r="2.7673" gradientTransform="matrix(0.1714 -0.3344 -0.3666 -0.1579 -3859.1924 -2719.2715)" gradientUnits="userSpaceOnUse">
				<stop  offset="0" style="stop-color:#8D5739"/>
				<stop  offset="1" style="stop-color:#5E3B29"/>
			</radialGradient>
			<path style="fill-rule:evenodd;clip-rule:evenodd;fill:url(#SVGID_19_);" d="M0.883-4.81c0.388,0.05,0.689-0.101,0.902-0.451
				C1.998-5.599,1.979-5.912,1.729-6.2C1.553-6.413,1.271-6.494,0.883-6.444C0.507-6.407,0.263-6.288,0.15-6.087
				C0-5.799-0.013-5.53,0.112-5.279C0.25-5.016,0.507-4.86,0.883-4.81z"/>
			
				<radialGradient id="SVGID_20_" cx="-2580.4727" cy="-11720.7686" r="2.7673" gradientTransform="matrix(0.1714 -0.3344 -0.3666 -0.1579 -3850.124 -2715.3677)" gradientUnits="userSpaceOnUse">
				<stop  offset="0" style="stop-color:#8D5739"/>
				<stop  offset="1" style="stop-color:#5E3B29"/>
			</radialGradient>
			<path style="fill-rule:evenodd;clip-rule:evenodd;fill:url(#SVGID_20_);" d="M4.697-1.785c0.401,0.05,0.702-0.1,0.902-0.451
				c0.213-0.338,0.194-0.651-0.056-0.939C5.367-3.388,5.085-3.469,4.697-3.419C4.333-3.382,4.096-3.263,3.983-3.063
				C3.82-2.774,3.801-2.505,3.927-2.254C4.052-1.991,4.309-1.835,4.697-1.785z"/>
			
				<radialGradient id="SVGID_21_" cx="-2569.2607" cy="-11706.0664" r="2.7673" gradientTransform="matrix(0.1714 -0.3344 -0.3666 -0.1579 -3839.6484 -2710.8569)" gradientUnits="userSpaceOnUse">
				<stop  offset="0" style="stop-color:#8D5739"/>
				<stop  offset="1" style="stop-color:#5E3B29"/>
			</radialGradient>
			<path style="fill-rule:evenodd;clip-rule:evenodd;fill:url(#SVGID_21_);" d="M11.724-3.363c0.388,0.05,0.689-0.101,0.902-0.451
				c0.213-0.338,0.194-0.651-0.056-0.939c-0.188-0.2-0.476-0.282-0.865-0.244c-0.363,0.05-0.601,0.169-0.714,0.357
				c-0.163,0.301-0.182,0.57-0.056,0.808C11.072-3.57,11.335-3.413,11.724-3.363z"/>
			
				<radialGradient id="SVGID_22_" cx="-2611.2529" cy="-11934.2002" r="2.8791" gradientTransform="matrix(0.1648 -0.3377 -0.3524 -0.1582 -3766.7432 -2777.3955)" gradientUnits="userSpaceOnUse">
				<stop  offset="0" style="stop-color:#8D5739"/>
				<stop  offset="1" style="stop-color:#5E3B29"/>
			</radialGradient>
			<path style="fill-rule:evenodd;clip-rule:evenodd;fill:url(#SVGID_22_);" d="M8.548-6.388c0.401,0.05,0.702-0.106,0.902-0.47
				c0.213-0.363,0.194-0.689-0.056-0.977C9.218-8.06,8.937-8.147,8.548-8.098C8.185-8.06,7.947-7.935,7.834-7.722
				c-0.163,0.3-0.182,0.583-0.056,0.845C7.903-6.601,8.16-6.438,8.548-6.388z"/>
			
				<radialGradient id="SVGID_23_" cx="-2572.3291" cy="-11728.8389" r="2.9909" gradientTransform="matrix(0.1712 -0.3345 -0.3659 -0.157 -3846.1094 -2705.9028)" gradientUnits="userSpaceOnUse">
				<stop  offset="0" style="stop-color:#A66B49"/>
				<stop  offset="0.7412" style="stop-color:#865236"/>
				<stop  offset="1" style="stop-color:#663D29"/>
			</radialGradient>
			<path style="fill-rule:evenodd;clip-rule:evenodd;fill:url(#SVGID_23_);" d="M5.392-2.875c0.426,0.063,0.751-0.094,0.977-0.47
				c0.225-0.375,0.207-0.72-0.057-1.033c-0.2-0.226-0.507-0.313-0.92-0.263C4.991-4.59,4.728-4.459,4.603-4.246
				C4.44-3.933,4.421-3.645,4.546-3.382C4.697-3.094,4.979-2.924,5.392-2.875z"/>
			
				<radialGradient id="SVGID_24_" cx="-2568.8398" cy="-11739.1963" r="2.9909" gradientTransform="matrix(0.1712 -0.3345 -0.3659 -0.157 -3853.4844 -2709.0679)" gradientUnits="userSpaceOnUse">
				<stop  offset="0" style="stop-color:#A66B49"/>
				<stop  offset="0.7412" style="stop-color:#865236"/>
				<stop  offset="1" style="stop-color:#663D29"/>
			</radialGradient>
			<path style="fill-rule:evenodd;clip-rule:evenodd;fill:url(#SVGID_24_);" d="M2.405-5.561c0.426,0.05,0.751-0.113,0.977-0.489
				c0.226-0.375,0.207-0.72-0.057-1.033c-0.2-0.226-0.507-0.313-0.92-0.263c-0.401,0.05-0.664,0.182-0.789,0.395
				C1.44-6.638,1.421-6.35,1.559-6.087C1.709-5.799,1.991-5.624,2.405-5.561z"/>
			
				<radialGradient id="SVGID_25_" cx="-2568.1084" cy="-11723.3809" r="2.9909" gradientTransform="matrix(0.1712 -0.3345 -0.3659 -0.157 -3842.2236 -2704.2349)" gradientUnits="userSpaceOnUse">
				<stop  offset="0" style="stop-color:#A66B49"/>
				<stop  offset="0.7412" style="stop-color:#865236"/>
				<stop  offset="1" style="stop-color:#663D29"/>
			</radialGradient>
			<path style="fill-rule:evenodd;clip-rule:evenodd;fill:url(#SVGID_25_);" d="M8.003-3.476C8.429-3.413,8.755-3.57,8.98-3.945
				c0.226-0.376,0.2-0.72-0.075-1.033c-0.2-0.226-0.507-0.313-0.92-0.263C7.597-5.192,7.34-5.06,7.214-4.847
				C7.039-4.534,7.02-4.246,7.158-3.983C7.309-3.695,7.59-3.526,8.003-3.476z"/>
			
				<radialGradient id="SVGID_26_" cx="-2574.457" cy="-11721.4893" r="2.9909" gradientTransform="matrix(0.1712 -0.3345 -0.3659 -0.157 -3840.876 -2703.6567)" gradientUnits="userSpaceOnUse">
				<stop  offset="0" style="stop-color:#A66B49"/>
				<stop  offset="0.7412" style="stop-color:#865236"/>
				<stop  offset="1" style="stop-color:#663D29"/>
			</radialGradient>
			<path style="fill-rule:evenodd;clip-rule:evenodd;fill:url(#SVGID_26_);" d="M7.571-1.071c0.426,0.063,0.751-0.094,0.977-0.47
				s0.201-0.72-0.075-1.033C8.285-2.799,7.985-2.887,7.571-2.837c-0.4,0.05-0.664,0.182-0.789,0.395
				C6.607-2.129,6.588-1.841,6.726-1.578C6.876-1.29,7.158-1.121,7.571-1.071z"/>
			
				<radialGradient id="SVGID_27_" cx="-2564.3623" cy="-11732.3994" r="2.9909" gradientTransform="matrix(0.1712 -0.3345 -0.3659 -0.157 -3848.6445 -2706.9907)" gradientUnits="userSpaceOnUse">
				<stop  offset="0" style="stop-color:#A66B49"/>
				<stop  offset="0.7412" style="stop-color:#865236"/>
				<stop  offset="1" style="stop-color:#663D29"/>
			</radialGradient>
			<path style="fill-rule:evenodd;clip-rule:evenodd;fill:url(#SVGID_27_);" d="M5.523-6.068C5.949-6.019,6.275-6.181,6.5-6.557
				c0.226-0.375,0.207-0.714-0.056-1.014C6.244-7.797,5.937-7.885,5.523-7.834c-0.401,0.038-0.657,0.163-0.77,0.375
				C4.578-7.146,4.559-6.857,4.697-6.594C4.834-6.306,5.11-6.131,5.523-6.068z"/>
			
				<radialGradient id="SVGID_28_" cx="-2673.0693" cy="-12134.748" r="1.5715" gradientTransform="matrix(0.1584 -0.3407 -0.3407 -0.1584 -3703.9629 -2834.6123)" gradientUnits="userSpaceOnUse">
				<stop  offset="0" style="stop-color:#A66B49"/>
				<stop  offset="1" style="stop-color:#804E33"/>
			</radialGradient>
			<path style="fill-rule:evenodd;clip-rule:evenodd;fill:url(#SVGID_28_);" d="M7.29-1.259c0.213,0.075,0.388,0.094,0.526,0.056
				C7.941-1.24,8.003-1.321,8.003-1.447c0-0.15-0.056-0.275-0.169-0.375c-0.15-0.15-0.363-0.219-0.639-0.207
				C6.92-2.017,6.826-1.897,6.914-1.672C6.989-1.472,7.114-1.334,7.29-1.259z"/>
			
				<radialGradient id="SVGID_29_" cx="-2667.8379" cy="-12152.7676" r="1.3366" gradientTransform="matrix(0.1581 -0.3409 -0.3409 -0.1581 -3716.0498 -2834.7637)" gradientUnits="userSpaceOnUse">
				<stop  offset="0" style="stop-color:#A66B49"/>
				<stop  offset="1" style="stop-color:#804E33"/>
			</radialGradient>
			<path style="fill-rule:evenodd;clip-rule:evenodd;fill:url(#SVGID_29_);" d="M4.791-3.4C4.866-3.538,4.91-3.682,4.922-3.833
				C4.935-4.021,4.897-4.146,4.81-4.208C4.697-4.284,4.59-4.24,4.49-4.077c-0.113,0.138-0.169,0.294-0.169,0.47
				c0,0.15,0.063,0.251,0.188,0.301C4.634-3.244,4.728-3.275,4.791-3.4z"/>
			
				<radialGradient id="SVGID_30_" cx="-2685.6436" cy="-12085.9648" r="1.644" gradientTransform="matrix(0.16 -0.34 -0.34 -0.16 -3671.8311 -2850.5708)" gradientUnits="userSpaceOnUse">
				<stop  offset="0" style="stop-color:#A66B49"/>
				<stop  offset="1" style="stop-color:#804E33"/>
			</radialGradient>
			<path style="fill-rule:evenodd;clip-rule:evenodd;fill:url(#SVGID_30_);" d="M7.44-3.513C7.916-3.3,8.198-3.338,8.285-3.626
				c0.075-0.301-0.1-0.526-0.526-0.676C7.409-4.428,7.227-4.346,7.214-4.058S7.277-3.588,7.44-3.513z"/>
			
				<radialGradient id="SVGID_31_" cx="-2665.2529" cy="-12109.9756" r="1.4763" gradientTransform="matrix(0.1591 -0.3404 -0.3404 -0.1591 -3687.5508 -2839.9692)" gradientUnits="userSpaceOnUse">
				<stop  offset="0" style="stop-color:#A66B49"/>
				<stop  offset="1" style="stop-color:#804E33"/>
			</radialGradient>
			<path style="fill-rule:evenodd;clip-rule:evenodd;fill:url(#SVGID_31_);" d="M11.047-5.88c0.175-0.013,0.313-0.082,0.413-0.207
				C11.548-6.212,11.58-6.35,11.555-6.5c-0.1-0.351-0.326-0.426-0.676-0.226c-0.188,0.1-0.245,0.27-0.169,0.507
				C10.784-5.993,10.897-5.88,11.047-5.88z"/>
			
				<radialGradient id="SVGID_32_" cx="-2658.1387" cy="-12120.1699" r="1.3925" gradientTransform="matrix(0.1585 -0.3407 -0.3407 -0.1585 -3694.1152 -2832.4092)" gradientUnits="userSpaceOnUse">
				<stop  offset="0" style="stop-color:#A66B49"/>
				<stop  offset="1" style="stop-color:#804E33"/>
			</radialGradient>
			<path style="fill-rule:evenodd;clip-rule:evenodd;fill:url(#SVGID_32_);" d="M13.452-5.11c0.238-0.012,0.438-0.094,0.601-0.244
				c0.15-0.15,0.188-0.27,0.113-0.357c-0.138-0.15-0.401-0.119-0.789,0.094c-0.175,0.101-0.238,0.213-0.188,0.338
				C13.239-5.167,13.327-5.11,13.452-5.11z"/>
			
				<radialGradient id="SVGID_33_" cx="-2693.2324" cy="-12093.6973" r="1.2022" gradientTransform="matrix(0.1602 -0.3399 -0.3399 -0.1602 -3677.2109 -2856.7822)" gradientUnits="userSpaceOnUse">
				<stop  offset="0" style="stop-color:#A66B49"/>
				<stop  offset="1" style="stop-color:#804E33"/>
			</radialGradient>
			<path style="fill-rule:evenodd;clip-rule:evenodd;fill:url(#SVGID_33_);" d="M2.085-3.983C2.323-3.858,2.48-3.82,2.555-3.87
				c0.063-0.05,0.063-0.138,0-0.263c-0.037-0.1-0.131-0.188-0.282-0.263C2.135-4.471,2.01-4.515,1.897-4.528
				S1.753-4.471,1.803-4.321C1.854-4.171,1.947-4.058,2.085-3.983z"/>
			
				<radialGradient id="SVGID_34_" cx="-2671.4785" cy="-12157.748" r="1.3646" gradientTransform="matrix(0.1583 -0.3408 -0.3408 -0.1583 -3719.5859 -2840.4131)" gradientUnits="userSpaceOnUse">
				<stop  offset="0" style="stop-color:#A66B49"/>
				<stop  offset="1" style="stop-color:#804E33"/>
			</radialGradient>
			<path style="fill-rule:evenodd;clip-rule:evenodd;fill:url(#SVGID_34_);" d="M0.507-4.772c0.188,0.025,0.332,0,0.432-0.075
				c0.112-0.075,0.15-0.188,0.112-0.338c-0.037-0.125-0.163-0.2-0.375-0.225c-0.25,0-0.432,0-0.545,0
				C-0.032-5.436-0.05-5.342,0.075-5.129C0.2-4.916,0.344-4.797,0.507-4.772z"/>
			
				<radialGradient id="SVGID_35_" cx="-2673.7666" cy="-12131.1807" r="1.682" gradientTransform="matrix(0.1591 -0.3404 -0.3404 -0.1591 -3701.9736 -2846.2905)" gradientUnits="userSpaceOnUse">
				<stop  offset="0" style="stop-color:#A66B49"/>
				<stop  offset="1" style="stop-color:#804E33"/>
			</radialGradient>
			<path style="fill-rule:evenodd;clip-rule:evenodd;fill:url(#SVGID_35_);" d="M2.687-6.144c0.401,0.075,0.595-0.088,0.583-0.488
				C3.244-7.033,3.043-7.215,2.668-7.177C2.33-7.127,2.179-6.952,2.217-6.651S2.411-6.181,2.687-6.144z"/>
			
				<radialGradient id="SVGID_36_" cx="-2683.4443" cy="-12062.9668" r="1.5488" gradientTransform="matrix(0.1607 -0.3397 -0.3397 -0.1607 -3656.6719 -2857.6685)" gradientUnits="userSpaceOnUse">
				<stop  offset="0" style="stop-color:#A66B49"/>
				<stop  offset="1" style="stop-color:#804E33"/>
			</radialGradient>
			<path style="fill-rule:evenodd;clip-rule:evenodd;fill:url(#SVGID_36_);" d="M9.356-7.027c0.188,0.025,0.301,0.013,0.338-0.037
				c0.038-0.063,0.031-0.213-0.019-0.451C9.613-7.753,9.513-7.916,9.375-8.003C9.237-8.091,9.106-8.073,8.98-7.947
				C8.868-7.822,8.855-7.646,8.943-7.421C9.031-7.183,9.168-7.052,9.356-7.027z"/>
			
				<radialGradient id="SVGID_37_" cx="-2678.0137" cy="-12100.585" r="1.5322" gradientTransform="matrix(0.1594 -0.3403 -0.3403 -0.1594 -3681.3828 -2843.5156)" gradientUnits="userSpaceOnUse">
				<stop  offset="0" style="stop-color:#A66B49"/>
				<stop  offset="1" style="stop-color:#804E33"/>
			</radialGradient>
			<path style="fill-rule:evenodd;clip-rule:evenodd;fill:url(#SVGID_37_);" d="M9.168-3.025C9.657-2.95,9.876-3.087,9.826-3.438
				c-0.05-0.376-0.245-0.533-0.583-0.47C8.968-3.858,8.83-3.701,8.83-3.438C8.83-3.188,8.943-3.05,9.168-3.025z"/>
			
				<radialGradient id="SVGID_38_" cx="-2675.8926" cy="-12127.2012" r="1.0066" gradientTransform="matrix(0.1586 -0.3406 -0.3406 -0.1586 -3698.9844 -2836.9038)" gradientUnits="userSpaceOnUse">
				<stop  offset="0" style="stop-color:#804E33"/>
				<stop  offset="1" style="stop-color:#704630"/>
			</radialGradient>
			<path style="fill-rule:evenodd;clip-rule:evenodd;fill:url(#SVGID_38_);" d="M7.29-1.353c0.376,0.1,0.551,0.082,0.526-0.057
				c-0.012-0.075-0.063-0.15-0.15-0.225c-0.113-0.088-0.25-0.132-0.414-0.132c-0.175,0-0.244,0.057-0.207,0.169
				C7.083-1.472,7.165-1.39,7.29-1.353z"/>
			
				<radialGradient id="SVGID_39_" cx="-2654.8125" cy="-12188.0605" r="0.688" gradientTransform="matrix(0.157 -0.3414 -0.3414 -0.157 -3739.3389 -2823.9268)" gradientUnits="userSpaceOnUse">
				<stop  offset="0" style="stop-color:#804E33"/>
				<stop  offset="1" style="stop-color:#704630"/>
			</radialGradient>
			<path style="fill-rule:evenodd;clip-rule:evenodd;fill:url(#SVGID_39_);" d="M4.434-3.588c-0.025,0.1-0.006,0.119,0.057,0.056
				c0.063-0.075,0.094-0.182,0.094-0.319c0-0.163-0.012-0.231-0.038-0.207C4.509-4.021,4.471-3.864,4.434-3.588z"/>
			
				<radialGradient id="SVGID_40_" cx="-2694.6396" cy="-12089.9951" r="0.7325" gradientTransform="matrix(0.1603 -0.3399 -0.3399 -0.1603 -3674.7705 -2857.9907)" gradientUnits="userSpaceOnUse">
				<stop  offset="0" style="stop-color:#804E33"/>
				<stop  offset="1" style="stop-color:#704630"/>
			</radialGradient>
			<path style="fill-rule:evenodd;clip-rule:evenodd;fill:url(#SVGID_40_);" d="M2.273-3.964c0.125,0.012,0.15-0.044,0.075-0.169
				C2.261-4.246,2.135-4.315,1.973-4.34C1.797-4.353,1.772-4.296,1.897-4.171C2.022-4.033,2.148-3.964,2.273-3.964z"/>
			
				<radialGradient id="SVGID_41_" cx="-2678.1543" cy="-12139.7949" r="0.8276" gradientTransform="matrix(0.1589 -0.3405 -0.3405 -0.1589 -3707.7383 -2845.9878)" gradientUnits="userSpaceOnUse">
				<stop  offset="0" style="stop-color:#804E33"/>
				<stop  offset="1" style="stop-color:#704630"/>
			</radialGradient>
			<path style="fill-rule:evenodd;clip-rule:evenodd;fill:url(#SVGID_41_);" d="M0.526-4.847c0.163,0,0.25-0.056,0.263-0.169
				c0.012-0.088-0.038-0.15-0.15-0.188C0.513-5.242,0.382-5.229,0.244-5.167C0.119-5.104,0.106-5.035,0.207-4.96
				C0.294-4.885,0.401-4.847,0.526-4.847z"/>
			
				<radialGradient id="SVGID_42_" cx="-2689.668" cy="-12086.4805" r="0.9953" gradientTransform="matrix(0.1605 -0.3398 -0.3398 -0.1605 -3672.4736 -2859.7559)" gradientUnits="userSpaceOnUse">
				<stop  offset="0" style="stop-color:#A66B49"/>
				<stop  offset="0.7412" style="stop-color:#865236"/>
				<stop  offset="1" style="stop-color:#663D29"/>
			</radialGradient>
			<path style="fill-rule:evenodd;clip-rule:evenodd;fill:url(#SVGID_42_);" d="M2.855-6.313C2.994-6.325,3.075-6.369,3.1-6.444
				c0.012-0.025,0.012-0.106,0-0.244C3.087-6.801,3.024-6.883,2.912-6.933c-0.125-0.05-0.244-0.031-0.357,0.056
				c-0.1,0.075-0.106,0.194-0.019,0.357C2.636-6.369,2.743-6.3,2.855-6.313z"/>
			
				<radialGradient id="SVGID_43_" cx="-2681.4102" cy="-12067.0781" r="0.7604" gradientTransform="matrix(0.1606 -0.3397 -0.3397 -0.1606 -3659.3789 -2856.3096)" gradientUnits="userSpaceOnUse">
				<stop  offset="0" style="stop-color:#804E33"/>
				<stop  offset="1" style="stop-color:#704630"/>
			</radialGradient>
			<path style="fill-rule:evenodd;clip-rule:evenodd;fill:url(#SVGID_43_);" d="M9.601-7.327c-0.025-0.201-0.094-0.357-0.207-0.47
				c-0.1-0.113-0.15-0.088-0.15,0.075c0,0.125,0.063,0.238,0.188,0.338C9.544-7.296,9.601-7.277,9.601-7.327z"/>
			
				<radialGradient id="SVGID_44_" cx="-2672.8145" cy="-12088.417" r="0.9115" gradientTransform="matrix(0.1598 -0.3401 -0.3401 -0.1598 -3673.334 -2846.4302)" gradientUnits="userSpaceOnUse">
				<stop  offset="0" style="stop-color:#804E33"/>
				<stop  offset="1" style="stop-color:#704630"/>
			</radialGradient>
			<path style="fill-rule:evenodd;clip-rule:evenodd;fill:url(#SVGID_44_);" d="M11.197-6.031c0.176-0.075,0.238-0.201,0.188-0.376
				c-0.025-0.113-0.075-0.188-0.15-0.225c-0.1-0.025-0.188,0.031-0.263,0.169c-0.075,0.138-0.082,0.257-0.019,0.357
				C11.016-6.019,11.097-5.993,11.197-6.031z"/>
			
				<radialGradient id="SVGID_45_" cx="-2675.1426" cy="-12073.2793" r="0.7046" gradientTransform="matrix(0.16 -0.34 -0.34 -0.16 -3663.2051 -2846.5107)" gradientUnits="userSpaceOnUse">
				<stop  offset="0" style="stop-color:#804E33"/>
				<stop  offset="1" style="stop-color:#704630"/>
			</radialGradient>
			<path style="fill-rule:evenodd;clip-rule:evenodd;fill:url(#SVGID_45_);" d="M13.734-5.204c0.201-0.113,0.282-0.201,0.245-0.263
				c-0.05-0.038-0.213,0.019-0.489,0.169c-0.088,0.05-0.094,0.094-0.019,0.132C13.559-5.142,13.646-5.154,13.734-5.204z"/>
			
				<radialGradient id="SVGID_46_" cx="-2675.4541" cy="-12106.9395" r="0.8556" gradientTransform="matrix(0.1592 -0.3404 -0.3404 -0.1592 -3685.5703 -2841.5122)" gradientUnits="userSpaceOnUse">
				<stop  offset="0" style="stop-color:#804E33"/>
				<stop  offset="1" style="stop-color:#704630"/>
			</radialGradient>
			<path style="fill-rule:evenodd;clip-rule:evenodd;fill:url(#SVGID_46_);" d="M9.337-3.212C9.488-3.25,9.582-3.282,9.62-3.307
				c0.038-0.038,0.031-0.1-0.019-0.188C9.438-3.732,9.288-3.776,9.15-3.626c-0.088,0.1-0.101,0.2-0.038,0.301
				C9.175-3.225,9.25-3.188,9.337-3.212z"/>
			
				<radialGradient id="SVGID_47_" cx="-2690.9434" cy="-12071.502" r="0.9953" gradientTransform="matrix(0.1605 -0.3398 -0.3398 -0.1605 -3662.2949 -2854.9492)" gradientUnits="userSpaceOnUse">
				<stop  offset="0" style="stop-color:#804E33"/>
				<stop  offset="1" style="stop-color:#704630"/>
			</radialGradient>
			<path style="fill-rule:evenodd;clip-rule:evenodd;fill:url(#SVGID_47_);" d="M7.741-3.513c0.163-0.013,0.256-0.038,0.282-0.075
				c0.025-0.025,0.006-0.088-0.056-0.188C7.903-3.889,7.784-3.971,7.609-4.021c-0.175-0.063-0.263-0.05-0.263,0.038
				c-0.012,0.1,0.025,0.2,0.113,0.301C7.559-3.57,7.653-3.513,7.741-3.513z"/>
		</g>
		<g>
			
				<radialGradient id="SVGID_48_" cx="-2816.6289" cy="-11710.7061" r="14.0098" gradientTransform="matrix(0.1717 -0.3343 -0.3343 -0.1717 -3424.6436 -2959.2559)" gradientUnits="userSpaceOnUse">
				<stop  offset="0" style="stop-color:#523729"/>
				<stop  offset="1" style="stop-color:#473125"/>
			</radialGradient>
			<path style="fill-rule:evenodd;clip-rule:evenodd;fill:url(#SVGID_48_);" d="M9.074-5.991C9.275-6.104,9.35-6.26,9.3-6.46
				C9.25-6.711,9.244-6.868,9.281-6.93c0.087-0.113,0.363-0.238,0.827-0.376c0.539-0.15,0.827-0.238,0.864-0.263
				c0.113-0.063,0.326-0.37,0.639-0.92c0.313-0.526,0.489-0.789,0.526-0.789c0.15,0,0.307-0.082,0.47-0.244
				c0.213-0.213,0.27-0.495,0.169-0.846c-0.088-0.351-0.332-0.52-0.733-0.507l-0.583,0.113c-0.15,0.05-0.313,0.075-0.488,0.075
				c-0.363,0.012-0.626-0.088-0.789-0.301c-0.175-0.238-0.57-0.357-1.184-0.357c-0.539,0-0.958,0.075-1.259,0.226
				c-0.188,0.087-0.432,0.069-0.733-0.057c-0.351-0.138-0.632-0.194-0.846-0.169c-0.125,0.013-0.463,0.144-1.014,0.395
				c-0.426,0.188-0.802,0.226-1.127,0.113c-0.338-0.113-0.764-0.069-1.278,0.131c-0.451,0.238-0.701,0.37-0.751,0.395
				c-0.075,0.025-0.181,0.138-0.319,0.338c-0.138,0.2-0.194,0.326-0.169,0.376c0.012,0.025,0.25,0.2,0.714,0.526
				c0.338,0.25,0.871,0.514,1.597,0.789c0.15,0.063,0.426,0.163,0.827,0.301c0.363,0.15,0.614,0.294,0.751,0.432
				C6.507-6.561,7.139-5.903,7.29-5.578C7.841-5.49,8.436-5.628,9.074-5.991z"/>
			
				<radialGradient id="SVGID_49_" cx="-2577.4385" cy="-11690.5186" r="2.84" gradientTransform="matrix(0.172 -0.3341 -0.3655 -0.1571 -3820.6523 -2703.4243)" gradientUnits="userSpaceOnUse">
				<stop  offset="0" style="stop-color:#7D4E35"/>
				<stop  offset="1" style="stop-color:#593826"/>
			</radialGradient>
			<path style="fill-rule:evenodd;clip-rule:evenodd;fill:url(#SVGID_49_);" d="M9.056-4.958c0.401,0.05,0.708-0.106,0.92-0.47
				c0.213-0.363,0.194-0.689-0.056-0.977C9.732-6.617,9.438-6.699,9.037-6.648c-0.375,0.038-0.62,0.163-0.732,0.375
				C8.141-5.985,8.123-5.709,8.248-5.446C8.386-5.183,8.655-5.021,9.056-4.958z"/>
			
				<radialGradient id="SVGID_50_" cx="-2577.0342" cy="-11699.8408" r="2.84" gradientTransform="matrix(0.172 -0.3341 -0.3655 -0.1571 -3827.2852 -2706.2759)" gradientUnits="userSpaceOnUse">
				<stop  offset="0" style="stop-color:#7D4E35"/>
				<stop  offset="1" style="stop-color:#593826"/>
			</radialGradient>
			<path style="fill-rule:evenodd;clip-rule:evenodd;fill:url(#SVGID_50_);" d="M5.88-6.499c0.414,0.05,0.727-0.1,0.939-0.451
				c0.213-0.363,0.194-0.689-0.056-0.977C6.576-8.139,6.281-8.227,5.88-8.189c-0.375,0.05-0.62,0.176-0.732,0.376
				C4.985-7.513,4.966-7.237,5.091-6.987C5.229-6.711,5.492-6.548,5.88-6.499z"/>
			
				<radialGradient id="SVGID_51_" cx="-2576.7754" cy="-11709.7383" r="2.8416" gradientTransform="matrix(0.172 -0.3341 -0.3655 -0.1571 -3834.3281 -2709.3032)" gradientUnits="userSpaceOnUse">
				<stop  offset="0" style="stop-color:#7D4E35"/>
				<stop  offset="1" style="stop-color:#593826"/>
			</radialGradient>
			<path style="fill-rule:evenodd;clip-rule:evenodd;fill:url(#SVGID_51_);" d="M2.518-8.039c0.413,0.05,0.726-0.106,0.939-0.47
				C3.67-8.859,3.651-9.185,3.4-9.486C3.212-9.699,2.918-9.78,2.518-9.73c-0.376,0.038-0.62,0.163-0.733,0.376
				C1.622-9.066,1.603-8.791,1.729-8.527C1.866-8.265,2.129-8.102,2.518-8.039z"/>
			
				<radialGradient id="SVGID_52_" cx="-2572.3584" cy="-11703.3594" r="2.84" gradientTransform="matrix(0.172 -0.3341 -0.3655 -0.1571 -3829.7891 -2707.3521)" gradientUnits="userSpaceOnUse">
				<stop  offset="0" style="stop-color:#7D4E35"/>
				<stop  offset="1" style="stop-color:#593826"/>
			</radialGradient>
			<path style="fill-rule:evenodd;clip-rule:evenodd;fill:url(#SVGID_52_);" d="M5.467-8.565c0.413,0.05,0.727-0.1,0.939-0.451
				C6.62-9.379,6.601-9.705,6.35-9.993c-0.188-0.213-0.482-0.301-0.883-0.263c-0.376,0.05-0.62,0.175-0.733,0.375
				C4.572-9.58,4.553-9.304,4.678-9.053C4.816-8.778,5.079-8.615,5.467-8.565z"/>
			
				<radialGradient id="SVGID_53_" cx="-2567.1299" cy="-11701.3428" r="2.84" gradientTransform="matrix(0.172 -0.3341 -0.3655 -0.1571 -3828.3545 -2706.7354)" gradientUnits="userSpaceOnUse">
				<stop  offset="0" style="stop-color:#7D4E35"/>
				<stop  offset="1" style="stop-color:#593826"/>
			</radialGradient>
			<path style="fill-rule:evenodd;clip-rule:evenodd;fill:url(#SVGID_53_);" d="M7.083-10.012c0.414,0.05,0.727-0.106,0.939-0.47
				c0.213-0.351,0.188-0.67-0.075-0.958c-0.188-0.213-0.482-0.301-0.883-0.263c-0.375,0.05-0.62,0.175-0.732,0.376
				c-0.15,0.3-0.163,0.576-0.038,0.827C6.432-10.225,6.695-10.062,7.083-10.012z"/>
			
				<radialGradient id="SVGID_54_" cx="-2573.8301" cy="-11695.2979" r="2.84" gradientTransform="matrix(0.172 -0.3341 -0.3655 -0.1571 -3824.0527 -2704.8862)" gradientUnits="userSpaceOnUse">
				<stop  offset="0" style="stop-color:#7D4E35"/>
				<stop  offset="1" style="stop-color:#593826"/>
			</radialGradient>
			<path style="fill-rule:evenodd;clip-rule:evenodd;fill:url(#SVGID_54_);" d="M8.003-6.874c0.414,0.05,0.727-0.106,0.939-0.47
				c0.213-0.351,0.194-0.67-0.056-0.958C8.699-8.515,8.404-8.603,8.003-8.565c-0.375,0.038-0.62,0.163-0.732,0.375
				C7.108-7.901,7.089-7.625,7.214-7.362C7.353-7.1,7.615-6.937,8.003-6.874z"/>
			
				<radialGradient id="SVGID_55_" cx="-2568.5762" cy="-11693.7295" r="2.84" gradientTransform="matrix(0.172 -0.3341 -0.3655 -0.1571 -3822.9365 -2704.4063)" gradientUnits="userSpaceOnUse">
				<stop  offset="0" style="stop-color:#7D4E35"/>
				<stop  offset="1" style="stop-color:#593826"/>
			</radialGradient>
			<path style="fill-rule:evenodd;clip-rule:evenodd;fill:url(#SVGID_55_);" d="M9.469-8.415c0.4,0.05,0.708-0.101,0.92-0.451
				c0.213-0.363,0.194-0.689-0.056-0.977c-0.188-0.213-0.482-0.3-0.883-0.263C9.074-10.056,8.83-9.93,8.718-9.73
				C8.555-9.429,8.536-9.154,8.661-8.903C8.799-8.627,9.068-8.465,9.469-8.415z"/>
			
				<radialGradient id="SVGID_56_" cx="-2566.1953" cy="-11688.8857" r="2.84" gradientTransform="matrix(0.172 -0.3341 -0.3655 -0.1571 -3819.4902 -2702.9248)" gradientUnits="userSpaceOnUse">
				<stop  offset="0" style="stop-color:#7D4E35"/>
				<stop  offset="1" style="stop-color:#593826"/>
			</radialGradient>
			<path style="fill-rule:evenodd;clip-rule:evenodd;fill:url(#SVGID_56_);" d="M11.555-8.49c0.413,0.05,0.726-0.101,0.939-0.451
				c0.213-0.363,0.194-0.689-0.057-0.977c-0.188-0.212-0.482-0.3-0.883-0.263c-0.376,0.05-0.62,0.175-0.733,0.375
				c-0.163,0.301-0.182,0.576-0.056,0.827C10.903-8.703,11.167-8.54,11.555-8.49z"/>
			
				<radialGradient id="SVGID_57_" cx="-2561.9658" cy="-11685.8301" r="2.84" gradientTransform="matrix(0.172 -0.3341 -0.3655 -0.1571 -3817.3164 -2701.9902)" gradientUnits="userSpaceOnUse">
				<stop  offset="0" style="stop-color:#7D4E35"/>
				<stop  offset="1" style="stop-color:#593826"/>
			</radialGradient>
			<path style="fill-rule:evenodd;clip-rule:evenodd;fill:url(#SVGID_57_);" d="M13.321-9.429c0.413,0.05,0.726-0.1,0.939-0.451
				c0.213-0.363,0.194-0.689-0.057-0.977c-0.188-0.212-0.482-0.3-0.883-0.263c-0.376,0.05-0.62,0.175-0.733,0.376
				c-0.163,0.3-0.182,0.576-0.056,0.826C12.669-9.642,12.932-9.479,13.321-9.429z"/>
			
				<radialGradient id="SVGID_58_" cx="-2570.9658" cy="-11687.9805" r="2.84" gradientTransform="matrix(0.172 -0.3341 -0.3655 -0.1571 -3818.8457 -2702.6479)" gradientUnits="userSpaceOnUse">
				<stop  offset="0" style="stop-color:#7D4E35"/>
				<stop  offset="1" style="stop-color:#593826"/>
			</radialGradient>
			<path style="fill-rule:evenodd;clip-rule:evenodd;fill:url(#SVGID_58_);" d="M11.047-6.761c0.401,0.063,0.708-0.088,0.92-0.451
				s0.194-0.689-0.056-0.977c-0.188-0.213-0.482-0.294-0.883-0.244c-0.375,0.038-0.62,0.163-0.732,0.376
				C10.133-7.77,10.114-7.5,10.239-7.25C10.377-6.974,10.646-6.812,11.047-6.761z"/>
			
				<radialGradient id="SVGID_59_" cx="-2581.833" cy="-11711.8379" r="2.7673" gradientTransform="matrix(0.1714 -0.3344 -0.3666 -0.1579 -3843.7607 -2716.7778)" gradientUnits="userSpaceOnUse">
				<stop  offset="0" style="stop-color:#8D5739"/>
				<stop  offset="1" style="stop-color:#5E3B29"/>
			</radialGradient>
			<path style="fill-rule:evenodd;clip-rule:evenodd;fill:url(#SVGID_59_);" d="M7.571-4.168c0.401,0.05,0.702-0.101,0.902-0.451
				c0.213-0.338,0.194-0.651-0.056-0.939C8.242-5.772,7.959-5.853,7.571-5.803C7.208-5.766,6.97-5.646,6.857-5.446
				C6.695-5.158,6.676-4.889,6.801-4.638C6.926-4.375,7.183-4.219,7.571-4.168z"/>
			
				<radialGradient id="SVGID_60_" cx="-2638.6426" cy="-11994.4043" r="2.9128" gradientTransform="matrix(0.1629 -0.3386 -0.3483 -0.158 -3741.4092 -2795.0024)" gradientUnits="userSpaceOnUse">
				<stop  offset="0" style="stop-color:#8D5739"/>
				<stop  offset="1" style="stop-color:#5E3B29"/>
			</radialGradient>
			<path style="fill-rule:evenodd;clip-rule:evenodd;fill:url(#SVGID_60_);" d="M6.651-5.409c0.388,0.05,0.689-0.106,0.902-0.47
				c0.213-0.375,0.194-0.714-0.056-1.014C7.309-7.106,7.02-7.188,6.632-7.137C6.269-7.1,6.031-6.974,5.918-6.761
				C5.755-6.448,5.736-6.16,5.862-5.897C6-5.622,6.263-5.458,6.651-5.409z"/>
			
				<radialGradient id="SVGID_61_" cx="-2620.8242" cy="-11927.7393" r="2.8791" gradientTransform="matrix(0.1648 -0.3377 -0.3524 -0.1582 -3762.251 -2779.5273)" gradientUnits="userSpaceOnUse">
				<stop  offset="0" style="stop-color:#8D5739"/>
				<stop  offset="1" style="stop-color:#5E3B29"/>
			</radialGradient>
			<path style="fill-rule:evenodd;clip-rule:evenodd;fill:url(#SVGID_61_);" d="M9.188-6.311c0.388,0.05,0.688-0.106,0.901-0.47
				s0.194-0.695-0.056-0.996C9.845-7.989,9.557-8.07,9.168-8.02C8.805-7.982,8.567-7.857,8.455-7.645
				C8.292-7.344,8.273-7.062,8.398-6.799C8.536-6.523,8.799-6.36,9.188-6.311z"/>
			
				<radialGradient id="SVGID_62_" cx="-2577.208" cy="-11724.2871" r="2.7673" gradientTransform="matrix(0.1714 -0.3344 -0.3666 -0.1579 -3852.6318 -2720.5972)" gradientUnits="userSpaceOnUse">
				<stop  offset="0" style="stop-color:#8D5739"/>
				<stop  offset="1" style="stop-color:#5E3B29"/>
			</radialGradient>
			<path style="fill-rule:evenodd;clip-rule:evenodd;fill:url(#SVGID_62_);" d="M4.058-7.55C4.446-7.5,4.747-7.651,4.96-8.001
				c0.213-0.338,0.194-0.651-0.057-0.939C4.715-9.154,4.428-9.235,4.039-9.185C3.676-9.147,3.438-9.028,3.325-8.828
				C3.175-8.54,3.163-8.271,3.288-8.02C3.425-7.757,3.682-7.601,4.058-7.55z"/>
			
				<radialGradient id="SVGID_63_" cx="-2569.9053" cy="-11717.8584" r="2.7673" gradientTransform="matrix(0.1714 -0.3344 -0.3666 -0.1579 -3848.0508 -2718.625)" gradientUnits="userSpaceOnUse">
				<stop  offset="0" style="stop-color:#8D5739"/>
				<stop  offset="1" style="stop-color:#5E3B29"/>
			</radialGradient>
			<path style="fill-rule:evenodd;clip-rule:evenodd;fill:url(#SVGID_63_);" d="M7.515-9.035c0.401,0.05,0.708-0.1,0.92-0.451
				c0.201-0.338,0.175-0.651-0.075-0.939c-0.175-0.212-0.457-0.294-0.845-0.244c-0.363,0.038-0.602,0.157-0.714,0.357
				c-0.15,0.288-0.169,0.557-0.057,0.808C6.883-9.241,7.139-9.085,7.515-9.035z"/>
			
				<radialGradient id="SVGID_64_" cx="-2565.0049" cy="-11711.2705" r="2.7673" gradientTransform="matrix(0.1714 -0.3344 -0.3666 -0.1579 -3843.3564 -2716.604)" gradientUnits="userSpaceOnUse">
				<stop  offset="0" style="stop-color:#8D5739"/>
				<stop  offset="1" style="stop-color:#5E3B29"/>
			</radialGradient>
			<path style="fill-rule:evenodd;clip-rule:evenodd;fill:url(#SVGID_64_);" d="M10.653-9.711c0.4,0.05,0.701-0.101,0.902-0.451
				c0.213-0.338,0.194-0.651-0.057-0.939c-0.175-0.2-0.457-0.282-0.845-0.244c-0.376,0.05-0.614,0.169-0.714,0.357
				c-0.163,0.288-0.182,0.558-0.057,0.808C10.008-9.918,10.265-9.761,10.653-9.711z"/>
			
				<radialGradient id="SVGID_65_" cx="-2572.1035" cy="-11725.5723" r="2.7656" gradientTransform="matrix(0.1714 -0.3344 -0.3666 -0.1579 -3853.5469 -2720.9917)" gradientUnits="userSpaceOnUse">
				<stop  offset="0" style="stop-color:#8D5739"/>
				<stop  offset="1" style="stop-color:#5E3B29"/>
			</radialGradient>
			<path style="fill-rule:evenodd;clip-rule:evenodd;fill:url(#SVGID_65_);" d="M4.49-9.448c0.401,0.05,0.702-0.1,0.902-0.451
				c0.213-0.338,0.194-0.651-0.056-0.939c-0.176-0.213-0.458-0.294-0.846-0.244c-0.376,0.038-0.614,0.157-0.714,0.357
				c-0.163,0.288-0.182,0.557-0.057,0.808C3.845-9.655,4.102-9.498,4.49-9.448z"/>
			
				<radialGradient id="SVGID_66_" cx="-2577.1504" cy="-11733.4941" r="2.7673" gradientTransform="matrix(0.1714 -0.3344 -0.3666 -0.1579 -3859.1924 -2723.4219)" gradientUnits="userSpaceOnUse">
				<stop  offset="0" style="stop-color:#8D5739"/>
				<stop  offset="1" style="stop-color:#5E3B29"/>
			</radialGradient>
			<path style="fill-rule:evenodd;clip-rule:evenodd;fill:url(#SVGID_66_);" d="M0.883-8.959c0.388,0.05,0.689-0.101,0.902-0.451
				c0.213-0.338,0.194-0.651-0.056-0.939c-0.176-0.213-0.458-0.294-0.846-0.244c-0.375,0.038-0.62,0.157-0.733,0.357
				C0-9.949-0.013-9.68,0.112-9.429C0.25-9.166,0.507-9.01,0.883-8.959z"/>
			
				<radialGradient id="SVGID_67_" cx="-2580.4727" cy="-11720.7686" r="2.7673" gradientTransform="matrix(0.1714 -0.3344 -0.3666 -0.1579 -3850.124 -2719.5181)" gradientUnits="userSpaceOnUse">
				<stop  offset="0" style="stop-color:#8D5739"/>
				<stop  offset="1" style="stop-color:#5E3B29"/>
			</radialGradient>
			<path style="fill-rule:evenodd;clip-rule:evenodd;fill:url(#SVGID_67_);" d="M4.697-5.935c0.401,0.05,0.702-0.1,0.902-0.451
				c0.213-0.338,0.194-0.651-0.056-0.939C5.367-7.538,5.085-7.619,4.697-7.569C4.333-7.532,4.096-7.413,3.983-7.212
				C3.82-6.924,3.801-6.655,3.927-6.404C4.052-6.141,4.309-5.985,4.697-5.935z"/>
			
				<radialGradient id="SVGID_68_" cx="-2569.2607" cy="-11706.0664" r="2.7673" gradientTransform="matrix(0.1714 -0.3344 -0.3666 -0.1579 -3839.6484 -2715.0073)" gradientUnits="userSpaceOnUse">
				<stop  offset="0" style="stop-color:#8D5739"/>
				<stop  offset="1" style="stop-color:#5E3B29"/>
			</radialGradient>
			<path style="fill-rule:evenodd;clip-rule:evenodd;fill:url(#SVGID_68_);" d="M11.724-7.513c0.388,0.05,0.689-0.101,0.902-0.451
				c0.213-0.338,0.194-0.651-0.056-0.939c-0.188-0.2-0.476-0.282-0.865-0.244c-0.363,0.05-0.601,0.169-0.714,0.357
				c-0.163,0.301-0.182,0.57-0.056,0.808C11.072-7.72,11.335-7.563,11.724-7.513z"/>
			
				<radialGradient id="SVGID_69_" cx="-2611.2529" cy="-11934.2002" r="2.8791" gradientTransform="matrix(0.1648 -0.3377 -0.3524 -0.1582 -3766.7432 -2781.5449)" gradientUnits="userSpaceOnUse">
				<stop  offset="0" style="stop-color:#8D5739"/>
				<stop  offset="1" style="stop-color:#5E3B29"/>
			</radialGradient>
			<path style="fill-rule:evenodd;clip-rule:evenodd;fill:url(#SVGID_69_);" d="M8.548-10.538c0.401,0.05,0.702-0.106,0.902-0.47
				c0.213-0.363,0.194-0.689-0.056-0.977c-0.176-0.226-0.458-0.313-0.846-0.263c-0.363,0.038-0.601,0.163-0.714,0.376
				c-0.163,0.3-0.182,0.583-0.056,0.845C7.903-10.751,8.16-10.588,8.548-10.538z"/>
			
				<radialGradient id="SVGID_70_" cx="-2572.3291" cy="-11728.8389" r="2.9909" gradientTransform="matrix(0.1712 -0.3345 -0.3659 -0.157 -3846.1094 -2710.0532)" gradientUnits="userSpaceOnUse">
				<stop  offset="0" style="stop-color:#A66B49"/>
				<stop  offset="0.7412" style="stop-color:#865236"/>
				<stop  offset="1" style="stop-color:#663D29"/>
			</radialGradient>
			<path style="fill-rule:evenodd;clip-rule:evenodd;fill:url(#SVGID_70_);" d="M5.392-7.024c0.426,0.063,0.751-0.094,0.977-0.47
				c0.225-0.375,0.207-0.72-0.057-1.033c-0.2-0.226-0.507-0.313-0.92-0.263C4.991-8.74,4.728-8.609,4.603-8.396
				C4.44-8.083,4.421-7.795,4.546-7.532C4.697-7.244,4.979-7.074,5.392-7.024z"/>
			
				<radialGradient id="SVGID_71_" cx="-2568.8398" cy="-11739.1963" r="2.9909" gradientTransform="matrix(0.1712 -0.3345 -0.3659 -0.157 -3853.4844 -2713.2183)" gradientUnits="userSpaceOnUse">
				<stop  offset="0" style="stop-color:#A66B49"/>
				<stop  offset="0.7412" style="stop-color:#865236"/>
				<stop  offset="1" style="stop-color:#663D29"/>
			</radialGradient>
			<path style="fill-rule:evenodd;clip-rule:evenodd;fill:url(#SVGID_71_);" d="M2.405-9.711c0.426,0.05,0.751-0.113,0.977-0.489
				c0.226-0.375,0.207-0.72-0.057-1.033c-0.2-0.226-0.507-0.313-0.92-0.263c-0.401,0.05-0.664,0.182-0.789,0.395
				C1.44-10.788,1.421-10.5,1.559-10.237C1.709-9.949,1.991-9.774,2.405-9.711z"/>
			
				<radialGradient id="SVGID_72_" cx="-2568.1084" cy="-11723.3809" r="2.9909" gradientTransform="matrix(0.1712 -0.3345 -0.3659 -0.157 -3842.2236 -2708.3853)" gradientUnits="userSpaceOnUse">
				<stop  offset="0" style="stop-color:#A66B49"/>
				<stop  offset="0.7412" style="stop-color:#865236"/>
				<stop  offset="1" style="stop-color:#663D29"/>
			</radialGradient>
			<path style="fill-rule:evenodd;clip-rule:evenodd;fill:url(#SVGID_72_);" d="M8.003-7.625C8.429-7.563,8.755-7.72,8.98-8.095
				c0.226-0.376,0.2-0.72-0.075-1.033c-0.2-0.226-0.507-0.313-0.92-0.263C7.597-9.342,7.34-9.21,7.214-8.997
				C7.039-8.684,7.02-8.396,7.158-8.133C7.309-7.845,7.59-7.676,8.003-7.625z"/>
			
				<radialGradient id="SVGID_73_" cx="-2574.457" cy="-11721.4893" r="2.9909" gradientTransform="matrix(0.1712 -0.3345 -0.3659 -0.157 -3840.876 -2707.8071)" gradientUnits="userSpaceOnUse">
				<stop  offset="0" style="stop-color:#A66B49"/>
				<stop  offset="0.7412" style="stop-color:#865236"/>
				<stop  offset="1" style="stop-color:#663D29"/>
			</radialGradient>
			<path style="fill-rule:evenodd;clip-rule:evenodd;fill:url(#SVGID_73_);" d="M7.571-5.221c0.426,0.063,0.751-0.094,0.977-0.47
				s0.201-0.72-0.075-1.033C8.285-6.949,7.985-7.037,7.571-6.987c-0.4,0.05-0.664,0.182-0.789,0.395
				C6.607-6.279,6.588-5.991,6.726-5.728C6.876-5.44,7.158-5.271,7.571-5.221z"/>
			
				<radialGradient id="SVGID_74_" cx="-2564.3623" cy="-11732.3994" r="2.9909" gradientTransform="matrix(0.1712 -0.3345 -0.3659 -0.157 -3848.6445 -2711.1411)" gradientUnits="userSpaceOnUse">
				<stop  offset="0" style="stop-color:#A66B49"/>
				<stop  offset="0.7412" style="stop-color:#865236"/>
				<stop  offset="1" style="stop-color:#663D29"/>
			</radialGradient>
			<path style="fill-rule:evenodd;clip-rule:evenodd;fill:url(#SVGID_74_);" d="M5.523-10.218c0.426,0.05,0.751-0.113,0.977-0.489
				c0.226-0.375,0.207-0.714-0.056-1.014c-0.201-0.226-0.507-0.313-0.921-0.263c-0.401,0.038-0.657,0.163-0.77,0.375
				c-0.176,0.313-0.194,0.602-0.057,0.865C4.834-10.456,5.11-10.281,5.523-10.218z"/>
			
				<radialGradient id="SVGID_75_" cx="-2673.0693" cy="-12134.748" r="1.5715" gradientTransform="matrix(0.1584 -0.3407 -0.3407 -0.1584 -3703.9629 -2838.7627)" gradientUnits="userSpaceOnUse">
				<stop  offset="0" style="stop-color:#A66B49"/>
				<stop  offset="1" style="stop-color:#804E33"/>
			</radialGradient>
			<path style="fill-rule:evenodd;clip-rule:evenodd;fill:url(#SVGID_75_);" d="M7.29-5.409c0.213,0.075,0.388,0.094,0.526,0.056
				C7.941-5.39,8.003-5.471,8.003-5.597c0-0.15-0.056-0.275-0.169-0.375c-0.15-0.15-0.363-0.219-0.639-0.207
				C6.92-6.167,6.826-6.047,6.914-5.822C6.989-5.622,7.114-5.484,7.29-5.409z"/>
			
				<radialGradient id="SVGID_76_" cx="-2667.8379" cy="-12152.7676" r="1.3366" gradientTransform="matrix(0.1581 -0.3409 -0.3409 -0.1581 -3716.0498 -2838.9141)" gradientUnits="userSpaceOnUse">
				<stop  offset="0" style="stop-color:#A66B49"/>
				<stop  offset="1" style="stop-color:#804E33"/>
			</radialGradient>
			<path style="fill-rule:evenodd;clip-rule:evenodd;fill:url(#SVGID_76_);" d="M4.791-7.55C4.866-7.688,4.91-7.832,4.922-7.982
				C4.935-8.17,4.897-8.295,4.81-8.358C4.697-8.434,4.59-8.39,4.49-8.227c-0.113,0.138-0.169,0.294-0.169,0.47
				c0,0.15,0.063,0.251,0.188,0.301C4.634-7.394,4.728-7.425,4.791-7.55z"/>
			
				<radialGradient id="SVGID_77_" cx="-2685.6436" cy="-12085.9648" r="1.644" gradientTransform="matrix(0.16 -0.34 -0.34 -0.16 -3671.8311 -2854.7202)" gradientUnits="userSpaceOnUse">
				<stop  offset="0" style="stop-color:#A66B49"/>
				<stop  offset="1" style="stop-color:#804E33"/>
			</radialGradient>
			<path style="fill-rule:evenodd;clip-rule:evenodd;fill:url(#SVGID_77_);" d="M7.44-7.663C7.916-7.45,8.198-7.488,8.285-7.776
				c0.075-0.301-0.1-0.526-0.526-0.676C7.409-8.578,7.227-8.496,7.214-8.208S7.277-7.738,7.44-7.663z"/>
			
				<radialGradient id="SVGID_78_" cx="-2665.2529" cy="-12109.9756" r="1.4763" gradientTransform="matrix(0.1591 -0.3404 -0.3404 -0.1591 -3687.5508 -2844.1196)" gradientUnits="userSpaceOnUse">
				<stop  offset="0" style="stop-color:#A66B49"/>
				<stop  offset="1" style="stop-color:#804E33"/>
			</radialGradient>
			<path style="fill-rule:evenodd;clip-rule:evenodd;fill:url(#SVGID_78_);" d="M11.047-10.03c0.175-0.013,0.313-0.082,0.413-0.207
				c0.088-0.125,0.119-0.263,0.094-0.413c-0.1-0.351-0.326-0.426-0.676-0.226c-0.188,0.1-0.245,0.27-0.169,0.507
				C10.784-10.143,10.897-10.03,11.047-10.03z"/>
			
				<radialGradient id="SVGID_79_" cx="-2658.1387" cy="-12120.1699" r="1.3925" gradientTransform="matrix(0.1585 -0.3407 -0.3407 -0.1585 -3694.1152 -2836.5586)" gradientUnits="userSpaceOnUse">
				<stop  offset="0" style="stop-color:#A66B49"/>
				<stop  offset="1" style="stop-color:#804E33"/>
			</radialGradient>
			<path style="fill-rule:evenodd;clip-rule:evenodd;fill:url(#SVGID_79_);" d="M13.452-9.26c0.238-0.012,0.438-0.094,0.601-0.244
				c0.15-0.15,0.188-0.27,0.113-0.357c-0.138-0.15-0.401-0.119-0.789,0.094c-0.175,0.101-0.238,0.213-0.188,0.338
				C13.239-9.316,13.327-9.26,13.452-9.26z"/>
			
				<radialGradient id="SVGID_80_" cx="-2693.2324" cy="-12093.6973" r="1.2022" gradientTransform="matrix(0.1602 -0.3399 -0.3399 -0.1602 -3677.2109 -2860.9316)" gradientUnits="userSpaceOnUse">
				<stop  offset="0" style="stop-color:#A66B49"/>
				<stop  offset="1" style="stop-color:#804E33"/>
			</radialGradient>
			<path style="fill-rule:evenodd;clip-rule:evenodd;fill:url(#SVGID_80_);" d="M2.085-8.133C2.323-8.008,2.48-7.97,2.555-8.02
				c0.063-0.05,0.063-0.138,0-0.263c-0.037-0.1-0.131-0.188-0.282-0.263C2.135-8.621,2.01-8.665,1.897-8.678
				S1.753-8.621,1.803-8.471C1.854-8.321,1.947-8.208,2.085-8.133z"/>
			
				<radialGradient id="SVGID_81_" cx="-2671.4785" cy="-12157.748" r="1.3646" gradientTransform="matrix(0.1583 -0.3408 -0.3408 -0.1583 -3719.5859 -2844.5635)" gradientUnits="userSpaceOnUse">
				<stop  offset="0" style="stop-color:#A66B49"/>
				<stop  offset="1" style="stop-color:#804E33"/>
			</radialGradient>
			<path style="fill-rule:evenodd;clip-rule:evenodd;fill:url(#SVGID_81_);" d="M0.507-8.922c0.188,0.025,0.332,0,0.432-0.075
				c0.112-0.075,0.15-0.188,0.112-0.338c-0.037-0.125-0.163-0.2-0.375-0.225c-0.25,0-0.432,0-0.545,0
				C-0.032-9.586-0.05-9.492,0.075-9.279C0.2-9.066,0.344-8.947,0.507-8.922z"/>
			
				<radialGradient id="SVGID_82_" cx="-2673.7666" cy="-12131.1807" r="1.682" gradientTransform="matrix(0.1591 -0.3404 -0.3404 -0.1591 -3701.9736 -2850.4399)" gradientUnits="userSpaceOnUse">
				<stop  offset="0" style="stop-color:#A66B49"/>
				<stop  offset="1" style="stop-color:#804E33"/>
			</radialGradient>
			<path style="fill-rule:evenodd;clip-rule:evenodd;fill:url(#SVGID_82_);" d="M2.687-10.293c0.401,0.075,0.595-0.088,0.583-0.488
				c-0.025-0.401-0.226-0.583-0.601-0.545c-0.338,0.05-0.489,0.225-0.451,0.526S2.411-10.331,2.687-10.293z"/>
			
				<radialGradient id="SVGID_83_" cx="-2683.4443" cy="-12062.9668" r="1.5488" gradientTransform="matrix(0.1607 -0.3397 -0.3397 -0.1607 -3656.6719 -2861.8188)" gradientUnits="userSpaceOnUse">
				<stop  offset="0" style="stop-color:#A66B49"/>
				<stop  offset="1" style="stop-color:#804E33"/>
			</radialGradient>
			<path style="fill-rule:evenodd;clip-rule:evenodd;fill:url(#SVGID_83_);" d="M9.356-11.177c0.188,0.025,0.301,0.013,0.338-0.037
				c0.038-0.063,0.031-0.213-0.019-0.451c-0.063-0.238-0.163-0.401-0.301-0.488c-0.138-0.088-0.269-0.069-0.395,0.056
				c-0.113,0.125-0.125,0.301-0.038,0.526C9.031-11.333,9.168-11.202,9.356-11.177z"/>
			
				<radialGradient id="SVGID_84_" cx="-2678.0137" cy="-12100.585" r="1.5322" gradientTransform="matrix(0.1594 -0.3403 -0.3403 -0.1594 -3681.3828 -2847.665)" gradientUnits="userSpaceOnUse">
				<stop  offset="0" style="stop-color:#A66B49"/>
				<stop  offset="1" style="stop-color:#804E33"/>
			</radialGradient>
			<path style="fill-rule:evenodd;clip-rule:evenodd;fill:url(#SVGID_84_);" d="M9.168-7.175C9.657-7.1,9.876-7.237,9.826-7.588
				c-0.05-0.376-0.245-0.533-0.583-0.47C8.968-8.008,8.83-7.851,8.83-7.588C8.83-7.337,8.943-7.2,9.168-7.175z"/>
			
				<radialGradient id="SVGID_85_" cx="-2675.8926" cy="-12127.2012" r="1.0066" gradientTransform="matrix(0.1586 -0.3406 -0.3406 -0.1586 -3698.9844 -2841.0542)" gradientUnits="userSpaceOnUse">
				<stop  offset="0" style="stop-color:#804E33"/>
				<stop  offset="1" style="stop-color:#704630"/>
			</radialGradient>
			<path style="fill-rule:evenodd;clip-rule:evenodd;fill:url(#SVGID_85_);" d="M7.29-5.502c0.376,0.1,0.551,0.082,0.526-0.057
				c-0.012-0.075-0.063-0.15-0.15-0.225c-0.113-0.088-0.25-0.132-0.414-0.132c-0.175,0-0.244,0.057-0.207,0.169
				C7.083-5.622,7.165-5.54,7.29-5.502z"/>
			
				<radialGradient id="SVGID_86_" cx="-2654.8125" cy="-12188.0605" r="0.688" gradientTransform="matrix(0.157 -0.3414 -0.3414 -0.157 -3739.3389 -2828.0762)" gradientUnits="userSpaceOnUse">
				<stop  offset="0" style="stop-color:#804E33"/>
				<stop  offset="1" style="stop-color:#704630"/>
			</radialGradient>
			<path style="fill-rule:evenodd;clip-rule:evenodd;fill:url(#SVGID_86_);" d="M4.434-7.738c-0.025,0.1-0.006,0.119,0.057,0.056
				c0.063-0.075,0.094-0.182,0.094-0.319c0-0.163-0.012-0.231-0.038-0.207C4.509-8.17,4.471-8.014,4.434-7.738z"/>
			
				<radialGradient id="SVGID_87_" cx="-2694.6396" cy="-12089.9951" r="0.7325" gradientTransform="matrix(0.1603 -0.3399 -0.3399 -0.1603 -3674.7705 -2862.1401)" gradientUnits="userSpaceOnUse">
				<stop  offset="0" style="stop-color:#804E33"/>
				<stop  offset="1" style="stop-color:#704630"/>
			</radialGradient>
			<path style="fill-rule:evenodd;clip-rule:evenodd;fill:url(#SVGID_87_);" d="M2.273-8.114c0.125,0.012,0.15-0.044,0.075-0.169
				C2.261-8.396,2.135-8.465,1.973-8.49C1.797-8.502,1.772-8.446,1.897-8.321C2.022-8.183,2.148-8.114,2.273-8.114z"/>
			
				<radialGradient id="SVGID_88_" cx="-2678.1543" cy="-12139.7949" r="0.8276" gradientTransform="matrix(0.1589 -0.3405 -0.3405 -0.1589 -3707.7383 -2850.1372)" gradientUnits="userSpaceOnUse">
				<stop  offset="0" style="stop-color:#804E33"/>
				<stop  offset="1" style="stop-color:#704630"/>
			</radialGradient>
			<path style="fill-rule:evenodd;clip-rule:evenodd;fill:url(#SVGID_88_);" d="M0.526-8.997c0.163,0,0.25-0.056,0.263-0.169
				c0.012-0.088-0.038-0.15-0.15-0.188C0.513-9.392,0.382-9.379,0.244-9.316C0.119-9.254,0.106-9.185,0.207-9.11
				C0.294-9.035,0.401-8.997,0.526-8.997z"/>
			
				<radialGradient id="SVGID_89_" cx="-2689.668" cy="-12086.4805" r="0.9953" gradientTransform="matrix(0.1605 -0.3398 -0.3398 -0.1605 -3672.4736 -2863.9053)" gradientUnits="userSpaceOnUse">
				<stop  offset="0" style="stop-color:#A66B49"/>
				<stop  offset="0.7412" style="stop-color:#865236"/>
				<stop  offset="1" style="stop-color:#663D29"/>
			</radialGradient>
			<path style="fill-rule:evenodd;clip-rule:evenodd;fill:url(#SVGID_89_);" d="M2.855-10.462c0.138-0.013,0.219-0.057,0.245-0.132
				c0.012-0.025,0.012-0.106,0-0.244c-0.013-0.113-0.076-0.194-0.188-0.244c-0.125-0.05-0.244-0.031-0.357,0.056
				c-0.1,0.075-0.106,0.194-0.019,0.357C2.636-10.519,2.743-10.45,2.855-10.462z"/>
			
				<radialGradient id="SVGID_90_" cx="-2681.4102" cy="-12067.0781" r="0.7604" gradientTransform="matrix(0.1606 -0.3397 -0.3397 -0.1606 -3659.3789 -2860.46)" gradientUnits="userSpaceOnUse">
				<stop  offset="0" style="stop-color:#804E33"/>
				<stop  offset="1" style="stop-color:#704630"/>
			</radialGradient>
			<path style="fill-rule:evenodd;clip-rule:evenodd;fill:url(#SVGID_90_);" d="M9.601-11.477c-0.025-0.201-0.094-0.357-0.207-0.47
				c-0.1-0.113-0.15-0.088-0.15,0.075c0,0.125,0.063,0.238,0.188,0.338C9.544-11.446,9.601-11.427,9.601-11.477z"/>
			
				<radialGradient id="SVGID_91_" cx="-2672.8145" cy="-12088.417" r="0.9115" gradientTransform="matrix(0.1598 -0.3401 -0.3401 -0.1598 -3673.334 -2850.5796)" gradientUnits="userSpaceOnUse">
				<stop  offset="0" style="stop-color:#804E33"/>
				<stop  offset="1" style="stop-color:#704630"/>
			</radialGradient>
			<path style="fill-rule:evenodd;clip-rule:evenodd;fill:url(#SVGID_91_);" d="M11.197-10.181c0.176-0.075,0.238-0.201,0.188-0.376
				c-0.025-0.113-0.075-0.188-0.15-0.225c-0.1-0.025-0.188,0.031-0.263,0.169c-0.075,0.138-0.082,0.257-0.019,0.357
				C11.016-10.168,11.097-10.143,11.197-10.181z"/>
			
				<radialGradient id="SVGID_92_" cx="-2675.1426" cy="-12073.2793" r="0.7046" gradientTransform="matrix(0.16 -0.34 -0.34 -0.16 -3663.2051 -2850.6611)" gradientUnits="userSpaceOnUse">
				<stop  offset="0" style="stop-color:#804E33"/>
				<stop  offset="1" style="stop-color:#704630"/>
			</radialGradient>
			<path style="fill-rule:evenodd;clip-rule:evenodd;fill:url(#SVGID_92_);" d="M13.734-9.354c0.201-0.113,0.282-0.201,0.245-0.263
				c-0.05-0.038-0.213,0.019-0.489,0.169c-0.088,0.05-0.094,0.094-0.019,0.132C13.559-9.292,13.646-9.304,13.734-9.354z"/>
			
				<radialGradient id="SVGID_93_" cx="-2675.4541" cy="-12106.9395" r="0.8556" gradientTransform="matrix(0.1592 -0.3404 -0.3404 -0.1592 -3685.5703 -2845.6616)" gradientUnits="userSpaceOnUse">
				<stop  offset="0" style="stop-color:#804E33"/>
				<stop  offset="1" style="stop-color:#704630"/>
			</radialGradient>
			<path style="fill-rule:evenodd;clip-rule:evenodd;fill:url(#SVGID_93_);" d="M9.337-7.362C9.488-7.4,9.582-7.432,9.62-7.457
				c0.038-0.038,0.031-0.1-0.019-0.188C9.438-7.882,9.288-7.926,9.15-7.776c-0.088,0.1-0.101,0.2-0.038,0.301
				C9.175-7.375,9.25-7.337,9.337-7.362z"/>
			
				<radialGradient id="SVGID_94_" cx="-2690.9434" cy="-12071.502" r="0.9953" gradientTransform="matrix(0.1605 -0.3398 -0.3398 -0.1605 -3662.2949 -2859.0986)" gradientUnits="userSpaceOnUse">
				<stop  offset="0" style="stop-color:#804E33"/>
				<stop  offset="1" style="stop-color:#704630"/>
			</radialGradient>
			<path style="fill-rule:evenodd;clip-rule:evenodd;fill:url(#SVGID_94_);" d="M7.741-7.663c0.163-0.013,0.256-0.038,0.282-0.075
				c0.025-0.025,0.006-0.088-0.056-0.188C7.903-8.039,7.784-8.121,7.609-8.17c-0.175-0.063-0.263-0.05-0.263,0.038
				c-0.012,0.1,0.025,0.2,0.113,0.301C7.559-7.72,7.653-7.663,7.741-7.663z"/>
		</g>
		<g>
			
				<radialGradient id="SVGID_95_" cx="-2816.6289" cy="-11710.7061" r="14.0098" gradientTransform="matrix(0.1717 -0.3343 -0.3343 -0.1717 -3423.6436 -2957.6064)" gradientUnits="userSpaceOnUse">
				<stop  offset="0" style="stop-color:#523729"/>
				<stop  offset="1" style="stop-color:#473125"/>
			</radialGradient>
			<path style="fill-rule:evenodd;clip-rule:evenodd;fill:url(#SVGID_95_);" d="M10.074-4.341C10.275-4.454,10.35-4.61,10.3-4.811
				c-0.05-0.251-0.056-0.407-0.019-0.47c0.087-0.113,0.363-0.238,0.827-0.376c0.539-0.15,0.827-0.238,0.864-0.263
				c0.113-0.063,0.326-0.37,0.639-0.92c0.313-0.526,0.489-0.789,0.526-0.789c0.15,0,0.307-0.082,0.47-0.244
				c0.213-0.213,0.27-0.495,0.169-0.846c-0.088-0.351-0.332-0.52-0.733-0.507L12.46-9.113c-0.15,0.05-0.313,0.075-0.488,0.075
				c-0.363,0.012-0.626-0.088-0.789-0.301C11.008-9.577,10.613-9.696,10-9.696c-0.539,0-0.958,0.075-1.259,0.226
				C8.553-9.383,8.309-9.401,8.008-9.527C7.657-9.665,7.375-9.721,7.162-9.696C7.037-9.683,6.699-9.552,6.148-9.301
				C5.722-9.113,5.346-9.076,5.021-9.188C4.682-9.301,4.256-9.257,3.743-9.057c-0.451,0.238-0.701,0.37-0.751,0.395
				C2.916-8.637,2.81-8.524,2.672-8.324c-0.138,0.2-0.194,0.326-0.169,0.376c0.012,0.025,0.25,0.2,0.714,0.526
				c0.338,0.25,0.871,0.514,1.597,0.789c0.15,0.063,0.426,0.163,0.827,0.301C6.004-6.182,6.254-6.038,6.392-5.9
				C7.507-4.911,8.139-4.253,8.29-3.928C8.841-3.84,9.436-3.978,10.074-4.341z"/>
			
				<radialGradient id="SVGID_96_" cx="-2577.4385" cy="-11690.5186" r="2.84" gradientTransform="matrix(0.172 -0.3341 -0.3655 -0.1571 -3819.6523 -2701.7739)" gradientUnits="userSpaceOnUse">
				<stop  offset="0" style="stop-color:#7D4E35"/>
				<stop  offset="1" style="stop-color:#593826"/>
			</radialGradient>
			<path style="fill-rule:evenodd;clip-rule:evenodd;fill:url(#SVGID_96_);" d="M10.056-3.308c0.401,0.05,0.708-0.106,0.92-0.47
				c0.213-0.363,0.194-0.689-0.056-0.977c-0.188-0.213-0.482-0.294-0.883-0.244c-0.375,0.038-0.62,0.163-0.732,0.375
				C9.141-4.335,9.123-4.059,9.248-3.796C9.386-3.533,9.655-3.371,10.056-3.308z"/>
			
				<radialGradient id="SVGID_97_" cx="-2577.0342" cy="-11699.8408" r="2.84" gradientTransform="matrix(0.172 -0.3341 -0.3655 -0.1571 -3826.2852 -2704.6255)" gradientUnits="userSpaceOnUse">
				<stop  offset="0" style="stop-color:#7D4E35"/>
				<stop  offset="1" style="stop-color:#593826"/>
			</radialGradient>
			<path style="fill-rule:evenodd;clip-rule:evenodd;fill:url(#SVGID_97_);" d="M6.88-4.849c0.414,0.05,0.727-0.1,0.939-0.451
				c0.213-0.363,0.194-0.689-0.056-0.977C7.576-6.489,7.281-6.577,6.88-6.54c-0.375,0.05-0.62,0.176-0.732,0.376
				C5.985-5.863,5.966-5.587,6.091-5.337C6.229-5.062,6.492-4.898,6.88-4.849z"/>
			
				<radialGradient id="SVGID_98_" cx="-2576.7754" cy="-11709.7383" r="2.8416" gradientTransform="matrix(0.172 -0.3341 -0.3655 -0.1571 -3833.3281 -2707.6528)" gradientUnits="userSpaceOnUse">
				<stop  offset="0" style="stop-color:#7D4E35"/>
				<stop  offset="1" style="stop-color:#593826"/>
			</radialGradient>
			<path style="fill-rule:evenodd;clip-rule:evenodd;fill:url(#SVGID_98_);" d="M3.518-6.389c0.413,0.05,0.726-0.106,0.939-0.47
				C4.67-7.209,4.651-7.535,4.4-7.836C4.212-8.049,3.918-8.13,3.518-8.08c-0.376,0.038-0.62,0.163-0.733,0.376
				C2.622-7.416,2.603-7.141,2.729-6.877C2.866-6.615,3.129-6.452,3.518-6.389z"/>
			
				<radialGradient id="SVGID_99_" cx="-2572.3584" cy="-11703.3594" r="2.84" gradientTransform="matrix(0.172 -0.3341 -0.3655 -0.1571 -3828.7891 -2705.7017)" gradientUnits="userSpaceOnUse">
				<stop  offset="0" style="stop-color:#7D4E35"/>
				<stop  offset="1" style="stop-color:#593826"/>
			</radialGradient>
			<path style="fill-rule:evenodd;clip-rule:evenodd;fill:url(#SVGID_99_);" d="M6.467-6.915c0.413,0.05,0.727-0.1,0.939-0.451
				C7.62-7.729,7.601-8.055,7.35-8.343C7.162-8.556,6.868-8.644,6.467-8.606c-0.376,0.05-0.62,0.175-0.733,0.375
				C5.572-7.93,5.553-7.654,5.678-7.403C5.816-7.128,6.079-6.965,6.467-6.915z"/>
			
				<radialGradient id="SVGID_100_" cx="-2567.1299" cy="-11701.3428" r="2.84" gradientTransform="matrix(0.172 -0.3341 -0.3655 -0.1571 -3827.3545 -2705.085)" gradientUnits="userSpaceOnUse">
				<stop  offset="0" style="stop-color:#7D4E35"/>
				<stop  offset="1" style="stop-color:#593826"/>
			</radialGradient>
			<path style="fill-rule:evenodd;clip-rule:evenodd;fill:url(#SVGID_100_);" d="M8.083-8.362c0.414,0.05,0.727-0.106,0.939-0.47
				C9.235-9.182,9.21-9.501,8.947-9.79c-0.188-0.213-0.482-0.301-0.883-0.263c-0.375,0.05-0.62,0.175-0.732,0.376
				c-0.15,0.3-0.163,0.576-0.038,0.827C7.432-8.575,7.695-8.412,8.083-8.362z"/>
			
				<radialGradient id="SVGID_101_" cx="-2573.8301" cy="-11695.2979" r="2.84" gradientTransform="matrix(0.172 -0.3341 -0.3655 -0.1571 -3823.0527 -2703.2358)" gradientUnits="userSpaceOnUse">
				<stop  offset="0" style="stop-color:#7D4E35"/>
				<stop  offset="1" style="stop-color:#593826"/>
			</radialGradient>
			<path style="fill-rule:evenodd;clip-rule:evenodd;fill:url(#SVGID_101_);" d="M9.003-5.224c0.414,0.05,0.727-0.106,0.939-0.47
				c0.213-0.351,0.194-0.67-0.056-0.958C9.699-6.865,9.404-6.953,9.003-6.915C8.628-6.877,8.383-6.752,8.271-6.54
				C8.108-6.251,8.089-5.976,8.214-5.712C8.353-5.45,8.615-5.287,9.003-5.224z"/>
			
				<radialGradient id="SVGID_102_" cx="-2568.5762" cy="-11693.7295" r="2.84" gradientTransform="matrix(0.172 -0.3341 -0.3655 -0.1571 -3821.9365 -2702.7559)" gradientUnits="userSpaceOnUse">
				<stop  offset="0" style="stop-color:#7D4E35"/>
				<stop  offset="1" style="stop-color:#593826"/>
			</radialGradient>
			<path style="fill-rule:evenodd;clip-rule:evenodd;fill:url(#SVGID_102_);" d="M10.469-6.765c0.4,0.05,0.708-0.101,0.92-0.451
				c0.213-0.363,0.194-0.689-0.056-0.977c-0.188-0.213-0.482-0.3-0.883-0.263C10.074-8.406,9.83-8.28,9.718-8.08
				C9.555-7.779,9.536-7.504,9.661-7.253C9.799-6.978,10.068-6.815,10.469-6.765z"/>
			
				<radialGradient id="SVGID_103_" cx="-2566.1953" cy="-11688.8857" r="2.84" gradientTransform="matrix(0.172 -0.3341 -0.3655 -0.1571 -3818.4902 -2701.2744)" gradientUnits="userSpaceOnUse">
				<stop  offset="0" style="stop-color:#7D4E35"/>
				<stop  offset="1" style="stop-color:#593826"/>
			</radialGradient>
			<path style="fill-rule:evenodd;clip-rule:evenodd;fill:url(#SVGID_103_);" d="M12.555-6.84c0.413,0.05,0.726-0.101,0.939-0.451
				c0.213-0.363,0.194-0.689-0.057-0.977c-0.188-0.212-0.482-0.3-0.883-0.263c-0.376,0.05-0.62,0.175-0.733,0.375
				c-0.163,0.301-0.182,0.576-0.056,0.827C11.903-7.053,12.167-6.89,12.555-6.84z"/>
			
				<radialGradient id="SVGID_104_" cx="-2561.9658" cy="-11685.8301" r="2.84" gradientTransform="matrix(0.172 -0.3341 -0.3655 -0.1571 -3816.3164 -2700.3398)" gradientUnits="userSpaceOnUse">
				<stop  offset="0" style="stop-color:#7D4E35"/>
				<stop  offset="1" style="stop-color:#593826"/>
			</radialGradient>
			<path style="fill-rule:evenodd;clip-rule:evenodd;fill:url(#SVGID_104_);" d="M14.321-7.779c0.413,0.05,0.726-0.1,0.939-0.451
				c0.213-0.363,0.194-0.689-0.057-0.977c-0.188-0.212-0.482-0.3-0.883-0.263c-0.376,0.05-0.62,0.175-0.733,0.376
				c-0.163,0.3-0.182,0.576-0.056,0.826C13.669-7.992,13.932-7.83,14.321-7.779z"/>
			
				<radialGradient id="SVGID_105_" cx="-2570.9658" cy="-11687.9805" r="2.84" gradientTransform="matrix(0.172 -0.3341 -0.3655 -0.1571 -3817.8457 -2700.9976)" gradientUnits="userSpaceOnUse">
				<stop  offset="0" style="stop-color:#7D4E35"/>
				<stop  offset="1" style="stop-color:#593826"/>
			</radialGradient>
			<path style="fill-rule:evenodd;clip-rule:evenodd;fill:url(#SVGID_105_);" d="M12.047-5.111c0.401,0.063,0.708-0.088,0.92-0.451
				s0.194-0.689-0.056-0.977c-0.188-0.213-0.482-0.294-0.883-0.244c-0.375,0.038-0.62,0.163-0.732,0.376
				C11.133-6.12,11.114-5.851,11.239-5.6C11.377-5.324,11.646-5.162,12.047-5.111z"/>
			
				<radialGradient id="SVGID_106_" cx="-2581.833" cy="-11711.8379" r="2.7673" gradientTransform="matrix(0.1714 -0.3344 -0.3666 -0.1579 -3842.7607 -2715.1274)" gradientUnits="userSpaceOnUse">
				<stop  offset="0" style="stop-color:#8D5739"/>
				<stop  offset="1" style="stop-color:#5E3B29"/>
			</radialGradient>
			<path style="fill-rule:evenodd;clip-rule:evenodd;fill:url(#SVGID_106_);" d="M8.571-2.519c0.401,0.05,0.702-0.101,0.902-0.451
				c0.213-0.338,0.194-0.651-0.056-0.939C9.242-4.122,8.959-4.203,8.571-4.153C8.208-4.116,7.97-3.997,7.857-3.796
				C7.695-3.508,7.676-3.239,7.801-2.988C7.926-2.726,8.183-2.569,8.571-2.519z"/>
			
				<radialGradient id="SVGID_107_" cx="-2638.6426" cy="-11994.4043" r="2.9128" gradientTransform="matrix(0.1629 -0.3386 -0.3483 -0.158 -3740.4092 -2793.3521)" gradientUnits="userSpaceOnUse">
				<stop  offset="0" style="stop-color:#8D5739"/>
				<stop  offset="1" style="stop-color:#5E3B29"/>
			</radialGradient>
			<path style="fill-rule:evenodd;clip-rule:evenodd;fill:url(#SVGID_107_);" d="M7.651-3.759c0.388,0.05,0.689-0.106,0.902-0.47
				c0.213-0.375,0.194-0.714-0.056-1.014C8.309-5.456,8.02-5.538,7.632-5.487C7.269-5.45,7.031-5.324,6.918-5.111
				C6.755-4.798,6.736-4.51,6.862-4.247C7-3.972,7.263-3.809,7.651-3.759z"/>
			
				<radialGradient id="SVGID_108_" cx="-2620.8242" cy="-11927.7393" r="2.8791" gradientTransform="matrix(0.1648 -0.3377 -0.3524 -0.1582 -3761.251 -2777.8779)" gradientUnits="userSpaceOnUse">
				<stop  offset="0" style="stop-color:#8D5739"/>
				<stop  offset="1" style="stop-color:#5E3B29"/>
			</radialGradient>
			<path style="fill-rule:evenodd;clip-rule:evenodd;fill:url(#SVGID_108_);" d="M10.188-4.661c0.388,0.05,0.688-0.106,0.901-0.47
				s0.194-0.695-0.056-0.996c-0.188-0.213-0.476-0.294-0.864-0.244C9.805-6.333,9.567-6.208,9.455-5.995
				C9.292-5.694,9.273-5.412,9.398-5.149C9.536-4.874,9.799-4.71,10.188-4.661z"/>
			
				<radialGradient id="SVGID_109_" cx="-2577.208" cy="-11724.2871" r="2.7673" gradientTransform="matrix(0.1714 -0.3344 -0.3666 -0.1579 -3851.6318 -2718.9468)" gradientUnits="userSpaceOnUse">
				<stop  offset="0" style="stop-color:#8D5739"/>
				<stop  offset="1" style="stop-color:#5E3B29"/>
			</radialGradient>
			<path style="fill-rule:evenodd;clip-rule:evenodd;fill:url(#SVGID_109_);" d="M5.058-5.9c0.388,0.05,0.689-0.101,0.902-0.451
				c0.213-0.338,0.194-0.651-0.057-0.939C5.715-7.504,5.428-7.585,5.039-7.535C4.676-7.498,4.438-7.378,4.325-7.178
				C4.175-6.89,4.163-6.621,4.288-6.37C4.425-6.107,4.682-5.951,5.058-5.9z"/>
			
				<radialGradient id="SVGID_110_" cx="-2569.9053" cy="-11717.8584" r="2.7673" gradientTransform="matrix(0.1714 -0.3344 -0.3666 -0.1579 -3847.0508 -2716.9746)" gradientUnits="userSpaceOnUse">
				<stop  offset="0" style="stop-color:#8D5739"/>
				<stop  offset="1" style="stop-color:#5E3B29"/>
			</radialGradient>
			<path style="fill-rule:evenodd;clip-rule:evenodd;fill:url(#SVGID_110_);" d="M8.515-7.385c0.401,0.05,0.708-0.1,0.92-0.451
				C9.636-8.174,9.611-8.487,9.36-8.775C9.185-8.988,8.903-9.069,8.515-9.02C8.152-8.982,7.914-8.863,7.801-8.662
				c-0.15,0.288-0.169,0.557-0.057,0.808C7.883-7.591,8.139-7.435,8.515-7.385z"/>
			
				<radialGradient id="SVGID_111_" cx="-2565.0049" cy="-11711.2705" r="2.7673" gradientTransform="matrix(0.1714 -0.3344 -0.3666 -0.1579 -3842.3564 -2714.9536)" gradientUnits="userSpaceOnUse">
				<stop  offset="0" style="stop-color:#8D5739"/>
				<stop  offset="1" style="stop-color:#5E3B29"/>
			</radialGradient>
			<path style="fill-rule:evenodd;clip-rule:evenodd;fill:url(#SVGID_111_);" d="M11.653-8.061c0.4,0.05,0.701-0.101,0.902-0.451
				c0.213-0.338,0.194-0.651-0.057-0.939c-0.175-0.2-0.457-0.282-0.845-0.244c-0.376,0.05-0.614,0.169-0.714,0.357
				c-0.163,0.288-0.182,0.558-0.057,0.808C11.008-8.268,11.265-8.111,11.653-8.061z"/>
			
				<radialGradient id="SVGID_112_" cx="-2572.1035" cy="-11725.5723" r="2.7656" gradientTransform="matrix(0.1714 -0.3344 -0.3666 -0.1579 -3852.5469 -2719.3413)" gradientUnits="userSpaceOnUse">
				<stop  offset="0" style="stop-color:#8D5739"/>
				<stop  offset="1" style="stop-color:#5E3B29"/>
			</radialGradient>
			<path style="fill-rule:evenodd;clip-rule:evenodd;fill:url(#SVGID_112_);" d="M5.49-7.798c0.401,0.05,0.702-0.1,0.902-0.451
				C6.605-8.587,6.586-8.9,6.336-9.188C6.16-9.401,5.878-9.483,5.49-9.433C5.114-9.395,4.876-9.276,4.776-9.076
				C4.613-8.788,4.595-8.519,4.72-8.268C4.845-8.005,5.102-7.848,5.49-7.798z"/>
			
				<radialGradient id="SVGID_113_" cx="-2577.1504" cy="-11733.4941" r="2.7673" gradientTransform="matrix(0.1714 -0.3344 -0.3666 -0.1579 -3858.1924 -2721.7715)" gradientUnits="userSpaceOnUse">
				<stop  offset="0" style="stop-color:#8D5739"/>
				<stop  offset="1" style="stop-color:#5E3B29"/>
			</radialGradient>
			<path style="fill-rule:evenodd;clip-rule:evenodd;fill:url(#SVGID_113_);" d="M1.883-7.31c0.388,0.05,0.689-0.101,0.902-0.451
				C2.998-8.099,2.979-8.412,2.729-8.7C2.553-8.913,2.271-8.994,1.883-8.944C1.507-8.907,1.263-8.788,1.15-8.587
				C1-8.299,0.987-8.03,1.112-7.779C1.25-7.516,1.507-7.36,1.883-7.31z"/>
			
				<radialGradient id="SVGID_114_" cx="-2580.4727" cy="-11720.7686" r="2.7673" gradientTransform="matrix(0.1714 -0.3344 -0.3666 -0.1579 -3849.124 -2717.8677)" gradientUnits="userSpaceOnUse">
				<stop  offset="0" style="stop-color:#8D5739"/>
				<stop  offset="1" style="stop-color:#5E3B29"/>
			</radialGradient>
			<path style="fill-rule:evenodd;clip-rule:evenodd;fill:url(#SVGID_114_);" d="M5.697-4.285c0.401,0.05,0.702-0.1,0.902-0.451
				c0.213-0.338,0.194-0.651-0.056-0.939C6.367-5.888,6.085-5.969,5.697-5.919C5.333-5.882,5.096-5.763,4.983-5.563
				C4.82-5.274,4.801-5.005,4.927-4.754C5.052-4.491,5.309-4.335,5.697-4.285z"/>
			
				<radialGradient id="SVGID_115_" cx="-2569.2607" cy="-11706.0664" r="2.7673" gradientTransform="matrix(0.1714 -0.3344 -0.3666 -0.1579 -3838.6484 -2713.3569)" gradientUnits="userSpaceOnUse">
				<stop  offset="0" style="stop-color:#8D5739"/>
				<stop  offset="1" style="stop-color:#5E3B29"/>
			</radialGradient>
			<path style="fill-rule:evenodd;clip-rule:evenodd;fill:url(#SVGID_115_);" d="M12.724-5.863c0.388,0.05,0.689-0.101,0.902-0.451
				c0.213-0.338,0.194-0.651-0.056-0.939c-0.188-0.2-0.476-0.282-0.865-0.244c-0.363,0.05-0.601,0.169-0.714,0.357
				c-0.163,0.301-0.182,0.57-0.056,0.808C12.072-6.07,12.335-5.913,12.724-5.863z"/>
			
				<radialGradient id="SVGID_116_" cx="-2611.2529" cy="-11934.2002" r="2.8791" gradientTransform="matrix(0.1648 -0.3377 -0.3524 -0.1582 -3765.7432 -2779.8955)" gradientUnits="userSpaceOnUse">
				<stop  offset="0" style="stop-color:#8D5739"/>
				<stop  offset="1" style="stop-color:#5E3B29"/>
			</radialGradient>
			<path style="fill-rule:evenodd;clip-rule:evenodd;fill:url(#SVGID_116_);" d="M9.548-8.888c0.401,0.05,0.702-0.106,0.902-0.47
				c0.213-0.363,0.194-0.689-0.056-0.977c-0.176-0.226-0.458-0.313-0.846-0.263c-0.363,0.038-0.601,0.163-0.714,0.376
				c-0.163,0.3-0.182,0.583-0.056,0.845C8.903-9.101,9.16-8.938,9.548-8.888z"/>
			
				<radialGradient id="SVGID_117_" cx="-2572.3291" cy="-11728.8389" r="2.9909" gradientTransform="matrix(0.1712 -0.3345 -0.3659 -0.157 -3845.1094 -2708.4028)" gradientUnits="userSpaceOnUse">
				<stop  offset="0" style="stop-color:#A66B49"/>
				<stop  offset="0.7412" style="stop-color:#865236"/>
				<stop  offset="1" style="stop-color:#663D29"/>
			</radialGradient>
			<path style="fill-rule:evenodd;clip-rule:evenodd;fill:url(#SVGID_117_);" d="M6.392-5.375c0.426,0.063,0.751-0.094,0.977-0.47
				c0.225-0.375,0.207-0.72-0.057-1.033c-0.2-0.226-0.507-0.313-0.92-0.263C5.991-7.09,5.728-6.959,5.603-6.746
				C5.44-6.433,5.421-6.145,5.546-5.882C5.697-5.594,5.979-5.424,6.392-5.375z"/>
			
				<radialGradient id="SVGID_118_" cx="-2568.8398" cy="-11739.1963" r="2.9909" gradientTransform="matrix(0.1712 -0.3345 -0.3659 -0.157 -3852.4844 -2711.5679)" gradientUnits="userSpaceOnUse">
				<stop  offset="0" style="stop-color:#A66B49"/>
				<stop  offset="0.7412" style="stop-color:#865236"/>
				<stop  offset="1" style="stop-color:#663D29"/>
			</radialGradient>
			<path style="fill-rule:evenodd;clip-rule:evenodd;fill:url(#SVGID_118_);" d="M3.405-8.061c0.426,0.05,0.751-0.113,0.977-0.489
				c0.226-0.375,0.207-0.72-0.057-1.033c-0.2-0.226-0.507-0.313-0.92-0.263c-0.401,0.05-0.664,0.182-0.789,0.395
				C2.44-9.138,2.421-8.85,2.559-8.587C2.709-8.299,2.991-8.124,3.405-8.061z"/>
			
				<radialGradient id="SVGID_119_" cx="-2568.1084" cy="-11723.3809" r="2.9909" gradientTransform="matrix(0.1712 -0.3345 -0.3659 -0.157 -3841.2236 -2706.7349)" gradientUnits="userSpaceOnUse">
				<stop  offset="0" style="stop-color:#A66B49"/>
				<stop  offset="0.7412" style="stop-color:#865236"/>
				<stop  offset="1" style="stop-color:#663D29"/>
			</radialGradient>
			<path style="fill-rule:evenodd;clip-rule:evenodd;fill:url(#SVGID_119_);" d="M9.003-5.976C9.429-5.913,9.755-6.07,9.98-6.445
				c0.226-0.376,0.2-0.72-0.075-1.033c-0.2-0.226-0.507-0.313-0.92-0.263C8.597-7.692,8.34-7.56,8.214-7.347
				C8.039-7.034,8.02-6.746,8.158-6.483C8.309-6.195,8.59-6.026,9.003-5.976z"/>
			
				<radialGradient id="SVGID_120_" cx="-2574.457" cy="-11721.4893" r="2.9909" gradientTransform="matrix(0.1712 -0.3345 -0.3659 -0.157 -3839.876 -2706.1567)" gradientUnits="userSpaceOnUse">
				<stop  offset="0" style="stop-color:#A66B49"/>
				<stop  offset="0.7412" style="stop-color:#865236"/>
				<stop  offset="1" style="stop-color:#663D29"/>
			</radialGradient>
			<path style="fill-rule:evenodd;clip-rule:evenodd;fill:url(#SVGID_120_);" d="M8.571-3.571c0.426,0.063,0.751-0.094,0.977-0.47
				s0.201-0.72-0.075-1.033C9.285-5.299,8.985-5.387,8.571-5.337c-0.4,0.05-0.664,0.182-0.789,0.395
				C7.607-4.629,7.588-4.341,7.726-4.078C7.876-3.79,8.158-3.621,8.571-3.571z"/>
			
				<radialGradient id="SVGID_121_" cx="-2564.3623" cy="-11732.3994" r="2.9909" gradientTransform="matrix(0.1712 -0.3345 -0.3659 -0.157 -3847.6445 -2709.4907)" gradientUnits="userSpaceOnUse">
				<stop  offset="0" style="stop-color:#A66B49"/>
				<stop  offset="0.7412" style="stop-color:#865236"/>
				<stop  offset="1" style="stop-color:#663D29"/>
			</radialGradient>
			<path style="fill-rule:evenodd;clip-rule:evenodd;fill:url(#SVGID_121_);" d="M6.523-8.568C6.949-8.519,7.275-8.681,7.5-9.057
				c0.226-0.375,0.207-0.714-0.056-1.014c-0.201-0.226-0.507-0.313-0.921-0.263c-0.401,0.038-0.657,0.163-0.77,0.375
				C5.578-9.646,5.559-9.357,5.697-9.094C5.834-8.806,6.11-8.631,6.523-8.568z"/>
			
				<radialGradient id="SVGID_122_" cx="-2673.0693" cy="-12134.748" r="1.5715" gradientTransform="matrix(0.1584 -0.3407 -0.3407 -0.1584 -3702.9629 -2837.1123)" gradientUnits="userSpaceOnUse">
				<stop  offset="0" style="stop-color:#A66B49"/>
				<stop  offset="1" style="stop-color:#804E33"/>
			</radialGradient>
			<path style="fill-rule:evenodd;clip-rule:evenodd;fill:url(#SVGID_122_);" d="M8.29-3.759c0.213,0.075,0.388,0.094,0.526,0.056
				C8.941-3.74,9.003-3.821,9.003-3.947c0-0.15-0.056-0.275-0.169-0.375c-0.15-0.15-0.363-0.219-0.639-0.207
				C7.92-4.517,7.826-4.397,7.914-4.172C7.989-3.972,8.114-3.834,8.29-3.759z"/>
			
				<radialGradient id="SVGID_123_" cx="-2667.8379" cy="-12152.7676" r="1.3366" gradientTransform="matrix(0.1581 -0.3409 -0.3409 -0.1581 -3715.0498 -2837.2637)" gradientUnits="userSpaceOnUse">
				<stop  offset="0" style="stop-color:#A66B49"/>
				<stop  offset="1" style="stop-color:#804E33"/>
			</radialGradient>
			<path style="fill-rule:evenodd;clip-rule:evenodd;fill:url(#SVGID_123_);" d="M5.791-5.9C5.866-6.038,5.91-6.182,5.922-6.333
				C5.935-6.521,5.897-6.646,5.81-6.708C5.697-6.784,5.59-6.74,5.49-6.577c-0.113,0.138-0.169,0.294-0.169,0.47
				c0,0.15,0.063,0.251,0.188,0.301C5.634-5.744,5.728-5.775,5.791-5.9z"/>
			
				<radialGradient id="SVGID_124_" cx="-2685.6436" cy="-12085.9648" r="1.644" gradientTransform="matrix(0.16 -0.34 -0.34 -0.16 -3670.8311 -2853.0708)" gradientUnits="userSpaceOnUse">
				<stop  offset="0" style="stop-color:#A66B49"/>
				<stop  offset="1" style="stop-color:#804E33"/>
			</radialGradient>
			<path style="fill-rule:evenodd;clip-rule:evenodd;fill:url(#SVGID_124_);" d="M8.44-6.013C8.916-5.8,9.198-5.838,9.285-6.126
				c0.075-0.301-0.1-0.526-0.526-0.676C8.409-6.928,8.227-6.846,8.214-6.558S8.277-6.088,8.44-6.013z"/>
			
				<radialGradient id="SVGID_125_" cx="-2665.2529" cy="-12109.9756" r="1.4763" gradientTransform="matrix(0.1591 -0.3404 -0.3404 -0.1591 -3686.5508 -2842.4692)" gradientUnits="userSpaceOnUse">
				<stop  offset="0" style="stop-color:#A66B49"/>
				<stop  offset="1" style="stop-color:#804E33"/>
			</radialGradient>
			<path style="fill-rule:evenodd;clip-rule:evenodd;fill:url(#SVGID_125_);" d="M12.047-8.38c0.175-0.013,0.313-0.082,0.413-0.207
				C12.548-8.712,12.58-8.85,12.555-9c-0.1-0.351-0.326-0.426-0.676-0.226c-0.188,0.1-0.245,0.27-0.169,0.507
				C11.784-8.493,11.897-8.38,12.047-8.38z"/>
			
				<radialGradient id="SVGID_126_" cx="-2658.1387" cy="-12120.1699" r="1.3925" gradientTransform="matrix(0.1585 -0.3407 -0.3407 -0.1585 -3693.1152 -2834.9092)" gradientUnits="userSpaceOnUse">
				<stop  offset="0" style="stop-color:#A66B49"/>
				<stop  offset="1" style="stop-color:#804E33"/>
			</radialGradient>
			<path style="fill-rule:evenodd;clip-rule:evenodd;fill:url(#SVGID_126_);" d="M14.452-7.61c0.238-0.012,0.438-0.094,0.601-0.244
				c0.15-0.15,0.188-0.27,0.113-0.357c-0.138-0.15-0.401-0.119-0.789,0.094c-0.175,0.101-0.238,0.213-0.188,0.338
				C14.239-7.667,14.327-7.61,14.452-7.61z"/>
			
				<radialGradient id="SVGID_127_" cx="-2693.2324" cy="-12093.6973" r="1.2022" gradientTransform="matrix(0.1602 -0.3399 -0.3399 -0.1602 -3676.2109 -2859.2822)" gradientUnits="userSpaceOnUse">
				<stop  offset="0" style="stop-color:#A66B49"/>
				<stop  offset="1" style="stop-color:#804E33"/>
			</radialGradient>
			<path style="fill-rule:evenodd;clip-rule:evenodd;fill:url(#SVGID_127_);" d="M3.085-6.483C3.323-6.358,3.48-6.32,3.555-6.37
				c0.063-0.05,0.063-0.138,0-0.263c-0.037-0.1-0.131-0.188-0.282-0.263C3.135-6.971,3.01-7.015,2.897-7.028
				S2.753-6.971,2.803-6.821C2.854-6.671,2.947-6.558,3.085-6.483z"/>
			
				<radialGradient id="SVGID_128_" cx="-2671.4785" cy="-12157.748" r="1.3646" gradientTransform="matrix(0.1583 -0.3408 -0.3408 -0.1583 -3718.5859 -2842.9131)" gradientUnits="userSpaceOnUse">
				<stop  offset="0" style="stop-color:#A66B49"/>
				<stop  offset="1" style="stop-color:#804E33"/>
			</radialGradient>
			<path style="fill-rule:evenodd;clip-rule:evenodd;fill:url(#SVGID_128_);" d="M1.507-7.272c0.188,0.025,0.332,0,0.432-0.075
				c0.112-0.075,0.15-0.188,0.112-0.338c-0.037-0.125-0.163-0.2-0.375-0.225c-0.25,0-0.432,0-0.545,0
				C0.968-7.936,0.95-7.842,1.075-7.629C1.2-7.416,1.344-7.297,1.507-7.272z"/>
			
				<radialGradient id="SVGID_129_" cx="-2673.7666" cy="-12131.1807" r="1.682" gradientTransform="matrix(0.1591 -0.3404 -0.3404 -0.1591 -3700.9736 -2848.7905)" gradientUnits="userSpaceOnUse">
				<stop  offset="0" style="stop-color:#A66B49"/>
				<stop  offset="1" style="stop-color:#804E33"/>
			</radialGradient>
			<path style="fill-rule:evenodd;clip-rule:evenodd;fill:url(#SVGID_129_);" d="M3.687-8.644c0.401,0.075,0.595-0.088,0.583-0.488
				C4.244-9.533,4.043-9.715,3.668-9.677C3.33-9.627,3.179-9.452,3.217-9.151S3.411-8.681,3.687-8.644z"/>
			
				<radialGradient id="SVGID_130_" cx="-2683.4443" cy="-12062.9668" r="1.5488" gradientTransform="matrix(0.1607 -0.3397 -0.3397 -0.1607 -3655.6719 -2860.1685)" gradientUnits="userSpaceOnUse">
				<stop  offset="0" style="stop-color:#A66B49"/>
				<stop  offset="1" style="stop-color:#804E33"/>
			</radialGradient>
			<path style="fill-rule:evenodd;clip-rule:evenodd;fill:url(#SVGID_130_);" d="M10.356-9.527c0.188,0.025,0.301,0.013,0.338-0.037
				c0.038-0.063,0.031-0.213-0.019-0.451c-0.063-0.238-0.163-0.401-0.301-0.488c-0.138-0.088-0.269-0.069-0.395,0.056
				c-0.113,0.125-0.125,0.301-0.038,0.526C10.031-9.683,10.168-9.552,10.356-9.527z"/>
			
				<radialGradient id="SVGID_131_" cx="-2678.0137" cy="-12100.585" r="1.5322" gradientTransform="matrix(0.1594 -0.3403 -0.3403 -0.1594 -3680.3828 -2846.0156)" gradientUnits="userSpaceOnUse">
				<stop  offset="0" style="stop-color:#A66B49"/>
				<stop  offset="1" style="stop-color:#804E33"/>
			</radialGradient>
			<path style="fill-rule:evenodd;clip-rule:evenodd;fill:url(#SVGID_131_);" d="M10.168-5.525c0.489,0.075,0.708-0.063,0.658-0.413
				c-0.05-0.376-0.245-0.533-0.583-0.47C9.968-6.358,9.83-6.201,9.83-5.938C9.83-5.688,9.943-5.55,10.168-5.525z"/>
			
				<radialGradient id="SVGID_132_" cx="-2675.8926" cy="-12127.2012" r="1.0066" gradientTransform="matrix(0.1586 -0.3406 -0.3406 -0.1586 -3697.9844 -2839.4038)" gradientUnits="userSpaceOnUse">
				<stop  offset="0" style="stop-color:#804E33"/>
				<stop  offset="1" style="stop-color:#704630"/>
			</radialGradient>
			<path style="fill-rule:evenodd;clip-rule:evenodd;fill:url(#SVGID_132_);" d="M8.29-3.853c0.376,0.1,0.551,0.082,0.526-0.057
				c-0.012-0.075-0.063-0.15-0.15-0.225c-0.113-0.088-0.25-0.132-0.414-0.132c-0.175,0-0.244,0.057-0.207,0.169
				C8.083-3.972,8.165-3.89,8.29-3.853z"/>
			
				<radialGradient id="SVGID_133_" cx="-2654.8125" cy="-12188.0605" r="0.688" gradientTransform="matrix(0.157 -0.3414 -0.3414 -0.157 -3738.3389 -2826.4268)" gradientUnits="userSpaceOnUse">
				<stop  offset="0" style="stop-color:#804E33"/>
				<stop  offset="1" style="stop-color:#704630"/>
			</radialGradient>
			<path style="fill-rule:evenodd;clip-rule:evenodd;fill:url(#SVGID_133_);" d="M5.434-6.088c-0.025,0.1-0.006,0.119,0.057,0.056
				c0.063-0.075,0.094-0.182,0.094-0.319c0-0.163-0.012-0.231-0.038-0.207C5.509-6.521,5.471-6.364,5.434-6.088z"/>
			
				<radialGradient id="SVGID_134_" cx="-2694.6396" cy="-12089.9951" r="0.7325" gradientTransform="matrix(0.1603 -0.3399 -0.3399 -0.1603 -3673.7705 -2860.4907)" gradientUnits="userSpaceOnUse">
				<stop  offset="0" style="stop-color:#804E33"/>
				<stop  offset="1" style="stop-color:#704630"/>
			</radialGradient>
			<path style="fill-rule:evenodd;clip-rule:evenodd;fill:url(#SVGID_134_);" d="M3.273-6.464c0.125,0.012,0.15-0.044,0.075-0.169
				C3.261-6.746,3.135-6.815,2.973-6.84C2.797-6.853,2.772-6.796,2.897-6.671C3.022-6.533,3.148-6.464,3.273-6.464z"/>
			
				<radialGradient id="SVGID_135_" cx="-2678.1543" cy="-12139.7949" r="0.8276" gradientTransform="matrix(0.1589 -0.3405 -0.3405 -0.1589 -3706.7383 -2848.4878)" gradientUnits="userSpaceOnUse">
				<stop  offset="0" style="stop-color:#804E33"/>
				<stop  offset="1" style="stop-color:#704630"/>
			</radialGradient>
			<path style="fill-rule:evenodd;clip-rule:evenodd;fill:url(#SVGID_135_);" d="M1.526-7.347c0.163,0,0.25-0.056,0.263-0.169
				c0.012-0.088-0.038-0.15-0.15-0.188C1.513-7.742,1.382-7.729,1.244-7.667C1.119-7.604,1.106-7.535,1.207-7.46
				C1.294-7.385,1.401-7.347,1.526-7.347z"/>
			
				<radialGradient id="SVGID_136_" cx="-2689.668" cy="-12086.4805" r="0.9953" gradientTransform="matrix(0.1605 -0.3398 -0.3398 -0.1605 -3671.4736 -2862.2559)" gradientUnits="userSpaceOnUse">
				<stop  offset="0" style="stop-color:#A66B49"/>
				<stop  offset="0.7412" style="stop-color:#865236"/>
				<stop  offset="1" style="stop-color:#663D29"/>
			</radialGradient>
			<path style="fill-rule:evenodd;clip-rule:evenodd;fill:url(#SVGID_136_);" d="M3.855-8.813C3.994-8.825,4.075-8.869,4.1-8.944
				c0.012-0.025,0.012-0.106,0-0.244C4.087-9.301,4.024-9.383,3.912-9.433c-0.125-0.05-0.244-0.031-0.357,0.056
				c-0.1,0.075-0.106,0.194-0.019,0.357C3.636-8.869,3.743-8.8,3.855-8.813z"/>
			
				<radialGradient id="SVGID_137_" cx="-2681.4102" cy="-12067.0781" r="0.7604" gradientTransform="matrix(0.1606 -0.3397 -0.3397 -0.1606 -3658.3789 -2858.8096)" gradientUnits="userSpaceOnUse">
				<stop  offset="0" style="stop-color:#804E33"/>
				<stop  offset="1" style="stop-color:#704630"/>
			</radialGradient>
			<path style="fill-rule:evenodd;clip-rule:evenodd;fill:url(#SVGID_137_);" d="M10.601-9.827c-0.025-0.201-0.094-0.357-0.207-0.47
				c-0.1-0.113-0.15-0.088-0.15,0.075c0,0.125,0.063,0.238,0.188,0.338C10.544-9.796,10.601-9.777,10.601-9.827z"/>
			
				<radialGradient id="SVGID_138_" cx="-2672.8145" cy="-12088.417" r="0.9115" gradientTransform="matrix(0.1598 -0.3401 -0.3401 -0.1598 -3672.334 -2848.9302)" gradientUnits="userSpaceOnUse">
				<stop  offset="0" style="stop-color:#804E33"/>
				<stop  offset="1" style="stop-color:#704630"/>
			</radialGradient>
			<path style="fill-rule:evenodd;clip-rule:evenodd;fill:url(#SVGID_138_);" d="M12.197-8.531c0.176-0.075,0.238-0.201,0.188-0.376
				c-0.025-0.113-0.075-0.188-0.15-0.225c-0.1-0.025-0.188,0.031-0.263,0.169c-0.075,0.138-0.082,0.257-0.019,0.357
				C12.016-8.519,12.097-8.493,12.197-8.531z"/>
			
				<radialGradient id="SVGID_139_" cx="-2675.1426" cy="-12073.2793" r="0.7046" gradientTransform="matrix(0.16 -0.34 -0.34 -0.16 -3662.2051 -2849.0107)" gradientUnits="userSpaceOnUse">
				<stop  offset="0" style="stop-color:#804E33"/>
				<stop  offset="1" style="stop-color:#704630"/>
			</radialGradient>
			<path style="fill-rule:evenodd;clip-rule:evenodd;fill:url(#SVGID_139_);" d="M14.734-7.704c0.201-0.113,0.282-0.201,0.245-0.263
				c-0.05-0.038-0.213,0.019-0.489,0.169c-0.088,0.05-0.094,0.094-0.019,0.132C14.559-7.642,14.646-7.654,14.734-7.704z"/>
			
				<radialGradient id="SVGID_140_" cx="-2675.4541" cy="-12106.9395" r="0.8556" gradientTransform="matrix(0.1592 -0.3404 -0.3404 -0.1592 -3684.5703 -2844.0122)" gradientUnits="userSpaceOnUse">
				<stop  offset="0" style="stop-color:#804E33"/>
				<stop  offset="1" style="stop-color:#704630"/>
			</radialGradient>
			<path style="fill-rule:evenodd;clip-rule:evenodd;fill:url(#SVGID_140_);" d="M10.337-5.712c0.15-0.038,0.244-0.069,0.282-0.094
				c0.038-0.038,0.031-0.1-0.019-0.188c-0.163-0.238-0.313-0.282-0.451-0.131c-0.088,0.1-0.101,0.2-0.038,0.301
				C10.175-5.725,10.25-5.688,10.337-5.712z"/>
			
				<radialGradient id="SVGID_141_" cx="-2690.9434" cy="-12071.502" r="0.9953" gradientTransform="matrix(0.1605 -0.3398 -0.3398 -0.1605 -3661.2949 -2857.4492)" gradientUnits="userSpaceOnUse">
				<stop  offset="0" style="stop-color:#804E33"/>
				<stop  offset="1" style="stop-color:#704630"/>
			</radialGradient>
			<path style="fill-rule:evenodd;clip-rule:evenodd;fill:url(#SVGID_141_);" d="M8.741-6.013c0.163-0.013,0.256-0.038,0.282-0.075
				c0.025-0.025,0.006-0.088-0.056-0.188C8.903-6.389,8.784-6.471,8.609-6.521c-0.175-0.063-0.263-0.05-0.263,0.038
				c-0.012,0.1,0.025,0.2,0.113,0.301C8.559-6.07,8.653-6.013,8.741-6.013z"/>
		</g>
	</g>
</symbol>
<path style="fill-rule:evenodd;clip-rule:evenodd;fill:#E4E4E4;" d="M2.5,6.9l15.85,1.15c-0.366,5.767-0.783,9.884-1.25,12.351
	c-0.133,0.633-0.5,1.133-1.1,1.5c-0.267,0.466-2.65,0.55-7.15,0.25C4.317,21.85,1.9,21.4,1.6,20.8C1.2,19.967,1.5,15.333,2.5,6.9z"
	/>
<use xlink:href="#spice"  width="15.414" height="12.252" x="-0.007" y="-12.261" transform="matrix(1 0 0 -1 2 9)" style="overflow:visible;"/>
<use xlink:href="#flash0.ai_Assets_x2F_Isolation_Mode_x2F__x3C_Path_x3E__x5F_10"  width="3.056" height="14.352" x="-0.006" y="-14.352" transform="matrix(1 0 0 -1 15.2998 7.8999)" style="overflow:visible;opacity:0.6484;enable-background:new    ;"/>
<path style="fill-rule:evenodd;clip-rule:evenodd;fill:#8F8F8F;" d="M15.25,21.55l0.6,0.75c-2.166,0-4.366-0.05-6.6-0.149
	C6.983,22.083,4.433,21.634,1.6,20.8l-0.25-0.5c2.9,0.7,5.066,1.117,6.5,1.25C11.116,21.884,13.583,21.884,15.25,21.55z"/>
<use xlink:href="#flash0.ai_Assets_x2F_Isolation_Mode_x2F__x3C_Path_x3E__x5F_8"  width="14.5" height="10.6" y="-10.6" transform="matrix(1 0 0 -1 1.6001 7.7998)" style="overflow:visible;opacity:0.5586;enable-background:new    ;"/>
<path style="fill-rule:evenodd;clip-rule:evenodd;fill:#D162AC;" d="M0.15,7.1L0.3,0.2l10.25,0.7c2.8,0.233,5.733,0.617,8.8,1.15
	l0.25,6.7L0.15,7.1z"/>
<path style="fill-rule:evenodd;clip-rule:evenodd;fill:#803C69;" d="M9.75,1.8c0.566-0.066,0.884,0.25,0.95,0.95
	c0.033,0.667-0.2,0.967-0.7,0.9c-0.533-0.1-0.883-0.4-1.05-0.9C8.783,2.217,9.05,1.9,9.75,1.8z"/>
<polygon style="fill-rule:evenodd;clip-rule:evenodd;fill:#803C69;" points="19.1,2.2 19.75,1.95 20,8.65 19.5,8.75 "/>
<path style="fill-rule:evenodd;clip-rule:evenodd;fill:#FFBAE8;" d="M19.1,2.2c-2.8-0.434-5.35-0.7-7.649-0.8
	C9.183,1.3,5.467,0.9,0.3,0.2l0.5-0.1c3.667,0.333,7,0.6,10,0.8c2.634,0.167,5.617,0.517,8.95,1.05L19.1,2.2z"/>
<path style="fill-rule:evenodd;clip-rule:evenodd;fill:#FFBAE8;" d="M12.8,5.45c-1.666,0.533-2.883,0.933-3.65,1.2
	c-1.3,0.4-2.333,0.633-3.1,0.7c-1.233,0.066-3.233-0.067-6-0.4l0.15-2.1C4.1,5.183,6.633,5.133,7.8,4.7c2.9-1,5.283-1.534,7.15-1.6
	C16.684,3,18.1,3,19.2,3.1l0.1,2.25C16.733,4.917,14.566,4.95,12.8,5.45z"/>
<path style="fill-rule:evenodd;clip-rule:evenodd;fill:#AB3A5C;" d="M19.3,5.35v1.8c0,0.891,0.042,1.416,0.125,1.575
	C18.678,8.573,13.27,8.147,3.2,7.45c1.5,0,2.783-0.083,3.85-0.25C7.683,7.1,8.433,6.9,9.3,6.6c1.5-0.5,2.667-0.883,3.5-1.15
	c1.434-0.4,2.95-0.534,4.55-0.4C18.15,5.117,18.8,5.217,19.3,5.35z"/>
<path style="fill-rule:evenodd;clip-rule:evenodd;fill:#E62E65;" d="M19.7,6.45c-2.101-0.5-3.767-0.583-5-0.25L8.95,7.85L3.8,7.6
	c2.6-0.167,4.567-0.583,5.9-1.25c1-0.5,1.85-0.833,2.55-1c0.667-0.2,1.566-0.333,2.7-0.4c1.5-0.067,2.95,0.066,4.35,0.4L19.7,6.45z"
	/>
<path style="fill-rule:evenodd;clip-rule:evenodd;fill:#E62E65;" d="M0.05,2.95L0.3,0.2l7.4,1c-1.833,0.767-3.167,1.267-4,1.5
	C2.867,2.967,1.65,3.05,0.05,2.95z"/>
</svg>
