<?xml version="1.0" encoding="iso-8859-1"?>
<!-- Generator: Adobe Illustrator 15.0.0, SVG Export Plug-In . SVG Version: 6.00 Build 0)  -->
<!DOCTYPE svg PUBLIC "-//W3C//DTD SVG 1.1//EN" "http://www.w3.org/Graphics/SVG/1.1/DTD/svg11.dtd">
<svg version="1.1" id="Layer_1" xmlns="http://www.w3.org/2000/svg" xmlns:xlink="http://www.w3.org/1999/xlink" x="0px" y="0px"
	 width="128px" height="128px" viewBox="0 0 128 128" style="enable-background:new 0 0 128 128;" xml:space="preserve">
<g>
	<circle style="fill:#FFC200;" cx="62" cy="62" r="62"/>
	<path style="fill:#F2B800;" d="M62,0c-1.686,0-3.35,0.086-5,0.219C88.898,2.767,114,29.444,114,62s-25.102,59.233-57,61.781
		c1.65,0.133,3.314,0.219,5,0.219c34.24,0,62-27.758,62-62S96.24,0,62,0z"/>
	<path style="fill:#F2B800;" d="M100.943,101c-1.916,0-3.635-1.065-4.483-2.781C91.066,87.321,77.218,80,62,80
		s-29.066,7.321-34.46,18.218C26.689,99.935,24.973,101,23.057,101c-0.764,0-1.529-0.18-2.216-0.52
		c-1.196-0.593-2.091-1.614-2.519-2.881c-0.428-1.266-0.336-2.622,0.257-3.818C25.729,79.335,42.771,70,62,70
		s36.271,9.335,43.422,23.782c0.592,1.195,0.684,2.553,0.256,3.817c-0.428,1.267-1.322,2.288-2.52,2.881
		C102.473,100.82,101.706,101,100.943,101z"/>
	<path style="fill:#F5F5F5;" d="M62,72c18.473,0,34.813,8.898,41.629,22.669c0.734,1.485,0.127,3.285-1.357,4.021
		c-1.484,0.733-3.283,0.127-4.02-1.357C92.529,85.769,77.961,78,62,78s-30.529,7.769-36.252,19.331
		c-0.734,1.484-2.536,2.092-4.02,1.356c-1.484-0.733-2.094-2.533-1.357-4.02C27.188,80.898,43.527,72,62,72z"/>
	<g>
		<path style="fill:#263740;" d="M49,33c-1.656,0-3,1.344-3,3c0,4.963-4.037,9-9,9s-9-4.037-9-9c0-1.656-1.344-3-3-3s-3,1.344-3,3
			c0,8.271,6.729,15,15,15s15-6.729,15-15C52,34.344,50.656,33,49,33z"/>
		<path style="fill:#263740;" d="M99,33c-1.656,0-3,1.344-3,3c0,4.963-4.037,9-9,9s-9-4.037-9-9c0-1.656-1.344-3-3-3s-3,1.344-3,3
			c0,8.271,6.729,15,15,15s15-6.729,15-15C102,34.344,100.656,33,99,33z"/>
	</g>
	<g>
		<path style="fill:#455C91;" d="M66,61c-4.411,0-8,3.504-8,7.915v27c0,4.411,3.589,8,8,8h8.973c1.549,0,3.055-0.46,4.334-1.288
			c0.299,0.69,0.594,1.513,0.957,2.533c0.807,2.283,1.807,5.103,3.736,8.764v9.555l1.109,1.159c2.043,2.138,4.865,3.362,7.74,3.362
			c3.424,0,6.523-1.681,8.504-4.609c1.896-2.805,3.524-7.859,1.222-16.381H118c4.729,0,10-4.238,10-10.318
			c0-2.43-0.367-4.415-1.092-5.924c0.67-2.715,0.512-6.43-1.819-9.405c0.019-3.971-1.147-6.937-3.546-9.021
			c-0.309-2.263-1.326-4.507-2.87-6.274c-1.772-2.032-4.021-3.15-6.325-3.15H81.854c-0.508,0-1,0.039-1.47,0.117
			C78.918,61.674,77.035,61,75,61H66z"/>
		<path style="fill:#F5F5F5;" d="M78.973,96.016c5.155,3.62,3.871,7.52,9.027,16.899c0,4.477,0,6.552,0,8.958
			c5.157,5.389,17,1.042,9-18.863h21c2.52,0,6-2.447,6-6.318c0-2.694-0.584-4.931-1.684-5.183c1.1-1.65,1.813-6.078-1.299-8.621
			c0.262-3.228-0.061-6.65-3.424-8.43c0.443-3.231-2.267-7.543-5.246-7.543c-2.981,0-28.291,0-30.496,0s-2.881,1.027-2.881,2.739
			v26.361H78.973z"/>
		<g>
			<path style="fill:#E6E6E6;" d="M92.027,103.01H97c6.943,17.275-1.059,22.826-6.665,20.472
				C94.314,121.72,96.993,115.363,92.027,103.01z"/>
			<path style="fill:#E6E6E6;" d="M124,96.69c0,3.872-3.48,6.318-6,6.318h-4.973c2.52,0,6-2.447,6-6.318
				c0-2.694-0.584-4.931-1.682-5.183c1.098-1.65,1.813-6.078-1.3-8.621c0.263-3.228-0.062-6.65-3.424-8.43
				c0.442-3.232-2.267-7.543-5.247-7.543c2.453,0,4.294,0,4.973,0c2.979,0,5.689,4.311,5.246,7.543
				c3.363,1.778,3.686,5.202,3.424,8.43c3.112,2.543,2.397,6.971,1.299,8.621C123.416,91.761,124,93.996,124,96.69z"/>
		</g>
		<path style="fill:#6E7FB3;" d="M78.973,68.915c0-2.2-1.801-4-4-4H66c-2.2,0-4,1.8-4,4v27c0,2.2,1.8,4,4,4h8.973c2.199,0,4-1.8,4-4
			V68.915z"/>
	</g>
</g>
</svg>
