<?xml version="1.0" encoding="iso-8859-1"?>
<!-- Generator: Adobe Illustrator 15.1.0, SVG Export Plug-In . SVG Version: 6.00 Build 0)  -->
<!DOCTYPE svg PUBLIC "-//W3C//DTD SVG 1.1//EN" "http://www.w3.org/Graphics/SVG/1.1/DTD/svg11.dtd">
<svg version="1.1" id="flash0.ai" xmlns="http://www.w3.org/2000/svg" xmlns:xlink="http://www.w3.org/1999/xlink" x="0px" y="0px"
	 width="87.9px" height="36.3px" viewBox="0 0 87.9 36.3" style="enable-background:new 0 0 87.9 36.3;" xml:space="preserve">
<symbol  id="crepes" viewBox="-6.798 -19.495 73.196 19.483">
	<g id="Layer_1_3_">
		<g>
			<g>
				<path style="fill-rule:evenodd;clip-rule:evenodd;fill:#FFF6C4;" d="M50.75-14c0,0.033-0.017,0.05-0.05,0.05h-0.05
					c-1.633,0.4-2.783,0.717-3.45,0.95c-0.833,0.3-1.817,0.833-2.95,1.6c-0.933,0.667-1.967,1.217-3.1,1.65
					c-1.267,0.5-2.1,0.883-2.5,1.15c-0.833,0.5-2.483,1.117-4.95,1.85c-2.6,0.767-4.55,1.15-5.85,1.15c-3.267,0-6.55-0.65-9.85-1.95
					c-2.033-0.733-3.817-1.383-5.35-1.95c-2.433-0.9-4.2-1.5-5.3-1.8c-0.467-0.2-0.934-0.4-1.4-0.6c-1.934-0.733-3.5-1.1-4.7-1.1
					c-0.533,0-0.867,0.05-1,0.15C0.217-12.717,0.2-12.6,0.2-12.5c0,0.133,0,0.233,0,0.3c0.167,0.5,0.383,0.95,0.65,1.35l1.05,1.4
					c0.867,0.833,1.383,1.567,1.55,2.2C3.617-6.583,3.7-5.933,3.7-5.3c0,0.167,0.033,0.333,0.1,0.5c0.034,0,0.05,0.05,0.05,0.15
					c0,0.133,0.033,0.25,0.1,0.35C4.083-3.933,4.267-3.583,4.5-3.25c1.033,0.1,2-0.4,2.9-1.5c0.833-1,1.5-1.733,2-2.2
					c0.467-0.466,1.184-1,2.15-1.6c0.333-0.2,0.617-0.383,0.85-0.55h0.05c-0.1-0.033-0.184-0.066-0.25-0.1
					c-0.534,0.3-1.1,0.65-1.7,1.05C9.667-7.517,8.933-7.033,8.3-6.7C8.133-6.6,7.617-6.033,6.75-5C6.083-4.133,5.433-3.7,4.8-3.7
					c-0.033,0-0.083-0.017-0.15-0.05c-0.1-0.3-0.2-0.75-0.3-1.35C4.25-5.733,4.167-6.133,4.1-6.3c-0.167-0.534-0.5-1.2-1-2
					c-0.167-0.3-0.617-0.95-1.35-1.95c-0.667-0.933-1-1.5-1-1.7c0-0.133,0.117-0.267,0.35-0.4c0.2-0.1,0.383-0.15,0.55-0.15
					c1.067,0,3.1,0.55,6.1,1.65c2.2,0.833,3.683,1.383,4.45,1.65l0.05-0.05c0.067,0.067,0.15,0.1,0.25,0.1
					c0.067,0.033,0.15,0.083,0.25,0.15c5.733,2.6,10.617,3.883,14.65,3.85c4.033-0.067,7.133-0.65,9.3-1.75
					c2.167-1.067,3.716-1.867,4.65-2.4c0.167-0.034,0.316-0.1,0.45-0.2c0.633-0.333,1.317-0.717,2.05-1.15
					c0.633-0.367,1.316-0.767,2.05-1.2c0.434-0.1,1.467-0.45,3.1-1.05c0.833-0.267,1.7-0.483,2.6-0.65c0.5,0.1,0.833,0.183,1,0.25
					c0.5,0.233,0.75,0.667,0.75,1.3c0,0.333-0.15,0.817-0.45,1.45C52.6-9.883,52.317-9.367,52.05-9c-0.3,0.4-0.617,0.933-0.95,1.6
					c-0.333,0.667-0.6,1.183-0.8,1.55c-0.167,0.367-0.333,0.767-0.5,1.2C49.567-4.217,49.25-4,48.85-4c-0.567,0-1.2-0.433-1.9-1.3
					c-0.367-0.434-0.717-0.867-1.05-1.3c-1.367-1.2-2.2-1.9-2.5-2.1c-0.233-0.2-0.7-0.433-1.4-0.7c-0.133,0.1-0.25,0.183-0.35,0.25
					c0.3,0.2,0.617,0.4,0.95,0.6c0.967,0.6,1.667,1.133,2.1,1.6c0.5,0.467,1.183,1.2,2.05,2.2c0.867,1.1,1.817,1.6,2.85,1.5
					c0.066-0.633,0.333-1.383,0.8-2.25c0.434-0.9,0.867-1.633,1.3-2.2c0.433-0.533,0.683-0.867,0.75-1
					c0.033-0.133,0.267-0.566,0.7-1.3c0.4-0.7,0.667-1.433,0.8-2.2c-0.034-0.066-0.034-0.167,0-0.3c0-0.133-0.05-0.3-0.15-0.5
					l-0.05-0.05c-0.067-0.167-0.183-0.317-0.35-0.45c-0.167-0.067-0.35-0.15-0.55-0.25c-0.3-0.1-0.633-0.183-1-0.25
					c-0.233,0-0.367-0.017-0.4-0.05c-0.133,0-0.233,0-0.3,0C50.983-13.95,50.85-13.933,50.75-14z"/>
				<path style="fill-rule:evenodd;clip-rule:evenodd;fill:#C8AF58;" d="M43.85-10.65C43.217-10.183,42.6-9.767,42-9.4
					c0.7,0.267,1.167,0.5,1.4,0.7c0.3,0.2,1.133,0.9,2.5,2.1c0.333,0.434,0.684,0.867,1.05,1.3c0.7,0.867,1.333,1.3,1.9,1.3
					c0.4,0,0.717-0.217,0.95-0.65c0.167-0.434,0.333-0.833,0.5-1.2c0.2-0.367,0.467-0.883,0.8-1.55c0.333-0.667,0.65-1.2,0.95-1.6
					c0.267-0.367,0.55-0.883,0.85-1.55c0.3-0.633,0.45-1.117,0.45-1.45c0-0.633-0.25-1.067-0.75-1.3c-0.167-0.067-0.5-0.15-1-0.25
					c-0.9,0.167-1.767,0.383-2.6,0.65c-1.633,0.6-2.667,0.95-3.1,1.05C45.167-11.417,44.483-11.017,43.85-10.65z M12.2-9.2
					c-0.767-0.267-2.25-0.816-4.45-1.65c-3-1.1-5.033-1.65-6.1-1.65c-0.167,0-0.35,0.05-0.55,0.15c-0.233,0.133-0.35,0.267-0.35,0.4
					c0,0.2,0.333,0.767,1,1.7c0.733,1,1.183,1.65,1.35,1.95c0.5,0.8,0.833,1.466,1,2c0.066,0.167,0.15,0.566,0.25,1.2
					c0.1,0.6,0.2,1.05,0.3,1.35C4.717-3.717,4.767-3.7,4.8-3.7c0.633,0,1.284-0.433,1.95-1.3C7.617-6.033,8.133-6.6,8.3-6.7
					c0.633-0.333,1.367-0.816,2.2-1.45C11.1-8.55,11.667-8.9,12.2-9.2z"/>
				
					<radialGradient id="SVGID_1_" cx="27.0498" cy="-5.8999" r="23.2623" gradientTransform="matrix(1 0 0 1.0892 0 0.5264)" gradientUnits="userSpaceOnUse">
					<stop  offset="0" style="stop-color:#FFE47B"/>
					<stop  offset="1" style="stop-color:#CFBA63"/>
				</radialGradient>
				<path style="fill-rule:evenodd;clip-rule:evenodd;fill:url(#SVGID_1_);" d="M41.65-9.15c-1.8,1.2-3.233,2.1-4.3,2.7
					C34.883-5.083,32.333-4.4,29.7-4.4c-2.733,0-5.75-0.4-9.05-1.2c-3.3-0.767-6.05-1.933-8.25-3.5
					c-0.233,0.167-0.517,0.35-0.85,0.55c-0.966,0.6-1.683,1.133-2.15,1.6c-0.5,0.467-1.167,1.2-2,2.2c-0.9,1.1-1.867,1.6-2.9,1.5
					c0.267,0.267,0.717,0.433,1.35,0.5c0.233,0.067,0.483,0.1,0.75,0.1c0.1,0,0.183-0.017,0.25-0.05c2.4-0.4,4.8-0.683,7.2-0.85
					c3.333-0.434,6.333-0.583,9-0.45c2.633,0.167,5.3,0.333,8,0.5c2.667,0.2,5.117,0.25,7.35,0.15C40.6-3.417,43.067-3.3,45.8-3
					c0.534,0.133,1.05,0.25,1.55,0.35c0.033,0,0.083,0,0.15,0c0.233,0,0.483-0.033,0.75-0.1c0.633-0.067,1.083-0.233,1.35-0.5
					c-1.033,0.1-1.983-0.4-2.85-1.5c-0.867-1-1.55-1.733-2.05-2.2c-0.434-0.466-1.133-1-2.1-1.6C42.267-8.75,41.95-8.95,41.65-9.15z
					"/>
				<path style="fill-rule:evenodd;clip-rule:evenodd;fill:#8C6820;fill-opacity:0.8588;" d="M12.5-9.15
					c0,0.033-0.017,0.05-0.05,0.05H12.4c2.2,1.567,4.95,2.733,8.25,3.5c3.3,0.8,6.317,1.2,9.05,1.2c2.633,0,5.183-0.684,7.65-2.05
					c1.066-0.6,2.5-1.5,4.3-2.7C41.75-9.217,41.867-9.3,42-9.4c0.6-0.367,1.217-0.783,1.85-1.25c-0.733,0.433-1.417,0.816-2.05,1.15
					c-0.133,0.1-0.283,0.167-0.45,0.2c-0.934,0.533-2.483,1.333-4.65,2.4c-2.167,1.1-5.267,1.683-9.3,1.75
					C23.367-5.117,18.483-6.4,12.75-9C12.65-9.067,12.567-9.117,12.5-9.15z"/>
				
					<radialGradient id="SVGID_2_" cx="-665.2012" cy="-905.1821" r="19.3824" gradientTransform="matrix(0.9945 -0.1051 0.0439 0.4927 729.2617 369.8184)" gradientUnits="userSpaceOnUse">
					<stop  offset="0" style="stop-color:#FFE47B"/>
					<stop  offset="1" style="stop-color:#CFBA63"/>
				</radialGradient>
				<path style="fill-rule:evenodd;clip-rule:evenodd;fill:url(#SVGID_2_);" d="M50.7-13.95c0.033,0,0.05-0.017,0.05-0.05H50.7
					V-13.95z M0.25-12.85c0.133-0.1,0.467-0.15,1-0.15c1.2,0,2.767,0.367,4.7,1.1c0.466,0.2,0.933,0.4,1.4,0.6
					c1.1,0.3,2.867,0.9,5.3,1.8c1.533,0.567,3.317,1.217,5.35,1.95c3.3,1.3,6.583,1.95,9.85,1.95c1.3,0,3.25-0.383,5.85-1.15
					c2.466-0.733,4.117-1.35,4.95-1.85c0.4-0.267,1.233-0.65,2.5-1.15c1.133-0.433,2.167-0.983,3.1-1.65
					c1.133-0.767,2.117-1.3,2.95-1.6c0.667-0.233,1.816-0.55,3.45-0.95c-0.066,0-0.117-0.017-0.15-0.05
					c-2.633,0.1-4.817,0.017-6.55-0.25c-1.934-0.067-4.25-0.117-6.95-0.15c-0.433,0-0.867,0-1.3,0c-1.133,0-2.317,0.05-3.55,0.15
					c-0.4,0-0.767,0-1.1,0c-7.566,0-12.216-0.05-13.95-0.15c-2.7,0.033-5.017,0.083-6.95,0.15c-1.733,0.267-3.9,0.35-6.5,0.25
					c-0.066,0.033-0.133,0.05-0.2,0.05L3.4-14H3.35C3.283-13.933,3.167-13.95,3-14.05c-0.1,0-0.2,0-0.3,0
					C2.633-14.017,2.483-14,2.25-14c-0.633,0.133-1.133,0.3-1.5,0.5c-0.2,0.133-0.333,0.283-0.4,0.45C0.317-13.017,0.317-13,0.35-13
					C0.317-12.933,0.283-12.883,0.25-12.85z"/>
				
					<use xlink:href="#st_x5F_01"  width="104.6" height="14" x="-11" y="-14" transform="matrix(0.6998 0 0 0.7619 0.8999 -3.6001)" style="overflow:visible;"/>
			</g>
			<g>
				<g>
					<g>
						<path style="fill-rule:evenodd;clip-rule:evenodd;fill:#A1230D;fill-opacity:0.949;" d="M34.05-3.3
							c1.5-0.133,2.4-0.15,2.7-0.05c0.5,0.167,1.067,0.2,1.7,0.1l0.25-0.2c-0.267,0.1-0.7,0.083-1.3-0.05
							c-1.3-0.133-2.417-0.25-3.35-0.35c-1.433-0.167-2.7-0.967-3.8-2.4c-0.733-0.967-1.133-2-1.2-3.1
							c0.034-0.066-0.133-0.333-0.5-0.8c-0.333-0.467-0.433-0.9-0.3-1.3c0.1-0.333,0.317-1.017,0.65-2.05c0.333-1,0.25-1.667-0.25-2
							c-0.533-0.333-0.85-0.517-0.95-0.55c-0.333-0.2-0.633-0.284-0.9-0.25c-0.1,0-0.45,0.066-1.05,0.2
							c-0.433,0.033-0.883-0.1-1.35-0.4c-0.433-0.233-1.033-0.767-1.8-1.6c-0.7-0.7-1.483-1.133-2.35-1.3
							c-0.767-0.2-1.383-0.083-1.85,0.35c0.5-0.2,0.934-0.284,1.3-0.25c0.367,0.033,1.017,0.333,1.95,0.9c0.934,0.6,1.367,1,1.3,1.2
							l0.55,0.65c0.467,0.466,0.883,0.733,1.25,0.8c0.3,0,0.867-0.05,1.7-0.15c0.733-0.033,1.233,0.1,1.5,0.4
							c0.233,0.3,0.283,0.783,0.15,1.45c-0.2,1.033-0.317,1.633-0.35,1.8c-0.1,1.033,0.067,2.05,0.5,3.05
							c0.1,0.2,0.3,0.784,0.6,1.75c0.367,0.934,0.8,1.65,1.3,2.15C31.75-3.933,33.05-3.267,34.05-3.3z"/>
					</g>
				</g>
				<g>
					
						<radialGradient id="SVGID_3_" cx="5780.7949" cy="2817.6846" r="10.77" gradientTransform="matrix(0.8873 0.4611 0.6249 -0.9605 -6864.6113 32.7324)" gradientUnits="userSpaceOnUse">
						<stop  offset="0" style="stop-color:#F34508;stop-opacity:0.902"/>
						<stop  offset="1" style="stop-color:#E01C04;stop-opacity:0.902"/>
					</radialGradient>
					<path style="fill-rule:evenodd;clip-rule:evenodd;fill:url(#SVGID_3_);" d="M31.95-2.15c1.6,0.033,2.75-0.017,3.45-0.15
						c1.4-0.167,2.45-0.5,3.15-1c-0.3,0.1-0.733,0.083-1.3-0.05c-0.3-0.066-0.783-0.133-1.45-0.2c-0.933-0.1-1.566-0.167-1.9-0.2
						c-1.433-0.133-2.717-0.933-3.85-2.4c-0.667-0.867-1.066-1.883-1.2-3.05c0-0.033-0.167-0.3-0.5-0.8
						c-0.3-0.5-0.383-0.917-0.25-1.25c0.1-0.333,0.3-1.033,0.6-2.1c0.333-1,0.25-1.667-0.25-2c-0.534-0.333-0.833-0.517-0.9-0.55
						c-0.333-0.167-0.633-0.25-0.9-0.25c-0.167,0-0.533,0.066-1.1,0.2c-0.4,0.067-0.85-0.05-1.35-0.35
						c-0.333-0.267-0.934-0.817-1.8-1.65c-0.633-0.7-1.4-1.15-2.3-1.35c-0.8-0.167-1.417-0.05-1.85,0.35
						c-0.3,0.3-0.183,0.85,0.35,1.65c0.467,0.733,0.583,1.167,0.35,1.3c-0.267,0.2-0.934,0.317-2,0.35c-1.3,0.1-2.133,0.2-2.5,0.3
						c-0.534,0.133-0.633,0.467-0.3,1c0.5,0.567,0.733,0.934,0.7,1.1c0,0.333,0,0.6,0,0.8c-0.033,0.3,0.05,0.567,0.25,0.8
						c0.233,0.333,0.367,0.8,0.4,1.4c0.033,0.667-0.067,1.233-0.3,1.7c-0.267,0.466-0.367,0.816-0.3,1.05
						c-0.033,0.167,0.033,0.383,0.2,0.65l0.75,0.95c0.4,0.467,0.617,0.85,0.65,1.15c0.033,0.367,0.417,0.783,1.15,1.25
						c0.633,0.4,1.317,0.717,2.05,0.95c0.966,0.3,1.867,0.5,2.7,0.6c1,0.034,1.667,0.1,2,0.2c0.667,0.167,1.35,0.217,2.05,0.15
						c0.433-0.033,1.2-0.15,2.3-0.35C29.35-2.083,30.417-2.15,31.95-2.15z"/>
				</g>
				<g>
					
						<linearGradient id="SVGID_4_" gradientUnits="userSpaceOnUse" x1="227.5767" y1="-1066.9883" x2="233.0683" y2="-1066.9883" gradientTransform="matrix(0.9924 -0.1229 -0.0382 1.0124 -250.4395 1102.7441)">
						<stop  offset="0" style="stop-color:#FFFFFF;stop-opacity:0.3373"/>
						<stop  offset="1" style="stop-color:#FFFFFF;stop-opacity:0"/>
					</linearGradient>
					<path style="fill-rule:evenodd;clip-rule:evenodd;fill:url(#SVGID_4_);" d="M24.05-2.25c0.434-0.367,0.417-0.667-0.05-0.9
						c-0.267-0.133-0.767-0.184-1.5-0.15c-0.7,0.066-1.267,0.017-1.7-0.15c-0.933-0.433-1.2-1.533-0.8-3.3
						c0.267-1.333,0.8-2.4,1.6-3.2c0.433-0.4,0.35-0.583-0.25-0.55c-0.567,0.033-1.25,0.217-2.05,0.55
						c-0.433,0.167-0.933,0.417-1.5,0.75c-0.367,0.267-0.716,0.417-1.05,0.45c-0.7,0.2-0.967,0.817-0.8,1.85
						c0.066,0.267,0.267,0.617,0.6,1.05c0.233,0.233,0.5,0.517,0.8,0.85c0.066,0.067,0.2,0.35,0.4,0.85c0.133,0.3,0.4,0.566,0.8,0.8
						c1.034,0.533,2.35,1.017,3.95,1.45C23.1-1.733,23.617-1.85,24.05-2.25z"/>
					
						<linearGradient id="SVGID_5_" gradientUnits="userSpaceOnUse" x1="-68.1045" y1="-1390.8916" x2="-35.2484" y2="-1390.8916" gradientTransform="matrix(0.9876 -0.1567 -0.004 1.0132 67.8418 1384.8145)">
						<stop  offset="0" style="stop-color:#FFFFFF;stop-opacity:0.3373"/>
						<stop  offset="1" style="stop-color:#FFFFFF;stop-opacity:0"/>
					</linearGradient>
					<path style="fill-rule:evenodd;clip-rule:evenodd;fill:url(#SVGID_5_);" d="M25.6-15.55c-0.967,0.033-1.934-0.333-2.9-1.1
						c-1.434-1.2-2.534-1.767-3.3-1.7c-0.467,0.033-0.583,0.25-0.35,0.65c0.167,0.4,0.434,0.767,0.8,1.1
						c0.233,0.167,0.35,0.317,0.35,0.45c-0.034,0.167-0.067,0.35-0.1,0.55c-0.067,0.233-0.5,0.383-1.3,0.45
						c-0.966,0.033-1.7,0.1-2.2,0.2c-0.6,0.067-0.633,0.15-0.1,0.25c0.233,0.1,0.617,0.2,1.15,0.3c0.333,0.1,0.883,0.433,1.65,1
						c0.2,0.133,0.517,0.133,0.95,0c0.767-0.267,1.267-0.417,1.5-0.45c0.3-0.066,0.833-0.217,1.6-0.45c0.533-0.167,1-0.233,1.4-0.2
						c1,0.1,1.85-0.133,2.55-0.7C27.633-15.467,27.067-15.583,25.6-15.55z"/>
				</g>
			</g>
			<g>
				
					<linearGradient id="SVGID_6_" gradientUnits="userSpaceOnUse" x1="16065.8926" y1="-16533.5352" x2="16083.5977" y2="-16533.5352" gradientTransform="matrix(-0.7617 -0.0183 0.0183 -0.7617 12576.4629 -12301.6162)">
					<stop  offset="0" style="stop-color:#ED0101"/>
					<stop  offset="1" style="stop-color:#7E0806"/>
				</linearGradient>
				<path style="fill-rule:evenodd;clip-rule:evenodd;fill:url(#SVGID_6_);" d="M28.176-1.371c2.997-0.965,4.546-1.524,4.648-1.677
					c0.102-0.152,0.025-0.355-0.229-0.609c-0.051-0.051-0.216-0.076-0.496-0.076c-0.406,0-0.673-0.013-0.8-0.038
					c-0.203-0.026-0.495-0.115-0.876-0.267c-0.432-0.178-0.762-0.305-0.991-0.381c-0.355-0.102-0.825-0.102-1.409,0
					c-0.61,0.102-1.08,0.254-1.41,0.457c-0.356,0.254-0.724,0.584-1.105,0.991c-0.406,0.482-0.622,0.876-0.648,1.181
					c-0.025,0.279,0.051,0.61,0.229,0.991c0.076,0.203,0.152,0.381,0.229,0.533l0.8-0.267C26.779-0.762,27.465-1.042,28.176-1.371z"
					/>
				
					<radialGradient id="SVGID_7_" cx="23.2998" cy="-4.3999" r="3.8628" gradientTransform="matrix(0.7619 0 0 -0.7619 11.2998 -5.105)" gradientUnits="userSpaceOnUse">
					<stop  offset="0" style="stop-color:#F34508"/>
					<stop  offset="1" style="stop-color:#E01C04"/>
				</radialGradient>
				<path style="fill-rule:evenodd;clip-rule:evenodd;fill:url(#SVGID_7_);" d="M30.157-1.371c1.473-0.584,2.337-1.067,2.591-1.448
					c0.254-0.355,0.051-0.534-0.609-0.534c-1.168,0-1.766,0-1.791,0c-0.686-0.126-1.283-0.126-1.791,0
					c-0.813,0.203-1.663,0.724-2.552,1.562c-0.889,0.838-1.016,1.384-0.381,1.638c0.584,0.229,1.207,0.178,1.867-0.152
					C27.744-0.432,28.633-0.787,30.157-1.371z"/>
				<path style="fill-rule:evenodd;clip-rule:evenodd;fill:#DF9568;" d="M27.262-0.686c0.661-0.178,1.879-0.686,3.657-1.524
					c0.254-0.127,0.317-0.229,0.19-0.305c-0.102-0.102-0.343-0.114-0.724-0.038c-0.813,0.203-1.524,0.152-2.133-0.152
					c-0.228-0.127-0.597-0.013-1.104,0.343c-0.508,0.33-0.914,0.711-1.219,1.143c-0.254,0.356-0.178,0.571,0.228,0.648
					C26.461-0.521,26.83-0.559,27.262-0.686z"/>
				<path style="fill-rule:evenodd;clip-rule:evenodd;fill:#E01C04;" d="M29.738-1.867c0.177-0.076,0.012-0.102-0.496-0.076
					c-0.762,0.051-1.245,0.063-1.448,0.038c-0.355-0.051-0.559,0.013-0.609,0.19s0.063,0.292,0.343,0.343
					c0.229,0.025,0.584-0.013,1.067-0.114C29.027-1.587,29.408-1.714,29.738-1.867z"/>
				
					<radialGradient id="SVGID_8_" cx="18.2998" cy="-4.5498" r="0.325" gradientTransform="matrix(0.7619 0 0 -0.7619 11.2998 -5.3335)" gradientUnits="userSpaceOnUse">
					<stop  offset="0" style="stop-color:#FDC743"/>
					<stop  offset="1" style="stop-color:#B58821"/>
				</radialGradient>
				<path style="fill-rule:evenodd;clip-rule:evenodd;fill:url(#SVGID_8_);" d="M25.433-1.752c0.025-0.254-0.025-0.394-0.152-0.419
					c-0.127-0.051-0.19,0-0.19,0.152c-0.025,0.152,0.025,0.279,0.152,0.381C25.344-1.511,25.408-1.549,25.433-1.752z"/>
				
					<radialGradient id="SVGID_9_" cx="24.2998" cy="-7.1499" r="0.2375" gradientTransform="matrix(0.7619 0 0 -0.7619 11.2998 -9.2954)" gradientUnits="userSpaceOnUse">
					<stop  offset="0" style="stop-color:#FDC743"/>
					<stop  offset="1" style="stop-color:#B58821"/>
				</radialGradient>
				<path style="fill-rule:evenodd;clip-rule:evenodd;fill:url(#SVGID_9_);" d="M29.966-3.733c0.102-0.051,0.102-0.114,0-0.19
					C29.865-4.025,29.776-4.051,29.7-4c-0.102,0.051-0.114,0.127-0.038,0.229C29.763-3.695,29.865-3.682,29.966-3.733z"/>
				
					<radialGradient id="SVGID_10_" cx="26.8999" cy="-6.7998" r="0.2375" gradientTransform="matrix(0.7619 0 0 -0.7619 11.2998 -8.7612)" gradientUnits="userSpaceOnUse">
					<stop  offset="0" style="stop-color:#FDC743"/>
					<stop  offset="1" style="stop-color:#B58821"/>
				</radialGradient>
				<path style="fill-rule:evenodd;clip-rule:evenodd;fill:url(#SVGID_10_);" d="M31.643-3.466c0.254,0.025,0.368-0.064,0.343-0.267
					h-0.152c-0.102,0-0.178,0.038-0.229,0.114C31.528-3.518,31.541-3.466,31.643-3.466z"/>
				
					<linearGradient id="SVGID_11_" gradientUnits="userSpaceOnUse" x1="25.1802" y1="-13.0493" x2="14.7777" y2="-8.2297" gradientTransform="matrix(0.7619 0 0 0.7619 11.2998 1.6001)">
					<stop  offset="0" style="stop-color:#ED0101"/>
					<stop  offset="1" style="stop-color:#7E0806"/>
				</linearGradient>
				<path style="fill-rule:evenodd;clip-rule:evenodd;fill:url(#SVGID_11_);" d="M30.157-6.362c-0.178-0.355-0.33-0.609-0.457-0.762
					c-0.686-0.533-1.473-0.927-2.362-1.181c-0.33-0.102-0.813-0.229-1.448-0.381c-0.711-0.178-1.13-0.254-1.257-0.229
					C24.405-8.965,24.24-8.99,24.138-8.99c-0.229,0-0.331,0.14-0.305,0.419l0.076,2.133c0,0.457,0.051,0.939,0.152,1.448
					c0.203,0.863,0.508,1.435,0.915,1.714c0.686,0.457,2.26,0.025,4.724-1.295l0.648-0.077C30.398-5.435,30.335-6.006,30.157-6.362z
					"/>
				
					<radialGradient id="SVGID_12_" cx="9151.6475" cy="-19685.9551" r="4.8999" gradientTransform="matrix(-0.519 -0.5578 0.4879 -0.5831 14380.1582 -6378.2085)" gradientUnits="userSpaceOnUse">
					<stop  offset="0" style="stop-color:#F34508"/>
					<stop  offset="1" style="stop-color:#E01C04"/>
				</radialGradient>
				<path style="fill-rule:evenodd;clip-rule:evenodd;fill:url(#SVGID_12_);" d="M30.157-4.457c0.458-0.229,0.292-0.686-0.495-1.372
					c-0.787-0.66-1.587-1.054-2.4-1.181c-0.33-0.051-1.003-0.229-2.019-0.534c-0.635-0.178-1.016-0.203-1.143-0.076
					c-0.102,0.076-0.114,0.343-0.038,0.8c0.153,0.635,0.216,1.206,0.19,1.714c-0.051,0.66,0.14,1.244,0.572,1.752
					c0.355,0.432,0.736,0.673,1.143,0.724c0.432,0.025,1.346-0.368,2.743-1.181C29.243-4.013,29.725-4.229,30.157-4.457z"/>
				<path style="fill-rule:evenodd;clip-rule:evenodd;fill:#DF9568;" d="M28.786-4.114c0.076-0.203-0.013-0.444-0.267-0.724
					c-0.279-0.305-0.673-0.495-1.181-0.571c-0.381-0.076-0.876-0.279-1.486-0.609c-0.482-0.254-0.724-0.33-0.724-0.229
					c0,0.127,0.089,0.381,0.267,0.762c0.229,0.508,0.355,0.787,0.381,0.837c0.432,1.016,0.838,1.499,1.219,1.448
					c0.305-0.026,0.698-0.127,1.181-0.305c0.331-0.102,0.508-0.203,0.534-0.305C28.76-3.86,28.786-3.962,28.786-4.114z"/>
				<path style="fill-rule:evenodd;clip-rule:evenodd;fill:#E01C04;" d="M26.843-3.924c0.178,0.153,0.457,0.216,0.838,0.19
					c0.229,0,0.267-0.139,0.114-0.419c-0.178-0.305-0.444-0.546-0.8-0.724l-1.41-0.838L26.843-3.924z"/>
				
					<radialGradient id="SVGID_13_" cx="23.3501" cy="-11.1001" r="0.3252" gradientTransform="matrix(-0.7614 0.0273 -0.0315 -0.8784 46.5195 -17.2461)" gradientUnits="userSpaceOnUse">
					<stop  offset="0" style="stop-color:#FDC743"/>
					<stop  offset="1" style="stop-color:#B58821"/>
				</radialGradient>
				<path style="fill-rule:evenodd;clip-rule:evenodd;fill:url(#SVGID_13_);" d="M29.167-6.628c0.152,0.076,0.229,0.051,0.229-0.076
					c0-0.127-0.089-0.242-0.267-0.343s-0.279-0.089-0.305,0.039C28.798-6.857,28.913-6.73,29.167-6.628z"/>
				
					<radialGradient id="SVGID_14_" cx="16719.0723" cy="-16067.3135" r="0.3877" gradientTransform="matrix(-0.7615 0.0246 -0.0491 -0.8843 11969.8965 -14627.3428)" gradientUnits="userSpaceOnUse">
					<stop  offset="0" style="stop-color:#FDC743"/>
					<stop  offset="1" style="stop-color:#B58821"/>
				</radialGradient>
				<path style="fill-rule:evenodd;clip-rule:evenodd;fill:url(#SVGID_14_);" d="M27.757-7.619c0.178,0.051,0.254,0.013,0.229-0.114
					s-0.178-0.229-0.457-0.305c-0.279-0.051-0.368,0-0.267,0.152C27.363-7.759,27.528-7.669,27.757-7.619z"/>
				
					<radialGradient id="SVGID_15_" cx="20.2002" cy="-12" r="0.2878" gradientTransform="matrix(-0.7613 0.0312 -0.0352 -0.8604 41.645 -18.4961)" gradientUnits="userSpaceOnUse">
					<stop  offset="0" style="stop-color:#FDC743"/>
					<stop  offset="1" style="stop-color:#B58821"/>
				</radialGradient>
				<path style="fill-rule:evenodd;clip-rule:evenodd;fill:url(#SVGID_15_);" d="M26.729-7.39c0.127,0.025,0.216,0,0.267-0.076
					c0.051-0.077-0.025-0.14-0.229-0.191c-0.203-0.051-0.317-0.025-0.342,0.077C26.373-7.479,26.474-7.416,26.729-7.39z"/>
				
					<radialGradient id="SVGID_16_" cx="16722.6406" cy="-16066.6973" r="0.3877" gradientTransform="matrix(-0.7615 0.0246 -0.0491 -0.8843 11969.9004 -14627.2666)" gradientUnits="userSpaceOnUse">
					<stop  offset="0" style="stop-color:#FDC743"/>
					<stop  offset="1" style="stop-color:#B58821"/>
				</radialGradient>
				<path style="fill-rule:evenodd;clip-rule:evenodd;fill:url(#SVGID_16_);" d="M24.9-8.038c0.254,0.102,0.355,0.063,0.305-0.114
					c-0.025-0.152-0.152-0.241-0.381-0.267C24.595-8.47,24.48-8.444,24.48-8.343S24.621-8.14,24.9-8.038z"/>
			</g>
			<g>
				
					<linearGradient id="SVGID_17_" gradientUnits="userSpaceOnUse" x1="6.9751" y1="-9.2588" x2="11.6251" y2="-9.2588" gradientTransform="matrix(0.7619 0 0 0.7619 10.3501 -4.8999)">
					<stop  offset="0" style="stop-color:#ED0101"/>
					<stop  offset="1" style="stop-color:#7E0806"/>
				</linearGradient>
				<path style="fill-rule:evenodd;clip-rule:evenodd;fill:url(#SVGID_17_);" d="M15.646-11.529c0.051,0.915,0.229,1.651,0.533,2.21
					h0.571c0.432-0.026,0.8-0.14,1.105-0.343c0.635-0.406,1.092-1.41,1.371-3.01c0.077-0.406-0.139-0.876-0.647-1.409
					c-0.533-0.534-0.914-0.648-1.143-0.343L15.646-11.529z"/>
				
					<radialGradient id="SVGID_18_" cx="6.499" cy="-9.3501" r="3.6506" gradientTransform="matrix(0.7619 0 0 -0.7619 10.3501 -19.1479)" gradientUnits="userSpaceOnUse">
					<stop  offset="0" style="stop-color:#F34508"/>
					<stop  offset="1" style="stop-color:#E01C04"/>
				</radialGradient>
				<path style="fill-rule:evenodd;clip-rule:evenodd;fill:url(#SVGID_18_);" d="M16.75-9.662c0.787-0.838,1.27-1.816,1.448-2.934
					c0.152-1.042,0-1.689-0.457-1.943c-0.407-0.203-1.283-0.063-2.629,0.419c-1.244,0.458-2.083,0.864-2.514,1.219
					c-0.305,0.254-0.331,0.534-0.077,0.838c0.025,0.05,0.343,0.33,0.953,0.838c0.635,0.609,1.155,1.066,1.562,1.371
					C15.798-9.319,16.369-9.255,16.75-9.662z"/>
				<path style="fill-rule:evenodd;clip-rule:evenodd;fill:#DF9568;" d="M13.703-12.557c-0.077,0.051-0.013,0.127,0.19,0.229
					c0.355,0.178,0.635,0.356,0.838,0.534c0.381,0.355,0.813,0.66,1.295,0.914c0.584,0.33,1.016,0.432,1.295,0.305
					c0.229-0.102,0.406-0.343,0.534-0.724c0.051-0.229,0.152-0.648,0.305-1.257c0.127-0.406,0.025-0.635-0.305-0.686
					c-0.406,0.026-0.66,0.039-0.762,0.039l-0.724,0.076c-0.355,0.025-0.863,0.114-1.524,0.267
					C14.21-12.709,13.83-12.608,13.703-12.557z"/>
				<path style="fill-rule:evenodd;clip-rule:evenodd;fill:#E01C04;" d="M16.864-11.871c0.152-0.051,0.242-0.153,0.267-0.305
					c0.051-0.153,0.025-0.292-0.076-0.419c-0.152-0.178-1.054-0.102-2.705,0.229l0.534,0.038l0.686,0.267
					C16.128-11.858,16.56-11.795,16.864-11.871z"/>
				
					<radialGradient id="SVGID_19_" cx="10" cy="-7.2002" r="0.3375" gradientTransform="matrix(0.7619 0 0 -0.7619 10.3501 -15.8716)" gradientUnits="userSpaceOnUse">
					<stop  offset="0" style="stop-color:#FDC743"/>
					<stop  offset="1" style="stop-color:#B58821"/>
				</radialGradient>
				<path style="fill-rule:evenodd;clip-rule:evenodd;fill:url(#SVGID_19_);" d="M17.893-10.157c0.279-0.076,0.394-0.19,0.343-0.343
					c-0.051-0.127-0.152-0.165-0.305-0.114c-0.127,0.025-0.204,0.114-0.229,0.267C17.677-10.169,17.741-10.106,17.893-10.157z"/>
				
					<radialGradient id="SVGID_20_" cx="10.8501" cy="-10.4502" r="0.2625" gradientTransform="matrix(0.7619 0 0 -0.7619 10.3501 -20.8237)" gradientUnits="userSpaceOnUse">
					<stop  offset="0" style="stop-color:#FDC743"/>
					<stop  offset="1" style="stop-color:#B58821"/>
				</radialGradient>
				<path style="fill-rule:evenodd;clip-rule:evenodd;fill:url(#SVGID_20_);" d="M18.655-12.671
					c0.178-0.025,0.229-0.102,0.152-0.229c-0.076-0.152-0.178-0.203-0.305-0.152c-0.102,0.051-0.127,0.127-0.076,0.229
					C18.452-12.722,18.528-12.671,18.655-12.671z"/>
				
					<radialGradient id="SVGID_21_" cx="11" cy="-8.8501" r="0.25" gradientTransform="matrix(0.7619 0 0 -0.7619 10.3501 -18.3862)" gradientUnits="userSpaceOnUse">
					<stop  offset="0" style="stop-color:#FDC743"/>
					<stop  offset="1" style="stop-color:#B58821"/>
				</radialGradient>
				<path style="fill-rule:evenodd;clip-rule:evenodd;fill:url(#SVGID_21_);" d="M18.655-11.453
					c0.229,0.051,0.318-0.076,0.267-0.381h-0.19c-0.102,0-0.165,0.064-0.19,0.19C18.515-11.516,18.553-11.453,18.655-11.453z"/>
			</g>
		</g>
	</g>
</symbol>
<symbol  id="st_x5F_01" viewBox="-11 -14 104.6 14">
	<g>
		<defs>
			<path id="SVGID_22_" d="M10.8-3.9c-0.233,0.133-0.966,0.883-2.2,2.25C7.633-0.55,6.7,0,5.8,0C5.733,0,5.667-0.017,5.6-0.05
				C5.133-0.283,4.117-0.733,2.55-1.4C1.15-2,0.1-2.567-0.6-3.1C-0.933-3.367-3-4.483-6.8-6.45C-9.6-7.917-11-9.033-11-9.8
				c0-0.667,0.1-1.1,0.3-1.3c0.167-0.167,0.633-0.333,1.4-0.5c0.867-0.2,1.566-0.35,2.1-0.45c1-0.167,1.784-0.25,2.35-0.25
				c1.067,0,2.3,0.117,3.7,0.35c0.659,0.115,1.425,0.265,2.3,0.45H1.6c1.637,0.102,4.437,0.819,8.4,2.15
				c3.133,1.1,5.25,1.817,6.35,2.15c-0.767,0.4-1.567,0.867-2.4,1.4C12.75-4.967,11.7-4.333,10.8-3.9z M88.8-3.65
				c-3.267,1.8-6.667,2.85-10.2,3.15L72.15,0c-0.767,0-1.717-0.067-2.85-0.2c-0.49-0.058-0.89-0.158-1.2-0.3
				c-0.639-0.213-1.322-0.747-2.05-1.6C65.517-2.667,65-3.233,64.5-3.8c-1.933-1.567-3.1-2.483-3.5-2.75
				c-0.367-0.267-1.05-0.567-2.05-0.9c0.833-0.5,1.716-1.05,2.65-1.65c0.9-0.467,1.867-0.983,2.9-1.55
				c0.633-0.133,2.117-0.6,4.45-1.4c1.081-0.3,2.206-0.559,3.375-0.775l0.025-0.025c0.175-0.088,1.042-0.288,2.6-0.6
				c2.4-0.367,5.566-0.55,9.5-0.55c2.167,0,4.25,0.6,6.25,1.8c1.933,1.167,2.9,2.35,2.9,3.55C93.6-7.083,92-5.417,88.8-3.65z"/>
		</defs>
		<clipPath id="SVGID_23_">
			<use xlink:href="#SVGID_22_"  style="overflow:visible;"/>
		</clipPath>
		<g id="Layer_1_2_" style="clip-path:url(#SVGID_23_);">
			<g>
				<path style="fill-rule:evenodd;clip-rule:evenodd;fill:#FFF6C4;" d="M13.125-5.8c0.085-0.003,0.143-0.037,0.175-0.1v0.1
					C13.24-5.8,13.182-5.8,13.125-5.8z M7.4-5.3c0.064,0,0.13,0,0.2,0C7.552-5.299,7.51-5.291,7.475-5.275
					C7.443-5.261,7.418-5.236,7.4-5.2V-5.3z M16.5-7.35c0-1-1.4-1.816-4.2-2.45c-2.133-0.467-4.117-0.7-5.95-0.7
					c-1.1,0-2.267,0.15-3.5,0.45C1.783-9.783,1.2-9.567,1.1-9.4c0.333,0.066,0.533,0.133,0.6,0.2C1.633-9.167,1.033-9.067-0.1-8.9
					c-0.8,0.1-1.2,0.3-1.2,0.6c0,0.6,0.617,1,1.85,1.2C2.417-6.767,3.367-6.6,3.4-6.6c0.243,0.101,0.526,0.243,0.85,0.425L4.2-6.15
					C4.067-6.117,4-5.983,4-5.75c0,0.3,0.417,0.583,1.25,0.85C6.083-4.667,6.5-4.383,6.5-4.05C6.367-3.317,6.333-2.8,6.4-2.5
					c0.067,0.533,0.55,0.8,1.45,0.8c0.3,0,1.083-0.267,2.35-0.8c1.5-0.633,2.5-1.233,3-1.8c0.533-0.6,1.316-1.133,2.35-1.6
					C16.183-6.167,16.5-6.65,16.5-7.35z"/>
			</g>
			<g>
				
					<linearGradient id="SVGID_24_" gradientUnits="userSpaceOnUse" x1="13.6768" y1="-3.6748" x2="6.451" y2="-0.7267" gradientTransform="matrix(1.5074 0 0 1.5074 -8.6006 -1.9995)">
					<stop  offset="0" style="stop-color:#ED0101"/>
					<stop  offset="1" style="stop-color:#7E0806"/>
				</linearGradient>
				<path style="fill-rule:evenodd;clip-rule:evenodd;fill:url(#SVGID_24_);" d="M7.378-6.824L3.157-7.426
					c-0.301-0.05-0.553-0.075-0.753-0.075c-0.301,0-0.452,0.1-0.452,0.301L1.876-5.316c0,1.407,0.502,2.337,1.508,2.789
					C4.388-2.125,6.85-2.452,10.77-3.507h1.055c0.101-0.704,0.051-1.206-0.15-1.508l-0.679-0.678
					C9.94-6.195,8.734-6.572,7.378-6.824z"/>
				
					<radialGradient id="SVGID_25_" cx="4996.9404" cy="-19468.7188" r="2.9885" gradientTransform="matrix(-1.261 -0.8259 1.3177 -0.7881 31961.4805 -11219.7656)" gradientUnits="userSpaceOnUse">
					<stop  offset="0" style="stop-color:#F34508"/>
					<stop  offset="1" style="stop-color:#E01C04"/>
				</radialGradient>
				<path style="fill-rule:evenodd;clip-rule:evenodd;fill:url(#SVGID_25_);" d="M11.523-3.356c0.753-0.201,0.528-0.603-0.679-1.207
					c-1.156-0.653-2.361-1.03-3.618-1.13C4.262-6.296,2.604-6.522,2.253-6.371c-0.151,0.05-0.176,0.276-0.076,0.678
					C2.378-5.14,2.429-4.638,2.328-4.186C2.177-3.633,2.429-3.13,3.082-2.678C3.635-2.276,4.212-2.05,4.815-2
					c0.704,0.05,2.161-0.226,4.372-0.829L11.523-3.356z"/>
				<path style="fill-rule:evenodd;clip-rule:evenodd;fill:#DF9568;" d="M9.337-3.13C9.438-3.331,9.313-3.532,8.96-3.733
					C8.559-4.035,7.956-4.236,7.152-4.336C6.548-4.387,5.77-4.563,4.815-4.864C4.162-5.115,3.835-5.19,3.835-5.089
					C4.288-4.437,4.589-3.985,4.74-3.733c0.301,0.904,0.879,1.332,1.733,1.281c0.452,0,1.08-0.076,1.884-0.227
					c0.502-0.05,0.804-0.125,0.904-0.226C9.313-2.954,9.337-3.029,9.337-3.13z"/>
				<path style="fill-rule:evenodd;clip-rule:evenodd;fill:#E01C04;" d="M7.604-2.829c0.352,0,0.402-0.125,0.151-0.376
					c-0.252-0.252-0.628-0.478-1.13-0.679L4.438-4.638l1.432,1.206C6.272-3.029,6.85-2.829,7.604-2.829z"/>
				
					<radialGradient id="SVGID_26_" cx="12.3501" cy="-2.2998" r="0.2625" gradientTransform="matrix(-1.5074 0 0 -0.9331 28.6338 -7.6113)" gradientUnits="userSpaceOnUse">
					<stop  offset="0" style="stop-color:#FDC743"/>
					<stop  offset="1" style="stop-color:#B58821"/>
				</radialGradient>
				<path style="fill-rule:evenodd;clip-rule:evenodd;fill:url(#SVGID_26_);" d="M10.091-5.24c0.252,0.05,0.377,0.025,0.377-0.076
					c0-0.15-0.125-0.251-0.377-0.301c-0.251-0.151-0.427-0.151-0.527,0C9.513-5.517,9.689-5.391,10.091-5.24z"/>
				
					<radialGradient id="SVGID_27_" cx="10.8501" cy="-2.8999" r="0.3125" gradientTransform="matrix(-1.5074 0 0 -0.9647 24.1123 -9.1675)" gradientUnits="userSpaceOnUse">
					<stop  offset="0" style="stop-color:#FDC743"/>
					<stop  offset="1" style="stop-color:#B58821"/>
				</radialGradient>
				<path style="fill-rule:evenodd;clip-rule:evenodd;fill:url(#SVGID_27_);" d="M7.981-6.22c0.302,0.05,0.427,0.025,0.377-0.076
					c-0.05-0.1-0.276-0.176-0.679-0.226c-0.452-0.05-0.603-0.025-0.452,0.075C7.378-6.346,7.629-6.271,7.981-6.22z"/>
				
					<radialGradient id="SVGID_28_" cx="9.8999" cy="-2.75" r="0.225" gradientTransform="matrix(-1.5074 0 0 -0.9212 21.2471 -8.6763)" gradientUnits="userSpaceOnUse">
					<stop  offset="0" style="stop-color:#FDC743"/>
					<stop  offset="1" style="stop-color:#B58821"/>
				</radialGradient>
				<path style="fill-rule:evenodd;clip-rule:evenodd;fill:url(#SVGID_28_);" d="M6.398-5.994c0.854,0,0.879-0.101,0.075-0.302
					C6.122-6.346,5.921-6.321,5.871-6.22C5.821-6.12,5.996-6.044,6.398-5.994z"/>
				
					<radialGradient id="SVGID_29_" cx="8.0498" cy="-3.2002" r="0.3125" gradientTransform="matrix(-1.5074 0 0 -0.9647 15.6689 -9.9097)" gradientUnits="userSpaceOnUse">
					<stop  offset="0" style="stop-color:#FDC743"/>
					<stop  offset="1" style="stop-color:#B58821"/>
				</radialGradient>
				<path style="fill-rule:evenodd;clip-rule:evenodd;fill:url(#SVGID_29_);" d="M3.534-6.673c0.403,0.05,0.604,0.025,0.604-0.075
					C4.086-6.899,3.886-7,3.534-7.05C3.183-7.05,2.981-7,2.931-6.899C2.881-6.798,3.082-6.723,3.534-6.673z"/>
			</g>
			<g>
				<path style="fill-rule:evenodd;clip-rule:evenodd;fill:#FFF6C4;" d="M75.75-8.45c-0.133-0.167-0.133-0.3,0-0.4
					c0.033-0.1,0.3-0.283,0.8-0.55c0.367-0.167,0.733-0.367,1.1-0.6c0.333-0.167,0.633-0.233,0.9-0.2c0.3,0.067,0.784-0.1,1.45-0.5
					c0.6-0.4,0.933-0.716,1-0.95c-0.067-0.133-0.467-0.05-1.2,0.25c-0.9,0.367-1.45,0.55-1.65,0.55c-0.467,0.033-0.4-0.167,0.2-0.6
					c0.667-0.433,0.95-0.7,0.85-0.8c-0.2-0.167-0.767-0.117-1.7,0.15c-1.067,0.333-1.783,0.417-2.15,0.25
					c-0.267-0.133-1.233,0.033-2.9,0.5L68.1-10.3l-0.35-0.9l-1.35,0.1c-0.5,0-0.833,0.033-1,0.1c-0.367,0.133-0.767,0.283-1.2,0.45
					c-0.467,0.2-0.767,0.283-0.9,0.25c-0.066-0.1-0.2-0.184-0.4-0.25c-0.267-0.067-0.867,0.033-1.8,0.3
					c-0.934,0.3-1.85,0.667-2.75,1.1c-4.333,2.633-7.117,4.433-8.35,5.4c-0.733,0.567-0.817,0.883-0.25,0.95
					c0.367,0.033,1.117,0.017,2.25-0.05c1.1,0.033,4.617-0.5,10.55-1.6c4.3-0.633,6.917-1.083,7.85-1.35
					c0.9-0.233,1.617-0.483,2.15-0.75C72.883-6.717,73.333-7,73.9-7.4c0.3-0.2,0.767-0.417,1.4-0.65
					C75.633-8.183,75.783-8.317,75.75-8.45z"/>
			</g>
			<g>
				
					<linearGradient id="SVGID_30_" gradientUnits="userSpaceOnUse" x1="-2456.8818" y1="-3690.0688" x2="-2444.2449" y2="-3690.0688" gradientTransform="matrix(-0.9259 -0.3779 -0.3779 0.9259 -3591.873 2486.4688)">
					<stop  offset="0" style="stop-color:#ED0101"/>
					<stop  offset="1" style="stop-color:#7E0806"/>
				</linearGradient>
				<path style="fill-rule:evenodd;clip-rule:evenodd;fill:url(#SVGID_30_);" d="M75.25-2.75l-3,1.1c-2.133,0.633-3.5,0.75-4.1,0.35
					c-0.934-0.6-1.4-2.017-1.4-4.25l0.05-2.8c0-0.367,0.15-0.534,0.45-0.5c0.367,0.066,0.617,0.1,0.75,0.1
					c0.2,0,0.816,0.133,1.85,0.4C70.816-8.117,71.533-7.933,72-7.8c0.8,0.233,1.617,0.583,2.45,1.05l1,0.65l0.6,1.05
					c0.133,0.3,0.217,0.767,0.25,1.4L76.25-2.8L75.25-2.75z"/>
				
					<radialGradient id="SVGID_31_" cx="-3358.4219" cy="-8380.4219" r="5.216" gradientTransform="matrix(-0.6926 -0.7213 0.7213 -0.6926 3790.1479 -8229.3877)" gradientUnits="userSpaceOnUse">
					<stop  offset="0" style="stop-color:#F34508"/>
					<stop  offset="1" style="stop-color:#E01C04"/>
				</radialGradient>
				<path style="fill-rule:evenodd;clip-rule:evenodd;fill:url(#SVGID_31_);" d="M75.95-2.55l-2.2,0.8
					c-0.434,0.133-1.167,0.417-2.2,0.85c-0.967,0.367-1.633,0.533-2,0.5c-0.567-0.1-1.117-0.433-1.65-1
					c-0.6-0.7-0.85-1.483-0.75-2.35c0.1-0.667,0.066-1.433-0.1-2.3C66.95-6.65,66.966-7,67.1-7.1c0.2-0.133,0.767-0.067,1.7,0.2
					c1.433,0.434,2.45,0.7,3.05,0.8c1.167,0.2,2.317,0.767,3.45,1.7C76.433-3.433,76.65-2.816,75.95-2.55z"/>
				<path style="fill-rule:evenodd;clip-rule:evenodd;fill:#DF9568;" d="M73.85-2.2c-0.066,0.1-0.1,0.233-0.1,0.4
					c-0.067,0.1-0.35,0.217-0.85,0.35c-0.833,0.2-1.417,0.316-1.75,0.35c-0.7,0.033-1.267-0.617-1.7-1.95
					c-0.033-0.1-0.2-0.483-0.5-1.15c-0.267-0.5-0.383-0.833-0.35-1c0-0.133,0.333-0.017,1,0.35C70.466-4.383,71.2-4.1,71.8-4
					c0.733,0.133,1.3,0.417,1.7,0.85C73.867-2.75,73.983-2.433,73.85-2.2z"/>
				<path style="fill-rule:evenodd;clip-rule:evenodd;fill:#E01C04;" d="M72.2-1.75c-0.566,0-0.983-0.1-1.25-0.3
					c-0.033-0.033-0.167-0.233-0.4-0.6L69.2-4.5c0.667,0.434,1.35,0.833,2.05,1.2c0.533,0.267,0.917,0.6,1.15,1
					C72.633-1.933,72.566-1.75,72.2-1.75z"/>
				
					<radialGradient id="SVGID_32_" cx="26" cy="-18.9502" r="0.375" gradientTransform="matrix(-1 0 0 -1 100.5498 -24.7002)" gradientUnits="userSpaceOnUse">
					<stop  offset="0" style="stop-color:#FDC743"/>
					<stop  offset="1" style="stop-color:#B58821"/>
				</radialGradient>
				<path style="fill-rule:evenodd;clip-rule:evenodd;fill:url(#SVGID_32_);" d="M74.6-5.45c-0.4-0.167-0.566-0.333-0.5-0.5
					c0.067-0.2,0.233-0.217,0.5-0.05c0.233,0.167,0.35,0.317,0.35,0.45C74.95-5.383,74.833-5.35,74.6-5.45z"/>
				
					<radialGradient id="SVGID_33_" cx="28.2002" cy="-20.3501" r="0.45" gradientTransform="matrix(-1 0 0 -1 100.5498 -27.5)" gradientUnits="userSpaceOnUse">
					<stop  offset="0" style="stop-color:#FDC743"/>
					<stop  offset="1" style="stop-color:#B58821"/>
				</radialGradient>
				<path style="fill-rule:evenodd;clip-rule:evenodd;fill:url(#SVGID_33_);" d="M72.6-6.85c-0.367-0.067-0.633-0.2-0.8-0.4
					c-0.133-0.2,0.017-0.25,0.45-0.15c0.4,0.1,0.633,0.233,0.7,0.4C72.983-6.833,72.867-6.783,72.6-6.85z"/>
				
					<radialGradient id="SVGID_34_" cx="29.5498" cy="-20" r="0.325" gradientTransform="matrix(-1 0 0 -1 100.5498 -26.7998)" gradientUnits="userSpaceOnUse">
					<stop  offset="0" style="stop-color:#FDC743"/>
					<stop  offset="1" style="stop-color:#B58821"/>
				</radialGradient>
				<path style="fill-rule:evenodd;clip-rule:evenodd;fill:url(#SVGID_34_);" d="M71.05-6.6c-0.367-0.034-0.533-0.117-0.5-0.25
					c0.067-0.133,0.25-0.167,0.55-0.1c0.267,0.066,0.367,0.15,0.3,0.25C71.333-6.6,71.216-6.566,71.05-6.6z"/>
				
					<radialGradient id="SVGID_35_" cx="32.2495" cy="-21" r="0.4502" gradientTransform="matrix(-1 0 0 -1 100.5498 -28.7998)" gradientUnits="userSpaceOnUse">
					<stop  offset="0" style="stop-color:#FDC743"/>
					<stop  offset="1" style="stop-color:#B58821"/>
				</radialGradient>
				<path style="fill-rule:evenodd;clip-rule:evenodd;fill:url(#SVGID_35_);" d="M68.35-7.55c-0.433-0.133-0.633-0.283-0.6-0.45
					c0.033-0.133,0.216-0.167,0.55-0.1c0.333,0.033,0.517,0.167,0.55,0.4C68.883-7.466,68.716-7.417,68.35-7.55z"/>
			</g>
			<g>
				
					<linearGradient id="SVGID_36_" gradientUnits="userSpaceOnUse" x1="45.6294" y1="-22.9561" x2="34.3286" y2="-18.358" gradientTransform="matrix(-1 0 0 1 104.1504 11.5498)">
					<stop  offset="0" style="stop-color:#ED0101"/>
					<stop  offset="1" style="stop-color:#7E0806"/>
				</linearGradient>
				<path style="fill-rule:evenodd;clip-rule:evenodd;fill:url(#SVGID_36_);" d="M63-11.15c2.267-0.566,3.533-0.85,3.8-0.85
					c0.3-0.067,0.533-0.1,0.7-0.1c0.267,0,0.4,0.15,0.4,0.45l0.05,2.45c0,1.967-0.433,3.217-1.3,3.75c-0.9,0.533-3.133,0.1-6.7-1.3
					l-0.9-0.05C58.95-7.7,59-8.35,59.2-8.75l0.6-0.9C60.734-10.317,61.8-10.817,63-11.15z"/>
				
					<radialGradient id="SVGID_37_" cx="7469.7866" cy="-19672.2559" r="4.7028" gradientTransform="matrix(0.7177 -0.6964 -0.7496 -0.6698 -20042.2441 -7981.5498)" gradientUnits="userSpaceOnUse">
					<stop  offset="0" style="stop-color:#F34508"/>
					<stop  offset="1" style="stop-color:#E01C04"/>
				</radialGradient>
				<path style="fill-rule:evenodd;clip-rule:evenodd;fill:url(#SVGID_37_);" d="M59.351-6.55c-0.667-0.233-0.467-0.767,0.6-1.6
					c1.067-0.833,2.15-1.333,3.25-1.5c0.6-0.1,1.55-0.333,2.85-0.7c0.867-0.233,1.383-0.3,1.55-0.2c0.133,0.1,0.15,0.417,0.05,0.95
					c-0.167,0.733-0.2,1.4-0.1,2c0.1,0.767-0.133,1.45-0.7,2.05C66.384-5.083,65.867-4.8,65.3-4.7c-0.6,0.067-1.9-0.333-3.9-1.2
					C60.634-6.1,59.95-6.317,59.351-6.55z"/>
				<path style="fill-rule:evenodd;clip-rule:evenodd;fill:#DF9568;" d="M61.3-6.25c-0.133-0.233-0.033-0.517,0.3-0.85
					c0.367-0.367,0.9-0.617,1.6-0.75c0.567-0.1,1.25-0.35,2.05-0.75C65.884-8.9,66.2-9,66.2-8.9c0.034,0.133-0.066,0.434-0.3,0.9
					l-0.5,1c-0.1,0.4-0.267,0.75-0.5,1.05c-0.333,0.467-0.7,0.683-1.1,0.65c-0.3-0.033-0.833-0.133-1.6-0.3
					c-0.466-0.1-0.75-0.2-0.85-0.3C61.317-5.967,61.3-6.083,61.3-6.25z"/>
				<path style="fill-rule:evenodd;clip-rule:evenodd;fill:#E01C04;" d="M62.7-6.35c0.2-0.333,0.55-0.617,1.05-0.85l1.9-1.05
					c-0.7,0.833-1.117,1.367-1.25,1.6C64.167-6.317,64.034-6.133,64-6.1c-0.233,0.167-0.617,0.25-1.15,0.25
					C62.517-5.85,62.467-6.017,62.7-6.35z"/>
				
					<radialGradient id="SVGID_38_" cx="43.5" cy="-20.8999" r="0.35" gradientTransform="matrix(1 0 0 -0.9286 17.1504 -28.7559)" gradientUnits="userSpaceOnUse">
					<stop  offset="0" style="stop-color:#FDC743"/>
					<stop  offset="1" style="stop-color:#B58821"/>
				</radialGradient>
				<path style="fill-rule:evenodd;clip-rule:evenodd;fill:url(#SVGID_38_);" d="M60.601-9.1c-0.233,0.066-0.35,0.033-0.35-0.1
					s0.117-0.267,0.35-0.4c0.233-0.133,0.383-0.117,0.45,0.05C61.117-9.383,60.967-9.233,60.601-9.1z"/>
				
					<radialGradient id="SVGID_39_" cx="41.4502" cy="-22.1001" r="0.425" gradientTransform="matrix(1 0 0 -0.9118 21.25 -30.6992)" gradientUnits="userSpaceOnUse">
					<stop  offset="0" style="stop-color:#FDC743"/>
					<stop  offset="1" style="stop-color:#B58821"/>
				</radialGradient>
				<path style="fill-rule:evenodd;clip-rule:evenodd;fill:url(#SVGID_39_);" d="M62.45-10.3c-0.233,0.033-0.333-0.033-0.3-0.2
					c0.033-0.133,0.25-0.233,0.65-0.3c0.4-0.1,0.533-0.066,0.4,0.1C63.034-10.5,62.784-10.367,62.45-10.3z"/>
				
					<radialGradient id="SVGID_40_" cx="40.2002" cy="-21.7998" r="0.3" gradientTransform="matrix(1 0 0 -0.9583 23.75 -31.1406)" gradientUnits="userSpaceOnUse">
					<stop  offset="0" style="stop-color:#FDC743"/>
					<stop  offset="1" style="stop-color:#B58821"/>
				</radialGradient>
				<path style="fill-rule:evenodd;clip-rule:evenodd;fill:url(#SVGID_40_);" d="M63.9-10.1c-0.167,0.033-0.283,0-0.35-0.1
					c-0.066-0.1,0.033-0.167,0.3-0.2c0.3-0.066,0.466-0.05,0.5,0.05C64.384-10.25,64.234-10.167,63.9-10.1z"/>
				
					<radialGradient id="SVGID_41_" cx="37.6504" cy="-22.7002" r="0.4248" gradientTransform="matrix(1 0 0 -0.9118 28.8496 -31.8477)" gradientUnits="userSpaceOnUse">
					<stop  offset="0" style="stop-color:#FDC743"/>
					<stop  offset="1" style="stop-color:#B58821"/>
				</radialGradient>
				<path style="fill-rule:evenodd;clip-rule:evenodd;fill:url(#SVGID_41_);" d="M66.45-10.95c-0.333,0.133-0.483,0.1-0.45-0.1
					c0.033-0.2,0.2-0.316,0.5-0.35c0.333-0.066,0.5-0.033,0.5,0.1C67.034-11.2,66.851-11.083,66.45-10.95z"/>
			</g>
			<g>
				
					<linearGradient id="SVGID_42_" gradientUnits="userSpaceOnUse" x1="13.6768" y1="-3.6748" x2="6.451" y2="-0.7267" gradientTransform="matrix(-1.1193 0 0 1.1193 22.9009 -6.6001)">
					<stop  offset="0" style="stop-color:#ED0101"/>
					<stop  offset="1" style="stop-color:#7E0806"/>
				</linearGradient>
				<path style="fill-rule:evenodd;clip-rule:evenodd;fill:url(#SVGID_42_);" d="M11.036-10.182l3.134-0.448
					c0.224-0.037,0.411-0.056,0.56-0.056c0.223,0,0.335,0.074,0.335,0.223l0.056,1.399c0,1.045-0.373,1.735-1.119,2.071
					c-0.746,0.298-2.574,0.056-5.485-0.728H7.734C7.66-8.242,7.697-8.614,7.846-8.838L8.35-9.342
					C9.134-9.715,10.029-9.995,11.036-10.182z"/>
				
					<radialGradient id="SVGID_43_" cx="4996.9404" cy="-19468.7188" r="2.9885" gradientTransform="matrix(0.9363 -0.6133 -0.9785 -0.5852 -23716.4746 -8336.3477)" gradientUnits="userSpaceOnUse">
					<stop  offset="0" style="stop-color:#F34508"/>
					<stop  offset="1" style="stop-color:#E01C04"/>
				</radialGradient>
				<path style="fill-rule:evenodd;clip-rule:evenodd;fill:url(#SVGID_43_);" d="M7.958-7.607c-0.56-0.149-0.392-0.448,0.504-0.896
					c0.858-0.485,1.753-0.765,2.687-0.839c2.201-0.448,3.433-0.616,3.693-0.503c0.112,0.037,0.13,0.205,0.056,0.503
					c-0.149,0.41-0.187,0.784-0.112,1.119c0.112,0.411-0.075,0.784-0.56,1.119c-0.411,0.299-0.84,0.467-1.287,0.504
					c-0.522,0.038-1.605-0.167-3.246-0.615L7.958-7.607z"/>
				<path style="fill-rule:evenodd;clip-rule:evenodd;fill:#DF9568;" d="M9.582-7.439C9.506-7.588,9.6-7.738,9.861-7.887
					c0.298-0.224,0.746-0.373,1.343-0.447c0.448-0.038,1.026-0.168,1.735-0.392c0.484-0.187,0.727-0.243,0.727-0.167
					c-0.335,0.484-0.56,0.82-0.671,1.007c-0.224,0.672-0.653,0.989-1.287,0.952c-0.335,0-0.802-0.056-1.399-0.168
					C9.936-7.141,9.712-7.197,9.637-7.271C9.6-7.309,9.582-7.364,9.582-7.439z"/>
				<path style="fill-rule:evenodd;clip-rule:evenodd;fill:#E01C04;" d="M10.869-7.215c-0.262,0-0.299-0.093-0.112-0.28
					c0.187-0.187,0.467-0.354,0.839-0.504l1.624-0.56l-1.064,0.895C11.857-7.364,11.428-7.215,10.869-7.215z"/>
				
					<radialGradient id="SVGID_44_" cx="12.3501" cy="-2.2998" r="0.2625" gradientTransform="matrix(1.1193 0 0 -0.6929 -4.7471 -10.7671)" gradientUnits="userSpaceOnUse">
					<stop  offset="0" style="stop-color:#FDC743"/>
					<stop  offset="1" style="stop-color:#B58821"/>
				</radialGradient>
				<path style="fill-rule:evenodd;clip-rule:evenodd;fill:url(#SVGID_44_);" d="M9.021-9.006c-0.187,0.037-0.28,0.019-0.28-0.056
					c0-0.111,0.093-0.187,0.28-0.224c0.187-0.112,0.317-0.112,0.392,0C9.451-9.212,9.32-9.118,9.021-9.006z"/>
				
					<radialGradient id="SVGID_45_" cx="10.8501" cy="-2.8999" r="0.3125" gradientTransform="matrix(1.1193 0 0 -0.7164 -1.3892 -11.9229)" gradientUnits="userSpaceOnUse">
					<stop  offset="0" style="stop-color:#FDC743"/>
					<stop  offset="1" style="stop-color:#B58821"/>
				</radialGradient>
				<path style="fill-rule:evenodd;clip-rule:evenodd;fill:url(#SVGID_45_);" d="M10.588-9.734c-0.224,0.037-0.317,0.019-0.28-0.056
					c0.037-0.074,0.205-0.13,0.504-0.168c0.336-0.037,0.448-0.019,0.336,0.056C11.036-9.827,10.85-9.771,10.588-9.734z"/>
				
					<radialGradient id="SVGID_46_" cx="9.8999" cy="-2.75" r="0.225" gradientTransform="matrix(1.1193 0 0 -0.684 0.7378 -11.5581)" gradientUnits="userSpaceOnUse">
					<stop  offset="0" style="stop-color:#FDC743"/>
					<stop  offset="1" style="stop-color:#B58821"/>
				</radialGradient>
				<path style="fill-rule:evenodd;clip-rule:evenodd;fill:url(#SVGID_46_);" d="M11.764-9.566c-0.634,0-0.653-0.075-0.056-0.224
					c0.261-0.037,0.41-0.019,0.447,0.056C12.193-9.659,12.063-9.603,11.764-9.566z"/>
				
					<radialGradient id="SVGID_47_" cx="8.0498" cy="-3.2002" r="0.3125" gradientTransform="matrix(1.1193 0 0 -0.7164 4.8804 -12.4736)" gradientUnits="userSpaceOnUse">
					<stop  offset="0" style="stop-color:#FDC743"/>
					<stop  offset="1" style="stop-color:#B58821"/>
				</radialGradient>
				<path style="fill-rule:evenodd;clip-rule:evenodd;fill:url(#SVGID_47_);" d="M13.891-10.07
					c-0.299,0.037-0.448,0.019-0.448-0.056c0.038-0.112,0.187-0.187,0.448-0.224c0.261,0,0.411,0.037,0.448,0.112
					C14.375-10.163,14.227-10.107,13.891-10.07z"/>
			</g>
		</g>
		<g id="Layer_3_1_" style="clip-path:url(#SVGID_23_);">
			<path style="fill-rule:evenodd;clip-rule:evenodd;fill-opacity:0.502;" d="M14-7.25c0,0.5-0.5,0.917-1.5,1.25
				c-1.2,0.3-2,0.533-2.4,0.7c-0.167,0.069-0.85,0.736-2.05,2c-1.2,1.259-2.058,1.926-2.575,2C5.396-1.288,5.321-1.28,5.25-1.275
				C5.38-0.741,5.497-0.333,5.6-0.05C5.667-0.017,5.733,0,5.8,0c0.9,0,1.833-0.55,2.8-1.65c1.233-1.367,1.967-2.117,2.2-2.25
				c0.9-0.434,1.95-1.067,3.15-1.9c0.833-0.534,1.633-1,2.4-1.4c-0.643-0.195-1.635-0.52-2.975-0.975C13.792-7.931,14-7.623,14-7.25
				z M67.2-2.6c-0.133-0.1-0.534-0.667-1.2-1.7c-0.233-0.3-1.05-1.017-2.45-2.15c-1.233-1-1.85-1.617-1.85-1.85
				c0-0.424,0.108-0.766,0.325-1.025C61.883-9.249,61.742-9.173,61.6-9.1c-0.934,0.6-1.817,1.15-2.65,1.65
				c1,0.333,1.683,0.633,2.05,0.9c0.4,0.267,1.567,1.183,3.5,2.75c0.5,0.566,1.017,1.133,1.55,1.7c0.967,1.133,1.85,1.7,2.65,1.7
				c0.586,0,1.027-0.267,1.325-0.8C68.932-1.282,67.99-1.749,67.2-2.6z"/>
		</g>
	</g>
</symbol>
<use xlink:href="#crepes"  width="73.196" height="19.483" x="-6.798" y="-19.495" transform="matrix(1 0 0 -1 18.2002 20.7998)" style="overflow:visible;"/>
</svg>
