<?xml version="1.0" encoding="iso-8859-1"?>
<!-- Generator: Adobe Illustrator 15.1.0, SVG Export Plug-In . SVG Version: 6.00 Build 0)  -->
<!DOCTYPE svg PUBLIC "-//W3C//DTD SVG 1.1//EN" "http://www.w3.org/Graphics/SVG/1.1/DTD/svg11.dtd">
<svg version="1.1" id="flash0.ai" xmlns="http://www.w3.org/2000/svg" xmlns:xlink="http://www.w3.org/1999/xlink" x="0px" y="0px"
	 width="39.9px" height="53.65px" viewBox="0 0 39.9 53.65" style="enable-background:new 0 0 39.9 53.65;" xml:space="preserve">
<symbol  id="flash0.ai_x5F_2_x2F_Layer_32_copy_x2F__x3C_Path_x3E__x5F_22" viewBox="0 -5.8 22.4 5.8">
	<g id="Layer_1_7_">
		<path style="fill-rule:evenodd;clip-rule:evenodd;fill:#FFFFFF;" d="M22.4-2.9c0-0.8-1.1-1.483-3.3-2.05
			c-2.2-0.566-4.833-0.85-7.9-0.85c-3.1,0-5.733,0.283-7.9,0.85C1.1-4.383,0-3.7,0-2.9c0,0.8,1.1,1.483,3.3,2.05
			C5.467-0.283,8.1,0,11.2,0c3.066,0,5.7-0.283,7.9-0.85C21.3-1.417,22.4-2.1,22.4-2.9z"/>
	</g>
</symbol>
<symbol  id="flash0.ai_x5F_2_x2F_Layer_32_copy_x2F__x3C_Path_x3E__x5F_24" viewBox="0 -41.15 22.738 41.15">
	<g id="Layer_1_6_">
		<path style="fill-rule:evenodd;clip-rule:evenodd;fill:#FFFFFF;" d="M22.55,0c0.233-3.6,0.25-7.517,0.05-11.75
			c-0.367-8.5-1.65-14.367-3.85-17.6c-1.833-2.7-3.033-5.3-3.6-7.8c-0.3-1.267-0.417-2.25-0.35-2.95l-0.4-0.5
			c-0.566-0.367-1.566-0.533-3-0.5v-0.05h-0.1v0.05c-1.4-0.033-2.383,0.133-2.95,0.5L7.9-40.1c0.067,0.7-0.033,1.684-0.3,2.95
			c-0.6,2.5-1.8,5.1-3.6,7.8c-2.067,3-3.333,8.333-3.8,16c-0.267,4.5-0.267,8.8,0,12.9c0.2-0.767,1.367-1.4,3.5-1.9
			c2.133-0.533,4.683-0.8,7.65-0.8c3.066,0,5.7,0.283,7.9,0.85c2.2,0.566,3.3,1.25,3.3,2.05L22.5,0H22.55z"/>
	</g>
</symbol>
<symbol  id="flash0.ai_x5F_2_x2F_Layer_32_copy_x2F__x3C_Path_x3E__x5F_25" viewBox="0 -7.7 20.1 7.7">
	<g id="Layer_1_5_">
		<path style="fill-rule:evenodd;clip-rule:evenodd;fill:#E3E3E3;" d="M18.7-2.8c0.733-0.534,1.2-0.934,1.4-1.2
			c-0.233-0.367-0.65-0.767-1.25-1.2C17.583-6.1,15.967-6.8,14-7.3c-0.567-0.167-1.267-0.284-2.1-0.35V-7.7H8.25v0.05
			C7.417-7.583,6.7-7.467,6.1-7.3C4.133-6.8,2.533-6.1,1.3-5.2C0.667-4.767,0.233-4.367,0-4c0.233,0.267,0.717,0.667,1.45,1.2
			c0.4,0.333,2.2,1.267,5.4,2.8c-1.133-0.8-2-1.45-2.6-1.95c-0.433-0.367-0.667-0.7-0.7-1c-0.066-0.333,0.067-0.733,0.4-1.2
			C4.517-5.017,5.133-5.6,5.8-5.9c0.7-0.3,1.817-0.517,3.35-0.65c1.567-0.133,3.184,0.033,4.85,0.5c1.7,0.433,2.917,1.033,3.65,1.8
			c0.567,0.533,0.583,1.233,0.05,2.1C18.333-2.55,18.667-2.767,18.7-2.8z"/>
	</g>
</symbol>
<symbol  id="flash0.ai_x5F_2_x2F_Layer_32_copy_x2F__x3C_Path_x3E__x5F_26" viewBox="0 -8.5 20.1 8.5">
	<g id="Layer_1_4_">
		
			<linearGradient id="SVGID_1_" gradientUnits="userSpaceOnUse" x1="16.3994" y1="-16326.9707" x2="24.7244" y2="-16326.9707" gradientTransform="matrix(1.201201e-004 -1 1 -0.001 16337.0195 -0.165)">
			<stop  offset="0" style="stop-color:#7A7A7A"/>
			<stop  offset="1" style="stop-color:#FFFFFF"/>
		</linearGradient>
		<path style="fill-rule:evenodd;clip-rule:evenodd;fill:url(#SVGID_1_);" d="M18.7-3.6c0.733-0.533,1.2-0.933,1.4-1.2
			c-0.233-0.367-0.65-0.767-1.25-1.2C17.583-6.9,15.967-7.6,14-8.1c-0.567-0.167-1.267-0.283-2.1-0.35V-8.5H8.25v0.05
			C7.417-8.383,6.7-8.267,6.1-8.1C4.133-7.6,2.533-6.9,1.3-6C0.667-5.567,0.233-5.167,0-4.8c0.233,0.267,0.717,0.667,1.45,1.2
			c0.733,0.567,2.733,1.567,6,3l2.7,0.6l2.5-0.6l2.6-1.2C17.083-2.633,18.233-3.233,18.7-3.6z"/>
	</g>
</symbol>
<symbol  id="flash0.ai_x5F_2_x2F_Layer_32_copy_x2F__x3C_Path_x3E__x5F_27" viewBox="0 -4.361 20.05 4.361">
	<g id="Layer_1_3_">
		<path style="fill-rule:evenodd;clip-rule:evenodd;fill:#FFFFFF;" d="M14-3.25c1.767,0.433,3.25,1.05,4.45,1.85
			c0.733,0.467,1.267,0.917,1.6,1.35v-0.3c-0.133-0.333-0.383-0.683-0.75-1.05c-2.233-1.867-5.2-2.85-8.9-2.95
			c-2.867-0.1-5.467,0.5-7.8,1.8C1.467-1.917,0.6-1.267,0-0.6v0.55L0.05,0C0.317-0.4,0.8-0.85,1.5-1.35
			c1.233-0.8,2.767-1.433,4.6-1.9C6.7-3.417,7.417-3.533,8.25-3.6v-0.05h3.65v0.05C12.733-3.533,13.433-3.417,14-3.25z"/>
	</g>
</symbol>
<symbol  id="flash0.ai_x5F_2_x2F_Layer_32_copy_x2F__x3C_Path_x3E__x5F_28" viewBox="-0.03 -4.9 20.305 4.9">
	<g id="Layer_1_2_">
		<path style="fill-rule:evenodd;clip-rule:evenodd;fill:#5E473C;" d="M20.15-1.2c-0.233-0.367-0.65-0.767-1.25-1.2
			c-1.267-0.9-2.883-1.6-4.85-2.1c-0.566-0.167-1.267-0.283-2.1-0.35V-4.9H8.3v0.05C7.5-4.783,6.783-4.667,6.15-4.5
			C4.183-4,2.583-3.3,1.35-2.4c-0.633,0.433-1.067,0.833-1.3,1.2c-0.133,0.434-0.1,0.817,0.1,1.15c1.067-1.4,3.067-2.467,6-3.2
			C6.75-3.417,7.467-3.533,8.3-3.6v-0.05h3.65v0.05c0.833,0.067,1.533,0.184,2.1,0.35c1.833,0.467,3.35,1.1,4.55,1.9
			c0.733,0.467,1.25,0.917,1.55,1.35C20.317-0.267,20.317-0.667,20.15-1.2z"/>
	</g>
</symbol>
<symbol  id="flash0.ai_x5F_2_x2F_Layer_32_copy_x2F__x3C_Path_x3E__x5F_6" viewBox="-0.178 -25.717 4.821 25.717">
	<g id="Layer_1_10_">
		
			<linearGradient id="SVGID_2_" gradientUnits="userSpaceOnUse" x1="17.5825" y1="-16335.335" x2="36.4575" y2="-16335.335" gradientTransform="matrix(5.298014e-005 -1 1 -0.001 16337.5684 -0.165)">
			<stop  offset="0" style="stop-color:#FFFFFF"/>
			<stop  offset="1" style="stop-color:#000000"/>
		</linearGradient>
		<path style="fill-rule:evenodd;clip-rule:evenodd;fill:url(#SVGID_2_);" d="M2.1-0.5L4.35,0L4.6-6.4c0.2-6-0.3-10.75-1.5-14.25
			c-0.667-1.967-1.483-3.45-2.45-4.45c-1.033-1.066-1.1-0.75-0.2,0.95c1.267,2.433,1.9,5.183,1.9,8.25L2.1-0.5z"/>
	</g>
</symbol>
<symbol  id="flash0.ai_x5F_2_x2F_Layer_32_copy_x2F__x3C_Path_x3E__x5F_7" viewBox="0.037 -29.688 7.5 29.688">
	<g id="Layer_1_9_">
		<linearGradient id="SVGID_3_" gradientUnits="userSpaceOnUse" x1="-2.0127" y1="-14.8442" x2="4.6123" y2="-14.8442">
			<stop  offset="0" style="stop-color:#FFFFFF"/>
			<stop  offset="1" style="stop-color:#000000"/>
		</linearGradient>
		<path style="fill-rule:evenodd;clip-rule:evenodd;fill:url(#SVGID_3_);" d="M0.15,0L4.5-1.5c1.767-10.667,2.767-18.583,3-23.75
			c0.167-3.233-0.217-4.7-1.15-4.4l-1.45,1.4l-1,1.5c-0.633,0.967-1.283,2.433-1.95,4.4c-0.8,2.5-1.317,5.033-1.55,7.6
			S0.05-9.1,0.05-5.5C0.017-2.333,0.05-0.5,0.15,0z"/>
	</g>
</symbol>
<symbol  id="flash0.ai_x5F_2_x2F_Layer_32_copy_x2F__x3C_Path_x3E__x5F_8" viewBox="-0.008 -9.358 18.208 9.358">
	<g id="Layer_1_8_">
		<path style="fill-rule:evenodd;clip-rule:evenodd;fill:#FF3E03;" d="M16.7-2c0.333-0.267,0.466-0.667,0.4-1.2
			c-0.033-0.3-0.15-0.8-0.35-1.5c-0.167-0.767-0.55-1.35-1.15-1.75l1,0.1c0.367,0.033,0.717-0.017,1.05-0.15
			C18.017-6.633,18.2-6.8,18.2-7c0-0.233-0.117-0.467-0.35-0.7c-0.267-0.233-0.533-0.3-0.8-0.2c-0.167,0.066-0.533,0-1.1-0.2
			c-0.7-0.233-1.333-0.35-1.9-0.35c-1.267-0.033-1.5,0.467-0.7,1.5c0.233,0.267,0.667,0.784,1.3,1.55
			c0.567,0.7,0.917,1.233,1.05,1.6c0.133,0.4,0.017,0.733-0.35,1c-0.333,0.233-0.7,0.267-1.1,0.1c-0.533-0.267-0.967-0.483-1.3-0.65
			c-0.6-0.333-1.133-0.717-1.6-1.15c-0.333-0.333-0.767-1-1.3-2C9.55-7.433,9.1-8.083,8.7-8.45c-0.567-0.5-1.034-0.8-1.4-0.9
			c-0.267-0.033-0.617,0.033-1.05,0.2c-0.333,0.133-0.5,0.417-0.5,0.85c0,0.2,0.067,0.633,0.2,1.3c0.133,0.6,0.566,1.483,1.3,2.65
			c0.533,0.8,1.517,1.817,2.95,3.05c0.533,0.433,0.667,0.65,0.4,0.65c-1,0.033-1.867-0.133-2.6-0.5c-0.967-0.5-1.983-1.434-3.05-2.8
			C4.15-4.95,3.6-5.6,3.3-5.9C2.6-6.633,1.95-7.017,1.35-7.05C0.75-7.117,0.383-7.1,0.25-7C0.183-6.933,0.1-6.7,0-6.3
			c-0.067,0.367,0.3,1.117,1.1,2.25C1.867-3.017,2.333-2.467,2.5-2.4c0.167,0.066,0.483,0.316,0.95,0.75
			c0.5,0.467,0.867,0.75,1.1,0.85C5.117-0.6,5.467-0.517,5.6-0.55c0.167-0.067,0.167-0.167,0-0.3C5.367-1.017,5.25-1.133,5.25-1.2
			c-0.033-0.1-0.233-0.3-0.6-0.6c-0.5-0.367-0.867-0.633-1.1-0.8c-0.267-0.233-0.7-0.733-1.3-1.5c-0.467-0.633-0.767-1.066-0.9-1.3
			C1.317-5.5,1.333-5.567,1.4-5.6c0.033,0,0.133-0.033,0.3-0.1c0.267-0.1,0.867,0.483,1.8,1.75c1.333,1.667,2.583,2.767,3.75,3.3
			c0.667,0.3,1.467,0.5,2.4,0.6c0.733,0.066,1.3,0.066,1.7,0c0.633-0.1,0.767-0.5,0.4-1.2c-0.1-0.267-0.517-0.717-1.25-1.35
			C9.233-3.733,8.483-4.417,8.25-4.65c-0.667-0.667-1.067-1.4-1.2-2.2c-0.066-0.4-0.066-0.733,0-1l0.4,0.35
			C7.75-7.2,8.4-6.283,9.4-4.75c0.867,1.267,1.967,2.133,3.3,2.6c0.667,0.233,1.367,0.383,2.1,0.45C15.7-1.633,16.333-1.733,16.7-2z
			"/>
	</g>
</symbol>
<g>
	
		<use xlink:href="#flash0.ai_x5F_2_x2F_Layer_32_copy_x2F__x3C_Path_x3E__x5F_28"  width="20.305" height="4.9" x="-0.03" y="-4.9" transform="matrix(0.75 0 0 -0.75 12.2002 49.9502)" style="overflow:visible;opacity:0.3789;enable-background:new    ;"/>
	
		<use xlink:href="#flash0.ai_x5F_2_x2F_Layer_32_copy_x2F__x3C_Path_x3E__x5F_27"  width="20.05" height="4.361" y="-4.361" transform="matrix(0.75 0 0 -0.75 12.25 49.9502)" style="overflow:visible;opacity:0.4883;enable-background:new    ;"/>
	
		<use xlink:href="#flash0.ai_x5F_2_x2F_Layer_32_copy_x2F__x3C_Path_x3E__x5F_26"  width="20.1" height="8.5" y="-8.5" transform="matrix(0.75 0 0 -0.75 12.25 46.2998)" style="overflow:visible;opacity:0.3789;enable-background:new    ;"/>
	
		<use xlink:href="#flash0.ai_x5F_2_x2F_Layer_32_copy_x2F__x3C_Path_x3E__x5F_25"  width="20.1" height="7.7" y="-7.7" transform="matrix(0.75 0 0 -0.75 12.25 46.9004)" style="overflow:visible;opacity:0.2305;enable-background:new    ;"/>
	
		<use xlink:href="#flash0.ai_x5F_2_x2F_Layer_32_copy_x2F__x3C_Path_x3E__x5F_24"  width="22.738" height="41.15" x="0" y="-41.15" transform="matrix(0.75 0 0 -0.75 11.4502 18.7002)" style="overflow:visible;opacity:0.2813;enable-background:new    ;"/>
	
		<radialGradient id="SVGID_4_" cx="21.8877" cy="-8.3516" r="22.7022" gradientTransform="matrix(-0.0103 0.7499 0.3911 0.0054 20.9795 16.8307)" gradientUnits="userSpaceOnUse">
		<stop  offset="0" style="stop-color:#FFEF9C"/>
		<stop  offset="1" style="stop-color:#CCB04B"/>
	</radialGradient>
	<path style="fill-rule:evenodd;clip-rule:evenodd;fill:url(#SVGID_4_);" d="M27.987,29.862c-0.274,4.801-1.187,8.413-2.737,10.838
		c-1.3,2.025-2.15,3.975-2.55,5.85c-0.2,0.95-0.275,1.688-0.225,2.213l-0.301,0.375c-0.399,0.274-1.1,0.399-2.1,0.375v0.037H20
		v-0.037c-1,0.024-1.7-0.101-2.1-0.375l-0.3-0.375c0.05-0.525-0.025-1.263-0.226-2.213c-0.425-1.875-1.288-3.824-2.587-5.85
		c-1.45-2.274-2.363-5.413-2.738-9.412c-0.2-2.226-0.212-4.588-0.037-7.088c0.225,1,2.888,1.5,7.987,1.5c2.2,0,4.088-0.2,5.663-0.6
		c1.262-0.336,2.024-0.723,2.287-1.163C28.089,25.717,28.102,27.692,27.987,29.862z M27.95,23.938
		c-0.01-0.179-0.022-0.354-0.037-0.524l0.149,0.149C28.063,23.689,28.025,23.814,27.95,23.938z"/>
	
		<use xlink:href="#flash0.ai_x5F_2_x2F_Layer_32_copy_x2F__x3C_Path_x3E__x5F_22"  width="22.4" height="5.8" y="-5.8" transform="matrix(0.75 0 0 -0.75 11.5498 16.7002)" style="overflow:visible;opacity:0.3398;enable-background:new    ;"/>
	<path style="fill-rule:evenodd;clip-rule:evenodd;fill:#FFFBF5;" d="M27.575,23.075c0.5,0.275,0.487,0.75-0.037,1.425
		c-0.601,0.75-1.613,1.413-3.038,1.987c-1.225,0.5-2.938,0.763-5.138,0.788c-2.175,0.05-3.938-0.15-5.287-0.601
		c-0.925-0.3-1.55-0.725-1.875-1.274c-0.175-0.3-0.263-0.7-0.263-1.2c0-0.225,0.263-0.375,0.788-0.45
		c0.8-0.1,1.274-0.188,1.425-0.263c2.024-0.174,4.1-0.337,6.225-0.487C24.65,22.75,27.05,22.775,27.575,23.075z"/>
	
		<linearGradient id="SVGID_5_" gradientUnits="userSpaceOnUse" x1="1.2876" y1="10.0767" x2="48.6126" y2="10.0767" gradientTransform="matrix(0.75 0 0 0.75 11.4502 16.7002)">
		<stop  offset="0" style="stop-color:#FFEF9C"/>
		<stop  offset="1" style="stop-color:#CCB04B"/>
	</linearGradient>
	<path style="fill-rule:evenodd;clip-rule:evenodd;fill:url(#SVGID_5_);" d="M13.925,26.338c-0.725-0.175-1.274-0.587-1.649-1.237
		c-0.375-0.676-0.338-1.238,0.112-1.688c0.725-0.75,2.2-1.213,4.425-1.388c0.675-0.05,1.726-0.188,3.15-0.413
		c1.375-0.149,2.612-0.162,3.712-0.037c2.775,0.35,4.188,1.013,4.238,1.987c0.024,0.85-1.138,1.712-3.488,2.588
		C21.4,27.25,17.9,27.313,13.925,26.338z"/>
	<path style="fill-rule:evenodd;clip-rule:evenodd;fill:#FFFAF2;" d="M14.375,21.8c1.275,0.8,2.362,1.588,3.263,2.363
		c1.775,1.55,1.7,2.287-0.225,2.212c-2.025-0.05-3.425-0.487-4.2-1.313c-0.55-0.6-0.725-1.274-0.525-2.024
		C12.888,22.313,13.45,21.9,14.375,21.8z"/>
	
		<linearGradient id="SVGID_6_" gradientUnits="userSpaceOnUse" x1="1.9502" y1="9.21" x2="20.0502" y2="9.21" gradientTransform="matrix(0.75 0 0 0.75 11.4502 16.7002)">
		<stop  offset="0" style="stop-color:#FFEF9C"/>
		<stop  offset="1" style="stop-color:#CCB04B"/>
	</linearGradient>
	<path style="fill-rule:evenodd;clip-rule:evenodd;fill:url(#SVGID_6_);" d="M14.375,21.8c1.775-0.75,3.638-1.137,5.588-1.162
		c1.35-0.025,2.938,0.137,4.763,0.487c1.374,0.3,1.962,0.913,1.762,1.838c-0.2,0.899-1.012,1.775-2.438,2.625
		c-1.225,0.75-2.962,1.075-5.212,0.975c-2-0.1-3.45-0.425-4.351-0.975c-1.149-0.7-1.662-1.438-1.537-2.213
		C13.05,22.7,13.525,22.175,14.375,21.8z"/>
	<path style="fill-rule:evenodd;clip-rule:evenodd;fill:#FFFAF2;" d="M16.4,20.413l1.087,1.837c0.525,1.2,0.313,1.8-0.637,1.8
		c-1.051,0-1.825-0.25-2.325-0.75C14.1,22.9,13.925,22.425,14,21.875c0.075-0.4,0.5-0.762,1.275-1.087
		C15.65,20.613,16.025,20.487,16.4,20.413z"/>
	
		<linearGradient id="SVGID_7_" gradientUnits="userSpaceOnUse" x1="3.7251" y1="7.2065" x2="15.6751" y2="7.2065" gradientTransform="matrix(0.75 0 0 0.75 11.4502 16.7002)">
		<stop  offset="0" style="stop-color:#FFEF9C"/>
		<stop  offset="1" style="stop-color:#CCB04B"/>
	</linearGradient>
	<path style="fill-rule:evenodd;clip-rule:evenodd;fill:url(#SVGID_7_);" d="M16.55,20.487c1.65-0.35,2.863-0.5,3.638-0.449
		c0.5,0,1.288,0.174,2.362,0.524c0.95,0.275,0.976,0.875,0.075,1.8c-0.925,0.951-2.15,1.513-3.675,1.688
		c-1.35,0.175-2.287,0.175-2.813,0c-0.475-0.149-1-0.563-1.575-1.237c-0.475-0.575-0.437-1.087,0.112-1.537
		C15.1,20.925,15.726,20.663,16.55,20.487z"/>
	<path style="fill-rule:evenodd;clip-rule:evenodd;fill:#E3E3E3;" d="M14.563,48.913c0,0.399,0.063,0.725,0.188,0.975
		c0.125,0.25,0.388,0.563,0.788,0.938c0.475,0.45,0.725,0.737,0.75,0.862c0.05,0.2-0.275,0.2-0.976,0
		c-0.725-0.199-1.337-0.475-1.837-0.825c-0.4-0.274-0.663-0.537-0.788-0.787c-0.1-0.2,0.188-0.513,0.862-0.938
		C14.226,48.713,14.563,48.638,14.563,48.913z"/>
	<path style="fill-rule:evenodd;clip-rule:evenodd;fill:#E3E3E3;" d="M23.112,51.575c1.025-0.101,1.388-0.013,1.088,0.263
		s-0.787,0.45-1.463,0.524c-0.5,0.075-0.637-0.024-0.412-0.3C22.55,51.763,22.813,51.6,23.112,51.575z"/>
	<path style="fill-rule:evenodd;clip-rule:evenodd;fill:#FFFACF;" d="M15.125,21.8c0.375-0.024,0.613,0.013,0.713,0.113
		c0.075,0.074,0.112,0.25,0.112,0.524c0,0.325,0.462,0.425,1.388,0.3c-0.575,0.4-1.175,0.5-1.8,0.301
		c-0.425-0.125-0.663-0.363-0.713-0.713C14.775,22,14.875,21.825,15.125,21.8z"/>
	<path style="fill-rule:evenodd;clip-rule:evenodd;fill:#FFFACF;" d="M14.375,23.75c1.45,1.025,2.713,1.538,3.788,1.538
		c-0.25,0.2-1.013,0.25-2.288,0.149c-0.825-0.075-1.388-0.25-1.688-0.524c-0.149-0.1-0.313-0.363-0.487-0.788
		c-0.1-0.25-0.075-0.425,0.075-0.524C13.9,23.525,14.1,23.575,14.375,23.75z"/>
	<path style="fill-rule:evenodd;clip-rule:evenodd;fill:#FAF09B;" d="M23.862,22.663c0.501,0,0.65,0.137,0.45,0.412
		c-0.225,0.275-0.475,0.388-0.75,0.338c-0.25-0.025-0.324-0.163-0.225-0.413C23.413,22.775,23.588,22.663,23.862,22.663z"/>
	<path style="fill-rule:evenodd;clip-rule:evenodd;fill:#FAF09B;" d="M26.713,23.413c0.725-0.025,0.975,0.112,0.75,0.412
		c-0.226,0.3-0.5,0.475-0.825,0.525c-0.225,0.05-0.325-0.1-0.3-0.45C26.363,23.575,26.487,23.413,26.713,23.413z"/>
	<path style="fill-rule:evenodd;clip-rule:evenodd;fill:#FAF09B;" d="M22.625,23.675c0.475-0.149,0.726-0.062,0.75,0.263
		c0.025,0.325-0.162,0.487-0.563,0.487c-0.324,0-0.475-0.112-0.45-0.337C22.362,23.888,22.45,23.75,22.625,23.675z"/>
	
		<use xlink:href="#flash0.ai_x5F_2_x2F_Layer_32_copy_x2F__x3C_Path_x3E__x5F_8"  width="18.208" height="9.358" x="-0.008" y="-9.358" transform="matrix(0.75 0 0 -0.75 12.6001 19.6499)" style="overflow:visible;opacity:0.7891;enable-background:new    ;"/>
	
		<use xlink:href="#flash0.ai_x5F_2_x2F_Layer_32_copy_x2F__x3C_Path_x3E__x5F_7"  width="7.5" height="29.688" x="0.037" y="-29.688" transform="matrix(0.75 0 0 -0.75 13.0498 19.6499)" style="overflow:visible;opacity:0.6602;enable-background:new    ;"/>
	
		<use xlink:href="#flash0.ai_x5F_2_x2F_Layer_32_copy_x2F__x3C_Path_x3E__x5F_6"  width="4.821" height="25.717" x="-0.178" y="-25.717" transform="matrix(0.75 0 0 -0.75 23.4004 20)" style="overflow:visible;opacity:0.4414;enable-background:new    ;"/>
	<path style="fill-rule:evenodd;clip-rule:evenodd;fill:#C9C9C9;" d="M19.963,16.7c2.3,0,4.274,0.212,5.925,0.638
		c1.65,0.425,2.475,0.938,2.475,1.537c0,0.601-0.824,1.113-2.475,1.538c-1.65,0.425-3.625,0.637-5.925,0.637
		c-2.325,0-4.3-0.212-5.925-0.637c-1.65-0.425-2.476-0.938-2.476-1.538c0-0.6,0.825-1.112,2.476-1.537
		C15.663,16.913,17.638,16.7,19.963,16.7z M20.038,20.45c2.1,0,3.887-0.163,5.362-0.487c1.475-0.325,2.212-0.725,2.212-1.2
		c0-0.45-0.737-0.837-2.212-1.162c-1.476-0.325-3.263-0.488-5.362-0.488c-2.101,0-3.888,0.163-5.363,0.488
		c-1.5,0.325-2.25,0.712-2.25,1.162c0,0.475,0.75,0.875,2.25,1.2C16.15,20.288,17.938,20.45,20.038,20.45z"/>
	<path style="fill-rule:evenodd;clip-rule:evenodd;fill:#C9C9C9;" d="M27.95,19.362c-0.5,0.525-1.55,0.938-3.15,1.238
		c-1.475,0.3-3.1,0.449-4.875,0.449c-2.875,0-5.137-0.325-6.787-0.975c-0.55-0.2-0.95-0.425-1.2-0.675
		c-0.175,3.5-0.149,6.862,0.075,10.087c0.375,5.226,1.262,8.913,2.662,11.063c1.351,2.025,2.238,3.987,2.663,5.888
		c0.225,0.95,0.313,1.726,0.263,2.325c0.024,0.125,0.188,0.25,0.487,0.375c0.4,0.15,0.975,0.225,1.725,0.225h0.263
		c0.774,0,1.362-0.074,1.763-0.225c0.275-0.125,0.425-0.25,0.45-0.375c-0.051-0.6,0.037-1.375,0.262-2.325
		c0.426-1.9,1.313-3.862,2.663-5.888c1.4-2.124,2.287-5.837,2.662-11.137C28.101,26.088,28.125,22.737,27.95,19.362z M28.362,27.688
		c-0.3,6.275-1.249,10.625-2.85,13.05c-1.3,1.976-2.162,3.9-2.588,5.775c-0.225,0.95-0.313,1.688-0.262,2.213
		c0,0.2-0.126,0.388-0.375,0.563c-0.426,0.274-1.163,0.412-2.213,0.412H20v0.037L19.813,49.7c-1.025,0-1.763-0.138-2.212-0.412
		c-0.25-0.15-0.375-0.325-0.375-0.525c0.05-0.55-0.025-1.3-0.226-2.25c-0.425-1.875-1.3-3.8-2.625-5.775
		c-1.5-2.274-2.425-6.262-2.774-11.962c-0.201-3.2-0.201-6.513,0-9.938l0.337-0.038c0.125,0.475,0.9,0.9,2.325,1.275
		c1.575,0.4,3.462,0.6,5.662,0.6c2.25,0,4.176-0.212,5.775-0.637c1.476-0.4,2.213-0.85,2.213-1.351v-0.112l-0.075-0.263l0.412,0.038
		l0.038,0.149C28.488,21.475,28.513,24.538,28.362,27.688z"/>
	<path style="fill-rule:evenodd;clip-rule:evenodd;fill:#FFD5C2;" d="M13.438,23c0.55-0.65,0.613-0.625,0.188,0.075
		c-0.175,0.175-0.35,0.5-0.524,0.975c-0.05,0.125-0.038,0.238,0.037,0.338c0.05,0.05,0.05,0.075,0,0.075
		c-0.175,0-0.275-0.125-0.3-0.375C12.813,23.913,13.013,23.55,13.438,23z"/>
	<path style="fill-rule:evenodd;clip-rule:evenodd;fill:#FFD5C2;" d="M14.976,23.525c0.5-0.7,0.924-1.225,1.274-1.575
		c0.175-0.175,0.163-0.125-0.037,0.15c-0.125,0.174-0.35,0.487-0.675,0.938c-0.45,0.675-0.863,1.037-1.238,1.087
		C14.625,23.875,14.85,23.675,14.976,23.525z"/>
	<path style="fill-rule:evenodd;clip-rule:evenodd;fill:#FFD5C2;" d="M18.313,22.925c0.25-0.225,0.45-0.387,0.601-0.487
		l-0.075,0.075c-0.325,0.275-0.625,0.65-0.9,1.125c-0.075,0.1-0.2,0.35-0.375,0.75c-0.1,0.2-0.137,0.212-0.112,0.037
		c0.025-0.2,0.137-0.475,0.338-0.824C17.962,23.3,18.138,23.075,18.313,22.925z"/>
	<path style="fill-rule:evenodd;clip-rule:evenodd;fill:#FFD5C2;" d="M17.601,25.813c0.25,0.025,0.437,0.025,0.563,0
		c0.074-0.025,0.212-0.087,0.412-0.188c0.2-0.05,0.225-0.025,0.075,0.075c-0.15,0.125-0.363,0.238-0.638,0.338
		c-0.475,0.2-0.713,0.1-0.713-0.301c0-0.05,0.025-0.062,0.075-0.037C17.45,25.775,17.525,25.813,17.601,25.813z"/>
	<path style="fill-rule:evenodd;clip-rule:evenodd;fill:#FFD5C2;" d="M22.588,21.313c0.375-0.05,0.524-0.062,0.45-0.037
		c-0.351,0.125-0.55,0.2-0.601,0.225c-0.2,0.075-0.5,0.25-0.899,0.525l-0.563,0.412l0.524-0.563
		C21.8,21.575,22.162,21.388,22.588,21.313z"/>
	<path style="fill-rule:evenodd;clip-rule:evenodd;fill:#FFD5C2;" d="M23.112,24.913c0.2-0.226,0.313-0.313,0.338-0.263
		l-0.037,0.263c-0.025,0.125,0.237,0.149,0.787,0.074c0.175-0.024-0.138,0.063-0.938,0.263C22.912,25.3,22.863,25.188,23.112,24.913
		z"/>
</g>
</svg>
