<?xml version="1.0" encoding="iso-8859-1"?>
<!-- Generator: Adobe Illustrator 15.1.0, SVG Export Plug-In . SVG Version: 6.00 Build 0)  -->
<!DOCTYPE svg PUBLIC "-//W3C//DTD SVG 1.1//EN" "http://www.w3.org/Graphics/SVG/1.1/DTD/svg11.dtd">
<svg version="1.1" id="Layer_1" xmlns="http://www.w3.org/2000/svg" xmlns:xlink="http://www.w3.org/1999/xlink" x="0px" y="0px"
	 width="59.4px" height="45.25px" viewBox="0 0 59.4 45.25" style="enable-background:new 0 0 59.4 45.25;" xml:space="preserve">
<symbol  id="sovietegg" viewBox="0 -151.1 219.184 151.1">
	<g id="Layer_1_2_">
		
			<radialGradient id="SVGID_1_" cx="75.0498" cy="-40.0498" r="200.05" gradientTransform="matrix(1 0 0 0.653 0 -13.8989)" gradientUnits="userSpaceOnUse">
			<stop  offset="0" style="stop-color:#F1E8E4"/>
			<stop  offset="1" style="stop-color:#99857B"/>
		</radialGradient>
		<path style="fill-rule:evenodd;clip-rule:evenodd;fill:url(#SVGID_1_);" d="M219.15-75.55c0.633-15.567-9.15-30.5-29.35-44.8
			c-26.233-18.633-55.15-28.883-86.75-30.75c-27.833,0.533-51.75,8.017-71.75,22.45C10.4-114.083-0.033-96.383,0-75.55
			C-0.033-54.417,10.4-36.667,31.3-22.3C51.233-7.6,75.15-0.167,103.05,0c28.367-0.333,55.767-9.233,82.2-26.7
			C208.583-42.067,219.883-58.35,219.15-75.55z"/>
	</g>
	<g id="Layer_2_2_">
		<path style="fill-rule:evenodd;clip-rule:evenodd;fill:#990000;" d="M169.5-132.85c-2.371,2.255-3.705,3.555-4,3.9
			c-5.333,6.267-8.833,11.25-10.5,14.95c-2.233,5-4.233,11.633-6,19.9c-1.667,7.9-2.5,14.267-2.5,19.1
			c0,15.6,2.35,27.783,7.05,36.55c2.926,5.48,8.81,12.214,17.65,20.2l4.7-2.65c-5.589-4.165-10.156-9.782-13.7-16.85
			c-5.8-11.5-8.7-24.25-8.7-38.25c0-5.2,1.1-12.417,3.3-21.65c2.1-8.733,3.833-14.017,5.2-15.85c2.867-3.833,6.2-7.4,10-10.7
			c0.953-0.826,2.786-2.209,5.5-4.15L169.5-132.85z M53.125-27.925C53.042-28.214,53-28.49,53-28.75c0-1.133,1.017-2.333,3.05-3.6
			c0.228-0.143,0.453-0.276,0.675-0.4c1.749-0.99,3.515-1.615,5.3-1.875C64.686-34.208,67.011-34,69-34
			c1.612,0,3.162-0.108,4.65-0.325c0.621,0.258,1.238,0.534,1.85,0.825c2.675,1.278,4.75,2.586,6.225,3.925
			c4.715-2.203,8.624-4.844,11.725-7.925c6.367-6.3,9.55-14.55,9.55-24.75c0-11.633-3.833-21.883-11.5-30.75
			c-7.015-8.117-15.432-12.7-25.25-13.75c-1.757,1.402-4.007,2.819-6.75,4.25c-1.367,0.7-3.35,1.017-5.95,0.95
			c-1.579-0.127-2.912-0.21-4-0.25c-0.898-0.029-1.632-0.029-2.2,0c-1.154-0.425-2.038-0.775-2.65-1.05
			c-1.844-0.893-2.894-2.359-3.15-4.4c-5.982,2.197-11.299,5.331-15.95,9.4c-0.992,0.866-1.925,1.758-2.8,2.675
			C16.267-88.377,13-80.319,13-71c0,9.901,3.267,18.459,9.8,25.675c1.957,2.163,4.207,4.205,6.75,6.125
			c4.78,3.608,10.205,6.575,16.275,8.9C48.161-29.411,50.594-28.619,53.125-27.925z M93.825-50.975
			c-1.976,2.415-4.351,4.69-7.125,6.825c-5.727,4.361-12.001,6.97-18.825,7.825C66.201-36.108,64.493-36,62.75-36
			c-4.292,0-8.392-0.5-12.3-1.5c-5.925-1.517-11.408-4.184-16.45-8c-5.646-4.269-9.379-8.935-11.2-14
			c-0.867-2.409-1.3-4.909-1.3-7.5c0-3.731,0.433-7.165,1.3-10.3c1.874-6.789,5.774-12.189,11.7-16.2
			c2.271-1.536,4.721-2.819,7.35-3.85c2.473-0.961,5.106-1.703,7.9-2.225c0.89-0.163,1.798-0.304,2.725-0.425
			c2.471-0.333,5.063-0.5,7.775-0.5C72.683-100.5,82.267-96,89-87c5.333,7.1,8,15.183,8,24.25
			C96.647-58.792,95.589-54.867,93.825-50.975z M27.275-74.05c0.052-0.053,0.094-0.103,0.125-0.15
			c0.047,0.09,0.089,0.182,0.125,0.275c1.23,0.527,2.73,1.194,4.5,2c-0.35,1.443-0.525,3.002-0.525,4.675
			c0,2.735,0.95,5.793,2.85,9.175c0.946,1.697,2.129,3.472,3.55,5.325c1.165,1.509,2.348,2.851,3.55,4.025
			c0.868,0.479,1.801,0.987,2.8,1.525c3.564,1.936,6.481,3.494,8.75,4.675c1.689,0.882,3.022,1.557,4,2.025V-41
			c-3.533-1.6-6.967-4.783-10.3-9.55c-3.467-4.9-5.2-9.3-5.2-13.2c0-1.227,0.2-2.418,0.6-3.575c0.296,0.142,0.596,0.284,0.9,0.425
			C55.567-61,63.4-57.033,66.5-55c-1.133,2.367-2.017,4.15-2.65,5.35c-1.133,2.1-2.083,3.483-2.85,4.15
			c0.833,0.033,2.1,0.383,3.8,1.05c1.633,0.633,2.7,0.95,3.2,0.95c1.367,0,5.533-3.667,12.5-11l-1.75-7.9
			C77.583-67.9,77-71.267,77-72.5V-73c-1.233,2.367-2.15,4.133-2.75,5.3c-1.067,2.133-1.817,3.867-2.25,5.2
			C67.3-63.833,60.183-68,50.65-75c-0.188-0.137-0.371-0.271-0.55-0.4c1.152-0.4,2.369-0.6,3.65-0.6c1.567,0,3.75,0.333,6.55,1
			c4.1,1,6.167,1.5,6.2,1.5c5.867-9.033,9.7-15.367,11.5-19c-0.067,0-0.633-0.35-1.7-1.05c-1-0.633-1.85-0.95-2.55-0.95
			c-1.1,0-3.333,2-6.7,6s-5.883,6-7.55,6c-0.233,0-1.717-0.25-4.45-0.75C52.317-83.75,50.467-84,49.5-84
			c-3.226,0-6.067,0.533-8.525,1.6c-2.756-2.243-4.581-3.943-5.475-5.1c-1.333,0.9-3.05,2.917-5.15,6.05
			c-2.124,3.463-3.557,5.755-4.3,6.875C26.42-74.42,26.829-74.245,27.275-74.05z"/>
		<path style="fill-rule:evenodd;clip-rule:evenodd;fill:#2D1121;" d="M93.825-50.975c1.764-3.892,2.822-7.817,3.175-11.775
			c0-9.067-2.667-17.15-8-24.25c-6.733-9-16.317-13.5-28.75-13.5c-2.712,0-5.304,0.167-7.775,0.5
			c-0.927,0.121-1.835,0.262-2.725,0.425c-2.793,0.522-5.427,1.264-7.9,2.225c-2.629,1.031-5.079,2.314-7.35,3.85
			c-5.926,4.011-9.826,9.412-11.7,16.2c-0.867,3.135-1.3,6.568-1.3,10.3c0,2.591,0.433,5.091,1.3,7.5
			c1.821,5.065,5.554,9.731,11.2,14c5.042,3.816,10.525,6.483,16.45,8c3.908,1,8.008,1.5,12.3,1.5c1.743,0,3.451-0.108,5.125-0.325
			c6.824-0.855,13.099-3.463,18.825-7.825C89.474-46.285,91.849-48.56,93.825-50.975z M27.525-73.925
			c-0.081-0.046-0.164-0.088-0.25-0.125c-0.446-0.195-0.855-0.37-1.225-0.525c0.743-1.12,2.176-3.412,4.3-6.875
			c2.1-3.133,3.816-5.15,5.15-6.05c0.894,1.157,2.719,2.857,5.475,5.1c2.458-1.067,5.299-1.6,8.525-1.6
			c0.967,0,2.817,0.25,5.55,0.75c2.733,0.5,4.217,0.75,4.45,0.75c1.667,0,4.183-2,7.55-6s5.6-6,6.7-6c0.7,0,1.55,0.317,2.55,0.95
			c1.067,0.7,1.633,1.05,1.7,1.05c-1.8,3.633-5.633,9.967-11.5,19c-0.033,0-2.1-0.5-6.2-1.5c-2.8-0.667-4.983-1-6.55-1
			c-1.281,0-2.498,0.2-3.65,0.6c0.179,0.129,0.362,0.263,0.55,0.4C60.183-68,67.3-63.833,72-62.5c0.433-1.333,1.183-3.067,2.25-5.2
			c0.6-1.167,1.517-2.933,2.75-5.3v0.5c0,1.233,0.583,4.6,1.75,10.1l1.75,7.9c-6.967,7.333-11.133,11-12.5,11
			c-0.5,0-1.567-0.317-3.2-0.95c-1.7-0.667-2.966-1.017-3.8-1.05c0.767-0.667,1.717-2.05,2.85-4.15c0.633-1.2,1.517-2.983,2.65-5.35
			c-3.1-2.033-10.933-6-23.5-11.9c-0.304-0.142-0.604-0.283-0.9-0.425c-0.4,1.157-0.6,2.349-0.6,3.575c0,3.9,1.733,8.3,5.2,13.2
			C50.033-45.783,53.467-42.6,57-41v0.5c-0.978-0.468-2.311-1.143-4-2.025c-2.269-1.181-5.186-2.74-8.75-4.675
			c-0.999-0.538-1.932-1.046-2.8-1.525c-1.203-1.174-2.386-2.516-3.55-4.025c-1.42-1.853-2.604-3.628-3.55-5.325
			c-1.9-3.381-2.85-6.439-2.85-9.175c0-1.673,0.175-3.231,0.525-4.675C30.255-72.73,28.755-73.397,27.525-73.925z"/>
		<path style="fill-rule:evenodd;clip-rule:evenodd;fill:#CC0033;" d="M177.5-128.35c-2.714,1.941-4.547,3.324-5.5,4.15
			c-3.8,3.3-7.133,6.867-10,10.7c-1.367,1.833-3.1,7.117-5.2,15.85c-2.2,9.233-3.3,16.45-3.3,21.65c0,14,2.9,26.75,8.7,38.25
			c3.543,7.068,8.11,12.685,13.7,16.85c0.885-0.684,2.026-1.384,3.425-2.1c1.4-0.72,2.941-1.669,4.625-2.85
			c-7.358-4.702-12.441-10.868-15.25-18.5C165.567-52.883,164-63.433,164-76c0-13,2.833-24.333,8.5-34
			c2.954-5.043,7.038-9.627,12.25-13.75c-0.898-0.624-1.964-1.34-3.2-2.15C180.315-126.71,178.965-127.526,177.5-128.35z
			 M149.35-8.5c-1.9-1.892-2.85-3.142-2.85-3.75c0-1.067,1.783-3.133,5.35-6.2c1.76-1.503,3.718-3.112,5.875-4.825
			c-3.433,0.956-6.157,1.697-8.175,2.225c-3.9,1.033-6.833,1.55-8.8,1.55c-2.4,0-4.817-0.667-7.25-2c-2.667-1.467-4-3.133-4-5
			c0-2.433,2.95-5.417,8.85-8.95c5.167-3.106,8.933-4.781,11.3-5.025c-6.73,0.471-12.864-0.587-18.4-3.175
			C124.417-46.817,121-51.6,121-58c0-4.933,2.467-8.633,7.4-11.1c2.967-1.5,8.333-2.967,16.1-4.4h0.5
			c-3.433-0.867-6.083-1.567-7.95-2.1c-3.4-0.967-6.183-2.066-8.35-3.3c-6.133-3.434-9.2-8.8-9.2-16.1c0-7.267,3.3-12.267,9.9-15
			c4.967-2.1,9.5-2.6,13.6-1.5c-3.333-1.6-6.517-3.317-9.55-5.15c-5.967-3.633-8.95-6.583-8.95-8.85c0-1.533,1.167-3.033,3.5-4.5
			c2.1-1.333,3.933-2,5.5-2c4.033,0,7.4,0.567,10.1,1.7c1.633,0.7,4.6,1.966,8.9,3.8h0.5c-2.633-2.267-4.817-4.233-6.55-5.9
			c-3.3-3.167-4.95-5.867-4.95-8.1c0-0.659,0.333-1.809,1-3.45c-0.372-0.225-1.48-0.608-3.325-1.15
			c-1.846-0.542-3.737-1.026-5.675-1.45c-0.333,0.764-0.5,1.28-0.5,1.55c0,0.333,0.65,1.167,1.95,2.5
			c1.333,1.333,2.017,2.167,2.05,2.5h-0.5c-1.333-0.667-2.75-1-4.25-1c-5.367,0-9.617,1-12.75,3c-3.667,2.333-5.5,5.917-5.5,10.75
			c0,3.467,0.483,5.75,1.45,6.85c0.7,0.8,3.383,2.433,8.05,4.9c-2.433-0.7-5.783,0.967-10.05,5c-4.633,4.4-6.95,9.067-6.95,14
			c0,6.5,1.4,11.217,4.2,14.15c0.867,0.9,2.316,2.05,4.35,3.45c2.167,1.533,3.817,2.833,4.95,3.9c-0.2,0-0.35,0.083-0.45,0.25
			l-0.05,0.25c-4.467,0.633-7.867,1.933-10.2,3.9c-2.867,2.4-4.3,5.934-4.3,10.6c0,5.5,2.1,10.067,6.3,13.7
			c3.7,3.167,8.267,5.1,13.7,5.8c-2,0.7-4.183,1.967-6.55,3.8c-3.3,2.567-4.95,5.05-4.95,7.45c0,4.7,3.083,8.35,9.25,10.95
			c5.147,2.169,10.723,3.11,16.725,2.825L139.5-15.5h0.5c-0.178,0.011-0.354,0.019-0.525,0.025c-1.59,1.322-2.814,2.364-3.675,3.125
			c-1.533,1.367-2.3,2.483-2.3,3.35c0,1.612,0.933,3.146,2.8,4.6c2.542-0.58,4.651-1.138,6.325-1.675
			C144.305-6.612,146.547-7.42,149.35-8.5z M53.125-27.925C53.662-25.83,56.12-22.854,60.5-19c5.667,5,11.083,7.5,16.25,7.5
			c1.533,0,4.117-4.333,7.75-13c0-1.736-0.925-3.428-2.775-5.075c-1.475-1.338-3.55-2.647-6.225-3.925
			c-0.612-0.292-1.229-0.567-1.85-0.825C72.162-34.108,70.612-34,69-34c-1.989,0-4.314-0.208-6.975-0.625
			c-1.785,0.26-3.551,0.885-5.3,1.875c-0.222,0.124-0.447,0.257-0.675,0.4c-2.033,1.267-3.05,2.467-3.05,3.6
			C53-28.49,53.042-28.214,53.125-27.925z M66.25-106.75c3.167-2.539,4.75-5.039,4.75-7.5c0-0.767-0.833-3.017-2.5-6.75
			c-1.933-4.333-3.6-6.5-5-6.5c-4.133,0-8.8,2.167-14,6.5c-5.333,4.467-8,8.717-8,12.75c0,0.349,0.017,0.682,0.05,1
			c0.257,2.041,1.307,3.507,3.15,4.4c0.612,0.275,1.496,0.625,2.65,1.05c0.568-0.029,1.301-0.029,2.2,0
			c1.088,0.04,2.421,0.123,4,0.25c2.6,0.066,4.583-0.25,5.95-0.95C62.243-103.931,64.493-105.348,66.25-106.75z"/>
		<path style="fill-rule:evenodd;clip-rule:evenodd;fill:#CC3300;" d="M149.35-8.5c7.924-2.609,15.208-5.859,21.85-9.75
			c-8.841-7.986-14.724-14.72-17.65-20.2c-4.7-8.767-7.05-20.95-7.05-36.55c0-4.833,0.833-11.2,2.5-19.1
			c1.767-8.267,3.767-14.9,6-19.9c1.667-3.7,5.167-8.683,10.5-14.95c0.295-0.345,1.629-1.645,4-3.9
			c-8.244-4.398-17.244-8.098-27-11.1c-0.667,1.641-1,2.791-1,3.45c0,2.233,1.65,4.933,4.95,8.1c1.733,1.667,3.917,3.633,6.55,5.9
			h-0.5c-4.3-1.833-7.267-3.1-8.9-3.8c-2.7-1.133-6.067-1.7-10.1-1.7c-1.567,0-3.4,0.667-5.5,2c-2.333,1.467-3.5,2.967-3.5,4.5
			c0,2.267,2.983,5.217,8.95,8.85c3.033,1.833,6.216,3.55,9.55,5.15c-4.1-1.1-8.633-0.6-13.6,1.5c-6.6,2.733-9.9,7.733-9.9,15
			c0,7.3,3.067,12.667,9.2,16.1c2.167,1.233,4.95,2.333,8.35,3.3c1.867,0.533,4.517,1.233,7.95,2.1h-0.5
			c-7.767,1.433-13.133,2.9-16.1,4.4c-4.933,2.467-7.4,6.167-7.4,11.1c0,6.4,3.417,11.183,10.25,14.35
			c5.536,2.588,11.669,3.646,18.4,3.175c-2.367,0.244-6.133,1.919-11.3,5.025c-5.9,3.534-8.85,6.517-8.85,8.95
			c0,1.867,1.333,3.533,4,5c2.433,1.333,4.85,2,7.25,2c1.967,0,4.9-0.517,8.8-1.55c2.018-0.528,4.743-1.27,8.175-2.225
			c-2.157,1.713-4.115,3.321-5.875,4.825c-3.567,3.067-5.35,5.133-5.35,6.2C146.5-11.642,147.45-10.392,149.35-8.5z"/>
	</g>
</symbol>
<symbol  id="wsize_x5F_sovioetegg" viewBox="0 -24.868 36.074 24.868">
	<g id="Layer_1_3_">
		
			<use xlink:href="#sovietegg"  width="219.184" height="151.1" x="0" y="-151.1" transform="matrix(0.1646 0 0 0.1646 0 0)" style="overflow:visible;"/>
	</g>
</symbol>
<use xlink:href="#wsize_x5F_sovioetegg"  width="36.074" height="24.868" x="0" y="-24.868" transform="matrix(1 0 0 -1 8.75 20.1499)" style="overflow:visible;"/>
</svg>
