<?xml version="1.0" encoding="iso-8859-1"?>
<!-- Generator: Adobe Illustrator 15.1.0, SVG Export Plug-In . SVG Version: 6.00 Build 0)  -->
<!DOCTYPE svg PUBLIC "-//W3C//DTD SVG 1.1//EN" "http://www.w3.org/Graphics/SVG/1.1/DTD/svg11.dtd">
<svg version="1.1" id="_x31_" xmlns="http://www.w3.org/2000/svg" xmlns:xlink="http://www.w3.org/1999/xlink" x="0px" y="0px"
	 width="21.1px" height="15.95px" viewBox="0 0 21.1 15.95" style="enable-background:new 0 0 21.1 15.95;" xml:space="preserve">
<radialGradient id="SVGID_1_" cx="5.1763" cy="-8.3877" r="12.9783" gradientTransform="matrix(0.2618 0.9651 1.0555 -0.2863 16.9487 -4.5965)" gradientUnits="userSpaceOnUse">
	<stop  offset="0" style="stop-color:#BAFFED"/>
	<stop  offset="0.1373" style="stop-color:#B2F7E5"/>
	<stop  offset="0.349" style="stop-color:#9EE2D0"/>
	<stop  offset="0.6078" style="stop-color:#7BBFAD"/>
	<stop  offset="0.902" style="stop-color:#4C8F7E"/>
	<stop  offset="1" style="stop-color:#3B7D6C"/>
</radialGradient>
<path style="fill-rule:evenodd;clip-rule:evenodd;fill:url(#SVGID_1_);" d="M19.15,11.1l-0.4,0.4c-0.5,0.467-1.083,0.934-1.75,1.4
	L16.8,13.1c-0.1,0.034-0.184,0.067-0.25,0.101c1.601-1.967,2.117-4.434,1.55-7.4c-0.433-2.066-1.416-3.65-2.949-4.75
	c0.3,0.067,0.583,0.167,0.85,0.3l1.9,0.95c0.133,0.067,0.25,0.133,0.35,0.2l0.025,0.025C19.06,3.452,19.518,4.443,19.65,5.5
	c0.267,2.1,0.166,3.884-0.301,5.35C19.283,10.917,19.217,11,19.15,11.1z M0,8.95C0.1,6.783,0.567,5.167,1.4,4.1
	c0.133-0.2,0.283-0.4,0.45-0.6c0.733,0.1,1.3,0.983,1.7,2.65c0.4,1.667,0.4,3.216,0,4.65c-0.367,1.4-0.933,2.134-1.7,2.2
	C0.717,11.8,0.1,10.45,0,8.95z"/>
<radialGradient id="SVGID_2_" cx="4.8384" cy="-7.7725" r="12.3814" gradientTransform="matrix(0.2211 0.9753 1.1045 -0.2504 16.1642 -3.6644)" gradientUnits="userSpaceOnUse">
	<stop  offset="0" style="stop-color:#FFD1E4"/>
	<stop  offset="0.1451" style="stop-color:#F9C9DD"/>
	<stop  offset="0.3686" style="stop-color:#E7B4C9"/>
	<stop  offset="0.6431" style="stop-color:#CA91A9"/>
	<stop  offset="0.9529" style="stop-color:#A2617C"/>
	<stop  offset="1" style="stop-color:#9C5975"/>
</radialGradient>
<path style="fill-rule:evenodd;clip-rule:evenodd;fill:url(#SVGID_2_);" d="M17.05,4.8c0.267-0.566,0.017-1.066-0.75-1.5
	c-0.333-0.2-0.883-0.267-1.649-0.2c-0.867,0.066-1.267,0.35-1.2,0.85c0.1,1.1,0.85,1.65,2.25,1.65
	C16.366,5.6,16.816,5.333,17.05,4.8z M18.275,2.525c1.663,1.06,2.588,2.352,2.774,3.875c0.2,1.567-0.434,3.133-1.899,4.7
	c0.066-0.1,0.133-0.183,0.199-0.25c0.467-1.466,0.567-3.25,0.301-5.35C19.518,4.443,19.06,3.452,18.275,2.525z M7.375,0.2
	c1.503-0.259,3.095-0.242,4.775,0.05c-0.271-0.038-0.537-0.071-0.801-0.1c-0.233,0.167-0.3,0.35-0.199,0.55
	c0.133,0.233,0.517,0.45,1.149,0.65c0.767,0.233,1.45,0.3,2.05,0.2c0.534-0.066,0.801-0.233,0.801-0.5
	c1.533,1.1,2.517,2.684,2.949,4.75c0.567,2.967,0.051,5.434-1.55,7.4c0.066-0.033,0.15-0.066,0.25-0.101
	c-0.399,0.233-0.783,0.467-1.149,0.7c-0.334-0.1-0.801-0.083-1.4,0.05c-0.5,0.134-0.9,0.334-1.2,0.601
	c-0.267,0.233-0.399,0.467-0.399,0.7c0.75-0.25,1.441-0.525,2.074-0.825c-1.283,0.657-2.559,1.116-3.824,1.375
	c2.3-2.2,3.033-5.55,2.199-10.05c-0.399-2.5-1.483-4.367-3.25-5.6C8.888,0.05,8.063,0.1,7.375,0.2z M14.3,8.75
	c0.033,0.434,0.334,0.684,0.9,0.75c0.5,0.033,1-0.083,1.5-0.35c0.566-0.267,0.899-0.617,1-1.051c0.133-0.533-0.233-0.883-1.101-1.05
	c-0.5-0.1-1.017,0.05-1.55,0.45S14.267,8.316,14.3,8.75z M16.75,11c-0.4-0.066-0.95,0.05-1.65,0.35
	c-0.767,0.367-1.166,0.733-1.199,1.101c-0.034,0.366,0.199,0.533,0.699,0.5c0.4-0.066,0.867-0.25,1.4-0.55
	c0.533-0.301,0.884-0.567,1.05-0.801C17.25,11.3,17.15,11.1,16.75,11z M7.9,15.95C6.2,15.816,4.6,15.2,3.1,14.1
	c0.767,0.534,1.533,0.95,2.3,1.25c0.233-0.166,0.167-0.466-0.2-0.899c-0.267-0.3-0.667-0.517-1.2-0.65
	c-0.533-0.1-0.833-0.05-0.9,0.15V14.1c-1.967-1.366-3-3.083-3.1-5.149c0.1,1.5,0.717,2.85,1.85,4.05c0.767-0.066,1.333-0.8,1.7-2.2
	c0.4-1.434,0.4-2.983,0-4.65C3.15,4.483,2.583,3.6,1.85,3.5C1.683,3.7,1.533,3.9,1.4,4.1C1.567,3.833,1.767,3.567,2,3.3
	c1.3-1.566,2.9-2.566,4.8-3L5.15,0.9C6.883,1.733,8.067,3.15,8.7,5.15c0.633,1.967,0.683,4.267,0.15,6.9
	c-0.4,1.867-1.133,3.084-2.2,3.65C7.083,15.8,7.5,15.884,7.9,15.95z M6.9,4.65c-0.433-0.2-0.933-0.133-1.5,0.2
	C4.833,5.183,4.583,5.533,4.65,5.9c0.1,0.533,0.467,0.817,1.1,0.85c0.533,0,1-0.133,1.4-0.4c0.367-0.233,0.533-0.5,0.5-0.8
	C7.65,5.183,7.4,4.883,6.9,4.65z M5.45,1.85c-0.233-0.1-0.617-0.033-1.15,0.2C3.733,2.283,3.417,2.567,3.35,2.9
	c-0.067,0.434-0.033,0.7,0.1,0.8C3.583,3.867,3.9,3.9,4.4,3.8c0.633-0.066,1.117-0.35,1.45-0.85C6.183,2.417,6.05,2.05,5.45,1.85z
	 M7.05,10.25C7.45,10.116,7.7,9.9,7.8,9.6c0.067-0.333-0.1-0.683-0.5-1.05C6.933,8.25,6.433,8.167,5.8,8.3
	c-0.633,0.167-0.966,0.434-1,0.8C4.767,9.634,5.033,10,5.6,10.2C6.1,10.366,6.583,10.384,7.05,10.25z M5.5,11.6
	c-0.633-0.066-1.017,0.067-1.15,0.4c-0.167,0.467,0.017,0.884,0.55,1.25c0.434,0.3,0.883,0.45,1.35,0.45
	c0.433,0,0.717-0.134,0.85-0.4c0.167-0.267,0.1-0.616-0.2-1.05C6.633,11.85,6.167,11.634,5.5,11.6z"/>
<radialGradient id="SVGID_3_" cx="3.9502" cy="-8.0913" r="12.6386" gradientTransform="matrix(0.1719 0.9851 1.1571 -0.202 17.3335 -3.0248)" gradientUnits="userSpaceOnUse">
	<stop  offset="0" style="stop-color:#FFFAD1"/>
	<stop  offset="0.1451" style="stop-color:#F9F3C9"/>
	<stop  offset="0.3686" style="stop-color:#E7E1B4"/>
	<stop  offset="0.6431" style="stop-color:#CAC491"/>
	<stop  offset="0.9529" style="stop-color:#A29B61"/>
	<stop  offset="1" style="stop-color:#9C9459"/>
</radialGradient>
<path style="fill-rule:evenodd;clip-rule:evenodd;fill:url(#SVGID_3_);" d="M17.05,4.8c-0.233,0.534-0.684,0.8-1.35,0.8
	c-1.4,0-2.15-0.55-2.25-1.65c-0.066-0.5,0.333-0.784,1.2-0.85c0.767-0.067,1.316,0,1.649,0.2C17.066,3.733,17.316,4.233,17.05,4.8z
	 M6.9,4.65c0.5,0.233,0.75,0.533,0.75,0.9c0.033,0.3-0.133,0.567-0.5,0.8c-0.4,0.267-0.867,0.4-1.4,0.4
	c-0.633-0.033-1-0.317-1.1-0.85C4.583,5.533,4.833,5.183,5.4,4.85C5.967,4.517,6.467,4.45,6.9,4.65z"/>
<radialGradient id="SVGID_4_" cx="3.9487" cy="-8.0918" r="12.6509" gradientTransform="matrix(0.1718 0.9851 1.157 -0.2017 17.3337 -3.0225)" gradientUnits="userSpaceOnUse">
	<stop  offset="0" style="stop-color:#FFFAD1"/>
	<stop  offset="0.1451" style="stop-color:#F9F3C9"/>
	<stop  offset="0.3686" style="stop-color:#E7E1B4"/>
	<stop  offset="0.6431" style="stop-color:#CAC491"/>
	<stop  offset="0.9529" style="stop-color:#A29B61"/>
	<stop  offset="1" style="stop-color:#9C9459"/>
</radialGradient>
<path style="fill-rule:evenodd;clip-rule:evenodd;fill:url(#SVGID_4_);" d="M12.15,0.25l0.1,0.025c0.232,0.045,0.466,0.095,0.7,0.15
	C13.001,0.43,13.052,0.438,13.1,0.45C13.8,0.583,14.483,0.767,15.15,1v0.05c0,0.267-0.267,0.434-0.801,0.5
	c-0.6,0.1-1.283,0.034-2.05-0.2c-0.633-0.2-1.017-0.417-1.149-0.65c-0.101-0.2-0.034-0.383,0.199-0.55
	C11.613,0.179,11.88,0.212,12.15,0.25z M16.75,11c0.4,0.1,0.5,0.3,0.3,0.6c-0.166,0.233-0.517,0.5-1.05,0.801
	c-0.533,0.3-1,0.483-1.4,0.55c-0.5,0.033-0.733-0.134-0.699-0.5c0.033-0.367,0.433-0.733,1.199-1.101
	C15.8,11.05,16.35,10.934,16.75,11z M14.3,8.75c-0.033-0.434,0.217-0.85,0.75-1.25s1.05-0.55,1.55-0.45
	c0.867,0.167,1.233,0.517,1.101,1.05c-0.101,0.434-0.434,0.784-1,1.051c-0.5,0.267-1,0.383-1.5,0.35
	C14.634,9.434,14.333,9.184,14.3,8.75z M5.45,1.85c0.6,0.2,0.733,0.566,0.4,1.1C5.517,3.45,5.033,3.733,4.4,3.8
	C3.9,3.9,3.583,3.867,3.45,3.7c-0.133-0.1-0.167-0.367-0.1-0.8C3.417,2.567,3.733,2.283,4.3,2.05C4.833,1.817,5.217,1.75,5.45,1.85z
	 M14.725,14.325c-0.633,0.3-1.324,0.575-2.074,0.825c0-0.233,0.133-0.467,0.399-0.7c0.3-0.267,0.7-0.467,1.2-0.601
	c0.6-0.133,1.066-0.149,1.4-0.05L15.35,14L14.725,14.325z"/>
<radialGradient id="SVGID_5_" cx="5.1763" cy="-8.3877" r="12.9783" gradientTransform="matrix(0.2618 0.9651 1.0555 -0.2863 16.9487 -4.5965)" gradientUnits="userSpaceOnUse">
	<stop  offset="0" style="stop-color:#E6FFF8"/>
	<stop  offset="0.2275" style="stop-color:#BAFFED"/>
	<stop  offset="0.3333" style="stop-color:#B2F7E5"/>
	<stop  offset="0.498" style="stop-color:#9EE2D0"/>
	<stop  offset="0.698" style="stop-color:#7BBFAD"/>
	<stop  offset="0.9255" style="stop-color:#4C8F7E"/>
	<stop  offset="1" style="stop-color:#3B7D6C"/>
</radialGradient>
<path style="fill-rule:evenodd;clip-rule:evenodd;fill:url(#SVGID_5_);" d="M7.375,0.2C8.063,0.1,8.888,0.05,9.85,0.05
	c1.766,1.233,2.85,3.1,3.25,5.6c0.834,4.5,0.101,7.85-2.199,10.05c-0.167,0.033-0.334,0.066-0.5,0.1L9.6,15.9
	c-0.267,0.033-0.517,0.05-0.75,0.05c-0.2,0-0.383,0-0.55,0H7.9c-0.4-0.066-0.816-0.15-1.25-0.25c1.067-0.566,1.8-1.783,2.2-3.65
	c0.533-2.633,0.483-4.933-0.15-6.9c-0.633-2-1.817-3.417-3.55-4.25L6.8,0.3L7.375,0.2z"/>
<radialGradient id="SVGID_6_" cx="3.292" cy="-8.6831" r="12.8592" gradientTransform="matrix(0.0729 0.9973 0.9973 -0.0729 17.32 -1.2658)" gradientUnits="userSpaceOnUse">
	<stop  offset="0" style="stop-color:#FFFAD1"/>
	<stop  offset="0.1451" style="stop-color:#F9F3C9"/>
	<stop  offset="0.3686" style="stop-color:#E7E1B4"/>
	<stop  offset="0.6431" style="stop-color:#CAC491"/>
	<stop  offset="0.9529" style="stop-color:#A29B61"/>
	<stop  offset="1" style="stop-color:#9C9459"/>
</radialGradient>
<path style="fill-rule:evenodd;clip-rule:evenodd;fill:url(#SVGID_6_);" d="M7.05,10.25C6.583,10.384,6.1,10.366,5.6,10.2
	C5.033,10,4.767,9.634,4.8,9.1c0.034-0.366,0.367-0.633,1-0.8c0.633-0.133,1.133-0.05,1.5,0.25C7.7,8.917,7.867,9.267,7.8,9.6
	C7.7,9.9,7.45,10.116,7.05,10.25z"/>
<radialGradient id="SVGID_7_" cx="2.3203" cy="-9.0342" r="13.0263" gradientTransform="matrix(-0.0144 0.9999 0.9999 0.0144 18.067 0.26)" gradientUnits="userSpaceOnUse">
	<stop  offset="0" style="stop-color:#FFFAD1"/>
	<stop  offset="0.1451" style="stop-color:#F9F3C9"/>
	<stop  offset="0.3686" style="stop-color:#E7E1B4"/>
	<stop  offset="0.6431" style="stop-color:#CAC491"/>
	<stop  offset="0.9529" style="stop-color:#A29B61"/>
	<stop  offset="1" style="stop-color:#9C9459"/>
</radialGradient>
<path style="fill-rule:evenodd;clip-rule:evenodd;fill:url(#SVGID_7_);" d="M5.5,11.6c0.667,0.034,1.133,0.25,1.4,0.65
	c0.3,0.434,0.367,0.783,0.2,1.05c-0.133,0.267-0.417,0.4-0.85,0.4c-0.467,0-0.917-0.15-1.35-0.45C4.367,12.884,4.183,12.467,4.35,12
	C4.483,11.667,4.867,11.533,5.5,11.6z"/>
<radialGradient id="SVGID_8_" cx="2.6494" cy="-8.8999" r="12.55" gradientTransform="matrix(3.984064e-005 1 1 3.984064e-005 17.7996 8.252250e-004)" gradientUnits="userSpaceOnUse">
	<stop  offset="0" style="stop-color:#FFFAD1"/>
	<stop  offset="0.1451" style="stop-color:#F9F3C9"/>
	<stop  offset="0.3686" style="stop-color:#E7E1B4"/>
	<stop  offset="0.6431" style="stop-color:#CAC491"/>
	<stop  offset="0.9529" style="stop-color:#A29B61"/>
	<stop  offset="1" style="stop-color:#9C9459"/>
</radialGradient>
<path style="fill-rule:evenodd;clip-rule:evenodd;fill:url(#SVGID_8_);" d="M3.1,14.1V13.95c0.066-0.2,0.367-0.25,0.9-0.15
	c0.533,0.134,0.933,0.351,1.2,0.65c0.367,0.434,0.433,0.733,0.2,0.899C4.633,15.05,3.867,14.634,3.1,14.1z"/>
</svg>
