<?xml version="1.0" encoding="iso-8859-1"?>
<!-- Generator: Adobe Illustrator 15.1.0, SVG Export Plug-In . SVG Version: 6.00 Build 0)  -->
<!DOCTYPE svg PUBLIC "-//W3C//DTD SVG 1.1//EN" "http://www.w3.org/Graphics/SVG/1.1/DTD/svg11.dtd">
<svg version="1.1" id="flash0.ai" xmlns="http://www.w3.org/2000/svg" xmlns:xlink="http://www.w3.org/1999/xlink" x="0px" y="0px"
	 width="24px" height="18.75px" viewBox="0 0 24 18.75" style="enable-background:new 0 0 24 18.75;" xml:space="preserve">
<g>
	
		<radialGradient id="SVGID_1_" cx="9.5498" cy="-5.6846" r="13.0155" gradientTransform="matrix(0.533 0.8461 0.8461 -0.533 9.6199 -6.0605)" gradientUnits="userSpaceOnUse">
		<stop  offset="0" style="stop-color:#FBE6FF"/>
		<stop  offset="0.4627" style="stop-color:#F1D4F7"/>
		<stop  offset="0.7922" style="stop-color:#E8C5F0"/>
		<stop  offset="1" style="stop-color:#99819E"/>
	</radialGradient>
	<path style="fill-rule:evenodd;clip-rule:evenodd;fill:url(#SVGID_1_);" d="M14.3,0.05L14.25,0L16,0.2
		c0.1,0.033,0.184,0.066,0.25,0.1C16.783,0.533,17.033,0.767,17,1c-0.1,0.333-0.066,0.533,0.1,0.6c0.134,0.033,0.5,0.117,1.101,0.25
		c0.899,0.3,1.416,0.467,1.55,0.5c0.467,0.3,0.65,0.8,0.55,1.5l-0.1,1.7c0.033,0.333,0.283,0.583,0.75,0.75
		c0.5,0.167,0.767,0.534,0.8,1.1c0.033,0.533-0.167,1.133-0.6,1.8c-0.334,0.667-0.483,1.166-0.45,1.5c0,0.267,0.2,0.517,0.6,0.75
		l0.2,0.1l-0.8,1.05c-0.834-0.433-1.25-0.816-1.25-1.149c0.267-0.601,0.483-1.134,0.649-1.6c0.367-0.934,0.45-1.533,0.25-1.8
		c-0.1-0.133-0.466-0.4-1.1-0.8c-0.6-0.333-0.934-0.65-1-0.95l0.1-1.65c0.101-0.733-0.033-1.2-0.399-1.4
		c-0.8-0.3-1.4-0.517-1.8-0.65c-0.733-0.333-1.067-0.717-1-1.15C15.283,0.817,15,0.35,14.3,0.05z"/>
	
		<radialGradient id="SVGID_2_" cx="8.625" cy="-5.6519" r="12.0442" gradientTransform="matrix(0.4803 0.8771 1.0522 -0.5762 10.904 -5.9711)" gradientUnits="userSpaceOnUse">
		<stop  offset="0" style="stop-color:#F6CCFF"/>
		<stop  offset="0.251" style="stop-color:#EC96FF"/>
		<stop  offset="0.3804" style="stop-color:#DC8BED"/>
		<stop  offset="0.6392" style="stop-color:#B16EBF"/>
		<stop  offset="0.9961" style="stop-color:#6D4076"/>
		<stop  offset="1" style="stop-color:#6C4075"/>
	</radialGradient>
	<path style="fill-rule:evenodd;clip-rule:evenodd;fill:url(#SVGID_2_);" d="M7.15,18.45l0.7-0.101l-1.5-0.6
		c-0.6-0.267-1.15-0.6-1.65-1l-0.65-0.5l2.15,0.1c0.833,0,1.716-0.133,2.65-0.399l-1.5-0.45c-0.667-0.134-1.35-0.467-2.05-1
		l-0.8-0.75l0.95-0.4c0.6-0.267,1.65-1.116,3.15-2.55l-4.8,1.05L4.4,10.4c0.133-0.334,0.517-1.05,1.15-2.15l0.9-1.5L5.3,7.5
		C4.567,7.967,3.7,8.65,2.7,9.55V8.8l0.55-3.65L2.3,6.3C1.7,7.1,1.183,8.15,0.75,9.45l-0.1-2.1C0.75,7.083,0.867,6.817,1,6.55
		c1.1-2.3,2.667-3.966,4.7-5c2.433-1.267,5.3-1.767,8.6-1.5c0.7,0.3,0.983,0.767,0.851,1.4c-0.067,0.433,0.267,0.816,1,1.15
		c0.399,0.133,1,0.35,1.8,0.65c0.366,0.2,0.5,0.667,0.399,1.4l-0.1,1.65c0.066,0.3,0.4,0.617,1,0.95c0.634,0.4,1,0.667,1.1,0.8
		c0.2,0.267,0.117,0.867-0.25,1.8c-0.166,0.466-0.383,1-0.649,1.6c0,0.333,0.416,0.717,1.25,1.149l0.8-1.05l-0.2-0.1
		c-0.399-0.233-0.6-0.483-0.6-0.75c-0.033-0.334,0.116-0.833,0.45-1.5c0.433-0.667,0.633-1.267,0.6-1.8
		c-0.033-0.566-0.3-0.933-0.8-1.1c-0.467-0.167-0.717-0.417-0.75-0.75l0.1-1.7c0.101-0.7-0.083-1.2-0.55-1.5
		c-0.134-0.033-0.65-0.2-1.55-0.5C17.6,1.717,17.233,1.633,17.1,1.6C16.934,1.533,16.9,1.333,17,1c0.033-0.233-0.217-0.467-0.75-0.7
		c3.767,0.534,6.1,1.917,7,4.15c0.934,2.466,0.033,5.25-2.7,8.35c-2.2,2.5-4.55,4.217-7.05,5.15c0.167-0.066,0.333-0.15,0.5-0.25
		c0.066-0.167-0.267-0.517-1-1.05c-0.4-0.301-0.616-0.617-0.65-0.95c-0.033-0.4,0.15-0.967,0.551-1.7
		c0.966-1.667,0.883-2.783-0.25-3.35c-0.5-0.2-0.784-0.483-0.851-0.851c0-0.133,0.05-0.783,0.15-1.95c0.033-0.8-0.2-1.4-0.7-1.8
		c-0.1-0.066-0.667-0.333-1.7-0.8c-0.533-0.167-0.833-0.3-0.9-0.4C8.617,4.817,8.483,4.6,8.25,4.2C7.683,3.067,6.433,2.433,4.5,2.3
		l-1,0.85c1,0.1,1.733,0.317,2.2,0.65c0.4,0.267,0.566,0.534,0.5,0.8C6.1,5.1,6.483,5.55,7.35,5.95c0.433,0.233,1.1,0.566,2,1
		c0.367,0.2,0.517,0.733,0.45,1.6c0,0.434-0.05,1.05-0.15,1.851c0.067,0.399,0.417,0.8,1.05,1.199c0.767,0.5,1.2,0.851,1.3,1.051
		c0.2,0.333,0.116,1-0.25,2L11,16.5c0,0.333,0.5,0.816,1.5,1.45l0.1,0.3c-0.1,0.033-0.216,0.066-0.35,0.1
		C10.55,18.816,8.85,18.85,7.15,18.45z M16.1,3.7c-0.433-0.267-1.066-0.317-1.899-0.15c-0.934,0.2-1.417,0.55-1.45,1.05
		c-0.134,1.367,0.533,1.883,2,1.55c0.833-0.233,1.417-0.6,1.75-1.1C16.8,4.55,16.667,4.1,16.1,3.7z M12.95,0
		c-1.2,0-2.35,0.117-3.45,0.35C8.867,0.417,8.433,0.667,8.2,1.1C7.933,1.567,8.117,1.817,8.75,1.85c0.867,0.033,1.883-0.2,3.05-0.7
		C12.9,0.65,13.283,0.267,12.95,0z M15.8,10.6c-1,0.834-1.149,1.467-0.45,1.9c0.7,0.366,1.483,0.134,2.351-0.7
		c0.866-0.8,1.017-1.434,0.45-1.9C17.583,9.467,16.8,9.7,15.8,10.6z M18.85,14.1c-0.233,0-0.683,0.301-1.35,0.9
		c-0.6,0.6-0.884,1-0.85,1.2c0.833-0.566,1.649-1.217,2.449-1.95C19.1,14.15,19.017,14.1,18.85,14.1z"/>
	
		<radialGradient id="SVGID_3_" cx="6.7651" cy="-8.1519" r="14.2815" gradientTransform="matrix(0.4254 0.905 0.9208 -0.4184 14.9278 -6.7832)" gradientUnits="userSpaceOnUse">
		<stop  offset="0" style="stop-color:#FBE6FF"/>
		<stop  offset="0.4627" style="stop-color:#F1D4F7"/>
		<stop  offset="0.7922" style="stop-color:#E8C5F0"/>
		<stop  offset="1" style="stop-color:#99819E"/>
	</radialGradient>
	<path style="fill-rule:evenodd;clip-rule:evenodd;fill:url(#SVGID_3_);" d="M16.1,3.7c0.567,0.4,0.7,0.85,0.4,1.35
		c-0.333,0.5-0.917,0.867-1.75,1.1c-1.467,0.333-2.134-0.183-2-1.55c0.033-0.5,0.517-0.85,1.45-1.05
		C15.033,3.383,15.667,3.433,16.1,3.7z"/>
	
		<radialGradient id="SVGID_4_" cx="7.3794" cy="-7.3853" r="18.0256" gradientTransform="matrix(0.4195 0.9077 0.9077 -0.4195 13.4074 -6.1975)" gradientUnits="userSpaceOnUse">
		<stop  offset="0" style="stop-color:#FBE6FF"/>
		<stop  offset="0.4627" style="stop-color:#F1D4F7"/>
		<stop  offset="0.7922" style="stop-color:#E8C5F0"/>
		<stop  offset="1" style="stop-color:#99819E"/>
	</radialGradient>
	<path style="fill-rule:evenodd;clip-rule:evenodd;fill:url(#SVGID_4_);" d="M12.95,0c0.333,0.267-0.05,0.65-1.15,1.15
		c-1.167,0.5-2.183,0.733-3.05,0.7C8.117,1.817,7.933,1.567,8.2,1.1c0.233-0.434,0.667-0.684,1.3-0.75C10.6,0.117,11.75,0,12.95,0z"
		/>
	
		<radialGradient id="SVGID_5_" cx="8.0967" cy="-8.1172" r="15.1322" gradientTransform="matrix(0.5386 0.8426 0.8426 -0.5386 13.6784 -8.7437)" gradientUnits="userSpaceOnUse">
		<stop  offset="0" style="stop-color:#FBE6FF"/>
		<stop  offset="0.4627" style="stop-color:#F1D4F7"/>
		<stop  offset="0.7922" style="stop-color:#E8C5F0"/>
		<stop  offset="1" style="stop-color:#99819E"/>
	</radialGradient>
	<path style="fill-rule:evenodd;clip-rule:evenodd;fill:url(#SVGID_5_);" d="M12.6,18.25l-0.1-0.3c-1-0.634-1.5-1.117-1.5-1.45
		l0.75-1.85c0.366-1,0.45-1.667,0.25-2c-0.1-0.2-0.533-0.551-1.3-1.051C10.067,11.2,9.717,10.8,9.65,10.4
		C9.75,9.6,9.8,8.983,9.8,8.55c0.067-0.867-0.083-1.4-0.45-1.6c-0.9-0.434-1.567-0.767-2-1C6.483,5.55,6.1,5.1,6.2,4.6
		c0.066-0.267-0.1-0.533-0.5-0.8C5.233,3.467,4.5,3.25,3.5,3.15l1-0.85c1.933,0.133,3.183,0.767,3.75,1.9
		c0.233,0.4,0.367,0.617,0.4,0.65c0.067,0.1,0.367,0.233,0.9,0.4c1.034,0.467,1.6,0.733,1.7,0.8c0.5,0.4,0.733,1,0.7,1.8
		c-0.1,1.167-0.15,1.816-0.15,1.95c0.067,0.367,0.351,0.65,0.851,0.851c1.133,0.566,1.216,1.683,0.25,3.35
		c-0.4,0.733-0.584,1.3-0.551,1.7c0.034,0.333,0.25,0.649,0.65,0.95c0.733,0.533,1.066,0.883,1,1.05
		c-0.167,0.1-0.333,0.184-0.5,0.25C13.2,18.05,12.9,18.15,12.6,18.25z"/>
	
		<radialGradient id="SVGID_6_" cx="4.0933" cy="-7.7383" r="18.2423" gradientTransform="matrix(0.4009 0.9161 0.8668 -0.4235 13.6668 -6.6768)" gradientUnits="userSpaceOnUse">
		<stop  offset="0" style="stop-color:#FBE6FF"/>
		<stop  offset="0.4627" style="stop-color:#F1D4F7"/>
		<stop  offset="0.7922" style="stop-color:#E8C5F0"/>
		<stop  offset="1" style="stop-color:#99819E"/>
	</radialGradient>
	<path style="fill-rule:evenodd;clip-rule:evenodd;fill:url(#SVGID_6_);" d="M15.8,10.6c1-0.899,1.783-1.133,2.351-0.7
		c0.566,0.466,0.416,1.1-0.45,1.9c-0.867,0.834-1.65,1.066-2.351,0.7C14.65,12.066,14.8,11.434,15.8,10.6z"/>
	
		<radialGradient id="SVGID_7_" cx="7.751" cy="-7.4746" r="13.5561" gradientTransform="matrix(0.3781 0.9258 0.9258 -0.3781 13.8399 -5.6517)" gradientUnits="userSpaceOnUse">
		<stop  offset="0" style="stop-color:#C17BD1"/>
		<stop  offset="0.1569" style="stop-color:#B170BF"/>
		<stop  offset="0.4667" style="stop-color:#865491"/>
		<stop  offset="0.902" style="stop-color:#422848"/>
		<stop  offset="1" style="stop-color:#321D36"/>
	</radialGradient>
	<path style="fill-rule:evenodd;clip-rule:evenodd;fill:url(#SVGID_7_);" d="M0.65,7.35l0.1,2.1C1.183,8.15,1.7,7.1,2.3,6.3
		l0.95-1.15L2.7,8.8v0.75c1-0.9,1.867-1.583,2.6-2.05l1.15-0.75l-0.9,1.5c-0.633,1.1-1.017,1.816-1.15,2.15L3.8,11.85l4.8-1.05
		c-1.5,1.434-2.55,2.283-3.15,2.55l-0.95,0.4l0.8,0.75c0.7,0.533,1.383,0.866,2.05,1l1.5,0.45C7.917,16.217,7.033,16.35,6.2,16.35
		l-2.15-0.1l0.65,0.5c0.5,0.4,1.05,0.733,1.65,1l1.5,0.6l-0.7,0.101C6.983,18.417,6.8,18.366,6.6,18.3
		c-1.533-0.434-2.817-1.149-3.85-2.149L0.7,13.4c-0.667-1.334-0.867-2.75-0.6-4.25L0.4,8c0.033-0.267,0.117-0.517,0.25-0.75V7.35z"
		/>
	
		<radialGradient id="SVGID_8_" cx="6.9619" cy="-8.5156" r="13.7137" gradientTransform="matrix(0.4193 0.9079 0.9079 -0.4193 15.4623 -7.141)" gradientUnits="userSpaceOnUse">
		<stop  offset="0" style="stop-color:#FBE6FF"/>
		<stop  offset="0.4627" style="stop-color:#F1D4F7"/>
		<stop  offset="0.7922" style="stop-color:#E8C5F0"/>
		<stop  offset="1" style="stop-color:#99819E"/>
	</radialGradient>
	<path style="fill-rule:evenodd;clip-rule:evenodd;fill:url(#SVGID_8_);" d="M18.85,14.1c0.167,0,0.25,0.051,0.25,0.15
		c-0.8,0.733-1.616,1.384-2.449,1.95C16.616,16,16.9,15.6,17.5,15C18.167,14.4,18.616,14.1,18.85,14.1z"/>
</g>
</svg>
