<?xml version="1.0" encoding="iso-8859-1"?>
<!-- Generator: Adobe Illustrator 15.1.0, SVG Export Plug-In . SVG Version: 6.00 Build 0)  -->
<!DOCTYPE svg PUBLIC "-//W3C//DTD SVG 1.1//EN" "http://www.w3.org/Graphics/SVG/1.1/DTD/svg11.dtd">
<svg version="1.1" id="flash0.ai" xmlns="http://www.w3.org/2000/svg" xmlns:xlink="http://www.w3.org/1999/xlink" x="0px" y="0px"
	 width="65.95px" height="34.8px" viewBox="0 0 65.95 34.8" style="enable-background:new 0 0 65.95 34.8;" xml:space="preserve">
<symbol  id="eggy" viewBox="-0.008 -17.163 33.712 17.144">
	<g id="Layer_1_2_">
		
			<linearGradient id="SVGID_1_" gradientUnits="userSpaceOnUse" x1="-4.4971" y1="-7.7876" x2="38.723" y2="-7.7876" gradientTransform="matrix(0.78 4.513881e-004 4.285710e-004 0.78 3.5029 -3.6831)">
			<stop  offset="0.0235" style="stop-color:#A0A1A3"/>
			<stop  offset="1" style="stop-color:#78797A"/>
		</linearGradient>
		<path style="fill-rule:evenodd;clip-rule:evenodd;fill:url(#SVGID_1_);" d="M29.835-4.68c2.964-1.482,4.225-3.25,3.783-5.304
			c-0.442-2.054-2.457-3.783-6.045-5.187c-3.588-1.378-7.696-2.041-12.324-1.989c-4.628,0.052-8.424,0.833-11.388,2.34
			c-2.964,1.482-4.226,3.25-3.783,5.304c0.442,2.054,2.457,3.77,6.045,5.148c3.588,1.404,7.696,2.081,12.324,2.028
			C23.101-2.418,26.897-3.198,29.835-4.68z"/>
		
			<linearGradient id="SVGID_2_" gradientUnits="userSpaceOnUse" x1="18077.5586" y1="-14011.3359" x2="18124.6074" y2="-14011.3359" gradientTransform="matrix(-0.7546 0.1974 -0.1974 -0.7546 10909.1563 -14154.4609)">
			<stop  offset="0" style="stop-color:#CCCCCC"/>
			<stop  offset="1" style="stop-color:#FFFFFF"/>
		</linearGradient>
		<path style="fill-rule:evenodd;clip-rule:evenodd;fill:url(#SVGID_2_);" d="M29.835-4.524c2.964-1.352,4.225-2.964,3.783-4.836
			c-0.416-1.872-2.418-3.445-6.006-4.719c-3.588-1.274-7.709-1.885-12.363-1.833c-4.628,0.052-8.424,0.767-11.388,2.145
			c-2.964,1.378-4.226,3.003-3.783,4.875C0.52-7.02,2.535-5.447,6.123-4.173s7.696,1.885,12.324,1.833
			C23.101-2.418,26.897-3.146,29.835-4.524z"/>
		
			<linearGradient id="SVGID_3_" gradientUnits="userSpaceOnUse" x1="7.2188" y1="-16.4624" x2="46.7938" y2="-16.4624" gradientTransform="matrix(0.78 -4.927345e-004 -5.128200e-004 0.78 -4.1919 4.021)">
			<stop  offset="0" style="stop-color:#CCCCCC"/>
			<stop  offset="1" style="stop-color:#FFFFFF"/>
		</linearGradient>
		<path style="fill-rule:evenodd;clip-rule:evenodd;fill:url(#SVGID_3_);" d="M28.821-4.992c2.704-1.144,3.86-2.496,3.471-4.056
			c-0.416-1.56-2.262-2.873-5.538-3.939c-3.302-1.066-7.072-1.573-11.31-1.521c-4.238,0.052-7.722,0.663-10.452,1.833
			c-2.704,1.144-3.86,2.496-3.471,4.056c0.416,1.56,2.262,2.873,5.538,3.939c3.302,1.066,7.072,1.573,11.31,1.521
			C22.607-3.211,26.091-3.822,28.821-4.992z"/>
		<path style="fill-rule:evenodd;clip-rule:evenodd;fill:#AEB3B3;" d="M28.977-7.41l1.443-0.468c0.26-0.078,0.403-0.234,0.429-0.468
			c0.078-0.208,0.26-0.429,0.546-0.663c0.156-0.104,0.234-0.208,0.234-0.313c0.052-0.182,0.013-0.507-0.117-0.975
			c-0.13-0.468-0.676-0.962-1.638-1.482c-0.702-0.364-1.404-0.65-2.106-0.858c-0.442-0.156-0.728-0.26-0.858-0.312
			c-0.156-0.026-0.456-0.039-0.897-0.039c-0.338,0-0.637-0.052-0.897-0.156c-0.234-0.078-0.494-0.117-0.78-0.117
			c-0.364,0-0.793-0.104-1.287-0.312c-0.78-0.312-1.209-0.481-1.287-0.507c-0.338-0.104-0.649-0.13-0.936-0.078
			c-0.39,0.104-0.793,0.195-1.209,0.273c-0.468,0.078-0.91,0.091-1.326,0.039c-0.546-0.026-0.949-0.039-1.209-0.039
			c-0.442,0.026-0.728,0.065-0.858,0.117c-0.13,0.078-0.272,0.169-0.429,0.273c-0.208,0.156-0.338,0.247-0.39,0.272
			c-0.052,0.026-0.182,0.052-0.39,0.078c-0.728,0.338-1.196,0.507-1.404,0.507c-0.208,0-0.468,0.091-0.78,0.273
			c-0.312,0.156-0.845,0.234-1.599,0.234c-0.572,0-0.858,0.13-0.858,0.39c0,0.182-0.299,0.338-0.897,0.468
			c-0.364,0.078-0.715,0.377-1.053,0.897L7.8-10.452c-0.208-0.104-0.325-0.156-0.351-0.156c-0.026-0.026-0.156-0.026-0.39,0
			c-0.494,0-0.936-0.052-1.326-0.156c-0.52-0.13-0.897-0.04-1.131,0.272c-0.156,0.182-0.546,0.338-1.17,0.468
			C3.198-9.945,3.133-9.802,3.237-9.594c0.104,0.156,0.208,0.26,0.312,0.312l2.808,0.585c-0.442,0.13-0.832,0.195-1.17,0.195
			C4.875-8.528,4.628-8.541,4.446-8.541c-0.286-0.026-0.572,0-0.858,0.078C3.302-8.385,3.51-8.138,4.212-7.722
			C4.81-7.358,5.239-7.137,5.499-7.059c1.69,0.234,3.081,0.545,4.173,0.936C10.79-5.733,17.225-6.162,28.977-7.41z"/>
		<path style="fill-rule:evenodd;clip-rule:evenodd;fill:#FFD740;" d="M23.751-2.808l0.039-0.117
			c0.052-0.052,0.117-0.078,0.195-0.078c0.234,0,0.494-0.221,0.78-0.663c0.104-0.156,0.195-0.325,0.273-0.507
			c0.078-0.156,0.234-0.247,0.468-0.273c0.337-0.026,0.611-0.168,0.819-0.429l0.078-0.507c0.052-0.312,0.117-0.481,0.195-0.507
			c0.286-0.052,0.507-0.13,0.663-0.234l0.702-0.585l0.585-0.117c0.442-0.13,0.754-0.286,0.936-0.468
			c0.338-0.338,0.377-0.689,0.117-1.053l0.273-0.195c0.182-0.156,0.286-0.312,0.312-0.468c0.026-0.234-0.026-0.494-0.156-0.78
			l0.507-0.118c0.364-0.078,0.611-0.182,0.741-0.312c0.156-0.156,0.143-0.351-0.039-0.585c-0.182-0.208-0.429-0.377-0.741-0.507
			c-0.468-0.026-0.754-0.117-0.858-0.273c-0.104-0.182-0.637-0.338-1.599-0.468c-0.234-0.026-0.455,0.104-0.663,0.39
			c-0.156,0.26-0.26,0.39-0.312,0.39c-0.52-0.182-0.962-0.273-1.326-0.273l-1.677,0.078c-0.494,0.026-0.897-0.104-1.209-0.39
			l-0.273-0.429c-0.494-0.233-0.949-0.351-1.365-0.351c-0.442,0.026-0.767,0.026-0.975,0c-0.364-0.026-0.676-0.117-0.936-0.272
			c-0.338-0.208-0.637-0.338-0.897-0.39c-0.312-0.052-0.793-0.065-1.443-0.039c-0.546,0.026-0.897,0.13-1.053,0.312l-0.078,0.312
			l-1.248-0.039c-0.286,0-0.507,0.104-0.663,0.312l-0.117,0.351c-0.39-0.052-0.715-0.052-0.975,0
			c-0.234,0.208-0.533,0.338-0.897,0.39c-0.182,0.052-0.363,0.026-0.545-0.078c-0.234-0.104-0.455-0.156-0.663-0.156
			c-0.286-0.026-0.494,0.091-0.624,0.351l-0.117,0.468c-0.052,0.182-0.247,0.234-0.585,0.156c-0.156-0.052-0.338-0.013-0.546,0.117
			c-0.208,0.156-0.351,0.325-0.429,0.507c-0.078,0.156-0.039,0.299,0.117,0.429c0.182,0.13,0.325,0.248,0.429,0.352
			C9.1-9.399,9.074-9.23,8.892-9.048c-0.182,0.182-0.39,0.26-0.624,0.234C7.956-8.84,7.67-8.723,7.41-8.463
			C7.332-8.385,7.215-8.346,7.059-8.346H6.825C6.539-8.398,6.201-8.359,5.811-8.229c-0.39,0.13-0.819,0.117-1.287-0.039
			C4.134-8.45,3.822-8.515,3.588-8.463c-0.182,0.026-0.182,0.156,0,0.39L3.9-7.683C3.614-7.657,3.432-7.514,3.354-7.254
			C3.328-7.098,3.445-6.955,3.705-6.825l0.429,0.156C3.978-6.435,4.03-6.175,4.29-5.889s0.676,0.507,1.248,0.663l0.468,0.507
			C6.292-4.407,6.63-4.29,7.02-4.368c0.078,0.156,0.221,0.221,0.429,0.195c0.26-0.052,0.403-0.078,0.429-0.078
			C8.06-4.173,8.19-4.082,8.268-3.978l0.234,0.507C8.71-3.159,8.918-2.99,9.126-2.964c0.182,0.026,0.351-0.091,0.507-0.351
			c0.182-0.234,0.299-0.351,0.351-0.351c0.13,0,0.403,0.234,0.819,0.702c0.052,0.052,0.143,0.169,0.273,0.351
			c0.078,0.182,0.247,0.351,0.507,0.507c0.468,0.312,0.65,0.442,0.546,0.39l0.234,0.663c0.13,0.182,0.507,0.326,1.13,0.429
			l0.352,0.234c0.286,0.182,0.572,0.286,0.858,0.312c0.468,0.026,0.793-0.091,0.975-0.351l0.312,0.156
			c0.286,0.104,0.624,0.182,1.014,0.234c0.442,0.026,0.715,0.026,0.819,0c0.078-0.026,0.195-0.13,0.351-0.313
			c0.13-0.104,0.325-0.143,0.585-0.117c0.156,0.026,0.39,0.065,0.702,0.117c0.26,0.052,0.429,0.065,0.507,0.039
			c0.156-0.026,0.403-0.143,0.741-0.351c0.26-0.182,0.507-0.429,0.741-0.741c0.233-0.286,0.442-0.481,0.624-0.585
			c0.364-0.234,0.819-0.364,1.365-0.39C23.725-2.483,23.829-2.626,23.751-2.808z"/>
		<path style="fill-rule:evenodd;clip-rule:evenodd;fill:#F0C426;" d="M8.19-7.995c0.364,0.13,0.611,0.13,0.741,0
			C9.035-8.099,9.243-8.164,9.555-8.19C9.893-8.398,9.958-8.619,9.75-8.853L9.243-9.438C9.165-9.464,9.074-9.503,8.97-9.555
			C9.1-9.399,9.074-9.23,8.892-9.048c-0.182,0.182-0.39,0.26-0.624,0.234C7.956-8.84,7.67-8.723,7.41-8.463
			C7.332-8.385,7.215-8.346,7.059-8.346H6.825C6.539-8.398,6.201-8.359,5.811-8.229c-0.39,0.13-0.819,0.117-1.287-0.039
			C4.134-8.45,3.822-8.515,3.588-8.463c-0.182,0.026-0.182,0.156,0,0.39L3.9-7.683C3.614-7.657,3.432-7.514,3.354-7.254
			c-0.026,0.13,0.104,0.286,0.39,0.468c-0.052-0.338,0.052-0.52,0.313-0.546c0.286-0.026,0.52-0.13,0.702-0.312
			c0.104-0.026,0.182-0.026,0.233,0c0.104,0.052,0.221,0.13,0.352,0.233c0.13,0.104,0.26,0.221,0.39,0.352
			c0.104,0.052,0.221,0.039,0.351-0.04C6.162-7.15,6.24-7.241,6.318-7.371C6.396-7.475,6.5-7.54,6.63-7.566
			c0.104-0.026,0.247-0.026,0.429,0c0.13,0.026,0.286,0,0.468-0.078C7.657-7.696,7.774-7.8,7.878-7.956
			C7.93-8.034,8.034-8.047,8.19-7.995z M23.751-2.808l0.039-0.117c0.052-0.052,0.117-0.078,0.195-0.078
			c0.234,0,0.494-0.221,0.78-0.663c0.104-0.156,0.195-0.325,0.273-0.507c0.078-0.156,0.234-0.247,0.468-0.273
			c0.337-0.026,0.611-0.168,0.819-0.429l0.078-0.507c0.052-0.312,0.117-0.481,0.195-0.507c0.286-0.052,0.507-0.13,0.663-0.234
			l0.702-0.585l0.585-0.117c0.442-0.13,0.754-0.286,0.936-0.468c0.338-0.338,0.377-0.689,0.117-1.053l0.273-0.195
			c0.182-0.156,0.286-0.312,0.312-0.468c0.026-0.234-0.026-0.494-0.156-0.78l0.507-0.118c0.364-0.078,0.611-0.182,0.741-0.312
			c0.182-0.182,0.156-0.403-0.078-0.663l-0.897,0.351c-0.286,0.104-0.585,0.169-0.897,0.195c-0.208,0.026-0.39,0.065-0.546,0.117
			l-0.195,0.117c0,0.182-0.143,0.273-0.429,0.273c-0.13,0.13-0.377,0.144-0.741,0.04c-0.208-0.052-0.325-0.144-0.351-0.273
			c-0.026-0.208-0.039-0.325-0.039-0.351c0.104-0.208-0.013-0.455-0.351-0.741l-0.195-0.234c-0.312-0.104-0.585-0.156-0.819-0.156
			l-1.677,0.078c-0.494,0.026-0.897-0.104-1.209-0.39l-0.273-0.429c-0.494-0.233-0.949-0.351-1.365-0.351
			c-0.442,0.026-0.767,0.026-0.975,0c-0.364-0.026-0.676-0.117-0.936-0.272c-0.338-0.208-0.637-0.338-0.897-0.39
			c-0.312-0.052-0.793-0.065-1.443-0.039c-0.546,0.026-0.897,0.13-1.053,0.312l-0.078,0.312l-1.248-0.039
			c-0.286,0-0.507,0.104-0.663,0.312l-0.117,0.351c-0.39-0.052-0.715-0.052-0.975,0l-0.156,0.039L11.973-11.7h-0.04
			c-0.182,0.052-0.363,0.026-0.545-0.078c-0.234-0.104-0.455-0.156-0.663-0.156c-0.286-0.026-0.494,0.091-0.624,0.351l-0.117,0.468
			c-0.052,0.182-0.247,0.234-0.585,0.156c-0.156-0.052-0.338-0.013-0.546,0.117c-0.208,0.156-0.351,0.325-0.429,0.507
			c-0.078,0.156-0.039,0.299,0.117,0.429c0.134,0.096,0.244,0.187,0.332,0.273C8.787-9.734,8.755-9.825,8.775-9.906
			c0.026-0.104,0.052-0.195,0.078-0.272c0.026-0.052,0.104-0.104,0.234-0.156c0.078-0.026,0.195,0,0.351,0.078
			c0.13,0.078,0.234,0.091,0.312,0.039c0.26-0.208,0.52-0.39,0.78-0.546c0.208-0.104,0.364-0.195,0.468-0.273
			c0.052-0.026,0.182-0.026,0.39,0c0.338,0.026,0.559,0.013,0.663-0.04c0.364,0,0.649-0.039,0.857-0.117
			c0.078-0.026,0.182,0,0.313,0.078l0.234,0.429c0.052,0.104-0.078,0.234-0.39,0.39l0.546-0.078c1.17-0.26,1.781-0.26,1.833,0
			c0,0.104,0,0.168,0,0.195c0.026,0.052,0.091,0.117,0.195,0.195c0.052,0.026,0.091,0.13,0.118,0.312
			c0,0.156,0.195,0.234,0.585,0.234c0.337,0,0.663-0.013,0.975-0.039c0.208-0.026,0.403,0.013,0.585,0.117
			c0.052,0.026,0.259,0.091,0.624,0.195c0.182,0.052,0.273,0.156,0.273,0.312c-0.156,0.468-0.182,0.754-0.078,0.858
			c0.156,0.156,0.208,0.352,0.156,0.585c-0.026,0.104-0.117,0.26-0.273,0.468c-0.156,0.156-0.221,0.312-0.195,0.468l0.078,0.624
			h-0.39c-0.39,0.104-0.637,0.234-0.741,0.39c-0.052,0.156-0.104,0.273-0.156,0.351c-0.104,0.13-0.351,0.208-0.741,0.234
			c-0.052,0-0.325,0-0.819,0c-0.13,0-0.26,0.104-0.39,0.312c-0.312,0.52-0.364,0.78-0.156,0.78c0.182,0,0.507-0.052,0.975-0.156
			l0.78,0.273c0.156,0.052,0.364,0.078,0.624,0.078c0.26-0.026,0.403-0.078,0.43-0.156c0.026-0.078,0.143-0.182,0.351-0.313
			c0.234-0.13,0.39-0.195,0.468-0.195c0.286,0,0.572,0.104,0.858,0.312c0.104,0.078,0.182,0.234,0.234,0.468
			c0.052,0.182,0.143,0.273,0.273,0.273c0.26,0,0.663-0.091,1.209-0.273c0,0.104,0.013,0.195,0.039,0.273
			c0.078,0.208,0.208,0.312,0.39,0.312c0.156,0-0.078,0.144-0.702,0.429c-0.676,0.338-0.988,0.52-0.936,0.546
			c0.078,0.078-0.091,0.117-0.507,0.117s-0.65-0.039-0.702-0.117c-0.052-0.078-0.208-0.078-0.468,0
			c-0.234,0.078-0.312,0.169-0.234,0.273c0.052,0.052,0.325,0.182,0.819,0.39c0.312,0.13,0.494,0.273,0.545,0.429
			c0.026,0.052-0.013,0.078-0.117,0.078l0.78,0.351l0.507-0.273c0.26-0.182,0.507-0.429,0.741-0.741
			c0.233-0.286,0.442-0.481,0.624-0.585c0.364-0.234,0.819-0.364,1.365-0.39C23.725-2.483,23.829-2.626,23.751-2.808z"/>
		<path style="fill-rule:evenodd;clip-rule:evenodd;fill:#E3B924;" d="M24.18-4.212c0.13-0.13,0.208-0.221,0.233-0.273
			c0.052-0.078,0.078-0.143,0.078-0.195c0.026,0,0.091,0.013,0.195,0.039c0.078,0,0.143,0.052,0.195,0.156
			c0.052,0.078,0.13,0.13,0.234,0.156l0.39-0.118c0.337-0.026,0.611-0.168,0.819-0.429l0.078-0.507
			c0.052-0.312,0.117-0.481,0.195-0.507l0.195-0.078h-0.039c-0.104-0.182-0.13-0.429-0.078-0.741
			c0.052-0.312,0.143-0.533,0.272-0.663c0.104-0.104,0.273-0.169,0.507-0.195c0.234-0.026,0.39-0.065,0.468-0.117
			c0.078-0.052,0.247-0.13,0.507-0.234c0.182-0.078,0.26-0.143,0.234-0.195c0-0.052-0.039-0.13-0.117-0.234
			c-0.026-0.104,0.039-0.182,0.195-0.234c0.468-0.208,0.702-0.377,0.702-0.507c0-0.026,0.078-0.143,0.234-0.351
			c0.13-0.182,0.13-0.299,0-0.351c-0.208-0.052-0.546,0.091-1.014,0.429c-0.078,0.052-0.39,0.078-0.936,0.078
			c-0.494-0.026-0.741-0.144-0.741-0.351c0-0.052,0.026-0.169,0.078-0.351c0.026-0.13,0.026-0.221,0-0.273
			c-0.104-0.182-0.143-0.39-0.117-0.624c0-0.176,0.072-0.339,0.215-0.488l-0.098,0.098c-0.52-0.182-0.962-0.273-1.326-0.273
			l-1.677,0.078c-0.494,0.026-0.897-0.104-1.209-0.39l-0.273-0.429c-0.494-0.233-0.949-0.351-1.365-0.351
			c-0.442,0.026-0.767,0.026-0.975,0c-0.364-0.026-0.676-0.117-0.936-0.272c-0.39-0.26-0.793-0.403-1.209-0.429
			c-0.156,0.104-0.117,0.273,0.117,0.507c0.13,0.13,0.143,0.325,0.039,0.585c-0.104,0.26-0.091,0.417,0.039,0.468
			c0.442,0.234,0.702,0.494,0.78,0.78c0.13,0.39,0.338,0.585,0.624,0.585c0.078,0,0.143,0.104,0.195,0.312
			c0.078,0.234,0.156,0.39,0.234,0.468c0.052,0.052,0.143,0.117,0.273,0.195c0.078,0.052,0.117,0.117,0.117,0.195
			c0,0.286-0.064,0.481-0.195,0.585c-0.156,0.104-0.26,0.182-0.312,0.234c-0.13,0.104-0.156,0.273-0.078,0.507l0.273,0.741
			l-0.273,0.352c-0.26-0.182-0.416-0.13-0.468,0.156c-0.026,0.052-0.091,0.195-0.195,0.429c-0.052,0.104-0.026,0.182,0.078,0.234
			c0.104,0.052,0.221,0.104,0.351,0.156c0.078,0.052,0.091,0.156,0.039,0.312l-0.273,0.585L19.11-4.758l-0.351,0.39
			c-0.052,0-0.078,0.013-0.078,0.04c-0.052,0.052-0.013,0.117,0.117,0.195c0.13,0.052,0.312,0.247,0.546,0.585
			c0.208,0.312,0.351,0.481,0.429,0.507c0.104,0,0.26,0.039,0.468,0.117c0.234,0.026,0.468,0.026,0.702,0l0.585-0.078
			c0.052,0,0.195,0.026,0.429,0.078c0.078,0,0.169-0.052,0.273-0.156c0.156-0.208,0.312-0.376,0.468-0.507
			c0.026-0.026,0.039-0.169,0.039-0.429c0-0.13,0.117-0.195,0.351-0.195H24.18z"/>
		<path style="fill-rule:evenodd;clip-rule:evenodd;fill:#F0C426;" d="M24.258-5.343c0.156-0.026,0.351-0.247,0.585-0.663
			c0.052-0.13-0.013-0.325-0.195-0.585c-0.104-0.104-0.221-0.143-0.351-0.117c-0.182,0.104-0.351,0.195-0.507,0.273
			c-0.182,0.078-0.338,0.117-0.468,0.117c-0.026,0-0.143-0.039-0.351-0.117c-0.313-0.078-0.689-0.013-1.131,0.195
			c-0.078,0.182-0.26,0.299-0.546,0.351c-0.182,0.052-0.299,0.168-0.351,0.351c-0.104,0.286-0.169,0.442-0.195,0.468
			c-0.078,0.104-0.039,0.169,0.117,0.195c0.338,0.026,0.572,0.065,0.702,0.117c0.26,0.052,0.858-0.117,1.794-0.507
			C23.621-5.369,23.92-5.395,24.258-5.343z"/>
		<path style="fill-rule:evenodd;clip-rule:evenodd;fill:#F0C426;" d="M23.829-7.761c0.104-0.13,0.156-0.351,0.156-0.663
			c0-0.234-0.078-0.377-0.234-0.429c-0.208-0.026-0.364-0.065-0.468-0.117c-0.26-0.182-0.65-0.234-1.17-0.156
			c-0.182,0.026-0.352,0.104-0.507,0.234c-0.208,0.182-0.364,0.299-0.468,0.351c-0.234,0.104-0.312,0.247-0.234,0.429
			c0.052,0.182,0.208,0.273,0.468,0.273c0.078,0,0.299,0.052,0.663,0.156c0.337,0.13,0.663,0.182,0.975,0.156
			C23.426-7.553,23.699-7.631,23.829-7.761z"/>
		<path style="fill-rule:evenodd;clip-rule:evenodd;fill:#F0C426;" d="M24.882-8.814c0.312,0,0.521-0.117,0.625-0.351
			c0.078-0.234,0.013-0.416-0.195-0.546c-0.182-0.104-0.338-0.13-0.468-0.078c-0.234,0.104-0.39,0.168-0.468,0.195
			c-0.234,0.026-0.26,0.168-0.078,0.429C24.453-8.931,24.648-8.814,24.882-8.814z"/>
		<path style="fill-rule:evenodd;clip-rule:evenodd;fill:#F0C426;" d="M21.216-10.608l0.585-0.39
			c0.208-0.13,0.312-0.234,0.312-0.312c0.026-0.052,0-0.143-0.078-0.273c-0.156-0.312-0.611-0.468-1.365-0.468
			c-0.312,0-0.507,0.026-0.585,0.078c-0.182,0.078-0.351,0.144-0.507,0.195c-0.312,0.078-0.312,0.273,0,0.585
			c0.208,0.156,0.598,0.468,1.17,0.936C21.008-10.049,21.164-10.166,21.216-10.608z"/>
		<path style="fill-rule:evenodd;clip-rule:evenodd;fill:#F0C426;" d="M25.935-4.992c0.234-0.13,0.182-0.312-0.156-0.546
			c-0.104-0.078-0.221-0.052-0.351,0.078c-0.104,0.182-0.195,0.312-0.273,0.39c-0.13,0.13-0.078,0.195,0.156,0.195
			C25.545-4.849,25.753-4.888,25.935-4.992z"/>
		<path style="fill-rule:evenodd;clip-rule:evenodd;fill:#FFE357;" d="M20.085-0.351v-0.195c-0.026-0.052-0.104-0.104-0.234-0.156
			c-0.182-0.052-0.299-0.104-0.351-0.156l-0.039-0.156c-0.078-0.13-0.234-0.208-0.468-0.234c-0.208-0.078-0.338-0.143-0.39-0.195
			c-0.13-0.13-0.364-0.195-0.702-0.195c-0.156,0.026-0.273,0.052-0.352,0.078c-0.078,0-0.195-0.039-0.351-0.117
			c-0.13-0.078-0.039-0.169,0.273-0.273l0.585-0.156c0.104-0.182,0.286-0.312,0.546-0.39c0.078,0,0.091-0.065,0.039-0.195
			c-0.026-0.078,0.078-0.091,0.312-0.039c0.182,0.052,0.338,0.013,0.468-0.117c0.104-0.104,0.156-0.221,0.156-0.352
			c0-0.078-0.04-0.091-0.117-0.039c-0.104,0.026-0.182,0.026-0.234,0l-0.195-0.234c-0.052-0.104-0.117-0.143-0.195-0.117h-0.234
			c-0.026,0-0.078-0.117-0.156-0.351c-0.052-0.156-0.143-0.195-0.273-0.117c-0.182,0.104-0.338,0.234-0.468,0.39
			c-0.286,0.338-0.481,0.546-0.585,0.624c-0.208,0.156-0.442,0.26-0.702,0.312c-0.13,0.026-0.377,0-0.741-0.078
			c-0.286-0.052-0.468-0.052-0.546,0c-0.182,0.104-0.611,0.117-1.287,0.04c-0.104,0-0.338,0.091-0.702,0.272
			c-0.13,0.078-0.26,0.078-0.39,0c-0.156-0.13-0.286-0.221-0.39-0.272c-0.104-0.052-0.13-0.195-0.078-0.43
			c0.052-0.286,0.052-0.468,0-0.545c-0.208-0.208-0.312-0.455-0.312-0.741c0-0.078,0.039-0.26,0.117-0.546
			c0.052-0.26-0.338-0.376-1.17-0.351c-0.156,0.156-0.364,0.26-0.624,0.312C10.01-4.992,9.893-4.797,9.945-4.485
			c0,0.156-0.182,0.286-0.546,0.39c-0.182,0.078-0.364,0-0.546-0.234c-0.13-0.156-0.299-0.208-0.507-0.156
			c-0.104,0.026-0.195,0.026-0.273,0c-0.234-0.104-0.364-0.156-0.39-0.156c-0.39-0.104-0.767-0.182-1.131-0.234L5.733-4.992
			l0.273,0.273C6.292-4.407,6.63-4.29,7.02-4.368c0.078,0.156,0.221,0.221,0.429,0.195c0.26-0.052,0.403-0.078,0.429-0.078
			C8.06-4.173,8.19-4.082,8.268-3.978l0.234,0.507C8.71-3.159,8.918-2.99,9.126-2.964c0.182,0.026,0.351-0.091,0.507-0.351
			c0.182-0.234,0.299-0.351,0.351-0.351c0.13,0,0.403,0.234,0.819,0.702c0.052,0.052,0.143,0.169,0.273,0.351
			c0.078,0.182,0.247,0.351,0.507,0.507c0.468,0.312,0.65,0.442,0.546,0.39l0.234,0.663c0.13,0.182,0.507,0.326,1.13,0.429
			l0.352,0.234c0.286,0.182,0.572,0.286,0.858,0.312c0.468,0.026,0.793-0.091,0.975-0.351l0.312,0.156
			c0.286,0.104,0.624,0.182,1.014,0.234c0.442,0.026,0.715,0.026,0.819,0c0.078-0.026,0.195-0.13,0.351-0.313
			c0.13-0.104,0.325-0.143,0.585-0.117c0.156,0.026,0.39,0.065,0.702,0.117C19.747-0.299,19.955-0.299,20.085-0.351z"/>
		<path style="fill-rule:evenodd;clip-rule:evenodd;fill:#FFE357;" d="M8.073-5.304c0.052,0,0.182,0.052,0.39,0.156
			c0.234,0.104,0.442,0.169,0.624,0.195c0.208,0.026,0.325,0,0.351-0.078c0.078-0.26,0.13-0.403,0.156-0.429
			c0.182-0.208,0.273-0.338,0.273-0.39c0.052-0.104,0.065-0.26,0.04-0.468C9.88-6.5,9.802-6.591,9.672-6.591
			C9.516-6.617,9.412-6.656,9.36-6.708C9.23-6.89,8.996-6.864,8.658-6.63C8.502-6.526,8.255-6.487,7.917-6.513
			c-0.26-0.052-0.637-0.039-1.131,0.04C6.474-6.37,6.253-6.318,6.123-6.318c-0.416,0-0.676,0.065-0.78,0.195
			C5.265-6.071,5.304-5.967,5.46-5.811c0.13,0.13,0.247,0.195,0.351,0.195c0.546,0,0.949,0.04,1.209,0.118
			C7.462-5.369,7.813-5.304,8.073-5.304z"/>
		<path style="fill-rule:evenodd;clip-rule:evenodd;fill:#FFE357;" d="M15.912-4.641c0.104-0.052,0.416-0.104,0.936-0.156
			c0.26-0.052,0.39-0.143,0.39-0.273c0.026-0.078,0.026-0.234,0-0.468c0.078-0.234,0.039-0.325-0.117-0.273
			c0-0.026-0.117-0.091-0.351-0.195c-0.026-0.026-0.208-0.039-0.546-0.039c-0.416,0-0.767-0.026-1.053-0.078
			c-0.338-0.078-0.572-0.182-0.702-0.312c-0.104-0.182-0.208-0.338-0.312-0.468c-0.182-0.208-0.559-0.286-1.13-0.234
			c-0.65-0.026-1.027-0.04-1.131-0.04c-0.26,0-0.546,0.104-0.858,0.313c-0.13,0.13,0.052,0.376,0.546,0.741
			c0.104,0.052,0.234,0.143,0.39,0.273c0.156,0.104,0.338,0.156,0.546,0.156l0.546-0.039c0.26,0,0.429,0.026,0.507,0.078
			c0.156,0.104,0.208,0.247,0.156,0.429c0.026,0.208,0.052,0.377,0.078,0.507c0,0.026,0.104,0.182,0.312,0.468
			c0.39,0.286,0.715,0.442,0.975,0.468c0.208,0,0.286-0.026,0.233-0.078c-0.104-0.078-0.143-0.129-0.117-0.156
			C15.444-4.381,15.678-4.589,15.912-4.641z"/>
		<path style="fill-rule:evenodd;clip-rule:evenodd;fill:#FFE357;" d="M18.096-6.201c0.078,0.052,0.13,0.13,0.156,0.234
			c0.026,0.052,0.104,0.091,0.234,0.117c0.13,0.026,0.195,0,0.195-0.078c0.026-0.078,0.039-0.26,0.039-0.545l0.078-0.546
			c0-0.052,0.039-0.156,0.117-0.312s0.104-0.312,0.078-0.468c0-0.182-0.065-0.234-0.195-0.156c-0.156,0.104-0.247,0.169-0.273,0.195
			l-1.599,0.118c-0.442,0.104-0.599,0.325-0.468,0.663c0.026,0.13,0.312,0.182,0.858,0.156C17.472-6.747,17.732-6.539,18.096-6.201z
			"/>
		<path style="fill-rule:evenodd;clip-rule:evenodd;fill:#FFE357;" d="M10.53-8.931c-0.416,0.156-0.169,0.325,0.741,0.507
			c0.156,0.026,0.481,0.013,0.975-0.039c0.104-0.026,0.234,0,0.39,0.078c0.182,0.104,0.376,0.182,0.585,0.234
			c0.26,0.052,0.468,0.039,0.624-0.039c0.078-0.078,0.195-0.247,0.351-0.507c0.104-0.182,0.064-0.286-0.118-0.312
			c-0.286-0.026-0.455-0.091-0.507-0.195c-0.078-0.13-0.195-0.208-0.351-0.234c-0.182-0.052-0.338-0.091-0.468-0.117
			c-0.208-0.052-0.572,0.065-1.092,0.351C11.167-9.152,10.79-9.061,10.53-8.931z"/>
		<path style="fill-rule:evenodd;clip-rule:evenodd;fill:#FFF0A6;" d="M8.073-5.304c0.026,0,0.104,0,0.234,0
			c0.052,0,0.104-0.026,0.156-0.078c0.052-0.104-0.052-0.247-0.312-0.429C8.073-5.863,7.995-5.889,7.917-5.889
			C7.735-5.837,7.566-5.811,7.41-5.811c-0.234,0-0.377-0.013-0.429-0.039C6.929-5.902,6.825-5.954,6.669-6.006
			C6.461-6.11,6.279-6.097,6.123-5.967C5.967-5.863,5.941-5.772,6.045-5.694c0.078,0.078,0.208,0.117,0.39,0.117
			c0.13,0.026,0.377,0.039,0.741,0.039c0.26,0,0.416,0.065,0.468,0.195C7.826-5.291,7.969-5.278,8.073-5.304z"/>
		<path style="fill-rule:evenodd;clip-rule:evenodd;fill:#FFF0A6;" d="M12.48-6.006c0.286,0,0.533-0.078,0.741-0.234
			c0.208-0.13,0.299-0.26,0.272-0.39c-0.026-0.104-0.078-0.143-0.156-0.117h-0.312c-0.078-0.026-0.208,0-0.39,0.078
			c-0.286,0.13-0.442,0.195-0.468,0.195c-0.156,0.052-0.195,0.143-0.117,0.272C12.129-6.071,12.272-6.006,12.48-6.006z"/>
		<path style="fill-rule:evenodd;clip-rule:evenodd;fill:#FFF0A6;" d="M14.664-4.056c0.13,0.052,0.364-0.182,0.702-0.702
			c0.208-0.442,0.221-0.702,0.039-0.78c-0.104-0.052-0.312-0.078-0.624-0.078c-0.13,0-0.325,0.13-0.585,0.39
			c-0.182,0.182-0.273,0.39-0.273,0.624c0.026,0.104,0.104,0.195,0.234,0.273C14.417-4.199,14.586-4.108,14.664-4.056z"/>
		<path style="fill-rule:evenodd;clip-rule:evenodd;fill:#FFF0A6;" d="M17.004-1.716c0.208,0,0.429-0.052,0.663-0.156
			c0.182-0.078,0.364-0.208,0.546-0.39c0.13-0.078,0.299-0.156,0.507-0.234c0.13-0.104,0.221-0.156,0.273-0.156l-0.195-0.273
			c-0.078-0.052-0.299-0.065-0.663-0.039c-0.233-0.052-0.416-0.065-0.546-0.039c-0.26,0.13-0.429,0.208-0.507,0.234
			c-0.026,0.182-0.091,0.325-0.195,0.429c-0.052,0.078-0.13,0.13-0.234,0.156c-0.13,0.026-0.234,0.052-0.312,0.078L15.6-1.794
			c-0.156,0.052-0.221,0.091-0.195,0.117c0.026,0,0.065,0.013,0.117,0.039c0.208,0.104,0.442,0.156,0.702,0.156
			c0.156,0,0.286-0.039,0.39-0.117C16.692-1.677,16.822-1.716,17.004-1.716z"/>
		<path style="fill-rule:evenodd;clip-rule:evenodd;fill:#FFF0A6;" d="M18.096-0.624c0.26,0,0.468-0.039,0.624-0.117
			c0.156-0.078,0.195-0.143,0.117-0.195c-0.052-0.052-0.13-0.078-0.234-0.078c-0.156-0.026-0.286-0.052-0.39-0.078
			c-0.13-0.052-0.221-0.065-0.273-0.039c-0.234,0.078-0.364,0.117-0.39,0.117c-0.234,0.026-0.26,0.104-0.078,0.234
			C17.68-0.676,17.888-0.624,18.096-0.624z"/>
		<path style="fill-rule:evenodd;clip-rule:evenodd;fill:#FFF0A6;" d="M13.845-0.936c0.572,0,0.858-0.091,0.858-0.273
			c0-0.078-0.039-0.117-0.117-0.117c-0.156-0.026-0.299-0.078-0.429-0.156c-0.182-0.104-0.312-0.13-0.39-0.078
			c-0.312,0.156-0.481,0.234-0.507,0.234C12.74-1.17,12.935-1.04,13.845-0.936z"/>
		<path style="fill-rule:evenodd;clip-rule:evenodd;fill:#FFF0A6;" d="M14.664-0.546c0.364,0.078,0.546,0.039,0.546-0.117
			c0-0.13-0.13-0.195-0.39-0.195c-0.208,0-0.325,0.052-0.351,0.156C14.443-0.624,14.508-0.572,14.664-0.546z"/>
		<path style="fill-rule:evenodd;clip-rule:evenodd;fill:#FFF0A6;" d="M12.129-3.471l0.039-0.117c0-0.104-0.208-0.156-0.624-0.156
			l-0.351,0.272c-0.104,0.052-0.117,0.13-0.039,0.234c0.052,0.104,0.169,0.182,0.351,0.234c0,0.052,0.026,0.13,0.078,0.234
			c0.052,0.156,0.156,0.286,0.312,0.39s0.299,0.143,0.429,0.117c0.078,0,0.208-0.04,0.39-0.117c0.234-0.026,0.091-0.221-0.429-0.585
			L12.129-3.471z"/>
		<path style="fill-rule:evenodd;clip-rule:evenodd;fill:#FFF0A6;" d="M10.998-4.368c0.546-0.104,0.819-0.169,0.819-0.195
			c0-0.052-0.091-0.169-0.273-0.351c-0.078-0.104-0.13-0.144-0.156-0.118c-0.104,0-0.169,0-0.195,0c-0.078,0-0.169,0.04-0.273,0.118
			c-0.13,0.13-0.26,0.221-0.39,0.272c-0.156,0.104-0.169,0.182-0.039,0.234C10.595-4.355,10.764-4.342,10.998-4.368z"/>
		<path style="fill-rule:evenodd;clip-rule:evenodd;fill:#FFF0A6;" d="M13.143-8.229c0.156,0,0.286-0.078,0.39-0.234
			c0.13-0.156,0.169-0.273,0.117-0.351c-0.052-0.052-0.312,0.026-0.78,0.234l-0.195,0.078c-0.104,0.052-0.117,0.104-0.039,0.156
			C12.74-8.294,12.909-8.255,13.143-8.229z"/>
		<path style="fill-rule:evenodd;clip-rule:evenodd;fill:#FFD740;" d="M8.112-7.683c0.156-0.156,0.247-0.416,0.273-0.78
			c0-0.312-0.065-0.559-0.195-0.741C8.008-9.412,7.787-9.568,7.527-9.672C7.449-9.776,7.332-9.828,7.176-9.828
			c-0.182-0.026-0.313-0.039-0.39-0.039L6.084-9.984c-0.13,0-0.286-0.091-0.468-0.273c-0.104-0.13-0.325-0.195-0.663-0.195
			c-0.104,0-0.195,0.039-0.273,0.117l-0.234,0.273C4.316-9.958,4.03-9.906,3.588-9.906c-0.338,0-0.507,0.091-0.507,0.273
			c0,0.052,0.104,0.247,0.312,0.585c0.156,0.156,0.429,0.234,0.819,0.234c0.234,0,0.39,0.026,0.468,0.078
			c0.078,0.104,0.156,0.182,0.234,0.234c0.078,0.026,0.182,0.13,0.312,0.312c0.13,0.182,0.247,0.299,0.351,0.351
			c0.208,0.078,0.364,0.182,0.468,0.312c0.286,0,0.559,0.078,0.819,0.234C7.176-7.085,7.592-7.215,8.112-7.683z"/>
		<path style="fill-rule:evenodd;clip-rule:evenodd;fill:#F0C426;" d="M8.112-7.683c0.156-0.156,0.247-0.416,0.273-0.78
			c0-0.312-0.065-0.559-0.195-0.741C8.008-9.412,7.787-9.568,7.527-9.672C7.449-9.776,7.332-9.828,7.176-9.828
			c-0.182-0.026-0.313-0.039-0.39-0.039L6.084-9.984c-0.13,0-0.286-0.091-0.468-0.273c-0.104-0.13-0.325-0.195-0.663-0.195
			c-0.104,0-0.195,0.039-0.273,0.117l-0.234,0.273L4.329-9.984c-0.13,0.052-0.376,0.078-0.741,0.078
			c-0.338,0-0.507,0.091-0.507,0.273L3.12-9.555c0.208,0,0.416-0.026,0.624-0.078c0.338-0.13,0.611-0.195,0.819-0.195
			c0.104,0,0.377,0.065,0.819,0.195c0.26,0.078,0.455,0.156,0.585,0.234C5.993-9.373,6.058-9.36,6.162-9.36s0.26,0,0.468,0
			c0.13,0,0.195,0.039,0.195,0.117C6.799-9.139,6.786-9.074,6.786-9.048C6.76-8.996,6.799-8.931,6.903-8.853
			C7.085-8.775,7.202-8.71,7.254-8.658C7.384-8.58,7.436-8.515,7.41-8.463C7.332-8.385,7.267-8.32,7.215-8.268
			C7.137-8.19,7.111-8.112,7.137-8.034C7.189-7.93,7.215-7.865,7.215-7.839c0.026,0.078,0.013,0.143-0.039,0.195L6.864-7.293
			C7.202-7.137,7.618-7.267,8.112-7.683z"/>
		<path style="fill-rule:evenodd;clip-rule:evenodd;fill:#E3B924;" d="M8.112-7.683c0.156-0.156,0.247-0.416,0.273-0.78
			c0-0.312-0.065-0.559-0.195-0.741C8.008-9.412,7.787-9.568,7.527-9.672C7.449-9.776,7.332-9.828,7.176-9.828
			c-0.182-0.026-0.313-0.039-0.39-0.039L6.084-9.984c-0.13,0-0.286-0.091-0.468-0.273c-0.104-0.13-0.325-0.195-0.663-0.195
			c-0.104,0-0.195,0.039-0.273,0.117l-0.234,0.273L4.29-9.984h0.039c0.26-0.104,0.572-0.091,0.937,0.039
			c0.13,0.052,0.208,0.091,0.234,0.117l0.351,0.04c0.182,0.026,0.507,0.091,0.975,0.195C7.111-9.49,7.306-9.438,7.41-9.438
			c0,0.208,0.013,0.338,0.039,0.39c0.26,0.13,0.39,0.234,0.39,0.312L7.8-8.346c0,0.104,0.026,0.195,0.078,0.273
			c0.13,0.104,0.169,0.26,0.117,0.468L8.112-7.683z"/>
		<path style="fill-rule:evenodd;clip-rule:evenodd;fill:#FFE357;" d="M5.46-8.463C5.226-8.359,5.187-8.294,5.343-8.268
			C5.577-8.242,5.694-8.216,5.694-8.19c0,0.078,0.091,0.169,0.273,0.273c0.182,0.13,0.338,0.182,0.468,0.156
			c0.26-0.052,0.39-0.156,0.39-0.312c0-0.078-0.052-0.221-0.156-0.429c-0.052-0.13-0.104-0.195-0.156-0.195
			c-0.13,0-0.208-0.013-0.234-0.039C6.175-8.788,6.084-8.801,6.006-8.775C5.85-8.671,5.668-8.567,5.46-8.463z"/>
		<path style="fill-rule:evenodd;clip-rule:evenodd;fill:#FFE357;" d="M3.861-9.282C3.809-9.204,3.835-9.126,3.939-9.048
			C3.991-8.996,4.056-8.97,4.134-8.97c0.052,0,0.182,0,0.39,0c0.468,0,0.741-0.091,0.819-0.273c0.052-0.078,0.052-0.104,0-0.078
			c-0.104,0-0.208-0.026-0.312-0.078c-0.13-0.052-0.234-0.078-0.313-0.078C4.537-9.425,4.394-9.399,4.29-9.399
			C4.056-9.399,3.913-9.36,3.861-9.282z"/>
		<path style="fill-rule:evenodd;clip-rule:evenodd;fill:#FFE357;" d="M6.24-7.917c0.364,0,0.481-0.104,0.351-0.312
			c-0.026-0.026-0.195-0.026-0.507,0C5.902-8.203,5.85-8.151,5.928-8.073C6.032-7.969,6.136-7.917,6.24-7.917z"/>
		<path style="fill-rule:evenodd;clip-rule:evenodd;fill:#D9AC0D;" d="M25.038-6.123c0.182,0.052,0.351-0.052,0.507-0.312
			c0.156-0.234,0.208-0.442,0.156-0.624c-0.052-0.13-0.156-0.222-0.313-0.273c-0.156-0.026-0.299-0.065-0.429-0.117
			c-0.208-0.078-0.572-0.013-1.092,0.195l-1.755,0.663l0.233,0.118c0.182,0.078,0.39,0.091,0.625,0.039
			c0.286-0.052,0.559-0.052,0.819,0c0.182,0.052,0.312,0.052,0.39,0c0.026-0.052,0.078-0.13,0.156-0.234
			c0.052-0.026,0.13,0.026,0.234,0.156C24.674-6.331,24.83-6.201,25.038-6.123z"/>
		<path style="fill-rule:evenodd;clip-rule:evenodd;fill:#D9AC0D;" d="M23.985-8.424c0.026,0.234,0.26,0.325,0.702,0.273
			c0.416-0.052,0.689-0.143,0.819-0.273c0.129-0.13-0.078-0.26-0.625-0.39c-0.026-0.052-0.338-0.26-0.936-0.624
			c-0.364-0.104-0.741-0.156-1.131-0.156c-0.26,0-0.533,0.065-0.819,0.195c-0.313,0.13-0.403,0.195-0.273,0.195l0.78-0.118
			c0.13,0,0.39,0.118,0.78,0.352c0.026,0.026,0.195,0.117,0.507,0.273C23.894-8.645,23.959-8.554,23.985-8.424z"/>
		<path style="fill-rule:evenodd;clip-rule:evenodd;fill:#D9AC0D;" d="M25.506-9.204c0.416,0.104,0.559-0.091,0.429-0.585
			c-0.338-0.156-0.637-0.169-0.897-0.04l0.117,0.312C25.285-9.334,25.402-9.23,25.506-9.204z"/>
		<path style="fill-rule:evenodd;clip-rule:evenodd;fill:#D9AC0D;" d="M22.113-9.945c0.286,0.156,0.507,0.143,0.663-0.039
			c0.13-0.182,0.104-0.351-0.078-0.507c-0.13-0.104-0.234-0.156-0.312-0.156c-0.13,0.026-0.299,0.039-0.507,0.039
			C21.411-10.608,21.489-10.387,22.113-9.945z"/>
		<path style="fill-rule:evenodd;clip-rule:evenodd;fill:#D9AC0D;" d="M20.748-6.669c0.364,0.078,0.585,0.052,0.663-0.078
			c0.026-0.078,0.026-0.221,0-0.429c-0.052-0.182-0.273-0.221-0.663-0.117c-0.208,0.026-0.468,0.104-0.78,0.234
			C19.656-6.929,19.916-6.799,20.748-6.669z"/>
		<path style="fill-rule:evenodd;clip-rule:evenodd;fill:#D9AC0D;" d="M26.598-7.488c0.364,0.052,0.52,0.013,0.468-0.117
			c-0.182-0.182-0.312-0.325-0.39-0.429c-0.078-0.104-0.144-0.143-0.195-0.117c-0.078,0.052-0.234,0.078-0.468,0.078
			c-0.312-0.026-0.364,0.052-0.156,0.234C26.091-7.657,26.338-7.54,26.598-7.488z"/>
		<path style="fill-rule:evenodd;clip-rule:evenodd;fill:#D9AC0D;" d="M20.241-2.964c0.104,0.13,0.351,0.169,0.741,0.117
			c0.442-0.052,0.689-0.065,0.741-0.04c0.208,0.104,0.364-0.156,0.468-0.78C22.217-3.822,22.204-3.9,22.152-3.9
			c-0.156-0.026-0.338-0.117-0.546-0.273c-0.182-0.182-0.286-0.26-0.312-0.234c-0.052,0.13-0.208,0.182-0.468,0.156
			c-0.313-0.026-0.507-0.039-0.585-0.039c-0.078,0.052-0.208,0.091-0.39,0.117c-0.286-0.052-0.442-0.078-0.468-0.078
			c-0.026,0-0.013,0.169,0.039,0.507c0.078,0.416,0.208,0.649,0.39,0.702C19.916-3.016,20.059-2.99,20.241-2.964z"/>
		<path style="fill-rule:evenodd;clip-rule:evenodd;fill:#D9AC0D;" d="M19.266-7.956c0.234,0.052,0.39-0.026,0.468-0.234
			c0.078-0.208,0-0.39-0.234-0.546c-0.234-0.156-0.377-0.221-0.429-0.195l-0.39,0.39c-0.104,0.104-0.104,0.221,0,0.351
			S18.98-7.982,19.266-7.956z"/>
		<path style="fill-rule:evenodd;clip-rule:evenodd;fill:#D9AC0D;" d="M26.481-9.048c0.182,0.442,0.312,0.715,0.39,0.819
			c0.078,0.182,0.195,0.273,0.351,0.273c0.052,0,0.442-0.091,1.17-0.273c0.078-0.026,0.299,0.052,0.663,0.234l0.156-0.273
			c0.156-0.156,0.286-0.182,0.39-0.078l0.273-0.195c0.182-0.156,0.286-0.312,0.312-0.468c0.026-0.234-0.026-0.494-0.156-0.78
			l0.507-0.118c0.364-0.078,0.611-0.182,0.741-0.312c0.156-0.156,0.143-0.351-0.039-0.585c-0.182-0.208-0.429-0.377-0.741-0.507
			c-0.468-0.026-0.754-0.117-0.858-0.273c-0.104-0.182-0.637-0.338-1.599-0.468c-0.234-0.026-0.455,0.104-0.663,0.39
			c-0.156,0.26-0.26,0.39-0.312,0.39c-0.52-0.182-0.962-0.273-1.326-0.273l-1.677,0.078c-0.494,0.026-0.897-0.104-1.209-0.39
			l-0.273-0.429c-0.494-0.233-0.949-0.351-1.365-0.351c-0.442,0.026-0.767,0.026-0.975,0c-0.364-0.026-0.676-0.117-0.936-0.272
			c-0.338-0.208-0.637-0.338-0.897-0.39c-0.312-0.052-0.793-0.065-1.443-0.039c-0.546,0.026-0.897,0.13-1.053,0.312l-0.078,0.312
			l-1.248-0.039c-0.286,0-0.507,0.104-0.663,0.312l-0.117,0.351c-0.39-0.052-0.715-0.052-0.975,0
			c-0.234,0.208-0.533,0.338-0.897,0.39H11.7c0.104,0.104,0.299,0.117,0.585,0.039c0.364-0.052,0.624-0.078,0.78-0.078
			c0.026,0.026,0.13,0.052,0.312,0.078c0.65,0.26,1.001,0.299,1.053,0.117c0.104-0.208,0.377-0.39,0.819-0.546
			c0.234-0.052,0.689-0.078,1.365-0.078c0.052-0.026,0.247-0.13,0.585-0.312c0.26-0.13,0.559-0.182,0.897-0.156
			c0.286,0.052,0.546,0.222,0.78,0.507l0.195,0.156c0.182,0.078,0.325,0.091,0.429,0.04c0.312-0.156,0.702-0.195,1.17-0.118
			l1.014,0.352c0.052,0,0.299,0.169,0.741,0.507c0.468,0.312,0.845,0.481,1.131,0.507c0.234,0.026,0.507,0.052,0.819,0.078
			c0.234,0.026,0.429,0.091,0.585,0.195c0.26,0.156,0.494,0.299,0.702,0.429c0.208,0.078,0.351,0.156,0.429,0.234
			C26.195-9.646,26.325-9.412,26.481-9.048z"/>
		<path style="fill-rule:evenodd;clip-rule:evenodd;fill:#F0C426;" d="M28.938-9.906c0.728-0.182,1.066-0.507,1.014-0.975
			c-0.026-0.156-0.104-0.247-0.233-0.273c-0.26,0-0.43-0.013-0.507-0.039c-0.546-0.156-0.936-0.247-1.17-0.273
			c-0.234-0.026-0.39,0.014-0.468,0.118c-0.078,0.182-0.169,0.338-0.273,0.468c-0.078,0.13-0.026,0.234,0.156,0.312
			c0.286,0.104,0.468,0.208,0.546,0.312C28.184-9.945,28.496-9.828,28.938-9.906z"/>
		<path style="fill-rule:evenodd;clip-rule:evenodd;fill:#FFE357;" d="M28.665-10.101c0.156,0.026,0.325-0.026,0.507-0.156
			c0.208-0.104,0.286-0.208,0.234-0.312c-0.052-0.104-0.273-0.156-0.663-0.156c-0.208,0-0.325,0.013-0.351,0.039
			c-0.052,0.026-0.104,0.117-0.156,0.273c-0.078,0.156-0.065,0.247,0.039,0.273C28.327-10.114,28.457-10.101,28.665-10.101z"/>
	</g>
</symbol>
<symbol  id="eggy02" viewBox="-0.008 -17.185 33.712 17.166">
	<g>
		<defs>
			<path id="SVGID_4_" d="M33.675-8.875c0.162,1.667-1.113,3.126-3.825,4.375c-1.731,0.807-3.765,1.382-6.1,1.725
				c0.042,0.121-0.008,0.221-0.15,0.3c-0.044,0.029-0.094,0.054-0.15,0.075c-0.567,0.033-1.034,0.167-1.4,0.4
				c-0.167,0.1-0.367,0.3-0.6,0.6c-0.233,0.3-0.483,0.55-0.75,0.75c-0.244,0.146-0.444,0.247-0.6,0.3l-0.05,0.025h-0.025
				C19.997-0.313,19.971-0.304,19.95-0.3c-0.067,0.033-0.233,0.017-0.5-0.05c-0.3-0.066-0.534-0.1-0.7-0.1
				c-0.267-0.033-0.467,0-0.6,0.1c-0.133,0.167-0.25,0.267-0.35,0.3c-0.1,0.033-0.367,0.033-0.8,0c-0.4-0.034-0.733-0.1-1-0.2
				l-0.3-0.2c-0.2,0.267-0.534,0.383-1,0.35c-0.3,0-0.583-0.1-0.85-0.3L13.5-0.6c-0.633-0.133-1.017-0.283-1.15-0.45l-0.2-0.65
				c0.1,0.034-0.083-0.1-0.55-0.4c-0.267-0.167-0.434-0.333-0.5-0.5c-0.133-0.2-0.233-0.316-0.3-0.35
				c-0.416-0.07-0.824-0.145-1.225-0.225C9.503-3.086,9.428-3.02,9.35-2.975L9.15-2.95C9.122-2.954,9.096-2.962,9.075-2.975L9.025-3
				c-0.179-0.053-0.346-0.195-0.5-0.425C7.689-3.634,6.881-3.875,6.1-4.15c-3.567-1.3-5.567-2.883-6-4.75
				C0.009-9.265-0.016-9.623,0.025-9.975c-0.191-1.861,1.084-3.47,3.825-4.825c2.171-1.122,4.788-1.839,7.85-2.15
				c0.088,0.027,0.18,0.06,0.275,0.1c0.006-0.004,0.014-0.004,0.025,0c1.064-0.261,2.573-0.37,4.525-0.325
				c1.968,0.051,3.977,0.268,6.025,0.65c2.045,0.376,3.945,0.935,5.7,1.675c3.163,1.337,4.946,2.954,5.35,4.85
				C33.687-9.614,33.712-9.239,33.675-8.875z"/>
		</defs>
		<clipPath id="SVGID_5_">
			<use xlink:href="#SVGID_4_"  style="overflow:visible;"/>
		</clipPath>
		<g id="Layer_1_3_" style="clip-path:url(#SVGID_5_);">
			
				<linearGradient id="SVGID_6_" gradientUnits="userSpaceOnUse" x1="-4.4941" y1="-7.7881" x2="38.7231" y2="-7.7881" gradientTransform="matrix(0.78 4.513881e-004 4.285710e-004 0.78 3.5029 -3.6831)">
				<stop  offset="0.0235" style="stop-color:#A0A1A3"/>
				<stop  offset="1" style="stop-color:#78797A"/>
			</linearGradient>
			<path style="fill-rule:evenodd;clip-rule:evenodd;fill:url(#SVGID_6_);" d="M29.835-4.68c2.964-1.482,4.225-3.25,3.783-5.304
				c-0.442-2.054-2.385-3.776-5.831-5.167c-3.446-1.391-7.508-2.061-12.188-2.009c-4.68,0.052-8.547,0.826-11.603,2.321
				c-3.055,1.495-4.362,3.27-3.919,5.323c0.442,2.054,2.457,3.77,6.045,5.148c3.588,1.404,7.696,2.081,12.324,2.028
				C23.101-2.418,26.897-3.198,29.835-4.68z"/>
			
				<linearGradient id="SVGID_7_" gradientUnits="userSpaceOnUse" x1="18077.5586" y1="-14011.3359" x2="18124.6074" y2="-14011.3359" gradientTransform="matrix(-0.7546 0.1974 -0.1974 -0.7546 10909.1563 -14154.4609)">
				<stop  offset="0" style="stop-color:#CCCCCC"/>
				<stop  offset="1" style="stop-color:#FFFFFF"/>
			</linearGradient>
			<path style="fill-rule:evenodd;clip-rule:evenodd;fill:url(#SVGID_7_);" d="M29.835-4.524c2.964-1.352,4.225-2.964,3.783-4.836
				c-0.416-1.872-2.418-3.445-6.006-4.719c-3.588-1.274-7.709-1.885-12.363-1.833c-4.628,0.052-8.424,0.767-11.388,2.145
				c-2.964,1.378-4.226,3.003-3.783,4.875C0.52-7.02,2.535-5.447,6.123-4.173s7.696,1.885,12.324,1.833
				C23.101-2.418,26.897-3.146,29.835-4.524z"/>
			
				<linearGradient id="SVGID_8_" gradientUnits="userSpaceOnUse" x1="7.2188" y1="-16.4624" x2="46.7938" y2="-16.4624" gradientTransform="matrix(0.78 -4.927345e-004 -5.128200e-004 0.78 -4.1919 4.021)">
				<stop  offset="0" style="stop-color:#CCCCCC"/>
				<stop  offset="1" style="stop-color:#FFFFFF"/>
			</linearGradient>
			<path style="fill-rule:evenodd;clip-rule:evenodd;fill:url(#SVGID_8_);" d="M28.821-4.992c2.704-1.144,3.86-2.496,3.471-4.056
				c-0.416-1.56-2.262-2.873-5.538-3.939c-3.302-1.066-7.072-1.573-11.31-1.521c-4.238,0.052-7.722,0.663-10.452,1.833
				c-2.704,1.144-3.86,2.496-3.471,4.056c0.416,1.56,2.262,2.873,5.538,3.939c3.302,1.066,7.072,1.573,11.31,1.521
				C22.607-3.211,26.091-3.822,28.821-4.992z"/>
			<path style="fill-rule:evenodd;clip-rule:evenodd;fill:#AEB3B3;" d="M28.977-7.41l1.443-0.468
				c0.26-0.078,0.403-0.234,0.429-0.468c0.078-0.208,0.26-0.429,0.546-0.663c0.156-0.104,0.234-0.208,0.234-0.313
				c0.052-0.182,0.013-0.507-0.117-0.975c-0.13-0.468-0.676-0.962-1.638-1.482c-0.702-0.364-1.404-0.65-2.106-0.858
				c-0.442-0.156-0.728-0.26-0.858-0.312c-0.156-0.026-0.456-0.039-0.897-0.039c-0.338,0-0.637-0.052-0.897-0.156
				c-0.234-0.078-0.494-0.117-0.78-0.117c-0.364,0-0.793-0.104-1.287-0.312c-0.78-0.312-1.209-0.481-1.287-0.507
				c-0.338-0.104-0.649-0.13-0.936-0.078c-0.39,0.104-0.793,0.195-1.209,0.273c-0.468,0.078-0.91,0.091-1.326,0.039
				c-0.546-0.026-0.949-0.039-1.209-0.039c-0.442,0.026-0.728,0.065-0.858,0.117c-0.13,0.078-0.272,0.169-0.429,0.273
				c-0.208,0.156-0.338,0.247-0.39,0.272c-0.052,0.026-0.182,0.052-0.39,0.078c-0.728,0.338-1.196,0.507-1.404,0.507
				c-0.208,0-0.468,0.091-0.78,0.273c-0.312,0.156-0.845,0.234-1.599,0.234c-0.572,0-0.858,0.13-0.858,0.39
				c0,0.182-0.299,0.338-0.897,0.468c-0.364,0.078-0.715,0.377-1.053,0.897L7.8-10.452c-0.208-0.104-0.325-0.156-0.351-0.156
				c-0.026-0.026-0.156-0.026-0.39,0c-0.494,0-0.936-0.052-1.326-0.156c-0.52-0.13-0.897-0.04-1.131,0.272
				c-0.156,0.182-0.546,0.338-1.17,0.468C3.198-9.945,3.133-9.802,3.237-9.594c0.104,0.156,0.208,0.26,0.312,0.312l2.808,0.585
				c-0.442,0.13-0.832,0.195-1.17,0.195C4.875-8.528,4.628-8.541,4.446-8.541c-0.286-0.026-0.572,0-0.858,0.078
				C3.302-8.385,3.51-8.138,4.212-7.722C4.81-7.358,5.239-7.137,5.499-7.059c1.69,0.234,3.081,0.545,4.173,0.936
				C10.79-5.733,17.225-6.162,28.977-7.41z"/>
			<path style="fill-rule:evenodd;clip-rule:evenodd;fill:#FFD740;" d="M23.751-2.808l0.039-0.117
				c0.052-0.052,0.117-0.078,0.195-0.078c0.234,0,0.494-0.221,0.78-0.663c0.104-0.156,0.195-0.325,0.273-0.507
				c0.078-0.156,0.234-0.247,0.468-0.273c0.337-0.026,0.611-0.168,0.819-0.429l0.078-0.507c0.052-0.312,0.117-0.481,0.195-0.507
				c0.286-0.052,0.507-0.13,0.663-0.234l0.702-0.585l0.585-0.117c0.442-0.13,0.754-0.286,0.936-0.468
				c0.338-0.338,0.377-0.689,0.117-1.053l0.273-0.195c0.182-0.156,0.286-0.312,0.312-0.468c0.026-0.234-0.026-0.494-0.156-0.78
				l0.507-0.118c0.364-0.078,0.611-0.182,0.741-0.312c0.156-0.156,0.143-0.351-0.039-0.585c-0.182-0.208-0.429-0.377-0.741-0.507
				c-0.468-0.026-0.754-0.117-0.858-0.273c-0.104-0.182-0.637-0.338-1.599-0.468c-0.234-0.026-0.455,0.104-0.663,0.39
				c-0.156,0.26-0.26,0.39-0.312,0.39c-0.52-0.182-0.962-0.273-1.326-0.273l-1.677,0.078c-0.494,0.026-0.897-0.104-1.209-0.39
				l-0.273-0.429c-0.494-0.233-0.949-0.351-1.365-0.351c-0.442,0.026-0.767,0.026-0.975,0c-0.364-0.026-0.676-0.117-0.936-0.272
				c-0.338-0.208-0.637-0.338-0.897-0.39c-0.312-0.052-0.793-0.065-1.443-0.039c-0.546,0.026-0.897,0.13-1.053,0.312l-0.078,0.312
				l-1.248-0.039c-0.286,0-0.507,0.104-0.663,0.312l-0.117,0.351c-0.39-0.052-0.715-0.052-0.975,0
				c-0.234,0.208-0.533,0.338-0.897,0.39c-0.182,0.052-0.363,0.026-0.545-0.078c-0.234-0.104-0.455-0.156-0.663-0.156
				c-0.286-0.026-0.494,0.091-0.624,0.351l-0.117,0.468c-0.052,0.182-0.247,0.234-0.585,0.156c-0.156-0.052-0.338-0.013-0.546,0.117
				c-0.208,0.156-0.351,0.325-0.429,0.507c-0.078,0.156-0.039,0.299,0.117,0.429c0.182,0.13,0.325,0.248,0.429,0.352
				C9.1-9.399,9.074-9.23,8.892-9.048c-0.182,0.182-0.39,0.26-0.624,0.234C7.956-8.84,7.67-8.723,7.41-8.463
				C7.332-8.385,7.215-8.346,7.059-8.346H6.825C6.539-8.398,6.201-8.359,5.811-8.229c-0.39,0.13-0.819,0.117-1.287-0.039
				C4.134-8.45,3.822-8.515,3.588-8.463c-0.182,0.026-0.182,0.156,0,0.39L3.9-7.683C3.614-7.657,3.432-7.514,3.354-7.254
				C3.328-7.098,3.445-6.955,3.705-6.825l0.429,0.156C3.978-6.435,4.03-6.175,4.29-5.889s0.676,0.507,1.248,0.663l0.468,0.507
				C6.292-4.407,6.63-4.29,7.02-4.368c0.078,0.156,0.221,0.221,0.429,0.195c0.26-0.052,0.403-0.078,0.429-0.078
				C8.06-4.173,8.19-4.082,8.268-3.978l0.234,0.507C8.71-3.159,8.918-2.99,9.126-2.964c0.182,0.026,0.351-0.091,0.507-0.351
				c0.182-0.234,0.299-0.351,0.351-0.351c0.13,0,0.403,0.234,0.819,0.702c0.052,0.052,0.143,0.169,0.273,0.351
				c0.078,0.182,0.247,0.351,0.507,0.507c0.468,0.312,0.65,0.442,0.546,0.39l0.234,0.663c0.13,0.182,0.507,0.326,1.13,0.429
				l0.352,0.234c0.286,0.182,0.572,0.286,0.858,0.312c0.468,0.026,0.793-0.091,0.975-0.351l0.312,0.156
				c0.286,0.104,0.624,0.182,1.014,0.234c0.442,0.026,0.715,0.026,0.819,0c0.078-0.026,0.195-0.13,0.351-0.313
				c0.13-0.104,0.325-0.143,0.585-0.117c0.156,0.026,0.39,0.065,0.702,0.117c0.26,0.052,0.429,0.065,0.507,0.039
				c0.156-0.026,0.403-0.143,0.741-0.351c0.26-0.182,0.507-0.429,0.741-0.741c0.233-0.286,0.442-0.481,0.624-0.585
				c0.364-0.234,0.819-0.364,1.365-0.39C23.725-2.483,23.829-2.626,23.751-2.808z"/>
			<path style="fill-rule:evenodd;clip-rule:evenodd;fill:#F0C426;" d="M9.243-9.438C9.165-9.464,9.074-9.503,8.97-9.555
				C9.1-9.399,9.074-9.23,8.892-9.048c-0.182,0.182-0.39,0.26-0.624,0.234C7.956-8.84,7.67-8.723,7.41-8.463
				C7.332-8.385,7.215-8.346,7.059-8.346H6.825C6.539-8.398,6.201-8.359,5.811-8.229c-0.39,0.13-0.819,0.117-1.287-0.039
				C4.134-8.45,3.822-8.515,3.588-8.463c-0.182,0.026-0.182,0.156,0,0.39L3.9-7.683C3.614-7.657,3.432-7.514,3.354-7.254
				c-0.026,0.13,0.104,0.286,0.39,0.468c-0.052-0.338,0.052-0.52,0.313-0.546c0.286-0.026,0.52-0.13,0.702-0.312
				c0.104-0.026,0.182-0.026,0.233,0c0.104,0.052,0.221,0.13,0.352,0.233c0.13,0.104,0.26,0.221,0.39,0.352
				c0.104,0.052,0.221,0.039,0.351-0.04C6.162-7.15,6.24-7.241,6.318-7.371C6.396-7.475,6.5-7.54,6.63-7.566
				c0.104-0.026,0.247-0.026,0.429,0c0.13,0.026,0.286,0,0.468-0.078C7.657-7.696,7.774-7.8,7.878-7.956
				C7.93-8.034,8.034-8.047,8.19-7.995c0.364,0.13,0.611,0.13,0.741,0C9.035-8.099,9.243-8.164,9.555-8.19
				C9.893-8.398,9.958-8.619,9.75-8.853L9.243-9.438z M23.751-2.808l0.039-0.117c0.052-0.052,0.117-0.078,0.195-0.078
				c0.234,0,0.494-0.221,0.78-0.663c0.104-0.156,0.195-0.325,0.273-0.507c0.078-0.156,0.234-0.247,0.468-0.273
				c0.337-0.026,0.611-0.168,0.819-0.429l0.078-0.507c0.052-0.312,0.117-0.481,0.195-0.507c0.286-0.052,0.507-0.13,0.663-0.234
				l0.702-0.585l0.585-0.117c0.442-0.13,0.754-0.286,0.936-0.468c0.338-0.338,0.377-0.689,0.117-1.053l0.273-0.195
				c0.182-0.156,0.286-0.312,0.312-0.468c0.026-0.234-0.026-0.494-0.156-0.78l0.507-0.118c0.364-0.078,0.611-0.182,0.741-0.312
				c0.182-0.182,0.156-0.403-0.078-0.663l-0.897,0.351c-0.286,0.104-0.585,0.169-0.897,0.195c-0.208,0.026-0.39,0.065-0.546,0.117
				l-0.195,0.117c0,0.182-0.143,0.273-0.429,0.273c-0.13,0.13-0.377,0.144-0.741,0.04c-0.208-0.052-0.325-0.144-0.351-0.273
				c-0.026-0.208-0.039-0.325-0.039-0.351c0.104-0.208-0.013-0.455-0.351-0.741l-0.195-0.234c-0.312-0.104-0.585-0.156-0.819-0.156
				l-1.677,0.078c-0.494,0.026-0.897-0.104-1.209-0.39l-0.273-0.429c-0.494-0.233-0.949-0.351-1.365-0.351
				c-0.442,0.026-0.767,0.026-0.975,0c-0.364-0.026-0.676-0.117-0.936-0.272c-0.338-0.208-0.637-0.338-0.897-0.39
				c-0.312-0.052-0.793-0.065-1.443-0.039c-0.546,0.026-0.897,0.13-1.053,0.312l-0.078,0.312l-1.248-0.039
				c-0.286,0-0.507,0.104-0.663,0.312l-0.117,0.351c-0.39-0.052-0.715-0.052-0.975,0l-0.156,0.039L11.973-11.7h-0.04
				c-0.182,0.052-0.363,0.026-0.545-0.078c-0.234-0.104-0.455-0.156-0.663-0.156c-0.286-0.026-0.494,0.091-0.624,0.351l-0.117,0.468
				c-0.052,0.182-0.247,0.234-0.585,0.156c-0.156-0.052-0.338-0.013-0.546,0.117c-0.208,0.156-0.351,0.325-0.429,0.507
				c-0.078,0.156-0.039,0.299,0.117,0.429c0.134,0.096,0.244,0.187,0.332,0.273C8.787-9.734,8.755-9.825,8.775-9.906
				c0.026-0.104,0.052-0.195,0.078-0.272c0.026-0.052,0.104-0.104,0.234-0.156c0.078-0.026,0.195,0,0.351,0.078
				c0.13,0.078,0.234,0.091,0.312,0.039c0.26-0.208,0.52-0.39,0.78-0.546c0.208-0.104,0.364-0.195,0.468-0.273
				c0.052-0.026,0.182-0.026,0.39,0c0.338,0.026,0.559,0.013,0.663-0.04c0.364,0,0.649-0.039,0.857-0.117
				c0.078-0.026,0.182,0,0.313,0.078l0.234,0.429c0.052,0.104-0.078,0.234-0.39,0.39l0.546-0.078c1.17-0.26,1.781-0.26,1.833,0
				c0,0.104,0,0.168,0,0.195c0.026,0.052,0.091,0.117,0.195,0.195c0.052,0.026,0.091,0.13,0.118,0.312
				c0,0.156,0.195,0.234,0.585,0.234c0.337,0,0.663-0.013,0.975-0.039c0.208-0.026,0.403,0.013,0.585,0.117
				c0.052,0.026,0.259,0.091,0.624,0.195c0.182,0.052,0.273,0.156,0.273,0.312c-0.156,0.468-0.182,0.754-0.078,0.858
				c0.156,0.156,0.208,0.352,0.156,0.585c-0.026,0.104-0.117,0.26-0.273,0.468c-0.156,0.156-0.221,0.312-0.195,0.468l0.078,0.624
				h-0.39c-0.39,0.104-0.637,0.234-0.741,0.39c-0.052,0.156-0.104,0.273-0.156,0.351c-0.104,0.13-0.351,0.208-0.741,0.234
				c-0.052,0-0.325,0-0.819,0c-0.13,0-0.26,0.104-0.39,0.312c-0.312,0.52-0.364,0.78-0.156,0.78c0.182,0,0.507-0.052,0.975-0.156
				l0.78,0.273c0.156,0.052,0.364,0.078,0.624,0.078c0.26-0.026,0.403-0.078,0.43-0.156c0.026-0.078,0.143-0.182,0.351-0.313
				c0.234-0.13,0.39-0.195,0.468-0.195c0.286,0,0.572,0.104,0.858,0.312c0.104,0.078,0.182,0.234,0.234,0.468
				c0.052,0.182,0.143,0.273,0.273,0.273c0.26,0,0.663-0.091,1.209-0.273c0,0.104,0.013,0.195,0.039,0.273
				c0.078,0.208,0.208,0.312,0.39,0.312c0.156,0-0.078,0.144-0.702,0.429c-0.676,0.338-0.988,0.52-0.936,0.546
				c0.078,0.078-0.091,0.117-0.507,0.117s-0.65-0.039-0.702-0.117c-0.052-0.078-0.208-0.078-0.468,0
				c-0.234,0.078-0.312,0.169-0.234,0.273c0.052,0.052,0.325,0.182,0.819,0.39c0.312,0.13,0.494,0.273,0.545,0.429
				c0.026,0.052-0.013,0.078-0.117,0.078l0.78,0.351l0.507-0.273c0.26-0.182,0.507-0.429,0.741-0.741
				c0.233-0.286,0.442-0.481,0.624-0.585c0.364-0.234,0.819-0.364,1.365-0.39C23.725-2.483,23.829-2.626,23.751-2.808z"/>
			<path style="fill-rule:evenodd;clip-rule:evenodd;fill:#E3B924;" d="M24.18-4.212c0.13-0.13,0.208-0.221,0.233-0.273
				c0.052-0.078,0.078-0.143,0.078-0.195c0.026,0,0.091,0.013,0.195,0.039c0.078,0,0.143,0.052,0.195,0.156
				c0.052,0.078,0.13,0.13,0.234,0.156l0.39-0.118c0.337-0.026,0.611-0.168,0.819-0.429l0.078-0.507
				c0.052-0.312,0.117-0.481,0.195-0.507l0.195-0.078h-0.039c-0.104-0.182-0.13-0.429-0.078-0.741
				c0.052-0.312,0.143-0.533,0.272-0.663c0.104-0.104,0.273-0.169,0.507-0.195c0.234-0.026,0.39-0.065,0.468-0.117
				c0.078-0.052,0.247-0.13,0.507-0.234c0.182-0.078,0.26-0.143,0.234-0.195c0-0.052-0.039-0.13-0.117-0.234
				c-0.026-0.104,0.039-0.182,0.195-0.234c0.468-0.208,0.702-0.377,0.702-0.507c0-0.026,0.078-0.143,0.234-0.351
				c0.13-0.182,0.13-0.299,0-0.351c-0.208-0.052-0.546,0.091-1.014,0.429c-0.078,0.052-0.39,0.078-0.936,0.078
				c-0.494-0.026-0.741-0.144-0.741-0.351c0-0.052,0.026-0.169,0.078-0.351c0.026-0.13,0.026-0.221,0-0.273
				c-0.104-0.182-0.143-0.39-0.117-0.624c0-0.176,0.072-0.339,0.215-0.488l-0.098,0.098c-0.52-0.182-0.962-0.273-1.326-0.273
				l-1.677,0.078c-0.494,0.026-0.897-0.104-1.209-0.39l-0.273-0.429c-0.494-0.233-0.949-0.351-1.365-0.351
				c-0.442,0.026-0.767,0.026-0.975,0c-0.364-0.026-0.676-0.117-0.936-0.272c-0.39-0.26-0.793-0.403-1.209-0.429
				c-0.156,0.104-0.117,0.273,0.117,0.507c0.13,0.13,0.143,0.325,0.039,0.585c-0.104,0.26-0.091,0.417,0.039,0.468
				c0.442,0.234,0.702,0.494,0.78,0.78c0.13,0.39,0.338,0.585,0.624,0.585c0.078,0,0.143,0.104,0.195,0.312
				c0.078,0.234,0.156,0.39,0.234,0.468c0.052,0.052,0.143,0.117,0.273,0.195c0.078,0.052,0.117,0.117,0.117,0.195
				c0,0.286-0.064,0.481-0.195,0.585c-0.156,0.104-0.26,0.182-0.312,0.234c-0.13,0.104-0.156,0.273-0.078,0.507l0.273,0.741
				l-0.273,0.352c-0.26-0.182-0.416-0.13-0.468,0.156c-0.026,0.052-0.091,0.195-0.195,0.429c-0.052,0.104-0.026,0.182,0.078,0.234
				c0.104,0.052,0.221,0.104,0.351,0.156c0.078,0.052,0.091,0.156,0.039,0.312l-0.273,0.585L19.11-4.758l-0.351,0.39
				c-0.052,0-0.078,0.013-0.078,0.04c-0.052,0.052-0.013,0.117,0.117,0.195c0.13,0.052,0.312,0.247,0.546,0.585
				c0.208,0.312,0.351,0.481,0.429,0.507c0.104,0,0.26,0.039,0.468,0.117c0.234,0.026,0.468,0.026,0.702,0l0.585-0.078
				c0.052,0,0.195,0.026,0.429,0.078c0.078,0,0.169-0.052,0.273-0.156c0.156-0.208,0.312-0.376,0.468-0.507
				c0.026-0.026,0.039-0.169,0.039-0.429c0-0.13,0.117-0.195,0.351-0.195H24.18z"/>
			<path style="fill-rule:evenodd;clip-rule:evenodd;fill:#F0C426;" d="M24.258-5.343c0.156-0.026,0.351-0.247,0.585-0.663
				c0.052-0.13-0.013-0.325-0.195-0.585c-0.104-0.104-0.221-0.143-0.351-0.117c-0.182,0.104-0.351,0.195-0.507,0.273
				c-0.182,0.078-0.338,0.117-0.468,0.117c-0.026,0-0.143-0.039-0.351-0.117c-0.313-0.078-0.689-0.013-1.131,0.195
				c-0.078,0.182-0.26,0.299-0.546,0.351c-0.182,0.052-0.299,0.168-0.351,0.351c-0.104,0.286-0.169,0.442-0.195,0.468
				c-0.078,0.104-0.039,0.169,0.117,0.195c0.338,0.026,0.572,0.065,0.702,0.117c0.26,0.052,0.858-0.117,1.794-0.507
				C23.621-5.369,23.92-5.395,24.258-5.343z"/>
			<path style="fill-rule:evenodd;clip-rule:evenodd;fill:#F0C426;" d="M23.829-7.761c0.104-0.13,0.156-0.351,0.156-0.663
				c0-0.234-0.078-0.377-0.234-0.429c-0.208-0.026-0.364-0.065-0.468-0.117c-0.26-0.182-0.65-0.234-1.17-0.156
				c-0.182,0.026-0.352,0.104-0.507,0.234c-0.208,0.182-0.364,0.299-0.468,0.351c-0.234,0.104-0.312,0.247-0.234,0.429
				c0.052,0.182,0.208,0.273,0.468,0.273c0.078,0,0.299,0.052,0.663,0.156c0.337,0.13,0.663,0.182,0.975,0.156
				C23.426-7.553,23.699-7.631,23.829-7.761z"/>
			<path style="fill-rule:evenodd;clip-rule:evenodd;fill:#F0C426;" d="M24.882-8.814c0.312,0,0.521-0.117,0.625-0.351
				c0.078-0.234,0.013-0.416-0.195-0.546c-0.182-0.104-0.338-0.13-0.468-0.078c-0.234,0.104-0.39,0.168-0.468,0.195
				c-0.234,0.026-0.26,0.168-0.078,0.429C24.453-8.931,24.648-8.814,24.882-8.814z"/>
			<path style="fill-rule:evenodd;clip-rule:evenodd;fill:#F0C426;" d="M22.035-11.583c-0.156-0.312-0.611-0.468-1.365-0.468
				c-0.312,0-0.507,0.026-0.585,0.078c-0.182,0.078-0.351,0.144-0.507,0.195c-0.312,0.078-0.312,0.273,0,0.585
				c0.208,0.156,0.598,0.468,1.17,0.936c0.26,0.208,0.416,0.091,0.468-0.351l0.585-0.39c0.208-0.13,0.312-0.234,0.312-0.312
				C22.139-11.362,22.113-11.453,22.035-11.583z"/>
			<path style="fill-rule:evenodd;clip-rule:evenodd;fill:#F0C426;" d="M25.935-4.992c0.234-0.13,0.182-0.312-0.156-0.546
				c-0.104-0.078-0.221-0.052-0.351,0.078c-0.104,0.182-0.195,0.312-0.273,0.39c-0.13,0.13-0.078,0.195,0.156,0.195
				C25.545-4.849,25.753-4.888,25.935-4.992z"/>
			<path style="fill-rule:evenodd;clip-rule:evenodd;fill:#FFE357;" d="M20.085-0.351v-0.195c-0.026-0.052-0.104-0.104-0.234-0.156
				c-0.182-0.052-0.299-0.104-0.351-0.156l-0.039-0.156c-0.078-0.13-0.234-0.208-0.468-0.234c-0.208-0.078-0.338-0.143-0.39-0.195
				c-0.13-0.13-0.364-0.195-0.702-0.195c-0.156,0.026-0.273,0.052-0.352,0.078c-0.078,0-0.195-0.039-0.351-0.117
				c-0.13-0.078-0.039-0.169,0.273-0.273l0.585-0.156c0.104-0.182,0.286-0.312,0.546-0.39c0.078,0,0.091-0.065,0.039-0.195
				c-0.026-0.078,0.078-0.091,0.312-0.039c0.182,0.052,0.338,0.013,0.468-0.117c0.104-0.104,0.156-0.221,0.156-0.352
				c0-0.078-0.04-0.091-0.117-0.039c-0.104,0.026-0.182,0.026-0.234,0l-0.195-0.234c-0.052-0.104-0.117-0.143-0.195-0.117h-0.234
				c-0.026,0-0.078-0.117-0.156-0.351c-0.052-0.156-0.143-0.195-0.273-0.117c-0.182,0.104-0.338,0.234-0.468,0.39
				c-0.286,0.338-0.481,0.546-0.585,0.624c-0.208,0.156-0.442,0.26-0.702,0.312c-0.13,0.026-0.377,0-0.741-0.078
				c-0.286-0.052-0.468-0.052-0.546,0c-0.182,0.104-0.611,0.117-1.287,0.04c-0.104,0-0.338,0.091-0.702,0.272
				c-0.13,0.078-0.26,0.078-0.39,0c-0.156-0.13-0.286-0.221-0.39-0.272c-0.104-0.052-0.13-0.195-0.078-0.43
				c0.052-0.286,0.052-0.468,0-0.545c-0.208-0.208-0.312-0.455-0.312-0.741c0-0.078,0.039-0.26,0.117-0.546
				c0.052-0.26-0.338-0.376-1.17-0.351c-0.156,0.156-0.364,0.26-0.624,0.312C10.01-4.992,9.893-4.797,9.945-4.485
				c0,0.156-0.182,0.286-0.546,0.39c-0.182,0.078-0.364,0-0.546-0.234c-0.13-0.156-0.299-0.208-0.507-0.156
				c-0.104,0.026-0.195,0.026-0.273,0c-0.234-0.104-0.364-0.156-0.39-0.156c-0.39-0.104-0.767-0.182-1.131-0.234L5.733-4.992
				l0.273,0.273C6.292-4.407,6.63-4.29,7.02-4.368c0.078,0.156,0.221,0.221,0.429,0.195c0.26-0.052,0.403-0.078,0.429-0.078
				C8.06-4.173,8.19-4.082,8.268-3.978l0.234,0.507C8.71-3.159,8.918-2.99,9.126-2.964c0.182,0.026,0.351-0.091,0.507-0.351
				c0.182-0.234,0.299-0.351,0.351-0.351c0.13,0,0.403,0.234,0.819,0.702c0.052,0.052,0.143,0.169,0.273,0.351
				c0.078,0.182,0.247,0.351,0.507,0.507c0.468,0.312,0.65,0.442,0.546,0.39l0.234,0.663c0.13,0.182,0.507,0.326,1.13,0.429
				l0.352,0.234c0.286,0.182,0.572,0.286,0.858,0.312c0.468,0.026,0.793-0.091,0.975-0.351l0.312,0.156
				c0.286,0.104,0.624,0.182,1.014,0.234c0.442,0.026,0.715,0.026,0.819,0c0.078-0.026,0.195-0.13,0.351-0.313
				c0.13-0.104,0.325-0.143,0.585-0.117c0.156,0.026,0.39,0.065,0.702,0.117C19.747-0.299,19.955-0.299,20.085-0.351z"/>
			<path style="fill-rule:evenodd;clip-rule:evenodd;fill:#FFE357;" d="M8.073-5.304c0.052,0,0.182,0.052,0.39,0.156
				c0.234,0.104,0.442,0.169,0.624,0.195c0.208,0.026,0.325,0,0.351-0.078c0.078-0.26,0.13-0.403,0.156-0.429
				c0.182-0.208,0.273-0.338,0.273-0.39c0.052-0.104,0.065-0.26,0.04-0.468C9.88-6.5,9.802-6.591,9.672-6.591
				C9.516-6.617,9.412-6.656,9.36-6.708C9.23-6.89,8.996-6.864,8.658-6.63C8.502-6.526,8.255-6.487,7.917-6.513
				c-0.26-0.052-0.637-0.039-1.131,0.04C6.474-6.37,6.253-6.318,6.123-6.318c-0.416,0-0.676,0.065-0.78,0.195
				C5.265-6.071,5.304-5.967,5.46-5.811c0.13,0.13,0.247,0.195,0.351,0.195c0.546,0,0.949,0.04,1.209,0.118
				C7.462-5.369,7.813-5.304,8.073-5.304z"/>
			<path style="fill-rule:evenodd;clip-rule:evenodd;fill:#FFE357;" d="M15.912-4.641c0.104-0.052,0.416-0.104,0.936-0.156
				c0.26-0.052,0.39-0.143,0.39-0.273c0.026-0.078,0.026-0.234,0-0.468c0.078-0.234,0.039-0.325-0.117-0.273
				c0-0.026-0.117-0.091-0.351-0.195c-0.026-0.026-0.208-0.039-0.546-0.039c-0.416,0-0.767-0.026-1.053-0.078
				c-0.338-0.078-0.572-0.182-0.702-0.312c-0.104-0.182-0.208-0.338-0.312-0.468c-0.182-0.208-0.559-0.286-1.13-0.234
				c-0.65-0.026-1.027-0.04-1.131-0.04c-0.26,0-0.546,0.104-0.858,0.313c-0.13,0.13,0.052,0.376,0.546,0.741
				c0.104,0.052,0.234,0.143,0.39,0.273c0.156,0.104,0.338,0.156,0.546,0.156l0.546-0.039c0.26,0,0.429,0.026,0.507,0.078
				c0.156,0.104,0.208,0.247,0.156,0.429c0.026,0.208,0.052,0.377,0.078,0.507c0,0.026,0.104,0.182,0.312,0.468
				c0.39,0.286,0.715,0.442,0.975,0.468c0.208,0,0.286-0.026,0.233-0.078c-0.104-0.078-0.143-0.129-0.117-0.156
				C15.444-4.381,15.678-4.589,15.912-4.641z"/>
			<path style="fill-rule:evenodd;clip-rule:evenodd;fill:#FFE357;" d="M18.096-6.201c0.078,0.052,0.13,0.13,0.156,0.234
				c0.026,0.052,0.104,0.091,0.234,0.117c0.13,0.026,0.195,0,0.195-0.078c0.026-0.078,0.039-0.26,0.039-0.545l0.078-0.546
				c0-0.052,0.039-0.156,0.117-0.312s0.104-0.312,0.078-0.468c0-0.182-0.065-0.234-0.195-0.156
				c-0.156,0.104-0.247,0.169-0.273,0.195l-1.599,0.118c-0.442,0.104-0.599,0.325-0.468,0.663c0.026,0.13,0.312,0.182,0.858,0.156
				C17.472-6.747,17.732-6.539,18.096-6.201z"/>
			<path style="fill-rule:evenodd;clip-rule:evenodd;fill:#FFE357;" d="M13.2-8.15c0.267,0.066,0.483,0.05,0.65-0.05
				c0.066-0.066,0.183-0.233,0.35-0.5c0.1-0.167,0.066-0.267-0.1-0.3c-0.3-0.033-0.483-0.1-0.55-0.2
				c-0.066-0.133-0.183-0.216-0.35-0.25c-0.167-0.033-0.317-0.066-0.45-0.1c-0.2-0.067-0.567,0.05-1.1,0.35
				c-0.5,0.034-0.867,0.117-1.1,0.25c-0.433,0.167-0.2,0.35,0.7,0.55c0.167,0,0.5-0.017,1-0.05c0.1-0.033,0.233-0.017,0.4,0.05
				C12.817-8.3,13-8.217,13.2-8.15z"/>
			<path style="fill-rule:evenodd;clip-rule:evenodd;fill:#FFF0A6;" d="M8.073-5.304c0.026,0,0.104,0,0.234,0
				c0.052,0,0.104-0.026,0.156-0.078c0.052-0.104-0.052-0.247-0.312-0.429C8.073-5.863,7.995-5.889,7.917-5.889
				C7.735-5.837,7.566-5.811,7.41-5.811c-0.234,0-0.377-0.013-0.429-0.039C6.929-5.902,6.825-5.954,6.669-6.006
				C6.461-6.11,6.279-6.097,6.123-5.967C5.967-5.863,5.941-5.772,6.045-5.694c0.078,0.078,0.208,0.117,0.39,0.117
				c0.13,0.026,0.377,0.039,0.741,0.039c0.26,0,0.416,0.065,0.468,0.195C7.826-5.291,7.969-5.278,8.073-5.304z"/>
			<path style="fill-rule:evenodd;clip-rule:evenodd;fill:#FFF0A6;" d="M12.48-6.006c0.286,0,0.533-0.078,0.741-0.234
				c0.208-0.13,0.299-0.26,0.272-0.39c-0.026-0.104-0.078-0.143-0.156-0.117h-0.312c-0.078-0.026-0.208,0-0.39,0.078
				c-0.286,0.13-0.442,0.195-0.468,0.195c-0.156,0.052-0.195,0.143-0.117,0.272C12.129-6.071,12.272-6.006,12.48-6.006z"/>
			<path style="fill-rule:evenodd;clip-rule:evenodd;fill:#FFF0A6;" d="M14.664-4.056c0.13,0.052,0.364-0.182,0.702-0.702
				c0.208-0.442,0.221-0.702,0.039-0.78c-0.104-0.052-0.312-0.078-0.624-0.078c-0.13,0-0.325,0.13-0.585,0.39
				c-0.182,0.182-0.273,0.39-0.273,0.624c0.026,0.104,0.104,0.195,0.234,0.273C14.417-4.199,14.586-4.108,14.664-4.056z"/>
			<path style="fill-rule:evenodd;clip-rule:evenodd;fill:#FFF0A6;" d="M17.004-1.716c0.208,0,0.429-0.052,0.663-0.156
				c0.182-0.078,0.364-0.208,0.546-0.39c0.13-0.078,0.299-0.156,0.507-0.234c0.13-0.104,0.221-0.156,0.273-0.156l-0.195-0.273
				c-0.078-0.052-0.299-0.065-0.663-0.039c-0.233-0.052-0.416-0.065-0.546-0.039c-0.26,0.13-0.429,0.208-0.507,0.234
				c-0.026,0.182-0.091,0.325-0.195,0.429c-0.052,0.078-0.13,0.13-0.234,0.156c-0.13,0.026-0.234,0.052-0.312,0.078L15.6-1.794
				c-0.156,0.052-0.221,0.091-0.195,0.117c0.026,0,0.065,0.013,0.117,0.039c0.208,0.104,0.442,0.156,0.702,0.156
				c0.156,0,0.286-0.039,0.39-0.117C16.692-1.677,16.822-1.716,17.004-1.716z"/>
			<path style="fill-rule:evenodd;clip-rule:evenodd;fill:#FFF0A6;" d="M18.096-0.624c0.26,0,0.468-0.039,0.624-0.117
				c0.156-0.078,0.195-0.143,0.117-0.195c-0.052-0.052-0.13-0.078-0.234-0.078c-0.156-0.026-0.286-0.052-0.39-0.078
				c-0.13-0.052-0.221-0.065-0.273-0.039c-0.234,0.078-0.364,0.117-0.39,0.117c-0.234,0.026-0.26,0.104-0.078,0.234
				C17.68-0.676,17.888-0.624,18.096-0.624z"/>
			<path style="fill-rule:evenodd;clip-rule:evenodd;fill:#FFF0A6;" d="M13.845-0.936c0.572,0,0.858-0.091,0.858-0.273
				c0-0.078-0.039-0.117-0.117-0.117c-0.156-0.026-0.299-0.078-0.429-0.156c-0.182-0.104-0.312-0.13-0.39-0.078
				c-0.312,0.156-0.481,0.234-0.507,0.234C12.74-1.17,12.935-1.04,13.845-0.936z"/>
			<path style="fill-rule:evenodd;clip-rule:evenodd;fill:#FFF0A6;" d="M14.664-0.546c0.364,0.078,0.546,0.039,0.546-0.117
				c0-0.13-0.13-0.195-0.39-0.195c-0.208,0-0.325,0.052-0.351,0.156C14.443-0.624,14.508-0.572,14.664-0.546z"/>
			<path style="fill-rule:evenodd;clip-rule:evenodd;fill:#FFF0A6;" d="M12.129-3.471l0.039-0.117c0-0.104-0.208-0.156-0.624-0.156
				l-0.351,0.272c-0.104,0.052-0.117,0.13-0.039,0.234c0.052,0.104,0.169,0.182,0.351,0.234c0,0.052,0.026,0.13,0.078,0.234
				c0.052,0.156,0.156,0.286,0.312,0.39s0.299,0.143,0.429,0.117c0.078,0,0.208-0.04,0.39-0.117
				c0.234-0.026,0.091-0.221-0.429-0.585L12.129-3.471z"/>
			<path style="fill-rule:evenodd;clip-rule:evenodd;fill:#FFF0A6;" d="M10.998-4.368c0.546-0.104,0.819-0.169,0.819-0.195
				c0-0.052-0.091-0.169-0.273-0.351c-0.078-0.104-0.13-0.144-0.156-0.118c-0.104,0-0.169,0-0.195,0
				c-0.078,0-0.169,0.04-0.273,0.118c-0.13,0.13-0.26,0.221-0.39,0.272c-0.156,0.104-0.169,0.182-0.039,0.234
				C10.595-4.355,10.764-4.342,10.998-4.368z"/>
			<path style="fill-rule:evenodd;clip-rule:evenodd;fill:#FFF0A6;" d="M13.143-8.229c0.156,0,0.286-0.078,0.39-0.234
				c0.13-0.156,0.169-0.273,0.117-0.351c-0.052-0.052-0.312,0.026-0.78,0.234l-0.195,0.078c-0.104,0.052-0.117,0.104-0.039,0.156
				C12.74-8.294,12.909-8.255,13.143-8.229z"/>
			<path style="fill-rule:evenodd;clip-rule:evenodd;fill:#FFD740;" d="M8.112-7.683c0.156-0.156,0.247-0.416,0.273-0.78
				c0-0.312-0.065-0.559-0.195-0.741C8.008-9.412,7.787-9.568,7.527-9.672C7.449-9.776,7.332-9.828,7.176-9.828
				c-0.182-0.026-0.313-0.039-0.39-0.039L6.084-9.984c-0.13,0-0.286-0.091-0.468-0.273c-0.104-0.13-0.325-0.195-0.663-0.195
				c-0.104,0-0.195,0.039-0.273,0.117l-0.234,0.273C4.316-9.958,4.03-9.906,3.588-9.906c-0.338,0-0.507,0.091-0.507,0.273
				c0,0.052,0.104,0.247,0.312,0.585c0.156,0.156,0.429,0.234,0.819,0.234c0.234,0,0.39,0.026,0.468,0.078
				c0.078,0.104,0.156,0.182,0.234,0.234c0.078,0.026,0.182,0.13,0.312,0.312c0.13,0.182,0.247,0.299,0.351,0.351
				c0.208,0.078,0.364,0.182,0.468,0.312c0.286,0,0.559,0.078,0.819,0.234C7.176-7.085,7.592-7.215,8.112-7.683z"/>
			<path style="fill-rule:evenodd;clip-rule:evenodd;fill:#F0C426;" d="M8.112-7.683c0.156-0.156,0.247-0.416,0.273-0.78
				c0-0.312-0.065-0.559-0.195-0.741C8.008-9.412,7.787-9.568,7.527-9.672C7.449-9.776,7.332-9.828,7.176-9.828
				c-0.182-0.026-0.313-0.039-0.39-0.039L6.084-9.984c-0.13,0-0.286-0.091-0.468-0.273c-0.104-0.13-0.325-0.195-0.663-0.195
				c-0.104,0-0.195,0.039-0.273,0.117l-0.234,0.273L4.329-9.984c-0.13,0.052-0.376,0.078-0.741,0.078
				c-0.338,0-0.507,0.091-0.507,0.273L3.12-9.555c0.208,0,0.416-0.026,0.624-0.078c0.338-0.13,0.611-0.195,0.819-0.195
				c0.104,0,0.377,0.065,0.819,0.195c0.26,0.078,0.455,0.156,0.585,0.234C5.993-9.373,6.058-9.36,6.162-9.36s0.26,0,0.468,0
				c0.13,0,0.195,0.039,0.195,0.117C6.796-9.141,6.263-9.187,5.226-9.379c-1.033-0.187-1.273-0.193-0.722-0.02
				c0.554,0.166,1.185,0.348,1.892,0.546c0.703,0.205,1.041,0.335,1.014,0.39C7.332-8.385,7.267-8.32,7.215-8.268
				C7.137-8.19,7.111-8.112,7.137-8.034C7.189-7.93,7.215-7.865,7.215-7.839c0.026,0.078,0.013,0.143-0.039,0.195L6.864-7.293
				C7.202-7.137,7.618-7.267,8.112-7.683z"/>
			<path style="fill-rule:evenodd;clip-rule:evenodd;fill:#E3B924;" d="M8.112-7.683c0.156-0.156,0.247-0.416,0.273-0.78
				c0-0.312-0.065-0.559-0.195-0.741C8.008-9.412,7.787-9.568,7.527-9.672C7.449-9.776,7.332-9.828,7.176-9.828
				c-0.182-0.026-0.313-0.039-0.39-0.039L6.084-9.984c-0.13,0-0.286-0.091-0.468-0.273c-0.104-0.13-0.325-0.195-0.663-0.195
				c-0.104,0-0.195,0.039-0.273,0.117l-0.234,0.273L4.29-9.984h0.039c0.26-0.104,0.572-0.091,0.937,0.039
				c0.13,0.052,0.208,0.091,0.234,0.117l0.351,0.04c0.182,0.026,0.507,0.091,0.975,0.195C7.111-9.49,7.306-9.438,7.41-9.438
				c0,0.208,0.013,0.338,0.039,0.39c0.26,0.13,0.39,0.234,0.39,0.312L7.8-8.346c0,0.104,0.026,0.195,0.078,0.273
				c0.13,0.104,0.169,0.26,0.117,0.468L8.112-7.683z"/>
			<path style="fill-rule:evenodd;clip-rule:evenodd;fill:#FFE357;" d="M5.46-8.463C5.226-8.359,5.187-8.294,5.343-8.268
				C5.577-8.242,5.694-8.216,5.694-8.19c0,0.078,0.091,0.169,0.273,0.273c0.182,0.13,0.338,0.182,0.468,0.156
				c0.26-0.052,0.39-0.156,0.39-0.312c0-0.078-0.052-0.221-0.156-0.429c-0.052-0.13-0.104-0.195-0.156-0.195
				c-0.13,0-0.208-0.013-0.234-0.039C6.175-8.788,6.084-8.801,6.006-8.775C5.85-8.671,5.668-8.567,5.46-8.463z"/>
			<path style="fill-rule:evenodd;clip-rule:evenodd;fill:#FFE357;" d="M3.861-9.282C3.809-9.204,3.835-9.126,3.939-9.048
				C3.991-8.996,4.056-8.97,4.134-8.97c0.052,0,0.182,0,0.39,0c0.468,0,0.741-0.091,0.819-0.273c0.052-0.078,0.052-0.104,0-0.078
				c-0.104,0-0.208-0.026-0.312-0.078c-0.13-0.052-0.234-0.078-0.313-0.078C4.537-9.425,4.394-9.399,4.29-9.399
				C4.056-9.399,3.913-9.36,3.861-9.282z"/>
			<path style="fill-rule:evenodd;clip-rule:evenodd;fill:#FFE357;" d="M6.24-7.917c0.364,0,0.481-0.104,0.351-0.312
				c-0.026-0.026-0.195-0.026-0.507,0C5.902-8.203,5.85-8.151,5.928-8.073C6.032-7.969,6.136-7.917,6.24-7.917z"/>
			<path style="fill-rule:evenodd;clip-rule:evenodd;fill:#D9AC0D;" d="M25.038-6.123c0.182,0.052,0.351-0.052,0.507-0.312
				c0.156-0.234,0.208-0.442,0.156-0.624c-0.052-0.13-0.156-0.222-0.313-0.273c-0.156-0.026-0.299-0.065-0.429-0.117
				c-0.208-0.078-0.572-0.013-1.092,0.195l-1.755,0.663l0.233,0.118c0.182,0.078,0.39,0.091,0.625,0.039
				c0.286-0.052,0.559-0.052,0.819,0c0.182,0.052,0.312,0.052,0.39,0c0.026-0.052,0.078-0.13,0.156-0.234
				c0.052-0.026,0.13,0.026,0.234,0.156C24.674-6.331,24.83-6.201,25.038-6.123z"/>
			<path style="fill-rule:evenodd;clip-rule:evenodd;fill:#D9AC0D;" d="M23.985-8.424c0.026,0.234,0.26,0.325,0.702,0.273
				c0.416-0.052,0.689-0.143,0.819-0.273c0.129-0.13-0.078-0.26-0.625-0.39c-0.026-0.052-0.338-0.26-0.936-0.624
				c-0.364-0.104-0.741-0.156-1.131-0.156c-0.26,0-0.533,0.065-0.819,0.195c-0.313,0.13-0.403,0.195-0.273,0.195l0.78-0.118
				c0.13,0,0.39,0.118,0.78,0.352c0.026,0.026,0.195,0.117,0.507,0.273C23.894-8.645,23.959-8.554,23.985-8.424z"/>
			<path style="fill-rule:evenodd;clip-rule:evenodd;fill:#D9AC0D;" d="M25.506-9.204c0.416,0.104,0.559-0.091,0.429-0.585
				c-0.338-0.156-0.637-0.169-0.897-0.04l0.117,0.312C25.285-9.334,25.402-9.23,25.506-9.204z"/>
			<path style="fill-rule:evenodd;clip-rule:evenodd;fill:#D9AC0D;" d="M22.113-9.945c0.286,0.156,0.507,0.143,0.663-0.039
				c0.13-0.182,0.104-0.351-0.078-0.507c-0.13-0.104-0.234-0.156-0.312-0.156c-0.13,0.026-0.299,0.039-0.507,0.039
				C21.411-10.608,21.489-10.387,22.113-9.945z"/>
			<path style="fill-rule:evenodd;clip-rule:evenodd;fill:#D9AC0D;" d="M20.748-6.669c0.364,0.078,0.585,0.052,0.663-0.078
				c0.026-0.078,0.026-0.221,0-0.429c-0.052-0.182-0.273-0.221-0.663-0.117c-0.208,0.026-0.468,0.104-0.78,0.234
				C19.656-6.929,19.916-6.799,20.748-6.669z"/>
			<path style="fill-rule:evenodd;clip-rule:evenodd;fill:#D9AC0D;" d="M26.598-7.488c0.364,0.052,0.52,0.013,0.468-0.117
				c-0.182-0.182-0.312-0.325-0.39-0.429c-0.078-0.104-0.144-0.143-0.195-0.117c-0.078,0.052-0.234,0.078-0.468,0.078
				c-0.312-0.026-0.364,0.052-0.156,0.234C26.091-7.657,26.338-7.54,26.598-7.488z"/>
			<path style="fill-rule:evenodd;clip-rule:evenodd;fill:#D9AC0D;" d="M20.241-2.964c0.104,0.13,0.351,0.169,0.741,0.117
				c0.442-0.052,0.689-0.065,0.741-0.04c0.208,0.104,0.364-0.156,0.468-0.78C22.217-3.822,22.204-3.9,22.152-3.9
				c-0.156-0.026-0.338-0.117-0.546-0.273c-0.182-0.182-0.286-0.26-0.312-0.234c-0.052,0.13-0.208,0.182-0.468,0.156
				c-0.313-0.026-0.507-0.039-0.585-0.039c-0.078,0.052-0.208,0.091-0.39,0.117c-0.286-0.052-0.442-0.078-0.468-0.078
				c-0.026,0-0.013,0.169,0.039,0.507c0.078,0.416,0.208,0.649,0.39,0.702C19.916-3.016,20.059-2.99,20.241-2.964z"/>
			<path style="fill-rule:evenodd;clip-rule:evenodd;fill:#D9AC0D;" d="M19.266-7.956c0.234,0.052,0.39-0.026,0.468-0.234
				c0.078-0.208,0-0.39-0.234-0.546c-0.234-0.156-0.377-0.221-0.429-0.195l-0.39,0.39c-0.104,0.104-0.104,0.221,0,0.351
				S18.98-7.982,19.266-7.956z"/>
			<path style="fill-rule:evenodd;clip-rule:evenodd;fill:#D9AC0D;" d="M26.481-9.048c0.182,0.442,0.312,0.715,0.39,0.819
				c0.078,0.182,0.195,0.273,0.351,0.273c0.052,0,0.442-0.091,1.17-0.273c0.078-0.026,0.299,0.052,0.663,0.234l0.156-0.273
				c0.156-0.156,0.286-0.182,0.39-0.078l0.273-0.195c0.182-0.156,0.286-0.312,0.312-0.468c0.026-0.234-0.026-0.494-0.156-0.78
				l0.507-0.118c0.364-0.078,0.611-0.182,0.741-0.312c0.156-0.156,0.143-0.351-0.039-0.585c-0.182-0.208-0.429-0.377-0.741-0.507
				c-0.468-0.026-0.754-0.117-0.858-0.273c-0.104-0.182-0.637-0.338-1.599-0.468c-0.234-0.026-0.455,0.104-0.663,0.39
				c-0.156,0.26-0.26,0.39-0.312,0.39c-0.52-0.182-0.962-0.273-1.326-0.273l-1.677,0.078c-0.494,0.026-0.897-0.104-1.209-0.39
				l-0.273-0.429c-0.494-0.233-0.949-0.351-1.365-0.351c-0.442,0.026-0.767,0.026-0.975,0c-0.364-0.026-0.676-0.117-0.936-0.272
				c-0.338-0.208-0.637-0.338-0.897-0.39c-0.312-0.052-0.793-0.065-1.443-0.039c-0.546,0.026-0.897,0.13-1.053,0.312l-0.078,0.312
				l-1.248-0.039c-0.286,0-0.507,0.104-0.663,0.312l-0.117,0.351c-0.39-0.052-0.715-0.052-0.975,0
				c-0.234,0.208-0.533,0.338-0.897,0.39H11.7c0.104,0.104,0.299,0.117,0.585,0.039c0.364-0.052,0.624-0.078,0.78-0.078
				c0.026,0.026,0.13,0.052,0.312,0.078c0.65,0.26,1.001,0.299,1.053,0.117c0.104-0.208,0.377-0.39,0.819-0.546
				c0.234-0.052,0.689-0.078,1.365-0.078c0.052-0.026,0.247-0.13,0.585-0.312c0.26-0.13,0.559-0.182,0.897-0.156
				c0.286,0.052,0.546,0.222,0.78,0.507l0.195,0.156c0.182,0.078,0.325,0.091,0.429,0.04c0.312-0.156,0.702-0.195,1.17-0.118
				l1.014,0.352c0.052,0,0.299,0.169,0.741,0.507c0.468,0.312,0.845,0.481,1.131,0.507c0.234,0.026,0.507,0.052,0.819,0.078
				c0.234,0.026,0.429,0.091,0.585,0.195c0.26,0.156,0.494,0.299,0.702,0.429c0.208,0.078,0.351,0.156,0.429,0.234
				C26.195-9.646,26.325-9.412,26.481-9.048z"/>
			<path style="fill-rule:evenodd;clip-rule:evenodd;fill:#F0C426;" d="M29.718-11.154c-0.26,0-0.43-0.013-0.507-0.039
				c-0.546-0.156-0.936-0.247-1.17-0.273c-0.234-0.026-0.39,0.014-0.468,0.118c-0.078,0.182-0.169,0.338-0.273,0.468
				c-0.078,0.13-0.026,0.234,0.156,0.312c0.286,0.104,0.468,0.208,0.546,0.312c0.182,0.312,0.494,0.429,0.936,0.351
				c0.728-0.182,1.066-0.507,1.014-0.975C29.926-11.037,29.848-11.128,29.718-11.154z"/>
			<path style="fill-rule:evenodd;clip-rule:evenodd;fill:#FFE357;" d="M28.665-10.101c0.156,0.026,0.325-0.026,0.507-0.156
				c0.208-0.104,0.286-0.208,0.234-0.312c-0.052-0.104-0.273-0.156-0.663-0.156c-0.208,0-0.325,0.013-0.351,0.039
				c-0.052,0.026-0.104,0.117-0.156,0.273c-0.078,0.156-0.065,0.247,0.039,0.273C28.327-10.114,28.457-10.101,28.665-10.101z"/>
		</g>
	</g>
</symbol>
<use xlink:href="#eggy"  width="33.712" height="17.144" x="-0.008" y="-17.163" transform="matrix(1 0 0 -1 16.1001 17.6499)" style="overflow:visible;"/>
<g>
	<path style="fill-rule:evenodd;clip-rule:evenodd;fill-opacity:0.349;" d="M44.35,27.45L41.5,24.7l-8.05,0.5L28.5,30.1
		c-3.667-0.1-6.683-0.716-9.05-1.85c-0.2-0.2-0.434-0.384-0.7-0.55c-2.667-2-3.583-3.983-2.75-5.95c0.8-1.9,3.067-3.217,6.8-3.95
		c3.8-0.733,7.967-0.667,12.5,0.2c4.601,0.9,8.2,2.35,10.8,4.35C46.9,22.917,47.533,23.467,48,24l0.25-0.05
		c1.182,0.636,1.581,1.453,1.2,2.45C47.316,27.333,45.616,27.684,44.35,27.45z"/>
</g>
<use xlink:href="#eggy02"  width="33.712" height="17.166" x="-0.008" y="-17.185" transform="matrix(0.9998 -0.0173 -0.0173 -0.9998 15.7998 13.1001)" style="overflow:visible;"/>
<g>
	<path style="fill-rule:evenodd;clip-rule:evenodd;fill:#FFD740;" d="M33.15,19.45c0.033-0.167-0.101-0.316-0.4-0.45l-0.25-0.15
		c-0.1-0.033-0.167-0.017-0.2,0.051c-0.1-0.034-0.184,0-0.25,0.1c0.033,0.1,0.134,0.184,0.3,0.25l0.101,0.05
		c-0.334-0.033-0.3,0.017,0.1,0.15h0.05c0.034,0.033,0.101,0.05,0.2,0.05c0.033,0.033,0.066,0.05,0.101,0.05
		c0.033,0.033,0.066,0.05,0.1,0.05c0.866,0.2,1.283,0.351,1.25,0.45c-0.033,0.033-0.1,0.033-0.2,0
		c-0.166-0.066-0.283-0.116-0.35-0.149c-0.066-0.034-0.134-0.051-0.2-0.051c-0.1,0-0.25-0.017-0.45-0.05
		c-0.399-0.066-0.649-0.116-0.75-0.149c-0.133-0.067-0.283-0.217-0.45-0.45c-0.1-0.101-0.233-0.2-0.4-0.3
		c0.066-0.034,0.216-0.117,0.45-0.25c0.2-0.067,0.433-0.034,0.7,0.1c0.167,0.1,0.301,0.15,0.4,0.15
		c0.1-0.034,0.184-0.051,0.25-0.051c0.1,0,0.233-0.05,0.4-0.149c0.199-0.101,0.333-0.134,0.399-0.101c0.233,0,0.4-0.017,0.5-0.05
		c0.2,0.101,0.434,0.134,0.7,0.101L35.3,19c0.033,0.066,0,0.116-0.1,0.15c0,0.033-0.033,0.083-0.101,0.149
		c-0.066,0.033-0.1,0.084-0.1,0.15c0.033,0.066,0.05,0.149,0.05,0.25c0,0.033-0.3,0.017-0.899-0.05
		C33.783,19.55,33.45,19.483,33.15,19.45z M34.3,18.75c-0.166,0-0.267,0.033-0.3,0.1c-0.033,0.034-0.134,0.017-0.3-0.05
		c-0.134-0.033-0.15,0.033-0.05,0.2c0.133,0.134,0.216,0.267,0.25,0.4c0.066,0.033,0.133,0.066,0.199,0.1
		c0.034-0.033,0.101-0.033,0.2,0c0.066,0.033,0.134,0.017,0.2-0.05c0.2-0.134,0.316-0.233,0.35-0.3
		c0.067-0.101,0.034-0.217-0.1-0.351C34.684,18.733,34.533,18.717,34.3,18.75z"/>
	<path style="fill-rule:evenodd;clip-rule:evenodd;fill:#F0C426;" d="M35.25,18.65c0.333-0.067,0.566,0.133,0.7,0.6v0.15
		c0.066,0.166,0.017,0.383-0.15,0.649c-0.166,0.233-0.35,0.4-0.55,0.5c-0.267,0.066-0.5,0.084-0.7,0.05
		c-0.133,0.067-0.25,0.067-0.35,0c-0.134-0.066-0.217-0.116-0.25-0.149L33.35,20.35c-0.1-0.033-0.283-0.033-0.55,0
		c-0.133,0.067-0.316,0.034-0.55-0.1c-0.066-0.033-0.1-0.083-0.1-0.15v-0.35L32.05,19.7c-0.066-0.101-0.216-0.217-0.45-0.351
		c-0.233-0.133-0.3-0.267-0.2-0.399l0.05-0.05c0.167,0.1,0.3,0.199,0.4,0.3c0.167,0.233,0.317,0.383,0.45,0.45
		c0.101,0.033,0.351,0.083,0.75,0.149c0.2,0.033,0.351,0.05,0.45,0.05c0.066,0,0.134,0.017,0.2,0.051
		c0.066,0.033,0.184,0.083,0.35,0.149c0.101,0.033,0.167,0.033,0.2,0c0.033-0.1-0.384-0.25-1.25-0.45c-0.033,0-0.066-0.017-0.1-0.05
		c0.1-0.033,0.183-0.033,0.25,0h0.05c0-0.033-0.017-0.066-0.05-0.1c0.3,0.033,0.633,0.1,1,0.2c0.6,0.066,0.899,0.083,0.899,0.05
		c0-0.101-0.017-0.184-0.05-0.25c0-0.066,0.033-0.117,0.1-0.15c0.067-0.066,0.101-0.116,0.101-0.149c0.1-0.034,0.133-0.084,0.1-0.15
		L35.25,18.65z M32.45,19.3c0.033,0.033,0.066,0.084,0.1,0.15C32.15,19.316,32.116,19.267,32.45,19.3z"/>
	<path style="fill-rule:evenodd;clip-rule:evenodd;fill:#FFE357;" d="M32.55,19.45c-0.033-0.066-0.066-0.117-0.1-0.15l-0.101-0.05
		c-0.166-0.066-0.267-0.15-0.3-0.25c0.066-0.1,0.15-0.134,0.25-0.1c0.033-0.067,0.101-0.084,0.2-0.051L32.75,19
		c0.3,0.134,0.434,0.283,0.4,0.45c0.033,0.033,0.05,0.066,0.05,0.1h-0.05c-0.067-0.033-0.15-0.033-0.25,0
		c-0.034,0-0.067-0.017-0.101-0.05c-0.1,0-0.166-0.017-0.2-0.05H32.55z M34.3,18.75c0.233-0.033,0.384-0.017,0.45,0.05
		c0.134,0.134,0.167,0.25,0.1,0.351c-0.033,0.066-0.149,0.166-0.35,0.3c-0.066,0.066-0.134,0.083-0.2,0.05
		c-0.1-0.033-0.166-0.033-0.2,0c-0.066-0.033-0.133-0.066-0.199-0.1c-0.034-0.134-0.117-0.267-0.25-0.4
		c-0.101-0.167-0.084-0.233,0.05-0.2c0.166,0.066,0.267,0.084,0.3,0.05C34.033,18.783,34.134,18.75,34.3,18.75z"/>
</g>
<g>
	<path style="fill-rule:evenodd;clip-rule:evenodd;fill:#FFD740;" d="M31.412,24.322c0.226,0.177,0.357,0.473,0.395,0.886
		c0,0.354-0.094,0.635-0.282,0.841c-0.263,0.236-0.582,0.413-0.958,0.531c-0.113,0.118-0.281,0.178-0.506,0.178
		c-0.263,0.029-0.451,0.044-0.563,0.044l-1.014,0.133c-0.188,0-0.413,0.104-0.675,0.31c-0.15,0.148-0.469,0.222-0.957,0.222
		c-0.15,0-0.282-0.044-0.395-0.133l-0.337-0.311c-0.188-0.117-0.601-0.177-1.239-0.177c-0.488,0-0.732-0.103-0.732-0.31
		c0-0.06,0.15-0.28,0.45-0.664c0.225-0.178,0.619-0.266,1.182-0.266c0.338,0,0.563-0.03,0.676-0.089
		c0.113-0.118,0.226-0.206,0.338-0.266c0.113-0.029,0.263-0.147,0.451-0.354c0.188-0.206,0.356-0.339,0.506-0.398
		c0.3-0.088,0.526-0.206,0.676-0.354c0.413,0,0.808-0.089,1.183-0.266C30.061,23.644,30.662,23.791,31.412,24.322z"/>
	<path style="fill-rule:evenodd;clip-rule:evenodd;fill:#F0C426;" d="M31.412,24.322c0.226,0.177,0.357,0.473,0.395,0.886
		c0,0.354-0.094,0.635-0.282,0.841c-0.263,0.236-0.582,0.413-0.958,0.531c-0.113,0.118-0.281,0.178-0.506,0.178
		c-0.263,0.029-0.451,0.044-0.563,0.044l-1.014,0.133c-0.188,0-0.413,0.104-0.675,0.31c-0.15,0.148-0.469,0.222-0.957,0.222
		c-0.15,0-0.282-0.044-0.395-0.133l-0.337-0.311l-0.169-0.088c-0.188-0.059-0.544-0.089-1.069-0.089
		c-0.488,0-0.732-0.103-0.732-0.31l0.056-0.089c0.3,0,0.6,0.029,0.9,0.089c0.488,0.147,0.883,0.222,1.183,0.222
		c0.15,0,0.544-0.074,1.182-0.222c0.375-0.089,0.657-0.178,0.845-0.266c0.037-0.029,0.131-0.044,0.281-0.044c0.15,0,0.375,0,0.676,0
		c0.188,0,0.282-0.045,0.282-0.133c-0.042-0.116-0.812-0.064-2.309,0.154c-1.492,0.212-1.839,0.22-1.042,0.022
		c0.8-0.188,1.711-0.395,2.731-0.62c1.014-0.232,1.502-0.381,1.464-0.442c-0.113-0.089-0.207-0.163-0.282-0.222
		c-0.113-0.089-0.15-0.177-0.113-0.266c0.075-0.118,0.113-0.191,0.113-0.222c0.038-0.088,0.019-0.162-0.056-0.222L29.61,23.88
		C30.099,23.702,30.699,23.851,31.412,24.322z"/>
	<path style="fill-rule:evenodd;clip-rule:evenodd;fill:#E3B924;" d="M31.412,24.322c0.226,0.177,0.357,0.473,0.395,0.886
		c0,0.354-0.094,0.635-0.282,0.841c-0.263,0.236-0.582,0.413-0.958,0.531c-0.113,0.118-0.281,0.178-0.506,0.178
		c-0.263,0.029-0.451,0.044-0.563,0.044l-1.014,0.133c-0.188,0-0.413,0.104-0.675,0.31c-0.15,0.148-0.469,0.222-0.957,0.222
		c-0.15,0-0.282-0.044-0.395-0.133l-0.337-0.311l-0.226-0.088h0.056c0.375,0.118,0.826,0.104,1.352-0.044
		c0.188-0.06,0.3-0.104,0.337-0.133l0.507-0.045c0.263-0.029,0.732-0.104,1.408-0.222c0.413-0.118,0.694-0.177,0.845-0.177
		c0-0.235,0.019-0.384,0.056-0.442c0.376-0.148,0.563-0.266,0.563-0.354l-0.056-0.442c0-0.118,0.037-0.222,0.113-0.311
		c0.188-0.117,0.244-0.295,0.168-0.531L31.412,24.322z"/>
	<path style="fill-rule:evenodd;clip-rule:evenodd;fill:#FFE357;" d="M27.583,25.208c-0.338-0.118-0.395-0.192-0.169-0.222
		c0.337-0.029,0.506-0.06,0.506-0.089c0-0.088,0.131-0.191,0.395-0.31c0.263-0.147,0.488-0.207,0.676-0.177
		c0.375,0.059,0.563,0.177,0.563,0.354c0,0.089-0.076,0.251-0.226,0.487c-0.075,0.147-0.15,0.222-0.225,0.222
		c-0.188,0-0.3,0.015-0.338,0.044c-0.15,0.059-0.282,0.074-0.394,0.044C28.146,25.444,27.884,25.326,27.583,25.208z"/>
	<path style="fill-rule:evenodd;clip-rule:evenodd;fill:#FFE357;" d="M25.275,26.138c-0.075-0.089-0.038-0.177,0.112-0.266
		c0.075-0.06,0.169-0.089,0.281-0.089c0.076,0,0.263,0,0.563,0c0.676,0,1.07,0.104,1.183,0.311c0.075,0.088,0.075,0.117,0,0.088
		c-0.15,0-0.3,0.029-0.45,0.089c-0.188,0.059-0.338,0.088-0.451,0.088c-0.262-0.059-0.469-0.088-0.619-0.088
		C25.557,26.271,25.35,26.227,25.275,26.138z"/>
</g>
<g>
	<path style="fill-rule:evenodd;clip-rule:evenodd;fill:#FFD740;" d="M41.85,29.4c-0.199,0.066-0.35,0.149-0.449,0.25
		c-0.233,0.199-0.417,0.316-0.551,0.35c-0.1,0.033-0.333,0.05-0.699,0.05c-0.233,0-0.4-0.017-0.5-0.05
		c-0.067,0-0.134,0.017-0.2,0.05c-0.066,0-0.184,0.033-0.351,0.101c-0.1,0-0.166-0.017-0.199-0.051c-0.034-0.1,0.399-0.183,1.3-0.25
		c0.033,0,0.066-0.017,0.1-0.05H40.4c0.1,0,0.166-0.017,0.199-0.05h0.051c0.399-0.066,0.433-0.1,0.1-0.1l0.1-0.051
		c0.2-0.033,0.317-0.1,0.351-0.199C41.167,29.3,41.1,29.25,41,29.25c-0.033-0.066-0.1-0.083-0.2-0.05l-0.3,0.1
		c-0.267,0.066-0.4,0.184-0.4,0.351c-0.3,0-0.649,0.017-1.05,0.05c-0.6-0.033-0.899-0.066-0.899-0.101c0-0.1,0.033-0.166,0.1-0.199
		c0-0.067-0.033-0.134-0.1-0.2c-0.034-0.066-0.051-0.117-0.051-0.15C38,28.983,37.967,28.934,38,28.9l0.1-0.351
		c0.267,0.066,0.517,0.066,0.75,0c0.067,0.033,0.217,0.084,0.45,0.15c0.101-0.033,0.233,0.017,0.4,0.149
		c0.166,0.134,0.3,0.2,0.399,0.2c0.067,0,0.15,0.033,0.25,0.101c0.067,0,0.184-0.034,0.351-0.101c0.3-0.066,0.533-0.066,0.7,0
		C41.634,29.25,41.783,29.366,41.85,29.4z M39.65,28.95c-0.167,0.033-0.267,0.033-0.301,0c-0.033-0.066-0.133-0.117-0.3-0.15
		c-0.233-0.066-0.383-0.083-0.45-0.05c-0.166,0.134-0.216,0.25-0.149,0.35c0,0.067,0.1,0.184,0.3,0.351c0.033,0.066,0.1,0.1,0.2,0.1
		c0.1-0.033,0.166-0.033,0.2,0c0.066,0,0.133-0.017,0.199-0.05c0.067-0.134,0.167-0.25,0.301-0.35
		C39.783,28.983,39.783,28.917,39.65,28.95z"/>
	<path style="fill-rule:evenodd;clip-rule:evenodd;fill:#FFE357;" d="M40.3,29.8c-0.066-0.033-0.149-0.05-0.25-0.05H40
		c0.033-0.033,0.066-0.066,0.1-0.1c0-0.167,0.134-0.284,0.4-0.351l0.3-0.1c0.101-0.033,0.167-0.017,0.2,0.05
		c0.1,0,0.167,0.05,0.2,0.15c-0.033,0.1-0.15,0.166-0.351,0.199l-0.1,0.051c-0.033,0.033-0.066,0.066-0.1,0.1H40.6
		c-0.033,0.033-0.1,0.05-0.199,0.05H40.3z M39.65,28.95c0.133-0.033,0.133,0.033,0,0.2c-0.134,0.1-0.233,0.216-0.301,0.35
		c-0.066,0.033-0.133,0.05-0.199,0.05c-0.034-0.033-0.101-0.033-0.2,0c-0.101,0-0.167-0.033-0.2-0.1c-0.2-0.167-0.3-0.283-0.3-0.351
		c-0.066-0.1-0.017-0.216,0.149-0.35c0.067-0.033,0.217-0.017,0.45,0.05c0.167,0.033,0.267,0.084,0.3,0.15
		C39.384,28.983,39.483,28.983,39.65,28.95z"/>
	<path style="fill-rule:evenodd;clip-rule:evenodd;fill:#F0C426;" d="M40.1,29.65c-0.033,0.033-0.066,0.066-0.1,0.1h0.05
		c0.101,0,0.184,0.017,0.25,0.05c-0.033,0.033-0.066,0.05-0.1,0.05c-0.9,0.067-1.334,0.15-1.3,0.25
		c0.033,0.034,0.1,0.051,0.199,0.051c0.167-0.067,0.284-0.101,0.351-0.101c0.066-0.033,0.133-0.05,0.2-0.05
		c0.1,0.033,0.267,0.05,0.5,0.05c0.366,0,0.6-0.017,0.699-0.05c0.134-0.033,0.317-0.15,0.551-0.35c0.1-0.101,0.25-0.184,0.449-0.25
		v0.05c0.101,0.166,0.017,0.283-0.25,0.35c-0.267,0.101-0.433,0.2-0.5,0.3L41,30.15l-0.05,0.35c-0.033,0.033-0.084,0.05-0.15,0.05
		c-0.233,0.101-0.416,0.117-0.55,0.05c-0.233-0.1-0.4-0.133-0.5-0.1h-0.6c-0.067,0.033-0.167,0.066-0.301,0.1
		c-0.1,0.067-0.216,0.051-0.35-0.05c-0.2,0-0.434-0.05-0.7-0.149c-0.166-0.134-0.316-0.317-0.45-0.551
		c-0.133-0.3-0.149-0.517-0.05-0.649v-0.15c0.233-0.467,0.5-0.633,0.8-0.5L38,28.9c-0.033,0.033,0,0.083,0.1,0.149
		c0,0.033,0.017,0.084,0.051,0.15c0.066,0.066,0.1,0.133,0.1,0.2c-0.066,0.033-0.1,0.1-0.1,0.199c0,0.034,0.3,0.067,0.899,0.101
		C39.45,29.667,39.8,29.65,40.1,29.65z M40.65,29.75c0.033-0.033,0.066-0.066,0.1-0.1C41.083,29.65,41.05,29.684,40.65,29.75z"/>
</g>
</svg>
