<?xml version="1.0" encoding="iso-8859-1"?>
<!-- Generator: Adobe Illustrator 15.1.0, SVG Export Plug-In . SVG Version: 6.00 Build 0)  -->
<!DOCTYPE svg PUBLIC "-//W3C//DTD SVG 1.1//EN" "http://www.w3.org/Graphics/SVG/1.1/DTD/svg11.dtd">
<svg version="1.1" id="flash0.ai" xmlns="http://www.w3.org/2000/svg" xmlns:xlink="http://www.w3.org/1999/xlink" x="0px" y="0px"
	 width="70.75px" height="39.8px" viewBox="0 0 70.75 39.8" style="enable-background:new 0 0 70.75 39.8;" xml:space="preserve">
<symbol  id="flash0.ai_x5F_3_x2F_Layer_8_copy_x2F__x3C_Path_x3E_" viewBox="-0.001 -3.089 19.451 3.089">
	<g id="Layer_1_10_">
		<path style="fill-rule:evenodd;clip-rule:evenodd;fill:#784000;" d="M1.35-2c0.633,0.167,1.933,0.35,3.9,0.55
			C7.183-1.217,9-1.067,10.7-1c2.267,0.067,5.183,0.4,8.75,1L16.7-1.65c-0.9,0-1.75-0.067-2.55-0.2C11.75-2.25,8.017-2.633,2.95-3
			C0.95-3.167-0.033-3.1,0-2.8C0.033-2.533,0.483-2.267,1.35-2z"/>
	</g>
</symbol>
<symbol  id="flash0.ai_x5F_3_x2F_Layer_8_copy_x2F__x3C_Path_x3E__x5F_1" viewBox="0.038 -3.133 22.212 3.133">
	<g id="Layer_1_9_">
		<path style="fill-rule:evenodd;clip-rule:evenodd;fill:#784000;" d="M22.25,0l-1.4-1c-0.233-0.2-0.8-0.517-1.7-0.95l-1.3-0.55H15
			c-3.267,0-6.017-0.083-8.25-0.25C4.683-2.917,3.283-3.033,2.55-3.1C1.383-3.167,0.65-3.133,0.35-3c-0.333,0.133-0.4,0.267-0.2,0.4
			C0.617-2.433,1.017-2.233,1.35-2c0.733,0.433,3.783,0.8,9.15,1.1C13.5-0.733,17.417-0.433,22.25,0z"/>
	</g>
</symbol>
<symbol  id="flash0.ai_x5F_3_x2F_Layer_8_copy_x2F__x3C_Path_x3E__x5F_2" viewBox="-0.025 -2.583 13.325 2.583">
	<g id="Layer_1_8_">
		<path style="fill-rule:evenodd;clip-rule:evenodd;fill:#784000;" d="M1.05-0.9c0.833,0.267,2.833,0.483,6,0.65L13.3,0l-1.5-0.65
			C11.4-0.783,10.75-1.1,9.85-1.6l-1.2-0.65c-1.5,0.067-2.7,0.067-3.6,0c-2.966-0.333-4.6-0.417-4.9-0.25
			c-0.233,0.133-0.233,0.4,0,0.8C0.383-1.3,0.683-1.033,1.05-0.9z"/>
	</g>
</symbol>
<symbol  id="flash0.ai_x5F_3_x2F_Layer_8_copy_x2F__x3C_Path_x3E__x5F_25" viewBox="0 -19.15 36.148 19.15">
	<g id="Layer_1_7_">
		<path style="fill-rule:evenodd;clip-rule:evenodd;fill:#664B16;" d="M35.65,0c0.567,0,0.65-0.25,0.25-0.75
			c-0.367-0.467-0.833-0.833-1.4-1.1c-0.267-0.133-0.7-0.433-1.3-0.9c-0.5-0.4-0.867-0.617-1.1-0.65c-0.3-0.033-0.55-0.35-0.75-0.95
			c-0.1-0.3-0.184-0.6-0.25-0.9c-0.067-0.333-0.184-0.55-0.35-0.65L28.9-7.25C28.867-6.317,28.567-5.867,28-5.9
			c-0.333-0.033-1.083-0.467-2.25-1.3C24.283-8.233,23.167-9,22.4-9.5c-2.1-1.4-4.683-2.65-7.75-3.75
			c-1.167-0.433-2.7-1.117-4.6-2.05c-1.7-0.833-3.083-1.567-4.15-2.2c-1.2-0.733-3.167-1.283-5.9-1.65
			c1.867,1.667,4.033,3.467,6.5,5.4c4.933,3.833,8.883,6.383,11.85,7.65c3.433,1.467,7.05,2.85,10.85,4.15
			C32.867-0.65,35.017,0,35.65,0z"/>
	</g>
</symbol>
<symbol  id="flash0.ai_x5F_3_x2F_Layer_8_copy_x2F__x3C_Path_x3E__x5F_33" viewBox="0 -5.5 13.304 5.522">
	<g id="Layer_1_6_">
		<path style="fill-rule:evenodd;clip-rule:evenodd;fill:#785307;" d="M12.35,0c0.6,0.067,0.917-0.017,0.95-0.25
			c0.067-0.3-0.583-0.75-1.95-1.35c-3.667-1.633-6.2-2.667-7.6-3.1C3.183-4.867,2.6-5.133,2-5.5L0-4.95
			c2.467,0.8,4.45,1.583,5.95,2.35C9.183-0.967,11.317-0.1,12.35,0z"/>
	</g>
</symbol>
<symbol  id="flash0.ai_x5F_3_x2F_Layer_8_copy_x2F__x3C_Path_x3E__x5F_34" viewBox="0 -6.25 13.803 6.256">
	<g id="Layer_1_5_">
		<path style="fill-rule:evenodd;clip-rule:evenodd;fill:#784000;" d="M13.65-0.65c-0.2-0.267-0.467-0.483-0.8-0.65
			c-0.133-0.067-0.867-0.383-2.2-0.95c-0.533-0.233-2.383-1.2-5.55-2.9l-1.95-1.1C2.05-6.217,1.333-6.1,1-5.9L0-5.45
			c3.267,1.434,5.917,2.633,7.95,3.6c1.733,0.833,2.8,1.333,3.2,1.5c0.667,0.267,1.167,0.383,1.5,0.35
			c0.167-0.033,0.467-0.067,0.9-0.1C13.85-0.167,13.883-0.35,13.65-0.65z"/>
	</g>
</symbol>
<symbol  id="flash0.ai_x5F_3_x2F_Layer_8_copy_x2F__x3C_Path_x3E__x5F_35" viewBox="0 -3.5 7.654 3.5">
	<g id="Layer_1_4_">
		<path style="fill-rule:evenodd;clip-rule:evenodd;fill:#785307;" d="M6.7,0C7,0,7.25-0.083,7.45-0.25
			c0.233-0.133,0.267-0.3,0.1-0.5c-0.4-0.6-1-1.067-1.8-1.4C5.117-2.417,4.3-2.867,3.3-3.5c-1,0.267-1.75,0.4-2.25,0.4
			C0.583-3.1,0.233-3.083,0-3.05l4.2,2.1c0.607,0.316,0.974,0.516,1.1,0.6V-0.4L6.7,0z"/>
	</g>
</symbol>
<symbol  id="flash0.ai_x5F_3_x2F_Layer_8_copy_x2F__x3C_Path_x3E__x5F_36" viewBox="-0.007 -15.9 23.907 15.9">
	<g id="Layer_1_3_">
		<path style="fill-rule:evenodd;clip-rule:evenodd;fill:#664B16;" d="M23.9-0.7c-3.2-2.066-5.4-3.533-6.6-4.4
			c-1.2-0.867-2.95-1.883-5.25-3.05c-0.466-1-0.9-2.083-1.3-3.25c-0.433-1.2-0.517-2.7-0.25-4.5c-5.867,1.5-9.333,2.45-10.4,2.85
			c-0.667,0.267,1.783,2.517,7.35,6.75C10.25-4.167,13.1-2.067,16,0l6.25-0.45C23.017-0.517,23.567-0.6,23.9-0.7z"/>
	</g>
</symbol>
<symbol  id="flash0.ai_x5F_3_x2F_Layer_8_copy_x2F__x3C_Path_x3E__x5F_59" viewBox="-0.013 -6.933 31.913 6.94">
	<g id="Layer_1_2_">
		<path style="fill-rule:evenodd;clip-rule:evenodd;fill:#664B16;" d="M31.9-6.4c-2.233-0.533-3.9-0.667-5-0.4
			c-0.933,0.233-2.133,0.45-3.6,0.65c-1.7,0.267-3.05,0.4-4.05,0.4c-2.833,0.067-5.1,0.367-6.8,0.9c-1.4,0.5-2.4,0.867-3,1.1
			c-1.067,0.333-1.733,0.467-2,0.4c-0.3-0.1-0.467-0.383-0.5-0.85c-0.034-0.233-0.034-0.466,0-0.7l-1.7,0.65
			C5.183-4.217,5.1-4.133,5-4L4.9-3.75c-0.4,1.033-0.783,1.5-1.15,1.4C3.583-2.417,3.267-2.333,2.8-2.1
			C2.267-1.867,1.867-1.733,1.6-1.7C1.133-1.633,0.7-1.45,0.3-1.15c-0.433,0.367-0.417,0.633,0.05,0.8C0.883-0.15,2.7-0.033,5.8,0
			c3.267,0.033,6.367-0.05,9.3-0.25c2.566-0.2,6.133-1.283,10.7-3.25C28.1-4.5,30.133-5.467,31.9-6.4z"/>
	</g>
</symbol>
<g>
	<path style="fill-rule:evenodd;clip-rule:evenodd;fill:#9E6500;" d="M52.65,38.912c-0.426-0.175-6.363-1.388-17.813-3.638
		l-7.425-1.387l-0.638-0.263l-0.375-1.65L43.8,32.763l3.375,1.05l7.238,3.412l0.149,1.8C53.737,39.125,53.101,39.088,52.65,38.912z"
		/>
	<path style="fill-rule:evenodd;clip-rule:evenodd;fill:#C98000;" d="M48.788,30.287c0.975,0.9,2.85,3.213,5.625,6.938L53.7,37.3
		l-8.138-2.287L26.4,31.975c5.175-1.524,9.638-2.587,13.388-3.188c2.499-0.399,4.5-0.425,6-0.075
		C46.888,28.962,47.888,29.487,48.788,30.287z"/>
	<path style="fill-rule:evenodd;clip-rule:evenodd;fill:#E6B95E;" d="M53.737,39.063c-5.05-0.551-9.325-1.138-12.824-1.763
		c-3.501-0.625-8-1.763-13.5-3.412l-0.038-1.838l15.188-1.537L53.7,37.3L53.737,39.063z"/>
	<path style="fill-rule:evenodd;clip-rule:evenodd;fill:#FFD875;" d="M49.688,32.313c1.351,1.75,2.688,3.412,4.013,4.987
		c-4.275-0.675-8.987-1.463-14.138-2.362c-4.649-0.801-8.712-1.763-12.188-2.888c4.95-1.325,9.275-2.287,12.976-2.888
		c2.55-0.425,4.537-0.337,5.962,0.263C47.412,29.875,48.537,30.837,49.688,32.313z"/>
	
		<linearGradient id="SVGID_1_" gradientUnits="userSpaceOnUse" x1="45.001" y1="-23.7832" x2="46.751" y2="-23.7832" gradientTransform="matrix(0.3859 0.6431 -0.6431 0.3859 16.2001 17.0493)">
		<stop  offset="0" style="stop-color:#B5882F"/>
		<stop  offset="1" style="stop-color:#E6B95E"/>
	</linearGradient>
	<path style="fill-rule:evenodd;clip-rule:evenodd;fill:url(#SVGID_1_);" d="M49.013,37.075c0.15-0.275,0.351-0.263,0.6,0.037
		c0.251,0.274,0.325,0.538,0.226,0.787c-0.1,0.301-0.338,0.351-0.713,0.15C48.75,37.875,48.713,37.55,49.013,37.075z"/>
	
		<linearGradient id="SVGID_2_" gradientUnits="userSpaceOnUse" x1="42.2266" y1="-11.0508" x2="44.8838" y2="-11.0508" gradientTransform="matrix(0.4939 0.5644 -0.5644 0.4939 16.2007 17.0499)">
		<stop  offset="0" style="stop-color:#B5882F"/>
		<stop  offset="1" style="stop-color:#E6B95E"/>
	</linearGradient>
	<path style="fill-rule:evenodd;clip-rule:evenodd;fill:url(#SVGID_2_);" d="M44.925,35.95c0.15,0.7-0.1,1.125-0.75,1.274
		c-0.399,0.1-0.725-0.1-0.975-0.6l-0.225-0.788l0.862-0.225C44.463,35.537,44.825,35.649,44.925,35.95z"/>
	
		<linearGradient id="SVGID_3_" gradientUnits="userSpaceOnUse" x1="31.2119" y1="-9.0786" x2="33.2929" y2="-9.0786" gradientTransform="matrix(0.3604 0.6577 -0.6577 0.3604 16.1998 17.0497)">
		<stop  offset="0" style="stop-color:#B5882F"/>
		<stop  offset="1" style="stop-color:#E6B95E"/>
	</linearGradient>
	<path style="fill-rule:evenodd;clip-rule:evenodd;fill:url(#SVGID_3_);" d="M33.825,34.524c0.2-0.175,0.375-0.112,0.525,0.188
		c0.125,0.301,0.137,0.513,0.037,0.638C33.088,35.6,32.9,35.324,33.825,34.524z"/>
	
		<use xlink:href="#flash0.ai_x5F_3_x2F_Layer_8_copy_x2F__x3C_Path_x3E__x5F_59"  width="31.913" height="6.94" x="-0.013" y="-6.933" transform="matrix(0.75 0 0 -0.75 26.75 31.5498)" style="overflow:visible;opacity:0.4883;enable-background:new    ;"/>
	<path style="fill-rule:evenodd;clip-rule:evenodd;fill:#FFDD61;" d="M50.213,36.513c-0.825,0.05-2.15-0.075-3.976-0.375
		c-2.399-0.4-4.487-0.663-6.262-0.788c-1.551-0.125-3.563-0.662-6.038-1.612c-1.425-0.575-2.312-0.45-2.662,0.375
		c-0.2,0.476-0.525,0.688-0.976,0.638c-0.425-0.051-0.687-0.287-0.787-0.713c-0.2-0.85-0.725-1.375-1.575-1.575
		c-0.575-0.149-0.962-0.425-1.162-0.824c-0.25-0.476-0.075-0.925,0.524-1.351c1.051-0.8,4.75-1.412,11.101-1.837
		c6.025-0.4,9.425-0.438,10.2-0.113c0.3,0.15,1.1,1.101,2.399,2.851c1.275,1.699,2,2.574,2.175,2.625
		c0.325,0.125,0.676,0.537,1.051,1.237c0.375,0.774,0.375,1.288,0,1.537c-0.275,0.175-0.737,0.213-1.388,0.113
		C51.862,36.525,50.988,36.463,50.213,36.513z"/>
	<g>
		<path style="fill-rule:evenodd;clip-rule:evenodd;fill:#DBBB46;" d="M50.213,36.513c-0.825,0.05-2.15-0.075-3.976-0.375
			c-2.399-0.4-4.487-0.663-6.262-0.788c-1.551-0.125-3.563-0.662-6.038-1.612c-1.425-0.575-2.312-0.45-2.662,0.375
			c-0.2,0.476-0.525,0.688-0.976,0.638c-0.425-0.051-0.687-0.287-0.787-0.713l-0.037-0.188c0.25,0.5,0.575,0.675,0.975,0.525
			c0.2-0.1,0.35-0.263,0.45-0.487c0.075-0.301,0.137-0.525,0.188-0.676c0.075-0.249,0.337-0.412,0.787-0.487
			c0.525-0.1,1.1-0.012,1.726,0.263c0.6,0.25,1.749,0.587,3.449,1.013c1.4,0.324,2.575,0.574,3.525,0.75
			c0.45,0.075,1.938,0.175,4.463,0.3c2.6,0.125,4.337,0.25,5.212,0.375c0.95,0.125,1.575,0.25,1.875,0.375
			c0.426,0.15,0.788,0.25,1.088,0.3c0.55,0.125,0.975,0.063,1.274-0.188c0.05,0.3-0.037,0.525-0.262,0.675
			c-0.275,0.175-0.737,0.213-1.388,0.113C51.862,36.525,50.988,36.463,50.213,36.513z"/>
		<path style="fill-rule:evenodd;clip-rule:evenodd;fill:#DBBB46;" d="M28.575,32.05c0.325,0.05,0.525,0.212,0.6,0.487
			c0.025,0.176,0.063,0.475,0.113,0.9c-0.226-0.5-0.676-0.825-1.351-0.976c-0.475-0.124-0.837-0.362-1.087-0.712
			c-0.275-0.4-0.238-0.801,0.112-1.2c0,0.351,0.175,0.675,0.524,0.975C27.813,31.825,28.175,32,28.575,32.05z"/>
	</g>
	<path style="fill-rule:evenodd;clip-rule:evenodd;fill:#FFF0B8;" d="M30.15,32.425c0.25-0.175,0.5-0.274,0.75-0.3
		c0.275-0.025,0.313,0.112,0.112,0.412c-0.125,0.15-0.288,0.475-0.487,0.976c-0.125,0.3-0.263,0.412-0.413,0.337
		c-0.149-0.075-0.212-0.313-0.188-0.712C29.925,32.737,30,32.5,30.15,32.425z"/>
	<path style="fill-rule:evenodd;clip-rule:evenodd;fill:#FFF0B8;" d="M27.675,30.55c0.201-0.024,0.438,0.088,0.713,0.338
		c0.25,0.274,0.275,0.449,0.075,0.524c-0.226,0.1-0.487-0.013-0.788-0.337C27.375,30.774,27.375,30.6,27.675,30.55z"/>
	<path style="fill-rule:evenodd;clip-rule:evenodd;fill:#FFF0B8;" d="M53.55,35.35c0.175-0.05,0.338-0.012,0.488,0.112
		c0.149,0.15,0.124,0.263-0.075,0.338c-0.25,0.101-0.463,0.087-0.638-0.037C53.125,35.612,53.2,35.475,53.55,35.35z"/>
	<path style="fill-rule:evenodd;clip-rule:evenodd;fill:#8C2504;" d="M52.388,34.337c0.825,0.45,1.138,0.788,0.938,1.013
		c-0.425,0.226-0.713,0.388-0.862,0.487c-1.1,0.676-2.101,1.125-3,1.351c-0.575,0.149-1.025,0.088-1.351-0.188
		c-0.325-0.4-0.6-0.662-0.824-0.788c-0.575-0.325-1.862-0.662-3.863-1.012c-0.499-0.075-1.313-0.15-2.438-0.226
		c-0.925-0.075-1.688-0.188-2.287-0.337c-0.675-0.175-1.162-0.375-1.463-0.601c-0.324-0.275-0.637-0.512-0.938-0.712
		c-0.35-0.226-0.938-0.463-1.762-0.713c-1.225-0.351-2-0.587-2.325-0.713c-0.925-0.35-0.738-0.837,0.563-1.462
		c1.274-0.601,2.587-0.825,3.938-0.675c1.375,0.149,4.087,0.812,8.138,1.987C48.875,32.925,51.388,33.787,52.388,34.337z"/>
	<path style="fill-rule:evenodd;clip-rule:evenodd;fill:#B83105;" d="M49.463,35.013c0.775,0.175,1.55,0.312,2.325,0.412
		c0.3,0.05,0.388,0.087,0.262,0.112C52,35.563,51.65,35.763,51,36.138c-0.6,0.325-1.087,0.513-1.462,0.563
		c-0.45,0.05-0.775,0.024-0.976-0.075c-0.149-0.051-0.263-0.188-0.337-0.413c-0.126-0.249-1.4-0.7-3.825-1.35
		c-1.15-0.325-2.938-0.55-5.362-0.675c-0.65-0.025-1.15-0.2-1.5-0.525c-0.325-0.375-0.575-0.638-0.75-0.787
		c-0.2-0.15-0.763-0.3-1.688-0.45c-1.15-0.2-1.838-0.338-2.063-0.412c-0.475-0.126-0.788-0.375-0.938-0.75
		c-0.125-0.301-0.1-0.513,0.074-0.638c0.425-0.175,0.8-0.163,1.125,0.037c0.226,0.15,0.613,0.426,1.163,0.825
		c1.25,0.649,3.362,1.35,6.337,2.1c1.101,0.275,2.625,0.538,4.575,0.788C47.476,34.675,48.838,34.887,49.463,35.013z"/>
	<path style="fill-rule:evenodd;clip-rule:evenodd;fill:#D6561E;" d="M48.112,35.462c0.45,0.101,0.7,0.288,0.75,0.563
		c0.05,0.275-0.024,0.413-0.225,0.413c-0.101,0-0.25-0.1-0.45-0.3c-0.25-0.251-0.438-0.413-0.563-0.488
		C47.225,35.4,47.388,35.338,48.112,35.462z"/>
	<path style="fill-rule:evenodd;clip-rule:evenodd;fill:#D6561E;" d="M38.025,33.1c1.325,0.325,1.824,0.575,1.5,0.75
		c-0.226,0.125-0.475,0.188-0.75,0.188c-0.325,0-0.575-0.075-0.75-0.225c-0.2-0.15-0.3-0.313-0.3-0.487S37.825,33.074,38.025,33.1z"
		/>
	<path style="fill-rule:evenodd;clip-rule:evenodd;fill:#9E6500;" d="M52.388,34.938c-0.425-0.15-6.237-1.388-17.438-3.713
		l-7.275-1.462L27.038,29.5L26.7,27.85l17.025,0.938l3.262,1.013l7.125,3.487l0.15,1.8C53.438,35.162,52.813,35.112,52.388,34.938z"
		/>
	<path style="fill-rule:evenodd;clip-rule:evenodd;fill:#C98000;" d="M48.563,26.313c0.976,0.899,2.825,3.225,5.55,6.975
		L53.4,33.362L45.45,31l-17.063-2.737L26.7,27.85c5.05-1.475,9.399-2.513,13.05-3.112c2.45-0.375,4.412-0.375,5.888,0
		C46.713,24.987,47.688,25.512,48.563,26.313z"/>
	<path style="fill-rule:evenodd;clip-rule:evenodd;fill:#E6B95E;" d="M53.438,35.087c-4.95-0.575-9.137-1.187-12.563-1.837
		c-3.425-0.625-7.825-1.787-13.2-3.487l-0.037-1.838l14.85-1.425L53.4,33.362L53.438,35.087z"/>
	<path style="fill-rule:evenodd;clip-rule:evenodd;fill:#FFD875;" d="M49.463,28.375c1.3,1.725,2.612,3.388,3.938,4.987
		c-4.176-0.7-8.787-1.513-13.838-2.438c-4.55-0.85-8.525-1.851-11.925-3c4.85-1.275,9.075-2.2,12.675-2.775
		c2.5-0.399,4.45-0.3,5.851,0.301C47.238,25.925,48.338,26.899,49.463,28.375z"/>
	
		<linearGradient id="SVGID_4_" gradientUnits="userSpaceOnUse" x1="-40.6572" y1="-1.5137" x2="-37.898" y2="-1.5137" gradientTransform="matrix(-0.7135 -0.231 0.6538 -0.5766 16.2002 17.05)">
		<stop  offset="0" style="stop-color:#E6B95E"/>
		<stop  offset="1" style="stop-color:#FFD875"/>
	</linearGradient>
	<path style="fill-rule:evenodd;clip-rule:evenodd;fill:url(#SVGID_4_);" d="M43.088,26.013c0.625-0.226,1.137-0.25,1.537-0.075
		c0.375,0.175,0.5,0.45,0.375,0.825c-0.149,0.449-0.313,0.737-0.487,0.862c-0.274,0.2-0.8,0.35-1.575,0.45
		c-0.95,0.149-1.487-0.025-1.612-0.525C41.175,27.024,41.763,26.513,43.088,26.013z"/>
	
		<linearGradient id="SVGID_5_" gradientUnits="userSpaceOnUse" x1="-43.6914" y1="-0.5181" x2="-42.5609" y2="-0.5181" gradientTransform="matrix(-0.7132 -0.2322 0.6518 -0.5766 16.2007 17.0502)">
		<stop  offset="0" style="stop-color:#E6B95E"/>
		<stop  offset="1" style="stop-color:#FFD875"/>
	</linearGradient>
	<path style="fill-rule:evenodd;clip-rule:evenodd;fill:url(#SVGID_5_);" d="M47.25,28.037c-0.4,0.25-0.85,0.125-1.35-0.375
		c-0.475-0.5-0.363-0.85,0.337-1.05c0.4-0.1,0.763,0.063,1.088,0.487C47.65,27.5,47.625,27.813,47.25,28.037z"/>
	
		<linearGradient id="SVGID_6_" gradientUnits="userSpaceOnUse" x1="-48.7266" y1="-2.6328" x2="-47.6751" y2="-2.6328" gradientTransform="matrix(-0.7133 -0.2318 0.646 -0.5787 16.2006 17.0501)">
		<stop  offset="0" style="stop-color:#E6B95E"/>
		<stop  offset="1" style="stop-color:#FFD875"/>
	</linearGradient>
	<path style="fill-rule:evenodd;clip-rule:evenodd;fill:url(#SVGID_6_);" d="M48.15,28.899c0.375-0.074,0.8,0.075,1.274,0.45
		c0.501,0.426,0.575,0.788,0.226,1.088c-0.375,0.3-0.813,0.149-1.313-0.45C47.813,29.388,47.75,29.025,48.15,28.899z"/>
	
		<linearGradient id="SVGID_7_" gradientUnits="userSpaceOnUse" x1="-48.0435" y1="-4.1787" x2="-46.9682" y2="-4.1787" gradientTransform="matrix(-0.7149 -0.2267 0.6573 -0.5784 16.2007 17.0487)">
		<stop  offset="0" style="stop-color:#E6B95E"/>
		<stop  offset="1" style="stop-color:#FFD875"/>
	</linearGradient>
	<path style="fill-rule:evenodd;clip-rule:evenodd;fill:url(#SVGID_7_);" d="M47.288,29.462c0.274,0,0.499,0.2,0.675,0.601
		c0.199,0.425,0.125,0.712-0.226,0.862c-0.399,0.175-0.712-0.024-0.938-0.6C46.575,29.725,46.738,29.438,47.288,29.462z"/>
	
		<linearGradient id="SVGID_8_" gradientUnits="userSpaceOnUse" x1="-32.6992" y1="-6.2266" x2="-31.3077" y2="-6.2266" gradientTransform="matrix(-0.7142 -0.2291 0.6502 -0.5791 16.2007 17.0501)">
		<stop  offset="0" style="stop-color:#C2AF67"/>
		<stop  offset="1" style="stop-color:#EBD88D"/>
	</linearGradient>
	<path style="fill-rule:evenodd;clip-rule:evenodd;fill:url(#SVGID_8_);" d="M34.237,27.399c0.726-0.175,1.325-0.087,1.801,0.263
		c0.475,0.375,0.512,0.688,0.112,0.938c-0.426,0.3-1.101,0.238-2.025-0.188C33.2,27.987,33.238,27.649,34.237,27.399z"/>
	
		<linearGradient id="SVGID_9_" gradientUnits="userSpaceOnUse" x1="-34.645" y1="-3.1641" x2="-33.6488" y2="-3.1641" gradientTransform="matrix(-0.7152 -0.2258 0.6516 -0.5807 16.1998 17.0492)">
		<stop  offset="0" style="stop-color:#C2AF67"/>
		<stop  offset="1" style="stop-color:#EBD88D"/>
	</linearGradient>
	<path style="fill-rule:evenodd;clip-rule:evenodd;fill:url(#SVGID_9_);" d="M38.175,26.125c0.476-0.051,0.851,0,1.125,0.149
		c0.301,0.15,0.288,0.388-0.037,0.713s-0.75,0.287-1.275-0.112C37.463,26.449,37.525,26.2,38.175,26.125z"/>
	
		<linearGradient id="SVGID_10_" gradientUnits="userSpaceOnUse" x1="-28" y1="-7.2695" x2="-27.0513" y2="-7.2695" gradientTransform="matrix(-0.7115 -0.2372 0.6482 -0.5745 16.1998 17.0503)">
		<stop  offset="0" style="stop-color:#C2AF67"/>
		<stop  offset="1" style="stop-color:#EBD88D"/>
	</linearGradient>
	<path style="fill-rule:evenodd;clip-rule:evenodd;fill:url(#SVGID_10_);" d="M31.05,27.175c0.9,0.325,1.013,0.638,0.338,0.938
		c-0.525,0.225-0.862,0.138-1.013-0.263C30.25,27.45,30.475,27.225,31.05,27.175z"/>
	
		<linearGradient id="SVGID_11_" gradientUnits="userSpaceOnUse" x1="-39.6382" y1="-5.9014" x2="-38.5867" y2="-5.9014" gradientTransform="matrix(-0.7133 -0.2318 0.6558 -0.5755 16.2 17.0497)">
		<stop  offset="0" style="stop-color:#E6B95E"/>
		<stop  offset="1" style="stop-color:#FFD875"/>
	</linearGradient>
	<path style="fill-rule:evenodd;clip-rule:evenodd;fill:url(#SVGID_11_);" d="M40.351,28.862c0.3,0.1,0.462,0.287,0.487,0.563
		c0.05,0.3-0.125,0.513-0.525,0.638c-0.45,0.175-0.688-0.038-0.712-0.638C39.575,28.85,39.825,28.662,40.351,28.862z"/>
	
		<linearGradient id="SVGID_12_" gradientUnits="userSpaceOnUse" x1="-33.9194" y1="19.9941" x2="-32.6934" y2="19.9941" gradientTransform="matrix(-0.4741 -0.5811 0.848 -0.147 16.2002 17.0497)">
		<stop  offset="0" style="stop-color:#B5882F"/>
		<stop  offset="1" style="stop-color:#E6B95E"/>
	</linearGradient>
	<path style="fill-rule:evenodd;clip-rule:evenodd;fill:url(#SVGID_12_);" d="M49.463,33.362c0.05,0.375-0.013,0.625-0.188,0.75
		c-0.176,0.101-0.363,0.075-0.563-0.075c-0.2-0.125-0.325-0.324-0.375-0.6c-0.075-0.275-0.038-0.5,0.112-0.675
		c0.125-0.2,0.313-0.213,0.563-0.038C49.263,32.875,49.412,33.088,49.463,33.362z"/>
	
		<linearGradient id="SVGID_13_" gradientUnits="userSpaceOnUse" x1="-33.9834" y1="14.5005" x2="-32.4052" y2="14.5005" gradientTransform="matrix(-0.4871 -0.5703 0.8634 -0.1439 16.2007 17.0497)">
		<stop  offset="0" style="stop-color:#B5882F"/>
		<stop  offset="1" style="stop-color:#E6B95E"/>
	</linearGradient>
	<path style="fill-rule:evenodd;clip-rule:evenodd;fill:url(#SVGID_13_);" d="M46.2,34.149l-3.037-0.412l0.563-0.525
		c0.475-0.35,0.962-0.462,1.462-0.337c0.525,0.125,0.85,0.375,0.976,0.75C46.237,33.824,46.25,34,46.2,34.149z"/>
	
		<use xlink:href="#flash0.ai_x5F_3_x2F_Layer_8_copy_x2F__x3C_Path_x3E__x5F_36"  width="23.907" height="15.9" x="-0.007" y="-15.9" transform="matrix(0.75 0 0 -0.75 28.0498 24.2998)" style="overflow:visible;opacity:0.4883;enable-background:new    ;"/>
	
		<use xlink:href="#flash0.ai_x5F_3_x2F_Layer_8_copy_x2F__x3C_Path_x3E__x5F_35"  width="7.654" height="3.5" y="-3.5" transform="matrix(0.75 0 0 -0.75 45.4502 29.7002)" style="overflow:visible;opacity:0.5898;enable-background:new    ;"/>
	
		<use xlink:href="#flash0.ai_x5F_3_x2F_Layer_8_copy_x2F__x3C_Path_x3E__x5F_34"  width="13.803" height="6.256" y="-6.25" transform="matrix(0.75 0 0 -0.75 38.4004 26.2998)" style="overflow:visible;opacity:0.5898;enable-background:new    ;"/>
	
		<use xlink:href="#flash0.ai_x5F_3_x2F_Layer_8_copy_x2F__x3C_Path_x3E__x5F_33"  width="13.304" height="5.522" y="-5.5" transform="matrix(0.75 0 0 -0.75 30.75 24.75)" style="overflow:visible;opacity:0.5898;enable-background:new    ;"/>
	<path style="fill-rule:evenodd;clip-rule:evenodd;fill:#9E6500;" d="M48.375,21.024L48.3,22.787l-0.712,0.525l-8.362,4.5
		c-3.226,1.75-6.488,3.524-9.788,5.325c-6.6,3.6-10.05,5.512-10.35,5.737c-0.475,0.35-1.213,0.65-2.213,0.899l-0.225-1.837
		l7.763-6.45l3.75-2.4L48.375,21.024z"/>
	<path style="fill-rule:evenodd;clip-rule:evenodd;fill:#C98000;" d="M32.025,23.425c4.5-0.95,9.95-1.75,16.35-2.4L26.55,32.05
		l-9,5.662l-0.899,0.226c2.45-4.875,4.162-7.95,5.138-9.226c0.875-1.175,1.925-2.124,3.149-2.85
		C26.638,24.888,29,24.075,32.025,23.425z"/>
	<path style="fill-rule:evenodd;clip-rule:evenodd;fill:#E6B95E;" d="M47.25,21.475l0.338,1.838
		c-6.075,3.95-11.101,6.962-15.075,9.037s-8.863,4.438-14.662,7.088l-0.301-1.726l11.588-11.399L47.25,21.475z"/>
	<path style="fill-rule:evenodd;clip-rule:evenodd;fill:#EBD88D;" d="M31.463,24.063c4.425-0.95,9.688-1.813,15.787-2.588
		c-3.825,2.575-8.375,5.237-13.649,7.987c-5.851,3.05-11.2,5.8-16.051,8.25c1.2-2.124,2.4-4.325,3.601-6.6
		c1.025-1.925,2.138-3.351,3.337-4.275C26.038,25.638,28.363,24.713,31.463,24.063z"/>
	
		<linearGradient id="SVGID_14_" gradientUnits="userSpaceOnUse" x1="7.8252" y1="25.4385" x2="9.4752" y2="25.4385" gradientTransform="matrix(0.75 0 0 0.75 16.2002 17.0498)">
		<stop  offset="0" style="stop-color:#B5882F"/>
		<stop  offset="1" style="stop-color:#E6B95E"/>
	</linearGradient>
	<path style="fill-rule:evenodd;clip-rule:evenodd;fill:url(#SVGID_14_);" d="M22.987,35.5c0.45,0.375,0.475,0.725,0.075,1.05
		c-0.4,0.351-0.7,0.399-0.899,0.15c-0.175-0.2-0.15-0.501,0.074-0.9C22.463,35.4,22.712,35.3,22.987,35.5z"/>
	
		<linearGradient id="SVGID_15_" gradientUnits="userSpaceOnUse" x1="15.1006" y1="20.8633" x2="18.1006" y2="20.8633" gradientTransform="matrix(0.75 0 0 0.75 16.2002 17.0498)">
		<stop  offset="0" style="stop-color:#B5882F"/>
		<stop  offset="1" style="stop-color:#E6B95E"/>
	</linearGradient>
	<path style="fill-rule:evenodd;clip-rule:evenodd;fill:url(#SVGID_15_);" d="M27.525,32.688c0.075-0.325,0.475-0.575,1.2-0.75
		c0.35-0.1,0.7-0.163,1.05-0.188l-0.112,0.862c-0.175,0.6-0.513,0.938-1.013,1.013c-0.475,0.075-0.813-0.063-1.013-0.413
		L27.525,32.688z"/>
	
		<linearGradient id="SVGID_16_" gradientUnits="userSpaceOnUse" x1="31.2373" y1="13.4795" x2="33.0623" y2="13.4795" gradientTransform="matrix(0.75 0 0 0.75 16.2002 17.0498)">
		<stop  offset="0" style="stop-color:#B5882F"/>
		<stop  offset="1" style="stop-color:#E6B95E"/>
	</linearGradient>
	<path style="fill-rule:evenodd;clip-rule:evenodd;fill:url(#SVGID_16_);" d="M40.237,26.649c1.251,0.4,1.075,0.75-0.524,1.051
		c-0.15-0.075-0.163-0.288-0.038-0.638C39.775,26.688,39.963,26.55,40.237,26.649z"/>
	
		<use xlink:href="#flash0.ai_x5F_3_x2F_Layer_8_copy_x2F__x3C_Path_x3E__x5F_25"  width="36.148" height="19.15" y="-19.15" transform="matrix(0.75 0 0 -0.75 20.8501 21.1504)" style="overflow:visible;opacity:0.4883;enable-background:new    ;"/>
	<path style="fill-rule:evenodd;clip-rule:evenodd;fill:#FFDD61;" d="M46.987,19.712c0.775,0.175,1.075,0.55,0.9,1.125
		c-0.175,0.501-0.587,0.938-1.237,1.313c-0.976,0.575-1.463,1.313-1.463,2.213c-0.025,0.475-0.287,0.825-0.787,1.05
		c-0.525,0.25-0.95,0.175-1.275-0.225c-0.574-0.675-1.649-0.438-3.225,0.712c-2.7,1.976-4.938,3.351-6.713,4.125
		c-2,0.876-4.388,2.013-7.162,3.413c-2.075,1.05-3.601,1.725-4.575,2.024c-0.925,0.275-1.938,0.7-3.037,1.275
		c-0.75,0.399-1.313,0.563-1.688,0.487c-0.475-0.1-0.563-0.612-0.263-1.537c0.25-0.85,0.563-1.4,0.938-1.65
		c0.175-0.125,0.837-1.313,1.987-3.563s1.888-3.512,2.213-3.787c0.85-0.65,4.85-2.038,12-4.163
		C41.101,20.325,45.563,19.387,46.987,19.712z"/>
	<g>
		<path style="fill-rule:evenodd;clip-rule:evenodd;fill:#DBBB46;" d="M40.163,25c0.649-0.525,1.3-0.838,1.949-0.938
			c0.55-0.125,0.9-0.075,1.051,0.149c0.1,0.126,0.225,0.313,0.375,0.563c0.149,0.2,0.362,0.301,0.637,0.301
			c0.501,0,0.838-0.313,1.013-0.938v0.225c-0.025,0.475-0.287,0.825-0.787,1.05c-0.525,0.25-0.95,0.175-1.275-0.225
			c-0.574-0.675-1.649-0.438-3.225,0.712c-2.7,1.976-4.938,3.351-6.713,4.125c-2,0.876-4.388,2.013-7.162,3.413
			c-2.075,1.05-3.601,1.725-4.575,2.024c-0.925,0.275-1.938,0.7-3.037,1.275c-0.75,0.399-1.313,0.563-1.688,0.487
			c-0.226-0.075-0.363-0.275-0.413-0.6c0.4,0.149,0.913,0.05,1.538-0.3c0.35-0.2,0.75-0.463,1.199-0.788
			c0.325-0.25,1.025-0.638,2.101-1.162c0.95-0.45,2.962-1.287,6.037-2.513c2.9-1.149,4.625-1.875,5.175-2.175
			c1-0.5,2.338-1.25,4.013-2.25C38.25,26.337,39.513,25.524,40.163,25z"/>
		<path style="fill-rule:evenodd;clip-rule:evenodd;fill:#DBBB46;" d="M47.025,21.063c0.35-0.45,0.475-0.85,0.375-1.2
			c0.5,0.25,0.638,0.625,0.412,1.125c-0.225,0.45-0.612,0.838-1.162,1.162c-0.75,0.426-1.2,0.938-1.351,1.538
			c-0.024-0.45-0.037-0.763-0.037-0.938c0.05-0.3,0.25-0.55,0.6-0.75C46.313,21.774,46.7,21.462,47.025,21.063z"/>
	</g>
	<path style="fill-rule:evenodd;clip-rule:evenodd;fill:#B83105;" d="M39.601,20.013c4.3-0.726,6.563-0.938,6.787-0.638
		c0.375,0.475-2.188,2.5-7.688,6.075c-3.275,2.075-6.137,3.763-8.588,5.063c-1.4,0.75-2.1,1.787-2.1,3.112
		c0,0.524-0.263,0.787-0.787,0.787c-0.525-0.025-0.85-0.213-0.976-0.563c-0.149-0.475-0.913-0.487-2.287-0.037
		c-2.175,0.725-3.438,1.112-3.788,1.162c-0.95,0.15-1.7,0.2-2.25,0.15l-1.199-0.075c-0.45,0-0.463-0.399-0.038-1.2
		c0.3-0.574,0.75-1.225,1.351-1.95c0.3-0.375,1.688-1.688,4.162-3.938c3.325-3.024,5.375-4.912,6.15-5.662
		C31.775,21.45,35.525,20.688,39.601,20.013z"/>
	<g>
		<path style="fill-rule:evenodd;clip-rule:evenodd;fill:#8C2504;" d="M20.175,34.975c-0.924,0.15-1.637,0.213-2.137,0.188
			c-0.475-0.075-0.863-0.112-1.163-0.112l0.038-0.112l1.649-0.112c1.525-0.175,2.975-0.575,4.351-1.2
			c2.075-0.95,3.262-1.15,3.563-0.601c0.225,0.425,0.375,0.663,0.449,0.713c0.175,0.2,0.425,0.212,0.75,0.037
			c0.175-0.074,0.288-0.162,0.338-0.262v0.112c0,0.524-0.263,0.787-0.787,0.787c-0.525-0.025-0.85-0.213-0.976-0.563
			c-0.149-0.475-0.913-0.487-2.287-0.037C21.788,34.537,20.525,34.925,20.175,34.975z"/>
		<path style="fill-rule:evenodd;clip-rule:evenodd;fill:#8C2504;" d="M46.388,19.375c0.375,0.475-2.188,2.5-7.688,6.075
			c-3.275,2.075-6.137,3.763-8.588,5.063c-0.8,0.449-1.362,0.938-1.688,1.462c-0.074-0.35-0.062-0.625,0.038-0.825
			c0.175-0.35,0.6-0.725,1.274-1.125c0.625-0.375,2.263-1.325,4.913-2.85c2.5-1.476,4.125-2.462,4.875-2.963
			c0.75-0.524,0.887-0.737,0.412-0.637c-0.899,0.225-1.6,0.35-2.1,0.375c-0.55,0.05,0.063-0.525,1.837-1.726
			c1.801-1.2,3.501-2.175,5.101-2.925C45.775,19.225,46.313,19.25,46.388,19.375z"/>
	</g>
	<path style="fill-rule:evenodd;clip-rule:evenodd;fill:#FFF0B8;" d="M44.101,23.013c0.175,0.05,0.312,0.262,0.412,0.637
		s0.063,0.638-0.112,0.788c-0.15,0.125-0.325,0.063-0.525-0.188c-0.35-0.4-0.612-0.65-0.787-0.75c-0.3-0.175-0.287-0.325,0.037-0.45
		C43.45,22.95,43.775,22.938,44.101,23.013z"/>
	<path style="fill-rule:evenodd;clip-rule:evenodd;fill:#FFF0B8;" d="M46.612,20.125c0.375-0.1,0.413,0.075,0.113,0.524
		c-0.301,0.45-0.588,0.676-0.863,0.676c-0.274,0-0.274-0.175,0-0.525C46.113,20.425,46.363,20.2,46.612,20.125z"/>
	<path style="fill-rule:evenodd;clip-rule:evenodd;fill:#FFF0B8;" d="M17.288,35.688c0.449-0.025,0.575,0.075,0.375,0.3
		c-0.201,0.225-0.45,0.338-0.75,0.338c-0.275,0-0.338-0.101-0.188-0.301C16.875,35.824,17.063,35.713,17.288,35.688z"/>
	<path style="fill-rule:evenodd;clip-rule:evenodd;fill:#D6561E;" d="M26.55,31.712c0.45,0,0.763,0.301,0.938,0.9
		c0.175,0.6,0.113,0.875-0.188,0.825c-0.2-0.025-0.375-0.15-0.524-0.375c-0.226-0.375-0.363-0.601-0.413-0.675
		c-0.25-0.251-0.362-0.413-0.337-0.488C26.025,31.774,26.2,31.712,26.55,31.712z"/>
	<path style="fill-rule:evenodd;clip-rule:evenodd;fill:#D6561E;" d="M22.163,33.438c1.149-0.575,1.987-0.862,2.512-0.862
		c0.45,0,0.213,0.162-0.712,0.487c-1.1,0.475-1.7,0.712-1.8,0.712c-0.15-0.05-0.226-0.087-0.226-0.112
		C21.913,33.612,21.988,33.537,22.163,33.438z"/>
	<path style="fill-rule:evenodd;clip-rule:evenodd;fill:#9E6500;" d="M47.138,17.05l-0.037,1.8l-0.713,0.525l-8.175,4.462
		c-3.15,1.75-6.338,3.513-9.563,5.288c-6.425,3.574-9.788,5.475-10.088,5.7c-0.45,0.35-1.162,0.649-2.138,0.899L16.2,33.888
		l7.575-6.413l3.638-2.399L47.138,17.05z"/>
	<path style="fill-rule:evenodd;clip-rule:evenodd;fill:#C98000;" d="M25.838,28l-8.775,5.662L16.2,33.888
		c2.375-4.851,4.038-7.926,4.987-9.226c0.875-1.175,1.9-2.112,3.075-2.813c1.65-0.975,3.95-1.775,6.9-2.399
		c4.399-0.951,9.725-1.75,15.975-2.4l-1.875,1.125L25.838,28z"/>
	<path style="fill-rule:evenodd;clip-rule:evenodd;fill:#E6B95E;" d="M28.351,22.3l17.699-4.763l0.338,1.838
		c-5.925,3.925-10.825,6.912-14.7,8.962c-3.875,2.075-8.65,4.426-14.325,7.051l-0.3-1.726L28.351,22.3z"/>
	<path style="fill-rule:evenodd;clip-rule:evenodd;fill:#FFD875;" d="M46.05,17.537c-3.725,2.55-8.162,5.188-13.313,7.913
		c-5.725,3.05-10.949,5.787-15.675,8.212c1.175-2.125,2.35-4.325,3.525-6.6c1-1.926,2.075-3.338,3.225-4.237
		c1.525-1.2,3.788-2.125,6.788-2.775C34.95,19.125,40.101,18.287,46.05,17.537z"/>
	
		<linearGradient id="SVGID_17_" gradientUnits="userSpaceOnUse" x1="13.6987" y1="-7.4819" x2="17.5238" y2="-7.4819" gradientTransform="matrix(0.4461 0.6029 -0.6029 0.4461 16.2006 17.0494)">
		<stop  offset="0" style="stop-color:#E6B95E"/>
		<stop  offset="1" style="stop-color:#FFD875"/>
	</linearGradient>
	<path style="fill-rule:evenodd;clip-rule:evenodd;fill:url(#SVGID_17_);" d="M27.525,22.075c1.649-0.051,2.45,0.212,2.399,0.787
		c-0.024,0.55-0.612,0.95-1.762,1.2c-0.925,0.225-1.563,0.3-1.913,0.225c-0.25-0.05-0.512-0.263-0.787-0.638
		c-0.226-0.35-0.138-0.688,0.263-1.012C26.15,22.287,26.75,22.1,27.525,22.075z"/>
	
		<linearGradient id="SVGID_18_" gradientUnits="userSpaceOnUse" x1="13.4893" y1="-1.8931" x2="15.2593" y2="-1.8931" gradientTransform="matrix(0.4449 0.6038 -0.6038 0.4449 16.2002 17.0504)">
		<stop  offset="0" style="stop-color:#E6B95E"/>
		<stop  offset="1" style="stop-color:#FFD875"/>
	</linearGradient>
	<path style="fill-rule:evenodd;clip-rule:evenodd;fill:url(#SVGID_18_);" d="M23.963,24.024c0.875-0.125,1.087,0.163,0.638,0.863
		c-0.45,0.675-0.951,0.987-1.5,0.938c-0.475-0.051-0.576-0.351-0.301-0.9C23.101,24.375,23.488,24.075,23.963,24.024z"/>
	
		<linearGradient id="SVGID_19_" gradientUnits="userSpaceOnUse" x1="15.4351" y1="2.9053" x2="17.1352" y2="2.9053" gradientTransform="matrix(0.4411 0.6066 -0.6066 0.4411 16.2001 17.0494)">
		<stop  offset="0" style="stop-color:#E6B95E"/>
		<stop  offset="1" style="stop-color:#FFD875"/>
	</linearGradient>
	<path style="fill-rule:evenodd;clip-rule:evenodd;fill:url(#SVGID_19_);" d="M22.237,27.063c0.5-0.051,0.513,0.324,0.038,1.125
		c-0.475,0.825-0.976,1.162-1.5,1.013c-0.475-0.15-0.463-0.525,0.037-1.125C21.313,27.475,21.788,27.138,22.237,27.063z"/>
	
		<linearGradient id="SVGID_20_" gradientUnits="userSpaceOnUse" x1="16.6738" y1="0.9434" x2="18.4439" y2="0.9434" gradientTransform="matrix(0.4449 0.6038 -0.6038 0.4449 16.2002 17.0504)">
		<stop  offset="0" style="stop-color:#E6B95E"/>
		<stop  offset="1" style="stop-color:#FFD875"/>
	</linearGradient>
	<path style="fill-rule:evenodd;clip-rule:evenodd;fill:url(#SVGID_20_);" d="M23.362,27.25c0.625-0.226,0.875-0.013,0.75,0.638
		c-0.125,0.675-0.437,1.012-0.938,1.012c-0.449,0-0.612-0.249-0.487-0.75C22.838,27.649,23.063,27.35,23.362,27.25z"/>
	
		<linearGradient id="SVGID_21_" gradientUnits="userSpaceOnUse" x1="26.2002" y1="4.9297" x2="30.6002" y2="4.9297" gradientTransform="matrix(0.75 0 0 0.75 16.2002 17.0498)">
		<stop  offset="0" style="stop-color:#E6B95E"/>
		<stop  offset="1" style="stop-color:#FFD875"/>
	</linearGradient>
	<path style="fill-rule:evenodd;clip-rule:evenodd;fill:url(#SVGID_21_);" d="M38.213,19.75c1.225-0.175,1.35,0.137,0.375,0.938
		c-1,0.825-1.787,1.188-2.362,1.087c-0.525-0.1-0.55-0.425-0.075-0.975S37.313,19.899,38.213,19.75z"/>
	
		<linearGradient id="SVGID_22_" gradientUnits="userSpaceOnUse" x1="16.5903" y1="-15.0708" x2="18.0204" y2="-15.0708" gradientTransform="matrix(0.4458 0.6031 -0.6031 0.4458 16.1999 17.0495)">
		<stop  offset="0" style="stop-color:#E6B95E"/>
		<stop  offset="1" style="stop-color:#FFD875"/>
	</linearGradient>
	<path style="fill-rule:evenodd;clip-rule:evenodd;fill:url(#SVGID_22_);" d="M33.338,20.125c0.75-0.2,0.862,0.024,0.337,0.675
		c-0.5,0.6-0.987,0.813-1.462,0.638c-0.425-0.175-0.487-0.413-0.188-0.713C32.3,20.475,32.737,20.274,33.338,20.125z"/>
	
		<linearGradient id="SVGID_23_" gradientUnits="userSpaceOnUse" x1="21.5" y1="-26.4082" x2="22.8951" y2="-26.4082" gradientTransform="matrix(0.4435 0.6048 -0.6048 0.4435 16.2007 17.0493)">
		<stop  offset="0" style="stop-color:#E6B95E"/>
		<stop  offset="1" style="stop-color:#FFD875"/>
	</linearGradient>
	<path style="fill-rule:evenodd;clip-rule:evenodd;fill:url(#SVGID_23_);" d="M41.925,18.212c0.676-0.174,0.976-0.05,0.9,0.375
		c-0.075,0.45-0.438,0.676-1.088,0.676c-0.575,0-0.75-0.163-0.524-0.488C41.413,18.45,41.65,18.262,41.925,18.212z"/>
	
		<linearGradient id="SVGID_24_" gradientUnits="userSpaceOnUse" x1="19.2695" y1="-10.876" x2="20.9146" y2="-10.876" gradientTransform="matrix(0.4445 0.6041 -0.6041 0.4445 16.2 17.0496)">
		<stop  offset="0" style="stop-color:#E6B95E"/>
		<stop  offset="1" style="stop-color:#FFD875"/>
	</linearGradient>
	<path style="fill-rule:evenodd;clip-rule:evenodd;fill:url(#SVGID_24_);" d="M31.351,23.763c0.575-0.426,0.912-0.338,1.012,0.262
		c0.1,0.575-0.137,0.888-0.712,0.938c-0.5,0.025-0.75-0.112-0.75-0.412C30.9,24.274,31.05,24.012,31.351,23.763z"/>
	
		<linearGradient id="SVGID_25_" gradientUnits="userSpaceOnUse" x1="19.4697" y1="-6.5645" x2="21.3258" y2="-6.5645" gradientTransform="matrix(0.0606 0.7475 -0.7475 0.0606 16.2002 17.0495)">
		<stop  offset="0" style="stop-color:#B5882F"/>
		<stop  offset="1" style="stop-color:#E6B95E"/>
	</linearGradient>
	<path style="fill-rule:evenodd;clip-rule:evenodd;fill:url(#SVGID_25_);" d="M21.675,32.013c-0.024-0.275,0.1-0.55,0.375-0.825
		c0.25-0.25,0.475-0.313,0.676-0.188c0.2,0.149,0.287,0.362,0.262,0.638c0,0.274-0.1,0.524-0.3,0.75
		c-0.2,0.225-0.412,0.312-0.638,0.262C21.825,32.6,21.7,32.388,21.675,32.013z"/>
	
		<linearGradient id="SVGID_26_" gradientUnits="userSpaceOnUse" x1="18.0693" y1="-13.2715" x2="20.1268" y2="-13.2715" gradientTransform="matrix(0.0638 0.7473 -0.7473 0.0638 16.2001 17.05)">
		<stop  offset="0" style="stop-color:#B5882F"/>
		<stop  offset="1" style="stop-color:#E6B95E"/>
	</linearGradient>
	<path style="fill-rule:evenodd;clip-rule:evenodd;fill:url(#SVGID_26_);" d="M25.65,31.45c-0.075-0.15-0.1-0.325-0.075-0.525
		c0.075-0.425,0.4-0.813,0.975-1.162c0.576-0.351,1.175-0.45,1.801-0.301c0.3,0.075,0.549,0.175,0.75,0.301L25.65,31.45z"/>
	
		<linearGradient id="SVGID_27_" gradientUnits="userSpaceOnUse" x1="9.7163" y1="-29.4639" x2="10.9454" y2="-29.4639" gradientTransform="matrix(0.061 0.7475 -0.7475 0.061 16.2004 17.0498)">
		<stop  offset="0" style="stop-color:#B5882F"/>
		<stop  offset="1" style="stop-color:#E6B95E"/>
	</linearGradient>
	<path style="fill-rule:evenodd;clip-rule:evenodd;fill:url(#SVGID_27_);" d="M39.226,22.337c0.399,0.025,0.449,0.238,0.149,0.638
		c-0.275,0.4-0.6,0.575-0.975,0.525c-0.325-0.025-0.351-0.238-0.075-0.638C38.601,22.487,38.9,22.313,39.226,22.337z"/>
	
		<use xlink:href="#flash0.ai_x5F_3_x2F_Layer_8_copy_x2F__x3C_Path_x3E__x5F_2"  width="13.325" height="2.583" x="-0.025" y="-2.583" transform="matrix(0.75 0 0 -0.75 18.3999 27.7998)" style="overflow:visible;opacity:0.5898;enable-background:new    ;"/>
	
		<use xlink:href="#flash0.ai_x5F_3_x2F_Layer_8_copy_x2F__x3C_Path_x3E__x5F_1"  width="22.212" height="3.133" x="0.038" y="-3.133" transform="matrix(0.75 0 0 -0.75 21.6001 22.2002)" style="overflow:visible;opacity:0.5898;enable-background:new    ;"/>
	
		<use xlink:href="#flash0.ai_x5F_3_x2F_Layer_8_copy_x2F__x3C_Path_x3E_"  width="19.451" height="3.089" x="-0.001" y="-3.089" transform="matrix(0.75 0 0 -0.75 31.1001 17.8501)" style="overflow:visible;opacity:0.5898;enable-background:new    ;"/>
</g>
</svg>
