<?xml version="1.0" encoding="iso-8859-1"?>
<!-- Generator: Adobe Illustrator 15.1.0, SVG Export Plug-In . SVG Version: 6.00 Build 0)  -->
<!DOCTYPE svg PUBLIC "-//W3C//DTD SVG 1.1//EN" "http://www.w3.org/Graphics/SVG/1.1/DTD/svg11.dtd">
<svg version="1.1" id="FlashAICB" xmlns="http://www.w3.org/2000/svg" xmlns:xlink="http://www.w3.org/1999/xlink" x="0px" y="0px"
	 width="67.45px" height="49.3px" viewBox="0 0 67.45 49.3" style="enable-background:new 0 0 67.45 49.3;" xml:space="preserve">
<symbol  id="FlashAICB_x2F_Layer_61_x2F__x3C_Compound_Path_x3E_" viewBox="0 -1.028 1.856 1.028">
	<g id="Layer_1_22_">
		<path style="fill-rule:evenodd;clip-rule:evenodd;fill:#DAF1F2;" d="M0.35-0.75c0.033-0.033,0.2-0.05,0.5-0.05
			c0.2,0.066,0.3,0.233,0.3,0.5h-0.3c-0.1,0-0.217-0.034-0.35-0.1C0.333-0.5,0.283-0.617,0.35-0.75z M1.85-0.35
			c0.033-0.2-0.067-0.333-0.3-0.4c-0.3-0.033-0.5-0.067-0.6-0.1C0.317-1.117,0-1.083,0-0.75l0.3,0.4C0.467-0.15,0.65-0.033,0.85,0
			l0.8-0.1C1.783-0.167,1.85-0.25,1.85-0.35z"/>
	</g>
</symbol>
<symbol  id="FlashAICB_x2F_Layer_61_x2F__x3C_Compound_Path_x3E__x5F_0" viewBox="0 -0.738 1.357 0.689">
	<g id="Layer_1_27_">
		<path style="fill-rule:evenodd;clip-rule:evenodd;fill:#DAF1F2;" d="M0.85-0.25h-0.2C0.317-0.25,0.2-0.333,0.3-0.5
			c0.067-0.167,0.167-0.183,0.3-0.05C0.767-0.517,0.85-0.417,0.85-0.25z M1.1-0.5C0.9-0.567,0.767-0.6,0.7-0.6
			C0.267-0.8,0.033-0.783,0-0.55l0.25,0.3c0.133,0.133,0.267,0.2,0.4,0.2H1.2l0.15-0.2C1.383-0.383,1.3-0.467,1.1-0.5z"/>
	</g>
</symbol>
<symbol  id="FlashAICB_x2F_Layer_61_x2F__x3C_Compound_Path_x3E__x5F_1" viewBox="0 -1.203 2.155 1.17">
	<g id="Layer_1_32_">
		<path style="fill-rule:evenodd;clip-rule:evenodd;fill:#DAF1F2;" d="M0.45-0.9C0.483-1.033,0.667-1.05,1-0.95
			C1.233-0.917,1.35-0.733,1.35-0.4H1c-0.133,0-0.267-0.033-0.4-0.1C0.4-0.6,0.35-0.733,0.45-0.9z M2.15-0.45
			C2.183-0.683,2.067-0.833,1.8-0.9C1.467-0.967,1.233-1.017,1.1-1.05C0.4-1.283,0.033-1.25,0-0.95L0.4-0.4
			C0.567-0.2,0.767-0.083,1-0.05C1.2-0.017,1.5-0.033,1.9-0.1C2.067-0.2,2.15-0.317,2.15-0.45z"/>
	</g>
</symbol>
<symbol  id="FlashAICB_x2F_Layer_61_x2F__x3C_Path_x3E_" viewBox="-0.012 -11.8 1.612 11.8">
	<g id="Layer_1_8_">
		<path style="fill-rule:evenodd;clip-rule:evenodd;fill:#E6F6F7;" d="M0.2-6.15c0.066-2.1,0.483-3.983,1.25-5.65
			C0.583-10.133,0.1-8.25,0-6.15C-0.1-4.017,0.433-1.967,1.6,0C1.367-0.5,1.117-1.133,0.85-1.9C0.35-3.4,0.133-4.817,0.2-6.15z"/>
	</g>
</symbol>
<symbol  id="FlashAICB_x2F_Layer_61_x2F__x3C_Path_x3E__x5F_0" viewBox="-0.012 -4.689 17.713 4.689">
	<g id="Layer_1_12_">
		<path style="fill-rule:evenodd;clip-rule:evenodd;fill:#1E2B33;" d="M16.55-0.65c0.3,0.2,0.417,0.417,0.35,0.65
			c1.067-0.367,1.067-0.717,0-1.05c-1.8-0.567-2.717-0.867-2.75-0.9c-0.367-0.267-0.1-0.483,0.8-0.65c1.1-0.233,1.667-0.5,1.7-0.8
			c0.067-0.367-0.3-0.633-1.1-0.8c-1.066-0.133-1.867-0.25-2.4-0.35c-0.7-0.167-1.316-0.184-1.85-0.05
			C11.033-4.567,10.467-4.367,9.6-4C9.133-3.8,8.417-3.767,7.45-3.9C6.217-4.033,5.1-4.05,4.1-3.95c-1.367,0.133-2.333,0.4-2.9,0.8
			C0.833-2.917,0.467-2.433,0.1-1.7c-0.2,0.367-0.133,0.684,0.2,0.95c0.3-0.867,0.717-1.5,1.25-1.9C2.617-3.45,4-3.717,5.7-3.45
			c0.466,0.067,1.033,0.167,1.7,0.3c0.533,0.066,1.017,0.033,1.45-0.1c0.9-0.333,1.383-0.517,1.45-0.55
			c0.567-0.133,1.267-0.184,2.1-0.15c0.667,0.034,1.5,0.083,2.5,0.15c0.7,0.066,0.967,0.183,0.8,0.35
			c-0.1,0.133-0.467,0.35-1.1,0.65c-0.667,0.333-1.05,0.55-1.15,0.65c-0.233,0.233-0.367,0.383-0.4,0.45
			c-0.1,0.133-0.083,0.217,0.05,0.25c0.033,0,0.517,0.083,1.45,0.25C15.45-1.067,16.117-0.883,16.55-0.65z"/>
	</g>
</symbol>
<symbol  id="FlashAICB_x2F_Layer_61_x2F__x3C_Path_x3E__x5F_1" viewBox="-0.012 -4.689 17.713 4.689">
	<g id="Layer_1_11_">
		<path style="fill-rule:evenodd;clip-rule:evenodd;fill:#1E2B33;" d="M16.55-0.65c0.3,0.2,0.417,0.417,0.35,0.65
			c1.067-0.367,1.067-0.717,0-1.05c-1.8-0.567-2.717-0.867-2.75-0.9c-0.367-0.267-0.1-0.483,0.8-0.65c1.1-0.233,1.667-0.5,1.7-0.8
			c0.067-0.367-0.3-0.633-1.1-0.8c-1.066-0.133-1.867-0.25-2.4-0.35c-0.7-0.167-1.316-0.184-1.85-0.05
			C11.033-4.567,10.467-4.367,9.6-4C9.133-3.8,8.417-3.767,7.45-3.9C6.217-4.033,5.1-4.05,4.1-3.95c-1.367,0.133-2.333,0.4-2.9,0.8
			C0.833-2.917,0.467-2.433,0.1-1.7c-0.2,0.367-0.133,0.684,0.2,0.95c0.3-0.867,0.717-1.5,1.25-1.9C2.617-3.45,4-3.717,5.7-3.45
			c0.466,0.067,1.033,0.167,1.7,0.3c0.533,0.066,1.017,0.033,1.45-0.1c0.9-0.333,1.383-0.517,1.45-0.55
			c0.567-0.133,1.267-0.184,2.1-0.15c0.667,0.034,1.5,0.083,2.5,0.15c0.7,0.066,0.967,0.183,0.8,0.35
			c-0.1,0.133-0.467,0.35-1.1,0.65c-0.667,0.333-1.05,0.55-1.15,0.65c-0.233,0.233-0.367,0.383-0.4,0.45
			c-0.1,0.133-0.083,0.217,0.05,0.25c0.033,0,0.517,0.083,1.45,0.25C15.45-1.067,16.117-0.883,16.55-0.65z"/>
	</g>
</symbol>
<symbol  id="FlashAICB_x2F_Layer_61_x2F__x3C_Path_x3E__x5F_19" viewBox="0.05 -1.15 2.454 1.15">
	<g id="Layer_1_17_">
		<path style="fill-rule:evenodd;clip-rule:evenodd;fill:#1E2B33;" d="M1.65-0.5L2.3-0.65c0.233-0.033,0.267-0.133,0.1-0.3L2.1-1.1
			C2.067-1.133,1.867-1.15,1.5-1.15l-0.05,0.4c-0.034,0.067-0.133,0.1-0.3,0.1c-0.167,0-0.267,0-0.3,0C0.583-0.75,0.4-0.767,0.3-0.7
			C0.267-0.633,0.233-0.567,0.2-0.5C0.146-0.446,0.096-0.421,0.05-0.425C0.217-0.366,0.3-0.274,0.3-0.15C0.333-0.05,0.367,0,0.4,0
			l0.35-0.1L1-0.35L0.85-0.5C1.017-0.533,1.283-0.533,1.65-0.5z"/>
	</g>
</symbol>
<symbol  id="FlashAICB_x2F_Layer_61_x2F__x3C_Path_x3E__x5F_1_x5F_0" viewBox="0 -2.664 12.65 2.664">
	<g id="Layer_1_37_">
		<path style="fill-rule:evenodd;clip-rule:evenodd;fill:#8D8352;" d="M10.75-0.4c0.2,0.267,0.5,0.4,0.9,0.4
			c0.333-0.033,0.667-0.15,1-0.35c-0.167-0.566-0.417-1.083-0.75-1.55c-0.3-0.4-0.566-0.633-0.8-0.7c-0.434-0.1-0.8-0.083-1.1,0.05
			c-0.433,0.267-0.867,0.5-1.3,0.7c-0.5,0.233-1.167,0.3-2,0.2c-0.833-0.133-1.383-0.2-1.65-0.2C4.65-1.883,4.333-1.9,4.1-1.9
			c-0.333,0-0.767,0.066-1.3,0.2C1.433-1.4,0.5-1,0-0.5l0.1,0.1c0.133-0.033,0.35-0.15,0.65-0.35l1-0.35
			C2.317-1.267,2.833-1.35,3.3-1.35h1L5.15-1.1C5.683-1.033,6.5-1.067,7.6-1.2c0.633,0,1.1-0.066,1.4-0.2
			c0.233-0.067,0.583-0.233,1.05-0.5c0.133,0.133,0.25,0.367,0.35,0.7C10.533-0.8,10.65-0.533,10.75-0.4z"/>
	</g>
</symbol>
<symbol  id="FlashAICB_x2F_Layer_61_x2F__x3C_Path_x3E__x5F_2" viewBox="0.032 -14.25 3.918 14.25">
	<g id="Layer_1_7_">
		<linearGradient id="SVGID_1_" gradientUnits="userSpaceOnUse" x1="-0.0127" y1="-7.125" x2="3.9123" y2="-7.125">
			<stop  offset="0" style="stop-color:#739AC8"/>
			<stop  offset="0.4588" style="stop-color:#F0F8FF"/>
			<stop  offset="0.9765" style="stop-color:#86BDFD"/>
		</linearGradient>
		<path style="fill-rule:evenodd;clip-rule:evenodd;fill:url(#SVGID_1_);" d="M2.55-0.8l1.4,0.1C3.617-0.8,3.267-1.017,2.9-1.35
			C2.333-1.817,1.983-2.367,1.85-3C1.817-4.033,1.667-5.167,1.4-6.4c-0.033-1.4,0.317-3.917,1.05-7.55c0-0.2-0.167-0.3-0.5-0.3h-0.2
			c-0.367,0-0.617,0.1-0.75,0.3c-0.733,3.6-1.05,6.117-0.95,7.55C0.283-5.167,0.4-4.033,0.4-3c0.067,0.567,0.317,1.217,0.75,1.95
			C1.55-0.383,1.733-0.033,1.7,0L2.55-0.8z"/>
	</g>
</symbol>
<symbol  id="FlashAICB_x2F_Layer_61_x2F__x3C_Path_x3E__x5F_20" viewBox="0.04 -0.6 0.51 0.575">
	<g id="Layer_1_16_">
		<path style="fill-rule:evenodd;clip-rule:evenodd;fill:#1E2B33;" d="M0.45-0.025l0.1-0.225c-0.066-0.1-0.1-0.217-0.1-0.35
			C0.383-0.6,0.3-0.567,0.2-0.5C0.067-0.4,0.017-0.317,0.05-0.25c0,0.033,0.083,0.067,0.25,0.1C0.422-0.12,0.472-0.078,0.45-0.025z"
			/>
	</g>
</symbol>
<symbol  id="FlashAICB_x2F_Layer_61_x2F__x3C_Path_x3E__x5F_21" viewBox="0.033 -1.15 0.567 1.15">
	<g id="Layer_1_15_">
		<path style="fill-rule:evenodd;clip-rule:evenodd;fill:#1E2B33;" d="M0.1-0.3L0.15,0l0.3-0.6C0.55-0.933,0.6-1.117,0.6-1.15
			C0.533-1.15,0.45-1.1,0.35-1l-0.3,0.25C0.017-0.717,0.033-0.567,0.1-0.3z"/>
	</g>
</symbol>
<symbol  id="FlashAICB_x2F_Layer_61_x2F__x3C_Path_x3E__x5F_29" viewBox="-0.008 -3.713 1.008 3.739">
	<g id="Layer_1_14_">
		<linearGradient id="SVGID_2_" gradientUnits="userSpaceOnUse" x1="0" y1="-1.8442" x2="1" y2="-1.8442">
			<stop  offset="0" style="stop-color:#B5D9FE"/>
			<stop  offset="1" style="stop-color:#637E9B"/>
		</linearGradient>
		<path style="fill-rule:evenodd;clip-rule:evenodd;fill:url(#SVGID_2_);" d="M1,0C0.933-1.5,0.917-2.55,0.95-3.15
			c0.033-0.434-0.1-0.617-0.4-0.55C0.25-3.633,0.067-3.483,0-3.25c-0.033,0.133,0.033,0.467,0.2,1C0.367-1.65,0.433-1.233,0.4-1
			C0.367-0.667,0.417-0.4,0.55-0.2C0.717,0,0.867,0.067,1,0z"/>
	</g>
</symbol>
<symbol  id="FlashAICB_x2F_Layer_61_x2F__x3C_Path_x3E__x5F_2_x5F_0" viewBox="0 -4.76 16.618 4.76">
	<g id="Layer_1_10_">
		<path style="fill-rule:evenodd;clip-rule:evenodd;fill:#1E2B33;" d="M15.85-0.55L16.6-0.8c0.066-0.233-0.05-0.45-0.35-0.65
			c-0.433-0.233-1.1-0.417-2-0.55c-0.933-0.167-1.417-0.25-1.45-0.25c-0.133-0.033-0.15-0.117-0.05-0.25
			c0.033-0.067,0.167-0.217,0.4-0.45c0.1-0.1,0.483-0.316,1.15-0.65c0.633-0.3,1-0.517,1.1-0.65c0.167-0.167-0.1-0.283-0.8-0.35
			c-1-0.066-1.833-0.117-2.5-0.15C11.267-4.783,10.567-4.733,10-4.6C9.933-4.567,9.45-4.383,8.55-4.05
			C8.117-3.917,7.633-3.883,7.1-3.95c-0.667-0.133-1.233-0.233-1.7-0.3c-1.7-0.267-3.083,0-4.15,0.8C0.717-3.05,0.3-2.417,0-1.55
			C0.067-1.45,0.267-1.3,0.6-1.1c0-0.467,0.183-0.933,0.55-1.4C1.483-2.867,1.8-3.117,2.1-3.25c0.3-0.133,0.767-0.2,1.4-0.2
			c0.267,0,0.85,0.117,1.75,0.35C6.017-2.933,6.733-2.9,7.4-3C8-3.1,8.583-3.35,9.15-3.75c0.533-0.367,1.033-0.567,1.5-0.6
			c0.767-0.1,1.55-0.033,2.35,0.2c0.8,0.267,0.9,0.5,0.3,0.7c-0.833,0.3-1.466,0.6-1.9,0.9c-0.533,0.4-0.483,0.667,0.15,0.8
			c2.067,0.433,3.15,0.667,3.25,0.7l0.5,0.2c-0.066,0.067-0.733,0.333-2,0.8L13.1,0L15.85-0.55z"/>
	</g>
</symbol>
<symbol  id="FlashAICB_x2F_Layer_61_x2F__x3C_Path_x3E__x5F_2_x5F_1" viewBox="0 -0.912 3.9 0.912">
	<g id="Layer_1_21_">
		<path style="fill-rule:evenodd;clip-rule:evenodd;fill:#1E2B33;" d="M0-0.3C1.267-0.8,2.45-0.7,3.55,0L3.6-0.3l0.3-0.25
			c-0.566-0.2-1-0.3-1.3-0.3L1.35-0.9C0.45-0.967,0-0.767,0-0.3z"/>
	</g>
</symbol>
<symbol  id="FlashAICB_x2F_Layer_61_x2F__x3C_Path_x3E__x5F_2_x5F_2" viewBox="0 -0.65 2.75 0.65">
	<g id="Layer_1_26_">
		<path style="fill-rule:evenodd;clip-rule:evenodd;fill:#1E2B33;" d="M0-0.25C0.933-0.583,1.75-0.5,2.45,0L2.5-0.2l0.25-0.2
			c-0.4-0.133-0.7-0.2-0.9-0.2c-0.2-0.033-0.5-0.05-0.9-0.05C0.317-0.65,0-0.517,0-0.25z"/>
	</g>
</symbol>
<symbol  id="FlashAICB_x2F_Layer_61_x2F__x3C_Path_x3E__x5F_2_x5F_3" viewBox="0 -1.1 4.45 1.1">
	<g id="Layer_1_31_">
		<path style="fill-rule:evenodd;clip-rule:evenodd;fill:#1E2B33;" d="M0-0.35C1.533-0.95,2.883-0.833,4.05,0L4.1-0.3l0.35-0.35
			C3.817-0.883,3.333-1,3-1L1.55-1.1C0.517-1.1,0-0.85,0-0.35z"/>
	</g>
</symbol>
<symbol  id="FlashAICB_x2F_Layer_61_x2F__x3C_Path_x3E__x5F_2_x5F_4" viewBox="0 -2.664 12.65 2.664">
	<g id="Layer_1_36_">
		<path style="fill-rule:evenodd;clip-rule:evenodd;fill:#C4B981;" d="M10.75-0.4c0.2,0.267,0.5,0.4,0.9,0.4
			c0.333-0.033,0.667-0.15,1-0.35c-0.167-0.566-0.417-1.083-0.75-1.55c-0.3-0.4-0.566-0.633-0.8-0.7c-0.434-0.1-0.8-0.083-1.1,0.05
			c-0.433,0.267-0.867,0.5-1.3,0.7c-0.5,0.233-1.167,0.3-2,0.2c-0.833-0.133-1.383-0.2-1.65-0.2C4.65-1.883,4.333-1.9,4.1-1.9
			c-0.333,0-0.767,0.066-1.3,0.2C1.433-1.4,0.5-1,0-0.5l0.1,0.1c0.133-0.033,0.35-0.15,0.65-0.35l1-0.35
			C2.317-1.267,2.833-1.35,3.3-1.35h1L5.15-1.1C5.683-1.033,6.5-1.067,7.6-1.2c0.633,0,1.1-0.066,1.4-0.2
			c0.233-0.067,0.583-0.233,1.05-0.5c0.133,0.133,0.25,0.367,0.35,0.7C10.533-0.8,10.65-0.533,10.75-0.4z"/>
	</g>
</symbol>
<symbol  id="FlashAICB_x2F_Layer_61_x2F__x3C_Path_x3E__x5F_3" viewBox="-0.006 -2.479 7.022 2.483">
	<g id="Layer_1_13_">
		<path style="fill-rule:evenodd;clip-rule:evenodd;fill:#DAF1F2;" d="M5.75-1.5c0.033-0.033,0.3-0.167,0.8-0.4
			C6.917-2.1,7.067-2.283,7-2.45C6.567-2.517,6-2.467,5.3-2.3C4.467-2.067,3.9-1.95,3.6-1.95C2.9-2.117,2.367-2.2,2-2.2
			c-0.567,0-0.983,0.05-1.25,0.15C0.583-1.983,0.433-1.917,0.3-1.85C0.067-1.717-0.033-1.617,0-1.55
			C0.267-1.317,0.433-1.167,0.5-1.1l0.9,0.65C1.9-0.117,2.267,0.033,2.5,0l0.55-0.5c0.267,0,0.667-0.017,1.2-0.05
			c0.467,0,0.833,0.066,1.1,0.2c-0.133-0.333-0.417-0.5-0.85-0.5C4-0.85,3.65-0.867,3.45-0.9c0.433-0.267,1.133-0.283,2.1-0.05
			l0.4,0.05c0-0.167,0.083-0.3,0.25-0.4L5.75-1.5z"/>
	</g>
</symbol>
<symbol  id="FlashAICB_x2F_Layer_61_x2F__x3C_Path_x3E__x5F_35" viewBox="0.003 -6.139 17.714 6.146">
	<g id="Layer_1_9_">
		
			<radialGradient id="SVGID_3_" cx="-5.9429" cy="-16316.4941" r="7.35" gradientTransform="matrix(6.802721e-005 -1 -1.2126 6.802721e-005 -19776.1875 -6.4326)" gradientUnits="userSpaceOnUse">
			<stop  offset="0" style="stop-color:#FFFFFF"/>
			<stop  offset="0.9882" style="stop-color:#9FCDE5"/>
		</radialGradient>
		<path style="fill-rule:evenodd;clip-rule:evenodd;fill:url(#SVGID_3_);" d="M10.7-0.3c1.9-0.167,3.716-0.467,5.45-0.9
			c1.7-0.433,2.017-0.833,0.95-1.2c-1.6-0.434-2.583-0.767-2.95-1c-0.367-0.267-0.1-0.483,0.8-0.65c1.1-0.233,1.667-0.5,1.7-0.8
			c0.067-0.367-0.3-0.633-1.1-0.8C14.483-5.783,13.683-5.9,13.15-6c-0.7-0.167-1.316-0.183-1.85-0.05
			c-0.267,0.033-0.833,0.233-1.7,0.6c-0.467,0.2-1.184,0.233-2.15,0.1C6.217-5.483,5.1-5.5,4.1-5.4C2.733-5.267,1.767-5,1.2-4.6
			C0.833-4.367,0.467-3.883,0.1-3.15c-0.267,0.5,0.017,0.983,0.85,1.45C1.117-1.633,1.833-1.35,3.1-0.85
			c0.533,0.233,1.2,0.434,2,0.6C5.933-0.05,6.583,0.033,7.05,0C7.683-0.067,8.9-0.167,10.7-0.3z"/>
	</g>
</symbol>
<symbol  id="FlashAICB_x2F_Layer_61_x2F__x3C_Path_x3E__x5F_3_x5F_0" viewBox="0 -0.912 3.9 0.912">
	<g id="Layer_1_20_">
		<path style="fill-rule:evenodd;clip-rule:evenodd;fill:#1E2B33;" d="M0-0.3C1.267-0.8,2.45-0.7,3.55,0L3.6-0.3l0.3-0.25
			c-0.566-0.2-1-0.3-1.3-0.3L1.35-0.9C0.45-0.967,0-0.767,0-0.3z"/>
	</g>
</symbol>
<symbol  id="FlashAICB_x2F_Layer_61_x2F__x3C_Path_x3E__x5F_3_x5F_1" viewBox="0 -0.65 2.75 0.65">
	<g id="Layer_1_25_">
		<path style="fill-rule:evenodd;clip-rule:evenodd;fill:#1E2B33;" d="M0-0.25C0.933-0.583,1.75-0.5,2.45,0L2.5-0.2l0.25-0.2
			c-0.4-0.133-0.7-0.2-0.9-0.2c-0.2-0.033-0.5-0.05-0.9-0.05C0.317-0.65,0-0.517,0-0.25z"/>
	</g>
</symbol>
<symbol  id="FlashAICB_x2F_Layer_61_x2F__x3C_Path_x3E__x5F_3_x5F_2" viewBox="0 -1.1 4.45 1.1">
	<g id="Layer_1_30_">
		<path style="fill-rule:evenodd;clip-rule:evenodd;fill:#1E2B33;" d="M0-0.35C1.533-0.95,2.883-0.833,4.05,0L4.1-0.3l0.35-0.35
			C3.817-0.883,3.333-1,3-1L1.55-1.1C0.517-1.1,0-0.85,0-0.35z"/>
	</g>
</symbol>
<symbol  id="FlashAICB_x2F_Layer_61_x2F__x3C_Path_x3E__x5F_3_x5F_3" viewBox="0.044 -3.1 13.135 3.1">
	<g id="Layer_1_35_">
		<path style="fill-rule:evenodd;clip-rule:evenodd;fill:#8D8352;" d="M11.85-0.4c0.7,0.167,1.133,0.233,1.3,0.2
			c0.067-0.466,0.017-0.917-0.15-1.35c-0.333,0.2-0.667,0.316-1,0.35c-0.4,0-0.7-0.133-0.9-0.4C11-1.733,10.883-2,10.75-2.4
			c-0.1-0.333-0.217-0.567-0.35-0.7C9.933-2.833,9.583-2.667,9.35-2.6c-0.3,0.133-0.767,0.2-1.4,0.2C6.85-2.267,6.033-2.233,5.5-2.3
			L4.65-2.55h-1c-0.467,0-0.983,0.083-1.55,0.25l-1,0.35C0.8-1.75,0.583-1.633,0.45-1.6l-0.1-0.1c-0.467,0.534-0.4,1.1,0.2,1.7
			c0-0.8,0.2-1.267,0.6-1.4c0.533-0.167,1.467-0.167,2.8,0c0.9,0.167,1.783,0.167,2.65,0l2.3-0.7c0.434-0.133,0.733-0.167,0.9-0.1
			c0.267,0.034,0.434,0.25,0.5,0.65c0.067,0.267,0.233,0.5,0.5,0.7C11.1-0.617,11.45-0.467,11.85-0.4z"/>
	</g>
</symbol>
<symbol  id="FlashAICB_x2F_Layer_61_x2F__x3C_Path_x3E__x5F_4" viewBox="0 -1.312 3.55 1.312">
	<g id="Layer_1_19_">
		<path style="fill-rule:evenodd;clip-rule:evenodd;fill:#1E2B33;" d="M0-1v0.25h0.15C0.217-0.983,0.583-1.067,1.25-1
			c0.8,0,1.283,0.167,1.45,0.5C2.733-0.467,2.783-0.3,2.85,0c0.367-0.233,0.6-0.467,0.7-0.7C2.45-1.4,1.267-1.5,0-1z"/>
	</g>
</symbol>
<symbol  id="FlashAICB_x2F_Layer_61_x2F__x3C_Path_x3E__x5F_46" viewBox="0.225 -15.106 15.175 14.781">
	<g id="Layer_1_6_">
		
			<linearGradient id="SVGID_4_" gradientUnits="userSpaceOnUse" x1="-2318.4541" y1="-3325.5693" x2="-2289.4976" y2="-3325.5693" gradientTransform="matrix(0.9385 -0.3453 0.3453 0.9385 3322.4102 2315.2021)">
			<stop  offset="0" style="stop-color:#B5D9FE"/>
			<stop  offset="1" style="stop-color:#637E9B"/>
		</linearGradient>
		<path style="fill-rule:evenodd;clip-rule:evenodd;fill:url(#SVGID_4_);" d="M15.35-9.05c-0.067-0.534-0.233-1.3-0.5-2.3
			s-0.434-1.75-0.5-2.25c-1.367-0.4-2.367-0.8-3-1.2c-0.3-0.233-0.6-0.333-0.9-0.3c-0.233,0-0.4,0.05-0.5,0.15
			c-0.133,0-0.3,0.067-0.5,0.2c-0.233,0.2-0.4,0.483-0.5,0.85c-0.3,1.033-1.167,2.517-2.6,4.45C5.243-7.953,3.202-4.911,0.225-0.325
			C1.323-1.939,2.231-2.981,2.95-3.45c1.267-0.767,4.433-2.316,9.5-4.65l2.95-0.8L15.35-9.05z"/>
	</g>
</symbol>
<symbol  id="FlashAICB_x2F_Layer_61_x2F__x3C_Path_x3E__x5F_47" viewBox="0 -3.05 8.8 3.05">
	<g id="Layer_1_5_">
		
			<linearGradient id="SVGID_5_" gradientUnits="userSpaceOnUse" x1="-2338.3477" y1="-3320.2974" x2="-2309.3911" y2="-3320.2974" gradientTransform="matrix(0.9385 -0.3453 0.3453 0.9385 3322.4102 2315.2021)">
			<stop  offset="0" style="stop-color:#B5D9FE"/>
			<stop  offset="1" style="stop-color:#637E9B"/>
		</linearGradient>
		<path style="fill-rule:evenodd;clip-rule:evenodd;fill:url(#SVGID_5_);" d="M0-3.05L0.75,0c2.567-0.633,4-0.967,4.3-1
			C5.837-1.117,7.087-0.958,8.8-0.525L0-3.05z"/>
	</g>
</symbol>
<symbol  id="FlashAICB_x2F_Layer_61_x2F__x3C_Path_x3E__x5F_48" viewBox="0.051 -2.964 9.149 2.964">
	<g id="Layer_1_4_">
		
			<linearGradient id="SVGID_6_" gradientUnits="userSpaceOnUse" x1="9791.4121" y1="-19590.457" x2="9797.252" y2="-19590.457" gradientTransform="matrix(-0.8005 -0.5993 0.5993 -0.8005 19584.9941 -9814.9834)">
			<stop  offset="0" style="stop-color:#FFFFFF"/>
			<stop  offset="1" style="stop-color:#000000"/>
		</linearGradient>
		<path style="fill-rule:evenodd;clip-rule:evenodd;fill:url(#SVGID_6_);" d="M7.2,0l2-0.5L8.65-0.75c-0.467-0.2-1.467-0.55-3-1.05
			c-1.867-0.567-3.3-0.917-4.3-1.05C0.317-2.983-0.1-3,0.1-2.9c0.033,0,0.767,0.233,2.2,0.7C3.867-1.733,5.5-1,7.2,0z"/>
	</g>
</symbol>
<symbol  id="FlashAICB_x2F_Layer_61_x2F__x3C_Path_x3E__x5F_49" viewBox="0 -9.514 9.4 9.514">
	<g id="Layer_1_3_">
		
			<linearGradient id="SVGID_7_" gradientUnits="userSpaceOnUse" x1="-2324.0781" y1="-3339.7002" x2="-2317.7344" y2="-3339.7002" gradientTransform="matrix(0.9379 -0.3468 0.3468 0.9379 3338.6802 2322.6934)">
			<stop  offset="0" style="stop-color:#FFFFFF"/>
			<stop  offset="1" style="stop-color:#000000"/>
		</linearGradient>
		<path style="fill-rule:evenodd;clip-rule:evenodd;fill:url(#SVGID_7_);" d="M5.85-9L2.6-4.35C1.433-2.617,0.567-1.167,0,0
			l9.4-4.35L7.8-8.6C7.4-9.667,6.75-9.8,5.85-9z"/>
	</g>
</symbol>
<symbol  id="FlashAICB_x2F_Layer_61_x2F__x3C_Path_x3E__x5F_4_x5F_0" viewBox="0 -0.9 2.45 0.9">
	<g id="Layer_1_24_">
		<path style="fill-rule:evenodd;clip-rule:evenodd;fill:#1E2B33;" d="M0-0.7v0.2h0.1c0.033-0.133,0.283-0.2,0.75-0.2
			c0.133,0,0.333,0.017,0.6,0.05C1.65-0.583,1.8-0.467,1.9-0.3L2,0c0.267-0.133,0.417-0.283,0.45-0.45C1.75-0.95,0.933-1.033,0-0.7z
			"/>
	</g>
</symbol>
<symbol  id="FlashAICB_x2F_Layer_61_x2F__x3C_Path_x3E__x5F_4_x5F_1" viewBox="0 -1.627 4.05 1.627">
	<g id="Layer_1_29_">
		<path style="fill-rule:evenodd;clip-rule:evenodd;fill:#1E2B33;" d="M3.1-0.6L3.25,0c0.4-0.233,0.667-0.533,0.8-0.9
			C2.883-1.733,1.533-1.85,0-1.25L0.05-0.9h0.1c0.067-0.2,0.233-0.317,0.5-0.35c0.033,0,0.3,0,0.8,0c0.6,0.033,0.917,0.067,0.95,0.1
			C2.733-1.083,2.967-0.9,3.1-0.6z"/>
	</g>
</symbol>
<symbol  id="FlashAICB_x2F_Layer_61_x2F__x3C_Path_x3E__x5F_4_x5F_2" viewBox="0.044 -3.1 13.135 3.1">
	<g id="Layer_1_34_">
		<path style="fill-rule:evenodd;clip-rule:evenodd;fill:#C4B981;" d="M11.85-0.4c0.7,0.167,1.133,0.233,1.3,0.2
			c0.067-0.466,0.017-0.917-0.15-1.35c-0.333,0.2-0.667,0.316-1,0.35c-0.4,0-0.7-0.133-0.9-0.4C11-1.733,10.883-2,10.75-2.4
			c-0.1-0.333-0.217-0.567-0.35-0.7C9.933-2.833,9.583-2.667,9.35-2.6c-0.3,0.133-0.767,0.2-1.4,0.2C6.85-2.267,6.033-2.233,5.5-2.3
			L4.65-2.55h-1c-0.467,0-0.983,0.083-1.55,0.25l-1,0.35C0.8-1.75,0.583-1.633,0.45-1.6l-0.1-0.1c-0.467,0.534-0.4,1.1,0.2,1.7
			c0-0.8,0.2-1.267,0.6-1.4c0.533-0.167,1.467-0.167,2.8,0c0.9,0.167,1.783,0.167,2.65,0l2.3-0.7c0.434-0.133,0.733-0.167,0.9-0.1
			c0.267,0.034,0.434,0.25,0.5,0.65c0.067,0.267,0.233,0.5,0.5,0.7C11.1-0.617,11.45-0.467,11.85-0.4z"/>
	</g>
</symbol>
<symbol  id="FlashAICB_x2F_Layer_61_x2F__x3C_Path_x3E__x5F_5" viewBox="0.016 -1.87 3.934 1.87">
	<g id="Layer_1_18_">
		
			<radialGradient id="SVGID_8_" cx="343.187" cy="326.2754" r="1.5263" gradientTransform="matrix(0.9992 0.0409 0.0409 -0.9992 -354.3096 311.0488)" gradientUnits="userSpaceOnUse">
			<stop  offset="0" style="stop-color:#FFFFFF"/>
			<stop  offset="0.9882" style="stop-color:#9FCDE5"/>
		</radialGradient>
		<path style="fill-rule:evenodd;clip-rule:evenodd;fill:url(#SVGID_8_);" d="M3.65-1.25l0.3-0.25c-0.567-0.2-1-0.3-1.3-0.3
			L1.4-1.85C0.333-1.95-0.117-1.667,0.05-1C0.217-0.333,0.867,0,2,0c0.367-0.033,0.717-0.15,1.05-0.35
			C3.417-0.583,3.617-0.883,3.65-1.25z"/>
	</g>
</symbol>
<symbol  id="FlashAICB_x2F_Layer_61_x2F__x3C_Path_x3E__x5F_52" viewBox="0 -11.356 26.79 11.361">
	<g id="Layer_1_2_">
		
			<linearGradient id="SVGID_9_" gradientUnits="userSpaceOnUse" x1="-2322.1113" y1="-3329.3955" x2="-2293.6521" y2="-3329.3955" gradientTransform="matrix(0.9382 -0.3461 0.3461 0.9382 3330.9834 2319.1543)">
			<stop  offset="0" style="stop-color:#CEE6FE"/>
			<stop  offset="1" style="stop-color:#94AAC1"/>
		</linearGradient>
		<path style="fill-rule:evenodd;clip-rule:evenodd;fill:url(#SVGID_9_);" d="M26.75-10.6c-0.3-0.767-1.85-0.95-4.65-0.55
			c-2.833,0.4-6.083,1.283-9.75,2.65C8.65-7.133,5.6-5.7,3.2-4.2C0.8-2.667-0.25-1.517,0.05-0.75C0.317,0.017,1.867,0.2,4.7-0.2
			c2.8-0.4,6.05-1.283,9.75-2.65c3.667-1.333,6.7-2.767,9.1-4.3C25.95-8.683,27.017-9.833,26.75-10.6z"/>
	</g>
</symbol>
<symbol  id="FlashAICB_x2F_Layer_61_x2F__x3C_Path_x3E__x5F_5_x5F_0" viewBox="-0.018 -1.3 2.768 1.3">
	<g id="Layer_1_23_">
		
			<radialGradient id="SVGID_10_" cx="394.2437" cy="373.7881" r="1.0626" gradientTransform="matrix(0.9989 0.047 0.047 -0.9989 -410.0264 354.1953)" gradientUnits="userSpaceOnUse">
			<stop  offset="0" style="stop-color:#FFFFFF"/>
			<stop  offset="0.9882" style="stop-color:#9FCDE5"/>
		</radialGradient>
		<path style="fill-rule:evenodd;clip-rule:evenodd;fill:url(#SVGID_10_);" d="M2.5-0.85l0.25-0.2c-0.4-0.133-0.7-0.2-0.9-0.2
			c-0.2-0.033-0.5-0.05-0.9-0.05C0.217-1.3-0.1-1.1,0-0.7C0.133-0.233,0.583,0,1.35,0C2.117-0.1,2.5-0.383,2.5-0.85z"/>
	</g>
</symbol>
<symbol  id="FlashAICB_x2F_Layer_61_x2F__x3C_Path_x3E__x5F_5_x5F_1" viewBox="0.007 -2.3 4.443 2.307">
	<g id="Layer_1_28_">
		
			<radialGradient id="SVGID_11_" cx="349.8403" cy="331.9561" r="1.724" gradientTransform="matrix(0.9991 0.0417 0.0453 -1.0859 -362.377 344.7656)" gradientUnits="userSpaceOnUse">
			<stop  offset="0" style="stop-color:#FFFFFF"/>
			<stop  offset="0.9882" style="stop-color:#9FCDE5"/>
		</radialGradient>
		<path style="fill-rule:evenodd;clip-rule:evenodd;fill:url(#SVGID_11_);" d="M4.1-1.5l0.35-0.35C3.817-2.083,3.333-2.2,3-2.2
			L1.55-2.3c-1.2,0-1.7,0.367-1.5,1.1c0.1,0.4,0.4,0.717,0.9,0.95C1.35-0.05,1.767,0.033,2.2,0c0.433-0.033,0.833-0.167,1.2-0.4
			C3.833-0.7,4.067-1.067,4.1-1.5z"/>
	</g>
</symbol>
<symbol  id="FlashAICB_x2F_Layer_61_x2F__x3C_Path_x3E__x5F_5_x5F_2" viewBox="0 -2.983 12.6 2.983">
	<g id="Layer_1_33_">
		<path style="fill-rule:evenodd;clip-rule:evenodd;fill:#C4B981;" d="M11.55,0l0.85-0.1c0.133-0.4,0.2-0.683,0.2-0.85
			c-0.167,0.034-0.6-0.033-1.3-0.2c-0.4-0.067-0.75-0.217-1.05-0.45c-0.267-0.2-0.433-0.433-0.5-0.7
			c-0.067-0.4-0.233-0.617-0.5-0.65c-0.167-0.066-0.467-0.033-0.9,0.1l-2.3,0.7c-0.867,0.167-1.75,0.167-2.65,0
			c-1.333-0.167-2.267-0.167-2.8,0C0.2-2.017,0-1.55,0-0.75L0.2-0.6C0.133-1,0.25-1.267,0.55-1.4c0.333-0.2,0.8-0.15,1.4,0.15
			c0.566,0.2,1.45,0.3,2.65,0.3c1.1,0.067,2.05,0.034,2.85-0.1C8.317-1.25,8.867-1.267,9.1-1.1l0.25,0.25
			c0.1,0.067,0.35,0.233,0.75,0.5C10.467-0.117,10.95,0,11.55,0z"/>
	</g>
</symbol>
<symbol  id="FlashAICB_x2F_Layer_61_x2F__x3C_Path_x3E__x5F_6" viewBox="0 -2.664 12.65 2.664">
	<g id="Layer_1_38_">
		<path style="fill-rule:evenodd;clip-rule:evenodd;fill:#6D653F;" d="M10.75-0.4c0.2,0.267,0.5,0.4,0.9,0.4
			c0.333-0.033,0.667-0.15,1-0.35c-0.167-0.566-0.417-1.083-0.75-1.55c-0.3-0.4-0.566-0.633-0.8-0.7c-0.434-0.1-0.8-0.083-1.1,0.05
			c-0.433,0.267-0.867,0.5-1.3,0.7c-0.5,0.233-1.167,0.3-2,0.2c-0.833-0.133-1.383-0.2-1.65-0.2C4.65-1.883,4.333-1.9,4.1-1.9
			c-0.333,0-0.767,0.066-1.3,0.2C1.433-1.4,0.5-1,0-0.5l0.1,0.1c0.133-0.033,0.35-0.15,0.65-0.35l1-0.35
			C2.317-1.267,2.833-1.35,3.3-1.35h1L5.15-1.1C5.683-1.033,6.5-1.067,7.6-1.2c0.633,0,1.1-0.066,1.4-0.2
			c0.233-0.067,0.583-0.233,1.05-0.5c0.133,0.133,0.25,0.367,0.35,0.7C10.533-0.8,10.65-0.533,10.75-0.4z"/>
	</g>
</symbol>
<symbol  id="Symbol_1" viewBox="0 -35.589 37.464 35.588">
	<g id="Layer_1_39_">
		<g>
			<path style="fill-rule:evenodd;clip-rule:evenodd;fill:#BDCEDF;" d="M9.8-15.65l0.9-0.45c0.4-0.2,0.717-0.267,0.95-0.2l-0.4-0.65
				l-0.9-2c-0.066,0.066-0.1,0.35-0.1,0.85c0.1,0.533,0.167,0.9,0.2,1.1c0.066,0.366-0.017,0.533-0.25,0.5
				c-0.2-0.034-0.483-0.35-0.85-0.95L8.9-18.3L9.8-15.65z"/>
			
				<use xlink:href="#FlashAICB_x2F_Layer_61_x2F__x3C_Path_x3E__x5F_52"  width="26.79" height="11.361" x="0" y="-11.356" transform="matrix(1 0 0 1 1.2002 -0.1499)" style="overflow:visible;opacity:0.2617;enable-background:new    ;"/>
			
				<linearGradient id="SVGID_12_" gradientUnits="userSpaceOnUse" x1="12992.4219" y1="2293.6035" x2="12999.8018" y2="2293.6035" gradientTransform="matrix(0.3455 0.9384 -0.9384 0.3455 -2324.249 -13001.3213)">
				<stop  offset="0" style="stop-color:#D1CA29"/>
				<stop  offset="1" style="stop-color:#947B13"/>
			</linearGradient>
			<path style="fill-rule:evenodd;clip-rule:evenodd;fill:url(#SVGID_12_);" d="M11.95-16.2c-0.267-0.133-0.6-0.15-1-0.05
				c-0.4,0.133-0.7,0.333-0.9,0.6c-0.067,0.134-0.2,0.434-0.4,0.9c-0.434,1-1.083,2.116-1.95,3.35L4.9-7.5l21.4-3.9l-11.1-3.3
				c-1.367-0.4-2.217-0.717-2.55-0.95C12.35-15.917,12.117-16.1,11.95-16.2z"/>
			<g>
				<g>
					<path style="fill-rule:evenodd;clip-rule:evenodd;fill:#8CA124;" d="M14.45-12.75c0.667,0.466,1.333,0.7,2,0.7
						c0.7,0,1.033-0.283,1-0.85c-0.066-0.933-0.9-1.566-2.5-1.9c-0.5-0.1-1.083-0.133-1.75-0.1l-0.85,0.05l0.35,0.55
						C13.067-13.8,13.65-13.284,14.45-12.75z"/>
					<path style="fill-rule:evenodd;clip-rule:evenodd;fill:#76881F;" d="M16.95-12.35c0.033-0.067-0.033-0.217-0.2-0.45
						c0.233,0.034,0.35-0.05,0.35-0.25c-0.033-0.1-0.167-0.267-0.4-0.5l-0.3-0.35l-0.05-0.05l0.15,0.35c0,0.133-0.05,0.2-0.15,0.2
						l0.05,0.3L16-13.35c-0.133-0.034-0.2-0.067-0.2-0.1v-0.05l-0.95-0.35h-0.1l-0.05,0.1h-0.05l0.95,0.45h0.3v0.2
						c0.3,0.233,0.466,0.433,0.5,0.6c0.033,0.1,0,0.2-0.1,0.3c-0.067,0.066-0.184,0.1-0.35,0.1c0.3,0.066,0.583,0.066,0.85,0
						l0.05-0.05L16.95-12.35z"/>
					<polygon style="fill-rule:evenodd;clip-rule:evenodd;fill:#76881F;" points="13.9,-14.8 12.55,-14.9 12.35,-14.85 
						12.45,-14.65 12.65,-14.7 					"/>
					<path style="fill-rule:evenodd;clip-rule:evenodd;fill:#76881F;" d="M14.85-12.9h0.3c0.3,0,0.55-0.05,0.75-0.15v-0.25h-0.3
						v0.05l-0.15,0.15C15.323-12.974,15.124-12.907,14.85-12.9z"/>
					<path style="fill-rule:evenodd;clip-rule:evenodd;fill:#76881F;" d="M15.5-14.25l0.15,0.3l0.2,0.3L15.8-13.5v0.05
						c0,0.033,0.066,0.066,0.2,0.1l0.4,0.25l-0.05-0.3l-0.3-0.45c-0.034-0.034-0.167-0.133-0.4-0.3L15.5-14.25z"/>
					<path style="fill-rule:evenodd;clip-rule:evenodd;fill:#76881F;" d="M14.05-14.3l0.3,0.3c0.067,0.066,0.083,0.116,0.05,0.15
						h-0.15l-0.15,0.1h-0.3l0.35,0.05l0.5-0.05h0.05l0.05-0.1L14.3-14.3c-0.2-0.1-0.35-0.15-0.45-0.15H13.8L14.05-14.3z"/>
					<path style="fill-rule:evenodd;clip-rule:evenodd;fill:#515D15;" d="M16.1-14.2l0.3,0.3l0.3,0.35
						c0.233,0.233,0.367,0.4,0.4,0.5c0,0.2-0.117,0.284-0.35,0.25c0.167,0.233,0.233,0.383,0.2,0.45l-0.1,0.2L16.8-12.1
						c0.433-0.1,0.65-0.367,0.65-0.8c-0.066-0.933-0.9-1.566-2.5-1.9c-0.733-0.167-1.533-0.2-2.4-0.1h0.2l1.8,0.2
						c0.767,0.167,1.2,0.283,1.3,0.35L16.1-14.2z"/>
					<path style="fill-rule:evenodd;clip-rule:evenodd;fill:#A8BF2C;" d="M13.95-13.65l-0.15-0.1c-0.133,0-0.167-0.034-0.1-0.1
						c0-0.067,0.066-0.117,0.2-0.15l-0.45-0.1L13-14.3l0.15,0.3l0.55,0.55l1.05,0.7l0.3,0.15l0.2,0.05h0.4L16-12.6
						c0.067-0.067,0.067-0.133,0-0.2h-0.15c-0.133-0.033-0.316-0.017-0.55,0.05h-0.15c-0.167,0-0.284-0.05-0.35-0.15l0.1-0.05
						c0.1-0.066,0.25-0.15,0.45-0.25l-0.2-0.2L13.95-13.65z"/>
					<path style="fill-rule:evenodd;clip-rule:evenodd;fill:#A8BF2C;" d="M15.4-14.05c0.033-0.033,0.066-0.1,0.1-0.2
						c0.134,0,0.284,0.083,0.45,0.25l0.35,0.25l0.05-0.1l-0.6-0.35c-0.333-0.2-0.633-0.316-0.9-0.35c-0.433-0.133-0.75-0.2-0.95-0.2
						l-0.65,0.1c-0.1,0.1-0.133,0.15-0.1,0.15l0.3,0.05h0.4c0.133-0.066,0.233-0.083,0.3-0.05c0.2,0.066,0.316,0.133,0.35,0.2
						l0.1,0.1l0.4,0.1C15.067-14.1,15.2-14.083,15.4-14.05z"/>
				</g>
				<g>
					<path style="fill-rule:evenodd;clip-rule:evenodd;fill:#8CA124;" d="M9-12.75c-0.433,0.7-0.55,1.35-0.35,1.95
						c0.2,0.6,0.65,0.833,1.35,0.7c1.233-0.2,1.85-1.05,1.85-2.55c0-0.733-0.216-1.5-0.65-2.3C10.534-14.75,9.8-14.017,9-12.75z"/>
					<path style="fill-rule:evenodd;clip-rule:evenodd;fill:#76881F;" d="M10.7-10.85l0.4-0.4l-0.4,0.2
						c-0.167,0-0.267-0.017-0.3-0.05v-0.05l-0.35,0.1l0.2-0.4c-0.033-0.066-0.017-0.117,0.05-0.15l0.1-0.05c0-0.3,0.05-0.6,0.15-0.9
						v-0.1L10.4-12.7l-0.05-0.05l-0.1,0.45L10-11.75h0.05c0.033,0,0.05,0.066,0.05,0.2L9.85-11.5c-0.167,0.267-0.383,0.45-0.65,0.55
						c-0.1,0.066-0.233,0.066-0.4,0c-0.131-0.099-0.198-0.198-0.2-0.3c0,0.334,0.067,0.584,0.2,0.75l0.1,0.05l0.25,0.05
						c0.033,0,0.216-0.083,0.55-0.25c0,0.2,0.15,0.267,0.45,0.2C10.25-10.45,10.434-10.583,10.7-10.85z"/>
					<polygon style="fill-rule:evenodd;clip-rule:evenodd;fill:#76881F;" points="10.8,-13.9 10.45,-13 10.45,-12.95 10.65,-13.05 
											"/>
					<polygon style="fill-rule:evenodd;clip-rule:evenodd;fill:#76881F;" points="10.95,-14.85 11.55,-13.6 11.55,-13.95 
						11.3,-14.8 11.2,-14.95 					"/>
					<path style="fill-rule:evenodd;clip-rule:evenodd;fill:#76881F;" d="M9.35-12.25L9.4-12.1c0.1,0.267,0.233,0.483,0.4,0.65
						l0.05-0.05l0.25-0.05c0-0.133-0.017-0.2-0.05-0.2H10L9.95-11.8L9.7-11.85C9.538-11.966,9.421-12.1,9.35-12.25z"/>
					<path style="fill-rule:evenodd;clip-rule:evenodd;fill:#76881F;" d="M10.05-11.05l0.35-0.1l0.55-0.35l0.25-0.4l0.05-0.15
						l-0.65,0.4h-0.2l-0.1,0.05c-0.067,0.033-0.083,0.083-0.05,0.15L10.05-11.05z"/>
					<path style="fill-rule:evenodd;clip-rule:evenodd;fill:#76881F;" d="M10.4-12.7l0.15,0.05L11-13.1
						c0.1-0.233,0.134-0.383,0.1-0.45v-0.05l-0.35,0.45l-0.1,0.1l-0.2,0.1V-13l-0.2-0.2l-0.15-0.3l0.05,0.35l0.2,0.4L10.4-12.7z"/>
					<path style="fill-rule:evenodd;clip-rule:evenodd;fill:#515D15;" d="M10.15-10.45c-0.3,0.066-0.45,0-0.45-0.2
						c-0.333,0.167-0.517,0.25-0.55,0.25L8.9-10.45L8.8-10.5c0.3,0.4,0.7,0.533,1.2,0.4c1.233-0.2,1.85-1.05,1.85-2.55
						c0-0.566-0.183-1.283-0.55-2.15l0.25,0.85l0.05,1c0,0.633-0.033,1.033-0.1,1.2l-0.15,0.25l-0.65,0.65
						C10.434-10.583,10.25-10.45,10.15-10.45z"/>
					<path style="fill-rule:evenodd;clip-rule:evenodd;fill:#A8BF2C;" d="M9.4-12.95c-0.134,0.233-0.233,0.4-0.3,0.5
						c-0.1,0.1-0.15,0.2-0.15,0.3v0.2l0.1,0.35c0.1,0.167,0.167,0.267,0.2,0.3c0.134,0,0.2-0.017,0.2-0.05v-0.15
						c0-0.1-0.066-0.25-0.2-0.45L9.2-12.1c0-0.2,0.017-0.317,0.05-0.35H9.3l0.1,0.1c0.1,0.066,0.25,0.183,0.45,0.35
						c0.067,0,0.133-0.067,0.2-0.2l0.05-0.55c0-0.134-0.017-0.317-0.05-0.55l0.05-0.2l0.15-0.1c0.067,0,0.15,0.05,0.25,0.15
						l0.1-0.85l-0.35,0.2c-0.133,0.1-0.3,0.3-0.5,0.6L9.4-12.95z"/>
					<path style="fill-rule:evenodd;clip-rule:evenodd;fill:#A8BF2C;" d="M10.8-11.25h0.15c0.066-0.134,0.184-0.317,0.35-0.55
						c0.133-0.4,0.2-0.7,0.2-0.9c0-0.5-0.017-0.783-0.05-0.85c-0.066-0.267-0.167-0.45-0.3-0.55c-0.1-0.2-0.184-0.233-0.25-0.1
						l0.2,0.6v0.05c0.067,0.133,0.1,0.217,0.1,0.25l-0.1,0.35l-0.15,0.1v0.4c0,0.2,0.017,0.316,0.05,0.35
						c0.034,0.033,0.117,0.05,0.25,0.05c0.034,0.034-0.017,0.184-0.15,0.45L10.8-11.25z"/>
				</g>
			</g>
			
				<linearGradient id="SVGID_13_" gradientUnits="userSpaceOnUse" x1="16011.2305" y1="-16593.0332" x2="16032.1172" y2="-16593.0332" gradientTransform="matrix(-0.9994 -0.0335 0.0335 -0.9994 16587.127 -16055.9717)">
				<stop  offset="0" style="stop-color:#FCF4AF"/>
				<stop  offset="0" style="stop-color:#FDFE98"/>
				<stop  offset="1" style="stop-color:#A8A050"/>
			</linearGradient>
			<path style="fill-rule:evenodd;clip-rule:evenodd;fill:url(#SVGID_13_);" d="M27.3-10.65c-0.1-0.566-0.983-0.95-2.65-1.15
				c-1.667-0.2-3.733-0.167-6.2,0.1c-0.167,0-0.383-0.217-0.65-0.65c-0.233-0.434-0.45-0.633-0.65-0.6c-0.134,0-0.4,0.267-0.8,0.8
				c-0.4,0.5-0.667,0.767-0.8,0.8c-3.133,0.5-5.784,1.167-7.95,2C5.467-8.517,4.45-7.767,4.55-7.1s1.3,1.083,3.6,1.25
				c2.3,0.133,5.017-0.05,8.15-0.55c3.133-0.466,5.783-1.116,7.95-1.95C26.384-9.184,27.4-9.95,27.3-10.65z"/>
			
				<use xlink:href="#FlashAICB_x2F_Layer_61_x2F__x3C_Path_x3E__x5F_49"  width="9.4" height="9.514" y="-9.514" transform="matrix(1 0 0 1 4.8501 -4.9502)" style="overflow:visible;opacity:0.3594;enable-background:new    ;"/>
			
				<use xlink:href="#FlashAICB_x2F_Layer_61_x2F__x3C_Path_x3E__x5F_48"  width="9.149" height="2.964" x="0.051" y="-2.964" transform="matrix(1 0 0 1 13.0498 -10.8999)" style="overflow:visible;opacity:0.3516;enable-background:new    ;"/>
			
				<use xlink:href="#FlashAICB_x2F_Layer_61_x2F__x3C_Path_x3E__x5F_47"  width="8.8" height="3.05" y="-3.05" transform="matrix(1 0 0 1 18.3999 -10.8501)" style="overflow:visible;opacity:0.2109;enable-background:new    ;"/>
			
				<use xlink:href="#FlashAICB_x2F_Layer_61_x2F__x3C_Path_x3E__x5F_46"  width="15.175" height="14.781" x="0.225" y="-15.106" transform="matrix(1 0 0 1 0.75 -1.1499)" style="overflow:visible;opacity:0.2109;enable-background:new    ;"/>
			<path style="fill-rule:evenodd;clip-rule:evenodd;fill:#BDCEDF;" d="M15.55-2.85c3.633-1.333,6.667-2.767,9.1-4.3
				c2.433-1.533,3.633-2.75,3.6-3.65l-0.9,0.35c0.2,0.733-0.85,1.816-3.15,3.25S19-4.4,15.5-3.1C12-1.833,8.917-0.983,6.25-0.55
				C3.55-0.15,2.034-0.3,1.7-1L0.8-0.65c0.566,0.7,2.267,0.833,5.1,0.4C8.733-0.65,11.95-1.517,15.55-2.85z"/>
			<path style="fill-rule:evenodd;clip-rule:evenodd;fill:#BDCEDF;" d="M25.7-11.45c0.633,0.066,1.283,0.2,1.95,0.4L28-11l0.15-0.05
				l-0.1-0.25l-0.1-0.05c-5.467-1.6-9.117-2.617-10.95-3.05c-2.433-0.6-4.033-1.167-4.8-1.7c-0.5-0.367-0.983-0.45-1.45-0.25
				L10.6-16.3l-0.1,0.05c-0.466,0.167-0.783,0.55-0.95,1.15C9.317-14.167,8.467-12.7,7-10.7C6.267-9.733,5-7.884,3.2-5.15
				c-1.633,2.434-2.483,3.733-2.55,3.9L0.6-1.2l0.1,0.25L0.8-1c0.066,0,0.233-0.167,0.5-0.5l0.1-0.1c0.4-1.067,0.9-1.883,1.5-2.45
				C4.7-6.85,6.15-9,7.25-10.5c1.5-2.067,2.367-3.567,2.6-4.5c0.1-0.333,0.25-0.583,0.45-0.75c0.167-0.134,0.3-0.2,0.4-0.2L10.85-16
				c0.367-0.134,0.767-0.067,1.2,0.2c0.8,0.567,2.433,1.15,4.9,1.75c1,0.2,3.617,0.917,7.85,2.15h-0.05
				C25.083-11.8,25.4-11.65,25.7-11.45z"/>
			<path style="fill-rule:evenodd;clip-rule:evenodd;fill:#BDCEDF;" d="M5.4-4.7L5.05-5.3c-3.333,1.934-4.8,3.4-4.4,4.4
				c0,0.067,0.05,0.15,0.15,0.25L1.7-1L1.65-1.05C1.384-1.917,2.634-3.134,5.4-4.7z"/>
			<path style="fill-rule:evenodd;clip-rule:evenodd;fill:#BDCEDF;" d="M14.75-8.95c0.233-0.2,0.467-0.5,0.7-0.9L13.3-9.1
				c-2.434,0.933-4.667,1.917-6.7,2.95L6.75-6L6.9-5.55c2.033-1.066,4.25-2.033,6.65-2.9L14.7-8.9L14.75-8.95z"/>
			<path style="fill-rule:evenodd;clip-rule:evenodd;fill:#BDCEDF;" d="M27.35-10.45l0.9-0.35l-0.05-0.25
				c-0.233-0.6-1.1-0.9-2.6-0.9c-1.466,0-3.35,0.283-5.65,0.85c0.033,0.066,0.217,0.117,0.55,0.15c0.333,0.033,0.5,0.083,0.5,0.15
				c3.833-0.9,5.95-0.8,6.35,0.3V-10.45z"/>
			<path style="fill-rule:evenodd;clip-rule:evenodd;fill:#FDF8D7;" d="M15-6.05c-0.033-0.133,0.034-0.233,0.2-0.3
				c0.1-0.034,0.2-0.017,0.3,0.05c0.134,0.067,0.15,0.15,0.05,0.25L15.4-6C15.167-6,15.034-6.017,15-6.05z M14.1-5.65
				c-0.066-0.066-0.15-0.133-0.25-0.2c-0.033-0.067,0.017-0.133,0.15-0.2C14.2-6.117,14.317-6.1,14.35-6
				c0.1,0.167,0.083,0.25-0.05,0.25L14.1-5.65z M18.95-6.95c-1.184,0.2-1.9,0.3-2.15,0.3c-2.7,0.434-4.667,0.667-5.9,0.7
				C8.134-5.817,6.167-6.017,5-6.55L5.9-6.1c0.8,0.3,1.683,0.433,2.65,0.4c2.133-0.1,3.7-0.1,4.7,0
				c0.361,0.031,0.645,0.048,0.85,0.05c0.231,0.002,0.365-0.015,0.4-0.05l0.3-0.35l0.1,0.15c0.1,0.067,0.233,0.083,0.4,0.05
				C15.567-5.917,15.767-6,15.9-6.1l0.05-0.25L18.95-6.95z"/>
			<path style="fill-rule:evenodd;clip-rule:evenodd;fill:#FEFCF0;" d="M17.15-7.9h0.9L17.8-8.25c0.066-0.367,0.517-0.767,1.35-1.2
				l2.25-1.1c-0.167-0.167-0.634-0.083-1.4,0.25c-0.9,0.367-1.417,0.583-1.55,0.65c-0.167,0.1-0.383,0.284-0.65,0.55l-0.6,0.6
				C16.934-8.167,16.917-7.967,17.15-7.9z"/>
			<path style="fill-rule:evenodd;clip-rule:evenodd;fill:#FEFCF0;" d="M16.7-7.2c-0.434,0.267-0.75,0.15-0.95-0.35
				c-0.133-0.566,0.117-1.017,0.75-1.35c-0.667,0.2-1.033,0.483-1.1,0.85c-0.1,0.2-0.1,0.434,0,0.7
				c0.066,0.233,0.383,0.383,0.95,0.45L16.7-7.2z"/>
			
				<linearGradient id="SVGID_14_" gradientUnits="userSpaceOnUse" x1="-842.5137" y1="-15353.127" x2="-836.3765" y2="-15353.127" gradientTransform="matrix(0.11 -0.9939 0.9939 0.11 15379.0898 840.7451)">
				<stop  offset="0" style="stop-color:#FBF3D5"/>
				<stop  offset="1" style="stop-color:#BEB170"/>
			</linearGradient>
			<path style="fill-rule:evenodd;clip-rule:evenodd;fill:url(#SVGID_14_);" d="M25.65-10.95c-0.567,0.167-0.583,0.4-0.05,0.7
				c0.534,0.333,1,0.366,1.4,0.1c0.7-0.466,0.934-1.033,0.7-1.7c-0.066-0.233-0.033-0.717,0.1-1.45c0.2-1.233,0.333-2.3,0.4-3.2
				c0.1-1.333-0.2-2.05-0.9-2.15c-0.667-0.066-1.067,0.233-1.2,0.9c-0.1,0.4-0.017,1.25,0.25,2.55c0.3,1.566,0.467,2.533,0.5,2.9
				c0.067,0.667-0.066,1.083-0.4,1.25C26.05-11.017,25.784-10.983,25.65-10.95z"/>
			
				<radialGradient id="SVGID_15_" cx="-557.7363" cy="-632.5854" r="4.3113" gradientTransform="matrix(0.9973 -0.0731 -0.1092 -1.4903 503.5376 -999.0303)" gradientUnits="userSpaceOnUse">
				<stop  offset="0" style="stop-color:#FBF3D5"/>
				<stop  offset="1" style="stop-color:#BEB170"/>
			</radialGradient>
			<path style="fill-rule:evenodd;clip-rule:evenodd;fill:url(#SVGID_15_);" d="M16.25-11.45c0.2-0.2,0.35-0.417,0.45-0.65
				c0.1-0.2,0.2-0.317,0.3-0.35c0.267-0.1,0.9,0.2,1.9,0.9c0.2,0.067,0.233-0.083,0.1-0.45c-0.033-0.2-0.15-0.517-0.35-0.95
				c0-0.033-0.017-0.75-0.05-2.15c-0.033-1.367-0.183-2.483-0.45-3.35c-0.3-1-0.784-1.434-1.45-1.3
				c-0.566,0.133-1.15,0.566-1.75,1.3c-0.4,0.5-0.517,1.316-0.35,2.45c0.067,0.333,0.25,1.066,0.55,2.2
				c0.1,0.367,0.316,0.867,0.65,1.5C15.967-11.967,16.117-11.684,16.25-11.45z"/>
			<path style="fill-rule:evenodd;clip-rule:evenodd;fill:#BDCEDF;" d="M18.325-16.65c0.017,0.354,0.025,0.771,0.025,1.25
				c0,1.534,0.083,2.55,0.25,3.05c0.2,0.633,0.6,1.033,1.2,1.2c0.433,0.134,1.066,0.15,1.9,0.05c1.267-0.133,1.917-0.284,1.95-0.45
				c0.033-0.1-0.117-0.133-0.45-0.1c-0.633,0-1.3,0.017-2,0.05c-1,0-1.684-0.317-2.05-0.95c-0.333-0.566-0.6-1.883-0.8-3.95
				C18.346-16.55,18.337-16.6,18.325-16.65z M16.4-11.05c0-0.933-0.333-1.933-1-3c-1.067-1.7-1.1-3.283-0.1-4.75
				c0.466-0.633,1.033-0.8,1.7-0.5c0.173,0.086,0.331,0.187,0.475,0.3c0.451,0.48,0.734,1.264,0.85,2.35
				c-0.015-0.751-0.057-1.218-0.125-1.4c-0.18-0.383-0.422-0.7-0.725-0.95c-0.242-0.254-0.534-0.421-0.875-0.5
				c-0.867-0.167-1.517,0.133-1.95,0.9c-0.367,0.566-0.517,1.233-0.45,2c0.033,0.8,0.3,1.883,0.8,3.25c0.7,1.9,0.384,3.367-0.95,4.4
				L14.7-8.9C15.867-9.134,16.434-9.85,16.4-11.05z"/>
			<g>
				
					<use xlink:href="#FlashAICB_x2F_Layer_61_x2F__x3C_Path_x3E__x5F_2"  width="3.918" height="14.25" x="0.032" y="-14.25" transform="matrix(1 0 0 1 8.25 -15.7002)" style="overflow:visible;opacity:0.1914;enable-background:new    ;"/>
				<path style="fill-rule:evenodd;clip-rule:evenodd;fill:#BDCEDF;" d="M12.2-16.55c-0.2-0.033-0.483-0.216-0.85-0.55
					c-0.5-0.434-0.883-0.967-1.15-1.6c-0.867-2.333-1.083-4.617-0.65-6.85c0.233-1.2,0.667-2.566,1.3-4.1
					c0-0.267-0.183-0.417-0.55-0.45h-0.1l-0.1,0.15v-0.15H10c-0.333,0.033-0.616,0.167-0.85,0.4c-0.534,1.1-0.934,2.184-1.2,3.25
					c-0.533,1.967-0.533,4.2,0,6.7c0.133,0.566,0.5,1.383,1.1,2.45c0.5,0.967,0.75,1.467,0.75,1.5l0.25,0.25l0.85-0.8l1.35,0.1
					L12.2-16.55z M10.1-16.1c-0.033-0.233-0.483-1.1-1.35-2.6c-0.933-2.167-1.167-4.367-0.7-6.6c0.233-1.233,0.683-2.667,1.35-4.3
					c0.133-0.133,0.316-0.2,0.55-0.2L10-29.85v0.05l0.1-0.05v0.05h0.05c0.167,0,0.316,0.067,0.45,0.2
					c-0.667,1.633-1.117,3.066-1.35,4.3c-0.433,2.233-0.2,4.434,0.7,6.6c0.2,0.467,0.783,1.184,1.75,2.15l-1-0.1L10.1-16.1z"/>
				<path style="fill-rule:evenodd;clip-rule:evenodd;fill:#E6F6F7;" d="M8.5-23.7c0.034-1.133,0.233-2.316,0.6-3.55
					c0.167-0.567,0.317-1.034,0.45-1.4c-0.833,1.434-1.284,3.083-1.35,4.95c-0.066,1.167,0.066,2.333,0.4,3.5
					c0.3,1.033,0.483,1.517,0.55,1.45c0.033,0-0.067-0.483-0.3-1.45C8.583-21.434,8.467-22.6,8.5-23.7z"/>
				
					<use xlink:href="#FlashAICB_x2F_Layer_61_x2F__x3C_Path_x3E_"  width="1.612" height="11.8" x="-0.012" y="-11.8" transform="matrix(1 0 0 1 8.25 -17.7998)" style="overflow:visible;opacity:0.2891;enable-background:new    ;"/>
			</g>
			
				<use xlink:href="#FlashAICB_x2F_Layer_61_x2F__x3C_Path_x3E__x5F_35"  width="17.714" height="6.146" x="0.003" y="-6.139" transform="matrix(1 0 0 1 2.6499 -29.4502)" style="overflow:visible;opacity:0.1992;enable-background:new    ;"/>
			<g>
				
					<use xlink:href="#FlashAICB_x2F_Layer_61_x2F__x3C_Path_x3E__x5F_2_x5F_0"  width="16.618" height="4.76" y="-4.76" transform="matrix(1 0 0 1 2.9502 -30.0996)" style="overflow:visible;opacity:0.2109;enable-background:new    ;"/>
				
					<use xlink:href="#FlashAICB_x2F_Layer_61_x2F__x3C_Path_x3E__x5F_1"  width="17.713" height="4.689" x="-0.012" y="-4.689" transform="matrix(1 0 0 1 2.6499 -30.9004)" style="overflow:visible;opacity:0.2109;enable-background:new    ;"/>
				
					<use xlink:href="#FlashAICB_x2F_Layer_61_x2F__x3C_Path_x3E__x5F_0"  width="17.713" height="4.689" x="-0.012" y="-4.689" transform="matrix(1 0 0 1 2.6499 -30.9004)" style="overflow:visible;opacity:0.4219;enable-background:new    ;"/>
			</g>
			<g>
				<path style="fill-rule:evenodd;clip-rule:evenodd;fill:#BDCEDF;" d="M12.4-29.65c1.333-0.1,2.566-0.25,3.7-0.45
					c-0.867,0-1.983,0.05-3.35,0.15C10.65-29.85,9.4-29.8,9-29.8c-0.8-0.033-1.483-0.133-2.05-0.3c-0.6-0.167-1.85-0.6-3.75-1.3
					c0.233,0.167,1.083,0.534,2.55,1.1c0.534,0.233,1.2,0.434,2,0.6c0.833,0.2,1.483,0.283,1.95,0.25
					C10.167-29.517,11.067-29.583,12.4-29.65z"/>
				<path style="fill-rule:evenodd;clip-rule:evenodd;fill:#DAF1F2;" d="M17.05-33.95l0.25-0.2c0.133-0.133,0.1-0.283-0.1-0.45
					c-0.033-0.067-0.184-0.1-0.45-0.1l-2.35-0.05c0.267,0.066,0.733,0.116,1.4,0.15C16.4-34.534,16.817-34.317,17.05-33.95z"/>
				<path style="fill-rule:evenodd;clip-rule:evenodd;fill:#DAF1F2;" d="M18.1-31.55c0.3,0.167,0.467,0.3,0.5,0.4l0.35,0.2L19.1-31
					c0.1-0.467-0.333-0.817-1.3-1.05c-0.534-0.066-1.05-0.066-1.55,0c0.2,0.167,0.5,0.267,0.9,0.3
					C17.65-31.684,17.967-31.617,18.1-31.55z"/>
				<path style="fill-rule:evenodd;clip-rule:evenodd;fill:#DAF1F2;" d="M4.4-33.65c-0.267,0.2-0.45,0.384-0.55,0.55
					c-0.066,0.1-0.1,0.383-0.1,0.85c0.067-0.2,0.233-0.467,0.5-0.8c0.3-0.367,0.534-0.55,0.7-0.55l0.65-0.2
					C4.934-33.8,4.534-33.75,4.4-33.65z"/>
				<path style="fill-rule:evenodd;clip-rule:evenodd;fill:#DAF1F2;" d="M6.75-33.6c0.167-0.167,0.167-0.317,0-0.45
					c-0.133-0.133-0.3-0.15-0.5-0.05c-0.2,0.033-0.267,0.117-0.2,0.25c0.033,0.167,0.1,0.216,0.2,0.15L6.75-33.6z"/>
				
					<use xlink:href="#FlashAICB_x2F_Layer_61_x2F__x3C_Path_x3E__x5F_3"  width="7.022" height="2.483" x="-0.006" y="-2.479" transform="matrix(1 0 0 1 5.5 -30.1504)" style="overflow:visible;opacity:0.1992;enable-background:new    ;"/>
			</g>
			<path style="fill-rule:evenodd;clip-rule:evenodd;fill:#FEFCF0;" d="M15.9-8.9c0.633-0.133,1.566-0.733,2.8-1.8
				c-0.133-0.167-0.367-0.3-0.7-0.4c-0.2-0.034-0.366-0.233-0.5-0.6c-0.066-0.233-0.183-0.65-0.35-1.25
				c-0.167-0.633-0.65-1.15-1.45-1.55c0.667,1.1,1.117,2.116,1.35,3.05C17.217-10.917,17-10.3,16.4-9.6
				C15.967-9.1,15.8-8.867,15.9-8.9z"/>
			<path style="fill-rule:evenodd;clip-rule:evenodd;fill:#FEFCF0;" d="M15.4-15.45c0.267-0.066,0.583-0.4,0.95-1
				c0.367-0.566,0.567-1.017,0.6-1.35c0-0.367-0.2-0.55-0.6-0.55s-0.716,0.167-0.95,0.5c-0.267,0.367-0.4,0.867-0.4,1.5
				S15.134-15.417,15.4-15.45z"/>
			<path style="fill-rule:evenodd;clip-rule:evenodd;fill:#FEFCF0;" d="M26.95-14.7c0.1-0.8,0.15-1.417,0.15-1.85
				c0-0.233-0.017-0.6-0.05-1.1c0-0.4-0.05-0.566-0.15-0.5c-0.167,0.2-0.317,0.35-0.45,0.45c-0.167,0.1-0.133,0.7,0.1,1.8
				C26.784-14.767,26.917-14.367,26.95-14.7z"/>
			<path style="fill-rule:evenodd;clip-rule:evenodd;fill:#FEFCF0;" d="M25.7-10.55l0.6,0.15c0.433,0,0.7-0.15,0.8-0.45
				c0.167-0.5,0.2-0.8,0.1-0.9C27.1-10.917,26.6-10.517,25.7-10.55z"/>
			<path style="fill-rule:evenodd;clip-rule:evenodd;fill:#BDCEDF;" d="M7.2-6.75c0.033-0.634,0.1-1.134,0.2-1.5
				c0.233-0.9,0-1.534-0.7-1.9c-0.367-0.167-0.767-0.066-1.2,0.3c-0.433,0.367-0.683,0.767-0.75,1.2c-0.033,0.3,0,0.667,0.1,1.1
				C4.95-7.017,5-6.634,5-6.4c0,0.534-0.116,1.15-0.35,1.85l0.6-0.1C5.417-4.65,5.5-5,5.5-5.7c0-0.1-0.066-0.55-0.2-1.35
				c-0.133-0.7-0.167-1.2-0.1-1.5C5.333-8.917,5.567-9.1,5.9-9.1c0.3,0,0.533,0.15,0.7,0.45C6.767-8.317,6.733-7.567,6.5-6.4
				C6.467-6.1,6.517-5.867,6.65-5.7c0.1,0.066,0.183,0.117,0.25,0.15l0.3-0.4V-6.75z"/>
			
				<use xlink:href="#FlashAICB_x2F_Layer_61_x2F__x3C_Path_x3E__x5F_29"  width="1.008" height="3.739" x="-0.008" y="-3.713" transform="matrix(1 0 0 1 5.2998 -5.1499)" style="overflow:visible;opacity:0.2109;enable-background:new    ;"/>
			<path style="fill-rule:evenodd;clip-rule:evenodd;fill:#EFFDFF;" d="M5.95-7.8c0-0.133,0-0.35,0-0.65c0-0.233-0.1-0.367-0.3-0.4
				C5.517-8.85,5.434-8.8,5.4-8.7c0,0.133,0,0.25,0,0.35L5.45-6.9c0.133,0.434,0.2,0.767,0.2,1L5.7-6.35
				C5.867-6.384,5.95-6.867,5.95-7.8z"/>
			<path style="fill-rule:evenodd;clip-rule:evenodd;fill:#BDCEDF;" d="M7.8-19.15l0.65,0.75l0.2,0.4l0.1,0.35L8.9-17.4l0.05-0.8
				c-0.333-1.066-0.633-1.867-0.9-2.4c-0.1-0.267-0.2-0.417-0.3-0.45c-0.033-0.066-0.1-0.1-0.2-0.1s-0.167,0.034-0.2,0.1
				c-0.1,0.1-0.15,0.25-0.15,0.45c0,0.367,0.033,0.6,0.1,0.7C7.367-19.733,7.534-19.483,7.8-19.15z"/>
			<path style="fill-rule:evenodd;clip-rule:evenodd;fill:#BDCEDF;" d="M9.6-29.15l0.35-0.75c0.033-0.1,0.15-0.25,0.35-0.45
				c-0.267-0.034-0.534,0.117-0.8,0.45c-0.2,0.3-0.366,0.434-0.5,0.4c-0.033-0.267,0.017-0.5,0.15-0.7
				c0.075-0.199,0.2-0.316,0.375-0.35c-0.405,0.017-0.68,0.084-0.825,0.2c0,0.033-0.083,0.083-0.25,0.15L8.3-30.05
				c-0.079,0.059-0.179,0.093-0.3,0.1c0.179,0.045,0.346,0.146,0.5,0.3c0.134,0.167,0.2,0.583,0.2,1.25l-0.2,0.35
				c0.267,0.034,0.5-0.1,0.7-0.4C9.3-28.583,9.434-28.817,9.6-29.15z"/>
			<path style="fill-rule:evenodd;clip-rule:evenodd;fill:#BDCEDF;" d="M12.3-30.55h-0.75c0.37,0.007,0.586,0.09,0.65,0.25
				c0.066,0.1-0.05,0.15-0.35,0.15l-0.5-0.05l-0.25-0.05c0.017,0.017,0.034,0.033,0.05,0.05c0.1,0.1,0.083,0.184-0.05,0.25
				c-0.133,0-0.233,0.017-0.3,0.05c-0.133,0-0.2,0.067-0.2,0.2l-0.4,1.6c0,0.433,0.017,0.667,0.05,0.7
				c0.167,0.1,0.35-0.066,0.55-0.5l0.3-0.6c0.1-0.267,0.167-0.417,0.2-0.45c0.2-0.2,0.633-0.383,1.3-0.55
				c0.434-0.067,1.067-0.167,1.9-0.3c-0.2-0.066-0.333-0.133-0.4-0.2c-0.4-0.267-0.716-0.434-0.95-0.5
				C12.983-30.534,12.7-30.55,12.3-30.55z"/>
			<path style="fill-rule:evenodd;clip-rule:evenodd;fill:#DAF1F2;" d="M8.05-31.8c-0.2-0.033-0.65-0.017-1.35,0.05l-0.1,0.1
				c-0.1,0-0.15,0.067-0.15,0.2c-0.033,0.3,0.1,0.517,0.4,0.65C6.75-30.867,6.7-31,6.7-31.2s0.1-0.316,0.3-0.35
				c0.167-0.066,0.434-0.1,0.8-0.1l0.45-0.05C8.217-31.767,8.15-31.8,8.05-31.8z"/>
			<path style="fill-rule:evenodd;clip-rule:evenodd;fill:#BDCEDF;" d="M7.85-26.05l0.2,0.35l0.3-1.85
				c0.1-0.267,0.167-0.417,0.2-0.45l0.3-0.6L8.9-29c0-0.3-0.134-0.534-0.4-0.7l-0.45-0.1H7.7c-0.4,0-0.65-0.017-0.75-0.05l-0.2-0.1
				L6.45-30l-0.4-0.2l-0.6-0.2C5.25-30.5,5.1-30.583,5-30.65c-0.2-0.1-0.35-0.116-0.45-0.05l0.3,0.1l0.25,0.2
				c0.067,0,0.2,0.067,0.4,0.2c0.333,0.167,0.517,0.267,0.55,0.3c0.1,0.034,0.233,0.134,0.4,0.3l0.45,0.2l0.35,0.05l0.45,0.3
				c0.233,0.133,0.35,0.333,0.35,0.6L8-27.8l-0.25,1L7.85-26.05z"/>
			<path style="fill-rule:evenodd;clip-rule:evenodd;fill:#DAF1F2;" d="M7.95-26.6l0.15,0.65c-0.033-0.133,0.017-0.283,0.15-0.45
				l0.25-1.15c0-0.267,0.034-0.45,0.1-0.55C8.867-28.634,9-28.95,9-29.05l-0.2-0.2c-0.067,0-0.117-0.034-0.15-0.1v-0.2
				C8.417-29.384,8.267-29.4,8.2-29.6c0-0.067-0.033-0.117-0.1-0.15L7.75-29.8c-0.333,0-0.6-0.017-0.8-0.05l-0.4-0.1
				c-0.233-0.133-0.417-0.2-0.55-0.2C6.067-30.05,6.134-30,6.2-30l0.3,0.25l0.6,0.3l0.65,0.2l0.45,0.2c0.233,0.3,0.283,0.7,0.15,1.2
				L8-27.15l-0.05,0.3V-26.6z"/>
			
				<use xlink:href="#FlashAICB_x2F_Layer_61_x2F__x3C_Path_x3E__x5F_21"  width="0.567" height="1.15" x="0.033" y="-1.15" transform="matrix(1 0 0 1 9.1001 -28.7998)" style="overflow:visible;opacity:0.4219;enable-background:new    ;"/>
			
				<use xlink:href="#FlashAICB_x2F_Layer_61_x2F__x3C_Path_x3E__x5F_20"  width="0.51" height="0.575" x="0.04" y="-0.6" transform="matrix(1 0 0 1 8.3999 -29.5996)" style="overflow:visible;opacity:0.4219;enable-background:new    ;"/>
			
				<use xlink:href="#FlashAICB_x2F_Layer_61_x2F__x3C_Path_x3E__x5F_19"  width="2.454" height="1.15" x="0.05" y="-1.15" transform="matrix(1 0 0 1 10.9502 -29.2002)" style="overflow:visible;opacity:0.4219;enable-background:new    ;"/>
			<path style="fill-rule:evenodd;clip-rule:evenodd;fill:#DAF1F2;" d="M10.3-27.45h0.05c0.133,0,0.184-0.083,0.15-0.25
				c0-0.1-0.017-0.217-0.05-0.35l0.15-0.8l-0.2,0.3l-0.15,0.45C10.184-27.867,10.2-27.65,10.3-27.45z"/>
			<path style="fill-rule:evenodd;clip-rule:evenodd;fill:#DAF1F2;" d="M10.85-28.6L11-28.8v0.05c0.034-0.134,0.017-0.317-0.05-0.55
				c0-0.133-0.017-0.2-0.05-0.2l-0.15,0.1v0.35c0.067,0.133,0.1,0.217,0.1,0.25V-28.6z"/>
			<path style="fill-rule:evenodd;clip-rule:evenodd;fill:#DAF1F2;" d="M10.5-29.65h0.2c-0.033-0.133-0.217-0.2-0.55-0.2
				c-0.1,0-0.15-0.034-0.15-0.1c-0.033-0.1-0.066-0.167-0.1-0.2c-0.134,0-0.2,0.017-0.2,0.05c-0.066,0.066-0.05,0.133,0.05,0.2
				l0.2,0.1C9.983-29.767,10-29.717,10-29.65c0.034,0.034,0.083,0.067,0.15,0.1C10.384-29.55,10.5-29.583,10.5-29.65z"/>
			<path style="fill-rule:evenodd;clip-rule:evenodd;fill:#DAF1F2;" d="M10.95-29.8l0.25-0.1L11.15-30
				C10.884-30,10.817-29.934,10.95-29.8z"/>
			<path style="fill-rule:evenodd;clip-rule:evenodd;fill:#DAF1F2;" d="M12.15-30.45L14-31.3c-0.3-0.133-0.683-0.133-1.15,0
				c-0.133,0-0.3,0.067-0.5,0.2l-0.3,0.25c-0.067,0.033-0.15,0.033-0.25,0c-0.1-0.034-0.167-0.067-0.2-0.1
				c-0.033-0.066,0-0.2,0.1-0.4l0.2-0.3V-32l0.3-0.3c0.066-0.066,0.3-0.183,0.7-0.35c-0.333,0-0.7,0.134-1.1,0.4
				c-0.2,0.066-0.333,0.267-0.4,0.6c0,0.034-0.083,0.167-0.25,0.4c-0.2,0.2-0.284,0.35-0.25,0.45c0.066,0.333,0.3,0.5,0.7,0.5
				C11.733-30.3,11.917-30.35,12.15-30.45z"/>
			<path style="fill-rule:evenodd;clip-rule:evenodd;fill:#DAF1F2;" d="M12-31.1l0.2-0.1c0.033-0.033,0.05-0.184,0.05-0.45
				c0.03-0.266,0.163-0.466,0.4-0.6c-0.271,0.137-0.42,0.22-0.45,0.25c-0.066,0.066-0.1,0.183-0.1,0.35c0,0.034-0.05,0.134-0.15,0.3
				c-0.033,0.033-0.05,0.083-0.05,0.15C11.934-31.134,11.967-31.1,12-31.1z"/>
			<path style="fill-rule:evenodd;clip-rule:evenodd;fill:#DAF1F2;" d="M13.55-30.55l0.7,0.15c-0.566-0.333-0.9-0.5-1-0.5
				c-0.267,0-0.4,0.017-0.4,0.05c0,0.066,0.1,0.133,0.3,0.2C13.35-30.583,13.483-30.55,13.55-30.55z"/>
			<path style="fill-rule:evenodd;clip-rule:evenodd;fill:#DAF1F2;" d="M10.05-31.4l0.65-0.15c-0.2-0.1-0.367-0.15-0.5-0.15
				l-0.9,0.1c-0.2,0.066-0.35,0.183-0.45,0.35c0.067,0,0.317-0.05,0.75-0.15H10.05z"/>
			<g>
				
					<use xlink:href="#FlashAICB_x2F_Layer_61_x2F__x3C_Path_x3E__x5F_5"  width="3.934" height="1.87" x="0.016" y="-1.87" transform="matrix(1 0 0 1 18.7002 -31.5498)" style="overflow:visible;opacity:0.1992;enable-background:new    ;"/>
				
					<use xlink:href="#FlashAICB_x2F_Layer_61_x2F__x3C_Path_x3E__x5F_4"  width="3.55" height="1.312" y="-1.312" transform="matrix(1 0 0 1 18.75 -31.7998)" style="overflow:visible;opacity:0.2109;enable-background:new    ;"/>
				
					<use xlink:href="#FlashAICB_x2F_Layer_61_x2F__x3C_Path_x3E__x5F_3_x5F_0"  width="3.9" height="0.912" y="-0.912" transform="matrix(1 0 0 1 18.75 -32.5)" style="overflow:visible;opacity:0.2109;enable-background:new    ;"/>
				
					<use xlink:href="#FlashAICB_x2F_Layer_61_x2F__x3C_Path_x3E__x5F_2_x5F_1"  width="3.9" height="0.912" y="-0.912" transform="matrix(1 0 0 1 18.75 -32.5)" style="overflow:visible;opacity:0.4219;enable-background:new    ;"/>
				
					<use xlink:href="#FlashAICB_x2F_Layer_61_x2F__x3C_Compound_Path_x3E_"  width="1.856" height="1.028" y="-1.028" transform="matrix(1 0 0 1 19.1499 -31.6504)" style="overflow:visible;opacity:0.1992;enable-background:new    ;"/>
				<path style="fill-rule:evenodd;clip-rule:evenodd;fill:#DAF1F2;" d="M21.55-31.8L20-31.65c-0.2-0.033-0.383-0.15-0.55-0.35
					l-0.3-0.4l-0.25-0.15h-0.15c0.167,0.667,0.817,1,1.95,1C21.134-31.65,21.417-31.733,21.55-31.8z"/>
				<path style="fill-rule:evenodd;clip-rule:evenodd;fill:#DAF1F2;" d="M19.5-32.4c-0.066,0.134-0.017,0.25,0.15,0.35
					c0.133,0.067,0.25,0.1,0.35,0.1h0.3c0-0.267-0.1-0.434-0.3-0.5C19.7-32.45,19.534-32.434,19.5-32.4z"/>
			</g>
			<g>
				
					<use xlink:href="#FlashAICB_x2F_Layer_61_x2F__x3C_Path_x3E__x5F_5_x5F_0"  width="2.768" height="1.3" x="-0.018" y="-1.3" transform="matrix(1 0 0 1 2 -29)" style="overflow:visible;opacity:0.1992;enable-background:new    ;"/>
				
					<use xlink:href="#FlashAICB_x2F_Layer_61_x2F__x3C_Path_x3E__x5F_4_x5F_0"  width="2.45" height="0.9" y="-0.9" transform="matrix(1 0 0 1 2 -29.2002)" style="overflow:visible;opacity:0.2109;enable-background:new    ;"/>
				
					<use xlink:href="#FlashAICB_x2F_Layer_61_x2F__x3C_Path_x3E__x5F_3_x5F_1"  width="2.75" height="0.65" y="-0.65" transform="matrix(1 0 0 1 2 -29.6504)" style="overflow:visible;opacity:0.2109;enable-background:new    ;"/>
				
					<use xlink:href="#FlashAICB_x2F_Layer_61_x2F__x3C_Path_x3E__x5F_2_x5F_2"  width="2.75" height="0.65" y="-0.65" transform="matrix(1 0 0 1 2 -29.6504)" style="overflow:visible;opacity:0.4219;enable-background:new    ;"/>
				
					<use xlink:href="#FlashAICB_x2F_Layer_61_x2F__x3C_Compound_Path_x3E__x5F_0"  width="1.357" height="0.689" y="-0.738" transform="matrix(1 0 0 1 2.25 -29.0498)" style="overflow:visible;opacity:0.1992;enable-background:new    ;"/>
				<path style="fill-rule:evenodd;clip-rule:evenodd;fill:#DAF1F2;" d="M3.35-29c0.1,0,0.317-0.067,0.65-0.2l-0.55,0.1H2.9
					c-0.134,0-0.267-0.067-0.4-0.2l-0.25-0.3L2.1-29.7H2C2.134-29.233,2.583-29,3.35-29z"/>
				<path style="fill-rule:evenodd;clip-rule:evenodd;fill:#DAF1F2;" d="M2.55-29.55c-0.1,0.167,0.017,0.25,0.35,0.25h0.2
					c0-0.167-0.083-0.267-0.25-0.3C2.717-29.733,2.617-29.717,2.55-29.55z"/>
			</g>
			<g>
				
					<use xlink:href="#FlashAICB_x2F_Layer_61_x2F__x3C_Path_x3E__x5F_5_x5F_1"  width="4.443" height="2.307" x="0.007" y="-2.3" transform="matrix(1 0 0 1 0 -32.8496)" style="overflow:visible;opacity:0.1992;enable-background:new    ;"/>
				
					<use xlink:href="#FlashAICB_x2F_Layer_61_x2F__x3C_Path_x3E__x5F_4_x5F_1"  width="4.05" height="1.627" y="-1.627" transform="matrix(1 0 0 1 0 -33.1504)" style="overflow:visible;opacity:0.2109;enable-background:new    ;"/>
				
					<use xlink:href="#FlashAICB_x2F_Layer_61_x2F__x3C_Path_x3E__x5F_3_x5F_2"  width="4.45" height="1.1" y="-1.1" transform="matrix(1 0 0 1 0 -34.0498)" style="overflow:visible;opacity:0.2109;enable-background:new    ;"/>
				
					<use xlink:href="#FlashAICB_x2F_Layer_61_x2F__x3C_Path_x3E__x5F_2_x5F_3"  width="4.45" height="1.1" y="-1.1" transform="matrix(1 0 0 1 0 -34.0498)" style="overflow:visible;opacity:0.4219;enable-background:new    ;"/>
				
					<use xlink:href="#FlashAICB_x2F_Layer_61_x2F__x3C_Compound_Path_x3E__x5F_1"  width="2.155" height="1.17" y="-1.203" transform="matrix(1 0 0 1 0.4502 -32.9502)" style="overflow:visible;opacity:0.1992;enable-background:new    ;"/>
				<path style="fill-rule:evenodd;clip-rule:evenodd;fill:#DAF1F2;" d="M1.45-33c-0.233-0.034-0.434-0.15-0.6-0.35l-0.4-0.55
					l-0.3-0.15h-0.1c0.1,0.4,0.4,0.717,0.9,0.95c0.4,0.2,0.816,0.283,1.25,0.25c0.233,0,0.583-0.1,1.05-0.3l-0.9,0.1
					C1.95-32.983,1.65-32.967,1.45-33z"/>
				<path style="fill-rule:evenodd;clip-rule:evenodd;fill:#DAF1F2;" d="M0.9-33.85c-0.1,0.167-0.05,0.3,0.15,0.4
					c0.133,0.066,0.267,0.1,0.4,0.1H1.8c0-0.333-0.117-0.517-0.35-0.55C1.117-34,0.934-33.983,0.9-33.85z"/>
			</g>
			<path style="fill-rule:evenodd;clip-rule:evenodd;fill:#FDF9DF;" d="M19.9-8.75l1.3,1.2l2.85,1.5c2.267,0.9,4.367,1.067,6.3,0.5
				c2-0.633,2.85-1.85,2.55-3.65c-0.267-1.6-0.817-2.5-1.65-2.7c-0.433-0.1-0.8-0.083-1.1,0.05c-0.434,0.267-0.867,0.5-1.3,0.7
				c-0.5,0.233-1.167,0.3-2,0.2c-0.833-0.133-1.383-0.2-1.65-0.2c-0.4-0.033-0.717-0.05-0.95-0.05c-0.333,0-0.767,0.066-1.3,0.2
				C20.55-10.4,19.534-9.65,19.9-8.75z"/>
			<g>
				<path style="fill-rule:evenodd;clip-rule:evenodd;fill:#FEFCF0;" d="M21.85-7.1l0.55,0.3c-0.367-0.433-0.567-0.7-0.6-0.8
					L21.85-7.1z"/>
				<path style="fill-rule:evenodd;clip-rule:evenodd;fill:#E3DDB9;" d="M21.7-9.8c-0.333,0.7-0.3,1.434,0.1,2.2
					c0.033,0.1,0.233,0.367,0.6,0.8c0.7,0.4,1.383,0.717,2.05,0.95L24-6.55c-0.767-1.267-0.417-2.8,1.05-4.6
					c-0.367-0.033-0.65-0.05-0.85-0.05c-0.333,0-0.75,0.066-1.25,0.2l-0.65,0.15l-0.05,0.1l-0.1,0.1
					C21.884-10.217,21.733-9.934,21.7-9.8z"/>
				<path style="fill-rule:evenodd;clip-rule:evenodd;fill:#E3DDB9;" d="M30.35-5.55l0.95-0.4L30.5-6.3
					c-1.466-0.6-1.95-2.25-1.45-4.95l-0.2,0.1c-0.466,0.233-1.083,0.317-1.85,0.25c-0.4,0.6-0.65,1.317-0.75,2.15
					c-0.1,1.433,0.517,2.6,1.85,3.5C28.867-5.25,29.617-5.35,30.35-5.55z"/>
			</g>
			<g>
				
					<use xlink:href="#FlashAICB_x2F_Layer_61_x2F__x3C_Path_x3E__x5F_5_x5F_2"  width="12.6" height="2.983" y="-2.983" transform="matrix(1 0 0 1 20.3501 -7.3501)" style="overflow:visible;opacity:0.3789;enable-background:new    ;"/>
				
					<use xlink:href="#FlashAICB_x2F_Layer_61_x2F__x3C_Path_x3E__x5F_4_x5F_2"  width="13.135" height="3.1" x="0.044" y="-3.1" transform="matrix(1 0 0 1 19.7998 -8.1001)" style="overflow:visible;opacity:0.3789;enable-background:new    ;"/>
				
					<use xlink:href="#FlashAICB_x2F_Layer_61_x2F__x3C_Path_x3E__x5F_3_x5F_3"  width="13.135" height="3.1" x="0.044" y="-3.1" transform="matrix(1 0 0 1 19.7998 -8.1001)" style="overflow:visible;opacity:0.4414;enable-background:new    ;"/>
				
					<use xlink:href="#FlashAICB_x2F_Layer_61_x2F__x3C_Path_x3E__x5F_2_x5F_4"  width="12.65" height="2.664" y="-2.664" transform="matrix(1 0 0 1 20.1499 -9.2998)" style="overflow:visible;opacity:0.3789;enable-background:new    ;"/>
				
					<use xlink:href="#FlashAICB_x2F_Layer_61_x2F__x3C_Path_x3E__x5F_1_x5F_0"  width="12.65" height="2.664" y="-2.664" transform="matrix(1 0 0 1 20.1499 -9.2998)" style="overflow:visible;opacity:0.4414;enable-background:new    ;"/>
				
					<use xlink:href="#FlashAICB_x2F_Layer_61_x2F__x3C_Path_x3E__x5F_6"  width="12.65" height="2.664" y="-2.664" transform="matrix(1 0 0 1 20.1499 -9.2998)" style="overflow:visible;opacity:0.4688;enable-background:new    ;"/>
			</g>
			<path style="fill-rule:evenodd;clip-rule:evenodd;fill:#658711;" d="M33.8-14.35v1.3c0,0.5-0.233,1.083-0.7,1.75l-0.75,0.85
				l0.1-0.35c0.033-0.2-0.217-1.4-0.75-3.6c-0.066-0.366-0.017-0.667,0.15-0.9c0.1-0.167,0.3-0.5,0.6-1
				c0.167-0.333,0.383-0.683,0.65-1.05c0.2-0.3,0.333-0.55,0.4-0.75c0.1-0.434-0.017-0.917-0.35-1.45l0.05-0.8l-0.15-1.7
				c-0.067-0.133-0.184-0.183-0.35-0.15c-0.133,0.033-0.233,0.133-0.3,0.3c0.133-0.833,0.066-1.3-0.2-1.4
				c-0.167-0.033-0.367,0.05-0.6,0.25c-0.2,0.2-0.333,0.383-0.4,0.55c-0.066,0.3-0.117,0.517-0.15,0.65
				C31.017-21.917,31-22.134,31-22.5c0.034-0.333-0.033-0.517-0.2-0.55c-0.3-0.1-0.517,0.284-0.65,1.15c0.033-0.267,0-0.5-0.1-0.7
				c-0.133-0.233-0.333-0.333-0.6-0.3c-0.333,0.034-0.533,0.25-0.6,0.65c0.034,0.466,0.034,0.8,0,1
				c-0.233-0.167-0.483-0.233-0.75-0.2c-0.033,0.4,0.15,0.9,0.55,1.5c-0.067,0.033-0.267,0.05-0.6,0.05
				c-0.333-0.033-0.534,0-0.6,0.1c0.033,0.034,0.333,0.2,0.9,0.5c0.367,0.2,0.617,0.4,0.75,0.6l0.15,0.15l0.1,0.15l-0.4-0.05
				c-0.2-0.033-0.233,0.2-0.1,0.7c0.133,0.466,0.333,0.9,0.6,1.3c0.133,0.2,0.367,0.483,0.7,0.85c0.3,0.4,0.5,0.883,0.6,1.45
				c0.3,1.7,0.367,2.733,0.2,3.1c-0.133,0.267-0.217,0.6-0.25,1c-0.033,0.434,0.017,0.75,0.15,0.95c0.667,0.767,1.25,0.933,1.75,0.5
				l0.95-0.6c0.667-0.434,1.1-0.8,1.3-1.1c0.267-0.367,0.633-1.383,1.1-3.05c0.3-0.034,0.65-0.167,1.05-0.4
				c0.333-0.267,0.45-0.534,0.35-0.8c-0.033-0.1-0.233-0.183-0.6-0.25c0.1-0.233,0.3-0.533,0.6-0.9
				c0.133-0.267,0.15-0.483,0.05-0.65c-0.034-0.1-0.184-0.133-0.45-0.1c-0.233,0.033-0.4,0.083-0.5,0.15
				c0.333-0.3,0.583-0.65,0.75-1.05c0.033-0.034,0.066-0.15,0.1-0.35c0.033-0.233,0.033-0.367,0-0.4
				c-0.133-0.167-0.35-0.184-0.65-0.05c-0.233,0.134-0.417,0.284-0.55,0.45c0-0.1,0.034-0.417,0.1-0.95
				c0.033-0.466-0.05-0.683-0.25-0.65c-0.267,0.034-0.4,0.333-0.4,0.9c-0.1-1.033-0.35-1.433-0.75-1.2
				c-0.1,0.066-0.15,0.483-0.15,1.25l0.05,0.825c-0.018-0.126-0.051-0.251-0.1-0.375c-0.1-0.233-0.216-0.316-0.35-0.25
				c-0.133,0.034-0.183,0.267-0.15,0.7l0.05,0.9c-0.434-0.433-0.717-0.517-0.85-0.25c-0.034,0.1,0.133,0.284,0.5,0.55l-0.25-0.05
				C33.417-15.534,33.5-14.884,33.8-14.35z"/>
			<path style="fill-rule:evenodd;clip-rule:evenodd;fill:#658711;" d="M21.85-34.65c-0.933,0-1.6,0.2-2,0.6
				c1.034,0.167,1.617,0.284,1.75,0.35l1.3,0.65c0.1,0.034,0.3,0.167,0.6,0.4c-0.966,0.333-1.533,0.8-1.7,1.4
				c-0.133,0.5-0.083,0.883,0.15,1.15c0.2,0.267,0.417,0.383,0.65,0.35L23.35-30c0.034,0,0.517-0.217,1.45-0.65
				c0.566-0.233,1.066-0.383,1.5-0.45c0.767-0.133,1.4-0.133,1.9,0l1.15,0.4c-0.066-0.2-0.233-0.434-0.5-0.7
				c-0.3-0.3-0.517-0.5-0.65-0.6c-0.367-0.367-0.917-0.634-1.65-0.8l-1-0.15l0.15-0.2v-0.4c-0.033-0.4-0.417-0.716-1.15-0.95
				C23.817-34.667,22.917-34.717,21.85-34.65z"/>
			<path style="fill-rule:evenodd;clip-rule:evenodd;fill:#658711;" d="M8.6-7c0.3,0.466,0.684,0.683,1.15,0.65
				c1.333-0.167,2.434-0.767,3.3-1.8l-1.2,0.1c-0.167,0-0.383-0.15-0.65-0.45c-0.367-0.434-0.684-0.733-0.95-0.9
				C9.95-9.6,9.667-9.65,9.4-9.55L9.1-10.2c-0.133-0.3-0.3-0.434-0.5-0.4c-0.167,0-0.283,0.066-0.35,0.2
				c-0.1,0.134-0.083,0.25,0.05,0.35S8.6-9.833,8.8-9.7C8.867-9.634,8.934-9.517,9-9.35c-0.267,0.267-0.483,0.6-0.65,1
				S8.267-7.5,8.6-7z"/>
			<g>
				<polygon style="fill-rule:evenodd;clip-rule:evenodd;fill:#5C7A0F;" points="32.4,-19.95 32.25,-20.25 32.2,-20.25 32.15,-19.8 
									"/>
				<path style="fill-rule:evenodd;clip-rule:evenodd;fill:#5C7A0F;" d="M28-19.9v0.4l0.65,0.4c-0.134-0.3-0.167-0.5-0.1-0.6
					l0.1-0.05c0.1-0.267,0.283-0.45,0.55-0.55c0.233-0.033,0.417,0.133,0.55,0.5l0.1,0.2c0.167-0.4,0.267-0.617,0.3-0.65
					c-0.233,0-0.367,0.017-0.4,0.05c-0.033-0.2,0.067-0.333,0.3-0.4c0.233-0.067,0.45-0.05,0.65,0.05l-0.05-0.3
					c0.066-0.133,0.167-0.167,0.3-0.1c0.1,0.1,0.184,0.217,0.25,0.35v-0.05l0.05-0.1L31.7-21l0.05-0.2
					c-0.033-0.133-0.183-0.2-0.45-0.2c0.233-0.233,0.267-0.4,0.1-0.5v-0.05l-0.2-0.1L31.05-22v0.15L31-22
					c-0.133,0.033-0.2,0.183-0.2,0.45l0.3,0.05c0.067,0.167,0.05,0.35-0.05,0.55l-0.5-0.45l0.15-0.15l-0.2-0.1l-0.1,0.25l0.05-0.3
					c-0.2-0.033-0.35,0-0.45,0.1l0.45,0.25v0.15c-0.267,0.033-0.483,0.05-0.65,0.05c-0.267,0-0.367-0.1-0.3-0.3v-0.05
					c-0.267-0.067-0.35,0.116-0.25,0.55c-0.1,0.033-0.167,0.133-0.2,0.3c0,0.2-0.017,0.317-0.05,0.35c-0.433-0.2-0.667-0.3-0.7-0.3
					h-0.05l0.4,0.65C28.617-19.917,28.4-19.9,28-19.9z"/>
				<path style="fill-rule:evenodd;clip-rule:evenodd;fill:#5C7A0F;" d="M31.45-11.3l0.1-0.5l-0.05-0.35v0.55
					c-0.1,0.4-0.3,0.6-0.6,0.6c-0.2,0.433-0.267,0.883-0.2,1.35v0.05c0.2-0.167,0.333-0.417,0.4-0.75L31.45-11.3z"/>
				<path style="fill-rule:evenodd;clip-rule:evenodd;fill:#5C7A0F;" d="M32.35-9.55l0.35-0.7l-0.05-0.1
					c-0.2,0.2-0.367,0.333-0.5,0.4c-0.134,0.3-0.333,0.55-0.6,0.75l-0.2,0.1h0.1l0.05-0.05h0.45L32.35-9.55z"/>
				<path style="fill-rule:evenodd;clip-rule:evenodd;fill:#5C7A0F;" d="M31.3-15.8v-1.35c-0.267,0.667-0.367,1.2-0.3,1.6
					c0.034,0.4,0.117,0.767,0.25,1.1v-0.2C31.25-15.35,31.267-15.733,31.3-15.8z"/>
				<path style="fill-rule:evenodd;clip-rule:evenodd;fill:#5C7A0F;" d="M31.95-17.95l-0.45,0.4c0.233,0.333,0.384,0.567,0.45,0.7
					c0.1,0,0.184-0.034,0.25-0.1c0.133-0.267,0.2-0.467,0.2-0.6c0.066-0.1,0.066-0.2,0-0.3c0.066-0.1,0.133-0.15,0.2-0.15v-0.9
					l-0.1,0.25v0.05c-0.033,0.3-0.083,0.533-0.15,0.7c-0.1,0.3-0.216,0.317-0.35,0.05L31.95-17.95z"/>
				<path style="fill-rule:evenodd;clip-rule:evenodd;fill:#5C7A0F;" d="M34.35-17.1c-0.066-0.034-0.133,0-0.2,0.1v0.2l0.3,0.05
					L34.35-17.1z"/>
				<path style="fill-rule:evenodd;clip-rule:evenodd;fill:#5C7A0F;" d="M32.45-8.9c0.5-0.233,1.083-0.716,1.75-1.45
					c0.467-0.4,0.783-0.917,0.95-1.55c0.133-0.4,0.2-0.7,0.2-0.9v-1.1c0.133-0.033,0.267,0.034,0.4,0.2
					c0.034-0.066,0.05-0.25,0.05-0.55c0.1-0.034,0.233-0.067,0.4-0.1c0.133-0.034,0.233-0.117,0.3-0.25l0.05-0.15l-0.2-0.15
					l0.05-0.125c-0.042,0.083-0.108,0.125-0.2,0.125l-0.1-0.3c0.133-0.133,0.25-0.2,0.35-0.2v0.15l0.1-0.35l-0.35,0.05
					c0.167-0.048,0.25-0.198,0.25-0.45c-0.033-0.1-0.1-0.15-0.2-0.15v0.2l-0.2,0.3L35.7-16l-0.05-0.55
					c-0.134,0.034-0.217,0.05-0.25,0.05c-0.1,0-0.167-0.034-0.2-0.1c-0.1-0.133-0.066-0.25,0.1-0.35c0.1-0.1,0.216-0.133,0.35-0.1
					l0.2,0.2l0.25,0.05l0.1,0.2c0.2-0.333,0.233-0.567,0.1-0.7c-0.067-0.066-0.167-0.1-0.3-0.1c-0.164,0.033-0.247,0.1-0.25,0.2
					c0-0.4-0.067-0.617-0.2-0.65v0.4l-0.3-0.05l-0.05,0.15l-0.15-0.15l-0.2-0.05l0.05-0.2l-0.1-0.05l-0.15,0.6
					c0.133,0.133,0.2,0.25,0.2,0.35l-0.1,0.25l-0.2-0.05v0.1c-0.067-0.1-0.2-0.133-0.4-0.1v0.1L34.1-16.6l-0.45,0.25l0.15,0.1
					l-0.2-0.05l-0.05,0.05c-0.055,0.246-0.063,0.512-0.025,0.8c-0.046-0.417,0.063-0.566,0.325-0.45L34-15.75l0.2,0.1l0.1-0.1
					c0-0.4,0.133-0.583,0.4-0.55c0.233,0.067,0.35,0.267,0.35,0.6c0.001-0.1,0.119-0.15,0.35-0.15v0.4l-0.05,0.25v0.2l0.45-0.15
					c0,0.434-0.184,0.717-0.55,0.85l-0.35,1.2c-0.134,0.4-0.184,0.65-0.15,0.75c0.1-0.267,0.184-0.434,0.25-0.5
					c0.167,1.033-0.417,2.1-1.75,3.2c-0.267,0.2-0.7,0.367-1.3,0.5H31.5C31.634-8.917,31.95-8.833,32.45-8.9z"/>
				<path style="fill-rule:evenodd;clip-rule:evenodd;fill:#5C7A0F;" d="M32.65-10.35l0.15-0.6l-0.35,0.4l-0.3,0.6
					C32.284-10.017,32.45-10.15,32.65-10.35z"/>
				<path style="fill-rule:evenodd;clip-rule:evenodd;fill:#4B640B;" d="M31-9.6c0.167-0.1,0.3-0.333,0.4-0.7
					c0.133-0.3,0.2-0.667,0.2-1.1l-0.05-0.4l-0.1,0.5l-0.35,0.95c-0.066,0.333-0.2,0.583-0.4,0.75C30.767-9.567,30.867-9.567,31-9.6
					z"/>
				<path style="fill-rule:evenodd;clip-rule:evenodd;fill:#4B640B;" d="M31.45-22.15L31.4-21.9c0.167,0.1,0.133,0.267-0.1,0.5
					c0.267,0,0.417,0.067,0.45,0.2L31.7-21c0.167-0.067,0.3-0.05,0.4,0.05c0.133,0.1,0.167,0.333,0.1,0.7h0.05l0.15,0.3
					c0.333-0.066,0.466,0.083,0.4,0.45c0,0.133-0.067,0.333-0.2,0.6v0.9h0.05c0.2-0.233,0.267-0.733,0.2-1.5
					c0-0.167,0.017-0.384,0.05-0.65c-0.034-0.133-0.117-0.25-0.25-0.35c-0.12-0.149-0.194-0.166-0.225-0.05
					c0.078-0.339,0.052-0.572-0.075-0.7c-0.1-0.1-0.183-0.1-0.25,0C32.1-21.85,31.884-22.15,31.45-22.15z"/>
				<polygon style="fill-rule:evenodd;clip-rule:evenodd;fill:#4B640B;" points="32.25,-15.95 32.05,-15.75 32.1,-15.7 				"/>
				<path style="fill-rule:evenodd;clip-rule:evenodd;fill:#4B640B;" d="M28.25-20.6h0.05c0.033,0,0.267,0.1,0.7,0.3
					c0.034-0.033,0.05-0.15,0.05-0.35c0.033-0.167,0.1-0.267,0.2-0.3c-0.1-0.434-0.017-0.617,0.25-0.55l0.2-0.1
					c-0.1-0.167-0.233-0.25-0.4-0.25c-0.133,0-0.284,0.15-0.45,0.45v0.15H28.8c-0.2,0.3-0.267,0.533-0.2,0.7
					c-0.1-0.233-0.267-0.45-0.5-0.65L28.25-20.6z"/>
				<path style="fill-rule:evenodd;clip-rule:evenodd;fill:#4B640B;" d="M31.75-16.9c0.1,0.067,0.167,0.083,0.2,0.05
					c-0.066-0.133-0.217-0.367-0.45-0.7l-0.2-0.05v1.75L31.5-16v-0.25L31.55-16l0.2-0.05C31.817-16.317,31.817-16.6,31.75-16.9z"/>
				<path style="fill-rule:evenodd;clip-rule:evenodd;fill:#4B640B;" d="M28-19.5v-0.4c-0.233-0.066-0.417-0.033-0.55,0.1L28-19.5z"
					/>
				<path style="fill-rule:evenodd;clip-rule:evenodd;fill:#4B640B;" d="M30.3-21.85c-0.1-0.067-0.217-0.067-0.35,0
					c-0.1,0.033-0.167,0.117-0.2,0.25H30c0.1-0.1,0.25-0.133,0.45-0.1L30.3-21.85z"/>
				<path style="fill-rule:evenodd;clip-rule:evenodd;fill:#4B640B;" d="M30.8-21.55c0-0.267,0.066-0.417,0.2-0.45v-0.15
					c-0.267,0-0.433,0.167-0.5,0.5l0.2,0.1H30.8z"/>
				<path style="fill-rule:evenodd;clip-rule:evenodd;fill:#4B640B;" d="M33.3-16.8c-0.067,0.1,0.05,0.25,0.35,0.45l0.45-0.25
					C33.634-16.934,33.367-17,33.3-16.8z"/>
				<polygon style="fill-rule:evenodd;clip-rule:evenodd;fill:#4B640B;" points="35.2,-17.35 35.25,-17.5 35.05,-17.5 				"/>
				<path style="fill-rule:evenodd;clip-rule:evenodd;fill:#4B640B;" d="M34.55-16.65l-0.1-0.1l-0.3-0.05v0.15
					c0.2-0.033,0.333,0,0.4,0.1V-16.65z"/>
				<path style="fill-rule:evenodd;clip-rule:evenodd;fill:#4B640B;" d="M34.35-17.2l-0.25-0.25L34.15-17
					c0.066-0.1,0.133-0.134,0.2-0.1V-17.2z"/>
				<path style="fill-rule:evenodd;clip-rule:evenodd;fill:#4B640B;" d="M36.65-15.65c-0.2,0.034-0.25-0.05-0.15-0.25l0.25-0.4
					l-0.05-0.1l-0.25,0.1l0.15-0.15c-0.133-0.066-0.183-0.167-0.15-0.3c0.066-0.1,0.233-0.317,0.5-0.65
					c0.267-0.366,0.333-0.616,0.2-0.75L37.1-18.2c-0.367-0.066-0.7,0.1-1,0.5l0.05-0.15c-0.134-0.333-0.233-0.55-0.3-0.65
					c-0.133,0.1-0.2,0.267-0.2,0.5c-0.1-0.3-0.217-0.483-0.35-0.55c-0.267-0.133-0.367,0-0.3,0.4c-0.167-0.3-0.283-0.466-0.35-0.5
					l0.05,1.1c-0.03-0.23-0.113-0.413-0.25-0.55l-0.05,0.9h0.25l0.15-0.6l0.1,0.05c0.133-0.2,0.283-0.267,0.45-0.2l0.2,0.1
					c0.133,0.033,0.199,0.25,0.2,0.65c0.003-0.101,0.086-0.167,0.25-0.2c0.134,0,0.233,0.034,0.3,0.1c0.133,0.133,0.1,0.367-0.1,0.7
					l0.05,0.45c0.1,0,0.167,0.05,0.2,0.15c0,0.252-0.083,0.402-0.25,0.45l0.35-0.05l-0.1,0.35l-0.05,0.1
					C36.567-15.417,36.65-15.583,36.65-15.65z"/>
				<path style="fill-rule:evenodd;clip-rule:evenodd;fill:#4B640B;" d="M34.85-10.45l0.3-0.4c0.133-0.267,0.3-0.767,0.5-1.5
					c0.133-0.534,0.183-0.934,0.15-1.2c0.1-0.066,0.3-0.1,0.6-0.1c0.033,0,0.267-0.133,0.7-0.4c-0.033-0.133-0.183-0.233-0.45-0.3
					c0.066-0.2,0.033-0.333-0.1-0.4L36.5-14.6c-0.066,0.133-0.167,0.216-0.3,0.25c-0.167,0.033-0.3,0.066-0.4,0.1
					c0,0.3-0.017,0.483-0.05,0.55c-0.133-0.167-0.267-0.233-0.4-0.2v1.1c0,0.2-0.066,0.5-0.2,0.9c-0.167,0.634-0.483,1.15-0.95,1.55
					c-0.667,0.733-1.25,1.216-1.75,1.45l0.85-0.25C34.034-9.684,34.55-10.117,34.85-10.45z"/>
				<polygon style="fill-rule:evenodd;clip-rule:evenodd;fill:#4B640B;" points="31.2,-8.95 31.15,-9 31,-8.95 31.1,-8.85 				"/>
				<path style="fill-rule:evenodd;clip-rule:evenodd;fill:#4B640B;" d="M30.6-18.8l0.25,0.9c0.2-0.4,0.267-0.966,0.2-1.7v-0.15
					c-0.1-0.1-0.25-0.233-0.45-0.4c0.133-0.033,0.167-0.15,0.1-0.35v-0.05c-0.2-0.1-0.417-0.117-0.65-0.05
					c-0.233,0.066-0.333,0.2-0.3,0.4c0.034-0.033,0.167-0.05,0.4-0.05c0.2,0.133,0.333,0.25,0.4,0.35
					C30.583-19.833,30.6-19.467,30.6-18.8z"/>
				<path style="fill-rule:evenodd;clip-rule:evenodd;fill:#4B640B;" d="M31.6-11.4l-0.05-1.85c0-1.067,0.017-1.667,0.05-1.8
					l-0.1,0.2l0.05-0.35L31.5-16l-0.2,0.15v0.05c-0.034,0.067-0.05,0.45-0.05,1.15v0.2L31.6-11.4z"/>
				<polygon style="fill-rule:evenodd;clip-rule:evenodd;fill:#4B640B;" points="31.55,-16 31.7,-15.85 31.75,-16.05 				"/>
				<polygon style="fill-rule:evenodd;clip-rule:evenodd;fill:#4B640B;" points="32.05,-15.75 31.9,-15.55 31.95,-15.5 32.1,-15.7 
									"/>
				<path style="fill-rule:evenodd;clip-rule:evenodd;fill:#3A4D07;" d="M32.45-10.55l-0.1,0.1l0.1-0.35l-0.2-1l-0.15-0.25h0.1
					c-0.3-1.3-0.467-2.083-0.5-2.35c-0.066-0.4,0.017-0.767,0.25-1.1l-0.05-0.05c-0.134,0.133-0.233,0.3-0.3,0.5
					c-0.033,0.133-0.05,0.733-0.05,1.8l0.05,1.85c0,0.434-0.066,0.8-0.2,1.1c-0.1,0.367-0.233,0.6-0.4,0.7
					c-0.133,0.033-0.233,0.033-0.3,0c0.006,0.24,0.057,0.406,0.15,0.5L31-8.95L31.15-9l0.4-0.2c0.267-0.2,0.466-0.45,0.6-0.75
					L32.45-10.55z"/>
				<path style="fill-rule:evenodd;clip-rule:evenodd;fill:#3A4D07;" d="M33.3-9.15L32.45-8.9c-0.5,0.067-0.816-0.017-0.95-0.25
					L31.45-9.1L31.2-8.95l-0.1,0.1c0.6,0.5,1.1,0.583,1.5,0.25l0.95-0.6c0.667-0.434,1.1-0.8,1.3-1.1l0.3-0.55l-0.3,0.4
					C34.55-10.117,34.034-9.684,33.3-9.15z"/>
				<path style="fill-rule:evenodd;clip-rule:evenodd;fill:#3A4D07;" d="M35.85-18.5c0.067,0.1,0.167,0.316,0.3,0.65
					c0.1-0.967,0.033-1.45-0.2-1.45c-0.267,0.034-0.4,0.333-0.4,0.9c-0.1-1.033-0.35-1.433-0.75-1.2c-0.1,0.033-0.15,0.35-0.15,0.95
					c0.066,0.034,0.183,0.2,0.35,0.5c-0.066-0.4,0.034-0.533,0.3-0.4c0.133,0.067,0.25,0.25,0.35,0.55
					C35.65-18.233,35.717-18.4,35.85-18.5z"/>
				<path style="fill-rule:evenodd;clip-rule:evenodd;fill:#3A4D07;" d="M35.8-13.55c0.033,0.267-0.017,0.667-0.15,1.2l0.3-1
					c0.3-0.034,0.65-0.167,1.05-0.4c0.333-0.267,0.45-0.534,0.35-0.8c-0.033-0.1-0.233-0.183-0.6-0.25c0.1-0.233,0.3-0.533,0.6-0.9
					c0.133-0.267,0.15-0.483,0.05-0.65c-0.067-0.1-0.3-0.117-0.7-0.05l0.05,0.1l-0.25,0.4c-0.1,0.2-0.05,0.284,0.15,0.25
					c0,0.067-0.083,0.233-0.25,0.5v0.1l-0.05,0.15l0.2,0.15c0.133,0.066,0.167,0.2,0.1,0.4c0.267,0.066,0.417,0.167,0.45,0.3
					c-0.433,0.267-0.667,0.4-0.7,0.4C36.1-13.65,35.9-13.617,35.8-13.55z"/>
				<path style="fill-rule:evenodd;clip-rule:evenodd;fill:#3A4D07;" d="M36.45-16.75c-0.033,0.133,0.017,0.233,0.15,0.3
					c0.3-0.3,0.5-0.6,0.6-0.9c0.033-0.034,0.066-0.15,0.1-0.35c0.033-0.233,0.033-0.367,0-0.4l-0.2-0.1l0.05,0.05
					c0.133,0.134,0.066,0.384-0.2,0.75C36.684-17.067,36.517-16.85,36.45-16.75z"/>
				<path style="fill-rule:evenodd;clip-rule:evenodd;fill:#3A4D07;" d="M34.1-17.45l0.25,0.25h0.05l0.05-0.9
					c-0.066-0.1-0.133-0.117-0.2-0.05C34.083-18.117,34.034-17.884,34.1-17.45z"/>
				<path style="fill-rule:evenodd;clip-rule:evenodd;fill:#3A4D07;" d="M28.8-21.25c-0.233-0.167-0.467-0.233-0.7-0.2v0.25
					c0.233,0.2,0.4,0.417,0.5,0.65C28.534-20.717,28.6-20.95,28.8-21.25z"/>
				<path style="fill-rule:evenodd;clip-rule:evenodd;fill:#3A4D07;" d="M30.45-21.7l-0.05,0.3l0.1-0.25
					c0.067-0.333,0.233-0.5,0.5-0.5c0-0.566-0.066-0.866-0.2-0.9c-0.3-0.1-0.517,0.284-0.65,1.15c0.033-0.267,0-0.5-0.1-0.7
					c-0.133-0.233-0.333-0.333-0.6-0.3c-0.333,0.034-0.533,0.217-0.6,0.55c0,0.066,0,0.383,0,0.95c0.167-0.3,0.317-0.45,0.45-0.45
					c0.167,0,0.3,0.083,0.4,0.25h0.05c0.034-0.133,0.1-0.217,0.2-0.25c0.071-0.036,0.138-0.052,0.2-0.05
					c0.054,0.002,0.104,0.019,0.15,0.05L30.45-21.7z"/>
				<path style="fill-rule:evenodd;clip-rule:evenodd;fill:#3A4D07;" d="M31.9-15.55l0.15-0.2l0.2-0.2l0.2-0.35
					c0.167-0.333,0.383-0.683,0.65-1.05c0.2-0.3,0.333-0.55,0.4-0.75c0.1-0.434-0.017-0.917-0.35-1.45l0.05-0.8l-0.15-1.7
					c-0.067-0.133-0.184-0.183-0.35-0.15c-0.133,0.033-0.233,0.133-0.3,0.3c0.133-0.833,0.066-1.3-0.2-1.4
					c-0.167-0.033-0.367,0.05-0.6,0.25c-0.2,0.2-0.333,0.383-0.4,0.55l-0.1,0.35c0.1,0,0.167,0.017,0.2,0.05
					c0.033,0.066,0.066,0.117,0.1,0.15v0.05l0.05-0.25c0.434,0,0.65,0.3,0.65,0.9c0.067-0.1,0.15-0.1,0.25,0
					c0.127,0.127,0.144,0.36,0.05,0.7c0.047-0.116,0.13-0.099,0.25,0.05c0.133,0.1,0.216,0.216,0.25,0.35
					c-0.034,0.267-0.05,0.483-0.05,0.65c0.067,0.767,0,1.267-0.2,1.5H32.6c-0.066,0-0.133,0.05-0.2,0.15c0.066,0.1,0.066,0.2,0,0.3
					c0,0.133-0.067,0.333-0.2,0.6c-0.066,0.066-0.15,0.1-0.25,0.1c-0.033,0.033-0.1,0.017-0.2-0.05c0.067,0.3,0.067,0.583,0,0.85
					l-0.05,0.2L31.55-16l-0.05-0.25l0.05,1.05l-0.05,0.35l0.1-0.2C31.667-15.25,31.767-15.417,31.9-15.55z"/>
				<path style="fill-rule:evenodd;clip-rule:evenodd;fill:#6E9313;" d="M32.8-10.95l-0.15,0.6l0.05,0.1
					c0.167,0.133,0.35,0.017,0.55-0.35c0.167-0.267,0.284-0.517,0.35-0.75v0.5c0.133,0.033,0.284-0.15,0.45-0.55
					c0.1-0.233,0.2-0.5,0.3-0.8v0.15c0.267-0.133,0.4-0.65,0.4-1.55v-0.8c0.167,0.167,0.333,0.2,0.5,0.1
					c0.367-0.133,0.55-0.417,0.55-0.85l-0.6,0.2l0.2-0.5v-0.4c-0.231,0-0.349,0.05-0.35,0.15c0-0.333-0.117-0.533-0.35-0.6
					c-0.267-0.033-0.4,0.15-0.4,0.55v0.25l-0.1-0.15l-0.2-0.1l-0.05-0.05c-0.033,0.2-0.017,0.45,0.05,0.75
					c0.134,0.367,0.2,0.6,0.2,0.7c0,0.3-0.1,0.583-0.3,0.85l-0.1,0.15v0.3C33.8-12.483,33.467-11.784,32.8-10.95z"/>
				<path style="fill-rule:evenodd;clip-rule:evenodd;fill:#6E9313;" d="M30.95-12.9v-1.55c-0.066-0.767-0.167-1.3-0.3-1.6
					c-0.233-0.767-0.467-1.25-0.7-1.45c-0.033,0.133-0.017,0.433,0.05,0.9l0.05,0.9c0.367,0.4,0.6,0.917,0.7,1.55L30.95-12.9z"/>
				<path style="fill-rule:evenodd;clip-rule:evenodd;fill:#6E9313;" d="M29.1-18.7l0.15,0.15l0.1,0.15l-0.15-0.05l0.15,0.25h-0.4
					c0.033,0.1,0.184,0.184,0.45,0.25c0.233,0.1,0.417,0.15,0.55,0.15v-0.1l0.35,0.1l0.15-0.75c0.1-0.566,0.117-0.883,0.05-0.95
					c-0.066-0.067-0.167-0.083-0.3-0.05c-0.133,0.034-0.233,0.034-0.3,0l-0.05-0.05l-0.1-0.2c-0.1-0.133-0.25-0.167-0.45-0.1
					c-0.133,0.066-0.2,0.25-0.2,0.55c-0.001-0.068-0.051-0.152-0.15-0.25c-0.1-0.1-0.2-0.15-0.3-0.15l-0.1,0.05
					c-0.067,0.1-0.034,0.3,0.1,0.6C28.884-19,29.034-18.867,29.1-18.7z"/>
				<path style="fill-rule:evenodd;clip-rule:evenodd;fill:#6E9313;" d="M31.85-18.95c-0.2,0.133-0.383,0.184-0.55,0.15l0.15-0.35
					c0-0.3,0.033-0.45,0.1-0.45c0.167-0.067,0.3,0,0.4,0.2C32.05-19.233,32.017-19.083,31.85-18.95z M31.5-17.55l0.45-0.4l0.55-0.7
					l0.1-0.25c0.133-0.267,0.2-0.466,0.2-0.6c0.066-0.367-0.067-0.517-0.4-0.45l-0.25,0.15l0.05-0.45c0.066-0.367,0.033-0.6-0.1-0.7
					c-0.1-0.1-0.233-0.117-0.4-0.05l-0.45,0.25l-0.05,0.1v0.05c-0.066-0.133-0.15-0.25-0.25-0.35c-0.133-0.066-0.233-0.033-0.3,0.1
					l0.05,0.35c0.066,0.2,0.033,0.316-0.1,0.35c0.034,0.134,0.184,0.267,0.45,0.4l0.15,0.2c0.033,0.133,0,0.617-0.1,1.45v0.25
					l0.2,0.25L31.5-17.55z"/>
				<path style="fill-rule:evenodd;clip-rule:evenodd;fill:#6E9313;" d="M30-21.6h-0.3l-0.2,0.1v0.05c-0.066,0.2,0.034,0.3,0.3,0.3
					c0.167,0,0.383-0.017,0.65-0.05v-0.15L30-21.6z"/>
				<path style="fill-rule:evenodd;clip-rule:evenodd;fill:#6E9313;" d="M30.8-21.55h-0.1l-0.15,0.15l0.5,0.45
					c0.1-0.2,0.117-0.383,0.05-0.55L30.8-21.55z"/>
				<path style="fill-rule:evenodd;clip-rule:evenodd;fill:#6E9313;" d="M36.05-15.65l0.2-0.3v-0.2L36.2-16.6l-0.1-0.2l-0.25-0.05
					l-0.2-0.2c-0.134-0.033-0.25,0-0.35,0.1c-0.167,0.1-0.2,0.217-0.1,0.35c0.033,0.066,0.1,0.1,0.2,0.1
					c0.033,0,0.116-0.017,0.25-0.05L35.7-16L36.05-15.65z"/>
				<path style="fill-rule:evenodd;clip-rule:evenodd;fill:#6E9313;" d="M34.65-17.2h-0.3v0.1l0.1,0.35l0.1,0.1l0.2,0.05l0.1-0.25
					C34.85-16.95,34.784-17.067,34.65-17.2z"/>
				<path style="fill-rule:evenodd;clip-rule:evenodd;fill:#6E9313;" d="M35.55-17.45v-0.4l-0.2-0.1c-0.167-0.066-0.316,0-0.45,0.2
					l-0.05,0.2l0.2,0.05h0.2L35.55-17.45z"/>
				<path style="fill-rule:evenodd;clip-rule:evenodd;fill:#6E9313;" d="M36.2-14.9c0.1,0,0.167-0.05,0.2-0.15v-0.1l0.05-0.1v-0.15
					c-0.1,0-0.217,0.067-0.35,0.2L36.2-14.9z"/>
				<path style="fill-rule:evenodd;clip-rule:evenodd;fill:#7CA416;" d="M31.3-18.8c0.167,0.034,0.35-0.017,0.55-0.15
					c0.167-0.133,0.2-0.283,0.1-0.45c-0.1-0.2-0.233-0.267-0.4-0.2c-0.067,0-0.1,0.15-0.1,0.45L31.3-18.8z"/>
			</g>
			<g>
				<path style="fill-rule:evenodd;clip-rule:evenodd;fill:#5C7A0F;" d="M10.3-6.45l0.25-0.1c0.267-0.133,0.433-0.25,0.5-0.35
					c0.133-0.267,0.15-0.6,0.05-1c-0.133-0.466-0.383-0.783-0.75-0.95L9.9-9C9.8-9,9.717-8.983,9.65-8.95
					c-0.134,0-0.217-0.033-0.25-0.1c-0.034-0.033-0.05-0.233-0.05-0.6V-9.7L9.1-10.15C9-10.25,8.884-10.3,8.75-10.3L8.2-10.2
					l0.05,0.05L8.6-10.1c0.133,0.066,0.25,0.233,0.35,0.5l0.1,0.4c0,0.033,0.117,0.1,0.35,0.2c0.233,0.133,0.417,0.333,0.55,0.6
					l0.1,0.15c0.2,0.133,0.283,0.316,0.25,0.55c0.133,0.333,0.283,0.55,0.45,0.65c-0.066,0-0.333-0.1-0.8-0.3L9.4-7.6l0.1,0.25
					l0.05,0.2L10.3-6.45z"/>
				<path style="fill-rule:evenodd;clip-rule:evenodd;fill:#4B640B;" d="M11.05-6.9c-0.067,0.1-0.233,0.217-0.5,0.35
					c0.5-0.167,1.033-0.433,1.6-0.8c0-0.233-0.083-0.367-0.25-0.4c-0.333,0-0.567-0.083-0.7-0.25c-0.033-0.2-0.066-0.333-0.1-0.4
					c0-0.066-0.1-0.183-0.3-0.35c-0.434-0.267-0.684-0.4-0.75-0.4H9.4c-0.034-0.133,0.066-0.2,0.3-0.2l0.15-0.2
					c-0.133-0.066-0.283-0.066-0.45,0L9.35-9.7v0.05c0,0.367,0.017,0.567,0.05,0.6c0.033,0.067,0.116,0.1,0.25,0.1
					C9.717-8.983,9.8-9,9.9-9l0.45,0.15c0.367,0.167,0.617,0.483,0.75,0.95C11.2-7.5,11.184-7.167,11.05-6.9z"/>
				<path style="fill-rule:evenodd;clip-rule:evenodd;fill:#4B640B;" d="M8.75-10.3c0.134,0,0.25,0.05,0.35,0.15v-0.05
					c-0.133-0.3-0.3-0.434-0.5-0.4c-0.333,0-0.466,0.133-0.4,0.4L8.75-10.3z"/>
				<path style="fill-rule:evenodd;clip-rule:evenodd;fill:#2B3A05;" d="M12.15-7.35c0.366-0.267,0.667-0.534,0.9-0.8l-1.2,0.1
					c-0.167,0-0.383-0.15-0.65-0.45c-0.367-0.434-0.684-0.733-0.95-0.9l-0.4-0.15L9.7-9.35c-0.233,0-0.333,0.066-0.3,0.2h0.65
					c0.066,0,0.316,0.134,0.75,0.4c0.2,0.167,0.3,0.283,0.3,0.35c0.034,0.067,0.067,0.2,0.1,0.4c0.133,0.167,0.367,0.25,0.7,0.25
					C12.067-7.717,12.15-7.583,12.15-7.35z"/>
				<path style="fill-rule:evenodd;clip-rule:evenodd;fill:#739915;" d="M8.9-7.55C8.833-7.583,8.65-7.6,8.35-7.6
					c0.1,0.533,0.383,0.917,0.85,1.15c0.2,0,0.316-0.05,0.35-0.15c0.133-0.167,0.133-0.35,0-0.55L9.5-7.35L9.4-7.6
					c0-0.067,0.066-0.1,0.2-0.1l0.7,0.05V-7.7c0.033-0.233-0.05-0.417-0.25-0.55c-0.133-0.1-0.3-0.15-0.5-0.15
					c-0.367,0-0.567,0.1-0.6,0.3L8.9-7.55z"/>
			</g>
			<path style="fill-rule:evenodd;clip-rule:evenodd;fill:#EFFDFF;" d="M7.85-19.3l0.75,0.85c-0.233-0.667-0.4-1.133-0.5-1.4
				c-0.133-0.367-0.216-0.567-0.25-0.6c-0.133-0.066-0.316-0.066-0.55,0c-0.034,0.167,0.033,0.367,0.2,0.6
				C7.567-19.717,7.684-19.534,7.85-19.3z"/>
			<path style="fill-rule:evenodd;clip-rule:evenodd;fill:#FFFFFF;" d="M8.45-28.8v0.95c0-0.034,0.05-0.284,0.15-0.75
				c0.1-0.333,0.034-0.583-0.2-0.75c-0.134-0.1-0.333-0.15-0.6-0.15c-0.333,0-0.55-0.034-0.65-0.1c0.1,0.133,0.316,0.267,0.65,0.4
				C7.934-29.134,8.15-29,8.45-28.8z"/>
			<path style="fill-rule:evenodd;clip-rule:evenodd;fill:#FFFFFF;" d="M6.85-31.45l0.1-0.35c-0.3,0-0.467,0.017-0.5,0.05
				c-0.066,0.133-0.033,0.216,0.1,0.25C6.617-31.5,6.717-31.483,6.85-31.45z"/>
			<path style="fill-rule:evenodd;clip-rule:evenodd;fill:#FFFFFF;" d="M11.05-30.45l0.4-0.1c-0.167-0.033-0.25-0.117-0.25-0.25
				c0-0.1,0.017-0.233,0.05-0.4c-0.267-0.1-0.4,0.133-0.4,0.7L11.05-30.45z"/>
			<path style="fill-rule:evenodd;clip-rule:evenodd;fill:#BDCEDF;" d="M9.45-21.8c-0.033-0.3,0-0.583,0.1-0.85
				c0.066-0.267,0.2-0.616,0.4-1.05L10-24.15l0.2-0.4c0-0.4-0.083-0.65-0.25-0.75c-0.3-0.167-0.517-0.1-0.65,0.2v0.5
				c-0.067,0.4-0.1,0.633-0.1,0.7v1.45l0.175,0.975c-0.04,0.252-0.048,0.46-0.025,0.625L9.5-20.8l-0.125-0.675
				C9.396-21.573,9.42-21.682,9.45-21.8z"/>
			<path style="fill-rule:evenodd;clip-rule:evenodd;fill:#FFFFFF;" d="M9.05-23.3l0.2,1.2c0.1-0.667,0.15-1.034,0.15-1.1l0.1-0.75
				c0.2-0.467,0.3-0.8,0.3-1c-0.3-0.1-0.517,0.1-0.65,0.6C9.117-23.784,9.083-23.434,9.05-23.3z"/>
			<g>
				<path style="fill-rule:evenodd;clip-rule:evenodd;fill:#5C7A0F;" d="M21.75-30.8c-0.033,0.233,0.034,0.467,0.2,0.7l0.25,0.25
					L22.35-30c0.167-0.167,0.4-0.45,0.7-0.85c0.633-0.633,1.183-0.983,1.65-1.05c0.533-0.066,1.25,0.05,2.15,0.35l1.35,0.3l0.7,0.35
					l0.45,0.15c-0.1-0.233-0.3-0.5-0.6-0.8l-0.8-0.35c-0.267-0.1-0.717-0.183-1.35-0.25l-0.45-0.05
					c-0.067,0.033-0.367,0.05-0.9,0.05l-0.9,0.05c-0.6,0.133-1.033,0.35-1.3,0.65c-0.3,0.434-0.583,0.684-0.85,0.75
					C21.967-30.7,21.817-30.733,21.75-30.8z"/>
				<path style="fill-rule:evenodd;clip-rule:evenodd;fill:#5C7A0F;" d="M24.1-32.9h0.35c-0.733-0.333-1.283-0.517-1.65-0.55
					c0.1,0.1,0.333,0.25,0.7,0.45c0.3,0.2,0.5,0.4,0.6,0.6h0.05C24.083-32.6,24.067-32.767,24.1-32.9z"/>
				<path style="fill-rule:evenodd;clip-rule:evenodd;fill:#5C7A0F;" d="M21.65-34.55c-0.367,0-0.667,0.017-0.9,0.05
					c-0.433,0.133-0.7,0.267-0.8,0.4c0.2,0,0.667,0,1.4,0c0.6-0.034,1.067-0.017,1.4,0.05c0.3,0.034,0.684,0.167,1.15,0.4
					c0.566,0.267,0.866,0.517,0.9,0.75l0.15-0.05c-0.167-0.367-0.333-0.633-0.5-0.8c-0.133-0.1-0.5-0.284-1.1-0.55
					C22.983-34.467,22.417-34.55,21.65-34.55z"/>
				<path style="fill-rule:evenodd;clip-rule:evenodd;fill:#435A09;" d="M21.8-31.25l-0.05,0.45c0.067,0.067,0.217,0.1,0.45,0.1
					c0.267-0.066,0.55-0.316,0.85-0.75c0.267-0.3,0.7-0.517,1.3-0.65l0.55-0.05c0.533-0.066,0.95-0.083,1.25-0.05l0.45,0.05
					c0.633,0.067,1.083,0.15,1.35,0.25l0.8,0.35L28.2-32c-0.367-0.367-0.917-0.634-1.65-0.8l-0.4-0.05L25-32.8l-0.05-0.15L24.8-32.9
					h-0.7c-0.033,0.134-0.017,0.3,0.05,0.5H23.9l-0.75-0.1C22.384-32.167,21.934-31.75,21.8-31.25z"/>
				<path style="fill-rule:evenodd;clip-rule:evenodd;fill:#435A09;" d="M21.85-34.65l-0.925,0.125
					c0.205-0.017,0.446-0.025,0.725-0.025c0.767,0,1.333,0.083,1.7,0.25c0.6,0.267,0.967,0.45,1.1,0.55
					c0.167,0.167,0.333,0.433,0.5,0.8L25-32.8l1.15-0.05l-0.6-0.1l0.15-0.2v-0.4c-0.033-0.4-0.417-0.716-1.15-0.95
					C23.817-34.667,22.917-34.717,21.85-34.65z"/>
				<path style="fill-rule:evenodd;clip-rule:evenodd;fill:#7DA718;" d="M22.45-29.8l0.1,0.05l0.8-0.25
					c0.034,0,0.517-0.217,1.45-0.65c0.566-0.233,1.066-0.383,1.5-0.45c0.4-0.1,0.867-0.117,1.4-0.05
					c-1.167-0.233-2.2-0.283-3.1-0.15c-0.1,0-0.233,0.034-0.4,0.1c-0.2,0.1-0.316,0.184-0.35,0.25c0.067,0.133,0.1,0.233,0.1,0.3
					c-0.033,0.2-0.233,0.4-0.6,0.6C22.983-29.884,22.684-29.8,22.45-29.8z"/>
				<path style="fill-rule:evenodd;clip-rule:evenodd;fill:#7DA718;" d="M20.4-34c0.4,0.033,0.8,0.133,1.2,0.3l1.3,0.65l0.5,0.35
					c0.033-0.2-0.083-0.35-0.35-0.45c-0.333-0.133-0.517-0.233-0.55-0.3h0.3c0.2,0,0.483,0.017,0.85,0.05
					c-0.067-0.267-0.267-0.433-0.6-0.5c-0.034,0-0.317,0-0.85,0C21.4-33.967,20.8-34,20.4-34z"/>
			</g>
		</g>
	</g>
</symbol>
<use xlink:href="#Symbol_1"  width="37.464" height="35.588" y="-35.589" transform="matrix(1 0 0 -1 0 0)" style="overflow:visible;"/>
</svg>
