<?xml version="1.0" encoding="iso-8859-1"?>
<!-- Generator: Adobe Illustrator 15.1.0, SVG Export Plug-In . SVG Version: 6.00 Build 0)  -->
<!DOCTYPE svg PUBLIC "-//W3C//DTD SVG 1.1//EN" "http://www.w3.org/Graphics/SVG/1.1/DTD/svg11.dtd">
<svg version="1.1" id="flash0.ai" xmlns="http://www.w3.org/2000/svg" xmlns:xlink="http://www.w3.org/1999/xlink" x="0px" y="0px"
	 width="53.8px" height="55.1px" viewBox="0 0 53.8 55.1" style="enable-background:new 0 0 53.8 55.1;" xml:space="preserve">
<symbol  id="flash0.ai_x5F_8_x2F_Layer_28_x2F__x3C_Path_x3E_" viewBox="-0.044 -2.203 2.005 2.203">
	<g id="Layer_1_19_">
		
			<linearGradient id="SVGID_1_" gradientUnits="userSpaceOnUse" x1="44.8945" y1="48.085" x2="61.4448" y2="48.085" gradientTransform="matrix(1 0.006 -0.006 1 -49.1787 -49.4893)">
			<stop  offset="0" style="stop-color:#87CDFF"/>
			<stop  offset="1" style="stop-color:#6ED6F5"/>
		</linearGradient>
		<path style="fill-rule:evenodd;clip-rule:evenodd;fill:url(#SVGID_1_);" d="M0.5,0c0-0.267,0.033-0.5,0.1-0.7
			c0.066-0.2,0.233-0.367,0.5-0.5c0.333-0.133,0.583-0.3,0.75-0.5C2.117-2.033,1.9-2.2,1.2-2.2C0.533-2.233,0.133-2,0-1.5
			C-0.133-0.9,0.033-0.4,0.5,0z"/>
	</g>
</symbol>
<symbol  id="flash0.ai_x5F_8_x2F_Layer_28_x2F__x3C_Path_x3E__x5F_1" viewBox="-0.026 -3.095 2.664 3.095">
	<g id="Layer_1_18_">
		<linearGradient id="SVGID_2_" gradientUnits="userSpaceOnUse" x1="-12.25" y1="-1.5474" x2="3.45" y2="-1.5474">
			<stop  offset="0" style="stop-color:#87CDFF"/>
			<stop  offset="1" style="stop-color:#6ED6F5"/>
		</linearGradient>
		<path style="fill-rule:evenodd;clip-rule:evenodd;fill:url(#SVGID_2_);" d="M2.1,0c0.267-0.4,0.417-0.667,0.45-0.8
			C2.683-1.167,2.667-1.55,2.5-1.95C2.233-2.45,1.883-2.8,1.45-3c-0.5-0.2-0.934-0.083-1.3,0.35C-0.25-2.217,0.033-1.783,1-1.35
			C1.9-0.983,2.267-0.533,2.1,0z"/>
	</g>
</symbol>
<symbol  id="flash0.ai_x5F_8_x2F_Layer_28_x2F__x3C_Path_x3E__x5F_11" viewBox="0.35 -11.752 31.3 11.502">
	<g id="Layer_1_13_">
		<linearGradient id="SVGID_3_" gradientUnits="userSpaceOnUse" x1="0.0127" y1="-6.001" x2="31.9877" y2="-6.001">
			<stop  offset="0" style="stop-color:#A1DAFF"/>
			<stop  offset="1" style="stop-color:#537F9C"/>
		</linearGradient>
		<path style="fill-rule:evenodd;clip-rule:evenodd;fill:url(#SVGID_3_);" d="M31.65-0.25c-4.841-3.626-8.125-5.993-9.85-7.1
			c-2.267-1.533-3.716-2.75-4.35-3.65c-0.467-0.633-0.95-0.867-1.45-0.7c-0.5-0.167-0.967,0.067-1.4,0.7
			c-0.6,0.867-2.067,2.083-4.4,3.65c-1.725,1.107-5.009,3.474-9.85,7.1c1.762-1.248,3.112-1.981,4.05-2.2
			C5.633-2.683,9.5-3.083,16-3.65c6.5,0.566,10.367,0.967,11.6,1.2C28.538-2.231,29.888-1.498,31.65-0.25z"/>
	</g>
</symbol>
<symbol  id="flash0.ai_x5F_8_x2F_Layer_28_x2F__x3C_Path_x3E__x5F_12" viewBox="0.051 -6.059 8.549 6.059">
	<g id="Layer_1_12_">
		
			<linearGradient id="SVGID_4_" gradientUnits="userSpaceOnUse" x1="5767.7754" y1="-19454.3535" x2="5774.2451" y2="-19454.3535" gradientTransform="matrix(-0.5449 -0.8385 0.8385 -0.5449 19461.041 -5764.7251)">
			<stop  offset="0" style="stop-color:#FFFFFF"/>
			<stop  offset="1" style="stop-color:#000000"/>
		</linearGradient>
		<path style="fill-rule:evenodd;clip-rule:evenodd;fill:url(#SVGID_4_);" d="M6.3-0.25L8.6,0L8.1-0.5C7.7-0.9,6.8-1.633,5.4-2.7
			C3.7-4,2.35-4.917,1.35-5.45C0.317-5.983-0.1-6.167,0.1-6c0.033,0.033,0.7,0.55,2,1.55C3.533-3.317,4.933-1.917,6.3-0.25z"/>
	</g>
</symbol>
<symbol  id="flash0.ai_x5F_8_x2F_Layer_28_x2F__x3C_Path_x3E__x5F_13" viewBox="0 -7.316 11.4 7.316">
	<g id="Layer_1_11_">
		<linearGradient id="SVGID_5_" gradientUnits="userSpaceOnUse" x1="2.0376" y1="-3.6582" x2="9.0626" y2="-3.6582">
			<stop  offset="0" style="stop-color:#FFFFFF"/>
			<stop  offset="1" style="stop-color:#000000"/>
		</linearGradient>
		<path style="fill-rule:evenodd;clip-rule:evenodd;fill:url(#SVGID_5_);" d="M0,0l11.4-0.95L11.35-6c0-1.233-0.617-1.6-1.85-1.1
			L7.65-6c-0.333,0.3-1.433,1.117-3.3,2.45C2.483-2.183,1.033-1,0,0z"/>
	</g>
</symbol>
<symbol  id="flash0.ai_x5F_8_x2F_Layer_28_x2F__x3C_Path_x3E__x5F_16" viewBox="0 -6.6 31.45 6.6">
	<g id="Layer_1_10_">
		<linearGradient id="SVGID_6_" gradientUnits="userSpaceOnUse" x1="0" y1="-3.2998" x2="31.4502" y2="-3.2998">
			<stop  offset="0" style="stop-color:#C2E7FF"/>
			<stop  offset="1" style="stop-color:#88ABC2"/>
		</linearGradient>
		<path style="fill-rule:evenodd;clip-rule:evenodd;fill:url(#SVGID_6_);" d="M31.45-3.3c0-0.934-1.534-1.717-4.6-2.35
			C23.783-6.283,20.067-6.6,15.7-6.6c-4.333,0-8.034,0.317-11.1,0.95C1.533-5.017,0-4.233,0-3.3c0,0.933,1.533,1.716,4.6,2.35
			C7.667-0.317,11.367,0,15.7,0c4.367,0,8.083-0.317,11.15-0.95C29.917-1.583,31.45-2.367,31.45-3.3z"/>
	</g>
</symbol>
<symbol  id="flash0.ai_x5F_8_x2F_Layer_28_x2F__x3C_Path_x3E__x5F_17" viewBox="0 -2.45 2.253 2.512">
	<g id="Layer_1_9_">
		<path style="fill-rule:evenodd;clip-rule:evenodd;fill:#CEF2F2;" d="M1.25-1.45c0.367,0.567,0.567,1.017,0.6,1.35
			c0.2,0.3,0.333,0.184,0.4-0.35c0.033-0.5-0.2-0.95-0.7-1.35C0.983-2.233,0.467-2.45,0-2.45C0.733-1.983,1.15-1.65,1.25-1.45z"/>
	</g>
</symbol>
<symbol  id="flash0.ai_x5F_8_x2F_Layer_28_x2F__x3C_Path_x3E__x5F_18" viewBox="-0.033 -0.506 0.68 0.506">
	<g id="Layer_1_8_">
		<path style="fill-rule:evenodd;clip-rule:evenodd;fill:#CEF2F2;" d="M0.4-0.05c0.267-0.133,0.317-0.267,0.15-0.4
			c-0.133-0.1-0.283-0.066-0.45,0.1C-0.033-0.217-0.067-0.117,0-0.05C0.1,0.017,0.233,0.017,0.4-0.05z"/>
	</g>
</symbol>
<symbol  id="flash0.ai_x5F_8_x2F_Layer_28_x2F__x3C_Path_x3E__x5F_19" viewBox="-0.026 -2.564 1.819 2.529">
	<g id="Layer_1_7_">
		<path style="fill-rule:evenodd;clip-rule:evenodd;fill:#CEF2F2;" d="M0.5-0.05c0.2,0.066,0.333-0.1,0.4-0.5
			c0.133-0.633,0.367-1.133,0.7-1.5c0.3-0.4,0.25-0.567-0.15-0.5C1.05-2.483,0.7-2.233,0.4-1.8C-0.2-1-0.167-0.417,0.5-0.05z"/>
	</g>
</symbol>
<symbol  id="flash0.ai_x5F_8_x2F_Layer_28_x2F__x3C_Path_x3E__x5F_21" viewBox="0 -14.8 2.85 14.8">
	<g id="Layer_1_6_">
		<linearGradient id="SVGID_7_" gradientUnits="userSpaceOnUse" x1="0.0498" y1="-7.3999" x2="2.8498" y2="-7.3999">
			<stop  offset="0" style="stop-color:#5A9BC9"/>
			<stop  offset="0.4588" style="stop-color:#EDF8FF"/>
			<stop  offset="0.9765" style="stop-color:#61BEFF"/>
		</linearGradient>
		<path style="fill-rule:evenodd;clip-rule:evenodd;fill:url(#SVGID_7_);" d="M1.45-0.55L2.85,0c-0.4-0.333-0.6-1.133-0.6-2.4
			c-0.033-1.767-0.033-5.783,0-12.05c-0.1-0.2-0.333-0.316-0.7-0.35H1.3c-0.367,0.033-0.6,0.15-0.7,0.35
			C0.633-8.183,0.633-4.167,0.6-2.4C0.6-1.133,0.4-0.333,0,0L1.45-0.55z"/>
	</g>
</symbol>
<symbol  id="flash0.ai_x5F_8_x2F_Layer_28_x2F__x3C_Path_x3E__x5F_22" viewBox="0.009 -1.9 3.213 1.9">
	<g id="Layer_1_5_">
		<linearGradient id="SVGID_8_" gradientUnits="userSpaceOnUse" x1="0" y1="-0.9502" x2="3.2" y2="-0.9502">
			<stop  offset="0" style="stop-color:#ABC5D9"/>
			<stop  offset="0.4588" style="stop-color:#EDF8FF"/>
			<stop  offset="0.9765" style="stop-color:#B8D1E3"/>
		</linearGradient>
		<path style="fill-rule:evenodd;clip-rule:evenodd;fill:url(#SVGID_8_);" d="M1.7-1.9H1.5c-0.733,0-1.2,0.183-1.4,0.55
			C-0.133-0.95,0.083-0.5,0.75,0L1.6-0.3L2.5,0c0.633-0.467,0.85-0.917,0.65-1.35C2.95-1.717,2.467-1.9,1.7-1.9z"/>
	</g>
</symbol>
<symbol  id="flash0.ai_x5F_8_x2F_Layer_28_x2F__x3C_Path_x3E__x5F_23" viewBox="0 -6.15 14.6 6.15">
	<g id="Layer_1_4_">
		<path style="fill-rule:evenodd;clip-rule:evenodd;fill:#162C33;" d="M12.55-0.4c1.367-0.7,2.05-1.483,2.05-2.35
			c0-0.933-0.717-1.733-2.15-2.4c-1.4-0.667-3.117-1-5.15-1c-2.033,0-3.75,0.333-5.15,1C0.717-4.483,0-3.683,0-2.75
			C0-1.617,1.017-0.7,3.05,0C2.317-0.433,1.833-0.8,1.6-1.1C1.267-1.533,1.233-2.033,1.5-2.6c0.533-1,1.75-1.717,3.65-2.15
			c1.867-0.433,3.717-0.433,5.55,0c1.4,0.3,2.25,0.917,2.55,1.85C13.517-2.033,13.283-1.2,12.55-0.4z"/>
	</g>
</symbol>
<symbol  id="flash0.ai_x5F_8_x2F_Layer_28_x2F__x3C_Path_x3E__x5F_24" viewBox="0 -6.75 14.6 6.75">
	<g id="Layer_1_3_">
		
			<radialGradient id="SVGID_9_" cx="4.2515" cy="-16321.9883" r="6.175" gradientTransform="matrix(8.097166e-005 -1 -1.3178 8.097166e-005 -21501.9902 3.8232)" gradientUnits="userSpaceOnUse">
			<stop  offset="0" style="stop-color:#FFFFFF"/>
			<stop  offset="0.9882" style="stop-color:#83CFE6"/>
		</radialGradient>
		<path style="fill-rule:evenodd;clip-rule:evenodd;fill:url(#SVGID_9_);" d="M14.6-3.35c0-0.933-0.717-1.733-2.15-2.4
			c-1.4-0.667-3.117-1-5.15-1c-2.033,0-3.75,0.333-5.15,1C0.717-5.083,0-4.283,0-3.35C0-2.417,0.717-1.633,2.15-1
			c1.4,0.667,3.117,1,5.15,1c2.034,0,3.75-0.333,5.15-1C13.883-1.633,14.6-2.417,14.6-3.35z"/>
	</g>
</symbol>
<symbol  id="flash0.ai_x5F_8_x2F_Layer_28_x2F__x3C_Path_x3E__x5F_25" viewBox="0 -3.85 14.6 3.85">
	<g id="Layer_1_2_">
		<path style="fill-rule:evenodd;clip-rule:evenodd;fill:#004E69;" d="M12.2-2.3c1.4,0.566,2.183,1.283,2.35,2.15l0.05-0.3
			c0-0.933-0.717-1.733-2.15-2.4c-1.434-0.667-3.15-1-5.15-1s-3.716,0.333-5.15,1C0.717-2.183,0-1.383,0-0.45V0
			c0.1-0.9,0.85-1.667,2.25-2.3C3.683-2.9,5.367-3.2,7.3-3.2C9.2-3.2,10.833-2.9,12.2-2.3z"/>
	</g>
</symbol>
<symbol  id="flash0.ai_x5F_8_x2F_Layer_28_x2F__x3C_Path_x3E__x5F_4" viewBox="0 -12.5 0.2 12.5">
	<g id="Layer_1_17_">
		<path style="fill-rule:evenodd;clip-rule:evenodd;fill:#DFF7F7;" d="M0.2-6.25c0-4.167-0.034-6.25-0.1-6.25
			C0.033-12.5,0-10.417,0-6.25S0.033,0,0.1,0C0.167,0,0.2-2.083,0.2-6.25z"/>
	</g>
</symbol>
<symbol  id="flash0.ai_x5F_8_x2F_Layer_28_x2F__x3C_Path_x3E__x5F_7" viewBox="-0.006 -7.245 13.184 7.245">
	<g id="Layer_1_16_">
		
			<linearGradient id="SVGID_10_" gradientUnits="userSpaceOnUse" x1="15494.1895" y1="747.4756" x2="15499.8662" y2="747.4756" gradientTransform="matrix(0.0969 0.9953 -0.9953 0.0969 -750.7715 -15500.5957)">
			<stop  offset="0" style="stop-color:#FFFFFF"/>
			<stop  offset="1" style="stop-color:#9AE0F5;stop-opacity:0.6275"/>
		</linearGradient>
		<path style="fill-rule:evenodd;clip-rule:evenodd;fill:url(#SVGID_10_);" d="M9.2-2c2.167-1.233,3.45-2.217,3.85-2.95
			c0.567-1-0.75-1.7-3.95-2.1C5.933-7.417,3.35-7.267,1.35-6.6C0.483-6.333,0.033-6.067,0-5.8c-0.067,0.333,0.4,0.683,1.4,1.05
			C1.767-4.617,2.933-4.4,4.9-4.1c1.267,0.2,1.934,0.55,2,1.05c0.033,0.233,0.033,0.617,0,1.15c0,0.3,0.083,0.583,0.25,0.85
			C7.65-0.35,8.233,0,8.9,0C8.667-0.167,8.517-0.383,8.45-0.65C8.25-1.15,8.5-1.6,9.2-2z"/>
	</g>
</symbol>
<symbol  id="flash0.ai_x5F_8_x2F_Layer_28_x2F__x3C_Path_x3E__x5F_8" viewBox="-0.046 -12.395 18.362 12.395">
	<g id="Layer_1_15_">
		<linearGradient id="SVGID_11_" gradientUnits="userSpaceOnUse" x1="1.0625" y1="-6.1973" x2="19.8375" y2="-6.1973">
			<stop  offset="0" style="stop-color:#87CDFF"/>
			<stop  offset="1" style="stop-color:#6ED6F5"/>
		</linearGradient>
		<path style="fill-rule:evenodd;clip-rule:evenodd;fill:url(#SVGID_11_);" d="M13.6-2.5c0.2,0.7,0.183,1.3-0.05,1.8L13.15,0
			c0.934-0.767,1.4-1.567,1.4-2.4c0-0.5-0.066-0.9-0.2-1.2c-0.233-0.367-0.417-0.667-0.55-0.9c-0.233-0.4-0.216-0.917,0.05-1.55
			c0.3-0.667,0.783-1.05,1.45-1.15c0.567-0.1,1-0.1,1.3,0c0.2,0.067,0.383,0.184,0.55,0.35l0.3,0.2l-0.2-0.7
			c-0.1-0.533-0.033-0.917,0.2-1.15c0.4-0.333,0.667-0.75,0.8-1.25c0.167-0.6,0.017-1.017-0.45-1.25c-1.233-0.7-3.85-1.15-7.85-1.35
			c-4.5-0.2-7.633,0.267-9.4,1.4c-0.7,0.434-0.783,0.917-0.25,1.45c0.567,0.533,1.633,0.917,3.2,1.15
			C6.267-8.017,7.85-7.267,8.25-6.1C8.45-5.533,8.9-5,9.6-4.5c0.767,0.567,1.566,0.833,2.4,0.8C12.8-3.733,13.333-3.333,13.6-2.5z"
			/>
	</g>
</symbol>
<symbol  id="flash0.ai_x5F_8_x2F_Layer_28_x2F__x3C_Path_x3E__x5F_9" viewBox="0.015 -15.946 24.384 15.946">
	<g id="Layer_1_14_">
		
			<linearGradient id="SVGID_12_" gradientUnits="userSpaceOnUse" x1="215.9907" y1="-16525.4766" x2="230.5206" y2="-16525.4766" gradientTransform="matrix(-0.0258 -0.9997 0.9997 -0.0258 16538.0352 -211.4248)">
			<stop  offset="0" style="stop-color:#54C0FF"/>
			<stop  offset="1" style="stop-color:#0E93F0"/>
		</linearGradient>
		<path style="fill-rule:evenodd;clip-rule:evenodd;fill:url(#SVGID_12_);" d="M23.5-9.65c-0.633,0-1.1-0.317-1.4-0.95
			c-0.367-0.733-0.017-1.483,1.05-2.25c1.167-0.833,1.333-1.483,0.5-1.95c-0.733-0.4-2.35-0.7-4.85-0.9
			c-2.633-0.267-5.85-0.316-9.65-0.15c-3.867,0.167-6.483,0.467-7.85,0.9c-1.133,0.367-1.517,0.817-1.15,1.35
			c0.333,0.467,1.1,0.85,2.3,1.15c2.133,0.5,3.617,1.1,4.45,1.8C7.2-10.417,7.467-9.9,7.7-9.1c0.233,0.767,0.466,1.25,0.7,1.45
			c0.467,0.433,1.133,0.733,2,0.9l-0.45-0.3C9.75-7.183,9.633-7.4,9.6-7.7c0-0.16,0-0.301,0-0.425L10.4-7.6
			c0.767,0.467,1.5,0.767,2.2,0.9c0.4,0.1,1.133,0.117,2.2,0.05c0.467,0,0.867,0.316,1.2,0.95c0.333,0.6,0.2,1.15-0.4,1.65l-1,0.55
			c-1.3,0.967-1.4,1.85-0.3,2.65C14.867-0.483,15.55-0.2,16.35,0c-0.867-0.333-1.3-0.833-1.3-1.5c0-0.6,0.317-1.033,0.95-1.3
			c1.567-0.667,2.383-1.017,2.45-1.05c0.8-0.467,1.167-1.233,1.1-2.3c0-0.533-0.1-1.017-0.3-1.45l0.5,0.45
			c0.367,0.267,0.55,1.133,0.55,2.6c1.167-1.067,1.833-2.167,2-3.3c0.1-0.733-0.1-1.35-0.6-1.85l-0.8-0.55l1.15,0.55
			c0.733,0.367,1.517,0.383,2.35,0.05H23.5z"/>
	</g>
</symbol>
<use xlink:href="#flash0.ai_x5F_8_x2F_Layer_28_x2F__x3C_Path_x3E__x5F_25"  width="14.6" height="3.85" y="-3.85" transform="matrix(1 0 0 -1 8.9502 41.7002)" style="overflow:visible;opacity:0.4492;enable-background:new    ;"/>
<use xlink:href="#flash0.ai_x5F_8_x2F_Layer_28_x2F__x3C_Path_x3E__x5F_24"  width="14.6" height="6.75" y="-6.75" transform="matrix(1 0 0 -1 8.9502 38.1504)" style="overflow:visible;opacity:0.7383;enable-background:new    ;"/>
<use xlink:href="#flash0.ai_x5F_8_x2F_Layer_28_x2F__x3C_Path_x3E__x5F_23"  width="14.6" height="6.15" y="-6.15" transform="matrix(1 0 0 -1 8.9502 38.75)" style="overflow:visible;opacity:0.2109;enable-background:new    ;"/>
<use xlink:href="#flash0.ai_x5F_8_x2F_Layer_28_x2F__x3C_Path_x3E__x5F_22"  width="3.213" height="1.9" x="0.009" y="-1.9" transform="matrix(1 0 0 -1 14.6499 38.2002)" style="overflow:visible;opacity:0.4219;enable-background:new    ;"/>
<use xlink:href="#flash0.ai_x5F_8_x2F_Layer_28_x2F__x3C_Path_x3E__x5F_21"  width="2.85" height="14.8" y="-14.8" transform="matrix(1 0 0 -1 14.7998 24.1001)" style="overflow:visible;opacity:0.6914;enable-background:new    ;"/>
<path style="fill-rule:evenodd;clip-rule:evenodd;fill:#B4CFE0;" d="M17.7,24.25c-0.333,0.233-0.517,0.983-0.55,2.25v12.05
	c0,0.3-0.25,0.467-0.75,0.5v0.05h-0.15V38.9L16.2,39.1l-0.15-0.05c-0.5-0.033-0.75-0.184-0.75-0.45V26.5
	c-0.033-1.267-0.216-2.017-0.55-2.25l0.1-0.3l1.4,0.5l1.35-0.5L17.7,24.25z M16.35,38.75c0.233-0.033,0.417-0.116,0.55-0.25
	c-0.033-6.333-0.033-10.333,0-12c0-0.967,0.117-1.65,0.35-2.05l-1,0.35l-1-0.35c0.2,0.466,0.3,1.15,0.3,2.05
	c0.034,1.667,0.034,5.667,0,12c0.133,0.134,0.317,0.217,0.55,0.25H16.35z"/>
<path style="fill-rule:evenodd;clip-rule:evenodd;fill:#B4CFE0;" d="M16.2,24.65c0.5,0.033,0.867-0.017,1.1-0.15l-0.2,0.8
	l-0.05,1.95l-0.1-1c-0.034-0.433-0.15-0.75-0.35-0.95c-0.233-0.167-0.483-0.183-0.75-0.05c-0.2,0.133-0.333,0.4-0.4,0.8
	c0,0.059,0,0.117,0,0.175c-0.02-0.256-0.07-0.564-0.15-0.925l-0.2-0.75L16.2,24.65z"/>
<use xlink:href="#flash0.ai_x5F_8_x2F_Layer_28_x2F__x3C_Path_x3E__x5F_19"  width="1.819" height="2.529" x="-0.026" y="-2.564" transform="matrix(1 0 0 -1 9.1001 40.5996)" style="overflow:visible;opacity:0.6211;enable-background:new    ;"/>
<use xlink:href="#flash0.ai_x5F_8_x2F_Layer_28_x2F__x3C_Path_x3E__x5F_18"  width="0.68" height="0.506" x="-0.033" y="-0.506" transform="matrix(1 0 0 -1 11.2002 43.2998)" style="overflow:visible;opacity:0.6211;enable-background:new    ;"/>
<use xlink:href="#flash0.ai_x5F_8_x2F_Layer_28_x2F__x3C_Path_x3E__x5F_17"  width="2.253" height="2.512" y="-2.45" transform="matrix(1 0 0 -1 21.1499 40.9502)" style="overflow:visible;opacity:0.6211;enable-background:new    ;"/>
<use xlink:href="#flash0.ai_x5F_8_x2F_Layer_28_x2F__x3C_Path_x3E__x5F_16"  width="31.45" height="6.6" y="-6.6" transform="matrix(1 0 0 -1 0.6001 9.2002)" style="overflow:visible;opacity:0.3906;enable-background:new    ;"/>
<linearGradient id="SVGID_13_" gradientUnits="userSpaceOnUse" x1="-24.4287" y1="16.2271" x2="-17.9037" y2="16.2271" gradientTransform="matrix(1.532567e-004 -1 1 -0.001 2.278420e-005 6.021140e-005)">
	<stop  offset="0" style="stop-color:#FFC83D"/>
	<stop  offset="1" style="stop-color:#F73A00"/>
</linearGradient>
<path style="fill-rule:evenodd;clip-rule:evenodd;fill:url(#SVGID_13_);" d="M20.35,21.5c-0.3,0.233-0.633,0.483-1,0.75
	c-0.7,0.567-1.133,0.967-1.3,1.2c-0.133,0.167-0.3,0.433-0.5,0.8c-0.233,0.267-0.583,0.417-1.05,0.45
	c-0.467,0.033-0.85-0.067-1.15-0.3c-0.1-0.066-0.35-0.316-0.75-0.75c-0.8-0.867-1.9-1.783-3.3-2.75l-7-4.9H28.15L20.35,21.5z"/>
<linearGradient id="SVGID_14_" gradientUnits="userSpaceOnUse" x1="-27.3979" y1="-17.7979" x2="-4.3188" y2="-17.7979" gradientTransform="matrix(-0.9825 0.1863 -0.1863 -0.9825 1.015663e-004 -2.642274e-004)">
	<stop  offset="0" style="stop-color:#FFC83D"/>
	<stop  offset="1" style="stop-color:#F73A00"/>
</linearGradient>
<path style="fill-rule:evenodd;clip-rule:evenodd;fill:url(#SVGID_14_);" d="M29,15c0,0.767-1.233,1.433-3.7,2
	c-2.5,0.533-5.5,0.8-9,0.8c-3.533,0-6.533-0.267-9-0.8c-2.5-0.567-3.75-1.233-3.75-2s1.25-1.417,3.75-1.95c2.5-0.533,5.5-0.8,9-0.8
	s6.5,0.267,9,0.8C27.767,13.583,29,14.233,29,15z"/>
<use xlink:href="#flash0.ai_x5F_8_x2F_Layer_28_x2F__x3C_Path_x3E__x5F_13"  width="11.4" height="7.316" y="-7.316" transform="matrix(1 0 0 -1 5.8999 15.2998)" style="overflow:visible;opacity:0.3594;enable-background:new    ;"/>
<use xlink:href="#flash0.ai_x5F_8_x2F_Layer_28_x2F__x3C_Path_x3E__x5F_12"  width="8.549" height="6.059" x="0.051" y="-6.059" transform="matrix(1 0 0 -1 17.7998 15.3501)" style="overflow:visible;opacity:0.3516;enable-background:new    ;"/>
<use xlink:href="#flash0.ai_x5F_8_x2F_Layer_28_x2F__x3C_Path_x3E__x5F_11"  width="31.3" height="11.502" x="0.35" y="-11.752" transform="matrix(1 0 0 -1 0.2002 12.9502)" style="overflow:visible;opacity:0.2109;enable-background:new    ;"/>
<path style="fill-rule:evenodd;clip-rule:evenodd;fill:#B4CFE0;" d="M31.35,12.45c-0.1-0.867-1.616-1.6-4.55-2.2
	c-2.933-0.6-6.45-0.9-10.55-0.9s-7.633,0.3-10.6,0.9c-2.933,0.6-4.433,1.333-4.5,2.2h-1.1c0.333-0.967,2.05-1.767,5.15-2.4
	c3.1-0.667,6.767-1,11-1c4.267,0,7.95,0.333,11.05,1c3.066,0.633,4.767,1.434,5.1,2.4H31.35z"/>
<use xlink:href="#flash0.ai_x5F_8_x2F_Layer_28_x2F__x3C_Path_x3E__x5F_9"  width="24.384" height="15.946" x="0.015" y="-15.946" transform="matrix(1 0 0 -1 4.2998 0)" style="overflow:visible;opacity:0.6797;enable-background:new    ;"/>
<use xlink:href="#flash0.ai_x5F_8_x2F_Layer_28_x2F__x3C_Path_x3E__x5F_8"  width="18.362" height="12.395" x="-0.046" y="-12.395" transform="matrix(1 0 0 -1 6.5498 4.9502)" style="overflow:visible;opacity:0.3984;enable-background:new    ;"/>
<use xlink:href="#flash0.ai_x5F_8_x2F_Layer_28_x2F__x3C_Path_x3E__x5F_7"  width="13.184" height="7.245" x="-0.006" y="-7.245" transform="matrix(1 0 0 -1 10.4502 8.7998)" style="overflow:visible;opacity:0.7188;enable-background:new    ;"/>
<path style="fill-rule:evenodd;clip-rule:evenodd;fill:#B4CFE0;" d="M29.25,14.9l-1.15,0.4c-2.667,0.667-6.6,1.117-11.8,1.35h-1.65
	c-3.767-0.066-6.967-0.417-9.6-1.05c-0.466-0.1-1.25-0.45-2.35-1.05c4.233,3.133,6.816,5,7.75,5.6c2.333,1.533,3.816,2.767,4.45,3.7
	c0.3,0.433,0.733,0.65,1.3,0.65h0.15c0.467,0,0.85-0.217,1.15-0.65c0.633-0.934,2.117-2.167,4.45-3.7
	C23.283,19.25,25.717,17.5,29.25,14.9z M22.1,20.5c-2.233,1.467-3.684,2.65-4.35,3.55c-0.4,0.567-0.867,0.85-1.4,0.85l-0.15-0.05
	l-0.15,0.05c-0.533,0-1-0.283-1.4-0.85c-0.633-0.9-2.083-2.083-4.35-3.55c-1.733-1.167-5.133-3.633-10.2-7.4l-0.05-0.05v-0.3H0.2
	l0.7,0.35c2.033,1.233,3.434,1.933,4.2,2.1c2.967,0.7,6.15,1.05,9.55,1.05l1.65,0.05c5.233-0.233,9.15-0.7,11.75-1.4
	c0.934-0.233,2.2-0.883,3.8-1.95c0.167-0.133,0.284-0.2,0.351-0.2h0.149v0.3L32.3,13.1C27.233,16.867,23.833,19.333,22.1,20.5z"/>
<path style="fill-rule:evenodd;clip-rule:evenodd;fill:#B4CFE0;" d="M31.35,12.45h1l0.101,0.3c0,1-1.584,1.867-4.75,2.6
	c-3.2,0.7-7.034,1.05-11.5,1.05c-4.467,0-8.284-0.35-11.45-1.05C1.583,14.617,0,13.75,0,12.75l0.05-0.3h1.1L1.1,12.5
	c0,0.867,1.483,1.617,4.45,2.25c2.967,0.6,6.534,0.9,10.7,0.9s7.733-0.3,10.7-0.9c2.934-0.633,4.399-1.383,4.399-2.25V12.45z"/>
<path style="fill-rule:evenodd;clip-rule:evenodd;fill:#DFF7F7;" d="M16.2,32c0,3.6-0.067,5.4-0.2,5.4c-0.1,0-0.15-1.801-0.15-5.4
	c0-3.634,0.05-5.45,0.15-5.45C16.133,26.55,16.2,28.366,16.2,32z"/>
<use xlink:href="#flash0.ai_x5F_8_x2F_Layer_28_x2F__x3C_Path_x3E__x5F_4"  width="0.2" height="12.5" y="-12.5" transform="matrix(1 0 0 -1 16.5498 25.8501)" style="overflow:visible;opacity:0.2891;enable-background:new    ;"/>
<path style="fill-rule:evenodd;clip-rule:evenodd;fill:#B4CFE0;" d="M9.7,40.15C9.167,40.717,8.9,41.3,8.9,41.9
	c0,0.12,0.008,0.229,0.025,0.324C8.678,41.372,8.803,40.697,9.3,40.2c0.7-0.667,1.883-1.217,3.55-1.65
	c0.867-0.233,1.65-0.399,2.35-0.5c0.1,0.167,0.1,0.25,0,0.25c-0.467-0.1-1.367,0.066-2.7,0.5C11.067,39.233,10.133,39.684,9.7,40.15
	z"/>
<path style="fill-rule:evenodd;clip-rule:evenodd;fill:#B4CFE0;" d="M17.45,38c0.333,0.033,0.917,0.167,1.75,0.4
	c1.718,0.452,2.876,0.96,3.475,1.524c-0.26-0.184-0.818-0.441-1.675-0.774c-0.733-0.301-1.6-0.551-2.6-0.75l-1.25-0.15v-0.2
	L17.45,38z"/>
<use xlink:href="#flash0.ai_x5F_8_x2F_Layer_28_x2F__x3C_Path_x3E__x5F_1"  width="2.664" height="3.095" x="-0.026" y="-3.095" transform="matrix(1 0 0 -1 22.75 7.2998)" style="overflow:visible;opacity:0.3984;enable-background:new    ;"/>
<use xlink:href="#flash0.ai_x5F_8_x2F_Layer_28_x2F__x3C_Path_x3E_"  width="2.005" height="2.203" x="-0.044" y="-2.203" transform="matrix(1 0 0 -1 12.5 8.7998)" style="overflow:visible;opacity:0.3984;enable-background:new    ;"/>
</svg>
