<?xml version="1.0" encoding="iso-8859-1"?>
<!-- Generator: Adobe Illustrator 15.1.0, SVG Export Plug-In . SVG Version: 6.00 Build 0)  -->
<!DOCTYPE svg PUBLIC "-//W3C//DTD SVG 1.1//EN" "http://www.w3.org/Graphics/SVG/1.1/DTD/svg11.dtd">
<svg version="1.1" id="flash0.ai" xmlns="http://www.w3.org/2000/svg" xmlns:xlink="http://www.w3.org/1999/xlink" x="0px" y="0px"
	 width="53.15px" height="40.25px" viewBox="0 0 53.15 40.25" style="enable-background:new 0 0 53.15 40.25;" xml:space="preserve"
	>
<symbol  id="flash0.ai_x5F_2_x2F_Layer_4_copy_x2F__x3C_Path_x3E__x5F_11" viewBox="0 -27.35 32.45 27.35">
	<g id="Layer_1_4_">
		<path style="fill-rule:evenodd;clip-rule:evenodd;fill:#D4E8FF;" d="M32.45,0L28.1-23.1H28l0.1-0.5c0-1.033-1.15-1.917-3.45-2.65
			c-2.333-0.733-5.133-1.1-8.4-1.1s-6.067,0.367-8.4,1.1c-2.3,0.733-3.45,1.617-3.45,2.65l0.1,0.5H4.4L0,0
			c0.833-1.167,2.75-2.117,5.75-2.85C8.817-3.617,12.317-4,16.25-4s7.417,0.383,10.45,1.15C29.7-2.117,31.617-1.167,32.45,0z"/>
	</g>
</symbol>
<symbol  id="flash0.ai_x5F_2_x2F_Layer_4_copy_x2F__x3C_Path_x3E__x5F_12" viewBox="0 -33.2 32.292 33.196">
	<g id="Layer_1_3_">
		
			<linearGradient id="SVGID_1_" gradientUnits="userSpaceOnUse" x1="-675.9395" y1="-753.5767" x2="-645.6505" y2="-753.5767" gradientTransform="matrix(0.9962 -0.0867 0.0867 0.9962 738.8662 676.9648)">
			<stop  offset="0" style="stop-color:#555D66"/>
			<stop  offset="1" style="stop-color:#FFFFFF"/>
		</linearGradient>
		<path style="fill-rule:evenodd;clip-rule:evenodd;fill:url(#SVGID_1_);" d="M28.1-1.6c2.533-0.733,3.9-1.55,4.1-2.45
			c0.267-1.333-0.05-3.717-0.95-7.15L28-30.2c-0.5-0.5-1.3-1-2.4-1.5c-2.2-1-4.817-1.5-7.85-1.5c-5.767,0-9.617,0.467-11.55,1.4
			c-0.534,0.233-0.967,0.583-1.3,1.05l-0.4,0.6L0-4.65C0.133-4.25,0.467-3.8,1-3.3c1,0.966,2.417,1.633,4.25,2
			c5.9,1.2,10.983,1.566,15.25,1.1C23.567-0.567,26.1-1.033,28.1-1.6z"/>
	</g>
</symbol>
<symbol  id="flash0.ai_x5F_2_x2F_Layer_4_copy_x2F__x3C_Path_x3E__x5F_16" viewBox="0 -21.75 6.15 21.75">
	<g id="Layer_1_2_">
		
			<linearGradient id="SVGID_2_" gradientUnits="userSpaceOnUse" x1="1190.7729" y1="-17375.1055" x2="1209.9534" y2="-17375.1055" gradientTransform="matrix(-0.1369 -0.9906 0.9906 -0.1369 17377.6973 -1200.1035)">
			<stop  offset="0" style="stop-color:#748FAD"/>
			<stop  offset="1" style="stop-color:#FFFFFF"/>
		</linearGradient>
		<path style="fill-rule:evenodd;clip-rule:evenodd;fill:url(#SVGID_2_);" d="M0,0l4.65-1.35l1.5-2.15l-0.75-6L2.75-21.75l-1,0.4
			c-0.667,0.233-1.083,0.517-1.25,0.85c1,3.1,1.633,7.517,1.9,13.25C2.5-4.683,2.133-2.7,1.3-1.3C0.867-0.633,0.433-0.2,0,0z"/>
	</g>
</symbol>
<symbol  id="flash0.ai_x5F_2_x2F_Layer_4_copy_x2F__x3C_Path_x3E__x5F_7" viewBox="0 -25 5.25 25">
	<g id="Layer_1_5_">
		
			<linearGradient id="SVGID_3_" gradientUnits="userSpaceOnUse" x1="-674.8701" y1="-750.3604" x2="-671.9843" y2="-750.3604" gradientTransform="matrix(0.9962 -0.0866 0.0866 0.9962 738.5488 676.6982)">
			<stop  offset="0" style="stop-color:#FFFFFF"/>
			<stop  offset="1" style="stop-color:#FFFFFF;stop-opacity:0"/>
		</linearGradient>
		<polygon style="fill-rule:evenodd;clip-rule:evenodd;fill:url(#SVGID_3_);" points="3,-0.85 5.25,0 1.5,-24.6 0,-25 		"/>
	</g>
</symbol>
<g>
	<g>
		
			<use xlink:href="#flash0.ai_x5F_2_x2F_Layer_4_copy_x2F__x3C_Path_x3E__x5F_16"  width="6.15" height="21.75" y="-21.75" transform="matrix(-0.6174 0 0 -0.6174 18.6499 6.5)" style="overflow:visible;opacity:0.6719;enable-background:new    ;"/>
		<path style="fill-rule:evenodd;clip-rule:evenodd;fill:#DEEDFF;" d="M22.084,7.636l0.617-0.988l-2.161-0.617
			c-0.905-0.247-2.109-0.175-3.611,0.216c-0.741,0.206-1.183,0.494-1.327,0.864c-0.103,0.247,0.237,0.35,1.019,0.309l3.087,0.371
			l2.068-0.154H22.084z"/>
		<path style="fill-rule:evenodd;clip-rule:evenodd;fill:#CCE4FF;" d="M18.688,8.191c0.392,0.185,0.762,0.35,1.111,0.494
			l0.432,0.124l1.235-0.941c-0.313-0.002-0.848-0.151-1.605-0.448c-1.605-0.617-2.758-0.895-3.458-0.833
			C15.417,6.71,14.892,7.45,14.83,8.809c-0.062,1.235,0.185,3.283,0.741,6.143c0.268,1.461,0.586,3.035,0.957,4.722
			c0.062,0.371,0.154,0.505,0.278,0.401c0.124-0.103,0.083-0.668-0.124-1.698c-0.514-2.613-0.833-4.352-0.957-5.216
			c-0.37-2.408-0.433-3.941-0.185-4.599C15.911,7.45,16.96,7.327,18.688,8.191z M21.467,7.867c0.074,0.006,0.136,0.001,0.185-0.015
			l0.124-0.216L21.467,7.867z"/>
		<path style="fill-rule:evenodd;clip-rule:evenodd;fill:#98A7B8;" d="M20.17,7.419l0.062,1.389
			c0.309-0.062,0.617-0.165,0.926-0.309c0.988-0.309,1.482-0.545,1.482-0.71l0.061-1.142C21.981,6.648,21.138,6.905,20.17,7.419z"/>
		
			<use xlink:href="#flash0.ai_x5F_2_x2F_Layer_4_copy_x2F__x3C_Path_x3E__x5F_12"  width="32.292" height="33.196" y="-33.2" transform="matrix(-0.6174 0 0 -0.6174 37.5 4.9502)" style="overflow:visible;opacity:0.5;enable-background:new    ;"/>
		
			<use xlink:href="#flash0.ai_x5F_2_x2F_Layer_4_copy_x2F__x3C_Path_x3E__x5F_11"  width="32.45" height="27.35" y="-27.35" transform="matrix(-0.6174 0 0 -0.6174 37.5 8.7998)" style="overflow:visible;opacity:0.25;enable-background:new    ;"/>
		
			<linearGradient id="SVGID_4_" gradientUnits="userSpaceOnUse" x1="4.8076" y1="9.8994" x2="31.0879" y2="9.8994" gradientTransform="matrix(-0.615 0.0535 0.0535 0.615 37.9506 4.95)">
			<stop  offset="0" style="stop-color:#FFFFFF"/>
			<stop  offset="1" style="stop-color:#DEDDB4"/>
		</linearGradient>
		<path style="fill-rule:evenodd;clip-rule:evenodd;fill:url(#SVGID_4_);" d="M19.275,11.741l9.014,5.927l7.191-6.853
			c-0.473-0.165-1.05-0.525-1.729-1.08c-0.35-0.289-0.823-0.597-1.42-0.926c-0.473-0.288-0.762-0.494-0.864-0.617
			s-0.175-0.237-0.216-0.339c-0.062-0.062-0.35-0.165-0.864-0.309c-0.597-0.185-0.916-0.288-0.957-0.309s-0.195-0.165-0.463-0.432
			c-0.309-0.309-1.08-0.463-2.315-0.463c-0.494,0-0.957,0.082-1.389,0.247c-0.33,0.124-0.865,0.381-1.605,0.772
			c-0.577,0.329-1.081,0.71-1.513,1.142c-0.041,0.042-0.391,0.453-1.049,1.235L19.275,11.741z"/>
		
			<linearGradient id="SVGID_5_" gradientUnits="userSpaceOnUse" x1="5.1299" y1="19.5088" x2="30.7019" y2="19.5088" gradientTransform="matrix(-0.615 0.0537 0.0537 0.615 37.9501 4.9502)">
			<stop  offset="0" style="stop-color:#E8E6CC"/>
			<stop  offset="1" style="stop-color:#B8B695"/>
		</linearGradient>
		<path style="fill-rule:evenodd;clip-rule:evenodd;fill:url(#SVGID_5_);" d="M22.516,12.543c-0.411-0.309-1.553-0.576-3.426-0.802
			l2.068,11.112c0.103,0.288,0.442,0.576,1.019,0.864c1.173,0.597,2.974,0.927,5.402,0.987c2.448,0.062,4.218-0.123,5.309-0.556
			l0.926-0.679l2.038-12.532c-0.083,0.144-0.288,0.227-0.617,0.247c-0.351,0.021-0.587,0.093-0.71,0.216
			c-0.269,0.247-0.433,0.38-0.494,0.401c-0.124,0.083-0.34,0.175-0.648,0.278c-0.453,0.124-0.813,0.154-1.08,0.093
			c-0.247,0.021-0.483,0.103-0.71,0.247c-0.268,0.185-0.515,0.309-0.741,0.37c-0.474,0.144-1.143,0.216-2.007,0.216
			c-0.391,0.042-0.658,0.031-0.802-0.031c-0.083-0.021-0.237-0.103-0.463-0.247c-0.639-0.227-1.194-0.34-1.667-0.34
			c-0.185,0-0.473,0.113-0.864,0.34c-0.432,0.226-0.71,0.35-0.833,0.371C23.679,13.182,23.113,12.996,22.516,12.543z"/>
		
			<linearGradient id="SVGID_6_" gradientUnits="userSpaceOnUse" x1="3.8008" y1="20.75" x2="14.3013" y2="20.75" gradientTransform="matrix(-0.6174 0 0 0.6174 37.9507 4.9501)">
			<stop  offset="0" style="stop-color:#FFFFFF"/>
			<stop  offset="1" style="stop-color:#FFFFFF;stop-opacity:0"/>
		</linearGradient>
		<path style="fill-rule:evenodd;clip-rule:evenodd;fill:url(#SVGID_6_);" d="M35.604,9.889l-6.421,0.771l-0.062,14.971
			c1.132-0.062,2.027-0.145,2.686-0.247c0.432-0.062,0.792-0.216,1.08-0.463l0.309-0.371L35.604,9.889z"/>
		
			<use xlink:href="#flash0.ai_x5F_2_x2F_Layer_4_copy_x2F__x3C_Path_x3E__x5F_7"  width="5.25" height="25" y="-25" transform="matrix(-0.6174 0 0 -0.6174 22.9502 8.8999)" style="overflow:visible;opacity:0.4883;enable-background:new    ;"/>
		
			<linearGradient id="SVGID_7_" gradientUnits="userSpaceOnUse" x1="3.4873" y1="14.25" x2="9.3123" y2="14.25" gradientTransform="matrix(-0.6174 0 0 0.6174 37.9507 4.9501)">
			<stop  offset="0" style="stop-color:#CCE4FF"/>
			<stop  offset="1" style="stop-color:#FFFFFF"/>
		</linearGradient>
		<path style="fill-rule:evenodd;clip-rule:evenodd;fill:url(#SVGID_7_);" d="M34.555,16.649c0.082-0.865,0.236-1.688,0.463-2.47
			l0.771-2.099c-0.926-0.514-1.574-0.844-1.944-0.988s-0.916-0.226-1.636-0.247c0.164,1.132,0.35,2.089,0.556,2.871
			C32.97,14.499,33.567,15.476,34.555,16.649z"/>
		<path style="fill-rule:evenodd;clip-rule:evenodd;fill:#CCE4FF;" d="M20.849,9.796c-1.852-0.515-2.778-1.142-2.778-1.883
			c0-0.72,0.926-1.348,2.778-1.883c1.852-0.515,4.085-0.772,6.699-0.772c2.593,0,4.815,0.257,6.667,0.772
			c1.853,0.535,2.778,1.163,2.778,1.883c0,0.659-0.803,1.255-2.407,1.791c-0.104,0.021-0.052,0.257,0.154,0.71
			c0.205,0.411,0.247,0.638,0.123,0.679c-0.185,0.041-0.669-0.093-1.451-0.401c-0.802-0.288-1.307-0.422-1.512-0.401
			c-1.297,0.186-2.747,0.278-4.353,0.278C24.914,10.568,22.681,10.311,20.849,9.796z M20.386,5.876
			c-1.996,0.617-2.994,1.358-2.994,2.222c0,0.885,0.998,1.626,2.994,2.223c1.996,0.617,4.415,0.926,7.254,0.926
			c1.563,0,3.015-0.093,4.353-0.278c0.205-0.021,0.854,0.165,1.944,0.556c1.05,0.412,1.667,0.597,1.852,0.556
			c0.186-0.041,0.145-0.37-0.123-0.988c-0.247-0.617-0.309-0.947-0.186-0.988c1.626-0.514,2.439-1.183,2.439-2.006
			c0-0.864-1.009-1.605-3.025-2.222C32.898,5.259,30.48,4.95,27.641,4.95C24.821,4.95,22.403,5.259,20.386,5.876z"/>
		<path style="fill-rule:evenodd;clip-rule:evenodd;fill:#CCE4FF;" d="M17.393,8.099L17.33,8.129l2.717,14.94l-0.031,0.154
			c0,0.844,0.813,1.522,2.438,2.038c1.461,0.473,3.19,0.709,5.186,0.709c2.017,0,3.745-0.236,5.186-0.709
			c1.626-0.516,2.438-1.194,2.438-2.038v-0.154l2.686-14.94l-0.03-0.031c0,0.432-0.269,0.833-0.803,1.204l-2.408,13.335
			l-0.062,0.123l-0.031,0.278l0.031,0.185c0,0.535-0.648,1.019-1.944,1.451c-1.399,0.453-3.087,0.679-5.063,0.679
			s-3.663-0.226-5.063-0.679c-1.296-0.433-1.945-0.916-1.945-1.451l0.062-0.185l-0.062-0.217l-2.469-13.52
			C17.649,8.912,17.393,8.51,17.393,8.099z"/>
		<path style="fill-rule:evenodd;clip-rule:evenodd;fill:#BD5E27;" d="M22.609,12.266c-0.062-0.474-0.144-0.659-0.247-0.556
			c-0.124,0.103-0.144,0.329-0.062,0.679c0.021,0.124,0.165,2.089,0.432,5.896c0.268,3.664,0.453,5.608,0.556,5.834
			c0.165,0.391,0.257,0.422,0.278,0.093L22.609,12.266z"/>
		<path style="fill-rule:evenodd;clip-rule:evenodd;fill:#BD5E27;" d="M19.862,13.5c0.638,0.268,1.615,0.504,2.933,0.71
			c2.387,0.371,4.681,0.401,6.883,0.093c0.164,0,0.227-0.041,0.185-0.124c-0.04-0.041-0.082-0.062-0.123-0.062
			c-0.021,0-0.041,0.01-0.062,0.031c-1.749,0.206-4.013,0.154-6.791-0.154c-1.049-0.103-1.985-0.319-2.809-0.648l-0.864-0.309
			C19.172,13.161,19.389,13.315,19.862,13.5z"/>
		<path style="fill-rule:evenodd;clip-rule:evenodd;fill:#BD5E27;" d="M29.431,17.39c-1.626,0.145-3.725,0.083-6.297-0.185
			c-0.967-0.103-1.832-0.278-2.593-0.524l-0.802-0.278c-0.041,0.103,0.154,0.237,0.586,0.402c0.618,0.206,1.523,0.391,2.716,0.555
			c2.202,0.309,4.332,0.36,6.39,0.155c0.165,0,0.227-0.031,0.186-0.093L29.431,17.39z"/>
		<path style="fill-rule:evenodd;clip-rule:evenodd;fill:#BD5E27;" d="M29.399,20.384c-1.563,0.144-3.57,0.083-6.019-0.185
			c-0.926-0.104-1.759-0.278-2.5-0.525l-0.771-0.277c-0.021,0.103,0.175,0.236,0.586,0.401c0.597,0.206,1.461,0.392,2.593,0.556
			c2.099,0.309,4.137,0.36,6.111,0.154c0.145,0,0.196-0.031,0.154-0.093L29.399,20.384z"/>
		<path style="fill-rule:evenodd;clip-rule:evenodd;fill:#BD5E27;" d="M29.215,22.978c-1.44,0.144-3.303,0.092-5.587-0.155
			c-0.864-0.103-1.636-0.277-2.315-0.524l-0.71-0.277c-0.042,0.103,0.133,0.226,0.525,0.37c0.514,0.205,1.317,0.401,2.407,0.587
			c1.956,0.288,3.848,0.339,5.68,0.154c0.144,0,0.195-0.041,0.154-0.124L29.215,22.978z"/>
	</g>
	<g>
		
			<use xlink:href="#flash0.ai_x5F_2_x2F_Layer_4_copy_x2F__x3C_Path_x3E__x5F_16"  width="6.15" height="21.75" y="-21.75" transform="matrix(0.6534 0 0 -0.6534 23 10.6499)" style="overflow:visible;opacity:0.6719;enable-background:new    ;"/>
		<path style="fill-rule:evenodd;clip-rule:evenodd;fill:#DEEDFF;" d="M19.394,11.843l-0.653-1.046l2.287-0.653
			c0.958-0.261,2.232-0.185,3.822,0.229c0.784,0.218,1.253,0.523,1.405,0.915c0.108,0.261-0.251,0.371-1.079,0.327l-3.267,0.392
			l-2.189-0.163H19.394z"/>
		<path style="fill-rule:evenodd;clip-rule:evenodd;fill:#CCE4FF;" d="M22.988,12.431c-0.415,0.196-0.806,0.37-1.176,0.522
			l-0.458,0.131l-1.307-0.997c0.331-0.002,0.897-0.16,1.698-0.474c1.7-0.653,2.919-0.948,3.66-0.882
			c1.046,0.131,1.601,0.915,1.666,2.353c0.065,1.307-0.195,3.474-0.784,6.502c-0.283,1.547-0.621,3.212-1.012,4.998
			c-0.066,0.393-0.164,0.534-0.294,0.426c-0.131-0.109-0.087-0.708,0.131-1.798c0.544-2.766,0.882-4.606,1.013-5.521
			c0.392-2.548,0.458-4.171,0.196-4.868C25.928,11.646,24.817,11.516,22.988,12.431z M20.047,12.087
			c-0.079,0.006-0.145,0.001-0.196-0.016l-0.131-0.229L20.047,12.087z"/>
		<path style="fill-rule:evenodd;clip-rule:evenodd;fill:#98A7B8;" d="M21.419,11.614l-0.065,1.47
			c-0.327-0.065-0.653-0.174-0.98-0.327c-1.046-0.327-1.569-0.577-1.569-0.751l-0.065-1.209
			C19.502,10.797,20.396,11.069,21.419,11.614z"/>
		
			<use xlink:href="#flash0.ai_x5F_2_x2F_Layer_4_copy_x2F__x3C_Path_x3E__x5F_12"  width="32.292" height="33.196" y="-33.2" transform="matrix(0.6534 0 0 -0.6534 3.0498 9)" style="overflow:visible;opacity:0.5;enable-background:new    ;"/>
		
			<use xlink:href="#flash0.ai_x5F_2_x2F_Layer_4_copy_x2F__x3C_Path_x3E__x5F_11"  width="32.45" height="27.35" y="-27.35" transform="matrix(0.6534 0 0 -0.6534 3.0498 13.1001)" style="overflow:visible;opacity:0.25;enable-background:new    ;"/>
		
			<linearGradient id="SVGID_8_" gradientUnits="userSpaceOnUse" x1="4.8076" y1="9.8999" x2="31.0889" y2="9.8999" gradientTransform="matrix(0.651 0.0566 -0.0566 0.651 2.6001 8.9996)">
			<stop  offset="0" style="stop-color:#FFFFFF"/>
			<stop  offset="1" style="stop-color:#DEDDB4"/>
		</linearGradient>
		<path style="fill-rule:evenodd;clip-rule:evenodd;fill:url(#SVGID_8_);" d="M22.367,16.188l-9.541,6.273l-7.612-7.253
			c0.501-0.174,1.111-0.555,1.83-1.144c0.37-0.305,0.871-0.631,1.503-0.98c0.501-0.305,0.806-0.522,0.915-0.653
			C9.57,12.3,9.646,12.18,9.69,12.071c0.065-0.065,0.37-0.174,0.915-0.327c0.631-0.196,0.969-0.305,1.013-0.327
			c0.043-0.022,0.207-0.175,0.49-0.458c0.327-0.327,1.144-0.49,2.451-0.49c0.523,0,1.013,0.087,1.47,0.261
			c0.349,0.131,0.915,0.403,1.699,0.817c0.61,0.349,1.144,0.751,1.601,1.209c0.043,0.043,0.414,0.479,1.111,1.307L22.367,16.188z"/>
		
			<linearGradient id="SVGID_9_" gradientUnits="userSpaceOnUse" x1="5.1299" y1="19.5083" x2="30.7019" y2="19.5083" gradientTransform="matrix(0.651 0.0569 -0.0569 0.651 2.6001 8.9998)">
			<stop  offset="0" style="stop-color:#E8E6CC"/>
			<stop  offset="1" style="stop-color:#B8B695"/>
		</linearGradient>
		<path style="fill-rule:evenodd;clip-rule:evenodd;fill:url(#SVGID_9_);" d="M18.936,17.037c0.436-0.327,1.645-0.61,3.626-0.849
			L20.374,27.95c-0.109,0.305-0.469,0.609-1.079,0.915c-1.242,0.631-3.147,0.979-5.718,1.045c-2.592,0.065-4.465-0.131-5.619-0.588
			l-0.98-0.719L4.822,15.338c0.087,0.152,0.305,0.24,0.653,0.261c0.371,0.022,0.621,0.098,0.751,0.229
			c0.283,0.261,0.458,0.403,0.523,0.425c0.13,0.087,0.359,0.185,0.686,0.294c0.479,0.13,0.86,0.163,1.144,0.098
			c0.261,0.021,0.512,0.109,0.751,0.261c0.283,0.196,0.544,0.327,0.784,0.392c0.501,0.152,1.209,0.229,2.124,0.229
			c0.414,0.043,0.697,0.033,0.85-0.033c0.087-0.021,0.25-0.109,0.49-0.261c0.676-0.24,1.264-0.359,1.765-0.359
			c0.196,0,0.501,0.12,0.915,0.359c0.458,0.24,0.751,0.37,0.882,0.392C17.706,17.713,18.304,17.517,18.936,17.037z"/>
		
			<linearGradient id="SVGID_10_" gradientUnits="userSpaceOnUse" x1="3.8003" y1="20.751" x2="14.3003" y2="20.751" gradientTransform="matrix(0.6534 0 0 0.6534 2.6003 8.9999)">
			<stop  offset="0" style="stop-color:#FFFFFF"/>
			<stop  offset="1" style="stop-color:#FFFFFF;stop-opacity:0"/>
		</linearGradient>
		<path style="fill-rule:evenodd;clip-rule:evenodd;fill:url(#SVGID_10_);" d="M5.083,14.228l6.796,0.817l0.065,15.846
			c-1.198-0.065-2.146-0.152-2.842-0.262c-0.458-0.065-0.839-0.229-1.144-0.49l-0.327-0.392L5.083,14.228z"/>
		
			<use xlink:href="#flash0.ai_x5F_2_x2F_Layer_4_copy_x2F__x3C_Path_x3E__x5F_7"  width="5.25" height="25" y="-25" transform="matrix(0.6534 0 0 -0.6534 18.4502 13.2002)" style="overflow:visible;opacity:0.4883;enable-background:new    ;"/>
		
			<linearGradient id="SVGID_11_" gradientUnits="userSpaceOnUse" x1="3.4873" y1="14.2505" x2="9.3123" y2="14.2505" gradientTransform="matrix(0.6534 0 0 0.6534 2.6003 8.9999)">
			<stop  offset="0" style="stop-color:#CCE4FF"/>
			<stop  offset="1" style="stop-color:#FFFFFF"/>
		</linearGradient>
		<path style="fill-rule:evenodd;clip-rule:evenodd;fill:url(#SVGID_11_);" d="M6.194,21.383c-0.087-0.915-0.25-1.786-0.49-2.614
			l-0.817-2.222c0.98-0.544,1.666-0.893,2.058-1.045s0.969-0.24,1.731-0.262c-0.174,1.198-0.37,2.211-0.588,3.039
			C7.872,19.106,7.24,20.141,6.194,21.383z"/>
		<path style="fill-rule:evenodd;clip-rule:evenodd;fill:#CCE4FF;" d="M21.19,9.98c2.113,0.654,3.169,1.438,3.169,2.353
			c0,0.937-1.056,1.721-3.169,2.353c-2.113,0.653-4.672,0.98-7.678,0.98c-1.656,0-3.191-0.098-4.607-0.294
			c-0.218-0.021-0.904,0.174-2.058,0.588c-1.111,0.436-1.765,0.632-1.96,0.588s-0.152-0.392,0.131-1.045
			c0.261-0.653,0.327-1.002,0.196-1.045c-1.721-0.545-2.581-1.253-2.581-2.124c0-0.915,1.067-1.699,3.202-2.353
			C7.947,9.327,10.507,9,13.513,9C16.497,9,19.056,9.327,21.19,9.98z M20.701,14.129c1.96-0.544,2.94-1.208,2.94-1.993
			c0-0.762-0.98-1.426-2.94-1.993c-1.96-0.544-4.324-0.817-7.09-0.817c-2.745,0-5.097,0.272-7.058,0.817
			c-1.96,0.566-2.94,1.23-2.94,1.993c0,0.697,0.85,1.329,2.549,1.896c0.109,0.021,0.054,0.272-0.164,0.751
			c-0.218,0.436-0.262,0.675-0.131,0.719c0.196,0.043,0.708-0.098,1.536-0.425c0.85-0.305,1.383-0.446,1.601-0.424
			c1.372,0.196,2.908,0.294,4.607,0.294C16.398,14.946,18.762,14.674,20.701,14.129z"/>
		<path style="fill-rule:evenodd;clip-rule:evenodd;fill:#CCE4FF;" d="M24.359,12.333l0.066,0.033L21.55,28.179l0.033,0.163
			c0,0.894-0.86,1.611-2.581,2.156c-1.546,0.501-3.376,0.752-5.489,0.752c-2.135,0-3.964-0.251-5.489-0.752
			c-1.721-0.545-2.581-1.263-2.581-2.156v-0.163L2.6,12.365l0.033-0.033c0,0.458,0.283,0.882,0.85,1.274l2.548,14.115l0.065,0.13
			l0.032,0.294l-0.032,0.196c0,0.566,0.686,1.078,2.058,1.536c1.481,0.479,3.267,0.718,5.358,0.718c2.091,0,3.877-0.239,5.358-0.718
			c1.373-0.458,2.059-0.97,2.059-1.536l-0.065-0.196l0.065-0.229l2.614-14.311C24.088,13.193,24.359,12.768,24.359,12.333z"/>
		<path style="fill-rule:evenodd;clip-rule:evenodd;fill:#BD5E27;" d="M18.838,16.743c0.065-0.501,0.152-0.697,0.261-0.588
			c0.131,0.109,0.152,0.349,0.065,0.719c-0.022,0.131-0.174,2.21-0.458,6.24c-0.283,3.877-0.479,5.936-0.588,6.175
			c-0.174,0.414-0.272,0.447-0.294,0.099L18.838,16.743z"/>
		<path style="fill-rule:evenodd;clip-rule:evenodd;fill:#BD5E27;" d="M22.432,17.56c0.044,0.13-0.185,0.294-0.686,0.49
			c-0.675,0.283-1.709,0.533-3.104,0.751c-2.527,0.392-4.955,0.424-7.286,0.098c-0.174,0-0.239-0.043-0.196-0.13
			c0.043-0.043,0.087-0.065,0.13-0.065c0.022,0,0.044,0.011,0.065,0.033c1.852,0.218,4.248,0.163,7.188-0.164
			c1.111-0.109,2.102-0.337,2.974-0.686L22.432,17.56z"/>
		<path style="fill-rule:evenodd;clip-rule:evenodd;fill:#BD5E27;" d="M11.618,22.167c1.721,0.152,3.942,0.087,6.665-0.196
			c1.024-0.109,1.938-0.294,2.745-0.556l0.849-0.294c0.043,0.109-0.163,0.251-0.621,0.425c-0.653,0.218-1.612,0.414-2.875,0.588
			c-2.331,0.327-4.585,0.382-6.763,0.164c-0.174,0-0.24-0.033-0.196-0.099L11.618,22.167z"/>
		<path style="fill-rule:evenodd;clip-rule:evenodd;fill:#BD5E27;" d="M11.65,25.336c1.655,0.152,3.779,0.088,6.371-0.195
			c0.98-0.109,1.862-0.295,2.646-0.557l0.817-0.293c0.021,0.108-0.186,0.25-0.621,0.424c-0.631,0.219-1.546,0.414-2.745,0.589
			c-2.221,0.326-4.378,0.381-6.469,0.163c-0.152,0-0.207-0.032-0.164-0.099L11.65,25.336z"/>
		<path style="fill-rule:evenodd;clip-rule:evenodd;fill:#BD5E27;" d="M11.846,28.081c1.525,0.152,3.496,0.098,5.914-0.164
			c0.915-0.108,1.731-0.294,2.45-0.556l0.751-0.293c0.044,0.108-0.141,0.239-0.555,0.392c-0.544,0.218-1.394,0.425-2.548,0.621
			c-2.069,0.305-4.073,0.358-6.012,0.163c-0.152,0-0.207-0.044-0.163-0.131L11.846,28.081z"/>
	</g>
	<g>
		
			<use xlink:href="#flash0.ai_x5F_2_x2F_Layer_4_copy_x2F__x3C_Path_x3E__x5F_16"  width="6.15" height="21.75" y="-21.75" transform="matrix(-0.7012 0 0 -0.7012 28.5996 10.9502)" style="overflow:visible;opacity:0.6719;enable-background:new    ;"/>
		<path style="fill-rule:evenodd;clip-rule:evenodd;fill:#DEEDFF;" d="M32.479,12.05l0.701-1.122l-2.454-0.701
			c-1.028-0.28-2.396-0.199-4.102,0.246c-0.842,0.233-1.345,0.561-1.508,0.981c-0.116,0.281,0.269,0.397,1.158,0.351l3.506,0.421
			l2.349-0.175H32.479z"/>
		<path style="fill-rule:evenodd;clip-rule:evenodd;fill:#CCE4FF;" d="M28.622,12.681c0.444,0.21,0.864,0.398,1.262,0.561
			l0.491,0.141l1.402-1.069c-0.354-0.002-0.963-0.172-1.823-0.509c-1.823-0.701-3.132-1.017-3.927-0.946
			c-1.122,0.14-1.718,0.981-1.788,2.524c-0.07,1.402,0.21,3.728,0.842,6.977c0.304,1.66,0.666,3.447,1.087,5.364
			c0.07,0.421,0.175,0.573,0.315,0.456s0.094-0.76-0.141-1.928c-0.584-2.969-0.946-4.944-1.086-5.926
			c-0.42-2.735-0.491-4.476-0.21-5.224C25.466,11.84,26.658,11.7,28.622,12.681z M31.777,12.313c0.084,0.007,0.154,0.001,0.21-0.018
			l0.141-0.246L31.777,12.313z"/>
		<path style="fill-rule:evenodd;clip-rule:evenodd;fill:#98A7B8;" d="M30.305,11.805l0.07,1.578
			c0.351-0.07,0.701-0.187,1.052-0.351c1.122-0.351,1.684-0.62,1.684-0.807l0.069-1.297C32.361,10.928,31.403,11.22,30.305,11.805z"
			/>
		
			<use xlink:href="#flash0.ai_x5F_2_x2F_Layer_4_copy_x2F__x3C_Path_x3E__x5F_12"  width="32.292" height="33.196" y="-33.2" transform="matrix(-0.7012 0 0 -0.7012 50 9)" style="overflow:visible;opacity:0.5;enable-background:new    ;"/>
		
			<use xlink:href="#flash0.ai_x5F_2_x2F_Layer_4_copy_x2F__x3C_Path_x3E__x5F_11"  width="32.45" height="27.35" y="-27.35" transform="matrix(-0.7012 0 0 -0.7012 50 13.3999)" style="overflow:visible;opacity:0.25;enable-background:new    ;"/>
		
			<linearGradient id="SVGID_12_" gradientUnits="userSpaceOnUse" x1="4.8086" y1="9.8994" x2="31.0898" y2="9.8994" gradientTransform="matrix(-0.6986 0.0607 0.0607 0.6986 50.5001 8.9999)">
			<stop  offset="0" style="stop-color:#FFFFFF"/>
			<stop  offset="1" style="stop-color:#DEDDB4"/>
		</linearGradient>
		<path style="fill-rule:evenodd;clip-rule:evenodd;fill:url(#SVGID_12_);" d="M29.288,16.713l10.238,6.732l8.169-7.784
			c-0.538-0.187-1.192-0.596-1.964-1.227c-0.397-0.328-0.935-0.678-1.612-1.052c-0.538-0.328-0.865-0.561-0.981-0.702
			c-0.117-0.14-0.199-0.269-0.246-0.385c-0.07-0.07-0.397-0.188-0.981-0.351c-0.678-0.21-1.04-0.327-1.087-0.351
			c-0.047-0.024-0.222-0.188-0.525-0.491c-0.351-0.351-1.228-0.526-2.63-0.526c-0.562,0-1.087,0.094-1.578,0.281
			c-0.374,0.14-0.981,0.432-1.823,0.876c-0.654,0.374-1.227,0.806-1.718,1.297c-0.047,0.047-0.444,0.514-1.192,1.402L29.288,16.713z
			"/>
		
			<linearGradient id="SVGID_13_" gradientUnits="userSpaceOnUse" x1="5.1299" y1="19.5088" x2="30.7019" y2="19.5088" gradientTransform="matrix(-0.6986 0.061 0.061 0.6986 50.5003 9.0002)">
			<stop  offset="0" style="stop-color:#E8E6CC"/>
			<stop  offset="1" style="stop-color:#B8B695"/>
		</linearGradient>
		<path style="fill-rule:evenodd;clip-rule:evenodd;fill:url(#SVGID_13_);" d="M32.97,17.625c-0.468-0.351-1.765-0.654-3.892-0.912
			l2.349,12.622c0.117,0.328,0.503,0.655,1.157,0.982c1.332,0.677,3.377,1.052,6.136,1.122c2.781,0.069,4.791-0.141,6.03-0.632
			l1.052-0.771l2.314-14.234c-0.094,0.164-0.327,0.257-0.701,0.281c-0.397,0.023-0.667,0.105-0.807,0.245
			c-0.304,0.281-0.491,0.433-0.562,0.456c-0.14,0.093-0.385,0.198-0.735,0.315c-0.515,0.14-0.924,0.175-1.228,0.105
			c-0.28,0.023-0.549,0.117-0.807,0.28c-0.304,0.21-0.584,0.351-0.842,0.421c-0.537,0.163-1.297,0.245-2.278,0.245
			c-0.444,0.047-0.748,0.035-0.912-0.035c-0.093-0.023-0.269-0.117-0.525-0.28c-0.725-0.257-1.355-0.386-1.894-0.386
			c-0.21,0-0.537,0.128-0.981,0.386c-0.491,0.257-0.807,0.397-0.947,0.421C34.29,18.35,33.647,18.139,32.97,17.625z"/>
		
			<linearGradient id="SVGID_14_" gradientUnits="userSpaceOnUse" x1="3.7993" y1="20.7505" x2="14.3003" y2="20.7505" gradientTransform="matrix(-0.7012 0 0 0.7012 50.5002 9)">
			<stop  offset="0" style="stop-color:#FFFFFF"/>
			<stop  offset="1" style="stop-color:#FFFFFF;stop-opacity:0"/>
		</linearGradient>
		<path style="fill-rule:evenodd;clip-rule:evenodd;fill:url(#SVGID_14_);" d="M47.836,14.61l-7.293,0.876l-0.07,17.005
			c1.285-0.07,2.303-0.164,3.05-0.281c0.491-0.069,0.9-0.245,1.228-0.525l0.351-0.421L47.836,14.61z"/>
		
			<use xlink:href="#flash0.ai_x5F_2_x2F_Layer_4_copy_x2F__x3C_Path_x3E__x5F_7"  width="5.25" height="25" y="-25" transform="matrix(-0.7012 0 0 -0.7012 33.6504 13.6001)" style="overflow:visible;opacity:0.4883;enable-background:new    ;"/>
		
			<linearGradient id="SVGID_15_" gradientUnits="userSpaceOnUse" x1="3.4873" y1="14.25" x2="9.3123" y2="14.25" gradientTransform="matrix(-0.7012 0 0 0.7012 50.5002 9)">
			<stop  offset="0" style="stop-color:#CCE4FF"/>
			<stop  offset="1" style="stop-color:#FFFFFF"/>
		</linearGradient>
		<path style="fill-rule:evenodd;clip-rule:evenodd;fill:url(#SVGID_15_);" d="M46.644,22.288c0.093-0.981,0.269-1.917,0.525-2.805
			l0.877-2.384c-1.052-0.584-1.788-0.958-2.209-1.122s-1.04-0.257-1.858-0.281c0.188,1.286,0.397,2.373,0.631,3.261
			C44.844,19.846,45.521,20.956,46.644,22.288z"/>
		<path style="fill-rule:evenodd;clip-rule:evenodd;fill:#CCE4FF;" d="M31.076,14.504c-2.104-0.584-3.155-1.297-3.155-2.139
			c0-0.818,1.052-1.531,3.155-2.139c2.104-0.584,4.64-0.876,7.608-0.876c2.945,0,5.47,0.292,7.573,0.876
			c2.104,0.608,3.155,1.321,3.155,2.139c0,0.748-0.912,1.426-2.734,2.034c-0.117,0.023-0.059,0.292,0.175,0.807
			c0.233,0.467,0.281,0.724,0.141,0.771c-0.211,0.047-0.76-0.105-1.648-0.456c-0.911-0.327-1.484-0.479-1.718-0.456
			c-1.473,0.21-3.12,0.316-4.943,0.316C35.692,15.381,33.156,15.089,31.076,14.504z M30.55,10.052c-2.267,0.701-3.4,1.543-3.4,2.524
			c0,1.005,1.134,1.847,3.4,2.524c2.268,0.701,5.015,1.052,8.239,1.052c1.777,0,3.425-0.105,4.944-0.315
			c0.233-0.023,0.97,0.187,2.209,0.631c1.192,0.468,1.894,0.678,2.104,0.631s0.163-0.42-0.141-1.122
			c-0.28-0.701-0.351-1.075-0.21-1.122c1.847-0.584,2.77-1.344,2.77-2.279c0-0.981-1.146-1.823-3.436-2.524
			C44.762,9.351,42.016,9,38.789,9C35.588,9,32.841,9.351,30.55,10.052z"/>
		<path style="fill-rule:evenodd;clip-rule:evenodd;fill:#CCE4FF;" d="M27.149,12.576l-0.07,0.035l3.086,16.969l-0.035,0.176
			c0,0.959,0.923,1.729,2.77,2.314c1.659,0.537,3.623,0.806,5.89,0.806c2.291,0,4.255-0.269,5.891-0.806
			c1.847-0.585,2.77-1.355,2.77-2.314V29.58L50.5,12.611l-0.035-0.035c0,0.491-0.304,0.947-0.911,1.367L46.818,29.09l-0.07,0.14
			l-0.034,0.316l0.034,0.21c0,0.608-0.735,1.157-2.208,1.648c-1.59,0.514-3.507,0.771-5.751,0.771c-2.243,0-4.16-0.257-5.749-0.771
			c-1.473-0.491-2.209-1.04-2.209-1.648l0.069-0.21l-0.069-0.245l-2.805-15.357C27.441,13.5,27.149,13.043,27.149,12.576z"/>
		<path style="fill-rule:evenodd;clip-rule:evenodd;fill:#BD5E27;" d="M33.074,17.31c-0.069-0.538-0.163-0.748-0.28-0.631
			c-0.14,0.117-0.163,0.374-0.07,0.771c0.023,0.14,0.188,2.372,0.491,6.697c0.304,4.16,0.515,6.369,0.631,6.626
			c0.188,0.444,0.292,0.479,0.316,0.105L33.074,17.31z"/>
		<path style="fill-rule:evenodd;clip-rule:evenodd;fill:#BD5E27;" d="M30.199,18.537l-0.98-0.351
			c-0.048,0.14,0.198,0.315,0.735,0.526c0.725,0.304,1.835,0.572,3.331,0.806c2.712,0.421,5.317,0.456,7.818,0.105
			c0.188,0,0.258-0.047,0.211-0.14c-0.047-0.047-0.094-0.07-0.141-0.07c-0.023,0-0.047,0.012-0.07,0.035
			c-1.986,0.234-4.558,0.175-7.713-0.175C32.198,19.156,31.135,18.911,30.199,18.537z"/>
		<path style="fill-rule:evenodd;clip-rule:evenodd;fill:#BD5E27;" d="M40.823,23.13c-1.847,0.163-4.23,0.093-7.152-0.211
			c-1.099-0.117-2.08-0.315-2.945-0.596l-0.911-0.315c-0.047,0.117,0.175,0.269,0.666,0.456c0.701,0.233,1.729,0.443,3.085,0.631
			c2.501,0.351,4.92,0.408,7.258,0.175c0.188,0,0.257-0.035,0.21-0.104L40.823,23.13z"/>
		<path style="fill-rule:evenodd;clip-rule:evenodd;fill:#BD5E27;" d="M40.788,26.53c-1.776,0.164-4.056,0.094-6.837-0.21
			c-1.052-0.117-1.998-0.315-2.84-0.597l-0.877-0.314c-0.023,0.116,0.199,0.268,0.666,0.455c0.679,0.234,1.66,0.444,2.945,0.631
			c2.385,0.351,4.698,0.409,6.942,0.176c0.164,0,0.223-0.035,0.175-0.105L40.788,26.53z"/>
		<path style="fill-rule:evenodd;clip-rule:evenodd;fill:#BD5E27;" d="M40.578,29.476c-1.637,0.164-3.752,0.104-6.347-0.175
			c-0.981-0.117-1.858-0.316-2.63-0.597l-0.806-0.315c-0.047,0.116,0.151,0.257,0.596,0.421c0.584,0.233,1.496,0.456,2.735,0.666
			c2.221,0.327,4.37,0.386,6.451,0.176c0.163,0,0.222-0.047,0.175-0.141L40.578,29.476z"/>
	</g>
	<g>
		
			<use xlink:href="#flash0.ai_x5F_2_x2F_Layer_4_copy_x2F__x3C_Path_x3E__x5F_16"  width="6.15" height="21.75" y="-21.75" transform="matrix(0.8 0 0 -0.8 32.5 15.2002)" style="overflow:visible;opacity:0.6719;enable-background:new    ;"/>
		<path style="fill-rule:evenodd;clip-rule:evenodd;fill:#DEEDFF;" d="M28.06,16.48l-0.8-1.28l2.8-0.8
			c1.174-0.32,2.733-0.227,4.68,0.28c0.96,0.266,1.534,0.64,1.721,1.12c0.133,0.32-0.308,0.454-1.32,0.4l-4,0.48l-2.68-0.2H28.06z"
			/>
		<path style="fill-rule:evenodd;clip-rule:evenodd;fill:#CCE4FF;" d="M32.46,17.2c-0.507,0.24-0.987,0.454-1.44,0.64L30.46,18
			l-1.601-1.22c0.405-0.002,1.099-0.196,2.08-0.58c2.08-0.8,3.573-1.16,4.48-1.08c1.279,0.16,1.959,1.12,2.04,2.88
			c0.079,1.6-0.24,4.253-0.96,7.96c-0.348,1.894-0.761,3.933-1.24,6.119c-0.08,0.48-0.2,0.654-0.36,0.521s-0.106-0.866,0.16-2.2
			c0.667-3.387,1.08-5.64,1.24-6.76c0.479-3.12,0.56-5.106,0.239-5.959C36.06,16.24,34.699,16.08,32.46,17.2z M28.859,16.78
			c-0.096,0.008-0.176,0.001-0.239-0.02l-0.16-0.28L28.859,16.78z"/>
		<path style="fill-rule:evenodd;clip-rule:evenodd;fill:#98A7B8;" d="M30.539,16.2L30.46,18c-0.4-0.08-0.8-0.213-1.2-0.4
			c-1.28-0.4-1.92-0.707-1.92-0.92l-0.08-1.48C28.193,15.2,29.286,15.533,30.539,16.2z"/>
		
			<use xlink:href="#flash0.ai_x5F_2_x2F_Layer_4_copy_x2F__x3C_Path_x3E__x5F_12"  width="32.292" height="33.196" y="-33.2" transform="matrix(0.8 0 0 -0.8 7.8999 13.1001)" style="overflow:visible;opacity:0.5;enable-background:new    ;"/>
		
			<use xlink:href="#flash0.ai_x5F_2_x2F_Layer_4_copy_x2F__x3C_Path_x3E__x5F_11"  width="32.45" height="27.35" y="-27.35" transform="matrix(0.8 0 0 -0.8 7.8501 17.9502)" style="overflow:visible;opacity:0.25;enable-background:new    ;"/>
		
			<linearGradient id="SVGID_16_" gradientUnits="userSpaceOnUse" x1="4.8091" y1="9.8994" x2="31.0889" y2="9.8994" gradientTransform="matrix(0.797 0.0693 -0.0693 0.797 7.4996 13.0001)">
			<stop  offset="0" style="stop-color:#FFFFFF"/>
			<stop  offset="1" style="stop-color:#DEDDB4"/>
		</linearGradient>
		<path style="fill-rule:evenodd;clip-rule:evenodd;fill:url(#SVGID_16_);" d="M31.699,21.8l-11.68,7.68L10.7,20.6
			c0.613-0.213,1.36-0.68,2.24-1.4c0.453-0.373,1.066-0.773,1.84-1.2c0.613-0.374,0.987-0.64,1.12-0.8s0.227-0.307,0.28-0.439
			c0.08-0.08,0.453-0.214,1.12-0.4c0.773-0.24,1.187-0.373,1.24-0.4c0.054-0.027,0.253-0.213,0.6-0.56c0.4-0.4,1.4-0.6,3-0.6
			c0.64,0,1.24,0.107,1.8,0.32c0.427,0.16,1.121,0.493,2.08,1c0.747,0.426,1.4,0.919,1.96,1.48c0.054,0.053,0.507,0.586,1.36,1.6
			L31.699,21.8z"/>
		
			<linearGradient id="SVGID_17_" gradientUnits="userSpaceOnUse" x1="5.1299" y1="19.5093" x2="30.7019" y2="19.5093" gradientTransform="matrix(0.797 0.0696 -0.0696 0.797 7.5003 13)">
			<stop  offset="0" style="stop-color:#E8E6CC"/>
			<stop  offset="1" style="stop-color:#B8B695"/>
		</linearGradient>
		<path style="fill-rule:evenodd;clip-rule:evenodd;fill:url(#SVGID_17_);" d="M27.5,22.84c0.533-0.4,2.013-0.747,4.439-1.04
			l-2.68,14.399c-0.134,0.374-0.573,0.747-1.32,1.121c-1.52,0.772-3.853,1.199-7,1.279c-3.173,0.08-5.466-0.16-6.879-0.721L12.86,37
			l-2.64-16.24c0.107,0.186,0.374,0.293,0.8,0.32c0.453,0.026,0.76,0.12,0.92,0.28c0.347,0.319,0.56,0.493,0.64,0.52
			c0.16,0.106,0.44,0.227,0.84,0.359c0.586,0.16,1.053,0.2,1.4,0.121c0.32,0.026,0.626,0.133,0.92,0.319
			c0.347,0.24,0.667,0.4,0.96,0.48c0.613,0.187,1.48,0.279,2.6,0.279c0.507,0.054,0.854,0.04,1.04-0.04
			c0.106-0.026,0.307-0.133,0.6-0.319c0.827-0.294,1.547-0.44,2.16-0.44c0.24,0,0.613,0.146,1.12,0.44
			c0.56,0.293,0.92,0.453,1.08,0.479C25.993,23.667,26.727,23.427,27.5,22.84z"/>
		
			<linearGradient id="SVGID_18_" gradientUnits="userSpaceOnUse" x1="3.7998" y1="20.75" x2="14.2993" y2="20.75" gradientTransform="matrix(0.8 0 0 0.8 7.5001 13.0001)">
			<stop  offset="0" style="stop-color:#FFFFFF"/>
			<stop  offset="1" style="stop-color:#FFFFFF;stop-opacity:0"/>
		</linearGradient>
		<path style="fill-rule:evenodd;clip-rule:evenodd;fill:url(#SVGID_18_);" d="M10.54,19.4l8.32,1l0.08,19.4
			c-1.466-0.08-2.626-0.187-3.479-0.32c-0.56-0.08-1.027-0.28-1.4-0.601l-0.4-0.479L10.54,19.4z"/>
		
			<use xlink:href="#flash0.ai_x5F_2_x2F_Layer_4_copy_x2F__x3C_Path_x3E__x5F_7"  width="5.25" height="25" y="-25" transform="matrix(0.8 0 0 -0.8 26.9004 19)" style="overflow:visible;opacity:0.4883;enable-background:new    ;"/>
		
			<linearGradient id="SVGID_19_" gradientUnits="userSpaceOnUse" x1="3.4873" y1="14.25" x2="9.3123" y2="14.25" gradientTransform="matrix(0.8 0 0 0.8 7.5001 13.0001)">
			<stop  offset="0" style="stop-color:#CCE4FF"/>
			<stop  offset="1" style="stop-color:#FFFFFF"/>
		</linearGradient>
		<path style="fill-rule:evenodd;clip-rule:evenodd;fill:url(#SVGID_19_);" d="M11.9,28.16c-0.106-1.12-0.307-2.187-0.6-3.2
			l-1-2.721c1.2-0.666,2.04-1.093,2.52-1.279s1.187-0.293,2.12-0.32c-0.213,1.467-0.453,2.707-0.72,3.721
			C13.954,25.373,13.18,26.64,11.9,28.16z"/>
		<path style="fill-rule:evenodd;clip-rule:evenodd;fill:#CCE4FF;" d="M30.26,14.2c2.587,0.8,3.88,1.76,3.88,2.88
			c0,1.146-1.293,2.106-3.88,2.88c-2.587,0.8-5.72,1.2-9.4,1.2c-2.027,0-3.906-0.12-5.64-0.36c-0.266-0.026-1.106,0.213-2.52,0.72
			c-1.36,0.534-2.16,0.773-2.4,0.72c-0.24-0.053-0.187-0.479,0.16-1.279c0.32-0.8,0.4-1.227,0.24-1.28
			c-2.107-0.667-3.16-1.534-3.16-2.6c0-1.12,1.307-2.08,3.92-2.88c2.586-0.8,5.72-1.2,9.4-1.2C24.513,13,27.646,13.4,30.26,14.2z
			 M29.66,19.28c2.399-0.667,3.6-1.48,3.6-2.44c0-0.933-1.2-1.747-3.6-2.44c-2.4-0.667-5.293-1-8.68-1c-3.36,0-6.24,0.333-8.64,1
			c-2.4,0.693-3.6,1.507-3.6,2.44c0,0.854,1.041,1.627,3.12,2.32c0.133,0.026,0.066,0.333-0.2,0.92
			c-0.267,0.533-0.32,0.827-0.16,0.88c0.24,0.053,0.867-0.12,1.88-0.52c1.04-0.373,1.693-0.547,1.96-0.52
			c1.68,0.24,3.56,0.36,5.64,0.36C24.393,20.28,27.286,19.946,29.66,19.28z"/>
		<path style="fill-rule:evenodd;clip-rule:evenodd;fill:#CCE4FF;" d="M34.14,17.08l0.08,0.04l-3.521,19.36l0.04,0.2
			c0,1.094-1.053,1.973-3.159,2.641c-1.894,0.613-4.134,0.919-6.72,0.919c-2.614,0-4.854-0.306-6.72-0.919
			c-2.106-0.668-3.16-1.547-3.16-2.641v-0.2L7.5,17.12l0.04-0.04c0,0.56,0.347,1.08,1.04,1.56l3.12,17.28l0.08,0.159l0.04,0.36
			l-0.04,0.24c0,0.693,0.84,1.32,2.52,1.88c1.813,0.587,4,0.88,6.56,0.88s4.747-0.293,6.56-0.88c1.68-0.56,2.52-1.187,2.52-1.88
			l-0.08-0.24l0.08-0.279l3.2-17.521C33.807,18.133,34.14,17.613,34.14,17.08z"/>
		<path style="fill-rule:evenodd;clip-rule:evenodd;fill:#BD5E27;" d="M27.38,22.479c0.08-0.613,0.187-0.854,0.319-0.72
			c0.16,0.134,0.188,0.427,0.08,0.88c-0.026,0.16-0.213,2.707-0.56,7.64c-0.347,4.747-0.587,7.268-0.72,7.561
			c-0.214,0.507-0.333,0.547-0.36,0.12L27.38,22.479z"/>
		<path style="fill-rule:evenodd;clip-rule:evenodd;fill:#BD5E27;" d="M27.14,25c-3.093,0.479-6.066,0.52-8.92,0.12
			c-0.213,0-0.293-0.054-0.24-0.16c0.053-0.054,0.106-0.08,0.16-0.08c0.027,0,0.054,0.014,0.08,0.04c2.267,0.267,5.2,0.2,8.8-0.2
			c1.359-0.133,2.573-0.413,3.641-0.84l1.119-0.4c0.054,0.16-0.227,0.36-0.84,0.601C30.113,24.427,28.847,24.733,27.14,25z"/>
		<path style="fill-rule:evenodd;clip-rule:evenodd;fill:#BD5E27;" d="M18.54,29.12c2.107,0.187,4.827,0.106,8.16-0.24
			c1.254-0.134,2.374-0.36,3.36-0.68l1.04-0.36c0.053,0.134-0.2,0.307-0.76,0.521c-0.801,0.266-1.974,0.506-3.521,0.72
			c-2.853,0.399-5.613,0.466-8.28,0.2c-0.213,0-0.293-0.041-0.24-0.12L18.54,29.12z"/>
		<path style="fill-rule:evenodd;clip-rule:evenodd;fill:#BD5E27;" d="M18.58,33c2.026,0.187,4.626,0.106,7.8-0.24
			c1.2-0.134,2.28-0.36,3.24-0.681l1-0.359c0.026,0.133-0.228,0.307-0.761,0.52c-0.773,0.268-1.893,0.507-3.359,0.721
			c-2.72,0.399-5.36,0.466-7.92,0.2c-0.187,0-0.254-0.04-0.2-0.121L18.58,33z"/>
		<path style="fill-rule:evenodd;clip-rule:evenodd;fill:#BD5E27;" d="M18.82,36.359c1.867,0.188,4.28,0.12,7.24-0.199
			c1.12-0.134,2.12-0.36,3-0.681l0.92-0.359c0.054,0.133-0.173,0.293-0.68,0.479c-0.667,0.267-1.707,0.521-3.12,0.76
			c-2.534,0.374-4.986,0.44-7.36,0.2c-0.187,0-0.253-0.053-0.2-0.16L18.82,36.359z"/>
	</g>
</g>
</svg>
