<?xml version="1.0" encoding="iso-8859-1"?>
<!-- Generator: Adobe Illustrator 15.1.0, SVG Export Plug-In . SVG Version: 6.00 Build 0)  -->
<!DOCTYPE svg PUBLIC "-//W3C//DTD SVG 1.1//EN" "http://www.w3.org/Graphics/SVG/1.1/DTD/svg11.dtd">
<svg version="1.1" id="flash0.ai" xmlns="http://www.w3.org/2000/svg" xmlns:xlink="http://www.w3.org/1999/xlink" x="0px" y="0px"
	 width="43.35px" height="40.25px" viewBox="0 0 43.35 40.25" style="enable-background:new 0 0 43.35 40.25;" xml:space="preserve"
	>
<symbol  id="flash0.ai_x5F_8_x2F_Layer_7_x2F__x3C_Path_x3E__x5F_16" viewBox="0 -2.95 4.35 2.95">
	<g id="Layer_1_10_">
		<linearGradient id="SVGID_1_" gradientUnits="userSpaceOnUse" x1="-0.0249" y1="-1.4751" x2="4.3252" y2="-1.4751">
			<stop  offset="0" style="stop-color:#FFFCED"/>
			<stop  offset="1" style="stop-color:#E3D998"/>
		</linearGradient>
		<path style="fill-rule:evenodd;clip-rule:evenodd;fill:url(#SVGID_1_);" d="M0-2.25c0.067,0.633,0.3,1.167,0.7,1.6
			C1.133-0.217,1.633,0,2.2,0c0.533,0,1-0.183,1.4-0.55s0.65-0.833,0.75-1.4c-0.5-0.667-1.267-1-2.3-1C1.283-2.95,0.6-2.717,0-2.25z
			"/>
	</g>
</symbol>
<symbol  id="flash0.ai_x5F_8_x2F_Layer_7_x2F__x3C_Path_x3E__x5F_22" viewBox="0 -3.1 4.5 3.1">
	<g id="Layer_1_9_">
		<linearGradient id="SVGID_2_" gradientUnits="userSpaceOnUse" x1="0" y1="-1.5498" x2="4.5" y2="-1.5498">
			<stop  offset="0" style="stop-color:#FFFCED"/>
			<stop  offset="1" style="stop-color:#E3D998"/>
		</linearGradient>
		<path style="fill-rule:evenodd;clip-rule:evenodd;fill:url(#SVGID_2_);" d="M0-2.35C0.067-1.717,0.317-1.167,0.75-0.7
			C1.183-0.233,1.683,0,2.25,0C2.783,0,3.267-0.2,3.7-0.6C4.133-1,4.4-1.5,4.5-2.1c-0.5-0.667-1.3-1-2.4-1
			C1.267-3.1,0.567-2.85,0-2.35z"/>
	</g>
</symbol>
<symbol  id="flash0.ai_x5F_8_x2F_Layer_7_x2F__x3C_Path_x3E__x5F_23" viewBox="-0.002 -11.143 31.002 11.178">
	<g id="Layer_1_8_">
		<path style="fill-rule:evenodd;clip-rule:evenodd;fill:#FF5C2B;" d="M28.25-5.7C28.817-5.3,29.4-5.033,30-4.9
			c0.667,0.133,1-0.017,1-0.45c0-0.367-0.317-0.783-0.95-1.25c-0.8-0.6-1.3-1.066-1.5-1.4c-0.3-0.5-0.05-0.817,0.75-0.95
			c0.4-0.066,0.833-0.083,1.3-0.05c-0.967-0.667-2-0.85-3.1-0.55c-0.7,0.2-0.567,0.867,0.4,2c0.5,0.566,1.05,1.117,1.65,1.65
			c-1.1-0.6-1.783-1-2.05-1.2c-1.933-1.2-3.233-2-3.9-2.4c-1.2-0.7-2.367-1.183-3.5-1.45c-1.233-0.3-2.05-0.25-2.45,0.15
			c-0.367,0.333-0.033,1.2,1,2.6c0.833,1.1,1.633,1.983,2.4,2.65c0.7,0.6,1.717,1.667,3.05,3.2C22.933-2.583,21.817-3,20.75-3.6
			c-0.567-0.333-1.367-0.917-2.4-1.75c-1.267-1.033-2.283-1.816-3.05-2.35c-1.433-1.033-2.883-1.867-4.35-2.5
			c-1.733-0.733-3.017-0.95-3.85-0.65c-1,0.367-0.517,1.35,1.45,2.95C8.917-7.633,10.333-6.667,12.8-5c2.434,1.6,3.767,2.517,4,2.75
			c0.367,0.3,0.65,0.633,0.85,1c0.167,0.367,0.133,0.533-0.1,0.5c-0.767-0.033-2.117-0.583-4.05-1.65
			c-2.167-1.267-3.65-2.1-4.45-2.5c-1.3-0.667-2.917-1.333-4.85-2C2-7.667,0.717-7.933,0.35-7.7c-0.6,0.4-0.434,1.083,0.5,2.05
			c1.367,1.1,2.283,1.933,2.75,2.5c0.667,0.733,1.566,1.3,2.7,1.7c1.034,0.367,1.717,0.434,2.05,0.2c-0.667,0.1-1.6-0.2-2.8-0.9
			C4.283-2.85,3.15-4.133,2.15-6c2.6,0.6,4.517,1.2,5.75,1.8c0.6,0.3,1.767,0.9,3.5,1.8c1.633,0.833,2.867,1.4,3.7,1.7
			c1.066,0.367,1.983,0.6,2.75,0.7c0.8,0.1,1.183-0.017,1.15-0.35c-0.033-0.767-1.317-2.133-3.85-4.1c-3.4-2.367-5.533-3.9-6.4-4.6
			C8.183-9.55,8.267-9.75,9-9.65c0.633,0.066,1.2,0.217,1.7,0.45c1.133,0.633,2.5,1.517,4.1,2.65c0.867,0.667,2.05,1.566,3.55,2.7
			c1,0.733,2.233,1.35,3.7,1.85C23.517-1.5,24.5-1.333,25-1.5C25.9-1.833,25.283-3,23.15-5c-0.767-0.7-1.533-1.567-2.3-2.6
			c-0.6-0.833-0.967-1.4-1.1-1.7c-0.1-0.2,0.167-0.267,0.8-0.2c0.667,0.033,1.233,0.217,1.7,0.55c0.333,0.233,1.333,0.767,3,1.6
			C26.917-6.517,27.917-5.967,28.25-5.7z"/>
	</g>
</symbol>
<symbol  id="flash0.ai_x5F_8_x2F_Layer_7_x2F__x3C_Path_x3E__x5F_47" viewBox="0 -2.25 3.1 2.25">
	<g id="Layer_1_7_">
		<linearGradient id="SVGID_3_" gradientUnits="userSpaceOnUse" x1="0.0127" y1="-1.125" x2="3.0877" y2="-1.125">
			<stop  offset="0" style="stop-color:#FFFCED"/>
			<stop  offset="1" style="stop-color:#E3D998"/>
		</linearGradient>
		<path style="fill-rule:evenodd;clip-rule:evenodd;fill:url(#SVGID_3_);" d="M0-1.7c0.067,0.467,0.233,0.867,0.5,1.2
			C0.8-0.167,1.15,0,1.55,0c0.367,0,0.7-0.15,1-0.45C2.85-0.717,3.033-1.067,3.1-1.5C2.7-2,2.15-2.25,1.45-2.25
			C0.917-2.25,0.433-2.067,0-1.7z"/>
	</g>
</symbol>
<symbol  id="flash0.ai_x5F_8_x2F_Layer_7_x2F__x3C_Path_x3E__x5F_58" viewBox="0 -2.75 3.8 2.75">
	<g id="Layer_1_6_">
		<linearGradient id="SVGID_4_" gradientUnits="userSpaceOnUse" x1="-0.0127" y1="-1.375" x2="3.8123" y2="-1.375">
			<stop  offset="0" style="stop-color:#FFFCED"/>
			<stop  offset="1" style="stop-color:#E3D998"/>
		</linearGradient>
		<path style="fill-rule:evenodd;clip-rule:evenodd;fill:url(#SVGID_4_);" d="M0-2.1C0.033-1.5,0.233-1,0.6-0.6S1.4,0,1.9,0
			c0.467,0,0.883-0.183,1.25-0.55C3.483-0.883,3.7-1.317,3.8-1.85c-0.433-0.6-1.1-0.9-2-0.9C1.033-2.75,0.433-2.533,0-2.1z"/>
	</g>
</symbol>
<symbol  id="flash0.ai_x5F_8_x2F_Layer_7_x2F__x3C_Path_x3E__x5F_59" viewBox="0 -11 38.7 10.955">
	<g id="Layer_1_5_">
		<path style="fill-rule:evenodd;clip-rule:evenodd;" d="M32.15-2.05c4.367-1.667,6.55-3.333,6.55-5c0-1.2-0.333-2.083-1-2.65h-0.55
			c0.667,1.233,0.817,2.2,0.45,2.9c-0.367,0.767-2.317,1.85-5.85,3.25c-1.167,0.466-3.2,0.917-6.1,1.35
			C22.483-1.667,20.267-1.5,19-1.7c-1.767-0.2-3.067-0.35-3.9-0.45c-1.434-0.167-2.7-0.417-3.8-0.75c-3.267-1-5.4-2.317-6.4-3.95
			c-0.733-1.1-1.066-2.483-1-4.15c-0.933,0.433-1.8,0.933-2.6,1.5C0.5-8.933,0.067-8.517,0-8.25L1.1-8.9
			C0.567-7.1,1.733-5.233,4.6-3.3c1.1,0.733,3.2,1.45,6.3,2.15c3.2,0.7,6.133,1.066,8.8,1.1C24.333,0.017,28.483-0.65,32.15-2.05z"
			/>
	</g>
</symbol>
<symbol  id="flash0.ai_x5F_8_x2F_Layer_7_x2F__x3C_Path_x3E__x5F_63" viewBox="0 -13.35 11.8 13.35">
	<g id="Layer_1_4_">
		<path style="fill-rule:evenodd;clip-rule:evenodd;fill:#595959;" d="M11.8-13.35c-2.933,1.3-5.45,3.1-7.55,5.4
			C2.15-5.583,0.733-2.933,0,0l0.35-0.1l0.7-0.45c0.534-1.767,1.333-3.5,2.4-5.2C5.617-9.217,8.4-11.75,11.8-13.35z"/>
	</g>
</symbol>
<symbol  id="flash0.ai_x5F_8_x2F_Layer_7_x2F__x3C_Path_x3E__x5F_64" viewBox="0 -13.95 15.9 13.95">
	<g id="Layer_1_3_">
		<path style="fill-rule:evenodd;clip-rule:evenodd;fill:#595959;" d="M9.35-1.6c2.967,0.467,5.15,1,6.55,1.6
			c-0.3-1-0.75-2.033-1.35-3.1C13.383-5.233,11.6-7.367,9.2-9.5c-1.867-1.667-4.217-3-7.05-4L0-13.95c3.733,1.7,6.35,3.934,7.85,6.7
			C8.583-5.95,9.033-4.733,9.2-3.6C9.233-3.5,9.283-2.833,9.35-1.6z"/>
	</g>
</symbol>
<symbol  id="flash0.ai_x5F_8_x2F_Layer_7_x2F__x3C_Path_x3E__x5F_65" viewBox="0 -13.55 22.5 13.55">
	<g id="Layer_1_2_">
		
			<linearGradient id="SVGID_5_" gradientUnits="userSpaceOnUse" x1="-24.8174" y1="-34.9204" x2="-10.2923" y2="-34.9204" gradientTransform="matrix(1 -0.0034 0.0034 1 28.1753 28.0781)">
			<stop  offset="0" style="stop-color:#FFFFFF"/>
			<stop  offset="1" style="stop-color:#000000"/>
		</linearGradient>
		<path style="fill-rule:evenodd;clip-rule:evenodd;fill:url(#SVGID_5_);" d="M2.45-0.6c4.133-0.9,9.167-1.35,15.1-1.35l4.95,0.1
			l-2.95-11.6c-0.933-0.066-1.667-0.1-2.2-0.1L14.8-13.4c-1.066,0.2-2.216,0.566-3.45,1.1C9.983-11.733,8.867-11.117,8-10.45
			C5.133-8.317,2.95-5.933,1.45-3.3C0.683-2,0.2-0.9,0,0L2.45-0.6z"/>
	</g>
</symbol>
<g>
	<path style="fill-rule:evenodd;clip-rule:evenodd;fill:#D9D9D9;" d="M42.6,11.35l0.2-0.05c-1.2,4.4-3.75,8.017-7.649,10.851
		c-3.967,2.866-8.5,4.3-13.601,4.3c-5.133,0-9.683-1.45-13.65-4.351c-3.933-2.899-6.467-6.566-7.6-11l0.35,0.1
		c1.2,1.066,3.75,1.933,7.65,2.6c3.934,0.7,8.417,1.05,13.45,1.05c4.866,0,9.25-0.333,13.15-1C38.7,13.183,41.267,12.35,42.6,11.35z
		"/>
	
		<use xlink:href="#flash0.ai_x5F_8_x2F_Layer_7_x2F__x3C_Path_x3E__x5F_65"  width="22.5" height="13.55" y="-13.55" transform="matrix(1 0 0 -1 4.2002 12.8999)" style="overflow:visible;opacity:0.7188;enable-background:new    ;"/>
	
		<use xlink:href="#flash0.ai_x5F_8_x2F_Layer_7_x2F__x3C_Path_x3E__x5F_64"  width="15.9" height="13.95" y="-13.95" transform="matrix(1 0 0 -1 25.0498 12.25)" style="overflow:visible;opacity:0.1602;enable-background:new    ;"/>
	
		<use xlink:href="#flash0.ai_x5F_8_x2F_Layer_7_x2F__x3C_Path_x3E__x5F_63"  width="11.8" height="13.35" y="-13.35" transform="matrix(1 0 0 -1 0.2998 11.1001)" style="overflow:visible;opacity:0.3203;enable-background:new    ;"/>
	<linearGradient id="SVGID_6_" gradientUnits="userSpaceOnUse" x1="0.75" y1="9.2002" x2="42.5996" y2="9.2002">
		<stop  offset="0" style="stop-color:#7D7D7D"/>
		<stop  offset="1" style="stop-color:#D4D4D4"/>
	</linearGradient>
	<path style="fill-rule:evenodd;clip-rule:evenodd;fill:url(#SVGID_6_);" d="M36.5,2.8c4.066,1.767,6.1,3.9,6.1,6.4
		s-2.033,4.633-6.1,6.4c-4.1,1.767-9.05,2.65-14.85,2.65c-5.767,0-10.7-0.883-14.8-2.65c-4.067-1.767-6.1-3.9-6.1-6.4
		s2.033-4.633,6.1-6.4c4.1-1.767,9.033-2.65,14.8-2.65C27.45,0.15,32.4,1.033,36.5,2.8z"/>
	<path style="fill-rule:evenodd;clip-rule:evenodd;fill:#F5F5F5;" d="M43.25,8.5h-1.4c-0.267-2.2-2.333-4.05-6.199-5.55
		c-3.9-1.534-8.534-2.3-13.9-2.3c-5.367,0-9.983,0.767-13.85,2.3C4.033,4.45,1.967,6.3,1.7,8.5H0.1C0.567,6.1,2.867,4.083,7,2.45
		S16.017,0,21.65,0C27.283,0,32.167,0.817,36.3,2.45C40.434,4.083,42.75,6.1,43.25,8.5z"/>
	<path style="fill-rule:evenodd;clip-rule:evenodd;fill:#FFF2DE;" d="M7.1,6.8c0.267,0,0.4-0.133,0.4-0.4c0-0.3-0.133-0.45-0.4-0.45
		S6.7,6.1,6.7,6.4C6.7,6.667,6.833,6.8,7.1,6.8z M6,7.8c0.2,0,0.383-0.083,0.55-0.25c0.133-0.167,0.2-0.367,0.2-0.6
		c0-0.534-0.25-0.8-0.75-0.8c-0.533,0-0.8,0.267-0.8,0.8c0,0.233,0.083,0.433,0.25,0.6C5.583,7.717,5.767,7.8,6,7.8z M4.4,9.2
		c0.2,0,0.3-0.1,0.3-0.3c0-0.167-0.1-0.25-0.3-0.25c-0.2,0-0.3,0.083-0.3,0.25C4.1,9.1,4.2,9.2,4.4,9.2z M8.75,5.1
		c-0.467,0-0.7,0.267-0.7,0.8c0,0.5,0.233,0.75,0.7,0.75C9.183,6.65,9.4,6.4,9.4,5.9C9.4,5.367,9.183,5.1,8.75,5.1z M9.95,5.3
		C9.783,5.3,9.7,5.383,9.7,5.55c0,0.2,0.083,0.3,0.25,0.3c0.167,0,0.25-0.1,0.25-0.3C10.2,5.383,10.117,5.3,9.95,5.3z M14.15,5
		c0.167,0,0.25-0.1,0.25-0.3c0-0.167-0.083-0.25-0.25-0.25c-0.167,0-0.25,0.083-0.25,0.25C13.9,4.9,13.983,5,14.15,5z M18.65,4.1
		c0,0.233,0.117,0.35,0.35,0.35c0.267,0,0.4-0.117,0.4-0.35c0-0.267-0.133-0.4-0.4-0.4C18.767,3.7,18.65,3.833,18.65,4.1z
		 M16.1,4.55C16.1,4.183,15.883,4,15.45,4c-0.434,0-0.65,0.183-0.65,0.55s0.217,0.55,0.65,0.55C15.883,5.1,16.1,4.917,16.1,4.55z
		 M24,3.8c0-0.367-0.167-0.55-0.5-0.55c-0.366,0-0.55,0.183-0.55,0.55c0,0.333,0.184,0.5,0.55,0.5C23.833,4.3,24,4.133,24,3.8z
		 M21.3,3.65c0,0.5,0.233,0.75,0.7,0.75c0.434,0,0.65-0.25,0.65-0.75S22.434,2.9,22,2.9C21.533,2.9,21.3,3.15,21.3,3.65z M26.5,3.75
		c-0.3,0-0.45,0.167-0.45,0.5c0,0.3,0.15,0.45,0.45,0.45s0.45-0.15,0.45-0.45C26.95,3.917,26.8,3.75,26.5,3.75z M27.7,3.85
		c-0.233,0-0.351,0.117-0.351,0.35c0,0.267,0.117,0.4,0.351,0.4s0.35-0.133,0.35-0.4C28.05,3.967,27.934,3.85,27.7,3.85z M38.5,8.15
		c0.333,0,0.5-0.217,0.5-0.65c0-0.4-0.167-0.6-0.5-0.6c-0.366,0-0.55,0.2-0.55,0.6C37.95,7.933,38.134,8.15,38.5,8.15z M34.95,5.85
		c0-0.267-0.15-0.4-0.45-0.4c-0.267,0-0.4,0.133-0.4,0.4s0.134,0.4,0.4,0.4C34.8,6.25,34.95,6.117,34.95,5.85z M33.1,5.7
		c0.167,0,0.25-0.117,0.25-0.35c0-0.2-0.083-0.3-0.25-0.3c-0.199,0-0.3,0.1-0.3,0.3C32.8,5.583,32.9,5.7,33.1,5.7z M37.05,5.25
		c-0.233,0-0.434,0.1-0.6,0.3c-0.167,0.2-0.25,0.434-0.25,0.7s0.083,0.483,0.25,0.65c0.166,0.2,0.366,0.3,0.6,0.3
		s0.417-0.1,0.55-0.3c0.167-0.167,0.25-0.383,0.25-0.65C37.85,5.583,37.583,5.25,37.05,5.25z M40.95,10.25c0.3,0,0.45-0.2,0.45-0.6
		s-0.15-0.6-0.45-0.6s-0.45,0.2-0.45,0.6S40.65,10.25,40.95,10.25z M41.3,8.55c0.3,0.233,0.45,0.517,0.45,0.85
		c0,0.8-0.116,1.434-0.35,1.9c-4.334,3.567-7.75,5.434-10.25,5.6c-2.867,0.434-5.334,0.733-7.4,0.9
		c-3.767,0.233-7.483-0.133-11.15-1.1c-3.667-0.967-6.4-1.934-8.2-2.9l-1.6-1.2c-0.4-0.267-0.517-0.9-0.35-1.9
		c0.1-0.534,0.4-1.083,0.9-1.65C3.917,8.383,4.267,7.9,4.4,7.6c0.533-1.3,1.083-1.95,1.65-1.95l1.4,0.05
		C7.483,5.5,7.567,5.3,7.7,5.1c0.233-0.367,0.617-0.533,1.15-0.5c0.8,0.033,1.367,0.117,1.7,0.25L14.05,4
		c0.667-0.2,1.534-0.367,2.6-0.5c1.333-0.133,2.25-0.25,2.75-0.35c1.734-0.333,3.067-0.45,4-0.35c0.3,0.034,0.816,0.15,1.55,0.35
		C25.55,3.317,26.1,3.4,26.6,3.4c1.7,0,3.25,0.217,4.65,0.65c0.566,0.2,1.283,0.45,2.15,0.75c0.666,0.2,1.183,0.3,1.55,0.3
		c0.1,0,0.483-0.083,1.149-0.25c0.434-0.1,0.884-0.033,1.351,0.2c0.8,0.4,1.434,1.25,1.899,2.55l0.101,0.35
		c0.133,0.2,0.383,0.3,0.75,0.3C40.634,8.25,41,8.35,41.3,8.55z"/>
	<linearGradient id="SVGID_7_" gradientUnits="userSpaceOnUse" x1="2.0498" y1="11.0361" x2="40.75" y2="11.0361">
		<stop  offset="0" style="stop-color:#EDDF9F"/>
		<stop  offset="1" style="stop-color:#BFB36B"/>
	</linearGradient>
	<path style="fill-rule:evenodd;clip-rule:evenodd;fill:url(#SVGID_7_);" d="M20.85,18.1c-4.367-0.167-8.667-1.033-12.9-2.6
		c-3.667-1.367-5.633-2.483-5.9-3.35l1.1,0.65C2.617,11,3.783,9.133,6.65,7.2c1.1-0.733,3.2-1.45,6.3-2.15
		c3.2-0.7,6.133-1.066,8.8-1.1c4.634-0.067,8.783,0.6,12.45,2c4.366,1.667,6.55,3.333,6.55,5c0,1.2-0.333,2.083-1,2.65
		c-0.833,0.7-2.833,1.566-6,2.6C29.316,17.633,25.017,18.267,20.85,18.1z"/>
	
		<use xlink:href="#flash0.ai_x5F_8_x2F_Layer_7_x2F__x3C_Path_x3E__x5F_59"  width="38.7" height="10.955" y="-11" transform="matrix(1 0 0 -1 2.0498 3.8999)" style="overflow:visible;opacity:0.1016;enable-background:new    ;"/>
	
		<use xlink:href="#flash0.ai_x5F_8_x2F_Layer_7_x2F__x3C_Path_x3E__x5F_58"  width="3.8" height="2.75" y="-2.75" transform="matrix(1 0 0 -1 8.2002 7.25)" style="overflow:visible;opacity:0.6797;enable-background:new    ;"/>
	<path style="fill-rule:evenodd;clip-rule:evenodd;fill:#FDFAE8;" d="M11.8,9.1c-0.1,0.167-0.283,0.267-0.55,0.3
		C11.383,8.8,11.3,8.333,11,8c-0.187-0.218-0.362-0.376-0.525-0.475L10.6,7.55c0.333,0.133,0.6,0.317,0.8,0.55
		C11.7,8.5,11.833,8.833,11.8,9.1z"/>
	<linearGradient id="SVGID_8_" gradientUnits="userSpaceOnUse" x1="17.8374" y1="5.7749" x2="20.9624" y2="5.7749">
		<stop  offset="0" style="stop-color:#E3DBB6"/>
		<stop  offset="1" style="stop-color:#CFC482"/>
	</linearGradient>
	<path style="fill-rule:evenodd;clip-rule:evenodd;fill:url(#SVGID_8_);" d="M17.8,6.35c0.067-0.467,0.233-0.867,0.5-1.2
		c0.3-0.333,0.667-0.5,1.1-0.5c0.367,0,0.7,0.15,1,0.45c0.3,0.267,0.483,0.617,0.55,1.05c-0.333,0.5-0.883,0.75-1.65,0.75
		C18.667,6.9,18.167,6.717,17.8,6.35z"/>
	<path style="fill-rule:evenodd;clip-rule:evenodd;fill:#FDFAE8;" d="M20.8,6.15c-0.1,0.133-0.25,0.217-0.45,0.25
		c0.1-0.467,0.033-0.85-0.2-1.15c-0.155-0.186-0.296-0.311-0.425-0.375L19.85,4.9c0.233,0.1,0.433,0.25,0.6,0.45
		C20.717,5.683,20.833,5.95,20.8,6.15z"/>
	<linearGradient id="SVGID_9_" gradientUnits="userSpaceOnUse" x1="5.4126" y1="11.2002" x2="8.6876" y2="11.2002">
		<stop  offset="0" style="stop-color:#FFFCED"/>
		<stop  offset="1" style="stop-color:#E3D998"/>
	</linearGradient>
	<path style="fill-rule:evenodd;clip-rule:evenodd;fill:url(#SVGID_9_);" d="M5.4,11.8c0.067-0.5,0.25-0.917,0.55-1.25
		C6.25,10.183,6.617,10,7.05,10c0.4,0,0.75,0.15,1.05,0.45c0.333,0.3,0.533,0.683,0.6,1.15c-0.4,0.533-0.983,0.8-1.75,0.8
		C6.317,12.4,5.8,12.2,5.4,11.8z"/>
	<path style="fill-rule:evenodd;clip-rule:evenodd;fill:#FDFAE8;" d="M8,11.85c0.167-0.5,0.1-0.9-0.2-1.2
		c-0.16-0.192-0.302-0.342-0.425-0.45L7.5,10.25c0.233,0.1,0.45,0.267,0.65,0.5c0.3,0.333,0.417,0.617,0.35,0.85
		C8.433,11.733,8.267,11.817,8,11.85z"/>
	<linearGradient id="SVGID_10_" gradientUnits="userSpaceOnUse" x1="14.7627" y1="8.375" x2="17.1377" y2="8.375">
		<stop  offset="0" style="stop-color:#FFFCED"/>
		<stop  offset="1" style="stop-color:#E3D998"/>
	</linearGradient>
	<path style="fill-rule:evenodd;clip-rule:evenodd;fill:url(#SVGID_10_);" d="M14.75,8.8c0.033-0.367,0.167-0.667,0.4-0.9
		c0.2-0.267,0.467-0.4,0.8-0.4c0.633,0,1.033,0.383,1.2,1.15c-0.3,0.4-0.717,0.6-1.25,0.6C15.433,9.25,15.05,9.1,14.75,8.8z"/>
	<path style="fill-rule:evenodd;clip-rule:evenodd;fill:#FDFAE8;" d="M16.65,8.85c0.1-0.367,0.05-0.667-0.15-0.9L16,7.65l0.25,0.05
		c0.2,0.066,0.367,0.183,0.5,0.35c0.2,0.233,0.283,0.434,0.25,0.6C16.933,8.75,16.817,8.817,16.65,8.85z"/>
	<linearGradient id="SVGID_11_" gradientUnits="userSpaceOnUse" x1="35.6377" y1="9.5996" x2="39.0627" y2="9.5996">
		<stop  offset="0" style="stop-color:#FFFCED"/>
		<stop  offset="1" style="stop-color:#E3D998"/>
	</linearGradient>
	<path style="fill-rule:evenodd;clip-rule:evenodd;fill:url(#SVGID_11_);" d="M35.6,10.2c0.067-0.5,0.267-0.917,0.601-1.25
		c0.333-0.367,0.717-0.55,1.149-0.55c0.434,0,0.801,0.15,1.101,0.45c0.333,0.3,0.533,0.683,0.6,1.15c-0.399,0.533-1,0.8-1.8,0.8
		C36.616,10.8,36.066,10.6,35.6,10.2z"/>
	<path style="fill-rule:evenodd;clip-rule:evenodd;fill:#FDFAE8;" d="M37.8,8.65c0.267,0.1,0.5,0.25,0.7,0.45
		c0.3,0.367,0.417,0.667,0.35,0.9c-0.066,0.133-0.233,0.217-0.5,0.25c0.167-0.5,0.101-0.9-0.199-1.2
		c-0.16-0.191-0.318-0.333-0.476-0.425L37.8,8.65z"/>
	<linearGradient id="SVGID_12_" gradientUnits="userSpaceOnUse" x1="32.2373" y1="10.9248" x2="35.3623" y2="10.9248">
		<stop  offset="0" style="stop-color:#FFFCED"/>
		<stop  offset="1" style="stop-color:#E3D998"/>
	</linearGradient>
	<path style="fill-rule:evenodd;clip-rule:evenodd;fill:url(#SVGID_12_);" d="M32.25,11.5c0.033-0.467,0.2-0.867,0.5-1.2
		c0.3-0.3,0.65-0.45,1.05-0.45c0.867,0,1.384,0.483,1.55,1.45C35.017,11.767,34.467,12,33.7,12C33.134,12,32.65,11.833,32.25,11.5z"
		/>
	
		<use xlink:href="#flash0.ai_x5F_8_x2F_Layer_7_x2F__x3C_Path_x3E__x5F_47"  width="3.1" height="2.25" y="-2.25" transform="matrix(1 0 0 -1 32.1504 7.2002)" style="overflow:visible;opacity:0.6914;enable-background:new    ;"/>
	<path style="fill-rule:evenodd;clip-rule:evenodd;fill:#FDFAE8;" d="M34.6,8.95c0.134-0.5,0.067-0.883-0.199-1.15
		c-0.134-0.2-0.284-0.333-0.45-0.4L33.8,7.35l0.351,0.1c0.233,0.1,0.433,0.25,0.6,0.45c0.267,0.3,0.366,0.567,0.3,0.8
		C34.983,8.833,34.833,8.917,34.6,8.95z"/>
	<path style="fill-rule:evenodd;clip-rule:evenodd;fill:#FDFAE8;" d="M34.85,10.5c0.267,0.333,0.384,0.6,0.351,0.8
		c-0.101,0.133-0.25,0.217-0.45,0.25c0.134-0.466,0.066-0.833-0.2-1.1c-0.154-0.186-0.296-0.311-0.425-0.375L34.25,10.1
		C34.483,10.167,34.684,10.3,34.85,10.5z"/>
	<path style="fill-rule:evenodd;clip-rule:evenodd;fill:#FFFFFF;" d="M6.4,10.55c0.3,0,0.383,0.184,0.25,0.55
		c-0.167,0.333-0.367,0.467-0.6,0.4c-0.2-0.1-0.233-0.283-0.1-0.55C6.083,10.683,6.233,10.55,6.4,10.55z"/>
	<path style="fill-rule:evenodd;clip-rule:evenodd;fill:#FFFFFF;" d="M33.25,7.7c0.3,0.133,0.35,0.367,0.15,0.7
		c-0.2,0.367-0.417,0.5-0.65,0.4c-0.2-0.133-0.217-0.367-0.05-0.7C32.9,7.767,33.083,7.633,33.25,7.7z"/>
	<path style="fill-rule:evenodd;clip-rule:evenodd;fill:#FFFFFF;" d="M9.45,7.85c0.4,0.133,0.517,0.433,0.35,0.9
		C9.6,9.183,9.333,9.3,9,9.1C8.667,8.933,8.6,8.667,8.8,8.3C9,7.933,9.217,7.783,9.45,7.85z"/>
	<path style="fill-rule:evenodd;clip-rule:evenodd;fill:#FFFFFF;" d="M15.6,8c0.2,0.067,0.283,0.233,0.25,0.5
		c-0.067,0.267-0.217,0.383-0.45,0.35s-0.3-0.2-0.2-0.5C15.3,8.083,15.433,7.967,15.6,8z"/>
	<path style="fill-rule:evenodd;clip-rule:evenodd;fill:#FFFFFF;" d="M18.95,5.15c0.333,0.133,0.383,0.4,0.15,0.8
		c-0.2,0.4-0.434,0.483-0.7,0.25c-0.233-0.2-0.25-0.45-0.05-0.75C18.517,5.183,18.717,5.083,18.95,5.15z"/>
	<path style="fill-rule:evenodd;clip-rule:evenodd;fill:#FFFFFF;" d="M33.4,10.4c0.199,0.1,0.216,0.317,0.05,0.65
		c-0.134,0.367-0.316,0.483-0.55,0.35s-0.25-0.367-0.051-0.7C33.017,10.333,33.2,10.233,33.4,10.4z"/>
	<path style="fill-rule:evenodd;clip-rule:evenodd;fill:#FFFFFF;" d="M36.8,8.8c0.434,0,0.5,0.35,0.2,1.05
		c-0.066,0.167-0.217,0.233-0.45,0.2c-0.2-0.033-0.35-0.117-0.45-0.25C36,9.633,36.017,9.433,36.15,9.2
		C36.316,8.933,36.533,8.8,36.8,8.8z"/>
	<path style="fill-rule:evenodd;clip-rule:evenodd;fill:#FFFFFF;" d="M13.5,7.25c1.167,0.033,1.517,0.25,1.05,0.65
		c-0.5,0.434-1.15,0.517-1.95,0.25c-0.367-0.1-0.383-0.283-0.05-0.55C12.883,7.333,13.2,7.217,13.5,7.25z"/>
	<path style="fill-rule:evenodd;clip-rule:evenodd;fill:#FFFFFF;" d="M13.25,8.85c0.567,0.033,0.7,0.167,0.4,0.4
		c-0.267,0.233-0.583,0.317-0.95,0.25s-0.467-0.2-0.3-0.4C12.533,8.933,12.817,8.85,13.25,8.85z"/>
	<path style="fill-rule:evenodd;clip-rule:evenodd;fill:#FFFFFF;" d="M8.35,13.2c0.633,0.066,0.683,0.3,0.15,0.7
		c-0.567,0.367-1.133,0.417-1.7,0.15c-0.566-0.267-0.617-0.483-0.15-0.65C7.083,13.2,7.65,13.133,8.35,13.2z"/>
	<path style="fill-rule:evenodd;clip-rule:evenodd;fill:#FFFFFF;" d="M15.65,11.9c1.167,0.033,1.533,0.283,1.1,0.75
		s-0.967,0.583-1.6,0.35c-0.566-0.167-0.783-0.4-0.65-0.7C14.667,12.033,15.05,11.9,15.65,11.9z"/>
	<path style="fill-rule:evenodd;clip-rule:evenodd;fill:#FFFFFF;" d="M18.4,9.7c0.934,0,1.267,0.2,1,0.6
		c-0.267,0.4-0.683,0.55-1.25,0.45c-0.5-0.067-0.717-0.25-0.65-0.55C17.567,9.9,17.867,9.733,18.4,9.7z"/>
	<path style="fill-rule:evenodd;clip-rule:evenodd;fill:#FFFFFF;" d="M22.8,7.3c0.3,0.034,0.384,0.133,0.25,0.3
		c-0.133,0.2-0.316,0.283-0.55,0.25c-0.2,0-0.267-0.1-0.2-0.3C22.4,7.35,22.566,7.267,22.8,7.3z"/>
	<path style="fill-rule:evenodd;clip-rule:evenodd;fill:#FFFFFF;" d="M22.3,10.25c0.566,0.067,0.667,0.183,0.3,0.35
		c-0.399,0.167-0.733,0.2-1,0.1c-0.233-0.034-0.233-0.133,0-0.3C21.8,10.267,22.033,10.217,22.3,10.25z"/>
	<path style="fill-rule:evenodd;clip-rule:evenodd;fill:#FFFFFF;" d="M25.2,11.4c0.467,0.133,0.6,0.35,0.399,0.65
		c-0.166,0.267-0.483,0.333-0.949,0.2c-0.467-0.133-0.584-0.333-0.351-0.6C24.5,11.383,24.8,11.3,25.2,11.4z"/>
	<path style="fill-rule:evenodd;clip-rule:evenodd;fill:#FFFFFF;" d="M28.65,9.85c0.5-0.033,0.666,0.1,0.5,0.4
		c-0.167,0.267-0.483,0.383-0.95,0.35c-0.434-0.033-0.55-0.167-0.351-0.4C28.017,10,28.283,9.883,28.65,9.85z"/>
	<path style="fill-rule:evenodd;clip-rule:evenodd;fill:#FFFFFF;" d="M28.85,12.55c0.934,0.1,1.051,0.367,0.351,0.8
		c-0.7,0.433-1.4,0.6-2.101,0.5c-0.699-0.133-0.75-0.4-0.149-0.8C27.517,12.65,28.15,12.483,28.85,12.55z"/>
	<path style="fill-rule:evenodd;clip-rule:evenodd;fill:#FFFFFF;" d="M25.15,15.75c1.166,0,1.5,0.217,1,0.65
		c-0.534,0.434-1.217,0.567-2.051,0.4c-0.767-0.167-0.966-0.383-0.6-0.65S24.417,15.75,25.15,15.75z"/>
	<path style="fill-rule:evenodd;clip-rule:evenodd;fill:#FFFFFF;" d="M22,16c0.667,0.067,0.816,0.2,0.45,0.4
		c-0.4,0.2-0.783,0.25-1.15,0.15c-0.3-0.066-0.333-0.183-0.1-0.35C21.434,16.033,21.7,15.967,22,16z"/>
	<path style="fill-rule:evenodd;clip-rule:evenodd;fill:#FFFFFF;" d="M31.75,9.3c0.767,0.034,1.017,0.217,0.75,0.55
		c-0.233,0.333-0.6,0.483-1.1,0.45c-0.4-0.033-0.534-0.216-0.4-0.55S31.384,9.267,31.75,9.3z"/>
	<path style="fill-rule:evenodd;clip-rule:evenodd;fill:#FFFFFF;" d="M38.15,11.8c0.966,0.133,1.233,0.4,0.8,0.8
		C38.483,13,37.9,13.133,37.2,13c-0.601-0.133-0.684-0.383-0.25-0.75C37.35,11.883,37.75,11.733,38.15,11.8z"/>
	
		<use xlink:href="#flash0.ai_x5F_8_x2F_Layer_7_x2F__x3C_Path_x3E__x5F_23"  width="31.002" height="11.178" x="-0.002" y="-11.143" transform="matrix(1 0 0 -1 7 5.1001)" style="overflow:visible;opacity:0.7891;enable-background:new    ;"/>
	
		<use xlink:href="#flash0.ai_x5F_8_x2F_Layer_7_x2F__x3C_Path_x3E__x5F_22"  width="4.5" height="3.1" y="-3.1" transform="matrix(1 0 0 -1 9.6499 11.6001)" style="overflow:visible;opacity:0.6797;enable-background:new    ;"/>
	<path style="fill-rule:evenodd;clip-rule:evenodd;fill:#FDFAE8;" d="M13.25,14.05c0.167-0.667,0.067-1.2-0.3-1.6
		C12.717,12.183,12.5,12,12.3,11.9l-0.25-0.1l0.45,0.1c0.367,0.133,0.667,0.35,0.9,0.65c0.4,0.467,0.567,0.85,0.5,1.15
		C13.8,13.867,13.583,13.983,13.25,14.05z"/>
	<path style="fill-rule:evenodd;clip-rule:evenodd;fill:#FFFFFF;" d="M11.05,12.2c0.467,0.1,0.6,0.383,0.4,0.85
		c-0.2,0.5-0.483,0.684-0.85,0.55c-0.333-0.133-0.383-0.417-0.15-0.85C10.65,12.35,10.85,12.167,11.05,12.2z"/>
	<linearGradient id="SVGID_13_" gradientUnits="userSpaceOnUse" x1="30.0879" y1="15.0249" x2="32.9129" y2="15.0249">
		<stop  offset="0" style="stop-color:#FFFCED"/>
		<stop  offset="1" style="stop-color:#E3D998"/>
	</linearGradient>
	<path style="fill-rule:evenodd;clip-rule:evenodd;fill:url(#SVGID_13_);" d="M30.1,15.55c0.034-0.433,0.184-0.8,0.45-1.1
		c0.267-0.3,0.584-0.45,0.95-0.45s0.684,0.133,0.95,0.4c0.267,0.233,0.416,0.55,0.45,0.95c-0.334,0.467-0.834,0.7-1.5,0.7
		C30.866,16.05,30.434,15.883,30.1,15.55z"/>
	<path style="fill-rule:evenodd;clip-rule:evenodd;fill:#FDFAE8;" d="M32.35,15.6c0.101-0.467,0.034-0.817-0.199-1.05l-0.551-0.4
		L31.9,14.2c0.233,0.066,0.416,0.2,0.55,0.4c0.233,0.3,0.333,0.55,0.3,0.75C32.684,15.483,32.55,15.567,32.35,15.6z"/>
	<path style="fill-rule:evenodd;clip-rule:evenodd;fill:#FFFFFF;" d="M31,14.45c0.233-0.034,0.333,0.15,0.3,0.55
		c0,0.4-0.149,0.583-0.45,0.55c-0.267-0.033-0.366-0.216-0.3-0.55C30.616,14.7,30.767,14.517,31,14.45z"/>
	
		<use xlink:href="#flash0.ai_x5F_8_x2F_Layer_7_x2F__x3C_Path_x3E__x5F_16"  width="4.35" height="2.95" y="-2.95" transform="matrix(1 0 0 -1 20.3501 12.6001)" style="overflow:visible;opacity:0.6797;enable-background:new    ;"/>
	<path style="fill-rule:evenodd;clip-rule:evenodd;fill:#FDFAE8;" d="M23.8,14.9c0.2-0.633,0.117-1.133-0.25-1.5
		c-0.233-0.233-0.45-0.4-0.649-0.5l-0.25-0.1l0.449,0.1c0.367,0.133,0.667,0.333,0.9,0.6c0.366,0.433,0.517,0.783,0.45,1.05
		C24.35,14.75,24.134,14.867,23.8,14.9z"/>
	<path style="fill-rule:evenodd;clip-rule:evenodd;fill:#FFFFFF;" d="M22,13.2c0.2,0.1,0.283,0.333,0.25,0.7
		c-0.033,0.3-0.134,0.55-0.3,0.75c-0.2,0.2-0.4,0.3-0.601,0.3c-0.233,0.033-0.383-0.117-0.45-0.45c-0.066-0.333,0.05-0.667,0.35-1
		C21.55,13.2,21.8,13.1,22,13.2z"/>
	<path style="fill-rule:evenodd;clip-rule:evenodd;fill:#FFFFFF;" d="M26.35,6.3C26.65,6.367,26.7,6.6,26.5,7s-0.434,0.533-0.7,0.4
		c-0.233-0.1-0.25-0.316-0.05-0.65S26.15,6.267,26.35,6.3z"/>
	<linearGradient id="SVGID_14_" gradientUnits="userSpaceOnUse" x1="25.2246" y1="6.8501" x2="27.9746" y2="6.8501">
		<stop  offset="0" style="stop-color:#FFFCED"/>
		<stop  offset="1" style="stop-color:#E3D998"/>
	</linearGradient>
	<path style="fill-rule:evenodd;clip-rule:evenodd;fill:url(#SVGID_14_);" d="M25.2,7.35c0.066-0.4,0.217-0.75,0.45-1.05
		C25.917,6,26.233,5.85,26.6,5.85c0.767,0,1.233,0.45,1.4,1.35c-0.333,0.433-0.833,0.65-1.5,0.65
		C25.967,7.85,25.533,7.683,25.2,7.35z"/>
	<path style="fill-rule:evenodd;clip-rule:evenodd;fill:#FDFAE8;" d="M27.4,7.45c0.133-0.434,0.083-0.784-0.15-1.05L26.7,6l0.25,0.1
		c0.233,0.066,0.416,0.183,0.55,0.35c0.267,0.3,0.366,0.55,0.3,0.75C27.733,7.3,27.6,7.383,27.4,7.45z"/>
	<path style="fill-rule:evenodd;clip-rule:evenodd;fill:#FFF2DE;" d="M7.95,11.15c0.267-0.167,0.383-0.2,0.35-0.1
		c-0.1,0.267-0.15,0.417-0.15,0.45c0.033,0.167,0.2,0.267,0.5,0.3L8,11.85c-0.267,0.033-0.383-0.05-0.35-0.25
		C7.683,11.4,7.783,11.25,7.95,11.15z"/>
	<path style="fill-rule:evenodd;clip-rule:evenodd;fill:#FFF2DE;" d="M21.2,6.5L14.45,10c-1.233,0.633-2.567,1-4,1.1l2.15-0.7
		c0.3-0.033,1.117-0.35,2.45-0.95c0.333-0.167,1.383-0.7,3.15-1.6C19.133,7.383,20.133,6.933,21.2,6.5z"/>
	<path style="fill-rule:evenodd;clip-rule:evenodd;fill:#FFF2DE;" d="M25.3,5.2c0.2,0,0.267,0.083,0.2,0.25
		c-0.066,0.167-0.2,0.283-0.4,0.35C24.967,5.867,24.9,5.817,24.9,5.65c0.033-0.2,0.017-0.316-0.051-0.35
		C24.75,5.233,24.9,5.2,25.3,5.2z"/>
	<path style="fill-rule:evenodd;clip-rule:evenodd;fill:#FFF2DE;" d="M21.3,9.45c0.566-0.333,0.517-0.233-0.149,0.3
		c-0.667,0.5-1.333,0.95-2,1.35l-3.45,2.25l1.75-1.4C19.25,10.683,20.533,9.85,21.3,9.45z"/>
	<path style="fill-rule:evenodd;clip-rule:evenodd;fill:#FFF2DE;" d="M14.45,14.85c0.133-0.167,0.25-0.2,0.35-0.1
		c0.034,0.033,0.1,0.15,0.2,0.35c0.133,0.167,0.517,0.283,1.15,0.35H15.1c-0.467,0-0.717-0.083-0.75-0.25
		C14.283,15.1,14.317,14.983,14.45,14.85z"/>
	<path style="fill-rule:evenodd;clip-rule:evenodd;fill:#FFF2DE;" d="M25.9,8.9c0.733-0.367,0.6-0.183-0.4,0.55
		c-1.434,1.066-2.417,1.8-2.95,2.2c-1.033,0.833-2.017,1.5-2.95,2l1.55-1.25c0.466-0.4,1.233-1,2.3-1.8
		C24.684,9.667,25.5,9.1,25.9,8.9z"/>
	<path style="fill-rule:evenodd;clip-rule:evenodd;fill:#FFF2DE;" d="M31.15,6.85c0.399,0,0.55,0.117,0.449,0.35
		c-0.066,0.2-0.133,0.333-0.199,0.4c-0.067,0.066-0.051-0.017,0.05-0.25c0.066-0.2,0-0.283-0.2-0.25
		c-0.267,0.033-0.467,0.05-0.6,0.05c-0.2,0-0.217-0.05-0.051-0.15C30.8,6.9,30.983,6.85,31.15,6.85z"/>
	<path style="fill-rule:evenodd;clip-rule:evenodd;fill:#FFF2DE;" d="M28.95,10.2c0.566-0.467,0.666-0.534,0.3-0.2
		c-0.333,0.333-0.9,1-1.7,2c-0.899,1.167-1.467,1.983-1.7,2.45c-0.271,0.493-0.271,0.776,0,0.85h-0.1c-0.267,0-0.417-0.066-0.45-0.2
		c-0.066-0.167,0.033-0.517,0.3-1.05c0.233-0.5,0.784-1.216,1.65-2.15C27.983,11.1,28.55,10.533,28.95,10.2z"/>
	<path style="fill-rule:evenodd;clip-rule:evenodd;fill:#FFF2DE;" d="M32.4,12.5c0.267-0.067,0.416-0.1,0.449-0.1
		c0.034,0.033-0.166,0.167-0.6,0.4c-2.033,1.3-3.184,1.9-3.45,1.8c-0.2-0.1,0.267-0.333,1.4-0.7C30.5,13.8,31.233,13.333,32.4,12.5z
		"/>
	<path style="fill-rule:evenodd;clip-rule:evenodd;fill:#FFF2DE;" d="M37.05,10.5c0.367,0.067,0.233,0.333-0.399,0.8
		c0.233-0.333,0.233-0.5,0-0.5c-0.134,0-0.15-0.05-0.051-0.15C36.7,10.517,36.85,10.467,37.05,10.5z"/>
	<path style="fill-rule:evenodd;clip-rule:evenodd;fill:#F5F5F5;" d="M41.85,8.5h1.4l0.05,0.8c0,2.567-2.116,4.767-6.35,6.6
		c-4.233,1.833-9.334,2.75-15.3,2.75c-5.967,0-11.067-0.917-15.3-2.75C2.117,14.067,0,11.867,0,9.3l0.1-0.8h1.6L1.65,8.95
		c0,2.3,1.967,4.267,5.9,5.9c3.9,1.6,8.633,2.4,14.2,2.4c5.566,0,10.316-0.8,14.25-2.4c3.934-1.633,5.9-3.6,5.9-5.9L41.85,8.5z"/>
</g>
</svg>
