<?xml version="1.0" encoding="iso-8859-1"?>
<!-- Generator: Adobe Illustrator 15.1.0, SVG Export Plug-In . SVG Version: 6.00 Build 0)  -->
<!DOCTYPE svg PUBLIC "-//W3C//DTD SVG 1.1//EN" "http://www.w3.org/Graphics/SVG/1.1/DTD/svg11.dtd">
<svg version="1.1" id="flash0.ai" xmlns="http://www.w3.org/2000/svg" xmlns:xlink="http://www.w3.org/1999/xlink" x="0px" y="0px"
	 width="46.45px" height="45.45px" viewBox="0 0 46.45 45.45" style="enable-background:new 0 0 46.45 45.45;" xml:space="preserve"
	>
<symbol  id="flash0.ai_x5F_7_x2F_Layer_4_copy_x2F__x3C_Path_x3E__x5F_147" viewBox="0 -11.4 27.85 11.4">
	<g id="Layer_1_2_">
		
			<linearGradient id="SVGID_1_" gradientUnits="userSpaceOnUse" x1="-18.6123" y1="-28.4199" x2="-0.6122" y2="-28.4199" gradientTransform="matrix(1 -0.0028 0.0028 1 22.6909 22.6909)">
			<stop  offset="0" style="stop-color:#FFFFFF"/>
			<stop  offset="1" style="stop-color:#000000"/>
		</linearGradient>
		<path style="fill-rule:evenodd;clip-rule:evenodd;fill:url(#SVGID_1_);" d="M27.85-1.55l-3.7-9.85l-5.85,0.05
			c-1.233,0.167-2.65,0.483-4.25,0.95c-1.633,0.467-3.017,0.983-4.15,1.55C6.367-7.05,3.65-5.033,1.75-2.8
			C0.817-1.7,0.233-0.767,0,0l3.05-0.5C8.317-1.267,14.533-1.65,21.7-1.65L27.85-1.55z"/>
	</g>
</symbol>
<symbol  id="halfbowl" viewBox="-1.426 -28.868 54.46 30.97">
	<g>
		<defs>
			<path id="SVGID_2_" d="M51.025-5.575C47.915-0.364,39.307,2.194,25.2,2.1l-8.5-1.45C9.099-0.594,3.999-2.444,1.4-4.9
				c-2.594-2.451-3.403-4.785-2.425-7c0.977-2.213,2.485-4.221,4.525-6.025c2.036-1.813,4.485-3.538,7.35-5.175
				c1.533-0.033,2.533-0.267,3-0.7c0.467-0.434,1.017-0.75,1.65-0.95c0.633-0.167,1.433-0.267,2.4-0.3
				c0.967-0.034,1.717-0.233,2.25-0.6c0.467-0.367,1.617-0.5,3.45-0.4c1.767,0.133,2.95,0.133,3.55,0c0.6-0.1,1.167-0.167,1.7-0.2
				c0.5-0.033,1.2,0.167,2.1,0.6c0.867,0.433,1.966,0.683,3.3,0.75c1.333,0.1,2.3,0.367,2.9,0.8c0.567,0.434,1.733,0.833,3.5,1.2
				c1.733,0.4,4.684,2.083,8.85,5.05C53.631-14.881,54.14-10.79,51.025-5.575z"/>
		</defs>
		<clipPath id="SVGID_3_">
			<use xlink:href="#SVGID_2_"  style="overflow:visible;"/>
		</clipPath>
		<g id="Layer_1_3_" style="clip-path:url(#SVGID_3_);">
			<g>
				<path style="fill-rule:evenodd;clip-rule:evenodd;fill:#D7EAF2;" d="M42.85-14.8c4.667,0.566,7.833,1.283,9.5,2.15l0.25,0.05
					c-1.467-3.733-4.617-6.8-9.45-9.2c-4.9-2.434-10.5-3.65-16.8-3.65c-6.367,0-12.017,1.233-16.95,3.7
					c-4.867,2.433-8,5.533-9.4,9.3l0.45-0.05c1.5-0.9,4.65-1.65,9.45-2.25c4.867-0.6,10.417-0.9,16.65-0.9
					C32.583-15.65,38.017-15.367,42.85-14.8z"/>
				<path style="fill-rule:evenodd;clip-rule:evenodd;fill:#BDD4DE;" d="M42.25-14.8c3.633,0.4,6.317,0.867,8.05,1.4
					c-0.333-0.867-0.883-1.75-1.65-2.65c-1.4-1.8-3.6-3.617-6.6-5.45c-2.466-1.467-5.383-2.6-8.75-3.4l-2.65-0.35
					c4.6,1.367,7.833,3.25,9.7,5.65c0.9,1.1,1.467,2.133,1.7,3.1C42.15-15.633,42.217-15.067,42.25-14.8z"/>
				
					<use xlink:href="#flash0.ai_x5F_7_x2F_Layer_4_copy_x2F__x3C_Path_x3E__x5F_147"  width="27.85" height="11.4" y="-11.4" transform="matrix(1 0 0 1 4.8501 -14)" style="overflow:visible;opacity:0.4414;enable-background:new    ;"/>
				<path style="fill-rule:evenodd;clip-rule:evenodd;fill:#BDD4DE;" d="M14.65-23.8c-3.667,1.1-6.783,2.633-9.35,4.6
					c-2.6,2-4.367,4.25-5.3,6.75l0.45-0.05l0.85-0.45c0.833-1.633,1.833-3.1,3-4.4C7-20.283,10.45-22.433,14.65-23.8z"/>
				<linearGradient id="SVGID_4_" gradientUnits="userSpaceOnUse" x1="1.2998" y1="-11.4751" x2="51.8999" y2="-11.4751">
					<stop  offset="0" style="stop-color:#9CADB5"/>
					<stop  offset="1" style="stop-color:#E0E0E0"/>
				</linearGradient>
				<path style="fill-rule:evenodd;clip-rule:evenodd;fill:url(#SVGID_4_);" d="M51.9-11.45c0-2.466-2.467-4.566-7.4-6.3
					c-4.967-1.733-10.933-2.6-17.9-2.6c-7,0-12.967,0.867-17.9,2.6c-4.934,1.733-7.4,3.833-7.4,6.3c0,2.434,2.467,4.517,7.4,6.25
					c4.933,1.733,10.9,2.6,17.9,2.6c6.967,0,12.933-0.867,17.9-2.6C49.433-6.933,51.9-9.017,51.9-11.45z"/>
				<path style="fill-rule:evenodd;clip-rule:evenodd;fill:#FFFFFF;" d="M44.15-4.9c5-1.6,7.8-3.583,8.4-5.95h-1.7
					c-0.333,2.167-2.85,4-7.55,5.5C38.6-3.85,32.983-3.1,26.45-3.1c-6.5,0-12.117-0.75-16.85-2.25c-4.667-1.5-7.184-3.333-7.55-5.5
					h-1.9C0.717-8.483,3.517-6.5,8.55-4.9c5.034,1.633,10.967,2.45,17.8,2.45C33.183-2.45,39.117-3.267,44.15-4.9z"/>
				<path style="fill-rule:evenodd;clip-rule:evenodd;fill:#9C6A1E;" d="M41.95-4.65c0.7,0.467,1.283,0.566,1.75,0.3
					c0.8-0.4,0.917-1.267,0.35-2.6l0.9,0.1c0.667,0,1.167-0.15,1.5-0.45l0.85-0.75l0.75,0.35c0.567,0.133,1.034,0.05,1.4-0.25
					c0.6-0.5,0.433-1.2-0.5-2.1l0.7-0.2c0.5-0.2,0.817-0.5,0.95-0.9c0.2-0.667,0.017-1.233-0.55-1.7h0.2
					c0.133-0.033,0.183-0.217,0.15-0.55c0-0.533-1.483-1.75-4.45-3.65l-13.55-2.8l-13.2-0.1l-10.35,2.1l-4.4,2.15
					c-0.333,0.3-0.55,0.567-0.65,0.8c-0.133,0.3-0.183,0.733-0.15,1.3C3.683-13.033,3.8-12.633,4-12.4
					c0.167,0.2,0.433,0.316,0.8,0.35l0.65,0.1c-0.233,0.467-0.417,0.967-0.55,1.5C4.633-9.383,4.733-8.7,5.2-8.4
					c0.767,0.467,1.583,0.367,2.45-0.3C7.817-7.633,8.333-6.883,9.2-6.45l1.65,0.75c0,0.167,0.017,0.367,0.05,0.6
					c0.1,0.467,0.283,0.817,0.55,1.05c0.733,0.633,1.533,0.55,2.4-0.25l0.8-0.75l0.45,0.5C15.467-4.217,15.833-4,16.2-3.9l0.95,0.2
					c0,0.233,0.033,0.5,0.1,0.8c0.1,0.533,0.3,0.85,0.6,0.95c0.333,0.133,0.767,0.1,1.3-0.1c0.5-0.2,0.833-0.45,1-0.75l0.4-0.55
					l0.7,0.8C21.783-1.983,22.3-1.6,22.8-1.4c2.067,0.8,3.233,0.867,3.5,0.2c0.2-0.6,0.217-1.017,0.05-1.25L27-2.2
					c0.5,0.133,0.933,0.184,1.3,0.15l1.3-0.05c-0.133,0.233-0.217,0.5-0.25,0.8c-0.133,0.566-0.033,0.95,0.3,1.15
					c0.367,0.233,0.917,0.183,1.65-0.15c0.667-0.267,1.217-0.6,1.65-1c0.5-0.434,0.917-0.85,1.25-1.25l1.15,0.4
					c0.9,0.167,1.667,0.1,2.3-0.2c0.633-0.3,0.9-0.633,0.8-1c-0.034-0.2-0.133-0.35-0.3-0.45l0.55-0.05
					c0.433-0.133,0.883-0.383,1.35-0.75l1.05-0.85L41.95-4.65z"/>
				<path style="fill-rule:evenodd;clip-rule:evenodd;fill:#E3AD5B;" d="M10.6-6.05c1.1,0.367,1.6,0.267,1.5-0.3
					C12-6.883,11.683-7.3,11.15-7.6C10.583-7.9,10-8.1,9.4-8.2c-0.733-0.133-1.017,0-0.85,0.4C8.817-7,9.5-6.417,10.6-6.05z"/>
				<path style="fill-rule:evenodd;clip-rule:evenodd;fill:#E3AD5B;" d="M8.7-9.65c2.767,0.4,4.083,0.35,3.95-0.15
					c-0.1-0.333-0.583-0.717-1.45-1.15c-1-0.466-1.934-0.65-2.8-0.55s-1.167,0.433-0.9,1C7.767-10,8.167-9.717,8.7-9.65z"/>
				<path style="fill-rule:evenodd;clip-rule:evenodd;fill:#E3AD5B;" d="M13.9-6.45c0.5,0.2,1.067,0.217,1.7,0.05
					c0.633-0.133,0.733-0.367,0.3-0.7c-0.566-0.433-1.4-0.883-2.5-1.35c-1.267-0.533-2.083-0.683-2.45-0.45
					c-0.333,0.233-0.133,0.633,0.6,1.2C12.25-7.167,13.033-6.75,13.9-6.45z"/>
				<path style="fill-rule:evenodd;clip-rule:evenodd;fill:#E3AD5B;" d="M12.45-4.05c0.867,0.066,1.6-0.4,2.2-1.4
					c0.167-0.333,0.033-0.55-0.4-0.65c-0.467-0.1-0.95-0.05-1.45,0.15c-0.466,0.2-0.75,0.55-0.85,1.05
					C11.883-4.4,12.05-4.117,12.45-4.05z"/>
				<path style="fill-rule:evenodd;clip-rule:evenodd;fill:#E3AD5B;" d="M7.2-9.1c0.267-1-0.05-2.2-0.95-3.6
					c-0.867-1.367-1.483-1.883-1.85-1.55c-0.267,0.267-0.3,0.833-0.1,1.7c0.167,0.8,0.5,1.683,1,2.65
					c0.434,0.867,0.833,1.35,1.2,1.45C6.867-8.383,7.1-8.6,7.2-9.1z"/>
				<path style="fill-rule:evenodd;clip-rule:evenodd;fill:#E3AD5B;" d="M10.3-11.95c2.5,0.2,2.667-0.216,0.5-1.25
					c-2.333-1.133-3.633-1.4-3.9-0.8c-0.2,0.467,0.133,0.933,1,1.4C8.667-12.233,9.467-12.017,10.3-11.95z"/>
				<path style="fill-rule:evenodd;clip-rule:evenodd;fill:#E3AD5B;" d="M9.65-16c1.167-0.9,0.733-1.2-1.3-0.9
					c-2.033,0.267-3.184,0.767-3.45,1.5c-0.3,0.7,0.2,0.95,1.5,0.75C7.633-14.85,8.717-15.3,9.65-16z"/>
				<path style="fill-rule:evenodd;clip-rule:evenodd;fill:#E3AD5B;" d="M16.9-12.8c0.733-0.2,0.383-0.633-1.05-1.3
					c-1.434-0.667-2.5-0.783-3.2-0.35c-0.767,0.467-0.55,0.934,0.65,1.4C14.533-12.583,15.733-12.5,16.9-12.8z"/>
				<path style="fill-rule:evenodd;clip-rule:evenodd;fill:#E3AD5B;" d="M16.8-16.4c0.5-0.333,1.034-0.95,1.6-1.85
					c0.567-0.933,0.684-1.5,0.35-1.7c-0.367-0.233-1.117,0.05-2.25,0.85c-1.167,0.8-1.867,1.567-2.1,2.3
					c-0.233,0.733-0.1,1.133,0.4,1.2C15.3-15.5,15.967-15.767,16.8-16.4z"/>
				<path style="fill-rule:evenodd;clip-rule:evenodd;fill:#E3AD5B;" d="M10.9-18.35c0.934,0.467,1.617,0.733,2.05,0.8
					c0.6,0.066,0.966-0.184,1.1-0.75c0.1-0.5-0.017-0.717-0.35-0.65c-0.467,0.167-0.817,0.267-1.05,0.3L10.9-18.35z"/>
				<path style="fill-rule:evenodd;clip-rule:evenodd;fill:#E3AD5B;" d="M20.2-11.8c1.733,0.867,1.883,0.45,0.45-1.25
					c-1.433-1.733-2.483-2.417-3.15-2.05c-0.6,0.333-0.55,0.85,0.15,1.55C18.217-12.95,19.067-12.367,20.2-11.8z"/>
				<path style="fill-rule:evenodd;clip-rule:evenodd;fill:#E3AD5B;" d="M16.65-9.8c2.667,0.4,3.3,0.117,1.9-0.85
					c-1.5-1.1-2.633-1.434-3.4-1c-0.633,0.333-0.733,0.7-0.3,1.1C15.217-10.183,15.817-9.933,16.65-9.8z"/>
				<path style="fill-rule:evenodd;clip-rule:evenodd;fill:#E3AD5B;" d="M19.75-10.4c1.233,0,1.317-0.283,0.25-0.85
					c-1.2-0.633-1.9-0.85-2.1-0.65c-0.2,0.167-0.066,0.45,0.4,0.85C18.8-10.617,19.283-10.4,19.75-10.4z"/>
				<path style="fill-rule:evenodd;clip-rule:evenodd;fill:#E3AD5B;" d="M18.8-7.45c1.133-0.133,2.034-0.4,2.7-0.8
					s0.817-0.767,0.45-1.1c-0.333-0.267-1.217-0.217-2.65,0.15c-1.4,0.333-2.267,0.684-2.6,1.05c-0.267,0.333-0.15,0.566,0.35,0.7
					C17.483-7.35,18.067-7.35,18.8-7.45z"/>
				<path style="fill-rule:evenodd;clip-rule:evenodd;fill:#E3AD5B;" d="M14.7-8.95c0.167,0.4,0.45,0.633,0.85,0.7
					c0.367,0.033,0.534-0.167,0.5-0.6c-0.066-0.533-0.316-0.883-0.75-1.05C14.833-10.067,14.633-9.75,14.7-8.95z"/>
				<path style="fill-rule:evenodd;clip-rule:evenodd;fill:#E3AD5B;" d="M16.95-3.95c1.367,0.2,1.517-0.033,0.45-0.7
					c-1.1-0.767-1.8-1-2.1-0.7c-0.233,0.233-0.133,0.517,0.3,0.85C15.967-4.2,16.417-4.017,16.95-3.95z"/>
				<path style="fill-rule:evenodd;clip-rule:evenodd;fill:#E3AD5B;" d="M19.25-5.45c1.233-0.333,1.867-0.617,1.9-0.85
					c0.033-0.133-0.217-0.333-0.75-0.6c-0.4-0.167-1-0.15-1.8,0.05c-0.833,0.167-1.35,0.4-1.55,0.7c-0.167,0.3-0.017,0.533,0.45,0.7
					C18-5.317,18.583-5.317,19.25-5.45z"/>
				<path style="fill-rule:evenodd;clip-rule:evenodd;fill:#E3AD5B;" d="M19.15-3.7c-0.533,1.167-0.083,1.133,1.35-0.1
					c1.433-1.267,1.8-1.917,1.1-1.95C20.667-5.85,19.85-5.167,19.15-3.7z"/>
				<path style="fill-rule:evenodd;clip-rule:evenodd;fill:#E3AD5B;" d="M23.8-5.6c0.6-1.4,0.467-2.55-0.4-3.45
					c-0.333-0.367-0.633-0.317-0.9,0.15c-0.233,0.433-0.35,1-0.35,1.7c0,0.667,0.2,1.25,0.6,1.75C23.183-4.95,23.533-5,23.8-5.6z"/>
				<path style="fill-rule:evenodd;clip-rule:evenodd;fill:#E3AD5B;" d="M23.9-10.05c2.5-0.733,3.033-1.35,1.6-1.85
					c-1.6-0.567-2.717-0.5-3.35,0.2c-0.533,0.567-0.583,1.034-0.15,1.4C22.433-9.9,23.067-9.817,23.9-10.05z"/>
				<path style="fill-rule:evenodd;clip-rule:evenodd;fill:#E3AD5B;" d="M23.2-12.85c1.8-0.167,2.367-0.6,1.7-1.3
					c-0.667-0.7-1.633-0.833-2.9-0.4c-1.1,0.367-1.35,0.767-0.75,1.2C21.817-12.95,22.467-12.783,23.2-12.85z"/>
				<path style="fill-rule:evenodd;clip-rule:evenodd;fill:#E3AD5B;" d="M26.65-14.4c1.167-0.233,1.167-0.883,0-1.95
					c-1.167-1.066-2.083-1.367-2.75-0.9c-0.566,0.4-0.383,1.017,0.55,1.85C25.35-14.6,26.083-14.267,26.65-14.4z"/>
				<path style="fill-rule:evenodd;clip-rule:evenodd;fill:#E3AD5B;" d="M30.4-16.75c0.967-0.033,1.017-0.367,0.15-1
					c-0.8-0.633-1.716-0.767-2.75-0.4c-1.066,0.4-1.233,0.75-0.5,1.05C27.967-16.8,29-16.683,30.4-16.75z"/>
				<path style="fill-rule:evenodd;clip-rule:evenodd;fill:#E3AD5B;" d="M23.15-19.7c0.533,0.633,1.017,1.1,1.45,1.4
					c0.7,0.433,1.15,0.333,1.35-0.3C26.25-19.567,25.317-19.933,23.15-19.7z"/>
				<path style="fill-rule:evenodd;clip-rule:evenodd;fill:#E3AD5B;" d="M28.3-5.95c2.067,0.2,2.5-0.25,1.3-1.35
					c-1.2-1.1-2.434-1.633-3.7-1.6c-1.1,0.033-1.283,0.5-0.55,1.4S27.067-6.083,28.3-5.95z"/>
				<path style="fill-rule:evenodd;clip-rule:evenodd;fill:#E3AD5B;" d="M25.4-4.65c0.767,0.8,1.217,0.816,1.35,0.05
					c0.133-0.733-0.233-1.25-1.1-1.55C24.883-6.383,24.533-6.3,24.6-5.9C24.667-5.567,24.933-5.15,25.4-4.65z"/>
				<path style="fill-rule:evenodd;clip-rule:evenodd;fill:#E3AD5B;" d="M29-2.45c0.833-0.1,0.733-0.417-0.3-0.95
					c-0.967-0.533-1.8-0.6-2.5-0.2c-0.667,0.4-0.567,0.717,0.3,0.95C27.3-2.417,28.133-2.35,29-2.45z"/>
				<path style="fill-rule:evenodd;clip-rule:evenodd;fill:#E3AD5B;" d="M25.55-1.3c0.367-0.2-0.1-0.55-1.4-1.05
					c-1.267-0.467-2.083-0.6-2.45-0.4c-0.434,0.233-0.034,0.617,1.2,1.15C24.1-1.067,24.983-0.967,25.55-1.3z"/>
				<path style="fill-rule:evenodd;clip-rule:evenodd;fill:#E3AD5B;" d="M31.25-0.55c0.533-0.267,0.867-0.617,1-1.05
					c0.133-0.433-0.05-0.717-0.55-0.85c-0.467-0.1-0.9-0.017-1.3,0.25c-0.3,0.233-0.533,0.534-0.7,0.9
					c-0.133,0.333-0.067,0.6,0.2,0.8C30.233-0.267,30.683-0.283,31.25-0.55z"/>
				<path style="fill-rule:evenodd;clip-rule:evenodd;fill:#E3AD5B;" d="M30.8-3.35c1.3-0.1,1.4-0.417,0.3-0.95
					c-1.1-0.534-1.983-0.65-2.65-0.35c-0.534,0.3-0.417,0.617,0.35,0.95C29.533-3.4,30.2-3.283,30.8-3.35z"/>
				<path style="fill-rule:evenodd;clip-rule:evenodd;fill:#E3AD5B;" d="M33-5.65c0.533-0.2,0.867-0.6,1-1.2
					c0.133-0.5,0.067-0.883-0.2-1.15c-0.5-0.433-1.216-0.033-2.15,1.2c-0.4,0.566-0.45,0.983-0.15,1.25
					C31.833-5.317,32.333-5.35,33-5.65z"/>
				<path style="fill-rule:evenodd;clip-rule:evenodd;fill:#E3AD5B;" d="M34-3.15c1.1,0.033,1.35-0.267,0.75-0.9
					c-0.633-0.6-1.35-0.817-2.15-0.65c-0.733,0.133-0.85,0.417-0.35,0.85C32.717-3.483,33.3-3.25,34-3.15z"/>
				<path style="fill-rule:evenodd;clip-rule:evenodd;fill:#E3AD5B;" d="M37.85-5.65c1.8-0.567,2.017-0.9,0.65-1
					c-1.5-0.1-2.433,0.083-2.8,0.55c-0.333,0.4-0.25,0.65,0.25,0.75C36.417-5.283,37.05-5.383,37.85-5.65z"/>
				<path style="fill-rule:evenodd;clip-rule:evenodd;fill:#E3AD5B;" d="M35.95-9.3c1.466-0.6,1.8-1.15,1-1.65
					c-0.8-0.533-1.817-0.383-3.05,0.45c-1.133,0.767-1.316,1.267-0.55,1.5C34.083-8.8,34.95-8.9,35.95-9.3z"/>
				<path style="fill-rule:evenodd;clip-rule:evenodd;fill:#E3AD5B;" d="M36.2-7.35c1.133,0.1,1.383-0.083,0.75-0.55
					c-0.633-0.5-1.233-0.717-1.8-0.65c-0.5,0.033-0.6,0.233-0.3,0.6C35.183-7.617,35.633-7.417,36.2-7.35z"/>
				<path style="fill-rule:evenodd;clip-rule:evenodd;fill:#E3AD5B;" d="M34.1-12.8c0.6-1.367,0.433-2.133-0.5-2.3
					c-1.033-0.167-1.517,0.3-1.45,1.4c0.067,0.967,0.333,1.534,0.8,1.7C33.383-11.833,33.767-12.1,34.1-12.8z"/>
				<path style="fill-rule:evenodd;clip-rule:evenodd;fill:#E3AD5B;" d="M29.65-13.3c0.667-0.9,0.667-1.417,0-1.55
					c-0.633-0.133-1.3,0.283-2,1.25c-0.667,0.9-0.617,1.35,0.15,1.35C28.567-12.283,29.183-12.633,29.65-13.3z"/>
				<path style="fill-rule:evenodd;clip-rule:evenodd;fill:#E3AD5B;" d="M33.3-15.9c1.633-0.667,1.917-1.067,0.85-1.2
					c-1.133-0.133-2.033,0.05-2.7,0.55c-0.6,0.433-0.667,0.733-0.2,0.9C31.717-15.483,32.4-15.567,33.3-15.9z"/>
				<path style="fill-rule:evenodd;clip-rule:evenodd;fill:#E3AD5B;" d="M32.65-18.05c0.8,0.033,0.8-0.25,0-0.85
					c-0.8-0.567-1.733-0.85-2.8-0.85c-1.167,0-1.333,0.267-0.5,0.8C30.15-18.417,31.25-18.117,32.65-18.05z"/>
				<path style="fill-rule:evenodd;clip-rule:evenodd;fill:#E3AD5B;" d="M37.95-13.2c0.8-1.1,0.683-1.6-0.35-1.5
					c-1.033,0.133-1.633,0.717-1.8,1.75c-0.133,0.934,0.067,1.317,0.6,1.15C36.867-11.933,37.383-12.4,37.95-13.2z"/>
				<path style="fill-rule:evenodd;clip-rule:evenodd;fill:#E3AD5B;" d="M37.55-16.05c0.833-0.5,0.967-0.95,0.4-1.35
					c-0.567-0.4-1.333-0.333-2.3,0.2c-0.967,0.5-1.1,0.934-0.4,1.3C35.983-15.5,36.75-15.55,37.55-16.05z"/>
				<path style="fill-rule:evenodd;clip-rule:evenodd;fill:#E3AD5B;" d="M35.95-18.3c1.2,0.1,1.55-0.1,1.05-0.6
					c-0.5-0.533-1.033-0.783-1.6-0.75c-0.433,0-0.566,0.217-0.4,0.65C35.167-18.6,35.483-18.367,35.95-18.3z"/>
				<path style="fill-rule:evenodd;clip-rule:evenodd;fill:#E3AD5B;" d="M41.45-14.9c1.233-0.2,1.566-0.533,1-1
					c-0.6-0.5-1.284-0.633-2.05-0.4c-1.133,0.333-1.5,0.683-1.1,1.05C39.7-14.85,40.417-14.733,41.45-14.9z"/>
				<path style="fill-rule:evenodd;clip-rule:evenodd;fill:#E3AD5B;" d="M40.55-17.05c1.034-0.167,1.3-0.467,0.8-0.9
					c-0.5-0.466-1.15-0.617-1.95-0.45c-0.667,0.167-0.783,0.45-0.35,0.85C39.483-17.15,39.983-16.983,40.55-17.05z"/>
				<path style="fill-rule:evenodd;clip-rule:evenodd;fill:#E3AD5B;" d="M43.8-13.9c0.233,1.033,0.534,1.033,0.9,0
					c0.333-1.1,0.367-1.85,0.1-2.25c-0.267-0.367-0.533-0.25-0.8,0.35C43.733-15.2,43.667-14.567,43.8-13.9z"/>
				<path style="fill-rule:evenodd;clip-rule:evenodd;fill:#E3AD5B;" d="M48.25-15.2c1.167-0.566,1.083-0.85-0.25-0.85
					c-1.367,0-2.267,0.2-2.7,0.6c-0.433,0.367-0.233,0.583,0.6,0.65C46.733-14.733,47.517-14.867,48.25-15.2z"/>
				<path style="fill-rule:evenodd;clip-rule:evenodd;fill:#E3AD5B;" d="M40.6-10.7c1.367-0.1,1.816-0.433,1.35-1
					c-0.5-0.566-1.317-0.716-2.45-0.45c-1.033,0.233-1.283,0.55-0.75,0.95C39.25-10.833,39.867-10.667,40.6-10.7z"/>
				<path style="fill-rule:evenodd;clip-rule:evenodd;fill:#E3AD5B;" d="M41.9-12.5c2.434,0.233,3.217,0.017,2.35-0.65
					c-0.967-0.767-1.917-1.033-2.85-0.8c-0.733,0.133-1.05,0.35-0.95,0.65C40.55-13.033,41.033-12.767,41.9-12.5z"/>
				<path style="fill-rule:evenodd;clip-rule:evenodd;fill:#E3AD5B;" d="M42.3-8.55c0.867-0.3,0.883-0.55,0.05-0.75
					c-0.867-0.233-1.517-0.267-1.95-0.1c-0.933,0.367-1.05,0.667-0.35,0.9C40.75-8.267,41.5-8.283,42.3-8.55z"/>
				<path style="fill-rule:evenodd;clip-rule:evenodd;fill:#E3AD5B;" d="M43.2-4.65c0.367-0.267,0.316-0.7-0.15-1.3
					c-0.5-0.6-1.066-0.816-1.7-0.65c-0.6,0.2-0.517,0.617,0.25,1.25C42.367-4.65,42.9-4.417,43.2-4.65z"/>
				<path style="fill-rule:evenodd;clip-rule:evenodd;fill:#E3AD5B;" d="M44.55-7.45C45.25-7.717,45.333-8,44.8-8.3
					c-0.533-0.3-1.15-0.284-1.85,0.05c-0.7,0.3-0.8,0.583-0.3,0.85C43.183-7.167,43.817-7.183,44.55-7.45z"/>
				<path style="fill-rule:evenodd;clip-rule:evenodd;fill:#E3AD5B;" d="M48.5-7.95c0.667,0.067,0.717-0.183,0.15-0.75
					c-0.6-0.566-1.267-0.833-2-0.8s-0.8,0.283-0.2,0.75C47.05-8.283,47.733-8.017,48.5-7.95z"/>
				<path style="fill-rule:evenodd;clip-rule:evenodd;fill:#E3AD5B;" d="M44.8-9.75c1.4-0.1,1.8-0.317,1.2-0.65
					c-0.667-0.3-1.333-0.367-2-0.2c-0.533,0.1-0.633,0.283-0.3,0.55C44.033-9.783,44.4-9.683,44.8-9.75z"/>
				<path style="fill-rule:evenodd;clip-rule:evenodd;fill:#E3AD5B;" d="M48.75-10.6c1.533-0.267,2.017-0.517,1.45-0.75
					c-0.567-0.267-1.417-0.283-2.55-0.05c-0.967,0.2-1.2,0.417-0.7,0.65C47.45-10.55,48.05-10.5,48.75-10.6z"/>
				<path style="fill-rule:evenodd;clip-rule:evenodd;fill:#F5D7A9;" d="M10.45-6.25c0.833,0.3,1.017,0.167,0.55-0.4
					c-0.5-0.567-0.95-0.883-1.35-0.95C9.283-7.667,9.167-7.517,9.3-7.15S9.817-6.483,10.45-6.25z"/>
				<path style="fill-rule:evenodd;clip-rule:evenodd;fill:#F5D7A9;" d="M13.95-6.6c1,0.167,1.117-0.1,0.35-0.8
					c-0.767-0.7-1.517-1.05-2.25-1.05c-0.633,0-0.6,0.284,0.1,0.85C12.817-7.033,13.417-6.7,13.95-6.6z"/>
				<path style="fill-rule:evenodd;clip-rule:evenodd;fill:#F5D7A9;" d="M13.15-4.6c0.6-0.3,0.867-0.583,0.8-0.85
					c-0.1-0.3-0.4-0.367-0.9-0.2c-0.433,0.167-0.6,0.417-0.5,0.75C12.65-4.567,12.85-4.467,13.15-4.6z"/>
				<path style="fill-rule:evenodd;clip-rule:evenodd;fill:#F5D7A9;" d="M9.3-12.45c1.333,0.2,1.684,0.083,1.05-0.35
					c-0.667-0.434-1.367-0.65-2.1-0.65c-0.6,0-0.7,0.15-0.3,0.45C8.383-12.7,8.833-12.517,9.3-12.45z"/>
				<path style="fill-rule:evenodd;clip-rule:evenodd;fill:#F5D7A9;" d="M16.95-10.05c1.3,0.133,1.433-0.05,0.4-0.55
					c-1.067-0.5-1.85-0.683-2.35-0.55c-0.467,0.133-0.467,0.333,0,0.6C15.467-10.283,16.117-10.117,16.95-10.05z"/>
				<path style="fill-rule:evenodd;clip-rule:evenodd;fill:#F5D7A9;" d="M15.15-13.05c0.6-0.1,0.75-0.284,0.45-0.55
					c-0.3-0.3-0.983-0.467-2.05-0.5c-1.167-0.033-1.433,0.167-0.8,0.6C13.35-13.067,14.15-12.917,15.15-13.05z"/>
				<path style="fill-rule:evenodd;clip-rule:evenodd;fill:#F5D7A9;" d="M7.95-15.5c0.633-0.467,0.6-0.667-0.1-0.6
					c-0.7,0.067-1.267,0.283-1.7,0.65c-0.367,0.333-0.233,0.467,0.4,0.4C7.15-15.117,7.617-15.267,7.95-15.5z"/>
				<path style="fill-rule:evenodd;clip-rule:evenodd;fill:#F5D7A9;" d="M19.3-7.9c0.767-0.267,1-0.467,0.7-0.6s-0.9-0.05-1.8,0.25
					c-0.833,0.267-0.983,0.433-0.45,0.5S18.8-7.733,19.3-7.9z"/>
				<path style="fill-rule:evenodd;clip-rule:evenodd;fill:#F5D7A9;" d="M19.35-5.7c0.667-0.1,0.733-0.233,0.2-0.4
					c-0.566-0.133-1.066-0.117-1.5,0.05c-0.4,0.167-0.383,0.283,0.05,0.35C18.533-5.6,18.95-5.6,19.35-5.7z"/>
				<path style="fill-rule:evenodd;clip-rule:evenodd;fill:#F5D7A9;" d="M23.3-6.15c0.267-0.8,0.25-1.4-0.05-1.8
					c-0.3-0.433-0.517-0.383-0.65,0.15c-0.067,0.4,0.017,0.85,0.25,1.35S23.233-5.85,23.3-6.15z"/>
				<path style="fill-rule:evenodd;clip-rule:evenodd;fill:#F5D7A9;" d="M36.95-12.55c0.8-0.333,1.167-0.75,1.1-1.25
					c-0.033-0.5-0.283-0.583-0.75-0.25c-0.4,0.333-0.683,0.716-0.85,1.15C36.317-12.467,36.483-12.35,36.95-12.55z"/>
				<path style="fill-rule:evenodd;clip-rule:evenodd;fill:#F5D7A9;" d="M33.35-12.65c0.4-0.5,0.55-0.95,0.45-1.35
					c-0.1-0.367-0.35-0.467-0.75-0.3c-0.367,0.167-0.45,0.517-0.25,1.05C33-12.683,33.183-12.483,33.35-12.65z"/>
				<path style="fill-rule:evenodd;clip-rule:evenodd;fill:#F5D7A9;" d="M35.3-9.7c0.5-0.333,0.65-0.617,0.45-0.85
					c-0.2-0.2-0.583-0.217-1.15-0.05c-0.5,0.133-0.6,0.383-0.3,0.75C34.6-9.517,34.933-9.467,35.3-9.7z"/>
				<path style="fill-rule:evenodd;clip-rule:evenodd;fill:#F5D7A9;" d="M27.9-6.55c1.367,0.2,1.65,0,0.85-0.6s-1.617-0.934-2.45-1
					c-0.633-0.067-0.583,0.183,0.15,0.75C27.217-6.833,27.7-6.55,27.9-6.55z"/>
				<path style="fill-rule:evenodd;clip-rule:evenodd;fill:#F5D7A9;" d="M40.9-11.2c0.667-0.066,0.783-0.15,0.35-0.25
					c-0.4-0.1-0.8-0.15-1.2-0.15c-0.333,0-0.433,0.083-0.3,0.25C39.883-11.217,40.267-11.167,40.9-11.2z"/>
				<path style="fill-rule:evenodd;clip-rule:evenodd;fill:#F5D7A9;" d="M26.2-15.05c0.367,0,0.316-0.233-0.15-0.7
					c-0.466-0.467-0.95-0.7-1.45-0.7c-0.567,0-0.567,0.233,0,0.7C25.133-15.283,25.667-15.05,26.2-15.05z"/>
				<path style="fill-rule:evenodd;clip-rule:evenodd;fill:#F5D7A9;" d="M22.9-13.15c0.934,0,1.317-0.133,1.15-0.4
					c-0.133-0.267-0.45-0.434-0.95-0.5c-0.4-0.034-0.633,0.117-0.7,0.45C22.3-13.3,22.467-13.15,22.9-13.15z"/>
				<path style="fill-rule:evenodd;clip-rule:evenodd;fill:#F5D7A9;" d="M23.9-10.45c0.967-0.2,1.267-0.4,0.9-0.6
					c-0.4-0.233-0.9-0.267-1.5-0.1c-0.533,0.133-0.667,0.3-0.4,0.5C23.133-10.45,23.467-10.383,23.9-10.45z"/>
				<path style="fill-rule:evenodd;clip-rule:evenodd;fill:#F5D7A9;" d="M16.3-16.65c0.733-0.667,0.95-1.15,0.65-1.45
					c-0.267-0.3-0.633-0.2-1.1,0.3c-0.4,0.5-0.55,0.917-0.45,1.25C15.5-16.183,15.8-16.217,16.3-16.65z"/>
				<path style="fill-rule:evenodd;clip-rule:evenodd;fill:#91641D;" d="M10.4-16.05c0.267,0.033,0.934,0.216,2,0.55
					c1.033,0.267,1.684,0.317,1.95,0.15c0.3-0.167,0.316-0.417,0.05-0.75c-0.467-0.533-0.717-0.867-0.75-1
					c-0.133-0.333-0.367-0.483-0.7-0.45c-0.2,0-0.633,0.117-1.3,0.35c-0.566,0.2-0.983,0.434-1.25,0.7
					C10.1-16.233,10.1-16.083,10.4-16.05z"/>
				<path style="fill-rule:evenodd;clip-rule:evenodd;fill:#91641D;" d="M28.2-3.3c-0.067-0.333-0.25-0.617-0.55-0.85
					c-0.333-0.5-0.683-0.8-1.05-0.9c-0.4-0.133-1.117-0.233-2.15-0.3c-1.267-0.1-2.117-0.05-2.55,0.15c-0.4,0.167-0.5,0.367-0.3,0.6
					c0.133,0.2,0.367,0.35,0.7,0.45c0.267,0.066,1.15,0.316,2.65,0.75C26.383-3,27.3-2.783,27.7-2.75
					C28.1-2.717,28.267-2.9,28.2-3.3z"/>
				<path style="fill-rule:evenodd;clip-rule:evenodd;fill:#91641D;" d="M25.65-11.8c0.3,0.5,1.117,0.933,2.45,1.3
					c1.133,0.3,2.017,0.417,2.65,0.35c0.433-0.033,0.617-0.233,0.55-0.6c-0.066-0.333-0.25-0.617-0.55-0.85
					c-0.767-0.767-1.3-1.25-1.6-1.45c-0.4-0.333-1.066-0.467-2-0.4c-0.333,0.034-0.667,0.233-1,0.6
					C25.817-12.483,25.65-12.133,25.65-11.8z"/>
				<path style="fill-rule:evenodd;clip-rule:evenodd;fill:#91641D;" d="M37.25-5.5c-0.333-0.067-0.85-0.033-1.55,0.1
					c-0.7,0.133-1.217,0.283-1.55,0.45c-0.267,0.133-0.4,0.317-0.4,0.55l0.05,0.35c0.233,0.533,0.867,0.783,1.9,0.75
					c0.566,0,1.383-0.1,2.45-0.3c0.667-0.066,1.184-0.367,1.55-0.9c0.4-0.533,0.216-0.85-0.55-0.95
					c-0.633-0.066-1.066-0.083-1.3-0.05C37.583-5.467,37.383-5.467,37.25-5.5z"/>
				<path style="fill-rule:evenodd;clip-rule:evenodd;fill:#91641D;" d="M40.85-7.6c0.167-0.333,0.183-0.733,0.05-1.2
					c-0.066-0.267-0.4-0.367-1-0.3c-0.867,0.133-1.35,0.2-1.45,0.2C38.017-8.967,37.533-8.933,37-8.8
					c-0.633,0.1-1.033,0.283-1.2,0.55c0.133,0.3,1.483,0.683,4.05,1.15C40.35-7,40.683-7.167,40.85-7.6z"/>
				<path style="fill-rule:evenodd;clip-rule:evenodd;fill:#91641D;" d="M43.75-6.05L43.5-5.9c-0.033,0.566,0.5,0.233,1.6-1
					c1.066-1.233,1.683-2.15,1.85-2.75c0.133-0.5-0.15-0.667-0.85-0.5c-0.667,0.2-1.25,0.55-1.75,1.05
					c-0.367,0.367-0.533,0.8-0.5,1.3C43.883-7.033,43.85-6.45,43.75-6.05z"/>
				<path style="fill-rule:evenodd;clip-rule:evenodd;fill:#91641D;" d="M45.05-12.95l1.7-0.05c1.2-0.067,2.017-0.167,2.45-0.3
					c0.433-0.133,0.65-0.35,0.65-0.65c0-0.167-0.067-0.4-0.2-0.7c-0.066-0.333-1.017-0.167-2.85,0.5c-0.8,0.3-1.333,0.583-1.6,0.85
					L45.05-12.95z"/>
				<path style="fill-rule:evenodd;clip-rule:evenodd;fill:#FAD932;" d="M25.9-1.95c0.5-0.3,0.75-0.65,0.75-1.05
					c0-0.2-0.117-0.383-0.35-0.55c-0.333-0.233-0.6-0.5-0.8-0.8c-0.233-0.367-0.583-0.566-1.05-0.6c-0.667,0-1.233,0.017-1.7,0.05
					c-0.567,0.033-1.117,0.133-1.65,0.3l-0.65,0.2c-0.034,0.233-0.017,0.483,0.05,0.75c0.133,0.5,0.433,0.8,0.9,0.9
					c0.4,0.067,0.767,0.233,1.1,0.5c0.333,0.3,0.583,0.467,0.75,0.5C24.383-1.517,25.267-1.583,25.9-1.95z"/>
				<path style="fill-rule:evenodd;clip-rule:evenodd;fill:#FAD932;" d="M8.55-16.2c-0.3,0.267-0.3,0.55,0,0.85
					c0.4,0.367,0.6,0.6,0.6,0.7c0,0.267,0.2,0.5,0.6,0.7c0.433,0.167,0.967,0.25,1.6,0.25c1.133,0,1.933-0.3,2.4-0.9
					c0.467-0.533,0.5-1.066,0.1-1.6c-0.434-0.533-0.684-0.833-0.75-0.9c-0.2-0.1-0.617-0.167-1.25-0.2
					C10.583-17.4,9.483-17.033,8.55-16.2z"/>
				<path style="fill-rule:evenodd;clip-rule:evenodd;fill:#FAD932;" d="M27.15-9.45c0.633,0.4,1.333,0.483,2.1,0.25
					c0.733-0.2,1.067-0.483,1-0.85c-0.033-0.267-0.183-0.583-0.45-0.95c-0.4-0.5-0.716-0.9-0.95-1.2c-0.267-0.4-0.517-0.6-0.75-0.6
					c-0.333,0.1-0.684,0.15-1.05,0.15c-0.433,0-0.833,0.15-1.2,0.45c-0.367,0.4-0.684,0.717-0.95,0.95c-0.3,0.333-0.267,0.667,0.1,1
					c0.367,0.3,0.983,0.55,1.85,0.75L27.15-9.45z"/>
				<path style="fill-rule:evenodd;clip-rule:evenodd;fill:#FAD932;" d="M42.5-7.75c-0.1-0.3-0.25-0.45-0.45-0.45
					c-0.3,0.1-0.583,0.15-0.85,0.15c-0.167,0-0.684-0.1-1.55-0.3c-0.733-0.167-1.316-0.2-1.75-0.1c-0.433,0.1-0.65,0.35-0.65,0.75
					c0.1,0.567,0.133,1.034,0.1,1.4c-0.033,0.466,0.217,0.683,0.75,0.65C38.433-5.683,39.117-5.8,40.15-6
					C41.95-6.267,42.733-6.85,42.5-7.75z"/>
				<path style="fill-rule:evenodd;clip-rule:evenodd;fill:#FAD932;" d="M47.1-11.35c1.733-0.2,2.6-0.75,2.6-1.65
					c0-0.367-0.15-0.517-0.45-0.45c-0.567,0.067-0.967,0.067-1.2,0c-0.9-0.267-1.9,0.067-3,1c-0.533,0.5-0.55,0.85-0.05,1.05
					C45.467-11.233,46.167-11.217,47.1-11.35z"/>
				<path style="fill-rule:evenodd;clip-rule:evenodd;fill:#D9BC2B;" d="M8.3-15.75c0.4-0.267,0.983-0.5,1.75-0.7
					c0.934-0.233,1.55-0.35,1.85-0.35c0.233,0.033,0.667,0.367,1.3,1c0.466,0.466,0.633,0.85,0.5,1.15v0.15
					c0.466-0.6,0.517-1.167,0.15-1.7c-0.434-0.533-0.684-0.833-0.75-0.9c-0.2-0.1-0.617-0.167-1.25-0.2
					c-1.267-0.1-2.367,0.267-3.3,1.1C8.383-16.067,8.3-15.917,8.3-15.75z"/>
				<path style="fill-rule:evenodd;clip-rule:evenodd;fill:#D9BC2B;" d="M26.55-2.65L26.65-3c0-0.2-0.117-0.383-0.35-0.55
					c-0.333-0.233-0.6-0.5-0.8-0.8c-0.233-0.367-0.583-0.566-1.05-0.6c-0.667,0-1.233,0.017-1.7,0.05
					c-0.567,0.033-1.117,0.133-1.65,0.3l-0.65,0.2c-0.034,0.333,0.017,0.667,0.15,1c0.1-0.167,0.3-0.283,0.6-0.35
					c0.066-0.033,0.4-0.083,1-0.15c1.133-0.2,1.883-0.217,2.25-0.05L25.6-3.1C25.933-2.867,26.25-2.717,26.55-2.65z"/>
				<path style="fill-rule:evenodd;clip-rule:evenodd;fill:#D9BC2B;" d="M28.9-10.95l0.65,0.7l0.25-0.05
					c0.167-0.034,0.284-0.083,0.35-0.15c-0.533-0.667-0.967-1.25-1.3-1.75c-0.267-0.4-0.517-0.6-0.75-0.6
					c-0.333,0.1-0.684,0.15-1.05,0.15c-0.433,0-0.833,0.15-1.2,0.45c-0.344,0.375-0.644,0.675-0.9,0.9
					c0.524-0.433,1.158-0.632,1.9-0.6c0.9,0,1.417,0.066,1.55,0.2L28.9-10.95z"/>
				<path style="fill-rule:evenodd;clip-rule:evenodd;fill:#D9BC2B;" d="M40.85-7.65c0.2,0,0.517-0.017,0.95-0.05
					c0.4,0.034,0.617,0.133,0.65,0.3l0.05,0.1v-0.45c-0.1-0.3-0.25-0.45-0.45-0.45c-0.3,0.1-0.583,0.15-0.85,0.15
					c-0.167,0-0.684-0.1-1.55-0.3c-0.733-0.167-1.316-0.2-1.75-0.1c-0.267,0.1-0.45,0.217-0.55,0.35
					c0.167-0.066,0.517,0.017,1.05,0.25C38.8-7.717,39.617-7.65,40.85-7.65z"/>
				<path style="fill-rule:evenodd;clip-rule:evenodd;fill:#D9BC2B;" d="M46.15-12.85c0.7-0.333,1.217-0.433,1.55-0.3
					c0.3,0.133,0.8,0.2,1.5,0.2h0.6l-0.1-0.75l-2.3-0.65l-2.2,0.45L46.15-12.85z"/>
				<path style="fill-rule:evenodd;clip-rule:evenodd;fill:#FFFB8C;" d="M10-14.2c-0.033-0.2,0.417-0.2,1.35,0
					c0.3,0.1,0.45,0.017,0.45-0.25c-0.1-0.1-0.466-0.15-1.1-0.15c-0.5-0.233-0.85-0.267-1.05-0.1c-0.1,0.1-0.066,0.233,0.1,0.4
					C9.95-14.067,10.033-14.033,10-14.2z"/>
				<path style="fill-rule:evenodd;clip-rule:evenodd;fill:#FFFB8C;" d="M12.7-14.65c0.333-0.033,0.45-0.117,0.35-0.25
					c-0.1-0.1-0.3-0.217-0.6-0.35c-0.233-0.1-0.467-0.083-0.7,0.05s-0.35,0.25-0.35,0.35C12.2-14.683,12.633-14.617,12.7-14.65z"/>
				<path style="fill-rule:evenodd;clip-rule:evenodd;fill:#FFFB8C;" d="M9.75-15.3c-0.167-0.034-0.2-0.067-0.1-0.1
					c0.167-0.1,0.25-0.2,0.25-0.3c-0.033-0.1-0.35-0.066-0.95,0.1c-0.267,0.1-0.167,0.267,0.3,0.5
					c0.067,0.067,0.183,0.083,0.35,0.05l0.35-0.05c0.033,0,0.15,0.05,0.35,0.15c0.167,0.067,0.333,0.067,0.5,0
					c0.233-0.1,0.184-0.183-0.15-0.25C10.35-15.267,10.05-15.3,9.75-15.3z"/>
				<path style="fill-rule:evenodd;clip-rule:evenodd;fill:#FFFB8C;" d="M11.3-15.4c0.333,0.033,0.5-0.05,0.5-0.25
					c0-0.167,0.3-0.15,0.9,0.05c0.233,0-0.15-0.2-1.15-0.6c-0.2-0.1-0.367-0.117-0.5-0.05c-0.167,0.167-0.333,0.317-0.5,0.45
					c-0.2,0.167-0.216,0.283-0.05,0.35C10.533-15.45,10.8-15.433,11.3-15.4z"/>
				<path style="fill-rule:evenodd;clip-rule:evenodd;fill:#FFFB8C;" d="M10.25-16c0.167-0.1,0.217-0.217,0.15-0.35
					c-0.066-0.1-0.233-0.117-0.5-0.05c-0.267,0.1-0.333,0.217-0.2,0.35C9.867-15.883,10.05-15.867,10.25-16z"/>
				<path style="fill-rule:evenodd;clip-rule:evenodd;fill:#FFFB8C;" d="M26.35-10.4c0.167,0,0.316-0.117,0.45-0.35
					c0.167-0.267,0.133-0.483-0.1-0.65c-0.233-0.133-0.517-0.167-0.85-0.1c-0.3,0.1-0.533,0.267-0.7,0.5
					c-0.133,0.2-0.017,0.35,0.35,0.45C25.767-10.45,26.05-10.4,26.35-10.4z"/>
				<path style="fill-rule:evenodd;clip-rule:evenodd;fill:#FFFB8C;" d="M27.05-10.2c-0.233,0.133-0.6,0.15-1.1,0.05
					c-0.333-0.033-0.434,0-0.3,0.1c0.233,0.133,0.533,0.216,0.9,0.25c0.333,0.033,0.583,0,0.75-0.1
					c0.167-0.133,0.217-0.25,0.15-0.35C27.35-10.35,27.217-10.333,27.05-10.2z"/>
				<path style="fill-rule:evenodd;clip-rule:evenodd;fill:#FFFB8C;" d="M27.65-10.55c0.434-0.067,0.617-0.233,0.55-0.5
					c-0.034-0.233-0.15-0.367-0.35-0.4c-0.133-0.033-0.267,0-0.4,0.1c-0.167,0.133-0.267,0.283-0.3,0.45
					C27.05-10.6,27.217-10.483,27.65-10.55z"/>
				<path style="fill-rule:evenodd;clip-rule:evenodd;fill:#FFFB8C;" d="M28.7-10.15c0.3,0,0.4-0.133,0.3-0.4
					c-0.033-0.067-0.133-0.117-0.3-0.15c-0.2,0-0.3,0.034-0.3,0.1c-0.033,0.1-0.05,0.184-0.05,0.25
					C28.383-10.25,28.5-10.183,28.7-10.15z"/>
				<path style="fill-rule:evenodd;clip-rule:evenodd;fill:#FFFB8C;" d="M27.9-10.05c-0.2-0.1-0.417-0.067-0.65,0.1
					c-0.2,0.167-0.217,0.3-0.05,0.4c0.066,0.033,0.1,0.083,0.1,0.15c0.034,0.033,0.217,0.066,0.55,0.1c0.9,0,1.383-0.05,1.45-0.15
					c0.067-0.066-0.083-0.167-0.45-0.3C28.317-9.917,28-10.017,27.9-10.05z"/>
				<path style="fill-rule:evenodd;clip-rule:evenodd;fill:#FFFB8C;" d="M22.1-2.8c0.066-0.034,0.833,0.017,2.3,0.15
					c0.434,0.033,0.483-0.083,0.15-0.35c-0.367-0.267-0.75-0.4-1.15-0.4c-1.2-0.067-1.933-0.017-2.2,0.15
					C21.033-3.117,21.1-3,21.4-2.9C21.7-2.767,21.933-2.733,22.1-2.8z"/>
				<path style="fill-rule:evenodd;clip-rule:evenodd;fill:#FFFB8C;" d="M24.65-3.05c0.133,0,0.167-0.067,0.1-0.2
					c-0.067-0.1-0.15-0.2-0.25-0.3c-0.1-0.1-0.25-0.15-0.45-0.15c-0.233-0.033-0.383,0-0.45,0.1c-0.067,0.1,0.033,0.217,0.3,0.35
					S24.417-3.05,24.65-3.05z"/>
				<path style="fill-rule:evenodd;clip-rule:evenodd;fill:#FFFB8C;" d="M23.7-2.4c-0.133,0.033-0.383,0.05-0.75,0.05
					c-0.167,0.033-0.167,0.1,0,0.2c0.167,0.167,0.5,0.3,1,0.4c0.466,0.067,0.716,0.017,0.75-0.15c0.033-0.133-0.1-0.267-0.4-0.4
					C24.033-2.4,23.833-2.433,23.7-2.4z"/>
				<path style="fill-rule:evenodd;clip-rule:evenodd;fill:#FFFB8C;" d="M25.5-2.2c0.133,0.034,0.167-0.033,0.1-0.2
					c-0.067-0.2-0.2-0.367-0.4-0.5c-0.3-0.2-0.383-0.083-0.25,0.35C24.95-2.383,25.133-2.267,25.5-2.2z"/>
				<path style="fill-rule:evenodd;clip-rule:evenodd;fill:#FFFB8C;" d="M38.15-6.15c0.567,0,0.867-0.033,0.9-0.1
					c0.067-0.1,0.05-0.167-0.05-0.2c-0.133-0.033-0.233-0.066-0.3-0.1c-0.233-0.167-0.567-0.167-1,0c-0.1,0.066-0.1,0.15,0,0.25
					C37.8-6.2,37.95-6.15,38.15-6.15z"/>
				<path style="fill-rule:evenodd;clip-rule:evenodd;fill:#FFFB8C;" d="M37.9-6.8c0.233-0.167,0.6-0.217,1.1-0.15
					c0.4,0.067,0.6,0.067,0.6,0c0.033-0.1-0.083-0.167-0.35-0.2c-0.333-0.033-0.567-0.067-0.7-0.1
					c-0.333-0.267-0.617-0.333-0.85-0.2c-0.167,0.1-0.217,0.267-0.15,0.5C37.617-6.717,37.733-6.667,37.9-6.8z"/>
				<path style="fill-rule:evenodd;clip-rule:evenodd;fill:#FFFB8C;" d="M41-6.65c0.067-0.3-0.1-0.434-0.5-0.4
					c-0.3,0.066-0.467,0.133-0.5,0.2c-0.067,0.2-0.133,0.317-0.2,0.35c-0.267,0.2-0.066,0.3,0.6,0.3C40.733-6.2,40.933-6.35,41-6.65
					z"/>
				<path style="fill-rule:evenodd;clip-rule:evenodd;fill:#FFFB8C;" d="M41.55-6.7C41.95-6.667,42.1-6.767,42-7
					s-0.283-0.317-0.55-0.25c-0.267,0.033-0.367,0.133-0.3,0.3C41.217-6.783,41.35-6.7,41.55-6.7z"/>
				<path style="fill-rule:evenodd;clip-rule:evenodd;fill:#FFFB8C;" d="M40.15-7.15c0.133,0,0.167-0.05,0.1-0.15
					c-0.033-0.1-0.15-0.15-0.35-0.15c-0.2,0.034-0.267,0.083-0.2,0.15C39.8-7.233,39.95-7.183,40.15-7.15z"/>
				<path style="fill-rule:evenodd;clip-rule:evenodd;fill:#FFFB8C;" d="M46.65-11.65c0.5-0.1,0.583-0.25,0.25-0.45
					c-0.333-0.233-0.667-0.267-1-0.1c-0.333,0.133-0.4,0.284-0.2,0.45C45.9-11.617,46.217-11.583,46.65-11.65z"/>
				<path style="fill-rule:evenodd;clip-rule:evenodd;fill:#FFFB8C;" d="M47.65-11.85c0.467,0.067,0.85-0.133,1.15-0.6
					c0.1-0.133,0.034-0.183-0.2-0.15c-0.333,0.067-0.6,0.067-0.8,0c-0.267-0.1-0.45-0.133-0.55-0.1
					c-0.167,0.067-0.35,0.15-0.55,0.25c-0.233,0.1-0.2,0.217,0.1,0.35C47.067-11.967,47.35-11.883,47.65-11.85z"/>
				<path style="fill-rule:evenodd;clip-rule:evenodd;fill:#FFFB8C;" d="M45.95-12.45c0.233,0.067,0.433,0.05,0.6-0.05
					c0.167-0.133,0.133-0.2-0.1-0.2c-0.4,0-0.633,0-0.7,0C45.55-12.667,45.617-12.583,45.95-12.45z"/>
				<path style="fill-rule:evenodd;clip-rule:evenodd;fill:#FFFB8C;" d="M48.8-11.95c0.167-0.066,0.284-0.133,0.35-0.2
					c0.033-0.1-0.05-0.133-0.25-0.1c-0.2,0.033-0.267,0.083-0.2,0.15L48.8-11.95z"/>
				<path style="fill-rule:evenodd;clip-rule:evenodd;fill:#915922;" d="M3.35-10.7c0.2,0.367,0.433,0.75,0.7,1.15
					C4.55-8.75,4.9-8.3,5.1-8.2c0.333,0.167,0.767-0.066,1.3-0.7c0.267-0.667,0.2-1.517-0.2-2.55c-0.534-1.3-1.383-1.833-2.55-1.6
					c-0.3,0.066-0.633,0.216-1,0.45L2.2-12.25C2.667-11.683,3.05-11.167,3.35-10.7z"/>
				<path style="fill-rule:evenodd;clip-rule:evenodd;fill:#915922;" d="M18.3-4.25C17.1-4.417,16.383-4.333,16.15-4
					c-0.133,0.167-0.233,0.417-0.3,0.75l-0.05,0.5l0.5,0.1c0.4,0.1,0.833,0.15,1.3,0.15l1.05,0.45c0.733,0.3,1.233,0.383,1.5,0.25
					c0.434-0.2,0.567-0.617,0.4-1.25C19.817-3.75,19.067-4.15,18.3-4.25z"/>
				<path style="fill-rule:evenodd;clip-rule:evenodd;fill:#915922;" d="M13.1-10.05l0.85,0.7c0.667,0.4,1.183,0.417,1.55,0.05
					c0.467-0.434,0.55-1.067,0.25-1.9c-0.333-0.833-0.867-1.483-1.6-1.95c-0.6-0.367-1.3-0.517-2.1-0.45
					c-0.233,0-0.7,0.083-1.4,0.25c-0.167,0.033-0.367,0.317-0.6,0.85l-0.3,0.8c0.333,0.2,0.717,0.417,1.15,0.65
					C11.767-10.55,12.5-10.217,13.1-10.05z"/>
				<path style="fill-rule:evenodd;clip-rule:evenodd;fill:#915922;" d="M20.65-13.15c0.567-0.267,1.184-0.633,1.85-1.1
					c0.967-0.667,1.533-1.267,1.7-1.8c0.6-1.534,0.417-2.5-0.55-2.9c-0.667-0.267-1.45-0.316-2.35-0.15
					c-1.033,0.167-1.566,0.533-1.6,1.1c-0.034,0.533,0.117,1.5,0.45,2.9L20.65-13.15z"/>
				<path style="fill-rule:evenodd;clip-rule:evenodd;fill:#915922;" d="M30.45-8.25c1.033,0.567,1.833,0.833,2.4,0.8
					c0.566-0.033,0.983-0.267,1.25-0.7l0.3-0.95c0.067-0.233-0.066-0.617-0.4-1.15c-0.367-0.533-0.717-0.917-1.05-1.15
					c-0.6-0.434-0.983-0.684-1.15-0.75c-0.533-0.167-1.05,0.033-1.55,0.6c-0.5,0.533-0.817,1.05-0.95,1.55
					c-0.1,0.467-0.167,0.783-0.2,0.95L30.45-8.25z"/>
				<path style="fill-rule:evenodd;clip-rule:evenodd;fill:#915922;" d="M33.55-1.8L38.1-3c0.333-0.1,0.483-0.483,0.45-1.15
					l-0.15-0.5c-0.1-0.333-0.75-0.467-1.95-0.4c-1.434,0.167-2.35,0.533-2.75,1.1c-0.233,0.333-0.35,0.784-0.35,1.35
					C33.35-2.067,33.417-1.8,33.55-1.8z"/>
				<path style="fill-rule:evenodd;clip-rule:evenodd;fill:#915922;" d="M44.1-5.5c1.8-1.667,2.7-2.817,2.7-3.45
					c0-0.7-0.5-0.683-1.5,0.05c-1.2,0.8-1.966,1.7-2.3,2.7c-0.167,0.567-0.083,0.9,0.25,1c0.133,0.067,0.3,0.067,0.5,0L44.1-5.5z"/>
				<path style="fill-rule:evenodd;clip-rule:evenodd;fill:#915922;" d="M42.5-11l1.2-0.15c0.833-0.133,1.433-0.317,1.8-0.55
					c0.4-0.3,0.633-0.7,0.7-1.2c0.1-0.434,0.066-0.8-0.1-1.1c-0.3-0.467-1.05-0.7-2.25-0.7c-0.5,0-0.967,0.167-1.4,0.5
					c-0.434,0.367-0.7,0.784-0.8,1.25c-0.066,0.367-0.066,0.784,0,1.25l0.15,0.6L42.5-11z"/>
				<path style="fill-rule:evenodd;clip-rule:evenodd;fill:#B36F2B;" d="M11.65-8.65c1.7,0.9,2.917,0.867,3.65-0.1
					c0.767-0.967,0.483-1.9-0.85-2.8c-0.7-0.467-1.267-0.767-1.7-0.9c-0.7-0.2-1.417-0.167-2.15,0.1c-0.833,0.3-1.133,0.833-0.9,1.6
					C9.933-9.95,10.583-9.25,11.65-8.65z"/>
				<path style="fill-rule:evenodd;clip-rule:evenodd;fill:#B36F2B;" d="M17.85-1.5c1.1,0.133,1.867,0.083,2.3-0.15
					c0.333-0.167,0.383-0.383,0.15-0.65c-0.233-0.233-0.75-0.467-1.55-0.7c-0.967-0.3-1.783-0.367-2.45-0.2
					c-0.667,0.133-0.7,0.434-0.1,0.9C16.733-1.833,17.283-1.567,17.85-1.5z"/>
				<path style="fill-rule:evenodd;clip-rule:evenodd;fill:#B36F2B;" d="M36.3-1.9c2.267-0.867,2.75-1.6,1.45-2.2
					c-0.433-0.2-1.167-0.133-2.2,0.2c-1.066,0.333-1.75,0.75-2.05,1.25c-0.3,0.566-0.15,0.917,0.45,1.05
					C34.55-1.433,35.333-1.533,36.3-1.9z"/>
				<path style="fill-rule:evenodd;clip-rule:evenodd;fill:#B36F2B;" d="M30.9-6.85c2.033-0.1,3.05-0.667,3.05-1.7
					c0-0.3-0.2-0.717-0.6-1.25c-0.4-0.5-0.817-0.9-1.25-1.2c-0.4-0.3-0.9-0.333-1.5-0.1c-0.633,0.233-1.133,0.667-1.5,1.3
					c-0.333,0.6-0.283,1.267,0.15,2C29.683-7.133,30.233-6.817,30.9-6.85z"/>
				<path style="fill-rule:evenodd;clip-rule:evenodd;fill:#B36F2B;" d="M5.1-8.2c1.033-0.133,1.133-0.883,0.3-2.25
					c-0.8-1.367-1.7-2.05-2.7-2.05c-0.9,0-0.85,0.733,0.15,2.2C3.85-8.8,4.6-8.1,5.1-8.2z"/>
				<path style="fill-rule:evenodd;clip-rule:evenodd;fill:#B36F2B;" d="M44.85-10.4c0.633-0.533,1.05-1.083,1.25-1.65
					c0.233-0.7,0.066-1.25-0.5-1.65c-0.633-0.433-1.45-0.4-2.45,0.1c-1,0.533-1.467,1.217-1.4,2.05
					c0.067,0.867,0.433,1.417,1.1,1.65C43.55-9.667,44.217-9.833,44.85-10.4z"/>
				<path style="fill-rule:evenodd;clip-rule:evenodd;fill:#B36F2B;" d="M45-5.25c0.6-0.467,1.133-1.133,1.6-2
					c0.433-0.933,0.5-1.5,0.2-1.7c-0.267-0.2-0.75,0.067-1.45,0.8c-0.2,0.267-0.733,0.967-1.6,2.1c-0.467,0.6-0.533,1-0.2,1.2
					C43.85-4.65,44.333-4.783,45-5.25z"/>
				<path style="fill-rule:evenodd;clip-rule:evenodd;fill:#B36F2B;" d="M20.35-13.05c0.566,0,1.3-0.4,2.2-1.2
					c0.9-0.833,1.35-1.567,1.35-2.2c0-0.733-0.45-1.367-1.35-1.9c-1.033-0.566-2.167-0.6-3.4-0.1c-1.267,0.5-1.633,1.534-1.1,3.1
					C18.55-13.817,19.317-13.05,20.35-13.05z"/>
				<path style="fill-rule:evenodd;clip-rule:evenodd;fill:#665223;" d="M11.5-3.85c1.1,0.2,1.667,0.083,1.7-0.35
					c0.066-0.433-0.367-0.716-1.3-0.85C11.1-5.15,10.733-5,10.8-4.6C10.833-4.2,11.067-3.95,11.5-3.85z"/>
				<path style="fill-rule:evenodd;clip-rule:evenodd;fill:#665223;" d="M29.4-6.05C30.567-6.117,31-6.433,30.7-7
					c-0.367-0.6-0.9-0.8-1.6-0.6c-0.567,0.133-0.783,0.434-0.65,0.9C28.617-6.233,28.933-6.017,29.4-6.05z"/>
				<path style="fill-rule:evenodd;clip-rule:evenodd;fill:#665223;" d="M21.9-7.05c1.2-0.267,1.467-0.667,0.8-1.2
					c-0.633-0.533-1.317-0.7-2.05-0.5c-0.633,0.2-0.733,0.567-0.3,1.1C20.783-7.117,21.3-6.917,21.9-7.05z"/>
				<path style="fill-rule:evenodd;clip-rule:evenodd;fill:#665223;" d="M8.95-9.05c0.9,0.033,1.216-0.233,0.95-0.8
					c-0.267-0.566-0.717-0.85-1.35-0.85c-0.566,0-0.767,0.267-0.6,0.8C8.083-9.367,8.417-9.083,8.95-9.05z"/>
				<path style="fill-rule:evenodd;clip-rule:evenodd;fill:#665223;" d="M18.85-9.3c0.933,0.033,1.333-0.133,1.2-0.5
					c-0.1-0.4-0.5-0.6-1.2-0.6c-0.567,0-0.817,0.183-0.75,0.55C18.2-9.483,18.45-9.3,18.85-9.3z"/>
				<path style="fill-rule:evenodd;clip-rule:evenodd;fill:#665223;" d="M38.05-9.5c0.633-0.133,0.883-0.4,0.75-0.8
					c-0.167-0.434-0.633-0.583-1.4-0.45c-0.767,0.1-1.017,0.367-0.75,0.8C36.917-9.517,37.383-9.367,38.05-9.5z"/>
				<path style="fill-rule:evenodd;clip-rule:evenodd;fill:#665223;" d="M41.4-5.15c0.633,0,0.95-0.184,0.95-0.55
					c0-0.333-0.317-0.5-0.95-0.5s-0.933,0.167-0.9,0.5C40.533-5.367,40.833-5.183,41.4-5.15z"/>
				<path style="fill-rule:evenodd;clip-rule:evenodd;fill:#665223;" d="M47.45-10.3c0.333-0.1,0.4-0.367,0.2-0.8
					c-0.167-0.433-0.5-0.583-1-0.45c-0.533,0.133-0.667,0.417-0.4,0.85C46.517-10.3,46.917-10.167,47.45-10.3z"/>
				<path style="fill-rule:evenodd;clip-rule:evenodd;fill:#665223;" d="M15.45-13.75c0.4,0.533,0.783,0.567,1.15,0.1
					c0.333-0.467,0.3-0.783-0.1-0.95c-0.333-0.167-0.65-0.133-0.95,0.1C15.25-14.267,15.217-14.017,15.45-13.75z"/>
				<path style="fill-rule:evenodd;clip-rule:evenodd;fill:#665223;" d="M29.7-14.05c0.8,0,1.117-0.233,0.95-0.7
					c-0.133-0.5-0.566-0.717-1.3-0.65c-0.667,0.033-0.867,0.267-0.6,0.7C28.983-14.267,29.3-14.05,29.7-14.05z"/>
				<path style="fill-rule:evenodd;clip-rule:evenodd;fill:#665223;" d="M29.4-1.9c0.867,0,1.267-0.167,1.2-0.5
					c-0.1-0.333-0.5-0.533-1.2-0.6c-0.6-0.033-0.85,0.15-0.75,0.55C28.783-2.083,29.033-1.9,29.4-1.9z"/>
				<path style="fill-rule:evenodd;clip-rule:evenodd;fill:#665223;" d="M32.45-1.1c0.6-0.233,0.833-0.483,0.7-0.75
					s-0.5-0.333-1.1-0.2c-0.566,0.133-0.75,0.367-0.55,0.7C31.7-1.017,32.017-0.933,32.45-1.1z"/>
				<path style="fill-rule:evenodd;clip-rule:evenodd;fill:#665223;" d="M36.4-15.1c0.567-0.133,0.783-0.367,0.65-0.7
					c-0.1-0.333-0.383-0.45-0.85-0.35c-0.4,0.133-0.567,0.35-0.5,0.65C35.767-15.167,36-15.033,36.4-15.1z"/>
				<path style="fill-rule:evenodd;clip-rule:evenodd;fill:#FFFFFF;" d="M50.85-10.85h1.7l0.1-0.8c0-2.533-2.566-4.7-7.7-6.5
					c-5.133-1.8-11.333-2.7-18.6-2.7s-13.467,0.9-18.6,2.7c-5.133,1.8-7.7,3.967-7.7,6.5c0,0.367,0.034,0.633,0.1,0.8h1.9v-0.45
					c0-2.267,2.383-4.184,7.15-5.75c4.767-1.6,10.517-2.4,17.25-2.4c6.767,0,12.533,0.8,17.3,2.4c4.767,1.566,7.15,3.483,7.15,5.75
					L50.85-10.85z"/>
			</g>
		</g>
		<g id="Layer_2_2_" style="display:none;clip-path:url(#SVGID_3_);">
			<path style="display:inline;fill-rule:evenodd;clip-rule:evenodd;fill:#9DA1AA;" d="M32.35-24.35c0.6-0.033,2.083,0.434,4.45,1.4
				c2.333,0.967,3.85,1.083,4.55,0.35c0.7-0.767-1.8-2.15-7.5-4.15c-5.7-2-10.167-2.583-13.4-1.75c-3.233,0.867-5.25,1.45-6.05,1.75
				C12.2-26.083,9.95-24.5,7.65-22c1.2,0.067,2.05,0.117,2.55,0.15c0.5,0.067,1.2-0.066,2.1-0.4c0.9-0.3,1.733-0.517,2.5-0.65
				c0.733-0.133,1.233-0.4,1.5-0.8c0.233-0.4,1.133-0.633,2.7-0.7c1.567-0.033,2.683-0.233,3.35-0.6
				c0.633-0.333,1.117-0.483,1.45-0.45c0.267,0.067,0.833,0.2,1.7,0.4c0.867,0.2,1.583,0.183,2.15-0.05c0.533-0.233,1.1-0.3,1.7-0.2
				c0.566,0.1,1.066,0.283,1.5,0.55C31.25-24.45,31.75-24.317,32.35-24.35z"/>
		</g>
	</g>
</symbol>
<g>
	<g>
		<path style="fill-rule:evenodd;clip-rule:evenodd;fill:#D7EAF2;" d="M35.688,37.45c3.5-0.425,5.875-0.963,7.125-1.612L43,35.8
			c-1.1,2.801-3.463,5.101-7.088,6.9c-3.675,1.825-7.875,2.737-12.6,2.737c-4.775,0-9.013-0.925-12.713-2.775
			c-3.65-1.824-6-4.149-7.05-6.975l0.338,0.037c1.125,0.676,3.487,1.238,7.087,1.688c3.65,0.45,7.813,0.676,12.487,0.676
			C27.987,38.088,32.063,37.875,35.688,37.45z"/>
		<path style="fill-rule:evenodd;clip-rule:evenodd;fill:#BDD4DE;" d="M35.237,37.45c2.726-0.3,4.737-0.65,6.037-1.05
			c-0.249,0.649-0.662,1.313-1.237,1.987c-1.05,1.35-2.7,2.712-4.95,4.087c-1.85,1.101-4.037,1.95-6.563,2.551l-1.987,0.262
			c3.45-1.024,5.875-2.438,7.275-4.237c0.675-0.825,1.1-1.6,1.274-2.325C35.162,38.075,35.213,37.65,35.237,37.45z"/>
		
			<use xlink:href="#flash0.ai_x5F_7_x2F_Layer_4_copy_x2F__x3C_Path_x3E__x5F_147"  width="27.85" height="11.4" y="-11.4" transform="matrix(0.75 0 0 -0.75 7.2002 36.8496)" style="overflow:visible;opacity:0.4414;enable-background:new    ;"/>
		<path style="fill-rule:evenodd;clip-rule:evenodd;fill:#BDD4DE;" d="M14.537,44.2c-2.75-0.825-5.087-1.976-7.013-3.45
			c-1.949-1.5-3.275-3.188-3.975-5.063l0.338,0.037l0.637,0.338c0.625,1.226,1.375,2.325,2.25,3.3
			C8.8,41.563,11.388,43.175,14.537,44.2z"/>
		
			<linearGradient id="SVGID_5_" gradientUnits="userSpaceOnUse" x1="1.2998" y1="11.4756" x2="51.9004" y2="11.4756" gradientTransform="matrix(0.75 0 0 0.75 3.5498 26.3496)">
			<stop  offset="0" style="stop-color:#9CADB5"/>
			<stop  offset="1" style="stop-color:#E0E0E0"/>
		</linearGradient>
		<path style="fill-rule:evenodd;clip-rule:evenodd;fill:url(#SVGID_5_);" d="M42.475,34.938c0,1.85-1.85,3.425-5.55,4.725
			c-3.726,1.301-8.2,1.95-13.425,1.95c-5.25,0-9.725-0.649-13.425-1.95c-3.7-1.3-5.551-2.875-5.551-4.725
			c0-1.825,1.851-3.388,5.551-4.688c3.7-1.3,8.175-1.95,13.425-1.95c5.225,0,9.699,0.65,13.425,1.95
			C40.625,31.55,42.475,33.112,42.475,34.938z"/>
		<path style="fill-rule:evenodd;clip-rule:evenodd;fill:#FFFFFF;" d="M36.662,30.025c3.75,1.199,5.851,2.688,6.3,4.462h-1.274
			c-0.25-1.625-2.138-3-5.663-4.125c-3.524-1.125-7.737-1.688-12.637-1.688c-4.875,0-9.088,0.563-12.638,1.688
			c-3.5,1.125-5.388,2.5-5.663,4.125H3.662c0.425-1.774,2.525-3.263,6.3-4.462c3.775-1.226,8.226-1.838,13.351-1.838
			S32.887,28.8,36.662,30.025z"/>
		<path style="fill-rule:evenodd;clip-rule:evenodd;fill:#9C6A1E;" d="M35.013,29.838c0.524-0.351,0.962-0.425,1.313-0.226
			c0.6,0.3,0.687,0.95,0.262,1.95l0.676-0.075c0.499,0,0.874,0.112,1.125,0.338l0.637,0.563l0.563-0.263
			c0.425-0.1,0.775-0.037,1.051,0.188c0.449,0.375,0.325,0.9-0.375,1.575l0.524,0.149c0.375,0.15,0.613,0.375,0.713,0.676
			c0.149,0.5,0.012,0.925-0.413,1.274h0.15c0.101,0.025,0.138,0.163,0.112,0.413c0,0.399-1.112,1.313-3.337,2.737l-10.163,2.1
			l-9.899,0.075l-7.763-1.575l-3.3-1.612c-0.25-0.225-0.413-0.425-0.488-0.6C6.3,37.3,6.262,36.975,6.287,36.55
			s0.112-0.725,0.263-0.899c0.125-0.15,0.325-0.237,0.6-0.263l0.488-0.075c-0.175-0.35-0.313-0.725-0.413-1.125
			c-0.2-0.8-0.125-1.313,0.226-1.537c0.575-0.351,1.187-0.275,1.837,0.225c0.125-0.8,0.513-1.362,1.163-1.688l1.237-0.563
			c0-0.125,0.012-0.274,0.037-0.45c0.075-0.35,0.212-0.612,0.413-0.787c0.549-0.476,1.149-0.413,1.8,0.188l0.6,0.563l0.338-0.375
			c0.275-0.25,0.55-0.413,0.825-0.487l0.712-0.15c0-0.175,0.025-0.375,0.075-0.6c0.075-0.4,0.225-0.638,0.45-0.713
			c0.25-0.1,0.575-0.075,0.975,0.075c0.375,0.149,0.625,0.337,0.75,0.563l0.3,0.412l0.525-0.6c0.4-0.425,0.787-0.713,1.162-0.862
			c1.55-0.601,2.425-0.65,2.625-0.15c0.15,0.45,0.163,0.763,0.038,0.938L23.8,28c0.375-0.1,0.7-0.138,0.975-0.112l0.976,0.037
			c-0.1-0.175-0.162-0.375-0.188-0.6c-0.1-0.425-0.025-0.713,0.225-0.862c0.275-0.176,0.688-0.138,1.237,0.112
			c0.501,0.2,0.913,0.45,1.238,0.75c0.375,0.325,0.687,0.638,0.938,0.938l0.862-0.3c0.675-0.125,1.25-0.075,1.725,0.149
			c0.475,0.226,0.675,0.476,0.601,0.75c-0.025,0.15-0.101,0.263-0.226,0.338l0.413,0.037c0.325,0.101,0.662,0.288,1.012,0.563
			l0.788,0.638L35.013,29.838z"/>
		<path style="fill-rule:evenodd;clip-rule:evenodd;fill:#E3AD5B;" d="M11.5,30.888c0.825-0.275,1.2-0.2,1.125,0.225
			c-0.075,0.4-0.313,0.713-0.713,0.938c-0.425,0.226-0.862,0.375-1.313,0.45c-0.55,0.101-0.762,0-0.638-0.3
			C10.163,31.6,10.675,31.162,11.5,30.888z"/>
		<path style="fill-rule:evenodd;clip-rule:evenodd;fill:#E3AD5B;" d="M10.075,33.588c2.075-0.301,3.062-0.263,2.962,0.112
			c-0.075,0.25-0.437,0.537-1.087,0.862c-0.75,0.35-1.45,0.487-2.101,0.412C9.2,34.9,8.975,34.65,9.175,34.225
			C9.375,33.85,9.675,33.638,10.075,33.588z"/>
		<path style="fill-rule:evenodd;clip-rule:evenodd;fill:#E3AD5B;" d="M13.975,31.188c0.375-0.15,0.8-0.162,1.275-0.037
			c0.475,0.1,0.55,0.274,0.225,0.524C15.05,32,14.425,32.338,13.6,32.688c-0.95,0.4-1.562,0.513-1.837,0.338
			c-0.25-0.176-0.1-0.476,0.449-0.9C12.737,31.725,13.325,31.412,13.975,31.188z"/>
		<path style="fill-rule:evenodd;clip-rule:evenodd;fill:#E3AD5B;" d="M12.888,29.388c0.65-0.05,1.199,0.3,1.649,1.05
			c0.125,0.25,0.025,0.412-0.3,0.487c-0.35,0.075-0.713,0.038-1.088-0.112c-0.35-0.15-0.563-0.412-0.637-0.787
			C12.462,29.65,12.587,29.438,12.888,29.388z"/>
		<path style="fill-rule:evenodd;clip-rule:evenodd;fill:#E3AD5B;" d="M8.95,33.175c0.2,0.75-0.038,1.65-0.713,2.7
			c-0.65,1.025-1.112,1.413-1.388,1.162c-0.2-0.199-0.225-0.625-0.075-1.274c0.125-0.601,0.375-1.263,0.75-1.987
			c0.325-0.65,0.625-1.013,0.9-1.088C8.7,32.638,8.875,32.8,8.95,33.175z"/>
		<path style="fill-rule:evenodd;clip-rule:evenodd;fill:#E3AD5B;" d="M11.274,35.313c1.875-0.15,2,0.162,0.375,0.938
			c-1.75,0.851-2.725,1.05-2.925,0.6c-0.149-0.35,0.1-0.699,0.75-1.05C10.05,35.525,10.65,35.362,11.274,35.313z"/>
		<path style="fill-rule:evenodd;clip-rule:evenodd;fill:#E3AD5B;" d="M10.787,38.35c0.875,0.676,0.55,0.9-0.975,0.676
			c-1.525-0.2-2.388-0.575-2.588-1.125C7,37.375,7.375,37.188,8.35,37.338C9.275,37.487,10.087,37.825,10.787,38.35z"/>
		<path style="fill-rule:evenodd;clip-rule:evenodd;fill:#E3AD5B;" d="M16.225,35.95c0.55,0.149,0.288,0.475-0.787,0.975
			c-1.075,0.5-1.875,0.588-2.4,0.263c-0.575-0.35-0.412-0.7,0.487-1.05C14.45,35.788,15.35,35.725,16.225,35.95z"/>
		<path style="fill-rule:evenodd;clip-rule:evenodd;fill:#E3AD5B;" d="M16.149,38.65c0.375,0.25,0.775,0.712,1.2,1.387
			c0.425,0.7,0.513,1.125,0.263,1.275c-0.275,0.175-0.837-0.037-1.688-0.638c-0.875-0.6-1.4-1.175-1.575-1.725
			c-0.175-0.55-0.075-0.851,0.3-0.9C15.024,37.975,15.525,38.175,16.149,38.65z"/>
		<path style="fill-rule:evenodd;clip-rule:evenodd;fill:#E3AD5B;" d="M11.725,40.112c0.7-0.35,1.213-0.55,1.538-0.6
			c0.449-0.05,0.725,0.138,0.824,0.563c0.075,0.375-0.012,0.537-0.262,0.487c-0.351-0.125-0.613-0.2-0.788-0.225L11.725,40.112z"/>
		<path style="fill-rule:evenodd;clip-rule:evenodd;fill:#E3AD5B;" d="M18.7,35.2c1.299-0.65,1.412-0.338,0.337,0.938
			c-1.075,1.3-1.862,1.813-2.362,1.537c-0.45-0.25-0.412-0.638,0.112-1.162C17.212,36.063,17.85,35.625,18.7,35.2z"/>
		<path style="fill-rule:evenodd;clip-rule:evenodd;fill:#E3AD5B;" d="M16.037,33.7c2-0.3,2.476-0.088,1.425,0.638
			c-1.125,0.824-1.975,1.075-2.55,0.75c-0.475-0.25-0.55-0.525-0.225-0.825C14.962,33.987,15.413,33.8,16.037,33.7z"/>
		<path style="fill-rule:evenodd;clip-rule:evenodd;fill:#E3AD5B;" d="M18.362,34.15c0.925,0,0.988,0.212,0.188,0.637
			c-0.9,0.476-1.425,0.638-1.575,0.488c-0.149-0.125-0.05-0.338,0.3-0.638C17.649,34.313,18.012,34.15,18.362,34.15z"/>
		<path style="fill-rule:evenodd;clip-rule:evenodd;fill:#E3AD5B;" d="M17.649,31.938c0.85,0.101,1.525,0.3,2.025,0.6
			c0.5,0.301,0.613,0.575,0.338,0.825c-0.25,0.2-0.913,0.163-1.988-0.112c-1.05-0.25-1.7-0.513-1.949-0.787
			c-0.201-0.25-0.113-0.425,0.262-0.525C16.662,31.862,17.1,31.862,17.649,31.938z"/>
		<path style="fill-rule:evenodd;clip-rule:evenodd;fill:#E3AD5B;" d="M14.575,33.063c0.125-0.3,0.337-0.475,0.637-0.525
			c0.275-0.024,0.4,0.125,0.375,0.45c-0.05,0.4-0.237,0.663-0.563,0.788C14.675,33.9,14.525,33.662,14.575,33.063z"/>
		<path style="fill-rule:evenodd;clip-rule:evenodd;fill:#E3AD5B;" d="M16.263,29.313c1.025-0.15,1.137,0.025,0.337,0.525
			c-0.825,0.574-1.35,0.75-1.575,0.524c-0.174-0.175-0.1-0.387,0.226-0.638C15.525,29.5,15.862,29.362,16.263,29.313z"/>
		<path style="fill-rule:evenodd;clip-rule:evenodd;fill:#E3AD5B;" d="M17.987,30.438c0.925,0.25,1.4,0.463,1.425,0.638
			c0.025,0.1-0.163,0.25-0.563,0.45c-0.3,0.125-0.75,0.112-1.35-0.038c-0.625-0.125-1.013-0.3-1.163-0.524
			c-0.125-0.226-0.012-0.4,0.338-0.525C17.05,30.338,17.487,30.338,17.987,30.438z"/>
		<path style="fill-rule:evenodd;clip-rule:evenodd;fill:#E3AD5B;" d="M17.912,29.125c-0.4-0.875-0.062-0.85,1.013,0.075
			c1.075,0.95,1.35,1.438,0.825,1.462C19.05,30.737,18.438,30.225,17.912,29.125z"/>
		<path style="fill-rule:evenodd;clip-rule:evenodd;fill:#E3AD5B;" d="M21.399,30.55c0.451,1.05,0.351,1.913-0.299,2.588
			c-0.25,0.274-0.475,0.237-0.675-0.112c-0.175-0.325-0.263-0.75-0.263-1.275c0-0.5,0.15-0.938,0.45-1.313
			C20.938,30.063,21.2,30.1,21.399,30.55z"/>
		<path style="fill-rule:evenodd;clip-rule:evenodd;fill:#E3AD5B;" d="M21.475,33.888c1.875,0.55,2.275,1.013,1.2,1.388
			c-1.2,0.425-2.038,0.375-2.513-0.15c-0.4-0.425-0.437-0.775-0.112-1.05C20.375,33.775,20.85,33.713,21.475,33.888z"/>
		<path style="fill-rule:evenodd;clip-rule:evenodd;fill:#E3AD5B;" d="M20.95,35.987c1.35,0.125,1.774,0.45,1.275,0.976
			c-0.5,0.524-1.225,0.625-2.175,0.3c-0.825-0.275-1.013-0.575-0.563-0.9C19.913,36.063,20.4,35.938,20.95,35.987z"/>
		<path style="fill-rule:evenodd;clip-rule:evenodd;fill:#E3AD5B;" d="M23.537,37.15c0.875,0.175,0.875,0.662,0,1.462
			s-1.563,1.025-2.062,0.675c-0.425-0.3-0.288-0.762,0.413-1.387C22.562,37.3,23.112,37.05,23.537,37.15z"/>
		<path style="fill-rule:evenodd;clip-rule:evenodd;fill:#E3AD5B;" d="M26.35,38.912c0.725,0.025,0.763,0.275,0.112,0.75
			c-0.6,0.476-1.287,0.575-2.063,0.301c-0.8-0.301-0.925-0.563-0.375-0.788C24.525,38.95,25.3,38.862,26.35,38.912z"/>
		<path style="fill-rule:evenodd;clip-rule:evenodd;fill:#E3AD5B;" d="M20.913,41.125c0.4-0.475,0.762-0.825,1.087-1.05
			c0.525-0.325,0.863-0.25,1.013,0.225C23.237,41.025,22.537,41.3,20.913,41.125z"/>
		<path style="fill-rule:evenodd;clip-rule:evenodd;fill:#E3AD5B;" d="M24.774,30.813c1.55-0.15,1.875,0.188,0.976,1.013
			c-0.9,0.825-1.825,1.225-2.775,1.2c-0.826-0.025-0.963-0.375-0.413-1.051C23.112,31.3,23.85,30.913,24.774,30.813z"/>
		<path style="fill-rule:evenodd;clip-rule:evenodd;fill:#E3AD5B;" d="M22.6,29.838c0.575-0.601,0.912-0.612,1.012-0.038
			c0.101,0.551-0.175,0.938-0.825,1.163c-0.575,0.175-0.838,0.112-0.788-0.188C22.05,30.525,22.25,30.213,22.6,29.838z"/>
		<path style="fill-rule:evenodd;clip-rule:evenodd;fill:#E3AD5B;" d="M25.3,28.188c0.625,0.075,0.55,0.313-0.225,0.713
			C24.35,29.3,23.725,29.35,23.2,29.05c-0.5-0.3-0.425-0.537,0.225-0.712C24.024,28.162,24.65,28.112,25.3,28.188z"/>
		<path style="fill-rule:evenodd;clip-rule:evenodd;fill:#E3AD5B;" d="M22.712,27.325c0.275,0.149-0.074,0.412-1.049,0.787
			c-0.95,0.351-1.563,0.45-1.837,0.3C19.5,28.237,19.8,27.95,20.725,27.55C21.625,27.15,22.287,27.075,22.712,27.325z"/>
		<path style="fill-rule:evenodd;clip-rule:evenodd;fill:#E3AD5B;" d="M26.987,26.763c0.399,0.2,0.649,0.462,0.75,0.787
			s-0.037,0.538-0.412,0.638C26.975,28.263,26.649,28.2,26.35,28c-0.225-0.175-0.4-0.4-0.524-0.675
			c-0.101-0.25-0.05-0.45,0.149-0.601C26.225,26.55,26.563,26.563,26.987,26.763z"/>
		<path style="fill-rule:evenodd;clip-rule:evenodd;fill:#E3AD5B;" d="M26.649,28.862c0.976,0.075,1.051,0.313,0.226,0.713
			s-1.488,0.487-1.987,0.263c-0.4-0.226-0.313-0.463,0.262-0.713C25.699,28.9,26.2,28.813,26.649,28.862z"/>
		<path style="fill-rule:evenodd;clip-rule:evenodd;fill:#E3AD5B;" d="M28.3,30.588c0.399,0.149,0.649,0.449,0.75,0.899
			c0.101,0.375,0.05,0.663-0.15,0.862c-0.375,0.325-0.912,0.025-1.612-0.899c-0.3-0.425-0.337-0.737-0.112-0.938
			C27.425,30.338,27.8,30.362,28.3,30.588z"/>
		<path style="fill-rule:evenodd;clip-rule:evenodd;fill:#E3AD5B;" d="M29.05,28.713c0.825-0.025,1.013,0.199,0.563,0.675
			C29.137,29.838,28.6,30,28,29.875c-0.551-0.1-0.638-0.313-0.263-0.638C28.088,28.963,28.524,28.787,29.05,28.713z"/>
		<path style="fill-rule:evenodd;clip-rule:evenodd;fill:#E3AD5B;" d="M31.938,30.588c1.35,0.425,1.512,0.675,0.487,0.75
			c-1.125,0.074-1.825-0.063-2.1-0.413c-0.251-0.3-0.188-0.487,0.188-0.563C30.862,30.313,31.337,30.388,31.938,30.588z"/>
		<path style="fill-rule:evenodd;clip-rule:evenodd;fill:#E3AD5B;" d="M30.513,33.325c1.1,0.45,1.35,0.862,0.75,1.237
			c-0.601,0.4-1.362,0.288-2.288-0.338c-0.85-0.574-0.987-0.949-0.412-1.125C29.112,32.95,29.763,33.025,30.513,33.325z"/>
		<path style="fill-rule:evenodd;clip-rule:evenodd;fill:#E3AD5B;" d="M30.7,31.862c0.85-0.075,1.037,0.063,0.563,0.413
			c-0.476,0.375-0.925,0.537-1.351,0.487c-0.375-0.025-0.45-0.175-0.225-0.45C29.938,32.063,30.275,31.912,30.7,31.862z"/>
		<path style="fill-rule:evenodd;clip-rule:evenodd;fill:#E3AD5B;" d="M29.125,35.95c0.45,1.024,0.324,1.6-0.375,1.725
			c-0.775,0.125-1.138-0.225-1.088-1.05c0.051-0.725,0.25-1.15,0.601-1.275C28.588,35.226,28.875,35.425,29.125,35.95z"/>
		<path style="fill-rule:evenodd;clip-rule:evenodd;fill:#E3AD5B;" d="M25.787,36.325c0.5,0.675,0.5,1.063,0,1.162
			c-0.475,0.101-0.975-0.212-1.5-0.938c-0.5-0.675-0.463-1.013,0.112-1.013C24.975,35.563,25.438,35.825,25.787,36.325z"/>
		<path style="fill-rule:evenodd;clip-rule:evenodd;fill:#E3AD5B;" d="M28.524,38.275c1.226,0.5,1.438,0.8,0.638,0.899
			c-0.85,0.101-1.525-0.037-2.024-0.412c-0.45-0.325-0.501-0.55-0.15-0.675S27.85,38.025,28.524,38.275z"/>
		<path style="fill-rule:evenodd;clip-rule:evenodd;fill:#E3AD5B;" d="M28.037,39.888c0.601-0.025,0.601,0.188,0,0.638
			c-0.6,0.425-1.3,0.637-2.1,0.637c-0.875,0-1-0.199-0.375-0.6C26.162,40.162,26.987,39.938,28.037,39.888z"/>
		<path style="fill-rule:evenodd;clip-rule:evenodd;fill:#E3AD5B;" d="M32.013,36.25c0.6,0.825,0.513,1.2-0.263,1.125
			c-0.775-0.1-1.225-0.537-1.351-1.313c-0.1-0.7,0.05-0.987,0.45-0.862C31.199,35.3,31.588,35.65,32.013,36.25z"/>
		<path style="fill-rule:evenodd;clip-rule:evenodd;fill:#E3AD5B;" d="M31.712,38.388c0.626,0.375,0.726,0.712,0.301,1.013
			c-0.425,0.3-1.001,0.25-1.726-0.15c-0.725-0.375-0.825-0.7-0.3-0.975C30.537,37.975,31.112,38.013,31.712,38.388z"/>
		<path style="fill-rule:evenodd;clip-rule:evenodd;fill:#E3AD5B;" d="M30.513,40.075c0.899-0.075,1.162,0.075,0.787,0.45
			c-0.375,0.399-0.774,0.587-1.2,0.563c-0.324,0-0.425-0.163-0.3-0.488C29.925,40.3,30.162,40.125,30.513,40.075z"/>
		<path style="fill-rule:evenodd;clip-rule:evenodd;fill:#E3AD5B;" d="M34.638,37.525c0.925,0.149,1.175,0.399,0.75,0.75
			c-0.45,0.375-0.963,0.475-1.538,0.3c-0.85-0.25-1.125-0.513-0.825-0.788C33.325,37.487,33.862,37.4,34.638,37.525z"/>
		<path style="fill-rule:evenodd;clip-rule:evenodd;fill:#E3AD5B;" d="M33.962,39.138c0.775,0.125,0.976,0.35,0.601,0.675
			c-0.375,0.35-0.862,0.463-1.463,0.338c-0.5-0.125-0.588-0.338-0.263-0.638S33.537,39.088,33.962,39.138z"/>
		<path style="fill-rule:evenodd;clip-rule:evenodd;fill:#E3AD5B;" d="M36.399,36.775c0.175-0.775,0.4-0.775,0.676,0
			c0.249,0.824,0.274,1.387,0.074,1.688c-0.2,0.274-0.399,0.188-0.6-0.263S36.3,37.275,36.399,36.775z"/>
		<path style="fill-rule:evenodd;clip-rule:evenodd;fill:#E3AD5B;" d="M39.737,37.75c0.875,0.425,0.813,0.638-0.188,0.638
			c-1.024,0-1.7-0.15-2.025-0.45c-0.325-0.274-0.175-0.438,0.45-0.487S39.188,37.5,39.737,37.75z"/>
		<path style="fill-rule:evenodd;clip-rule:evenodd;fill:#E3AD5B;" d="M34,34.375c1.025,0.075,1.362,0.325,1.013,0.75
			c-0.375,0.425-0.987,0.537-1.838,0.338c-0.774-0.176-0.962-0.413-0.563-0.713C32.987,34.476,33.449,34.35,34,34.375z"/>
		<path style="fill-rule:evenodd;clip-rule:evenodd;fill:#E3AD5B;" d="M34.975,35.725c1.825-0.175,2.412-0.012,1.763,0.488
			c-0.726,0.574-1.438,0.774-2.138,0.6c-0.55-0.1-0.787-0.263-0.712-0.487C33.962,36.125,34.324,35.925,34.975,35.725z"/>
		<path style="fill-rule:evenodd;clip-rule:evenodd;fill:#E3AD5B;" d="M35.274,32.763c0.65,0.225,0.663,0.412,0.038,0.563
			c-0.65,0.175-1.138,0.2-1.463,0.075c-0.699-0.275-0.787-0.5-0.263-0.676C34.112,32.55,34.675,32.563,35.274,32.763z"/>
		<path style="fill-rule:evenodd;clip-rule:evenodd;fill:#E3AD5B;" d="M35.95,29.838c0.274,0.199,0.237,0.524-0.113,0.975
			c-0.375,0.45-0.8,0.612-1.274,0.487c-0.45-0.149-0.388-0.462,0.188-0.938C35.324,29.838,35.725,29.662,35.95,29.838z"/>
		<path style="fill-rule:evenodd;clip-rule:evenodd;fill:#E3AD5B;" d="M36.962,31.938c0.525,0.2,0.588,0.412,0.188,0.638
			c-0.399,0.225-0.862,0.213-1.387-0.038c-0.525-0.225-0.601-0.438-0.226-0.637C35.938,31.725,36.412,31.737,36.962,31.938z"/>
		<path style="fill-rule:evenodd;clip-rule:evenodd;fill:#E3AD5B;" d="M39.925,32.313c0.5-0.05,0.538,0.138,0.112,0.563
			c-0.45,0.425-0.949,0.625-1.5,0.6c-0.55-0.024-0.6-0.212-0.149-0.563C38.837,32.563,39.35,32.362,39.925,32.313z"/>
		<path style="fill-rule:evenodd;clip-rule:evenodd;fill:#E3AD5B;" d="M37.149,33.662c1.051,0.075,1.351,0.238,0.9,0.488
			c-0.5,0.225-1,0.274-1.5,0.149c-0.399-0.075-0.476-0.212-0.225-0.412C36.574,33.688,36.85,33.612,37.149,33.662z"/>
		<path style="fill-rule:evenodd;clip-rule:evenodd;fill:#E3AD5B;" d="M40.112,34.3c1.149,0.2,1.513,0.388,1.088,0.563
			c-0.425,0.2-1.063,0.213-1.913,0.038c-0.725-0.15-0.899-0.313-0.524-0.488C39.138,34.263,39.587,34.225,40.112,34.3z"/>
		<path style="fill-rule:evenodd;clip-rule:evenodd;fill:#F5D7A9;" d="M11.388,31.037c0.625-0.225,0.762-0.124,0.412,0.301
			c-0.375,0.425-0.713,0.662-1.013,0.712c-0.275,0.05-0.362-0.063-0.263-0.337C10.625,31.438,10.913,31.213,11.388,31.037z"/>
		<path style="fill-rule:evenodd;clip-rule:evenodd;fill:#F5D7A9;" d="M14.013,31.3c0.75-0.125,0.837,0.075,0.262,0.601
			c-0.575,0.524-1.137,0.787-1.688,0.787c-0.475,0-0.449-0.213,0.075-0.638C13.163,31.625,13.612,31.375,14.013,31.3z"/>
		<path style="fill-rule:evenodd;clip-rule:evenodd;fill:#F5D7A9;" d="M13.412,29.8c0.45,0.226,0.65,0.438,0.601,0.638
			c-0.075,0.225-0.301,0.275-0.676,0.15c-0.325-0.125-0.449-0.313-0.375-0.563C13.037,29.775,13.188,29.7,13.412,29.8z"/>
		<path style="fill-rule:evenodd;clip-rule:evenodd;fill:#F5D7A9;" d="M10.524,35.688c1-0.15,1.263-0.063,0.788,0.263
			c-0.5,0.325-1.025,0.487-1.575,0.487c-0.45,0-0.525-0.112-0.225-0.338C9.837,35.875,10.175,35.737,10.524,35.688z"/>
		<path style="fill-rule:evenodd;clip-rule:evenodd;fill:#F5D7A9;" d="M16.263,33.888c0.975-0.101,1.075,0.037,0.3,0.412
			c-0.8,0.375-1.388,0.513-1.763,0.413c-0.35-0.101-0.35-0.25,0-0.45S15.637,33.938,16.263,33.888z"/>
		<path style="fill-rule:evenodd;clip-rule:evenodd;fill:#F5D7A9;" d="M14.912,36.138c0.45,0.075,0.563,0.213,0.338,0.412
			c-0.226,0.226-0.738,0.351-1.538,0.375c-0.875,0.025-1.075-0.125-0.6-0.45C13.563,36.15,14.162,36.037,14.912,36.138z"/>
		<path style="fill-rule:evenodd;clip-rule:evenodd;fill:#F5D7A9;" d="M9.513,37.975c0.475,0.351,0.449,0.5-0.075,0.45
			c-0.525-0.05-0.95-0.212-1.275-0.487c-0.275-0.25-0.175-0.35,0.3-0.3C8.912,37.688,9.262,37.8,9.513,37.975z"/>
		<path style="fill-rule:evenodd;clip-rule:evenodd;fill:#F5D7A9;" d="M18.024,32.275c0.576,0.199,0.75,0.35,0.525,0.449
			c-0.225,0.101-0.675,0.038-1.35-0.188c-0.625-0.199-0.738-0.324-0.338-0.375C17.262,32.112,17.649,32.15,18.024,32.275z"/>
		<path style="fill-rule:evenodd;clip-rule:evenodd;fill:#F5D7A9;" d="M18.063,30.625c0.5,0.075,0.55,0.175,0.149,0.3
			c-0.425,0.101-0.8,0.088-1.125-0.037c-0.3-0.125-0.287-0.213,0.038-0.263C17.45,30.55,17.763,30.55,18.063,30.625z"/>
		<path style="fill-rule:evenodd;clip-rule:evenodd;fill:#F5D7A9;" d="M21.024,30.963c0.2,0.6,0.188,1.05-0.037,1.35
			C20.763,32.638,20.6,32.601,20.5,32.2c-0.05-0.3,0.012-0.638,0.188-1.013C20.862,30.813,20.975,30.737,21.024,30.963z"/>
		<path style="fill-rule:evenodd;clip-rule:evenodd;fill:#F5D7A9;" d="M31.263,35.763c0.6,0.25,0.874,0.563,0.824,0.938
			c-0.024,0.375-0.212,0.438-0.563,0.188c-0.3-0.25-0.513-0.537-0.637-0.862C30.787,35.7,30.912,35.612,31.263,35.763z"/>
		<path style="fill-rule:evenodd;clip-rule:evenodd;fill:#F5D7A9;" d="M28.563,35.838c0.3,0.375,0.412,0.712,0.337,1.012
			c-0.074,0.275-0.262,0.351-0.563,0.226c-0.274-0.125-0.337-0.388-0.188-0.788C28.3,35.862,28.438,35.713,28.563,35.838z"/>
		<path style="fill-rule:evenodd;clip-rule:evenodd;fill:#F5D7A9;" d="M30.024,33.625c0.375,0.25,0.488,0.463,0.338,0.638
			c-0.15,0.149-0.438,0.162-0.862,0.037c-0.375-0.1-0.45-0.287-0.226-0.563C29.5,33.487,29.75,33.45,30.024,33.625z"/>
		<path style="fill-rule:evenodd;clip-rule:evenodd;fill:#F5D7A9;" d="M24.475,31.263c1.025-0.15,1.237,0,0.638,0.45
			c-0.6,0.449-1.212,0.7-1.838,0.75c-0.475,0.05-0.437-0.138,0.113-0.563C23.963,31.476,24.325,31.263,24.475,31.263z"/>
		<path style="fill-rule:evenodd;clip-rule:evenodd;fill:#F5D7A9;" d="M34.225,34.75c0.5,0.05,0.588,0.112,0.263,0.188
			c-0.3,0.075-0.6,0.112-0.9,0.112c-0.249,0-0.325-0.063-0.225-0.188C33.463,34.763,33.75,34.725,34.225,34.75z"/>
		<path style="fill-rule:evenodd;clip-rule:evenodd;fill:#F5D7A9;" d="M23.2,37.638c0.274,0,0.237,0.175-0.113,0.524
			c-0.35,0.351-0.712,0.525-1.087,0.525c-0.425,0-0.425-0.175,0-0.525C22.4,37.813,22.8,37.638,23.2,37.638z"/>
		<path style="fill-rule:evenodd;clip-rule:evenodd;fill:#F5D7A9;" d="M20.725,36.213c0.7,0,0.988,0.1,0.862,0.3
			c-0.1,0.2-0.337,0.325-0.712,0.375C20.575,36.913,20.4,36.8,20.35,36.55C20.274,36.325,20.4,36.213,20.725,36.213z"/>
		<path style="fill-rule:evenodd;clip-rule:evenodd;fill:#F5D7A9;" d="M21.475,34.188c0.724,0.15,0.95,0.3,0.674,0.45
			c-0.299,0.175-0.674,0.2-1.125,0.075c-0.399-0.101-0.5-0.226-0.3-0.375C20.9,34.188,21.15,34.138,21.475,34.188z"/>
		<path style="fill-rule:evenodd;clip-rule:evenodd;fill:#F5D7A9;" d="M15.774,38.838c0.55,0.5,0.713,0.862,0.488,1.087
			c-0.201,0.226-0.475,0.15-0.825-0.225c-0.3-0.375-0.413-0.688-0.338-0.938C15.175,38.487,15.399,38.513,15.774,38.838z"/>
		<path style="fill-rule:evenodd;clip-rule:evenodd;fill:#91641D;" d="M11.35,38.388c0.2-0.025,0.7-0.162,1.5-0.413
			c0.775-0.199,1.263-0.237,1.463-0.112c0.225,0.125,0.237,0.313,0.037,0.563c-0.35,0.4-0.538,0.65-0.563,0.75
			c-0.1,0.25-0.275,0.363-0.524,0.338c-0.15,0-0.475-0.088-0.976-0.263c-0.425-0.15-0.737-0.325-0.938-0.525
			C11.125,38.525,11.125,38.413,11.35,38.388z"/>
		<path style="fill-rule:evenodd;clip-rule:evenodd;fill:#91641D;" d="M24.7,28.825c-0.05,0.25-0.188,0.462-0.413,0.638
			c-0.25,0.375-0.512,0.6-0.787,0.675c-0.3,0.1-0.838,0.175-1.612,0.225c-0.95,0.075-1.588,0.038-1.913-0.112
			c-0.3-0.125-0.375-0.274-0.225-0.45c0.1-0.149,0.275-0.263,0.524-0.337c0.201-0.05,0.863-0.237,1.988-0.563
			c1.075-0.301,1.762-0.463,2.063-0.488C24.625,28.388,24.75,28.525,24.7,28.825z"/>
		<path style="fill-rule:evenodd;clip-rule:evenodd;fill:#91641D;" d="M22.788,35.2c0.225-0.375,0.837-0.7,1.837-0.976
			c0.85-0.225,1.512-0.312,1.987-0.262c0.325,0.024,0.462,0.175,0.412,0.449c-0.05,0.251-0.188,0.463-0.412,0.638
			c-0.575,0.575-0.975,0.938-1.2,1.088c-0.3,0.25-0.8,0.35-1.5,0.3c-0.25-0.025-0.5-0.175-0.75-0.45
			C22.912,35.713,22.788,35.45,22.788,35.2z"/>
		<path style="fill-rule:evenodd;clip-rule:evenodd;fill:#91641D;" d="M31.487,30.475c-0.25,0.051-0.638,0.025-1.162-0.074
			c-0.525-0.101-0.913-0.213-1.163-0.338c-0.199-0.1-0.3-0.237-0.3-0.412l0.037-0.263c0.175-0.4,0.65-0.588,1.426-0.563
			c0.425,0,1.037,0.075,1.837,0.225c0.5,0.05,0.888,0.275,1.163,0.675c0.3,0.4,0.162,0.638-0.413,0.713
			c-0.475,0.05-0.8,0.063-0.975,0.037C31.737,30.45,31.588,30.45,31.487,30.475z"/>
		<path style="fill-rule:evenodd;clip-rule:evenodd;fill:#91641D;" d="M34.188,32.05c0.125,0.25,0.137,0.551,0.037,0.9
			c-0.05,0.2-0.3,0.274-0.75,0.225c-0.65-0.1-1.013-0.149-1.087-0.149c-0.325,0.05-0.688,0.024-1.088-0.075
			c-0.476-0.075-0.774-0.213-0.9-0.413c0.101-0.225,1.112-0.512,3.038-0.862C33.813,31.6,34.063,31.725,34.188,32.05z"/>
		<path style="fill-rule:evenodd;clip-rule:evenodd;fill:#91641D;" d="M36.362,30.888l-0.188-0.112
			c-0.024-0.425,0.375-0.176,1.2,0.75c0.8,0.925,1.262,1.612,1.388,2.063c0.1,0.375-0.113,0.5-0.638,0.375
			c-0.5-0.15-0.938-0.413-1.313-0.788c-0.275-0.274-0.4-0.6-0.375-0.975C36.463,31.625,36.438,31.188,36.362,30.888z"/>
		<path style="fill-rule:evenodd;clip-rule:evenodd;fill:#91641D;" d="M37.337,36.063l1.275,0.037
			c0.9,0.051,1.513,0.125,1.838,0.226c0.325,0.1,0.487,0.263,0.487,0.487c0,0.125-0.051,0.3-0.15,0.525
			c-0.05,0.25-0.762,0.125-2.138-0.375c-0.6-0.226-0.999-0.438-1.199-0.638L37.337,36.063z"/>
		<path style="fill-rule:evenodd;clip-rule:evenodd;fill:#FAD932;" d="M22.975,27.813c0.375,0.225,0.562,0.487,0.562,0.787
			c0,0.15-0.088,0.288-0.263,0.413c-0.249,0.175-0.449,0.375-0.6,0.6c-0.175,0.275-0.438,0.425-0.787,0.45
			c-0.5,0-0.925-0.013-1.275-0.037C20.187,30,19.775,29.925,19.375,29.8l-0.487-0.149c-0.025-0.176-0.013-0.363,0.037-0.563
			c0.1-0.375,0.325-0.601,0.675-0.676c0.3-0.05,0.575-0.175,0.825-0.375c0.25-0.225,0.438-0.35,0.563-0.375
			C21.838,27.487,22.5,27.538,22.975,27.813z"/>
		<path style="fill-rule:evenodd;clip-rule:evenodd;fill:#FAD932;" d="M9.962,38.5c-0.225-0.2-0.225-0.412,0-0.638
			c0.301-0.274,0.45-0.45,0.45-0.524c0-0.2,0.15-0.375,0.45-0.525c0.325-0.125,0.725-0.188,1.2-0.188c0.85,0,1.45,0.225,1.8,0.675
			c0.35,0.4,0.375,0.8,0.075,1.2c-0.325,0.4-0.513,0.625-0.563,0.675c-0.15,0.075-0.463,0.125-0.938,0.15
			C11.487,39.4,10.662,39.125,9.962,38.5z"/>
		<path style="fill-rule:evenodd;clip-rule:evenodd;fill:#FAD932;" d="M23.912,33.438c0.475-0.3,1-0.362,1.575-0.188
			c0.55,0.15,0.8,0.362,0.75,0.638c-0.024,0.2-0.138,0.438-0.338,0.712c-0.3,0.375-0.537,0.676-0.712,0.9
			c-0.2,0.3-0.388,0.45-0.563,0.45c-0.25-0.075-0.513-0.112-0.788-0.112c-0.325,0-0.624-0.113-0.9-0.338
			c-0.275-0.3-0.512-0.537-0.712-0.713c-0.226-0.25-0.2-0.499,0.075-0.75c0.274-0.225,0.737-0.412,1.388-0.563L23.912,33.438z"/>
		<path style="fill-rule:evenodd;clip-rule:evenodd;fill:#FAD932;" d="M35.425,32.162c-0.075,0.226-0.188,0.338-0.338,0.338
			c-0.225-0.075-0.437-0.112-0.637-0.112c-0.126,0-0.513,0.075-1.163,0.225c-0.55,0.125-0.987,0.15-1.313,0.075
			c-0.324-0.075-0.487-0.263-0.487-0.563c0.075-0.425,0.101-0.775,0.075-1.05c-0.025-0.35,0.162-0.513,0.563-0.487
			c0.25,0.024,0.762,0.112,1.537,0.262C35.013,31.05,35.6,31.487,35.425,32.162z"/>
		<path style="fill-rule:evenodd;clip-rule:evenodd;fill:#FAD932;" d="M38.875,34.862c1.3,0.15,1.95,0.563,1.95,1.237
			c0,0.275-0.113,0.388-0.338,0.338c-0.425-0.05-0.726-0.05-0.9,0c-0.675,0.2-1.425-0.05-2.25-0.75
			c-0.399-0.375-0.412-0.638-0.037-0.787C37.65,34.775,38.175,34.763,38.875,34.862z"/>
		<path style="fill-rule:evenodd;clip-rule:evenodd;fill:#D9BC2B;" d="M9.774,38.162c0.301,0.2,0.738,0.375,1.313,0.525
			c0.7,0.175,1.163,0.263,1.388,0.263c0.175-0.025,0.5-0.275,0.976-0.75c0.35-0.35,0.475-0.638,0.375-0.862v-0.113
			c0.35,0.45,0.387,0.875,0.112,1.275c-0.325,0.4-0.513,0.625-0.563,0.675c-0.15,0.075-0.463,0.125-0.938,0.15
			c-0.95,0.075-1.775-0.2-2.476-0.825C9.837,38.4,9.774,38.287,9.774,38.162z"/>
		<path style="fill-rule:evenodd;clip-rule:evenodd;fill:#D9BC2B;" d="M23.462,28.338l0.075,0.262c0,0.15-0.088,0.288-0.263,0.413
			c-0.249,0.175-0.449,0.375-0.6,0.6c-0.175,0.275-0.438,0.425-0.787,0.45c-0.5,0-0.925-0.013-1.275-0.037
			C20.187,30,19.775,29.925,19.375,29.8l-0.487-0.149C18.862,29.4,18.9,29.15,19,28.9c0.075,0.125,0.225,0.212,0.45,0.262
			c0.05,0.025,0.3,0.063,0.75,0.113c0.85,0.149,1.412,0.162,1.688,0.037l0.862-0.638C23,28.5,23.237,28.388,23.462,28.338z"/>
		<path style="fill-rule:evenodd;clip-rule:evenodd;fill:#D9BC2B;" d="M25.225,34.563l0.487-0.525l0.188,0.038
			c0.126,0.025,0.213,0.063,0.263,0.112c-0.4,0.5-0.725,0.938-0.975,1.313c-0.2,0.3-0.388,0.45-0.563,0.45
			c-0.25-0.075-0.513-0.112-0.788-0.112c-0.325,0-0.624-0.113-0.9-0.338c-0.258-0.281-0.483-0.506-0.674-0.675
			c0.393,0.324,0.868,0.474,1.425,0.45c0.675,0,1.063-0.05,1.162-0.15L25.225,34.563z"/>
		<path style="fill-rule:evenodd;clip-rule:evenodd;fill:#D9BC2B;" d="M34.188,32.088c0.149,0,0.387,0.012,0.712,0.037
			c0.301-0.025,0.463-0.1,0.488-0.225l0.037-0.075v0.337c-0.075,0.226-0.188,0.338-0.338,0.338
			c-0.225-0.075-0.437-0.112-0.637-0.112c-0.126,0-0.513,0.075-1.163,0.225c-0.55,0.125-0.987,0.15-1.313,0.075
			c-0.199-0.075-0.337-0.162-0.412-0.263c0.125,0.05,0.387-0.012,0.787-0.188C32.649,32.138,33.262,32.088,34.188,32.088z"/>
		<path style="fill-rule:evenodd;clip-rule:evenodd;fill:#D9BC2B;" d="M38.162,35.987c0.525,0.25,0.912,0.325,1.163,0.226
			c0.225-0.101,0.6-0.15,1.125-0.15h0.449l-0.074,0.563L39.1,37.112l-1.649-0.337L38.162,35.987z"/>
		<path style="fill-rule:evenodd;clip-rule:evenodd;fill:#FFFB8C;" d="M11.05,37c-0.025,0.15,0.313,0.15,1.013,0
			c0.225-0.075,0.337-0.013,0.337,0.188c-0.074,0.075-0.35,0.112-0.824,0.112c-0.375,0.176-0.638,0.2-0.788,0.075
			c-0.075-0.075-0.05-0.175,0.075-0.3C11.013,36.9,11.075,36.875,11.05,37z"/>
		<path style="fill-rule:evenodd;clip-rule:evenodd;fill:#FFFB8C;" d="M13.075,37.338c0.25,0.024,0.337,0.087,0.262,0.188
			c-0.074,0.074-0.225,0.162-0.449,0.262c-0.175,0.075-0.351,0.063-0.525-0.037c-0.175-0.1-0.263-0.188-0.263-0.263
			C12.7,37.362,13.025,37.313,13.075,37.338z"/>
		<path style="fill-rule:evenodd;clip-rule:evenodd;fill:#FFFB8C;" d="M10.862,37.825c-0.125,0.025-0.15,0.05-0.075,0.075
			c0.125,0.074,0.188,0.149,0.188,0.225c-0.025,0.075-0.263,0.05-0.712-0.075c-0.201-0.075-0.125-0.199,0.225-0.375
			c0.05-0.05,0.137-0.063,0.263-0.037l0.263,0.037c0.024,0,0.112-0.037,0.262-0.112c0.125-0.05,0.25-0.05,0.375,0
			c0.175,0.075,0.138,0.138-0.112,0.188C11.313,37.8,11.087,37.825,10.862,37.825z"/>
		<path style="fill-rule:evenodd;clip-rule:evenodd;fill:#FFFB8C;" d="M12.024,37.9c0.25-0.025,0.375,0.037,0.375,0.188
			c0,0.125,0.226,0.112,0.676-0.038c0.174,0-0.113,0.15-0.863,0.45c-0.149,0.075-0.275,0.088-0.375,0.037
			c-0.125-0.124-0.25-0.237-0.375-0.337c-0.149-0.125-0.162-0.213-0.037-0.263C11.45,37.938,11.649,37.925,12.024,37.9z"/>
		<path style="fill-rule:evenodd;clip-rule:evenodd;fill:#FFFB8C;" d="M11.237,38.35c0.125,0.075,0.163,0.163,0.112,0.263
			c-0.05,0.075-0.175,0.088-0.375,0.038c-0.2-0.075-0.25-0.163-0.149-0.263C10.95,38.263,11.087,38.25,11.237,38.35z"/>
		<path style="fill-rule:evenodd;clip-rule:evenodd;fill:#FFFB8C;" d="M23.313,34.15c0.125,0,0.237,0.087,0.337,0.262
			c0.126,0.2,0.101,0.363-0.074,0.488c-0.175,0.1-0.388,0.125-0.638,0.074c-0.225-0.074-0.4-0.199-0.524-0.375
			c-0.1-0.149-0.012-0.262,0.262-0.337C22.875,34.188,23.087,34.15,23.313,34.15z"/>
		<path style="fill-rule:evenodd;clip-rule:evenodd;fill:#FFFB8C;" d="M23.837,34c-0.175-0.1-0.449-0.112-0.824-0.037
			c-0.251,0.024-0.325,0-0.225-0.075c0.175-0.101,0.4-0.162,0.674-0.188c0.251-0.025,0.438,0,0.563,0.075
			c0.126,0.1,0.163,0.188,0.113,0.262C24.063,34.112,23.963,34.101,23.837,34z"/>
		<path style="fill-rule:evenodd;clip-rule:evenodd;fill:#FFFB8C;" d="M24.287,34.263c0.325,0.05,0.463,0.175,0.413,0.375
			c-0.025,0.175-0.113,0.274-0.263,0.3c-0.1,0.025-0.2,0-0.3-0.075c-0.126-0.1-0.2-0.212-0.226-0.337
			C23.837,34.3,23.963,34.213,24.287,34.263z"/>
		<path style="fill-rule:evenodd;clip-rule:evenodd;fill:#FFFB8C;" d="M25.075,33.963c0.225,0,0.3,0.1,0.225,0.3
			c-0.024,0.05-0.101,0.087-0.225,0.112c-0.15,0-0.226-0.025-0.226-0.075c-0.025-0.075-0.037-0.138-0.037-0.188
			C24.838,34.037,24.925,33.987,25.075,33.963z"/>
		<path style="fill-rule:evenodd;clip-rule:evenodd;fill:#FFFB8C;" d="M24.475,33.888c-0.149,0.075-0.313,0.05-0.487-0.075
			c-0.15-0.125-0.163-0.225-0.037-0.3c0.05-0.025,0.074-0.063,0.074-0.112c0.025-0.025,0.163-0.05,0.413-0.075
			c0.675,0,1.037,0.037,1.087,0.112c0.05,0.05-0.062,0.125-0.337,0.225C24.787,33.787,24.55,33.862,24.475,33.888z"/>
		<path style="fill-rule:evenodd;clip-rule:evenodd;fill:#FFFB8C;" d="M20.125,28.45c0.05,0.025,0.625-0.013,1.725-0.112
			c0.325-0.025,0.363,0.063,0.112,0.262C21.688,28.8,21.399,28.9,21.1,28.9c-0.9,0.05-1.45,0.012-1.65-0.113
			c-0.125-0.1-0.075-0.188,0.149-0.262C19.825,28.425,20,28.4,20.125,28.45z"/>
		<path style="fill-rule:evenodd;clip-rule:evenodd;fill:#FFFB8C;" d="M22.038,28.638c0.1,0,0.125,0.05,0.075,0.149
			c-0.05,0.075-0.113,0.15-0.188,0.226s-0.188,0.112-0.338,0.112c-0.175,0.025-0.287,0-0.337-0.075
			c-0.05-0.075,0.026-0.162,0.226-0.263C21.675,28.688,21.862,28.638,22.038,28.638z"/>
		<path style="fill-rule:evenodd;clip-rule:evenodd;fill:#FFFB8C;" d="M21.325,28.15c-0.101-0.025-0.288-0.038-0.563-0.038
			c-0.125-0.024-0.125-0.075,0-0.149c0.124-0.125,0.375-0.226,0.75-0.301c0.35-0.05,0.537-0.012,0.563,0.113
			c0.024,0.1-0.076,0.199-0.301,0.3C21.575,28.15,21.425,28.175,21.325,28.15z"/>
		<path style="fill-rule:evenodd;clip-rule:evenodd;fill:#FFFB8C;" d="M22.675,28c0.101-0.025,0.125,0.025,0.075,0.15
			C22.7,28.3,22.6,28.425,22.45,28.525c-0.225,0.149-0.288,0.063-0.188-0.263C22.263,28.138,22.4,28.05,22.675,28z"/>
		<path style="fill-rule:evenodd;clip-rule:evenodd;fill:#FFFB8C;" d="M32.162,30.963c0.426,0,0.65,0.024,0.675,0.074
			c0.05,0.075,0.038,0.125-0.037,0.15c-0.101,0.025-0.175,0.05-0.225,0.075c-0.175,0.125-0.425,0.125-0.75,0
			c-0.075-0.05-0.075-0.112,0-0.188C31.899,31,32.013,30.963,32.162,30.963z"/>
		<path style="fill-rule:evenodd;clip-rule:evenodd;fill:#FFFB8C;" d="M31.975,31.45c0.176,0.125,0.45,0.162,0.825,0.112
			c0.3-0.05,0.45-0.05,0.45,0c0.025,0.075-0.063,0.125-0.263,0.15c-0.25,0.024-0.425,0.05-0.525,0.074
			c-0.249,0.2-0.462,0.251-0.637,0.15c-0.126-0.075-0.163-0.2-0.113-0.375S31.85,31.35,31.975,31.45z"/>
		<path style="fill-rule:evenodd;clip-rule:evenodd;fill:#FFFB8C;" d="M34.3,31.338c0.05,0.225-0.075,0.325-0.375,0.3
			c-0.225-0.05-0.351-0.101-0.375-0.15c-0.05-0.149-0.101-0.237-0.15-0.263C33.199,31.075,33.35,31,33.85,31
			C34.1,31,34.25,31.112,34.3,31.338z"/>
		<path style="fill-rule:evenodd;clip-rule:evenodd;fill:#FFFB8C;" d="M34.712,31.375c0.301-0.025,0.413,0.05,0.338,0.225
			c-0.075,0.176-0.212,0.238-0.412,0.188c-0.2-0.024-0.275-0.1-0.226-0.225C34.463,31.438,34.563,31.375,34.712,31.375z"/>
		<path style="fill-rule:evenodd;clip-rule:evenodd;fill:#FFFB8C;" d="M33.662,31.713c0.1,0,0.125,0.037,0.075,0.112
			c-0.024,0.075-0.112,0.112-0.263,0.112c-0.149-0.025-0.199-0.063-0.149-0.112C33.399,31.775,33.513,31.737,33.662,31.713z"/>
		<path style="fill-rule:evenodd;clip-rule:evenodd;fill:#FFFB8C;" d="M38.537,35.088c0.375,0.074,0.438,0.188,0.188,0.337
			c-0.25,0.176-0.5,0.2-0.75,0.075c-0.25-0.1-0.3-0.213-0.149-0.338C37.975,35.063,38.213,35.038,38.537,35.088z"/>
		<path style="fill-rule:evenodd;clip-rule:evenodd;fill:#FFFB8C;" d="M39.287,35.237c0.35-0.05,0.638,0.101,0.862,0.45
			c0.075,0.101,0.025,0.138-0.149,0.112c-0.25-0.05-0.45-0.05-0.601,0c-0.2,0.075-0.337,0.101-0.412,0.075
			c-0.125-0.05-0.263-0.112-0.412-0.188c-0.175-0.075-0.15-0.162,0.074-0.263C38.85,35.325,39.063,35.263,39.287,35.237z"/>
		<path style="fill-rule:evenodd;clip-rule:evenodd;fill:#FFFB8C;" d="M38.013,35.688c0.175-0.05,0.325-0.037,0.449,0.037
			c0.126,0.101,0.101,0.15-0.074,0.15c-0.301,0-0.476,0-0.525,0C37.712,35.85,37.762,35.788,38.013,35.688z"/>
		<path style="fill-rule:evenodd;clip-rule:evenodd;fill:#FFFB8C;" d="M40.149,35.313c0.126,0.05,0.213,0.101,0.263,0.15
			c0.025,0.074-0.037,0.1-0.188,0.074c-0.149-0.024-0.199-0.063-0.149-0.112L40.149,35.313z"/>
		<path style="fill-rule:evenodd;clip-rule:evenodd;fill:#915922;" d="M6.063,34.375c0.149-0.274,0.325-0.563,0.524-0.862
			c0.375-0.601,0.638-0.938,0.788-1.013c0.25-0.125,0.575,0.05,0.975,0.525c0.2,0.5,0.15,1.137-0.149,1.912
			c-0.4,0.975-1.038,1.375-1.913,1.2c-0.225-0.05-0.475-0.162-0.75-0.338L5.2,35.537C5.55,35.112,5.837,34.725,6.063,34.375z"/>
		<path style="fill-rule:evenodd;clip-rule:evenodd;fill:#915922;" d="M17.274,29.537c-0.899,0.125-1.437,0.063-1.612-0.188
			c-0.1-0.124-0.175-0.312-0.225-0.563l-0.038-0.375l0.375-0.074c0.301-0.075,0.625-0.113,0.976-0.113l0.787-0.337
			c0.55-0.226,0.925-0.288,1.125-0.188c0.325,0.149,0.425,0.462,0.3,0.938C18.413,29.162,17.85,29.463,17.274,29.537z"/>
		<path style="fill-rule:evenodd;clip-rule:evenodd;fill:#915922;" d="M13.375,33.888l0.638-0.525c0.5-0.3,0.887-0.313,1.162-0.037
			c0.35,0.325,0.412,0.8,0.188,1.425c-0.25,0.625-0.65,1.112-1.2,1.463c-0.45,0.274-0.975,0.387-1.575,0.337
			c-0.174,0-0.524-0.063-1.05-0.188c-0.125-0.024-0.275-0.237-0.45-0.638l-0.225-0.6c0.25-0.15,0.538-0.313,0.862-0.487
			C12.375,34.263,12.925,34.013,13.375,33.888z"/>
		<path style="fill-rule:evenodd;clip-rule:evenodd;fill:#915922;" d="M19.037,36.213c0.425,0.199,0.888,0.475,1.388,0.824
			c0.725,0.5,1.15,0.95,1.275,1.351c0.449,1.15,0.312,1.875-0.413,2.175c-0.5,0.2-1.087,0.237-1.763,0.112
			c-0.774-0.125-1.175-0.399-1.199-0.825c-0.025-0.399,0.087-1.125,0.337-2.175L19.037,36.213z"/>
		<path style="fill-rule:evenodd;clip-rule:evenodd;fill:#915922;" d="M26.388,32.537c0.774-0.425,1.374-0.625,1.8-0.6
			c0.425,0.025,0.737,0.2,0.938,0.525l0.225,0.712c0.051,0.176-0.05,0.463-0.3,0.862c-0.274,0.4-0.538,0.688-0.787,0.863
			c-0.45,0.325-0.737,0.513-0.863,0.563c-0.399,0.125-0.787-0.025-1.162-0.45c-0.375-0.4-0.612-0.788-0.713-1.163
			c-0.074-0.35-0.124-0.587-0.149-0.712L26.388,32.537z"/>
		<path style="fill-rule:evenodd;clip-rule:evenodd;fill:#915922;" d="M28.712,27.7l3.413,0.899c0.25,0.075,0.362,0.363,0.337,0.863
			l-0.112,0.375c-0.075,0.25-0.563,0.35-1.462,0.3c-1.075-0.125-1.763-0.4-2.063-0.825c-0.175-0.25-0.263-0.588-0.263-1.013
			C28.563,27.9,28.612,27.7,28.712,27.7z"/>
		<path style="fill-rule:evenodd;clip-rule:evenodd;fill:#915922;" d="M36.625,30.475c1.35,1.25,2.024,2.113,2.024,2.588
			c0,0.525-0.375,0.513-1.125-0.037C36.625,32.425,36.05,31.75,35.8,31c-0.125-0.425-0.063-0.675,0.188-0.75
			c0.101-0.05,0.225-0.05,0.375,0L36.625,30.475z"/>
		<path style="fill-rule:evenodd;clip-rule:evenodd;fill:#915922;" d="M35.425,34.6l0.9,0.113c0.624,0.1,1.075,0.237,1.35,0.412
			c0.3,0.225,0.476,0.525,0.525,0.9c0.074,0.325,0.05,0.6-0.075,0.824c-0.226,0.351-0.788,0.525-1.688,0.525
			c-0.375,0-0.725-0.125-1.05-0.375c-0.325-0.274-0.525-0.588-0.601-0.938c-0.05-0.274-0.05-0.588,0-0.938l0.112-0.45L35.425,34.6z"
			/>
		<path style="fill-rule:evenodd;clip-rule:evenodd;fill:#B36F2B;" d="M12.287,32.838c1.275-0.676,2.188-0.65,2.737,0.074
			c0.576,0.726,0.363,1.426-0.637,2.101c-0.525,0.35-0.951,0.575-1.275,0.675c-0.525,0.15-1.063,0.125-1.612-0.075
			c-0.625-0.225-0.85-0.625-0.675-1.2C11,33.813,11.487,33.287,12.287,32.838z"/>
		<path style="fill-rule:evenodd;clip-rule:evenodd;fill:#B36F2B;" d="M16.938,27.475c0.825-0.1,1.4-0.063,1.725,0.113
			c0.25,0.125,0.288,0.287,0.112,0.487c-0.174,0.175-0.563,0.35-1.162,0.524c-0.725,0.226-1.337,0.275-1.838,0.15
			c-0.5-0.1-0.524-0.325-0.074-0.675C16.1,27.726,16.512,27.525,16.938,27.475z"/>
		<path style="fill-rule:evenodd;clip-rule:evenodd;fill:#B36F2B;" d="M30.774,27.775c1.7,0.649,2.063,1.199,1.088,1.649
			c-0.325,0.15-0.875,0.101-1.65-0.149c-0.8-0.25-1.313-0.563-1.537-0.938c-0.225-0.425-0.112-0.688,0.338-0.788
			C29.462,27.425,30.05,27.5,30.774,27.775z"/>
		<path style="fill-rule:evenodd;clip-rule:evenodd;fill:#B36F2B;" d="M26.725,31.487c1.525,0.075,2.288,0.5,2.288,1.275
			c0,0.225-0.15,0.537-0.45,0.938c-0.3,0.375-0.613,0.675-0.938,0.899c-0.3,0.226-0.675,0.251-1.125,0.075
			c-0.475-0.175-0.85-0.5-1.125-0.975c-0.25-0.45-0.213-0.95,0.112-1.5C25.813,31.7,26.225,31.463,26.725,31.487z"/>
		<path style="fill-rule:evenodd;clip-rule:evenodd;fill:#B36F2B;" d="M7.375,32.5c0.775,0.101,0.85,0.663,0.225,1.688
			c-0.6,1.025-1.274,1.537-2.024,1.537c-0.676,0-0.638-0.55,0.112-1.649C6.438,32.95,7,32.425,7.375,32.5z"/>
		<path style="fill-rule:evenodd;clip-rule:evenodd;fill:#B36F2B;" d="M37.188,34.15c0.475,0.399,0.787,0.813,0.938,1.237
			c0.175,0.524,0.05,0.938-0.375,1.237c-0.475,0.325-1.088,0.3-1.838-0.075c-0.75-0.399-1.1-0.912-1.05-1.537
			c0.05-0.65,0.325-1.063,0.825-1.237C36.212,33.6,36.713,33.726,37.188,34.15z"/>
		<path style="fill-rule:evenodd;clip-rule:evenodd;fill:#B36F2B;" d="M37.3,30.287c0.45,0.351,0.851,0.851,1.2,1.5
			c0.324,0.7,0.375,1.125,0.149,1.275c-0.2,0.15-0.563-0.05-1.087-0.6c-0.15-0.2-0.551-0.726-1.2-1.575
			c-0.351-0.45-0.399-0.75-0.15-0.9C36.438,29.838,36.8,29.938,37.3,30.287z"/>
		<path style="fill-rule:evenodd;clip-rule:evenodd;fill:#B36F2B;" d="M18.813,36.138c0.425,0,0.975,0.3,1.649,0.899
			c0.676,0.626,1.013,1.176,1.013,1.65c0,0.55-0.337,1.025-1.013,1.425c-0.774,0.425-1.625,0.45-2.55,0.075
			c-0.95-0.375-1.225-1.15-0.825-2.325C17.462,36.713,18.038,36.138,18.813,36.138z"/>
		<path style="fill-rule:evenodd;clip-rule:evenodd;fill:#665223;" d="M12.175,29.237c0.825-0.149,1.25-0.063,1.275,0.263
			c0.05,0.325-0.275,0.537-0.976,0.638c-0.6,0.075-0.875-0.038-0.825-0.338C11.675,29.5,11.85,29.313,12.175,29.237z"/>
		<path style="fill-rule:evenodd;clip-rule:evenodd;fill:#665223;" d="M25.6,30.888c0.875,0.05,1.2,0.287,0.976,0.712
			c-0.275,0.45-0.676,0.601-1.2,0.45c-0.426-0.1-0.588-0.325-0.487-0.675C25.012,31.025,25.25,30.862,25.6,30.888z"/>
		<path style="fill-rule:evenodd;clip-rule:evenodd;fill:#665223;" d="M19.975,31.638c0.9,0.2,1.1,0.5,0.601,0.899
			c-0.475,0.4-0.988,0.525-1.538,0.375c-0.475-0.149-0.55-0.425-0.225-0.824C19.137,31.688,19.524,31.537,19.975,31.638z"/>
		<path style="fill-rule:evenodd;clip-rule:evenodd;fill:#665223;" d="M10.263,33.138c0.675-0.025,0.912,0.175,0.712,0.6
			c-0.2,0.425-0.538,0.638-1.013,0.638c-0.425,0-0.575-0.2-0.449-0.6C9.612,33.375,9.862,33.163,10.263,33.138z"/>
		<path style="fill-rule:evenodd;clip-rule:evenodd;fill:#665223;" d="M17.688,33.325c0.7-0.025,1,0.1,0.899,0.375
			c-0.074,0.3-0.375,0.45-0.899,0.45c-0.425,0-0.613-0.138-0.563-0.413C17.2,33.463,17.388,33.325,17.688,33.325z"/>
		<path style="fill-rule:evenodd;clip-rule:evenodd;fill:#665223;" d="M32.087,33.475c0.476,0.101,0.663,0.301,0.563,0.601
			c-0.124,0.325-0.475,0.438-1.05,0.337c-0.574-0.074-0.762-0.274-0.563-0.6C31.237,33.487,31.588,33.375,32.087,33.475z"/>
		<path style="fill-rule:evenodd;clip-rule:evenodd;fill:#665223;" d="M34.6,30.213c0.475,0,0.713,0.138,0.713,0.412
			c0,0.25-0.238,0.375-0.713,0.375s-0.699-0.125-0.675-0.375S34.175,30.237,34.6,30.213z"/>
		<path style="fill-rule:evenodd;clip-rule:evenodd;fill:#665223;" d="M39.138,34.075c0.249,0.075,0.3,0.274,0.149,0.6
			c-0.125,0.325-0.375,0.438-0.75,0.338c-0.4-0.101-0.5-0.313-0.3-0.638C38.438,34.075,38.737,33.975,39.138,34.075z"/>
		<path style="fill-rule:evenodd;clip-rule:evenodd;fill:#665223;" d="M15.138,36.662c0.3-0.399,0.587-0.425,0.862-0.074
			c0.25,0.35,0.225,0.587-0.075,0.712c-0.25,0.125-0.487,0.101-0.713-0.075C14.987,37.05,14.962,36.862,15.138,36.662z"/>
		<path style="fill-rule:evenodd;clip-rule:evenodd;fill:#665223;" d="M25.825,36.888c0.6,0,0.837,0.175,0.712,0.524
			c-0.1,0.375-0.425,0.538-0.975,0.488c-0.5-0.025-0.65-0.2-0.45-0.525C25.287,37.05,25.524,36.888,25.825,36.888z"/>
		<path style="fill-rule:evenodd;clip-rule:evenodd;fill:#665223;" d="M25.6,27.775c0.65,0,0.95,0.125,0.9,0.375
			c-0.075,0.25-0.375,0.399-0.9,0.449c-0.45,0.025-0.638-0.112-0.563-0.412C25.137,27.913,25.324,27.775,25.6,27.775z"/>
		<path style="fill-rule:evenodd;clip-rule:evenodd;fill:#665223;" d="M27.888,27.175c0.449,0.176,0.624,0.363,0.524,0.563
			c-0.1,0.2-0.375,0.25-0.825,0.15c-0.425-0.101-0.563-0.275-0.412-0.525S27.563,27.05,27.888,27.175z"/>
		<path style="fill-rule:evenodd;clip-rule:evenodd;fill:#665223;" d="M30.85,37.675c0.426,0.101,0.588,0.275,0.487,0.525
			c-0.074,0.25-0.287,0.337-0.637,0.263c-0.301-0.101-0.425-0.263-0.375-0.488C30.375,37.725,30.55,37.625,30.85,37.675z"/>
		<path style="fill-rule:evenodd;clip-rule:evenodd;fill:#FFFFFF;" d="M41.688,34.487h1.274l0.075,0.601
			c0,1.899-1.925,3.524-5.774,4.875c-3.851,1.35-8.501,2.024-13.95,2.024c-5.45,0-10.1-0.675-13.95-2.024
			c-3.85-1.351-5.775-2.976-5.775-4.875c0-0.275,0.025-0.476,0.075-0.601h1.425v0.338c0,1.7,1.788,3.138,5.363,4.313
			c3.575,1.2,7.887,1.8,12.938,1.8c5.075,0,9.399-0.6,12.975-1.8c3.575-1.175,5.362-2.612,5.362-4.313L41.688,34.487z"/>
	</g>
	
		<use xlink:href="#halfbowl"  width="54.46" height="30.97" x="-1.426" y="-28.868" transform="matrix(0.7477 0.0581 0.0581 -0.7477 4.1001 16.5)" style="overflow:visible;"/>
	
		<use xlink:href="#halfbowl"  width="54.46" height="30.97" x="-1.426" y="-28.868" transform="matrix(0.7458 -0.079 -0.079 -0.7458 2.6001 12.1499)" style="overflow:visible;"/>
	<g>
		<g>
			<path style="fill-rule:evenodd;clip-rule:evenodd;fill:#E3AD5B;" d="M20.476,29.179c0.924,0.253,1.398,0.467,1.423,0.642
				c0.025,0.101-0.163,0.25-0.563,0.448c-0.3,0.125-0.75,0.11-1.35-0.041c-0.625-0.127-1.012-0.303-1.161-0.528
				c-0.124-0.226-0.011-0.4,0.339-0.524C19.538,29.076,19.976,29.078,20.476,29.179z"/>
			<path style="fill-rule:evenodd;clip-rule:evenodd;fill:#F5D7A9;" d="M20.55,29.367c0.5,0.076,0.55,0.176,0.149,0.3
				c-0.425,0.099-0.8,0.085-1.125-0.041c-0.3-0.126-0.287-0.213,0.038-0.262C19.938,29.29,20.25,29.291,20.55,29.367z"/>
		</g>
		<g>
			<path style="fill-rule:evenodd;clip-rule:evenodd;fill:#E3AD5B;" d="M27.232,36.438c0.928-0.245,1.446-0.298,1.555-0.159
				c0.071,0.074-0.017,0.297-0.266,0.67c-0.198,0.258-0.597,0.471-1.192,0.641c-0.605,0.203-1.029,0.245-1.271,0.125
				c-0.22-0.132-0.209-0.34,0.033-0.622C26.367,36.818,26.748,36.601,27.232,36.438z"/>
			<path style="fill-rule:evenodd;clip-rule:evenodd;fill:#F5D7A9;" d="M27.391,36.563c0.472-0.185,0.564-0.123,0.279,0.185
				c-0.32,0.298-0.652,0.475-0.997,0.528c-0.323,0.041-0.355-0.04-0.098-0.246C26.82,36.803,27.093,36.646,27.391,36.563z"/>
		</g>
		<g>
			<path style="fill-rule:evenodd;clip-rule:evenodd;fill:#E3AD5B;" d="M9.482,33.137c0.928-0.245,1.447-0.298,1.555-0.159
				c0.071,0.074-0.017,0.298-0.266,0.67c-0.199,0.258-0.596,0.472-1.192,0.641c-0.605,0.204-1.029,0.246-1.271,0.126
				c-0.22-0.133-0.209-0.34,0.033-0.622C8.617,33.518,8.998,33.3,9.482,33.137z"/>
			<path style="fill-rule:evenodd;clip-rule:evenodd;fill:#F5D7A9;" d="M9.641,33.262c0.472-0.185,0.565-0.123,0.279,0.185
				c-0.32,0.299-0.652,0.475-0.997,0.528c-0.323,0.042-0.355-0.04-0.097-0.245C9.07,33.502,9.342,33.347,9.641,33.262z"/>
		</g>
		<g>
			<path style="fill-rule:evenodd;clip-rule:evenodd;fill:#FAD932;" d="M37.808,33.159c-0.178,0.157-0.331,0.198-0.461,0.123
				c-0.156-0.178-0.32-0.316-0.492-0.417c-0.108-0.063-0.48-0.191-1.116-0.387c-0.537-0.168-0.928-0.366-1.169-0.593
				c-0.243-0.229-0.289-0.473-0.138-0.732c0.278-0.331,0.477-0.621,0.593-0.872c0.155-0.316,0.398-0.363,0.73-0.141
				c0.204,0.146,0.602,0.479,1.194,0.998C38.013,31.988,38.299,32.662,37.808,33.159z"/>
			<path style="fill-rule:evenodd;clip-rule:evenodd;fill:#D9BC2B;" d="M36.778,32.474c0.13,0.075,0.328,0.205,0.596,0.39
				c0.271,0.129,0.449,0.146,0.534,0.05l0.069-0.047l-0.17,0.293c-0.178,0.157-0.331,0.198-0.461,0.123
				c-0.156-0.178-0.32-0.316-0.492-0.417c-0.108-0.063-0.48-0.191-1.116-0.387c-0.537-0.168-0.928-0.366-1.169-0.593
				c-0.135-0.166-0.21-0.311-0.225-0.435c0.083,0.105,0.341,0.183,0.774,0.232C35.428,31.747,35.98,32.01,36.778,32.474z"/>
			<path style="fill-rule:evenodd;clip-rule:evenodd;fill:#FFFB8C;" d="M35.6,30.484c0.366,0.213,0.548,0.347,0.544,0.403
				c0.005,0.09-0.031,0.127-0.108,0.111c-0.099-0.029-0.176-0.045-0.231-0.048c-0.214,0.021-0.43-0.104-0.646-0.376
				c-0.04-0.081-0.009-0.136,0.095-0.163C35.354,30.385,35.47,30.409,35.6,30.484z"/>
			<path style="fill-rule:evenodd;clip-rule:evenodd;fill:#FFFB8C;" d="M35.192,30.813c0.088,0.196,0.306,0.366,0.654,0.512
				c0.284,0.106,0.413,0.182,0.388,0.225c-0.016,0.078-0.116,0.077-0.302-0.001c-0.228-0.104-0.392-0.17-0.49-0.198
				c-0.316,0.048-0.524-0.015-0.625-0.189c-0.07-0.128-0.04-0.255,0.091-0.382C35.04,30.652,35.135,30.663,35.192,30.813z"/>
			<path style="fill-rule:evenodd;clip-rule:evenodd;fill:#FFFB8C;" d="M37.253,31.88c-0.07,0.221-0.228,0.245-0.474,0.072
				c-0.169-0.155-0.252-0.262-0.248-0.317c0.032-0.155,0.033-0.257,0.003-0.303c-0.098-0.23,0.07-0.22,0.501,0.03
				C37.251,31.487,37.323,31.66,37.253,31.88z"/>
			<path style="fill-rule:evenodd;clip-rule:evenodd;fill:#FFFB8C;" d="M37.59,32.119c0.271,0.129,0.33,0.25,0.178,0.364
				s-0.303,0.1-0.45-0.044c-0.159-0.122-0.187-0.225-0.08-0.308C37.343,32.048,37.461,32.044,37.59,32.119z"/>
			<path style="fill-rule:evenodd;clip-rule:evenodd;fill:#FFFB8C;" d="M36.515,31.886c0.086,0.05,0.089,0.096,0.008,0.135
				c-0.059,0.053-0.153,0.041-0.282-0.033c-0.117-0.098-0.142-0.154-0.073-0.173C36.257,31.809,36.373,31.832,36.515,31.886z"/>
		</g>
		<g>
			<path style="fill-rule:evenodd;clip-rule:evenodd;fill:#E3AD5B;" d="M11.276,34.279c0.924,0.252,1.398,0.467,1.423,0.642
				c0.025,0.1-0.163,0.249-0.563,0.448c-0.3,0.124-0.75,0.11-1.35-0.041c-0.625-0.128-1.012-0.304-1.161-0.529
				c-0.124-0.225-0.011-0.399,0.339-0.523C10.338,34.177,10.776,34.178,11.276,34.279z"/>
			<path style="fill-rule:evenodd;clip-rule:evenodd;fill:#F5D7A9;" d="M11.35,34.467c0.5,0.076,0.55,0.177,0.149,0.301
				c-0.425,0.099-0.8,0.085-1.125-0.041c-0.3-0.126-0.287-0.214,0.038-0.263C10.738,34.39,11.051,34.391,11.35,34.467z"/>
		</g>
		<g>
			<path style="fill-rule:evenodd;clip-rule:evenodd;fill:#915922;" d="M15.375,29.359l0.53-0.222c0.375-0.143,0.667-0.21,0.873-0.2
				c0.236,0.028,0.426,0.137,0.571,0.326c0.143,0.155,0.216,0.313,0.217,0.476c-0.014,0.263-0.268,0.536-0.763,0.82
				c-0.207,0.118-0.438,0.16-0.695,0.126c-0.265-0.048-0.474-0.156-0.625-0.324c-0.114-0.135-0.212-0.306-0.294-0.513l-0.08-0.282
				L15.375,29.359z"/>
			<path style="fill-rule:evenodd;clip-rule:evenodd;fill:#B36F2B;" d="M16.204,28.558c0.387,0.068,0.688,0.196,0.904,0.381
				c0.261,0.232,0.322,0.498,0.182,0.796c-0.159,0.328-0.504,0.508-1.034,0.539c-0.538,0.018-0.892-0.152-1.061-0.511
				c-0.176-0.371-0.154-0.684,0.065-0.938C15.495,28.563,15.809,28.475,16.204,28.558z"/>
		</g>
		<g>
			<path style="fill-rule:evenodd;clip-rule:evenodd;fill:#FAD932;" d="M14.623,26.796c0.212,0.105,0.372,0.105,0.478,0
				c0.106-0.213,0.229-0.39,0.371-0.53c0.089-0.089,0.416-0.31,0.981-0.663c0.477-0.301,0.804-0.593,0.981-0.875
				c0.177-0.283,0.159-0.53-0.053-0.742c-0.354-0.248-0.619-0.478-0.795-0.689c-0.23-0.266-0.478-0.248-0.743,0.053
				c-0.159,0.194-0.459,0.618-0.902,1.273C14.127,25.718,14.022,26.442,14.623,26.796z"/>
			<path style="fill-rule:evenodd;clip-rule:evenodd;fill:#D9BC2B;" d="M15.445,25.867c-0.106,0.106-0.265,0.283-0.477,0.53
				c-0.23,0.194-0.398,0.257-0.504,0.186l-0.08-0.026l0.239,0.239c0.212,0.105,0.372,0.105,0.478,0
				c0.106-0.213,0.229-0.39,0.371-0.53c0.089-0.089,0.416-0.31,0.981-0.663c0.477-0.301,0.804-0.593,0.981-0.875
				c0.088-0.194,0.124-0.354,0.106-0.478c-0.053,0.124-0.283,0.266-0.69,0.425C16.567,24.815,16.099,25.213,15.445,25.867z"/>
			<path style="fill-rule:evenodd;clip-rule:evenodd;fill:#FFFB8C;" d="M16.081,23.641c-0.3,0.301-0.441,0.477-0.424,0.53
				c0.018,0.088,0.062,0.114,0.133,0.079c0.088-0.053,0.159-0.088,0.211-0.105c0.212-0.035,0.389-0.212,0.53-0.53
				c0.019-0.089-0.026-0.133-0.132-0.133C16.293,23.481,16.187,23.534,16.081,23.641z"/>
			<path style="fill-rule:evenodd;clip-rule:evenodd;fill:#FFFB8C;" d="M16.558,23.853c-0.036,0.213-0.203,0.433-0.503,0.663
				c-0.248,0.177-0.354,0.282-0.318,0.317c0.035,0.071,0.132,0.045,0.291-0.079c0.194-0.159,0.336-0.265,0.424-0.318
				c0.318-0.035,0.504-0.149,0.557-0.344c0.036-0.142-0.026-0.257-0.185-0.346C16.665,23.658,16.576,23.693,16.558,23.853z"/>
			<path style="fill-rule:evenodd;clip-rule:evenodd;fill:#FFFB8C;" d="M14.835,25.417c0.124,0.194,0.283,0.177,0.477-0.054
				c0.124-0.193,0.177-0.317,0.159-0.371c-0.071-0.141-0.097-0.238-0.08-0.291c0.035-0.248-0.124-0.194-0.478,0.159
				C14.738,25.037,14.711,25.223,14.835,25.417z"/>
			<path style="fill-rule:evenodd;clip-rule:evenodd;fill:#FFFB8C;" d="M14.57,25.735c-0.23,0.194-0.256,0.326-0.08,0.397
				c0.176,0.07,0.318,0.018,0.424-0.159c0.124-0.159,0.124-0.266,0-0.318C14.791,25.603,14.676,25.629,14.57,25.735z"/>
			<path style="fill-rule:evenodd;clip-rule:evenodd;fill:#FFFB8C;" d="M15.55,25.231c-0.07,0.07-0.061,0.114,0.027,0.132
				c0.071,0.036,0.16,0,0.265-0.105c0.088-0.124,0.097-0.186,0.026-0.186C15.781,25.09,15.674,25.143,15.55,25.231z"/>
		</g>
	</g>
</g>
</svg>
