<?xml version="1.0" encoding="iso-8859-1"?>
<!-- Generator: Adobe Illustrator 15.1.0, SVG Export Plug-In . SVG Version: 6.00 Build 0)  -->
<!DOCTYPE svg PUBLIC "-//W3C//DTD SVG 1.1//EN" "http://www.w3.org/Graphics/SVG/1.1/DTD/svg11.dtd">
<svg version="1.1" id="flash0.ai" xmlns="http://www.w3.org/2000/svg" xmlns:xlink="http://www.w3.org/1999/xlink" x="0px" y="0px"
	 width="53.6px" height="42.15px" viewBox="0 0 53.6 42.15" style="enable-background:new 0 0 53.6 42.15;" xml:space="preserve">
<symbol  id="flash0.ai_x5F_2_x2F_Layer_37_copy_x2F__x3C_Path_x3E__x5F_1" viewBox="0 -13.45 12.4 13.45">
	<g id="Layer_1_11_">
		<path style="fill-rule:evenodd;clip-rule:evenodd;" d="M12.4-13.45C9.3-12.15,6.667-10.333,4.5-8C2.3-5.633,0.8-2.967,0,0
			l0.4-0.05l0.7-0.5C1.633-2.283,2.483-4.033,3.65-5.8C5.917-9.3,8.833-11.85,12.4-13.45z"/>
	</g>
</symbol>
<symbol  id="flash0.ai_x5F_2_x2F_Layer_37_copy_x2F__x3C_Path_x3E__x5F_2" viewBox="0 -13.6 23.65 13.6">
	<g id="Layer_1_10_">
		
			<linearGradient id="SVGID_1_" gradientUnits="userSpaceOnUse" x1="-23.2656" y1="-33.543" x2="-7.9905" y2="-33.543" gradientTransform="matrix(1 -0.0033 0.0033 1 26.7876 26.6855)">
			<stop  offset="0" style="stop-color:#FFFFFF"/>
			<stop  offset="1" style="stop-color:#A0DAF2"/>
		</linearGradient>
		<path style="fill-rule:evenodd;clip-rule:evenodd;fill:url(#SVGID_1_);" d="M23.65-1.85l-3.1-11.65l-2.3-0.1
			c-0.9,0-1.8,0.05-2.7,0.15c-1.1,0.167-2.316,0.534-3.65,1.1c-1.4,0.567-2.566,1.184-3.5,1.85c-3,2.133-5.3,4.533-6.9,7.2
			C0.7-2,0.2-0.9,0,0l2.6-0.6c4.333-0.9,9.6-1.35,15.8-1.35C20.767-1.95,22.517-1.917,23.65-1.85z"/>
	</g>
</symbol>
<symbol  id="flash0.ai_x5F_2_x2F_Layer_37_copy_x2F__x3C_Path_x3E__x5F_21" viewBox="0.1 -4.017 1.723 4.017">
	<g id="Layer_1_9_">
		<path style="fill-rule:evenodd;clip-rule:evenodd;fill:#FFFFFF;" d="M1.1-0.9C1.167-0.3,1.283,0,1.45,0
			C1.617-0.033,1.733-0.267,1.8-0.7C1.933-1.967,1.5-3,0.5-3.8C0.1-4.133,0-4.083,0.2-3.65C0.7-2.617,1-1.7,1.1-0.9z"/>
	</g>
</symbol>
<symbol  id="flash0.ai_x5F_2_x2F_Layer_37_copy_x2F__x3C_Path_x3E__x5F_30" viewBox="0.088 -3.144 1.514 3.595">
	<g id="Layer_1_8_">
		<path style="fill-rule:evenodd;clip-rule:evenodd;fill:#FFFFFF;" d="M1.6-0.6c0.033-1-0.367-1.8-1.2-2.4
			C0.067-3.233,0-3.183,0.2-2.85c0.433,0.8,0.716,1.517,0.85,2.15C1.383,0.8,1.567,0.833,1.6-0.6z"/>
	</g>
</symbol>
<symbol  id="flash0.ai_x5F_2_x2F_Layer_37_copy_x2F__x3C_Path_x3E__x5F_33" viewBox="0.083 -3.302 1.101 3.769">
	<g id="Layer_1_7_">
		<path style="fill-rule:evenodd;clip-rule:evenodd;fill:#FFFFFF;" d="M1.1-0.5c0.233-1-0.017-1.867-0.75-2.6
			C0.083-3.4,0.017-3.367,0.15-3c0.267,0.833,0.4,1.583,0.4,2.25C0.583,0.783,0.767,0.867,1.1-0.5z"/>
	</g>
</symbol>
<symbol  id="flash0.ai_x5F_2_x2F_Layer_37_copy_x2F__x3C_Path_x3E__x5F_38" viewBox="0.082 -2.739 2.253 3.152">
	<g id="Layer_1_6_">
		<path style="fill-rule:evenodd;clip-rule:evenodd;fill:#FFFFFF;" d="M2.2-0.65c-0.233-1-0.833-1.667-1.8-2
			c-0.367-0.167-0.417-0.1-0.15,0.2C0.85-1.817,1.3-1.2,1.6-0.6C2.3,0.767,2.5,0.75,2.2-0.65z"/>
	</g>
</symbol>
<symbol  id="flash0.ai_x5F_2_x2F_Layer_37_copy_x2F__x3C_Path_x3E__x5F_43" viewBox="0.09 -2.739 2.25 3.227">
	<g id="Layer_1_5_">
		<path style="fill-rule:evenodd;clip-rule:evenodd;fill:#FFFFFF;" d="M2.2-0.6c-0.233-1-0.817-1.683-1.75-2.05
			c-0.4-0.167-0.467-0.1-0.2,0.2c0.633,0.7,1.1,1.333,1.4,1.9C2.317,0.85,2.5,0.833,2.2-0.6z"/>
	</g>
</symbol>
<symbol  id="flash0.ai_x5F_2_x2F_Layer_37_copy_x2F__x3C_Path_x3E__x5F_64" viewBox="0.033 -2.529 1.087 2.893">
	<g id="Layer_1_4_">
		<path style="fill-rule:evenodd;clip-rule:evenodd;fill:#FFFFFF;" d="M1.1-0.4c0.1-0.8-0.167-1.467-0.8-2
			C0.033-2.6-0.033-2.567,0.1-2.3c0.3,0.633,0.483,1.216,0.55,1.75C0.817,0.617,0.967,0.667,1.1-0.4z"/>
	</g>
</symbol>
<symbol  id="flash0.ai_x5F_2_x2F_Layer_37_copy_x2F__x3C_Path_x3E__x5F_67" viewBox="0.033 -2.553 1.087 2.917">
	<g id="Layer_1_3_">
		<path style="fill-rule:evenodd;clip-rule:evenodd;fill:#FFFFFF;" d="M1.1-0.4c0.1-0.8-0.167-1.467-0.8-2
			C0.033-2.633-0.033-2.6,0.1-2.3c0.3,0.667,0.483,1.25,0.55,1.75C0.817,0.617,0.967,0.667,1.1-0.4z"/>
	</g>
</symbol>
<symbol  id="flash0.ai_x5F_2_x2F_Layer_37_copy_x2F__x3C_Path_x3E__x5F_70" viewBox="0.08 -2.346 1.435 2.734">
	<g id="Layer_1_2_">
		<path style="fill-rule:evenodd;clip-rule:evenodd;fill:#FFFFFF;" d="M1.5-0.45c-0.067-0.8-0.45-1.4-1.15-1.8
			C0.05-2.417,0-2.367,0.2-2.1c0.4,0.6,0.683,1.133,0.85,1.6C1.417,0.667,1.567,0.683,1.5-0.45z"/>
	</g>
</symbol>
<g>
	
		<linearGradient id="SVGID_2_" gradientUnits="userSpaceOnUse" x1="0.25" y1="19.8262" x2="44.75" y2="19.8262" gradientTransform="matrix(0.75 0 0 0.75 10 15.6499)">
		<stop  offset="0" style="stop-color:#557C8C"/>
		<stop  offset="1" style="stop-color:#86A7B5"/>
	</linearGradient>
	<path style="fill-rule:evenodd;clip-rule:evenodd;fill:url(#SVGID_2_);" d="M38.65,28.325c3.274,0.6,4.912,1.337,4.912,2.212
		c0,0.851-1.638,1.588-4.912,2.213c-3.251,0.6-7.175,0.9-11.775,0.9c-4.625,0-8.563-0.301-11.813-0.9s-4.875-1.338-4.875-2.213
		s1.625-1.612,4.875-2.212c3.275-0.625,7.212-0.938,11.813-0.938C31.476,27.388,35.399,27.7,38.65,28.325z"/>
	<path style="fill-rule:evenodd;clip-rule:evenodd;fill:#B6E0F2;" d="M43.6,30.275h-0.75c0-0.7-1.55-1.301-4.65-1.801
		c-3.1-0.5-6.861-0.75-11.287-0.75c-4.425,0-8.187,0.25-11.287,0.75c-3.125,0.5-4.688,1.101-4.688,1.801H10
		c0.225-0.801,1.962-1.488,5.213-2.063c3.25-0.575,7.112-0.863,11.587-0.863c4.475,0,8.351,0.288,11.626,0.863
		C41.65,28.787,43.375,29.475,43.6,30.275z"/>
	
		<radialGradient id="SVGID_3_" cx="24.272" cy="-8.2578" r="4.2993" gradientTransform="matrix(0.5081 0.5517 0.5757 -0.5146 19.3721 7.272)" gradientUnits="userSpaceOnUse">
		<stop  offset="0" style="stop-color:#BD325A"/>
		<stop  offset="1" style="stop-color:#70102E"/>
	</radialGradient>
	<path style="fill-rule:evenodd;clip-rule:evenodd;fill:url(#SVGID_3_);" d="M29.912,24.35c0.775,1.15,0.575,2.238-0.6,3.263
		c-0.7,0.625-1.463,0.9-2.287,0.825c-0.726-0.075-1.288-0.388-1.688-0.938c-0.375-0.55-0.5-1.15-0.375-1.8
		c0.125-0.675,0.5-1.2,1.125-1.575c0.8-0.5,1.55-0.725,2.25-0.675C29.013,23.525,29.537,23.825,29.912,24.35z"/>
	
		<radialGradient id="SVGID_4_" cx="26.5986" cy="-13.4102" r="4.406" gradientTransform="matrix(0.5037 0.5557 0.5593 -0.507 24.9516 2.0956)" gradientUnits="userSpaceOnUse">
		<stop  offset="0" style="stop-color:#821725"/>
		<stop  offset="1" style="stop-color:#5C1320"/>
	</radialGradient>
	<path style="fill-rule:evenodd;clip-rule:evenodd;fill:url(#SVGID_4_);" d="M33.775,23.15c0.375,0.524,0.525,1.087,0.449,1.688
		c-0.1,0.6-0.425,1.137-0.975,1.612c-0.7,0.625-1.463,0.899-2.287,0.825c-0.775-0.075-1.35-0.4-1.726-0.976
		c-0.399-0.575-0.537-1.188-0.412-1.837c0.125-0.676,0.5-1.213,1.124-1.613c0.801-0.5,1.551-0.712,2.25-0.637
		C32.875,22.287,33.4,22.6,33.775,23.15z"/>
	<path style="fill-rule:evenodd;clip-rule:evenodd;fill:#AD5D80;" d="M30.4,23.15c0.8-0.375,0.987-0.188,0.563,0.563
		c-0.425,0.8-0.813,1.162-1.162,1.087c-0.301-0.075-0.363-0.325-0.188-0.75C29.788,23.6,30.05,23.3,30.4,23.15z"/>
	
		<use xlink:href="#flash0.ai_x5F_2_x2F_Layer_37_copy_x2F__x3C_Path_x3E__x5F_70"  width="1.435" height="2.734" x="0.08" y="-2.346" transform="matrix(0.75 0 0 -0.75 32.5996 24.5498)" style="overflow:visible;opacity:0.3281;enable-background:new    ;"/>
	
		<radialGradient id="SVGID_5_" cx="12.3828" cy="8.1099" r="4.4" gradientTransform="matrix(0.5971 0.4539 0.458 -0.6025 2.604 25.3787)" gradientUnits="userSpaceOnUse">
		<stop  offset="0" style="stop-color:#821725"/>
		<stop  offset="1" style="stop-color:#5C1320"/>
	</radialGradient>
	<path style="fill-rule:evenodd;clip-rule:evenodd;fill:url(#SVGID_5_);" d="M16.525,25.063c0.449,0.45,0.687,0.975,0.712,1.575
		c0.025,0.6-0.188,1.188-0.638,1.763c-0.575,0.75-1.274,1.149-2.1,1.199c-0.775,0.075-1.413-0.138-1.912-0.637
		c-0.475-0.476-0.713-1.038-0.713-1.688c0-0.7,0.275-1.301,0.825-1.801c0.675-0.649,1.375-1,2.1-1.05
		C15.475,24.375,16.05,24.587,16.525,25.063z"/>
	<path style="fill-rule:evenodd;clip-rule:evenodd;fill:#AD5D80;" d="M13.188,25.662c0.725-0.524,0.95-0.362,0.675,0.488
		c-0.3,0.874-0.625,1.287-0.975,1.237c-0.3-0.025-0.413-0.263-0.338-0.713C12.65,26.225,12.863,25.888,13.188,25.662z"/>
	
		<use xlink:href="#flash0.ai_x5F_2_x2F_Layer_37_copy_x2F__x3C_Path_x3E__x5F_67"  width="1.087" height="2.917" x="0.033" y="-2.553" transform="matrix(0.75 0 0 -0.75 15.9502 26.4502)" style="overflow:visible;opacity:0.3281;enable-background:new    ;"/>
	
		<radialGradient id="SVGID_6_" cx="25.3447" cy="9.876" r="4.4" gradientTransform="matrix(0.5971 0.4539 0.458 -0.6025 0.9935 27.4974)" gradientUnits="userSpaceOnUse">
		<stop  offset="0" style="stop-color:#BD325A"/>
		<stop  offset="1" style="stop-color:#40091A"/>
	</radialGradient>
	<path style="fill-rule:evenodd;clip-rule:evenodd;fill:url(#SVGID_6_);" d="M23.463,32c0.475,0.475,0.712,1,0.712,1.575
		c0.025,0.625-0.2,1.225-0.675,1.8c-0.575,0.725-1.275,1.112-2.1,1.162c-0.75,0.075-1.375-0.137-1.875-0.637
		c-0.475-0.476-0.713-1.038-0.713-1.688c0-0.701,0.275-1.301,0.825-1.801c0.7-0.625,1.4-0.975,2.1-1.05
		C22.412,31.313,22.988,31.524,23.463,32z"/>
	<path style="fill-rule:evenodd;clip-rule:evenodd;fill:#F797B1;" d="M20.125,32.6c0.7-0.524,0.925-0.362,0.675,0.488
		c-0.275,0.875-0.6,1.3-0.975,1.274c-0.3-0.024-0.413-0.275-0.338-0.75C19.587,33.162,19.8,32.825,20.125,32.6z"/>
	
		<use xlink:href="#flash0.ai_x5F_2_x2F_Layer_37_copy_x2F__x3C_Path_x3E__x5F_64"  width="1.087" height="2.893" x="0.033" y="-2.529" transform="matrix(0.75 0 0 -0.75 22.8501 33.4004)" style="overflow:visible;opacity:0.3281;enable-background:new    ;"/>
	
		<linearGradient id="SVGID_7_" gradientUnits="userSpaceOnUse" x1="28.7871" y1="24.6504" x2="31.7121" y2="24.6504" gradientTransform="matrix(0.75 0 0 0.75 10 15.6499)">
		<stop  offset="0" style="stop-color:#FFF9D1"/>
		<stop  offset="1" style="stop-color:#FFF08E"/>
	</linearGradient>
	<path style="fill-rule:evenodd;clip-rule:evenodd;fill:url(#SVGID_7_);" d="M32.613,35.188L31.6,35.263l0.188-2.25l1.014,0.712
		c0.375,0.175,0.711,0.301,1.012,0.375L32.613,35.188z"/>
	
		<linearGradient id="SVGID_8_" gradientUnits="userSpaceOnUse" x1="19.2124" y1="30.3955" x2="26.0874" y2="30.3955" gradientTransform="matrix(0.75 0 0 0.75 10 15.6499)">
		<stop  offset="0" style="stop-color:#FFF9D1"/>
		<stop  offset="1" style="stop-color:#FFF08E"/>
	</linearGradient>
	<path style="fill-rule:evenodd;clip-rule:evenodd;fill:url(#SVGID_8_);" d="M28.188,40.175c-1.075,0.45-2.325,0.487-3.75,0.112
		c0.25-0.6,0.525-1.112,0.825-1.537l1.537-2.4l1.05,1.5c0.351,0.426,0.926,0.875,1.725,1.351L28.188,40.175z"/>
	<path style="fill-rule:evenodd;clip-rule:evenodd;fill:#F5ECA2;" d="M33.324,30.125l2.289-4.987l1.836,0.975l0.414,1.275
		c0.175,1.149-0.039,2.399-0.639,3.75c-0.475,1.175-0.962,1.95-1.463,2.325l-0.563,0.225l-2.475-0.563L33.324,30.125z"/>
	<path style="fill-rule:evenodd;clip-rule:evenodd;fill:#FFFAC4;" d="M34.676,25.1c0.774-0.199,1.273,0.088,1.5,0.863
		c0.225,0.699,0.199,1.624-0.076,2.774c-0.674,2.9-1.787,4.338-3.338,4.313c-1.149,0-1.449-1.225-0.898-3.675
		C32.387,26.9,33.324,25.475,34.676,25.1z"/>
	
		<linearGradient id="SVGID_9_" gradientUnits="userSpaceOnUse" x1="19.2876" y1="32.2246" x2="26.9126" y2="32.2246" gradientTransform="matrix(0.75 0 0 0.75 10 15.6499)">
		<stop  offset="0" style="stop-color:#E63C39"/>
		<stop  offset="1" style="stop-color:#821E00"/>
	</linearGradient>
	<path style="fill-rule:evenodd;clip-rule:evenodd;fill:url(#SVGID_9_);" d="M29.35,38.787l0.826,1.313
		c-0.301,0.15-0.813,0.325-1.538,0.525c-0.45,0.1-1.188,0.175-2.213,0.225H25l-0.525-0.787l1.5-0.112
		C26.975,39.899,28.1,39.512,29.35,38.787z"/>
	
		<linearGradient id="SVGID_10_" gradientUnits="userSpaceOnUse" x1="4.3999" y1="-19.8247" x2="11.2339" y2="-19.8247" gradientTransform="matrix(-0.5762 0.4801 -0.4801 -0.5762 9.9992 15.6496)">
		<stop  offset="0" style="stop-color:#FFF9D1"/>
		<stop  offset="1" style="stop-color:#FFF08E"/>
	</linearGradient>
	<path style="fill-rule:evenodd;clip-rule:evenodd;fill:url(#SVGID_10_);" d="M15.813,27.763l0.675,4.537l-1.763-0.487
		c-0.325-0.075-0.787-0.088-1.387-0.037l-0.788,0.112L13,30.2c0.325-0.625,0.887-1.213,1.688-1.763
		C15.113,28.138,15.488,27.912,15.813,27.763z"/>
	
		<linearGradient id="SVGID_11_" gradientUnits="userSpaceOnUse" x1="4.4639" y1="-17.9839" x2="12.0789" y2="-17.9839" gradientTransform="matrix(-0.5762 0.4801 -0.4801 -0.5762 10.0004 15.6496)">
		<stop  offset="0" style="stop-color:#E63C39"/>
		<stop  offset="1" style="stop-color:#821E00"/>
	</linearGradient>
	<path style="fill-rule:evenodd;clip-rule:evenodd;fill:url(#SVGID_11_);" d="M13,32.037l-1.5-0.449
		c0.15-0.325,0.438-0.788,0.862-1.388c0.275-0.375,0.8-0.9,1.575-1.575l1.088-0.938l0.899,0.263L14.838,29
		C14.112,29.675,13.5,30.688,13,32.037z"/>
	
		<linearGradient id="SVGID_12_" gradientUnits="userSpaceOnUse" x1="27.9629" y1="25.7246" x2="31.7379" y2="25.7246" gradientTransform="matrix(0.75 0 0 0.75 10 15.6499)">
		<stop  offset="0" style="stop-color:#E63C39"/>
		<stop  offset="1" style="stop-color:#821E00"/>
	</linearGradient>
	<path style="fill-rule:evenodd;clip-rule:evenodd;fill:url(#SVGID_12_);" d="M32.725,35.787C32.35,35.638,32,35.475,31.676,35.3
		C31,34.975,30.8,34.775,31.074,34.7c0.451-0.125,1.363-0.325,2.738-0.601C33.463,34.775,33.1,35.338,32.725,35.787z"/>
	
		<linearGradient id="SVGID_13_" gradientUnits="userSpaceOnUse" x1="18.0684" y1="15.9126" x2="9.6426" y2="14.3666" gradientTransform="matrix(0.75 0 0 0.75 10 15.6499)">
		<stop  offset="0" style="stop-color:#E63C39"/>
		<stop  offset="1" style="stop-color:#821E00"/>
	</linearGradient>
	<path style="fill-rule:evenodd;clip-rule:evenodd;fill:url(#SVGID_13_);" d="M19.263,26.037l-4.8-2.024
		c0.325-0.351,0.812-0.7,1.462-1.05c1.3-0.726,2.788-1.125,4.463-1.201c1.475-0.075,2.962,0.488,4.462,1.688
		c1.7,1.324,2.476,2.899,2.325,4.725c-0.075,1.3-0.35,2.55-0.825,3.75C26.1,32.525,25.862,33,25.638,33.35L19.263,26.037z"/>
	
		<linearGradient id="SVGID_14_" gradientUnits="userSpaceOnUse" x1="22.8843" y1="14.3438" x2="9.6597" y2="18.57" gradientTransform="matrix(0.75 0 0 0.75 10 15.6499)">
		<stop  offset="0" style="stop-color:#FFF9D1"/>
		<stop  offset="1" style="stop-color:#FFF08E"/>
	</linearGradient>
	<path style="fill-rule:evenodd;clip-rule:evenodd;fill:url(#SVGID_14_);" d="M14.463,24.013c0.549-0.125,1.212-0.213,1.987-0.263
		c1.55-0.125,2.9-0.05,4.05,0.225c1.4,0.325,2.6,0.95,3.6,1.875c0.976,0.9,1.6,1.913,1.875,3.038
		c0.351,1.475,0.238,2.962-0.337,4.462c-2.476-2.274-4.313-3.912-5.513-4.912C18.825,27.362,16.938,25.888,14.463,24.013z"/>
	<path style="fill-rule:evenodd;clip-rule:evenodd;fill:#733913;" d="M20.8,28.1c0.1-0.125,0.212-0.237,0.338-0.337
		c0.275-0.2,0.524-0.25,0.75-0.15c0.225,0.125,0.3,0.25,0.225,0.375c-0.05,0.101-0.163,0.162-0.337,0.188L20.8,28.1z"/>
	<path style="fill-rule:evenodd;clip-rule:evenodd;fill:#733913;" d="M22.075,29.375l0.524-0.112
		c0.375-0.025,0.576,0.05,0.601,0.225C23.25,29.763,22.875,29.725,22.075,29.375z"/>
	<path style="fill-rule:evenodd;clip-rule:evenodd;fill:#733913;" d="M19.45,27.237c-0.05-0.175-0.088-0.362-0.112-0.563
		c-0.025-0.375,0.05-0.563,0.225-0.563C20.162,26.162,20.125,26.537,19.45,27.237z"/>
	<path style="fill-rule:evenodd;clip-rule:evenodd;fill:#FFFFFF;" d="M19.675,26.263c-0.175,0.399-0.25,0.5-0.225,0.3
		c0-0.125,0.037-0.213,0.112-0.263L19.675,26.263z"/>
	<path style="fill-rule:evenodd;clip-rule:evenodd;fill:#FFFFFF;" d="M21.1,27.912c0.05-0.05,0.113-0.1,0.188-0.149
		c0.125-0.075,0.226-0.101,0.301-0.075C21.712,27.763,21.55,27.838,21.1,27.912z"/>
	<path style="fill-rule:evenodd;clip-rule:evenodd;fill:#FFFFFF;" d="M22.525,29.375l0.262-0.037c0.175,0,0.263,0.037,0.263,0.112
		C23.05,29.55,22.875,29.525,22.525,29.375z"/>
	
		<linearGradient id="SVGID_15_" gradientUnits="userSpaceOnUse" x1="26.6533" y1="10.5308" x2="25.7322" y2="4.1302" gradientTransform="matrix(0.75 0 0 0.75 10 15.6499)">
		<stop  offset="0" style="stop-color:#E63C39"/>
		<stop  offset="1" style="stop-color:#821E00"/>
	</linearGradient>
	<path style="fill-rule:evenodd;clip-rule:evenodd;fill:url(#SVGID_15_);" d="M30.063,20l0.262-4.35l1.125,0.9
		c0.826,0.85,1.476,1.925,1.951,3.225c0.425,1.15,0.399,2.488-0.076,4.012c-0.523,1.7-1.461,2.726-2.813,3.075
		c-0.949,0.275-1.912,0.375-2.887,0.3l-1.2-0.188L30.063,20z"/>
	
		<linearGradient id="SVGID_16_" gradientUnits="userSpaceOnUse" x1="29.0527" y1="13.749" x2="22.828" y2="5.2738" gradientTransform="matrix(0.75 0 0 0.75 10 15.6499)">
		<stop  offset="0" style="stop-color:#FFF9D1"/>
		<stop  offset="1" style="stop-color:#FFF08E"/>
	</linearGradient>
	<path style="fill-rule:evenodd;clip-rule:evenodd;fill:url(#SVGID_16_);" d="M30.324,15.65c0.876,1.6,1.389,3.2,1.539,4.8
		c0.1,1.2-0.051,2.313-0.451,3.337c-0.375,1.025-0.938,1.788-1.688,2.288c-1,0.675-2.1,0.975-3.3,0.899
		c1.025-2.575,1.737-4.462,2.138-5.662C29.013,19.987,29.601,18.1,30.324,15.65z"/>
	
		<radialGradient id="SVGID_17_" cx="17.5332" cy="-14.3735" r="5.5822" gradientTransform="matrix(0.4222 0.6199 0.6229 -0.4243 27.8632 3.4834)" gradientUnits="userSpaceOnUse">
		<stop  offset="0" style="stop-color:#821725"/>
		<stop  offset="1" style="stop-color:#5C1320"/>
	</radialGradient>
	<path style="fill-rule:evenodd;clip-rule:evenodd;fill:url(#SVGID_17_);" d="M30.1,20.3c0.375,0.725,0.451,1.45,0.225,2.175
		c-0.199,0.726-0.699,1.351-1.499,1.875c-1,0.65-2,0.851-3,0.601c-0.95-0.226-1.612-0.738-1.987-1.538
		c-0.4-0.75-0.463-1.524-0.188-2.325c0.275-0.85,0.837-1.462,1.688-1.837c1.1-0.5,2.087-0.638,2.962-0.413
		C29.1,19.063,29.7,19.55,30.1,20.3z"/>
	<path style="fill-rule:evenodd;clip-rule:evenodd;fill:#945772;" d="M25.825,19.663c1.075-0.325,1.287-0.05,0.638,0.825
		c-0.676,0.95-1.225,1.338-1.65,1.163c-0.35-0.15-0.388-0.475-0.112-0.975C24.975,20.15,25.35,19.813,25.825,19.663z"/>
	
		<use xlink:href="#flash0.ai_x5F_2_x2F_Layer_37_copy_x2F__x3C_Path_x3E__x5F_43"  width="2.25" height="3.227" x="0.09" y="-2.739" transform="matrix(0.75 0 0 -0.75 28.0498 22)" style="overflow:visible;opacity:0.3281;enable-background:new    ;"/>
	<path style="fill-rule:evenodd;clip-rule:evenodd;fill:#F5ECA2;" d="M20.275,20.75l3.412-4.313l1.537,1.387
		c0.125,0.325,0.163,0.775,0.113,1.35c-0.125,1.15-0.638,2.313-1.538,3.487c-0.75,1-1.4,1.638-1.95,1.913l-0.637,0.075l-2.25-1.163
		L20.275,20.75z"/>
	<path style="fill-rule:evenodd;clip-rule:evenodd;fill:#FFFAC4;" d="M22.787,16.175c0.8-0.025,1.225,0.375,1.275,1.2
		c0.025,0.75-0.225,1.65-0.75,2.7c-1.35,2.625-2.788,3.75-4.313,3.375c-1.1-0.3-1.1-1.575,0-3.825
		C20.125,17.35,21.387,16.2,22.787,16.175z"/>
	
		<radialGradient id="SVGID_18_" cx="32.9912" cy="1.4785" r="5.5822" gradientTransform="matrix(0.4222 0.6199 0.6229 -0.4243 8.1626 16.9015)" gradientUnits="userSpaceOnUse">
		<stop  offset="0" style="stop-color:#BD325A"/>
		<stop  offset="1" style="stop-color:#821337"/>
	</radialGradient>
	<path style="fill-rule:evenodd;clip-rule:evenodd;fill:url(#SVGID_18_);" d="M26.763,36.575c0.375,0.75,0.462,1.475,0.263,2.175
		c-0.2,0.75-0.7,1.388-1.5,1.912c-1,0.65-2,0.838-3,0.563c-0.951-0.225-1.613-0.725-1.988-1.5c-0.399-0.75-0.462-1.525-0.188-2.324
		c0.275-0.851,0.838-1.463,1.688-1.838c1.075-0.5,2.05-0.638,2.926-0.412C25.787,35.35,26.388,35.825,26.763,36.575z"/>
	<path style="fill-rule:evenodd;clip-rule:evenodd;fill:#F797B1;" d="M22.525,35.975c1.075-0.324,1.287-0.05,0.637,0.825
		c-0.7,0.95-1.262,1.338-1.688,1.163c-0.35-0.15-0.375-0.476-0.074-0.976C21.675,36.463,22.05,36.125,22.525,35.975z"/>
	
		<use xlink:href="#flash0.ai_x5F_2_x2F_Layer_37_copy_x2F__x3C_Path_x3E__x5F_38"  width="2.253" height="3.152" x="0.082" y="-2.739" transform="matrix(0.75 0 0 -0.75 24.75 38.25)" style="overflow:visible;opacity:0.3281;enable-background:new    ;"/>
	<path style="fill-rule:evenodd;clip-rule:evenodd;fill:#FFFAC4;" d="M33.176,34.925L28.6,39.763L27.138,38.9
		c-0.101-0.226-0.125-0.538-0.075-0.938c0.075-0.775,0.438-1.575,1.088-2.4c0.699-0.9,1.487-1.45,2.361-1.65
		c0.426-0.1,0.789-0.112,1.088-0.037L33.176,34.925z"/>
	<path style="fill-rule:evenodd;clip-rule:evenodd;fill:#F5ECA2;" d="M33.438,35.487c0,0.274-0.15,0.75-0.449,1.425
		c-0.351,0.75-0.738,1.351-1.164,1.801c-0.799,0.85-1.562,1.313-2.287,1.387c-0.675,0.025-1.112-0.237-1.313-0.787
		c-0.175-0.4-0.125-0.875,0.15-1.425c0.275-0.5,0.813-1.2,1.613-2.101c0.6-0.649,1.324-1.012,2.174-1.087
		C33.013,34.649,33.438,34.912,33.438,35.487z"/>
	
		<radialGradient id="SVGID_19_" cx="33.5664" cy="-8.896" r="5.5696" gradientTransform="matrix(0.6447 0.3831 0.3861 -0.6497 16.843 4.1349)" gradientUnits="userSpaceOnUse">
		<stop  offset="0" style="stop-color:#821725"/>
		<stop  offset="1" style="stop-color:#5C1320"/>
	</radialGradient>
	<path style="fill-rule:evenodd;clip-rule:evenodd;fill:url(#SVGID_19_);" d="M38.426,21.05c0.649,0.525,1.024,1.15,1.125,1.875
		c0.124,0.75-0.063,1.525-0.563,2.325c-0.626,1-1.451,1.612-2.477,1.838c-0.925,0.175-1.736-0.013-2.438-0.563
		C33.4,26,33.013,25.325,32.912,24.5c-0.124-0.9,0.125-1.688,0.75-2.362c0.775-0.925,1.613-1.476,2.514-1.65
		C37,20.337,37.75,20.525,38.426,21.05z"/>
	<path style="fill-rule:evenodd;clip-rule:evenodd;fill:#AD5D80;" d="M34.301,22.287c0.824-0.75,1.125-0.587,0.898,0.488
		c-0.225,1.149-0.563,1.725-1.012,1.725c-0.375,0.025-0.537-0.263-0.488-0.862C33.726,23.063,33.926,22.612,34.301,22.287z"/>
	
		<use xlink:href="#flash0.ai_x5F_2_x2F_Layer_37_copy_x2F__x3C_Path_x3E__x5F_33"  width="1.101" height="3.769" x="0.083" y="-3.302" transform="matrix(0.75 0 0 -0.75 38.1504 22.75)" style="overflow:visible;opacity:0.3281;enable-background:new    ;"/>
	
		<radialGradient id="SVGID_20_" cx="24.6914" cy="2.3423" r="5.5786" gradientTransform="matrix(0.5592 0.4998 0.5035 -0.5634 7.6501 18.2794)" gradientUnits="userSpaceOnUse">
		<stop  offset="0" style="stop-color:#821725"/>
		<stop  offset="1" style="stop-color:#5C1320"/>
	</radialGradient>
	<path style="fill-rule:evenodd;clip-rule:evenodd;fill:url(#SVGID_20_);" d="M26.275,28.25c0.524,0.625,0.774,1.313,0.75,2.063
		c-0.025,0.775-0.363,1.5-1.013,2.175c-0.8,0.875-1.726,1.313-2.775,1.313c-0.95,0-1.712-0.337-2.287-1.013
		c-0.55-0.625-0.788-1.35-0.713-2.175c0.05-0.899,0.438-1.638,1.163-2.212c0.95-0.75,1.875-1.113,2.774-1.088
		C25.025,27.313,25.725,27.625,26.275,28.25z"/>
	<path style="fill-rule:evenodd;clip-rule:evenodd;fill:#AD5D80;" d="M22,28.7c0.95-0.601,1.225-0.388,0.825,0.638
		c-0.45,1.1-0.9,1.612-1.351,1.537c-0.375-0.075-0.487-0.4-0.337-0.975C21.287,29.35,21.575,28.95,22,28.7z"/>
	
		<use xlink:href="#flash0.ai_x5F_2_x2F_Layer_37_copy_x2F__x3C_Path_x3E__x5F_30"  width="1.514" height="3.595" x="0.088" y="-3.144" transform="matrix(0.75 0 0 -0.75 25.2002 30)" style="overflow:visible;opacity:0.3281;enable-background:new    ;"/>
	<path style="fill-rule:evenodd;clip-rule:evenodd;fill:#F5ECA2;" d="M17.725,31.925L19.45,27.8l1.575,0.75l0.412,1.013
		c0.175,0.9,0.037,1.912-0.412,3.037c-0.375,0.95-0.75,1.588-1.125,1.913c-0.201,0.175-0.363,0.25-0.488,0.225l-2.1-0.412
		L17.725,31.925z"/>
	<path style="fill-rule:evenodd;clip-rule:evenodd;fill:#FFFAC4;" d="M18.662,27.8c1.351-0.425,1.801,0.537,1.351,2.888
		c-0.475,2.35-1.363,3.55-2.663,3.6c-0.95,0.051-1.25-0.938-0.899-2.962C16.8,29.325,17.537,28.149,18.662,27.8z"/>
	
		<linearGradient id="SVGID_21_" gradientUnits="userSpaceOnUse" x1="10.3125" y1="27.6563" x2="15.6875" y2="27.6563" gradientTransform="matrix(0.75 0 0 0.75 10 15.6499)">
		<stop  offset="0" style="stop-color:#FFF9D1"/>
		<stop  offset="1" style="stop-color:#FFF08E"/>
	</linearGradient>
	<path style="fill-rule:evenodd;clip-rule:evenodd;fill:url(#SVGID_21_);" d="M21.737,35.75l-0.862,2.475
		c-0.35,0.125-0.837,0.113-1.463-0.037c-0.399-0.1-0.8-0.438-1.199-1.013l-0.488-0.825l0.45-1.875l2.025,0.15
		c0.5-0.05,0.875-0.037,1.125,0.037l0.337,0.788L21.737,35.75z"/>
	
		<linearGradient id="SVGID_22_" gradientUnits="userSpaceOnUse" x1="8.9502" y1="28.125" x2="14.4502" y2="28.125" gradientTransform="matrix(0.75 0 0 0.75 10 15.6499)">
		<stop  offset="0" style="stop-color:#E63C39"/>
		<stop  offset="1" style="stop-color:#821E00"/>
	</linearGradient>
	<path style="fill-rule:evenodd;clip-rule:evenodd;fill:url(#SVGID_22_);" d="M18.175,34.475l0.263,0.863
		c0.225,0.675,0.5,1.274,0.825,1.8c0.45,0.725,0.987,1.087,1.612,1.087l-2.063,0.788c-0.5-0.275-0.975-0.7-1.425-1.275
		c-0.4-0.476-0.613-1.075-0.638-1.8l0.037-0.9L18.175,34.475z"/>
	<path style="fill-rule:evenodd;clip-rule:evenodd;fill:#F5ECA2;" d="M17.237,31.25l0.487-3.9l-1.987,0.263
		c0.125-0.2,0.3-0.4,0.525-0.6c0.475-0.4,1.013-0.601,1.612-0.601c0.75,0,1.388,0.226,1.912,0.676
		c0.525,0.475,0.775,1.087,0.75,1.837c-0.024,1.025-0.225,1.913-0.6,2.663c-0.2,0.375-0.4,0.649-0.6,0.824
		c-1.2,0.525-1.875,0.737-2.025,0.638c-0.1-0.05-0.137-0.362-0.112-0.938L17.237,31.25z"/>
	<path style="fill-rule:evenodd;clip-rule:evenodd;fill:#FFFAC4;" d="M16.9,26.675c1.45-0.274,2.362,0.162,2.737,1.313
		c0.325,0.976,0.237,2.101-0.263,3.375c-0.4,1.024-1.063,1.6-1.987,1.726c-0.85,0.125-1.625-0.15-2.325-0.825
		c-0.65-0.601-0.75-1.638-0.3-3.112C15.237,27.675,15.95,26.85,16.9,26.675z"/>
	
		<radialGradient id="SVGID_23_" cx="31.251" cy="-1.5864" r="6.8829" gradientTransform="matrix(0.5935 0.4585 0.4622 -0.5983 11.4609 13.7598)" gradientUnits="userSpaceOnUse">
		<stop  offset="0" style="stop-color:#821725"/>
		<stop  offset="1" style="stop-color:#5C1320"/>
	</radialGradient>
	<path style="fill-rule:evenodd;clip-rule:evenodd;fill:url(#SVGID_23_);" d="M33.662,27.425c0.726,0.725,1.101,1.55,1.125,2.476
		c0.025,0.925-0.325,1.85-1.049,2.774c-0.9,1.15-2.001,1.763-3.301,1.838c-1.175,0.075-2.15-0.263-2.925-1.013
		c-0.726-0.75-1.088-1.638-1.088-2.662c0-1.101,0.425-2.038,1.275-2.813c1.1-1.001,2.212-1.538,3.337-1.613
		C32.063,26.338,32.938,26.675,33.662,27.425z"/>
	<path style="fill-rule:evenodd;clip-rule:evenodd;fill:#AD5D80;" d="M28.45,28.325c1.124-0.8,1.475-0.551,1.05,0.75
		c-0.45,1.375-0.95,2.037-1.5,1.987c-0.475-0.05-0.638-0.438-0.487-1.162C27.638,29.2,27.95,28.675,28.45,28.325z"/>
	
		<use xlink:href="#flash0.ai_x5F_2_x2F_Layer_37_copy_x2F__x3C_Path_x3E__x5F_21"  width="1.723" height="4.017" x="0.1" y="-4.017" transform="matrix(0.75 0 0 -0.75 32.7002 29.5498)" style="overflow:visible;opacity:0.3281;enable-background:new    ;"/>
	<path style="fill-rule:evenodd;clip-rule:evenodd;fill:#F5ECA2;" d="M40.375,29.787l0.074,3.038h-2.887
		c-0.175,0-0.375-0.112-0.6-0.338c-0.451-0.5-0.838-1.375-1.162-2.625c-0.351-1.45-0.326-2.712,0.074-3.787l0.75-1.163l2.287-0.524
		L40.375,29.787z"/>
	<path style="fill-rule:evenodd;clip-rule:evenodd;fill:#FFFAC4;" d="M40.412,32.75c-1.75-0.325-2.699-1.976-2.85-4.95
		c-0.05-1.2,0.113-2.112,0.488-2.737c0.449-0.7,1.086-0.862,1.912-0.487c1.424,0.649,2.174,2.25,2.25,4.8
		C42.287,31.899,41.688,33.025,40.412,32.75z"/>
	<path style="fill-rule:evenodd;clip-rule:evenodd;fill:#D6CE83;" d="M21.25,18.987c-0.125,0.425-0.225,0.438-0.3,0.038
		c-0.075-0.425-0.063-0.688,0.037-0.788c0.2-0.175,0.313-0.138,0.338,0.113C21.375,18.55,21.35,18.762,21.25,18.987z"/>
	<path style="fill-rule:evenodd;clip-rule:evenodd;fill:#D6CE83;" d="M20.612,19.813c0.075,0.05-0.1,0.237-0.524,0.563
		c-0.15,0.1-0.275,0.138-0.375,0.112c-0.125-0.025-0.15-0.112-0.075-0.262c0.05-0.15,0.2-0.288,0.45-0.413
		C20.337,19.688,20.513,19.688,20.612,19.813z"/>
	<path style="fill-rule:evenodd;clip-rule:evenodd;fill:#D6CE83;" d="M20.575,20.487c0.225-0.125,0.275,0.038,0.149,0.488
		c-0.1,0.425-0.262,0.65-0.487,0.675c-0.175,0.025-0.188-0.15-0.037-0.525C20.325,20.775,20.45,20.563,20.575,20.487z"/>
	<path style="fill-rule:evenodd;clip-rule:evenodd;fill:#D6CE83;" d="M21.4,20.075c0.225,0.075,0.3,0.238,0.225,0.488
		c-0.1,0.225-0.225,0.3-0.375,0.225c-0.125-0.05-0.175-0.188-0.15-0.413C21.15,20.125,21.25,20.025,21.4,20.075z"/>
	<path style="fill-rule:evenodd;clip-rule:evenodd;fill:#D6CE83;" d="M22,18.837c0.35-0.075,0.425,0.05,0.225,0.375
		c-0.2,0.325-0.412,0.462-0.637,0.413c-0.201-0.025-0.238-0.15-0.113-0.375C21.6,19.025,21.775,18.888,22,18.837z"/>
	<path style="fill-rule:evenodd;clip-rule:evenodd;fill:#D6CE83;" d="M39.625,26.263c0.274-0.075,0.462,0.237,0.563,0.938
		c0.025,0.3,0.013,0.5-0.037,0.6c-0.076,0.101-0.176,0.038-0.301-0.188c-0.15-0.274-0.262-0.537-0.338-0.787
		C39.463,26.5,39.5,26.313,39.625,26.263z"/>
	<path style="fill-rule:evenodd;clip-rule:evenodd;fill:#D6CE83;" d="M39.775,28.025c0.074,0.074,0.063,0.162-0.037,0.262
		c-0.076,0.075-0.2,0.113-0.375,0.113c-0.15,0-0.288-0.088-0.414-0.263c-0.148-0.2-0.188-0.363-0.111-0.487
		C38.962,27.45,39.275,27.575,39.775,28.025z"/>
	<path style="fill-rule:evenodd;clip-rule:evenodd;fill:#D6CE83;" d="M39.887,28.662c0.126-0.024,0.188,0.05,0.188,0.226
		c0,0.149-0.049,0.3-0.148,0.45c-0.101,0.175-0.238,0.3-0.414,0.375l-0.188-0.188c-0.1-0.075-0.062-0.238,0.113-0.488
		C39.588,28.838,39.738,28.712,39.887,28.662z"/>
	<path style="fill-rule:evenodd;clip-rule:evenodd;fill:#D6CE83;" d="M40.6,29.075c0.225,0.325,0.338,0.55,0.338,0.675
		c0.025,0.175-0.037,0.3-0.188,0.375c-0.15,0.1-0.25,0.075-0.301-0.075c-0.074-0.125-0.087-0.337-0.037-0.638
		C40.488,29.087,40.55,28.975,40.6,29.075z"/>
	<path style="fill-rule:evenodd;clip-rule:evenodd;fill:#D6CE83;" d="M40.824,28.662l0.188-0.037
		c0.15-0.025,0.264-0.013,0.338,0.037c0.101,0.101,0.15,0.226,0.15,0.375c-0.025,0.15-0.125,0.237-0.301,0.263
		c-0.175,0.025-0.312-0.063-0.412-0.263C40.713,28.838,40.725,28.712,40.824,28.662z"/>
	<path style="fill-rule:evenodd;clip-rule:evenodd;fill:#D6CE83;" d="M40.863,27.463c0.274,0.024,0.387,0.212,0.336,0.563
		c-0.024,0.199-0.236,0.3-0.637,0.3c-0.101,0-0.101-0.138,0-0.413C40.637,27.612,40.737,27.463,40.863,27.463z"/>
	<path style="fill-rule:evenodd;clip-rule:evenodd;fill:#D6CE83;" d="M18.025,30.088c0.074-0.251,0.262-0.413,0.563-0.488
		c0.275-0.074,0.387,0,0.337,0.226c-0.075,0.25-0.275,0.45-0.6,0.6C18.025,30.55,17.925,30.438,18.025,30.088z"/>
	<path style="fill-rule:evenodd;clip-rule:evenodd;fill:#D6CE83;" d="M17.838,30.125c0,0.325-0.075,0.462-0.226,0.412
		c-0.149-0.024-0.25-0.175-0.3-0.449c-0.025-0.226,0.063-0.313,0.263-0.263C17.775,29.875,17.862,29.975,17.838,30.125z"/>
	<path style="fill-rule:evenodd;clip-rule:evenodd;fill:#D6CE83;" d="M18.775,30.388c0.575-0.025,0.7,0.149,0.375,0.524
		c-0.125,0.15-0.351,0.125-0.676-0.074c-0.125-0.051-0.137-0.138-0.037-0.263C18.513,30.475,18.625,30.412,18.775,30.388z"/>
	<path style="fill-rule:evenodd;clip-rule:evenodd;fill:#A0DAF2;" d="M43.375,30.725h0.15c-0.926,3.325-2.926,6.051-6,8.176
		c-3.125,2.149-6.7,3.225-10.726,3.225c-4.05,0-7.649-1.101-10.8-3.3c-3.075-2.15-5.063-4.9-5.963-8.25l0.301,0.037
		c0.95,0.825,2.95,1.487,6,1.987c3.074,0.525,6.6,0.788,10.574,0.788c3.875,0,7.338-0.251,10.389-0.75
		C40.301,32.138,42.324,31.5,43.375,30.725z"/>
	<path style="fill-rule:evenodd;clip-rule:evenodd;fill:#8CC7DE;" d="M42.063,31.438c-0.225,0.75-0.575,1.537-1.051,2.362
		c-0.898,1.575-2.299,3.175-4.199,4.8c-1.55,1.3-3.412,2.313-5.588,3.038l-1.688,0.3c2.9-1.2,4.963-2.875,6.188-5.025
		c0.551-1,0.913-1.912,1.088-2.737c0.025-0.2,0.063-0.712,0.113-1.537C39.125,32.338,40.837,31.938,42.063,31.438z"/>
	
		<use xlink:href="#flash0.ai_x5F_2_x2F_Layer_37_copy_x2F__x3C_Path_x3E__x5F_2"  width="23.65" height="13.6" y="-13.6" transform="matrix(0.75 0 0 -0.75 13.1001 31.9004)" style="overflow:visible;opacity:0.4414;enable-background:new    ;"/>
	
		<use xlink:href="#flash0.ai_x5F_2_x2F_Layer_37_copy_x2F__x3C_Path_x3E__x5F_1"  width="12.4" height="13.45" y="-13.45" transform="matrix(0.75 0 0 -0.75 10.0498 30.5498)" style="overflow:visible;opacity:0.1719;enable-background:new    ;"/>
	<path style="fill-rule:evenodd;clip-rule:evenodd;fill:#C9E5F2;" d="M42.85,30.275h0.75v0.149c0,0.875-1.638,1.612-4.912,2.213
		c-3.274,0.6-7.238,0.899-11.888,0.899s-8.612-0.3-11.888-0.899C11.637,32.037,10,31.3,10,30.425v-0.149h0.938
		c0,0.699,1.563,1.3,4.688,1.8c3.1,0.499,6.862,0.75,11.287,0.75c4.426,0,8.188-0.251,11.287-0.75
		C41.3,31.575,42.85,30.975,42.85,30.275z"/>
</g>
</svg>
