<?xml version="1.0" encoding="iso-8859-1"?>
<!-- Generator: Adobe Illustrator 15.1.0, SVG Export Plug-In . SVG Version: 6.00 Build 0)  -->
<!DOCTYPE svg PUBLIC "-//W3C//DTD SVG 1.1//EN" "http://www.w3.org/Graphics/SVG/1.1/DTD/svg11.dtd">
<svg version="1.1" id="flash0.ai" xmlns="http://www.w3.org/2000/svg" xmlns:xlink="http://www.w3.org/1999/xlink" x="0px" y="0px"
	 width="64.9px" height="39.9px" viewBox="0 0 64.9 39.9" style="enable-background:new 0 0 64.9 39.9;" xml:space="preserve">
<linearGradient id="SVGID_1_" gradientUnits="userSpaceOnUse" x1="7.771" y1="2.7827" x2="50.5865" y2="2.7827" gradientTransform="matrix(0.7684 0.64 -0.64 0.7684 -7.200241e-005 3.650188e-004)">
	<stop  offset="0" style="stop-color:#669624"/>
	<stop  offset="1" style="stop-color:#648F29"/>
</linearGradient>
<path style="fill-rule:evenodd;clip-rule:evenodd;fill:url(#SVGID_1_);" d="M20.4,3.85C20.733,4.083,20.933,4.2,21,4.2
	c0.167,0.066,0.467,0.117,0.9,0.15c0.3,0.033,0.65-0.017,1.05-0.15c0.2-0.067,0.25,0,0.15,0.2c-0.2,0.5,0.333,1.167,1.6,2
	c0.566,0.4,0.917,0.7,1.05,0.9c0.1,0.233,0.517,0.3,1.25,0.2l-0.15,0.35c-0.1,0.267-0.067,0.483,0.1,0.65
	c0.133,0.133,0.333,0.217,0.6,0.25c0.267,0.033,0.467,0.15,0.6,0.35c0.2,0.233,0.184,0.6-0.05,1.1
	c-0.233,0.466-0.517,0.85-0.85,1.15c-0.2,0.167-0.567,0.7-1.1,1.6c-0.133,0.2-0.167,0.4-0.1,0.6c0.034,0.1,0.1,0.3,0.2,0.6
	c0.033,0.233,0.017,0.467-0.05,0.7c-0.167,0.5-0.267,0.8-0.3,0.9c-0.1,0.367-0.1,0.633,0,0.8c0.067,0.1,0.2,0.267,0.4,0.5
	c0.367,0.567,0.767,0.95,1.2,1.15c0.333,0.133,0.717,0.683,1.15,1.65c0.333,0.7,0.483,1.067,0.45,1.1
	c0.133,0.166,0.283,0.35,0.45,0.55c0.167,0.2,0.267,0.45,0.3,0.75c0.066,1,0.117,1.566,0.15,1.7c0.1,0.333,0.017,0.833-0.25,1.5
	c-0.033,0.3,0.05,0.5,0.25,0.6c0.1,0.101,0.283,0.2,0.55,0.3c0.2,0.101,0.284,0.267,0.25,0.5c0,0.101-0.033,0.25-0.1,0.45
	c-0.034,0.134,0.233,0.316,0.8,0.55c0.1,0.067,0.283,0.134,0.55,0.2c0.233,0.066,0.351,0.134,0.351,0.2c0,0.5,0.183,0.833,0.55,1
	c0.366,0.167,0.6,0.333,0.7,0.5l0.149,0.4c0.101,0.267,0.316,0.433,0.65,0.5c0.166,0.133,0.416,0.449,0.75,0.949
	c0.166,0.2,0.35,0.134,0.55-0.199L35.9,32.3c0.033,0.2,0.166,0.467,0.399,0.8c0.134,0.167,0.334,0.417,0.601,0.75
	c0.1,0.167,0.05,0.483-0.15,0.95c-0.267,0.601-0.4,0.983-0.4,1.15c-0.033,0-0.083,0.05-0.149,0.149C36.1,36.3,36,36.6,35.9,37
	c-0.233,1.1-0.5,1.967-0.801,2.6c-0.166,0.301-0.3,0.367-0.399,0.2l-0.25-0.45c-0.2,0-0.367-0.033-0.5-0.1
	c-0.267-0.1-0.45-0.333-0.55-0.7l-0.25-0.7l-1.3,0.601c-0.167,0.066-0.317,0.05-0.45-0.05c-0.066-0.101-0.267-0.384-0.6-0.851
	c-0.2-0.333-0.5-0.666-0.9-1c-0.533-0.399-0.85-0.666-0.95-0.8c-0.267-0.267-0.583-0.45-0.95-0.55c-0.3-0.066-0.483-0.117-0.55-0.15
	c-0.233-0.133-0.7,0-1.4,0.4c-0.267,0.166-0.417-0.066-0.45-0.7l-0.95,0.2c-0.4,0.133-0.533-0.25-0.4-1.15
	c0.067-0.399,0-0.6-0.2-0.6c-0.267,0.1-0.483,0.133-0.65,0.1c-0.167-0.033-0.25-0.133-0.25-0.3c0.033-0.167,0.05-0.283,0.05-0.35
	c0.033-0.101-0.067-0.301-0.3-0.601c-0.2-0.267-0.4-0.467-0.6-0.6c-0.133-0.134-0.3-0.184-0.5-0.15l-0.9,0.2
	c-0.9,0.233-1.533,0.217-1.9-0.05c-0.267-0.167-0.667-0.351-1.2-0.55c-0.3-0.101-0.683-0.101-1.15,0L16,31.05
	c0.3-0.366,0.367-0.666,0.2-0.899c-0.133-0.167-0.317-0.284-0.55-0.351c-0.267-0.066-0.816-0.116-1.65-0.149
	c-0.833-0.034-1.417-0.101-1.75-0.2c-0.3-0.101-0.75-0.4-1.35-0.9c-0.533-0.434-0.9-0.666-1.1-0.7c-0.367,0.034-0.8,0.034-1.3,0
	c-0.633-0.033-0.983-0.133-1.05-0.3c-0.034-0.233-0.133-0.467-0.3-0.7c-0.2-0.233-0.183-0.366,0.05-0.399
	c0.4-0.066,0.65-0.134,0.75-0.2c0.233-0.167,0.216-0.35-0.05-0.55l-1.7-1c-0.733-0.4-1.4-0.55-2-0.45
	c-0.534,0.233-0.9,0.366-1.1,0.4c-0.233,0.033-0.317,0.033-0.25,0c0.2-0.134,0.383-0.25,0.55-0.351
	c0.667-0.399,1.017-0.916,1.05-1.55c0.066-1.233-0.284-1.767-1.05-1.6c-0.4,0.1-0.8-0.301-1.2-1.2
	c-0.367-0.733-0.583-1.367-0.65-1.9c-0.033-0.233,0.1-0.483,0.4-0.75c0.367-0.3,0.583-0.617,0.65-0.95
	c0.1-0.467,0.033-0.767-0.2-0.9c-0.133-0.1-0.417-0.167-0.85-0.2C1.317,15.217,1.3,15.133,1.5,15c0.4-0.3,0.65-0.517,0.75-0.65
	c0.3-0.3,0.45-0.5,0.45-0.6c0.033-0.133-0.1-0.217-0.4-0.25c-0.433-0.033-0.9,0.233-1.4,0.8c-0.1-0.2-0.117-0.633-0.05-1.3
	c0.033-0.333-0.1-0.7-0.4-1.1c-0.3-0.4-0.434-0.783-0.4-1.15C0.083,10.35,0.133,10.1,0.2,10c0.133-0.2,0.233-0.367,0.3-0.5
	c0.1-0.333,0.467-0.4,1.1-0.2c0.566,0.2,1.2,0.55,1.9,1.05c0.533,0.367,1.033,0.433,1.5,0.2c0.233-0.133,0.417-0.3,0.55-0.5
	c0.167-0.2,0.067-0.533-0.3-1c-0.2-0.3-0.233-0.617-0.1-0.95c0.267-0.6,0.4-0.95,0.4-1.05C5.617,6.717,5.567,6.433,5.4,6.2
	C5.267,6.067,5.25,5.967,5.35,5.9C5.417,5.867,5.633,5.867,6,5.9c0.3,0,0.567-0.117,0.8-0.35C7.033,5.317,7.05,5.1,6.85,4.9
	c-0.2-0.167-0.233-0.283-0.1-0.35c0.133-0.066,0.5-0.15,1.1-0.25C8.45,4.167,8.8,4.067,8.9,4s0.117-0.25,0.05-0.55
	C8.883,3.083,8.9,2.817,9,2.65c0.133-0.233,0.3-0.367,0.5-0.4c0.167-0.033,0.3,0,0.4,0.1C9.933,2.383,9.95,2.6,9.95,3
	c0,0.367,0.1,0.483,0.3,0.35c0.367-0.2,0.917-0.45,1.65-0.75c0.1-0.067-0.083-0.483-0.55-1.25c-0.4-0.7-0.55-1.067-0.45-1.1
	c0.567-0.133,0.883-0.2,0.95-0.2c0.467-0.066,0.85,0,1.15,0.2c0.267,0.233,0.583,0.333,0.95,0.3c0.2,0,0.433-0.05,0.7-0.15
	c0.767-0.1,1.3,0.167,1.6,0.8c0.133,0.3,0.333,0.533,0.6,0.7c0.3,0.167,0.467,0.267,0.5,0.3c0.1,0.133,0.267,0.2,0.5,0.2
	c0.167,0,0.467-0.017,0.9-0.05c0.233,0.033,0.367,0.15,0.4,0.35c0,0.3,0.033,0.483,0.1,0.55c0.1,0.133,0.267,0.233,0.5,0.3
	C20.05,3.65,20.267,3.75,20.4,3.85z"/>
<path style="fill-rule:evenodd;clip-rule:evenodd;fill:#779E39;" d="M21.65,18.15l-0.75-0.9l0.2-0.45c0.2-0.233,0.417-0.233,0.65,0
	c0.333,0.267,0.75,0.833,1.25,1.7c0.533,0.867,0.833,1.5,0.9,1.9c0.267,1.066,0.817,2.183,1.65,3.35c0.5,0.733,1.017,1.15,1.55,1.25
	c0.167-0.533,0.183-1.233,0.05-2.1c-0.167-0.867-0.283-1.45-0.35-1.75c-0.1-0.467-0.033-0.634,0.2-0.5
	c0.233,0.166,0.533,0.616,0.9,1.35c0.333,0.733,0.517,1.333,0.55,1.8c0.066,0.3,0.117,0.834,0.15,1.601
	c0.066,0.699,0.2,1.216,0.4,1.55c0.4,0.666,1.017,1.033,1.85,1.1c0.667,0.101,1.317,0.601,1.95,1.5
	c0.367,0.566,0.934,1.184,1.7,1.851c0.167,0.267,0.983,1.166,2.45,2.699v0.7c0,0.167-0.2,0.55-0.601,1.15
	c-0.233,0.399-0.3,0.6-0.199,0.6v1.3c0.066,0.467-0.25,1.117-0.95,1.95L35.1,39.6c0.101-0.699,0.084-1.116-0.05-1.25
	c-0.267-0.366-0.85-0.8-1.75-1.3C32.833,36.783,32.4,36.7,32,36.8c-0.4,0.066-0.7,0.033-0.9-0.1c-0.333-0.2-0.45-0.384-0.35-0.55
	c0.1-0.134,0.3-0.233,0.6-0.301l0.8-0.199c0.199-0.167,0.066-0.45-0.4-0.851c-0.467-0.434-0.95-0.7-1.45-0.8
	c-0.6-0.1-1.1-0.184-1.5-0.25c-0.167-0.033-0.783-0.1-1.85-0.2c-0.767-0.066-1.367-0.217-1.8-0.45c-0.467-0.233-0.85-0.566-1.15-1
	l-0.3-0.6l2.8,0.2c0.7,0.166,1.917,0.616,3.65,1.35c-0.8-0.767-1.566-1.416-2.3-1.95c-0.333-0.267-0.934-0.449-1.8-0.55
	C25.15,30.483,24.467,30.3,24,30c-0.567-0.333-1.267-0.583-2.1-0.75c-0.867-0.1-1.467-0.184-1.8-0.25
	c-0.567-0.134-1.417-0.434-2.55-0.9c-1.2-0.533-1.9-0.933-2.1-1.199c-0.2-0.267-0.133-0.517,0.2-0.75c0.3-0.267,0.633-0.384,1-0.351
	c0.3,0.033,1.184,0.351,2.65,0.95c1.333,0.566,2.367,1.033,3.1,1.4l1,0.5c0.067,0-0.1-0.217-0.5-0.65
	c-0.233-0.267-0.7-0.566-1.4-0.9c-0.7-0.366-1.25-0.767-1.65-1.199c-0.5-0.5-1.184-0.884-2.05-1.15c-1.066-0.2-1.9-0.4-2.5-0.6
	c-0.733-0.233-1.233-0.617-1.5-1.15l-0.2-0.7l2.25,0.45c1.566,0.366,2.467,0.616,2.7,0.75L22.6,26
	c-0.967-1.667-1.583-2.684-1.85-3.05c-1.1-1.634-1.983-2.684-2.65-3.15c-1.867-1.2-3.2-2.233-4-3.1l-3.5-3.75l1.3,1.15
	c0.434,0.233,1.5,1,3.2,2.3c0.733,0.567,1.833,1.133,3.3,1.7c-1.533-1.8-2.55-3.067-3.05-3.8c-0.333-0.466-0.6-0.917-0.8-1.35
	l-0.2-0.55l0.6,0.35c0.433,0.333,0.767,0.65,1,0.95c0.333,0.5,1.483,1.533,3.45,3.1l-0.45-0.9c-0.767-1.233-1.467-2.533-2.1-3.9
	c-0.4-0.933-0.5-1.617-0.3-2.05c0.233-0.434,0.534-0.467,0.9-0.1c0.3,0.3,0.55,0.717,0.75,1.25c0.133,0.367,0.35,1.05,0.65,2.05
	c0.233,0.667,0.783,1.983,1.65,3.95c0.367,0.833,1.35,2.333,2.95,4.5c-0.3-0.5-0.55-1.1-0.75-1.8
	C22.567,19.367,22.217,18.817,21.65,18.15z"/>
<path style="fill-rule:evenodd;clip-rule:evenodd;fill:#59851F;" d="M7.15,10.1c0.067,0.1,0.4,0.233,1,0.4
	c0.4,0.1,0.467,0.333,0.2,0.7c0.133,0,0.3-0.067,0.5-0.2c0.167-0.133,0.35-0.167,0.55-0.1c0.067,0.233,0.167,0.684,0.3,1.35
	c0.1,0.567,0.233,1.033,0.4,1.4c-0.2,0.067-0.6-0.017-1.2-0.25c-0.066,0.233,0.083,0.4,0.45,0.5c0.467,0.133,0.733,0.317,0.8,0.55
	c-0.133,0.066-0.283,0.066-0.45,0c-0.2-0.133-0.35-0.217-0.45-0.25c-0.033,0.367,0.217,0.617,0.75,0.75
	c0.6,0.167,0.967,0.35,1.1,0.55c-0.167,0.133-0.483,0.083-0.95-0.15c-0.367-0.167-0.6-0.083-0.7,0.25
	c-0.233,0.066-0.367-0.033-0.4-0.3c0-0.233-0.083-0.333-0.25-0.3c-0.1,0.367-0.333,0.433-0.7,0.2c-0.633-0.434-1.017-0.667-1.15-0.7
	c0.367-0.067,0.633-0.033,0.8,0.1c0.167-0.1,0.15-0.184-0.05-0.25c-0.233-0.033-0.35-0.133-0.35-0.3C7.417,14.017,7.583,14,7.85,14
	c0.133,0,0.233-0.1,0.3-0.3L6.5,13.15c-0.133,0.133-0.167,0.35-0.1,0.65c0.1,0.333,0.117,0.55,0.05,0.65c-0.3,0-0.75,0.1-1.35,0.3
	L5.05,13.9c0.267,0.067,0.517,0.033,0.75-0.1c0.2-0.133,0.284-0.333,0.25-0.6c0.4-0.267,0.85-0.3,1.35-0.1
	c0.567,0.233,0.983,0.316,1.25,0.25c-0.233-0.167-0.95-0.367-2.15-0.6c-0.933-0.2-1.483-0.617-1.65-1.25c0.6-0.1,1-0.133,1.2-0.1
	c0.267,0.067,0.467,0.25,0.6,0.55C7.283,11.417,7.667,11,7.8,10.7c-0.233-0.067-0.383-0.167-0.45-0.3l-0.2,0.8
	c-0.133,0.1-0.267,0.1-0.4,0c-0.167-0.133-0.3-0.167-0.4-0.1l0.5-0.4c0.333-0.267,0.4-0.517,0.2-0.75c0.1-0.034,0.15-0.034,0.15,0
	C7.2,10.017,7.183,10.067,7.15,10.1z M7.4,12.15c0,0.167,0.067,0.317,0.2,0.45c0.566-0.367,0.783-0.667,0.65-0.9
	c-0.167,0.2-0.333,0.25-0.5,0.15c-0.233-0.133-0.4-0.167-0.5-0.1C7.35,11.85,7.4,11.983,7.4,12.15z"/>
<path style="fill-rule:evenodd;clip-rule:evenodd;fill:#59851F;" d="M7.3,16.3l-0.7-0.4c0.1-0.066,0.2-0.133,0.3-0.2
	c0.2-0.1,0.333-0.133,0.4-0.1L8.35,16c0.267,0.133,0.433,0.117,0.5-0.05l1.65,0.5c0.2,0.033,0.317,0.117,0.35,0.25
	c0.033,0.1-0.017,0.183-0.15,0.25c-0.233,0.066-0.717-0.017-1.45-0.25c-0.333-0.1-0.55-0.133-0.65-0.1
	c-0.2,0.033-0.317,0.05-0.35,0.05C8.083,16.65,7.767,16.533,7.3,16.3z"/>
<path style="fill-rule:evenodd;clip-rule:evenodd;fill:#59851F;" d="M6.05,16.9c0.133-0.066,0.617-0.017,1.45,0.15
	c0.167,0,0.467,0.017,0.9,0.05h0.75c0.667,0.033,1.283,0.333,1.85,0.9l-0.4-0.1c-0.333-0.2-0.767-0.316-1.3-0.35
	c-0.367-0.033-0.617-0.017-0.75,0.05L8.4,17.75l-0.05,0.1C8.317,17.917,8.333,18,8.4,18.1c0.133,0.133,0.583,0.267,1.35,0.4
	c0.3,0.067,0.417,0.233,0.35,0.5c-0.133,0-0.283,0-0.45,0c-0.3,0.033-0.5,0.083-0.6,0.15c-0.1,0.067-0.1,0.2,0,0.4
	c0.067,0.133,0.184,0.333,0.35,0.601c0.133,0.3,0.167,0.75,0.1,1.35l0.25,0.95c0.033,0.166,0.267,0.7,0.7,1.6l0.65,0.75
	c0.033,0.033,0.083,0.217,0.15,0.55c0.1,0.367,0.2,0.65,0.3,0.851c0.167,0.434,0.684,0.883,1.55,1.35
	c-1.033-0.3-1.684-0.6-1.95-0.899c-0.167-0.2-0.316-0.317-0.45-0.351c-0.067-0.033-0.217-0.033-0.45,0
	c-0.667,0.066-1.15,0.05-1.45-0.05c-0.2-0.1-0.45-0.15-0.75-0.15c-0.133,0.034-0.183,0.034-0.15,0c0.1-0.066-0.033-0.25-0.4-0.55
	s-0.8-0.583-1.3-0.85c-0.567-0.3-0.95-0.467-1.15-0.5c-0.233-0.033-0.617,0.033-1.15,0.2c-0.733,0.267-1.083,0.333-1.05,0.199l1.4-1
	l0.05,0.25c0.067,0.167,0.184,0.233,0.35,0.2c0.2,0,0.567-0.116,1.1-0.35c0.367-0.167,0.717-0.233,1.05-0.2
	c0.167,0.033,0.367,0.066,0.6,0.1c0.167,0,0.35-0.233,0.55-0.699c0.233-0.5,0.383-0.983,0.45-1.45c0.067-0.4-0.017-0.617-0.25-0.65
	c-0.7-0.133-1.1-0.217-1.2-0.25c-0.967-0.366-1.434-0.566-1.4-0.6c0.767-0.2,1.5-0.233,2.2-0.1c0.233,0.033,0.333-0.083,0.3-0.35
	c-0.033-0.267-0.167-0.6-0.4-1c-0.2-0.3-0.566-0.483-1.1-0.55c-0.7-0.034-1.267-0.067-1.7-0.1c-0.5-0.067-0.483-0.217,0.05-0.45
	C5.567,17.133,5.95,16.967,6.05,16.9z"/>
<path style="fill-rule:evenodd;clip-rule:evenodd;fill:#59851F;" d="M17.05,29.95c-0.066,0.066-0.233,0.083-0.5,0.05
	c-0.5-0.1-0.767-0.15-0.8-0.15h-2.1c-0.7,0.067-1.15,0.067-1.35,0c-0.533-0.233-0.917-0.483-1.15-0.75
	c-0.167-0.199-0.45-0.416-0.85-0.649C9.867,28.217,9.55,28.1,9.35,28.1C9.183,28.134,9,28.116,8.8,28.05
	C8.567,28.017,8.35,28,8.15,28c-0.333,0.066-0.55,0.1-0.65,0.1S7.333,28.033,7.3,27.9l-0.25-0.75L6.6,26.4l0.8,0.1
	c0.233,0.066,0.367,0.184,0.4,0.35c0,0.167,0.1,0.301,0.3,0.4c0.2,0.134,0.383,0.167,0.55,0.1c0.733-0.133,1.184-0.133,1.35,0
	c0.2,0.134,0.7,0.4,1.5,0.801c0.467,0.3,1.25,0.449,2.35,0.449c0.2,0,0.5-0.05,0.9-0.149c0.367-0.066,0.667-0.017,0.9,0.149
	C16.75,29.4,17.217,29.85,17.05,29.95z"/>
<path style="fill-rule:evenodd;clip-rule:evenodd;fill:#59851F;" d="M16.55,30.55c0.3-0.066,0.567-0.066,0.8,0
	c0.367,0.134,0.75,0.184,1.15,0.15l1.2,0.3c0.267,0.1,0.6,0.017,1-0.25c0.233-0.167,0.45-0.2,0.65-0.1l0.6,0.149L22.2,30.9
	l0.4,0.649c-0.1-0.033-0.217-0.066-0.35-0.1c-0.233-0.066-0.417-0.084-0.55-0.05c-0.3,0.133-0.8,0.25-1.5,0.35
	c-0.167,0.066-0.45,0.066-0.85,0s-0.65-0.167-0.75-0.3c-0.133-0.167-0.233-0.283-0.3-0.351c-0.1-0.1-0.25-0.116-0.45-0.05
	c-0.2,0.066-0.417,0.101-0.65,0.101c-0.267-0.034-0.434-0.034-0.5,0L15.95,31.3c-0.1,0.033-0.184,0.05-0.25,0.05
	c-0.067,0-0.067-0.033,0-0.1l0.45-0.55L16.55,30.55z"/>
<path style="fill-rule:evenodd;clip-rule:evenodd;fill:#59851F;" d="M10.05,21.7C9.983,21.533,9.967,21.35,10,21.15
	c0.067-0.267,0.1-0.417,0.1-0.45c0-0.134,0.083-0.217,0.25-0.25c0.2-0.033,0.367,0.017,0.5,0.149c0.133,0.134,0.167,0.284,0.1,0.45
	c0,0.101-0.034,0.217-0.1,0.351c0,0.133,0.433,0.399,1.3,0.8c0.367,0.233-0.083,0.267-1.35,0.1C10.4,22.233,10.15,22.033,10.05,21.7
	z"/>
<path style="fill-rule:evenodd;clip-rule:evenodd;fill:#59851F;" d="M11.65,21.1c0.1,0.101,0.483,0.267,1.15,0.5
	c0.034,0.067,0,0.101-0.1,0.101c-0.1,0.033-0.217,0-0.35-0.101c-0.1-0.066-0.25-0.1-0.45-0.1c-0.2,0-0.35-0.033-0.45-0.1
	c-0.1-0.101-0.117-0.184-0.05-0.25C11.5,21.05,11.583,21.033,11.65,21.1z"/>
<path style="fill-rule:evenodd;clip-rule:evenodd;fill:#59851F;" d="M11.7,23.05c0.433,0.3,0.4,0.767-0.1,1.4l-0.05-0.3
	c-0.033-0.101-0.233-0.301-0.6-0.601c-0.1-0.066-0.117-0.267-0.05-0.6c0.033-0.101,0.15-0.134,0.35-0.101
	C11.417,22.884,11.567,22.95,11.7,23.05z"/>
<path style="fill-rule:evenodd;clip-rule:evenodd;fill:#59851F;" d="M13.8,25.4c-0.2,0.199-0.35,0.283-0.45,0.25
	c-0.2-0.067-0.45,0.083-0.75,0.449c-0.033,0.034-0.067,0.134-0.1,0.301c-0.033,0.066-0.117,0.083-0.25,0.05S12,26.3,11.9,26.1
	l-0.15-0.25l0.05-0.75L13.8,25.4z"/>
<path style="fill-rule:evenodd;clip-rule:evenodd;fill:#59851F;" d="M11.3,18.4c0.267-0.267,0.667-0.1,1.2,0.5
	c0.067,0.067,0.167,0.1,0.3,0.1c0.2,0,0.467,0.117,0.8,0.35c1.133,0.867,1.717,1.317,1.75,1.35c0.4,0.399,1,0.783,1.8,1.149
	c-1.3-0.533-2.233-0.883-2.8-1.05c-0.6-0.166-1.2-0.434-1.8-0.8l-0.8-0.45c-0.367-0.233-0.5-0.4-0.4-0.5
	c0.2-0.133,0.233-0.3,0.1-0.5c-0.034-0.033-0.1-0.05-0.2-0.05C11.217,18.5,11.233,18.467,11.3,18.4z"/>
<path style="fill-rule:evenodd;clip-rule:evenodd;fill:#59851F;" d="M11.35,16.1l1.2,0.5c0.467,0.133,0.75,0.25,0.85,0.35l0.45,0.55
	c0.267,0.333,0.75,0.833,1.45,1.5c-0.7-0.4-1.233-0.767-1.6-1.1c-0.367-0.367-0.833-0.617-1.4-0.75c-0.4-0.133-0.667-0.35-0.8-0.65
	c-0.067-0.067-0.133-0.167-0.2-0.3C11.233,16.067,11.25,16.033,11.35,16.1z"/>
<path style="fill-rule:evenodd;clip-rule:evenodd;fill:#59851F;" d="M14.65,0.4c-0.066,0.1-0.117,0.2-0.15,0.3
	c-0.067,0.233-0.05,0.433,0.05,0.6c0.1,0.167,0.233,0.35,0.4,0.55c0.066,0.133,0.05,0.233-0.05,0.3
	c-0.167,0.133-0.283,0.217-0.35,0.25c-0.133,0.1-0.167,0.2-0.1,0.3c0.367,0.433,0.583,0.733,0.65,0.9c0.2,0.533,0.267,0.833,0.2,0.9
	l-0.2,0.9l-0.05,2c0.067,0.267,0.2,0.583,0.4,0.95c0.2,0.367,0.333,0.767,0.4,1.2c-0.8-0.966-1.2-1.7-1.2-2.2
	c0-0.267-0.033-0.567-0.1-0.9c-0.066-0.267-0.1-0.483-0.1-0.65c0-0.066,0.05-0.2,0.15-0.4c0-0.066-0.017-0.217-0.05-0.45
	c-0.033-0.633-0.1-1.017-0.2-1.15C14.083,3.467,13.967,3.217,14,3.05l-0.1-0.8c0.033-0.1,0.033-0.25,0-0.45l-0.45-1.1L13.4,0.45
	l0.65,0.1L14.65,0.4z"/>
<path style="fill-rule:evenodd;clip-rule:evenodd;fill:#59851F;" d="M12.7,5.3c0.133,0.434,0.25,0.95,0.35,1.55l-0.75-2L12,2.9
	c-0.033-0.5-0.1-0.816-0.2-0.95l-0.55-0.8l-0.35-0.9c0.633,0,1.067,0.317,1.3,0.95c0.133,0.5,0.233,1.05,0.3,1.65
	C12.567,3.183,12.633,4,12.7,5.3z"/>
<path style="fill-rule:evenodd;clip-rule:evenodd;fill:#59851F;" d="M10.25,3.35c0.233-0.133,0.683-0.317,1.35-0.55l-0.4,0.25
	l0.1,0.85l-0.15,1.35c0,0.167,0.1,0.583,0.3,1.25c0.066,0.2,0.216,0.383,0.45,0.55l0.55,0.45c0.2,0.2,0.7,1,1.5,2.4
	c0.267,0.5,0.917,1.333,1.95,2.5c-0.233,0.033-0.55-0.2-0.95-0.7l-1.15-1.45c-0.933-0.933-1.566-1.65-1.9-2.15l-1-1.45
	c-0.333-0.4-0.583-0.867-0.75-1.4L10.25,3.35z"/>
<path style="fill-rule:evenodd;clip-rule:evenodd;fill:#59851F;" d="M10.8,10.8l1.2,1.8c-0.9-0.4-1.4-0.767-1.5-1.1
	c-0.3-0.767-0.433-1.217-0.4-1.35S9.867,9.6,9.3,8.9C8.967,8.567,8.75,8.333,8.65,8.2L8.5,7.7l0.1-0.45
	C9.067,7.917,9.583,8.4,10.15,8.7c0.3,0.167,0.467,0.25,0.5,0.25c0.1,0.133,0.133,0.35,0.1,0.65
	C10.717,10.033,10.733,10.433,10.8,10.8z"/>
<path style="fill-rule:evenodd;clip-rule:evenodd;fill:#59851F;" d="M7.75,7.95c0.2,0.066,0.333,0.167,0.4,0.3L9,9.5
	C8.867,9.567,8.617,9.467,8.25,9.2c-0.2-0.167-0.5-0.3-0.9-0.4C7.119,8.742,6.96,8.734,6.875,8.775L7.5,7.85L7.75,7.95z"/>
<polygon style="fill-rule:evenodd;clip-rule:evenodd;fill:#59851F;" points="3.3,11.25 1.1,11.2 0.9,10.45 1.05,10 "/>
<path style="fill-rule:evenodd;clip-rule:evenodd;fill:#59851F;" d="M20.65,7.6c0.2,0.066,0.2,0.15,0,0.25
	c-0.267,0.1-0.433,0.167-0.5,0.2l-0.2,0.45l0.6,1.05c0.133,0.3,0.184,0.5,0.15,0.6c0,0.033-0.034,0.1-0.1,0.2
	c0,0.833,0.117,1.467,0.35,1.9c0.167,0.3,0.5,1.2,1,2.7l-2.1-3.25c0.1-0.567,0.117-0.95,0.05-1.15c0-0.133-0.133-0.367-0.4-0.7
	c-0.333-0.467-0.567-0.833-0.7-1.1c-0.2-0.3-0.25-0.567-0.15-0.8c0.2-0.4,0.3-0.733,0.3-1c0.033-0.9,0.15-1.8,0.35-2.7l0.65,0.85
	c0.1,0.1,0.05,0.35-0.15,0.75l0.2,1.3C20.033,7.283,20.25,7.433,20.65,7.6z"/>
<path style="fill-rule:evenodd;clip-rule:evenodd;fill:#59851F;" d="M20.55,6.85l-0.15-1.3c-0.033-0.233-0.05-0.433-0.05-0.6
	c0.033-0.3,0.167-0.217,0.4,0.25c0.2,0.367,0.367,0.617,0.5,0.75c0.067,0.066,0.083,0.167,0.05,0.3
	C21.267,6.517,21.017,6.717,20.55,6.85z"/>
<path style="fill-rule:evenodd;clip-rule:evenodd;fill:#59851F;" d="M21.2,8.4c0.433,0.667,0.633,1.083,0.6,1.25
	c0,0.167-0.117,0.167-0.35,0l-0.7-0.85c-0.067-0.066-0.017-0.15,0.15-0.25C21,8.483,21.1,8.433,21.2,8.4z"/>
<path style="fill-rule:evenodd;clip-rule:evenodd;fill:#D1D5A7;" d="M18.85,17.75l-0.8-1.6l1.6,1.85
	c1.033,1.067,2.417,2.866,4.15,5.4c0.333,0.466,1.05,1.133,2.15,2c1.1,0.833,1.833,1.517,2.2,2.05s1,0.983,1.9,1.35
	c0.934,0.4,1.65,0.884,2.15,1.45c1,1.134,2.583,2.65,4.75,4.55L37,35.35c0,0.634-0.083,1.15-0.25,1.551
	c-0.3,0.666-0.45,1.083-0.45,1.25l-0.75-0.2c-0.2-0.101-0.934-0.95-2.2-2.55c-0.6-0.801-1.233-1.483-1.899-2.051
	c-0.3-0.267-0.717-0.683-1.25-1.25c-0.5-0.566-0.967-1.033-1.4-1.399c-0.433-0.334-0.9-0.884-1.4-1.65
	c-0.667-1.1-1.217-1.899-1.65-2.399c-2.033-2.267-3.633-4.15-4.8-5.65C20.217,20.1,19.517,19.017,18.85,17.75z"/>
<path style="fill-rule:evenodd;clip-rule:evenodd;fill:#EEEFE7;" d="M36.55,36.7c-0.339,0-0.422-0.217-0.25-0.65
	C36.429,36.253,36.512,36.47,36.55,36.7z M34.4,33.7c-0.434-0.566-1-1.117-1.7-1.65c-0.767-0.533-1.284-0.916-1.55-1.149
	c-0.7-0.467-1.267-0.851-1.7-1.15c-0.833-0.566-1.45-1.066-1.85-1.5c-0.4-0.4-0.983-1.083-1.75-2.05L24.8,24.85l1.8,1.601
	c0.3,0.3,0.8,0.8,1.5,1.5c0.6,0.633,1.083,1.066,1.45,1.3c1.934,1.167,3.334,2.25,4.2,3.25l1.3,1.2c0.533,0.533,0.851,0.866,0.95,1
	c0.4,0.5,0.517,0.916,0.35,1.25c-0.018,0.038-0.034,0.071-0.05,0.1c-0.092-0.139-0.208-0.272-0.35-0.399
	c-0.2-0.167-0.384-0.367-0.55-0.601C34.934,34.417,34.6,33.967,34.4,33.7z"/>
<path style="fill-rule:evenodd;clip-rule:evenodd;fill:#EEEFE7;" d="M21.5,20.55c0.567,1.101,0.683,1.483,0.35,1.15
	c-0.3-0.3-0.7-0.816-1.2-1.55l-1.8-2.851l0.8,0.7C20.15,18.367,20.767,19.217,21.5,20.55z"/>
<path style="fill-rule:evenodd;clip-rule:evenodd;fill:#EEEFE7;" d="M35.4,36.55c0.5,0.733,0.666,1.066,0.5,1
	c-0.4-0.333-0.75-0.616-1.051-0.85c-0.5-0.4-0.966-0.867-1.399-1.4c-0.5-0.633-0.733-1.1-0.7-1.399
	c0.033-0.267,0.35-0.084,0.95,0.55C34.233,35.017,34.8,35.717,35.4,36.55z"/>
<path style="fill-rule:evenodd;clip-rule:evenodd;fill:#7BB334;" d="M7.15,5.95c0.033,0.133,0.267,0.367,0.7,0.7
	c0.367,0.3,0.5,0.5,0.4,0.6C8.15,7.383,7.7,7.167,6.9,6.6c-0.167-0.133-0.167-0.3,0-0.5C7.033,5.867,7.117,5.817,7.15,5.95z"/>
<path style="fill-rule:evenodd;clip-rule:evenodd;fill:#7BB334;" d="M24.3,8.7l-0.2,0.45c-0.1,0.367-0.083,0.684,0.05,0.95
	c0.167,0.267,0.217,0.467,0.15,0.6c-0.033,0.066-0.1,0.167-0.2,0.3c-0.067,0.133,0,0.317,0.2,0.55c0.133,0.1,0.25,0.184,0.35,0.25
	h1.4l-0.85,2.6c-0.067,0.4-0.034,0.967,0.1,1.7l-1.1-0.95c-0.1-0.1-0.4-0.733-0.9-1.9c-0.133-0.367-0.267-0.617-0.4-0.75
	c-0.066-0.033-0.217-0.083-0.45-0.15c-0.133-0.033-0.117-0.317,0.05-0.85c0.233-0.667,0.367-1.117,0.4-1.35
	c0.267-1.066,0.417-1.733,0.45-2C23.383,7.917,23.5,7.867,23.7,8C23.933,8.133,24.133,8.367,24.3,8.7z"/>
<path style="fill-rule:evenodd;clip-rule:evenodd;fill:#7BB334;" d="M25.15,8.95c0.1,0.367,0.267,0.733,0.5,1.1
	c0.167,0.2,0.2,0.333,0.1,0.4c-0.467,0.167-0.733,0.2-0.8,0.1c-0.133-0.167-0.233-0.517-0.3-1.05c-0.033-0.267,0.033-0.467,0.2-0.6
	C25.017,8.8,25.117,8.817,25.15,8.95z"/>
<path style="fill-rule:evenodd;clip-rule:evenodd;fill:#7BB334;" d="M23.75,16l1.45,2l0.85,0.5c0.6,0.4,0.983,0.717,1.15,0.95
	c0.2,0.267,0.216,0.383,0.05,0.35c-0.2-0.066-0.433-0.233-0.7-0.5c-0.233-0.233-0.466-0.233-0.7,0l-0.25,0.4l-1.2-0.15
	c-0.233-0.033-0.383-0.117-0.45-0.25c-0.067-0.333-0.184-0.7-0.35-1.1L23,16.25L23.75,16z"/>
<path style="fill-rule:evenodd;clip-rule:evenodd;fill:#7BB334;" d="M25.45,20.65c0.267,0.533,0.4,0.866,0.4,1
	c-0.033,0.133-0.2,0.267-0.5,0.399c-0.233,0.101-0.417,0.066-0.55-0.1c-0.133-0.3-0.267-0.55-0.4-0.75
	c-0.167-0.267-0.283-0.733-0.35-1.4c-0.033-0.267,0.15-0.267,0.55,0S25.283,20.35,25.45,20.65z"/>
<path style="fill-rule:evenodd;clip-rule:evenodd;fill:#7BB334;" d="M23.15,18.25c0.2,0.433,0.25,0.783,0.15,1.05
	c-0.066,0.267-0.183,0.284-0.35,0.05l-0.8-1.3c-0.1-0.133-0.117-0.35-0.05-0.65l0.1-0.65c0.033-0.133,0.167,0,0.4,0.4
	C22.833,17.517,23.017,17.883,23.15,18.25z"/>
<path style="fill-rule:evenodd;clip-rule:evenodd;fill:#7BB334;" d="M21.65,15.85c0,0.4,0.033,0.717,0.1,0.95
	c0.167,0.267,0.117,0.317-0.15,0.15c-0.233-0.2-0.45-0.567-0.65-1.1C20.75,15.217,20.433,14.6,20,14c-0.2-0.3-0.35-0.717-0.45-1.25
	l-0.1-0.7l1.95,2.8C21.6,15.15,21.683,15.483,21.65,15.85z"/>
<path style="fill-rule:evenodd;clip-rule:evenodd;fill:#7BB334;" d="M20.35,15.5c0.267,0.5,0.4,0.9,0.4,1.2
	c-0.667-0.6-1.083-1.15-1.25-1.65c-0.1-0.333-0.017-0.4,0.25-0.2C19.983,15.017,20.183,15.233,20.35,15.5z"/>
<path style="fill-rule:evenodd;clip-rule:evenodd;fill:#7BB334;" d="M18.55,3.3c0.233,0.367,0.333,0.6,0.3,0.7
	c0,0.067-0.067,0.183-0.2,0.35c-0.066,0.133-0.117,0.367-0.15,0.7c0,0.2,0,0.534,0,1c-0.067,0.8-0.2,1.483-0.4,2.05
	c-0.1,0.3-0.067,0.816,0.1,1.55c0.066,0.333,0.15,0.65,0.25,0.95c-0.333-0.934-0.633-1.533-0.9-1.8c-0.167-0.2-0.216-0.4-0.15-0.6
	c0.133-0.267,0.233-0.517,0.3-0.75c0.2-0.534,0.3-1.4,0.3-2.6c0-0.434,0.033-0.833,0.1-1.2C18.2,3.083,18.35,2.967,18.55,3.3z"/>
<path style="fill-rule:evenodd;clip-rule:evenodd;fill:#7BB334;" d="M13.35,1.25l0.2,1.3c0.1,0.467,0.05,0.767-0.15,0.9l0.35,0.9
	l0.4,1.75c0.167,0.5,0.333,1.35,0.5,2.55L14,7.7c-0.2-0.267-0.383-0.917-0.55-1.95c-0.034-0.533-0.067-0.867-0.1-1
	c0-0.233-0.083-0.467-0.25-0.7c-0.133-0.2-0.167-0.433-0.1-0.7c0.1-0.367,0.15-0.667,0.15-0.9c-0.033-0.534-0.217-1.117-0.55-1.75
	l0.25,0.05C13.017,0.85,13.183,1.017,13.35,1.25z"/>
<path style="fill-rule:evenodd;clip-rule:evenodd;fill:#7BB334;" d="M11,7.85l1.35,1.4l0.2,0.8c0.034,0.067,0.333,0.65,0.9,1.75
	c0.3,0.467,0.4,0.784,0.3,0.95l-0.85-0.9l-1.05-1.75c-0.1-0.367-0.133-0.717-0.1-1.05c0-0.133-0.017-0.2-0.05-0.2
	c-0.133,0-0.3-0.067-0.5-0.2c-0.167-0.1-0.25-0.167-0.25-0.2c0.033-0.067-0.017-0.2-0.15-0.4l-1.75-2.1C8.917,5.85,8.9,5.65,9,5.35
	C9.1,5.05,9.2,4.9,9.3,4.9c0.467,0.067,0.633,0.35,0.5,0.85l0.15,0.7C10.183,6.917,10.533,7.383,11,7.85z"/>
</svg>
