<?xml version="1.0" encoding="iso-8859-1"?>
<!-- Generator: Adobe Illustrator 15.1.0, SVG Export Plug-In . SVG Version: 6.00 Build 0)  -->
<!DOCTYPE svg PUBLIC "-//W3C//DTD SVG 1.1//EN" "http://www.w3.org/Graphics/SVG/1.1/DTD/svg11.dtd">
<svg version="1.1" id="flash0.ai" xmlns="http://www.w3.org/2000/svg" xmlns:xlink="http://www.w3.org/1999/xlink" x="0px" y="0px"
	 width="70.55px" height="32.75px" viewBox="0 0 70.55 32.75" style="enable-background:new 0 0 70.55 32.75;" xml:space="preserve"
	>
<symbol  id="flash0.ai_x5F_8_x2F_Layer_17_x2F__x3C_Path_x3E_" viewBox="0.046 -2.762 17.654 2.762">
	<g id="Layer_1_10_">
		<path style="fill-rule:evenodd;clip-rule:evenodd;fill:#965A00;" d="M1.25-1.75c0.6,0.167,1.767,0.333,3.5,0.5
			c1.9,0.2,3.567,0.317,5,0.35c2.033,0.066,4.683,0.367,7.95,0.9l-2.5-1.45c-0.833,0-1.617-0.05-2.35-0.15
			C11.083-1.933,7.7-2.3,2.7-2.7C0.867-2.833-0.017-2.75,0.05-2.45C0.083-2.217,0.483-1.983,1.25-1.75z"/>
	</g>
</symbol>
<symbol  id="flash0.ai_x5F_8_x2F_Layer_17_x2F__x3C_Path_x3E__x5F_1" viewBox="-0.012 -2.833 20.213 2.833">
	<g id="Layer_1_9_">
		<path style="fill-rule:evenodd;clip-rule:evenodd;fill:#965A00;" d="M20.2,0l-1.25-0.9c-0.2-0.2-0.717-0.483-1.55-0.85l-1.15-0.5
			h-2.6c-2.967,0-5.483-0.083-7.55-0.25C4.233-2.667,2.967-2.767,2.3-2.8c-1.066-0.067-1.733-0.034-2,0.1
			c-0.333,0.133-0.4,0.25-0.2,0.35C0.533-2.183,0.9-2,1.2-1.8c0.733,0.433,3.517,0.767,8.35,1L20.2,0z"/>
	</g>
</symbol>
<symbol  id="flash0.ai_x5F_8_x2F_Layer_17_x2F__x3C_Path_x3E__x5F_2" viewBox="-0.039 -2.34 12.139 2.34">
	<g id="Layer_1_8_">
		<path style="fill-rule:evenodd;clip-rule:evenodd;fill:#965A00;" d="M0.95-0.8C1.783-0.5,3.6-0.3,6.4-0.2L12.1,0l-1.35-0.55
			L7.9-2.05c-1.367,0.1-2.467,0.1-3.3,0C3.533-2.15,2.7-2.233,2.1-2.3C1-2.367,0.35-2.35,0.15-2.25c-0.233,0.1-0.25,0.333-0.05,0.7
			C0.333-1.15,0.617-0.9,0.95-0.8z"/>
	</g>
</symbol>
<symbol  id="flash0.ai_x5F_8_x2F_Layer_17_x2F__x3C_Path_x3E__x5F_24" viewBox="0 -17.5 32.957 17.5">
	<g id="Layer_1_7_">
		<path style="fill-rule:evenodd;clip-rule:evenodd;fill:#664B16;" d="M32.5,0c0.533,0,0.6-0.233,0.2-0.7
			c-0.367-0.433-0.8-0.75-1.3-0.95c-0.2-0.1-0.583-0.383-1.15-0.85c-0.467-0.367-0.817-0.567-1.05-0.6
			c-0.233-0.033-0.45-0.333-0.65-0.9c-0.1-0.267-0.183-0.533-0.25-0.8c-0.033-0.3-0.133-0.5-0.3-0.6l-1.65-1.2
			C26.283-5.733,26-5.333,25.5-5.4c-0.3-0.033-0.983-0.417-2.05-1.15c-1.333-0.967-2.35-1.667-3.05-2.1c-1.667-1.167-4-2.317-7-3.45
			c-1.066-0.367-2.467-0.983-4.2-1.85c-1.534-0.733-2.8-1.4-3.8-2C4.3-16.617,2.5-17.133,0-17.5c1.7,1.533,3.683,3.183,5.95,4.95
			c4.5,3.533,8.1,5.867,10.8,7c3.067,1.333,6.35,2.6,9.85,3.8C29.933-0.583,31.9,0,32.5,0z"/>
	</g>
</symbol>
<symbol  id="flash0.ai_x5F_8_x2F_Layer_17_x2F__x3C_Path_x3E__x5F_32" viewBox="0 -5.05 12.101 5.025">
	<g id="Layer_1_6_">
		<path style="fill-rule:evenodd;clip-rule:evenodd;fill:#785307;" d="M11.2-0.05c0.533,0.066,0.833,0,0.9-0.2
			c0.033-0.267-0.567-0.683-1.8-1.25C6.4-3.167,4.1-4.1,3.4-4.3C2.9-4.467,2.367-4.717,1.8-5.05L0-4.55
			C2.233-3.817,4.033-3.1,5.4-2.4c1.033,0.533,2.15,1.05,3.35,1.55C9.983-0.383,10.8-0.117,11.2-0.05z"/>
	</g>
</symbol>
<symbol  id="flash0.ai_x5F_8_x2F_Layer_23_x2F__x3C_Path_x3E_" viewBox="0 -6.25 13.753 6.251">
	<g id="Layer_1_5_">
		<path style="fill-rule:evenodd;clip-rule:evenodd;fill:#784000;" d="M13.6-0.6c-0.2-0.267-0.467-0.483-0.8-0.65
			c-0.1-0.067-0.833-0.4-2.2-1c-2-0.9-3.85-1.867-5.55-2.9L3.1-6.25C2-6.183,1.3-6.067,1-5.9L0-5.45c3.267,1.434,5.9,2.633,7.9,3.6
			c2.6,1.267,4.167,1.883,4.7,1.85c0.167-0.033,0.467-0.05,0.9-0.05C13.8-0.117,13.833-0.3,13.6-0.6z"/>
	</g>
</symbol>
<symbol  id="flash0.ai_x5F_8_x2F_Layer_23_x2F__x3C_Path_x3E__x5F_1" viewBox="0 -3.5 7.673 3.508">
	<g id="Layer_1_4_">
		<path style="fill-rule:evenodd;clip-rule:evenodd;fill:#785307;" d="M7.6-0.75C7.167-1.317,6.55-1.767,5.75-2.1
			c-0.6-0.267-1.4-0.733-2.4-1.4C2.317-3.233,1.567-3.1,1.1-3.1L0-3.05L4.25-0.9c0.617,0.296,0.976,0.488,1.075,0.575L5.35-0.35
			L6.7,0C7,0.033,7.25-0.033,7.45-0.2C7.683-0.367,7.733-0.55,7.6-0.75z"/>
	</g>
</symbol>
<symbol  id="flash0.ai_x5F_8_x2F_Layer_23_x2F__x3C_Path_x3E__x5F_2" viewBox="0.003 -15.25 23.848 15.25">
	<g id="Layer_1_3_">
		<path style="fill-rule:evenodd;clip-rule:evenodd;fill:#664B16;" d="M23.85-0.7c-3.633-2.367-6.1-3.883-7.4-4.55
			c-2.867-1.433-4.617-2.433-5.25-3C8.633-9.55,7.133-10.8,6.7-12c-0.233-0.733-0.1-1.5,0.4-2.3c0.267-0.4,0.55-0.717,0.85-0.95
			c-4.167,1.067-6.784,1.8-7.85,2.2c-0.633,0.267,1.816,2.517,7.35,6.75C10.25-4.167,13.1-2.067,16,0l6.25-0.45
			C22.983-0.517,23.517-0.6,23.85-0.7z"/>
	</g>
</symbol>
<symbol  id="flash0.ai_x5F_8_x2F_Layer_23_x2F__x3C_Path_x3E__x5F_23" viewBox="-0.038 -6.978 31.838 6.984">
	<g id="Layer_1_2_">
		<path style="fill-rule:evenodd;clip-rule:evenodd;fill:#664B16;" d="M31.8-6.4c-2.233-0.567-3.883-0.717-4.95-0.45
			c-2.9,0.7-5.467,1.05-7.7,1.05c-2.667,0.066-4.9,0.383-6.7,0.95C11.05-4.35,10.033-4,9.4-3.8c-1.033,0.367-1.7,0.517-2,0.45
			C7.133-3.45,6.967-3.733,6.9-4.2c-0.033-0.233-0.033-0.466,0-0.7L5.2-4.3L4.85-3.75c-0.367,1-0.733,1.45-1.1,1.35
			c-0.2-0.067-0.533,0.017-1,0.25C2.183-1.883,1.783-1.733,1.55-1.7c-0.466,0.067-0.9,0.25-1.3,0.55
			C-0.15-0.817-0.133-0.567,0.3-0.4C0.8-0.167,2.617-0.033,5.75,0c3.233,0.033,6.35-0.067,9.35-0.3c2.533-0.2,6.066-1.267,10.6-3.2
			C28-4.5,30.033-5.467,31.8-6.4z"/>
	</g>
</symbol>
<g>
	<path style="fill-rule:evenodd;clip-rule:evenodd;fill:#C98000;" d="M44.75,28.6l-1,0.15l-10.8-3.1L9.7,22.15l-2.25-0.5
		c6.9-2.067,12.816-3.5,17.75-4.301c3.333-0.533,6.017-0.566,8.05-0.1c1.467,0.366,2.783,1.083,3.95,2.15
		C38.533,20.566,41.05,23.634,44.75,28.6z"/>
	<path style="fill-rule:evenodd;clip-rule:evenodd;fill:#DBC674;" d="M43.8,31.05c-6.733-0.733-12.433-1.517-17.1-2.35
		c-4.633-0.8-10.617-2.316-17.95-4.55L8.7,21.7l20.2-2.05l14.85,9.1L43.8,31.05z"/>
	<path style="fill-rule:evenodd;clip-rule:evenodd;fill:#FFD875;" d="M8.7,21.7c6.633-1.767,12.383-3.033,17.25-3.8
		c3.4-0.567,6.066-0.45,8,0.35c1.467,0.6,2.95,1.884,4.45,3.85c1.8,2.301,3.583,4.517,5.35,6.65c-5.667-0.9-11.933-1.95-18.8-3.15
		C18.75,24.5,13.333,23.2,8.7,21.7z"/>
	
		<linearGradient id="SVGID_1_" gradientUnits="userSpaceOnUse" x1="43.2861" y1="-17.5625" x2="45.0354" y2="-17.5625" gradientTransform="matrix(0.5145 0.8575 -0.8575 0.5145 2.028346e-004 5.965829e-004)">
		<stop  offset="0" style="stop-color:#C4A149"/>
		<stop  offset="1" style="stop-color:#DBC674"/>
	</linearGradient>
	<path style="fill-rule:evenodd;clip-rule:evenodd;fill:url(#SVGID_1_);" d="M37.5,28.4c0.233-0.367,0.517-0.351,0.85,0.05
		c0.334,0.399,0.434,0.767,0.301,1.1c-0.167,0.4-0.5,0.467-1,0.2C37.184,29.517,37.134,29.066,37.5,28.4z"/>
	
		<linearGradient id="SVGID_2_" gradientUnits="userSpaceOnUse" x1="39.3906" y1="-5.2119" x2="42.0482" y2="-5.2119" gradientTransform="matrix(0.6585 0.7526 -0.7526 0.6585 -4.443526e-004 3.942251e-004)">
		<stop  offset="0" style="stop-color:#C4A149"/>
		<stop  offset="1" style="stop-color:#DBC674"/>
	</linearGradient>
	<path style="fill-rule:evenodd;clip-rule:evenodd;fill:url(#SVGID_2_);" d="M32.05,26.95c0.2,0.899-0.133,1.45-1,1.649
		c-0.533,0.134-0.966-0.133-1.3-0.8l-0.3-1.05l1.2-0.25C31.45,26.4,31.917,26.55,32.05,26.95z"/>
	
		<linearGradient id="SVGID_3_" gradientUnits="userSpaceOnUse" x1="29.7671" y1="-2.8379" x2="31.8481" y2="-2.8379" gradientTransform="matrix(0.4805 0.877 -0.877 0.4805 2.777576e-005 -2.028644e-004)">
		<stop  offset="0" style="stop-color:#C4A149"/>
		<stop  offset="1" style="stop-color:#DBC674"/>
	</linearGradient>
	<path style="fill-rule:evenodd;clip-rule:evenodd;fill:url(#SVGID_3_);" d="M17.3,25c0.267-0.233,0.5-0.15,0.7,0.25
		s0.233,0.684,0.1,0.85c-0.233,0.267-0.633,0.334-1.2,0.2C16.367,26.134,16.5,25.7,17.3,25z"/>
	
		<use xlink:href="#flash0.ai_x5F_8_x2F_Layer_23_x2F__x3C_Path_x3E__x5F_23"  width="31.838" height="6.984" x="-0.038" y="-6.978" transform="matrix(1 0 0 -1 7.9502 21.0498)" style="overflow:visible;opacity:0.4883;enable-background:new    ;"/>
	<path style="fill-rule:evenodd;clip-rule:evenodd;fill:#FFAB0F;" d="M42.6,27.95c-1.333-0.233-2.5-0.334-3.5-0.3
		c-1.133,0.066-2.899-0.084-5.3-0.45c-3.3-0.533-6.083-0.9-8.35-1.101c-2-0.166-4.667-0.883-8-2.149c-1.9-0.733-3.067-0.55-3.5,0.55
		c-0.267,0.634-0.7,0.917-1.3,0.85c-0.6-0.066-0.967-0.383-1.1-0.949c-0.2-1.134-0.883-1.851-2.05-2.15
		c-0.767-0.167-1.3-0.517-1.6-1.05c-0.333-0.634-0.1-1.25,0.7-1.851c1.433-1.066,6.367-1.866,14.8-2.399
		c8-0.534,12.517-0.583,13.55-0.15c0.434,0.167,1.5,1.417,3.2,3.75c1.733,2.3,2.699,3.483,2.899,3.55
		c0.434,0.167,0.9,0.717,1.4,1.65c0.5,1.033,0.517,1.7,0.05,2C44.1,28.017,43.467,28.083,42.6,27.95z"/>
	<path style="fill-rule:evenodd;clip-rule:evenodd;fill:#FFF0B8;" d="M17.8,23.7c-0.3-0.2-0.533-0.384-0.7-0.55l-0.1-0.2
		c5.833,1.434,9.217,2.149,10.15,2.149c1.1,0,2.767,0.084,5,0.25c2.733,0.233,4.484,0.483,5.25,0.75
		c0.866,0.301,0.85,0.551-0.051,0.75c-0.866,0.167-1.85,0.167-2.95,0L23.05,25.2L20.2,24.35C19.1,24.25,18.3,24.033,17.8,23.7z"/>
	<g>
		<path style="fill-rule:evenodd;clip-rule:evenodd;fill:#D48900;" d="M42.6,27.95c-1.333-0.233-2.5-0.334-3.5-0.3
			c-1.133,0.066-2.899-0.084-5.3-0.45c-3.3-0.533-6.083-0.9-8.35-1.101c-2-0.166-4.667-0.883-8-2.149
			c-1.9-0.733-3.067-0.55-3.5,0.55c-0.267,0.634-0.7,0.917-1.3,0.85c-0.6-0.066-0.967-0.383-1.1-0.949l-0.05-0.25
			c0.367,0.666,0.8,0.883,1.3,0.649c0.267-0.1,0.467-0.316,0.6-0.649c0.1-0.367,0.184-0.65,0.25-0.851
			c0.1-0.333,0.467-0.566,1.1-0.7c0.7-0.1,1.45,0.017,2.25,0.351c0.833,0.333,2.367,0.783,4.6,1.35c1.967,0.5,3.533,0.851,4.7,1.05
			c0.633,0.101,2.617,0.233,5.95,0.4c3.467,0.134,5.767,0.283,6.9,0.45c1.267,0.166,2.1,0.333,2.5,0.5
			c0.6,0.233,1.083,0.383,1.449,0.45c0.767,0.166,1.334,0.066,1.7-0.301c0.066,0.4-0.033,0.7-0.3,0.9
			C44.1,28.017,43.467,28.083,42.6,27.95z"/>
		<path style="fill-rule:evenodd;clip-rule:evenodd;fill:#DBBB46;" d="M10.3,21.75c0.434,0.066,0.7,0.283,0.8,0.65
			c0.066,0.199,0.133,0.583,0.2,1.149c-0.367-0.633-0.966-1.066-1.8-1.3c-0.667-0.134-1.167-0.434-1.5-0.9
			c-0.367-0.533-0.317-1.066,0.15-1.6c0,0.467,0.233,0.9,0.7,1.3C9.283,21.45,9.767,21.684,10.3,21.75z"/>
	</g>
	<path style="fill-rule:evenodd;clip-rule:evenodd;fill:#FFF0B8;" d="M12.4,22.2c0.367-0.233,0.717-0.351,1.05-0.351
		c0.367-0.033,0.4,0.15,0.1,0.551c-0.133,0.199-0.35,0.616-0.65,1.25c-0.167,0.399-0.333,0.566-0.5,0.5
		c-0.233-0.134-0.333-0.45-0.3-0.95C12.1,22.667,12.2,22.333,12.4,22.2z"/>
	<path style="fill-rule:evenodd;clip-rule:evenodd;fill:#FFF0B8;" d="M9.1,19.75c0.3-0.066,0.617,0.083,0.95,0.45
		c0.367,0.333,0.4,0.566,0.1,0.7c-0.3,0.133-0.65-0.017-1.05-0.45C8.7,20.05,8.7,19.816,9.1,19.75z"/>
	<path style="fill-rule:evenodd;clip-rule:evenodd;fill:#FFF0B8;" d="M43.55,26.1c0.233-0.066,0.45,0,0.65,0.2
		s0.166,0.351-0.101,0.45c-0.333,0.134-0.616,0.1-0.85-0.1C42.983,26.45,43.083,26.267,43.55,26.1z"/>
	<path style="fill-rule:evenodd;clip-rule:evenodd;fill:#D48900;" d="M43.5,24.95L44,26.1c-1.167,0-2.366-0.083-3.6-0.25
		c-10.067-1.333-15.15-2-15.25-2c-1.233-0.1-3.433-0.55-6.6-1.35l-4.35-1.15l7.25-2.25L43.5,24.95z"/>
	<path style="fill-rule:evenodd;clip-rule:evenodd;fill:#9E6500;" d="M42,25.6c-0.566-0.233-8.3-1.883-23.2-4.949L9.15,18.7
		l-0.9-0.351l-0.45-2.2l22.65,1.2l4.4,1.4l9.45,4.6l0.2,2.45C43.4,25.9,42.566,25.833,42,25.6z"/>
	<path style="fill-rule:evenodd;clip-rule:evenodd;fill:#C98000;" d="M44.3,23.35l-0.95,0.15l-10.6-3.15L7.8,16.15
		c6.767-2,12.567-3.383,17.4-4.15c3.267-0.533,5.883-0.55,7.85-0.05c1.434,0.367,2.717,1.083,3.851,2.15
		C38.2,15.3,40.667,18.384,44.3,23.35z"/>
	<path style="fill-rule:evenodd;clip-rule:evenodd;fill:#DBC674;" d="M43.4,25.8c-6.567-0.767-12.15-1.583-16.75-2.45
		c-4.533-0.866-10.367-2.416-17.5-4.649l-0.1-2.45L28.8,14.3l14.55,9.2L43.4,25.8z"/>
	<path style="fill-rule:evenodd;clip-rule:evenodd;fill:#FFEF9E;" d="M9.05,16.25c6.467-1.733,12.083-2.983,16.85-3.75
		c3.333-0.5,5.95-0.35,7.85,0.45c1.434,0.6,2.884,1.883,4.35,3.85c1.767,2.334,3.517,4.566,5.25,6.7
		c-5.566-0.967-11.7-2.066-18.399-3.3C18.883,19.1,13.583,17.783,9.05,16.25z"/>
	
		<linearGradient id="SVGID_4_" gradientUnits="userSpaceOnUse" x1="-37.334" y1="-5.0635" x2="-34.5748" y2="-5.0635" gradientTransform="matrix(-0.9514 -0.3081 0.8718 -0.7688 3.027320e-004 6.142855e-004)">
		<stop  offset="0" style="stop-color:#EDCA6B"/>
		<stop  offset="1" style="stop-color:#FFEF9E"/>
	</linearGradient>
	<path style="fill-rule:evenodd;clip-rule:evenodd;fill:url(#SVGID_4_);" d="M29.6,13.65c0.833-0.3,1.517-0.333,2.05-0.1
		c0.5,0.233,0.667,0.617,0.5,1.15c-0.2,0.6-0.417,0.983-0.65,1.15c-0.367,0.267-1.067,0.467-2.1,0.6
		c-1.233,0.167-1.95-0.067-2.15-0.7C27.083,15.05,27.867,14.35,29.6,13.65z"/>
	
		<linearGradient id="SVGID_5_" gradientUnits="userSpaceOnUse" x1="-40.4023" y1="-4.1035" x2="-39.2718" y2="-4.1035" gradientTransform="matrix(-0.9509 -0.3096 0.869 -0.7687 -3.935099e-004 1.999736e-004)">
		<stop  offset="0" style="stop-color:#EDCA6B"/>
		<stop  offset="1" style="stop-color:#FFEF9E"/>
	</linearGradient>
	<path style="fill-rule:evenodd;clip-rule:evenodd;fill:url(#SVGID_5_);" d="M33.85,14.5c0.533-0.133,1,0.067,1.4,0.6
		c0.434,0.566,0.4,1-0.1,1.3c-0.567,0.333-1.167,0.15-1.8-0.55C32.717,15.183,32.883,14.733,33.85,14.5z"/>
	
		<linearGradient id="SVGID_6_" gradientUnits="userSpaceOnUse" x1="-45.4497" y1="-6.21" x2="-44.3982" y2="-6.21" gradientTransform="matrix(-0.951 -0.3091 0.8613 -0.7716 -2.067089e-004 -1.303256e-004)">
		<stop  offset="0" style="stop-color:#EDCA6B"/>
		<stop  offset="1" style="stop-color:#FFEF9E"/>
	</linearGradient>
	<path style="fill-rule:evenodd;clip-rule:evenodd;fill:url(#SVGID_6_);" d="M36.4,17.55c0.5-0.1,1.066,0.101,1.699,0.601
		c0.7,0.533,0.801,1,0.301,1.399C37.9,19.983,37.3,19.8,36.6,19C35.9,18.167,35.833,17.684,36.4,17.55z"/>
	
		<linearGradient id="SVGID_7_" gradientUnits="userSpaceOnUse" x1="-44.7568" y1="-7.7158" x2="-43.6815" y2="-7.7158" gradientTransform="matrix(-0.9532 -0.3022 0.8764 -0.7712 -3.357530e-004 1.201332e-004)">
		<stop  offset="0" style="stop-color:#EDCA6B"/>
		<stop  offset="1" style="stop-color:#FFEF9E"/>
	</linearGradient>
	<path style="fill-rule:evenodd;clip-rule:evenodd;fill:url(#SVGID_7_);" d="M35.25,18.3c0.333,0,0.634,0.267,0.9,0.8
		c0.233,0.567,0.116,0.95-0.351,1.15c-0.533,0.2-0.95-0.083-1.25-0.85C34.283,18.634,34.517,18.267,35.25,18.3z"/>
	
		<linearGradient id="SVGID_8_" gradientUnits="userSpaceOnUse" x1="-29.4243" y1="-9.7607" x2="-28.0328" y2="-9.7607" gradientTransform="matrix(-0.9522 -0.3054 0.8669 -0.7721 3.562570e-004 1.673400e-004)">
		<stop  offset="0" style="stop-color:#C2AF67"/>
		<stop  offset="1" style="stop-color:#EBD88D"/>
	</linearGradient>
	<path style="fill-rule:evenodd;clip-rule:evenodd;fill:url(#SVGID_8_);" d="M17.85,15.55c0.967-0.233,1.783-0.117,2.45,0.35
		c0.633,0.467,0.667,0.883,0.1,1.25c-0.566,0.366-1.467,0.267-2.7-0.3C16.467,16.317,16.517,15.883,17.85,15.55z"/>
	
		<linearGradient id="SVGID_9_" gradientUnits="userSpaceOnUse" x1="-31.3647" y1="-6.6875" x2="-30.3685" y2="-6.6875" gradientTransform="matrix(-0.9536 -0.3011 0.8688 -0.7743 0 5.866885e-004)">
		<stop  offset="0" style="stop-color:#C2AF67"/>
		<stop  offset="1" style="stop-color:#EBD88D"/>
	</linearGradient>
	<path style="fill-rule:evenodd;clip-rule:evenodd;fill:url(#SVGID_9_);" d="M23.1,13.85c0.633-0.067,1.133,0,1.5,0.2
		c0.4,0.2,0.4,0.517,0,0.95c-0.467,0.433-1.05,0.367-1.75-0.2C22.15,14.267,22.233,13.95,23.1,13.85z"/>
	
		<linearGradient id="SVGID_10_" gradientUnits="userSpaceOnUse" x1="-24.7583" y1="-10.8662" x2="-23.8096" y2="-10.8662" gradientTransform="matrix(-0.9487 -0.3162 0.8642 -0.766 -1.111627e-004 9.147525e-004)">
		<stop  offset="0" style="stop-color:#C2AF67"/>
		<stop  offset="1" style="stop-color:#EBD88D"/>
	</linearGradient>
	<path style="fill-rule:evenodd;clip-rule:evenodd;fill:url(#SVGID_10_);" d="M13.6,15.25c1.233,0.433,1.383,0.833,0.45,1.2
		c-0.7,0.3-1.15,0.183-1.35-0.35C12.533,15.6,12.833,15.317,13.6,15.25z"/>
	
		<linearGradient id="SVGID_11_" gradientUnits="userSpaceOnUse" x1="-36.3726" y1="-9.4502" x2="-35.3211" y2="-9.4502" gradientTransform="matrix(-0.951 -0.3091 0.8744 -0.7673 -1.496077e-004 2.785027e-004)">
		<stop  offset="0" style="stop-color:#EDCA6B"/>
		<stop  offset="1" style="stop-color:#FFEF9E"/>
	</linearGradient>
	<path style="fill-rule:evenodd;clip-rule:evenodd;fill:url(#SVGID_11_);" d="M26,17.45c0.4,0.166,0.617,0.416,0.65,0.75
		c0.033,0.399-0.217,0.7-0.75,0.899C25.3,19.3,25,19,25,18.2C25,17.434,25.333,17.184,26,17.45z"/>
	
		<linearGradient id="SVGID_12_" gradientUnits="userSpaceOnUse" x1="-34.6167" y1="14.062" x2="-33.3907" y2="14.062" gradientTransform="matrix(-0.6321 -0.7749 1.1307 -0.196 2.151728e-005 4.364699e-004)">
		<stop  offset="0" style="stop-color:#C4A149"/>
		<stop  offset="1" style="stop-color:#DBC674"/>
	</linearGradient>
	<path style="fill-rule:evenodd;clip-rule:evenodd;fill:url(#SVGID_12_);" d="M38.1,23.45c0.067,0.5-0.017,0.833-0.25,1
		c-0.233,0.166-0.483,0.149-0.75-0.05c-0.267-0.167-0.433-0.434-0.5-0.801c-0.066-0.366-0.017-0.683,0.15-0.949
		c0.167-0.233,0.417-0.25,0.75-0.051C37.833,22.8,38.033,23.083,38.1,23.45z"/>
	
		<linearGradient id="SVGID_13_" gradientUnits="userSpaceOnUse" x1="-34.7412" y1="8.6514" x2="-33.163" y2="8.6514" gradientTransform="matrix(-0.6495 -0.7604 1.1512 -0.1919 1.174212e-004 -4.851818e-005)">
		<stop  offset="0" style="stop-color:#C4A149"/>
		<stop  offset="1" style="stop-color:#DBC674"/>
	</linearGradient>
	<path style="fill-rule:evenodd;clip-rule:evenodd;fill:url(#SVGID_13_);" d="M33.75,24.55l-4-0.6l0.75-0.7
		c0.6-0.467,1.25-0.616,1.95-0.45c0.667,0.2,1.083,0.55,1.25,1.05C33.8,24.116,33.817,24.35,33.75,24.55z"/>
	
		<use xlink:href="#flash0.ai_x5F_8_x2F_Layer_23_x2F__x3C_Path_x3E__x5F_2"  width="23.848" height="15.25" x="0.003" y="-15.25" transform="matrix(1 0 0 -1 9.6499 11.3999)" style="overflow:visible;opacity:0.4219;enable-background:new    ;"/>
	
		<use xlink:href="#flash0.ai_x5F_8_x2F_Layer_23_x2F__x3C_Path_x3E__x5F_1"  width="7.673" height="3.508" y="-3.5" transform="matrix(1 0 0 -1 32.7998 18.5996)" style="overflow:visible;opacity:0.5898;enable-background:new    ;"/>
	
		<use xlink:href="#flash0.ai_x5F_8_x2F_Layer_23_x2F__x3C_Path_x3E_"  width="13.753" height="6.251" y="-6.25" transform="matrix(1 0 0 -1 23.6499 14.3501)" style="overflow:visible;opacity:0.5898;enable-background:new    ;"/>
</g>
<use xlink:href="#flash0.ai_x5F_8_x2F_Layer_17_x2F__x3C_Path_x3E__x5F_32"  width="12.101" height="5.025" y="-5.05" transform="matrix(1 0 0 -1 17.75 9.25)" style="overflow:visible;opacity:0.5898;enable-background:new    ;"/>
<path style="fill-rule:evenodd;clip-rule:evenodd;fill:#9E6500;" d="M39,6.9l-0.85,0.65L3.5,26.45c-0.567,0.434-1.467,0.8-2.7,1.1
	L0.55,25.3L10,17.5l4.55-2.95l24.5-9.8L39,6.9z"/>
<path style="fill-rule:evenodd;clip-rule:evenodd;fill:#C98000;" d="M12.6,18.15L1.65,25.05l-1.1,0.25
	c3-5.899,5.083-9.633,6.25-11.2c1.1-1.434,2.383-2.567,3.85-3.4c2.067-1.2,4.934-2.2,8.6-3c5.433-1.167,12.033-2.15,19.8-2.95
	L12.6,18.15z"/>
<path style="fill-rule:evenodd;clip-rule:evenodd;fill:#DBC674;" d="M15.7,11.2l22-5.9l0.45,2.25c-7.4,4.8-13.5,8.467-18.3,11
	c-4.833,2.5-10.767,5.367-17.8,8.601l-0.4-2.101L15.7,11.2z"/>
<path style="fill-rule:evenodd;clip-rule:evenodd;fill:#EBD88D;" d="M37.7,5.3c-4.633,3.133-10.15,6.367-16.55,9.7
	c-7.133,3.733-13.633,7.083-19.5,10.05c1.467-2.6,2.934-5.283,4.4-8.05c1.233-2.333,2.583-4.05,4.05-5.15
	c1.867-1.467,4.683-2.6,8.45-3.4C23.917,7.283,30.3,6.233,37.7,5.3z"/>
<linearGradient id="SVGID_14_" gradientUnits="userSpaceOnUse" x1="7.1499" y1="23.127" x2="8.6499" y2="23.127">
	<stop  offset="0" style="stop-color:#C4A149"/>
	<stop  offset="1" style="stop-color:#DBC674"/>
</linearGradient>
<path style="fill-rule:evenodd;clip-rule:evenodd;fill:url(#SVGID_14_);" d="M8.25,22.4c0.533,0.433,0.567,0.85,0.1,1.25
	C7.85,24.05,7.483,24.1,7.25,23.8c-0.2-0.233-0.15-0.583,0.15-1.05C7.667,22.25,7.95,22.134,8.25,22.4z"/>
<linearGradient id="SVGID_15_" gradientUnits="userSpaceOnUse" x1="13.7876" y1="18.9639" x2="16.5126" y2="18.9639">
	<stop  offset="0" style="stop-color:#C4A149"/>
	<stop  offset="1" style="stop-color:#DBC674"/>
</linearGradient>
<path style="fill-rule:evenodd;clip-rule:evenodd;fill:url(#SVGID_15_);" d="M13.8,18.95c0.067-0.4,0.55-0.717,1.45-0.95
	c0.433-0.1,0.867-0.167,1.3-0.2l-0.15,1.05c-0.233,0.733-0.65,1.15-1.25,1.25c-0.6,0.101-1-0.066-1.2-0.5L13.8,18.95z"/>
<linearGradient id="SVGID_16_" gradientUnits="userSpaceOnUse" x1="28.4111" y1="12.2358" x2="30.0861" y2="12.2358">
	<stop  offset="0" style="stop-color:#C4A149"/>
	<stop  offset="1" style="stop-color:#DBC674"/>
</linearGradient>
<path style="fill-rule:evenodd;clip-rule:evenodd;fill:url(#SVGID_16_);" d="M29.15,11.6c1.533,0.5,1.333,0.933-0.6,1.3
	c-0.167-0.133-0.183-0.4-0.05-0.8C28.6,11.667,28.817,11.5,29.15,11.6z"/>
<use xlink:href="#flash0.ai_x5F_8_x2F_Layer_17_x2F__x3C_Path_x3E__x5F_24"  width="32.957" height="17.5" y="-17.5" transform="matrix(1 0 0 -1 5.6499 4.8999)" style="overflow:visible;opacity:0.4883;enable-background:new    ;"/>
<path style="fill-rule:evenodd;clip-rule:evenodd;fill:#FFAB0F;" d="M21.1,6.6c9.133-2.7,14.567-3.85,16.3-3.45
	c0.966,0.233,1.333,0.7,1.1,1.4c-0.233,0.6-0.733,1.117-1.5,1.55c-1.134,0.667-1.733,1.583-1.8,2.75
	c-0.033,0.566-0.35,0.983-0.95,1.25c-0.633,0.267-1.15,0.167-1.55-0.3c-0.7-0.833-2-0.55-3.9,0.85
	c-3.267,2.434-5.983,4.117-8.15,5.05c-2.367,1.033-5.267,2.416-8.7,4.149c-2.5,1.267-4.35,2.084-5.55,2.45
	c-1.066,0.334-2.3,0.867-3.7,1.601c-0.9,0.466-1.583,0.649-2.05,0.55c-0.566-0.101-0.667-0.717-0.3-1.851
	c0.333-1.066,0.717-1.733,1.15-2c0.2-0.133,0.983-1.566,2.35-4.3c1.4-2.767,2.3-4.316,2.7-4.65C7.583,10.85,12.433,9.167,21.1,6.6z"
	/>
<path style="fill-rule:evenodd;clip-rule:evenodd;fill:#FFF0B8;" d="M27.75,10.2c0.867-0.767,2-1.333,3.4-1.7
	c1.467-0.4,1.817-0.367,1.05,0.1c-4.067,2.3-6.267,3.583-6.6,3.85c-0.434,0.367-1.483,0.983-3.15,1.85
	c-1.4,0.767-2.583,1.367-3.55,1.8c-4.2,2.034-6.433,3.133-6.7,3.3c-0.833,0.533-1.817,0.733-2.95,0.6c2.267-1.233,4.233-2.233,5.9-3
	c2.467-1.067,4.867-2.217,7.2-3.45C25.083,12.117,26.883,11,27.75,10.2z"/>
<g>
	<path style="fill-rule:evenodd;clip-rule:evenodd;fill:#D48900;" d="M31.45,8.45c0.7-0.167,1.133-0.117,1.3,0.15
		c0.1,0.167,0.25,0.417,0.45,0.75c0.167,0.233,0.417,0.35,0.75,0.35c0.6,0,1.017-0.383,1.25-1.15v0.3
		c-0.033,0.566-0.35,0.983-0.95,1.25c-0.633,0.267-1.15,0.167-1.55-0.3c-0.7-0.833-2-0.55-3.9,0.85
		c-3.267,2.434-5.983,4.117-8.15,5.05c-2.367,1.033-5.267,2.416-8.7,4.149c-2.5,1.267-4.35,2.084-5.55,2.45
		c-1.066,0.334-2.3,0.867-3.7,1.601c-0.9,0.466-1.583,0.649-2.05,0.55c-0.267-0.101-0.433-0.334-0.5-0.7c0.5,0.134,1.117,0,1.85-0.4
		c0.4-0.233,0.883-0.55,1.45-0.949c0.4-0.267,1.267-0.733,2.6-1.4c1.2-0.566,3.633-1.583,7.3-3.05c3.566-1.434,5.667-2.317,6.3-2.65
		c1.233-0.633,2.85-1.533,4.85-2.7c2.267-1.367,3.8-2.367,4.6-3C29.9,8.967,30.683,8.583,31.45,8.45z"/>
	<path style="fill-rule:evenodd;clip-rule:evenodd;fill:#D48900;" d="M36,5.95c0.566-0.267,1.033-0.65,1.4-1.15
		c0.433-0.533,0.6-1.017,0.5-1.45c0.633,0.3,0.8,0.767,0.5,1.4C38.134,5.283,37.667,5.733,37,6.1c-0.9,0.566-1.45,1.2-1.65,1.9
		c-0.033-0.533-0.05-0.917-0.05-1.15C35.333,6.483,35.566,6.183,36,5.95z"/>
</g>
<path style="fill-rule:evenodd;clip-rule:evenodd;fill:#FFF0B8;" d="M33.9,7.2c0.2,0.033,0.367,0.283,0.5,0.75
	c0.1,0.466,0.05,0.783-0.15,0.95C34.083,9.067,33.867,9,33.6,8.7c-0.434-0.467-0.75-0.767-0.95-0.9
	c-0.367-0.233-0.35-0.417,0.05-0.55C33.067,7.117,33.467,7.1,33.9,7.2z"/>
<path style="fill-rule:evenodd;clip-rule:evenodd;fill:#FFF0B8;" d="M36.9,3.7c0.466-0.133,0.517,0.083,0.149,0.65
	c-0.333,0.533-0.684,0.8-1.05,0.8c-0.3,0-0.3-0.217,0-0.65C36.3,4.033,36.6,3.767,36.9,3.7z"/>
<path style="fill-rule:evenodd;clip-rule:evenodd;fill:#FFF0B8;" d="M1.35,22.6c0.533-0.033,0.683,0.084,0.45,0.351
	c-0.267,0.267-0.583,0.399-0.95,0.399c-0.3,0-0.367-0.116-0.2-0.35C0.85,22.767,1.083,22.634,1.35,22.6z"/>
<path style="fill-rule:evenodd;clip-rule:evenodd;fill:#D48900;" d="M35.85,3.8L29,8.75c-2.867,2.067-6.683,4.183-11.45,6.35
	c-1.066,0.467-2.75,1.3-5.05,2.5c-2.1,1.067-3.767,1.867-5,2.4c-2.733,1.134-5.083,2.033-7.05,2.7c1.533-1.967,3.433-3.717,5.7-5.25
	L17,8.7c2.533-0.8,5.133-1.633,7.8-2.5c5.4-1.7,8.55-2.65,9.45-2.85c1.467-0.3,2.517-0.367,3.15-0.2
	C36.9,3.217,36.384,3.433,35.85,3.8z"/>
<path style="fill-rule:evenodd;clip-rule:evenodd;fill:#9E6500;" d="M36.7,2.75L26.75,8.2c-3.833,2.133-7.7,4.283-11.6,6.45
	c-7.8,4.333-11.883,6.633-12.25,6.9c-0.566,0.434-1.45,0.8-2.65,1.101L0,20.4l9.2-7.8l4.45-2.9L37.6,0l-0.1,2.1L36.7,2.75z"/>
<path style="fill-rule:evenodd;clip-rule:evenodd;fill:#C98000;" d="M11.75,13.25l-10.7,6.9L0,20.4c2.9-5.9,4.917-9.634,6.05-11.2
	C7.117,7.767,8.367,6.633,9.8,5.8c2.034-1.2,4.833-2.183,8.4-2.95C23.533,1.717,30,0.767,37.6,0L11.75,13.25z"/>
<path style="fill-rule:evenodd;clip-rule:evenodd;fill:#DBC674;" d="M14.8,6.3l21.45-5.75l0.45,2.2
	c-7.233,4.767-13.184,8.4-17.85,10.9c-4.733,2.533-10.533,5.4-17.4,8.6l-0.4-2.1L14.8,6.3z"/>
<path style="fill-rule:evenodd;clip-rule:evenodd;fill:#FFEF9E;" d="M36.25,0.55c-4.533,3.1-9.917,6.3-16.15,9.6
	c-6.967,3.7-13.317,7.034-19.05,10c1.434-2.601,2.867-5.284,4.3-8.05c1.2-2.333,2.5-4.05,3.9-5.15c1.833-1.434,4.6-2.55,8.3-3.35
	C22.783,2.467,29.017,1.45,36.25,0.55z"/>
<linearGradient id="SVGID_17_" gradientUnits="userSpaceOnUse" x1="12.3892" y1="-6.9351" x2="15.8943" y2="-6.9351" gradientTransform="matrix(0.592 0.806 -0.806 0.592 -1.296401e-004 -1.066923e-005)">
	<stop  offset="0" style="stop-color:#EDCA6B"/>
	<stop  offset="1" style="stop-color:#FFEF9E"/>
</linearGradient>
<path style="fill-rule:evenodd;clip-rule:evenodd;fill:url(#SVGID_17_);" d="M13.8,6.05c2-0.066,2.967,0.25,2.9,0.95
	c-0.034,0.667-0.75,1.15-2.15,1.45c-1.133,0.267-1.917,0.367-2.35,0.3c-0.3-0.1-0.6-0.367-0.9-0.8c-0.3-0.4-0.2-0.817,0.3-1.25
	C12.133,6.3,12.867,6.083,13.8,6.05z"/>
<linearGradient id="SVGID_18_" gradientUnits="userSpaceOnUse" x1="12.3076" y1="-1.6719" x2="13.9326" y2="-1.6719" gradientTransform="matrix(0.6 0.8 -0.8 0.6 3.889799e-004 -2.937913e-004)">
	<stop  offset="0" style="stop-color:#EDCA6B"/>
	<stop  offset="1" style="stop-color:#FFEF9E"/>
</linearGradient>
<path style="fill-rule:evenodd;clip-rule:evenodd;fill:url(#SVGID_18_);" d="M9.45,8.4c1.066-0.133,1.333,0.217,0.8,1.05
	C9.683,10.317,9.067,10.7,8.4,10.6c-0.566-0.067-0.683-0.434-0.35-1.1C8.417,8.833,8.883,8.467,9.45,8.4z"/>
<linearGradient id="SVGID_19_" gradientUnits="userSpaceOnUse" x1="13.9707" y1="2.7178" x2="15.5257" y2="2.7178" gradientTransform="matrix(0.5948 0.8038 -0.8038 0.5948 1.029968e-004 2.757311e-004)">
	<stop  offset="0" style="stop-color:#EDCA6B"/>
	<stop  offset="1" style="stop-color:#FFEF9E"/>
</linearGradient>
<path style="fill-rule:evenodd;clip-rule:evenodd;fill:url(#SVGID_19_);" d="M7.35,12.1c0.6-0.067,0.617,0.4,0.05,1.4
	c-0.6,1-1.2,1.4-1.8,1.2c-0.6-0.167-0.583-0.633,0.05-1.4C6.217,12.6,6.783,12.2,7.35,12.1z"/>
<linearGradient id="SVGID_20_" gradientUnits="userSpaceOnUse" x1="15.168" y1="0.8911" x2="16.758" y2="0.8911" gradientTransform="matrix(0.5975 0.8019 -0.8019 0.5975 -5.203485e-005 -4.272461e-004)">
	<stop  offset="0" style="stop-color:#EDCA6B"/>
	<stop  offset="1" style="stop-color:#FFEF9E"/>
</linearGradient>
<path style="fill-rule:evenodd;clip-rule:evenodd;fill:url(#SVGID_20_);" d="M8.7,12.35c0.767-0.3,1.083-0.05,0.95,0.75
	c-0.167,0.8-0.566,1.2-1.2,1.2c-0.534,0-0.717-0.3-0.55-0.9C8.067,12.867,8.333,12.517,8.7,12.35z"/>
<linearGradient id="SVGID_21_" gradientUnits="userSpaceOnUse" x1="23.8374" y1="4.4277" x2="27.8624" y2="4.4277">
	<stop  offset="0" style="stop-color:#EDCA6B"/>
	<stop  offset="1" style="stop-color:#FFEF9E"/>
</linearGradient>
<path style="fill-rule:evenodd;clip-rule:evenodd;fill:url(#SVGID_21_);" d="M26.75,3.25c1.5-0.233,1.65,0.133,0.45,1.1
	c-1.267,1-2.217,1.433-2.85,1.3c-0.633-0.1-0.667-0.483-0.1-1.15C24.85,3.8,25.683,3.383,26.75,3.25z"/>
<linearGradient id="SVGID_22_" gradientUnits="userSpaceOnUse" x1="15.0425" y1="-13.7988" x2="16.3475" y2="-13.7988" gradientTransform="matrix(0.5939 0.8046 -0.8046 0.5939 3.491640e-004 -2.102256e-004)">
	<stop  offset="0" style="stop-color:#EDCA6B"/>
	<stop  offset="1" style="stop-color:#FFEF9E"/>
</linearGradient>
<path style="fill-rule:evenodd;clip-rule:evenodd;fill:url(#SVGID_22_);" d="M20.85,3.7c0.933-0.233,1.083,0.033,0.45,0.8
	s-1.233,1.033-1.8,0.8c-0.533-0.233-0.617-0.517-0.25-0.85C19.583,4.117,20.117,3.867,20.85,3.7z"/>
<linearGradient id="SVGID_23_" gradientUnits="userSpaceOnUse" x1="19.5317" y1="-24.1016" x2="20.8018" y2="-24.1016" gradientTransform="matrix(0.5905 0.807 -0.807 0.5905 3.945231e-004 -5.486012e-004)">
	<stop  offset="0" style="stop-color:#EDCA6B"/>
	<stop  offset="1" style="stop-color:#FFEF9E"/>
</linearGradient>
<path style="fill-rule:evenodd;clip-rule:evenodd;fill:url(#SVGID_23_);" d="M31.2,1.4c0.833-0.233,1.216-0.1,1.15,0.4
	C32.25,2.333,31.8,2.6,31,2.6c-0.7,0-0.917-0.184-0.65-0.55C30.617,1.717,30.9,1.5,31.2,1.4z"/>
<linearGradient id="SVGID_24_" gradientUnits="userSpaceOnUse" x1="17.6001" y1="-9.8311" x2="19.1001" y2="-9.8311" gradientTransform="matrix(0.6 0.8 -0.8 0.6 -1.003146e-004 1.965761e-004)">
	<stop  offset="0" style="stop-color:#EDCA6B"/>
	<stop  offset="1" style="stop-color:#FFEF9E"/>
</linearGradient>
<path style="fill-rule:evenodd;clip-rule:evenodd;fill:url(#SVGID_24_);" d="M18.45,8.1c0.7-0.533,1.117-0.434,1.25,0.3
	c0.1,0.7-0.2,1.083-0.9,1.15C18.2,9.583,17.9,9.4,17.9,9C17.9,8.667,18.083,8.367,18.45,8.1z"/>
<linearGradient id="SVGID_25_" gradientUnits="userSpaceOnUse" x1="17.6147" y1="-6.1064" x2="19.2944" y2="-6.1064" gradientTransform="matrix(0.0744 0.9972 -0.9972 0.0744 1.412779e-004 -4.807264e-004)">
	<stop  offset="0" style="stop-color:#C4A149"/>
	<stop  offset="1" style="stop-color:#DBC674"/>
</linearGradient>
<path style="fill-rule:evenodd;clip-rule:evenodd;fill:url(#SVGID_25_);" d="M6.65,18.1c0-0.333,0.15-0.649,0.45-0.949
	c0.333-0.333,0.617-0.417,0.85-0.25c0.233,0.167,0.333,0.433,0.3,0.8c0,0.333-0.117,0.633-0.35,0.899
	c-0.267,0.267-0.517,0.384-0.75,0.351C6.85,18.884,6.683,18.6,6.65,18.1z"/>
<linearGradient id="SVGID_26_" gradientUnits="userSpaceOnUse" x1="16.3638" y1="-12.1885" x2="18.2198" y2="-12.1885" gradientTransform="matrix(0.0808 0.9967 -0.9967 0.0808 2.384335e-004 -4.786998e-005)">
	<stop  offset="0" style="stop-color:#C4A149"/>
	<stop  offset="1" style="stop-color:#DBC674"/>
</linearGradient>
<path style="fill-rule:evenodd;clip-rule:evenodd;fill:url(#SVGID_26_);" d="M11.5,17.45c-0.1-0.167-0.133-0.384-0.1-0.65
	c0.1-0.533,0.5-1,1.2-1.4c0.7-0.4,1.417-0.517,2.15-0.35c0.4,0.067,0.717,0.184,0.95,0.35L11.5,17.45z"/>
<linearGradient id="SVGID_27_" gradientUnits="userSpaceOnUse" x1="8.9922" y1="-26.7676" x2="10.1216" y2="-26.7676" gradientTransform="matrix(0.0885 0.9961 -0.9961 0.0885 -2.545267e-004 3.222376e-004)">
	<stop  offset="0" style="stop-color:#C4A149"/>
	<stop  offset="1" style="stop-color:#DBC674"/>
</linearGradient>
<path style="fill-rule:evenodd;clip-rule:evenodd;fill:url(#SVGID_27_);" d="M27.95,6.35c0.5,0.033,0.566,0.283,0.2,0.75
	c-0.367,0.5-0.767,0.733-1.2,0.7c-0.4-0.033-0.434-0.3-0.1-0.8C27.183,6.533,27.55,6.317,27.95,6.35z"/>
<use xlink:href="#flash0.ai_x5F_8_x2F_Layer_17_x2F__x3C_Path_x3E__x5F_2"  width="12.139" height="2.34" x="-0.039" y="-2.34" transform="matrix(1 0 0 -1 2.7002 13.0498)" style="overflow:visible;opacity:0.4883;enable-background:new    ;"/>
<use xlink:href="#flash0.ai_x5F_8_x2F_Layer_17_x2F__x3C_Path_x3E__x5F_1"  width="20.213" height="2.833" x="-0.012" y="-2.833" transform="matrix(1 0 0 -1 6.6499 6.2002)" style="overflow:visible;opacity:0.4883;enable-background:new    ;"/>
<use xlink:href="#flash0.ai_x5F_8_x2F_Layer_17_x2F__x3C_Path_x3E_"  width="17.654" height="2.762" x="0.046" y="-2.762" transform="matrix(1 0 0 -1 18.1499 1)" style="overflow:visible;opacity:0.4883;enable-background:new    ;"/>
</svg>
