<?xml version="1.0" encoding="iso-8859-1"?>
<!-- Generator: Adobe Illustrator 15.1.0, SVG Export Plug-In . SVG Version: 6.00 Build 0)  -->
<!DOCTYPE svg PUBLIC "-//W3C//DTD SVG 1.1//EN" "http://www.w3.org/Graphics/SVG/1.1/DTD/svg11.dtd">
<svg version="1.1" id="Layer_1" xmlns="http://www.w3.org/2000/svg" xmlns:xlink="http://www.w3.org/1999/xlink" x="0px" y="0px"
	 width="59.4px" height="50.5px" viewBox="0 0 59.4 50.5" style="enable-background:new 0 0 59.4 50.5;" xml:space="preserve">
<symbol  id="spottyguava2l" viewBox="0 -591.271 384.228 591.271">
	<g id="Layer_3_1_">
		<g>
			<path style="fill-rule:evenodd;clip-rule:evenodd;fill:#804E29;" d="M142.9-172c-4.258,4.845-8.091,9.045-11.5,12.6
				c0.239,9.61-0.128,18.777-1.1,27.5c-0.498,4.396-1.148,8.679-1.95,12.85c-1.159,6.069-2.709,12.119-4.65,18.15
				c-0.749,2.336-1.557,4.669-2.425,7c-1.525,4.109-3.233,8.209-5.125,12.3c-2.6,5.633-8.05,15.883-16.35,30.75
				C92.934-38.55,87.967-28.267,84.9-20v18c0.667-1,2-2.934,4-5.8c1.867-2.733,3.2-4.8,4-6.2c1.8,0.6,4.017,2.434,6.65,5.5
				c4.5,5.233,6.95,8.066,7.35,8.5c-2.934-14.767-1.566-29.25,4.1-43.45c3.867-9.733,11.167-21.917,21.9-36.55
				c2.478-3.399,4.778-8.033,6.9-13.9c0.778-2.166,1.528-4.499,2.25-7c1.449-4.944,2.799-10.544,4.05-16.8
				c1.19-5.916,2.156-10.649,2.9-14.2c0.563-2.717,0.997-4.742,1.3-6.075c-2.614-2.212-4.04-5.171-4.275-8.875
				C145.083-161.631,144.041-170.015,142.9-172z"/>
			<linearGradient id="SVGID_1_" gradientUnits="userSpaceOnUse" x1="43.8418" y1="-270.6523" x2="349.6606" y2="-494.6107">
				<stop  offset="0" style="stop-color:#B5C05F"/>
				<stop  offset="0.4" style="stop-color:#878525"/>
				<stop  offset="1" style="stop-color:#526217"/>
			</linearGradient>
			<path style="fill-rule:evenodd;clip-rule:evenodd;fill:url(#SVGID_1_);" d="M150.3-137.975c6.781,5.777,21.582,6.535,44.4,2.275
				c-5.2-3.271-7.8-6.372-7.8-9.3c0-3.967,2.667-6.95,8-8.95c3.6-1.367,7.267-2.05,11-2.05c4.4,0,8.717,1.333,12.95,4
				c1.751,1.085,3.126,2.136,4.125,3.15c0.006-0.003,0.014-0.003,0.025,0c4.856-3.052,9.756-6.135,14.7-9.25l-3.75,2.2l4.65-32.9
				h-0.025c2.556-2.831,5.348-6.04,8.375-9.625c0.481-6.794,4.464-11.969,11.95-15.525c0.399-0.191,0.799-0.375,1.2-0.55
				c0.067-0.084,0.134-0.167,0.2-0.25c4.364-5.478,8.915-11.687,13.65-18.625c3.518-0.999,6.501-2.541,8.95-4.625
				c5.333-4.533,8-11.533,8-21c0-0.338,0-0.672,0-1c3.358-5.604,6.792-11.521,10.3-17.75c0.534-0.944,1.067-1.895,1.6-2.85
				c1.019,1.458,2.011,2.816,2.975,4.075c2.249,0.35,4.957,0.525,8.125,0.525c1.9,0,4.566-0.683,8-2.05
				c2.522-0.983,4.938-2.15,7.25-3.5c8.833-4.6,14.45-11.567,16.85-20.9c1.533-5.966-0.017-11.066-4.65-15.3
				c-0.534-0.5-1.067-1-1.6-1.5c-2.364-1.833-4.981-2.75-7.85-2.75c-2.332,0-4.766,0.192-7.3,0.575
				c3.396-6.651,6.854-13.542,10.375-20.675c0.889-1.801,1.739-3.601,2.55-5.4c0.469-1.034,0.928-2.067,1.375-3.1
				c0.425,0.787,0.875,1.586,1.35,2.4c0.895,1.535,1.778,2.943,2.65,4.225c0.367,0.218,0.733,0.435,1.1,0.65
				c6,4.517,12.35,5.742,19.05,3.675c1.633-0.467,2.9-1.467,3.8-3c3.1-5.267,4.566-11.05,4.4-17.35c-0.1-4.2-0.6-8.4-1.5-12.6
				c-1.4-6.533-5.55-10.25-12.45-11.15c-2.9-0.5-5.7-0.4-8.4,0.3l1.95-18.4l9.6-5.75c-2.267-4.333-4.433-9.133-6.5-14.4
				c-0.2-0.467-0.55-0.833-1.05-1.1c-1.033-0.467-2.133-0.733-3.3-0.8c-4.667-26.9-15.517-51.133-32.55-72.7
				c-13.267-16.767-28.517-31.533-45.75-44.3c-25.966-19.233-54.983-30.184-87.05-32.85c-28.733-2.1-56.567,2.05-83.5,12.45
				c-23.7,9.066-42.817,24.066-57.35,45c-6.2,8.9-11.283,18.333-15.25,28.3c-3.533,8.867-6.4,17.983-8.6,27.35
				c-1.767,7.4-3.117,14.967-4.05,22.7c-0.567,4.633-1.034,9.267-1.4,13.9c1.1,1.3,1.683,3.35,1.75,6.15
				c0.033,2.2,0.233,4.383,0.6,6.55c1.034,6.167-0.866,11.367-5.7,15.6c-0.3,28.867,4.233,57,13.6,84.4
				c0.533,1.6,0.4,3.217-0.4,4.85c-1.366,2.867-3.4,5.2-6.1,7l9.5,38.35c0.126,0.32,0.251,0.637,0.375,0.95
				c15.271,38.667,32.296,72.134,51.075,100.4c19.288,16.142,35.821,17.292,49.6,3.45c-2.038-0.649-4.555-1.249-7.55-1.8
				c-10.667-1.934-16.65-3.217-17.95-3.85c0.833,0,1.417-0.333,1.75-1c0.167-0.333,0.25-0.667,0.25-1c3.1-0.233,5.85-1.55,8.25-3.95
				c1.833-1.867,3.083-3.883,3.75-6.05c-0.167-0.1-2.717-1.25-7.65-3.45c-3.034-1.333-5.15-2.85-6.35-4.55h2
				c2.934,0,6.65-0.667,11.15-2s7.45-2,8.85-2c3.733,0,7.167,1.65,10.3,4.95c1.656,1.717,3.964,4.409,6.925,8.075
				c0.25,0.316,0.508,0.642,0.775,0.975c1.141,1.985,2.182,10.369,3.125,25.15C146.261-143.146,147.686-140.188,150.3-137.975z
				 M139.2-207.35c-0.066,0-0.083,0.05-0.05,0.15c-0.033-0.033-0.066-0.066-0.1-0.1C139.05-207.367,139.101-207.383,139.2-207.35z
				 M188.2-315c-0.066-0.1-0.083-0.15-0.05-0.15c0.033-0.033,0.05-0.017,0.05,0.05C188.2-315.067,188.2-315.033,188.2-315z"/>
			<path style="fill-rule:evenodd;clip-rule:evenodd;fill:#646E1B;" d="M131.4-159.4c3.409-3.555,7.242-7.755,11.5-12.6
				c-0.267-0.333-0.525-0.659-0.775-0.975c-2.961-3.666-5.269-6.358-6.925-8.075c-3.133-3.3-6.566-4.95-10.3-4.95
				c-1.4,0-4.35,0.667-8.85,2s-8.216,2-11.15,2h-2c1.2,1.7,3.316,3.217,6.35,4.55c4.933,2.2,7.483,3.35,7.65,3.45
				c-0.667,2.167-1.917,4.183-3.75,6.05c-2.4,2.4-5.15,3.717-8.25,3.95c0,0.333-0.083,0.667-0.25,1c-0.333,0.667-0.917,1-1.75,1
				c1.3,0.633,7.283,1.917,17.95,3.85c2.995,0.551,5.512,1.151,7.55,1.8C129.359-157.31,130.359-158.326,131.4-159.4z M237.7-158.1
				c6.762-5.894,13.629-12.119,20.6-18.675l35.35-35.275c3.668-3.861,7.359-7.802,11.075-11.825
				c-1.317-0.483-2.625-0.992-3.925-1.525c-2.233-0.9-4-2.317-5.3-4.25c-3.8-5.733-3.067-10.917,2.2-15.55
				c6-5.267,12.917-7.433,20.75-6.5l10.7-29.85c-2.312,1.35-4.728,2.517-7.25,3.5c-3.434,1.367-6.1,2.05-8,2.05
				c-3.168,0-5.876-0.175-8.125-0.525c-0.964-1.259-1.956-2.617-2.975-4.075c-0.533,0.956-1.066,1.906-1.6,2.85
				c-3.508,6.229-6.941,12.146-10.3,17.75c0,0.328,0,0.662,0,1c0,9.467-2.667,16.467-8,21c-2.449,2.084-5.433,3.626-8.95,4.625
				c-4.735,6.938-9.286,13.147-13.65,18.625c-0.065,0.083-0.132,0.166-0.2,0.25c-0.401,0.175-0.801,0.358-1.2,0.55
				c-7.486,3.556-11.469,8.731-11.95,15.525c-3.027,3.585-5.819,6.794-8.375,9.625h0.025l-4.65,32.9L237.7-158.1z M339.75-319.25
				l4.25-24.075c-0.367-0.215-0.733-0.432-1.1-0.65c-0.872-1.282-1.755-2.69-2.65-4.225c-0.475-0.813-0.925-1.613-1.35-2.4
				c-0.447,1.033-0.906,2.066-1.375,3.1c-0.811,1.799-1.661,3.599-2.55,5.4c-3.521,7.133-6.979,14.024-10.375,20.675
				c2.534-0.383,4.968-0.575,7.3-0.575C334.77-322,337.387-321.083,339.75-319.25z"/>
			<path style="fill-rule:evenodd;clip-rule:evenodd;fill:#9B9F3F;" d="M194.7-135.7l28.3-13.15c-0.011-0.003-0.019-0.003-0.025,0
				c-0.999-1.014-2.374-2.064-4.125-3.15c-4.233-2.667-8.55-4-12.95-4c-3.733,0-7.4,0.683-11,2.05c-5.333,2-8,4.983-8,8.95
				C186.9-142.072,189.5-138.972,194.7-135.7z"/>
			<path style="fill-rule:evenodd;clip-rule:evenodd;fill:#526217;" d="M344-343.325l-4.25,24.075c0.533,0.5,1.066,1,1.6,1.5
				c4.633,4.233,6.183,9.333,4.65,15.3c-2.4,9.333-8.017,16.3-16.85,20.9l-10.7,29.85c-7.833-0.933-14.75,1.233-20.75,6.5
				c-5.267,4.633-6,9.817-2.2,15.55c1.3,1.933,3.066,3.35,5.3,4.25c1.3,0.533,2.608,1.042,3.925,1.525
				c6.816-7.45,13.825-15.142,21.025-23.075c8.833-9.667,16.95-19.917,24.35-30.75c1.733-2.533,3.3-5.167,4.7-7.9
				c5.767-11.4,11.167-22.967,16.2-34.7c3.566-8.3,6.283-16.883,8.15-25.75c2.7-12.934,4.316-26.017,4.85-39.25
				c0.466-11.6,0.216-23.217-0.75-34.85c-1-11.934-2.733-23.733-5.2-35.4c-2.5-11.833-6.066-23.333-10.7-34.5
				c-4.7-11.233-10.833-21.617-18.4-31.15c-8.167-10.333-17.633-19.316-28.4-26.95c-9.667-6.867-19.783-12.95-30.35-18.25
				c-11.966-5.934-24.35-10.783-37.15-14.55c-11.966-3.533-24.167-6.15-36.6-7.85c-13.133-1.8-26.35-2.617-39.65-2.45
				c-10.733,0.133-21.4,0.9-32,2.3c-12.2,1.567-24.35,3.9-36.45,7c-8.5,2.233-16.7,5.117-24.6,8.65
				c-11.833,5.367-22.2,12.8-31.1,22.3c-8.833,9.467-16.217,19.917-22.15,31.35c-5.867,11.267-10.75,22.967-14.65,35.1
				c-3.967,12.3-7.184,24.8-9.65,37.5c-1.4,7.167-2.45,14.4-3.15,21.7c-1.2,12.733-2.017,25.483-2.45,38.25
				c-0.367,10.067-0.05,20.067,0.95,30c0.733,7.567,1.883,14.983,3.45,22.25c2.767,12.667,5.917,25.233,9.45,37.7
				c3.467,12.367,7.767,24.367,12.9,36l-9.5-38.35c2.7-1.8,4.733-4.133,6.1-7c0.8-1.633,0.934-3.25,0.4-4.85
				c-9.367-27.4-13.9-55.533-13.6-84.4c4.833-4.233,6.733-9.433,5.7-15.6c-0.366-2.167-0.566-4.35-0.6-6.55
				c-0.067-2.8-0.65-4.85-1.75-6.15c0.366-4.633,0.833-9.267,1.4-13.9c0.933-7.733,2.283-15.3,4.05-22.7
				c2.2-9.367,5.067-18.483,8.6-27.35c3.967-9.967,9.05-19.4,15.25-28.3c14.533-20.934,33.65-35.934,57.35-45
				c26.933-10.4,54.767-14.55,83.5-12.45c32.066,2.667,61.083,13.617,87.05,32.85c17.233,12.767,32.483,27.533,45.75,44.3
				c17.034,21.567,27.883,45.8,32.55,72.7c1.167,0.066,2.267,0.333,3.3,0.8c0.5,0.267,0.85,0.633,1.05,1.1
				c2.067,5.267,4.233,10.067,6.5,14.4l-9.6,5.75l-1.95,18.4c2.7-0.7,5.5-0.8,8.4-0.3c6.9,0.9,11.05,4.617,12.45,11.15
				c0.9,4.2,1.4,8.4,1.5,12.6c0.167,6.3-1.3,12.083-4.4,17.35c-0.9,1.533-2.167,2.533-3.8,3
				C356.351-337.583,350-338.808,344-343.325z"/>
			<path style="fill-rule:evenodd;clip-rule:evenodd;fill:#ADBC5B;" d="M188.2-315c0-0.033,0-0.067,0-0.1
				c0-0.066-0.017-0.083-0.05-0.05C188.117-315.15,188.134-315.1,188.2-315z M139.2-207.35c-0.1-0.033-0.15-0.017-0.15,0.05
				c0.034,0.033,0.067,0.066,0.1,0.1C139.117-207.3,139.134-207.35,139.2-207.35z"/>
		</g>
	</g>
	<g id="guavaspots_1_">
		<g>
			<path style="fill-rule:evenodd;clip-rule:evenodd;fill:#814B1B;" d="M357.5-289.3l14.25-30.7h-4.85l-7.3,8.95
				c-4.633,5.933-5.8,12.417-3.5,19.45C356.367-290.767,356.833-290,357.5-289.3z M325.9-334.65c2.367-9-0.183-16.417-7.65-22.25
				c-2.667-2.067-5.583-2.9-8.75-2.5c-0.833,0-1.7,0.2-2.6,0.6c-7.6,3.333-13.283,8.517-17.05,15.55
				c-1.333,2.467-1.167,4.75,0.5,6.85c5.433,6.933,12.617,10.283,21.55,10.05c3.533-0.1,7.067-0.566,10.6-1.4
				c0.6-0.233,1.25-0.317,1.95-0.25L325.9-334.65z M326.45-322.1c-8.967,1.333-17.25,4.3-24.85,8.9
				c-6.833,4.133-9.333,9.85-7.5,17.15c0.433,1.767,1.117,3.433,2.05,5c2.1,3.5,4.317,6.983,6.65,10.45l3,4.05
				c12.867,1.433,24.05-2.7,33.55-12.4c5.9-6,8.1-13.066,6.6-21.2c-0.333-1.7-1-3.267-2-4.7
				C339.75-320.883,333.917-323.3,326.45-322.1z M333.05-367.15c0.9,5.867,2.85,11.383,5.85,16.55
				c3.2,6.733,8.717,10.717,16.55,11.95c7.133,1.2,11.633-1.75,13.5-8.85c2.1-7.967,2.417-16.033,0.95-24.2
				c-1.333-7.6-6-11.667-14-12.2c-9.033-0.434-16.183,3.117-21.45,10.65C333.183-371.417,332.717-369.383,333.05-367.15z
				 M187.25-145c0.2,2.933,1.533,5.233,4,6.9c1.167,0.8,2.317,1.6,3.45,2.4c10.433-1.733,19.867-6.117,28.3-13.15
				c-3.1-2.8-6.617-4.85-10.55-6.15c-2.2-0.633-4.383-0.967-6.55-1c-7.9-0.433-13.9,2.4-18,8.5
				C187.4-146.767,187.183-145.933,187.25-145z M258.3-176.8l35.35-35.25c-8.933-6.4-18.8-7.833-29.6-4.3
				c-5.466,1.767-9.933,4.833-13.4,9.2c-3.133,3.933-4.217,8.417-3.25,13.45C248.767-186.667,252.4-181.033,258.3-176.8z
				 M293.55-233.8c1,3.933,3.417,6.733,7.25,8.4c1.3,0.533,2.617,1.033,3.95,1.5l6.2-8.1l14.65-15.05
				c-4.1-4.833-9.417-6.417-15.95-4.75c-5.933,1.5-10.75,4.633-14.45,9.4C293.267-239.867,292.717-237,293.55-233.8z M260.9-232.1
				c10.434,1.1,18.85-2.233,25.25-10c1.767-2.167,3.033-4.6,3.8-7.3c2.233-7.767,1.45-14.85-2.35-21.25
				c-0.434-0.7-1.05-1.2-1.85-1.5c-6.633-2.167-13.417-2.55-20.35-1.15c-7.6,1.367-14.267,4.566-20,9.6
				c-3.4,2.967-5.55,6.667-6.45,11.1c-1.333,6.5,0.583,11.417,5.75,14.75C249.7-234.65,255.1-232.733,260.9-232.1z M279.15-466.25
				c3.367,3.733,7.317,6.7,11.85,8.9l9.8-6.1c-0.533-7.633-4.316-12.917-11.35-15.85c-1.767-0.767-3.567-0.833-5.4-0.2
				c-5.5,1.867-7.566,5.45-6.2,10.75C278.083-467.817,278.517-466.983,279.15-466.25z M102.9-442l17.25-3.05
				c0.934-2.167,1.083-4.367,0.45-6.6c-0.733-2.667-2.434-4.417-5.1-5.25c-8.7-2.667-17.567-3.7-26.6-3.1v12
				c0.367,0.333,0.717,0.667,1.05,1C93.417-443.333,97.733-441.667,102.9-442z M120.65-464.95c6.633-0.6,12.283-3.15,16.95-7.65
				c0.433-0.433,0.867-0.9,1.3-1.4c-6.633-8.067-15.017-11.983-25.15-11.75c-2.8,0.467-5.067,1.917-6.8,4.35
				c-1.633,2.233-2.917,4.583-3.85,7.05C108.1-470.15,113.95-467.017,120.65-464.95z M24.85-468.45l14.55-4.75
				c3.033-1.966,4.917-4.966,5.65-9c0.633-3.433,0.017-6.466-1.85-9.1c-0.133-0.2-0.233-0.434-0.3-0.7
				c-4.8-0.467-9.217,0.55-13.25,3.05c-0.5,0.3-0.983,0.617-1.45,0.95L23-473.35L24.85-468.45z M48.9-468l0.95,3.65l0.9,1.8
				c6.633,4,12.383,3.066,17.25-2.8c1.633-1.967,2.6-4.183,2.9-6.65c-4.533,0.3-9.05,0.717-13.55,1.25
				c-0.867,0.233-1.717,0.567-2.55,1C52.933-468.65,50.967-468.067,48.9-468z M74.75-486.7c8.4-0.7,15.65-3.783,21.75-9.25
				c1.533-1.367,2.35-3.05,2.45-5.05c0.2-3.233-0.5-6.217-2.1-8.95c-4.833-4.7-10.367-5.333-16.6-1.9
				c-1.967,1.067-3.867,2.067-5.7,3c-5.033,2.7-7.367,6.767-7,12.2c0.133,2.167,0.967,4.066,2.5,5.7
				C71.483-489.417,73.05-488,74.75-486.7z M126.9-508.25c0.533,3.733,2.033,7.033,4.5,9.9c7.4,5.1,15.15,5.583,23.25,1.45
				c3.167-1.633,5.383-4.067,6.65-7.3c2.167-5.5,2.1-10.833-0.2-16c-0.833-1.833-2.2-3.116-4.1-3.85
				c-9.333-3.5-18.117-2.733-26.35,2.3c-0.833,0.5-1.467,1.2-1.9,2.1C126.983-516.05,126.367-512.25,126.9-508.25z M360.45-407.6
				c-1.5-2.333-2.684-5.15-3.55-8.45c-0.5-1.833-1.25-3.55-2.25-5.15c-1.1-1.8-2.767-2.816-5-3.05c-4.967-0.8-8.816,0.6-11.55,4.2
				c-0.867,1.133-1.267,2.483-1.2,4.05c0.934,5.367,3.983,9.233,9.15,11.6c1.7,0.767,3.3,1.617,4.8,2.55L360.45-407.6z"/>
			<path style="fill-rule:evenodd;clip-rule:evenodd;fill:#9E5223;" d="M324.8-393.9c-3.7-4.3-8.383-5.367-14.05-3.2
				c-1.033,0.4-2.133,0.733-3.3,1L306.9-386l8.05,7.15l4.1-0.85c5.1-1.966,7.55-5.45,7.35-10.45
				C326.333-391.483,325.8-392.733,324.8-393.9z M184.9-171l3.25,5l1.65,0.6c10.3,2.867,19.983,1.6,29.05-3.8
				c0.967-0.6,1.633-1.5,2-2.7c1.6-5.333,0-8.533-4.8-9.6c-1.566-0.4-3.183-0.383-4.85,0.05c-8.9,1.867-17.3,4.983-25.2,9.35
				C185.567-171.833,185.2-171.467,184.9-171z M228-224.75c-1.233-4.6-4.367-6.933-9.4-7c-6.667-0.633-13.317-0.283-19.95,1.05
				c-6.5,1.3-10.833,4.983-13,11.05c-0.733,2.1-0.867,4.283-0.4,6.55c1.133,5.533,4.35,9.617,9.65,12.25c3.3,1.7,6.633,3.35,10,4.95
				c6.8,3.267,12.8,1.9,18-4.1C228.767-207.2,230.467-215.45,228-224.75z M221.75-268.8c6.433,1.966,11.617,0.5,15.55-4.4
				c0.833-1,1.317-2.133,1.45-3.4c0.133-1.1,0.183-2.233,0.15-3.4c-4.267-0.9-8.117-2.9-11.55-6c-3.833,0.467-5.934,2.733-6.3,6.8
				c-0.267,3-0.15,6.15,0.35,9.45C221.433-269.417,221.55-269.1,221.75-268.8z M242.6-291.45c1.833,2.267,4.267,3.417,7.3,3.45
				c9.333,0.8,16.417-2.55,21.25-10.05c0.9-1.434,1.633-2.983,2.2-4.65c2.467-7.333,2.2-14.45-0.8-21.35
				c-0.867-1.934-2.15-3.417-3.85-4.45c-7.7-4.633-16.083-6.433-25.15-5.4c-2.233,0.133-4.35,0.55-6.35,1.25
				c-4.733,1.767-7.35,5.217-7.85,10.35c-1,10.066,2.1,18.85,9.3,26.35C240.05-294.517,241.367-293.017,242.6-291.45z M217.15-366
				c-0.1,1.167,0.067,2.233,0.5,3.2c2.133,4.833,5.133,9.083,9,12.75l14.3-3.9l12.75,8.8c2.033-1.467,3.533-3.35,4.5-5.65
				c1.3-2.967,2.2-6.034,2.7-9.2H247c3.6-7.333,1.85-13.117-5.25-17.35c-5.933-3.633-11.8-3.583-17.6,0.15
				C219.95-374.5,217.617-370.767,217.15-366z M270.8-364.3c11.167,1.4,20.25-2.167,27.25-10.7c1.5-1.8,2.317-3.95,2.45-6.45
				c0.267-4.867-0.717-9.566-2.95-14.1c-0.367-0.7-0.566-1.367-0.6-2c-9.4-1.833-17.467,0.733-24.2,7.7
				c-1.9,1.934-2.95,4.317-3.15,7.15C269.133-376.533,269.533-370.4,270.8-364.3z M295-418.6c8.8,5.667,18.233,7.6,28.3,5.8
				c5.067-0.967,8.083-4.017,9.05-9.15c0.233-1.333,0.417-2.683,0.55-4.05c-0.066-9.167-3.917-16.017-11.55-20.55
				c-1.7-1-3.517-1.483-5.45-1.45c-10.7,1.067-18.066,6.55-22.1,16.45c-0.8,1.933-1.066,3.983-0.8,6.15
				C293.3-422.967,293.967-420.7,295-418.6z M253.55-428.6c8.233-3.066,15.6-7.467,22.1-13.2c1.2-1.1,1.55-2.417,1.05-3.95
				c-2.2-6.933-6.983-11.35-14.35-13.25c-6.6-1.7-13.1-1.383-19.5,0.95c-6.1,4-7.367,9.383-3.8,16.15
				c2.267,4.333,5.5,7.783,9.7,10.35C250.317-430.55,251.917-429.567,253.55-428.6z M245-421.25c-0.433-1.033-1.233-1.7-2.4-2
				c-8.333-2.167-15.333-0.2-21,5.9c-0.333,0.367-0.567,0.817-0.7,1.35c0.9,5.933,3.05,11.45,6.45,16.55
				c0.367,0.5,0.733,0.983,1.1,1.45c5.566,0.733,10.6-0.367,15.1-3.3c0.7-0.434,1.217-1.083,1.55-1.95
				C247.533-409.35,247.5-415.35,245-421.25z M180.95-429.95c5.1-5.667,5.316-11.35,0.65-17.05c-0.867-1.067-1.934-1.817-3.2-2.25
				c-6.8-2.2-12.167-0.583-16.1,4.85c-0.933,1.267-1.3,2.733-1.1,4.4c0.667,5.8,3.85,9.633,9.55,11.5
				C174.383-427.333,177.783-427.817,180.95-429.95z M162.9-482l18.25,18.2c9.8,2.933,19.783,4.033,29.95,3.3
				c7.8-0.667,11.717-4.9,11.75-12.7c-13.533-11.3-28.9-16.767-46.1-16.4c-3.367,0.5-6.533,1.733-9.5,3.7
				C165.583-484.833,164.133-483.533,162.9-482z M228.9-492c-0.9,5.6,1.033,10.317,5.8,14.15c1.4,1.133,2.783,2.283,4.15,3.45
				l22.05-1.6c-0.733-9.767-5.816-16.183-15.25-19.25c-1.5-0.567-3.083-0.817-4.75-0.75c-4,0.033-7.667,1.117-11,3.25
				C229.533-492.517,229.2-492.267,228.9-492z M80.45-423.1c0.566-2.667-0.05-4.833-1.85-6.5c-1.367-1.3-3.05-2.133-5.05-2.5
				c-7.267-0.9-13.233,1.35-17.9,6.75c-0.7,0.833-0.9,1.833-0.6,3c1.1,4.2,3.784,7.1,8.05,8.7L76.9-412
				C78.433-415.633,79.617-419.333,80.45-423.1z M18.9-434l0.55,3.5c8.566-1.367,15.316-5.333,20.25-11.9
				c0.566-0.733,0.883-1.6,0.95-2.6c0.1-2.333-0.45-4.55-1.65-6.65c-7.4,0.2-13.367,3.667-17.9,10.4
				C19.633-439.117,18.9-436.7,18.9-434z M2.55-425.4L0-387.1c8.733-4.5,14.367-11.133,16.9-19.9l-1.95-16.25
				C11.483-425.583,7.35-426.3,2.55-425.4z"/>
			<path style="fill-rule:evenodd;clip-rule:evenodd;fill:#A8632E;" d="M131.5-237.3c2.267-6.2,1.633-12.067-1.9-17.6
				c-1-1.567-2.5-2.65-4.5-3.25c-7.5-2.267-15.184-2.6-23.05-1c-7.167,1.367-11.9,5.483-14.2,12.35c-1.133,3.3-1.167,6.583-0.1,9.85
				c6.4,5.633,13.783,8.617,22.15,8.95c7.7,0.933,14.217-1.1,19.55-6.1C130.383-234.967,131.067-236.033,131.5-237.3z M146.9-208
				l20-2v-10c-3.667-4.4-8.183-6.3-13.55-5.7c-3.233,0.434-6.05,1.667-8.45,3.7L146.9-208z M116.9-206v-10l-16.05,0.35l-1.85,6.9
				l9.2,6.25L116.9-206z M88.25-205.8c1.1-5.867-1.15-10.184-6.75-12.95c-8.033-4-16.233-4.417-24.6-1.25l2.95,5.35L71-201.95
				c5.5,0.767,10.667,0.167,15.5-1.8C87.467-204.083,88.05-204.767,88.25-205.8z M86.9-295c-0.2-6.767-3.25-10.917-9.15-12.45
				c-0.867-0.2-1.783-0.216-2.75-0.05c-5.233,1-8.45,3.867-9.65,8.6c-0.267,1.167-0.05,2.316,0.65,3.45
				c2.267,3.733,5.267,6.85,9,9.35c5.767-0.5,9.667-3.217,11.7-8.15C86.8-294.483,86.867-294.733,86.9-295z M107.6-277.95
				c5,4.233,10.767,6.833,17.3,7.8c9.2,1.133,17.767-0.483,25.7-4.85c6.566-3.7,10.517-9.233,11.85-16.6
				c0.433-2.367,0.583-4.833,0.45-7.4c-1.333-12-6.85-21.35-16.55-28.05c-1.267-0.833-2.733-1.067-4.4-0.7
				c-12.667,3.067-23.217,9.767-31.65,20.1c-5.066,6.233-7.4,13.267-7,21.1C103.467-283.117,104.9-280.25,107.6-277.95z M33.9-258.4
				c3.5,8.4,9.833,12.65,19,12.75c4.467,0.033,8.833-0.684,13.1-2.15c2-0.733,3.233-2.233,3.7-4.5
				c2.267-11.167,0.5-21.684-5.3-31.55c-1.967-3.333-4.533-6.133-7.7-8.4c-6.467-4.7-13.25-5.05-20.35-1.05
				c-4.3,2.433-7.15,5.966-8.55,10.6c-1.033,3.4-1.017,6.817,0.05,10.25C29.383-267.55,31.4-262.867,33.9-258.4z M48.5-316.4
				c10.7,3.467,21.3,3.233,31.8-0.7c1.833-0.633,3.383-1.617,4.65-2.95c5.5-8.367,7.517-17.733,6.05-28.1
				c-0.6-4.233-2-8.05-4.2-11.45c-4.2-6.5-10.3-9.283-18.3-8.35c-11.867,1.1-20.983,6.483-27.35,16.15
				c-0.867,1.333-1.4,2.783-1.6,4.35c-0.767,6-0.133,11.883,1.9,17.65C43.15-324.933,45.5-320.467,48.5-316.4z M18.95-331.65
				c-2.867-1.167-5.85-0.9-8.95,0.8c-1.567,0.934-2.917,2.133-4.05,3.6l8.25,30.1c6.6-2.967,10-7.85,10.2-14.65
				c0.033-0.6-0.05-1.217-0.25-1.85C22.283-319.683,20.55-325.683,18.95-331.65z M39.8-388.75c1.733,0.7,3.434,0.9,5.1,0.6
				c8.567-2.067,13.184-7.35,13.85-15.85c0.533-6.5-2.25-10.417-8.35-11.75c-7.533-1.633-14.183-0.317-19.95,3.95
				c-1.233,0.966-2.117,2.3-2.65,4c-2.033,6.333-0.333,11.417,5.1,15.25C35.133-390.983,37.433-389.717,39.8-388.75z M32.9-388h-10
				c-7.066,4.333-10.283,10.517-9.65,18.55c0.233,2.833,0.767,5.617,1.6,8.35l6,13c6.033,1.067,10.8-0.583,14.3-4.95
				c0.767-0.967,1.2-2.083,1.3-3.35C37.317-367.067,36.133-377.6,32.9-388z M108.25-340.1c12.033-0.6,22.85-4.617,32.45-12.05
				c5.233-4.067,6.783-9.067,4.65-15c-0.333-0.967-0.833-1.867-1.5-2.7c-5.867-6.933-13.083-9.983-21.65-9.15
				c-1.367-0.1-2.7,0.017-4,0.35c-9.167,2.667-15.434,8.283-18.8,16.85c-0.467,1.233-0.483,2.55-0.05,3.95
				c0.167,0.567,0.316,1.133,0.45,1.7c1.333,5.3,3.684,10.1,7.05,14.4C107.283-341.183,107.75-340.633,108.25-340.1z M113.5-383.75
				c0.833,0.633,1.817,0.983,2.95,1.05c8.233,1.133,15.733-0.633,22.5-5.3c8.7-7.5,12-17.067,9.9-28.7
				c-1.367-7.533-5.6-12.566-12.7-15.1c-6.566-2.3-13.233-2.617-20-0.95c-6.467,1.433-11.85,4.667-16.15,9.7
				c-4.767,5.633-6.083,12.017-3.95,19.15c1.5,5,4.184,9.183,8.05,12.55C107.133-388.683,110.267-386.15,113.5-383.75z M201.1-292
				h11.8l4-12c-3.6-5.2-8.333-7.833-14.2-7.9c-5.133,0.467-8.233,3.066-9.3,7.8c-0.6,2.7-0.05,5.133,1.65,7.3
				C196.617-294.767,198.633-293.167,201.1-292z M175.3-265.8c-0.367,2.3-0.466,4.6-0.3,6.9l3.2,2.15l12.75,7.1
				c9.966-1.333,17.617-5.883,22.95-13.65c0.5-0.767,0.817-1.667,0.95-2.7c0.767-6.8-1.233-12.217-6-16.25c-1.2-1-2.6-1.567-4.2-1.7
				c-11.566-1.2-20.5,2.75-26.8,11.85C176.517-270.233,175.667-268.133,175.3-265.8z M212.75-345.95
				c-1.633-3.167-4.233-5.05-7.8-5.65c-7.7-1.267-15.167-0.633-22.4,1.9c-2.333,0.8-4.183,2.184-5.55,4.15
				c-3.367,4.833-4.667,10.216-3.9,16.15c5.9,6.933,13.2,11.217,21.9,12.85c1.4,0.267,2.85,0.35,4.35,0.25
				c9.933-1.534,15.217-7.483,15.85-17.85C215.467-338.35,214.65-342.283,212.75-345.95z M181.3-362.9
				c13.833-2.434,23.317-10,28.45-22.7c0.567-1.367,0.85-2.833,0.85-4.4c-0.033-8.567-4.05-14.667-12.05-18.3
				c-9.1-4.1-18.466-4.767-28.1-2c-8.733,2.6-13.233,8.367-13.5,17.3c-0.4,12.833,5.167,21.65,16.7,26.45L181.3-362.9z"/>
		</g>
	</g>
	<g id="Layer_1_2_">
	</g>
</symbol>
<symbol  id="wsize_x5F_guavaspotd" viewBox="0 -46.87 30.458 46.87">
	<g id="Layer_1_3_">
		
			<use xlink:href="#spottyguava2l"  width="384.228" height="591.271" y="-591.271" transform="matrix(0.0793 0 0 0.0793 0 0)" style="overflow:visible;"/>
	</g>
</symbol>
<use xlink:href="#wsize_x5F_guavaspotd"  width="30.458" height="46.87" y="-46.87" transform="matrix(1 0 0 -1 14.5498 3.5)" style="overflow:visible;"/>
</svg>
