<?xml version="1.0" encoding="iso-8859-1"?>
<!-- Generator: Adobe Illustrator 15.1.0, SVG Export Plug-In . SVG Version: 6.00 Build 0)  -->
<!DOCTYPE svg PUBLIC "-//W3C//DTD SVG 1.1//EN" "http://www.w3.org/Graphics/SVG/1.1/DTD/svg11.dtd">
<svg version="1.1" id="flash0.ai" xmlns="http://www.w3.org/2000/svg" xmlns:xlink="http://www.w3.org/1999/xlink" x="0px" y="0px"
	 width="53.65px" height="49.3px" viewBox="0 0 53.65 49.3" style="enable-background:new 0 0 53.65 49.3;" xml:space="preserve">
<symbol  id="flash0.ai_x5F_2_x2F_Layer_4_copy_2_x2F__x3C_Path_x3E__x5F_2" viewBox="0 -17.4 0.25 17.4">
	<g id="Layer_1_27_">
		<path style="fill-rule:evenodd;clip-rule:evenodd;fill:#DFF7F7;" d="M0.25-8.7c0-5.8-0.033-8.7-0.1-8.7C0.05-17.4,0-14.5,0-8.7
			C0-2.9,0.05,0,0.15,0C0.217,0,0.25-2.9,0.25-8.7z"/>
	</g>
</symbol>
<symbol  id="flash0.ai_x5F_2_x2F_Layer_4_copy_2_x2F__x3C_Path_x3E__x5F_42" viewBox="0.051 -8.482 11.949 8.482">
	<g id="Layer_1_26_">
		
			<linearGradient id="SVGID_1_" gradientUnits="userSpaceOnUse" x1="5741.5186" y1="-19451.9766" x2="5750.54" y2="-19451.9766" gradientTransform="matrix(-0.5431 -0.8396 0.8396 -0.5431 19458.6289 -5746.2573)">
			<stop  offset="0" style="stop-color:#FFFFFF"/>
			<stop  offset="1" style="stop-color:#000000"/>
		</linearGradient>
		<path style="fill-rule:evenodd;clip-rule:evenodd;fill:url(#SVGID_1_);" d="M8.8-0.35L12,0l-0.7-0.7
			c-0.533-0.533-1.783-1.566-3.75-3.1C5.15-5.633,3.267-6.9,1.9-7.6C0.467-8.367-0.133-8.633,0.1-8.4c0.066,0.1,1,0.833,2.8,2.2
			C4.9-4.633,6.867-2.683,8.8-0.35z"/>
	</g>
</symbol>
<symbol  id="flash0.ai_x5F_2_x2F_Layer_4_copy_2_x2F__x3C_Path_x3E__x5F_43" viewBox="0 -10.248 15.9 10.202">
	<g id="Layer_1_25_">
		<linearGradient id="SVGID_2_" gradientUnits="userSpaceOnUse" x1="2.8501" y1="-5.147" x2="12.6501" y2="-5.147">
			<stop  offset="0" style="stop-color:#FFFFFF"/>
			<stop  offset="1" style="stop-color:#000000"/>
		</linearGradient>
		<path style="fill-rule:evenodd;clip-rule:evenodd;fill:url(#SVGID_2_);" d="M0-0.05c0.467,0.033,3.25-0.167,8.35-0.6
			c2.566-0.233,5.083-0.467,7.55-0.7l-0.05-7c0-1.767-0.867-2.3-2.6-1.6l-2.6,1.6c-0.433,0.367-1.95,1.5-4.55,3.4
			C3.467-3.05,1.433-1.417,0-0.05z"/>
	</g>
</symbol>
<symbol  id="flash0.ai_x5F_2_x2F_Layer_4_copy_2_x2F__x3C_Path_x3E__x5F_44" viewBox="0 -16.39 44.6 16.39">
	<g id="Layer_1_24_">
		<linearGradient id="SVGID_3_" gradientUnits="userSpaceOnUse" x1="0" y1="-8.1948" x2="44.6001" y2="-8.1948">
			<stop  offset="0" style="stop-color:#FFFFFF"/>
			<stop  offset="1" style="stop-color:#000000"/>
		</linearGradient>
		<path style="fill-rule:evenodd;clip-rule:evenodd;fill:url(#SVGID_3_);" d="M42.35-1.5c0.833,0.533,1.583,1.033,2.25,1.5
			c-7-5.233-11.717-8.65-14.15-10.25c-3.133-2.067-5.184-3.767-6.15-5.1c-0.6-0.8-1.267-1.133-2-1c-0.2-0.066-0.45-0.05-0.75,0.05
			c-0.466,0.167-0.867,0.483-1.2,0.95c-0.967,1.333-3.017,3.033-6.15,5.1C11.767-8.65,7.033-5.233,0,0
			c0.667-0.467,1.433-0.967,2.3-1.5C4-2.6,5.267-3.233,6.1-3.4c1.4-0.267,6.8-0.833,16.2-1.7c9.4,0.867,14.8,1.434,16.2,1.7
			C39.367-3.233,40.65-2.6,42.35-1.5z"/>
	</g>
</symbol>
<symbol  id="flash0.ai_x5F_2_x2F_Layer_4_copy_2_x2F__x3C_Path_x3E__x5F_47" viewBox="0 -12.106 33.25 12.106">
	<g id="Layer_1_23_">
		
			<linearGradient id="SVGID_4_" gradientUnits="userSpaceOnUse" x1="16326.5752" y1="-17.082" x2="16341.625" y2="-17.082" gradientTransform="matrix(6.644518e-005 1 -1 -0.001 -1.5425 -16341.167)">
			<stop  offset="0" style="stop-color:#FF859B"/>
			<stop  offset="1" style="stop-color:#D42F56"/>
		</linearGradient>
		<path style="fill-rule:evenodd;clip-rule:evenodd;fill:url(#SVGID_4_);" d="M22.4-7.65C21.967-7.983,21.5-8.333,21-8.7
			c-0.967-0.8-1.567-1.35-1.8-1.65c-0.3-0.533-0.534-0.917-0.7-1.15c-0.333-0.367-0.817-0.567-1.45-0.6
			c-0.667-0.033-1.216,0.083-1.65,0.35c-0.167,0.133-0.517,0.5-1.05,1.1c-0.367,0.4-1.05,1.033-2.05,1.9c-1,0.8-1.833,1.433-2.5,1.9
			C8.933-6.283,5.667-4,0,0h33.25L22.4-7.65z"/>
	</g>
</symbol>
<symbol  id="flash0.ai_x5F_2_x2F_Layer_4_copy_2_x2F__x3C_Path_x3E__x5F_48" viewBox="0.05 -1.782 2.828 1.782">
	<g id="Layer_1_22_">
		<path style="fill-rule:evenodd;clip-rule:evenodd;fill:#FFFFFF;" d="M1.8-1.65C1.182-1.91,0.599-1.785,0.05-1.275
			C0.473-1.65,1.04-1.708,1.75-1.45C2.417-1.183,2.783-0.7,2.85,0C2.983-0.733,2.633-1.283,1.8-1.65z"/>
	</g>
</symbol>
<symbol  id="flash0.ai_x5F_2_x2F_Layer_4_copy_2_x2F__x3C_Path_x3E__x5F_51" viewBox="0 -3.55 3.6 3.55">
	<g id="Layer_1_21_">
		
			<radialGradient id="SVGID_5_" cx="-3209.626" cy="-10153.8447" r="2.4137" gradientTransform="matrix(0.5749 -0.8183 -0.8183 -0.5749 -6462.4512 -8464.207)" gradientUnits="userSpaceOnUse">
			<stop  offset="0" style="stop-color:#EDF5FF"/>
			<stop  offset="0.0824" style="stop-color:#D9E5F3"/>
			<stop  offset="0.7216" style="stop-color:#3E6899"/>
			<stop  offset="1" style="stop-color:#003675"/>
		</radialGradient>
		<path style="fill-rule:evenodd;clip-rule:evenodd;fill:url(#SVGID_5_);" d="M3.6-1.75c0-0.5-0.167-0.933-0.5-1.3
			c-0.367-0.333-0.8-0.5-1.3-0.5s-0.917,0.167-1.25,0.5C0.183-2.683,0-2.25,0-1.75C0-1.283,0.183-0.867,0.55-0.5
			C0.883-0.167,1.3,0,1.8,0s0.934-0.167,1.3-0.5C3.433-0.867,3.6-1.283,3.6-1.75z"/>
	</g>
</symbol>
<symbol  id="flash0.ai_x5F_2_x2F_Layer_4_copy_2_x2F__x3C_Path_x3E__x5F_52" viewBox="0 -3.55 3.6 3.55">
	<g id="Layer_1_20_">
		<path style="fill-rule:evenodd;clip-rule:evenodd;fill:#FFFFFF;" d="M3.6-1.75c0-0.5-0.167-0.933-0.5-1.3
			c-0.367-0.333-0.8-0.5-1.3-0.5s-0.917,0.167-1.25,0.5C0.183-2.683,0-2.25,0-1.75C0-1.283,0.183-0.867,0.55-0.5
			C0.883-0.167,1.3,0,1.8,0s0.934-0.167,1.3-0.5C3.433-0.867,3.6-1.283,3.6-1.75z"/>
	</g>
</symbol>
<symbol  id="flash0.ai_x5F_2_x2F_Layer_4_copy_2_x2F__x3C_Path_x3E__x5F_53" viewBox="0 -1.739 2.867 1.739">
	<g id="Layer_1_19_">
		<path style="fill-rule:evenodd;clip-rule:evenodd;fill:#FFFFFF;" d="M0-1.25C0.433-1.617,1.017-1.667,1.75-1.4
			C2.417-1.167,2.783-0.7,2.85,0C2.95-0.733,2.6-1.267,1.8-1.6C1.167-1.867,0.567-1.75,0-1.25z"/>
	</g>
</symbol>
<symbol  id="flash0.ai_x5F_2_x2F_Layer_4_copy_2_x2F__x3C_Path_x3E__x5F_56" viewBox="0 -3.55 3.6 3.55">
	<g id="Layer_1_18_">
		
			<radialGradient id="SVGID_6_" cx="-3209.626" cy="-10153.8447" r="2.4137" gradientTransform="matrix(0.5749 -0.8183 -0.8183 -0.5749 -6462.4512 -8464.207)" gradientUnits="userSpaceOnUse">
			<stop  offset="0" style="stop-color:#EDF5FF"/>
			<stop  offset="0.0824" style="stop-color:#D9E5F3"/>
			<stop  offset="0.7216" style="stop-color:#3E6899"/>
			<stop  offset="1" style="stop-color:#003675"/>
		</radialGradient>
		<path style="fill-rule:evenodd;clip-rule:evenodd;fill:url(#SVGID_6_);" d="M3.6-1.8c0-0.467-0.167-0.883-0.5-1.25
			c-0.367-0.333-0.8-0.5-1.3-0.5s-0.917,0.167-1.25,0.5C0.183-2.683,0-2.267,0-1.8c0,0.5,0.183,0.917,0.55,1.25
			C0.883-0.183,1.3,0,1.8,0s0.934-0.183,1.3-0.55C3.433-0.883,3.6-1.3,3.6-1.8z"/>
	</g>
</symbol>
<symbol  id="flash0.ai_x5F_2_x2F_Layer_4_copy_2_x2F__x3C_Path_x3E__x5F_57" viewBox="0 -3.55 3.6 3.55">
	<g id="Layer_1_17_">
		<path style="fill-rule:evenodd;clip-rule:evenodd;fill:#FFFFFF;" d="M3.6-1.8c0-0.467-0.167-0.883-0.5-1.25
			c-0.367-0.333-0.8-0.5-1.3-0.5s-0.917,0.167-1.25,0.5C0.183-2.683,0-2.267,0-1.8c0,0.5,0.183,0.917,0.55,1.25
			C0.883-0.183,1.3,0,1.8,0s0.934-0.183,1.3-0.55C3.433-0.883,3.6-1.3,3.6-1.8z"/>
	</g>
</symbol>
<symbol  id="flash0.ai_x5F_2_x2F_Layer_4_copy_2_x2F__x3C_Path_x3E__x5F_58" viewBox="0.075 -1.399 2.194 1.399">
	<g id="Layer_1_16_">
		<path style="fill-rule:evenodd;clip-rule:evenodd;fill:#FFFFFF;" d="M0.075-1.05C0.399-1.301,0.84-1.317,1.4-1.1
			C1.933-0.933,2.217-0.567,2.25,0c0.1-0.567-0.183-1-0.85-1.3C0.957-1.49,0.515-1.407,0.075-1.05z"/>
	</g>
</symbol>
<symbol  id="flash0.ai_x5F_2_x2F_Layer_4_copy_2_x2F__x3C_Path_x3E__x5F_61" viewBox="0 -2.9 2.85 2.9">
	<g id="Layer_1_15_">
		
			<radialGradient id="SVGID_7_" cx="-3207.5342" cy="-10167.2168" r="1.9385" gradientTransform="matrix(0.5739 -0.8189 -0.8189 -0.5739 -6484.6895 -8462.457)" gradientUnits="userSpaceOnUse">
			<stop  offset="0" style="stop-color:#EDF5FF"/>
			<stop  offset="0.0824" style="stop-color:#D9E5F3"/>
			<stop  offset="0.7216" style="stop-color:#3E6899"/>
			<stop  offset="1" style="stop-color:#003675"/>
		</radialGradient>
		<path style="fill-rule:evenodd;clip-rule:evenodd;fill:url(#SVGID_7_);" d="M2.85-1.45c0-0.4-0.133-0.75-0.4-1.05
			c-0.3-0.267-0.633-0.4-1-0.4c-0.4,0-0.733,0.133-1,0.4C0.15-2.2,0-1.85,0-1.45c0,0.4,0.15,0.733,0.45,1C0.717-0.15,1.05,0,1.45,0
			c0.367,0,0.7-0.15,1-0.45C2.717-0.717,2.85-1.05,2.85-1.45z"/>
	</g>
</symbol>
<symbol  id="flash0.ai_x5F_2_x2F_Layer_4_copy_2_x2F__x3C_Path_x3E__x5F_62" viewBox="0 -2.9 2.85 2.9">
	<g id="Layer_1_14_">
		<path style="fill-rule:evenodd;clip-rule:evenodd;fill:#FFFFFF;" d="M2.85-1.45c0-0.4-0.133-0.75-0.4-1.05
			c-0.3-0.267-0.633-0.4-1-0.4c-0.4,0-0.733,0.133-1,0.4C0.15-2.2,0-1.85,0-1.45c0,0.4,0.15,0.733,0.45,1C0.717-0.15,1.05,0,1.45,0
			c0.367,0,0.7-0.15,1-0.45C2.717-0.717,2.85-1.05,2.85-1.45z"/>
	</g>
</symbol>
<symbol  id="flash0.ai_x5F_2_x2F_Layer_4_copy_2_x2F__x3C_Path_x3E__x5F_63" viewBox="0.05 -1.832 2.828 1.832">
	<g id="Layer_1_13_">
		<path style="fill-rule:evenodd;clip-rule:evenodd;fill:#FFFFFF;" d="M1.8-1.7C1.181-1.961,0.597-1.836,0.05-1.325
			C0.44-1.667,1.007-1.708,1.75-1.45C2.417-1.217,2.783-0.733,2.85,0C2.983-0.767,2.633-1.333,1.8-1.7z"/>
	</g>
</symbol>
<symbol  id="flash0.ai_x5F_2_x2F_Layer_4_copy_2_x2F__x3C_Path_x3E__x5F_66" viewBox="0 -3.65 3.65 3.65">
	<g id="Layer_1_12_">
		
			<radialGradient id="SVGID_8_" cx="-3216.832" cy="-10111.7119" r="2.4659" gradientTransform="matrix(0.5779 -0.8161 -0.8161 -0.5779 -6392.4795 -8469.6572)" gradientUnits="userSpaceOnUse">
			<stop  offset="0" style="stop-color:#EDF5FF"/>
			<stop  offset="0.0824" style="stop-color:#D9E5F3"/>
			<stop  offset="0.7216" style="stop-color:#3E6899"/>
			<stop  offset="1" style="stop-color:#003675"/>
		</radialGradient>
		<path style="fill-rule:evenodd;clip-rule:evenodd;fill:url(#SVGID_8_);" d="M3.65-1.8c0-0.534-0.167-0.967-0.5-1.3
			c-0.367-0.367-0.8-0.55-1.3-0.55S0.917-3.467,0.55-3.1C0.183-2.767,0-2.333,0-1.8c0,0.5,0.183,0.917,0.55,1.25
			C0.917-0.183,1.35,0,1.85,0s0.933-0.183,1.3-0.55C3.483-0.883,3.65-1.3,3.65-1.8z"/>
	</g>
</symbol>
<symbol  id="flash0.ai_x5F_2_x2F_Layer_4_copy_2_x2F__x3C_Path_x3E__x5F_67" viewBox="0 -3.65 3.65 3.65">
	<g id="Layer_1_11_">
		<path style="fill-rule:evenodd;clip-rule:evenodd;fill:#FFFFFF;" d="M3.65-1.8c0-0.534-0.167-0.967-0.5-1.3
			c-0.367-0.367-0.8-0.55-1.3-0.55S0.917-3.467,0.55-3.1C0.183-2.767,0-2.333,0-1.8c0,0.5,0.183,0.917,0.55,1.25
			C0.917-0.183,1.35,0,1.85,0s0.933-0.183,1.3-0.55C3.483-0.883,3.65-1.3,3.65-1.8z"/>
	</g>
</symbol>
<symbol  id="flash0.ai_x5F_2_x2F_Layer_4_copy_2_x2F__x3C_Path_x3E__x5F_68" viewBox="0.05 -1.567 2.518 1.567">
	<g id="Layer_1_10_">
		<path style="fill-rule:evenodd;clip-rule:evenodd;fill:#FFFFFF;" d="M0.05-1.15c0.365-0.289,0.865-0.323,1.5-0.1
			c0.6,0.2,0.934,0.617,1,1.25c0.1-0.633-0.216-1.117-0.95-1.45C1.084-1.676,0.567-1.576,0.05-1.15z"/>
	</g>
</symbol>
<symbol  id="flash0.ai_x5F_2_x2F_Layer_4_copy_2_x2F__x3C_Path_x3E__x5F_71" viewBox="0 -3.2 3.2 3.2">
	<g id="Layer_1_9_">
		
			<radialGradient id="SVGID_9_" cx="-3218.4805" cy="-10103.0977" r="2.1608" gradientTransform="matrix(0.5785 -0.8157 -0.8157 -0.5785 -6378.1914 -8470.7891)" gradientUnits="userSpaceOnUse">
			<stop  offset="0" style="stop-color:#EDF5FF"/>
			<stop  offset="0.0824" style="stop-color:#D9E5F3"/>
			<stop  offset="0.7216" style="stop-color:#3E6899"/>
			<stop  offset="1" style="stop-color:#003675"/>
		</radialGradient>
		<path style="fill-rule:evenodd;clip-rule:evenodd;fill:url(#SVGID_9_);" d="M3.2-1.6c0-0.467-0.15-0.85-0.45-1.15
			S2.067-3.2,1.6-3.2c-0.434,0-0.8,0.15-1.1,0.45C0.167-2.417,0-2.033,0-1.6c0,0.434,0.167,0.817,0.5,1.15C0.8-0.15,1.167,0,1.6,0
			c0.467,0,0.85-0.15,1.15-0.45C3.05-0.783,3.2-1.167,3.2-1.6z"/>
	</g>
</symbol>
<symbol  id="flash0.ai_x5F_2_x2F_Layer_4_copy_2_x2F__x3C_Path_x3E__x5F_72" viewBox="0 -3.2 3.2 3.2">
	<g id="Layer_1_8_">
		<path style="fill-rule:evenodd;clip-rule:evenodd;fill:#FFFFFF;" d="M3.2-1.6c0-0.467-0.15-0.85-0.45-1.15S2.067-3.2,1.6-3.2
			c-0.434,0-0.8,0.15-1.1,0.45C0.167-2.417,0-2.033,0-1.6c0,0.434,0.167,0.817,0.5,1.15C0.8-0.15,1.167,0,1.6,0
			c0.467,0,0.85-0.15,1.15-0.45C3.05-0.783,3.2-1.167,3.2-1.6z"/>
	</g>
</symbol>
<symbol  id="flash0.ai_x5F_2_x2F_Layer_4_copy_2_x2F__x3C_Path_x3E__x5F_74" viewBox="0 -9.25 43.85 9.25">
	<g id="Layer_1_7_">
		<linearGradient id="SVGID_10_" gradientUnits="userSpaceOnUse" x1="0" y1="-4.625" x2="43.8501" y2="-4.625">
			<stop  offset="0" style="stop-color:#C2E7FF"/>
			<stop  offset="1" style="stop-color:#88ABC2"/>
		</linearGradient>
		<path style="fill-rule:evenodd;clip-rule:evenodd;fill:url(#SVGID_10_);" d="M37.45-1.35c4.267-0.9,6.4-1.983,6.4-3.25
			s-2.133-2.367-6.4-3.3c-4.3-0.9-9.467-1.35-15.5-1.35c-6.034,0-11.2,0.45-15.5,1.35C2.15-6.967,0-5.867,0-4.6s2.15,2.35,6.45,3.25
			C10.717-0.45,15.883,0,21.95,0C28.017,0,33.183-0.45,37.45-1.35z"/>
	</g>
</symbol>
<symbol  id="flash0.ai_x5F_2_x2F_Layer_4_copy_2_x2F__x3C_Path_x3E__x5F_79" viewBox="0 -20.65 3.9 20.65">
	<g id="Layer_1_6_">
		<linearGradient id="SVGID_11_" gradientUnits="userSpaceOnUse" x1="0" y1="-10.3252" x2="3.8999" y2="-10.3252">
			<stop  offset="0" style="stop-color:#5A9BC9"/>
			<stop  offset="0.4588" style="stop-color:#EDF8FF"/>
			<stop  offset="0.9765" style="stop-color:#61BEFF"/>
		</linearGradient>
		<path style="fill-rule:evenodd;clip-rule:evenodd;fill:url(#SVGID_11_);" d="M1.95-0.75L3.9,0C3.367-0.367,3.1-1.483,3.1-3.35
			c-0.033-2.467-0.033-8.05,0-16.75c-0.1-0.333-0.434-0.517-1-0.55H1.8c-0.533,0.033-0.85,0.217-0.95,0.55
			c0.033,8.7,0.033,14.283,0,16.75C0.817-1.483,0.533-0.367,0,0L1.95-0.75z"/>
	</g>
</symbol>
<symbol  id="flash0.ai_x5F_2_x2F_Layer_4_copy_2_x2F__x3C_Path_x3E__x5F_80" viewBox="0.03 -2.6 4.482 2.6">
	<g id="Layer_1_5_">
		<linearGradient id="SVGID_12_" gradientUnits="userSpaceOnUse" x1="0.0127" y1="-1.2998" x2="4.4877" y2="-1.2998">
			<stop  offset="0" style="stop-color:#8F8F8F"/>
			<stop  offset="0.4588" style="stop-color:#FFFFFF"/>
			<stop  offset="0.9765" style="stop-color:#A8A8A8"/>
		</linearGradient>
		<path style="fill-rule:evenodd;clip-rule:evenodd;fill:url(#SVGID_12_);" d="M3.45,0C3.75-0.133,4-0.333,4.2-0.6
			C4.533-1,4.6-1.4,4.4-1.8c-0.3-0.534-0.967-0.8-2-0.8H2.15c-1.1,0-1.767,0.267-2,0.8C-0.05-1.4,0-1,0.3-0.6
			C0.5-0.333,0.75-0.133,1.05,0l1.2-0.35L3.45,0z"/>
	</g>
</symbol>
<symbol  id="flash0.ai_x5F_2_x2F_Layer_4_copy_2_x2F__x3C_Path_x3E__x5F_81" viewBox="0 -8.55 20.35 8.55">
	<g id="Layer_1_4_">
		<path style="fill-rule:evenodd;clip-rule:evenodd;fill:#162C33;" d="M17.4-7.2c-2-0.9-4.4-1.35-7.2-1.35
			C7.367-8.55,4.967-8.1,3-7.2C1-6.267,0-5.15,0-3.85c0,0.767,0.383,1.5,1.15,2.2C1.917-0.983,2.95-0.433,4.25,0
			c-1-0.567-1.667-1.067-2-1.5c-0.467-0.633-0.5-1.333-0.1-2.1c0.7-1.4,2.367-2.4,5-3c2.6-0.6,5.184-0.6,7.75,0
			c1.934,0.434,3.117,1.3,3.55,2.6c0.4,1.233,0.083,2.383-0.95,3.45c1.9-0.9,2.85-2,2.85-3.3C20.35-5.15,19.367-6.267,17.4-7.2z"/>
	</g>
</symbol>
<symbol  id="flash0.ai_x5F_2_x2F_Layer_4_copy_2_x2F__x3C_Path_x3E__x5F_82" viewBox="0 -9.45 20.35 9.45">
	<g id="Layer_1_3_">
		
			<radialGradient id="SVGID_13_" cx="1.8091" cy="-16322.2754" r="8.6125" gradientTransform="matrix(5.805515e-005 -1 -1.3193 5.805515e-005 -21523.7832 0.3066)" gradientUnits="userSpaceOnUse">
			<stop  offset="0" style="stop-color:#FFFFFF"/>
			<stop  offset="0.9882" style="stop-color:#83CFE6"/>
		</radialGradient>
		<path style="fill-rule:evenodd;clip-rule:evenodd;fill:url(#SVGID_13_);" d="M20.35-4.75c0-1.3-0.983-2.417-2.95-3.35
			c-2-0.9-4.4-1.35-7.2-1.35C7.367-9.45,4.967-9,3-8.1C1-7.167,0-6.05,0-4.75S1-2.333,3-1.4C5-0.467,7.4,0,10.2,0
			c2.8,0,5.2-0.467,7.2-1.4C19.367-2.333,20.35-3.45,20.35-4.75z"/>
	</g>
</symbol>
<symbol  id="flash0.ai_x5F_2_x2F_Layer_4_copy_2_x2F__x3C_Path_x3E__x5F_83" viewBox="0 -5.35 20.35 5.35">
	<g id="Layer_1_2_">
		<path style="fill-rule:evenodd;clip-rule:evenodd;fill:#162C33;" d="M20.3-0.2l0.05-0.4c0-1.333-1-2.45-3-3.35
			c-1.967-0.933-4.367-1.4-7.2-1.4c-2.8,0-5.183,0.467-7.15,1.4C1-3.05,0-1.933,0-0.6V0c0.167-1.267,1.217-2.317,3.15-3.15
			c1.967-0.867,4.317-1.3,7.05-1.3c2.633,0,4.917,0.4,6.85,1.2C18.983-2.417,20.067-1.4,20.3-0.2z"/>
	</g>
</symbol>
<g>
	
		<use xlink:href="#flash0.ai_x5F_2_x2F_Layer_4_copy_2_x2F__x3C_Path_x3E__x5F_83"  width="20.35" height="5.35" y="-5.35" transform="matrix(0.65 0 0 -0.65 19.4502 45.7998)" style="overflow:visible;opacity:0.4219;enable-background:new    ;"/>
	
		<use xlink:href="#flash0.ai_x5F_2_x2F_Layer_4_copy_2_x2F__x3C_Path_x3E__x5F_82"  width="20.35" height="9.45" y="-9.45" transform="matrix(0.65 0 0 -0.65 19.4502 42.5498)" style="overflow:visible;opacity:0.1992;enable-background:new    ;"/>
	
		<use xlink:href="#flash0.ai_x5F_2_x2F_Layer_4_copy_2_x2F__x3C_Path_x3E__x5F_81"  width="20.35" height="8.55" y="-8.55" transform="matrix(0.65 0 0 -0.65 19.4502 43.1504)" style="overflow:visible;opacity:0.2109;enable-background:new    ;"/>
	
		<use xlink:href="#flash0.ai_x5F_2_x2F_Layer_4_copy_2_x2F__x3C_Path_x3E__x5F_80"  width="4.482" height="2.6" x="0.03" y="-2.6" transform="matrix(0.65 0 0 -0.65 24.6499 42.6504)" style="overflow:visible;opacity:0.4219;enable-background:new    ;"/>
	
		<use xlink:href="#flash0.ai_x5F_2_x2F_Layer_4_copy_2_x2F__x3C_Path_x3E__x5F_79"  width="3.9" height="20.65" y="-20.65" transform="matrix(0.65 0 0 -0.65 24.7998 29.8496)" style="overflow:visible;opacity:0.1914;enable-background:new    ;"/>
	<path style="fill-rule:evenodd;clip-rule:evenodd;fill:#B4CFE0;" d="M27.405,29.962c-0.304,0.238-0.466,0.921-0.487,2.048
		c-0.022,1.581-0.022,5.211,0,10.888c0,0.086-0.044,0.173-0.131,0.26c-0.13,0.13-0.313,0.205-0.552,0.228v0.032h-0.13l-0.033-0.162
		l-0.032,0.162l-0.13-0.032c-0.238-0.022-0.422-0.087-0.552-0.195c-0.087-0.087-0.13-0.163-0.13-0.228
		c0.021-5.72,0.021-9.371,0-10.952c-0.021-1.127-0.184-1.81-0.487-2.048l0.097-0.292l1.235,0.487l1.235-0.487L27.405,29.962z
		 M26.982,30.125l-0.91,0.357l-0.91-0.357c0.195,0.434,0.292,1.062,0.292,1.885c0.086,5.633,0.086,9.252,0,10.854
		c0.13,0.13,0.303,0.206,0.52,0.228l0.065,0.032v-0.032l0.065,0.032l0.032-0.032h0.032c0.282-0.021,0.455-0.098,0.521-0.228
		c-0.022-5.72-0.022-9.338,0-10.854C26.69,31.187,26.787,30.559,26.982,30.125z"/>
	<path style="fill-rule:evenodd;clip-rule:evenodd;fill:#B4CFE0;" d="M26.072,30.319c0.434,0.043,0.759,0,0.976-0.13l-0.163,0.715
		c-0.043,0.238-0.054,0.823-0.032,1.756c-0.065-0.065-0.108-0.358-0.13-0.878c-0.021-0.368-0.13-0.65-0.325-0.845
		c-0.195-0.174-0.412-0.195-0.65-0.065c-0.195,0.108-0.314,0.357-0.357,0.747c-0.014,0.108-0.024,0.216-0.033,0.325
		c-0.002-0.252-0.046-0.588-0.13-1.007l-0.195-0.715L26.072,30.319z"/>
	<path style="fill-rule:evenodd;clip-rule:evenodd;fill:#E3E3E3;" d="M20.093,44.848c0.151-0.087,0.26,0.054,0.325,0.422
		c0.108,0.563,0.314,1.018,0.618,1.365c0.303,0.347,0.271,0.498-0.098,0.454c-0.347-0.064-0.671-0.292-0.975-0.682
		c-0.281-0.368-0.39-0.704-0.325-1.008C19.703,45.14,19.854,44.955,20.093,44.848z"/>
	<path style="fill-rule:evenodd;clip-rule:evenodd;fill:#E3E3E3;" d="M21.848,47.285c0.238,0.129,0.303,0.248,0.195,0.356
		c-0.13,0.087-0.271,0.065-0.422-0.064c-0.13-0.13-0.163-0.228-0.098-0.292C21.587,47.22,21.696,47.22,21.848,47.285z"/>
	<path style="fill-rule:evenodd;clip-rule:evenodd;fill:#E3E3E3;" d="M31.662,46.439c0.195-0.303,0.325-0.563,0.39-0.779
		c0.065-0.218,0.12-0.369,0.163-0.455c0.173-0.282,0.292-0.174,0.357,0.324c0.044,0.434-0.162,0.834-0.617,1.202
		c-0.52,0.391-0.985,0.586-1.397,0.586c0.217-0.131,0.4-0.239,0.553-0.325C31.37,46.797,31.554,46.612,31.662,46.439z"/>
	
		<use xlink:href="#flash0.ai_x5F_2_x2F_Layer_4_copy_2_x2F__x3C_Path_x3E__x5F_74"  width="43.85" height="9.25" y="-9.25" transform="matrix(0.65 0 0 -0.65 12.2002 16.2998)" style="overflow:visible;opacity:0.2617;enable-background:new    ;"/>
	
		<linearGradient id="SVGID_14_" gradientUnits="userSpaceOnUse" x1="-33.3477" y1="22.626" x2="-18.2977" y2="22.626" gradientTransform="matrix(4.318896e-005 -0.65 0.65 -6.499939e-004 11.3499 10.2998)">
		<stop  offset="0" style="stop-color:#FF859B"/>
		<stop  offset="1" style="stop-color:#D42F56"/>
	</linearGradient>
	<path style="fill-rule:evenodd;clip-rule:evenodd;fill:url(#SVGID_14_);" d="M21.62,26.939l-6.37-4.452h21.612l-7.052,4.973
		c-0.282,0.217-0.586,0.443-0.91,0.683c-0.629,0.52-1.019,0.877-1.17,1.072c-0.109,0.173-0.261,0.422-0.455,0.747
		c-0.217,0.238-0.531,0.368-0.943,0.39c-0.433,0.022-0.791-0.054-1.072-0.227c-0.108-0.087-0.335-0.325-0.682-0.715
		c-0.238-0.261-0.683-0.673-1.333-1.235C22.595,27.654,22.053,27.243,21.62,26.939z"/>
	
		<use xlink:href="#flash0.ai_x5F_2_x2F_Layer_4_copy_2_x2F__x3C_Path_x3E__x5F_72"  width="3.2" height="3.2" y="-3.2" transform="matrix(0.65 0 0 -0.65 23.4502 26.4502)" style="overflow:visible;opacity:0.3906;enable-background:new    ;"/>
	
		<use xlink:href="#flash0.ai_x5F_2_x2F_Layer_4_copy_2_x2F__x3C_Path_x3E__x5F_71"  width="3.2" height="3.2" y="-3.2" transform="matrix(0.65 0 0 -0.65 23.4502 26.4502)" style="overflow:visible;opacity:0.3516;enable-background:new    ;"/>
	<path style="fill-rule:evenodd;clip-rule:evenodd;fill:#FFFFFF;" d="M24.025,26.81c0.173-0.021,0.195,0.055,0.065,0.228
		c-0.13,0.195-0.228,0.261-0.292,0.195c-0.043-0.044-0.043-0.131,0-0.26C23.862,26.864,23.938,26.81,24.025,26.81z"/>
	<path style="fill-rule:evenodd;clip-rule:evenodd;fill:#FFFFFF;" d="M23.732,27.395c0.043,0,0.065,0.032,0.065,0.098
		c0,0.064-0.021,0.075-0.065,0.032C23.711,27.416,23.711,27.373,23.732,27.395z"/>
	
		<use xlink:href="#flash0.ai_x5F_2_x2F_Layer_4_copy_2_x2F__x3C_Path_x3E__x5F_68"  width="2.518" height="1.567" x="0.05" y="-1.567" transform="matrix(0.65 0 0 -0.65 23.75 27.4004)" style="overflow:visible;opacity:0.2188;enable-background:new    ;"/>
	
		<use xlink:href="#flash0.ai_x5F_2_x2F_Layer_4_copy_2_x2F__x3C_Path_x3E__x5F_67"  width="3.65" height="3.65" y="-3.65" transform="matrix(0.65 0 0 -0.65 24.4502 27.3496)" style="overflow:visible;opacity:0.3906;enable-background:new    ;"/>
	
		<use xlink:href="#flash0.ai_x5F_2_x2F_Layer_4_copy_2_x2F__x3C_Path_x3E__x5F_66"  width="3.65" height="3.65" y="-3.65" transform="matrix(0.65 0 0 -0.65 24.4502 27.3496)" style="overflow:visible;opacity:0.3516;enable-background:new    ;"/>
	<path style="fill-rule:evenodd;clip-rule:evenodd;fill:#FFFFFF;" d="M25.097,27.785c0.217,0,0.25,0.097,0.098,0.292
		c-0.151,0.217-0.26,0.281-0.325,0.195c-0.064-0.044-0.064-0.141,0-0.293C24.935,27.85,25.011,27.785,25.097,27.785z"/>
	<path style="fill-rule:evenodd;clip-rule:evenodd;fill:#FFFFFF;" d="M24.805,28.435c0.043,0.021,0.054,0.065,0.032,0.13
		c0,0.065-0.021,0.087-0.065,0.065s-0.065-0.055-0.065-0.098C24.729,28.467,24.762,28.435,24.805,28.435z"/>
	
		<use xlink:href="#flash0.ai_x5F_2_x2F_Layer_4_copy_2_x2F__x3C_Path_x3E__x5F_63"  width="2.828" height="1.832" x="0.05" y="-1.832" transform="matrix(0.65 0 0 -0.65 24.8501 28.4502)" style="overflow:visible;opacity:0.2188;enable-background:new    ;"/>
	
		<use xlink:href="#flash0.ai_x5F_2_x2F_Layer_4_copy_2_x2F__x3C_Path_x3E__x5F_62"  width="2.85" height="2.9" y="-2.9" transform="matrix(0.65 0 0 -0.65 26.4502 26.7998)" style="overflow:visible;opacity:0.3906;enable-background:new    ;"/>
	
		<use xlink:href="#flash0.ai_x5F_2_x2F_Layer_4_copy_2_x2F__x3C_Path_x3E__x5F_61"  width="2.85" height="2.9" y="-2.9" transform="matrix(0.65 0 0 -0.65 26.4502 26.7998)" style="overflow:visible;opacity:0.3516;enable-background:new    ;"/>
	<path style="fill-rule:evenodd;clip-rule:evenodd;fill:#FFFFFF;" d="M26.95,27.135c0.238-0.022,0.184,0.108-0.163,0.39
		c-0.043-0.043-0.043-0.119,0-0.227C26.831,27.188,26.885,27.135,26.95,27.135z"/>
	<path style="fill-rule:evenodd;clip-rule:evenodd;fill:#FFFFFF;" d="M26.723,27.654c0.043,0,0.054,0.022,0.032,0.065
		c0,0.065-0.021,0.087-0.064,0.065c-0.022-0.022-0.033-0.055-0.033-0.098C26.68,27.644,26.701,27.633,26.723,27.654z"/>
	
		<use xlink:href="#flash0.ai_x5F_2_x2F_Layer_4_copy_2_x2F__x3C_Path_x3E__x5F_58"  width="2.194" height="1.399" x="0.075" y="-1.399" transform="matrix(0.65 0 0 -0.65 26.75 27.6504)" style="overflow:visible;opacity:0.2188;enable-background:new    ;"/>
	
		<use xlink:href="#flash0.ai_x5F_2_x2F_Layer_4_copy_2_x2F__x3C_Path_x3E__x5F_57"  width="3.6" height="3.55" y="-3.55" transform="matrix(0.65 0 0 -0.65 22.1499 24.75)" style="overflow:visible;opacity:0.3906;enable-background:new    ;"/>
	
		<use xlink:href="#flash0.ai_x5F_2_x2F_Layer_4_copy_2_x2F__x3C_Path_x3E__x5F_56"  width="3.6" height="3.55" y="-3.55" transform="matrix(0.65 0 0 -0.65 22.1499 24.75)" style="overflow:visible;opacity:0.3516;enable-background:new    ;"/>
	<path style="fill-rule:evenodd;clip-rule:evenodd;fill:#FFFFFF;" d="M22.79,25.119c0.195,0,0.228,0.099,0.098,0.293
		c-0.152,0.217-0.26,0.293-0.325,0.228c-0.043-0.043-0.043-0.141,0-0.293C22.627,25.218,22.704,25.142,22.79,25.119z"/>
	<path style="fill-rule:evenodd;clip-rule:evenodd;fill:#FFFFFF;" d="M22.498,25.802c0.065,0,0.086,0.033,0.065,0.098
		c-0.021,0.065-0.054,0.087-0.098,0.065S22.432,25.889,22.498,25.802z"/>
	
		<use xlink:href="#flash0.ai_x5F_2_x2F_Layer_4_copy_2_x2F__x3C_Path_x3E__x5F_53"  width="2.867" height="1.739" y="-1.739" transform="matrix(0.65 0 0 -0.65 22.5 25.7998)" style="overflow:visible;opacity:0.2188;enable-background:new    ;"/>
	
		<use xlink:href="#flash0.ai_x5F_2_x2F_Layer_4_copy_2_x2F__x3C_Path_x3E__x5F_52"  width="3.6" height="3.55" y="-3.55" transform="matrix(0.65 0 0 -0.65 27.7002 24.3501)" style="overflow:visible;opacity:0.3906;enable-background:new    ;"/>
	
		<use xlink:href="#flash0.ai_x5F_2_x2F_Layer_4_copy_2_x2F__x3C_Path_x3E__x5F_51"  width="3.6" height="3.55" y="-3.55" transform="matrix(0.65 0 0 -0.65 27.7002 24.3501)" style="overflow:visible;opacity:0.3516;enable-background:new    ;"/>
	<path style="fill-rule:evenodd;clip-rule:evenodd;fill:#FFFFFF;" d="M28.38,24.73c0.195,0,0.228,0.097,0.098,0.292
		c-0.152,0.217-0.26,0.292-0.325,0.228c-0.064-0.065-0.076-0.163-0.032-0.293C28.185,24.806,28.271,24.73,28.38,24.73z"/>
	<path style="fill-rule:evenodd;clip-rule:evenodd;fill:#FFFFFF;" d="M28.055,25.38c0.087,0.021,0.087,0.087,0,0.194
		c-0.043-0.021-0.064-0.064-0.064-0.13C27.99,25.401,28.012,25.38,28.055,25.38z"/>
	
		<use xlink:href="#flash0.ai_x5F_2_x2F_Layer_4_copy_2_x2F__x3C_Path_x3E__x5F_48"  width="2.828" height="1.782" x="0.05" y="-1.782" transform="matrix(0.65 0 0 -0.65 28.0996 25.4004)" style="overflow:visible;opacity:0.2188;enable-background:new    ;"/>
	
		<use xlink:href="#flash0.ai_x5F_2_x2F_Layer_4_copy_2_x2F__x3C_Path_x3E__x5F_47"  width="33.25" height="12.106" y="-12.106" transform="matrix(0.65 0 0 -0.65 15.25 22.5)" style="overflow:visible;opacity:0.3711;enable-background:new    ;"/>
	
		<linearGradient id="SVGID_15_" gradientUnits="userSpaceOnUse" x1="4.6499" y1="17.4004" x2="38.6499" y2="17.4004" gradientTransform="matrix(0.65 0 0 0.65 11.3502 10.3)">
		<stop  offset="0" style="stop-color:#FF859B"/>
		<stop  offset="1" style="stop-color:#D42F56"/>
	</linearGradient>
	<path style="fill-rule:evenodd;clip-rule:evenodd;fill:url(#SVGID_15_);" d="M37.643,21.61c0,0.693-1.127,1.278-3.38,1.755
		c-2.254,0.498-4.962,0.748-8.125,0.748c-3.185,0-5.904-0.25-8.158-0.748c-2.253-0.477-3.38-1.062-3.38-1.755s1.126-1.29,3.38-1.788
		c2.253-0.477,4.973-0.715,8.158-0.715c3.185,0,5.893,0.238,8.125,0.715C36.516,20.32,37.643,20.917,37.643,21.61z"/>
	
		<radialGradient id="SVGID_16_" cx="14.6875" cy="16.1855" r="17.4987" gradientTransform="matrix(0.6496 0.0232 0.0232 -0.6496 10.5988 31.3272)" gradientUnits="userSpaceOnUse">
		<stop  offset="0" style="stop-color:#FF859B"/>
		<stop  offset="1" style="stop-color:#D42F56"/>
	</radialGradient>
	<path style="fill-rule:evenodd;clip-rule:evenodd;fill:url(#SVGID_16_);" d="M19.865,18.23c1.885-0.542,4.073-0.759,6.564-0.65
		c1.993,0.108,3.824,0.379,5.493,0.813c1.451,0.368,2.112,0.92,1.982,1.657c-0.108,0.78-1.105,1.419-2.99,1.917
		c-1.863,0.499-4.214,0.65-7.053,0.455c-2.643-0.173-4.452-0.52-5.427-1.041c-0.845-0.476-1.083-1.051-0.715-1.722
		C18.067,19.01,18.782,18.533,19.865,18.23z"/>
	
		<use xlink:href="#flash0.ai_x5F_2_x2F_Layer_4_copy_2_x2F__x3C_Path_x3E__x5F_44"  width="44.6" height="16.39" y="-16.39" transform="matrix(0.65 0 0 -0.65 11.5498 19.75)" style="overflow:visible;opacity:0.3516;enable-background:new    ;"/>
	
		<use xlink:href="#flash0.ai_x5F_2_x2F_Layer_4_copy_2_x2F__x3C_Path_x3E__x5F_43"  width="15.9" height="10.202" y="-10.248" transform="matrix(0.65 0 0 -0.65 16.7002 21.8501)" style="overflow:visible;opacity:0.3594;enable-background:new    ;"/>
	
		<use xlink:href="#flash0.ai_x5F_2_x2F_Layer_4_copy_2_x2F__x3C_Path_x3E__x5F_42"  width="11.949" height="8.482" x="0.051" y="-8.482" transform="matrix(0.65 0 0 -0.65 27.5 21.8999)" style="overflow:visible;opacity:0.3516;enable-background:new    ;"/>
	<path style="fill-rule:evenodd;clip-rule:evenodd;fill:#B4CFE0;" d="M40.632,19.855c-4.593,3.423-7.67,5.655-9.229,6.695
		c-2.08,1.364-3.391,2.448-3.933,3.25c-0.347,0.498-0.769,0.748-1.268,0.748l-0.162-0.033l-0.13,0.033
		c-0.498,0-0.92-0.25-1.267-0.748c-0.607-0.845-1.917-1.929-3.933-3.25c-1.56-1.04-4.637-3.271-9.23-6.695l-0.065-0.033V19.53h0.13
		l0.618,0.325c1.928,1.126,3.207,1.766,3.835,1.917c1.668,0.39,3.326,0.661,4.972,0.813c0.824,0.065,2.048,0.109,3.673,0.13
		l1.495,0.032c4.832-0.238,8.385-0.65,10.66-1.235c0.996-0.26,2.145-0.856,3.444-1.788l0.293-0.195h0.162v0.292L40.632,19.855z
		 M26.138,23.105l-1.495-0.033c-3.25-0.043-6.153-0.368-8.71-0.975c-0.542-0.13-1.246-0.433-2.113-0.91
		c3.684,2.708,6.035,4.399,7.053,5.07c2.123,1.431,3.456,2.535,3.997,3.315c0.304,0.411,0.694,0.617,1.17,0.617h0.162
		c0.391,0,0.727-0.206,1.008-0.617c0.606-0.846,1.95-1.95,4.029-3.315c1.063-0.715,3.272-2.307,6.631-4.777
		c-0.347,0.173-0.683,0.292-1.008,0.357C34.436,22.444,30.86,22.867,26.138,23.105z"/>
	<path style="fill-rule:evenodd;clip-rule:evenodd;fill:#B4CFE0;" d="M26.04,16.215c4.073,0,7.54,0.325,10.399,0.975
		c2.882,0.628,4.323,1.408,4.323,2.34c0,0.91-1.441,1.69-4.323,2.34c-2.859,0.628-6.326,0.942-10.399,0.942
		c-4.052,0-7.508-0.314-10.368-0.942c-2.881-0.65-4.322-1.43-4.322-2.34c0-0.932,1.441-1.711,4.322-2.34
		C18.532,16.54,21.988,16.215,26.04,16.215z M26.072,22.162c3.792,0,7.021-0.281,9.685-0.845c2.688-0.542,4.03-1.213,4.03-2.015
		c0-0.78-1.343-1.441-4.03-1.982c-2.664-0.563-5.893-0.845-9.685-0.845c-3.792,0-7.02,0.282-9.685,0.845
		c-2.665,0.542-3.998,1.202-3.998,1.982c0,0.802,1.333,1.473,3.998,2.015C19.053,21.881,22.281,22.162,26.072,22.162z"/>
	
		<radialGradient id="SVGID_17_" cx="16.7378" cy="16.1465" r="16.0991" gradientTransform="matrix(0.6404 -0.111 -0.111 -0.6404 14.9357 30.9817)" gradientUnits="userSpaceOnUse">
		<stop  offset="0" style="stop-color:#FF859B"/>
		<stop  offset="1" style="stop-color:#D42F56"/>
	</radialGradient>
	<path style="fill-rule:evenodd;clip-rule:evenodd;fill:url(#SVGID_17_);" d="M24.578,14.395c0.303-0.671,0.791-1.213,1.462-1.625
		c0.347-0.216,0.65-0.368,0.91-0.455c-0.174,0.303-0.304,0.639-0.391,1.007c-0.173,0.715-0.043,1.235,0.391,1.56
		c0.411,0.282,0.996,0.52,1.755,0.715c0.498,0.13,1.56,0.39,3.185,0.78c1.344,0.368,1.973,1.094,1.885,2.177
		c-0.064,1.019-0.628,1.755-1.689,2.21c-1.04,0.455-2.958,0.488-5.753,0.098c-2.946-0.39-4.994-1.083-6.142-2.08
		c-0.715-0.628-0.607-1.278,0.325-1.95c0.65-0.476,1.517-0.877,2.6-1.202C23.808,15.37,24.296,14.958,24.578,14.395z"/>
	<path style="fill-rule:evenodd;clip-rule:evenodd;fill:#FD9FB0;" d="M23.538,16.117c0.563,0,0.748,0.13,0.552,0.39
		c-0.173,0.238-0.444,0.357-0.813,0.357c-0.303,0-0.401-0.119-0.292-0.357C23.115,16.247,23.299,16.117,23.538,16.117z"/>
	<path style="fill-rule:evenodd;clip-rule:evenodd;fill:#FD9FB0;" d="M24.252,17.19c0.455-0.043,0.672,0.108,0.65,0.455
		c0,0.347-0.206,0.521-0.617,0.521c-0.368,0-0.542-0.152-0.52-0.456C23.765,17.406,23.928,17.233,24.252,17.19z"/>
	<path style="fill-rule:evenodd;clip-rule:evenodd;fill:#FD9FB0;" d="M22.303,17.905c0.368-0.022,0.53,0.173,0.487,0.585
		c-0.043,0.412-0.249,0.574-0.618,0.487c-0.325-0.086-0.444-0.282-0.357-0.584C21.88,18.089,22.042,17.926,22.303,17.905z"/>
	<path style="fill-rule:evenodd;clip-rule:evenodd;fill:#FD9FB0;" d="M21.49,16.93c0.39-0.217,0.628-0.238,0.715-0.065
		c0.087,0.173,0.043,0.357-0.13,0.553c-0.13,0.173-0.314,0.163-0.553-0.033C21.284,17.19,21.273,17.038,21.49,16.93z"/>
	<path style="fill-rule:evenodd;clip-rule:evenodd;fill:#FD9FB0;" d="M24.578,18.945c0.412,0.043,0.574,0.216,0.487,0.52
		c-0.086,0.281-0.303,0.357-0.65,0.228c-0.303-0.13-0.401-0.292-0.292-0.487C24.209,18.988,24.361,18.901,24.578,18.945z"/>
	<path style="fill-rule:evenodd;clip-rule:evenodd;fill:#FD9FB0;" d="M26.04,17.807c0.325,0,0.466,0.152,0.423,0.455
		c-0.065,0.325-0.261,0.444-0.585,0.357c-0.303-0.065-0.401-0.216-0.292-0.455C25.671,17.926,25.823,17.807,26.04,17.807z"/>
	<path style="fill-rule:evenodd;clip-rule:evenodd;fill:#FD9FB0;" d="M25.422,16.442c0.282-0.152,0.434-0.043,0.455,0.325
		c0.021,0.368-0.108,0.552-0.39,0.552c-0.238,0-0.335-0.13-0.292-0.39C25.238,16.669,25.314,16.507,25.422,16.442z"/>
	<path style="fill-rule:evenodd;clip-rule:evenodd;fill:#FD9FB0;" d="M25.163,14.232c0.238,0,0.347,0.098,0.325,0.293
		c-0.043,0.217-0.206,0.335-0.487,0.357c-0.26,0.021-0.336-0.087-0.228-0.325C24.881,14.341,25.011,14.232,25.163,14.232z"/>
	<path style="fill-rule:evenodd;clip-rule:evenodd;fill:#FD9FB0;" d="M24.935,15.402c0.282,0.086,0.39,0.206,0.325,0.357
		c-0.043,0.152-0.206,0.195-0.487,0.13c-0.238-0.043-0.304-0.141-0.195-0.292C24.686,15.424,24.805,15.359,24.935,15.402z"/>
	<path style="fill-rule:evenodd;clip-rule:evenodd;fill:#FD9FB0;" d="M20.515,20.115c0.303,0.065,0.379,0.228,0.228,0.487
		c-0.152,0.26-0.303,0.357-0.455,0.292c-0.152-0.086-0.217-0.249-0.195-0.487C20.114,20.147,20.255,20.05,20.515,20.115z"/>
	<path style="fill-rule:evenodd;clip-rule:evenodd;fill:#FD9FB0;" d="M21.978,20.57c0.563,0.043,0.726,0.216,0.487,0.52
		c-0.238,0.325-0.498,0.433-0.78,0.325c-0.217-0.086-0.292-0.26-0.228-0.52C21.544,20.656,21.718,20.548,21.978,20.57z"/>
	<path style="fill-rule:evenodd;clip-rule:evenodd;fill:#FD9FB0;" d="M19.053,19.692c0.216,0.26,0.249,0.455,0.097,0.585
		c-0.151,0.086-0.335,0.076-0.552-0.033c-0.173-0.108-0.163-0.26,0.033-0.455C18.803,19.595,18.944,19.562,19.053,19.692z"/>
	<path style="fill-rule:evenodd;clip-rule:evenodd;fill:#FD9FB0;" d="M19.638,21.155c0.195,0.108,0.249,0.227,0.162,0.357
		c-0.108,0.108-0.238,0.119-0.39,0.032c-0.152-0.086-0.206-0.206-0.163-0.357C19.269,21.057,19.399,21.046,19.638,21.155z"/>
	<path style="fill-rule:evenodd;clip-rule:evenodd;fill:#FD9FB0;" d="M23.96,21.317c0.542,0.368,0.434,0.498-0.325,0.39
		c-0.303-0.065-0.368-0.173-0.195-0.325C23.635,21.209,23.808,21.187,23.96,21.317z"/>
	<path style="fill-rule:evenodd;clip-rule:evenodd;fill:#FD9FB0;" d="M19.703,19.302c0.303-0.13,0.455-0.076,0.455,0.163
		c-0.021,0.216-0.141,0.347-0.357,0.39c-0.151,0.021-0.217-0.065-0.195-0.26L19.703,19.302z"/>
	<path style="fill-rule:evenodd;clip-rule:evenodd;fill:#FD9FB0;" d="M17.038,20.44c0.303,0.021,0.401,0.108,0.292,0.26
		s-0.292,0.217-0.552,0.195c-0.239-0.021-0.304-0.108-0.195-0.26C16.691,20.483,16.843,20.418,17.038,20.44z"/>
	<path style="fill-rule:evenodd;clip-rule:evenodd;fill:#C43154;" d="M31.077,16.702c0.304,0.26,0.314,0.422,0.033,0.488
		c-0.261,0.086-0.51,0.054-0.748-0.098c-0.217-0.152-0.228-0.314-0.032-0.487C30.547,16.453,30.796,16.485,31.077,16.702z"/>
	<path style="fill-rule:evenodd;clip-rule:evenodd;fill:#C43154;" d="M32.377,17.027c0.152,0.108,0.174,0.26,0.065,0.455
		c-0.13,0.174-0.249,0.174-0.357,0c-0.087-0.195-0.098-0.346-0.033-0.455C32.117,16.94,32.226,16.94,32.377,17.027z"/>
	<path style="fill-rule:evenodd;clip-rule:evenodd;fill:#C43154;" d="M31.564,17.677c0.434,0.216,0.521,0.444,0.261,0.683
		c-0.261,0.238-0.499,0.282-0.715,0.13c-0.174-0.108-0.185-0.292-0.033-0.553C31.207,17.677,31.37,17.591,31.564,17.677z"/>
	<path style="fill-rule:evenodd;clip-rule:evenodd;fill:#C43154;" d="M32.864,18.132c0.348-0.065,0.478,0.065,0.391,0.39
		c-0.087,0.304-0.26,0.455-0.52,0.455c-0.239,0-0.325-0.141-0.261-0.422C32.54,18.294,32.67,18.154,32.864,18.132z"/>
	<path style="fill-rule:evenodd;clip-rule:evenodd;fill:#C43154;" d="M29.939,17.677c0.239,0.173,0.261,0.325,0.065,0.455
		c-0.151,0.13-0.336,0.184-0.553,0.162c-0.173-0.043-0.184-0.195-0.032-0.455C29.55,17.58,29.724,17.525,29.939,17.677z"/>
	<path style="fill-rule:evenodd;clip-rule:evenodd;fill:#C43154;" d="M29.777,18.88c0.325,0,0.357,0.184,0.098,0.552
		c-0.238,0.369-0.434,0.487-0.585,0.357c-0.152-0.108-0.174-0.282-0.065-0.52C29.333,19.01,29.518,18.88,29.777,18.88z"/>
	<path style="fill-rule:evenodd;clip-rule:evenodd;fill:#C43154;" d="M29.063,20.277c0.325,0.065,0.412,0.152,0.26,0.26
		c-0.13,0.087-0.303,0.108-0.521,0.065c-0.216-0.021-0.292-0.097-0.227-0.228C28.618,20.245,28.78,20.212,29.063,20.277z"/>
	<path style="fill-rule:evenodd;clip-rule:evenodd;fill:#C43154;" d="M29.485,21.382c0.433,0.065,0.52,0.163,0.26,0.293
		c-0.26,0.13-0.488,0.151-0.683,0.065c-0.174-0.043-0.195-0.13-0.064-0.26C29.127,21.371,29.29,21.339,29.485,21.382z"/>
	<path style="fill-rule:evenodd;clip-rule:evenodd;fill:#C43154;" d="M28.802,16.345c0.282,0.022,0.358,0.151,0.229,0.39
		c-0.13,0.238-0.282,0.335-0.455,0.292c-0.152-0.021-0.174-0.141-0.065-0.358C28.597,16.431,28.694,16.323,28.802,16.345z"/>
	<path style="fill-rule:evenodd;clip-rule:evenodd;fill:#C43154;" d="M27.34,15.532c0.281,0.13,0.391,0.271,0.325,0.423
		c-0.065,0.129-0.228,0.162-0.487,0.097c-0.217-0.043-0.271-0.152-0.163-0.325C27.123,15.532,27.231,15.467,27.34,15.532z"/>
	
		<linearGradient id="SVGID_18_" gradientUnits="userSpaceOnUse" x1="-42.3008" y1="-20.5894" x2="-33.3483" y2="-20.5894" gradientTransform="matrix(-0.6444 0.0853 -0.0853 -0.6444 11.3508 10.299)">
		<stop  offset="0" style="stop-color:#A9FF52"/>
		<stop  offset="1" style="stop-color:#4F7314"/>
	</linearGradient>
	<path style="fill-rule:evenodd;clip-rule:evenodd;fill:url(#SVGID_18_);" d="M35.14,20.147c0.238-0.195,0.531-0.314,0.878-0.357
		c0.282-0.021,0.639,0.022,1.072,0.13c0.542,0.152,1.029,0.033,1.462-0.357c-0.605,0.997-1.311,1.549-2.112,1.658
		c-0.823,0.108-1.332,0.151-1.527,0.13c-0.39-0.065-0.477-0.303-0.26-0.715c0.217-0.39,0.368-0.585,0.455-0.585
		C35.129,20.05,35.14,20.082,35.14,20.147z"/>
	
		<linearGradient id="SVGID_19_" gradientUnits="userSpaceOnUse" x1="36.8369" y1="-10.7373" x2="40.2" y2="-10.7373" gradientTransform="matrix(0.5363 0.3672 -0.3672 0.5363 11.3504 10.2996)">
		<stop  offset="0" style="stop-color:#A9FF52"/>
		<stop  offset="1" style="stop-color:#4F7314"/>
	</linearGradient>
	<path style="fill-rule:evenodd;clip-rule:evenodd;fill:url(#SVGID_19_);" d="M37.123,14.167l0.292,0.097
		c0.173,0.173,0.228,0.466,0.162,0.878c-0.173,1.321-0.672,2.708-1.495,4.16c-0.628,1.083-1.289,1.831-1.982,2.242l-0.357,0.13
		l-1.202,0.097l0.324-0.39c0.823-0.498,1.625-1.343,2.405-2.535C36.071,17.612,36.689,16.052,37.123,14.167z"/>
	
		<linearGradient id="SVGID_20_" gradientUnits="userSpaceOnUse" x1="-17.1143" y1="-39.0977" x2="-11.6906" y2="-39.0977" gradientTransform="matrix(-0.2786 0.5872 -0.5872 -0.2786 11.3502 10.2995)">
		<stop  offset="0" style="stop-color:#FFADBC"/>
		<stop  offset="1" style="stop-color:#FA7695"/>
	</linearGradient>
	<path style="fill-rule:evenodd;clip-rule:evenodd;fill:url(#SVGID_20_);" d="M38.194,14.297c-0.975,0.455-1.43,0.357-1.364-0.292
		c0.086-0.888,0.249-1.733,0.487-2.535c0.087-0.238,0.271-0.379,0.553-0.422c0.303-0.065,0.649-0.011,1.04,0.163
		c0.672,0.303,0.953,0.921,0.845,1.853C39.689,13.452,39.17,13.864,38.194,14.297z"/>
	
		<linearGradient id="SVGID_21_" gradientUnits="userSpaceOnUse" x1="16.1333" y1="-31.9023" x2="23.2552" y2="-31.9023" gradientTransform="matrix(0.2898 0.5818 -0.5818 0.2898 11.3497 10.3)">
		<stop  offset="0" style="stop-color:#FFADBC"/>
		<stop  offset="1" style="stop-color:#FA7695"/>
	</linearGradient>
	<path style="fill-rule:evenodd;clip-rule:evenodd;fill:url(#SVGID_21_);" d="M36.439,14.492c-0.477-0.347-1.354-1.159-2.632-2.438
		c-0.26-0.303-0.357-0.606-0.293-0.91c0.065-0.347,0.325-0.585,0.78-0.715c0.542-0.151,1.007-0.184,1.397-0.098
		c0.477,0.109,0.747,0.369,0.813,0.78l0.715,3.25c0.021,0.173-0.043,0.281-0.195,0.325C36.873,14.731,36.679,14.666,36.439,14.492z"
		/>
	
		<linearGradient id="SVGID_22_" gradientUnits="userSpaceOnUse" x1="31.5576" y1="2.436" x2="39.819" y2="2.436" gradientTransform="matrix(0.6471 0.061 -0.061 0.6471 11.3503 10.2995)">
		<stop  offset="0" style="stop-color:#FFADBC"/>
		<stop  offset="1" style="stop-color:#FA7695"/>
	</linearGradient>
	<path style="fill-rule:evenodd;clip-rule:evenodd;fill:url(#SVGID_22_);" d="M36.505,14.103c0.672,0.238,0.672,0.541,0,0.91
		c-0.672,0.347-1.495,0.488-2.47,0.422c-0.91-0.043-1.528-0.206-1.853-0.487c-0.282-0.238-0.455-0.683-0.521-1.333
		c-0.087-1.257,0.759-1.473,2.535-0.65c0.238,0.108,0.65,0.325,1.235,0.65C35.844,13.831,36.201,13.994,36.505,14.103z"/>
	
		<linearGradient id="SVGID_23_" gradientUnits="userSpaceOnUse" x1="-46.0454" y1="-13.2617" x2="-38.3264" y2="-13.2617" gradientTransform="matrix(-0.64 0.1137 -0.1137 -0.64 11.3506 10.2995)">
		<stop  offset="0" style="stop-color:#FFADBC"/>
		<stop  offset="1" style="stop-color:#FA7695"/>
	</linearGradient>
	<path style="fill-rule:evenodd;clip-rule:evenodd;fill:url(#SVGID_23_);" d="M39.072,14.915c-0.715,0.021-1.289-0.022-1.723-0.13
		c-0.477-0.108-0.444-0.249,0.098-0.422c0.303-0.087,0.78-0.292,1.43-0.618c0.694-0.347,1.16-0.563,1.397-0.65
		c0.368-0.108,0.77-0.076,1.203,0.098c0.368,0.151,0.628,0.325,0.779,0.52c0.108,0.173-0.237,0.412-1.039,0.715
		C40.395,14.731,39.679,14.893,39.072,14.915z"/>
	
		<linearGradient id="SVGID_24_" gradientUnits="userSpaceOnUse" x1="-48.6367" y1="-1.0244" x2="-40.7658" y2="-1.0244" gradientTransform="matrix(-0.6421 -0.1012 0.1012 -0.6421 11.3508 10.2997)">
		<stop  offset="0" style="stop-color:#FFADBC"/>
		<stop  offset="1" style="stop-color:#FA7695"/>
	</linearGradient>
	<path style="fill-rule:evenodd;clip-rule:evenodd;fill:url(#SVGID_24_);" d="M40.47,16.475c-0.975-0.021-2.058-0.542-3.25-1.56
		c-0.086-0.087,0-0.184,0.261-0.293c0.303-0.108,0.66-0.141,1.071-0.097c0.586,0.043,1.561,0.13,2.926,0.26
		c0.411,0.043,0.66,0.13,0.747,0.26c0.087,0.152,0.021,0.401-0.194,0.748C41.727,16.269,41.207,16.496,40.47,16.475z"/>
	
		<linearGradient id="SVGID_25_" gradientUnits="userSpaceOnUse" x1="9.7075" y1="38.0947" x2="14.9298" y2="38.0947" gradientTransform="matrix(0.3298 -0.5601 0.5601 0.3298 11.3501 10.2997)">
		<stop  offset="0" style="stop-color:#FFADBC"/>
		<stop  offset="1" style="stop-color:#FA7695"/>
	</linearGradient>
	<path style="fill-rule:evenodd;clip-rule:evenodd;fill:url(#SVGID_25_);" d="M37.577,17.645c-0.672,0.152-1.408,0.043-2.21-0.325
		c-0.802-0.347-1.257-0.748-1.365-1.203c-0.107-0.347,0.163-0.606,0.813-0.78c0.369-0.108,0.932-0.271,1.69-0.488
		c0.433-0.195,0.672-0.292,0.715-0.292s0.162,0.098,0.357,0.292c1.062,0.975,1.527,1.679,1.397,2.113
		C38.888,17.266,38.423,17.493,37.577,17.645z"/>
	
		<radialGradient id="SVGID_26_" cx="-11.918" cy="-38.9414" r="3.2252" gradientTransform="matrix(-0.257 0.597 0.5794 0.262 56.9804 30.9326)" gradientUnits="userSpaceOnUse">
		<stop  offset="0" style="stop-color:#FFE68A"/>
		<stop  offset="1" style="stop-color:#DE9B50"/>
	</radialGradient>
	<path style="fill-rule:evenodd;clip-rule:evenodd;fill:url(#SVGID_26_);" d="M37.739,13.419c0.737,0.26,1.116,0.607,1.138,1.04
		c0.022,0.412-0.184,0.672-0.617,0.78c-0.455,0.108-1.019-0.011-1.69-0.357c-0.628-0.347-0.932-0.683-0.909-1.007
		c0.021-0.304,0.26-0.499,0.715-0.585C36.787,13.203,37.241,13.247,37.739,13.419z"/>
	
		<linearGradient id="SVGID_27_" gradientUnits="userSpaceOnUse" x1="4.002" y1="34.6709" x2="9.6576" y2="34.6709" gradientTransform="matrix(0.3821 -0.5258 0.5258 0.3821 11.3499 10.3002)">
		<stop  offset="0" style="stop-color:#A9FF52"/>
		<stop  offset="1" style="stop-color:#4F7314"/>
	</linearGradient>
	<path style="fill-rule:evenodd;clip-rule:evenodd;fill:url(#SVGID_27_);" d="M30.915,20.895c-0.39-0.368-0.542-0.942-0.455-1.722
		l0.228-1.073l0.064,0.325c0.087,0.26,0.261,0.487,0.521,0.682c0.39,0.282,0.779,0.423,1.17,0.423c0.607,0,1.019,0.032,1.234,0.098
		c0.455,0.13,0.694,0.379,0.716,0.747c0.021,0.195,0,0.369-0.065,0.52c-0.26,0.563-0.779,0.824-1.56,0.78
		C32.052,21.653,31.436,21.393,30.915,20.895z"/>
	
		<linearGradient id="SVGID_28_" gradientUnits="userSpaceOnUse" x1="-0.3081" y1="35.2529" x2="4.8332" y2="35.2529" gradientTransform="matrix(0.3255 -0.5626 0.5626 0.3255 11.3504 10.2993)">
		<stop  offset="0" style="stop-color:#A9FF52"/>
		<stop  offset="1" style="stop-color:#4F7314"/>
	</linearGradient>
	<path style="fill-rule:evenodd;clip-rule:evenodd;fill:url(#SVGID_28_);" d="M30.915,20.895c-0.39-0.368-0.542-0.942-0.455-1.722
		l0.228-1.073l0.064,0.39c0.044,0.455,0.174,0.813,0.391,1.072c0.411,0.477,1.019,0.683,1.819,0.618
		c0.217-0.022,0.478,0.054,0.78,0.228c0.282,0.151,0.466,0.325,0.553,0.52c-0.282,0.542-0.802,0.791-1.56,0.748
		C32.02,21.631,31.413,21.371,30.915,20.895z"/>
	<path style="fill-rule:evenodd;clip-rule:evenodd;fill:#DFF7F7;" d="M25.942,36.852c0,3.294-0.054,4.94-0.162,4.94
		c-0.109,0-0.163-1.646-0.163-4.94c0-3.293,0.054-4.939,0.163-4.939C25.888,31.912,25.942,33.559,25.942,36.852z"/>
	
		<use xlink:href="#flash0.ai_x5F_2_x2F_Layer_4_copy_2_x2F__x3C_Path_x3E__x5F_2"  width="0.25" height="17.4" y="-17.4" transform="matrix(0.65 0 0 -0.65 26.25 31.2998)" style="overflow:visible;opacity:0.2891;enable-background:new    ;"/>
	<path style="fill-rule:evenodd;clip-rule:evenodd;fill:#B4CFE0;" d="M25.195,42.572c0.086,0.151,0.098,0.217,0.033,0.195
		c-0.412-0.065-1.224,0.086-2.438,0.455c-1.3,0.411-2.156,0.823-2.567,1.234c-0.477,0.52-0.726,1.051-0.748,1.593
		c0,0.06,0,0.12,0,0.179c-0.013-0.111-0.024-0.225-0.032-0.342c-0.044-0.606,0.097-1.062,0.422-1.364
		c0.628-0.607,1.701-1.116,3.217-1.528C23.862,42.8,24.567,42.658,25.195,42.572z"/>
	<path style="fill-rule:evenodd;clip-rule:evenodd;fill:#B4CFE0;" d="M26.982,42.768l-0.032-0.195l0.26-0.033
		c0.325,0.022,0.866,0.13,1.625,0.325c1.604,0.427,2.676,0.897,3.217,1.414c-0.213-0.148-0.743-0.393-1.592-0.731
		c-0.672-0.26-1.462-0.466-2.372-0.617L26.982,42.768z"/>
</g>
</svg>
