<?xml version="1.0" encoding="iso-8859-1"?>
<!-- Generator: Adobe Illustrator 15.1.0, SVG Export Plug-In . SVG Version: 6.00 Build 0)  -->
<!DOCTYPE svg PUBLIC "-//W3C//DTD SVG 1.1//EN" "http://www.w3.org/Graphics/SVG/1.1/DTD/svg11.dtd">
<svg version="1.1" id="flash0.ai" xmlns="http://www.w3.org/2000/svg" xmlns:xlink="http://www.w3.org/1999/xlink" x="0px" y="0px"
	 width="82.4px" height="34.25px" viewBox="0 0 82.4 34.25" style="enable-background:new 0 0 82.4 34.25;" xml:space="preserve">
<symbol  id="hash" viewBox="0.009 -17.439 41.222 17.439">
	<g id="Layer_1_2_">
		
			<linearGradient id="SVGID_1_" gradientUnits="userSpaceOnUse" x1="-5.5234" y1="-2.9443" x2="29.7091" y2="-2.9443" gradientTransform="matrix(1.17 8.309536e-004 7.921354e-004 1.17 6.4746 -6.7734)">
			<stop  offset="0.0235" style="stop-color:#DADCDE"/>
			<stop  offset="1" style="stop-color:#B3B4B5"/>
		</linearGradient>
		<path style="fill-rule:evenodd;clip-rule:evenodd;fill:url(#SVGID_1_);" d="M41.125-10.413c-0.546-1.989-3.022-3.666-7.43-5.031
			c-4.407-1.403-9.438-2.067-15.093-1.988c-5.654,0.078-10.276,0.858-13.864,2.34C1.111-13.65-0.43-11.934,0.117-9.945
			c0.546,1.989,3.002,3.666,7.371,5.031c4.407,1.365,9.438,2.008,15.093,1.931c5.655-0.078,10.296-0.838,13.923-2.282
			C40.13-6.708,41.67-8.424,41.125-10.413z"/>
		
			<linearGradient id="SVGID_2_" gradientUnits="userSpaceOnUse" x1="18068.7656" y1="-14015.6748" x2="18107.082" y2="-14015.6748" gradientTransform="matrix(-1.1319 0.2961 -0.2961 -1.1319 16342.4189 -21228.9746)">
			<stop  offset="0" style="stop-color:#CCCCCC"/>
			<stop  offset="1" style="stop-color:#FFFFFF"/>
		</linearGradient>
		<path style="fill-rule:evenodd;clip-rule:evenodd;fill:url(#SVGID_2_);" d="M41.125-9.828c-0.546-1.833-3.022-3.374-7.43-4.622
			c-4.367-1.248-9.379-1.833-15.034-1.755c-5.655,0.039-10.296,0.741-13.923,2.106C1.111-12.772-0.43-11.193,0.117-9.36
			c0.546,1.833,3.002,3.373,7.371,4.622c4.407,1.248,9.438,1.833,15.093,1.755c5.655-0.078,10.296-0.78,13.923-2.106
			C40.13-6.416,41.67-7.995,41.125-9.828z"/>
		
			<linearGradient id="SVGID_3_" gradientUnits="userSpaceOnUse" x1="8.1206" y1="-14.2222" x2="40.3938" y2="-14.2222" gradientTransform="matrix(1.17 -9.062606e-004 -9.473556e-004 1.17 -7.7441 7.3867)">
			<stop  offset="0" style="stop-color:#CCCCCC"/>
			<stop  offset="1" style="stop-color:#FFFFFF"/>
		</linearGradient>
		<path style="fill-rule:evenodd;clip-rule:evenodd;fill:url(#SVGID_3_);" d="M39.428-9.477c-0.468-1.56-2.711-2.847-6.728-3.861
			c-4.017-1.053-8.619-1.541-13.806-1.462c-5.187,0.039-9.457,0.624-12.811,1.755c-3.315,1.131-4.719,2.457-4.212,3.978
			C2.378-7.547,4.641-6.26,8.657-5.207c4.018,1.014,8.619,1.501,13.806,1.462C27.65-3.822,31.901-4.407,35.216-5.5
			C38.531-6.63,39.935-7.956,39.428-9.477z"/>
		<path style="fill-rule:evenodd;clip-rule:evenodd;fill:#915922;" d="M31.063-3.92c0.156,0.468,0.488,0.897,0.995,1.287
			c0.468,0.391,0.858,0.585,1.17,0.585c0.273,0,0.507-0.254,0.702-0.761c0.195-0.429,0.292-0.819,0.292-1.17
			c0-0.234-0.41-0.273-1.229-0.117C31.94-3.939,31.296-3.881,31.063-3.92z"/>
		<path style="fill-rule:evenodd;clip-rule:evenodd;fill:#7D4E1E;" d="M33.929-4.914c0,1.014-0.059,1.677-0.175,1.989l-0.527,0.878
			l0.76-0.117c0.507-0.156,0.839-0.39,0.995-0.702c0.273-0.468,0.371-1.053,0.292-1.755L33.929-4.914z"/>
		<path style="fill-rule:evenodd;clip-rule:evenodd;fill:#915922;" d="M10.88-3.159c-0.117,0.39-0.176,1.033-0.176,1.931
			c0,0.234,0.176,0.409,0.527,0.526c0.195,0.078,0.41,0.156,0.644,0.234c0.156,0.156,0.702,0.019,1.638-0.41v-1.053L10.88-3.159z"/>
		<path style="fill-rule:evenodd;clip-rule:evenodd;fill:#7D4E1E;" d="M14.332-3.101c-0.546,1.014-1.014,1.677-1.404,1.989
			c-0.234,0.195-0.644,0.292-1.229,0.292L10.88-0.877l0.702,0.41C12.089-0.156,12.479,0,12.752,0c0.312,0,0.8-0.214,1.462-0.644
			c0.585-0.429,0.916-0.721,0.995-0.877C15.248-1.716,14.956-2.242,14.332-3.101z"/>
		<path style="fill-rule:evenodd;clip-rule:evenodd;fill:#CFA146;" d="M35.801-9.185l-1.697-0.292l0.292-0.292
			c0.117-0.273-0.097-0.585-0.643-0.936c-0.858-0.585-1.794-0.877-2.808-0.877c-0.702,0.273-1.19,0.449-1.462,0.526
			c-0.313,0.117-0.722,0.137-1.229,0.059c-0.663-0.117-1.131-0.371-1.403-0.76c-0.273-0.429-0.527-0.722-0.761-0.877
			c-0.156-0.078-0.409-0.117-0.76-0.117l-2.925-0.059c-0.195,0-0.37,0.078-0.526,0.234c-0.156,0.195-0.234,0.351-0.234,0.468
			c0,0.156-0.312,0.409-0.936,0.76c-2.067-0.117-3.627-0.272-4.68-0.468c-0.741-0.117-1.151-0.176-1.229-0.176
			c-0.078,0-0.273,0.059-0.585,0.176c-0.39,0.156-0.682,0.273-0.877,0.351c-0.312,0.117-0.566,0.156-0.761,0.117
			c-1.716-0.507-2.69-0.644-2.925-0.409c-0.546,0.545-0.819,0.917-0.819,1.111c0.04,0.195,0.04,0.331,0,0.41
			c-0.078,0.195-0.331,0.312-0.76,0.351C6.902-9.77,6.181-9.438,5.908-8.892C5.752-8.58,5.693-8.015,5.732-7.195
			c0.078,0.897,0.351,1.403,0.819,1.521C6.708-5.636,6.902-5.46,7.137-5.148c0.195,0.234,0.429,0.351,0.702,0.351
			c0.78,0,1.17,0.234,1.17,0.702c0,0.429,0.39,0.761,1.17,0.995c0.936,0.156,1.404,0.487,1.404,0.995
			c0,0.312,0.214,0.644,0.644,0.994c0.429,0.352,0.917,0.507,1.462,0.468c1.482-0.078,2.34-0.156,2.574-0.234
			c0.546-0.156,0.897-0.117,1.053,0.117c0.117,0.156,0.741,0.312,1.872,0.468c0.39,0.078,0.761,0.019,1.112-0.175
			c0.234-0.117,0.507-0.292,0.819-0.527c0.273-0.195,0.605-0.351,0.995-0.468l1.462,0.351c0.312,0.117,0.916-0.039,1.814-0.468
			c0.389-0.156,0.955-0.156,1.696,0c0.429,0.156,1.014,0,1.755-0.468c0.702-0.429,1.385-0.858,2.048-1.287
			c0.273-0.078,0.916,0.019,1.93,0.292c0.39,0,0.937-0.097,1.638-0.292c0.039,0,0.39-0.078,1.053-0.234
			c0.351-0.04,0.565-0.156,0.643-0.352c0.039-0.156,0.059-0.565,0.059-1.228c0-0.546,0.039-0.839,0.116-0.877
			c0.117-0.117,0.702-0.273,1.755-0.468c0.156-0.04,0.214-0.215,0.176-0.527c-0.04-0.156-0.078-0.448-0.117-0.877
			c0-0.546-0.332-0.975-0.995-1.287c-0.156-0.078-0.351-0.097-0.585-0.058C36.171-9.204,35.918-9.185,35.801-9.185z"/>
		<path style="fill-rule:evenodd;clip-rule:evenodd;fill:#FFE191;" d="M5.206-5.616H3.275c-0.039,0-0.351,0.039-0.936,0.116
			C1.989-5.46,1.833-5.401,1.872-5.323c0.156,0.39,0.624,0.722,1.404,0.994l1.287,0.468c1.794,0,2.671-0.098,2.632-0.292
			C7.117-4.349,6.454-4.836,5.206-5.616z"/>
		<path style="fill-rule:evenodd;clip-rule:evenodd;fill:#E6C15C;" d="M1.93-5.148c0,0.117,0.41,0.175,1.229,0.175
			C3.783-5.011,4.29-5.051,4.68-5.09c0.195-0.039,0.331-0.351,0.41-0.936c0.078-0.352,0.156-0.858,0.233-1.521
			c0.04-0.39-0.02-0.585-0.175-0.585C4.875-8.092,4.582-8.034,4.27-7.956C2.983-7.8,2.339-7.703,2.339-7.663L1.93-5.616V-5.148z"/>
		<path style="fill-rule:evenodd;clip-rule:evenodd;fill:#CFA146;" d="M7.195-4.153v-2.165c0-0.468-0.097-0.78-0.292-0.937
			C6.747-7.41,6.454-7.605,6.025-7.839c-0.468-0.233-0.76-0.312-0.877-0.233C5.03-7.995,4.933-7.8,4.855-7.488L4.796-7.02
			C4.718-6.708,4.68-6.298,4.68-5.792v0.702l1.638,0.644C6.708-4.251,7-4.153,7.195-4.153z"/>
		<path style="fill-rule:evenodd;clip-rule:evenodd;fill:#E6C15C;" d="M7.722-8.015c-0.039-0.195-0.39-0.195-1.053,0
			C5.967-7.819,5.655-7.488,5.732-7.02c0.039,0.507,0.156,0.897,0.351,1.17c0.195,0.234,0.351,0.292,0.468,0.175
			C6.59-5.713,6.825-5.792,7.254-5.908c0.389-0.117,0.585-0.215,0.585-0.292C7.839-6.903,7.799-7.507,7.722-8.015z"/>
		<path style="fill-rule:evenodd;clip-rule:evenodd;fill:#E6C15C;" d="M3.86-7.195c0.858,0.351,1.541,0.487,2.047,0.41
			C6.454-6.864,6.961-7.04,7.429-7.313c0.507-0.312,0.76-0.604,0.76-0.877c0-1.092-0.137-1.677-0.41-1.755
			c-1.287-0.273-2.028-0.449-2.223-0.527c-0.39-0.117-0.975,0.02-1.755,0.41C3.412-9.906,3.198-9.809,3.159-9.77
			C3.081-9.691,3.022-9.574,2.983-9.418C3.022-8.989,3.061-8.502,3.1-7.956c0,0.312,0.098,0.526,0.292,0.643
			C3.471-7.273,3.626-7.234,3.86-7.195z"/>
		<path style="fill-rule:evenodd;clip-rule:evenodd;fill:#CFA146;" d="M5.323-9.418L5.147-8.073C5.108-7.956,5.576-7.859,6.552-7.78
			c0.897,0.078,1.403,0.078,1.521,0c0.117-0.039,0.156-0.352,0.117-0.937c0-0.507-0.039-0.897-0.117-1.17
			c-0.039-0.156-0.078-0.214-0.117-0.175c0,0.078-0.058,0.117-0.175,0.117l-2.223-0.527c-0.195-0.039-0.292,0.078-0.292,0.352
			C5.343-9.809,5.362-9.574,5.323-9.418z"/>
		<path style="fill-rule:evenodd;clip-rule:evenodd;fill:#FFE191;" d="M5.908-6.786c0.273,0,0.683-0.117,1.229-0.352
			C7.643-7.371,7.955-7.585,8.072-7.78C8.189-7.937,7.839-8.092,7.02-8.248C6.317-8.365,5.732-8.424,5.265-8.424
			c-0.195,0-0.546,0.078-1.053,0.234c-0.507,0.195-0.78,0.351-0.819,0.468C3.236-7.566,3.178-7.488,3.217-7.488
			c0,0.078,0.214,0.175,0.644,0.292C4.796-6.922,5.479-6.786,5.908-6.786z"/>
		<path style="fill-rule:evenodd;clip-rule:evenodd;fill:#E6C15C;" d="M9.242-9.126L9.71-9.477c0.469-0.468,0.702-0.76,0.702-0.877
			c0-0.429-0.253-0.897-0.76-1.404c-0.117-0.078-0.253,0-0.41,0.234c-0.195,0.234-0.331,0.526-0.41,0.877
			C8.755-10.296,8.892-9.789,9.242-9.126z"/>
		<path style="fill-rule:evenodd;clip-rule:evenodd;fill:#E6C15C;" d="M14.507-12.109l-1.229,0.585
			c-0.312,0.195-0.468,0.312-0.468,0.351l0.409,0.819c0.04,0.195,0.078,0.312,0.117,0.351c0.117,0.078,0.312,0.059,0.585-0.059
			c0.195-0.117,0.488-0.234,0.877-0.351c0.273-0.117,0.371-0.292,0.292-0.526L14.507-12.109z"/>
		<path style="fill-rule:evenodd;clip-rule:evenodd;fill:#E6C15C;" d="M20.708-11.349c0.156,0.313,0.234,0.546,0.234,0.702
			c0,0.078,0.098,0.117,0.292,0.117c0.195,0,0.331-0.039,0.409-0.117c0.079-0.039,0.117-0.175,0.117-0.41
			c0-0.234-0.019-0.39-0.059-0.468L21.644-11.7C21.41-11.778,21.098-11.661,20.708-11.349z"/>
		<path style="fill-rule:evenodd;clip-rule:evenodd;fill:#E6C15C;" d="M22.639-12.753c-0.39-0.195-0.721,0.02-0.995,0.644
			c-0.078,0.156-0.058,0.312,0.059,0.468c0.078,0.117,0.215,0.292,0.41,0.527l0.41,0.468l0.175-0.936
			c0-0.117,0.039-0.331,0.117-0.644C22.853-12.499,22.795-12.675,22.639-12.753z"/>
		<path style="fill-rule:evenodd;clip-rule:evenodd;fill:#E6C15C;" d="M28.898-10.881c-0.117-0.078-0.117,0.039,0,0.351
			c0.078,0.273,0.156,0.468,0.233,0.585c0.039,0.156,0.156,0.292,0.352,0.41c0.195,0.156,0.37,0.117,0.526-0.117
			c0.897-1.014,1.287-1.638,1.17-1.872c-0.078-0.195-0.371-0.137-0.877,0.175C29.561-10.881,29.093-10.725,28.898-10.881z"/>
		<path style="fill-rule:evenodd;clip-rule:evenodd;fill:#E6C15C;" d="M35.801-9.185l-1.697-0.292c0,0.039-0.058,0.175-0.175,0.41
			c-0.079,0.156,0,0.312,0.234,0.468c0.195,0.117,0.429,0.312,0.702,0.585c0.234,0.156,0.469,0.254,0.702,0.292
			c0.352,0,0.722-0.058,1.112-0.175l0.117-1.112v-0.233C36.601-9.165,36.269-9.146,35.801-9.185z"/>
		<path style="fill-rule:evenodd;clip-rule:evenodd;fill:#E6C15C;" d="M12.694-5.675c0.429,0,0.722-0.331,0.877-0.995
			c0.039-0.116-0.253-0.37-0.877-0.76c-0.156-0.078-0.351,0.039-0.585,0.352c-0.312,0.351-0.526,0.585-0.644,0.701
			c-0.156,0.156-0.097,0.332,0.176,0.527C11.953-5.694,12.304-5.636,12.694-5.675z"/>
		<path style="fill-rule:evenodd;clip-rule:evenodd;fill:#E6C15C;" d="M8.833-4.505c-0.078,0.039-0.078,0.117,0,0.234
			c0.079,0.039,0.137,0.097,0.176,0.175v0.292c0,0.273,0.312,0.39,0.936,0.351c0.585-0.039,0.897-0.137,0.936-0.292
			c0.039-0.156,0.078-0.39,0.117-0.702c0.039-0.156-0.156-0.313-0.585-0.468c-0.078-0.039-0.351,0.02-0.818,0.176L8.833-4.505z"/>
		<path style="fill-rule:evenodd;clip-rule:evenodd;fill:#E6C15C;" d="M11.583-2.106c0.117,0.117,0.136,0.312,0.059,0.585
			c0.117,0.156,0.448,0.195,0.994,0.117l0.644-0.409c0.273-0.156,0.39-0.253,0.351-0.292c-0.156-0.117-0.234-0.195-0.234-0.234
			c0-0.312-0.546-0.371-1.638-0.176c-0.312,0.039-0.449,0.097-0.409,0.176C11.349-2.223,11.426-2.146,11.583-2.106z"/>
		<path style="fill-rule:evenodd;clip-rule:evenodd;fill:#E6C15C;" d="M17.315-0.76c0.546-0.117,1.307-0.137,2.282-0.059
			c0.429-0.078,0.566-0.195,0.41-0.351c-0.273-0.156-0.448-0.273-0.527-0.351c-0.117-0.078-0.799,0-2.047,0.234
			c-0.507,0.117-0.702,0.234-0.585,0.351C16.964-0.819,17.12-0.76,17.315-0.76z"/>
		<path style="fill-rule:evenodd;clip-rule:evenodd;fill:#E6C15C;" d="M16.847-3.627c0.273-0.039,0.585-0.293,0.937-0.761
			c0.312-0.506,0.429-0.819,0.351-0.936c-0.156-0.352-0.292-0.585-0.41-0.702c-0.117-0.195-0.507-0.117-1.17,0.233
			c-0.585,0.273-1.014,0.527-1.287,0.761c-0.156,0.117-0.137,0.37,0.059,0.76c0.233,0.39,0.351,0.624,0.351,0.702
			C15.677-3.413,16.067-3.432,16.847-3.627z"/>
		<path style="fill-rule:evenodd;clip-rule:evenodd;fill:#E6C15C;" d="M15.677-6.903c0.312-0.117,0.702-0.39,1.17-0.819
			c0.468-0.468,0.644-0.741,0.527-0.818c-0.624-0.429-1.014-0.644-1.17-0.644c-0.079,0-0.292,0.156-0.644,0.468
			c-0.39,0.352-0.643,0.585-0.76,0.702c-0.156,0.156-0.117,0.39,0.117,0.702C15.151-7,15.404-6.864,15.677-6.903z"/>
		<path style="fill-rule:evenodd;clip-rule:evenodd;fill:#E6C15C;" d="M10.529-7.663c0.234-0.079,0.39-0.234,0.468-0.469
			c0.079-0.233,0.039-0.429-0.117-0.585c-0.117-0.156-0.234-0.175-0.351-0.058c-0.195,0.273-0.331,0.429-0.41,0.468
			C9.886-8.19,9.866-8.034,10.062-7.839C10.217-7.644,10.374-7.585,10.529-7.663z"/>
		<path style="fill-rule:evenodd;clip-rule:evenodd;fill:#E6C15C;" d="M21.235-5.967c0.546-0.078,0.956-0.214,1.229-0.41
			c0.312-0.233,0.351-0.506,0.117-0.818c-0.195-0.273-0.351-0.39-0.468-0.352c-0.195,0.04-0.39,0.059-0.585,0.059
			c-0.468-0.039-0.936,0.097-1.404,0.41c-0.273,0.195-0.273,0.429,0,0.701C20.396-6.064,20.767-5.928,21.235-5.967z"/>
		<path style="fill-rule:evenodd;clip-rule:evenodd;fill:#E6C15C;" d="M19.714-8.365c0.351,0.039,0.624-0.059,0.819-0.292
			c0.195-0.195,0.292-0.39,0.292-0.585c0-0.352-0.487-0.527-1.462-0.527c-0.507,0-0.799,0.039-0.878,0.117
			c-0.116,0.039-0.175,0.195-0.175,0.468C18.232-8.677,18.7-8.404,19.714-8.365z"/>
		<path style="fill-rule:evenodd;clip-rule:evenodd;fill:#E6C15C;" d="M20.649-2.808c1.366-0.156,2.028-0.351,1.989-0.585
			c0-0.156-0.019-0.39-0.059-0.702c-0.078-0.234-0.234-0.331-0.468-0.292c-0.741,0.079-1.346,0.214-1.813,0.41
			c-0.273,0.078-0.371,0.292-0.292,0.644C20.084-2.944,20.299-2.769,20.649-2.808z"/>
		<path style="fill-rule:evenodd;clip-rule:evenodd;fill:#E6C15C;" d="M26.032-3.568c0.273,0,0.643-0.234,1.112-0.702
			c0.506-0.429,0.701-0.76,0.585-0.995C27.65-5.46,27.572-5.538,27.494-5.5c-0.117,0.04-0.253,0.079-0.41,0.117
			c-0.585,0.352-1.131,0.546-1.638,0.585c-0.351,0.039-0.429,0.254-0.234,0.644C25.369-3.764,25.642-3.568,26.032-3.568z"/>
		<path style="fill-rule:evenodd;clip-rule:evenodd;fill:#E6C15C;" d="M25.154-5.792C26.051-5.87,26.5-6.104,26.5-6.493
			c0-0.352-0.117-0.625-0.351-0.819c-0.195-0.156-0.39-0.156-0.585,0C25.291-7,24.998-6.747,24.687-6.552
			c-0.391,0.273-0.488,0.488-0.292,0.644C24.55-5.792,24.803-5.752,25.154-5.792z"/>
		<path style="fill-rule:evenodd;clip-rule:evenodd;fill:#E6C15C;" d="M30.009-6.435c0.897-0.351,1.326-0.683,1.287-0.995
			c-0.039-0.156-0.448-0.331-1.228-0.526c-0.313-0.079-0.507-0.059-0.585,0.058c-0.117,0.234-0.273,0.39-0.468,0.468
			c-0.351,0.195-0.39,0.449-0.117,0.76C29.21-6.318,29.581-6.24,30.009-6.435z"/>
		<path style="fill-rule:evenodd;clip-rule:evenodd;fill:#E6C15C;" d="M33.871-5.265c0.429,0,0.799-0.136,1.111-0.41
			c0.312-0.273,0.371-0.506,0.175-0.702c-0.233-0.195-0.565-0.351-0.994-0.468c-0.234-0.078-0.429,0.02-0.585,0.292
			c-0.117,0.352-0.234,0.585-0.351,0.702c-0.117,0.156-0.097,0.292,0.059,0.41C33.442-5.323,33.637-5.265,33.871-5.265z"/>
		<path style="fill-rule:evenodd;clip-rule:evenodd;fill:#E6C15C;" d="M31.063-3.92c0.429-0.039,0.625-0.156,0.585-0.351
			c-0.039-0.117-0.156-0.292-0.351-0.527c-0.117-0.156-0.429-0.156-0.936,0c-0.352,0.079-0.663,0.391-0.937,0.937
			c-0.156,0.234-0.058,0.312,0.292,0.234L31.063-3.92z"/>
		<path style="fill-rule:evenodd;clip-rule:evenodd;fill:#E6C15C;" d="M25.271-1.872c0.312,0,0.429-0.137,0.351-0.41
			c-0.078-0.272-0.253-0.449-0.526-0.526c-0.195-0.078-0.351-0.019-0.468,0.175l-0.409,0.761c-0.117,0.156-0.098,0.215,0.059,0.175
			C24.667-1.813,24.998-1.872,25.271-1.872z"/>
		<path style="fill-rule:evenodd;clip-rule:evenodd;fill:#E6C15C;" d="M27.084-1.58c0.39,0.039,0.585-0.02,0.585-0.175
			c0-0.039-0.097-0.176-0.292-0.41c-0.117-0.117-0.292-0.117-0.526,0c-0.273,0.156-0.449,0.253-0.527,0.292
			C26.051-1.677,26.305-1.58,27.084-1.58z"/>
		<path style="fill-rule:evenodd;clip-rule:evenodd;fill:#E6C15C;" d="M30.887-3.334c0.117-0.039,0.429,0,0.936,0.117
			c0.546,0.117,0.877,0.176,0.994,0.176c0.234,0,0.313-0.078,0.234-0.234c-0.079-0.195-0.312-0.39-0.702-0.585
			c-0.351-0.156-0.722-0.098-1.111,0.175C30.692-3.334,30.575-3.218,30.887-3.334z"/>
		<path style="fill-rule:evenodd;clip-rule:evenodd;fill:#FFE191;" d="M9.242-3.686c-0.078,0-0.097,0.02-0.058,0.059
			c0,0.039,0.02,0.078,0.058,0.117l0.644,0.41c0.468,0.234,0.897,0.351,1.287,0.351c1.209,0,1.716-0.059,1.521-0.176
			c-0.351-0.273-0.644-0.468-0.877-0.585c-0.351-0.234-0.663-0.312-0.936-0.234C9.983-3.744,9.438-3.724,9.242-3.686z"/>
		<path style="fill-rule:evenodd;clip-rule:evenodd;fill:#FFE191;" d="M11.641-1.521c0.156,0.468,0.526,0.78,1.111,0.936
			c0.234,0.078,0.585,0.117,1.053,0.117c0.429,0,0.702-0.059,0.819-0.176l0.234-0.176c-0.078,0-0.253-0.117-0.526-0.351
			l-0.819-0.761c-0.312,0.351-0.604,0.526-0.877,0.526L11.641-1.521z"/>
		<path style="fill-rule:evenodd;clip-rule:evenodd;fill:#FFE191;" d="M17.082-0.76l1.521,0.526c0.234,0.04,0.527,0.098,0.877,0.176
			c0.273,0.078,0.488,0.039,0.644-0.117l0.468-0.352l0.351-0.175c-0.429-0.117-0.741-0.175-0.936-0.175
			C18.251-0.76,17.276-0.722,17.082-0.76z"/>
		<path style="fill-rule:evenodd;clip-rule:evenodd;fill:#FFE191;" d="M18.661-4.212c-0.117-0.351-0.273-0.643-0.469-0.877
			l-1.345,1.463C16.77-3.51,16.555-3.471,16.204-3.51l-0.527-0.058c0.039,0.195,0.098,0.37,0.175,0.526
			c0.117,0.39,0.273,0.585,0.469,0.585c0.468,0.039,0.994-0.02,1.579-0.176c0.507-0.117,0.858-0.253,1.054-0.409
			c0.156-0.117,0.175-0.292,0.058-0.526C18.973-3.686,18.856-3.9,18.661-4.212z"/>
		<path style="fill-rule:evenodd;clip-rule:evenodd;fill:#FFE191;" d="M11.29-6.084l0.761,0.761
			c0.234,0.233,0.644,0.351,1.229,0.351h0.41l-0.644-0.76c-0.39,0.078-0.682,0.058-0.877-0.059L11.29-6.084z"/>
		<path style="fill-rule:evenodd;clip-rule:evenodd;fill:#FFE191;" d="M10.646-7.313c0.117,0.117,0.39,0.156,0.819,0.117
			l-0.702-0.468h-0.234c-0.183-0.037-0.348-0.125-0.497-0.264L10.646-7.313z"/>
		<path style="fill-rule:evenodd;clip-rule:evenodd;fill:#FFE191;" d="M7.839-6.201C7.76-6.123,7.487-6.025,7.02-5.908
			c-0.39,0.116-0.546,0.195-0.468,0.233c0.078,0.039,0.214,0.195,0.41,0.468c0.195,0.234,0.37,0.351,0.526,0.351
			c0.273,0,0.585-0.059,0.937-0.175c0.701-0.078,1.092-0.195,1.17-0.352C9.671-5.5,9.613-5.577,9.417-5.616
			C9.028-5.733,8.794-5.811,8.716-5.85L7.839-6.201z"/>
		<path style="fill-rule:evenodd;clip-rule:evenodd;fill:#FFE191;" d="M20.24-5.967c0.078,0.079,0.176,0.215,0.292,0.41
			c0.156,0.195,0.313,0.292,0.468,0.292l2.691-0.117L22.697-6.26l-0.234-0.175C22.19-6.318,21.839-6.26,21.41-6.26l-1.462-0.292
			L20.24-5.967z"/>
		<path style="fill-rule:evenodd;clip-rule:evenodd;fill:#FFE191;" d="M23.575-2.165l-0.877-0.995l-0.234-0.175
			c-0.234,0.195-0.585,0.312-1.053,0.351c-0.312,0.039-0.624,0.039-0.936,0l-0.41-0.059l0.527,0.585l0.995,0.585L23.575-2.165z"/>
		<path style="fill-rule:evenodd;clip-rule:evenodd;fill:#FFE191;" d="M24.16-1.697c-0.234,0.078-0.917,0.156-2.047,0.234
			c1.053,0.351,1.735,0.487,2.047,0.409C24.433-1.17,24.433-1.384,24.16-1.697z"/>
		<path style="fill-rule:evenodd;clip-rule:evenodd;fill:#FFE191;" d="M25.856-3.51l1.053,0.292
			c0.195,0.117,0.527,0.079,0.995-0.117c0.351-0.234,0.468-0.429,0.351-0.585l-0.468-0.994c-0.351,0.39-0.643,0.644-0.877,0.761
			L25.856-3.51z"/>
		<path style="fill-rule:evenodd;clip-rule:evenodd;fill:#FFE191;" d="M24.277-5.967l0.175,0.234
			c0.156,0.195,0.331,0.312,0.527,0.351c0.273,0.117,0.585,0.176,0.936,0.176l0.702-0.059l-0.175-0.819
			C26.09-5.889,25.72-5.811,25.33-5.85L24.277-5.967z"/>
		<path style="fill-rule:evenodd;clip-rule:evenodd;fill:#FFE191;" d="M28.723-7.078c-0.117-0.117-0.097,0,0.059,0.351
			c0.195,0.351,0.37,0.585,0.526,0.702c0.234,0.156,0.488,0.273,0.761,0.351l0.468-0.233c0.468-0.741,0.507-1.054,0.117-0.937
			c-0.273,0.117-0.585,0.156-0.937,0.117C29.288-6.728,28.957-6.845,28.723-7.078z"/>
		<path style="fill-rule:evenodd;clip-rule:evenodd;fill:#FFE191;" d="M23.458-10.179c0.39,0.04,0.702-0.039,0.937-0.234
			c0.233-0.195,0.253-0.371,0.058-0.526c-0.195-0.117-0.41-0.137-0.643-0.059c-0.039,0-0.312,0.117-0.819,0.351
			C22.522-10.413,22.678-10.257,23.458-10.179z"/>
		<path style="fill-rule:evenodd;clip-rule:evenodd;fill:#FFE191;" d="M29.717-9.36c0.937,0.195,1.541,0.292,1.814,0.292
			c0.702,0,0.994-0.059,0.877-0.175c-0.195-0.273-0.507-0.41-0.936-0.41H30.77C30.185-9.458,29.834-9.36,29.717-9.36z"/>
		<path style="fill-rule:evenodd;clip-rule:evenodd;fill:#FFE191;" d="M35.742-6.552c0.234,0.352,0.429,0.527,0.585,0.527
			c0.195,0,0.527-0.059,0.995-0.175c0.429-0.117,0.683-0.215,0.761-0.292c0.039-0.04-0.02-0.098-0.176-0.176
			c-0.117-0.039-0.117-0.097,0-0.175c0.312-0.117,0.117-0.233-0.585-0.351c-0.39-0.352-0.702-0.527-0.936-0.527
			c-0.429,0-0.819-0.02-1.17-0.058c-0.352-0.039-0.312,0.156,0.117,0.585L35.742-6.552z"/>
		<path style="fill-rule:evenodd;clip-rule:evenodd;fill:#FFE191;" d="M36.152-3.92c0.039-0.117-0.058-0.273-0.292-0.468
			c-0.195-0.156-0.39-0.234-0.585-0.234c-0.975,0-1.384,0.078-1.228,0.234c0.078,0.079,0.214,0.175,0.409,0.292
			c0.117,0.117,0.214,0.234,0.293,0.351l0.233,0.351l0.527-0.117C35.859-3.627,36.074-3.764,36.152-3.92z"/>
		<path style="fill-rule:evenodd;clip-rule:evenodd;fill:#E6C15C;" d="M4.036-11.642c0.468,0.156,0.897,0.215,1.287,0.176
			c1.014-0.117,1.521-0.273,1.521-0.468c0-0.039,0.058-0.156,0.175-0.351s0.156-0.371,0.117-0.526
			c-0.039-0.156-0.156-0.272-0.352-0.351c-0.39-0.078-0.604-0.136-0.643-0.175c-0.117-0.078-0.273-0.195-0.468-0.351
			c-0.196-0.078-0.41-0.117-0.644-0.117c-0.272,0-0.585,0.058-0.936,0.175c-0.312,0.156-0.507,0.292-0.585,0.41
			c-0.079,0.195-0.117,0.624-0.117,1.287C3.393-11.856,3.607-11.758,4.036-11.642z"/>
		<path style="fill-rule:evenodd;clip-rule:evenodd;fill:#E6C15C;" d="M1.93-9.828c0.546,0,0.956-0.079,1.229-0.234
			c0.429-0.273,0.487-0.644,0.175-1.111c-0.078-0.117-0.234-0.215-0.468-0.292c-0.313-0.117-0.565-0.215-0.761-0.292
			c-0.195-0.117-0.351-0.136-0.468-0.059c-0.194,0.156-0.351,0.253-0.468,0.292c-0.351,0.039-0.526,0.448-0.526,1.229
			C0.643-9.984,1.072-9.828,1.93-9.828z"/>
		<path style="fill-rule:evenodd;clip-rule:evenodd;fill:#E6C15C;" d="M14.975-14.274c0.897-0.039,1.326-0.234,1.287-0.585
			c-0.039-0.194-0.195-0.429-0.468-0.701c-0.078-0.234-0.585-0.273-1.521-0.117c-0.273,0.039-0.41,0.117-0.41,0.233
			c0.078,0.117,0.097,0.234,0.059,0.352c-0.078,0.156,0,0.332,0.234,0.526C14.39-14.371,14.663-14.274,14.975-14.274z"/>
		<path style="fill-rule:evenodd;clip-rule:evenodd;fill:#E6C15C;" d="M29.951-12.343c1.092-0.078,1.638-0.273,1.638-0.585
			c0-0.078,0.02-0.234,0.059-0.468c0.04-0.156,0.02-0.292-0.059-0.409c-0.039-0.117-0.565-0.273-1.58-0.468
			c-0.468-0.078-1.053,0.078-1.755,0.468c-0.351,0.312-0.351,0.702,0,1.17c0.156,0.234,0.332,0.37,0.527,0.409
			C28.937-12.227,29.328-12.266,29.951-12.343z"/>
		<path style="fill-rule:evenodd;clip-rule:evenodd;fill:#E6C15C;" d="M33.286-11.817c0.429,0,0.838-0.078,1.229-0.234
			c0.351-0.117,0.527-0.253,0.527-0.41c0-0.117-0.352-0.331-1.054-0.644c-0.545,0.078-0.994,0.136-1.345,0.176
			c-0.195,0-0.312,0.058-0.351,0.175v0.41C32.291-11.993,32.623-11.817,33.286-11.817z"/>
		<path style="fill-rule:evenodd;clip-rule:evenodd;fill:#E6C15C;" d="M40.13-8.658c0.507-0.117,0.721-0.352,0.644-0.702
			c-0.039-0.195-0.156-0.468-0.351-0.819c-0.078-0.272-0.429-0.409-1.053-0.409c-0.78,0-1.17,0.175-1.17,0.526
			c0,0.273,0.117,0.585,0.352,0.936C38.901-8.658,39.428-8.502,40.13-8.658z"/>
		<path style="fill-rule:evenodd;clip-rule:evenodd;fill:#CFA146;" d="M3.042-10.296c0.273,0.117,0.41-0.02,0.41-0.41
			c0-0.156-0.04-0.312-0.117-0.468l-0.468-0.292l-1.053-0.468l0.117,0.468v0.819l0.585,0.175
			C2.632-10.472,2.808-10.413,3.042-10.296z"/>
		<path style="fill-rule:evenodd;clip-rule:evenodd;fill:#CFA146;" d="M5.206-13.806v1.17l0.819,0.234
			c0.195,0.039,0.468,0.195,0.819,0.468l0.41-0.877H7.137c-0.468-0.312-0.8-0.487-0.995-0.526L5.206-13.806z"/>
		<path style="fill-rule:evenodd;clip-rule:evenodd;fill:#CFA146;" d="M15.502-15.093l0.527,0.468
			c0.156,0.117,0.253,0.078,0.292-0.117c-0.117-0.273-0.292-0.546-0.527-0.818c-0.234-0.234-0.351-0.292-0.351-0.176L15.502-15.093z
			"/>
		<path style="fill-rule:evenodd;clip-rule:evenodd;fill:#CFA146;" d="M29.366-14.098l0.175,0.175l0.468,0.702l0.937,0.117
			l0.643,0.176l0.176-0.644l-0.176-0.233c-0.156-0.273-0.468-0.448-0.936-0.527c-0.351-0.039-0.663-0.02-0.937,0.059L29.366-14.098z
			"/>
		<path style="fill-rule:evenodd;clip-rule:evenodd;fill:#CFA146;" d="M34.514-12.227c0.156,0.078,0.312,0.078,0.468,0
			c0.117-0.039,0.117-0.175,0-0.409c-0.117-0.156-0.273-0.292-0.468-0.41c-0.117-0.078-0.273-0.117-0.468-0.117l-0.292,0.059
			l0.058,0.176l0.234,0.526h0.117L34.514-12.227z"/>
		<path style="fill-rule:evenodd;clip-rule:evenodd;fill:#CFA146;" d="M40.598-8.833c0.156,0.039,0.234-0.059,0.234-0.292
			s-0.059-0.429-0.176-0.585l-0.468-1.053v0.234l-0.175,0.819l0.175,0.351C40.306-9.087,40.442-8.912,40.598-8.833z"/>
		<path style="fill-rule:evenodd;clip-rule:evenodd;fill:#FFE191;" d="M1.93-10.647c-0.351,0.195-0.585,0.292-0.702,0.292
			l-0.585,0.059c-0.078,0.272,0.176,0.429,0.761,0.468c0.78,0.039,1.365-0.039,1.755-0.234l0.234-0.175L1.93-10.647z"/>
		<path style="fill-rule:evenodd;clip-rule:evenodd;fill:#FFE191;" d="M5.206-12.636v-0.059l-0.877,0.468l-0.936,0.292l1.404,0.468
			c1.053,0,1.638-0.02,1.755-0.059c0.233-0.117,0.331-0.254,0.292-0.41l-1.053-0.468C5.557-12.558,5.362-12.636,5.206-12.636z"/>
		<path style="fill-rule:evenodd;clip-rule:evenodd;fill:#FFE191;" d="M15.502-15.093l-0.995,0.117h-0.292
			c-0.429-0.117-0.546-0.078-0.351,0.116c0.429,0.429,0.917,0.625,1.463,0.585c0.506-0.039,0.741-0.156,0.702-0.351L15.502-15.093z"
			/>
		<path style="fill-rule:evenodd;clip-rule:evenodd;fill:#FFE191;" d="M30.009-13.221c-0.506,0.195-0.838,0.39-0.994,0.585
			l-0.468,0.292l0.176,0.117c0.195,0.078,0.429,0.078,0.702,0c1.404-0.234,2.106-0.409,2.106-0.526c0-0.273-0.292-0.41-0.877-0.41
			L30.009-13.221z"/>
		<path style="fill-rule:evenodd;clip-rule:evenodd;fill:#FFE191;" d="M32.35-12.109l0.234,0.117
			c0.234,0.117,0.468,0.176,0.702,0.176c0.39-0.039,0.956-0.176,1.696-0.41l-0.936-0.175L32.35-12.109z"/>
		<path style="fill-rule:evenodd;clip-rule:evenodd;fill:#FFE191;" d="M38.258-9.477l0.175,0.351
			c0.156,0.273,0.351,0.429,0.585,0.468c0.351,0.078,0.877,0.019,1.58-0.176l-0.585-0.877c-0.195,0.156-0.429,0.234-0.702,0.234
			H38.258z"/>
		<path style="fill-rule:evenodd;clip-rule:evenodd;fill:#915922;" d="M11.29-13.338c0.079-0.273,0.059-0.546-0.058-0.819
			c-0.195-0.351-0.468-0.429-0.819-0.233c-1.755,0.468-2.71,0.76-2.866,0.877c-0.079,0.039-0.156,0.351-0.234,0.936
			c-0.039,0.585-0.078,0.917-0.117,0.995c-0.117,0.546,0.175,0.819,0.877,0.819c1.482,0,2.282-0.078,2.399-0.234
			C10.51-11.037,10.783-11.817,11.29-13.338z"/>
		<path style="fill-rule:evenodd;clip-rule:evenodd;fill:#7D4E1E;" d="M11.934-14.04c-0.819-0.39-1.229-0.526-1.229-0.41
			l-0.058,2.457l-0.175,0.995l1.17,0.585c0.702,0.312,1.248,0.507,1.638,0.585l0.117-2.458c0-0.234,0.059-0.487,0.175-0.76
			L11.934-14.04z"/>
		<path style="fill-rule:evenodd;clip-rule:evenodd;fill:#B36F2B;" d="M9.652-9.418l1.872-0.292c0.585,0,1.111-0.059,1.58-0.176
			l-2.632-1.111c-0.468,0-0.897,0.039-1.287,0.117l-1.989-0.117c0.117,0.117,0.254,0.254,0.41,0.41
			c0.273,0.312,0.527,0.526,0.76,0.644C8.716-9.789,9.145-9.614,9.652-9.418z"/>
		<path style="fill-rule:evenodd;clip-rule:evenodd;fill:#B36F2B;" d="M9.067-4.271c1.365-0.039,2.204-0.234,2.516-0.585
			c0.234-0.234,0.175-0.468-0.176-0.702l-1.58-1.17L6.902-5.5c-0.233,0.156,0,0.41,0.702,0.761C8.034-4.426,8.521-4.271,9.067-4.271
			z"/>
		<path style="fill-rule:evenodd;clip-rule:evenodd;fill:#7D4E1E;" d="M11.699-6.903c-0.624-0.507-1.014-0.858-1.17-1.053
			c-0.156-0.196-0.292-0.313-0.41-0.352C9.925-7.722,9.827-7.313,9.827-7.078v0.409l1.112,0.877
			c0.273,0.196,0.487,0.507,0.644,0.937l0.175-1.229C11.797-6.318,11.778-6.591,11.699-6.903z"/>
		<path style="fill-rule:evenodd;clip-rule:evenodd;fill:#915922;" d="M9.242-6.377l0.585-0.292l0.234-0.994l0.058-0.644
			C8.989-8.892,8.443-8.95,8.482-8.482c0.039,0.39-0.175,0.741-0.643,1.053L7.195-7.02c0.039,0.078,0,0.292-0.117,0.643L6.902-5.5
			L9.242-6.377z"/>
		<path style="fill-rule:evenodd;clip-rule:evenodd;fill:#B36F2B;" d="M26.617-11.993c1.17-0.039,1.56-0.312,1.17-0.819
			c-0.273-0.312-0.76-0.624-1.462-0.936c-0.351-0.156-0.956-0.136-1.813,0.059c-0.897,0.195-1.443,0.313-1.638,0.351
			c-0.195,0.039-0.156,0.195,0.117,0.468c0.312,0.351,0.468,0.566,0.468,0.644C23.458-11.993,24.511-11.914,26.617-11.993z"/>
		<path style="fill-rule:evenodd;clip-rule:evenodd;fill:#915922;" d="M25.447-15.268c-0.195,0.156-0.507,0.272-0.936,0.351
			c-0.546,0.117-0.877,0.195-0.995,0.234c-0.273,0.078-0.448,0.136-0.526,0.175c-0.156,0.039-0.234,0.117-0.234,0.234l-0.059,1.053
			l2.223-0.292l0.527-0.176l0.468-0.059l0.175-1.404c0-0.156-0.058-0.272-0.175-0.351C25.759-15.541,25.603-15.463,25.447-15.268z"
			/>
		<path style="fill-rule:evenodd;clip-rule:evenodd;fill:#7D4E1E;" d="M28.079-14.098c-0.078-0.195-0.234-0.352-0.468-0.468
			c-0.39-0.156-0.604-0.253-0.644-0.293l-1.228-0.585v0.937l0.175,0.76l0.995,0.527l0.468,0.351l0.468,0.585l0.176-0.643
			C28.137-13.436,28.157-13.826,28.079-14.098z"/>
		<path style="fill-rule:evenodd;clip-rule:evenodd;fill:#B36F2B;" d="M26.266-0.585c1.286-0.546,2.223-1.17,2.808-1.872
			l-0.585-0.059c-0.273-0.039-1.424-0.253-3.452-0.644c-0.585-0.078-0.975,0.098-1.17,0.526c-0.195,0.624-0.429,1.151-0.702,1.58
			c-0.351,0.546-0.078,0.839,0.819,0.878C24.803-0.137,25.564-0.273,26.266-0.585z"/>
		<path style="fill-rule:evenodd;clip-rule:evenodd;fill:#915922;" d="M23.107-0.41l1.053-2.457l-0.234-1.346
			c0-0.156-0.117-0.097-0.351,0.176c-0.507,0.858-0.799,1.404-0.877,1.638c0.039,0.351,0.059,0.644,0.059,0.877
			S22.873-0.917,23.107-0.41z"/>
		<path style="fill-rule:evenodd;clip-rule:evenodd;fill:#7D4E1E;" d="M27.202-2.516c0.663,0.078,1.287,0.097,1.872,0.059
			l-0.117-0.644l-1.638-0.644c-1.365-0.234-2.262-0.429-2.691-0.585c-0.272-0.117-0.468-0.137-0.585-0.059l-0.117,0.175l0.234,1.346
			l0.877-0.292c0.156-0.039,0.448,0.039,0.877,0.234C26.461-2.691,26.89-2.554,27.202-2.516z"/>
		<path style="fill-rule:evenodd;clip-rule:evenodd;fill:#915922;" d="M37.205-5.792c1.014-0.351,1.443-0.78,1.287-1.286
			c0-0.04-0.253-0.39-0.76-1.054c-0.156-0.156-0.41-0.156-0.76,0c-0.429,0.273-0.741,0.469-0.937,0.585
			C35.645-7.352,35.45-6.669,35.45-5.5c0,0.313,0.176,0.391,0.527,0.234C36.211-5.343,36.62-5.519,37.205-5.792z"/>
		<path style="fill-rule:evenodd;clip-rule:evenodd;fill:#B36F2B;" d="M37.029-6.318l-1.521,1.111l0.41,0.351
			c0.351,0.234,0.701,0.37,1.053,0.41c0.818,0.039,1.404-0.117,1.755-0.468l1.462-1.287l-1.813-0.585
			C38.219-6.864,37.771-6.708,37.029-6.318z"/>
		<path style="fill-rule:evenodd;clip-rule:evenodd;fill:#7D4E1E;" d="M37.731-8.132l0.644,1.346l0.702,0.292
			c0.507,0.195,0.878,0.292,1.112,0.292c0.351,0,0.312-0.332-0.117-0.995l-0.292-0.175c-0.195-0.156-0.604-0.371-1.228-0.644
			C37.888-8.327,37.614-8.365,37.731-8.132z"/>
		<path style="fill-rule:evenodd;clip-rule:evenodd;fill:#A87932;" d="M13.104-2.75c0.312,0.078,0.917,0.273,1.813,0.585
			c0.858,0.195,1.404,0.175,1.638-0.059c0.429-0.429,0.39-0.819-0.117-1.17c-0.663-0.156-1.111-0.331-1.345-0.527
			c-0.195-0.156-0.663-0.233-1.404-0.233l-0.585,0.702C12.831-3.101,12.831-2.867,13.104-2.75z"/>
		<path style="fill-rule:evenodd;clip-rule:evenodd;fill:#A87932;" d="M16.145-12.168c2.067,0.663,3.218,0.78,3.452,0.351
			c0.117-0.195-0.039-0.507-0.468-0.936c-0.429-0.351-0.76-0.527-0.995-0.527c-1.131,0-1.813,0.039-2.047,0.117
			c-0.351,0.117-0.527,0.312-0.527,0.585C15.56-12.304,15.755-12.168,16.145-12.168z"/>
		<path style="fill-rule:evenodd;clip-rule:evenodd;fill:#A87932;" d="M24.452-10.413c-0.351,0.195-0.156,0.761,0.585,1.696
			c0.78,0.897,1.404,1.365,1.872,1.404c0.702,0.039,1.053-0.468,1.053-1.521c0-0.507-0.195-0.819-0.585-0.936l-1.462-0.877
			c-0.195-0.117-0.448-0.117-0.76,0C24.803-10.53,24.569-10.452,24.452-10.413z"/>
		<path style="fill-rule:evenodd;clip-rule:evenodd;fill:#A87932;" d="M35.216-11.7l0.877,0.468
			c0.624,0.351,1.092,0.546,1.403,0.585c0.625,0.156,1.151,0.078,1.58-0.234c0.429-0.234,0.429-0.546,0-0.936l-0.585-0.176
			c-0.585-0.194-1.131-0.292-1.638-0.292C35.879-12.285,35.333-12.09,35.216-11.7z"/>
		
			<radialGradient id="SVGID_4_" cx="15483.5605" cy="713.6055" r="2.5622" gradientTransform="matrix(0.1142 1.1644 1.1644 -0.1142 -2573.6162 -17958.4238)" gradientUnits="userSpaceOnUse">
			<stop  offset="0" style="stop-color:#FFF6A1"/>
			<stop  offset="1" style="stop-color:#D6B200"/>
		</radialGradient>
		<path style="fill-rule:evenodd;clip-rule:evenodd;fill:url(#SVGID_4_);" d="M26.792-6.903c0.741-0.664,0.995-1.287,0.76-1.872
			c-0.078-0.234-0.331-0.507-0.76-0.819c-0.429-0.272-0.663-0.448-0.702-0.526c-0.195-0.352-0.604-0.468-1.228-0.352l-0.41,0.059
			c-0.468,0.117-0.663,0.507-0.585,1.17c0,0.624,0.02,1.053,0.059,1.287c0.039,0.351,0.253,0.643,0.644,0.877
			C25.661-6.533,26.402-6.474,26.792-6.903z"/>
		
			<radialGradient id="SVGID_5_" cx="15477.0566" cy="719.7012" r="2.1605" gradientTransform="matrix(0.1151 1.1643 1.1643 -0.1151 -2594.4404 -17947.4473)" gradientUnits="userSpaceOnUse">
			<stop  offset="0" style="stop-color:#FFF6A1"/>
			<stop  offset="1" style="stop-color:#FAD000"/>
		</radialGradient>
		<path style="fill-rule:evenodd;clip-rule:evenodd;fill:url(#SVGID_5_);" d="M26.792-7.078c0.117-0.313,0.078-0.605-0.117-0.877
			c-0.039-0.079-0.214-0.273-0.526-0.585c-0.195-0.313-0.371-0.566-0.527-0.761c-0.312-0.351-0.702-0.545-1.17-0.585
			c-0.39-0.039-0.624,0.059-0.702,0.292c0,0.04,0,0.313,0,0.819s0.04,0.819,0.117,0.936c0.117,0.352,0.488,0.644,1.112,0.877
			c0.663,0.234,1.111,0.332,1.345,0.292C26.559-6.669,26.714-6.806,26.792-7.078z"/>
		
			<radialGradient id="SVGID_6_" cx="9569.0244" cy="3272.1367" r="2.5555" gradientTransform="matrix(0.7211 0.9214 0.9214 -0.7211 -9901.8477 -6460.5996)" gradientUnits="userSpaceOnUse">
			<stop  offset="0" style="stop-color:#FFF6A1"/>
			<stop  offset="1" style="stop-color:#D6B200"/>
		</radialGradient>
		<path style="fill-rule:evenodd;clip-rule:evenodd;fill:url(#SVGID_6_);" d="M15.209-3.452c-0.507,0-0.78-0.02-0.819-0.059
			c-0.312-0.195-0.741-0.078-1.287,0.351l-0.234,0.292c-0.078,0.078-0.136,0.195-0.175,0.351c-0.078,0.312,0.02,0.624,0.292,0.936
			c0.234,0.234,0.468,0.585,0.702,1.053c0.234,0.273,0.565,0.39,0.994,0.352c1.209-0.079,1.892-0.41,2.047-0.995
			c0.156-0.976,0.02-1.638-0.409-1.989C16.087-3.354,15.716-3.452,15.209-3.452z"/>
		
			<radialGradient id="SVGID_7_" cx="9540.1113" cy="3276.04" r="2.1631" gradientTransform="matrix(0.7234 0.9195 0.9195 -0.7234 -9900.9805 -6404.9624)" gradientUnits="userSpaceOnUse">
			<stop  offset="0" style="stop-color:#FFF6A1"/>
			<stop  offset="1" style="stop-color:#FAD000"/>
		</radialGradient>
		<path style="fill-rule:evenodd;clip-rule:evenodd;fill:url(#SVGID_7_);" d="M16.614-1.346c-0.079-0.468-0.527-0.76-1.346-0.877
			c-0.312-0.156-0.585-0.273-0.818-0.351c-0.468-0.156-0.917-0.117-1.346,0.117c-0.313,0.195-0.448,0.39-0.41,0.585
			c0,0.078,0.137,0.331,0.41,0.76c0.272,0.39,0.468,0.644,0.585,0.761c0.351,0.195,0.838,0.234,1.462,0.117
			c0.663-0.156,1.092-0.312,1.287-0.468C16.594-0.858,16.652-1.072,16.614-1.346z"/>
		
			<radialGradient id="SVGID_8_" cx="9526.6387" cy="3270.0371" r="2.6257" gradientTransform="matrix(0.7241 0.919 0.919 -0.7241 -9887.7676 -6400.2856)" gradientUnits="userSpaceOnUse">
			<stop  offset="0" style="stop-color:#FFF6A1"/>
			<stop  offset="1" style="stop-color:#D6B200"/>
		</radialGradient>
		<path style="fill-rule:evenodd;clip-rule:evenodd;fill:url(#SVGID_8_);" d="M16.145-10.003c0.234,0.312,0.585,0.449,1.054,0.409
			c1.208-0.078,1.891-0.429,2.047-1.053c0.233-0.936,0.097-1.599-0.41-1.989c-0.234-0.195-0.604-0.292-1.112-0.292
			c-0.546,0-0.838-0.02-0.877-0.059c-0.312-0.195-0.741-0.078-1.287,0.351l-0.233,0.292c-0.391,0.351-0.352,0.78,0.117,1.287
			C15.677-10.784,15.912-10.432,16.145-10.003z"/>
		
			<radialGradient id="SVGID_9_" cx="9553.3867" cy="3267.1475" r="2.208" gradientTransform="matrix(0.722 0.9207 0.9207 -0.722 -9889.6445 -6448.9653)" gradientUnits="userSpaceOnUse">
			<stop  offset="0" style="stop-color:#FFF6A1"/>
			<stop  offset="1" style="stop-color:#FAD000"/>
		</radialGradient>
		<path style="fill-rule:evenodd;clip-rule:evenodd;fill:url(#SVGID_9_);" d="M16.906-12.051c-0.469-0.156-0.917-0.117-1.346,0.117
			c-0.312,0.195-0.448,0.39-0.409,0.585c0,0.078,0.137,0.332,0.409,0.761c0.273,0.429,0.469,0.682,0.585,0.761
			c0.352,0.233,0.839,0.273,1.462,0.117c0.702-0.156,1.151-0.313,1.346-0.468c0.156-0.117,0.214-0.332,0.175-0.643
			c-0.078-0.468-0.546-0.761-1.404-0.878C17.413-11.856,17.14-11.973,16.906-12.051z"/>
		
			<radialGradient id="SVGID_10_" cx="33.1001" cy="-10.1499" r="2.6078" gradientTransform="matrix(-0.8428 0.8115 -0.7923 -0.8228 58.5801 -47.0874)" gradientUnits="userSpaceOnUse">
			<stop  offset="0" style="stop-color:#FFF6A1"/>
			<stop  offset="1" style="stop-color:#D6B200"/>
		</radialGradient>
		<path style="fill-rule:evenodd;clip-rule:evenodd;fill:url(#SVGID_10_);" d="M38.375-10.003c0.546-0.468,0.663-0.897,0.351-1.287
			l-0.234-0.292c-0.117-0.156-0.312-0.292-0.585-0.41c-0.233-0.117-0.429-0.156-0.585-0.117c-0.936-0.195-1.599-0.176-1.988,0.059
			c-0.546,0.39-0.781,1.034-0.702,1.931c0.039,0.624,0.663,1.072,1.872,1.345c0.429,0.078,0.78-0.02,1.053-0.292
			C37.712-9.224,37.985-9.535,38.375-10.003z"/>
		
			<radialGradient id="SVGID_11_" cx="32.8999" cy="-9.5498" r="2.21" gradientTransform="matrix(-0.8423 0.812 -0.7894 -0.8188 58.6646 -45.7095)" gradientUnits="userSpaceOnUse">
			<stop  offset="0" style="stop-color:#FFF6A1"/>
			<stop  offset="1" style="stop-color:#FAD000"/>
		</radialGradient>
		<path style="fill-rule:evenodd;clip-rule:evenodd;fill:url(#SVGID_11_);" d="M36.035-8.95c0.625,0.195,1.112,0.214,1.462,0.058
			c0.196-0.078,0.429-0.312,0.702-0.702c0.312-0.429,0.488-0.643,0.527-0.643c0.078-0.234-0.039-0.449-0.351-0.644
			c-0.39-0.273-0.819-0.39-1.287-0.351c-0.429,0.156-0.722,0.234-0.877,0.234c-0.858,0.117-1.346,0.371-1.462,0.761
			c-0.079,0.273-0.059,0.487,0.058,0.643C34.962-9.438,35.372-9.224,36.035-8.95z"/>
		<path style="fill-rule:evenodd;clip-rule:evenodd;fill:#E6C15C;" d="M13.045-12.636c1.326-0.078,1.989-0.371,1.989-0.877
			c0.039-0.195,0-0.332-0.117-0.41c-0.156-0.117-0.312-0.215-0.468-0.292c-0.312-0.156-0.644-0.41-0.995-0.76
			c-0.195-0.117-0.722,0.039-1.58,0.468c-0.351,0.078-0.566,0.37-0.644,0.877c0,0.312,0.097,0.507,0.292,0.585
			c0.117,0,0.351,0.078,0.702,0.234C12.577-12.656,12.85-12.597,13.045-12.636z"/>
		<path style="fill-rule:evenodd;clip-rule:evenodd;fill:#CFA146;" d="M14.742-13.045l0.175-0.117
			c0.117-0.117,0.156-0.234,0.117-0.351c0-0.195-0.039-0.352-0.117-0.468l-0.995-0.585c-0.234-0.156-0.39-0.293-0.468-0.409
			c-0.117,0.156-0.176,0.312-0.176,0.468l-0.117,0.585l0.643,0.292C14.156-13.513,14.468-13.318,14.742-13.045z"/>
		<path style="fill-rule:evenodd;clip-rule:evenodd;fill:#FFE191;" d="M13.162-13.923l-0.234,0.117l-0.76,0.175l-0.936,0.351
			l0.995,0.527c0.468,0.195,0.819,0.273,1.053,0.234c0.975-0.156,1.463-0.332,1.463-0.526
			C14.742-13.201,14.215-13.494,13.162-13.923z"/>
	</g>
</symbol>
<symbol  id="hash_02" viewBox="0 -17.439 41.232 17.439">
	<g>
		<defs>
			<path id="SVGID_12_" d="M41.2-9.375c0.087,0.825-0.271,1.6-1.075,2.325C40.484-6.483,40.509-6.2,40.2-6.2l-1.45,1.3
				c-0.367,0.333-0.967,0.483-1.8,0.45c-0.243-0.024-0.493-0.099-0.75-0.225c-0.009,0.364-0.026,0.614-0.05,0.75V-3.9
				c-0.044,0.111-0.153,0.203-0.325,0.275C35.73-3.586,35.622-3.544,35.5-3.5l-0.275,0.05C35.179-3.231,35.104-3.031,35-2.85
				c-0.167,0.3-0.5,0.533-1,0.7l-0.65,0.075c-0.03,0.017-0.063,0.025-0.1,0.025c-0.333,0-0.733-0.2-1.2-0.6
				c-0.276-0.203-0.501-0.419-0.675-0.65c-0.213-0.046-0.363-0.063-0.45-0.05H30.9c-0.667,0.434-1.35,0.867-2.05,1.3
				c-0.175,0.111-0.341,0.203-0.5,0.275c-0.538,0.43-1.238,0.821-2.1,1.175C25.55-0.267,24.8-0.133,24-0.2
				c-0.447-0.016-0.739-0.091-0.875-0.225L23.1-0.4c-0.162-0.347-0.271-0.631-0.325-0.85c-0.201-0.055-0.426-0.122-0.675-0.2
				c-0.367,0.1-0.7,0.25-1,0.45c-0.115,0.089-0.224,0.173-0.325,0.25c0.054,0.014,0.112,0.031,0.175,0.05L20.6-0.55L20.1-0.2
				c-0.133,0.167-0.333,0.217-0.6,0.15c-0.367-0.1-0.667-0.167-0.9-0.2l-1.5-0.5c0.035,0.007,0.102,0.007,0.2,0
				c-0.2,0-0.35-0.067-0.45-0.2l-0.025-0.025c-0.047-0.001-0.097-0.001-0.15,0C16.619-0.871,16.543-0.779,16.45-0.7
				c-0.297,0.25-0.771,0.408-1.425,0.475C14.453-0.122,14.011-0.164,13.7-0.35C13.287-0.117,12.97,0,12.75,0
				c-0.267,0-0.65-0.15-1.15-0.45l-0.45-0.3c-0.3-0.123-0.45-0.289-0.45-0.5c0-0.639,0.042-1.147,0.125-1.525
				C10.539-2.826,10.231-2.935,9.9-3.1L9.25-3.5C9.083-3.561,9-3.661,9-3.8v-0.3C8.967-4.167,8.917-4.217,8.85-4.25
				C8.418-4.291,8.018-4.441,7.65-4.7C7.604-4.718,7.554-4.735,7.5-4.75C7.399-4.778,7.299-4.804,7.2-4.825v0.675
				c0.033,0.2-0.85,0.3-2.65,0.3L3.3-4.35C2.661-4.563,2.228-4.805,2-5.075c-0.017-0.019-0.033-0.036-0.05-0.05
				C1.909-5.187,1.875-5.245,1.85-5.3c-0.017-0.05,0.017-0.092,0.1-0.125V-5.6L2.2-6.925C1.07-7.667,0.37-8.476,0.1-9.35
				c-0.1-0.344-0.125-0.677-0.075-1c-0.235-1.831,1.34-3.415,4.725-4.75c3.192-1.313,7.226-2.079,12.1-2.3
				c0.1,0.367,0.417,0.8,0.95,1.3c0.534,0.533,0.983,0.8,1.35,0.8c0.2,0,0.583-0.133,1.15-0.4l0.65-0.5
				c0.348-0.406,0.523-0.814,0.525-1.225c0.449,0.016,0.891,0.032,1.325,0.05c0.105,0.007,0.214,0.016,0.325,0.025
				c0.53,0.036,1.056,0.078,1.575,0.125c-0.102,0.052-0.186,0.11-0.25,0.175c0.1,0.133,0.333,0.2,0.7,0.2l0.55-0.1h0.25
				c-0.1,0.034-0.15,0.117-0.15,0.25l-0.1,0.5c0,0.3,0.167,0.6,0.5,0.9c0.367,0.333,0.833,0.5,1.4,0.5c0.1,0,0.4,0.066,0.9,0.2
				c0.933,0,1.4-0.35,1.4-1.05l-0.1-0.825c0.827,0.175,1.635,0.367,2.425,0.575L31.9-15.75c0,0.033-0.083,0.117-0.25,0.25
				c-0.2,0.133-0.3,0.283-0.3,0.45c0,0.433,0.283,0.65,0.85,0.65c0.367,0,0.716-0.067,1.05-0.2c0.367-0.133,0.55-0.316,0.55-0.55
				c0-0.069,0.008-0.152,0.025-0.25c0.598,0.181,1.156,0.373,1.675,0.575c-0.167,0.163-0.25,0.338-0.25,0.525
				c0,0.4,0.033,0.667,0.1,0.8c0.1,0.233,0.316,0.35,0.65,0.35c0.2,0,0.5-0.1,0.9-0.3c0.367-0.2,0.55-0.333,0.55-0.4
				c0-0.021,0.017-0.054,0.05-0.1c0.122,0.063,0.238,0.129,0.35,0.2l-0.1,0.25c0,0.4,0.2,0.6,0.6,0.6c0.167,0,0.367-0.067,0.6-0.2
				c1.173,0.826,1.89,1.727,2.15,2.7C41.202-10.046,41.235-9.705,41.2-9.375z"/>
		</defs>
		<clipPath id="SVGID_13_">
			<use xlink:href="#SVGID_12_"  style="overflow:visible;"/>
		</clipPath>
		<g id="Layer_1_3_" style="clip-path:url(#SVGID_13_);">
			
				<linearGradient id="SVGID_14_" gradientUnits="userSpaceOnUse" x1="-5.5234" y1="-2.9443" x2="29.7091" y2="-2.9443" gradientTransform="matrix(1.17 8.309536e-004 7.921354e-004 1.17 6.4746 -6.7734)">
				<stop  offset="0.0235" style="stop-color:#DADCDE"/>
				<stop  offset="1" style="stop-color:#B3B4B5"/>
			</linearGradient>
			<path style="fill-rule:evenodd;clip-rule:evenodd;fill:url(#SVGID_14_);" d="M41.125-10.413c-0.546-1.989-3.022-3.666-7.43-5.031
				c-4.407-1.403-9.438-2.067-15.093-1.988c-5.654,0.078-10.276,0.858-13.864,2.34C1.111-13.65-0.43-11.934,0.117-9.945
				c0.546,1.989,3.002,3.666,7.371,5.031c4.407,1.365,9.438,2.008,15.093,1.931c5.655-0.078,10.296-0.838,13.923-2.282
				C40.13-6.708,41.67-8.424,41.125-10.413z"/>
			
				<linearGradient id="SVGID_15_" gradientUnits="userSpaceOnUse" x1="18068.7656" y1="-14015.6748" x2="18107.082" y2="-14015.6748" gradientTransform="matrix(-1.1319 0.2961 -0.2961 -1.1319 16342.4189 -21228.9746)">
				<stop  offset="0" style="stop-color:#CCCCCC"/>
				<stop  offset="1" style="stop-color:#FFFFFF"/>
			</linearGradient>
			<path style="fill-rule:evenodd;clip-rule:evenodd;fill:url(#SVGID_15_);" d="M41.125-9.828c-0.546-1.833-3.022-3.374-7.43-4.622
				c-4.367-1.248-9.379-1.833-15.034-1.755c-5.655,0.039-10.296,0.741-13.923,2.106C1.111-12.772-0.43-11.193,0.117-9.36
				c0.546,1.833,3.002,3.373,7.371,4.622c4.407,1.248,9.438,1.833,15.093,1.755c5.655-0.078,10.296-0.78,13.923-2.106
				C40.13-6.416,41.67-7.995,41.125-9.828z"/>
			
				<linearGradient id="SVGID_16_" gradientUnits="userSpaceOnUse" x1="8.1206" y1="-14.2222" x2="40.3938" y2="-14.2222" gradientTransform="matrix(1.17 -9.062606e-004 -9.473556e-004 1.17 -7.7441 7.3867)">
				<stop  offset="0" style="stop-color:#CCCCCC"/>
				<stop  offset="1" style="stop-color:#FFFFFF"/>
			</linearGradient>
			<path style="fill-rule:evenodd;clip-rule:evenodd;fill:url(#SVGID_16_);" d="M39.428-9.477c-0.468-1.56-2.711-2.847-6.728-3.861
				c-4.017-1.053-8.619-1.541-13.806-1.462c-5.187,0.039-9.457,0.624-12.811,1.755c-3.315,1.131-4.719,2.457-4.212,3.978
				C2.378-7.547,4.641-6.26,8.657-5.207c4.018,1.014,8.619,1.501,13.806,1.462C27.65-3.822,31.901-4.407,35.216-5.5
				C38.531-6.63,39.935-7.956,39.428-9.477z"/>
			<path style="fill-rule:evenodd;clip-rule:evenodd;fill:#915922;" d="M31.063-3.92c0.156,0.468,0.488,0.897,0.995,1.287
				c0.468,0.391,0.858,0.585,1.17,0.585c0.273,0,0.507-0.254,0.702-0.761c0.195-0.429,0.292-0.819,0.292-1.17
				c0-0.234-0.41-0.273-1.229-0.117C31.94-3.939,31.296-3.881,31.063-3.92z"/>
			<path style="fill-rule:evenodd;clip-rule:evenodd;fill:#7D4E1E;" d="M33.929-4.914c0,1.014-0.059,1.677-0.175,1.989l-0.527,0.878
				l0.76-0.117c0.507-0.156,0.839-0.39,0.995-0.702c0.273-0.468,0.371-1.053,0.292-1.755L33.929-4.914z"/>
			<path style="fill-rule:evenodd;clip-rule:evenodd;fill:#915922;" d="M10.88-3.159c-0.117,0.39-0.176,1.033-0.176,1.931
				c0,0.234,0.176,0.409,0.527,0.526c0.195,0.078,0.41,0.156,0.644,0.234c0.156,0.156,0.702,0.019,1.638-0.41v-1.053L10.88-3.159z"
				/>
			<path style="fill-rule:evenodd;clip-rule:evenodd;fill:#7D4E1E;" d="M14.332-3.101c-0.546,1.014-1.014,1.677-1.404,1.989
				c-0.234,0.195-0.644,0.292-1.229,0.292L10.88-0.877l0.702,0.41C12.089-0.156,12.479,0,12.752,0c0.312,0,0.8-0.214,1.462-0.644
				c0.585-0.429,0.916-0.721,0.995-0.877C15.248-1.716,14.956-2.242,14.332-3.101z"/>
			<path style="fill-rule:evenodd;clip-rule:evenodd;fill:#CFA146;" d="M35.801-9.185l-1.697-0.292l0.292-0.292
				c0.117-0.273-0.097-0.585-0.643-0.936c-0.858-0.585-1.794-0.877-2.808-0.877c-0.702,0.273-1.19,0.449-1.462,0.526
				c-0.313,0.117-0.722,0.137-1.229,0.059c-0.663-0.117-1.131-0.371-1.403-0.76c-0.273-0.429-0.527-0.722-0.761-0.877
				c-0.156-0.078-0.409-0.117-0.76-0.117l-2.925-0.059c-0.195,0-0.37,0.078-0.526,0.234c-0.156,0.195-0.234,0.351-0.234,0.468
				c0,0.156-0.312,0.409-0.936,0.76c-2.067-0.117-3.627-0.272-4.68-0.468c-0.741-0.117-1.151-0.176-1.229-0.176
				c-0.078,0-0.273,0.059-0.585,0.176c-0.39,0.156-0.682,0.273-0.877,0.351c-0.312,0.117-0.566,0.156-0.761,0.117
				c-1.716-0.507-2.69-0.644-2.925-0.409c-0.546,0.545-0.819,0.917-0.819,1.111c0.04,0.195,0.04,0.331,0,0.41
				c-0.078,0.195-0.331,0.312-0.76,0.351C6.902-9.77,6.181-9.438,5.908-8.892C5.752-8.58,5.693-8.015,5.732-7.195
				c0.078,0.897,0.351,1.403,0.819,1.521C6.708-5.636,6.902-5.46,7.137-5.148c0.195,0.234,0.429,0.351,0.702,0.351
				c0.78,0,1.17,0.234,1.17,0.702c0,0.429,0.39,0.761,1.17,0.995c0.936,0.156,1.404,0.487,1.404,0.995
				c0,0.312,0.214,0.644,0.644,0.994c0.429,0.352,0.917,0.507,1.462,0.468c1.482-0.078,2.34-0.156,2.574-0.234
				c0.546-0.156,0.897-0.117,1.053,0.117c0.117,0.156,0.741,0.312,1.872,0.468c0.39,0.078,0.761,0.019,1.112-0.175
				c0.234-0.117,0.507-0.292,0.819-0.527c0.273-0.195,0.605-0.351,0.995-0.468l1.462,0.351c0.312,0.117,0.916-0.039,1.814-0.468
				c0.389-0.156,0.955-0.156,1.696,0c0.429,0.156,1.014,0,1.755-0.468c0.702-0.429,1.385-0.858,2.048-1.287
				c0.273-0.078,0.916,0.019,1.93,0.292c0.39,0,0.937-0.097,1.638-0.292c0.039,0,0.39-0.078,1.053-0.234
				c0.351-0.04,0.565-0.156,0.643-0.352c0.039-0.156,0.059-0.565,0.059-1.228c0-0.546,0.039-0.839,0.116-0.877
				c0.117-0.117,0.702-0.273,1.755-0.468c0.156-0.04,0.214-0.215,0.176-0.527c-0.04-0.156-0.078-0.448-0.117-0.877
				c0-0.546-0.332-0.975-0.995-1.287c-0.156-0.078-0.351-0.097-0.585-0.058C36.171-9.204,35.918-9.185,35.801-9.185z"/>
			<path style="fill-rule:evenodd;clip-rule:evenodd;fill:#FFE191;" d="M5.206-5.616H3.275c-0.039,0-0.351,0.039-0.936,0.116
				C1.989-5.46,1.833-5.401,1.872-5.323c0.156,0.39,0.624,0.722,1.404,0.994l1.287,0.468c1.794,0,2.671-0.098,2.632-0.292
				C7.117-4.349,6.454-4.836,5.206-5.616z"/>
			<path style="fill-rule:evenodd;clip-rule:evenodd;fill:#E6C15C;" d="M1.93-5.616v0.468c0,0.117,0.41,0.175,1.229,0.175
				C3.783-5.011,4.29-5.051,4.68-5.09c0.195-0.039,0.331-0.351,0.41-0.936c0.078-0.352,0.156-0.858,0.233-1.521
				c0.04-0.39-0.02-0.585-0.175-0.585C4.875-8.092,4.582-8.034,4.27-7.956C2.983-7.8,2.339-7.703,2.339-7.663L1.93-5.616z"/>
			<path style="fill-rule:evenodd;clip-rule:evenodd;fill:#CFA146;" d="M7.195-4.153v-2.165c0-0.468-0.097-0.78-0.292-0.937
				C6.747-7.41,6.454-7.605,6.025-7.839c-0.468-0.233-0.76-0.312-0.877-0.233C5.03-7.995,4.933-7.8,4.855-7.488L4.796-7.02
				C4.718-6.708,4.68-6.298,4.68-5.792v0.702l1.638,0.644C6.708-4.251,7-4.153,7.195-4.153z"/>
			<path style="fill-rule:evenodd;clip-rule:evenodd;fill:#E6C15C;" d="M7.722-8.015c-0.039-0.195-0.39-0.195-1.053,0
				C5.967-7.819,5.655-7.488,5.732-7.02c0.039,0.507,0.156,0.897,0.351,1.17c0.195,0.234,0.351,0.292,0.468,0.175
				C6.59-5.713,6.825-5.792,7.254-5.908c0.389-0.117,0.585-0.215,0.585-0.292C7.839-6.903,7.799-7.507,7.722-8.015z"/>
			<path style="fill-rule:evenodd;clip-rule:evenodd;fill:#E6C15C;" d="M3.86-7.195c0.858,0.351,1.541,0.487,2.047,0.41
				C6.454-6.864,6.961-7.04,7.429-7.313c0.507-0.312,0.76-0.604,0.76-0.877c0-1.092-0.137-1.677-0.41-1.755
				c-1.287-0.273-2.028-0.449-2.223-0.527c-0.39-0.117-0.975,0.02-1.755,0.41C3.412-9.906,3.198-9.809,3.159-9.77
				C3.081-9.691,3.022-9.574,2.983-9.418C3.022-8.989,3.061-8.502,3.1-7.956c0,0.312,0.098,0.526,0.292,0.643
				C3.471-7.273,3.626-7.234,3.86-7.195z"/>
			<path style="fill-rule:evenodd;clip-rule:evenodd;fill:#CFA146;" d="M5.323-9.418L5.147-8.073
				C5.108-7.956,5.576-7.859,6.552-7.78c0.897,0.078,1.403,0.078,1.521,0c0.117-0.039,0.156-0.352,0.117-0.937
				c0-0.507-0.039-0.897-0.117-1.17c-0.039-0.156-0.078-0.214-0.117-0.175c0,0.078-0.058,0.117-0.175,0.117l-2.223-0.527
				c-0.195-0.039-0.292,0.078-0.292,0.352C5.343-9.809,5.362-9.574,5.323-9.418z"/>
			<path style="fill-rule:evenodd;clip-rule:evenodd;fill:#FFE191;" d="M5.908-6.786c0.273,0,0.683-0.117,1.229-0.352
				C7.643-7.371,7.955-7.585,8.072-7.78C8.189-7.937,7.839-8.092,7.02-8.248C6.317-8.365,5.732-8.424,5.265-8.424
				c-0.195,0-0.546,0.078-1.053,0.234c-0.507,0.195-0.78,0.351-0.819,0.468C3.236-7.566,3.178-7.488,3.217-7.488
				c0,0.078,0.214,0.175,0.644,0.292C4.796-6.922,5.479-6.786,5.908-6.786z"/>
			<path style="fill-rule:evenodd;clip-rule:evenodd;fill:#E6C15C;" d="M9.242-9.126L9.71-9.477c0.469-0.468,0.702-0.76,0.702-0.877
				c0-0.429-0.253-0.897-0.76-1.404c-0.117-0.078-0.253,0-0.41,0.234c-0.195,0.234-0.331,0.526-0.41,0.877
				C8.755-10.296,8.892-9.789,9.242-9.126z"/>
			<path style="fill-rule:evenodd;clip-rule:evenodd;fill:#E6C15C;" d="M14.507-12.109l-1.229,0.585
				c-0.312,0.195-0.468,0.312-0.468,0.351l0.409,0.819c0.04,0.195,0.078,0.312,0.117,0.351c0.117,0.078,0.312,0.059,0.585-0.059
				c0.195-0.117,0.488-0.234,0.877-0.351c0.273-0.117,0.371-0.292,0.292-0.526L14.507-12.109z"/>
			<path style="fill-rule:evenodd;clip-rule:evenodd;fill:#E6C15C;" d="M20.708-11.349c0.156,0.313,0.234,0.546,0.234,0.702
				c0,0.078,0.098,0.117,0.292,0.117c0.195,0,0.331-0.039,0.409-0.117c0.079-0.039,0.117-0.175,0.117-0.41
				c0-0.234-0.019-0.39-0.059-0.468L21.644-11.7C21.41-11.778,21.098-11.661,20.708-11.349z"/>
			<path style="fill-rule:evenodd;clip-rule:evenodd;fill:#E6C15C;" d="M22.639-12.753c-0.39-0.195-0.721,0.02-0.995,0.644
				c-0.078,0.156-0.058,0.312,0.059,0.468c0.078,0.117,0.215,0.292,0.41,0.527l0.41,0.468l0.175-0.936
				c0-0.117,0.039-0.331,0.117-0.644C22.853-12.499,22.795-12.675,22.639-12.753z"/>
			<path style="fill-rule:evenodd;clip-rule:evenodd;fill:#E6C15C;" d="M28.898-10.881c-0.117-0.078-0.117,0.039,0,0.351
				c0.078,0.273,0.156,0.468,0.233,0.585c0.039,0.156,0.156,0.292,0.352,0.41c0.195,0.156,0.37,0.117,0.526-0.117
				c0.897-1.014,1.287-1.638,1.17-1.872c-0.078-0.195-0.371-0.137-0.877,0.175C29.561-10.881,29.093-10.725,28.898-10.881z"/>
			<path style="fill-rule:evenodd;clip-rule:evenodd;fill:#E6C15C;" d="M35.801-9.185l-1.697-0.292c0,0.039-0.058,0.175-0.175,0.41
				c-0.079,0.156,0,0.312,0.234,0.468c0.195,0.117,0.429,0.312,0.702,0.585c0.234,0.156,0.469,0.254,0.702,0.292
				c0.352,0,0.722-0.058,1.112-0.175l0.117-1.112v-0.233C36.601-9.165,36.269-9.146,35.801-9.185z"/>
			<path style="fill-rule:evenodd;clip-rule:evenodd;fill:#E6C15C;" d="M12.694-5.675c0.429,0,0.722-0.331,0.877-0.995
				c0.039-0.116-0.253-0.37-0.877-0.76c-0.156-0.078-0.351,0.039-0.585,0.352c-0.312,0.351-0.526,0.585-0.644,0.701
				c-0.156,0.156-0.097,0.332,0.176,0.527C11.953-5.694,12.304-5.636,12.694-5.675z"/>
			<path style="fill-rule:evenodd;clip-rule:evenodd;fill:#E6C15C;" d="M8.833-4.505c-0.078,0.039-0.078,0.117,0,0.234
				c0.079,0.039,0.137,0.097,0.176,0.175v0.292c0,0.273,0.312,0.39,0.936,0.351c0.585-0.039,0.897-0.137,0.936-0.292
				c0.039-0.156,0.078-0.39,0.117-0.702c0.039-0.156-0.156-0.313-0.585-0.468c-0.078-0.039-0.351,0.02-0.818,0.176L8.833-4.505z"/>
			<path style="fill-rule:evenodd;clip-rule:evenodd;fill:#E6C15C;" d="M11.583-2.106c0.117,0.117,0.136,0.312,0.059,0.585
				c0.117,0.156,0.448,0.195,0.994,0.117l0.644-0.409c0.273-0.156,0.39-0.253,0.351-0.292c-0.156-0.117-0.234-0.195-0.234-0.234
				c0-0.312-0.546-0.371-1.638-0.176c-0.312,0.039-0.449,0.097-0.409,0.176C11.349-2.223,11.426-2.146,11.583-2.106z"/>
			<path style="fill-rule:evenodd;clip-rule:evenodd;fill:#E6C15C;" d="M17.315-0.76c0.546-0.117,1.307-0.137,2.282-0.059
				c0.429-0.078,0.566-0.195,0.41-0.351c-0.273-0.156-0.448-0.273-0.527-0.351c-0.117-0.078-0.799,0-2.047,0.234
				c-0.507,0.117-0.702,0.234-0.585,0.351C16.964-0.819,17.12-0.76,17.315-0.76z"/>
			<path style="fill-rule:evenodd;clip-rule:evenodd;fill:#E6C15C;" d="M16.847-3.627c0.273-0.039,0.585-0.293,0.937-0.761
				c0.312-0.506,0.429-0.819,0.351-0.936c-0.156-0.352-0.292-0.585-0.41-0.702c-0.117-0.195-0.507-0.117-1.17,0.233
				c-0.585,0.273-1.014,0.527-1.287,0.761c-0.156,0.117-0.137,0.37,0.059,0.76c0.233,0.39,0.351,0.624,0.351,0.702
				C15.677-3.413,16.067-3.432,16.847-3.627z"/>
			<path style="fill-rule:evenodd;clip-rule:evenodd;fill:#E6C15C;" d="M15.677-6.903c0.312-0.117,0.702-0.39,1.17-0.819
				c0.468-0.468,0.644-0.741,0.527-0.818c-0.624-0.429-1.014-0.644-1.17-0.644c-0.079,0-0.292,0.156-0.644,0.468
				c-0.39,0.352-0.643,0.585-0.76,0.702c-0.156,0.156-0.117,0.39,0.117,0.702C15.151-7,15.404-6.864,15.677-6.903z"/>
			<path style="fill-rule:evenodd;clip-rule:evenodd;fill:#E6C15C;" d="M10.529-7.663c0.234-0.079,0.39-0.234,0.468-0.469
				c0.079-0.233,0.039-0.429-0.117-0.585c-0.117-0.156-0.234-0.175-0.351-0.058c-0.195,0.273-0.331,0.429-0.41,0.468
				C9.886-8.19,9.866-8.034,10.062-7.839C10.217-7.644,10.374-7.585,10.529-7.663z"/>
			<path style="fill-rule:evenodd;clip-rule:evenodd;fill:#E6C15C;" d="M21.235-5.967c0.546-0.078,0.956-0.214,1.229-0.41
				c0.312-0.233,0.351-0.506,0.117-0.818c-0.195-0.273-0.351-0.39-0.468-0.352c-0.195,0.04-0.39,0.059-0.585,0.059
				c-0.468-0.039-0.936,0.097-1.404,0.41c-0.273,0.195-0.273,0.429,0,0.701C20.396-6.064,20.767-5.928,21.235-5.967z"/>
			<path style="fill-rule:evenodd;clip-rule:evenodd;fill:#E6C15C;" d="M19.714-8.365c0.351,0.039,0.624-0.059,0.819-0.292
				c0.195-0.195,0.292-0.39,0.292-0.585c0-0.352-0.487-0.527-1.462-0.527c-0.507,0-0.799,0.039-0.878,0.117
				c-0.116,0.039-0.175,0.195-0.175,0.468C18.232-8.677,18.7-8.404,19.714-8.365z"/>
			<path style="fill-rule:evenodd;clip-rule:evenodd;fill:#E6C15C;" d="M20.649-2.808c1.366-0.156,2.028-0.351,1.989-0.585
				c0-0.156-0.019-0.39-0.059-0.702c-0.078-0.234-0.234-0.331-0.468-0.292c-0.741,0.079-1.346,0.214-1.813,0.41
				c-0.273,0.078-0.371,0.292-0.292,0.644C20.084-2.944,20.299-2.769,20.649-2.808z"/>
			<path style="fill-rule:evenodd;clip-rule:evenodd;fill:#E6C15C;" d="M26.032-3.568c0.273,0,0.643-0.234,1.112-0.702
				c0.506-0.429,0.701-0.76,0.585-0.995C27.65-5.46,27.572-5.538,27.494-5.5c-0.117,0.04-0.253,0.079-0.41,0.117
				c-0.585,0.352-1.131,0.546-1.638,0.585c-0.351,0.039-0.429,0.254-0.234,0.644C25.369-3.764,25.642-3.568,26.032-3.568z"/>
			<path style="fill-rule:evenodd;clip-rule:evenodd;fill:#E6C15C;" d="M25.154-5.792C26.051-5.87,26.5-6.104,26.5-6.493
				c0-0.352-0.117-0.625-0.351-0.819c-0.195-0.156-0.39-0.156-0.585,0C25.291-7,24.998-6.747,24.687-6.552
				c-0.391,0.273-0.488,0.488-0.292,0.644C24.55-5.792,24.803-5.752,25.154-5.792z"/>
			<path style="fill-rule:evenodd;clip-rule:evenodd;fill:#E6C15C;" d="M30.009-6.435c0.897-0.351,1.326-0.683,1.287-0.995
				c-0.039-0.156-0.448-0.331-1.228-0.526c-0.313-0.079-0.507-0.059-0.585,0.058c-0.117,0.234-0.273,0.39-0.468,0.468
				c-0.351,0.195-0.39,0.449-0.117,0.76C29.21-6.318,29.581-6.24,30.009-6.435z"/>
			<path style="fill-rule:evenodd;clip-rule:evenodd;fill:#E6C15C;" d="M33.871-5.265c0.429,0,0.799-0.136,1.111-0.41
				c0.312-0.273,0.371-0.506,0.175-0.702c-0.233-0.195-0.565-0.351-0.994-0.468c-0.234-0.078-0.429,0.02-0.585,0.292
				c-0.117,0.352-0.234,0.585-0.351,0.702c-0.117,0.156-0.097,0.292,0.059,0.41C33.442-5.323,33.637-5.265,33.871-5.265z"/>
			<path style="fill-rule:evenodd;clip-rule:evenodd;fill:#E6C15C;" d="M31.063-3.92c0.429-0.039,0.625-0.156,0.585-0.351
				c-0.039-0.117-0.156-0.292-0.351-0.527c-0.117-0.156-0.429-0.156-0.936,0c-0.352,0.079-0.663,0.391-0.937,0.937
				c-0.156,0.234-0.058,0.312,0.292,0.234L31.063-3.92z"/>
			<path style="fill-rule:evenodd;clip-rule:evenodd;fill:#E6C15C;" d="M25.271-1.872c0.312,0,0.429-0.137,0.351-0.41
				c-0.078-0.272-0.253-0.449-0.526-0.526c-0.195-0.078-0.351-0.019-0.468,0.175l-0.409,0.761c-0.117,0.156-0.098,0.215,0.059,0.175
				C24.667-1.813,24.998-1.872,25.271-1.872z"/>
			<path style="fill-rule:evenodd;clip-rule:evenodd;fill:#E6C15C;" d="M27.084-1.58c0.39,0.039,0.585-0.02,0.585-0.175
				c0-0.039-0.097-0.176-0.292-0.41c-0.117-0.117-0.292-0.117-0.526,0c-0.273,0.156-0.449,0.253-0.527,0.292
				C26.051-1.677,26.305-1.58,27.084-1.58z"/>
			<path style="fill-rule:evenodd;clip-rule:evenodd;fill:#E6C15C;" d="M30.887-3.334c0.117-0.039,0.429,0,0.936,0.117
				c0.546,0.117,0.877,0.176,0.994,0.176c0.234,0,0.313-0.078,0.234-0.234c-0.079-0.195-0.312-0.39-0.702-0.585
				c-0.351-0.156-0.722-0.098-1.111,0.175C30.692-3.334,30.575-3.218,30.887-3.334z"/>
			<path style="fill-rule:evenodd;clip-rule:evenodd;fill:#FFE191;" d="M9.242-3.686c-0.078,0-0.097,0.02-0.058,0.059
				c0,0.039,0.02,0.078,0.058,0.117l0.644,0.41c0.468,0.234,0.897,0.351,1.287,0.351c1.209,0,1.716-0.059,1.521-0.176
				c-0.351-0.273-0.644-0.468-0.877-0.585c-0.351-0.234-0.663-0.312-0.936-0.234C9.983-3.744,9.438-3.724,9.242-3.686z"/>
			<path style="fill-rule:evenodd;clip-rule:evenodd;fill:#FFE191;" d="M11.641-1.521c0.156,0.468,0.526,0.78,1.111,0.936
				c0.234,0.078,0.585,0.117,1.053,0.117c0.429,0,0.702-0.059,0.819-0.176l0.234-0.176c-0.078,0-0.253-0.117-0.526-0.351
				l-0.819-0.761c-0.312,0.351-0.604,0.526-0.877,0.526L11.641-1.521z"/>
			<path style="fill-rule:evenodd;clip-rule:evenodd;fill:#FFE191;" d="M17.082-0.76l1.521,0.526
				c0.234,0.04,0.527,0.098,0.877,0.176c0.273,0.078,0.488,0.039,0.644-0.117l0.468-0.352l0.351-0.175
				c-0.429-0.117-0.741-0.175-0.936-0.175C18.251-0.76,17.276-0.722,17.082-0.76z"/>
			<path style="fill-rule:evenodd;clip-rule:evenodd;fill:#FFE191;" d="M18.661-4.212c-0.117-0.351-0.273-0.643-0.469-0.877
				l-1.345,1.463C16.77-3.51,16.555-3.471,16.204-3.51l-0.527-0.058c0.039,0.195,0.098,0.37,0.175,0.526
				c0.117,0.39,0.273,0.585,0.469,0.585c0.468,0.039,0.994-0.02,1.579-0.176c0.507-0.117,0.858-0.253,1.054-0.409
				c0.156-0.117,0.175-0.292,0.058-0.526C18.973-3.686,18.856-3.9,18.661-4.212z"/>
			<path style="fill-rule:evenodd;clip-rule:evenodd;fill:#FFE191;" d="M11.29-6.084l0.761,0.761
				c0.234,0.233,0.644,0.351,1.229,0.351h0.41l-0.644-0.76c-0.39,0.078-0.682,0.058-0.877-0.059L11.29-6.084z"/>
			<path style="fill-rule:evenodd;clip-rule:evenodd;fill:#FFE191;" d="M10.646-7.313c0.117,0.117,0.39,0.156,0.819,0.117
				l-0.702-0.468h-0.234c-0.183-0.037-0.348-0.125-0.497-0.264L10.646-7.313z"/>
			<path style="fill-rule:evenodd;clip-rule:evenodd;fill:#FFE191;" d="M7.839-6.201C7.76-6.123,7.487-6.025,7.02-5.908
				c-0.39,0.116-0.546,0.195-0.468,0.233c0.078,0.039,0.214,0.195,0.41,0.468c0.195,0.234,0.37,0.351,0.526,0.351
				c0.273,0,0.585-0.059,0.937-0.175c0.701-0.078,1.092-0.195,1.17-0.352C9.671-5.5,9.613-5.577,9.417-5.616
				C9.028-5.733,8.794-5.811,8.716-5.85L7.839-6.201z"/>
			<path style="fill-rule:evenodd;clip-rule:evenodd;fill:#FFE191;" d="M20.24-5.967c0.078,0.079,0.176,0.215,0.292,0.41
				c0.156,0.195,0.313,0.292,0.468,0.292l2.691-0.117L22.697-6.26l-0.234-0.175C22.19-6.318,21.839-6.26,21.41-6.26l-1.462-0.292
				L20.24-5.967z"/>
			<path style="fill-rule:evenodd;clip-rule:evenodd;fill:#FFE191;" d="M23.575-2.165l-0.877-0.995l-0.234-0.175
				c-0.234,0.195-0.585,0.312-1.053,0.351c-0.312,0.039-0.624,0.039-0.936,0l-0.41-0.059l0.527,0.585l0.995,0.585L23.575-2.165z"/>
			<path style="fill-rule:evenodd;clip-rule:evenodd;fill:#FFE191;" d="M24.16-1.697c-0.234,0.078-0.917,0.156-2.047,0.234
				c1.053,0.351,1.735,0.487,2.047,0.409C24.433-1.17,24.433-1.384,24.16-1.697z"/>
			<path style="fill-rule:evenodd;clip-rule:evenodd;fill:#FFE191;" d="M25.856-3.51l1.053,0.292
				c0.195,0.117,0.527,0.079,0.995-0.117c0.351-0.234,0.468-0.429,0.351-0.585l-0.468-0.994c-0.351,0.39-0.643,0.644-0.877,0.761
				L25.856-3.51z"/>
			<path style="fill-rule:evenodd;clip-rule:evenodd;fill:#FFE191;" d="M24.277-5.967l0.175,0.234
				c0.156,0.195,0.331,0.312,0.527,0.351c0.273,0.117,0.585,0.176,0.936,0.176l0.702-0.059l-0.175-0.819
				C26.09-5.889,25.72-5.811,25.33-5.85L24.277-5.967z"/>
			<path style="fill-rule:evenodd;clip-rule:evenodd;fill:#FFE191;" d="M28.723-7.078c-0.117-0.117-0.097,0,0.059,0.351
				c0.195,0.351,0.37,0.585,0.526,0.702c0.234,0.156,0.488,0.273,0.761,0.351l0.468-0.233c0.468-0.741,0.507-1.054,0.117-0.937
				c-0.273,0.117-0.585,0.156-0.937,0.117C29.288-6.728,28.957-6.845,28.723-7.078z"/>
			<path style="fill-rule:evenodd;clip-rule:evenodd;fill:#FFE191;" d="M23.458-10.179c0.39,0.04,0.702-0.039,0.937-0.234
				c0.233-0.195,0.253-0.371,0.058-0.526c-0.195-0.117-0.41-0.137-0.643-0.059c-0.039,0-0.312,0.117-0.819,0.351
				C22.522-10.413,22.678-10.257,23.458-10.179z"/>
			<path style="fill-rule:evenodd;clip-rule:evenodd;fill:#FFE191;" d="M29.717-9.36c0.937,0.195,1.541,0.292,1.814,0.292
				c0.702,0,0.994-0.059,0.877-0.175c-0.195-0.273-0.507-0.41-0.936-0.41H30.77C30.185-9.458,29.834-9.36,29.717-9.36z"/>
			<path style="fill-rule:evenodd;clip-rule:evenodd;fill:#FFE191;" d="M35.742-6.552c0.234,0.352,0.429,0.527,0.585,0.527
				c0.195,0,0.527-0.059,0.995-0.175c0.429-0.117,0.683-0.215,0.761-0.292c0.039-0.04-0.02-0.098-0.176-0.176
				c-0.117-0.039-0.117-0.097,0-0.175c0.312-0.117,0.117-0.233-0.585-0.351c-0.39-0.352-0.702-0.527-0.936-0.527
				c-0.429,0-0.819-0.02-1.17-0.058c-0.352-0.039-0.312,0.156,0.117,0.585L35.742-6.552z"/>
			<path style="fill-rule:evenodd;clip-rule:evenodd;fill:#FFE191;" d="M36.152-3.92c0.039-0.117-0.058-0.273-0.292-0.468
				c-0.195-0.156-0.39-0.234-0.585-0.234c-0.975,0-1.384,0.078-1.228,0.234c0.078,0.079,0.214,0.175,0.409,0.292
				c0.117,0.117,0.214,0.234,0.293,0.351l0.233,0.351l0.527-0.117C35.859-3.627,36.074-3.764,36.152-3.92z"/>
			<path style="fill-rule:evenodd;clip-rule:evenodd;fill:#E6C15C;" d="M4.036-11.642c0.468,0.156,0.897,0.215,1.287,0.176
				c1.014-0.117,1.521-0.273,1.521-0.468c0-0.039,0.058-0.156,0.175-0.351s0.156-0.371,0.117-0.526
				c-0.039-0.156-0.156-0.272-0.352-0.351c-0.39-0.078-0.604-0.136-0.643-0.175c-0.117-0.078-0.273-0.195-0.468-0.351
				c-0.196-0.078-0.41-0.117-0.644-0.117c-0.272,0-0.585,0.058-0.936,0.175c-0.312,0.156-0.507,0.292-0.585,0.41
				c-0.079,0.195-0.117,0.624-0.117,1.287C3.393-11.856,3.607-11.758,4.036-11.642z"/>
			<path style="fill-rule:evenodd;clip-rule:evenodd;fill:#E6C15C;" d="M1.93-9.828c0.546,0,0.956-0.079,1.229-0.234
				c0.429-0.273,0.487-0.644,0.175-1.111c-0.078-0.117-0.234-0.215-0.468-0.292c-0.313-0.117-0.565-0.215-0.761-0.292
				c-0.195-0.117-0.351-0.136-0.468-0.059c-0.194,0.156-0.351,0.253-0.468,0.292c-0.351,0.039-0.526,0.448-0.526,1.229
				C0.643-9.984,1.072-9.828,1.93-9.828z"/>
			<path style="fill-rule:evenodd;clip-rule:evenodd;fill:#E6C15C;" d="M14.975-14.274c0.897-0.039,1.326-0.234,1.287-0.585
				c-0.039-0.194-0.195-0.429-0.468-0.701c-0.078-0.234-0.585-0.273-1.521-0.117c-0.273,0.039-0.41,0.117-0.41,0.233
				c0.078,0.117,0.097,0.234,0.059,0.352c-0.078,0.156,0,0.332,0.234,0.526C14.39-14.371,14.663-14.274,14.975-14.274z"/>
			<path style="fill-rule:evenodd;clip-rule:evenodd;fill:#E6C15C;" d="M29.951-12.343c1.092-0.078,1.638-0.273,1.638-0.585
				c0-0.078,0.02-0.234,0.059-0.468c0.04-0.156,0.02-0.292-0.059-0.409c-0.039-0.117-0.565-0.273-1.58-0.468
				c-0.468-0.078-1.053,0.078-1.755,0.468c-0.351,0.312-0.351,0.702,0,1.17c0.156,0.234,0.332,0.37,0.527,0.409
				C28.937-12.227,29.328-12.266,29.951-12.343z"/>
			<path style="fill-rule:evenodd;clip-rule:evenodd;fill:#E6C15C;" d="M33.286-11.817c0.429,0,0.838-0.078,1.229-0.234
				c0.351-0.117,0.527-0.253,0.527-0.41c0-0.117-0.352-0.331-1.054-0.644c-0.545,0.078-0.994,0.136-1.345,0.176
				c-0.195,0-0.312,0.058-0.351,0.175v0.41C32.291-11.993,32.623-11.817,33.286-11.817z"/>
			<path style="fill-rule:evenodd;clip-rule:evenodd;fill:#E6C15C;" d="M40.13-8.658c0.507-0.117,0.721-0.352,0.644-0.702
				c-0.039-0.195-0.156-0.468-0.351-0.819c-0.078-0.272-0.429-0.409-1.053-0.409c-0.78,0-1.17,0.175-1.17,0.526
				c0,0.273,0.117,0.585,0.352,0.936C38.901-8.658,39.428-8.502,40.13-8.658z"/>
			<path style="fill-rule:evenodd;clip-rule:evenodd;fill:#CFA146;" d="M3.042-10.296c0.273,0.117,0.41-0.02,0.41-0.41
				c0-0.156-0.04-0.312-0.117-0.468l-0.468-0.292l-1.053-0.468l0.117,0.468v0.819l0.585,0.175
				C2.632-10.472,2.808-10.413,3.042-10.296z"/>
			<path style="fill-rule:evenodd;clip-rule:evenodd;fill:#CFA146;" d="M5.206-13.806v1.17l0.819,0.234
				c0.195,0.039,0.468,0.195,0.819,0.468l0.41-0.877H7.137c-0.468-0.312-0.8-0.487-0.995-0.526L5.206-13.806z"/>
			<path style="fill-rule:evenodd;clip-rule:evenodd;fill:#CFA146;" d="M15.502-15.093l0.527,0.468
				c0.156,0.117,0.253,0.078,0.292-0.117c-0.117-0.273-0.292-0.546-0.527-0.818c-0.234-0.234-0.351-0.292-0.351-0.176L15.502-15.093
				z"/>
			<path style="fill-rule:evenodd;clip-rule:evenodd;fill:#CFA146;" d="M29.366-14.098l0.175,0.175l0.468,0.702l0.937,0.117
				l0.643,0.176l0.176-0.644l-0.176-0.233c-0.156-0.273-0.468-0.448-0.936-0.527c-0.351-0.039-0.663-0.02-0.937,0.059L29.366-14.098
				z"/>
			<path style="fill-rule:evenodd;clip-rule:evenodd;fill:#CFA146;" d="M34.163-12.402l0.351,0.175c0.156,0.078,0.312,0.078,0.468,0
				c0.117-0.039,0.117-0.175,0-0.409c-0.117-0.156-0.273-0.292-0.468-0.41c-0.117-0.078-0.273-0.117-0.468-0.117l-0.292,0.059
				l0.058,0.176l0.234,0.526H34.163z"/>
			<path style="fill-rule:evenodd;clip-rule:evenodd;fill:#CFA146;" d="M40.598-8.833c0.156,0.039,0.234-0.059,0.234-0.292
				s-0.059-0.429-0.176-0.585l-0.468-1.053v0.234l-0.175,0.819l0.175,0.351C40.306-9.087,40.442-8.912,40.598-8.833z"/>
			<path style="fill-rule:evenodd;clip-rule:evenodd;fill:#FFE191;" d="M1.93-10.647c-0.351,0.195-0.585,0.292-0.702,0.292
				l-0.585,0.059c-0.078,0.272,0.176,0.429,0.761,0.468c0.78,0.039,1.365-0.039,1.755-0.234l0.234-0.175L1.93-10.647z"/>
			<path style="fill-rule:evenodd;clip-rule:evenodd;fill:#FFE191;" d="M5.206-12.636v-0.059l-0.877,0.468l-0.936,0.292l1.404,0.468
				c1.053,0,1.638-0.02,1.755-0.059c0.233-0.117,0.331-0.254,0.292-0.41l-1.053-0.468C5.557-12.558,5.362-12.636,5.206-12.636z"/>
			<path style="fill-rule:evenodd;clip-rule:evenodd;fill:#FFE191;" d="M15.502-15.093l-0.995,0.117h-0.292
				c-0.429-0.117-0.546-0.078-0.351,0.116c0.429,0.429,0.917,0.625,1.463,0.585c0.506-0.039,0.741-0.156,0.702-0.351L15.502-15.093z
				"/>
			<path style="fill-rule:evenodd;clip-rule:evenodd;fill:#FFE191;" d="M30.009-13.221c-0.506,0.195-0.838,0.39-0.994,0.585
				l-0.468,0.292l0.176,0.117c0.195,0.078,0.429,0.078,0.702,0c1.404-0.234,2.106-0.409,2.106-0.526c0-0.273-0.292-0.41-0.877-0.41
				L30.009-13.221z"/>
			<path style="fill-rule:evenodd;clip-rule:evenodd;fill:#FFE191;" d="M32.35-12.109l0.234,0.117
				c0.234,0.117,0.468,0.176,0.702,0.176c0.39-0.039,0.956-0.176,1.696-0.41l-0.936-0.175L32.35-12.109z"/>
			<path style="fill-rule:evenodd;clip-rule:evenodd;fill:#FFE191;" d="M38.258-9.477l0.175,0.351
				c0.156,0.273,0.351,0.429,0.585,0.468c0.351,0.078,0.877,0.019,1.58-0.176l-0.585-0.877c-0.195,0.156-0.429,0.234-0.702,0.234
				H38.258z"/>
			<path style="fill-rule:evenodd;clip-rule:evenodd;fill:#915922;" d="M11.29-13.338c0.079-0.273,0.059-0.546-0.058-0.819
				c-0.195-0.351-0.468-0.429-0.819-0.233c-1.755,0.468-2.71,0.76-2.866,0.877c-0.079,0.039-0.156,0.351-0.234,0.936
				c-0.039,0.585-0.078,0.917-0.117,0.995c-0.117,0.546,0.175,0.819,0.877,0.819c1.482,0,2.282-0.078,2.399-0.234
				C10.51-11.037,10.783-11.817,11.29-13.338z"/>
			<path style="fill-rule:evenodd;clip-rule:evenodd;fill:#7D4E1E;" d="M11.934-14.04c-0.819-0.39-1.229-0.526-1.229-0.41
				l-0.058,2.457l-0.175,0.995l1.17,0.585c0.702,0.312,1.248,0.507,1.638,0.585l0.117-2.458c0-0.234,0.059-0.487,0.175-0.76
				L11.934-14.04z"/>
			<path style="fill-rule:evenodd;clip-rule:evenodd;fill:#B36F2B;" d="M9.652-9.418l1.872-0.292c0.585,0,1.111-0.059,1.58-0.176
				l-2.632-1.111c-0.468,0-0.897,0.039-1.287,0.117l-1.989-0.117c0.117,0.117,0.254,0.254,0.41,0.41
				c0.273,0.312,0.527,0.526,0.76,0.644C8.716-9.789,9.145-9.614,9.652-9.418z"/>
			<path style="fill-rule:evenodd;clip-rule:evenodd;fill:#B36F2B;" d="M9.067-4.271c1.365-0.039,2.204-0.234,2.516-0.585
				c0.234-0.234,0.175-0.468-0.176-0.702l-1.58-1.17L6.902-5.5c-0.233,0.156,0,0.41,0.702,0.761
				C8.034-4.426,8.521-4.271,9.067-4.271z"/>
			<path style="fill-rule:evenodd;clip-rule:evenodd;fill:#7D4E1E;" d="M11.699-6.903c-0.624-0.507-1.014-0.858-1.17-1.053
				c-0.156-0.196-0.292-0.313-0.41-0.352C9.925-7.722,9.827-7.313,9.827-7.078v0.409l1.112,0.877
				c0.273,0.196,0.487,0.507,0.644,0.937l0.175-1.229C11.797-6.318,11.778-6.591,11.699-6.903z"/>
			<path style="fill-rule:evenodd;clip-rule:evenodd;fill:#915922;" d="M9.827-6.669l0.234-0.994l0.058-0.644
				C8.989-8.892,8.443-8.95,8.482-8.482c0.039,0.39-0.175,0.741-0.643,1.053L7.195-7.02c0.039,0.078,0,0.292-0.117,0.643L6.902-5.5
				l2.34-0.877L9.827-6.669z"/>
			<path style="fill-rule:evenodd;clip-rule:evenodd;fill:#B36F2B;" d="M26.617-11.993c1.17-0.039,1.56-0.312,1.17-0.819
				c-0.273-0.312-0.76-0.624-1.462-0.936c-0.351-0.156-0.956-0.136-1.813,0.059c-0.897,0.195-1.443,0.313-1.638,0.351
				c-0.195,0.039-0.156,0.195,0.117,0.468c0.312,0.351,0.468,0.566,0.468,0.644C23.458-11.993,24.511-11.914,26.617-11.993z"/>
			<path style="fill-rule:evenodd;clip-rule:evenodd;fill:#915922;" d="M25.447-15.268c-0.195,0.156-0.507,0.272-0.936,0.351
				c-0.546,0.117-0.877,0.195-0.995,0.234c-0.273,0.078-0.448,0.136-0.526,0.175c-0.156,0.039-0.234,0.117-0.234,0.234l-0.059,1.053
				l2.223-0.292l0.527-0.176l0.468-0.059l0.175-1.404c0-0.156-0.058-0.272-0.175-0.351C25.759-15.541,25.603-15.463,25.447-15.268z"
				/>
			<path style="fill-rule:evenodd;clip-rule:evenodd;fill:#7D4E1E;" d="M28.079-14.098c-0.078-0.195-0.234-0.352-0.468-0.468
				c-0.39-0.156-0.604-0.253-0.644-0.293l-1.228-0.585v0.937l0.175,0.76l0.995,0.527l0.468,0.351l0.468,0.585l0.176-0.643
				C28.137-13.436,28.157-13.826,28.079-14.098z"/>
			<path style="fill-rule:evenodd;clip-rule:evenodd;fill:#B36F2B;" d="M26.266-0.585c1.286-0.546,2.223-1.17,2.808-1.872
				l-0.585-0.059c-0.273-0.039-1.424-0.253-3.452-0.644c-0.585-0.078-0.975,0.098-1.17,0.526c-0.195,0.624-0.429,1.151-0.702,1.58
				c-0.351,0.546-0.078,0.839,0.819,0.878C24.803-0.137,25.564-0.273,26.266-0.585z"/>
			<path style="fill-rule:evenodd;clip-rule:evenodd;fill:#915922;" d="M23.107-0.41l1.053-2.457l-0.234-1.346
				c0-0.156-0.117-0.097-0.351,0.176c-0.507,0.858-0.799,1.404-0.877,1.638c0.039,0.351,0.059,0.644,0.059,0.877
				S22.873-0.917,23.107-0.41z"/>
			<path style="fill-rule:evenodd;clip-rule:evenodd;fill:#7D4E1E;" d="M27.202-2.516c0.663,0.078,1.287,0.097,1.872,0.059
				l-0.117-0.644l-1.638-0.644c-1.365-0.234-2.262-0.429-2.691-0.585c-0.272-0.117-0.468-0.137-0.585-0.059l-0.117,0.175
				l0.234,1.346l0.877-0.292c0.156-0.039,0.448,0.039,0.877,0.234C26.461-2.691,26.89-2.554,27.202-2.516z"/>
			<path style="fill-rule:evenodd;clip-rule:evenodd;fill:#915922;" d="M37.205-5.792c1.014-0.351,1.443-0.78,1.287-1.286
				c0-0.04-0.253-0.39-0.76-1.054c-0.156-0.156-0.41-0.156-0.76,0c-0.429,0.273-0.741,0.469-0.937,0.585
				C35.645-7.352,35.45-6.669,35.45-5.5c0,0.313,0.176,0.391,0.527,0.234C36.211-5.343,36.62-5.519,37.205-5.792z"/>
			<path style="fill-rule:evenodd;clip-rule:evenodd;fill:#B36F2B;" d="M37.029-6.318l-1.521,1.111l0.41,0.351
				c0.351,0.234,0.701,0.37,1.053,0.41c0.818,0.039,1.404-0.117,1.755-0.468l1.462-1.287l-1.813-0.585
				C38.219-6.864,37.771-6.708,37.029-6.318z"/>
			<path style="fill-rule:evenodd;clip-rule:evenodd;fill:#7D4E1E;" d="M37.731-8.132l0.644,1.346l0.702,0.292
				c0.507,0.195,0.878,0.292,1.112,0.292c0.351,0,0.312-0.332-0.117-0.995l-0.292-0.175c-0.195-0.156-0.604-0.371-1.228-0.644
				C37.888-8.327,37.614-8.365,37.731-8.132z"/>
			<path style="fill-rule:evenodd;clip-rule:evenodd;fill:#A87932;" d="M13.104-2.75c0.312,0.078,0.917,0.273,1.813,0.585
				c0.858,0.195,1.404,0.175,1.638-0.059c0.429-0.429,0.39-0.819-0.117-1.17c-0.663-0.156-1.111-0.331-1.345-0.527
				c-0.195-0.156-0.663-0.233-1.404-0.233l-0.585,0.702C12.831-3.101,12.831-2.867,13.104-2.75z"/>
			<path style="fill-rule:evenodd;clip-rule:evenodd;fill:#A87932;" d="M16.145-12.168c2.067,0.663,3.218,0.78,3.452,0.351
				c0.117-0.195-0.039-0.507-0.468-0.936c-0.429-0.351-0.76-0.527-0.995-0.527c-1.131,0-1.813,0.039-2.047,0.117
				c-0.351,0.117-0.527,0.312-0.527,0.585C15.56-12.304,15.755-12.168,16.145-12.168z"/>
			<path style="fill-rule:evenodd;clip-rule:evenodd;fill:#A87932;" d="M24.452-10.413c-0.351,0.195-0.156,0.761,0.585,1.696
				c0.78,0.897,1.404,1.365,1.872,1.404c0.702,0.039,1.053-0.468,1.053-1.521c0-0.507-0.195-0.819-0.585-0.936l-1.462-0.877
				c-0.195-0.117-0.448-0.117-0.76,0C24.803-10.53,24.569-10.452,24.452-10.413z"/>
			<path style="fill-rule:evenodd;clip-rule:evenodd;fill:#A87932;" d="M35.216-11.7l0.877,0.468
				c0.624,0.351,1.092,0.546,1.403,0.585c0.625,0.156,1.151,0.078,1.58-0.234c0.429-0.234,0.429-0.546,0-0.936l-0.585-0.176
				c-0.585-0.194-1.131-0.292-1.638-0.292C35.879-12.285,35.333-12.09,35.216-11.7z"/>
			
				<radialGradient id="SVGID_17_" cx="15483.5605" cy="713.6055" r="2.5622" gradientTransform="matrix(0.1142 1.1644 1.1644 -0.1142 -2573.6162 -17958.4238)" gradientUnits="userSpaceOnUse">
				<stop  offset="0" style="stop-color:#FFF6A1"/>
				<stop  offset="1" style="stop-color:#D6B200"/>
			</radialGradient>
			<path style="fill-rule:evenodd;clip-rule:evenodd;fill:url(#SVGID_17_);" d="M26.792-6.903c0.741-0.664,0.995-1.287,0.76-1.872
				c-0.078-0.234-0.331-0.507-0.76-0.819c-0.429-0.272-0.663-0.448-0.702-0.526c-0.195-0.352-0.604-0.468-1.228-0.352l-0.41,0.059
				c-0.468,0.117-0.663,0.507-0.585,1.17c0,0.624,0.02,1.053,0.059,1.287c0.039,0.351,0.253,0.643,0.644,0.877
				C25.661-6.533,26.402-6.474,26.792-6.903z"/>
			
				<radialGradient id="SVGID_18_" cx="15477.0566" cy="719.7012" r="2.1605" gradientTransform="matrix(0.1151 1.1643 1.1643 -0.1151 -2594.4404 -17947.4473)" gradientUnits="userSpaceOnUse">
				<stop  offset="0" style="stop-color:#FFF6A1"/>
				<stop  offset="1" style="stop-color:#FAD000"/>
			</radialGradient>
			<path style="fill-rule:evenodd;clip-rule:evenodd;fill:url(#SVGID_18_);" d="M26.792-7.078c0.117-0.313,0.078-0.605-0.117-0.877
				c-0.039-0.079-0.214-0.273-0.526-0.585c-0.195-0.313-0.371-0.566-0.527-0.761c-0.312-0.351-0.702-0.545-1.17-0.585
				c-0.39-0.039-0.624,0.059-0.702,0.292c0,0.04,0,0.313,0,0.819s0.04,0.819,0.117,0.936c0.117,0.352,0.488,0.644,1.112,0.877
				c0.663,0.234,1.111,0.332,1.345,0.292C26.559-6.669,26.714-6.806,26.792-7.078z"/>
			
				<radialGradient id="SVGID_19_" cx="9569.0244" cy="3272.1367" r="2.5555" gradientTransform="matrix(0.7211 0.9214 0.9214 -0.7211 -9901.8477 -6460.5996)" gradientUnits="userSpaceOnUse">
				<stop  offset="0" style="stop-color:#FFF6A1"/>
				<stop  offset="1" style="stop-color:#D6B200"/>
			</radialGradient>
			<path style="fill-rule:evenodd;clip-rule:evenodd;fill:url(#SVGID_19_);" d="M15.209-3.452c-0.507,0-0.78-0.02-0.819-0.059
				c-0.312-0.195-0.741-0.078-1.287,0.351l-0.234,0.292c-0.078,0.078-0.136,0.195-0.175,0.351c-0.078,0.312,0.02,0.624,0.292,0.936
				c0.234,0.234,0.468,0.585,0.702,1.053c0.234,0.273,0.565,0.39,0.994,0.352c1.209-0.079,1.892-0.41,2.047-0.995
				c0.156-0.976,0.02-1.638-0.409-1.989C16.087-3.354,15.716-3.452,15.209-3.452z"/>
			
				<radialGradient id="SVGID_20_" cx="9540.1113" cy="3276.04" r="2.1631" gradientTransform="matrix(0.7234 0.9195 0.9195 -0.7234 -9900.9805 -6404.9624)" gradientUnits="userSpaceOnUse">
				<stop  offset="0" style="stop-color:#FFF6A1"/>
				<stop  offset="1" style="stop-color:#FAD000"/>
			</radialGradient>
			<path style="fill-rule:evenodd;clip-rule:evenodd;fill:url(#SVGID_20_);" d="M16.614-1.346c-0.079-0.468-0.527-0.76-1.346-0.877
				c-0.312-0.156-0.585-0.273-0.818-0.351c-0.468-0.156-0.917-0.117-1.346,0.117c-0.313,0.195-0.448,0.39-0.41,0.585
				c0,0.078,0.137,0.331,0.41,0.76c0.272,0.39,0.468,0.644,0.585,0.761c0.351,0.195,0.838,0.234,1.462,0.117
				c0.663-0.156,1.092-0.312,1.287-0.468C16.594-0.858,16.652-1.072,16.614-1.346z"/>
			
				<radialGradient id="SVGID_21_" cx="9526.6387" cy="3270.0371" r="2.6257" gradientTransform="matrix(0.7241 0.919 0.919 -0.7241 -9887.7676 -6400.2856)" gradientUnits="userSpaceOnUse">
				<stop  offset="0" style="stop-color:#FFF6A1"/>
				<stop  offset="1" style="stop-color:#D6B200"/>
			</radialGradient>
			<path style="fill-rule:evenodd;clip-rule:evenodd;fill:url(#SVGID_21_);" d="M17.199-9.594c1.208-0.078,1.891-0.429,2.047-1.053
				c0.233-0.936,0.097-1.599-0.41-1.989c-0.234-0.195-0.604-0.292-1.112-0.292c-0.546,0-0.838-0.02-0.877-0.059
				c-0.312-0.195-0.741-0.078-1.287,0.351l-0.233,0.292c-0.391,0.351-0.352,0.78,0.117,1.287c0.234,0.273,0.468,0.625,0.702,1.053
				C16.379-9.691,16.73-9.555,17.199-9.594z"/>
			
				<radialGradient id="SVGID_22_" cx="9553.3867" cy="3267.1475" r="2.208" gradientTransform="matrix(0.722 0.9207 0.9207 -0.722 -9889.6445 -6448.9653)" gradientUnits="userSpaceOnUse">
				<stop  offset="0" style="stop-color:#FFF6A1"/>
				<stop  offset="1" style="stop-color:#FAD000"/>
			</radialGradient>
			<path style="fill-rule:evenodd;clip-rule:evenodd;fill:url(#SVGID_22_);" d="M15.56-11.934c-0.312,0.195-0.448,0.39-0.409,0.585
				c0,0.078,0.137,0.332,0.409,0.761c0.273,0.429,0.469,0.682,0.585,0.761c0.352,0.233,0.839,0.273,1.462,0.117
				c0.702-0.156,1.151-0.313,1.346-0.468c0.156-0.117,0.214-0.332,0.175-0.643c-0.078-0.468-0.546-0.761-1.404-0.878
				c-0.312-0.156-0.585-0.273-0.818-0.351C16.438-12.207,15.989-12.168,15.56-11.934z"/>
			
				<radialGradient id="SVGID_23_" cx="33.1001" cy="-10.1499" r="2.6078" gradientTransform="matrix(-0.8428 0.8115 -0.7923 -0.8228 58.5801 -47.0874)" gradientUnits="userSpaceOnUse">
				<stop  offset="0" style="stop-color:#FFF6A1"/>
				<stop  offset="1" style="stop-color:#D6B200"/>
			</radialGradient>
			<path style="fill-rule:evenodd;clip-rule:evenodd;fill:url(#SVGID_23_);" d="M38.375-10.003c0.546-0.468,0.663-0.897,0.351-1.287
				l-0.234-0.292c-0.117-0.156-0.312-0.292-0.585-0.41c-0.233-0.117-0.429-0.156-0.585-0.117c-0.936-0.195-1.599-0.176-1.988,0.059
				c-0.546,0.39-0.781,1.034-0.702,1.931c0.039,0.624,0.663,1.072,1.872,1.345c0.429,0.078,0.78-0.02,1.053-0.292
				C37.712-9.224,37.985-9.535,38.375-10.003z"/>
			
				<radialGradient id="SVGID_24_" cx="32.8999" cy="-9.5498" r="2.21" gradientTransform="matrix(-0.8423 0.812 -0.7894 -0.8188 58.6646 -45.7095)" gradientUnits="userSpaceOnUse">
				<stop  offset="0" style="stop-color:#FFF6A1"/>
				<stop  offset="1" style="stop-color:#FAD000"/>
			</radialGradient>
			<path style="fill-rule:evenodd;clip-rule:evenodd;fill:url(#SVGID_24_);" d="M36.035-8.95c0.625,0.195,1.112,0.214,1.462,0.058
				c0.196-0.078,0.429-0.312,0.702-0.702c0.312-0.429,0.488-0.643,0.527-0.643c0.078-0.234-0.039-0.449-0.351-0.644
				c-0.39-0.273-0.819-0.39-1.287-0.351c-0.429,0.156-0.722,0.234-0.877,0.234c-0.858,0.117-1.346,0.371-1.462,0.761
				c-0.079,0.273-0.059,0.487,0.058,0.643C34.962-9.438,35.372-9.224,36.035-8.95z"/>
			<path style="fill-rule:evenodd;clip-rule:evenodd;fill:#E6C15C;" d="M13.045-12.636c1.326-0.078,1.989-0.371,1.989-0.877
				c0.039-0.195,0-0.332-0.117-0.41c-0.156-0.117-0.312-0.215-0.468-0.292c-0.312-0.156-0.644-0.41-0.995-0.76
				c-0.195-0.117-0.722,0.039-1.58,0.468c-0.351,0.078-0.566,0.37-0.644,0.877c0,0.312,0.097,0.507,0.292,0.585
				c0.117,0,0.351,0.078,0.702,0.234C12.577-12.656,12.85-12.597,13.045-12.636z"/>
			<path style="fill-rule:evenodd;clip-rule:evenodd;fill:#CFA146;" d="M14.742-13.045l0.175-0.117
				c0.117-0.117,0.156-0.234,0.117-0.351c0-0.195-0.039-0.352-0.117-0.468l-0.995-0.585c-0.234-0.156-0.39-0.293-0.468-0.409
				c-0.117,0.156-0.176,0.312-0.176,0.468l-0.117,0.585l0.643,0.292C14.156-13.513,14.468-13.318,14.742-13.045z"/>
			<path style="fill-rule:evenodd;clip-rule:evenodd;fill:#FFE191;" d="M13.162-13.923l-0.234,0.117l-0.76,0.175l-0.936,0.351
				l0.995,0.527c0.468,0.195,0.819,0.273,1.053,0.234c0.975-0.156,1.463-0.332,1.463-0.526
				C14.742-13.201,14.215-13.494,13.162-13.923z"/>
		</g>
		<g id="Layer_3_1_" style="clip-path:url(#SVGID_13_);">
			<path style="fill-rule:evenodd;clip-rule:evenodd;fill-opacity:0.349;" d="M28.525-14.6H28.5c0.029,0.18,0.012,0.305-0.05,0.375
				l0.7,0.075c0.733,0,1.1-0.35,1.1-1.05l0.15-0.1c0.067-0.034,0.1-0.133,0.1-0.3H31l0.05,0.25l-0.1,0.4
				c0,0.123,0.033,0.239,0.1,0.35c0.005-0.025,0.014-0.05,0.025-0.075c0.186-0.417,0.377-0.692,0.575-0.825
				c0.167-0.133,0.25-0.217,0.25-0.25l0.3-0.15h0.025c-0.051-0.014-0.101-0.03-0.15-0.05c-0.663-0.165-1.337-0.323-2.025-0.475
				c-0.082-0.016-0.165-0.032-0.25-0.05v0.025l0.1,0.8c0,0.549-0.292,0.882-0.875,1C28.881-14.618,28.714-14.602,28.525-14.6z
				 M26.4-15.1c-0.466-0.432-0.699-0.799-0.7-1.1l0.1-0.5c0-0.133,0.05-0.216,0.15-0.25H25.7l-0.55,0.1c-0.367,0-0.6-0.066-0.7-0.2
				c0.064-0.065,0.148-0.123,0.25-0.175c-0.168-0.015-0.335-0.032-0.5-0.05c-0.358-0.025-0.717-0.051-1.075-0.075
				c-0.111-0.009-0.22-0.018-0.325-0.025c-0.396-0.016-0.795-0.033-1.2-0.05c-0.044,0.001-0.085,0.001-0.125,0
				c-0.001,0.41-0.177,0.818-0.525,1.225l-0.65,0.5c-0.566,0.267-0.95,0.4-1.15,0.4c-0.367,0-0.816-0.267-1.35-0.8
				c-0.533-0.5-0.85-0.933-0.95-1.3c-0.534,0.024-1.059,0.057-1.575,0.1c-2.289,0.163-4.381,0.455-6.275,0.875
				c-1.55,0.355-2.966,0.797-4.25,1.325c-0.771,0.305-1.447,0.621-2.025,0.95L3.1-14.1L3.45-14l2.45-1.15L8.6-16
				c0.033,0.167,0.183,0.25,0.45,0.25c0.167,0,1.284-0.283,3.35-0.85c0.133,0.2,0.233,0.3,0.3,0.3l0.85-0.3
				c0.633-0.167,1.067-0.25,1.3-0.25l0.45,0.05c0.133,0,0.417,0.05,0.85,0.15c0.267,0,0.6,0.267,1,0.8c0.4,0.567,0.7,0.85,0.9,0.85
				c0.034,0,0.117,0.067,0.25,0.2s0.25,0.2,0.35,0.2c0.733,0,1.417-0.15,2.05-0.45c0.333-0.133,0.617-0.45,0.85-0.95
				c0.2-0.467,0.833-0.767,1.9-0.9c0.167,0,0.6,0.05,1.3,0.15c0.033,0,0.117,0.233,0.25,0.7c0.167,0.533,0.433,0.867,0.8,1
				c0.5,0.2,0.95,0.417,1.35,0.65c0.144,0.061,0.31,0.103,0.5,0.125C27.22-14.45,26.804-14.725,26.4-15.1z M39.6-12.6
				c-0.093-0.079-0.193-0.154-0.3-0.225c-0.038-0.033-0.08-0.066-0.125-0.1c-0.069-0.06-0.144-0.118-0.225-0.175h-0.025
				c-0.221,0.133-0.413,0.2-0.575,0.2c-0.4,0-0.6-0.2-0.6-0.6l0.1-0.25c-0.112-0.071-0.229-0.138-0.35-0.2
				c-0.033,0.046-0.05,0.08-0.05,0.1c0,0.067-0.184,0.2-0.55,0.4c-0.397,0.196-0.764,0.355-1.1,0.475
				c-0.045,0.017-0.087,0.034-0.125,0.05c-0.025,0.008-0.05,0.017-0.075,0.025l0.05,0.375c0.02,0.004,0.045,0.004,0.075,0
				c0.158-0.022,0.35-0.063,0.575-0.125c0.367-0.1,0.55-0.2,0.55-0.3c0-0.033,0.1-0.05,0.3-0.05c0.1,0,0.233,0.067,0.4,0.2
				c0.167,0.133,0.284,0.2,0.35,0.2l0.85-0.1l0.7,0.05L39.6-12.6z M35.5-14.825c-0.096-0.037-0.188-0.07-0.275-0.1
				c-0.046-0.02-0.087-0.037-0.125-0.05c-0.406-0.148-0.831-0.29-1.275-0.425c-0.019,0.096-0.044,0.221-0.075,0.375
				c-0.029,0.153-0.279,0.336-0.75,0.55c-0.472,0.213-0.972,0.155-1.5-0.175c0.272,0.433,0.522,0.65,0.75,0.65
				c0.5,0,0.883-0.133,1.15-0.4c0.267-0.234,0.583-0.326,0.95-0.275c0.371,0.05,0.596,0.234,0.675,0.55
				c0.078,0.312,0.161,0.345,0.25,0.1c0.093-0.245,0.152-0.437,0.175-0.575C35.468-14.735,35.484-14.81,35.5-14.825z"/>
		</g>
	</g>
</symbol>
<use xlink:href="#hash"  width="41.222" height="17.439" x="0.009" y="-17.439" transform="matrix(1 0 0 -1 20.6001 16.7998)" style="overflow:visible;"/>
<g>
	<path style="fill-rule:evenodd;clip-rule:evenodd;fill-opacity:0.3098;" d="M45.4,27c-0.267,0.167-0.434,0.483-0.5,0.95
		c0,0.2,0,0.316,0,0.35s0.033,0.05,0.1,0.05c-1.6,0.233-3.116,0.417-4.55,0.551c-0.267-0.434-0.483-0.767-0.65-1
		c-0.4-0.534-0.816-0.834-1.25-0.9c-0.7-0.066-1.233,0.083-1.6,0.45c-0.233,0.166-0.583,0.717-1.05,1.649
		c-2.033-0.066-3.917-0.267-5.65-0.6c-5.967-1.167-9.15-2.316-9.55-3.45l33,0.4l-2.7,1.6c-0.733,0.2-1.434,0.384-2.1,0.55
		c-0.767-0.433-1.45-0.683-2.051-0.75C46.184,26.783,45.7,26.833,45.4,27z"/>
</g>
<use xlink:href="#hash_02"  width="41.232" height="17.439" x="0" y="-17.439" transform="matrix(0.9998 -0.0223 -0.0223 -0.9998 18.2002 11.3501)" style="overflow:visible;"/>
</svg>
