<?xml version="1.0" encoding="iso-8859-1"?>
<!-- Generator: Adobe Illustrator 15.1.0, SVG Export Plug-In . SVG Version: 6.00 Build 0)  -->
<!DOCTYPE svg PUBLIC "-//W3C//DTD SVG 1.1//EN" "http://www.w3.org/Graphics/SVG/1.1/DTD/svg11.dtd">
<svg version="1.1" id="flash0.ai" xmlns="http://www.w3.org/2000/svg" xmlns:xlink="http://www.w3.org/1999/xlink" x="0px" y="0px"
	 width="43.15px" height="31.8px" viewBox="0 0 43.15 31.8" style="enable-background:new 0 0 43.15 31.8;" xml:space="preserve">
<symbol  id="flash0.ai_x2F_Layer_1_x2F__x3C_Path_x3E__x5F_10" viewBox="0 -20.25 25.8 20.25">
	<g id="Layer_1_6_">
		<path style="fill-rule:evenodd;clip-rule:evenodd;fill:#AD4B01;" d="M22.05-3.9c0.9-0.4,1.367-1.067,1.4-2
			c0.933-0.2,1.716-0.667,2.35-1.4L25.5-8c-0.233,0.133-0.583,0.233-1.05,0.3c-0.567,0.1-0.934,0.184-1.1,0.25
			c0.066-0.367,0.617-1.283,1.65-2.75c0.7-1.2,0.35-1.6-1.05-1.2c0.167,0.9-0.267,1.85-1.3,2.85c-1.066,0.966-2.133,1.417-3.2,1.35
			c0.233-0.333,0.45-1,0.65-2c-0.467,0.1-0.883,0.35-1.25,0.75c-0.533,0.6-0.9,0.967-1.1,1.1c-0.367-0.6-0.05-1.583,0.95-2.95
			c1.167-1.567,1.75-2.617,1.75-3.15c0.3-0.1,0.667-0.3,1.1-0.6c-0.566-0.833-1.333-1.2-2.3-1.1c0.167,1.5-0.067,2.75-0.7,3.75
			c-0.466,0.733-1.433,1.633-2.9,2.7c-1.233-0.533-1.983-1.683-2.25-3.45c-0.3-1.867,0.4-2.817,2.1-2.85
			c0.033-0.2,0.017-0.5-0.05-0.9l-3.25,0.1c-0.067-0.434,0.05-1.184,0.35-2.25c0.233-0.9,0.167-1.633-0.2-2.2
			c-0.133,0.167-0.467,1.2-1,3.1c-0.367,1.267-1.2,1.816-2.5,1.65c0.1,0.4,0.167,0.65,0.2,0.75c0.034,0.1,0.233,0.25,0.6,0.45
			c0.167,0.933-0.033,1.933-0.6,3c-0.633,1.2-1.433,1.65-2.4,1.35c-0.733-0.233-1.1-1-1.1-2.3c0-1.067,0.15-1.933,0.45-2.6
			c-1.867-0.233-2.367,0.75-1.5,2.95c1.067,2.633,1.333,4.15,0.8,4.55C4.267-6.583,3.483-7.333,2.95-9.6c-0.5-2.066-0.6-3.5-0.3-4.3
			c-1.333,0-2.217,0.367-2.65,1.1c1.367,0.233,2.15,0.85,2.35,1.85c0.033,1.3,0.2,2.317,0.5,3.05C2.95-7.7,3.5-7,4.5-5.8
			c0.333,0.4,0.133,1.1-0.6,2.1C3.867-3.667,3.433-3.533,2.6-3.3C2.1-3.167,2.2-2.8,2.9-2.2c0.333,0.267,0.917,0.417,1.75,0.45
			c0.333,0,0.967-0.05,1.9-0.15c0.133,0,0.75-0.117,1.85-0.35c0.867-0.2,1.45-0.233,1.75-0.1c0.393,0.14,0.734,0.44,1.025,0.9
			c0.019,0.026,0.036,0.051,0.05,0.075c0.044,0.076,0.086,0.151,0.125,0.225c0.3,0.633,0.7,1.017,1.2,1.15l-0.825-0.875
			C11.902-0.741,12.06-0.683,12.2-0.7c0.8-0.066,1.2-0.267,1.2-0.6c0.033-0.633,0.067-0.967,0.1-1c0.1-0.167,0.083-0.5-0.05-1
			c-0.1-0.333,0.167-0.6,0.8-0.8c0.567-0.2,1.033-0.183,1.4,0.05c0.233,0.133,0.533,0.4,0.9,0.8c0.167,0.133,0.284,0.533,0.35,1.2
			c0.067,0.5,0.467,0.733,1.2,0.7c0.3,0,0.583-0.217,0.85-0.65c0.333-0.533,0.566-0.85,0.7-0.95C20.117-3.25,20.917-3.567,22.05-3.9
			z"/>
	</g>
</symbol>
<symbol  id="flash0.ai_x5F_7_x2F_Layer_2_x2F__x3C_Path_x3E__x5F_63" viewBox="-0.042 -9.65 41.792 9.681">
	<g id="Layer_1_5_">
		<path style="fill-rule:evenodd;clip-rule:evenodd;" d="M40.9-5.45c0.533-0.633,0.817-1.25,0.85-1.85L41.5-7
			c-0.867,1.5-2.367,2.533-4.5,3.1c-0.567,0.167-1.517,0.35-2.85,0.55c-1.433,0.2-2.683,0.434-3.75,0.7
			c-1.2,0.3-2.617,0.417-4.25,0.35c-1.867-0.133-3.367-0.2-4.5-0.2c-3.6,0-6.1-0.05-7.5-0.15c-1-0.033-2.4-0.483-4.2-1.35
			c-1.633-0.8-2.7-1.45-3.2-1.95c-0.233,0.1-0.517,0.133-0.85,0.1C5.267-5.983,4.733-6.5,4.3-7.4C4.2-7.6,3.833-7.95,3.2-8.45
			c-0.6-0.5-0.934-0.9-1-1.2C1.1-9.017,0.367-8.467,0-8c-0.133,0.467,0.05,1.05,0.55,1.75c0.434,0.633,1,1.167,1.7,1.6
			c0.467,0.3,1.467,0.683,3,1.15C6.783-3,7.833-2.583,8.4-2.25c1.833,1.133,4.083,1.75,6.75,1.85c0.633,0.033,2.217,0.083,4.75,0.15
			c2.133,0.067,3.8,0.15,5,0.25c2.133,0.167,4.883-0.333,8.25-1.5c2.9-1.033,4.934-1.867,6.1-2.5
			C39.883-4.333,40.433-4.817,40.9-5.45z"/>
	</g>
</symbol>
<symbol  id="flash0.ai_x5F_7_x2F_Layer_2_x2F__x3C_Path_x3E__x5F_70" viewBox="0 -12.55 12.75 12.55">
	<g id="Layer_1_4_">
		<path style="fill-rule:evenodd;clip-rule:evenodd;fill:#595959;" d="M12.75-12.55c-3.2,1.2-5.917,2.9-8.15,5.1
			C2.333-5.25,0.8-2.767,0,0l0.35-0.1L1.1-0.55c0.533-1.6,1.4-3.233,2.6-4.9C6.033-8.683,9.05-11.05,12.75-12.55z"/>
	</g>
</symbol>
<symbol  id="flash0.ai_x5F_7_x2F_Layer_2_x2F__x3C_Path_x3E__x5F_71" viewBox="0 -13.05 17.2 13.05">
	<g id="Layer_1_3_">
		<path style="fill-rule:evenodd;clip-rule:evenodd;fill:#595959;" d="M10.15-1.5c3,0.4,5.35,0.9,7.05,1.5
			c-0.3-0.933-0.767-1.917-1.4-2.95C14.533-4.917,12.6-6.9,10-8.9c-2-1.5-4.55-2.767-7.65-3.8L0-13.05c4,1.433,6.833,3.517,8.5,6.25
			c0.767,1.2,1.25,2.333,1.45,3.4C10.083-2.833,10.15-2.2,10.15-1.5z"/>
	</g>
</symbol>
<symbol  id="flash0.ai_x5F_7_x2F_Layer_2_x2F__x3C_Path_x3E__x5F_72" viewBox="0 -12.7 24.3 12.7">
	<g id="Layer_1_2_">
		
			<linearGradient id="SVGID_1_" gradientUnits="userSpaceOnUse" x1="-22.4766" y1="-32.3843" x2="-6.7765" y2="-32.3843" gradientTransform="matrix(1 -0.0032 0.0032 1 26.0796 25.9814)">
			<stop  offset="0" style="stop-color:#FFFFFF"/>
			<stop  offset="1" style="stop-color:#000000"/>
		</linearGradient>
		<path style="fill-rule:evenodd;clip-rule:evenodd;fill:url(#SVGID_1_);" d="M24.3-1.75L21.1-12.6l-2.35-0.1
			c-0.933,0-1.85,0.05-2.75,0.15c-1.1,0.167-2.35,0.5-3.75,1c-1.433,0.533-2.633,1.117-3.6,1.75c-3.066,2-5.433,4.233-7.1,6.7
			C0.717-1.867,0.2-0.833,0,0l2.65-0.55c4.567-0.867,10-1.3,16.3-1.3L24.3-1.75z"/>
	</g>
</symbol>
<g>
	<g>
		<path style="fill-rule:evenodd;clip-rule:evenodd;fill:#D9D9D9;" d="M38.702,20.607l0.15-0.038
			c-0.977,3.185-3.043,5.792-6.199,7.821c-3.23,2.081-6.913,3.121-11.046,3.121c-4.157,0-7.852-1.053-11.083-3.159
			c-3.206-2.081-5.26-4.727-6.161-7.938l0.263,0.077c0.977,0.771,3.043,1.413,6.199,1.927c3.181,0.487,6.825,0.731,10.933,0.731
			c3.982,0,7.539-0.244,10.67-0.731C35.533,21.956,37.625,21.353,38.702,20.607z"/>
		
			<use xlink:href="#flash0.ai_x5F_7_x2F_Layer_2_x2F__x3C_Path_x3E__x5F_72"  width="24.3" height="12.7" y="-12.7" transform="matrix(0.7514 0 0 -0.7707 7.25 21.7998)" style="overflow:visible;opacity:0.7188;enable-background:new    ;"/>
		
			<use xlink:href="#flash0.ai_x5F_7_x2F_Layer_2_x2F__x3C_Path_x3E__x5F_71"  width="17.2" height="13.05" y="-13.05" transform="matrix(0.7514 0 0 -0.7707 25.75 21.0498)" style="overflow:visible;opacity:0.1602;enable-background:new    ;"/>
		
			<use xlink:href="#flash0.ai_x5F_7_x2F_Layer_2_x2F__x3C_Path_x3E__x5F_70"  width="12.75" height="12.55" y="-12.55" transform="matrix(0.7514 0 0 -0.7707 4.75 21.0498)" style="overflow:visible;opacity:0.3203;enable-background:new    ;"/>
		
			<linearGradient id="SVGID_2_" gradientUnits="userSpaceOnUse" x1="0.7993" y1="8.5996" x2="46.0488" y2="8.5996" gradientTransform="matrix(0.7514 0 0 0.7707 4.1004 12.3999)">
			<stop  offset="0" style="stop-color:#7D7D7D"/>
			<stop  offset="1" style="stop-color:#D4D4D4"/>
		</linearGradient>
		<path style="fill-rule:evenodd;clip-rule:evenodd;fill:url(#SVGID_2_);" d="M33.706,14.404c3.33,1.284,4.996,2.826,4.996,4.624
			c0,1.824-1.666,3.365-4.996,4.624c-3.307,1.284-7.314,1.927-12.022,1.927c-4.685,0-8.692-0.643-12.023-1.927
			c-3.306-1.259-4.959-2.8-4.959-4.624c0-1.798,1.653-3.339,4.959-4.624c3.331-1.285,7.338-1.927,12.023-1.927
			C26.367,12.477,30.374,13.119,33.706,14.404z"/>
		<path style="fill-rule:evenodd;clip-rule:evenodd;fill:#F5F5F5;" d="M39.19,18.565h-1.089c-0.226-1.593-1.916-2.942-5.072-4.046
			c-3.131-1.104-6.889-1.657-11.271-1.657c-4.358,0-8.102,0.552-11.233,1.657c-3.156,1.104-4.846,2.454-5.072,4.046H4.175
			c0.401-1.747,2.267-3.211,5.598-4.393c3.381-1.182,7.352-1.772,11.911-1.772c4.583,0,8.553,0.591,11.909,1.772
			C36.924,15.354,38.79,16.818,39.19,18.565z"/>
		
			<use xlink:href="#flash0.ai_x5F_7_x2F_Layer_2_x2F__x3C_Path_x3E__x5F_63"  width="41.792" height="9.681" x="-0.042" y="-9.65" transform="matrix(0.7514 0 0 -0.7707 6.1001 14.8999)" style="overflow:visible;opacity:0.2891;enable-background:new    ;"/>
		<path style="fill-rule:evenodd;clip-rule:evenodd;fill:#F5F5F5;" d="M38.102,18.526h1.089c0.05,0.154,0.075,0.359,0.075,0.617
			c0,1.875-1.716,3.468-5.146,4.778c-3.432,1.31-7.577,1.965-12.436,1.965c-4.86,0-9.005-0.655-12.437-1.965
			C5.816,22.611,4.1,21.019,4.1,19.144l0.075-0.617h1.277v0.347c0,1.67,1.59,3.083,4.771,4.239
			c3.181,1.182,7.025,1.772,11.534,1.772c4.533,0,8.392-0.591,11.572-1.772c3.181-1.156,4.771-2.569,4.771-4.239V18.526z"/>
	</g>
	<g>
		<path style="fill-rule:evenodd;clip-rule:evenodd;fill:#F8F4B7;" d="M24.632,11.958c0.978-0.4,2.023-0.316,3.137,0.253l0.04,1.074
			c0.979,0.126,1.97,0.348,2.975,0.664c1.086,0.336,1.752,0.663,1.996,0.979c-0.054,0.189-0.082,0.4-0.082,0.632
			c0.109,0,0.272,0.074,0.489,0.221c0.19,0.126,0.394,0.158,0.611,0.095c0-0.147,0.04-0.39,0.121-0.727
			c0.082-0.316,0.109-0.547,0.082-0.695c0.108-0.021,0.271-0.021,0.489,0c0.244,0.021,0.326,0.074,0.244,0.158
			c0.108-0.042,0.353,0.221,0.733,0.79c0.407,0.568,0.679,0.842,0.814,0.82c0.951,1.116,1.493,1.821,1.63,2.116
			c0.461,0.843,0.394,1.601-0.204,2.274c-0.108,0-0.217-0.074-0.326-0.222c-0.135-0.168-0.258-0.263-0.366-0.283
			c-0.217,0.568-0.421,0.947-0.61,1.137c-0.245-0.063-0.733-0.105-1.468-0.127c-0.624,0-1.126-0.084-1.507-0.252
			c0.244,1.031,0.23,1.842-0.04,2.432c-0.381,0.82-1.195,0.968-2.444,0.442c-0.517,0.842-1.563,1.441-3.138,1.8
			c-1.629,0.357-2.838,0.147-3.625-0.632c-0.082,0.211-0.149,0.484-0.203,0.821c-0.109-0.021-0.286-0.115-0.53-0.284
			c-0.244-0.147-0.421-0.231-0.53-0.253c-0.461,0.042-0.746,0.053-0.854,0.031c-0.082,0-0.326-0.147-0.733-0.442
			c-1.358,0.085-2.688-0.188-3.992-0.82c-0.733,0.779-1.657,0.947-2.77,0.505c-1.25-0.736-2.132-1.179-2.648-1.326
			c-1.63-0.315-2.852-0.579-3.667-0.789c-1.467-0.422-1.779-1.001-0.937-1.737c-0.761-0.337-1.168-0.558-1.222-0.663
			c-0.027-0.084,0.136-0.4,0.489-0.947c-0.136-0.338-0.231-0.559-0.285-0.664c-0.055-0.168-0.028-0.41,0.081-0.726
			c-0.57-0.4-0.666-0.832-0.285-1.295c0.19-0.253,0.692-0.632,1.507-1.137c0.978-0.611,1.847-0.432,2.607,0.537
			c-0.244-0.358-0.353-0.61-0.326-0.758c0.244-0.294,0.475-0.621,0.693-0.979c0.461,0.316,0.72,0.516,0.773,0.6
			c-0.353-0.737-0.082-1.2,0.815-1.39c0.733-0.147,1.616-0.074,2.648,0.221c-0.38-0.968-0.149-1.548,0.692-1.737
			c0.842-0.147,1.575,0.221,2.2,1.105c0.923,0.168,1.588,0.316,1.996,0.442c0.761-0.4,1.494-0.505,2.2-0.315
			c0.679,0.189,1.194,0.631,1.548,1.326C23.287,13.158,23.681,12.4,24.632,11.958z"/>
		<path style="fill-rule:evenodd;clip-rule:evenodd;fill:#EDE26A;" d="M14.755,12.793c0.796-0.188,1.662-0.121,2.597,0.201
			c-0.416,1.047-0.052,1.651,1.091,1.812c1.039,0.161,2.095-0.04,3.168-0.604c0.104,0.134,0.382,0.389,0.831,0.765
			c0.382,0.323,0.606,0.618,0.676,0.886c0.45-0.295,0.728-0.698,0.831-1.208c0.034-0.456-0.069-0.913-0.312-1.369
			c0.416-0.081,0.899-0.121,1.454-0.121c0.623,1.1,1.057,1.772,1.299,2.014c0.657,0.644,1.575,0.913,2.753,0.805
			c1.315,1.101,2.043,1.731,2.182,1.893c0.554,0.617,0.883,1.437,0.986,2.457c-0.138,0.026-0.242-0.014-0.312-0.121
			c-0.034,0.026-0.086,0.107-0.155,0.241c-0.07,0.161-0.156,0.269-0.26,0.322l-2.234-0.563L29.3,19.196
			c-0.659,0-1.108-0.027-1.351-0.08c-0.52-0.726-1.835-1.007-3.948-0.847c-2.39,0.376-3.965,0.617-4.727,0.726
			c-1.385,0.241-2.286,0.375-2.701,0.402c-0.554,0.054-1.472-0.014-2.753-0.201c-1.351-0.054-2.303-0.108-2.857-0.161
			c-1.039-0.107-1.368-0.376-0.987-0.806l-1.194,0.483c-0.693-0.617-1.004-1.423-0.936-2.416c0.588-0.054,1.992-0.107,4.207-0.161
			c0-0.296,0.053-0.51,0.156-0.644c1.87,0.215,2.857,0.939,2.96,2.173c1.039,0.081,1.818,0.081,2.337,0
			c0.762-0.16,1.264-0.522,1.506-1.087c-1.385-0.725-2.337-1.261-2.856-1.61C15.361,14.404,14.894,13.68,14.755,12.793z"/>
		<path style="fill-rule:evenodd;clip-rule:evenodd;fill:#EDE26A;" d="M28.599,19.136l-0.026-0.02l0.052,0.02
			c0.095,0.001,0.199,0.008,0.312,0.021c1.628,0.188,2.112,0.737,1.454,1.65c-0.297,0.509-1.11,1.099-2.44,1.772
			c-3.222,1.584-5.714,2.174-7.48,1.771c0-0.431,0.034-0.766,0.104-1.007c0.867-0.054,1.852-0.806,2.961-2.256
			c0.899-1.208,2.146-1.449,3.739-0.724C26.728,19.443,27.169,19.034,28.599,19.136z"/>
		<path style="fill-rule:evenodd;clip-rule:evenodd;fill:#D1B92F;" d="M32.046,17.137l0.203,0.506l0.611-0.284
			c0.163,0.189,0.476,0.41,0.938,0.663c0.271,0.189,0.516,0.442,0.732,0.758l0.978-0.442c0.462,0.19,0.938,0.506,1.426,0.948
			c0.49,0.463,0.748,0.863,0.774,1.199c-0.679,0.506-1.208,0.874-1.589,1.105c-0.38,0.211-0.923,0.569-1.629,1.074
			c0.136-0.127-0.313-0.021-1.344,0.315c-1.006,0.358-1.549,0.59-1.63,0.695c-0.354-0.421-0.57-0.769-0.652-1.042
			c-0.651-0.337-1.223-0.579-1.711-0.727c0.163,0.547,0.218,0.968,0.163,1.263c-0.054,1.012-0.801,1.643-2.24,1.896
			c-0.272-0.084-2.607-0.127-7.007-0.127c-3.803,0.021-5.948-0.379-6.437-1.199c-0.951,0.084-1.562,0.115-1.833,0.094
			c-0.408-0.021-0.679-0.252-0.815-0.694c-0.299-0.021-0.652-0.116-1.06-0.284c-0.461-0.169-0.801-0.263-1.018-0.284
			c0-0.063-0.177-0.179-0.53-0.348c-0.353-0.189-0.557-0.315-0.611-0.379c-0.462-0.105-0.829-0.368-1.1-0.789
			c-0.326-0.506-0.584-0.812-0.774-0.916l2.118,0.031c-0.054-0.147-0.081-0.263-0.081-0.348c-0.082-0.126-0.082-0.263,0-0.41
			c0.353-0.084,0.543-0.126,0.57-0.126c0.055-0.042,0.122-0.169,0.204-0.38c0.462,0.063,1.209,0.074,2.241,0.032
			c-0.082-0.127-0.149-0.432-0.204-0.916c-0.054-0.442-0.163-0.758-0.326-0.947l1.059,0.252c0.054-0.082,0.013-0.145-0.122-0.189
			c0.415,0.127,1.094,0.211,2.037,0.253l0.57-0.916c1.358,0.169,2.417,0.158,3.177-0.031c0.924-0.273,1.195-0.821,0.815-1.643
			c0.76,0.021,1.331,0.295,1.711,0.821c0.245,0.295,0.516,0.769,0.815,1.422c0.19-0.127,0.529-0.264,1.018-0.411
			c0.544-0.147,0.856-0.253,0.938-0.315l-0.366,0.727c0.108,0.021,0.366,0.031,0.773,0.031c0.299,0,0.517,0.042,0.652,0.126
			c-0.435,0.674-0.747,1.074-0.937,1.2c-0.326-0.147-0.625-0.221-0.897-0.221l-0.244,0.442c-1.439-0.253-2.824-0.2-4.155,0.157
			l-0.041,0.727c0.896-0.105,1.656-0.084,2.281,0.063c0.815,0.231,1.304,0.61,1.467,1.137c-0.407-0.273-0.774-0.432-1.1-0.474
			c-0.298,0.315-0.543,0.579-0.733,0.789c-0.082,0.042-0.598,0.095-1.548,0.158l0.204,0.537c-0.136,0.104-0.231,0.2-0.285,0.284
			c0.461,0.042,0.747,0.137,0.855,0.284c0.217,0.294,0.353,0.463,0.408,0.505l-0.611,0.063c-0.108,0.505-0.136,0.747-0.082,0.727
			c0.163,0.104,0.502,0.137,1.019,0.095c0.271,0.483,0.638,0.842,1.1,1.073c0.271-0.379,0.462-0.705,0.57-0.979
			c0.353,0,0.923-0.042,1.711-0.127c0.68-0.084,1.249-0.104,1.711-0.063c-0.027-0.147-0.041-0.411-0.041-0.79
			s-0.041-0.631-0.122-0.758c0.081-0.042,0.19,0,0.325,0.127c0.137,0.104,0.232,0.146,0.286,0.126
			c-0.027-0.4,0.054-0.643,0.244-0.727c0.081,0.042,0.421,0.158,1.019,0.348c0.517,0.147,0.869,0.295,1.059,0.442
			c0.571-0.442,1.223-0.611,1.956-0.506c0.081,0.021,0.163,0.042,0.244,0.063c-0.081-0.484-0.23-1.074-0.448-1.769
			c-0.407-1.264-0.476-2.105-0.203-2.526C28.882,16.958,30.063,16.801,32.046,17.137z"/>
		<path style="fill-rule:evenodd;clip-rule:evenodd;fill:#EDE26A;" d="M15.535,18.833c-0.296,0.419-0.434,0.849-0.416,1.289
			c0.035,1.423,0,2.295-0.104,2.618c-1.108-0.484-1.922-0.86-2.442-1.128c-0.865-0.456-1.229-1.007-1.091-1.651
			c0.174,0.027,0.537,0.027,1.091,0c0.52-0.026,0.884-0.013,1.092,0.04c0.034-0.51,0.242-0.832,0.623-0.966
			C14.35,18.986,14.766,18.919,15.535,18.833z M15.378,18.028c0.277-0.215,0.676-0.295,1.195-0.241
			c-0.431,0.323-0.769,0.651-1.013,0.985l-0.961-0.06C14.98,18.364,15.24,18.136,15.378,18.028z"/>
		
			<use xlink:href="#flash0.ai_x2F_Layer_1_x2F__x3C_Path_x3E__x5F_10"  width="25.8" height="20.25" y="-20.25" transform="matrix(1.0388 0 0 -0.8054 8.3501 12.3999)" style="overflow:visible;opacity:0.6016;enable-background:new    ;"/>
		<path style="fill-rule:evenodd;clip-rule:evenodd;fill:#DCC8BF;" d="M20.313,18.189l1.714,0.121
			c-0.347,0.644-1.143,1.073-2.389,1.288c-0.104,0.376-0.036,0.872,0.207,1.489c0.277,0.699,0.416,1.182,0.416,1.45
			c-0.728-0.671-1.247-1.557-1.559-2.658C18.357,18.592,18.894,18.028,20.313,18.189z"/>
		<path style="fill-rule:evenodd;clip-rule:evenodd;fill:#DCC8BF;" d="M27.222,15.693v-0.201c0.588-0.161,1.177-0.148,1.767,0.04
			c0.554,0.188,1.003,0.483,1.35,0.885c-0.796-0.053-1.646-0.04-2.545,0.04c-1.039,0.162-1.835,0.27-2.39,0.323
			C25.403,15.921,26.01,15.559,27.222,15.693z"/>
		<path style="fill-rule:evenodd;clip-rule:evenodd;fill:#DCC8BF;" d="M14.131,15.492c0.07,0.188,0.139,0.496,0.208,0.925
			c-0.242-0.268-0.9-0.818-1.973-1.65c0.692-0.456,1.87-0.416,3.532,0.121c1.664,0.567,2.893,0.662,3.688,0.282
			c0.927,0.627,0.511,0.882-1.246,0.765C15.846,15.639,14.444,15.492,14.131,15.492z"/>
		<path style="fill-rule:evenodd;clip-rule:evenodd;fill:#7FA511;" d="M27.845,20.041c0.312,0.081,0.588,0.229,0.831,0.443
			c-0.484,0.269-0.883,0.416-1.194,0.443c-0.347,0.054-0.866,0.026-1.559-0.081c0.104-0.591,0.641-1.087,1.61-1.489l-0.779,0.522
			C27.412,19.988,27.775,20.041,27.845,20.041z"/>
		<path style="fill-rule:evenodd;clip-rule:evenodd;fill:#7FA511;" d="M31.013,15.813c0.424,0.222,0.719,0.396,0.884,0.523
			c0.277,0.215,0.433,0.483,0.468,0.806c-0.97-0.054-1.575-0.282-1.818-0.686C30.338,16.114,30.494,15.899,31.013,15.813z"/>
		<path style="fill-rule:evenodd;clip-rule:evenodd;fill:#7FA511;" d="M17.015,19.699l1.48,0.101
			c0.173,0.671,0.034,1.114-0.415,1.329c-0.451,0.242-1.075,0.201-1.871-0.121C16.244,20.561,16.512,20.124,17.015,19.699z"/>
		<path style="fill-rule:evenodd;clip-rule:evenodd;fill:#7FA511;" d="M23.741,18.391v-0.281l1.194,0.04
			c0.381,0.054,0.711,0.188,0.987,0.402c-0.796,0.725-1.783,0.926-2.961,0.604c0.035-0.323,0.173-0.537,0.416-0.645
			C23.586,18.457,23.706,18.417,23.741,18.391z"/>
		<path style="fill-rule:evenodd;clip-rule:evenodd;fill:#7FA511;" d="M12.443,17.323l1.584,0.101
			c-0.034,0.215-0.052,0.551-0.052,1.007c-0.935-0.08-1.523-0.241-1.766-0.482C12.035,17.754,12.113,17.545,12.443,17.323z"/>
		<path style="fill-rule:evenodd;clip-rule:evenodd;fill:#7FA511;" d="M25.299,13.357l-0.415,0.242
			c0.173,0.053,0.433,0.201,0.779,0.443c0.381,0.214,0.865,0.295,1.454,0.242c-0.173,1.047-0.917,1.328-2.233,0.845
			C23.603,14.646,23.741,14.055,25.299,13.357z"/>
		<path style="fill-rule:evenodd;clip-rule:evenodd;fill:#7FA511;" d="M21.352,12.955c0.45,0.268,0.364,0.604-0.26,1.006
			c-0.657,0.457-1.073,0.47-1.247,0.041c-0.161-0.376-0.049-0.738,0.338-1.087C20.571,12.724,20.96,12.737,21.352,12.955z
			 M20.183,12.915c-0.031,0.012-0.056,0.026-0.078,0.04l0.156-0.121C20.23,12.858,20.206,12.886,20.183,12.915z"/>
	</g>
</g>
</svg>
