<?xml version="1.0" encoding="iso-8859-1"?>
<!-- Generator: Adobe Illustrator 15.1.0, SVG Export Plug-In . SVG Version: 6.00 Build 0)  -->
<!DOCTYPE svg PUBLIC "-//W3C//DTD SVG 1.1//EN" "http://www.w3.org/Graphics/SVG/1.1/DTD/svg11.dtd">
<svg version="1.1" id="flash0.ai" xmlns="http://www.w3.org/2000/svg" xmlns:xlink="http://www.w3.org/1999/xlink" x="0px" y="0px"
	 width="37.95px" height="39.45px" viewBox="0 0 37.95 39.45" style="enable-background:new 0 0 37.95 39.45;" xml:space="preserve"
	>
<symbol  id="flash0.ai_x5F_3_x2F_Layer_4_x2F__x3C_Path_x3E__x5F_21" viewBox="0 -3.9 28.2 3.9">
	<g id="Layer_1_16_">
		<linearGradient id="SVGID_1_" gradientUnits="userSpaceOnUse" x1="0" y1="-1.9502" x2="28.2002" y2="-1.9502">
			<stop  offset="0" style="stop-color:#FFFFFF"/>
			<stop  offset="1" style="stop-color:#CC9C74"/>
		</linearGradient>
		<polygon style="fill-rule:evenodd;clip-rule:evenodd;fill:url(#SVGID_1_);" points="28.2,-3.9 0,-3.9 0,0 28.2,0 		"/>
	</g>
</symbol>
<symbol  id="flash0.ai_x5F_3_x2F_Layer_4_x2F__x3C_Path_x3E__x5F_22" viewBox="0 -17.944 3.5 17.944">
	<g id="Layer_1_15_">
		
			<linearGradient id="SVGID_2_" gradientUnits="userSpaceOnUse" x1="16338.4727" y1="0.8408" x2="16352.2725" y2="0.8408" gradientTransform="matrix(7.246377e-005 1 -1 -0.001 1.4067 -16354.1719)">
			<stop  offset="0" style="stop-color:#000000"/>
			<stop  offset="1" style="stop-color:#FFFFFF"/>
		</linearGradient>
		<path style="fill-rule:evenodd;clip-rule:evenodd;fill:url(#SVGID_2_);" d="M3.5-10.25c0-4.433-0.05-6.95-0.15-7.55
			c-0.067-0.467-0.184,0.2-0.35,2C2.4-9.9,1.983-6.95,1.75-6.95c-0.267,0-0.683-2.95-1.25-8.85c-0.167-1.8-0.283-2.467-0.35-2
			C0.05-17.2,0-14.683,0-10.25C0-7.383,0.167-4.967,0.5-3c0.333,2,0.75,3,1.25,3C2.217,0,2.633-1,3-3C3.333-5,3.5-7.417,3.5-10.25z"
			/>
	</g>
</symbol>
<symbol  id="flash0.ai_x5F_3_x2F_Layer_4_x2F__x3C_Path_x3E__x5F_25" viewBox="0 -32.05 5.412 32.05">
	<g id="Layer_1_14_">
		
			<linearGradient id="SVGID_3_" gradientUnits="userSpaceOnUse" x1="14.5205" y1="-16342.9209" x2="36.4205" y2="-16342.9209" gradientTransform="matrix(4.566210e-005 -1 1 -0.001 16345.6279 -6.1719)">
			<stop  offset="0" style="stop-color:#FFFFFF"/>
			<stop  offset="1" style="stop-color:#000000"/>
		</linearGradient>
		<path style="fill-rule:evenodd;clip-rule:evenodd;fill:url(#SVGID_3_);" d="M4.75-2.5c-0.733-1-1.067-2.3-1-3.9v-23.15l-0.1-0.7
			c0-0.567,0.067-1.167,0.2-1.8c-1.333,0.167-2.25,0.333-2.75,0.5c-0.367,0.5-0.65,1.017-0.85,1.55L0-29.3v22.75
			c0,1,0.2,1.8,0.6,2.4c0.533,0.6,0.917,1.066,1.15,1.4C2.217-2.15,2.483-1.233,2.55,0H5.4C5.467-0.967,5.25-1.8,4.75-2.5z"/>
	</g>
</symbol>
<symbol  id="flash0.ai_x5F_3_x2F_Layer_4_x2F__x3C_Path_x3E__x5F_26" viewBox="0 -5.7 30.25 5.7">
	<g id="Layer_1_13_">
		
			<linearGradient id="SVGID_4_" gradientUnits="userSpaceOnUse" x1="2050.2607" y1="1623.0049" x2="2074.3789" y2="1623.0049" gradientTransform="matrix(0.9744 0.2249 -0.2249 0.9744 -1628.7012 -2048.0391)">
			<stop  offset="0" style="stop-color:#F59200"/>
			<stop  offset="1" style="stop-color:#FFC800"/>
		</linearGradient>
		<path style="fill-rule:evenodd;clip-rule:evenodd;fill:url(#SVGID_4_);" d="M30.25-2.85c0-0.8-1.483-1.483-4.45-2.05
			c-2.933-0.533-6.5-0.8-10.7-0.8c-4.2,0-7.767,0.267-10.7,0.8C1.467-4.333,0-3.65,0-2.85c0,0.767,1.467,1.434,4.4,2
			C7.367-0.283,10.933,0,15.1,0c4.167,0,7.733-0.283,10.7-0.85C28.767-1.417,30.25-2.083,30.25-2.85z"/>
	</g>
</symbol>
<symbol  id="flash0.ai_x5F_3_x2F_Layer_4_x2F__x3C_Path_x3E__x5F_27" viewBox="0 -0.95 0.95 0.95">
	<g id="Layer_1_12_">
		
			<radialGradient id="SVGID_5_" cx="0.9502" cy="-0.9502" r="0" gradientTransform="matrix(1 0 0 -1 0 -1.9004)" gradientUnits="userSpaceOnUse">
			<stop  offset="0" style="stop-color:#FFCB0F"/>
			<stop  offset="1" style="stop-color:#E09500"/>
		</radialGradient>
		<path style="fill-rule:evenodd;clip-rule:evenodd;fill:url(#SVGID_5_);" d="M0.95-0.5c0-0.3-0.15-0.45-0.45-0.45
			C0.167-0.95,0-0.8,0-0.5C0-0.167,0.167,0,0.5,0C0.8,0,0.95-0.167,0.95-0.5z"/>
	</g>
</symbol>
<symbol  id="flash0.ai_x5F_3_x2F_Layer_4_x2F__x3C_Path_x3E__x5F_28" viewBox="0 -1.8 1.8 1.8">
	<g id="Layer_1_11_">
		
			<radialGradient id="SVGID_6_" cx="2.5195" cy="-2.5195" r="0.6388" gradientTransform="matrix(1 0 0 -1 0 -5.0391)" gradientUnits="userSpaceOnUse">
			<stop  offset="0" style="stop-color:#FFCB0F"/>
			<stop  offset="1" style="stop-color:#E09500"/>
		</radialGradient>
		<path style="fill-rule:evenodd;clip-rule:evenodd;fill:url(#SVGID_6_);" d="M1.8-0.9c0-0.267-0.083-0.483-0.25-0.65
			C1.383-1.717,1.167-1.8,0.9-1.8c-0.233,0-0.45,0.083-0.65,0.25C0.083-1.383,0-1.167,0-0.9c0,0.233,0.083,0.45,0.25,0.65
			C0.45-0.083,0.667,0,0.9,0c0.267,0,0.483-0.083,0.65-0.25C1.717-0.45,1.8-0.667,1.8-0.9z"/>
	</g>
</symbol>
<symbol  id="flash0.ai_x5F_3_x2F_Layer_4_x2F__x3C_Path_x3E__x5F_29" viewBox="0 -0.5 0.5 0.5">
	<g id="Layer_1_10_">
		
			<radialGradient id="SVGID_7_" cx="0.375" cy="-0.375" r="0.0328" gradientTransform="matrix(1 0 0 -1 0 -0.75)" gradientUnits="userSpaceOnUse">
			<stop  offset="0" style="stop-color:#FFCB0F"/>
			<stop  offset="1" style="stop-color:#E09500"/>
		</radialGradient>
		<path style="fill-rule:evenodd;clip-rule:evenodd;fill:url(#SVGID_7_);" d="M0.5-0.25c0-0.167-0.083-0.25-0.25-0.25
			S0-0.417,0-0.25S0.083,0,0.25,0S0.5-0.083,0.5-0.25z"/>
	</g>
</symbol>
<symbol  id="flash0.ai_x5F_3_x2F_Layer_4_x2F__x3C_Path_x3E__x5F_3" viewBox="-0.005 -3.313 1.317 3.388">
	<g id="Layer_1_18_">
		<path style="fill-rule:evenodd;clip-rule:evenodd;fill:#FFE0A1;" d="M0.95-0.2c0-0.466,0.117-1.383,0.35-2.75
			C1.367-3.417,1.167-3.433,0.7-3C0.267-2.6,0.033-2.167,0-1.7c-0.033,0.667,0.117,1.167,0.45,1.5C0.783,0.167,0.95,0.167,0.95-0.2z
			"/>
	</g>
</symbol>
<symbol  id="flash0.ai_x5F_3_x2F_Layer_4_x2F__x3C_Path_x3E__x5F_30" viewBox="0 -1.75 1.75 1.75">
	<g id="Layer_1_9_">
		
			<radialGradient id="SVGID_8_" cx="2.3628" cy="-2.4497" r="0.5673" gradientTransform="matrix(1 0 0 -1 0 -4.8994)" gradientUnits="userSpaceOnUse">
			<stop  offset="0" style="stop-color:#FFCB0F"/>
			<stop  offset="1" style="stop-color:#E09500"/>
		</radialGradient>
		<path style="fill-rule:evenodd;clip-rule:evenodd;fill:url(#SVGID_8_);" d="M1.75-0.9c0-0.233-0.083-0.434-0.25-0.6
			C1.3-1.667,1.083-1.75,0.85-1.75S0.417-1.667,0.25-1.5S0-1.133,0-0.9s0.083,0.45,0.25,0.65C0.417-0.083,0.617,0,0.85,0
			C1.117,0,1.333-0.083,1.5-0.25C1.667-0.45,1.75-0.667,1.75-0.9z"/>
	</g>
</symbol>
<symbol  id="flash0.ai_x5F_3_x2F_Layer_4_x2F__x3C_Path_x3E__x5F_31" viewBox="0 -3.35 3.4 3.35">
	<g id="Layer_1_8_">
		
			<radialGradient id="SVGID_9_" cx="1.7002" cy="-1.7002" r="1.6876" gradientTransform="matrix(1 0 0 -1 0 -3.4004)" gradientUnits="userSpaceOnUse">
			<stop  offset="0" style="stop-color:#FFCB0F"/>
			<stop  offset="1" style="stop-color:#E09500"/>
		</radialGradient>
		<path style="fill-rule:evenodd;clip-rule:evenodd;fill:url(#SVGID_9_);" d="M3.4-1.7c0-0.466-0.167-0.85-0.5-1.15
			c-0.333-0.333-0.733-0.5-1.2-0.5c-0.467,0-0.867,0.167-1.2,0.5C0.167-2.55,0-2.167,0-1.7c0,0.467,0.167,0.867,0.5,1.2
			S1.233,0,1.7,0c0.466,0,0.867-0.167,1.2-0.5C3.233-0.833,3.4-1.233,3.4-1.7z"/>
	</g>
</symbol>
<symbol  id="flash0.ai_x5F_3_x2F_Layer_4_x2F__x3C_Path_x3E__x5F_32" viewBox="0 -1.65 1.65 1.65">
	<g id="Layer_1_7_">
		
			<radialGradient id="SVGID_10_" cx="2.1445" cy="-2.1445" r="0.4019" gradientTransform="matrix(1 0 0 -1 0 -4.2891)" gradientUnits="userSpaceOnUse">
			<stop  offset="0" style="stop-color:#FFCB0F"/>
			<stop  offset="1" style="stop-color:#E09500"/>
		</radialGradient>
		<path style="fill-rule:evenodd;clip-rule:evenodd;fill:url(#SVGID_10_);" d="M1.65-0.8c0-0.567-0.283-0.85-0.85-0.85
			C0.267-1.65,0-1.367,0-0.8C0-0.267,0.267,0,0.8,0c0.233,0,0.434-0.083,0.6-0.25C1.567-0.383,1.65-0.567,1.65-0.8z"/>
	</g>
</symbol>
<symbol  id="flash0.ai_x5F_3_x2F_Layer_4_x2F__x3C_Path_x3E__x5F_33" viewBox="0 -3.1 3.1 3.1">
	<g id="Layer_1_6_">
		
			<radialGradient id="SVGID_11_" cx="1.5498" cy="-1.5498" r="1.5248" gradientTransform="matrix(1 0 0 -1 0 -3.0996)" gradientUnits="userSpaceOnUse">
			<stop  offset="0" style="stop-color:#FFCB0F"/>
			<stop  offset="1" style="stop-color:#E09500"/>
		</radialGradient>
		<path style="fill-rule:evenodd;clip-rule:evenodd;fill:url(#SVGID_11_);" d="M3.1-1.55c0-0.434-0.15-0.8-0.45-1.1
			c-0.3-0.3-0.667-0.45-1.1-0.45c-0.433,0-0.8,0.15-1.1,0.45C0.15-2.35,0-1.983,0-1.55c0,0.433,0.15,0.8,0.45,1.1
			C0.75-0.15,1.117,0,1.55,0c0.434,0,0.8-0.15,1.1-0.45C2.95-0.75,3.1-1.117,3.1-1.55z"/>
	</g>
</symbol>
<symbol  id="flash0.ai_x5F_3_x2F_Layer_4_x2F__x3C_Path_x3E__x5F_34" viewBox="0 -1.55 1.6 1.55">
	<g id="Layer_1_5_">
		
			<radialGradient id="SVGID_12_" cx="2.0796" cy="-2.0146" r="0.3719" gradientTransform="matrix(1 0 0 -1 0 -4.0293)" gradientUnits="userSpaceOnUse">
			<stop  offset="0" style="stop-color:#FFCB0F"/>
			<stop  offset="1" style="stop-color:#E09500"/>
		</radialGradient>
		<path style="fill-rule:evenodd;clip-rule:evenodd;fill:url(#SVGID_12_);" d="M1.6-0.8c0-0.2-0.083-0.383-0.25-0.55
			c-0.133-0.133-0.317-0.2-0.55-0.2C0.267-1.55,0-1.3,0-0.8C0-0.267,0.267,0,0.8,0C1.333,0,1.6-0.267,1.6-0.8z"/>
	</g>
</symbol>
<symbol  id="flash0.ai_x5F_3_x2F_Layer_4_x2F__x3C_Path_x3E__x5F_35" viewBox="0 -2.65 2.65 2.65">
	<g id="Layer_1_4_">
		
			<radialGradient id="SVGID_13_" cx="1.3501" cy="-1.2998" r="1.3252" gradientTransform="matrix(1 0 0 -1 0 -2.5996)" gradientUnits="userSpaceOnUse">
			<stop  offset="0" style="stop-color:#FFCB0F"/>
			<stop  offset="1" style="stop-color:#E09500"/>
		</radialGradient>
		<path style="fill-rule:evenodd;clip-rule:evenodd;fill:url(#SVGID_13_);" d="M2.65-1.3c0-0.367-0.133-0.684-0.4-0.95
			s-0.583-0.4-0.95-0.4s-0.667,0.133-0.9,0.4C0.133-1.983,0-1.667,0-1.3c0,0.333,0.133,0.633,0.4,0.9S0.967,0,1.3,0
			c0.367,0,0.684-0.133,0.95-0.4C2.517-0.633,2.65-0.933,2.65-1.3z"/>
	</g>
</symbol>
<symbol  id="flash0.ai_x5F_3_x2F_Layer_4_x2F__x3C_Path_x3E__x5F_37" viewBox="0 -26.6 30.15 26.6">
	<g id="Layer_1_3_">
		
			<linearGradient id="SVGID_14_" gradientUnits="userSpaceOnUse" x1="12.9707" y1="-16330.5703" x2="35.9457" y2="-16330.5703" gradientTransform="matrix(4.352557e-005 -1 1 -0.001 16345.6436 -6.1724)">
			<stop  offset="0" style="stop-color:#D68000"/>
			<stop  offset="1" style="stop-color:#F2BE00"/>
		</linearGradient>
		<path style="fill-rule:evenodd;clip-rule:evenodd;fill:url(#SVGID_14_);" d="M30.15,0v-20.8c0-1.034-0.367-1.983-1.1-2.85
			c-0.733-0.833-1.7-1.434-2.9-1.8l-0.25-0.1l-0.85-0.15c-3.433-0.6-6.633-0.9-9.6-0.9c-2.7,0-5.25,0.133-7.65,0.4
			c-2.2,0.267-3.566,0.55-4.1,0.85c-1.1,0.4-1.983,1-2.65,1.8C0.35-22.717,0-21.8,0-20.8v20.75C1.333-0.617,3.333-1.067,6-1.4
			c2.733-0.333,5.75-0.5,9.05-0.5c3.333,0,6.367,0.167,9.1,0.5C26.85-1.033,28.85-0.567,30.15,0z"/>
	</g>
</symbol>
<symbol  id="flash0.ai_x5F_3_x2F_Layer_4_x2F__x3C_Path_x3E__x5F_38" viewBox="0 -33.35 32.5 33.35">
	<g id="Layer_1_2_">
		<linearGradient id="SVGID_15_" gradientUnits="userSpaceOnUse" x1="0" y1="-16.6748" x2="32.45" y2="-16.6748">
			<stop  offset="0" style="stop-color:#FFFFFF"/>
			<stop  offset="1" style="stop-color:#CC9C74"/>
		</linearGradient>
		<path style="fill-rule:evenodd;clip-rule:evenodd;fill:url(#SVGID_15_);" d="M30-2c0.233-0.267,0.717-0.8,1.45-1.6
			c0.667-0.9,1.017-1.883,1.05-2.95v-18.6c0-1.4-0.4-2.684-1.2-3.85c-0.8-1.133-1.85-1.95-3.15-2.45L27-31.75
			c-1.667-0.433-3.1-0.75-4.3-0.95c-2.133-0.433-4.167-0.65-6.1-0.65c-2.767,0-5.5,0.25-8.2,0.75c-2.3,0.434-3.767,0.867-4.4,1.3
			c-1.2,0.533-2.167,1.35-2.9,2.45S0-26.517,0-25.15v18.6C0.033-5.483,0.383-4.5,1.05-3.6C1.417-3.133,1.9-2.6,2.5-2
			c0.467,0.467,0.733,1.133,0.8,2h25.9c0.033-0.233,0.083-0.483,0.15-0.75C29.483-1.283,29.7-1.7,30-2z"/>
	</g>
</symbol>
<symbol  id="flash0.ai_x5F_3_x2F_Layer_4_x2F__x3C_Path_x3E__x5F_5" viewBox="-0.003 -23.528 30.753 23.53">
	<g id="Layer_1_17_">
		
			<linearGradient id="SVGID_16_" gradientUnits="userSpaceOnUse" x1="-15.7441" y1="-16311.7461" x2="5.9059" y2="-16311.7461" gradientTransform="matrix(0.0023 -1 1 0.0023 16327.1006 20.8516)">
			<stop  offset="0" style="stop-color:#FFAA00"/>
			<stop  offset="1" style="stop-color:#FFBB33"/>
		</linearGradient>
		<path style="fill-rule:evenodd;clip-rule:evenodd;fill:url(#SVGID_16_);" d="M30.6-2.8c0.1-0.434,0.083-0.784-0.05-1.05
			c-0.066-0.133-0.267-0.4-0.6-0.8c-0.2-0.3-0.267-0.617-0.2-0.95c0.033-0.3,0.2-0.75,0.5-1.35c0.333-0.633,0.5-0.966,0.5-1
			c0-0.167-0.233-0.4-0.7-0.7c-0.8-0.533-1.167,0.167-1.1,2.1c0,0.433,0.15,1.066,0.45,1.9c0.233,0.633,0.267,1.066,0.1,1.3
			c-0.2,0.267-0.65,0.317-1.35,0.15c-0.967-0.333-1.783-0.583-2.45-0.75c-0.534-0.133-1.5-0.267-2.9-0.4
			c-1.066-0.1-1.85-0.283-2.35-0.55c-0.534-0.3-0.75-0.633-0.65-1c0.067-0.233,0.25-0.733,0.55-1.5
			c0.167-0.733,0.033-1.283-0.4-1.65c-0.434-0.333-0.917-0.217-1.45,0.35c-0.4,0.4-0.567,0.867-0.5,1.4
			c0.067,0.7,0.017,1.233-0.15,1.6c-0.233,0.633-0.967,0.983-2.2,1.05c-1.133,0.066-2.017-0.133-2.65-0.6
			c-0.633-0.433-1.217-1.267-1.75-2.5c-0.567-1.333-0.867-2.717-0.9-4.15c-0.033-1.1,0.1-2.767,0.4-5
			c0.333-2.333,0.5-3.883,0.5-4.65c0-1.167-0.217-1.817-0.65-1.95c-0.333-0.1-0.8,0.067-1.4,0.5c-0.733,0.533-0.75,2.45-0.05,5.75
			c0.367,1.633,0.383,3.683,0.05,6.15c-0.367,2.667-1,4.333-1.9,5C6.733-5.7,5.25-5.083,2.85-4.25C0.883-3.583-0.067-3.083,0-2.75
			c0.133,0.5,0.233,0.767,0.3,0.8c0.1,0.133,0.5,0.333,1.2,0.6C3.733-0.483,8.183-0.033,14.85,0c4.667,0.033,8.583-0.317,11.75-1.05
			C29.167-1.617,30.5-2.2,30.6-2.8z"/>
	</g>
</symbol>
<use xlink:href="#flash0.ai_x5F_3_x2F_Layer_4_x2F__x3C_Path_x3E__x5F_38"  width="32.5" height="33.35" y="-33.35" transform="matrix(0.9769 0 0 -0.9769 0.5 6.8501)" style="overflow:visible;opacity:0.4805;enable-background:new    ;"/>
<use xlink:href="#flash0.ai_x5F_3_x2F_Layer_4_x2F__x3C_Path_x3E__x5F_37"  width="30.15" height="26.6" y="-26.6" transform="matrix(0.9769 0 0 -0.9769 1.6499 12.2998)" style="overflow:visible;opacity:0.8984;enable-background:new    ;"/>
<path style="fill-rule:evenodd;clip-rule:evenodd;fill:#E39700;" d="M5.135,37.026c0.423-0.978,4.201-1.597,11.333-1.856
	c2.442-0.065,4.819-0.017,7.131,0.146c2.572,0.228,4.396,0.554,5.471,0.977c-0.781,0.455-1.4,0.749-1.856,0.879l-0.244,0.099
	l-0.83,0.146c-3.354,0.587-6.48,0.88-9.379,0.88c-2.637,0-5.128-0.131-7.473-0.392c-2.149-0.26-3.485-0.537-4.005-0.83L5.135,37.026
	z"/>
<use xlink:href="#flash0.ai_x5F_3_x2F_Layer_4_x2F__x3C_Path_x3E__x5F_35"  width="2.65" height="2.65" y="-2.65" transform="matrix(0.9769 0 0 -0.9769 11.8501 22)" style="overflow:visible;opacity:0.8984;enable-background:new    ;"/>
<use xlink:href="#flash0.ai_x5F_3_x2F_Layer_4_x2F__x3C_Path_x3E__x5F_34"  width="1.6" height="1.55" y="-1.55" transform="matrix(0.9769 0 0 -0.9769 14.6001 20.0996)" style="overflow:visible;opacity:0.8984;enable-background:new    ;"/>
<use xlink:href="#flash0.ai_x5F_3_x2F_Layer_4_x2F__x3C_Path_x3E__x5F_33"  width="3.1" height="3.1" y="-3.1" transform="matrix(0.9769 0 0 -0.9769 12.8999 28.9502)" style="overflow:visible;opacity:0.8984;enable-background:new    ;"/>
<use xlink:href="#flash0.ai_x5F_3_x2F_Layer_4_x2F__x3C_Path_x3E__x5F_32"  width="1.65" height="1.65" y="-1.65" transform="matrix(0.9769 0 0 -0.9769 21.0498 31.5498)" style="overflow:visible;opacity:0.8984;enable-background:new    ;"/>
<use xlink:href="#flash0.ai_x5F_3_x2F_Layer_4_x2F__x3C_Path_x3E__x5F_31"  width="3.4" height="3.35" y="-3.35" transform="matrix(0.9769 0 0 -0.9769 20.3496 26.6504)" style="overflow:visible;opacity:0.8984;enable-background:new    ;"/>
<use xlink:href="#flash0.ai_x5F_3_x2F_Layer_4_x2F__x3C_Path_x3E__x5F_30"  width="1.75" height="1.75" y="-1.75" transform="matrix(0.9769 0 0 -0.9769 6.9502 24.2998)" style="overflow:visible;opacity:0.8984;enable-background:new    ;"/>
<use xlink:href="#flash0.ai_x5F_3_x2F_Layer_4_x2F__x3C_Path_x3E__x5F_29"  width="0.5" height="0.5" y="-0.5" transform="matrix(0.9769 0 0 -0.9769 7.8999 20.25)" style="overflow:visible;opacity:0.8984;enable-background:new    ;"/>
<use xlink:href="#flash0.ai_x5F_3_x2F_Layer_4_x2F__x3C_Path_x3E__x5F_28"  width="1.8" height="1.8" y="-1.8" transform="matrix(0.9769 0 0 -0.9769 28.4502 14.6001)" style="overflow:visible;opacity:0.8984;enable-background:new    ;"/>
<use xlink:href="#flash0.ai_x5F_3_x2F_Layer_4_x2F__x3C_Path_x3E__x5F_27"  width="0.95" height="0.95" y="-0.95" transform="matrix(0.9769 0 0 -0.9769 24.6504 15)" style="overflow:visible;opacity:0.8984;enable-background:new    ;"/>
<use xlink:href="#flash0.ai_x5F_3_x2F_Layer_4_x2F__x3C_Path_x3E__x5F_26"  width="30.25" height="5.7" y="-5.7" transform="matrix(0.9769 0 0 -0.9769 1.6001 9.3999)" style="overflow:visible;opacity:0.8984;enable-background:new    ;"/>
<use xlink:href="#flash0.ai_x5F_3_x2F_Layer_4_x2F__x3C_Path_x3E__x5F_25"  width="5.412" height="32.05" y="-32.05" transform="matrix(0.9769 0 0 -0.9769 3.8999 6.8501)" style="overflow:visible;enable-background:new    ;"/>
<path style="fill-rule:evenodd;clip-rule:evenodd;fill:none;stroke:#F8DA9F;stroke-width:0.5;" d="M29.802,8.792
	c-0.293-0.293-0.504-0.7-0.635-1.221l-0.146-0.733H3.718C3.653,7.685,3.393,8.336,2.937,8.792c-0.195,0.26-0.667,0.781-1.417,1.563
	c-0.651,0.879-0.993,1.84-1.026,2.882v18.171c0,1.335,0.358,2.54,1.075,3.614c0.717,1.075,1.661,1.873,2.833,2.394
	c0.651,0.424,1.84,0.781,3.566,1.075c2.214,0.391,4.999,0.586,8.353,0.586c3.289,0,5.763-0.146,7.424-0.439
	c0.944-0.162,1.986-0.424,3.126-0.781l1.124-0.293c1.27-0.489,2.296-1.286,3.077-2.394c0.781-1.141,1.172-2.395,1.172-3.762V13.237
	c-0.032-1.042-0.375-2.002-1.025-2.882C30.502,9.574,30.03,9.053,29.802,8.792z"/>
<path style="fill-rule:evenodd;clip-rule:evenodd;fill:#FFFFFF;" d="M16.321,11.821c1.335-0.032,2.116,0.016,2.344,0.146
	c0.26,0.13-0.7,0.261-2.882,0.391c-1.628,0.098-2.931,0.098-3.908,0c-1.075-0.163-1.449-0.423-1.124-0.781
	c0.13-0.13,0.586-0.13,1.368,0C13.422,11.772,14.822,11.854,16.321,11.821z"/>
<use xlink:href="#flash0.ai_x5F_3_x2F_Layer_4_x2F__x3C_Path_x3E__x5F_22"  width="3.5" height="17.944" y="-17.944" transform="matrix(0.9769 0 0 -0.9769 26 14.8999)" style="overflow:visible;opacity:0.3516;enable-background:new    ;"/>
<use xlink:href="#flash0.ai_x5F_3_x2F_Layer_4_x2F__x3C_Path_x3E__x5F_21"  width="28.2" height="3.9" y="-3.9" transform="matrix(0.9769 0 0 -0.9769 2.7002 3.1499)" style="overflow:visible;opacity:0.4805;enable-background:new    ;"/>
<rect x="2.692" y="3.126" style="fill-rule:evenodd;clip-rule:evenodd;fill:none;stroke:#C4A76E;stroke-width:0.5;" width="27.55" height="3.81"/>
<path style="fill-rule:evenodd;clip-rule:evenodd;fill:#D1B162;" d="M27.751,2.296c0.781-0.13,1.221-0.065,1.318,0.195
	c0.098,0.293-0.113,0.554-0.636,0.782c-0.455,0.195-0.813,0.114-1.074-0.244C27.1,2.638,27.229,2.394,27.751,2.296z"/>
<path style="fill-rule:evenodd;clip-rule:evenodd;fill:#D1B162;" d="M26.236,1.612c0.456,0,0.586,0.277,0.391,0.831
	c-0.163,0.554-0.472,0.684-0.928,0.391c-0.456-0.26-0.586-0.537-0.391-0.831C25.503,1.742,25.813,1.612,26.236,1.612z"/>
<path style="fill-rule:evenodd;clip-rule:evenodd;fill:#F8E5BF;" d="M31.463,6.937c0,0.619-1.465,1.139-4.396,1.563
	c-2.931,0.456-6.464,0.684-10.599,0.684c-5.21,0-9.33-0.325-12.358-0.977C2.35,7.848,1.471,7.425,1.471,6.937
	c0-0.619,1.465-1.14,4.396-1.563c2.931-0.423,6.464-0.635,10.6-0.635c4.167,0,7.702,0.212,10.599,0.635
	C29.998,5.796,31.463,6.317,31.463,6.937z"/>
<path style="fill-rule:evenodd;clip-rule:evenodd;fill:#C4A76E;" d="M1.471,6.937c0-0.391,0.407-0.717,1.221-0.977
	c0.814-0.228,1.352-0.342,1.612-0.342l1.221,0.635C4.874,6.382,4.37,6.562,4.011,6.79C3.295,7.213,3.653,7.637,5.086,8.06
	l2.051,0.635C5.77,8.532,4.76,8.369,4.109,8.206C2.35,7.848,1.471,7.425,1.471,6.937z"/>
<path style="fill-rule:evenodd;clip-rule:evenodd;fill:#C4A76E;" d="M31.561,6.937c0,0.488-0.896,0.911-2.687,1.27
	c-0.717,0.163-1.71,0.326-2.979,0.488l2.051-0.635c1.4-0.423,1.743-0.847,1.026-1.27l-1.465-0.538l1.221-0.635l1.611,0.342
	C31.154,6.22,31.561,6.545,31.561,6.937z"/>
<path style="fill-rule:evenodd;clip-rule:evenodd;fill:#C4A76E;" d="M2.839,6.692l0.684-1.27l26.621,0.195
	c-0.064,0.358-0.667,0.717-1.807,1.075c-2.279,0.782-6.09,1.237-11.431,1.368c-5.34,0.13-9.281-0.065-11.82-0.586
	C3.816,7.246,3.067,6.985,2.839,6.692z"/>
<path style="fill-rule:evenodd;clip-rule:evenodd;fill:#F8E5BF;" d="M31.463,4.982c0,0.619-1.465,1.14-4.396,1.563
	c-2.897,0.423-6.432,0.635-10.599,0.635c-4.136,0-7.669-0.212-10.6-0.635C2.937,6.122,1.471,5.601,1.471,4.982
	s1.465-1.14,4.396-1.563c2.931-0.423,6.464-0.635,10.6-0.635c4.167,0,7.702,0.212,10.599,0.635
	C29.998,3.842,31.463,4.364,31.463,4.982z"/>
<path style="fill-rule:evenodd;clip-rule:evenodd;fill:#C4A76E;" d="M1.471,4.982c0-0.26,0.391-0.554,1.172-0.879
	C3.425,4.005,4.19,3.957,4.939,3.957l0.586,0.342C4.874,4.429,4.37,4.592,4.011,4.787C3.295,5.21,3.653,5.65,5.086,6.106
	l2.051,0.586L4.109,6.252C2.35,5.829,1.471,5.406,1.471,4.982z"/>
<path style="fill-rule:evenodd;clip-rule:evenodd;fill:#C4A76E;" d="M31.561,4.982c0,0.423-0.896,0.847-2.687,1.27l-2.979,0.439
	l2.051-0.586c1.4-0.456,1.743-0.896,1.026-1.319l-1.465-0.488l0.586-0.342l2.295,0.147C31.17,4.429,31.561,4.722,31.561,4.982z"/>
<path style="fill-rule:evenodd;clip-rule:evenodd;fill:#C4A76E;" d="M2.79,4.836l0.684-1.319l26.621,0.195
	c-0.064,0.358-0.668,0.733-1.807,1.124c-2.28,0.749-6.09,1.188-11.43,1.318c-5.341,0.13-9.281-0.048-11.821-0.537
	C3.767,5.389,3.018,5.129,2.79,4.836z"/>
<path style="fill-rule:evenodd;clip-rule:evenodd;fill:#F8E5BF;" d="M31.463,2.931c0,0.749-1.465,1.368-4.396,1.856
	c-2.897,0.521-6.432,0.782-10.599,0.782c-4.136,0-7.669-0.261-10.6-0.782C2.937,4.266,1.471,3.647,1.471,2.931
	c0-0.716,1.465-1.335,4.396-1.856c2.963-0.521,6.497-0.782,10.6-0.782c4.135,0,7.668,0.261,10.599,0.782
	C29.998,1.596,31.463,2.214,31.463,2.931z"/>
<path style="fill-rule:evenodd;clip-rule:evenodd;fill:#FFFFFF;" d="M26.09,7.669c0.749-0.098,1.091-0.098,1.025,0
	c-0.064,0.065-0.456,0.163-1.172,0.293c-1.042,0.228-2.671,0.423-4.885,0.586c-3.028,0.228-6.041,0.292-9.037,0.195
	C9.091,8.646,7.431,8.45,7.04,8.157C6.616,7.832,7.235,7.75,8.896,7.913C14.334,8.434,20.065,8.353,26.09,7.669z"/>
<path style="fill-rule:evenodd;clip-rule:evenodd;fill:#FFFFFF;" d="M26.041,5.715c0.749-0.098,1.091-0.098,1.025,0
	c-0.064,0.064-0.455,0.179-1.172,0.342c-4.005,0.716-8.646,0.96-13.921,0.733C9.042,6.692,7.381,6.497,6.991,6.204
	C6.567,5.878,7.187,5.796,8.847,5.959C14.285,6.48,20.017,6.399,26.041,5.715z"/>
<path style="fill-rule:evenodd;clip-rule:evenodd;fill:#FFFFFF;" d="M25.991,4.054c0.749-0.098,1.092-0.098,1.027,0
	c-0.066,0.065-0.456,0.179-1.173,0.342C21.84,5.113,17.2,5.357,11.924,5.129C8.994,5.031,7.333,4.836,6.942,4.542
	C6.519,4.217,7.137,4.136,8.798,4.298C14.237,4.819,19.968,4.738,25.991,4.054z"/>
<use xlink:href="#flash0.ai_x5F_3_x2F_Layer_4_x2F__x3C_Path_x3E__x5F_5"  width="30.753" height="23.53" x="-0.003" y="-23.528" transform="matrix(0.9769 0 0 -0.9769 1.7002 0)" style="overflow:visible;opacity:0.6484;enable-background:new    ;"/>
<linearGradient id="SVGID_17_" gradientUnits="userSpaceOnUse" x1="3.3999" y1="2.5254" x2="30.2012" y2="2.5254" gradientTransform="matrix(0.9769 0 0 0.9769 0.2502 0)">
	<stop  offset="0" style="stop-color:#BA7200"/>
	<stop  offset="1" style="stop-color:#FFD47D"/>
</linearGradient>
<path style="fill-rule:evenodd;clip-rule:evenodd;fill:url(#SVGID_17_);" d="M29.754,2.442c0,0.488-1.271,0.912-3.811,1.27
	c-2.572,0.326-5.666,0.489-9.281,0.489c-3.614,0-6.691-0.163-9.231-0.489c-2.573-0.358-3.859-0.781-3.859-1.27
	c0-0.456,1.287-0.863,3.859-1.221c2.54-0.326,5.617-0.488,9.231-0.488c3.615,0,6.709,0.163,9.281,0.488
	C28.483,1.58,29.754,1.986,29.754,2.442z"/>
<use xlink:href="#flash0.ai_x5F_3_x2F_Layer_4_x2F__x3C_Path_x3E__x5F_3"  width="1.317" height="3.388" x="-0.005" y="-3.313" transform="matrix(0.9769 0 0 -0.9769 10.3501 19.1001)" style="overflow:visible;opacity:0.8984;enable-background:new    ;"/>
<path style="fill-rule:evenodd;clip-rule:evenodd;fill:#FFE0A1;" d="M20.277,6.252c0.032,0.163,0.212,0.554,0.537,1.172
	c0.228,0.553,0.195,0.879-0.098,0.977c-0.326,0.098-0.57,0.016-0.732-0.245c-0.131-0.228-0.195-0.538-0.195-0.928
	c0-0.619-0.114-1.335-0.342-2.149c-0.033-0.195,0.081-0.13,0.342,0.195C20.017,5.601,20.18,5.927,20.277,6.252z"/>
<path style="fill-rule:evenodd;clip-rule:evenodd;fill:#FFE0A1;" d="M9.14,4.933c0.325,0.196,0.733,0.701,1.221,1.515
	c0.521,0.847,0.733,1.417,0.635,1.709c-0.065,0.261-0.163,0.293-0.293,0.098c-0.033-0.065-0.195-0.375-0.488-0.928
	C9.987,6.904,9.645,6.432,9.189,5.91C8.7,5.389,8.293,5.031,7.968,4.836C7.609,4.641,7.642,4.575,8.065,4.641
	C8.489,4.673,8.847,4.771,9.14,4.933z"/>
<path style="fill-rule:evenodd;clip-rule:evenodd;fill:#FFE0A1;" d="M30.828,6.937c0.292,0.781,0.276,1.221-0.049,1.319
	c-0.392,0.13-0.586-0.049-0.586-0.538c0-0.391,0.081-0.667,0.244-0.831C30.632,6.725,30.763,6.741,30.828,6.937z"/>
</svg>
