<?xml version="1.0" encoding="iso-8859-1"?>
<!-- Generator: Adobe Illustrator 15.1.0, SVG Export Plug-In . SVG Version: 6.00 Build 0)  -->
<!DOCTYPE svg PUBLIC "-//W3C//DTD SVG 1.1//EN" "http://www.w3.org/Graphics/SVG/1.1/DTD/svg11.dtd">
<svg version="1.1" id="flash0.ai" xmlns="http://www.w3.org/2000/svg" xmlns:xlink="http://www.w3.org/1999/xlink" x="0px" y="0px"
	 width="45.5px" height="32.7px" viewBox="0 0 45.5 32.7" style="enable-background:new 0 0 45.5 32.7;" xml:space="preserve">
<g>
	
		<linearGradient id="SVGID_1_" gradientUnits="userSpaceOnUse" x1="-0.0088" y1="17.3633" x2="44.9162" y2="17.3633" gradientTransform="matrix(0.7246 -2.998517e-004 -3.937848e-004 0.5388 7.4503 15.2499)">
		<stop  offset="0.0235" style="stop-color:#A0A1A3"/>
		<stop  offset="1" style="stop-color:#78797A"/>
	</linearGradient>
	<path style="fill-rule:evenodd;clip-rule:evenodd;fill:url(#SVGID_1_);" d="M36.288,19.103c2.85,1.616,4.069,3.538,3.658,5.766
		c-0.435,2.228-2.379,4.096-5.832,5.604c-3.478,1.527-7.463,2.255-11.955,2.183c-4.469-0.071-8.14-0.925-11.014-2.56
		c-2.85-1.616-4.058-3.538-3.623-5.766c0.41-2.227,2.354-4.095,5.833-5.604c3.478-1.526,7.451-2.254,11.919-2.183
		C29.742,16.633,33.413,17.486,36.288,19.103z"/>
	
		<linearGradient id="SVGID_2_" gradientUnits="userSpaceOnUse" x1="-48.1899" y1="-10.2183" x2="0.9808" y2="-10.2183" gradientTransform="matrix(-0.7009 -0.1365 0.1835 -0.5213 7.4502 15.2496)">
		<stop  offset="0" style="stop-color:#CCCCCC"/>
		<stop  offset="1" style="stop-color:#FFFFFF"/>
	</linearGradient>
	<path style="fill-rule:evenodd;clip-rule:evenodd;fill:url(#SVGID_2_);" d="M36.288,18.968c2.874,1.527,4.094,3.332,3.658,5.416
		c-0.435,2.083-2.379,3.834-5.832,5.253c-3.478,1.419-7.451,2.093-11.919,2.021c-4.493-0.071-8.164-0.871-11.014-2.397
		c-2.874-1.526-4.094-3.332-3.659-5.415c0.41-2.084,2.354-3.835,5.833-5.254c3.478-1.437,7.451-2.12,11.919-2.048
		C29.742,16.633,33.413,17.441,36.288,18.968z"/>
	
		<linearGradient id="SVGID_3_" gradientUnits="userSpaceOnUse" x1="-3.6226" y1="16.2109" x2="37.6333" y2="16.2109" gradientTransform="matrix(0.7246 3.267638e-004 4.594573e-004 0.5388 7.0998 15.2497)">
		<stop  offset="0" style="stop-color:#CCCCCC"/>
		<stop  offset="1" style="stop-color:#FFFFFF"/>
	</linearGradient>
	<path style="fill-rule:evenodd;clip-rule:evenodd;fill:url(#SVGID_3_);" d="M35.322,19.695c2.632,1.293,3.756,2.812,3.368,4.554
		c-0.386,1.742-2.173,3.206-5.361,4.391c-3.188,1.186-6.823,1.742-10.904,1.671c-4.106-0.072-7.475-0.746-10.108-2.021
		c-2.632-1.275-3.756-2.793-3.369-4.554c0.411-1.742,2.198-3.206,5.362-4.392c3.188-1.186,6.835-1.742,10.94-1.67
		C29.356,17.746,32.713,18.42,35.322,19.695z"/>
	<g>
		<g>
			<path style="fill-rule:evenodd;clip-rule:evenodd;fill:#D88E39;" d="M27.396,17.881l3.367-0.257
				c2.391-0.049,3.989,0.22,4.794,0.806c1.025,0.756,1.769,1.806,2.232,3.147c0.464,1.391,0.317,2.293-0.439,2.708
				c-1.073,0.585-3.915,0.817-8.526,0.695l-4.245-2.818L27.396,17.881z"/>
			<path style="fill-rule:evenodd;clip-rule:evenodd;fill:#B87119;" d="M35.301,21.027c0.537,0.366,0.915,0.744,1.134,1.135
				c0.245,0.342,0.843,0.342,1.794,0c-0.366,1.171-0.659,1.879-0.879,2.123c-0.146,0.146-0.463,0.329-0.951,0.549l-0.659,0.329
				l-6.733-3.366l0.878-4.063l0.77,1.024c0.683,0.708,1.438,1.135,2.269,1.281C33.776,20.187,34.568,20.516,35.301,21.027z"/>
			<path style="fill-rule:evenodd;clip-rule:evenodd;fill:#D88E39;" d="M18.21,17.734l-2.306,4.428l-3.733,3.184
				c-0.683-0.268-1.281-0.67-1.793-1.207c-1.049-1.074-1.159-2.27-0.33-3.587c0.805-1.317,2.403-2.184,4.794-2.598
				C16.063,17.759,17.186,17.686,18.21,17.734z"/>
			<path style="fill-rule:evenodd;clip-rule:evenodd;fill:#D88E39;" d="M25.603,15.063c-2.153,0.467-3.739,1.004-4.758,1.61
				c-1.024,0.586-2.415,1.647-4.172,3.184c-0.463-0.854-0.793-1.769-0.988-2.744c-0.391-1.952,0.134-3.208,1.574-3.77
				c1.341-0.512,3.049-0.329,5.123,0.549C24.277,14.691,25.351,15.081,25.603,15.063z"/>
			<path style="fill-rule:evenodd;clip-rule:evenodd;fill:#B87119;" d="M16.234,14.514l0.622,0.219
				c0.537,0.147,1.098,0.256,1.684,0.33c0.951,0.122,2.903,0.122,5.855,0l-6.733,6.039l-5.49,4.244l-2.305-1.793
				c1.415-0.463,2.537-1.171,3.367-2.122c0.512-0.586,0.817-1.257,0.915-2.013l-0.037-0.988l1.611-0.549
				c-0.244-1.049-0.305-1.757-0.183-2.123C15.66,15.417,15.892,15.001,16.234,14.514z"/>
			<path style="fill-rule:evenodd;clip-rule:evenodd;fill:#D99643;" d="M28.311,14.367c1-0.073,1.525,0.451,1.573,1.574
				c0.025,0.561-0.146,1.745-0.512,3.549c-0.293,1.343-0.964,2.465-2.013,3.367c-1.172,1.024-2.988,1.915-5.453,2.672
				c-2.196,0.684-3.842,0.428-4.94-0.769c-0.391-0.439-0.927-1.549-1.61-3.33c-0.342-0.854,0.11-1.94,1.354-3.257
				c1.22-1.269,2.598-2.135,4.135-2.599c1.415-0.415,2.684-0.708,3.807-0.878C25.48,14.575,26.7,14.465,28.311,14.367z"/>
			<path style="fill-rule:evenodd;clip-rule:evenodd;fill:#D99643;" d="M35.374,22.857c0.341,1.439,0.183,2.611-0.476,3.514
				c-0.586,0.805-1.55,1.354-2.892,1.646c-3.392,0.708-5.989,0.646-7.795-0.183c-1.22-0.562-1.817-1.452-1.793-2.672
				c0-1.317,0.72-2.439,2.159-3.366c1.366-0.879,3.501-1.099,6.404-0.659C33.739,21.577,35.203,22.15,35.374,22.857z"/>
			<path style="fill-rule:evenodd;clip-rule:evenodd;fill:#F1AB56;" d="M26.334,21.797c0.439-0.366,1.745-0.317,3.916,0.146
				c1.123,0.22,2.416,0.525,3.88,0.915c0.487,0.073,0.634,0.439,0.438,1.098c-0.171,0.562-0.427,0.964-0.768,1.208
				c-0.123,0.098-0.843,0.391-2.16,0.879c-1.341,0.488-2.28,0.902-2.817,1.244c-0.684,0.438-1.635,0.402-2.854-0.11
				c-1.172-0.513-1.988-1.183-2.452-2.013c-0.366-0.658-0.146-1.305,0.658-1.939C24.639,22.882,25.358,22.406,26.334,21.797z"/>
			<path style="fill-rule:evenodd;clip-rule:evenodd;fill:#F1AB56;" d="M26.518,19.308c-0.488,0.513-1.293,1.159-2.415,1.94
				c-1.294,0.902-2.135,1.316-2.525,1.243c-0.513-0.073-1.415-0.438-2.708-1.098c-1.342-0.707-2.074-1.22-2.196-1.537
				c-0.146-0.414,0.208-1,1.062-1.757c0.927-0.805,1.964-1.28,3.11-1.427c0.83-0.122,2.403-0.378,4.722-0.769
				c1.951-0.269,3.037-0.256,3.257,0.037C29.164,16.405,28.396,17.526,26.518,19.308z"/>
			<path style="fill-rule:evenodd;clip-rule:evenodd;fill:#F1AB56;" d="M15.355,21.431c1.098-0.439,2.232-0.329,3.403,0.329
				c0.634,0.342,1.452,0.891,2.452,1.646c0.927,0.464,1.598,1.122,2.013,1.977c0.513,1.073,0.257,2-0.769,2.781
				c-1.098,0.854-3.038,0.988-5.819,0.403c-2.708-0.562-4.196-1.281-4.465-2.16c-0.317-0.902-0.244-1.78,0.22-2.635
				C12.928,22.797,13.916,22.016,15.355,21.431z"/>
			<path style="fill-rule:evenodd;clip-rule:evenodd;fill:#FABF78;" d="M27.579,15.063c0.829,0.146,0.78,0.537-0.146,1.171
				c-1.293,0.708-2.147,1.196-2.562,1.463c-1.245,0.854-2.379,1.537-3.404,2.05c-0.708,0.366-1.366,0.39-1.977,0.073
				c-0.512-0.269-0.939-0.732-1.281-1.391c-0.269-0.488-0.037-0.939,0.695-1.354c0.415-0.244,1.123-0.524,2.123-0.841
				C24.103,15.209,26.286,14.818,27.579,15.063z"/>
			<path style="fill-rule:evenodd;clip-rule:evenodd;fill:#FABF78;" d="M30.689,22.053c0.854-0.195,1.488-0.049,1.903,0.438
				c0.414,0.488,0.378,0.806-0.109,0.952c-0.099,0.049-0.635,0.293-1.61,0.732c-0.854,0.39-1.611,0.67-2.27,0.841
				c-0.805,0.195-1.513-0.146-2.122-1.024c-0.611-0.854-0.635-1.501-0.074-1.939C27.14,21.491,28.566,21.491,30.689,22.053z"/>
			<path style="fill-rule:evenodd;clip-rule:evenodd;fill:#FABF78;" d="M16.783,24.578c-0.952,0.024-1.659-0.013-2.123-0.11
				c-0.756-0.171-0.939-0.561-0.549-1.171c0.391-0.585,0.988-0.964,1.793-1.135c0.61-0.146,1.11-0.097,1.5,0.146
				c0.537,0.342,0.854,0.524,0.952,0.549c0.61,0.122,1.342,0.464,2.196,1.024c0.976,0.635,1.427,1.184,1.354,1.647
				s-0.524,0.549-1.354,0.257c-0.292-0.123-0.964-0.452-2.013-0.989C18.149,24.627,17.563,24.554,16.783,24.578z"/>
			<path style="fill-rule:evenodd;clip-rule:evenodd;fill:#D99643;" d="M11.879,24.578c1.732,1.341,3.245,2.122,4.538,2.342
				c1.683,0.317,2.659,0.487,2.928,0.513c1.073,0.146,1.866,0.098,2.379-0.146c0.829-0.342,1.305-0.817,1.427-1.428L23.26,26.7
				c-0.023,0.61-0.292,1.099-0.805,1.464c-0.976,0.732-2.635,0.854-4.977,0.366c-1.415-0.293-2.354-0.513-2.818-0.659
				c-1.049-0.317-1.684-0.671-1.903-1.062c-0.22-0.365-0.439-0.841-0.659-1.427L11.879,24.578z"/>
			<path style="fill-rule:evenodd;clip-rule:evenodd;fill:#C8802B;" d="M29.884,17.734l-0.512,3.001
				c-1.781,1.171-3.025,1.879-3.733,2.122c-0.438,0.146-1.073,0.549-1.902,1.208c-0.415,0.317-0.781,0.622-1.098,0.915l-4.099-3.367
				l1.098,0.732c0.952,0.463,1.952,0.695,3.001,0.695c1.073,0,1.939-0.22,2.598-0.659c0.391-0.269,0.939-0.72,1.647-1.354
				C27.713,20.442,28.713,19.345,29.884,17.734z"/>
			<path style="fill-rule:evenodd;clip-rule:evenodd;fill:#C8802B;" d="M35.557,24.358c0.122,1.366-0.109,2.525-0.695,3.477
				c-0.61,0.951-1.22,1.562-1.829,1.83c-1.123,0.513-2.94,0.609-5.453,0.292c-1.538-0.195-2.708-0.573-3.514-1.134l-0.732-0.806
				c-1.293,0.928-2.598,1.391-3.916,1.391c-1.049,0-2.306-0.244-3.77-0.731c-1.561-0.513-2.549-1.062-2.964-1.647
				c-0.366-0.512-0.586-1.012-0.659-1.5V24.98c1.512,1.293,2.684,2.062,3.513,2.306c0.415,0.121,1.159,0.342,2.232,0.658
				c0.928,0.269,1.66,0.403,2.196,0.403c0.83,0,2.074-0.586,3.733-1.757l0.695,0.659c0.537,0.438,0.952,0.694,1.244,0.768
				c0.415,0.098,1.281,0.109,2.599,0.037c1.513-0.049,2.77-0.195,3.77-0.439c1.05-0.22,1.952-0.829,2.708-1.829
				C35.105,25.298,35.386,24.822,35.557,24.358z"/>
			<path style="fill-rule:evenodd;clip-rule:evenodd;fill:#C8802B;" d="M22.272,24.103l4.135-2.05
				c-1.22,0.902-2.062,1.646-2.524,2.232c-0.293,0.366-0.329,1.073-0.11,2.122c0.122,0.513,0.269,0.988,0.439,1.428l-0.879,0.183
				L22.272,24.103z"/>
			<path style="fill-rule:evenodd;clip-rule:evenodd;fill:#DB9847;" d="M32.556,18.43c1.269-0.244,2.269-0.024,3.001,0.658
				c0.415,0.391,0.708,0.879,0.878,1.464c0.074,0.171-0.158,0.11-0.695-0.183c-0.805-0.464-1.451-0.756-1.938-0.879
				c-0.732-0.194-1.232-0.402-1.501-0.621C32.031,18.649,32.117,18.503,32.556,18.43z"/>
			<path style="fill-rule:evenodd;clip-rule:evenodd;fill:#DB9847;" d="M11.11,20.187c0.293-0.22,0.5-0.391,0.622-0.513
				c0.244,0,0.622,0,1.135,0c0.732,0,0.78,0.269,0.146,0.805c-0.561,0.464-1.317,0.903-2.269,1.318
				c-0.732,0.316-1,0.231-0.805-0.257C10.134,21.102,10.524,20.649,11.11,20.187z"/>
			<path style="fill-rule:evenodd;clip-rule:evenodd;fill:#C8802B;" d="M28.311,17.99c0.293,0,0.354,0.269,0.184,0.806
				c-0.171,0.561-0.428,0.792-0.769,0.694c-0.366-0.072-0.477-0.341-0.33-0.805C27.518,18.223,27.822,17.99,28.311,17.99z"/>
			<path style="fill-rule:evenodd;clip-rule:evenodd;fill:#C8802B;" d="M30.945,26.225l-0.329-0.183
				c0.513-0.171,1.086-0.22,1.721-0.146c0,0.536-0.294,0.866-0.879,0.988C30.873,27.029,30.702,26.81,30.945,26.225z"/>
			<path style="fill-rule:evenodd;clip-rule:evenodd;fill:#C8802B;" d="M26.7,25.712l-0.366-0.183c0.488,0,0.977,0.171,1.465,0.513
				c-0.22,0.317-0.513,0.5-0.879,0.549c-0.366,0.024-0.684-0.099-0.951-0.366c0.049-0.195,0.134-0.329,0.256-0.402
				C26.322,25.798,26.481,25.761,26.7,25.712z"/>
			<path style="fill-rule:evenodd;clip-rule:evenodd;fill:#C8802B;" d="M21.577,20.04l-0.366,0.146
				c0.415-0.244,0.879-0.366,1.391-0.366c0.586-0.024,1.013,0.109,1.281,0.402c-0.391,0.488-0.891,0.769-1.501,0.842
				C21.724,21.138,21.455,20.796,21.577,20.04z"/>
			<path style="fill-rule:evenodd;clip-rule:evenodd;fill:#C8802B;" d="M18.356,26.042c0.634-0.073,1.22,0,1.757,0.219
				c-0.22,0.708-0.72,0.989-1.5,0.843C17.904,26.97,17.818,26.616,18.356,26.042z"/>
			<path style="fill-rule:evenodd;clip-rule:evenodd;fill:#C8802B;" d="M16.032,24.468c0.313,0.04,0.575,0.15,0.787,0.329
				c-0.61,0.562-1.159,0.562-1.647,0C15.317,24.677,15.604,24.567,16.032,24.468z"/>
			<path style="fill-rule:evenodd;clip-rule:evenodd;fill:#C8802B;" d="M16.709,22.346c0.485-0.039,0.876,0.01,1.171,0.146
				c-0.317,0.195-0.562,0.306-0.732,0.33c-0.196,0.024-0.439-0.037-0.732-0.183c0.048-0.123,0.122-0.208,0.219-0.257
				C16.662,22.366,16.686,22.354,16.709,22.346z"/>
			<path style="fill-rule:evenodd;clip-rule:evenodd;fill:#B87119;" d="M11.458,20.552l-0.165,0.184
				c0.39-0.171,0.732-0.22,1.024-0.146c-0.098,0.269-0.207,0.438-0.33,0.513c-0.097,0.049-0.329,0.097-0.695,0.146
				c-0.073-0.221-0.073-0.403,0-0.55C11.356,20.646,11.411,20.597,11.458,20.552z"/>
			<path style="fill-rule:evenodd;clip-rule:evenodd;fill:#B87119;" d="M19.528,13.672c0.5-0.125,0.987-0.064,1.464,0.183
				c0,0.634-0.305,0.915-0.915,0.842c-0.562-0.049-1.013-0.281-1.354-0.696L19.528,13.672z"/>
			<path style="fill-rule:evenodd;clip-rule:evenodd;fill:#B87119;" d="M34.13,18.796l-1.062-0.549
				c0.78,0.17,1.232,0.487,1.354,0.951c0.122,0.463-0.317,0.549-1.317,0.256c-0.024-0.342,0.062-0.549,0.256-0.622
				C33.435,18.808,33.69,18.796,34.13,18.796z"/>
			<path style="fill-rule:evenodd;clip-rule:evenodd;fill:#C8802B;" d="M18.723,19.033c0.172-0.036,0.282-0.055,0.329-0.055
				c0.195,0,0.378,0.109,0.549,0.329c-0.39,0.464-0.781,0.61-1.171,0.439C18.077,19.57,18.174,19.333,18.723,19.033z"/>
			<path style="fill-rule:evenodd;clip-rule:evenodd;fill:#C8802B;" d="M26.262,17.002c0.311-0.236,0.688-0.261,1.134-0.073
				c-0.293,0.439-0.817,0.61-1.573,0.513c0.024-0.269,0.109-0.415,0.256-0.439C26.122,17.002,26.183,17.002,26.262,17.002z"/>
			<path style="fill-rule:evenodd;clip-rule:evenodd;fill:#C8802B;" d="M23.81,19.052h0.805c-0.098,0.512-0.487,0.683-1.171,0.512
				c-0.024-0.17,0-0.292,0.073-0.365C23.565,19.174,23.663,19.125,23.81,19.052z"/>
			<path style="fill-rule:evenodd;clip-rule:evenodd;fill:#C8802B;" d="M23.699,15.868l0.293,0.11
				c0.122,0.049,0.231,0.061,0.329,0.037c-0.244,0.146-0.585,0.22-1.024,0.22C23.36,16.092,23.494,15.97,23.699,15.868z"/>
			<path style="fill-rule:evenodd;clip-rule:evenodd;fill:#C8802B;" d="M32.135,24.248H32.08l0.201-0.072
				C32.22,24.201,32.171,24.226,32.135,24.248h0.86c-0.098,0.513-0.451,0.684-1.062,0.513c-0.024-0.22,0.013-0.366,0.109-0.439
				C32.054,24.302,32.084,24.276,32.135,24.248z"/>
			<path style="fill-rule:evenodd;clip-rule:evenodd;fill:#C8802B;" d="M29.921,22.235l-0.256,0.146
				c0.365-0.024,0.731-0.024,1.098,0c-0.439,0.317-0.927,0.354-1.464,0.109c0.024-0.219,0.086-0.329,0.183-0.329
				C29.556,22.138,29.701,22.162,29.921,22.235z"/>
			<path style="fill-rule:evenodd;clip-rule:evenodd;fill:#C8802B;" d="M26.773,23.919c-0.073-0.098-0.073-0.207,0-0.329
				c0.018-0.019,0.036-0.036,0.055-0.055c0.187,0.002,0.425,0.021,0.714,0.055c-0.122,0.171-0.22,0.269-0.293,0.292
				C27.103,23.907,26.944,23.919,26.773,23.919z"/>
			<path style="fill-rule:evenodd;clip-rule:evenodd;fill:#C8802B;" d="M29.812,24.907h0.365c-0.098,0.22-0.207,0.354-0.329,0.402
				c-0.098,0.049-0.28,0.086-0.549,0.109c-0.024-0.194,0.024-0.329,0.146-0.402C29.494,24.993,29.616,24.956,29.812,24.907z"/>
			<path style="fill-rule:evenodd;clip-rule:evenodd;fill:#C8802B;" d="M19.052,17.478c0.044-0.008,0.087-0.015,0.128-0.018
				l-0.53,0.274C18.673,17.612,18.808,17.526,19.052,17.478z M19.253,17.441c0.182-0.011,0.371,0.001,0.567,0.036
				c-0.122,0.244-0.207,0.354-0.256,0.33c-0.122-0.049-0.256-0.122-0.402-0.22C19.179,17.535,19.209,17.486,19.253,17.441z"/>
		</g>
		<path style="fill-rule:evenodd;clip-rule:evenodd;fill:#A16723;" d="M24.468,23.188c0.732-0.61,1.208-0.988,1.428-1.135
			c0.292-0.195,0.817-0.476,1.573-0.842c0.708-0.342,1.232-0.622,1.574-0.842c0.609-0.439,0.854-1.83,0.731-4.172
			c0.244,0.61,0.439,1.367,0.586,2.269c0.122,0.879,0.012,1.721-0.33,2.525c-1.317,0.415-2.184,0.72-2.598,0.915
			c-1.464,0.658-2.501,1.281-3.111,1.866c-0.585,0.537-0.964,1.439-1.134,2.708c-0.415-0.78-0.793-1.354-1.135-1.72l-1.317-1.317
			c1.366,0.438,2.22,0.609,2.562,0.512C23.492,23.907,23.883,23.65,24.468,23.188z"/>
		<path style="fill-rule:evenodd;clip-rule:evenodd;fill:#A16723;" d="M25.09,28.42c1.757,0.806,3.245,1.208,4.466,1.208
			c0.609,0,1.146-0.122,1.609-0.365c1.073-0.537,1.646-0.818,1.721-0.843c0.683-0.268,1.305-0.951,1.866-2.049
			c0.293-0.537,0.513-1.049,0.659-1.537c0.048,1.415-0.037,2.416-0.257,3.001c-0.195,0.463-0.415,0.817-0.658,1.062
			c-0.366,0.292-1.062,0.646-2.087,1.061c-0.902,0.342-2.024,0.428-3.366,0.257c-1.439-0.269-2.465-0.428-3.074-0.477
			c-0.757-0.048-1.428-0.292-2.013-0.731l-0.659-0.658c-0.658,0.487-1.61,0.89-2.854,1.207c-0.829,0.22-2.098,0.086-3.806-0.402
			c-1.415-0.391-2.537-0.83-3.367-1.317c-0.537-0.342-0.903-0.78-1.098-1.317l-0.146-0.695c0.219,0.097,0.256,0.171,0.11,0.22
			c-0.049,0.024-0.049,0.061,0,0.109c0.219,0.195,0.426,0.415,0.622,0.658c0.244,0.342,0.585,0.55,1.024,0.623
			c0.269,0.073,0.634,0.134,1.098,0.183c0.219,0.073,0.805,0.305,1.756,0.695c1.025,0.391,1.989,0.61,2.892,0.659
			c0.927,0.048,1.817-0.354,2.671-1.208c0.414-0.415,0.744-0.842,0.988-1.281l0.622,0.806C24.321,27.871,24.749,28.25,25.09,28.42z"
			/>
		<path style="fill-rule:evenodd;clip-rule:evenodd;fill:#8C5613;" d="M38.118,23.224c-0.024,0.537-0.22,0.988-0.585,1.354
			c-0.22,0.219-0.586,0.378-1.099,0.476l-0.695,0.109c-0.121-0.317-0.183-0.585-0.183-0.805c0-0.977-0.244-1.684-0.732-2.123
			c-0.268-0.22-0.914-0.5-1.938-0.842l-1.208-0.384c0.315,0.056,1.499,0.44,3.55,1.152c0.269,0.098,0.476,0.342,0.622,0.732
			s0.268,0.609,0.366,0.658C36.483,23.699,37.118,23.59,38.118,23.224z"/>
		<path style="fill-rule:evenodd;clip-rule:evenodd;fill:#8C5613;" d="M17.112,16.38c0.684,0.196,1.659,0.025,2.928-0.512
			l-1.464,0.915c-0.439,0.244-0.817,0.476-1.134,0.695c-0.561,0.415-1.037,0.964-1.427,1.647c-0.634,1.049-0.854,1.817-0.659,2.306
			l-1.024,0.476l-1.867,1.464c0.22-0.269,0.463-0.549,0.732-0.842c0.488-0.586,0.805-0.928,0.952-1.024
			c0.268-0.146,0.537-0.695,0.805-1.647c0.122-0.536,0.024-1.158-0.293-1.866l1.062-0.109l-0.183-0.952
			c-0.024-0.195-0.024-0.476,0-0.841l0.073-0.512l0.366,0.292C16.319,16.111,16.697,16.282,17.112,16.38z"/>
	</g>
</g>
</svg>
