<?xml version="1.0" encoding="iso-8859-1"?>
<!-- Generator: Adobe Illustrator 15.1.0, SVG Export Plug-In . SVG Version: 6.00 Build 0)  -->
<!DOCTYPE svg PUBLIC "-//W3C//DTD SVG 1.1//EN" "http://www.w3.org/Graphics/SVG/1.1/DTD/svg11.dtd">
<svg version="1.1" id="flash0.ai" xmlns="http://www.w3.org/2000/svg" xmlns:xlink="http://www.w3.org/1999/xlink" x="0px" y="0px"
	 width="50px" height="17.6px" viewBox="0 0 50 17.6" style="enable-background:new 0 0 50 17.6;" xml:space="preserve">
<symbol  id="hotpepper" viewBox="-0.012 -17.3 45.217 17.3">
	<g id="Layer_1_2_">
		<g>
			
				<linearGradient id="SVGID_1_" gradientUnits="userSpaceOnUse" x1="6037.1748" y1="3157.9219" x2="6047.4302" y2="3157.9219" gradientTransform="matrix(0.8264 0.5631 -0.5631 0.8264 -3189.9902 -6019.6343)">
				<stop  offset="0" style="stop-color:#D13506"/>
				<stop  offset="1" style="stop-color:#942B04"/>
			</linearGradient>
			<path style="fill-rule:evenodd;clip-rule:evenodd;fill:url(#SVGID_1_);" d="M34.6-12.25c-3.467-1.2-7.75-1.8-12.85-1.8
				c-5.933,0-10.733,0.667-14.4,2c-1.833,0.667-3.067,1.333-3.7,2c1.033,0.167,2.367,0.783,4,1.85c2.9,1.934,4.633,3.067,5.2,3.4
				c2.833,1.6,5.283,3.2,7.35,4.8c1.267-1.067,4.466-2.933,9.6-5.6c3.333-1.767,6.15-3.383,8.45-4.85
				C37.55-11.05,36.333-11.65,34.6-12.25z"/>
			
				<linearGradient id="SVGID_2_" gradientUnits="userSpaceOnUse" x1="5907.502" y1="3145.1582" x2="5908.1328" y2="3145.1582" gradientTransform="matrix(0.8321 0.5547 -0.5547 0.8321 -3167.4668 -5904.5698)">
				<stop  offset="0" style="stop-color:#D13506"/>
				<stop  offset="1" style="stop-color:#942B04"/>
			</linearGradient>
			<path style="fill-rule:evenodd;clip-rule:evenodd;fill:url(#SVGID_2_);" d="M3.8-10.05c0.633-0.7,0.583-1.1-0.15-1.2
				c-0.767-0.133-1.217-0.017-1.35,0.35c-0.066,0.267,0.117,0.533,0.55,0.8C3.283-9.833,3.6-9.817,3.8-10.05z"/>
			
				<linearGradient id="SVGID_3_" gradientUnits="userSpaceOnUse" x1="6163.1035" y1="3194.2432" x2="6163.7139" y2="3194.2432" gradientTransform="matrix(0.8192 0.5735 -0.5735 0.8192 -3216.3096 -6162.6929)">
				<stop  offset="0" style="stop-color:#D13506"/>
				<stop  offset="1" style="stop-color:#942B04"/>
			</linearGradient>
			<path style="fill-rule:evenodd;clip-rule:evenodd;fill:url(#SVGID_3_);" d="M1.15-11c0.934-0.333,1.067-0.617,0.4-0.85
				c-0.7-0.267-1.183-0.267-1.45,0c-0.2,0.2-0.133,0.417,0.2,0.65C0.633-10.967,0.917-10.9,1.15-11z"/>
			
				<linearGradient id="SVGID_4_" gradientUnits="userSpaceOnUse" x1="5907.2041" y1="3143.124" x2="5907.6548" y2="3143.124" gradientTransform="matrix(0.8321 0.5547 -0.5547 0.8321 -3167.4658 -5904.5703)">
				<stop  offset="0" style="stop-color:#D13506"/>
				<stop  offset="1" style="stop-color:#942B04"/>
			</linearGradient>
			<path style="fill-rule:evenodd;clip-rule:evenodd;fill:url(#SVGID_4_);" d="M4.3-12.2c0.6-0.233,0.767-0.433,0.5-0.6
				c-0.3-0.167-0.65-0.184-1.05-0.05c-0.367,0.067-0.433,0.217-0.2,0.45C3.783-12.133,4.033-12.067,4.3-12.2z"/>
			
				<linearGradient id="SVGID_5_" gradientUnits="userSpaceOnUse" x1="6275.7705" y1="3209.999" x2="6275.9854" y2="3209.999" gradientTransform="matrix(0.8137 0.5812 -0.5812 0.8137 -3235.0332 -6271.1909)">
				<stop  offset="0" style="stop-color:#D13506"/>
				<stop  offset="1" style="stop-color:#942B04"/>
			</linearGradient>
			<path style="fill-rule:evenodd;clip-rule:evenodd;fill:url(#SVGID_5_);" d="M6.05-11.25c0.333-0.033,0.417-0.117,0.25-0.25
				c-0.167-0.167-0.333-0.2-0.5-0.1c-0.167,0.1-0.233,0.184-0.2,0.25C5.667-11.25,5.817-11.217,6.05-11.25z"/>
			
				<linearGradient id="SVGID_6_" gradientUnits="userSpaceOnUse" x1="5909.7803" y1="3141.7842" x2="5909.9604" y2="3141.7842" gradientTransform="matrix(0.8321 0.5547 -0.5547 0.8321 -3167.4668 -5904.5698)">
				<stop  offset="0" style="stop-color:#D13506"/>
				<stop  offset="1" style="stop-color:#942B04"/>
			</linearGradient>
			<path style="fill-rule:evenodd;clip-rule:evenodd;fill:url(#SVGID_6_);" d="M7.05-12.15c0.267-0.067,0.333-0.133,0.2-0.2
				C7.15-12.383,7-12.4,6.8-12.4c-0.1,0.033-0.1,0.083,0,0.15C6.867-12.15,6.95-12.117,7.05-12.15z"/>
			
				<linearGradient id="SVGID_7_" gradientUnits="userSpaceOnUse" x1="5989.2144" y1="3152.9424" x2="5990.2407" y2="3152.9424" gradientTransform="matrix(0.8283 0.5603 -0.5603 0.8283 -3182.6025 -5981.2041)">
				<stop  offset="0" style="stop-color:#D13506"/>
				<stop  offset="1" style="stop-color:#942B04"/>
			</linearGradient>
			<path style="fill-rule:evenodd;clip-rule:evenodd;fill:url(#SVGID_7_);" d="M9.8-13.65c-0.333,0.167-0.333,0.316,0,0.45
				c0.333,0.167,0.633,0.2,0.9,0.1c0.066-0.033,0.233-0.05,0.5-0.05c0.333,0.033,0.733,0.017,1.2-0.05
				c0.533-0.066,0.783-0.283,0.75-0.65c-0.033-0.2-0.066-0.433-0.1-0.7c0.133-0.1,0.034-0.184-0.3-0.25
				c-0.333-0.067-0.65-0.067-0.95,0c-0.2,0.033-0.35,0.133-0.45,0.3c-0.1,0.2-0.167,0.317-0.2,0.35C10.45-13.917,10-13.75,9.8-13.65
				z"/>
			
				<linearGradient id="SVGID_8_" gradientUnits="userSpaceOnUse" x1="5911.1147" y1="3138.5898" x2="5911.5654" y2="3138.5898" gradientTransform="matrix(0.8321 0.5547 -0.5547 0.8321 -3167.4658 -5904.5703)">
				<stop  offset="0" style="stop-color:#D13506"/>
				<stop  offset="1" style="stop-color:#942B04"/>
			</linearGradient>
			<path style="fill-rule:evenodd;clip-rule:evenodd;fill:url(#SVGID_8_);" d="M10.25-14c0.367-0.1,0.5-0.2,0.4-0.3
				c-0.066-0.067-0.233-0.117-0.5-0.15c-0.433-0.033-0.75,0.034-0.95,0.2c-0.133,0.1-0.05,0.183,0.25,0.25
				C9.75-13.933,10.017-13.933,10.25-14z"/>
			
				<linearGradient id="SVGID_9_" gradientUnits="userSpaceOnUse" x1="6272.9805" y1="3212.5352" x2="6273.1953" y2="3212.5352" gradientTransform="matrix(0.8137 0.5812 -0.5812 0.8137 -3235.0332 -6271.1909)">
				<stop  offset="0" style="stop-color:#D13506"/>
				<stop  offset="1" style="stop-color:#942B04"/>
			</linearGradient>
			<path style="fill-rule:evenodd;clip-rule:evenodd;fill:url(#SVGID_9_);" d="M2.6-11.1c-0.067-0.1-0.2-0.133-0.4-0.1
				c-0.3,0-0.4,0.133-0.3,0.4c0.033,0.066,0.117,0.1,0.25,0.1c0.1,0.034,0.184,0.034,0.25,0C2.533-10.7,2.6-10.833,2.6-11.1z"/>
			
				<linearGradient id="SVGID_10_" gradientUnits="userSpaceOnUse" x1="5905.4189" y1="3143.8281" x2="5905.7793" y2="3143.8281" gradientTransform="matrix(0.8321 0.5547 -0.5547 0.8321 -3167.4668 -5904.5698)">
				<stop  offset="0" style="stop-color:#D13506"/>
				<stop  offset="1" style="stop-color:#942B04"/>
			</linearGradient>
			<path style="fill-rule:evenodd;clip-rule:evenodd;fill:url(#SVGID_10_);" d="M2.45-12.8c0.267-0.034,0.4-0.083,0.4-0.15
				c0-0.066-0.083-0.133-0.25-0.2c-0.434-0.2-0.717-0.2-0.85,0c-0.067,0.1-0.017,0.2,0.15,0.3C2.033-12.783,2.217-12.767,2.45-12.8z
				"/>
			
				<linearGradient id="SVGID_11_" gradientUnits="userSpaceOnUse" x1="6211.3965" y1="3195.8955" x2="6211.9165" y2="3195.8955" gradientTransform="matrix(0.817 0.5767 -0.5767 0.817 -3224.1758 -6207.5234)">
				<stop  offset="0" style="stop-color:#D13506"/>
				<stop  offset="1" style="stop-color:#942B04"/>
			</linearGradient>
			<path style="fill-rule:evenodd;clip-rule:evenodd;fill:url(#SVGID_11_);" d="M7.65-14.2c0.533-0.066,0.684-0.25,0.45-0.55
				S7.467-15.1,6.9-14.9c-0.533,0.2-0.65,0.383-0.35,0.55C6.817-14.217,7.183-14.167,7.65-14.2z"/>
			
				<linearGradient id="SVGID_12_" gradientUnits="userSpaceOnUse" x1="6015.9751" y1="3152.6133" x2="6017.5767" y2="3152.6133" gradientTransform="matrix(0.8272 0.5619 -0.5619 0.8272 -3186.7676 -6002.7842)">
				<stop  offset="0" style="stop-color:#D13506"/>
				<stop  offset="1" style="stop-color:#942B04"/>
			</linearGradient>
			<path style="fill-rule:evenodd;clip-rule:evenodd;fill:url(#SVGID_12_);" d="M21.3-14.9c0-0.067-0.45-0.15-1.35-0.25
				c-0.934-0.1-1.7-0.15-2.3-0.15s-1.083,0.1-1.45,0.3c-0.367,0.167-0.517,0.317-0.45,0.45c0.167,0.433,0.55,0.85,1.15,1.25
				c0.4,0.233,0.9,0.3,1.5,0.2c0.533-0.1,1.017-0.283,1.45-0.55c0.333-0.2,0.667-0.45,1-0.75C21.15-14.667,21.3-14.833,21.3-14.9z"
				/>
			
				<linearGradient id="SVGID_13_" gradientUnits="userSpaceOnUse" x1="6177.5527" y1="3179.458" x2="6178.7734" y2="3179.458" gradientTransform="matrix(0.8192 0.5735 -0.5735 0.8192 -3216.3096 -6162.6929)">
				<stop  offset="0" style="stop-color:#D13506"/>
				<stop  offset="1" style="stop-color:#942B04"/>
			</linearGradient>
			<path style="fill-rule:evenodd;clip-rule:evenodd;fill:url(#SVGID_13_);" d="M22.2-14.5l1.1-0.8
				c-0.133-0.367-0.533-0.617-1.2-0.75c-1.033-0.2-1.883-0.133-2.55,0.2c-0.2,0.1-0.183,0.3,0.05,0.6
				c0.133,0.167,0.333,0.383,0.6,0.65c0.133,0.167,0.4,0.283,0.8,0.35C21.467-14.217,21.867-14.3,22.2-14.5z"/>
			
				<linearGradient id="SVGID_14_" gradientUnits="userSpaceOnUse" x1="6008.2778" y1="3151.2588" x2="6009.1235" y2="3151.2588" gradientTransform="matrix(0.8275 0.5615 -0.5615 0.8275 -3185.7607 -5997.5469)">
				<stop  offset="0" style="stop-color:#D13506"/>
				<stop  offset="1" style="stop-color:#942B04"/>
			</linearGradient>
			<path style="fill-rule:evenodd;clip-rule:evenodd;fill:url(#SVGID_14_);" d="M17-15.5c0.267-0.067,0.517-0.217,0.75-0.45
				c0.233-0.267,0.283-0.466,0.15-0.6c-0.267-0.233-1.1-0.217-2.5,0.05c-0.233,0.067-0.333,0.15-0.3,0.25
				c0,0.033,0.133,0.183,0.4,0.45C15.833-15.5,16.333-15.4,17-15.5z"/>
			
				<linearGradient id="SVGID_15_" gradientUnits="userSpaceOnUse" x1="6216.459" y1="3189.5742" x2="6216.979" y2="3189.5742" gradientTransform="matrix(0.817 0.5767 -0.5767 0.817 -3224.1758 -6207.5234)">
				<stop  offset="0" style="stop-color:#D13506"/>
				<stop  offset="1" style="stop-color:#942B04"/>
			</linearGradient>
			<path style="fill-rule:evenodd;clip-rule:evenodd;fill:url(#SVGID_15_);" d="M15.9-16.7c0.133-0.1,0.133-0.183,0-0.25
				c-0.367-0.167-0.833-0.183-1.4-0.05c-0.267,0.1-0.317,0.217-0.15,0.35c0.066,0.066,0.267,0.2,0.6,0.4c0.167,0.1,0.35,0.1,0.55,0
				C15.7-16.317,15.833-16.467,15.9-16.7z"/>
			
				<linearGradient id="SVGID_16_" gradientUnits="userSpaceOnUse" x1="5981.252" y1="3137.4063" x2="5982.729" y2="3137.4063" gradientTransform="matrix(0.8294 0.5586 -0.5586 0.8294 -3178.0381 -5957.8071)">
				<stop  offset="0" style="stop-color:#D13506"/>
				<stop  offset="1" style="stop-color:#942B04"/>
			</linearGradient>
			<path style="fill-rule:evenodd;clip-rule:evenodd;fill:url(#SVGID_16_);" d="M28.45-14.3c0.1,0.333,0.2,0.583,0.3,0.75
				c0.133,0.3,0.333,0.517,0.6,0.65c0.333,0.133,0.717,0.183,1.15,0.15c0.433-0.067,0.75-0.2,0.95-0.4
				c0.233-0.267,0.55-0.483,0.95-0.65c0.167-0.067,0.35-0.25,0.55-0.55c0.2-0.3,0.25-0.483,0.15-0.55
				c-0.533-0.267-1.25-0.434-2.15-0.5c-0.034,0-0.417-0.033-1.15-0.1c-0.433,0-0.75,0.033-0.95,0.1
				c-0.233,0.133-0.383,0.316-0.45,0.55C28.333-14.65,28.35-14.467,28.45-14.3z"/>
			
				<linearGradient id="SVGID_17_" gradientUnits="userSpaceOnUse" x1="6256.8433" y1="3187.4854" x2="6257.7935" y2="3187.4854" gradientTransform="matrix(0.8155 0.5787 -0.5787 0.8155 -3229.1338 -6236.3315)">
				<stop  offset="0" style="stop-color:#D13506"/>
				<stop  offset="1" style="stop-color:#942B04"/>
			</linearGradient>
			<path style="fill-rule:evenodd;clip-rule:evenodd;fill:url(#SVGID_17_);" d="M29.05-14.8c0.333-0.067,0.65-0.284,0.95-0.65
				c0.333-0.333,0.383-0.55,0.15-0.65c-0.667-0.3-1.233-0.45-1.7-0.45c-0.733,0-1.233,0.267-1.5,0.8c-0.034,0.1,0.05,0.2,0.25,0.3
				c0.3,0.167,0.5,0.317,0.6,0.45c0.167,0.2,0.35,0.3,0.55,0.3C28.417-14.7,28.65-14.733,29.05-14.8z"/>
			
				<linearGradient id="SVGID_18_" gradientUnits="userSpaceOnUse" x1="5768.5088" y1="3095.5215" x2="5769.0151" y2="3095.5215" gradientTransform="matrix(0.8396 0.5433 -0.5433 0.8396 -3135.1934 -5749.5308)">
				<stop  offset="0" style="stop-color:#D13506"/>
				<stop  offset="1" style="stop-color:#942B04"/>
			</linearGradient>
			<path style="fill-rule:evenodd;clip-rule:evenodd;fill:url(#SVGID_18_);" d="M26.65-16.5c0.467-0.2,0.55-0.383,0.25-0.55
				c-0.233-0.167-0.55-0.25-0.95-0.25c-0.367,0.033-0.5,0.216-0.4,0.55c0.034,0.1,0.184,0.183,0.45,0.25
				C26.267-16.4,26.483-16.4,26.65-16.5z"/>
			
				<linearGradient id="SVGID_19_" gradientUnits="userSpaceOnUse" x1="5925.1694" y1="3129.3291" x2="5925.8003" y2="3129.3291" gradientTransform="matrix(0.8321 0.5547 -0.5547 0.8321 -3167.4668 -5904.5698)">
				<stop  offset="0" style="stop-color:#D13506"/>
				<stop  offset="1" style="stop-color:#942B04"/>
			</linearGradient>
			<path style="fill-rule:evenodd;clip-rule:evenodd;fill:url(#SVGID_19_);" d="M27.6-13.8c0.267-0.467-0.184-0.7-1.35-0.7
				c-0.5,0-0.533,0.217-0.1,0.65c0.167,0.2,0.417,0.317,0.75,0.35C27.267-13.467,27.5-13.567,27.6-13.8z"/>
			
				<linearGradient id="SVGID_20_" gradientUnits="userSpaceOnUse" x1="6148.3501" y1="3166.4453" x2="6149.4458" y2="3166.4453" gradientTransform="matrix(0.8214 0.5704 -0.5704 0.8214 -3208.6768 -6120.1519)">
				<stop  offset="0" style="stop-color:#D13506"/>
				<stop  offset="1" style="stop-color:#942B04"/>
			</linearGradient>
			<path style="fill-rule:evenodd;clip-rule:evenodd;fill:url(#SVGID_20_);" d="M36.95-12.1c-0.534-0.9-1.35-1.267-2.45-1.1
				c-0.7,0.1-0.883,0.383-0.55,0.85c0.1,0.167,0.5,0.55,1.2,1.15c0.333,0.267,0.617,0.3,0.85,0.1
				C36.133-11.233,36.45-11.567,36.95-12.1z"/>
			
				<linearGradient id="SVGID_21_" gradientUnits="userSpaceOnUse" x1="6133.4365" y1="3162.2617" x2="6134.2271" y2="3162.2617" gradientTransform="matrix(0.8222 0.5692 -0.5692 0.8222 -3205.6895 -6103.7383)">
				<stop  offset="0" style="stop-color:#D13506"/>
				<stop  offset="1" style="stop-color:#942B04"/>
			</linearGradient>
			<path style="fill-rule:evenodd;clip-rule:evenodd;fill:url(#SVGID_21_);" d="M38.3-12.25c-0.167-0.7-0.617-1.067-1.35-1.1
				c-0.5,0-0.75,0.133-0.75,0.4c0,0.034,0.066,0.284,0.2,0.75c0.1,0.233,0.317,0.317,0.65,0.25
				C37.217-11.95,37.633-12.05,38.3-12.25z"/>
			
				<linearGradient id="SVGID_22_" gradientUnits="userSpaceOnUse" x1="6021.1016" y1="3138.1738" x2="6022.0376" y2="3138.1738" gradientTransform="matrix(0.8279 0.5608 -0.5608 0.8279 -3184.0322 -5988.5879)">
				<stop  offset="0" style="stop-color:#D13506"/>
				<stop  offset="1" style="stop-color:#942B04"/>
			</linearGradient>
			<path style="fill-rule:evenodd;clip-rule:evenodd;fill:url(#SVGID_22_);" d="M41.85-12.65c0.5-0.333,0.7-0.667,0.6-1
				c-0.1-0.233-0.934-0.283-2.5-0.15c-0.434,0.033-0.583,0.117-0.45,0.25c0.067,0.066,0.2,0.2,0.4,0.4
				c0.067,0.233,0.3,0.417,0.7,0.55C41.033-12.433,41.45-12.45,41.85-12.65z"/>
			
				<linearGradient id="SVGID_23_" gradientUnits="userSpaceOnUse" x1="5937.1445" y1="3125.7852" x2="5937.5952" y2="3125.7852" gradientTransform="matrix(0.8321 0.5547 -0.5547 0.8321 -3167.4658 -5904.5703)">
				<stop  offset="0" style="stop-color:#D13506"/>
				<stop  offset="1" style="stop-color:#942B04"/>
			</linearGradient>
			<path style="fill-rule:evenodd;clip-rule:evenodd;fill:url(#SVGID_23_);" d="M37.7-9.7c0.133,0.1,0.35,0.1,0.65,0
				c0.267-0.1,0.483-0.233,0.65-0.4c0.1-0.1,0.233-0.25,0.4-0.45c0.167-0.1,0.283-0.217,0.35-0.35c0.067-0.1,0.067-0.15,0-0.15
				c-0.1,0-0.35,0.083-0.75,0.25c-0.467,0.167-0.767,0.3-0.9,0.4l-0.55,0.55L37.7-9.7z"/>
			
				<linearGradient id="SVGID_24_" gradientUnits="userSpaceOnUse" x1="6171.4951" y1="3168.4316" x2="6172.5005" y2="3168.4316" gradientTransform="matrix(0.8204 0.5718 -0.5718 0.8204 -3212.1709 -6139.5132)">
				<stop  offset="0" style="stop-color:#D13506"/>
				<stop  offset="1" style="stop-color:#942B04"/>
			</linearGradient>
			<path style="fill-rule:evenodd;clip-rule:evenodd;fill:url(#SVGID_24_);" d="M38.05-11.05c0.5,0.7,1.017,0.9,1.55,0.6
				c0.367-0.167,0.816-0.466,1.35-0.9c0.066-0.033-0.1-0.117-0.5-0.25c-0.467-0.133-0.8-0.2-1-0.2c-0.233,0-0.583,0.05-1.05,0.15
				s-0.733,0.183-0.8,0.25c-0.033,0.033,0.033,0.1,0.2,0.2C37.867-11.133,37.95-11.083,38.05-11.05z"/>
			
				<linearGradient id="SVGID_25_" gradientUnits="userSpaceOnUse" x1="6056.2012" y1="3145.9473" x2="6056.8667" y2="3145.9473" gradientTransform="matrix(0.8262 0.5633 -0.5633 0.8262 -3190.583 -6022.7544)">
				<stop  offset="0" style="stop-color:#D13506"/>
				<stop  offset="1" style="stop-color:#942B04"/>
			</linearGradient>
			<path style="fill-rule:evenodd;clip-rule:evenodd;fill:url(#SVGID_25_);" d="M41.55-11.15c0.534-0.4,0.717-0.667,0.55-0.8
				c-0.1-0.1-0.333-0.15-0.7-0.15c-0.5,0.033-0.883,0.05-1.15,0.05c-0.3,0.033-0.4,0.133-0.3,0.3l0.3,0.3
				c0.1,0.133,0.267,0.25,0.5,0.35C41.05-10.967,41.317-10.983,41.55-11.15z"/>
			
				<linearGradient id="SVGID_26_" gradientUnits="userSpaceOnUse" x1="6197.9375" y1="3171.2256" x2="6198.5479" y2="3171.2256" gradientTransform="matrix(0.8192 0.5735 -0.5735 0.8192 -3216.3096 -6162.6929)">
				<stop  offset="0" style="stop-color:#D13506"/>
				<stop  offset="1" style="stop-color:#942B04"/>
			</linearGradient>
			<path style="fill-rule:evenodd;clip-rule:evenodd;fill:url(#SVGID_26_);" d="M41.65-10.45c0.067,0.067,0.2,0.217,0.4,0.45
				c0.2,0.167,0.417,0.217,0.65,0.15c0.367-0.1,0.716-0.333,1.05-0.7c-0.467-0.2-0.867-0.284-1.2-0.25
				c-0.2,0.033-0.417,0.1-0.65,0.2L41.65-10.45z"/>
			
				<linearGradient id="SVGID_27_" gradientUnits="userSpaceOnUse" x1="5941.71" y1="3121.9219" x2="5942.0703" y2="3121.9219" gradientTransform="matrix(0.8321 0.5547 -0.5547 0.8321 -3167.4668 -5904.5698)">
				<stop  offset="0" style="stop-color:#D13506"/>
				<stop  offset="1" style="stop-color:#942B04"/>
			</linearGradient>
			<path style="fill-rule:evenodd;clip-rule:evenodd;fill:url(#SVGID_27_);" d="M44.7-10.8c0.367-0.067,0.533-0.2,0.5-0.4
				c-0.067-0.167-0.25-0.267-0.55-0.3c-0.2-0.033-0.35,0-0.45,0.1c-0.1,0.1-0.184,0.183-0.25,0.25c-0.1,0.1-0.05,0.183,0.15,0.25
				C44.3-10.8,44.5-10.767,44.7-10.8z"/>
			
				<linearGradient id="SVGID_28_" gradientUnits="userSpaceOnUse" x1="5698.4941" y1="3075.915" x2="5698.8203" y2="3075.915" gradientTransform="matrix(0.8437 0.5369 -0.5369 0.8437 -3116.4355 -5663.98)">
				<stop  offset="0" style="stop-color:#D13506"/>
				<stop  offset="1" style="stop-color:#942B04"/>
			</linearGradient>
			<path style="fill-rule:evenodd;clip-rule:evenodd;fill:url(#SVGID_28_);" d="M39.9-9.15c0.167-0.067,0.3-0.167,0.4-0.3
				c0.1-0.133,0.1-0.233,0-0.3c-0.2-0.1-0.55-0.033-1.05,0.2c-0.133,0.033-0.083,0.117,0.15,0.25C39.633-9.133,39.8-9.083,39.9-9.15
				z"/>
			
				<linearGradient id="SVGID_29_" gradientUnits="userSpaceOnUse" x1="6035.5547" y1="3144.043" x2="6037.0664" y2="3144.043" gradientTransform="matrix(0.8269 0.5623 -0.5623 0.8269 -3187.8916 -6008.646)">
				<stop  offset="0" style="stop-color:#D13506"/>
				<stop  offset="1" style="stop-color:#942B04"/>
			</linearGradient>
			<path style="fill-rule:evenodd;clip-rule:evenodd;fill:url(#SVGID_29_);" d="M36.9-13.75c0.767-0.833,1.017-1.333,0.75-1.5
				c-0.233-0.133-0.7-0.267-1.4-0.4c-0.733-0.167-1.333-0.25-1.8-0.25c-0.367,0.033-0.75,0.15-1.15,0.35l-0.45,0.35l0.6,1
				c0.1,0.2,0.35,0.434,0.75,0.7c0.433,0.333,0.783,0.517,1.05,0.55c0.267,0.034,0.567-0.05,0.9-0.25
				C36.317-13.3,36.567-13.483,36.9-13.75z"/>
			
				<linearGradient id="SVGID_30_" gradientUnits="userSpaceOnUse" x1="6237.1167" y1="3177.1396" x2="6237.6367" y2="3177.1396" gradientTransform="matrix(0.817 0.5767 -0.5767 0.817 -3224.1758 -6207.5234)">
				<stop  offset="0" style="stop-color:#D13506"/>
				<stop  offset="1" style="stop-color:#942B04"/>
			</linearGradient>
			<path style="fill-rule:evenodd;clip-rule:evenodd;fill:url(#SVGID_30_);" d="M39.35-14.65c0.533-0.133,0.75-0.283,0.65-0.45
				c-0.1-0.167-0.317-0.267-0.65-0.3c-0.434-0.1-0.767-0.033-1,0.2c-0.133,0.1-0.067,0.233,0.2,0.4
				C38.783-14.633,39.05-14.583,39.35-14.65z"/>
			<path style="fill-rule:evenodd;clip-rule:evenodd;fill:#782203;" d="M31.4-8.6c0.267-0.333,0.4-0.55,0.4-0.65
				s-0.033-0.217-0.1-0.35c-0.034-0.233-0.267-0.35-0.7-0.35s-0.683,0.2-0.75,0.6c-0.1,0.533-0.05,0.934,0.15,1.2
				C30.6-7.883,30.933-8.033,31.4-8.6z"/>
			<path style="fill-rule:evenodd;clip-rule:evenodd;fill:#782203;" d="M34.2-8.9c0.667-0.367,0.85-0.75,0.55-1.15
				c-0.133-0.2-0.383-0.184-0.75,0.05c-0.367,0.2-0.567,0.433-0.6,0.7C33.333-8.667,33.6-8.533,34.2-8.9z"/>
			<path style="fill-rule:evenodd;clip-rule:evenodd;fill:#782203;" d="M35.75-9.65c0.233-0.2,0.367-0.333,0.4-0.4
				c0.033-0.034,0-0.1-0.1-0.2c-0.167-0.167-0.4-0.117-0.7,0.15c-0.167,0.133-0.167,0.267,0,0.4
				C35.517-9.533,35.65-9.517,35.75-9.65z"/>
			<path style="fill-rule:evenodd;clip-rule:evenodd;fill:#782203;" d="M28.55-5.8c0.233-0.167,0.367-0.367,0.4-0.6
				c0.033-0.233-0.1-0.417-0.4-0.55c-0.233-0.1-0.417-0.033-0.55,0.2c-0.1,0.367-0.2,0.633-0.3,0.8
				c-0.133,0.233-0.083,0.367,0.15,0.4C28.05-5.483,28.283-5.567,28.55-5.8z"/>
			<path style="fill-rule:evenodd;clip-rule:evenodd;fill:#782203;" d="M30.55-6.4c0.534-0.4,0.684-0.733,0.45-1
				c-0.2-0.233-0.533-0.067-1,0.5c-0.2,0.233-0.2,0.417,0,0.55C30.167-6.217,30.35-6.233,30.55-6.4z"/>
			<path style="fill-rule:evenodd;clip-rule:evenodd;fill:#782203;" d="M32.35-9.7c0.267-0.233,0.417-0.466,0.45-0.7
				c0.067-0.3-0.05-0.467-0.35-0.5c-0.3-0.033-0.5,0.066-0.6,0.3s-0.1,0.45,0,0.65C32.017-9.617,32.183-9.533,32.35-9.7z"/>
			<path style="fill-rule:evenodd;clip-rule:evenodd;fill:#782203;" d="M24.55-3.25c0.2-0.167,0.317-0.35,0.35-0.55
				c0.033-0.267-0.1-0.45-0.4-0.55S23.967-4.333,23.8-4c-0.167,0.3-0.25,0.617-0.25,0.95C23.55-2.65,23.883-2.717,24.55-3.25z"/>
			<path style="fill-rule:evenodd;clip-rule:evenodd;fill:#782203;" d="M23-2.7c0.3-0.333,0.283-0.566-0.05-0.7
				c-0.1-0.067-0.217-0.017-0.35,0.15c-0.133,0.133-0.2,0.283-0.2,0.45c0,0.167,0.067,0.25,0.2,0.25
				C22.733-2.517,22.867-2.567,23-2.7z"/>
			<path style="fill-rule:evenodd;clip-rule:evenodd;fill:#782203;" d="M27.85-7.95c0.433-0.867,0.267-1.4-0.5-1.6
				c-0.367-0.1-0.5,0.367-0.4,1.4c0.033,0.3,0.167,0.467,0.4,0.5C27.55-7.617,27.717-7.717,27.85-7.95z"/>
			<path style="fill-rule:evenodd;clip-rule:evenodd;fill:#782203;" d="M29-9.2c0.233-0.267,0.3-0.566,0.2-0.9
				c-0.034-0.133-0.15-0.167-0.35-0.1c-0.233,0.067-0.4,0.233-0.5,0.5c-0.1,0.3-0.033,0.483,0.2,0.55
				C28.783-9.05,28.933-9.067,29-9.2z"/>
			<path style="fill-rule:evenodd;clip-rule:evenodd;fill:#782203;" d="M27.65-11.25c0.2-0.233,0.333-0.533,0.4-0.9
				c0.1-0.4,0.034-0.633-0.2-0.7c-0.267-0.1-0.467-0.083-0.6,0.05c-0.133,0.1-0.283,0.333-0.45,0.7
				c-0.167,0.333-0.117,0.617,0.15,0.85C27.217-10.983,27.45-10.983,27.65-11.25z"/>
			<path style="fill-rule:evenodd;clip-rule:evenodd;fill:#782203;" d="M24.65-11.2c0.1,0.034,0.25-0.066,0.45-0.3
				c0.233-0.267,0.333-0.467,0.3-0.6c-0.066-0.3-0.367-0.4-0.9-0.3c-0.233,0.033-0.317,0.233-0.25,0.6S24.45-11.233,24.65-11.2z"/>
			<path style="fill-rule:evenodd;clip-rule:evenodd;fill:#782203;" d="M31.95-11.45c0.2-0.167,0.316-0.35,0.35-0.55
				c0.034-0.233-0.05-0.4-0.25-0.5c-0.367-0.167-0.65,0.033-0.85,0.6c-0.1,0.2-0.05,0.367,0.15,0.5
				C31.55-11.233,31.75-11.25,31.95-11.45z"/>
			<path style="fill-rule:evenodd;clip-rule:evenodd;fill:#782203;" d="M32.75-7.65c0.1-0.567-0.033-0.9-0.4-1
				c-0.2-0.067-0.333,0-0.4,0.2c-0.034,0.3-0.083,0.517-0.15,0.65c-0.1,0.2-0.017,0.3,0.25,0.3C32.25-7.5,32.483-7.55,32.75-7.65z"
				/>
			<path style="fill-rule:evenodd;clip-rule:evenodd;fill:#FC4C00;" d="M17.3-2.85c0.567,0.267,0.717,0,0.45-0.8
				c-0.1-0.233-0.267-0.4-0.5-0.5c-0.3-0.1-0.633-0.05-1,0.15C15.683-3.667,16.033-3.283,17.3-2.85z"/>
			<path style="fill-rule:evenodd;clip-rule:evenodd;fill:#FC4C00;" d="M15.9-4.55c0.2,0,0.317-0.117,0.35-0.35
				c0.033-0.2-0.033-0.35-0.2-0.45c-0.267-0.2-0.5-0.133-0.7,0.2C15.217-4.75,15.4-4.55,15.9-4.55z"/>
			<path style="fill-rule:evenodd;clip-rule:evenodd;fill:#FC4C00;" d="M21.2-2.85c0.167-0.433,0-0.733-0.5-0.9
				c-0.167-0.1-0.25-0.05-0.25,0.15c-0.034,0.167-0.034,0.333,0,0.5c0.033,0.133,0.15,0.25,0.35,0.35
				C21-2.65,21.133-2.683,21.2-2.85z"/>
			<path style="fill-rule:evenodd;clip-rule:evenodd;fill:#FC4C00;" d="M19.25-4.3l0.55,0.15c0.034,0,0.05-0.083,0.05-0.25
				c0-0.333-0.167-0.467-0.5-0.4c-0.133,0.033-0.217,0.117-0.25,0.25S19.117-4.333,19.25-4.3z"/>
			<path style="fill-rule:evenodd;clip-rule:evenodd;fill:#FC4C00;" d="M12.25-5.9c0.333,0.1,0.55,0.05,0.65-0.15
				c0.067-0.133,0.033-0.333-0.1-0.6c-0.2-0.4-0.667-0.483-1.4-0.25c-0.267,0.1-0.233,0.283,0.1,0.55
				C11.733-6.15,11.983-6,12.25-5.9z"/>
			<path style="fill-rule:evenodd;clip-rule:evenodd;fill:#FC4C00;" d="M14.05-5.65c0.4,0.167,0.583,0.1,0.55-0.2
				c-0.067-0.333-0.217-0.583-0.45-0.75c-0.367-0.2-0.65-0.167-0.85,0.1C13.133-6.267,13.383-5.983,14.05-5.65z"/>
			<path style="fill-rule:evenodd;clip-rule:evenodd;fill:#FC4C00;" d="M9.05-8.4C9.283-8.367,9.433-8.483,9.5-8.75
				S9.45-9.267,9.15-9.5C8.883-9.733,8.633-9.833,8.4-9.8C8.3-9.767,8.083-9.65,7.75-9.45C7.517-9.317,7.567-9.117,7.9-8.85
				C8.233-8.617,8.617-8.467,9.05-8.4z"/>
			<path style="fill-rule:evenodd;clip-rule:evenodd;fill:#FC4C00;" d="M10.35-8.1c0.267,0.067,0.433,0.017,0.5-0.15
				c0.066-0.167-0.017-0.35-0.25-0.55c-0.233-0.167-0.4-0.233-0.5-0.2S9.9-8.933,9.8-8.9c-0.167,0-0.167,0.117,0,0.35
				C9.933-8.283,10.117-8.133,10.35-8.1z"/>
			<path style="fill-rule:evenodd;clip-rule:evenodd;fill:#FC4C00;" d="M15.65-8.15c0.833,0.033,0.917-0.367,0.25-1.2
				c-0.233-0.3-0.417-0.417-0.55-0.35c-0.133,0.167-0.283,0.284-0.45,0.35c-0.233,0.067-0.25,0.283-0.05,0.65
				C15.017-8.333,15.283-8.15,15.65-8.15z"/>
			<path style="fill-rule:evenodd;clip-rule:evenodd;fill:#FC4C00;" d="M18.55-8.5c0.167,0.033,0.317-0.033,0.45-0.2
				c0.167-0.167,0.217-0.3,0.15-0.4c-0.066-0.167-0.383-0.217-0.95-0.15c-0.233,0.067-0.317,0.2-0.25,0.4
				C18.05-8.65,18.25-8.533,18.55-8.5z"/>
			<path style="fill-rule:evenodd;clip-rule:evenodd;fill:#FC4C00;" d="M18.35-9.7c0.2-0.033,0.316-0.1,0.35-0.2
				c0.033-0.133,0-0.233-0.1-0.3c-0.167-0.2-0.4-0.15-0.7,0.15c-0.133,0.1-0.133,0.2,0,0.3C18.033-9.683,18.183-9.667,18.35-9.7z"/>
			<path style="fill-rule:evenodd;clip-rule:evenodd;fill:#FC4C00;" d="M14.2-11.1c0.6,0.233,0.917,0.083,0.95-0.45
				c0-0.5-0.15-0.833-0.45-1c-0.333-0.2-0.65-0.034-0.95,0.5c-0.1,0.167-0.1,0.35,0,0.55S14-11.167,14.2-11.1z"/>
			<path style="fill-rule:evenodd;clip-rule:evenodd;fill:#FC4C00;" d="M10.35-10.15c0.367,0.2,0.633,0.267,0.8,0.2
				c0.133-0.066,0.184-0.183,0.15-0.35c-0.066-0.333-0.316-0.534-0.75-0.6c-0.267-0.067-0.417,0.017-0.45,0.25
				C10.1-10.45,10.183-10.283,10.35-10.15z"/>
			<path style="fill-rule:evenodd;clip-rule:evenodd;fill:#FC4C00;" d="M20.75-11.8c0.767,0.033,0.8-0.233,0.1-0.8
				c-0.133-0.1-0.233-0.117-0.3-0.05c-0.066,0.066-0.133,0.117-0.2,0.15c-0.1,0.067-0.1,0.2,0,0.4
				C20.417-11.9,20.55-11.8,20.75-11.8z"/>
			<path style="fill-rule:evenodd;clip-rule:evenodd;fill:#FC4C00;" d="M17.45-13.3c0.3-0.067,0.466-0.25,0.5-0.55
				c0-0.333-0.167-0.583-0.5-0.75c-0.3-0.133-0.467-0.167-0.5-0.1c-0.067,0.2-0.15,0.367-0.25,0.5c-0.133,0.2-0.083,0.4,0.15,0.6
				C17.05-13.367,17.25-13.267,17.45-13.3z"/>
			<path style="fill-rule:evenodd;clip-rule:evenodd;fill:#FC4C00;" d="M20.6-14.6c0.367-0.233,0.45-0.5,0.25-0.8
				c-0.1-0.133-0.184-0.167-0.25-0.1c-0.133,0.1-0.283,0.217-0.45,0.35c-0.2,0.167-0.217,0.316-0.05,0.45
				C20.267-14.567,20.433-14.533,20.6-14.6z"/>
			<path style="fill-rule:evenodd;clip-rule:evenodd;fill:#FC4C00;" d="M29.6-13.1c0.433,0.033,0.633-0.133,0.6-0.5
				c-0.034-0.333-0.15-0.633-0.35-0.9c-0.1-0.167-0.283-0.167-0.55,0c-0.2,0.133-0.333,0.283-0.4,0.45
				c-0.1,0.133-0.083,0.3,0.05,0.5C29.083-13.283,29.3-13.133,29.6-13.1z"/>
			<path style="fill-rule:evenodd;clip-rule:evenodd;fill:#FC4C00;" d="M0.7-11.2c0.2-0.167,0.25-0.3,0.15-0.4
				c-0.067-0.066-0.2-0.05-0.4,0.05C0.217-11.45,0.3-11.333,0.7-11.2z"/>
			<path style="fill-rule:evenodd;clip-rule:evenodd;fill:#FC4C00;" d="M3.05-10.15c0.2,0.066,0.267-0.05,0.2-0.35
				c-0.067-0.267-0.233-0.383-0.5-0.35s-0.333,0.15-0.2,0.35C2.683-10.333,2.85-10.217,3.05-10.15z"/>
			<path style="fill-rule:evenodd;clip-rule:evenodd;fill:#FC4C00;" d="M4.05-12.35c0.133,0,0.167-0.066,0.1-0.2
				C4.117-12.65,4-12.7,3.8-12.7c-0.2,0-0.233,0.05-0.1,0.15C3.8-12.417,3.917-12.35,4.05-12.35z"/>
			<path style="fill-rule:evenodd;clip-rule:evenodd;fill:#FC4C00;" d="M10.05-13.25c0.133-0.033,0.2-0.1,0.2-0.2
				c0.033-0.1-0.05-0.15-0.25-0.15s-0.267,0.067-0.2,0.2C9.867-13.267,9.95-13.217,10.05-13.25z"/>
			<path style="fill-rule:evenodd;clip-rule:evenodd;fill:#FC4C00;" d="M11.75-13.45c0.167,0,0.283-0.083,0.35-0.25
				c0.066-0.167,0.033-0.316-0.1-0.45c-0.1-0.1-0.217-0.1-0.35,0c-0.167,0.133-0.316,0.267-0.45,0.4
				C10.9-13.45,11.083-13.35,11.75-13.45z"/>
			<path style="fill-rule:evenodd;clip-rule:evenodd;fill:#FC4C00;" d="M28.2-15.25c0.1,0,0.167-0.1,0.2-0.3
				c0.033-0.2,0.033-0.35,0-0.45c-0.167-0.167-0.5-0.083-1,0.25c-0.233,0.167-0.233,0.3,0,0.4C27.6-15.283,27.867-15.25,28.2-15.25z
				"/>
			<path style="fill-rule:evenodd;clip-rule:evenodd;fill:#FC4C00;" d="M34.05-14c0.167,0.067,0.35-0.017,0.55-0.25
				c0.2-0.267,0.3-0.5,0.3-0.7c-0.033-0.167-0.217-0.283-0.55-0.35c-0.3-0.034-0.583-0.017-0.85,0.05
				c-0.2,0.067-0.233,0.267-0.1,0.6C33.533-14.317,33.75-14.1,34.05-14z"/>
			<path style="fill-rule:evenodd;clip-rule:evenodd;fill:#FC4C00;" d="M34.8-11.95c0.267,0,0.35-0.133,0.25-0.4
				c-0.066-0.167-0.2-0.267-0.4-0.3c-0.2-0.033-0.35,0-0.45,0.1c-0.067,0.1-0.034,0.216,0.1,0.35
				C34.467-12.033,34.633-11.95,34.8-11.95z"/>
			<path style="fill-rule:evenodd;clip-rule:evenodd;fill:#FC4C00;" d="M36.65-12.25c0.133,0.033,0.233,0.017,0.3-0.05
				c0.1-0.1,0.15-0.217,0.15-0.35c0-0.267-0.217-0.367-0.65-0.3c-0.2,0.034-0.25,0.15-0.15,0.35
				C36.367-12.433,36.483-12.317,36.65-12.25z"/>
			<path style="fill-rule:evenodd;clip-rule:evenodd;fill:#FC4C00;" d="M40.7-13.15c0.066-0.133,0.05-0.233-0.05-0.3
				c-0.066-0.066-0.2-0.1-0.4-0.1l-0.3,0.05c0,0.067,0.017,0.15,0.05,0.25c0.033,0.133,0.15,0.217,0.35,0.25
				C40.517-12.967,40.633-13.017,40.7-13.15z"/>
			<path style="fill-rule:evenodd;clip-rule:evenodd;fill:#FC4C00;" d="M40.65-11.4c0.133,0.033,0.217,0,0.25-0.1s0-0.2-0.1-0.3
				c-0.133-0.133-0.333-0.15-0.6-0.05c-0.1,0.033-0.083,0.117,0.05,0.25C40.383-11.5,40.517-11.433,40.65-11.4z"/>
			<path style="fill-rule:evenodd;clip-rule:evenodd;fill:#FC4C00;" d="M38.55-10.75c0.167,0.1,0.284,0.017,0.35-0.25
				c0.1-0.267,0.1-0.45,0-0.55c-0.066-0.067-0.25,0.05-0.55,0.35c-0.067,0.034-0.083,0.1-0.05,0.2
				C38.367-10.9,38.45-10.817,38.55-10.75z"/>
			<path style="fill-rule:evenodd;clip-rule:evenodd;fill:#FC4C00;" d="M38.35-9.95c0.133-0.267,0.117-0.383-0.05-0.35
				c-0.133,0-0.25,0.083-0.35,0.25c-0.034,0.133,0.017,0.2,0.15,0.2C38.233-9.817,38.317-9.85,38.35-9.95z"/>
			<path style="fill-rule:evenodd;clip-rule:evenodd;fill:#FC4C00;" d="M42.3-10c0.233-0.133,0.3-0.3,0.2-0.5
				c-0.033-0.133-0.183-0.117-0.45,0.05c-0.133,0.034-0.15,0.133-0.05,0.3C42.1-9.983,42.2-9.933,42.3-10z"/>
			<path style="fill-rule:evenodd;clip-rule:evenodd;fill:#FC4C00;" d="M16-15.6c0.233,0,0.367-0.017,0.4-0.05s0.067-0.117,0.1-0.25
				c0.1-0.133,0.133-0.217,0.1-0.25c-0.067-0.033-0.3-0.017-0.7,0.05c-0.367,0.1-0.483,0.2-0.35,0.3C15.65-15.667,15.8-15.6,16-15.6
				z"/>
			<path style="fill-rule:evenodd;clip-rule:evenodd;fill:#FC4C00;" d="M15.05-16.4c0.2-0.033,0.217-0.1,0.05-0.2
				c-0.133-0.1-0.3-0.117-0.5-0.05c-0.167,0.066-0.184,0.133-0.05,0.2C14.683-16.383,14.85-16.367,15.05-16.4z"/>
		</g>
	</g>
</symbol>
<use xlink:href="#hotpepper"  width="45.217" height="17.3" x="-0.012" y="-17.3" transform="matrix(1 0 0 -1 0.1499 0)" style="overflow:visible;"/>
</svg>
