<?xml version="1.0" encoding="iso-8859-1"?>
<!-- Generator: Adobe Illustrator 15.1.0, SVG Export Plug-In . SVG Version: 6.00 Build 0)  -->
<!DOCTYPE svg PUBLIC "-//W3C//DTD SVG 1.1//EN" "http://www.w3.org/Graphics/SVG/1.1/DTD/svg11.dtd">
<svg version="1.1" id="flash0.ai" xmlns="http://www.w3.org/2000/svg" xmlns:xlink="http://www.w3.org/1999/xlink" x="0px" y="0px"
	 width="43.15px" height="31.8px" viewBox="0 0 43.15 31.8" style="enable-background:new 0 0 43.15 31.8;" xml:space="preserve">
<g>
	<path style="fill-rule:evenodd;clip-rule:evenodd;fill:#F2F3F1;" d="M36.95,19.3l-0.3,0.851C36.417,20.783,36.3,21.3,36.3,21.7
		c0,0.7-0.433,2.033-1.3,4l-12.75,6.05L7.5,28.65l-3.6-6L36.95,19.3z"/>
	<path style="fill-rule:evenodd;clip-rule:evenodd;fill:#C2BCB9;" d="M16.4,21.35c0.4,0.233,1.75,1.9,4.05,5L21,26.5l1.25,5.25
		L7.5,28.65l-3.6-6L16.4,21.35z"/>
	<path style="fill-rule:evenodd;clip-rule:evenodd;fill:#FFEBA6;" d="M5.05,17.1c-0.167-0.333-0.3-0.966-0.4-1.899l-0.1-1.3
		c3.667,0.934,5.55,1.15,5.65,0.65c0.033-0.333,0.017-0.966-0.05-1.9l-0.1-1.35l7.7,0.5l0.65-3.6l3.1,0.9l0.25-2.05l3.1,1.55
		l3.101-1l2.3,2.15L33.6,9.1l-0.149,1.8L35.9,10l-0.5,4.15l2.449,0.1L40.4,15.3L35.8,20.45c-1.566,0.5-3.116,1.184-4.649,2.05
		c-1.267,0.7-3.15,1.517-5.65,2.45c-2.667,1-4.35,1.467-5.05,1.399c-0.833-0.066-2.717-0.383-5.65-0.949
		C11.667,24.8,9.75,24.35,9.05,24.05c-0.433-0.2-1.483-0.45-3.15-0.75c-1.5-0.267-2.433-0.533-2.8-0.8
		c-0.4-0.333-0.583-1.184-0.55-2.55L2.75,18l2.8,1.55C5.483,18.417,5.317,17.6,5.05,17.1z"/>
	<path style="fill-rule:evenodd;clip-rule:evenodd;fill:#E3C056;" d="M25.5,24.55l0.65,0.25l-5.4,2.2l-6.7-2.2l2.3-0.35l0.9-1.45
		l2,1c1.467,0.634,2.434,0.95,2.9,0.95c0.767,0,1.533-0.816,2.3-2.45L25.5,24.55z"/>
	<path style="fill-rule:evenodd;clip-rule:evenodd;fill:#E3C056;" d="M6.25,16.6c1.1,0.534,1.934,0.834,2.5,0.9
		c0.967,0.066,2.133,0.316,3.5,0.75l-1.7-4.5l1.25,0.3c0.934,0.2,1.717,0.267,2.35,0.2c1.034-0.067,2.45-0.833,4.25-2.3l1.15-2.3
		L21.9,11.2l-0.4-2.1l2.85,0.9l0.5-1.4l0.75,0.45c0.601,0.3,1.084,0.45,1.45,0.45c0.601,0,1.233-0.167,1.9-0.5l1.149,1.4l3.351,0.5
		c-1.533,0.533-2.65,0.967-3.351,1.3c-0.399,0.2,0.233,0.35,1.9,0.45c0.833,0.033,1.7,0.05,2.6,0.05v1.85L35.4,15.3
		c0.6,0.5,1.033,0.75,1.3,0.75h1.649L36.95,19.3c-1.967,0.767-3.384,1.184-4.25,1.25c-0.533,0.066-1.017-0.366-1.45-1.3l-0.5-1.4
		l2.7-1.899c-1.367-0.934-2.733-1.4-4.101-1.4c-0.866,0-1.783-0.466-2.75-1.4l-1.25-1.45l-1.3,1.8l-3.95,0.75l2.7,1.15
		c0.601,0.2,1.8,0.033,3.601-0.5l-0.5,1.3c-0.197,0.568-0.289,0.985-0.275,1.25c-2.728-0.72-4.486-1.003-5.275-0.851
		c-0.633,0.101-1.717,0.101-3.25,0l-2.05-0.149l0.4,3.2l4.75,1.05l-8.75-0.75l0.35,1.35c0.3,0.967,0.583,1.584,0.85,1.851
		c0.267,0.3,1.25,0.649,2.95,1.05c1.233,0.321,2.108,0.514,2.625,0.575c-4.447-0.321-7.305-0.563-8.575-0.726
		c-0.8-0.1-2-0.366-3.6-0.8l-2.15-0.6c-0.7-0.2-1.05-0.5-1.05-0.9L3.1,20.3V19.65l0.65,0.6c0.533,0.434,1.1,0.717,1.7,0.85l3.6,0.75
		L6.2,19.65L4.8,15.8L6.25,16.6z M25.625,17.45c0.851,0.226,1.793,0.492,2.825,0.8c-1.467-0.1-2.367-0.267-2.7-0.5
		C25.682,17.692,25.64,17.593,25.625,17.45z"/>
	<path style="fill-rule:evenodd;clip-rule:evenodd;fill:#AB903B;" d="M2.85,21.75l7.35,1.65l-2.6-3.2c1.9,1.533,3.066,2.05,3.5,1.55
		c0.267-0.333,1.117,0.116,2.55,1.35c0.7,0.634,1.383,1.284,2.05,1.95L21,26.5l7.85-3.6L29.95,21.8c0.8-0.767,1.416-1.217,1.85-1.35
		c0.667-0.267,2.084-0.434,4.25-0.5L21,27.9l-17.65-5L2.85,21.75z"/>
	<path style="fill-rule:evenodd;clip-rule:evenodd;fill:#AB903B;" d="M10.2,14.55L10.7,13l2.2,2.8l2.05,1.95
		c-1.9,0-3.067-0.167-3.5-0.5c-0.3-0.267-0.667-1-1.1-2.2L10.2,14.55z"/>
	<path style="fill-rule:evenodd;clip-rule:evenodd;fill:#AB903B;" d="M33.45,15.95l0.85,0.25c0.567,0.267,0.934,0.616,1.101,1.05
		c0.267,0.667,0.783,1.35,1.55,2.05c-1.367,0-2.351,0.084-2.95,0.25c-0.434,0.134-1.184-0.083-2.25-0.649
		c-1.033-0.567-1.366-0.917-1-1.051C31.283,17.684,32.184,17.05,33.45,15.95z"/>
	<path style="fill-rule:evenodd;clip-rule:evenodd;fill:#E3C056;" d="M25.35,15.95l1.2,0.649c0.834,0.4,1.384,0.567,1.65,0.5
		c0.434-0.1,1.883,0.15,4.35,0.75l0.55,2.101l-2.85,1L26,23.8l-1.15-3.85c-1.633,0.767-2.666,1.316-3.1,1.649L19.2,24.15
		l-0.55-2.301c-0.033-0.267-0.433-0.6-1.2-1l-1.1-0.55l2.6-1.8l1.3,0.8c0.967,0.467,1.684,0.55,2.15,0.25
		C23.167,19.017,24.15,17.816,25.35,15.95z"/>
	<path style="fill-rule:evenodd;clip-rule:evenodd;fill:#FEDC00;" d="M12.75,15.7c-0.967-0.634-1.433-1.067-1.4-1.3
		c0.033-0.267,0.95-0.15,2.75,0.35c1.933,0.5,3.033,0.6,3.3,0.3c0.2-0.233,0.284-0.867,0.25-1.9c-0.033-0.9,0.184-1.467,0.65-1.7
		c0.5-0.267,1.333-0.333,2.5-0.2c0.601,0.066,1.434,0.167,2.5,0.3c0.867,0,1.384-0.983,1.55-2.95L25.65,9
		c0.6,0.3,1.066,0.467,1.399,0.5c0.233,0.033,0.417,0.283,0.55,0.75c0.134,0.533,0.367,0.933,0.7,1.2c0.4,0.267,0.867,0.45,1.4,0.55
		c0.333,0.066,0.467,0.133,0.399,0.2c-0.133,0.167-0.1,0.383,0.101,0.65c0.267,0.3,0.75,0.6,1.45,0.9
		c1.033,0.433,2.533,0.65,4.5,0.65c-0.233,0.267-0.467,0.583-0.7,0.95c-0.467,0.733-0.7,1.317-0.7,1.75
		c0,0.334,0.217,0.817,0.65,1.45c0.433,0.634,0.649,1.101,0.649,1.4c0,0.434-0.283,0.583-0.85,0.45
		c-0.533-0.101-0.934-0.384-1.2-0.851c-0.233-0.366-0.667-0.767-1.3-1.2l-0.9-0.5c0.767-0.233,1.233-0.533,1.4-0.899
		c0.1-0.167-0.184-0.417-0.851-0.75c-0.833-0.4-1.366-0.7-1.6-0.9c-0.333-0.333-0.783-0.533-1.35-0.6
		c-0.2-0.034-0.65-0.05-1.351-0.05c-0.3,0-0.85-0.483-1.649-1.45l-1.051-1.5l-3.199,3.7c-0.2,0.333-0.017,0.633,0.55,0.9
		c0.533,0.267,1.166,0.367,1.899,0.3c0.7-0.066,1.4,0.051,2.101,0.351c0.733,0.3,1.316,0.733,1.75,1.3
		c0.333,0.434,0.85,0.717,1.55,0.85c0.767,0.134,1.233,0.284,1.4,0.45c0.267,0.267,0.033,0.566-0.7,0.9
		c-0.9,0.366-1.483,0.616-1.75,0.75c-0.267,0.133-0.3,0.416-0.101,0.85c0.267,0.601,0.384,1.05,0.351,1.351
		c0,0.133,0.133,0.733,0.399,1.8c0.2,0.733,0.067,1.2-0.399,1.399c-0.467,0.233-0.851-0.116-1.15-1.05l-0.25-1.5L26.15,24.8
		l-1.301-4.85c-0.666,0.366-1.35,0.783-2.05,1.25c-1.366,1-2.1,1.816-2.2,2.45c-0.033,0.1-0.033,0.883,0,2.35
		c0.033,0.767-0.184,1.15-0.65,1.15c-0.5,0-0.767-0.233-0.8-0.7c0.067-0.667,0.117-1.217,0.15-1.65
		c0.067-0.533-0.017-1.184-0.25-1.95l-0.4-1l-5.1-1.899l0.05,1.5c0.066,1.1,0.167,1.916,0.3,2.45c0.2,0.666,0.233,1.3,0.1,1.899
		c-0.133,0.601-0.417,1-0.85,1.2c-0.367,0.167-0.583-0.167-0.65-1c0-1.1,0-1.884,0-2.35c0-0.567-0.267-1.25-0.8-2.051l-0.85-1.05
		c1.367-1,2.3-2.017,2.8-3.05C13.95,16.934,13.65,16.333,12.75,15.7z"/>
	<path style="fill-rule:evenodd;clip-rule:evenodd;fill:#D9BC00;" d="M14.3,17.1c-0.267,0.134-0.483,0.4-0.65,0.801
		c-0.066,0.233-0.083,0.383-0.05,0.449c0.033,0.034,0.117,0.101,0.25,0.2l0.3,0.2c0.1,0.066,0.133,0.184,0.1,0.35
		c-0.033,0.134-0.3,0.301-0.8,0.5c-0.633,0.134-1.083,0.317-1.35,0.551L11.65,20.6c-0.133,0.067-0.233-0.083-0.3-0.449
		c-0.067-0.301-0.017-0.5,0.15-0.601c0.233-0.166,0.383-0.316,0.45-0.45c0.1-0.166,0.083-0.433-0.05-0.8
		c-0.1-0.333-0.117-0.566-0.05-0.7c0.1-0.166,0.333-0.216,0.7-0.149c0.467,0.1,0.733,0.133,0.8,0.1c0.2-0.066,0.417-0.184,0.65-0.35
		c0.14-0.12,0.232-0.237,0.275-0.351L14.3,17.1z"/>
	<path style="fill-rule:evenodd;clip-rule:evenodd;fill:#D9BC00;" d="M33.1,17.1c-0.066,0.334,0.084,0.65,0.45,0.95
		c0.533,0.467,0.834,0.767,0.9,0.9c0.1,0.2,0.3,0.434,0.6,0.7L35.5,20c0.167,0.167,0.117,0.316-0.15,0.45
		c-0.166,0.1-0.399,0.066-0.699-0.101C34.417,20.184,34.233,20,34.1,19.8c-0.333-0.533-0.633-0.85-0.899-0.95
		c-0.267-0.133-0.533-0.333-0.8-0.6c-0.334-0.333-0.601-0.566-0.801-0.7c0.134-0.066,0.367-0.166,0.7-0.3
		c0.3-0.1,0.517-0.217,0.65-0.35L33.1,17.1z"/>
	<path style="fill-rule:evenodd;clip-rule:evenodd;fill:#FFF464;" d="M18.4,15.8l1.95,0.8c-1.2-0.1-2.15-0.017-2.85,0.25
		c-0.633,0.233-1.05,0.384-1.25,0.45c-0.367,0.066-0.717,0.05-1.05-0.05c-0.3-0.134-0.617-0.434-0.95-0.9
		c-0.333-0.6-0.617-1.083-0.85-1.45s-0.033-0.383,0.6-0.05c0.934,0.533,1.55,0.816,1.85,0.85C16.517,15.767,17.367,15.8,18.4,15.8z"
		/>
	<path style="fill-rule:evenodd;clip-rule:evenodd;fill:#FFF464;" d="M19.3,12.45c0.067-0.167,0.634-0.25,1.7-0.25
		c1.1,0,1.866,0.083,2.3,0.25c0.367,0.167,0.101,0.35-0.8,0.55c-1.434,0.3-2.2,0.467-2.3,0.5c-0.467,0.167-0.767,0.05-0.9-0.35
		V12.45z"/>
	<path style="fill-rule:evenodd;clip-rule:evenodd;fill:#FFF464;" d="M26.15,10.3l0.25-0.15c0.199-0.066,0.416-0.017,0.649,0.15
		c0.334,0.233,0.417,0.833,0.25,1.8L26.15,10.3z"/>
	<path style="fill-rule:evenodd;clip-rule:evenodd;fill:#FFF464;" d="M20.6,18.4c0.433,0,0.6,0.116,0.5,0.35
		c-0.066,0.233-0.283,0.417-0.649,0.55c-1.333,0.566-2.1,1.117-2.3,1.65c-0.1,0.233-0.566,0.149-1.4-0.25
		c-1.133-0.533-1.816-0.834-2.05-0.9c-0.333-0.066-0.284-0.116,0.15-0.149c0.8-0.101,1.383-0.267,1.75-0.5
		C17.3,18.717,18.633,18.467,20.6,18.4z"/>
	<path style="fill-rule:evenodd;clip-rule:evenodd;fill:#FFF464;" d="M25.75,17.75c0.333-0.434,1.017-0.134,2.05,0.9
		c0.233,0.233,0.634,0.449,1.2,0.649c0.6,0.233,0.967,0.4,1.1,0.5c0.233,0.167-0.083,0.25-0.949,0.25c-1.067-0.066-1.733-0.1-2-0.1
		c-0.301,0-0.817-0.15-1.551-0.45l-1-0.45L25.75,17.75z"/>
	<path style="fill-rule:evenodd;clip-rule:evenodd;fill:#FFF464;" d="M30,13.5c0-0.3,0.3-0.3,0.9,0c0.5,0.267,0.933,0.566,1.3,0.9
		c0.166,0.167,0.7,0.25,1.6,0.25c0.967-0.033,1.584,0.017,1.851,0.15c0.433,0.167,0.083,0.35-1.051,0.55
		c-1.133,0.2-1.982,0.267-2.55,0.2c-0.467-0.066-0.934-0.383-1.399-0.95C30.217,14.133,30,13.767,30,13.5z"/>
	<path style="fill-rule:evenodd;clip-rule:evenodd;fill:#FFF464;" d="M12.25,22l1.15,2.3c0.534,1.101,0.45,2-0.25,2.7
		c-0.3,0.3-0.5,0.033-0.6-0.8c-0.133-0.767-0.15-1.316-0.05-1.65C12.6,24.217,12.517,23.366,12.25,22z"/>
	<path style="fill-rule:evenodd;clip-rule:evenodd;fill:#E3C056;" d="M8.5,15.4c0.133-0.367,0.4-0.333,0.8,0.1
		c0.4,0.467,0.517,0.833,0.35,1.1c-0.133,0.267-0.4,0.25-0.8-0.05C8.483,16.217,8.367,15.833,8.5,15.4z"/>
	<path style="fill-rule:evenodd;clip-rule:evenodd;fill:#E3C056;" d="M22.65,23c0.267-0.066,0.383,0.1,0.35,0.5
		s-0.233,0.667-0.6,0.8c-0.4,0.134-0.584-0.017-0.551-0.45C21.884,23.417,22.15,23.134,22.65,23z"/>
	<path style="fill-rule:evenodd;clip-rule:evenodd;fill:#AB903B;" d="M6.6,20.2l-0.65-1.95l2.7,1.55
		c0.333,0.167,0.467,0.851,0.4,2.05L6.6,20.2z"/>
	<path style="fill-rule:evenodd;clip-rule:evenodd;fill:#ADA8A5;" d="M4.9,25.05l1.05,0.65c0.044,0.061,0.085,0.127,0.125,0.2
		C6.338,25.972,6.647,26.021,7,26.05c0.467,0.033,1.15,0.05,2.05,0.05c0.634,0.034,1.634,0.4,3,1.101c0.733,0.399,1.7,0.934,2.9,1.6
		c0.533,0.3,1.4,0.334,2.6,0.101c1.4-0.267,2.2-0.384,2.4-0.351c0.767,0.066,1.5,0.533,2.2,1.4L22.55,31.6L7.5,28.55
		c-0.539-1.168-1.014-2.052-1.425-2.649c-0.344-0.108-0.603-0.259-0.775-0.45L4.9,25.05z"/>
	<path style="fill-rule:evenodd;clip-rule:evenodd;fill:#DCD5D2;" d="M31.55,27.475c-0.856,0.589-1.506,0.896-1.95,0.926
		c-0.025,0.002-0.051,0.002-0.074,0L31.55,27.475z M29.525,28.4L22.55,31.6L22.15,29.95c0.866-0.867,1.416-1.517,1.649-1.95
		c0.167-0.233,0.8-0.434,1.9-0.6c0.566-0.067,1.1-0.117,1.6-0.15l0.55,0.65C28.361,28.283,28.92,28.45,29.525,28.4z M36.05,23.65
		L35.65,25.6l-4.101,1.875C32.687,26.693,34.187,25.419,36.05,23.65z"/>
	<path style="fill-rule:evenodd;clip-rule:evenodd;fill:#FFF464;" d="M28.7,22.25L30.1,24.8c0.367,0.767,0.25,1.334-0.35,1.7
		c-0.267,0.134-0.4,0-0.4-0.4c0-0.733,0-1.116,0-1.149L28.7,22.25z"/>
	<path style="fill-rule:evenodd;clip-rule:evenodd;fill:#9E2929;" d="M19.3,15.3c0.333-0.566,1.017-0.617,2.05-0.15
		c1.034,0.434,1.384,0.917,1.051,1.45c-0.334,0.5-1,0.534-2,0.101C19.4,16.267,19.033,15.8,19.3,15.3z"/>
	<path style="fill-rule:evenodd;clip-rule:evenodd;fill:#9E2929;" d="M8.5,20.8c0-0.7,0.55-0.983,1.65-0.85
		c1.067,0.133,1.6,0.55,1.6,1.25c0,0.733-0.533,1.05-1.6,0.95C9.05,22.05,8.5,21.6,8.5,20.8z"/>
	<path style="fill-rule:evenodd;clip-rule:evenodd;fill:#9E2929;" d="M18.65,21.85c-0.267-0.733,0.034-1.333,0.9-1.8
		c0.9-0.5,1.601-0.416,2.101,0.25C22.116,21,21.8,21.566,20.7,22C19.567,22.467,18.883,22.417,18.65,21.85z"/>
	<path style="fill-rule:evenodd;clip-rule:evenodd;fill:#9E2929;" d="M26,21.6c0.066-0.733,0.6-1.017,1.6-0.85
		c0.967,0.167,1.334,0.667,1.101,1.5c-0.233,0.767-0.75,1-1.55,0.7C26.316,22.65,25.934,22.2,26,21.6z"/>
	<path style="fill-rule:evenodd;clip-rule:evenodd;fill:#9E2929;" d="M27.55,13.5c-0.2-0.567,0.217-1.117,1.25-1.65
		c1.033-0.534,1.65-0.55,1.851-0.05c0.166,0.534-0.267,1.067-1.301,1.6C28.316,13.967,27.717,14,27.55,13.5z"/>
	<path style="fill-rule:evenodd;clip-rule:evenodd;fill:#9E2929;" d="M13,13.9c0.2-0.433,0.6-0.55,1.2-0.35
		c0.633,0.2,0.883,0.534,0.75,1c-0.133,0.434-0.534,0.534-1.2,0.3C13.083,14.583,12.833,14.267,13,13.9z"/>
	<path style="fill-rule:evenodd;clip-rule:evenodd;fill:#9E2929;" d="M32.7,16.4c0.899-0.233,1.417-0.051,1.55,0.55
		c0.134,0.533-0.2,0.899-1,1.1s-1.283,0.101-1.45-0.3C31.5,17.083,31.8,16.634,32.7,16.4z"/>
	<path style="fill-rule:evenodd;clip-rule:evenodd;fill:#82AE3C;" d="M16.5,12.1l0.35-0.3l-0.2,0.25C17.417,12.316,18,12.3,18.4,12
		c0.4,0.633,0.45,1.1,0.15,1.4c-0.267-0.133-0.5-0.117-0.7,0.05c-0.2,0.2-0.4,0.267-0.6,0.2c-0.267-0.066-0.483-0.3-0.65-0.7
		C16.434,12.583,16.4,12.3,16.5,12.1z"/>
	<path style="fill-rule:evenodd;clip-rule:evenodd;fill:#82AE3C;" d="M23.05,11.1c0.2-0.034,0.5-0.15,0.9-0.35
		c0.331-0.181,0.605-0.297,0.825-0.35c0.13,0.172,0.404,0.506,0.824,1C25.4,11.5,25.2,11.667,25,11.9c-0.233,0.3-0.417,0.5-0.55,0.6
		C23.783,11.9,23.316,11.433,23.05,11.1z"/>
	<path style="fill-rule:evenodd;clip-rule:evenodd;fill:#82AE3C;" d="M23.7,16.6l0.1-0.3c0.167,0.167,0.667,0.15,1.5-0.05
		c0.601-0.134,0.867,0.233,0.8,1.1c-0.666-0.033-1.333,0.134-2,0.5L23.7,16.6z"/>
	<path style="fill-rule:evenodd;clip-rule:evenodd;fill:#82AE3C;" d="M20.45,16.95l0.3-0.25c0.6,0.166,0.967,0.416,1.1,0.75
		c-0.399,0-0.85,0.217-1.35,0.649c-0.433-0.267-0.733-0.6-0.9-1C19.867,16.934,20.15,16.884,20.45,16.95z"/>
	<path style="fill-rule:evenodd;clip-rule:evenodd;fill:#82AE3C;" d="M12.1,20.2v0.1c0.767-0.267,1.233-0.383,1.4-0.35
		c0.1,0.666,0.05,1.149-0.15,1.45c-0.233,0.333-0.684,0.483-1.35,0.449C12,20.917,12.033,20.366,12.1,20.2z"/>
	<path style="fill-rule:evenodd;clip-rule:evenodd;fill:#82AE3C;" d="M16.75,21.45V21.6c0.367-0.066,0.717,0.017,1.05,0.25
		c0.4,0.267,0.384,0.601-0.05,1c-0.4-0.1-0.733-0.3-1-0.6C16.45,21.917,16.45,21.65,16.75,21.45z"/>
	<path style="fill-rule:evenodd;clip-rule:evenodd;fill:#82AE3C;" d="M26.3,19.575c0.225-0.288,0.475-0.363,0.75-0.226
		c0.334,0.167,0.316,0.483-0.05,0.95c-0.333,0.4-0.684,0.533-1.05,0.4c-0.334-0.134-0.434-0.467-0.3-1
		C25.833,19.569,26.05,19.527,26.3,19.575z"/>
	<path style="fill-rule:evenodd;clip-rule:evenodd;fill:#82AE3C;" d="M31.8,15.05h-0.25c1,0.067,1.584,0.434,1.75,1.101
		c-0.2,0-0.6,0.066-1.2,0.199c-0.466,0.134-0.8,0.134-1,0c-0.466-0.3-0.583-0.616-0.35-0.95C30.95,15.066,31.3,14.95,31.8,15.05z"/>
	<path style="fill-rule:evenodd;clip-rule:evenodd;fill:#82AE3C;" d="M13,16.05l0.15-0.1c-0.133,0.2-0.167,0.366-0.1,0.5
		c0.067,0,0.617,0.133,1.65,0.399c-0.367,0.267-0.55,0.65-0.55,1.15c-0.466-0.033-0.85-0.083-1.15-0.15c-0.5-0.1-0.8-0.267-0.9-0.5
		c-0.067-0.199,0.033-0.483,0.3-0.85C12.667,16.167,12.867,16.017,13,16.05z"/>
	<path style="fill-rule:evenodd;clip-rule:evenodd;fill:#82AE3C;" d="M16.4,14.3c0.278-0.044,0.561,0.006,0.85,0.15
		c0.4,0.2,0.4,0.483,0,0.85c-0.367,0.267-0.683,0.217-0.95-0.15C16.022,14.811,16.056,14.527,16.4,14.3z"/>
	<path style="fill-rule:evenodd;clip-rule:evenodd;fill:#82AE3C;" d="M23.75,12.725L23.7,12.7c0.533-0.2,0.767-0.117,0.7,0.25
		c-0.101,0.4-0.334,0.616-0.7,0.65c-0.434,0.033-0.584-0.15-0.45-0.55C23.338,12.808,23.505,12.7,23.75,12.725z"/>
	<path style="fill-rule:evenodd;clip-rule:evenodd;fill:#82AE3C;" d="M26.975,13.5c0.431-0.154,0.788,0.012,1.075,0.5
		c-0.2,0.5-0.75,0.75-1.649,0.75c-0.067-0.434-0.017-0.85,0.149-1.25H26.975z"/>
	<path style="fill-rule:evenodd;clip-rule:evenodd;fill:#9E2929;" d="M20.85,11.3c0.133-0.4,0.6-0.6,1.4-0.6
		c0.833,0.033,1.184,0.316,1.05,0.85c-0.133,0.534-0.6,0.733-1.399,0.6C21.066,11.983,20.717,11.7,20.85,11.3z"/>
	<path style="fill-rule:evenodd;clip-rule:evenodd;fill:#9E2929;" d="M7.75,18.4L7.6,18.75c0.467-0.134,0.733,0.05,0.8,0.55
		c0.067,0.5-0.1,0.834-0.5,1c-0.767,0.3-1.1,0.117-1-0.55C7,19.116,7.283,18.667,7.75,18.4z"/>
	<path style="fill-rule:evenodd;clip-rule:evenodd;fill:#9E2929;" d="M28.05,18.5v0.15c0.367-0.101,0.684-0.084,0.95,0.05
		c0.3,0.133,0.45,0.366,0.45,0.7c-0.733,0.066-1.283,0.1-1.65,0.1C27.7,19.1,27.783,18.767,28.05,18.5z"/>
	<path style="fill-rule:evenodd;clip-rule:evenodd;fill:#D9BC00;" d="M24.6,18.4l0.25-0.15c-0.199,0.2-0.25,0.4-0.149,0.6
		c0.033,0.101,0.133,0.233,0.3,0.4c0.134,0.267,0.267,0.684,0.4,1.25c0.199,0.634,0.583,1.566,1.149,2.8
		c0.134,0.467,0.2,0.75,0.2,0.851c0.033,0.333-0.1,0.55-0.4,0.649c-0.233,0.101-0.416,0.033-0.55-0.2
		c-0.033-0.033-0.116-0.25-0.25-0.649c-0.5-1.3-0.767-2.316-0.8-3.05H24.6c-0.199-0.434-0.366-0.65-0.5-0.65
		c-0.133,0-0.383,0.15-0.75,0.45c-0.166,0.133-0.517,0.35-1.05,0.649c-0.434,0.233-0.75,0.483-0.95,0.75
		c-0.233,0.334-0.383,0.667-0.45,1c-0.033,0.2-0.05,0.584-0.05,1.15c0,0.634-0.117,1.384-0.35,2.25
		c-0.066,0.267-0.183,0.467-0.35,0.6c-0.233,0.2-0.4,0.117-0.5-0.25c-0.033-0.1,0-0.333,0.1-0.699c0.133-0.434,0.2-0.7,0.2-0.801
		C19.917,24.684,19.9,24.2,19.9,23.9c0.034-0.534,0.15-0.983,0.35-1.351c0.133-0.233,0.483-0.566,1.05-1
		c0.267-0.233,0.601-0.649,1-1.25c0.267-0.233,0.566-0.649,0.9-1.25c0.133-0.267,0.316-0.483,0.55-0.649
		C24.083,18.2,24.366,18.2,24.6,18.4z"/>
	<path style="fill-rule:evenodd;clip-rule:evenodd;fill:#D9BC00;" d="M17.9,12.8c-0.133,0.034-0.2,0.15-0.2,0.35
		c0.033,0.2,0.1,0.367,0.2,0.5c0.133,0.133,0.3,0.217,0.5,0.25c0.1,0.033,0.284,0.067,0.55,0.1c1.033,0.333,1.35,0.667,0.95,1
		c-0.1,0.1-0.267,0.15-0.5,0.15s-0.4,0.017-0.5,0.05c-0.1,0.033-0.183,0.1-0.25,0.2c-0.1,0.1-0.25,0.15-0.45,0.15
		c-0.2,0-0.5-0.066-0.9-0.2c-0.4-0.167-0.7-0.25-0.9-0.25c0.633-0.034,1.017-0.333,1.15-0.9c-0.033-0.367-0.05-0.65-0.05-0.85
		c-0.033-0.367,0.05-0.583,0.25-0.65L17.9,12.8z"/>
	<path style="fill-rule:evenodd;clip-rule:evenodd;fill:#D9BC00;" d="M27.6,10.85l0.351,0.2c0.133,0.167,0.383,0.35,0.75,0.55
		c0.233,0.2,0.184,0.433-0.15,0.7c-0.366,0.2-0.649,0.367-0.85,0.5c-0.3,0.2-0.434,0.467-0.4,0.8
		c-0.434-0.067-0.483-0.45-0.149-1.15c0.233-0.333,0.383-0.567,0.449-0.7C27.7,11.483,27.7,11.183,27.6,10.85z"/>
	<path style="fill-rule:evenodd;clip-rule:evenodd;fill:#FFF464;" d="M34.45,17.65h0.1c1.033,1.199,1.384,1.85,1.05,1.949
		c-0.267,0.101-0.55-0.166-0.85-0.8C34.45,18.2,34.35,17.816,34.45,17.65z"/>
	<path style="fill-rule:evenodd;clip-rule:evenodd;fill:#FFF464;" d="M23.1,17.35c0.134,0.101,0.15,0.301,0.051,0.601
		c-0.2,0.467-0.551,0.7-1.051,0.7c-0.11-0.774,0.04-1.274,0.45-1.5C22.884,17.25,23.066,17.316,23.1,17.35z"/>
	<path style="fill-rule:evenodd;clip-rule:evenodd;fill:#FFF464;" d="M15.65,17.95c0.135-0.203,0.385-0.319,0.75-0.351
		c0.333-0.033,0.633,0,0.9,0.101c-0.2,0.233-0.5,0.45-0.9,0.649c-0.433,0.233-0.783,0.317-1.05,0.25c-0.4-0.166-0.4-0.35,0-0.55
		C15.449,18.009,15.549,17.976,15.65,17.95z"/>
	<path style="fill-rule:evenodd;clip-rule:evenodd;fill:#BD5A2F;" d="M26.6,14.95L26.4,14.9l0.449-0.3
		c0.134,0.167,0.301,0.2,0.5,0.1c0.301-0.167,0.467-0.25,0.5-0.25c0.267-0.034,0.45,0.033,0.551,0.2
		c0.1,0.133,0.066,0.317-0.101,0.55c-0.066,0.1-0.267,0.216-0.6,0.35c-0.267,0.133-0.384,0.3-0.351,0.5
		c0.034,0.233,0.417,0.566,1.15,1c-0.1,0.4-0.233,0.584-0.4,0.55c-0.267-0.133-0.5-0.25-0.699-0.35
		c-0.367-0.033-0.634-0.083-0.801-0.15c-0.199-0.233-0.366-0.399-0.5-0.5c-0.3-0.166-0.483-0.283-0.55-0.35
		c-0.066-0.033-0.066-0.2,0-0.5C25.717,15.15,26.066,14.883,26.6,14.95z"/>
	<path style="fill-rule:evenodd;clip-rule:evenodd;fill:#BD5A2F;" d="M32.2,18.05c0.133,0.101,0.267,0.267,0.399,0.5
		c0.2,0.167,0.551,0.334,1.051,0.5c0.366,0.2,0.449,0.533,0.25,1c-0.567-0.2-0.983-0.3-1.25-0.3c-0.167,0-0.351,0.05-0.551,0.15
		C31.9,20.033,31.733,20.1,31.6,20.1c-0.3,0.067-0.483,0.017-0.55-0.149c-0.066-0.233-0.133-0.417-0.2-0.55
		c-0.133-0.167-0.267-0.267-0.399-0.301c-0.2,0-0.4-0.033-0.601-0.1c0.067-0.3,0.317-0.483,0.75-0.55
		c0.208-0.018,0.399-0.009,0.575,0.024c0.065-0.047,0.124-0.122,0.175-0.225c0.101-0.233,0.2-0.366,0.301-0.4
		C31.85,17.783,32.033,17.85,32.2,18.05z"/>
	<path style="fill-rule:evenodd;clip-rule:evenodd;fill:#BD5A2F;" d="M18.4,16.2l-0.375,0.024L18.05,16.2
		C18.15,16.134,18.267,16.134,18.4,16.2z M17,16.75c0.233-0.033,0.483-0.134,0.75-0.3l0.1-0.101c0.154,0.046,0.321,0.013,0.5-0.1
		c0.167-0.066,0.383-0.233,0.65-0.5c0,0.033,0.2,0.233,0.6,0.6c0.233,0.2,0.25,0.384,0.05,0.551c-0.033,0.066-0.167,0.083-0.4,0.05
		c-0.233,0-0.383,0.017-0.45,0.05c-0.167,0.1-0.233,0.2-0.2,0.3c0.033,0.167,0.033,0.283,0,0.351c-0.133,0.333-0.3,0.449-0.5,0.35
		c-0.3-0.2-0.567-0.333-0.8-0.4c-0.133-0.033-0.45-0.017-0.95,0.051c-0.434,0.066-0.717,0.033-0.85-0.101
		C15.733,17.15,16.233,16.884,17,16.75z"/>
	<path style="fill-rule:evenodd;clip-rule:evenodd;fill:#BD5A2F;" d="M14.6,18.65c0.233-0.067,0.433-0.034,0.6,0.1
		c-0.034,0.066-0.15,0.15-0.35,0.25c-0.167,0.1-0.267,0.2-0.3,0.3c0,0.066,0.083,0.167,0.25,0.3C14.934,19.767,15,19.9,15,20
		c-0.133-0.033-0.3-0.017-0.5,0.05c-0.267,0.101-0.433,0.15-0.5,0.15c-0.467-0.134-0.816-0.217-1.05-0.25
		c-0.5-0.101-0.867-0.066-1.1,0.1c-0.067,0.033-0.15,0.15-0.25,0.351c-0.1,0.133-0.233,0.216-0.4,0.25c-0.167,0-0.3-0.067-0.4-0.2
		c-0.133-0.233-0.233-0.367-0.3-0.4l-1-0.25c-0.4,0.101-0.733,0.167-1,0.2c-0.5,0.066-0.733-0.1-0.7-0.5
		c0.3-0.033,0.733,0.033,1.3,0.2v-0.2c0.233-0.167,0.55-0.217,0.95-0.15c0.5,0.101,0.817,0.134,0.95,0.101
		c0.1-0.334,0.6-0.434,1.5-0.3c0.9,0.166,1.45,0.017,1.65-0.45L14.1,18.85V19C14.233,18.833,14.4,18.717,14.6,18.65z"/>
	<path style="fill-rule:evenodd;clip-rule:evenodd;fill:#BD5A2F;" d="M20.75,11.05l0.65-0.225c-0.428,0.157-0.562,0.349-0.4,0.575
		c0.333,0.333,0.483,0.583,0.45,0.75c-0.2,0.067-0.434,0.05-0.7-0.05s-0.467-0.15-0.6-0.15c-0.1,0-0.283,0.116-0.55,0.35
		c-0.233,0.167-0.434,0.217-0.6,0.15c0.233-0.2,0.35-0.417,0.35-0.65c-0.233-0.267-0.333-0.517-0.3-0.75
		c0.233-0.1,0.534-0.15,0.9-0.15S20.583,10.95,20.75,11.05z"/>
	<path style="fill-rule:evenodd;clip-rule:evenodd;fill:#BD5A2F;" d="M22.1,19.35c0.167-0.033,0.384-0.1,0.65-0.199
		c0.156-0.039,0.306-0.048,0.45-0.025c0.104,0.028,0.203,0.069,0.3,0.125c0.021,0.044,0.021,0.102,0,0.175
		c0.087,0.061,0.188,0.119,0.3,0.175c0.367,0.2,0.601,0.384,0.7,0.551L24.05,20.6l-0.7,0.351c-0.233,0.1-0.416,0.2-0.55,0.3
		c-0.133,0.2-0.25,0.333-0.35,0.4c-0.134,0.166-0.267,0.267-0.4,0.3c-0.5,0.133-0.666-0.15-0.5-0.851
		c0.2-0.767,0.117-1.199-0.25-1.3c-0.033-0.3,0.05-0.467,0.25-0.5C21.65,19.3,21.833,19.316,22.1,19.35z"/>
	<path style="fill-rule:evenodd;clip-rule:evenodd;fill:#BD5A2F;" d="M29.15,10.3c0.166,0,0.5,0.184,1,0.55
		c0.433,0.333,0.716,0.417,0.85,0.25l-0.05,0.25c0.166,0.133,0.45,0.183,0.85,0.15c-0.7,0.566-1.133,0.85-1.3,0.85
		c-0.1,0-0.25-0.1-0.45-0.3c-0.166-0.167-0.35-0.25-0.55-0.25c-0.366,0.1-0.616,0.15-0.75,0.15c-0.2,0-0.417-0.15-0.65-0.45
		c-0.5-0.733-0.716-1.184-0.649-1.35c0.2,0,0.45,0.133,0.75,0.4C28.533,10.65,28.85,10.566,29.15,10.3z"/>
	<path style="fill-rule:evenodd;clip-rule:evenodd;fill:#BD5A2F;" d="M22.05,13.85c0.125-0.311,0.425-0.361,0.9-0.15
		c0.03,0.015,0.063,0.032,0.1,0.05c-0.01,0.254-0.094,0.537-0.25,0.85C22.167,14.433,21.917,14.183,22.05,13.85z"/>
</g>
</svg>
