<?xml version="1.0" encoding="iso-8859-1"?>
<!-- Generator: Adobe Illustrator 15.1.0, SVG Export Plug-In . SVG Version: 6.00 Build 0)  -->
<!DOCTYPE svg PUBLIC "-//W3C//DTD SVG 1.1//EN" "http://www.w3.org/Graphics/SVG/1.1/DTD/svg11.dtd">
<svg version="1.1" id="flash0.ai" xmlns="http://www.w3.org/2000/svg" xmlns:xlink="http://www.w3.org/1999/xlink" x="0px" y="0px"
	 width="47.75px" height="40.9px" viewBox="0 0 47.75 40.9" style="enable-background:new 0 0 47.75 40.9;" xml:space="preserve">
<symbol  id="flash0.ai_x5F_4_x2F_Layer_16_x2F__x3C_Path_x3E__x5F_123" viewBox="-0.052 -8.1 18.352 8.11">
	<g id="Layer_1_23_">
		<path style="fill-rule:evenodd;clip-rule:evenodd;" d="M18.3-8.1c-2.8,0.3-5.633,0.617-8.5,0.95C4.033-6.517,1-6.217,0.7-6.25
			C-1-6.383,0.183-5.5,4.25-3.6c2,0.934,4.183,1.883,6.55,2.85L10.55-0.3l0.3,0.15C11.117-0.017,11.367,0.033,11.6,0
			c0.533-0.033,1.25-0.117,2.15-0.25c0.4-1.367,0.417-2.4,0.05-3.1c-0.367-0.733-0.25-1.2,0.35-1.4l0.95-0.3
			c0.7-0.233,1.267-0.534,1.7-0.9C17.5-6.483,18-7.2,18.3-8.1z"/>
	</g>
</symbol>
<symbol  id="flash0.ai_x5F_4_x2F_Layer_16_x2F__x3C_Path_x3E__x5F_126" viewBox="0 -10.7 11.15 10.7">
	<g id="Layer_1_22_">
		<path style="fill-rule:evenodd;clip-rule:evenodd;fill:#595959;" d="M11.15-10.7c-2.767,1.034-5.133,2.483-7.1,4.35
			C2.083-4.45,0.733-2.333,0,0l0.35-0.05L1-0.45C1.367-1.683,2.117-3.067,3.25-4.6C5.317-7.4,7.95-9.433,11.15-10.7z"/>
	</g>
</symbol>
<symbol  id="flash0.ai_x5F_4_x2F_Layer_16_x2F__x3C_Path_x3E__x5F_127" viewBox="0 -11.2 15 11.2">
	<g id="Layer_1_21_">
		<path style="fill-rule:evenodd;clip-rule:evenodd;fill:#595959;" d="M8.85-1.3C11.45-0.967,13.5-0.533,15,0
			c-0.267-0.8-0.683-1.633-1.25-2.5c-1.1-1.7-2.783-3.4-5.05-5.1C7-8.9,4.783-9.983,2.05-10.85L0-11.2
			c3.533,1.367,6.017,3.15,7.45,5.35C8.117-4.783,8.533-3.8,8.7-2.9C8.733-2.8,8.783-2.267,8.85-1.3z"/>
	</g>
</symbol>
<symbol  id="flash0.ai_x5F_4_x2F_Layer_16_x2F__x3C_Path_x3E__x5F_128" viewBox="0 -10.85 21.25 10.85">
	<g id="Layer_1_20_">
		
			<linearGradient id="SVGID_1_" gradientUnits="userSpaceOnUse" x1="-26.6553" y1="-35.2085" x2="-12.9302" y2="-35.2085" gradientTransform="matrix(1 -0.0036 0.0036 1 29.8208 29.7051)">
			<stop  offset="0" style="stop-color:#FFFFFF"/>
			<stop  offset="1" style="stop-color:#000000"/>
		</linearGradient>
		<path style="fill-rule:evenodd;clip-rule:evenodd;fill:url(#SVGID_1_);" d="M2.3-0.45c3.867-0.733,8.617-1.1,14.25-1.1l4.7,0.1
			l-2.8-9.3c-0.934-0.067-1.617-0.1-2.05-0.1c-0.833,0-1.65,0.05-2.45,0.15c-0.967,0.133-2.05,0.417-3.25,0.85
			c-1.267,0.434-2.317,0.934-3.15,1.5c-2.7,1.7-4.767,3.6-6.2,5.7C0.65-1.583,0.2-0.7,0,0L2.3-0.45z"/>
	</g>
</symbol>
<symbol  id="flash0.ai_x5F_4_x2F_Layer_16_x2F__x3C_Path_x3E__x5F_92" viewBox="-0.014 -1.313 0.524 1.278">
	<g id="Layer_1_30_">
		<path style="fill-rule:evenodd;clip-rule:evenodd;fill:#FFE9B3;" d="M0.1-0.05c0.233,0.066,0.367-0.1,0.4-0.5
			C0.533-0.95,0.483-1.2,0.35-1.3c-0.1-0.067-0.2,0.117-0.3,0.55C-0.05-0.317-0.033-0.083,0.1-0.05z"/>
	</g>
</symbol>
<symbol  id="flash0.ai_x5F_4_x2F_Layer_16_x2F__x3C_Path_x3E__x5F_94" viewBox="-0.006 -0.67 0.762 0.64">
	<g id="Layer_1_29_">
		<path style="fill-rule:evenodd;clip-rule:evenodd;fill:#FFE9B3;" d="M0.45-0.05c0.233-0.067,0.333-0.167,0.3-0.3
			c-0.033-0.167-0.167-0.267-0.4-0.3C0.083-0.717-0.033-0.617,0-0.35S0.183,0.017,0.45-0.05z"/>
	</g>
</symbol>
<symbol  id="flash0.ai_x5F_4_x2F_Layer_16_x2F__x3C_Path_x3E__x5F_95" viewBox="-0.004 -1.111 1.714 1.13">
	<g id="Layer_1_28_">
		<path style="fill-rule:evenodd;clip-rule:evenodd;fill:#FFE9B3;" d="M1.65-0.3C1.45-0.667,1.1-0.917,0.6-1.05
			C0.167-1.183-0.033-1.1,0-0.8c0.067,0.3,0.317,0.517,0.75,0.65C1.55,0.117,1.85,0.067,1.65-0.3z"/>
	</g>
</symbol>
<symbol  id="flash0.ai_x5F_4_x2F_Layer_16_x2F__x3C_Path_x3E__x5F_96" viewBox="0.008 -2.468 6.475 2.471">
	<g id="Layer_1_27_">
		<path style="fill-rule:evenodd;clip-rule:evenodd;fill:#FFE9B3;" d="M4.1,0c2.267-0.033,2.917-0.717,1.95-2.05
			c-0.2-0.3-0.6-0.4-1.2-0.3C3.95-2.25,3.433-2.2,3.3-2.2C2.567-2.333,2.033-2.417,1.7-2.45C1.033-2.517,0.533-2.4,0.2-2.1
			c-0.434,0.333-0.133,0.767,0.9,1.3C2.167-0.233,3.167,0.033,4.1,0z"/>
	</g>
</symbol>
<symbol  id="flash0.ai_x5F_4_x2F_Layer_16_x2F__x3C_Path_x3E__x5F_97" viewBox="0.001 -5.419 12.258 5.422">
	<g id="Layer_1_26_">
		<path style="fill-rule:evenodd;clip-rule:evenodd;fill:#E6B63C;" d="M11.65-3.25c0.533-0.6,0.717-0.917,0.55-0.95l-0.85-0.15
			c-0.2-0.2-0.5-0.25-0.9-0.15c-0.534,0.167-1,0.3-1.4,0.4c-0.5,0.133-1.1,0.017-1.8-0.35C6.483-4.917,5.9-5.217,5.5-5.35
			c-0.467-0.167-0.817-0.033-1.05,0.4c-0.367,0.633-0.65,1-0.85,1.1c-0.267,0.133-0.9,0.067-1.9-0.2
			C0.767-4.317,0.233-4.333,0.1-4.1c-0.3,0.533,0.083,1.2,1.15,2C1.817-1.667,2.633-1.217,3.7-0.75C4.9-0.217,5.75,0.033,6.25,0
			C7.883-0.033,9.1-0.4,9.9-1.1C10.367-1.5,10.95-2.217,11.65-3.25z"/>
	</g>
</symbol>
<symbol  id="flash0.ai_x5F_4_x2F_Layer_16_x2F__x3C_Path_x3E__x5F_98" viewBox="-0.006 -5.403 12.65 5.392">
	<g id="Layer_1_25_">
		<path style="fill-rule:evenodd;clip-rule:evenodd;fill:#E6B63C;" d="M10.4-0.95c0.267-0.3,0.633-0.8,1.1-1.5
			c0.433-0.566,0.767-1.167,1-1.8c0.233-0.667,0.183-1-0.15-1c-0.233,0-0.583,0.417-1.05,1.25c-0.5,0.933-0.917,1.467-1.25,1.6
			c-0.4,0.2-0.833,0.316-1.3,0.35c-0.533,0.033-0.933,0.066-1.2,0.1c-0.333,0.067-0.7-0.033-1.1-0.3C5.983-2.617,5.633-2.867,5.4-3
			C5.1-3.2,4.867-3.283,4.7-3.25L4.1-2.9C3.833-2.733,3.367-2.717,2.7-2.85C2.033-2.983,1.55-3.2,1.25-3.5
			C1.017-3.733,0.9-4.117,0.9-4.65C0.867-5.117,0.75-5.367,0.55-5.4C0.217-5.433,0.033-5.233,0-4.8c-0.033,0.4,0.083,0.85,0.35,1.35
			C1.083-1.983,2.1-1.067,3.4-0.7c1.867,0.567,3.583,0.784,5.15,0.65C9.317-0.15,9.933-0.45,10.4-0.95z"/>
	</g>
</symbol>
<symbol  id="flash0.ai_x5F_4_x2F_Layer_16_x2F__x3C_Path_x3E__x5F_99" viewBox="-0.02 -7.947 11.394 7.929">
	<g id="Layer_1_24_">
		<path style="fill-rule:evenodd;clip-rule:evenodd;fill:#E6B63C;" d="M5.5-0.45c1.267,0.367,2.5,0.5,3.7,0.4
			c1.033-0.133,1.716-0.35,2.05-0.65c0.4-0.367-0.167-0.55-1.7-0.55C8.783-1.217,8.183-1.2,7.75-1.2c-0.7-0.033-1.267-0.167-1.7-0.4
			C5.617-1.867,5.433-2.183,5.5-2.55C5.533-2.783,5.7-3.2,6-3.8c0.133-0.367,0.283-0.8,0.45-1.3c0.066-0.333-0.067-0.533-0.4-0.6
			c-0.3-0.033-0.566,0.267-0.8,0.9c-0.167,0.767-0.3,1.283-0.4,1.55c-0.133,0.367-0.5,0.583-1.1,0.65C3.117-2.567,2.633-2.7,2.3-3
			C1.967-3.3,1.683-3.783,1.45-4.45C1.183-5.183,1.1-5.767,1.2-6.2c0.033-0.066,0.183-0.35,0.45-0.85c0.1-0.2,0.033-0.45-0.2-0.75
			C1.183-8.133,0.867-7.9,0.5-7.1C0.233-6.5,0.067-5.917,0-5.35c-0.067,0.333,0.033,0.767,0.3,1.3c0.267,0.5,0.6,0.933,1,1.3
			c0.434,0.367,1.067,0.8,1.9,1.3C4.133-0.95,4.9-0.617,5.5-0.45z"/>
	</g>
</symbol>
<symbol  id="flash0.ai_x5F_7_x2F_Layer_13_x2F__x3C_Path_x3E__x5F_1" viewBox="0 -0.65 0.4 0.656">
	<g id="Layer_1_18_">
		<path style="fill-rule:evenodd;clip-rule:evenodd;fill:#FFE9B3;" d="M0.4-0.3c0-0.233-0.066-0.35-0.2-0.35S0-0.567,0-0.4
			C0-0.2,0.067-0.067,0.2,0C0.333,0.033,0.4-0.067,0.4-0.3z"/>
	</g>
</symbol>
<symbol  id="flash0.ai_x5F_7_x2F_Layer_13_x2F__x3C_Path_x3E__x5F_10" viewBox="-0.039 -0.625 0.967 0.655">
	<g id="Layer_1_9_">
		<path style="fill-rule:evenodd;clip-rule:evenodd;fill:#FFE9B3;" d="M0.7-0.05c0.267-0.2,0.3-0.367,0.1-0.5
			c-0.167-0.1-0.383-0.1-0.65,0c-0.233,0.1-0.25,0.233-0.05,0.4C0.3,0.05,0.5,0.083,0.7-0.05z"/>
	</g>
</symbol>
<symbol  id="flash0.ai_x5F_7_x2F_Layer_13_x2F__x3C_Path_x3E__x5F_11" viewBox="0 -2.483 6.457 2.439">
	<g id="Layer_1_8_">
		<path style="fill-rule:evenodd;clip-rule:evenodd;fill:#FFE9B3;" d="M5.35-0.95c0.7-0.466,1.066-0.867,1.1-1.2
			c0.033-0.2-0.067-0.283-0.3-0.25C5.783-2.367,5.533-2.383,5.4-2.45C5.2-2.517,5-2.483,4.8-2.35C4.467-2.05,4.217-1.867,4.05-1.8
			c-0.3,0.133-0.633,0.15-1,0.05C2.65-1.95,2.3-2.083,2-2.15C1.633-2.217,1.433-2.167,1.4-2c0,0.2-0.033,0.367-0.1,0.5
			c-0.066,0.1-0.35,0.1-0.85,0c-0.4-0.067-0.534-0.017-0.4,0.15c0.2,0.333,0.534,0.633,1,0.9c0.567,0.3,1.117,0.434,1.65,0.4
			C3.633-0.083,4.517-0.383,5.35-0.95z"/>
	</g>
</symbol>
<symbol  id="flash0.ai_x5F_7_x2F_Layer_13_x2F__x3C_Path_x3E__x5F_12" viewBox="0 -15.27 22.49 15.258">
	<g id="Layer_1_7_">
		<path style="fill-rule:evenodd;clip-rule:evenodd;fill:#E6B63C;" d="M20.8-10.75L21.95-12c0.6-0.667,0.7-1.067,0.3-1.2
			c-0.333-0.133-0.75,0.4-1.25,1.6c-0.1,0.267-0.267,0.45-0.5,0.55c-0.333,0.133-0.65,0.25-0.95,0.35
			c-0.333,0.1-0.566,0.017-0.7-0.25c-0.067-0.2-0.067-0.417,0-0.65c0.066-0.133,0.066-0.3,0-0.5c-0.067-0.2-0.184-0.316-0.35-0.35
			c-0.133-0.033-0.283,0.05-0.45,0.25c-0.167,0.167-0.25,0.35-0.25,0.55c0,0.167-0.1,0.35-0.3,0.55l-0.35,0.25
			c-0.1-0.066-0.2-0.15-0.3-0.25c-0.233-0.2-0.333-0.4-0.3-0.6c0.034-0.133,0.083-0.367,0.15-0.7c0.033-0.3-0.05-0.55-0.25-0.75
			c-0.233-0.2-0.483-0.2-0.75,0c-0.2,0.2-0.333,0.45-0.4,0.75c-0.066,0.3-0.133,0.517-0.2,0.65c-0.1,0.233-0.35,0.45-0.75,0.65
			c-0.4,0.2-0.867,0.167-1.4-0.1c-0.434-0.233-0.8-0.55-1.1-0.95c-0.333-0.467-0.65-1.117-0.95-1.95c-0.033-0.1-0.066-0.333-0.1-0.7
			c0-0.267-0.083-0.417-0.25-0.45c-0.233-0.067-0.367,0.033-0.4,0.3c-0.066,0.267,0,0.5,0.2,0.7c0.133,0.133,0.217,0.45,0.25,0.95
			c0.033,0.533,0.1,0.9,0.2,1.1c0.333,0.7,0.6,1.617,0.8,2.75c0.033,0.3,0.033,0.45,0,0.45c-0.1,0-0.167,0.033-0.2,0.1
			c-0.066,0.167-0.15,0.15-0.25-0.05c-0.1-0.233-0.117-0.483-0.05-0.75c0.167-0.633-0.067-0.95-0.7-0.95
			c-0.3,0-0.417,0.25-0.35,0.75c0.1,0.566,0.15,0.967,0.15,1.2c0,0.3-0.167,0.534-0.5,0.7c-0.267,0.133-0.6,0.183-1,0.15
			c-0.133,0-0.417-0.083-0.85-0.25c-0.267-0.1-0.5-0.05-0.7,0.15C7.017-7.817,6.9-7.633,6.8-7.4C6.7-7.2,6.533-7.033,6.3-6.9
			C5.8-6.667,5.05-6.833,4.05-7.4C3.85-7.533,3.567-7.917,3.2-8.55c-0.467-0.8-0.8-1.333-1-1.6c-0.233-0.333-0.55-0.783-0.95-1.35
			c-0.3-0.433-0.567-0.633-0.8-0.6C0.15-12.067,0-11.917,0-11.65s0.15,0.517,0.45,0.75c0.833,0.7,1.566,1.483,2.2,2.35
			c0.4,0.533,0.65,1.033,0.75,1.5c0.133,0.5,0.05,0.783-0.25,0.85C2.883-6.167,2.5-6.35,2-6.75C1.4-7.25,1.083-7.5,1.05-7.5
			c-0.333-0.1-0.033,0.467,0.9,1.7C2.35-5.367,2.8-4.983,3.3-4.65C3.833-4.283,4.617-4.133,5.65-4.2l1.1,1.45
			c0.167,0.167,0.45,0.5,0.85,1c0.467,0.467,1.133,0.867,2,1.2c1.6,0.7,3.117,0.716,4.55,0.05c0.6-0.233,1.017-0.45,1.25-0.65
			c0.233-0.167,0.434-0.434,0.6-0.8c0.167-0.333,0.233-0.55,0.2-0.65c-0.034-0.1-0.184-0.183-0.45-0.25
			c-0.167-0.033-0.3,0.133-0.4,0.5c-0.133,0.434-0.233,0.667-0.3,0.7c-0.1,0.066-0.167,0-0.2-0.2c-0.033-0.167,0-0.367,0.1-0.6
			c0.433-1.066,0.517-1.8,0.25-2.2c-0.133-0.233-0.267-0.25-0.4-0.05c-0.1,0.2-0.15,0.534-0.15,1c-0.033,0.467-0.133,0.917-0.3,1.35
			c-0.133,0.434-0.283,0.684-0.45,0.75c-0.4,0.167-0.867,0.067-1.4-0.3c-0.2-0.1-0.267-0.217-0.2-0.35
			c0.034-0.1,0.117-0.267,0.25-0.5c0.233-0.633,0.133-0.933-0.3-0.9c-0.267,0.033-0.4,0.15-0.4,0.35c0.033,0.2,0.05,0.35,0.05,0.45
			c0,0.133-0.117,0.217-0.35,0.25c-0.267,0.067-0.483,0.05-0.65-0.05c-0.267-0.2-0.233-0.6,0.1-1.2c0.433-0.767,0.433-1.233,0-1.4
			c-0.367-0.133-0.55,0.217-0.55,1.05c0,0.3-0.217,0.517-0.65,0.65c-0.433,0.1-0.767,0.066-1-0.1L7.75-4.6L8.2-4.75
			c1.1-0.433,2.1-1.083,3-1.95c0.6-0.6,0.85-1.483,0.75-2.65l2.55,0.1c2.433,0.067,3.883,0.017,4.35-0.15
			C19.45-9.6,20.1-10.05,20.8-10.75z"/>
	</g>
</symbol>
<symbol  id="flash0.ai_x5F_7_x2F_Layer_13_x2F__x3C_Path_x3E__x5F_2" viewBox="-0.023 -0.6 0.489 0.622">
	<g id="Layer_1_17_">
		<path style="fill-rule:evenodd;clip-rule:evenodd;fill:#FFE9B3;" d="M0.2-0.1c0.267-0.2,0.333-0.35,0.2-0.45
			C0.233-0.65,0.117-0.6,0.05-0.4C-0.083,0.033-0.033,0.133,0.2-0.1z"/>
	</g>
</symbol>
<symbol  id="flash0.ai_x5F_7_x2F_Layer_13_x2F__x3C_Path_x3E__x5F_24" viewBox="0 -4.75 3.5 4.75">
	<g id="Layer_1_6_">
		<path style="fill-rule:evenodd;clip-rule:evenodd;fill:#3D1606;" d="M0-2.3l1.85,1.45C2.183-0.55,2.733-0.267,3.5,0
			C3.467-0.3,3.367-0.683,3.2-1.15C3.067-1.55,2.817-2.1,2.45-2.8C2.083-3.6,1.833-4.05,1.7-4.15l-1.1-0.6L0-2.3z"/>
	</g>
</symbol>
<symbol  id="flash0.ai_x5F_7_x2F_Layer_13_x2F__x3C_Path_x3E__x5F_3" viewBox="-0.017 -0.606 0.342 0.645">
	<g id="Layer_1_16_">
		<path style="fill-rule:evenodd;clip-rule:evenodd;fill:#FFE9B3;" d="M0.25-0.1c0.1-0.2,0.1-0.35,0-0.45
			C0.117-0.65,0.033-0.617,0-0.45c-0.033,0.133-0.017,0.267,0.05,0.4C0.083,0.083,0.15,0.067,0.25-0.1z"/>
	</g>
</symbol>
<symbol  id="flash0.ai_x5F_7_x2F_Layer_13_x2F__x3C_Path_x3E__x5F_4" viewBox="-0.012 -1.067 0.722 1.077">
	<g id="Layer_1_15_">
		<path style="fill-rule:evenodd;clip-rule:evenodd;fill:#FFE9B3;" d="M0.3-0.1c0.2-0.167,0.333-0.35,0.4-0.55
			C0.733-0.817,0.683-0.933,0.55-1c-0.1-0.067-0.2-0.083-0.3-0.05c-0.133,0.066-0.2,0.167-0.2,0.3C-0.083-0.05,0,0.167,0.3-0.1z"/>
	</g>
</symbol>
<symbol  id="flash0.ai_x5F_7_x2F_Layer_13_x2F__x3C_Path_x3E__x5F_44" viewBox="-0.008 -9.5 21.018 9.51">
	<g id="Layer_1_5_">
		<path style="fill-rule:evenodd;clip-rule:evenodd;" d="M17.15-5.55l1-0.3c0.767-0.267,1.4-0.6,1.9-1c0.8-0.667,1.1-1.55,0.9-2.65
			c-3.2,0.367-6.45,0.733-9.75,1.1C4.667-7.667,1.217-7.317,0.85-7.35c-1.934-0.133-0.6,0.9,4,3.1c2.3,1.1,4.8,2.217,7.5,3.35
			l-0.3,0.55l0.4,0.2c0.3,0.133,0.583,0.183,0.85,0.15c0.6-0.033,1.417-0.133,2.45-0.3L17.15-5.55z"/>
	</g>
</symbol>
<symbol  id="flash0.ai_x5F_7_x2F_Layer_13_x2F__x3C_Path_x3E__x5F_47" viewBox="0 -12.55 12.75 12.55">
	<g id="Layer_1_4_">
		<path style="fill-rule:evenodd;clip-rule:evenodd;fill:#595959;" d="M12.75-12.55c-3.2,1.2-5.917,2.9-8.15,5.1
			C2.333-5.25,0.8-2.767,0,0l0.35-0.05l0.75-0.5C1.7-2.217,2.567-3.833,3.7-5.4C6.033-8.667,9.05-11.05,12.75-12.55z"/>
	</g>
</symbol>
<symbol  id="flash0.ai_x5F_7_x2F_Layer_13_x2F__x3C_Path_x3E__x5F_48" viewBox="0 -13.1 17.2 13.1">
	<g id="Layer_1_3_">
		<path style="fill-rule:evenodd;clip-rule:evenodd;fill:#595959;" d="M10.15-1.55C13.417-1.083,15.767-0.567,17.2,0
			c-0.3-0.933-0.784-1.917-1.45-2.95c-1.267-1.966-3.2-3.966-5.8-6c-2.067-1.6-4.6-2.85-7.6-3.75L0-13.1
			c3.967,1.434,6.8,3.517,8.5,6.25c0.767,1.233,1.25,2.367,1.45,3.4C10.083-2.883,10.15-2.25,10.15-1.55z"/>
	</g>
</symbol>
<symbol  id="flash0.ai_x5F_7_x2F_Layer_13_x2F__x3C_Path_x3E__x5F_49" viewBox="0 -12.7 24.3 12.7">
	<g id="Layer_1_2_">
		
			<linearGradient id="SVGID_2_" gradientUnits="userSpaceOnUse" x1="-22.4609" y1="-32.3779" x2="-6.7609" y2="-32.3779" gradientTransform="matrix(1 -0.0032 0.0032 1 26.0635 25.9746)">
			<stop  offset="0" style="stop-color:#FFFFFF"/>
			<stop  offset="1" style="stop-color:#000000"/>
		</linearGradient>
		<path style="fill-rule:evenodd;clip-rule:evenodd;fill:url(#SVGID_2_);" d="M24.3-1.7l-3.2-10.9l-2.35-0.1
			c-0.9,0-1.833,0.05-2.8,0.15c-1.1,0.2-2.333,0.533-3.7,1c-1.433,0.533-2.633,1.117-3.6,1.75c-3.066,2-5.433,4.233-7.1,6.7
			C0.717-1.867,0.2-0.833,0,0l2.65-0.55c4.567-0.867,10-1.3,16.3-1.3C20.817-1.85,22.6-1.8,24.3-1.7z"/>
	</g>
</symbol>
<symbol  id="flash0.ai_x5F_7_x2F_Layer_13_x2F__x3C_Path_x3E__x5F_5" viewBox="-0.014 -1.456 6.821 1.431">
	<g id="Layer_1_14_">
		<path style="fill-rule:evenodd;clip-rule:evenodd;fill:#FFE9B3;" d="M2.5-0.1C4.9,0,6.267,0,6.6-0.1
			c0.533-0.1,0.033-0.183-1.5-0.25c-0.367-0.133-0.65-0.233-0.85-0.3c-0.367-0.133-0.767-0.167-1.2-0.1
			c-0.4,0.067-0.9-0.05-1.5-0.35c-0.6-0.267-1.033-0.383-1.3-0.35c-0.433,0.1-0.333,0.35,0.3,0.75C1.15-0.333,1.8-0.133,2.5-0.1z"/>
	</g>
</symbol>
<symbol  id="flash0.ai_x5F_7_x2F_Layer_13_x2F__x3C_Path_x3E__x5F_6" viewBox="-0.045 -1.164 1.641 1.18">
	<g id="Layer_1_13_">
		<path style="fill-rule:evenodd;clip-rule:evenodd;fill:#FFE9B3;" d="M1.15,0c0.467-0.067,0.567-0.283,0.3-0.65
			c-0.233-0.4-0.583-0.567-1.05-0.5c-0.467,0.066-0.566,0.3-0.3,0.7C0.367-0.083,0.717,0.067,1.15,0z"/>
	</g>
</symbol>
<symbol  id="flash0.ai_x5F_7_x2F_Layer_13_x2F__x3C_Path_x3E__x5F_7" viewBox="0.01 -0.675 0.465 0.675">
	<g id="Layer_1_12_">
		<path style="fill-rule:evenodd;clip-rule:evenodd;fill:#FFE9B3;" d="M0.4-0.05c0.1-0.067,0.1-0.2,0-0.4
			c-0.133-0.2-0.25-0.267-0.35-0.2C-0.017-0.583,0-0.433,0.1-0.2C0.2,0,0.3,0.05,0.4-0.05z"/>
	</g>
</symbol>
<symbol  id="flash0.ai_x5F_7_x2F_Layer_13_x2F__x3C_Path_x3E__x5F_8" viewBox="-0.005 -2.18 3.184 2.182">
	<g id="Layer_1_11_">
		<path style="fill-rule:evenodd;clip-rule:evenodd;fill:#FFE9B3;" d="M3.05-0.4c0.2-0.367,0.167-0.684-0.1-0.95
			C2.817-1.517,2.6-1.6,2.3-1.6c-0.433,0-0.75-0.017-0.95-0.05C1.217-1.683,0.9-1.833,0.4-2.1C0.1-2.233-0.033-2.2,0-2
			c0.033,0.3,0.217,0.617,0.55,0.95c0.333,0.4,0.75,0.7,1.25,0.9C2.4,0.117,2.817,0.033,3.05-0.4z"/>
	</g>
</symbol>
<symbol  id="flash0.ai_x5F_7_x2F_Layer_13_x2F__x3C_Path_x3E__x5F_9" viewBox="-0.039 -0.85 0.991 0.85">
	<g id="Layer_1_10_">
		<path style="fill-rule:evenodd;clip-rule:evenodd;fill:#FFE9B3;" d="M0.55,0C0.983,0,1.067-0.15,0.8-0.45
			c-0.233-0.267-0.466-0.4-0.7-0.4c-0.167,0-0.184,0.133-0.05,0.4C0.217-0.15,0.383,0,0.55,0z"/>
	</g>
</symbol>
<symbol  id="halfbowl" viewBox="-0.062 -28.179 47.024 29">
	<g>
		<defs>
			<path id="SVGID_3_" d="M46.65-9.75c-0.7,1.367-1.583,2.467-2.65,3.3c-1.233,1.067-2.667,1.8-4.3,2.2C39-4.05,38.3-3.9,37.6-3.8
				c-0.532,0.521-1.349,0.946-2.45,1.275c-1.1,0.328-1.691,0.553-1.775,0.675C33.29-1.733,31.831-1.166,29-0.15
				c-1.982,1.521-4.882,1.254-8.7-0.8c-0.631-0.38-1.531-0.68-2.7-0.9c-1.168-0.223-2.31-0.506-3.425-0.85
				c-1.116-0.336-2.391-0.687-3.825-1.05C9.117-4.017,7.867-4.367,6.6-4.8C5.467-5.2,4.417-5.75,3.45-6.45
				c-1.167-0.733-2.133-1.6-2.9-2.6c-0.466-0.633-0.667-1.383-0.6-2.25c0.033-0.767,0.216-1.583,0.55-2.45
				c0.533-1.333,1.217-2.6,2.05-3.8c0.934-1.3,2-2.5,3.2-3.6C6.883-22.217,8.2-23.1,9.7-23.8c0.466-0.233,1.183-0.35,2.15-0.35
				c0.933,0,1.683-0.217,2.25-0.65c0.566-0.434,1.267-0.75,2.1-0.95c0.833-0.2,1.883-0.15,3.15,0.15c1.267,0.3,2.233,0.25,2.9-0.15
				c0.633-0.367,1.083-0.583,1.35-0.65c0.267-0.067,0.633-0.1,1.1-0.1c0.466,0.033,0.917,0.2,1.35,0.5c0.434,0.3,1,0.317,1.7,0.05
				c0.7-0.233,2.083,0.05,4.15,0.85c2.033,0.8,3.434,1.2,4.2,1.2s1.767,0.45,3,1.35c1.2,0.933,2.316,1.95,3.35,3.05
				c1,1.1,1.9,2.283,2.7,3.55c0.867,1.333,1.45,2.8,1.75,4.4C47.033-10.95,46.95-10.35,46.65-9.75z"/>
		</defs>
		<clipPath id="SVGID_4_">
			<use xlink:href="#SVGID_3_"  style="overflow:visible;"/>
		</clipPath>
		<g id="Layer_1_19_" style="clip-path:url(#SVGID_4_);">
			<g>
				<path style="fill-rule:evenodd;clip-rule:evenodd;fill:#D9D9D9;" d="M46.05-13.2h0.15c-1.267-4.133-4-7.517-8.2-10.15
					c-4.3-2.7-9.2-4.05-14.7-4.05c-5.533,0-10.45,1.367-14.75,4.1c-4.267,2.7-7,6.133-8.2,10.3l0.35-0.05
					c1.333-1,4.083-1.833,8.25-2.5c4.267-0.667,9.117-1,14.55-1c5.3,0,10.033,0.316,14.2,0.95C41.833-15,44.617-14.2,46.05-13.2z"/>
				
					<use xlink:href="#flash0.ai_x5F_7_x2F_Layer_13_x2F__x3C_Path_x3E__x5F_49"  width="24.3" height="12.7" y="-12.7" transform="matrix(1 0 0 1 4.5498 -14.7002)" style="overflow:visible;opacity:0.7188;enable-background:new    ;"/>
				
					<use xlink:href="#flash0.ai_x5F_7_x2F_Layer_13_x2F__x3C_Path_x3E__x5F_48"  width="17.2" height="13.1" y="-13.1" transform="matrix(1 0 0 1 27.0498 -14.0498)" style="overflow:visible;opacity:0.1602;enable-background:new    ;"/>
				
					<use xlink:href="#flash0.ai_x5F_7_x2F_Layer_13_x2F__x3C_Path_x3E__x5F_47"  width="12.75" height="12.55" y="-12.55" transform="matrix(1 0 0 1 0.3501 -13)" style="overflow:visible;opacity:0.3203;enable-background:new    ;"/>
				<linearGradient id="SVGID_5_" gradientUnits="userSpaceOnUse" x1="0.7998" y1="-11.2002" x2="46.0498" y2="-11.2002">
					<stop  offset="0" style="stop-color:#7D7D7D"/>
					<stop  offset="1" style="stop-color:#D4D4D4"/>
				</linearGradient>
				<path style="fill-rule:evenodd;clip-rule:evenodd;fill:url(#SVGID_5_);" d="M39.4-5.2c4.434-1.667,6.65-3.667,6.65-6
					c0-2.367-2.216-4.367-6.65-6c-4.4-1.667-9.733-2.5-16-2.5c-6.233,0-11.566,0.833-16,2.5c-4.4,1.633-6.6,3.633-6.6,6
					c0,2.333,2.2,4.333,6.6,6c4.434,1.667,9.767,2.5,16,2.5C29.667-2.7,35-3.533,39.4-5.2z"/>
				<path style="fill-rule:evenodd;clip-rule:evenodd;fill:#F5F5F5;" d="M46.7-10.55h-1.5c-0.3,2.066-2.534,3.816-6.7,5.25
					c-4.2,1.433-9.2,2.15-15,2.15c-5.767,0-10.75-0.717-14.95-2.15C4.35-6.733,2.1-8.483,1.8-10.55H0.1
					C0.633-8.317,3.117-6.433,7.55-4.9c4.467,1.533,9.75,2.3,15.85,2.3s11.383-0.767,15.85-2.3
					C43.683-6.433,46.167-8.317,46.7-10.55z"/>
				
					<use xlink:href="#flash0.ai_x5F_7_x2F_Layer_13_x2F__x3C_Path_x3E__x5F_44"  width="21.018" height="9.51" x="-0.008" y="-9.5" transform="matrix(1 0 0 1 16.5498 -3.6001)" style="overflow:visible;opacity:0.25;enable-background:new    ;"/>
				<linearGradient id="SVGID_6_" gradientUnits="userSpaceOnUse" x1="4.4824" y1="-14.9941" x2="42.2574" y2="-14.9941">
					<stop  offset="0" style="stop-color:#9C5227"/>
					<stop  offset="1" style="stop-color:#80411C"/>
				</linearGradient>
				<path style="fill-rule:evenodd;clip-rule:evenodd;fill:url(#SVGID_6_);" d="M41.75-16.2c-0.533-0.367-1.667-0.783-3.4-1.25
					c-2.733-0.7-6.25-1.233-10.55-1.6c-5.8-0.5-10.583-0.35-14.35,0.45c-1.6,0.367-3.233,0.833-4.9,1.4c-2,0.7-3.233,1.284-3.7,1.75
					c-0.434,0.5-0.483,0.833-0.15,1c0.066,0.034,0.883,0.217,2.45,0.55c1.5,0.333,3.184,1.033,5.05,2.1
					c0.533,0.3,1.316,0.417,2.35,0.35c1.534-0.133,2.784-0.133,3.75,0c1.934,0.267,3.417,0.417,4.45,0.45
					c1.533,0.1,3.267,0.067,5.2-0.1c0.933-0.066,1.617-0.017,2.05,0.15c0.467,0.2,0.917,0.3,1.35,0.3
					c0.9-0.067,2.117-0.383,3.65-0.95c1.667-0.667,2.617-1.267,2.85-1.8c0.133-0.333,0.75-0.533,1.85-0.6
					c1.133-0.067,1.917-0.4,2.35-1C42.35-15.433,42.25-15.833,41.75-16.2z"/>
				<path style="fill-rule:evenodd;clip-rule:evenodd;fill:#AE694C;" d="M8.95-13.95l1.4-1.45c1.033-0.9,1.733-1.483,2.1-1.75
					c0.667-0.434,1.3-0.767,1.9-1c-1.533,0.5-2.583,0.917-3.15,1.25c-0.5,0.3-1.083,0.783-1.75,1.45c-0.367,0.267-0.6,0.467-0.7,0.6
					C8.617-14.617,8.683-14.317,8.95-13.95z"/>
				<path style="fill-rule:evenodd;clip-rule:evenodd;fill:#AE694C;" d="M7.95-15.7c-0.534,0.233-0.75,0.45-0.65,0.65
					c0.133,0.4,0.25,0.617,0.35,0.65l0.7,0.2L8.1-14.5c-0.067-0.3,0.183-0.683,0.75-1.15c0.867-0.733,1.517-1.25,1.95-1.55
					L7.95-15.7z"/>
				<path style="fill-rule:evenodd;clip-rule:evenodd;fill:#AE694C;" d="M6.45-14.7c0.4,0,0.583-0.066,0.55-0.2
					c0-0.1-0.117-0.217-0.35-0.35c-0.233-0.167-0.483-0.217-0.75-0.15c-0.233,0.066-0.267,0.2-0.1,0.4
					C5.967-14.8,6.183-14.7,6.45-14.7z"/>
				<path style="fill-rule:evenodd;clip-rule:evenodd;fill:#AE694C;" d="M7.15-15.65c0.3,0.1,0.467,0.033,0.5-0.2
					s-0.066-0.35-0.3-0.35c-0.2,0-0.333,0.083-0.4,0.25C6.917-15.817,6.983-15.717,7.15-15.65z"/>
				<path style="fill-rule:evenodd;clip-rule:evenodd;fill:#AE694C;" d="M24.65-17.45l0.3-0.2c0.333-0.133,0.767-0.233,1.3-0.3
					c0.867-0.133,1.717-0.1,2.55,0.1c-1.066-0.467-2.05-0.7-2.95-0.7c-1.333,0-2.033,0.2-2.1,0.6c-0.033,0.2,0.1,0.35,0.4,0.45
					C24.317-17.467,24.483-17.45,24.65-17.45z"/>
				<path style="fill-rule:evenodd;clip-rule:evenodd;fill:#693517;" d="M37.95-14.7c0.267-0.167,0.816-0.2,1.65-0.1
					c0-0.1-0.083-0.25-0.25-0.45c-0.7-0.7-1.8-1.267-3.3-1.7c-0.8-0.267-1.783-0.4-2.95-0.4l-1.5,0.05l4.2,1
					C36.367-16.133,37.083-15.6,37.95-14.7z"/>
				<path style="fill-rule:evenodd;clip-rule:evenodd;fill:#693517;" d="M21.85-17c0.6,0.133,0.95,0.1,1.05-0.1
					c0.033-0.1,0.017-0.217-0.05-0.35c-0.5-0.466-1.383-0.716-2.65-0.75h-2.55l2.1,0.5C20.517-17.567,21.217-17.333,21.85-17z"/>
				<path style="fill-rule:evenodd;clip-rule:evenodd;fill:#693517;" d="M23.05-18.1c0.733-0.1,0.867-0.217,0.4-0.35
					c-0.434-0.167-0.867-0.2-1.3-0.1c-0.333,0.033-0.4,0.117-0.2,0.25c0.233,0.1,0.55,0.167,0.95,0.2H23.05z"/>
				<path style="fill-rule:evenodd;clip-rule:evenodd;fill:#693517;" d="M28.8-17.85c-2.267,0.333-3.617,0.517-4.05,0.55
					c-1.133,0.233-1.95,0.316-2.45,0.25c-0.2-0.034-0.533-0.133-1-0.3c-0.566-0.2-1.216-0.367-1.95-0.5
					c-0.833-0.133-1.617-0.2-2.35-0.2l-0.9,0.1c0.433,0.567,0.9,1.167,1.4,1.8c1,1.267,1.733,2.017,2.2,2.25
					c1.5,0.8,3.45,1.033,5.85,0.7c1.267-0.2,3.267-0.466,6-0.8c2.733-0.3,4.317-0.45,4.75-0.45c1.034,0,1.65-0.15,1.85-0.45
					c0.133-0.167-0.05-0.45-0.55-0.85c-0.633-0.4-1.434-0.717-2.4-0.95C31.7-17.533,29.567-17.917,28.8-17.85z"/>
				<path style="fill-rule:evenodd;clip-rule:evenodd;fill:#9E7957;" d="M31.05-10.55c-0.2-0.767-1.533-1.184-4-1.25l-0.675,2.025
					L25.65-0.9l1.6,0.55c0.2-0.033,0.567-0.15,1.1-0.35c0.566-0.2,0.983-0.55,1.25-1.05c0.167-0.233,0.433-0.883,0.8-1.95
					c0.3-0.833,0.533-2.05,0.7-3.65C31.233-8.95,31.217-10.017,31.05-10.55z M26.375-9.775L26.5-11.45L25.8-8.1L26.375-9.775z"/>
				<path style="fill-rule:evenodd;clip-rule:evenodd;fill:#D6AF8B;" d="M22.05-11.25L19.6-5.8c0.233,0.667,0.483,1.417,0.75,2.25
					c0.267,0.533,0.733,1.1,1.4,1.7c0.767,0.667,1.7,1.167,2.8,1.5c1.133,0.3,2.067,0.3,2.8,0c0.667-0.267,1.2-1.117,1.6-2.55
					c0.233-0.8,0.5-2,0.8-3.6c0.433-1.933,0.417-3.4-0.05-4.4c-0.3-0.567-1.417-0.917-3.35-1.05
					C24.35-12.117,22.917-11.883,22.05-11.25z"/>
				<path style="fill-rule:evenodd;clip-rule:evenodd;fill:#804522;" d="M21.95-2.4c0.7,0.633,1.517,1.1,2.45,1.4
					c0.967,0.333,1.767,0.35,2.4,0.05c0.567-0.267,1.034-1.066,1.4-2.4c0.2-0.767,0.417-1.917,0.65-3.45
					c0.4-1.833,0.383-3.217-0.05-4.15c-0.233-0.533-1.183-0.867-2.85-1c-1.733-0.133-2.967,0.1-3.7,0.7l-2.1,5.15
					c0.4,1.333,0.6,2.033,0.6,2.1C20.983-3.5,21.383-2.967,21.95-2.4z"/>
				<path style="fill-rule:evenodd;clip-rule:evenodd;fill:#914E27;" d="M25.4-1.6c0.733,0.033,1.25-0.25,1.55-0.85
					c0.2-0.367,0.4-1.017,0.6-1.95c0.333-0.867,0.6-2.333,0.8-4.4l-1.4,0.15l-0.25,1.3c-0.233,0.633-0.717,1.25-1.45,1.85
					c-0.467,0.367-1.15,0.75-2.05,1.15L22.05-3.9l0.55,0.85c0.333,0.533,0.633,0.867,0.9,1C23.9-1.783,24.533-1.633,25.4-1.6z"/>
				<path style="fill-rule:evenodd;clip-rule:evenodd;fill:#A86237;" d="M25-2.3c0.5,0.066,0.917-0.034,1.25-0.3
					c0.3-0.2,0.433-0.417,0.4-0.65c-0.033-0.133-0.15-0.267-0.35-0.4c-0.2-0.167-0.367-0.3-0.5-0.4c-0.333-0.2-1-0.034-2,0.5
					c-0.3,0.167-0.267,0.4,0.1,0.7C24.233-2.55,24.6-2.367,25-2.3z"/>
				<path style="fill-rule:evenodd;clip-rule:evenodd;fill:#A86237;" d="M26.7-4.75c0.233-0.2,0.333-0.467,0.3-0.8
					c-0.033-0.333-0.217-0.367-0.55-0.1c-0.367,0.267-0.483,0.533-0.35,0.8S26.433-4.55,26.7-4.75z"/>
				<path style="fill-rule:evenodd;clip-rule:evenodd;fill:#947151;" d="M27.35-11.45c0.967-3.4,1.2-5.333,0.7-5.8
					c-0.533-0.467-1.466-0.517-2.8-0.15c-0.2-0.067-0.567,0.367-1.1,1.3c-0.333,0.567-0.583,1.333-0.75,2.3l-0.15,1.25l2.15,2.15
					L27.35-11.45z"/>
				<path style="fill-rule:evenodd;clip-rule:evenodd;fill:#C7A381;" d="M33.55-9.95c1.7-1.167,2.75-2.117,3.15-2.85
					c0.367-0.733,0.583-1.25,0.65-1.55c-0.067-0.2-0.317-0.417-0.75-0.65c-0.833-0.533-2.117-1-3.85-1.4l-5.35-1.15
					c-1.066,0.7-1.85,1.633-2.35,2.8c-0.367,0.933-0.583,1.533-0.65,1.8c-0.1,0.6-0.017,1.184,0.25,1.75
					c0.267,0.6,0.783,1.017,1.55,1.25c0.5,0.167,1.417,0.333,2.75,0.5c1.233,0.1,2.133,0.133,2.7,0.1
					C32.383-9.417,33.017-9.617,33.55-9.95z"/>
				<path style="fill-rule:evenodd;clip-rule:evenodd;fill:#753F1F;" d="M33.7-10.3c1.6-1.267,2.533-2.184,2.8-2.75
					c0.333-0.7,0.517-1.2,0.55-1.5c-0.066-0.167-0.283-0.383-0.65-0.65c-0.767-0.5-1.933-0.933-3.5-1.3l-4.85-1
					c-1,0.7-1.7,1.617-2.1,2.75c-0.333,0.9-0.517,1.483-0.55,1.75c-0.1,0.533-0.033,1.083,0.2,1.65
					c0.233,0.567,0.717,0.967,1.45,1.2c0.434,0.133,1.267,0.267,2.5,0.4c1.1,0.1,1.917,0.133,2.45,0.1
					C32.633-9.717,33.2-9.933,33.7-10.3z"/>
				
					<use xlink:href="#flash0.ai_x5F_7_x2F_Layer_13_x2F__x3C_Path_x3E__x5F_24"  width="3.5" height="4.75" y="-4.75" transform="matrix(1 0 0 1 19.6001 -10.25)" style="overflow:visible;opacity:0.4102;enable-background:new    ;"/>
				<path style="fill-rule:evenodd;clip-rule:evenodd;fill:#854724;" d="M31.75-10.05c0.433,0.033,0.8,0.017,1.1-0.05
					c0.4-0.1,0.917-0.5,1.55-1.2c0.667-0.733,1.067-1.367,1.2-1.9c0.1-0.5-0.1-0.767-0.6-0.8c-0.7,0-1.25-0.017-1.65-0.05
					c-0.367-0.034-1.2-0.167-2.5-0.4c-1.367-0.233-2.3-0.367-2.8-0.4c-0.667-0.033-1.133,0.367-1.4,1.2
					c-0.2,0.6-0.267,1.316-0.2,2.15c0.066,0.933,1.35,1.4,3.85,1.4C30.467-10.1,30.95-10.083,31.75-10.05z"/>
				<path style="fill-rule:evenodd;clip-rule:evenodd;fill:#9C5B33;" d="M32.5-10.4c0.4,0,0.667-0.167,0.8-0.5
					c0.133-0.333,0.133-0.6,0-0.8c-0.066-0.167-0.25-0.167-0.55,0c-0.067,0.034-0.4,0.233-1,0.6c-0.367,0.233-0.433,0.417-0.2,0.55
					C31.75-10.45,32.067-10.4,32.5-10.4z"/>
				<path style="fill-rule:evenodd;clip-rule:evenodd;fill:#9C5B33;" d="M28.05-10.75c0.967,0,1.217-0.217,0.75-0.65
					c-0.5-0.434-0.966-0.633-1.4-0.6c-0.267,0.067-0.316,0.283-0.15,0.65C27.45-10.95,27.717-10.75,28.05-10.75z"/>
				<path style="fill-rule:evenodd;clip-rule:evenodd;fill:#9C5B33;" d="M27.5-12.45c0.533,0,0.75-0.267,0.65-0.8
					s-0.3-0.783-0.6-0.75c-0.233,0.033-0.367,0.3-0.4,0.8C27.083-12.7,27.2-12.45,27.5-12.45z"/>
				<path style="fill-rule:evenodd;clip-rule:evenodd;fill:#9E7957;" d="M22.75-5.15c1.2-0.467,2.083-1.167,2.65-2.1
					c0.4-0.6,0.417-1.567,0.05-2.9c-0.367-1.4-0.784-2.417-1.25-3.05c-0.5-0.7-1.15-1.483-1.95-2.35
					c-0.3-0.333-0.783-0.767-1.45-1.3l-1.4-0.4c-1.767-0.5-2.833-0.717-3.2-0.65l-1.35,1.25l3.2,9.25l1,1.55
					c0.7,1.033,1.117,1.55,1.25,1.55C20.567-4.3,21.383-4.583,22.75-5.15z"/>
				<path style="fill-rule:evenodd;clip-rule:evenodd;fill:#D6AF8B;" d="M21.6-4.7c0.267-0.167,0.783-0.533,1.55-1.1
					c0.533-0.434,0.9-0.85,1.1-1.25c0.233-0.4,0.333-0.934,0.3-1.6c-0.033-0.7-0.25-1.5-0.65-2.4c-0.4-0.967-0.9-1.75-1.5-2.35
					c-0.833-0.867-1.45-1.483-1.85-1.85c-0.667-0.633-1.367-1.167-2.1-1.6c-1.133-0.7-1.817-1.033-2.05-1l-0.2-0.05l-0.8-0.05
					c-1.133,0.467-1.983,0.867-2.55,1.2c-0.6,0.533-1.25,1.017-1.95,1.45c-0.733,0.433-1.217,0.867-1.45,1.3L9.3-13.5
					c0.7,0.8,1.4,1.5,2.1,2.1c0.533,0.467,1.233,1.167,2.1,2.1c0.467,0.433,1.317,1.55,2.55,3.35c0.367,0.5,0.867,0.917,1.5,1.25
					c0.7,0.367,1.4,0.534,2.1,0.5C20.317-4.2,20.967-4.367,21.6-4.7z"/>
				<path style="fill-rule:evenodd;clip-rule:evenodd;fill:#804522;" d="M21.05-13.95c-0.966-1.033-1.767-1.733-2.4-2.1
					c-0.9-0.567-1.983-1.2-3.25-1.9c-1.066,0-2.333,0.6-3.8,1.8c-0.067,0.2-0.417,0.517-1.05,0.95c-0.367,0.233-0.667,0.5-0.9,0.8
					L9.4-14c1.9,1.567,3.467,3.1,4.7,4.6c0.633,0.733,1.367,1.7,2.2,2.9c0.667,0.9,1.383,1.467,2.15,1.7
					c0.833,0.3,1.65,0.267,2.45-0.1c0.5-0.233,1.25-0.767,2.25-1.6C23.85-7.133,24.133-8,24-9.1c-0.133-0.8-0.45-1.617-0.95-2.45
					C22.617-12.217,21.95-13.017,21.05-13.95z"/>
				<path style="fill-rule:evenodd;clip-rule:evenodd;fill:#914E27;" d="M22.55-7.25c0.333-0.7,0.284-1.633-0.15-2.8
					c-0.5-1.434-2.383-2.817-5.65-4.15c-0.7-0.3-1.55-0.4-2.55-0.3c-0.767,0.1-1.45,0.267-2.05,0.5c-0.433,0.167-0.517,0.5-0.25,1
					c0.167,0.333,0.55,0.867,1.15,1.6c1.633,1.967,2.733,3.417,3.3,4.35c0.467,0.7,1.017,1.216,1.65,1.55
					c0.533,0.267,0.983,0.35,1.35,0.25C21.05-5.75,22.117-6.417,22.55-7.25z"/>
				<path style="fill-rule:evenodd;clip-rule:evenodd;fill:#A86237;" d="M18.8-5.8c0.467-0.034,0.75-0.083,0.85-0.15
					C19.717-5.983,19.833-6.133,20-6.4c0.167-0.2,0.167-0.35,0-0.45C19.767-6.917,19.567-6.967,19.4-7
					c-0.167-0.033-0.283-0.167-0.35-0.4c-0.1-0.267-0.216-0.434-0.35-0.5c-0.333-0.067-0.583-0.117-0.75-0.15
					c-0.267-0.034-0.4-0.217-0.4-0.55c0-0.333-0.2-0.533-0.6-0.6c-0.067,0-0.417,0-1.05,0c-0.233,0-0.267,0.15-0.1,0.45
					c0.133,0.167,0.367,0.517,0.7,1.05c0.267,0.467,0.6,0.9,1,1.3C18-5.967,18.433-5.767,18.8-5.8z"/>
				<path style="fill-rule:evenodd;clip-rule:evenodd;fill:#A86237;" d="M14.1-11.25c0.6,0,0.967-0.133,1.1-0.4
					c0.1-0.267,0-0.5-0.3-0.7c-0.367-0.333-0.95-0.467-1.75-0.4c-0.3,0.033-0.3,0.3,0,0.8C13.45-11.483,13.767-11.25,14.1-11.25z"/>
				<path style="fill-rule:evenodd;clip-rule:evenodd;fill:#A86237;" d="M20.9-9.55c0.467-0.233,0.533-0.517,0.2-0.85
					c-0.367-0.333-0.867-0.4-1.5-0.2c-0.633,0.2-0.7,0.483-0.2,0.85S20.4-9.317,20.9-9.55z"/>
				
					<use xlink:href="#flash0.ai_x5F_7_x2F_Layer_13_x2F__x3C_Path_x3E__x5F_12"  width="22.49" height="15.258" y="-15.27" transform="matrix(1 0 0 1 14 0)" style="overflow:visible;opacity:0.2813;enable-background:new    ;"/>
				
					<use xlink:href="#flash0.ai_x5F_7_x2F_Layer_13_x2F__x3C_Path_x3E__x5F_11"  width="6.457" height="2.439" x="0" y="-2.483" transform="matrix(1 0 0 1 16.7002 -4.3501)" style="overflow:visible;opacity:0.3398;enable-background:new    ;"/>
				
					<use xlink:href="#flash0.ai_x5F_7_x2F_Layer_13_x2F__x3C_Path_x3E__x5F_10"  width="0.967" height="0.655" x="-0.039" y="-0.625" transform="matrix(1 0 0 1 21.1499 -7.1499)" style="overflow:visible;opacity:0.3398;enable-background:new    ;"/>
				
					<use xlink:href="#flash0.ai_x5F_7_x2F_Layer_13_x2F__x3C_Path_x3E__x5F_9"  width="0.991" height="0.85" x="-0.039" y="-0.85" transform="matrix(1 0 0 1 14.25 -10.8501)" style="overflow:visible;opacity:0.3398;enable-background:new    ;"/>
				
					<use xlink:href="#flash0.ai_x5F_7_x2F_Layer_13_x2F__x3C_Path_x3E__x5F_8"  width="3.184" height="2.182" x="-0.005" y="-2.18" transform="matrix(1 0 0 1 21.0498 -1.2002)" style="overflow:visible;opacity:0.3398;enable-background:new    ;"/>
				
					<use xlink:href="#flash0.ai_x5F_7_x2F_Layer_13_x2F__x3C_Path_x3E__x5F_7"  width="0.465" height="0.675" x="0.01" y="-0.675" transform="matrix(1 0 0 1 24.5996 -4.3501)" style="overflow:visible;opacity:0.3398;enable-background:new    ;"/>
				
					<use xlink:href="#flash0.ai_x5F_7_x2F_Layer_13_x2F__x3C_Path_x3E__x5F_6"  width="1.641" height="1.18" x="-0.045" y="-1.164" transform="matrix(1 0 0 1 25 -0.4502)" style="overflow:visible;opacity:0.3398;enable-background:new    ;"/>
				
					<use xlink:href="#flash0.ai_x5F_7_x2F_Layer_13_x2F__x3C_Path_x3E__x5F_5"  width="6.821" height="1.431" x="-0.014" y="-1.456" transform="matrix(1 0 0 1 25.2002 -9.75)" style="overflow:visible;opacity:0.3398;enable-background:new    ;"/>
				
					<use xlink:href="#flash0.ai_x5F_7_x2F_Layer_13_x2F__x3C_Path_x3E__x5F_4"  width="0.722" height="1.077" x="-0.012" y="-1.067" transform="matrix(1 0 0 1 29.7002 -11.75)" style="overflow:visible;opacity:0.3398;enable-background:new    ;"/>
				
					<use xlink:href="#flash0.ai_x5F_7_x2F_Layer_13_x2F__x3C_Path_x3E__x5F_3"  width="0.342" height="0.645" x="-0.017" y="-0.606" transform="matrix(1 0 0 1 32.0996 -11.4502)" style="overflow:visible;opacity:0.3398;enable-background:new    ;"/>
				
					<use xlink:href="#flash0.ai_x5F_7_x2F_Layer_13_x2F__x3C_Path_x3E__x5F_2"  width="0.489" height="0.622" x="-0.023" y="-0.6" transform="matrix(1 0 0 1 35.6504 -12.25)" style="overflow:visible;opacity:0.3398;enable-background:new    ;"/>
				
					<use xlink:href="#flash0.ai_x5F_7_x2F_Layer_13_x2F__x3C_Path_x3E__x5F_1"  width="0.4" height="0.656" y="-0.65" transform="matrix(1 0 0 1 24.25 -14.4502)" style="overflow:visible;opacity:0.3398;enable-background:new    ;"/>
				<path style="fill-rule:evenodd;clip-rule:evenodd;fill:#F5F5F5;" d="M45.2-10.55h1.5l0.1-0.75c0-2.434-2.283-4.5-6.85-6.2
					c-4.567-1.733-10.083-2.6-16.55-2.6s-11.983,0.867-16.55,2.6C2.283-15.8,0-13.733,0-11.3l0.1,0.75h1.7l-0.05-0.4
					c0-2.167,2.133-4.017,6.4-5.55c4.233-1.5,9.35-2.25,15.35-2.25S34.633-18,38.9-16.5c4.233,1.533,6.35,3.383,6.35,5.55
					L45.2-10.55z"/>
			</g>
		</g>
		<g id="Layer_2_2_" style="display:none;clip-path:url(#SVGID_4_);">
			<path style="display:inline;fill-rule:evenodd;clip-rule:evenodd;fill:#818181;" d="M14.45-24.3c0.633,0,1.383-0.217,2.25-0.65
				c0.833-0.4,1.633-0.466,2.4-0.2s1.566,0.267,2.4,0c0.867-0.267,1.5-0.4,1.9-0.4s0.684,0,0.85,0c0.133,0.033,0.517,0.1,1.15,0.2
				c0.633,0.133,1.283,0.317,1.95,0.55c0.667,0.267,1.517,0.25,2.55-0.05c1-0.267,3.15,0.35,6.45,1.85c3.3,1.5,3.667,0.917,1.1-1.75
				c-2.567-2.633-7.833-3.75-15.8-3.35c-7.967,0.434-12.3,2-13,4.7c0.4,0.533,1.317,0.517,2.75-0.05
				C12.8-23.983,13.817-24.267,14.45-24.3z"/>
		</g>
	</g>
</symbol>
<symbol  id="halfbowl2" viewBox="-3.97 -27.677 46.708 28.318">
	<g>
		<defs>
			<path id="SVGID_7_" d="M42.55-12.15c-0.5,1.433-0.816,3.017-0.95,4.75c-0.133,1.7-1.6,2.733-4.4,3.1
				c-2.1,0.333-3.9,1.433-5.4,3.3c-1.5,1.9-2.933,2.15-4.3,0.75c-1.467-1.333-2.317-1.983-2.55-1.95l-5.1,0.6
				c-1.567,1.1-3.033,1.667-4.4,1.7c-1.434,0.1-2.75-0.117-3.95-0.65C10.2-1.05,8.8-1.4,7.3-1.6C6.067-1.7,4.8-1.883,3.5-2.15
				C2.333-2.417,1.233-2.833,0.2-3.4c-1.267-0.567-2.35-1.3-3.25-2.2c-0.534-0.6-0.833-1.316-0.9-2.15
				c-0.066-0.767,0.034-1.6,0.3-2.5c0.333-1.402,0.925-2.76,1.775-4.075c0.848-1.31,2.281-2.735,4.3-4.275
				c2.023-1.54,3.057-2.456,3.1-2.75c0.04-0.297,0.407-0.514,1.1-0.65c0.686-0.133,1.277-0.45,1.775-0.95
				c0.533-0.5,1.184-0.9,1.95-1.2c0.8-0.333,1.85-0.434,3.15-0.3c1.3,0.167,2.25,0,2.85-0.5c0.6-0.433,1.017-0.7,1.25-0.8
				c0.3-0.1,0.667-0.183,1.1-0.25c0.5-0.033,1.033,0.1,1.6,0.4c0.534,0.298,1.284,0.339,2.25,0.125c0.965-0.209,2.298-0.176,4,0.1
				s3.369,0.984,5,2.125c1.633,1.136,2.75,1.886,3.35,2.25c0.567,0.4,1.367,0.683,2.4,0.85c1.067,0.2,2.067,0.883,3,2.05
				c1.067,1.167,1.833,2.533,2.3,4.1C42.8-13.4,42.783-12.783,42.55-12.15z"/>
		</defs>
		<clipPath id="SVGID_8_">
			<use xlink:href="#SVGID_7_"  style="overflow:visible;"/>
		</clipPath>
		<g id="Layer_1_31_" style="clip-path:url(#SVGID_8_);">
			<g>
				<path style="fill-rule:evenodd;clip-rule:evenodd;fill:#D9D9D9;" d="M20.5-16.7c4.633,0,8.767,0.267,12.4,0.8
					c3.6,0.533,6.033,1.216,7.3,2.05h0.15c-1.1-3.533-3.5-6.433-7.2-8.7c-3.733-2.3-8-3.45-12.8-3.45c-4.833,0-9.133,1.167-12.9,3.5
					c-3.7,2.3-6.1,5.233-7.2,8.8l0.35-0.05c1.133-0.867,3.533-1.567,7.2-2.1C11.5-16.417,15.733-16.7,20.5-16.7z"/>
				
					<use xlink:href="#flash0.ai_x5F_4_x2F_Layer_16_x2F__x3C_Path_x3E__x5F_128"  width="21.25" height="10.85" y="-10.85" transform="matrix(1 0 0 1 3.9502 -15.1499)" style="overflow:visible;opacity:0.7188;enable-background:new    ;"/>
				
					<use xlink:href="#flash0.ai_x5F_4_x2F_Layer_16_x2F__x3C_Path_x3E__x5F_127"  width="15" height="11.2" y="-11.2" transform="matrix(1 0 0 1 23.5996 -14.6001)" style="overflow:visible;opacity:0.1602;enable-background:new    ;"/>
				
					<use xlink:href="#flash0.ai_x5F_4_x2F_Layer_16_x2F__x3C_Path_x3E__x5F_126"  width="11.15" height="10.7" y="-10.7" transform="matrix(1 0 0 1 0.25 -13.7002)" style="overflow:visible;opacity:0.3203;enable-background:new    ;"/>
				<linearGradient id="SVGID_9_" gradientUnits="userSpaceOnUse" x1="0.7002" y1="-12.1499" x2="40.2002" y2="-12.1499">
					<stop  offset="0" style="stop-color:#7D7D7D"/>
					<stop  offset="1" style="stop-color:#D4D4D4"/>
				</linearGradient>
				<path style="fill-rule:evenodd;clip-rule:evenodd;fill:url(#SVGID_9_);" d="M40.2-12.15c0-2-1.934-3.717-5.8-5.15
					c-3.833-1.4-8.483-2.1-13.95-2.1c-5.467,0-10.133,0.7-14,2.1c-3.867,1.434-5.8,3.15-5.8,5.15s1.934,3.7,5.8,5.1
					c3.867,1.434,8.533,2.15,14,2.15c5.466,0,10.117-0.717,13.95-2.15C38.267-8.45,40.2-10.15,40.2-12.15z"/>
				<path style="fill-rule:evenodd;clip-rule:evenodd;fill:#F5F5F5;" d="M20.4-4.75c5.3,0,9.917-0.667,13.85-2
					c3.867-1.333,6.033-2.95,6.5-4.85h-1.3c-0.233,1.767-2.184,3.25-5.85,4.45C29.933-5.917,25.567-5.3,20.5-5.3
					S11.083-5.917,7.45-7.15c-3.667-1.2-5.633-2.684-5.9-4.45h-1.5C0.517-9.7,2.7-8.083,6.6-6.75C10.5-5.417,15.1-4.75,20.4-4.75z"
					/>
				
					<use xlink:href="#flash0.ai_x5F_4_x2F_Layer_16_x2F__x3C_Path_x3E__x5F_123"  width="18.352" height="8.11" x="-0.052" y="-8.1" transform="matrix(1 0 0 1 14.4502 -5.6499)" style="overflow:visible;opacity:0.25;enable-background:new    ;"/>
				<linearGradient id="SVGID_10_" gradientUnits="userSpaceOnUse" x1="3.8623" y1="-15.3994" x2="36.8077" y2="-15.3994">
					<stop  offset="0" style="stop-color:#9C5227"/>
					<stop  offset="1" style="stop-color:#80411C"/>
				</linearGradient>
				<path style="fill-rule:evenodd;clip-rule:evenodd;fill:url(#SVGID_10_);" d="M26.15-11.9c0.4,0.133,0.8,0.2,1.2,0.2
					c0.8-0.033,1.867-0.3,3.2-0.8c1.434-0.533,2.25-1.033,2.45-1.5c0.133-0.3,0.683-0.483,1.65-0.55c1-0.033,1.684-0.316,2.05-0.85
					c0.267-0.4,0.183-0.75-0.25-1.05c-0.467-0.3-1.45-0.633-2.95-1c-2.433-0.6-5.517-1.066-9.25-1.4
					c-5.067-0.433-9.233-0.3-12.5,0.4c-1.367,0.267-2.8,0.65-4.3,1.15c-1.733,0.6-2.8,1.117-3.2,1.55c-0.4,0.4-0.45,0.667-0.15,0.8
					c0.033,0,0.75,0.167,2.15,0.5c1.267,0.3,2.733,0.9,4.4,1.8c0.467,0.233,1.15,0.333,2.05,0.3c1.3-0.1,2.383-0.1,3.25,0
					c1.833,0.233,3.15,0.367,3.95,0.4c1.333,0.067,2.833,0.033,4.5-0.1C25.2-12.117,25.783-12.067,26.15-11.9z"/>
				<path style="fill-rule:evenodd;clip-rule:evenodd;fill:#AE694C;" d="M6.15-16c-0.467,0.2-0.667,0.383-0.6,0.55
					c0.133,0.333,0.25,0.533,0.35,0.6l0.55,0.15l-0.2-0.25c-0.033-0.267,0.183-0.6,0.65-1l1.7-1.35L6.15-16z"/>
				<path style="fill-rule:evenodd;clip-rule:evenodd;fill:#AE694C;" d="M20.55-17.45l0.25-0.15c0.267-0.133,0.633-0.233,1.1-0.3
					c0.767-0.1,1.517-0.067,2.25,0.1c-0.933-0.4-1.8-0.6-2.6-0.6c-1.167,0-1.767,0.183-1.8,0.55c-0.033,0.167,0.083,0.283,0.35,0.35
					C20.267-17.467,20.417-17.45,20.55-17.45z"/>
				<path style="fill-rule:evenodd;clip-rule:evenodd;fill:#693517;" d="M33.15-15.15c0.233-0.133,0.7-0.167,1.4-0.1
					c0.034-0.067-0.033-0.184-0.2-0.35c-0.6-0.6-1.567-1.1-2.9-1.5c-0.7-0.2-1.55-0.3-2.55-0.3l-1.35,0.05l3.7,0.85
					C31.75-16.367,32.383-15.917,33.15-15.15z"/>
				<path style="fill-rule:evenodd;clip-rule:evenodd;fill:#693517;" d="M17.9-17.6c0.633-0.1,0.75-0.2,0.35-0.3
					c-0.4-0.133-0.783-0.167-1.15-0.1c-0.267,0.033-0.317,0.1-0.15,0.2c0.133,0.067,0.4,0.133,0.8,0.2H17.9z"/>
				<path style="fill-rule:evenodd;clip-rule:evenodd;fill:#AE694C;" d="M8.3-14.8l0.1-0.65c0.233-0.5,0.717-0.867,1.45-1.1
					c1.233-0.433,2.3-0.667,3.2-0.7C11.317-17.283,10-17.133,9.1-16.8c-0.6,0.233-1.05,0.534-1.35,0.9c-0.3,0.3-0.4,0.533-0.3,0.7
					c0.033,0.1,0.183,0.2,0.45,0.3C8.033-14.867,8.167-14.833,8.3-14.8z"/>
				<path style="fill-rule:evenodd;clip-rule:evenodd;fill:#693517;" d="M31.7-13.5c0.633-0.167,0.966-0.383,1-0.65
					c0.033-0.233-0.133-0.6-0.5-1.1c-0.3-0.4-0.733-0.717-1.3-0.95c-0.5-0.2-0.9-0.3-1.2-0.3c-0.034,0-1.567-0.283-4.6-0.85
					c-0.667-0.167-1.5-0.25-2.5-0.25c-1.167,0-2.05,0-2.65,0c-2.767,0-4.767,0.117-6,0.35c-1.034,0.2-2.1,0.566-3.2,1.1l-1.4,0.8
					l0.15,0.9C23.367-13.55,30.767-13.233,31.7-13.5z"/>
				<path style="fill-rule:evenodd;clip-rule:evenodd;fill:#947151;" d="M6.1-6.5c0,0.4,0.117,0.917,0.35,1.55L6.8-4.1l4.8,0.8
					l1.95-9.75L11.4-14.5c-0.133-0.067-0.833,0.117-2.1,0.55v0.25c0,0.133-0.133,0.6-0.4,1.4c-0.3,0.867-0.583,1.534-0.85,2
					c-0.5,0.8-0.9,1.434-1.2,1.9C6.35-7.533,6.1-6.9,6.1-6.5z"/>
				<path style="fill-rule:evenodd;clip-rule:evenodd;fill:#C7A381;" d="M22.05-12.65c-1.233-0.9-2.25-1.3-3.05-1.2
					c-1.433,0.1-2.7,0.017-3.8-0.25l-3.8-0.4c-0.233,1.5-0.816,2.85-1.75,4.05C7.917-8.217,6.933-6.283,6.7-4.65
					C6.6-3.817,7.183-2.967,8.45-2.1c1.2,0.833,2.566,1.383,4.1,1.65c1.434,0.267,2.617,0.317,3.55,0.15c0.9-0.167,1.483-0.5,1.75-1
					c0.133-0.233,0.583-0.816,1.35-1.75c0.733-0.833,1.216-1.5,1.45-2c0.133-0.3,0.467-1.15,1-2.55c0.434-1.133,0.75-1.85,0.95-2.15
					c0.4-0.467,0.75-0.967,1.05-1.5C23.217-11.717,22.683-12.184,22.05-12.65z"/>
				<path style="fill-rule:evenodd;clip-rule:evenodd;fill:#753F1F;" d="M23-11.45c-1.533-1.733-2.85-2.533-3.95-2.4
					c-1.133,0.133-2.25,0.083-3.35-0.15c-0.3-0.1-0.934-0.184-1.9-0.25l-1.4-0.1c-0.233,1.433-0.767,2.717-1.6,3.85
					C9.267-8.434,8.383-6.583,8.15-4.95c-0.1,0.8,0.4,1.583,1.5,2.35c1.033,0.767,2.217,1.267,3.55,1.5
					c1.2,0.233,2.216,0.25,3.05,0.05c0.8-0.167,1.317-0.483,1.55-0.95c0.133-0.233,0.55-0.783,1.25-1.65
					c0.633-0.8,1.05-1.434,1.25-1.9C20.4-5.783,20.7-6.6,21.2-8c0.4-1.1,0.7-1.783,0.9-2.05C22.433-10.483,22.733-10.95,23-11.45z"
					/>
				<path style="fill-rule:evenodd;clip-rule:evenodd;fill:#854724;" d="M15.3-1.85c1.133,0.067,2.1-0.55,2.9-1.85
					c0.867-1.6,1.15-2.717,0.85-3.35c-0.133-0.367-0.517-0.417-1.15-0.15c-0.833,0.434-1.483,0.75-1.95,0.95
					C15.45-6.017,14.467-6.067,13-6.4c-1.567-0.333-2.5-0.467-2.8-0.4C9.633-6.667,9.4-6.184,9.5-5.35c0.1,0.767,0.383,1.4,0.85,1.9
					c0.4,0.434,1.183,0.8,2.35,1.1C13.633-2.083,14.5-1.917,15.3-1.85z"/>
				<path style="fill-rule:evenodd;clip-rule:evenodd;fill:#9C5B33;" d="M12.35-3.05c1.167,0.3,1.983,0.267,2.45-0.1
					c0.4-0.333,0.4-0.684,0-1.05c-0.3-0.3-0.883-0.583-1.75-0.85c-0.867-0.3-1.617-0.433-2.25-0.4c-0.533,0.033-0.6,0.434-0.2,1.2
					l0.75,1.15l0.15-0.05C11.667-3.184,11.95-3.15,12.35-3.05z"/>
				<path style="fill-rule:evenodd;clip-rule:evenodd;fill:#9E7957;" d="M32.75-4.6c1-1,1.45-2.3,1.35-3.9
					c-0.033-1.567-0.55-3.05-1.55-4.45c-0.466-0.667-1.15-1.417-2.05-2.25c-1.367-0.5-2.283-0.6-2.75-0.3c-0.3,0.2-0.3,1.683,0,4.45
					l0.5,4.1l1.35,4.1l1.15-0.5C31.617-3.75,32.283-4.167,32.75-4.6z"/>
				<path style="fill-rule:evenodd;clip-rule:evenodd;fill:#D6AF8B;" d="M26.1-3.25c1.833,0.667,3.283,0.683,4.35,0.05
					c1.7-1,2.55-2.55,2.55-4.65c0-1.267-0.667-2.9-2-4.9c-0.467-0.7-1.55-1.617-3.25-2.75c-1,0.1-2.183,0.167-3.55,0.2
					c-1.133,0-1.867,0-2.2,0c-0.5,0.034-0.933,0.1-1.3,0.2l-3.65,0.8c1.633,1.5,2.733,2.983,3.3,4.45c0.5,1.4,0.867,2.383,1.1,2.95
					c0.4,0.933,0.833,1.566,1.3,1.9C23.75-4.3,24.867-3.717,26.1-3.25z"/>
				<path style="fill-rule:evenodd;clip-rule:evenodd;fill:#753F1F;" d="M29.65-3.8c1.467-0.933,2.2-2.417,2.2-4.45
					c0-1.067-0.583-2.617-1.75-4.65c-0.4-0.667-1.333-1.534-2.8-2.6l-2.85,0.05c-2.1,0.1-3.25,0.184-3.45,0.25l-3.3,0.75
					c1.566,1.5,2.617,2.934,3.15,4.3c0.433,1.333,0.75,2.267,0.95,2.8c0.3,0.9,0.667,1.517,1.1,1.85c0.934,0.7,1.917,1.25,2.95,1.65
					C27.45-3.217,28.717-3.2,29.65-3.8z"/>
				<path style="fill-rule:evenodd;clip-rule:evenodd;fill:#947151;" d="M16.55-12.35L12.8-16.6l-1.3,0.25
					c-0.533,0.1-1.05,0.3-1.55,0.6l-0.6,0.4C8.817-13.917,8.733-12.9,9.1-12.3c0.267,0.367,0.783,0.817,1.55,1.35
					c0.4,0.3,0.767,0.55,1.1,0.75L16.55-12.35z"/>
				<path style="fill-rule:evenodd;clip-rule:evenodd;fill:#C7A381;" d="M26.35-16.1c-1.4-0.433-2.783-0.65-4.15-0.65
					c-1.333,0.033-2.333,0.05-3,0.05c-1.167-0.033-2.3-0.117-3.4-0.25c-1.733-0.2-3.267,0.033-4.6,0.7
					c-0.5,1.133-0.867,2.066-1.1,2.8c-0.233,0.934,0.233,1.983,1.4,3.15c0.5,0.5,1.45,0.883,2.85,1.15c1.367,0.3,2.5,0.35,3.4,0.15
					c1.467-0.3,3.067-1.617,4.8-3.95C23.317-13.95,24.583-15,26.35-16.1z"/>
				<path style="fill-rule:evenodd;clip-rule:evenodd;fill:#804522;" d="M22.15-13.4c0.667-0.9,1.783-1.867,3.35-2.9
					c-1.233-0.4-2.467-0.6-3.7-0.6c-2.8,0-4.667-0.05-5.6-0.15c-1.534-0.2-2.934-0.033-4.2,0.5l-0.8,2.7
					c-0.233,0.833,0.167,1.8,1.2,2.9c0.467,0.434,1.3,0.783,2.5,1.05c1.2,0.267,2.2,0.316,3,0.15
					C19.2-10.05,20.617-11.267,22.15-13.4z"/>
				<path style="fill-rule:evenodd;clip-rule:evenodd;fill:#914E27;" d="M21.1-14.25c-0.067-0.167-0.317-0.333-0.75-0.5
					c-0.233-0.1-1.233-0.033-3,0.2c-2.033,0.233-3.217,0.35-3.55,0.35c-0.6,0-0.966,0.25-1.1,0.75c-0.1,0.434,0.033,0.917,0.4,1.45
					c0.333,0.467,0.917,0.867,1.75,1.2c0.8,0.333,1.583,0.483,2.35,0.45c0.7-0.033,1.3-0.283,1.8-0.75
					c0.033-0.033,0.533-0.617,1.5-1.75C21.033-13.483,21.233-13.95,21.1-14.25z"/>
				<path style="fill-rule:evenodd;clip-rule:evenodd;fill:#A86237;" d="M16.75-11c0.8-0.033,1.417-0.333,1.85-0.9
					c0.433-0.5,0.483-0.934,0.15-1.3c-0.233-0.2-0.65-0.15-1.25,0.15c-0.867,0.434-1.6,0.667-2.2,0.7
					c-0.9,0.033-1.066,0.283-0.5,0.75C15.333-11.167,15.983-10.967,16.75-11z"/>
				<path style="fill-rule:evenodd;clip-rule:evenodd;fill:#854724;" d="M27.5-4.3c1.367,0,2.217-0.383,2.55-1.15
					c0.2-0.433,0.3-1.4,0.3-2.9c0-1.1-0.25-2.2-0.75-3.3c-0.467-0.967-0.967-1.6-1.5-1.9c-0.767-0.466-1.934,0.034-3.5,1.5
					c-0.4,0.4-1.033,0.833-1.9,1.3l-1.2,0.55c0.5,0.9,0.867,1.684,1.1,2.35c0.2,0.6,0.35,1.017,0.45,1.25
					c0.167,0.367,0.434,0.717,0.8,1.05c0.5,0.434,0.983,0.733,1.45,0.9C25.9-4.417,26.633-4.3,27.5-4.3z"/>
				
					<use xlink:href="#flash0.ai_x5F_4_x2F_Layer_16_x2F__x3C_Path_x3E__x5F_99"  width="11.394" height="7.929" x="-0.02" y="-7.947" transform="matrix(1 0 0 1 6 0)" style="overflow:visible;opacity:0.2813;enable-background:new    ;"/>
				
					<use xlink:href="#flash0.ai_x5F_4_x2F_Layer_16_x2F__x3C_Path_x3E__x5F_98"  width="12.65" height="5.392" x="-0.006" y="-5.403" transform="matrix(1 0 0 1 9.2002 -8.5498)" style="overflow:visible;opacity:0.2813;enable-background:new    ;"/>
				
					<use xlink:href="#flash0.ai_x5F_4_x2F_Layer_16_x2F__x3C_Path_x3E__x5F_97"  width="12.258" height="5.422" x="0.001" y="-5.419" transform="matrix(1 0 0 1 21.9502 -2.4502)" style="overflow:visible;opacity:0.2813;enable-background:new    ;"/>
				
					<use xlink:href="#flash0.ai_x5F_4_x2F_Layer_16_x2F__x3C_Path_x3E__x5F_96"  width="6.475" height="2.471" x="0.008" y="-2.468" transform="matrix(1 0 0 1 24 -3)" style="overflow:visible;opacity:0.3398;enable-background:new    ;"/>
				
					<use xlink:href="#flash0.ai_x5F_4_x2F_Layer_16_x2F__x3C_Path_x3E__x5F_95"  width="1.714" height="1.13" x="-0.004" y="-1.111" transform="matrix(1 0 0 1 9.25 -1.2998)" style="overflow:visible;opacity:0.3398;enable-background:new    ;"/>
				
					<use xlink:href="#flash0.ai_x5F_4_x2F_Layer_16_x2F__x3C_Path_x3E__x5F_94"  width="0.762" height="0.64" x="-0.006" y="-0.67" transform="matrix(1 0 0 1 13.6499 -10.7002)" style="overflow:visible;opacity:0.3398;enable-background:new    ;"/>
				
					<use xlink:href="#flash0.ai_x5F_4_x2F_Layer_16_x2F__x3C_Path_x3E__x5F_92"  width="0.524" height="1.278" x="-0.014" y="-1.313" transform="matrix(1 0 0 1 11.7002 -4.3999)" style="overflow:visible;opacity:0.3398;enable-background:new    ;"/>
				<path style="fill-rule:evenodd;clip-rule:evenodd;fill:#F5F5F5;" d="M40.75-11.6c0.067-0.133,0.1-0.35,0.1-0.65
					c0-2.067-2-3.833-6-5.3c-3.967-1.466-8.783-2.2-14.45-2.2c-5.633,0-10.433,0.733-14.4,2.2c-4,1.467-6,3.233-6,5.3l0.05,0.65h1.5
					v-0.35c0-1.833,1.85-3.4,5.55-4.7c3.7-1.3,8.167-1.95,13.4-1.95c5.267,0,9.75,0.65,13.45,1.95c3.7,1.3,5.55,2.867,5.55,4.7
					l-0.05,0.35H40.75z"/>
			</g>
		</g>
		<g id="Layer_2_3_" style="clip-path:url(#SVGID_8_);">
			<path style="fill-rule:evenodd;clip-rule:evenodd;fill:#818181;" d="M17.9-24.7c0.1,0,0.483,0.017,1.15,0.05
				c0.633,0.033,1.25-0.042,1.85-0.225s1.425-0.292,2.475-0.325c1.05-0.033,3.308,0.5,6.775,1.6c3.5,1.167,3.817,0.55,0.95-1.85
				c-2.9-2.333-8.3-2.833-16.2-1.5C7.1-25.617,3-23.583,2.6-20.85c0.467,0.5,1.383,0.383,2.75-0.35
				c1.333-0.667,2.283-1.066,2.85-1.2c0.667-0.067,1.417-0.367,2.25-0.9c0.8-0.434,1.583-0.567,2.35-0.4
				c0.767,0.133,1.55,0.017,2.35-0.35c0.867-0.333,1.483-0.534,1.85-0.6C17.433-24.717,17.733-24.733,17.9-24.7z"/>
		</g>
	</g>
</symbol>
<g>
	<g>
		<g>
			<path style="fill-rule:evenodd;clip-rule:evenodd;fill:#D9D9D9;" d="M39.938,30.2h0.112c-0.95,3.1-3,5.638-6.149,7.612
				c-3.226,2.024-6.9,3.037-11.025,3.037c-4.15,0-7.837-1.025-11.063-3.075c-3.2-2.024-5.25-4.6-6.15-7.725l0.262,0.037
				c1,0.75,3.063,1.375,6.188,1.875c3.2,0.501,6.838,0.75,10.913,0.75c3.975,0,7.524-0.237,10.649-0.712
				C36.774,31.55,38.862,30.95,39.938,30.2z"/>
			
				<use xlink:href="#flash0.ai_x5F_7_x2F_Layer_13_x2F__x3C_Path_x3E__x5F_49"  width="24.3" height="12.7" y="-12.7" transform="matrix(0.75 0 0 -0.75 8.7998 31.3496)" style="overflow:visible;opacity:0.7188;enable-background:new    ;"/>
			
				<use xlink:href="#flash0.ai_x5F_7_x2F_Layer_13_x2F__x3C_Path_x3E__x5F_48"  width="17.2" height="13.1" y="-13.1" transform="matrix(0.75 0 0 -0.75 25.7002 30.8496)" style="overflow:visible;opacity:0.1602;enable-background:new    ;"/>
			
				<use xlink:href="#flash0.ai_x5F_7_x2F_Layer_13_x2F__x3C_Path_x3E__x5F_47"  width="12.75" height="12.55" y="-12.55" transform="matrix(0.75 0 0 -0.75 5.6499 30.0498)" style="overflow:visible;opacity:0.3203;enable-background:new    ;"/>
			
				<linearGradient id="SVGID_11_" gradientUnits="userSpaceOnUse" x1="0.8003" y1="11.2007" x2="46.0508" y2="11.2007" gradientTransform="matrix(0.75 0 0 0.75 5.3999 20.2998)">
				<stop  offset="0" style="stop-color:#7D7D7D"/>
				<stop  offset="1" style="stop-color:#D4D4D4"/>
			</linearGradient>
			<path style="fill-rule:evenodd;clip-rule:evenodd;fill:url(#SVGID_11_);" d="M34.95,24.2c3.324,1.25,4.987,2.75,4.987,4.5
				c0,1.774-1.663,3.274-4.987,4.5c-3.3,1.25-7.3,1.875-12,1.875c-4.675,0-8.675-0.625-12-1.875C7.65,31.975,6,30.475,6,28.7
				c0-1.75,1.65-3.25,4.95-4.5c3.325-1.251,7.325-1.875,12-1.875C27.65,22.325,31.65,22.949,34.95,24.2z"/>
			<path style="fill-rule:evenodd;clip-rule:evenodd;fill:#F5F5F5;" d="M40.425,28.212H39.3c-0.225-1.55-1.899-2.862-5.024-3.938
				c-3.15-1.074-6.9-1.612-11.25-1.612c-4.325,0-8.063,0.538-11.213,1.612c-3.15,1.075-4.837,2.388-5.063,3.938H5.475
				c0.4-1.675,2.262-3.087,5.587-4.237c3.35-1.149,7.313-1.725,11.888-1.725s8.537,0.575,11.888,1.725
				C38.162,25.125,40.025,26.537,40.425,28.212z"/>
			
				<use xlink:href="#flash0.ai_x5F_7_x2F_Layer_13_x2F__x3C_Path_x3E__x5F_44"  width="21.018" height="9.51" x="-0.008" y="-9.5" transform="matrix(0.75 0 0 -0.75 17.7998 23)" style="overflow:visible;opacity:0.25;enable-background:new    ;"/>
			
				<linearGradient id="SVGID_12_" gradientUnits="userSpaceOnUse" x1="4.4829" y1="14.9941" x2="42.2579" y2="14.9941" gradientTransform="matrix(0.75 0 0 0.75 5.3999 20.2998)">
				<stop  offset="0" style="stop-color:#9C5227"/>
				<stop  offset="1" style="stop-color:#80411C"/>
			</linearGradient>
			<path style="fill-rule:evenodd;clip-rule:evenodd;fill:url(#SVGID_12_);" d="M36.713,32.45c-0.4,0.274-1.251,0.587-2.551,0.938
				c-2.05,0.524-4.688,0.925-7.912,1.199c-4.35,0.375-7.938,0.263-10.763-0.337c-1.2-0.275-2.425-0.625-3.675-1.05
				c-1.5-0.525-2.425-0.963-2.775-1.313c-0.325-0.375-0.363-0.625-0.113-0.75c0.05-0.025,0.663-0.163,1.837-0.413
				c1.125-0.25,2.388-0.774,3.788-1.575c0.4-0.225,0.987-0.313,1.763-0.262c1.15,0.1,2.087,0.1,2.813,0
				c1.45-0.2,2.563-0.313,3.337-0.338c1.15-0.075,2.45-0.05,3.9,0.075c0.7,0.05,1.212,0.013,1.538-0.112
				c0.35-0.15,0.688-0.226,1.012-0.226C29.588,28.338,30.5,28.574,31.65,29c1.25,0.5,1.962,0.95,2.137,1.35
				c0.101,0.25,0.563,0.4,1.388,0.45c0.85,0.05,1.438,0.3,1.763,0.75C37.162,31.875,37.088,32.175,36.713,32.45z"/>
			<path style="fill-rule:evenodd;clip-rule:evenodd;fill:#AE694C;" d="M12.112,30.763l1.05,1.087
				c0.775,0.675,1.3,1.112,1.575,1.313c0.5,0.325,0.975,0.575,1.425,0.75c-1.15-0.375-1.938-0.688-2.363-0.938
				c-0.375-0.225-0.813-0.587-1.313-1.087c-0.275-0.2-0.45-0.351-0.525-0.45C11.862,31.263,11.912,31.037,12.112,30.763z"/>
			<path style="fill-rule:evenodd;clip-rule:evenodd;fill:#AE694C;" d="M11.362,32.075c-0.4-0.175-0.563-0.338-0.487-0.488
				c0.1-0.3,0.188-0.462,0.262-0.487l0.525-0.149l-0.188,0.225c-0.05,0.225,0.137,0.513,0.563,0.862
				c0.65,0.55,1.137,0.938,1.462,1.163L11.362,32.075z"/>
			<path style="fill-rule:evenodd;clip-rule:evenodd;fill:#AE694C;" d="M10.237,31.325c0.3,0,0.438,0.05,0.413,0.149
				c0,0.075-0.087,0.163-0.263,0.263c-0.175,0.125-0.362,0.163-0.563,0.112c-0.175-0.05-0.2-0.149-0.075-0.3
				S10.037,31.325,10.237,31.325z"/>
			<path style="fill-rule:evenodd;clip-rule:evenodd;fill:#AE694C;" d="M10.762,32.037c0.225-0.075,0.35-0.024,0.375,0.15
				s-0.05,0.263-0.225,0.263c-0.15,0-0.25-0.063-0.3-0.188C10.587,32.162,10.638,32.088,10.762,32.037z"/>
			<path style="fill-rule:evenodd;clip-rule:evenodd;fill:#AE694C;" d="M23.888,33.388l0.225,0.149
				c0.25,0.1,0.575,0.175,0.976,0.226c0.649,0.1,1.287,0.074,1.912-0.075c-0.8,0.35-1.537,0.524-2.213,0.524
				c-1,0-1.525-0.149-1.574-0.449c-0.025-0.15,0.074-0.263,0.3-0.338C23.637,33.4,23.763,33.388,23.888,33.388z"/>
			<path style="fill-rule:evenodd;clip-rule:evenodd;fill:#693517;" d="M33.862,31.325c0.2,0.125,0.612,0.149,1.237,0.074
				c0,0.075-0.063,0.188-0.188,0.338c-0.524,0.525-1.35,0.95-2.475,1.275c-0.6,0.2-1.338,0.3-2.213,0.3L29.1,33.274l3.15-0.75
				C32.675,32.399,33.212,32,33.862,31.325z"/>
			<path style="fill-rule:evenodd;clip-rule:evenodd;fill:#693517;" d="M21.788,33.05c0.45-0.1,0.712-0.075,0.787,0.075
				c0.025,0.075,0.013,0.162-0.037,0.263c-0.375,0.35-1.038,0.537-1.988,0.563h-1.913l1.575-0.375
				C20.787,33.475,21.313,33.3,21.788,33.05z"/>
			<path style="fill-rule:evenodd;clip-rule:evenodd;fill:#693517;" d="M22.688,33.875c0.55,0.075,0.65,0.162,0.3,0.263
				c-0.325,0.125-0.65,0.149-0.975,0.074c-0.25-0.024-0.3-0.087-0.15-0.188c0.175-0.074,0.413-0.125,0.712-0.149H22.688z"/>
			<path style="fill-rule:evenodd;clip-rule:evenodd;fill:#693517;" d="M22.125,33.087c-0.15,0.025-0.4,0.101-0.75,0.226
				c-0.425,0.149-0.913,0.275-1.462,0.375c-0.625,0.1-1.212,0.149-1.763,0.149l-0.675-0.074c0.325-0.426,0.675-0.876,1.05-1.351
				c0.75-0.95,1.3-1.513,1.65-1.688c1.125-0.6,2.588-0.774,4.388-0.524c0.949,0.149,2.449,0.35,4.5,0.6
				c2.05,0.225,3.237,0.338,3.563,0.338c0.774,0,1.237,0.112,1.388,0.337c0.1,0.125-0.038,0.338-0.413,0.638
				c-0.475,0.3-1.074,0.538-1.8,0.713c-2.625,0.624-4.226,0.912-4.8,0.862c-1.7-0.25-2.713-0.388-3.037-0.413
				C23.112,33.1,22.5,33.037,22.125,33.087z"/>
			<path style="fill-rule:evenodd;clip-rule:evenodd;fill:#9E7957;" d="M28.688,28.212c-0.15,0.575-1.15,0.888-3,0.938l-0.506-1.519
				l-0.544-6.656l1.2-0.412c0.149,0.025,0.424,0.112,0.824,0.263c0.426,0.149,0.737,0.412,0.938,0.787
				c0.125,0.175,0.325,0.662,0.601,1.463c0.225,0.624,0.399,1.537,0.524,2.737C28.825,27.013,28.813,27.813,28.688,28.212z
				 M25.182,27.631l0.094,1.257l-0.525-2.513L25.182,27.631z"/>
			<path style="fill-rule:evenodd;clip-rule:evenodd;fill:#D6AF8B;" d="M21.938,28.737L20.1,24.649
				c0.175-0.5,0.362-1.063,0.563-1.688c0.2-0.399,0.55-0.824,1.05-1.274c0.575-0.5,1.275-0.875,2.1-1.125
				c0.85-0.226,1.55-0.226,2.1,0c0.5,0.2,0.9,0.838,1.2,1.912c0.175,0.601,0.375,1.5,0.601,2.7c0.324,1.45,0.313,2.55-0.038,3.3
				c-0.225,0.426-1.063,0.688-2.513,0.788C23.662,29.388,22.587,29.212,21.938,28.737z"/>
			<path style="fill-rule:evenodd;clip-rule:evenodd;fill:#804522;" d="M21.862,22.1c0.525-0.475,1.138-0.825,1.838-1.05
				c0.725-0.25,1.325-0.263,1.8-0.037c0.425,0.2,0.774,0.8,1.05,1.8c0.15,0.575,0.313,1.438,0.487,2.587
				c0.301,1.375,0.288,2.413-0.037,3.113c-0.176,0.399-0.888,0.649-2.138,0.75c-1.3,0.1-2.225-0.075-2.775-0.525l-1.575-3.862
				c0.3-1,0.45-1.525,0.45-1.575C21.138,22.925,21.438,22.525,21.862,22.1z"/>
			<path style="fill-rule:evenodd;clip-rule:evenodd;fill:#914E27;" d="M24.45,21.5c0.55-0.025,0.938,0.188,1.162,0.638
				c0.15,0.274,0.3,0.763,0.45,1.462c0.25,0.65,0.45,1.75,0.6,3.3l-1.05-0.112l-0.188-0.975c-0.175-0.475-0.537-0.938-1.087-1.388
				c-0.351-0.275-0.863-0.563-1.538-0.862l-0.862-0.338l0.413-0.638c0.25-0.399,0.475-0.649,0.675-0.75
				C23.325,21.637,23.8,21.524,24.45,21.5z"/>
			<path style="fill-rule:evenodd;clip-rule:evenodd;fill:#A86237;" d="M24.15,22.024c0.375-0.05,0.688,0.025,0.938,0.226
				c0.225,0.149,0.324,0.313,0.3,0.487c-0.025,0.1-0.112,0.2-0.263,0.3c-0.15,0.125-0.275,0.226-0.375,0.3
				c-0.25,0.15-0.75,0.025-1.5-0.375c-0.225-0.125-0.2-0.3,0.075-0.524C23.575,22.212,23.85,22.075,24.15,22.024z"/>
			<path style="fill-rule:evenodd;clip-rule:evenodd;fill:#A86237;" d="M25.425,23.862c0.175,0.15,0.25,0.351,0.226,0.6
				c-0.025,0.25-0.163,0.275-0.413,0.075c-0.275-0.2-0.362-0.399-0.263-0.6C25.075,23.737,25.225,23.712,25.425,23.862z"/>
			<path style="fill-rule:evenodd;clip-rule:evenodd;fill:#947151;" d="M25.912,28.888c0.725,2.55,0.9,3.999,0.525,4.35
				c-0.4,0.351-1.101,0.388-2.1,0.112c-0.15,0.051-0.426-0.275-0.825-0.975c-0.251-0.426-0.438-1-0.563-1.726l-0.113-0.938
				L24.45,28.1L25.912,28.888z"/>
			<path style="fill-rule:evenodd;clip-rule:evenodd;fill:#C7A381;" d="M30.563,27.763c1.275,0.875,2.063,1.587,2.362,2.137
				c0.274,0.55,0.438,0.938,0.487,1.163c-0.05,0.149-0.237,0.313-0.563,0.487c-0.625,0.399-1.587,0.75-2.887,1.05l-4.013,0.862
				c-0.801-0.524-1.388-1.225-1.763-2.1c-0.275-0.7-0.438-1.149-0.487-1.35c-0.075-0.45-0.013-0.888,0.188-1.313
				c0.2-0.45,0.587-0.763,1.162-0.938c0.375-0.126,1.063-0.25,2.063-0.375c0.925-0.075,1.6-0.101,2.025-0.075
				C29.688,27.362,30.162,27.513,30.563,27.763z"/>
			<path style="fill-rule:evenodd;clip-rule:evenodd;fill:#753F1F;" d="M30.675,28.024c1.2,0.95,1.9,1.638,2.101,2.063
				c0.249,0.525,0.387,0.9,0.412,1.125c-0.05,0.126-0.213,0.288-0.487,0.488c-0.575,0.375-1.45,0.699-2.625,0.975l-3.638,0.75
				c-0.75-0.525-1.275-1.213-1.575-2.063c-0.25-0.675-0.388-1.112-0.412-1.313c-0.075-0.399-0.025-0.813,0.149-1.237
				c0.175-0.426,0.537-0.726,1.088-0.9c0.325-0.1,0.949-0.2,1.875-0.3c0.825-0.075,1.438-0.1,1.838-0.075
				C29.875,27.588,30.3,27.75,30.675,28.024z"/>
			
				<use xlink:href="#flash0.ai_x5F_7_x2F_Layer_13_x2F__x3C_Path_x3E__x5F_24"  width="3.5" height="4.75" y="-4.75" transform="matrix(0.75 0 0 -0.75 20.1001 28)" style="overflow:visible;opacity:0.4102;enable-background:new    ;"/>
			<path style="fill-rule:evenodd;clip-rule:evenodd;fill:#854724;" d="M29.213,27.837c0.324-0.024,0.6-0.013,0.824,0.038
				c0.301,0.075,0.688,0.375,1.163,0.899C31.699,29.324,32,29.8,32.1,30.2c0.075,0.375-0.074,0.575-0.449,0.6
				c-0.525,0-0.938,0.013-1.238,0.037c-0.274,0.025-0.899,0.126-1.875,0.301c-1.024,0.175-1.725,0.274-2.1,0.3
				c-0.5,0.024-0.85-0.275-1.05-0.9c-0.15-0.45-0.2-0.987-0.15-1.612c0.05-0.7,1.013-1.05,2.888-1.05
				C28.25,27.875,28.612,27.862,29.213,27.837z"/>
			<path style="fill-rule:evenodd;clip-rule:evenodd;fill:#9C5B33;" d="M29.775,28.1c0.3,0,0.5,0.125,0.6,0.375s0.1,0.45,0,0.601
				c-0.05,0.125-0.188,0.125-0.412,0c-0.051-0.025-0.301-0.175-0.75-0.45c-0.275-0.175-0.326-0.313-0.15-0.413
				C29.213,28.138,29.449,28.1,29.775,28.1z"/>
			<path style="fill-rule:evenodd;clip-rule:evenodd;fill:#9C5B33;" d="M26.438,28.362c0.725,0,0.912,0.163,0.563,0.487
				c-0.375,0.325-0.726,0.475-1.05,0.45c-0.2-0.05-0.238-0.212-0.112-0.487C25.987,28.513,26.188,28.362,26.438,28.362z"/>
			<path style="fill-rule:evenodd;clip-rule:evenodd;fill:#9C5B33;" d="M26.025,29.638c0.399,0,0.563,0.2,0.487,0.6
				s-0.226,0.587-0.45,0.563c-0.176-0.024-0.275-0.225-0.3-0.6C25.712,29.825,25.8,29.638,26.025,29.638z"/>
			<path style="fill-rule:evenodd;clip-rule:evenodd;fill:#9E7957;" d="M22.462,24.162c0.9,0.351,1.562,0.875,1.988,1.575
				c0.3,0.45,0.312,1.175,0.037,2.175c-0.275,1.05-0.587,1.813-0.938,2.288c-0.375,0.524-0.862,1.112-1.462,1.762
				c-0.225,0.25-0.587,0.575-1.087,0.976l-1.05,0.3c-1.325,0.375-2.125,0.538-2.4,0.487l-1.012-0.938l2.4-6.938l0.75-1.162
				c0.525-0.775,0.837-1.163,0.938-1.163C20.825,23.524,21.438,23.737,22.462,24.162z"/>
			<path style="fill-rule:evenodd;clip-rule:evenodd;fill:#D6AF8B;" d="M21.6,23.825c0.2,0.125,0.587,0.399,1.163,0.824
				c0.399,0.325,0.675,0.638,0.825,0.938c0.175,0.301,0.249,0.7,0.225,1.2c-0.025,0.525-0.188,1.125-0.487,1.8
				c-0.3,0.726-0.675,1.313-1.125,1.763c-0.625,0.65-1.087,1.112-1.387,1.388c-0.5,0.475-1.025,0.875-1.575,1.2
				c-0.85,0.524-1.362,0.774-1.538,0.75l-0.15,0.037l-0.6,0.038c-0.85-0.351-1.487-0.65-1.912-0.9
				c-0.45-0.399-0.938-0.763-1.463-1.088c-0.55-0.324-0.913-0.649-1.087-0.975l-0.112-0.375c0.525-0.6,1.05-1.125,1.575-1.575
				c0.4-0.35,0.925-0.875,1.575-1.575c0.35-0.324,0.988-1.162,1.913-2.512c0.275-0.375,0.65-0.688,1.125-0.938
				c0.525-0.275,1.05-0.4,1.575-0.375C20.638,23.45,21.125,23.575,21.6,23.825z"/>
			<path style="fill-rule:evenodd;clip-rule:evenodd;fill:#804522;" d="M21.188,30.763c-0.725,0.774-1.325,1.3-1.8,1.574
				c-0.675,0.426-1.487,0.9-2.438,1.426c-0.8,0-1.75-0.45-2.85-1.351c-0.05-0.149-0.313-0.388-0.788-0.712
				c-0.275-0.175-0.5-0.375-0.675-0.601l-0.188-0.3c1.425-1.175,2.6-2.325,3.525-3.45c0.475-0.55,1.025-1.274,1.65-2.175
				c0.5-0.675,1.037-1.101,1.612-1.275c0.625-0.225,1.238-0.2,1.837,0.075c0.375,0.175,0.938,0.575,1.688,1.2
				c0.524,0.475,0.737,1.125,0.638,1.95c-0.101,0.6-0.338,1.213-0.713,1.837C22.362,29.463,21.862,30.063,21.188,30.763z"/>
			<path style="fill-rule:evenodd;clip-rule:evenodd;fill:#914E27;" d="M22.313,25.737c0.25,0.525,0.212,1.225-0.113,2.1
				c-0.375,1.075-1.788,2.113-4.237,3.113c-0.525,0.225-1.163,0.3-1.913,0.225c-0.575-0.075-1.087-0.2-1.538-0.375
				c-0.325-0.125-0.387-0.375-0.188-0.75c0.125-0.25,0.413-0.65,0.863-1.2c1.225-1.475,2.05-2.563,2.475-3.263
				c0.35-0.524,0.762-0.912,1.237-1.162c0.4-0.2,0.738-0.263,1.013-0.188C21.188,24.612,21.987,25.112,22.313,25.737z"/>
			<path style="fill-rule:evenodd;clip-rule:evenodd;fill:#A86237;" d="M19.5,24.649c0.35,0.025,0.563,0.063,0.637,0.113
				c0.05,0.024,0.138,0.137,0.263,0.337c0.125,0.15,0.125,0.263,0,0.338c-0.175,0.05-0.325,0.088-0.45,0.112
				c-0.125,0.024-0.212,0.125-0.262,0.3c-0.075,0.2-0.163,0.325-0.263,0.375c-0.25,0.051-0.438,0.088-0.563,0.112
				c-0.2,0.025-0.3,0.163-0.3,0.413s-0.15,0.399-0.45,0.45c-0.05,0-0.313,0-0.788,0c-0.175,0-0.2-0.113-0.075-0.338
				c0.1-0.125,0.275-0.388,0.525-0.787c0.2-0.351,0.45-0.676,0.75-0.976C18.9,24.775,19.225,24.625,19.5,24.649z"/>
			<path style="fill-rule:evenodd;clip-rule:evenodd;fill:#A86237;" d="M15.975,28.737c0.45,0,0.725,0.1,0.825,0.3
				c0.075,0.2,0,0.375-0.225,0.525c-0.275,0.25-0.712,0.35-1.313,0.3c-0.225-0.024-0.225-0.225,0-0.6
				C15.487,28.912,15.725,28.737,15.975,28.737z"/>
			<path style="fill-rule:evenodd;clip-rule:evenodd;fill:#A86237;" d="M21.075,27.462c0.35,0.175,0.4,0.388,0.15,0.638
				c-0.275,0.25-0.65,0.3-1.125,0.15c-0.475-0.15-0.525-0.362-0.15-0.638S20.7,27.287,21.075,27.462z"/>
			
				<use xlink:href="#flash0.ai_x5F_7_x2F_Layer_13_x2F__x3C_Path_x3E__x5F_12"  width="22.49" height="15.258" y="-15.27" transform="matrix(0.75 0 0 -0.75 15.8999 20.2998)" style="overflow:visible;opacity:0.2813;enable-background:new    ;"/>
			
				<use xlink:href="#flash0.ai_x5F_7_x2F_Layer_13_x2F__x3C_Path_x3E__x5F_11"  width="6.457" height="2.439" x="0" y="-2.483" transform="matrix(0.75 0 0 -0.75 17.8999 23.5498)" style="overflow:visible;opacity:0.3398;enable-background:new    ;"/>
			
				<use xlink:href="#flash0.ai_x5F_7_x2F_Layer_13_x2F__x3C_Path_x3E__x5F_10"  width="0.967" height="0.655" x="-0.039" y="-0.625" transform="matrix(0.75 0 0 -0.75 21.25 25.6504)" style="overflow:visible;opacity:0.3398;enable-background:new    ;"/>
			
				<use xlink:href="#flash0.ai_x5F_7_x2F_Layer_13_x2F__x3C_Path_x3E__x5F_9"  width="0.991" height="0.85" x="-0.039" y="-0.85" transform="matrix(0.75 0 0 -0.75 16.1001 28.4502)" style="overflow:visible;opacity:0.3398;enable-background:new    ;"/>
			
				<use xlink:href="#flash0.ai_x5F_7_x2F_Layer_13_x2F__x3C_Path_x3E__x5F_8"  width="3.184" height="2.182" x="-0.005" y="-2.18" transform="matrix(0.75 0 0 -0.75 21.2002 21.2002)" style="overflow:visible;opacity:0.3398;enable-background:new    ;"/>
			
				<use xlink:href="#flash0.ai_x5F_7_x2F_Layer_13_x2F__x3C_Path_x3E__x5F_7"  width="0.465" height="0.675" x="0.01" y="-0.675" transform="matrix(0.75 0 0 -0.75 23.8496 23.5498)" style="overflow:visible;opacity:0.3398;enable-background:new    ;"/>
			
				<use xlink:href="#flash0.ai_x5F_7_x2F_Layer_13_x2F__x3C_Path_x3E__x5F_6"  width="1.641" height="1.18" x="-0.045" y="-1.164" transform="matrix(0.75 0 0 -0.75 24.1504 20.6499)" style="overflow:visible;opacity:0.3398;enable-background:new    ;"/>
			
				<use xlink:href="#flash0.ai_x5F_7_x2F_Layer_13_x2F__x3C_Path_x3E__x5F_5"  width="6.821" height="1.431" x="-0.014" y="-1.456" transform="matrix(0.75 0 0 -0.75 24.2998 27.5996)" style="overflow:visible;opacity:0.3398;enable-background:new    ;"/>
			
				<use xlink:href="#flash0.ai_x5F_7_x2F_Layer_13_x2F__x3C_Path_x3E__x5F_4"  width="0.722" height="1.077" x="-0.012" y="-1.067" transform="matrix(0.75 0 0 -0.75 27.6504 29.0996)" style="overflow:visible;opacity:0.3398;enable-background:new    ;"/>
			
				<use xlink:href="#flash0.ai_x5F_7_x2F_Layer_13_x2F__x3C_Path_x3E__x5F_3"  width="0.342" height="0.645" x="-0.017" y="-0.606" transform="matrix(0.75 0 0 -0.75 29.4502 28.9004)" style="overflow:visible;opacity:0.3398;enable-background:new    ;"/>
			
				<use xlink:href="#flash0.ai_x5F_7_x2F_Layer_13_x2F__x3C_Path_x3E__x5F_2"  width="0.489" height="0.622" x="-0.023" y="-0.6" transform="matrix(0.75 0 0 -0.75 32.1504 29.5)" style="overflow:visible;opacity:0.3398;enable-background:new    ;"/>
			
				<use xlink:href="#flash0.ai_x5F_7_x2F_Layer_13_x2F__x3C_Path_x3E__x5F_1"  width="0.4" height="0.656" y="-0.65" transform="matrix(0.75 0 0 -0.75 23.5996 31.1504)" style="overflow:visible;opacity:0.3398;enable-background:new    ;"/>
			<path style="fill-rule:evenodd;clip-rule:evenodd;fill:#F5F5F5;" d="M39.3,28.212h1.125l0.075,0.563
				c0,1.825-1.713,3.375-5.138,4.65c-3.425,1.3-7.563,1.95-12.412,1.95c-4.851,0-8.988-0.65-12.413-1.95
				C7.112,32.149,5.4,30.6,5.4,28.774l0.075-0.563H6.75l-0.038,0.301c0,1.625,1.6,3.013,4.8,4.162
				c3.175,1.125,7.013,1.688,11.513,1.688c4.5,0,8.35-0.563,11.55-1.688c3.175-1.149,4.763-2.537,4.763-4.162L39.3,28.212z"/>
		</g>
		
			<use xlink:href="#halfbowl"  width="47.024" height="29" x="-0.062" y="-28.179" transform="matrix(0.7486 0.0466 0.0466 -0.7486 7.25 12.9502)" style="overflow:visible;"/>
		<g>
			<path style="fill-rule:evenodd;clip-rule:evenodd;fill:#947151;" d="M20.75,31.162c-0.175-1.78-0.725-2.681-1.65-2.699
				L18.087,29.4c-0.725,2.55-0.9,3.999-0.525,4.35c0.399,0.35,1.1,0.387,2.1,0.112c0.15,0.05,0.425-0.275,0.825-0.975
				C20.737,32.462,20.824,31.887,20.75,31.162z"/>
			<path style="fill-rule:evenodd;clip-rule:evenodd;fill:#C7A381;" d="M13.438,28.263c-1.275,0.875-2.063,1.587-2.363,2.137
				c-0.274,0.55-0.437,0.938-0.487,1.163c0.05,0.149,0.237,0.313,0.563,0.487c0.625,0.399,1.587,0.75,2.887,1.05l4.012,0.862
				c0.8-0.524,1.388-1.225,1.763-2.1c0.274-0.7,0.437-1.149,0.487-1.35c0.076-0.45,0.012-0.888-0.188-1.313
				c-0.2-0.45-0.587-0.763-1.163-0.938c-0.375-0.126-1.062-0.25-2.063-0.375c-0.925-0.075-1.6-0.101-2.025-0.075
				C14.312,27.862,13.837,28.013,13.438,28.263z"/>
			<path style="fill-rule:evenodd;clip-rule:evenodd;fill:#753F1F;" d="M13.324,28.524c-1.199,0.95-1.899,1.638-2.1,2.063
				c-0.25,0.525-0.388,0.9-0.412,1.125c0.05,0.126,0.212,0.288,0.487,0.488c0.575,0.375,1.45,0.699,2.625,0.975l3.638,0.75
				c0.75-0.525,1.275-1.213,1.574-2.063c0.251-0.675,0.388-1.112,0.413-1.313c0.076-0.399,0.026-0.813-0.149-1.237
				c-0.175-0.426-0.538-0.726-1.087-0.9c-0.325-0.1-0.95-0.2-1.875-0.3c-0.826-0.075-1.438-0.1-1.838-0.075
				C14.124,28.088,13.699,28.25,13.324,28.524z"/>
			<path style="fill-rule:evenodd;clip-rule:evenodd;fill:#854724;" d="M14.787,28.337c-0.325-0.024-0.6-0.013-0.825,0.038
				c-0.3,0.075-0.688,0.375-1.163,0.899C12.3,29.824,12,30.3,11.9,30.7c-0.076,0.375,0.075,0.575,0.45,0.6
				c0.525,0,0.938,0.013,1.238,0.037c0.275,0.025,0.899,0.126,1.875,0.301c1.025,0.175,1.725,0.274,2.1,0.3
				c0.499,0.024,0.85-0.275,1.049-0.9c0.15-0.45,0.2-0.987,0.15-1.612c-0.05-0.7-1.012-1.05-2.887-1.05
				C15.75,28.375,15.387,28.362,14.787,28.337z"/>
			<path style="fill-rule:evenodd;clip-rule:evenodd;fill:#9C5B33;" d="M14.225,28.6c-0.3,0-0.5,0.125-0.6,0.375
				c-0.101,0.25-0.101,0.45,0,0.601c0.05,0.125,0.188,0.125,0.412,0c0.05-0.025,0.3-0.175,0.75-0.45
				c0.274-0.175,0.325-0.313,0.15-0.413C14.787,28.638,14.55,28.6,14.225,28.6z"/>
			<path style="fill-rule:evenodd;clip-rule:evenodd;fill:#9C5B33;" d="M17.563,28.862c-0.726,0-0.913,0.163-0.563,0.487
				c0.375,0.325,0.725,0.475,1.049,0.45c0.2-0.05,0.238-0.212,0.113-0.487C18.012,29.013,17.812,28.862,17.563,28.862z"/>
			<path style="fill-rule:evenodd;clip-rule:evenodd;fill:#9C5B33;" d="M17.975,30.138c-0.4,0-0.563,0.2-0.488,0.6
				c0.076,0.399,0.226,0.587,0.451,0.563c0.175-0.024,0.274-0.225,0.299-0.6C18.287,30.325,18.199,30.138,17.975,30.138z"/>
			
				<use xlink:href="#flash0.ai_x5F_7_x2F_Layer_13_x2F__x3C_Path_x3E__x5F_2"  width="0.489" height="0.622" x="-0.023" y="-0.6" transform="matrix(-0.75 0 0 -0.75 11.8501 30)" style="overflow:visible;opacity:0.3398;enable-background:new    ;"/>
		</g>
		
			<use xlink:href="#halfbowl2"  width="46.708" height="28.318" x="-3.97" y="-27.677" transform="matrix(0.8725 -0.0249 -0.0249 -0.8725 6.0498 5.75)" style="overflow:visible;"/>
		
			<use xlink:href="#halfbowl"  width="47.024" height="29" x="-0.062" y="-28.179" transform="matrix(0.7497 -0.0215 -0.0215 -0.7497 5.3999 1.6499)" style="overflow:visible;"/>
		<g>
			<path style="fill-rule:evenodd;clip-rule:evenodd;fill:#AE694C;" d="M36.35,15.3c0-0.133,0.051-0.183,0.15-0.15
				c0.167,0.033,0.25,0.1,0.25,0.2c0,0.066-0.083,0.117-0.25,0.15C36.4,15.4,36.35,15.333,36.35,15.3z M36.5,11.85
				c0.167-0.1,0.35-0.15,0.55-0.15c0.334,0,0.5,0.15,0.5,0.45c0,0.1-0.05,0.184-0.149,0.25c-0.067,0.1-0.2,0.15-0.4,0.15
				c-0.167,0-0.333-0.05-0.5-0.15c-0.1-0.066-0.15-0.15-0.15-0.25C36.35,12.083,36.4,11.983,36.5,11.85z M10.05,19.25
				c0.034-0.167,0.1-0.25,0.2-0.25s0.233-0.017,0.4-0.05c0.2-0.1,0.333-0.15,0.4-0.15c0.233,0,0.417,0.034,0.55,0.1
				c0.066,0.033,0.1,0.083,0.1,0.15c0,0.067-0.133,0.167-0.4,0.3c-0.333,0.1-0.6,0.183-0.8,0.25c-0.2,0.033-0.317,0-0.35-0.1
				C10.117,19.367,10.083,19.283,10.05,19.25z M9.95,21.6v-0.05c0-0.166,0.066-0.25,0.2-0.25l0.1,0.101v0.3
				c0,0.033-0.033,0.05-0.1,0.05C10.017,21.75,9.95,21.7,9.95,21.6z M31.3,27.45c0.03-0.018,0.064-0.034,0.101-0.05
				c-0.101-0.167,0.5-0.25,1.8-0.25s2.184-0.2,2.649-0.601c0.534-0.399,0.817-0.616,0.851-0.649c0.066-0.167,0.149-0.233,0.25-0.2
				c0.399-0.033,0.583,0.149,0.55,0.55c0.033,0.3-0.2,0.517-0.7,0.65c-0.3,0.066-0.866,0.183-1.7,0.35
				c-0.166,0.033-0.35,0.116-0.55,0.25c-0.233,0.167-0.399,0.25-0.5,0.25c-1.399,0.134-2.184,0.184-2.35,0.15
				C31.4,27.9,31.267,27.75,31.3,27.45z"/>
			<path style="fill-rule:evenodd;clip-rule:evenodd;fill:#995026;" d="M37.1,14.5c-0.033,0.133-0.1,0.333-0.199,0.6
				c-0.101,0.433-0.334,0.65-0.7,0.65c-0.101,0-0.15-0.05-0.15-0.15c0-0.167,0.05-0.367,0.15-0.6c0.066-0.267,0.1-0.467,0.1-0.6
				s0.066-0.35,0.2-0.65c0.066-0.233,0.1-0.433,0.1-0.6c0-0.167-0.1-0.433-0.3-0.8c-0.267-0.434-0.399-0.667-0.399-0.7
				c0.066-0.1,0.267-0.15,0.6-0.15c0.6,0,1,0.117,1.2,0.35c0.033,0.1,0.05,0.316,0.05,0.65c0,0.3-0.017,0.567-0.05,0.8
				c-0.066,0.233-0.2,0.5-0.4,0.8C37.2,14.2,37.134,14.333,37.1,14.5z M36.5,11.85c-0.1,0.133-0.15,0.233-0.15,0.3
				c0,0.1,0.051,0.184,0.15,0.25c0.167,0.1,0.333,0.15,0.5,0.15c0.2,0,0.333-0.05,0.4-0.15c0.1-0.066,0.149-0.15,0.149-0.25
				c0-0.3-0.166-0.45-0.5-0.45C36.85,11.7,36.667,11.75,36.5,11.85z M36.35,15.3c0,0.034,0.051,0.1,0.15,0.2
				c0.167-0.033,0.25-0.083,0.25-0.15c0-0.1-0.083-0.167-0.25-0.2C36.4,15.117,36.35,15.167,36.35,15.3z M9.95,21.6
				c0,0.101,0.066,0.15,0.2,0.15c0.067,0,0.1-0.017,0.1-0.05v-0.3l-0.1-0.101c-0.133,0-0.2,0.084-0.2,0.25V21.6z M10.05,19.25
				c0.034,0.033,0.067,0.117,0.1,0.25c0.033,0.1,0.15,0.133,0.35,0.1c0.2-0.067,0.467-0.15,0.8-0.25c0.267-0.133,0.4-0.233,0.4-0.3
				c0-0.066-0.034-0.117-0.1-0.15c0.1,0,0.183,0.033,0.25,0.1h0.05v0.05l-0.6,0.35c-0.466,0.167-0.733,0.45-0.8,0.85
				c0,0.1,0,0.417,0,0.95c0,0.6-0.117,0.883-0.35,0.85C9.997,22.05,9.88,22,9.8,21.9c-0.018-0.027-0.034-0.062-0.05-0.101v-0.05H9.7
				V21.7c-0.133-0.134-0.2-0.417-0.2-0.85c0-0.5,0.05-0.85,0.15-1.05C9.75,19.6,9.883,19.417,10.05,19.25z M31,27.75
				c-0.029-0.088,0.07-0.188,0.3-0.3c-0.033,0.3,0.101,0.45,0.4,0.45c0.166,0.033,0.95-0.017,2.35-0.15
				c0.101,0,0.267-0.083,0.5-0.25c0.2-0.134,0.384-0.217,0.55-0.25c0.834-0.167,1.4-0.283,1.7-0.35c0.5-0.134,0.733-0.351,0.7-0.65
				c0.033-0.4-0.15-0.583-0.55-0.55c0.267-0.033,0.467-0.05,0.6-0.05c0.3,0.033,0.434,0.366,0.4,1c0,0.3-0.084,0.55-0.25,0.75v0.05
				H37.6c-0.199,0.3-0.583,0.416-1.149,0.35c-0.367,0-0.566-0.116-0.601-0.35c0.034-0.3-0.017-0.233-0.149,0.2
				c-0.134,0.466-0.283,0.866-0.45,1.199c-0.167,0.367-0.366,0.483-0.6,0.351c-0.134-0.066-0.184-0.233-0.15-0.5
				c-0.066-0.267-0.2-0.417-0.4-0.45c-0.199-0.033-0.3,0-0.3,0.1c-0.1,0.034-0.366,0.084-0.8,0.15c-0.066,0-0.134-0.05-0.2-0.15
				c-0.066-0.033-0.233,0.101-0.5,0.4c-0.3,0.2-0.55,0.184-0.75-0.05c-0.1-0.167-0.25-0.334-0.45-0.5
				C31,28.066,30.967,27.917,31,27.75z"/>
			<path style="fill-rule:evenodd;clip-rule:evenodd;fill:#693517;" d="M37.1,14.5c0,0.1-0.017,0.333-0.05,0.7
				c-0.166,0.566-0.483,0.85-0.95,0.85c-0.3,0-0.5-0.15-0.6-0.45c-0.033-0.1-0.05-0.283-0.05-0.55c0-0.233,0.1-0.6,0.3-1.1
				c0.134-0.534,0.2-0.833,0.2-0.9c0-0.066-0.101-0.15-0.3-0.25c-0.167-0.133-0.25-0.283-0.25-0.45c0-0.2,0.066-0.367,0.199-0.5
				c0.101-0.1,0.2-0.167,0.301-0.2c0,0.033,0.133,0.267,0.399,0.7c0.2,0.367,0.3,0.633,0.3,0.8c0,0.167-0.033,0.367-0.1,0.6
				c-0.134,0.3-0.2,0.517-0.2,0.65s-0.033,0.333-0.1,0.6c-0.101,0.233-0.15,0.433-0.15,0.6c0,0.1,0.05,0.15,0.15,0.15
				c0.366,0,0.6-0.217,0.7-0.65C37,14.833,37.066,14.633,37.1,14.5z M9.8,21.9C9.88,22,9.997,22.05,10.15,22.05
				c0.233,0.033,0.35-0.25,0.35-0.85c0-0.534,0-0.85,0-0.95c0.067-0.4,0.333-0.683,0.8-0.85l0.6-0.35V19
				c0.167,0.033,0.25,0.167,0.25,0.4c0,0.267-0.133,0.4-0.4,0.4c-0.233,0-0.433,0.167-0.6,0.5c-0.133,0.267-0.2,0.483-0.2,0.65
				c0,0.133,0.033,0.45,0.1,0.95c0.067,0.5-0.15,0.666-0.65,0.5C10.14,22.284,9.94,22.118,9.8,21.9z M37.6,27.45
				c0,0.033-0.017,0.083-0.05,0.149c-0.066,0.034-0.6,0.351-1.6,0.95c-0.101,0.134-0.217,0.5-0.351,1.101
				c-0.267,0.633-0.616,0.899-1.05,0.8c-0.5,0-0.649-0.25-0.45-0.75c0.101-0.5-0.05-0.75-0.449-0.75
				c-0.467,0.033-0.817,0.133-1.051,0.3c-0.267,0.167-0.517,0.366-0.75,0.6c-0.199,0.134-0.466,0.067-0.8-0.199
				c-0.3-0.367-0.434-0.801-0.399-1.301c0-0.199,0.116-0.399,0.35-0.6c-0.033,0.167,0,0.316,0.1,0.45
				c0.2,0.166,0.351,0.333,0.45,0.5c0.2,0.233,0.45,0.25,0.75,0.05c0.267-0.3,0.434-0.434,0.5-0.4c0.066,0.101,0.134,0.15,0.2,0.15
				c0.434-0.066,0.7-0.116,0.8-0.15c0-0.1,0.101-0.133,0.3-0.1c0.2,0.033,0.334,0.184,0.4,0.45c-0.033,0.267,0.017,0.434,0.15,0.5
				c0.233,0.133,0.433,0.017,0.6-0.351c0.167-0.333,0.316-0.733,0.45-1.199c0.133-0.434,0.184-0.5,0.149-0.2
				c0.034,0.233,0.233,0.35,0.601,0.35C37.017,27.866,37.4,27.75,37.6,27.45z"/>
		</g>
	</g>
	<g>
		<path style="fill-rule:evenodd;clip-rule:evenodd;fill:#E6B63C;fill-opacity:0.2235;" d="M17.15,30.35
			c-0.066,0.567-0.267,1-0.6,1.301c-0.333,0.233-0.566,0.033-0.7-0.601C15.717,30.35,15.633,30,15.6,30l-0.55-0.9
			c-0.333,0.167-0.55,0.267-0.65,0.301c-0.233,0.1-0.55,0.149-0.95,0.149c-0.434,0-0.7-0.133-0.8-0.399l-0.7,0.3
			c0.4-0.834,0.9-1.316,1.5-1.45c0.566-0.134,1.7-0.217,3.4-0.25c0.533-0.033,1.25,0.116,2.15,0.45c0.9,0.3,1.433,0.85,1.6,1.649
			c0.1,0.767,0.083,1.367-0.05,1.801c-0.133,0.399-0.267,0.433-0.4,0.1c-0.1-0.366-0.233-0.6-0.4-0.7
			c-0.2-0.1-0.317-0.149-0.35-0.149c-0.367,0-0.667,0.033-0.9,0.1l-0.45,0.1c-0.367,0-0.6-0.083-0.7-0.25
			C17.317,30.616,17.25,30.45,17.15,30.35z"/>
	</g>
</g>
</svg>
