<?xml version="1.0" encoding="iso-8859-1"?>
<!-- Generator: Adobe Illustrator 15.1.0, SVG Export Plug-In . SVG Version: 6.00 Build 0)  -->
<!DOCTYPE svg PUBLIC "-//W3C//DTD SVG 1.1//EN" "http://www.w3.org/Graphics/SVG/1.1/DTD/svg11.dtd">
<svg version="1.1" id="Layer_1" xmlns="http://www.w3.org/2000/svg" xmlns:xlink="http://www.w3.org/1999/xlink" x="0px" y="0px"
	 width="100px" height="60px" viewBox="0 0 100 60" style="enable-background:new 0 0 100 60;" xml:space="preserve">
<symbol  id="quesadilla" viewBox="0 -329.975 534.15 329.975">
	<g id="Layer_1_2_">
		<path style="fill-rule:evenodd;clip-rule:evenodd;fill:#EAD5AA;" d="M314.875-47.85c0.324,0.117,0.666,0.142,1.025,0.075
			c0.474-0.092,0.866-0.325,1.175-0.7c3.458-4.208,6.949-8.683,10.475-13.425c5.04-6.787,10.148-14.121,15.325-22
			c4.807-7.315,9.598-15.007,14.375-23.075c0.248-0.42,0.332-0.87,0.25-1.35l-0.025-0.025c0.082,0.48-0.002,0.93-0.25,1.35
			c-4.777,8.077-9.569,15.777-14.375,23.1c-5.176,7.88-10.284,15.214-15.325,22c-3.516,4.733-7,9.199-10.45,13.4v0.025
			c-0.319,0.364-0.719,0.589-1.2,0.675C315.525-47.731,315.192-47.748,314.875-47.85z M12.3-163.025
			c6.259-5.977,14.076-11.335,23.45-16.075c12.667-6.4,29.9-12.483,51.7-18.25c12.034-3.167,34.684-8.367,67.95-15.6
			c33.566-7.267,60.733-13.617,81.5-19.05c21.4-5.567,41.867-13.167,61.4-22.8c11.4-5.633,26.9-14.45,46.5-26.45
			c18.367-11.267,32.534-19.2,42.5-23.8c10.335-4.784,20.835-8.55,31.5-11.3c3.4,1.9,5.317,2.934,5.75,3.1
			c0.063,0.025,0.13,0.05,0.2,0.075c2,0.783,4.049,1.175,6.15,1.175c1.934,0,3.316-0.333,4.15-1s1.45-1,1.85-1v-4.4
			c0.265-0.101,0.532-0.2,0.8-0.3c9.534-3.533,17.35-5.3,23.45-5.3c9.267,0,21.267,1.317,36,3.95
			c11.208,2.027,19.933,3.552,26.175,4.575c0.493-0.108,0.985-0.233,1.475-0.375c2.8-0.833,5.917-2.217,9.35-4.15v-5
			c-5.867,0-17.483-0.517-34.85-1.55c-10.14-0.618-20.074-1.276-29.8-1.975c-22.575,0.942-41.159,3.284-55.75,7.025
			c-14.833,3.8-30.2,10.65-46.1,20.55c-9.467,6.1-16.917,10.867-22.35,14.3c-9.8,6.2-19.2,11.7-28.2,16.5
			c-25.767,13.767-56.8,26.483-93.1,38.15c-13.333,4.267-33.883,7.967-61.65,11.1c-19.333,2.2-30.25,3.467-32.75,3.8
			c-12.134,1.567-22.333,3.267-30.6,5.1c-3.633,0.767-9.767,2.617-18.4,5.55c-11.833,4-22.717,8.267-32.65,12.8
			C17.984-179.85,3-166.467,3-153.5c0,1.67,0.475,4.104,1.425,7.3c2.285,4.148,5.459,8.648,9.525,13.5
			c2.229,2.663,4.704,5.404,7.425,8.225c0.58,0.964,1.146,1.872,1.7,2.725c0.603,0.927,1.194,1.794,1.775,2.6
			c5.433,7.467,13.083,15.033,22.95,22.7C59-87.783,74.7-77.633,94.9-66c2.255,1.295,4.63,2.662,7.125,4.1
			c11.603,6.702,25.761,14.952,42.475,24.75c15.5,8.996,27.717,15.746,36.65,20.25c0.271,0.135,0.537,0.269,0.8,0.4
			c11.367,5.7,21.417,9.817,30.15,12.35C221.467-1.383,230.734,0,239.9,0c13.51,0,27.71-5.633,42.6-16.9
			c10.248-7.756,20.823-18.181,31.725-31.275c-2.755-1.561-5.314-3.244-7.675-5.05c-0.068-0.036-0.135-0.077-0.2-0.125
			c-3.78-2.95-6.196-5.533-7.25-7.75v-0.025c-0.124-0.254-0.19-0.513-0.2-0.775c-0.011-0.23,0.022-0.464,0.1-0.7
			c0.161-0.507,0.478-0.891,0.95-1.15h-0.025c1.849-1.065,3.216-2.915,4.1-5.55c1.074-4.505,2.065-8.264,2.975-11.275l-0.025,0.025
			c0.121-0.43,0.354-0.78,0.7-1.05h0.025c0.357-0.264,0.757-0.397,1.2-0.4c8.687,0,14.67-0.534,17.95-1.6
			c5.349-1.761,8.032-5.537,8.05-11.325c-0.136-0.918-1.369-2.777-3.7-5.575c-1.557-1.838-2.974-3.389-4.25-4.65
			c-2.48,2.73-4.297,5.53-5.45,8.4c-0.021,0.052-0.046,0.103-0.075,0.15c-0.687,1.858-1.304,4.15-1.85,6.875
			c0.003,0.091-0.005,0.183-0.025,0.275c-0.787,2.841-2.287,4.758-4.5,5.75h0.025c-2.205,1.127-6.221,1.694-12.05,1.7
			c-0.502,0.133-3.043-0.909-7.625-3.125c-0.071-0.021-0.138-0.046-0.2-0.075c-3.722-1.818-6.497-2.751-8.325-2.8
			c-3.064-0.004-5.673,0.904-7.825,2.725c1.087,6.691-0.213,14.482-3.9,23.375c-1.96,4.723-4.594,9.756-7.9,15.1
			c-3.912,6.341-7.962,11.641-12.15,15.9c-4.678,4.747-8.411,7.047-11.2,6.9h-0.025c-6.444,0.005-10.752-0.128-12.925-0.4
			c-3.326-0.438-5.826-1.463-7.5-3.075l-0.025-0.025c-1.346-1.191-2.838-3.574-4.475-7.15c-3.626-7.768-5.576-11.917-5.85-12.45
			v-0.025c-0.203-0.425-0.253-0.867-0.15-1.325c0.097-0.457,0.33-0.832,0.7-1.125v0.025c0.363-0.296,0.771-0.446,1.225-0.45h0.025
			c1.045-0.057,2.612-0.641,4.7-1.75c2.854-1.527,5.28-2.277,7.275-2.25h0.025c1.2-0.044,4.55,1.006,10.05,3.15
			c2.673,1.051,4.707,1.817,6.1,2.3c0.042-0.299,0.091-0.549,0.15-0.75c-0.928-0.422-1.711-0.839-2.35-1.25
			c-0.073-0.051-0.14-0.109-0.2-0.175c-2.498-1.687-3.748-4.445-3.75-8.275c-0.014-0.888,0.094-1.855,0.325-2.9
			c0.579-2.562,1.904-5.595,3.975-9.1c3.597-6.139,7.489-9.139,11.675-9h0.05c1.07-0.021,2.611,0.313,4.625,1
			c0.047,0.016,0.097,0.033,0.15,0.05c1.624,0.606,2.716,0.939,3.275,1H261c0.482,0.015,0.849-0.227,1.1-0.725v0.025
			c0.535-1.162,0.802-2.945,0.8-5.35c-0.017-1.144-0.483-2.177-1.4-3.1c-1.721-1.709-2.587-3.634-2.6-5.775
			c-0.239-1.025,0.761-2.683,3-4.975c2.97-3.039,4.62-4.755,4.95-5.15c0.058-0.065,0.125-0.124,0.2-0.175
			c3.233-3.735,4.692-7.176,4.375-10.325c-3.938,0.803-6.513-0.389-7.725-3.575c-0.008-0.017-0.016-0.033-0.025-0.05
			c-0.045-0.121-0.079-0.246-0.1-0.375l0.025,0.05c-0.419-2.04-0.911-3.506-1.475-4.4c-6.325,1.219-10.517,3.527-12.575,6.925
			c2.04,1.053,3.623,2.112,4.75,3.175c3.047,2.808,4.581,6.383,4.6,10.725V-101c0.238,4.778-9.345,14.961-28.75,30.55
			c-0.367,0.297-0.784,0.448-1.25,0.45c-3.849-0.012-7.157-1.104-9.925-3.275c-0.413,0.436-0.938,0.994-1.575,1.675h0.025
			c-1.613,1.865-3.963,2.382-7.05,1.55c-0.015-0.008-0.032-0.017-0.05-0.025c-0.42-0.122-0.762-0.363-1.025-0.725
			c-0.273-0.355-0.406-0.755-0.4-1.2v-8c0.003-0.545,0.195-1.012,0.575-1.4l0.025-0.025c0.385-0.377,0.844-0.569,1.375-0.575h0.025
			c3.305-0.117,7.938-2.601,13.9-7.45c3.174-2.574,6.091-5.207,8.75-7.9c-5.308-2.639-9.224-5.656-11.75-9.05
			c-3.269-4.27-4.902-9.803-4.9-16.6c-0.004-2.416,0.229-4.333,0.7-5.75c-3.762,2.365-7.611,5.232-11.55,8.6
			c-4.35,3.719-6.733,5.844-7.15,6.375c0.029,1.233,0.229,4.875,0.6,10.925c0.243,4.227,0.043,7.393-0.6,9.5h0.025
			C197.325-87.117,190.65-84,178.9-84c-7.644-0.004-13.21-0.704-16.7-2.1c-0.057-0.023-0.107-0.048-0.15-0.075
			c-6.074-2.411-9.124-7.011-9.15-13.8V-100c-0.085-2.581,1.382-5.98,4.4-10.2c0.02-0.022,0.037-0.047,0.05-0.075
			c1.029-1.398,2.112-2.756,3.25-4.075c-0.706-0.363-1.231-0.921-1.575-1.675c-0.061-0.113-0.111-0.229-0.15-0.35l0.025,0.025
			c-0.585-1.792-1.202-3.409-1.85-4.85c-0.179-0.416-0.213-0.841-0.1-1.275v-0.025c0.115-0.435,0.349-0.793,0.7-1.075l0.025-0.025
			c0.358-0.263,0.758-0.396,1.2-0.4h0.05c0.475-0.035,0.917-0.251,1.325-0.65c0.048-0.051,0.099-0.101,0.15-0.15
			c-0.264-0.203-0.497-0.445-0.7-0.725c-2.114,0.708-4.064,1.583-5.85,2.625c-0.039,0.021-0.081,0.038-0.125,0.05
			c0.78,0.953,1.172,2.57,1.175,4.85c0.025,2.359-0.725,4.734-2.25,7.125c-0.047,0.073-0.105,0.139-0.175,0.2
			c-2.085,3.092-4.894,4.65-8.425,4.675c-0.715,0.212-2.765-0.921-6.15-3.4c-2.272-1.681-4.281-2.547-6.025-2.6
			c-1.424,0.085-2.815,0.885-4.175,2.4c-0.061,0.065-0.127,0.124-0.2,0.175c-0.705,0.794-1.363,1.71-1.975,2.75
			c0.849,0.577,1.416,1.044,1.7,1.4l-0.075-0.05l0.025,0.025c0.016,0.009,0.033,0.017,0.05,0.025
			c1.151,1.256,2.326,3.448,3.525,6.575c0.163,0.421,0.179,0.846,0.05,1.275l0.025-0.05c-0.116,0.438-0.349,0.796-0.7,1.075h-0.025
			c-0.355,0.269-0.755,0.403-1.2,0.4c-3.129,0.005-5.629,0.838-7.5,2.5c-2.604,2.36-5.428,3.526-8.475,3.5H112.9
			c-1.54,0.051-4.206-0.749-8-2.4c-3.684-1.608-7.351-3.558-11-5.85c-10.221-6.328-15.221-11.911-15-16.75v-0.025
			c0-0.33,0.008-0.655,0.025-0.975c0.021-0.408,0.154-0.775,0.4-1.1c0.249-0.33,0.565-0.563,0.95-0.7
			c5.016-1.691,10.774-4.542,17.275-8.55c1.791-1.122,6.174-3.988,13.15-8.6c4.901-3.247,8.61-5.497,11.125-6.75
			c0.058-0.036,0.116-0.069,0.175-0.1c6.254-3.112,17.088-5.145,32.5-6.1h0.1c0.094-0.002,6.127-0.285,18.1-0.85
			c6.933-0.335,12.249-0.751,15.95-1.25c6.681-0.971,16.681-2.371,30-4.2c11.368-1.754,21.084-3.654,29.15-5.7
			c21.232-5.408,38.499-13.941,51.8-25.6c5.146-4.53,18.129-16.813,38.95-36.85c16.11-15.466,29.727-27.399,40.85-35.8
			c15.9-11.982,31.75-21.015,47.55-27.1c18.62-7.159,38.354-10.742,59.2-10.75c4.032-0.06,7.865,1.798,11.5,5.575v0.025
			c0.035,0.032,0.068,0.065,0.1,0.1c0.625-0.534,1.259-1.067,1.9-1.6c6.346-5.259,11.445-9.534,15.3-12.825
			c-17.071-2.183-28.338-3.275-33.8-3.275c-22.8,0-43,3.383-60.6,10.15c-14.5,5.567-29.617,14.533-45.35,26.9
			c-5.667,4.434-12.883,10.45-21.65,18.05c-14.6,12.733-22.383,19.5-23.35,20.3c-20.466,17.467-40.233,32.333-59.3,44.6
			c-15.167,9.7-33.233,17.3-54.2,22.8c-20.767,5.434-40.7,7.833-59.8,7.2c-9-0.333-18.2,1.017-27.6,4.05
			c-5.966,1.934-14.117,5.4-24.45,10.4c-10.9,5.267-18.95,8.816-24.15,10.65c-9.3,3.267-18.233,4.9-26.8,4.9
			c-3.9,0-8.383-0.833-13.45-2.5c-5.6-1.833-10.767-4.317-15.5-7.45c-8.813-5.908-14.396-12.857-16.75-20.85
			C9.481-160.244,10.848-161.652,12.3-163.025z M243.775-50.15c-0.052-0.023-0.102-0.048-0.15-0.075
			c-0.107,0.193-0.199,0.402-0.275,0.625c0.079-0.146,0.196-0.262,0.35-0.35c0.038-0.021,0.08-0.037,0.125-0.05L243.775-50.15z
			 M376.25-144.175c0.426,0.076,0.834,0.018,1.225-0.175h-0.025c-0.399,0.182-0.816,0.232-1.25,0.15L376.25-144.175z
			 M463.601-258.725c-0.354,0.313-0.704,0.621-1.05,0.925c-35.095,30.97-56.378,54.52-63.85,70.65c-0.104,0.229-0.204,0.462-0.3,0.7
			c0.107-0.245,0.216-0.486,0.325-0.725c7.472-16.122,28.755-39.664,63.85-70.625C462.917-258.101,463.259-258.409,463.601-258.725z
			 M498.101-288.375c0.061-0.182,0.094-0.365,0.1-0.55c-0.009,0.176-0.042,0.351-0.1,0.525V-288.375z M184.9-76l1-0.25l1-1.75
			c6.767-1.467,12.1,1.2,16,8c-3.367,7.5-8.883,9.583-16.55,6.25c-0.467-0.167-0.95-0.25-1.45-0.25V-76z"/>
		<path style="fill-rule:evenodd;clip-rule:evenodd;fill:#C7884E;" d="M497.75-290.3c-0.032-0.035-0.065-0.068-0.1-0.1v-0.025
			c-3.635-3.777-7.468-5.635-11.5-5.575c-20.847,0.008-40.58,3.591-59.2,10.75c-15.8,6.085-31.65,15.118-47.55,27.1
			c-11.124,8.4-24.74,20.334-40.85,35.8c-20.82,20.037-33.804,32.32-38.95,36.85c-13.302,11.659-30.568,20.192-51.8,25.6
			c-8.066,2.045-17.782,3.946-29.15,5.7c-13.319,1.83-23.319,3.229-30,4.2c-3.701,0.499-9.018,0.915-15.95,1.25
			c-11.973,0.565-18.006,0.848-18.1,0.85h-0.1c-15.412,0.955-26.246,2.988-32.5,6.1c-0.059,0.03-0.117,0.063-0.175,0.1
			c-2.515,1.253-6.224,3.503-11.125,6.75c-6.976,4.612-11.359,7.479-13.15,8.6c-6.501,4.009-12.259,6.859-17.275,8.55
			c-0.385,0.137-0.702,0.37-0.95,0.7c-0.246,0.325-0.379,0.692-0.4,1.1c-0.017,0.32-0.025,0.645-0.025,0.975V-115
			c-0.221,4.839,4.779,10.422,15,16.75c3.649,2.292,7.316,4.242,11,5.85c3.794,1.651,6.46,2.451,8,2.4h0.025
			c3.047,0.026,5.872-1.14,8.475-3.5c1.871-1.662,4.371-2.495,7.5-2.5c0.445,0.003,0.845-0.131,1.2-0.4h0.025
			c0.351-0.279,0.584-0.638,0.7-1.075l-0.025,0.05c0.129-0.429,0.113-0.854-0.05-1.275c-1.199-3.127-2.374-5.319-3.525-6.575
			c-0.017-0.008-0.034-0.016-0.05-0.025l-0.025-0.025l0.075,0.05c-0.285-0.356-0.852-0.823-1.7-1.4
			c0.612-1.04,1.27-1.956,1.975-2.75c0.073-0.052,0.139-0.11,0.2-0.175c1.36-1.515,2.751-2.315,4.175-2.4
			c1.744,0.053,3.752,0.919,6.025,2.6c3.385,2.479,5.435,3.612,6.15,3.4c3.532-0.025,6.34-1.583,8.425-4.675
			c0.069-0.061,0.127-0.127,0.175-0.2c1.525-2.391,2.275-4.766,2.25-7.125c-0.003-2.28-0.395-3.897-1.175-4.85
			c0.044-0.012,0.086-0.028,0.125-0.05c1.786-1.042,3.735-1.917,5.85-2.625c0.203,0.28,0.437,0.522,0.7,0.725
			c-0.051,0.049-0.102,0.099-0.15,0.15c-0.409,0.398-0.85,0.615-1.325,0.65h-0.05c-0.442,0.004-0.842,0.137-1.2,0.4l-0.025,0.025
			c-0.352,0.282-0.585,0.64-0.7,1.075v0.025c-0.113,0.434-0.079,0.859,0.1,1.275c0.648,1.441,1.265,3.058,1.85,4.85l-0.025-0.025
			c0.039,0.121,0.089,0.237,0.15,0.35c0.344,0.753,0.869,1.312,1.575,1.675c-1.138,1.319-2.221,2.677-3.25,4.075
			c-0.014,0.028-0.03,0.053-0.05,0.075c-3.018,4.22-4.485,7.62-4.4,10.2v0.025c0.026,6.789,3.076,11.389,9.15,13.8
			c0.042,0.026,0.093,0.051,0.15,0.075c3.49,1.396,9.057,2.096,16.7,2.1c11.75,0,18.424-3.117,20.025-9.35H198.9
			c0.643-2.107,0.843-5.273,0.6-9.5c-0.372-6.05-0.571-9.691-0.6-10.925c0.417-0.531,2.8-2.656,7.15-6.375
			c3.939-3.368,7.789-6.235,11.55-8.6c-0.472,1.417-0.705,3.334-0.7,5.75c-0.002,6.797,1.631,12.331,4.9,16.6
			c2.526,3.394,6.442,6.411,11.75,9.05c-2.659,2.693-5.576,5.326-8.75,7.9c-5.962,4.85-10.595,7.333-13.9,7.45h-0.025
			c-0.531,0.006-0.99,0.198-1.375,0.575l-0.025,0.025c-0.38,0.388-0.572,0.855-0.575,1.4v8c-0.006,0.445,0.127,0.845,0.4,1.2
			c0.263,0.361,0.605,0.603,1.025,0.725c0.019,0.009,0.035,0.017,0.05,0.025c3.087,0.832,5.437,0.314,7.05-1.55H217.4
			c0.637-0.681,1.162-1.239,1.575-1.675c2.768,2.171,6.076,3.263,9.925,3.275c0.466-0.002,0.883-0.153,1.25-0.45
			c19.405-15.588,28.988-25.771,28.75-30.55v-0.025c-0.019-4.342-1.553-7.917-4.6-10.725c-1.127-1.063-2.71-2.122-4.75-3.175
			c2.058-3.398,6.25-5.707,12.575-6.925c0.564,0.894,1.056,2.36,1.475,4.4l-0.025-0.05c0.021,0.129,0.055,0.254,0.1,0.375
			c0.009,0.017,0.017,0.033,0.025,0.05c1.212,3.186,3.787,4.378,7.725,3.575c0.317,3.149-1.142,6.59-4.375,10.325
			c-0.075,0.051-0.142,0.109-0.2,0.175c-0.331,0.395-1.98,2.111-4.95,5.15c-2.239,2.292-3.239,3.95-3,4.975
			c0.013,2.141,0.879,4.066,2.6,5.775c0.917,0.923,1.383,1.957,1.4,3.1c0.002,2.405-0.265,4.188-0.8,5.35v-0.025
			c-0.251,0.498-0.618,0.739-1.1,0.725h-0.025c-0.56-0.061-1.651-0.394-3.275-1c-0.053-0.017-0.103-0.034-0.15-0.05
			c-2.014-0.688-3.555-1.021-4.625-1h-0.05c-4.186-0.139-8.078,2.861-11.675,9c-2.07,3.505-3.396,6.538-3.975,9.1
			c-0.231,1.045-0.339,2.012-0.325,2.9c0.002,3.83,1.252,6.588,3.75,8.275c0.061,0.066,0.127,0.125,0.2,0.175
			c0.638,0.411,1.421,0.828,2.35,1.25c-0.059,0.201-0.108,0.451-0.15,0.75c-1.393-0.483-3.427-1.25-6.1-2.3
			c-5.5-2.144-8.85-3.194-10.05-3.15h-0.025c-1.995-0.027-4.42,0.723-7.275,2.25c-2.088,1.109-3.655,1.693-4.7,1.75h-0.025
			c-0.454,0.004-0.862,0.154-1.225,0.45v-0.025c-0.37,0.293-0.604,0.668-0.7,1.125c-0.103,0.458-0.052,0.9,0.15,1.325v0.025
			c0.273,0.533,2.224,4.683,5.85,12.45c1.637,3.576,3.129,5.959,4.475,7.15l0.025,0.025c1.674,1.612,4.174,2.637,7.5,3.075
			c2.173,0.271,6.481,0.405,12.925,0.4h0.025c2.789,0.147,6.522-2.153,11.2-6.9c4.188-4.259,8.238-9.559,12.15-15.9
			c3.306-5.344,5.939-10.377,7.9-15.1c3.687-8.893,4.987-16.684,3.9-23.375c2.152-1.821,4.761-2.729,7.825-2.725
			c1.828,0.049,4.603,0.982,8.325,2.8c0.062,0.029,0.129,0.054,0.2,0.075c4.582,2.216,7.123,3.258,7.625,3.125
			c5.829-0.006,9.845-0.573,12.05-1.7h-0.025c2.213-0.992,3.713-2.909,4.5-5.75c0.02-0.092,0.028-0.184,0.025-0.275
			c0.546-2.725,1.163-5.017,1.85-6.875c0.029-0.047,0.054-0.098,0.075-0.15c1.153-2.87,2.969-5.67,5.45-8.4
			c1.276,1.261,2.693,2.812,4.25,4.65c2.331,2.798,3.564,4.657,3.7,5.575c-0.018,5.788-2.701,9.563-8.05,11.325
			c-3.28,1.066-9.263,1.6-17.95,1.6c-0.443,0.002-0.843,0.136-1.2,0.4h-0.025c-0.346,0.271-0.579,0.621-0.7,1.05L307-80.575
			c-0.91,3.012-1.901,6.771-2.975,11.275c-0.884,2.635-2.251,4.485-4.1,5.55h0.025c-0.472,0.259-0.789,0.643-0.95,1.15
			c-0.078,0.236-0.111,0.47-0.1,0.7c0.01,0.262,0.076,0.521,0.2,0.775v0.025c1.054,2.217,3.47,4.8,7.25,7.75
			c0.064,0.048,0.131,0.089,0.2,0.125c2.361,1.806,4.92,3.49,7.675,5.05c0.047,0.037,0.097,0.07,0.15,0.1
			c0.034,0.019,0.067,0.035,0.1,0.05c0.017,0.007,0.034,0.016,0.05,0.025h0.025l0.325,0.15c0.317,0.103,0.65,0.119,1,0.05
			c0.481-0.086,0.881-0.312,1.2-0.675V-48.5c3.451-4.201,6.934-8.667,10.45-13.4c5.041-6.786,10.149-14.12,15.325-22
			c4.806-7.323,9.598-15.023,14.375-23.1c0.248-0.42,0.332-0.87,0.25-1.35l0.025,0.025c-0.079-0.481-0.304-0.882-0.675-1.2
			l-0.025-0.025c-0.044-0.044-0.085-0.086-0.125-0.125c-0.038-0.022-0.08-0.039-0.125-0.05l-0.025-0.025
			c-0.309-0.165-0.643-0.249-1-0.25H355.4c-6.506-3.619-10.707-6.336-12.6-8.15c-2.597-2.595-3.896-6.878-3.9-12.85
			c0.105-5.673,3.722-10.073,10.85-13.2c5.747-2.527,11.796-3.794,18.15-3.8c2.732,0.019,5.141,1.102,7.225,3.25h0.025
			c0.157,0.16,0.332,0.293,0.525,0.4c0.025,0.009,0.05,0.017,0.075,0.025c0.076,0.035,0.159,0.068,0.25,0.1l0.25,0.05l-0.05-0.025
			c0.434,0.083,0.851,0.032,1.25-0.15h0.025c0.256-0.13,0.473-0.305,0.65-0.525c0.093-0.11,0.176-0.235,0.25-0.375
			c0.107-0.208,0.215-0.416,0.325-0.625l19.7-40.575c0.096-0.238,0.195-0.471,0.3-0.7c7.472-16.13,28.755-39.68,63.85-70.65
			c0.347-0.304,0.697-0.613,1.05-0.925l32.025-27.2c0.624-0.513,1.249-1.029,1.875-1.55v-0.025c0.281-0.233,0.481-0.525,0.6-0.875
			v-0.025c0.057-0.174,0.09-0.349,0.1-0.525l-0.05-0.525c-0.004-0.02-0.013-0.037-0.025-0.05l-0.1-0.325
			C497.958-289.996,497.866-290.155,497.75-290.3z M323.175-61.9c-2.675,3.556-5.333,6.956-7.975,10.2
			c-2.321-1.339-4.496-2.772-6.525-4.3c-0.032-0.056-0.074-0.106-0.125-0.15c-2.6-2.018-4.466-3.817-5.6-5.4
			c0.149-0.112,0.299-0.229,0.45-0.35c1.729-1.472,3.055-3.588,3.975-6.35c0.009-0.027,0.017-0.052,0.025-0.075
			c0.009-0.042,0.018-0.084,0.025-0.125c0.925-3.926,1.792-7.276,2.6-10.05c8.629-0.047,14.621-0.639,17.975-1.775
			c6.933-2.29,10.399-7.198,10.4-14.725v-0.025c0.104-1.431-1.388-4.014-4.475-7.75H333.9c-2.128-2.499-4.003-4.499-5.625-6
			c-0.396-0.376-0.862-0.559-1.4-0.55c-0.536,0.013-0.995,0.213-1.375,0.6h-0.025c-3.369,3.455-5.77,7.005-7.2,10.65
			c-0.026,0.066-0.043,0.132-0.05,0.2c-0.749,1.959-1.424,4.376-2.025,7.25c-0.017,0.061-0.033,0.127-0.05,0.2
			c-0.008,0.017-0.016,0.033-0.025,0.05c-0.459,1.708-1.317,2.883-2.575,3.525c-1.946,0.897-5.479,1.347-10.6,1.35
			c-0.339-0.065-2.347-0.982-6.025-2.75c-0.042-0.037-0.093-0.071-0.15-0.1c-4.391-2.138-7.683-3.188-9.875-3.15
			c-4.321-0.007-7.938,1.393-10.85,4.2l-0.025,0.025c-0.228,0.242-0.386,0.525-0.475,0.85v-0.025
			c-0.099,0.313-0.116,0.629-0.05,0.95v0.025c1.174,6.652-0.209,14.51-4.15,23.575c-1.819,4.169-4.177,8.594-7.075,13.275
			c-3.733,6.03-7.591,11.08-11.575,15.15c-0.054,0.037-0.104,0.079-0.15,0.125c-3.717,3.788-6.601,5.738-8.65,5.85
			c-6.236-0.004-10.402-0.137-12.5-0.4h-0.025c-2.44-0.312-4.29-1.02-5.55-2.125L225.8-30.05c-1.082-1.041-2.315-3.074-3.7-6.1
			c-2.405-5.162-4.071-8.729-5-10.7c1.157-0.36,2.549-0.977,4.175-1.85c2.221-1.179,4.096-1.779,5.625-1.8h0.025
			c0.975,0.038,3.875,0.996,8.7,2.875c4.329,1.707,7.087,2.707,8.275,3c0.396,0.103,0.788,0.086,1.175-0.05
			c0.016-0.008,0.032-0.017,0.05-0.025c0.379-0.148,0.688-0.39,0.925-0.725c0.229-0.332,0.346-0.698,0.35-1.1v-0.025
			c0.021-0.813,0.08-1.388,0.175-1.725c0.012-0.036,0.021-0.069,0.025-0.1c0.023-0.058,0.048-0.107,0.075-0.15l0.025-0.025
			c0.342-0.298,0.551-0.673,0.625-1.125c0.086-0.467,0.02-0.909-0.2-1.325v-0.025c-0.234-0.406-0.576-0.689-1.025-0.85h0.025
			c-1.408-0.561-2.524-1.11-3.35-1.65c-0.048-0.031-0.098-0.056-0.15-0.075c-1.48-1.147-2.222-2.947-2.225-5.4
			c0.012-0.875,0.162-1.841,0.45-2.9c0.569-2.09,1.677-4.541,3.325-7.35c2.788-4.719,5.705-7.135,8.75-7.25
			c0.789,0.026,1.922,0.293,3.4,0.8c0.049,0.031,0.1,0.056,0.15,0.075c2.096,0.77,3.521,1.161,4.275,1.175h0.15
			c0.025,0.002,0.05,0.002,0.075,0c1.891,0.128,3.316-0.755,4.275-2.65c0.773-1.489,1.156-3.789,1.15-6.9
			c0.014-2.059-0.803-3.909-2.45-5.55c-0.999-1.006-1.516-2.131-1.55-3.375c0.125-0.388,0.808-1.213,2.05-2.475
			c3.082-3.146,4.79-4.921,5.125-5.325c0.056-0.068,0.098-0.143,0.125-0.225c4.735-5.449,6.327-10.458,4.775-15.025v0.025
			c-0.156-0.537-0.481-0.937-0.975-1.2l0.025,0.025c-0.5-0.261-1.017-0.312-1.55-0.15c-2.535,0.787-4.21,0.412-5.025-1.125
			c-0.716-3.376-1.674-5.56-2.875-6.55l0.05,0.025c-0.222-0.213-0.48-0.363-0.775-0.45h-0.025c-0.304-0.086-0.612-0.103-0.925-0.05
			c-9.141,1.563-14.716,5.046-16.725,10.45V-115c-0.196,0.502-0.196,1.002,0,1.5c0.19,0.486,0.523,0.836,1,1.05
			c2.329,1.088,4.087,2.172,5.275,3.25v-0.025c2.314,2.153,3.464,4.895,3.45,8.225c-0.189,3.984-9.181,13.151-26.975,27.5
			c-3.228-0.103-5.953-1.195-8.175-3.275h0.025c-0.394-0.373-0.86-0.556-1.4-0.55h-0.025c-0.538,0.008-0.996,0.208-1.375,0.6h0.025
			c-0.406,0.405-1.272,1.321-2.6,2.75l-0.025,0.025c-0.628,0.567-1.453,0.801-2.475,0.7v-5.375
			c3.718-0.524,8.577-3.233,14.575-8.125c3.89-3.155,7.398-6.405,10.525-9.75v0.025c0.309-0.311,0.492-0.678,0.55-1.1V-97.6
			c0.047-0.433-0.036-0.841-0.25-1.225c-0.009-0.016-0.017-0.033-0.025-0.05c-0.226-0.367-0.543-0.634-0.95-0.8l0.025,0.025
			c-5.616-2.542-9.699-5.492-12.25-8.85c-2.799-3.739-4.199-8.573-4.2-14.5c0.002-2.359,0.269-4.101,0.8-5.225
			c0.017-0.036,0.034-0.069,0.05-0.1c0.577-1.083,1.71-2.292,3.4-3.625c0.333-0.26,0.558-0.594,0.675-1l-0.025,0.025
			c0.133-0.402,0.133-0.802,0-1.2v-0.025c-0.148-0.401-0.398-0.726-0.75-0.975v-0.025c-0.347-0.237-0.731-0.354-1.15-0.35h-0.375
			c-0.306-0.001-0.597,0.066-0.875,0.2h-0.025c-5.9,2.917-12.017,7.091-18.35,12.525c-5.767,4.918-8.559,7.818-8.375,8.7
			c-0.003,0.051-0.003,0.101,0,0.15c0.007,1.077,0.207,4.827,0.6,11.25c0.227,3.719,0.085,6.51-0.425,8.375v-0.025
			c-1.538,4.551-7.096,6.827-16.675,6.825c-7.047,0.008-12.18-0.601-15.4-1.825c-0.05-0.021-0.1-0.038-0.15-0.05
			c-4.643-1.843-6.96-5.376-6.95-10.6V-100c0.079-2.038,1.337-4.763,3.775-8.175c1.475-2.014,3.075-3.922,4.8-5.725v-0.025
			c0.282-0.298,0.457-0.648,0.525-1.05l-0.025,0.025c0.075-0.404,0.033-0.796-0.125-1.175c-0.167-0.375-0.425-0.667-0.775-0.875
			c-0.355-0.215-0.738-0.315-1.15-0.3c-0.611,0.029-1.036-0.087-1.275-0.35c-0.381-1.177-0.773-2.277-1.175-3.3
			c0.602-0.286,1.176-0.702,1.725-1.25c0.935-0.925,1.484-1.934,1.65-3.025l-0.025,0.05c0.107-0.545,0.007-1.045-0.3-1.5L164-126.7
			c-0.321-0.455-0.754-0.73-1.3-0.825l0.025,0.025c-0.057-0.013-0.107-0.038-0.15-0.075l-0.075-0.3l-0.025-0.025
			c-0.091-0.346-0.266-0.646-0.525-0.9l0.025,0.05c-0.253-0.268-0.553-0.451-0.9-0.55c-0.019-0.009-0.035-0.017-0.05-0.025
			c-0.35-0.083-0.699-0.066-1.05,0.05H160c-2.899,0.831-5.533,1.931-7.9,3.3l-0.025,0.025c-0.124,0.078-0.232,0.161-0.325,0.25
			l-2.325,1.575c-0.362,0.244-0.621,0.569-0.775,0.975l-0.025,0.025c-0.142,0.414-0.142,0.831,0,1.25v-0.05
			c0.115,0.417,0.34,0.758,0.675,1.025l0.025,0.025c0.343,0.262,0.727,0.396,1.15,0.4h0.025c0.204,0.005,0.378,0.005,0.525,0
			c0.246,0.424,0.371,1.249,0.375,2.475c-0.019,1.725-0.593,3.467-1.725,5.225c-0.047,0.076-0.081,0.151-0.1,0.225
			c-1.409,1.997-3.292,3.013-5.65,3.05H143.9c-0.417-0.198-1.718-1.099-3.9-2.7c-3.027-2.242-5.727-3.341-8.1-3.3
			c-2.368-0.059-4.643,1.116-6.825,3.525v0.025c-0.053,0.059-0.103,0.117-0.15,0.175c-1.167,1.3-2.225,2.866-3.175,4.7
			c-0.239,0.464-0.289,0.947-0.15,1.45l0.025,0.025c0.142,0.487,0.434,0.862,0.875,1.125c1.078,0.675,1.761,1.167,2.05,1.475
			c0.017,0.026,0.034,0.051,0.05,0.075l0.025,0.025c0.674,0.765,1.366,1.931,2.075,3.5c-3.114,0.347-5.672,1.438-7.675,3.275
			c-1.872,1.711-3.913,2.586-6.125,2.625c-1.256-0.054-3.456-0.771-6.6-2.15c-3.542-1.531-7.066-3.39-10.575-5.575
			c-8.578-5.314-13.02-9.848-13.325-13.6c4.989-1.786,10.647-4.636,16.975-8.55c1.811-1.146,6.228-4.046,13.25-8.7
			c4.756-3.146,8.34-5.313,10.75-6.5c0.072-0.021,0.138-0.045,0.2-0.075c5.977-2.914,16.327-4.83,31.05-5.75h0.025
			c0.449-0.017,6.524-0.3,18.225-0.85c7.046-0.332,12.446-0.749,16.2-1.25h0.05c6.651-0.966,16.634-2.367,29.95-4.2h0.05
			c11.524-1.773,21.375-3.699,29.55-5.775c21.817-5.573,39.55-14.373,53.2-26.4c5.182-4.531,18.223-16.84,39.125-36.925
			c15.976-15.355,29.476-27.205,40.5-35.55c15.609-11.785,31.167-20.676,46.675-26.675c18.235-6.993,37.56-10.485,57.975-10.475
			c2.697,0.031,5.297,1.156,7.8,3.375c-14.018,11.705-25.243,21.272-33.675,28.7c-35.629,31.426-57.204,55.352-64.725,71.775
			c-6.447,14.065-12.921,27.424-19.425,40.075c-2.44-1.957-5.182-2.932-8.225-2.925c-6.844-0.008-13.36,1.342-19.55,4.05
			c-8.715,3.842-13.031,9.326-12.95,16.45c-0.004,7.194,1.646,12.327,4.95,15.4c1.967,1.902,6.292,4.71,12.975,8.425
			c-4.44,7.443-8.89,14.56-13.35,21.35C334.295-77.189,328.695-69.214,323.175-61.9z M243.775-50.15l0.05,0.15
			c-0.045,0.013-0.087,0.029-0.125,0.05c-0.153,0.088-0.271,0.205-0.35,0.35c0.076-0.223,0.167-0.432,0.275-0.625
			c0.024-0.041,0.049-0.083,0.075-0.125L243.775-50.15z M4.425-146.2C3.476-149.396,3-151.83,3-153.5
			c0-12.967,14.983-26.35,44.95-40.15c9.934-4.533,20.817-8.8,32.65-12.8c8.633-2.933,14.767-4.783,18.4-5.55
			c8.267-1.833,18.466-3.533,30.6-5.1c2.5-0.333,13.417-1.6,32.75-3.8c27.767-3.133,48.316-6.833,61.65-11.1
			c36.3-11.667,67.333-24.383,93.1-38.15c9-4.8,18.4-10.3,28.2-16.5c5.434-3.434,12.883-8.2,22.35-14.3
			c15.9-9.9,31.267-16.75,46.1-20.55c14.591-3.741,33.175-6.083,55.75-7.025c-6.465-0.465-12.84-0.949-19.125-1.45
			c-21.775,0.22-40.25,2.695-55.425,7.425c-11.933,3.733-25.283,10.267-40.05,19.6c-8.667,5.633-15.4,9.983-20.2,13.05
			c-8.667,5.533-16.716,10.383-24.15,14.55C289.384-263.55,265.534-253.1,239-244c-12.1,4.167-34.317,8.883-66.65,14.15
			c-39.3,6.434-60.75,10.05-64.35,10.85c-16.6,3.7-32.75,8.7-48.45,15c-13.5,5.433-27.35,12.1-41.55,20c-2.4,2.533-5,4.75-7.8,6.65
			c-2.767,1.733-4.65,2.983-5.65,3.75c-1.633,1.233-2.767,2.684-3.4,4.35c-0.767,2-1.15,4.917-1.15,8.75
			C0-156.316,1.476-151.55,4.425-146.2z M184.9-76v12c0.5,0,0.983,0.083,1.45,0.25c7.667,3.333,13.183,1.25,16.55-6.25
			c-3.9-6.8-9.233-9.467-16-8l-1,1.75L184.9-76z M128.425-97.875c0.01,0.017,0.019,0.034,0.025,0.05h-0.025V-97.875z
			 M191.325-130.375v-0.025c-1.627-1.404-4.436-2.104-8.425-2.1c-3.037-0.002-5.096,0.082-6.175,0.25
			c-1.714,0.268-3.047,0.834-4,1.7c-0.099,0.1-0.174,0.216-0.225,0.35c-0.063,0.127-0.096,0.261-0.1,0.4
			c-0.007,1.072-0.057,2.681-0.15,4.825v0.025c-0.027,1.978,0.207,3.595,0.7,4.85c0.015,0.055,0.032,0.105,0.05,0.15
			c1.15,2.982,4.025,4.958,8.625,5.925c0.176,0.041,0.351,0.032,0.525-0.025c1.146-0.396,2.155-0.796,3.025-1.2
			c5.523-2.54,8.265-5.79,8.225-9.75C193.398-127.44,192.706-129.232,191.325-130.375z M192.4-125
			c-0.034,3.571-2.584,6.521-7.65,8.85c-0.841,0.387-1.816,0.771-2.925,1.15c-4.187-0.882-6.82-2.657-7.9-5.325v-0.025
			c-0.476-1.177-0.701-2.702-0.675-4.575c0.094-2.166,0.144-3.791,0.15-4.875c0.831-0.737,1.989-1.22,3.475-1.45
			c1.054-0.165,3.062-0.248,6.025-0.25c3.675-0.002,6.267,0.623,7.775,1.875C191.824-128.633,192.399-127.091,192.4-125z
			 M162.175-117.55l0.025,0.025v0.025C162.194-117.52,162.186-117.536,162.175-117.55z M159.226-121.6l-0.025-0.025h0.025V-121.6z
			 M152.75-124.45l0.25,0.3l-0.125,0.1L152.75-124.45z M152.175-123.575l-0.05-0.25h0.05c0.03,0.06,0.063,0.118,0.1,0.175
			L152.175-123.575z"/>
		<path style="fill-rule:evenodd;clip-rule:evenodd;fill:#BC691B;" d="M323.175-61.9c5.52-7.314,11.12-15.289,16.8-23.925
			c4.459-6.79,8.909-13.906,13.35-21.35c-6.683-3.715-11.007-6.523-12.975-8.425c-3.304-3.073-4.954-8.206-4.95-15.4
			c-0.081-7.125,4.235-12.608,12.95-16.45c6.189-2.708,12.706-4.058,19.55-4.05c3.043-0.007,5.785,0.968,8.225,2.925
			c6.503-12.651,12.978-26.009,19.425-40.075c7.521-16.423,29.096-40.349,64.725-71.775c8.432-7.428,19.657-16.995,33.675-28.7
			c-2.503-2.219-5.103-3.344-7.8-3.375c-20.415-0.01-39.74,3.482-57.975,10.475c-15.508,5.999-31.066,14.89-46.675,26.675
			c-11.024,8.346-24.524,20.195-40.5,35.55c-20.902,20.085-33.943,32.394-39.125,36.925c-13.65,12.027-31.383,20.827-53.2,26.4
			c-8.175,2.076-18.025,4.001-29.55,5.775h-0.05c-13.315,1.833-23.299,3.234-29.95,4.2h-0.05c-3.753,0.501-9.153,0.918-16.2,1.25
			c-11.701,0.55-17.776,0.833-18.225,0.85h-0.025c-14.723,0.92-25.073,2.836-31.05,5.75c-0.062,0.029-0.128,0.054-0.2,0.075
			c-2.41,1.187-5.994,3.354-10.75,6.5c-7.022,4.654-11.439,7.554-13.25,8.7c-6.328,3.914-11.986,6.764-16.975,8.55
			c0.305,3.752,4.747,8.286,13.325,13.6c3.508,2.186,7.033,4.044,10.575,5.575c3.144,1.379,5.344,2.096,6.6,2.15
			c2.212-0.039,4.253-0.914,6.125-2.625c2.003-1.836,4.561-2.928,7.675-3.275c-0.709-1.569-1.401-2.735-2.075-3.5l-0.025-0.025
			c-0.017-0.024-0.033-0.049-0.05-0.075c-0.289-0.308-0.972-0.8-2.05-1.475c-0.441-0.263-0.733-0.638-0.875-1.125l-0.025-0.025
			c-0.139-0.503-0.089-0.986,0.15-1.45c0.95-1.833,2.008-3.4,3.175-4.7c0.047-0.059,0.097-0.117,0.15-0.175v-0.025
			c2.182-2.409,4.457-3.584,6.825-3.525c2.373-0.042,5.073,1.058,8.1,3.3c2.182,1.602,3.482,2.502,3.9,2.7h0.025
			c2.357-0.037,4.241-1.053,5.65-3.05c0.02-0.074,0.053-0.149,0.1-0.225c1.132-1.758,1.707-3.5,1.725-5.225
			c-0.004-1.226-0.129-2.051-0.375-2.475c-0.146,0.005-0.321,0.005-0.525,0h-0.025c-0.424-0.004-0.807-0.138-1.15-0.4L149.3-120.9
			c-0.335-0.267-0.56-0.608-0.675-1.025v0.05c-0.142-0.419-0.142-0.836,0-1.25l0.025-0.025c0.154-0.406,0.413-0.731,0.775-0.975
			l2.325-1.575c0.093-0.089,0.201-0.172,0.325-0.25l0.025-0.025c2.367-1.369,5-2.469,7.9-3.3h-0.025
			c0.351-0.116,0.7-0.133,1.05-0.05c0.015,0.008,0.031,0.017,0.05,0.025c0.347,0.099,0.647,0.282,0.9,0.55l-0.025-0.05
			c0.259,0.254,0.435,0.554,0.525,0.9l0.025,0.025l0.075,0.3c0.043,0.037,0.093,0.062,0.15,0.075l-0.025-0.025
			c0.546,0.095,0.979,0.37,1.3,0.825l0.025,0.025c0.307,0.455,0.407,0.955,0.3,1.5l0.025-0.05c-0.166,1.091-0.716,2.1-1.65,3.025
			c-0.548,0.548-1.123,0.964-1.725,1.25c0.401,1.023,0.793,2.123,1.175,3.3c0.239,0.263,0.664,0.379,1.275,0.35
			c0.412-0.015,0.795,0.084,1.15,0.3c0.351,0.208,0.609,0.5,0.775,0.875c0.158,0.379,0.2,0.771,0.125,1.175l0.025-0.025
			c-0.068,0.402-0.243,0.752-0.525,1.05v0.025c-1.726,1.803-3.326,3.711-4.8,5.725c-2.438,3.412-3.696,6.137-3.775,8.175v0.025
			c-0.01,5.224,2.307,8.757,6.95,10.6c0.05,0.012,0.1,0.029,0.15,0.05c3.22,1.225,8.353,1.833,15.4,1.825
			c9.579,0.001,15.137-2.274,16.675-6.825v0.025c0.51-1.865,0.652-4.656,0.425-8.375c-0.393-6.423-0.593-10.173-0.6-11.25
			c-0.003-0.049-0.003-0.1,0-0.15c-0.184-0.881,2.608-3.781,8.375-8.7c6.333-5.434,12.45-9.608,18.35-12.525h0.025
			c0.278-0.134,0.569-0.201,0.875-0.2h0.375c0.419-0.003,0.803,0.113,1.15,0.35v0.025c0.352,0.249,0.602,0.574,0.75,0.975v0.025
			c0.133,0.398,0.133,0.798,0,1.2l0.025-0.025c-0.117,0.406-0.342,0.74-0.675,1c-1.69,1.333-2.823,2.542-3.4,3.625
			c-0.017,0.031-0.033,0.064-0.05,0.1c-0.531,1.125-0.797,2.866-0.8,5.225c0.001,5.927,1.401,10.761,4.2,14.5
			c2.551,3.358,6.634,6.308,12.25,8.85l-0.025-0.025c0.407,0.166,0.724,0.433,0.95,0.8c0.008,0.017,0.016,0.034,0.025,0.05
			c0.214,0.384,0.297,0.792,0.25,1.225v0.025c-0.058,0.422-0.241,0.789-0.55,1.1V-96.5c-3.126,3.345-6.635,6.595-10.525,9.75
			c-5.999,4.892-10.857,7.601-14.575,8.125v5.375c1.022,0.101,1.847-0.133,2.475-0.7l0.025-0.025c1.328-1.429,2.194-2.345,2.6-2.75
			h-0.025c0.379-0.392,0.837-0.592,1.375-0.6h0.025c0.54-0.006,1.006,0.178,1.4,0.55h-0.025c2.222,2.08,4.947,3.172,8.175,3.275
			C246.22-87.849,255.211-97.016,255.4-101c0.014-3.331-1.136-6.072-3.45-8.225v0.025c-1.188-1.078-2.946-2.162-5.275-3.25
			c-0.477-0.214-0.81-0.564-1-1.05c-0.196-0.498-0.196-0.998,0-1.5v0.025c2.009-5.403,7.584-8.887,16.725-10.45
			c0.313-0.053,0.621-0.037,0.925,0.05h0.025c0.295,0.087,0.553,0.237,0.775,0.45l-0.05-0.025c1.201,0.991,2.159,3.174,2.875,6.55
			c0.815,1.537,2.49,1.912,5.025,1.125c0.533-0.162,1.049-0.111,1.55,0.15l-0.025-0.025c0.494,0.263,0.819,0.663,0.975,1.2v-0.025
			c1.551,4.567-0.041,9.576-4.775,15.025c-0.027,0.082-0.069,0.157-0.125,0.225c-0.335,0.404-2.043,2.179-5.125,5.325
			c-1.242,1.262-1.925,2.087-2.05,2.475c0.034,1.244,0.551,2.369,1.55,3.375c1.647,1.641,2.464,3.491,2.45,5.55
			c0.006,3.111-0.377,5.411-1.15,6.9c-0.958,1.895-2.384,2.778-4.275,2.65c-0.025,0.002-0.05,0.002-0.075,0h-0.15
			c-0.754-0.014-2.179-0.405-4.275-1.175c-0.051-0.02-0.101-0.044-0.15-0.075c-1.478-0.507-2.611-0.773-3.4-0.8
			c-3.045,0.115-5.962,2.531-8.75,7.25c-1.647,2.81-2.756,5.26-3.325,7.35c-0.289,1.059-0.438,2.025-0.45,2.9
			c0.003,2.453,0.745,4.252,2.225,5.4c0.052,0.02,0.102,0.044,0.15,0.075c0.826,0.54,1.942,1.089,3.35,1.65h-0.025
			c0.449,0.161,0.791,0.444,1.025,0.85V-51c0.219,0.417,0.286,0.858,0.2,1.325c-0.074,0.452-0.283,0.827-0.625,1.125l-0.025,0.025
			c-0.026,0.042-0.051,0.092-0.075,0.15c-0.005,0.031-0.013,0.064-0.025,0.1c-0.095,0.337-0.153,0.913-0.175,1.725v0.025
			c-0.004,0.402-0.121,0.769-0.35,1.1c-0.237,0.335-0.545,0.577-0.925,0.725c-0.018,0.008-0.035,0.017-0.05,0.025
			c-0.387,0.136-0.779,0.152-1.175,0.05c-1.188-0.293-3.946-1.293-8.275-3c-4.826-1.879-7.726-2.837-8.7-2.875H226.9
			c-1.529,0.021-3.404,0.621-5.625,1.8c-1.626,0.874-3.018,1.49-4.175,1.85c0.929,1.971,2.595,5.538,5,10.7
			c1.384,3.026,2.618,5.06,3.7,6.1l0.025,0.025c1.26,1.105,3.11,1.813,5.55,2.125h0.025c2.098,0.263,6.264,0.396,12.5,0.4
			c2.049-0.112,4.933-2.063,8.65-5.85c0.046-0.046,0.096-0.088,0.15-0.125c3.984-4.07,7.842-9.12,11.575-15.15
			c2.898-4.681,5.256-9.105,7.075-13.275c3.941-9.065,5.324-16.923,4.15-23.575V-85.5c-0.066-0.321-0.049-0.638,0.05-0.95v0.025
			c0.089-0.325,0.248-0.608,0.475-0.85l0.025-0.025c2.913-2.808,6.529-4.208,10.85-4.2c2.192-0.038,5.484,1.012,9.875,3.15
			c0.057,0.029,0.107,0.063,0.15,0.1c3.678,1.768,5.686,2.685,6.025,2.75c5.121-0.003,8.654-0.453,10.6-1.35
			c1.258-0.642,2.116-1.817,2.575-3.525c0.009-0.017,0.017-0.033,0.025-0.05c0.017-0.073,0.033-0.14,0.05-0.2
			c0.601-2.874,1.276-5.291,2.025-7.25c0.007-0.068,0.023-0.134,0.05-0.2c1.431-3.645,3.831-7.195,7.2-10.65h0.025
			c0.38-0.387,0.839-0.587,1.375-0.6c0.538-0.009,1.004,0.174,1.4,0.55c1.622,1.501,3.497,3.501,5.625,6h0.025
			c3.087,3.736,4.579,6.319,4.475,7.75V-95c0,7.527-3.467,12.435-10.4,14.725c-3.354,1.136-9.346,1.728-17.975,1.775
			c-0.808,2.774-1.675,6.124-2.6,10.05c-0.007,0.041-0.016,0.083-0.025,0.125c-0.008,0.023-0.016,0.048-0.025,0.075
			c-0.92,2.762-2.246,4.878-3.975,6.35c-0.151,0.121-0.301,0.238-0.45,0.35c1.134,1.583,3,3.382,5.6,5.4
			c0.051,0.044,0.093,0.094,0.125,0.15c2.029,1.528,4.204,2.961,6.525,4.3C317.842-54.944,320.5-58.344,323.175-61.9z
			 M303.175-105.525c-1.833,2.672-3.5,4.605-5,5.8c-0.183,0.148-0.392,0.223-0.625,0.225h-2.45c-0.271,0.003-0.504-0.089-0.7-0.275
			c-0.96-0.931-2.901-2.605-5.825-5.025c-2.435-2.031-4.268-3.514-5.5-4.45c-0.161-0.118-0.278-0.268-0.35-0.45
			c-0.064-0.188-0.073-0.38-0.025-0.575c0.044-0.193,0.136-0.36,0.275-0.5c1.211-1.173,3.161-2.907,5.85-5.2l0.05-0.05
			c2.333-2.377,3.508-4.702,3.525-6.975c-0.008-2.357-0.917-4.766-2.725-7.225l-0.025-0.025c-0.724-0.917-2.357-2.651-4.9-5.2
			c-0.118-0.121-0.202-0.262-0.25-0.425c-0.049-0.157-0.058-0.315-0.025-0.475c0.707-3.661,3.315-6.919,7.825-9.775h-0.025
			c4.552-2.919,9.427-4.377,14.625-4.375c4.699-0.023,8.857,2.735,12.475,8.275c2.704,4.176,4.046,7.243,4.025,9.2V-133
			c-0.002,3.688-0.136,5.754-0.4,6.2c-0.089,0.192-0.222,0.342-0.4,0.45c-1.748,1.003-4.056,2.478-6.925,4.425l4.775,4.775
			c0.191,0.187,0.292,0.412,0.3,0.675c0.01,0.267-0.073,0.5-0.25,0.7c-0.182,0.198-0.407,0.307-0.675,0.325
			c-2.833,0.21-5.791,1.21-8.875,3c-3.291,1.925-5.833,4.175-7.625,6.75C303.278-105.633,303.228-105.575,303.175-105.525z
			 M128.425-97.875v0.05h0.025C128.444-97.841,128.436-97.858,128.425-97.875z M191.325-130.375
			c1.381,1.143,2.073,2.935,2.075,5.375c0.04,3.96-2.702,7.21-8.225,9.75c-0.87,0.404-1.878,0.804-3.025,1.2
			c-0.174,0.057-0.349,0.065-0.525,0.025c-4.6-0.968-7.475-2.943-8.625-5.925c-0.019-0.045-0.036-0.095-0.05-0.15
			c-0.493-1.255-0.727-2.872-0.7-4.85v-0.025c0.093-2.144,0.143-3.752,0.15-4.825c0.004-0.14,0.038-0.273,0.1-0.4
			c0.051-0.134,0.126-0.25,0.225-0.35c0.953-0.866,2.286-1.432,4-1.7c1.079-0.168,3.138-0.252,6.175-0.25
			c3.989-0.004,6.798,0.696,8.425,2.1V-130.375z M162.175-117.55c0.01,0.014,0.019,0.03,0.025,0.05v-0.025L162.175-117.55z
			 M152.75-124.45l0.125,0.4l0.125-0.1L152.75-124.45z M159.226-121.6v-0.025H159.2L159.226-121.6z M152.175-123.575l0.1-0.075
			c-0.037-0.057-0.07-0.115-0.1-0.175h-0.05L152.175-123.575z"/>
		<path style="fill-rule:evenodd;clip-rule:evenodd;fill:#CF8836;" d="M301.65-106.85c-1.629,2.407-3.113,4.19-4.45,5.35h-1.725
			c-1.051-0.996-2.926-2.613-5.625-4.85c-1.916-1.591-3.466-2.849-4.65-3.775c1.193-1.103,2.851-2.562,4.975-4.375
			c0.032-0.032,0.065-0.065,0.1-0.1c2.805-2.844,4.18-5.644,4.125-8.4c0.023-2.766-1.027-5.582-3.15-8.45l-0.025-0.025
			c-0.695-0.885-2.254-2.543-4.675-4.975c0.801-2.954,3.068-5.612,6.8-7.975v-0.025c4.218-2.701,8.735-4.051,13.55-4.05
			c4.041,0.075,7.641,2.533,10.8,7.375c2.404,3.713,3.637,6.421,3.7,8.125c-0.003,2.906-0.028,4.59-0.075,5.05
			c-1.843,1.08-4.269,2.647-7.275,4.7c-0.25,0.17-0.434,0.396-0.55,0.675c-0.112,0.285-0.137,0.576-0.075,0.875
			c0.065,0.29,0.207,0.54,0.425,0.75l3.75,3.75c-2.464,0.473-5.014,1.473-7.65,3c-3.575,2.093-6.334,4.543-8.275,7.35H301.65z
			 M303.175-105.525c0.053-0.05,0.103-0.108,0.15-0.175c1.792-2.575,4.334-4.825,7.625-6.75c3.084-1.79,6.042-2.79,8.875-3
			c0.268-0.018,0.493-0.126,0.675-0.325c0.177-0.2,0.26-0.433,0.25-0.7c-0.009-0.263-0.109-0.488-0.3-0.675l-4.775-4.775
			c2.869-1.947,5.178-3.422,6.925-4.425c0.178-0.107,0.311-0.257,0.4-0.45c0.264-0.446,0.397-2.513,0.4-6.2v-0.025
			c0.021-1.958-1.321-5.024-4.025-9.2c-3.618-5.54-7.776-8.298-12.475-8.275c-5.198-0.002-10.073,1.456-14.625,4.375h0.025
			c-4.509,2.856-7.118,6.114-7.825,9.775c-0.033,0.16-0.024,0.318,0.025,0.475c0.048,0.163,0.132,0.304,0.25,0.425
			c2.542,2.549,4.176,4.283,4.9,5.2l0.025,0.025c1.809,2.459,2.717,4.868,2.725,7.225c-0.017,2.273-1.192,4.598-3.525,6.975
			l-0.05,0.05c-2.688,2.293-4.639,4.027-5.85,5.2c-0.14,0.14-0.231,0.307-0.275,0.5c-0.047,0.195-0.039,0.387,0.025,0.575
			c0.072,0.182,0.188,0.333,0.35,0.45c1.232,0.936,3.065,2.419,5.5,4.45c2.924,2.419,4.865,4.094,5.825,5.025
			c0.196,0.186,0.429,0.278,0.7,0.275h2.45c0.233-0.002,0.442-0.077,0.625-0.225C299.676-100.92,301.343-102.853,303.175-105.525z
			 M190.9-125c-0.145,2.977-2.403,5.469-6.775,7.475h-0.025c-0.708,0.328-1.516,0.653-2.425,0.975
			c-3.311-0.784-5.436-2.226-6.375-4.325v-0.025c-0.392-1.026-0.575-2.351-0.55-3.975c0.074-1.716,0.124-3.091,0.15-4.125
			c0.579-0.374,1.313-0.632,2.2-0.775c1.016-0.15,2.949-0.226,5.8-0.225c3.202,0,5.469,0.509,6.8,1.525
			C190.497-127.714,190.896-126.556,190.9-125z M192.4-125c-0.001-2.091-0.576-3.633-1.725-4.625
			c-1.508-1.252-4.1-1.877-7.775-1.875c-2.963,0.002-4.971,0.085-6.025,0.25c-1.486,0.23-2.645,0.713-3.475,1.45
			c-0.006,1.084-0.056,2.709-0.15,4.875c-0.026,1.873,0.199,3.398,0.675,4.575v0.025c1.08,2.668,3.713,4.443,7.9,5.325
			c1.109-0.379,2.084-0.763,2.925-1.15C189.816-118.479,192.366-121.429,192.4-125z"/>
		<path style="fill-rule:evenodd;clip-rule:evenodd;fill:#ECB65E;" d="M301.65-106.85h0.025c1.941-2.807,4.7-5.257,8.275-7.35
			c2.637-1.527,5.187-2.527,7.65-3l-3.75-3.75c-0.219-0.21-0.36-0.46-0.425-0.75c-0.062-0.299-0.037-0.59,0.075-0.875
			c0.116-0.279,0.299-0.504,0.55-0.675c3.006-2.053,5.432-3.62,7.275-4.7c0.047-0.46,0.072-2.144,0.075-5.05
			c-0.063-1.704-1.296-4.412-3.7-8.125c-3.159-4.842-6.759-7.3-10.8-7.375c-4.815-0.001-9.332,1.349-13.55,4.05v0.025
			c-3.732,2.363-5.999,5.021-6.8,7.975c2.421,2.432,3.98,4.09,4.675,4.975l0.025,0.025c2.123,2.868,3.173,5.685,3.15,8.45
			c0.055,2.756-1.32,5.556-4.125,8.4c-0.035,0.035-0.068,0.068-0.1,0.1c-2.124,1.813-3.782,3.272-4.975,4.375
			c1.185,0.926,2.734,2.184,4.65,3.775c2.699,2.237,4.574,3.854,5.625,4.85h1.725C298.538-102.66,300.021-104.443,301.65-106.85z
			 M356.55-109.725c6.392-10.871,12.767-22.413,19.125-34.625c-0.193-0.106-0.368-0.24-0.525-0.4h-0.025
			c-2.084-2.148-4.493-3.231-7.225-3.25c-6.354,0.005-12.403,1.272-18.15,3.8c-7.128,3.127-10.745,7.527-10.85,13.2
			c0.003,5.972,1.303,10.255,3.9,12.85c1.894,1.814,6.094,4.531,12.6,8.15h0.125c0.357,0.001,0.691,0.085,1,0.25L356.55-109.725z
			 M190.9-125c-0.004-1.556-0.404-2.714-1.2-3.475c-1.331-1.016-3.598-1.524-6.8-1.525c-2.851,0-4.784,0.075-5.8,0.225
			c-0.888,0.143-1.621,0.401-2.2,0.775c-0.026,1.034-0.076,2.409-0.15,4.125c-0.025,1.624,0.158,2.949,0.55,3.975v0.025
			c0.939,2.1,3.064,3.541,6.375,4.325c0.909-0.322,1.718-0.647,2.425-0.975h0.025C188.498-119.531,190.756-122.023,190.9-125z"/>
		<path style="fill-rule:evenodd;clip-rule:evenodd;fill:#D0961C;" d="M12.3-163.025c-1.453,1.373-2.819,2.781-4.1,4.225
			c2.354,7.992,7.938,14.942,16.75,20.85c4.733,3.133,9.9,5.617,15.5,7.45c5.067,1.667,9.55,2.5,13.45,2.5
			c8.566,0,17.5-1.633,26.8-4.9c5.2-1.833,13.25-5.383,24.15-10.65c10.333-5,18.483-8.467,24.45-10.4
			c9.4-3.033,18.6-4.383,27.6-4.05c19.1,0.633,39.033-1.767,59.8-7.2c20.967-5.5,39.034-13.1,54.2-22.8
			c19.066-12.267,38.833-27.133,59.3-44.6c0.967-0.8,8.75-7.566,23.35-20.3c8.767-7.6,15.983-13.617,21.65-18.05
			c15.733-12.367,30.85-21.333,45.35-26.9c17.6-6.767,37.8-10.15,60.6-10.15c5.462,0,16.729,1.092,33.8,3.275
			c4.2-3.583,6.934-6.008,8.2-7.275h2c-1.033,1.067-2.184,1.917-3.45,2.55c-1.5,0.767-2.333,1.217-2.5,1.35
			c-0.732,0.589-1.265,1.822-1.6,3.7c0.086,0.017,0.17,0.034,0.25,0.05c5.464-5.002,10.081-8.094,13.85-9.275
			c-2.299-0.379-4.966-0.821-8-1.325c-0.538-0.09-1.071-0.182-1.6-0.275c-7.361-1.183-13.345-1.775-17.95-1.775
			c-1.033,0-5.633,0.5-13.8,1.5c-8.167,1-13.9,1.5-17.2,1.5c-11.233,0-28.117,3.433-50.65,10.3c-11.833,3.6-23.284,7.5-34.35,11.7
			c-5.434,2.167-12.3,6.75-20.6,13.75c-7.2,6.1-12.333,11.183-15.4,15.25c-3.6,4.767-9.917,10.283-18.95,16.55
			c-9.767,6.733-17.116,10.217-22.05,10.45c-6.434,0.267-13.217,3.817-20.35,10.65c-3.233,3.1-7.833,8.55-13.8,16.35
			c-1.667,2.167-5.25,4.183-10.75,6.05c-5.434,1.534-8.517,2.517-9.25,2.95c-2.8,1.633-5.35,3.783-7.65,6.45
			c-2.8,3.233-4.917,5.417-6.35,6.55c-11.067,8.5-29.167,15.383-54.3,20.65c-7.9,1.633-16.017,3.017-24.35,4.15
			c-6.833,0.8-10.284,1.2-10.35,1.2c-0.833,0-4-0.333-9.5-1s-8.667-1-9.5-1c-5.733,0-18.85,3.833-39.35,11.5S64.267-140,63-140
			c-2.4,0-5.25-1.167-8.55-3.5c-3.3-2.333-5.783-3.5-7.45-3.5c-1.333,0-3.3,0.833-5.9,2.5c-2.634,1.667-5,2.5-7.1,2.5
			c-5.267,0-10.25-2.667-14.95-8C15.305-154.197,13.055-158.538,12.3-163.025z"/>
		<path style="fill-rule:evenodd;clip-rule:evenodd;fill:#E1BF35;" d="M523.325-315.475c-6.242-1.022-14.967-2.547-26.175-4.575
			c-14.733-2.633-26.733-3.95-36-3.95c-6.1,0-13.917,1.767-23.45,5.3c-0.268,0.1-0.535,0.2-0.8,0.3v4.4c-0.4,0-1.017,0.333-1.85,1
			s-2.216,1-4.15,1c-2.101,0-4.15-0.392-6.15-1.175c-0.07-0.025-0.137-0.05-0.2-0.075c-0.433-0.167-2.35-1.2-5.75-3.1
			c-10.665,2.75-21.165,6.517-31.5,11.3c-9.966,4.6-24.133,12.533-42.5,23.8c-19.6,12-35.1,20.817-46.5,26.45
			c-19.533,9.633-40,17.233-61.4,22.8c-20.767,5.433-47.934,11.783-81.5,19.05c-33.267,7.233-55.917,12.434-67.95,15.6
			c-21.8,5.767-39.033,11.85-51.7,18.25c-9.374,4.74-17.191,10.098-23.45,16.075c0.755,4.487,3.005,8.828,6.75,13.025
			c4.7,5.333,9.684,8,14.95,8c2.1,0,4.466-0.833,7.1-2.5c2.6-1.667,4.566-2.5,5.9-2.5c1.667,0,4.15,1.167,7.45,3.5
			c3.3,2.333,6.15,3.5,8.55,3.5c1.267,0,12.15-3.833,32.65-11.5S129.267-163,135-163c0.833,0,4,0.333,9.5,1s8.667,1,9.5,1
			c0.066,0,3.517-0.4,10.35-1.2c8.333-1.133,16.45-2.517,24.35-4.15c25.134-5.267,43.233-12.15,54.3-20.65
			c1.433-1.133,3.55-3.317,6.35-6.55c2.3-2.667,4.85-4.817,7.65-6.45c0.733-0.433,3.816-1.417,9.25-2.95
			c5.5-1.867,9.083-3.883,10.75-6.05c5.966-7.8,10.566-13.25,13.8-16.35c7.133-6.833,13.917-10.383,20.35-10.65
			c4.934-0.233,12.283-3.717,22.05-10.45c9.034-6.267,15.35-11.783,18.95-16.55c3.066-4.067,8.2-9.15,15.4-15.25
			c8.3-7,15.167-11.583,20.6-13.75c11.066-4.2,22.517-8.1,34.35-11.7c22.533-6.867,39.417-10.3,50.65-10.3c3.3,0,9.033-0.5,17.2-1.5
			c8.167-1,12.767-1.5,13.8-1.5c4.605,0,10.589,0.592,17.95,1.775c0.528,0.093,1.062,0.185,1.6,0.275
			c3.034,0.504,5.701,0.946,8,1.325c0.499-0.16,0.981-0.285,1.45-0.375C531.247-314.213,527.972-314.705,523.325-315.475z
			 M86-181.95c3.6-2.7,8.1-4.05,13.5-4.05c5.3,0,9.2,0.867,11.7,2.6c2.4,1.667,5.333,5.467,8.8,11.4h-1
			c-0.967-0.5-2.483-0.967-4.55-1.4c-2.033-0.4-3.683-0.6-4.95-0.6c-2.967,0-7.45,1.017-13.45,3.05
			c-7.279,2.471-10.962,5.087-11.05,7.85c-0.627-1.07-1.144-1.953-1.55-2.65c-1.633-2.8-2.45-5.383-2.45-7.75
			C81-176.667,82.667-179.483,86-181.95z M174.5-193.45c0.333-1.733,0.5-2.917,0.5-3.55c5.333,0,10-0.333,14-1h6
			c0,1.467,0.167,3.733,0.5,6.8c0.333,3.1,0.5,5,0.5,5.7c0,2.467-4.184,4.283-12.55,5.45c-2.438,0.341-4.754,0.6-6.95,0.775
			c-1.667-2.755-2.5-6.164-2.5-10.225C174-190.367,174.167-191.683,174.5-193.45z M336.15-259c-0.733,0.6-2.35,1.333-4.85,2.2
			c-3.667,1.267-5.966,2.1-6.9,2.5c-1.37,0.576-2.57,1.184-3.6,1.825c-0.841-0.809-1.875-1.584-3.1-2.325
			c-3.033-1.867-5.55-2.267-7.55-1.2c2-1.367,5.383-4.233,10.15-8.6c1.733-1.6,4.35-2.4,7.85-2.4c3.033,0,4.75,0.183,5.15,0.55
			C333.934-265.917,334.884-263.433,336.15-259z M389.2-297.9c-0.831-0.396-1.563-0.737-2.2-1.025
			c3.947-2.297,9.664-5.322,17.15-9.075c0,0.633,0.383,1.85,1.15,3.65c0.733,1.8,1.35,2.917,1.85,3.35c-1.5,0-3.833,0.833-7,2.5
			s-5.167,2.5-6,2.5C393.517-296,391.867-296.633,389.2-297.9z M255.5-212c-0.333,0.333-0.5,0.667-0.5,1
			c-3.367,2.4-5.717,4.033-7.05,4.9c-2.133,1.4-4.283,2.1-6.45,2.1c-3,0-5.717-0.767-8.15-2.3c-1.938-1.206-3.229-2.706-3.875-4.5
			c0.644-2.014,1.936-4.314,3.875-6.9c2.733-3.633,5.283-6.066,7.65-7.3c0.867,4.367,2.617,7.3,5.25,8.8
			c0.367,0.2,3.617,1.267,9.75,3.2C256-212.667,255.834-212.333,255.5-212z M35.45-170.7c0.9-0.533,4.417-2.3,10.55-5.3
			c0,0.6,0.833,2.533,2.5,5.8c1.667,3.3,2.5,5.034,2.5,5.2c-5.167,0.533-9.6,1.133-13.3,1.8c-4.83,0.858-8.021,2.083-9.575,3.675
			C27.375-160.716,27-161.708,27-162.5C27-164.7,29.817-167.433,35.45-170.7z"/>
		<path style="fill-rule:evenodd;clip-rule:evenodd;fill:#95AB3F;" d="M86-181.95c-3.333,2.467-5,5.284-5,8.45
			c0,2.367,0.816,4.95,2.45,7.75c0.407,0.697,0.923,1.58,1.55,2.65c0.087-2.763,3.771-5.379,11.05-7.85
			c6-2.033,10.483-3.05,13.45-3.05c1.267,0,2.917,0.2,4.95,0.6c2.067,0.433,3.583,0.9,4.55,1.4h1c-3.467-5.933-6.4-9.733-8.8-11.4
			c-2.5-1.733-6.4-2.6-11.7-2.6C94.101-186,89.601-184.65,86-181.95z M174.5-193.45c-0.333,1.767-0.5,3.083-0.5,3.95
			c0,4.062,0.833,7.47,2.5,10.225c2.196-0.175,4.512-0.434,6.95-0.775c8.367-1.167,12.55-2.983,12.55-5.45c0-0.7-0.167-2.6-0.5-5.7
			c-0.333-3.066-0.5-5.333-0.5-6.8h-6c-4,0.667-8.667,1-14,1C175-196.367,174.834-195.183,174.5-193.45z M336.15-259
			c-1.267-4.433-2.217-6.917-2.85-7.45c-0.4-0.367-2.117-0.55-5.15-0.55c-3.5,0-6.117,0.8-7.85,2.4
			c-4.767,4.367-8.15,7.233-10.15,8.6c2-1.067,4.517-0.667,7.55,1.2c1.226,0.741,2.259,1.516,3.1,2.325
			c1.03-0.641,2.23-1.249,3.6-1.825c0.934-0.4,3.233-1.233,6.9-2.5C333.8-257.667,335.417-258.4,336.15-259z M255.5-212
			c0.333-0.333,0.5-0.667,0.5-1c-6.133-1.933-9.383-3-9.75-3.2c-2.633-1.5-4.383-4.433-5.25-8.8c-2.367,1.233-4.917,3.667-7.65,7.3
			c-1.939,2.586-3.231,4.886-3.875,6.9c0.646,1.794,1.938,3.294,3.875,4.5c2.433,1.533,5.15,2.3,8.15,2.3
			c2.167,0,4.316-0.7,6.45-2.1c1.333-0.867,3.684-2.5,7.05-4.9C255-211.333,255.167-211.667,255.5-212z M389.2-297.9
			c2.667,1.267,4.317,1.9,4.95,1.9c0.833,0,2.833-0.833,6-2.5s5.5-2.5,7-2.5c-0.5-0.433-1.117-1.55-1.85-3.35
			c-0.767-1.8-1.15-3.017-1.15-3.65c-7.486,3.753-13.203,6.778-17.15,9.075C387.637-298.637,388.37-298.295,389.2-297.9z
			 M35.45-170.7c-5.633,3.267-8.45,6-8.45,8.2c0,0.792,0.375,1.784,1.125,2.975c1.553-1.592,4.745-2.817,9.575-3.675
			c3.7-0.667,8.134-1.267,13.3-1.8c0-0.167-0.833-1.9-2.5-5.2c-1.667-3.267-2.5-5.2-2.5-5.8C39.867-173,36.351-171.233,35.45-170.7z
			"/>
	</g>
</symbol>
<symbol  id="quesadilla_x5F_singl" viewBox="2.622 -42.531 88.177 42.531">
	<g id="Layer_1_3_">
		
			<use xlink:href="#quesadilla"  width="534.15" height="329.975" x="0" y="-329.975" transform="matrix(0.16 0 -0.0164 0.1289 0 0)" style="overflow:visible;"/>
	</g>
</symbol>
<use xlink:href="#quesadilla_x5F_singl"  width="88.177" height="42.531" x="2.622" y="-42.531" transform="matrix(1 0 0 -1 0.25 17.25)" style="overflow:visible;"/>
</svg>
