<?xml version="1.0" encoding="iso-8859-1"?>
<!-- Generator: Adobe Illustrator 15.1.0, SVG Export Plug-In . SVG Version: 6.00 Build 0)  -->
<!DOCTYPE svg PUBLIC "-//W3C//DTD SVG 1.1//EN" "http://www.w3.org/Graphics/SVG/1.1/DTD/svg11.dtd">
<svg version="1.1" id="flash0.ai" xmlns="http://www.w3.org/2000/svg" xmlns:xlink="http://www.w3.org/1999/xlink" x="0px" y="0px"
	 width="39.1px" height="26.3px" viewBox="0 0 39.1 26.3" style="enable-background:new 0 0 39.1 26.3;" xml:space="preserve">
<g>
	<polygon style="fill-rule:evenodd;clip-rule:evenodd;fill:#CCC8AB;" points="5.7,14.85 19.65,10.35 33.9,14.2 21.05,19.35 	"/>
	<path style="fill-rule:evenodd;clip-rule:evenodd;fill:#F5F5F5;" d="M33.4,14.35L19.7,10.7l-13.15,5L5.7,14.85L19.55,9.7
		L33.9,13.55c0.199,0.867,0.199,1.367,0,1.5c-0.134,0.066-0.267-0.033-0.4-0.3L33.4,14.35z"/>
	<polygon style="fill-rule:evenodd;clip-rule:evenodd;fill:#DBDBDB;" points="5.7,14.85 22.2,18.7 34.2,13.55 30.4,22.2 
		22.05,26.05 9.4,23.15 	"/>
	<polygon style="fill-rule:evenodd;clip-rule:evenodd;fill:#B2B2B2;" points="33.9,15.05 30.4,22.2 22.05,26.05 22.7,19.85 	"/>
	<polygon style="fill-rule:evenodd;clip-rule:evenodd;fill:#F5F5F5;" points="5.9,16.2 5.7,14.85 23.05,18.55 34.2,13.55 33.7,15.2 
		22.7,19.85 	"/>
	<path style="fill-rule:evenodd;clip-rule:evenodd;fill:#586436;" d="M25.4,16.95c-0.134,0-0.717,0.3-1.75,0.899L22.2,18.7l-8.15-2
		l7-3.1l7.351,0.1L25.4,16.95z"/>
	<polygon style="fill-rule:evenodd;clip-rule:evenodd;fill:#E4E4E4;" points="9.85,16.75 19.4,19.15 15.75,23.7 10.5,22.95 	"/>
	<path style="fill-rule:evenodd;clip-rule:evenodd;fill:#949494;" d="M33.05,15.85l-2.5,6l-8.5,4.2
		c2.566-2.333,4.517-4.066,5.851-5.2C29.233,19.75,30.95,18.083,33.05,15.85z"/>
	<path style="fill-rule:evenodd;clip-rule:evenodd;fill:#90A701;" d="M12.4,7.95c2.267,1.5,3.983,2.55,5.15,3.15
		c0.934,0.467,2.351,1.583,4.25,3.35c-3.167-0.334-5.25-0.784-6.25-1.35c-0.3-0.2-0.917-0.883-1.85-2.05l-1.3-1.7V7.95z"/>
	<path style="fill-rule:evenodd;clip-rule:evenodd;fill:#C7C902;" d="M10.05,11.35l1.35-0.65l1.6,0.7c1.133,0.5,1.9,0.767,2.3,0.8
		c0.7,0.1,2.367,0.767,5,2c-2.333,0.434-4.133,0.517-5.4,0.25C13.667,14.217,12.05,13.183,10.05,11.35z"/>
	<path style="fill-rule:evenodd;clip-rule:evenodd;fill:#586436;" d="M16.15,16.95c-2.5-0.334-3.95-0.7-4.35-1.101
		c-0.133-0.133-1.05-0.449-2.75-0.949c-0.833-0.233-1.667-0.467-2.5-0.7l2.35-1.35l4.25,1.5C14.083,14.684,15.083,15.55,16.15,16.95
		z"/>
	<path style="fill-rule:evenodd;clip-rule:evenodd;fill:#586436;" d="M31.9,11.85c0.666,0.667,0.716,1.25,0.149,1.75
		c-0.6,0.5-3.184,1.784-7.75,3.85l0.55-1.25c0.434-0.867,0.917-1.483,1.45-1.851c0.601-0.433,1.617-0.966,3.05-1.6
		C30.75,12.15,31.6,11.85,31.9,11.85z"/>
	<path style="fill-rule:evenodd;clip-rule:evenodd;fill:#586436;" d="M19.55,12.6L21,11.75c1.1-0.567,1.983-0.867,2.65-0.9
		c1.1-0.1,2.433-0.1,4,0c-1.233,1.066-2.483,1.65-3.75,1.75H19.55z"/>
	<path style="fill-rule:evenodd;clip-rule:evenodd;fill:#90A701;" d="M30.4,10.6c-1.334,1.833-2.45,3.117-3.351,3.85
		c-0.934,0.767-2.934,1.649-6,2.649c0.834-1,1.7-1.916,2.601-2.75C24.583,13.517,26.833,12.267,30.4,10.6z"/>
	<path style="fill-rule:evenodd;clip-rule:evenodd;fill:#C7C902;" d="M18.15,11.95c1.1-0.833,2.567-1.7,4.4-2.6
		c1.2-0.633,2.783-1.184,4.75-1.65l1,1c-2.666,1.1-4.5,1.816-5.5,2.15c-0.633,0.2-1.434,0.55-2.399,1.05l-1.25,0.7L18.15,11.95z"/>
	<path style="fill-rule:evenodd;clip-rule:evenodd;fill:#90A701;" d="M19.55,12.6l0.65-0.8c0.566-0.6,1.217-1,1.95-1.2
		c1.166-0.333,2.5-0.8,4-1.4l1.149,1.15l-2.25,0.75C21.616,11.833,19.783,12.333,19.55,12.6z"/>
	<polygon style="fill-rule:evenodd;clip-rule:evenodd;fill:#586436;" points="20.15,10.45 18.4,11.85 15.05,9.6 16.55,8.45 	"/>
	<path style="fill-rule:evenodd;clip-rule:evenodd;fill:#C7C902;" d="M27.65,11.95L24.9,13.6c-0.834,0.5-1.95,0.867-3.351,1.1
		c-0.8,0.133-2,0.467-3.6,1l-2.15,0.75l-0.75-1c2.167-0.733,4.117-1.434,5.851-2.1C22.667,12.683,24.917,12.217,27.65,11.95z"/>
	<polygon style="fill-rule:evenodd;clip-rule:evenodd;fill:#586436;" points="19.55,12.6 21.9,12.45 15.15,15.95 13.55,14.85 	"/>
	<polygon style="fill-rule:evenodd;clip-rule:evenodd;fill:#90A701;" points="22.9,14.45 21.65,15.85 13.15,15.7 15.65,14.6 	"/>
	<path style="fill-rule:evenodd;clip-rule:evenodd;fill:#C7C902;" d="M24.4,17.45l-1.75,1.25L17.9,17.1l0.4-1.5l0.851,0.45
		c0.666,0.3,1.333,0.483,2,0.55C22.25,16.667,23.333,16.95,24.4,17.45z"/>
</g>
</svg>
