<?xml version="1.0" encoding="iso-8859-1"?>
<!-- Generator: Adobe Illustrator 15.1.0, SVG Export Plug-In . SVG Version: 6.00 Build 0)  -->
<!DOCTYPE svg PUBLIC "-//W3C//DTD SVG 1.1//EN" "http://www.w3.org/Graphics/SVG/1.1/DTD/svg11.dtd">
<svg version="1.1" id="flash0.ai" xmlns="http://www.w3.org/2000/svg" xmlns:xlink="http://www.w3.org/1999/xlink" x="0px" y="0px"
	 width="56.6px" height="36.85px" viewBox="0 0 56.6 36.85" style="enable-background:new 0 0 56.6 36.85;" xml:space="preserve">
<symbol  id="flash0.ai_x2F_Layer_7_x2F__x3C_Path_x3E__x5F_218" viewBox="0 -9.311 27.325 9.31">
	<g id="Layer_1_4_">
		<path style="fill-rule:evenodd;clip-rule:evenodd;fill:#66300A;" d="M23.9-0.05c1.328-0.259,2.47-1.009,3.425-2.25
			c-0.146-0.084-0.438-0.384-0.875-0.9c-0.333-0.4-0.7-0.683-1.1-0.85l-0.5-0.15c0-0.5-0.184-0.983-0.55-1.45
			c-0.3-0.367-0.9-0.833-1.8-1.4c-0.967-0.6-1.883-1.05-2.75-1.35c-2.6-0.9-5.417-1.133-8.45-0.7C9-8.767,7.517-8.217,6.85-7.45
			C6.05-7.65,4.867-7.6,3.3-7.3C2.333-7.133,1.483-6.733,0.75-6.1L0-5.15C0.733-4.217,1.4-3.633,2-3.4
			c1.3,0.433,4.983,1.133,11.05,2.1C19.383-0.267,23,0.15,23.9-0.05z"/>
	</g>
</symbol>
<symbol  id="flash0.ai_x2F_Layer_7_x2F__x3C_Path_x3E__x5F_220" viewBox="0.017 -11.309 31.324 11.271">
	<g id="Layer_1_3_">
		<path style="fill-rule:evenodd;clip-rule:evenodd;fill:#D45700;" d="M30.6-1.1c0.133-0.133,0.35-0.633,0.65-1.5
			c0.233-0.8,0.017-0.933-0.65-0.4c-0.3,0.3-0.783,0.45-1.45,0.45c-0.233,0.033-0.383-0.067-0.45-0.3c-0.133-0.467-0.25-0.8-0.35-1
			c-0.167-0.3-0.434-0.566-0.8-0.8c-0.533-0.333-0.833-0.533-0.9-0.6c-0.167-0.167-0.267-0.4-0.3-0.7
			c-0.033-0.3-0.117-0.533-0.25-0.7c-0.133-0.2-0.2-0.45-0.2-0.75c-0.033-0.733-0.05-1.117-0.05-1.15
			c-0.033-0.467-0.3-0.784-0.8-0.95c-0.466-0.167-0.883-0.1-1.25,0.2c-0.133,0.133-0.833,0.267-2.1,0.4
			c-0.4,0.033-0.7,0.167-0.9,0.4c-0.2,0.367-0.4,0.65-0.6,0.85c-0.534,0.5-1.284,0.533-2.25,0.1c-0.534-0.267-1.333-0.317-2.4-0.15
			c-0.566,0.067-1.2-0.05-1.9-0.35C13.55-8.117,13-8.433,12-9c-0.267-0.133-0.6-0.367-1-0.7c-0.267-0.2-0.6-0.333-1-0.4
			c-0.5-0.5-0.867-0.85-1.1-1.05c-0.433-0.367-1.1-0.1-2,0.8C6.733-10.183,6.65-9.867,6.65-9.4c0,0.5,0.15,0.85,0.45,1.05
			C7.5-8.017,7.133-7.667,6-7.3C5.433-7.067,4.933-7.2,4.5-7.7C4.133-8.1,3.733-8.067,3.3-7.6C3-7.3,3.117-6.95,3.65-6.55
			C4.117-6.183,4.133-5.867,3.7-5.6C3.233-5.3,2.933-5.233,2.8-5.4C2.633-5.6,2.483-5.683,2.35-5.65c-0.2,0.033-0.283,0.2-0.25,0.5
			c0.033,0.3-0.083,0.517-0.35,0.65S1.133-4.283,0.7-4.25C0.3-4.217,0.083-4.167,0.05-4.1c-0.066,0.133-0.033,0.3,0.1,0.5
			C0.283-3.367,0.467-3.183,0.7-3.05c0.133,0.066,0.35,0.1,0.65,0.1c0.233,0,0.417,0.05,0.55,0.15c0.567,0.633,0.967,1.05,1.2,1.25
			C3.933-0.917,4.833-0.633,5.8-0.7c1-0.066,4.6,0.05,10.8,0.35c6.033,0.3,9.683,0.383,10.95,0.25C29.117-0.267,30.133-0.6,30.6-1.1
			z"/>
	</g>
</symbol>
<symbol  id="flash0.ai_x2F_Layer_7_x2F__x3C_Path_x3E__x5F_226" viewBox="0.032 -13.903 31.463 13.943">
	<g id="Layer_1_2_">
		<path style="fill-rule:evenodd;clip-rule:evenodd;fill:#522F00;" d="M31.4-3.9c0.2-0.167,0.083-0.35-0.35-0.55
			c-0.066-0.5-0.133-0.8-0.2-0.9c-0.067-0.1-0.25-0.233-0.55-0.4c-0.667-1.333-1.583-2.167-2.75-2.5
			c-0.7-0.233-1.267-0.317-1.7-0.25L25.4-8.35c0.367-0.467,0.333-0.933-0.1-1.4c-0.133-0.167-0.35-0.267-0.65-0.3
			c-0.3-0.034-0.583,0.05-0.85,0.25c-0.3,0.233-0.583,0.3-0.85,0.2c-0.233-0.066-0.367-0.233-0.4-0.5
			c-0.033-0.333-0.017-0.533,0.05-0.6c0-0.167,0.017-0.3,0.05-0.4c-0.033-0.033-0.133-0.183-0.3-0.45
			c-0.267-0.434-0.633-0.417-1.1,0.05c-0.1,0.067-0.217,0.167-0.35,0.3c-0.167,0.034-0.417,0.184-0.75,0.45
			c-0.2,0.133-0.533,0.083-1-0.15c-0.633-0.333-1.083-0.517-1.35-0.55c-0.3-0.066-0.667-0.483-1.1-1.25
			c-0.434-0.767-0.867-1.167-1.3-1.2c-0.367-0.033-0.833,0.183-1.4,0.65c-0.6,0.467-1.167,0.683-1.7,0.65
			c-0.333-0.1-0.6-0.183-0.8-0.25c-0.333-0.1-0.583-0.033-0.75,0.2c-0.567,0.633-1.217,0.95-1.95,0.95
			c-0.833-0.033-1.283-0.017-1.35,0.05c-0.233,0.133-0.267,0.55-0.1,1.25C7.483-9.7,7.5-9.317,7.4-9.25s-0.217,0.267-0.35,0.6
			c-0.1,0.333-0.216,0.533-0.35,0.6c-1.167,0.2-2.133,0.533-2.9,1C2.967-6.583,2.35-5.967,1.95-5.2C1.85-4.967,1.533-4.783,1-4.65
			C0.433-4.55,0.117-4.467,0.05-4.4C-0.017-4.333,0.1-4.233,0.4-4.1c0.167,0.033,0.333,0.083,0.5,0.15L3.4-4.4
			c0.4-0.033,0.883,0.05,1.45,0.25C5.15-4.05,5.533-3.9,6-3.7c0.333,0.4,1.25,1.067,2.75,2c1.8,1.1,3.167,1.667,4.1,1.7
			c1.467,0.067,3.566,0.05,6.3-0.05c3.233-0.1,5.283-0.284,6.15-0.55C26.633-0.967,28.667-2.067,31.4-3.9z"/>
	</g>
</symbol>
<symbol  id="lemburger4_copy" viewBox="0 -36.856 56.029 30.85">
	<g id="Layer_1_5_">
		<g>
			
				<linearGradient id="SVGID_1_" gradientUnits="userSpaceOnUse" x1="-331.1113" y1="-374.9214" x2="-313.1207" y2="-374.9214" gradientTransform="matrix(0.7493 -0.0313 0.0313 0.7493 260.8623 249.9287)">
				<stop  offset="0" style="stop-color:#E9B140"/>
				<stop  offset="1" style="stop-color:#C47E00"/>
			</linearGradient>
			<path style="fill-rule:evenodd;clip-rule:evenodd;fill:url(#SVGID_1_);" d="M15.862-14.625c4.325-0.125,6.688-1.038,7.088-2.737
				c0.524-2.275,0.387-4.225-0.413-5.851c-0.875-1.725-2.424-2.937-4.649-3.637c-1.575-0.5-3.575-0.788-6-0.863
				c-2.425-0.05-4.275,0.125-5.55,0.525c-3.325,1.075-5.013,3.013-5.063,5.813c0,0.9,0.149,1.813,0.449,2.737l0.488,1.163
				c1.225,0.225,2.424,0.625,3.6,1.199C8.387-15.075,11.737-14.525,15.862-14.625z"/>
			<path style="fill-rule:evenodd;clip-rule:evenodd;fill:#EDE2AD;" d="M1.8-18.563c0.775,1.45,4.351,2.175,10.726,2.175
				c6.174-0.025,9.612-0.45,10.313-1.274c0.549-0.7,0.512-1.65-0.113-2.851c-0.675-1.225-1.688-2.15-3.037-2.774
				c-1.6-0.75-3.412-1.275-5.438-1.575c-2.45-0.375-4.95-0.363-7.5,0.037C4.6-24.5,3.05-23.712,2.1-22.463
				C1.175-21.238,1.075-19.938,1.8-18.563z"/>
			<path style="fill-rule:evenodd;clip-rule:evenodd;fill:#805B28;" d="M14.963-24.75c-0.925-0.25-2-0.388-3.226-0.412
				c-0.75-0.025-1.575,0-2.475,0.074l-1.125,0.075c-0.226,0.05-0.45,0.138-0.675,0.263l-6.075,3.825c-0.025,0.425-0.025,0.7,0,0.825
				c0.025,0.074,0.175,0.074,0.45,0c0.575-0.125,0.887-0.188,0.938-0.188c13.475,0.549,20.162,0.6,20.063,0.149
				c-0.1-0.45-0.288-0.787-0.563-1.013c-0.601-0.325-1.463-0.75-2.588-1.274L14.963-24.75z"/>
			<path style="fill-rule:evenodd;clip-rule:evenodd;fill:#66481E;" d="M17.138-14.325c0.975-0.3,3.212-1.288,6.712-2.962
				c0.45-0.201,0.601-0.738,0.45-1.613c-0.075-0.425-0.212-0.725-0.412-0.899c-0.15-0.125-0.587-0.375-1.313-0.75
				c-2.6-1.45-4.45-2.438-5.55-2.963c-1.3-0.625-2.388-1.125-3.263-1.5c-1.65-0.675-2.737-0.913-3.263-0.712
				c-1.825,0.7-3.175,1.325-4.05,1.875c-1.875,1.075-3.238,1.912-4.088,2.512c-0.725,0.5-1.2,0.825-1.425,0.976
				c-0.325,0.25-0.512,0.475-0.563,0.675c-0.275,1.3-0.112,2.025,0.487,2.175c0.475,0.125,1.25,0.363,2.325,0.713
				c1.125,0.375,1.862,0.65,2.213,0.825c1.35,0.549,3.824,1.325,7.425,2.324c0.625,0.175,1.337,0.175,2.138,0
				C15.163-13.7,15.887-13.925,17.138-14.325z"/>
			<path style="fill-rule:evenodd;clip-rule:evenodd;fill:#573F1B;" d="M24.075-17.475c0.2-0.1,0.313-0.363,0.337-0.788
				c0.025-0.375-0.012-0.725-0.112-1.05c-0.075-0.275-0.3-0.538-0.675-0.787c-0.225-0.15-0.763-0.438-1.612-0.863
				c-1.675-0.875-3.163-1.625-4.463-2.25c-2.425-1.225-4.025-1.962-4.8-2.212c-0.75-0.25-1.275-0.363-1.575-0.338L10.95-25.65
				c0.075,0.075,0.137,0.488,0.188,1.238c0.025,0.475-0.15,1.062-0.525,1.762l-0.563,0.9C19.125-18.775,23.8-17.35,24.075-17.475z"
				/>
			<path style="fill-rule:evenodd;clip-rule:evenodd;fill:#805B28;" d="M15.825-13.912c1.9-0.525,3.112-0.925,3.638-1.2
				c0.275-0.15,1.1-0.55,2.475-1.2c1.3-0.625,2.012-1.013,2.138-1.162c0.225-0.301-0.038-0.638-0.788-1.013
				c-1.775-0.8-2.987-1.4-3.637-1.8c-0.65-0.4-3.125-1.45-7.426-3.15c-0.824-0.3-1.7-0.163-2.625,0.412
				C9-22.675,7.85-22.038,6.15-21.112C4.2-20.038,3-19.4,2.55-19.2c-1.4,0.675-2.063,1.138-1.987,1.388
				c0.075,0.3,0.688,0.613,1.838,0.938c1.375,0.575,2.787,1.162,4.237,1.763c2.95,1.175,4.688,1.813,5.212,1.912
				C12.4-13.1,13.725-13.337,15.825-13.912z"/>
			
				<use xlink:href="#flash0.ai_x2F_Layer_7_x2F__x3C_Path_x3E__x5F_226"  width="31.463" height="13.943" x="0.032" y="-13.903" transform="matrix(0.75 0 0 0.75 0.25 -14.1001)" style="overflow:visible;opacity:0.5313;enable-background:new    ;"/>
			<path style="fill-rule:evenodd;clip-rule:evenodd;fill:#F5C419;" d="M17.25-14.438c1.25-0.125,2.3-0.4,3.15-0.825
				c0.074-0.025,0.462-0.212,1.162-0.563c0.4-0.2,0.75-0.35,1.05-0.45c0.3-0.1,0.625-0.25,0.976-0.449
				C23.762-16.85,24-17,24.3-17.175c0.275-0.125,0.112-0.338-0.487-0.638c-0.825-0.425-1.25-0.65-1.275-0.675
				c-0.149-0.125-0.5-0.163-1.05-0.112c-0.7,0.05-1.125,0.062-1.274,0.037c-0.25-0.025-0.438-0.15-0.563-0.375
				c-0.175-0.325-0.363-0.575-0.563-0.75c-0.351-0.3-0.55-0.475-0.601-0.525c-0.025-0.05-0.149-0.225-0.375-0.524
				c-0.149-0.2-0.325-0.325-0.524-0.375c-0.25-0.075-0.45-0.175-0.601-0.3c-0.1-0.1-0.1-0.263,0-0.488c0.125-0.2,0.125-0.35,0-0.449
				c-0.375-0.4-0.662-0.463-0.862-0.188c-0.1,0.125-0.188,0.225-0.263,0.3c-0.1,0.1-0.237,0.163-0.412,0.188
				c-0.325,0.075-0.713,0.025-1.163-0.15c-0.449-0.25-0.762-0.412-0.938-0.487c-0.425-0.175-0.7-0.438-0.824-0.787
				c-0.15-0.375-0.313-0.613-0.488-0.713c-0.25-0.125-0.575-0.037-0.975,0.263c-0.475,0.35-0.825,0.524-1.05,0.524
				c-0.45-0.05-0.775-0.074-0.976-0.074c-0.35,0-0.675,0.1-0.975,0.3c-0.45,0.3-0.75,0.75-0.9,1.35
				c-0.024,0.15-0.312,0.288-0.862,0.413c-0.625,0.149-1.087,0.399-1.388,0.75c-0.3,0.35-0.7,0.625-1.199,0.824
				c-0.601,0.25-0.963,0.425-1.088,0.525c-0.225,0.15-0.65,0.375-1.275,0.675c-0.6,0.275-1,0.5-1.199,0.675
				C-0.15-17.737,0-17.425,0.6-17.025c0.475,0.301,0.925,0.513,1.351,0.638c0.6,0.2,3.1,0.587,7.5,1.163
				C13.975-14.625,16.575-14.362,17.25-14.438z"/>
			<path style="fill-rule:evenodd;clip-rule:evenodd;fill:#FFD129;" d="M19.5-14.813l2.1-0.9c0.375-0.225,0.888-0.437,1.538-0.637
				c0.325-0.175,0.475-0.363,0.45-0.563h-0.263c-0.625,0-1.15-0.075-1.575-0.226c-0.1-0.025-0.325-0.188-0.675-0.487
				c-0.325-0.275-0.625-0.45-0.9-0.525c-0.3-0.074-0.6-0.25-0.899-0.524c-0.05-0.05-0.363-0.388-0.938-1.013
				c-0.601-0.625-1.25-1.138-1.95-1.537c-0.226-0.15-0.563-0.213-1.013-0.188c-0.55,0.05-0.938,0.074-1.162,0.074
				c-0.325,0-1.101-0.225-2.325-0.675c-0.675-0.149-1.475-0.362-2.4-0.638C8.913-22.825,8.55-22.862,8.4-22.763
				c-0.1,0.2-0.175,0.363-0.226,0.487C7.85-21.625,7.587-21.2,7.388-21c-1,1.05-1.775,1.813-2.325,2.287
				c-0.775,0.65-1.888,1.15-3.338,1.5C1.125-17.087,0.8-16.95,0.75-16.8c0.375,0.2,0.862,0.35,1.463,0.45
				c0.7,0.2,1.35,0.375,1.949,0.524c1.2,0.325,2.113,0.5,2.738,0.525c0.275,0.425,2.387,0.65,6.337,0.675
				C17.012-14.575,19.1-14.638,19.5-14.813z"/>
			<path style="fill-rule:evenodd;clip-rule:evenodd;fill:#FFEDA8;" d="M11.438-23.213c0.525-0.125,0.663-0.375,0.412-0.75
				c-0.1-0.149-0.212-0.188-0.337-0.112c-0.075,0.025-0.188,0.138-0.338,0.338c-0.125,0.125-0.137,0.25-0.037,0.375
				C11.237-23.237,11.337-23.188,11.438-23.213z"/>
			<path style="fill-rule:evenodd;clip-rule:evenodd;fill:#D14B11;" d="M3.45-15c1.425,0.5,3.188,0.688,5.287,0.563
				c1.825-0.1,2.875-0.7,3.15-1.8c0.125-0.55,0.075-1.088-0.15-1.612c-1.025-0.576-1.85-0.925-2.475-1.051
				c-0.4-0.074-1.3-0.1-2.7-0.074c-1.325,0.05-2.087,0.1-2.287,0.149c-0.351,0.125-0.713,0.3-1.088,0.525
				c-0.75,0.475-1.225,1-1.425,1.575C1.537-16.05,2.1-15.475,3.45-15z"/>
			
				<linearGradient id="SVGID_2_" gradientUnits="userSpaceOnUse" x1="2.2876" y1="-24.1274" x2="16.0126" y2="-24.1274" gradientTransform="matrix(0.75 0 0 0.75 0 0)">
				<stop  offset="0" style="stop-color:#E03F1B"/>
				<stop  offset="1" style="stop-color:#911C00"/>
			</linearGradient>
			<path style="fill-rule:evenodd;clip-rule:evenodd;fill:url(#SVGID_2_);" d="M1.725-16.125l0.601-1.05
				C3-17.9,4.025-18.35,5.4-18.525c1.775-0.225,3.399-0.162,4.875,0.188C11.025-18.188,11.6-18,12-17.775l-0.075-0.862l-0.787-0.487
				c-0.925-0.5-2.113-0.8-3.563-0.9C5.7-20.2,4.125-19.813,2.85-18.862c-0.5,0.35-0.837,0.775-1.012,1.274l-0.15,0.676L1.725-16.125
				z"/>
			
				<use xlink:href="#flash0.ai_x2F_Layer_7_x2F__x3C_Path_x3E__x5F_220"  width="31.324" height="11.271" x="0.017" y="-11.309" transform="matrix(0.75 0 0 0.75 0.2002 -14.2002)" style="overflow:visible;opacity:0.8711;enable-background:new    ;"/>
			<path style="fill-rule:evenodd;clip-rule:evenodd;fill:#FFEDA8;" d="M12.412-21.825c-0.625-0.45-1.299-0.675-2.024-0.675
				c-0.325-0.025-0.75-0.15-1.275-0.375c-0.2-0.075-0.45-0.025-0.75,0.15L8.7-22.688C9-22.637,9.3-22.55,9.6-22.425
				c0.226,0.1,0.625,0.212,1.2,0.337c0.55,0.1,0.913,0.213,1.088,0.338c0.899,0.55,1.763,0.763,2.587,0.638
				c0.728-0.115,1.196-0.184,1.406-0.206l-1.068-0.057C13.612-21.425,12.813-21.575,12.412-21.825z"/>
			
				<use xlink:href="#flash0.ai_x2F_Layer_7_x2F__x3C_Path_x3E__x5F_218"  width="27.325" height="9.31" y="-9.311" transform="matrix(0.75 0 0 0.75 1.75 -13.1001)" style="overflow:visible;opacity:0.5391;enable-background:new    ;"/>
			<path style="fill-rule:evenodd;clip-rule:evenodd;fill:#FFDC5E;" d="M5.737-20.813c0.175-0.2,0.226-0.412,0.15-0.638
				c-0.05-0.2-0.163-0.275-0.338-0.225C5.4-21.6,5.362-21.412,5.438-21.112C5.538-20.788,5.638-20.688,5.737-20.813z"/>
			<path style="fill-rule:evenodd;clip-rule:evenodd;fill:#FFDC5E;" d="M2.1-17.888c0.075-0.149,0.063-0.275-0.037-0.375
				c-0.1-0.1-0.163-0.1-0.188,0c-0.025,0.125-0.013,0.25,0.037,0.375C1.962-17.737,2.025-17.737,2.1-17.888z"/>
			<path style="fill-rule:evenodd;clip-rule:evenodd;fill:#FFDC5E;" d="M3.3-19.162c0.15,0,0.125-0.138-0.075-0.413
				c-0.2-0.275-0.325-0.362-0.375-0.263C2.7-19.663,2.712-19.5,2.888-19.35C3.037-19.225,3.175-19.162,3.3-19.162z"/>
			<path style="fill-rule:evenodd;clip-rule:evenodd;fill:#FFDC5E;" d="M0.75-16.8c0.25-0.075,0.325-0.175,0.225-0.3
				c-0.074-0.1-0.188-0.15-0.337-0.15c-0.125,0-0.163,0.075-0.112,0.225C0.55-16.85,0.625-16.775,0.75-16.8z"/>
			
				<linearGradient id="SVGID_3_" gradientUnits="userSpaceOnUse" x1="413.6323" y1="365.6523" x2="431.6786" y2="365.6523" gradientTransform="matrix(0.7491 0.0364 -0.0364 0.7491 -290.0098 -304.0933)">
				<stop  offset="0" style="stop-color:#FDCB53"/>
				<stop  offset="1" style="stop-color:#D48801"/>
			</linearGradient>
			<path style="fill-rule:evenodd;clip-rule:evenodd;fill:url(#SVGID_3_);" d="M6.713-17.85c0.2,0.85,0.537,1.775,1.012,2.774
				c0.925,2.025,2.05,3.45,3.375,4.275c1.5,0.95,3.351,0.825,5.551-0.375c2.1-1.125,3.25-2.425,3.449-3.9
				c0.301-2.075-1.812-3.5-6.337-4.274c-1.775-0.275-3.375-0.201-4.8,0.225C7.862-18.8,7.112-18.375,6.713-17.85z"/>
			<path style="fill-rule:evenodd;clip-rule:evenodd;fill:#C98000;" d="M19.463-13.763l0.225-0.149
				c0.25-0.4,0.388-0.788,0.412-1.163c0.301-2.075-1.812-3.5-6.337-4.274c-1.775-0.275-3.375-0.201-4.8,0.225
				c-1.101,0.325-1.851,0.75-2.25,1.275c0.2,0.774,0.512,1.649,0.938,2.625C8.5-13.3,9.525-11.9,10.725-11.025
				c0.301,0.1,0.463,0.1,0.488,0c0.024-0.074,0.1-0.35,0.225-0.824c0.525-1.275,0.4-2.338-0.375-3.188
				c-0.4-0.425-0.85-0.726-1.35-0.9l-0.188-1.2c0.3-0.775,1.475-1.025,3.524-0.75c2.7,0.325,4.575,1.113,5.625,2.362
				C19.2-14.9,19.463-14.313,19.463-13.763z"/>
			<path style="fill-rule:evenodd;clip-rule:evenodd;fill:#EDE2AD;" d="M3.3-12.862c1.15,0.475,2.362,0.913,3.638,1.313
				c2.6,0.75,4.3,0.862,5.1,0.337c1-0.675,0.9-1.887-0.3-3.637c-1.2-1.75-2.587-2.538-4.162-2.363
				c-2.675,0.275-4.263,0.488-4.763,0.638C1.612-16.25,1-15.6,0.975-14.625c-0.024,0.85,0.226,1.313,0.75,1.388
				C2.675-13.063,3.2-12.938,3.3-12.862z"/>
			
				<linearGradient id="SVGID_4_" gradientUnits="userSpaceOnUse" x1="-1556.2598" y1="-14383.9072" x2="-1549.1688" y2="-14383.9072" gradientTransform="matrix(0.1613 -0.7325 0.7324 0.1613 10792.4785 1168.2578)">
				<stop  offset="0" style="stop-color:#FDCB53"/>
				<stop  offset="1" style="stop-color:#D48801"/>
			</linearGradient>
			<path style="fill-rule:evenodd;clip-rule:evenodd;fill:url(#SVGID_4_);" d="M2.737-11.55c1.15,0.25,2.362,0.462,3.638,0.638
				c2.6,0.3,4.3,0.188,5.1-0.338c0.976-0.65,1.063-1.688,0.263-3.112c-0.775-1.425-2.038-2.513-3.787-3.263
				c-1.7-0.7-3.4-0.663-5.101,0.112c-1.6,0.725-2.412,1.675-2.438,2.851c0,0.675,0.113,1.199,0.338,1.574
				c0.175,0.301,0.475,0.588,0.9,0.863C2.15-11.95,2.513-11.725,2.737-11.55z"/>
			
				<linearGradient id="SVGID_5_" gradientUnits="userSpaceOnUse" x1="11504.5332" y1="-19208.2305" x2="11517.2607" y2="-19208.2305" gradientTransform="matrix(-0.6614 -0.3536 0.3536 -0.6614 14412.5684 -8649.2793)">
				<stop  offset="0" style="stop-color:#D69211"/>
				<stop  offset="1" style="stop-color:#C98000"/>
			</linearGradient>
			<path style="fill-rule:evenodd;clip-rule:evenodd;fill:url(#SVGID_5_);" d="M7.95-17.625c-1.7-0.7-3.4-0.663-5.101,0.112
				c-1.6,0.725-2.412,1.675-2.438,2.851c0,0.35,0.025,0.6,0.075,0.75c0.3-1.925,1.863-2.888,4.688-2.888
				c1.75-0.025,3.338,0.412,4.763,1.313c1.375,0.875,2.15,1.875,2.325,3c0-1.175-0.587-2.313-1.763-3.413
				C9.675-16.7,8.825-17.275,7.95-17.625z"/>
			<path style="fill-rule:evenodd;clip-rule:evenodd;fill:#EDE2AD;" d="M3.75-12.675c-0.85,0.05-1.5,0.137-1.95,0.263
				c-0.25,0.2-0.387,0.475-0.412,0.824c-0.05,0.726,0.538,1.476,1.763,2.25c0.8,0.525,1.899,0.925,3.3,1.2
				c0.7,0.15,1.325,0.25,1.875,0.3c0.6,0.025,1.288-0.512,2.063-1.612c0.4-0.524,0.737-1.063,1.013-1.612
				c0.2,0,0.237-0.05,0.112-0.15c-0.2-0.149-1.025-0.425-2.476-0.824C7.162-12.512,5.4-12.725,3.75-12.675z"/>
			
				<linearGradient id="SVGID_6_" gradientUnits="userSpaceOnUse" x1="397.9072" y1="364.6064" x2="414.2362" y2="364.6064" gradientTransform="matrix(0.7492 0.0356 -0.0356 0.7492 -284.208 -297.7129)">
				<stop  offset="0" style="stop-color:#FDCB53"/>
				<stop  offset="1" style="stop-color:#D48801"/>
			</linearGradient>
			<path style="fill-rule:evenodd;clip-rule:evenodd;fill:url(#SVGID_6_);" d="M8.063-7.763c0.925,0,2.612-0.85,5.063-2.55
				c-0.45-0.325-1.85-0.8-4.2-1.425c-1.85-0.475-3.688-0.75-5.513-0.825c-0.899-0.05-1.625-0.037-2.175,0.037
				c-0.225,0.226-0.325,0.525-0.3,0.9c0.05,0.775,0.688,1.55,1.912,2.325c0.825,0.524,1.938,0.938,3.338,1.237
				C6.887-7.912,7.513-7.813,8.063-7.763z"/>
			<path style="fill-rule:evenodd;clip-rule:evenodd;fill:#EDE2AD;" d="M11.175-11.287C10-10.637,9.063-10.025,8.362-9.45
				C7.038-8.375,7.55-7.563,9.9-7.013C11.825-6.538,13.637-6.6,15.338-7.2c0.85-0.325,1.5-0.688,1.949-1.087
				c-1.85-0.025-3.262-0.351-4.237-0.976C12.075-9.913,11.45-10.587,11.175-11.287z"/>
			
				<linearGradient id="SVGID_7_" gradientUnits="userSpaceOnUse" x1="418.0645" y1="375.9092" x2="430.8797" y2="375.9092" gradientTransform="matrix(0.7491 0.0366 -0.0366 0.7491 -291.6621 -305.9146)">
				<stop  offset="0" style="stop-color:#FDCB53"/>
				<stop  offset="1" style="stop-color:#D48801"/>
			</linearGradient>
			<path style="fill-rule:evenodd;clip-rule:evenodd;fill:url(#SVGID_7_);" d="M11.475-11.25c-1.325,0.825-2.324,1.513-3,2.063
				c-0.6,0.5-0.837,0.925-0.712,1.275C7.912-7.438,8.65-7.038,9.975-6.713c1.95,0.475,3.763,0.4,5.438-0.225
				c0.85-0.325,1.5-0.688,1.95-1.088c-0.45,0-0.975-0.037-1.575-0.112C14.638-8.313,13.763-8.6,13.162-9
				C12.188-9.65,11.625-10.4,11.475-11.25z"/>
			<path style="fill-rule:evenodd;clip-rule:evenodd;fill:#EDE2AD;" d="M20.25-12.862c-0.4,1.175-1.212,1.85-2.438,2.024
				c-1.9,0.25-3.575,0.275-5.025,0.075L11.175-11.1c-0.05,0.2,0,0.462,0.15,0.787c0.275,0.65,0.875,1.237,1.8,1.763
				c1.5,0.85,3.063,1.013,4.688,0.487c1.625-0.5,2.863-1.563,3.713-3.188c0.65-1.225,0.675-2.15,0.074-2.775l-1.125-0.524
				C20.525-14,20.45-13.438,20.25-12.862z"/>
			
				<linearGradient id="SVGID_8_" gradientUnits="userSpaceOnUse" x1="424.9263" y1="373.4551" x2="439.7191" y2="373.4551" gradientTransform="matrix(0.7491 0.0368 -0.0368 0.7491 -293.0625 -307.4575)">
				<stop  offset="0" style="stop-color:#FDCB53"/>
				<stop  offset="1" style="stop-color:#D48801"/>
			</linearGradient>
			<path style="fill-rule:evenodd;clip-rule:evenodd;fill:url(#SVGID_8_);" d="M19.537-14.138c-0.575,1.175-1.412,2.013-2.512,2.513
				c-1.525,0.675-2.9,0.938-4.125,0.787l-1.426-0.412c-0.05,0.225,0,0.5,0.15,0.825C11.9-9.8,12.5-9.225,13.425-8.7
				c1.55,0.875,3.188,1.125,4.913,0.75c1.8-0.375,3.112-1.35,3.938-2.925c0.65-1.225,0.475-2.4-0.525-3.525
				c-0.475-0.575-1.025-1.012-1.65-1.313C20.025-15.238,19.838-14.712,19.537-14.138z"/>
			<path style="fill-rule:evenodd;clip-rule:evenodd;fill:#C98000;" d="M21.75-14.4c-0.475-0.575-1.025-1.012-1.65-1.313
				c-0.074,0.525-0.275,1.088-0.6,1.688c0.925,0.351,1.563,0.9,1.912,1.65c0.425,0.95,0.238,2.025-0.563,3.225
				c0.601-0.475,1.075-1.05,1.426-1.725C22.925-12.1,22.75-13.275,21.75-14.4z"/>
			<path style="fill-rule:evenodd;clip-rule:evenodd;fill:#EDE2AD;" d="M18.787-12.9c-0.524,0.601-1.037,1-1.537,1.2
				c-1.65,0.65-3.112,0.925-4.388,0.825l-1.388-0.375c-0.2-0.075-0.3-0.05-0.3,0.075c0.95,0.45,2.075,0.612,3.375,0.487
				c1.225-0.1,2.35-0.45,3.375-1.05c0.525-0.3,0.95-0.738,1.275-1.313c0.266-0.484,0.416-0.972,0.45-1.463
				C19.607-14.042,19.319-13.505,18.787-12.9z"/>
			<path style="fill-rule:evenodd;clip-rule:evenodd;fill:#EDE2AD;" d="M12.338-10.912c-0.325-0.125-0.463-0.275-0.413-0.45
				c0.025-0.075-0.037-0.088-0.188-0.038c-0.275,0.075-0.662,0.038-1.162-0.112l-0.038-0.019c0.099,0.065,0.187,0.159,0.263,0.281
				c0.05,0.1,0.1,0.188,0.15,0.263l0.375,0.112c0.325,0.05,0.6,0.063,0.825,0.037C12.4-10.838,12.462-10.862,12.338-10.912z"/>
			<path style="fill-rule:evenodd;clip-rule:evenodd;fill:#A88A43;" d="M5.325-8.325C5.575-8.325,5.7-8.4,5.7-8.55
				c0-0.15-0.112-0.275-0.338-0.375C5.188-9,5.012-9.025,4.838-9c-0.15,0.025-0.25,0.087-0.301,0.188c-0.05,0.075,0,0.175,0.15,0.3
				C4.838-8.413,5.05-8.35,5.325-8.325z"/>
			<path style="fill-rule:evenodd;clip-rule:evenodd;fill:#EDE2AD;" d="M5.25-8.25c0.25,0,0.375-0.075,0.375-0.225
				c0-0.15-0.112-0.275-0.338-0.375c-0.375-0.175-0.65-0.138-0.824,0.112c-0.05,0.1,0,0.2,0.149,0.3
				C4.763-8.313,4.975-8.25,5.25-8.25z"/>
			<path style="fill-rule:evenodd;clip-rule:evenodd;fill:#FFFFFF;" d="M5.1-8.325c0.125,0,0.213-0.025,0.263-0.075
				C5.387-8.45,5.35-8.5,5.25-8.55C4.975-8.775,4.788-8.8,4.688-8.625C4.663-8.55,4.7-8.488,4.8-8.438
				C4.875-8.362,4.975-8.325,5.1-8.325z"/>
			<path style="fill-rule:evenodd;clip-rule:evenodd;fill:#A88A43;" d="M7.05-8.888C7.5-8.913,7.663-9.025,7.537-9.225
				C7.388-9.4,7.138-9.487,6.787-9.487c-0.3,0.025-0.387,0.125-0.262,0.3C6.65-8.987,6.825-8.888,7.05-8.888z"/>
			<path style="fill-rule:evenodd;clip-rule:evenodd;fill:#A88A43;" d="M4.388-10.125c0.325,0.05,0.45-0.013,0.375-0.188
				c-0.1-0.2-0.25-0.275-0.45-0.225c-0.175,0.024-0.25,0.087-0.225,0.188C4.138-10.225,4.237-10.15,4.388-10.125z"/>
			<path style="fill-rule:evenodd;clip-rule:evenodd;fill:#A88A43;" d="M9.188-12.6c0.325-0.075,0.4-0.175,0.225-0.301
				C9.263-13.05,9.075-13.1,8.85-13.05c-0.225,0.025-0.3,0.112-0.225,0.263C8.725-12.638,8.913-12.575,9.188-12.6z"/>
			<path style="fill-rule:evenodd;clip-rule:evenodd;fill:#A88A43;" d="M6.487-14.513c0.275,0.05,0.45,0.013,0.525-0.112
				c0.075-0.15-0.05-0.225-0.375-0.225c-0.275,0-0.4,0.05-0.375,0.149C6.288-14.6,6.362-14.538,6.487-14.513z"/>
			<path style="fill-rule:evenodd;clip-rule:evenodd;fill:#A88A43;" d="M15.263-11.888c0.45,0,0.688-0.1,0.712-0.3
				c0-0.225-0.2-0.313-0.6-0.263c-0.35,0.025-0.512,0.125-0.487,0.3C14.913-12,15.037-11.913,15.263-11.888z"/>
			<path style="fill-rule:evenodd;clip-rule:evenodd;fill:#A88A43;" d="M19.537-9.15c0.425-0.1,0.576-0.275,0.45-0.524
				c-0.1-0.226-0.337-0.25-0.712-0.075c-0.301,0.15-0.388,0.3-0.263,0.45C19.162-9.125,19.337-9.075,19.537-9.15z"/>
			<path style="fill-rule:evenodd;clip-rule:evenodd;fill:#A88A43;" d="M16.05-8.325C16-8.6,15.8-8.725,15.45-8.7
				c-0.375,0.025-0.538,0.138-0.487,0.338c0.05,0.149,0.25,0.237,0.6,0.263C15.938-8.075,16.1-8.15,16.05-8.325z"/>
			<path style="fill-rule:evenodd;clip-rule:evenodd;fill:#A88A43;" d="M16.838-9.938c0.575-0.15,0.7-0.338,0.375-0.563
				c-0.301-0.25-0.638-0.288-1.013-0.112c-0.325,0.125-0.388,0.287-0.188,0.487C16.212-9.925,16.487-9.862,16.838-9.938z"/>
			<path style="fill-rule:evenodd;clip-rule:evenodd;fill:#A88A43;" d="M12.713-6.75c0.475,0.025,0.637-0.112,0.487-0.412
				c-0.15-0.325-0.413-0.45-0.788-0.375c-0.35,0.05-0.462,0.2-0.337,0.449C12.225-6.862,12.438-6.75,12.713-6.75z"/>
			<path style="fill-rule:evenodd;clip-rule:evenodd;fill:#A88A43;" d="M4.725-12.938c0.5,0.025,0.65-0.112,0.45-0.412
				C4.95-13.625,4.65-13.675,4.275-13.5c-0.351,0.125-0.438,0.25-0.263,0.375C4.162-13,4.4-12.938,4.725-12.938z"/>
			<path style="fill-rule:evenodd;clip-rule:evenodd;fill:#A88A43;" d="M9.938-8.213c0.475-0.1,0.587-0.3,0.338-0.6
				C10-9.137,9.725-9.2,9.45-9C9.2-8.85,9.15-8.662,9.3-8.438C9.475-8.237,9.688-8.163,9.938-8.213z"/>
			<path style="fill-rule:evenodd;clip-rule:evenodd;fill:#EDE2AD;" d="M6.975-8.85C7.45-8.875,7.612-8.975,7.463-9.15
				c-0.125-0.174-0.375-0.262-0.75-0.262c-0.301,0-0.388,0.1-0.263,0.3C6.6-8.913,6.775-8.825,6.975-8.85z"/>
			<path style="fill-rule:evenodd;clip-rule:evenodd;fill:#EDE2AD;" d="M4.35-10.05C4.65-10,4.763-10.075,4.688-10.275
				c-0.075-0.2-0.212-0.275-0.412-0.225c-0.175,0.025-0.25,0.1-0.226,0.225C4.1-10.15,4.2-10.075,4.35-10.05z"/>
			<path style="fill-rule:evenodd;clip-rule:evenodd;fill:#EDE2AD;" d="M9.15-12.563c0.325-0.05,0.399-0.15,0.225-0.3
				c-0.175-0.15-0.375-0.2-0.6-0.15c-0.201,0.05-0.263,0.15-0.188,0.3C8.688-12.563,8.875-12.512,9.15-12.563z"/>
			<path style="fill-rule:evenodd;clip-rule:evenodd;fill:#EDE2AD;" d="M6.45-14.438c0.275,0.05,0.45,0,0.524-0.15
				c0.075-0.149-0.05-0.225-0.375-0.225c-0.3,0.025-0.437,0.087-0.412,0.188S6.3-14.462,6.45-14.438z"/>
			<path style="fill-rule:evenodd;clip-rule:evenodd;fill:#EDE2AD;" d="M15.225-11.85c0.45,0,0.676-0.1,0.676-0.301
				c0.024-0.225-0.163-0.312-0.563-0.262c-0.351,0.05-0.513,0.162-0.488,0.337C14.875-11.925,15-11.85,15.225-11.85z"/>
			<path style="fill-rule:evenodd;clip-rule:evenodd;fill:#EDE2AD;" d="M19.5-9.075c0.425-0.1,0.575-0.275,0.45-0.524
				c-0.125-0.226-0.363-0.25-0.713-0.075c-0.3,0.125-0.387,0.275-0.263,0.45C19.1-9.075,19.275-9.025,19.5-9.075z"/>
			<path style="fill-rule:evenodd;clip-rule:evenodd;fill:#EDE2AD;" d="M16.013-8.25c-0.05-0.275-0.25-0.4-0.601-0.375
				c-0.375,0.025-0.537,0.125-0.487,0.3c0.05,0.175,0.25,0.275,0.601,0.3C15.9-8,16.063-8.075,16.013-8.25z"/>
			<path style="fill-rule:evenodd;clip-rule:evenodd;fill:#EDE2AD;" d="M16.8-9.9c0.575-0.149,0.7-0.337,0.375-0.563
				c-0.3-0.225-0.638-0.262-1.013-0.112c-0.325,0.15-0.387,0.325-0.188,0.525C16.175-9.85,16.45-9.8,16.8-9.9z"/>
			<path style="fill-rule:evenodd;clip-rule:evenodd;fill:#EDE2AD;" d="M12.675-6.675c0.475,0.025,0.638-0.125,0.487-0.45
				c-0.125-0.3-0.387-0.425-0.787-0.375C12-7.45,11.888-7.3,12.037-7.05C12.163-6.825,12.375-6.7,12.675-6.675z"/>
			<path style="fill-rule:evenodd;clip-rule:evenodd;fill:#EDE2AD;" d="M4.65-12.862c0.524,0,0.675-0.138,0.449-0.413
				C4.9-13.55,4.6-13.612,4.2-13.463c-0.35,0.15-0.438,0.288-0.263,0.413C4.088-12.925,4.325-12.862,4.65-12.862z"/>
			<path style="fill-rule:evenodd;clip-rule:evenodd;fill:#EDE2AD;" d="M9.9-8.138c0.475-0.1,0.587-0.313,0.337-0.638
				C9.962-9.1,9.688-9.163,9.412-8.963C9.137-8.788,9.087-8.6,9.263-8.4C9.412-8.175,9.625-8.087,9.9-8.138z"/>
			<path style="fill-rule:evenodd;clip-rule:evenodd;fill:#FFFFFF;" d="M6.862-8.925C7.038-8.9,7.125-8.925,7.125-9
				c0-0.05-0.075-0.075-0.225-0.075C6.775-9.1,6.713-9.087,6.713-9.037C6.713-8.987,6.763-8.95,6.862-8.925z"/>
			<path style="fill-rule:evenodd;clip-rule:evenodd;fill:#FFFFFF;" d="M4.425-10.125c0.1,0,0.125-0.037,0.075-0.112
				c-0.05-0.05-0.125-0.075-0.225-0.075C4.175-10.288,4.15-10.25,4.2-10.2C4.225-10.15,4.3-10.125,4.425-10.125z"/>
			<path style="fill-rule:evenodd;clip-rule:evenodd;fill:#FFFFFF;" d="M4.65-12.975C4.875-13,4.9-13.063,4.725-13.162
				c-0.2-0.1-0.375-0.125-0.524-0.075c-0.125,0.05-0.125,0.112,0,0.188C4.35-12.975,4.5-12.95,4.65-12.975z"/>
			<path style="fill-rule:evenodd;clip-rule:evenodd;fill:#FFFFFF;" d="M9.037-12.638c0.275-0.05,0.201-0.112-0.225-0.188
				c-0.075,0.025-0.075,0.075,0,0.15C8.863-12.625,8.938-12.613,9.037-12.638z"/>
			<path style="fill-rule:evenodd;clip-rule:evenodd;fill:#FFFFFF;" d="M6.6-14.513c0.125-0.025,0.163-0.05,0.113-0.075
				c-0.075-0.024-0.163-0.037-0.263-0.037C6.35-14.625,6.4-14.588,6.6-14.513z"/>
			<path style="fill-rule:evenodd;clip-rule:evenodd;fill:#FFFFFF;" d="M15.45-11.963c0.2-0.1,0.212-0.162,0.037-0.188
				c-0.2-0.05-0.337-0.037-0.412,0.038c-0.05,0.075-0.025,0.125,0.075,0.149C15.225-11.913,15.325-11.913,15.45-11.963z"/>
			<path style="fill-rule:evenodd;clip-rule:evenodd;fill:#FFFFFF;" d="M16.725-9.975C17-10.05,17.025-10.138,16.8-10.237
				c-0.25-0.1-0.45-0.112-0.6-0.038c-0.125,0.075-0.1,0.15,0.075,0.226C16.425-9.95,16.575-9.925,16.725-9.975z"/>
			<path style="fill-rule:evenodd;clip-rule:evenodd;fill:#FFFFFF;" d="M19.35-9.263c0.1-0.05,0.226-0.149,0.375-0.3
				c0.075-0.075,0.013-0.1-0.188-0.075c-0.225,0-0.362,0.05-0.412,0.15c-0.075,0.075-0.075,0.149,0,0.225
				C19.2-9.212,19.275-9.212,19.35-9.263z"/>
			<path style="fill-rule:evenodd;clip-rule:evenodd;fill:#FFFFFF;" d="M15.45-8.138c0.2-0.05,0.237-0.125,0.112-0.225
				c-0.125-0.075-0.25-0.088-0.375-0.038c-0.1,0.025-0.1,0.075,0,0.15C15.263-8.175,15.35-8.138,15.45-8.138z"/>
			<path style="fill-rule:evenodd;clip-rule:evenodd;fill:#FFFFFF;" d="M12.638-6.75c0.25-0.025,0.3-0.112,0.149-0.263
				c-0.174-0.149-0.312-0.188-0.412-0.112s-0.112,0.15-0.037,0.225C12.412-6.8,12.512-6.75,12.638-6.75z"/>
			<path style="fill-rule:evenodd;clip-rule:evenodd;fill:#FFFFFF;" d="M9.675-8.25c0.25-0.075,0.313-0.175,0.188-0.3
				C9.713-8.7,9.575-8.737,9.45-8.662C9.375-8.612,9.362-8.525,9.412-8.4C9.487-8.275,9.575-8.225,9.675-8.25z"/>
		</g>
		<g>
			
				<linearGradient id="SVGID_9_" gradientUnits="userSpaceOnUse" x1="-331.1113" y1="-374.9214" x2="-313.1207" y2="-374.9214" gradientTransform="matrix(0.7493 -0.0313 0.0313 0.7493 292.4619 250.3281)">
				<stop  offset="0" style="stop-color:#E9B140"/>
				<stop  offset="1" style="stop-color:#C47E00"/>
			</linearGradient>
			<path style="fill-rule:evenodd;clip-rule:evenodd;fill:url(#SVGID_9_);" d="M47.462-14.225c4.325-0.125,6.688-1.038,7.088-2.737
				c0.524-2.275,0.387-4.225-0.413-5.85c-0.875-1.725-2.424-2.938-4.649-3.638c-1.575-0.5-3.575-0.788-6-0.862
				c-2.425-0.05-4.275,0.125-5.55,0.525c-3.325,1.075-5.013,3.012-5.063,5.813c0,0.9,0.149,1.813,0.449,2.737l0.488,1.163
				c1.225,0.225,2.424,0.625,3.6,1.2C39.987-14.675,43.337-14.125,47.462-14.225z"/>
			<path style="fill-rule:evenodd;clip-rule:evenodd;fill:#EDE2AD;" d="M33.399-18.163c0.775,1.45,4.351,2.175,10.726,2.175
				c6.174-0.025,9.612-0.45,10.313-1.275c0.549-0.7,0.512-1.65-0.113-2.85c-0.675-1.225-1.688-2.15-3.037-2.775
				c-1.6-0.75-3.412-1.275-5.438-1.575c-2.45-0.375-4.95-0.363-7.5,0.037c-2.15,0.325-3.7,1.113-4.65,2.363
				C32.775-20.838,32.674-19.538,33.399-18.163z"/>
			<path style="fill-rule:evenodd;clip-rule:evenodd;fill:#805B28;" d="M46.563-24.35c-0.925-0.25-2-0.387-3.226-0.413
				c-0.75-0.025-1.575,0-2.475,0.075l-1.125,0.075c-0.226,0.05-0.45,0.138-0.675,0.263l-6.075,3.825c-0.025,0.425-0.025,0.7,0,0.825
				c0.025,0.075,0.175,0.075,0.45,0c0.575-0.125,0.887-0.188,0.938-0.188c13.475,0.55,20.162,0.6,20.063,0.15
				c-0.1-0.45-0.288-0.787-0.563-1.012c-0.601-0.325-1.463-0.75-2.588-1.275L46.563-24.35z"/>
			<path style="fill-rule:evenodd;clip-rule:evenodd;fill:#66481E;" d="M48.737-13.925c0.975-0.3,3.212-1.288,6.712-2.962
				c0.45-0.2,0.601-0.737,0.45-1.612c-0.075-0.425-0.212-0.725-0.412-0.9c-0.15-0.125-0.587-0.375-1.313-0.75
				c-2.6-1.45-4.45-2.438-5.55-2.963c-1.3-0.625-2.388-1.125-3.263-1.5c-1.65-0.675-2.737-0.913-3.263-0.712
				c-1.825,0.7-3.175,1.325-4.05,1.875c-1.875,1.075-3.238,1.913-4.088,2.513c-0.725,0.5-1.2,0.825-1.425,0.975
				c-0.325,0.25-0.512,0.475-0.563,0.675c-0.275,1.3-0.112,2.025,0.487,2.175c0.475,0.125,1.25,0.363,2.325,0.713
				c1.125,0.375,1.862,0.65,2.213,0.825c1.35,0.55,3.824,1.325,7.425,2.325c0.625,0.175,1.337,0.175,2.138,0
				C46.762-13.3,47.487-13.525,48.737-13.925z"/>
			<path style="fill-rule:evenodd;clip-rule:evenodd;fill:#573F1B;" d="M55.675-17.075c0.2-0.1,0.313-0.362,0.337-0.788
				c0.025-0.375-0.012-0.725-0.112-1.05c-0.075-0.275-0.3-0.538-0.675-0.788c-0.225-0.15-0.763-0.438-1.612-0.862
				c-1.675-0.875-3.163-1.625-4.463-2.25c-2.425-1.225-4.025-1.963-4.8-2.212c-0.75-0.25-1.275-0.363-1.575-0.338L42.55-25.25
				c0.075,0.075,0.137,0.487,0.188,1.237c0.025,0.475-0.15,1.063-0.525,1.763l-0.563,0.9C50.725-18.375,55.399-16.95,55.675-17.075z
				"/>
			<path style="fill-rule:evenodd;clip-rule:evenodd;fill:#805B28;" d="M47.425-13.513c1.9-0.525,3.112-0.925,3.638-1.2
				c0.275-0.15,1.1-0.55,2.475-1.2c1.3-0.625,2.012-1.013,2.138-1.163c0.225-0.3-0.038-0.637-0.788-1.012
				c-1.775-0.8-2.987-1.4-3.637-1.8c-0.65-0.4-3.125-1.45-7.426-3.15c-0.824-0.3-1.7-0.163-2.625,0.413
				c-0.6,0.35-1.75,0.987-3.449,1.913C35.8-19.638,34.6-19,34.149-18.8c-1.4,0.675-2.063,1.138-1.987,1.388
				c0.075,0.3,0.688,0.613,1.838,0.938c1.375,0.575,2.787,1.163,4.237,1.763c2.95,1.175,4.688,1.812,5.212,1.912
				C44-12.7,45.324-12.938,47.425-13.513z"/>
			
				<use xlink:href="#flash0.ai_x2F_Layer_7_x2F__x3C_Path_x3E__x5F_226"  width="31.463" height="13.943" x="0.032" y="-13.903" transform="matrix(0.75 0 0 0.75 31.8496 -13.7002)" style="overflow:visible;opacity:0.5313;enable-background:new    ;"/>
			<path style="fill-rule:evenodd;clip-rule:evenodd;fill:#F5C419;" d="M48.85-14.038c1.25-0.125,2.3-0.4,3.15-0.825
				c0.074-0.025,0.462-0.212,1.162-0.563c0.4-0.2,0.75-0.35,1.05-0.45c0.3-0.1,0.625-0.25,0.976-0.45
				c0.174-0.125,0.412-0.275,0.712-0.45c0.275-0.125,0.112-0.338-0.487-0.638c-0.825-0.425-1.25-0.65-1.275-0.675
				c-0.149-0.125-0.5-0.163-1.05-0.113c-0.7,0.05-1.125,0.063-1.274,0.038c-0.25-0.025-0.438-0.15-0.563-0.375
				c-0.175-0.325-0.363-0.575-0.563-0.75c-0.351-0.3-0.55-0.475-0.601-0.525c-0.025-0.05-0.149-0.225-0.375-0.525
				c-0.149-0.2-0.325-0.325-0.524-0.375c-0.25-0.075-0.45-0.175-0.601-0.3c-0.1-0.1-0.1-0.262,0-0.487c0.125-0.2,0.125-0.35,0-0.45
				c-0.375-0.4-0.662-0.462-0.862-0.188c-0.1,0.125-0.188,0.225-0.263,0.3c-0.1,0.1-0.237,0.163-0.412,0.188
				c-0.325,0.075-0.713,0.025-1.163-0.15c-0.449-0.25-0.762-0.412-0.938-0.487c-0.425-0.175-0.7-0.438-0.824-0.788
				c-0.15-0.375-0.313-0.612-0.488-0.712c-0.25-0.125-0.575-0.038-0.975,0.263C42.187-23.175,41.837-23,41.612-23
				c-0.45-0.05-0.775-0.075-0.976-0.075c-0.35,0-0.675,0.1-0.975,0.3c-0.45,0.3-0.75,0.75-0.9,1.35
				c-0.024,0.15-0.312,0.288-0.862,0.413c-0.625,0.15-1.087,0.4-1.388,0.75c-0.3,0.35-0.7,0.625-1.199,0.825
				c-0.601,0.25-0.963,0.425-1.088,0.525c-0.225,0.15-0.65,0.375-1.275,0.675c-0.6,0.275-1,0.5-1.199,0.675
				c-0.301,0.225-0.15,0.537,0.449,0.938c0.475,0.3,0.925,0.513,1.351,0.637c0.6,0.2,3.1,0.587,7.5,1.163
				C45.575-14.225,48.175-13.962,48.85-14.038z"/>
			<path style="fill-rule:evenodd;clip-rule:evenodd;fill:#FFD129;" d="M51.1-14.413l2.1-0.9c0.375-0.225,0.888-0.438,1.538-0.638
				c0.325-0.175,0.475-0.362,0.45-0.563h-0.263c-0.625,0-1.15-0.075-1.575-0.225c-0.1-0.025-0.325-0.188-0.675-0.487
				c-0.325-0.275-0.625-0.45-0.9-0.525c-0.3-0.075-0.6-0.25-0.899-0.525c-0.05-0.05-0.363-0.388-0.938-1.013
				c-0.601-0.625-1.25-1.137-1.95-1.538c-0.226-0.15-0.563-0.212-1.013-0.188c-0.55,0.05-0.938,0.075-1.162,0.075
				c-0.325,0-1.101-0.225-2.325-0.675c-0.675-0.15-1.475-0.362-2.4-0.637c-0.575-0.175-0.938-0.213-1.087-0.113
				c-0.1,0.2-0.175,0.363-0.226,0.488c-0.325,0.65-0.587,1.075-0.787,1.275c-1,1.05-1.775,1.813-2.325,2.288
				c-0.775,0.65-1.888,1.15-3.338,1.5c-0.6,0.125-0.924,0.262-0.975,0.413c0.375,0.2,0.862,0.35,1.463,0.45
				c0.7,0.2,1.35,0.375,1.949,0.525c1.2,0.325,2.113,0.5,2.738,0.525c0.275,0.425,2.387,0.65,6.337,0.675
				C48.612-14.175,50.7-14.237,51.1-14.413z"/>
			<path style="fill-rule:evenodd;clip-rule:evenodd;fill:#FFEDA8;" d="M43.037-22.813c0.525-0.125,0.663-0.375,0.412-0.75
				c-0.1-0.15-0.212-0.188-0.337-0.113c-0.075,0.025-0.188,0.138-0.338,0.338c-0.125,0.125-0.137,0.25-0.037,0.375
				C42.837-22.838,42.937-22.788,43.037-22.813z"/>
			<path style="fill-rule:evenodd;clip-rule:evenodd;fill:#D14B11;" d="M33.362-16.325c-0.226,0.675,0.337,1.25,1.688,1.725
				c1.425,0.5,3.188,0.688,5.287,0.563c1.825-0.1,2.875-0.7,3.15-1.8c0.125-0.55,0.075-1.088-0.15-1.613
				c-1.025-0.575-1.85-0.925-2.475-1.05c-0.4-0.075-1.3-0.1-2.7-0.075c-1.325,0.05-2.087,0.1-2.287,0.15
				c-0.351,0.125-0.713,0.3-1.088,0.525C34.037-17.425,33.562-16.9,33.362-16.325z"/>
			
				<linearGradient id="SVGID_10_" gradientUnits="userSpaceOnUse" x1="2.2876" y1="-24.127" x2="16.0126" y2="-24.127" gradientTransform="matrix(0.75 0 0 0.75 31.5996 0.3999)">
				<stop  offset="0" style="stop-color:#E03F1B"/>
				<stop  offset="1" style="stop-color:#911C00"/>
			</linearGradient>
			<path style="fill-rule:evenodd;clip-rule:evenodd;fill:url(#SVGID_10_);" d="M33.324-15.725l0.601-1.05
				c0.675-0.725,1.7-1.175,3.075-1.35c1.775-0.225,3.399-0.163,4.875,0.188c0.75,0.15,1.325,0.337,1.725,0.563l-0.075-0.863
				l-0.787-0.487c-0.925-0.5-2.113-0.8-3.563-0.9c-1.875-0.175-3.45,0.212-4.726,1.163c-0.5,0.35-0.837,0.775-1.012,1.275
				l-0.15,0.675L33.324-15.725z"/>
			
				<use xlink:href="#flash0.ai_x2F_Layer_7_x2F__x3C_Path_x3E__x5F_220"  width="31.324" height="11.271" x="0.017" y="-11.309" transform="matrix(0.75 0 0 0.75 31.7998 -13.7998)" style="overflow:visible;opacity:0.8711;enable-background:new    ;"/>
			<path style="fill-rule:evenodd;clip-rule:evenodd;fill:#FFEDA8;" d="M44.012-21.425c-0.625-0.45-1.299-0.675-2.024-0.675
				c-0.325-0.025-0.75-0.15-1.275-0.375c-0.2-0.075-0.45-0.025-0.75,0.15l0.338,0.038c0.3,0.05,0.6,0.137,0.899,0.263
				c0.226,0.1,0.625,0.212,1.2,0.337c0.55,0.1,0.913,0.212,1.088,0.337c0.899,0.55,1.763,0.762,2.587,0.638
				c0.728-0.115,1.196-0.184,1.406-0.207l-1.068-0.056C45.212-21.025,44.412-21.175,44.012-21.425z"/>
			
				<use xlink:href="#flash0.ai_x2F_Layer_7_x2F__x3C_Path_x3E__x5F_218"  width="27.325" height="9.31" y="-9.311" transform="matrix(0.75 0 0 0.75 33.3496 -12.7002)" style="overflow:visible;opacity:0.5391;enable-background:new    ;"/>
			<path style="fill-rule:evenodd;clip-rule:evenodd;fill:#FFDC5E;" d="M37.337-20.413c0.175-0.2,0.226-0.413,0.15-0.638
				c-0.05-0.2-0.163-0.275-0.338-0.225C37-21.2,36.962-21.013,37.037-20.712C37.137-20.388,37.237-20.288,37.337-20.413z"/>
			<path style="fill-rule:evenodd;clip-rule:evenodd;fill:#FFDC5E;" d="M33.699-17.488c0.075-0.15,0.063-0.275-0.037-0.375
				s-0.163-0.1-0.188,0c-0.025,0.125-0.013,0.25,0.037,0.375C33.562-17.337,33.625-17.337,33.699-17.488z"/>
			<path style="fill-rule:evenodd;clip-rule:evenodd;fill:#FFDC5E;" d="M34.899-18.763c0.15,0,0.125-0.138-0.075-0.413
				c-0.2-0.275-0.325-0.362-0.375-0.262c-0.149,0.175-0.137,0.337,0.038,0.487C34.637-18.825,34.774-18.763,34.899-18.763z"/>
			<path style="fill-rule:evenodd;clip-rule:evenodd;fill:#FFDC5E;" d="M32.35-16.4c0.25-0.075,0.325-0.175,0.225-0.3
				c-0.074-0.1-0.188-0.15-0.337-0.15c-0.125,0-0.163,0.075-0.112,0.225C32.149-16.45,32.225-16.375,32.35-16.4z"/>
			
				<linearGradient id="SVGID_11_" gradientUnits="userSpaceOnUse" x1="413.6323" y1="365.6523" x2="431.6786" y2="365.6523" gradientTransform="matrix(0.7491 0.0364 -0.0364 0.7491 -258.4102 -303.6934)">
				<stop  offset="0" style="stop-color:#FDCB53"/>
				<stop  offset="1" style="stop-color:#D48801"/>
			</linearGradient>
			<path style="fill-rule:evenodd;clip-rule:evenodd;fill:url(#SVGID_11_);" d="M38.313-17.45c0.2,0.85,0.537,1.775,1.012,2.775
				c0.925,2.025,2.05,3.45,3.375,4.275c1.5,0.95,3.351,0.825,5.551-0.375c2.1-1.125,3.25-2.425,3.449-3.9
				c0.301-2.075-1.812-3.5-6.337-4.275c-1.775-0.275-3.375-0.2-4.8,0.225C39.462-18.4,38.712-17.975,38.313-17.45z"/>
			<path style="fill-rule:evenodd;clip-rule:evenodd;fill:#C98000;" d="M51.063-13.363l0.225-0.15c0.25-0.4,0.388-0.788,0.412-1.163
				c0.301-2.075-1.812-3.5-6.337-4.275c-1.775-0.275-3.375-0.2-4.8,0.225c-1.101,0.325-1.851,0.75-2.25,1.275
				c0.2,0.775,0.512,1.65,0.938,2.625c0.85,1.925,1.875,3.325,3.074,4.2c0.301,0.1,0.463,0.1,0.488,0
				c0.024-0.075,0.1-0.35,0.225-0.825c0.525-1.275,0.4-2.337-0.375-3.188c-0.4-0.425-0.85-0.725-1.35-0.9l-0.188-1.2
				c0.3-0.775,1.475-1.025,3.524-0.75c2.7,0.325,4.575,1.113,5.625,2.363C50.8-14.5,51.063-13.913,51.063-13.363z"/>
			<path style="fill-rule:evenodd;clip-rule:evenodd;fill:#EDE2AD;" d="M34.899-12.462c1.15,0.475,2.362,0.913,3.638,1.313
				c2.6,0.75,4.3,0.862,5.1,0.337c1-0.675,0.9-1.888-0.3-3.638s-2.587-2.537-4.162-2.362c-2.675,0.275-4.263,0.487-4.763,0.637
				c-1.2,0.325-1.813,0.975-1.838,1.95c-0.024,0.85,0.226,1.313,0.75,1.388C34.275-12.663,34.8-12.538,34.899-12.462z"/>
			
				<linearGradient id="SVGID_12_" gradientUnits="userSpaceOnUse" x1="-1556.2598" y1="-14383.9072" x2="-1549.1688" y2="-14383.9072" gradientTransform="matrix(0.1613 -0.7325 0.7324 0.1613 10824.0781 1168.6582)">
				<stop  offset="0" style="stop-color:#FDCB53"/>
				<stop  offset="1" style="stop-color:#D48801"/>
			</linearGradient>
			<path style="fill-rule:evenodd;clip-rule:evenodd;fill:url(#SVGID_12_);" d="M34.337-11.15c1.15,0.25,2.362,0.462,3.638,0.637
				c2.6,0.3,4.3,0.188,5.1-0.337c0.976-0.65,1.063-1.688,0.263-3.112c-0.775-1.425-2.038-2.513-3.787-3.263
				c-1.7-0.7-3.4-0.663-5.101,0.112c-1.6,0.725-2.412,1.675-2.438,2.85c0,0.675,0.113,1.2,0.338,1.575
				c0.175,0.3,0.475,0.587,0.9,0.862C33.75-11.55,34.112-11.325,34.337-11.15z"/>
			
				<linearGradient id="SVGID_13_" gradientUnits="userSpaceOnUse" x1="11504.5332" y1="-19208.2305" x2="11517.2607" y2="-19208.2305" gradientTransform="matrix(-0.6614 -0.3536 0.3536 -0.6614 14444.168 -8648.8789)">
				<stop  offset="0" style="stop-color:#D69211"/>
				<stop  offset="1" style="stop-color:#C98000"/>
			</linearGradient>
			<path style="fill-rule:evenodd;clip-rule:evenodd;fill:url(#SVGID_13_);" d="M39.55-17.225c-1.7-0.7-3.4-0.663-5.101,0.112
				c-1.6,0.725-2.412,1.675-2.438,2.85c0,0.35,0.025,0.6,0.075,0.75c0.3-1.925,1.863-2.887,4.688-2.887
				c1.75-0.025,3.338,0.412,4.763,1.313c1.375,0.875,2.15,1.875,2.325,3c0-1.175-0.587-2.313-1.763-3.413
				C41.274-16.3,40.425-16.875,39.55-17.225z"/>
			<path style="fill-rule:evenodd;clip-rule:evenodd;fill:#EDE2AD;" d="M35.35-12.275c-0.85,0.05-1.5,0.137-1.95,0.262
				c-0.25,0.2-0.387,0.475-0.412,0.825c-0.05,0.725,0.538,1.475,1.763,2.25c0.8,0.525,1.899,0.925,3.3,1.2
				c0.7,0.15,1.325,0.25,1.875,0.3c0.6,0.025,1.288-0.513,2.063-1.613c0.4-0.525,0.737-1.062,1.013-1.612
				c0.2,0,0.237-0.05,0.112-0.15c-0.2-0.15-1.025-0.425-2.476-0.825C38.762-12.112,37-12.325,35.35-12.275z"/>
			
				<linearGradient id="SVGID_14_" gradientUnits="userSpaceOnUse" x1="397.9072" y1="364.6064" x2="414.2362" y2="364.6064" gradientTransform="matrix(0.7492 0.0356 -0.0356 0.7492 -252.6084 -297.313)">
				<stop  offset="0" style="stop-color:#FDCB53"/>
				<stop  offset="1" style="stop-color:#D48801"/>
			</linearGradient>
			<path style="fill-rule:evenodd;clip-rule:evenodd;fill:url(#SVGID_14_);" d="M39.662-7.363c0.925,0,2.612-0.85,5.063-2.55
				c-0.45-0.325-1.85-0.8-4.2-1.425c-1.85-0.475-3.688-0.75-5.513-0.825c-0.899-0.05-1.625-0.038-2.175,0.038
				c-0.225,0.225-0.325,0.525-0.3,0.9c0.05,0.775,0.688,1.55,1.912,2.325c0.825,0.525,1.938,0.938,3.338,1.237
				C38.487-7.513,39.112-7.413,39.662-7.363z"/>
			<path style="fill-rule:evenodd;clip-rule:evenodd;fill:#EDE2AD;" d="M42.774-10.888c-1.175,0.65-2.112,1.263-2.813,1.837
				C38.637-7.975,39.15-7.163,41.5-6.613C43.425-6.138,45.237-6.2,46.938-6.8c0.85-0.325,1.5-0.687,1.949-1.087
				c-1.85-0.025-3.262-0.35-4.237-0.975C43.675-9.513,43.05-10.188,42.774-10.888z"/>
			
				<linearGradient id="SVGID_15_" gradientUnits="userSpaceOnUse" x1="418.0645" y1="375.9092" x2="430.8797" y2="375.9092" gradientTransform="matrix(0.7491 0.0366 -0.0366 0.7491 -260.0625 -305.5146)">
				<stop  offset="0" style="stop-color:#FDCB53"/>
				<stop  offset="1" style="stop-color:#D48801"/>
			</linearGradient>
			<path style="fill-rule:evenodd;clip-rule:evenodd;fill:url(#SVGID_15_);" d="M43.074-10.85c-1.325,0.825-2.324,1.512-3,2.063
				c-0.6,0.5-0.837,0.925-0.712,1.275c0.149,0.475,0.887,0.875,2.212,1.2c1.95,0.475,3.763,0.4,5.438-0.225
				c0.85-0.325,1.5-0.688,1.95-1.087c-0.45,0-0.975-0.038-1.575-0.113C46.237-7.913,45.362-8.2,44.762-8.6
				C43.787-9.25,43.225-10,43.074-10.85z"/>
			<path style="fill-rule:evenodd;clip-rule:evenodd;fill:#EDE2AD;" d="M51.85-12.462c-0.4,1.175-1.212,1.85-2.438,2.025
				c-1.9,0.25-3.575,0.275-5.025,0.075L42.774-10.7c-0.05,0.2,0,0.463,0.15,0.788c0.275,0.65,0.875,1.237,1.8,1.763
				c1.5,0.85,3.063,1.012,4.688,0.487c1.625-0.5,2.863-1.563,3.713-3.188c0.65-1.225,0.675-2.15,0.074-2.775l-1.125-0.525
				C52.125-13.6,52.05-13.038,51.85-12.462z"/>
			
				<linearGradient id="SVGID_16_" gradientUnits="userSpaceOnUse" x1="424.9263" y1="373.4551" x2="439.7191" y2="373.4551" gradientTransform="matrix(0.7491 0.0368 -0.0368 0.7491 -261.4629 -307.0576)">
				<stop  offset="0" style="stop-color:#FDCB53"/>
				<stop  offset="1" style="stop-color:#D48801"/>
			</linearGradient>
			<path style="fill-rule:evenodd;clip-rule:evenodd;fill:url(#SVGID_16_);" d="M51.137-13.738
				c-0.575,1.175-1.412,2.013-2.512,2.513c-1.525,0.675-2.9,0.938-4.125,0.788l-1.426-0.413c-0.05,0.225,0,0.5,0.15,0.825
				C43.5-9.4,44.1-8.825,45.024-8.3c1.55,0.875,3.188,1.125,4.913,0.75c1.8-0.375,3.112-1.35,3.938-2.925
				c0.65-1.225,0.475-2.4-0.525-3.525c-0.475-0.575-1.025-1.013-1.65-1.313C51.625-14.838,51.438-14.313,51.137-13.738z"/>
			<path style="fill-rule:evenodd;clip-rule:evenodd;fill:#C98000;" d="M53.35-14c-0.475-0.575-1.025-1.013-1.65-1.313
				c-0.074,0.525-0.275,1.087-0.6,1.688c0.925,0.35,1.563,0.9,1.912,1.65c0.425,0.95,0.238,2.025-0.563,3.225
				c0.601-0.475,1.075-1.05,1.426-1.725C54.525-11.7,54.35-12.875,53.35-14z"/>
			<path style="fill-rule:evenodd;clip-rule:evenodd;fill:#EDE2AD;" d="M51.25-14.113c-0.043,0.471-0.331,1.008-0.863,1.613
				c-0.524,0.6-1.037,1-1.537,1.2c-1.65,0.65-3.112,0.925-4.388,0.825l-1.388-0.375c-0.2-0.075-0.3-0.05-0.3,0.075
				c0.95,0.45,2.075,0.612,3.375,0.487c1.225-0.1,2.35-0.45,3.375-1.05c0.525-0.3,0.95-0.738,1.275-1.313
				C51.066-13.135,51.216-13.622,51.25-14.113z"/>
			<path style="fill-rule:evenodd;clip-rule:evenodd;fill:#EDE2AD;" d="M43.75-10.438c0.25,0,0.312-0.025,0.188-0.075
				c-0.325-0.125-0.463-0.275-0.413-0.45c0.025-0.075-0.037-0.087-0.188-0.038c-0.275,0.075-0.662,0.038-1.162-0.113l-0.038-0.019
				c0.099,0.065,0.187,0.159,0.263,0.281c0.05,0.1,0.1,0.188,0.15,0.263l0.375,0.112C43.25-10.425,43.524-10.413,43.75-10.438z"/>
			<path style="fill-rule:evenodd;clip-rule:evenodd;fill:#A88A43;" d="M36.925-7.925C37.174-7.925,37.3-8,37.3-8.15
				c0-0.15-0.112-0.275-0.338-0.375c-0.175-0.075-0.35-0.1-0.524-0.075c-0.15,0.025-0.25,0.087-0.301,0.188
				c-0.05,0.075,0,0.175,0.15,0.3C36.438-8.013,36.649-7.95,36.925-7.925z"/>
			<path style="fill-rule:evenodd;clip-rule:evenodd;fill:#EDE2AD;" d="M36.85-7.85c0.25,0,0.375-0.075,0.375-0.225
				S37.112-8.35,36.887-8.45c-0.375-0.175-0.65-0.138-0.824,0.113c-0.05,0.1,0,0.2,0.149,0.3C36.362-7.913,36.575-7.85,36.85-7.85z"
				/>
			<path style="fill-rule:evenodd;clip-rule:evenodd;fill:#FFFFFF;" d="M36.699-7.925c0.125,0,0.213-0.025,0.263-0.075
				c0.025-0.05-0.012-0.1-0.112-0.15c-0.275-0.225-0.462-0.25-0.563-0.075C36.262-8.15,36.3-8.088,36.399-8.038
				C36.475-7.962,36.575-7.925,36.699-7.925z"/>
			<path style="fill-rule:evenodd;clip-rule:evenodd;fill:#A88A43;" d="M38.649-8.488c0.45-0.025,0.613-0.137,0.487-0.337
				C38.987-9,38.737-9.087,38.387-9.087c-0.3,0.025-0.387,0.125-0.262,0.3C38.25-8.588,38.425-8.488,38.649-8.488z"/>
			<path style="fill-rule:evenodd;clip-rule:evenodd;fill:#A88A43;" d="M35.987-9.725c0.325,0.05,0.45-0.012,0.375-0.188
				c-0.1-0.2-0.25-0.275-0.45-0.225c-0.175,0.025-0.25,0.088-0.225,0.188C35.737-9.825,35.837-9.75,35.987-9.725z"/>
			<path style="fill-rule:evenodd;clip-rule:evenodd;fill:#A88A43;" d="M40.787-12.2c0.325-0.075,0.4-0.175,0.225-0.3
				c-0.149-0.15-0.337-0.2-0.563-0.15c-0.225,0.025-0.3,0.112-0.225,0.262C40.325-12.238,40.512-12.175,40.787-12.2z"/>
			<path style="fill-rule:evenodd;clip-rule:evenodd;fill:#A88A43;" d="M38.087-14.113c0.275,0.05,0.45,0.013,0.525-0.112
				c0.075-0.15-0.05-0.225-0.375-0.225c-0.275,0-0.4,0.05-0.375,0.15S37.962-14.138,38.087-14.113z"/>
			<path style="fill-rule:evenodd;clip-rule:evenodd;fill:#A88A43;" d="M46.862-11.488c0.45,0,0.688-0.1,0.712-0.3
				c0-0.225-0.2-0.313-0.6-0.263c-0.35,0.025-0.512,0.125-0.487,0.3C46.512-11.6,46.637-11.513,46.862-11.488z"/>
			<path style="fill-rule:evenodd;clip-rule:evenodd;fill:#A88A43;" d="M51.137-8.75c0.425-0.1,0.576-0.275,0.45-0.525
				c-0.1-0.225-0.337-0.25-0.712-0.075c-0.301,0.15-0.388,0.3-0.263,0.45C50.762-8.725,50.937-8.675,51.137-8.75z"/>
			<path style="fill-rule:evenodd;clip-rule:evenodd;fill:#A88A43;" d="M47.649-7.925C47.6-8.2,47.4-8.325,47.05-8.3
				c-0.375,0.025-0.538,0.138-0.487,0.338c0.05,0.15,0.25,0.237,0.6,0.262C47.537-7.675,47.7-7.75,47.649-7.925z"/>
			<path style="fill-rule:evenodd;clip-rule:evenodd;fill:#A88A43;" d="M48.438-9.538c0.575-0.15,0.7-0.337,0.375-0.563
				c-0.301-0.25-0.638-0.288-1.013-0.112c-0.325,0.125-0.388,0.288-0.188,0.487C47.812-9.525,48.087-9.462,48.438-9.538z"/>
			<path style="fill-rule:evenodd;clip-rule:evenodd;fill:#A88A43;" d="M44.313-6.35c0.475,0.025,0.637-0.112,0.487-0.413
				c-0.15-0.325-0.413-0.45-0.788-0.375c-0.35,0.05-0.462,0.2-0.337,0.45C43.824-6.462,44.037-6.35,44.313-6.35z"/>
			<path style="fill-rule:evenodd;clip-rule:evenodd;fill:#A88A43;" d="M36.324-12.538c0.5,0.025,0.65-0.112,0.45-0.413
				c-0.225-0.275-0.524-0.325-0.899-0.15c-0.351,0.125-0.438,0.25-0.263,0.375C35.762-12.6,36-12.538,36.324-12.538z"/>
			<path style="fill-rule:evenodd;clip-rule:evenodd;fill:#A88A43;" d="M41.537-7.813c0.475-0.1,0.587-0.3,0.338-0.6
				C41.6-8.737,41.325-8.8,41.05-8.6c-0.25,0.15-0.3,0.337-0.15,0.563C41.075-7.838,41.287-7.763,41.537-7.813z"/>
			<path style="fill-rule:evenodd;clip-rule:evenodd;fill:#EDE2AD;" d="M38.574-8.45c0.475-0.025,0.638-0.125,0.488-0.3
				c-0.125-0.175-0.375-0.263-0.75-0.263c-0.301,0-0.388,0.1-0.263,0.3C38.199-8.513,38.375-8.425,38.574-8.45z"/>
			<path style="fill-rule:evenodd;clip-rule:evenodd;fill:#EDE2AD;" d="M35.949-9.65c0.301,0.05,0.413-0.025,0.338-0.225
				s-0.212-0.275-0.412-0.225c-0.175,0.025-0.25,0.1-0.226,0.225C35.7-9.75,35.8-9.675,35.949-9.65z"/>
			<path style="fill-rule:evenodd;clip-rule:evenodd;fill:#EDE2AD;" d="M40.75-12.163c0.325-0.05,0.399-0.15,0.225-0.3
				c-0.175-0.15-0.375-0.2-0.6-0.15c-0.201,0.05-0.263,0.15-0.188,0.3C40.287-12.163,40.475-12.112,40.75-12.163z"/>
			<path style="fill-rule:evenodd;clip-rule:evenodd;fill:#EDE2AD;" d="M38.05-14.038c0.275,0.05,0.45,0,0.524-0.15
				c0.075-0.15-0.05-0.225-0.375-0.225c-0.3,0.025-0.437,0.087-0.412,0.188S37.899-14.063,38.05-14.038z"/>
			<path style="fill-rule:evenodd;clip-rule:evenodd;fill:#EDE2AD;" d="M46.824-11.45c0.45,0,0.676-0.1,0.676-0.3
				c0.024-0.225-0.163-0.313-0.563-0.263c-0.351,0.05-0.513,0.163-0.488,0.337C46.475-11.525,46.6-11.45,46.824-11.45z"/>
			<path style="fill-rule:evenodd;clip-rule:evenodd;fill:#EDE2AD;" d="M51.1-8.675c0.425-0.1,0.575-0.275,0.45-0.525
				c-0.125-0.225-0.363-0.25-0.713-0.075C50.537-9.15,50.45-9,50.574-8.825C50.7-8.675,50.875-8.625,51.1-8.675z"/>
			<path style="fill-rule:evenodd;clip-rule:evenodd;fill:#EDE2AD;" d="M47.612-7.85c-0.05-0.275-0.25-0.4-0.601-0.375
				c-0.375,0.025-0.537,0.125-0.487,0.3c0.05,0.175,0.25,0.275,0.601,0.3C47.5-7.6,47.662-7.675,47.612-7.85z"/>
			<path style="fill-rule:evenodd;clip-rule:evenodd;fill:#EDE2AD;" d="M48.399-9.5c0.575-0.15,0.7-0.337,0.375-0.563
				c-0.3-0.225-0.638-0.263-1.013-0.113c-0.325,0.15-0.387,0.325-0.188,0.525C47.775-9.45,48.049-9.4,48.399-9.5z"/>
			<path style="fill-rule:evenodd;clip-rule:evenodd;fill:#EDE2AD;" d="M44.274-6.275c0.475,0.025,0.638-0.125,0.487-0.45
				c-0.125-0.3-0.387-0.425-0.787-0.375c-0.375,0.05-0.487,0.2-0.338,0.45C43.762-6.425,43.975-6.3,44.274-6.275z"/>
			<path style="fill-rule:evenodd;clip-rule:evenodd;fill:#EDE2AD;" d="M36.25-12.462c0.524,0,0.675-0.138,0.449-0.413
				c-0.2-0.275-0.5-0.337-0.899-0.188c-0.35,0.15-0.438,0.287-0.263,0.413C35.688-12.525,35.925-12.462,36.25-12.462z"/>
			<path style="fill-rule:evenodd;clip-rule:evenodd;fill:#EDE2AD;" d="M41.5-7.738c0.475-0.1,0.587-0.312,0.337-0.637
				c-0.275-0.325-0.55-0.388-0.825-0.188C40.737-8.388,40.687-8.2,40.862-8C41.012-7.775,41.225-7.688,41.5-7.738z"/>
			<path style="fill-rule:evenodd;clip-rule:evenodd;fill:#FFFFFF;" d="M38.462-8.525c0.175,0.025,0.263,0,0.263-0.075
				c0-0.05-0.075-0.075-0.225-0.075c-0.125-0.025-0.188-0.012-0.188,0.038S38.362-8.55,38.462-8.525z"/>
			<path style="fill-rule:evenodd;clip-rule:evenodd;fill:#FFFFFF;" d="M36.024-9.725c0.1,0,0.125-0.038,0.075-0.112
				c-0.05-0.05-0.125-0.075-0.225-0.075C35.775-9.888,35.75-9.85,35.8-9.8C35.825-9.75,35.899-9.725,36.024-9.725z"/>
			<path style="fill-rule:evenodd;clip-rule:evenodd;fill:#FFFFFF;" d="M36.25-12.575c0.225-0.025,0.25-0.087,0.074-0.188
				c-0.2-0.1-0.375-0.125-0.524-0.075c-0.125,0.05-0.125,0.112,0,0.188C35.949-12.575,36.1-12.55,36.25-12.575z"/>
			<path style="fill-rule:evenodd;clip-rule:evenodd;fill:#FFFFFF;" d="M40.637-12.238c0.275-0.05,0.201-0.112-0.225-0.188
				c-0.075,0.025-0.075,0.075,0,0.15C40.462-12.225,40.537-12.213,40.637-12.238z"/>
			<path style="fill-rule:evenodd;clip-rule:evenodd;fill:#FFFFFF;" d="M38.199-14.113c0.125-0.025,0.163-0.05,0.113-0.075
				c-0.075-0.025-0.163-0.038-0.263-0.038C37.95-14.225,38-14.188,38.199-14.113z"/>
			<path style="fill-rule:evenodd;clip-rule:evenodd;fill:#FFFFFF;" d="M47.05-11.563c0.2-0.1,0.212-0.163,0.037-0.188
				c-0.2-0.05-0.337-0.038-0.412,0.038c-0.05,0.075-0.025,0.125,0.075,0.15C46.824-11.513,46.924-11.513,47.05-11.563z"/>
			<path style="fill-rule:evenodd;clip-rule:evenodd;fill:#FFFFFF;" d="M48.324-9.575c0.275-0.075,0.301-0.162,0.075-0.262
				c-0.25-0.1-0.45-0.113-0.6-0.038c-0.125,0.075-0.1,0.15,0.075,0.225C48.024-9.55,48.175-9.525,48.324-9.575z"/>
			<path style="fill-rule:evenodd;clip-rule:evenodd;fill:#FFFFFF;" d="M50.949-8.863c0.1-0.05,0.226-0.15,0.375-0.3
				c0.075-0.075,0.013-0.1-0.188-0.075c-0.225,0-0.362,0.05-0.412,0.15c-0.075,0.075-0.075,0.15,0,0.225
				C50.8-8.813,50.875-8.813,50.949-8.863z"/>
			<path style="fill-rule:evenodd;clip-rule:evenodd;fill:#FFFFFF;" d="M47.05-7.738c0.2-0.05,0.237-0.125,0.112-0.225
				C47.037-8.038,46.912-8.05,46.787-8c-0.1,0.025-0.1,0.075,0,0.15C46.862-7.775,46.95-7.738,47.05-7.738z"/>
			<path style="fill-rule:evenodd;clip-rule:evenodd;fill:#FFFFFF;" d="M44.237-6.35c0.25-0.025,0.3-0.112,0.149-0.263
				c-0.174-0.15-0.312-0.188-0.412-0.112s-0.112,0.15-0.037,0.225C44.012-6.4,44.112-6.35,44.237-6.35z"/>
			<path style="fill-rule:evenodd;clip-rule:evenodd;fill:#FFFFFF;" d="M41.274-7.85c0.25-0.075,0.313-0.175,0.188-0.3
				c-0.149-0.15-0.287-0.188-0.412-0.113C40.975-8.213,40.962-8.125,41.012-8C41.087-7.875,41.175-7.825,41.274-7.85z"/>
		</g>
		<g>
			
				<linearGradient id="SVGID_17_" gradientUnits="userSpaceOnUse" x1="-331.1113" y1="-374.9214" x2="-313.1207" y2="-374.9214" gradientTransform="matrix(0.9341 -0.039 0.039 0.9341 335.8311 309.251)">
				<stop  offset="0" style="stop-color:#E9B140"/>
				<stop  offset="1" style="stop-color:#C47E00"/>
			</linearGradient>
			<path style="fill-rule:evenodd;clip-rule:evenodd;fill:url(#SVGID_17_);" d="M30.423-20.531c5.392-0.155,8.337-1.293,8.835-3.412
				c0.654-2.836,0.483-5.267-0.515-7.293c-1.09-2.15-3.022-3.662-5.796-4.534c-1.963-0.624-4.456-0.982-7.479-1.076
				c-3.023-0.062-5.33,0.156-6.918,0.655c-4.145,1.34-6.249,3.755-6.311,7.246c0,1.122,0.187,2.259,0.561,3.412l0.608,1.45
				c1.527,0.28,3.022,0.779,4.487,1.496C21.105-21.092,25.281-20.406,30.423-20.531z"/>
			<path style="fill-rule:evenodd;clip-rule:evenodd;fill:#EDE2AD;" d="M12.894-25.439c0.966,1.807,5.423,2.711,13.37,2.711
				c7.697-0.031,11.982-0.561,12.855-1.589c0.685-0.873,0.639-2.057-0.141-3.553c-0.841-1.527-2.104-2.68-3.787-3.459
				c-1.994-0.935-4.253-1.59-6.778-1.963c-3.054-0.468-6.171-0.452-9.349,0.046c-2.68,0.405-4.612,1.387-5.797,2.945
				C12.115-28.774,11.99-27.153,12.894-25.439z"/>
			<path style="fill-rule:evenodd;clip-rule:evenodd;fill:#805B28;" d="M29.302-33.152c-1.153-0.312-2.493-0.483-4.021-0.514
				c-0.935-0.032-1.963,0-3.085,0.093l-1.402,0.093c-0.281,0.063-0.561,0.172-0.841,0.328l-7.573,4.768
				c-0.031,0.529-0.031,0.873,0,1.028c0.031,0.093,0.218,0.093,0.561,0c0.716-0.156,1.106-0.233,1.168-0.233
				c16.797,0.685,25.134,0.748,25.009,0.187c-0.125-0.561-0.358-0.981-0.701-1.262c-0.749-0.405-1.823-0.935-3.226-1.589
				L29.302-33.152z"/>
			<path style="fill-rule:evenodd;clip-rule:evenodd;fill:#66481E;" d="M32.013-20.157c1.215-0.374,4.004-1.605,8.367-3.693
				c0.561-0.25,0.748-0.919,0.561-2.01c-0.094-0.529-0.265-0.903-0.514-1.122c-0.187-0.156-0.732-0.467-1.636-0.935
				c-3.241-1.808-5.547-3.039-6.918-3.693c-1.621-0.779-2.977-1.402-4.067-1.87c-2.057-0.841-3.412-1.138-4.067-0.888
				c-2.275,0.872-3.958,1.651-5.048,2.337c-2.337,1.34-4.036,2.384-5.096,3.131c-0.904,0.624-1.496,1.029-1.776,1.216
				c-0.405,0.312-0.639,0.592-0.702,0.841c-0.343,1.621-0.14,2.524,0.608,2.711c0.592,0.156,1.559,0.452,2.898,0.889
				c1.402,0.467,2.322,0.81,2.758,1.028c1.683,0.686,4.768,1.652,9.256,2.898c0.779,0.218,1.667,0.218,2.665,0
				C29.551-19.377,30.455-19.658,32.013-20.157z"/>
			<path style="fill-rule:evenodd;clip-rule:evenodd;fill:#573F1B;" d="M40.661-24.083c0.249-0.125,0.389-0.452,0.42-0.982
				c0.031-0.468-0.016-0.904-0.14-1.309c-0.094-0.343-0.374-0.67-0.841-0.981c-0.28-0.187-0.951-0.545-2.01-1.075
				c-2.088-1.091-3.942-2.026-5.563-2.805c-3.023-1.527-5.017-2.446-5.983-2.757c-0.935-0.312-1.589-0.452-1.963-0.421l-0.28,0.14
				c0.094,0.093,0.171,0.608,0.234,1.543c0.031,0.592-0.187,1.324-0.655,2.196l-0.701,1.123
				C34.49-25.704,40.318-23.927,40.661-24.083z"/>
			<path style="fill-rule:evenodd;clip-rule:evenodd;fill:#805B28;" d="M30.377-19.642c2.368-0.655,3.88-1.153,4.534-1.496
				c0.343-0.187,1.371-0.686,3.085-1.496c1.621-0.779,2.508-1.262,2.665-1.449c0.28-0.375-0.047-0.795-0.982-1.262
				c-2.213-0.998-3.724-1.745-4.534-2.244c-0.81-0.499-3.896-1.808-9.256-3.927c-1.028-0.374-2.119-0.203-3.272,0.514
				c-0.748,0.437-2.181,1.231-4.3,2.384c-2.431,1.34-3.927,2.135-4.488,2.384c-1.745,0.841-2.571,1.418-2.478,1.73
				c0.094,0.374,0.857,0.764,2.291,1.168c1.713,0.717,3.474,1.449,5.282,2.197c3.677,1.464,5.843,2.259,6.497,2.384
				C26.107-18.63,27.759-18.925,30.377-19.642z"/>
			
				<use xlink:href="#flash0.ai_x2F_Layer_7_x2F__x3C_Path_x3E__x5F_226"  width="31.463" height="13.943" x="0.032" y="-13.903" transform="matrix(0.9349 0 0 0.9349 10.8999 -19.25)" style="overflow:visible;opacity:0.5313;enable-background:new    ;"/>
			<path style="fill-rule:evenodd;clip-rule:evenodd;fill:#F5C419;" d="M32.153-20.297c1.558-0.156,2.867-0.499,3.927-1.028
				c0.093-0.031,0.577-0.265,1.449-0.701c0.499-0.25,0.935-0.437,1.309-0.561c0.374-0.125,0.779-0.312,1.215-0.561
				c0.218-0.156,0.514-0.343,0.888-0.561c0.343-0.156,0.14-0.421-0.608-0.794c-1.028-0.53-1.558-0.811-1.589-0.841
				c-0.187-0.156-0.623-0.203-1.309-0.14c-0.873,0.062-1.402,0.078-1.589,0.046c-0.312-0.031-0.545-0.187-0.701-0.467
				c-0.218-0.405-0.452-0.717-0.701-0.935c-0.437-0.374-0.686-0.592-0.748-0.655c-0.031-0.062-0.187-0.28-0.468-0.654
				c-0.187-0.25-0.405-0.406-0.654-0.468c-0.312-0.093-0.561-0.218-0.749-0.374c-0.125-0.125-0.125-0.327,0-0.608
				c0.156-0.249,0.156-0.436,0-0.561c-0.467-0.499-0.826-0.577-1.075-0.234c-0.125,0.156-0.234,0.28-0.328,0.374
				c-0.125,0.125-0.296,0.203-0.514,0.234c-0.406,0.093-0.889,0.031-1.45-0.188c-0.561-0.311-0.95-0.514-1.168-0.607
				c-0.53-0.218-0.873-0.545-1.028-0.981c-0.187-0.467-0.39-0.764-0.608-0.888c-0.312-0.156-0.717-0.047-1.215,0.327
				c-0.592,0.437-1.028,0.654-1.309,0.654c-0.561-0.062-0.966-0.093-1.216-0.093c-0.436,0-0.841,0.125-1.215,0.374
				c-0.561,0.374-0.935,0.935-1.122,1.683c-0.031,0.187-0.389,0.358-1.075,0.514c-0.779,0.187-1.355,0.499-1.73,0.935
				c-0.374,0.436-0.872,0.779-1.496,1.028c-0.748,0.312-1.2,0.53-1.355,0.654c-0.28,0.188-0.811,0.468-1.59,0.841
				c-0.748,0.343-1.246,0.624-1.496,0.841c-0.374,0.281-0.187,0.67,0.561,1.169c0.592,0.374,1.153,0.639,1.683,0.795
				c0.748,0.249,3.864,0.732,9.349,1.449C28.071-20.531,31.312-20.203,32.153-20.297z"/>
			<path style="fill-rule:evenodd;clip-rule:evenodd;fill:#FFD129;" d="M34.958-20.764l2.618-1.122
				c0.467-0.28,1.106-0.545,1.917-0.794c0.405-0.218,0.592-0.452,0.561-0.701h-0.327c-0.779,0-1.434-0.094-1.963-0.281
				c-0.125-0.031-0.405-0.234-0.841-0.608c-0.405-0.343-0.779-0.561-1.122-0.654c-0.374-0.093-0.748-0.312-1.122-0.654
				c-0.063-0.063-0.452-0.483-1.169-1.262c-0.748-0.779-1.558-1.418-2.431-1.917c-0.281-0.187-0.701-0.265-1.262-0.234
				c-0.686,0.063-1.169,0.093-1.449,0.093c-0.405,0-1.371-0.28-2.898-0.841c-0.841-0.187-1.839-0.452-2.992-0.795
				c-0.717-0.217-1.168-0.265-1.355-0.14c-0.125,0.25-0.218,0.452-0.281,0.608c-0.405,0.81-0.732,1.34-0.981,1.589
				c-1.247,1.309-2.212,2.259-2.898,2.852c-0.966,0.81-2.353,1.434-4.16,1.87c-0.748,0.156-1.153,0.328-1.215,0.515
				c0.467,0.249,1.075,0.437,1.823,0.561c0.873,0.249,1.683,0.467,2.43,0.654c1.496,0.405,2.634,0.624,3.413,0.654
				c0.343,0.53,2.976,0.811,7.9,0.841C31.857-20.468,34.459-20.546,34.958-20.764z"/>
			<path style="fill-rule:evenodd;clip-rule:evenodd;fill:#FFEDA8;" d="M24.908-31.236c0.654-0.155,0.826-0.467,0.514-0.935
				c-0.125-0.187-0.265-0.234-0.42-0.14c-0.093,0.031-0.233,0.171-0.421,0.421c-0.156,0.155-0.171,0.311-0.046,0.467
				C24.658-31.267,24.783-31.204,24.908-31.236z"/>
			<path style="fill-rule:evenodd;clip-rule:evenodd;fill:#D14B11;" d="M12.847-23.148c-0.281,0.842,0.42,1.558,2.104,2.15
				c1.776,0.623,3.974,0.857,6.591,0.701c2.275-0.125,3.584-0.873,3.927-2.244c0.155-0.686,0.093-1.356-0.188-2.01
				c-1.278-0.717-2.306-1.153-3.085-1.309c-0.499-0.093-1.621-0.125-3.366-0.093c-1.652,0.062-2.602,0.125-2.852,0.187
				c-0.436,0.156-0.888,0.374-1.355,0.654C13.688-24.52,13.096-23.865,12.847-23.148z"/>
			
				<linearGradient id="SVGID_18_" gradientUnits="userSpaceOnUse" x1="2.2876" y1="-24.1274" x2="16.0126" y2="-24.1274" gradientTransform="matrix(0.9349 0 0 0.9349 10.6499 -2.2998)">
				<stop  offset="0" style="stop-color:#E03F1B"/>
				<stop  offset="1" style="stop-color:#911C00"/>
			</linearGradient>
			<path style="fill-rule:evenodd;clip-rule:evenodd;fill:url(#SVGID_18_);" d="M12.8-22.4l0.748-1.309
				c0.841-0.904,2.119-1.465,3.833-1.683c2.213-0.28,4.238-0.202,6.077,0.234c0.935,0.187,1.652,0.421,2.15,0.701l-0.094-1.075
				l-0.981-0.607c-1.153-0.623-2.634-0.998-4.441-1.122c-2.337-0.218-4.301,0.265-5.89,1.449c-0.623,0.437-1.044,0.966-1.262,1.589
				l-0.188,0.842L12.8-22.4z"/>
			
				<use xlink:href="#flash0.ai_x2F_Layer_7_x2F__x3C_Path_x3E__x5F_220"  width="31.324" height="11.271" x="0.017" y="-11.309" transform="matrix(0.9349 0 0 0.9349 10.8999 -19.25)" style="overflow:visible;opacity:0.8711;enable-background:new    ;"/>
			<path style="fill-rule:evenodd;clip-rule:evenodd;fill:#FFEDA8;" d="M26.123-29.506c-0.779-0.561-1.62-0.841-2.524-0.841
				c-0.405-0.031-0.935-0.188-1.589-0.468c-0.25-0.093-0.561-0.031-0.935,0.188l0.421,0.046c0.374,0.063,0.748,0.171,1.122,0.327
				c0.281,0.125,0.779,0.265,1.496,0.421c0.686,0.125,1.138,0.265,1.356,0.421c1.122,0.686,2.197,0.95,3.225,0.794
				c0.907-0.143,1.491-0.229,1.753-0.257l-1.332-0.07C27.619-29.007,26.622-29.194,26.123-29.506z"/>
			
				<use xlink:href="#flash0.ai_x2F_Layer_7_x2F__x3C_Path_x3E__x5F_218"  width="27.325" height="9.31" y="-9.311" transform="matrix(0.9349 0 0 0.9349 12.1001 -18.1001)" style="overflow:visible;opacity:0.5391;enable-background:new    ;"/>
			<path style="fill-rule:evenodd;clip-rule:evenodd;fill:#FFDC5E;" d="M17.802-28.244c0.218-0.25,0.281-0.514,0.187-0.795
				c-0.063-0.249-0.203-0.343-0.421-0.28c-0.187,0.094-0.234,0.327-0.14,0.701C17.553-28.213,17.677-28.088,17.802-28.244z"/>
			<path style="fill-rule:evenodd;clip-rule:evenodd;fill:#FFDC5E;" d="M13.268-24.598c0.094-0.187,0.078-0.343-0.046-0.467
				c-0.125-0.125-0.203-0.125-0.234,0c-0.031,0.156-0.016,0.312,0.046,0.467C13.096-24.411,13.174-24.411,13.268-24.598z"/>
			<path style="fill-rule:evenodd;clip-rule:evenodd;fill:#FFDC5E;" d="M14.764-26.187c0.187,0,0.156-0.172-0.094-0.515
				c-0.249-0.343-0.405-0.452-0.467-0.327c-0.187,0.218-0.171,0.421,0.047,0.608C14.436-26.265,14.608-26.187,14.764-26.187z"/>
			<path style="fill-rule:evenodd;clip-rule:evenodd;fill:#FFDC5E;" d="M11.585-23.242c0.312-0.094,0.405-0.218,0.28-0.374
				c-0.093-0.125-0.234-0.187-0.42-0.187c-0.156,0-0.203,0.093-0.14,0.28C11.335-23.304,11.429-23.211,11.585-23.242z"/>
			
				<linearGradient id="SVGID_19_" gradientUnits="userSpaceOnUse" x1="413.6323" y1="365.6523" x2="431.6786" y2="365.6523" gradientTransform="matrix(0.9338 0.0453 -0.0453 0.9338 -350.8652 -381.3711)">
				<stop  offset="0" style="stop-color:#FDCB53"/>
				<stop  offset="1" style="stop-color:#D48801"/>
			</linearGradient>
			<path style="fill-rule:evenodd;clip-rule:evenodd;fill:url(#SVGID_19_);" d="M19.018-24.551c0.25,1.06,0.67,2.213,1.262,3.459
				c1.153,2.524,2.556,4.301,4.208,5.33c1.87,1.184,4.176,1.028,6.918-0.468c2.618-1.402,4.051-3.023,4.3-4.862
				c0.375-2.586-2.259-4.363-7.9-5.329c-2.212-0.343-4.207-0.25-5.983,0.28C20.451-25.735,19.516-25.205,19.018-24.551z"/>
			<path style="fill-rule:evenodd;clip-rule:evenodd;fill:#C98000;" d="M34.911-19.456l0.28-0.187
				c0.312-0.499,0.483-0.982,0.514-1.45c0.375-2.586-2.259-4.363-7.9-5.329c-2.212-0.343-4.207-0.25-5.983,0.28
				c-1.371,0.405-2.306,0.935-2.805,1.589c0.25,0.966,0.639,2.057,1.169,3.272c1.06,2.399,2.337,4.145,3.833,5.235
				c0.375,0.125,0.577,0.125,0.608,0c0.031-0.093,0.125-0.436,0.28-1.028c0.654-1.589,0.499-2.914-0.468-3.973
				c-0.499-0.53-1.06-0.904-1.683-1.122l-0.234-1.496c0.374-0.966,1.838-1.278,4.394-0.935c3.366,0.405,5.703,1.387,7.012,2.945
				C34.584-20.874,34.911-20.141,34.911-19.456z"/>
			<path style="fill-rule:evenodd;clip-rule:evenodd;fill:#EDE2AD;" d="M14.764-18.333c1.433,0.592,2.945,1.138,4.534,1.636
				c3.241,0.935,5.36,1.075,6.357,0.42c1.247-0.841,1.122-2.353-0.374-4.534c-1.496-2.182-3.225-3.163-5.188-2.945
				c-3.335,0.343-5.314,0.608-5.937,0.795c-1.496,0.405-2.259,1.216-2.291,2.431c-0.031,1.06,0.281,1.636,0.935,1.73
				C13.985-18.583,14.639-18.427,14.764-18.333z"/>
			
				<linearGradient id="SVGID_20_" gradientUnits="userSpaceOnUse" x1="-1556.2598" y1="-14383.9082" x2="-1549.1688" y2="-14383.9082" gradientTransform="matrix(0.2011 -0.913 0.913 0.2011 13464.1406 1454.0059)">
				<stop  offset="0" style="stop-color:#FDCB53"/>
				<stop  offset="1" style="stop-color:#D48801"/>
			</linearGradient>
			<path style="fill-rule:evenodd;clip-rule:evenodd;fill:url(#SVGID_20_);" d="M14.063-16.697c1.433,0.311,2.945,0.577,4.534,0.795
				c3.241,0.374,5.36,0.233,6.357-0.421c1.216-0.811,1.325-2.104,0.327-3.88c-0.966-1.776-2.54-3.132-4.721-4.067
				c-2.119-0.872-4.238-0.826-6.357,0.14c-1.995,0.904-3.007,2.088-3.039,3.553c0,0.841,0.141,1.496,0.421,1.963
				c0.218,0.375,0.592,0.733,1.122,1.076C13.33-17.196,13.782-16.916,14.063-16.697z"/>
			
				<linearGradient id="SVGID_21_" gradientUnits="userSpaceOnUse" x1="11504.5332" y1="-19208.2305" x2="11517.2607" y2="-19208.2305" gradientTransform="matrix(-0.8245 -0.4407 0.4407 -0.8245 17976.8047 -10784.1592)">
				<stop  offset="0" style="stop-color:#D69211"/>
				<stop  offset="1" style="stop-color:#C98000"/>
			</linearGradient>
			<path style="fill-rule:evenodd;clip-rule:evenodd;fill:url(#SVGID_21_);" d="M20.56-24.271c-2.119-0.872-4.238-0.826-6.357,0.14
				c-1.995,0.904-3.007,2.088-3.039,3.553c0,0.436,0.031,0.748,0.094,0.935c0.374-2.4,2.322-3.6,5.843-3.6
				c2.182-0.031,4.161,0.514,5.937,1.636c1.714,1.09,2.68,2.337,2.898,3.739c0-1.465-0.732-2.883-2.197-4.254
				C22.71-23.117,21.651-23.834,20.56-24.271z"/>
			<path style="fill-rule:evenodd;clip-rule:evenodd;fill:#EDE2AD;" d="M15.325-18.1c-1.06,0.062-1.87,0.171-2.431,0.327
				c-0.311,0.25-0.483,0.592-0.514,1.028c-0.063,0.904,0.67,1.838,2.197,2.805c0.997,0.654,2.369,1.153,4.114,1.496
				c0.873,0.188,1.651,0.312,2.337,0.374c0.748,0.032,1.605-0.639,2.571-2.01c0.499-0.654,0.919-1.325,1.262-2.01
				c0.25,0,0.296-0.063,0.14-0.187c-0.249-0.187-1.278-0.53-3.085-1.028C19.578-17.897,17.381-18.162,15.325-18.1z"/>
			
				<linearGradient id="SVGID_22_" gradientUnits="userSpaceOnUse" x1="397.9072" y1="364.6074" x2="414.2362" y2="364.6074" gradientTransform="matrix(0.9339 0.0444 -0.0444 0.9339 -343.6328 -373.417)">
				<stop  offset="0" style="stop-color:#FDCB53"/>
				<stop  offset="1" style="stop-color:#D48801"/>
			</linearGradient>
			<path style="fill-rule:evenodd;clip-rule:evenodd;fill:url(#SVGID_22_);" d="M20.7-11.976c1.153,0,3.257-1.06,6.311-3.179
				c-0.561-0.405-2.307-0.998-5.236-1.776c-2.306-0.592-4.597-0.935-6.872-1.028c-1.122-0.063-2.026-0.047-2.711,0.046
				c-0.28,0.281-0.405,0.655-0.374,1.122c0.063,0.966,0.856,1.933,2.384,2.898c1.028,0.654,2.415,1.168,4.161,1.542
				C19.235-12.163,20.015-12.038,20.7-11.976z"/>
			<path style="fill-rule:evenodd;clip-rule:evenodd;fill:#EDE2AD;" d="M24.58-16.37c-1.464,0.811-2.633,1.574-3.506,2.291
				c-1.651,1.34-1.013,2.353,1.917,3.039c2.399,0.592,4.659,0.514,6.778-0.234c1.06-0.405,1.87-0.857,2.431-1.355
				c-2.306-0.031-4.066-0.437-5.282-1.216C25.702-14.656,24.923-15.498,24.58-16.37z"/>
			
				<linearGradient id="SVGID_23_" gradientUnits="userSpaceOnUse" x1="418.0645" y1="375.9092" x2="430.8797" y2="375.9092" gradientTransform="matrix(0.9338 0.0456 -0.0456 0.9338 -352.9248 -383.6411)">
				<stop  offset="0" style="stop-color:#FDCB53"/>
				<stop  offset="1" style="stop-color:#D48801"/>
			</linearGradient>
			<path style="fill-rule:evenodd;clip-rule:evenodd;fill:url(#SVGID_23_);" d="M24.954-16.323c-1.652,1.028-2.898,1.885-3.74,2.571
				c-0.748,0.623-1.044,1.153-0.888,1.589c0.187,0.592,1.106,1.091,2.758,1.496c2.431,0.592,4.69,0.499,6.778-0.28
				c1.06-0.405,1.87-0.857,2.431-1.356c-0.561,0-1.215-0.046-1.963-0.14c-1.434-0.218-2.524-0.576-3.272-1.075
				C25.842-14.329,25.141-15.264,24.954-16.323z"/>
			<path style="fill-rule:evenodd;clip-rule:evenodd;fill:#EDE2AD;" d="M35.893-18.333c-0.499,1.464-1.512,2.306-3.039,2.524
				c-2.369,0.312-4.457,0.343-6.264,0.094l-2.01-0.42c-0.062,0.249,0,0.577,0.188,0.981c0.343,0.81,1.09,1.542,2.244,2.197
				c1.87,1.06,3.817,1.262,5.843,0.607c2.025-0.623,3.568-1.948,4.628-3.973c0.81-1.527,0.841-2.68,0.093-3.459l-1.402-0.654
				C36.236-19.751,36.142-19.05,35.893-18.333z"/>
			
				<linearGradient id="SVGID_24_" gradientUnits="userSpaceOnUse" x1="424.9263" y1="373.4551" x2="439.7191" y2="373.4551" gradientTransform="matrix(0.9338 0.0458 -0.0458 0.9338 -354.6709 -385.5645)">
				<stop  offset="0" style="stop-color:#FDCB53"/>
				<stop  offset="1" style="stop-color:#D48801"/>
			</linearGradient>
			<path style="fill-rule:evenodd;clip-rule:evenodd;fill:url(#SVGID_24_);" d="M35.004-19.923
				c-0.717,1.465-1.761,2.509-3.131,3.132c-1.901,0.841-3.615,1.169-5.142,0.981l-1.777-0.514c-0.062,0.28,0,0.623,0.187,1.028
				c0.343,0.779,1.091,1.496,2.244,2.15c1.933,1.091,3.974,1.402,6.124,0.935c2.244-0.467,3.88-1.683,4.909-3.646
				c0.81-1.527,0.592-2.992-0.655-4.395c-0.592-0.716-1.278-1.262-2.057-1.636C35.612-21.294,35.379-20.64,35.004-19.923z"/>
			<path style="fill-rule:evenodd;clip-rule:evenodd;fill:#C98000;" d="M37.763-20.25c-0.592-0.716-1.278-1.262-2.057-1.636
				c-0.093,0.654-0.343,1.355-0.748,2.104c1.153,0.437,1.948,1.122,2.384,2.057c0.53,1.185,0.296,2.525-0.701,4.02
				c0.748-0.592,1.34-1.309,1.777-2.15C39.228-17.383,39.009-18.848,37.763-20.25z"/>
			<path style="fill-rule:evenodd;clip-rule:evenodd;fill:#EDE2AD;" d="M35.145-20.391c-0.054,0.587-0.412,1.256-1.076,2.01
				c-0.654,0.748-1.293,1.247-1.916,1.496c-2.057,0.81-3.88,1.153-5.47,1.028l-1.729-0.467c-0.25-0.094-0.374-0.063-0.374,0.093
				c1.184,0.561,2.587,0.763,4.207,0.608c1.527-0.125,2.93-0.561,4.208-1.309c0.654-0.374,1.184-0.919,1.589-1.636
				C34.916-19.171,35.103-19.779,35.145-20.391z"/>
			<path style="fill-rule:evenodd;clip-rule:evenodd;fill:#EDE2AD;" d="M25.796-15.81c0.312,0,0.389-0.031,0.234-0.093
				c-0.406-0.156-0.577-0.343-0.515-0.561c0.031-0.094-0.046-0.109-0.234-0.047c-0.343,0.094-0.826,0.047-1.449-0.14l-0.047-0.023
				c0.123,0.082,0.232,0.198,0.327,0.351c0.063,0.125,0.125,0.233,0.187,0.327l0.468,0.14C25.172-15.793,25.515-15.778,25.796-15.81
				z"/>
			<path style="fill-rule:evenodd;clip-rule:evenodd;fill:#A88A43;" d="M17.288-12.677c0.311,0,0.467-0.094,0.467-0.28
				c0-0.188-0.14-0.343-0.421-0.468c-0.218-0.093-0.437-0.125-0.654-0.093c-0.187,0.031-0.312,0.109-0.374,0.233
				c-0.062,0.094,0,0.218,0.187,0.374C16.68-12.787,16.945-12.708,17.288-12.677z"/>
			<path style="fill-rule:evenodd;clip-rule:evenodd;fill:#EDE2AD;" d="M17.194-12.584c0.312,0,0.468-0.093,0.468-0.28
				s-0.141-0.343-0.421-0.467c-0.468-0.218-0.811-0.171-1.028,0.14c-0.063,0.125,0,0.25,0.187,0.374
				C16.587-12.662,16.852-12.584,17.194-12.584z"/>
			<path style="fill-rule:evenodd;clip-rule:evenodd;fill:#FFFFFF;" d="M17.007-12.677c0.156,0,0.265-0.031,0.327-0.094
				c0.031-0.062-0.016-0.125-0.14-0.187c-0.343-0.281-0.577-0.312-0.701-0.094c-0.031,0.094,0.016,0.171,0.14,0.234
				C16.727-12.724,16.852-12.677,17.007-12.677z"/>
			<path style="fill-rule:evenodd;clip-rule:evenodd;fill:#A88A43;" d="M19.438-13.378c0.561-0.031,0.764-0.171,0.608-0.42
				c-0.187-0.218-0.499-0.328-0.935-0.328c-0.374,0.031-0.483,0.156-0.327,0.374C18.939-13.503,19.158-13.378,19.438-13.378z"/>
			<path style="fill-rule:evenodd;clip-rule:evenodd;fill:#A88A43;" d="M16.119-14.921c0.405,0.063,0.561-0.016,0.468-0.234
				c-0.125-0.25-0.312-0.343-0.561-0.28c-0.218,0.031-0.312,0.109-0.28,0.234C15.808-15.046,15.932-14.952,16.119-14.921z"/>
			<path style="fill-rule:evenodd;clip-rule:evenodd;fill:#A88A43;" d="M22.103-18.006c0.405-0.093,0.499-0.218,0.28-0.374
				c-0.187-0.187-0.42-0.25-0.701-0.187c-0.28,0.031-0.374,0.14-0.28,0.328C21.526-18.053,21.76-17.975,22.103-18.006z"/>
			<path style="fill-rule:evenodd;clip-rule:evenodd;fill:#A88A43;" d="M18.737-20.391c0.343,0.063,0.561,0.016,0.655-0.14
				c0.094-0.187-0.063-0.28-0.467-0.28c-0.343,0-0.499,0.062-0.468,0.187C18.488-20.5,18.581-20.421,18.737-20.391z"/>
			<path style="fill-rule:evenodd;clip-rule:evenodd;fill:#A88A43;" d="M29.676-17.118c0.561,0,0.857-0.125,0.888-0.374
				c0-0.28-0.249-0.389-0.748-0.327c-0.437,0.031-0.639,0.156-0.608,0.374C29.239-17.258,29.395-17.149,29.676-17.118z"/>
			<path style="fill-rule:evenodd;clip-rule:evenodd;fill:#A88A43;" d="M35.004-13.706c0.53-0.125,0.717-0.343,0.561-0.654
				c-0.125-0.281-0.42-0.312-0.888-0.094c-0.375,0.187-0.483,0.374-0.328,0.561C34.537-13.674,34.755-13.612,35.004-13.706z"/>
			<path style="fill-rule:evenodd;clip-rule:evenodd;fill:#A88A43;" d="M30.657-12.677c-0.062-0.343-0.312-0.499-0.748-0.468
				c-0.468,0.031-0.67,0.172-0.608,0.421c0.062,0.187,0.312,0.296,0.748,0.328C30.517-12.366,30.72-12.459,30.657-12.677z"/>
			<path style="fill-rule:evenodd;clip-rule:evenodd;fill:#A88A43;" d="M31.639-14.688c0.717-0.187,0.873-0.421,0.467-0.701
				c-0.374-0.312-0.794-0.358-1.262-0.14c-0.405,0.156-0.483,0.358-0.233,0.608C30.86-14.672,31.203-14.594,31.639-14.688z"/>
			<path style="fill-rule:evenodd;clip-rule:evenodd;fill:#A88A43;" d="M26.497-10.714c0.592,0.031,0.794-0.14,0.607-0.514
				c-0.187-0.405-0.514-0.561-0.982-0.467c-0.436,0.062-0.576,0.249-0.42,0.561C25.889-10.854,26.154-10.714,26.497-10.714z"/>
			<path style="fill-rule:evenodd;clip-rule:evenodd;fill:#A88A43;" d="M16.54-18.427c0.624,0.031,0.811-0.14,0.561-0.514
				c-0.28-0.343-0.654-0.405-1.122-0.188c-0.436,0.156-0.545,0.312-0.327,0.468C15.838-18.505,16.135-18.427,16.54-18.427z"/>
			<path style="fill-rule:evenodd;clip-rule:evenodd;fill:#A88A43;" d="M23.038-12.537c0.592-0.125,0.732-0.374,0.421-0.748
				c-0.343-0.405-0.686-0.483-1.028-0.233c-0.312,0.187-0.374,0.421-0.188,0.701C22.461-12.568,22.726-12.475,23.038-12.537z"/>
			<path style="fill-rule:evenodd;clip-rule:evenodd;fill:#EDE2AD;" d="M19.345-13.332c0.592-0.031,0.794-0.156,0.608-0.375
				c-0.156-0.218-0.467-0.327-0.935-0.327c-0.374,0-0.483,0.125-0.327,0.374C18.877-13.41,19.095-13.3,19.345-13.332z"/>
			<path style="fill-rule:evenodd;clip-rule:evenodd;fill:#EDE2AD;" d="M16.072-14.828c0.375,0.062,0.515-0.031,0.421-0.281
				c-0.094-0.249-0.265-0.343-0.514-0.28c-0.218,0.031-0.312,0.125-0.281,0.28C15.761-14.952,15.886-14.858,16.072-14.828z"/>
			<path style="fill-rule:evenodd;clip-rule:evenodd;fill:#EDE2AD;" d="M22.056-17.959c0.405-0.063,0.499-0.188,0.28-0.374
				c-0.218-0.187-0.467-0.249-0.748-0.187c-0.25,0.063-0.328,0.187-0.234,0.374C21.479-17.959,21.713-17.897,22.056-17.959z"/>
			<path style="fill-rule:evenodd;clip-rule:evenodd;fill:#EDE2AD;" d="M18.69-20.297c0.343,0.063,0.561,0,0.654-0.187
				s-0.063-0.28-0.468-0.28c-0.374,0.031-0.545,0.109-0.514,0.233C18.394-20.406,18.503-20.328,18.69-20.297z"/>
			<path style="fill-rule:evenodd;clip-rule:evenodd;fill:#EDE2AD;" d="M29.629-17.071c0.561,0,0.842-0.125,0.842-0.374
				c0.031-0.281-0.203-0.39-0.702-0.327c-0.436,0.062-0.639,0.202-0.608,0.42C29.193-17.165,29.349-17.071,29.629-17.071z"/>
			<path style="fill-rule:evenodd;clip-rule:evenodd;fill:#EDE2AD;" d="M34.958-13.612c0.53-0.125,0.717-0.343,0.561-0.654
				c-0.156-0.281-0.452-0.312-0.889-0.093c-0.374,0.155-0.483,0.343-0.327,0.561C34.459-13.612,34.678-13.55,34.958-13.612z"/>
			<path style="fill-rule:evenodd;clip-rule:evenodd;fill:#EDE2AD;" d="M30.611-12.584c-0.063-0.343-0.312-0.498-0.749-0.467
				c-0.467,0.031-0.669,0.156-0.607,0.374c0.063,0.218,0.312,0.343,0.748,0.374C30.471-12.272,30.673-12.366,30.611-12.584z"/>
			<path style="fill-rule:evenodd;clip-rule:evenodd;fill:#EDE2AD;" d="M31.592-14.641c0.716-0.187,0.873-0.42,0.467-0.701
				c-0.374-0.28-0.795-0.327-1.262-0.14c-0.405,0.187-0.483,0.405-0.234,0.654C30.813-14.578,31.156-14.516,31.592-14.641z"/>
			<path style="fill-rule:evenodd;clip-rule:evenodd;fill:#EDE2AD;" d="M26.45-10.62c0.592,0.031,0.794-0.156,0.607-0.561
				c-0.156-0.374-0.483-0.53-0.981-0.468c-0.467,0.063-0.607,0.25-0.421,0.561C25.812-10.808,26.076-10.651,26.45-10.62z"/>
			<path style="fill-rule:evenodd;clip-rule:evenodd;fill:#EDE2AD;" d="M16.447-18.333c0.654,0,0.841-0.171,0.561-0.515
				c-0.25-0.343-0.623-0.42-1.122-0.233c-0.437,0.187-0.545,0.358-0.328,0.514C15.746-18.412,16.042-18.333,16.447-18.333z"/>
			<path style="fill-rule:evenodd;clip-rule:evenodd;fill:#EDE2AD;" d="M22.991-12.444c0.592-0.125,0.732-0.389,0.42-0.794
				c-0.343-0.405-0.686-0.483-1.029-0.234c-0.343,0.218-0.405,0.452-0.187,0.701C22.383-12.49,22.648-12.381,22.991-12.444z"/>
			<path style="fill-rule:evenodd;clip-rule:evenodd;fill:#FFFFFF;" d="M19.205-13.425c0.218,0.031,0.327,0,0.327-0.093
				c0-0.063-0.094-0.094-0.28-0.094c-0.156-0.031-0.234-0.016-0.234,0.047S19.08-13.456,19.205-13.425z"/>
			<path style="fill-rule:evenodd;clip-rule:evenodd;fill:#FFFFFF;" d="M16.166-14.921c0.125,0,0.156-0.047,0.093-0.14
				c-0.063-0.063-0.155-0.094-0.28-0.094c-0.125,0.031-0.156,0.078-0.093,0.14C15.917-14.952,16.01-14.921,16.166-14.921z"/>
			<path style="fill-rule:evenodd;clip-rule:evenodd;fill:#FFFFFF;" d="M16.447-18.474c0.28-0.031,0.311-0.109,0.093-0.234
				c-0.249-0.125-0.467-0.156-0.654-0.093c-0.156,0.062-0.156,0.14,0,0.233C16.072-18.474,16.259-18.442,16.447-18.474z"/>
			<path style="fill-rule:evenodd;clip-rule:evenodd;fill:#FFFFFF;" d="M21.916-18.053c0.343-0.062,0.25-0.14-0.28-0.234
				c-0.094,0.031-0.094,0.094,0,0.188C21.698-18.038,21.791-18.022,21.916-18.053z"/>
			<path style="fill-rule:evenodd;clip-rule:evenodd;fill:#FFFFFF;" d="M18.877-20.391c0.156-0.031,0.203-0.062,0.141-0.093
				c-0.093-0.031-0.203-0.047-0.327-0.047S18.628-20.484,18.877-20.391z"/>
			<path style="fill-rule:evenodd;clip-rule:evenodd;fill:#FFFFFF;" d="M29.91-17.212c0.249-0.125,0.265-0.202,0.046-0.233
				c-0.25-0.063-0.42-0.047-0.514,0.047c-0.063,0.093-0.031,0.156,0.094,0.187C29.629-17.149,29.753-17.149,29.91-17.212z"/>
			<path style="fill-rule:evenodd;clip-rule:evenodd;fill:#FFFFFF;" d="M31.499-14.734c0.343-0.094,0.375-0.203,0.094-0.327
				c-0.312-0.125-0.561-0.14-0.748-0.047c-0.156,0.094-0.125,0.188,0.094,0.281C31.125-14.703,31.312-14.672,31.499-14.734z"/>
			<path style="fill-rule:evenodd;clip-rule:evenodd;fill:#FFFFFF;" d="M34.771-13.846c0.125-0.062,0.281-0.187,0.468-0.374
				c0.094-0.094,0.016-0.125-0.234-0.094c-0.28,0-0.451,0.063-0.514,0.187c-0.093,0.094-0.093,0.187,0,0.28
				C34.584-13.784,34.678-13.784,34.771-13.846z"/>
			<path style="fill-rule:evenodd;clip-rule:evenodd;fill:#FFFFFF;" d="M29.91-12.444c0.249-0.062,0.295-0.155,0.14-0.28
				c-0.156-0.093-0.312-0.109-0.468-0.047c-0.125,0.032-0.125,0.094,0,0.187C29.676-12.49,29.785-12.444,29.91-12.444z"/>
			<path style="fill-rule:evenodd;clip-rule:evenodd;fill:#FFFFFF;" d="M26.403-10.714c0.312-0.031,0.374-0.14,0.187-0.327
				c-0.218-0.187-0.39-0.234-0.514-0.14c-0.125,0.093-0.14,0.187-0.046,0.28C26.123-10.776,26.248-10.714,26.403-10.714z"/>
			<path style="fill-rule:evenodd;clip-rule:evenodd;fill:#FFFFFF;" d="M22.71-12.584c0.312-0.093,0.39-0.218,0.233-0.374
				c-0.187-0.188-0.358-0.234-0.514-0.14c-0.094,0.062-0.109,0.171-0.047,0.327C22.477-12.615,22.586-12.553,22.71-12.584z"/>
		</g>
	</g>
</symbol>
<use xlink:href="#lemburger4_copy"  width="56.029" height="30.85" x="0" y="-36.856" transform="matrix(1 0 0 -1 0 0)" style="overflow:visible;"/>
</svg>
