<?xml version="1.0" encoding="iso-8859-1"?>
<!-- Generator: Adobe Illustrator 15.1.0, SVG Export Plug-In . SVG Version: 6.00 Build 0)  -->
<!DOCTYPE svg PUBLIC "-//W3C//DTD SVG 1.1//EN" "http://www.w3.org/Graphics/SVG/1.1/DTD/svg11.dtd">
<svg version="1.1" id="flash0.ai" xmlns="http://www.w3.org/2000/svg" xmlns:xlink="http://www.w3.org/1999/xlink" x="0px" y="0px"
	 width="39.95px" height="48.35px" viewBox="0 0 39.95 48.35" style="enable-background:new 0 0 39.95 48.35;" xml:space="preserve"
	>
<symbol  id="flash0.ai_x5F_0_x2F_Layer_24_x2F__x3C_Path_x3E__x5F_10" viewBox="0 -1.2 1.15 1.2">
	<g id="Layer_1_7_">
		<path style="fill-rule:evenodd;clip-rule:evenodd;fill:#FFFFFF;" d="M1.15-0.6c0-0.4-0.2-0.6-0.6-0.6C0.183-1.2,0-1,0-0.6
			S0.183,0,0.55,0C0.95,0,1.15-0.2,1.15-0.6z"/>
	</g>
</symbol>
<symbol  id="flash0.ai_x5F_0_x2F_Layer_24_x2F__x3C_Path_x3E__x5F_11" viewBox="0 -32.098 20 32.098">
	<g id="Layer_1_6_">
		<path style="fill-rule:evenodd;clip-rule:evenodd;fill:#FFFFFF;" d="M1.15-1.25c1.1-0.833,2.533-1.25,4.3-1.25
			c3.533,0,5.85,0.017,6.95,0.05c2.633,0.1,4.383,0.35,5.25,0.75c1.333,0.567,2.117,1,2.35,1.3l-3.6-30.25
			c-1.167-0.367-2.483-0.684-3.95-0.95c-2.9-0.566-5.034-0.65-6.4-0.25c-1.333,0.4-2.183,0.817-2.55,1.25l-0.2,0.55L0,0
			C0.2-0.433,0.583-0.85,1.15-1.25z"/>
	</g>
</symbol>
<symbol  id="flash0.ai_x5F_0_x2F_Layer_24_x2F__x3C_Path_x3E__x5F_12" viewBox="0 -30.65 3.9 30.65">
	<g id="Layer_1_5_">
		<polygon style="fill-rule:evenodd;clip-rule:evenodd;fill:#FFFFFF;" points="3.9,0 1.85,-29.7 0,-30.65 0.8,-0.65 		"/>
	</g>
</symbol>
<symbol  id="flash0.ai_x5F_0_x2F_Layer_24_x2F__x3C_Path_x3E__x5F_13" viewBox="0 -4.3 18.1 4.3">
	<g id="Layer_1_4_">
		
			<linearGradient id="SVGID_1_" gradientUnits="userSpaceOnUse" x1="13816.3564" y1="-18235.8828" x2="13832.0674" y2="-18235.8828" gradientTransform="matrix(-0.9627 -0.2705 0.2705 -0.9627 18250.5723 -13818.5791)">
			<stop  offset="0" style="stop-color:#FFFDAB"/>
			<stop  offset="1" style="stop-color:#E6D645"/>
		</linearGradient>
		<path style="fill-rule:evenodd;clip-rule:evenodd;fill:url(#SVGID_1_);" d="M18.1-2.15c0-0.6-0.883-1.117-2.65-1.55
			c-1.767-0.4-3.9-0.6-6.4-0.6s-4.633,0.2-6.4,0.6C0.883-3.267,0-2.75,0-2.15s0.883,1.1,2.65,1.5C4.417-0.217,6.55,0,9.05,0
			s4.633-0.217,6.4-0.65C17.217-1.05,18.1-1.55,18.1-2.15z"/>
	</g>
</symbol>
<symbol  id="flash0.ai_x5F_0_x2F_Layer_24_x2F__x3C_Path_x3E__x5F_15" viewBox="0 -25.4 18.9 25.4">
	<g id="Layer_1_3_">
		
			<radialGradient id="SVGID_2_" cx="-2728.6543" cy="-11969.8223" r="20.3668" gradientTransform="matrix(0.4351 -0.9004 -0.9004 -0.4351 -9584.5039 -7671.7178)" gradientUnits="userSpaceOnUse">
			<stop  offset="0" style="stop-color:#FFFDAB"/>
			<stop  offset="1" style="stop-color:#E6CF00"/>
		</radialGradient>
		<path style="fill-rule:evenodd;clip-rule:evenodd;fill:url(#SVGID_2_);" d="M3.4-1.3c1.733-0.333,3.717-0.5,5.95-0.5
			s4.2,0.167,5.9,0.5c1.667,0.367,2.683,0.8,3.05,1.3h0.6l-3.1-25.15L3.4-25.4L0,0h0.4C0.733-0.5,1.733-0.933,3.4-1.3z"/>
	</g>
</symbol>
<symbol  id="flash0.ai_x5F_0_x2F_Layer_24_x2F__x3C_Path_x3E__x5F_16" viewBox="0 -36.65 21.35 36.65">
	<g id="Layer_1_2_">
		<linearGradient id="SVGID_3_" gradientUnits="userSpaceOnUse" x1="2.0249" y1="-18.3252" x2="20.1749" y2="-18.3252">
			<stop  offset="0" style="stop-color:#A9D7F2"/>
			<stop  offset="1" style="stop-color:#EBFBFF"/>
		</linearGradient>
		<path style="fill-rule:evenodd;clip-rule:evenodd;fill:url(#SVGID_3_);" d="M0-3.25V-3c0.067,0.833,1.133,1.533,3.2,2.1
			C5.267-0.3,7.75,0,10.65,0s5.4-0.3,7.5-0.9c2.067-0.567,3.133-1.267,3.2-2.1L17.5-34.5l0.05-0.1c0-0.566-0.667-1.05-2-1.45
			c-1.367-0.4-2.983-0.6-4.85-0.6c-1.9,0-3.517,0.2-4.85,0.6c-1.333,0.4-2,0.883-2,1.45v0.1L0-3.25z"/>
	</g>
</symbol>
<symbol  id="flash0.ai_x5F_0_x2F_Layer_24_x2F__x3C_Path_x3E__x5F_3" viewBox="0 -0.9 0.75 0.9">
	<g id="Layer_1_14_">
		<path style="fill-rule:evenodd;clip-rule:evenodd;fill:#FFFFFF;" d="M0.75-0.45c0-0.3-0.117-0.45-0.35-0.45
			C0.133-0.9,0-0.75,0-0.45C0-0.15,0.133,0,0.4,0C0.633,0,0.75-0.15,0.75-0.45z"/>
	</g>
</symbol>
<symbol  id="flash0.ai_x5F_0_x2F_Layer_24_x2F__x3C_Path_x3E__x5F_4" viewBox="0 -0.85 0.55 0.85">
	<g id="Layer_1_13_">
		<path style="fill-rule:evenodd;clip-rule:evenodd;fill:#FFFFFF;" d="M0.55-0.45c0-0.267-0.083-0.4-0.25-0.4
			C0.1-0.85,0-0.717,0-0.45C0-0.15,0.1,0,0.3,0C0.467,0,0.55-0.15,0.55-0.45z"/>
	</g>
</symbol>
<symbol  id="flash0.ai_x5F_0_x2F_Layer_24_x2F__x3C_Path_x3E__x5F_5" viewBox="0 -1.05 0.75 1.05">
	<g id="Layer_1_12_">
		<path style="fill-rule:evenodd;clip-rule:evenodd;fill:#FFFFFF;" d="M0.75-0.55c0-0.333-0.133-0.5-0.4-0.5
			C0.117-1.05,0-0.883,0-0.55C0-0.183,0.117,0,0.35,0C0.617,0,0.75-0.183,0.75-0.55z"/>
	</g>
</symbol>
<symbol  id="flash0.ai_x5F_0_x2F_Layer_24_x2F__x3C_Path_x3E__x5F_6" viewBox="0 -1.85 1.35 1.85">
	<g id="Layer_1_11_">
		<path style="fill-rule:evenodd;clip-rule:evenodd;fill:#FFFFFF;" d="M1.35-0.95c0-0.6-0.217-0.9-0.65-0.9
			c-0.167,0-0.333,0.083-0.5,0.25C0.067-1.4,0-1.183,0-0.95c0,0.267,0.067,0.5,0.2,0.7C0.367-0.083,0.533,0,0.7,0
			C1.133,0,1.35-0.317,1.35-0.95z"/>
	</g>
</symbol>
<symbol  id="flash0.ai_x5F_0_x2F_Layer_24_x2F__x3C_Path_x3E__x5F_7" viewBox="0 -1.1 0.9 1.1">
	<g id="Layer_1_10_">
		<path style="fill-rule:evenodd;clip-rule:evenodd;fill:#FFFFFF;" d="M0.9-0.55c0-0.367-0.15-0.55-0.45-0.55
			C0.15-1.1,0-0.917,0-0.55S0.15,0,0.45,0C0.75,0,0.9-0.183,0.9-0.55z"/>
	</g>
</symbol>
<symbol  id="flash0.ai_x5F_0_x2F_Layer_24_x2F__x3C_Path_x3E__x5F_8" viewBox="0 -1.5 1.1 1.5">
	<g id="Layer_1_9_">
		<path style="fill-rule:evenodd;clip-rule:evenodd;fill:#FFFFFF;" d="M1.1-0.75c0-0.5-0.184-0.75-0.55-0.75S0-1.25,0-0.75
			S0.183,0,0.55,0S1.1-0.25,1.1-0.75z"/>
	</g>
</symbol>
<symbol  id="flash0.ai_x5F_0_x2F_Layer_24_x2F__x3C_Path_x3E__x5F_9" viewBox="0 -1.8 1.6 1.8">
	<g id="Layer_1_8_">
		<path style="fill-rule:evenodd;clip-rule:evenodd;fill:#FFFFFF;" d="M1.6-0.9c0-0.6-0.267-0.9-0.8-0.9C0.267-1.8,0-1.5,0-0.9
			S0.267,0,0.8,0C1.333,0,1.6-0.3,1.6-0.9z"/>
	</g>
</symbol>
<use xlink:href="#flash0.ai_x5F_0_x2F_Layer_24_x2F__x3C_Path_x3E__x5F_16"  width="21.35" height="36.65" y="-36.65" transform="matrix(1.3192 0 0 -1.3192 0 0)" style="overflow:visible;opacity:0.7813;enable-background:new    ;"/>
<use xlink:href="#flash0.ai_x5F_0_x2F_Layer_24_x2F__x3C_Path_x3E__x5F_15"  width="18.9" height="25.4" y="-25.4" transform="matrix(1.3192 0 0 -1.3192 1.5 12.25)" style="overflow:visible;opacity:0.7305;enable-background:new    ;"/>
<path style="fill-rule:evenodd;clip-rule:evenodd;fill:#FFFFFF;" d="M25.526,11.279c1.231,0.748,0.792,1.518-1.318,2.309
	c-2.331,0.88-5.937,1.319-10.818,1.319c-4.661-0.043-7.981-0.505-9.959-1.385c-0.968-0.484-1.495-0.946-1.583-1.385l0.066-0.33
	c0,0.791,1.166,1.473,3.496,2.044c2.331,0.528,5.145,0.792,8.443,0.792c3.298,0,6.112-0.264,8.443-0.792
	c2.33-0.571,3.495-1.253,3.495-2.044C25.79,11.631,25.703,11.455,25.526,11.279z"/>
<use xlink:href="#flash0.ai_x5F_0_x2F_Layer_24_x2F__x3C_Path_x3E__x5F_13"  width="18.1" height="4.3" y="-4.3" transform="matrix(1.3192 0 0 -1.3192 1.8999 8.9502)" style="overflow:visible;opacity:0.8906;enable-background:new    ;"/>
<path style="fill-rule:evenodd;clip-rule:evenodd;fill:#FFFFFF;" d="M7.124,12.797c0.44,0,0.66,0.219,0.66,0.659
	c0,0.484-0.22,0.726-0.66,0.726c-0.484,0-0.725-0.242-0.725-0.726C6.398,13.016,6.64,12.797,7.124,12.797z M7.058,13.917
	c0.352,0,0.527-0.176,0.527-0.528c0-0.352-0.176-0.527-0.527-0.527c-0.308,0-0.462,0.176-0.462,0.527
	C6.596,13.742,6.75,13.917,7.058,13.917z"/>
<path style="fill-rule:evenodd;clip-rule:evenodd;fill:#FFFFFF;" d="M17.348,13.72c0.352,0,0.527,0.176,0.527,0.527
	c0,0.353-0.176,0.528-0.527,0.528c-0.352,0-0.528-0.176-0.528-0.528C16.82,13.896,16.996,13.72,17.348,13.72z M17.348,14.577
	c0.22,0,0.33-0.131,0.33-0.396s-0.109-0.396-0.33-0.396c-0.264,0-0.396,0.131-0.396,0.396S17.084,14.577,17.348,14.577z"/>
<path style="fill-rule:evenodd;clip-rule:evenodd;fill:#FFFFFF;" d="M15.501,13.258c0.483,0,0.725,0.242,0.725,0.726
	s-0.242,0.725-0.725,0.725c-0.484,0-0.726-0.241-0.726-0.725S15.017,13.258,15.501,13.258z M15.501,14.446
	c0.308,0,0.461-0.176,0.461-0.528c0-0.352-0.154-0.528-0.461-0.528c-0.352,0-0.528,0.176-0.528,0.528
	C14.973,14.27,15.149,14.446,15.501,14.446z"/>
<use xlink:href="#flash0.ai_x5F_0_x2F_Layer_24_x2F__x3C_Path_x3E__x5F_12"  width="3.9" height="30.65" y="-30.65" transform="matrix(1.3192 0 0 -1.3192 18.2002 6.3999)" style="overflow:visible;opacity:0.25;enable-background:new    ;"/>
<use xlink:href="#flash0.ai_x5F_0_x2F_Layer_24_x2F__x3C_Path_x3E__x5F_11"  width="20" height="32.098" y="-32.098" transform="matrix(1.3192 0 0 -1.3192 0.8999 4)" style="overflow:visible;opacity:0.0781;enable-background:new    ;"/>
<use xlink:href="#flash0.ai_x5F_0_x2F_Layer_24_x2F__x3C_Path_x3E__x5F_10"  width="1.15" height="1.2" y="-1.2" transform="matrix(1.3192 0 0 -1.3192 10.3999 22.25)" style="overflow:visible;opacity:0.5898;enable-background:new    ;"/>
<use xlink:href="#flash0.ai_x5F_0_x2F_Layer_24_x2F__x3C_Path_x3E__x5F_9"  width="1.6" height="1.8" y="-1.8" transform="matrix(1.3192 0 0 -1.3192 20.7998 26.4004)" style="overflow:visible;opacity:0.5898;enable-background:new    ;"/>
<use xlink:href="#flash0.ai_x5F_0_x2F_Layer_24_x2F__x3C_Path_x3E__x5F_8"  width="1.1" height="1.5" y="-1.5" transform="matrix(1.3192 0 0 -1.3192 4.7998 24.25)" style="overflow:visible;opacity:0.5898;enable-background:new    ;"/>
<use xlink:href="#flash0.ai_x5F_0_x2F_Layer_24_x2F__x3C_Path_x3E__x5F_7"  width="0.9" height="1.1" y="-1.1" transform="matrix(1.3192 0 0 -1.3192 11 35.4004)" style="overflow:visible;opacity:0.5898;enable-background:new    ;"/>
<use xlink:href="#flash0.ai_x5F_0_x2F_Layer_24_x2F__x3C_Path_x3E__x5F_6"  width="1.35" height="1.85" y="-1.85" transform="matrix(1.3192 0 0 -1.3192 14.8501 40.0498)" style="overflow:visible;opacity:0.5898;enable-background:new    ;"/>
<use xlink:href="#flash0.ai_x5F_0_x2F_Layer_24_x2F__x3C_Path_x3E__x5F_5"  width="0.75" height="1.05" y="-1.05" transform="matrix(1.3192 0 0 -1.3192 3.2998 18.7998)" style="overflow:visible;opacity:0.5898;enable-background:new    ;"/>
<use xlink:href="#flash0.ai_x5F_0_x2F_Layer_24_x2F__x3C_Path_x3E__x5F_4"  width="0.55" height="0.85" y="-0.85" transform="matrix(1.3192 0 0 -1.3192 13.2002 34.4502)" style="overflow:visible;opacity:0.5898;enable-background:new    ;"/>
<use xlink:href="#flash0.ai_x5F_0_x2F_Layer_24_x2F__x3C_Path_x3E__x5F_3"  width="0.75" height="0.9" y="-0.9" transform="matrix(1.3192 0 0 -1.3192 18.25 24)" style="overflow:visible;opacity:0.5898;enable-background:new    ;"/>
<path style="fill-rule:evenodd;clip-rule:evenodd;fill:#FFFFFF;" d="M3.43,6.002l2.044,0.396C7.19,26.45,7.981,38.037,7.85,41.16
	C7.629,44.502,6.156,32.782,3.43,6.002z"/>
<g>
	<path style="fill-rule:evenodd;clip-rule:evenodd;fill:#CCF6FF;" d="M26.583,5.937c-2.551,1.451-6.729,2.176-12.534,2.176
		c-2.771,0-5.342-0.219-7.717-0.659C4.046,7.014,2.353,6.442,1.253,5.739l4.419,36.74v0.066c0,0.703,0.813,1.297,2.44,1.78
		c1.627,0.528,3.563,0.792,5.805,0.792c2.243,0,4.178-0.264,5.805-0.792c1.626-0.483,2.439-1.077,2.439-1.78v-0.066L26.583,5.937z
		 M23.878,1.122h0.065l0.857,0.33h0.066c2.067,0.704,3.166,1.539,3.298,2.506l-5.079,41.555l0.066,0.132
		c0,0.748-0.88,1.386-2.639,1.913c-1.803,0.528-3.935,0.792-6.398,0.792c-2.507,0-4.64-0.264-6.398-0.792
		c-1.759-0.527-2.639-1.165-2.639-1.913v-0.132L0,4.288v-0.33C0.044,2.99,1.144,2.155,3.298,1.451l0.066-0.066l0.858-0.263h0.066
		l0.923-0.198l0.198-0.066l3.232-0.593h0.594l0.66-0.132L12.071,0l4.815,0.066l1.319,0.066l0.792,0.132h0.528l2.11,0.33l1.188,0.264
		l0.132,0.066L23.878,1.122z M22.559,5.871c2.287-0.572,3.431-1.253,3.431-2.045c0-0.835-1.144-1.517-3.431-2.044
		c-2.287-0.572-5.057-0.857-8.312-0.857c-3.253,0-6.002,0.285-8.245,0.857C3.716,2.309,2.573,2.99,2.573,3.826
		c0,0.792,1.144,1.473,3.429,2.045c2.287,0.571,5.036,0.857,8.245,0.857C17.458,6.728,20.229,6.442,22.559,5.871z"/>
</g>
<path style="fill-rule:evenodd;clip-rule:evenodd;fill:#FFFFFF;" d="M21.635,43.402c0.704,0.791,0.616,1.582-0.264,2.375
	c-1.012,0.834-2.77,1.318-5.276,1.45c-4.925,0.265-8.025-0.286-9.301-1.649c-0.264-0.352-0.396-0.703-0.396-1.055
	c0.043-0.308,0.154-0.55,0.33-0.726c1.539,0.879,3.936,1.319,7.189,1.319C17.788,45.117,20.359,44.545,21.635,43.402z"/>
<path style="fill-rule:evenodd;clip-rule:evenodd;fill:#8BC3CF;" d="M23.152,45.645c0,0.748-0.88,1.386-2.639,1.913
	c-1.803,0.528-3.935,0.792-6.398,0.792c-2.199,0-4.133-0.22-5.805-0.659c-1.539-0.397-2.594-0.902-3.166-1.518
	c0.616,0.528,1.715,0.967,3.298,1.319c4.485,0.88,8.619,0.659,12.401-0.66c0.704-0.221,1.253-0.461,1.648-0.726
	c0.308-0.264,0.506-0.44,0.594-0.528L23.152,45.645z"/>
</svg>
