<?xml version="1.0" encoding="iso-8859-1"?>
<!-- Generator: Adobe Illustrator 15.1.0, SVG Export Plug-In . SVG Version: 6.00 Build 0)  -->
<!DOCTYPE svg PUBLIC "-//W3C//DTD SVG 1.1//EN" "http://www.w3.org/Graphics/SVG/1.1/DTD/svg11.dtd">
<svg version="1.1" id="flash0.ai" xmlns="http://www.w3.org/2000/svg" xmlns:xlink="http://www.w3.org/1999/xlink" x="0px" y="0px"
	 width="44.45px" height="21.15px" viewBox="0 0 44.45 21.15" style="enable-background:new 0 0 44.45 21.15;" xml:space="preserve"
	>
<linearGradient id="SVGID_1_" gradientUnits="userSpaceOnUse" x1="2.7871" y1="-18.1411" x2="4.2831" y2="-18.1411" gradientTransform="matrix(0.1671 0.9859 -0.9859 0.1671 3.633797e-004 2.137125e-004)">
	<stop  offset="0" style="stop-color:#404040"/>
	<stop  offset="1" style="stop-color:#171717"/>
</linearGradient>
<path style="fill-rule:evenodd;clip-rule:evenodd;fill:url(#SVGID_1_);" d="M3.6,8.2L2.85,2.25C3.717,2.05,5.033,1.833,6.8,1.6
	c3.534-0.467,7.55-0.733,12.05-0.8c4.5-0.066,8.567,0.284,12.2,1.05C32.85,2.217,34.2,2.6,35.1,3L3.6,8.2z"/>
<linearGradient id="SVGID_2_" gradientUnits="userSpaceOnUse" x1="-3.7632" y1="-21.0298" x2="7.8187" y2="-21.0298" gradientTransform="matrix(-0.572 0.8202 -0.8202 -0.572 -4.499555e-004 1.745224e-004)">
	<stop  offset="0" style="stop-color:#404040"/>
	<stop  offset="1" style="stop-color:#171717"/>
</linearGradient>
<path style="fill-rule:evenodd;clip-rule:evenodd;fill:url(#SVGID_2_);" d="M5.5,16.65L4.65,14.7l2.2-3.75L28.7,11.6
	c-2.9,1.134-7.083,2.551-12.55,4.25c-5.433,1.7-8.65,2.467-9.65,2.301L5.5,16.65z"/>
<linearGradient id="SVGID_3_" gradientUnits="userSpaceOnUse" x1="4.2183" y1="-22.0088" x2="12.6685" y2="-22.0088" gradientTransform="matrix(-0.1331 0.9911 -0.9911 -0.1331 -5.817413e-005 2.643615e-004)">
	<stop  offset="0" style="stop-color:#404040"/>
	<stop  offset="1" style="stop-color:#171717"/>
</linearGradient>
<path style="fill-rule:evenodd;clip-rule:evenodd;fill:url(#SVGID_3_);" d="M6.8,16.65L4.95,8.4l32.2,0.4
	c-0.4,0.767-2.034,1.833-4.9,3.2c-4.167,2.066-9.533,3.35-16.1,3.85C11.817,16.184,9.1,16.533,8,16.9L6.8,16.65z"/>
<linearGradient id="SVGID_4_" gradientUnits="userSpaceOnUse" x1="0.0903" y1="-22.2168" x2="3.9653" y2="-22.2168" gradientTransform="matrix(2.580645e-004 1 -1 -0.001 -8.779054e-006 1.510028e-004)">
	<stop  offset="0" style="stop-color:#404040"/>
	<stop  offset="1" style="stop-color:#171717"/>
</linearGradient>
<path style="fill-rule:evenodd;clip-rule:evenodd;fill:url(#SVGID_4_);" d="M40.75,3.5C40.417,4.167,34.167,5.05,22,6.15
	C15.933,6.717,9.883,7.2,3.85,7.6L3.5,3c10.267-1.567,18.033-2.517,23.3-2.85c5.267-0.333,9.601-0.133,13,0.6l0.75,0.75
	C40.983,2.133,41.05,2.8,40.75,3.5z"/>
<linearGradient id="SVGID_5_" gradientUnits="userSpaceOnUse" x1="0.4565" y1="-24.0625" x2="6.5866" y2="-24.0625" gradientTransform="matrix(-0.0408 0.9992 -0.9992 -0.0408 9.155422e-004 2.351552e-004)">
	<stop  offset="0" style="stop-color:#404040"/>
	<stop  offset="1" style="stop-color:#171717"/>
</linearGradient>
<path style="fill-rule:evenodd;clip-rule:evenodd;fill:url(#SVGID_5_);" d="M41.1,6.9c-0.366,0.567-0.833,1.033-1.399,1.4l-0.75,0.4
	L9.65,9.3C8.617,9.133,7.867,8.933,7.4,8.7c-0.767-0.4-1.15-1-1.15-1.8c0-1,0.05-1.667,0.15-2c0.167-0.433,0.5-0.717,1-0.85
	c2.967-0.6,7.783-0.933,14.45-1c3.534-0.033,7.6,0,12.2,0.1c3.033,0,5.267,0.117,6.7,0.35l0.5,1.2C41.517,5.6,41.467,6.333,41.1,6.9
	z"/>
<linearGradient id="SVGID_6_" gradientUnits="userSpaceOnUse" x1="3.0591" y1="-23.8027" x2="10.4436" y2="-23.8027" gradientTransform="matrix(-0.0508 0.9987 -0.9987 -0.0508 1.027882e-004 1.932532e-004)">
	<stop  offset="0" style="stop-color:#404040"/>
	<stop  offset="1" style="stop-color:#171717"/>
</linearGradient>
<path style="fill-rule:evenodd;clip-rule:evenodd;fill:url(#SVGID_6_);" d="M30.2,11.85c-2.334,0.101-5.634,0.084-9.9-0.05
	c-6.833-0.233-11.383-0.217-13.65,0.05c-0.2-0.333-0.333-0.767-0.4-1.3c-0.167-1,0.033-1.883,0.6-2.65c0.6-0.8,5.35-1.2,14.25-1.2
	c8.067,0,13.3,0.183,15.7,0.55c1.934,0.3,3,0.5,3.2,0.6c0.467,0.233,0.616,0.833,0.45,1.8c-0.134,0.667-0.55,1.117-1.25,1.35
	c-0.601,0.2-1.851,0.35-3.75,0.45C33.283,11.65,31.533,11.783,30.2,11.85z"/>
<path style="fill-rule:evenodd;clip-rule:evenodd;fill:#4D4949;" d="M6.2,4.05c0.566,0.167,0.883,0.567,0.95,1.2
	c0.067,0.8,0.217,1.433,0.45,1.9c0.167,0.434,0.483,0.9,0.95,1.4c0.4,0.434,0.567,1.05,0.5,1.85c-0.066,0.7-0.283,1.333-0.65,1.9
	c-0.2,0.334-0.117,0.917,0.25,1.75c0.367,0.9,0.483,1.566,0.35,2c-0.167,0.5-0.467,0.8-0.9,0.9c-0.533,0.1-0.883,0.283-1.05,0.55
	L6.6,18.25c-0.1,0.033-0.467-0.116-1.1-0.45c-0.533-0.3-0.967-0.399-1.3-0.3c-0.434,0.134-0.717,0.184-0.85,0.15
	c-0.333-0.134-0.567-0.317-0.7-0.551c-0.133-0.267-0.233-0.699-0.3-1.3c-0.033-0.467-0.2-0.866-0.5-1.2
	c-0.533-0.5-0.867-0.883-1-1.149c-0.467-0.9-0.533-2.233-0.2-4c0.033-0.233-0.083-0.633-0.35-1.2C0.033,7.683-0.067,7.133,0,6.6
	c0.1-0.567,0.35-0.967,0.75-1.2c0.7-0.433,1.067-0.667,1.1-0.7c0.2-0.2,0.333-0.517,0.4-0.95c0.033-0.467,0.167-0.867,0.4-1.2
	c0.3-0.4,0.667-0.417,1.1-0.05c0.267,0.2,0.633,0.567,1.1,1.1C4.95,3.7,5.4,3.85,6.2,4.05z"/>
<linearGradient id="SVGID_7_" gradientUnits="userSpaceOnUse" x1="-15.9463" y1="2.5361" x2="-7.0928" y2="2.5361" gradientTransform="matrix(-0.1525 -0.9883 0.9883 -0.1525 7.015467e-005 3.573000e-004)">
	<stop  offset="0" style="stop-color:#0A0A0A"/>
	<stop  offset="0.2431" style="stop-color:#1F1F1F"/>
	<stop  offset="1" style="stop-color:#000000"/>
</linearGradient>
<path style="fill-rule:evenodd;clip-rule:evenodd;fill:url(#SVGID_7_);" d="M3.45,6.35C4.417,6.183,5.183,6.8,5.75,8.2
	c0.567,1.4,0.767,3.05,0.6,4.95c-0.167,1.8-0.867,2.416-2.1,1.85c-1.2-0.533-1.867-1.616-2-3.25c-0.1-1.3-0.067-2.467,0.1-3.5
	C2.583,7.05,2.95,6.417,3.45,6.35z"/>
<path style="fill-rule:evenodd;clip-rule:evenodd;fill:#636363;" d="M11.9,2.45c0.633-0.2,4.517-0.667,11.65-1.4
	c1.434-0.133,3.334-0.183,5.7-0.15s3.866,0.133,4.5,0.3c0.434,0.133-0.283,0.2-2.15,0.2c-3.166,0-5.566,0.033-7.199,0.1
	c-1.601,0.067-4.7,0.35-9.3,0.85C12,2.717,10.933,2.75,11.9,2.45z"/>
<path style="fill-rule:evenodd;clip-rule:evenodd;fill:#636363;" d="M16.6,4.1c0.633-0.267,4.167-0.4,10.6-0.4
	c4.033,0.066,5.633,0.267,4.8,0.6c-0.267,0.1-1.05,0.1-2.35,0c-1.767-0.1-3.534-0.1-5.301,0c-3.5,0.167-5.333,0.25-5.5,0.25
	C16.483,4.583,15.733,4.433,16.6,4.1z"/>
<path style="fill-rule:evenodd;clip-rule:evenodd;fill:#454545;" d="M26.9,12.55c-0.467,0.033-2.184,0.2-5.15,0.5
	c-1.7,0.167-2.767,0.15-3.2-0.05c-0.466-0.2,1.2-0.35,5-0.45C29.417,12.384,30.533,12.384,26.9,12.55z"/>
</svg>
