<?xml version="1.0" encoding="iso-8859-1"?>
<!-- Generator: Adobe Illustrator 15.1.0, SVG Export Plug-In . SVG Version: 6.00 Build 0)  -->
<!DOCTYPE svg PUBLIC "-//W3C//DTD SVG 1.1//EN" "http://www.w3.org/Graphics/SVG/1.1/DTD/svg11.dtd">
<svg version="1.1" id="flash0.ai" xmlns="http://www.w3.org/2000/svg" xmlns:xlink="http://www.w3.org/1999/xlink" x="0px" y="0px"
	 width="42.2px" height="49.55px" viewBox="0 0 42.2 49.55" style="enable-background:new 0 0 42.2 49.55;" xml:space="preserve">
<symbol  id="flash0.ai_x5F_3_x2F_Layer_8_copy_x2F__x3C_Path_x3E__x5F_13" viewBox="0 -27.6 20.05 27.6">
	<g id="Layer_1_18_">
		<linearGradient id="SVGID_1_" gradientUnits="userSpaceOnUse" x1="-0.0249" y1="-13.7998" x2="20.0249" y2="-13.7998">
			<stop  offset="0" style="stop-color:#FFFFFF"/>
			<stop  offset="1" style="stop-color:#636363"/>
		</linearGradient>
		<path style="fill-rule:evenodd;clip-rule:evenodd;fill:url(#SVGID_1_);" d="M16.7-2.2C18.633-1.6,19.733-0.867,20,0h0.05L19.9-0.4
			c-1-3.133-1.517-6.35-1.55-9.65c-0.033-1.9,0-4.784,0.1-8.65c-0.034-3.133-0.517-5.233-1.45-6.3c-0.6-0.667-1.517-1.267-2.75-1.8
			c-1.2-0.467-2.3-0.733-3.3-0.8h-2.2c-1,0.033-2.067,0.3-3.2,0.8C4.383-26.3,3.5-25.7,2.9-25c-0.9,1.067-1.383,3.167-1.45,6.3
			c0.133,3.867,0.183,6.75,0.15,8.65C1.533-6.717,1-3.5,0-0.4v0.05c0.467-0.8,1.633-1.467,3.5-2C5.333-2.85,7.467-3.1,9.9-3.1
			C12.5-3.1,14.767-2.8,16.7-2.2z"/>
	</g>
</symbol>
<symbol  id="flash0.ai_x5F_3_x2F_Layer_8_copy_x2F__x3C_Path_x3E__x5F_17" viewBox="0 -7 20 7">
	<g id="Layer_1_17_">
		
			<linearGradient id="SVGID_2_" gradientUnits="userSpaceOnUse" x1="16323.7246" y1="-16330.5" x2="16340.4746" y2="-16330.5" gradientTransform="matrix(-1 0 0 -1 16342 -16334)">
			<stop  offset="0" style="stop-color:#C2E7FF"/>
			<stop  offset="1" style="stop-color:#88ABC2"/>
		</linearGradient>
		<path style="fill-rule:evenodd;clip-rule:evenodd;fill:url(#SVGID_2_);" d="M20-3.5c0-0.967-0.967-1.8-2.9-2.5
			c-1.967-0.667-4.333-1-7.1-1S4.867-6.667,2.9-6C0.967-5.3,0-4.467,0-3.5s0.967,1.783,2.9,2.45C4.867-0.35,7.233,0,10,0
			s5.133-0.35,7.1-1.05C19.033-1.717,20-2.533,20-3.5z"/>
	</g>
</symbol>
<symbol  id="flash0.ai_x5F_3_x2F_Layer_8_copy_x2F__x3C_Path_x3E__x5F_18" viewBox="0 -12.931 3.636 12.934">
	<g id="Layer_1_16_">
		<path style="fill-rule:evenodd;clip-rule:evenodd;fill:#FFFFFF;" d="M1.65-0.4C2.583-0.933,3.2-2.35,3.5-4.65
			c0.233-2.033,0.167-4.017-0.2-5.95c-0.3-1.733-0.55-2.5-0.75-2.3c-0.167,0.2-0.117,1.2,0.15,3c0.333,2.5,0.2,4.55-0.4,6.15
			c-0.333,0.933-0.9,1.8-1.7,2.6C0-0.55-0.15-0.183,0.15-0.05C0.45,0.083,0.95-0.033,1.65-0.4z"/>
	</g>
</symbol>
<symbol  id="flash0.ai_x5F_3_x2F_Layer_8_copy_x2F__x3C_Path_x3E__x5F_19" viewBox="0 -19.848 9.32 19.847">
	<g id="Layer_1_15_">
		<path style="fill-rule:evenodd;clip-rule:evenodd;fill:none;stroke:#B4CFE0;stroke-width:0.5;" d="M1.25-2.1
			c1,1.434,2.35,2.033,4.05,1.8c1.3-0.167,2.333-1.417,3.1-3.75c0.8-2.567,0.883-5.417,0.25-8.55
			c-0.533-2.667-1.617-4.383-3.25-5.15c-0.867-0.4-1.967-0.867-3.3-1.4c-0.567-0.733-0.95-0.567-1.15,0.5
			c-0.067,0.467-0.1,1.333-0.1,2.6c0,0.466,0.05,0.966,0.15,1.5l0.15,0.6c0.6-0.2,1.233-0.3,1.9-0.3
			c1.333,0.033,2.117,0.617,2.35,1.75c0.467,1.967,0.583,3.733,0.35,5.3C5.417-5.067,4.433-4.233,2.8-4.7
			C1.1-5.167,0.25-5.017,0.25-4.25C0.25-3.75,0.583-3.033,1.25-2.1z"/>
	</g>
</symbol>
<symbol  id="flash0.ai_x5F_3_x2F_Layer_8_copy_x2F__x3C_Path_x3E__x5F_2" viewBox="-0.028 -23.65 4.478 23.65">
	<g id="Layer_1_20_">
		
			<linearGradient id="SVGID_3_" gradientUnits="userSpaceOnUse" x1="11.5557" y1="-16335.3584" x2="30.5807" y2="-16335.3584" gradientTransform="matrix(5.256242e-005 -1 1 -0.001 16337.5713 -4.167)">
			<stop  offset="0" style="stop-color:#FFFFFF"/>
			<stop  offset="0.9882" style="stop-color:#000000"/>
		</linearGradient>
		<path style="fill-rule:evenodd;clip-rule:evenodd;fill:url(#SVGID_3_);" d="M2.25-0.75L4.45,0C4.25-0.367,3.933-1.1,3.5-2.2
			c-0.667-1.9-0.933-4.583-0.8-8.05c0.066-1.233,0.167-2.883,0.3-4.95c0.1-1.767,0.067-3.316-0.1-4.65c-0.167-1.367-0.7-2.4-1.6-3.1
			c-0.433-0.367-0.867-0.6-1.3-0.7c-0.133,0.533,0.217,1.4,1.05,2.6c0.534,0.767,0.8,2.35,0.8,4.75c0,0.933-0.117,3.233-0.35,6.9
			C1.267-6.267,1.517-3.383,2.25-0.75z"/>
	</g>
</symbol>
<symbol  id="flash0.ai_x5F_3_x2F_Layer_8_copy_x2F__x3C_Path_x3E__x5F_20" viewBox="0 -19.348 8.82 19.347">
	<g id="Layer_1_14_">
		
			<radialGradient id="SVGID_4_" cx="4.3999" cy="-9.7002" r="7.5039" gradientTransform="matrix(1 0 0 -1 0 -19.4004)" gradientUnits="userSpaceOnUse">
			<stop  offset="0" style="stop-color:#FFFFFF"/>
			<stop  offset="0.9765" style="stop-color:#A8A8A8"/>
		</radialGradient>
		<path style="fill-rule:evenodd;clip-rule:evenodd;fill:url(#SVGID_4_);" d="M1-1.85c1,1.434,2.35,2.033,4.05,1.8
			c1.3-0.167,2.333-1.417,3.1-3.75c0.8-2.567,0.883-5.417,0.25-8.55c-0.533-2.667-1.617-4.383-3.25-5.15
			c-0.867-0.4-1.967-0.867-3.3-1.4c-0.567-0.733-0.95-0.567-1.15,0.5c-0.067,0.467-0.1,1.333-0.1,2.6c0,0.466,0.05,0.966,0.15,1.5
			l0.15,0.6C1.5-13.9,2.133-14,2.8-14c1.333,0.033,2.117,0.617,2.35,1.75c0.467,1.967,0.583,3.733,0.35,5.3
			c-0.333,2.133-1.317,2.967-2.95,2.5C0.85-4.917,0-4.767,0-4C0-3.5,0.333-2.783,1-1.85z"/>
	</g>
</symbol>
<symbol  id="flash0.ai_x5F_3_x2F_Layer_8_copy_x2F__x3C_Path_x3E__x5F_21" viewBox="0 -2.7 3.9 2.7">
	<g id="Layer_1_13_">
		<linearGradient id="SVGID_5_" gradientUnits="userSpaceOnUse" x1="0.0127" y1="-1.3501" x2="3.8877" y2="-1.3501">
			<stop  offset="0" style="stop-color:#5A9BC9"/>
			<stop  offset="0.4588" style="stop-color:#EDF8FF"/>
			<stop  offset="0.9765" style="stop-color:#61BEFF"/>
		</linearGradient>
		<path style="fill-rule:evenodd;clip-rule:evenodd;fill:url(#SVGID_5_);" d="M0.1-0.1c0.333-0.066,0.816-0.117,1.45-0.15
			C2.217-0.283,3-0.2,3.9,0C3.633-0.433,3.5-0.833,3.5-1.2s0.133-0.683,0.4-0.95C3.867-2.517,3.25-2.7,2.05-2.7
			C0.983-2.7,0.3-2.483,0-2.05C0.233-1.917,0.383-1.667,0.45-1.3C0.517-0.933,0.4-0.533,0.1-0.1z"/>
	</g>
</symbol>
<symbol  id="flash0.ai_x5F_3_x2F_Layer_8_copy_x2F__x3C_Path_x3E__x5F_24" viewBox="0 -2 1.256 2">
	<g id="Layer_1_12_">
		<linearGradient id="SVGID_6_" gradientUnits="userSpaceOnUse" x1="1.2876" y1="-1" x2="0.3126" y2="-1">
			<stop  offset="0" style="stop-color:#FFFFFF"/>
			<stop  offset="0.9765" style="stop-color:#000000"/>
		</linearGradient>
		<path style="fill-rule:evenodd;clip-rule:evenodd;fill:url(#SVGID_6_);" d="M0.9,0c0.267-0.167,0.383-0.4,0.35-0.7
			C1.217-1.033,1.033-1.317,0.7-1.55L0-2c0.367,0.267,0.517,0.65,0.45,1.15C0.394-0.431,0.336-0.214,0.275-0.2L0.9,0z"/>
	</g>
</symbol>
<symbol  id="flash0.ai_x5F_3_x2F_Layer_8_copy_x2F__x3C_Path_x3E__x5F_25" viewBox="0 -2 1.206 2">
	<g id="Layer_1_11_">
		<linearGradient id="SVGID_7_" gradientUnits="userSpaceOnUse" x1="1.2876" y1="-1" x2="0.3126" y2="-1">
			<stop  offset="0" style="stop-color:#FFFFFF"/>
			<stop  offset="0.9765" style="stop-color:#000000"/>
		</linearGradient>
		<path style="fill-rule:evenodd;clip-rule:evenodd;fill:url(#SVGID_7_);" d="M0.85,0C1.117-0.167,1.233-0.4,1.2-0.7
			C1.167-1.033,0.983-1.3,0.65-1.5L0-2c0.333,0.3,0.467,0.7,0.4,1.2C0.367-0.3,0.25-0.033,0.05,0H0.85z"/>
	</g>
</symbol>
<symbol  id="flash0.ai_x5F_3_x2F_Layer_8_copy_x2F__x3C_Path_x3E__x5F_28" viewBox="-0.006 -4.7 2.456 4.7">
	<g id="Layer_1_10_">
		<path style="fill-rule:evenodd;clip-rule:evenodd;" d="M1-0.1L0.7-0.5C0.6-0.733,0.65-1.017,0.85-1.35
			c0.3-0.533,0.767-0.867,1.4-1C1.583-2.283,1.117-2.4,0.85-2.7C0.65-2.933,0.6-3.2,0.7-3.5C0.8-3.767,1-4,1.3-4.2
			c0.333-0.233,0.717-0.4,1.15-0.5C1.317-4.633,0.6-4.383,0.3-3.95c-0.233,0.3-0.333,0.633-0.3,1C0.067-2.583,0.25-2.333,0.55-2.2
			L1.2-1.95c-0.633-0.033-1,0.233-1.1,0.8C0-0.783-0.017-0.5,0.05-0.3C0.117-0.1,0.2,0,0.3,0L1-0.1z"/>
	</g>
</symbol>
<symbol  id="flash0.ai_x5F_3_x2F_Layer_8_copy_x2F__x3C_Path_x3E__x5F_29" viewBox="0 -3.3 6.45 3.3">
	<g id="Layer_1_9_">
		<linearGradient id="SVGID_8_" gradientUnits="userSpaceOnUse" x1="-0.0127" y1="-1.6499" x2="6.4123" y2="-1.6499">
			<stop  offset="0" style="stop-color:#5A9BC9"/>
			<stop  offset="0.4588" style="stop-color:#EDF8FF"/>
			<stop  offset="0.9765" style="stop-color:#61BEFF"/>
		</linearGradient>
		<path style="fill-rule:evenodd;clip-rule:evenodd;fill:url(#SVGID_8_);" d="M6.45-1.65c0-0.467-0.317-0.867-0.95-1.2
			C4.867-3.15,4.1-3.3,3.2-3.3c-0.9,0-1.65,0.15-2.25,0.45C0.317-2.517,0-2.117,0-1.65C0-1.217,0.317-0.833,0.95-0.5S2.333,0,3.2,0
			c0.9,0,1.667-0.167,2.3-0.5C6.133-0.8,6.45-1.183,6.45-1.65z"/>
	</g>
</symbol>
<symbol  id="flash0.ai_x5F_3_x2F_Layer_8_copy_x2F__x3C_Path_x3E__x5F_3" viewBox="0 -25.013 9.606 25.013">
	<g id="Layer_1_19_">
		<linearGradient id="SVGID_9_" gradientUnits="userSpaceOnUse" x1="0.0127" y1="-12.5063" x2="9.5877" y2="-12.5063">
			<stop  offset="0" style="stop-color:#FFFFFF"/>
			<stop  offset="0.9882" style="stop-color:#000000"/>
		</linearGradient>
		<path style="fill-rule:evenodd;clip-rule:evenodd;fill:url(#SVGID_9_);" d="M0,0l2.85-0.7C4.25-1.033,6.2-1.283,8.7-1.45V-4.8
			C9.033-8.567,9.283-11.967,9.45-15c0.333-5.9,0.133-9.05-0.6-9.45c-0.967-0.5-1.983-0.667-3.05-0.5
			c-1.167,0.167-2.183,0.75-3.05,1.75c-0.767,0.867-1.15,2.867-1.15,6c0.133,3.867,0.183,6.684,0.15,8.45
			c-0.033,2.2-0.333,4.317-0.9,6.35C0.583-1.4,0.3-0.6,0,0z"/>
	</g>
</symbol>
<symbol  id="flash0.ai_x5F_3_x2F_Layer_8_copy_x2F__x3C_Path_x3E__x5F_30" viewBox="0 -3.3 6.45 3.3">
	<g id="Layer_1_8_">
		<linearGradient id="SVGID_10_" gradientUnits="userSpaceOnUse" x1="-0.0127" y1="-1.6499" x2="6.4123" y2="-1.6499">
			<stop  offset="0" style="stop-color:#5A9BC9"/>
			<stop  offset="0.4588" style="stop-color:#EDF8FF"/>
			<stop  offset="0.9765" style="stop-color:#61BEFF"/>
		</linearGradient>
		<path style="fill-rule:evenodd;clip-rule:evenodd;fill:url(#SVGID_10_);" d="M6.45-1.65c0-0.467-0.317-0.85-0.95-1.15
			C4.867-3.133,4.1-3.3,3.2-3.3c-0.867,0-1.617,0.167-2.25,0.5C0.317-2.5,0-2.117,0-1.65s0.317,0.867,0.95,1.2
			C1.55-0.15,2.3,0,3.2,0c0.9,0,1.667-0.15,2.3-0.45C6.133-0.783,6.45-1.183,6.45-1.65z"/>
	</g>
</symbol>
<symbol  id="flash0.ai_x5F_3_x2F_Layer_8_copy_x2F__x3C_Path_x3E__x5F_31" viewBox="0.05 -2.55 2.311 2.612">
	<g id="Layer_1_7_">
		<path style="fill-rule:evenodd;clip-rule:evenodd;fill:#CEF2F2;" d="M1.35-1.5C1.583-1.167,1.733-0.867,1.8-0.6
			c0.034,0.233,0.083,0.4,0.15,0.5c0.233,0.3,0.367,0.184,0.4-0.35c0.066-0.533-0.167-1-0.7-1.4c-0.6-0.467-1.133-0.7-1.6-0.7
			c0.267,0.167,0.483,0.3,0.65,0.4C1-1.917,1.217-1.7,1.35-1.5z"/>
	</g>
</symbol>
<symbol  id="flash0.ai_x5F_3_x2F_Layer_8_copy_x2F__x3C_Path_x3E__x5F_32" viewBox="-0.029 -0.539 0.718 0.539">
	<g id="Layer_1_6_">
		<path style="fill-rule:evenodd;clip-rule:evenodd;fill:#CEF2F2;" d="M0.4-0.05c0.3-0.133,0.367-0.267,0.2-0.4
			C0.467-0.583,0.317-0.567,0.15-0.4C-0.017-0.233-0.067-0.117,0-0.05C0.067,0.017,0.2,0.017,0.4-0.05z"/>
	</g>
</symbol>
<symbol  id="flash0.ai_x5F_3_x2F_Layer_8_copy_x2F__x3C_Path_x3E__x5F_33" viewBox="0.015 -2.654 1.862 2.632">
	<g id="Layer_1_5_">
		<path style="fill-rule:evenodd;clip-rule:evenodd;fill:#CEF2F2;" d="M0.55-0.05c0.167,0.1,0.3-0.067,0.4-0.5
			C1.083-1.183,1.317-1.7,1.65-2.1c0.333-0.4,0.3-0.583-0.1-0.55C1.117-2.583,0.733-2.317,0.4-1.85
			c-0.333,0.434-0.45,0.833-0.35,1.2C0.083-0.383,0.25-0.183,0.55-0.05z"/>
	</g>
</symbol>
<symbol  id="flash0.ai_x5F_3_x2F_Layer_8_copy_x2F__x3C_Path_x3E__x5F_34" viewBox="0 -6.45 15.4 6.45">
	<g id="Layer_1_4_">
		<path style="fill-rule:evenodd;clip-rule:evenodd;fill:#162C33;" d="M13.25-0.4c1.433-0.7,2.15-1.533,2.15-2.5s-0.75-1.8-2.25-2.5
			c-1.5-0.7-3.316-1.05-5.45-1.05S3.75-6.1,2.25-5.4C0.75-4.7,0-3.867,0-2.9C0-1.7,1.083-0.733,3.25,0
			c-0.767-0.433-1.267-0.817-1.5-1.15C1.383-1.583,1.35-2.1,1.65-2.7c0.533-1.066,1.8-1.816,3.8-2.25
			c1.933-0.466,3.883-0.466,5.85,0C12.733-4.65,13.617-4,13.95-3C14.25-2.067,14.017-1.2,13.25-0.4z"/>
	</g>
</symbol>
<symbol  id="flash0.ai_x5F_3_x2F_Layer_8_copy_x2F__x3C_Path_x3E__x5F_35" viewBox="0 -7.15 15.4 7.15">
	<g id="Layer_1_3_">
		
			<radialGradient id="SVGID_11_" cx="6.3252" cy="-16329.6221" r="6.5" gradientTransform="matrix(7.692308e-005 -1 -1.3212 7.692308e-005 -21566.1953 5.7314)" gradientUnits="userSpaceOnUse">
			<stop  offset="0" style="stop-color:#FFFFFF"/>
			<stop  offset="0.9882" style="stop-color:#83CFE6"/>
		</radialGradient>
		<path style="fill-rule:evenodd;clip-rule:evenodd;fill:url(#SVGID_11_);" d="M15.4-3.6c0-0.967-0.75-1.8-2.25-2.5
			c-1.5-0.7-3.316-1.05-5.45-1.05S3.75-6.8,2.25-6.1C0.75-5.4,0-4.567,0-3.6c0,1,0.75,1.85,2.25,2.55C3.75-0.35,5.567,0,7.7,0
			s3.95-0.35,5.45-1.05C14.65-1.75,15.4-2.6,15.4-3.6z"/>
	</g>
</symbol>
<symbol  id="flash0.ai_x5F_3_x2F_Layer_8_copy_x2F__x3C_Path_x3E__x5F_36" viewBox="0 -4.05 15.4 4.05">
	<g id="Layer_1_2_">
		<path style="fill-rule:evenodd;clip-rule:evenodd;fill:#004E69;" d="M12.9-2.5c1.467,0.633,2.283,1.4,2.45,2.3l0.05-0.3
			c0-0.967-0.75-1.8-2.25-2.5S9.833-4.05,7.7-4.05S3.75-3.7,2.25-3S0-1.467,0-0.5L0.05,0c0.1-0.967,0.883-1.767,2.35-2.4
			c1.5-0.667,3.267-1,5.3-1C9.7-3.4,11.433-3.1,12.9-2.5z"/>
	</g>
</symbol>
<use xlink:href="#flash0.ai_x5F_3_x2F_Layer_8_copy_x2F__x3C_Path_x3E__x5F_36"  width="15.4" height="4.05" y="-4.05" transform="matrix(1 0 0 -1 3.3999 39.2002)" style="overflow:visible;opacity:0.4492;enable-background:new    ;"/>
<use xlink:href="#flash0.ai_x5F_3_x2F_Layer_8_copy_x2F__x3C_Path_x3E__x5F_35"  width="15.4" height="7.15" y="-7.15" transform="matrix(1 0 0 -1 3.3999 35.4502)" style="overflow:visible;opacity:0.7383;enable-background:new    ;"/>
<use xlink:href="#flash0.ai_x5F_3_x2F_Layer_8_copy_x2F__x3C_Path_x3E__x5F_34"  width="15.4" height="6.45" y="-6.45" transform="matrix(1 0 0 -1 3.3999 36.1504)" style="overflow:visible;opacity:0.1289;enable-background:new    ;"/>
<use xlink:href="#flash0.ai_x5F_3_x2F_Layer_8_copy_x2F__x3C_Path_x3E__x5F_33"  width="1.862" height="2.632" x="0.015" y="-2.654" transform="matrix(1 0 0 -1 3.6001 38.0996)" style="overflow:visible;opacity:0.6211;enable-background:new    ;"/>
<use xlink:href="#flash0.ai_x5F_3_x2F_Layer_8_copy_x2F__x3C_Path_x3E__x5F_32"  width="0.718" height="0.539" x="-0.029" y="-0.539" transform="matrix(1 0 0 -1 5.7998 40.9004)" style="overflow:visible;opacity:0.6211;enable-background:new    ;"/>
<use xlink:href="#flash0.ai_x5F_3_x2F_Layer_8_copy_x2F__x3C_Path_x3E__x5F_31"  width="2.311" height="2.612" x="0.05" y="-2.55" transform="matrix(1 0 0 -1 16.25 38.4502)" style="overflow:visible;opacity:0.6211;enable-background:new    ;"/>
<use xlink:href="#flash0.ai_x5F_3_x2F_Layer_8_copy_x2F__x3C_Path_x3E__x5F_30"  width="6.45" height="3.3" y="-3.3" transform="matrix(1 0 0 -1 7.6001 32.6504)" style="overflow:visible;opacity:0.3984;enable-background:new    ;"/>
<use xlink:href="#flash0.ai_x5F_3_x2F_Layer_8_copy_x2F__x3C_Path_x3E__x5F_29"  width="6.45" height="3.3" y="-3.3" transform="matrix(1 0 0 -1 7.5498 30.1504)" style="overflow:visible;opacity:0.3984;enable-background:new    ;"/>
<use xlink:href="#flash0.ai_x5F_3_x2F_Layer_8_copy_x2F__x3C_Path_x3E__x5F_28"  width="2.456" height="4.7" x="-0.006" y="-4.7" transform="matrix(1 0 0 -1 7.6001 31.0996)" style="overflow:visible;opacity:0.1992;enable-background:new    ;"/>
<path style="fill-rule:evenodd;clip-rule:evenodd;fill:#B4CFE0;" d="M8.3,31.2c-0.167,0-0.267,0.149-0.3,0.45
	c-0.067,0.3-0.017,0.633,0.15,1c0.235,0.411,0.702,0.687,1.4,0.824L8.95,33.4c-0.4,0.033-0.684,0.216-0.85,0.55
	c-0.133,0.333-0.067,0.7,0.2,1.1C8.6,35.517,9.167,35.8,10,35.9c-0.067,0.033-0.217,0.017-0.45-0.051h-0.3
	C9.417,36.116,9.5,36.4,9.5,36.7c-0.033,0.233-0.15,0.55-0.35,0.95l0.35,0.3c0.333,0.267,0.733,0.416,1.2,0.45
	c-0.2,0.066-0.517,0.033-0.95-0.101c-0.367-0.1-0.633-0.25-0.8-0.45L8.8,37.6c0.2-0.133,0.333-0.416,0.4-0.85
	c0.066-0.4-0.034-0.733-0.3-1c-0.6-0.233-0.983-0.517-1.15-0.85c-0.4-0.667-0.233-1.267,0.5-1.801C7.95,32.9,7.733,32.684,7.6,32.45
	c-0.133-0.267-0.167-0.566-0.1-0.9l0.2-0.399L7.75,31.1C8.317,31.167,8.5,31.2,8.3,31.2z"/>
<path style="fill-rule:evenodd;clip-rule:evenodd;fill:#B4CFE0;" d="M13.85,33.7c0.233,0.366,0.233,0.767,0,1.2
	c-0.2,0.366-0.583,0.649-1.15,0.85c-0.267,0.267-0.383,0.6-0.35,1c0.066,0.434,0.2,0.717,0.4,0.85c-0.033,0.301-0.35,0.534-0.95,0.7
	l-0.725,0.075c0.4-0.058,0.742-0.199,1.025-0.425l0.3-0.3c-0.167-0.4-0.267-0.717-0.3-0.95c-0.033-0.101,0.033-0.384,0.2-0.851H12
	l-0.15,0.025c0.695-0.134,1.162-0.409,1.4-0.825c0.267-0.399,0.333-0.767,0.2-1.1c-0.167-0.334-0.45-0.517-0.85-0.55L12,33.475
	c0.698-0.138,1.165-0.413,1.4-0.824c0.2-0.334,0.267-0.667,0.2-1c-0.067-0.301-0.184-0.45-0.35-0.45L13.8,31.1l0.1,0.051l0.2,0.399
	c0.066,0.334,0.033,0.634-0.1,0.9c-0.2,0.3-0.417,0.517-0.65,0.649C13.617,33.366,13.783,33.566,13.85,33.7z"/>
<use xlink:href="#flash0.ai_x5F_3_x2F_Layer_8_copy_x2F__x3C_Path_x3E__x5F_25"  width="1.206" height="2" y="-2" transform="matrix(1 0 0 -1 12 31.2998)" style="overflow:visible;opacity:0.5;enable-background:new    ;"/>
<use xlink:href="#flash0.ai_x5F_3_x2F_Layer_8_copy_x2F__x3C_Path_x3E__x5F_24"  width="1.256" height="2" y="-2" transform="matrix(1 0 0 -1 11.8999 33.6504)" style="overflow:visible;opacity:0.5;enable-background:new    ;"/>
<path style="fill-rule:evenodd;clip-rule:evenodd;fill:#FFFFFF;" d="M8.35,31.5c0.066-0.134,0.167-0.167,0.3-0.1
	c0.1,0.066,0.15,0.233,0.15,0.5c-0.033,0.267-0.167,0.35-0.4,0.25C8.167,32.05,8.15,31.833,8.35,31.5z"/>
<path style="fill-rule:evenodd;clip-rule:evenodd;fill:#FFFFFF;" d="M8.35,33.95c0.066-0.134,0.167-0.167,0.3-0.101
	c0.1,0.067,0.15,0.233,0.15,0.5c-0.033,0.301-0.167,0.384-0.4,0.25C8.167,34.5,8.15,34.283,8.35,33.95z"/>
<use xlink:href="#flash0.ai_x5F_3_x2F_Layer_8_copy_x2F__x3C_Path_x3E__x5F_21"  width="3.9" height="2.7" y="-2.7" transform="matrix(1 0 0 -1 8.8501 35.6504)" style="overflow:visible;opacity:0.1914;enable-background:new    ;"/>
<use xlink:href="#flash0.ai_x5F_3_x2F_Layer_8_copy_x2F__x3C_Path_x3E__x5F_20"  width="8.82" height="19.347" y="-19.348" transform="matrix(1 0 0 -1 16.3999 7.4502)" style="overflow:visible;opacity:0.7109;enable-background:new    ;"/>
<use xlink:href="#flash0.ai_x5F_3_x2F_Layer_8_copy_x2F__x3C_Path_x3E__x5F_19"  width="9.32" height="19.847" y="-19.848" transform="matrix(1 0 0 -1 16.1499 7.2002)" style="overflow:visible;opacity:0.7109;enable-background:new    ;"/>
<use xlink:href="#flash0.ai_x5F_3_x2F_Layer_8_copy_x2F__x3C_Path_x3E__x5F_18"  width="3.636" height="12.934" x="0" y="-12.931" transform="matrix(1 0 0 -1 20.5498 8.4502)" style="overflow:visible;opacity:0.4688;enable-background:new    ;"/>
<use xlink:href="#flash0.ai_x5F_3_x2F_Layer_8_copy_x2F__x3C_Path_x3E__x5F_17"  width="20" height="7" y="-7" transform="matrix(1 0 0 -1 0.6499 0)" style="overflow:visible;opacity:0.2617;enable-background:new    ;"/>
<linearGradient id="SVGID_12_" gradientUnits="userSpaceOnUse" x1="7.769" y1="1.4004" x2="23.8207" y2="1.4004" gradientTransform="matrix(0.908 0.419 -0.419 0.908 1.205206e-004 -2.248287e-004)">
	<stop  offset="0" style="stop-color:#FFEFCF"/>
	<stop  offset="1" style="stop-color:#EDD190"/>
</linearGradient>
<path style="fill-rule:evenodd;clip-rule:evenodd;fill:url(#SVGID_12_);" d="M13.95,9.7c-1.367,0.133-5-0.267-10.9-1.2
	c-0.6-0.167-1-0.3-1.2-0.4C1.483,7.933,1.367,7.583,1.5,7.05C1.667,6.417,1.983,5.9,2.45,5.5C2.917,5.067,3.667,4.667,4.7,4.3
	C4.933,4.2,5.567,4,6.6,3.7c0.367-0.133,0.867-0.4,1.5-0.8c1.533-1,2.15-1.583,1.85-1.75L9.6,0.95c1.033-0.333,1.95,0,2.75,1
	c0.9,1.133,2.033,1.7,3.4,1.7c0.733,0,1.65,0.317,2.75,0.95c1.2,0.667,1.55,1.283,1.05,1.85c-0.633,0.7-1.45,1.367-2.45,2
	C15.933,9.183,14.883,9.6,13.95,9.7z"/>
<linearGradient id="SVGID_13_" gradientUnits="userSpaceOnUse" x1="1.1499" y1="10.5249" x2="19.8749" y2="10.5249">
	<stop  offset="0" style="stop-color:#FFF1D4"/>
	<stop  offset="1" style="stop-color:#D4BB81"/>
</linearGradient>
<path style="fill-rule:evenodd;clip-rule:evenodd;fill:url(#SVGID_13_);" d="M19.15,10.45c-0.066,0.7-1.283,1.75-3.65,3.15
	L2.6,14.75l-0.35-2.2C1.95,10.05,1.7,8.5,1.5,7.9L1.15,6.5c0.167,0.3,0.5,0.6,1,0.9c1,0.633,2.4,0.983,4.2,1.05
	c1.433,0.066,3.1,0.2,5,0.4c1.367,0.066,2.45-0.017,3.25-0.25c0.8-0.267,1.55-0.6,2.25-1c0.8-0.434,1.267-0.684,1.4-0.75
	c0.6-0.233,1.15-0.417,1.65-0.55L19.15,10.45z"/>
<linearGradient id="SVGID_14_" gradientUnits="userSpaceOnUse" x1="1.9624" y1="20.8999" x2="19.1374" y2="20.8999">
	<stop  offset="0" style="stop-color:#BD834C"/>
	<stop  offset="1" style="stop-color:#775126"/>
</linearGradient>
<path style="fill-rule:evenodd;clip-rule:evenodd;fill:url(#SVGID_14_);" d="M18.95,13.8c-0.034,1.9,0,4.784,0.1,8.65
	c-0.033,3.133-0.517,5.233-1.45,6.3c-0.6,0.667-1.517,1.267-2.75,1.8c-1.2,0.467-2.3,0.733-3.3,0.8h-2.2c-1-0.033-2.067-0.3-3.2-0.8
	c-1.167-0.5-2.05-1.1-2.65-1.8c-0.9-1.066-1.383-3.167-1.45-6.3c0.133-3.867,0.184-6.75,0.15-8.65L2,10.6c2.4,0.867,5.2,1.3,8.4,1.3
	c3.467,0,6.383-0.483,8.75-1.45C19.017,11.85,18.95,12.967,18.95,13.8z"/>
<use xlink:href="#flash0.ai_x5F_3_x2F_Layer_8_copy_x2F__x3C_Path_x3E__x5F_13"  width="20.05" height="27.6" y="-27.6" transform="matrix(1 0 0 -1 0.6001 3.75)" style="overflow:visible;opacity:0.25;enable-background:new    ;"/>
<path style="fill-rule:evenodd;clip-rule:evenodd;fill:#B4CFE0;" d="M20.7,4.25c-1,3-1.517,6.183-1.55,9.55
	c-0.033,0.967-0.017,2.45,0.05,4.45c0.1,2.9,0.083,5-0.05,6.3c-0.167,2.033-0.633,3.483-1.4,4.351
	c-0.633,0.699-1.583,1.316-2.85,1.85c-1.2,0.467-2.316,0.733-3.35,0.8l-0.15-0.2v0.2h-2C8.333,31.517,7.2,31.233,6,30.7
	c-1.133-0.5-2.017-1.101-2.65-1.8c-0.767-0.867-1.233-2.317-1.4-4.351c-0.1-1.167-0.117-3.267-0.05-6.3L2,13.8
	c-0.067-3.4-0.6-6.583-1.6-9.55V4.2L0.75,4c0.5,0.767,1.667,1.4,3.5,1.9s3.917,0.75,6.25,0.75c2.533,0,4.75-0.283,6.65-0.85
	c1.934-0.6,3.017-1.316,3.25-2.15l0.05-0.1L20.9,3.5l-0.05,0.3L20.7,4.25z M16.35,6.45C14.583,6.883,12.633,7.1,10.5,7.1
	c-2.067,0-3.967-0.2-5.7-0.6C3.133,6.1,1.883,5.567,1.05,4.9c0.867,2.8,1.317,5.75,1.35,8.85c0.033,1,0.017,2.5-0.05,4.5
	c-0.1,2.9-0.1,4.95,0,6.15c0.167,2,0.617,3.4,1.35,4.2c0.566,0.667,1.4,1.25,2.5,1.75c1.1,0.5,2.15,0.767,3.15,0.801h1.95
	l0.15,0.199V31.15c1.033-0.067,2.117-0.334,3.25-0.801c1.233-0.5,2.15-1.083,2.75-1.75c0.7-0.8,1.133-2.199,1.3-4.2
	c0.1-1.133,0.117-3.183,0.05-6.15l-0.1-4.5c0.066-3.067,0.533-6.05,1.4-8.95C19.3,5.5,18.05,6.05,16.35,6.45z"/>
<path style="fill-rule:evenodd;clip-rule:evenodd;fill:#934D0C;" d="M8.5,3.6C9.067,3.533,9.167,3.667,8.8,4S8.133,4.45,7.9,4.35
	c-0.233-0.067-0.25-0.2-0.05-0.4C8.017,3.75,8.233,3.633,8.5,3.6z"/>
<path style="fill-rule:evenodd;clip-rule:evenodd;fill:#934D0C;" d="M9.5,4.65c0.6-0.133,0.85-0.033,0.75,0.3
	c-0.133,0.333-0.383,0.5-0.75,0.5s-0.583-0.1-0.65-0.3C8.783,4.917,9,4.75,9.5,4.65z"/>
<path style="fill-rule:evenodd;clip-rule:evenodd;fill:#934D0C;" d="M5.95,3.8c-0.333,0.667-0.667,0.833-1,0.5
	c-0.167-0.167-0.034-0.316,0.4-0.45C5.817,3.683,6.017,3.667,5.95,3.8z"/>
<path style="fill-rule:evenodd;clip-rule:evenodd;fill:#934D0C;" d="M14.5,4.2c0.567,0.066,0.883,0.267,0.95,0.6
	c0.066,0.3-0.167,0.45-0.7,0.45s-0.833-0.183-0.9-0.55C13.783,4.333,14,4.167,14.5,4.2z"/>
<path style="fill-rule:evenodd;clip-rule:evenodd;fill:#934D0C;" d="M12.25,2.95c0.467,0.233,0.567,0.45,0.3,0.65
	c-0.3,0.2-0.566,0.217-0.8,0.05c-0.2-0.133-0.217-0.3-0.05-0.5C11.833,2.917,12.017,2.85,12.25,2.95z"/>
<path style="fill-rule:evenodd;clip-rule:evenodd;fill:#934D0C;" d="M12.2,4.4c0.267-0.033,0.4,0.05,0.4,0.25
	C12.633,4.883,12.517,5,12.25,5c-0.233,0-0.35-0.1-0.35-0.3C11.9,4.533,12,4.433,12.2,4.4z"/>
<path style="fill-rule:evenodd;clip-rule:evenodd;fill:#934D0C;" d="M17.65,4.55c0.3,0.233,0.3,0.367,0,0.4
	c-0.367,0.066-0.55,0.033-0.55-0.1C17.1,4.383,17.283,4.283,17.65,4.55z"/>
<path style="fill-rule:evenodd;clip-rule:evenodd;fill:#934D0C;" d="M10.8,1.25c0.233-0.167,0.45-0.1,0.65,0.2
	c0.167,0.333,0.083,0.5-0.25,0.5c-0.233,0-0.367-0.117-0.4-0.35V1.25z"/>
<path style="fill-rule:evenodd;clip-rule:evenodd;fill:#934D0C;" d="M4.95,7.05c0.233,0,0.3,0.117,0.2,0.35
	c-0.1,0.2-0.233,0.25-0.4,0.15c-0.167-0.1-0.233-0.2-0.2-0.3C4.617,7.117,4.75,7.05,4.95,7.05z"/>
<use xlink:href="#flash0.ai_x5F_3_x2F_Layer_8_copy_x2F__x3C_Path_x3E__x5F_3"  width="9.606" height="25.013" y="-25.013" transform="matrix(1 0 0 -1 2.4502 5.4502)" style="overflow:visible;opacity:0.3008;enable-background:new    ;"/>
<use xlink:href="#flash0.ai_x5F_3_x2F_Layer_8_copy_x2F__x3C_Path_x3E__x5F_2"  width="4.478" height="23.65" x="-0.028" y="-23.65" transform="matrix(1 0 0 -1 14.1499 5.3999)" style="overflow:visible;opacity:0.3203;enable-background:new    ;"/>
<path style="fill-rule:evenodd;clip-rule:evenodd;fill:#B4CFE0;" d="M10.6,0c2.833,0,5.267,0.35,7.3,1.05
	c2.033,0.667,3.05,1.483,3.05,2.45S19.933,5.3,17.9,6c-2,0.667-4.433,1-7.3,1S5.283,6.667,3.25,6C1.217,5.3,0.2,4.467,0.2,3.5
	s1.017-1.783,3.05-2.45C5.283,0.35,7.733,0,10.6,0z M10.6,6.35c2.533,0,4.7-0.3,6.5-0.9c1.8-0.6,2.7-1.317,2.7-2.15
	c0-0.833-0.9-1.566-2.7-2.2c-1.8-0.6-3.967-0.9-6.5-0.9S5.883,0.5,4.05,1.1c-1.8,0.6-2.7,1.333-2.7,2.2c0,0.833,0.9,1.55,2.7,2.15
	C5.85,6.05,8.033,6.35,10.6,6.35z"/>
<path style="fill-rule:evenodd;clip-rule:evenodd;fill:#B4CFE0;" d="M8.65,35.55c0.633,0.167,0.717,0.233,0.25,0.2
	c-0.433-0.033-1.2,0.134-2.3,0.5c-1.267,0.434-2.083,0.884-2.45,1.35c-0.625,0.796-0.875,1.546-0.75,2.25
	c-0.213-0.902-0.113-1.618,0.3-2.149c0.6-0.7,1.6-1.267,3-1.7C7.433,35.8,8.083,35.65,8.65,35.55z"/>
<path style="fill-rule:evenodd;clip-rule:evenodd;fill:#B4CFE0;" d="M13.05,35.5c0.267-0.033,0.767,0.05,1.5,0.25
	c1.408,0.352,2.375,0.769,2.9,1.25c-0.238-0.164-0.705-0.381-1.4-0.65c-0.633-0.233-1.367-0.416-2.2-0.55l-1.075-0.149l0.075-0.101
	L13.05,35.5z"/>
</svg>
