<?xml version="1.0" encoding="iso-8859-1"?>
<!-- Generator: Adobe Illustrator 15.1.0, SVG Export Plug-In . SVG Version: 6.00 Build 0)  -->
<!DOCTYPE svg PUBLIC "-//W3C//DTD SVG 1.1//EN" "http://www.w3.org/Graphics/SVG/1.1/DTD/svg11.dtd">
<svg version="1.1" id="flash0.ai" xmlns="http://www.w3.org/2000/svg" xmlns:xlink="http://www.w3.org/1999/xlink" x="0px" y="0px"
	 width="85.65px" height="35.2px" viewBox="0 0 85.65 35.2" style="enable-background:new 0 0 85.65 35.2;" xml:space="preserve">
<symbol  id="flash0.ai_Assets_x5F_2_x2F_Layer_39_copy_x2F__x3C_Path_x3E__x5F_25" viewBox="0 -14.05 49.406 14.036">
	<g id="Layer_1_2_">
		<path style="fill-rule:evenodd;clip-rule:evenodd;fill:#382200;" d="M46.05-0.05c2.333-0.267,3.45-1.3,3.35-3.1
			c-0.066-0.967-0.45-2.033-1.15-3.2c-0.567-0.933-1.7-1.683-3.4-2.25c-2.733-1.1-4.6-1.85-5.6-2.25
			c-0.6-0.267-1.083-0.55-1.45-0.85c-0.267-0.3-0.466-0.483-0.6-0.55c-0.1-0.067-0.333-0.017-0.7,0.15
			c-0.4,0.167-0.783,0.184-1.15,0.05c-0.333-0.167-0.8-0.267-1.4-0.3c-0.934-0.066-1.5-0.117-1.7-0.15
			c-2.1-0.533-3.867-0.95-5.3-1.25c-0.934-0.2-1.867-0.3-2.8-0.3c-1.1,0.033-1.967,0.05-2.6,0.05s-1.466,0.033-2.5,0.1
			c-1,0.066-1.733,0.1-2.2,0.1c-1.867,0-3.733,0.083-5.6,0.25L8-13.2c-1.033,0.167-2.017,0.45-2.95,0.85
			c-0.566,0.233-1.083,0.367-1.55,0.4L2.95-12c-0.5,0.033-0.917,0.217-1.25,0.55c-0.2,0.2-0.5,0.367-0.9,0.5
			c-0.167,0.067-0.333,0.117-0.5,0.15L0-10.25c2.333,1.2,3.7,1.933,4.1,2.2c0.7,0.367,7.083,1.816,19.15,4.35
			C36.117-1,43.717,0.217,46.05-0.05z"/>
	</g>
</symbol>
<g>
	<path style="fill-rule:evenodd;clip-rule:evenodd;fill:#E0C151;" d="M59.575,24.675c0.575,0.425,0.95,0.987,1.125,1.688
		c0.075,0.351,0.1,0.65,0.075,0.9c-0.15,1.075-0.4,1.85-0.75,2.325c-0.25,0.35-0.676,0.737-1.275,1.162
		c-0.625,0.449-1.263,0.813-1.912,1.088c-0.625,0.274-1.775,0.674-3.45,1.199c-1.625,0.525-2.825,0.888-3.601,1.088
		c-0.625,0.15-2.563,0.288-5.813,0.412c-3.825,0.125-6.462,0.213-7.912,0.264c-1.85,0.049-3.337-0.113-4.462-0.488
		c-0.425-0.125-1.025-0.425-1.8-0.9c-0.15-0.1-1.212-0.486-3.188-1.162c-1.85-0.625-2.925-1.088-3.225-1.387
		c-0.35-0.301-0.538-0.863-0.563-1.688l0.038-1.162c9.475-0.351,14.438-0.575,14.888-0.675c3.4-0.601,6.862-1.176,10.388-1.726
		C55.188,24.563,59,24.25,59.575,24.675z"/>
	<path style="fill-rule:evenodd;clip-rule:evenodd;fill:#C7A83C;" d="M58.787,30.263c0.75-0.55,1.313-1.213,1.688-1.987l0.301-1.013
		c0.125,1.075-0.101,1.975-0.676,2.7c-0.4,0.475-1.112,0.987-2.137,1.537c-0.65,0.35-1.963,0.963-3.938,1.838
		c-1.4,0.625-3.125,1.037-5.176,1.236c-0.725,0.051-2.324,0.113-4.8,0.188c-2.024,0.126-3.6,0.227-4.725,0.301
		c-2.075,0.125-3.762,0.113-5.063-0.037c-1.625-0.176-3.837-0.787-6.637-1.838c-2.775-1.051-4.4-1.875-4.875-2.475
		c-0.575-0.7-0.675-1.238-0.3-1.613c0.3,0.4,0.55,0.688,0.75,0.863c-0.075,0.1-0.012,0.274,0.188,0.524
		c0.25,0.3,1.075,0.738,2.475,1.313c0.625,0.324,1.913,0.75,3.863,1.273c2.725,0.776,4.112,1.164,4.162,1.164
		c0.775,0.249,2.375,0.274,4.8,0.074C42.138,34.038,44,33.9,44.275,33.9C48.2,33.8,50.975,33.5,52.6,33
		C55.35,32.176,57.412,31.263,58.787,30.263z"/>
	<path style="fill-rule:evenodd;clip-rule:evenodd;fill:#FAE100;" d="M60.4,20.513c0.925,0.5,1.524,0.899,1.8,1.2
		c0.35,0.35,0.438,0.699,0.263,1.05c-0.126,0.274-0.051,0.712,0.225,1.313c0.275,0.649,0.387,1.087,0.338,1.313
		c-0.275,1.125-0.463,1.774-0.563,1.95c-0.075,0.175-0.575,0.862-1.5,2.063c-0.375,0.5-0.663,0.813-0.863,0.938
		c-0.449,0.175-0.938,0.362-1.462,0.563c-0.75,0.299-1.263,0.537-1.538,0.713c-0.125,0.1-0.462,0.362-1.012,0.787
		c-0.426,0.35-0.863,0.625-1.313,0.824c-0.275,0.125-0.863,0.351-1.763,0.676c-0.675,0.25-1.226,0.362-1.65,0.338
		c-0.524-0.051-1.05-0.088-1.575-0.113l-3.449-0.037c-0.525,0-1.238,0.087-2.138,0.262c-0.875,0.176-1.788,0.251-2.738,0.225
		c-1.275-0.049-2.988-0.175-5.138-0.375c-1.075-0.1-1.812-0.148-2.212-0.148c-0.35,0.024-0.737,0.012-1.163-0.039
		c-1.175-0.148-1.775-0.225-1.8-0.225c-0.55-0.124-1.113-0.362-1.688-0.713c-0.425-0.274-0.825-0.412-1.2-0.412
		c-0.55,0-1.275-0.175-2.175-0.525c-1.325-0.523-2.125-0.938-2.4-1.236c-0.275-0.301-0.35-0.863-0.225-1.688
		C23.587,28.537,23.8,28.2,24.1,28.2c0.825-0.025,1.3-0.063,1.425-0.112c3.9-1.375,7.938-2.75,12.112-4.125
		c8.35-2.775,13.238-4.188,14.663-4.238C56.425,19.55,59.125,19.813,60.4,20.513z"/>
	<path style="fill-rule:evenodd;clip-rule:evenodd;fill:#FFF8B5;" d="M61.487,26.138c0.075-0.575,0.175-1.025,0.3-1.351
		c0.101-0.225,0.275-0.524,0.525-0.899c0.1-0.125,0.125,0.25,0.075,1.125c0.075,0.2,0.188,0.263,0.337,0.188
		c0.075-0.05,0.101-0.025,0.075,0.075c-0.101,0.375-0.362,1.024-0.787,1.949c-0.175,0.301-0.638,0.95-1.388,1.95
		c-0.3,0.525-0.487,0.838-0.563,0.938c-0.1,0.101-0.487,0.288-1.162,0.563c-0.726,0.3-1.226,0.537-1.5,0.712
		c-0.126,0.101-0.463,0.363-1.013,0.789C55.962,32.524,55.525,32.8,55.075,33c-0.275,0.125-0.875,0.35-1.8,0.676
		c-0.676,0.249-1.213,0.362-1.613,0.336c-0.55-0.049-1.087-0.087-1.612-0.111c-0.5-0.025-1.638-0.037-3.412-0.037
		c-0.525,0-1.237,0.087-2.138,0.262c-0.875,0.175-1.788,0.25-2.738,0.225c-1.275-0.05-3-0.175-5.175-0.375
		c-1.05-0.1-1.788-0.15-2.212-0.15c-0.35,0.026-0.737,0.013-1.163-0.037c-1.15-0.15-1.75-0.225-1.8-0.225
		c-0.525-0.125-1.075-0.362-1.65-0.713c-0.425-0.274-0.825-0.412-1.2-0.412c-0.55,0-1.275-0.175-2.175-0.525
		c-1.5-0.574-2.35-0.938-2.55-1.088c-0.375-0.274-0.5-0.787-0.375-1.537c0.325,0.275,0.925,0.551,1.8,0.825
		c0.175,0.101,0.513,0.375,1.013,0.825c0.2,0.175,0.575,0.25,1.125,0.225c0.4-0.024,0.8-0.111,1.2-0.262
		c0.15-0.076,0.35-0.025,0.6,0.15c0.3,0.225,0.55,0.375,0.75,0.449c0.15,0.025,0.462,0.063,0.938,0.113
		c0.175,0.024,0.587,0.037,1.238,0.037c0.675,0,1.387,0.05,2.137,0.15c0.65,0.1,1.538,0.148,2.663,0.148
		c1.025,0,1.788,0.051,2.288,0.15c0.625,0.101,1.175,0.163,1.65,0.188c0.3,0.025,0.813,0.05,1.538,0.076
		c0.874,0.074,1.938,0.111,3.188,0.111c0.1,0,0.813,0,2.137,0C49,32.45,49.7,32.388,49.825,32.287
		c0.125-0.124,0.387-0.237,0.787-0.338c0.275-0.049,0.825-0.161,1.65-0.336c0.899-0.176,1.388-0.275,1.462-0.301
		c0.375-0.101,0.912-0.313,1.613-0.638c0.574-0.274,1.125-0.612,1.649-1.013c0.575-0.449,1.075-0.787,1.5-1.012
		c0.675-0.375,1.351-0.838,2.025-1.388C61.138,26.713,61.463,26.338,61.487,26.138z"/>
	<path style="fill-rule:evenodd;clip-rule:evenodd;fill:#FAE83C;" d="M61.638,25.875c0.274-0.875,0.487-1.412,0.638-1.612
		l0.337-0.375c0.325,0.774,0.462,1.274,0.413,1.5c-0.275,1.125-0.463,1.774-0.563,1.95c-0.075,0.175-0.575,0.862-1.5,2.063
		c-0.375,0.5-0.663,0.813-0.863,0.938c-0.449,0.175-0.938,0.362-1.462,0.563c-0.75,0.299-1.263,0.537-1.538,0.713
		c-0.125,0.1-0.462,0.362-1.012,0.787c-0.426,0.35-0.863,0.625-1.313,0.824c-0.275,0.125-0.863,0.351-1.763,0.676
		c-0.675,0.25-1.226,0.362-1.65,0.338c-0.524-0.051-1.05-0.088-1.575-0.113l-3.449-0.037c-0.525,0-1.238,0.087-2.138,0.262
		c-0.875,0.176-1.788,0.251-2.738,0.225c-1.275-0.049-2.988-0.175-5.138-0.375c-1.075-0.1-1.812-0.148-2.212-0.148
		c-0.35,0.024-0.737,0.012-1.163-0.039c-1.175-0.148-1.775-0.225-1.8-0.225c-0.55-0.124-1.113-0.362-1.688-0.713
		c-0.425-0.274-0.825-0.412-1.2-0.412c-0.55,0-1.275-0.175-2.175-0.525c-1.325-0.523-2.113-0.925-2.362-1.199
		c-0.3-0.3-0.388-0.85-0.263-1.65c0.525,0.45,1.025,0.801,1.5,1.051c0.2,0.1,0.538,0.375,1.013,0.824
		c0.225,0.176,0.612,0.251,1.162,0.225c0.375-0.024,0.763-0.111,1.163-0.262c0.175-0.074,0.375-0.025,0.6,0.15
		c0.325,0.225,0.587,0.375,0.788,0.449c0.15,0.025,0.45,0.063,0.9,0.113c0.2,0.024,0.625,0.037,1.275,0.037
		c0.65,0,1.35,0.05,2.1,0.15c0.675,0.1,1.563,0.15,2.663,0.15c1.05,0,1.825,0.049,2.325,0.148c0.625,0.101,1.175,0.163,1.65,0.188
		c0.3,0.026,0.812,0.051,1.538,0.076c0.875,0.074,1.938,0.111,3.188,0.111c2.625,0.051,4.024-0.012,4.2-0.188
		c0.124-0.124,0.399-0.236,0.824-0.336c0.25-0.051,0.788-0.163,1.613-0.338c0.899-0.176,1.399-0.275,1.5-0.301
		c0.35-0.074,0.887-0.287,1.612-0.637c1.05-0.5,2.012-1.025,2.888-1.575c0.949-0.5,1.987-1.226,3.112-2.175
		C61.199,27.075,61.387,26.65,61.638,25.875z"/>
	<path style="fill-rule:evenodd;clip-rule:evenodd;fill:#DBCC35;" d="M62.275,24.263l0.337-0.375c0.325,0.774,0.462,1.274,0.413,1.5
		c-0.275,1.125-0.463,1.774-0.563,1.95c-0.075,0.175-0.575,0.862-1.5,2.063c-0.375,0.5-0.663,0.813-0.863,0.938
		c-0.449,0.175-0.938,0.362-1.462,0.563c-0.75,0.299-1.263,0.537-1.538,0.713c-0.125,0.1-0.462,0.362-1.012,0.787
		c-0.426,0.35-0.863,0.625-1.313,0.824c-0.275,0.125-0.863,0.351-1.763,0.676c-0.525,0.199-0.95,0.312-1.275,0.338
		c-0.225,0.024-0.537,0.012-0.938-0.039c0.2-0.199,0.325-0.362,0.375-0.486c0.125-0.2,0.063-0.513-0.188-0.938
		c0-0.225-0.1-0.451-0.3-0.676l1.275-0.262c0.899-0.176,1.399-0.275,1.5-0.301c0.35-0.074,0.887-0.287,1.612-0.637
		c1.05-0.5,2.012-1.025,2.888-1.575c0.949-0.5,1.987-1.226,3.112-2.175c0.124-0.075,0.312-0.5,0.563-1.275
		C61.912,25,62.125,24.463,62.275,24.263z"/>
	<path style="fill-rule:evenodd;clip-rule:evenodd;fill:#CFB327;" d="M32.8,32.363c0.55,0.049,0.938,0.199,1.163,0.449
		c0.2,0.225,0.137,0.4-0.188,0.525c-0.225,0.1-0.438,0.111-0.638,0.037c-0.25-0.15-0.475-0.262-0.675-0.338
		c-0.275-0.074-0.325-0.212-0.15-0.412C32.462,32.45,32.625,32.363,32.8,32.363z"/>
	<path style="fill-rule:evenodd;clip-rule:evenodd;fill:#CFB327;" d="M31.9,33.301c0.175,0.049,0.238,0.124,0.188,0.225
		c-0.075,0.1-0.25,0.124-0.525,0.074c-0.275-0.024-0.337-0.1-0.188-0.225S31.7,33.225,31.9,33.301z"/>
	<path style="fill-rule:evenodd;clip-rule:evenodd;fill:#CFB327;" d="M28.188,31.65c0.2,0,0.313,0.087,0.337,0.262
		c0.05,0.176-0.038,0.288-0.263,0.338c-0.175,0.05-0.337,0.013-0.487-0.113c-0.175-0.148-0.337-0.262-0.487-0.336
		C27.013,31.625,27.313,31.574,28.188,31.65z"/>
	<path style="fill-rule:evenodd;clip-rule:evenodd;fill:#CFB327;" d="M39.737,32.775c0.225,0.05,0.425,0.162,0.6,0.338
		c0.175,0.199,0.175,0.362,0,0.486c-0.175,0.125-0.325,0.188-0.45,0.188c-0.225,0.025-0.475,0.05-0.75,0.076
		c-0.325,0.024-0.55-0.026-0.675-0.15c-0.15-0.176-0.313-0.325-0.487-0.451c-0.3-0.225-0.288-0.412,0.037-0.563
		C38.362,32.551,38.938,32.575,39.737,32.775z"/>
	<path style="fill-rule:evenodd;clip-rule:evenodd;fill:#CFB327;" d="M41.8,32.85c0.4,0,0.55,0.088,0.45,0.264
		c-0.125,0.175-0.362,0.236-0.712,0.188c-0.35-0.051-0.475-0.139-0.375-0.264C41.263,32.913,41.475,32.85,41.8,32.85z"/>
	<path style="fill-rule:evenodd;clip-rule:evenodd;fill:#CFB327;" d="M50.275,33.75c-1.726,0-2.375-0.15-1.95-0.449
		c0.225-0.15,0.537-0.238,0.938-0.264c0.375-0.024,0.649,0,0.825,0.076C50.688,33.537,50.75,33.75,50.275,33.75z"/>
	<path style="fill-rule:evenodd;clip-rule:evenodd;fill:#C99E00;" d="M25.112,29.888c0.375,0.075,0.775,0.225,1.2,0.45
		c0.475,0.25,0.763,0.486,0.862,0.713c0.125,0.225,0.075,0.424-0.15,0.6c-0.25,0.175-0.563,0.237-0.938,0.188
		c-0.7-0.025-1.137-0.237-1.313-0.639c-0.075-0.175-0.038-0.449,0.112-0.824L25.112,29.888z"/>
	<path style="fill-rule:evenodd;clip-rule:evenodd;fill:#C99E00;" d="M34.3,32.213c0.925-0.101,1.563,0.05,1.913,0.449
		c0.375,0.4,0.587,0.738,0.638,1.014c0.05,0.375-0.238,0.536-0.863,0.486c-0.6-0.05-1.063-0.387-1.387-1.012L34.3,32.213z"/>
	<path style="fill-rule:evenodd;clip-rule:evenodd;fill:#C99E00;" d="M58.3,29.888c0.525-0.275,0.95-0.288,1.275-0.038
		c0.274,0.2,0.324,0.413,0.149,0.638c-0.149,0.175-0.375,0.325-0.675,0.45c-0.325,0.125-0.563,0.15-0.712,0.074
		c-0.126-0.074-0.188-0.262-0.188-0.562S58.199,29.963,58.3,29.888z"/>
	<path style="fill-rule:evenodd;clip-rule:evenodd;fill:#A36014;" d="M36.175,33l-0.15,0.412c-0.1,0.351-0.137,0.726-0.112,1.125
		c0.025,0.476-0.288,0.7-0.938,0.676c-0.625-0.025-1.1-0.2-1.425-0.525c-0.4-0.425-0.4-1.024,0-1.801
		c0.325-0.699,0.875-0.938,1.65-0.711C35.725,32.351,36.05,32.625,36.175,33z"/>
	<path style="fill-rule:evenodd;clip-rule:evenodd;fill:#8F5512;" d="M36.175,33l-0.15,0.412c-0.1,0.351-0.137,0.726-0.112,1.125
		c0.025,0.476-0.288,0.7-0.938,0.676c-0.625-0.025-1.1-0.2-1.425-0.525c0.35,0.074,0.612,0.087,0.788,0.037
		c0.2-0.074,0.387-0.25,0.563-0.525c0.225-0.324,0.35-0.687,0.375-1.086c0.05-0.375,0.012-0.688-0.112-0.938H35.2
		C35.725,32.351,36.05,32.625,36.175,33z"/>
	<path style="fill-rule:evenodd;clip-rule:evenodd;fill:#A36014;" d="M59.275,29.025c0.699-0.051,1.162,0.149,1.387,0.6
		c0.175,0.4,0.075,0.713-0.3,0.938c-0.325,0.175-0.563,0.274-0.712,0.301c-0.075,0-0.226-0.026-0.45-0.076
		c-0.95-0.199-1.25-0.537-0.9-1.012C58.574,29.325,58.9,29.075,59.275,29.025z"/>
	<path style="fill-rule:evenodd;clip-rule:evenodd;fill:#8F5512;" d="M59.237,30.787c0.15-0.125,0.213-0.35,0.188-0.675
		c0-0.3,0.025-0.487,0.075-0.563s0.188-0.112,0.412-0.112c0.2,0,0.338-0.063,0.413-0.188c0.25,0.175,0.375,0.412,0.375,0.713
		c0,0.274-0.112,0.475-0.338,0.6c-0.3,0.175-0.524,0.274-0.675,0.301C59.612,30.863,59.463,30.837,59.237,30.787z"/>
	<path style="fill-rule:evenodd;clip-rule:evenodd;fill:#A36014;" d="M24.85,29.7l0.712,0.263c0.525,0.199,0.875,0.387,1.05,0.563
		c0.225,0.225,0.25,0.438,0.075,0.637c-0.2,0.225-0.55,0.388-1.05,0.488c-0.45,0.1-0.812-0.037-1.087-0.412
		c-0.125-0.15-0.275-0.451-0.45-0.9C23.9,29.862,24.15,29.65,24.85,29.7z"/>
	<path style="fill-rule:evenodd;clip-rule:evenodd;fill:#8F5512;" d="M25.637,31.65c-0.5,0.15-0.913-0.063-1.237-0.639
		c0.275,0.15,0.538,0.188,0.788,0.113c0.3-0.05,0.525-0.237,0.675-0.563l0.15-0.412l0.6,0.375c0.225,0.225,0.25,0.438,0.075,0.637
		C26.487,31.387,26.138,31.55,25.637,31.65z"/>
	<path style="fill-rule:evenodd;clip-rule:evenodd;fill:#A36014;" d="M62.35,25.612c-0.074-0.175-0.1-0.337-0.074-0.487
		c0-0.35,0.188-0.525,0.563-0.525c0.424,0,0.649,0.213,0.675,0.638c0.024,0.4-0.15,0.763-0.525,1.088
		c-0.325,0.274-0.524,0.3-0.6,0.075C62.362,26.325,62.35,26.063,62.35,25.612z"/>
	<path style="fill-rule:evenodd;clip-rule:evenodd;fill:#C27218;" d="M24.887,30.037c0.225,0.075,0.288,0.2,0.188,0.375
		c-0.125,0.15-0.25,0.188-0.375,0.113c-0.15-0.075-0.212-0.2-0.188-0.375C24.512,30,24.638,29.963,24.887,30.037z"/>
	<path style="fill-rule:evenodd;clip-rule:evenodd;fill:#C27218;" d="M34.15,32.551c0.325,0.024,0.325,0.225,0,0.6
		c-0.075,0.1-0.188,0.325-0.337,0.674c-0.075,0.2-0.138,0.238-0.188,0.113c-0.075-0.225-0.075-0.513,0-0.863
		C33.7,32.699,33.875,32.524,34.15,32.551z"/>
	<path style="fill-rule:evenodd;clip-rule:evenodd;fill:#C27218;" d="M58.862,29.588c0.25-0.025,0.351,0.063,0.3,0.262
		c-0.025,0.226-0.149,0.363-0.375,0.413c-0.2,0.024-0.274-0.075-0.225-0.3C58.612,29.713,58.713,29.588,58.862,29.588z"/>
	<path style="fill-rule:evenodd;clip-rule:evenodd;fill:#A36014;" d="M47.875,32.887c1.125,0.101,1.638,0.363,1.537,0.789
		c-0.1,0.324-0.362,0.563-0.787,0.711c-0.2,0.076-0.5,0.063-0.9-0.037c-0.399-0.124-0.7-0.299-0.899-0.525
		c-0.25-0.249-0.275-0.475-0.075-0.674C46.95,32.926,47.325,32.838,47.875,32.887z"/>
	<path style="fill-rule:evenodd;clip-rule:evenodd;fill:#A36014;" d="M55,31.912c0.475-0.199,0.774-0.138,0.9,0.188
		c-0.4,0.551-0.838,0.826-1.313,0.826c-0.351,0-0.45-0.139-0.301-0.414C54.412,32.263,54.649,32.063,55,31.912z"/>
	<path style="fill-rule:evenodd;clip-rule:evenodd;fill:#C99E00;" d="M53.05,20.85c2.476-0.225,5.425,0.351,8.851,1.726
		c0.649,0.274,1.012,0.6,1.087,0.975l-0.112,1.5c-0.05,0.9-0.313,1.476-0.787,1.726c-0.126,0.024-0.301,0-0.525-0.075
		c-0.176-0.05-0.388-0.038-0.638,0.037c-0.65,0.226-1.763,1.075-3.337,2.55c-0.575,0.525-1.551,1.063-2.926,1.613
		c-1,0.375-1.737,0.612-2.212,0.713c-0.325,0.1-0.913,0.424-1.763,0.975c-0.25,0.199-0.45,0.25-0.6,0.15l-0.15-0.227l0.112-0.6
		h-2.287c-0.625,0-1.288,0.463-1.987,1.389c-0.251,0.324-0.513,0.462-0.788,0.412c-0.2-0.05-0.375-0.188-0.524-0.412
		c-0.2-0.401-0.426-0.738-0.676-1.014c-0.475-0.55-1.075-0.9-1.8-1.049c-0.7-0.15-2.425-0.176-5.175-0.076
		c-2.7,0.15-4.163,0.225-4.388,0.225h-0.9l-0.638,0.227c-0.25,0.1-0.4,0.249-0.45,0.449c-0.1,0.5-0.175,0.824-0.225,0.975
		c-0.15,0.4-0.3,0.575-0.45,0.525l-0.188-0.15c0-1,0.038-1.611,0.113-1.838c0.075-0.148,0.063-0.249-0.038-0.299
		c-0.15-0.076-0.3-0.15-0.45-0.225c-0.975-0.525-1.625-0.826-1.95-0.9c-0.425-0.075-1.338-0.45-2.738-1.125
		c6.5-0.551,10.025-0.9,10.575-1.051c0.125-0.05,1.563-0.925,4.313-2.625c2.875-1.8,5.063-2.987,6.563-3.563
		c1.574-0.6,2.824-0.912,3.75-0.938C50.287,20.85,51.4,20.85,53.05,20.85z"/>
	<path style="fill-rule:evenodd;clip-rule:evenodd;fill:#FAC400;" d="M60.213,20.55c0.6,0.075,1.05,0.213,1.35,0.413
		c0.175,0.125,0.45,0.375,0.825,0.75c0.324,0.274,0.512,0.537,0.563,0.787c0,0.05,0,0.4,0,1.05c0,0.4-0.088,0.575-0.263,0.525
		c-0.25-0.101-0.388-0.138-0.412-0.112c-0.101,0.1-0.101,0.287,0,0.563c0.024,0.125,0.162,0.487,0.412,1.087
		c0.199,0.4,0.15,0.688-0.15,0.862c-0.3,0.176-0.5,0.138-0.6-0.112c-0.075-0.175-0.2-0.263-0.375-0.263
		c-0.1,0-0.325,0.051-0.675,0.15c-0.175,0.05-0.5,0.287-0.976,0.713c-0.5,0.475-0.938,0.787-1.313,0.938
		c-0.575,0.225-0.925,0.375-1.05,0.449c-0.25,0.176-0.575,0.538-0.975,1.088c-0.351,0.475-1.3,0.975-2.851,1.5
		c-1.6,0.449-2.524,0.737-2.774,0.863c-0.25,0.124-0.388,0.287-0.413,0.486c-0.05,0.2-0.188,0.351-0.412,0.451
		c-0.225,0.1-0.563,0.049-1.013-0.15c-0.625-0.275-1.2-0.438-1.725-0.488c-0.625-0.074-1.063,0.076-1.313,0.451
		c-0.325,0.475-0.663,0.762-1.013,0.861c-0.525,0.15-0.975,0.125-1.35-0.074c-0.45-0.375-0.838-0.676-1.163-0.9
		c-0.45-0.301-0.837-0.488-1.163-0.563c-0.125-0.05-0.712-0.125-1.762-0.225c-1.875-0.15-3.513-0.213-4.913-0.188
		c-0.625,0.024-1.225,0-1.8-0.076c-0.5-0.124-0.837-0.199-1.013-0.225c-0.3-0.05-0.8,0.113-1.5,0.488
		c-0.225,0.124-0.337,0.299-0.337,0.525c-0.025,0.523-0.038,0.812-0.038,0.861c-0.075,0.375-0.263,0.476-0.563,0.301
		c-0.275-0.15-0.425-0.351-0.45-0.6c0-0.076,0.087-0.338,0.263-0.789c0.15-0.399,0.188-0.674,0.112-0.824
		c-0.175-0.35-0.775-0.688-1.8-1.013c-0.35-0.125-0.65-0.188-0.9-0.188c-0.225,0-0.45-0.05-0.675-0.149
		c-1.6-0.525-2.438-0.851-2.512-0.976c-0.025-0.075,0.013-0.2,0.112-0.375c0.1-0.149,0.213-0.263,0.337-0.337
		C47.175,22.938,59.263,20.425,60.213,20.55z"/>
	<path style="fill-rule:evenodd;clip-rule:evenodd;fill:#FFD436;" d="M62.388,22.275c0,0.199-0.075,0.475-0.226,0.824
		c-0.175,0.351-0.262,0.676-0.262,0.976c0.024,0.325-0.188,0.737-0.638,1.237c-0.525,0.475-0.838,0.775-0.938,0.9
		c-0.125,0.175-0.575,0.449-1.351,0.824c-0.975,0.476-1.563,0.775-1.762,0.9c-1.676,1.05-3.013,1.775-4.013,2.175
		c-0.575,0.226-1.563,0.375-2.963,0.45c-1.85,0.125-2.813,0.188-2.888,0.188c-0.199,0.025-0.888,0.175-2.063,0.449
		c-0.925,0.2-1.787,0.326-2.587,0.375c-0.8,0.026-2.563-0.049-5.288-0.225c-2.85-0.175-4.3-0.262-4.35-0.262
		c-0.625,0-2.313-0.638-5.063-1.913c14.175-5.899,21.525-8.912,22.05-9.037c0.35-0.075,1.875-0.038,4.575,0.112
		c2.025,0.1,3.813,0.213,5.362,0.338C61.463,20.737,62.263,21.3,62.388,22.275z"/>
	<path style="fill-rule:evenodd;clip-rule:evenodd;fill:#FFFCB0;" d="M29.575,32.25c0.05,0.125,0.038,0.274-0.037,0.449
		c-0.075,0.176-0.15,0.214-0.225,0.113c-0.075-0.125-0.063-0.288,0.038-0.488C29.425,32.125,29.5,32.1,29.575,32.25z"/>
	<path style="fill-rule:evenodd;clip-rule:evenodd;fill:#FFFCB0;" d="M43.75,32.324c0.649,0.275,0.875,0.476,0.675,0.602
		c-0.1,0.049-0.213,0.037-0.337-0.039c-0.176-0.1-0.338-0.188-0.488-0.262C43.4,32.5,43.313,32.4,43.338,32.324
		C43.388,32.225,43.525,32.225,43.75,32.324z"/>
	<path style="fill-rule:evenodd;clip-rule:evenodd;fill:#FFFCB0;" d="M49.112,31.838c0.601,0.199,0.737,0.425,0.413,0.674
		c-0.125,0.101-0.251,0.101-0.375,0L48.7,32.1c-0.226-0.124-0.288-0.225-0.188-0.299C48.638,31.75,48.838,31.762,49.112,31.838z"/>
	<path style="fill-rule:evenodd;clip-rule:evenodd;fill:#FFFCB0;" d="M62.05,25.8c0.1,0.05,0.188,0.125,0.263,0.226
		c0.075,0.125,0.037,0.212-0.112,0.262c-0.15,0.051-0.238-0.037-0.263-0.262C61.912,25.775,61.949,25.7,62.05,25.8z"/>
	
		<use xlink:href="#flash0.ai_Assets_x5F_2_x2F_Layer_39_copy_x2F__x3C_Path_x3E__x5F_25"  width="49.406" height="14.036" y="-14.05" transform="matrix(0.75 0 0 -0.75 24.3999 20.7002)" style="overflow:visible;opacity:0.3789;enable-background:new    ;"/>
	<path style="fill-rule:evenodd;clip-rule:evenodd;fill:#EDCF64;" d="M60.175,23.925c-1.45,1.775-4.038,3.125-7.763,4.05
		c-3.975,0.976-7.287,1.601-9.938,1.875c-2.175,0.2-4.399,0.2-6.675,0c-3.375-0.3-5.162-0.462-5.362-0.487
		c-1.6-0.175-2.65-0.35-3.15-0.524c-1.325-0.5-2.738-0.963-4.238-1.388c0.075-0.05,0.538-0.163,1.388-0.338
		c0.875-0.2,1.7-0.537,2.475-1.013c0.7-0.449,1.637-0.824,2.813-1.125c1.425-0.375,2.662-0.8,3.712-1.274
		c1.05-0.476,2.925-1.188,5.625-2.138c2.85-0.975,5.05-1.8,6.6-2.475c3.625-1.6,6.676-2.138,9.15-1.613
		c0.825,0.175,1.95,0.676,3.375,1.5c1.35,0.775,2.262,1.4,2.737,1.875C61.6,21.525,61.35,22.55,60.175,23.925z"/>
	<path style="fill-rule:evenodd;clip-rule:evenodd;fill:#C7A83C;" d="M59.35,24.787c1.2-1.05,1.813-2.074,1.838-3.074
		c0.175,0.649,0.212,1.188,0.112,1.612c-0.175,0.5-0.513,1.063-1.013,1.688c-1.024,1.225-2.399,2.125-4.125,2.7
		c-4.475,1.5-8.262,2.462-11.362,2.887c-2.7,0.351-5.737,0.425-9.112,0.225c-1.1-0.049-2.525-0.236-4.275-0.562
		c-1.875-0.4-3.125-0.663-3.75-0.788c-1.175-0.25-2.45-0.637-3.825-1.162c-0.525-0.025-0.8,0.162-0.825,0.563
		c-0.025,0.3,0.1,0.838,0.375,1.612c-0.675-0.3-1.075-0.7-1.2-1.2c-0.125-0.574,0.15-1.162,0.825-1.762l0.038-0.075
		c1.5,0.425,2.913,0.888,4.238,1.388c0.5,0.175,1.55,0.35,3.15,0.524c0.2,0.025,1.987,0.188,5.362,0.487c2.275,0.2,4.5,0.2,6.675,0
		c2.65-0.274,5.963-0.899,9.938-1.875C55.463,27.2,57.775,26.138,59.35,24.787z"/>
	<path style="fill-rule:evenodd;clip-rule:evenodd;fill:#D6B64B;" d="M36.775,26.55c-0.15,0.05-0.175,0.112-0.075,0.188
		c0.225-0.125,0.6-0.212,1.125-0.263L37.262,26.4C37.013,26.475,36.85,26.525,36.775,26.55z M37.262,27
		c-0.15,0.05-0.412,0.037-0.787-0.037c-0.275-0.051-0.462-0.013-0.563,0.112c0.05,0,0.337,0.024,0.862,0.075
		C37.1,27.2,37.262,27.15,37.262,27z M29.125,27.6l-0.3-0.112C28.8,27.463,28.775,27.4,28.75,27.3c-0.175,0-0.313,0-0.413,0
		c-0.125,0.025-0.188,0.063-0.188,0.112c0.325-0.024,0.45,0.025,0.375,0.15C28.475,27.662,28.675,27.675,29.125,27.6z
		 M29.237,26.925c0.05,0.05,0.013,0.088-0.112,0.112c-0.15-0.1-0.263-0.137-0.337-0.112c0,0.15,0.225,0.213,0.675,0.188
		c-0.45,0.075-0.238,0.112,0.638,0.112C29.8,27.025,29.513,26.925,29.237,26.925z M34.788,26.175c-0.25,0.05-0.513,0.15-0.788,0.3
		c-0.2,0.125-0.438,0.2-0.712,0.226c-0.1-0.05-0.1-0.125,0-0.226c-0.325,0.025-0.5,0.075-0.525,0.15
		c0,0.025,0.075,0.088,0.225,0.188c0.15-0.05,0.612-0.063,1.388-0.037c0.6,0.05,0.888-0.038,0.862-0.263
		c-0.3,0.125-0.475,0.188-0.525,0.188c-0.025,0.024-0.225-0.025-0.6-0.15C34.837,26.425,35.063,26.3,34.788,26.175z M41.425,26.475
		c0.075,0,0.263,0,0.563,0c0.2,0,0.4-0.024,0.601-0.074c0-0.101-0.188-0.138-0.563-0.113C41.625,26.313,41.425,26.375,41.425,26.475
		z M39.325,24.412c-0.075,0.101,0.125,0.188,0.6,0.263c0-0.125,0.125-0.225,0.375-0.3c0.1,0.2,0.45,0.275,1.05,0.225
		c0.799-0.05,1.25-0.063,1.35-0.037c-0.075-0.025-0.025-0.075,0.149-0.15c0.101-0.05,0.038-0.063-0.188-0.037
		c-0.1,0.05-0.287,0.075-0.563,0.075c-0.325,0-0.6,0.05-0.825,0.149c0.1-0.074,0.063-0.137-0.112-0.188
		c-0.275-0.05-0.462-0.1-0.563-0.149c0.05,0,0.288-0.038,0.712-0.112c0.3-0.075,0.487-0.088,0.563-0.038
		c-0.175,0.101-0.15,0.125,0.075,0.075c0.2-0.2,0.15-0.313-0.15-0.338C40.95,24.175,40.125,24.362,39.325,24.412z M37.337,26.25
		c0.15-0.05,0.413-0.088,0.788-0.112c0.325,0,0.462-0.025,0.413-0.075c-0.325,0.05-0.587-0.025-0.788-0.225
		c-0.1,0.024-0.362,0.137-0.788,0.337C37.138,26.15,37.262,26.175,37.337,26.25z M38.913,24.675
		c0.225-0.024,0.262-0.075,0.112-0.149c-0.175,0.024-0.313,0.063-0.413,0.112c-0.125,0.075-0.3,0.112-0.525,0.112
		c-0.85-0.3-1.675-0.388-2.475-0.263c0.025,0.2-0.5,0.362-1.575,0.487c0.75,0.125,1.275,0.088,1.575-0.112
		c0.075,0.05,0.088,0.101,0.038,0.15c-0.025,0.05-0.012,0.087,0.038,0.112c0.1-0.025,0.513-0.05,1.237-0.075
		c0.575-0.024,1.087-0.1,1.538-0.225c-0.175,0.1-0.3,0.188-0.375,0.263c-0.125,0.1-0.075,0.149,0.15,0.149
		c0.025-0.075,0.25-0.112,0.675-0.112c0.375,0,0.525-0.05,0.45-0.15c-0.575,0.075-0.875,0.101-0.9,0.075
		c0.075,0,0.25-0.05,0.525-0.149c0.125-0.025,0.413-0.013,0.863,0.037H40c-0.625-0.05-1.075-0.1-1.35-0.15
		C38.575,24.713,38.662,24.675,38.913,24.675z M38.95,24c-0.4,0.025-0.675,0.025-0.825,0c0.2,0.075,0.725,0.112,1.575,0.112
		C39.475,24.037,39.225,24,38.95,24z M40.337,23.662c0.325-0.074,0.587-0.087,0.788-0.037c0.1,0.05,0.15,0.05,0.15,0
		c-0.05-0.05-0.012-0.088,0.112-0.112c0.15-0.025,0.263-0.063,0.338-0.112C41.2,23.325,40.737,23.412,40.337,23.662z M51.025,23.138
		c-0.251,0.024-0.363,0.075-0.338,0.149c0.019,0.057-0.037,0.095-0.169,0.113c0.124-0.008,0.23-0.008,0.319,0
		c-0.025-0.025,0.024-0.063,0.149-0.113C51.112,23.237,51.125,23.188,51.025,23.138z M50.763,22.875c0,0.05,0.125,0.063,0.375,0.037
		c0.05,0.025,0.563-0.063,1.537-0.262c-0.075-0.101-0.4-0.163-0.975-0.188c-0.575-0.025-0.987-0.013-1.237,0.037
		c0.175,0.05,0.162,0.1-0.038,0.15c-0.2,0.05-0.225,0.1-0.075,0.149C50.6,22.8,50.737,22.825,50.763,22.875z M47.463,26.287
		c-0.125,0.025-0.5,0.088-1.125,0.188c-0.325,0.051-0.476,0.138-0.45,0.263c0.149-0.075,0.438-0.149,0.862-0.225
		C47.125,26.463,47.362,26.388,47.463,26.287z M47.65,26.325c-0.075,0.075-0.038,0.138,0.112,0.188
		c0.925-0.226,1.399-0.351,1.425-0.375c-0.375,0-0.775,0.063-1.2,0.188c0.025-0.05,0.038-0.088,0.038-0.112
		c0-0.051-0.088-0.075-0.263-0.075C47.787,26.162,47.75,26.225,47.65,26.325z M47.8,23.438c0.375-0.05,0.601-0.063,0.675-0.037
		l0.15,0.112c-0.25,0.075-0.476,0.087-0.675,0.037c0.075,0.075,0.075,0.15,0,0.226c0.225-0.051,0.425-0.075,0.6-0.075
		c-0.125-0.025,0.162-0.088,0.862-0.188c0.374-0.056,0.687-0.093,0.938-0.112l0.038-0.113c0-0.024-0.063-0.037-0.188-0.037
		c-0.575,0.225-1.038,0.313-1.388,0.263c0.1-0.025,0.15-0.063,0.15-0.112c0-0.025,0.037-0.051,0.112-0.075
		c0.149,0.1,0.362,0.013,0.638-0.263c-0.125,0.05-0.538,0.112-1.238,0.188C47.9,23.3,47.675,23.362,47.8,23.438z M47.425,22.688
		c-0.3-0.1-0.462-0.162-0.487-0.188c-0.125,0.025-0.288,0.125-0.487,0.3c-0.2,0.15-0.338,0.213-0.413,0.188
		c0.101-0.05,0.075-0.063-0.074-0.037c-0.101,0.1,0.1,0.138,0.6,0.112c0.5,0,0.938-0.05,1.313-0.15
		C47.85,22.862,47.7,22.787,47.425,22.688z M47.912,22.425C47.938,22.45,48,22.575,48.1,22.8c0.05,0.175,0.176,0.25,0.375,0.226
		c-0.1-0.075,0-0.125,0.301-0.15c0.3-0.025,0.499,0,0.6,0.075c0.125-0.025,0.287-0.088,0.487-0.188
		c0.175-0.101,0.25-0.175,0.226-0.226c-0.476,0.101-0.9,0.113-1.275,0.038C48.337,22.475,48.037,22.425,47.912,22.425z
		 M50.237,21.563c0.05,0.075,0.05,0.125,0,0.15c0.35-0.025,0.601-0.013,0.75,0.037c-0.725,0.075-1.1,0.162-1.125,0.263
		c0.55-0.075,0.838-0.101,0.862-0.075c-0.399,0.05-0.537,0.1-0.412,0.15c0.175,0.074,0.213,0.137,0.112,0.188
		c0.125-0.051,0.325-0.063,0.601-0.038c0.175,0,0.25-0.024,0.225-0.075c-0.275,0.025-0.362-0.012-0.263-0.112
		c0.075-0.075,0.188-0.149,0.338-0.225c0,0.024-0.05,0.087-0.15,0.188c-0.05,0.05,0.038,0.087,0.263,0.112
		c0.35-0.175,0.412-0.3,0.188-0.375c-0.35-0.125-0.525-0.225-0.525-0.3c0.601,0,0.863-0.05,0.788-0.15
		c-0.275,0.075-0.45,0.075-0.525,0S51.3,21.162,51.4,21.112c-0.2-0.024-0.375-0.013-0.525,0.038
		c-0.25,0.074-0.412,0.112-0.487,0.112c0.25,0.024,0.387,0.075,0.412,0.149c0,0.025,0.013,0.101,0.038,0.226
		c-0.275-0.05-0.375-0.138-0.301-0.263C50.263,21.4,50.162,21.463,50.237,21.563z M49.487,21.112
		c-0.25,0.075-0.412,0.125-0.487,0.15c-0.15,0.05-0.325,0.063-0.525,0.037c0.15,0.025,0.188,0.088,0.113,0.188
		c-0.051,0.05,0.012,0.063,0.188,0.038c-0.025-0.051,0-0.088,0.074-0.113c0.101-0.024,0.188-0.024,0.263,0
		c-0.1,0.075-0.125,0.138-0.075,0.188c0.05,0.075,0.063,0.138,0.038,0.188C49.274,21.763,49.45,21.7,49.6,21.6
		c0.15,0.051,0.188,0.113,0.113,0.188c-0.051,0.075,0.012,0.101,0.188,0.075c-0.051-0.024-0.013-0.075,0.112-0.149
		c0.125-0.051,0.125-0.101,0-0.15c-0.351,0.05-0.601,0.037-0.75-0.037c0.175-0.025,0.25-0.088,0.225-0.188
		C49.438,21.213,49.438,21.138,49.487,21.112z M52.075,19.088c0.023-0.006,0.049-0.012,0.075-0.02
		c-0.039,0.008-0.076,0.014-0.113,0.02H52.075z M51.063,19.5c-0.025-0.025-0.101-0.025-0.225,0c0.274,0.05,0.412,0.138,0.412,0.263
		c0.025,0.125,0.087,0.2,0.188,0.225c0.025-0.075,0.1-0.075,0.225,0c0.176,0.101,0.351,0.112,0.525,0.038l0.225-0.038
		c0.101-0.1,0.063-0.188-0.112-0.263c-0.025-0.024-0.025-0.05,0-0.074l0.038-0.075c-0.125,0.024-0.251,0-0.375-0.075
		c-0.101-0.075-0.2-0.112-0.301-0.112c0.025-0.125-0.024-0.138-0.149-0.038C51.313,19.5,51.162,19.55,51.063,19.5z M54.662,20.85
		c0.051,0.051-0.013,0.088-0.188,0.113c-0.175,0.05-0.25,0.087-0.225,0.112c0.25-0.075,0.513-0.075,0.787,0
		c0.25,0.05,0.463,0.05,0.638,0c-0.149,0-0.313-0.038-0.487-0.112C55.012,20.888,54.837,20.85,54.662,20.85z M55,20.362
		c-0.225-0.125-0.313-0.212-0.263-0.263c-0.275,0.125-0.587,0.2-0.938,0.226c0.175,0.075,0.425,0.175,0.75,0.3
		c0.3,0.1,0.612,0.138,0.938,0.112C55.438,20.638,55.275,20.513,55,20.362z M53.838,21.3c-0.226,0.05-0.438,0.075-0.638,0.075
		c0.175,0.125,0.399,0.188,0.675,0.188l1.013-0.15c-0.175-0.125-0.313-0.175-0.413-0.149C54.274,21.213,54.063,21.225,53.838,21.3z
		 M53.013,18.938c0,0.025-0.112,0.063-0.338,0.112c-0.233,0.047-0.433,0.06-0.6,0.038c-0.146,0.039-0.321,0.052-0.525,0.037
		c0.425,0.15,0.8,0.25,1.125,0.3c0.45,0,0.8-0.013,1.05-0.037c0.301-0.05,0.188-0.101-0.337-0.15
		c0.175-0.024,0.263-0.087,0.263-0.188c-0.301,0.075-0.426,0.075-0.375,0C53.325,18.95,53.237,18.912,53.013,18.938z M55,18.975
		c-0.025,0.176-0.163,0.338-0.412,0.488c-0.301,0.175-0.514,0.313-0.638,0.412c0.274-0.05,0.399-0.05,0.375,0
		c-0.051,0.125-0.013,0.2,0.112,0.225l0.412-0.074c0.125-0.051,0.162-0.088,0.113-0.113c-0.301,0.075-0.45,0.075-0.45,0
		c0.024-0.1-0.051-0.149-0.226-0.149c0.175-0.05,0.575-0.163,1.2-0.338c0.375-0.125,0.649-0.25,0.825-0.375
		c-0.225,0.025-0.45,0.013-0.675-0.037C55.362,18.987,55.15,18.975,55,18.975z M56.388,18.713c-0.101-0.075-0.013-0.125,0.263-0.15
		c0,0.025-0.025,0.1-0.075,0.225c-0.051,0.075-0.013,0.138,0.112,0.188c0.075,0.051,0.1,0.088,0.075,0.113
		c-0.051,0.05-0.063,0.087-0.038,0.112l-0.188,0.037c0.226,0.075,0.238,0.138,0.038,0.188c-0.251,0.075-0.362,0.125-0.338,0.15
		c0.125-0.025,0.263-0.038,0.413-0.038c0.175,0,0.324-0.012,0.449-0.037c0.075-0.05,0.088-0.1,0.038-0.15
		c0.124-0.024,0.162-0.074,0.112-0.149c-0.075-0.075-0.075-0.125,0-0.15c0.175-0.024,0.375-0.024,0.6,0
		c0.075,0,0.051-0.05-0.074-0.149l0.188-0.038l0.449,0.375c-0.225,0.075-0.35,0.163-0.375,0.263c-0.274,0.05-0.5,0.188-0.675,0.412
		c-0.925,0.101-1.25,0.226-0.975,0.375l0.075,0.075h-0.488c-0.025,0,0,0.063,0.075,0.188c0.075,0.075-0.024,0.138-0.3,0.188
		c0.325,0.025,0.688-0.024,1.088-0.149c0.249-0.101,0.611-0.238,1.087-0.413L58,20.25c-0.6,0.2-0.726,0.287-0.375,0.263
		l-0.638,0.337c-0.3,0.15-0.313,0.25-0.037,0.301c-0.325,0.149-0.575,0.262-0.75,0.337c0.1-0.075,0.075-0.138-0.075-0.188
		s-0.188-0.1-0.112-0.149c-0.125,0.024-0.3,0.125-0.525,0.3c-0.149,0.1-0.388,0.112-0.712,0.037
		c-0.101,0.075-0.213,0.125-0.338,0.15c0.1,0.075,0.55,0.05,1.35-0.075c0,0.025-0.013,0.075-0.037,0.15
		c-0.1,0.05-0.176,0.125-0.225,0.225c-0.051,0.1-0.126,0.162-0.226,0.188c0.075,0.05,0.237,0.05,0.487,0
		c0.25-0.025,0.413-0.025,0.488,0c-0.126,0.3-0.363,0.438-0.713,0.412c0.35,0.125,0.65,0.101,0.9-0.074
		c0.249-0.2,0.462-0.288,0.637-0.263c0.125-0.05,0.025-0.088-0.3-0.112c-0.375-0.025-0.476-0.075-0.3-0.15l0.225-0.037
		c0.226,0.05,0.375,0.063,0.45,0.037c0.05,0,0.163-0.05,0.338-0.15c0.175,0.075,0.537,0.038,1.087-0.112
		c-0.05,0.075-0.087,0.175-0.112,0.3c0,0.101-0.037,0.2-0.112,0.301c0.25-0.101,0.425-0.226,0.525-0.375
		c0.1,0.05,0.274,0.074,0.524,0.074c0.274,0,0.388-0.037,0.338-0.112c0.225,0,0.274,0.063,0.149,0.188
		c-0.149,0.125-0.112,0.188,0.113,0.188c-0.15,0.025-0.2,0.063-0.15,0.112c-0.425,0.101-0.813,0.238-1.162,0.413
		c-0.501,0.25-0.801,0.388-0.9,0.412c-0.025-0.05,0-0.112,0.075-0.188c0.1-0.1,0.149-0.162,0.149-0.188
		c-0.225,0.101-0.524,0.288-0.899,0.563c-0.325,0.25-0.688,0.438-1.088,0.563C55.9,23.95,55.7,23.975,55.45,24l-0.188,0.037
		c-0.051-0.024-0.063-0.074-0.038-0.149c0.019-0.036-0.007-0.055-0.074-0.057c0.131-0.022,0.331-0.091,0.6-0.206
		c0.3-0.125,0.612-0.188,0.938-0.188c0.024-0.075,0.175-0.237,0.45-0.487c0.225-0.175,0.312-0.338,0.263-0.487
		c-0.176,0.05-0.476,0.199-0.9,0.449c-0.325,0.176-0.675,0.275-1.05,0.301c-0.2,0.05-0.213,0.087-0.038,0.112
		c0.226,0.05,0.338,0.087,0.338,0.112c-0.45,0.025-0.85,0.1-1.2,0.225c-0.05-0.024-0.063-0.074-0.037-0.149
		c0.024-0.05,0-0.101-0.075-0.15l0.787-0.112l-0.149-0.112c-0.101-0.075-0.226-0.075-0.375,0c-0.15,0.075-0.251,0.087-0.3,0.037
		c-0.15,0.05-0.226,0.2-0.226,0.45c0,0.2-0.2,0.338-0.6,0.412c0.124-0.1,0.087-0.162-0.112-0.188
		c-0.275-0.024-0.438-0.05-0.488-0.074c0.15-0.025,0.2-0.063,0.15-0.113l0.188-0.037c0.1-0.025,0.213-0.063,0.338-0.112
		c-0.101-0.075-0.263-0.138-0.488-0.188c-0.25-0.025-0.438-0.05-0.563-0.075c-0.05-0.075,0.013-0.1,0.188-0.075
		c0.25,0.05,0.413,0.063,0.488,0.038c0-0.051-0.088-0.113-0.263-0.188c-0.2-0.101-0.313-0.2-0.338-0.301
		c-0.075,0.2-0.274,0.426-0.6,0.676c-0.05,0-0.263-0.038-0.638-0.113l-0.525,0.15l0.638,0.112c-0.125,0.025-0.274,0.038-0.45,0.038
		c-0.175,0-0.325,0.012-0.449,0.037h0.487c0.149,0.075-0.063,0.162-0.638,0.263c-0.575,0.1-0.9,0.1-0.975,0
		c-0.226,0.075-0.2,0.125,0.074,0.149c0.301,0.025,0.551,0,0.75-0.074c-0.074,0.074-0.074,0.125,0,0.149
		c0.15,0.025,0.25,0.063,0.301,0.112l-0.188,0.038c-0.226-0.025-0.438,0.024-0.638,0.149c-0.226,0.125-0.5,0.2-0.825,0.226
		c0-0.125,0.15-0.2,0.45-0.226c-0.15-0.05-0.288-0.037-0.413,0.038c-0.149,0.1-0.25,0.149-0.3,0.149l0.713,0.188
		c-0.075,0.025-0.112,0.051-0.112,0.075l0.037,0.075l-0.6,0.075c-0.025-0.05-0.138-0.075-0.338-0.075
		c-0.101,0.025-0.088,0.1,0.037,0.225c-0.399,0.025-0.5-0.05-0.3-0.225c0.101-0.1,0.263-0.237,0.487-0.412
		c-0.225-0.051-0.425-0.025-0.6,0.074c-0.2,0.101-0.188,0.188,0.037,0.263c-0.125-0.024-0.262-0.024-0.412,0
		c-0.15,0.025-0.213,0.05-0.188,0.075c-0.2-0.05-0.388-0.063-0.563-0.037C46.862,24.8,47.15,24.7,47.8,24.6
		c-0.2,0-0.325-0.024-0.375-0.074c-0.475,0.175-0.7,0.313-0.675,0.412c-0.675-0.1-0.875-0.075-0.6,0.075
		c-0.251,0.024-0.388,0.024-0.413,0c0-0.075-0.037-0.138-0.112-0.188c-0.4,0.149-0.838,0.25-1.313,0.3
		c-0.175,0-0.35-0.05-0.525-0.15c-0.074-0.05-0.149-0.012-0.225,0.113c-0.075,0.024-0.225,0.012-0.45-0.038
		c-0.2-0.024-0.274,0-0.225,0.075c-0.125,0.025-0.226,0-0.3-0.075c-0.075-0.05-0.051-0.087,0.074-0.112
		c0.15-0.1-0.524-0.063-2.025,0.112c-0.7,0.125-0.787,0.2-0.262,0.226c0.5,0.024,0.513,0.087,0.038,0.188
		c-1.125,0.125-1.875,0.225-2.25,0.3c0.075,0.075,0.275,0.112,0.6,0.112c0.125,0,0.35,0.063,0.675,0.188
		c0.25,0.1,0.537,0.125,0.862,0.075c0.2-0.025,0.45-0.025,0.75,0l0.15,0.149c0.225-0.074,0.55-0.137,0.975-0.188
		c0.3-0.024,0.463-0.087,0.487-0.188c0.75,0.025,1.5-0.125,2.25-0.449c0.676-0.275,1.226-0.375,1.65-0.301
		c-0.425,0.25-0.112,0.375,0.938,0.375c0.075-0.024,0.313-0.1,0.713-0.225c0.25-0.1,0.563-0.162,0.938-0.188
		c0,0.025-0.176,0.088-0.525,0.188c-0.275,0.075-0.338,0.15-0.188,0.225c0.05,0.025,0.1,0.025,0.15,0
		c0.074,0,0.087-0.012,0.037-0.037c0.125-0.025,0.188-0.025,0.188,0c-0.05,0.05-0.063,0.088-0.037,0.112
		c-0.15,0.025-0.226,0.088-0.226,0.188c0,0.101-0.087,0.163-0.263,0.188l0.375,0.075c0.351-0.025,0.551-0.075,0.601-0.15
		c0.05-0.125,0.175-0.199,0.375-0.225c-0.275,0.175-0.025,0.263,0.75,0.263c0.075,0.125-0.088,0.225-0.487,0.3
		c-0.45,0.1-0.688,0.188-0.713,0.263c-0.175,0.05-0.35,0.05-0.525,0c-0.175-0.025-0.325-0.025-0.449,0
		c0.274,0,0.337,0.037,0.188,0.112c-0.176,0.05-0.163,0.075,0.037,0.075c0.1,0.05,0.1,0.087,0,0.112
		c-0.2,0.05-0.35,0.088-0.45,0.112c-0.075,0.05-0.213,0.088-0.412,0.112c-0.2,0.025-0.351,0.013-0.45-0.037l-0.075-0.075
		c0.226,0.025,0.45,0.013,0.675-0.037c0.226-0.025,0.338-0.063,0.338-0.112c0-0.176-0.412-0.2-1.237-0.075
		c-0.825,0.149-1.237,0.162-1.237,0.037c-0.275,0.101-0.45,0.15-0.525,0.15c0.025,0.1,0.188,0.138,0.487,0.112s0.463,0,0.487,0.075
		c-0.199-0.025-0.337-0.013-0.412,0.037c-0.075,0.075,0.025,0.101,0.3,0.075c0,0.075-0.2,0.075-0.6,0
		c-0.4-0.075-0.525-0.15-0.375-0.225c-0.176-0.051-0.388-0.038-0.638,0.037c-0.2,0.075-0.3,0.138-0.3,0.188
		c0.125,0.075,0.212,0.075,0.263,0c0.1-0.1,0.188-0.15,0.262-0.15c0.025,0.051,0.025,0.101,0,0.15c0,0.075,0.063,0.138,0.188,0.188
		c-0.3,0-0.513-0.037-0.637-0.112c-0.2-0.075-0.338-0.125-0.413-0.15c-0.025-0.024,0.15-0.075,0.525-0.149
		c-0.25-0.025-0.3-0.063-0.15-0.113c0.125-0.074,0.075-0.125-0.149-0.149l0.188-0.038c0.149,0.025,0.274,0.025,0.375,0h-0.15
		c0-0.024,0.237-0.1,0.713-0.225c0.175-0.025,0.262-0.088,0.262-0.188c0-0.075,0.075-0.138,0.226-0.188
		c-0.025,0-0.188,0.025-0.487,0.075c-0.275,0.05-0.45,0.013-0.525-0.112c-0.225,0.024-0.338,0.063-0.338,0.112l-0.375,0.075
		l0.413,0.149c-0.325,0.075-0.525,0.125-0.601,0.15c-0.125,0.024-0.188,0.087-0.188,0.188l-0.862,0.075
		c-0.625,0.024-0.388-0.038,0.713-0.188c-0.325-0.051-0.638-0.013-0.938,0.112c-0.275,0.125-0.351,0.225-0.226,0.3l0.075,0.075
		c-0.149-0.05-0.313-0.038-0.487,0.037s-0.125,0.101,0.15,0.075c0.225,0.05,0.375,0.1,0.45,0.15c0.2-0.051,0.275-0.113,0.226-0.188
		c0.05,0,0.199,0.037,0.45,0.112c0.175,0.05,0.274,0.024,0.3-0.075c0.274,0.025,0.587,0.138,0.938,0.338
		c0.524-0.075,0.762-0.138,0.712-0.188c0.275,0.024,0.288,0.087,0.038,0.188c-0.275,0.1-0.563,0.137-0.862,0.112
		c0.274,0.1,0.287,0.149,0.037,0.149c-0.4-0.024-0.612,0.025-0.638,0.15c0.2,0.025,0.537,0,1.013-0.075
		c0.4,0,0.612,0.088,0.638,0.263c0.125-0.025,0.263-0.063,0.412-0.112c0.075-0.05,0.213-0.063,0.413-0.038
		c0.149-0.074,0.262-0.175,0.337-0.3c0.025-0.05,0.063-0.149,0.112-0.3h0.226c0.024,0.15,0.362,0.162,1.013,0.037
		c-0.025-0.074-0.138-0.1-0.338-0.074c-0.3,0-0.463,0-0.487,0c0.25-0.101,0.313-0.188,0.188-0.263c0.125-0.025,0.263-0.025,0.412,0
		c0.175,0.05,0.35,0.05,0.525,0c-0.125,0.075-0.101,0.149,0.075,0.225c0.175,0.075,0.412,0.075,0.712,0
		c0.15,0,0.162-0.05,0.038-0.149c-0.101-0.075,0.012-0.113,0.337-0.113L49.3,27c0.3,0.075,0.476,0.063,0.525-0.037
		c0.1-0.176,0.274-0.275,0.524-0.301c0-0.024-0.125-0.063-0.375-0.112c-0.149-0.05-0.063-0.1,0.263-0.149
		c-0.05,0.05-0.05,0.087,0,0.112c0.025,0.024,0.101,0.05,0.226,0.075l0.074,0.037c-0.1,0.025-0.112,0.075-0.037,0.15
		c0.025,0.024,0.075,0.074,0.15,0.149c-0.575-0.05-0.726,0.025-0.45,0.226h-0.188c-0.075,0-0.25,0.05-0.525,0.149
		c-0.149,0.05-0.274,0.025-0.375-0.075c-0.25,0.15-0.388,0.238-0.412,0.263c-0.101,0.101-0.05,0.2,0.149,0.3
		c-0.199-0.05-0.387-0.063-0.563-0.037c-0.05,0.025,0.025,0.063,0.226,0.112c0.175,0.05,0.162,0.125-0.038,0.226
		c-0.3,0.05-0.774,0.05-1.425,0c-0.075,0.074-0.2,0.125-0.375,0.149c-0.149,0.05-0.237,0.088-0.263,0.112l-0.225,0.038H46
		l-0.3-0.226l-0.788,0.15c-0.199-0.125-0.438-0.188-0.712-0.188c-0.025-0.075,0.175-0.112,0.6-0.112
		c-0.175-0.075-0.438-0.075-0.787,0c-0.4,0.1-0.65,0.138-0.75,0.112c0.024,0.05,0.199,0.075,0.524,0.075L42.4,28.612
		c-0.226-0.1-0.65-0.125-1.275-0.075c0.1-0.074,0.35-0.112,0.75-0.112c0.475,0.025,0.85-0.013,1.125-0.112
		c-0.625,0.025-0.525-0.088,0.3-0.338c-0.075-0.074-0.138-0.125-0.188-0.149c-0.075-0.075-0.175-0.101-0.3-0.075
		c-0.3-0.025-0.288-0.037,0.037-0.037c0.325-0.025,0.538-0.025,0.638,0c-0.149-0.101-0.412-0.176-0.787-0.226
		c-0.5-0.075-0.8-0.125-0.9-0.149L41.725,27.3c-0.275-0.075-0.65-0.087-1.125-0.037c-0.375,0.05-0.65,0.112-0.825,0.188
		l-1.612,0.263c0-0.075-0.263-0.038-0.788,0.112c-0.85,0.25-1.338,0.388-1.462,0.412c-0.375,0.075-0.825,0.088-1.35,0.038
		c-0.55-0.025-1.025-0.013-1.425,0.037c-0.4,0-0.687,0-0.862,0c-0.35,0.025-0.575,0.063-0.675,0.112c0,0.05-0.163,0.088-0.488,0.112
		c-0.225,0-0.275,0.051-0.15,0.15c-0.225,0.025-0.337,0.063-0.337,0.112c-0.1,0.025-0.163-0.013-0.188-0.112
		c0-0.1-0.175-0.112-0.525-0.037l0.525-0.188l-0.825-0.075l-0.075-0.038c-0.4-0.074-0.65-0.162-0.75-0.262
		c0.05,0.024,0.212,0.037,0.487,0.037c0.225,0.025,0.363,0.063,0.413,0.112c0.675-0.149,1.25-0.2,1.725-0.149
		c-0.425-0.075-0.75-0.138-0.975-0.188c-0.025,0.024-0.113,0.063-0.263,0.112c-0.15,0.024-0.212,0.063-0.188,0.112
		c-0.65-0.075-1.025-0.112-1.125-0.112c-0.3,0-0.537-0.013-0.712-0.038c-0.175,0.025-0.163,0.063,0.038,0.113
		c0.175,0.074,0.325,0.112,0.45,0.112c0,0.024-0.175,0.063-0.525,0.112c-0.3,0.025-0.375,0.1-0.225,0.225l-0.225,0.038
		c-0.1-0.2-0.025-0.338,0.225-0.413c-0.25-0.05-0.412-0.112-0.487-0.188c-0.175-0.024-0.288-0.063-0.337-0.112
		c-0.2,0.101-0.288,0.163-0.263,0.188c-0.125-0.024-0.125-0.188,0-0.487c0.1-0.275,0.237-0.525,0.413-0.75
		c0.175,0,0.225,0.05,0.15,0.15c-0.1,0.125-0.075,0.212,0.075,0.262c-0.475,0.226-0.425,0.463,0.15,0.713
		c0.2-0.1,0.288-0.162,0.263-0.188c-0.05-0.175,0.012-0.4,0.188-0.675c0.225-0.325,0.337-0.55,0.337-0.675
		c1.1,0.149,1.837,0.3,2.212,0.449c0.025,0.051,0.238,0.125,0.638,0.226c0.275,0.075,0.237,0.138-0.113,0.188
		c0.275,0.05,0.725,0.037,1.35-0.038c0.675-0.074,1.125-0.112,1.35-0.112c0.15-0.05,0.1-0.087-0.15-0.112
		c-0.216,0-0.285-0.025-0.207-0.075c-0.144,0.063-0.5,0.138-1.069,0.226c-0.125-0.025-0.212-0.075-0.262-0.15l-0.488,0.112
		c-0.175-0.024-0.437-0.175-0.787-0.45l-0.075-0.074c0.225,0.05,0.45,0.037,0.675-0.038l0.075,0.075
		c0.075,0,0.137-0.063,0.188-0.188c0.025-0.075,0.112-0.088,0.263-0.037c0.125-0.025,0.125-0.051,0-0.075
		c-0.15-0.025-0.163-0.075-0.038-0.15h0.225c0.45-0.075,1.487-0.188,3.112-0.337c1.25-0.101,2.212-0.25,2.888-0.45
		c-0.825,0.175-2.075,0.287-3.75,0.337c-1.775,0.051-3.15,0.15-4.125,0.301c-0.075-0.075-0.15-0.101-0.225-0.075
		c-0.175,0.075-0.325,0.112-0.45,0.112c-0.1-0.1-0.05-0.2,0.15-0.3c0.175-0.101,0.175-0.226,0-0.375l0.188-0.038l0.075,0.075
		c0.025,0.226,0.55,0.3,1.575,0.226c1.1-0.075,1.737-0.051,1.912,0.074c-0.075-0.25,0.3-0.412,1.125-0.487
		c-0.45,0-0.687-0.063-0.712-0.188c-0.275-0.05-0.438-0.112-0.487-0.188h0.637c0.2,0,0.338-0.037,0.413-0.112
		c-0.55-0.05-0.975-0.075-1.275-0.075L32.8,24.75c-0.025-0.1-0.162-0.162-0.413-0.188c-0.25-0.025-0.4-0.063-0.45-0.112
		c-0.05-0.075,0.013-0.088,0.188-0.038l0.375,0.075c0.15,0.101,0.513,0.138,1.087,0.112c0.025,0,0.1-0.063,0.225-0.188
		c0.05-0.074,0.15-0.063,0.3,0.038c0.275-0.075,0.325-0.125,0.15-0.15c-0.3-0.05-0.475-0.1-0.525-0.149
		c0.275-0.051,0.575-0.038,0.9,0.037c0.325,0.05,0.625,0.063,0.9,0.037l0.075,0.038c0.2-0.05,0.313-0.125,0.337-0.226
		c0-0.149,0.063-0.25,0.188-0.3c0.225-0.024,0.525-0.024,0.9,0c0.325,0.025,0.637,0,0.938-0.075
		c0.125-0.024,0.212-0.012,0.262,0.038c0.125-0.025,0.138-0.05,0.038-0.075c-0.15-0.025-0.175-0.075-0.075-0.15
		c0.2-0.024,0.488-0.037,0.863-0.037c0.35,0,0.65-0.025,0.9-0.075l0.112-0.112c0.05-0.05,0.163-0.088,0.338-0.112
		c0.375,0.175,1.162,0.162,2.363-0.038c0.149,0,0.175-0.05,0.074-0.149c-0.1-0.075,0-0.112,0.301-0.112l1.012-0.188
		c-0.05-0.025-0.274-0.013-0.675,0.037c0.075-0.05,0.088-0.1,0.038-0.15c0.149,0,0.199-0.024,0.149-0.074l0.188-0.038l0.45,0.038
		c0.125,0.024,0.138,0.074,0.037,0.149c0.2-0.1,0.476-0.212,0.825-0.337c0.325-0.101,0.575-0.213,0.75-0.338
		c-0.075-0.025-0.3-0.013-0.675,0.037L45.175,21.9c0.15-0.125,0.413-0.15,0.788-0.075c0.25,0.05,0.362,0.063,0.337,0.037
		c0.175-0.024,0.162-0.063-0.037-0.112c-0.275-0.05-0.425-0.088-0.45-0.112c0.675-0.125,1.412-0.163,2.213-0.112
		c-0.476-0.2-0.813-0.226-1.013-0.075c-0.4-0.075-0.5-0.188-0.3-0.338c0.124-0.075,0.337-0.2,0.637-0.375
		c0.05,0.101,0.163,0.2,0.338,0.3c0.1,0.051,0.138,0.15,0.112,0.301c0.25,0.024,0.413,0.012,0.487-0.038
		c0.101-0.1,0.25-0.162,0.45-0.188C48.712,21.037,48.575,21,48.325,21c-0.275,0.025-0.438,0.013-0.487-0.037
		c0.175-0.075,0.225-0.138,0.149-0.188c-0.075-0.075-0.05-0.15,0.075-0.226c-0.325,0.125-0.7,0.2-1.125,0.226
		c-0.429,0.023-0.778,0.067-1.05,0.131c0.085-0.024,0.072-0.081-0.038-0.169c-0.125-0.125-0.199-0.125-0.225,0
		c-0.025,0.075-0.125,0.125-0.3,0.15c-0.2,0-0.351,0.063-0.45,0.188c-0.15-0.15-0.463-0.226-0.938-0.226
		c-0.575,0.025-1,0.025-1.275,0c0.4-0.05,0.575-0.175,0.525-0.375c-0.075-0.199-0.013-0.324,0.188-0.375
		c0.075,0.025,0.1,0.113,0.075,0.263c-0.025,0.101,0.037,0.138,0.188,0.112c0-0.05,0.112-0.087,0.337-0.112
		c-0.175-0.075-0.212-0.138-0.112-0.188c0.175-0.1,0.263-0.188,0.263-0.263c0.225,0.176,0.5,0.263,0.825,0.263
		c-0.05-0.075,0.087-0.087,0.412-0.037L45.4,19.95c0-0.075,0.087-0.125,0.262-0.15c-0.199,0.4-0.188,0.463,0.038,0.188
		c0.1-0.024,0.149-0.075,0.149-0.149c-0.024-0.051,0.05-0.088,0.226-0.113c0.149,0.025,0.212,0.013,0.188-0.037
		c0.3-0.125,0.6-0.2,0.899-0.225l0.825-0.15l0.075,0.075c0.075,0.075-0.05,0.112-0.375,0.112c-0.3-0.025-0.425,0-0.375,0.075
		c-0.125,0.024-0.162,0.063-0.112,0.112l-0.188,0.037c0.274,0.075,0.462,0.176,0.563,0.301c0.125,0.149-0.038,0.262-0.487,0.337
		c0.3,0.075,0.912,0.112,1.837,0.112c0.2-0.149,0.487-0.237,0.862-0.262c-0.024-0.075-0.212-0.113-0.563-0.113
		c-0.274,0-0.35-0.05-0.225-0.149c-0.4,0.1-0.612,0.188-0.638,0.263c-0.274-0.075-0.087-0.188,0.563-0.338
		c0.625-0.15,1.075-0.162,1.351-0.037c-0.325-0.176-0.563-0.301-0.713-0.375c-0.225-0.101-0.575-0.2-1.05-0.301
		c-0.476,0.075-0.575,0.075-0.3,0c0.124-0.05,0.149-0.087,0.074-0.112c-0.1-0.024-0.1-0.05,0-0.075c0.325,0.051,0.638,0.051,0.938,0
		c-0.1,0.025-0.162,0.063-0.188,0.113c-0.05,0.05,0,0.063,0.15,0.037c-0.075-0.125,0.125-0.15,0.6-0.075l0.188-0.037l0.075,0.037
		c0.2,0,0.25,0.05,0.15,0.15c0.325-0.101,0.712-0.163,1.162-0.188c0.3-0.025,0.487-0.088,0.563-0.188
		c0.025,0.024,0.101,0.05,0.226,0.075c0.1,0,0.162,0.024,0.188,0.074c-0.057,0.04-0.119,0.071-0.188,0.094
		c0.131-0.027,0.256-0.071,0.375-0.131c0.1-0.05,0.312-0.075,0.637-0.075c-0.1-0.175-0.074-0.287,0.075-0.337
		c0.125-0.051,0.425-0.075,0.9-0.075c0.05-0.025,0.063-0.088,0.037-0.188c0.025-0.075,0.175-0.125,0.45-0.15
		c-0.25,0.25-0.163,0.375,0.263,0.375c-0.125-0.075-0.125-0.112,0-0.112c0.225,0,0.399-0.013,0.524-0.037
		c0.101-0.075,0.075-0.176-0.074-0.301c-0.15-0.1-0.326-0.162-0.525-0.188l-0.225-0.188c0.225-0.024,0.424,0.013,0.6,0.113
		c0.175,0.1,0.325,0.149,0.45,0.149l0.188-0.037c0,0.1,0.063,0.188,0.188,0.263c0.149,0.1,0.225,0.188,0.225,0.262l0.15,0.113
		l-0.338-0.038c-0.125-0.024-0.263-0.013-0.412,0.038c-0.2,0.05-0.188,0.1,0.037,0.149c0.274,0.075,0.413,0.138,0.413,0.188
		C56.388,18.862,56.487,18.813,56.388,18.713z"/>
	<path style="fill-rule:evenodd;clip-rule:evenodd;fill:#D6B64B;" d="M41.462,21.3l2.025-0.037c0.325-0.025,0.612-0.013,0.862,0.037
		s0.325,0.125,0.226,0.226c-0.125,0.125-0.476,0.188-1.05,0.188c-0.4,0-0.775,0.087-1.125,0.262
		c-0.101,0.051-0.263,0.063-0.488,0.038c-0.4-0.025-0.638-0.038-0.713-0.038l-3.262,0.263c-0.075,0,0.2-0.138,0.825-0.412
		c0.65-0.101,1.125-0.263,1.425-0.487c0.125-0.075,0.337-0.101,0.637-0.075C40.975,21.263,41.188,21.275,41.462,21.3z"/>
	<path style="fill-rule:evenodd;clip-rule:evenodd;fill:#D6B64B;" d="M40.075,22.575c0.2-0.175,0.425-0.275,0.675-0.3
		c0.15-0.025,0.45-0.025,0.9,0c0.45,0.024,0.525,0.112,0.225,0.262c-0.3,0.15-0.625,0.226-0.975,0.226
		c-0.2,0-0.462,0.063-0.788,0.188c-0.325,0.149-0.625,0.237-0.9,0.263c-0.375,0.05-0.813,0.05-1.313,0
		c-0.475-0.051-0.788-0.125-0.938-0.226c-0.125-0.075,0-0.138,0.375-0.188c0.325-0.024,0.587-0.024,0.788,0
		C39.1,22.9,39.75,22.825,40.075,22.575z"/>
	<path style="fill-rule:evenodd;clip-rule:evenodd;fill:#D6B64B;" d="M39.025,22.275c0.2,0.05,0.275,0.112,0.225,0.188
		c-0.075,0.1-0.225,0.125-0.45,0.074c-0.225-0.074-0.275-0.137-0.15-0.188C38.75,22.3,38.875,22.275,39.025,22.275z"/>
	<path style="fill-rule:evenodd;clip-rule:evenodd;fill:#D6B64B;" d="M35.837,23.213c0.25,0,0.387,0.05,0.413,0.149
		c0,0.075-0.1,0.138-0.3,0.188c-0.275,0.125-0.487,0.213-0.637,0.263c-0.275,0.1-0.5,0.088-0.675-0.037
		c-0.2-0.125-0.137-0.25,0.188-0.375C35.15,23.275,35.487,23.213,35.837,23.213z"/>
	<path style="fill-rule:evenodd;clip-rule:evenodd;fill:#D6B64B;" d="M28.525,25.575c0.225-0.05,0.275,0.037,0.15,0.263
		c-0.125,0.225-0.325,0.324-0.6,0.3c-0.25-0.025-0.288-0.112-0.112-0.263S28.325,25.625,28.525,25.575z"/>
	<path style="fill-rule:evenodd;clip-rule:evenodd;fill:#D6B64B;" d="M39.813,28.463c-0.2,0-0.463,0.074-0.788,0.225
		c-0.375,0.175-0.65,0.275-0.825,0.3c-0.325,0.05-1.038,0.05-2.137,0c-1.1-0.075-1.825-0.162-2.175-0.263l-0.712-0.188l3.15,0.038
		c0.25,0,0.475-0.05,0.675-0.15c0.25-0.149,0.55-0.263,0.9-0.337c0.375-0.075,0.788-0.163,1.237-0.263
		c0.325-0.05,0.638-0.025,0.938,0.075c0.35,0.149,0.5,0.287,0.45,0.412C40.5,28.412,40.262,28.463,39.813,28.463z"/>
	<path style="fill-rule:evenodd;clip-rule:evenodd;fill:#D6B64B;" d="M54.737,25.088c-0.175,0.175-0.337,0.25-0.487,0.225
		c-0.05,0-0.438-0.1-1.162-0.3c-0.5-0.15-0.801-0.226-0.9-0.226c-0.15,0.025-0.4,0.038-0.75,0.038c-0.476,0-0.575-0.05-0.3-0.15
		c0.274-0.125,0.587-0.175,0.938-0.149C54.074,24.675,54.963,24.862,54.737,25.088z"/>
	<path style="fill-rule:evenodd;clip-rule:evenodd;fill:#FFE587;" d="M52.938,23.85c-0.025,0.025-0.125,0.101-0.3,0.226
		C52.563,24.2,52.2,24.225,51.55,24.15c-0.3-0.025-0.337-0.113-0.112-0.263c0.2-0.15,0.425-0.213,0.675-0.188
		C52.688,23.725,52.963,23.775,52.938,23.85z"/>
	<path style="fill-rule:evenodd;clip-rule:evenodd;fill:#FFE587;" d="M51.25,25.2c0.425,0.024,0.662,0.125,0.713,0.3
		c0.024,0.175-0.15,0.275-0.525,0.3c-0.275,0.05-0.463,0.038-0.563-0.037c-0.101-0.05-0.2-0.063-0.3-0.038
		c-0.176,0.025-0.363-0.024-0.563-0.149c-0.2-0.101-0.288-0.2-0.263-0.3C49.825,25.175,50.325,25.15,51.25,25.2z"/>
	<path style="fill-rule:evenodd;clip-rule:evenodd;fill:#FFE587;" d="M53.05,25.537c0.525-0.05,0.9,0.101,1.125,0.45
		c0.226,0.325,0.112,0.575-0.337,0.75c-0.476,0.2-0.801,0.338-0.976,0.413c-0.25,0.074-0.625,0.125-1.125,0.149
		c-0.475,0.05-0.662-0.013-0.563-0.188c0.075-0.1,0.226-0.25,0.45-0.45c0.45-0.449,0.6-0.725,0.45-0.824
		c-0.15-0.075-0.088-0.15,0.188-0.226C52.487,25.563,52.75,25.537,53.05,25.537z"/>
	<path style="fill-rule:evenodd;clip-rule:evenodd;fill:#FFE587;" d="M56.125,24.45c0.25,0,0.475,0.037,0.675,0.112
		c0.226,0.075,0.237,0.15,0.038,0.225c-0.426,0.125-0.889,0.101-1.388-0.074c-0.226-0.051-0.238-0.113-0.038-0.188
		C55.587,24.475,55.825,24.45,56.125,24.45z"/>
	<path style="fill-rule:evenodd;clip-rule:evenodd;fill:#FFE587;" d="M59.8,23.1c0.274-0.05,0.013,0.25-0.787,0.9
		c-0.801,0.675-1.351,1.025-1.65,1.05c-0.275,0.05-0.325-0.037-0.149-0.263c0.1-0.1,0.262-0.25,0.487-0.449
		c0.024-0.025-0.013-0.138-0.112-0.338c-0.075-0.2-0.063-0.313,0.037-0.338C58.5,23.362,59.225,23.175,59.8,23.1z"/>
	<path style="fill-rule:evenodd;clip-rule:evenodd;fill:#FFE587;" d="M59.013,20.1c0.35,0.025,0.575,0.088,0.675,0.188
		c0.05,0.075,0.088,0.176,0.112,0.301c0.125,0.3-0.05,0.537-0.524,0.712c-0.351,0.125-0.963,0.101-1.838-0.075
		c-0.176-0.05-0.15-0.149,0.075-0.3c0.225-0.125,0.438-0.2,0.638-0.225c0.1,0,0.236-0.112,0.412-0.338
		C58.713,20.162,58.862,20.075,59.013,20.1z"/>
	<path style="fill-rule:evenodd;clip-rule:evenodd;fill:#FFE587;" d="M52.375,18.225c-1.025,0.176-1.612,0.263-1.763,0.263
		c-0.3-0.024-0.475-0.05-0.524-0.075c-0.051-0.05-0.075-0.162-0.075-0.337c0-0.2,0.574-0.3,1.725-0.3c0.65,0.024,1,0.1,1.05,0.225
		C52.813,18.075,52.675,18.15,52.375,18.225z"/>
	<path style="fill-rule:evenodd;clip-rule:evenodd;fill:#FFE587;" d="M48.963,18.225c0.3,0,0.287,0.075-0.038,0.226
		c-0.325,0.125-0.649,0.188-0.975,0.188s-0.3-0.063,0.075-0.188C48.4,18.3,48.712,18.225,48.963,18.225z"/>
	<path style="fill-rule:evenodd;clip-rule:evenodd;fill:#FFE587;" d="M42.888,22.088c0.375,0,0.475,0.1,0.3,0.3
		s-0.425,0.274-0.75,0.225c-0.3-0.024-0.35-0.125-0.15-0.3C42.487,22.162,42.688,22.088,42.888,22.088z"/>
	<path style="fill-rule:evenodd;clip-rule:evenodd;fill:#FFE587;" d="M32.575,25.013c0.375-0.025,0.563,0,0.563,0.075
		c0,0.074-0.125,0.137-0.375,0.188c-0.5,0.125-1.212,0.149-2.137,0.074c-0.25-0.024-0.388-0.1-0.413-0.225
		c-0.025-0.1,0.087-0.15,0.337-0.15C30.85,24.975,31.525,24.987,32.575,25.013z"/>
	<path style="fill-rule:evenodd;clip-rule:evenodd;fill:#FFE587;" d="M41.237,27.525c0.75,0,1.063,0.112,0.938,0.337
		c-0.149,0.2-0.45,0.375-0.9,0.525c-0.25,0.1-0.438,0.087-0.563-0.038c-0.15-0.199-0.3-0.35-0.45-0.449
		C39.787,27.65,40.112,27.525,41.237,27.525z"/>
	<path style="fill-rule:evenodd;clip-rule:evenodd;fill:#FFE587;" d="M40.262,28.725c0.5,0.025,0.788,0.15,0.863,0.375
		c0.1,0.226-0.025,0.363-0.375,0.413c-0.525,0.075-1.112-0.025-1.763-0.3c-0.35-0.125-0.325-0.238,0.075-0.338
		C39.438,28.75,39.837,28.7,40.262,28.725z"/>
	<path style="fill-rule:evenodd;clip-rule:evenodd;fill:#FFE587;" d="M32.875,28.463c0.85,0.125,1.275,0.274,1.275,0.449
		c0,0.176-0.3,0.275-0.9,0.301c-0.45,0.024-0.763,0-0.938-0.075c-0.225-0.125-0.425-0.237-0.6-0.338
		c-0.25-0.125-0.212-0.225,0.112-0.3C32.125,28.425,32.475,28.412,32.875,28.463z"/>
	<path style="fill-rule:evenodd;clip-rule:evenodd;fill:#FFE587;" d="M27.438,26.025c0.3-0.025,0.525,0.05,0.675,0.225
		s0.175,0.313,0.075,0.412c-0.1,0.101-0.188,0.15-0.263,0.15c-0.1,0.025-0.262,0-0.487-0.075c-0.275,0-0.55-0.063-0.825-0.188
		c-0.175-0.075-0.112-0.175,0.188-0.3C27.025,26.125,27.237,26.05,27.438,26.025z"/>
	<path style="fill-rule:evenodd;clip-rule:evenodd;fill:#FFE587;" d="M25.862,27.225c1.3,0.075,1.45,0.325,0.45,0.75
		c-0.15,0.051-0.65-0.1-1.5-0.449c-0.2-0.101-0.163-0.188,0.112-0.263C25.2,27.188,25.513,27.175,25.862,27.225z"/>
	<path style="fill-rule:evenodd;clip-rule:evenodd;fill:#FFE587;" d="M41.462,25.275c1.025,0.024,1.45,0.125,1.275,0.3
		c-0.1,0.1-0.475,0.25-1.125,0.45c-0.35,0.125-0.6,0.137-0.75,0.037c-0.2-0.15-0.425-0.287-0.675-0.412
		C39.638,25.4,40.063,25.275,41.462,25.275z"/>
</g>
</svg>
