<?xml version="1.0" encoding="iso-8859-1"?>
<!-- Generator: Adobe Illustrator 15.1.0, SVG Export Plug-In . SVG Version: 6.00 Build 0)  -->
<!DOCTYPE svg PUBLIC "-//W3C//DTD SVG 1.1//EN" "http://www.w3.org/Graphics/SVG/1.1/DTD/svg11.dtd">
<svg version="1.1" id="flash0.ai" xmlns="http://www.w3.org/2000/svg" xmlns:xlink="http://www.w3.org/1999/xlink" x="0px" y="0px"
	 width="45.45px" height="43px" viewBox="0 0 45.45 43" style="enable-background:new 0 0 45.45 43;" xml:space="preserve">
<symbol  id="flash0.ai_x5F_7_x2F_Layer_49_x2F__x3C_Path_x3E__x5F_1" viewBox="-0.046 -1.393 1.289 1.405">
	<g id="Layer_1_11_">
		<path style="fill-rule:evenodd;clip-rule:evenodd;fill:#FFFFFF;" d="M1.05-0.1C1.35-0.333,1.3-0.65,0.9-1.05
			C0.5-1.45,0.217-1.5,0.05-1.2C-0.117-0.9-0.067-0.6,0.2-0.3C0.467,0.033,0.75,0.1,1.05-0.1z"/>
	</g>
</symbol>
<symbol  id="flash0.ai_x5F_7_x2F_Layer_49_x2F__x3C_Path_x3E__x5F_17" viewBox="-0.023 -1.228 1.125 1.224">
	<g id="Layer_1_6_">
		<path style="fill-rule:evenodd;clip-rule:evenodd;fill:#FFFFFF;" d="M0.9-0.1c0.3-0.2,0.267-0.483-0.1-0.85
			c-0.367-0.333-0.617-0.367-0.75-0.1c-0.133,0.267-0.083,0.533,0.15,0.8C0.433,0.017,0.667,0.067,0.9-0.1z"/>
	</g>
</symbol>
<symbol  id="flash0.ai_x5F_7_x2F_Layer_49_x2F__x3C_Path_x3E__x5F_3" viewBox="-0.023 -1.228 1.1 1.224">
	<g id="Layer_1_10_">
		<path style="fill-rule:evenodd;clip-rule:evenodd;fill:#FFFFFF;" d="M0.9-0.1c0.267-0.233,0.233-0.517-0.1-0.85
			c-0.367-0.333-0.617-0.367-0.75-0.1c-0.133,0.267-0.083,0.533,0.15,0.8C0.433,0.017,0.667,0.067,0.9-0.1z"/>
	</g>
</symbol>
<symbol  id="flash0.ai_x5F_7_x2F_Layer_49_x2F__x3C_Path_x3E__x5F_39" viewBox="-0.038 -11.2 42.706 11.216">
	<g id="Layer_1_5_">
		<path style="fill-rule:evenodd;clip-rule:evenodd;" d="M41.9-5.9c0.867-1,1-1.967,0.4-2.9c-0.433-0.7-1.667-1.5-3.7-2.4l0.45,0.3
			c1.833,1.1,2.367,2.3,1.6,3.6c-0.267,0.433-1.05,1.167-2.35,2.2c-0.367,0.267-1.017,0.583-1.95,0.95
			c-1.167,0.467-1.983,0.816-2.45,1.05c-0.733,0.4-1.833,0.65-3.3,0.75C30-2.317,28.7-2.3,26.7-2.3c-0.767,0-2.217,0.167-4.35,0.5
			c-1.9,0.3-3.133,0.4-3.7,0.3c-0.8-0.1-1.667-0.317-2.6-0.65c-0.8-0.3-1.417-0.583-1.85-0.85c-0.167-0.1-1.483-0.467-3.95-1.1
			S6.167-5.283,5.4-5.75S4.017-7.033,3.55-8.2C3.183-9.2,3-10.167,3-11.1c-1.2,0.567-2.15,1.133-2.85,1.7
			c-0.533,0.467,0.067,1.533,1.8,3.2c1.867,1.767,3.933,3.017,6.2,3.75c6.167,2,11.3,2.784,15.4,2.35
			c7.367-0.767,12.2-1.783,14.5-3.05C39.95-4.25,41.233-5.167,41.9-5.9z"/>
	</g>
</symbol>
<symbol  id="flash0.ai_x5F_7_x2F_Layer_49_x2F__x3C_Path_x3E__x5F_43" viewBox="0 -12.55 12.75 12.55">
	<g id="Layer_1_4_">
		<path style="fill-rule:evenodd;clip-rule:evenodd;fill:#595959;" d="M12.75-12.55c-3.2,1.2-5.917,2.9-8.15,5.1
			C2.333-5.25,0.8-2.767,0,0l0.35-0.05l0.75-0.5C1.7-2.217,2.567-3.833,3.7-5.4C6.033-8.667,9.05-11.05,12.75-12.55z"/>
	</g>
</symbol>
<symbol  id="flash0.ai_x5F_7_x2F_Layer_49_x2F__x3C_Path_x3E__x5F_44" viewBox="0 -13.05 17.2 13.05">
	<g id="Layer_1_3_">
		<path style="fill-rule:evenodd;clip-rule:evenodd;fill:#595959;" d="M10.15-1.5c3,0.4,5.35,0.9,7.05,1.5
			c-0.3-0.9-0.784-1.867-1.45-2.9c-1.267-1.967-3.2-3.967-5.8-6c-2.067-1.6-4.6-2.85-7.6-3.75L0-13.05
			c3.967,1.433,6.8,3.517,8.5,6.25c0.767,1.233,1.25,2.367,1.45,3.4C10.083-2.833,10.15-2.2,10.15-1.5z"/>
	</g>
</symbol>
<symbol  id="flash0.ai_x5F_7_x2F_Layer_49_x2F__x3C_Path_x3E__x5F_45" viewBox="0 -12.7 24.3 12.7">
	<g id="Layer_1_2_">
		
			<linearGradient id="SVGID_1_" gradientUnits="userSpaceOnUse" x1="-22.458" y1="-32.3813" x2="-6.7579" y2="-32.3813" gradientTransform="matrix(1 -0.0032 0.0032 1 26.0605 25.9785)">
			<stop  offset="0" style="stop-color:#FFFFFF"/>
			<stop  offset="1" style="stop-color:#000000"/>
		</linearGradient>
		<path style="fill-rule:evenodd;clip-rule:evenodd;fill:url(#SVGID_1_);" d="M24.3-1.7l-3.2-10.9l-2.35-0.1
			c-0.9,0-1.833,0.05-2.8,0.15c-1.1,0.2-2.333,0.533-3.7,1c-1.433,0.533-2.633,1.117-3.6,1.75c-3.066,2-5.433,4.233-7.1,6.7
			C0.717-1.867,0.2-0.833,0,0l2.65-0.55c4.567-0.867,10-1.3,16.3-1.3C20.817-1.85,22.6-1.8,24.3-1.7z"/>
	</g>
</symbol>
<symbol  id="flash0.ai_x5F_7_x2F_Layer_49_x2F__x3C_Path_x3E__x5F_5" viewBox="-0.023 -1.178 1.125 1.206">
	<g id="Layer_1_9_">
		<path style="fill-rule:evenodd;clip-rule:evenodd;fill:#FFFFFF;" d="M0.9-0.1c0.3-0.2,0.267-0.467-0.1-0.8
			C0.467-1.233,0.217-1.267,0.05-1C-0.083-0.733-0.033-0.467,0.2-0.2C0.433,0.067,0.667,0.1,0.9-0.1z"/>
	</g>
</symbol>
<symbol  id="flash0.ai_x5F_7_x2F_Layer_49_x2F__x3C_Path_x3E__x5F_7" viewBox="-0.039 -1.517 1.357 1.554">
	<g id="Layer_1_8_">
		<path style="fill-rule:evenodd;clip-rule:evenodd;fill:#FFFFFF;" d="M1.1-0.1c0.333-0.267,0.283-0.617-0.15-1.05
			c-0.4-0.434-0.7-0.483-0.9-0.15c-0.167,0.333-0.1,0.667,0.2,1C0.517,0.067,0.8,0.133,1.1-0.1z"/>
	</g>
</symbol>
<symbol  id="flash0.ai_x5F_7_x2F_Layer_49_x2F__x3C_Path_x3E__x5F_9" viewBox="-0.006 -0.879 0.795 0.859">
	<g id="Layer_1_7_">
		<path style="fill-rule:evenodd;clip-rule:evenodd;fill:#FFFFFF;" d="M0.65-0.1c0.2-0.133,0.184-0.316-0.05-0.55
			c-0.267-0.267-0.45-0.3-0.55-0.1c-0.1,0.167-0.066,0.35,0.1,0.55C0.317,0,0.483,0.033,0.65-0.1z"/>
	</g>
</symbol>
<g>
	<path style="fill-rule:evenodd;clip-rule:evenodd;fill:#D9D9D9;" d="M39.688,32.35h0.15c-0.976,3.101-3.038,5.638-6.188,7.613
		C30.425,41.987,26.75,43,22.625,43c-4.15,0-7.837-1.025-11.063-3.075c-3.2-2.024-5.25-4.6-6.15-7.725l0.262,0.037
		c1,0.75,3.063,1.375,6.188,1.875c3.2,0.5,6.838,0.75,10.913,0.75c3.975,0,7.524-0.237,10.649-0.712
		C36.524,33.7,38.612,33.1,39.688,32.35z"/>
	
		<use xlink:href="#flash0.ai_x5F_7_x2F_Layer_49_x2F__x3C_Path_x3E__x5F_45"  width="24.3" height="12.7" y="-12.7" transform="matrix(0.75 0 0 -0.75 8.5498 33.4502)" style="overflow:visible;opacity:0.7188;enable-background:new    ;"/>
	
		<use xlink:href="#flash0.ai_x5F_7_x2F_Layer_49_x2F__x3C_Path_x3E__x5F_44"  width="17.2" height="13.05" y="-13.05" transform="matrix(0.75 0 0 -0.75 25.4004 33)" style="overflow:visible;opacity:0.1602;enable-background:new    ;"/>
	
		<use xlink:href="#flash0.ai_x5F_7_x2F_Layer_49_x2F__x3C_Path_x3E__x5F_43"  width="12.75" height="12.55" y="-12.55" transform="matrix(0.75 0 0 -0.75 5.3999 32.2002)" style="overflow:visible;opacity:0.3203;enable-background:new    ;"/>
	
		<linearGradient id="SVGID_2_" gradientUnits="userSpaceOnUse" x1="0.8003" y1="8.5991" x2="46.0508" y2="8.5991" gradientTransform="matrix(0.75 0 0 0.75 5.1499 24.4004)">
		<stop  offset="0" style="stop-color:#7D7D7D"/>
		<stop  offset="1" style="stop-color:#D4D4D4"/>
	</linearGradient>
	<path style="fill-rule:evenodd;clip-rule:evenodd;fill:url(#SVGID_2_);" d="M34.7,26.35c3.324,1.25,4.987,2.75,4.987,4.5
		c0,1.775-1.663,3.275-4.987,4.5c-3.3,1.25-7.3,1.875-12,1.875c-4.675,0-8.675-0.625-12-1.875c-3.3-1.225-4.95-2.725-4.95-4.5
		c0-1.75,1.65-3.25,4.95-4.5c3.325-1.25,7.325-1.875,12-1.875C27.4,24.475,31.4,25.1,34.7,26.35z"/>
	<path style="fill-rule:evenodd;clip-rule:evenodd;fill:#F5F5F5;" d="M40.175,30.362H39.05c-0.225-1.55-1.899-2.85-5.024-3.899
		c-3.15-1.075-6.9-1.613-11.25-1.613c-4.351,0-8.088,0.538-11.213,1.613c-3.15,1.05-4.837,2.35-5.063,3.899H5.225
		c0.4-1.675,2.262-3.087,5.587-4.237c3.35-1.15,7.313-1.725,11.888-1.725s8.537,0.574,11.888,1.725
		C37.912,27.275,39.775,28.688,40.175,30.362z"/>
	
		<linearGradient id="SVGID_3_" gradientUnits="userSpaceOnUse" x1="1.6748" y1="9.541" x2="44.3248" y2="9.541" gradientTransform="matrix(0.75 0 0 0.75 5.1499 24.4004)">
		<stop  offset="0" style="stop-color:#9C3C11"/>
		<stop  offset="1" style="stop-color:#662516"/>
	</linearGradient>
	<path style="fill-rule:evenodd;clip-rule:evenodd;fill:url(#SVGID_3_);" d="M38.112,32.688c-0.524,0.825-2.225,1.737-5.1,2.737
		c-3.075,1.075-5.8,1.612-8.175,1.612c-3.226,0-6.488-0.287-9.788-0.862c-4.175-0.725-7.025-1.737-8.55-3.037
		c-0.4-0.351,0.05-1.15,1.35-2.4c1.4-1.325,2.95-2.263,4.65-2.813c4.625-1.5,8.475-2.088,11.55-1.763
		c2.476,0.25,4.388,0.5,5.737,0.75c2.301,0.4,4.013,0.913,5.138,1.538c1.425,0.825,2.388,1.512,2.888,2.063
		C38.463,31.263,38.563,31.987,38.112,32.688z"/>
	
		<use xlink:href="#flash0.ai_x5F_7_x2F_Layer_49_x2F__x3C_Path_x3E__x5F_39"  width="42.706" height="11.216" x="-0.038" y="-11.2" transform="matrix(0.75 0 0 -0.75 6.3501 26.0498)" style="overflow:visible;opacity:0.2109;enable-background:new    ;"/>
	<path style="fill-rule:evenodd;clip-rule:evenodd;fill:#6B3207;" d="M10.775,29.088L10.85,27.1l0.525-0.225
		c0.4-0.101,0.75-0.05,1.05,0.15c0.875,0.6,1.5,1.225,1.875,1.875c0.4,0.649,0.675,1.175,0.825,1.574
		c-0.525,0.65-0.913,0.913-1.163,0.788l-1.388-0.75L10.775,29.088z"/>
	<path style="fill-rule:evenodd;clip-rule:evenodd;fill:#6B3207;" d="M20.9,26.5l-0.038-1.537l0.413-0.075
		c0.325-0.025,0.6,0.037,0.825,0.188l0.601,0.337l0.975,1.125c-0.175,0.575-0.313,0.851-0.412,0.825L20.9,26.5z"/>
	<path style="fill-rule:evenodd;clip-rule:evenodd;fill:#803C08;" d="M32.487,27.85c0,0.075-0.037,0.263-0.112,0.563
		c-0.075,0.4-0.588,0.65-1.537,0.75c-0.476,0.05-0.876-0.05-1.2-0.3c-0.275-0.2-0.463-0.45-0.563-0.75L28.888,27.1l0.6-0.112
		L30.8,27.1c0.875,0.101,1.375,0.2,1.5,0.301C32.425,27.524,32.487,27.675,32.487,27.85z"/>
	<path style="fill-rule:evenodd;clip-rule:evenodd;fill:#803C08;" d="M31.813,33.025l-0.375-0.113l-0.6-0.563l0.225-0.449
		c0.199-0.351,0.438-0.688,0.713-1.013c0.3-0.4,0.649-0.675,1.05-0.825c0.399-0.2,0.75-0.213,1.05-0.037
		c0.425,0.225,0.75,0.662,0.975,1.313L31.813,33.025z"/>
	<path style="fill-rule:evenodd;clip-rule:evenodd;fill:#803C08;" d="M23.862,30.475l3.338-0.188v0.938
		c-0.525,0.351-1.15,0.525-1.875,0.525c-0.476,0-0.862-0.088-1.163-0.263l-0.3-0.263V30.475z"/>
	<path style="fill-rule:evenodd;clip-rule:evenodd;fill:#803C08;" d="M20.675,33.325l0.188-1.163l0.45-0.149
		c0.375-0.075,0.774-0.063,1.2,0.037c0.6,0.125,1.062,0.5,1.388,1.125l0.112,0.15c-0.325,0.725-0.575,1.087-0.75,1.087l-1.388-0.3
		L20.675,33.325z"/>
	<path style="fill-rule:evenodd;clip-rule:evenodd;fill:#6B3207;" d="M14.563,34.3l-0.6-1.013l0.487-0.225
		c0.4-0.125,0.713-0.162,0.938-0.112c0.55,0.125,0.95,0.35,1.2,0.675l0.337,0.412c-0.35,0.7-0.612,1.025-0.788,0.976L14.563,34.3z"
		/>
	<path style="fill-rule:evenodd;clip-rule:evenodd;fill:#B56126;" d="M9.313,30.4c-0.075-1.226,0.125-2.126,0.6-2.7
		c0.775-0.976,1.675-0.838,2.7,0.412c0.7,0.875,1.15,1.925,1.35,3.15c-0.7,0.075-1.5,0.037-2.4-0.112
		c-0.475-0.075-1-0.226-1.575-0.45L9.313,30.4z"/>
	<path style="fill-rule:evenodd;clip-rule:evenodd;fill:#B56126;" d="M22.737,26.388c0.1,0.1,0.274,0.425,0.525,0.975
		c-0.275,0.15-0.726,0.237-1.351,0.263c-0.375,0.025-0.837,0.013-1.387-0.037l-0.75-0.075c-0.025-0.15-0.025-0.351,0-0.601
		c0.025-0.5,0.175-0.962,0.45-1.387c0.3-0.476,0.663-0.613,1.087-0.413C21.638,25.263,22.112,25.688,22.737,26.388z"/>
	<path style="fill-rule:evenodd;clip-rule:evenodd;fill:#B56126;" d="M21.2,32.088c0.9-0.051,1.513,0.324,1.837,1.125
		c0.175,0.399,0.25,0.8,0.226,1.199c-0.251,0.125-0.801,0.188-1.65,0.188c-0.525,0-0.938-0.087-1.237-0.262l-0.3-0.301
		c0.025-0.325,0.087-0.649,0.188-0.975C20.462,32.438,20.775,32.112,21.2,32.088z"/>
	<path style="fill-rule:evenodd;clip-rule:evenodd;fill:#B56126;" d="M25.362,29.537c0.649-0.024,1.163,0.088,1.538,0.338
		c0.399,0.225,0.462,0.475,0.188,0.75c-0.275,0.274-0.701,0.462-1.275,0.563c-0.6,0.1-1.138,0.037-1.612-0.188
		c-0.476-0.2-0.525-0.487-0.15-0.862S24.862,29.563,25.362,29.537z"/>
	<path style="fill-rule:evenodd;clip-rule:evenodd;fill:#B56126;" d="M30.688,26.425c1.075,0.325,1.65,0.725,1.725,1.2
		c0.075,0.425-0.237,0.737-0.938,0.938c-0.55,0.175-1.063,0.112-1.537-0.188c-0.25-0.175-0.551-0.463-0.9-0.862
		c-0.225-0.3-0.175-0.588,0.15-0.862C29.513,26.325,30.013,26.25,30.688,26.425z"/>
	<path style="fill-rule:evenodd;clip-rule:evenodd;fill:#B56126;" d="M34.362,30.4c0.55,0.175,0.813,0.85,0.788,2.024
		c-0.226,0.175-0.713,0.375-1.463,0.601c-0.45,0.124-0.963,0.149-1.537,0.074l-0.713-0.188l0.375-0.975
		c0.225-0.55,0.55-0.975,0.975-1.275C33.287,30.287,33.813,30.2,34.362,30.4z"/>
	<path style="fill-rule:evenodd;clip-rule:evenodd;fill:#B56126;" d="M15.762,33.625c0.65,0.75,0.775,1.212,0.375,1.388
		c-0.25,0.149-0.663,0.175-1.237,0.075c-0.525-0.075-0.837-0.176-0.938-0.301c-0.05-0.05-0.075-0.112-0.075-0.188
		c0.05-0.199,0.075-0.475,0.075-0.824c0-0.45,0.25-0.638,0.75-0.563C15.063,33.263,15.412,33.4,15.762,33.625z"/>
	<path style="fill-rule:evenodd;clip-rule:evenodd;fill:#C48137;" d="M13.1,32.575c0.225,0,0.3,0.188,0.225,0.563l-0.487,0.188
		c-0.275,0.149-0.487,0.25-0.638,0.3c-0.225,0.075-0.487,0.1-0.787,0.075c-0.275-0.025-0.575-0.101-0.9-0.226l-0.375-0.188v-0.75
		L13.1,32.575z"/>
	<path style="fill-rule:evenodd;clip-rule:evenodd;fill:#C48137;" d="M17.938,28.787l0.862-0.074c0.6-0.051,0.987-0.063,1.163-0.038
		c0.3,0.025,0.425,0.15,0.375,0.375l-0.112,0.338c-0.05,0.125-0.138,0.199-0.263,0.225c-0.175,0-0.313,0.013-0.413,0.038
		c-0.125,0.024-0.725,0.337-1.8,0.938c-0.225,0.124-0.5,0.124-0.825,0C16.675,30.513,16.5,30.4,16.4,30.25l-0.15-0.6L17.938,28.787z
		"/>
	<path style="fill-rule:evenodd;clip-rule:evenodd;fill:#C48137;" d="M27.463,28.188l0.899,0.037
		c0.25,0.075,0.375,0.301,0.375,0.676c0,0.1-0.313,0.149-0.938,0.149l-1.462-0.075c-0.101,0-0.163-0.087-0.188-0.262l0.037-0.263
		L27.463,28.188z"/>
	<path style="fill-rule:evenodd;clip-rule:evenodd;fill:#C48137;" d="M36.275,29.275c0.375,0.274,0.437,0.375,0.188,0.3
		l-0.788,0.412c-0.45,0.2-1.013,0.101-1.688-0.3c-0.2-0.101-0.325-0.275-0.375-0.525v-0.337l0.976,0.225l0.637-0.037
		C35.675,29.013,36.025,29.1,36.275,29.275z"/>
	<path style="fill-rule:evenodd;clip-rule:evenodd;fill:#C48137;" d="M21.612,34.862c0.025,0.075,0.013,0.188-0.038,0.338
		c0,0.075-0.087,0.149-0.262,0.225l-0.638,0.263c-0.425,0.2-0.962,0.162-1.612-0.112c-0.225-0.101-0.35-0.325-0.375-0.675
		l0.038-0.525l1.575-0.112c0.325-0.025,0.625,0.024,0.9,0.149C21.475,34.563,21.612,34.713,21.612,34.862z"/>
	<path style="fill-rule:evenodd;clip-rule:evenodd;fill:#C48137;" d="M29.188,32.8c0.125,0,0.237,0.088,0.338,0.263
		c0.1,0.15,0.149,0.313,0.149,0.487c0,0.275-0.375,0.5-1.125,0.675c-0.75,0.15-1.274,0.163-1.575,0.038
		c-0.149-0.05-0.262-0.2-0.337-0.45l-0.112-0.375l0.375-0.112c0.324-0.075,0.6-0.112,0.824-0.112L29.188,32.8z"/>
	
		<radialGradient id="SVGID_4_" cx="-25.52" cy="7.9966" r="3.4843" gradientTransform="matrix(-0.6215 -0.4197 -0.374 0.6969 10.9909 13.5165)" gradientUnits="userSpaceOnUse">
		<stop  offset="0" style="stop-color:#FFFFFF;stop-opacity:0"/>
		<stop  offset="0.9922" style="stop-color:#FFFFFF;stop-opacity:0.3765"/>
	</radialGradient>
	<path style="fill-rule:evenodd;clip-rule:evenodd;fill:url(#SVGID_4_);" d="M22.438,27.925c0.399,0,0.737,0.15,1.013,0.45
		c0.274,0.3,0.412,0.649,0.412,1.05v0.038c-0.325,0.375-0.8,0.563-1.425,0.563c-0.6,0-1.063-0.163-1.388-0.488v-0.112
		c0-0.4,0.138-0.75,0.413-1.05S22.063,27.925,22.438,27.925z"/>
	
		<use xlink:href="#flash0.ai_x5F_7_x2F_Layer_49_x2F__x3C_Path_x3E__x5F_17"  width="1.125" height="1.224" x="-0.023" y="-1.228" transform="matrix(0.75 0 0 -0.75 21.5 28.25)" style="overflow:visible;opacity:0.4414;enable-background:new    ;"/>
	<path style="fill-rule:evenodd;clip-rule:evenodd;fill:#EDA758;" d="M19.25,28.225c0.575,0.15,0.875,0.338,0.9,0.563
		c0.025,0.125-0.012,0.226-0.112,0.301L19.55,29.2c-0.125,0.024-0.475,0.199-1.05,0.524c-0.525,0.301-0.888,0.45-1.087,0.45
		c-0.25,0-0.513-0.087-0.788-0.263L16.25,29.65l0.225-0.301c0.175-0.225,0.362-0.412,0.563-0.563
		C17.788,28.213,18.525,28.025,19.25,28.225z"/>
	<path style="fill-rule:evenodd;clip-rule:evenodd;fill:#EDA758;" d="M28.213,32.688c0.799-0.025,1.225,0.125,1.274,0.45
		c0.05,0.274-0.125,0.487-0.524,0.638c-0.275,0.1-0.613,0.162-1.013,0.188L27.388,34c-0.55-0.125-0.838-0.313-0.862-0.563
		c-0.025-0.15,0.249-0.325,0.824-0.525C27.65,32.838,27.938,32.763,28.213,32.688z"/>
	<path style="fill-rule:evenodd;clip-rule:evenodd;fill:#EDA758;" d="M11.6,32.088c0.2,0,0.55,0.087,1.05,0.262
		c0.55,0.2,0.762,0.351,0.638,0.45c-0.15,0.15-0.375,0.288-0.675,0.413c-0.4,0.175-0.75,0.237-1.05,0.188
		c-0.35-0.051-0.7-0.188-1.05-0.413c-0.375-0.225-0.5-0.375-0.375-0.45C10.487,32.237,10.975,32.088,11.6,32.088z"/>
	<path style="fill-rule:evenodd;clip-rule:evenodd;fill:#EDA758;" d="M27.537,27.737c0.35,0.05,0.65,0.162,0.9,0.338
		c0.199,0.149,0.287,0.274,0.263,0.375c-0.025,0.1-0.438,0.149-1.237,0.149c-0.4,0-0.738-0.024-1.013-0.074l-0.263-0.075l0.3-0.413
		C26.787,27.787,27.137,27.688,27.537,27.737z"/>
	<path style="fill-rule:evenodd;clip-rule:evenodd;fill:#EDA758;" d="M35.825,28.675c0.425,0.15,0.575,0.35,0.45,0.601
		c-0.326,0.175-0.551,0.274-0.676,0.3c-0.1,0.05-0.35,0.037-0.75-0.038c-0.425-0.074-0.725-0.188-0.899-0.337
		c-0.226-0.15-0.325-0.275-0.3-0.375c0.049-0.125,0.236-0.2,0.563-0.226l0.563-0.037C35.199,28.537,35.55,28.575,35.825,28.675z"/>
	<path style="fill-rule:evenodd;clip-rule:evenodd;fill:#EDA758;" d="M21.5,34.787c-0.1,0.15-0.375,0.275-0.825,0.375
		c-0.525,0.15-0.987,0.163-1.387,0.038c-0.35-0.15-0.55-0.325-0.6-0.525l0.038-0.3l0.6-0.263c0.45-0.175,0.763-0.25,0.938-0.225
		c0.3,0.024,0.613,0.125,0.938,0.3C21.575,34.388,21.675,34.588,21.5,34.787z"/>
	
		<radialGradient id="SVGID_5_" cx="-19.9375" cy="2.4009" r="2.4303" gradientTransform="matrix(-0.6211 -0.4205 -0.3742 0.6982 6.9031 21.1284)" gradientUnits="userSpaceOnUse">
		<stop  offset="0" style="stop-color:#FFFFFF;stop-opacity:0"/>
		<stop  offset="0.9922" style="stop-color:#FFFFFF;stop-opacity:0.3765"/>
	</radialGradient>
	<path style="fill-rule:evenodd;clip-rule:evenodd;fill:url(#SVGID_5_);" d="M17.413,29.875c0.275,0,0.5,0.1,0.675,0.3
		c0.2,0.2,0.3,0.45,0.3,0.75v0.038c-0.25,0.25-0.575,0.375-0.975,0.375c-0.375,0-0.7-0.113-0.975-0.338v-0.075
		c0-0.3,0.1-0.55,0.3-0.75C16.912,29.975,17.138,29.875,17.413,29.875z"/>
	
		<use xlink:href="#flash0.ai_x5F_7_x2F_Layer_49_x2F__x3C_Path_x3E__x5F_9"  width="0.795" height="0.859" x="-0.006" y="-0.879" transform="matrix(0.75 0 0 -0.75 16.75 30.0996)" style="overflow:visible;opacity:0.4414;enable-background:new    ;"/>
	
		<radialGradient id="SVGID_6_" cx="-22.9341" cy="1.3906" r="4.3059" gradientTransform="matrix(-0.6227 -0.418 -0.3723 0.6967 6.161 22.507)" gradientUnits="userSpaceOnUse">
		<stop  offset="0" style="stop-color:#FFFFFF;stop-opacity:0"/>
		<stop  offset="0.9922" style="stop-color:#FFFFFF;stop-opacity:0.3765"/>
	</radialGradient>
	<path style="fill-rule:evenodd;clip-rule:evenodd;fill:url(#SVGID_6_);" d="M18.2,30.737c0.475,0,0.875,0.188,1.2,0.563
		c0.35,0.35,0.525,0.788,0.525,1.313v0.038c-0.425,0.475-1.012,0.712-1.762,0.712c-0.675,0-1.238-0.2-1.688-0.6v-0.15
		c0-0.524,0.163-0.963,0.487-1.313C17.313,30.925,17.725,30.737,18.2,30.737z"/>
	
		<use xlink:href="#flash0.ai_x5F_7_x2F_Layer_49_x2F__x3C_Path_x3E__x5F_7"  width="1.357" height="1.554" x="-0.039" y="-1.517" transform="matrix(0.75 0 0 -0.75 17.0498 31.1504)" style="overflow:visible;opacity:0.4414;enable-background:new    ;"/>
	
		<radialGradient id="SVGID_7_" cx="-11.5259" cy="-4.2515" r="3.4946" gradientTransform="matrix(-0.6224 -0.4185 -0.3729 0.6975 2.0536 30.192)" gradientUnits="userSpaceOnUse">
		<stop  offset="0" style="stop-color:#FFFFFF;stop-opacity:0"/>
		<stop  offset="0.9922" style="stop-color:#FFFFFF;stop-opacity:0.3765"/>
	</radialGradient>
	<path style="fill-rule:evenodd;clip-rule:evenodd;fill:url(#SVGID_7_);" d="M9.425,30.138c0.375,0,0.7,0.149,0.975,0.45
		c0.275,0.3,0.413,0.649,0.413,1.05v0.075c-0.35,0.35-0.825,0.524-1.425,0.524c-0.6,0-1.062-0.162-1.387-0.487v-0.112
		c0-0.4,0.138-0.75,0.413-1.05C8.688,30.287,9.025,30.138,9.425,30.138z"/>
	
		<use xlink:href="#flash0.ai_x5F_7_x2F_Layer_49_x2F__x3C_Path_x3E__x5F_5"  width="1.125" height="1.206" x="-0.023" y="-1.178" transform="matrix(0.75 0 0 -0.75 8.4502 30.5)" style="overflow:visible;opacity:0.4414;enable-background:new    ;"/>
	
		<radialGradient id="SVGID_8_" cx="-39.7168" cy="10.1104" r="3.4946" gradientTransform="matrix(-0.6224 -0.4185 -0.3729 0.6975 12.5134 10.6269)" gradientUnits="userSpaceOnUse">
		<stop  offset="0" style="stop-color:#FFFFFF;stop-opacity:0"/>
		<stop  offset="0.9922" style="stop-color:#FFFFFF;stop-opacity:0.3765"/>
	</radialGradient>
	<path style="fill-rule:evenodd;clip-rule:evenodd;fill:url(#SVGID_8_);" d="M32.037,32.425c0.4,0,0.737,0.15,1.013,0.45
		c0.274,0.3,0.413,0.649,0.413,1.05V34c-0.351,0.35-0.825,0.525-1.426,0.525c-0.6,0-1.063-0.163-1.387-0.488v-0.112
		c0-0.4,0.137-0.75,0.412-1.05S31.662,32.425,32.037,32.425z"/>
	
		<use xlink:href="#flash0.ai_x5F_7_x2F_Layer_49_x2F__x3C_Path_x3E__x5F_3"  width="1.1" height="1.224" x="-0.023" y="-1.228" transform="matrix(0.75 0 0 -0.75 31.0996 32.75)" style="overflow:visible;opacity:0.4414;enable-background:new    ;"/>
	
		<radialGradient id="SVGID_9_" cx="-34.7041" cy="12.8174" r="4.0355" gradientTransform="matrix(-0.6226 -0.4182 -0.374 0.6969 14.5112 6.9546)" gradientUnits="userSpaceOnUse">
		<stop  offset="0" style="stop-color:#FFFFFF;stop-opacity:0"/>
		<stop  offset="0.9922" style="stop-color:#FFFFFF;stop-opacity:0.3765"/>
	</radialGradient>
	<path style="fill-rule:evenodd;clip-rule:evenodd;fill:url(#SVGID_9_);" d="M29.713,28.225c0.449,0,0.837,0.176,1.162,0.525
		c0.3,0.325,0.45,0.737,0.45,1.237v0.038c-0.375,0.425-0.925,0.637-1.65,0.637c-0.675,0-1.2-0.188-1.575-0.563v-0.112
		c0-0.5,0.162-0.912,0.488-1.237C28.888,28.4,29.263,28.225,29.713,28.225z"/>
	
		<use xlink:href="#flash0.ai_x5F_7_x2F_Layer_49_x2F__x3C_Path_x3E__x5F_1"  width="1.289" height="1.405" x="-0.046" y="-1.393" transform="matrix(0.75 0 0 -0.75 28.6504 28.5996)" style="overflow:visible;opacity:0.4414;enable-background:new    ;"/>
	<path style="fill-rule:evenodd;clip-rule:evenodd;fill:#F5F5F5;" d="M39.05,30.362h1.125c0.05,0.125,0.075,0.325,0.075,0.601
		c0,1.8-1.713,3.35-5.138,4.649c-3.425,1.275-7.563,1.913-12.412,1.913c-4.851,0-8.988-0.638-12.413-1.913
		c-3.425-1.3-5.138-2.85-5.138-4.649l0.075-0.601H6.5l-0.038,0.3c0,1.625,1.6,3.013,4.8,4.163c3.175,1.125,7.013,1.688,11.513,1.688
		c4.5,0,8.35-0.563,11.55-1.688c3.175-1.15,4.763-2.538,4.763-4.163L39.05,30.362z"/>
</g>
</svg>
