<?xml version="1.0" encoding="iso-8859-1"?>
<!-- Generator: Adobe Illustrator 15.1.0, SVG Export Plug-In . SVG Version: 6.00 Build 0)  -->
<!DOCTYPE svg PUBLIC "-//W3C//DTD SVG 1.1//EN" "http://www.w3.org/Graphics/SVG/1.1/DTD/svg11.dtd">
<svg version="1.1" id="flash0.ai" xmlns="http://www.w3.org/2000/svg" xmlns:xlink="http://www.w3.org/1999/xlink" x="0px" y="0px"
	 width="37px" height="45px" viewBox="0 0 37 45" style="enable-background:new 0 0 37 45;" xml:space="preserve">
<symbol  id="flash0.ai_x5F_4_x2F_Layer_25_x2F__x3C_Path_x3E__x5F_14" viewBox="0 -5.15 9.2 5.154">
	<g id="Layer_1_6_">
		<path style="fill-rule:evenodd;clip-rule:evenodd;" d="M0-0.6L0.4,0c0.967,0.033,1.75-0.133,2.35-0.5l6.45-4L8.85-5.15
			C8.55-5.117,8.2-5.033,7.8-4.9L5.95-4.05C5.383-3.783,4.6-3.317,3.6-2.65C2.633-1.983,1.433-1.3,0-0.6z"/>
	</g>
</symbol>
<symbol  id="flash0.ai_x5F_4_x2F_Layer_25_x2F__x3C_Path_x3E__x5F_15" viewBox="-0.004 -36.756 25.504 36.756">
	<g id="Layer_1_5_">
		<path style="fill-rule:evenodd;clip-rule:evenodd;fill:#FFFFFF;" d="M25.5-1.45c-1.433-2.767-2.767-4.667-4-5.7
			c-1.1-0.934-1.983-1.8-2.65-2.6c-0.934-1.033-1.867-2.383-2.8-4.05c-1.367-2.4-5-9-10.9-19.8l-0.4-1.2
			c-0.167-0.867-0.1-1.45,0.2-1.75c0.433-0.434-0.1-0.184-1.6,0.75c-1.5,0.9-2.417,1.566-2.75,2c-0.367,0.5-0.567,0.933-0.6,1.3
			c-0.033,0.467,0.133,1.017,0.5,1.65l12.85,23.2l0.8,0.95C14.85-6,15.6-5.433,16.4-5c0.633,0.333,1.5,0.733,2.6,1.2
			c0.867,0.4,1.517,0.883,1.95,1.45C21.65-1.383,22.167-0.6,22.5,0L25.5-1.45z"/>
	</g>
</symbol>
<symbol  id="flash0.ai_x5F_4_x2F_Layer_25_x2F__x3C_Path_x3E__x5F_16" viewBox="0 -38.941 22.25 38.941">
	<g id="Layer_1_4_">
		<path style="fill-rule:evenodd;clip-rule:evenodd;" d="M22.25-1.45c-1.133-1.833-1.567-3.383-1.3-4.65
			c0.566-2.867,0.316-5.4-0.75-7.6c-0.934-2.066-5.2-9.867-12.8-23.4c-0.3-0.5-0.9-0.967-1.8-1.4c-1.133-0.533-2.1-0.583-2.9-0.15
			L0-37.2c0.167,0.067,0.383,0.05,0.65-0.05c0.833-0.233,1.633-0.017,2.4,0.65l0.85,1.05c2.1,3.767,4.217,7.566,6.35,11.4
			c4.267,7.733,6.5,11.85,6.7,12.35c0.966,2.433,1.267,4.566,0.9,6.4c-0.233,1.133,0.367,2.933,1.8,5.4l2.1-1.1L22.25-1.45z"/>
	</g>
</symbol>
<symbol  id="flash0.ai_x5F_4_x2F_Layer_25_x2F__x3C_Path_x3E__x5F_17" viewBox="-0.017 -42.341 31.067 42.341">
	<g id="Layer_1_3_">
		<path style="fill-rule:evenodd;clip-rule:evenodd;fill:#DAE8EB;" d="M22.35,0l8.7-4.8c-0.3-0.434-0.583-0.95-0.85-1.55
			c-0.534-1.233-0.7-2.283-0.5-3.15c0.566-2.867,0.316-5.4-0.75-7.6c-0.934-2.066-5.2-9.867-12.8-23.4c-0.3-0.5-0.9-0.967-1.8-1.4
			c-1.133-0.533-2.1-0.583-2.9-0.15c-1.833,0.733-3.2,1.333-4.1,1.8L7.3-40.3l-2.15,1.2l0.05,0.05c-0.467,0.267-1.133,0.7-2,1.3
			c-0.833,0.633-1.4,1.033-1.7,1.2c-0.8,0.433-1.283,1.267-1.45,2.5c-0.133,0.966-0.066,1.733,0.2,2.3
			C7.583-18.083,11.867-10.3,13.1-8.4c1.3,2.033,3.316,3.6,6.05,4.7c0.833,0.3,1.617,1.017,2.35,2.15
			C21.867-1.017,22.15-0.5,22.35,0z"/>
	</g>
</symbol>
<symbol  id="flash0.ai_x5F_4_x2F_Layer_25_x2F__x3C_Path_x3E__x5F_20" viewBox="-0.017 -42.341 31.067 42.341">
	<g id="Layer_1_2_">
		<path style="fill-rule:evenodd;clip-rule:evenodd;fill:#6DC1D1;" d="M22.35,0l8.7-4.8c-0.3-0.434-0.583-0.95-0.85-1.55
			c-0.534-1.233-0.7-2.283-0.5-3.15c0.566-2.867,0.316-5.4-0.75-7.6c-0.934-2.066-5.2-9.867-12.8-23.4c-0.3-0.5-0.9-0.967-1.8-1.4
			c-1.133-0.533-2.1-0.583-2.9-0.15c-1.833,0.733-3.2,1.333-4.1,1.8L7.3-40.3l-2.15,1.2l0.05,0.05c-0.467,0.267-1.133,0.7-2,1.3
			c-0.833,0.633-1.4,1.033-1.7,1.2c-0.8,0.433-1.283,1.267-1.45,2.5c-0.133,0.966-0.066,1.733,0.2,2.3
			C7.583-18.083,11.867-10.3,13.1-8.4c1.3,2.033,3.316,3.6,6.05,4.7c0.833,0.3,1.617,1.017,2.35,2.15
			C21.867-1.017,22.15-0.5,22.35,0z"/>
	</g>
</symbol>
<g>
	
		<use xlink:href="#flash0.ai_x5F_4_x2F_Layer_25_x2F__x3C_Path_x3E__x5F_20"  width="31.067" height="42.341" x="-0.017" y="-42.341" transform="matrix(1 0 0 -1 0 2.0498)" style="overflow:visible;opacity:0.6484;enable-background:new    ;"/>
	<path style="fill-rule:evenodd;clip-rule:evenodd;fill:#8EB0B8;" d="M10.35,21.1c-0.133-0.467-0.133-1.467,0-3l0.2-2.15l4.9,1.6
		c0.8,0.267,1.767,0.684,2.899,1.25l7.601,4.15c0.7,0.366,0.8,0.733,0.3,1.1C25.75,24.417,20.45,23.434,10.35,21.1z"/>
	
		<radialGradient id="SVGID_1_" cx="15.9536" cy="-13.8867" r="23.5221" gradientTransform="matrix(-0.0632 0.998 0.998 0.0632 27.7186 1.7565)" gradientUnits="userSpaceOnUse">
		<stop  offset="0" style="stop-color:#FFFFFF"/>
		<stop  offset="0.4627" style="stop-color:#FDFDFD"/>
		<stop  offset="0.6431" style="stop-color:#F6F6F6"/>
		<stop  offset="0.7725" style="stop-color:#EAEAEA"/>
		<stop  offset="0.8824" style="stop-color:#D9D9D9"/>
		<stop  offset="0.9725" style="stop-color:#C3C3C3"/>
		<stop  offset="1" style="stop-color:#BABABA"/>
	</radialGradient>
	<path style="fill-rule:evenodd;clip-rule:evenodd;fill:url(#SVGID_1_);" d="M20.7,21.55c1.2,0.633,1.85,0.967,1.95,1
		c0.633,0.267,1.25,0.45,1.85,0.55c0.866,0.134,1.55,0.217,2.05,0.25c-5.666,10.534-8.783,16.184-9.35,16.95
		c-0.167,0.233-0.367,0.517-0.6,0.851c-0.233,0.267-0.633,0.566-1.2,0.899c-0.833,0.533-1.816,0.566-2.95,0.101
		c-6.2-2.9-9.833-4.884-10.9-5.95c-0.633-0.667-0.833-1.467-0.6-2.4l9.6-17.85L20.7,21.55z"/>
	
		<use xlink:href="#flash0.ai_x5F_4_x2F_Layer_25_x2F__x3C_Path_x3E__x5F_17"  width="31.067" height="42.341" x="-0.017" y="-42.341" transform="matrix(1 0 0 -1 0 2.0498)" style="overflow:visible;opacity:0.4492;enable-background:new    ;"/>
	
		<use xlink:href="#flash0.ai_x5F_4_x2F_Layer_25_x2F__x3C_Path_x3E__x5F_16"  width="22.25" height="38.941" y="-38.941" transform="matrix(1 0 0 -1 8.75 5.4502)" style="overflow:visible;opacity:0.1914;enable-background:new    ;"/>
	
		<use xlink:href="#flash0.ai_x5F_4_x2F_Layer_25_x2F__x3C_Path_x3E__x5F_15"  width="25.504" height="36.756" x="-0.004" y="-36.756" transform="matrix(1 0 0 -1 0.2998 2.25)" style="overflow:visible;opacity:0.3203;enable-background:new    ;"/>
	<g>
		<path style="fill-rule:evenodd;clip-rule:evenodd;fill:#BDDFE6;" d="M21.5,3.6c0.366-0.533,0.65-1.05,0.85-1.55l0.801,0.5
			C22.116,4.817,21.1,6.117,20.1,6.45c-1.433,0.4-2.516,0.767-3.25,1.1c-1.267,0.534-2.2,1.233-2.8,2.1
			C13.483,10.517,11.133,14.733,7,22.3c-2.067,3.8-4.067,7.517-6,11.15L1.15,35c0.567,1.233,1.967,2.434,4.2,3.6
			c3.333,1.767,5.316,2.801,5.95,3.101c1.367,0.6,2.4,0.816,3.1,0.649c1.467-0.333,2.65-1.449,3.55-3.35
			c0.3-0.667,2.1-3.983,5.399-9.95c2.967-5.366,4.967-8.966,6-10.8l-0.399,0.9c-0.934,2.067-5.2,9.867-12.8,23.4
			c-0.3,0.5-0.9,0.967-1.8,1.4c-1.133,0.533-2.1,0.583-2.9,0.149c-1.833-0.733-3.2-1.333-4.1-1.8L7.3,42.35L5.15,41.15L5.2,41.1
			c-0.467-0.267-1.133-0.699-2-1.3c-0.833-0.633-1.4-1.033-1.7-1.2c-0.8-0.433-1.283-1.267-1.45-2.5
			c-0.133-0.966-0.066-1.733,0.2-2.3C7.583,20.133,11.867,12.35,13.1,10.45c1.3-2.034,3.316-3.6,6.05-4.7
			C19.983,5.45,20.767,4.733,21.5,3.6z"/>
		<path style="fill-rule:evenodd;clip-rule:evenodd;fill:#E8FBFF;" d="M29.9,5.8l1.149,1.05L30.2,8.4
			c-0.533,1.233-0.7,2.283-0.5,3.15c0.434,2.1,0.399,4.034-0.101,5.8c0.334-2.333,0.267-4.1-0.199-5.3
			c-0.334-0.867-0.467-1.75-0.4-2.65C29.1,8.533,29.4,7.333,29.9,5.8z"/>
	</g>
	
		<use xlink:href="#flash0.ai_x5F_4_x2F_Layer_25_x2F__x3C_Path_x3E__x5F_14"  width="9.2" height="5.154" y="-5.15" transform="matrix(1 0 0 -1 21.8496 2.3501)" style="overflow:visible;opacity:0.3203;enable-background:new    ;"/>
	<path style="fill-rule:evenodd;clip-rule:evenodd;fill:#BCE3EB;" d="M32.55,6.8c-0.166,0.333-0.434,0.55-0.8,0.65
		c-0.333,0.1-0.667,0.066-1-0.1L21.9,2.5c-0.334-0.167-0.534-0.433-0.601-0.8c-0.1-0.367-0.066-0.717,0.101-1.05
		c0.166-0.333,0.433-0.533,0.8-0.6c0.333-0.1,0.666-0.066,1,0.1L32,5c0.333,0.167,0.55,0.433,0.65,0.8
		C32.75,6.133,32.717,6.467,32.55,6.8z"/>
	<path style="fill-rule:evenodd;clip-rule:evenodd;fill:#FFFFFF;" d="M23.25,4.45c-0.7,1.167-1.5,2.233-2.4,3.2
		c-0.633,0.633-1.25,1-1.85,1.1c-0.566,0.067-0.8-0.083-0.7-0.45c0.134-0.367,1.033-0.917,2.7-1.65
		C21.634,6.35,22.384,5.617,23.25,4.45z"/>
	<path style="fill-rule:evenodd;clip-rule:evenodd;fill:#FFFFFF;" d="M26.4,5.6c-0.067,0.066-0.15,0.167-0.25,0.3
		c-0.167,0.233-0.284,0.533-0.351,0.9c-0.133,0.567-0.267,0.867-0.399,0.9l0.149-1.25c0.134-0.4,0.167-0.75,0.101-1.05
		C25.616,5.233,25.733,5.217,26,5.35C26.134,5.417,26.267,5.5,26.4,5.6z"/>
	<path style="fill-rule:evenodd;clip-rule:evenodd;fill:#FFFFFF;" d="M26.85,5.9l0.5,0.3L26.9,7.25
		c-0.034,0.167-0.15,0.317-0.351,0.45c-0.094,0.075-0.151,0.141-0.175,0.2c0.017-0.155,0.059-0.355,0.125-0.6L26.85,5.9z"/>
	<path style="fill-rule:evenodd;clip-rule:evenodd;fill:#FFFFFF;" d="M27.85,10.6l0.25,0.7c0,0.167-0.166,0.55-0.5,1.15l0.051-0.85
		c0.033-0.233-0.034-0.533-0.2-0.9l-0.2-0.45h0.25C27.667,10.283,27.783,10.4,27.85,10.6z"/>
	<path style="fill-rule:evenodd;clip-rule:evenodd;fill:#FFFFFF;" d="M25.2,15.7c-0.3,0.733-0.517,1.083-0.65,1.05
		c0.233-0.333,0.367-0.717,0.4-1.15c0.066-0.934-0.367-1.733-1.3-2.4c-1.934-1.434-3.25-2.367-3.95-2.8
		c-1.634-0.967-2.9-1.316-3.8-1.05c-0.333,0.1-0.783,0.45-1.35,1.05c-0.267,0.3-0.517,0.583-0.75,0.85
		c0.167-0.433,0.4-0.867,0.7-1.3c0.567-0.867,1.117-1.284,1.65-1.25c1.133,0,4.133,1.633,9,4.9C25.483,14.267,25.5,14.967,25.2,15.7
		z"/>
	<path style="fill-rule:evenodd;clip-rule:evenodd;fill:#B5C4C7;" d="M1.15,37.15c0.2,0,0.434,0.083,0.7,0.25
		c0.033,0,0.55,0.333,1.55,1c2.434,1.533,4.4,2.683,5.9,3.449c0.434,0.233,0.917,0.5,1.45,0.801c0.333,0.166,0.45,0.316,0.35,0.449
		c-0.1,0.134-0.75-0.066-1.95-0.6c-1.233-0.533-2.4-1.134-3.5-1.8C1.917,38.366,0.417,37.184,1.15,37.15z"/>
	<path style="fill-rule:evenodd;clip-rule:evenodd;fill:#FFFFFF;" d="M10.55,15.95l6.95,3.75c0.9,0.5,2.017,1.133,3.35,1.9
		c1,0.533,1.784,0.9,2.351,1.1c0.934,0.3,2.05,0.517,3.35,0.649c-1.267,0.067-2.2,0.017-2.8-0.149
		c-0.533-0.134-0.884-0.233-1.05-0.3c-0.334-0.2-0.767-0.45-1.3-0.75L10.55,15.95z"/>
	<path style="fill-rule:evenodd;clip-rule:evenodd;fill:#FFFFFF;" d="M13.3,14.55c0.333-0.1,0.667-0.066,1,0.1
		c0.333,0.2,0.55,0.483,0.65,0.85c0.1,0.333,0.066,0.667-0.1,1c-0.167,0.333-0.434,0.55-0.8,0.65c-0.333,0.067-0.667,0.017-1-0.15
		c-0.333-0.167-0.55-0.433-0.65-0.8c-0.1-0.333-0.066-0.667,0.1-1C12.667,14.867,12.933,14.65,13.3,14.55z M14.45,15.35
		c-0.067-0.233-0.2-0.4-0.4-0.5c-0.5-0.233-0.867-0.117-1.1,0.35c-0.133,0.2-0.167,0.417-0.1,0.65c0.066,0.2,0.2,0.35,0.4,0.45
		c0.467,0.3,0.85,0.2,1.15-0.3C14.5,15.8,14.517,15.583,14.45,15.35z"/>
	<path style="fill-rule:evenodd;clip-rule:evenodd;fill:#FFFFFF;" d="M21.2,20.3c-0.066,0.133-0.084,0.284-0.05,0.45
		c0.066,0.167,0.166,0.283,0.3,0.35c0.133,0.1,0.3,0.117,0.5,0.05c0.166-0.033,0.283-0.133,0.35-0.3
		c0.167-0.367,0.084-0.633-0.25-0.8C21.717,19.817,21.434,19.9,21.2,20.3z M20.8,21.05c-0.066-0.267-0.033-0.517,0.101-0.75
		c0.133-0.233,0.333-0.4,0.6-0.5c0.233-0.066,0.483-0.033,0.75,0.1c0.233,0.133,0.4,0.333,0.5,0.6c0.066,0.233,0.033,0.483-0.1,0.75
		c-0.301,0.567-0.75,0.7-1.351,0.4C21.066,21.517,20.9,21.317,20.8,21.05z"/>
	<path style="fill-rule:evenodd;clip-rule:evenodd;fill:#FFFFFF;" d="M15.8,16.35c0.267,0.167,0.434,0.383,0.5,0.65
		c0.1,0.3,0.083,0.567-0.05,0.8c-0.133,0.267-0.35,0.434-0.65,0.5c-0.267,0.1-0.533,0.083-0.8-0.05
		c-0.267-0.133-0.45-0.35-0.55-0.65c-0.067-0.267-0.033-0.533,0.1-0.8c0.167-0.267,0.383-0.45,0.65-0.55
		C15.3,16.183,15.567,16.217,15.8,16.35z M15.9,16.9c-0.033-0.2-0.133-0.333-0.3-0.4c-0.4-0.233-0.7-0.15-0.9,0.25
		c-0.233,0.4-0.15,0.7,0.25,0.9c0.4,0.233,0.7,0.15,0.9-0.25C15.95,17.267,15.967,17.1,15.9,16.9z"/>
	<path style="fill-rule:evenodd;clip-rule:evenodd;fill:#FFFFFF;" d="M14.75,9.45c-0.367,1.333-0.9,2.9-1.6,4.7
		c-1.367,3.633-2.8,6.65-4.3,9.05C6.417,27.033,4,30.767,1.6,34.4L14.75,9.45z"/>
	<path style="fill-rule:evenodd;clip-rule:evenodd;fill:#FFFFFF;" d="M19.45,26.9c-4.5,8.833-7.067,13.25-7.7,13.25
		c-1.433,0.033-3.183-0.917-5.25-2.851l2.85,1.3c0.7,0.301,1.283,0.417,1.75,0.351c0.667-0.101,1.25-0.533,1.75-1.3L19.45,26.9z"/>
	<path style="fill-rule:evenodd;clip-rule:evenodd;fill:#FFFFFF;" d="M23.75,1.15l-0.3-0.1C23.217,0.95,23,1.167,22.8,1.7
		c-0.066,0.133-0.066,0.35,0,0.65c0.033,0.167,0.066,0.3,0.101,0.4l-0.65-0.4C21.917,2.117,21.8,1.767,21.9,1.3
		c0.066-0.367,0.233-0.633,0.5-0.8c0.267-0.133,0.517-0.167,0.75-0.1c0.3,0.1,1.149,0.533,2.55,1.3c-0.267-0.1-0.517-0.167-0.75-0.2
		c-0.267,0-0.467-0.017-0.601-0.05l-0.399-0.1c0.033,0.033,0,0.066-0.101,0.1C23.717,1.483,23.566,1.633,23.4,1.9l-0.25,0.45
		C23.05,2.283,23.066,2.1,23.2,1.8C23.333,1.5,23.517,1.283,23.75,1.15z"/>
	<path style="fill-rule:evenodd;clip-rule:evenodd;fill:#FFFFFF;" d="M27.75,2.9l3.6,2c-0.6-0.033-1.083-0.15-1.449-0.35L27.75,2.9z
		"/>
	<path style="fill-rule:evenodd;clip-rule:evenodd;fill:#FFFFFF;" d="M32.25,5.55c0.2,0.3,0.017,0.6-0.55,0.9
		c0.1-0.333,0.066-0.633-0.101-0.9c-0.1-0.2-0.05-0.3,0.15-0.3S32.116,5.35,32.25,5.55z"/>
	<path style="fill-rule:evenodd;clip-rule:evenodd;fill:#FFFFFF;" d="M27.45,5.25l1.5,0.6c0.233,0.1,0.399,0.283,0.5,0.55
		L27.45,5.25z"/>
</g>
</svg>
