<?xml version="1.0" encoding="iso-8859-1"?>
<!-- Generator: Adobe Illustrator 15.1.0, SVG Export Plug-In . SVG Version: 6.00 Build 0)  -->
<!DOCTYPE svg PUBLIC "-//W3C//DTD SVG 1.1//EN" "http://www.w3.org/Graphics/SVG/1.1/DTD/svg11.dtd">
<svg version="1.1" id="flash0.ai" xmlns="http://www.w3.org/2000/svg" xmlns:xlink="http://www.w3.org/1999/xlink" x="0px" y="0px"
	 width="37px" height="37px" viewBox="0 0 37 37" style="enable-background:new 0 0 37 37;" xml:space="preserve">
<g>
	
		<linearGradient id="SVGID_1_" gradientUnits="userSpaceOnUse" x1="419.9834" y1="-766.3447" x2="464.8834" y2="-766.3447" gradientTransform="matrix(1.670379e-005 0.75 -0.75 -7.499999e-004 -555.7995 -313.8002)">
		<stop  offset="0" style="stop-color:#7B4E10"/>
		<stop  offset="0.7961" style="stop-color:#67410C"/>
		<stop  offset="1" style="stop-color:#5B3A0A"/>
	</linearGradient>
	<path style="fill-rule:evenodd;clip-rule:evenodd;fill:url(#SVGID_1_);" d="M37,10.2l-0.037,17.662
		c-0.075,3.301-1.225,5.7-3.45,7.2c-2.025,1.351-4.987,2-8.888,1.95l-15.112-5.85c-1.65-0.501-2.763-1.251-3.338-2.25
		c-0.625-1.101-0.938-3-0.938-5.7L1,5.888C0.65,3.738,1.65,2.2,4,1.275c1.725-0.674,4.35-1.062,7.875-1.163l17.887,1.013
		c2.8,0.4,4.763,1.437,5.888,3.112C36.575,5.613,37.025,7.6,37,10.2z"/>
	
		<linearGradient id="SVGID_2_" gradientUnits="userSpaceOnUse" x1="746" y1="420.9141" x2="785.6807" y2="420.9141" gradientTransform="matrix(0.75 0 0 0.75 -555.7998 -313.7998)">
		<stop  offset="0" style="stop-color:#BD761B"/>
		<stop  offset="1" style="stop-color:#965F15"/>
	</linearGradient>
	<path style="fill-rule:evenodd;clip-rule:evenodd;fill:url(#SVGID_2_);" d="M29.763,1.125c0.95,0.125,1.875,0.363,2.775,0.712
		c0.524,0.25,0.824,0.513,0.899,0.788c0.1,0.275-0.125,0.487-0.675,0.637c-1.25,0.325-2.351,0.45-3.3,0.375
		c-0.85-0.05-1.813-0.288-2.888-0.713C25.45,2.5,21.35,2.125,14.275,1.8C13.95,1.8,11.925,1.7,8.2,1.5c-2-0.125-3.5-0.163-4.5-0.113
		c1-0.5,2.3-0.837,3.9-1.012c0.925-0.125,2.35-0.213,4.275-0.263L29.763,1.125z"/>
	<path style="fill-rule:evenodd;clip-rule:evenodd;fill:#B07219;" d="M31.75,11.7l-0.037,17.662
		c-0.075,3.251-0.813,5.425-2.213,6.525c-1.175,0.925-3.162,1.25-5.962,0.975L4.263,32.663c-1.65-0.501-2.763-1.251-3.338-2.25
		c-0.625-1.101-0.938-3-0.938-5.7L0.063,8.888c0-5.45,2-7.962,6-7.537L23.65,2.325c2.725,0.274,4.8,1.337,6.225,3.188
		C31.15,7.138,31.775,9.2,31.75,11.7z"/>
	<g>
		<path style="fill-rule:evenodd;clip-rule:evenodd;fill:#9B6212;" d="M21.663,15.862c0-2.875,0.087-5.324,0.262-7.35
			c0.2-2.4,0.325-4.487,0.375-6.262L22.9,2.288l-0.112,4.387c-0.15,3.875-0.226,6.813-0.226,8.813c0,0.101-0.012,1.713-0.037,4.838
			c-0.025,1.875-0.013,3.263,0.037,4.162c0.051,0.8,0.176,1.775,0.375,2.926c0.25,1.425,0.426,2.638,0.525,3.637
			c0.199,1.65,0.362,3.601,0.487,5.851l-0.675-0.075c-0.325-3.3-0.487-5.475-0.487-6.525c0-1.3-0.226-2.462-0.676-3.487
			C21.638,25.787,21.4,24.95,21.4,24.3c0-0.175,0.05-0.712,0.149-1.612C21.625,21.788,21.663,19.513,21.663,15.862z"/>
		<path style="fill-rule:evenodd;clip-rule:evenodd;fill:#9B6212;" d="M15.25,10.65c-0.575-2.625-0.938-5.575-1.087-8.85L14.8,1.837
			l0.076,1.65c0.149,2.25,0.462,4.313,0.938,6.188c0.1-1.875,0.2-4.462,0.299-7.762l0.713,0.037v0.037
			c-0.175,5.351-0.362,8.726-0.563,10.125l-0.225,1.5C15.787,12.963,15.525,11.975,15.25,10.65z"/>
		<path style="fill-rule:evenodd;clip-rule:evenodd;fill:#9B6212;" d="M10.862,12.15C10.738,8.25,10.7,4.987,10.75,2.362v-0.75
			l1.087,0.076l0.638,32.775l-1.013-0.226L11.2,23.362C11.025,18.188,10.912,14.45,10.862,12.15z"/>
		<path style="fill-rule:evenodd;clip-rule:evenodd;fill:#9B6212;" d="M1.112,7.05l0.15-3.674c0.2-0.325,0.4-0.588,0.6-0.788
			c-0.25,4.8-0.375,8.913-0.375,12.337c0,7.875-0.074,13.213-0.225,16.013L0.851,30.3c0.05-1.574,0.062-2.699,0.037-3.375
			C0.787,20.851,0.863,14.225,1.112,7.05z"/>
		<path style="fill-rule:evenodd;clip-rule:evenodd;fill:#9B6212;" d="M6.175,3.862V1.388h0.676v2.85
			c0,5.8,0.175,15.501,0.525,29.101l-0.75-0.15l-0.113-4.575C6.288,16.738,6.175,8.488,6.175,3.862z"/>
		<path style="fill-rule:evenodd;clip-rule:evenodd;fill:#9B6212;" d="M26.688,10.05C26.313,7.5,26.1,5.101,26.05,2.851l0.676,0.262
			c0.1,3.101,0.475,6.851,1.125,11.25c0.375,2.525,0.7,5.625,0.975,9.301c0.325,4.35,0.5,8.462,0.525,12.337
			c-0.501,0.3-0.9,0.5-1.2,0.601l-0.075-8.363c-0.05-4.199-0.212-7.562-0.487-10.087C27.213,15.375,26.913,12.675,26.688,10.05z"/>
		<path style="fill-rule:evenodd;clip-rule:evenodd;fill:#9B6212;" d="M2.275,3.862l0.076-1.688l0.262-0.188
			c0.076,2.025,0.113,4.025,0.113,6c0,11.876-0.076,19.438-0.225,22.688l-0.038,1.238l-0.487-0.301L2.05,28.05
			C2.05,15.675,2.125,7.612,2.275,3.862z"/>
		<path style="fill-rule:evenodd;clip-rule:evenodd;fill:#9B6212;" d="M4.563,1.351C4.712,1.325,4.926,1.313,5.2,1.313l0.188,2.362
			c0.05,0.975,0.05,4.426,0,10.35c-0.025,6.076-0.025,9.813,0,11.212L5.5,32.925l-0.488-0.112c0.05-3.699,0.05-7.037,0-10.013
			C4.862,12.375,4.75,6.188,4.675,4.237L4.563,1.351z"/>
		<path style="fill-rule:evenodd;clip-rule:evenodd;fill:#9B6212;" d="M30.925,19.013c-0.225-1.725-0.3-3.212-0.225-4.463
			c0.125-1.375,0.188-2.2,0.188-2.475c0.024-0.274,0.037-1.85,0.037-4.725c0.55,1.275,0.825,2.725,0.825,4.35l-0.037,12.862
			C31.213,21.188,30.95,19.338,30.925,19.013z"/>
		<path style="fill-rule:evenodd;clip-rule:evenodd;fill:#9B6212;" d="M7.976,10.5C7.8,6.601,7.7,3.588,7.675,1.462L8.313,1.5
			L8.8,17.55c0.076,3.05,0.351,8.476,0.826,16.275l-0.675-0.15l-0.262-6.188C8.563,24.213,8.325,18.551,7.976,10.5z"/>
		<polygon style="fill-rule:evenodd;clip-rule:evenodd;fill:#9B6212;" points="3.325,1.65 3.925,1.462 4.112,32.588 3.438,32.362 		
			"/>
		<path style="fill-rule:evenodd;clip-rule:evenodd;fill:#9B6212;" d="M29.726,14.888C29.375,12.112,29.2,9,29.2,5.55V4.763
			C29.575,5.138,29.913,5.55,30.213,6l0.037,5.549c0,1.65,0.1,4.513,0.3,8.588c0.175,4.101,0.263,6.55,0.263,7.35
			c0,0.9,0.15,2.7,0.45,5.4c-0.175,0.7-0.412,1.288-0.713,1.763c-0.249-1.45-0.388-2.525-0.412-3.226
			c-0.024-0.774-0.024-3.087,0-6.938C30.188,20.713,30.051,17.513,29.726,14.888z"/>
		<path style="fill-rule:evenodd;clip-rule:evenodd;fill:#9B6212;" d="M12.7,1.726l0.525,0.037c-0.101,5.125-0.038,8.45,0.188,9.975
			c0.024,0.2,0.274,1.801,0.75,4.801c0.274,1.799,0.437,3.449,0.487,4.949c0.05,1.251,0.138,2.926,0.263,5.025
			c0.124,1.851,0.188,3.112,0.188,3.787l-0.076,4.726L14.05,34.8c-0.05-0.874-0.074-2.063-0.074-3.563c0-1.1,0.138-2.05,0.412-2.85
			c0.15-0.399,0.013-2.138-0.412-5.213c-0.55-3.85-0.913-7.037-1.088-9.563c-0.125-2.1-0.188-5.1-0.188-9V1.726z"/>
		<path style="fill-rule:evenodd;clip-rule:evenodd;fill:#9B6212;" d="M24.513,2.438l0.563,0.149V7.05c0,1.675,0.25,4.125,0.75,7.35
			c0.5,3.2,0.75,5.875,0.75,8.025c0,3.676-0.063,8.513-0.188,14.513l-0.675,0.038c0.1-3.95,0.125-7.613,0.075-10.988
			c-0.05-2.8-0.088-4.287-0.113-4.462c-0.149-0.7-0.312-2.088-0.487-4.163c-0.275-3.499-0.45-6.024-0.524-7.574
			C24.588,7.963,24.537,5.513,24.513,2.438z"/>
		<path style="fill-rule:evenodd;clip-rule:evenodd;fill:#9B6212;" d="M17.388,7.8L17.8,1.987l0.563,0.038
			C17.938,9.275,17.425,15.2,16.825,19.8c-0.274,2.25-0.388,3.987-0.338,5.213c0.025,0.75,0.101,2.013,0.225,3.787
			c0.026,1.101,0.475,3.388,1.35,6.863l-1.013-0.188c-0.575-2.675-0.962-4.675-1.162-6c-0.3-2.001-0.438-3.788-0.412-5.363
			c0.024-1.825,0.287-4.075,0.787-6.75C16.813,14.338,17.188,11.15,17.388,7.8z"/>
		<path style="fill-rule:evenodd;clip-rule:evenodd;fill:#9B6212;" d="M18.325,19.237c0.45-1.875,0.763-3.188,0.938-3.938
			c0.3-1.249,0.45-4.062,0.45-8.438l0.037-4.762l1.05,0.074c-0.05,2.575-0.074,5.763-0.074,9.563c0,0.75,0,1.925,0,3.525
			c0,1.35-0.075,2.3-0.226,2.85c-0.199,0.826-0.412,1.862-0.638,3.113c-0.274,1.5-0.412,2.587-0.412,3.262
			c0,0.501-0.024,1.263-0.075,2.288c0,0.825,0.15,1.313,0.45,1.462c0.825,0.45,1.362,0.888,1.612,1.313
			c0.75,1.226,1.125,3.351,1.125,6.375v0.75l-0.675-0.149c-0.075-1.025-0.2-2.037-0.375-3.038c-0.274-1.8-0.575-2.874-0.9-3.225
			c-0.375-0.101-0.675-0.274-0.899-0.525c-0.475-0.05-0.801-0.138-0.976-0.262c-0.274-0.226-0.412-1.263-0.412-3.113
			c0-1.05-0.087-2.187-0.263-3.412C17.987,22.325,18.075,21.088,18.325,19.237z"/>
	</g>
	
		<linearGradient id="SVGID_3_" gradientUnits="userSpaceOnUse" x1="745.8037" y1="-431.085" x2="797.4476" y2="-431.085" gradientTransform="matrix(0.3812 0.6459 -0.6459 0.3812 -555.7994 -313.7998)">
		<stop  offset="0" style="stop-color:#110C0E;stop-opacity:0"/>
		<stop  offset="1" style="stop-color:#110C0E;stop-opacity:0.3686"/>
	</linearGradient>
	<path style="fill-rule:evenodd;clip-rule:evenodd;fill:url(#SVGID_3_);" d="M31.75,11.7l-0.037,17.662
		c-0.075,3.251-0.813,5.425-2.213,6.525c-1.175,0.925-3.162,1.25-5.962,0.975L4.263,32.663c-1.65-0.501-2.763-1.251-3.338-2.25
		c-0.625-1.101-0.938-3-0.938-5.7L0.063,8.888c0-5.45,2-7.962,6-7.537L23.65,2.325c2.725,0.274,4.8,1.337,6.225,3.188
		C31.15,7.138,31.775,9.2,31.75,11.7z"/>
	<path style="fill-rule:evenodd;clip-rule:evenodd;fill:#AC711C;" d="M31.713,29.362c-0.075,3.251-0.813,5.425-2.213,6.525
		c-1.175,0.925-3.162,1.25-5.962,0.975l-12.413-2.699c1.799,0.274,5.375,0.912,10.725,1.912c5.024,0.851,7.987-0.713,8.887-4.688
		c0.4-1.774,0.601-4.925,0.601-9.45c0-4.95,0.137-8.362,0.412-10.237L31.713,29.362z"/>
	<path style="fill-rule:evenodd;clip-rule:evenodd;fill:#D48F2A;" d="M12.231,1.688C11.869,1.674,11.524,1.662,11.2,1.65
		c-3.8-0.1-6.4,0.263-7.8,1.087c-1.625,0.95-2.613,2.701-2.962,5.25c-0.188,1.206-0.319,2.925-0.394,5.156l0.019-4.256
		c0-5.45,2-7.962,6-7.537L12.231,1.688z"/>
	<path style="fill-rule:evenodd;clip-rule:evenodd;fill:#D48F2A;" d="M10.038,0.3c-2.226,0.175-3.975,0.538-5.25,1.088
		C3.538,1.938,2.9,2.212,2.875,2.212C2.75,2.288,2.55,2.525,2.275,2.925L1.337,3.226l0.826-0.938C2.913,1.563,3.851,1,4.976,0.601
		C6.2,0.176,7.912-0.025,10.112,0c1.101,0.025,2.075,0.087,2.926,0.188C12.163,0.162,11.163,0.2,10.038,0.3z"/>
	<path style="fill-rule:evenodd;clip-rule:evenodd;fill:#B5781D;" d="M29.612,11.737l-0.037,12.375
		c-0.05,2.15-0.688,3.588-1.912,4.313c-1.025,0.626-2.763,0.851-5.213,0.676L5.612,26.588c-1.45-0.325-2.425-0.825-2.924-1.5
		c-0.55-0.725-0.826-1.975-0.826-3.75L1.938,9.9c0-3.625,1.75-5.288,5.25-4.987L22.525,5.55c2.399,0.2,4.225,0.9,5.475,2.1
		C29.1,8.725,29.638,10.087,29.612,11.737z"/>
	
		<linearGradient id="SVGID_4_" gradientUnits="userSpaceOnUse" x1="-451.9619" y1="761.6914" x2="-425.1619" y2="761.6914" gradientTransform="matrix(2.798508e-005 -0.75 0.75 -7.499999e-004 -555.8 -313.7997)">
		<stop  offset="0" style="stop-color:#774A0F"/>
		<stop  offset="1" style="stop-color:#492E08"/>
	</linearGradient>
	<path style="fill-rule:evenodd;clip-rule:evenodd;fill:url(#SVGID_4_);" d="M29.237,11.476L29.2,23.663
		c-0.05,2.124-0.688,3.55-1.912,4.274c-1.025,0.601-2.751,0.813-5.176,0.638L5.388,26.101c-1.45-0.325-2.425-0.813-2.925-1.463
		c-0.524-0.726-0.788-1.962-0.788-3.713L1.75,9.638c0-3.575,1.737-5.213,5.212-4.912l15.263,0.637
		C24.6,5.538,26.4,6.226,27.625,7.425C28.725,8.5,29.263,9.85,29.237,11.476z"/>
	<path style="fill-rule:evenodd;clip-rule:evenodd;fill:#956115;" d="M22.226,5.625c2.374,0.2,4.175,0.887,5.399,2.063
		c1.1,1.075,1.638,2.425,1.612,4.049L29.2,23.925c-0.024,1.525-0.338,2.65-0.938,3.375c-0.95,0.375-2.45,0.501-4.5,0.375L7.038,25.2
		c-1.45-0.325-2.425-0.813-2.926-1.463c-0.525-0.725-0.787-1.962-0.787-3.712L3.362,8.737c0.05-1.5,0.363-2.662,0.938-3.487
		C5.075,5,5.963,4.913,6.962,4.987L22.226,5.625z"/>
	<path style="fill-rule:evenodd;clip-rule:evenodd;fill:#B07219;" d="M22.226,5.362C24.6,5.538,26.4,6.226,27.625,7.425
		c1.1,1.075,1.638,2.425,1.612,4.051L29.2,23.663c-0.024,1.524-0.338,2.649-0.938,3.375c-1.05,0.375-2.55,0.487-4.5,0.337
		L7.038,24.9c-1.45-0.3-2.425-0.775-2.926-1.425c-0.525-0.726-0.787-1.963-0.787-3.713L3.362,8.438
		c0.05-1.5,0.363-2.651,0.938-3.451c0.75-0.274,1.638-0.362,2.663-0.262L22.226,5.362z"/>
	<path style="fill-rule:evenodd;clip-rule:evenodd;fill:#FCF5E4;" d="M22.226,5.362C24.6,5.538,26.4,6.226,27.625,7.425
		c1.1,1.075,1.638,2.425,1.612,4.051L29.2,23.663c-0.024,1.524-0.338,2.649-0.938,3.375c-1.05,0.375-2.55,0.487-4.5,0.337
		L7.038,24.9c-1.45-0.3-2.425-0.775-2.926-1.425c-0.525-0.726-0.787-1.963-0.787-3.713L3.362,8.438
		c0.05-1.5,0.363-2.651,0.938-3.451c0.75-0.274,1.638-0.362,2.663-0.262L22.226,5.362z"/>
	
		<radialGradient id="SVGID_5_" cx="791.0273" cy="381.626" r="25.9581" gradientTransform="matrix(0.748 0.0552 0.0495 -0.6714 -595.767 227.8646)" gradientUnits="userSpaceOnUse">
		<stop  offset="0" style="stop-color:#110C0E;stop-opacity:0"/>
		<stop  offset="0.9137" style="stop-color:#110C0E;stop-opacity:0.2784"/>
		<stop  offset="1" style="stop-color:#110C0E;stop-opacity:0.349"/>
	</radialGradient>
	<path style="fill-rule:evenodd;clip-rule:evenodd;fill:url(#SVGID_5_);" d="M22.226,5.362C24.6,5.538,26.4,6.226,27.625,7.425
		c1.1,1.075,1.638,2.425,1.612,4.051L29.2,23.663c-0.024,1.524-0.338,2.649-0.938,3.375c-1.05,0.375-2.55,0.487-4.5,0.337
		L7.038,24.9c-1.45-0.3-2.425-0.775-2.926-1.425c-0.525-0.726-0.787-1.963-0.787-3.713L3.362,8.438
		c0.05-1.5,0.363-2.651,0.938-3.451c0.75-0.274,1.638-0.362,2.663-0.262L22.226,5.362z"/>
	
		<linearGradient id="SVGID_6_" gradientUnits="userSpaceOnUse" x1="-367.9473" y1="808.916" x2="-359.4164" y2="808.916" gradientTransform="matrix(0.0857 -0.7451 0.7451 0.0857 -555.8 -313.7996)">
		<stop  offset="0" style="stop-color:#000000;stop-opacity:0.2392"/>
		<stop  offset="1" style="stop-color:#000000;stop-opacity:0"/>
	</linearGradient>
	<path style="fill-rule:evenodd;clip-rule:evenodd;fill:url(#SVGID_6_);" d="M7.038,24.9c-1.45-0.3-2.425-0.775-2.926-1.425
		c-0.525-0.7-0.787-1.925-0.787-3.676h25.912L29.2,23.663c-0.024,1.524-0.338,2.649-0.938,3.375c-1.05,0.375-2.55,0.487-4.5,0.337
		L7.038,24.9z"/>
	<path style="fill-rule:evenodd;clip-rule:evenodd;fill:#503411;" d="M6.737,29.438c0.125,0.801,0.038,1.513-0.262,2.138
		c-0.301,0.625-0.738,0.975-1.313,1.05c-0.575,0.075-1.088-0.137-1.538-0.638c-0.475-0.499-0.776-1.149-0.9-1.949
		c-0.101-0.775,0-1.476,0.299-2.101c0.3-0.625,0.725-0.975,1.275-1.05c0.55-0.101,1.075,0.101,1.576,0.6
		C6.35,27.988,6.638,28.638,6.737,29.438z"/>
	
		<radialGradient id="SVGID_7_" cx="-735.231" cy="-479.9829" r="5.7152" gradientTransform="matrix(-0.7497 0.0229 0.0164 0.538 -536.9109 304.2685)" gradientUnits="userSpaceOnUse">
		<stop  offset="0.1961" style="stop-color:#ECD723"/>
		<stop  offset="0.6549" style="stop-color:#A38012"/>
		<stop  offset="0.8157" style="stop-color:#C4A119"/>
		<stop  offset="1" style="stop-color:#B8991C"/>
	</radialGradient>
	<path style="fill-rule:evenodd;clip-rule:evenodd;fill:url(#SVGID_7_);" d="M6.212,29.55c0,0.726-0.188,1.351-0.563,1.875
		c-0.4,0.501-0.875,0.75-1.424,0.75c-0.575,0-1.138-0.262-1.688-0.787c-0.6-0.55-0.9-1.175-0.9-1.875s0.3-1.325,0.9-1.875
		c0.55-0.5,1.112-0.75,1.688-0.75c0.55,0,1.024,0.263,1.424,0.787C6.025,28.2,6.212,28.825,6.212,29.55z"/>
	<path style="fill-rule:evenodd;clip-rule:evenodd;fill:#FAF3B1;" d="M5.013,29.55c0,0.601-0.15,1.112-0.45,1.538
		c-0.3,0.4-0.663,0.6-1.087,0.6s-0.788-0.199-1.088-0.6c-0.3-0.426-0.45-0.938-0.45-1.538c0-0.575,0.149-1.075,0.45-1.5
		c0.3-0.399,0.663-0.6,1.088-0.6s0.787,0.2,1.087,0.6C4.862,28.475,5.013,28.975,5.013,29.55z"/>
	
		<linearGradient id="SVGID_8_" gradientUnits="userSpaceOnUse" x1="654.5811" y1="-577.481" x2="659.0806" y2="-577.481" gradientTransform="matrix(0.2209 0.7167 -0.7167 0.2209 -555.7999 -313.7998)">
		<stop  offset="0" style="stop-color:#E9D32A"/>
		<stop  offset="1" style="stop-color:#B79316"/>
	</linearGradient>
	<path style="fill-rule:evenodd;clip-rule:evenodd;fill:url(#SVGID_8_);" d="M4.75,29.513c0,0.575-0.15,1.075-0.451,1.5
		c-0.325,0.425-0.7,0.638-1.125,0.638s-0.787-0.213-1.087-0.638c-0.299-0.425-0.45-0.925-0.45-1.5s0.15-1.075,0.45-1.5
		c0.3-0.399,0.663-0.6,1.087-0.6s0.8,0.2,1.125,0.6C4.601,28.438,4.75,28.938,4.75,29.513z"/>
	<path style="fill-rule:evenodd;clip-rule:evenodd;fill:#503411;" d="M27.138,32.55c0.15,0.876,0.05,1.65-0.3,2.325
		c-0.375,0.675-0.888,1.063-1.538,1.163c-0.624,0.1-1.225-0.126-1.8-0.676c-0.55-0.55-0.887-1.263-1.013-2.137
		c-0.124-0.876-0.013-1.65,0.338-2.325s0.851-1.063,1.5-1.163c0.649-0.1,1.25,0.126,1.8,0.676
		C26.676,30.988,27.013,31.7,27.138,32.55z"/>
	
		<radialGradient id="SVGID_9_" cx="-761.4902" cy="-484.5703" r="6.5905" gradientTransform="matrix(-0.7496 0.0239 0.0163 0.5107 -536.3226 296.9137)" gradientUnits="userSpaceOnUse">
		<stop  offset="0.1961" style="stop-color:#ECD723"/>
		<stop  offset="0.6549" style="stop-color:#A38012"/>
		<stop  offset="0.8157" style="stop-color:#C4A119"/>
		<stop  offset="1" style="stop-color:#B8991C"/>
	</radialGradient>
	<path style="fill-rule:evenodd;clip-rule:evenodd;fill:url(#SVGID_9_);" d="M26.538,32.663c0,0.8-0.226,1.487-0.676,2.063
		c-0.449,0.55-0.999,0.824-1.649,0.824c-0.675,0-1.325-0.287-1.95-0.862c-0.675-0.6-1.013-1.287-1.013-2.063
		c0-0.75,0.338-1.425,1.013-2.024c0.625-0.575,1.275-0.863,1.95-0.863c0.65,0,1.2,0.288,1.649,0.863
		C26.313,31.176,26.538,31.863,26.538,32.663z"/>
	<path style="fill-rule:evenodd;clip-rule:evenodd;fill:#FAF3B1;" d="M25.15,32.7c0,0.649-0.176,1.2-0.525,1.65
		c-0.35,0.449-0.762,0.675-1.237,0.675c-0.5,0-0.925-0.226-1.275-0.675c-0.35-0.45-0.524-1.001-0.524-1.65s0.175-1.2,0.524-1.65
		c0.351-0.449,0.775-0.675,1.275-0.675c0.476,0,0.888,0.226,1.237,0.675C24.975,31.5,25.15,32.051,25.15,32.7z"/>
	
		<linearGradient id="SVGID_10_" gradientUnits="userSpaceOnUse" x1="665.4199" y1="-602.3047" x2="670.3624" y2="-602.3047" gradientTransform="matrix(0.22 0.717 -0.717 0.22 -555.7996 -313.7994)">
		<stop  offset="0" style="stop-color:#E9D32A"/>
		<stop  offset="1" style="stop-color:#B79316"/>
	</linearGradient>
	<path style="fill-rule:evenodd;clip-rule:evenodd;fill:url(#SVGID_10_);" d="M24.813,32.625c0,0.65-0.175,1.2-0.524,1.65
		c-0.351,0.45-0.763,0.675-1.238,0.675c-0.499,0-0.925-0.225-1.274-0.675s-0.525-1-0.525-1.65s0.176-1.2,0.525-1.649
		c0.35-0.45,0.775-0.676,1.274-0.676c0.476,0,0.888,0.226,1.238,0.676C24.638,31.425,24.813,31.975,24.813,32.625z"/>
	<g>
		
			<radialGradient id="SVGID_11_" cx="761.8945" cy="-426.9487" r="28.7272" gradientTransform="matrix(0.3916 0.6396 0.6396 -0.3916 -9.6141 -648.1998)" gradientUnits="userSpaceOnUse">
			<stop  offset="0" style="stop-color:#6EA42E"/>
			<stop  offset="0.3137" style="stop-color:#6CA12D"/>
			<stop  offset="0.5686" style="stop-color:#66972A"/>
			<stop  offset="0.8039" style="stop-color:#5A8626"/>
			<stop  offset="1" style="stop-color:#4D7220"/>
		</radialGradient>
		<path style="fill-rule:evenodd;clip-rule:evenodd;fill:url(#SVGID_11_);" d="M22.375,15.487v0.938L21.4,16.313v-0.9L22.375,15.487
			z M23.5,15.638v0.9l-0.975-0.113v-0.9L23.5,15.638z M23.5,17.587l-0.975-0.075v-0.938l0.975,0.113V17.587z M24.775,15.75
			l0.975,0.112v0.9l-0.975-0.113V15.75z M23.65,16.538v-0.9l0.975,0.113v0.899L23.65,16.538z M22.375,17.625v0.938L21.4,18.45v-0.9
			L22.375,17.625z M21.4,16.462l0.975,0.113v0.9L21.4,17.4V16.462z M22.525,18.712l0.975,0.113v0.9l-0.975-0.113V18.712z
			 M22.375,19.763v0.9L21.4,20.588V19.65L22.375,19.763z M21.4,18.601l0.975,0.112v0.9L21.4,19.5V18.601z M24.625,19.987v0.938
			l-0.975-0.112v-0.938L24.625,19.987z M23.5,19.875v0.9L22.525,20.7v-0.938L23.5,19.875z M22.525,17.663l0.975,0.074v0.938
			l-0.975-0.112V17.663z M28,17.138v0.938l-0.975-0.113v-0.938L28,17.138z M25.9,15.862l0.975,0.113v0.9L25.9,16.763V15.862z
			 M25.9,16.913l0.975,0.112v0.938L25.9,17.851V16.913z M26.875,20.213v0.938L25.9,21.038v-0.9L26.875,20.213z M25.9,19.05
			l0.975,0.113v0.899L25.9,19.987V19.05z M25.9,18.9V18l0.975,0.075v0.938L25.9,18.9z M27.025,19.163L28,19.275v0.899l-0.975-0.074
			V19.163z M27.025,18.112L28,18.226v0.899l-0.975-0.112V18.112z M25.75,20.101v0.938l-0.975-0.113v-0.899L25.75,20.101z
			 M27.025,21.3L28,21.413v0.899L27.025,22.2V21.3z M28,22.463v0.899l-0.975-0.074v-0.938L28,22.463z M26.875,22.351v0.899
			L25.9,23.175v-0.938L26.875,22.351z M25.9,21.188l0.975,0.112v0.9L25.9,22.088V21.188z M26.875,24.487v0.9L25.9,25.313v-0.938
			L26.875,24.487z M25.9,23.325l0.975,0.075v0.938L25.9,24.226V23.325z M27.025,23.438L28,23.513v0.938l-0.975-0.112V23.438z
			 M23.5,21.862l-0.975-0.112v-0.899l0.975,0.074V21.862z M22.375,21.9V22.8L21.4,22.726v-0.938L22.375,21.9z M21.4,20.737
			l0.975,0.075v0.938L21.4,21.638V20.737z M21.4,22.875l0.975,0.075v0.938L21.4,23.775V22.875z M21.4,23.925l0.975,0.113v0.899
			L21.4,24.825V23.925z M22.525,24.038L23.5,24.15v0.899l-0.975-0.112V24.038z M22.525,22.987l0.975,0.075V24l-0.975-0.112V22.987z
			 M24.625,24.263v0.9L23.65,25.05V24.15L24.625,24.263z M22.525,21.9l0.975,0.112v0.9l-0.975-0.075V21.9z M24.775,24.263
			l0.975,0.112v0.9L24.775,25.2V24.263z"/>
	</g>
	<g>
		<path style="fill-rule:evenodd;clip-rule:evenodd;fill:#3E423C;" d="M14.95,9.563l-1.35-0.188V7.837l1.35,0.188V9.563z
			 M15.175,9.601V8.063l1.388,0.149V9.75L15.175,9.601z M16.788,8.25l1.35,0.188v1.538l-1.35-0.188V8.25z M19.75,10.425v1.538
			l-1.388-0.188v-1.538L19.75,10.425z M18.138,10.2v1.537l-1.35-0.15V10.05L18.138,10.2z M13.375,7.837v1.5l-1.388-0.149V7.65
			L13.375,7.837z M10.413,9.226l1.35,0.188v1.537l-1.35-0.188V9.226z M11.987,9.413l1.388,0.188v1.537l-1.388-0.188V9.413z
			 M13.601,18.525l1.35,0.188v1.538l-1.35-0.188V18.525z M13.601,16.763l1.35,0.188v1.5l-1.35-0.15V16.763z M13.375,20.288v1.537
			l-1.388-0.188v-1.5L13.375,20.288z M11.987,18.337l1.388,0.188v1.538l-1.388-0.188V18.337z M11.763,20.101v1.537l-1.35-0.188
			v-1.537L11.763,20.101z M18.138,15.3l-1.35-0.15v-1.538l1.35,0.15V15.3z M18.362,13.8l1.388,0.188v1.538l-1.388-0.188V13.8z
			 M18.362,12.038l1.388,0.15v1.538l-1.388-0.15V12.038z M18.138,13.538l-1.35-0.188v-1.538L18.138,12V13.538z M16.563,15.337v1.538
			l-1.388-0.15v-1.538L16.563,15.337z M15.175,16.95l1.388,0.188v1.537l-1.388-0.188V16.95z M16.788,15.375l1.35,0.188v1.538
			l-1.35-0.188V15.375z M18.362,22.726l1.388,0.149v1.538l-1.388-0.15V22.726z M18.138,24.226l-1.35-0.188V22.5l1.35,0.188V24.226z
			 M15.175,22.313l1.388,0.188v1.538l-1.388-0.188V22.313z M14.95,23.813l-1.35-0.188v-1.5l1.35,0.15V23.813z M13.375,22.088v1.537
			l-1.388-0.188V21.9L13.375,22.088z M11.763,21.862V23.4l-1.35-0.15v-1.537L11.763,21.862z"/>
	</g>
	
		<radialGradient id="SVGID_12_" cx="390.2607" cy="-748.1743" r="22.1603" gradientTransform="matrix(0.0228 0.7497 0.6232 0.0338 472.7534 -257.9382)" gradientUnits="userSpaceOnUse">
		<stop  offset="0" style="stop-color:#DDA11C"/>
		<stop  offset="0.2353" style="stop-color:#DA9F1B"/>
		<stop  offset="0.4275" style="stop-color:#D1981A"/>
		<stop  offset="0.6039" style="stop-color:#C18D17"/>
		<stop  offset="0.7686" style="stop-color:#AB7D13"/>
		<stop  offset="0.9255" style="stop-color:#90680E"/>
		<stop  offset="1" style="stop-color:#805D0B"/>
	</radialGradient>
	<polygon style="fill-rule:evenodd;clip-rule:evenodd;fill:url(#SVGID_12_);" points="5.763,18.712 3.813,18.525 3.813,15.45 
		5.763,15.675 5.763,13.313 8.351,13.538 8.351,15.9 10.3,16.125 10.3,19.163 8.351,18.976 8.351,21.338 5.763,21.112 	"/>
</g>
</svg>
