<?xml version="1.0" encoding="iso-8859-1"?>
<!-- Generator: Adobe Illustrator 15.1.0, SVG Export Plug-In . SVG Version: 6.00 Build 0)  -->
<!DOCTYPE svg PUBLIC "-//W3C//DTD SVG 1.1//EN" "http://www.w3.org/Graphics/SVG/1.1/DTD/svg11.dtd">
<svg version="1.1" id="flash0.ai" xmlns="http://www.w3.org/2000/svg" xmlns:xlink="http://www.w3.org/1999/xlink" x="0px" y="0px"
	 width="37px" height="37px" viewBox="0 0 37 37" style="enable-background:new 0 0 37 37;" xml:space="preserve">
<g>
	
		<linearGradient id="SVGID_1_" gradientUnits="userSpaceOnUse" x1="425.8535" y1="-896.6948" x2="470.7535" y2="-896.6948" gradientTransform="matrix(1.670379e-005 0.75 -0.75 -7.499999e-004 -653.5495 -318.3002)">
		<stop  offset="0" style="stop-color:#7B4E10"/>
		<stop  offset="0.7961" style="stop-color:#67410C"/>
		<stop  offset="1" style="stop-color:#5B3A0A"/>
	</linearGradient>
	<path style="fill-rule:evenodd;clip-rule:evenodd;fill:url(#SVGID_1_);" d="M37.013,10.2l-0.075,17.662
		c-0.05,3.301-1.2,5.7-3.45,7.2c-1.999,1.351-4.949,2-8.85,1.95l-15.113-5.85c-1.675-0.501-2.8-1.251-3.375-2.25
		c-0.6-1.075-0.899-2.976-0.899-5.7L1.013,5.888c-0.35-2.149,0.649-3.688,3-4.613c1.7-0.674,4.325-1.062,7.875-1.163l17.85,1.013
		c2.8,0.4,4.763,1.437,5.888,3.112C36.551,5.613,37.013,7.6,37.013,10.2z"/>
	
		<linearGradient id="SVGID_2_" gradientUnits="userSpaceOnUse" x1="876.3496" y1="426.9141" x2="916.0186" y2="426.9141" gradientTransform="matrix(0.75 0 0 0.75 -653.5498 -318.2998)">
		<stop  offset="0" style="stop-color:#BD761B"/>
		<stop  offset="1" style="stop-color:#965F15"/>
	</linearGradient>
	<path style="fill-rule:evenodd;clip-rule:evenodd;fill:url(#SVGID_2_);" d="M29.737,1.125c0.976,0.125,1.913,0.363,2.813,0.712
		c0.525,0.25,0.825,0.513,0.9,0.788c0.075,0.275-0.15,0.487-0.675,0.637c-1.275,0.325-2.388,0.45-3.338,0.375
		c-0.825-0.05-1.775-0.288-2.85-0.713C25.463,2.5,21.35,2.125,14.25,1.8c-0.275,0-2.288-0.1-6.038-0.299
		c-2-0.125-3.5-0.163-4.5-0.113c1-0.5,2.3-0.837,3.9-1.012c0.925-0.125,2.351-0.213,4.275-0.263L29.737,1.125z"/>
	<path style="fill-rule:evenodd;clip-rule:evenodd;fill:#B07219;" d="M31.763,11.7l-0.075,17.662
		c-0.05,3.251-0.775,5.425-2.175,6.525c-1.2,0.925-3.2,1.25-6,0.975L4.275,32.663c-1.675-0.501-2.8-1.251-3.375-2.25
		C0.3,29.338,0,27.438,0,24.713L0.038,8.888c0.05-5.45,2.05-7.962,6-7.537l17.587,0.975c2.725,0.274,4.8,1.337,6.226,3.188
		C31.125,7.138,31.763,9.2,31.763,11.7z"/>
	<g>
		<path style="fill-rule:evenodd;clip-rule:evenodd;fill:#9B6212;" d="M21.9,8.513c0.199-2.4,0.324-4.487,0.375-6.262l0.6,0.038
			L22.8,6.675c-0.149,3.875-0.225,6.813-0.225,8.813c0,0.101-0.013,1.713-0.037,4.838c-0.025,1.875-0.013,3.263,0.037,4.162
			c0.05,0.8,0.175,1.775,0.375,2.926c0.25,1.425,0.425,2.638,0.525,3.637c0.175,1.65,0.325,3.601,0.449,5.851l-0.637-0.075
			c-0.325-3.3-0.488-5.475-0.488-6.525c0-1.3-0.225-2.462-0.675-3.487c-0.475-1.025-0.712-1.862-0.712-2.513
			c0-0.175,0.037-0.712,0.112-1.612c0.075-0.899,0.112-3.175,0.112-6.825C21.638,12.988,21.725,10.538,21.9,8.513z"/>
		<path style="fill-rule:evenodd;clip-rule:evenodd;fill:#9B6212;" d="M16.013,13.612c-0.25-0.649-0.513-1.638-0.787-2.962
			c-0.55-2.625-0.9-5.575-1.051-8.85l0.638,0.038l0.075,1.65c0.15,2.25,0.45,4.313,0.9,6.188c0.124-1.875,0.225-4.462,0.299-7.762
			l0.75,0.037v0.037c-0.175,5.351-0.363,8.726-0.563,10.125L16.013,13.612z"/>
		<path style="fill-rule:evenodd;clip-rule:evenodd;fill:#9B6212;" d="M10.875,12.15c-0.125-3.899-0.163-7.163-0.113-9.788v-0.75
			l1.05,0.076l0.674,32.775l-1.049-0.226l-0.226-10.875C11.037,18.188,10.925,14.45,10.875,12.15z"/>
		<path style="fill-rule:evenodd;clip-rule:evenodd;fill:#9B6212;" d="M1.125,7.05l0.112-3.674C1.413,3.1,1.625,2.838,1.875,2.587
			C1.6,7.863,1.462,11.975,1.462,14.925c0,7.875-0.062,13.213-0.188,16.013L0.862,30.3L0.9,26.925
			C0.8,20.851,0.875,14.225,1.125,7.05z"/>
		<path style="fill-rule:evenodd;clip-rule:evenodd;fill:#9B6212;" d="M6.188,3.862V1.388h0.637l0.037,2.85
			c0,5.8,0.175,15.501,0.525,29.101l-0.75-0.15l-0.113-4.575C6.3,16.738,6.188,8.488,6.188,3.862z"/>
		<path style="fill-rule:evenodd;clip-rule:evenodd;fill:#9B6212;" d="M26.7,10.05c-0.399-2.549-0.612-4.949-0.638-7.199L26.7,3.112
			c0.075,2.726,0.45,6.476,1.125,11.25c0.375,2.525,0.7,5.625,0.975,9.301c0.325,4.35,0.501,8.462,0.525,12.337
			c-0.399,0.25-0.787,0.45-1.162,0.601l-0.113-8.363c-0.05-4.225-0.2-7.587-0.449-10.087C27.226,15.375,26.925,12.675,26.7,10.05z"
			/>
		<path style="fill-rule:evenodd;clip-rule:evenodd;fill:#9B6212;" d="M2.288,3.862l0.037-1.688l0.3-0.188
			c0.075,2.025,0.112,4.025,0.112,6c0,11.876-0.074,19.438-0.225,22.688l-0.075,1.238l-0.451-0.301l0.076-3.563
			C2.063,15.675,2.138,7.612,2.288,3.862z"/>
		<path style="fill-rule:evenodd;clip-rule:evenodd;fill:#9B6212;" d="M4.575,1.351C4.7,1.325,4.913,1.313,5.212,1.313
			c0.1,1.15,0.15,1.937,0.15,2.362c0.05,0.975,0.05,4.426,0,10.35c-0.024,6.076-0.024,9.813,0,11.212
			c0.025,0.325,0.063,2.888,0.113,7.688l-0.451-0.112c0.05-3.699,0.05-7.037,0-10.013C4.875,12.375,4.763,6.188,4.688,4.237
			L4.575,1.351z"/>
		<path style="fill-rule:evenodd;clip-rule:evenodd;fill:#9B6212;" d="M30.713,14.55c0.025-0.325,0.088-1.149,0.188-2.475
			c0.025-0.35,0.037-1.925,0.037-4.725c0.551,1.275,0.825,2.725,0.825,4.35l-0.037,12.862c-0.45-2.875-0.726-4.725-0.825-5.55
			C30.7,17.313,30.638,15.825,30.713,14.55z"/>
		<path style="fill-rule:evenodd;clip-rule:evenodd;fill:#9B6212;" d="M7.65,1.462L8.325,1.5C8.4,4.975,8.563,10.325,8.813,17.55
			c0.075,3.05,0.349,8.476,0.825,16.275l-0.675-0.15L8.7,27.487C8.051,13.837,7.7,5.163,7.65,1.462z"/>
		<polygon style="fill-rule:evenodd;clip-rule:evenodd;fill:#9B6212;" points="3.3,1.65 3.938,1.462 4.125,32.588 3.413,32.362 		
			"/>
		<path style="fill-rule:evenodd;clip-rule:evenodd;fill:#9B6212;" d="M29.7,14.888C29.375,12.112,29.213,9,29.213,5.55V4.763
			C29.588,5.138,29.925,5.55,30.226,6v5.549c0,1.65,0.1,4.513,0.3,8.588c0.199,4.101,0.3,6.55,0.3,7.35c0,1.275,0.15,3.075,0.45,5.4
			c-0.176,0.7-0.413,1.288-0.713,1.763c-0.25-1.525-0.4-2.6-0.45-3.226c-0.024-0.874-0.024-3.188,0-6.938
			C30.162,20.688,30.025,17.488,29.7,14.888z"/>
		<path style="fill-rule:evenodd;clip-rule:evenodd;fill:#9B6212;" d="M14.925,26.513c0.125,1.851,0.188,3.112,0.188,3.787
			c0,1.125-0.037,2.7-0.112,4.726L14.025,34.8l-0.075-3.563c0-1.1,0.15-2.05,0.45-2.85c0.15-0.399,0-2.138-0.45-5.213
			c-0.525-3.85-0.875-7.037-1.05-9.563c-0.125-2.125-0.188-5.125-0.188-9V1.726l0.525,0.037c-0.1,5.075-0.05,8.4,0.15,9.975
			c0.05,0.351,0.3,1.951,0.75,4.801c0.3,1.825,0.476,3.475,0.525,4.949C14.713,22.738,14.801,24.413,14.925,26.513z"/>
		<path style="fill-rule:evenodd;clip-rule:evenodd;fill:#9B6212;" d="M24.525,2.438l0.563,0.149V7.05c0,1.675,0.25,4.125,0.75,7.35
			c0.5,3.2,0.75,5.875,0.75,8.025c0,3.676-0.063,8.513-0.188,14.513l-0.713,0.038c0.075-5.8,0.1-9.463,0.075-10.988
			c-0.05-2.8-0.087-4.287-0.112-4.462c-0.15-0.7-0.3-2.088-0.45-4.163c-0.3-3.7-0.476-6.225-0.525-7.574
			C24.575,7.863,24.525,5.412,24.525,2.438z"/>
		<path style="fill-rule:evenodd;clip-rule:evenodd;fill:#9B6212;" d="M17.4,7.8l0.375-5.813l0.6,0.038
			C17.95,9.275,17.438,15.2,16.837,19.8c-0.275,2.25-0.387,3.987-0.337,5.213c0.025,0.75,0.1,2.013,0.225,3.787
			c0.024,1.001,0.462,3.288,1.313,6.863l-0.975-0.188c-0.575-2.625-0.976-4.626-1.201-6c-0.299-1.976-0.437-3.763-0.412-5.363
			c0.025-1.8,0.3-4.05,0.825-6.75C16.825,14.338,17.2,11.15,17.4,7.8z"/>
		<path style="fill-rule:evenodd;clip-rule:evenodd;fill:#9B6212;" d="M19.275,15.3c0.275-1.249,0.412-4.062,0.412-8.438
			l0.075-4.762l1.05,0.074c-0.05,2.575-0.075,5.763-0.075,9.563c0,0.75,0,1.925,0,3.525c0,1.35-0.074,2.3-0.225,2.85
			c-0.2,0.75-0.425,1.788-0.675,3.113c-0.25,1.475-0.375,2.562-0.375,3.262c0,0.501-0.025,1.263-0.075,2.288
			c0,0.825,0.138,1.313,0.412,1.462c0.825,0.45,1.376,0.888,1.65,1.313c0.75,1.226,1.125,3.351,1.125,6.375v0.75l-0.713-0.149
			c-0.024-0.926-0.138-1.938-0.337-3.038c-0.275-1.8-0.575-2.874-0.9-3.225c-0.375-0.101-0.688-0.274-0.938-0.525
			c-0.45-0.05-0.762-0.138-0.938-0.262c-0.275-0.226-0.412-1.263-0.412-3.113c0-1.05-0.088-2.187-0.263-3.412
			c-0.101-0.625-0.013-1.862,0.263-3.713C18.788,17.362,19.1,16.05,19.275,15.3z"/>
	</g>
	
		<linearGradient id="SVGID_3_" gradientUnits="userSpaceOnUse" x1="817.2266" y1="-540.248" x2="868.8704" y2="-540.248" gradientTransform="matrix(0.3812 0.6459 -0.6459 0.3812 -653.5494 -318.2998)">
		<stop  offset="0" style="stop-color:#110C0E;stop-opacity:0"/>
		<stop  offset="1" style="stop-color:#110C0E;stop-opacity:0.3686"/>
	</linearGradient>
	<path style="fill-rule:evenodd;clip-rule:evenodd;fill:url(#SVGID_3_);" d="M31.763,11.7l-0.075,17.662
		c-0.05,3.251-0.775,5.425-2.175,6.525c-1.2,0.925-3.2,1.25-6,0.975L4.275,32.663c-1.675-0.501-2.8-1.251-3.375-2.25
		C0.3,29.338,0,27.438,0,24.713L0.038,8.888c0.05-5.45,2.05-7.962,6-7.537l17.587,0.975c2.725,0.274,4.8,1.337,6.226,3.188
		C31.125,7.138,31.763,9.2,31.763,11.7z"/>
	<path style="fill-rule:evenodd;clip-rule:evenodd;fill:#AC711C;" d="M31.688,29.362c-0.05,3.251-0.775,5.425-2.175,6.525
		c-1.2,0.925-3.2,1.25-6,0.975l-12.375-2.699c1.925,0.3,5.5,0.938,10.725,1.912c5.025,0.851,7.976-0.713,8.851-4.688
		c0.4-1.8,0.612-4.95,0.638-9.45c0-4.95,0.138-8.362,0.412-10.237L31.688,29.362z"/>
	<path style="fill-rule:evenodd;clip-rule:evenodd;fill:#D48F2A;" d="M0.413,7.987c-0.184,1.331-0.309,3.281-0.375,5.85v-4.95
		c0.05-5.45,2.05-7.962,6-7.537l6.244,0.337c-0.391-0.012-0.759-0.026-1.107-0.038c-3.8-0.1-6.399,0.263-7.799,1.087
		C1.775,3.688,0.788,5.438,0.413,7.987z"/>
	<path style="fill-rule:evenodd;clip-rule:evenodd;fill:#D48F2A;" d="M10.05,0.3C7.825,0.475,6.075,0.838,4.8,1.388
		c-1.275,0.55-1.925,0.825-1.949,0.825c-0.125,0.076-0.325,0.313-0.6,0.712L1.313,3.226l0.825-0.938
		c0.75-0.726,1.7-1.288,2.85-1.688c1.201-0.425,2.9-0.626,5.1-0.6c1.125,0.025,2.113,0.087,2.962,0.188
		C12.176,0.162,11.175,0.2,10.05,0.3z"/>
	<path style="fill-rule:evenodd;clip-rule:evenodd;fill:#B5781D;" d="M29.625,11.737l-0.037,12.375
		c-0.051,2.15-0.688,3.588-1.913,4.313c-1.024,0.626-2.774,0.851-5.25,0.676L5.625,26.588c-1.45-0.325-2.425-0.825-2.925-1.5
		c-0.55-0.725-0.825-1.975-0.825-3.75L1.913,9.9c0.05-3.625,1.799-5.288,5.25-4.987L22.538,5.55c2.374,0.2,4.187,0.9,5.438,2.1
		C29.075,8.725,29.625,10.087,29.625,11.737z"/>
	
		<linearGradient id="SVGID_4_" gradientUnits="userSpaceOnUse" x1="-458.0923" y1="892.042" x2="-431.2923" y2="892.042" gradientTransform="matrix(2.798508e-005 -0.75 0.75 -7.499999e-004 -653.55 -318.2997)">
		<stop  offset="0" style="stop-color:#774A0F"/>
		<stop  offset="1" style="stop-color:#492E08"/>
	</linearGradient>
	<path style="fill-rule:evenodd;clip-rule:evenodd;fill:url(#SVGID_4_);" d="M29.25,11.476l-0.037,12.188
		c-0.051,2.124-0.688,3.55-1.913,4.274c-1.024,0.601-2.749,0.813-5.175,0.638L5.4,26.101c-1.45-0.325-2.425-0.813-2.924-1.463
		c-0.525-0.726-0.788-1.962-0.788-3.713L1.726,9.638c0.05-3.575,1.787-5.213,5.212-4.912L22.2,5.362
		c2.375,0.175,4.175,0.863,5.4,2.063C28.7,8.476,29.25,9.825,29.25,11.476z"/>
	<path style="fill-rule:evenodd;clip-rule:evenodd;fill:#956115;" d="M22.2,5.625c2.375,0.2,4.175,0.887,5.4,2.063
		c1.1,1.075,1.649,2.425,1.649,4.049l-0.037,12.188c-0.025,1.476-0.338,2.601-0.938,3.375c-0.95,0.375-2.45,0.501-4.5,0.375
		L7.05,25.2c-1.45-0.325-2.425-0.813-2.924-1.463c-0.525-0.725-0.788-1.962-0.788-3.712L3.375,8.737c0-1.45,0.312-2.612,0.938-3.487
		C5.088,5,5.962,4.913,6.938,4.987L22.2,5.625z"/>
	<path style="fill-rule:evenodd;clip-rule:evenodd;fill:#B07219;" d="M22.2,5.362c2.375,0.175,4.175,0.863,5.4,2.063
		c1.1,1.051,1.649,2.4,1.649,4.051l-0.037,12.188c-0.025,1.475-0.338,2.6-0.938,3.375c-1.05,0.375-2.55,0.487-4.5,0.337L7.05,24.9
		c-1.45-0.3-2.425-0.775-2.924-1.425c-0.525-0.726-0.788-1.963-0.788-3.713L3.375,8.438c0-1.45,0.312-2.6,0.938-3.451
		c0.775-0.274,1.649-0.362,2.625-0.262L22.2,5.362z"/>
	<path style="fill-rule:evenodd;clip-rule:evenodd;fill:#FCF5E4;" d="M22.2,5.362c2.375,0.175,4.175,0.863,5.4,2.063
		c1.1,1.051,1.649,2.4,1.649,4.051l-0.037,12.188c-0.025,1.475-0.338,2.6-0.938,3.375c-1.05,0.375-2.55,0.487-4.5,0.337L7.05,24.9
		c-1.45-0.3-2.425-0.775-2.924-1.425c-0.525-0.726-0.788-1.963-0.788-3.713L3.375,8.438c0-1.45,0.312-2.6,0.938-3.451
		c0.775-0.274,1.649-0.362,2.625-0.262L22.2,5.362z"/>
	
		<radialGradient id="SVGID_5_" cx="921.415" cy="378.0215" r="25.958" gradientTransform="matrix(0.748 0.0552 0.0495 -0.6714 -693.1395 218.2485)" gradientUnits="userSpaceOnUse">
		<stop  offset="0" style="stop-color:#110C0E;stop-opacity:0"/>
		<stop  offset="0.9137" style="stop-color:#110C0E;stop-opacity:0.2784"/>
		<stop  offset="1" style="stop-color:#110C0E;stop-opacity:0.349"/>
	</radialGradient>
	<path style="fill-rule:evenodd;clip-rule:evenodd;fill:url(#SVGID_5_);" d="M22.2,5.362c2.375,0.175,4.175,0.863,5.4,2.063
		c1.1,1.051,1.649,2.4,1.649,4.051l-0.037,12.188c-0.025,1.475-0.338,2.6-0.938,3.375c-1.05,0.375-2.55,0.487-4.5,0.337L7.05,24.9
		c-1.45-0.3-2.425-0.775-2.924-1.425c-0.525-0.726-0.788-1.963-0.788-3.713L3.375,8.438c0-1.45,0.312-2.6,0.938-3.451
		c0.775-0.274,1.649-0.362,2.625-0.262L22.2,5.362z"/>
	
		<linearGradient id="SVGID_6_" gradientUnits="userSpaceOnUse" x1="-359.0103" y1="939.0957" x2="-350.4793" y2="939.0957" gradientTransform="matrix(0.0857 -0.7451 0.7451 0.0857 -653.55 -318.2996)">
		<stop  offset="0" style="stop-color:#000000;stop-opacity:0.2392"/>
		<stop  offset="1" style="stop-color:#000000;stop-opacity:0"/>
	</linearGradient>
	<path style="fill-rule:evenodd;clip-rule:evenodd;fill:url(#SVGID_6_);" d="M29.213,19.8v3.863c-0.025,1.475-0.338,2.6-0.938,3.375
		c-1.05,0.375-2.55,0.487-4.5,0.337L7.05,24.9c-1.45-0.3-2.425-0.775-2.924-1.425c-0.525-0.7-0.788-1.925-0.788-3.676H29.213z"/>
	<path style="fill-rule:evenodd;clip-rule:evenodd;fill:#503411;" d="M6.75,29.438c0.125,0.801,0.025,1.513-0.3,2.138
		c-0.3,0.625-0.725,0.975-1.275,1.05C4.6,32.7,4.087,32.488,3.638,31.987c-0.476-0.499-0.775-1.149-0.9-1.949
		C2.613,29.263,2.7,28.563,3,27.938c0.325-0.625,0.762-0.975,1.313-1.05c0.55-0.101,1.075,0.101,1.575,0.6
		C6.363,27.988,6.65,28.638,6.75,29.438z"/>
	
		<radialGradient id="SVGID_7_" cx="-865.3369" cy="-489.9619" r="5.7152" gradientTransform="matrix(-0.7497 0.0229 0.0164 0.538 -634.2682 312.6183)" gradientUnits="userSpaceOnUse">
		<stop  offset="0.1961" style="stop-color:#ECD723"/>
		<stop  offset="0.6549" style="stop-color:#A38012"/>
		<stop  offset="0.8157" style="stop-color:#C4A119"/>
		<stop  offset="1" style="stop-color:#B8991C"/>
	</radialGradient>
	<path style="fill-rule:evenodd;clip-rule:evenodd;fill:url(#SVGID_7_);" d="M6.226,29.55c0,0.726-0.2,1.351-0.6,1.875
		c-0.375,0.501-0.838,0.75-1.388,0.75c-0.6,0-1.175-0.262-1.725-0.787c-0.575-0.55-0.863-1.175-0.863-1.875s0.288-1.325,0.863-1.875
		c0.55-0.5,1.125-0.75,1.725-0.75c0.55,0,1.013,0.263,1.388,0.787C6.025,28.2,6.226,28.825,6.226,29.55z"/>
	<path style="fill-rule:evenodd;clip-rule:evenodd;fill:#FAF3B1;" d="M5.025,29.55c0,0.601-0.149,1.112-0.45,1.538
		c-0.3,0.4-0.663,0.6-1.088,0.6S2.7,31.488,2.4,31.088c-0.299-0.426-0.45-0.938-0.45-1.538c0-0.575,0.15-1.075,0.45-1.5
		c0.3-0.399,0.663-0.6,1.087-0.6s0.788,0.2,1.088,0.6C4.875,28.475,5.025,28.975,5.025,29.55z"/>
	
		<linearGradient id="SVGID_8_" gradientUnits="userSpaceOnUse" x1="698.6846" y1="-700.2598" x2="703.1841" y2="-700.2598" gradientTransform="matrix(0.2209 0.7167 -0.7167 0.2209 -653.5499 -318.2998)">
		<stop  offset="0" style="stop-color:#E9D32A"/>
		<stop  offset="1" style="stop-color:#B79316"/>
	</linearGradient>
	<path style="fill-rule:evenodd;clip-rule:evenodd;fill:url(#SVGID_8_);" d="M4.726,29.513c0,0.575-0.15,1.075-0.451,1.5
		c-0.299,0.425-0.662,0.638-1.087,0.638c-0.425,0-0.788-0.213-1.087-0.638c-0.301-0.425-0.451-0.925-0.451-1.5s0.15-1.075,0.451-1.5
		c0.299-0.399,0.662-0.6,1.087-0.6c0.425,0,0.788,0.2,1.087,0.6C4.575,28.438,4.726,28.938,4.726,29.513z"/>
	<path style="fill-rule:evenodd;clip-rule:evenodd;fill:#503411;" d="M27.15,32.55c0.125,0.876,0.012,1.65-0.338,2.325
		s-0.85,1.063-1.5,1.163c-0.625,0.1-1.225-0.126-1.8-0.676c-0.55-0.55-0.888-1.263-1.013-2.137c-0.149-0.876-0.05-1.65,0.3-2.325
		c0.375-0.675,0.888-1.063,1.538-1.163c0.65-0.1,1.25,0.126,1.8,0.676C26.688,30.988,27.025,31.7,27.15,32.55z"/>
	
		<radialGradient id="SVGID_9_" cx="-891.5327" cy="-494.7207" r="6.5905" gradientTransform="matrix(-0.7496 0.0239 0.0163 0.5107 -633.6646 305.2065)" gradientUnits="userSpaceOnUse">
		<stop  offset="0.1961" style="stop-color:#ECD723"/>
		<stop  offset="0.6549" style="stop-color:#A38012"/>
		<stop  offset="0.8157" style="stop-color:#C4A119"/>
		<stop  offset="1" style="stop-color:#B8991C"/>
	</radialGradient>
	<path style="fill-rule:evenodd;clip-rule:evenodd;fill:url(#SVGID_9_);" d="M26.55,32.663c0,0.8-0.225,1.487-0.675,2.063
		c-0.45,0.55-1,0.824-1.649,0.824c-0.676,0-1.325-0.287-1.95-0.862c-0.675-0.6-1.013-1.287-1.013-2.063
		c0-0.75,0.338-1.425,1.013-2.024c0.625-0.575,1.274-0.863,1.95-0.863c0.649,0,1.199,0.288,1.649,0.863S26.55,31.863,26.55,32.663z"
		/>
	<path style="fill-rule:evenodd;clip-rule:evenodd;fill:#FAF3B1;" d="M25.163,32.7c0,0.649-0.175,1.2-0.525,1.65
		c-0.351,0.449-0.774,0.675-1.275,0.675c-0.475,0-0.888-0.226-1.237-0.675c-0.35-0.45-0.524-1.001-0.524-1.65s0.175-1.2,0.524-1.65
		c0.35-0.449,0.763-0.675,1.237-0.675c0.501,0,0.925,0.226,1.275,0.675C24.988,31.5,25.163,32.051,25.163,32.7z"/>
	
		<linearGradient id="SVGID_10_" gradientUnits="userSpaceOnUse" x1="709.3828" y1="-725.1553" x2="714.3253" y2="-725.1553" gradientTransform="matrix(0.22 0.717 -0.717 0.22 -653.5496 -318.2994)">
		<stop  offset="0" style="stop-color:#E9D32A"/>
		<stop  offset="1" style="stop-color:#B79316"/>
	</linearGradient>
	<path style="fill-rule:evenodd;clip-rule:evenodd;fill:url(#SVGID_10_);" d="M24.825,32.625c0,0.625-0.175,1.176-0.525,1.65
		c-0.35,0.45-0.774,0.675-1.274,0.675c-0.475,0-0.888-0.225-1.237-0.675c-0.351-0.45-0.525-1-0.525-1.65s0.175-1.2,0.525-1.649
		c0.35-0.45,0.763-0.676,1.237-0.676c0.5,0,0.925,0.226,1.274,0.676C24.65,31.45,24.825,32,24.825,32.625z"/>
	<g>
		
			<radialGradient id="SVGID_11_" cx="835.0742" cy="-534.9849" r="28.7272" gradientTransform="matrix(0.3916 0.6396 0.6396 -0.3916 30.8439 -737.317)" gradientUnits="userSpaceOnUse">
			<stop  offset="0" style="stop-color:#6EA42E"/>
			<stop  offset="0.3137" style="stop-color:#6CA12D"/>
			<stop  offset="0.5686" style="stop-color:#66972A"/>
			<stop  offset="0.8039" style="stop-color:#5A8626"/>
			<stop  offset="1" style="stop-color:#4D7220"/>
		</radialGradient>
		<path style="fill-rule:evenodd;clip-rule:evenodd;fill:url(#SVGID_11_);" d="M24.638,15.75v0.899l-0.975-0.112v-0.9L24.638,15.75z
			 M23.513,15.638v0.9l-0.975-0.113v-0.9L23.513,15.638z M22.388,15.487v0.938l-0.975-0.112v-0.9L22.388,15.487z M28.013,18.075
			l-0.975-0.113v-0.938l0.975,0.113V18.075z M26.888,16.875l-0.975-0.113v-0.9l0.975,0.113V16.875z M26.888,17.962l-0.975-0.112
			v-0.938l0.975,0.112V17.962z M27.038,19.163l0.975,0.112v0.899l-0.975-0.074V19.163z M26.888,20.063l-0.975-0.075V19.05
			l0.975,0.113V20.063z M28.013,19.125l-0.975-0.112v-0.9l0.975,0.113V19.125z M26.888,19.013L25.913,18.9V18l0.975,0.075V19.013z
			 M24.788,16.65V15.75l0.975,0.112v0.9L24.788,16.65z M23.513,17.737v0.938l-0.975-0.112v-0.9L23.513,17.737z M22.538,16.575
			l0.975,0.113v0.899l-0.975-0.075V16.575z M22.388,17.476L21.413,17.4v-0.938l0.975,0.113V17.476z M23.513,19.875v0.9L22.538,20.7
			v-0.938L23.513,19.875z M22.538,18.712l0.975,0.113v0.9l-0.975-0.113V18.712z M22.388,19.612L21.413,19.5v-0.899l0.975,0.112
			V19.612z M25.763,20.101v0.938l-0.975-0.113v-0.899L25.763,20.101z M24.638,19.987v0.938l-0.975-0.112v-0.938L24.638,19.987z
			 M22.388,18.563l-0.975-0.113v-0.9l0.975,0.076V18.563z M25.913,21.188l0.975,0.112v0.9l-0.975-0.112V21.188z M23.513,22.013v0.9
			l-0.975-0.075V21.9L23.513,22.013z M22.538,21.75v-0.899l0.975,0.074v0.938L22.538,21.75z M22.388,21.75l-0.975-0.112v-0.9
			l0.975,0.075V21.75z M22.388,23.888l-0.975-0.112v-0.9l0.975,0.075V23.888z M22.538,22.987l0.975,0.075V24l-0.975-0.112V22.987z
			 M22.538,24.038l0.975,0.112v0.899l-0.975-0.112V24.038z M22.388,24.938l-0.975-0.112v-0.9l0.975,0.113V24.938z M23.663,24.15
			l0.975,0.112v0.9l-0.975-0.113V24.15z M25.763,24.375v0.9L24.788,25.2v-0.938L25.763,24.375z M25.913,23.325l0.975,0.075v0.938
			l-0.975-0.112V23.325z M25.913,22.237l0.975,0.113v0.899l-0.975-0.075V22.237z M22.388,22.8l-0.975-0.074v-0.938l0.975,0.112V22.8
			z M28.013,22.313L27.038,22.2v-0.9l0.975,0.113V22.313z M27.038,23.438l0.975,0.075v0.938l-0.975-0.112V23.438z M27.038,22.351
			l0.975,0.112v0.899l-0.975-0.074V22.351z M26.888,24.487v0.9l-0.975-0.075v-0.938L26.888,24.487z M25.913,20.138l0.975,0.075
			v0.938l-0.975-0.112V20.138z M22.388,20.663l-0.975-0.075V19.65l0.975,0.112V20.663z"/>
	</g>
	<g>
		<path style="fill-rule:evenodd;clip-rule:evenodd;fill:#3E423C;" d="M18.675,9.9L17.288,9.75V8.138l1.387,0.15V9.9z M17.063,9.976
			v1.612L15.675,11.4V9.788L17.063,9.976z M15.675,9.525V7.95l1.388,0.15v1.612L15.675,9.525z M17.288,11.851l1.387,0.188v1.612
			l-1.387-0.188V11.851z M17.063,13.425l-1.388-0.15v-1.612l1.388,0.188V13.425z M15.45,13.237l-1.387-0.15v-1.612l1.387,0.15
			V13.237z M15.675,13.538l1.388,0.15V15.3l-1.388-0.15V13.538z M17.288,13.726l1.387,0.15v1.612l-1.387-0.15V13.726z
			 M17.063,15.563v1.612l-1.388-0.188v-1.574L17.063,15.563z M15.45,15.112l-1.387-0.188v-1.574l1.387,0.15V15.112z M18.675,15.75
			l0.038,1.612l-1.425-0.188v-1.574L18.675,15.75z M17.288,10.013l1.387,0.15v1.612l-1.387-0.188V10.013z M15.45,11.362l-1.387-0.15
			V9.601l1.387,0.188V11.362z M20.325,19.688V21.3l-1.388-0.188V19.5L20.325,19.688z M18.713,19.237l-1.425-0.188v-1.612
			l1.425,0.188V19.237z M17.063,19.275l0.038,1.612l-1.426-0.15v-1.612L17.063,19.275z M15.675,17.25l1.388,0.188v1.575l-1.388-0.15
			V17.25z M17.101,22.763l-1.388-0.188L15.675,21l1.426,0.15V22.763z M15.712,22.838l1.388,0.188v1.612l-1.388-0.188V22.838z
			 M17.325,23.063l1.388,0.15v1.612l-1.388-0.188V23.063z M17.325,21.188l1.388,0.15v1.612l-1.388-0.15V21.188z M17.288,19.313
			l1.425,0.188v1.575l-1.388-0.15L17.288,19.313z M15.45,20.7l-1.387-0.15v-1.612l1.387,0.15V20.7z M13.837,15.188v1.575
			l-1.387-0.15V15L13.837,15.188z M12.45,13.125l1.387,0.188v1.612l-1.387-0.188V13.125z M12.45,18.75l1.387,0.149v1.613
			l-1.387-0.188V18.75z M12.226,20.325l-1.388-0.188v-1.613l1.388,0.188V20.325z M13.837,17.025v1.613l-1.387-0.15v-1.612
			L13.837,17.025z M12.226,18.45l-1.388-0.188v-1.575l1.388,0.149V18.45z"/>
	</g>
	
		<radialGradient id="SVGID_12_" cx="389.1787" cy="-878.2813" r="22.1603" gradientTransform="matrix(0.0228 0.7497 0.6232 0.0338 553.8679 -252.7239)" gradientUnits="userSpaceOnUse">
		<stop  offset="0" style="stop-color:#DDA11C"/>
		<stop  offset="0.2353" style="stop-color:#DA9F1B"/>
		<stop  offset="0.4275" style="stop-color:#D1981A"/>
		<stop  offset="0.6039" style="stop-color:#C18D17"/>
		<stop  offset="0.7686" style="stop-color:#AB7D13"/>
		<stop  offset="0.9255" style="stop-color:#90680E"/>
		<stop  offset="1" style="stop-color:#805D0B"/>
	</radialGradient>
	<polygon style="fill-rule:evenodd;clip-rule:evenodd;fill:url(#SVGID_12_);" points="3.825,15.45 5.775,15.675 5.775,13.313 
		8.325,13.538 8.325,15.9 10.313,16.125 10.313,19.163 8.325,18.976 8.325,21.338 5.775,21.112 5.775,18.712 3.825,18.525 	"/>
</g>
</svg>
