<?xml version="1.0" encoding="iso-8859-1"?>
<!-- Generator: Adobe Illustrator 15.1.0, SVG Export Plug-In . SVG Version: 6.00 Build 0)  -->
<!DOCTYPE svg PUBLIC "-//W3C//DTD SVG 1.1//EN" "http://www.w3.org/Graphics/SVG/1.1/DTD/svg11.dtd">
<svg version="1.1" id="flash0.ai" xmlns="http://www.w3.org/2000/svg" xmlns:xlink="http://www.w3.org/1999/xlink" x="0px" y="0px"
	 width="37px" height="37px" viewBox="0 0 37 37" style="enable-background:new 0 0 37 37;" xml:space="preserve">
<g>
	
		<linearGradient id="SVGID_1_" gradientUnits="userSpaceOnUse" x1="423.5693" y1="-830.9956" x2="468.4693" y2="-830.9956" gradientTransform="matrix(1.670379e-005 0.75 -0.75 -7.499999e-004 -604.2995 -316.5502)">
		<stop  offset="0" style="stop-color:#7B4E10"/>
		<stop  offset="0.7961" style="stop-color:#67410C"/>
		<stop  offset="1" style="stop-color:#5B3A0A"/>
	</linearGradient>
	<path style="fill-rule:evenodd;clip-rule:evenodd;fill:url(#SVGID_1_);" d="M36.987,10.226L36.95,27.851
		c-0.05,3.3-1.2,5.699-3.45,7.199c-2.024,1.351-4.987,2.001-8.888,1.95L9.5,31.15c-1.65-0.5-2.763-1.25-3.337-2.25
		c-0.6-1.075-0.9-2.963-0.9-5.663L0.987,5.875c-0.35-2.15,0.65-3.688,3-4.613c1.725-0.675,4.35-1.05,7.875-1.125L29.75,1.112
		c2.801,0.425,4.763,1.476,5.888,3.15C36.563,5.638,37.013,7.625,36.987,10.226z"/>
	
		<linearGradient id="SVGID_2_" gradientUnits="userSpaceOnUse" x1="810.7012" y1="424.6074" x2="850.3691" y2="424.6074" gradientTransform="matrix(0.75 0 0 0.75 -604.2998 -316.5498)">
		<stop  offset="0" style="stop-color:#BD761B"/>
		<stop  offset="1" style="stop-color:#965F15"/>
	</linearGradient>
	<path style="fill-rule:evenodd;clip-rule:evenodd;fill:url(#SVGID_2_);" d="M3.726,1.375c1-0.5,2.3-0.838,3.9-1.013
		c0.975-0.124,2.387-0.2,4.237-0.225L29.75,1.112c1.05,0.15,1.987,0.4,2.813,0.75c0.525,0.225,0.825,0.476,0.9,0.75
		c0.075,0.275-0.15,0.488-0.675,0.638C31.513,3.575,30.4,3.713,29.45,3.663c-0.851-0.076-1.8-0.313-2.85-0.713
		C25.375,2.475,21.263,2.1,14.263,1.825c-0.7-0.025-2.712-0.138-6.037-0.338C6.2,1.363,4.7,1.325,3.726,1.375z"/>
	<path style="fill-rule:evenodd;clip-rule:evenodd;fill:#B07219;" d="M31.737,11.726L31.7,29.351
		c-0.05,3.249-0.774,5.425-2.175,6.524c-1.2,0.926-3.2,1.263-6,1.013L4.25,32.65c-1.65-0.5-2.763-1.25-3.337-2.25
		c-0.6-1.075-0.9-2.963-0.9-5.663L0.05,8.875c0-5.476,2-7.975,6-7.5l17.588,0.938c2.75,0.299,4.825,1.362,6.225,3.188
		C31.138,7.125,31.763,9.2,31.737,11.726z"/>
	<g>
		<path style="fill-rule:evenodd;clip-rule:evenodd;fill:#9B6212;" d="M21.65,15.851c0-2.85,0.088-5.288,0.263-7.313
			c0.2-2.425,0.325-4.525,0.375-6.301l0.6,0.038c0,1.65-0.037,3.113-0.112,4.388c-0.15,3.874-0.226,6.812-0.226,8.813
			c0,0.1-0.013,1.712-0.037,4.837c-0.024,1.875-0.013,3.263,0.037,4.163c0.05,0.774,0.175,1.749,0.375,2.925
			c0.275,1.425,0.463,2.637,0.563,3.638c0.175,1.675,0.325,3.637,0.45,5.887l-0.412-0.037L23.3,36.813
			c-0.35-3.05-0.524-5.225-0.524-6.524s-0.226-2.463-0.675-3.488c-0.45-1.024-0.676-1.862-0.676-2.512
			c0-0.175,0.038-0.713,0.113-1.613C21.612,21.775,21.65,19.5,21.65,15.851z"/>
		<path style="fill-rule:evenodd;clip-rule:evenodd;fill:#9B6212;" d="M14.188,1.825h0.6l0.112,1.65
			c0.15,2.25,0.451,4.313,0.9,6.188C15.925,7.788,16.025,5.2,16.101,1.9l0.75,0.038v0.038c-0.2,5.374-0.4,8.749-0.6,10.125
			l-0.226,1.5c-0.25-0.65-0.512-1.638-0.788-2.963C14.688,8.013,14.337,5.075,14.188,1.825z"/>
		<path style="fill-rule:evenodd;clip-rule:evenodd;fill:#9B6212;" d="M10.851,12.138c-0.101-3.9-0.125-7.162-0.076-9.787V1.638
			l1.05,0.037l0.637,32.775l-1.012-0.225l-0.225-10.875C11.05,18.175,10.925,14.438,10.851,12.138z"/>
		<path style="fill-rule:evenodd;clip-rule:evenodd;fill:#9B6212;" d="M1.138,7.038L1.25,3.362c0.25-0.35,0.45-0.6,0.6-0.75
			c-0.251,6-0.375,10.101-0.375,12.301c0,7.899-0.063,13.237-0.188,16.012l-0.413-0.637l0.038-3.375
			C0.813,20.838,0.888,14.213,1.138,7.038z"/>
		<path style="fill-rule:evenodd;clip-rule:evenodd;fill:#9B6212;" d="M6.163,3.851V1.375l0.674,0.038l0.038,2.813
			c0,7.75,0.175,17.45,0.524,29.1l-0.788-0.15L6.5,28.601C6.275,16.725,6.163,8.475,6.163,3.851z"/>
		<path style="fill-rule:evenodd;clip-rule:evenodd;fill:#9B6212;" d="M26.675,10.038c-0.124-1.45-0.274-2.926-0.449-4.426
			c-0.075-0.575-0.126-1.487-0.15-2.737l0.638,0.225c0.1,3.1,0.475,6.85,1.125,11.25c0.375,2.524,0.699,5.625,0.975,9.3
			c0.325,4.35,0.5,8.463,0.525,12.337c-0.35,0.251-0.738,0.45-1.163,0.601l-0.112-8.362c-0.05-4.251-0.199-7.613-0.45-10.088
			C27.237,15.362,26.926,12.663,26.675,10.038z"/>
		<path style="fill-rule:evenodd;clip-rule:evenodd;fill:#9B6212;" d="M2.263,3.851l0.075-1.688l0.3-0.188l0.113,6
			c0,11.874-0.088,19.437-0.263,22.688L2.45,31.9L2,31.601l0.038-3.563C2.038,15.663,2.112,7.601,2.263,3.851z"/>
		<path style="fill-rule:evenodd;clip-rule:evenodd;fill:#9B6212;" d="M4.587,1.337L5.188,1.3l0.188,2.363
			c0.05,0.975,0.05,4.424,0,10.35c-0.026,6.075-0.026,9.813,0,11.213l0.112,7.688L5,32.8c0.075-4.5,0.087-7.837,0.038-10.012
			C4.888,12.362,4.775,6.175,4.7,4.226L4.587,1.337z"/>
		<path style="fill-rule:evenodd;clip-rule:evenodd;fill:#9B6212;" d="M30.688,14.538c0.125-1.376,0.188-2.2,0.188-2.475
			c0.025-0.25,0.038-1.825,0.038-4.726c0.6,1.375,0.874,2.838,0.824,4.388L31.7,24.55c-0.476-3.274-0.737-5.124-0.787-5.55
			C30.688,17.275,30.612,15.787,30.688,14.538z"/>
		<path style="fill-rule:evenodd;clip-rule:evenodd;fill:#9B6212;" d="M7.962,10.487C7.787,6.638,7.688,3.625,7.663,1.45L8.3,1.487
			l0.525,16.051c0.05,2.075,0.313,7.5,0.787,16.274L8.938,33.7l-0.226-6.225C8.638,25.475,8.388,19.813,7.962,10.487z"/>
		<polygon style="fill-rule:evenodd;clip-rule:evenodd;fill:#9B6212;" points="3.313,1.638 3.913,1.45 4.101,32.612 3.425,32.351 		
			"/>
		<path style="fill-rule:evenodd;clip-rule:evenodd;fill:#9B6212;" d="M29.713,14.875c-0.325-2.775-0.487-5.888-0.487-9.337V4.75
			l1.012,1.237v5.551c0,1.65,0.101,4.512,0.301,8.587c0.175,4.1,0.262,6.551,0.262,7.351c0,1.075,0.163,2.887,0.488,5.438
			c-0.175,0.649-0.425,1.237-0.75,1.762c-0.251-1.524-0.388-2.6-0.413-3.225c-0.025-0.925-0.025-3.25,0-6.975
			C30.176,20.676,30.037,17.475,29.713,14.875z"/>
		<path style="fill-rule:evenodd;clip-rule:evenodd;fill:#9B6212;" d="M12.726,1.712l0.487,0.038
			c-0.05,5.425,0.012,8.75,0.188,9.975c0.026,0.2,0.275,1.799,0.75,4.799c0.275,1.8,0.438,3.451,0.488,4.951
			c0.05,1.149,0.15,2.825,0.3,5.024c0.125,1.8,0.188,3.063,0.188,3.788c0,1.125-0.038,2.699-0.113,4.725l-0.975-0.225l-0.076-3.563
			c0-1.101,0.15-2.05,0.451-2.851c0.15-0.4,0-2.138-0.451-5.212c-0.524-3.851-0.875-7.038-1.049-9.563
			c-0.125-2.126-0.188-5.126-0.188-9V1.712z"/>
		<path style="fill-rule:evenodd;clip-rule:evenodd;fill:#9B6212;" d="M24.5,2.462l0.601,0.113v4.463c0,1.675,0.249,4.125,0.75,7.35
			c0.475,3.2,0.712,5.875,0.712,8.025c0,0.074-0.05,4.912-0.149,14.512c-0.15,0.025-0.388,0.038-0.713,0.038
			c0.075-5.775,0.101-9.438,0.075-10.987c-0.051-2.8-0.088-4.288-0.112-4.463c-0.15-0.7-0.301-2.087-0.45-4.162
			c-0.3-3.726-0.475-6.251-0.525-7.576C24.588,7.875,24.525,5.438,24.5,2.462z"/>
		<path style="fill-rule:evenodd;clip-rule:evenodd;fill:#9B6212;" d="M17.413,7.788c0.024-0.425,0.15-2.351,0.375-5.775l0.6,0.037
			c-0.45,7.101-0.962,13.013-1.537,17.738C16.55,22.063,16.426,23.8,16.476,25c0.024,0.75,0.1,2.013,0.225,3.788
			c0.075,1.199,0.525,3.499,1.35,6.899l-1.012-0.225c-0.575-2.676-0.963-4.676-1.163-6c-0.3-2-0.438-3.788-0.413-5.362
			c0.026-1.801,0.3-4.051,0.826-6.75C16.838,14.325,17.213,11.138,17.413,7.788z"/>
		<path style="fill-rule:evenodd;clip-rule:evenodd;fill:#9B6212;" d="M19.288,15.288c0.274-1.25,0.412-4.063,0.412-8.438
			l0.075-4.725l1.013,0.038c-0.05,2.575-0.075,5.763-0.075,9.563c0,0.75,0,1.925,0,3.525c0,1.35-0.075,2.3-0.226,2.85
			c-0.2,0.8-0.412,1.837-0.637,3.112c-0.251,1.5-0.375,2.587-0.375,3.263c0,0.499-0.025,1.263-0.075,2.287
			c0,0.825,0.137,1.313,0.412,1.463c0.825,0.449,1.363,0.888,1.612,1.313c0.75,1.225,1.125,3.35,1.125,6.375v0.75l-0.675-0.15
			c-0.1-1.25-0.213-2.263-0.337-3.037c-0.301-1.801-0.612-2.876-0.938-3.226c-0.375-0.1-0.676-0.275-0.9-0.524
			c-0.45-0.05-0.763-0.138-0.938-0.263c-0.3-0.226-0.45-1.263-0.45-3.112c0-1.051-0.088-2.188-0.263-3.413
			c-0.074-0.625,0.013-1.862,0.263-3.712C18.787,17.351,19.113,16.038,19.288,15.288z"/>
	</g>
	
		<linearGradient id="SVGID_3_" gradientUnits="userSpaceOnUse" x1="781.8076" y1="-484.9053" x2="833.4515" y2="-484.9053" gradientTransform="matrix(0.3812 0.6459 -0.6459 0.3812 -604.2994 -316.5498)">
		<stop  offset="0" style="stop-color:#110C0E;stop-opacity:0"/>
		<stop  offset="1" style="stop-color:#110C0E;stop-opacity:0.3686"/>
	</linearGradient>
	<path style="fill-rule:evenodd;clip-rule:evenodd;fill:url(#SVGID_3_);" d="M31.737,11.726L31.7,29.351
		c-0.05,3.249-0.774,5.425-2.175,6.524c-1.2,0.926-3.2,1.263-6,1.013L4.25,32.65c-1.65-0.5-2.763-1.25-3.337-2.25
		c-0.6-1.075-0.9-2.963-0.9-5.663L0.05,8.875c0-5.476,2-7.975,6-7.5l17.588,0.938c2.75,0.299,4.825,1.362,6.225,3.188
		C31.138,7.125,31.763,9.2,31.737,11.726z"/>
	<path style="fill-rule:evenodd;clip-rule:evenodd;fill:#AC711C;" d="M31.7,29.351c-0.05,3.249-0.774,5.425-2.175,6.524
		c-1.2,0.926-3.2,1.263-6,1.013L11.112,34.15c2.375,0.375,5.95,1.013,10.726,1.912c5.024,0.85,7.987-0.712,8.888-4.688
		c0.399-1.775,0.6-4.925,0.6-9.45c0-4.925,0.138-8.324,0.412-10.199L31.7,29.351z"/>
	<path style="fill-rule:evenodd;clip-rule:evenodd;fill:#D48F2A;" d="M12.575,1.712c-0.497-0.015-0.959-0.027-1.387-0.038
		c-3.8-0.1-6.401,0.263-7.8,1.088c-1.625,0.95-2.612,2.7-2.963,5.25c-0.2,1.45-0.337,3.625-0.412,6.525L0.05,8.875
		c0-5.476,2-7.975,6-7.5L12.575,1.712z"/>
	<path style="fill-rule:evenodd;clip-rule:evenodd;fill:#D48F2A;" d="M4.775,1.375c-1.25,0.55-1.887,0.837-1.913,0.862
		C2.738,2.313,2.537,2.55,2.263,2.95L1.325,3.212L2.15,2.275C2.9,1.551,3.837,0.988,4.962,0.587c1.225-0.425,2.938-0.625,5.138-0.6
		c1.1,0.025,2.075,0.088,2.924,0.188c-0.85-0.024-1.837,0.013-2.962,0.113C7.813,0.463,6.05,0.825,4.775,1.375z"/>
	<path style="fill-rule:evenodd;clip-rule:evenodd;fill:#B5781D;" d="M29.638,11.763l-0.037,12.338
		c-0.05,2.149-0.7,3.587-1.95,4.313c-1.025,0.624-2.763,0.85-5.213,0.675L5.601,26.575c-1.45-0.325-2.425-0.825-2.926-1.5
		c-0.525-0.7-0.787-1.95-0.787-3.75L1.925,9.888c0-3.625,1.751-5.287,5.25-4.988L22.55,5.538c2.376,0.2,4.188,0.9,5.438,2.1
		C29.088,8.713,29.638,10.088,29.638,11.763z"/>
	
		<linearGradient id="SVGID_4_" gradientUnits="userSpaceOnUse" x1="-455.6763" y1="826.3926" x2="-428.8763" y2="826.3926" gradientTransform="matrix(2.798508e-005 -0.75 0.75 -7.499999e-004 -604.3 -316.5497)">
		<stop  offset="0" style="stop-color:#774A0F"/>
		<stop  offset="1" style="stop-color:#492E08"/>
	</linearGradient>
	<path style="fill-rule:evenodd;clip-rule:evenodd;fill:url(#SVGID_4_);" d="M29.263,11.462L29.226,23.65
		c-0.05,2.125-0.688,3.55-1.913,4.274c-1.025,0.601-2.762,0.813-5.212,0.638L5.413,26.088c-1.45-0.3-2.425-0.775-2.926-1.425
		C1.962,23.963,1.7,22.725,1.7,20.95L1.737,9.625c0-3.575,1.737-5.212,5.213-4.913l15.263,0.638c2.375,0.2,4.175,0.888,5.399,2.063
		C28.713,8.488,29.263,9.838,29.263,11.462z"/>
	<path style="fill-rule:evenodd;clip-rule:evenodd;fill:#956115;" d="M3.388,8.726c0-1.5,0.313-2.65,0.938-3.451
		C5.1,5,5.976,4.912,6.95,5.013l15.263,0.6c2.375,0.2,4.175,0.888,5.399,2.063c1.101,1.075,1.65,2.438,1.65,4.088L29.226,23.95
		c-0.025,1.425-0.338,2.55-0.938,3.375c-0.976,0.351-2.487,0.462-4.538,0.338L7.025,25.188c-1.45-0.3-2.425-0.787-2.924-1.462
		c-0.525-0.7-0.788-1.938-0.788-3.713L3.388,8.726z"/>
	<path style="fill-rule:evenodd;clip-rule:evenodd;fill:#B07219;" d="M3.388,8.462c0-1.5,0.313-2.663,0.938-3.487
		C5.1,4.725,5.976,4.638,6.95,4.712l15.263,0.638c2.375,0.2,4.175,0.888,5.399,2.063c1.101,1.075,1.65,2.425,1.65,4.049
		L29.226,23.65c-0.025,1.475-0.338,2.6-0.938,3.375c-0.976,0.375-2.487,0.5-4.538,0.375L7.025,24.925
		C5.575,24.6,4.6,24.113,4.101,23.463C3.575,22.738,3.313,21.5,3.313,19.75L3.388,8.462z"/>
	<path style="fill-rule:evenodd;clip-rule:evenodd;fill:#FCF5E4;" d="M3.388,8.462c0-1.5,0.313-2.663,0.938-3.487
		C5.1,4.725,5.976,4.638,6.95,4.712l15.263,0.638c2.375,0.2,4.175,0.888,5.399,2.063c1.101,1.075,1.65,2.425,1.65,4.049
		L29.226,23.65c-0.025,1.475-0.338,2.6-0.938,3.375c-0.976,0.375-2.487,0.5-4.538,0.375L7.025,24.925
		C5.575,24.6,4.6,24.113,4.101,23.463C3.575,22.738,3.313,21.5,3.313,19.75L3.388,8.462z"/>
	
		<radialGradient id="SVGID_5_" cx="855.7744" cy="380.5586" r="25.958" gradientTransform="matrix(0.748 0.0552 0.0495 -0.6714 -644.1553 223.5995)" gradientUnits="userSpaceOnUse">
		<stop  offset="0" style="stop-color:#110C0E;stop-opacity:0"/>
		<stop  offset="0.9137" style="stop-color:#110C0E;stop-opacity:0.2784"/>
		<stop  offset="1" style="stop-color:#110C0E;stop-opacity:0.349"/>
	</radialGradient>
	<path style="fill-rule:evenodd;clip-rule:evenodd;fill:url(#SVGID_5_);" d="M3.388,8.462c0-1.5,0.313-2.663,0.938-3.487
		C5.1,4.725,5.976,4.638,6.95,4.712l15.263,0.638c2.375,0.2,4.175,0.888,5.399,2.063c1.101,1.075,1.65,2.425,1.65,4.049
		L29.226,23.65c-0.025,1.475-0.338,2.6-0.938,3.375c-0.976,0.375-2.487,0.5-4.538,0.375L7.025,24.925
		C5.575,24.6,4.6,24.113,4.101,23.463C3.575,22.738,3.313,21.5,3.313,19.75L3.388,8.462z"/>
	
		<linearGradient id="SVGID_6_" gradientUnits="userSpaceOnUse" x1="-364.2339" y1="873.6104" x2="-355.703" y2="873.6104" gradientTransform="matrix(0.0857 -0.7451 0.7451 0.0857 -604.3 -316.5496)">
		<stop  offset="0" style="stop-color:#000000;stop-opacity:0.2392"/>
		<stop  offset="1" style="stop-color:#000000;stop-opacity:0"/>
	</linearGradient>
	<path style="fill-rule:evenodd;clip-rule:evenodd;fill:url(#SVGID_6_);" d="M3.351,19.825h25.875v3.825
		c-0.025,1.475-0.338,2.6-0.938,3.375c-0.976,0.375-2.487,0.5-4.538,0.375L7.025,24.925c-1.424-0.325-2.387-0.812-2.887-1.462
		C3.612,22.763,3.351,21.55,3.351,19.825z"/>
	<path style="fill-rule:evenodd;clip-rule:evenodd;fill:#503411;" d="M6.763,29.463c0.125,0.8,0.025,1.5-0.3,2.1
		c-0.325,0.625-0.762,0.976-1.313,1.05c-0.55,0.101-1.062-0.1-1.538-0.6c-0.475-0.5-0.774-1.149-0.9-1.95
		c-0.1-0.8,0-1.512,0.3-2.138c0.3-0.6,0.737-0.95,1.313-1.05c0.55-0.075,1.063,0.138,1.537,0.638
		C6.338,28.013,6.638,28.662,6.763,29.463z"/>
	
		<radialGradient id="SVGID_7_" cx="-799.7393" cy="-485.6064" r="5.7152" gradientTransform="matrix(-0.7497 0.0229 0.0164 0.538 -585.1896 308.7599)" gradientUnits="userSpaceOnUse">
		<stop  offset="0.1961" style="stop-color:#ECD723"/>
		<stop  offset="0.6549" style="stop-color:#A38012"/>
		<stop  offset="0.8157" style="stop-color:#C4A119"/>
		<stop  offset="1" style="stop-color:#B8991C"/>
	</radialGradient>
	<path style="fill-rule:evenodd;clip-rule:evenodd;fill:url(#SVGID_7_);" d="M6.237,29.538c0,0.725-0.2,1.35-0.6,1.875
		c-0.375,0.499-0.851,0.75-1.425,0.75S3.075,31.9,2.525,31.375C1.95,30.825,1.663,30.2,1.663,29.5c0-0.675,0.287-1.287,0.862-1.837
		c0.55-0.525,1.113-0.788,1.688-0.788c0.55,0,1.025,0.263,1.425,0.788C6.038,28.188,6.237,28.813,6.237,29.538z"/>
	<path style="fill-rule:evenodd;clip-rule:evenodd;fill:#FAF3B1;" d="M5.038,29.575c0,0.575-0.15,1.075-0.451,1.5
		c-0.299,0.399-0.662,0.6-1.087,0.6c-0.425,0-0.788-0.2-1.087-0.6c-0.301-0.425-0.451-0.925-0.451-1.5s0.15-1.075,0.451-1.5
		c0.299-0.425,0.662-0.638,1.087-0.638c0.425,0,0.788,0.213,1.087,0.638C4.888,28.5,5.038,29,5.038,29.575z"/>
	
		<linearGradient id="SVGID_8_" gradientUnits="userSpaceOnUse" x1="677.1064" y1="-638.2075" x2="681.606" y2="-638.2075" gradientTransform="matrix(0.2209 0.7167 -0.7167 0.2209 -604.2999 -316.5498)">
		<stop  offset="0" style="stop-color:#E9D32A"/>
		<stop  offset="1" style="stop-color:#B79316"/>
	</linearGradient>
	<path style="fill-rule:evenodd;clip-rule:evenodd;fill:url(#SVGID_8_);" d="M4.737,29.5c0,0.601-0.15,1.113-0.449,1.538
		c-0.301,0.399-0.663,0.6-1.088,0.6s-0.787-0.2-1.088-0.6c-0.299-0.425-0.449-0.938-0.449-1.538c0-0.574,0.15-1.074,0.449-1.5
		c0.301-0.4,0.663-0.6,1.088-0.6S3.987,27.6,4.288,28C4.587,28.426,4.737,28.926,4.737,29.5z"/>
	<path style="fill-rule:evenodd;clip-rule:evenodd;fill:#503411;" d="M27.163,32.575c0.124,0.875,0.013,1.65-0.338,2.325
		s-0.851,1.063-1.5,1.162c-0.649,0.075-1.25-0.162-1.8-0.712c-0.551-0.55-0.9-1.263-1.05-2.138c-0.126-0.875-0.013-1.65,0.337-2.325
		c0.375-0.675,0.875-1.063,1.5-1.162c0.65-0.075,1.25,0.162,1.8,0.712C26.662,30.988,27.013,31.7,27.163,32.575z"/>
	
		<radialGradient id="SVGID_9_" cx="-825.9912" cy="-490.2793" r="6.5905" gradientTransform="matrix(-0.7496 0.0239 0.0163 0.5107 -584.5931 301.3589)" gradientUnits="userSpaceOnUse">
		<stop  offset="0.1961" style="stop-color:#ECD723"/>
		<stop  offset="0.6549" style="stop-color:#A38012"/>
		<stop  offset="0.8157" style="stop-color:#C4A119"/>
		<stop  offset="1" style="stop-color:#B8991C"/>
	</radialGradient>
	<path style="fill-rule:evenodd;clip-rule:evenodd;fill:url(#SVGID_9_);" d="M26.525,32.65c0,0.8-0.226,1.487-0.675,2.063
		c-0.425,0.55-0.963,0.825-1.613,0.825c-0.675,0-1.337-0.288-1.987-0.863c-0.675-0.6-1.013-1.274-1.013-2.024
		c0-0.775,0.338-1.463,1.013-2.063c0.65-0.551,1.313-0.825,1.987-0.825c0.65,0,1.188,0.274,1.613,0.825
		C26.3,31.162,26.525,31.85,26.525,32.65z"/>
	<path style="fill-rule:evenodd;clip-rule:evenodd;fill:#FAF3B1;" d="M25.138,32.688c0,0.65-0.175,1.2-0.525,1.65
		c-0.35,0.45-0.763,0.675-1.237,0.675c-0.5,0-0.925-0.225-1.274-0.675c-0.351-0.475-0.525-1.025-0.525-1.65s0.175-1.175,0.525-1.649
		c0.35-0.45,0.774-0.676,1.274-0.676c0.475,0,0.888,0.226,1.237,0.676C24.963,31.487,25.138,32.037,25.138,32.688z"/>
	
		<linearGradient id="SVGID_10_" gradientUnits="userSpaceOnUse" x1="687.876" y1="-663.0283" x2="692.8185" y2="-663.0283" gradientTransform="matrix(0.22 0.717 -0.717 0.22 -604.2996 -316.5494)">
		<stop  offset="0" style="stop-color:#E9D32A"/>
		<stop  offset="1" style="stop-color:#B79316"/>
	</linearGradient>
	<path style="fill-rule:evenodd;clip-rule:evenodd;fill:url(#SVGID_10_);" d="M24.8,32.65c0,0.65-0.175,1.2-0.524,1.649
		c-0.35,0.45-0.763,0.676-1.237,0.676c-0.501,0-0.925-0.226-1.275-0.676c-0.351-0.475-0.525-1.024-0.525-1.649
		c0-0.65,0.175-1.2,0.525-1.65s0.774-0.675,1.275-0.675c0.499,0,0.912,0.225,1.237,0.675C24.625,31.45,24.8,32,24.8,32.65z"/>
	<g>
		
			<radialGradient id="SVGID_11_" cx="798.834" cy="-480.1963" r="28.7272" gradientTransform="matrix(0.3916 0.6396 0.6396 -0.3916 10.0042 -692.6548)" gradientUnits="userSpaceOnUse">
			<stop  offset="0" style="stop-color:#6EA42E"/>
			<stop  offset="0.3137" style="stop-color:#6CA12D"/>
			<stop  offset="0.5686" style="stop-color:#66972A"/>
			<stop  offset="0.8039" style="stop-color:#5A8626"/>
			<stop  offset="1" style="stop-color:#4D7220"/>
		</radialGradient>
		<path style="fill-rule:evenodd;clip-rule:evenodd;fill:url(#SVGID_11_);" d="M21.425,15.4l0.938,0.113v0.9l-0.938-0.076V15.4z
			 M21.425,16.487l0.938,0.076V17.5l-0.938-0.113V16.487z M22.55,16.601l0.938,0.074v0.938L22.55,17.5V16.601z M23.487,16.525
			L22.55,16.45v-0.938l0.938,0.113V16.525z M23.638,15.625l0.975,0.112v0.9l-0.975-0.075V15.625z M24.763,15.737l0.975,0.113v0.9
			l-0.975-0.076V15.737z M25.888,15.851l0.975,0.112v0.9l-0.975-0.074V15.851z M27.987,17.125v0.938l-0.975-0.113v-0.9
			L27.987,17.125z M26.862,17.013v0.938l-0.975-0.113v-0.899L26.862,17.013z M27.987,19.112l-0.975-0.074v-0.938l0.975,0.112V19.112
			z M26.862,19l-0.975-0.075v-0.938l0.975,0.113V19z M26.862,21.138l-0.975-0.112v-0.9l0.975,0.112V21.138z M26.862,22.188
			l-0.975-0.075v-0.938l0.975,0.113V22.188z M26.862,20.088l-0.975-0.112v-0.9l0.975,0.075V20.088z M27.987,21.4V22.3l-0.975-0.074
			v-0.938L27.987,21.4z M27.987,19.263V20.2l-0.975-0.112v-0.9L27.987,19.263z M27.987,23.388l-0.975-0.112v-0.9l0.975,0.075V23.388
			z M27.987,24.438l-0.975-0.075v-0.938l0.975,0.113V24.438z M26.862,23.275l-0.975-0.112v-0.9l0.975,0.075V23.275z M26.862,24.325
			l-0.975-0.075v-0.938l0.975,0.112V24.325z M26.862,25.413L25.888,25.3v-0.938l0.975,0.113V25.413z M23.487,18.663L22.55,18.55
			v-0.9l0.938,0.113V18.663z M22.362,18.55l-0.938-0.112v-0.9l0.938,0.112V18.55z M23.487,19.713l-0.938-0.075V18.7l0.938,0.113
			V19.713z M22.362,19.601l-0.938-0.075v-0.938l0.938,0.113V19.601z M23.487,19.862V20.8l-0.938-0.112v-0.899L23.487,19.862z
			 M22.362,21.737l-0.938-0.074v-0.938l0.938,0.112V21.737z M22.55,20.838l0.938,0.112v0.9l-0.938-0.075V20.838z M23.487,22v0.938
			l-0.938-0.112v-0.9L23.487,22z M23.638,19.9l0.975,0.075v0.938L23.638,20.8V19.9z M25.737,20.125v0.9l-0.975-0.112v-0.9
			L25.737,20.125z M22.362,20.688l-0.938-0.112v-0.9l0.938,0.075V20.688z M21.425,22.862l0.938,0.113v0.899l-0.938-0.112V22.862z
			 M21.425,23.913l0.938,0.112v0.899l-0.938-0.074V23.913z M25.737,24.362v0.9l-0.975-0.075V24.25L25.737,24.362z M22.55,22.976
			l0.938,0.112v0.899l-0.938-0.112V22.976z M23.487,24.138v0.9l-0.938-0.075v-0.938L23.487,24.138z M23.638,24.138l0.975,0.112v0.9
			l-0.975-0.075V24.138z M21.425,21.775l0.938,0.112v0.938l-0.938-0.112V21.775z"/>
	</g>
	<g>
		<path style="fill-rule:evenodd;clip-rule:evenodd;fill:#3E423C;" d="M13.513,7.9v1.538l-1.275-0.113V7.788L13.513,7.9z
			 M15.013,8.013v1.575l-1.275-0.112V7.9L15.013,8.013z M16.55,8.163V9.7l-1.313-0.113V8.05L16.55,8.163z M18.05,8.275v1.538
			L16.737,9.7V8.163L18.05,8.275z M10.7,9.476l1.313,0.112v1.538L10.7,11.013V9.476z M18.05,11.65l-1.313-0.112V9.962l1.313,0.113
			V11.65z M18.05,11.875v1.575l-1.313-0.113v-1.575L18.05,11.875z M18.275,10.112l1.274,0.076v1.575l-1.274-0.113V10.112z
			 M13.737,15.138l1.275,0.113v1.538l-1.275-0.076V15.138z M16.737,13.601l1.313,0.074v1.576l-1.313-0.113V13.601z M18.275,13.712
			l1.274,0.113v1.537l-1.274-0.112V13.712z M16.55,16.938l-1.313-0.113V15.25l1.313,0.112V16.938z M18.05,17.313v1.538l-1.313-0.113
			V17.2L18.05,17.313z M18.05,15.513v1.537l-1.313-0.112V15.4L18.05,15.513z M18.275,11.913l1.274,0.112v1.538l-1.274-0.113V11.913z
			 M19.55,17.425V19l-1.274-0.112v-1.575L19.55,17.425z M19.55,22.601l-1.274-0.113V20.95l1.274,0.112V22.601z M19.55,20.8
			l-1.274-0.112v-1.575l1.274,0.113V20.8z M16.737,19l1.313,0.112v1.538l-1.313-0.075V19z M18.05,20.913v1.574l-1.313-0.112V20.8
			L18.05,20.913z M12.013,21.963L10.7,21.851v-1.538l1.313,0.112V21.963z M12.237,22.226l1.275,0.112v1.575L12.237,23.8V22.226z
			 M13.737,22.375l1.275,0.112v1.538l-1.275-0.112V22.375z M16.737,24.175v-1.574l1.313,0.112v1.575L16.737,24.175z M16.55,24.138
			l-1.313-0.075v-1.575l1.313,0.113V24.138z"/>
	</g>
	
		<radialGradient id="SVGID_12_" cx="390.3975" cy="-812.7334" r="22.1603" gradientTransform="matrix(0.0228 0.7497 0.6232 0.0338 513.006 -255.8679)" gradientUnits="userSpaceOnUse">
		<stop  offset="0" style="stop-color:#DDA11C"/>
		<stop  offset="0.2353" style="stop-color:#DA9F1B"/>
		<stop  offset="0.4275" style="stop-color:#D1981A"/>
		<stop  offset="0.6039" style="stop-color:#C18D17"/>
		<stop  offset="0.7686" style="stop-color:#AB7D13"/>
		<stop  offset="0.9255" style="stop-color:#90680E"/>
		<stop  offset="1" style="stop-color:#805D0B"/>
	</radialGradient>
	<polygon style="fill-rule:evenodd;clip-rule:evenodd;fill:url(#SVGID_12_);" points="3.8,15.476 5.788,15.663 5.788,13.3 
		8.337,13.563 8.337,15.925 10.325,16.112 10.325,19.188 8.337,18.962 8.337,21.362 5.788,21.101 5.788,18.737 3.8,18.55 	"/>
</g>
</svg>
