<?xml version="1.0" encoding="iso-8859-1"?>
<!-- Generator: Adobe Illustrator 15.0.0, SVG Export Plug-In . SVG Version: 6.00 Build 0)  -->
<!DOCTYPE svg PUBLIC "-//W3C//DTD SVG 1.1//EN" "http://www.w3.org/Graphics/SVG/1.1/DTD/svg11.dtd">
<svg version="1.1" id="Layer_1" xmlns="http://www.w3.org/2000/svg" xmlns:xlink="http://www.w3.org/1999/xlink" x="0px" y="0px"
	 width="128px" height="128px" viewBox="0 0 128 128" style="enable-background:new 0 0 128 128;" xml:space="preserve">
<g>
	<circle style="fill:#FFD464;" cx="64" cy="64" r="64"/>
	<path style="fill:#F2C95F;" d="M64,0c-1.006,0-2.005,0.029-3,0.076C94.954,1.644,122,29.658,122,64s-27.046,62.357-61,63.924
		c0.995,0.047,1.994,0.076,3,0.076c35.348,0,64-28.652,64-64S99.348,0,64,0z"/>
	<g>
		<path style="fill:#263740;" d="M51,52c-1.657,0-3-1.344-3-3c0-4.963-4.038-9-9-9s-9,4.037-9,9c0,1.656-1.343,3-3,3s-3-1.344-3-3
			c0-8.271,6.729-15,15-15s15,6.729,15,15C54,50.656,52.657,52,51,52z"/>
		<path style="fill:#263740;" d="M101,52c-1.657,0-3-1.344-3-3c0-4.963-4.038-9-9-9s-9,4.037-9,9c0,1.656-1.343,3-3,3s-3-1.344-3-3
			c0-8.271,6.729-15,15-15s15,6.729,15,15C104,50.656,102.657,52,101,52z"/>
	</g>
	<path style="fill:#99602E;" d="M45,64c-15,0-32,21-40,7c2,12,39,38,58,24V78C63,70,59,64,45,64z"/>
	<g>
		<path style="fill:#805026;" d="M10.646,75.604C8.476,75.124,6.564,73.738,5,71c0.233,1.396,0.946,2.986,2.044,4.678
			C8.181,75.869,9.383,75.831,10.646,75.604z"/>
		<path style="fill:#805026;" d="M45,64c-0.495,0-0.992,0.025-1.49,0.069C55.484,64.758,59,70.5,59,78v9
			c0,5-7.218,11.676-11.371,11.962C53.276,99.326,58.617,98.23,63,95V78C63,70,59,64,45,64z"/>
	</g>
	<path style="fill:#99602E;" d="M81,64c15,0,32,21,40,7c-2,12-39,38-58,24V78C63,70,67,64,81,64z"/>
	<g>
		<path style="fill:#805026;" d="M114.956,75.678c-6.158,9.485-24.601,22.253-40.585,23.284C93.9,100.309,119.352,80.896,121,71
			C119.341,73.903,117.291,75.285,114.956,75.678z"/>
		<path style="fill:#805026;" d="M111.354,75.604C102.705,74.041,91.375,64,81,64c-0.875,0-1.711,0.023-2.51,0.069
			C90.156,65.091,102.791,77.497,111.354,75.604z"/>
	</g>
	<circle style="fill:#FFC200;" cx="64" cy="64" r="64"/>
	<path style="fill:#F2B800;" d="M64,0c-1.685,0-3.348,0.085-5,0.213C92.007,2.767,118,30.337,118,64s-25.993,61.233-59,63.787
		c1.652,0.128,3.315,0.213,5,0.213c35.348,0,64-28.652,64-64S99.348,0,64,0z"/>
	<g>
		<path style="fill:#263740;" d="M51,52c-1.657,0-3-1.344-3-3c0-4.963-4.038-9-9-9s-9,4.037-9,9c0,1.656-1.343,3-3,3s-3-1.344-3-3
			c0-8.271,6.729-15,15-15s15,6.729,15,15C54,50.656,52.657,52,51,52z"/>
		<path style="fill:#263740;" d="M101,52c-1.657,0-3-1.344-3-3c0-4.963-4.038-9-9-9s-9,4.037-9,9c0,1.656-1.343,3-3,3s-3-1.344-3-3
			c0-8.271,6.729-15,15-15s15,6.729,15,15C104,50.656,102.657,52,101,52z"/>
	</g>
	<path style="fill:#99602E;" d="M45,64c-15,0-32,21-40,7c2,12,39,38,58,24V78C63,70,59,64,45,64z"/>
	<g>
		<path style="fill:#805026;" d="M10.646,75.604C8.476,75.124,6.564,73.738,5,71c0.233,1.396,0.946,2.986,2.044,4.678
			C8.181,75.869,9.383,75.831,10.646,75.604z"/>
		<path style="fill:#805026;" d="M45,64c-0.495,0-0.992,0.025-1.49,0.069C55.484,64.758,59,70.5,59,78v9
			c0,5-7.218,11.676-11.371,11.962C53.276,99.326,58.617,98.23,63,95V78C63,70,59,64,45,64z"/>
	</g>
	<path style="fill:#99602E;" d="M81,64c15,0,32,21,40,7c-2,12-39,38-58,24V78C63,70,67,64,81,64z"/>
	<g>
		<path style="fill:#805026;" d="M114.956,75.678c-6.158,9.485-24.601,22.253-40.585,23.284C93.9,100.309,119.352,80.896,121,71
			C119.341,73.903,117.291,75.285,114.956,75.678z"/>
		<path style="fill:#805026;" d="M111.354,75.604C102.705,74.041,91.375,64,81,64c-0.875,0-1.711,0.023-2.51,0.069
			C90.156,65.091,102.791,77.497,111.354,75.604z"/>
	</g>
</g>
</svg>
