<?xml version="1.0" encoding="iso-8859-1"?>
<!-- Generator: Adobe Illustrator 15.1.0, SVG Export Plug-In . SVG Version: 6.00 Build 0)  -->
<!DOCTYPE svg PUBLIC "-//W3C//DTD SVG 1.1//EN" "http://www.w3.org/Graphics/SVG/1.1/DTD/svg11.dtd">
<svg version="1.1" id="flash0.ai" xmlns="http://www.w3.org/2000/svg" xmlns:xlink="http://www.w3.org/1999/xlink" x="0px" y="0px"
	 width="58.4px" height="21.2px" viewBox="0 0 58.4 21.2" style="enable-background:new 0 0 58.4 21.2;" xml:space="preserve">
<g>
	<path style="fill-rule:evenodd;clip-rule:evenodd;fill:#CCB664;" d="M40.37,16.939c0.399,0.668,0.119,1.054-0.841,1.16
		c-0.986,0.107-2.173-0.053-3.56-0.479l-1.8-0.641c0.026,0.081-0.066,0.174-0.28,0.28c-0.427,0.188-1.187,0.293-2.279,0.32
		c-1.094,0.054-2.121,0.027-3.081-0.08l-1.12-0.2c-0.96,0.479-2.24,0.64-3.84,0.479c-1.227-0.133-2.413-0.359-3.56-0.68
		c-1.173-0.373-1.787-0.693-1.84-0.96c-0.053-0.239-0.013-0.439,0.12-0.6l0.24-0.16c0.053-0.453,0.293-0.946,0.72-1.479
		c0.374-0.48,0.707-0.773,1-0.88l0.52-0.2c0.133-0.267,0.28-0.547,0.44-0.84c0.347-0.613,0.667-1.014,0.96-1.2
		c0.426-0.32,1.147-0.547,2.16-0.68l0.68-0.76c0.56-0.533,1.173-0.879,1.84-1.04c0.693-0.16,1.346-0.08,1.96,0.24
		c0.32,0.16,0.573,0.333,0.759,0.521l0.601-0.2c0.507-0.08,1.026-0.067,1.56,0.04c0.827,0.16,1.467,0.533,1.92,1.12l0.881,0.2
		c0.666,0.16,1.146,0.36,1.439,0.6c0.48,0.399,0.653,0.906,0.52,1.52l0.801,0.12c0.586,0.16,0.986,0.36,1.199,0.601
		c0.347,0.399,0.534,0.693,0.561,0.88l0.96,0.239c0.666,0.214,1.014,0.521,1.04,0.92c0.079,0.667-0.44,0.974-1.561,0.92
		L40.37,16.939z"/>
	<path style="fill-rule:evenodd;clip-rule:evenodd;fill:#B09A4A;" d="M25.61,8.02c0.8-0.293,1.48-0.374,2.04-0.24
		c0.533,0.106,0.733,0.333,0.6,0.68c-0.133,0.32-0.48,0.613-1.04,0.879c-0.614,0.32-1.32,0.494-2.12,0.521
		c-0.827,0.026-1.12-0.214-0.88-0.72C24.423,8.633,24.89,8.26,25.61,8.02z"/>
	<path style="fill-rule:evenodd;clip-rule:evenodd;fill:#E3CE7F;" d="M24.89,8.34c0.72-0.373,1.387-0.586,2-0.64
		c0.534-0.026,0.867,0.04,1,0.2c0.107,0.16,0.067,0.36-0.12,0.6c-0.187,0.267-0.453,0.467-0.8,0.6c-0.987,0.4-1.787,0.546-2.4,0.44
		c-0.374-0.053-0.48-0.24-0.32-0.56C24.383,8.713,24.596,8.5,24.89,8.34z"/>
	<path style="fill-rule:evenodd;clip-rule:evenodd;fill:#B09A4A;" d="M24.69,9.74c-0.32-0.027-0.494-0.133-0.52-0.32
		c0-0.106,0.267-0.307,0.8-0.6c0.507-0.293,1.267-0.613,2.28-0.96l-2,1.08c-0.507,0.267-0.76,0.467-0.76,0.6
		C24.49,9.594,24.557,9.66,24.69,9.74z"/>
	<path style="fill-rule:evenodd;clip-rule:evenodd;fill:#FFF0B8;" d="M27.53,8.02l-0.12-0.24c-0.054-0.08,0.106-0.054,0.479,0.08
		c0.107,0.053,0.121,0.213,0.041,0.479c-0.107,0.32-0.507,0.614-1.2,0.88c-0.32,0.133-0.626,0.227-0.92,0.28l-0.36,0.04l0.76-0.24
		c0.267-0.08,0.6-0.307,1-0.68C27.477,8.46,27.583,8.26,27.53,8.02z"/>
	<path style="fill-rule:evenodd;clip-rule:evenodd;fill:#B09A4A;" d="M14.77,13.62c0.907-0.106,1.613-0.04,2.12,0.2
		c0.507,0.213,0.641,0.467,0.4,0.76c-0.24,0.32-0.68,0.56-1.32,0.72c-0.693,0.16-1.467,0.187-2.32,0.08
		c-0.826-0.106-1.04-0.399-0.64-0.88C13.383,14.021,13.97,13.727,14.77,13.62z"/>
	<path style="fill-rule:evenodd;clip-rule:evenodd;fill:#E3CE7F;" d="M13.93,13.82c0.853-0.24,1.6-0.32,2.24-0.24
		c0.534,0.054,0.84,0.187,0.92,0.4c0.054,0.187-0.053,0.373-0.32,0.56c-0.267,0.214-0.587,0.36-0.96,0.44
		c-1.12,0.213-1.973,0.199-2.56-0.041c-0.346-0.133-0.4-0.333-0.16-0.6C13.304,14.1,13.583,13.927,13.93,13.82z"/>
	<path style="fill-rule:evenodd;clip-rule:evenodd;fill:#B09A4A;" d="M13.33,15.18c-0.32-0.106-0.467-0.253-0.44-0.439
		c0.027-0.107,0.36-0.254,1-0.44c0.586-0.187,1.44-0.346,2.56-0.479l-2.32,0.64c-0.587,0.16-0.907,0.307-0.96,0.44
		C13.144,14.98,13.197,15.073,13.33,15.18z"/>
	<path style="fill-rule:evenodd;clip-rule:evenodd;fill:#FFF0B8;" d="M16.69,14.021l-0.04-0.28c-0.026-0.106,0.12-0.04,0.44,0.2
		c0.106,0.053,0.08,0.199-0.08,0.439c-0.214,0.32-0.707,0.547-1.48,0.681c-0.587,0.106-1.054,0.133-1.4,0.079
		c0.266-0.079,0.546-0.12,0.84-0.12c0.293,0,0.707-0.159,1.24-0.479C16.53,14.434,16.69,14.26,16.69,14.021z"/>
	<path style="fill-rule:evenodd;clip-rule:evenodd;fill:#B09A4A;" d="M42.529,14.3c1.014-0.133,1.841-0.093,2.48,0.12
		c0.587,0.213,0.773,0.48,0.561,0.8c-0.241,0.32-0.721,0.561-1.441,0.72c-0.772,0.214-1.652,0.268-2.64,0.16
		c-0.96-0.106-1.253-0.399-0.88-0.88C40.983,14.74,41.623,14.434,42.529,14.3z"/>
	<path style="fill-rule:evenodd;clip-rule:evenodd;fill:#E3CE7F;" d="M41.57,14.5c0.959-0.24,1.8-0.333,2.52-0.28
		c0.64,0.054,1.013,0.187,1.12,0.4c0.106,0.16,0.026,0.347-0.24,0.56c-0.267,0.214-0.613,0.36-1.04,0.44
		c-1.227,0.24-2.227,0.253-3,0.04c-0.4-0.134-0.48-0.334-0.24-0.6C40.902,14.82,41.196,14.633,41.57,14.5z"/>
	<path style="fill-rule:evenodd;clip-rule:evenodd;fill:#B09A4A;" d="M41.05,15.86c-0.374-0.08-0.547-0.214-0.521-0.4
		c0.054-0.106,0.413-0.267,1.08-0.479c0.667-0.188,1.627-0.36,2.88-0.521l-2.6,0.72c-0.667,0.16-1.014,0.307-1.04,0.44
		C40.85,15.674,40.916,15.754,41.05,15.86z"/>
	<path style="fill-rule:evenodd;clip-rule:evenodd;fill:#FFF0B8;" d="M44.77,14.66l-0.08-0.28c0-0.026,0.187,0.026,0.561,0.16
		c0.106,0.054,0.093,0.214-0.04,0.479c-0.214,0.32-0.747,0.547-1.601,0.681c-0.426,0.08-0.813,0.12-1.16,0.12H42.01l0.96-0.12
		c0.319-0.026,0.76-0.2,1.319-0.521c0.268-0.08,0.427-0.16,0.48-0.24C44.77,14.913,44.77,14.82,44.77,14.66z"/>
	<path style="fill-rule:evenodd;clip-rule:evenodd;fill:#B09A4A;" d="M36.45,15.3c0.746,0.214,1.227,0.693,1.439,1.44
		c0.24,0.773-0.053,1.213-0.88,1.32c-0.826,0.105-1.547,0-2.16-0.32c-0.56-0.32-0.92-0.72-1.08-1.2
		c-0.133-0.479,0.067-0.866,0.601-1.16C34.93,15.087,35.623,15.061,36.45,15.3z"/>
	<path style="fill-rule:evenodd;clip-rule:evenodd;fill:#E3CE7F;" d="M37.21,15.62c0.293,0.16,0.52,0.453,0.68,0.88
		c0.134,0.453,0.026,0.76-0.319,0.92c-0.667,0.32-1.494,0.267-2.48-0.16c-0.347-0.133-0.613-0.373-0.8-0.72
		c-0.187-0.32-0.227-0.627-0.12-0.92c0.106-0.294,0.44-0.467,1-0.521C35.783,15.047,36.463,15.22,37.21,15.62z"/>
	<path style="fill-rule:evenodd;clip-rule:evenodd;fill:#B09A4A;" d="M37.41,17.74c0.16-0.16,0.239-0.293,0.239-0.4
		c0-0.187-0.266-0.427-0.8-0.72l-2.04-1.2l0.88,0.32c0.64,0.24,1.12,0.453,1.44,0.64c0.533,0.32,0.8,0.573,0.8,0.76
		C37.93,17.434,37.757,17.634,37.41,17.74z"/>
	<path style="fill-rule:evenodd;clip-rule:evenodd;fill:#FFF0B8;" d="M34.53,15.74c-0.027,0.213-0.041,0.347-0.041,0.399
		c0.027,0.16,0.147,0.307,0.36,0.44c0.08,0.054,0.254,0.227,0.521,0.52c0.187,0.16,0.359,0.254,0.52,0.28
		c0.268,0.027,0.521,0.12,0.76,0.28c-0.347,0.026-0.786-0.053-1.319-0.24c-0.693-0.267-1.094-0.653-1.2-1.16
		c-0.08-0.399-0.066-0.64,0.04-0.72c0.08-0.026,0.2-0.106,0.36-0.24c0.106-0.08,0.146-0.066,0.119,0.04L34.53,15.74z"/>
	<path style="fill-rule:evenodd;clip-rule:evenodd;fill:#B09A4A;" d="M24.25,16.54c1.12-0.187,2.04-0.134,2.76,0.16
		c0.666,0.293,0.879,0.666,0.64,1.12c-0.267,0.453-0.787,0.8-1.56,1.04c-0.88,0.293-1.867,0.373-2.96,0.239
		c-1.066-0.16-1.4-0.586-1-1.279C22.557,17.153,23.263,16.727,24.25,16.54z"/>
	<path style="fill-rule:evenodd;clip-rule:evenodd;fill:#E3CE7F;" d="M23.21,16.82c1.04-0.347,1.973-0.48,2.8-0.4
		c0.72,0.08,1.133,0.267,1.24,0.56c0.106,0.241,0.013,0.521-0.28,0.841c-0.293,0.319-0.68,0.533-1.16,0.64
		c-1.44,0.319-2.534,0.319-3.28,0c-0.453-0.16-0.546-0.453-0.28-0.88C22.463,17.233,22.783,16.979,23.21,16.82z"/>
	<path style="fill-rule:evenodd;clip-rule:evenodd;fill:#B09A4A;" d="M22.65,18.779c-0.426-0.105-0.626-0.293-0.6-0.559
		c0.027-0.107,0.08-0.2,0.16-0.281c0.16-0.079,0.507-0.213,1.04-0.399c0.72-0.293,1.773-0.561,3.16-0.8l-2.84,1.039
		c-0.72,0.268-1.106,0.48-1.16,0.641C22.41,18.5,22.49,18.62,22.65,18.779z"/>
	<path style="fill-rule:evenodd;clip-rule:evenodd;fill:#FFF0B8;" d="M26.77,17.061l-0.12-0.4c-0.026-0.107,0.173-0.026,0.6,0.24
		c0.133,0.079,0.187,0.16,0.16,0.239c-0.027,0.081-0.08,0.214-0.16,0.4c-0.187,0.453-0.787,0.786-1.8,1
		c-0.453,0.106-0.88,0.173-1.28,0.2h-0.48l1.04-0.24c0.213,0,0.453-0.08,0.72-0.24c0.347-0.239,0.613-0.387,0.8-0.439
		c0.267-0.134,0.44-0.268,0.52-0.4C26.77,17.393,26.77,17.273,26.77,17.061z"/>
	<path style="fill-rule:evenodd;clip-rule:evenodd;fill:#B09A4A;" d="M17.73,15.1c1.12-0.133,2.027-0.026,2.72,0.32
		c0.667,0.347,0.867,0.733,0.6,1.16c-0.293,0.427-0.826,0.746-1.6,0.96c-0.907,0.239-1.894,0.267-2.96,0.08
		c-1.066-0.213-1.373-0.653-0.92-1.32C15.997,15.633,16.717,15.233,17.73,15.1z"/>
	<path style="fill-rule:evenodd;clip-rule:evenodd;fill:#E3CE7F;" d="M16.69,15.34c1.067-0.293,2-0.373,2.8-0.24
		c0.72,0.107,1.121,0.307,1.2,0.601c0.106,0.267,0,0.546-0.32,0.84c-0.293,0.267-0.68,0.453-1.16,0.56
		c-1.44,0.267-2.547,0.227-3.32-0.12c-0.427-0.187-0.507-0.493-0.24-0.919C15.917,15.713,16.263,15.474,16.69,15.34z"/>
	<path style="fill-rule:evenodd;clip-rule:evenodd;fill:#B09A4A;" d="M16.01,17.26c-0.4-0.133-0.587-0.333-0.56-0.6
		c0.026-0.16,0.44-0.36,1.24-0.6c0.72-0.24,1.787-0.454,3.2-0.641l-2.92,0.88c-0.746,0.214-1.133,0.413-1.16,0.601
		C15.783,16.979,15.85,17.1,16.01,17.26z"/>
	<path style="fill-rule:evenodd;clip-rule:evenodd;fill:#FFF0B8;" d="M18.81,17.18c-0.747,0.134-1.333,0.16-1.76,0.08l1.08-0.16
		c0.213,0.027,0.453-0.039,0.72-0.199c0.346-0.214,0.613-0.348,0.8-0.4c0.267-0.106,0.44-0.227,0.52-0.36
		c0.026-0.079,0.04-0.213,0.04-0.399l-0.08-0.36c-0.026-0.106,0.174-0.026,0.6,0.24c0.107,0.08,0.146,0.173,0.12,0.28
		c-0.027,0.053-0.093,0.187-0.2,0.399C20.463,16.7,19.85,16.993,18.81,17.18z"/>
	<path style="fill-rule:evenodd;clip-rule:evenodd;fill:#B09A4A;" d="M22.01,10.26c0.879-0.48,1.68-0.707,2.4-0.68
		c0.64,0.053,0.92,0.293,0.84,0.72c-0.08,0.454-0.427,0.893-1.04,1.32c-0.667,0.507-1.493,0.867-2.48,1.08
		c-0.96,0.213-1.36-0.026-1.2-0.72C20.69,11.287,21.183,10.713,22.01,10.26z"/>
	<path style="fill-rule:evenodd;clip-rule:evenodd;fill:#E3CE7F;" d="M21.17,10.82c0.8-0.613,1.573-1,2.32-1.16
		c0.614-0.16,1.014-0.133,1.2,0.08c0.16,0.16,0.16,0.414,0,0.76c-0.187,0.347-0.467,0.627-0.84,0.84
		c-1.04,0.693-1.974,1.04-2.8,1.04c-0.426-0.026-0.586-0.24-0.48-0.64C20.65,11.367,20.85,11.061,21.17,10.82z"/>
	<path style="fill-rule:evenodd;clip-rule:evenodd;fill:#B09A4A;" d="M21.25,12.58c-0.4,0.026-0.626-0.066-0.68-0.28
		c-0.026-0.106,0-0.199,0.08-0.279s0.333-0.294,0.76-0.641c0.533-0.426,1.373-0.96,2.52-1.6l-2.2,1.68
		c-0.56,0.453-0.827,0.747-0.8,0.88C20.93,12.42,21.037,12.5,21.25,12.58z"/>
	<path style="fill-rule:evenodd;clip-rule:evenodd;fill:#FFF0B8;" d="M24.29,9.94l-0.2-0.28c-0.053-0.08,0-0.106,0.16-0.08
		c0.08,0,0.227,0.027,0.44,0.08c0.133,0.027,0.187,0.213,0.16,0.56c-0.054,0.426-0.48,0.867-1.28,1.32
		c-0.374,0.24-0.72,0.427-1.04,0.561l-0.4,0.119l0.84-0.479c0.32-0.134,0.68-0.479,1.08-1.04c0.213-0.16,0.32-0.307,0.32-0.44
		C24.37,10.207,24.343,10.1,24.29,9.94z"/>
	<path style="fill-rule:evenodd;clip-rule:evenodd;fill:#B09A4A;" d="M22.17,14.021c0.8-0.587,1.56-0.84,2.28-0.76
		c0.667,0.079,1,0.399,1,0.959c0.027,0.587-0.213,1.16-0.72,1.72c-0.56,0.613-1.307,1.027-2.24,1.24c-0.933,0.24-1.4-0.106-1.4-1.04
		C21.09,15.26,21.45,14.554,22.17,14.021z"/>
	<path style="fill-rule:evenodd;clip-rule:evenodd;fill:#E3CE7F;" d="M21.49,14.7c0.667-0.72,1.347-1.187,2.04-1.4
		c0.587-0.16,1-0.106,1.24,0.16c0.213,0.24,0.267,0.573,0.16,1c-0.08,0.453-0.293,0.813-0.641,1.08
		c-0.533,0.479-0.986,0.813-1.359,1c-0.374,0.187-0.787,0.253-1.24,0.2c-0.427-0.027-0.64-0.307-0.64-0.84
		C21.077,15.42,21.224,15.02,21.49,14.7z"/>
	<path style="fill-rule:evenodd;clip-rule:evenodd;fill:#B09A4A;" d="M21.93,17.021c-0.374,0.026-0.613-0.107-0.72-0.4
		c-0.053-0.134-0.053-0.24,0-0.32c0.053-0.16,0.253-0.439,0.6-0.84c0.453-0.56,1.173-1.214,2.16-1.96l-1.76,2.12
		c-0.48,0.533-0.693,0.894-0.64,1.08C21.597,16.807,21.717,16.913,21.93,17.021z"/>
	<path style="fill-rule:evenodd;clip-rule:evenodd;fill:#FFF0B8;" d="M24.41,13.7l-0.28-0.36c-0.08-0.106,0.12-0.093,0.6,0.04
		c0.133,0.027,0.213,0.107,0.24,0.24L25.01,14.1c0.106,0.507-0.2,1.08-0.92,1.721c-0.533,0.426-0.986,0.693-1.36,0.8l0.2-0.24
		c0.187-0.16,0.373-0.28,0.56-0.36c0.293-0.159,0.573-0.586,0.84-1.279c0.187-0.214,0.266-0.414,0.24-0.601
		C24.57,14.087,24.517,13.94,24.41,13.7z"/>
	<path style="fill-rule:evenodd;clip-rule:evenodd;fill:#B09A4A;" d="M28.65,8.78c0.987-0.16,1.8-0.106,2.44,0.16
		c0.587,0.24,0.76,0.547,0.521,0.92c-0.214,0.4-0.667,0.707-1.36,0.92c-0.773,0.24-1.64,0.307-2.6,0.2
		c-0.96-0.133-1.253-0.493-0.88-1.08C27.143,9.313,27.77,8.94,28.65,8.78z"/>
	<path style="fill-rule:evenodd;clip-rule:evenodd;fill:#E3CE7F;" d="M27.73,9.02c0.933-0.293,1.747-0.413,2.44-0.36
		c0.64,0.053,1.013,0.213,1.12,0.48c0.08,0.213-0.014,0.454-0.28,0.72c-0.24,0.267-0.573,0.453-1,0.56
		c-1.2,0.293-2.173,0.307-2.92,0.041c-0.373-0.16-0.453-0.414-0.24-0.76C27.063,9.354,27.356,9.127,27.73,9.02z"/>
	<path style="fill-rule:evenodd;clip-rule:evenodd;fill:#B09A4A;" d="M27.21,10.7c-0.374-0.08-0.547-0.24-0.52-0.48
		c0.027-0.107,0.08-0.187,0.16-0.24c0.106-0.08,0.4-0.2,0.88-0.36c0.667-0.24,1.613-0.466,2.839-0.68l-2.52,0.88
		c-0.667,0.24-1.013,0.426-1.04,0.56C27.01,10.487,27.077,10.594,27.21,10.7z"/>
	<path style="fill-rule:evenodd;clip-rule:evenodd;fill:#FFF0B8;" d="M30.85,9.22L30.77,8.9c-0.053-0.133,0.12-0.08,0.521,0.16
		c0.106,0.08,0.146,0.16,0.12,0.24c0,0.026-0.054,0.146-0.16,0.36c-0.134,0.373-0.653,0.653-1.561,0.84
		c-0.399,0.107-0.773,0.16-1.12,0.16h-0.44l0.92-0.16c0.347-0.026,0.787-0.24,1.32-0.64c0.267-0.106,0.426-0.214,0.479-0.32
		C30.85,9.514,30.85,9.407,30.85,9.22z"/>
	<path style="fill-rule:evenodd;clip-rule:evenodd;fill:#B09A4A;" d="M34.93,9.98c0.907,0.266,1.521,0.693,1.841,1.28
		c0.319,0.56,0.279,1-0.121,1.319c-0.426,0.347-1,0.48-1.72,0.4c-0.773-0.08-1.507-0.4-2.2-0.96c-0.693-0.587-0.706-1.134-0.04-1.64
		C33.356,9.874,34.104,9.74,34.93,9.98z"/>
	<path style="fill-rule:evenodd;clip-rule:evenodd;fill:#E3CE7F;" d="M34.01,9.86c0.96,0.08,1.707,0.333,2.24,0.76
		c0.453,0.347,0.64,0.68,0.56,1c-0.053,0.293-0.267,0.52-0.64,0.68c-0.374,0.188-0.76,0.24-1.16,0.16
		c-0.667-0.133-1.173-0.293-1.521-0.479c-0.346-0.187-0.64-0.454-0.879-0.8c-0.214-0.347-0.121-0.667,0.279-0.96
		C33.263,9.954,33.637,9.833,34.01,9.86z"/>
	<path style="fill-rule:evenodd;clip-rule:evenodd;fill:#B09A4A;" d="M32.53,11.5c-0.054-0.054-0.107-0.133-0.16-0.239
		c-0.054-0.188-0.027-0.36,0.08-0.521c0.08-0.107,0.16-0.173,0.239-0.2c0.134-0.026,0.454-0.026,0.96,0
		c0.667,0.027,1.574,0.2,2.721,0.521c-0.693-0.027-1.561-0.081-2.601-0.16c-0.666-0.054-1.066,0-1.2,0.16
		C32.569,11.273,32.557,11.42,32.53,11.5z"/>
	<path style="fill-rule:evenodd;clip-rule:evenodd;fill:#FFF0B8;" d="M34.649,12.42c-0.373-0.08-0.706-0.187-1-0.319l-0.319-0.2
		l0.84,0.2c0.267,0.133,0.76,0.106,1.479-0.08c0.268,0,0.453-0.054,0.561-0.16l0.24-0.36l0.12-0.399
		c0.026-0.107,0.079-0.094,0.159,0.039c0.027,0.08,0.08,0.214,0.16,0.4c0.026,0.134,0.014,0.24-0.04,0.32
		c-0.026,0.026-0.146,0.133-0.36,0.32C36.116,12.526,35.503,12.606,34.649,12.42z"/>
	<path style="fill-rule:evenodd;clip-rule:evenodd;fill:#B09A4A;" d="M38.609,13.42c1.094,0.16,1.906,0.507,2.44,1.04
		c0.533,0.479,0.613,0.88,0.239,1.2c-0.373,0.32-0.96,0.479-1.76,0.479c-0.906,0-1.826-0.239-2.759-0.72
		c-0.934-0.48-1.107-0.974-0.521-1.479C36.837,13.434,37.623,13.261,38.609,13.42z"/>
	<path style="fill-rule:evenodd;clip-rule:evenodd;fill:#E3CE7F;" d="M37.57,13.34c1.066,0.027,1.959,0.2,2.68,0.521
		c0.613,0.293,0.934,0.6,0.96,0.92c0.026,0.267-0.147,0.493-0.521,0.68s-0.8,0.253-1.279,0.2c-1.36-0.134-2.36-0.467-3-1
		c-0.347-0.32-0.334-0.627,0.04-0.92C36.771,13.474,37.143,13.34,37.57,13.34z"/>
	<path style="fill-rule:evenodd;clip-rule:evenodd;fill:#B09A4A;" d="M36.45,14.98c-0.08-0.054-0.16-0.134-0.24-0.24
		c-0.134-0.16-0.174-0.32-0.12-0.48c0.053-0.106,0.134-0.173,0.239-0.199c0.134-0.027,0.48-0.054,1.041-0.08
		c0.746,0,1.8,0.106,3.159,0.319l-2.919,0.04c-0.773,0-1.2,0.066-1.281,0.2C36.303,14.646,36.343,14.793,36.45,14.98z"/>
	<path style="fill-rule:evenodd;clip-rule:evenodd;fill:#FFF0B8;" d="M40.609,15.02l0.12-0.319l0.04-0.4
		c0-0.106,0.16,0.026,0.48,0.4c0.079,0.08,0.093,0.173,0.039,0.28c-0.026,0.026-0.119,0.133-0.279,0.319
		c-0.347,0.347-1,0.467-1.96,0.36c-0.453-0.054-0.866-0.134-1.24-0.24l-0.399-0.16h0.319c0.24,0.027,0.467,0.066,0.681,0.12
		c0.347,0.106,0.879,0.054,1.6-0.16C40.303,15.193,40.503,15.127,40.609,15.02z"/>
	<path style="fill-rule:evenodd;clip-rule:evenodd;fill:#B09A4A;" d="M30.81,12.78c1.094,0.267,1.88,0.707,2.36,1.319
		c0.453,0.587,0.467,1.067,0.04,1.44c-0.453,0.373-1.094,0.533-1.92,0.479c-0.934-0.08-1.867-0.426-2.8-1.039
		c-0.907-0.613-0.986-1.2-0.24-1.761C28.97,12.66,29.823,12.514,30.81,12.78z"/>
	<path style="fill-rule:evenodd;clip-rule:evenodd;fill:#E3CE7F;" d="M29.729,12.62c1.12,0.08,2.027,0.334,2.721,0.76
		c0.586,0.374,0.866,0.747,0.84,1.12c-0.027,0.293-0.254,0.547-0.68,0.76c-0.428,0.187-0.881,0.24-1.36,0.16
		c-0.8-0.133-1.413-0.293-1.84-0.48c-0.454-0.186-0.84-0.479-1.16-0.879c-0.32-0.374-0.253-0.721,0.2-1.04
		C28.85,12.727,29.276,12.594,29.729,12.62z"/>
	<path style="fill-rule:evenodd;clip-rule:evenodd;fill:#B09A4A;" d="M28.21,14.46c-0.08-0.08-0.147-0.173-0.2-0.28
		c-0.134-0.213-0.147-0.413-0.041-0.6c0.054-0.106,0.147-0.173,0.28-0.2c0.133-0.026,0.506-0.026,1.12,0
		c0.8,0.027,1.893,0.2,3.279,0.521l-3.08-0.12c-0.799-0.026-1.252,0.04-1.359,0.2C28.13,14.061,28.13,14.22,28.21,14.46z"/>
	<path style="fill-rule:evenodd;clip-rule:evenodd;fill:#FFF0B8;" d="M32.81,14.38l0.08-0.479c0.027-0.106,0.094-0.094,0.2,0.04
		c0.054,0.106,0.134,0.267,0.24,0.479c0.08,0.106,0.08,0.213,0,0.32c-0.026,0.026-0.147,0.146-0.36,0.359
		c-0.4,0.4-1.106,0.507-2.12,0.32c-0.453-0.106-0.866-0.24-1.239-0.4l-0.44-0.199l1.08,0.24c0.187,0.079,0.439,0.079,0.76,0
		c0.427-0.08,0.733-0.121,0.92-0.121c0.32,0,0.547-0.066,0.681-0.199C32.637,14.713,32.703,14.594,32.81,14.38z"/>
	<path style="fill-rule:evenodd;clip-rule:evenodd;fill:#B09A4A;" d="M32.09,17.1c1.146-0.026,2.066,0.147,2.76,0.521
		c0.64,0.347,0.813,0.693,0.521,1.04c-0.294,0.373-0.854,0.627-1.681,0.76c-0.933,0.133-1.946,0.066-3.04-0.199
		c-1.066-0.294-1.346-0.721-0.84-1.281C30.29,17.38,31.05,17.1,32.09,17.1z"/>
	<path style="fill-rule:evenodd;clip-rule:evenodd;fill:#E3CE7F;" d="M31.01,17.221c1.094-0.188,2.054-0.188,2.88,0
		c0.721,0.133,1.12,0.346,1.2,0.64c0.08,0.239-0.054,0.479-0.4,0.72c-0.319,0.24-0.733,0.373-1.239,0.399
		c-1.467,0.107-2.574-0.026-3.32-0.399c-0.427-0.214-0.493-0.493-0.2-0.84C30.224,17.447,30.583,17.273,31.01,17.221z"/>
	<path style="fill-rule:evenodd;clip-rule:evenodd;fill:#B09A4A;" d="M30.21,18.86c-0.4-0.16-0.573-0.36-0.521-0.601
		c0.027-0.133,0.454-0.28,1.28-0.439c0.773-0.134,1.88-0.228,3.32-0.28l-3.04,0.56c-0.773,0.107-1.187,0.24-1.24,0.4
		C29.983,18.58,30.05,18.7,30.21,18.86z"/>
	<path style="fill-rule:evenodd;clip-rule:evenodd;fill:#FFF0B8;" d="M35.09,17.82c0.106,0.08,0.146,0.159,0.12,0.24
		c-0.027,0-0.106,0.105-0.24,0.319c-0.24,0.399-0.88,0.613-1.92,0.641c-0.453,0.026-0.894,0.026-1.32,0l-0.479-0.081l1.12-0.039
		c0.213,0.026,0.453-0.014,0.72-0.121c0.399-0.159,0.68-0.253,0.84-0.279c0.32-0.08,0.521-0.174,0.601-0.279
		c0.026-0.055,0.039-0.174,0.039-0.36L34.53,17.5C34.503,17.313,34.689,17.42,35.09,17.82z"/>
	<path style="fill-rule:evenodd;clip-rule:evenodd;fill:#B09A4A;" d="M19.77,12.82c0.88-0.347,1.626-0.427,2.24-0.24
		c0.586,0.16,0.813,0.44,0.68,0.84c-0.133,0.427-0.494,0.813-1.08,1.16c-0.667,0.4-1.44,0.613-2.32,0.64s-1.213-0.293-1-0.96
		C18.503,13.594,18.997,13.113,19.77,12.82z"/>
	<path style="fill-rule:evenodd;clip-rule:evenodd;fill:#E3CE7F;" d="M19.01,13.22c0.773-0.453,1.493-0.706,2.16-0.76
		c0.587-0.053,0.947,0.04,1.08,0.28c0.133,0.214,0.106,0.467-0.08,0.76c-0.187,0.32-0.466,0.573-0.84,0.76
		c-1.067,0.507-1.947,0.68-2.64,0.521c-0.373-0.08-0.494-0.32-0.36-0.72C18.463,13.687,18.69,13.407,19.01,13.22z"/>
	<path style="fill-rule:evenodd;clip-rule:evenodd;fill:#B09A4A;" d="M18.85,15.02c-0.347-0.026-0.533-0.159-0.56-0.399
		c-0.027-0.106,0-0.2,0.08-0.28s0.333-0.253,0.76-0.52c0.533-0.347,1.347-0.733,2.44-1.16l-2.16,1.32c-0.534,0.346-0.8,0.6-0.8,0.76
		C18.61,14.82,18.69,14.913,18.85,15.02z"/>
	<path style="fill-rule:evenodd;clip-rule:evenodd;fill:#FFF0B8;" d="M21.89,12.9l-0.16-0.32c-0.026-0.106,0.146-0.08,0.52,0.08
		c0.133,0.08,0.16,0.28,0.08,0.601c-0.054,0.399-0.48,0.786-1.28,1.159c-0.346,0.16-0.68,0.267-1,0.32l-0.36,0.08l0.8-0.32
		c0.293-0.08,0.654-0.373,1.08-0.88c0.213-0.133,0.333-0.267,0.36-0.4C21.93,13.167,21.917,13.061,21.89,12.9z"/>
	<path style="fill-rule:evenodd;clip-rule:evenodd;fill:#B09A4A;" d="M26.97,10.82c1.041,0.053,1.827,0.307,2.36,0.76
		c0.507,0.453,0.6,0.866,0.28,1.24c-0.32,0.373-0.867,0.6-1.641,0.68c-0.853,0.08-1.733-0.066-2.64-0.439
		c-0.907-0.374-1.093-0.854-0.56-1.44S26.037,10.767,26.97,10.82z"/>
	<path style="fill-rule:evenodd;clip-rule:evenodd;fill:#E3CE7F;" d="M25.97,10.9c1.013-0.107,1.867-0.04,2.56,0.2
		c0.586,0.213,0.907,0.479,0.959,0.8c0.054,0.267-0.093,0.52-0.439,0.76c-0.346,0.24-0.747,0.36-1.2,0.36
		c-1.28,0.026-2.254-0.2-2.92-0.681c-0.347-0.267-0.347-0.573,0-0.92C25.223,11.127,25.57,10.954,25.97,10.9z"/>
	<path style="fill-rule:evenodd;clip-rule:evenodd;fill:#B09A4A;" d="M25.01,12.66c-0.08-0.054-0.16-0.12-0.24-0.2
		c-0.16-0.16-0.213-0.32-0.16-0.479c0.053-0.106,0.12-0.174,0.2-0.2c0.133-0.054,0.466-0.12,1-0.2c0.72-0.106,1.72-0.134,3-0.08
		l-2.76,0.4c-0.72,0.08-1.106,0.2-1.16,0.36C24.863,12.34,24.903,12.474,25.01,12.66z"/>
	<path style="fill-rule:evenodd;clip-rule:evenodd;fill:#FFF0B8;" d="M29.05,11.46c0-0.106,0.054-0.106,0.16,0
		c0.08,0.08,0.187,0.2,0.32,0.36c0.08,0.08,0.093,0.173,0.039,0.28c-0.08,0.133-0.159,0.253-0.239,0.359
		c-0.294,0.4-0.894,0.601-1.8,0.601c-0.426,0-0.826-0.04-1.2-0.12l-0.4-0.12l0.32-0.04c0.24,0,0.454,0.026,0.64,0.08
		c0.347,0.08,0.84-0.04,1.48-0.36c0.267-0.054,0.454-0.146,0.56-0.28l0.12-0.359C29.023,11.78,29.023,11.646,29.05,11.46z"/>
	<path style="fill-rule:evenodd;clip-rule:evenodd;fill:#B09A4A;" d="M32.729,8.1c0.613,0.187,1.054,0.613,1.32,1.28
		c0.24,0.693,0.026,1.12-0.64,1.28c-0.667,0.16-1.28,0.094-1.841-0.2c-0.479-0.267-0.8-0.627-0.959-1.08
		c-0.16-0.427-0.027-0.787,0.399-1.08C31.463,7.98,32.036,7.914,32.729,8.1z"/>
	<path style="fill-rule:evenodd;clip-rule:evenodd;fill:#E3CE7F;" d="M33.37,8.38c0.24,0.16,0.439,0.426,0.6,0.8
		c0.16,0.4,0.106,0.693-0.16,0.88c-0.506,0.32-1.187,0.307-2.04-0.041c-0.293-0.106-0.533-0.32-0.72-0.64s-0.254-0.6-0.2-0.84
		c0.106-0.293,0.374-0.479,0.8-0.56C32.13,7.9,32.703,8.033,33.37,8.38z"/>
	<path style="fill-rule:evenodd;clip-rule:evenodd;fill:#B09A4A;" d="M33.689,10.34c0.106-0.133,0.16-0.253,0.16-0.359
		c-0.026-0.16-0.267-0.374-0.72-0.641L31.37,8.3l0.72,0.24c0.533,0.214,0.946,0.4,1.24,0.56c0.479,0.267,0.733,0.494,0.76,0.68
		C34.09,10.047,33.956,10.233,33.689,10.34z"/>
	<path style="fill-rule:evenodd;clip-rule:evenodd;fill:#FFF0B8;" d="M31.17,8.62c0,0.347,0.106,0.6,0.319,0.76
		c0.08,0.053,0.24,0.2,0.48,0.44c0.16,0.16,0.307,0.253,0.44,0.28c0.239,0,0.453,0.067,0.64,0.2c-0.267,0.053-0.627,0-1.08-0.16
		c-0.64-0.267-1-0.6-1.08-1c-0.106-0.347-0.12-0.573-0.04-0.68c0.267-0.267,0.4-0.347,0.4-0.24L31.17,8.62z"/>
	<path style="fill-rule:evenodd;clip-rule:evenodd;fill:#B09A4A;" d="M41.85,15.54c0.747,0.187,1.267,0.613,1.561,1.28
		c0.293,0.693,0.039,1.119-0.761,1.279c-0.773,0.134-1.479,0.054-2.12-0.239c-0.587-0.24-0.973-0.587-1.159-1.04
		c-0.16-0.453,0-0.827,0.479-1.12C40.356,15.38,41.023,15.326,41.85,15.54z"/>
	<path style="fill-rule:evenodd;clip-rule:evenodd;fill:#E3CE7F;" d="M42.609,15.82c0.293,0.16,0.52,0.413,0.68,0.76
		c0.188,0.399,0.121,0.693-0.199,0.88c-0.587,0.319-1.387,0.307-2.4-0.04c-0.347-0.106-0.627-0.32-0.84-0.641
		c-0.213-0.293-0.279-0.572-0.2-0.84c0.107-0.293,0.413-0.466,0.921-0.52C41.156,15.34,41.836,15.474,42.609,15.82z"/>
	<path style="fill-rule:evenodd;clip-rule:evenodd;fill:#B09A4A;" d="M43.01,17.779c0.133-0.159,0.187-0.293,0.16-0.399
		c-0.027-0.159-0.307-0.373-0.841-0.64l-2.079-1l0.879,0.24c0.641,0.187,1.121,0.359,1.441,0.52c0.426,0.213,0.68,0.36,0.759,0.439
		c0.081,0.054,0.12,0.134,0.12,0.24C43.477,17.474,43.329,17.674,43.01,17.779z"/>
	<path style="fill-rule:evenodd;clip-rule:evenodd;fill:#FFF0B8;" d="M40.97,17.26c0.187,0.16,0.359,0.24,0.52,0.24
		c0.268,0.026,0.521,0.093,0.761,0.2c-0.32,0.053-0.747,0-1.28-0.16c-0.747-0.214-1.173-0.547-1.28-1
		c-0.08-0.214-0.119-0.347-0.119-0.4c-0.027-0.106,0-0.2,0.079-0.279c0.32-0.24,0.467-0.307,0.44-0.2l-0.08,0.359
		c0,0.214,0.014,0.348,0.04,0.4c0.026,0.133,0.146,0.254,0.36,0.359C40.516,16.834,40.703,16.993,40.97,17.26z"/>
	<path style="fill-rule:evenodd;clip-rule:evenodd;fill:#B09A4A;" d="M18.93,18.82c1.04-0.054,1.88,0.106,2.52,0.479
		c0.56,0.32,0.707,0.667,0.439,1.04c-0.293,0.373-0.813,0.627-1.56,0.76c-0.827,0.16-1.733,0.121-2.72-0.12
		c-0.987-0.213-1.24-0.613-0.76-1.2C17.276,19.193,17.97,18.873,18.93,18.82z"/>
	<path style="fill-rule:evenodd;clip-rule:evenodd;fill:#E3CE7F;" d="M17.93,18.979c1.013-0.213,1.893-0.239,2.64-0.079
		c0.613,0.16,0.96,0.373,1.041,0.64c0.08,0.213-0.027,0.453-0.32,0.72c-0.32,0.24-0.707,0.387-1.16,0.44
		c-1.333,0.16-2.333,0.053-3-0.32c-0.4-0.187-0.467-0.453-0.2-0.8C17.196,19.26,17.53,19.061,17.93,18.979z"/>
	<path style="fill-rule:evenodd;clip-rule:evenodd;fill:#B09A4A;" d="M17.21,20.66c-0.373-0.134-0.533-0.32-0.48-0.561
		c0.027-0.106,0.08-0.187,0.16-0.239c0.134-0.054,0.467-0.134,1-0.24c0.693-0.187,1.693-0.32,3-0.399l-2.72,0.64
		c-0.72,0.16-1.093,0.306-1.12,0.439C17.023,20.38,17.077,20.5,17.21,20.66z"/>
	<path style="fill-rule:evenodd;clip-rule:evenodd;fill:#FFF0B8;" d="M19.81,20.779c-0.427,0.027-0.827,0.027-1.2,0l-0.44-0.039
		l1-0.08c0.187,0.026,0.413-0.026,0.68-0.16c0.346-0.16,0.6-0.267,0.76-0.32c0.266-0.08,0.439-0.173,0.52-0.279
		c0.027-0.16,0.04-0.28,0.04-0.36l-0.08-0.36c0-0.106,0.187-0.014,0.56,0.28c0.08,0.08,0.107,0.16,0.08,0.24
		c0,0.026-0.067,0.146-0.2,0.36C21.343,20.434,20.77,20.674,19.81,20.779z"/>
</g>
</svg>
