<?xml version="1.0" encoding="iso-8859-1"?>
<!-- Generator: Adobe Illustrator 15.1.0, SVG Export Plug-In . SVG Version: 6.00 Build 0)  -->
<!DOCTYPE svg PUBLIC "-//W3C//DTD SVG 1.1//EN" "http://www.w3.org/Graphics/SVG/1.1/DTD/svg11.dtd">
<svg version="1.1" id="flash0.ai" xmlns="http://www.w3.org/2000/svg" xmlns:xlink="http://www.w3.org/1999/xlink" x="0px" y="0px"
	 width="62.9px" height="38.9px" viewBox="0 0 62.9 38.9" style="enable-background:new 0 0 62.9 38.9;" xml:space="preserve">
<symbol  id="flash0.ai_x5F_2_x2F_Layer_13_copy_x2F__x3C_Path_x3E_" viewBox="-0.033 -1.033 2.586 1.033">
	<g id="Layer_1_21_">
		<path style="fill-rule:evenodd;clip-rule:evenodd;fill:#784000;" d="M1.75,0c1,0,1.067-0.233,0.2-0.7
			C1.35-1.033,0.767-1.117,0.2-0.95c-0.367,0.1-0.3,0.284,0.2,0.55C0.867-0.133,1.317,0,1.75,0z"/>
	</g>
</symbol>
<symbol  id="flash0.ai_x5F_2_x2F_Layer_13_copy_x2F__x3C_Path_x3E__x5F_1" viewBox="-0.012 -1.257 2.694 1.263">
	<g id="Layer_1_20_">
		<path style="fill-rule:evenodd;clip-rule:evenodd;fill:#784000;" d="M2.65-0.3c0.1-0.233-0.033-0.467-0.4-0.7
			c-0.267-0.2-0.5-0.283-0.7-0.25C1.217-1.15,0.867-1.067,0.5-1c-0.533,0.067-0.65,0.25-0.35,0.55c0.267,0.267,0.6,0.417,1,0.45
			C2.017,0.033,2.517-0.067,2.65-0.3z"/>
	</g>
</symbol>
<symbol  id="flash0.ai_x5F_2_x2F_Layer_13_copy_x2F__x3C_Path_x3E__x5F_10" viewBox="-0.044 -0.657 2.189 0.664">
	<g id="Layer_1_11_">
		<path style="fill-rule:evenodd;clip-rule:evenodd;fill:#784000;" d="M1.1,0c1.066-0.1,1.316-0.233,0.75-0.4
			c-0.567-0.2-1.1-0.283-1.6-0.25c-0.333,0.066-0.383,0.2-0.15,0.4C0.367-0.05,0.7,0.033,1.1,0z"/>
	</g>
</symbol>
<symbol  id="flash0.ai_x5F_2_x2F_Layer_13_copy_x2F__x3C_Path_x3E__x5F_11" viewBox="-0.003 -0.895 3.229 0.909">
	<g id="Layer_1_10_">
		<path style="fill-rule:evenodd;clip-rule:evenodd;fill:#784000;" d="M2.05-0.75c-0.2,0.033-0.633,0-1.3-0.1
			C0.283-0.95,0.033-0.883,0-0.65C-0.033-0.383,0.25-0.2,0.85-0.1C1.383,0.033,1.867,0.05,2.3-0.05c0.467-0.067,0.767-0.233,0.9-0.5
			C3.333-0.783,2.95-0.85,2.05-0.75z"/>
	</g>
</symbol>
<symbol  id="flash0.ai_x5F_2_x2F_Layer_13_copy_x2F__x3C_Path_x3E__x5F_12" viewBox="-0.012 -0.4 1.237 0.408">
	<g id="Layer_1_9_">
		<path style="fill-rule:evenodd;clip-rule:evenodd;fill:#784000;" d="M1.15-0.2C0.95-0.333,0.667-0.4,0.3-0.4
			C0-0.4-0.083-0.333,0.05-0.2S0.35,0,0.55,0C1.15,0.033,1.35-0.033,1.15-0.2z"/>
	</g>
</symbol>
<symbol  id="flash0.ai_x5F_2_x2F_Layer_13_copy_x2F__x3C_Path_x3E__x5F_13" viewBox="0 -0.767 3.302 0.792">
	<g id="Layer_1_8_">
		<path style="fill-rule:evenodd;clip-rule:evenodd;fill:#784000;" d="M0.55-0.75C0.183-0.717,0-0.6,0-0.4C0-0.167,0.2-0.033,0.6,0
			c0.533,0.033,1.1,0.033,1.7,0c0.7-0.067,1.034-0.167,1-0.3C3.233-0.467,2.883-0.6,2.25-0.7C1.717-0.767,1.15-0.783,0.55-0.75z"/>
	</g>
</symbol>
<symbol  id="flash0.ai_x5F_2_x2F_Layer_13_copy_x2F__x3C_Path_x3E__x5F_14" viewBox="0.086 -0.633 1.944 0.633">
	<g id="Layer_1_7_">
		<path style="fill-rule:evenodd;clip-rule:evenodd;fill:#784000;" d="M1.25-0.6c-0.233,0.1-0.567,0.15-1,0.15
			C0.05-0.483,0.033-0.433,0.2-0.3C0.433-0.133,0.75-0.033,1.15,0c0.3,0,0.567-0.05,0.8-0.15c0.133-0.1,0.1-0.217-0.1-0.35
			C1.617-0.633,1.417-0.667,1.25-0.6z"/>
	</g>
</symbol>
<symbol  id="flash0.ai_x5F_2_x2F_Layer_13_copy_x2F__x3C_Path_x3E__x5F_15" viewBox="-0.016 -1.867 28.916 1.874">
	<g id="Layer_1_6_">
		<path style="fill-rule:evenodd;clip-rule:evenodd;fill:#784000;" d="M25.65-0.65C26.017-0.817,27.1-1.1,28.9-1.5H17.7
			c-0.367,0-4.15-0.067-11.35-0.2c-0.3,0-1.467-0.05-3.5-0.15c-1.1-0.033-1.9-0.017-2.4,0.05C-0.117-1.733-0.167-1.55,0.3-1.25
			c0.434,0.267,0.85,0.433,1.25,0.5c2.1,0.367,3.7,0.55,4.8,0.55l9.2,0.2c1.733,0.033,4.65-0.05,8.75-0.25L25.65-0.65z"/>
	</g>
</symbol>
<symbol  id="flash0.ai_x5F_2_x2F_Layer_13_copy_x2F__x3C_Path_x3E__x5F_16" viewBox="0 -3.079 40.35 3.069">
	<g id="Layer_1_5_">
		<path style="fill-rule:evenodd;clip-rule:evenodd;fill:#784000;" d="M38.05-1.5C31.583-2.033,26.633-2.283,23.2-2.25
			c-4.2,0.067-9.233-0.1-15.1-0.5c-3.367-0.2-5.167-0.3-5.4-0.3C1.567-3.117,0.867-3.067,0.6-2.9C0.2-2.7,0-2.5,0-2.3
			c0,0.267,0.383,0.517,1.15,0.75C2.317-1.217,5.717-0.9,11.35-0.6c1.633,0.1,4.083,0.133,7.35,0.1c3.267,0,5.5,0.033,6.7,0.1
			c1.267,0.033,3.083,0.133,5.45,0.3c2.033,0.1,3.683,0.117,4.95,0.05c2.034-0.067,3.55-0.083,4.55-0.05L38.05-1.5z"/>
	</g>
</symbol>
<symbol  id="flash0.ai_x5F_2_x2F_Layer_13_copy_x2F__x3C_Path_x3E__x5F_17" viewBox="-0.018 -3.75 27.418 3.75">
	<g id="Layer_1_4_">
		<path style="fill-rule:evenodd;clip-rule:evenodd;fill:#784000;" d="M27.4,0l-2.8-1.95c-1.833-0.033-3.05-0.1-3.65-0.2
			c-0.833-0.133-2.267-0.267-4.3-0.4c-2.333-0.333-4.383-0.6-6.15-0.8C9.433-3.483,8.517-3.567,7.75-3.6c-0.8,0-1.483,0-2.05,0
			C4.1-3.7,3-3.75,2.4-3.75c-0.5,0-1,0.1-1.5,0.3C0.433-3.25,0.133-3.033,0-2.8c-0.1,0.2,0.217,0.383,0.95,0.55
			C1.55-2.083,2.1-2,2.6-2l6.85,0.5c4.667,0.467,7.733,0.717,9.2,0.75C20.05-0.717,22.967-0.467,27.4,0z"/>
	</g>
</symbol>
<symbol  id="flash0.ai_x5F_2_x2F_Layer_13_copy_x2F__x3C_Path_x3E__x5F_18" viewBox="0 -2.062 11.85 2.062">
	<g id="Layer_1_3_">
		<path style="fill-rule:evenodd;clip-rule:evenodd;fill:#784000;" d="M10.35-1.25c-2.067-0.333-3.6-0.5-4.6-0.5
			c-0.5,0-1.217-0.067-2.15-0.2c-0.833-0.1-1.383-0.133-1.65-0.1C1.65-2.017,1.4-1.933,1.2-1.8C1-1.6,0.8-1.5,0.6-1.5
			C0.2-1.433,0-1.35,0-1.25c0.033,0.133,0.367,0.2,1,0.2c1.067,0,2.35,0.083,3.85,0.25C5.75-0.7,7.133-0.533,9-0.3
			c0.5,0,1.45,0.1,2.85,0.3L10.35-1.25z"/>
	</g>
</symbol>
<symbol  id="flash0.ai_x5F_2_x2F_Layer_13_copy_x2F__x3C_Path_x3E__x5F_2" viewBox="-0.016 -0.904 2.178 0.904">
	<g id="Layer_1_19_">
		<path style="fill-rule:evenodd;clip-rule:evenodd;fill:#784000;" d="M0.75,0c0.567,0,1-0.133,1.3-0.4c0.3-0.3,0-0.467-0.9-0.5
			C0.283-0.933-0.1-0.783,0-0.45C0.133-0.15,0.383,0,0.75,0z"/>
	</g>
</symbol>
<symbol  id="flash0.ai_x5F_2_x2F_Layer_13_copy_x2F__x3C_Path_x3E__x5F_3" viewBox="-0.005 -1.169 3.45 1.174">
	<g id="Layer_1_18_">
		<path style="fill-rule:evenodd;clip-rule:evenodd;fill:#784000;" d="M3.4-0.45C3.567-0.783,3.267-1,2.5-1.1
			C0.967-1.267,0.133-1.133,0-0.7C-0.067-0.3,0.483-0.067,1.65,0C2.617,0.033,3.2-0.117,3.4-0.45z"/>
	</g>
</symbol>
<symbol  id="flash0.ai_x5F_2_x2F_Layer_13_copy_x2F__x3C_Path_x3E__x5F_4" viewBox="-0.045 -0.783 2.701 0.792">
	<g id="Layer_1_17_">
		<path style="fill-rule:evenodd;clip-rule:evenodd;fill:#784000;" d="M1.95,0c0.466-0.033,0.7-0.1,0.7-0.2
			C2.683-0.233,2.567-0.333,2.3-0.5C2.1-0.633,1.75-0.717,1.25-0.75C0.717-0.817,0.333-0.783,0.1-0.65
			C-0.167-0.517-0.067-0.367,0.4-0.2C0.867-0.033,1.383,0.033,1.95,0z"/>
	</g>
</symbol>
<symbol  id="flash0.ai_x5F_2_x2F_Layer_13_copy_x2F__x3C_Path_x3E__x5F_5" viewBox="-0.002 -0.85 3.215 0.817">
	<g id="Layer_1_16_">
		<path style="fill-rule:evenodd;clip-rule:evenodd;fill:#784000;" d="M1.75-0.05C2.817-0.083,3.3-0.183,3.2-0.35
			C3.167-0.45,2.917-0.6,2.45-0.8c-0.233-0.067-0.6-0.067-1.1,0c-0.533,0.066-0.934,0.183-1.2,0.35C-0.117-0.317-0.033-0.2,0.4-0.1
			C0.767-0.033,1.217-0.017,1.75-0.05z"/>
	</g>
</symbol>
<symbol  id="flash0.ai_x5F_2_x2F_Layer_13_copy_x2F__x3C_Path_x3E__x5F_6" viewBox="-0.017 -1.1 2.324 1.1">
	<g id="Layer_1_15_">
		<path style="fill-rule:evenodd;clip-rule:evenodd;fill:#784000;" d="M1.2,0c0.6,0,0.95-0.1,1.05-0.3
			c0.133-0.2,0.033-0.383-0.3-0.55C1.617-1.017,1.25-1.1,0.85-1.1S0.183-1,0.05-0.8c-0.133,0.167-0.066,0.35,0.2,0.55
			C0.517-0.083,0.833,0,1.2,0z"/>
	</g>
</symbol>
<symbol  id="flash0.ai_x5F_2_x2F_Layer_13_copy_x2F__x3C_Path_x3E__x5F_63" viewBox="0.033 -12.12 21.33 12.096">
	<g id="Layer_1_2_">
		<path style="fill-rule:evenodd;clip-rule:evenodd;fill:#4D2F0B;" d="M20-12c-0.5,0.333-0.85,0.567-1.05,0.7
			c-0.3,0.233-0.667,0.35-1.1,0.35c-0.467,0-0.817-0.117-1.05-0.35c-0.333-0.333-0.783-0.383-1.35-0.15l-0.15,1.1
			c-0.033,0.233-0.4,0.483-1.1,0.75c-0.667,0.267-1.25,0.4-1.75,0.4c-1.5,0-2.717,0.3-3.65,0.9C8.333-8,7.75-7.867,7.05-7.9
			c-0.767-0.067-1.333-0.083-1.7-0.05C4.883-7.917,4.317-7.567,3.65-6.9C3.083-6.333,2.733-5.85,2.6-5.45
			C2.533-5.183,2.317-4.7,1.95-4C1.517-3.267,1.267-2.783,1.2-2.55C1.1-2.283,0.9-2.067,0.6-1.9C0.3-1.7,0.117-1.5,0.05-1.3
			c-0.133,0.466,0.534,0.883,2,1.25C2.983,0.217,6.567-1.6,12.8-5.5c6.2-3.9,9.034-6.017,8.5-6.35C20.867-12.15,20.433-12.2,20-12z"
			/>
	</g>
</symbol>
<symbol  id="flash0.ai_x5F_2_x2F_Layer_13_copy_x2F__x3C_Path_x3E__x5F_7" viewBox="-0.006 -1.114 3.896 1.064">
	<g id="Layer_1_14_">
		<path style="fill-rule:evenodd;clip-rule:evenodd;fill:#784000;" d="M3.4-0.05c0.767,0,0.633-0.184-0.4-0.55
			C1.967-1,1.15-1.167,0.55-1.1C0.017-1.033-0.133-0.867,0.1-0.6s0.517,0.434,0.85,0.5C1.05-0.067,1.867-0.05,3.4-0.05z"/>
	</g>
</symbol>
<symbol  id="flash0.ai_x5F_2_x2F_Layer_13_copy_x2F__x3C_Path_x3E__x5F_8" viewBox="-0.002 -0.36 2.214 0.374">
	<g id="Layer_1_13_">
		<path style="fill-rule:evenodd;clip-rule:evenodd;fill:#784000;" d="M1.3-0.35C0.4-0.383-0.033-0.333,0-0.2
			c0.033,0.267,0.683,0.284,1.95,0.05C2.45-0.217,2.233-0.283,1.3-0.35z"/>
	</g>
</symbol>
<symbol  id="flash0.ai_x5F_2_x2F_Layer_13_copy_x2F__x3C_Path_x3E__x5F_9" viewBox="-0.025 -0.688 1.74 0.698">
	<g id="Layer_1_12_">
		<path style="fill-rule:evenodd;clip-rule:evenodd;fill:#784000;" d="M1,0c0.767-0.1,0.917-0.267,0.45-0.5
			C0.95-0.733,0.533-0.75,0.2-0.55c-0.3,0.133-0.3,0.267,0,0.4C0.467-0.017,0.733,0.033,1,0z"/>
	</g>
</symbol>
<g>
	
		<linearGradient id="SVGID_1_" gradientUnits="userSpaceOnUse" x1="17.5" y1="25.875" x2="42.1006" y2="25.875" gradientTransform="matrix(0.75 0 0 0.75 15.0498 12.6499)">
		<stop  offset="0" style="stop-color:#C4A04A"/>
		<stop  offset="1" style="stop-color:#9C7832"/>
	</linearGradient>
	<path style="fill-rule:evenodd;clip-rule:evenodd;fill:url(#SVGID_1_);" d="M46.55,24.763l0.075,2.813c-3,2.25-5.5,4.162-7.5,5.737
		c-1.425,1.125-4.163,3.138-8.213,6.037l-2.737-4.537l0.563-3.563c0.975-0.65,2.05-1.301,3.225-1.95
		c2.351-1.325,3.988-2.024,4.913-2.1C38.375,27.075,41.6,26.263,46.55,24.763z"/>
	<path style="fill-rule:evenodd;clip-rule:evenodd;fill:#E6B95E;" d="M45.875,25.213v2.925l-6.75,5.175
		c-0.625,0.5-3.051,2.287-7.275,5.362l-0.3-3.3l0.263-1.875l-2.362-2.7c3.649-2.3,6.125-3.5,7.425-3.6
		c1.175-0.075,3.813-0.713,7.912-1.913L45.875,25.213z"/>
	
		<linearGradient id="SVGID_2_" gradientUnits="userSpaceOnUse" x1="-16.4131" y1="10.6563" x2="37.7902" y2="10.6563" gradientTransform="matrix(0.595 0.4566 -0.4566 0.595 15.0497 12.6499)">
		<stop  offset="0" style="stop-color:#FDCB53"/>
		<stop  offset="1" style="stop-color:#D48801"/>
	</linearGradient>
	<path style="fill-rule:evenodd;clip-rule:evenodd;fill:url(#SVGID_2_);" d="M16.063,30.237c-0.175-0.375-0.325-0.899-0.45-1.575
		c-0.1-0.55-0.15-1.188-0.15-1.912l0.075-0.9C25.513,26.75,30.75,27.2,31.25,27.2l-0.638,6.487l0.3,5.662
		c-1.55-0.5-3.837-1.412-6.862-2.737c-2.925-1.274-5.138-2.726-6.638-4.35L16.063,30.237z"/>
	<path style="fill-rule:evenodd;clip-rule:evenodd;fill:#CCA658;" d="M15.537,25.813c0.2-1.875,1.663-3.237,4.388-4.088
		c3.45-1.075,6.663-1.45,9.638-1.125c1.175,0.125,3.925,0.738,8.25,1.838c3.199,0.8,6.112,1.575,8.737,2.325l-10.612,6.225
		l-4.388,4.388l-0.75,0.487c-1.325-0.275-2.875-0.725-4.65-1.35c-3.524-1.25-6.387-2.763-8.587-4.538
		C16.063,28.8,15.388,27.412,15.537,25.813z"/>
	<path style="fill-rule:evenodd;clip-rule:evenodd;fill:#EBD88D;" d="M38.563,30.088c-2.7,1.875-5.038,3.637-7.013,5.287
		c-2.35-0.425-4.513-1.138-6.487-2.138c-2.825-1.425-4.9-2.662-6.226-3.712c-2-1.626-2.637-3.051-1.912-4.275
		c1.425-2.45,4.825-3.862,10.2-4.237C29.1,20.888,32.825,21.55,38.3,23c2.726,0.725,5.25,1.463,7.575,2.213
		C43.875,26.462,41.438,28.087,38.563,30.088z"/>
	
		<use xlink:href="#flash0.ai_x5F_2_x2F_Layer_13_copy_x2F__x3C_Path_x3E__x5F_63"  width="21.33" height="12.096" x="0.033" y="-12.12" transform="matrix(0.75 0 0 -0.75 15.7998 26.7998)" style="overflow:visible;opacity:0.5;enable-background:new    ;"/>
	
		<linearGradient id="SVGID_3_" gradientUnits="userSpaceOnUse" x1="31.166" y1="-22.3057" x2="34.301" y2="-22.3057" gradientTransform="matrix(0.0598 0.7476 -0.7476 0.0598 15.0493 12.6503)">
		<stop  offset="0" style="stop-color:#B5882F"/>
		<stop  offset="1" style="stop-color:#E6B95E"/>
	</linearGradient>
	<path style="fill-rule:evenodd;clip-rule:evenodd;fill:url(#SVGID_3_);" d="M32.6,36.013c-0.024-0.476,0.175-0.938,0.601-1.388
		c0.425-0.425,0.787-0.525,1.087-0.3c0.325,0.225,0.475,0.575,0.45,1.05s-0.188,0.9-0.487,1.275
		c-0.325,0.399-0.662,0.563-1.013,0.487C32.838,37.037,32.625,36.662,32.6,36.013z"/>
	
		<linearGradient id="SVGID_4_" gradientUnits="userSpaceOnUse" x1="29.374" y1="-25.0654" x2="31.3049" y2="-25.0654" gradientTransform="matrix(0.0583 0.7477 -0.7477 0.0583 15.0502 12.65)">
		<stop  offset="0" style="stop-color:#B5882F"/>
		<stop  offset="1" style="stop-color:#E6B95E"/>
	</linearGradient>
	<path style="fill-rule:evenodd;clip-rule:evenodd;fill:url(#SVGID_4_);" d="M35.45,33.05c0.375-0.399,0.6-0.225,0.675,0.525
		c0.075,0.774-0.112,1.138-0.563,1.087c-0.426-0.025-0.613-0.25-0.563-0.675C35.024,33.638,35.175,33.324,35.45,33.05z"/>
	
		<linearGradient id="SVGID_5_" gradientUnits="userSpaceOnUse" x1="26.2803" y1="-30.2422" x2="28.863" y2="-30.2422" gradientTransform="matrix(0.0581 0.7477 -0.7477 0.0581 15.0504 12.6498)">
		<stop  offset="0" style="stop-color:#B5882F"/>
		<stop  offset="1" style="stop-color:#E6B95E"/>
	</linearGradient>
	<path style="fill-rule:evenodd;clip-rule:evenodd;fill:url(#SVGID_5_);" d="M39.313,30.237c0.8-0.225,1.063,0.112,0.787,1.013
		c-0.275,0.949-0.675,1.4-1.2,1.35c-0.475-0.025-0.675-0.375-0.6-1.05C38.4,30.85,38.737,30.412,39.313,30.237z"/>
	
		<linearGradient id="SVGID_6_" gradientUnits="userSpaceOnUse" x1="23.4751" y1="-34.3262" x2="25.381" y2="-34.3262" gradientTransform="matrix(0.059 0.7477 -0.7477 0.059 15.0503 12.6497)">
		<stop  offset="0" style="stop-color:#B5882F"/>
		<stop  offset="1" style="stop-color:#E6B95E"/>
	</linearGradient>
	<path style="fill-rule:evenodd;clip-rule:evenodd;fill:url(#SVGID_6_);" d="M42.125,27.987c0.4-0.149,0.662-0.088,0.787,0.188
		c0.125,0.226,0.125,0.5,0,0.825c-0.1,0.3-0.3,0.513-0.6,0.638c-0.35,0.149-0.625,0.087-0.825-0.188
		c-0.225-0.275-0.263-0.55-0.112-0.825C41.524,28.35,41.775,28.138,42.125,27.987z"/>
	
		<linearGradient id="SVGID_7_" gradientUnits="userSpaceOnUse" x1="22.1621" y1="-36.9102" x2="23.2148" y2="-36.9102" gradientTransform="matrix(0.0534 0.7481 -0.7481 0.0534 15.0495 12.6501)">
		<stop  offset="0" style="stop-color:#B5882F"/>
		<stop  offset="1" style="stop-color:#E6B95E"/>
	</linearGradient>
	<path style="fill-rule:evenodd;clip-rule:evenodd;fill:url(#SVGID_7_);" d="M44.149,27.162c0.275,0.226,0.301,0.463,0.075,0.713
		c-0.25,0.25-0.487,0.287-0.712,0.112c-0.2-0.149-0.188-0.362,0.037-0.638C43.8,27.075,44,27.013,44.149,27.162z"/>
	
		<linearGradient id="SVGID_8_" gradientUnits="userSpaceOnUse" x1="21.9946" y1="-38.5308" x2="23.5497" y2="-38.5308" gradientTransform="matrix(0.0603 0.7476 -0.7476 0.0603 15.0494 12.65)">
		<stop  offset="0" style="stop-color:#B5882F"/>
		<stop  offset="1" style="stop-color:#E6B95E"/>
	</linearGradient>
	<path style="fill-rule:evenodd;clip-rule:evenodd;fill:url(#SVGID_8_);" d="M45.388,27.95c-0.2,0.124-0.375,0.05-0.525-0.226
		c-0.101-0.175-0.013-0.449,0.263-0.824c0.25-0.4,0.4-0.488,0.45-0.263C45.699,27.388,45.637,27.825,45.388,27.95z"/>
	<path style="fill-rule:evenodd;clip-rule:evenodd;fill:#7A5215;" d="M45.537,23.3c0.1,0.175,0.15,0.438,0.15,0.788
		c0.25,0.925-0.238,1.462-1.463,1.612c-0.675,0.075-1.188,0.287-1.537,0.638c-0.176,0.199-0.413,0.612-0.713,1.237
		c-0.199,0.625-0.375,1.074-0.524,1.35c-0.251,0.475-0.688,0.862-1.313,1.163c-0.601,0.3-1.051,0.6-1.351,0.899
		c-0.375,0.475-0.763,0.913-1.162,1.313c-0.475,0.5-0.925,0.8-1.351,0.9C35.625,33.375,35.2,33.524,35,33.65
		c-0.325,0.199-0.813,0.563-1.463,1.087c-0.55,0.45-0.975,0.737-1.274,0.862c-0.325,0.15-0.775,0.075-1.351-0.225
		c-0.75-0.45-1.412-0.813-1.987-1.088c-0.625-0.3-1.738-0.575-3.338-0.824c-1.524-0.25-2.412-0.45-2.662-0.601
		c-0.85-0.575-1.875-0.763-3.075-0.563c-0.375,0.075-0.825-0.101-1.35-0.524c-0.55-0.525-0.925-0.876-1.125-1.051
		c-0.2-0.2-0.275-0.537-0.226-1.012c0.025-0.525-0.012-0.876-0.112-1.051c-0.1-0.175-0.387-0.412-0.862-0.712
		c-0.425-0.251-0.688-0.525-0.787-0.825c-0.125-0.35-0.088-0.663,0.112-0.938c0.075-0.101,0.337-0.375,0.787-0.825
		c0.275-0.274,0.413-0.537,0.413-0.787c-0.05-0.351-0.088-0.663-0.113-0.938c-0.05-0.351,0.363-0.9,1.238-1.65
		c0.824-0.675,1.4-1.037,1.725-1.087c3.075-0.301,7.575-0.351,13.5-0.15c6.3,0.25,9.938,0.688,10.912,1.313
		C44.862,22.638,45.388,23.05,45.537,23.3z"/>
	<path style="fill-rule:evenodd;clip-rule:evenodd;fill:#5E4007;" d="M45.612,23.525c0.024,0.1,0.05,0.287,0.075,0.563
		c0.25,0.925-0.238,1.462-1.463,1.612c-0.675,0.075-1.188,0.287-1.537,0.638c-0.176,0.199-0.413,0.612-0.713,1.237
		c-0.199,0.625-0.375,1.074-0.524,1.35c-0.251,0.475-0.688,0.862-1.313,1.163c-0.601,0.3-1.051,0.6-1.351,0.899
		c-0.375,0.475-0.763,0.913-1.162,1.313c-0.475,0.5-0.925,0.8-1.351,0.9C35.625,33.375,35.2,33.524,35,33.65
		c-0.325,0.199-0.813,0.563-1.463,1.087c-0.55,0.45-0.975,0.737-1.274,0.862c-0.325,0.175-0.838,0.063-1.538-0.337
		c0.125-0.45,0.338-0.688,0.638-0.713c0.425-0.024,0.85-0.212,1.275-0.563c0.1-0.075,0.337-0.3,0.712-0.675
		c0.1-0.125,0.475-0.313,1.125-0.563c0.801-0.325,1.275-0.525,1.425-0.6c0.676-0.4,1.363-1.025,2.063-1.875
		c0.275-0.326,0.737-0.638,1.388-0.938c0.7-0.326,1.15-0.588,1.351-0.788c0.249-0.225,0.449-0.725,0.6-1.5s0.338-1.287,0.563-1.537
		c0.3-0.3,0.875-0.487,1.725-0.563c0.425-0.05,0.913-0.101,1.463-0.15C45.3,24.774,45.487,24.35,45.612,23.525z"/>
	<path style="fill-rule:evenodd;clip-rule:evenodd;fill:#634506;" d="M17.375,30.725c-0.2-0.2-0.275-0.537-0.226-1.012
		c0.025-0.525-0.012-0.876-0.112-1.051c-0.1-0.175-0.387-0.412-0.862-0.712c-0.425-0.251-0.688-0.525-0.787-0.825
		c-0.125-0.4-0.038-0.775,0.262-1.125c0.275,0.6,0.738,1.162,1.388,1.688c0.475,0.375,0.713,0.85,0.713,1.425
		c0,0.625,0.062,1.013,0.188,1.163c0.275,0.3,0.712,0.574,1.313,0.824c0.6,0.25,1.125,0.362,1.575,0.338
		c0.399-0.05,0.912,0.05,1.537,0.3c0.225,0.075,0.775,0.325,1.65,0.75c0.35,0.175,1.037,0.313,2.063,0.413
		c1.025,0.1,1.762,0.262,2.212,0.487c1.351,0.699,2.375,1.087,3.075,1.162c0.25,0.025,0.399,0.4,0.45,1.125
		c-0.275-0.024-0.675-0.175-1.2-0.45c-0.825-0.475-1.388-0.787-1.688-0.938c-0.625-0.3-1.738-0.575-3.338-0.824
		c-1.524-0.25-2.412-0.45-2.662-0.601c-0.85-0.575-1.875-0.763-3.075-0.563c-0.375,0.075-0.825-0.101-1.35-0.524
		C17.95,31.25,17.575,30.899,17.375,30.725z"/>
	<path style="fill-rule:evenodd;clip-rule:evenodd;fill:#E3B309;" d="M47,21.987c0.075,0.35,0.012,0.838-0.188,1.463
		c0,0.574-0.287,0.888-0.862,0.938l-0.263-0.45c-0.25-0.35-0.85-0.075-1.8,0.825c-0.7,0.75-1.726,1.412-3.075,1.987
		c-0.601,0.25-1.213,0.675-1.838,1.275c-0.825,0.799-1.438,1.337-1.837,1.612c-0.55,0.399-1.226,0.925-2.025,1.575
		c-0.726,0.624-1.237,1.037-1.537,1.237c-1.251,0.899-2.338,1.313-3.263,1.237c-0.575-0.075-0.976-0.125-1.2-0.15
		c-0.325-0.025-0.55,0.025-0.675,0.15c-0.075,0.05-0.112,0.263-0.112,0.638c0,0.35-0.125,0.638-0.375,0.862
		c-0.525,0.45-1.025,0.225-1.5-0.675c-0.125-0.375-0.226-0.663-0.301-0.862c-0.125-0.351-0.337-0.65-0.637-0.9
		c-0.275-0.25-0.8-0.513-1.575-0.787c-0.976-0.375-1.726-0.713-2.25-1.013c-0.8-0.45-1.425-0.851-1.875-1.2
		c-0.35-0.3-0.825-0.775-1.425-1.425c-0.5-0.55-0.938-0.9-1.313-1.05c-0.226-0.101-0.601-0.188-1.125-0.263
		c-0.4-0.025-0.65-0.088-0.75-0.188c-0.1-0.101-0.125-0.288-0.075-0.563c-0.05-0.5-0.063-0.913-0.038-1.237
		c0.05-0.626,0.375-1.088,0.976-1.388c1.125-0.851,1.875-1.351,2.25-1.5c2.05-0.851,6.575-1.413,13.575-1.688
		c6.475-0.25,10.725-0.188,12.75,0.188C46.063,20.912,46.85,21.362,47,21.987z"/>
	<path style="fill-rule:evenodd;clip-rule:evenodd;fill:#FFD129;" d="M45.837,20.938c0.851,0.45,1.088,0.875,0.713,1.275
		c-0.2,0.199-0.649,0.425-1.35,0.675c-0.976,0.375-1.788,1.063-2.438,2.063c-0.226,0.375-0.688,0.688-1.388,0.938
		c-0.95,0.325-1.7,0.675-2.25,1.05c-1.025,0.675-1.75,1.188-2.175,1.537c-0.601,0.5-1.251,1.138-1.95,1.913
		c-1.45,1.624-3.075,2.438-4.875,2.438c-1.45,0-2.7-0.313-3.75-0.938c-2.45-1.3-3.95-2.175-4.5-2.625
		c-2.05-1.525-3.525-2.487-4.425-2.888c-0.55-0.25-1.051-0.6-1.5-1.05c-0.425-0.425-0.638-0.738-0.638-0.938
		c0-0.176,0.263-0.45,0.787-0.825c0.5-0.375,0.976-0.638,1.425-0.787c0.1-0.025,1.088-0.588,2.963-1.688
		c1.675-1.001,2.85-1.525,3.525-1.576c2.699-0.15,6.7-0.075,12,0.225C41.662,20.063,44.938,20.462,45.837,20.938z"/>
	<path style="fill-rule:evenodd;clip-rule:evenodd;fill:#FFEDA8;" d="M15.612,25.4c0.15,0.1,0.212,0.212,0.188,0.337
		c0,0.05-0.05,0.15-0.15,0.3c-0.05,0.075-0.037,0.125,0.038,0.15c0.1,0.05,0.149,0.138,0.149,0.263
		c0.025,0.175-0.037,0.287-0.188,0.337c-0.149,0.05-0.262,0-0.337-0.149c-0.025-0.075-0.025-0.213,0-0.413
		c0.05-0.225,0.05-0.438,0-0.637c-0.025-0.251-0.013-0.375,0.037-0.375C15.375,25.237,15.462,25.3,15.612,25.4z"/>
	<path style="fill-rule:evenodd;clip-rule:evenodd;fill:#FFEDA8;" d="M26.975,33.463c0.25,0.024,0.413,0.225,0.487,0.6
		c0.05,0.35,0.013,0.625-0.112,0.825c-0.175,0.274-0.437,0.024-0.787-0.75c-0.1-0.175-0.1-0.338,0-0.487
		C26.662,33.5,26.8,33.438,26.975,33.463z"/>
	<path style="fill-rule:evenodd;clip-rule:evenodd;fill:#FFEDA8;" d="M31.138,32.45c1.05-0.075,2.087-0.525,3.112-1.351
		c-0.375,0.375-0.763,0.7-1.163,0.976C32.763,32.3,32.5,32.45,32.3,32.525c-0.275,0.074-0.838,0.162-1.688,0.262
		c-0.75,0.101-1.525,0.063-2.325-0.112l-0.975-0.3l1.875,0.188C30.237,32.638,30.887,32.6,31.138,32.45z"/>
	<path style="fill-rule:evenodd;clip-rule:evenodd;fill:#FFEDA8;" d="M46.212,23.487c0.101,0.25,0.101,0.413,0,0.487
		C46.138,24.05,46.05,24,45.95,23.825c-0.101-0.125-0.101-0.275,0-0.45C46.05,23.225,46.138,23.263,46.212,23.487z"/>
	<path style="fill-rule:evenodd;clip-rule:evenodd;fill:#EBAC65;" d="M32.487,31.1c-0.65-0.225-1.149-0.388-1.5-0.487
		c-0.35-0.101-0.875-0.037-1.575,0.188c-0.8,0.274-1.438,0.4-1.912,0.375c-0.55-0.024-1.088-0.288-1.612-0.787
		c-0.5-0.476-0.9-0.713-1.2-0.713c-0.5,0-1.038-0.101-1.612-0.3c-0.576-0.2-1.038-0.438-1.388-0.713
		c-0.375-0.25-0.675-0.324-0.9-0.225c-0.25,0.125-0.375,0.412-0.375,0.862c0,0.4-0.087,0.625-0.263,0.675
		c-0.275,0-0.512-0.013-0.712-0.037c-0.275-0.025-0.475-0.188-0.601-0.487c-0.149-0.45-0.3-0.825-0.449-1.125
		c-0.15-0.3-0.175-0.713-0.075-1.237c0.075-0.5,0.05-0.851-0.075-1.051c-0.15-0.25-0.6-0.55-1.35-0.899
		c-1.025-0.476-1.55-0.726-1.575-0.75c-0.3-0.15-0.325-0.413-0.075-0.788c0.1-0.149,0.375-0.438,0.825-0.862
		c1.2-1.2,2.262-1.813,3.188-1.837c0.825-0.301,4.975-0.663,12.45-1.088c7.35-0.45,11.462-0.6,12.337-0.45
		c1.301,0.2,1.9,0.725,1.8,1.575c-0.024,0.225-0.2,0.462-0.524,0.713c-0.45,0.35-0.75,0.625-0.9,0.824
		c-0.199,0.301-0.425,0.513-0.675,0.638c-0.399,0.2-0.813,0.413-1.237,0.638c-0.525,0.274-0.788,0.638-0.788,1.088
		c-0.024,0.25,0,0.712,0.075,1.387c-0.025,0.525-0.199,0.851-0.524,0.976c-0.251,0.1-0.7,0.112-1.351,0.037
		c-0.625-0.075-1.05-0.112-1.274-0.112c-0.351,0.025-0.737,0.1-1.163,0.225c-0.6,0.226-1.112,1.025-1.537,2.4
		c-0.1,0.3,0.024,0.5,0.375,0.6c0.65,0.226,1,0.35,1.05,0.375c0.351,0.226,0.525,0.55,0.525,0.976
		c0.024,0.425-0.15,0.774-0.525,1.05c-0.351,0.275-0.688,0.325-1.013,0.15c-0.324-0.176-0.475-0.426-0.45-0.75
		c0.025-0.226-0.1-0.375-0.375-0.45c-0.324-0.075-0.5-0.163-0.524-0.263c-0.125-0.325-0.588-0.388-1.388-0.188
		C33.388,31.3,33.013,31.25,32.487,31.1z"/>
	<g>
		<path style="fill-rule:evenodd;clip-rule:evenodd;fill:#D1944F;" d="M45.725,20.225c0.125,0.226,0.162,0.463,0.112,0.713
			c-0.024,0.225-0.2,0.462-0.524,0.713c-0.45,0.35-0.75,0.625-0.9,0.824c-0.199,0.301-0.425,0.513-0.675,0.638
			c-0.399,0.2-0.813,0.413-1.237,0.638c-0.275,0.15-0.475,0.3-0.601,0.45c0.101-0.425,0.325-0.738,0.676-0.938
			c0.85-0.5,1.362-0.875,1.537-1.125c0.375-0.525,0.713-0.862,1.013-1.013C45.55,20.9,45.75,20.6,45.725,20.225z"/>
		<path style="fill-rule:evenodd;clip-rule:evenodd;fill:#D1944F;" d="M31.362,29.825c0.075,0.024,0.438,0.212,1.088,0.563
			c0.5,0.274,0.925,0.425,1.274,0.45c0.125,0,0.45-0.013,0.976-0.038c0.2-0.024,0.362,0.025,0.487,0.15
			c0.2,0.274,0.45,0.438,0.75,0.487c0.375,0.075,0.575,0.275,0.6,0.6c0.025,0.175,0.112,0.338,0.263,0.488
			c0.175,0.175,0.362,0.249,0.563,0.225c-0.351,0.275-0.688,0.325-1.013,0.15c-0.324-0.176-0.475-0.426-0.45-0.75
			c0.025-0.226-0.1-0.375-0.375-0.45c-0.324-0.075-0.5-0.163-0.524-0.263c-0.125-0.325-0.588-0.388-1.388-0.188
			c-0.225,0.05-0.6,0-1.125-0.15c-0.65-0.225-1.149-0.388-1.5-0.487c-0.35-0.101-0.875-0.037-1.575,0.188
			c-0.8,0.274-1.438,0.4-1.912,0.375c-0.55-0.024-1.088-0.288-1.612-0.787c-0.5-0.476-0.9-0.713-1.2-0.713
			c-0.5,0-1.038-0.101-1.612-0.3c-0.576-0.2-1.038-0.438-1.388-0.713c-0.375-0.25-0.675-0.324-0.9-0.225
			c-0.25,0.125-0.375,0.412-0.375,0.862c0,0.4-0.087,0.625-0.263,0.675c-0.275,0-0.512-0.013-0.712-0.037
			c-0.3-0.025-0.513-0.213-0.638-0.563c0.775,0.225,1.212,0,1.313-0.675c0.05-0.375,0.238-0.601,0.563-0.675
			c0.275-0.075,0.575-0.025,0.9,0.149c0.2,0.125,0.575,0.351,1.125,0.675c0.5,0.25,0.912,0.388,1.237,0.413
			c0.35,0.024,0.762,0.137,1.237,0.337c0.45,0.175,0.75,0.325,0.9,0.45c0.125,0.1,0.262,0.063,0.412-0.112
			c0.125-0.15,0.188-0.287,0.188-0.412c0-0.075,0.7-0.075,2.1,0C30.2,29.6,31.063,29.7,31.362,29.825z"/>
		<path style="fill-rule:evenodd;clip-rule:evenodd;fill:#D1944F;" d="M18.237,26.037c-0.15-0.25-0.6-0.55-1.35-0.899
			c-1.025-0.476-1.55-0.726-1.575-0.75c-0.175-0.075-0.263-0.213-0.263-0.413c0.275,0.125,0.512,0.213,0.713,0.263
			c0.6,0.15,1.187,0.425,1.762,0.825c0.75,0.5,1.038,0.95,0.863,1.35l-0.038,0.113C18.35,26.35,18.313,26.188,18.237,26.037z"/>
		<path style="fill-rule:evenodd;clip-rule:evenodd;fill:#D1944F;" d="M37.475,27.35c-0.6,0.226-1.112,1.025-1.537,2.4
			c-0.1,0.25-0.038,0.438,0.188,0.563c0.149,0.05,0.425,0.125,0.825,0.225c-0.476-0.05-0.801-0.137-0.976-0.262
			c-0.3-0.226-0.475-0.363-0.524-0.413c-0.126-0.149-0.15-0.337-0.075-0.563c0.1-0.275,0.3-0.675,0.6-1.2
			c0.3-0.574,0.5-0.912,0.601-1.012C37,26.662,37.475,26.513,38,26.638c1.25,0.25,2.15,0.35,2.7,0.3
			c0.575-0.05,0.938-0.412,1.087-1.088v0.375c-0.025,0.525-0.199,0.851-0.524,0.976c-0.251,0.1-0.7,0.112-1.351,0.037
			c-0.625-0.075-1.05-0.112-1.274-0.112C38.287,27.15,37.9,27.225,37.475,27.35z"/>
	</g>
	<path style="fill-rule:evenodd;clip-rule:evenodd;fill:#FFD4A1;" d="M15.837,23.338c0.125,0.05,0.125,0.175,0,0.375
		c-0.149,0.175-0.275,0.225-0.375,0.149c-0.125-0.05-0.125-0.162,0-0.337C15.587,23.35,15.712,23.287,15.837,23.338z"/>
	<path style="fill-rule:evenodd;clip-rule:evenodd;fill:#FFD4A1;" d="M18.649,28.588L18.462,27.8
		c-0.074-0.2-0.062-0.388,0.038-0.563c0.1-0.149,0.2-0.225,0.3-0.225c0.175-0.025,0.263,0.337,0.263,1.087
		c0.025,0.125,0.112,0.25,0.263,0.375c0.174,0.101,0.262,0.188,0.262,0.263c0,0.125-0.087,0.237-0.262,0.338
		c-0.175,0.1-0.325,0.112-0.45,0.037C18.775,29.063,18.7,28.888,18.649,28.588z"/>
	<path style="fill-rule:evenodd;clip-rule:evenodd;fill:#FFD4A1;" d="M19.55,27.612c0.25,0.075,0.338,0.188,0.263,0.338
		c-0.075,0.175-0.188,0.25-0.338,0.225c-0.1-0.024-0.137-0.125-0.112-0.3C19.387,27.675,19.45,27.587,19.55,27.612z"/>
	<path style="fill-rule:evenodd;clip-rule:evenodd;fill:#FFD4A1;" d="M18.912,26.225c0.125,0.075,0.2,0.213,0.226,0.413
		c0,0.175-0.113,0.225-0.338,0.149c-0.25-0.074-0.325-0.212-0.225-0.412C18.649,26.2,18.763,26.15,18.912,26.225z"/>
	<path style="fill-rule:evenodd;clip-rule:evenodd;fill:#FFD4A1;" d="M33.649,29.975c0.2-0.025,0.426,0.038,0.676,0.188
		c0.274,0.15,0.337,0.263,0.188,0.338c-0.126,0.075-0.351,0.1-0.676,0.075c-0.324-0.051-0.563-0.112-0.712-0.188
		C32.899,30.188,33.074,30.05,33.649,29.975z"/>
	<path style="fill-rule:evenodd;clip-rule:evenodd;fill:#FFD4A1;" d="M35.6,30.763c0.175-0.051,0.388,0,0.638,0.149
		c0.25,0.15,0.325,0.275,0.225,0.375c-0.1,0.101-0.225,0.113-0.375,0.038c-0.249-0.15-0.388-0.226-0.412-0.226
		c-0.15-0.05-0.225-0.125-0.225-0.225C35.45,30.8,35.5,30.763,35.6,30.763z"/>
	<path style="fill-rule:evenodd;clip-rule:evenodd;fill:#FFD4A1;" d="M37.212,31.588c0.476,0.049,0.513,0.324,0.113,0.824
		c-0.075,0.101-0.175,0.113-0.301,0.038c-0.125-0.075-0.225-0.188-0.3-0.338c-0.075-0.125-0.05-0.25,0.075-0.375
		C36.899,31.612,37.037,31.563,37.212,31.588z"/>
	<path style="fill-rule:evenodd;clip-rule:evenodd;fill:#FFD4A1;" d="M35.149,28.813c0.15-0.176,0.263-0.287,0.338-0.338
		c0.1-0.025,0.075,0.038-0.075,0.188c-0.075,0.075-0.137,0.238-0.188,0.488c-0.05,0.199-0.112,0.287-0.188,0.262
		c-0.1-0.025-0.125-0.112-0.075-0.262C34.987,29.024,35.05,28.912,35.149,28.813z"/>
	<path style="fill-rule:evenodd;clip-rule:evenodd;fill:#FFD4A1;" d="M39.274,26.075c0.101,0.05,0.338,0.037,0.713-0.038
		c0.225-0.05,0.563-0.125,1.013-0.225c0.4-0.101,0.362,0.15-0.112,0.75c-0.126,0.15-0.413,0.2-0.863,0.15
		c-0.35-0.025-0.712-0.101-1.087-0.226c-0.25-0.075-0.3-0.188-0.15-0.337C38.938,26.025,39.1,26,39.274,26.075z"/>
	<path style="fill-rule:evenodd;clip-rule:evenodd;fill:#FFD4A1;" d="M41.225,24.537c0.125,0.05,0.15,0.15,0.075,0.301
		c-0.075,0.175-0.188,0.212-0.338,0.112c-0.149-0.075-0.162-0.176-0.037-0.3C41.075,24.55,41.175,24.513,41.225,24.537z"/>
	<path style="fill-rule:evenodd;clip-rule:evenodd;fill:#FFD4A1;" d="M43.399,22.213c0.2,0,0.237,0.05,0.113,0.149
		c-0.175,0.125-0.301,0.2-0.375,0.226c-0.101,0.074-0.237,0.124-0.413,0.149c-0.199,0.025-0.313,0.013-0.337-0.037
		c-0.025-0.025,0.112-0.112,0.412-0.263S43.3,22.213,43.399,22.213z"/>
	
		<linearGradient id="SVGID_9_" gradientUnits="userSpaceOnUse" x1="17.25" y1="15.4751" x2="41.8506" y2="15.4751" gradientTransform="matrix(0.75 0 0 0.75 15.0498 12.6499)">
		<stop  offset="0" style="stop-color:#C4A04A"/>
		<stop  offset="1" style="stop-color:#9C7832"/>
	</linearGradient>
	<path style="fill-rule:evenodd;clip-rule:evenodd;fill:url(#SVGID_9_);" d="M46.362,16.962l0.075,2.813
		c-3,2.25-5.5,4.163-7.5,5.738c-1.425,1.1-4.163,3.112-8.213,6.037l-2.737-4.537l0.563-3.563c0.975-0.65,2.05-1.301,3.225-1.95
		c2.351-1.325,3.988-2.025,4.913-2.1C38.188,19.275,41.412,18.462,46.362,16.962z"/>
	<path style="fill-rule:evenodd;clip-rule:evenodd;fill:#E6B95E;" d="M45.649,17.413l0.038,2.925l-6.75,5.175
		c-1,0.774-3.426,2.562-7.275,5.362l-0.3-3.3l0.263-1.875l-2.4-2.7c3.75-2.3,6.238-3.5,7.463-3.6c1.1-0.075,3.737-0.712,7.912-1.913
		L45.649,17.413z"/>
	
		<linearGradient id="SVGID_10_" gradientUnits="userSpaceOnUse" x1="-0.2197" y1="3.2559" x2="28.8045" y2="3.2559" gradientTransform="matrix(0.6111 0.4348 -0.4348 0.6111 15.0497 12.6493)">
		<stop  offset="0" style="stop-color:#FDCB53"/>
		<stop  offset="1" style="stop-color:#D48801"/>
	</linearGradient>
	<path style="fill-rule:evenodd;clip-rule:evenodd;fill:url(#SVGID_10_);" d="M31.024,19.4l-0.6,6.488l0.3,5.662
		c-1.55-0.5-3.837-1.413-6.862-2.737c-2.925-1.275-5.138-2.726-6.638-4.35l-1.388-2.025c-0.149-0.4-0.287-0.925-0.412-1.575
		c-0.175-0.875-0.2-1.813-0.075-2.813C25.3,18.95,30.525,19.4,31.024,19.4z"/>
	<path style="fill-rule:evenodd;clip-rule:evenodd;fill:#C98000;" d="M31.362,27.575l-0.75,0.487
		c-1.325-0.275-2.875-0.725-4.65-1.35c-3.549-1.25-6.425-2.763-8.625-4.538C15.862,21,15.2,19.612,15.35,18.012
		c0.2-1.875,1.663-3.237,4.388-4.087c3.45-1.075,6.663-1.45,9.638-1.125c1.2,0.125,3.95,0.737,8.25,1.837
		c3.199,0.8,6.112,1.575,8.737,2.325l-10.65,6.225L31.362,27.575z"/>
	<path style="fill-rule:evenodd;clip-rule:evenodd;fill:#FFD875;" d="M38.337,22.287c-2.699,1.875-5.024,3.638-6.975,5.288
		c-2.375-0.45-4.55-1.163-6.525-2.138c-2.825-1.425-4.899-2.662-6.225-3.713c-2-1.625-2.625-3.05-1.875-4.275
		c1.425-2.45,4.825-3.862,10.2-4.237c1.975-0.125,5.688,0.538,11.138,1.987c2.725,0.725,5.25,1.463,7.574,2.213
		C43.65,18.662,41.213,20.287,38.337,22.287z"/>
	
		<linearGradient id="SVGID_11_" gradientUnits="userSpaceOnUse" x1="20.3843" y1="-6.0674" x2="24.5494" y2="-6.0674" gradientTransform="matrix(0.4457 0.6032 -0.6032 0.4457 15.0501 12.6499)">
		<stop  offset="0" style="stop-color:#E6B95E"/>
		<stop  offset="1" style="stop-color:#FFD875"/>
	</linearGradient>
	<path style="fill-rule:evenodd;clip-rule:evenodd;fill:url(#SVGID_11_);" d="M28.212,22.25c1.326,0.025,2.213,0.2,2.663,0.525
		c0.425,0.3,0.438,0.612,0.037,0.938c-1.025,0.949-2.525,1.024-4.5,0.225C25.938,23.737,26,23.4,26.6,22.925
		C27.2,22.475,27.737,22.25,28.212,22.25z"/>
	
		<linearGradient id="SVGID_12_" gradientUnits="userSpaceOnUse" x1="13.7666" y1="-2.9902" x2="15.9466" y2="-2.9902" gradientTransform="matrix(0.4472 0.6021 -0.6021 0.4472 15.0492 12.6496)">
		<stop  offset="0" style="stop-color:#E6B95E"/>
		<stop  offset="1" style="stop-color:#FFD875"/>
	</linearGradient>
	<path style="fill-rule:evenodd;clip-rule:evenodd;fill:url(#SVGID_12_);" d="M23.3,19.663c1.45,0.025,1.862,0.275,1.237,0.75
		c-0.65,0.525-1.288,0.663-1.912,0.413c-0.5-0.176-0.613-0.425-0.338-0.75C22.537,19.775,22.875,19.638,23.3,19.663z"/>
	
		<linearGradient id="SVGID_13_" gradientUnits="userSpaceOnUse" x1="16.4751" y1="4.9922" x2="23.3251" y2="4.9922" gradientTransform="matrix(0.75 0 0 0.75 15.0498 12.6499)">
		<stop  offset="0" style="stop-color:#E6B95E"/>
		<stop  offset="1" style="stop-color:#FFD875"/>
	</linearGradient>
	<path style="fill-rule:evenodd;clip-rule:evenodd;fill:url(#SVGID_13_);" d="M29.75,15.462c1.675-0.025,2.6,0.188,2.774,0.638
		c0.175,0.45-0.3,0.8-1.425,1.05c-1.675,0.4-2.875,0.125-3.6-0.825C27.15,15.8,27.9,15.513,29.75,15.462z"/>
	
		<linearGradient id="SVGID_14_" gradientUnits="userSpaceOnUse" x1="18.2124" y1="-17.6963" x2="19.5874" y2="-17.6963" gradientTransform="matrix(0.45 0.6 -0.6 0.45 15.0493 12.6498)">
		<stop  offset="0" style="stop-color:#E6B95E"/>
		<stop  offset="1" style="stop-color:#FFD875"/>
	</linearGradient>
	<path style="fill-rule:evenodd;clip-rule:evenodd;fill:url(#SVGID_14_);" d="M34.287,15.65c0.575,0.05,0.788,0.188,0.638,0.413
		c-0.15,0.25-0.487,0.35-1.013,0.3c-0.475-0.05-0.65-0.188-0.524-0.413C33.537,15.725,33.837,15.625,34.287,15.65z"/>
	
		<linearGradient id="SVGID_15_" gradientUnits="userSpaceOnUse" x1="21.7241" y1="-22.6445" x2="24.2992" y2="-22.6445" gradientTransform="matrix(0.4442 0.6043 -0.6043 0.4442 15.0497 12.65)">
		<stop  offset="0" style="stop-color:#E6B95E"/>
		<stop  offset="1" style="stop-color:#FFD875"/>
	</linearGradient>
	<path style="fill-rule:evenodd;clip-rule:evenodd;fill:url(#SVGID_15_);" d="M38.975,15.837c0.575,0.025,1,0.137,1.275,0.337
		c0.25,0.2,0.25,0.375,0,0.525c-0.25,0.15-0.601,0.238-1.05,0.263c-0.525,0.025-1-0.038-1.426-0.188
		c-0.449-0.175-0.5-0.375-0.149-0.6C37.949,15.925,38.4,15.813,38.975,15.837z"/>
	
		<linearGradient id="SVGID_16_" gradientUnits="userSpaceOnUse" x1="22.5698" y1="-16.4067" x2="25.1799" y2="-16.4067" gradientTransform="matrix(0.4454 0.6034 -0.6034 0.4454 15.0501 12.6495)">
		<stop  offset="0" style="stop-color:#E6B95E"/>
		<stop  offset="1" style="stop-color:#FFD875"/>
	</linearGradient>
	<path style="fill-rule:evenodd;clip-rule:evenodd;fill:url(#SVGID_16_);" d="M35.787,19.137c0.976-0.05,1.45,0.087,1.425,0.413
		c-0.024,0.275-0.324,0.513-0.899,0.713c-0.475,0.149-0.85,0.212-1.125,0.188c-0.275-0.025-0.638-0.138-1.088-0.338
		c-0.399-0.2-0.362-0.413,0.112-0.637C34.662,19.275,35.188,19.162,35.787,19.137z"/>
	
		<linearGradient id="SVGID_17_" gradientUnits="userSpaceOnUse" x1="15.9165" y1="-8.4072" x2="19.1865" y2="-8.4072" gradientTransform="matrix(0.4472 0.6021 -0.6021 0.4472 15.0492 12.6496)">
		<stop  offset="0" style="stop-color:#E6B95E"/>
		<stop  offset="1" style="stop-color:#FFD875"/>
	</linearGradient>
	<path style="fill-rule:evenodd;clip-rule:evenodd;fill:url(#SVGID_17_);" d="M28.813,18.462c0.575,0.025,0.875,0.2,0.899,0.525
		c0.025,0.225-0.074,0.488-0.3,0.788c-0.2,0.325-1.15,0.363-2.85,0.112c-0.85-0.15-0.938-0.437-0.263-0.862
		C26.95,18.625,27.787,18.438,28.813,18.462z"/>
	
		<linearGradient id="SVGID_18_" gradientUnits="userSpaceOnUse" x1="20.1411" y1="-23.6919" x2="23.2761" y2="-23.6919" gradientTransform="matrix(0.0598 0.7476 -0.7476 0.0598 15.0493 12.6503)">
		<stop  offset="0" style="stop-color:#B5882F"/>
		<stop  offset="1" style="stop-color:#E6B95E"/>
	</linearGradient>
	<path style="fill-rule:evenodd;clip-rule:evenodd;fill:url(#SVGID_18_);" d="M32.975,27.65c-0.024-0.476,0.175-0.926,0.601-1.351
		c0.425-0.45,0.787-0.563,1.087-0.337c0.325,0.225,0.475,0.587,0.45,1.087c-0.024,0.476-0.188,0.9-0.487,1.275
		c-0.325,0.375-0.662,0.524-1.013,0.45C33.213,28.7,33,28.325,32.975,27.65z"/>
	
		<linearGradient id="SVGID_19_" gradientUnits="userSpaceOnUse" x1="18.2622" y1="-26.5068" x2="19.7923" y2="-26.5068" gradientTransform="matrix(0.0613 0.7475 -0.7475 0.0613 15.0504 12.65)">
		<stop  offset="0" style="stop-color:#B5882F"/>
		<stop  offset="1" style="stop-color:#E6B95E"/>
	</linearGradient>
	<path style="fill-rule:evenodd;clip-rule:evenodd;fill:url(#SVGID_19_);" d="M36.125,24.463c0.35-0.025,0.463,0.237,0.337,0.787
		c-0.125,0.55-0.35,0.763-0.675,0.638c-0.275-0.125-0.324-0.4-0.149-0.825C35.787,24.688,35.95,24.487,36.125,24.463z"/>
	
		<linearGradient id="SVGID_20_" gradientUnits="userSpaceOnUse" x1="13.6533" y1="-35.3818" x2="15.3848" y2="-35.3818" gradientTransform="matrix(0.065 0.7472 -0.7472 0.065 15.05 12.6501)">
		<stop  offset="0" style="stop-color:#B5882F"/>
		<stop  offset="1" style="stop-color:#E6B95E"/>
	</linearGradient>
	<path style="fill-rule:evenodd;clip-rule:evenodd;fill:url(#SVGID_20_);" d="M42.462,20.338c0.95-0.075,1.251,0.162,0.9,0.712
		s-0.837,0.862-1.463,0.938c-0.524,0.025-0.675-0.225-0.449-0.75C41.65,20.688,41.987,20.388,42.462,20.338z"/>
	
		<linearGradient id="SVGID_21_" gradientUnits="userSpaceOnUse" x1="17.0742" y1="-31.2734" x2="19.3809" y2="-31.2734" gradientTransform="matrix(0.0569 0.7478 -0.7478 0.0569 15.0501 12.6495)">
		<stop  offset="0" style="stop-color:#B5882F"/>
		<stop  offset="1" style="stop-color:#E6B95E"/>
	</linearGradient>
	<path style="fill-rule:evenodd;clip-rule:evenodd;fill:url(#SVGID_21_);" d="M38.938,25.513c-0.125-0.275-0.213-0.563-0.263-0.862
		c-0.101-0.601,0.05-1.001,0.45-1.2c0.4-0.2,0.712-0.101,0.938,0.3c0.125,0.2,0.199,0.412,0.225,0.638L38.938,25.513z"/>
	
		<linearGradient id="SVGID_22_" gradientUnits="userSpaceOnUse" x1="11.8013" y1="-38.1431" x2="12.9058" y2="-38.1431" gradientTransform="matrix(0.0679 0.7469 -0.7469 0.0679 15.0501 12.6499)">
		<stop  offset="0" style="stop-color:#B5882F"/>
		<stop  offset="1" style="stop-color:#E6B95E"/>
	</linearGradient>
	<path style="fill-rule:evenodd;clip-rule:evenodd;fill:url(#SVGID_22_);" d="M44.337,18.762c0.525,0,0.7,0.175,0.525,0.525
		s-0.425,0.512-0.75,0.487c-0.274-0.025-0.351-0.2-0.225-0.525C43.987,18.925,44.137,18.762,44.337,18.762z"/>
	
		<use xlink:href="#flash0.ai_x5F_2_x2F_Layer_13_copy_x2F__x3C_Path_x3E__x5F_18"  width="11.85" height="2.062" y="-2.062" transform="matrix(0.75 0 0 -0.75 25.3999 25.1504)" style="overflow:visible;opacity:0.5898;enable-background:new    ;"/>
	
		<use xlink:href="#flash0.ai_x5F_2_x2F_Layer_13_copy_x2F__x3C_Path_x3E__x5F_17"  width="27.418" height="3.75" x="-0.018" y="-3.75" transform="matrix(0.75 0 0 -0.75 19.8501 20.8496)" style="overflow:visible;opacity:0.5898;enable-background:new    ;"/>
	
		<use xlink:href="#flash0.ai_x5F_2_x2F_Layer_13_copy_x2F__x3C_Path_x3E__x5F_16"  width="40.35" height="3.069" y="-3.079" transform="matrix(0.75 0 0 -0.75 15.5498 17.25)" style="overflow:visible;opacity:0.5898;enable-background:new    ;"/>
	
		<use xlink:href="#flash0.ai_x5F_2_x2F_Layer_13_copy_x2F__x3C_Path_x3E__x5F_15"  width="28.916" height="1.874" x="-0.016" y="-1.867" transform="matrix(0.75 0 0 -0.75 17.7998 13.9502)" style="overflow:visible;opacity:0.5898;enable-background:new    ;"/>
	
		<use xlink:href="#flash0.ai_x5F_2_x2F_Layer_13_copy_x2F__x3C_Path_x3E__x5F_14"  width="1.944" height="0.633" x="0.086" y="-0.633" transform="matrix(0.75 0 0 -0.75 18.6499 17.25)" style="overflow:visible;opacity:0.5898;enable-background:new    ;"/>
	
		<use xlink:href="#flash0.ai_x5F_2_x2F_Layer_13_copy_x2F__x3C_Path_x3E__x5F_13"  width="3.302" height="0.792" y="-0.767" transform="matrix(0.75 0 0 -0.75 23.0498 16.75)" style="overflow:visible;opacity:0.5898;enable-background:new    ;"/>
	
		<use xlink:href="#flash0.ai_x5F_2_x2F_Layer_13_copy_x2F__x3C_Path_x3E__x5F_12"  width="1.237" height="0.408" x="-0.012" y="-0.4" transform="matrix(0.75 0 0 -0.75 25.7002 17.1499)" style="overflow:visible;opacity:0.5898;enable-background:new    ;"/>
	
		<use xlink:href="#flash0.ai_x5F_2_x2F_Layer_13_copy_x2F__x3C_Path_x3E__x5F_11"  width="3.229" height="0.909" x="-0.003" y="-0.895" transform="matrix(0.75 0 0 -0.75 33.4502 16.7002)" style="overflow:visible;opacity:0.5898;enable-background:new    ;"/>
	
		<use xlink:href="#flash0.ai_x5F_2_x2F_Layer_13_copy_x2F__x3C_Path_x3E__x5F_10"  width="2.189" height="0.664" x="-0.044" y="-0.657" transform="matrix(0.75 0 0 -0.75 35.4004 15.25)" style="overflow:visible;opacity:0.5898;enable-background:new    ;"/>
	
		<use xlink:href="#flash0.ai_x5F_2_x2F_Layer_13_copy_x2F__x3C_Path_x3E__x5F_9"  width="1.74" height="0.698" x="-0.025" y="-0.688" transform="matrix(0.75 0 0 -0.75 19.6001 15.4502)" style="overflow:visible;opacity:0.5898;enable-background:new    ;"/>
	
		<use xlink:href="#flash0.ai_x5F_2_x2F_Layer_13_copy_x2F__x3C_Path_x3E__x5F_8"  width="2.214" height="0.374" x="-0.002" y="-0.36" transform="matrix(0.75 0 0 -0.75 22.5498 13.6001)" style="overflow:visible;opacity:0.5898;enable-background:new    ;"/>
	
		<use xlink:href="#flash0.ai_x5F_2_x2F_Layer_13_copy_x2F__x3C_Path_x3E__x5F_7"  width="3.896" height="1.064" x="-0.006" y="-1.114" transform="matrix(0.75 0 0 -0.75 16.8501 19.8501)" style="overflow:visible;opacity:0.5898;enable-background:new    ;"/>
	
		<use xlink:href="#flash0.ai_x5F_2_x2F_Layer_13_copy_x2F__x3C_Path_x3E__x5F_6"  width="2.324" height="1.1" x="-0.017" y="-1.1" transform="matrix(0.75 0 0 -0.75 19.2002 20.2998)" style="overflow:visible;opacity:0.5898;enable-background:new    ;"/>
	
		<use xlink:href="#flash0.ai_x5F_2_x2F_Layer_13_copy_x2F__x3C_Path_x3E__x5F_5"  width="3.215" height="0.817" x="-0.002" y="-0.85" transform="matrix(0.75 0 0 -0.75 30.5 19.2998)" style="overflow:visible;opacity:0.5898;enable-background:new    ;"/>
	
		<use xlink:href="#flash0.ai_x5F_2_x2F_Layer_13_copy_x2F__x3C_Path_x3E__x5F_4"  width="2.701" height="0.792" x="-0.045" y="-0.783" transform="matrix(0.75 0 0 -0.75 38.9004 19.9502)" style="overflow:visible;opacity:0.5898;enable-background:new    ;"/>
	
		<use xlink:href="#flash0.ai_x5F_2_x2F_Layer_13_copy_x2F__x3C_Path_x3E__x5F_3"  width="3.45" height="1.174" x="-0.005" y="-1.169" transform="matrix(0.75 0 0 -0.75 29.3999 23.2002)" style="overflow:visible;opacity:0.5898;enable-background:new    ;"/>
	
		<use xlink:href="#flash0.ai_x5F_2_x2F_Layer_13_copy_x2F__x3C_Path_x3E__x5F_2"  width="2.178" height="0.904" x="-0.016" y="-0.904" transform="matrix(0.75 0 0 -0.75 24.0498 24.0996)" style="overflow:visible;opacity:0.5898;enable-background:new    ;"/>
	
		<use xlink:href="#flash0.ai_x5F_2_x2F_Layer_13_copy_x2F__x3C_Path_x3E__x5F_1"  width="2.694" height="1.263" x="-0.012" y="-1.257" transform="matrix(0.75 0 0 -0.75 25.5498 24.7002)" style="overflow:visible;opacity:0.5898;enable-background:new    ;"/>
	
		<use xlink:href="#flash0.ai_x5F_2_x2F_Layer_13_copy_x2F__x3C_Path_x3E_"  width="2.586" height="1.033" x="-0.033" y="-1.033" transform="matrix(0.75 0 0 -0.75 34.4004 22.9502)" style="overflow:visible;opacity:0.5898;enable-background:new    ;"/>
</g>
<g>
	<path style="fill-rule:evenodd;clip-rule:evenodd;fill-opacity:0.251;" d="M35.35,36.35L21.5,23.7l27.25,4.95
		C46.483,31.983,42.017,34.55,35.35,36.35z"/>
</g>
<g>
	
		<linearGradient id="SVGID_23_" gradientUnits="userSpaceOnUse" x1="17.501" y1="25.875" x2="42.126" y2="25.875" gradientTransform="matrix(-0.75 0 0 0.75 52.7002 8.6001)">
		<stop  offset="0" style="stop-color:#C4A04A"/>
		<stop  offset="1" style="stop-color:#9C7832"/>
	</linearGradient>
	<path style="fill-rule:evenodd;clip-rule:evenodd;fill:url(#SVGID_23_);" d="M21.2,20.713l-0.075,2.813c3,2.25,5.5,4.162,7.5,5.737
		c1.424,1.125,4.163,3.138,8.212,6.037l2.737-4.537L39.013,27.2c-0.975-0.649-2.05-1.3-3.225-1.95
		c-2.351-1.324-3.988-2.025-4.913-2.1C29.375,23.025,26.15,22.213,21.2,20.713z"/>
	<path style="fill-rule:evenodd;clip-rule:evenodd;fill:#E6B95E;" d="M21.875,21.162v2.926l6.75,5.175
		c0.625,0.5,3.05,2.287,7.275,5.362l0.3-3.3l-0.263-1.875l2.362-2.7c-3.649-2.3-6.125-3.5-7.425-3.6
		c-1.175-0.075-3.813-0.713-7.913-1.913L21.875,21.162z"/>
	
		<linearGradient id="SVGID_24_" gradientUnits="userSpaceOnUse" x1="-16.4131" y1="10.6572" x2="37.7902" y2="10.6572" gradientTransform="matrix(-0.595 0.4566 0.4566 0.595 52.6999 8.6001)">
		<stop  offset="0" style="stop-color:#FDCB53"/>
		<stop  offset="1" style="stop-color:#D48801"/>
	</linearGradient>
	<path style="fill-rule:evenodd;clip-rule:evenodd;fill:url(#SVGID_24_);" d="M52.288,22.7l-0.075-0.9
		C42.237,22.7,37,23.15,36.5,23.15l0.638,6.487l-0.3,5.662c1.55-0.499,3.838-1.412,6.862-2.737c2.925-1.275,5.138-2.725,6.638-4.35
		l1.35-2.025c0.175-0.375,0.325-0.9,0.45-1.575C52.237,24.063,52.288,23.425,52.288,22.7z"/>
	<path style="fill-rule:evenodd;clip-rule:evenodd;fill:#CCA658;" d="M52.213,21.763c-0.2-1.875-1.663-3.237-4.388-4.087
		c-3.45-1.075-6.662-1.45-9.638-1.125c-1.175,0.125-3.925,0.737-8.25,1.837c-3.199,0.8-6.112,1.575-8.737,2.325l10.612,6.225
		l4.388,4.388l0.75,0.487c1.325-0.275,2.875-0.725,4.65-1.35c3.524-1.25,6.388-2.763,8.587-4.538
		C51.688,24.75,52.362,23.362,52.213,21.763z"/>
	<path style="fill-rule:evenodd;clip-rule:evenodd;fill:#EBD88D;" d="M29.188,26.037c2.7,1.875,5.038,3.638,7.012,5.288
		c2.35-0.425,4.513-1.138,6.487-2.138c2.825-1.425,4.9-2.662,6.226-3.713c2-1.625,2.638-3.05,1.912-4.274
		c-1.425-2.45-4.825-3.863-10.2-4.238c-1.975-0.125-5.7,0.538-11.175,1.988c-2.726,0.725-5.25,1.462-7.575,2.212
		C23.875,22.412,26.313,24.037,29.188,26.037z"/>
	
		<use xlink:href="#flash0.ai_x5F_2_x2F_Layer_13_copy_x2F__x3C_Path_x3E__x5F_63"  width="21.33" height="12.096" x="0.033" y="-12.12" transform="matrix(-0.75 0 0 -0.75 51.9502 22.75)" style="overflow:visible;opacity:0.5;enable-background:new    ;"/>
	
		<linearGradient id="SVGID_25_" gradientUnits="userSpaceOnUse" x1="31.166" y1="-22.3047" x2="34.301" y2="-22.3047" gradientTransform="matrix(-0.0598 0.7476 0.7476 0.0598 52.7002 8.6005)">
		<stop  offset="0" style="stop-color:#B5882F"/>
		<stop  offset="1" style="stop-color:#E6B95E"/>
	</linearGradient>
	<path style="fill-rule:evenodd;clip-rule:evenodd;fill:url(#SVGID_25_);" d="M35.15,31.963c0.024-0.476-0.175-0.938-0.601-1.388
		c-0.425-0.425-0.787-0.525-1.087-0.3c-0.325,0.225-0.475,0.575-0.45,1.05c0.024,0.476,0.188,0.899,0.487,1.274
		c0.325,0.4,0.662,0.563,1.013,0.488C34.912,32.987,35.125,32.612,35.15,31.963z"/>
	
		<linearGradient id="SVGID_26_" gradientUnits="userSpaceOnUse" x1="29.374" y1="-25.0654" x2="31.3049" y2="-25.0654" gradientTransform="matrix(-0.0583 0.7477 0.7477 0.0583 52.7002 8.6002)">
		<stop  offset="0" style="stop-color:#B5882F"/>
		<stop  offset="1" style="stop-color:#E6B95E"/>
	</linearGradient>
	<path style="fill-rule:evenodd;clip-rule:evenodd;fill:url(#SVGID_26_);" d="M32.3,29c-0.375-0.399-0.6-0.225-0.675,0.525
		c-0.075,0.775,0.112,1.138,0.563,1.087c0.426-0.024,0.613-0.25,0.563-0.675C32.726,29.588,32.575,29.275,32.3,29z"/>
	
		<linearGradient id="SVGID_27_" gradientUnits="userSpaceOnUse" x1="26.2803" y1="-30.2422" x2="28.863" y2="-30.2422" gradientTransform="matrix(-0.0581 0.7477 0.7477 0.0581 52.6996 8.6)">
		<stop  offset="0" style="stop-color:#B5882F"/>
		<stop  offset="1" style="stop-color:#E6B95E"/>
	</linearGradient>
	<path style="fill-rule:evenodd;clip-rule:evenodd;fill:url(#SVGID_27_);" d="M28.438,26.188c-0.8-0.225-1.063,0.112-0.788,1.013
		c0.275,0.95,0.675,1.4,1.201,1.35c0.475-0.024,0.675-0.375,0.6-1.05C29.35,26.8,29.013,26.363,28.438,26.188z"/>
	
		<linearGradient id="SVGID_28_" gradientUnits="userSpaceOnUse" x1="23.4751" y1="-34.3262" x2="25.381" y2="-34.3262" gradientTransform="matrix(-0.059 0.7477 0.7477 0.059 52.6997 8.5999)">
		<stop  offset="0" style="stop-color:#B5882F"/>
		<stop  offset="1" style="stop-color:#E6B95E"/>
	</linearGradient>
	<path style="fill-rule:evenodd;clip-rule:evenodd;fill:url(#SVGID_28_);" d="M25.625,23.938c-0.401-0.15-0.663-0.088-0.788,0.188
		c-0.125,0.225-0.125,0.5,0,0.825c0.1,0.3,0.3,0.513,0.601,0.638c0.349,0.149,0.625,0.087,0.825-0.188
		c0.225-0.275,0.262-0.55,0.113-0.825C26.226,24.301,25.975,24.088,25.625,23.938z"/>
	
		<linearGradient id="SVGID_29_" gradientUnits="userSpaceOnUse" x1="22.1621" y1="-36.9106" x2="23.2148" y2="-36.9106" gradientTransform="matrix(-0.0534 0.7481 0.7481 0.0534 52.7005 8.6003)">
		<stop  offset="0" style="stop-color:#B5882F"/>
		<stop  offset="1" style="stop-color:#E6B95E"/>
	</linearGradient>
	<path style="fill-rule:evenodd;clip-rule:evenodd;fill:url(#SVGID_29_);" d="M23.601,23.112c-0.275,0.226-0.301,0.463-0.076,0.713
		c0.25,0.25,0.488,0.288,0.712,0.112c0.2-0.15,0.188-0.362-0.037-0.638C23.95,23.025,23.75,22.963,23.601,23.112z"/>
	
		<linearGradient id="SVGID_30_" gradientUnits="userSpaceOnUse" x1="21.9946" y1="-38.5317" x2="23.5497" y2="-38.5317" gradientTransform="matrix(-0.0603 0.7476 0.7476 0.0603 52.7006 8.6002)">
		<stop  offset="0" style="stop-color:#B5882F"/>
		<stop  offset="1" style="stop-color:#E6B95E"/>
	</linearGradient>
	<path style="fill-rule:evenodd;clip-rule:evenodd;fill:url(#SVGID_30_);" d="M22.362,23.9c0.2,0.125,0.375,0.05,0.525-0.226
		c0.101-0.175,0.013-0.45-0.262-0.825c-0.25-0.399-0.401-0.487-0.451-0.262C22.051,23.338,22.113,23.775,22.362,23.9z"/>
	<path style="fill-rule:evenodd;clip-rule:evenodd;fill:#7A5215;" d="M22.212,19.25c-0.1,0.175-0.149,0.438-0.149,0.787
		c-0.25,0.926,0.237,1.463,1.462,1.613c0.675,0.074,1.188,0.287,1.538,0.637c0.175,0.2,0.413,0.613,0.712,1.238
		c0.2,0.625,0.375,1.074,0.525,1.35c0.251,0.475,0.688,0.862,1.313,1.162c0.6,0.301,1.051,0.601,1.35,0.9
		c0.375,0.475,0.763,0.913,1.163,1.313c0.475,0.5,0.925,0.8,1.351,0.9c0.649,0.175,1.074,0.324,1.274,0.449
		c0.325,0.2,0.813,0.563,1.463,1.088c0.55,0.45,0.975,0.738,1.274,0.862c0.325,0.15,0.775,0.075,1.351-0.225
		c0.75-0.45,1.412-0.813,1.987-1.088c0.625-0.3,1.737-0.575,3.338-0.825c1.524-0.249,2.412-0.449,2.662-0.6
		c0.85-0.574,1.875-0.762,3.075-0.563c0.375,0.075,0.825-0.1,1.35-0.525c0.55-0.524,0.925-0.875,1.125-1.05
		c0.2-0.2,0.275-0.537,0.226-1.013c-0.025-0.524,0.013-0.875,0.112-1.05s0.388-0.412,0.862-0.712
		c0.425-0.25,0.688-0.525,0.787-0.825c0.126-0.35,0.088-0.663-0.112-0.938c-0.075-0.101-0.337-0.375-0.787-0.825
		c-0.275-0.274-0.413-0.537-0.413-0.787c0.051-0.351,0.088-0.663,0.113-0.938c0.05-0.35-0.362-0.9-1.238-1.65
		c-0.824-0.675-1.399-1.037-1.725-1.087c-3.075-0.3-7.575-0.35-13.5-0.15c-6.3,0.25-9.938,0.688-10.912,1.313
		C22.888,18.588,22.362,19,22.212,19.25z"/>
	<path style="fill-rule:evenodd;clip-rule:evenodd;fill:#5E4007;" d="M22.138,19.475c-0.025,0.1-0.05,0.288-0.075,0.562
		c-0.25,0.926,0.237,1.463,1.462,1.613c0.675,0.074,1.188,0.287,1.538,0.637c0.175,0.2,0.413,0.613,0.712,1.238
		c0.2,0.625,0.375,1.074,0.525,1.35c0.251,0.475,0.688,0.862,1.313,1.162c0.6,0.301,1.051,0.601,1.35,0.9
		c0.375,0.475,0.763,0.913,1.163,1.313c0.475,0.5,0.925,0.8,1.351,0.9c0.649,0.175,1.074,0.324,1.274,0.449
		c0.325,0.2,0.813,0.563,1.463,1.088c0.55,0.45,0.975,0.738,1.274,0.862c0.325,0.175,0.838,0.063,1.538-0.337
		c-0.125-0.45-0.338-0.688-0.638-0.713c-0.425-0.024-0.85-0.212-1.275-0.563c-0.1-0.075-0.337-0.3-0.712-0.675
		c-0.1-0.125-0.475-0.313-1.125-0.563C32.475,28.375,32,28.175,31.851,28.1c-0.676-0.399-1.363-1.024-2.063-1.875
		c-0.275-0.324-0.738-0.637-1.388-0.938c-0.7-0.324-1.15-0.587-1.35-0.787c-0.25-0.225-0.449-0.725-0.6-1.5
		s-0.338-1.287-0.563-1.537c-0.3-0.301-0.875-0.488-1.725-0.563c-0.425-0.05-0.913-0.101-1.463-0.15
		C22.45,20.725,22.263,20.3,22.138,19.475z"/>
	<path style="fill-rule:evenodd;clip-rule:evenodd;fill:#634506;" d="M50.375,26.675c0.2-0.2,0.275-0.537,0.226-1.013
		c-0.025-0.524,0.013-0.875,0.112-1.05s0.388-0.412,0.862-0.712c0.425-0.25,0.688-0.525,0.787-0.825
		c0.126-0.4,0.038-0.775-0.262-1.125c-0.275,0.6-0.737,1.162-1.388,1.688C50.238,24.013,50,24.488,50,25.063
		c0,0.625-0.063,1.013-0.188,1.162c-0.275,0.301-0.712,0.575-1.313,0.825c-0.6,0.251-1.125,0.362-1.575,0.338
		c-0.399-0.05-0.912,0.05-1.537,0.3c-0.225,0.075-0.774,0.325-1.65,0.75c-0.35,0.176-1.037,0.313-2.063,0.412
		c-1.024,0.101-1.762,0.263-2.212,0.488c-1.351,0.699-2.375,1.087-3.075,1.162c-0.25,0.025-0.399,0.4-0.45,1.125
		c0.275-0.024,0.675-0.175,1.2-0.45c0.825-0.475,1.388-0.787,1.688-0.938c0.625-0.3,1.737-0.575,3.338-0.825
		c1.524-0.249,2.412-0.449,2.662-0.6c0.85-0.574,1.875-0.762,3.075-0.563c0.375,0.075,0.825-0.1,1.35-0.525
		C49.8,27.2,50.175,26.85,50.375,26.675z"/>
	<path style="fill-rule:evenodd;clip-rule:evenodd;fill:#E3B309;" d="M20.75,17.938c-0.076,0.35-0.012,0.838,0.188,1.462
		c0,0.575,0.287,0.888,0.862,0.938l0.263-0.45c0.25-0.35,0.85-0.075,1.799,0.825c0.7,0.75,1.725,1.412,3.076,1.987
		c0.6,0.25,1.212,0.675,1.837,1.274c0.826,0.801,1.438,1.338,1.837,1.613c0.55,0.4,1.226,0.925,2.025,1.574
		c0.726,0.625,1.237,1.038,1.537,1.238c1.251,0.899,2.338,1.313,3.263,1.237c0.575-0.075,0.976-0.125,1.2-0.15
		c0.325-0.024,0.55,0.025,0.675,0.15c0.075,0.05,0.112,0.263,0.112,0.638c0,0.35,0.126,0.637,0.375,0.862
		c0.525,0.45,1.025,0.225,1.5-0.675c0.126-0.375,0.226-0.663,0.301-0.863c0.125-0.35,0.337-0.649,0.637-0.899
		c0.275-0.25,0.801-0.513,1.575-0.788c0.976-0.375,1.726-0.712,2.25-1.012c0.801-0.45,1.425-0.851,1.875-1.2
		c0.351-0.3,0.825-0.775,1.425-1.425c0.501-0.55,0.938-0.9,1.313-1.051c0.226-0.1,0.601-0.188,1.125-0.262
		c0.4-0.025,0.65-0.088,0.75-0.188c0.101-0.101,0.126-0.288,0.075-0.563c0.051-0.5,0.063-0.913,0.038-1.238
		c-0.051-0.625-0.375-1.087-0.976-1.387c-1.125-0.85-1.875-1.35-2.25-1.5c-2.05-0.85-6.575-1.413-13.575-1.688
		c-6.475-0.25-10.725-0.188-12.75,0.188C21.688,16.862,20.9,17.313,20.75,17.938z"/>
	<path style="fill-rule:evenodd;clip-rule:evenodd;fill:#FFD129;" d="M21.913,16.888c-0.851,0.45-1.088,0.875-0.713,1.275
		c0.2,0.2,0.649,0.425,1.35,0.675c0.975,0.375,1.788,1.063,2.438,2.063c0.225,0.375,0.688,0.688,1.388,0.938
		c0.95,0.325,1.7,0.675,2.25,1.05c1.025,0.675,1.75,1.188,2.174,1.537c0.601,0.5,1.251,1.138,1.95,1.913
		c1.45,1.625,3.075,2.438,4.875,2.438c1.45,0,2.7-0.313,3.75-0.938c2.45-1.3,3.95-2.176,4.5-2.625
		c2.05-1.525,3.525-2.487,4.425-2.888c0.55-0.25,1.051-0.601,1.5-1.05c0.426-0.425,0.638-0.738,0.638-0.938
		c0-0.176-0.263-0.45-0.787-0.825c-0.5-0.375-0.976-0.638-1.425-0.788c-0.101-0.025-1.088-0.587-2.963-1.688
		c-1.675-1-2.85-1.525-3.525-1.575c-2.699-0.15-6.699-0.075-12,0.225C26.088,16.013,22.813,16.413,21.913,16.888z"/>
	<path style="fill-rule:evenodd;clip-rule:evenodd;fill:#FFEDA8;" d="M52.138,21.35c-0.15,0.101-0.212,0.213-0.188,0.338
		c0,0.05,0.05,0.15,0.15,0.3c0.05,0.075,0.037,0.125-0.038,0.15c-0.1,0.05-0.149,0.138-0.149,0.263
		c-0.025,0.175,0.037,0.287,0.188,0.337c0.149,0.05,0.262,0,0.337-0.149c0.025-0.075,0.025-0.213,0-0.413
		c-0.05-0.225-0.05-0.438,0-0.638c0.025-0.25,0.013-0.375-0.037-0.375C52.375,21.188,52.288,21.25,52.138,21.35z"/>
	<path style="fill-rule:evenodd;clip-rule:evenodd;fill:#FFEDA8;" d="M40.775,29.412c-0.25,0.025-0.413,0.226-0.487,0.601
		c-0.051,0.35-0.013,0.625,0.112,0.825c0.175,0.274,0.438,0.025,0.787-0.75c0.1-0.175,0.1-0.338,0-0.488
		C41.088,29.45,40.95,29.388,40.775,29.412z"/>
	<path style="fill-rule:evenodd;clip-rule:evenodd;fill:#FFEDA8;" d="M36.612,28.4c-1.05-0.075-2.087-0.525-3.112-1.351
		c0.375,0.375,0.763,0.7,1.163,0.976c0.324,0.225,0.587,0.375,0.787,0.449c0.275,0.075,0.838,0.163,1.688,0.263
		c0.75,0.101,1.524,0.063,2.325-0.112l0.975-0.3l-1.875,0.188C37.513,28.588,36.862,28.55,36.612,28.4z"/>
	<path style="fill-rule:evenodd;clip-rule:evenodd;fill:#FFEDA8;" d="M21.538,19.438c-0.101,0.25-0.101,0.413,0,0.488
		C21.612,20,21.7,19.95,21.8,19.775c0.101-0.125,0.101-0.275,0-0.45C21.7,19.175,21.612,19.212,21.538,19.438z"/>
	<path style="fill-rule:evenodd;clip-rule:evenodd;fill:#EBAC65;" d="M35.263,27.05c0.65-0.225,1.149-0.388,1.5-0.487
		s0.875-0.037,1.575,0.188c0.8,0.275,1.438,0.4,1.912,0.375c0.55-0.024,1.088-0.287,1.612-0.787c0.501-0.476,0.9-0.713,1.2-0.713
		c0.5,0,1.037-0.1,1.612-0.3s1.038-0.438,1.388-0.713c0.375-0.25,0.675-0.324,0.9-0.225c0.25,0.125,0.375,0.412,0.375,0.862
		c0,0.4,0.088,0.625,0.263,0.675c0.274,0,0.512-0.013,0.712-0.037c0.275-0.025,0.475-0.188,0.601-0.487
		c0.149-0.45,0.3-0.825,0.449-1.125c0.15-0.301,0.175-0.713,0.075-1.238c-0.075-0.499-0.05-0.85,0.075-1.05
		c0.15-0.25,0.6-0.55,1.35-0.899c1.025-0.476,1.551-0.726,1.575-0.75c0.3-0.15,0.325-0.413,0.075-0.788
		c-0.1-0.15-0.375-0.438-0.825-0.863c-1.2-1.2-2.263-1.813-3.188-1.837c-0.825-0.3-4.975-0.663-12.45-1.087
		c-7.35-0.45-11.462-0.6-12.337-0.45c-1.3,0.2-1.9,0.725-1.799,1.575c0.024,0.225,0.2,0.462,0.525,0.712
		c0.45,0.35,0.75,0.625,0.899,0.825c0.2,0.3,0.425,0.512,0.675,0.637c0.4,0.2,0.813,0.413,1.238,0.638
		c0.524,0.275,0.788,0.638,0.788,1.087c0.024,0.251,0,0.713-0.076,1.388c0.026,0.525,0.2,0.851,0.525,0.976
		c0.251,0.1,0.7,0.112,1.35,0.037c0.625-0.075,1.05-0.112,1.275-0.112c0.351,0.025,0.738,0.1,1.163,0.225
		c0.6,0.226,1.112,1.025,1.537,2.4c0.1,0.3-0.024,0.5-0.375,0.6c-0.65,0.226-1,0.351-1.05,0.375c-0.35,0.226-0.525,0.55-0.525,0.976
		c-0.024,0.425,0.15,0.775,0.525,1.05c0.35,0.275,0.688,0.325,1.013,0.149c0.324-0.175,0.475-0.424,0.45-0.75
		c-0.025-0.225,0.1-0.375,0.375-0.449c0.324-0.075,0.5-0.162,0.524-0.263c0.125-0.325,0.588-0.388,1.388-0.188
		C34.362,27.25,34.737,27.2,35.263,27.05z"/>
	<g>
		<path style="fill-rule:evenodd;clip-rule:evenodd;fill:#D1944F;" d="M22.025,16.175c-0.125,0.225-0.162,0.462-0.112,0.712
			c0.024,0.225,0.2,0.462,0.525,0.712c0.45,0.35,0.75,0.625,0.899,0.825c0.2,0.3,0.425,0.512,0.675,0.637
			c0.4,0.2,0.813,0.413,1.238,0.638c0.275,0.15,0.475,0.3,0.6,0.45c-0.101-0.425-0.325-0.738-0.676-0.938
			c-0.85-0.5-1.362-0.875-1.537-1.125c-0.375-0.525-0.713-0.862-1.012-1.012C22.2,16.85,22,16.55,22.025,16.175z"/>
		<path style="fill-rule:evenodd;clip-rule:evenodd;fill:#D1944F;" d="M36.388,25.775c-0.075,0.025-0.438,0.213-1.088,0.563
			c-0.5,0.274-0.925,0.425-1.274,0.449c-0.125,0-0.45-0.012-0.976-0.037c-0.2-0.024-0.362,0.025-0.487,0.15
			c-0.2,0.274-0.45,0.438-0.75,0.487c-0.375,0.075-0.575,0.275-0.6,0.6c-0.025,0.175-0.112,0.338-0.263,0.487
			c-0.175,0.176-0.362,0.25-0.563,0.226c0.35,0.275,0.688,0.325,1.013,0.149c0.324-0.175,0.475-0.424,0.45-0.75
			c-0.025-0.225,0.1-0.375,0.375-0.449c0.324-0.075,0.5-0.162,0.524-0.263c0.125-0.325,0.588-0.388,1.388-0.188
			c0.225,0.05,0.6,0,1.125-0.15c0.65-0.225,1.149-0.388,1.5-0.487s0.875-0.037,1.575,0.188c0.8,0.275,1.438,0.4,1.912,0.375
			c0.55-0.024,1.088-0.287,1.612-0.787c0.501-0.476,0.9-0.713,1.2-0.713c0.5,0,1.037-0.1,1.612-0.3s1.038-0.438,1.388-0.713
			c0.375-0.25,0.675-0.324,0.9-0.225c0.25,0.125,0.375,0.412,0.375,0.862c0,0.4,0.088,0.625,0.263,0.675
			c0.274,0,0.512-0.013,0.712-0.037c0.3-0.025,0.513-0.213,0.638-0.563c-0.774,0.225-1.213,0-1.313-0.675
			c-0.05-0.375-0.237-0.601-0.563-0.676c-0.275-0.074-0.575-0.024-0.9,0.15c-0.2,0.125-0.575,0.351-1.125,0.675
			c-0.5,0.251-0.912,0.388-1.237,0.413c-0.35,0.025-0.763,0.137-1.237,0.337c-0.45,0.175-0.75,0.325-0.9,0.45
			c-0.125,0.1-0.262,0.063-0.412-0.112c-0.125-0.15-0.188-0.287-0.188-0.413c0-0.074-0.7-0.074-2.1,0
			C37.55,25.55,36.688,25.65,36.388,25.775z"/>
		<path style="fill-rule:evenodd;clip-rule:evenodd;fill:#D1944F;" d="M49.513,21.987c0.15-0.25,0.6-0.55,1.35-0.899
			c1.025-0.476,1.551-0.726,1.575-0.75c0.175-0.075,0.263-0.213,0.263-0.413c-0.275,0.125-0.513,0.212-0.713,0.262
			c-0.6,0.15-1.187,0.425-1.762,0.825c-0.75,0.5-1.038,0.95-0.863,1.35l0.038,0.112C49.4,22.3,49.438,22.138,49.513,21.987z"/>
		<path style="fill-rule:evenodd;clip-rule:evenodd;fill:#D1944F;" d="M30.275,23.3c0.6,0.226,1.112,1.025,1.537,2.4
			c0.1,0.25,0.038,0.438-0.188,0.563c-0.149,0.05-0.425,0.125-0.825,0.225c0.476-0.05,0.801-0.137,0.976-0.263
			c0.3-0.225,0.475-0.362,0.524-0.412c0.126-0.15,0.15-0.338,0.075-0.563c-0.1-0.275-0.3-0.675-0.6-1.2
			c-0.3-0.574-0.5-0.912-0.601-1.013c-0.425-0.425-0.899-0.574-1.425-0.449c-1.25,0.25-2.15,0.35-2.7,0.3
			c-0.575-0.05-0.938-0.413-1.087-1.088v0.375c0.026,0.525,0.2,0.851,0.525,0.976c0.251,0.1,0.7,0.112,1.35,0.037
			c0.625-0.075,1.05-0.112,1.275-0.112C29.463,23.101,29.85,23.175,30.275,23.3z"/>
	</g>
	<path style="fill-rule:evenodd;clip-rule:evenodd;fill:#FFD4A1;" d="M51.913,19.288c-0.126,0.05-0.126,0.175,0,0.375
		c0.149,0.175,0.274,0.225,0.375,0.15c0.125-0.05,0.125-0.162,0-0.337C52.162,19.3,52.038,19.237,51.913,19.288z"/>
	<path style="fill-rule:evenodd;clip-rule:evenodd;fill:#FFD4A1;" d="M49.25,23.188c-0.1-0.15-0.2-0.225-0.3-0.225
		c-0.175-0.025-0.263,0.337-0.263,1.087c-0.024,0.125-0.112,0.251-0.263,0.375c-0.175,0.101-0.262,0.188-0.262,0.263
		c0,0.125,0.087,0.237,0.262,0.338c0.175,0.1,0.325,0.112,0.45,0.037c0.1-0.05,0.175-0.225,0.226-0.525l0.188-0.787
		C49.362,23.55,49.35,23.362,49.25,23.188z"/>
	<path style="fill-rule:evenodd;clip-rule:evenodd;fill:#FFD4A1;" d="M48.2,23.563c-0.25,0.075-0.338,0.188-0.263,0.338
		c0.075,0.175,0.188,0.25,0.338,0.225c0.1-0.024,0.137-0.125,0.112-0.3C48.363,23.625,48.3,23.537,48.2,23.563z"/>
	<path style="fill-rule:evenodd;clip-rule:evenodd;fill:#FFD4A1;" d="M48.838,22.175c-0.125,0.075-0.2,0.213-0.226,0.413
		c0,0.175,0.113,0.225,0.338,0.149c0.25-0.075,0.325-0.212,0.225-0.412C49.101,22.15,48.987,22.1,48.838,22.175z"/>
	<path style="fill-rule:evenodd;clip-rule:evenodd;fill:#FFD4A1;" d="M34.101,25.925c-0.2-0.024-0.426,0.038-0.676,0.188
		c-0.274,0.15-0.337,0.263-0.188,0.338c0.126,0.075,0.351,0.101,0.676,0.075c0.324-0.051,0.563-0.113,0.712-0.188
		C34.851,26.138,34.676,26,34.101,25.925z"/>
	<path style="fill-rule:evenodd;clip-rule:evenodd;fill:#FFD4A1;" d="M32.15,26.713c-0.175-0.051-0.388,0-0.638,0.149
		c-0.25,0.15-0.325,0.275-0.225,0.375c0.1,0.101,0.225,0.112,0.375,0.038c0.249-0.15,0.388-0.226,0.412-0.226
		c0.15-0.05,0.225-0.124,0.225-0.225C32.3,26.75,32.25,26.713,32.15,26.713z"/>
	<path style="fill-rule:evenodd;clip-rule:evenodd;fill:#FFD4A1;" d="M30.538,27.537c-0.475,0.051-0.513,0.326-0.113,0.825
		c0.075,0.101,0.175,0.112,0.301,0.038c0.125-0.075,0.225-0.188,0.3-0.338c0.075-0.125,0.05-0.25-0.075-0.375
		C30.85,27.563,30.712,27.513,30.538,27.537z"/>
	<path style="fill-rule:evenodd;clip-rule:evenodd;fill:#FFD4A1;" d="M32.601,24.763c-0.15-0.175-0.263-0.287-0.338-0.338
		c-0.1-0.024-0.075,0.038,0.075,0.188c0.075,0.075,0.137,0.238,0.188,0.487c0.05,0.2,0.112,0.288,0.188,0.263
		c0.1-0.024,0.125-0.112,0.075-0.263C32.763,24.975,32.7,24.863,32.601,24.763z"/>
	<path style="fill-rule:evenodd;clip-rule:evenodd;fill:#FFD4A1;" d="M28.476,22.025c-0.101,0.05-0.338,0.037-0.713-0.038
		c-0.225-0.05-0.563-0.125-1.012-0.225c-0.401-0.101-0.363,0.149,0.112,0.75c0.125,0.149,0.413,0.2,0.863,0.149
		c0.35-0.024,0.712-0.1,1.087-0.225c0.25-0.075,0.299-0.188,0.149-0.338C28.813,21.976,28.65,21.95,28.476,22.025z"/>
	<path style="fill-rule:evenodd;clip-rule:evenodd;fill:#FFD4A1;" d="M26.525,20.487c-0.125,0.05-0.149,0.15-0.075,0.3
		c0.075,0.176,0.188,0.213,0.338,0.113c0.15-0.075,0.162-0.176,0.037-0.301C26.675,20.5,26.575,20.463,26.525,20.487z"/>
	<path style="fill-rule:evenodd;clip-rule:evenodd;fill:#FFD4A1;" d="M24.351,18.163c-0.2,0-0.237,0.05-0.113,0.15
		c0.175,0.125,0.301,0.2,0.375,0.225c0.101,0.075,0.237,0.125,0.413,0.15c0.2,0.025,0.313,0.013,0.337-0.038
		c0.025-0.025-0.112-0.112-0.412-0.262S24.45,18.163,24.351,18.163z"/>
	
		<linearGradient id="SVGID_31_" gradientUnits="userSpaceOnUse" x1="17.251" y1="15.4756" x2="41.876" y2="15.4756" gradientTransform="matrix(-0.75 0 0 0.75 52.7002 8.6001)">
		<stop  offset="0" style="stop-color:#C4A04A"/>
		<stop  offset="1" style="stop-color:#9C7832"/>
	</linearGradient>
	<path style="fill-rule:evenodd;clip-rule:evenodd;fill:url(#SVGID_31_);" d="M21.388,12.913l-0.075,2.813
		c3,2.25,5.5,4.163,7.5,5.738c1.424,1.1,4.163,3.112,8.212,6.037l2.737-4.537L39.2,19.4c-0.975-0.65-2.05-1.3-3.225-1.95
		c-2.351-1.325-3.988-2.025-4.913-2.1C29.563,15.225,26.337,14.413,21.388,12.913z"/>
	<path style="fill-rule:evenodd;clip-rule:evenodd;fill:#E6B95E;" d="M22.101,13.363l-0.038,2.925l6.75,5.175
		c1,0.774,3.425,2.563,7.275,5.362l0.3-3.3l-0.263-1.875l2.4-2.7c-3.75-2.3-6.238-3.5-7.463-3.6c-1.1-0.075-3.737-0.712-7.913-1.913
		L22.101,13.363z"/>
	
		<linearGradient id="SVGID_32_" gradientUnits="userSpaceOnUse" x1="-0.2197" y1="3.2559" x2="28.8045" y2="3.2559" gradientTransform="matrix(-0.6111 0.4348 0.4348 0.6111 52.7003 8.5995)">
		<stop  offset="0" style="stop-color:#FDCB53"/>
		<stop  offset="1" style="stop-color:#D48801"/>
	</linearGradient>
	<path style="fill-rule:evenodd;clip-rule:evenodd;fill:url(#SVGID_32_);" d="M36.726,15.35l0.6,6.488l-0.3,5.662
		c1.55-0.5,3.838-1.412,6.862-2.737c2.925-1.275,5.138-2.726,6.638-4.351l1.388-2.024c0.149-0.4,0.287-0.925,0.412-1.575
		C52.5,15.938,52.525,15,52.4,14C42.45,14.9,37.226,15.35,36.726,15.35z"/>
	<path style="fill-rule:evenodd;clip-rule:evenodd;fill:#C98000;" d="M36.388,23.525l0.75,0.487c1.325-0.274,2.875-0.725,4.65-1.351
		c3.55-1.249,6.425-2.762,8.625-4.537c1.475-1.175,2.137-2.563,1.987-4.163c-0.2-1.875-1.663-3.237-4.388-4.087
		c-3.45-1.075-6.662-1.45-9.638-1.125c-1.2,0.125-3.95,0.737-8.25,1.837c-3.199,0.8-6.112,1.575-8.737,2.325l10.65,6.225
		L36.388,23.525z"/>
	<path style="fill-rule:evenodd;clip-rule:evenodd;fill:#FFD875;" d="M29.413,18.238c2.699,1.875,5.024,3.637,6.975,5.288
		c2.375-0.45,4.55-1.163,6.525-2.138c2.825-1.425,4.899-2.663,6.225-3.712c2-1.625,2.625-3.05,1.875-4.275
		c-1.425-2.45-4.825-3.862-10.2-4.237C38.838,9.038,35.125,9.7,29.675,11.15c-2.725,0.725-5.25,1.463-7.574,2.213
		C24.1,14.612,26.537,16.237,29.413,18.238z"/>
	
		<linearGradient id="SVGID_33_" gradientUnits="userSpaceOnUse" x1="20.3843" y1="-6.0674" x2="24.5494" y2="-6.0674" gradientTransform="matrix(-0.4457 0.6032 0.6032 0.4457 52.6999 8.6)">
		<stop  offset="0" style="stop-color:#E6B95E"/>
		<stop  offset="1" style="stop-color:#FFD875"/>
	</linearGradient>
	<path style="fill-rule:evenodd;clip-rule:evenodd;fill:url(#SVGID_33_);" d="M39.538,18.2c-1.325,0.025-2.213,0.2-2.663,0.525
		c-0.425,0.3-0.438,0.613-0.037,0.938c1.025,0.95,2.525,1.025,4.5,0.225c0.475-0.2,0.412-0.538-0.188-1.013
		C40.55,18.425,40.013,18.2,39.538,18.2z"/>
	
		<linearGradient id="SVGID_34_" gradientUnits="userSpaceOnUse" x1="13.7666" y1="-2.9897" x2="15.9466" y2="-2.9897" gradientTransform="matrix(-0.4472 0.6021 0.6021 0.4472 52.7003 8.5998)">
		<stop  offset="0" style="stop-color:#E6B95E"/>
		<stop  offset="1" style="stop-color:#FFD875"/>
	</linearGradient>
	<path style="fill-rule:evenodd;clip-rule:evenodd;fill:url(#SVGID_34_);" d="M44.45,15.613c-1.45,0.025-1.862,0.275-1.237,0.75
		c0.65,0.525,1.287,0.663,1.912,0.412c0.5-0.175,0.613-0.425,0.338-0.75C45.213,15.725,44.875,15.588,44.45,15.613z"/>
	
		<linearGradient id="SVGID_35_" gradientUnits="userSpaceOnUse" x1="16.4751" y1="4.9927" x2="23.3251" y2="4.9927" gradientTransform="matrix(-0.75 0 0 0.75 52.7002 8.6001)">
		<stop  offset="0" style="stop-color:#E6B95E"/>
		<stop  offset="1" style="stop-color:#FFD875"/>
	</linearGradient>
	<path style="fill-rule:evenodd;clip-rule:evenodd;fill:url(#SVGID_35_);" d="M38,11.413c-1.675-0.025-2.6,0.188-2.774,0.638
		c-0.175,0.45,0.3,0.8,1.425,1.05c1.675,0.4,2.875,0.125,3.6-0.825C40.601,11.75,39.851,11.463,38,11.413z"/>
	
		<linearGradient id="SVGID_36_" gradientUnits="userSpaceOnUse" x1="18.2124" y1="-17.6963" x2="19.5874" y2="-17.6963" gradientTransform="matrix(-0.45 0.6 0.6 0.45 52.7007 8.5999)">
		<stop  offset="0" style="stop-color:#E6B95E"/>
		<stop  offset="1" style="stop-color:#FFD875"/>
	</linearGradient>
	<path style="fill-rule:evenodd;clip-rule:evenodd;fill:url(#SVGID_36_);" d="M33.463,11.6c-0.575,0.05-0.788,0.188-0.638,0.413
		c0.15,0.25,0.487,0.35,1.013,0.3c0.475-0.05,0.65-0.188,0.524-0.413C34.213,11.675,33.913,11.575,33.463,11.6z"/>
	
		<linearGradient id="SVGID_37_" gradientUnits="userSpaceOnUse" x1="21.7241" y1="-22.6436" x2="24.2992" y2="-22.6436" gradientTransform="matrix(-0.4442 0.6043 0.6043 0.4442 52.7003 8.6001)">
		<stop  offset="0" style="stop-color:#E6B95E"/>
		<stop  offset="1" style="stop-color:#FFD875"/>
	</linearGradient>
	<path style="fill-rule:evenodd;clip-rule:evenodd;fill:url(#SVGID_37_);" d="M28.775,11.788c-0.575,0.025-1,0.137-1.274,0.337
		c-0.25,0.2-0.25,0.375,0,0.525c0.25,0.15,0.6,0.238,1.049,0.263c0.525,0.025,1-0.038,1.426-0.188c0.449-0.175,0.5-0.375,0.149-0.6
		C29.8,11.875,29.35,11.763,28.775,11.788z"/>
	
		<linearGradient id="SVGID_38_" gradientUnits="userSpaceOnUse" x1="22.5698" y1="-16.4063" x2="25.1799" y2="-16.4063" gradientTransform="matrix(-0.4454 0.6034 0.6034 0.4454 52.6999 8.6007)">
		<stop  offset="0" style="stop-color:#E6B95E"/>
		<stop  offset="1" style="stop-color:#FFD875"/>
	</linearGradient>
	<path style="fill-rule:evenodd;clip-rule:evenodd;fill:url(#SVGID_38_);" d="M31.963,15.087c-0.976-0.05-1.45,0.087-1.425,0.413
		c0.024,0.275,0.325,0.513,0.899,0.712c0.475,0.15,0.85,0.212,1.125,0.188s0.638-0.137,1.088-0.337
		c0.399-0.2,0.362-0.413-0.112-0.637C33.088,15.225,32.563,15.112,31.963,15.087z"/>
	
		<linearGradient id="SVGID_39_" gradientUnits="userSpaceOnUse" x1="15.9165" y1="-8.4067" x2="19.1865" y2="-8.4067" gradientTransform="matrix(-0.4472 0.6021 0.6021 0.4472 52.7003 8.5998)">
		<stop  offset="0" style="stop-color:#E6B95E"/>
		<stop  offset="1" style="stop-color:#FFD875"/>
	</linearGradient>
	<path style="fill-rule:evenodd;clip-rule:evenodd;fill:url(#SVGID_39_);" d="M38.938,14.413c-0.575,0.025-0.875,0.2-0.899,0.525
		c-0.025,0.225,0.074,0.488,0.3,0.788c0.2,0.325,1.149,0.363,2.85,0.112c0.85-0.15,0.938-0.437,0.263-0.862
		C40.8,14.575,39.963,14.388,38.938,14.413z"/>
	
		<linearGradient id="SVGID_40_" gradientUnits="userSpaceOnUse" x1="20.1411" y1="-23.6904" x2="23.2761" y2="-23.6904" gradientTransform="matrix(-0.0598 0.7476 0.7476 0.0598 52.7002 8.6005)">
		<stop  offset="0" style="stop-color:#B5882F"/>
		<stop  offset="1" style="stop-color:#E6B95E"/>
	</linearGradient>
	<path style="fill-rule:evenodd;clip-rule:evenodd;fill:url(#SVGID_40_);" d="M34.775,23.6c0.024-0.475-0.175-0.925-0.601-1.35
		c-0.425-0.45-0.787-0.563-1.087-0.338c-0.325,0.226-0.475,0.588-0.45,1.088c0.024,0.476,0.188,0.9,0.487,1.275
		c0.325,0.375,0.662,0.524,1.013,0.449C34.537,24.65,34.75,24.275,34.775,23.6z"/>
	
		<linearGradient id="SVGID_41_" gradientUnits="userSpaceOnUse" x1="18.2622" y1="-26.5068" x2="19.7923" y2="-26.5068" gradientTransform="matrix(-0.0613 0.7475 0.7475 0.0613 52.6996 8.6002)">
		<stop  offset="0" style="stop-color:#B5882F"/>
		<stop  offset="1" style="stop-color:#E6B95E"/>
	</linearGradient>
	<path style="fill-rule:evenodd;clip-rule:evenodd;fill:url(#SVGID_41_);" d="M31.625,20.412c-0.35-0.024-0.463,0.238-0.337,0.788
		c0.125,0.55,0.35,0.763,0.675,0.638c0.275-0.125,0.324-0.4,0.149-0.825C31.963,20.638,31.8,20.438,31.625,20.412z"/>
	
		<linearGradient id="SVGID_42_" gradientUnits="userSpaceOnUse" x1="13.6533" y1="-35.3818" x2="15.3848" y2="-35.3818" gradientTransform="matrix(-0.065 0.7472 0.7472 0.065 52.7 8.6003)">
		<stop  offset="0" style="stop-color:#B5882F"/>
		<stop  offset="1" style="stop-color:#E6B95E"/>
	</linearGradient>
	<path style="fill-rule:evenodd;clip-rule:evenodd;fill:url(#SVGID_42_);" d="M25.288,16.288c-0.95-0.075-1.25,0.163-0.9,0.712
		s0.837,0.863,1.463,0.938c0.525,0.025,0.674-0.225,0.449-0.75C26.1,16.638,25.763,16.338,25.288,16.288z"/>
	
		<linearGradient id="SVGID_43_" gradientUnits="userSpaceOnUse" x1="17.0742" y1="-31.2739" x2="19.3809" y2="-31.2739" gradientTransform="matrix(-0.0569 0.7478 0.7478 0.0569 52.6999 8.5997)">
		<stop  offset="0" style="stop-color:#B5882F"/>
		<stop  offset="1" style="stop-color:#E6B95E"/>
	</linearGradient>
	<path style="fill-rule:evenodd;clip-rule:evenodd;fill:url(#SVGID_43_);" d="M28.813,21.463c0.125-0.275,0.212-0.563,0.262-0.863
		c0.101-0.6-0.05-1-0.45-1.2c-0.401-0.2-0.712-0.1-0.938,0.3c-0.125,0.2-0.2,0.412-0.226,0.638L28.813,21.463z"/>
	
		<linearGradient id="SVGID_44_" gradientUnits="userSpaceOnUse" x1="11.8013" y1="-38.1426" x2="12.9058" y2="-38.1426" gradientTransform="matrix(-0.0679 0.7469 0.7469 0.0679 52.6999 8.6001)">
		<stop  offset="0" style="stop-color:#B5882F"/>
		<stop  offset="1" style="stop-color:#E6B95E"/>
	</linearGradient>
	<path style="fill-rule:evenodd;clip-rule:evenodd;fill:url(#SVGID_44_);" d="M23.413,14.712c-0.525,0-0.7,0.175-0.525,0.525
		s0.425,0.512,0.75,0.487c0.274-0.025,0.35-0.2,0.225-0.525C23.763,14.875,23.613,14.712,23.413,14.712z"/>
	
		<use xlink:href="#flash0.ai_x5F_2_x2F_Layer_13_copy_x2F__x3C_Path_x3E__x5F_18"  width="11.85" height="2.062" y="-2.062" transform="matrix(-0.75 0 0 -0.75 42.3496 21.0996)" style="overflow:visible;opacity:0.5898;enable-background:new    ;"/>
	
		<use xlink:href="#flash0.ai_x5F_2_x2F_Layer_13_copy_x2F__x3C_Path_x3E__x5F_17"  width="27.418" height="3.75" x="-0.018" y="-3.75" transform="matrix(-0.75 0 0 -0.75 47.9004 16.7998)" style="overflow:visible;opacity:0.5898;enable-background:new    ;"/>
	
		<use xlink:href="#flash0.ai_x5F_2_x2F_Layer_13_copy_x2F__x3C_Path_x3E__x5F_16"  width="40.35" height="3.069" y="-3.079" transform="matrix(-0.75 0 0 -0.75 52.2002 13.2002)" style="overflow:visible;opacity:0.5898;enable-background:new    ;"/>
	
		<use xlink:href="#flash0.ai_x5F_2_x2F_Layer_13_copy_x2F__x3C_Path_x3E__x5F_15"  width="28.916" height="1.874" x="-0.016" y="-1.867" transform="matrix(-0.75 0 0 -0.75 49.9502 9.8999)" style="overflow:visible;opacity:0.5898;enable-background:new    ;"/>
	
		<use xlink:href="#flash0.ai_x5F_2_x2F_Layer_13_copy_x2F__x3C_Path_x3E__x5F_14"  width="1.944" height="0.633" x="0.086" y="-0.633" transform="matrix(-0.75 0 0 -0.75 49.0996 13.2002)" style="overflow:visible;opacity:0.5898;enable-background:new    ;"/>
	
		<use xlink:href="#flash0.ai_x5F_2_x2F_Layer_13_copy_x2F__x3C_Path_x3E__x5F_13"  width="3.302" height="0.792" y="-0.767" transform="matrix(-0.75 0 0 -0.75 44.7002 12.7002)" style="overflow:visible;opacity:0.5898;enable-background:new    ;"/>
	
		<use xlink:href="#flash0.ai_x5F_2_x2F_Layer_13_copy_x2F__x3C_Path_x3E__x5F_12"  width="1.237" height="0.408" x="-0.012" y="-0.4" transform="matrix(-0.75 0 0 -0.75 42.0498 13.1001)" style="overflow:visible;opacity:0.5898;enable-background:new    ;"/>
	
		<use xlink:href="#flash0.ai_x5F_2_x2F_Layer_13_copy_x2F__x3C_Path_x3E__x5F_11"  width="3.229" height="0.909" x="-0.003" y="-0.895" transform="matrix(-0.75 0 0 -0.75 34.2998 12.6499)" style="overflow:visible;opacity:0.5898;enable-background:new    ;"/>
	
		<use xlink:href="#flash0.ai_x5F_2_x2F_Layer_13_copy_x2F__x3C_Path_x3E__x5F_10"  width="2.189" height="0.664" x="-0.044" y="-0.657" transform="matrix(-0.75 0 0 -0.75 32.3496 11.2002)" style="overflow:visible;opacity:0.5898;enable-background:new    ;"/>
	
		<use xlink:href="#flash0.ai_x5F_2_x2F_Layer_13_copy_x2F__x3C_Path_x3E__x5F_9"  width="1.74" height="0.698" x="-0.025" y="-0.688" transform="matrix(-0.75 0 0 -0.75 48.1504 11.3999)" style="overflow:visible;opacity:0.5898;enable-background:new    ;"/>
	
		<use xlink:href="#flash0.ai_x5F_2_x2F_Layer_13_copy_x2F__x3C_Path_x3E__x5F_8"  width="2.214" height="0.374" x="-0.002" y="-0.36" transform="matrix(-0.75 0 0 -0.75 45.2002 9.5498)" style="overflow:visible;opacity:0.5898;enable-background:new    ;"/>
	
		<use xlink:href="#flash0.ai_x5F_2_x2F_Layer_13_copy_x2F__x3C_Path_x3E__x5F_7"  width="3.896" height="1.064" x="-0.006" y="-1.114" transform="matrix(-0.75 0 0 -0.75 50.9004 15.7998)" style="overflow:visible;opacity:0.5898;enable-background:new    ;"/>
	
		<use xlink:href="#flash0.ai_x5F_2_x2F_Layer_13_copy_x2F__x3C_Path_x3E__x5F_6"  width="2.324" height="1.1" x="-0.017" y="-1.1" transform="matrix(-0.75 0 0 -0.75 48.5498 16.25)" style="overflow:visible;opacity:0.5898;enable-background:new    ;"/>
	
		<use xlink:href="#flash0.ai_x5F_2_x2F_Layer_13_copy_x2F__x3C_Path_x3E__x5F_5"  width="3.215" height="0.817" x="-0.002" y="-0.85" transform="matrix(-0.75 0 0 -0.75 37.25 15.25)" style="overflow:visible;opacity:0.5898;enable-background:new    ;"/>
	
		<use xlink:href="#flash0.ai_x5F_2_x2F_Layer_13_copy_x2F__x3C_Path_x3E__x5F_4"  width="2.701" height="0.792" x="-0.045" y="-0.783" transform="matrix(-0.75 0 0 -0.75 28.8501 15.8999)" style="overflow:visible;opacity:0.5898;enable-background:new    ;"/>
	
		<use xlink:href="#flash0.ai_x5F_2_x2F_Layer_13_copy_x2F__x3C_Path_x3E__x5F_3"  width="3.45" height="1.174" x="-0.005" y="-1.169" transform="matrix(-0.75 0 0 -0.75 38.3496 19.1499)" style="overflow:visible;opacity:0.5898;enable-background:new    ;"/>
	
		<use xlink:href="#flash0.ai_x5F_2_x2F_Layer_13_copy_x2F__x3C_Path_x3E__x5F_2"  width="2.178" height="0.904" x="-0.016" y="-0.904" transform="matrix(-0.75 0 0 -0.75 43.7002 20.0498)" style="overflow:visible;opacity:0.5898;enable-background:new    ;"/>
	
		<use xlink:href="#flash0.ai_x5F_2_x2F_Layer_13_copy_x2F__x3C_Path_x3E__x5F_1"  width="2.694" height="1.263" x="-0.012" y="-1.257" transform="matrix(-0.75 0 0 -0.75 42.2002 20.6504)" style="overflow:visible;opacity:0.5898;enable-background:new    ;"/>
	
		<use xlink:href="#flash0.ai_x5F_2_x2F_Layer_13_copy_x2F__x3C_Path_x3E_"  width="2.586" height="1.033" x="-0.033" y="-1.033" transform="matrix(-0.75 0 0 -0.75 33.3496 18.8999)" style="overflow:visible;opacity:0.5898;enable-background:new    ;"/>
</g>
</svg>
