<?xml version="1.0" encoding="iso-8859-1"?>
<!-- Generator: Adobe Illustrator 15.1.0, SVG Export Plug-In . SVG Version: 6.00 Build 0)  -->
<!DOCTYPE svg PUBLIC "-//W3C//DTD SVG 1.1//EN" "http://www.w3.org/Graphics/SVG/1.1/DTD/svg11.dtd">
<svg version="1.1" id="flash0.ai" xmlns="http://www.w3.org/2000/svg" xmlns:xlink="http://www.w3.org/1999/xlink" x="0px" y="0px"
	 width="68.1px" height="20.5px" viewBox="0 0 68.1 20.5" style="enable-background:new 0 0 68.1 20.5;" xml:space="preserve">
<path style="fill-rule:evenodd;clip-rule:evenodd;fill:#A61418;" d="M44.5,8.9c0.4,0.133,0.616,0.3,0.65,0.5
	c-0.967,0.833-1.667,1.184-2.101,1.05c-0.233-0.067-0.416,0.066-0.55,0.4c-0.233,0.433-0.566,0.75-1,0.95
	c-0.533,0.267-1.066,0.417-1.6,0.45l-0.65-0.05c-0.467,1-1.217,1.55-2.25,1.649l-1.55,0.101c-0.8,0.666-1.534,0.899-2.2,0.7
	c-0.4-0.134-0.867-0.351-1.4-0.65l-0.65-0.4c-0.167,0.267-0.517,0.384-1.05,0.351c-0.367-0.033-0.667-0.101-0.9-0.2l-0.3-0.15
	c-0.534,0.334-1.067,0.517-1.6,0.551c-0.333,0-0.617-0.084-0.85-0.25L26.25,13.6c-0.3,0.301-0.567,0.4-0.8,0.301
	c-0.133-0.067-0.4-0.051-0.8,0.05c-0.467,0.133-0.8,0.2-1,0.2c-0.3,0.033-0.55-0.017-0.75-0.15l-0.25-0.15
	c-0.467,0.467-0.867,0.534-1.2,0.2l-0.8-0.75c-0.167,0.434-0.55,0.617-1.15,0.55c-0.367-0.066-0.683-0.149-0.95-0.25l-0.3-0.149
	l-1,0.2c-1.2,0.199-1.85,0.05-1.95-0.45c-0.066-0.3-0.167-0.517-0.3-0.65l-0.2-0.1c-0.2,0.533-0.6,0.75-1.2,0.649
	c-0.367-0.033-0.667-0.116-0.9-0.25l-0.2-0.199c-0.667,0.533-1.267,0.6-1.8,0.199c-0.367-0.267-0.617-0.5-0.75-0.699l-0.1-0.2
	C9.183,12.616,8.7,12.767,8.4,12.4L7.8,11.55v-0.3c-0.033-0.2-0.05-0.417-0.05-0.65c0.033-0.434,0.2-0.717,0.5-0.85
	c0.5-0.2,1.033-0.317,1.6-0.35C9.883,9.3,9.933,9.167,10,9c0.167-0.3,0.367-0.517,0.6-0.65C11,8.083,11.383,7.967,11.75,8l0.3-0.45
	c0.2-0.3,0.4-0.517,0.6-0.65c0.3-0.2,0.883-0.167,1.75,0.1c0-0.2,0-0.417,0-0.65c0.067-0.434,0.217-0.717,0.45-0.85l0.95-0.45
	l0.45-0.45c0.367-0.233,0.75-0.233,1.15,0c0.7,0.367,1.15,0.367,1.35,0l0.35-0.4c0.267-0.3,0.566-0.483,0.9-0.55
	c0.3-0.066,0.483-0.233,0.55-0.5c0.133-0.433,0.267-0.717,0.4-0.85c0.333-0.4,0.867-0.45,1.6-0.15L23,1.55
	c0.367-0.4,0.75-0.566,1.15-0.5l0.95,0.2l0.7-0.1c0.5-0.033,0.833,0.033,1,0.2l0.4,0.4l0.35-0.1c0.233-0.033,0.434,0.05,0.6,0.25
	c0.233,0.267,0.367,0.767,0.4,1.5l0.5-0.25C29.45,2.983,29.767,2.933,30,3c0.433,0.133,0.717,0.367,0.85,0.7l0.35-0.05
	c0.3,0.033,0.55,0.2,0.75,0.5l0.5,0.7L33,4.9c0.4,0.067,0.7,0.184,0.9,0.35c0.333,0.267,0.534,0.517,0.6,0.75l0.35-0.2
	c0.267-0.133,0.5-0.167,0.7-0.1c0.334,0.1,0.75,0.383,1.25,0.85L38.65,7.8l0.25-0.2c0.199-0.133,0.449-0.184,0.75-0.15
	c0.466,0.1,0.666,0.316,0.6,0.65l0.4,0.05c0.267,0.067,0.449,0.167,0.55,0.3l0.3,0.35l0.3-0.25c0.267-0.167,0.55-0.216,0.851-0.15
	c0.433,0.067,0.633,0.267,0.6,0.6l0.4-0.1C43.95,8.833,44.233,8.833,44.5,8.9z"/>
<path style="fill-rule:evenodd;clip-rule:evenodd;fill:#205099;" d="M36.2,7.3c0.733,0.633,0.833,1.233,0.3,1.8
	c-0.533,0.6-0.983,0.517-1.35-0.25c-0.334-0.667-0.334-1.184,0-1.55C35.45,6.967,35.8,6.967,36.2,7.3z"/>
<path style="fill-rule:evenodd;clip-rule:evenodd;fill:#205099;" d="M28.7,3.05c0.867,0.7,1.017,1.383,0.45,2.05
	c-0.6,0.7-1.117,0.65-1.55-0.15c-0.367-0.667-0.367-1.233,0-1.7C27.967,2.817,28.333,2.75,28.7,3.05z"/>
<path style="fill-rule:evenodd;clip-rule:evenodd;fill:#205099;" d="M27.85,6.95c1.1,0.033,1.5,0.583,1.2,1.65
	c-0.3,1.1-0.75,1.483-1.35,1.15c-0.5-0.267-0.717-0.8-0.65-1.6C27.117,7.317,27.383,6.917,27.85,6.95z"/>
<path style="fill-rule:evenodd;clip-rule:evenodd;fill:#205099;" d="M31.05,9.85c0.567,0.333,0.833,0.816,0.8,1.45
	c-0.033,0.667-0.383,0.884-1.05,0.65c-0.633-0.2-0.833-0.65-0.6-1.35C30.433,9.9,30.717,9.65,31.05,9.85z"/>
<path style="fill-rule:evenodd;clip-rule:evenodd;fill:#205099;" d="M24.9,12.1c0.7,0.034,1.05,0.417,1.05,1.15
	c-0.034,0.7-0.333,1.05-0.9,1.05c-0.533,0-0.85-0.383-0.95-1.149C24.033,12.417,24.3,12.066,24.9,12.1z"/>
<path style="fill-rule:evenodd;clip-rule:evenodd;fill:#205099;" d="M18.65,10.5c0.567,0.3,0.733,0.8,0.5,1.5s-0.583,0.8-1.05,0.3
	c-0.4-0.434-0.467-0.883-0.2-1.35C18.167,10.55,18.417,10.4,18.65,10.5z"/>
<path style="fill-rule:evenodd;clip-rule:evenodd;fill:#205099;" d="M12.4,11.3c0.6,0.267,0.733,0.75,0.4,1.45
	c-0.333,0.667-0.733,0.884-1.2,0.65c-0.434-0.2-0.5-0.634-0.2-1.301C11.7,11.4,12.033,11.134,12.4,11.3z"/>
<path style="fill-rule:evenodd;clip-rule:evenodd;fill:#205099;" d="M7.7,10.4c0.633,0.167,0.833,0.5,0.6,1
	c-0.233,0.5-0.533,0.683-0.9,0.55c-0.333-0.101-0.467-0.4-0.4-0.9C7.067,10.517,7.3,10.3,7.7,10.4z"/>
<path style="fill-rule:evenodd;clip-rule:evenodd;fill:#205099;" d="M17.4,6.25c0.667,0.133,0.783,0.517,0.35,1.15
	c-0.433,0.7-0.817,0.917-1.15,0.65c-0.367-0.267-0.483-0.633-0.35-1.1C16.417,6.417,16.8,6.183,17.4,6.25z"/>
<path style="fill-rule:evenodd;clip-rule:evenodd;fill:#205099;" d="M35.6,11.1c0.767,0,1.117,0.367,1.051,1.101
	c-0.034,0.733-0.384,1.066-1.051,1c-0.566-0.033-0.833-0.4-0.8-1.101C34.866,11.434,35.134,11.1,35.6,11.1z"/>
<path style="fill-rule:evenodd;clip-rule:evenodd;fill:#205099;" d="M39.8,9.95c0.367,0.6,0.434,1.083,0.2,1.45
	c-0.2,0.333-0.583,0.449-1.15,0.35c-0.566-0.134-0.649-0.65-0.25-1.55C38.967,9.3,39.366,9.217,39.8,9.95z"/>
<path style="fill-rule:evenodd;clip-rule:evenodd;fill:#205099;" d="M41.5,8.15c0.267,0.3,0.333,0.667,0.2,1.1
	C41.533,9.65,41.3,9.7,41,9.4c-0.3-0.333-0.366-0.717-0.2-1.15C40.934,7.85,41.167,7.817,41.5,8.15z"/>
<path style="fill-rule:evenodd;clip-rule:evenodd;fill:#205099;" d="M42.95,10.2c0.434,0.233,0.483,0.6,0.149,1.1
	c-0.3,0.5-0.649,0.684-1.05,0.55c-0.366-0.1-0.416-0.449-0.149-1.05C42.167,10.2,42.517,10,42.95,10.2z"/>
<path style="fill-rule:evenodd;clip-rule:evenodd;fill:#205099;" d="M32.55,5.5c0.467,0.1,0.633,0.483,0.5,1.15
	c-0.167,0.667-0.466,0.833-0.9,0.5c-0.4-0.3-0.483-0.667-0.25-1.1C32.133,5.617,32.35,5.433,32.55,5.5z"/>
<path style="fill-rule:evenodd;clip-rule:evenodd;fill:#205099;" d="M30.25,5.95c0.7,0.3,0.917,0.7,0.65,1.2
	c-0.233,0.5-0.566,0.65-1,0.45c-0.3-0.133-0.333-0.45-0.1-0.95L30.25,5.95z"/>
<path style="fill-rule:evenodd;clip-rule:evenodd;fill:#205099;" d="M25.2,5.7c0.867,0.367,1.05,0.883,0.55,1.55
	c-0.5,0.7-0.933,0.967-1.3,0.8c-0.267-0.1-0.3-0.55-0.1-1.35C24.55,5.9,24.833,5.567,25.2,5.7z"/>
<path style="fill-rule:evenodd;clip-rule:evenodd;fill:#205099;" d="M21.15,7.95c1.033-0.1,1.434,0.35,1.2,1.35
	c-0.233,0.967-0.6,1.45-1.1,1.45c-0.333,0-0.483-0.467-0.45-1.4C20.8,8.45,20.917,7.983,21.15,7.95z"/>
<path style="fill-rule:evenodd;clip-rule:evenodd;fill:#205099;" d="M14.8,8.75c0.333,0.633,0.333,1.15,0,1.55
	c-0.3,0.4-0.667,0.4-1.1,0c-0.434-0.367-0.417-0.833,0.05-1.4C14.25,8.333,14.6,8.283,14.8,8.75z"/>
<path style="fill-rule:evenodd;clip-rule:evenodd;fill:#205099;" d="M22.7,3.8c0.8,0.167,0.95,0.617,0.45,1.35
	c-0.533,0.767-1,1-1.4,0.7c-0.367-0.3-0.433-0.733-0.2-1.3C21.817,3.95,22.2,3.7,22.7,3.8z"/>
<path style="fill-rule:evenodd;clip-rule:evenodd;fill:#205099;" d="M11.8,7.05C12.433,7.517,12.517,8,12.05,8.5
	c-0.5,0.5-0.867,0.5-1.1,0c-0.2-0.433-0.167-0.833,0.1-1.2C11.283,6.933,11.533,6.85,11.8,7.05z"/>
<path style="fill-rule:evenodd;clip-rule:evenodd;fill:#205099;" d="M14.8,11.4c0.8,0.166,1,0.716,0.6,1.649
	s-0.816,1.134-1.25,0.601c-0.367-0.467-0.45-0.983-0.25-1.551C14.1,11.566,14.4,11.333,14.8,11.4z"/>
<path style="fill-rule:evenodd;clip-rule:evenodd;fill:#205099;" d="M21,12.65c0.567,0.233,0.767,0.6,0.6,1.1
	c-0.2,0.533-0.533,0.684-1,0.45c-0.434-0.2-0.55-0.533-0.35-1S20.7,12.55,21,12.65z"/>
<path style="fill-rule:evenodd;clip-rule:evenodd;fill:#205099;" d="M19.25,5.7c1.033,0.066,1.433,0.466,1.2,1.2
	c-0.233,0.767-0.667,1.083-1.3,0.95c-0.5-0.133-0.717-0.517-0.65-1.15C18.567,6.033,18.817,5.7,19.25,5.7z"/>
<path style="fill-rule:evenodd;clip-rule:evenodd;fill:#205099;" d="M20.35,2.6c0.767,0.033,0.95,0.35,0.55,0.95
	c-0.433,0.6-0.8,0.8-1.1,0.6c-0.267-0.2-0.333-0.5-0.2-0.9C19.733,2.783,19.983,2.567,20.35,2.6z"/>
<path style="fill-rule:evenodd;clip-rule:evenodd;fill:#205099;" d="M25.2,2.8c0.867,0.167,1.083,0.55,0.65,1.15
	c-0.467,0.7-0.817,0.917-1.05,0.65c-0.167-0.167-0.2-0.517-0.1-1.05C24.8,3.017,24.967,2.767,25.2,2.8z"/>
<path style="fill-rule:evenodd;clip-rule:evenodd;fill:#205099;" d="M30.95,3.8c0.6,0.467,0.7,0.917,0.3,1.35
	c-0.467,0.5-0.783,0.5-0.95,0c-0.133-0.367-0.117-0.733,0.05-1.1C30.517,3.717,30.717,3.633,30.95,3.8z"/>
<path style="fill-rule:evenodd;clip-rule:evenodd;fill:#205099;" d="M28.7,10.5c0.8,0.467,0.917,1.017,0.35,1.65
	C28.483,12.783,28,12.833,27.6,12.3c-0.333-0.467-0.333-0.95,0-1.45C27.933,10.383,28.3,10.267,28.7,10.5z"/>
<path style="fill-rule:evenodd;clip-rule:evenodd;fill:#205099;" d="M35.05,5.45c0.667,0.5,0.75,0.867,0.25,1.1
	c-0.566,0.233-0.916,0.2-1.05-0.1c-0.1-0.233-0.05-0.5,0.15-0.8C34.6,5.317,34.816,5.25,35.05,5.45z"/>
<path style="fill-rule:evenodd;clip-rule:evenodd;fill:#205099;" d="M33.5,9.15c0.967,0.267,1.283,0.7,0.95,1.3
	c-0.367,0.6-0.817,0.717-1.35,0.35c-0.434-0.3-0.55-0.667-0.35-1.1C32.917,9.233,33.167,9.05,33.5,9.15z"/>
<path style="fill-rule:evenodd;clip-rule:evenodd;fill:#205099;" d="M32,12.75c1.133,0.333,1.5,0.767,1.1,1.3
	c-0.434,0.533-0.967,0.684-1.6,0.45c-0.533-0.167-0.683-0.533-0.45-1.1C31.25,12.8,31.567,12.583,32,12.75z"/>
<path style="fill-rule:evenodd;clip-rule:evenodd;fill:#205099;" d="M38.8,12.45c0.7,0.267,1.017,0.467,0.95,0.6
	c-0.267,0.134-0.483,0.283-0.65,0.45c-0.267,0.3-0.666,0.517-1.199,0.65C37.3,14.316,37,14.217,37,13.85
	c0-0.433,0.2-0.833,0.6-1.199C38.033,12.283,38.434,12.217,38.8,12.45z"/>
<path style="fill-rule:evenodd;clip-rule:evenodd;fill:#DE1A21;" d="M18.45,7.85c0.767,0.4,0.9,1.033,0.4,1.9
	c-0.467,0.867-0.934,1.167-1.4,0.9c-0.434-0.233-0.517-0.833-0.25-1.8C17.433,7.883,17.85,7.55,18.45,7.85z"/>
<path style="fill-rule:evenodd;clip-rule:evenodd;fill:#DE1A21;" d="M15.45,9.3c1.133,0.1,1.583,0.65,1.35,1.65
	c-0.267,1.033-0.716,1.366-1.35,1c-0.5-0.267-0.7-0.783-0.6-1.55C14.917,9.633,15.117,9.267,15.45,9.3z"/>
<path style="fill-rule:evenodd;clip-rule:evenodd;fill:#DE1A21;" d="M11.1,9.4c0.467-0.333,0.7-0.017,0.7,0.95
	c0.034,0.966-0.233,1.4-0.8,1.3c-0.5-0.101-0.683-0.45-0.55-1.05C10.55,10.067,10.767,9.667,11.1,9.4z"/>
<path style="fill-rule:evenodd;clip-rule:evenodd;fill:#DE1A21;" d="M16.5,5.4c0.667,0.1,0.9,0.55,0.7,1.35
	c-0.2,0.833-0.567,1.167-1.1,1s-0.733-0.633-0.6-1.4C15.6,5.617,15.933,5.3,16.5,5.4z"/>
<path style="fill-rule:evenodd;clip-rule:evenodd;fill:#DE1A21;" d="M18.35,3.6c0.433-0.233,0.7,0.017,0.8,0.75
	s-0.066,1.117-0.5,1.15c-0.367,0.033-0.566-0.233-0.6-0.8C17.983,4.1,18.083,3.733,18.35,3.6z"/>
<path style="fill-rule:evenodd;clip-rule:evenodd;fill:#DE1A21;" d="M26.65,10.2c0.7,0,0.934,0.417,0.7,1.25
	c-0.233,0.866-0.517,1.233-0.85,1.1c-0.367-0.166-0.583-0.583-0.65-1.25C25.783,10.567,26.05,10.2,26.65,10.2z"/>
<path style="fill-rule:evenodd;clip-rule:evenodd;fill:#DE1A21;" d="M24,3.35c0.6,0.066,0.817,0.517,0.65,1.35
	c-0.167,0.833-0.55,1.133-1.15,0.9c-0.567-0.2-0.75-0.633-0.55-1.3C23.15,3.633,23.5,3.317,24,3.35z"/>
<path style="fill-rule:evenodd;clip-rule:evenodd;fill:#DE1A21;" d="M22.55,11.2c0.867,0.033,1.35,0.434,1.45,1.2
	c0.133,0.767-0.2,1.066-1,0.899c-0.7-0.133-1.067-0.533-1.1-1.2C21.867,11.467,22.083,11.167,22.55,11.2z"/>
<path style="fill-rule:evenodd;clip-rule:evenodd;fill:#DE1A21;" d="M17.65,12.3c0.567,0.2,0.867,0.617,0.9,1.25
	c0.034,0.634-0.35,0.884-1.15,0.75c-0.8-0.1-1.1-0.5-0.9-1.2C16.7,12.4,17.083,12.134,17.65,12.3z"/>
<path style="fill-rule:evenodd;clip-rule:evenodd;fill:#DE1A21;" d="M33.05,11.4c0.767-0.101,1.084,0.283,0.95,1.149
	c-0.167,0.834-0.517,1.2-1.05,1.101c-0.467-0.134-0.667-0.534-0.6-1.2C32.417,11.816,32.65,11.467,33.05,11.4z"/>
<path style="fill-rule:evenodd;clip-rule:evenodd;fill:#DE1A21;" d="M13.9,5.7c0.733,0.066,0.95,0.45,0.65,1.15
	c-0.3,0.667-0.667,0.883-1.1,0.65c-0.367-0.2-0.467-0.567-0.3-1.1C13.317,5.9,13.567,5.667,13.9,5.7z"/>
<path style="fill-rule:evenodd;clip-rule:evenodd;fill:#DE1A21;" d="M10.15,8.6c0.3,0,0.434,0.25,0.4,0.75
	c-0.033,0.5-0.167,0.816-0.4,0.95s-0.583,0.067-1.05-0.2C8.633,9.8,8.433,9.45,8.5,9.05C8.6,8.683,8.783,8.5,9.05,8.5
	C9.217,8.5,9.583,8.533,10.15,8.6z"/>
<path style="fill-rule:evenodd;clip-rule:evenodd;fill:#DE1A21;" d="M24.65,0c0.967,0,1.367,0.367,1.2,1.1
	c-0.133,0.7-0.483,1.05-1.05,1.05c-0.433,0-0.667-0.35-0.7-1.05C24.067,0.367,24.25,0,24.65,0z"/>
<path style="fill-rule:evenodd;clip-rule:evenodd;fill:#DE1A21;" d="M29,1.35c0.4,0.333,0.333,0.683-0.2,1.05
	c-0.566,0.4-0.9,0.434-1,0.1c-0.167-0.4-0.15-0.783,0.05-1.15C28.083,0.917,28.467,0.917,29,1.35z"/>
<path style="fill-rule:evenodd;clip-rule:evenodd;fill:#DE1A21;" d="M32.65,4.05c0.7,0.6,0.85,1.083,0.45,1.45S32.333,5.9,32,5.6
	c-0.267-0.233-0.333-0.633-0.2-1.2C31.967,3.833,32.25,3.717,32.65,4.05z"/>
<path style="fill-rule:evenodd;clip-rule:evenodd;fill:#DE1A21;" d="M36.65,6.05C37.316,6.083,37.7,6.533,37.8,7.4
	c0.134,0.867-0.083,1.2-0.649,1c-0.467-0.167-0.733-0.6-0.801-1.3C36.283,6.367,36.384,6.017,36.65,6.05z"/>
<path style="fill-rule:evenodd;clip-rule:evenodd;fill:#DE1A21;" d="M33.45,7.3c0.5,0,0.733,0.367,0.7,1.1
	c-0.034,0.7-0.317,1.033-0.851,1c-0.533-0.033-0.733-0.4-0.6-1.1C32.867,7.633,33.117,7.3,33.45,7.3z"/>
<path style="fill-rule:evenodd;clip-rule:evenodd;fill:#DE1A21;" d="M30.8,7.95c0.4,0.167,0.467,0.6,0.2,1.3
	c-0.3,0.667-0.617,0.933-0.95,0.8c-0.333-0.1-0.4-0.517-0.2-1.25C30.083,8.1,30.4,7.817,30.8,7.95z"/>
<path style="fill-rule:evenodd;clip-rule:evenodd;fill:#DE1A21;" d="M24.45,8.05c0.767,0.534,0.933,1.05,0.5,1.55
	c-0.467,0.533-0.867,0.533-1.2,0c-0.233-0.4-0.233-0.8,0-1.2C24.017,8.033,24.25,7.917,24.45,8.05z"/>
<path style="fill-rule:evenodd;clip-rule:evenodd;fill:#DE1A21;" d="M20.55,6.05c0.434,0,0.667,0.317,0.7,0.95
	c0.067,0.6-0.117,0.95-0.55,1.05c-0.434,0.133-0.65-0.167-0.65-0.9C20.017,6.417,20.183,6.05,20.55,6.05z"/>
<path style="fill-rule:evenodd;clip-rule:evenodd;fill:#BFAD8B;" d="M17.15,3.6c0.767-0.2,1.167,0.117,1.2,0.95
	c0.033,0.867-0.283,1.3-0.95,1.3c-0.6,0-0.867-0.35-0.8-1.05C16.633,4.1,16.817,3.7,17.15,3.6z"/>
<path style="fill-rule:evenodd;clip-rule:evenodd;fill:#BFAD8B;" d="M22.7,2.05c0.7,0.233,0.95,0.65,0.75,1.25
	c-0.2,0.633-0.583,0.8-1.15,0.5c-0.5-0.267-0.683-0.667-0.55-1.2S22.2,1.883,22.7,2.05z"/>
<path style="fill-rule:evenodd;clip-rule:evenodd;fill:#BFAD8B;" d="M21.65,4.8c0.4,0.2,0.434,0.717,0.1,1.55
	C21.417,7.183,21.033,7.3,20.6,6.7c-0.467-0.567-0.533-1.083-0.2-1.55C20.7,4.683,21.117,4.567,21.65,4.8z"/>
<path style="fill-rule:evenodd;clip-rule:evenodd;fill:#BFAD8B;" d="M22.7,7.05c0.667,0.133,0.933,0.583,0.8,1.35
	c-0.1,0.8-0.45,1.017-1.05,0.65C21.95,8.75,21.8,8.333,22,7.8C22.167,7.267,22.4,7.017,22.7,7.05z"/>
<path style="fill-rule:evenodd;clip-rule:evenodd;fill:#BFAD8B;" d="M19.7,8.75c0.6,0.767,0.733,1.4,0.4,1.9
	c-0.367,0.5-0.85,0.45-1.45-0.15c-0.5-0.5-0.517-1.017-0.05-1.55C19.067,8.45,19.433,8.383,19.7,8.75z"/>
<path style="fill-rule:evenodd;clip-rule:evenodd;fill:#BFAD8B;" d="M15.3,6.95c0.667,0.633,0.733,1.183,0.2,1.65
	c-0.533,0.5-1,0.5-1.4,0c-0.367-0.4-0.35-0.867,0.05-1.4C14.55,6.7,14.933,6.617,15.3,6.95z"/>
<path style="fill-rule:evenodd;clip-rule:evenodd;fill:#BFAD8B;" d="M12.3,8.75c1.167-0.067,1.583,0.4,1.25,1.4
	c-0.333,1.067-0.716,1.45-1.15,1.15c-0.367-0.267-0.6-0.733-0.7-1.4C11.6,9.167,11.8,8.783,12.3,8.75z"/>
<path style="fill-rule:evenodd;clip-rule:evenodd;fill:#BFAD8B;" d="M9.25,9.85c0.633,0.033,0.867,0.433,0.7,1.2
	c-0.167,0.767-0.483,1-0.95,0.7c-0.433-0.267-0.583-0.65-0.45-1.15C8.65,10.067,8.883,9.817,9.25,9.85z"/>
<path style="fill-rule:evenodd;clip-rule:evenodd;fill:#BFAD8B;" d="M21.25,10.75c0.967,0.167,1.4,0.6,1.3,1.3
	c-0.066,0.7-0.533,1.05-1.4,1.05c-0.767,0-1.083-0.416-0.95-1.25C20.333,11.017,20.683,10.65,21.25,10.75z"/>
<path style="fill-rule:evenodd;clip-rule:evenodd;fill:#BFAD8B;" d="M26.25,9.3c0.467-0.066,0.717,0.333,0.75,1.2
	c0,0.866-0.25,1.25-0.75,1.15c-0.5-0.134-0.733-0.551-0.7-1.25C25.583,9.733,25.817,9.367,26.25,9.3z"/>
<path style="fill-rule:evenodd;clip-rule:evenodd;fill:#BFAD8B;" d="M26.4,5.15c0.667,0.233,0.883,0.75,0.65,1.55
	c-0.233,0.833-0.633,1.133-1.2,0.9c-0.567-0.233-0.75-0.733-0.55-1.5C25.533,5.3,25.9,4.983,26.4,5.15z"/>
<path style="fill-rule:evenodd;clip-rule:evenodd;fill:#BFAD8B;" d="M24.8,2.15c0.8-0.333,1.167-0.083,1.1,0.75
	c-0.033,0.867-0.316,1.25-0.85,1.15c-0.5-0.133-0.783-0.433-0.85-0.9C24.133,2.65,24.333,2.317,24.8,2.15z"/>
<path style="fill-rule:evenodd;clip-rule:evenodd;fill:#BFAD8B;" d="M32.4,9.05c0.6,0.333,0.85,0.75,0.75,1.25
	c-0.066,0.5-0.417,0.684-1.05,0.55c-0.633-0.1-0.85-0.483-0.65-1.15C31.617,9.033,31.933,8.817,32.4,9.05z"/>
<path style="fill-rule:evenodd;clip-rule:evenodd;fill:#BFAD8B;" d="M28.7,12.2c0.633,0.1,0.917,0.467,0.85,1.1
	c-0.1,0.601-0.417,0.934-0.95,1c-0.467,0.066-0.65-0.283-0.55-1.05C28.15,12.483,28.367,12.134,28.7,12.2z"/>
<path style="fill-rule:evenodd;clip-rule:evenodd;fill:#205099;" d="M1.55,9.75c0.767,0.467,0.817,0.9,0.15,1.3
	C1,11.483,0.5,11.5,0.2,11.1c-0.3-0.399-0.267-0.8,0.1-1.2S1.083,9.45,1.55,9.75z"/>
<path style="fill-rule:evenodd;clip-rule:evenodd;fill:#205099;" d="M38.55,7.2C39.283,7.667,39.4,8.033,38.9,8.3
	c-0.467,0.3-0.917,0.3-1.351,0c-0.333-0.267-0.35-0.566-0.05-0.9C37.8,7.033,38.15,6.967,38.55,7.2z"/>
<path style="fill-rule:evenodd;clip-rule:evenodd;fill:#205099;" d="M36.7,14.95c1.133-0.066,1.5,0.233,1.1,0.899
	c-0.399,0.7-0.833,0.967-1.3,0.801c-0.4-0.101-0.583-0.4-0.55-0.9S36.233,14.983,36.7,14.95z"/>
<path style="fill-rule:evenodd;clip-rule:evenodd;fill:#205099;" d="M27.9,15c1.333-0.267,1.967,0.017,1.9,0.85
	c-0.066,0.834-0.566,1.25-1.5,1.25c-0.767,0-1.117-0.333-1.05-1C27.317,15.434,27.533,15.066,27.9,15z"/>
<path style="fill-rule:evenodd;clip-rule:evenodd;fill:#205099;" d="M8.85,13.1c0.9,0.434,0.983,0.884,0.25,1.351
	c-0.767,0.467-1.35,0.467-1.75,0c-0.367-0.434-0.333-0.834,0.1-1.2C7.883,12.884,8.35,12.833,8.85,13.1z"/>
<path style="fill-rule:evenodd;clip-rule:evenodd;fill:#A61418;" d="M3.85,9.75c1,0.8,1.033,1.5,0.1,2.1
	c-0.967,0.601-1.6,0.517-1.9-0.25C1.817,10.967,1.967,10.417,2.5,9.95C3,9.483,3.45,9.417,3.85,9.75z"/>
<path style="fill-rule:evenodd;clip-rule:evenodd;fill:#A61418;" d="M2.55,13.1c0.534,0.134,0.7,0.517,0.5,1.15
	c-0.2,0.6-0.6,0.667-1.2,0.2c-0.533-0.434-0.667-0.8-0.4-1.101C1.717,13.083,2.083,13,2.55,13.1z"/>
<path style="fill-rule:evenodd;clip-rule:evenodd;fill:#A61418;" d="M15.55,15.55c0.733,0.167,0.9,0.584,0.5,1.25
	c-0.4,0.7-0.883,0.95-1.45,0.75c-0.533-0.166-0.667-0.566-0.4-1.2C14.5,15.684,14.95,15.417,15.55,15.55z"/>
<path style="fill-rule:evenodd;clip-rule:evenodd;fill:#A61418;" d="M25.05,14.3c0.867,0.334,1.1,0.8,0.7,1.4
	c-0.433,0.633-1.017,0.7-1.75,0.2c-0.667-0.467-0.8-0.9-0.4-1.301C24,14.233,24.483,14.134,25.05,14.3z"/>
<path style="fill-rule:evenodd;clip-rule:evenodd;fill:#A61418;" d="M32.8,14.2c0.733,0.066,0.883,0.5,0.45,1.3
	s-1.017,1.017-1.75,0.65c-0.767-0.367-0.917-0.801-0.45-1.301C31.483,14.35,32.067,14.134,32.8,14.2z"/>
<path style="fill-rule:evenodd;clip-rule:evenodd;fill:#A61418;" d="M27.55,16.45c0.7,0.2,0.917,0.55,0.65,1.05
	c-0.233,0.5-0.617,0.65-1.15,0.45c-0.466-0.134-0.583-0.45-0.35-0.95C26.9,16.533,27.183,16.35,27.55,16.45z"/>
<path style="fill-rule:evenodd;clip-rule:evenodd;fill:#A61418;" d="M39.15,12.55c1.033,0.2,1.283,0.65,0.75,1.351
	C39.4,14.6,38.8,14.833,38.1,14.6c-0.633-0.199-0.783-0.633-0.449-1.3C37.983,12.667,38.483,12.417,39.15,12.55z"/>
<path style="fill-rule:evenodd;clip-rule:evenodd;fill:#A61418;" d="M43.95,12.55c0.467,0.033,0.633,0.316,0.5,0.851
	c-0.134,0.5-0.483,0.716-1.05,0.649c-0.567-0.1-0.733-0.383-0.5-0.85C43.1,12.7,43.45,12.483,43.95,12.55z"/>
<path style="fill-rule:evenodd;clip-rule:evenodd;fill:#A61418;" d="M41.75,14.35c0.934,0.167,1.2,0.667,0.8,1.5
	C42.15,16.684,41.6,16.95,40.9,16.65c-0.601-0.267-0.733-0.75-0.4-1.45C40.833,14.566,41.25,14.283,41.75,14.35z"/>
<path style="fill-rule:evenodd;clip-rule:evenodd;fill:#A61418;" d="M45.7,8.85c1,0.2,1.35,0.566,1.05,1.1
	c-0.3,0.566-0.816,0.783-1.55,0.65c-0.601-0.133-0.783-0.483-0.55-1.05C44.85,8.983,45.2,8.75,45.7,8.85z"/>
<path style="fill-rule:evenodd;clip-rule:evenodd;fill:#A61418;" d="M6.6,11c0.3,0.366,0.167,0.866-0.4,1.5
	c-0.6,0.6-1,0.583-1.2-0.05C4.8,11.816,4.95,11.333,5.45,11C5.95,10.667,6.333,10.667,6.6,11z"/>
<path style="fill-rule:evenodd;clip-rule:evenodd;fill:#BFAD8B;" d="M4.15,11.6c0.733,0.067,0.833,0.434,0.3,1.101
	C3.917,13.366,3.433,13.55,3,13.25c-0.4-0.333-0.45-0.7-0.15-1.1C3.15,11.717,3.583,11.533,4.15,11.6z"/>
<path style="fill-rule:evenodd;clip-rule:evenodd;fill:#BFAD8B;" d="M11.6,14.15c0.867,0.166,1.033,0.483,0.5,0.949
	c-0.533,0.467-1.017,0.534-1.45,0.2c-0.367-0.267-0.383-0.533-0.05-0.8C10.9,14.2,11.233,14.083,11.6,14.15z"/>
<path style="fill-rule:evenodd;clip-rule:evenodd;fill:#BFAD8B;" d="M21.35,13.95c0.367,0.066,0.566,0.3,0.6,0.7
	c0,0.333-0.067,0.55-0.2,0.649c-0.133,0.101-0.35,0.117-0.65,0.05c-0.367-0.133-0.733-0.383-1.1-0.75
	c-0.367-0.366-0.333-0.6,0.1-0.699C20.4,13.833,20.817,13.85,21.35,13.95z"/>
<path style="fill-rule:evenodd;clip-rule:evenodd;fill:#BFAD8B;" d="M38.7,14.45c0.6,0.1,0.899,0.333,0.899,0.7
	c0,0.3-0.166,0.55-0.5,0.75c-0.233,0.133-0.416,0.183-0.55,0.149c-0.133,0-0.366-0.1-0.7-0.3c-0.366-0.233-0.416-0.517-0.149-0.85
	C37.967,14.533,38.3,14.384,38.7,14.45z"/>
</svg>
