<?xml version="1.0" encoding="iso-8859-1"?>
<!-- Generator: Adobe Illustrator 15.1.0, SVG Export Plug-In . SVG Version: 6.00 Build 0)  -->
<!DOCTYPE svg PUBLIC "-//W3C//DTD SVG 1.1//EN" "http://www.w3.org/Graphics/SVG/1.1/DTD/svg11.dtd">
<svg version="1.1" id="flash0.ai" xmlns="http://www.w3.org/2000/svg" xmlns:xlink="http://www.w3.org/1999/xlink" x="0px" y="0px"
	 width="42.85px" height="41.1px" viewBox="0 0 42.85 41.1" style="enable-background:new 0 0 42.85 41.1;" xml:space="preserve">
<symbol  id="flash0.ai_x5F_7_x2F_Layer_22_copy_x2F__x3C_Path_x3E__x5F_10" viewBox="0 -31.5 5.3 31.5">
	<g id="Layer_1_8_">
		
			<linearGradient id="SVGID_1_" gradientUnits="userSpaceOnUse" x1="-545.9385" y1="-15752.041" x2="-520.7775" y2="-15752.041" gradientTransform="matrix(0.0696 -0.9976 0.9976 0.0696 15753.8994 548.5234)">
			<stop  offset="0" style="stop-color:#FFFFFF"/>
			<stop  offset="1" style="stop-color:#000000"/>
		</linearGradient>
		<path style="fill-rule:evenodd;clip-rule:evenodd;fill:url(#SVGID_1_);" d="M3.35-0.55L5.3,0c0-0.267-0.2-1-0.6-2.2
			C4.533-2.667,4.167-3.583,3.6-4.95C3.133-6.017,2.867-6.8,2.8-7.3c-0.1-0.633-0.15-3.267-0.15-7.9
			c-0.033-4.333-0.017-7.7,0.05-10.1c0.033-2.867,0.216-4.934,0.55-6.2c-0.333,0.233-0.8,0.717-1.4,1.45
			c-0.4,0.466-0.767,1.033-1.1,1.7l-0.4,0.85L0-6.5C0.033-6,0.3-5.4,0.8-4.7C1.4-4,1.783-3.5,1.95-3.2
			C2.683-2.033,3.15-1.15,3.35-0.55z"/>
	</g>
</symbol>
<symbol  id="flash0.ai_x5F_7_x2F_Layer_22_copy_x2F__x3C_Path_x3E__x5F_13" viewBox="-0.029 -2.455 1.764 2.455">
	<g id="Layer_1_7_">
		<path style="fill-rule:evenodd;clip-rule:evenodd;fill:#735B2C;" d="M1,0c0.7,0,0.9-0.45,0.6-1.35C1.267-2.25,0.85-2.6,0.35-2.4
			c-0.4,0.2-0.483,0.65-0.25,1.35C0.333-0.35,0.633,0,1,0z"/>
	</g>
</symbol>
<symbol  id="flash0.ai_x5F_7_x2F_Layer_22_copy_x2F__x3C_Path_x3E__x5F_14" viewBox="-0.002 -1.716 2.518 1.741">
	<g id="Layer_1_6_">
		<path style="fill-rule:evenodd;clip-rule:evenodd;fill:#735B2C;" d="M2.5-0.2C2.6-1,2.233-1.483,1.4-1.65
			C0.567-1.817,0.1-1.667,0-1.2c-0.033,0.367,0.367,0.7,1.2,1C2,0.1,2.433,0.1,2.5-0.2z"/>
	</g>
</symbol>
<symbol  id="flash0.ai_x5F_7_x2F_Layer_22_copy_x2F__x3C_Path_x3E__x5F_15" viewBox="-0.068 -1.603 2.894 1.662">
	<g id="Layer_1_5_">
		<path style="fill-rule:evenodd;clip-rule:evenodd;fill:#735B2C;" d="M2.7-0.15C3-0.45,2.767-0.8,2-1.2
			C1.267-1.567,0.667-1.683,0.2-1.55C-0.3-1.417-0.1-1.067,0.8-0.5C1.7,0.1,2.333,0.217,2.7-0.15z"/>
	</g>
</symbol>
<symbol  id="flash0.ai_x5F_7_x2F_Layer_22_copy_x2F__x3C_Path_x3E__x5F_16" viewBox="-0.019 -1.51 2.311 1.546">
	<g id="Layer_1_4_">
		<path style="fill-rule:evenodd;clip-rule:evenodd;fill:#735B2C;" d="M2.2-0.7C1.933-1.3,1.45-1.567,0.75-1.5
			c-0.667,0.067-0.9,0.317-0.7,0.75c0.2,0.433,0.6,0.683,1.2,0.75C2.15,0.133,2.467-0.1,2.2-0.7z"/>
	</g>
</symbol>
<symbol  id="flash0.ai_x5F_7_x2F_Layer_22_copy_x2F__x3C_Path_x3E__x5F_17" viewBox="0.034 -1.861 1.766 1.894">
	<g id="Layer_1_3_">
		<path style="fill-rule:evenodd;clip-rule:evenodd;fill:#735B2C;" d="M1.7-0.8C1.5-1.467,1.117-1.817,0.55-1.85
			c-0.566-0.066-0.667,0.184-0.3,0.75C0.583-0.533,0.967-0.167,1.4,0C1.8,0.133,1.9-0.133,1.7-0.8z"/>
	</g>
</symbol>
<symbol  id="flash0.ai_x5F_7_x2F_Layer_22_copy_x2F__x3C_Path_x3E__x5F_18" viewBox="0.005 -2.944 2.147 2.952">
	<g id="Layer_1_2_">
		<path style="fill-rule:evenodd;clip-rule:evenodd;fill:#735B2C;" d="M2.15-1c0-0.833-0.4-1.433-1.2-1.8
			c-0.767-0.367-1.067-0.034-0.9,1c0.133,1.033,0.467,1.617,1,1.75C1.817,0.15,2.183-0.167,2.15-1z"/>
	</g>
</symbol>
<symbol  id="flash0.ai_x5F_7_x2F_Layer_22_copy_x2F__x3C_Path_x3E__x5F_2" viewBox="0.028 -1.206 9.472 1.206">
	<g id="Layer_1_11_">
		<path style="fill-rule:evenodd;clip-rule:evenodd;fill:#FFFFFF;" d="M0.45-0.05c0.633-0.2,1.667-0.4,3.1-0.6
			c1.8-0.267,3.784-0.4,5.95-0.4c-0.067-0.167-1.15-0.2-3.25-0.1C3.583-1.05,1.6-0.767,0.3-0.3C0.067-0.2-0.017-0.117,0.05-0.05
			C0.117,0.017,0.25,0.017,0.45-0.05z"/>
	</g>
</symbol>
<symbol  id="flash0.ai_x5F_7_x2F_Layer_22_copy_x2F__x3C_Path_x3E__x5F_8" viewBox="0 -3.112 16.5 3.112">
	<g id="Layer_1_10_">
		<path style="fill-rule:evenodd;clip-rule:evenodd;fill:#80652F;" d="M15.55,0l0.95-1.45c-1.6-1.2-4.183-1.75-7.75-1.65
			C4.683-3,1.767-2.25,0-0.85L0.55,0l7.5-0.4L15.55,0z"/>
	</g>
</symbol>
<symbol  id="flash0.ai_x5F_7_x2F_Layer_22_copy_x2F__x3C_Path_x3E__x5F_9" viewBox="0 -31.5 5.25 31.5">
	<g id="Layer_1_9_">
		<linearGradient id="SVGID_2_" gradientUnits="userSpaceOnUse" x1="4.2163" y1="-27.4844" x2="2.4663" y2="-2.3844">
			<stop  offset="0" style="stop-color:#FFFFFF"/>
			<stop  offset="1" style="stop-color:#000000"/>
		</linearGradient>
		<path style="fill-rule:evenodd;clip-rule:evenodd;fill:url(#SVGID_2_);" d="M1.95-0.55C2.117-1.15,2.567-2.033,3.3-3.2
			C3.5-3.5,3.883-4,4.45-4.7c0.5-0.7,0.767-1.3,0.8-1.8l-0.3-21l-0.4-0.85c-0.367-0.667-0.733-1.233-1.1-1.7
			C2.85-30.783,2.367-31.267,2-31.5c0.367,1.267,0.567,3.333,0.6,6.2c0.133,10.5,0.083,16.5-0.15,18
			c-0.067,0.5-0.333,1.283-0.8,2.35C1.117-3.65,0.767-2.733,0.6-2.2C0.2-1,0-0.267,0,0L1.95-0.55z"/>
	</g>
</symbol>
<g>
	
		<linearGradient id="SVGID_3_" gradientUnits="userSpaceOnUse" x1="0" y1="22.9814" x2="24.175" y2="22.9814" gradientTransform="matrix(0.8 0 0 0.8 11.7501 9.15)">
		<stop  offset="0" style="stop-color:#FAE894"/>
		<stop  offset="1" style="stop-color:#705829"/>
	</linearGradient>
	<path style="fill-rule:evenodd;clip-rule:evenodd;fill:url(#SVGID_3_);" d="M29.59,16.91c0.56,0.586,0.934,1.146,1.12,1.68
		c0.267,0.667,0.399,1.546,0.399,2.64c0,1.066-0.094,3.627-0.28,7.681c-0.187,3.866-0.319,6.159-0.399,6.879
		c-0.08,0.854-0.453,1.681-1.12,2.48c-0.88,1.093-2.173,1.88-3.88,2.359c-1.36,0.374-2.693,0.534-4,0.48
		c-1.306,0.054-2.653-0.106-4.04-0.48c-1.707-0.479-3-1.267-3.879-2.359c-0.667-0.8-1.027-1.627-1.08-2.48
		c-0.08-0.72-0.213-3.013-0.4-6.879c-0.187-4.054-0.28-6.614-0.28-7.681c0-1.093,0.133-1.973,0.4-2.64
		c0.187-0.507,0.546-1.066,1.08-1.68c0.96-1.014,1.693-2,2.2-2.96l6,0.32l6-0.32C27.989,14.963,28.71,15.95,29.59,16.91z"/>
	
		<linearGradient id="SVGID_4_" gradientUnits="userSpaceOnUse" x1="0.6499" y1="22.8057" x2="23.3496" y2="22.8057" gradientTransform="matrix(0.8 0 0 0.8 11.7501 9.15)">
		<stop  offset="0" style="stop-color:#E3CF70"/>
		<stop  offset="1" style="stop-color:#876A31"/>
	</linearGradient>
	<path style="fill-rule:evenodd;clip-rule:evenodd;fill:url(#SVGID_4_);" d="M29.029,17.07c0.507,0.586,0.867,1.133,1.081,1.64
		c0.213,0.64,0.319,1.493,0.319,2.56c0,0.986-0.093,3.48-0.28,7.48c-0.16,3.547-0.266,5.773-0.32,6.679
		c-0.079,0.854-0.426,1.654-1.039,2.4c-0.827,1.067-2.04,1.827-3.641,2.28c-1.333,0.374-2.6,0.533-3.8,0.479
		c-1.226,0.054-2.48-0.105-3.76-0.479c-1.6-0.453-2.813-1.213-3.64-2.28c-0.64-0.772-0.987-1.572-1.04-2.4
		c-0.054-0.666-0.173-2.893-0.36-6.679c-0.187-3.92-0.28-6.414-0.28-7.48s0.12-1.92,0.36-2.56c0.187-0.507,0.533-1.054,1.04-1.64
		c0.96-1.04,1.64-2,2.04-2.88l5.64,0.32l5.64-0.32C27.523,15.176,28.203,16.137,29.029,17.07z"/>
	<path style="fill-rule:evenodd;clip-rule:evenodd;fill:#D4C169;" d="M21.43,21.949c0.32,0.24,0.267,0.507-0.16,0.801
		c-0.4,0.293-0.746,0.293-1.04,0c-0.427-0.427-0.56-1.667-0.4-3.72c0.08-0.827,0.453-1.16,1.12-1c0.107,0.053,0.147,0.107,0.12,0.16
		c-0.08,0.16-0.12,0.374-0.12,0.64s-0.04,0.787-0.12,1.56C20.856,21.11,21.057,21.63,21.43,21.949z"/>
	<path style="fill-rule:evenodd;clip-rule:evenodd;fill:#E0CC6F;" d="M17.23,20.23c-0.08,0.373-0.36,0.959-0.84,1.759
		c-0.453,0.747-0.707,1.294-0.76,1.641c-0.053,0.533-0.24,0.974-0.56,1.319c-0.346,0.374-0.586,0.334-0.72-0.119
		c-0.16-0.427-0.067-1.16,0.28-2.2c0.293-0.96,0.626-1.693,1-2.2c0.374-0.454,0.76-0.72,1.16-0.8
		C17.19,19.55,17.336,19.75,17.23,20.23z"/>
	<path style="fill-rule:evenodd;clip-rule:evenodd;fill:#E0CC6F;" d="M17.83,37.949c0.827,0.24,1.2,0.521,1.12,0.84
		c-0.106,0.294-0.573,0.468-1.4,0.521c-0.72,0.026-1.32-0.347-1.8-1.12c-0.454-0.747-0.56-1.333-0.32-1.761
		c0.133-0.239,0.426-0.119,0.88,0.36C16.896,37.456,17.403,37.843,17.83,37.949z"/>
	<path style="fill-rule:evenodd;clip-rule:evenodd;fill:#C2B05F;" d="M24.149,23.149c0.454-0.054,0.84,0.227,1.16,0.84
		c0.32,0.641,0.334,0.921,0.04,0.841c-0.373-0.054-1.213-0.014-2.52,0.119c-0.561,0.054-0.653-0.213-0.28-0.8
		C22.896,23.563,23.43,23.229,24.149,23.149z"/>
	<path style="fill-rule:evenodd;clip-rule:evenodd;fill:#C2B05F;" d="M26.149,20.43c0.427,0.16,0.494,0.374,0.2,0.64
		c-0.319,0.268-0.693,0.254-1.12-0.039c-0.399-0.267-0.439-0.467-0.119-0.601C25.403,20.296,25.75,20.296,26.149,20.43z"/>
	<path style="fill-rule:evenodd;clip-rule:evenodd;fill:#C2B05F;" d="M26.149,36.949c1.04,0.187,1.027,0.44-0.039,0.761
		c-1.094,0.347-1.747,0.359-1.961,0.039c-0.187-0.293-0.066-0.533,0.36-0.72C24.937,36.87,25.483,36.843,26.149,36.949z"/>
	<path style="fill-rule:evenodd;clip-rule:evenodd;fill:#A3914D;" d="M28.43,28.75c1.094,0,1.24,0.56,0.44,1.68
		c-0.801,1.12-1.48,1.359-2.04,0.72c-0.48-0.587-0.467-1.146,0.04-1.68C27.323,28.989,27.843,28.75,28.43,28.75z"/>
	
		<use xlink:href="#flash0.ai_x5F_7_x2F_Layer_22_copy_x2F__x3C_Path_x3E__x5F_18"  width="2.147" height="2.952" x="0.005" y="-2.944" transform="matrix(0.8 0 0 -0.8 22.2002 20.5498)" style="overflow:visible;opacity:0.3281;enable-background:new    ;"/>
	
		<use xlink:href="#flash0.ai_x5F_7_x2F_Layer_22_copy_x2F__x3C_Path_x3E__x5F_17"  width="1.766" height="1.894" x="0.034" y="-1.861" transform="matrix(0.8 0 0 -0.8 16.5498 20.9502)" style="overflow:visible;opacity:0.3281;enable-background:new    ;"/>
	
		<use xlink:href="#flash0.ai_x5F_7_x2F_Layer_22_copy_x2F__x3C_Path_x3E__x5F_16"  width="2.311" height="1.546" x="-0.019" y="-1.51" transform="matrix(0.8 0 0 -0.8 18.75 38.5498)" style="overflow:visible;opacity:0.3281;enable-background:new    ;"/>
	
		<use xlink:href="#flash0.ai_x5F_7_x2F_Layer_22_copy_x2F__x3C_Path_x3E__x5F_15"  width="2.894" height="1.662" x="-0.068" y="-1.603" transform="matrix(0.8 0 0 -0.8 25.7998 37.1504)" style="overflow:visible;opacity:0.3281;enable-background:new    ;"/>
	
		<use xlink:href="#flash0.ai_x5F_7_x2F_Layer_22_copy_x2F__x3C_Path_x3E__x5F_14"  width="2.518" height="1.741" x="-0.002" y="-1.716" transform="matrix(0.8 0 0 -0.8 27.0498 30.9004)" style="overflow:visible;opacity:0.3281;enable-background:new    ;"/>
	
		<use xlink:href="#flash0.ai_x5F_7_x2F_Layer_22_copy_x2F__x3C_Path_x3E__x5F_13"  width="1.764" height="2.455" x="-0.029" y="-2.455" transform="matrix(0.8 0 0 -0.8 27.5498 23.0498)" style="overflow:visible;opacity:0.3281;enable-background:new    ;"/>
	
		<linearGradient id="SVGID_5_" gradientUnits="userSpaceOnUse" x1="1.3999" y1="26.1553" x2="16.9249" y2="26.1553" gradientTransform="matrix(0.8 0 0 0.8 11.7501 9.15)">
		<stop  offset="0" style="stop-color:#6FC22F"/>
		<stop  offset="0.1882" style="stop-color:#69B92C"/>
		<stop  offset="0.498" style="stop-color:#59A025"/>
		<stop  offset="0.8863" style="stop-color:#3F7819"/>
		<stop  offset="1" style="stop-color:#366B15"/>
	</linearGradient>
	<path style="fill-rule:evenodd;clip-rule:evenodd;fill:url(#SVGID_5_);" d="M22.149,26.109c1.28-0.053,2.32-0.133,3.12-0.24
		l-0.28,11.001c-0.399,0.133-0.986,0.253-1.76,0.359c-1.52,0.213-3.16,0.227-4.919,0.04c-1.573-0.16-2.854-0.547-3.84-1.16
		l-1.04-0.88c-0.054-0.373-0.107-1.146-0.16-2.319l-0.4-7.521c0.24,0.134,0.8,0.267,1.68,0.399c0.293-0.906,0.773-1.64,1.44-2.199
		c0.667-0.561,1.414-0.84,2.24-0.84c0.88-0.027,1.68,0.279,2.4,0.92C21.35,24.283,21.856,25.096,22.149,26.109z"/>
	
		<linearGradient id="SVGID_6_" gradientUnits="userSpaceOnUse" x1="3.4624" y1="27.3496" x2="12.8374" y2="27.3496" gradientTransform="matrix(0.8 0 0 0.8 11.7501 9.15)">
		<stop  offset="0" style="stop-color:#FFF7AD"/>
		<stop  offset="0.1529" style="stop-color:#F9F0A4"/>
		<stop  offset="0.4" style="stop-color:#E7DE8B"/>
		<stop  offset="0.7176" style="stop-color:#CBC063"/>
		<stop  offset="1" style="stop-color:#ADA139"/>
	</linearGradient>
	<path style="fill-rule:evenodd;clip-rule:evenodd;fill:url(#SVGID_6_);" d="M15.11,28.07c-0.213,0.187-0.4,0.372-0.56,0.559
		l0.48-0.879c0.213-0.374,0.507-0.547,0.88-0.521c0.213,0.027,0.386,0.094,0.52,0.2l-0.2-0.28c-0.08-0.134-0.267-0.267-0.56-0.399
		l-0.44-0.2l0.36-0.08c0.32-0.027,0.6,0,0.84,0.08c0.4,0.134,0.707,0.427,0.92,0.88v-0.28c0-0.134,0.24-0.373,0.72-0.72l0.68-0.48
		l-0.6,1.08c-0.587,1.094,0.213,2.228,2.4,3.4c1.146,0.641,1.64,1.627,1.48,2.96c-0.16,1.439-1.187,2.32-3.081,2.64
		c-1.84,0.32-3-0.319-3.48-1.92c-0.426-1.439-0.266-2.56,0.48-3.359c0.454-0.508,0.627-1.147,0.52-1.921l-0.32-1
		C15.91,27.67,15.563,27.75,15.11,28.07z"/>
	
		<use xlink:href="#flash0.ai_x5F_7_x2F_Layer_22_copy_x2F__x3C_Path_x3E__x5F_10"  width="5.3" height="31.5" y="-31.5" transform="matrix(0.8 0 0 -0.8 13.5498 14.2002)" style="overflow:visible;opacity:0.5781;enable-background:new    ;"/>
	
		<use xlink:href="#flash0.ai_x5F_7_x2F_Layer_22_copy_x2F__x3C_Path_x3E__x5F_9"  width="5.25" height="31.5" y="-31.5" transform="matrix(0.8 0 0 -0.8 25.2998 14.2002)" style="overflow:visible;opacity:0.2109;enable-background:new    ;"/>
	
		<use xlink:href="#flash0.ai_x5F_7_x2F_Layer_22_copy_x2F__x3C_Path_x3E__x5F_8"  width="16.5" height="3.112" y="-3.112" transform="matrix(0.8 0 0 -0.8 15 13.9502)" style="overflow:visible;opacity:0.6719;enable-background:new    ;"/>
	
		<linearGradient id="SVGID_7_" gradientUnits="userSpaceOnUse" x1="3.2993" y1="6" x2="20.7743" y2="6" gradientTransform="matrix(0.8 0 0 0.8 11.7501 9.15)">
		<stop  offset="0" style="stop-color:#E3CF70"/>
		<stop  offset="1" style="stop-color:#705829"/>
	</linearGradient>
	<path style="fill-rule:evenodd;clip-rule:evenodd;fill:url(#SVGID_7_);" d="M28.39,13.95c0,0.454-0.68,0.84-2.04,1.16
		c-1.36,0.32-3.013,0.48-4.96,0.48c-1.92,0-3.56-0.16-4.92-0.48c-1.387-0.32-2.08-0.707-2.08-1.16s0.693-0.84,2.08-1.16
		c1.36-0.32,3-0.479,4.92-0.479s3.573,0.16,4.96,0.479C27.71,13.11,28.39,13.496,28.39,13.95z"/>
	
		<linearGradient id="SVGID_8_" gradientUnits="userSpaceOnUse" x1="3.0498" y1="5.5244" x2="21.25" y2="5.5244" gradientTransform="matrix(0.8 0 0 0.8 11.7501 9.15)">
		<stop  offset="0" style="stop-color:#E3CF70"/>
		<stop  offset="1" style="stop-color:#634E24"/>
	</linearGradient>
	<path style="fill-rule:evenodd;clip-rule:evenodd;fill:url(#SVGID_8_);" d="M28.75,13.59c0,0.453-0.707,0.827-2.12,1.12
		c-1.44,0.32-3.16,0.479-5.16,0.479c-2.026,0-3.747-0.16-5.16-0.479c-1.414-0.293-2.12-0.667-2.12-1.12s0.707-0.84,2.12-1.16
		c1.413-0.32,3.133-0.48,5.16-0.48c2,0,3.72,0.16,5.16,0.48C28.043,12.75,28.75,13.137,28.75,13.59z"/>
	<path style="fill-rule:evenodd;clip-rule:evenodd;fill:#0304D6;" d="M28.51,10.59v2.72c-0.026,0.32-0.733,0.586-2.12,0.8
		c-1.359,0.213-3.014,0.32-4.96,0.32c-1.947,0-3.6-0.106-4.96-0.32c-1.36-0.213-2.066-0.48-2.12-0.8v-2.72H28.51z"/>
	
		<linearGradient id="SVGID_9_" gradientUnits="userSpaceOnUse" x1="3.25" y1="4.2998" x2="20.925" y2="4.2998" gradientTransform="matrix(0.8 0 0 0.8 11.7501 9.15)">
		<stop  offset="0" style="stop-color:#6FC22F"/>
		<stop  offset="0.0627" style="stop-color:#76C638"/>
		<stop  offset="0.1647" style="stop-color:#88D151"/>
		<stop  offset="0.2314" style="stop-color:#97D964"/>
		<stop  offset="1" style="stop-color:#2F5E12"/>
	</linearGradient>
	<path style="fill-rule:evenodd;clip-rule:evenodd;fill:url(#SVGID_9_);" d="M28.51,10.47v2.84c-0.054,0.346-0.76,0.667-2.12,0.959
		c-1.439,0.293-3.094,0.44-4.96,0.44c-1.867,0-3.52-0.147-4.96-0.44c-1.36-0.293-2.066-0.613-2.12-0.959v-2.84H28.51z"/>
	
		<linearGradient id="SVGID_10_" gradientUnits="userSpaceOnUse" x1="-19.3994" y1="-2.582" x2="-3.3813" y2="-2.582" gradientTransform="matrix(-0.7978 0.0587 -0.0587 -0.7978 11.7506 9.1494)">
		<stop  offset="0" style="stop-color:#6FC22F"/>
		<stop  offset="0.6902" style="stop-color:#71C838"/>
		<stop  offset="1" style="stop-color:#73CC3E"/>
	</linearGradient>
	<path style="fill-rule:evenodd;clip-rule:evenodd;fill:url(#SVGID_10_);" d="M28.47,10.51c0,0.373-0.693,0.693-2.08,0.959
		c-1.359,0.267-3.014,0.4-4.96,0.4c-1.973,0-3.64-0.133-5-0.4c-1.387-0.266-2.08-0.586-2.08-0.959c0-0.374,0.693-0.693,2.08-0.96
		c1.359-0.267,3.026-0.4,5-0.4c1.946,0,3.601,0.133,4.96,0.4C27.776,9.817,28.47,10.137,28.47,10.51z"/>
	
		<use xlink:href="#flash0.ai_x5F_7_x2F_Layer_22_copy_x2F__x3C_Path_x3E__x5F_2"  width="9.472" height="1.206" x="0.028" y="-1.206" transform="matrix(0.8 0 0 -0.8 15.2002 14.6001)" style="overflow:visible;opacity:0.4805;enable-background:new    ;"/>
	<path style="fill-rule:evenodd;clip-rule:evenodd;fill:#F9E2C9;" d="M15.39,38.229c0.56,0.293,0.894,0.6,1,0.92
		c0.107,0.293,0.041,0.439-0.2,0.439c-0.347,0-0.854-0.306-1.52-0.919c-0.293-0.294-0.32-0.48-0.08-0.561
		C14.83,38.003,15.096,38.042,15.39,38.229z"/>
	<path style="fill-rule:evenodd;clip-rule:evenodd;fill:#F9E2C9;" d="M17.55,39.31c0.374,0.08,0.467,0.227,0.28,0.439
		c-0.187,0.214-0.347,0.254-0.48,0.121c-0.133-0.107-0.2-0.241-0.2-0.4C17.124,39.31,17.256,39.257,17.55,39.31z"/>
</g>
</svg>
