<?xml version="1.0" encoding="iso-8859-1"?>
<!-- Generator: Adobe Illustrator 15.1.0, SVG Export Plug-In . SVG Version: 6.00 Build 0)  -->
<!DOCTYPE svg PUBLIC "-//W3C//DTD SVG 1.1//EN" "http://www.w3.org/Graphics/SVG/1.1/DTD/svg11.dtd">
<svg version="1.1" id="flash0.ai" xmlns="http://www.w3.org/2000/svg" xmlns:xlink="http://www.w3.org/1999/xlink" x="0px" y="0px"
	 width="43.35px" height="40.9px" viewBox="0 0 43.35 40.9" style="enable-background:new 0 0 43.35 40.9;" xml:space="preserve">
<g>
	<rect style="fill-rule:evenodd;clip-rule:evenodd;fill:#FFFFFF;fill-opacity:0;" width="40" height="40"/>
</g>
<g>
	<path style="fill-rule:evenodd;clip-rule:evenodd;fill:#D66915;" d="M28.473,5.337c4.027,1.964,6.631,4.395,7.809,7.292
		c1.964,4.666,2.137,9.429,0.516,14.292c-2.062,6.286-6.974,9.601-14.733,9.944c-7.17,0.344-12.474-1.276-15.912-4.861
		C3.5,29.253,2.149,25.718,2.1,21.396c-0.049-4.468,1.105-8.25,3.462-11.345c2.259-3.044,5.402-5.132,9.429-6.261
		C19.46,2.562,23.955,3.077,28.473,5.337z"/>
	<path style="fill-rule:evenodd;clip-rule:evenodd;fill:#EB7805;" d="M32.893,11.304c0.245,0.098,0.442,0.393,0.589,0.884
		c0.197,0.393,0.368,0.737,0.517,1.031c0.049,0.196,0.049,0.516,0,0.958c-0.148,1.129-0.197,1.842-0.148,2.136
		c0.05,0.147,0.173,0.369,0.369,0.664c0.147,0.294,0.271,0.712,0.368,1.252c0.197,0.982,0.246,1.816,0.148,2.504
		c-0.1,0.639-0.148,1.548-0.148,2.726c0,0.147,0.049,0.492,0.148,1.032c0.098,0.393,0.098,0.761,0,1.104
		c-0.1,0.394-0.517,0.884-1.254,1.474c-0.981,0.736-1.497,1.13-1.547,1.179c-0.835,1.031-1.252,1.842-1.252,2.431
		c0,0.246-0.491,0.761-1.474,1.547c-0.933,0.737-1.67,1.203-2.21,1.399l-3.241,1.326c-0.54,0.246-1.007,0.271-1.399,0.073
		c-0.638-0.293-1.13-0.441-1.473-0.441c-1.13,0-2.333-0.172-3.61-0.516c-0.245-0.099-0.564-0.05-0.958,0.147
		c-0.441,0.147-0.958,0.172-1.546,0.073c-0.344-0.049-1.302-0.073-2.874-0.073c-0.344,0-0.761-0.172-1.252-0.516
		c-0.491-0.295-0.834-0.59-1.031-0.884c-0.049-0.295-0.099-0.516-0.147-0.663c-0.147-0.246-0.589-0.614-1.326-1.105
		c-0.835-0.49-1.326-0.81-1.474-0.957c-0.099-0.05-0.344-0.295-0.737-0.737c-0.589-0.54-1.007-0.981-1.252-1.325
		c-0.393-0.541-0.589-1.253-0.589-2.137c0-0.786-0.049-1.425-0.147-1.915c-0.099-0.442-0.172-0.86-0.221-1.253
		c0-0.245-0.147-0.957-0.442-2.137c-0.294-1.031-0.393-1.718-0.294-2.063c0.196-0.638,0.368-1.449,0.516-2.431
		c0.246-1.866,0.541-2.996,0.883-3.388c0.05-0.05,0.222-0.394,0.516-1.032c0.246-0.589,0.54-0.958,0.884-1.105
		c0.295-0.147,0.541-0.319,0.737-0.516c0.393-0.344,0.786-0.662,1.178-0.957c0.197-0.148,0.639-0.712,1.327-1.694
		c0.442-0.688,1.105-1.056,1.989-1.105c1.669-0.147,3.389-0.565,5.156-1.252c2.014-0.786,4.077-0.86,6.188-0.221h0.368
		c0.786,0.098,1.621,0.393,2.505,0.884c1.031,0.589,1.67,0.909,1.915,0.958c0.441,0.147,0.934,0.27,1.474,0.368
		c0.393,0.148,0.638,0.442,0.736,0.884c0.099,0.393,0.196,0.614,0.295,0.663c0.491,0.196,0.835,0.368,1.031,0.516
		c0.491,0.295,0.785,0.589,0.884,0.884c0.147,0.442,0.295,0.737,0.442,0.884C32.156,10.959,32.451,11.107,32.893,11.304z"/>
	<path style="fill-rule:evenodd;clip-rule:evenodd;fill:#F98B0E;" d="M19.78,6.588c1.129,0.295,1.94,0.565,2.431,0.811l1.842,1.399
		c0.884,0.688,1.522,1.081,1.916,1.179c0.294,0.049,0.81,0.516,1.546,1.399c0.737,0.786,1.229,1.449,1.474,1.989
		c0.344,0.688,0.613,1.719,0.811,3.094c0.245,0.884,0.344,1.965,0.295,3.242c-0.05,1.129-0.172,1.841-0.369,2.136
		c-0.147,0.147-0.344,0.712-0.589,1.694c-0.196,0.884-0.295,1.522-0.295,1.915c0,0.442-0.662,1.031-1.989,1.768
		c-0.49,0.295-1.104,0.762-1.842,1.4c-0.834,0.785-1.448,1.326-1.842,1.621c-0.54,0.393-0.933,0.564-1.178,0.516
		c-0.885-0.099-1.474-0.147-1.769-0.147c-0.834,0.049-1.301,0.147-1.399,0.294c-0.196,0.442-0.319,0.663-0.368,0.663
		c-0.246,0.245-0.663,0.319-1.252,0.221c-0.737-0.147-1.375-0.245-1.915-0.294c-0.59-0.099-1.375-0.074-2.357,0.073
		c-0.589,0-1.326-0.123-2.21-0.368c-0.393-0.099-0.712-0.319-0.958-0.663c-0.344-0.441-0.565-0.712-0.663-0.811
		c-1.081-0.344-1.793-0.785-2.137-1.325c-0.442-0.394-0.859-0.86-1.252-1.4C5.464,26.7,5.194,25.89,4.899,24.563
		c-0.246-1.375-0.417-2.21-0.516-2.505c-0.098-0.343-0.146-0.712-0.146-1.105c0.049-0.393,0.073-0.687,0.073-0.883
		c-0.344-1.179-0.467-2.014-0.368-2.505c0.049-0.54,0.441-1.572,1.178-3.094c0.295-0.541,0.394-1.129,0.295-1.768
		c-0.049-0.442,0.049-0.811,0.295-1.105c0.393-0.246,0.687-0.492,0.883-0.737c0.394-0.344,1.081-1.081,2.063-2.21
		c0.442-0.491,0.81-0.712,1.105-0.664c0.196,0.049,0.417,0.099,0.663,0.147c0.295-0.049,1.326-0.564,3.094-1.547
		c0.491-0.196,0.982-0.294,1.473-0.294c0.737,0.049,1.301,0.049,1.694,0C17.422,6.196,18.454,6.294,19.78,6.588z"/>
	<path style="fill-rule:evenodd;clip-rule:evenodd;fill:#BA5106;" d="M19.043,5.705l-1.105,0.073c-0.737,0-2.161,0.492-4.272,1.474
		c-0.295,0.147-0.688,0.417-1.179,0.81c-0.343,0.295-0.761,0.491-1.252,0.59c-0.835,0.245-1.768,0.786-2.8,1.62
		c0.05-0.196,0.295-0.515,0.737-0.958c0.491-0.442,1.13-0.786,1.916-1.031L10.13,8.136C9.835,8.087,9.565,8.111,9.319,8.209
		L8.951,8.357l0.736-0.442c0.639-0.246,1.228-0.271,1.769-0.074c0.54,0.147,0.761,0.123,0.663-0.073
		c-0.098-0.344-0.098-0.564,0-0.663c0.147-0.147,0.196-0.294,0.147-0.442c-0.098-0.295-0.147-0.54-0.147-0.737
		c0.049-0.54,0.246-1.08,0.59-1.621L12.561,4.6c-0.147,0.638-0.074,1.228,0.221,1.768c0.196,0.442,0.245,0.442,0.147,0
		c-0.049-0.196,0.196-0.688,0.737-1.473c0.54-0.834,1.081-1.277,1.621-1.326c-0.982,1.129-1.473,1.915-1.473,2.357L14.255,6
		c0.442,0,1.032-0.074,1.769-0.221C17.202,5.533,18.208,5.509,19.043,5.705z"/>
	<path style="fill-rule:evenodd;clip-rule:evenodd;fill:#BA5106;" d="M13.96,5.41c0.394-0.442,0.86-0.688,1.4-0.737
		c0.147,0.295,0.123,0.589-0.073,0.884c-0.196,0.344-0.614,0.663-1.252,0.958l1.915-0.147c0.54,0.049,1.081,0.024,1.621-0.073
		c-1.277,0.834-2.21,1.252-2.799,1.252c-0.344,0.049-0.737-0.025-1.179-0.222l-0.515-0.294c-0.147,1.13-0.565,1.793-1.252,1.989
		c-0.442,0.147-0.86,0.196-1.252,0.147L10.13,9.094c0.294-0.393,0.81-0.786,1.547-1.179l1.105-0.736L10.499,6.81l0.441-0.222
		c0.393-0.098,0.761-0.098,1.105,0l0.737,0.074L13.96,5.41z"/>
	<path style="fill-rule:evenodd;clip-rule:evenodd;fill:#7DB51C;" d="M13.445,4.968c0.197-0.295,0.541-0.639,1.031-1.031
		c0.54,0.393,0.712,0.712,0.516,0.958l-1.252,1.252l1.989-0.369c0.688-0.049,1.228,0,1.621,0.147
		c-0.295,0.344-0.933,0.688-1.916,1.031c-0.589,0.196-1.154,0.271-1.694,0.222l-0.663-0.148c-0.147,0.541-0.467,0.982-0.958,1.326
		c-0.491,0.344-1.302,0.467-2.431,0.368C9.54,8.676,9.565,8.504,9.762,8.209c0.442-0.638,1.178-1.105,2.21-1.399
		c-0.442,0.049-0.835,0-1.179-0.147l-0.736-0.589l0.811-0.147c0.638-0.098,1.227,0,1.768,0.294L13.445,4.968z"/>
	<path style="fill-rule:evenodd;clip-rule:evenodd;fill:#6A9918;" d="M15.729,6.147c-0.737,0.147-1.4,0.344-1.989,0.589
		l-0.663,0.295c-0.147,0.541-0.467,0.982-0.958,1.326c-0.491,0.344-1.302,0.467-2.431,0.368L9.614,8.652l0.737-0.295
		c0.638-0.246,1.424-0.688,2.357-1.326l1.105-0.884l1.915-0.369c0.688-0.049,1.228,0,1.621,0.147L15.729,6.147z"/>
	
		<radialGradient id="SVGID_1_" cx="5.8765" cy="-4.5278" r="0.9678" gradientTransform="matrix(0.8564 1.1989 1.1989 -0.8564 12.9569 -4.5543)" gradientUnits="userSpaceOnUse">
		<stop  offset="0" style="stop-color:#7DB51C"/>
		<stop  offset="1" style="stop-color:#466610"/>
	</radialGradient>
	<path style="fill-rule:evenodd;clip-rule:evenodd;fill:url(#SVGID_1_);" d="M12.929,6.368l0.81-0.221
		c0.393-0.049,0.54,0.049,0.442,0.295c-0.147,0.294-0.418,0.54-0.811,0.737c-0.688,0.294-1.154,0.245-1.399-0.148
		c-0.099-0.147-0.05-0.271,0.147-0.368C12.217,6.614,12.487,6.515,12.929,6.368z"/>
	
		<radialGradient id="SVGID_2_" cx="5.6963" cy="-4.5337" r="0.9678" gradientTransform="matrix(0.8564 1.1989 1.1989 -0.8564 12.971 -4.5643)" gradientUnits="userSpaceOnUse">
		<stop  offset="0" style="stop-color:#7DB51C"/>
		<stop  offset="1" style="stop-color:#6A9918"/>
	</radialGradient>
	<path style="fill-rule:evenodd;clip-rule:evenodd;fill:url(#SVGID_2_);" d="M12.782,5.926c0.295-0.098,0.614-0.098,0.958,0
		c0.344,0.147,0.417,0.344,0.221,0.589c-0.294,0.295-0.638,0.491-1.031,0.589c-0.442,0.147-0.761,0.123-0.958-0.074
		c-0.196-0.196-0.246-0.368-0.147-0.516C11.922,6.368,12.241,6.171,12.782,5.926z"/>
	<path style="fill-rule:evenodd;clip-rule:evenodd;fill:#D7E34F;" d="M13.15,6c0.295,0.049,0.074,0.196-0.663,0.442
		c-0.147-0.05-0.098-0.147,0.147-0.295C12.831,6.048,13.002,6,13.15,6z"/>
	<path style="fill-rule:evenodd;clip-rule:evenodd;fill:#F5A510;" d="M20.443,10.419c0.785,0.491,1.891,1.817,3.314,3.978
		c0.197,0.197,0.369,0.688,0.516,1.474c0.147,1.081,0.295,1.841,0.442,2.283c0.344,1.129-0.147,2.627-1.474,4.494
		c-0.196,0.54-0.761,1.154-1.694,1.842c-0.196,0.146-0.786,0.589-1.768,1.326c-0.295,0.245-0.688,0.344-1.179,0.294
		c-0.639-0.098-1.179-0.172-1.621-0.221c-0.393,0-0.786,0.196-1.179,0.589c-0.393,0.491-0.786,0.736-1.178,0.736
		c-0.835,0.099-1.67,0.147-2.505,0.147c-1.326,0-2.235-0.122-2.725-0.368c-0.492-0.245-0.762-0.393-0.811-0.441
		c-0.147-0.147-0.344-0.516-0.589-1.105c-0.147-0.344-0.688-1.104-1.621-2.284c-0.834-1.03-1.227-1.669-1.178-1.915
		c0.049-0.245,0.049-0.516,0-0.81l-0.221-0.737c-0.098-0.54-0.049-1.032,0.147-1.473l0.663-1.252
		c0.147-0.196,0.221-0.467,0.221-0.811v-0.958c0.049-0.393,0.442-1.056,1.179-1.989c0.834-0.884,1.277-1.399,1.326-1.547
		c0.147-0.196,0.393-0.319,0.737-0.368c0.441,0,0.81-0.074,1.105-0.221c0.294-0.099,0.589-0.417,0.884-0.958
		c0.294-0.442,0.958-0.688,1.989-0.736c0.491-0.197,0.958-0.295,1.4-0.295c0.884-0.049,1.375-0.074,1.473-0.074
		C17.226,8.873,18.675,9.339,20.443,10.419z"/>
	<path style="fill-rule:evenodd;clip-rule:evenodd;fill:#F7B61C;" d="M18.012,13.44c0.147,0.491,0.271,0.761,0.368,0.81
		c0.246,0.197,0.369,0.467,0.369,0.81c0.049,0.442,0.147,0.787,0.295,1.032c0.196,0.344,0.27,0.688,0.221,1.032
		c-0.049,0.245-0.098,0.589-0.147,1.031l0.074,1.105c0,0.442-0.099,0.786-0.295,1.032c-0.147,0.196-0.466,0.589-0.958,1.179
		c-0.442,0.54-0.982,0.884-1.621,1.031c-0.736,0.147-1.227,0.245-1.473,0.294c-0.294,0.099-0.589,0.295-0.884,0.59
		c-0.343,0.295-0.761,0.418-1.251,0.368c-0.737-0.098-1.4-0.196-1.989-0.295c-0.688-0.049-1.081-0.147-1.179-0.295
		c-0.049-0.146-0.172-0.27-0.368-0.368c-0.442-0.196-0.711-0.761-0.81-1.694c-0.049-0.294-0.147-0.516-0.295-0.662
		c-0.294-0.344-0.515-0.614-0.663-0.811c-0.246-0.441-0.319-0.761-0.221-0.958c0.098-0.196,0.146-0.368,0.146-0.516
		c0.147-0.933,0.295-1.547,0.442-1.842c0.147-0.196,0.319-0.319,0.516-0.368c0.098,0,0.172,0,0.221,0l0.442-1.768
		c0.147-0.491,0.295-0.737,0.442-0.737c0.196,0,0.318-0.025,0.368-0.074c0.393-0.638,0.933-0.982,1.62-1.031
		c1.572-0.099,2.554-0.123,2.947-0.074c0.59,0.049,0.688,0.098,0.295,0.147c0.589,0.049,1.375,0.196,2.357,0.441
		C17.521,12.9,17.865,13.096,18.012,13.44z"/>
	<path style="fill-rule:evenodd;clip-rule:evenodd;fill:#F3C563;" d="M9.394,18.081c-0.147-0.147-0.222-0.516-0.222-1.105
		c0.394-1.129,0.614-1.744,0.663-1.842c0.099-0.196,0.27-0.344,0.516-0.442c0.294-0.098,0.466-0.196,0.516-0.294
		c0.147-0.344,0.565-0.663,1.252-0.958c0.835-0.394,1.547-0.368,2.136,0.074c0.295,0.245,0.614,0.613,0.958,1.105
		c0.099,0.049,0.369,0.172,0.811,0.368c0.294,0.099,0.491,0.27,0.589,0.516c0.098,0.197,0.049,0.541-0.147,1.031
		c-0.196,0.639-0.295,1.056-0.295,1.252c0,0.442-0.098,0.859-0.294,1.252c-0.147,0.393-0.884,0.589-2.21,0.589
		c-0.442,0.049-0.786,0.197-1.032,0.443c-0.294,0.393-0.541,0.613-0.737,0.662c-0.344,0.099-0.638,0.049-0.884-0.147
		c-0.294-0.245-0.541-0.417-0.737-0.515c-0.491-0.197-0.638-0.664-0.442-1.4c0.049-0.196,0-0.344-0.147-0.441
		C9.54,18.179,9.442,18.13,9.394,18.081z"/>
	<path style="fill-rule:evenodd;clip-rule:evenodd;fill:#FFFFFF;" d="M13.371,15.871c0.639,0.098,0.884,0.294,0.736,0.589
		c-0.196,0.344-0.49,0.442-0.884,0.295c-0.343-0.098-0.466-0.271-0.369-0.516C12.905,15.944,13.077,15.822,13.371,15.871z"/>
	<path style="fill-rule:evenodd;clip-rule:evenodd;fill:#FFFFFF;" d="M13.96,17.565c0.246,0.099,0.295,0.246,0.147,0.442
		c-0.098,0.196-0.27,0.246-0.516,0.147c-0.245-0.049-0.442-0.172-0.589-0.368c-0.147-0.246-0.147-0.417,0-0.516
		C13.15,17.172,13.469,17.27,13.96,17.565z"/>
	<path style="fill-rule:evenodd;clip-rule:evenodd;fill:#FFFFFF;" d="M14.771,16.681c0.441-0.049,0.712,0.147,0.81,0.589
		c0.147,0.394,0.049,0.664-0.294,0.811c-0.246,0.147-0.491,0.073-0.737-0.221c-0.246-0.393-0.418-0.639-0.516-0.736
		C13.838,16.829,14.083,16.681,14.771,16.681z"/>
	<path style="fill-rule:evenodd;clip-rule:evenodd;fill:#FFFFFF;" d="M16.907,16.313c0.246,0.049,0.344,0.172,0.295,0.369
		c-0.099,0.196-0.245,0.368-0.442,0.516c-0.196,0.147-0.368,0.123-0.516-0.073c-0.196-0.147-0.295-0.344-0.295-0.59
		C15.949,16.239,16.269,16.165,16.907,16.313z"/>
	<path style="fill-rule:evenodd;clip-rule:evenodd;fill:#FFFFFF;" d="M15.876,14.619c0.344,0.099,0.54,0.295,0.589,0.589
		c0.099,0.295,0,0.467-0.295,0.516c-0.687,0.245-1.08,0.221-1.178-0.074c-0.099-0.246-0.049-0.491,0.147-0.736
		C15.287,14.667,15.532,14.569,15.876,14.619z"/>
	<path style="fill-rule:evenodd;clip-rule:evenodd;fill:#FFFFFF;" d="M14.182,15.65c-0.59-0.098-0.86-0.394-0.811-0.884
		c0-0.344,0.196-0.639,0.589-0.884c0.344-0.245,0.59-0.221,0.737,0.073c0.196,0.344,0.222,0.712,0.074,1.105
		C14.624,15.502,14.427,15.699,14.182,15.65z"/>
	<path style="fill-rule:evenodd;clip-rule:evenodd;fill:#FFFFFF;" d="M13.224,13.587c0.098,0.295,0.049,0.54-0.147,0.737
		c-0.196,0.147-0.418,0.196-0.663,0.147c-0.442-0.197-0.442-0.638,0-1.326c0.147-0.245,0.295-0.295,0.441-0.147
		C13.002,13.096,13.125,13.292,13.224,13.587z"/>
	<path style="fill-rule:evenodd;clip-rule:evenodd;fill:#FFFFFF;" d="M12.266,15.502c0.344,0.541,0.271,0.909-0.221,1.105
		c-0.441,0.147-0.736,0.049-0.884-0.295c-0.098-0.294,0.024-0.564,0.368-0.81C11.873,15.256,12.119,15.256,12.266,15.502z"/>
	<path style="fill-rule:evenodd;clip-rule:evenodd;fill:#FFFFFF;" d="M12.266,17.049c0.295,0.099,0.417,0.295,0.368,0.589
		c0,0.049-0.123,0.295-0.368,0.736c-0.049,0.197-0.197,0.222-0.442,0.074c-0.246-0.196-0.393-0.417-0.442-0.663
		c-0.049-0.196,0.025-0.393,0.222-0.589C11.849,17.049,12.069,17,12.266,17.049z"/>
	<path style="fill-rule:evenodd;clip-rule:evenodd;fill:#FFFFFF;" d="M13.224,18.449c0.246,0.049,0.418,0.246,0.516,0.589
		c0.049,0.344,0,0.564-0.147,0.663c-0.196,0.098-0.417,0.098-0.663,0c-0.246-0.099-0.368-0.246-0.368-0.442
		C12.462,18.621,12.683,18.351,13.224,18.449z"/>
	<path style="fill-rule:evenodd;clip-rule:evenodd;fill:#FFFFFF;" d="M15.065,18.744c0.197,0.147,0.319,0.368,0.369,0.663
		c0,0.344-0.172,0.541-0.515,0.589c-0.344,0.049-0.541,0-0.59-0.147c0-0.246-0.024-0.466-0.074-0.663
		c-0.049-0.246,0-0.417,0.147-0.516C14.55,18.572,14.771,18.597,15.065,18.744z"/>
	<path style="fill-rule:evenodd;clip-rule:evenodd;fill:#FFFFFF;" d="M16.392,18.449c0.294,0.049,0.442,0.196,0.442,0.442
		c0,0.246-0.099,0.442-0.295,0.589c-0.147,0.099-0.319,0.074-0.515-0.073c-0.147-0.147-0.246-0.319-0.295-0.516
		C15.63,18.498,15.852,18.351,16.392,18.449z"/>
	<path style="fill-rule:evenodd;clip-rule:evenodd;fill:#FFFFFF;" d="M11.161,19.259c0,0.688-0.221,0.811-0.663,0.368
		c-0.197-0.245-0.147-0.441,0.146-0.589C10.989,18.891,11.161,18.965,11.161,19.259z"/>
	<path style="fill-rule:evenodd;clip-rule:evenodd;fill:#FFFFFF;" d="M12.045,19.775c0.246,0,0.369,0.221,0.369,0.664
		c0,0.491-0.246,0.54-0.737,0.146c-0.196-0.146-0.245-0.343-0.147-0.589C11.677,19.8,11.849,19.726,12.045,19.775z"/>
	<path style="fill-rule:evenodd;clip-rule:evenodd;fill:#FFFFFF;" d="M10.499,16.755c0.098,0.098,0.146,0.246,0.146,0.442
		c-0.049,0.245-0.146,0.393-0.294,0.442c-0.197,0.049-0.32,0-0.369-0.147c0-0.196-0.024-0.344-0.074-0.442
		c-0.049-0.098,0.025-0.196,0.222-0.294C10.327,16.657,10.449,16.657,10.499,16.755z"/>
	<path style="fill-rule:evenodd;clip-rule:evenodd;fill:#FFFFFF;" d="M10.792,15.134c0,0.294-0.147,0.442-0.441,0.442
		c-0.197,0-0.344-0.098-0.443-0.294c-0.098-0.196-0.098-0.368,0-0.516c0.099-0.147,0.271-0.197,0.516-0.147
		C10.67,14.717,10.792,14.888,10.792,15.134z"/>
	<path style="fill-rule:evenodd;clip-rule:evenodd;fill:#FFFFFF;" d="M11.382,13.587c0.246,0.442,0.099,0.614-0.442,0.516
		c-0.295-0.098-0.319-0.245-0.073-0.441C11.112,13.464,11.284,13.44,11.382,13.587z"/>
	<path style="fill-rule:evenodd;clip-rule:evenodd;fill:#FFFFFF;" d="M11.456,12.777c0.147-0.049,0.245,0,0.294,0.147
		c0,0.147-0.098,0.221-0.294,0.221c-0.197,0.049-0.271,0-0.221-0.147C11.235,12.9,11.309,12.826,11.456,12.777z"/>
	<path style="fill-rule:evenodd;clip-rule:evenodd;fill:#FFFFFF;" d="M9.099,18.744c0.098,0.54,0.073,0.811-0.074,0.811
		c-0.099,0-0.196-0.147-0.295-0.442c-0.049-0.196-0.024-0.368,0.073-0.515C8.951,18.449,9.049,18.498,9.099,18.744z"/>
	<path style="fill-rule:evenodd;clip-rule:evenodd;fill:#FFFFFF;" d="M11.087,21.101c0.344,0.147,0.466,0.319,0.369,0.517
		c-0.099,0.147-0.271,0.196-0.516,0.147c-0.196-0.049-0.245-0.196-0.147-0.442C10.841,21.076,10.94,21.003,11.087,21.101z"/>
	<path style="fill-rule:evenodd;clip-rule:evenodd;fill:#F5A510;" d="M17.717,14.029c0.344,0.344,0.417,0.614,0.221,0.81
		c-0.196,0.246-0.417,0.147-0.664-0.294c-0.245-0.394-0.294-0.639-0.146-0.736C17.275,13.661,17.472,13.734,17.717,14.029z"/>
	<path style="fill-rule:evenodd;clip-rule:evenodd;fill:#F5A510;" d="M18.38,15.65c0.197,0.294,0.172,0.565-0.073,0.81
		c-0.245,0.295-0.417,0.32-0.516,0.074c-0.098-0.197-0.074-0.442,0.074-0.737C18.062,15.552,18.233,15.502,18.38,15.65z"/>
	<path style="fill-rule:evenodd;clip-rule:evenodd;fill:#F5A510;" d="M18.527,18.449c-0.049,0.393-0.147,0.712-0.294,0.958
		c-0.196,0.196-0.368,0.196-0.516,0c-0.098-0.196,0-0.467,0.294-0.81C18.355,18.253,18.527,18.203,18.527,18.449z"/>
	<path style="fill-rule:evenodd;clip-rule:evenodd;fill:#F5A510;" d="M15.434,20.364c0.54,0.147,0.688,0.442,0.442,0.884
		c-0.196,0.394-0.589,0.664-1.179,0.811c-0.442,0.147-0.737,0.123-0.883-0.073c-0.099-0.147-0.123-0.417-0.074-0.811
		C13.838,20.438,14.402,20.168,15.434,20.364z"/>
	<path style="fill-rule:evenodd;clip-rule:evenodd;fill:#F5A510;" d="M17.054,21.027c0.688-0.049,0.491,0.221-0.589,0.811
		c-0.196,0-0.196-0.122,0-0.368C16.662,21.175,16.858,21.027,17.054,21.027z"/>
	<path style="fill-rule:evenodd;clip-rule:evenodd;fill:#F5A510;" d="M9.908,22.133c0.099,0.344,0.025,0.54-0.221,0.589
		c-0.294,0-0.516-0.123-0.663-0.368c-0.147-0.245-0.074-0.441,0.221-0.589C9.54,21.617,9.762,21.74,9.908,22.133z"/>
	<path style="fill-rule:evenodd;clip-rule:evenodd;fill:#F5A510;" d="M8.509,16.681c-0.049,0.099-0.147,0.467-0.295,1.105
		c-0.049,0.196-0.196,0.172-0.442-0.074c-0.246-0.246-0.147-0.54,0.294-0.884C8.509,16.387,8.657,16.337,8.509,16.681z"/>
	<path style="fill-rule:evenodd;clip-rule:evenodd;fill:#F7B61C;" d="M16.097,23.017c0.688,0.294,0.688,0.564,0,0.811
		c-0.688,0.295-1.081,0.27-1.178-0.074c-0.05-0.245,0.073-0.442,0.368-0.59C15.532,22.967,15.802,22.918,16.097,23.017z"/>
	<path style="fill-rule:evenodd;clip-rule:evenodd;fill:#F7B61C;" d="M12.782,24.269c0.344,0.196,0.245,0.394-0.295,0.59
		c-0.541,0.146-0.883,0.098-1.031-0.147c-0.099-0.295-0.024-0.516,0.221-0.663C11.972,23.9,12.34,23.975,12.782,24.269z"/>
	<path style="fill-rule:evenodd;clip-rule:evenodd;fill:#F7B61C;" d="M14.255,24.563c0.393-0.049,0.541,0.073,0.442,0.368
		c-0.098,0.344-0.319,0.467-0.663,0.368c-0.246-0.099-0.319-0.245-0.221-0.441C13.911,24.662,14.059,24.563,14.255,24.563z"/>
	<path style="fill-rule:evenodd;clip-rule:evenodd;fill:#F7B61C;" d="M20.59,18.744c-0.049,0.491-0.172,0.811-0.368,0.958
		c-0.146,0.147-0.27,0.098-0.368-0.147c-0.049-0.246,0.074-0.516,0.368-0.811C20.468,18.4,20.59,18.4,20.59,18.744z"/>
	<path style="fill-rule:evenodd;clip-rule:evenodd;fill:#F7B61C;" d="M20.369,14.914c0.295,0.54,0.271,0.958-0.073,1.251
		c-0.344,0.246-0.614,0.172-0.811-0.221c-0.196-0.344-0.122-0.663,0.222-0.958C20.05,14.643,20.271,14.619,20.369,14.914z"/>
	<path style="fill-rule:evenodd;clip-rule:evenodd;fill:#F7B61C;" d="M19.485,12.261c0.295,0.098,0.394,0.417,0.295,0.958
		c-0.099,0.491-0.32,0.639-0.664,0.442c-0.294-0.147-0.368-0.442-0.221-0.884S19.24,12.163,19.485,12.261z"/>
	<path style="fill-rule:evenodd;clip-rule:evenodd;fill:#F7B61C;" d="M20.517,13.514c0.393-0.099,0.639,0.073,0.736,0.516
		c0.05,0.442-0.172,0.614-0.663,0.516c-0.441-0.049-0.613-0.221-0.515-0.516C20.124,13.734,20.271,13.563,20.517,13.514z"/>
	<path style="fill-rule:evenodd;clip-rule:evenodd;fill:#F7B61C;" d="M22.063,19.996c0,0.736-0.245,1.228-0.736,1.474
		c-0.491,0.295-0.737,0.172-0.737-0.369c0.05-0.393,0.32-0.761,0.811-1.104C21.892,19.702,22.113,19.702,22.063,19.996z"/>
	<path style="fill-rule:evenodd;clip-rule:evenodd;fill:#F7B61C;" d="M18.38,22.354c0.835,0,1.105,0.295,0.811,0.884
		c-0.344,0.59-0.786,0.835-1.326,0.737c-0.492-0.049-0.639-0.344-0.443-0.885C17.619,22.599,17.938,22.354,18.38,22.354z"/>
	<path style="fill-rule:evenodd;clip-rule:evenodd;fill:#F7B61C;" d="M8.951,23.605c0.246,0.442,0.221,0.663-0.074,0.663
		c-0.344,0-0.614-0.146-0.811-0.441c-0.147-0.246-0.074-0.418,0.222-0.517C8.534,23.213,8.754,23.311,8.951,23.605z"/>
	<path style="fill-rule:evenodd;clip-rule:evenodd;fill:#F5A510;" d="M17.791,26.773c0.884,0.147,0.958,0.516,0.221,1.105
		c-0.737,0.589-1.326,0.688-1.768,0.295c-0.442-0.345-0.393-0.688,0.147-1.032C16.833,26.847,17.3,26.725,17.791,26.773z"/>
	<path style="fill-rule:evenodd;clip-rule:evenodd;fill:#F5A510;" d="M24.127,23.605c-0.05,0.688-0.319,1.253-0.812,1.694
		c-0.49,0.442-0.761,0.418-0.81-0.073c-0.049-0.442,0.221-0.908,0.81-1.399C23.905,23.286,24.176,23.213,24.127,23.605z"/>
	<path style="fill-rule:evenodd;clip-rule:evenodd;fill:#F5A510;" d="M26.483,23.975c0.442,0.245,0.295,0.712-0.441,1.398
		c-0.688,0.64-1.13,0.713-1.326,0.222s-0.049-0.933,0.441-1.326C25.6,23.827,26.042,23.729,26.483,23.975z"/>
	<path style="fill-rule:evenodd;clip-rule:evenodd;fill:#F5A510;" d="M27.367,16.019c0.049,0.933-0.196,1.546-0.736,1.841
		c-0.49,0.246-0.785-0.049-0.884-0.884c-0.099-0.835,0.147-1.375,0.736-1.621C27.023,15.11,27.318,15.331,27.367,16.019z"/>
	<path style="fill-rule:evenodd;clip-rule:evenodd;fill:#F5A510;" d="M26.852,19.039c-0.098,0.491-0.27,0.909-0.515,1.252
		c-0.246,0.344-0.491,0.294-0.737-0.147c-0.196-0.442-0.024-0.81,0.516-1.105C26.655,18.695,26.901,18.695,26.852,19.039z"/>
	<path style="fill-rule:evenodd;clip-rule:evenodd;fill:#F5A510;" d="M12.266,29.131c0.589,0.245,0.761,0.613,0.516,1.105
		c-0.295,0.49-0.737,0.662-1.326,0.516c-0.589-0.147-0.737-0.516-0.442-1.105C11.309,29.057,11.726,28.885,12.266,29.131z"/>
	<path style="fill-rule:evenodd;clip-rule:evenodd;fill:#F5A510;" d="M7.698,26.994c0.197,0.344,0.222,0.589,0.074,0.736
		c-0.147,0.197-0.368,0.173-0.663-0.073c-0.246-0.246-0.27-0.491-0.073-0.736C7.281,26.626,7.502,26.65,7.698,26.994z"/>
	<path style="fill-rule:evenodd;clip-rule:evenodd;fill:#F5A510;" d="M14.697,29.572c0.491,0,0.639,0.271,0.442,0.812
		c-0.196,0.49-0.54,0.687-1.032,0.589c-0.393-0.147-0.49-0.417-0.294-0.811C14.059,29.769,14.354,29.572,14.697,29.572z"/>
	<path style="fill-rule:evenodd;clip-rule:evenodd;fill:#F5A510;" d="M21.843,28.836c0.54,0.049,0.639,0.246,0.295,0.589
		c-0.344,0.344-0.712,0.491-1.105,0.442c-0.393-0.049-0.442-0.246-0.147-0.589C21.13,28.935,21.45,28.787,21.843,28.836z"/>
	<path style="fill-rule:evenodd;clip-rule:evenodd;fill:#F5A510;" d="M28.325,19.702c0.099,0.687,0.05,1.154-0.146,1.399
		c-0.147,0.295-0.345,0.172-0.591-0.368c-0.245-0.49-0.196-0.859,0.148-1.105C28.031,19.333,28.228,19.358,28.325,19.702z"/>
	<path style="fill-rule:evenodd;clip-rule:evenodd;fill:#F5A510;" d="M24.716,11.083c0.736,0.688,0.884,1.179,0.441,1.474
		c-0.49,0.294-0.957,0.196-1.399-0.295c-0.344-0.393-0.344-0.761,0-1.105C24.102,10.812,24.421,10.788,24.716,11.083z"/>
	<path style="fill-rule:evenodd;clip-rule:evenodd;fill:#F98B0E;" d="M26.115,29.867c0.736,0.197,0.688,0.541-0.146,1.031
		c-0.836,0.491-1.352,0.564-1.548,0.222c-0.196-0.295-0.098-0.614,0.295-0.958S25.575,29.72,26.115,29.867z"/>
	<path style="fill-rule:evenodd;clip-rule:evenodd;fill:#F98B0E;" d="M22.432,31.782c0.982,0.049,1.326,0.418,1.031,1.105
		c-0.295,0.736-0.835,0.982-1.62,0.736c-0.688-0.196-0.909-0.564-0.663-1.104C21.475,31.979,21.892,31.733,22.432,31.782z"/>
	<path style="fill-rule:evenodd;clip-rule:evenodd;fill:#F98B0E;" d="M8.657,30.015c0.343,0.197,0.393,0.394,0.146,0.59
		c-0.245,0.147-0.49,0.098-0.736-0.147c-0.246-0.196-0.27-0.368-0.074-0.516C8.19,29.843,8.411,29.867,8.657,30.015z"/>
	<path style="fill-rule:evenodd;clip-rule:evenodd;fill:#F98B0E;" d="M29.577,29.867c1.229,0.295,0.812,0.786-1.252,1.474
		c-0.196-0.099-0.098-0.393,0.295-0.884C29.013,30.015,29.332,29.818,29.577,29.867z"/>
	<path style="fill-rule:evenodd;clip-rule:evenodd;fill:#EB7805;" d="M33.187,28.91c0.197,0.54,0.051,1.006-0.441,1.399
		c-0.491,0.393-0.835,0.442-1.031,0.147c-0.196-0.245-0.024-0.688,0.516-1.326C32.721,28.542,33.04,28.468,33.187,28.91z"/>
	<path style="fill-rule:evenodd;clip-rule:evenodd;fill:#EB7805;" d="M35.472,15.502c0.146,0.393,0.122,0.712-0.075,0.958
		c-0.146,0.197-0.293,0.147-0.441-0.147c-0.146-0.294-0.122-0.613,0.073-0.958C35.177,15.011,35.323,15.06,35.472,15.502z"/>
	<path style="fill-rule:evenodd;clip-rule:evenodd;fill:#EB7805;" d="M36.06,20.659c0.442,0.393,0.541,0.982,0.295,1.768
		c-0.196,0.786-0.466,0.958-0.81,0.516c-0.295-0.49-0.344-1.056-0.148-1.694C35.545,20.61,35.765,20.413,36.06,20.659z"/>
	<path style="fill-rule:evenodd;clip-rule:evenodd;fill:#EB7805;" d="M35.396,13.292c0.59,0.589,0.492,0.884-0.293,0.884
		c-0.394,0-0.492-0.196-0.295-0.59C34.955,13.145,35.152,13.046,35.396,13.292z"/>
	<path style="fill-rule:evenodd;clip-rule:evenodd;fill:#EB7805;" d="M34.735,26.921c0.146,0.245,0.073,0.564-0.222,0.958
		c-0.246,0.344-0.467,0.393-0.664,0.147c-0.195-0.296-0.146-0.664,0.148-1.105C34.292,26.528,34.538,26.528,34.735,26.921z"/>
	<path style="fill-rule:evenodd;clip-rule:evenodd;fill:#EB7805;" d="M29.946,33.035c0.688,0.099,0.761,0.417,0.221,0.957
		c-0.59,0.492-1.13,0.639-1.62,0.442c-0.394-0.147-0.344-0.442,0.146-0.884C29.136,33.158,29.553,32.986,29.946,33.035z"/>
	<path style="fill-rule:evenodd;clip-rule:evenodd;fill:#EB7805;" d="M19.854,34.804c0.54,0.098,0.516,0.393-0.073,0.883
		c-0.541,0.442-1.056,0.492-1.547,0.148c-0.442-0.344-0.418-0.614,0.073-0.812C18.749,34.779,19.264,34.705,19.854,34.804z"/>
	<path style="fill-rule:evenodd;clip-rule:evenodd;fill:#EB7805;" d="M8.141,31.782c0.393,0.541,0.417,0.836,0.073,0.885
		c-0.393,0.099-0.688-0.049-0.884-0.442c-0.196-0.344-0.172-0.564,0.074-0.663C7.649,31.414,7.895,31.488,8.141,31.782z"/>
	<path style="fill-rule:evenodd;clip-rule:evenodd;fill:#F98B0E;" d="M19.485,10.346c1.032,0.589,1.081,0.834,0.147,0.736
		c-0.982-0.147-1.473-0.393-1.473-0.736c0-0.295,0.147-0.417,0.442-0.369C18.896,9.978,19.191,10.1,19.485,10.346z"/>
	<path style="fill-rule:evenodd;clip-rule:evenodd;fill:#F98B0E;" d="M21.327,11.893c0.295,0.295,0.246,0.541-0.147,0.737
		c-0.393,0.147-0.639,0.074-0.736-0.221c-0.099-0.295-0.025-0.516,0.221-0.664C20.86,11.549,21.081,11.599,21.327,11.893z"/>
	<path style="fill-rule:evenodd;clip-rule:evenodd;fill:#F98B0E;" d="M21.99,13.145c0.245,0.197,0.319,0.393,0.221,0.589
		c-0.049,0.196-0.221,0.271-0.516,0.221c-0.245-0.049-0.295-0.221-0.147-0.515C21.695,13.145,21.843,13.046,21.99,13.145z"/>
	<path style="fill-rule:evenodd;clip-rule:evenodd;fill:#F98B0E;" d="M23.685,13.882c0.099,0.442,0.049,0.688-0.147,0.737
		c-0.197,0.049-0.394-0.074-0.59-0.369c-0.147-0.245-0.147-0.467,0-0.663c0.049-0.098,0.123-0.172,0.221-0.221h0.222
		C23.537,13.415,23.636,13.587,23.685,13.882z"/>
	<path style="fill-rule:evenodd;clip-rule:evenodd;fill:#F98B0E;" d="M23.39,15.502c0.196,0.393,0.099,0.663-0.295,0.81
		c-0.344,0.147-0.516,0.024-0.516-0.368c0-0.344,0.099-0.589,0.295-0.737C23.07,15.11,23.242,15.208,23.39,15.502z"/>
	<path style="fill-rule:evenodd;clip-rule:evenodd;fill:#F98B0E;" d="M21.843,16.387c0.295,0.343,0.368,0.711,0.221,1.105
		c-0.146,0.343-0.393,0.393-0.736,0.147c-0.344-0.246-0.393-0.565-0.147-0.958C21.426,16.337,21.646,16.239,21.843,16.387z"/>
	<path style="fill-rule:evenodd;clip-rule:evenodd;fill:#F98B0E;" d="M23.537,17.124c0.246,0.343,0.246,0.687,0,1.031
		c-0.246,0.295-0.491,0.271-0.737-0.073c-0.294-0.344-0.294-0.639,0-0.884C23.095,16.902,23.34,16.877,23.537,17.124z"/>
	<path style="fill-rule:evenodd;clip-rule:evenodd;fill:#F98B0E;" d="M25.01,18.449c-0.049,0.688-0.245,1.129-0.589,1.326
		c-0.344,0.197-0.54,0.049-0.589-0.441c-0.049-0.394,0.123-0.712,0.516-0.958C24.789,18.081,25.01,18.105,25.01,18.449z"/>
	<path style="fill-rule:evenodd;clip-rule:evenodd;fill:#F98B0E;" d="M23.315,20.438c-0.344,1.13-0.638,1.571-0.884,1.326
		c-0.196-0.196-0.146-0.517,0.147-0.958C22.874,20.364,23.119,20.242,23.315,20.438z"/>
	<path style="fill-rule:evenodd;clip-rule:evenodd;fill:#F98B0E;" d="M21.032,22.869c0.049,0.393-0.024,0.688-0.221,0.884
		c-0.246,0.246-0.516,0.246-0.811,0c-0.344-0.196-0.27-0.516,0.221-0.958C20.713,22.402,20.983,22.427,21.032,22.869z"/>
	<path style="fill-rule:evenodd;clip-rule:evenodd;fill:#F98B0E;" d="M18.454,24.784c0.834-0.049,1.129,0.123,0.884,0.516
		c-0.295,0.344-0.688,0.517-1.179,0.517c-0.442-0.05-0.589-0.222-0.442-0.517C17.865,25.005,18.11,24.833,18.454,24.784z"/>
	<path style="fill-rule:evenodd;clip-rule:evenodd;fill:#F98B0E;" d="M15.065,25.816c0.59,0.147,0.565,0.368-0.073,0.662
		c-0.638,0.344-1.105,0.418-1.4,0.222c-0.294-0.196-0.245-0.418,0.147-0.663C14.083,25.742,14.525,25.668,15.065,25.816z"/>
	<path style="fill-rule:evenodd;clip-rule:evenodd;fill:#F98B0E;" d="M13.077,26.332c0.294,0.098,0.27,0.27-0.074,0.515
		c-0.344,0.196-0.663,0.196-0.958,0c-0.344-0.196-0.368-0.368-0.073-0.515C12.217,26.233,12.585,26.233,13.077,26.332z"/>
	<path style="fill-rule:evenodd;clip-rule:evenodd;fill:#F98B0E;" d="M9.614,25.521c0.098,0.296,0.073,0.517-0.074,0.664
		c-0.196,0.196-0.393,0.172-0.589-0.074c-0.197-0.196-0.148-0.393,0.147-0.59C9.344,25.324,9.516,25.324,9.614,25.521z"/>
	<path style="fill-rule:evenodd;clip-rule:evenodd;fill:#F98B0E;" d="M6.741,21.248c0.393,0.394,0.516,0.713,0.369,0.958
		c-0.196,0.295-0.393,0.295-0.589,0c-0.147-0.196-0.172-0.441-0.073-0.736C6.496,21.175,6.593,21.101,6.741,21.248z"/>
	<path style="fill-rule:evenodd;clip-rule:evenodd;fill:#F7700B;" d="M28.62,22.869c0,0.786-0.196,1.253-0.589,1.399
		c-0.443,0.147-0.615-0.098-0.517-0.736c0.049-0.59,0.246-0.958,0.59-1.105C28.399,22.23,28.571,22.378,28.62,22.869z"/>
	<path style="fill-rule:evenodd;clip-rule:evenodd;fill:#F7700B;" d="M27.662,25.079c0.688,0.049,0.786,0.294,0.295,0.737
		c-0.491,0.49-0.835,0.613-1.031,0.368c-0.099-0.196-0.074-0.442,0.073-0.737C27.195,25.152,27.416,25.03,27.662,25.079z"/>
	<path style="fill-rule:evenodd;clip-rule:evenodd;fill:#F7700B;" d="M25.157,26.994c0.246,0.147,0.196,0.368-0.147,0.663
		c-0.343,0.344-0.589,0.418-0.736,0.222c-0.196-0.197-0.172-0.418,0.074-0.664C24.593,26.921,24.863,26.847,25.157,26.994z"/>
	<path style="fill-rule:evenodd;clip-rule:evenodd;fill:#F7700B;" d="M23.168,27.289c0.394,0.049,0.492,0.294,0.295,0.737
		c-0.245,0.441-0.589,0.589-1.031,0.441c-0.393-0.147-0.466-0.368-0.221-0.663C22.457,27.461,22.775,27.289,23.168,27.289z"/>
	<path style="fill-rule:evenodd;clip-rule:evenodd;fill:#F7700B;" d="M17.422,30.384c0.541,0.146,0.811,0.27,0.811,0.368
		l-0.222,0.368c-0.196,0.245-0.343,0.368-0.442,0.368c-0.196,0.049-0.491-0.025-0.884-0.222c-0.442-0.196-0.541-0.417-0.294-0.662
		C16.637,30.358,16.981,30.285,17.422,30.384z"/>
	<path style="fill-rule:evenodd;clip-rule:evenodd;fill:#F7700B;" d="M18.97,29.499c0.441,0.049,0.613,0.196,0.515,0.442
		c-0.098,0.245-0.343,0.319-0.736,0.221c-0.343-0.098-0.466-0.246-0.369-0.442C18.479,29.475,18.675,29.4,18.97,29.499z"/>
	<path style="fill-rule:evenodd;clip-rule:evenodd;fill:#F7700B;" d="M29.062,16.681c0.246,0.639,0.222,1.105-0.073,1.4
		c-0.295,0.294-0.54,0.245-0.736-0.147c-0.147-0.344-0.073-0.712,0.221-1.105C28.768,16.436,28.964,16.387,29.062,16.681z"/>
	<path style="fill-rule:evenodd;clip-rule:evenodd;fill:#F7700B;" d="M26.852,11.304c0.394,0.491,0.491,0.835,0.295,1.031
		c-0.245,0.246-0.516,0.197-0.81-0.147c-0.295-0.344-0.344-0.663-0.147-0.958C26.386,10.935,26.606,10.959,26.852,11.304z"/>
	<path style="fill-rule:evenodd;clip-rule:evenodd;fill:#D66915;" d="M26.483,32.446c0.491,0.49,0.394,0.834-0.294,1.03
		c-0.688,0.147-1.13,0.099-1.326-0.146c-0.196-0.246-0.074-0.54,0.368-0.884C25.723,32.053,26.141,32.053,26.483,32.446z"/>
	<path style="fill-rule:evenodd;clip-rule:evenodd;fill:#D66915;" d="M23.537,33.919c0.394,0.491,0.147,0.688-0.737,0.59
		c-0.146-0.099-0.098-0.295,0.147-0.59C23.193,33.673,23.39,33.673,23.537,33.919z"/>
	<path style="fill-rule:evenodd;clip-rule:evenodd;fill:#D66915;" d="M18.896,33.183c0.639,0.344,0.736,0.613,0.295,0.81
		c-0.393,0.147-0.786,0.123-1.179-0.073c-0.343-0.099-0.368-0.319-0.073-0.663C18.184,32.962,18.503,32.937,18.896,33.183z"/>
	<path style="fill-rule:evenodd;clip-rule:evenodd;fill:#D66915;" d="M30.241,28.026c0.638,0.049,0.834,0.294,0.589,0.736
		c-0.196,0.49-0.54,0.638-1.031,0.441c-0.394-0.147-0.491-0.393-0.295-0.736C29.651,28.124,29.896,27.977,30.241,28.026z"/>
	<path style="fill-rule:evenodd;clip-rule:evenodd;fill:#D66915;" d="M34.292,23.09c0,0.737-0.147,1.179-0.442,1.326
		s-0.515,0-0.663-0.441c-0.049-0.344,0.124-0.64,0.517-0.885C34.096,22.795,34.292,22.795,34.292,23.09z"/>
	<path style="fill-rule:evenodd;clip-rule:evenodd;fill:#D66915;" d="M34.219,18.229c0.049,0.736-0.049,1.129-0.295,1.178
		c-0.294,0-0.516-0.221-0.662-0.663c-0.148-0.393-0.024-0.663,0.368-0.81S34.219,17.885,34.219,18.229z"/>
	<path style="fill-rule:evenodd;clip-rule:evenodd;fill:#D66915;" d="M33.187,12.704c0.295,0.687,0.246,1.055-0.146,1.105
		c-0.344,0.049-0.564-0.197-0.663-0.737c-0.049-0.394,0.05-0.639,0.295-0.737C32.917,12.286,33.089,12.409,33.187,12.704z"/>
	<path style="fill-rule:evenodd;clip-rule:evenodd;fill:#D66915;" d="M32.967,14.766c0.244,0.736,0.195,1.105-0.147,1.105
		c-0.344-0.049-0.565-0.295-0.663-0.737c-0.05-0.393,0.049-0.639,0.295-0.737C32.696,14.299,32.868,14.422,32.967,14.766z"/>
	<path style="fill-rule:evenodd;clip-rule:evenodd;fill:#FFFFFF;" d="M14.107,21.175c0.442,0.442,0.541,0.737,0.295,0.884
		c-0.196,0.147-0.491,0.099-0.884-0.146c-0.344-0.196-0.369-0.394-0.074-0.59C13.69,21.076,13.911,21.027,14.107,21.175z"/>
	<path style="fill-rule:evenodd;clip-rule:evenodd;fill:#FFFFFF;" d="M9.025,16.019c0.049,0.196,0.024,0.368-0.074,0.515
		c-0.098,0.147-0.246,0.196-0.442,0.147c-0.196-0.049-0.172-0.221,0.073-0.516C8.829,15.871,8.976,15.822,9.025,16.019z"/>
	<path style="fill-rule:evenodd;clip-rule:evenodd;fill:#FFFFFF;" d="M7.92,14.692c0.147,0.099,0.196,0.222,0.147,0.368
		c-0.049,0.099-0.172,0.123-0.369,0.074c-0.146-0.049-0.172-0.147-0.073-0.295C7.724,14.643,7.821,14.594,7.92,14.692z"/>
	<path style="fill-rule:evenodd;clip-rule:evenodd;fill:#FFFFFF;" d="M16.392,13.366c0.343,0.246,0.442,0.442,0.294,0.589
		c-0.197,0.147-0.417,0.172-0.663,0.074c-0.196-0.099-0.222-0.246-0.074-0.442C16.097,13.342,16.244,13.268,16.392,13.366z"/>
	<path style="fill-rule:evenodd;clip-rule:evenodd;fill:#FFFFFF;" d="M15.729,11.745c0.295,0.05,0.417,0.172,0.368,0.369
		c-0.099,0.147-0.245,0.172-0.442,0.074C15.311,11.893,15.335,11.745,15.729,11.745z"/>
	<path style="fill-rule:evenodd;clip-rule:evenodd;fill:#FFFFFF;" d="M18.38,20.07c0.295,0.049,0.295,0.221,0,0.515
		c-0.294,0.295-0.49,0.369-0.589,0.222c-0.098-0.099-0.074-0.246,0.074-0.442C18.062,20.119,18.233,20.021,18.38,20.07z"/>
</g>
</svg>
