<?xml version="1.0" encoding="iso-8859-1"?>
<!-- Generator: Adobe Illustrator 15.1.0, SVG Export Plug-In . SVG Version: 6.00 Build 0)  -->
<!DOCTYPE svg PUBLIC "-//W3C//DTD SVG 1.1//EN" "http://www.w3.org/Graphics/SVG/1.1/DTD/svg11.dtd">
<svg version="1.1" id="flash0.ai" xmlns="http://www.w3.org/2000/svg" xmlns:xlink="http://www.w3.org/1999/xlink" x="0px" y="0px"
	 width="97px" height="48.05px" viewBox="0 0 97 48.05" style="enable-background:new 0 0 97 48.05;" xml:space="preserve">
<symbol  id="flash0.ai_x5F_3_x2F_Layer_2_x2F__x3C_Path_x3E_" viewBox="0.035 -16.233 27.917 16.239">
	<g id="Layer_1_3_">
		<path style="fill-rule:evenodd;clip-rule:evenodd;fill:#FFFFFF;" d="M26.1,0c0.4-0.067,0.883-0.35,1.45-0.85
			c0.5-0.467,0.534-1.017,0.1-1.65c-0.066-0.167-0.583-0.767-1.55-1.8c-0.367-0.434-1.017-0.9-1.95-1.4
			C23.117-6.233,22.4-6.683,22-7.05c-0.367-0.333-1.083-0.8-2.15-1.4c-0.967-0.533-1.567-0.933-1.8-1.2
			c-0.4-0.4-1.167-0.983-2.3-1.75c-1.2-0.833-2.1-1.35-2.7-1.55c-2.267-1.066-3.883-1.716-4.85-1.95
			c-0.967-0.267-1.684-0.45-2.15-0.55c-0.833-0.233-1.483-0.367-1.95-0.4c-1-0.133-1.767-0.217-2.3-0.25
			c-1-0.133-1.583-0.167-1.75-0.1c-0.1,0.034,0.3,0.1,1.2,0.2c1.333,0.167,2.55,0.383,3.65,0.65c1,0.233,2.333,0.783,4,1.65
			c1.4,0.667,2.517,1.284,3.35,1.85c0.633,0.4,1.367,0.983,2.2,1.75c0.833,0.733,1.367,1.3,1.6,1.7c0.6,1,1.284,1.767,2.05,2.3
			c0.433,0.3,1.167,1.367,2.2,3.2c0.567,1.033,1.9,1.883,4,2.55C25.1-0.083,25.7,0.033,26.1,0z"/>
	</g>
</symbol>
<symbol  id="flash0.ai_x5F_3_x2F_Layer_2_x2F__x3C_Path_x3E__x5F_1" viewBox="0 -18.091 36.4 18.08">
	<g id="Layer_1_2_">
		<path style="fill-rule:evenodd;clip-rule:evenodd;fill:#FFFFFF;" d="M33.9-7.6c-1.167-1-1.816-1.55-1.95-1.65
			c-0.767-0.6-1.567-1.067-2.4-1.4c-0.8-0.333-1.55-0.75-2.25-1.25c-0.733-0.567-1.316-0.983-1.75-1.25
			c-0.5-0.367-1.833-1.117-4-2.25c-0.966-0.567-2.8-0.9-5.5-1c-0.5-0.033-1.117-0.2-1.85-0.5c-1.233-0.434-2.1-0.733-2.6-0.9
			c-0.967-0.267-1.7-0.35-2.2-0.25c-0.566,0.2-1.15,0.333-1.75,0.4c-0.7,0.066-1.35,0.1-1.95,0.1C5.033-17.583,4.467-17.6,4-17.6
			c-0.933,0-2.267,0.35-4,1.05h1.95l1.3,0.2h2.1l2.9,0.45c0.567,0.1,1.367,0.316,2.4,0.65s1.733,0.533,2.1,0.6
			c0.767,0.133,2.05,0.617,3.85,1.45c1.833,0.867,3.017,1.55,3.55,2.05c0.3,0.3,1.05,0.917,2.25,1.85
			c1.1,0.833,1.817,1.466,2.15,1.9c1.167,1.467,2.184,3.033,3.05,4.7c0.267,0.467,0.8,0.95,1.6,1.45
			c0.733,0.433,1.533,0.783,2.4,1.05c1.367,0.367,2.583,0.2,3.65-0.5c0.767-0.466,1.15-1.583,1.15-3.35c0-0.633-0.25-1.267-0.75-1.9
			C35.35-6.317,34.767-6.867,33.9-7.6z"/>
	</g>
</symbol>
<symbol  id="flash0.ai_x5F_3_x2F_Layer_3_x2F__x3C_Group_x3E_" viewBox="0 -22.9 46.862 22.906">
	<g id="Layer_1_25_">
		<g>
			<g>
				<path style="fill-rule:evenodd;clip-rule:evenodd;fill:#FFFFFF;" d="M11.7-16.45c0.4,0.133,1.133,0.3,2.2,0.5
					c1.567-0.6,2.333-1.5,2.3-2.7c0-0.767-0.133-1.533-0.4-2.3c-0.233-0.8-0.566-1.417-1-1.85l-2.95,0.4
					c0.566,0.566,0.933,1.45,1.1,2.65c0.267,1.633-0.3,2.683-1.7,3.15L11.7-16.45z M6.25-18.85c-0.233-0.566-0.583-0.933-1.05-1.1
					L3.9-19.2c0.967,0.434,1.267,1.233,0.9,2.4l1.15-0.15C6.45-17.683,6.55-18.317,6.25-18.85z M2.35-16.45
					c0.233-0.033,0.667-0.083,1.3-0.15c0.267-0.867,0.017-1.533-0.75-2l-1.1,0.75C2.267-17.617,2.45-17.15,2.35-16.45z M0-16.4
					c0.433-0.067,0.767,0.083,1,0.45l0.5-0.25c-0.1-0.466-0.333-0.767-0.7-0.9L0-16.4z M7.3-16.85l0.55,0.1
					c0.433,0.1,0.816,0.133,1.15,0.1c0.667-0.233,1.083-0.583,1.25-1.05c0.167-0.4,0.117-1.033-0.15-1.9
					c-0.3-0.967-0.633-1.667-1-2.1l-2.15,0.85c0.267,0.267,0.5,0.6,0.7,1c0.3,0.533,0.4,1.083,0.3,1.65
					C7.883-17.667,7.667-17.217,7.3-16.85z M22.6-14c0.733-0.2,1.367-0.733,1.9-1.6c0.567-0.933,0.75-1.883,0.55-2.85
					c-0.1-0.466-0.25-1.183-0.45-2.15c-0.233-0.867-0.5-1.533-0.8-2c-1.933-0.2-3.517-0.3-4.75-0.3c1.267,1.033,1.7,2.566,1.3,4.6
					c-0.333,1.7-1.45,2.733-3.35,3.1l0.2,0.05c0.466,0.3,1.5,0.733,3.1,1.3C21.267-13.783,22.033-13.833,22.6-14z M23.8-12.2
					c0.867,0.5,1.65,1.067,2.35,1.7c2,0.233,3.434,0.05,4.3-0.55c0.933-0.6,1.683-2.55,2.25-5.85c0.2-1.167,0.033-2.283-0.5-3.35
					c-2.1-0.933-3.65-1.533-4.65-1.8c1.534,1.933,1.833,4.35,0.9,7.25c-0.233,0.767-0.784,1.4-1.65,1.9
					C25.933-12.433,24.933-12.2,23.8-12.2z M36.5-4.75c1.5-0.533,2.733-1.767,3.7-3.7c0.833-1.667,1.25-3.316,1.25-4.95
					c-0.034-1.133-0.467-2.367-1.3-3.7c-0.933-0.533-2.233-1.066-3.9-1.6l0.15,0.25c0.6,0.934,0.9,2.05,0.9,3.35
					c0,1.167-0.216,2.233-0.65,3.2c-0.533,1.233-0.967,2.05-1.3,2.45c-0.6,0.767-1.434,1.284-2.5,1.55
					c-1.733,0.467-3.217,0.633-4.45,0.5c0.6,0.833,1.4,1.783,2.4,2.85C32.533-3.983,34.433-4.05,36.5-4.75z M45.15-3.4
					c1.434-1.833,1.967-3.783,1.6-5.85c-0.233-1.3-0.55-2.333-0.95-3.1c-0.4-0.733-1.05-1.45-1.95-2.15
					c0.467,1.5,0.733,2.95,0.8,4.35c0.1,3.133-1.566,5.717-5,7.75c-1.833,1.033-4.033,1.066-6.6,0.1c2.1,1.867,4.217,2.6,6.35,2.2
					C41.767-0.5,43.683-1.6,45.15-3.4z"/>
			</g>
		</g>
	</g>
</symbol>
<symbol  id="flash0.ai_x5F_3_x2F_Layer_3_x2F__x3C_Path_x3E_" viewBox="-0.03 -0.689 0.903 0.679">
	<g id="Layer_1_24_">
		<path style="fill-rule:evenodd;clip-rule:evenodd;fill:#FFFFFF;" d="M0.65-0.1C0.883-0.333,0.933-0.5,0.8-0.6
			C0.567-0.767,0.317-0.7,0.05-0.4c-0.133,0.2-0.1,0.316,0.1,0.35C0.317,0.017,0.483,0,0.65-0.1z"/>
	</g>
</symbol>
<symbol  id="flash0.ai_x5F_3_x2F_Layer_3_x2F__x3C_Path_x3E__x5F_1" viewBox="0 -0.8 0.695 0.805">
	<g id="Layer_1_23_">
		<path style="fill-rule:evenodd;clip-rule:evenodd;fill:#FFFFFF;" d="M0.45,0c0.233-0.033,0.3-0.167,0.2-0.4
			C0.55-0.667,0.4-0.8,0.2-0.8C0-0.8-0.05-0.667,0.05-0.4C0.183-0.1,0.317,0.033,0.45,0z"/>
	</g>
</symbol>
<symbol  id="flash0.ai_x5F_3_x2F_Layer_3_x2F__x3C_Path_x3E__x5F_10" viewBox="0.012 -2.055 1.277 2.031">
	<g id="Layer_1_14_">
		<path style="fill-rule:evenodd;clip-rule:evenodd;fill:#FFFFFF;" d="M1.2-0.85c0.133-0.3,0.117-0.583-0.05-0.85
			c-0.2-0.267-0.467-0.383-0.8-0.35c-0.3,0.033-0.4,0.283-0.3,0.75c0.067,0.367,0.2,0.716,0.4,1.05c0.133,0.2,0.25,0.267,0.35,0.2
			C0.833-0.117,0.967-0.383,1.2-0.85z"/>
	</g>
</symbol>
<symbol  id="flash0.ai_x5F_3_x2F_Layer_3_x2F__x3C_Path_x3E__x5F_11" viewBox="0 -2.388 1.155 2.428">
	<g id="Layer_1_13_">
		<path style="fill-rule:evenodd;clip-rule:evenodd;fill:#FFFFFF;" d="M0.75-2.05c-0.233-0.3-0.417-0.4-0.55-0.3
			C0.067-2.217,0-2.017,0-1.75C0.033-1.517,0.133-1.2,0.3-0.8C0.5-0.4,0.667-0.133,0.8,0C1,0.133,1.117-0.067,1.15-0.6
			S1.05-1.617,0.75-2.05z"/>
	</g>
</symbol>
<symbol  id="flash0.ai_x5F_3_x2F_Layer_3_x2F__x3C_Path_x3E__x5F_12" viewBox="-0.025 -0.679 0.863 0.678">
	<g id="Layer_1_12_">
		<path style="fill-rule:evenodd;clip-rule:evenodd;fill:#FFFFFF;" d="M0.65-0.1C0.917-0.4,0.9-0.583,0.6-0.65
			C0.333-0.717,0.133-0.667,0-0.5c-0.067,0.133,0,0.267,0.2,0.4C0.367,0.033,0.517,0.033,0.65-0.1z"/>
	</g>
</symbol>
<symbol  id="flash0.ai_x5F_3_x2F_Layer_3_x2F__x3C_Path_x3E__x5F_13" viewBox="-0.012 -2.503 0.912 2.481">
	<g id="Layer_1_11_">
		<path style="fill-rule:evenodd;clip-rule:evenodd;fill:#FFFFFF;" d="M0.8-1c0.133-0.333,0.133-0.667,0-1
			C0.667-2.267,0.5-2.433,0.3-2.5C0.133-2.533,0.033-2.25,0-1.65c-0.033,0.566,0,1.033,0.1,1.4C0.233,0.217,0.467-0.033,0.8-1z"/>
	</g>
</symbol>
<symbol  id="flash0.ai_x5F_3_x2F_Layer_3_x2F__x3C_Path_x3E__x5F_14" viewBox="0.01 -0.79 0.826 0.797">
	<g id="Layer_1_10_">
		<path style="fill-rule:evenodd;clip-rule:evenodd;fill:#FFFFFF;" d="M0.7-0.25c0.233-0.267,0.167-0.433-0.2-0.5
			C0.333-0.817,0.2-0.8,0.1-0.7C0-0.567-0.017-0.433,0.05-0.3C0.117-0.1,0.2,0,0.3,0C0.367,0.033,0.5-0.05,0.7-0.25z"/>
	</g>
</symbol>
<symbol  id="flash0.ai_x5F_3_x2F_Layer_3_x2F__x3C_Path_x3E__x5F_15" viewBox="0.062 -2.461 1.088 2.473">
	<g id="Layer_1_9_">
		<path style="fill-rule:evenodd;clip-rule:evenodd;fill:#FFFFFF;" d="M1.05-1.75c-0.133-0.533-0.4-0.767-0.8-0.7
			C0.017-2.383,0-1.95,0.2-1.15C0.267-0.783,0.333-0.5,0.4-0.3C0.5,0,0.617,0.083,0.75-0.05C1.15-0.483,1.25-1.05,1.05-1.75z"/>
	</g>
</symbol>
<symbol  id="flash0.ai_x5F_3_x2F_Layer_3_x2F__x3C_Path_x3E__x5F_16" viewBox="0 -0.988 0.775 1.013">
	<g id="Layer_1_8_">
		<path style="fill-rule:evenodd;clip-rule:evenodd;fill:#FFFFFF;" d="M0.55-0.1c0.3-0.467,0.3-0.75,0-0.85
			C0.183-1.05,0-0.95,0-0.65C0-0.417,0.067-0.233,0.2-0.1C0.333,0.067,0.45,0.067,0.55-0.1z"/>
	</g>
</symbol>
<symbol  id="flash0.ai_x5F_3_x2F_Layer_3_x2F__x3C_Path_x3E__x5F_17" viewBox="0.01 -2.003 1.157 2.03">
	<g id="Layer_1_7_">
		<path style="fill-rule:evenodd;clip-rule:evenodd;fill:#FFFFFF;" d="M0.9-0.45c0.267-0.3,0.333-0.617,0.2-0.95
			C1-1.7,0.817-1.9,0.55-2C0.35-2.033,0.2-1.817,0.1-1.35c-0.1,0.4-0.117,0.733-0.05,1C0.183,0.183,0.467,0.15,0.9-0.45z"/>
	</g>
</symbol>
<symbol  id="flash0.ai_x5F_3_x2F_Layer_3_x2F__x3C_Path_x3E__x5F_18" viewBox="-0.006 -0.93 0.606 0.934">
	<g id="Layer_1_6_">
		<path style="fill-rule:evenodd;clip-rule:evenodd;fill:#FFFFFF;" d="M0.6-0.1c0-0.367-0.1-0.617-0.3-0.75C0.1-0.983,0-0.95,0-0.75
			C-0.033-0.583,0.067-0.4,0.3-0.2C0.5,0.033,0.6,0.067,0.6-0.1z"/>
	</g>
</symbol>
<symbol  id="flash0.ai_x5F_3_x2F_Layer_3_x2F__x3C_Path_x3E__x5F_19" viewBox="0.037 -1.804 0.872 1.808">
	<g id="Layer_1_5_">
		<path style="fill-rule:evenodd;clip-rule:evenodd;fill:#FFFFFF;" d="M0.45-1.8c-0.233,0.033-0.367,0.167-0.4,0.4
			c-0.033,0.233,0,0.45,0.1,0.65c0.1,0.133,0.2,0.35,0.3,0.65c0.1,0.167,0.2,0.133,0.3-0.1C0.883-0.5,0.933-0.85,0.9-1.25
			S0.717-1.833,0.45-1.8z"/>
	</g>
</symbol>
<symbol  id="flash0.ai_x5F_3_x2F_Layer_3_x2F__x3C_Path_x3E__x5F_2" viewBox="-0.01 -0.74 0.65 0.686">
	<g id="Layer_1_22_">
		<path style="fill-rule:evenodd;clip-rule:evenodd;fill:#FFFFFF;" d="M0.6-0.3c0.066-0.1,0.05-0.217-0.05-0.35
			c-0.133-0.1-0.267-0.117-0.4-0.05C0.017-0.633-0.033-0.567,0-0.5c0.1,0.1,0.167,0.217,0.2,0.35C0.3,0.017,0.433-0.033,0.6-0.3z"/>
	</g>
</symbol>
<symbol  id="flash0.ai_x5F_3_x2F_Layer_3_x2F__x3C_Path_x3E__x5F_20" viewBox="-0.02 -2.8 1.074 2.828">
	<g id="Layer_1_4_">
		<path style="fill-rule:evenodd;clip-rule:evenodd;fill:#FFFFFF;" d="M0.95-0.35c0.167-0.6,0.133-1.217-0.1-1.85
			C0.717-2.567,0.533-2.767,0.3-2.8C0.033-2.8-0.067-2.717,0-2.55l0.5,2.4C0.533,0.017,0.6,0.067,0.7,0
			C0.833-0.033,0.917-0.15,0.95-0.35z"/>
	</g>
</symbol>
<symbol  id="flash0.ai_x5F_3_x2F_Layer_3_x2F__x3C_Path_x3E__x5F_3" viewBox="0.04 -0.914 0.97 0.877">
	<g id="Layer_1_21_">
		<path style="fill-rule:evenodd;clip-rule:evenodd;fill:#FFFFFF;" d="M1-0.2C0.933-0.4,0.817-0.583,0.65-0.75
			c-0.2-0.2-0.333-0.217-0.4-0.05c-0.1,0.233-0.167,0.383-0.2,0.45c-0.033,0.1,0.017,0.167,0.15,0.2C0.8,0.017,1.067,0,1-0.2z"/>
	</g>
</symbol>
<symbol  id="flash0.ai_x5F_3_x2F_Layer_3_x2F__x3C_Path_x3E__x5F_4" viewBox="0.017 -0.8 0.883 0.8">
	<g id="Layer_1_20_">
		<path style="fill-rule:evenodd;clip-rule:evenodd;fill:#FFFFFF;" d="M0.35,0C0.717,0,0.9-0.067,0.9-0.2
			C0.867-0.267,0.783-0.4,0.65-0.6C0.617-0.733,0.567-0.8,0.5-0.8L0.15-0.65C0.017-0.617-0.017-0.5,0.05-0.3
			C0.083-0.1,0.183,0,0.35,0z"/>
	</g>
</symbol>
<symbol  id="flash0.ai_x5F_3_x2F_Layer_3_x2F__x3C_Path_x3E__x5F_5" viewBox="-0.014 -0.417 0.528 0.423">
	<g id="Layer_1_19_">
		<path style="fill-rule:evenodd;clip-rule:evenodd;fill:#FFFFFF;" d="M0.4-0.05c0.133-0.1,0.15-0.2,0.05-0.3
			C0.35-0.417,0.233-0.433,0.1-0.4s-0.15,0.117-0.05,0.25C0.15,0.017,0.267,0.05,0.4-0.05z"/>
	</g>
</symbol>
<symbol  id="flash0.ai_x5F_3_x2F_Layer_3_x2F__x3C_Path_x3E__x5F_6" viewBox="-0.014 -0.63 0.839 0.62">
	<g id="Layer_1_18_">
		<path style="fill-rule:evenodd;clip-rule:evenodd;fill:#FFFFFF;" d="M0.6-0.05c0.2-0.167,0.267-0.333,0.2-0.5
			c-0.066-0.133-0.3-0.1-0.7,0.1c-0.167,0.1-0.15,0.217,0.05,0.35C0.317,0,0.467,0.017,0.6-0.05z"/>
	</g>
</symbol>
<symbol  id="flash0.ai_x5F_3_x2F_Layer_3_x2F__x3C_Path_x3E__x5F_7" viewBox="-0.014 -1.206 1.12 1.212">
	<g id="Layer_1_17_">
		<path style="fill-rule:evenodd;clip-rule:evenodd;fill:#FFFFFF;" d="M0.85-0.4C1.017-0.467,1.1-0.6,1.1-0.8
			c0.033-0.233-0.083-0.367-0.35-0.4C0.45-1.233,0.233-1.117,0.1-0.85c-0.133,0.233-0.15,0.467-0.05,0.7
			c0.067,0.167,0.15,0.2,0.25,0.1C0.567-0.25,0.75-0.367,0.85-0.4z"/>
	</g>
</symbol>
<symbol  id="flash0.ai_x5F_3_x2F_Layer_3_x2F__x3C_Path_x3E__x5F_8" viewBox="-0.025 -1.956 1.407 1.947">
	<g id="Layer_1_16_">
		<path style="fill-rule:evenodd;clip-rule:evenodd;fill:#FFFFFF;" d="M1.35-0.65c0.1-0.667-0.033-1.083-0.4-1.25
			C0.683-2,0.4-1.967,0.1-1.8c-0.167,0.066-0.167,0.267,0,0.6c0.267,0.5,0.417,0.8,0.45,0.9C0.617-0.033,0.767,0.05,1-0.05
			C1.2-0.117,1.317-0.317,1.35-0.65z"/>
	</g>
</symbol>
<symbol  id="flash0.ai_x5F_3_x2F_Layer_3_x2F__x3C_Path_x3E__x5F_9" viewBox="-0.022 -0.941 0.545 0.954">
	<g id="Layer_1_15_">
		<path style="fill-rule:evenodd;clip-rule:evenodd;fill:#FFFFFF;" d="M0.5-0.15C0.567-0.55,0.483-0.8,0.25-0.9S-0.067-0.917,0-0.65
			C0.033-0.417,0.117-0.233,0.25-0.1C0.383,0.067,0.467,0.05,0.5-0.15z"/>
	</g>
</symbol>
<symbol  id="flash0.ai_x5F_3_x2F_Layer_3_x2F_Compound_Shape" viewBox="0 -22.9 46.862 22.906">
	<g id="Layer_1_26_">
		
			<use xlink:href="#flash0.ai_x5F_3_x2F_Layer_3_x2F__x3C_Group_x3E_"  width="46.862" height="22.906" y="-22.9" style="overflow:visible;opacity:0.5195;enable-background:new    ;"/>
	</g>
</symbol>
<path style="fill-rule:evenodd;clip-rule:evenodd;fill:#ACC73E;" d="M79.523,9.906c0.65,2.057,0.108,3.762-1.624,5.115l-0.405,0.244
	c-0.487,0.487-1.056,0.92-1.705,1.299c-1.949,1.299-3.33,1.759-4.142,1.38l-0.568-0.974l1.948-1.624
	c1.029-1.354,0.84-2.815-0.568-4.385c-0.812-0.866-1.461-1.57-1.948-2.111c-0.866-1.083-1.38-2.003-1.543-2.761
	c-0.162-0.596-0.216-1.109-0.162-1.543c0.108-1.461,0.947-2.625,2.518-3.492c0.757-0.433,1.515-0.73,2.273-0.893
	c-0.379,0.433-0.678,0.947-0.894,1.542c-0.379,1.137-0.108,2.112,0.812,2.924c0.434,0.433,1.083,0.812,1.949,1.136
	C77.521,6.523,78.873,7.903,79.523,9.906z"/>
<path style="fill-rule:evenodd;clip-rule:evenodd;fill:#9DB536;" d="M77.737,9.175c-0.271-0.541-1.326-1.353-3.166-2.436
	c-1.733-0.975-2.681-1.976-2.843-3.004c-0.215-1.125,0.395-2.303,1.827-3.532c-0.888,0.804-1.173,1.819-0.853,3.045
	c0.271,1.137,1.434,2.057,3.492,2.761c2.327,0.757,3.49,2.436,3.49,5.034c0.056,2.382-1.299,4.25-4.06,5.603l-1.867,1.137v-0.245
	l1.948-1.379c1.354-0.921,2.166-2.085,2.437-3.492C78.413,11.53,78.278,10.366,77.737,9.175z"/>
<path style="fill-rule:evenodd;clip-rule:evenodd;fill:#91AD24;" d="M95.276,3.167C95.871,2.571,96.062,1.515,95.844,0l0.163,0.731
	c0.434,1.84,0.541,3.681,0.324,5.521c-0.379,2.869-1.542,5.006-3.491,6.414l-0.649,0.406c-3.031,1.679-6.225,2.978-9.581,3.898
	c-4.06,1.082-6.659,1.082-7.795,0c-0.163-0.109-0.353-0.379-0.568-0.812c-0.271-0.867-0.109-1.922,0.486-3.167
	c0.542-1.299,1.407-2.517,2.599-3.654c0.487-0.487,1.137-1.001,1.948-1.543c1.354-0.812,2.491-1.379,3.411-1.705
	c1.028-0.325,2.165-0.515,3.41-0.568c0.704-0.054,1.678-0.054,2.923,0c1.244,0.054,2.247-0.054,3.005-0.325
	C93.165,4.872,94.247,4.195,95.276,3.167z"/>
<path style="fill-rule:evenodd;clip-rule:evenodd;fill:#849E21;" d="M92.84,7.47c-1.244,1.028-2.896,1.516-4.952,1.461
	c-0.976,0-1.896,0.163-2.761,0.487c-0.813,0.325-1.382,0.704-1.705,1.137l-0.65,0.812l1.624,0.406c1.353,0.217,2.761,0.217,4.222,0
	c2.274-0.325,4.169-1.001,5.684-2.03c-2.436,2.599-5.251,4.412-8.443,5.44c-2.003,0.596-4.438,0.893-7.308,0.893l-3.735-0.244
	c0.324-1.624,0.676-2.842,1.056-3.654c0.379-0.866,0.92-1.705,1.624-2.517c1.028-1.083,2.191-1.732,3.491-1.949
	c-0.649,0.487-1.244,1.001-1.787,1.543c-1.137,1.083-1.515,1.867-1.137,2.354c0.379,0.488,1.083,0.433,2.112-0.162
	c0.595-0.325,1.651-1.056,3.165-2.192c0.922-0.65,2.003-1.001,3.248-1.056c0.704-0.054,1.787-0.081,3.248-0.081
	c2.003-0.163,3.411-0.92,4.224-2.273C93.841,6.387,93.435,6.929,92.84,7.47z"/>
<path style="fill-rule:evenodd;clip-rule:evenodd;fill:#809426;" d="M79.442,12.911c6.063,0.324,10.258-0.216,12.586-1.624
	c2.219-1.246,3.546-3.464,3.979-6.658c0.216-1.624,0.216-3.113,0-4.466c0.487,2.057,0.568,4.195,0.243,6.414
	c-0.704,4.385-3.167,6.902-7.389,7.552c-2.165,0.378-4.385,0.297-6.657-0.244L79.442,12.911z"/>
<path style="fill-rule:evenodd;clip-rule:evenodd;fill:#758723;" d="M91.217,19.244c-1.138,0.487-2.409,0.73-3.817,0.73
	c-1.191,0.055-3.816-0.487-7.876-1.624c-2.706-0.757-4.683-0.351-5.927,1.218c-0.596,0.758-0.948,0.379-1.056-1.136v-2.518
	l0.73-0.649c0.758-0.649,1.489-1.164,2.192-1.542c1.461-0.867,2.869-1.38,4.222-1.543c1.68-0.271,3.79-0.189,6.334,0.243
	c2.598,0.379,4.573,0.488,5.928,0.325c1.027-0.163,1.921-0.515,2.679-1.055c1.137-0.812,1.841-1.813,2.11-3.004
	c0.38,1.299,0.353,2.733-0.08,4.303c-0.108,0.433-0.189,0.947-0.243,1.543c-0.163,0.541-0.65,1.299-1.462,2.273
	c-0.433,0.649-1.001,1.164-1.705,1.542L91.217,19.244z"/>
<path style="fill-rule:evenodd;clip-rule:evenodd;fill:#9BB32E;" d="M86.02,12.423c2.598,0.379,4.573,0.488,5.928,0.325
	c1.027-0.163,1.921-0.515,2.679-1.055c1.137-0.812,1.841-1.813,2.11-3.004l0.083-0.325c0.054-0.054,0.107,0.163,0.162,0.649
	c-0.325,1.028-1.191,2.192-2.598,3.492c-0.868,0.812-2.788,1.082-5.767,0.812c-4.547-0.379-6.929-0.569-7.145-0.569
	c-1.462,0.054-3.06,0.46-4.791,1.218c-1.57,0.703-2.95,1.542-4.141,2.517v-0.568l0.73-0.649c0.758-0.649,1.489-1.164,2.192-1.542
	c1.461-0.867,2.869-1.38,4.222-1.543C81.365,11.909,83.476,11.99,86.02,12.423z"/>
<path style="fill-rule:evenodd;clip-rule:evenodd;fill:#EBE6AE;" d="M75.139,17.62l1.057,2.111c0.812,2.003,1.028,4.033,0.649,6.089
	c-0.434,2.545-1.138,4.521-2.112,5.928c-0.865,1.19-2.544,2.707-5.033,4.547c-2.491,1.841-5.116,3.248-7.877,4.223l-4.385,1.461
	c-1.245,0.433-3.004,1.164-5.277,2.193c-2.22,0.974-3.897,1.65-5.035,2.029c-1.786,0.541-3.464,0.894-5.034,1.055
	c-5.576,0.489-8.607,0.731-9.094,0.731c-3.897,0.163-7.741-0.027-11.53-0.567c-4.385-0.704-8.661-2.247-12.829-4.63
	c-3.14-1.785-5.468-3.328-6.984-4.627C0.14,36.81-0.32,35.89,0.275,35.401h0.081l0.244-0.08c0.163,0.054,0.488,0.297,0.975,0.73
	c0.758,0.541,1.678,1.002,2.761,1.38c0.108,0.055,0.596,0.108,1.461,0.162c0.92,0.109,1.624,0.217,2.111,0.325
	c2.057,0.541,3.979,0.569,5.766,0.081c0.596-0.162,1.624-0.216,3.085-0.162c1.353,0.055,2.409-0.054,3.166-0.324
	c0.596-0.217,2.112-0.542,4.548-0.975c2.219-0.379,3.681-0.759,4.384-1.138c0.596-0.324,2.03-0.92,4.304-1.785
	c2.273-0.921,3.924-1.652,4.953-2.192c2.815-1.462,4.953-3.086,6.415-4.872c0.757-0.975,1.569-2.22,2.436-3.736
	c1.245-1.569,3.14-3.681,5.684-6.333c1.299-1.299,2.246-2.192,2.842-2.679c3.193-2.49,6.333-3.438,9.419-2.842
	C69.455,11.72,72.865,13.939,75.139,17.62z"/>
<path style="fill-rule:evenodd;clip-rule:evenodd;fill:#DCD490;" d="M71.729,29.068c2.003-2.436,3.193-4.709,3.572-6.82
	c0.271-1.624,0-3.464-0.812-5.522l0.649,0.894l1.057,2.111c0.812,2.003,1.028,4.033,0.649,6.089
	c-0.434,2.545-1.138,4.521-2.112,5.928c-0.865,1.19-2.544,2.707-5.033,4.547c-2.491,1.841-5.116,3.248-7.877,4.223l-4.385,1.461
	c-1.245,0.433-3.004,1.164-5.277,2.193c-2.22,0.974-3.897,1.65-5.035,2.029c-1.786,0.541-3.464,0.894-5.034,1.055
	c-5.576,0.489-8.607,0.731-9.094,0.731c-3.897,0.163-7.741-0.027-11.53-0.567c-4.385-0.704-8.661-2.247-12.829-4.63
	c-3.14-1.785-5.468-3.328-6.984-4.627C0.14,36.81-0.32,35.89,0.275,35.401c0.108,0.759,0.514,1.408,1.218,1.949
	c0.433,0.379,1.38,0.893,2.842,1.543l9.013,4.141c1.299,0.595,3.735,1.057,7.308,1.38c3.464,0.325,5.603,0.325,6.415,0
	c1.028-0.433,3.735-0.621,8.12-0.567l0.812,0.325c0.433,0.161,2.625-0.163,6.577-0.976c4.006-0.812,6.252-1.406,6.74-1.785
	c0.595-0.487,1.948-1.272,4.06-2.355c2.382-1.19,4.249-1.948,5.603-2.273c1.948-0.541,4.006-1.381,6.171-2.517
	C67.967,32.695,70.159,30.964,71.729,29.068z"/>
<use xlink:href="#flash0.ai_x5F_3_x2F_Layer_2_x2F__x3C_Path_x3E__x5F_1"  width="36.4" height="18.08" y="-18.091" transform="matrix(1.6239 0 0 -1.6239 9.2998 12.1001)" style="overflow:visible;opacity:0.4492;enable-background:new    ;"/>
<use xlink:href="#flash0.ai_x5F_3_x2F_Layer_2_x2F__x3C_Path_x3E_"  width="27.917" height="16.239" x="0.035" y="-16.233" transform="matrix(1.6239 0 0 -1.6239 20.75 13.25)" style="overflow:visible;opacity:0.5391;enable-background:new    ;"/>
<use xlink:href="#flash0.ai_x5F_3_x2F_Layer_3_x2F__x3C_Path_x3E__x5F_20"  width="1.074" height="2.828" x="-0.02" y="-2.8" transform="matrix(1.6239 0 0 -1.6239 68.25 31.9004)" style="overflow:visible;opacity:0.5195;enable-background:new    ;"/>
<use xlink:href="#flash0.ai_x5F_3_x2F_Layer_3_x2F__x3C_Path_x3E__x5F_19"  width="0.872" height="1.808" x="0.037" y="-1.804" transform="matrix(1.6239 0 0 -1.6239 70.0498 29.5498)" style="overflow:visible;opacity:0.5195;enable-background:new    ;"/>
<use xlink:href="#flash0.ai_x5F_3_x2F_Layer_3_x2F__x3C_Path_x3E__x5F_18"  width="0.606" height="0.934" x="-0.006" y="-0.93" transform="matrix(1.6239 0 0 -1.6239 70.5996 32.7998)" style="overflow:visible;opacity:0.5195;enable-background:new    ;"/>
<use xlink:href="#flash0.ai_x5F_3_x2F_Layer_3_x2F__x3C_Path_x3E__x5F_17"  width="1.157" height="2.03" x="0.01" y="-2.003" transform="matrix(1.6239 0 0 -1.6239 71 23.4502)" style="overflow:visible;opacity:0.5195;enable-background:new    ;"/>
<use xlink:href="#flash0.ai_x5F_3_x2F_Layer_3_x2F__x3C_Path_x3E__x5F_16"  width="0.775" height="1.013" y="-0.988" transform="matrix(1.6239 0 0 -1.6239 69.2998 25.0996)" style="overflow:visible;opacity:0.5195;enable-background:new    ;"/>
<use xlink:href="#flash0.ai_x5F_3_x2F_Layer_3_x2F__x3C_Path_x3E__x5F_15"  width="1.088" height="2.473" x="0.062" y="-2.461" transform="matrix(1.6239 0 0 -1.6239 58.6504 34.9004)" style="overflow:visible;opacity:0.5195;enable-background:new    ;"/>
<use xlink:href="#flash0.ai_x5F_3_x2F_Layer_3_x2F__x3C_Path_x3E__x5F_14"  width="0.826" height="0.797" x="0.01" y="-0.79" transform="matrix(1.6239 0 0 -1.6239 58.0996 39.4004)" style="overflow:visible;opacity:0.5195;enable-background:new    ;"/>
<use xlink:href="#flash0.ai_x5F_3_x2F_Layer_3_x2F__x3C_Path_x3E__x5F_13"  width="0.912" height="2.481" x="-0.012" y="-2.503" transform="matrix(1.6239 0 0 -1.6239 54.7998 35.2998)" style="overflow:visible;opacity:0.5195;enable-background:new    ;"/>
<use xlink:href="#flash0.ai_x5F_3_x2F_Layer_3_x2F__x3C_Path_x3E__x5F_12"  width="0.863" height="0.678" x="-0.025" y="-0.679" transform="matrix(1.6239 0 0 -1.6239 56.0996 39.4004)" style="overflow:visible;opacity:0.5195;enable-background:new    ;"/>
<use xlink:href="#flash0.ai_x5F_3_x2F_Layer_3_x2F__x3C_Path_x3E__x5F_11"  width="1.155" height="2.428" y="-2.388" transform="matrix(1.6239 0 0 -1.6239 45.1001 39.5996)" style="overflow:visible;opacity:0.5195;enable-background:new    ;"/>
<use xlink:href="#flash0.ai_x5F_3_x2F_Layer_3_x2F__x3C_Path_x3E__x5F_10"  width="1.277" height="2.031" x="0.012" y="-2.055" transform="matrix(1.6239 0 0 -1.6239 42.75 42.6504)" style="overflow:visible;opacity:0.5195;enable-background:new    ;"/>
<use xlink:href="#flash0.ai_x5F_3_x2F_Layer_3_x2F__x3C_Path_x3E__x5F_9"  width="0.545" height="0.954" x="-0.022" y="-0.941" transform="matrix(1.6239 0 0 -1.6239 42.1001 40.2002)" style="overflow:visible;opacity:0.5195;enable-background:new    ;"/>
<use xlink:href="#flash0.ai_x5F_3_x2F_Layer_3_x2F__x3C_Path_x3E__x5F_8"  width="1.407" height="1.947" x="-0.025" y="-1.956" transform="matrix(1.6239 0 0 -1.6239 30.8999 42.1504)" style="overflow:visible;opacity:0.5195;enable-background:new    ;"/>
<use xlink:href="#flash0.ai_x5F_3_x2F_Layer_3_x2F__x3C_Path_x3E__x5F_7"  width="1.12" height="1.212" x="-0.014" y="-1.206" transform="matrix(1.6239 0 0 -1.6239 29.0498 45.6504)" style="overflow:visible;opacity:0.5195;enable-background:new    ;"/>
<use xlink:href="#flash0.ai_x5F_3_x2F_Layer_3_x2F__x3C_Path_x3E__x5F_6"  width="0.839" height="0.62" x="-0.014" y="-0.63" transform="matrix(1.6239 0 0 -1.6239 26.4502 46.5996)" style="overflow:visible;opacity:0.5195;enable-background:new    ;"/>
<use xlink:href="#flash0.ai_x5F_3_x2F_Layer_3_x2F__x3C_Path_x3E__x5F_5"  width="0.528" height="0.423" x="-0.014" y="-0.417" transform="matrix(1.6239 0 0 -1.6239 27.6001 45.7998)" style="overflow:visible;opacity:0.5195;enable-background:new    ;"/>
<use xlink:href="#flash0.ai_x5F_3_x2F_Layer_3_x2F__x3C_Path_x3E__x5F_4"  width="0.883" height="0.8" x="0.017" y="-0.8" transform="matrix(1.6239 0 0 -1.6239 27.75 43.3496)" style="overflow:visible;opacity:0.5195;enable-background:new    ;"/>
<use xlink:href="#flash0.ai_x5F_3_x2F_Layer_3_x2F__x3C_Path_x3E__x5F_3"  width="0.97" height="0.877" x="0.04" y="-0.914" transform="matrix(1.6239 0 0 -1.6239 19.3501 44.4004)" style="overflow:visible;opacity:0.5195;enable-background:new    ;"/>
<use xlink:href="#flash0.ai_x5F_3_x2F_Layer_3_x2F__x3C_Path_x3E__x5F_2"  width="0.65" height="0.686" x="-0.01" y="-0.74" transform="matrix(1.6239 0 0 -1.6239 18.25 45.0498)" style="overflow:visible;opacity:0.5195;enable-background:new    ;"/>
<use xlink:href="#flash0.ai_x5F_3_x2F_Layer_3_x2F__x3C_Path_x3E__x5F_1"  width="0.695" height="0.805" x="0" y="-0.8" transform="matrix(1.6239 0 0 -1.6239 17.1001 43.4502)" style="overflow:visible;opacity:0.5195;enable-background:new    ;"/>
<use xlink:href="#flash0.ai_x5F_3_x2F_Layer_3_x2F__x3C_Path_x3E_"  width="0.903" height="0.679" x="-0.03" y="-0.689" transform="matrix(1.6239 0 0 -1.6239 11.1001 42.7998)" style="overflow:visible;opacity:0.5195;enable-background:new    ;"/>
<use xlink:href="#flash0.ai_x5F_3_x2F_Layer_3_x2F_Compound_Shape"  width="46.862" height="22.906" y="-22.9" transform="matrix(1.6239 0 0 -1.6239 0.9502 10.7998)" style="overflow:visible;opacity:0.5195;enable-background:new    ;"/>
</svg>
