<?xml version="1.0" encoding="iso-8859-1"?>
<!-- Generator: Adobe Illustrator 15.1.0, SVG Export Plug-In . SVG Version: 6.00 Build 0)  -->
<!DOCTYPE svg PUBLIC "-//W3C//DTD SVG 1.1//EN" "http://www.w3.org/Graphics/SVG/1.1/DTD/svg11.dtd">
<svg version="1.1" id="flash0.ai" xmlns="http://www.w3.org/2000/svg" xmlns:xlink="http://www.w3.org/1999/xlink" x="0px" y="0px"
	 width="90.05px" height="29.8px" viewBox="0 0 90.05 29.8" style="enable-background:new 0 0 90.05 29.8;" xml:space="preserve">
<g>
	
		<linearGradient id="SVGID_1_" gradientUnits="userSpaceOnUse" x1="28.0908" y1="42.9199" x2="48.2414" y2="42.9199" gradientTransform="matrix(0.7436 -0.5069 0.5069 0.7436 0.3001 0.4501)">
		<stop  offset="0" style="stop-color:#FFFFFF"/>
		<stop  offset="1" style="stop-color:#B6DAF0"/>
	</linearGradient>
	<path style="fill-rule:evenodd;clip-rule:evenodd;fill:url(#SVGID_1_);" d="M44.714,24.3c-10.53,0-19.02-1.125-25.47-3.375
		c-3.24-1.14-5.43-2.279-6.57-3.42c1.89-0.27,4.275-1.319,7.155-3.149c5.28-3.36,8.34-5.265,9.18-5.715
		c5.01-2.73,9.33-5.46,12.959-8.19l3.419,2.205c3.391,2.07,7.921,4.515,13.591,7.335c5.939,2.97,10.949,5.7,15.03,8.19
		c-1.261,1.02-3.421,2.039-6.48,3.059C61.41,23.279,53.805,24.3,44.714,24.3z"/>
	
		<linearGradient id="SVGID_2_" gradientUnits="userSpaceOnUse" x1="-0.5752" y1="24.1094" x2="0.6313" y2="24.1094" gradientTransform="matrix(0.746 -0.5035 0.5035 0.746 0.2994 0.4501)">
		<stop  offset="0" style="stop-color:#D6E6FF"/>
		<stop  offset="1" style="stop-color:#94BDD4"/>
	</linearGradient>
	<path style="fill-rule:evenodd;clip-rule:evenodd;fill:url(#SVGID_2_);" d="M12.99,17.505c1.08,1.229,0.99,1.935-0.27,2.115
		c-1.38,0.18-2.16-0.045-2.34-0.675c-0.15-0.45,0.15-0.9,0.9-1.351C12.06,17.115,12.63,17.085,12.99,17.505z"/>
	
		<linearGradient id="SVGID_3_" gradientUnits="userSpaceOnUse" x1="-5.1855" y1="22.8066" x2="-3.9791" y2="22.8066" gradientTransform="matrix(0.746 -0.5035 0.5035 0.746 0.2994 0.4501)">
		<stop  offset="0" style="stop-color:#D6E6FF"/>
		<stop  offset="1" style="stop-color:#94BDD4"/>
	</linearGradient>
	<path style="fill-rule:evenodd;clip-rule:evenodd;fill:url(#SVGID_3_);" d="M8.31,19.125c1.65,0.601,1.89,1.095,0.72,1.485
		c-1.26,0.419-2.13,0.404-2.61-0.046c-0.33-0.329-0.209-0.705,0.36-1.125C7.35,19.051,7.86,18.945,8.31,19.125z"/>
	
		<linearGradient id="SVGID_4_" gradientUnits="userSpaceOnUse" x1="-12.229" y1="19.2432" x2="-11.6187" y2="19.2432" gradientTransform="matrix(0.7373 -0.5161 0.5161 0.7373 0.2994 0.4502)">
		<stop  offset="0" style="stop-color:#D6E6FF"/>
		<stop  offset="1" style="stop-color:#94BDD4"/>
	</linearGradient>
	<path style="fill-rule:evenodd;clip-rule:evenodd;fill:url(#SVGID_4_);" d="M1.02,20.564c0.3,0.15,0.706,0.331,1.215,0.541
		c0.24,0.119-0.015,0.18-0.765,0.18c-0.81,0-1.2-0.165-1.17-0.495C0.33,20.4,0.57,20.325,1.02,20.564z"/>
	
		<linearGradient id="SVGID_5_" gradientUnits="userSpaceOnUse" x1="-0.9497" y1="27.9668" x2="-0.0483" y2="27.9668" gradientTransform="matrix(0.7488 -0.4992 0.4992 0.7488 0.2999 0.4501)">
		<stop  offset="0" style="stop-color:#D6E6FF"/>
		<stop  offset="1" style="stop-color:#94BDD4"/>
	</linearGradient>
	<path style="fill-rule:evenodd;clip-rule:evenodd;fill:url(#SVGID_5_);" d="M13.89,21.15c1.08,0.39,1.365,0.72,0.855,0.989
		c-0.48,0.271-1.11,0.33-1.89,0.181c-0.63-0.12-0.735-0.391-0.315-0.81C12.96,21.09,13.41,20.97,13.89,21.15z"/>
	
		<linearGradient id="SVGID_6_" gradientUnits="userSpaceOnUse" x1="3.3384" y1="28.1191" x2="3.7891" y2="28.1191" gradientTransform="matrix(0.7488 -0.4992 0.4992 0.7488 0.2999 0.4501)">
		<stop  offset="0" style="stop-color:#D6E6FF"/>
		<stop  offset="1" style="stop-color:#94BDD4"/>
	</linearGradient>
	<path style="fill-rule:evenodd;clip-rule:evenodd;fill:url(#SVGID_6_);" d="M16.95,19.53c0.6,0.09,0.765,0.255,0.495,0.495
		c-0.299,0.239-0.615,0.27-0.945,0.089c-0.3-0.149-0.405-0.284-0.315-0.404C16.275,19.561,16.53,19.5,16.95,19.53z"/>
	
		<linearGradient id="SVGID_7_" gradientUnits="userSpaceOnUse" x1="4.105" y1="30.6045" x2="4.4655" y2="30.6045" gradientTransform="matrix(0.7488 -0.4992 0.4992 0.7488 0.2994 0.4501)">
		<stop  offset="0" style="stop-color:#D6E6FF"/>
		<stop  offset="1" style="stop-color:#94BDD4"/>
	</linearGradient>
	<path style="fill-rule:evenodd;clip-rule:evenodd;fill:url(#SVGID_7_);" d="M18.75,21.105c0.69,0.18,0.555,0.3-0.405,0.359
		c-0.18-0.03-0.21-0.104-0.09-0.226C18.375,21.12,18.54,21.075,18.75,21.105z"/>
	
		<linearGradient id="SVGID_8_" gradientUnits="userSpaceOnUse" x1="9.3369" y1="38.1084" x2="11.3687" y2="38.1084" gradientTransform="matrix(0.742 -0.5094 0.5094 0.742 0.2991 0.4495)">
		<stop  offset="0" style="stop-color:#D6E6FF"/>
		<stop  offset="1" style="stop-color:#94BDD4"/>
	</linearGradient>
	<path style="fill-rule:evenodd;clip-rule:evenodd;fill:url(#SVGID_8_);" d="M28.245,22.86c0.87,0.119,1.29,0.495,1.26,1.125
		c-0.03,0.33-0.075,0.72-0.135,1.17c0.21,0.18,0,0.314-0.63,0.405c-0.57,0.09-1.11,0.09-1.62,0c-0.36-0.061-0.615-0.226-0.765-0.496
		c-0.15-0.3-0.285-0.479-0.405-0.539c-0.63-0.121-1.41-0.405-2.34-0.855c-0.629-0.3-0.645-0.585-0.044-0.855
		c0.6-0.239,1.125-0.27,1.575-0.09c0.18,0.061,0.495,0.075,0.945,0.045C26.715,22.74,27.435,22.77,28.245,22.86z"/>
	
		<linearGradient id="SVGID_9_" gradientUnits="userSpaceOnUse" x1="6.2319" y1="36.8906" x2="7.1126" y2="36.8906" gradientTransform="matrix(0.7409 -0.511 0.511 0.7409 0.3 0.45)">
		<stop  offset="0" style="stop-color:#D6E6FF"/>
		<stop  offset="1" style="stop-color:#94BDD4"/>
	</linearGradient>
	<path style="fill-rule:evenodd;clip-rule:evenodd;fill:url(#SVGID_9_);" d="M24.375,24.21c0.63,0.149,0.885,0.315,0.765,0.495
		c-0.12,0.149-0.42,0.255-0.9,0.314c-0.45,0.061-0.765,0.076-0.945,0.045c-0.24-0.029-0.48-0.149-0.72-0.359
		c-0.24-0.24-0.09-0.405,0.45-0.495C23.535,24.12,23.985,24.12,24.375,24.21z"/>
	
		<linearGradient id="SVGID_10_" gradientUnits="userSpaceOnUse" x1="2.8101" y1="23.5996" x2="3.7461" y2="23.5996" gradientTransform="matrix(0.7451 -0.5048 0.5048 0.7451 0.3 0.45)">
		<stop  offset="0" style="stop-color:#D6E6FF"/>
		<stop  offset="1" style="stop-color:#94BDD4"/>
	</linearGradient>
	<path style="fill-rule:evenodd;clip-rule:evenodd;fill:url(#SVGID_10_);" d="M15.645,16.695c-0.63,0.3-1.17,0.42-1.62,0.36
		c-0.81-0.061-1.125-0.15-0.945-0.271c0.12-0.239,0.255-0.435,0.405-0.585c0.3-0.27,0.705-0.346,1.215-0.226
		C15.479,16.155,15.795,16.396,15.645,16.695z"/>
	
		<linearGradient id="SVGID_11_" gradientUnits="userSpaceOnUse" x1="-2.6558" y1="23.2549" x2="-2.1703" y2="23.2549" gradientTransform="matrix(0.7416 -0.5099 0.5099 0.7416 0.2997 0.4501)">
		<stop  offset="0" style="stop-color:#D6E6FF"/>
		<stop  offset="1" style="stop-color:#94BDD4"/>
	</linearGradient>
	<path style="fill-rule:evenodd;clip-rule:evenodd;fill:url(#SVGID_11_);" d="M10.83,19.306c-0.12,0.18-0.36,0.255-0.72,0.225
		c-0.24-0.03-0.405-0.136-0.495-0.315c-0.09-0.149-0.09-0.3,0-0.45c0.09-0.21,0.39-0.27,0.9-0.18
		C10.725,18.615,10.83,18.855,10.83,19.306z"/>
	
		<linearGradient id="SVGID_12_" gradientUnits="userSpaceOnUse" x1="-6.7012" y1="23.0049" x2="-5.9246" y2="23.0049" gradientTransform="matrix(0.7533 -0.4925 0.4925 0.7533 0.2996 0.4499)">
		<stop  offset="0" style="stop-color:#D6E6FF"/>
		<stop  offset="1" style="stop-color:#94BDD4"/>
	</linearGradient>
	<path style="fill-rule:evenodd;clip-rule:evenodd;fill:url(#SVGID_12_);" d="M7.77,21.061c-0.3,0.329-0.735,0.495-1.305,0.495
		c-0.36,0-0.645-0.061-0.855-0.181L5.43,21.15c0.089-0.09,0.194-0.195,0.314-0.315c0.24-0.21,0.465-0.3,0.675-0.271
		C7.14,20.625,7.59,20.79,7.77,21.061z"/>
	
		<linearGradient id="SVGID_13_" gradientUnits="userSpaceOnUse" x1="-9.9658" y1="20.7969" x2="-9.5705" y2="20.7969" gradientTransform="matrix(0.74 -0.5123 0.5123 0.74 0.2999 0.4499)">
		<stop  offset="0" style="stop-color:#D6E6FF"/>
		<stop  offset="1" style="stop-color:#94BDD4"/>
	</linearGradient>
	<path style="fill-rule:evenodd;clip-rule:evenodd;fill:url(#SVGID_13_);" d="M3.9,20.7c0.39,0,0.39,0.12,0,0.36
		c-0.39,0.21-0.645,0.24-0.765,0.09c-0.12-0.121-0.075-0.226,0.135-0.315C3.42,20.745,3.63,20.7,3.9,20.7z"/>
	
		<linearGradient id="SVGID_14_" gradientUnits="userSpaceOnUse" x1="-4.3823" y1="26.5918" x2="-3.6612" y2="26.5918" gradientTransform="matrix(0.7488 -0.4992 0.4992 0.7488 0.2994 0.4501)">
		<stop  offset="0" style="stop-color:#D6E6FF"/>
		<stop  offset="1" style="stop-color:#94BDD4"/>
	</linearGradient>
	<path style="fill-rule:evenodd;clip-rule:evenodd;fill:url(#SVGID_14_);" d="M10.605,22.186c0.48,0.06,0.72,0.164,0.72,0.314
		c0,0.12-0.165,0.225-0.495,0.314c-0.75,0.24-1.245,0.24-1.485,0c-0.15-0.179-0.075-0.345,0.225-0.494
		C9.87,22.171,10.215,22.125,10.605,22.186z"/>
	
		<linearGradient id="SVGID_15_" gradientUnits="userSpaceOnUse" x1="1.7495" y1="34.5791" x2="2.8105" y2="34.5791" gradientTransform="matrix(0.7423 -0.509 0.509 0.7423 0.3001 0.4502)">
		<stop  offset="0" style="stop-color:#D6E6FF"/>
		<stop  offset="1" style="stop-color:#94BDD4"/>
	</linearGradient>
	<path style="fill-rule:evenodd;clip-rule:evenodd;fill:url(#SVGID_15_);" d="M19.83,24.614c0.959,0.121,1.23,0.421,0.81,0.9
		c-0.45,0.511-1.17,0.585-2.16,0.225c-0.96-0.329-1.17-0.629-0.63-0.899C18.36,24.6,19.02,24.525,19.83,24.614z"/>
	
		<linearGradient id="SVGID_16_" gradientUnits="userSpaceOnUse" x1="19.7109" y1="46.8535" x2="22.8591" y2="46.8535" gradientTransform="matrix(0.7433 -0.5074 0.5074 0.7433 0.3003 0.4501)">
		<stop  offset="0" style="stop-color:#D6E6FF"/>
		<stop  offset="1" style="stop-color:#94BDD4"/>
	</linearGradient>
	<path style="fill-rule:evenodd;clip-rule:evenodd;fill:url(#SVGID_16_);" d="M37.469,26.46c-1.05,0-1.92-0.165-2.61-0.495
		c-0.57-0.27-0.81-0.54-0.72-0.81c0.15-0.42,0.345-0.766,0.585-1.035c0.3-0.33,0.78-0.69,1.44-1.08
		c0.69-0.39,1.575-0.495,2.655-0.315c0.9,0.15,1.74,0.45,2.52,0.9c0.63,0.36,1.23,0.796,1.8,1.306
		c0.511,0.449,0.766,0.72,0.766,0.809c0,0.091-0.781,0.226-2.341,0.405C39.915,26.354,38.549,26.46,37.469,26.46z"/>
	
		<linearGradient id="SVGID_17_" gradientUnits="userSpaceOnUse" x1="23.519" y1="51.2832" x2="25.9113" y2="51.2832" gradientTransform="matrix(0.743 -0.5079 0.5079 0.743 0.2998 0.4506)">
		<stop  offset="0" style="stop-color:#D6E6FF"/>
		<stop  offset="1" style="stop-color:#94BDD4"/>
	</linearGradient>
	<path style="fill-rule:evenodd;clip-rule:evenodd;fill:url(#SVGID_17_);" d="M45.524,25.11c0.27,0.149,0.9,0.6,1.89,1.35
		c-0.21,0.6-0.915,1.02-2.114,1.26c-0.84,0.15-1.696,0.181-2.565,0.091c-0.78-0.091-1.411-0.24-1.891-0.45
		c-0.36-0.18-0.314-0.511,0.135-0.99c0.21-0.271,0.555-0.631,1.035-1.08c0.24-0.3,0.706-0.495,1.396-0.585
		C44.189,24.614,44.895,24.75,45.524,25.11z"/>
	
		<linearGradient id="SVGID_18_" gradientUnits="userSpaceOnUse" x1="15.0327" y1="47.4141" x2="16.7246" y2="47.4141" gradientTransform="matrix(0.7447 -0.5053 0.5053 0.7447 0.3003 0.4497)">
		<stop  offset="0" style="stop-color:#D6E6FF"/>
		<stop  offset="1" style="stop-color:#94BDD4"/>
	</linearGradient>
	<path style="fill-rule:evenodd;clip-rule:evenodd;fill:url(#SVGID_18_);" d="M37.694,27.585c0.39,0.45,0.45,0.78,0.18,0.99
		c-0.21,0.21-0.87,0.27-1.98,0.18c-0.93-0.06-1.725-0.165-2.385-0.315c-0.42-0.09-0.6-0.225-0.54-0.404
		c0.03-0.12,0.271-0.36,0.72-0.721c0.6-0.51,1.47-0.675,2.61-0.494C36.81,26.88,37.275,27.136,37.694,27.585z"/>
	
		<linearGradient id="SVGID_19_" gradientUnits="userSpaceOnUse" x1="12.0205" y1="46.7041" x2="13.0815" y2="46.7041" gradientTransform="matrix(0.7423 -0.509 0.509 0.7423 0.3001 0.4502)">
		<stop  offset="0" style="stop-color:#D6E6FF"/>
		<stop  offset="1" style="stop-color:#94BDD4"/>
	</linearGradient>
	<path style="fill-rule:evenodd;clip-rule:evenodd;fill:url(#SVGID_19_);" d="M34.41,28.8c0.21,0.181,0.195,0.33-0.045,0.45
		c-0.601,0.3-1.44,0.314-2.521,0.045c-0.45-0.119-0.51-0.314-0.18-0.585l0.99-0.675c0.3-0.15,0.63-0.15,0.99,0
		C34.005,28.185,34.26,28.439,34.41,28.8z"/>
	
		<linearGradient id="SVGID_20_" gradientUnits="userSpaceOnUse" x1="39.8911" y1="59.8828" x2="42.7895" y2="59.8828" gradientTransform="matrix(0.7452 -0.5046 0.5046 0.7452 0.2993 0.4498)">
		<stop  offset="0" style="stop-color:#D6E6FF"/>
		<stop  offset="1" style="stop-color:#94BDD4"/>
	</linearGradient>
	<path style="fill-rule:evenodd;clip-rule:evenodd;fill:url(#SVGID_20_);" d="M60.285,22.14c0.779,0.091,1.335,0.315,1.664,0.675
		c0.391,0.45,0.96,0.811,1.711,1.08c0.299,0.121,0.629,0.436,0.989,0.945c0.329,0.48,0.42,0.78,0.27,0.899
		c-0.21,0.121-0.734,0.286-1.575,0.496c-0.899,0.21-1.664,0.33-2.294,0.359c-0.931,0.091-1.605,0.136-2.025,0.136
		c-0.75,0.06-1.306,0.015-1.665-0.136c-0.39-0.18-0.659-0.465-0.81-0.855c-0.121-0.359-0.09-0.689,0.089-0.989
		c0.15-0.24,0.331-0.66,0.541-1.261c0.27-0.539,0.63-0.914,1.08-1.125C58.829,22.125,59.504,22.05,60.285,22.14z"/>
	
		<linearGradient id="SVGID_21_" gradientUnits="userSpaceOnUse" x1="34.9087" y1="60.1875" x2="36.8503" y2="60.1875" gradientTransform="matrix(0.7416 -0.5099 0.5099 0.7416 0.2997 0.4501)">
		<stop  offset="0" style="stop-color:#D6E6FF"/>
		<stop  offset="1" style="stop-color:#94BDD4"/>
	</linearGradient>
	<path style="fill-rule:evenodd;clip-rule:evenodd;fill:url(#SVGID_21_);" d="M53.939,27.181c-0.09-0.181,0.045-0.36,0.405-0.541
		c0.51-0.27,0.87-0.524,1.08-0.765c0.27-0.329,0.615-0.495,1.035-0.495c0.119,0,0.524,0.075,1.215,0.226
		c0.6,0.119,1.185,0.479,1.755,1.08c0.569,0.6,0.66,0.975,0.27,1.125c-0.66,0.3-1.065,0.479-1.215,0.539
		c-0.54,0.15-1.14,0.226-1.8,0.226c-0.689,0-1.305-0.165-1.846-0.495C54.389,27.811,54.09,27.51,53.939,27.181z"/>
	
		<linearGradient id="SVGID_22_" gradientUnits="userSpaceOnUse" x1="29.5039" y1="59.4434" x2="30.5095" y2="59.4434" gradientTransform="matrix(0.7384 -0.5146 0.5146 0.7384 0.3006 0.4503)">
		<stop  offset="0" style="stop-color:#D6E6FF"/>
		<stop  offset="1" style="stop-color:#94BDD4"/>
	</linearGradient>
	<path style="fill-rule:evenodd;clip-rule:evenodd;fill:url(#SVGID_22_);" d="M53.399,28.439c0.84,0.36,1.005,0.706,0.495,1.035
		c-0.48,0.271-1.05,0.376-1.71,0.315c-0.45-0.03-0.721-0.149-0.811-0.36c-0.06-0.18-0.029-0.359,0.09-0.54
		c0.061-0.149,0.315-0.285,0.766-0.404C52.71,28.335,53.1,28.32,53.399,28.439z"/>
	
		<linearGradient id="SVGID_23_" gradientUnits="userSpaceOnUse" x1="33.8062" y1="55.375" x2="35.0474" y2="55.375" gradientTransform="matrix(0.7432 -0.5076 0.5076 0.7432 0.2998 0.4499)">
		<stop  offset="0" style="stop-color:#D6E6FF"/>
		<stop  offset="1" style="stop-color:#94BDD4"/>
	</linearGradient>
	<path style="fill-rule:evenodd;clip-rule:evenodd;fill:url(#SVGID_23_);" d="M55.064,23.895c0.449,0.811-0.359,1.216-2.43,1.216
		c-0.87,0-0.931-0.375-0.18-1.125c0.329-0.33,0.779-0.525,1.35-0.585C54.435,23.34,54.854,23.505,55.064,23.895z"/>
	
		<linearGradient id="SVGID_24_" gradientUnits="userSpaceOnUse" x1="49.9092" y1="61.8301" x2="52.0518" y2="61.8301" gradientTransform="matrix(0.7456 -0.5041 0.5041 0.7456 0.2995 0.4501)">
		<stop  offset="0" style="stop-color:#D6E6FF"/>
		<stop  offset="1" style="stop-color:#94BDD4"/>
	</linearGradient>
	<path style="fill-rule:evenodd;clip-rule:evenodd;fill:url(#SVGID_24_);" d="M71.714,21.015c-0.24,0.391-0.6,0.751-1.079,1.08
		c-0.99,0.69-2.086,0.96-3.285,0.811c-1.229-0.181-1.561-0.66-0.99-1.44c0.21-0.3,0.931-0.96,2.16-1.979
		c0.57-0.45,1.064-0.511,1.485-0.18C70.274,19.545,70.845,20.114,71.714,21.015z"/>
	
		<linearGradient id="SVGID_25_" gradientUnits="userSpaceOnUse" x1="52.3203" y1="64.6504" x2="53.8667" y2="64.6504" gradientTransform="matrix(0.7421 -0.5093 0.5093 0.7421 0.3002 0.4502)">
		<stop  offset="0" style="stop-color:#D6E6FF"/>
		<stop  offset="1" style="stop-color:#94BDD4"/>
	</linearGradient>
	<path style="fill-rule:evenodd;clip-rule:evenodd;fill:url(#SVGID_25_);" d="M74.1,21.239c-0.061,0.301-0.21,0.601-0.45,0.9
		c-0.48,0.63-1.14,0.961-1.98,0.99c-0.87,0.03-1.305-0.18-1.305-0.63c-0.03-0.18,0.105-0.615,0.405-1.305
		c0.15-0.391,0.525-0.54,1.125-0.45C72.104,20.745,72.839,20.91,74.1,21.239z"/>
	
		<linearGradient id="SVGID_26_" gradientUnits="userSpaceOnUse" x1="57.8164" y1="69.9883" x2="59.6886" y2="69.9883" gradientTransform="matrix(0.7451 -0.5048 0.5048 0.7451 0.3 0.45)">
		<stop  offset="0" style="stop-color:#D6E6FF"/>
		<stop  offset="1" style="stop-color:#94BDD4"/>
	</linearGradient>
	<path style="fill-rule:evenodd;clip-rule:evenodd;fill:url(#SVGID_26_);" d="M80.354,21.96c0.21,0.12,0.435,0.33,0.675,0.63
		c0.33,0.42,0.45,0.766,0.359,1.035c-0.149,0.42-1.619,0.51-4.409,0.27c-0.78-0.06-1.051-0.194-0.811-0.405
		c0.51-0.449,0.766-0.689,0.766-0.72c0.119-0.359,0.51-0.66,1.17-0.899C78.884,21.6,79.635,21.63,80.354,21.96z"/>
	
		<linearGradient id="SVGID_27_" gradientUnits="userSpaceOnUse" x1="57.8896" y1="62.2109" x2="58.791" y2="62.2109" gradientTransform="matrix(0.7488 -0.4992 0.4992 0.7488 0.2999 0.4501)">
		<stop  offset="0" style="stop-color:#D6E6FF"/>
		<stop  offset="1" style="stop-color:#94BDD4"/>
	</linearGradient>
	<path style="fill-rule:evenodd;clip-rule:evenodd;fill:url(#SVGID_27_);" d="M73.694,18.136l-0.945-0.946l0.271-0.314
		c0.27-0.15,0.645-0.136,1.125,0.045c0.479,0.18,0.87,0.42,1.169,0.72c0.421,0.45,0.66,0.69,0.721,0.721
		c0.3,0.21,0.51,0.404,0.63,0.585c0.091,0.18,0.075,0.27-0.045,0.27c-0.149,0-0.6-0.135-1.35-0.404
		C74.489,18.54,73.964,18.314,73.694,18.136z"/>
	
		<linearGradient id="SVGID_28_" gradientUnits="userSpaceOnUse" x1="56.9307" y1="65.1133" x2="58.8723" y2="65.1133" gradientTransform="matrix(0.7416 -0.5099 0.5099 0.7416 0.2997 0.4501)">
		<stop  offset="0" style="stop-color:#D6E6FF"/>
		<stop  offset="1" style="stop-color:#94BDD4"/>
	</linearGradient>
	<path style="fill-rule:evenodd;clip-rule:evenodd;fill:url(#SVGID_28_);" d="M74.188,20.25c-0.809-0.21-1.259-0.36-1.35-0.45
		c-0.06-0.06,0.046-0.18,0.315-0.36c0.149-0.06,0.3-0.134,0.45-0.225c0.359-0.45,0.779-0.779,1.26-0.99
		c0.54-0.239,1.035-0.255,1.485-0.044c0.36,0.149,0.854,0.465,1.485,0.944c0.539,0.42,0.854,0.63,0.944,0.63
		c-1.23,0.51-2.13,0.765-2.7,0.765C75.659,20.52,75.029,20.431,74.188,20.25z"/>
	
		<linearGradient id="SVGID_29_" gradientUnits="userSpaceOnUse" x1="60.2021" y1="66.9668" x2="61.5542" y2="66.9668" gradientTransform="matrix(0.7488 -0.4992 0.4992 0.7488 0.3001 0.4501)">
		<stop  offset="0" style="stop-color:#D6E6FF"/>
		<stop  offset="1" style="stop-color:#94BDD4"/>
	</linearGradient>
	<path style="fill-rule:evenodd;clip-rule:evenodd;fill:url(#SVGID_29_);" d="M79.813,19.439c0.961,0.66,1.291,1.11,0.991,1.351
		c-0.271,0.18-1.351,0.21-3.241,0.09c-0.569-0.029-0.765-0.165-0.584-0.405c0.09-0.149,0.27-0.345,0.54-0.585
		c0.18-0.21,0.465-0.39,0.854-0.54C78.914,19.14,79.395,19.17,79.813,19.439z"/>
	
		<linearGradient id="SVGID_30_" gradientUnits="userSpaceOnUse" x1="64.0381" y1="66.9795" x2="65.2446" y2="66.9795" gradientTransform="matrix(0.746 -0.5035 0.5035 0.746 0.2994 0.4501)">
		<stop  offset="0" style="stop-color:#D6E6FF"/>
		<stop  offset="1" style="stop-color:#94BDD4"/>
	</linearGradient>
	<path style="fill-rule:evenodd;clip-rule:evenodd;fill:url(#SVGID_30_);" d="M79.994,18.181c0.12-0.121,0.346-0.376,0.675-0.766
		c0.36-0.3,0.751-0.39,1.17-0.271c0.66,0.181,1.306,0.586,1.936,1.216c-0.841,0.33-1.561,0.479-2.16,0.45
		c-0.39-0.031-0.78-0.15-1.17-0.36L79.994,18.181z"/>
	
		<linearGradient id="SVGID_31_" gradientUnits="userSpaceOnUse" x1="67.4063" y1="69.1953" x2="68.1829" y2="69.1953" gradientTransform="matrix(0.7533 -0.4925 0.4925 0.7533 0.2996 0.4499)">
		<stop  offset="0" style="stop-color:#D6E6FF"/>
		<stop  offset="1" style="stop-color:#94BDD4"/>
	</linearGradient>
	<path style="fill-rule:evenodd;clip-rule:evenodd;fill:url(#SVGID_31_);" d="M85.395,18.811c0.689,0.119,0.975,0.345,0.854,0.675
		c-0.09,0.3-0.39,0.465-0.899,0.495c-0.421,0.029-0.72-0.016-0.9-0.136c-0.15-0.149-0.285-0.284-0.405-0.405
		c-0.18-0.179-0.074-0.345,0.315-0.494C84.719,18.796,85.064,18.75,85.395,18.811z"/>
	
		<linearGradient id="SVGID_32_" gradientUnits="userSpaceOnUse" x1="63.252" y1="73.584" x2="64.0425" y2="73.584" gradientTransform="matrix(0.74 -0.5123 0.5123 0.74 0.2999 0.4499)">
		<stop  offset="0" style="stop-color:#D6E6FF"/>
		<stop  offset="1" style="stop-color:#94BDD4"/>
	</linearGradient>
	<path style="fill-rule:evenodd;clip-rule:evenodd;fill:url(#SVGID_32_);" d="M84.899,21.645c1.439,0.751,1.604,1.11,0.495,1.08
		c-0.66-0.029-1.17-0.089-1.53-0.18l-0.359-0.135l0.539-0.405C84.435,21.735,84.719,21.615,84.899,21.645z"/>
	
		<linearGradient id="SVGID_33_" gradientUnits="userSpaceOnUse" x1="67.9639" y1="74.5674" x2="68.7544" y2="74.5674" gradientTransform="matrix(0.74 -0.5123 0.5123 0.74 0.2999 0.4499)">
		<stop  offset="0" style="stop-color:#D6E6FF"/>
		<stop  offset="1" style="stop-color:#94BDD4"/>
	</linearGradient>
	<path style="fill-rule:evenodd;clip-rule:evenodd;fill:url(#SVGID_33_);" d="M88.994,19.98c0.33,0.09,0.615,0.284,0.855,0.584
		c0.239,0.271,0.255,0.405,0.044,0.405c-0.689,0.15-1.335,0.181-1.934,0.091c-0.421-0.031-0.421-0.24,0-0.63
		C88.379,20.07,88.725,19.921,88.994,19.98z"/>
	
		<linearGradient id="SVGID_34_" gradientUnits="userSpaceOnUse" x1="59.9932" y1="62.6914" x2="60.6588" y2="62.6914" gradientTransform="matrix(0.7436 -0.507 0.507 0.7436 0.3002 0.4501)">
		<stop  offset="0" style="stop-color:#D6E6FF"/>
		<stop  offset="1" style="stop-color:#94BDD4"/>
	</linearGradient>
	<path style="fill-rule:evenodd;clip-rule:evenodd;fill:url(#SVGID_34_);" d="M76.889,15.975c0.271,0.09,0.496,0.24,0.675,0.45
		c0.211,0.271,0.226,0.45,0.046,0.54c-0.33,0.18-0.945,0.091-1.846-0.27c-0.27-0.09-0.194-0.255,0.226-0.495
		C76.379,15.99,76.679,15.915,76.889,15.975z"/>
	
		<linearGradient id="SVGID_35_" gradientUnits="userSpaceOnUse" x1="46.5117" y1="66.125" x2="49.5143" y2="66.125" gradientTransform="matrix(0.7419 -0.5096 0.5096 0.7419 0.3005 0.4501)">
		<stop  offset="0" style="stop-color:#D6E6FF"/>
		<stop  offset="1" style="stop-color:#94BDD4"/>
	</linearGradient>
	<path style="fill-rule:evenodd;clip-rule:evenodd;fill:url(#SVGID_35_);" d="M71.624,23.806c1.351,1.439,1.785,2.294,1.306,2.564
		c-0.45,0.21-1.275,0.435-2.476,0.675c-1.35,0.27-2.399,0.391-3.149,0.36c-0.69-0.03-1.38-0.225-2.07-0.585l-0.854-0.54l1.08-1.755
		c0.21-0.3,0.66-0.69,1.35-1.17c0.779-0.541,1.41-0.855,1.89-0.945c0.45-0.061,0.96,0.09,1.53,0.45
		C70.529,23.04,70.994,23.355,71.624,23.806z"/>
	
		<linearGradient id="SVGID_36_" gradientUnits="userSpaceOnUse" x1="52.8682" y1="70.7539" x2="53.9291" y2="70.7539" gradientTransform="matrix(0.7423 -0.509 0.509 0.7423 0.3001 0.4502)">
		<stop  offset="0" style="stop-color:#D6E6FF"/>
		<stop  offset="1" style="stop-color:#94BDD4"/>
	</linearGradient>
	<path style="fill-rule:evenodd;clip-rule:evenodd;fill:url(#SVGID_36_);" d="M75.899,25.335c0.96,0.211,1.35,0.48,1.17,0.81
		c-0.181,0.24-0.569,0.405-1.17,0.495c-0.811,0.091-1.395-0.03-1.755-0.359c-0.181-0.15-0.061-0.375,0.36-0.675
		C74.954,25.305,75.419,25.215,75.899,25.335z"/>
	<path style="fill-rule:evenodd;clip-rule:evenodd;fill:#89B3CF;" d="M61.859,15.075c0.48,0.57,0.72,0.944,0.72,1.125
		c0,0.12-0.06,0.3-0.18,0.539c-0.06,0.36-0.465,0.556-1.215,0.586c-0.75,0.029-1.2-0.285-1.35-0.945
		c-0.181-0.959-0.105-1.65,0.225-2.069C60.419,13.8,61.02,14.055,61.859,15.075z"/>
	<path style="fill-rule:evenodd;clip-rule:evenodd;fill:#89B3CF;" d="M66.81,15.525c1.2,0.66,1.529,1.319,0.99,1.979
		c-0.271,0.33-0.735,0.315-1.396-0.045c-0.63-0.39-0.96-0.81-0.99-1.26c-0.06-0.51,0-0.825,0.18-0.945
		C65.805,15.104,66.209,15.195,66.81,15.525z"/>
	<path style="fill-rule:evenodd;clip-rule:evenodd;fill:#89B3CF;" d="M69.6,16.83c0.45,0.391,0.675,0.6,0.675,0.63
		c0.09,0.09,0.045,0.226-0.136,0.404c-0.179,0.181-0.374,0.24-0.584,0.181c-0.15-0.03-0.391-0.165-0.72-0.405
		c-0.271-0.21-0.271-0.45,0-0.72C69.135,16.65,69.39,16.62,69.6,16.83z"/>
	<path style="fill-rule:evenodd;clip-rule:evenodd;fill:#89B3CF;" d="M56.864,10.305c0.39,0.27,0.615,0.6,0.675,0.99
		c0.031,0.42-0.194,0.735-0.675,0.945c-0.45,0.18-0.795,0.06-1.034-0.36c-0.211-0.57-0.391-1.005-0.541-1.305
		c-0.24-0.42-0.18-0.66,0.181-0.72C55.859,9.765,56.324,9.915,56.864,10.305z"/>
	<path style="fill-rule:evenodd;clip-rule:evenodd;fill:#89B3CF;" d="M60.374,11.34c0.9,0.72,1.155,1.29,0.765,1.71
		c-0.359,0.42-0.944,0.12-1.754-0.9c-0.33-0.39-0.346-0.705-0.046-0.945C59.64,10.995,59.984,11.04,60.374,11.34z"/>
	<path style="fill-rule:evenodd;clip-rule:evenodd;fill:#89B3CF;" d="M63.524,16.875c0.45,0.45,0.734,0.885,0.855,1.306
		c0.089,0.479-0.121,0.749-0.631,0.809c-0.51,0.062-0.854-0.119-1.035-0.539c-0.179-0.391-0.179-0.765,0-1.125
		C62.954,16.785,63.225,16.635,63.524,16.875z"/>
	<path style="fill-rule:evenodd;clip-rule:evenodd;fill:#89B3CF;" d="M49.664,5.94c0.391,0.299,0.601,0.629,0.63,0.99
		c0.03,0.42-0.21,0.72-0.72,0.9c-0.51,0.15-0.93-0.06-1.26-0.63c-0.271-0.48-0.404-1.005-0.404-1.575
		C47.91,4.905,48.494,5.01,49.664,5.94z"/>
	<path style="fill-rule:evenodd;clip-rule:evenodd;fill:#89B3CF;" d="M46.964,5.04c0.21,0.24,0.301,0.495,0.271,0.765
		c-0.03,0.21-0.149,0.36-0.36,0.45c-0.18,0.06-0.39-0.03-0.63-0.271c-0.24-0.27-0.359-0.54-0.359-0.81c0-0.27,0.119-0.42,0.359-0.45
		C46.514,4.665,46.754,4.77,46.964,5.04z"/>
	<path style="fill-rule:evenodd;clip-rule:evenodd;fill:#89B3CF;" d="M55.514,13.95c0.421,0.779,0.511,1.409,0.271,1.89
		c-0.181,0.42-0.57,0.689-1.171,0.811c-0.45,0.089-0.705-0.15-0.765-0.72c-0.03-0.181,0-0.735,0.09-1.666
		c0.03-0.479,0.239-0.75,0.63-0.81C54.96,13.365,55.274,13.53,55.514,13.95z"/>
	<path style="fill-rule:evenodd;clip-rule:evenodd;fill:#89B3CF;" d="M57.675,16.064c0.3,0.331,0.449,0.66,0.449,0.991
		c0,0.149-0.044,0.344-0.135,0.584c-0.06,0.21-0.271,0.256-0.63,0.136c-0.39-0.121-0.689-0.421-0.899-0.9
		c-0.21-0.45-0.091-0.75,0.359-0.9C57.239,15.825,57.524,15.854,57.675,16.064z"/>
	<path style="fill-rule:evenodd;clip-rule:evenodd;fill:#89B3CF;" d="M55.199,19.575c0.36,0.42,0.601,0.915,0.72,1.485
		c0.15,0.689,0.016,1.094-0.405,1.215c-0.479,0.15-0.839,0.135-1.079-0.045c-0.239-0.181-0.511-0.586-0.811-1.216
		c-0.27-0.6-0.18-1.094,0.271-1.484C54.374,19.14,54.81,19.155,55.199,19.575z"/>
	<path style="fill-rule:evenodd;clip-rule:evenodd;fill:#89B3CF;" d="M49.889,19.439c0.181-0.06,0.45,0.121,0.811,0.541
		c0.33,0.42,0.48,0.765,0.45,1.034c-0.09,0.511-0.615,0.69-1.575,0.541c-0.42-0.091-0.57-0.45-0.45-1.081
		C49.245,19.845,49.5,19.5,49.889,19.439z"/>
	<path style="fill-rule:evenodd;clip-rule:evenodd;fill:#89B3CF;" d="M62.85,19.89c0.329,0.301,0.524,0.63,0.585,0.99
		c0.06,0.359-0.091,0.631-0.45,0.81c-0.54,0.271-1.035-0.074-1.485-1.034c-0.18-0.36-0.089-0.66,0.271-0.9
		C62.1,19.516,62.459,19.561,62.85,19.89z"/>
	<path style="fill-rule:evenodd;clip-rule:evenodd;fill:#89B3CF;" d="M64.289,13.455c0.15,0.93-0.075,1.5-0.675,1.71
		c-0.359,0.12-0.6,0-0.72-0.36c-0.09-0.51-0.21-0.885-0.359-1.125c-0.15-0.33,0.015-0.495,0.494-0.495
		C63.389,13.215,63.81,13.305,64.289,13.455z"/>
	<path style="fill-rule:evenodd;clip-rule:evenodd;fill:#FFFFFF;" d="M36.84,5.265c0.6-0.24,0.93-0.18,0.99,0.18
		c0.06,0.21,0,0.601-0.18,1.17c-0.12,0.42-0.42,0.705-0.9,0.855c-0.51,0.18-1.08,0.09-1.71-0.27
		C34.05,6.69,34.649,6.045,36.84,5.265z"/>
	<path style="fill-rule:evenodd;clip-rule:evenodd;fill:#FFFFFF;" d="M34.365,8.19c0.39,0,0.6,0.18,0.63,0.54
		c0.06,0.36-0.06,0.629-0.36,0.81c-0.51,0.36-0.9,0.24-1.169-0.36C33.135,8.52,33.435,8.19,34.365,8.19z"/>
	<path style="fill-rule:evenodd;clip-rule:evenodd;fill:#FFFFFF;" d="M43.725,5.265c0.27,0.66,0,1.185-0.811,1.575
		c-0.3,0.15-0.465,0.045-0.495-0.315c-0.03-0.24-0.015-0.51,0.045-0.81c0.031-0.21,0.21-0.405,0.541-0.585
		C43.364,4.95,43.604,4.995,43.725,5.265z"/>
	<path style="fill-rule:evenodd;clip-rule:evenodd;fill:#FFFFFF;" d="M40.35,7.74l0.855-0.27c0.09,0,0.135,0.135,0.135,0.405
		c0,0.63-0.285,0.885-0.855,0.765c-0.24-0.03-0.375-0.18-0.405-0.45C40.049,7.95,40.14,7.8,40.35,7.74z"/>
	<path style="fill-rule:evenodd;clip-rule:evenodd;fill:#FFFFFF;" d="M27.885,10.53c0.63-0.18,1.02-0.12,1.17,0.18
		c0.15,0.271,0.09,0.63-0.18,1.08c-0.39,0.69-1.215,0.81-2.475,0.36c-0.479-0.149-0.435-0.45,0.135-0.9
		C27.075,10.83,27.524,10.59,27.885,10.53z"/>
	<path style="fill-rule:evenodd;clip-rule:evenodd;fill:#FFFFFF;" d="M31.125,10.08c0.72-0.3,1.035-0.18,0.945,0.36
		c-0.089,0.54-0.36,0.945-0.81,1.215c-0.629,0.39-1.125,0.33-1.485-0.18c-0.12-0.15-0.06-0.36,0.18-0.63
		C30.225,10.545,30.614,10.29,31.125,10.08z"/>
	<path style="fill-rule:evenodd;clip-rule:evenodd;fill:#FFFFFF;" d="M22.26,14.715c0.42-0.06,0.675,0.135,0.765,0.585
		c0.09,0.48-0.105,0.915-0.584,1.306c-0.48,0.359-0.915,0.51-1.305,0.45c-0.21-0.03-0.6-0.211-1.17-0.541
		c-0.42-0.27-0.33-0.614,0.27-1.034C20.835,15.03,21.51,14.775,22.26,14.715z"/>
	<path style="fill-rule:evenodd;clip-rule:evenodd;fill:#FFFFFF;" d="M24.6,14.175c0.45-0.121,0.735-0.03,0.855,0.27
		c0.12,0.301-0.045,0.616-0.495,0.945c-0.39,0.301-0.675,0.436-0.854,0.405c-0.21-0.09-0.391-0.149-0.54-0.181
		c-0.24-0.06-0.24-0.27,0-0.629C23.805,14.565,24.149,14.295,24.6,14.175z"/>
	<path style="fill-rule:evenodd;clip-rule:evenodd;fill:#FFFFFF;" d="M33.915,14.265c0.72-0.03,1.095,0.166,1.125,0.585
		c0.06,0.39-0.165,0.9-0.675,1.53c-0.39,0.48-0.705,0.66-0.945,0.54c-0.24-0.27-0.51-0.45-0.81-0.54
		c-0.42-0.15-0.465-0.54-0.135-1.17C32.805,14.61,33.285,14.295,33.915,14.265z"/>
	<path style="fill-rule:evenodd;clip-rule:evenodd;fill:#FFFFFF;" d="M39.09,14.85c0.27-0.03,0.54,0.09,0.81,0.36
		c0.21,0.271,0.285,0.51,0.225,0.721c-0.12,0.299-0.675,0.374-1.665,0.225c-0.42-0.091-0.555-0.315-0.405-0.675
		C38.205,15.12,38.549,14.91,39.09,14.85z"/>
	<path style="fill-rule:evenodd;clip-rule:evenodd;fill:#FFFFFF;" d="M38.685,16.875c0.36,0.09,0.585,0.225,0.675,0.405
		c0.06,0.18-0.015,0.345-0.225,0.495c-0.299,0.27-0.69,0.194-1.169-0.226c-0.21-0.18-0.225-0.345-0.045-0.494
		C38.129,16.875,38.385,16.815,38.685,16.875z"/>
	<path style="fill-rule:evenodd;clip-rule:evenodd;fill:#FFFFFF;" d="M31.35,19.306c1.05-0.391,1.605-0.136,1.665,0.765
		c0.03,0.84-0.225,1.409-0.765,1.71c-0.36,0.21-0.69,0.21-0.99,0c-0.18-0.15-0.404-0.436-0.675-0.855c-0.18-0.3-0.18-0.615,0-0.944
		C30.735,19.649,30.99,19.425,31.35,19.306z"/>
	<path style="fill-rule:evenodd;clip-rule:evenodd;fill:#FFFFFF;" d="M24.6,17.73c0.6-0.331,1.05-0.436,1.35-0.315
		c0.24,0.09,0.345,0.271,0.315,0.54c-0.12,0.51-0.57,0.855-1.35,1.034c-0.479,0.091-0.735-0.06-0.765-0.449
		C24.149,18.15,24.299,17.88,24.6,17.73z"/>
	<path style="fill-rule:evenodd;clip-rule:evenodd;fill:#FFFFFF;" d="M42.96,20.475c0.81-0.029,1.14,0.15,0.99,0.54
		c-0.121,0.24-0.391,0.511-0.811,0.811c-0.21,0.18-0.389,0.225-0.54,0.135c-0.15-0.12-0.27-0.21-0.36-0.271
		c-0.179-0.09-0.194-0.3-0.045-0.629C42.345,20.7,42.6,20.505,42.96,20.475z"/>
	<path style="fill-rule:evenodd;clip-rule:evenodd;fill:#FFFFFF;" d="M37.109,23.04c0.54,0.061,0.825,0.375,0.855,0.945
		c0.03,0.569-0.255,1.005-0.855,1.305c-0.48,0.239-0.78,0.285-0.9,0.135c-0.12-0.3-0.27-0.57-0.45-0.811
		c-0.24-0.299-0.149-0.659,0.271-1.079C36.39,23.146,36.75,22.979,37.109,23.04z"/>
	<path style="fill-rule:evenodd;clip-rule:evenodd;fill:#FFFFFF;" d="M42.689,25.29c0.18,0.09,0.331,0.271,0.45,0.54
		c0.15,0.3,0.15,0.569,0,0.81c-0.179,0.24-0.33,0.301-0.45,0.181c-0.24-0.211-0.495-0.421-0.765-0.631
		c-0.36-0.3-0.39-0.555-0.089-0.765C42.104,25.186,42.39,25.141,42.689,25.29z"/>
	<path style="fill-rule:evenodd;clip-rule:evenodd;fill:#FFFFFF;" d="M58.664,22.725c0.751-0.089,1.11,0.195,1.08,0.855
		c0,0.51-0.195,1.005-0.584,1.484c-0.211,0.301-0.526,0.315-0.946,0.046c-0.329-0.24-0.584-0.511-0.765-0.811
		c-0.15-0.239-0.135-0.524,0.045-0.854C57.704,23.055,58.095,22.814,58.664,22.725z"/>
	<path style="fill-rule:evenodd;clip-rule:evenodd;fill:#FFFFFF;" d="M7.5,19.53c0.36,0.24,0.45,0.435,0.27,0.584
		c-0.18,0.181-0.419,0.181-0.72,0c-0.27-0.149-0.3-0.314-0.09-0.494C7.17,19.471,7.35,19.439,7.5,19.53z"/>
	<path style="fill-rule:evenodd;clip-rule:evenodd;fill:#FFFFFF;" d="M11.64,17.73c0.39-0.121,0.51,0.074,0.36,0.584
		c-0.149,0.481-0.45,0.675-0.9,0.586c-0.45-0.061-0.555-0.255-0.315-0.586C10.995,18.045,11.28,17.85,11.64,17.73z"/>
	<path style="fill-rule:evenodd;clip-rule:evenodd;fill:#FFFFFF;" d="M13.44,21.465c0.24,0,0.315,0.091,0.225,0.271
		c-0.12,0.18-0.345,0.27-0.675,0.27c-0.36,0-0.435-0.09-0.225-0.27C12.975,21.556,13.2,21.465,13.44,21.465z"/>
	<path style="fill-rule:evenodd;clip-rule:evenodd;fill:#FFFFFF;" d="M24.06,22.95c0.24,0.06,0.36,0.18,0.36,0.36
		c0.03,0.179-0.135,0.27-0.495,0.27c-0.33,0-0.435-0.105-0.315-0.315C23.729,23.024,23.88,22.92,24.06,22.95z"/>
	<path style="fill-rule:evenodd;clip-rule:evenodd;fill:#FFFFFF;" d="M26.984,23.265c0.36,0.061,0.601,0.225,0.72,0.496
		c0.15,0.27,0.09,0.51-0.18,0.72c-0.24,0.149-0.465,0.149-0.675,0c-0.27-0.24-0.525-0.465-0.765-0.675
		C25.604,23.355,25.905,23.175,26.984,23.265z"/>
	<path style="fill-rule:evenodd;clip-rule:evenodd;fill:#FFFFFF;" d="M56.1,26.325c0.27,0,0.435,0.195,0.495,0.585
		c0.06,0.33,0.044,0.569-0.045,0.72c-0.09,0.12-0.3,0.166-0.631,0.135c-0.39-0.06-0.81-0.24-1.259-0.54
		c-0.421-0.27-0.421-0.494,0-0.675C55.02,26.399,55.499,26.325,56.1,26.325z"/>
	<path style="fill-rule:evenodd;clip-rule:evenodd;fill:#FFFFFF;" d="M66.539,24.255c0.33-0.12,0.675,0.045,1.035,0.495
		c0.36,0.391,0.51,0.765,0.45,1.125c-0.03,0.3-0.346,0.495-0.945,0.585c-0.54,0.061-1.02,0.016-1.44-0.135
		c-0.389-0.12-0.465-0.45-0.225-0.99C65.654,24.765,66.029,24.404,66.539,24.255z"/>
	<path style="fill-rule:evenodd;clip-rule:evenodd;fill:#FFFFFF;" d="M67.889,20.7c0.511,0,0.66,0.255,0.45,0.765
		c-0.09,0.271-0.345,0.435-0.765,0.495c-0.39,0.03-0.645-0.03-0.765-0.18c-0.12-0.15-0.046-0.375,0.226-0.675
		C67.305,20.835,67.589,20.7,67.889,20.7z"/>
	<path style="fill-rule:evenodd;clip-rule:evenodd;fill:#FFFFFF;" d="M71.175,21.239c0.21-0.06,0.404-0.015,0.585,0.136
		c0.149,0.15,0.225,0.33,0.225,0.54c0,0.42-0.39,0.6-1.17,0.54c-0.33-0.029-0.42-0.225-0.271-0.585
		C70.665,21.54,70.875,21.33,71.175,21.239z"/>
	<path style="fill-rule:evenodd;clip-rule:evenodd;fill:#FFFFFF;" d="M77.699,22.5c0.27-0.03,0.465,0.075,0.585,0.314
		c0.12,0.24,0.105,0.42-0.045,0.541c-0.12,0.09-0.359,0.119-0.72,0.09L77.024,23.4c-0.03-0.121-0.015-0.255,0.045-0.405
		C77.159,22.695,77.37,22.53,77.699,22.5z"/>
	<path style="fill-rule:evenodd;clip-rule:evenodd;fill:#FFFFFF;" d="M78.239,19.8c0.239-0.029,0.39,0.045,0.449,0.226
		c0.062,0.15,0,0.3-0.179,0.449c-0.181,0.211-0.525,0.24-1.035,0.09c-0.21-0.06-0.195-0.194,0.045-0.404
		C77.759,19.98,77.999,19.859,78.239,19.8z"/>
	<path style="fill-rule:evenodd;clip-rule:evenodd;fill:#FFFFFF;" d="M74.549,18.675c0.271-0.18,0.48-0.029,0.631,0.45
		c0.149,0.45,0.134,0.75-0.045,0.9c-0.12,0.12-0.271,0.104-0.45-0.045c-0.24-0.21-0.405-0.36-0.496-0.45
		C73.89,19.32,74.01,19.035,74.549,18.675z"/>
	<path style="fill-rule:evenodd;clip-rule:evenodd;fill:#FFFFFF;" d="M74.188,17.325c0.211,0.479,0.195,0.705-0.044,0.675
		c-0.271-0.06-0.48-0.225-0.631-0.495c-0.09-0.21-0.015-0.315,0.226-0.315C73.949,17.16,74.1,17.205,74.188,17.325z"/>
	<path style="fill-rule:evenodd;clip-rule:evenodd;fill:#FFFFFF;" d="M81.164,17.415c0.271,0.15,0.42,0.3,0.45,0.449
		c0.03,0.091,0,0.24-0.09,0.45c-0.06,0.15-0.15,0.21-0.27,0.181c-0.211-0.09-0.391-0.181-0.541-0.271
		c-0.21-0.12-0.24-0.314-0.09-0.585C80.774,17.37,80.954,17.295,81.164,17.415z"/>
	<path style="fill-rule:evenodd;clip-rule:evenodd;fill:#FFFFFF;" d="M34.59,26.955c0.42,0,0.66,0.03,0.72,0.09
		c0.06,0.03,0.12,0.165,0.18,0.405c0.12,0.27,0.15,0.42,0.09,0.45c-0.12,0.06-0.525,0.015-1.215-0.136
		c-0.66-0.149-0.87-0.329-0.63-0.54C33.975,27.045,34.26,26.955,34.59,26.955z"/>
	<path style="fill-rule:evenodd;clip-rule:evenodd;fill:#FFFFFF;" d="M32.834,28.306c0.36,0.029,0.405,0.134,0.135,0.314
		c-0.24,0.21-0.524,0.255-0.854,0.135s-0.36-0.239-0.09-0.36C32.265,28.275,32.535,28.245,32.834,28.306z"/>
</g>
</svg>
