<?xml version="1.0" encoding="iso-8859-1"?>
<!-- Generator: Adobe Illustrator 15.1.0, SVG Export Plug-In . SVG Version: 6.00 Build 0)  -->
<!DOCTYPE svg PUBLIC "-//W3C//DTD SVG 1.1//EN" "http://www.w3.org/Graphics/SVG/1.1/DTD/svg11.dtd">
<svg version="1.1" id="flash0.ai" xmlns="http://www.w3.org/2000/svg" xmlns:xlink="http://www.w3.org/1999/xlink" x="0px" y="0px"
	 width="61.9px" height="86.3px" viewBox="0 0 61.9 86.3" style="enable-background:new 0 0 61.9 86.3;" xml:space="preserve">
<symbol  id="flash0.ai_x5F_3_x2F_Layer_5_copy_2_x2F__x3C_Path_x3E__x5F_3" viewBox="-0.046 -20.75 18.02 20.766">
	<g id="Layer_1_3_">
		
			<radialGradient id="SVGID_1_" cx="16054.0039" cy="-991.4712" r="6.5942" gradientTransform="matrix(-0.1156 0.9933 0.69 -0.0284 2550.3071 -15985.1074)" gradientUnits="userSpaceOnUse">
			<stop  offset="0" style="stop-color:#FFFFFF"/>
			<stop  offset="0.0196" style="stop-color:#FFFFFF;stop-opacity:0.9529"/>
			<stop  offset="1" style="stop-color:#FFFFFF;stop-opacity:0"/>
		</radialGradient>
		<path style="fill-rule:evenodd;clip-rule:evenodd;fill:url(#SVGID_1_);" d="M10.9-20.7c-4.4-0.233-7.316,0.35-8.75,1.75
			c-0.7,0.7-1.35,2.483-1.95,5.35c-0.534,2.467-0.2,5.1,1,7.9c1.4,3.2,3.5,5.067,6.3,5.6c2.867,0.533,5.467-0.767,7.8-3.9
			c2.167-2.933,3.017-5.65,2.55-8.15c-0.367-2-1.467-3.983-3.3-5.95C12.917-19.8,11.7-20.667,10.9-20.7z"/>
	</g>
</symbol>
<symbol  id="flash0.ai_x5F_3_x2F_Layer_5_copy_2_x2F__x3C_Path_x3E__x5F_5" viewBox="0 -20.05 8.776 20.05">
	<g id="Layer_1_2_">
		<path style="fill-rule:evenodd;clip-rule:evenodd;" d="M6.45,0c0.633-0.5,1.167-1.3,1.6-2.4c0.934-2.167,0.967-4.717,0.1-7.65
			c-0.967-3.3-2.617-5.967-4.95-8c-1.167-1-2.233-1.667-3.2-2c0.633,0.333,1.383,0.966,2.25,1.9c1.767,1.867,3.217,4.35,4.35,7.45
			c1.066,2.8,1.367,5.417,0.9,7.85C7.267-1.617,6.917-0.667,6.45,0z"/>
	</g>
</symbol>
<symbol  id="flash0.ai_x5F_3_x2F_Layer_5_copy_3_x2F__x3C_Path_x3E__x5F_3" viewBox="-0.058 -21.801 19.908 21.85">
	<g id="Layer_1_5_">
		
			<radialGradient id="SVGID_2_" cx="17633.0078" cy="-3053.2549" r="6.9058" gradientTransform="matrix(-0.3222 0.9467 0.724 0.1177 7902.7207 -16344.2168)" gradientUnits="userSpaceOnUse">
			<stop  offset="0" style="stop-color:#FFFFFF"/>
			<stop  offset="0.0196" style="stop-color:#FFFFFF;stop-opacity:0.9529"/>
			<stop  offset="1" style="stop-color:#FFFFFF;stop-opacity:0"/>
		</radialGradient>
		<path style="fill-rule:evenodd;clip-rule:evenodd;fill:url(#SVGID_2_);" d="M14.1-20.9c-4.767-1.167-8.067-1.2-9.9-0.1
			c-0.867,0.567-1.95,2.25-3.25,5.05c-1.1,2.434-1.3,5.2-0.6,8.3C1.183-4.05,3.067-1.667,6-0.5c3.033,1.2,6.15,0.433,9.35-2.3
			c3-2.5,4.5-5.1,4.5-7.8c0-2.133-0.783-4.4-2.35-6.8C16.1-19.5,14.967-20.667,14.1-20.9z"/>
	</g>
</symbol>
<symbol  id="flash0.ai_x5F_3_x2F_Layer_5_copy_3_x2F__x3C_Path_x3E__x5F_5" viewBox="-0.012 -21.8 7.512 21.8">
	<g id="Layer_1_4_">
		<path style="fill-rule:evenodd;clip-rule:evenodd;" d="M7.5,0C6.7-0.4,5.85-1.117,4.95-2.15c-1.767-2.067-2.867-4.667-3.3-7.8
			c-0.5-3.433-0.4-6.433,0.3-9c0.333-1.3,0.716-2.25,1.15-2.85c-0.767,0.767-1.45,1.9-2.05,3.4c-1.2,3-1.383,6.267-0.55,9.8
			c0.733,3.167,2.117,5.55,4.15,7.15C5.683-0.65,6.633-0.167,7.5,0z"/>
	</g>
</symbol>
<symbol  id="flash0.ai_x5F_3_x2F_Layer_5_copy_x2F__x3C_Path_x3E__x5F_3" viewBox="0.002 -19.889 21.757 19.908">
	<g id="Layer_1_7_">
		
			<radialGradient id="SVGID_3_" cx="15804.1504" cy="-16225.4492" r="6.8627" gradientTransform="matrix(-1 0.0073 0.0455 -0.7231 16553.7266 -11858.9414)" gradientUnits="userSpaceOnUse">
			<stop  offset="0" style="stop-color:#FFFFFF"/>
			<stop  offset="0.0196" style="stop-color:#FFFFFF;stop-opacity:0.9529"/>
			<stop  offset="1" style="stop-color:#FFFFFF;stop-opacity:0"/>
		</radialGradient>
		<path style="fill-rule:evenodd;clip-rule:evenodd;fill:url(#SVGID_3_);" d="M21.75-10.85c-0.033-0.9-0.917-2.333-2.65-4.3
			c-2-2.267-4.05-3.733-6.15-4.4c-2.6-0.8-5.467-0.184-8.6,1.85C1.017-15.533-0.4-12.85,0.1-9.65C0.567-6.517,2.467-4,5.8-2.1
			c2.9,1.667,5.65,2.35,8.25,2.05c3.034-0.333,4.9-0.833,5.6-1.5C21.15-2.917,21.85-6.017,21.75-10.85z"/>
	</g>
</symbol>
<symbol  id="flash0.ai_x5F_3_x2F_Layer_5_copy_x2F__x3C_Path_x3E__x5F_5" viewBox="-0.003 -11.85 20.303 11.829">
	<g id="Layer_1_6_">
		<path style="fill-rule:evenodd;clip-rule:evenodd;" d="M0.8-8.7c1.133,2.4,3.15,4.45,6.05,6.15c3.267,1.867,6.483,2.7,9.65,2.5
			c1.6-0.1,2.867-0.383,3.8-0.85c-0.7,0.233-1.716,0.3-3.05,0.2c-2.667-0.167-5.617-1.017-8.85-2.55C5.467-4.65,3.183-6.5,1.55-8.8
			C0.75-9.967,0.233-10.983,0-11.85C-0.033-10.983,0.233-9.933,0.8-8.7z"/>
	</g>
</symbol>
<symbol  id="flash0.ai_x5F_3_x2F_Layer_5_x2F__x3C_Path_x3E__x5F_3" viewBox="-0.065 -21.23 19.492 21.247">
	<g id="Layer_1_9_">
		
			<radialGradient id="SVGID_4_" cx="16960.7773" cy="-2124.958" r="6.7367" gradientTransform="matrix(-0.2338 0.9723 0.7311 0.0501 5529.4214 -16394.9727)" gradientUnits="userSpaceOnUse">
			<stop  offset="0" style="stop-color:#FFFFFF"/>
			<stop  offset="0.0196" style="stop-color:#FFFFFF;stop-opacity:0.9529"/>
			<stop  offset="1" style="stop-color:#FFFFFF;stop-opacity:0"/>
		</radialGradient>
		<path style="fill-rule:evenodd;clip-rule:evenodd;fill:url(#SVGID_4_);" d="M12.85-20.85c-4.733-0.7-7.934-0.433-9.6,0.8
			c-0.833,0.633-1.733,2.367-2.7,5.2c-0.867,2.467-0.816,5.167,0.15,8.1C1.833-3.317,3.883-1.167,6.85-0.3
			c3.033,0.9,5.983-0.117,8.85-3.05c2.7-2.7,3.933-5.35,3.7-7.95c-0.167-2.1-1.133-4.25-2.9-6.45
			C14.933-19.683,13.717-20.717,12.85-20.85z"/>
	</g>
</symbol>
<symbol  id="flash0.ai_x5F_3_x2F_Layer_5_x2F__x3C_Path_x3E__x5F_5" viewBox="0 -21.7 5.333 21.7">
	<g id="Layer_1_8_">
		<path style="fill-rule:evenodd;clip-rule:evenodd;" d="M0,0c0.8-0.3,1.633-0.917,2.5-1.85c1.667-1.9,2.6-4.417,2.8-7.55
			c0.2-3.533-0.517-6.65-2.15-9.35c-0.833-1.333-1.683-2.317-2.55-2.95c0.533,0.5,1.083,1.35,1.65,2.55
			c1.1,2.4,1.683,5.283,1.75,8.65c0.1,3.067-0.533,5.733-1.9,8C1.4-1.367,0.7-0.533,0,0z"/>
	</g>
</symbol>
<g>
	
		<radialGradient id="SVGID_5_" cx="19.103" cy="-6.2734" r="19.7411" gradientTransform="matrix(0.2259 0.7674 0.7882 -0.1905 13.9792 45.5252)" gradientUnits="userSpaceOnUse">
		<stop  offset="0" style="stop-color:#9E4761"/>
		<stop  offset="1" style="stop-color:#420D1D"/>
	</radialGradient>
	<path style="fill-rule:evenodd;clip-rule:evenodd;fill:url(#SVGID_5_);" d="M16.27,57.14c1.787,0.16,3.307,1.054,4.56,2.68
		c1.146,1.467,1.894,3.32,2.24,5.561c0.347,2.187,0.227,4.239-0.359,6.159c-0.614,2.08-1.667,3.601-3.16,4.561
		c-3.333,2.16-6.613,2.173-9.84,0.04c-3.12-2.107-4.454-4.934-4-8.479c0.347-2.881,1.427-5.348,3.24-7.4
		C11.003,57.939,13.443,56.899,16.27,57.14z"/>
	
		<use xlink:href="#flash0.ai_x5F_3_x2F_Layer_5_copy_2_x2F__x3C_Path_x3E__x5F_5"  width="8.776" height="20.05" y="-20.05" transform="matrix(0.8 0 0 -0.8 12 59.6504)" style="overflow:visible;opacity:0.3594;enable-background:new    ;"/>
	<path style="fill-rule:evenodd;clip-rule:evenodd;fill:#471A24;" d="M14.15,58.1l0.36-0.2c0.347-0.133,0.8-0.227,1.36-0.279
		c0.72-0.027,1.413,0.173,2.08,0.6c0.393,0.254,0.692,0.32,0.9,0.2c-0.17,0.119-0.39,0.212-0.66,0.28
		c-0.586,0.16-1.12,0.08-1.6-0.24c-0.56-0.373-1.133-0.547-1.72-0.521L14.15,58.1z"/>
	
		<use xlink:href="#flash0.ai_x5F_3_x2F_Layer_5_copy_2_x2F__x3C_Path_x3E__x5F_3"  width="18.02" height="20.766" x="-0.046" y="-20.75" transform="matrix(0.8 0 0 -0.8 4.1499 54.1504)" style="overflow:visible;opacity:0.3008;enable-background:new    ;"/>
	<path style="fill-rule:evenodd;clip-rule:evenodd;fill:#FFFFFF;" d="M12.47,61.18c0.534-0.24,0.813-0.134,0.84,0.32
		c0.053,0.453-0.16,0.786-0.64,1c-0.453,0.239-0.72,0.133-0.8-0.32C11.816,61.727,12.017,61.393,12.47,61.18z"/>
	<path style="fill-rule:evenodd;clip-rule:evenodd;fill:#FFFFFF;" d="M11.67,63.1c0.213,0.054,0.307,0.174,0.28,0.36
		c-0.026,0.187-0.146,0.253-0.36,0.2c-0.213-0.054-0.293-0.16-0.24-0.32C11.43,63.153,11.537,63.073,11.67,63.1z"/>
	<path style="fill-rule:evenodd;clip-rule:evenodd;fill:#E691B6;" d="M17.669,59.06c-0.453,0.16-0.866,0.146-1.24-0.04
		c-0.32-0.159-0.454-0.319-0.4-0.479c0.026-0.08,0.2-0.04,0.52,0.12c0.187,0.079,0.36,0.173,0.52,0.279
		C17.71,58.913,17.91,58.953,17.669,59.06z"/>
	
		<radialGradient id="SVGID_6_" cx="29.9458" cy="-19.8564" r="20.7867" gradientTransform="matrix(0.3882 0.6995 0.7764 -0.3497 34.1012 34.4095)" gradientUnits="userSpaceOnUse">
		<stop  offset="0" style="stop-color:#9E4761"/>
		<stop  offset="1" style="stop-color:#420D1D"/>
	</radialGradient>
	<path style="fill-rule:evenodd;clip-rule:evenodd;fill:url(#SVGID_6_);" d="M38.109,59.02c1.547,1.28,2.747,3.014,3.601,5.2
		c0.853,2.16,1.173,4.293,0.96,6.399c-0.241,2.268-1.067,4.054-2.48,5.36c-3.174,2.96-6.747,3.693-10.72,2.2
		c-3.84-1.467-5.894-4.067-6.16-7.8c-0.213-3.014,0.44-5.773,1.96-8.28c1.733-2.826,4.173-4.439,7.319-4.84
		C34.563,57.02,36.402,57.606,38.109,59.02z"/>
	
		<use xlink:href="#flash0.ai_x5F_3_x2F_Layer_5_copy_3_x2F__x3C_Path_x3E__x5F_5"  width="7.512" height="21.8" x="-0.012" y="-21.8" transform="matrix(0.8 0 0 -0.8 25.25 58.25)" style="overflow:visible;opacity:0.3594;enable-background:new    ;"/>
	<path style="fill-rule:evenodd;clip-rule:evenodd;fill:#471A24;" d="M30.47,58.739l0.359-0.279c0.347-0.214,0.813-0.4,1.4-0.561
		c0.773-0.187,1.573-0.146,2.399,0.12c0.468,0.156,0.808,0.163,1.021,0.021c-0.174,0.149-0.381,0.289-0.62,0.42
		c-0.613,0.293-1.227,0.333-1.84,0.12c-0.667-0.267-1.319-0.32-1.96-0.16L30.47,58.739z"/>
	
		<use xlink:href="#flash0.ai_x5F_3_x2F_Layer_5_copy_3_x2F__x3C_Path_x3E__x5F_3"  width="19.908" height="21.85" x="-0.058" y="-21.801" transform="matrix(0.8 0 0 -0.8 21.3501 55.0498)" style="overflow:visible;opacity:0.3008;enable-background:new    ;"/>
	<path style="fill-rule:evenodd;clip-rule:evenodd;fill:#FFFFFF;" d="M30.189,62.06c0.533-0.347,0.867-0.293,1,0.16
		c0.134,0.453-0.04,0.854-0.52,1.2c-0.454,0.319-0.76,0.253-0.92-0.2S29.736,62.38,30.189,62.06z"/>
	<path style="fill-rule:evenodd;clip-rule:evenodd;fill:#FFFFFF;" d="M29.709,64.26c0.24,0,0.374,0.094,0.4,0.279
		c0,0.188-0.133,0.28-0.4,0.28c-0.24,0-0.333-0.093-0.28-0.28C29.457,64.354,29.549,64.26,29.709,64.26z"/>
	<path style="fill-rule:evenodd;clip-rule:evenodd;fill:#E691B6;" d="M34.51,58.939c-0.453,0.267-0.907,0.347-1.36,0.24
		c-0.4-0.106-0.587-0.24-0.561-0.399c0.027-0.107,0.24-0.107,0.641,0c0.213,0.053,0.413,0.106,0.6,0.159
		C34.522,58.807,34.749,58.807,34.51,58.939z"/>
	<path style="fill-rule:evenodd;clip-rule:evenodd;fill:#B37732;" d="M33.749,56.06c-0.079,1.387,0.094,2.2,0.521,2.44
		c-0.106,0.106-0.28,0.16-0.521,0.16c-0.187-0.027-0.333-0.08-0.439-0.16l-0.08-0.16c-0.188-0.986-0.188-2.134,0-3.44
		c0.133-0.854,0.399-1.653,0.8-2.399c0.187-0.374,0.387-0.733,0.6-1.08c0.027-0.214,0.174-0.347,0.44-0.4
		c0.293-0.08,0.601-0.013,0.92,0.2c0.533,0.32,0.773,0.573,0.721,0.76c-0.427,0.054-0.895,0.267-1.4,0.641
		C34.402,53.26,33.883,54.406,33.749,56.06z"/>
	<path style="fill-rule:evenodd;clip-rule:evenodd;fill:#99672A;" d="M36.629,51.78l0.081,0.199c-0.427,0.054-0.895,0.267-1.4,0.641
		c-0.907,0.64-1.427,1.786-1.561,3.439c-0.079,1.387,0.094,2.2,0.521,2.44c-0.106,0.106-0.28,0.16-0.521,0.16
		c-0.239-0.027-0.399-0.12-0.479-0.28c0.054,0,0.054-0.2,0-0.6c-0.027-0.188-0.013-0.574,0.04-1.16l0.119-0.84l-0.039,1.6
		c0,0.293,0.053,0.547,0.16,0.76c0.079,0.214,0.187,0.307,0.32,0.28c0.079-0.026,0.079-0.16,0-0.4
		c-0.134-0.373-0.214-0.626-0.241-0.76c-0.053-0.427-0.04-0.96,0.041-1.6c0.106-0.88,0.319-1.587,0.64-2.12
		c0.293-0.48,0.68-0.867,1.16-1.16l0.6-0.4c0.027-0.08-0.013-0.106-0.12-0.08c-0.106,0-0.227,0.04-0.36,0.12l-1.16,1.04l0.801-0.88
		c0.187-0.213,0.307-0.399,0.359-0.56L36.629,51.78z"/>
	<path style="fill-rule:evenodd;clip-rule:evenodd;fill:#825725;" d="M34.749,51.3l-0.039-0.16c0.266-0.267,0.692-0.24,1.279,0.08
		c0.64,0.32,0.881,0.573,0.721,0.76c-0.107,0-0.32-0.053-0.641-0.16l-0.72-0.159c-0.267-0.054-0.453-0.147-0.561-0.28L34.749,51.3z"
		/>
	<path style="fill-rule:evenodd;clip-rule:evenodd;fill:#6E4A1E;" d="M34.949,51.06l0.28-0.08l0.76,0.32
		c0.507,0.293,0.693,0.453,0.561,0.48c-0.08,0.026-0.24-0.014-0.48-0.12c-0.32-0.106-0.52-0.174-0.6-0.2
		c-0.16-0.027-0.32-0.094-0.48-0.2S34.815,51.087,34.949,51.06z"/>
	<path style="fill-rule:evenodd;clip-rule:evenodd;fill:#EDA041;" d="M34.789,51.66c0.134,0.053,0.227,0.079,0.28,0.079
		c0.08,0.027,0.08,0.054,0,0.08c-0.213,0.08-0.347,0.134-0.399,0.16c-0.32,0.188-0.654,0.827-1,1.92
		c-0.081,0.268-0.174,0.693-0.28,1.28c-0.08,0.56-0.12,0.96-0.12,1.2c-0.054,0.64-0.08,0.387-0.08-0.76
		c0.026-0.347,0.146-0.907,0.36-1.681l0.399-1.2l0.64-1.039c0.081-0.107,0.121-0.146,0.121-0.12L34.789,51.66z"/>
	<path style="fill-rule:evenodd;clip-rule:evenodd;fill:#577020;" d="M30.55,49.22c1.093-0.053,2.039,0.254,2.84,0.92
		c0.426,0.347,0.733,0.693,0.92,1.04c-0.08-0.106-0.268-0.173-0.561-0.2c-0.56-0.08-1.333,0.027-2.32,0.32
		c-1.066,0.587-1.893,1.026-2.479,1.32c-1.094,0.506-2.227,0.547-3.4,0.119c-1.574-0.533-2.613-1.493-3.12-2.879
		c-0.24-0.721-0.333-1.374-0.28-1.96l0.6,1.359c0.507,0.907,1.107,1.427,1.8,1.56c1.12,0.188,2.146,0.014,3.08-0.52
		C28.776,49.633,29.75,49.273,30.55,49.22z"/>
	<path style="fill-rule:evenodd;clip-rule:evenodd;fill:#577020;" d="M30.55,49.22c1.093-0.053,2.039,0.254,2.84,0.92
		c0.426,0.347,0.733,0.693,0.92,1.04c-0.08-0.106-0.268-0.173-0.561-0.2c-0.56-0.08-1.333,0.027-2.32,0.32
		c-1.066,0.587-1.893,1.026-2.479,1.32c-1.094,0.506-2.227,0.547-3.4,0.119c-1.574-0.533-2.613-1.493-3.12-2.879
		c-0.24-0.721-0.333-1.374-0.28-1.96l0.6,1.359c0.507,0.907,1.107,1.427,1.8,1.56c1.12,0.188,2.146,0.014,3.08-0.52
		C28.776,49.633,29.75,49.273,30.55,49.22z"/>
	<path style="fill-rule:evenodd;clip-rule:evenodd;fill:#495E1A;" d="M31.55,50.02l-0.86-0.26l2.38,0.66l-2.84,1.12
		c-0.48,0.32-0.946,0.573-1.4,0.76c-0.853,0.373-1.733,0.52-2.64,0.439c-0.907-0.053-1.707-0.479-2.4-1.279l-0.72-1.16l0.32,0.48
		c0.267,0.373,0.56,0.68,0.88,0.92c0.507,0.373,0.987,0.546,1.44,0.52c-0.08-0.293-0.174-0.507-0.28-0.64l-0.76-0.641l0.88,0.601
		c0.133,0.106,0.293,0.32,0.48,0.64c0.16,0.294,0.307,0.44,0.44,0.44c0.4,0.053,0.747,0,1.04-0.16
		c0.293-0.106,0.173-0.347-0.36-0.721c-0.24-0.159-0.546-0.333-0.92-0.52l-0.52-0.2l1.279,0.44l1.521,0.76
		c0.08,0,0.374-0.174,0.879-0.52c-0.133-0.24-0.4-0.44-0.8-0.601l-1.52-0.36l1.16,0.041c0.428,0.053,1,0.227,1.721,0.52
		c0.186-0.026,0.44-0.2,0.76-0.52c-0.294-0.188-0.601-0.32-0.92-0.4l-1.24-0.28l1.24,0.16c0.32,0.054,0.76,0.187,1.32,0.4
		c0.16,0.079,0.36,0.079,0.601,0c0.133-0.054,0.306-0.12,0.52-0.2C32.362,50.433,32.136,50.286,31.55,50.02z"/>
	<path style="fill-rule:evenodd;clip-rule:evenodd;fill:#6F8F27;" d="M29.029,52.58c-0.613,0.319-1.333,0.466-2.16,0.439
		c-1.626-0.053-2.867-0.653-3.72-1.8l-0.4-0.84l0.2,0.4c0.586,0.853,1.36,1.387,2.32,1.6c1.493,0.373,2.933,0.053,4.32-0.96
		c1.574-1.146,2.813-1.72,3.72-1.72c0.561,0,1.106,0.279,1.64,0.84c0.374,0.427,0.587,0.786,0.64,1.08
		c-0.347-0.16-0.786-0.28-1.319-0.36c-1.04-0.187-1.974-0.134-2.8,0.16C30.989,51.58,30.176,51.967,29.029,52.58z"/>
	<g>
		<polygon style="fill-rule:evenodd;clip-rule:evenodd;fill:#80A62D;" points="26.91,53.02 26.79,52.86 27.189,53.02 		"/>
		<path style="fill-rule:evenodd;clip-rule:evenodd;fill:#80A62D;" d="M31.47,51.42h-0.08c0.133-0.24,0.253-0.521,0.359-0.84
			c0,0.239-0.039,0.507-0.12,0.8L31.47,51.42z"/>
		<path style="fill-rule:evenodd;clip-rule:evenodd;fill:#80A62D;" d="M32.87,51.14l-0.441,0.04l1.2-1.08
			C33.442,50.446,33.189,50.793,32.87,51.14z"/>
		<path style="fill-rule:evenodd;clip-rule:evenodd;fill:#80A62D;" d="M33.829,51.18c0.373-0.134,0.681-0.307,0.92-0.52
			c-0.106,0.213-0.279,0.413-0.52,0.6L33.829,51.18z"/>
		<polygon style="fill-rule:evenodd;clip-rule:evenodd;fill:#80A62D;" points="30.47,51.819 30.27,51.899 30.39,51.34 		"/>
	</g>
	
		<radialGradient id="SVGID_7_" cx="35.0273" cy="0.9531" r="18.4149" gradientTransform="matrix(0.3834 0.7021 0.7021 -0.3834 2.8114 48.6319)" gradientUnits="userSpaceOnUse">
		<stop  offset="0" style="stop-color:#9E4761"/>
		<stop  offset="1" style="stop-color:#420D1D"/>
	</radialGradient>
	<path style="fill-rule:evenodd;clip-rule:evenodd;fill:url(#SVGID_7_);" d="M9.67,79.859c-0.32-3.066,0.72-5.866,3.12-8.399
		c2.106-2.214,4.653-3.693,7.64-4.44c3.707-0.906,6.68,0.213,8.92,3.36c2.32,3.253,2.399,6.853,0.24,10.8
		c-0.96,1.733-2.52,3.054-4.68,3.96c-2,0.88-4.16,1.267-6.48,1.159c-2.32-0.133-4.267-0.72-5.84-1.76
		C10.856,83.366,9.883,81.806,9.67,79.859z"/>
	
		<use xlink:href="#flash0.ai_x5F_3_x2F_Layer_5_copy_x2F__x3C_Path_x3E__x5F_5"  width="20.303" height="11.829" x="-0.003" y="-11.85" transform="matrix(0.8 0 0 -0.8 10.3501 68.7998)" style="overflow:visible;opacity:0.3594;enable-background:new    ;"/>
	<path style="fill-rule:evenodd;clip-rule:evenodd;fill:#2B1016;" d="M10.63,77.38l0.08,0.84c0.106,0.666,0.36,1.279,0.76,1.84
		c0.347,0.479,0.427,1.066,0.24,1.76c-0.08,0.347-0.2,0.641-0.36,0.88c0.027-0.213-0.12-0.546-0.439-1
		c-0.507-0.826-0.747-1.613-0.721-2.36c0.027-0.613,0.107-1.119,0.24-1.52L10.63,77.38z"/>
	
		<use xlink:href="#flash0.ai_x5F_3_x2F_Layer_5_copy_x2F__x3C_Path_x3E__x5F_3"  width="21.757" height="19.908" x="0.002" y="-19.889" transform="matrix(0.8 0 0 -0.8 6.3999 66.6504)" style="overflow:visible;opacity:0.3008;enable-background:new    ;"/>
	<path style="fill-rule:evenodd;clip-rule:evenodd;fill:#FFFFFF;" d="M15.07,74.899c0.293-0.453,0.667-0.627,1.12-0.52
		c0.48,0.106,0.56,0.387,0.24,0.84c-0.32,0.506-0.72,0.72-1.2,0.64C14.776,75.779,14.723,75.46,15.07,74.899z"/>
	<path style="fill-rule:evenodd;clip-rule:evenodd;fill:#FFFFFF;" d="M14.15,76.539c-0.054-0.159,0.013-0.293,0.2-0.399
		c0.187-0.08,0.307-0.014,0.36,0.199c0.053,0.268-0.014,0.428-0.2,0.48C14.323,76.873,14.203,76.779,14.15,76.539z"/>
	<path style="fill-rule:evenodd;clip-rule:evenodd;fill:#1F0B10;" d="M11.31,80.02c0.16,0.187,0.28,0.413,0.36,0.68
		c0.08,0.32,0.026,0.521-0.16,0.601s-0.333-0.054-0.44-0.4c-0.107-0.267-0.16-0.533-0.16-0.8c0.026-0.214,0.053-0.333,0.08-0.36
		C11.043,79.713,11.15,79.806,11.31,80.02z"/>
	
		<radialGradient id="SVGID_8_" cx="42.0537" cy="-37.6245" r="20.2829" gradientTransform="matrix(0.3224 0.7321 0.8051 -0.2771 63.0017 27.646)" gradientUnits="userSpaceOnUse">
		<stop  offset="0" style="stop-color:#9E4761"/>
		<stop  offset="1" style="stop-color:#420D1D"/>
	</radialGradient>
	<path style="fill-rule:evenodd;clip-rule:evenodd;fill:url(#SVGID_8_);" d="M48.949,64.18c1.947-0.054,3.693,0.68,5.24,2.2
		c1.386,1.387,2.399,3.187,3.039,5.399c0.613,2.16,0.721,4.253,0.32,6.28c-0.427,2.187-1.387,3.854-2.879,5
		c-3.36,2.587-6.895,2.974-10.601,1.16c-3.6-1.76-5.373-4.467-5.32-8.12c0.054-2.96,0.934-5.587,2.641-7.88
		C43.336,65.633,45.856,64.286,48.949,64.18z"/>
	
		<use xlink:href="#flash0.ai_x5F_3_x2F_Layer_5_x2F__x3C_Path_x3E__x5F_5"  width="5.333" height="21.7" y="-21.7" transform="matrix(0.8 0 0 -0.8 50.2998 66.5)" style="overflow:visible;opacity:0.3594;enable-background:new    ;"/>
	<path style="fill-rule:evenodd;clip-rule:evenodd;fill:#471A24;" d="M47.51,65.18l-0.761,0.24l0.36-0.24
		c0.373-0.187,0.854-0.334,1.439-0.44c0.721-0.133,1.493-0.013,2.32,0.36c0.453,0.215,0.785,0.234,1,0.061
		c-0.174,0.159-0.4,0.286-0.68,0.379c-0.613,0.24-1.2,0.228-1.761-0.039C48.789,65.18,48.149,65.073,47.51,65.18z"/>
	
		<use xlink:href="#flash0.ai_x5F_3_x2F_Layer_5_x2F__x3C_Path_x3E__x5F_3"  width="19.492" height="21.247" x="-0.065" y="-21.23" transform="matrix(0.8 0 0 -0.8 35.7998 61.5996)" style="overflow:visible;opacity:0.3008;enable-background:new    ;"/>
	<path style="fill-rule:evenodd;clip-rule:evenodd;fill:#FFFFFF;" d="M44.589,68.619c0.534-0.293,0.854-0.213,0.96,0.24
		c0.08,0.453-0.12,0.827-0.6,1.12c-0.453,0.294-0.747,0.2-0.88-0.28C43.936,69.246,44.109,68.887,44.589,68.619z"/>
	<path style="fill-rule:evenodd;clip-rule:evenodd;fill:#FFFFFF;" d="M43.949,70.699c0.24,0.027,0.36,0.134,0.36,0.32
		s-0.134,0.267-0.4,0.24c-0.239-0.027-0.333-0.134-0.28-0.32C43.683,70.753,43.789,70.673,43.949,70.699z"/>
	<path style="fill-rule:evenodd;clip-rule:evenodd;fill:#E691B6;" d="M50.67,65.979c-0.454,0.214-0.895,0.253-1.32,0.12
		c-0.4-0.133-0.574-0.28-0.521-0.439c0.027-0.107,0.228-0.094,0.6,0.039c0.187,0.08,0.374,0.16,0.561,0.24
		C50.683,65.859,50.909,65.873,50.67,65.979z"/>
</g>
</svg>
