<?xml version="1.0" encoding="iso-8859-1"?>
<!-- Generator: Adobe Illustrator 15.1.0, SVG Export Plug-In . SVG Version: 6.00 Build 0)  -->
<!DOCTYPE svg PUBLIC "-//W3C//DTD SVG 1.1//EN" "http://www.w3.org/Graphics/SVG/1.1/DTD/svg11.dtd">
<svg version="1.1" id="flash0.ai" xmlns="http://www.w3.org/2000/svg" xmlns:xlink="http://www.w3.org/1999/xlink" x="0px" y="0px"
	 width="42.95px" height="32.7px" viewBox="0 0 42.95 32.7" style="enable-background:new 0 0 42.95 32.7;" xml:space="preserve">
<g>
	<path style="fill-rule:evenodd;clip-rule:evenodd;fill:#FFFFFF;" d="M42.2,12.85L26.25,25.9c-0.566,0.399-1.283,0.633-2.15,0.699
		c-0.899,0.034-1.783-0.149-2.649-0.55L0.85,16.3c-0.5-0.4-0.783-0.95-0.85-1.65c-0.033-0.7,0.183-1.133,0.65-1.3
		c0.067-0.1,0.317-0.083,0.75,0.05c0.467,0.1,0.75,0.117,0.85,0.05l13-8.25c1.567-0.967,2.7-1.583,3.4-1.85
		c0.8-0.3,1.483-0.35,2.05-0.15l21.35,6.4c0.566,0.267,0.867,0.767,0.9,1.5S42.733,12.417,42.2,12.85z"/>
	<path style="fill-rule:evenodd;clip-rule:evenodd;fill:#D4D5D6;" d="M42.05,9.6c0.566,0.267,0.867,0.767,0.9,1.5
		s-0.217,1.316-0.75,1.75L26.25,25.9c-0.6,0.433-1.35,0.649-2.25,0.649c0.1-0.399,0.083-0.883-0.05-1.45
		c-0.134-0.533-0.3-0.866-0.5-1c7.733-10.5,11.733-15.883,12-16.149C35.583,7.883,35.934,7.9,36.5,8L42.05,9.6z"/>
	
		<linearGradient id="SVGID_1_" gradientUnits="userSpaceOnUse" x1="7.7266" y1="-15.9805" x2="38.3383" y2="-15.9805" gradientTransform="matrix(0.3389 0.9408 -0.9408 0.3389 -4.644394e-004 -2.223253e-004)">
		<stop  offset="0" style="stop-color:#E3E3E3"/>
		<stop  offset="1" style="stop-color:#FFFFFF"/>
	</linearGradient>
	<path style="fill-rule:evenodd;clip-rule:evenodd;fill:url(#SVGID_1_);" d="M41.95,11.9l-15.9,12.05
		c-0.533,0.434-1.217,0.7-2.05,0.8c-0.8,0.066-1.483-0.033-2.05-0.3L1.05,15.1c-0.9-0.434-1.15-1.017-0.75-1.75
		c0.1-0.2,0.317-0.45,0.65-0.75L15.3,3.95c1.6-0.967,2.717-1.583,3.35-1.85c0.8-0.3,1.483-0.35,2.05-0.15L41.8,9.4
		c0.566,0.267,0.867,0.65,0.9,1.15C42.733,11.017,42.483,11.467,41.95,11.9z"/>
	<path style="fill-rule:evenodd;clip-rule:evenodd;fill:#C9C9C9;" d="M2.95,14.15c0.633,0.7,2.35,1.867,5.15,3.5
		c2.566,1.5,5.15,2.866,7.75,4.1L1.05,15.1c-0.9-0.434-1.15-1.017-0.75-1.75c0.1-0.2,0.317-0.45,0.65-0.75L13.3,5.15
		c-5.033,3.434-7.6,5.184-7.7,5.25C3.233,12.2,2.35,13.45,2.95,14.15z"/>
	<path style="fill-rule:evenodd;clip-rule:evenodd;fill:#FFFFFF;" d="M41.8,9.4c0.566,0.267,0.867,0.65,0.9,1.15
		c0.033,0.467-0.217,0.917-0.75,1.35l-15.9,12.05c-0.533,0.434-1.217,0.7-2.05,0.8c-0.8,0.066-1.483-0.033-2.05-0.3L19.4,23.35
		c1.033,0.167,1.817,0.217,2.35,0.15c0.8-0.033,1.717-0.283,2.75-0.75c2.167-0.934,5.1-2.7,8.8-5.3c3.334-2.333,5.65-4.133,6.95-5.4
		c0.934-0.9,1.45-1.483,1.55-1.75c0.167-0.367-0.066-0.75-0.7-1.15L41.8,9.4z"/>
	<path style="fill-rule:evenodd;clip-rule:evenodd;fill:#BDBDBD;" d="M35.5,10.9c0.533,0.233,1.283,0.7,2.25,1.4
		c0.767,0.6,0.6,1.3-0.5,2.1c-1.667,1-2.9,1.833-3.7,2.5c-3.899,3.1-6.35,4.65-7.35,4.65c-1,0.066-1.767,0.084-2.3,0.05
		c-0.934-0.066-1.684-0.316-2.25-0.75c-0.434-0.366-1.734-0.933-3.9-1.699c-2.133-0.733-3.333-1.25-3.6-1.551
		c-0.033-0.033-0.65-0.433-1.85-1.2c-0.966-0.633-1.733-1.45-2.3-2.45c-0.667-1.233-1.05-2.417-1.15-3.55
		C8.75,9.433,8.867,8.85,9.2,8.65c8.867-0.5,14.717-0.633,17.55-0.4c1.6,0.1,2.866,0.433,3.8,1c1.033,0.6,1.816,0.933,2.351,1
		C34.033,10.417,34.9,10.633,35.5,10.9z"/>
	<path style="fill-rule:evenodd;clip-rule:evenodd;fill:#C77A18;" d="M35.65,9.15c0.233,0.167,0.399,0.717,0.5,1.65
		c0.1,0.867,0.1,1.467,0,1.8c-0.167,1.467-0.367,2.367-0.601,2.7c-0.3,0.5-0.934,0.9-1.899,1.2c-0.467,0.1-0.817,0.183-1.051,0.25
		c-0.399,0.067-0.816,0.217-1.25,0.45c-2,1.233-3.399,1.934-4.199,2.1c-0.534,0.101-0.917,0.117-1.15,0.05
		c-0.167-0.033-0.316-0.066-0.45-0.1c-0.666,0-1.166,0.033-1.5,0.1c-0.434,0.101-0.75,0.167-0.95,0.2c-0.3,0.066-0.6,0.066-0.899,0
		c-0.101-0.033-0.733-0.399-1.9-1.1c-1.1-0.667-1.9-1.017-2.4-1.05c-0.9-0.067-1.733-0.217-2.5-0.45c-0.333-0.1-0.667-0.25-1-0.45
		c-0.233-0.167-0.517-0.267-0.85-0.3c-0.633-0.067-1.083-0.15-1.35-0.25c-0.467-0.167-0.95-0.483-1.45-0.95
		c-0.4-0.367-0.833-0.667-1.3-0.9c-0.5-0.267-0.883-0.517-1.15-0.75l-2-1.75c-0.367-0.3-0.716-0.967-1.05-2
		C5.15,8.9,5.067,8.433,5,8.2C4.933,8.033,5.017,7.583,5.25,6.85l0.7-2.25l1.5-1.25C25.917,6.983,35.316,8.917,35.65,9.15z"/>
	<path style="fill-rule:evenodd;clip-rule:evenodd;fill:#B86419;" d="M35.65,9.15c0.233,0.167,0.399,0.717,0.5,1.65
		c0.1,0.867,0.1,1.467,0,1.8c-0.167,1.467-0.367,2.367-0.601,2.7c-0.3,0.5-0.934,0.9-1.899,1.2c-0.467,0.1-0.817,0.183-1.051,0.25
		c-0.399,0.067-0.816,0.217-1.25,0.45c-2,1.233-3.399,1.934-4.199,2.1c-0.534,0.101-0.917,0.117-1.15,0.05
		c-0.167-0.033-0.316-0.066-0.45-0.1c-0.666,0-1.166,0.033-1.5,0.1c-0.434,0.101-0.75,0.167-0.95,0.2c-0.3,0.066-0.6,0.066-0.899,0
		c-0.101-0.033-0.733-0.399-1.9-1.1c-1.1-0.667-1.9-1.017-2.4-1.05c-0.9-0.067-1.733-0.217-2.5-0.45c-0.333-0.1-0.667-0.25-1-0.45
		c-0.233-0.167-0.517-0.267-0.85-0.3c-0.633-0.067-1.083-0.15-1.35-0.25c-0.467-0.167-0.95-0.483-1.45-0.95
		c-0.4-0.367-0.833-0.667-1.3-0.9c-0.5-0.267-0.883-0.517-1.15-0.75l-2-1.75c-0.367-0.3-0.716-0.967-1.05-2
		C5.15,8.9,5.067,8.433,5,8.2C4.933,8.033,5.017,7.583,5.25,6.85l0.7-2.25l0.9-0.8c0.1,0.133,0.133,0.417,0.1,0.85
		c-0.034,0.5-0.034,0.817,0,0.95C7.05,6.033,6.9,6.3,6.5,6.4c-0.333,0.5-0.633,0.833-0.9,1C5.4,7.533,5.317,7.7,5.35,7.9
		c0,0.1,0.033,0.25,0.1,0.45c0,0.066,0.117,0.5,0.35,1.3l0.15,0.95l1.5,1.2c0.267,0.233,0.6,0.467,1,0.7l1.05-0.1
		c0.233,0,0.55,0.333,0.95,1l0.4,0.35c0.267,0.233,0.617,0.65,1.05,1.25c0.2,0.167,0.617,0.267,1.25,0.3l1.35,0.35
		c0.367,0.033,0.667,0.2,0.9,0.5l1.05,0.4l1.6,0.2C18.717,16.917,19.333,17,19.9,17c0.167,0.033,0.167-0.1,0-0.4l0.6,0.15
		c0.433,0.067,0.783,0.05,1.05-0.05c0.2-0.034,0.101-0.083-0.3-0.15c-0.533-0.1-0.8-0.216-0.8-0.35c0-0.067-0.367-0.133-1.1-0.2
		s-1.2-0.267-1.4-0.6c-0.167-0.333-0.434-0.55-0.8-0.65c-0.867-0.267-1.7-0.6-2.5-1c-0.633-0.333-1.133-0.7-1.5-1.1
		c-0.433-0.533-0.867-1.017-1.3-1.45C16.783,9.7,21.5,8.317,26,7.05C32.134,8.317,35.35,9.017,35.65,9.15z"/>
	<path style="fill-rule:evenodd;clip-rule:evenodd;fill:#B86419;" d="M13.55,14.4c0.7,0,1,0.2,0.9,0.6
		c-0.034,0.133-0.067,0.183-0.1,0.15C14.25,15.05,14.1,15,13.9,15c-0.566,0-0.933-0.017-1.1-0.05c-0.233-0.034-0.233-0.133,0-0.3
		C13,14.483,13.25,14.4,13.55,14.4z"/>
	<path style="fill-rule:evenodd;clip-rule:evenodd;fill:#B86419;" d="M15.4,14.8c0.233-0.033,0.383,0.034,0.45,0.2
		c0.066,0.167,0.033,0.3-0.1,0.4c-0.067,0.067-0.25,0.033-0.55-0.1c-0.1-0.033-0.117-0.117-0.05-0.25
		C15.217,14.917,15.3,14.833,15.4,14.8z"/>
	<path style="fill-rule:evenodd;clip-rule:evenodd;fill:#B86419;" d="M18.05,15.9c0.467,0.033,0.567,0.233,0.3,0.6
		c-0.167,0.067-0.367,0.017-0.6-0.15c-0.167-0.1-0.2-0.2-0.1-0.3C17.717,15.95,17.85,15.9,18.05,15.9z"/>
	<path style="fill-rule:evenodd;clip-rule:evenodd;fill:#B86419;" d="M8.1,11.25c0.133,0.033,0.267,0.167,0.4,0.4s0.133,0.4,0,0.5
		c-0.133,0.067-0.25,0.05-0.35-0.05c-0.233-0.3-0.383-0.467-0.45-0.5c-0.233-0.167-0.333-0.267-0.3-0.3
		C7.467,11.233,7.7,11.217,8.1,11.25z"/>
	<path style="fill-rule:evenodd;clip-rule:evenodd;fill:#C77A18;" d="M24.1,16.95c0.233,0.033,0.4,0.184,0.5,0.45
		c0.101,0.267-0.017,0.466-0.35,0.6c-0.267,0.134-0.45,0.184-0.55,0.15c-0.134-0.067-0.283-0.117-0.45-0.15
		c-0.4,0-0.65-0.3-0.75-0.9C22.434,16.733,22.967,16.683,24.1,16.95z"/>
	<path style="fill-rule:evenodd;clip-rule:evenodd;fill:#C77A18;" d="M26,16.7c0.134,0.167,0.217,0.366,0.25,0.6
		c0.066,0.3-0.017,0.483-0.25,0.55c-0.2,0.067-0.333,0.034-0.4-0.1c-0.033-0.267-0.083-0.467-0.149-0.6
		c-0.134-0.234-0.134-0.434,0-0.601C25.55,16.383,25.733,16.433,26,16.7z"/>
	<path style="fill-rule:evenodd;clip-rule:evenodd;fill:#C77A18;" d="M28.6,16.65c0.733,0.1,0.934,0.383,0.601,0.85
		c-0.134,0.167-0.267,0.25-0.4,0.25c-0.2-0.066-0.399-0.116-0.6-0.15c-0.267-0.033-0.351-0.216-0.25-0.55
		C28.083,16.75,28.3,16.617,28.6,16.65z"/>
	<path style="fill-rule:evenodd;clip-rule:evenodd;fill:#C77A18;" d="M27.45,18c0.267,0.033,0.399,0.116,0.399,0.25
		c-0.033,0.167-0.183,0.25-0.449,0.25s-0.367-0.083-0.301-0.25C27.2,18.05,27.316,17.967,27.45,18z"/>
	<path style="fill-rule:evenodd;clip-rule:evenodd;fill:#C77A18;" d="M33.55,14.05c0.267-0.1,0.517-0.083,0.75,0.05
		c0.233,0.167,0.316,0.367,0.25,0.6c-0.066,0.2-0.133,0.333-0.2,0.4c-0.033,0.033-0.216,0.117-0.55,0.25
		c-0.267,0.133-0.45,0.183-0.55,0.15c-0.134-0.033-0.267-0.083-0.4-0.15c-0.166-0.067-0.233-0.184-0.199-0.35
		c0.033-0.167,0.033-0.267,0-0.3C32.45,14.5,32.75,14.283,33.55,14.05z"/>
	<path style="fill-rule:evenodd;clip-rule:evenodd;fill:#C77A18;" d="M35.4,12.9c0.267,0.033,0.233,0.383-0.101,1.05
		c-0.066,0.133-0.149,0.167-0.25,0.1c-0.1-0.1-0.2-0.183-0.3-0.25c-0.134-0.1-0.1-0.283,0.1-0.55
		C35.017,12.983,35.2,12.867,35.4,12.9z"/>
	<path style="fill-rule:evenodd;clip-rule:evenodd;fill:#C77A18;" d="M35.1,14.8c0.233-0.033,0.317,0.034,0.25,0.2
		c-0.066,0.167-0.199,0.3-0.399,0.4c-0.167,0.1-0.217,0.033-0.15-0.2C34.9,14.933,35,14.8,35.1,14.8z"/>
	<path style="fill-rule:evenodd;clip-rule:evenodd;fill:#C77A18;" d="M21.5,17.35c0.434,0.267,0.65,0.467,0.65,0.601
		c0,0.1-0.184,0.25-0.551,0.45c-0.3,0.166-0.5,0.133-0.6-0.101c-0.1-0.366-0.217-0.616-0.35-0.75c-0.167-0.2-0.117-0.316,0.15-0.35
		C21.033,17.167,21.267,17.217,21.5,17.35z"/>
	<path style="fill-rule:evenodd;clip-rule:evenodd;fill:#D98923;" d="M30.5,4.1c0.2,0.267,0.45,0.467,0.75,0.6
		c0.4,0.167,0.684,0.316,0.85,0.45c0.5,0.434,0.817,0.733,0.95,0.9c0.134,0.167,0.4,0.317,0.8,0.45c0.4,0.133,0.65,0.333,0.75,0.6
		c0.233,0.633,0.467,1.066,0.7,1.3c0.533,0.533,0.717,1.083,0.55,1.65c0.2,0,0.101,0.467-0.3,1.4c-0.2,0.466-0.35,0.816-0.45,1.05
		L34.35,13c-0.366,0.267-0.733,0.45-1.1,0.55c-0.4,0.1-0.7,0.217-0.9,0.35c-0.233,0.167-0.466,0.3-0.699,0.4
		c-0.334,0.1-0.634,0.233-0.9,0.4c-0.767,0.433-1.583,0.716-2.45,0.85c-1.467,0.2-2.517,0.333-3.149,0.4
		c-0.601,0.066-1.684-0.05-3.25-0.35c-0.101,0-0.851-0.217-2.25-0.65c-1.3-0.434-2.1-0.633-2.4-0.6
		c-0.333,0.033-0.717-0.05-1.15-0.25c-0.5-0.2-0.883-0.35-1.15-0.45c-1.167-0.467-1.9-0.717-2.2-0.75
		c-0.333-0.033-0.7-0.133-1.1-0.3c-0.667-0.333-1.1-0.533-1.3-0.6c-0.967-0.367-1.983-1.133-3.05-2.3
		c-0.433-0.467-0.767-0.717-1-0.75c-0.1,0-0.15-0.117-0.15-0.35C6.117,8.033,6.1,7.717,6.1,7.65C6.133,7.283,6.267,6.867,6.5,6.4
		c0.2-0.333,0.167-0.733-0.1-1.2C6.167,4.733,6.183,4.333,6.45,4c0.333-0.433,0.767-0.833,1.3-1.2c0.333-0.233,0.933-0.65,1.8-1.25
		c0.633-0.433,1.3-0.75,2-0.95c0.4-0.1,1-0.217,1.8-0.35c1.167-0.267,2.25-0.333,3.25-0.2c0.733,0.067,1.8,0.2,3.2,0.4
		c0.8,0.066,2.017,0.316,3.65,0.75c1.6,0.433,2.816,0.833,3.649,1.2L28.7,3.15l0.7,0.2C29.934,3.55,30.3,3.8,30.5,4.1z"/>
	<path style="fill-rule:evenodd;clip-rule:evenodd;fill:#C77A18;" d="M32.1,5.15c0.5,0.434,0.817,0.733,0.95,0.9
		c0.134,0.167,0.4,0.317,0.8,0.45c0.4,0.133,0.65,0.333,0.75,0.6c0.233,0.633,0.467,1.066,0.7,1.3c0.167,0.167,0.3,0.367,0.4,0.6
		c-0.7,0.2-1.217,0.3-1.55,0.3c-0.067,0-0.134-0.133-0.2-0.4L33.9,8.5c-0.801-0.267-1.217-0.483-1.25-0.65
		c-0.5-0.267-0.834-0.5-1-0.7C31.55,7.017,31.6,6.75,31.8,6.35s0.283-0.667,0.25-0.8c-0.033-0.167-0.25-0.267-0.649-0.3
		c-0.534-0.033-0.817-0.067-0.851-0.1c-0.1-0.066-0.399-0.133-0.899-0.2C29.217,4.883,28.967,4.8,28.9,4.7
		c-0.067-0.067-0.2-0.117-0.4-0.15c-0.3-0.066-0.6-0.167-0.9-0.3C27.267,4.117,27.05,4,26.95,3.9c-0.2-0.167-0.351-0.283-0.45-0.35
		c-0.2-0.1-0.483-0.1-0.85,0c-0.334,0.1-0.534,0.117-0.601,0.05c-0.1-0.1-0.1-0.267,0-0.5l0.15-0.3c-0.3-0.233-0.601-0.383-0.9-0.45
		C24.134,2.317,23.833,2.3,23.4,2.3c-0.367,0-0.584-0.033-0.65-0.1c-0.066-0.067-0.184-0.067-0.35,0c-0.367,0.1-0.7,0.167-1,0.2
		c-0.434,0.067-0.833-0.117-1.2-0.55c-0.333-0.5-0.567-0.8-0.7-0.9c-0.133-0.1-0.3-0.133-0.5-0.1c-0.3,0.066-0.567,0.083-0.8,0.05
		c-0.133-0.033-0.467-0.017-1,0.05c-0.4,0.033-0.7-0.05-0.9-0.25c-0.233-0.3-0.983-0.5-2.25-0.6c0.767-0.133,1.617-0.15,2.55-0.05
		c0.733,0.067,1.8,0.2,3.2,0.4c0.8,0.066,2.017,0.316,3.65,0.75c1.6,0.433,2.816,0.833,3.649,1.2L28.7,3.15l0.7,0.2
		c0.533,0.2,0.899,0.45,1.1,0.75c0.2,0.267,0.45,0.467,0.75,0.6C31.65,4.867,31.934,5.017,32.1,5.15z"/>
	<path style="fill-rule:evenodd;clip-rule:evenodd;fill:#C77A18;" d="M21.35,11.65c0.167,0,0.25-0.1,0.25-0.3
		c-0.033-0.2,0-0.3,0.101-0.3c0.533,0.067,1.033,0.083,1.5,0.05c0.233-0.033,0.217,0.133-0.05,0.5c-0.367,0.4-0.584,0.65-0.65,0.75
		c-0.134,0.167-0.366,0.233-0.7,0.2c-0.166,0.034-0.383,0.067-0.649,0.1c-0.101,0.033-0.351,0.2-0.75,0.5
		c-0.2,0.167-0.35,0.233-0.45,0.2c-0.1,0-0.233-0.083-0.4-0.25c-0.133-0.1-0.183-0.167-0.15-0.2c0.033-0.1,0.067-0.217,0.1-0.35
		c0.067-0.233,0.3-0.45,0.7-0.65C20.6,11.7,20.983,11.617,21.35,11.65z"/>
	<path style="fill-rule:evenodd;clip-rule:evenodd;fill:#C77A18;" d="M25.25,12.15c0.434-0.033,0.783,0.033,1.05,0.2
		c0.233,0.133,0.3,0.283,0.2,0.45c-0.066,0.167-0.333,0.3-0.8,0.4c-0.3,0.133-0.566,0.183-0.8,0.15c-0.233-0.067-0.45-0.3-0.65-0.7
		C24.083,12.317,24.417,12.15,25.25,12.15z"/>
	<path style="fill-rule:evenodd;clip-rule:evenodd;fill:#C77A18;" d="M33.65,7.4c0.1-0.066,0.416-0.167,0.949-0.3
		C34.866,7.033,34.9,7.167,34.7,7.5l-0.8,1C33.467,8.6,33.1,8.65,32.8,8.65c-0.233,0.033-0.416,0.167-0.55,0.4
		c-0.134,0.167-0.2,0.35-0.2,0.55l-0.1,1c-0.033,0.2-0.25,0.316-0.65,0.35C30.9,10.983,30.667,11,30.6,11
		c-0.866-0.3-1.449-0.467-1.75-0.5c-0.366-0.067-0.466-0.217-0.3-0.45c0.101-0.133,0.834-0.3,2.2-0.5
		c-0.033-0.133-0.05-0.267-0.05-0.4c-0.033-0.333,0-0.566,0.1-0.7c0.101-0.133,0.233-0.217,0.4-0.25c0.066,0,0.2,0.017,0.399,0.05
		c0.134,0.033,0.483-0.1,1.051-0.4C33.283,7.583,33.616,7.433,33.65,7.4z"/>
	<path style="fill-rule:evenodd;clip-rule:evenodd;fill:#C77A18;" d="M32.55,6c0.101,0.067,0.017,0.1-0.25,0.1l0.5,0.25L32.2,6.3
		c-0.167,0.133-0.3,0.2-0.4,0.2l-0.45,0.1H30.1l0.65-0.5c0.233-0.133,0.55-0.217,0.95-0.25C31.8,5.783,32.083,5.833,32.55,6z"/>
	<path style="fill-rule:evenodd;clip-rule:evenodd;fill:#C77A18;" d="M27.05,5.45c-0.2,0-0.3-0.1-0.3-0.3v-0.3l1.3-0.55
		c0.3-0.2,0.783-0.233,1.45-0.1c0.366,0.267,0.533,0.466,0.5,0.6c0,0.133-0.083,0.217-0.25,0.25c-0.4,0.1-0.717,0.083-0.95-0.05
		c-0.1-0.067-0.383,0-0.85,0.2C27.483,5.367,27.184,5.45,27.05,5.45z"/>
	<path style="fill-rule:evenodd;clip-rule:evenodd;fill:#C77A18;" d="M28.4,6.25c0.133,0.333,0.033,0.517-0.301,0.55
		c-0.399,0.067-0.666,0.083-0.8,0.05c-0.1-0.033-0.116-0.117-0.05-0.25c0.066-0.1,0.15-0.184,0.25-0.25
		C27.667,6.25,27.967,6.217,28.4,6.25z"/>
	<path style="fill-rule:evenodd;clip-rule:evenodd;fill:#C77A18;" d="M21.75,8.95c0.467-0.1,0.9-0.1,1.3,0
		C23.816,9.217,24.1,9.367,23.9,9.4C23.8,9.433,23.6,9.433,23.3,9.4c-0.366-0.033-0.717,0.067-1.05,0.3
		C22.217,9.733,22.134,9.833,22,10c-0.066,0.067-0.15,0.2-0.25,0.4c-0.033,0.067-0.1,0.117-0.2,0.15c-0.133,0-0.233,0.034-0.3,0.1
		l-0.05,0.1c-0.333,0-0.534,0.033-0.6,0.1c-0.133,0.1-0.3,0.183-0.5,0.25c-0.2,0.1-0.4,0.133-0.6,0.1c-0.2,0-0.367,0.033-0.5,0.1
		c-0.2,0.067-0.433,0.267-0.7,0.6c-0.066,0.133-0.133,0.217-0.2,0.25c-0.033,0.033-0.217,0.033-0.55,0c-0.267,0-0.5,0.05-0.7,0.15
		c-0.167,0.1-0.3,0.15-0.4,0.15c-0.367,0.066-0.784,0.017-1.25-0.15c-0.133-0.033-0.25-0.066-0.35-0.1
		c-0.133-0.067-0.133-0.167,0-0.3c0.1-0.133,0.267-0.25,0.5-0.35c0.3-0.133,0.517-0.267,0.65-0.4c0.067-0.066,0.183-0.217,0.35-0.45
		c0.1-0.133,0.3-0.267,0.6-0.4c0.233-0.066,0.6-0.383,1.1-0.95c0.4-0.467,0.667-0.65,0.8-0.55c0.5,0.3,0.833,0.467,1,0.5
		c0.333,0.067,0.7,0.05,1.1-0.05C21.15,9.183,21.417,9.083,21.75,8.95z"/>
	<path style="fill-rule:evenodd;clip-rule:evenodd;fill:#C77A18;" d="M24.2,9.45C23.934,9.317,24.233,9.167,25.1,9
		c0.034,0,0.134-0.083,0.301-0.25c0.199-0.2,0.449-0.333,0.75-0.4c0.533-0.1,0.833-0.033,0.899,0.2c0.134,0,0.217,0.067,0.25,0.2
		c0,0.067,0.017,0.233,0.05,0.5c0.067,0.167,0.067,0.233,0,0.2c-0.133-0.034-0.267-0.017-0.399,0.05c-0.233,0.167-0.5,0.333-0.8,0.5
		c-0.2,0.1-0.4,0.133-0.601,0.1c-0.2-0.067-0.35-0.117-0.45-0.15c-0.1,0-0.216-0.05-0.35-0.15C24.517,9.633,24.333,9.517,24.2,9.45z
		"/>
	<path style="fill-rule:evenodd;clip-rule:evenodd;fill:#C77A18;" d="M26.85,3c0.334,0.2,0.467,0.333,0.4,0.4
		c-0.233,0.167-0.483,0.217-0.75,0.15c-0.233,0-0.483-0.1-0.75-0.3C25.483,3.017,25.85,2.933,26.85,3z"/>
	<path style="fill-rule:evenodd;clip-rule:evenodd;fill:#C77A18;" d="M24.25,1.9c0.333,0.033,0.6,0.25,0.8,0.65
		C24.717,2.783,24.5,2.967,24.4,3.1c-0.067,0.066-0.184,0.1-0.351,0.1c-0.2-0.034-0.366-0.05-0.5-0.05c-0.1-0.033-0.1-0.167,0-0.4
		c0.134-0.233,0.167-0.35,0.101-0.35c-0.634,0.2-1.084,0.317-1.351,0.35C22,2.817,21.7,2.7,21.4,2.4C21.033,2.233,20.75,2.1,20.55,2
		c-0.4-0.2-0.533-0.333-0.4-0.4c0.2-0.1,0.6-0.15,1.2-0.15c0.534-0.034,1-0.017,1.4,0.05C23.217,1.6,23.717,1.733,24.25,1.9z"/>
	<path style="fill-rule:evenodd;clip-rule:evenodd;fill:#C77A18;" d="M22.3,6.1c-0.267,0.1-0.566,0.017-0.899-0.25
		c-0.334-0.267-0.5-0.483-0.5-0.65c-0.033-0.267-0.233-0.517-0.6-0.75c-0.1-0.1,0.133-0.117,0.7-0.05
		c0.467,0.033,0.816,0.067,1.05,0.1l2.2,0.3c0.267,0.034,0.434,0.1,0.5,0.2c0.033,0.067,0.083,0.2,0.15,0.4
		C25,5.6,24.55,5.7,23.55,5.7c-0.366,0.033-0.616,0.083-0.75,0.15C22.667,5.95,22.5,6.033,22.3,6.1z"/>
	<path style="fill-rule:evenodd;clip-rule:evenodd;fill:#C77A18;" d="M22.5,3.5c0.233,0.033,0.4,0.133,0.5,0.3
		c0.1,0.167-0.033,0.233-0.4,0.2l-2.2-0.15c-0.267-0.033-0.233-0.267,0.1-0.7c0.067-0.167,0.283-0.066,0.65,0.3
		C21.217,3.55,21.667,3.567,22.5,3.5z"/>
	<path style="fill-rule:evenodd;clip-rule:evenodd;fill:#C77A18;" d="M13.4,9.9c-0.233,0.033-0.417,0.033-0.55,0
		c-0.2,0-0.267-0.1-0.2-0.3c0.167-0.5,0.6-0.833,1.3-1c0.333-0.067,0.5-0.083,0.5-0.05c0.033,0,0.35-0.15,0.95-0.45l2-0.9
		c0.4,0.1,0.517,0.2,0.35,0.3c0.033,0.133-0.15,0.217-0.55,0.25c-0.267,0.033-0.6,0.417-1,1.15c-0.4,0.767-0.667,1.15-0.8,1.15
		c-0.333,0.133-0.633,0.167-0.9,0.1C14,9.917,13.633,9.833,13.4,9.9z"/>
	<path style="fill-rule:evenodd;clip-rule:evenodd;fill:#C77A18;" d="M15.1,6.25c0.133-0.067,0.267,0,0.4,0.2
		c0.167,0.2,0.167,0.316,0,0.35c-0.633,0.467-1.05,0.684-1.25,0.65c-0.967,0-1.583,0.216-1.85,0.65
		c-0.133,0.333-0.217,0.55-0.25,0.65c-0.1,0.167-0.25,0.283-0.45,0.35l-0.85,0.35c-0.1,0-0.15-0.017-0.15-0.05
		c-0.067-0.033-0.034-0.1,0.1-0.2c0.167-0.167,0.317-0.417,0.45-0.75c-0.9,0.5-1.5,0.7-1.8,0.6c-0.5-0.2-0.633-0.4-0.4-0.6
		c0.133-0.1,0.367-0.2,0.7-0.3c0.367-0.1,0.633-0.217,0.8-0.35c0.3-0.233,0.667-0.433,1.1-0.6c0.033,0,0.217-0.083,0.55-0.25
		c0.2-0.1,0.367-0.117,0.5-0.05c0.5,0.367,0.95,0.367,1.35,0L15.1,6.25z"/>
	<path style="fill-rule:evenodd;clip-rule:evenodd;fill:#C77A18;" d="M18.15,5.6c0.133,0.033,0.283-0.067,0.45-0.3
		c0.2-0.267,0.35-0.433,0.45-0.5c0.2-0.1,0.3-0.05,0.3,0.15c0,0.233-0.05,0.417-0.15,0.55c-0.034,0.067-0.034,0.167,0,0.3
		c0.033,0.133,0,0.25-0.1,0.35c-0.1,0.133-0.2,0.2-0.3,0.2c-0.133-0.033-0.267-0.067-0.4-0.1c-0.2,0-0.383-0.117-0.55-0.35
		C17.717,5.667,17.817,5.567,18.15,5.6z"/>
	<path style="fill-rule:evenodd;clip-rule:evenodd;fill:#C77A18;" d="M11.1,10.35c0.367-0.167,0.717-0.133,1.05,0.1
		c0.133,0.1,0.15,0.2,0.05,0.3c-0.2,0.2-0.317,0.35-0.35,0.45c-0.167,0.267-0.4,0.25-0.7-0.05c-0.1-0.133-0.417-0.233-0.95-0.3
		C9.933,10.817,10.233,10.65,11.1,10.35z"/>
	<path style="fill-rule:evenodd;clip-rule:evenodd;fill:#C77A18;" d="M9.65,6.45C9.05,6.883,8.5,7.383,8,7.95
		C7.833,8.117,7.567,8.3,7.2,8.5C6.733,8.7,6.367,8.867,6.1,9l0.3-0.7l0.05-0.75C6.55,7.25,6.667,7,6.8,6.8
		c0.167-0.2,0.383-0.216,0.65-0.05c0.2,0,0.466-0.1,0.8-0.3c0.1,0,0.733-0.25,1.9-0.75c0.067,0,0.033,0.1-0.1,0.3
		C9.95,6.167,9.817,6.317,9.65,6.45z"/>
	<path style="fill-rule:evenodd;clip-rule:evenodd;fill:#C77A18;" d="M16.7,3.25c-0.1,0.233-0.284,0.433-0.55,0.6
		c-0.2,0.167-0.967,0.5-2.3,1c-0.7,0.267-1.067,0.367-1.1,0.3c-0.033-0.233-0.083-0.367-0.15-0.4c-0.233-0.1-0.133-0.283,0.3-0.55
		c0.434-0.233,0.867-0.383,1.3-0.45l0.05-0.35L13.2,2.85c0-0.067,0.117-0.117,0.35-0.15c0.367-0.067,0.667-0.167,0.9-0.3
		c0.267-0.133,0.417-0.183,0.45-0.15c0.2,0.1,0.35,0.167,0.45,0.2l1.2,0.4C16.717,2.917,16.767,3.05,16.7,3.25z"/>
	<path style="fill-rule:evenodd;clip-rule:evenodd;fill:#C77A18;" d="M11.75,2.1c0.2-0.033,0.167,0.033-0.1,0.2
		C11.417,2.433,11.2,2.483,11,2.45c-0.167-0.034-0.267,0-0.3,0.1C10.6,2.783,10.517,2.933,10.45,3C10.317,3.133,10,3.333,9.5,3.6
		C9.3,3.7,9.15,3.733,9.05,3.7C8.917,3.6,8.767,3.533,8.6,3.5C8.3,3.467,8.35,3.333,8.75,3.1c0.367-0.233,0.817-0.367,1.35-0.4
		L11.75,2.1z"/>
	<path style="fill-rule:evenodd;clip-rule:evenodd;fill:#C77A18;" d="M17.1,0.75c0.833,0.1,1.066,0.217,0.7,0.35
		c-0.167,0.066-0.383,0.167-0.65,0.3c-0.2,0.167-0.483,0.184-0.85,0.05l-0.9-0.2c-0.233-0.033-0.1-0.133,0.4-0.3
		C16.267,0.817,16.7,0.75,17.1,0.75z"/>
	<path style="fill-rule:evenodd;clip-rule:evenodd;fill:#C77A18;" d="M19.55,1.45c0.152-0.041,0.277-0.074,0.375-0.1
		C19.842,1.482,19.8,1.715,19.8,2.05c-0.033,0.167-0.066,0.267-0.1,0.3c-0.267,0.133-0.417,0.217-0.45,0.25
		c-0.167,0.167-0.233,0.267-0.2,0.3c0.034,0.133,0.05,0.217,0.05,0.25c-0.033,0.133-0.167,0.167-0.4,0.1c-0.1,0-0.55-0.133-1.35-0.4
		c-0.533-0.2-0.684-0.367-0.45-0.5c0.133-0.1,0.383-0.233,0.75-0.4c0.167-0.133,0.467-0.25,0.9-0.35
		C18.983,1.467,19.317,1.417,19.55,1.45z"/>
	<path style="fill-rule:evenodd;clip-rule:evenodd;fill:#C77A18;" d="M17.4,4.9c-0.066-0.033-0.183-0.15-0.35-0.35
		c-0.1-0.1-0.167-0.15-0.2-0.15c-0.167,0-0.283-0.017-0.35-0.05c-0.2-0.033-0.183-0.117,0.05-0.25C16.783,3.933,17,3.833,17.2,3.8
		l1.4,0.3c0.066,0.066,0.066,0.117,0,0.15c-0.2,0.067-0.417,0.183-0.65,0.35C17.683,4.8,17.5,4.9,17.4,4.9z"/>
	<path style="fill-rule:evenodd;clip-rule:evenodd;fill:#E09636;" d="M33.95,6.55c0.166,0.067,0.416,0.267,0.75,0.6L34.6,7.1
		L33.65,7.4c-0.301,0.133-0.5,0.25-0.601,0.35c-0.533,0.267-0.85,0.467-0.95,0.6c-0.033,0.1-0.449,0.033-1.25-0.2
		c-1.033,0.033-1.583-0.033-1.649-0.2L29.1,7.8c-0.199-0.267-0.116-0.483,0.25-0.65c0.134-0.066,0.301-0.183,0.5-0.35
		c0.2-0.167,0.417-0.25,0.65-0.25l2.2-0.35c0.533-0.034,0.767-0.034,0.7,0c-0.167,0.066-0.2,0.117-0.101,0.15
		C33.566,6.383,33.783,6.45,33.95,6.55z"/>
	<path style="fill-rule:evenodd;clip-rule:evenodd;fill:#E09636;" d="M24.55,7.35c0.7-0.2,1.101-0.3,1.2-0.3L28,7.25
		c-0.1,0.233-0.217,0.383-0.35,0.45L26.85,8.3c-0.233-0.033-0.466,0-0.699,0.1l-0.5,0.15c-0.101,0-0.217,0.083-0.351,0.25L25.1,9
		l-0.5-0.15c0.067-0.067-0.083-0.1-0.449-0.1l-1-0.2l0.399-0.3C23.75,8.15,23.9,8,24,7.8C24.066,7.6,24.25,7.45,24.55,7.35z"/>
	<path style="fill-rule:evenodd;clip-rule:evenodd;fill:#E09636;" d="M21.35,5.6l0.5,0.25c0.367,0.167,0.617,0.2,0.75,0.1
		C22.9,5.783,23.333,5.8,23.9,6c0.1,0.067,0.017,0.183-0.25,0.35c-0.034,0-0.684,0.3-1.95,0.9c-0.8,0.4-1.15,0.55-1.05,0.45
		l0.1-0.05c-0.254,0.083-0.688-0.05-1.3-0.4C19.283,7.15,19.133,7.1,19,7.1c-0.267,0-0.55-0.033-0.85-0.1c-0.4-0.1-0.5-0.2-0.3-0.3
		c0.1-0.067,0.233-0.117,0.4-0.15L19.4,5.5c0.434-0.4,0.767-0.617,1-0.65c0.233-0.067,0.417-0.017,0.55,0.15L21.35,5.6z"/>
	<path style="fill-rule:evenodd;clip-rule:evenodd;fill:#E09636;" d="M15.3,0.5l1,0.2c-0.2,0.167-0.45,0.3-0.75,0.4
		c-0.167,0.066-0.283,0.183-0.35,0.35c-0.067,0.233-0.133,0.4-0.2,0.5c-0.133,0.2-0.3,0.283-0.5,0.25c-0.033,0-0.317-0.067-0.85-0.2
		c-0.233-0.1-0.483-0.167-0.75-0.2c-1.066,0.034-1.717-0.017-1.95-0.15c-0.2-0.1-0.167-0.2,0.1-0.3c0.267-0.1,0.534-0.15,0.8-0.15
		c0.2,0,0.4-0.067,0.6-0.2c0.233-0.1,0.417-0.15,0.55-0.15s0.45-0.05,0.95-0.15C14.483,0.567,14.933,0.5,15.3,0.5z"/>
	<path style="fill-rule:evenodd;clip-rule:evenodd;fill:#E09636;" d="M10.85,3.75c0.167,0.033,0.2,0.167,0.1,0.4
		c-0.1,0.267-0.267,0.417-0.5,0.45L9.3,4.9C9.1,4.967,8.95,5.083,8.85,5.25c-0.167,0.267-0.3,0.467-0.4,0.6
		c-0.2,0.233-0.383,0.333-0.55,0.3C7.7,6.083,7.517,6.033,7.35,6C7.15,5.967,7.1,5.85,7.2,5.65C7.267,5.583,7.367,5.467,7.5,5.3
		c0.033-0.066,0.017-0.133-0.05-0.2l-0.3-0.3c-0.066-0.167-0.066-0.4,0-0.7c0.1-0.2,0.417-0.517,0.95-0.95
		C8.2,3.083,8.433,2.867,8.8,2.5C9.1,2.2,9.367,2,9.6,1.9c0.167-0.066,0.333-0.017,0.5,0.15c0.133,0.167,0.083,0.333-0.15,0.5
		C9.717,2.717,9.617,2.867,9.65,3c0,0.1,0.033,0.25,0.1,0.45C9.75,3.65,10.117,3.75,10.85,3.75z"/>
	<path style="fill-rule:evenodd;clip-rule:evenodd;fill:#E09636;" d="M13,2.95c0.333-0.034,0.6,0,0.8,0.1
		c0.233,0.133,0.3,0.317,0.2,0.55c-0.1,0.167-0.167,0.233-0.2,0.2c-0.1-0.033-0.267-0.017-0.5,0.05c-0.066,0.033-0.216,0.1-0.45,0.2
		C12.817,4.083,12.667,4.1,12.4,4.1c-0.3,0-0.5-0.033-0.6-0.1c-0.066-0.1-0.133-0.183-0.2-0.25c-0.1-0.067,0.033-0.2,0.4-0.4
		C12.367,3.117,12.7,2.983,13,2.95z"/>
	<path style="fill-rule:evenodd;clip-rule:evenodd;fill:#E09636;" d="M20.3,1.15C19.667,1.317,19.05,1.6,18.45,2L18.1,2.1
		c-1.133,0.367-1.717,0.5-1.75,0.4c-0.067-0.1-0.1-0.183-0.1-0.25c0-0.167,0.183-0.367,0.55-0.6c0.7-0.5,1.167-0.75,1.4-0.75
		c0.233,0.033,0.667,0.05,1.3,0.05c0.067,0,0.383,0.017,0.95,0.05C20.75,1.033,20.7,1.083,20.3,1.15z"/>
	<path style="fill-rule:evenodd;clip-rule:evenodd;fill:#E09636;" d="M15.3,5.1c0.5,0,0.867,0.033,1.1,0.1
		c0.233,0.066,0.267,0.233,0.1,0.5c-0.767,0.5-1.267,0.767-1.5,0.8c-0.633,0.433-1.067,0.7-1.3,0.8c-0.133,0.067-0.3,0.083-0.5,0.05
		c-0.4-0.1-0.633-0.15-0.7-0.15c-0.1,0-0.7,0.05-1.8,0.15c-0.4,0.033-0.517-0.033-0.35-0.2c0.1-0.1,0.283-0.25,0.55-0.45
		c0.267-0.333,0.633-0.483,1.1-0.45c0.2,0,0.567-0.167,1.1-0.5c0.533-0.367,0.9-0.567,1.1-0.6C14.4,5.083,14.767,5.067,15.3,5.1z"/>
	<path style="fill-rule:evenodd;clip-rule:evenodd;fill:#E09636;" d="M14.3,10.95l0.75-0.7c0.534-0.5,0.784-0.783,0.75-0.85
		c0.333-0.367,0.583-0.6,0.75-0.7c0.267-0.2,0.617-0.284,1.05-0.25c0.066,0,0.217-0.017,0.45-0.05c0.267-0.1,0.517-0.133,0.75-0.1
		c0.3,0.034,0.367,0.133,0.2,0.3c-0.033,0.033-0.45,0.4-1.25,1.1c-0.467,0.4-0.867,0.667-1.2,0.8c-0.333,0.133-0.683,0.333-1.05,0.6
		c-0.433,0.367-0.667,0.517-0.7,0.45c-0.167-0.233-0.267-0.35-0.3-0.35C14.267,11.167,14.2,11.083,14.3,10.95z"/>
	<path style="fill-rule:evenodd;clip-rule:evenodd;fill:#E09636;" d="M25.8,3.9L28,3.65c0.167-0.033,0.233,0,0.2,0.1
		c-0.033,0.067-0.134,0.233-0.3,0.5c-0.101,0.2-0.184,0.3-0.25,0.3C27.483,4.583,27.384,4.6,27.35,4.6
		c-0.5,0.167-0.85,0.333-1.05,0.5c-0.333,0.267-0.649,0.167-0.95-0.3c-0.1-0.133-0.433-0.383-1-0.75c-0.366-0.233-0.3-0.333,0.2-0.3
		C24.85,3.783,25.267,3.833,25.8,3.9z"/>
	<path style="fill-rule:evenodd;clip-rule:evenodd;fill:#E09636;" d="M29.25,5c0.267-0.067,0.517-0.017,0.75,0.15
		c0.233,0.167,0.3,0.3,0.2,0.4c-0.3,0.167-0.483,0.3-0.55,0.4C29.55,6.083,29.3,6.183,28.9,6.25c-0.134,0-0.267-0.05-0.4-0.15
		c-0.267-0.2-0.417-0.317-0.45-0.35C27.783,5.583,28.184,5.333,29.25,5z"/>
	<path style="fill-rule:evenodd;clip-rule:evenodd;fill:#E09636;" d="M26.85,12.15c0.101,0.067,0.101,0.117,0,0.15
		c-0.166,0.067-0.399-0.183-0.699-0.75c-0.301-0.533-0.384-0.867-0.25-1c0.199-0.167,1.083-0.333,2.649-0.5
		c0.134-0.033,0.334,0.083,0.601,0.35c0.3,0.267,0.533,0.55,0.699,0.85c0.101,0.233,0.017,0.35-0.25,0.35
		c-0.699,0.033-1.267,0.1-1.699,0.2C27.233,11.933,26.884,12.05,26.85,12.15z"/>
	<path style="fill-rule:evenodd;clip-rule:evenodd;fill:#F5B151;" d="M9.95,2.55C9.85,2.683,9.767,2.733,9.7,2.7
		c-0.133-0.034-0.233-0.034-0.3,0C9.2,3,9,3.217,8.8,3.35C8.5,3.617,8.25,3.8,8.05,3.9C7.817,4.167,7.6,4.283,7.4,4.25
		c-0.066,0,0-0.217,0.2-0.65C7.833,3.3,8.1,3.1,8.4,3c0.2-0.1,0.5-0.417,0.9-0.95L9.6,1.9C9.8,1.8,9.933,1.817,10,1.95l0.2,0.15
		C10.233,2.167,10.15,2.317,9.95,2.55z"/>
	<path style="fill-rule:evenodd;clip-rule:evenodd;fill:#F5B151;" d="M13.45,0.9c-0.167,0.233-0.333,0.333-0.5,0.3L12.3,1.35
		c-0.5,0.1-0.8,0.1-0.9,0c-0.1-0.067-0.066-0.117,0.1-0.15c0.1,0,0.217,0,0.35,0l0.7-0.25C12.617,0.917,12.917,0.9,13.45,0.9z"/>
	<path style="fill-rule:evenodd;clip-rule:evenodd;fill:#F5B151;" d="M15,0.45c0.133,0,0.183,0.117,0.15,0.35H14.7l-0.4-0.1
		c-0.2-0.034-0.183-0.1,0.05-0.2C14.583,0.433,14.8,0.417,15,0.45z"/>
	<path style="fill-rule:evenodd;clip-rule:evenodd;fill:#F5B151;" d="M13.95,1.05c0.233-0.033,0.35,0,0.35,0.1
		c0,0.133-0.066,0.2-0.2,0.2h-0.45c-0.066-0.033-0.066-0.083,0-0.15C13.683,1.133,13.783,1.083,13.95,1.05z"/>
	<path style="fill-rule:evenodd;clip-rule:evenodd;fill:#F5B151;" d="M13,2.95c0.467,0.066,0.6,0.233,0.4,0.5l-0.3,0.1
		c-0.1,0.067-0.167,0.067-0.2,0c-0.1-0.133-0.183-0.216-0.25-0.25L12.5,3.25L13,2.95z"/>
	<path style="fill-rule:evenodd;clip-rule:evenodd;fill:#F5B151;" d="M18.05,1c0.633,0.067,0.883,0.2,0.75,0.4
		c-0.066,0.1-0.233,0.167-0.5,0.2c-0.267,0.066-0.45,0.05-0.55-0.05l-0.25-0.2c-0.067-0.033-0.017-0.1,0.15-0.2
		C17.817,1.05,17.95,1,18.05,1z"/>
	<path style="fill-rule:evenodd;clip-rule:evenodd;fill:#F5B151;" d="M15.5,5.75c0,0.067-0.033,0.167-0.1,0.3
		c-0.066,0.2-0.217,0.233-0.45,0.1l-0.55-0.1h-0.8c-0.167-0.033-0.133-0.15,0.1-0.35c0.2-0.2,0.417-0.367,0.65-0.5l0.4,0.25
		l0.6,0.15C15.483,5.633,15.533,5.683,15.5,5.75z"/>
	<path style="fill-rule:evenodd;clip-rule:evenodd;fill:#F5B151;" d="M12.4,6.5c0.167,0,0.3,0.067,0.4,0.2
		c0.067,0.167,0.034,0.233-0.1,0.2c-0.1,0.1-0.25,0.117-0.45,0.05c-0.3-0.067-0.533-0.133-0.7-0.2
		C11.183,6.65,11.467,6.567,12.4,6.5z"/>
	<path style="fill-rule:evenodd;clip-rule:evenodd;fill:#F5B151;" d="M20.4,5.35c0.4,0.066,0.567,0.183,0.5,0.35
		c-0.033,0.233-0.417,0.417-1.15,0.55c-0.133,0.167-0.3,0.15-0.5-0.05c-0.167-0.067-0.1-0.2,0.2-0.4
		c0.066-0.033,0.183-0.133,0.35-0.3C20,5.367,20.2,5.317,20.4,5.35z"/>
	<path style="fill-rule:evenodd;clip-rule:evenodd;fill:#F5B151;" d="M22.3,6.1c0.3-0.067,0.517-0.083,0.65-0.05
		c0.133,0.067,0.133,0.133,0,0.2c-0.3,0.167-0.733,0.317-1.3,0.45L21.2,6.8h-0.4l0.55-0.35C21.583,6.383,21.9,6.267,22.3,6.1z"/>
	<path style="fill-rule:evenodd;clip-rule:evenodd;fill:#F5B151;" d="M17.35,8.5l1.2,0.1c0.233,0.033,0.284,0.1,0.15,0.2
		c-0.267,0.133-0.483,0.233-0.65,0.3l-0.8,0.3c-0.267,0.1-0.383,0.133-0.35,0.1c0.133-0.1,0.133-0.183,0-0.25L16.45,9L17.35,8.5z"/>
	<path style="fill-rule:evenodd;clip-rule:evenodd;fill:#F5B151;" d="M15.8,9.9c0.3-0.1,0.483-0.05,0.55,0.15
		c0.066,0.167,0.017,0.25-0.15,0.25c-0.3,0.2-0.534,0.3-0.7,0.3c-0.133-0.033-0.15-0.15-0.05-0.35
		C15.55,10.083,15.667,9.967,15.8,9.9z"/>
	<path style="fill-rule:evenodd;clip-rule:evenodd;fill:#F5B151;" d="M28,10.25c0.6,0.067,0.85,0.267,0.75,0.6L28.7,11
		c-0.033-0.1-0.101-0.167-0.2-0.2c-0.1,0-0.3-0.05-0.6-0.15c-0.233,0.033-0.5,0.033-0.801,0c-0.267-0.033-0.267-0.117,0-0.25
		C27.4,10.267,27.7,10.217,28,10.25z"/>
	<path style="fill-rule:evenodd;clip-rule:evenodd;fill:#F5B151;" d="M25.35,7.3c0.467-0.066,0.767,0,0.9,0.2
		c0.134,0.233,0.083,0.35-0.15,0.35c-0.166-0.033-0.35,0-0.55,0.1c-0.133,0.066-0.45,0.033-0.95-0.1c-0.233-0.067-0.233-0.167,0-0.3
		S25.083,7.333,25.35,7.3z"/>
	<path style="fill-rule:evenodd;clip-rule:evenodd;fill:#F5B151;" d="M29.35,5.2c0.2,0.033,0.284,0.083,0.25,0.15l-0.35,0.3
		C29.116,5.783,29.033,5.833,29,5.8c-0.134-0.133-0.217-0.2-0.25-0.2c-0.167-0.067-0.184-0.15-0.05-0.25
		C28.833,5.217,29.05,5.167,29.35,5.2z"/>
	<path style="fill-rule:evenodd;clip-rule:evenodd;fill:#F5B151;" d="M30.85,6.7l1.301,0.1c0.133,0.034,0.199,0.067,0.199,0.1
		C32.384,6.933,32.4,7.017,32.4,7.15c0.066,0.133,0.05,0.217-0.051,0.25c-0.166,0.033-0.316,0.083-0.449,0.15
		c-0.167,0.067-0.334,0.067-0.5,0C31.233,7.583,31.033,7.6,30.8,7.6c-0.2,0.033-0.483,0-0.85-0.1c-0.2-0.067-0.167-0.217,0.1-0.45
		C30.283,6.783,30.55,6.667,30.85,6.7z"/>
	<path style="fill-rule:evenodd;clip-rule:evenodd;fill:#F5B151;" d="M26.3,3.9c0.733,0,1.101,0.05,1.101,0.15L27.05,4.3
		c-0.233,0.133-0.467,0.167-0.7,0.1L25.6,4.15C25.4,4.083,25.634,4,26.3,3.9z"/>
	<path style="fill-rule:evenodd;clip-rule:evenodd;fill:#F0AB54;" d="M34.45,9.15c0.761-0.297,1.044-0.547,0.85-0.75
		c0.533,0.535,0.717,1.085,0.55,1.65c0.2,0,0.101,0.467-0.3,1.4c-0.2,0.466-0.35,0.816-0.45,1.05L34.35,13
		c-0.366,0.267-0.733,0.45-1.1,0.55c-0.4,0.1-0.7,0.217-0.9,0.35c-0.233,0.167-0.466,0.3-0.699,0.4c-0.334,0.1-0.634,0.233-0.9,0.4
		c-0.767,0.433-1.583,0.716-2.45,0.85c-1.467,0.2-2.517,0.333-3.149,0.4c-0.601,0.066-1.684-0.05-3.25-0.35
		c-0.101,0-0.851-0.217-2.25-0.65c-1.3-0.434-2.1-0.633-2.4-0.6c-0.333,0.033-0.717-0.05-1.15-0.25c-0.5-0.2-0.883-0.35-1.15-0.45
		c-1.167-0.467-1.9-0.717-2.2-0.75c-0.333-0.033-0.7-0.133-1.1-0.3c-0.667-0.333-1.1-0.533-1.3-0.6c-0.833-0.333-1.7-0.967-2.6-1.9
		c0.233,0.2,0.583,0.383,1.05,0.55c1,0.267,1.667,0.417,2,0.45c1.333,0.1,2.517,0.45,3.55,1.05c0.433,0.233,0.85,0.467,1.25,0.7
		c0.233,0.1,0.583,0.167,1.05,0.2c0.733,0.067,1.317,0.15,1.75,0.25l1.25,0.65c0.567,0.2,0.9,0.316,1,0.35
		c0.2,0.034,0.633,0.083,1.3,0.15c0.467,0.033,0.899,0,1.3-0.1c0.333-0.067,0.75-0.05,1.25,0.05c0.566,0.133,1.083,0.167,1.55,0.1
		c0.267-0.067,0.601-0.167,1-0.3c0.467-0.1,0.9-0.383,1.3-0.85c0.134-0.133,0.233-0.317,0.301-0.55c0.1-0.2,0.366-0.333,0.8-0.4
		c0.3-0.066,0.816-0.033,1.55,0.1c0.634,0.1,1.116,0.067,1.45-0.1c0.633-0.3,1.3-0.85,2-1.65L32.85,10.2
		C32.717,10,32.6,9.817,32.5,9.65c-0.167-0.367-0.134-0.5,0.1-0.4c0.101,0.033,0.233,0,0.4-0.1l0.15,0.1
		c0.1,0.067,0.233,0.083,0.399,0.05L34.45,9.15z"/>
</g>
</svg>
