<?xml version="1.0" encoding="iso-8859-1"?>
<!-- Generator: Adobe Illustrator 15.1.0, SVG Export Plug-In . SVG Version: 6.00 Build 0)  -->
<!DOCTYPE svg PUBLIC "-//W3C//DTD SVG 1.1//EN" "http://www.w3.org/Graphics/SVG/1.1/DTD/svg11.dtd">
<svg version="1.1" id="flash0.ai" xmlns="http://www.w3.org/2000/svg" xmlns:xlink="http://www.w3.org/1999/xlink" x="0px" y="0px"
	 width="44.95px" height="32.65px" viewBox="0 0 44.95 32.65" style="enable-background:new 0 0 44.95 32.65;" xml:space="preserve"
	>
<symbol  id="flash0.ai_x5F_8_x2F_Layer_12_x2F__x3C_Path_x3E__x5F_1" viewBox="-0.05 -0.6 0.45 0.622">
	<g id="Layer_1_15_">
		<path style="fill-rule:evenodd;clip-rule:evenodd;fill:#FFE9B3;" d="M0.4-0.25C0.367-0.483,0.283-0.6,0.15-0.6
			s-0.2,0.083-0.2,0.25C-0.017-0.183,0.067-0.067,0.2,0S0.4-0.017,0.4-0.25z"/>
	</g>
</symbol>
<symbol  id="flash0.ai_x5F_8_x2F_Layer_12_x2F__x3C_Path_x3E__x5F_10" viewBox="-0.014 -0.625 0.91 0.664">
	<g id="Layer_1_9_">
		<path style="fill-rule:evenodd;clip-rule:evenodd;fill:#FFE9B3;" d="M0.65-0.05c0.267-0.2,0.317-0.367,0.15-0.5
			c-0.2-0.1-0.417-0.1-0.65,0C-0.05-0.417-0.067-0.267,0.1-0.1C0.3,0.067,0.483,0.083,0.65-0.05z"/>
	</g>
</symbol>
<symbol  id="flash0.ai_x5F_8_x2F_Layer_12_x2F__x3C_Path_x3E__x5F_11" viewBox="0 -2.464 6.2 2.469">
	<g id="Layer_1_8_">
		<path style="fill-rule:evenodd;clip-rule:evenodd;fill:#FFE9B3;" d="M5.15-0.95c0.667-0.466,1.017-0.867,1.05-1.2
			c0-0.2-0.117-0.283-0.35-0.25C5.517-2.367,5.3-2.367,5.2-2.4C5-2.5,4.817-2.483,4.65-2.35C4.25-2.05,4-1.867,3.9-1.8
			C3.633-1.667,3.317-1.65,2.95-1.75C2.517-1.95,2.167-2.067,1.9-2.1C1.567-2.2,1.383-2.167,1.35-2c0,0.2-0.033,0.367-0.1,0.5
			c-0.067,0.1-0.333,0.1-0.8,0c-0.4-0.067-0.534-0.017-0.4,0.15c0.2,0.333,0.534,0.633,1,0.9C1.55-0.117,2.067,0.033,2.6,0
			C3.5-0.067,4.35-0.383,5.15-0.95z"/>
	</g>
</symbol>
<symbol  id="flash0.ai_x5F_8_x2F_Layer_12_x2F__x3C_Path_x3E__x5F_12" viewBox="0.395 -16.045 20.678 13.596">
	<g id="Layer_1_7_">
		<path style="fill-rule:evenodd;clip-rule:evenodd;fill:#E6B63C;" d="M11.25-9.75c0.014,0.071,0.014,0.122,0,0.15
			c-0.067,0.033-0.117,0.067-0.15,0.1c-0.057,0.113-0.124,0.122-0.2,0.025C10.658-9.358,10.391-9.3,10.1-9.3
			c-0.04,0-0.082,0-0.125,0C9.987-9.265,9.996-9.232,10-9.2c0.033,0.267-0.083,0.517-0.35,0.75c-0.233,0.2-0.533,0.3-0.9,0.3
			C8.683-8.117,8.433-8.167,8-8.3C7.767-8.4,7.567-8.333,7.4-8.1C7.3-7.933,7.217-7.733,7.15-7.5c-0.066,0.2-0.2,0.383-0.4,0.55
			C6.317-6.683,5.617-6.767,4.65-7.2C4.283-7.333,3.6-8.117,2.6-9.55c-0.267-0.3-0.617-0.684-1.05-1.15
			C1.25-11.033,1-11.167,0.8-11.1c-0.3,0.1-0.433,0.233-0.4,0.4c0.033,0.267,0.217,0.517,0.55,0.75c0.8,0.467,1.566,1.1,2.3,1.9
			c0.4,0.466,0.7,0.9,0.9,1.3C4.317-6.317,4.267-6.05,4-5.95C3.733-5.85,3.383-5.967,2.95-6.3C2.35-6.667,2.033-6.85,2-6.85
			C1.8-6.883,1.85-6.7,2.15-6.3C2.417-6,2.7-5.7,3-5.4c0.4,0.333,0.85,0.633,1.35,0.9c0.508,0.254,1.183,0.296,2.025,0.125
			C6.358-4.415,6.35-4.457,6.35-4.5c0-0.2,0.117-0.367,0.35-0.5c0.233-0.133,0.517-0.2,0.85-0.2c0.322,0,0.597,0.059,0.825,0.175
			L8.75-5.2c1.033-0.667,1.85-1.417,2.45-2.25c0.458-0.655,0.55-1.505,0.275-2.55C11.411-9.91,11.336-9.827,11.25-9.75z M16.15-4.05
			C16.517-4.483,16.767-4.8,16.9-5c0.133-0.3,0.217-0.617,0.25-0.95c0-0.3-0.033-0.5-0.1-0.6c-0.1-0.1-0.25-0.133-0.45-0.1
			c-0.167,0-0.233,0.2-0.2,0.6c0.067,0.367,0.067,0.6,0,0.7c-0.033,0.067-0.1,0.05-0.2-0.05c-0.1-0.2-0.15-0.4-0.15-0.6
			c0-0.333-0.05-0.717-0.15-1.15c-0.1-0.467-0.25-0.767-0.45-0.9c-0.4-0.3-0.434,0.066-0.1,1.1c0.133,0.4,0.2,0.8,0.2,1.2
			c0.034,0.167,0.034,0.3,0,0.4l0.1,0.05c-0.066,0.167-0.133,0.3-0.2,0.4c-0.2,0.2-0.6,0.283-1.2,0.25
			C14.017-4.683,13.9-4.767,13.9-4.9c0-0.1,0.017-0.267,0.05-0.5c-0.034-0.667-0.233-0.883-0.6-0.65c-0.2,0.1-0.283,0.233-0.25,0.4
			c0.133,0.167,0.217,0.3,0.25,0.4c0.066,0.133,0.033,0.25-0.1,0.35c-0.233,0.1-0.45,0.133-0.65,0.1
			c-0.267-0.034-0.417-0.383-0.45-1.05c0.133-0.767-0.033-1.183-0.5-1.25c-0.3,0.033-0.3,0.417,0,1.15
			c0.133,0.267,0.017,0.55-0.35,0.85c-0.3,0.233-0.583,0.333-0.85,0.3L9.6-5.15C9.667-5.083,9.717-5,9.75-4.9
			C9.783-4.733,9.7-4.55,9.5-4.35c-0.167,0.167-0.417,0.3-0.75,0.4C8.517-3.883,8.317-3.867,8.15-3.9L9.1-3.35
			c0.233,0.1,0.6,0.283,1.1,0.55c0.533,0.233,1.216,0.35,2.05,0.35C13.85-2.417,15.15-2.95,16.15-4.05z M20.45-11.7
			c0.6-0.566,0.767-0.933,0.5-1.1c-0.4-0.167-0.85,0.283-1.35,1.35c-0.1,0.267-0.25,0.45-0.45,0.55
			c-0.033-0.033-0.333,0.017-0.9,0.15c-0.367,0.033-0.6-0.05-0.7-0.25c-0.033-0.2,0-0.417,0.1-0.65
			c0.067-0.133,0.083-0.283,0.05-0.45c-0.067-0.2-0.15-0.333-0.25-0.4c-0.067-0.067-0.2,0-0.4,0.2
			c-0.167,0.133-0.267,0.283-0.3,0.45c0,0.2-0.117,0.35-0.35,0.45L16-11.15c-0.1-0.067-0.167-0.167-0.2-0.3
			c-0.167-0.167-0.216-0.35-0.15-0.55c0.033-0.133,0.1-0.35,0.2-0.65c0.066-0.233,0.017-0.467-0.15-0.7
			c-0.233-0.233-0.467-0.25-0.7-0.05c-0.233,0.133-0.4,0.333-0.5,0.6c-0.1,0.267-0.183,0.466-0.25,0.6
			c-0.1,0.167-0.333,0.333-0.7,0.5c-0.433,0.167-0.85,0.083-1.25-0.25c-0.4-0.267-0.716-0.583-0.95-0.95
			c-0.1-0.333-0.217-0.7-0.35-1.1c-0.067-0.233-0.15-0.533-0.25-0.9c-0.033-0.067-0.033-0.283,0-0.65c0-0.267-0.05-0.417-0.15-0.45
			c-0.233-0.1-0.383-0.033-0.45,0.2c-0.1,0.267-0.05,0.517,0.15,0.75c0.1,0.133,0.117,0.417,0.05,0.85
			c0,0.534,0.017,0.917,0.05,1.15c0.133,0.3,0.25,0.617,0.35,0.95c0.167,0.1,0.3,0.267,0.4,0.5c0.233,0.267,0.3,0.567,0.2,0.9
			c-0.033,0.167-0.1,0.317-0.2,0.45l2.3,0.3c2.1,0.4,3.417,0.517,3.95,0.35c0.633-0.133,1.3-0.467,2-1L20.45-11.7z"/>
	</g>
</symbol>
<symbol  id="flash0.ai_x5F_8_x2F_Layer_12_x2F__x3C_Path_x3E__x5F_2" viewBox="0.05 -0.6 0.446 0.578">
	<g id="Layer_1_14_">
		<path style="fill-rule:evenodd;clip-rule:evenodd;fill:#FFE9B3;" d="M0.25-0.1C0.517-0.333,0.567-0.483,0.4-0.55
			C0.233-0.65,0.133-0.6,0.1-0.4C0-0.033,0.05,0.067,0.25-0.1z"/>
	</g>
</symbol>
<symbol  id="flash0.ai_x5F_8_x2F_Layer_12_x2F__x3C_Path_x3E__x5F_24" viewBox="0 -4.8 3.35 4.8">
	<g id="Layer_1_6_">
		<path style="fill-rule:evenodd;clip-rule:evenodd;fill:#3D1606;" d="M0-2.35L1.75-0.9C2.083-0.6,2.617-0.3,3.35,0
			c-0.033-0.333-0.133-0.733-0.3-1.2C2.417-2.933,1.933-3.917,1.6-4.15C1.4-4.317,1.05-4.533,0.55-4.8L0-2.35z"/>
	</g>
</symbol>
<symbol  id="flash0.ai_x5F_8_x2F_Layer_12_x2F__x3C_Path_x3E__x5F_3" viewBox="-0.025 -0.614 0.3 0.603">
	<g id="Layer_1_13_">
		<path style="fill-rule:evenodd;clip-rule:evenodd;fill:#FFE9B3;" d="M0.2-0.15c0.1-0.2,0.1-0.333,0-0.4
			C0.1-0.65,0.033-0.633,0-0.5c-0.033,0.167-0.033,0.3,0,0.4C0.033,0.033,0.1,0.017,0.2-0.15z"/>
	</g>
</symbol>
<symbol  id="flash0.ai_x5F_8_x2F_Layer_12_x2F__x3C_Path_x3E__x5F_4" viewBox="-0.012 -1.067 0.722 1.077">
	<g id="Layer_1_12_">
		<path style="fill-rule:evenodd;clip-rule:evenodd;fill:#FFE9B3;" d="M0.3-0.1c0.233-0.167,0.367-0.35,0.4-0.55
			C0.733-0.817,0.683-0.933,0.55-1c-0.1-0.067-0.2-0.083-0.3-0.05c-0.1,0.066-0.167,0.167-0.2,0.3C-0.083-0.05,0,0.167,0.3-0.1z"/>
	</g>
</symbol>
<symbol  id="flash0.ai_x5F_8_x2F_Layer_12_x2F__x3C_Path_x3E__x5F_44" viewBox="-0.03 -9.5 20.224 9.51">
	<g id="Layer_1_2_">
		<path style="fill-rule:evenodd;clip-rule:evenodd;" d="M17.4-5.85c0.767-0.267,1.383-0.6,1.85-1c0.767-0.667,1.067-1.55,0.9-2.65
			c-3.066,0.367-6.183,0.733-9.35,1.1c-6.3,0.767-9.633,1.133-10,1.1c-1.867-0.133-0.583,0.883,3.85,3.05
			c2.233,1.1,4.633,2.217,7.2,3.35L11.6-0.3l0.35,0.15c0.3,0.133,0.566,0.183,0.8,0.15c0.6,0,1.383-0.083,2.35-0.25l1.35-5.3
			L17.4-5.85z"/>
	</g>
</symbol>
<symbol  id="flash0.ai_x5F_8_x2F_Layer_12_x2F__x3C_Path_x3E__x5F_5" viewBox="-0.048 -1.456 6.539 1.431">
	<g id="Layer_1_11_">
		<path style="fill-rule:evenodd;clip-rule:evenodd;fill:#FFE9B3;" d="M2.35-0.1C4.65,0,5.967,0,6.3-0.1
			c0.5-0.1,0.017-0.183-1.45-0.25C4.483-0.483,4.2-0.583,4-0.65c-0.333-0.133-0.717-0.167-1.15-0.1C2.483-0.683,2.017-0.8,1.45-1.1
			C0.85-1.367,0.433-1.483,0.2-1.45C-0.2-1.35-0.117-1.1,0.45-0.7C1.05-0.3,1.683-0.1,2.35-0.1z"/>
	</g>
</symbol>
<symbol  id="flash0.ai_x5F_8_x2F_Layer_12_x2F__x3C_Path_x3E__x5F_6" viewBox="-0.022 -1.214 1.545 1.194">
	<g id="Layer_1_5_">
		<path style="fill-rule:evenodd;clip-rule:evenodd;fill:#FFE9B3;" d="M1.1-0.05C1.533-0.117,1.633-0.333,1.4-0.7
			c-0.233-0.4-0.566-0.566-1-0.5c-0.433,0.067-0.533,0.3-0.3,0.7C0.367-0.1,0.7,0.05,1.1-0.05z"/>
	</g>
</symbol>
<symbol  id="flash0.ai_x5F_8_x2F_Layer_12_x2F__x3C_Path_x3E__x5F_7" viewBox="-0.025 -0.707 0.45 0.702">
	<g id="Layer_1_4_">
		<path style="fill-rule:evenodd;clip-rule:evenodd;fill:#FFE9B3;" d="M0.35-0.05c0.1-0.1,0.1-0.233,0-0.4
			c-0.1-0.2-0.2-0.283-0.3-0.25c-0.1,0.067-0.1,0.217,0,0.45C0.15-0.017,0.25,0.05,0.35-0.05z"/>
	</g>
</symbol>
<symbol  id="flash0.ai_x5F_8_x2F_Layer_12_x2F__x3C_Path_x3E__x5F_8" viewBox="-0.006 -2.18 3.084 2.182">
	<g id="Layer_1_3_">
		<path style="fill-rule:evenodd;clip-rule:evenodd;fill:#FFE9B3;" d="M2.95-0.4c0.2-0.367,0.167-0.684-0.1-0.95
			C2.717-1.483,2.5-1.55,2.2-1.55c-0.367,0-0.667-0.034-0.9-0.1C1.2-1.683,0.883-1.833,0.35-2.1C0.083-2.233-0.033-2.2,0-2
			c0.033,0.3,0.2,0.617,0.5,0.95c0.367,0.367,0.783,0.667,1.25,0.9C2.317,0.117,2.717,0.033,2.95-0.4z"/>
	</g>
</symbol>
<symbol  id="flash0.ai_x5F_8_x2F_Layer_12_x2F__x3C_Path_x3E__x5F_9" viewBox="-0.039 -0.8 0.968 0.8">
	<g id="Layer_1_10_">
		<path style="fill-rule:evenodd;clip-rule:evenodd;fill:#FFE9B3;" d="M0.55,0c0.4,0,0.483-0.133,0.25-0.4
			C0.567-0.667,0.333-0.8,0.1-0.8c-0.167,0-0.184,0.133-0.05,0.4S0.35,0,0.55,0z"/>
	</g>
</symbol>
<g>
	
		<linearGradient id="SVGID_1_" gradientUnits="userSpaceOnUse" x1="-0.0093" y1="17.3633" x2="44.9157" y2="17.3633" gradientTransform="matrix(0.9337 -3.610142e-004 -5.074379e-004 0.6487 1.2501 11.7997)">
		<stop  offset="0.0235" style="stop-color:#A0A1A3"/>
		<stop  offset="1" style="stop-color:#78797A"/>
	</linearGradient>
	<path style="fill-rule:evenodd;clip-rule:evenodd;fill:url(#SVGID_1_);" d="M38.41,16.438c3.673,1.946,5.245,4.26,4.715,6.941
		c-0.56,2.682-3.065,4.931-7.516,6.747c-4.481,1.838-9.617,2.714-15.406,2.627c-5.757-0.086-10.488-1.113-14.192-3.081
		c-3.672-1.946-5.229-4.26-4.668-6.941c0.529-2.682,3.035-4.931,7.516-6.747c4.482-1.838,9.602-2.714,15.359-2.627
		C29.977,13.465,34.707,14.492,38.41,16.438z"/>
	
		<linearGradient id="SVGID_2_" gradientUnits="userSpaceOnUse" x1="-48.1899" y1="-10.2178" x2="0.9808" y2="-10.2178" gradientTransform="matrix(-0.9032 -0.1643 0.2365 -0.6276 1.2502 11.799)">
		<stop  offset="0" style="stop-color:#CCCCCC"/>
		<stop  offset="1" style="stop-color:#FFFFFF"/>
	</linearGradient>
	<path style="fill-rule:evenodd;clip-rule:evenodd;fill:url(#SVGID_2_);" d="M38.41,16.276c3.704,1.838,5.276,4.012,4.715,6.52
		c-0.56,2.509-3.065,4.617-7.516,6.325c-4.481,1.708-9.602,2.52-15.359,2.433c-5.789-0.086-10.52-1.049-14.192-2.887
		c-3.704-1.838-5.275-4.012-4.715-6.52c0.529-2.509,3.035-4.617,7.516-6.325c4.482-1.73,9.602-2.552,15.359-2.465
		C29.977,13.465,34.707,14.438,38.41,16.276z"/>
	
		<linearGradient id="SVGID_3_" gradientUnits="userSpaceOnUse" x1="-3.6226" y1="16.2104" x2="37.6323" y2="16.2104" gradientTransform="matrix(0.9337 3.934158e-004 5.920646e-004 0.6487 1.2502 11.6499)">
		<stop  offset="0" style="stop-color:#CCCCCC"/>
		<stop  offset="1" style="stop-color:#FFFFFF"/>
	</linearGradient>
	<path style="fill-rule:evenodd;clip-rule:evenodd;fill:url(#SVGID_3_);" d="M37.617,17.002c3.392,1.557,4.84,3.385,4.341,5.482
		c-0.497,2.098-2.801,3.859-6.908,5.286c-4.108,1.428-8.793,2.098-14.052,2.012c-5.291-0.087-9.632-0.897-13.025-2.433
		c-3.392-1.536-4.84-3.363-4.342-5.482c0.529-2.098,2.833-3.859,6.91-5.287c4.108-1.428,8.808-2.098,14.098-2.011
		C29.93,14.656,34.256,15.467,37.617,17.002z"/>
	<g>
		<g>
			<g>
				<path style="fill-rule:evenodd;clip-rule:evenodd;fill:#EFDFC8;" d="M23.29,13.739l0.277-0.077
					c0.37-0.103,1.016-0.215,1.936-0.335s1.464,0.217,1.632,1.014c0.084,0.398,0.073,0.81-0.034,1.233l1.459-0.274
					c1.175-0.154,2.256-0.132,3.244,0.066c0.991,0.224,1.708,0.758,2.146,1.602c0.254,0.43,0.388,0.835,0.403,1.216
					c-0.09,0.503-0.68,1.112-1.768,1.828c-2.172,1.459-5.806,2.713-10.9,3.764c-5.058,1.072-9.217,1.223-12.478,0.449
					c-1.03-0.246-1.914-0.568-2.648-0.963l-0.745-0.516c-0.293-0.153-0.534-0.367-0.722-0.643c-0.371-0.524-0.25-1.113,0.362-1.767
					c0.613-0.654,1.332-1.034,2.156-1.143c0.413-0.055,0.758-0.045,1.034,0.028c-0.258-0.294-0.41-0.629-0.456-1.006
					c-0.104-0.805,0.328-1.462,1.297-1.971c0.963-0.536,2.177-0.654,3.643-0.355c0.743,0.121,1.386,0.31,1.929,0.566l0.329-1.23
					c0.525-0.915,1.563-1.556,3.117-1.923c1.426-0.351,2.642-0.387,3.646-0.11C22.669,13.343,23.05,13.525,23.29,13.739z"/>
				<path style="fill-rule:evenodd;clip-rule:evenodd;fill:#F7DAA1;" d="M26.682,13.581c0.617,0.3,0.871,0.732,0.761,1.292
					c-0.044,0.252-0.158,0.485-0.342,0.701l-0.529,0.97c-0.151,0.675,0.298,1.107,1.35,1.297c1.057,0.216,1.924,0.308,2.602,0.272
					c0.55-0.018,1.848-0.133,3.89-0.346c0.019,0.243-0.055,0.512-0.222,0.807c-0.264,0.608-0.743,1.039-1.439,1.294
					c-0.453,0.169-1.653,0.203-3.599,0.104c-1.654-0.11-2.582,0.053-2.783,0.488c-0.26,0.471,0.286,0.74,1.638,0.809
					c0.688,0.02,1.386-0.004,2.089-0.069l-4.542,1.66c-0.708-0.262-1.634-0.55-2.775-0.864c-0.729-0.204-1.481-0.297-2.26-0.276
					l-0.921,0.039l4.616-2.243c0.731-0.396,0.586-0.855-0.437-1.376c-0.996-0.551-2.102-0.611-3.315-0.179
					c-2.196,0.725-3.354,1.108-3.476,1.151c-1.335,0.476-2.23,0.948-2.686,1.417c-0.462,0.442,0.205,0.819,1.999,1.129
					c0.904,0.153,1.848,0.261,2.833,0.325c-0.243-0.012-0.69,0.155-1.338,0.503c-0.442,0.222-0.687,0.608-0.734,1.161
					c-0.039,0.277-0.036,0.522,0.008,0.735c-0.103-0.178-0.325-0.381-0.667-0.608c-0.672-0.403-1.522-0.646-2.55-0.729
					c-0.732-0.068-1.705,0.195-2.916,0.792c-1.091,0.552-2.106,0.686-3.047,0.399c-1.079-0.323-1.909-0.855-2.489-1.598
					l-0.503-0.999l0.639,0.244c0.558,0.173,1.202,0.293,1.934,0.36c0.896,0.073,1.788-0.029,2.674-0.31
					c0.855-0.276,1.448-0.641,1.776-1.093c0.396-0.598-0.696-1.137-3.276-1.617c-0.086-0.099-0.146-0.228-0.18-0.386
					C8.391,18.491,8.47,18.166,8.7,17.863c0.172-0.268,0.909-0.173,2.212,0.283c1.564,0.614,2.542,0.922,2.934,0.925
					c0.626,0.028,1.01-0.391,1.154-1.256l0.056-1.359l1.625,0.279c1.14,0.15,1.874,0.15,2.201-0.002c0.858-0.413,1.273-1,1.243-1.76
					c-0.055-0.729,0.122-1.203,0.533-1.42c0.621-0.3,1.246-0.354,1.873-0.164c0.314,0.096,0.567,0.212,0.759,0.351l1.148-0.355
					C25.348,13.21,26.096,13.276,26.682,13.581z"/>
				<path style="fill-rule:evenodd;clip-rule:evenodd;fill:#F7DAA1;" d="M20.115,20.501c0.607,0.248,1.093,0.307,1.457,0.178
					c0.766-0.237,1.075-0.087,0.927,0.452c-1.437,0.461-2.802,0.79-4.098,0.987c-0.819,0.135-1.625,0.104-2.417-0.093l-0.94-0.286
					c-0.478-0.101-0.807-0.344-0.986-0.729l-0.109-0.519l1.484-0.154c1.117-0.118,2.046-0.199,2.787-0.242
					C18.802,20.073,19.435,20.208,20.115,20.501z"/>
				<path style="fill-rule:evenodd;clip-rule:evenodd;fill:#C9B284;" d="M21.409,13.167l0.636-0.001
					c0.423-0.001,0.729,0.054,0.915,0.167c0.272,0.209,0.616,0.601,1.03,1.175c0.081,0.072,0.165,0.319,0.255,0.745
					c0.035,0.323,0.207,0.519,0.515,0.587c0.51,0.097,1.41-0.348,2.703-1.337l-0.362,1.071c-0.224,0.329-0.686,0.69-1.386,1.082
					c-0.399,0.271-0.71,0.503-0.931,0.695l-0.148,0.225l-2.845-0.733c-0.011-0.053,0.015-0.165,0.076-0.337
					c0.097-0.313,0.302-0.736,0.614-1.268c0.348-0.51,0.277-1.006-0.216-1.486L21.409,13.167z"/>
				<path style="fill-rule:evenodd;clip-rule:evenodd;fill:#C9B284;" d="M19.478,17.474c0.884-0.144,1.763-0.614,2.639-1.411
					l2.8,0.983l-0.171,0.351c-0.065,0.309-0.033,0.618,0.099,0.929c0.232,0.488,0.672,0.867,1.315,1.138
					c-1.824,0.321-3.165,0.456-4.024,0.404c-0.366-0.033-0.797-0.222-1.294-0.566c-0.453-0.296-1.005-0.441-1.657-0.438
					c-0.778,0.02-1.65,0.217-2.615,0.589l-1.21,0.527c-0.001-0.164,0.023-0.358,0.073-0.583c0.069-0.445,0.193-0.79,0.37-1.031
					c0.319-0.342,0.071-0.979-0.745-1.909l0.457,0.309c0.373,0.224,0.754,0.406,1.142,0.546
					C17.256,17.533,18.197,17.587,19.478,17.474z"/>
				<path style="fill-rule:evenodd;clip-rule:evenodd;fill:#F7DAA1;" d="M22.44,16.675c0.628-0.273,1.142-0.082,1.541,0.576
					c0.313,0.56,0.465,1.127,0.455,1.7c0.004,0.328-0.215,0.451-0.655,0.373c-0.627-0.19-1.126-0.315-1.497-0.377
					c-0.605-0.084-1.072-0.282-1.398-0.594c-0.396-0.331-0.375-0.62,0.062-0.868L22.44,16.675z"/>
				<path style="fill-rule:evenodd;clip-rule:evenodd;fill:#C9B284;" d="M11.911,20.104l-3.267-0.881L8.24,18.006l0.994,0.771
					c0.886,0.484,1.836,0.742,2.853,0.771c1.632,0.004,2.849,0.05,3.649,0.136c-0.481,0.036-0.939,0.109-1.372,0.222
					c-0.834,0.218-1.112,0.527-0.832,0.928c0.409,0.547,1.063,0.938,1.96,1.176c0.245,0.077,0.601,0.453,1.07,1.129
					c-0.261-0.157-0.634-0.299-1.118-0.427c-0.903-0.264-1.807-0.296-2.711-0.095c-0.903,0.2-1.84,0.555-2.809,1.064L8.7,24.373
					c-0.38,0.05-0.787-0.02-1.217-0.209l-1.358-0.641l0.994,0.074c0.841-0.028,1.745-0.229,2.71-0.601
					c0.365-0.13,1.22-0.405,2.565-0.828c0.518-0.177,0.728-0.341,0.63-0.492c-0.04-0.349-0.083-0.631-0.127-0.843
					C12.792,20.493,12.463,20.249,11.911,20.104z"/>
				<path style="fill-rule:evenodd;clip-rule:evenodd;fill:#C9B284;" d="M23.429,19.739l0.269,0.579
					c0.26,0.457,0.66,0.813,1.204,1.07c0.867,0.404,2.056,0.549,3.563,0.433l-2.323,1.042c-0.655-0.323-1.406-0.634-2.251-0.933
					c-0.495-0.182-1.156-0.299-1.983-0.354l-1.082-0.021l1.673-0.424C23.027,21.007,23.337,20.542,23.429,19.739z"/>
				<path style="fill-rule:evenodd;clip-rule:evenodd;fill:#C9B284;" d="M34.078,18.506c0.161,0.143,0.081,0.385-0.237,0.728
					l-0.875,0.729c-1.147,0.124-2.132,0.171-2.954,0.143l-4.455-0.481l-0.428-0.639l1.4,0.144c1.123,0.071,2.252,0.086,3.386,0.047
					C31.566,19.122,32.954,18.899,34.078,18.506z"/>
				<path style="fill-rule:evenodd;clip-rule:evenodd;fill:#FFFBE8;" d="M19.188,13.541c0.532-0.261,0.826-0.259,0.881,0.007
					c0.019,0.243-0.352,0.496-1.112,0.76c-0.332,0.126-0.544,0.276-0.638,0.452c-0.041,0.115-0.088,0.435-0.14,0.96
					c-0.049,0.388-0.307,0.559-0.773,0.511c-0.106-0.041-0.526-0.177-1.26-0.408c-0.319-0.122-0.397-0.262-0.234-0.419
					c0.104-0.124,0.376-0.377,0.818-0.763C17.216,14.167,18.037,13.8,19.188,13.541z"/>
				<path style="fill-rule:evenodd;clip-rule:evenodd;fill:#FFFBE8;" d="M28.168,15.76c0.252-0.197,0.542-0.29,0.871-0.278
					c0.228-0.002,0.739,0.026,1.534,0.086c0.752,0.01,1.368,0.147,1.849,0.413c0.479,0.265,0.745,0.598,0.797,1
					c0.002,0.164-0.375,0.077-1.131-0.261c-1.15-0.504-2.308-0.584-3.475-0.24c-0.618,0.163-0.928,0.162-0.93-0.001
					C27.65,16.32,27.812,16.081,28.168,15.76z"/>
				<path style="fill-rule:evenodd;clip-rule:evenodd;fill:#EFDFC8;" d="M22.611,16.325c0.354-0.183,0.558-0.223,0.611-0.121
					c0.093,0.289,0.232,0.488,0.42,0.6c0.373,0.224,0.625,0.491,0.755,0.802c0.163,0.306,0.134,0.556-0.087,0.747
					c-0.226,0.167-0.682,0.172-1.365,0.017c-0.686-0.156-1.236-0.37-1.652-0.644c-0.31-0.232-0.297-0.479,0.039-0.742
					C21.448,16.915,21.875,16.695,22.611,16.325z"/>
				<path style="fill-rule:evenodd;clip-rule:evenodd;fill:#FFFBE8;" d="M9.876,16.481c1.008-0.323,2.019-0.401,3.033-0.234
					c0.975,0.145,1.426,0.427,1.351,0.847c-0.065,0.308-0.415,0.354-1.047,0.137c-1.079-0.322-1.684-0.489-1.817-0.499
					c-0.815-0.002-1.356-0.013-1.622-0.033C9.415,16.692,9.449,16.619,9.876,16.481z"/>
				<path style="fill-rule:evenodd;clip-rule:evenodd;fill:#FFFBE8;" d="M26.705,19.965c0.834-0.219,1.898-0.276,3.192-0.174
					c1.299,0.13,1.862,0.329,1.69,0.598c-0.113,0.233-0.664,0.332-1.649,0.298c-1.44-0.029-2.257-0.031-2.447-0.006
					c-0.608,0.053-0.985-0.035-1.131-0.262C26.252,20.215,26.366,20.063,26.705,19.965z"/>
				<path style="fill-rule:evenodd;clip-rule:evenodd;fill:#FFFBE8;" d="M12.302,23.123c0.87-0.359,1.728-0.473,2.571-0.337
					c0.711,0.125,1.092,0.307,1.142,0.546c0.044,0.212-0.765,0.318-2.428,0.318c-0.165-0.006-0.604,0.079-1.317,0.255
					c-0.719,0.148-1.308,0.212-1.769,0.191c-0.53-0.04-0.524-0.164,0.019-0.371C10.859,23.626,11.452,23.426,12.302,23.123z"/>
				<path style="fill-rule:evenodd;clip-rule:evenodd;fill:#F7DAA1;" d="M15.693,22.965l1.552-0.531l-0.076,0.337
					c0.03,0.297,0.182,0.55,0.454,0.76c0.496,0.344,2.049,0.358,4.657,0.045l-2.664,0.595c-1.569,0.287-2.884,0.474-3.942,0.558
					c-0.735,0.069-1.387,0.072-1.955,0.011l-0.669-0.157l1.868-0.654C15.423,23.696,15.682,23.375,15.693,22.965z"/>
				<path style="fill-rule:evenodd;clip-rule:evenodd;fill:#C9B284;" d="M16.494,22.123c0.562,0.035,1.198,0.034,1.907-0.005
					l-1.157,0.315c-0.465,0.115-0.632,0.328-0.501,0.64c0.066,0.154,0.185,0.412,0.358,0.771c-0.019,0.221,0.319,0.354,1.014,0.398
					c0.36,0.008,0.718,0.002,1.072-0.018c-1.105,0.173-1.906,0.318-2.403,0.438l-2.112,0.196c0.848-0.467,1.423-0.911,1.727-1.332
					c0.333-0.426,0.14-0.729-0.583-0.906l-1.613-0.689L16.494,22.123z"/>
				<path style="fill-rule:evenodd;clip-rule:evenodd;fill:#C9B284;" d="M20.306,21.868c-0.976,0.319-1.71,0.553-2.202,0.698
					c-0.871,0.196-1.634,0.215-2.288,0.055c-0.685-0.155-1.264-0.503-1.735-1.041l-0.549-0.747l0.552,0.296
					c0.432,0.189,0.853,0.256,1.266,0.202c0.444-0.059,1.969-0.095,4.576-0.108c0.651-0.004,1.653,0.028,3.004,0.097
					C22.137,21.424,21.261,21.606,20.306,21.868z"/>
				<path style="fill-rule:evenodd;clip-rule:evenodd;fill:#865517;" d="M21.284,23.03c0.108-0.046,0.234-0.068,0.377-0.07
					l-0.045,0.251c-0.032,0.004-0.124,0.03-0.277,0.078L21.284,23.03z"/>
				<path style="fill-rule:evenodd;clip-rule:evenodd;fill:#865517;" d="M17.019,21.01c0.121-0.032,0.276-0.031,0.464,0.001
					c0.024,0.27-0.118,0.37-0.426,0.301C16.806,21.245,16.794,21.145,17.019,21.01z"/>
				<path style="fill-rule:evenodd;clip-rule:evenodd;fill:#865517;" d="M19.567,20.451c-0.206-0.164-0.162-0.267,0.132-0.305
					c0.296,0.016,0.488,0.072,0.574,0.17C20.037,20.594,19.802,20.639,19.567,20.451z"/>
				<path style="fill-rule:evenodd;clip-rule:evenodd;fill:#865517;" d="M29.528,18.038l-0.438,0.017
					c0.402-0.107,0.631-0.028,0.687,0.238c-0.285,0.037-0.497,0.037-0.636,0.001C29.188,18.206,29.317,18.12,29.528,18.038z"/>
				<path style="fill-rule:evenodd;clip-rule:evenodd;fill:#865517;" d="M27.21,16.787l-0.118,0.138
					c0.223-0.029,0.345,0.009,0.367,0.116c0.017,0.079-0.062,0.172-0.235,0.276C26.925,17.138,26.92,16.961,27.21,16.787z"/>
				<path style="fill-rule:evenodd;clip-rule:evenodd;fill:#865517;" d="M32.618,17.961c0.108-0.024,0.23-0.026,0.365-0.007
					c-0.056,0.198-0.214,0.3-0.473,0.307C32.487,18.152,32.523,18.052,32.618,17.961z"/>
				<path style="fill-rule:evenodd;clip-rule:evenodd;fill:#865517;" d="M21.949,13.874l-0.096,0.013
					c0.274,0.373,0.212,0.463-0.188,0.27C21.298,13.959,21.393,13.865,21.949,13.874z"/>
				<path style="fill-rule:evenodd;clip-rule:evenodd;fill:#865517;" d="M20.422,15.221l0.238-0.031
					c0.019,0.243-0.14,0.346-0.474,0.308C20.133,15.395,20.211,15.303,20.422,15.221z"/>
				<path style="fill-rule:evenodd;clip-rule:evenodd;fill:#865517;" d="M14.199,18.657c-0.174-0.104-0.206-0.182-0.098-0.233
					l0.38-0.05c0.125,0.011,0.244,0.035,0.359,0.076C14.686,18.798,14.472,18.867,14.199,18.657z"/>
				<path style="fill-rule:evenodd;clip-rule:evenodd;fill:#865517;" d="M11.66,18.213l0.216,0.094
					c-0.146,0.237-0.336,0.263-0.572,0.075C11.347,18.302,11.465,18.245,11.66,18.213z"/>
				<path style="fill-rule:evenodd;clip-rule:evenodd;fill:#865517;" d="M7.73,21.512c0.198,0.035,0.17,0.175-0.083,0.42
					c-0.098,0.149-0.189,0.107-0.271-0.128C7.34,21.632,7.458,21.534,7.73,21.512z"/>
				<path style="fill-rule:evenodd;clip-rule:evenodd;fill:#865517;" d="M10.622,22.115l-0.397-0.029
					c0.4-0.108,0.727-0.109,0.977-0.006c-0.025,0.194-0.147,0.306-0.37,0.335c-0.185,0.052-0.33-0.012-0.432-0.189L10.622,22.115z"
					/>
				<path style="fill-rule:evenodd;clip-rule:evenodd;fill:#865517;" d="M11.364,20.994l-0.162,0.042
					c0.212-0.045,0.36-0.003,0.442,0.126c-0.157,0.185-0.336,0.181-0.541-0.011C10.895,20.933,10.982,20.88,11.364,20.994z"/>
				<path style="fill-rule:evenodd;clip-rule:evenodd;fill:#865517;" d="M14.637,23.759l-0.125,0.098
					c0.032-0.004,0.214,0.013,0.549,0.052c0.115,0.394-0.074,0.5-0.569,0.319C13.997,24.047,14.046,23.891,14.637,23.759z"/>
				<path style="fill-rule:evenodd;clip-rule:evenodd;fill:#865517;" d="M22.956,18.655l-0.135,0.058
					c0.217-0.056,0.374-0.008,0.471,0.144s0.016,0.229-0.244,0.236c-0.291,0.012-0.438-0.064-0.439-0.229
					C22.606,18.701,22.723,18.631,22.956,18.655z"/>
				<path style="fill-rule:evenodd;clip-rule:evenodd;fill:#968563;" d="M21.021,17.599l0.34,2.084
					c-0.74-0.422-1.326-0.645-1.755-0.67c-0.298-0.017-0.946,0.001-1.946,0.051l-1.406,0.061l0.566-0.564l2.117-0.401
					c0.432-0.111,0.887-0.197,1.363-0.26c0.125-0.023,0.236-0.038,0.334-0.044C20.649,17.77,20.779,17.685,21.021,17.599z"/>
				<path style="fill-rule:evenodd;clip-rule:evenodd;fill:#865517;" d="M25.363,20.796l-0.325,0.083
					c0.254-0.033,0.459,0.009,0.614,0.124c-0.107,0.424-0.308,0.478-0.603,0.161C24.749,20.821,24.854,20.698,25.363,20.796z"/>
				<path style="fill-rule:evenodd;clip-rule:evenodd;fill:#865517;" d="M27.902,21.937L27.385,21.8
					c0.211-0.082,0.438-0.085,0.684-0.008c0.067,0.318-0.133,0.454-0.6,0.406c0.004-0.137,0.034-0.224,0.093-0.258
					C27.593,21.936,27.707,21.935,27.902,21.937z"/>
				<path style="fill-rule:evenodd;clip-rule:evenodd;fill:#91C401;" d="M20.007,18.592c-0.564,0.265-1.114,0.364-1.649,0.298
					l-0.208-0.055c0.241-0.116,0.502-0.273,0.781-0.471c0.768-0.538,1.355-0.847,1.762-0.927
					C20.821,17.884,20.591,18.27,20.007,18.592z M18.15,18.835c-0.368,0.19-0.69,0.287-0.966,0.291
					c-0.646,0.029-1.11-0.237-1.392-0.801c-0.384-0.741-0.654-1.169-0.81-1.286c0.213,0.082,0.825,0.274,1.834,0.579
					c0.852,0.324,1.141,0.696,0.871,1.113L18.15,18.835z"/>
				<path style="fill-rule:evenodd;clip-rule:evenodd;fill:#91C401;" d="M27.321,19.639c-0.211,0.082-0.421,0.014-0.631-0.205
					c-0.197-0.165-0.337-0.365-0.419-0.6c0.663,0.05,1.267,0.284,1.812,0.704c0.044-0.252,0.307-0.478,0.787-0.677
					c0.39-0.16,0.778-0.252,1.165-0.275c0.018,0.243-0.153,0.512-0.516,0.805c-0.415,0.354-0.635,0.547-0.661,0.578
					c-0.192-0.139-0.45-0.2-0.772-0.186c-0.292,0.012-0.519,0.096-0.681,0.254L27.321,19.639z"/>
				<path style="fill-rule:evenodd;clip-rule:evenodd;fill:#91C401;" d="M24.599,13.445c0.076-0.256,0.322-0.561,0.737-0.916
					c0.44-0.386,0.759-0.495,0.957-0.33c0.229,0.161,0.19,0.439-0.117,0.834c-0.251,0.36-0.495,0.597-0.731,0.71
					c-0.262-0.157-0.614-0.207-1.059-0.148c-0.318,0.042-0.618,0.129-0.899,0.261l0.376-0.192c-0.355,0.019-0.528-0.108-0.521-0.382
					c0.008-0.273,0.146-0.469,0.415-0.586L24.599,13.445z"/>
				<path style="fill-rule:evenodd;clip-rule:evenodd;fill:#728501;" d="M12.734,21.224c0.317-0.041,0.491,0.168,0.523,0.627
					c0.056-0.198,0.221-0.342,0.496-0.433c0.19,0.438,0.12,0.803-0.21,1.092c-0.305,0.259-0.711,0.339-1.221,0.242
					c-0.239-0.051-0.479-0.183-0.72-0.396c-0.247-0.241-0.323-0.45-0.229-0.625c0.108-0.261,0.396-0.285,0.865-0.073
					c0.288,0.127,0.513,0.268,0.677,0.424L12.734,21.224z"/>
				<path style="fill-rule:evenodd;clip-rule:evenodd;fill:#91C401;" d="M11.417,15.665c-0.335-0.202-0.551-0.447-0.644-0.734
					c-0.104-0.341,0.02-0.603,0.373-0.786c0.087,0.262,0.286,0.659,0.594,1.192c0.287-0.338,0.578-0.581,0.874-0.729
					c0.065,0.155,0.066,0.469,0.002,0.941l0.42-0.096c0.048,0.075,0.058,0.197,0.028,0.365c-0.765-0.227-1.344-0.26-1.733-0.1
					L11.417,15.665z"/>
				<path style="fill-rule:evenodd;clip-rule:evenodd;fill:#728501;" d="M21.596,23.582c0.036,0.323-0.487,0.556-1.565,0.697
					c-1.402,0.156-2.132,0.252-2.19,0.287l0.117-0.139c-0.563-0.198-0.888-0.347-0.974-0.445c0.414,0.109,0.751,0.16,1.011,0.154
					c-0.009-0.354,0.165-0.608,0.523-0.765c0.359-0.156,0.52-0.014,0.482,0.429c0.263-0.145,0.452-0.333,0.566-0.566
					c0.011,0.053,0.101,0.246,0.268,0.579c0.629-0.573,1.12-0.884,1.468-0.929c0.033,0.158,0.019,0.475-0.045,0.946L21.596,23.582z"
					/>
				<path style="fill-rule:evenodd;clip-rule:evenodd;fill:#728501;" d="M23.865,21.811c-0.516-0.123-1.005-0.127-1.47-0.012
					c-0.344-0.392-0.414-0.642-0.208-0.751c0.147-0.073,0.336-0.03,0.566,0.131c0.117,0.094,0.278,0.237,0.48,0.429
					c0.061-0.336,0.304-0.572,0.731-0.71c0.097,0.15,0.061,0.442-0.109,0.874c0.058-0.035,0.209-0.097,0.451-0.183l0.067,0.319
					l0.372-0.09c0.019,0.243-0.078,0.323-0.291,0.243C24.2,21.931,24.003,21.848,23.865,21.811z"/>
			</g>
			<path style="fill-rule:evenodd;clip-rule:evenodd;fill:#FFFBE8;" d="M30.122,17.142c0.029-0.168,0.448-0.195,1.254-0.082
				c0.77,0.09,1.018,0.262,0.745,0.517c-0.272,0.254-0.688,0.295-1.246,0.121C30.349,17.521,30.098,17.336,30.122,17.142z"/>
			<path style="fill-rule:evenodd;clip-rule:evenodd;fill:#FFFBE8;" d="M10.11,19.685c0.765,0.227,1.208,0.47,1.327,0.727
				c0.065,0.155-0.05,0.225-0.348,0.21c-0.403-0.057-0.756-0.105-1.058-0.147c-0.441-0.079-0.777-0.131-1.011-0.155
				c-0.386,0.023-0.928,0.163-1.625,0.418c-1.418,0.541-1.894,0.453-1.425-0.263l0.338-0.249c0.316-0.206,0.796-0.404,1.44-0.599
				C8.42,19.401,9.208,19.421,10.11,19.685z"/>
			<path style="fill-rule:evenodd;clip-rule:evenodd;fill:#FFFBE8;" d="M20.346,19.038c0.76,0.201,1.098,0.416,1.016,0.645
				c-0.061,0.172-0.419,0.179-1.072,0.018c-0.829-0.219-1.354-0.313-1.576-0.284c-0.747,0.017-1.136,0.026-1.168,0.03
				c-0.366-0.033-0.486-0.141-0.361-0.32l1.506-0.28C19.135,18.787,19.687,18.852,20.346,19.038z"/>
			<path style="fill-rule:evenodd;clip-rule:evenodd;fill:#FFFBE8;" d="M22.576,16.739c0.867,0.411,1.133,0.704,0.797,0.878
				c-0.263,0.145-0.555,0.073-0.876-0.212C22.235,17.143,22.262,16.921,22.576,16.739z"/>
			<path style="fill-rule:evenodd;clip-rule:evenodd;fill:#728501;" d="M15.932,19.453c-0.698,0.092-0.917-0.016-0.655-0.323
				c0.026-0.031,0.352-0.033,0.978-0.006c-0.358-0.308-0.553-0.609-0.583-0.906c0.297,0.016,0.867,0.241,1.709,0.678l-0.219,0.008
				c0.037,0.022,0.071,0.065,0.101,0.13l0.387-0.256C17.393,19.112,16.821,19.337,15.932,19.453z"/>
			<path style="fill-rule:evenodd;clip-rule:evenodd;fill:#728501;" d="M20.981,19.037l0.098,0.232
				c-0.05-0.238,0.062-0.404,0.336-0.494c0.102,0.178,0.241,0.445,0.414,0.806c-0.056-0.267,0.072-0.433,0.383-0.501
				c0.049,0.075,0.141,0.2,0.275,0.373c0.158-0.021,0.44-0.153,0.846-0.397c0.019,0.243-0.11,0.561-0.388,0.952
				c-0.844-0.136-1.47-0.326-1.881-0.572L20.981,19.037z"/>
			<path style="fill-rule:evenodd;clip-rule:evenodd;fill:#728501;" d="M30.703,20.136c-0.306-0.369-0.765-0.459-1.377-0.27
				l0.062-0.172c-0.381,0.05-0.56-0.104-0.538-0.461c0.26-0.007,0.525,0.094,0.799,0.305c0.193-0.162,0.374-0.391,0.54-0.686
				l0.093,0.438c0.231-0.14,0.5-0.257,0.807-0.352c0.045,0.213-0.009,0.424-0.16,0.635C30.75,19.816,30.676,20.004,30.703,20.136z"
				/>
			<path style="fill-rule:evenodd;clip-rule:evenodd;fill:#968563;" d="M12.692,20.329l0.921-0.039l0.286,0.658
				c0.264,0.484,0.543,0.803,0.836,0.955c0.506,0.233,1.617,0.319,3.333,0.259l-2.375,0.803l-2.307-0.271
				c-0.106-0.041-0.203-0.11-0.288-0.208c-0.14-0.2-0.087-0.412,0.16-0.636C13.677,21.523,13.489,21.016,12.692,20.329z"/>
			<path style="fill-rule:evenodd;clip-rule:evenodd;fill:#968563;" d="M18.735,21.379c0.326-0.152,0.634-0.166,0.921-0.039
				c0.288,0.126,0.268,0.265-0.059,0.417c-0.326,0.152-0.62,0.149-0.882-0.008C18.428,21.624,18.435,21.5,18.735,21.379z"/>
			<path style="fill-rule:evenodd;clip-rule:evenodd;fill:#968563;" d="M25.022,17.319l-0.384,0.501
				c-0.173-0.359-0.505-0.698-0.996-1.016c-0.336-0.202-0.688-0.319-1.053-0.353l-0.429,0.056l0.684-0.704
				c0.299-0.285,0.443-0.604,0.434-0.958l0.143,0.677c0.202,0.492,0.542,0.789,1.021,0.89c0.785,0.169,1.673-0.11,2.659-0.84
				c-0.629,0.573-1.091,0.934-1.386,1.082C25.541,16.76,25.311,16.981,25.022,17.319z"/>
			<path style="fill-rule:evenodd;clip-rule:evenodd;fill:#968563;" d="M26.464,22.534c-0.131,0.154-0.344,0.305-0.639,0.452
				c-0.18,0.078-0.508,0.148-0.984,0.211l-0.674,0.048c-0.147-0.391-0.617-0.684-1.408-0.88c-0.483-0.128-1.284-0.214-2.403-0.258
				l-1.518-0.006l1.061-0.303c0.835-0.219,1.522-0.363,2.061-0.434c0.54-0.071,1.022-0.025,1.448,0.137
				c0.25,0.104,0.591,0.251,1.022,0.439C24.94,22.038,25.617,22.236,26.464,22.534z"/>
			<path style="fill-rule:evenodd;clip-rule:evenodd;fill:#91C401;" d="M19.46,13.668c-0.047,0.088-0.395,0.448-1.045,1.079
				l-0.249-0.254l0.165-0.145c-0.243,0.086-0.541-0.093-0.896-0.538c-0.329-0.476-0.401-0.82-0.218-1.036
				c0.183-0.215,0.44-0.154,0.773,0.185c0.254,0.289,0.406,0.549,0.458,0.78c-0.048-0.258,0.102-0.557,0.447-0.898
				c0.357-0.319,0.712-0.489,1.067-0.509C20.014,12.736,19.847,13.181,19.46,13.668z"/>
			<path style="fill-rule:evenodd;clip-rule:evenodd;fill:#91C401;" d="M15.581,14.996c-0.504-0.07-0.928-0.301-1.271-0.693
				c1.283-0.219,2.276-0.151,2.979,0.204c-0.002-0.069,0.039-0.107,0.122-0.119l0.042,0.199c-0.053-0.031-0.108-0.059-0.164-0.081
				l0.004,0.02c0.15,0.09,0.316,0.108,0.501,0.057c0.122-0.043,0.284-0.12,0.49-0.228c-0.076,0.255,0.014,0.531,0.272,0.824
				c-0.276-0.072-0.474-0.156-0.591-0.25c-0.519,0.478-1.027,0.694-1.526,0.65c0.03-0.168,0.25-0.36,0.661-0.579
				C16.389,15.04,15.883,15.038,15.581,14.996z"/>
			<path style="fill-rule:evenodd;clip-rule:evenodd;fill:#91C401;" d="M6.809,19.34c0.074,0.045,0.233-0.208,0.477-0.758
				c0.321,0.284,0.407,0.615,0.257,0.989c-0.176,0.404-0.459,0.374-0.852-0.093l-0.092,0.258c-0.222,0.029-0.549-0.052-0.98-0.24
				c-0.5-0.207-0.704-0.398-0.61-0.575c0.094-0.176,0.406-0.162,0.938,0.041C6.436,19.116,6.724,19.241,6.809,19.34z"/>
			<path style="fill-rule:evenodd;clip-rule:evenodd;fill:#91C401;" d="M28.454,15.723l-0.025-0.119
				c-0.409-0.083-0.618-0.301-0.627-0.655c0.132,0.01,0.32,0.053,0.565,0.13c0.213,0.082,0.382,0.114,0.51,0.097
				c-0.043-0.513,0.289-0.871,0.997-1.073c0.076,0.208,0.009,0.586-0.202,1.132l0.364-0.13c-0.077,0.255-0.361,0.375-0.854,0.357
				C28.721,15.442,28.478,15.528,28.454,15.723z"/>
		</g>
	</g>
	<g>
		<path style="fill-rule:evenodd;clip-rule:evenodd;fill:#A3A3A3;" d="M41.632,18.77l-0.233,1.428
			c-0.595,0.155-1.365,0.295-2.311,0.42c-1.865,0.237-3.626,0.264-5.283,0.077c-1.645-0.176-2.939-0.367-3.885-0.574
			c-0.466-0.104-0.771-0.191-0.912-0.264v-1.428c0.245-0.187,0.673-0.378,1.281-0.574c1.23-0.383,2.745-0.574,4.545-0.574
			c2.629,0,4.552,0.248,5.769,0.744C41.211,18.273,41.554,18.521,41.632,18.77z"/>
		
			<linearGradient id="SVGID_4_" gradientUnits="userSpaceOnUse" x1="1.3496" y1="25.1494" x2="32.5996" y2="25.1494" gradientTransform="matrix(0.3884 0 0 0.3104 28.5998 14.7499)">
			<stop  offset="0" style="stop-color:#D9D9D9"/>
			<stop  offset="0.3216" style="stop-color:#EDEDED"/>
			<stop  offset="1" style="stop-color:#B0B0B0"/>
		</linearGradient>
		<path style="fill-rule:evenodd;clip-rule:evenodd;fill:url(#SVGID_4_);" d="M29.124,19.607l6.06,0.466l6.079-0.466l-1.476,4.688
			h-0.02c-0.052,0.29-0.518,0.559-1.398,0.807c-0.945,0.27-2.007,0.404-3.186,0.404c-1.217,0-2.305-0.135-3.263-0.404
			c-0.906-0.269-1.359-0.548-1.359-0.837v-0.017L29.124,19.607z"/>
		<path style="fill-rule:evenodd;clip-rule:evenodd;fill:#8A8A8A;" d="M40.117,21.765c-0.609,0.187-1.521,0.311-2.739,0.373
			c-2.227,0.114-4.188,0.011-5.885-0.311c-0.842-0.155-1.463-0.326-1.864-0.512l-0.077-0.171l-0.175-0.745l0.058-1.009l11.323,1.521
			l-0.116,0.605C40.59,21.6,40.415,21.683,40.117,21.765z"/>
		<path style="fill-rule:evenodd;clip-rule:evenodd;fill:#FFFFFF;" d="M41.146,18.584c-0.013-0.342-0.603-0.632-1.768-0.87
			c-1.152-0.237-2.538-0.356-4.156-0.356s-3.004,0.119-4.156,0.356c-1.152,0.238-1.741,0.528-1.768,0.87h-0.68
			c0.168-0.373,0.874-0.688,2.117-0.947c1.256-0.259,2.731-0.388,4.428-0.388s3.173,0.129,4.429,0.388
			c1.243,0.259,1.948,0.574,2.117,0.947H41.146z"/>
		<path style="fill-rule:evenodd;clip-rule:evenodd;fill:#547526;" d="M34.912,16.255c0.064,0.279-0.078,0.548-0.428,0.807
			c0.57-0.373,0.751-0.398,0.544-0.078c-0.104,0.166-0.22,0.347-0.35,0.543c-0.116,0.135-0.33,0.223-0.641,0.264
			c-0.57-0.383-0.854-0.657-0.854-0.823c0-0.103,0.136-0.14,0.407-0.108c0.13,0.021,0.259,0.046,0.389,0.078
			c-0.182-0.083-0.356-0.176-0.524-0.279c-0.337-0.207-0.46-0.352-0.369-0.435c0.155-0.135,0.362-0.129,0.622,0.015
			c-0.13-0.083-0.253-0.176-0.369-0.279c-0.221-0.196-0.285-0.336-0.194-0.419c0.155-0.124,0.369-0.083,0.641,0.124
			c-0.091-0.114-0.181-0.238-0.271-0.372c-0.169-0.259-0.214-0.414-0.137-0.466c0.208-0.155,0.383-0.093,0.524,0.186
			c0.065,0.145,0.11,0.3,0.137,0.466l0.155-0.295c0.129-0.176,0.232-0.223,0.311-0.14c0.13,0.134,0.052,0.393-0.233,0.776
			c0.35-0.341,0.544-0.424,0.583-0.248c0.031,0.149-0.053,0.349-0.252,0.598C34.769,16.012,34.872,16.041,34.912,16.255z"/>
		
			<radialGradient id="SVGID_5_" cx="9.9985" cy="-11.8652" r="17.2455" gradientTransform="matrix(0.12 0.2952 0.3694 -0.0959 37.3668 12.4735)" gradientUnits="userSpaceOnUse">
			<stop  offset="0" style="stop-color:#F6FCCC"/>
			<stop  offset="1" style="stop-color:#87BB44"/>
		</radialGradient>
		<path style="fill-rule:evenodd;clip-rule:evenodd;fill:url(#SVGID_5_);" d="M37.32,15.728c0.182,0.135,0.401,0.254,0.66,0.357
			c0.155,0.063,0.369,0.14,0.641,0.233c0.44,0.197,0.68,0.331,0.719,0.404c0.026,0.042,0.059,0.186,0.098,0.434
			c0.064,0.238,0.155,0.373,0.271,0.404c0.155,0.052,0.253,0.093,0.291,0.124c0.052,0.041,0.124,0.129,0.214,0.264
			c0.026,0.052,0.071,0.176,0.136,0.372c0.039,0.114,0.098,0.187,0.175,0.218c0.104,0.052,0.201,0.135,0.292,0.248
			c0.104,0.114,0.155,0.223,0.155,0.326c0,0.196-0.576,0.522-1.729,0.978c-1.359,0.518-2.687,0.745-3.981,0.684
			c-3.587-0.207-5.497-0.688-5.729-1.444c-0.052-0.124-0.052-0.269,0-0.435c0.064-0.165,0.109-0.295,0.136-0.388
			c0.025-0.093,0.123-0.181,0.291-0.264c0.155-0.072,0.227-0.14,0.214-0.202c-0.052-0.186,0.052-0.372,0.311-0.559
			c0.091-0.083,0.233-0.186,0.428-0.311c0.22-0.145,0.389-0.232,0.505-0.264c0.077-0.031,0.232-0.052,0.466-0.062
			c0.246-0.01,0.46-0.042,0.641-0.093c0.194-0.042,0.356-0.109,0.486-0.202c0.168-0.104,0.298-0.17,0.388-0.202
			c0.117-0.052,0.266-0.078,0.447-0.078s0.323-0.026,0.427-0.078c0.078-0.042,0.149-0.114,0.214-0.217
			c0.052-0.072,0.162-0.119,0.33-0.14c0.207-0.031,0.524-0.119,0.952-0.264c0.246-0.093,0.505-0.129,0.776-0.109
			C36.854,15.485,37.113,15.573,37.32,15.728z"/>
		
			<radialGradient id="SVGID_6_" cx="10.855" cy="-11.5557" r="16.8602" gradientTransform="matrix(0.1201 0.2952 0.3694 -0.0959 37.1381 12.5325)" gradientUnits="userSpaceOnUse">
			<stop  offset="0" style="stop-color:#D3DB97"/>
			<stop  offset="1" style="stop-color:#75B327"/>
		</radialGradient>
		<path style="fill-rule:evenodd;clip-rule:evenodd;fill:url(#SVGID_6_);" d="M39.34,18.195c0.078-0.082,0.149-0.196,0.214-0.341
			c0.039-0.104,0.084-0.155,0.136-0.155c0.026,0.01,0.084,0.015,0.175,0.015c0.039,0,0.052,0.016,0.039,0.047
			s-0.059,0.104-0.136,0.218c-0.065,0.104-0.091,0.171-0.078,0.201c0.026,0.114,0.098,0.176,0.214,0.187
			c0.052,0.011,0.136,0,0.253-0.031c0.064-0.01,0.019,0.036-0.137,0.14c-0.323,0.228-0.355,0.362-0.097,0.403
			c0.077,0.021,0.123,0,0.136-0.062c0.025-0.072,0.052-0.114,0.078-0.124c0.052-0.011,0.097-0.026,0.136-0.047
			c0.025,0,0.059,0.026,0.097,0.078l0.116,0.248c0.014,0.021,0.026,0.01,0.039-0.031l0.039,0.155
			c0.039,0.114,0.162,0.223,0.369,0.326c0.091,0.113-0.084,0.295-0.524,0.543c-0.492,0.279-1.987,0.518-4.486,0.714
			c-2.396,0.196-3.846,0.232-4.351,0.108c-0.389-0.093-0.81-0.264-1.263-0.512c-0.414-0.228-0.628-0.378-0.641-0.45
			c-0.039-0.145-0.071-0.279-0.098-0.403c-0.052-0.228-0.064-0.394-0.038-0.497l0.038-0.264l0.292-0.14l0.039,0.202
			c0.142,0.145,0.278,0.217,0.407,0.217c0.078,0,0.175-0.063,0.291-0.187c0.143-0.145,0.24-0.232,0.292-0.264
			c0.077-0.041,0.058-0.072-0.059-0.093c-0.182-0.052-0.298-0.104-0.35-0.155c-0.104-0.093-0.168-0.16-0.194-0.202
			c-0.052-0.062-0.045-0.134,0.02-0.217l0.524-0.513l0.098,0.326c0.038,0.063,0.077,0.15,0.116,0.264
			c0.052,0.094,0.148,0.146,0.291,0.155c0.169,0.011,0.317-0.005,0.447-0.046c0.116-0.031,0.168-0.063,0.155-0.094
			c-0.182-0.165-0.285-0.29-0.312-0.372c-0.013-0.042,0.014-0.119,0.078-0.233l0.078-0.14l0.213,0.218
			c0,0.041,0.033,0.072,0.098,0.093c0.064,0.011,0.104-0.005,0.116-0.047c0.014-0.01,0.02-0.062,0.02-0.154
			c0-0.052,0.02-0.073,0.059-0.063l0.232,0.108c0.026,0.021,0.098,0.099,0.214,0.233c0.143,0.113,0.272,0.14,0.389,0.077
			c0.13-0.072,0.2-0.119,0.214-0.14c0-0.021-0.052-0.099-0.155-0.232c-0.091-0.104-0.149-0.171-0.175-0.202
			c-0.026-0.031-0.033-0.098-0.02-0.202c0.013-0.114,0.077-0.228,0.194-0.341c0.052-0.063,0.104-0.114,0.155-0.155l-0.039,0.14
			c-0.013,0.093-0.007,0.171,0.02,0.233c0,0.01,0.02,0.067,0.058,0.17c0,0.031,0.052,0.037,0.156,0.016
			c0.168-0.021,0.259-0.031,0.271-0.031c0.052-0.021,0.078-0.062,0.078-0.124c-0.026-0.072-0.046-0.119-0.059-0.14
			c-0.013-0.031,0.013-0.067,0.077-0.108c0.065-0.031,0.11-0.067,0.137-0.109c0.025-0.031,0.058-0.052,0.097-0.062
			c0.052-0.01,0.123-0.031,0.214-0.062c0.064-0.031,0.104-0.078,0.116-0.14l0.039-0.171l0.098,0.047
			c0.064,0.031,0.104,0.067,0.116,0.108c0.013,0.021,0.039,0.046,0.077,0.078c0.014,0.01,0,0.046-0.038,0.108
			c-0.065,0.125-0.098,0.191-0.098,0.202c-0.052,0.052-0.123,0.067-0.214,0.046c-0.09-0.01-0.168,0-0.232,0.031
			c-0.065,0.021-0.104,0.051-0.117,0.093l0.039,0.202c-0.052,0.052-0.091,0.099-0.116,0.14c-0.065,0.083-0.059,0.119,0.02,0.109
			c0.064-0.011,0.104-0.063,0.116-0.156s0.045-0.155,0.097-0.186c0.065-0.031,0.169-0.078,0.312-0.14
			c0.116-0.062,0.194-0.14,0.232-0.233c0.078-0.155,0.156-0.331,0.233-0.528l0.33-0.124c-0.077,0.104-0.136,0.228-0.175,0.373
			c-0.025,0.134-0.091,0.264-0.194,0.388c0,0.031,0.032,0.047,0.098,0.047c0.077,0,0.129-0.021,0.155-0.062
			c0.155-0.145,0.214-0.187,0.175-0.125c-0.026,0.073-0.098,0.166-0.214,0.28c-0.039,0.062-0.13,0.129-0.271,0.202
			c-0.156,0.062-0.266,0.108-0.33,0.139c-0.104,0.052-0.162,0.114-0.176,0.187c0,0.031,0.046,0.187,0.137,0.466
			c0.013,0.052,0.006,0.108-0.02,0.171c-0.013,0.041-0.007,0.067,0.02,0.077c0.143,0.042,0.291,0.011,0.446-0.093
			c0.052-0.031,0.13-0.052,0.233-0.063c0.052-0.01,0.064-0.036,0.039-0.077c-0.026-0.042-0.091-0.114-0.194-0.218
			c-0.104-0.093-0.162-0.149-0.175-0.17l0.02-0.187l0.136,0.016c0.091,0.01,0.143,0.041,0.155,0.093
			c0.039,0.083,0.123,0.212,0.253,0.388c0.025,0.052,0.122,0.114,0.291,0.187c0.194,0.072,0.278,0.13,0.252,0.171
			c-0.052-0.021-0.214-0.005-0.485,0.047c-0.492,0.093-0.751,0.145-0.776,0.154l-0.059,0.063c-0.013,0.011-0.078,0.021-0.194,0.031
			c-0.168-0.021-0.285-0.026-0.35-0.016c-0.104,0.01-0.201,0.072-0.291,0.187c-0.065,0.093-0.175,0.191-0.33,0.295
			c-0.078,0.072-0.059,0.129,0.058,0.17c0.104,0.042,0.227,0.099,0.369,0.171c0.117,0.031,0.182,0.005,0.194-0.077
			c0.013-0.063,0-0.146-0.039-0.248c-0.025-0.083-0.025-0.135,0-0.155c0.039-0.042,0.065-0.063,0.078-0.063
			c0.025,0,0.071,0.025,0.136,0.077c0.026,0.021,0.136,0.037,0.33,0.047c0.13,0.011,0.155,0.083,0.078,0.218
			c-0.078,0.134-0.182,0.253-0.312,0.356c-0.129,0.094-0.2,0.155-0.213,0.187c-0.052,0.113-0.078,0.181-0.078,0.201
			c0,0.073,0.052,0.104,0.155,0.094c0.078,0,0.162,0.016,0.253,0.047c0.077,0,0.143-0.053,0.194-0.155
			c0.038-0.083,0.077-0.213,0.116-0.389c0.039-0.165,0.084-0.279,0.136-0.341c0.052-0.063,0.104-0.124,0.155-0.187
			c0.026-0.041,0.091-0.067,0.194-0.078c0.169-0.021,0.298-0.01,0.389,0.031c0.376,0.228,0.563,0.352,0.563,0.373
			c0,0.03-0.052,0.077-0.155,0.14c-0.143-0.114-0.292-0.166-0.447-0.155c-0.194,0.01-0.311,0.021-0.35,0.031
			c-0.104,0.03-0.181,0.098-0.232,0.201c-0.039,0.083-0.098,0.187-0.175,0.311c-0.053,0.083-0.02,0.13,0.097,0.14
			c0.183,0.02,0.318,0.03,0.408,0.031c0.002-0.015,0.034-0.062,0.097-0.14c0.091-0.104,0.188-0.171,0.291-0.202
			c0.26-0.082,0.408-0.113,0.447-0.093c0.104,0.021,0.032,0.104-0.214,0.248c-0.013,0.011-0.084,0.042-0.214,0.093
			c-0.052,0.021-0.064,0.063-0.039,0.125c0.026,0.082,0.085,0.14,0.176,0.17c0.09,0.042,0.168,0.037,0.232-0.015
			c0.091-0.073,0.207-0.182,0.35-0.326c0.064-0.042,0.221-0.108,0.467-0.202c0.207-0.082,0.369-0.181,0.485-0.295
			c0.285-0.269,0.439-0.408,0.466-0.419c0.155-0.124,0.324-0.181,0.505-0.171c0.143,0.011,0.259,0.063,0.35,0.155
			c0.064,0.072,0.143,0.078,0.233,0.016c0.091-0.052,0.136-0.119,0.136-0.202C39.217,18.351,39.263,18.268,39.34,18.195z"/>
		
			<radialGradient id="SVGID_7_" cx="10.8076" cy="-19.2012" r="7.0837" gradientTransform="matrix(0.12 0.2952 0.3695 -0.0959 42.7877 11.0688)" gradientUnits="userSpaceOnUse">
			<stop  offset="0" style="stop-color:#BEDB7F"/>
			<stop  offset="1" style="stop-color:#96CF4F"/>
		</radialGradient>
		<path style="fill-rule:evenodd;clip-rule:evenodd;fill:url(#SVGID_7_);" d="M37.417,15.93c0.052,0.021,0.078,0.021,0.078,0
			l0.077-0.031l0.253,0.14l0.311,0.109c-0.104,0.01-0.175,0.036-0.214,0.078c-0.09,0.104-0.161,0.176-0.213,0.217
			c-0.246,0.134-0.376,0.217-0.389,0.248c0,0.042,0.025,0.099,0.078,0.171c0.051,0.093,0.109,0.129,0.174,0.108l0.233-0.124
			c0.064-0.052,0.148-0.062,0.252-0.031l0.137,0.031c-0.026,0-0.052,0.005-0.078,0.016c-0.052,0.021-0.071,0.067-0.059,0.139
			c0,0.052-0.006,0.109-0.019,0.171c0,0.031,0.052,0.052,0.155,0.063c0.246,0.01,0.375,0.016,0.389,0.016
			c0.025,0,0.051-0.026,0.077-0.078c0.013-0.03,0.071-0.036,0.175-0.016c0.091,0.021,0.175,0.042,0.253,0.063
			c0.038,0.011,0.064,0.031,0.077,0.063c0.014,0.021,0.052,0.041,0.117,0.062c0.052,0.031,0.084,0.063,0.097,0.093
			c0.013,0.042,0.025,0.099,0.039,0.171c0.013,0.052-0.007,0.083-0.059,0.094c-0.052,0.01-0.194-0.021-0.428-0.094
			c-0.259-0.083-0.395-0.124-0.407-0.124c-0.104,0.041-0.239,0.078-0.408,0.108c-0.401,0.094-0.653,0.171-0.757,0.233
			c-0.324,0.196-0.512,0.305-0.563,0.326c-0.065,0.021-0.175,0.015-0.33-0.016c-0.182-0.031-0.298-0.067-0.35-0.109
			c-0.026-0.021-0.11-0.124-0.253-0.311c-0.116-0.165-0.2-0.253-0.252-0.264c-0.182-0.113-0.272-0.201-0.272-0.264
			c-0.013-0.062,0.02-0.165,0.098-0.31c0.025-0.073,0.052-0.129,0.077-0.171c0.039-0.072,0.098-0.129,0.175-0.171l0.641-0.232
			c0.233-0.063,0.356-0.15,0.369-0.264l0.02-0.497l0.155,0.171c0.065,0.124,0.098,0.264,0.098,0.419c0,0.176-0.039,0.29-0.116,0.341
			c-0.091,0.042-0.149,0.067-0.176,0.078c-0.052,0.021-0.052,0.042,0,0.062c0.052,0.031,0.13,0.042,0.233,0.031
			s0.182-0.036,0.233-0.078s0.091-0.129,0.116-0.264c0.026-0.125,0.033-0.207,0.02-0.249c0-0.01-0.02-0.052-0.059-0.124
			c-0.025-0.052-0.019-0.072,0.02-0.062C37.255,15.868,37.313,15.888,37.417,15.93z"/>
		
			<radialGradient id="SVGID_8_" cx="9.458" cy="-3.7114" r="5.5065" gradientTransform="matrix(0.1199 0.2952 0.3695 -0.0958 31.3421 14.0387)" gradientUnits="userSpaceOnUse">
			<stop  offset="0" style="stop-color:#83AB4F"/>
			<stop  offset="1" style="stop-color:#739C40"/>
		</radialGradient>
		<path style="fill-rule:evenodd;clip-rule:evenodd;fill:url(#SVGID_8_);" d="M30.406,17.528c0.181-0.238,0.382-0.419,0.602-0.543
			c0.143-0.083,0.253-0.129,0.33-0.14c0.065-0.01,0.214-0.021,0.447-0.031c0.311-0.021,0.576-0.057,0.796-0.108
			c-0.039,0.031-0.071,0.067-0.097,0.108c-0.052,0.063-0.052,0.093,0,0.093c-0.159,0.005-0.386,0.037-0.68,0.093
			c-0.389,0.083-0.642,0.177-0.758,0.28c-0.052,0.03-0.11,0.077-0.175,0.14c-0.13,0.113-0.239,0.232-0.33,0.356
			c-0.233,0.321-0.291,0.513-0.175,0.574c0.077,0.031,0.252,0.078,0.524,0.14c0.232,0.135,0.453,0.233,0.66,0.295l-0.175,0.248
			c-0.428-0.103-0.699-0.191-0.815-0.264c-0.298-0.196-0.46-0.419-0.486-0.667c-0.013-0.114,0-0.202,0.039-0.264
			C30.127,17.818,30.225,17.714,30.406,17.528z"/>
		
			<linearGradient id="SVGID_9_" gradientUnits="userSpaceOnUse" x1="13.2607" y1="-19.25" x2="15.7105" y2="-19.25" gradientTransform="matrix(0.1625 0.2819 -0.3528 0.1299 28.5996 14.7501)">
			<stop  offset="0" style="stop-color:#FFE000"/>
			<stop  offset="1" style="stop-color:#FFF7B5"/>
		</linearGradient>
		<path style="fill-rule:evenodd;clip-rule:evenodd;fill:url(#SVGID_9_);" d="M38.466,16.24c0.078,0.104,0.084,0.217,0.02,0.342
			c-0.025,0.052-0.071,0.093-0.136,0.124c-0.064,0.021-0.194,0.047-0.389,0.078c-0.181,0.031-0.317,0.036-0.408,0.016l-0.097-0.046
			c-0.194-0.083-0.337-0.192-0.427-0.326c-0.143-0.166-0.156-0.311-0.039-0.435c0.064-0.073,0.193-0.134,0.388-0.187
			c0.246-0.041,0.454-0.025,0.622,0.047C38.259,15.956,38.414,16.084,38.466,16.24z"/>
		
			<radialGradient id="SVGID_10_" cx="8.8877" cy="-9.5747" r="10.7363" gradientTransform="matrix(0.1198 0.2953 0.3695 -0.0958 35.6755 12.9161)" gradientUnits="userSpaceOnUse">
			<stop  offset="0" style="stop-color:#83AB4F"/>
			<stop  offset="1" style="stop-color:#739C40"/>
		</radialGradient>
		<path style="fill-rule:evenodd;clip-rule:evenodd;fill:url(#SVGID_10_);" d="M35.397,15.611c-0.075,0.05-0.14,0.109-0.194,0.179
			c-0.064,0.093-0.116,0.191-0.155,0.294c-0.052,0.135-0.091,0.228-0.116,0.28c-0.039,0.093-0.085,0.155-0.137,0.186
			c-0.09,0.072-0.193,0.15-0.311,0.233c-0.129,0.093-0.298,0.191-0.505,0.295c-0.194,0.093-0.317,0.16-0.369,0.202
			c-0.091,0.113-0.162,0.196-0.214,0.248c-0.09,0.093-0.2,0.171-0.33,0.232c-0.22,0.094-0.621,0.207-1.204,0.342l0.059,0.171
			c0.039,0.124,0.097,0.217,0.175,0.279c0.039,0.041,0.168,0.108,0.389,0.201c0.22,0.094,0.382,0.191,0.485,0.295
			c0.116,0.124,0.194,0.254,0.233,0.389c0.013,0.041,0.032,0.186,0.058,0.435c0.026,0.217-0.109,0.336-0.407,0.356l-0.292-0.108
			c0.207-0.507,0.201-0.838-0.02-0.993c-0.375-0.218-0.634-0.388-0.776-0.513c-0.091-0.072-0.175-0.155-0.253-0.248l-0.077-0.108
			c0.259-0.072,0.453-0.166,0.582-0.279l0.214-0.171l0.563-0.248c0.22-0.083,0.317-0.155,0.291-0.218l-0.155-0.14
			c0.505-0.072,0.933-0.238,1.282-0.497c0.116-0.083,0.232-0.166,0.35-0.249c0.052-0.051,0.071-0.124,0.058-0.217
			c-0.013-0.093,0.039-0.207,0.155-0.341c0.052-0.072,0.104-0.134,0.156-0.186h0.116c0.091-0.01,0.2-0.042,0.33-0.093L35.397,15.611
			z"/>
		
			<radialGradient id="SVGID_11_" cx="12.4883" cy="-10.1416" r="15.638" gradientTransform="matrix(0.1199 0.2953 0.3695 -0.0958 36.0945 12.8071)" gradientUnits="userSpaceOnUse">
			<stop  offset="0" style="stop-color:#AFD67C"/>
			<stop  offset="1" style="stop-color:#709C39"/>
		</radialGradient>
		<path style="fill-rule:evenodd;clip-rule:evenodd;fill:url(#SVGID_11_);" d="M37.417,16.954c0.13-0.145,0.207-0.264,0.233-0.357
			l0.389,0.17c-0.052,0.031-0.098,0.067-0.136,0.109c-0.078,0.093-0.065,0.197,0.038,0.31c0.376,0.425,0.479,0.756,0.311,0.993
			l-0.311,0.373c-0.077,0.155-0.071,0.311,0.02,0.466c0.285,0.527,0.557,0.766,0.816,0.714c0.104-0.021,0.258-0.058,0.466-0.109
			c0.143-0.062,0.175-0.154,0.097-0.279c-0.143-0.176-0.246-0.3-0.311-0.372c-0.091-0.124-0.11-0.243-0.059-0.357
			c0.026-0.041,0.117-0.145,0.272-0.31c0.091-0.094,0.097-0.197,0.02-0.311l-0.369-0.435l0.136-0.14l0.271,0.14
			c0.194,0.134,0.285,0.284,0.272,0.45c0,0.113-0.084,0.264-0.253,0.449c-0.116,0.135-0.123,0.265-0.02,0.389
			c0.091,0.113,0.214,0.228,0.369,0.341c0.104,0.073,0.162,0.146,0.175,0.218c0.014,0.104,0.085,0.16,0.214,0.171
			c0.143,0.01,0.214-0.031,0.214-0.124c0-0.073-0.045-0.202-0.136-0.389L40,18.816l0.117-0.187l0.136,0.171
			c0.104,0.135,0.162,0.264,0.175,0.388c0.039,0.218,0.025,0.394-0.039,0.528c-0.104,0.217-0.375,0.419-0.815,0.605
			c-0.518,0.217-1.58,0.356-3.186,0.419c-1.657,0.072-2.978,0.01-3.962-0.187c-0.854-0.176-1.638-0.455-2.351-0.838l-0.796-0.528
			l0.272-0.807l0.213,0.124l0.098,0.016l-0.253,0.497c-0.039,0.145-0.039,0.243,0,0.295c0.155,0.021,0.344-0.094,0.563-0.342
			c0.337-0.383,0.738-0.646,1.204-0.792c0.233-0.072,0.382-0.14,0.446-0.201c0.065-0.083,0.137-0.166,0.214-0.249
			c0.182-0.165,0.344-0.264,0.485-0.295l0.428,0.047c-0.104,0.031-0.266,0.124-0.485,0.279c-0.078,0.052-0.175,0.15-0.291,0.295
			c-0.078,0.104-0.194,0.182-0.351,0.233c-0.505,0.176-0.789,0.315-0.854,0.419c-0.013,0.021-0.097,0.124-0.252,0.311
			c-0.143,0.206-0.169,0.383-0.078,0.527c0.117,0.196,0.194,0.3,0.233,0.311c0.052,0.041,0.182,0.052,0.389,0.031
			c0.388-0.042,0.673-0.238,0.854-0.59c0.052-0.104,0.155-0.213,0.311-0.326c0.182-0.135,0.311-0.264,0.389-0.388l0.232-0.513
			c0.091-0.196,0.227-0.342,0.408-0.435c0.233-0.135,0.369-0.223,0.408-0.264c0.052-0.063,0.045-0.166-0.02-0.311
			c-0.052-0.124-0.123-0.228-0.214-0.31l-0.116-0.078l0.388-0.063l0.156,0.14c0.116,0.114,0.188,0.227,0.213,0.341
			c0.039,0.124,0.039,0.228,0,0.311c-0.038,0.062-0.116,0.129-0.232,0.201c-0.155,0.083-0.259,0.14-0.311,0.171
			c-0.091,0.063-0.149,0.14-0.175,0.233c-0.053,0.196-0.182,0.424-0.389,0.683c-0.052,0.062-0.207,0.207-0.467,0.435
			c-0.194,0.155-0.291,0.269-0.291,0.342c0,0.062-0.025,0.129-0.077,0.201c-0.026,0.063,0.025,0.108,0.155,0.14
			c0.194,0.052,0.421,0.093,0.68,0.124c0.323,0.042,0.55,0.052,0.68,0.031c0.143-0.031,0.304-0.145,0.485-0.342
			c0.168-0.196,0.259-0.377,0.272-0.543c0.013-0.217,0.038-0.362,0.077-0.435c0.064-0.135,0.233-0.253,0.505-0.356
			c0.207-0.073,0.421-0.15,0.641-0.233c0.13-0.062,0.201-0.176,0.214-0.342c0.013-0.165-0.006-0.336-0.058-0.512l-0.098-0.233h0.33
			c0.116,0.073,0.155,0.285,0.116,0.636c-0.038,0.238-0.129,0.435-0.271,0.59c-0.091,0.083-0.253,0.187-0.485,0.311
			c-0.194,0.104-0.324,0.181-0.389,0.233c-0.077,0.082-0.123,0.176-0.136,0.279c-0.013,0.093-0.071,0.232-0.175,0.419
			c-0.052,0.093-0.13,0.228-0.233,0.403c-0.052,0.135,0.032,0.248,0.253,0.342c0.246,0.113,0.563,0.145,0.951,0.093
			c0.052-0.011,0.473,0,1.263,0.031c0.414,0.01,0.628-0.114,0.641-0.373c0.014-0.238-0.02-0.491-0.097-0.761
			c-0.064-0.237-0.091-0.397-0.078-0.48c0.014-0.094,0.084-0.212,0.214-0.357c0.143-0.155,0.221-0.279,0.233-0.372
			c0.013-0.083-0.104-0.259-0.35-0.528C37.437,17.187,37.353,17.026,37.417,16.954z"/>
		
			<radialGradient id="SVGID_12_" cx="10.7891" cy="-15.894" r="9.8705" gradientTransform="matrix(0.12 0.2952 0.3694 -0.0959 40.3438 11.701)" gradientUnits="userSpaceOnUse">
			<stop  offset="0" style="stop-color:#83AB4F"/>
			<stop  offset="1" style="stop-color:#739C40"/>
		</radialGradient>
		<path style="fill-rule:evenodd;clip-rule:evenodd;fill:url(#SVGID_12_);" d="M36.543,15.417l0.312,0.062l0.038,0.186
			c0.078,0.249,0.071,0.466-0.02,0.652c-0.025,0.063-0.181,0.129-0.466,0.202c-0.35,0.093-0.537,0.145-0.563,0.155
			c-0.077,0.041-0.155,0.119-0.232,0.232c-0.052,0.135-0.091,0.212-0.117,0.233c-0.013,0.03-0.013,0.052,0,0.062
			c0.052,0.021,0.104,0.063,0.155,0.124c0.143,0.176,0.467,0.383,0.972,0.621c0.194,0.093,0.356,0.274,0.485,0.543
			c0.026,0.207-0.077,0.409-0.311,0.605c-0.117,0.104-0.285,0.187-0.505,0.248c-0.233,0.072-0.389,0.135-0.467,0.187
			c-0.168,0.124-0.271,0.347-0.311,0.667l-0.68-0.108c0.194-0.165,0.362-0.352,0.505-0.559c0.091-0.124,0.266-0.238,0.524-0.342
			c0.401-0.165,0.608-0.253,0.622-0.264c0.323-0.176,0.395-0.362,0.213-0.559c-0.142-0.165-0.349-0.3-0.621-0.403
			c-0.194-0.041-0.337-0.083-0.428-0.124c-0.155-0.052-0.252-0.14-0.291-0.264c-0.039-0.114-0.129-0.223-0.271-0.326l-0.194-0.124
			l0.33-0.14c0.064-0.01,0.201-0.166,0.408-0.465c0.064-0.083,0.252-0.171,0.563-0.264c0.208-0.052,0.324-0.114,0.35-0.186
			c0.014-0.042-0.006-0.14-0.058-0.295c-0.039-0.176-0.143-0.295-0.312-0.357H36.543z"/>
		
			<radialGradient id="SVGID_13_" cx="16.0166" cy="-19.0918" r="6.6489" gradientTransform="matrix(0.1198 0.2953 0.3695 -0.0957 42.7099 11.0955)" gradientUnits="userSpaceOnUse">
			<stop  offset="0" style="stop-color:#86B548"/>
			<stop  offset="1" style="stop-color:#5B802D"/>
		</radialGradient>
		<path style="fill-rule:evenodd;clip-rule:evenodd;fill:url(#SVGID_13_);" d="M36.912,17.839c0.065-0.072,0.207-0.15,0.428-0.233
			c0.116-0.052,0.266-0.108,0.446-0.171c0.143-0.062,0.305-0.176,0.486-0.341c0.025,0.031,0.142,0.041,0.349,0.031l-0.271,0.31
			c-0.091,0.104-0.175,0.187-0.253,0.249c-0.116,0.104-0.278,0.191-0.485,0.264s-0.401,0.196-0.582,0.372l-0.233,0.249l0.136,0.077
			c0.13,0.052,0.266,0.099,0.408,0.14c0.246,0.052,0.776,0.155,1.592,0.311c0.208,0.072,0.447,0.218,0.72,0.435l-0.563,0.187
			c-0.182-0.166-0.415-0.326-0.699-0.481c-0.155-0.083-0.337-0.119-0.544-0.108c-0.285,0-0.557-0.026-0.815-0.078
			c-0.337-0.072-0.583-0.186-0.738-0.341l-0.155-0.218L36.912,17.839z"/>
		
			<linearGradient id="SVGID_14_" gradientUnits="userSpaceOnUse" x1="15.8359" y1="-7.2642" x2="18.3974" y2="-7.2642" gradientTransform="matrix(0.163 0.2818 -0.3526 0.1303 28.5998 14.7496)">
			<stop  offset="0" style="stop-color:#FFE000"/>
			<stop  offset="1" style="stop-color:#FFF7B5"/>
		</linearGradient>
		<path style="fill-rule:evenodd;clip-rule:evenodd;fill:url(#SVGID_14_);" d="M33.164,18.289c0.091-0.083,0.232-0.161,0.427-0.233
			c0.259-0.093,0.473-0.108,0.642-0.046c0.259,0.104,0.395,0.284,0.407,0.543c0.039,0.052,0,0.181-0.116,0.388
			c-0.039,0.072-0.064,0.114-0.078,0.124c-0.052,0.031-0.161,0.063-0.33,0.094c-0.181,0.03-0.323,0.03-0.427,0l-0.098-0.063
			c0.104,0.041-0.025-0.077-0.388-0.356l-0.039-0.078C33.086,18.496,33.086,18.371,33.164,18.289z"/>
		
			<radialGradient id="SVGID_15_" cx="17.4526" cy="-24.2007" r="5.0322" gradientTransform="matrix(0.1196 0.2953 0.3696 -0.0956 46.4872 10.1221)" gradientUnits="userSpaceOnUse">
			<stop  offset="0" style="stop-color:#83AB4F"/>
			<stop  offset="1" style="stop-color:#739C40"/>
		</radialGradient>
		<path style="fill-rule:evenodd;clip-rule:evenodd;fill:url(#SVGID_15_);" d="M40.408,18.273c0.013,0.093,0.039,0.16,0.077,0.201
			c0.039,0.031,0.117,0.094,0.233,0.187c0.155,0.135,0.221,0.238,0.194,0.311c-0.284,0.196-0.485,0.311-0.602,0.342
			c-0.246,0.062-0.435-0.011-0.563-0.218c-0.039-0.063-0.162-0.119-0.369-0.171c-0.233-0.052-0.401-0.129-0.505-0.232
			c-0.13-0.114-0.143-0.233-0.039-0.357c0.064-0.083,0.194-0.237,0.389-0.466c0.168-0.248,0.123-0.491-0.136-0.729
			c0.064,0.062,0.162,0.098,0.291,0.108c0.155,0.124,0.246,0.232,0.272,0.326c0.051,0.165-0.072,0.383-0.369,0.651
			c-0.065,0.063-0.078,0.14-0.039,0.232c0.039,0.083,0.104,0.146,0.194,0.187c0.285,0.124,0.498,0.259,0.641,0.403
			c0.091,0.104,0.188,0.14,0.291,0.109c0.052-0.011,0.13-0.058,0.233-0.14c0.077-0.083,0.013-0.207-0.194-0.373
			c-0.143-0.104-0.227-0.243-0.252-0.419C40.143,18.154,40.091,18.046,40,17.9l-0.136-0.201l0.155,0.077
			c0.078,0.042,0.13,0.057,0.155,0.047l0.117,0.14C40.356,18.076,40.396,18.18,40.408,18.273z"/>
		
			<radialGradient id="SVGID_16_" cx="12.7915" cy="-23.0801" r="2.8778" gradientTransform="matrix(0.1198 0.2953 0.3695 -0.0957 45.6561 10.3308)" gradientUnits="userSpaceOnUse">
			<stop  offset="0" style="stop-color:#83AB4F"/>
			<stop  offset="1" style="stop-color:#739C40"/>
		</radialGradient>
		<path style="fill-rule:evenodd;clip-rule:evenodd;fill:url(#SVGID_16_);" d="M38.621,16.333l0.039,0.093
			c0.026,0.031,0.064,0.098,0.117,0.202c0.064,0.093,0.161,0.161,0.291,0.202l0.389,0.14l0.038,0.28l-0.175-0.124
			c-0.271-0.073-0.466-0.135-0.582-0.187c-0.078-0.042-0.155-0.125-0.233-0.249c-0.064-0.124-0.104-0.238-0.116-0.341
			c-0.013-0.093-0.071-0.166-0.175-0.217l-0.136-0.062C38.246,16.09,38.427,16.178,38.621,16.333z"/>
		
			<linearGradient id="SVGID_17_" gradientUnits="userSpaceOnUse" x1="12.1606" y1="-2.2432" x2="14.6164" y2="-2.2432" gradientTransform="matrix(0.3164 0.1801 -0.2254 0.2528 28.5998 14.7496)">
			<stop  offset="0" style="stop-color:#FFE000"/>
			<stop  offset="1" style="stop-color:#FFF7B5"/>
		</linearGradient>
		<path style="fill-rule:evenodd;clip-rule:evenodd;fill:url(#SVGID_17_);" d="M33.921,16.24c0.143,0.083,0.221,0.176,0.233,0.28
			c0.013,0.062-0.007,0.114-0.059,0.155c-0.025,0.041-0.123,0.119-0.291,0.232c-0.22,0.145-0.369,0.196-0.446,0.155
			c-0.233,0.011-0.428-0.021-0.583-0.093c-0.207-0.114-0.311-0.243-0.311-0.388c0.013-0.083,0.097-0.181,0.252-0.295
			c0.169-0.135,0.35-0.207,0.544-0.217C33.559,16.059,33.779,16.116,33.921,16.24z"/>
		
			<radialGradient id="SVGID_18_" cx="11.687" cy="-11.4004" r="8.7519" gradientTransform="matrix(0.1198 0.2953 0.3695 -0.0958 37.0248 12.5663)" gradientUnits="userSpaceOnUse">
			<stop  offset="0" style="stop-color:#83AB4F"/>
			<stop  offset="1" style="stop-color:#608C2B"/>
		</radialGradient>
		<path style="fill-rule:evenodd;clip-rule:evenodd;fill:url(#SVGID_18_);" d="M32.659,16.612c0.155-0.021,0.259-0.057,0.311-0.108
			c0.091-0.073,0.233-0.124,0.427-0.155c-0.013,0.062-0.071,0.135-0.175,0.217c-0.09,0.083-0.077,0.269,0.039,0.559
			c0.052,0.082,0.123,0.149,0.214,0.201c0.064,0.021,0.148,0.052,0.253,0.094c0.323,0.228,0.537,0.413,0.641,0.559
			c0.052,0.082,0.207,0.165,0.466,0.248c0.155,0.052,0.408,0.119,0.758,0.202c0.246,0.072,0.473,0.207,0.68,0.403
			c0.182,0.176,0.304,0.352,0.369,0.527c0.064,0.218-0.014,0.435-0.233,0.652l-0.524-0.031c0.246-0.248,0.376-0.476,0.389-0.683
			c0.013-0.146-0.188-0.337-0.603-0.574c-0.401-0.238-0.692-0.353-0.874-0.342c-0.298,0.011-0.596-0.13-0.894-0.419
			c-0.116-0.114-0.362-0.27-0.737-0.466c-0.362-0.187-0.557-0.311-0.583-0.372c-0.052-0.094-0.052-0.208,0-0.342L32.659,16.612z"/>
		
			<radialGradient id="SVGID_19_" cx="13.9175" cy="-5.7837" r="6.1508" gradientTransform="matrix(0.12 0.2952 0.3694 -0.0959 32.8734 13.6408)" gradientUnits="userSpaceOnUse">
			<stop  offset="0" style="stop-color:#83AB4F"/>
			<stop  offset="1" style="stop-color:#668A38"/>
		</radialGradient>
		<path style="fill-rule:evenodd;clip-rule:evenodd;fill:url(#SVGID_19_);" d="M31.571,18.211l0.311-0.466l0.02,0.265
			c0.039,0.206,0.104,0.372,0.194,0.496c0.091,0.155,0.239,0.284,0.446,0.388c0.182,0.104,0.473,0.223,0.874,0.357
			c0.324,0.114,0.512,0.331,0.563,0.651c0.026,0.166,0.02,0.315-0.02,0.45c-0.427,0.094-0.913,0.063-1.457-0.093
			c-0.259-0.072-0.498-0.196-0.718-0.372c-0.298-0.228-0.46-0.477-0.485-0.745C31.286,18.894,31.377,18.584,31.571,18.211z"/>
		<path style="fill-rule:evenodd;clip-rule:evenodd;fill:#60872B;" d="M38.389,17.265l0.116-0.155
			c0.104-0.114,0.201-0.187,0.291-0.218c0.091-0.031,0.13,0.026,0.117,0.171c-0.014,0.145-0.052,0.248-0.117,0.311l-0.116,0.108
			l0.175-0.14c0.116-0.083,0.188-0.083,0.214,0c0.025,0.135-0.098,0.284-0.369,0.45l0.271-0.108
			c0.182-0.052,0.253-0.021,0.214,0.093c-0.064,0.176-0.214,0.3-0.446,0.373l0.252-0.016c0.155,0,0.214,0.052,0.175,0.155
			c-0.052,0.165-0.304,0.341-0.757,0.527c0.375-0.124,0.53-0.108,0.466,0.047c-0.052,0.155-0.253,0.315-0.602,0.48l0.252-0.016
			c0.168,0,0.253,0.021,0.253,0.063c0,0.104-0.162,0.238-0.486,0.403c-0.388,0.207-0.81,0.285-1.262,0.233
			c-0.26-0.094-0.415-0.249-0.467-0.466c-0.025-0.166-0.039-0.306-0.039-0.419c0.014-0.124,0.039-0.166,0.078-0.124l0.136,0.14
			c-0.077-0.362-0.091-0.621-0.039-0.776c0.039-0.093,0.123-0.104,0.253-0.031c0.064,0.042,0.123,0.093,0.175,0.155
			c-0.064-0.248-0.059-0.46,0.02-0.637c0.052-0.103,0.123-0.108,0.214-0.015c0.039,0.041,0.077,0.093,0.116,0.155
			c0-0.063,0-0.135,0-0.218c0.013-0.155,0.059-0.274,0.136-0.357c0.116-0.145,0.201-0.093,0.253,0.155l0.291-0.48
			C38.246,17.006,38.323,17.058,38.389,17.265z"/>
		
			<radialGradient id="SVGID_20_" cx="13.7393" cy="-2.6719" r="6.6417" gradientTransform="matrix(0.1586 0.2833 0.3546 -0.1268 30.4946 14.0722)" gradientUnits="userSpaceOnUse">
			<stop  offset="0" style="stop-color:#95C755"/>
			<stop  offset="1" style="stop-color:#6E963E"/>
		</radialGradient>
		<path style="fill-rule:evenodd;clip-rule:evenodd;fill:url(#SVGID_20_);" d="M32.174,18.987l-0.117,0.186l0.175,0.233l0.098,0.093
			c0.09-0.072,0.148-0.155,0.174-0.248l0.078-0.342v0.373c-0.013,0.124-0.064,0.228-0.155,0.311l0.233,0.186
			c0.129,0.072,0.213,0.109,0.252,0.109c0.026-0.104,0.039-0.228,0.039-0.373v-0.311l0.194,0.403
			c0.025,0.114,0.064,0.229,0.116,0.342c0.104,0.093,0.168,0.083,0.194-0.031c0.013-0.062,0.007-0.155-0.02-0.279l-0.059-0.17
			l0.117,0.17c0.077,0.124,0.123,0.218,0.136,0.279c0.013,0.052,0.052,0.124,0.116,0.218c0.014,0.062-0.084,0.072-0.291,0.031
			c-0.518-0.114-0.815-0.207-0.894-0.279l-0.214-0.233c-0.116,0.011-0.278-0.016-0.485-0.077l-0.369-0.187l0.369,0.078l0.312,0.03
			c-0.091-0.124-0.156-0.196-0.194-0.217l-0.039-0.047c-0.052,0-0.143-0.025-0.272-0.077c-0.077-0.042-0.143-0.094-0.194-0.155
			l-0.058-0.094l0.213,0.124c0.091,0.042,0.176,0.063,0.253,0.063c-0.064-0.052-0.116-0.124-0.155-0.218l-0.039-0.403l0.136,0.389
			l0.156,0.232l0.213-0.295L32.174,18.987z"/>
		
			<radialGradient id="SVGID_21_" cx="-0.7583" cy="-27.1196" r="8.6845" gradientTransform="matrix(-0.1213 0.2949 0.369 0.097 48.6147 20.0086)" gradientUnits="userSpaceOnUse">
			<stop  offset="0" style="stop-color:#537525"/>
			<stop  offset="1" style="stop-color:#547828"/>
		</radialGradient>
		<path style="fill-rule:evenodd;clip-rule:evenodd;fill:url(#SVGID_21_);" d="M38.252,17.621l0.486-0.543l-0.233,0.356
			l-0.214,0.249l0.059,0.03c0.039,0.011,0.084,0,0.136-0.03c0.091-0.042,0.188-0.104,0.292-0.187
			c-0.13,0.135-0.24,0.223-0.331,0.264l-0.232,0.047l-0.117,0.311v0.093l0.816-0.372l-0.505,0.341l-0.312,0.155l-0.077,0.218
			c-0.013,0.083-0.052,0.181-0.116,0.295l0.932-0.466l-1.01,0.698c-0.025,0.228-0.052,0.357-0.078,0.389l-0.038,0.03l0.718-0.48
			c-0.271,0.3-0.466,0.491-0.582,0.574c-0.064,0.041-0.084,0.118-0.059,0.232c0.026,0.104,0.007,0.16-0.059,0.171
			c-0.077,0.01-0.181,0-0.311-0.031l-0.155-0.063c-0.116-0.104-0.207-0.248-0.271-0.434c-0.039-0.114-0.059-0.254-0.059-0.42v-0.217
			l0.039,0.264c0.039,0.187,0.097,0.32,0.175,0.403c0.116,0.135,0.253,0.191,0.407,0.171l0.137-0.621l-0.35-0.931l0.446,0.729
			l0.098-0.45c-0.065-0.104-0.123-0.228-0.175-0.373c-0.026-0.093-0.039-0.191-0.039-0.295v-0.14l0.233,0.544l0.077,0.077
			l0.155-0.45l0.059-0.527L38.252,17.621z"/>
		<path style="fill-rule:evenodd;clip-rule:evenodd;fill:#EBFFBF;" d="M35.98,15.588c0.077,0,0.129,0.015,0.155,0.046
			c0.013,0.021,0.025,0.057,0.038,0.108c0.104,0.135,0.143,0.223,0.117,0.264c-0.014,0.031-0.065,0.026-0.155-0.016
			c-0.091-0.062-0.155-0.104-0.194-0.124c-0.026-0.021-0.098-0.042-0.214-0.063c-0.104-0.01-0.168-0.021-0.194-0.031
			c-0.077,0-0.039-0.036,0.116-0.109C35.779,15.614,35.89,15.588,35.98,15.588z"/>
		<path style="fill-rule:evenodd;clip-rule:evenodd;fill:#EBFFBF;" d="M35.417,16.116c0.143-0.01,0.155,0.052,0.039,0.187
			l-0.272,0.046c-0.052,0.01-0.059-0.005-0.02-0.046c0.026-0.021,0.059-0.057,0.098-0.109
			C35.274,16.152,35.326,16.126,35.417,16.116z"/>
		<path style="fill-rule:evenodd;clip-rule:evenodd;fill:#EBFFBF;" d="M35.824,16.193c0.156,0,0.233,0.01,0.233,0.031l-0.116,0.062
			c-0.169,0.052-0.311,0.114-0.428,0.186c-0.052,0.021-0.038-0.026,0.039-0.14C35.617,16.24,35.708,16.193,35.824,16.193z"/>
		<path style="fill-rule:evenodd;clip-rule:evenodd;fill:#EBFFBF;" d="M33.203,16.162c0.09,0,0.109,0.037,0.058,0.109
			c-0.077,0.031-0.148,0.072-0.214,0.124c-0.09,0.073-0.155,0.104-0.193,0.093c-0.078-0.031-0.11-0.078-0.098-0.14
			c0-0.042,0.059-0.083,0.175-0.124C33.021,16.183,33.112,16.162,33.203,16.162z"/>
		<path style="fill-rule:evenodd;clip-rule:evenodd;fill:#EBFFBF;" d="M31.474,17.357c-0.052,0.031-0.077,0.077-0.077,0.14
			l0.02,0.171c0,0.062-0.026,0.099-0.078,0.108c-0.025,0-0.097-0.01-0.214-0.031c-0.077-0.021-0.116-0.067-0.116-0.14
			c0-0.062,0.026-0.129,0.078-0.201c0.038-0.052,0.097-0.094,0.175-0.124c0.052-0.011,0.143-0.037,0.271-0.078
			c0.064-0.01,0.084,0.005,0.059,0.047C31.577,17.29,31.539,17.326,31.474,17.357z"/>
		<path style="fill-rule:evenodd;clip-rule:evenodd;fill:#EBFFBF;" d="M32.271,17.016c0.091,0.021,0.116,0.047,0.077,0.078
			c-0.064,0.031-0.116,0.052-0.155,0.062c-0.077,0.052-0.129,0.042-0.155-0.03c-0.013-0.042,0.007-0.073,0.059-0.094
			S32.206,17.006,32.271,17.016z"/>
		<path style="fill-rule:evenodd;clip-rule:evenodd;fill:#EBFFBF;" d="M32.717,18.056c0.065-0.01,0.065,0.042,0,0.155
			c-0.064,0.104-0.136,0.191-0.214,0.264c-0.052,0.052-0.09,0.058-0.116,0.016c-0.025-0.083-0.052-0.155-0.077-0.217
			C32.271,18.159,32.406,18.087,32.717,18.056z"/>
		<path style="fill-rule:evenodd;clip-rule:evenodd;fill:#EBFFBF;" d="M34.388,17.637c0.038,0.011,0.064,0.036,0.077,0.077
			c0,0.042-0.013,0.073-0.039,0.094c-0.013,0.041-0.077,0-0.193-0.124C34.154,17.611,34.206,17.596,34.388,17.637z"/>
		<path style="fill-rule:evenodd;clip-rule:evenodd;fill:#EBFFBF;" d="M35.767,17.094c0.077,0.021,0.11,0.062,0.097,0.124
			c0,0.041-0.013,0.088-0.039,0.14c-0.013,0.052-0.084,0.005-0.213-0.14c-0.026-0.031-0.026-0.063,0-0.093
			C35.649,17.094,35.701,17.083,35.767,17.094z"/>
		<path style="fill-rule:evenodd;clip-rule:evenodd;fill:#EBFFBF;" d="M36.698,17.233c0.052,0.021,0.085,0.052,0.098,0.093
			c0.013,0.031,0.052,0.058,0.116,0.078c0.13,0.03,0.13,0.108,0,0.232c-0.129,0.104-0.246,0.145-0.35,0.124
			c-0.091-0.021-0.136-0.077-0.136-0.171c0.039-0.124,0.052-0.217,0.039-0.279c-0.013-0.082,0-0.129,0.039-0.14
			C36.518,17.171,36.582,17.192,36.698,17.233z"/>
		<path style="fill-rule:evenodd;clip-rule:evenodd;fill:#EBFFBF;" d="M35.494,18.754c0.13,0.011,0.175,0.058,0.137,0.14
			c-0.052,0.011-0.104,0.016-0.155,0.016c-0.078,0-0.143-0.01-0.194-0.031c-0.065-0.021-0.065-0.046,0-0.077
			C35.346,18.77,35.417,18.754,35.494,18.754z"/>
		<path style="fill-rule:evenodd;clip-rule:evenodd;fill:#EBFFBF;" d="M33.533,18.987c0.077,0.01,0.136,0.041,0.175,0.093
			c0.052,0.052,0.032,0.078-0.059,0.078c-0.052,0-0.188-0.052-0.408-0.155c-0.038-0.031-0.02-0.047,0.059-0.047
			C33.377,18.956,33.455,18.967,33.533,18.987z"/>
		<path style="fill-rule:evenodd;clip-rule:evenodd;fill:#EBFFBF;" d="M37.204,16.023c0.091,0,0.123,0.015,0.097,0.046
			c-0.026,0.021-0.059,0.052-0.097,0.093c-0.014,0.021,0.013,0.052,0.077,0.093c0.039,0.031,0.104,0.078,0.194,0.14
			c0.077,0.042,0.13,0.088,0.155,0.14c0.013,0.052-0.013,0.052-0.078,0c-0.298-0.155-0.472-0.258-0.523-0.31
			c-0.039-0.031-0.033-0.073,0.019-0.125S37.151,16.023,37.204,16.023z"/>
		<path style="fill-rule:evenodd;clip-rule:evenodd;fill:#EBFFBF;" d="M33.766,18.164c0.117,0,0.169,0.031,0.155,0.094
			c-0.025,0.062-0.077,0.098-0.155,0.108c-0.181,0-0.323,0.041-0.427,0.124c-0.039,0.021-0.065,0.016-0.078-0.016
			c-0.025-0.031-0.02-0.067,0.02-0.108C33.448,18.231,33.61,18.164,33.766,18.164z"/>
		
			<radialGradient id="SVGID_22_" cx="-26.5825" cy="21.2559" r="4.5455" gradientTransform="matrix(-0.1677 -0.28 -0.3504 0.134 43.4949 9.0522)" gradientUnits="userSpaceOnUse">
			<stop  offset="0" style="stop-color:#639C35"/>
			<stop  offset="0.3098" style="stop-color:#79BD40"/>
			<stop  offset="1" style="stop-color:#699632"/>
		</radialGradient>
		<path style="fill-rule:evenodd;clip-rule:evenodd;fill:url(#SVGID_22_);" d="M40.369,18.692l0.389,0.527l-0.524,0.218
			c-0.298-0.031-0.55-0.202-0.758-0.513c-0.155-0.228-0.226-0.45-0.213-0.667l0.077-0.248l0.486-0.265L40.369,18.692z"/>
		<path style="fill-rule:evenodd;clip-rule:evenodd;fill:#68AB2E;" d="M40.583,19.235c-0.168-0.072-0.337-0.181-0.505-0.326
			c-0.323-0.279-0.46-0.59-0.408-0.931c0.039-0.29,0.233-0.347,0.583-0.171c0.323,0.165,0.537,0.372,0.641,0.621
			C41.127,18.997,41.023,19.267,40.583,19.235z"/>
		<path style="fill-rule:evenodd;clip-rule:evenodd;fill:#6AA338;" d="M40.816,18.956c-0.078,0.124-0.24,0.108-0.485-0.047
			c-0.26-0.155-0.415-0.347-0.467-0.574c-0.077-0.466,0.104-0.554,0.544-0.264c0.168,0.114,0.298,0.259,0.389,0.435
			C40.888,18.692,40.894,18.842,40.816,18.956z"/>
		
			<radialGradient id="SVGID_23_" cx="-18.5786" cy="-8.9453" r="4.5384" gradientTransform="matrix(-0.3627 0.1111 0.1391 0.2898 31.0876 19.9348)" gradientUnits="userSpaceOnUse">
			<stop  offset="0" style="stop-color:#639C35"/>
			<stop  offset="0.3098" style="stop-color:#79BD40"/>
			<stop  offset="1" style="stop-color:#699632"/>
		</radialGradient>
		<path style="fill-rule:evenodd;clip-rule:evenodd;fill:url(#SVGID_23_);" d="M35.767,15.34l0.68-0.264l0.232,0.435
			c-0.064,0.228-0.297,0.419-0.698,0.574c-0.298,0.114-0.576,0.15-0.836,0.109L34.834,16.1l-0.291-0.403L35.767,15.34z"/>
		<path style="fill-rule:evenodd;clip-rule:evenodd;fill:#7FC743;" d="M36.466,15.216c-0.104,0.134-0.253,0.258-0.447,0.373
			c-0.375,0.238-0.776,0.326-1.204,0.264c-0.362-0.062-0.421-0.223-0.175-0.481c0.233-0.248,0.512-0.403,0.836-0.465
			c0.311-0.062,0.557-0.073,0.737-0.031C36.42,14.926,36.505,15.04,36.466,15.216z"/>
		<path style="fill-rule:evenodd;clip-rule:evenodd;fill:#8CD64D;" d="M36.136,15.014c0.142,0.062,0.109,0.191-0.098,0.388
			c-0.22,0.197-0.473,0.3-0.757,0.311c-0.596,0.042-0.693-0.109-0.292-0.45c0.169-0.124,0.362-0.212,0.583-0.264
			C35.805,14.947,35.993,14.952,36.136,15.014z"/>
		
			<radialGradient id="SVGID_24_" cx="0.5981" cy="-10.7139" r="5.2665" gradientTransform="matrix(-0.2121 0.2601 0.3255 0.1695 35.5742 18.381)" gradientUnits="userSpaceOnUse">
			<stop  offset="0" style="stop-color:#639C35"/>
			<stop  offset="0.3098" style="stop-color:#79BD40"/>
			<stop  offset="1" style="stop-color:#699632"/>
		</radialGradient>
		<path style="fill-rule:evenodd;clip-rule:evenodd;fill:url(#SVGID_24_);" d="M31.144,17.109l0.35-0.559l0.505,0.249
			c0.182,0.32,0.182,0.636,0,0.946c-0.181,0.311-0.466,0.461-0.854,0.45l-0.854-0.279L31.144,17.109z"/>
		<path style="fill-rule:evenodd;clip-rule:evenodd;fill:#7FC743;" d="M31.707,16.737c0,0.155-0.045,0.321-0.136,0.497
			c-0.182,0.362-0.473,0.6-0.874,0.714c-0.337,0.104-0.485-0.005-0.446-0.326c0.038-0.311,0.175-0.559,0.407-0.745
			c0.221-0.187,0.421-0.295,0.603-0.326C31.468,16.499,31.616,16.561,31.707,16.737z"/>
		<path style="fill-rule:evenodd;clip-rule:evenodd;fill:#8CD64D;" d="M31.28,16.69c0.181,0,0.239,0.124,0.175,0.373
			c-0.052,0.259-0.201,0.455-0.447,0.59c-0.505,0.279-0.68,0.191-0.524-0.264c0.052-0.176,0.155-0.337,0.311-0.481
			C30.963,16.763,31.124,16.69,31.28,16.69z"/>
		<path style="fill-rule:evenodd;clip-rule:evenodd;fill:#FFFFFF;" d="M32.057,17.141c0.013,0.041,0.007,0.093-0.02,0.155
			c0.013,0.021-0.045,0.01-0.175-0.031c-0.143-0.052-0.188-0.119-0.136-0.202c0.013-0.031,0.071-0.036,0.175-0.016
			C31.992,17.067,32.044,17.099,32.057,17.141z"/>
		<path style="fill-rule:evenodd;clip-rule:evenodd;fill:#FFFFFF;" d="M36.329,15.526c0.117,0.093,0.156,0.155,0.117,0.187
			c-0.013,0.021-0.052,0.021-0.117,0c-0.038-0.021-0.058-0.062-0.058-0.124C36.284,15.526,36.304,15.505,36.329,15.526z"/>
		
			<linearGradient id="SVGID_25_" gradientUnits="userSpaceOnUse" x1="-4.882813e-004" y1="18.0254" x2="33.7988" y2="18.0254" gradientTransform="matrix(0.3884 0 0 0.3104 28.5998 14.7499)">
			<stop  offset="0" style="stop-color:#D9D9D9"/>
			<stop  offset="0.3216" style="stop-color:#FFFFFF"/>
			<stop  offset="1" style="stop-color:#BDBDBD"/>
		</linearGradient>
		<path style="fill-rule:evenodd;clip-rule:evenodd;fill:url(#SVGID_25_);" d="M41.729,18.754v1.724
			c-0.038,0.403-0.692,0.75-1.961,1.039c-1.282,0.279-2.816,0.42-4.604,0.42s-3.314-0.141-4.583-0.42
			c-1.282-0.289-1.942-0.636-1.981-1.039v-1.724h0.311c0.13,0.331,0.783,0.605,1.962,0.823c1.191,0.217,2.603,0.325,4.234,0.325
			c1.644,0,3.062-0.108,4.253-0.325c1.179-0.218,1.832-0.492,1.962-0.823H41.729z"/>
		<path style="fill-rule:evenodd;clip-rule:evenodd;fill:#FFFFFF;" d="M41.146,18.584h0.563l0.019,0.155
			c0,0.413-0.641,0.766-1.923,1.055c-1.281,0.29-2.828,0.435-4.642,0.435c-1.813,0-3.359-0.145-4.642-0.435
			c-1.282-0.289-1.923-0.642-1.923-1.055l0.02-0.155h0.68l-0.02,0.03c0,0.342,0.583,0.637,1.748,0.885
			c1.152,0.238,2.551,0.357,4.195,0.357s3.043-0.119,4.195-0.357c1.165-0.248,1.748-0.543,1.748-0.885L41.146,18.584z"/>
	</g>
	<g>
		
			<use xlink:href="#flash0.ai_x5F_8_x2F_Layer_12_x2F__x3C_Path_x3E__x5F_44"  width="20.224" height="9.51" x="-0.03" y="-9.5" transform="matrix(0.9337 0 0 -0.7107 16.1001 17.8496)" style="overflow:visible;opacity:0.25;enable-background:new    ;"/>
		
			<linearGradient id="SVGID_26_" gradientUnits="userSpaceOnUse" x1="4.4751" y1="23.4277" x2="40.7251" y2="23.4277" gradientTransform="matrix(0.9337 0 0 0.6413 1.2499 11.15)">
			<stop  offset="0" style="stop-color:#9C5227"/>
			<stop  offset="1" style="stop-color:#80411C"/>
		</linearGradient>
		<path style="fill-rule:evenodd;clip-rule:evenodd;fill:url(#SVGID_26_);" d="M29.54,22.789c0.811,0.043,1.898,0.268,3.269,0.674
			c1.494,0.449,2.35,0.865,2.567,1.25c0.125,0.257,0.669,0.406,1.634,0.449c1.027,0.064,1.729,0.299,2.101,0.705
			c0.249,0.278,0.156,0.513-0.279,0.705c-0.031,0.021-1.027,0.363-2.988,1.026c-2.583,0.897-5.99,1.496-10.224,1.796
			c-4.575,0.32-8.699,0.171-12.371-0.449c-1.183-0.214-2.599-0.631-4.249-1.25c-1.681-0.62-2.739-1.134-3.174-1.539
			c-0.405-0.32-0.452-0.546-0.14-0.674c0.031-0.021,0.763-0.16,2.194-0.417c1.245-0.214,2.754-0.694,4.528-1.442
			c0.498-0.214,1.198-0.3,2.101-0.257c1.338,0.064,2.459,0.054,3.361-0.032c1.805-0.171,3.143-0.277,4.015-0.32
			c1.37-0.063,2.911-0.032,4.622,0.097c0.841,0.042,1.447,0,1.821-0.129C28.763,22.854,29.168,22.789,29.54,22.789z"/>
		<g>
			<path style="fill-rule:evenodd;clip-rule:evenodd;fill:#9E7957;" d="M29.586,18.363c0.31,0.313,0.443,0.667,0.399,1.059
				c-0.003,0.217-0.137,0.695-0.401,1.437c-0.171,0.587-0.615,1.392-1.334,2.416c-0.674,1.015-1.232,1.679-1.677,1.993
				c-0.539,0.387-1.803,0.227-3.789-0.479l0.477-1.366l4.1-5.736l1.534,0.158C29.056,17.908,29.286,18.081,29.586,18.363z
				 M22.562,24.413l1.164-2.279l-0.465,1.288L22.562,24.413z"/>
			<path style="fill-rule:evenodd;clip-rule:evenodd;fill:#D6AF8B;" d="M26.797,17.012c1.06,0.147,1.794,0.425,2.203,0.833
				c0.347,0.356,0.316,1.053-0.092,2.091c-0.252,0.555-0.669,1.371-1.253,2.448c-0.692,1.335-1.476,2.224-2.351,2.667
				c-0.508,0.263-1.549,0.137-3.123-0.379c-1.6-0.525-2.573-1.116-2.918-1.771l0.892-4.064c0.532-0.334,1.107-0.72,1.725-1.156
				c0.463-0.252,1.118-0.456,1.966-0.61C24.809,16.905,25.792,16.886,26.797,17.012z"/>
			<path style="fill-rule:evenodd;clip-rule:evenodd;fill:#804522;" d="M26.342,17.363c0.925,0.094,1.551,0.329,1.88,0.705
				c0.292,0.334,0.229,0.963-0.19,1.888c-0.234,0.534-0.631,1.304-1.19,2.31c-0.694,1.252-1.431,2.104-2.207,2.561
				c-0.464,0.252-1.375,0.164-2.733-0.266c-1.413-0.452-2.26-0.979-2.542-1.581l1.045-3.799c1.028-0.711,1.55-1.076,1.567-1.097
				c0.446-0.232,1.031-0.437,1.753-0.613C24.562,17.284,25.434,17.248,26.342,17.363z"/>
			<path style="fill-rule:evenodd;clip-rule:evenodd;fill:#914E27;" d="M27.568,19.036c-0.028,0.289-0.202,0.752-0.522,1.388
				c-0.232,0.617-0.787,1.597-1.666,2.939l-1.011-0.523l0.495-0.908c0.148-0.433,0.081-0.949-0.2-1.553
				c-0.188-0.374-0.513-0.816-0.979-1.329l-0.654-0.627l0.842-0.362c0.499-0.211,0.899-0.324,1.201-0.342
				c0.46-0.035,1.034,0.07,1.724,0.316C27.406,18.249,27.663,18.583,27.568,19.036z"/>
			<path style="fill-rule:evenodd;clip-rule:evenodd;fill:#A86237;" d="M26.114,18.336c0.438,0.119,0.722,0.314,0.853,0.584
				c0.112,0.208,0.095,0.379-0.054,0.511c-0.096,0.071-0.461,0.145-1.098,0.219c-0.318,0.038-0.743-0.267-1.274-0.914
				c-0.155-0.198-0.013-0.347,0.429-0.444C25.419,18.225,25.802,18.24,26.114,18.336z"/>
			<path style="fill-rule:evenodd;clip-rule:evenodd;fill:#A86237;" d="M26.181,20.367c0.085,0.197,0.027,0.393-0.172,0.587
				c-0.198,0.193-0.363,0.155-0.494-0.115c-0.132-0.271-0.075-0.466,0.17-0.587C25.903,20.121,26.068,20.159,26.181,20.367z"/>
			
				<use xlink:href="#flash0.ai_x5F_8_x2F_Layer_12_x2F__x3C_Path_x3E__x5F_8"  width="3.084" height="2.182" x="-0.006" y="-2.18" transform="matrix(0.8063 0.3198 0.516 -0.6134 24.4004 15.9502)" style="overflow:visible;opacity:0.3398;enable-background:new    ;"/>
			
				<use xlink:href="#flash0.ai_x5F_8_x2F_Layer_12_x2F__x3C_Path_x3E__x5F_7"  width="0.45" height="0.702" x="-0.025" y="-0.707" transform="matrix(0.8063 0.3198 0.516 -0.6134 25.4502 19.5)" style="overflow:visible;opacity:0.3398;enable-background:new    ;"/>
			
				<use xlink:href="#flash0.ai_x5F_8_x2F_Layer_12_x2F__x3C_Path_x3E__x5F_6"  width="1.545" height="1.194" x="-0.022" y="-1.214" transform="matrix(0.8063 0.3198 0.516 -0.6134 27.75 17.4502)" style="overflow:visible;opacity:0.3398;enable-background:new    ;"/>
		</g>
		<path style="fill-rule:evenodd;clip-rule:evenodd;fill:#AE694C;" d="M11.333,27.425c-0.498-0.236-1.026-0.568-1.587-0.994
			c-0.312-0.19-0.514-0.332-0.607-0.427c-0.156-0.166-0.109-0.379,0.14-0.64l1.307,0.995c0.965,0.687,1.587,1.102,1.867,1.243
			c0.555,0.311,1.084,0.536,1.587,0.675C12.722,27.94,11.82,27.656,11.333,27.425z"/>
		<path style="fill-rule:evenodd;clip-rule:evenodd;fill:#AE694C;" d="M8.72,25.506L8.486,25.72
			c-0.031,0.213,0.203,0.485,0.701,0.817l1.774,1.137l-2.568-1.102c-0.467-0.142-0.669-0.284-0.607-0.427
			c0.063-0.142,0.109-0.236,0.14-0.284c0.031-0.095,0.109-0.166,0.233-0.213L8.72,25.506z"/>
		<path style="fill-rule:evenodd;clip-rule:evenodd;fill:#AE694C;" d="M7.039,25.897c0.374,0,0.544,0.047,0.513,0.142
			c0,0.071-0.109,0.154-0.327,0.249l-0.233,0.143c-0.062,0-0.203-0.024-0.42-0.071c-0.218-0.023-0.25-0.106-0.094-0.249
			S6.821,25.897,7.039,25.897z"/>
		<path style="fill-rule:evenodd;clip-rule:evenodd;fill:#AE694C;" d="M7.692,26.537c0.249-0.048,0.405,0.012,0.467,0.178
			c0.031,0.166-0.062,0.248-0.28,0.248c-0.187,0-0.312-0.059-0.374-0.177C7.475,26.667,7.537,26.584,7.692,26.537z"/>
		<path style="fill-rule:evenodd;clip-rule:evenodd;fill:#AE694C;" d="M23.379,27.816l0.279,0.142
			c0.28,0.118,0.654,0.202,1.121,0.249c0.777,0.07,1.54,0.047,2.287-0.071c-0.934,0.331-1.82,0.497-2.661,0.497
			c-1.151,0-1.773-0.153-1.867-0.461c-0.031-0.143,0.109-0.249,0.42-0.32C23.083,27.828,23.223,27.816,23.379,27.816z"/>
		<path style="fill-rule:evenodd;clip-rule:evenodd;fill:#693517;" d="M35.283,25.897c0.249,0.118,0.731,0.142,1.447,0.07
			c0.03,0.071-0.047,0.178-0.233,0.32c-0.468,0.45-1.447,0.853-2.942,1.208C32.87,27.686,32,27.78,30.941,27.78l-1.354-0.035
			l3.782-0.711C33.867,26.916,34.504,26.537,35.283,25.897z"/>
		<path style="fill-rule:evenodd;clip-rule:evenodd;fill:#693517;" d="M20.857,27.531c0.529-0.095,0.84-0.07,0.934,0.071
			c0.031,0.071,0.016,0.154-0.046,0.249c-0.467,0.309-1.261,0.474-2.381,0.498h-2.241l1.868-0.355
			C19.675,27.923,20.297,27.769,20.857,27.531z"/>
		<path style="fill-rule:evenodd;clip-rule:evenodd;fill:#693517;" d="M21.932,28.313c0.652,0.071,0.777,0.153,0.373,0.249
			c-0.405,0.094-0.793,0.118-1.167,0.07c-0.311-0.047-0.373-0.105-0.187-0.178c0.156-0.07,0.436-0.117,0.84-0.142H21.932z"/>
		<path style="fill-rule:evenodd;clip-rule:evenodd;fill:#693517;" d="M21.044,24.831c0.996-0.118,2.039-0.118,3.127,0
			c1.12,0.143,2.91,0.332,5.368,0.568c2.46,0.213,3.876,0.32,4.248,0.32c0.903,0,1.464,0.095,1.682,0.284
			c0.124,0.142-0.047,0.344-0.514,0.604c-0.529,0.308-1.245,0.544-2.147,0.71c-3.05,0.568-4.964,0.842-5.742,0.817
			c-2.022-0.237-3.221-0.367-3.595-0.391c-1.026-0.166-1.774-0.226-2.241-0.178c-0.187,0-0.482,0.06-0.887,0.178
			c-0.499,0.166-1.074,0.296-1.728,0.391c-0.747,0.095-1.463,0.142-2.148,0.142l-0.747-0.07c0.374-0.402,0.778-0.829,1.213-1.279
			c0.903-0.9,1.572-1.445,2.008-1.635C19.503,25.08,20.204,24.926,21.044,24.831z"/>
		<path style="fill-rule:evenodd;clip-rule:evenodd;fill:#947151;" d="M25.806,23.588c0.872,2.416,1.059,3.79,0.561,4.121
			c-0.467,0.332-1.292,0.367-2.475,0.107c-0.187,0.023-0.513-0.297-0.979-0.96c-0.28-0.402-0.498-0.947-0.654-1.635l-0.141-0.888
			l1.915-1.493L25.806,23.588z"/>
		<path style="fill-rule:evenodd;clip-rule:evenodd;fill:#C7A381;" d="M31.314,22.521c1.556,0.876,2.506,1.552,2.848,2.025
			c0.342,0.521,0.529,0.889,0.561,1.102c-0.063,0.118-0.28,0.272-0.653,0.462c-0.748,0.379-1.899,0.711-3.455,0.995l-4.762,0.781
			c-0.965-0.497-1.665-1.16-2.102-1.989c-0.342-0.688-0.544-1.113-0.605-1.279c-0.095-0.402-0.031-0.817,0.187-1.244
			c0.218-0.402,0.685-0.698,1.4-0.888c0.404-0.096,1.229-0.202,2.474-0.32c1.121-0.095,1.93-0.13,2.429-0.106
			C30.287,22.106,30.848,22.261,31.314,22.521z"/>
		<path style="fill-rule:evenodd;clip-rule:evenodd;fill:#753F1F;" d="M31.454,22.771c1.339,0.758,2.18,1.409,2.521,1.954
			c0.312,0.497,0.482,0.853,0.514,1.065c-0.249,0.475-1.494,0.925-3.735,1.351l-4.341,0.746c-0.902-0.521-1.525-1.172-1.867-1.954
			c-0.28-0.616-0.451-1.03-0.514-1.243c-0.094-0.379-0.032-0.771,0.187-1.173c0.218-0.403,0.638-0.688,1.261-0.854
			c0.404-0.095,1.151-0.189,2.24-0.284c1.027-0.07,1.759-0.095,2.194-0.07C30.505,22.355,31.02,22.51,31.454,22.771z"/>
		
			<use xlink:href="#flash0.ai_x5F_8_x2F_Layer_12_x2F__x3C_Path_x3E__x5F_24"  width="3.35" height="4.8" y="-4.8" transform="matrix(0.9337 0 0 -0.7107 19.3501 22.6504)" style="overflow:visible;opacity:0.4102;enable-background:new    ;"/>
		<path style="fill-rule:evenodd;clip-rule:evenodd;fill:#854724;" d="M29.728,22.593c0.374-0.024,0.7-0.012,0.98,0.035
			c0.373,0.071,0.84,0.355,1.4,0.853c0.592,0.498,0.934,0.948,1.027,1.351c0.093,0.355-0.078,0.545-0.515,0.568
			c-0.621,0-1.104,0-1.446,0c-2.272,0.332-3.859,0.521-4.762,0.568c-0.592,0.024-1.012-0.248-1.261-0.816
			c-0.187-0.427-0.249-0.936-0.187-1.528c0.063-0.663,1.214-0.995,3.454-0.995C28.576,22.628,29.012,22.616,29.728,22.593z"/>
		<path style="fill-rule:evenodd;clip-rule:evenodd;fill:#9C5B33;" d="M30.381,22.841c0.373,0,0.622,0.119,0.747,0.355
			c0.125,0.237,0.125,0.427,0,0.569c-0.093,0.118-0.56-0.024-1.4-0.427c-0.342-0.166-0.405-0.297-0.188-0.392
			C29.696,22.877,29.977,22.841,30.381,22.841z"/>
		<path style="fill-rule:evenodd;clip-rule:evenodd;fill:#9C5B33;" d="M26.366,23.09c0.902,0,1.136,0.154,0.7,0.462
			c-0.467,0.309-0.871,0.438-1.214,0.392c-0.249-0.024-0.296-0.178-0.14-0.463C25.868,23.22,26.086,23.09,26.366,23.09z"/>
		<path style="fill-rule:evenodd;clip-rule:evenodd;fill:#9C5B33;" d="M25.899,24.298c0.498,0,0.7,0.178,0.606,0.533
			c-0.093,0.379-0.279,0.557-0.56,0.533c-0.188,0-0.312-0.178-0.374-0.533C25.541,24.476,25.65,24.298,25.899,24.298z"/>
		<path style="fill-rule:evenodd;clip-rule:evenodd;fill:#9E7957;" d="M24.032,20.567c0.342,0.497,0.357,1.196,0.047,2.096
			c-0.313,0.948-0.686,1.671-1.121,2.168c-0.528,0.592-1.105,1.137-1.727,1.635c-0.28,0.237-0.731,0.557-1.354,0.959
			c-0.218,0.024-0.623,0.119-1.214,0.284c-1.649,0.379-2.614,0.521-2.895,0.427c-0.155-0.023-0.544-0.308-1.167-0.853l2.848-6.574
			l0.934-1.102c0.622-0.734,0.98-1.102,1.074-1.102c0.311,0,1.042,0.189,2.194,0.569C22.679,19.43,23.472,19.928,24.032,20.567z"/>
		<path style="fill-rule:evenodd;clip-rule:evenodd;fill:#D6AF8B;" d="M20.624,18.79c0.342,0.143,0.809,0.403,1.4,0.782
			c0.872,0.545,1.292,1.208,1.26,1.99c-0.03,0.497-0.218,1.065-0.56,1.705c-0.404,0.688-0.872,1.244-1.4,1.67
			c-0.716,0.616-1.261,1.066-1.634,1.351c-0.591,0.427-1.214,0.806-1.868,1.137c-1.027,0.498-1.649,0.735-1.867,0.711h-0.187
			l-0.7,0.071c-1.027-0.332-1.79-0.616-2.287-0.853c-0.249-0.119-0.514-0.272-0.794-0.462c-0.312-0.214-0.622-0.403-0.934-0.569
			c-0.654-0.308-1.089-0.616-1.307-0.924l-0.14-0.355c0.623-0.568,1.245-1.077,1.868-1.527c0.374-0.237,1.011-0.723,1.914-1.457
			c0.374-0.308,1.136-1.102,2.288-2.381c0.747-0.853,1.82-1.268,3.221-1.243C19.488,18.436,20.063,18.554,20.624,18.79z"/>
		<path style="fill-rule:evenodd;clip-rule:evenodd;fill:#804522;" d="M20.157,25.364c-0.871,0.711-1.587,1.208-2.147,1.492
			l-2.941,1.351c-0.965-0.023-2.101-0.45-3.408-1.279c-0.062-0.142-0.374-0.379-0.934-0.711c-0.311-0.166-0.576-0.355-0.794-0.568
			L9.7,25.399c1.681-1.113,3.097-2.203,4.249-3.269c0.56-0.521,1.198-1.208,1.914-2.062c0.591-0.64,1.229-1.054,1.914-1.243
			c0.747-0.213,1.478-0.189,2.194,0.071c0.436,0.165,1.121,0.557,2.054,1.172c0.654,0.45,0.902,1.066,0.747,1.848
			c-0.093,0.569-0.373,1.149-0.84,1.741C21.558,24.133,20.966,24.701,20.157,25.364z"/>
		<path style="fill-rule:evenodd;clip-rule:evenodd;fill:#914E27;" d="M21.464,20.603c0.28,0.474,0.233,1.138-0.14,1.99
			c-0.467,1.042-2.147,2.025-5.042,2.949c-0.623,0.189-1.385,0.248-2.288,0.178c-0.685-0.071-1.307-0.189-1.867-0.355
			c-0.342-0.118-0.404-0.355-0.187-0.711c0.155-0.236,0.498-0.604,1.027-1.102c1.525-1.492,2.521-2.522,2.988-3.092
			c0.404-0.497,0.887-0.864,1.447-1.101c0.467-0.214,0.872-0.284,1.214-0.214C20.142,19.501,21.091,19.986,21.464,20.603z"/>
		<path style="fill-rule:evenodd;clip-rule:evenodd;fill:#A86237;" d="M18.15,19.572c0.404,0.023,0.653,0.059,0.747,0.106
			c0.031,0,0.14,0.106,0.327,0.319c0.125,0.166,0.125,0.272,0,0.32c-0.218,0.023-0.405,0.047-0.561,0.071
			c-0.155,0.047-0.264,0.153-0.327,0.319c-0.093,0.189-0.202,0.309-0.327,0.355c-0.312,0.048-0.529,0.083-0.654,0.106
			c-0.218,0.024-0.327,0.154-0.327,0.392c0,0.236-0.187,0.379-0.561,0.426c-0.062,0-0.373,0-0.934,0
			c-0.217,0-0.249-0.106-0.093-0.319c0.093-0.143,0.295-0.403,0.606-0.782c0.249-0.332,0.561-0.628,0.934-0.889
			C17.418,19.69,17.808,19.549,18.15,19.572z"/>
		<path style="fill-rule:evenodd;clip-rule:evenodd;fill:#A86237;" d="M13.948,23.445c0.529,0,0.84,0.095,0.934,0.284
			c0.094,0.189,0.016,0.355-0.233,0.498c-0.436,0.26-0.98,0.343-1.634,0.248c-0.249-0.023-0.233-0.201,0.046-0.532
			C13.341,23.611,13.637,23.445,13.948,23.445z"/>
		<path style="fill-rule:evenodd;clip-rule:evenodd;fill:#A86237;" d="M19.97,22.237c0.405,0.166,0.467,0.367,0.187,0.604
			c-0.312,0.261-0.747,0.309-1.307,0.143c-0.561-0.143-0.623-0.344-0.187-0.604C19.099,22.119,19.535,22.071,19.97,22.237z"/>
		
			<use xlink:href="#flash0.ai_x5F_8_x2F_Layer_12_x2F__x3C_Path_x3E__x5F_12"  width="20.678" height="13.596" x="0.395" y="-16.045" transform="matrix(0.9337 0 0 -0.7107 13.8501 15.4502)" style="overflow:visible;opacity:0.2813;enable-background:new    ;"/>
		
			<use xlink:href="#flash0.ai_x5F_8_x2F_Layer_12_x2F__x3C_Path_x3E__x5F_11"  width="6.2" height="2.469" x="0" y="-2.464" transform="matrix(0.9337 0 0 -0.7107 16.1001 18.3496)" style="overflow:visible;opacity:0.3398;enable-background:new    ;"/>
		
			<use xlink:href="#flash0.ai_x5F_8_x2F_Layer_12_x2F__x3C_Path_x3E__x5F_10"  width="0.91" height="0.664" x="-0.014" y="-0.625" transform="matrix(0.9337 0 0 -0.7107 20.2002 20.3496)" style="overflow:visible;opacity:0.3398;enable-background:new    ;"/>
		
			<use xlink:href="#flash0.ai_x5F_8_x2F_Layer_12_x2F__x3C_Path_x3E__x5F_9"  width="0.968" height="0.8" x="-0.039" y="-0.8" transform="matrix(0.9337 0 0 -0.7107 13.8501 23)" style="overflow:visible;opacity:0.3398;enable-background:new    ;"/>
		
			<use xlink:href="#flash0.ai_x5F_8_x2F_Layer_12_x2F__x3C_Path_x3E__x5F_5"  width="6.539" height="1.431" x="-0.048" y="-1.456" transform="matrix(0.9337 0 0 -0.7107 24 22.4004)" style="overflow:visible;opacity:0.3398;enable-background:new    ;"/>
		
			<use xlink:href="#flash0.ai_x5F_8_x2F_Layer_12_x2F__x3C_Path_x3E__x5F_4"  width="0.722" height="1.077" x="-0.012" y="-1.067" transform="matrix(0.9337 0 0 -0.7107 27.75 23.5996)" style="overflow:visible;opacity:0.3398;enable-background:new    ;"/>
		
			<use xlink:href="#flash0.ai_x5F_8_x2F_Layer_12_x2F__x3C_Path_x3E__x5F_3"  width="0.3" height="0.603" x="-0.025" y="-0.614" transform="matrix(0.9337 0 0 -0.7107 30.2998 23.5)" style="overflow:visible;opacity:0.3398;enable-background:new    ;"/>
		
			<use xlink:href="#flash0.ai_x5F_8_x2F_Layer_12_x2F__x3C_Path_x3E__x5F_2"  width="0.446" height="0.578" x="0.05" y="-0.6" transform="matrix(0.9337 0 0 -0.7107 32.9004 24)" style="overflow:visible;opacity:0.3398;enable-background:new    ;"/>
		
			<use xlink:href="#flash0.ai_x5F_8_x2F_Layer_12_x2F__x3C_Path_x3E__x5F_1"  width="0.45" height="0.622" x="-0.05" y="-0.6" transform="matrix(0.9337 0 0 -0.7107 23.3496 25.75)" style="overflow:visible;opacity:0.3398;enable-background:new    ;"/>
	</g>
</g>
</svg>
