<?xml version="1.0" encoding="iso-8859-1"?>
<!-- Generator: Adobe Illustrator 15.1.0, SVG Export Plug-In . SVG Version: 6.00 Build 0)  -->
<!DOCTYPE svg PUBLIC "-//W3C//DTD SVG 1.1//EN" "http://www.w3.org/Graphics/SVG/1.1/DTD/svg11.dtd">
<svg version="1.1" id="flash0.ai" xmlns="http://www.w3.org/2000/svg" xmlns:xlink="http://www.w3.org/1999/xlink" x="0px" y="0px"
	 width="44.4px" height="30.6px" viewBox="0 0 44.4 30.6" style="enable-background:new 0 0 44.4 30.6;" xml:space="preserve">
<symbol  id="flash0.ai_x5F_7_x2F_Layer_2_x2F__x3C_Path_x3E__x5F_63" viewBox="-0.042 -9.65 41.792 9.681">
	<g id="Layer_1_5_">
		<path style="fill-rule:evenodd;clip-rule:evenodd;" d="M40.9-5.45c0.533-0.633,0.817-1.25,0.85-1.85L41.5-7
			c-0.867,1.5-2.367,2.533-4.5,3.1c-0.567,0.167-1.517,0.35-2.85,0.55c-1.433,0.2-2.683,0.434-3.75,0.7
			c-1.2,0.3-2.617,0.417-4.25,0.35c-1.867-0.133-3.367-0.2-4.5-0.2c-3.6,0-6.1-0.05-7.5-0.15c-1-0.033-2.4-0.483-4.2-1.35
			c-1.633-0.8-2.7-1.45-3.2-1.95c-0.233,0.1-0.517,0.133-0.85,0.1C5.267-5.983,4.733-6.5,4.3-7.4C4.2-7.6,3.833-7.95,3.2-8.45
			c-0.6-0.5-0.934-0.9-1-1.2C1.1-9.017,0.367-8.467,0-8c-0.133,0.467,0.05,1.05,0.55,1.75c0.434,0.633,1,1.167,1.7,1.6
			c0.467,0.3,1.467,0.683,3,1.15C6.783-3,7.833-2.583,8.4-2.25c1.833,1.133,4.083,1.75,6.75,1.85c0.633,0.033,2.217,0.083,4.75,0.15
			c2.133,0.067,3.8,0.15,5,0.25c2.133,0.167,4.883-0.333,8.25-1.5c2.9-1.033,4.934-1.867,6.1-2.5
			C39.883-4.333,40.433-4.817,40.9-5.45z"/>
	</g>
</symbol>
<symbol  id="flash0.ai_x5F_7_x2F_Layer_2_x2F__x3C_Path_x3E__x5F_70" viewBox="0 -12.55 12.75 12.55">
	<g id="Layer_1_4_">
		<path style="fill-rule:evenodd;clip-rule:evenodd;fill:#595959;" d="M12.75-12.55c-3.2,1.2-5.917,2.9-8.15,5.1
			C2.333-5.25,0.8-2.767,0,0l0.35-0.1L1.1-0.55c0.533-1.6,1.4-3.233,2.6-4.9C6.033-8.683,9.05-11.05,12.75-12.55z"/>
	</g>
</symbol>
<symbol  id="flash0.ai_x5F_7_x2F_Layer_2_x2F__x3C_Path_x3E__x5F_71" viewBox="0 -13.05 17.2 13.05">
	<g id="Layer_1_3_">
		<path style="fill-rule:evenodd;clip-rule:evenodd;fill:#595959;" d="M10.15-1.5c3,0.4,5.35,0.9,7.05,1.5
			c-0.3-0.933-0.767-1.917-1.4-2.95C14.533-4.917,12.6-6.9,10-8.9c-2-1.5-4.55-2.767-7.65-3.8L0-13.05c4,1.433,6.833,3.517,8.5,6.25
			c0.767,1.2,1.25,2.333,1.45,3.4C10.083-2.833,10.15-2.2,10.15-1.5z"/>
	</g>
</symbol>
<symbol  id="flash0.ai_x5F_7_x2F_Layer_2_x2F__x3C_Path_x3E__x5F_72" viewBox="0 -12.7 24.3 12.7">
	<g id="Layer_1_2_">
		
			<linearGradient id="SVGID_1_" gradientUnits="userSpaceOnUse" x1="-22.4766" y1="-32.3813" x2="-6.7765" y2="-32.3813" gradientTransform="matrix(1 -0.0032 0.0032 1 26.0796 25.9785)">
			<stop  offset="0" style="stop-color:#FFFFFF"/>
			<stop  offset="1" style="stop-color:#000000"/>
		</linearGradient>
		<path style="fill-rule:evenodd;clip-rule:evenodd;fill:url(#SVGID_1_);" d="M24.3-1.75L21.1-12.6l-2.35-0.1
			c-0.933,0-1.85,0.05-2.75,0.15c-1.1,0.167-2.35,0.5-3.75,1c-1.433,0.533-2.633,1.117-3.6,1.75c-3.066,2-5.433,4.233-7.1,6.7
			C0.717-1.867,0.2-0.833,0,0l2.65-0.55c4.567-0.867,10-1.3,16.3-1.3L24.3-1.75z"/>
	</g>
</symbol>
<g>
	<path style="fill-rule:evenodd;clip-rule:evenodd;fill:#D9D9D9;" d="M42.468,12.995l0.185-0.061
		c-1.199,5.043-3.735,9.171-7.608,12.385c-3.965,3.295-8.484,4.941-13.557,4.941c-5.103,0-9.637-1.667-13.603-5.002
		c-3.935-3.295-6.456-7.484-7.562-12.568l0.323,0.122c1.199,1.22,3.735,2.237,7.608,3.05c3.904,0.773,8.376,1.16,13.418,1.16
		c4.888,0,9.253-0.387,13.096-1.16C38.579,15.13,41.146,14.174,42.468,12.995z"/>
	
		<use xlink:href="#flash0.ai_x5F_7_x2F_Layer_2_x2F__x3C_Path_x3E__x5F_72"  width="24.3" height="12.7" y="-12.7" transform="matrix(0.9222 0 0 -1.2202 3.75 15.1001)" style="overflow:visible;opacity:0.7188;enable-background:new    ;"/>
	
		<use xlink:href="#flash0.ai_x5F_7_x2F_Layer_2_x2F__x3C_Path_x3E__x5F_71"  width="17.2" height="13.05" y="-13.05" transform="matrix(0.9222 0 0 -1.2202 26.3496 13.75)" style="overflow:visible;opacity:0.1602;enable-background:new    ;"/>
	
		<use xlink:href="#flash0.ai_x5F_7_x2F_Layer_2_x2F__x3C_Path_x3E__x5F_70"  width="12.75" height="12.55" y="-12.55" transform="matrix(0.9222 0 0 -1.2202 0.8501 13.6499)" style="overflow:visible;opacity:0.3203;enable-background:new    ;"/>
	
		<linearGradient id="SVGID_2_" gradientUnits="userSpaceOnUse" x1="0.8003" y1="8.5996" x2="46.0498" y2="8.5996" gradientTransform="matrix(0.9222 0 0 1.2202 -6.103516e-005 0)">
		<stop  offset="0" style="stop-color:#7D7D7D"/>
		<stop  offset="1" style="stop-color:#D4D4D4"/>
	</linearGradient>
	<path style="fill-rule:evenodd;clip-rule:evenodd;fill:url(#SVGID_2_);" d="M36.336,3.172c4.087,2.034,6.132,4.474,6.132,7.321
		c0,2.888-2.045,5.328-6.132,7.321c-4.059,2.033-8.977,3.05-14.756,3.05c-5.749,0-10.667-1.017-14.756-3.05
		c-4.058-1.993-6.086-4.433-6.086-7.321c0-2.848,2.029-5.288,6.086-7.321c4.089-2.034,9.007-3.05,14.756-3.05
		C27.328,0.122,32.247,1.139,36.336,3.172z"/>
	<path style="fill-rule:evenodd;clip-rule:evenodd;fill:#F5F5F5;" d="M43.067,9.761H41.73c-0.277-2.522-2.352-4.657-6.226-6.406
		c-3.843-1.749-8.454-2.623-13.833-2.623c-5.349,0-9.944,0.875-13.787,2.623C4.012,5.104,1.937,7.239,1.66,9.761H0.092
		c0.492-2.766,2.782-5.084,6.87-6.955C11.112,0.936,15.985,0,21.58,0c5.625,0,10.497,0.936,14.616,2.806
		C40.285,4.677,42.576,6.996,43.067,9.761z"/>
	
		<use xlink:href="#flash0.ai_x5F_7_x2F_Layer_2_x2F__x3C_Path_x3E__x5F_63"  width="41.792" height="9.681" x="-0.042" y="-9.65" transform="matrix(0.9222 0 0 -1.2202 2.3999 4.1499)" style="overflow:visible;opacity:0.2891;enable-background:new    ;"/>
	<path style="fill-rule:evenodd;clip-rule:evenodd;fill:#F5F5F5;" d="M41.73,9.701h1.337c0.062,0.244,0.092,0.569,0.092,0.976
		c0,2.969-2.105,5.491-6.316,7.565c-4.212,2.075-9.3,3.111-15.263,3.111c-5.964,0-11.052-1.036-15.263-3.111
		C2.105,16.167,0,13.645,0,10.676l0.092-0.976H1.66v0.548c0,2.644,1.952,4.881,5.856,6.711c3.904,1.871,8.623,2.807,14.156,2.807
		c5.563,0,10.299-0.936,14.202-2.807c3.904-1.83,5.856-4.067,5.856-6.711V9.701z"/>
</g>
<g>
	<g>
		<path style="fill-rule:evenodd;clip-rule:evenodd;fill:#EFDFC8;" d="M41.661,9.944c0.215,0.735,0.28,1.405,0.193,2.01
			c-0.259,0.778-1.209,1.621-2.852,2.528c-3.286,1.859-8.451,3.09-15.497,3.696c-7.003,0.648-12.557,0.021-16.663-1.88
			c-2.075-0.951-3.437-1.967-4.084-3.047c-0.347-0.303-0.605-0.692-0.778-1.167c-0.346-0.907-0.021-1.815,0.973-2.723
			C3.947,8.453,5.005,8,6.129,8c0.563,0,1.017,0.086,1.362,0.259C7.231,7.74,7.124,7.178,7.167,6.573
			C7.253,5.276,8.01,4.326,9.436,3.72c1.427-0.648,3.069-0.584,4.928,0.194c0.951,0.346,1.75,0.778,2.399,1.297
			c0.043-0.605,0.303-1.232,0.778-1.88c0.951-1.34,2.507-2.14,4.668-2.399c1.988-0.259,3.609-0.065,4.863,0.583
			c0.648,0.346,1.102,0.713,1.361,1.102l0.389-0.064c0.52-0.086,1.405-0.13,2.658-0.13c1.254,0,1.881,0.648,1.881,1.945
			c0,0.648-0.13,1.297-0.389,1.945l2.009-0.13c1.6,0,3.027,0.259,4.279,0.778C40.515,7.524,41.315,8.518,41.661,9.944z"/>
		<path style="fill-rule:evenodd;clip-rule:evenodd;fill:#F7DAA1;" d="M42.05,11.306c-0.043,0.389-0.217,0.8-0.52,1.232
			c-0.518,0.908-1.275,1.491-2.27,1.75c-0.648,0.173-2.248-0.021-4.797-0.583c-2.161-0.519-3.437-0.454-3.825,0.195
			c-0.476,0.691,0.172,1.231,1.944,1.621c0.908,0.173,1.837,0.28,2.788,0.324l-6.483,1.685c-0.865-0.562-2.011-1.21-3.437-1.945
			c-0.908-0.476-1.881-0.778-2.918-0.908l-1.232-0.129l6.744-2.594c1.08-0.476,1.016-1.232-0.195-2.269
			c-1.167-1.081-2.615-1.405-4.344-0.973c-3.112,0.691-4.755,1.059-4.928,1.102c-1.902,0.476-3.22,1.038-3.955,1.687
			c-0.735,0.605,0.043,1.34,2.334,2.204c1.156,0.428,2.378,0.796,3.664,1.102c-0.319-0.069-0.957,0.104-1.913,0.519
			c-0.648,0.26-1.081,0.822-1.297,1.686c-0.13,0.432-0.194,0.821-0.194,1.167c-0.087-0.303-0.324-0.67-0.714-1.103
			c-0.777-0.777-1.836-1.339-3.176-1.685c-0.951-0.26-2.313-0.043-4.085,0.648c-1.599,0.648-2.983,0.648-4.15,0
			c-1.34-0.735-2.291-1.75-2.853-3.047L1.85,11.306c0.605,0.562,1.686,1.059,3.242,1.491c1.167,0.303,2.378,0.324,3.631,0.065
			c1.21-0.259,2.097-0.713,2.659-1.361c0.691-0.865-0.605-1.945-3.89-3.242C7.188,7.524,7.34,6.811,7.945,6.119
			c0.302-0.389,1.253-0.086,2.852,0.908c1.902,1.296,3.112,1.988,3.631,2.075c0.821,0.173,1.448-0.411,1.88-1.75
			c0.26-0.691,0.411-1.405,0.454-2.14l2.075,0.778c1.469,0.476,2.442,0.626,2.917,0.454c1.253-0.475,1.966-1.319,2.139-2.529
			c0.13-1.167,0.497-1.88,1.103-2.14c0.907-0.346,1.751-0.302,2.528,0.13c0.39,0.216,0.692,0.454,0.908,0.713l1.621-0.324
			c1.254-0.087,2.226,0.173,2.918,0.778c0.734,0.605,0.95,1.34,0.647,2.204c-0.129,0.39-0.346,0.735-0.647,1.038L32,7.74
			c-0.39,1.037,0.086,1.815,1.426,2.334c1.341,0.562,2.464,0.886,3.372,0.973C37.532,11.133,39.282,11.22,42.05,11.306z"/>
		<path style="fill-rule:evenodd;clip-rule:evenodd;fill:#F7DAA1;" d="M16.179,11.436c1.513,0.043,2.766,0.108,3.761,0.195
			c0.778,0.086,1.577,0.432,2.399,1.038c0.734,0.519,1.361,0.713,1.88,0.583c1.081-0.216,1.448,0.086,1.103,0.907
			c-2.031,0.433-3.933,0.67-5.706,0.714c-1.124,0.043-2.183-0.173-3.177-0.648l-1.167-0.648c-0.605-0.26-0.973-0.713-1.102-1.362
			v-0.843L16.179,11.436z"/>
		<path style="fill-rule:evenodd;clip-rule:evenodd;fill:#C9B284;" d="M28.109,1.905c0.303,0.389,0.648,1.081,1.037,2.074
			c0.087,0.13,0.13,0.541,0.13,1.232c-0.043,0.519,0.13,0.864,0.519,1.037c0.648,0.26,1.967-0.259,3.955-1.556l-0.777,1.621
			c-0.39,0.475-1.103,0.951-2.141,1.426c-0.604,0.346-1.08,0.648-1.426,0.907l-0.26,0.324l-3.566-1.75
			c0-0.389,0.454-1.188,1.362-2.398c0.605-0.735,0.648-1.535,0.13-2.399L26.1,1.321l0.843,0.13
			C27.504,1.537,27.894,1.688,28.109,1.905z"/>
		<path style="fill-rule:evenodd;clip-rule:evenodd;fill:#C9B284;" d="M29.666,8.194l-0.324,0.519
			c-0.173,0.476-0.217,0.973-0.13,1.491c0.173,0.821,0.648,1.513,1.427,2.075c-2.508,0.129-4.323,0.065-5.447-0.195
			c-0.476-0.129-0.994-0.519-1.556-1.167c-0.519-0.562-1.211-0.907-2.075-1.037c-1.038-0.13-2.248,0-3.631,0.389l-1.75,0.584
			c0.216-1.124,0.562-1.945,1.038-2.464c0.519-0.476,0.367-1.535-0.454-3.177l0.519,0.584c0.433,0.432,0.887,0.799,1.362,1.102
			c0.735,0.476,1.967,0.757,3.696,0.843c1.21-0.043,2.507-0.605,3.89-1.686L29.666,8.194z"/>
		<path style="fill-rule:evenodd;clip-rule:evenodd;fill:#F7DAA1;" d="M26.488,7.092c0.908-0.303,1.534,0.108,1.881,1.231
			c0.259,0.951,0.302,1.881,0.129,2.788c-0.086,0.519-0.41,0.67-0.973,0.454c-0.777-0.432-1.404-0.734-1.88-0.907
			c-0.778-0.26-1.34-0.671-1.686-1.232c-0.433-0.605-0.324-1.059,0.323-1.361L26.488,7.092z"/>
		<path style="fill-rule:evenodd;clip-rule:evenodd;fill:#C9B284;" d="M8.398,7.675c1.038,0.951,2.226,1.556,3.566,1.815
			c2.162,0.347,3.761,0.671,4.798,0.973c-0.648-0.043-1.275-0.021-1.88,0.065c-1.167,0.173-1.621,0.605-1.361,1.297
			c0.389,0.951,1.146,1.707,2.269,2.269c0.303,0.173,0.67,0.843,1.103,2.009c-0.303-0.302-0.757-0.605-1.362-0.907
			c-1.124-0.605-2.313-0.844-3.566-0.714c-1.988,0.217-3.933,0.865-5.835,1.945c-0.519,0-1.037-0.194-1.556-0.583l-1.621-1.297
			c1.167,0.562,2.853,0.54,5.057-0.065c0.519-0.13,1.729-0.389,3.63-0.778c0.735-0.173,1.06-0.389,0.973-0.648
			c0.044-0.562,0.065-1.016,0.065-1.361c-0.043-0.562-0.411-1.016-1.103-1.361L7.491,8.259l-0.194-2.01L8.398,7.675z"/>
		<path style="fill-rule:evenodd;clip-rule:evenodd;fill:#C9B284;" d="M33.037,16.493l-3.371,1.167
			c-0.778-0.648-1.687-1.297-2.724-1.945c-0.605-0.39-1.448-0.714-2.529-0.973l-1.426-0.26l2.334-0.324
			c0.734-0.086,1.275-0.756,1.621-2.01l0.194,0.973c0.216,0.778,0.648,1.427,1.297,1.945C29.471,15.888,31.006,16.363,33.037,16.493
			z"/>
		<path style="fill-rule:evenodd;clip-rule:evenodd;fill:#C9B284;" d="M41.401,12.408c0.173,0.26,0,0.627-0.52,1.102l-1.361,0.973
			c-1.557-0.043-2.875-0.173-3.955-0.389l-5.771-1.686l-0.389-1.102l1.815,0.519c1.47,0.346,2.961,0.605,4.474,0.778
			C37.899,12.862,39.802,12.797,41.401,12.408z"/>
		<path style="fill-rule:evenodd;clip-rule:evenodd;fill:#FFFBE8;" d="M24.219,1.646c-0.043,0.389-0.605,0.713-1.686,0.972
			c-0.476,0.13-0.799,0.324-0.972,0.584c-0.087,0.173-0.238,0.67-0.454,1.491c-0.173,0.605-0.562,0.821-1.167,0.648
			c-0.13-0.087-0.648-0.39-1.556-0.908c-0.389-0.259-0.454-0.497-0.194-0.713c0.173-0.173,0.605-0.519,1.296-1.038
			c0.778-0.648,1.967-1.059,3.566-1.231C23.83,1.148,24.219,1.213,24.219,1.646z"/>
		<path style="fill-rule:evenodd;clip-rule:evenodd;fill:#FFFBE8;" d="M34.334,6.833c0.389-0.26,0.8-0.346,1.231-0.26
			c0.303,0.043,0.973,0.195,2.01,0.454c0.994,0.173,1.773,0.519,2.334,1.038c0.563,0.519,0.822,1.102,0.779,1.75
			c-0.043,0.26-0.52,0.044-1.428-0.648c-1.383-1.037-2.896-1.404-4.538-1.102c-0.864,0.129-1.275,0.064-1.231-0.195
			C33.491,7.61,33.771,7.265,34.334,6.833z"/>
		<path style="fill-rule:evenodd;clip-rule:evenodd;fill:#EFDFC8;" d="M26.813,6.573c0.519-0.216,0.8-0.237,0.843-0.064
			c0.043,0.476,0.173,0.821,0.39,1.037c0.432,0.432,0.691,0.908,0.777,1.426c0.13,0.519,0.022,0.908-0.324,1.167
			c-0.346,0.217-0.95,0.13-1.815-0.259c-0.864-0.39-1.534-0.843-2.01-1.362c-0.346-0.432-0.26-0.821,0.259-1.167
			C25.104,7.265,25.731,7.005,26.813,6.573z"/>
		<path style="fill-rule:evenodd;clip-rule:evenodd;fill:#FFFBE8;" d="M9.89,4.174c1.426-0.303,2.788-0.217,4.085,0.259
			c1.253,0.433,1.772,0.973,1.556,1.621c-0.173,0.476-0.648,0.476-1.426,0c-1.34-0.734-2.096-1.124-2.269-1.167
			c-1.081-0.173-1.794-0.303-2.14-0.389C9.22,4.412,9.285,4.303,9.89,4.174z"/>
		<path style="fill-rule:evenodd;clip-rule:evenodd;fill:#FFFBE8;" d="M31.222,13.187c1.167-0.173,2.594-0.043,4.279,0.389
			c1.686,0.476,2.377,0.907,2.074,1.297c-0.215,0.346-0.973,0.389-2.27,0.129c-1.901-0.346-2.981-0.519-3.241-0.519
			c-0.821-0.043-1.297-0.259-1.426-0.648C30.552,13.489,30.746,13.273,31.222,13.187z"/>
		<path style="fill-rule:evenodd;clip-rule:evenodd;fill:#FFFBE8;" d="M11.251,15.197c1.254-0.39,2.421-0.39,3.501,0
			c0.907,0.346,1.361,0.713,1.361,1.102c0,0.346-1.102,0.346-3.306,0c-0.217-0.044-0.821,0-1.816,0.129
			c-0.994,0.087-1.794,0.065-2.399-0.064c-0.692-0.173-0.648-0.367,0.129-0.583C9.198,15.694,10.042,15.499,11.251,15.197z"/>
		<path style="fill-rule:evenodd;clip-rule:evenodd;fill:#F7DAA1;" d="M15.79,15.65l2.205-0.519L17.8,15.65
			c-0.043,0.476,0.087,0.908,0.39,1.296c0.562,0.648,2.615,0.995,6.159,1.038l-3.696,0.389c-2.161,0.13-3.955,0.151-5.381,0.065
			c-1.599-0.044-2.745-0.303-3.436-0.778l2.658-0.648C15.229,16.752,15.66,16.299,15.79,15.65z"/>
		<path style="fill-rule:evenodd;clip-rule:evenodd;fill:#C9B284;" d="M17.087,14.483c0.735,0.173,1.578,0.303,2.529,0.39
			l-1.621,0.259c-0.648,0.087-0.93,0.39-0.844,0.908c0.044,0.26,0.13,0.691,0.26,1.297c-0.13,0.519,0.757,0.864,2.658,1.037
			c-1.513,0.043-2.615,0.108-3.307,0.194l-2.853-0.129c1.254-0.563,2.14-1.146,2.659-1.751c0.562-0.605,0.389-1.124-0.519-1.556
			l-1.945-1.426L17.087,14.483z"/>
		<path style="fill-rule:evenodd;clip-rule:evenodd;fill:#C9B284;" d="M16.05,15.131c-0.865-0.389-1.535-1.059-2.01-2.01
			l-0.519-1.296l0.648,0.583c0.519,0.389,1.059,0.583,1.621,0.583c0.605,0,2.637,0.26,6.095,0.778
			c0.864,0.13,2.182,0.389,3.955,0.778c-1.081,0-2.291,0.107-3.631,0.324c-1.383,0.302-2.42,0.519-3.112,0.648
			C17.887,15.65,16.871,15.521,16.05,15.131z"/>
		<path style="fill-rule:evenodd;clip-rule:evenodd;fill:#865517;" d="M23.182,16.914c0.156-0.049,0.329-0.06,0.519-0.032
			l-0.13,0.389c-0.043,0-0.173,0.022-0.389,0.065V16.914z"/>
		<path style="fill-rule:evenodd;clip-rule:evenodd;fill:#865517;" d="M18.092,12.83c0.17-0.025,0.375,0.007,0.616,0.098
			c-0.043,0.432-0.26,0.562-0.648,0.389C17.746,13.159,17.756,12.997,18.092,12.83z"/>
		<path style="fill-rule:evenodd;clip-rule:evenodd;fill:#865517;" d="M21.885,12.02c0.389,0.086,0.626,0.216,0.712,0.389
			c-0.389,0.389-0.712,0.411-0.972,0.065C21.399,12.171,21.485,12.02,21.885,12.02z"/>
		<path style="fill-rule:evenodd;clip-rule:evenodd;fill:#865517;" d="M35.501,10.723l-0.584-0.064
			c0.563-0.087,0.844,0.086,0.844,0.519c-0.39,0-0.67-0.043-0.844-0.13C35.003,10.917,35.198,10.81,35.501,10.723z"/>
		<path style="fill-rule:evenodd;clip-rule:evenodd;fill:#865517;" d="M32.777,8.259l-0.194,0.194c0.303,0,0.454,0.087,0.454,0.26
			c0,0.129-0.13,0.259-0.389,0.389C32.303,8.756,32.346,8.475,32.777,8.259z"/>
		<path style="fill-rule:evenodd;clip-rule:evenodd;fill:#865517;" d="M39.618,11.241c0.15-0.015,0.313,0.007,0.486,0.065
			c-0.129,0.302-0.367,0.432-0.713,0.389C39.392,11.517,39.468,11.366,39.618,11.241z"/>
		<path style="fill-rule:evenodd;clip-rule:evenodd;fill:#865517;" d="M26.618,2.553h-0.13c0.26,0.648,0.151,0.778-0.324,0.389
			C25.731,2.553,25.883,2.423,26.618,2.553z"/>
		<path style="fill-rule:evenodd;clip-rule:evenodd;fill:#865517;" d="M24.219,4.369h0.324C24.5,4.757,24.262,4.887,23.83,4.757
			C23.787,4.584,23.916,4.455,24.219,4.369z"/>
		<path style="fill-rule:evenodd;clip-rule:evenodd;fill:#865517;" d="M14.947,8.129h0.519c0.162,0.042,0.313,0.107,0.454,0.194
			c-0.303,0.519-0.605,0.584-0.908,0.195C14.811,8.316,14.789,8.187,14.947,8.129h-0.13C15,8.088,15.173,8.078,15.336,8.097
			C15.162,8.089,15.032,8.1,14.947,8.129z"/>
		<path style="fill-rule:evenodd;clip-rule:evenodd;fill:#865517;" d="M11.77,7.286l0.26,0.194c-0.26,0.346-0.519,0.346-0.778,0
			C11.331,7.362,11.503,7.297,11.77,7.286z"/>
		<path style="fill-rule:evenodd;clip-rule:evenodd;fill:#865517;" d="M5.643,11.695c0.252,0.096,0.176,0.313-0.227,0.648
			c-0.173,0.216-0.281,0.129-0.324-0.26C5.092,11.805,5.275,11.675,5.643,11.695z"/>
		<path style="fill-rule:evenodd;clip-rule:evenodd;fill:#865517;" d="M9.307,13.251l-0.519-0.13
			c0.562-0.086,0.994-0.021,1.296,0.194c-0.086,0.303-0.281,0.454-0.583,0.454c-0.259,0.043-0.432-0.087-0.519-0.389L9.307,13.251z"
			/>
		<path style="fill-rule:evenodd;clip-rule:evenodd;fill:#865517;" d="M10.603,11.63l-0.227,0.033
			c0.293-0.027,0.477,0.069,0.551,0.292c-0.259,0.259-0.497,0.216-0.713-0.129C9.998,11.436,10.127,11.371,10.603,11.63z"/>
		<path style="fill-rule:evenodd;clip-rule:evenodd;fill:#865517;" d="M14.169,16.688l-0.194,0.13c0.043,0,0.281,0.064,0.713,0.194
			c0.043,0.648-0.238,0.778-0.843,0.389C13.24,17.012,13.348,16.773,14.169,16.688z"/>
		<path style="fill-rule:evenodd;clip-rule:evenodd;fill:#865517;" d="M26.618,10.334l-0.194,0.064
			c0.302-0.043,0.497,0.064,0.583,0.324c0.087,0.26-0.043,0.367-0.389,0.324c-0.39-0.043-0.563-0.194-0.519-0.454
			C26.143,10.334,26.315,10.247,26.618,10.334z"/>
		<path style="fill-rule:evenodd;clip-rule:evenodd;fill:#968563;" d="M17.605,9.686l0.908-0.778l2.917-0.194
			c0.605-0.087,1.232-0.13,1.88-0.13c0.171-0.009,0.322-0.009,0.453,0c0.044-0.13,0.238-0.238,0.584-0.324l-0.13,3.372
			c-0.864-0.821-1.577-1.296-2.14-1.426c-0.389-0.087-1.253-0.194-2.593-0.324L17.605,9.686z"/>
		<path style="fill-rule:evenodd;clip-rule:evenodd;fill:#865517;" d="M29.212,14.224l-0.454,0.064c0.346,0,0.605,0.108,0.778,0.324
			c-0.26,0.648-0.541,0.691-0.843,0.13C28.391,14.137,28.563,13.964,29.212,14.224z"/>
		<path style="fill-rule:evenodd;clip-rule:evenodd;fill:#865517;" d="M32.259,16.558l-0.648-0.324
			c0.303-0.086,0.605-0.043,0.908,0.13c0,0.519-0.303,0.691-0.908,0.519c0.044-0.216,0.108-0.346,0.194-0.389
			C31.849,16.493,32,16.515,32.259,16.558z"/>
		<path style="fill-rule:evenodd;clip-rule:evenodd;fill:#91C401;" d="M16.503,6.119c0.26,0.173,1.017,0.605,2.27,1.297
			c1.038,0.691,1.319,1.34,0.843,1.945l0.583,0.259c0.353-0.133,0.742-0.328,1.167-0.583c1.167-0.692,2.031-1.06,2.594-1.103
			c0.043,0.735-0.368,1.297-1.232,1.686c-0.821,0.303-1.578,0.346-2.269,0.13l-0.259-0.13c-0.541,0.226-0.994,0.313-1.361,0.26
			c-0.865-0.087-1.405-0.605-1.621-1.557C16.914,7.07,16.676,6.335,16.503,6.119z"/>
		<path style="fill-rule:evenodd;clip-rule:evenodd;fill:#91C401;" d="M32.129,12.797c-0.303,0.086-0.562-0.065-0.777-0.454
			c-0.217-0.303-0.346-0.648-0.389-1.038c0.863,0.216,1.599,0.713,2.204,1.491c0.129-0.389,0.54-0.691,1.231-0.908
			c0.562-0.173,1.103-0.237,1.62-0.194c-0.043,0.389-0.346,0.778-0.906,1.167c-0.648,0.475-0.994,0.735-1.038,0.778
			c-0.216-0.259-0.54-0.411-0.973-0.454c-0.389-0.043-0.713,0.043-0.973,0.259V12.797z"/>
		<path style="fill-rule:evenodd;clip-rule:evenodd;fill:#91C401;" d="M32.453,2.099c-0.432,0.519-0.82,0.843-1.166,0.973
			c-0.303-0.303-0.758-0.454-1.362-0.454c-0.433,0-0.854,0.076-1.265,0.227l0.552-0.227c-0.476-0.043-0.67-0.281-0.584-0.713
			c0.087-0.432,0.324-0.713,0.714-0.843l0.907,1.362c0.173-0.389,0.583-0.821,1.231-1.296c0.692-0.519,1.146-0.627,1.362-0.324
			C33.102,1.105,32.973,1.537,32.453,2.099z"/>
		<path style="fill-rule:evenodd;clip-rule:evenodd;fill:#728501;" d="M11.381,14.613c-0.303-0.13-0.584-0.389-0.843-0.778
			c-0.26-0.432-0.303-0.778-0.13-1.037c0.216-0.389,0.605-0.367,1.167,0.065c0.346,0.259,0.605,0.53,0.778,0.81v-1.394
			c0.432,0,0.605,0.367,0.519,1.102c0.13-0.302,0.389-0.497,0.778-0.583c0.129,0.735-0.065,1.297-0.584,1.686
			C12.591,14.829,12.03,14.873,11.381,14.613z"/>
		<path style="fill-rule:evenodd;clip-rule:evenodd;fill:#91C401;" d="M12.16,3.202c-0.39-0.389-0.605-0.821-0.648-1.297
			c-0.044-0.562,0.194-0.951,0.713-1.167c0.043,0.433,0.194,1.103,0.454,2.01c0.476-0.476,0.929-0.8,1.361-0.973
			c0.043,0.259-0.043,0.756-0.259,1.491l0.583-0.064c0.043,0.129,0.021,0.324-0.065,0.583c-0.951-0.519-1.708-0.691-2.269-0.519
			L12.16,3.202z"/>
		<path style="fill-rule:evenodd;clip-rule:evenodd;fill:#728501;" d="M22.922,18.179l0.519-0.324
			c-0.043,0.519-0.799,0.778-2.269,0.778c-1.902-0.043-2.896-0.043-2.982,0l0.194-0.194c-0.691-0.433-1.081-0.735-1.167-0.908
			c0.519,0.26,0.951,0.411,1.297,0.454c0.086-0.563,0.389-0.93,0.907-1.103c0.519-0.173,0.692,0.087,0.519,0.778
			c0.389-0.173,0.691-0.433,0.907-0.778c0,0.087,0.065,0.411,0.195,0.973c0.994-0.778,1.729-1.167,2.204-1.167
			C23.246,16.946,23.139,17.443,22.922,18.179z"/>
		<path style="fill-rule:evenodd;clip-rule:evenodd;fill:#728501;" d="M27.331,14.094c0.087,0.259-0.043,0.713-0.389,1.361
			c0.086-0.043,0.303-0.107,0.648-0.194v0.519l0.519-0.064c-0.043,0.388-0.194,0.497-0.454,0.324
			c-0.303-0.259-0.54-0.432-0.713-0.518c-0.648-0.303-1.297-0.411-1.945-0.324c-0.346-0.692-0.367-1.103-0.065-1.232
			c0.217-0.086,0.454,0.021,0.714,0.324c0.13,0.173,0.303,0.433,0.519,0.778C26.337,14.548,26.726,14.224,27.331,14.094z"/>
	</g>
	<path style="fill-rule:evenodd;clip-rule:evenodd;fill:#FFFBE8;" d="M36.538,9.426c0.086-0.26,0.648-0.216,1.686,0.13
		c0.994,0.303,1.275,0.627,0.844,0.973c-0.434,0.346-0.994,0.324-1.686-0.065C36.733,10.074,36.452,9.729,36.538,9.426z"/>
	<path style="fill-rule:evenodd;clip-rule:evenodd;fill:#FFFBE8;" d="M3.601,9.686c0.302-0.39,1.167-0.714,2.593-0.973
		c0.951-0.217,1.988-0.022,3.112,0.583c0.951,0.519,1.469,0.994,1.556,1.427c0.043,0.26-0.13,0.346-0.519,0.26
		c-0.519-0.173-0.973-0.324-1.361-0.454c-0.562-0.217-0.994-0.367-1.297-0.454c-0.519-0.043-1.275,0.064-2.27,0.324
		C3.384,10.96,2.78,10.723,3.601,9.686z"/>
	<path style="fill-rule:evenodd;clip-rule:evenodd;fill:#FFFBE8;" d="M18.838,9.88l2.075-0.13c0.604,0,1.318,0.216,2.139,0.648
		c0.951,0.476,1.34,0.886,1.167,1.232c-0.13,0.259-0.605,0.195-1.426-0.195c-1.038-0.519-1.708-0.777-2.01-0.777
		c-0.994-0.13-1.513-0.195-1.556-0.195C18.751,10.334,18.621,10.139,18.838,9.88z"/>
	<path style="fill-rule:evenodd;clip-rule:evenodd;fill:#FFFBE8;" d="M26.65,7.221c1.034,0.832,1.304,1.351,0.811,1.556
		c-0.389,0.173-0.757,0-1.103-0.519C26.085,7.789,26.182,7.443,26.65,7.221z"/>
	<path style="fill-rule:evenodd;clip-rule:evenodd;fill:#728501;" d="M19.162,9.556L18.87,9.523
		c0.043,0.043,0.075,0.118,0.097,0.227l0.583-0.324c-0.432,0.476-1.254,0.713-2.464,0.713c-0.951,0-1.21-0.216-0.778-0.648
		c0.043-0.043,0.476,0.022,1.297,0.195c-0.389-0.563-0.562-1.081-0.519-1.557C17.476,8.216,18.168,8.691,19.162,9.556z"/>
	<path style="fill-rule:evenodd;clip-rule:evenodd;fill:#728501;" d="M27.007,11.047c-0.043,0.389-0.303,0.864-0.778,1.426
		c-1.08-0.389-1.858-0.821-2.334-1.296v-0.648l0.065,0.389c0-0.389,0.194-0.627,0.583-0.713c0.087,0.303,0.194,0.756,0.324,1.361
		c0-0.432,0.216-0.67,0.648-0.713c0.043,0.13,0.13,0.346,0.26,0.648C25.991,11.501,26.401,11.35,27.007,11.047z"/>
	<path style="fill-rule:evenodd;clip-rule:evenodd;fill:#728501;" d="M36.149,12.862c0.346-0.173,0.734-0.303,1.166-0.389
		c0,0.346-0.129,0.67-0.389,0.973c-0.303,0.346-0.453,0.627-0.453,0.843c-0.303-0.648-0.887-0.886-1.751-0.713l0.13-0.26
		c-0.519,0-0.713-0.281-0.584-0.843c0.346,0.043,0.67,0.259,0.973,0.648c0.303-0.216,0.605-0.541,0.908-0.973V12.862z"/>
	<path style="fill-rule:evenodd;clip-rule:evenodd;fill:#968563;" d="M12.548,10.853l1.232,0.13l0.195,1.102
		c0.216,0.821,0.497,1.383,0.842,1.686c0.605,0.476,2.054,0.843,4.345,1.103L15.79,15.65l-2.982-0.907
		c-0.605-0.433-0.584-0.886,0.064-1.362C13.521,12.949,13.413,12.106,12.548,10.853z"/>
	<path style="fill-rule:evenodd;clip-rule:evenodd;fill:#968563;" d="M20.264,13.77c0.476-0.173,0.886-0.13,1.231,0.13
		c0.346,0.259,0.281,0.476-0.194,0.648s-0.864,0.107-1.167-0.195C19.789,14.094,19.832,13.9,20.264,13.77z"/>
	<path style="fill-rule:evenodd;clip-rule:evenodd;fill:#968563;" d="M28.109,4.369v1.103c0.13,0.821,0.497,1.361,1.103,1.621
		c0.994,0.432,2.247,0.173,3.761-0.778c-0.994,0.778-1.708,1.253-2.141,1.426c-0.259,0.129-0.626,0.432-1.102,0.907l-0.648,0.714
		c-0.13-0.605-0.476-1.211-1.037-1.816c-0.39-0.389-0.821-0.648-1.297-0.778h-0.584l1.103-0.972
		C27.742,5.406,28.022,4.93,28.109,4.369z"/>
	<path style="fill-rule:evenodd;clip-rule:evenodd;fill:#968563;" d="M30.185,17.206c-0.217,0.216-0.541,0.411-0.973,0.584
		c-0.26,0.086-0.714,0.129-1.362,0.129l-0.907-0.064c-0.087-0.648-0.627-1.21-1.621-1.686c-0.605-0.302-1.643-0.605-3.112-0.908
		l-2.01-0.324l1.491-0.26c1.167-0.173,2.119-0.259,2.853-0.259c0.735,0,1.361,0.173,1.881,0.519
		c0.302,0.216,0.713,0.519,1.231,0.908C28.304,16.104,29.146,16.558,30.185,17.206z"/>
	<path style="fill-rule:evenodd;clip-rule:evenodd;fill:#91C401;" d="M23.376,1.71c-0.086,0.13-0.648,0.627-1.686,1.492
		l-0.259-0.454l0.259-0.194c-0.346,0.086-0.691-0.259-1.037-1.038c-0.302-0.821-0.302-1.383,0-1.686
		c0.303-0.303,0.627-0.151,0.973,0.454c0.255,0.51,0.385,0.954,0.389,1.329c0.008-0.417,0.289-0.86,0.843-1.329
		c0.562-0.433,1.08-0.627,1.556-0.584C24.37,0.349,24.024,1.019,23.376,1.71z"/>
	<path style="fill-rule:evenodd;clip-rule:evenodd;fill:#91C401;" d="M20.458,2.748c-0.061-0.061-0.126-0.115-0.194-0.162
		c0.016-0.108,0.081-0.162,0.194-0.162V2.748z M20.913,2.813c0.173-0.043,0.41-0.13,0.713-0.259c-0.173,0.389-0.13,0.843,0.13,1.361
		c-0.346-0.173-0.584-0.346-0.713-0.519c-0.821,0.648-1.556,0.886-2.204,0.713c0.086-0.259,0.432-0.519,1.037-0.778
		c-0.951-0.086-1.621-0.195-2.01-0.324c-0.648-0.216-1.146-0.67-1.491-1.361c1.761-0.08,3.058,0.233,3.89,0.94v0.032
		C20.437,2.791,20.653,2.855,20.913,2.813z"/>
	<path style="fill-rule:evenodd;clip-rule:evenodd;fill:#91C401;" d="M5.027,8.064C5.113,8.15,5.395,7.783,5.87,6.962
		C6.216,7.48,6.237,8.021,5.935,8.583C5.589,9.188,5.222,9.08,4.833,8.259L4.638,8.647c-0.303,0-0.713-0.194-1.232-0.583
		C2.801,7.632,2.585,7.286,2.758,7.027S3.341,6.854,3.99,7.286C4.595,7.632,4.94,7.892,5.027,8.064z"/>
	<path style="fill-rule:evenodd;clip-rule:evenodd;fill:#91C401;" d="M37.058,4.563c0.043,0.346-0.152,0.93-0.584,1.751l0.518-0.13
		c-0.172,0.389-0.582,0.519-1.23,0.389c-0.605-0.129-0.951-0.043-1.038,0.26V6.638c-0.519-0.217-0.735-0.605-0.648-1.167
		c0.173,0.043,0.411,0.151,0.714,0.324c0.259,0.173,0.475,0.259,0.648,0.259C35.522,5.233,36.063,4.736,37.058,4.563z"/>
</g>
</svg>
