<?xml version="1.0" encoding="iso-8859-1"?>
<!-- Generator: Adobe Illustrator 15.1.0, SVG Export Plug-In . SVG Version: 6.00 Build 0)  -->
<!DOCTYPE svg PUBLIC "-//W3C//DTD SVG 1.1//EN" "http://www.w3.org/Graphics/SVG/1.1/DTD/svg11.dtd">
<svg version="1.1" id="flash0.ai" xmlns="http://www.w3.org/2000/svg" xmlns:xlink="http://www.w3.org/1999/xlink" x="0px" y="0px"
	 width="63.75px" height="45.1px" viewBox="0 0 63.75 45.1" style="enable-background:new 0 0 63.75 45.1;" xml:space="preserve">
<symbol  id="rubeweed_x5F_1" viewBox="0.002 -39.868 72.997 39.854">
	<g id="Layer_1_2_">
		<path style="fill-rule:evenodd;clip-rule:evenodd;fill:#586818;" d="M35.95-33.6c0.033,0.667,0,1.133-0.1,1.4
			c-0.167,0.533-0.517,0.667-1.05,0.4s-0.9-0.633-1.1-1.1c-0.433-1,0.05-1.7,1.45-2.1c0.582-0.159,1.332-0.317,2.25-0.475
			c-0.128,0.111-0.261,0.236-0.4,0.375C36.366-34.466,36.017-33.966,35.95-33.6z M44.1-36.45c-0.434,0.066-0.717,0.133-0.85,0.2
			c-0.267,0.134-0.483,0.367-0.65,0.7l-0.2,0.9c-0.366,0.8-0.816,1.117-1.35,0.95c-0.567-0.167-1.017-0.55-1.35-1.15
			c-0.167-0.3-0.284-0.534-0.35-0.7c-0.167-0.3-0.333-0.483-0.5-0.55c-0.246-0.103-0.571-0.02-0.975,0.25
			c-0.383-0.255-0.875-0.422-1.475-0.5c-0.333-0.034-0.983-0.05-1.95-0.05c-1.6,0-2.65,0.05-3.15,0.15c-0.2,0.067-0.434,0.2-0.7,0.4
			c-0.333,0.2-0.566,0.333-0.7,0.4c-0.967,0.4-1.55,0.7-1.75,0.9c-0.4,0.533-0.7,0.883-0.9,1.05c-0.3,0.3-0.7,0.467-1.2,0.5
			c-0.767-0.033-1.35-0.033-1.75,0l-2.6,0.5c-1.067,0.2-1.95,0.333-2.65,0.4c-0.567,0.066-1.267-0.017-2.1-0.25
			c-0.633-0.134-1.784-0.167-3.45-0.1c-1.1,0-1.917,0.133-2.45,0.4l-0.65,0.45c-0.167,0.066-0.366,0.1-0.6,0.1
			c-2.167-0.167-3.483-0.25-3.95-0.25c-2.233,0-3.9,0.317-5,0.95c-0.9,0.566-1.083,0.983-0.55,1.25c0.267,0.167,0.8,0.184,1.6,0.05
			c1.134,0.134,2,0.333,2.6,0.6c1.7,0.567,2.583,1.067,2.65,1.5l7.65,1.55c0.1-0.067,0.217-0.117,0.35-0.15c0.067,0,0.184,0,0.35,0
			l1.85-0.15c1.533-0.233,3.35-0.683,5.45-1.35c1.2-0.366,3-0.917,5.4-1.65c0.6-0.167,1.65-0.417,3.15-0.75
			c1.333-0.267,2.383-0.533,3.15-0.8c0.633-0.233,1.567-0.583,2.8-1.05l4.6-1.3c0.934-0.267,2.333-0.633,4.2-1.1
			c1.6-0.466,2.95-1.05,4.05-1.75c0.367-0.233,0.684-0.633,0.95-1.2c0.133-0.333,0.333-0.85,0.6-1.55c-0.6-0.1-1.25,0.133-1.95,0.7
			c-0.9,0.733-1.5,1.15-1.8,1.25c-0.5,0.167-1.15,0.233-1.95,0.2C45.033-36.5,44.399-36.483,44.1-36.45z"/>
		<linearGradient id="SVGID_1_" gradientUnits="userSpaceOnUse" x1="14.6748" y1="-31.5498" x2="30.9248" y2="-31.5498">
			<stop  offset="0" style="stop-color:#677925"/>
			<stop  offset="1" style="stop-color:#C0DC54"/>
		</linearGradient>
		<path style="fill-rule:evenodd;clip-rule:evenodd;fill:url(#SVGID_1_);" d="M18.899-28.65c0.267-0.066,0.667-0.117,1.2-0.15
			l4.35-0.55c0.9-0.134,2.267-0.284,4.1-0.45c0.667-0.133,1.217-0.434,1.65-0.9c0.5-0.5,0.75-1.133,0.75-1.9
			c0-1.167-0.617-1.884-1.85-2.15c-0.333-0.066-1.333-0.1-3-0.1c-1.4,0-2.934,0.133-4.6,0.4c-1.267,0.2-2,0.333-2.2,0.4
			c-0.767,0.2-1.45,0.5-2.05,0.9c-1.7,1.233-2.55,2.867-2.55,4.9h3C18-28.45,18.399-28.583,18.899-28.65z"/>
		<linearGradient id="SVGID_2_" gradientUnits="userSpaceOnUse" x1="1.1997" y1="-30.231" x2="12.6925" y2="-30.231">
			<stop  offset="0" style="stop-color:#677925"/>
			<stop  offset="1" style="stop-color:#C0DC54"/>
		</linearGradient>
		<path style="fill-rule:evenodd;clip-rule:evenodd;fill:url(#SVGID_2_);" d="M9-27.3l3.7,1.3c0.067-1.167-0.133-2.8-0.6-4.9
			c-0.167-0.8-0.733-1.55-1.7-2.25c-0.833-0.566-1.3-0.867-1.4-0.9c-0.7-0.2-1.417-0.333-2.15-0.4
			c-1.566-0.067-2.917,0.133-4.05,0.6C2.366-33.683,2-33.433,1.7-33.1c-0.4,0.4-0.55,0.85-0.45,1.35c0.1,0.6,0.483,1.017,1.15,1.25
			c0.167,0.067,0.717,0.184,1.65,0.35c1.1,0.167,1.967,0.467,2.6,0.9c0.333,0.2,0.8,0.6,1.4,1.2C8.517-27.583,8.833-27.333,9-27.3z"
			/>
		<path style="fill-rule:evenodd;clip-rule:evenodd;fill:#C8DE5A;" d="M11.8-27.3l0.9,0.55c-0.034-1.167-0.233-2.55-0.6-4.15
			c-0.167-0.8-0.733-1.55-1.7-2.25c-0.833-0.566-1.3-0.867-1.4-0.9c-0.7-0.2-1.417-0.333-2.15-0.4
			c-1.566-0.067-2.917,0.133-4.05,0.6c-1.134,0.433-1.65,1.083-1.55,1.95c1.867-1.7,4.05-2.3,6.55-1.8
			c2.7,0.533,4.183,2.267,4.45,5.2C12.316-28.066,12.166-27.667,11.8-27.3z"/>
		<linearGradient id="SVGID_3_" gradientUnits="userSpaceOnUse" x1="24.437" y1="-33.6841" x2="31.762" y2="-33.6841">
			<stop  offset="0" style="stop-color:#677925"/>
			<stop  offset="1" style="stop-color:#C0DC54"/>
		</linearGradient>
		<path style="fill-rule:evenodd;clip-rule:evenodd;fill:url(#SVGID_3_);" d="M26.5-37.8c-0.5,0.033-0.966,0.25-1.4,0.65
			c-0.467,0.467-0.684,1-0.65,1.6c0.033,0.566,0.317,1.083,0.85,1.55c0.2,0.2,0.6,0.467,1.2,0.8c0.567,0.333,0.967,0.633,1.2,0.9
			c0.267,0.333,0.417,0.767,0.45,1.3c0,0.634,0,1.134,0,1.5l2.8-0.3c-0.034-0.2,0.017-0.45,0.15-0.75c0.066-0.2,0.167-0.45,0.3-0.75
			c0.233-0.5,0.35-1.2,0.35-2.1c0-1.3-0.133-2.25-0.4-2.85C30.716-37.55,29.1-38.066,26.5-37.8z"/>
		<path style="fill-rule:evenodd;clip-rule:evenodd;fill:#C8DE5A;" d="M26.5-37.8c-0.4,0.033-0.783,0.184-1.15,0.45
			c-0.4,0.3-0.667,0.667-0.8,1.1c1.2-0.866,2.5-1.167,3.9-0.9c1.5,0.3,2.483,1.25,2.95,2.85c0.2,0.767,0.2,1.517,0,2.25
			c-0.233,0.767-0.633,1.316-1.2,1.65l-0.35,0.15v0.6l1.1-0.15c-0.034-0.2,0.017-0.45,0.15-0.75c0.066-0.2,0.167-0.45,0.3-0.75
			c0.233-0.5,0.35-1.2,0.35-2.1c0-1.3-0.133-2.25-0.4-2.85C30.716-37.55,29.1-38.066,26.5-37.8z"/>
		<linearGradient id="SVGID_4_" gradientUnits="userSpaceOnUse" x1="36.937" y1="-35.5527" x2="44.562" y2="-35.5527">
			<stop  offset="0" style="stop-color:#677925"/>
			<stop  offset="1" style="stop-color:#C0DC54"/>
		</linearGradient>
		<path style="fill-rule:evenodd;clip-rule:evenodd;fill:url(#SVGID_4_);" d="M40.5-32.6c0.034-0.7,0.317-1.367,0.85-2
			c0.467-0.534,1-0.95,1.6-1.25c0.3-0.167,0.7-0.35,1.2-0.55c0.333-0.233,0.45-0.617,0.35-1.15c-0.1-0.8-0.466-1.217-1.1-1.25
			c-0.4-0.033-1.333,0.066-2.8,0.3c-1.066,0.167-1.667,0.284-1.8,0.35c-0.634,0.333-1.134,0.85-1.5,1.55
			c-0.367,0.767-0.483,1.533-0.35,2.3c0.2,0.5,0.333,0.883,0.4,1.15c0,0.034,0,0.184,0,0.45c0,0.2,0.033,0.333,0.1,0.4L40.5-32.6z"
			/>
		<path style="fill-rule:evenodd;clip-rule:evenodd;fill:#C8DE5A;" d="M43.399-38.1c0.467-0.034,0.85,0.183,1.15,0.65l-0.05-0.1
			c-0.1-0.8-0.466-1.217-1.1-1.25c-0.4-0.033-1.333,0.066-2.8,0.3c-1.066,0.167-1.667,0.284-1.8,0.35c-0.6,0.3-1.067,0.784-1.4,1.45
			c-0.366,0.667-0.517,1.367-0.45,2.1c0.233-1.267,1.083-2.184,2.55-2.75C40.399-37.716,41.7-37.966,43.399-38.1z"/>
		<linearGradient id="SVGID_5_" gradientUnits="userSpaceOnUse" x1="44.2119" y1="-36.8027" x2="50.6869" y2="-36.8027">
			<stop  offset="0" style="stop-color:#677925"/>
			<stop  offset="1" style="stop-color:#C0DC54"/>
		</linearGradient>
		<path style="fill-rule:evenodd;clip-rule:evenodd;fill:url(#SVGID_5_);" d="M44.899-34.55l0.8,0.1
			c1.133-0.467,2.117-1.284,2.95-2.45c0.634-0.833,1.1-1.367,1.4-1.6c0.4-0.333,0.616-0.517,0.65-0.55
			c-2.3-0.333-4.25,0.117-5.85,1.35c-0.267,0.233-0.45,0.466-0.55,0.7c-0.067,0.2-0.1,0.534-0.1,1
			C44.2-34.933,44.433-34.45,44.899-34.55z"/>
		<linearGradient id="SVGID_6_" gradientUnits="userSpaceOnUse" x1="51.8496" y1="-38.4087" x2="58.1494" y2="-38.4087">
			<stop  offset="0" style="stop-color:#677925"/>
			<stop  offset="1" style="stop-color:#C0DC54"/>
		</linearGradient>
		<path style="fill-rule:evenodd;clip-rule:evenodd;fill:url(#SVGID_6_);" d="M52.2-36.95l5.95-2.55c-0.3-0.3-0.8-0.417-1.5-0.35
			c-0.167,0-0.667,0.083-1.5,0.25c-1.433,0.3-2.533,0.883-3.3,1.75C51.916-37.483,52.033-37.183,52.2-36.95z"/>
		
			<linearGradient id="SVGID_7_" gradientUnits="userSpaceOnUse" x1="-2441.5332" y1="-152.9409" x2="-2427.9067" y2="-152.9409" gradientTransform="matrix(0.9999 -0.0147 0.3057 0.9956 2498.2173 84.0029)">
			<stop  offset="0" style="stop-color:#677925"/>
			<stop  offset="1" style="stop-color:#C0DC54"/>
		</linearGradient>
		<path style="fill-rule:evenodd;clip-rule:evenodd;fill:url(#SVGID_7_);" d="M24.1-26.35c0.7-2,0.517-4.3-0.55-6.9
			c-0.8-1.966-1.6-3.316-2.4-4.05c-1.267-1.167-2.566-1.667-3.9-1.5c-1.633,0.1-2.85,0.217-3.65,0.35
			c-1.367,0.3-2.45,0.767-3.25,1.4c-1.233,0.967-1.333,2.066-0.3,3.3c0.667,0.767,1.9,1.567,3.7,2.4c1.733,0.8,2.9,1.6,3.5,2.4
			L24.1-26.35z"/>
		<path style="fill-rule:evenodd;clip-rule:evenodd;fill:#C8DE5A;" d="M24.399-30.45c-0.133-0.867-0.417-1.8-0.85-2.8
			c-0.8-1.966-1.6-3.316-2.4-4.05c-1.267-1.167-2.566-1.667-3.9-1.5c-1.633,0.1-2.85,0.217-3.65,0.35
			c-0.9,0.167-1.75,0.483-2.55,0.95c-1.067,0.6-1.617,1.3-1.65,2.1l0.15-0.2c1.267-0.7,2.333-1.2,3.2-1.5
			c0.167-0.467,0.534-0.7,1.1-0.7c1.533-0.066,2.633-0.066,3.3,0c1.267,0.133,2.367,0.517,3.3,1.15c1.966,1.367,3.267,3.367,3.9,6
			L24.399-30.45z"/>
		<path style="fill-rule:evenodd;clip-rule:evenodd;fill:#455210;" d="M9.35-27.55l2.45,1.3c-0.2-0.233-0.4-0.65-0.6-1.25
			c-0.233-0.566-0.433-0.95-0.6-1.15L9.45-29.8c-0.367-0.467-1-0.75-1.9-0.85c-0.7-0.1-1.417-0.083-2.15,0.05
			c0.134,0.167,0.517,0.267,1.15,0.3C6.883-30.2,7.2-30,7.5-29.7c0.133,0.133,0.433,0.517,0.9,1.15
			C8.8-28.017,9.116-27.683,9.35-27.55z"/>
		<path style="fill-rule:evenodd;clip-rule:evenodd;fill:#455210;" d="M19.3-25.75l3.4-2c-1.367-1.866-2.367-3.133-3-3.8
			c-2.133-2.333-3.7-3.517-4.7-3.55c0.2,0.167,0.767,0.633,1.7,1.4c0.8,0.633,1.35,1.117,1.65,1.45c1.3,1.6,2.283,2.917,2.95,3.95
			c0.066,0.133-0.25,0.55-0.95,1.25C19.649-26.316,19.3-25.883,19.3-25.75z"/>
		<path style="fill-rule:evenodd;clip-rule:evenodd;fill:#455210;" d="M29.35-29.95l1.5,0.15c0-1.1-0.15-1.967-0.45-2.6
			c-0.167-0.5-0.5-0.95-1-1.35c-0.566-0.466-1.033-0.566-1.4-0.3c0.6,0.867,1,1.566,1.2,2.1
			C29.633-30.983,29.683-30.316,29.35-29.95z"/>
		<path style="fill-rule:evenodd;clip-rule:evenodd;fill:#455210;" d="M25.25-29.1l1.15-0.25c-0.033-0.4-0.3-0.917-0.8-1.55
			c-1.066-1.4-1.867-2.066-2.4-2l1.6,2.35C24.966-30.216,25.116-29.733,25.25-29.1z"/>
		<path style="fill-rule:evenodd;clip-rule:evenodd;fill:#455210;" d="M39.45-32.45l0.075,0.9c0-0.351,0.125-0.817,0.375-1.4
			c0.167-0.367,0.4-0.867,0.7-1.5c0.233-0.534,0.55-0.934,0.95-1.2C39.483-34.883,38.783-33.816,39.45-32.45z"/>
		<path style="fill-rule:evenodd;clip-rule:evenodd;fill:#455210;" d="M46.2-35.3l0.65,0.6c0-0.667,0.133-1.383,0.4-2.15
			c0.3-0.867,0.667-1.434,1.1-1.7C47.45-38.316,46.733-37.233,46.2-35.3z"/>
		<path style="fill-rule:evenodd;clip-rule:evenodd;fill:#455210;" d="M22-27.1c0.133,0,0.567-0.134,1.3-0.4
			c0.866-0.3,1.333-0.566,1.4-0.8v-1.1c-0.167-1.167-0.4-1.917-0.7-2.25c-0.966,0.833-2.067,1.133-3.3,0.9
			c-0.3-0.066-0.517-0.116-0.65-0.15c-0.233-0.033-0.4,0.05-0.5,0.25c-0.033,0.367-0.15,0.65-0.35,0.85
			c-0.133,0.1-0.25,0.15-0.35,0.15c-0.167-0.066-0.316-0.1-0.45-0.1c-1,0-1.75-0.017-2.25-0.05c0.567,0.467,0.9,0.9,1,1.3l0.55,2.35
			C19.267-26.383,20.7-26.7,22-27.1z"/>
		<path style="fill-rule:evenodd;clip-rule:evenodd;fill:#455210;" d="M28.149-29.8l1.4,1.4c1.167-1,1.816-2.167,1.95-3.5
			c0.133-0.9,0.083-1.55-0.15-1.95c-0.333,0.9-0.7,1.566-1.1,2c-0.267,0.3-0.583,0.483-0.95,0.55c-0.467,0.033-0.833,0.066-1.1,0.1
			L28.149-29.8z"/>
		<path style="fill-rule:evenodd;clip-rule:evenodd;fill:#455210;" d="M39.649-32.2c1.367-0.233,1.95-1.117,1.75-2.65
			c-0.1-0.034-0.267-0.017-0.5,0.05s-0.417,0.083-0.55,0.05c-0.267-0.066-0.434-0.116-0.5-0.15c-0.133,0-0.3,0.067-0.5,0.2
			c-0.267,0.233-0.5,0.367-0.7,0.4c-0.2,0.033-0.467-0.033-0.8-0.2c-0.333-0.133-0.583-0.183-0.75-0.15
			c0.1,0.6,0.167,1.017,0.2,1.25c0.267,0.4,0.4,0.717,0.4,0.95L39.649-32.2z"/>
		<path style="fill-rule:evenodd;clip-rule:evenodd;fill:#455210;" d="M44.649-34.45l0.6,0.6c0.6-0.067,1.284-0.45,2.05-1.15
			c0.833-0.767,1.233-1.5,1.2-2.2c-0.5,0.466-1.117,0.783-1.85,0.95C45.916-36.083,45.433-36,45.2-36
			c-0.433-0.133-0.767-0.167-1-0.1C44.1-35.066,44.25-34.517,44.649-34.45z"/>
		<path style="fill-rule:evenodd;clip-rule:evenodd;fill:#455210;" d="M53.5-38.1l-0.05-0.25c-0.3,0.033-0.534,0.066-0.7,0.1
			c-0.233,0.067-0.417,0.217-0.55,0.45c-0.2,0.333-0.2,0.75,0,1.25h1.3c0.233-0.133,0.517-0.467,0.85-1
			c0.279-0.503,0.521-0.844,0.725-1.025c-0.16,0.111-0.385,0.219-0.675,0.325C53.966-38.083,53.666-38.033,53.5-38.1z"/>
		<path style="fill-rule:evenodd;clip-rule:evenodd;fill:#C8DE5A;" d="M18.5-30.65l-0.3-0.25c-0.133,0.034-0.3,0-0.5-0.1
			c-0.233-0.133-0.383-0.2-0.45-0.2c-1.2-0.167-1.7,0.017-1.5,0.55c0.367,0.067,0.833,0.083,1.4,0.05
			C17.45-30.6,17.899-30.616,18.5-30.65z"/>
		<path style="fill-rule:evenodd;clip-rule:evenodd;fill:#C8DE5A;" d="M17.6-31.6l-0.1-0.15c-0.167-0.133-0.45-0.233-0.85-0.3
			c-0.433-0.066-0.733-0.117-0.9-0.15c-0.9-0.133-1.633-0.067-2.2,0.2c-0.067,0.267,0.083,0.4,0.45,0.4c0.2,0.033,0.467,0.033,0.8,0
			H17.6z"/>
		<path style="fill-rule:evenodd;clip-rule:evenodd;fill:#C8DE5A;" d="M16.3-32.6l-0.8-1c-0.966-0.167-1.783-0.3-2.45-0.4
			c-1.267-0.2-1.884-0.017-1.85,0.55c0.033,0.433,0.233,0.683,0.6,0.75c0.233,0.033,0.583,0.017,1.05-0.05
			C13.616-32.75,14.767-32.7,16.3-32.6z"/>
		<path style="fill-rule:evenodd;clip-rule:evenodd;fill:#C8DE5A;" d="M14.2-34.45l0.7-0.7c-1.033-0.267-2.283-0.35-3.75-0.25
			c-0.233-0.033-0.4-0.033-0.5,0c-0.2,0-0.267,0.1-0.2,0.3c0.033,0.133,0.317,0.233,0.85,0.3c0.3,0.066,0.616,0.117,0.95,0.15
			C13.35-34.583,14-34.517,14.2-34.45z"/>
		<path style="fill-rule:evenodd;clip-rule:evenodd;fill:#C8DE5A;" d="M16.3-35.15l0.35-0.15c0-0.2,0.017-0.667,0.05-1.4
			c-0.067-0.133-0.167-0.233-0.3-0.3c-0.2-0.066-0.35-0.05-0.45,0.05c-0.2,0.2-0.217,0.5-0.05,0.9
			C16.133-35.583,16.267-35.283,16.3-35.15z"/>
		<path style="fill-rule:evenodd;clip-rule:evenodd;fill:#C8DE5A;" d="M17.95-34.15l0.45,1.55c0.367-1.767,0.517-2.983,0.45-3.65
			c-0.566-0.1-0.883,0.083-0.95,0.55C17.933-35.066,17.95-34.55,17.95-34.15z"/>
		<path style="fill-rule:evenodd;clip-rule:evenodd;fill:#C8DE5A;" d="M19.1-32.6l1.05-0.4c0.733-1.033,1.083-1.966,1.05-2.8
			c-0.667-0.167-1.217,0.133-1.65,0.9C19.216-34.233,19.066-33.466,19.1-32.6z"/>
		<path style="fill-rule:evenodd;clip-rule:evenodd;fill:#C8DE5A;" d="M20.75-31.9l0.45,0.55c0.367-0.167,0.517-0.634,0.45-1.4
			c-0.233-0.066-0.45-0.017-0.65,0.15C20.767-32.4,20.683-32.167,20.75-31.9z"/>
		<path style="fill-rule:evenodd;clip-rule:evenodd;fill:#C8DE5A;" d="M8.149-32.6c-0.333-0.2-0.767-0.317-1.3-0.35
			c-0.633-0.034-0.967,0.133-1,0.5C5.783-31.716,6.333-31.3,7.5-31.2c0.233,0.033,0.55,0.066,0.95,0.1
			c0.333,0.066,0.633,0.2,0.9,0.4l1.05,1.2l-0.25-1.7c-0.267-0.067-0.6-0.284-1-0.65C8.683-32.25,8.35-32.5,8.149-32.6z"/>
		<path style="fill-rule:evenodd;clip-rule:evenodd;fill:#C8DE5A;" d="M4.95-31.2l0.45-0.55c-0.4-0.033-0.717-0.066-0.95-0.1
			c-0.467,0-0.767,0.083-0.9,0.25c0.133,0.167,0.35,0.25,0.65,0.25C4.566-31.35,4.816-31.3,4.95-31.2z"/>
		<path style="fill-rule:evenodd;clip-rule:evenodd;fill:#C8DE5A;" d="M27.6-33.15l-0.35-0.6c-0.633-0.633-1.167-0.9-1.6-0.8
			c-0.1,0.267-0.017,0.467,0.25,0.6l0.65,0.2L27.6-33.15z"/>
		<path style="fill-rule:evenodd;clip-rule:evenodd;fill:#C8DE5A;" d="M30.05-33.75L29.8-34.7c-0.3-0.467-0.55-0.767-0.75-0.9
			c-0.233-0.233-0.55-0.367-0.95-0.4c-0.6,0-0.917,0.083-0.95,0.25c0.267,0.367,0.733,0.717,1.4,1.05
			C29.316-34.267,29.816-33.95,30.05-33.75z"/>
		<path style="fill-rule:evenodd;clip-rule:evenodd;fill:#C8DE5A;" d="M41.3-36.25l1.15-1c-1.133,0.067-2.067,0.384-2.8,0.95
			l-0.6,0.55c-0.167,0.233-0.233,0.534-0.2,0.9c0.367,0.033,0.684-0.034,0.95-0.2C40.7-35.65,41.2-36.05,41.3-36.25z"/>
		<path style="fill-rule:evenodd;clip-rule:evenodd;fill:#C8DE5A;" d="M42.899-36.55c-0.5-0.1-0.85,0-1.05,0.3
			c0.2,0.233,0.517,0.25,0.95,0.05c0.233-0.133,0.55-0.333,0.95-0.6L42.899-36.55z"/>
		<path style="fill-rule:evenodd;clip-rule:evenodd;fill:#C8DE5A;" d="M46.2-36.55l0.9-1.7c-0.367,0-0.7,0.083-1,0.25
			c-0.367,0.2-0.533,0.5-0.5,0.9C45.6-36.6,45.8-36.417,46.2-36.55z"/>
		<path style="fill-rule:evenodd;clip-rule:evenodd;fill:#C8DE5A;" d="M47.55-36.95l1.2-0.6l-0.05-0.4
			c-0.3-0.034-0.617,0.033-0.95,0.2C47.35-37.55,47.283-37.283,47.55-36.95z"/>
		<path style="fill-rule:evenodd;clip-rule:evenodd;fill:#586818;" d="M32.1-27.35c0.6,0.333,0.917,0.767,0.95,1.3
			c0,0.833-0.717,1.417-2.15,1.75c-0.733,0.1-1.316,0.2-1.75,0.3c-0.8,0.167-1.316,0.367-1.55,0.6c-0.267,0.3-0.283,0.733-0.05,1.3
			c0.2,0.5,0.483,0.9,0.85,1.2c0.867,0.7,1.884,0.8,3.05,0.3c0.867-0.367,1.733-1.017,2.6-1.95c0.566-0.6,0.683-1.617,0.35-3.05
			c-0.133-0.634-0.333-1.1-0.6-1.4c-0.067-0.133-0.267-0.333-0.6-0.6c-0.267-0.233-0.433-0.434-0.5-0.6L30.55-28
			C30.816-27.866,31.333-27.65,32.1-27.35z"/>
		<path style="fill-rule:evenodd;clip-rule:evenodd;fill:#586818;" d="M41.399-27.65c0.267,0.867,0.4,1.5,0.4,1.9
			c-0.033,0.634-0.4,1.067-1.1,1.3c-0.967,0.167-1.733,0.316-2.3,0.45c-1.066,0.233-1.616,0.583-1.65,1.05
			c-0.1,1.6,0.784,2.466,2.65,2.6c0.567,0.033,1.267-0.034,2.1-0.2c0.9-0.167,1.583-0.367,2.05-0.6c0.533-0.3,1.05-0.867,1.55-1.7
			c0.467-0.833,0.667-1.534,0.6-2.1c-0.1-0.667-0.383-1.3-0.85-1.9c-0.3-0.367-0.816-0.833-1.55-1.4c-0.533-0.566-0.95-1-1.25-1.3
			c-0.567-0.7-1-1.066-1.3-1.1L35-28.7c0.733,0.1,1.833,0.05,3.3-0.15C40.066-29.083,41.1-28.683,41.399-27.65z"/>
		<path style="fill-rule:evenodd;clip-rule:evenodd;fill:#586818;" d="M20.899-8.2c1-0.5,1.684-1.534,2.05-3.1
			c0.233-1.133,0.367-1.816,0.4-2.05c0.1-0.7,0.066-1.384-0.1-2.05c-0.067-0.233-0.45-1.417-1.15-3.55c-0.066-0.233-0.25-1-0.55-2.3
			c-0.3-1.2-0.583-1.816-0.85-1.85l-1.8,0.6c-0.1,0.233-0.083,0.6,0.05,1.1c0.2,0.567,0.317,0.967,0.35,1.2
			c0.066,0.533,0.05,1.216-0.05,2.05c-0.267,2.133-0.767,4.067-1.5,5.8c-0.466,0.9-0.767,1.583-0.9,2.05
			c-0.267,0.833-0.2,1.533,0.2,2.1C17.716-7.267,19-7.267,20.899-8.2z"/>
		<path style="fill-rule:evenodd;clip-rule:evenodd;fill:#586818;" d="M53-34.75l-0.35-0.05c-0.433,0.8-0.25,1.566,0.55,2.3
			c0.833,0.733,1.65,0.9,2.45,0.5c0.033-0.533-0.267-1.116-0.9-1.75C54.149-34.383,53.566-34.716,53-34.75z"/>
		<path style="fill-rule:evenodd;clip-rule:evenodd;fill:#586818;" d="M56.399-35.05c0.134-0.233,0.4-0.533,0.8-0.9
			c0.3-0.367,0.417-0.733,0.35-1.1c-1.1,0.167-1.8,0.8-2.1,1.9L56.399-35.05z"/>
		<path style="fill-rule:evenodd;clip-rule:evenodd;fill:#586818;" d="M59.8-35.5v0.65c0.333,1.366,0.9,1.8,1.7,1.3
			c-0.1-0.367-0.35-0.717-0.75-1.05C60.25-35,59.933-35.3,59.8-35.5z"/>
		<path style="fill-rule:evenodd;clip-rule:evenodd;fill:#455210;" d="M21.25-15.85c-0.3-2.167-0.8-4.05-1.5-5.65
			c-0.333-0.8-0.65-1.383-0.95-1.75c-0.467-0.2-0.934-0.383-1.4-0.55c-0.9-0.367-1.283-0.45-1.15-0.25c2.833,4,3.3,8.283,1.4,12.85
			c-0.333,0.767-1.366,2.65-3.1,5.65c-1.2,2.1-1.7,3.367-1.5,3.8c0.733,1.5,2.217,1.117,4.45-1.15c1.4-1.433,2.45-3.283,3.15-5.55
			C21.383-10.883,21.583-13.35,21.25-15.85z"/>
		<path style="fill-rule:evenodd;clip-rule:evenodd;fill:#455210;" d="M6.399-15.2c-1.066,1.133-1.65,2.017-1.75,2.65
			c-0.133,0.733,0.134,1.383,0.8,1.95c0.767,0.667,1.783,0.85,3.05,0.55c1.433-0.333,3.183-1.583,5.25-3.75
			c2.1-2.167,3.383-4.066,3.85-5.7c0.434-1.366,0.45-2.633,0.05-3.8c-0.2-0.6-0.45-1.066-0.75-1.4c-0.1-0.434-0.417-0.65-0.95-0.65
			c-0.534,0-0.784,0.25-0.75,0.75c0.067,0.6-0.467,1.633-1.6,3.1c-1.2,1.6-2.417,2.75-3.65,3.45C8.683-17.316,7.5-16.366,6.399-15.2
			z"/>
		<path style="fill-rule:evenodd;clip-rule:evenodd;fill:#455210;" d="M25.6-15.25c0.167,1.1,0.7,1.817,1.6,2.15
			c1.067,0.366,2.283,0.366,3.65,0c1.566-0.434,2.833-1.25,3.8-2.45c0.967-1.233,1.25-2.85,0.85-4.85
			c-0.367-1.833-1.117-3.383-2.25-4.65c-0.867-0.934-2.333-1.6-4.4-2L26-27.35c3.067,1.333,5.05,2.8,5.95,4.4
			c0.7,1.267,0.733,2.25,0.1,2.95c-0.333,0.333-1.233,0.733-2.7,1.2c-1.6,0.5-2.6,0.883-3,1.15
			C25.649-17.15,25.399-16.35,25.6-15.25z"/>
		<path style="fill-rule:evenodd;clip-rule:evenodd;fill:#C8DE5A;" d="M24.3-18.5c0-0.5-0.117-1.2-0.35-2.1
			c-0.067-1.1-0.217-2.15-0.45-3.15c-0.4-1.6-0.917-2.333-1.55-2.2l-0.5,0.7c-0.233,0.4-0.267,1-0.1,1.8
			c0.033,0.167,0.2,0.767,0.5,1.8c0.333,1,0.65,1.733,0.95,2.2c0.433,0.9,0.75,1.4,0.95,1.5c0.3,0.167,0.467,0.2,0.5,0.1
			C24.283-17.917,24.3-18.133,24.3-18.5z"/>
		<path style="fill-rule:evenodd;clip-rule:evenodd;fill:#455210;" d="M41.1-30.5l-1.6-0.1c0.534,0.1,0.75,0.816,0.65,2.15l-1.65,1
			l0.25,1.15l-1.4,0.05l-0.2,3.25c-0.066,1.367,0.367,2.15,1.3,2.35c0.466,0.133,0.933,0.117,1.4-0.05L42-23.05
			c1.1-1.233,1.45-2.684,1.05-4.35C42.716-28.866,42.066-29.9,41.1-30.5z"/>
		<path style="fill-rule:evenodd;clip-rule:evenodd;fill:#455210;" d="M44.75-32.25l-1.45,0.5c-0.333,0.333-0.033,0.983,0.9,1.95
			c0.767,0.733,1.417,1.25,1.95,1.55c0.733,0.4,1.717,0.534,2.95,0.4c0.2-0.034,0.767-0.134,1.7-0.3c0.866-0.2,1.333-0.4,1.4-0.6
			c-0.3-0.233-0.733-0.5-1.3-0.8c-0.667-0.367-1.116-0.633-1.35-0.8c-0.233-0.134-0.583-0.434-1.05-0.9
			c-0.433-0.4-0.8-0.683-1.1-0.85C46.8-32.433,45.916-32.483,44.75-32.25z"/>
		<path style="fill-rule:evenodd;clip-rule:evenodd;fill:#C8DE5A;" d="M58.5-36.8c-1.267,0.333-1.883,0.95-1.85,1.85l0.8-0.05
			c0.133,0.3,0.517,0.3,1.15,0c0-0.1,0.066-0.183,0.2-0.25l0.75-0.3l1-0.65l0.05-0.1l0.8-0.4C60.633-37.133,59.666-37.167,58.5-36.8
			z"/>
		<path style="fill-rule:evenodd;clip-rule:evenodd;fill:#C8DE5A;" d="M61.55-35.3l0.85,0.2l0.7-0.15
			c0.733-0.333,1.066-0.783,1-1.35l-1.15,0.55C62.583-35.783,62.116-35.533,61.55-35.3z"/>
		
			<linearGradient id="SVGID_8_" gradientUnits="userSpaceOnUse" x1="2026.0669" y1="-17900.2148" x2="2034.7334" y2="-17900.2148" gradientTransform="matrix(-0.2221 -0.975 0.975 -0.2221 17938.6523 -2026.3633)">
			<stop  offset="0" style="stop-color:#677925"/>
			<stop  offset="1" style="stop-color:#C0DC54"/>
		</linearGradient>
		<path style="fill-rule:evenodd;clip-rule:evenodd;fill:url(#SVGID_8_);" d="M50.6-34.8c-9.533,2.367-16.417,4.033-20.65,5
			c-2.534,0.566-6.383,1.017-11.55,1.35c-5.833,0.4-8.866,0.617-9.1,0.65c-1.3,0.2-2.7,0.333-4.2,0.4l-1.9,0.05
			c-0.567,0.833-0.833,1.517-0.8,2.05c0,0.267-0.1,0.617-0.3,1.05c-0.2,0.4-0.267,0.717-0.2,0.95c0.134,0.633,0.434,1.517,0.9,2.65
			c0.133,0.267,0.333,0.483,0.6,0.65c0.3,0.2,0.517,0.384,0.65,0.55c0.3,0.367,0.55,0.566,0.75,0.6l5.45-2.1
			c4.333-1.567,8.25-2.667,11.75-3.3c3.4-0.6,8.717-2.116,15.95-4.55c3.767-1.267,8.15-2.767,13.15-4.5
			c3.167-0.934,6.9-1.434,11.2-1.5c2.167-0.066,4-0.017,5.5,0.15c-2.067-0.633-4.783-0.966-8.15-1
			C56.25-35.683,53.233-35.4,50.6-34.8z"/>
		
			<linearGradient id="SVGID_9_" gradientUnits="userSpaceOnUse" x1="-1597.4902" y1="-2023.6216" x2="-1582.2859" y2="-2023.6216" gradientTransform="matrix(0.9751 -0.222 0.222 0.9751 2016.9253 1607.748)">
			<stop  offset="0" style="stop-color:#677925"/>
			<stop  offset="1" style="stop-color:#C0DC54"/>
		</linearGradient>
		<path style="fill-rule:evenodd;clip-rule:evenodd;fill:url(#SVGID_9_);" d="M21.75-15.55c-0.3-2.267-0.817-4.217-1.55-5.85
			c-0.333-0.833-0.65-1.433-0.95-1.8c-0.466-0.233-0.933-0.434-1.4-0.6c-0.934-0.367-1.333-0.45-1.2-0.25
			c1.533,2.233,2.384,4.6,2.55,7.1c0.133,2.1-0.233,4.167-1.1,6.2C17.767-9.95,16.733-8,15-4.9c-1.233,2.2-1.733,3.517-1.5,3.95
			c0.767,1.566,2.267,1.167,4.5-1.2c1.4-1.466,2.45-3.383,3.15-5.75C21.916-10.4,22.116-12.95,21.75-15.55z"/>
		
			<linearGradient id="SVGID_10_" gradientUnits="userSpaceOnUse" x1="-1601.9531" y1="-2030.7393" x2="-1588.1073" y2="-2030.7393" gradientTransform="matrix(0.975 -0.2221 0.2221 0.975 2018.0581 1608.4609)">
			<stop  offset="0" style="stop-color:#677925"/>
			<stop  offset="1" style="stop-color:#C0DC54"/>
		</linearGradient>
		<path style="fill-rule:evenodd;clip-rule:evenodd;fill:url(#SVGID_10_);" d="M6.649-14.95c-1.066,1.167-1.65,2.1-1.75,2.8
			c-0.133,0.767,0.134,1.45,0.8,2.05c0.767,0.667,1.817,0.85,3.15,0.55c1.434-0.367,3.2-1.65,5.3-3.85
			c2.134-2.233,3.434-4.2,3.9-5.9c0.433-1.434,0.433-2.767,0-4c-0.2-0.6-0.45-1.066-0.75-1.4c-0.1-0.467-0.417-0.7-0.95-0.7
			c-0.566,0-0.833,0.267-0.8,0.8c0.066,0.6-0.467,1.667-1.6,3.2c-1.2,1.633-2.417,2.817-3.65,3.55
			C9-17.083,7.783-16.116,6.649-14.95z"/>
		
			<linearGradient id="SVGID_11_" gradientUnits="userSpaceOnUse" x1="-1575.1865" y1="-2019.5464" x2="-1563.0872" y2="-2019.5464" gradientTransform="matrix(0.9753 -0.2211 0.2211 0.9753 2007.9927 1602.1299)">
			<stop  offset="0" style="stop-color:#677925"/>
			<stop  offset="1" style="stop-color:#C0DC54"/>
		</linearGradient>
		<path style="fill-rule:evenodd;clip-rule:evenodd;fill:url(#SVGID_11_);" d="M26.149-14.9c0.2,1.167,0.767,1.917,1.7,2.25
			c1.066,0.4,2.3,0.4,3.7,0c1.566-0.4,2.833-1.233,3.8-2.5c1-1.267,1.283-2.95,0.85-5.05c-0.367-1.9-1.133-3.5-2.3-4.8
			c-0.866-0.966-2.35-1.667-4.45-2.1l-2.9-0.35c3.1,1.4,5.116,2.95,6.05,4.65c0.7,1.267,0.733,2.267,0.1,3
			c-0.3,0.367-1.2,0.783-2.7,1.25c-1.667,0.533-2.7,0.934-3.1,1.2C26.2-16.85,25.95-16.033,26.149-14.9z"/>
		
			<linearGradient id="SVGID_12_" gradientUnits="userSpaceOnUse" x1="2022.7871" y1="-17914.5742" x2="2031.5488" y2="-17914.5742" gradientTransform="matrix(-0.2224 -0.975 0.975 -0.2224 17940.168 -2028.7754)">
			<stop  offset="0" style="stop-color:#677925"/>
			<stop  offset="1" style="stop-color:#C0DC54"/>
		</linearGradient>
		<path style="fill-rule:evenodd;clip-rule:evenodd;fill:url(#SVGID_12_);" d="M24.8-17.6c0.033-0.034,0.05-0.25,0.05-0.65
			c0-0.5-0.117-1.233-0.35-2.2c-0.433-3.934-1.133-5.784-2.1-5.55l-0.45,0.75c-0.233,0.434-0.267,1.05-0.1,1.85
			c0.033,0.233,0.2,0.85,0.5,1.85s0.617,1.767,0.95,2.3c0.467,0.9,0.8,1.417,1,1.55C24.6-17.533,24.767-17.5,24.8-17.6z"/>
		
			<linearGradient id="SVGID_13_" gradientUnits="userSpaceOnUse" x1="-1568.3867" y1="-2032.3105" x2="-1561.1818" y2="-2032.3105" gradientTransform="matrix(0.975 -0.2221 0.2221 0.975 2017.873 1608.3447)">
			<stop  offset="0" style="stop-color:#677925"/>
			<stop  offset="1" style="stop-color:#C0DC54"/>
		</linearGradient>
		<path style="fill-rule:evenodd;clip-rule:evenodd;fill:url(#SVGID_13_);" d="M39.25-27.45l0.25,1.2h-1.4l-0.2,3.4
			c-0.066,1.4,0.367,2.216,1.3,2.45c0.466,0.1,0.95,0.067,1.45-0.1l2.15-2.4c1.1-1.167,1.45-2.667,1.05-4.5
			c-0.333-1.5-1-2.566-2-3.2c-0.4-0.034-0.767-0.067-1.1-0.1c-0.7-0.067-0.867-0.067-0.5,0c0.534,0.066,0.75,0.8,0.65,2.2
			L39.25-27.45z"/>
		
			<linearGradient id="SVGID_14_" gradientUnits="userSpaceOnUse" x1="3035.1226" y1="2117.7871" x2="3042.7119" y2="2117.7871" gradientTransform="matrix(0.9487 0.3162 -0.3162 0.9487 -2164.4697 -2999.9419)">
			<stop  offset="0" style="stop-color:#677925"/>
			<stop  offset="1" style="stop-color:#C0DC54"/>
		</linearGradient>
		<path style="fill-rule:evenodd;clip-rule:evenodd;fill:url(#SVGID_14_);" d="M45.6-32.4l-1.5,0.5c-0.333,0.333-0.017,1,0.95,2
			c0.733,0.733,1.383,1.284,1.95,1.65c0.833,0.467,1.833,0.6,3,0.4c1.967-0.167,3.017-0.467,3.15-0.9
			c-0.3-0.267-0.733-0.55-1.3-0.85c-0.667-0.367-1.117-0.634-1.35-0.8c-0.933-0.9-1.683-1.517-2.25-1.85
			C47.649-32.583,46.767-32.633,45.6-32.4z"/>
		
			<linearGradient id="SVGID_15_" gradientUnits="userSpaceOnUse" x1="2003.561" y1="-17861.3633" x2="2006.4055" y2="-17861.3633" gradientTransform="matrix(-0.2197 -0.9756 0.9756 -0.2197 17923.5176 -2002.3364)">
			<stop  offset="0" style="stop-color:#677925"/>
			<stop  offset="1" style="stop-color:#C0DC54"/>
		</linearGradient>
		<path style="fill-rule:evenodd;clip-rule:evenodd;fill:url(#SVGID_15_);" d="M57.45-34.8l-1.15-0.05c0.2,0.8,0.4,1.35,0.6,1.65
			c0.333,0.466,0.833,0.7,1.5,0.7c0.634,0,1.033-0.083,1.2-0.25L59.85-33c-0.066-0.1-0.167-0.216-0.3-0.35
			c-0.167-0.233-0.517-0.483-1.05-0.75C57.966-34.433,57.616-34.667,57.45-34.8z"/>
		
			<linearGradient id="SVGID_16_" gradientUnits="userSpaceOnUse" x1="1991.7124" y1="-17849.9375" x2="1993.6593" y2="-17849.9375" gradientTransform="matrix(-0.2183 -0.9759 0.9759 -0.2183 17914.459 -1988.0215)">
			<stop  offset="0" style="stop-color:#677925"/>
			<stop  offset="1" style="stop-color:#C0DC54"/>
		</linearGradient>
		<path style="fill-rule:evenodd;clip-rule:evenodd;fill:url(#SVGID_16_);" d="M58.45-35.2c0.233,0.4,0.883,0.267,1.95-0.4
			c1.3-0.867,1.983-1.3,2.05-1.3c-0.7-0.466-1.667-0.533-2.9-0.2c-1.3,0.4-1.934,1.05-1.9,1.95L58.45-35.2z"/>
		
			<linearGradient id="SVGID_17_" gradientUnits="userSpaceOnUse" x1="2060.1572" y1="-17893.3477" x2="2063.2622" y2="-17893.3477" gradientTransform="matrix(-0.2254 -0.9743 0.9743 -0.2254 17959.5684 -2059.7827)">
			<stop  offset="0" style="stop-color:#677925"/>
			<stop  offset="1" style="stop-color:#C0DC54"/>
		</linearGradient>
		<path style="fill-rule:evenodd;clip-rule:evenodd;fill:url(#SVGID_17_);" d="M62.1-35.2l-2.15-0.3c0,0.367,0.5,0.733,1.5,1.1
			c1.067,0.367,1.667,0.8,1.8,1.3c0.3,0.033,0.534-0.083,0.7-0.35c0.167-0.233,0.167-0.483,0-0.75c-0.1-0.167-0.383-0.35-0.85-0.55
			C62.533-34.983,62.2-35.133,62.1-35.2z"/>
		
			<linearGradient id="SVGID_18_" gradientUnits="userSpaceOnUse" x1="2079.9854" y1="-17902.5586" x2="2081.5256" y2="-17902.5586" gradientTransform="matrix(-0.2272 -0.9738 0.9738 -0.2272 17970.7285 -2077.7197)">
			<stop  offset="0" style="stop-color:#677925"/>
			<stop  offset="1" style="stop-color:#C0DC54"/>
		</linearGradient>
		<path style="fill-rule:evenodd;clip-rule:evenodd;fill:url(#SVGID_18_);" d="M63.7-35.25c0.433-0.066,0.833-0.283,1.2-0.65
			c0.367-0.433,0.45-0.85,0.25-1.25c-0.433,0.034-0.967,0.284-1.6,0.75c-0.634,0.467-1.15,0.717-1.55,0.75L63.7-35.25z"/>
		<path style="fill-rule:evenodd;clip-rule:evenodd;fill:#C8DE5A;" d="M64.7-35.35c1.367-0.067,2.716-0.067,4.05,0
			c0-0.3-0.083-0.517-0.25-0.65c-0.167-0.066-0.4-0.066-0.7,0c-0.4,0.1-0.634,0.15-0.7,0.15l-0.1-0.2
			C65.899-36.05,65.133-35.816,64.7-35.35z"/>
		
			<linearGradient id="SVGID_19_" gradientUnits="userSpaceOnUse" x1="2068.6216" y1="-17894.5527" x2="2071.1626" y2="-17894.5527" gradientTransform="matrix(-0.2263 -0.9741 0.9741 -0.2263 17964.8887 -2068.3232)">
			<stop  offset="0" style="stop-color:#677925"/>
			<stop  offset="1" style="stop-color:#C0DC54"/>
		</linearGradient>
		<path style="fill-rule:evenodd;clip-rule:evenodd;fill:url(#SVGID_19_);" d="M67.25-35.25c0.2-0.433,0.1-0.8-0.3-1.1
			c-0.133-0.1-0.417-0.1-0.85,0c-0.333,0.1-0.617,0.216-0.85,0.35c-0.233,0.2-0.367,0.467-0.4,0.8c-0.066,0.3-0.017,0.6,0.15,0.9
			c0.333,0.566,0.983,0.684,1.95,0.35c0.033-0.233-0.034-0.417-0.2-0.55c-0.161-0.096-0.344-0.113-0.55-0.05l0.15-0.05
			C66.783-34.633,67.083-34.85,67.25-35.25z"/>
		
			<linearGradient id="SVGID_20_" gradientUnits="userSpaceOnUse" x1="2036.8149" y1="-17872.875" x2="2040.1729" y2="-17872.875" gradientTransform="matrix(-0.2232 -0.9748 0.9748 -0.2232 17945.6328 -2037.4907)">
			<stop  offset="0" style="stop-color:#677925"/>
			<stop  offset="1" style="stop-color:#C0DC54"/>
		</linearGradient>
		<path style="fill-rule:evenodd;clip-rule:evenodd;fill:url(#SVGID_20_);" d="M65.75-33.8c0.067,0.566,0.583,0.867,1.55,0.9
			c0.967,0.067,1.316-0.167,1.05-0.7c0.066,0,0.55,0.05,1.45,0.15c0.1-0.2,0.083-0.367-0.05-0.5c0.767,0.066,1.217,0.083,1.35,0.05
			c0.566-0.033,0.85-0.267,0.85-0.7c-0.034-0.434-0.317-0.634-0.85-0.6c-0.667,0.133-1.1,0.216-1.3,0.25
			c0.167-0.633,0.133-1.034-0.1-1.2c-0.167-0.1-0.4-0.117-0.7-0.05c-0.333,0.1-0.567,0.167-0.7,0.2l-0.1-0.25
			c-1.467,0-2.367,0.4-2.7,1.2L65.75-33.8z"/>
		<path style="fill-rule:evenodd;clip-rule:evenodd;fill:#805740;" d="M68.5-32.75c0.034-0.066-0.017-0.35-0.15-0.85
			c0-0.067-0.133-0.3-0.4-0.7c-0.2-0.233-0.483-0.434-0.85-0.6c-0.434-0.2-0.767-0.35-1-0.45l-0.4,0.2
			c0.167,0.1,0.333,0.367,0.5,0.8c0.267,0.5,0.466,0.816,0.6,0.95c0.233,0.367,0.467,0.617,0.7,0.75c0.133,0.067,0.3,0.1,0.5,0.1
			C68.267-32.583,68.433-32.65,68.5-32.75z"/>
		<path style="fill-rule:evenodd;clip-rule:evenodd;fill:#805740;" d="M65.95-35.4L67-35.6c0.467-0.1,0.983-0.333,1.55-0.7
			c0.366-0.267,0.55-0.45,0.55-0.55c0.1-0.434-0.167-0.6-0.8-0.5c-0.367,0.066-0.767,0.383-1.2,0.95
			C66.67-35.805,66.286-35.472,65.95-35.4z"/>
		<path style="fill-rule:evenodd;clip-rule:evenodd;fill:#805740;" d="M69-34.95l-1-0.2l0.65,0.85c0.233,0.367,0.467,0.633,0.7,0.8
			c0.4,0.4,0.733,0.5,1,0.3c0.267-0.2,0.167-0.534-0.3-1C69.649-34.566,69.3-34.816,69-34.95z"/>
		<path style="fill-rule:evenodd;clip-rule:evenodd;fill:#805740;" d="M69.55-35.4l-0.45,0.2c0.434,0.133,0.684,0.2,0.75,0.2
			l0.55-0.1c0.134-0.034,0.317-0.083,0.55-0.15c0.2-0.066,0.317-0.2,0.35-0.4c0.066-0.367-0.184-0.483-0.75-0.35
			C70.017-35.833,69.683-35.633,69.55-35.4z"/>
		<path style="fill-rule:evenodd;clip-rule:evenodd;fill:#805740;" d="M71.85-34.5l-1.55-0.3l0.75,0.9
			c0.533,0.333,1.05,0.483,1.55,0.45c0.4-0.1,0.5-0.333,0.3-0.7C72.733-34.517,72.383-34.633,71.85-34.5z"/>
		<path style="fill-rule:evenodd;clip-rule:evenodd;fill:#60402F;" d="M72.45-34.3l-0.05-0.3c-1-0.233-1.683-0.267-2.05-0.1
			c0,0.167,0.133,0.333,0.4,0.5c0.2,0.133,0.383,0.216,0.55,0.25c0.2,0.066,0.417,0.05,0.65-0.05c0.133-0.033,0.317-0.1,0.55-0.2
			L72.45-34.3z"/>
		<path style="fill-rule:evenodd;clip-rule:evenodd;fill:#60402F;" d="M68.85-34.6L70-33.95c-0.233-0.534-0.517-0.85-0.85-0.95
			l-0.95-0.3L68-35.1c-0.033,0.133,0.067,0.233,0.3,0.3C68.433-34.733,68.616-34.667,68.85-34.6z"/>
		<path style="fill-rule:evenodd;clip-rule:evenodd;fill:#60402F;" d="M70.6-35.9l-0.25,0.25c-0.533,0.067-0.917,0.15-1.15,0.25
			c-0.233,0.133-0.417,0.233-0.55,0.3l-0.45,0.15c0.4,0.167,0.817,0.133,1.25-0.1C70.183-35.417,70.566-35.7,70.6-35.9z"/>
		<path style="fill-rule:evenodd;clip-rule:evenodd;fill:#60402F;" d="M68.2-36.95v-0.45c-0.233,0.067-0.45,0.233-0.65,0.5
			c-0.233,0.3-0.417,0.517-0.55,0.65c-0.233,0.2-0.4,0.35-0.5,0.45c-0.233,0.233-0.283,0.45-0.15,0.65
			c0.434-0.033,0.816-0.283,1.15-0.75C67.933-36.466,68.166-36.816,68.2-36.95z"/>
		<path style="fill-rule:evenodd;clip-rule:evenodd;fill:#60402F;" d="M66.75-35.1l-0.65-0.05c0.066,0.333,0.333,0.633,0.8,0.9
			s0.85,0.3,1.15,0.1c-0.1-0.233-0.283-0.466-0.55-0.7C67.166-35.116,66.916-35.2,66.75-35.1z"/>
		<path style="fill-rule:evenodd;clip-rule:evenodd;fill:#C98A69;" d="M68.899-36.75l-0.15-0.2c-0.333,0.167-0.55,0.316-0.65,0.45
			c-0.267,0.267-0.383,0.467-0.35,0.6c0.1-0.066,0.333-0.183,0.7-0.35C68.783-36.45,68.933-36.616,68.899-36.75z"/>
		<path style="fill-rule:evenodd;clip-rule:evenodd;fill:#C98A69;" d="M68.3-33.15L68-33.7c-0.267,0.066-0.417,0.117-0.45,0.15
			c-0.1,0.066-0.117,0.217-0.05,0.45c0.1,0.267,0.267,0.4,0.5,0.4C68.233-32.667,68.333-32.816,68.3-33.15z"/>
		<path style="fill-rule:evenodd;clip-rule:evenodd;fill:#C98A69;" d="M70.399-33.35l-0.3-0.5c-0.033,0-0.2,0.033-0.5,0.1
			c0.033,0.3,0.117,0.5,0.25,0.6C70.017-33.017,70.2-33.083,70.399-33.35z"/>
		<path style="fill-rule:evenodd;clip-rule:evenodd;fill:#C98A69;" d="M72.7-33.6l0.05-0.3c-0.067-0.066-0.216-0.033-0.45,0.1
			l0.1,0.45C72.7-33.35,72.8-33.433,72.7-33.6z"/>
		<path style="fill-rule:evenodd;clip-rule:evenodd;fill:#C98A69;" d="M69.2-35.1l-0.35-0.2c-0.133-0.233-0.467-0.267-1-0.1
			c0.066,0.534,0.25,0.784,0.55,0.75c0.134-0.033,0.267-0.117,0.4-0.25C68.966-35.033,69.1-35.1,69.2-35.1z"/>
		<path style="fill-rule:evenodd;clip-rule:evenodd;fill:#455210;" d="M20.899-9.8c0.934-1.967,1.217-3.883,0.85-5.75
			c-0.533-2.934-1.067-4.9-1.6-5.9l-0.75,0.3c0.634,1.034,1.117,2.4,1.45,4.1c0.633,3.333,0.167,6.566-1.4,9.7L20.899-9.8z"/>
		<path style="fill-rule:evenodd;clip-rule:evenodd;fill:#455210;" d="M23.7-24.3l-0.8-0.85c0.2,0.9,0.3,1.583,0.3,2.05
			c0,0.033-0.083,0.3-0.25,0.8c-0.133,0.4-0.133,0.667,0,0.8c0.3-0.733,0.583-1.1,0.85-1.1c0.133,0.767,0.267,1.316,0.4,1.65
			c0.033-0.067,0-0.4-0.1-1C23.866-22.85,23.733-23.633,23.7-24.3z"/>
		<path style="fill-rule:evenodd;clip-rule:evenodd;fill:#455210;" d="M47.05-29.35c0-0.1-0.067-0.384-0.2-0.85
			c-0.1-0.4-0.066-0.617,0.1-0.65c0.067-0.034,0.317,0.167,0.75,0.6c0.8,0.467,1.567,0.7,2.3,0.7c-0.067-0.066-0.65-0.4-1.75-1
			c-0.833-0.434-1.25-0.867-1.25-1.3c0.267-0.034,0.534-0.134,0.8-0.3c-0.967,0.333-1.467,0.284-1.5-0.15l-0.65-0.2
			c0.367,0.867,0.617,1.517,0.75,1.95c0.1,0.3,0.184,0.533,0.25,0.7C46.75-29.583,46.883-29.417,47.05-29.35z"/>
		<path style="fill-rule:evenodd;clip-rule:evenodd;fill:#455210;" d="M57.5-34.85l-0.3,0.3c0.067,0.3,0.183,0.566,0.35,0.8
			c0.233,0.3,0.467,0.384,0.7,0.25C57.816-33.9,57.566-34.35,57.5-34.85z"/>
		<path style="fill-rule:evenodd;clip-rule:evenodd;fill:#455210;" d="M58.55-34.85c0.1-0.3,0.566-0.684,1.4-1.15
			c-0.633,0.1-1.083,0.167-1.35,0.2c-0.467,0.1-0.8,0.367-1,0.8L58.55-34.85z"/>
		<path style="fill-rule:evenodd;clip-rule:evenodd;fill:#455210;" d="M40.5-23.2l1.05-0.75c0.767-0.667,1.3-1.383,1.6-2.15
			c0.333-0.767,0.384-1.534,0.15-2.3c-0.1-0.4-0.25-0.8-0.45-1.2c0.167,0.4,0.2,1.017,0.1,1.85C42.75-26.05,41.933-24.533,40.5-23.2
			z"/>
		<path style="fill-rule:evenodd;clip-rule:evenodd;fill:#455210;" d="M31-15.6c3.567-0.7,5.267-2.233,5.1-4.6
			c-0.066-1.167-0.5-2.267-1.3-3.3c0.866,1.267,1.15,2.65,0.85,4.15c-0.2,0.9-1.033,1.8-2.5,2.7L31-15.6z"/>
		
			<linearGradient id="SVGID_21_" gradientUnits="userSpaceOnUse" x1="-1602.7813" y1="-2040.1553" x2="-1586.3702" y2="-2040.1553" gradientTransform="matrix(0.975 -0.2224 0.2224 0.975 2021.2852 1610.4873)">
			<stop  offset="0" style="stop-color:#67791E"/>
			<stop  offset="1" style="stop-color:#CAE55B"/>
		</linearGradient>
		<path style="fill-rule:evenodd;clip-rule:evenodd;fill:url(#SVGID_21_);" d="M23.95-26.2c-0.233-1.067-1.15-1.717-2.75-1.95
			c-1.1-0.167-2.183-0.117-3.25,0.15c-0.133,0.034-1.534,0.083-4.2,0.15C11.216-27.783,9.3-27.566,8-27.2c-1.4,0.4-2,1.2-1.8,2.4
			c0.567,1.5,0.966,2.65,1.2,3.45c0.367,1.2,1.233,1.866,2.6,2c1.4,0.133,3.733-0.25,7-1.15c2.933-0.8,4.95-1.783,6.05-2.95
			C23.883-24.316,24.183-25.233,23.95-26.2z"/>
		<path style="fill-rule:evenodd;clip-rule:evenodd;fill:#455210;" d="M12.6-23.8h1.8c1.467-0.066,2.817-0.217,4.05-0.45
			c1.966-0.4,3.8-1.05,5.5-1.95C23.149-26.566,19.366-25.767,12.6-23.8z"/>
		<path style="fill-rule:evenodd;clip-rule:evenodd;fill:#C8DE5A;" d="M11.85-21.1c0,0.533,0.283,0.8,0.85,0.8
			c0.8-0.066,1.433-0.35,1.9-0.85l0.4-0.7c0-0.034,0.034-0.25,0.1-0.65c0.066-0.3,0.133-0.483,0.2-0.55l-0.25-0.1
			c-0.434,0.167-0.767,0.267-1,0.3l-0.45,0.1c-0.4,0.134-0.767,0.35-1.1,0.65C12.033-21.633,11.816-21.3,11.85-21.1z"/>
		<path style="fill-rule:evenodd;clip-rule:evenodd;fill:#CAE15B;" d="M18.149-22.8L18-23.4c-0.4,0.2-0.716,0.333-0.95,0.4
			l-0.65,0.35c-0.267,0.233-0.45,0.483-0.55,0.75c-0.133,0.367-0.066,0.667,0.2,0.9c0.133,0.134,0.383,0.15,0.75,0.05
			c0.3-0.1,0.533-0.233,0.7-0.4C18.066-21.85,18.283-22.333,18.149-22.8z"/>
		<path style="fill-rule:evenodd;clip-rule:evenodd;fill:#E3FC67;" d="M21.6-23.7l-0.55-0.5c-0.167,0.033-0.317,0.1-0.45,0.2
			c-0.2,0.2-0.316,0.317-0.35,0.35l-0.5,0.45c-0.5,0.633-0.5,0.95,0,0.95C20.35-22.216,20.966-22.7,21.6-23.7z"/>
		<path style="fill-rule:evenodd;clip-rule:evenodd;fill:#E3FC67;" d="M23.55-24.45l-0.1-1.25c-0.034,0.133-0.25,0.483-0.65,1.05
			c-0.3,0.434-0.384,0.784-0.25,1.05c0.233,0,0.45-0.083,0.65-0.25C23.399-24.017,23.517-24.216,23.55-24.45z"/>
		<path style="fill-rule:evenodd;clip-rule:evenodd;fill:#E3FC67;" d="M23.149-26.65l-0.2-0.5c-0.367-0.433-0.817-0.566-1.35-0.4
			c-0.4,0.066-0.517,0.217-0.35,0.45c0.233,0.233,0.534,0.417,0.9,0.55C22.616-26.383,22.95-26.417,23.149-26.65z"/>
		<path style="fill-rule:evenodd;clip-rule:evenodd;fill:#E3FC67;" d="M20.25-26.45l-0.6-0.45c-0.167-0.133-0.433-0.2-0.8-0.2
			c-0.4-0.034-0.684,0.033-0.85,0.2c-0.133,0.133-0.15,0.284-0.05,0.45s0.233,0.283,0.4,0.35c0.4,0.167,0.767,0.25,1.1,0.25
			C19.916-25.85,20.183-26.05,20.25-26.45z"/>
		<path style="fill-rule:evenodd;clip-rule:evenodd;fill:#CAE15B;" d="M17.149-26l-0.5-0.45c-0.433-0.467-0.85-0.717-1.25-0.75
			l-0.55,0.05c-0.533,0.1-0.684,0.4-0.45,0.9c0.167,0.3,0.767,0.6,1.8,0.9C16.833-25.15,17.149-25.366,17.149-26z"/>
		<path style="fill-rule:evenodd;clip-rule:evenodd;fill:#C8DE5A;" d="M14.3-24.7l-0.45-1.2c-0.2-0.667-0.75-0.933-1.65-0.8
			c-0.5,0.066-0.867,0.183-1.1,0.35l-0.7,0.55c0.134,0.434,0.367,0.717,0.7,0.85c0.133,0.066,0.533,0.167,1.2,0.3
			C12.899-24.55,13.566-24.566,14.3-24.7z"/>
		<path style="fill-rule:evenodd;clip-rule:evenodd;fill:#C8DE5A;" d="M9.5-14.75c0.133,0.034,0.35,0.017,0.65-0.05
			c0.3-0.1,0.5-0.117,0.6-0.05c-0.367,0.466-0.533,0.783-0.5,0.95c0.233-0.033,0.683-0.267,1.35-0.7l1.65-1.05
			c0.534-0.4,0.867-0.667,1-0.8l0.9-0.75c0.1-0.133,0.3-0.35,0.6-0.65c0.233-0.3,0.367-0.567,0.4-0.8l0.25-1.3
			c-0.133,0.233-0.4,0.45-0.8,0.65c-0.5,0.2-0.833,0.35-1,0.45l-1.35,0.6c-0.6,0.233-0.917,0.417-0.95,0.55
			c-0.033,0.267,0.183,0.45,0.65,0.55c-0.167,0.133-0.417,0.233-0.75,0.3c-0.433,0.1-0.7,0.167-0.8,0.2l-0.9,0.4
			c-0.433,0.167-0.733,0.35-0.9,0.55C9.166-15.2,9.133-14.883,9.5-14.75z"/>
		<path style="fill-rule:evenodd;clip-rule:evenodd;fill:#C8DE5A;" d="M9.1-12.95l0.45-0.35c-0.6,0.033-1.134,0.1-1.6,0.2
			C6.983-12.9,6.666-12.65,7-12.35c0.067,0.066,0.35,0.033,0.85-0.1C8.017-12.483,8.433-12.65,9.1-12.95z"/>
		<path style="fill-rule:evenodd;clip-rule:evenodd;fill:#C8DE5A;" d="M19.45-8.15c0.233-0.433,0.483-0.683,0.75-0.75l0.5-1.65
			c0.133-0.367,0.216-0.867,0.25-1.5C20.983-12.383,21-12.9,21-13.6c0.067-0.4,0.083-0.733,0.05-1
			c-0.134-0.767-0.283-1.367-0.45-1.8c-0.167,0.167-0.217,0.467-0.15,0.9c0.133,0.434,0.2,0.733,0.2,0.9
			c-0.1,0.633-0.167,1.083-0.2,1.35c-0.034,0.3-0.3,0.833-0.8,1.6c-0.366,0.467-0.467,0.833-0.3,1.1h0.2
			c-1,0.633-1.367,1.283-1.1,1.95l0.2-0.05c0.167,0.233-0.05,0.867-0.65,1.9c-0.466,1.067-0.85,1.85-1.15,2.35
			c0.2-0.033,0.583-0.466,1.15-1.3l0.9-1.4C19.033-7.3,19.216-7.65,19.45-8.15z"/>
		<path style="fill-rule:evenodd;clip-rule:evenodd;fill:#C8DE5A;" d="M24-20.5l-0.75-1.15c0.3,2.1,0.633,3.017,1,2.75l-0.15-0.65
			L24-20.5z"/>
		<path style="fill-rule:evenodd;clip-rule:evenodd;fill:#C8DE5A;" d="M33.95-17.5l0.25-0.7c-0.233-0.1-0.75-0.067-1.55,0.1
			c-0.333,0.033-0.583,0.066-0.75,0.1c-0.366,0.1-0.533,0.25-0.5,0.45c0.067,0.367,0.45,0.5,1.15,0.4
			C32.916-17.216,33.383-17.333,33.95-17.5z"/>
		<path style="fill-rule:evenodd;clip-rule:evenodd;fill:#C8DE5A;" d="M35.25-19.55l-0.35-0.35c-0.167-0.066-0.45-0.017-0.85,0.15
			c-0.4,0.134-0.583,0.3-0.55,0.5c0,0.167,0.083,0.233,0.25,0.2c0.1,0,0.25-0.033,0.45-0.1c0.067-0.033,0.267-0.066,0.6-0.1
			C35.1-19.316,35.25-19.417,35.25-19.55z"/>
		<path style="fill-rule:evenodd;clip-rule:evenodd;fill:#C8DE5A;" d="M35-21.35l-0.15-0.35c-0.6,0.167-0.783,0.367-0.55,0.6
			c0.066,0.066,0.2,0.066,0.4,0C34.899-21.133,35-21.216,35-21.35z"/>
		<path style="fill-rule:evenodd;clip-rule:evenodd;fill:#C8DE5A;" d="M33.75-14.7c0.367-0.034,0.617-0.2,0.75-0.5
			c0.067-0.167,0.15-0.467,0.25-0.9l-0.2-0.5c-0.267,0.366-0.467,0.733-0.6,1.1C33.75-15.066,33.683-14.8,33.75-14.7z"/>
		<path style="fill-rule:evenodd;clip-rule:evenodd;fill:#C8DE5A;" d="M32.649-15.15l-0.3,0.3c-0.633,0.4-0.967,0.616-1,0.65
			c-0.367,0.333-0.483,0.667-0.35,1c0.467-0.034,0.833-0.267,1.1-0.7C32.233-14.133,32.416-14.55,32.649-15.15z"/>
		<path style="fill-rule:evenodd;clip-rule:evenodd;fill:#C8DE5A;" d="M40.7-24.35l-0.4-0.15c-0.6-0.433-1.184-0.417-1.75,0.05
			l0.2,0.9C39.883-23.65,40.533-23.917,40.7-24.35z"/>
		<path style="fill-rule:evenodd;clip-rule:evenodd;fill:#C8DE5A;" d="M41.899-25.8l-0.2-0.45c-0.2-0.333-0.45-0.466-0.75-0.4
			c-0.333,0.133-0.6,0.233-0.8,0.3c0.067,0.533,0.167,0.866,0.3,1c0.2,0.133,0.466,0.15,0.8,0.05S41.8-25.566,41.899-25.8z"/>
		<path style="fill-rule:evenodd;clip-rule:evenodd;fill:#C8DE5A;" d="M42.7-28.15l-0.3-1.25c-0.4,0.1-0.633,0.467-0.7,1.1
			s0.05,1.1,0.35,1.4c0.267-0.167,0.45-0.333,0.55-0.5C42.666-27.533,42.7-27.783,42.7-28.15z"/>
		<path style="fill-rule:evenodd;clip-rule:evenodd;fill:#C8DE5A;" d="M44.05-25.35l-0.4-1.3c-0.467,0.767-0.5,1.684-0.1,2.75
			C43.816-24.1,43.983-24.583,44.05-25.35z"/>
		<path style="fill-rule:evenodd;clip-rule:evenodd;fill:#C8DE5A;" d="M48.6-32.1c-0.167,0-0.383,0.1-0.65,0.3
			c0.1,0.133,0.216,0.333,0.35,0.6c0.167,0.167,0.483,0.367,0.95,0.6l1.35,1.05c0.1,0.033,0.25,0.15,0.45,0.35
			c0.2,0.167,0.366,0.25,0.5,0.25c0.033-0.2-0.05-0.383-0.25-0.55c-0.267-0.167-0.45-0.283-0.55-0.35L48.6-32.1z"/>
		<path style="fill-rule:evenodd;clip-rule:evenodd;fill:#C8DE5A;" d="M49.5-29.2l-1.2,0.05c-0.3,0.067-0.317,0.25-0.05,0.55
			c0.233,0.267,0.467,0.433,0.7,0.5c0.4,0.1,0.867,0.017,1.4-0.25C50.183-28.583,49.899-28.866,49.5-29.2z"/>
	</g>
</symbol>
<use xlink:href="#rubeweed_x5F_1"  width="72.997" height="39.854" x="0.002" y="-39.868" transform="matrix(0.8 0 0 -0.8 2.6499 16.2002)" style="overflow:visible;"/>
</svg>
