<?xml version="1.0" encoding="iso-8859-1"?>
<!-- Generator: Adobe Illustrator 15.1.0, SVG Export Plug-In . SVG Version: 6.00 Build 0)  -->
<!DOCTYPE svg PUBLIC "-//W3C//DTD SVG 1.1//EN" "http://www.w3.org/Graphics/SVG/1.1/DTD/svg11.dtd">
<svg version="1.1" id="flash0.ai" xmlns="http://www.w3.org/2000/svg" xmlns:xlink="http://www.w3.org/1999/xlink" x="0px" y="0px"
	 width="44.75px" height="31.55px" viewBox="0 0 44.75 31.55" style="enable-background:new 0 0 44.75 31.55;" xml:space="preserve"
	>
<symbol  id="flash0.ai_x5F_7_x2F_Layer_2_copy_x2F__x3C_Path_x3E__x5F_48" viewBox="0 -10.85 24.8 10.85">
	<g id="Layer_1_2_">
		
			<linearGradient id="SVGID_1_" gradientUnits="userSpaceOnUse" x1="-21.853" y1="-31.0024" x2="-5.8529" y2="-31.0024" gradientTransform="matrix(1 -0.0031 0.0031 1 25.5503 25.5313)">
			<stop  offset="0" style="stop-color:#FFFFFF"/>
			<stop  offset="1" style="stop-color:#000000"/>
		</linearGradient>
		<path style="fill-rule:evenodd;clip-rule:evenodd;fill:url(#SVGID_1_);" d="M24.8-1.45l-3.25-9.4L16.3-10.8
			c-1.133,0.167-2.4,0.45-3.8,0.85c-1.467,0.467-2.683,0.967-3.65,1.5C5.717-6.717,3.3-4.783,1.6-2.65C0.767-1.583,0.233-0.7,0,0
			l2.75-0.45c4.5-0.733,10.017-1.1,16.55-1.1L24.8-1.45z"/>
	</g>
</symbol>
<symbol  id="flash0.ai_x5F_8_x2F_Layer_2_copy_x2F__x3C_Path_x3E_" viewBox="-0.009 -1.49 6.759 1.486">
	<g id="Layer_1_19_">
		<path style="fill-rule:evenodd;clip-rule:evenodd;fill:#FFFF00;" d="M6.75-1.2c-0.9-0.1-1.767-0.117-2.6-0.05
			C3.817-1.25,3.067-1.3,1.9-1.4C0.933-1.5,0.333-1.517,0.1-1.45C-0.3-1.317,0.4-0.867,2.2-0.1c0.466,0.167,1.15,0.117,2.05-0.15
			L6.75-1.2z"/>
	</g>
</symbol>
<symbol  id="flash0.ai_x5F_8_x2F_Layer_2_copy_x2F__x3C_Path_x3E__x5F_1" viewBox="-0.006 -2.55 4.261 2.52">
	<g id="Layer_1_18_">
		<path style="fill-rule:evenodd;clip-rule:evenodd;fill:#FFFF00;" d="M4.1-2.55l-2.65,1.1C0.417-1.017-0.067-0.75,0-0.65
			c0.033,0.066,0.317,0.167,0.85,0.3c1.433,0.267,2.433,0.367,3,0.3c0.3-0.034,0.433-0.15,0.4-0.35C4.183-0.633,4.133-0.833,4.1-1
			V-2.55z"/>
	</g>
</symbol>
<symbol  id="flash0.ai_x5F_8_x2F_Layer_2_copy_x2F__x3C_Path_x3E__x5F_13" viewBox="0.029 -1.4 5.521 1.405">
	<g id="Layer_1_11_">
		<path style="fill-rule:evenodd;clip-rule:evenodd;fill:#FFFF00;" d="M5.55-1.4l-2.1,0.45C2.817-0.817,1.7-0.633,0.1-0.4
			C-0.2-0.267,0.45-0.133,2.05,0c0.4,0.033,0.967-0.1,1.7-0.4L5.55-1.4z"/>
	</g>
</symbol>
<symbol  id="flash0.ai_x5F_8_x2F_Layer_2_copy_x2F__x3C_Path_x3E__x5F_14" viewBox="0.033 -1.8 3.54 1.75">
	<g id="Layer_1_10_">
		<path style="fill-rule:evenodd;clip-rule:evenodd;fill:#FFFF00;" d="M3-1.8L1.05-0.75c-0.767,0.4-1.1,0.633-1,0.7h0.7
			c1.067,0,1.917-0.117,2.55-0.35c0.233-0.067,0.317-0.15,0.25-0.25c-0.1-0.133-0.167-0.233-0.2-0.3L3-1.8z"/>
	</g>
</symbol>
<symbol  id="flash0.ai_x5F_8_x2F_Layer_2_copy_x2F__x3C_Path_x3E__x5F_15" viewBox="0 -1.2 3.464 1.213">
	<g id="Layer_1_9_">
		<path style="fill-rule:evenodd;clip-rule:evenodd;fill:#FFFF00;" d="M0-1.2c0.167,0.367,0.367,0.617,0.6,0.75
			C0.667-0.417,0.75-0.3,0.85-0.1C0.917,0,1.067,0.033,1.3,0c0.9-0.167,1.583-0.45,2.05-0.85c0.167-0.133,0.15-0.2-0.05-0.2
			C3.267-1.05,3-1.033,2.5-1C2.067-0.967,1.233-1.033,0-1.2z"/>
	</g>
</symbol>
<symbol  id="flash0.ai_x5F_8_x2F_Layer_2_copy_x2F__x3C_Path_x3E__x5F_16" viewBox="0 -1.867 5.056 1.867">
	<g id="Layer_1_8_">
		<path style="fill-rule:evenodd;clip-rule:evenodd;fill:#FFFF00;" d="M0-0.05L3.45,0L4.2-0.35C4.533-0.517,4.767-0.767,4.9-1.1
			C5.067-1.367,5.1-1.6,5-1.8C4.933-1.933,4.6-1.867,4-1.6C3.3-1.267,2.8-1.033,2.5-0.9C1.933-0.667,1.1-0.383,0-0.05z"/>
	</g>
</symbol>
<symbol  id="flash0.ai_x5F_8_x2F_Layer_2_copy_x2F__x3C_Path_x3E__x5F_17" viewBox="0 -3.029 4.583 3.029">
	<g id="Layer_1_7_">
		<path style="fill-rule:evenodd;clip-rule:evenodd;fill:#FFFF00;" d="M0,0c2.367-0.933,3.783-1.633,4.25-2.1
			C4.583-2.433,4.667-2.683,4.5-2.85C4.333-3.017,3.983-3.067,3.45-3c-0.434,0.033-0.8,0.2-1.1,0.5c0,0.033-0.15,0.267-0.45,0.7
			C1.8-1.6,1.167-1,0,0z"/>
	</g>
</symbol>
<symbol  id="flash0.ai_x5F_8_x2F_Layer_2_copy_x2F__x3C_Path_x3E__x5F_18" viewBox="0.018 -2.312 2.584 2.312">
	<g id="Layer_1_6_">
		<path style="fill-rule:evenodd;clip-rule:evenodd;fill:#FFFF00;" d="M0.55,0c0.567-0.367,1-0.7,1.3-1
			c0.633-0.633,0.867-1.05,0.7-1.25c-0.1-0.167-0.65,0-1.65,0.5c-0.7,0.267-0.983,0.5-0.85,0.7L0.55,0z"/>
	</g>
</symbol>
<symbol  id="flash0.ai_x5F_8_x2F_Layer_2_copy_x2F__x3C_Path_x3E__x5F_19" viewBox="-0.031 -1.088 5.381 1.088">
	<g id="Layer_1_5_">
		<path style="fill-rule:evenodd;clip-rule:evenodd;fill:#FFFF00;" d="M5.35,0c-0.133-0.4-0.4-0.717-0.8-0.95
			C4.183-1.15,3.5-1.133,2.5-0.9C2.3-0.833,1.817-0.717,1.05-0.55c-0.566,0.133-0.9,0.233-1,0.3c-0.367,0.2,0.517,0.233,2.65,0.1
			C3.167-0.183,4.05-0.133,5.35,0z"/>
	</g>
</symbol>
<symbol  id="flash0.ai_x5F_8_x2F_Layer_2_copy_x2F__x3C_Path_x3E__x5F_2" viewBox="0 -2.4 3.875 2.408">
	<g id="Layer_1_17_">
		<path style="fill-rule:evenodd;clip-rule:evenodd;fill:#FFFF00;" d="M0-2.4c0.067,0.633,0.2,1.117,0.4,1.45
			C0.433-0.883,0.483-0.667,0.55-0.3C0.583-0.133,0.733-0.033,1,0c0.333,0.033,0.8-0.033,1.4-0.2C3-0.367,3.433-0.533,3.7-0.7
			c0.233-0.167,0.233-0.283,0-0.35c-0.034,0-0.333-0.067-0.9-0.2C2.3-1.317,1.367-1.7,0-2.4z"/>
	</g>
</symbol>
<symbol  id="flash0.ai_x5F_8_x2F_Layer_2_copy_x2F__x3C_Path_x3E__x5F_20" viewBox="-0.035 -1.14 7.235 1.14">
	<g id="Layer_1_4_">
		<path style="fill-rule:evenodd;clip-rule:evenodd;fill:#FFFF00;" d="M7.2-1.05C6.333-1.15,5.533-1.167,4.8-1.1
			C4.367-1.033,3.833-1.017,3.2-1.05c-0.833,0-1.383,0-1.65,0C0.917-1.017,0.533-0.967,0.4-0.9C0.267-0.867,0.133-0.75,0-0.55
			C-0.133-0.283,0.117-0.1,0.75,0c0.767,0,1.533-0.067,2.3-0.2L7.2-1.05z"/>
	</g>
</symbol>
<symbol  id="flash0.ai_x5F_8_x2F_Layer_2_copy_x2F__x3C_Path_x3E__x5F_3" viewBox="0 -2.675 6.368 2.675">
	<g id="Layer_1_16_">
		<path style="fill-rule:evenodd;clip-rule:evenodd;fill:#FFFF00;" d="M0-1.25L3.9,0l0.95-0.35C5.317-0.517,5.7-0.833,6-1.3
			c0.3-0.434,0.417-0.833,0.35-1.2c-0.033-0.233-0.434-0.233-1.2,0C4.217-2.133,3.567-1.9,3.2-1.8C2.433-1.633,1.367-1.45,0-1.25z"
			/>
	</g>
</symbol>
<symbol  id="flash0.ai_x5F_8_x2F_Layer_2_copy_x2F__x3C_Path_x3E__x5F_34" viewBox="-0.016 -12.653 31.766 12.653">
	<g id="Layer_1_3_">
		<path style="fill-rule:evenodd;clip-rule:evenodd;fill:#FF9947;" d="M24.15,0c3.1,0,5.633-0.25,7.6-0.75
			c-0.233-0.1-0.517-0.15-0.85-0.15c-0.333,0-0.917,0.033-1.75,0.1c-0.8,0.066-1.483,0.1-2.05,0.1c-1.8,0-3.717-0.25-5.75-0.75
			c-2.167-0.533-4.1-1.316-5.8-2.35c-1.2-0.633-2.033-1.083-2.5-1.35c-0.767-0.434-1.383-0.983-1.85-1.65
			c-0.434-0.6-1.15-1.284-2.15-2.05c-1.2-0.9-1.983-1.533-2.35-1.9c-0.633-0.667-1.017-1.033-1.15-1.1
			c-0.2,0.033-0.433,0.05-0.7,0.05c-0.767,0-2.217-0.267-4.35-0.8c-0.567-0.133-0.667-0.017-0.3,0.35
			c0.633,0.533,1.066,0.917,1.3,1.15C2.567-10.167,3.35-9.467,3.85-9c0.367,0.067,0.6,0.217,0.7,0.45c1.6,1.367,3.633,2.75,6.1,4.15
			c2.467,1.433,4.483,2.383,6.05,2.85C18.833-0.917,21.317-0.4,24.15,0z"/>
	</g>
</symbol>
<symbol  id="flash0.ai_x5F_8_x2F_Layer_2_copy_x2F__x3C_Path_x3E__x5F_4" viewBox="0 -3.863 6.29 3.863">
	<g id="Layer_1_15_">
		<path style="fill-rule:evenodd;clip-rule:evenodd;fill:#FFFF00;" d="M0,0c3.067-0.733,4.95-1.417,5.65-2.05
			c0.533-0.467,0.733-0.867,0.6-1.2c-0.133-0.3-0.517-0.5-1.15-0.6c-0.733-0.1-1.467,0.4-2.2,1.5C2.7-2.083,1.733-1.3,0,0z"/>
	</g>
</symbol>
<symbol  id="flash0.ai_x5F_8_x2F_Layer_2_copy_x2F__x3C_Path_x3E__x5F_5" viewBox="0 -3.3 3.374 3.3">
	<g id="Layer_1_14_">
		<path style="fill-rule:evenodd;clip-rule:evenodd;fill:#FFFF00;" d="M0.2,0c0.767-0.4,1.4-0.817,1.9-1.25
			C3.067-2.083,3.483-2.7,3.35-3.1C3.317-3.3,3.067-3.35,2.6-3.25C2-3.05,1.567-2.9,1.3-2.8C0.433-2.6,0-2.3,0-1.9L0.2,0z"/>
	</g>
</symbol>
<symbol  id="flash0.ai_x5F_8_x2F_Layer_2_copy_x2F__x3C_Path_x3E__x5F_6" viewBox="-0.003 -2.425 6.003 2.425">
	<g id="Layer_1_13_">
		<path style="fill-rule:evenodd;clip-rule:evenodd;fill:#FFFF00;" d="M6,0c0-0.7-0.183-1.3-0.55-1.8C5.217-2.133,4.9-2.333,4.5-2.4
			c-0.2-0.033-0.667-0.033-1.4,0c-0.8,0-1.383,0-1.75,0c-0.7,0.033-1.133,0.1-1.3,0.2C-0.25-2.067,0.733-1.717,3-1.15
			C3.567-1.017,4.567-0.633,6,0z"/>
	</g>
</symbol>
<symbol  id="flash0.ai_x5F_8_x2F_Layer_2_copy_x2F__x3C_Path_x3E__x5F_7" viewBox="-0.01 -2.108 8.46 2.125">
	<g id="Layer_1_12_">
		<path style="fill-rule:evenodd;clip-rule:evenodd;fill:#FFFF00;" d="M8.45-0.05c-0.9-0.4-1.8-0.667-2.7-0.8
			C5.283-0.917,4.667-1.083,3.9-1.35C3.067-1.617,2.433-1.8,2-1.9C1.3-2.067,0.867-2.133,0.7-2.1C0.5-2.067,0.3-1.9,0.1-1.6
			c-0.267,0.367-0.05,0.733,0.65,1.1C1.583-0.2,2.467-0.033,3.4,0C4.333,0.033,6.017,0.017,8.45-0.05z"/>
	</g>
</symbol>
<g>
	<g>
		<g>
			<path style="fill-rule:evenodd;clip-rule:evenodd;fill:#D7EAF2;" d="M38.912,22.274l0.15-0.037
				c-0.975,2.675-3.074,4.875-6.301,6.6c-3.274,1.751-7.012,2.625-11.211,2.625c-4.225,0-7.988-0.888-11.288-2.662
				C7.013,27.05,4.925,24.825,4,22.125l0.3,0.037c0.976,0.65,3.063,1.188,6.263,1.612c3.25,0.426,6.95,0.638,11.1,0.638
				c4.075,0,7.713-0.2,10.912-0.6C35.725,23.412,37.837,22.899,38.912,22.274z"/>
			<path style="fill-rule:evenodd;clip-rule:evenodd;fill:#BDD4DE;" d="M37.525,22.837c-0.225,0.601-0.588,1.226-1.088,1.875
				c-0.95,1.275-2.425,2.563-4.426,3.863c-1.574,1.024-3.512,1.85-5.813,2.475c-1.074,0.15-1.675,0.225-1.799,0.225
				c3.024-0.925,5.2-2.274,6.525-4.05c0.574-0.775,0.938-1.5,1.086-2.175c0.076-0.625,0.126-1.037,0.15-1.237
				C34.488,23.563,36.275,23.237,37.525,22.837z"/>
			
				<use xlink:href="#flash0.ai_x5F_7_x2F_Layer_2_copy_x2F__x3C_Path_x3E__x5F_48"  width="24.8" height="10.85" y="-10.85" transform="matrix(0.75 0 0 -0.75 7.2002 23.25)" style="overflow:visible;opacity:0.4414;enable-background:new    ;"/>
			<path style="fill-rule:evenodd;clip-rule:evenodd;fill:#BDD4DE;" d="M6.85,25.649c1.584,1.874,3.585,3.306,6,4.294
				c-2.063-0.762-3.837-1.756-5.324-2.981C5.8,25.537,4.625,23.925,4,22.125l0.3,0.037c0.175,0.125,0.363,0.226,0.563,0.3
				C5.288,23.513,5.95,24.575,6.85,25.649z"/>
			
				<linearGradient id="SVGID_2_" gradientUnits="userSpaceOnUse" x1="1.1006" y1="10.2002" x2="46.1514" y2="10.2002" gradientTransform="matrix(0.75 0 0 0.75 4 13.7998)">
				<stop  offset="0" style="stop-color:#9CADB5"/>
				<stop  offset="1" style="stop-color:#E0E0E0"/>
			</linearGradient>
			<path style="fill-rule:evenodd;clip-rule:evenodd;fill:url(#SVGID_2_);" d="M33.662,16.95c3.301,1.25,4.951,2.75,4.951,4.5
				c0,1.749-1.65,3.237-4.951,4.462c-3.299,1.25-7.275,1.875-11.924,1.875c-4.675,0-8.663-0.625-11.962-1.875
				c-3.301-1.225-4.95-2.713-4.95-4.462c0-1.75,1.649-3.25,4.95-4.5c3.3-1.225,7.287-1.838,11.962-1.838
				C26.387,15.112,30.363,15.725,33.662,16.95z"/>
			<path style="fill-rule:evenodd;clip-rule:evenodd;fill:#FFFFFF;" d="M39.025,21h-1.088c-0.225-1.551-1.912-2.863-5.063-3.938
				C29.75,15.987,26,15.45,21.625,15.45c-4.35,0-8.087,0.537-11.213,1.612C7.263,18.137,5.575,19.449,5.35,21H4.075
				c0.4-1.7,2.262-3.125,5.587-4.275C13.037,15.575,17,15,21.55,15c4.575,0,8.538,0.575,11.887,1.725
				C36.787,17.875,38.65,19.3,39.025,21z"/>
			
				<radialGradient id="SVGID_3_" cx="2.2554" cy="-21.6128" r="21.0124" gradientTransform="matrix(-0.0816 0.7455 0.696 0.0879 35.1264 17.7302)" gradientUnits="userSpaceOnUse">
				<stop  offset="0" style="stop-color:#F2DB8A"/>
				<stop  offset="1" style="stop-color:#877531"/>
			</radialGradient>
			<path style="fill-rule:evenodd;clip-rule:evenodd;fill:url(#SVGID_3_);" d="M37.713,23.587c-1.125,0.65-2.75,1.363-4.875,2.138
				c-3.076,1.125-5.713,1.7-7.912,1.726c-2.4,0.024-5.025-0.088-7.876-0.338c-2.6-0.25-4.587-0.538-5.962-0.862
				c-1.125-0.275-2.226-0.7-3.301-1.275c-0.95-0.5-1.437-0.85-1.462-1.05c-0.025-0.1,0.125-0.287,0.45-0.563
				c0.375-0.325,0.575-0.525,0.6-0.6c0.4-1.125,1.987-2.088,4.763-2.888c0.725-0.2,1.462-0.801,2.212-1.8
				c0.7-0.95,1.288-1.438,1.763-1.463c2.35-0.175,4.275-0.15,5.775,0.075c0.525,0.075,1.338,0.337,2.437,0.787
				c0.9,0.375,1.663,0.55,2.289,0.525c0.574-0.025,1.875-0.125,3.898-0.3c1.826-0.101,2.951,0.05,3.375,0.449
				c0.626,0.601,1.288,1.363,1.988,2.288c0.824,1.05,1.226,1.763,1.199,2.138c-0.024,0.274,0.214,0.462,0.713,0.563
				C38.112,23.212,38.088,23.362,37.713,23.587z"/>
			
				<radialGradient id="SVGID_4_" cx="1.939" cy="-16.3428" r="2.9554" gradientTransform="matrix(-0.0825 0.7455 0.6947 0.0888 27.5128 16.8062)" gradientUnits="userSpaceOnUse">
				<stop  offset="0" style="stop-color:#D4C17D"/>
				<stop  offset="1" style="stop-color:#B3A051"/>
			</radialGradient>
			<path style="fill-rule:evenodd;clip-rule:evenodd;fill:url(#SVGID_4_);" d="M16.112,16.612c0.725-0.125,0.838,0.05,0.338,0.525
				c-0.625,0.624-0.85,1.012-0.675,1.162c0.2,0.2,0.625,0.175,1.274-0.075c0.601-0.25,0.925-0.313,0.976-0.188
				c0.1,0.275-0.088,0.513-0.563,0.713c-0.525,0.225-1.225,0.263-2.101,0.112c-0.875-0.175-1.125-0.575-0.75-1.2
				C14.987,17.087,15.488,16.737,16.112,16.612z"/>
			
				<radialGradient id="SVGID_5_" cx="7.0215" cy="-16.0977" r="3.295" gradientTransform="matrix(-0.0825 0.7454 0.6971 0.0882 27.2002 16.7355)" gradientUnits="userSpaceOnUse">
				<stop  offset="0" style="stop-color:#D4C17D"/>
				<stop  offset="1" style="stop-color:#B3A051"/>
			</radialGradient>
			<path style="fill-rule:evenodd;clip-rule:evenodd;fill:url(#SVGID_5_);" d="M16.938,20.287c0.375-0.05,0.563,0.112,0.563,0.487
				c0,0.2-0.05,0.538-0.15,1.013c-0.05,0.351-0.188,0.65-0.412,0.9c-0.25,0.275-0.525,0.399-0.825,0.375
				c-0.275-0.051-0.737-0.051-1.388,0l-0.899,0.075c0.075-0.15,0.212-0.301,0.412-0.45c0.375-0.325,0.85-0.5,1.425-0.525
				c0.5-0.05,0.738-0.362,0.713-0.938C16.375,20.625,16.563,20.313,16.938,20.287z"/>
			
				<radialGradient id="SVGID_6_" cx="4.6558" cy="-36.4917" r="2.5399" gradientTransform="matrix(-0.0812 0.7456 0.6939 0.0886 56.4757 20.4984)" gradientUnits="userSpaceOnUse">
				<stop  offset="0" style="stop-color:#D4C17D"/>
				<stop  offset="1" style="stop-color:#B3A051"/>
			</radialGradient>
			<path style="fill-rule:evenodd;clip-rule:evenodd;fill:url(#SVGID_6_);" d="M31.863,20.625c0.898,0.225,1.099,0.638,0.6,1.237
				c-0.5,0.575-1.263,0.726-2.287,0.45c-0.977-0.25-1.138-0.638-0.488-1.163C30.313,20.6,31.037,20.425,31.863,20.625z"/>
			
				<radialGradient id="SVGID_7_" cx="4.3125" cy="-21.3335" r="19.1765" gradientTransform="matrix(-0.0816 0.7455 0.6957 0.0875 34.7173 17.664)" gradientUnits="userSpaceOnUse">
				<stop  offset="0" style="stop-color:#D4C17D"/>
				<stop  offset="1" style="stop-color:#B3A051"/>
			</radialGradient>
			<path style="fill-rule:evenodd;clip-rule:evenodd;fill:url(#SVGID_7_);" d="M35.537,22.425c-0.475-0.25-1.1-0.612-1.875-1.088
				c-0.874-0.55-1.45-0.899-1.725-1.05c-0.824-0.5-2.025-0.688-3.6-0.563c-0.8,0.125-1.45,0.213-1.951,0.263
				c-0.898,0.1-1.574,0.05-2.023-0.15c-0.2-0.074-0.451-0.3-0.75-0.675c-0.2-0.225-0.688-0.324-1.463-0.3
				c-0.676,0.024-1.588,0.2-2.738,0.525c-1.149,0.324-1.975,0.5-2.475,0.524c-0.975,0.075-1.637,0.163-1.987,0.263
				c-0.601,0.15-1.05,0.45-1.351,0.9c-0.475,0.675-0.837,1.138-1.087,1.387c-0.425,0.426-0.9,0.676-1.425,0.75
				c-0.625,0.101-1.213,0.263-1.763,0.488c-0.625,0.225-0.95,0.425-0.976,0.6c-0.07,0.194-0.07,0.388,0,0.581
				c-0.6-0.234-0.987-0.428-1.162-0.581c-0.625-0.525-0.525-0.95,0.3-1.275c0.65-0.274,1.488-0.412,2.513-0.412
				c0.7,0,1.262-0.15,1.688-0.45c0.2-0.149,0.5-0.475,0.9-0.975c0.2-0.25,0.487-0.638,0.862-1.163
				c0.425-0.399,1.087-0.587,1.987-0.563c0.825,0.051,1.625-0.074,2.4-0.375c0.399-0.175,0.924-0.399,1.574-0.675
				c0.576-0.149,1.013-0.225,1.313-0.225c0.425,0,1.075,0.1,1.951,0.3c0.349,0.075,0.799,0.325,1.35,0.75
				c0.299,0.25,1.1,0.325,2.4,0.225c1.125-0.074,2.337-0.188,3.637-0.337c0.851,0.024,1.613,0.324,2.287,0.899
				c0.476,0.4,1.389,0.925,2.738,1.575c1,0.475,1.475,0.838,1.424,1.088c-0.049,0.55-0.148,1.063-0.299,1.537
				c-0.2,0.625-0.388,0.813-0.563,0.563c-0.076-0.125,0.012-0.512,0.262-1.162C36.137,23.075,36.013,22.675,35.537,22.425z
				 M26.949,22.425c-0.925-0.375-1.562-0.612-1.912-0.713c-0.6-0.2-1.075-0.2-1.424,0c-0.15,0.075-0.688,0.275-1.613,0.601
				c-0.7,0.25-1.162,0.5-1.387,0.75c-0.475,0.575-0.85,1.025-1.125,1.35c-0.55,0.65-0.987,1.025-1.313,1.125
				c-0.5,0.15-1.112,0.238-1.837,0.263c-0.825,0.024-1.351-0.088-1.575-0.338c-0.3-0.324-0.513-0.524-0.638-0.6
				c-0.25-0.125-0.65-0.212-1.2-0.263c-0.6-0.05-1.2,0.063-1.8,0.338c-0.552,0.264-0.758,0.495-0.619,0.693
				c-0.467-0.147-0.886-0.285-1.256-0.412c0.058-0.039,0.121-0.082,0.188-0.132c0.6-0.425,1.35-0.8,2.25-1.125
				c0.975-0.375,1.688-0.5,2.138-0.375c0.225,0.051,0.575,0.4,1.05,1.051c0.375,0.5,0.862,0.688,1.463,0.563
				c0.824-0.2,1.387-0.388,1.688-0.563c0.325-0.2,0.625-0.575,0.899-1.125c0.75-1.375,1.688-2.063,2.813-2.063
				c0.325,0,0.724-0.175,1.2-0.525c0.375-0.275,0.875-0.313,1.5-0.112c1.1,0.35,2.263,0.65,3.488,0.899
				c0.475,0.126,1.137,0.138,1.986,0.038c0.676-0.075,1.213,0.024,1.613,0.3c0.499,0.375,0.774,0.65,0.824,0.825
				c0,0.05-0.063,0.362-0.188,0.938c-0.074,0.324,0.063,0.838,0.412,1.537c0.251,0.525,0.238,0.801-0.037,0.825
				c-0.274,0.024-0.513,0.101-0.713,0.225c-0.049,0.025-0.1-0.024-0.148-0.149c-0.051-0.226-0.088-0.613-0.113-1.163
				c-0.05-0.649-0.037-1.149,0.037-1.5c0.2-0.85-0.274-1.274-1.424-1.274c-0.15,0-0.65,0.088-1.5,0.263
				C28.125,22.675,27.551,22.625,26.949,22.425z M19.75,26.7c-0.825,0.074-1.325,0.138-1.5,0.188c-0.3,0.1-0.5,0.162-0.6,0.188
				c-0.15,0.05-0.5,0.074-1.051,0.074c-0.296,0-0.758-0.068-1.387-0.206c0.332-0.069,0.944-0.238,1.837-0.506
				c0.9-0.3,1.588-0.45,2.063-0.45c0.9,0,1.388,0,1.462,0c0.425-0.075,0.8-0.313,1.125-0.713c0.401-0.475,1.05-0.837,1.951-1.087
				c0.975-0.25,1.688-0.2,2.137,0.149c0.425,0.325,0.975,0.601,1.65,0.825c0.5,0.15,0.925,0.238,1.275,0.263
				c0.274,0.024,0.612,0.088,1.012,0.188c0.425,0.1,0.688,0.2,0.787,0.3c0.15,0.1,0.163,0.313,0.039,0.638
				c-0.15,0.3-0.375,0.412-0.676,0.338c-0.25-0.075-0.7-0.275-1.35-0.601c-0.8-0.425-1.362-0.699-1.688-0.825
				c-0.75-0.324-1.275-0.524-1.576-0.6c-0.6-0.15-1.125-0.125-1.574,0.075c-0.35,0.149-0.763,0.399-1.238,0.75
				c-0.474,0.324-0.837,0.55-1.086,0.675C21.038,26.487,20.5,26.6,19.75,26.7z M8.35,24.881c0.258,0.105,0.558,0.218,0.9,0.338
				c-0.375,0.217-0.637,0.186-0.787-0.094C8.411,25.044,8.374,24.963,8.35,24.881z M10.506,25.631
				c0.365,0.111,0.759,0.23,1.182,0.356c1.486,0.447,2.661,0.767,3.525,0.956c-0.043,0.007-0.081,0.014-0.113,0.019
				c-0.524,0.075-1.4-0.074-2.625-0.449c-1.125-0.375-1.775-0.663-1.949-0.863L10.506,25.631z"/>
			
				<radialGradient id="SVGID_8_" cx="-0.499" cy="-22.418" r="19.7176" gradientTransform="matrix(-0.0818 0.7455 0.6961 0.0875 36.2887 17.858)" gradientUnits="userSpaceOnUse">
				<stop  offset="0" style="stop-color:#C7B577"/>
				<stop  offset="1" style="stop-color:#BDAA57"/>
			</radialGradient>
			<path style="fill-rule:evenodd;clip-rule:evenodd;fill:url(#SVGID_8_);" d="M35.688,19.837c-0.4-0.55-0.963-0.887-1.688-1.012
				c-1.625-0.325-3.15-0.525-4.574-0.601c-0.676-0.05-1.451-0.375-2.326-0.975c-0.949-0.625-1.65-0.976-2.1-1.05
				c-0.925-0.301-1.613-0.488-2.063-0.563c-0.8-0.175-1.638,0.012-2.513,0.563c-1.225,0.85-2.087,1.438-2.587,1.762
				c-0.8,0.525-1.488,0.813-2.063,0.863c-0.175,0.024-1-0.051-2.476-0.226c-1.025-0.1-1.763,0.013-2.212,0.338
				c-0.9,0.774-1.55,1.325-1.95,1.649c-0.675,0.601-0.95,0.688-0.825,0.263c0.625-2,1.7-3,3.225-3h1.426
				c2.225,0.25,3.712,0.051,4.462-0.6c0.9-0.75,1.825-1.375,2.775-1.875c1.425-0.775,2.575-1.063,3.45-0.862
				c0.6,0.149,1.475,0.65,2.625,1.5c1.1,0.8,2.112,1.262,3.037,1.387c2.075,0.275,3.175,0.426,3.301,0.45
				c1.024,0.175,1.824,0.413,2.398,0.713c0.701,0.399,1.264,0.85,1.688,1.35c0.476,0.525,0.688,1,0.639,1.425
				c-0.05,0.45-0.488,0.925-1.313,1.426c-0.851,0.524-1.788,0.837-2.813,0.938c-0.75,0.074-1.563,0.437-2.438,1.087
				c-0.826,0.625-1.413,0.938-1.764,0.938h-1.236c-0.15-0.024-0.225-0.088-0.225-0.188c0-0.175,0.375-0.412,1.125-0.712
				c0.6-0.226,1.937-0.713,4.012-1.463c1.85-0.7,2.913-1.3,3.188-1.8C36.2,20.987,36.137,20.412,35.688,19.837z"/>
			
				<radialGradient id="SVGID_9_" cx="-0.8521" cy="-22.0264" r="19.7176" gradientTransform="matrix(-0.0818 0.7455 0.6961 0.0875 35.7247 17.7871)" gradientUnits="userSpaceOnUse">
				<stop  offset="0" style="stop-color:#E3D49D"/>
				<stop  offset="1" style="stop-color:#E0CA70"/>
			</radialGradient>
			<path style="fill-rule:evenodd;clip-rule:evenodd;fill:url(#SVGID_9_);" d="M35.426,19.537c-0.426-0.55-0.988-0.887-1.688-1.013
				c-1.626-0.324-3.15-0.524-4.576-0.6c-0.674-0.05-1.45-0.375-2.324-0.975c-0.95-0.625-1.663-0.976-2.139-1.051
				c-0.925-0.3-1.611-0.487-2.063-0.563c-0.774-0.174-1.599,0.013-2.475,0.563c-1.25,0.851-2.112,1.438-2.587,1.763
				c-0.8,0.525-1.5,0.813-2.101,0.862c-0.174,0.025-0.987-0.05-2.438-0.225c-1.05-0.1-1.787,0.013-2.212,0.338
				c-0.9,0.774-1.55,1.325-1.95,1.649C8.2,20.888,7.925,20.975,8.05,20.55c0.625-2,1.7-3,3.226-3H12.7
				c2.225,0.25,3.712,0.063,4.462-0.563c0.8-0.726,1.726-1.363,2.775-1.912c1.425-0.775,2.575-1.063,3.449-0.863
				c0.575,0.15,1.451,0.65,2.625,1.5c1.101,0.801,2.113,1.263,3.039,1.388c2.124,0.275,3.225,0.426,3.299,0.45
				c1.001,0.175,1.788,0.412,2.363,0.713c0.7,0.399,1.275,0.85,1.725,1.35c0.476,0.525,0.688,1,0.637,1.425
				c-0.049,0.45-0.486,0.925-1.313,1.425c-0.874,0.525-1.812,0.838-2.813,0.938c-0.774,0.075-1.587,0.438-2.438,1.088
				c-0.824,0.625-1.424,0.938-1.799,0.938h-1.201l0.826-0.675c0.7-0.525,1.424-0.938,2.174-1.237
				c0.602-0.226,1.588-0.538,2.963-0.938c1.15-0.375,1.863-0.813,2.139-1.313C35.938,20.688,35.875,20.112,35.426,19.537z"/>
			
				<radialGradient id="SVGID_10_" cx="-0.7324" cy="-22.1919" r="24.4454" gradientTransform="matrix(-0.0817 0.7455 0.6961 0.0878 35.9623 17.8323)" gradientUnits="userSpaceOnUse">
				<stop  offset="0" style="stop-color:#E6D189"/>
				<stop  offset="1" style="stop-color:#BDAA57"/>
			</radialGradient>
			<path style="fill-rule:evenodd;clip-rule:evenodd;fill:url(#SVGID_10_);" d="M35.5,20.175c-0.824,0-1.662-0.338-2.512-1.013
				c-0.451-0.399-1.063-1.05-1.838-1.95c-0.451-0.55-1.226-0.787-2.326-0.712c-0.975,0.05-1.824,0.287-2.549,0.712
				c-0.95,0.55-1.663,1.051-2.139,1.5c-0.649,0.65-0.462,0.938,0.563,0.863c0.227,0,1.088-0.2,2.588-0.601
				c0.726-0.2,1.426,0,2.1,0.601c0.551,0.524,1.164,1.149,1.838,1.875c0.551,0.449,1.238,0.624,2.063,0.524
				c1.025-0.125,1.888,0.125,2.588,0.75c0.725,0.65,0.563,1.2-0.488,1.65c-0.925,0.399-1.5,0.55-1.725,0.45L33.625,24.6l0.938-0.563
				c0.476-0.425,0.412-0.75-0.188-0.975c-0.4-0.175-1.051-0.287-1.949-0.338c-0.701-0.024-1.238-0.2-1.613-0.524
				c-0.625-0.676-1.1-1.176-1.426-1.5c-0.574-0.601-1.137-0.925-1.688-0.976c-0.449-0.05-1.062,0.013-1.836,0.188
				c-0.926,0.175-1.714,0.263-2.363,0.263c-0.375,0-1.112,0.112-2.213,0.338c-0.525,0.125-0.899-0.025-1.125-0.45
				c-0.074-0.15-0.375-0.862-0.899-2.138c-0.4-0.975-0.738-1.575-1.013-1.8c-0.525-0.475-1.125-0.763-1.8-0.862
				c-0.9-0.125-1.45,0.325-1.65,1.35c-0.175,1,0.138,1.888,0.938,2.662c0.45,0.45,1.15,1.038,2.101,1.763
				c1.299,1.375,1.737,2.288,1.313,2.737c-0.5,0.501-0.813,0.788-0.938,0.863c-0.576,0.274-1.338,0.262-2.288-0.038
				c-0.925-0.3-1.95-0.774-3.075-1.425c-1.1-0.675-1.812-1.112-2.137-1.313c-0.5-0.3-1.213-0.412-2.138-0.338
				c-0.9,0.101-1.413,0.325-1.538,0.676c-0.1,0.35,0.1,0.675,0.601,0.975c0.45,0.275,1.063,0.487,1.837,0.638
				c0.5,0.1,1.063,0.2,1.688,0.3c0.55,0.075,1.138,0.237,1.763,0.487c0.2,0.075,0.913,0.65,2.138,1.726
				c0.825,0.725,1.637,0.899,2.438,0.524c0.45-0.199,1.212-0.925,2.287-2.175c0.875-1.025,1.888-1.612,3.037-1.763
				c1.001-0.1,1.938-0.212,2.813-0.337c0.525,0.024,1.325,0.3,2.4,0.824c0.875,0.426,1.663,0.7,2.363,0.825
				c0.399,0.075,0.649,0.2,0.75,0.375c0.225,0.4,1.012,0.875,2.361,1.425l-1.688,0.488c0.026-0.126-0.037-0.275-0.188-0.45
				c-0.274-0.351-0.799-0.675-1.574-0.976c-0.125-0.05-0.888-0.388-2.287-1.012c-0.75-0.325-1.438-0.513-2.063-0.563
				c-0.726-0.051-1.513,0.024-2.363,0.225c-0.8,0.175-1.462,0.425-1.987,0.75c-0.375,0.225-0.85,0.675-1.425,1.35
				c-0.6,0.7-0.938,1.075-1.013,1.125c-0.899,0.75-1.937,0.95-3.112,0.601c-0.525-0.15-1.125-0.5-1.8-1.05
				c-0.65-0.55-1.313-0.913-1.987-1.088C10.7,25.1,9.725,24.85,9.1,24.675c-1.125-0.3-1.925-0.6-2.399-0.9
				c-1.15-0.725-1.7-1.425-1.65-2.1c0.1-0.85,0.875-1.4,2.325-1.65c1.45-0.249,2.638-0.074,3.563,0.525
				c0.6,0.399,1.4,1.025,2.4,1.875c1.025,0.7,2.225,1.149,3.6,1.35c1.45,0.2,1.75-0.237,0.9-1.313c-0.275-0.35-1.288-1.35-3.038-3
				c-0.975-0.925-1.5-1.737-1.575-2.438c-0.074-0.774,0.351-1.55,1.275-2.324c0.9-0.726,1.888-0.875,2.963-0.45
				c0.975,0.4,1.762,1.15,2.362,2.25c0.05,0.075,0.275,0.938,0.675,2.587c0.125,0.525,0.675,0.45,1.65-0.225
				c2.1-1.425,3.513-2.325,4.236-2.7c1.751-0.899,3.088-1.15,4.014-0.75c0.774,0.35,1.263,0.763,1.463,1.237
				c0.299,0.65,0.662,1.15,1.086,1.5c1.251,1.075,2.664,1.4,4.238,0.976c0.476-0.15,1.1,0.075,1.875,0.675s1.212,0.888,1.313,0.862
				c0.449-0.149,0.737-0.175,0.863-0.075c0.049,0.051,0.062,0.113,0.037,0.188c0,0.65-0.188,0.976-0.563,0.976
				c-0.15,0-0.438-0.226-0.863-0.675c-0.425-0.501-0.8-0.801-1.125-0.9c-0.35-0.075-0.762-0.1-1.236-0.075
				C36.563,20.15,35.9,20.175,35.5,20.175z"/>
			
				<radialGradient id="SVGID_11_" cx="-1.0425" cy="-21.8555" r="24.4454" gradientTransform="matrix(-0.0817 0.7455 0.6961 0.0878 35.4777 17.7712)" gradientUnits="userSpaceOnUse">
				<stop  offset="0" style="stop-color:#FFF6D4"/>
				<stop  offset="1" style="stop-color:#E0CA70"/>
			</radialGradient>
			<path style="fill-rule:evenodd;clip-rule:evenodd;fill:url(#SVGID_11_);" d="M35.275,19.95c-0.826,0-1.663-0.351-2.514-1.051
				c-0.424-0.35-1.037-0.987-1.836-1.912c-0.451-0.55-1.226-0.787-2.326-0.713c-1,0.051-1.85,0.288-2.549,0.713
				c-0.977,0.55-1.688,1.05-2.139,1.5c-0.625,0.625-0.438,0.913,0.563,0.862c0.225,0,1.101-0.2,2.625-0.6
				c0.726-0.2,1.413,0,2.063,0.6c0.551,0.525,1.162,1.15,1.838,1.875c0.575,0.45,1.263,0.625,2.063,0.525
				c1.024-0.15,1.888,0.1,2.588,0.75c0.725,0.625,0.563,1.162-0.488,1.612c-0.925,0.399-1.5,0.563-1.725,0.487L33.4,24.375
				l0.938-0.563c0.475-0.426,0.412-0.763-0.188-1.013c-0.425-0.175-1.063-0.287-1.912-0.338c-0.726-0.024-1.264-0.188-1.613-0.487
				c-0.625-0.675-1.1-1.188-1.426-1.537c-0.6-0.601-1.162-0.925-1.688-0.976c-0.449-0.024-1.074,0.038-1.875,0.188
				c-0.898,0.2-1.688,0.301-2.361,0.301c-0.375,0-1.113,0.112-2.213,0.337c-0.525,0.1-0.9-0.05-1.125-0.45
				c-0.05-0.1-0.35-0.812-0.9-2.137c-0.399-0.95-0.737-1.551-1.012-1.801c-0.525-0.5-1.125-0.787-1.801-0.862
				c-0.899-0.149-1.45,0.3-1.649,1.351c-0.175,0.975,0.137,1.85,0.938,2.625c0.45,0.449,1.15,1.037,2.1,1.762
				c1.275,1.426,1.712,2.338,1.313,2.738c-0.45,0.5-0.762,0.8-0.938,0.899c-0.575,0.275-1.337,0.263-2.287-0.037
				c-0.925-0.325-1.95-0.801-3.075-1.425c-1.1-0.7-1.813-1.15-2.138-1.351c-0.5-0.275-1.212-0.375-2.138-0.3
				c-0.899,0.1-1.412,0.325-1.537,0.675c-0.1,0.351,0.1,0.675,0.6,0.976c0.45,0.274,1.063,0.487,1.838,0.637
				c0.5,0.101,1.063,0.2,1.688,0.301c0.55,0.074,1.138,0.237,1.763,0.487c0.225,0.075,0.938,0.638,2.138,1.688
				c0.824,0.75,1.637,0.938,2.438,0.563c0.449-0.226,1.212-0.95,2.287-2.175c0.875-1.025,1.888-1.613,3.037-1.763
				c1.851-0.226,2.788-0.338,2.813-0.338c0.5,0,1.301,0.275,2.4,0.825c0.875,0.425,1.662,0.7,2.363,0.825
				c0.399,0.075,0.649,0.2,0.75,0.375c0.225,0.375,1.012,0.85,2.361,1.425L31.6,26.25c0.025-0.125-0.037-0.275-0.188-0.45
				c-0.274-0.351-0.8-0.675-1.574-0.975c-1.101-0.476-1.863-0.801-2.287-0.976c-0.75-0.324-1.438-0.512-2.063-0.563
				c-0.75-0.05-1.539,0.013-2.363,0.188c-0.8,0.2-1.463,0.45-1.988,0.75c-0.375,0.226-0.85,0.675-1.424,1.351
				c-0.601,0.725-0.938,1.112-1.013,1.162c-0.9,0.75-1.938,0.95-3.112,0.6c-0.5-0.149-1.101-0.513-1.801-1.087
				c-0.65-0.55-1.313-0.9-1.987-1.05c-1.325-0.325-2.3-0.575-2.925-0.75c-1.125-0.325-1.925-0.638-2.4-0.938
				C5.3,22.787,4.75,22.1,4.825,21.45c0.1-0.851,0.875-1.4,2.325-1.65c1.45-0.275,2.637-0.112,3.563,0.487
				c0.6,0.4,1.4,1.037,2.399,1.913c1.025,0.699,2.225,1.138,3.601,1.313c1.45,0.2,1.75-0.226,0.899-1.275
				c-0.275-0.351-1.288-1.35-3.037-3c-0.976-0.925-1.5-1.75-1.575-2.475c-0.075-0.775,0.35-1.538,1.275-2.288
				c0.899-0.725,1.887-0.875,2.962-0.45c0.976,0.4,1.763,1.138,2.362,2.213c0.05,0.075,0.275,0.938,0.676,2.588
				c0.125,0.524,0.674,0.462,1.65-0.188c2.15-1.45,3.563-2.351,4.237-2.7c1.751-0.925,3.088-1.175,4.014-0.75
				c0.774,0.35,1.262,0.762,1.461,1.237c0.301,0.65,0.663,1.149,1.088,1.5c1.275,1.101,2.688,1.412,4.238,0.938
				c0.574-0.15,1.125-0.112,1.65,0.112c0.499,0.226,0.837,0.55,1.012,0.976c0.225,0.55,0.7,0.75,1.426,0.6
				c0,0.625-0.188,0.938-0.563,0.938c-0.15,0-0.438-0.225-0.863-0.675c-0.425-0.5-0.8-0.788-1.125-0.862
				c-0.35-0.075-0.763-0.101-1.238-0.075C36.337,19.925,35.675,19.95,35.275,19.95z"/>
			
				<radialGradient id="SVGID_12_" cx="4.4702" cy="-24.4766" r="17.9824" gradientTransform="matrix(-0.0819 0.7455 0.696 0.0876 39.2528 18.2356)" gradientUnits="userSpaceOnUse">
				<stop  offset="0" style="stop-color:#D6C894"/>
				<stop  offset="1" style="stop-color:#A89642"/>
			</radialGradient>
			<path style="fill-rule:evenodd;clip-rule:evenodd;fill:url(#SVGID_12_);" d="M35.875,21.075c0.676,0.3,1.138,0.624,1.387,0.975
				c0.326,0.425,0.388,0.962,0.188,1.612c-0.1,0.325-0.225,0.601-0.375,0.825l-1.199,0.638l0.787-1.5
				c0.351-0.625,0.037-1.275-0.938-1.95c-0.225-0.15-1.112-0.625-2.662-1.425c-0.7-0.601-1.238-0.963-1.613-1.088
				c-0.6-0.149-1.749,0.226-3.449,1.125c-1.601,0.875-3.237,1.313-4.912,1.313c-1.775,0-2.675,0-2.7,0
				c-0.375,0.175-1.025,0.1-1.95-0.225c-1.075-0.375-1.95-0.55-2.625-0.525c-0.875,0.025-1.612,0.338-2.213,0.938
				c-0.1,0.125-0.449,0.625-1.05,1.5c-0.175,0.275-0.487,0.65-0.938,1.125c-0.325,0.426-0.375,0.9-0.149,1.425
				c0.225,0.525,0.875,0.976,1.949,1.351c0.525,0.175,1.025,0.3,1.5,0.375c-0.35,0.075-1.274-0.075-2.774-0.45
				c-1.975-0.525-2.55-1.4-1.726-2.625c0.201-0.3,0.463-0.575,0.788-0.825c0.275-0.2,0.575-0.6,0.899-1.2
				c0.55-0.975,1.4-1.7,2.551-2.175c1.4-0.6,2.825-0.55,4.274,0.15c0.45,0.2,0.9,0.324,1.351,0.375
				c0.25,0.024,0.787,0.037,1.612,0.037c1.925,0,3.275-0.188,4.05-0.563c0.325-0.125,1.088-0.463,2.287-1.013
				c1.15-0.475,2.013-0.712,2.588-0.712c0.649,0,1.199,0.125,1.65,0.375c0.274,0.125,0.8,0.5,1.574,1.125
				C34.438,20.387,35.051,20.725,35.875,21.075z"/>
			
				<radialGradient id="SVGID_13_" cx="4.061" cy="-24.1289" r="17.9824" gradientTransform="matrix(-0.0819 0.7455 0.696 0.0876 38.7521 18.1726)" gradientUnits="userSpaceOnUse">
				<stop  offset="0" style="stop-color:#FFF6D4"/>
				<stop  offset="1" style="stop-color:#E0CA70"/>
			</radialGradient>
			<path style="fill-rule:evenodd;clip-rule:evenodd;fill:url(#SVGID_13_);" d="M35.688,20.7c0.649,0.3,1.112,0.624,1.387,0.975
				c0.301,0.425,0.351,0.962,0.15,1.612c-0.1,0.325-0.225,0.601-0.375,0.825l-1.199,0.675l0.787-1.5
				c0.35-0.65,0.037-1.313-0.938-1.987c-0.25-0.175-1.138-0.65-2.662-1.425c-0.7-0.601-1.238-0.95-1.613-1.05
				c-0.6-0.15-1.75,0.225-3.449,1.125c-1.601,0.85-3.237,1.274-4.912,1.274c-1.751,0-2.651,0.013-2.701,0.038
				c-0.375,0.175-1.025,0.1-1.949-0.226c-1.101-0.375-1.975-0.563-2.625-0.563c-0.875,0.025-1.6,0.351-2.176,0.976
				c-0.325,0.324-0.687,0.812-1.087,1.462c-0.175,0.275-0.487,0.65-0.938,1.125c-0.3,0.45-0.338,0.938-0.112,1.463
				c0.225,0.524,0.862,0.963,1.912,1.313c0.525,0.199,1.025,0.337,1.5,0.412c-0.35,0.075-1.275-0.088-2.775-0.487
				c-1.949-0.525-2.525-1.4-1.725-2.625c0.2-0.275,0.462-0.538,0.787-0.787c0.275-0.226,0.576-0.638,0.9-1.238
				c0.55-0.975,1.4-1.7,2.55-2.175c1.4-0.575,2.825-0.524,4.275,0.15c0.45,0.225,0.899,0.35,1.35,0.375
				c0.175,0.024,0.712,0.037,1.612,0.037c1.9,0,3.251-0.175,4.051-0.524c0.325-0.126,1.088-0.463,2.287-1.013
				c1.15-0.475,2.025-0.713,2.625-0.713c0.649,0,1.188,0.112,1.613,0.338c0.299,0.149,0.837,0.537,1.611,1.162
				C34.25,20.05,34.863,20.375,35.688,20.7z"/>
			
				<radialGradient id="SVGID_14_" cx="4.2339" cy="-26.3652" r="16.4861" gradientTransform="matrix(-0.0819 0.7455 0.696 0.0876 41.9727 18.577)" gradientUnits="userSpaceOnUse">
				<stop  offset="0" style="stop-color:#FFF6D4"/>
				<stop  offset="1" style="stop-color:#E0CA70"/>
			</radialGradient>
			<path style="fill-rule:evenodd;clip-rule:evenodd;fill:url(#SVGID_14_);" d="M36.438,23.287c-0.525-0.8-1.25-1.75-2.176-2.85
				c-0.475-0.525-0.837-0.85-1.086-0.976c-0.375-0.2-0.813-0.162-1.313,0.113c-0.65,0.375-1.213,0.812-1.688,1.313
				c-0.575,0.624-0.826,1.199-0.75,1.725c0.299,1.851,0.449,3.013,0.449,3.487c0,1.2-1.949,1.726-5.85,1.575
				c-0.351,0-0.412-0.638-0.188-1.912c0.25-1.426-0.088-2.376-1.014-2.851c-0.949-0.475-1.799-0.463-2.549,0.038
				c-1.101,0.725-1.825,1.112-2.176,1.162c-0.924,0.175-1.787,0.513-2.587,1.013c-0.725,0.425-1.225,0.862-1.5,1.313
				c-0.325,0.55-0.738,0.762-1.237,0.638c0.1-0.275,0.275-0.588,0.524-0.938c0.5-0.7,1.1-1.226,1.8-1.575
				c0.301-0.125,1.188-0.475,2.663-1.05c1.025-0.426,1.725-0.788,2.1-1.088c0.45-0.399,1.063-0.625,1.837-0.675
				c0.776-0.025,1.438,0.137,1.988,0.487c1.051,0.7,1.574,1.8,1.574,3.3c0,0.825,0.013,1.263,0.039,1.313
				c0.074,0.226,0.449,0.363,1.125,0.413c0.85,0.05,1.574-0.113,2.174-0.488c0.676-0.425,0.9-0.987,0.676-1.688
				c-0.375-0.899-0.626-1.55-0.75-1.949c-0.176-0.676-0.063-1.3,0.338-1.875c0.649-1,1.5-1.763,2.549-2.288
				c1.376-0.699,2.438-0.5,3.188,0.601c0.775,1.1,1.301,1.8,1.576,2.1c0.074,0.075,0.274,0.237,0.6,0.487
				c0.325,0.226,0.486,0.813,0.486,1.763l-0.523,0.469C36.852,24.127,36.752,23.759,36.438,23.287z"/>
			<path style="fill-rule:evenodd;clip-rule:evenodd;fill:#FFFFFF;" d="M15.588,14.362c0.225,0,0.225,0.075,0,0.225
				c-0.525,0.301-0.838,0.488-0.938,0.563c-0.5,0.351-0.75,1.125-0.75,2.325c0,0.25-0.075,0.238-0.226-0.037
				c-0.125-0.275-0.175-0.65-0.149-1.125c0.024-0.525,0.275-0.988,0.75-1.388C14.7,14.55,15.138,14.362,15.588,14.362z"/>
			<path style="fill-rule:evenodd;clip-rule:evenodd;fill:#FFFFFF;" d="M7.3,20.063c0.55,0,1.025,0.088,1.425,0.263
				c0.4,0.175,0.45,0.262,0.15,0.262c-0.1,0-0.512,0.101-1.237,0.301c-0.7,0.175-1.213,0.249-1.538,0.225
				c-0.449-0.024-0.475-0.2-0.074-0.525C6.425,20.237,6.85,20.063,7.3,20.063z"/>
			<path style="fill-rule:evenodd;clip-rule:evenodd;fill:#FFFFFF;" d="M19.6,16.875c0.226,0.65,0.263,0.975,0.113,0.975
				c-0.175,0-0.313-0.212-0.413-0.638c-0.075-0.375-0.075-0.612,0-0.712C19.375,16.425,19.475,16.55,19.6,16.875z"/>
			<path style="fill-rule:evenodd;clip-rule:evenodd;fill:#FFFFFF;" d="M23.012,14.513c0.326,0.024,0.575,0.149,0.75,0.375
				c0.15,0.225,0.051,0.275-0.299,0.149c-0.225-0.075-0.575-0.087-1.051-0.037c-0.475,0.05-0.762,0.05-0.862,0
				c-0.2-0.05-0.088-0.15,0.337-0.3C22.313,14.55,22.688,14.487,23.012,14.513z"/>
			<path style="fill-rule:evenodd;clip-rule:evenodd;fill:#FFFFFF;" d="M29.65,15.263c0.325,0.1,0.475,0.225,0.449,0.375
				c-0.024,0.149-0.199,0.162-0.525,0.037c-0.225-0.1-0.637-0.05-1.236,0.15C27.787,16,27.45,16.05,27.324,15.975
				c-0.199-0.125,0.051-0.3,0.75-0.524C28.75,15.225,29.275,15.163,29.65,15.263z"/>
			<path style="fill-rule:evenodd;clip-rule:evenodd;fill:#FFFFFF;" d="M22.113,19.013c0.449-0.126,0.611-0.038,0.486,0.262
				c-0.124,0.301-0.412,0.45-0.862,0.45c-0.425,0-0.525-0.1-0.3-0.3C21.612,19.225,21.837,19.087,22.113,19.013z"/>
			<path style="fill-rule:evenodd;clip-rule:evenodd;fill:#FFFFFF;" d="M37.6,19.125c0.626,0.024,0.763,0.125,0.412,0.3
				c-0.349,0.15-0.687,0.212-1.012,0.188c-0.274-0.024-0.313-0.112-0.113-0.263C37.063,19.175,37.301,19.1,37.6,19.125z"/>
			<path style="fill-rule:evenodd;clip-rule:evenodd;fill:#FFFFFF;" d="M16.563,19.837c0.5,0.101,0.613,0.175,0.338,0.226
				c-0.275,0.05-0.601,0.037-0.976-0.038c-0.25-0.05-0.675,0.013-1.274,0.188c-0.425,0.101-0.588,0.113-0.488,0.038
				c0.201-0.175,0.563-0.3,1.088-0.375C15.775,19.775,16.212,19.763,16.563,19.837z"/>
			<path style="fill-rule:evenodd;clip-rule:evenodd;fill:#FFFFFF;" d="M10.225,18c0.351-0.075,0.576-0.088,0.676-0.038
				c0.1,0.051,0,0.126-0.301,0.226c-0.2,0.075-0.462,0.3-0.787,0.675c-0.275,0.3-0.462,0.399-0.563,0.3
				c-0.125-0.125-0.037-0.337,0.263-0.638C9.788,18.225,10.025,18.05,10.225,18z"/>
			<path style="fill-rule:evenodd;clip-rule:evenodd;fill:#FFFFFF;" d="M23.275,22.313c0.199,0.1,0.425,0.275,0.674,0.524
				c0.227,0.275,0.363,0.525,0.414,0.75c0.074,0.375-0.163,0.2-0.713-0.524c-0.15-0.226-0.451-0.4-0.9-0.525
				c-0.476-0.149-0.737-0.25-0.787-0.3c-0.125-0.125-0.038-0.188,0.262-0.188C22.55,22.074,22.9,22.162,23.275,22.313z"/>
			<path style="fill-rule:evenodd;clip-rule:evenodd;fill:#FFFFFF;" d="M26.088,22.612c0.449,0.024,0.6,0.112,0.449,0.263
				c-0.15,0.125-0.362,0.137-0.637,0.037c-0.225-0.1-0.301-0.175-0.225-0.225C25.725,22.612,25.863,22.588,26.088,22.612z"/>
			<path style="fill-rule:evenodd;clip-rule:evenodd;fill:#FFFFFF;" d="M20.762,23.55c0.401-0.25,0.337-0.05-0.188,0.6
				c-0.525,0.625-0.85,0.888-0.975,0.788c-0.125-0.1-0.012-0.325,0.338-0.675C20.212,23.962,20.487,23.725,20.762,23.55z"/>
			<path style="fill-rule:evenodd;clip-rule:evenodd;fill:#FFFFFF;" d="M31.037,19.388c0.325-0.15,0.313-0.063-0.037,0.262
				c-0.525,0.476-0.888,0.801-1.088,0.976c-0.25,0.25-0.438,0.563-0.563,0.938c-0.15,0.475-0.237,0.725-0.262,0.75
				c-0.15,0.3-0.188,0.063-0.113-0.713c0.025-0.35,0.325-0.787,0.9-1.313C30.351,19.813,30.738,19.513,31.037,19.388z"/>
			<path style="fill-rule:evenodd;clip-rule:evenodd;fill:#FFFFFF;" d="M34.824,22.537c0.026,0.1-0.111,0.088-0.412-0.037
				c-0.399-0.175-0.713-0.275-0.938-0.3c-1.225-0.075-1.975-0.213-2.25-0.413c-0.1-0.075-0.05-0.1,0.15-0.075
				c0.375,0.075,0.688,0.101,0.938,0.075c0.525-0.024,1.075,0.063,1.65,0.263C34.513,22.225,34.8,22.388,34.824,22.537z"/>
			<path style="fill-rule:evenodd;clip-rule:evenodd;fill:#FFFFFF;" d="M33.887,24.487c-0.274,0-0.349-0.088-0.225-0.263
				c0.125-0.2,0.325-0.3,0.6-0.3c0.876,0.024,1.125,0.125,0.75,0.3C34.663,24.399,34.288,24.487,33.887,24.487z"/>
			<path style="fill-rule:evenodd;clip-rule:evenodd;fill:#EFDFA1;" d="M12.588,20.024c0.524,0.025,0.563,0.138,0.112,0.338
				c-0.425,0.225-0.725,0.237-0.9,0.037C11.5,20.1,11.763,19.975,12.588,20.024z"/>
			<path style="fill-rule:evenodd;clip-rule:evenodd;fill:#EFDFA1;" d="M9.063,21.712c0.4,0,0.737,0.075,1.013,0.226
				c0.25,0.149,0.337,0.275,0.263,0.375c-0.05,0.1-0.325,0.175-0.825,0.225c-0.5,0.051-0.875,0.038-1.125-0.037
				c-0.275-0.051-0.325-0.2-0.15-0.45C8.388,21.825,8.663,21.712,9.063,21.712z"/>
			<path style="fill-rule:evenodd;clip-rule:evenodd;fill:#EFDFA1;" d="M15.588,21.112c0.475-0.024,0.662,0.075,0.563,0.3
				c-0.125,0.175-0.363,0.3-0.713,0.375c-0.375,0.15-0.65,0.25-0.825,0.3c-0.275,0.101-0.538,0.113-0.787,0.038
				c-0.275-0.1-0.163-0.287,0.337-0.563C14.663,21.287,15.138,21.137,15.588,21.112z"/>
			<path style="fill-rule:evenodd;clip-rule:evenodd;fill:#FFFFFF;" d="M18.063,21.75c0.375,0.45,0.425,0.638,0.15,0.563
				c-0.301-0.075-0.538-0.238-0.713-0.487c-0.15-0.2-0.163-0.338-0.037-0.413C17.612,21.337,17.813,21.45,18.063,21.75z"/>
			<path style="fill-rule:evenodd;clip-rule:evenodd;fill:#FFFFFF;" d="M15.55,23.362c0.8,0.2,1.225,0.351,1.275,0.45
				c0.05,0.05-0.138,0.088-0.563,0.112c-0.35,0.05-0.75-0.024-1.2-0.225c-0.45-0.175-0.737-0.362-0.862-0.563
				c-0.075-0.175,0.012-0.213,0.263-0.113C15.138,23.25,15.5,23.362,15.55,23.362z"/>
			<path style="fill-rule:evenodd;clip-rule:evenodd;fill:#FFFFFF;" d="M19.412,21.675c0.275,0,0.363,0.125,0.263,0.375
				c-0.125,0.225-0.313,0.287-0.563,0.188c-0.25-0.1-0.325-0.225-0.225-0.375C18.987,21.737,19.163,21.675,19.412,21.675z"/>
			<path style="fill-rule:evenodd;clip-rule:evenodd;fill:#FFFFFF;" d="M21.887,17.024c0.675,0.101,0.988,0.226,0.937,0.375
				c-0.024,0.15-0.199,0.226-0.523,0.226c-0.275,0-0.601-0.038-0.976-0.112c-0.425-0.075-0.674-0.163-0.75-0.263
				c-0.125-0.125-0.05-0.213,0.226-0.263C21.1,16.938,21.462,16.95,21.887,17.024z"/>
			<path style="fill-rule:evenodd;clip-rule:evenodd;fill:#EFDFA1;" d="M25.488,18.263c1.399,0,1.799,0.074,1.199,0.225
				c-0.775,0.2-1.287,0.287-1.537,0.263c-0.275-0.025-0.363-0.112-0.264-0.263C25.013,18.337,25.213,18.263,25.488,18.263z"/>
			<path style="fill-rule:evenodd;clip-rule:evenodd;fill:#FFFFFF;" d="M26.238,19.875c0.499-0.2,0.624-0.188,0.375,0.037
				c-0.251,0.2-0.575,0.4-0.977,0.601c-0.324,0.149-0.837,0.249-1.537,0.3c-0.625,0.05-1.088,0.05-1.387,0
				c-0.225-0.025-0.088-0.112,0.412-0.263c0.5-0.125,0.95-0.188,1.35-0.188c0.351,0,0.663-0.05,0.938-0.15
				C25.563,20.162,25.837,20.05,26.238,19.875z"/>
			<path style="fill-rule:evenodd;clip-rule:evenodd;fill:#EFDFA1;" d="M26.65,25.688c0.124,0,0.25,0.1,0.375,0.3
				c0.1,0.2,0.037,0.338-0.188,0.412c-0.251,0.05-0.513,0.025-0.787-0.074c-0.275-0.126-0.451-0.301-0.525-0.525
				c-0.076-0.15-0.025-0.225,0.15-0.225C26.226,25.649,26.55,25.688,26.65,25.688z"/>
			<path style="fill-rule:evenodd;clip-rule:evenodd;fill:#EFDFA1;" d="M23.35,25.462c0.425-0.249,0.388,0.075-0.111,0.976
				c-0.101,0.175-0.326,0.275-0.676,0.3c-0.325,0.024-0.575-0.05-0.75-0.225c-0.125-0.126,0-0.288,0.375-0.488
				C22.438,25.925,22.824,25.737,23.35,25.462z"/>
			<path style="fill-rule:evenodd;clip-rule:evenodd;fill:#FFFFFF;" d="M13.075,24.862c0.425,0.25,0.412,0.351-0.038,0.3
				c-0.449-0.05-0.75-0.175-0.899-0.375c-0.15-0.175-0.125-0.263,0.075-0.263C12.413,24.55,12.7,24.662,13.075,24.862z"/>
			<path style="fill-rule:evenodd;clip-rule:evenodd;fill:#FFFFFF;" d="M15.1,24.563c0.351-0.075,0.338,0.063-0.037,0.412
				c-0.35,0.325-0.663,0.55-0.938,0.675c-0.225,0.075-0.188-0.074,0.112-0.449S14.825,24.612,15.1,24.563z"/>
			<path style="fill-rule:evenodd;clip-rule:evenodd;fill:#FFFFFF;" d="M31.787,18.45c1.101,0.324,1.751,0.812,1.951,1.462
				c-0.2-0.225-0.688-0.5-1.463-0.825c-0.826-0.324-1.25-0.5-1.275-0.524c-0.125-0.075-0.087-0.125,0.113-0.15
				C31.313,18.362,31.537,18.375,31.787,18.45z"/>
			<path style="fill-rule:evenodd;clip-rule:evenodd;fill:#EFDFA1;" d="M27.963,20.587c0.7,0.175,0.837,0.338,0.412,0.488
				c-0.4,0.175-0.824,0.225-1.275,0.149c-0.35-0.075-0.375-0.212-0.074-0.412C27.351,20.587,27.662,20.513,27.963,20.587z"/>
			<path style="fill-rule:evenodd;clip-rule:evenodd;fill:#FFFFFF;" d="M19.225,19.5c0.325-0.051,0.463,0.063,0.413,0.337
				c-0.025,0.275-0.163,0.388-0.413,0.338c-0.225-0.024-0.337-0.138-0.337-0.338C18.888,19.662,19,19.55,19.225,19.5z"/>
			<path style="fill-rule:evenodd;clip-rule:evenodd;fill:#FFFFFF;" d="M17.65,16.612c0.225-0.075,0.262-0.013,0.112,0.188
				c-0.15,0.175-0.363,0.338-0.638,0.487c-0.675,0.4-1.2,0.563-1.575,0.487c-0.2-0.024-0.175-0.1,0.075-0.225
				c0.225-0.1,0.462-0.163,0.713-0.188c0.149,0,0.337-0.1,0.563-0.3C17.15,16.837,17.4,16.688,17.65,16.612z"/>
			<path style="fill-rule:evenodd;clip-rule:evenodd;fill:#FFFFFF;" d="M37.938,21h1.088c0.05,0.125,0.074,0.313,0.074,0.563
				c0,1.824-1.712,3.375-5.137,4.649c-3.425,1.275-7.563,1.913-12.413,1.913c-4.851,0-8.988-0.638-12.413-1.913
				C5.712,24.938,4,23.387,4,21.563L4.075,21H5.35v0.3c0,1.625,1.588,3,4.763,4.125c3.175,1.149,7.013,1.725,11.513,1.725
				c4.525,0,8.375-0.575,11.551-1.725c3.175-1.125,4.762-2.5,4.762-4.125V21z"/>
		</g>
		<g>
			<path style="fill-rule:evenodd;clip-rule:evenodd;fill:#B54624;" d="M13.311,16.413c-0.253,0.093-0.451,0.25-0.594,0.472
				l1.188-0.144C13.68,16.6,13.482,16.489,13.311,16.413z M14.697,17.913c0.026,0.019,0.555,0.248,1.584,0.686
				c0.845,0.362,1.228,0.629,1.149,0.801c-0.106,0.189-0.674,0.333-1.704,0.428c-0.951,0.038-1.611,0.096-1.98,0.172
				c-0.634,0.133-1.109,0.523-1.426,1.171c-0.053,0.114-0.065,0.457-0.04,1.028c0.026,0.438-0.119,0.763-0.436,0.972
				c-0.74,0.477-1.109,0.286-1.109-0.571c0-0.171,0.211-0.6,0.634-1.285c0.211-0.324-0.066-0.695-0.832-1.115
				c-0.898-0.305-1.532-0.562-1.901-0.771c-0.687-0.4-0.449-0.781,0.713-1.144c0.264-0.076,0.924,0.029,1.98,0.314
				c0.898,0.248,1.479,0.2,1.743-0.143c-0.237-0.629-0.409-1.152-0.515-1.571c-0.146-0.619,0.104-0.776,0.752-0.472
				c0.075-0.03,0.154-0.055,0.238-0.071c0.37-0.076,0.74-0.038,1.109,0.114C14.393,17.161,14.407,17.646,14.697,17.913z"/>
			<path style="fill-rule:evenodd;clip-rule:evenodd;fill:#B54624;" d="M25.987,16.027l-0.911-0.4
				c0.544,0.262,0.346,0.815-0.595,1.657c-0.924,0.819-0.818,1.391,0.317,1.715c-0.396,0.59-1.175,0.733-2.337,0.429
				c-1.744-0.477-2.681-0.715-2.813-0.715c-0.211-0.647,0.066-1.066,0.832-1.257c0.422-0.114,1.123-0.22,2.1-0.314
				c-0.317-0.857,0.052-1.486,1.108-1.885C24.772,14.837,25.538,15.094,25.987,16.027z"/>
			<path style="fill-rule:evenodd;clip-rule:evenodd;fill:#B54624;" d="M28.166,17.856c-0.132-0.629,0.237-0.963,1.109-1
				c0.658-0.019,1.293,0.11,1.901,0.385c0.515-0.146,0.977-0.295,1.387-0.442c0.265-0.038,0.62,0.162,1.069,0.601
				c0.493,0.86,0.718,1.228,0.674,1.1c0.057,0.144,0.229,0.264,0.515,0.357c0.158,0.057,0.158,0.237,0,0.543
				c-0.317,0.646-0.779,0.799-1.386,0.457c-0.635-0.553-1.07-0.896-1.308-1.029c-0.529-0.305-1.149-0.552-1.862-0.743
				C29.5,17.894,28.8,17.818,28.166,17.856z"/>
			<path style="fill-rule:evenodd;clip-rule:evenodd;fill:#B54624;" d="M22.026,22.17c-1.136-0.076-1.81-0.171-2.021-0.285
				c-0.529-0.324-0.357-0.638,0.514-0.943c0.74-0.247,1.44-0.361,2.1-0.343c0.317,0,0.925,0.114,1.822,0.343
				c0.581,0.134,1.096,0.067,1.545-0.2c0.475-0.571,0.818-0.942,1.03-1.114c0.29-0.243,0.857-0.191,1.703,0.157l-0.753-0.328
				c1.109,0.248,1.519,0.581,1.229,1c-0.502,0.762-0.727,1.238-0.674,1.429s0.515,0.485,1.387,0.886
				c0.713,0.323,0.897,0.724,0.555,1.2c-0.265,0.419-0.766,0.485-1.506,0.199c-0.845-0.419-1.438-0.657-1.782-0.714
				c-1.03,0-1.77-0.02-2.219-0.057c-0.792-0.077-0.99-0.438-0.594-1.086C24.231,22.294,23.452,22.247,22.026,22.17z"/>
			<path style="fill-rule:evenodd;clip-rule:evenodd;fill:#B54624;" d="M33.712,20.741c0.37,0.077,0.646,0.229,0.832,0.457
				l0.02,0.029L33.712,20.741z M34.583,21.271c0.125,0.211,0.151,0.453,0.08,0.729c-0.688,0.038-1.387-0.01-2.1-0.143
				c-0.978-0.21-1.4-0.534-1.268-0.972c0.132-0.438,0.646-0.524,1.545-0.258C33.292,20.771,33.873,20.986,34.583,21.271z"/>
			<path style="fill-rule:evenodd;clip-rule:evenodd;fill:#B54624;" d="M30.127,25.542c0.053,0.08,0.112,0.175,0.179,0.285
				c-0.502,0.42-1.439,0.705-2.813,0.857c-1.269,0.134-2.285,0.114-3.051-0.058c0.185-0.095,0.66-0.457,1.426-1.085
				c0.555-0.458,1.057-0.724,1.506-0.801c0.634-0.114,1.241-0.019,1.822,0.286C29.428,25.156,29.738,25.327,30.127,25.542z"/>
			<path style="fill-rule:evenodd;clip-rule:evenodd;fill:#B54624;" d="M14.539,23.827c0.766,0.152,1.4,0.104,1.902-0.143
				c0.053-0.02,0.449-0.438,1.188-1.257c0.422-0.477,0.977-0.534,1.664-0.172c0.476,0.286,0.476,0.609,0,0.972
				c-0.29,0.19-0.779,0.505-1.465,0.942c0.37,0.629,0.633,0.991,0.792,1.086c0.211,0.114,0.753,0.181,1.624,0.2
				c1.347,0.038,2.073,0.066,2.179,0.086c0.767,0.133,1.097,0.533,0.99,1.199c-3.248,0.038-5.691,0.038-7.328,0
				c-1.03-0.037-2.047-0.219-3.05-0.543c-1.417-0.457-2.308-0.742-2.674-0.856c0.625,0.168,1.107,0.024,1.445-0.429
				c0.528-0.686,0.898-1.066,1.109-1.143C13.205,23.655,13.747,23.675,14.539,23.827z"/>
			<path style="fill-rule:evenodd;clip-rule:evenodd;fill:#782E18;" d="M18.064,24.027h-0.198c0.264-0.571,0.779-0.81,1.545-0.714
				c0.211,0.666-0.04,1.152-0.753,1.457c0.079,0.037,0.198,0.152,0.356,0.343c0.185,0.171,0.33,0.286,0.436,0.343
				c-0.423,0.305-0.964,0.199-1.624-0.314C17.166,24.627,17.246,24.256,18.064,24.027z"/>
			<path style="fill-rule:evenodd;clip-rule:evenodd;fill:#782E18;" d="M14.103,24.885l-0.198,0.143
				c0.159,0.019,0.488,0.152,0.991,0.4c-0.423,0.419-0.779,0.504-1.069,0.257C13.535,25.437,13.628,25.17,14.103,24.885z"/>
			<path style="fill-rule:evenodd;clip-rule:evenodd;fill:#782E18;" d="M25.987,21.741h-0.039c0.078,0.324,0.501,0.733,1.267,1.229
				c0.688,0.419,1.308,0.714,1.862,0.886c-0.502,0.209-1.109,0.199-1.822-0.029c-0.897-0.267-1.519-0.391-1.861-0.371
				c0.105,0.724-0.066,1.01-0.516,0.857c-0.449-0.134-0.792-0.438-1.03-0.914c-0.185-0.629-0.329-1.02-0.436-1.172
				c-0.132-0.19-0.66-0.362-1.584-0.515c0.185-0.438,0.792-0.571,1.823-0.399C24.205,21.428,24.983,21.57,25.987,21.741z"/>
			<path style="fill-rule:evenodd;clip-rule:evenodd;fill:#782E18;" d="M28.563,21.027l-0.793-0.143
				c1.215,0.038,1.506,0.285,0.872,0.742c-0.186,0.152-0.356,0.191-0.515,0.114c-0.212-0.095-0.265-0.333-0.159-0.714
				C28.101,21.009,28.299,21.009,28.563,21.027z"/>
			<path style="fill-rule:evenodd;clip-rule:evenodd;fill:#782E18;" d="M29.829,18.084c-0.396-0.133-0.686-0.305-0.871-0.514
				c0.449-0.152,1.03-0.181,1.743-0.086c0.27,0.036,0.613,0.084,1.03,0.143c0.012,0.066,0.051,0.181,0.119,0.344
				c0.079,0.19,0.105,0.343,0.079,0.457c0.792,0.171,1.36,0.552,1.703,1.143c0.316,0.609-0.066,0.705-1.148,0.286
				c-0.291-0.096-0.568-0.305-0.832-0.629c-0.317-0.381-0.567-0.629-0.753-0.743C30.715,18.37,30.358,18.236,29.829,18.084z"/>
			<path style="fill-rule:evenodd;clip-rule:evenodd;fill:#782E18;" d="M18.896,18.241c0.182-0.066,0.434-0.09,0.753-0.071
				l-0.297,0.043c0.053,0.016,0.1,0.039,0.138,0.071c0.159,0.134,0.132,0.371-0.079,0.715c-0.713-0.02-1.003-0.172-0.872-0.457
				c0.039-0.104,0.111-0.185,0.218-0.243l-0.099,0.015C18.742,18.281,18.82,18.257,18.896,18.241z"/>
			<path style="fill-rule:evenodd;clip-rule:evenodd;fill:#782E18;" d="M16.203,18.484c0.475,0.21,1.333,0.533,2.575,0.972
				c-0.555,0.209-1.334,0.4-2.337,0.571c-1.083,0.209-1.875,0.391-2.377,0.543c-0.713,0.229-1.281,0.819-1.704,1.771
				c-0.422,0.914-0.832,1.419-1.228,1.515c-0.079-1.238,0.079-2.172,0.475-2.801c0.502-0.762,1.453-1.267,2.853-1.514
				c-0.688-0.496-1.07-1.096-1.149-1.801c0.162,0,0.386,0.038,0.673,0.115c0.143-0.371,0.249-0.647,0.317-0.829
				C14.75,17.655,15.384,18.142,16.203,18.484z"/>
			<path style="fill-rule:evenodd;clip-rule:evenodd;fill:#782E18;" d="M17.728,16.042l-0.06-0.015
				c0.713,0.057,1.069,0.305,1.069,0.743c-0.026,0.419-0.369,0.543-1.03,0.371c-0.634-0.171-0.832-0.447-0.594-0.828
				C17.248,16.107,17.453,16.018,17.728,16.042z"/>
			<path style="fill-rule:evenodd;clip-rule:evenodd;fill:#782E18;" d="M32.722,22.17l-0.396-1.128
				c0.046,0.103,0.324,0.384,0.832,0.843c0.344,0.305,0.37,0.581,0.08,0.828c-0.238,0.248-0.7,0.286-1.387,0.114
				c-0.74-0.247-1.242-0.419-1.506-0.514c0.106-0.553,0.462-0.839,1.069-0.857C31.995,21.437,32.432,21.675,32.722,22.17z"/>
			<path style="fill-rule:evenodd;clip-rule:evenodd;fill:#782E18;" d="M20.045,20.027l-0.991-0.143
				c0.344-0.305,0.766-0.391,1.268-0.258c0.502,0.134,0.647,0.391,0.437,0.772c-0.132,0.228-0.542,0.438-1.229,0.628
				c-0.475,0.134-0.963,0.22-1.465,0.257c-0.106-0.419,0.053-0.752,0.475-1C18.963,20.056,19.464,19.971,20.045,20.027z"/>
			<path style="fill-rule:evenodd;clip-rule:evenodd;fill:#782E18;" d="M26.008,17.885c0.598,0.113,1.04,0.161,1.326,0.143
				c0,0.419-0.265,0.686-0.792,0.8c-0.528,0.114-1.043,0.066-1.545-0.143C25.063,18.203,25.4,17.937,26.008,17.885z"/>
			<path style="fill-rule:evenodd;clip-rule:evenodd;fill:#782E18;" d="M23.214,24.313h-0.297c0.331,0.033,0.654,0.119,0.971,0.257
				c0.555,0.248,0.779,0.581,0.674,1c-1.426-0.076-2.483-0.362-3.169-0.857c0.185-0.267,0.436-0.429,0.753-0.485
				C22.488,24.151,22.845,24.18,23.214,24.313z"/>
			<path style="fill-rule:evenodd;clip-rule:evenodd;fill:#782E18;" d="M14.499,22.599l-0.396-0.143
				c1.083-0.134,1.465,0.076,1.149,0.628c-0.317,0.534-0.898,0.648-1.743,0.344C13.403,22.913,13.733,22.637,14.499,22.599z"/>
			<path style="fill-rule:evenodd;clip-rule:evenodd;fill:#782E18;" d="M25.294,15.47c-0.035-0.006-0.067-0.01-0.099-0.014h0.258
				C25.4,15.459,25.348,15.464,25.294,15.47c0.517,0.05,1.525,0.093,3.03,0.128c0.026,0.477-0.555,0.81-1.743,1
				c-1.479,0.248-2.402,0.515-2.772,0.801c-0.158-0.515-0.053-0.972,0.317-1.372C24.408,15.707,24.797,15.521,25.294,15.47z"/>
			<path style="fill-rule:evenodd;clip-rule:evenodd;fill:#90A701;" d="M14.697,16.313l-0.159,0.057
				c-0.079,0.038-0.092,0.104-0.04,0.2c0.502,0.038,1.215,0,2.14-0.114c0.159,0.571,0.013,1.133-0.436,1.686
				c-0.872-0.248-1.453-0.438-1.743-0.571c-0.476-0.21-0.529-0.629-0.159-1.257H14.697z"/>
			<path style="fill-rule:evenodd;clip-rule:evenodd;fill:#90A701;" d="M20.441,14.742l-0.396,0.286
				c0.475,0.019,0.818,0.19,1.03,0.515c0.158,0.286,0.198,0.628,0.119,1.028c-0.978,0.095-1.585-0.124-1.822-0.657
				C19.107,15.379,19.464,14.989,20.441,14.742z"/>
			<path style="fill-rule:evenodd;clip-rule:evenodd;fill:#90A701;" d="M27.632,16.441c0.332-0.16,0.695-0.203,1.089-0.128
				c0.026,0.647-0.198,1.047-0.674,1.199c-0.369,0.134-0.766,0.086-1.188-0.143c-0.422-0.229-0.554-0.447-0.396-0.657
				C26.638,16.544,27.028,16.454,27.632,16.441z"/>
			<path style="fill-rule:evenodd;clip-rule:evenodd;fill:#90A701;" d="M29.751,19.313c-0.216,0.077-0.413,0.225-0.595,0.442
				c-0.118-0.056-0.251-0.108-0.396-0.157L29.751,19.313z M29.156,19.756c0.576,0.263,0.854,0.591,0.832,0.985
				c-0.026,0.477-0.502,0.457-1.426-0.057c0.264-0.457,0.422-0.714,0.475-0.771C29.077,19.856,29.116,19.804,29.156,19.756z"/>
			<path style="fill-rule:evenodd;clip-rule:evenodd;fill:#90A701;" d="M27.671,22.642c0.062,0.019,0.121,0.043,0.178,0.071
				c0.264,0.127,0.422,0.346,0.476,0.657c0.105,0.591-0.343,0.724-1.347,0.4c-0.818-0.286-1.003-0.572-0.555-0.857
				c0.22-0.149,0.472-0.239,0.753-0.271C27.332,22.624,27.498,22.624,27.671,22.642z"/>
			<path style="fill-rule:evenodd;clip-rule:evenodd;fill:#90A701;" d="M20.045,24.456l-0.594,0.285
				c0.871-0.133,1.36,0.048,1.465,0.543c0.106,0.477-0.303,0.725-1.228,0.743c-1.083,0-1.452-0.286-1.109-0.857
				C18.896,24.599,19.385,24.36,20.045,24.456z"/>
			<path style="fill-rule:evenodd;clip-rule:evenodd;fill:#90A701;" d="M11.548,22.327c-0.025,0.027-0.051,0.056-0.08,0.086
				c-0.043,0.01-0.089,0.024-0.139,0.043L11.548,22.327z M11.469,22.413c0.675-0.212,1.025,0.012,1.05,0.671
				c0.026,0.705-0.317,1.02-1.03,0.943c-0.661-0.076-0.806-0.429-0.436-1.057C11.186,22.75,11.325,22.564,11.469,22.413z"/>
			<path style="fill-rule:evenodd;clip-rule:evenodd;fill:#90A701;" d="M9.151,19.456c0.528-0.096,1.043-0.01,1.545,0.257
				c0.501,0.305,0.449,0.591-0.159,0.857c-0.581,0.248-1.03,0.162-1.347-0.257c-0.316-0.4-0.33-0.771-0.04-1.115
				C9.099,19.313,9.099,19.399,9.151,19.456z"/>
			<path style="fill-rule:evenodd;clip-rule:evenodd;fill:#90A701;" d="M33.315,17.885H32.92c0.792-0.114,1.387,0.076,1.782,0.571
				l-0.237,0.828c-0.185-0.057-0.304-0.095-0.356-0.114c-0.053-0.038-0.133-0.133-0.237-0.285c-0.238,0.038-0.556,0.028-0.951-0.028
				C32.761,18.456,32.894,18.132,33.315,17.885z"/>
		</g>
	</g>
	<g>
		<g>
			<path style="fill-rule:evenodd;clip-rule:evenodd;fill:#8F7F59;" d="M30.829,17.766c0.311,0,0.362,0.061,0.155,0.182
				c-0.207,0.086-0.371,0.172-0.491,0.259c-0.328,0.275-0.726,0.5-1.191,0.673c-1.19,0.328-2.2,0.621-3.029,0.88
				c-1.07,0.346-2.243,1.045-3.521,2.098c-0.949,0.811-2.011,1.492-3.185,2.045c-0.328,0.155-0.725,0.432-1.191,0.828l-0.595,0.519
				l-0.389-0.751v-1.631c-0.552-0.294-1.044-0.604-1.476-0.933c-0.862-0.655-0.983-1.062-0.362-1.217
				C16.538,20.476,21.63,19.491,30.829,17.766z"/>
			<path style="fill-rule:evenodd;clip-rule:evenodd;fill:#94845D;" d="M11.05,23.255c4.349,0.673,6.541,1.087,6.576,1.242
				l0.181,0.776l-1.993-0.052c-0.673-0.034-1.942-0.216-3.806-0.543c-0.466-0.069-1.147-0.233-2.045-0.492
				c-0.829-0.225-1.346-0.389-1.553-0.492L7.917,23.41C9.021,23.306,10.066,23.255,11.05,23.255z"/>
			<path style="fill-rule:evenodd;clip-rule:evenodd;fill:#695322;" d="M25.651,18.387c2.969-0.432,4.557-0.646,4.764-0.646
				c0.328,0,0.535,0.017,0.621,0.052c0.087,0.034,0.018,0.068-0.207,0.103c-0.173,0.035-0.293,0.087-0.362,0.156
				c-0.104,0.086-0.173,0.138-0.207,0.155c-0.673,0.38-1.467,0.655-2.382,0.828c-1.088,0.242-2.261,0.664-3.521,1.269
				c-0.467,0.225-1.097,0.656-1.891,1.295c-0.846,0.69-1.51,1.165-1.993,1.424c-0.639,0.345-1.286,0.785-1.942,1.32l-0.803,0.673
				c-0.621,0.121-1.476,0.112-2.563-0.025c-1.07-0.139-1.847-0.242-2.331-0.311c-0.846-0.139-1.501-0.277-1.967-0.415l-3.055-0.88
				c0.725-0.518,1.277-0.933,1.657-1.243c1.571-0.483,3.202-0.975,4.894-1.476c3.383-1.001,5.368-1.527,5.954-1.579
				C20.801,19.052,22.579,18.818,25.651,18.387z"/>
			<path style="fill-rule:evenodd;clip-rule:evenodd;fill:#F27922;" d="M25.366,14.581c1.261,0.346,2.339,0.751,3.236,1.217
				c1.019,0.535,1.666,1.019,1.941,1.45c-0.138,0.432-0.569,0.785-1.294,1.062c-0.293,0.121-0.924,0.311-1.89,0.569
				c-0.967,0.259-1.786,0.518-2.46,0.776c-0.708,0.276-1.527,0.769-2.459,1.476c-1.036,0.794-1.64,1.234-1.813,1.32
				c-0.397,0.208-1.053,0.647-1.967,1.321c-0.449,0.345-0.863,0.664-1.243,0.957l-3.599-0.259c-0.397-0.034-1.476-0.25-3.236-0.646
				l-2.537-0.596c-0.397-0.207-0.63-0.466-0.699-0.777c-0.051-0.172-0.008-0.535,0.13-1.087l0.104-0.233l0.622-0.543
				c0.535-0.397,1.337-1.07,2.407-2.02c0.829-0.708,1.916-1.459,3.262-2.253c1.381-0.793,2.485-1.311,3.314-1.553
				c1.104-0.328,2.503-0.579,4.194-0.751C22.554,13.994,23.883,14.184,25.366,14.581z"/>
			
				<use xlink:href="#flash0.ai_x5F_8_x2F_Layer_2_copy_x2F__x3C_Path_x3E__x5F_34"  width="31.766" height="12.653" x="-0.016" y="-12.653" transform="matrix(0.5178 0 0 -0.5178 8.7998 14.25)" style="overflow:visible;opacity:0.6211;enable-background:new    ;"/>
			<g>
				<path style="fill-rule:evenodd;clip-rule:evenodd;fill:#FF9B4A;" d="M21.82,14.4l0.622,0.544
					c0.448,0.431,0.776,0.819,0.983,1.165c0.483,0.829,0.639,1.786,0.466,2.874c-0.104,0.673-0.232,0.699-0.388,0.077
					c0.104-0.017,0.189-0.095,0.259-0.232c0.138-0.259,0.112-0.656-0.078-1.191c-0.276-0.794-0.862-1.553-1.76-2.278l-1.243-0.829
					c-0.432-0.034-0.872-0.052-1.32-0.052c-0.518,0-0.958,0.026-1.32,0.078c0.69-0.155,1.329-0.276,1.916-0.362
					C20.767,14.176,21.389,14.245,21.82,14.4z"/>
				<path style="fill-rule:evenodd;clip-rule:evenodd;fill:#FF9B4A;" d="M28.914,17.585c0.379-0.328,0.534-0.622,0.465-0.881
					c-0.051-0.207-0.293-0.501-0.725-0.88l0.984,0.596c0.052,0.396-0.043,0.759-0.285,1.087c-0.293,0.293-0.475,0.475-0.544,0.544
					c-0.189,0.138-0.302,0.172-0.336,0.104C28.438,18.085,28.585,17.895,28.914,17.585z"/>
				<path style="fill-rule:evenodd;clip-rule:evenodd;fill:#FF9B4A;" d="M19.386,14.917l0.673,0.518
					c0.518,0.397,0.897,0.751,1.139,1.062c0.691,0.88,1.14,1.847,1.347,2.899c0.138,0.639,0.061,0.717-0.233,0.233
					c0.018-0.19-0.034-0.449-0.155-0.777c-0.224-0.621-0.656-1.242-1.294-1.863c-0.518-0.501-1.26-0.924-2.227-1.269l-1.294-0.388
					l-0.466,0.052c-0.57,0.069-1.191,0.181-1.864,0.336l0.829-0.414C17.134,15.099,18.316,14.97,19.386,14.917z"/>
				<path style="fill-rule:evenodd;clip-rule:evenodd;fill:#FF9B4A;" d="M18.117,23.073l-0.207,0.337
					c-0.018-0.28-0.216-0.687-0.596-1.218c-0.432-0.621-1.312-1.242-2.641-1.863l-1.864-0.777c-1.329,0.018-2.451,0.207-3.365,0.57
					c-0.311,0.12-0.691,0.311-1.14,0.569c0.138-0.155,0.415-0.414,0.829-0.776c1.346-0.57,2.805-0.924,4.375-1.063l0.983,0.467
					c0.76,0.396,1.39,0.785,1.89,1.165C17.16,21.105,17.738,21.969,18.117,23.073z"/>
				<path style="fill-rule:evenodd;clip-rule:evenodd;fill:#FF9B4A;" d="M17.341,19.034c0.483,0.328,0.967,0.794,1.45,1.398
					c0.586,0.725,1.044,1.492,1.372,2.304l-0.828,0.544c-0.017-0.052,0.026-0.216,0.129-0.492c0.104-0.259,0.138-0.432,0.104-0.518
					c-0.5-1.329-1.623-2.451-3.365-3.365l-2.46-0.958c-0.656,0.068-1.355,0.189-2.097,0.362c-0.397,0.086-0.768,0.198-1.113,0.336
					l0.077-0.077l0.88-0.674c1.104-0.293,2.192-0.466,3.262-0.518L17.341,19.034z"/>
				<path style="fill-rule:evenodd;clip-rule:evenodd;fill:#FF9B4A;" d="M17.6,17.455l-2.201-0.803
					c-0.88,0.087-1.769,0.216-2.667,0.389l0.958-0.596c0.984-0.155,1.959-0.233,2.926-0.233l1.139,0.57
					c0.828,0.466,1.45,0.889,1.864,1.269c1.053,0.966,1.734,2.063,2.045,3.288l0.077,0.336l-0.31,0.233
					c-0.052-0.069-0.121-0.319-0.208-0.751c-0.086-0.466-0.224-0.863-0.414-1.191C20.258,19.034,19.188,18.197,17.6,17.455z"/>
				<path style="fill-rule:evenodd;clip-rule:evenodd;fill:#FF9B4A;" d="M27.696,16.549c-0.086-0.432-0.621-1.01-1.604-1.734
					l1.062,0.336c0.466,0.449,0.733,0.915,0.802,1.398c0.069,0.38,0.018,0.708-0.155,0.983c-0.12,0.225-0.189,0.312-0.206,0.26
					l0.025-0.156C27.826,17.636,27.853,17.273,27.696,16.549z"/>
				<path style="fill-rule:evenodd;clip-rule:evenodd;fill:#FF9B4A;" d="M24.046,14.271c1.053,0.725,1.675,1.251,1.864,1.58
					c0.155,0.31,0.241,0.725,0.259,1.243c0,0.448-0.034,0.751-0.104,0.906c-0.026,0.053-0.061,0.104-0.104,0.155
					c-0.021,0.171-0.073,0.274-0.155,0.311l-0.284-0.052c0.19-0.072,0.337-0.158,0.439-0.259c0.016-0.161,0.007-0.377-0.025-0.647
					c-0.121-0.897-0.57-1.7-1.347-2.408l-1.113-0.803c-0.345-0.035-0.733-0.095-1.165-0.181l-0.284-0.104
					C22.804,14.081,23.477,14.167,24.046,14.271z"/>
			</g>
			<path style="fill-rule:evenodd;clip-rule:evenodd;fill:#C25B10;" d="M26.479,17.325c0.483-0.068,1.217-0.129,2.201-0.181
				c0.535-0.052,1.156-0.009,1.863,0.129c-0.172,0.432-0.604,0.777-1.294,1.036c-0.293,0.121-0.924,0.311-1.89,0.569
				c-0.967,0.259-1.786,0.518-2.46,0.776c-0.708,0.276-1.527,0.769-2.459,1.476c-1.036,0.794-1.64,1.234-1.813,1.32
				c-0.397,0.208-1.053,0.647-1.967,1.321c-0.449,0.345-0.863,0.664-1.243,0.957l-0.802-0.051l0.259-1.347
				c0.172-0.069,0.794-0.613,1.864-1.631c0.535-0.501,1.26-1.2,2.175-2.098c0.811-0.69,1.666-1.208,2.563-1.553
				C24.374,17.705,25.375,17.464,26.479,17.325z"/>
			<path style="fill-rule:evenodd;clip-rule:evenodd;fill:#D16211;" d="M17.263,24.729l-3.573-0.232
				c-0.379-0.034-1.441-0.251-3.185-0.647L8.021,23.28c-0.207-0.19-0.354-0.432-0.44-0.726c-0.069-0.241-0.061-0.552,0.026-0.932
				l0.104-0.181c0.742-0.415,1.657-0.647,2.744-0.699c1.346-0.052,2.693,0.284,4.039,1.01c0.76,0.396,1.614,0.88,2.563,1.449
				l0.129,0.544c0.069,0.414,0.104,0.733,0.104,0.958L17.263,24.729z"/>
			<path style="fill-rule:evenodd;clip-rule:evenodd;fill:#FFC17A;" d="M24.331,14.4c0.708,0.069,1.174,0.164,1.397,0.285
				l-0.75-0.052c-0.241-0.035-0.432-0.052-0.569-0.052c-0.276-0.034-0.526-0.034-0.751,0c-0.19,0.035-0.389,0.052-0.596,0.052
				c-0.414,0-0.751,0.009-1.01,0.026c-0.708,0.035-1.208,0.086-1.501,0.156c-0.19,0.034-0.415,0.112-0.673,0.233
				c-0.293,0.121-0.552,0.207-0.776,0.259c-0.293,0.052-0.587,0.155-0.88,0.311c-0.363,0.225-0.673,0.397-0.932,0.518
				c-0.189,0.104-0.388,0.25-0.596,0.44c-0.121,0.086-0.311,0.154-0.569,0.207c-0.311,0.052-0.535,0.146-0.673,0.284
				c-0.19,0.225-0.389,0.449-0.596,0.674c-0.104,0.104-0.483,0.526-1.139,1.269c-0.086,0.12-0.146,0.198-0.181,0.232
				c-0.035,0.035-0.129,0.095-0.285,0.182l-0.699,0.466c-0.207,0.155-0.492,0.319-0.854,0.492c-0.19-0.018-0.285-0.052-0.285-0.104
				l0.026-0.078l0.233-0.284l1.631-1.554c0.087-0.087,0.285-0.259,0.596-0.518c0.207-0.173,0.345-0.312,0.415-0.415
				c0.224-0.293,0.587-0.552,1.087-0.776c0.225-0.086,0.432-0.207,0.622-0.362c0.121-0.069,0.268-0.173,0.44-0.311
				c0.155-0.121,0.509-0.302,1.061-0.544c0.57-0.259,0.966-0.406,1.191-0.44c0.104-0.018,0.492-0.121,1.165-0.311
				c0.622-0.19,1.07-0.294,1.346-0.311C22.45,14.288,23.485,14.296,24.331,14.4z"/>
			<path style="fill-rule:evenodd;clip-rule:evenodd;fill:#F27922;" d="M15.14,21.96c-1.087-0.656-1.855-1.036-2.304-1.14
				c-0.759-0.189-1.45-0.259-2.071-0.207c-1.139,0.035-1.993,0.164-2.563,0.389c-0.363,0.155-0.432,0.112-0.208-0.13
				c0.449-0.241,1.044-0.431,1.787-0.569c0.949-0.189,1.804-0.181,2.563,0.026c0.742,0.207,1.596,0.552,2.563,1.035
				c0.725,0.362,1.277,0.673,1.657,0.932c0.536,0.397,0.837,0.924,0.906,1.579c0.052,0.483,0.035,0.769-0.052,0.854l-3.184-0.181
				l-0.777-0.129l0.906,0.051c0.69,0.018,1.225,0.018,1.605,0c0.518-0.034,0.828-0.095,0.932-0.181
				c0.155-0.138,0.104-0.415-0.155-0.829c-0.328-0.518-0.543-0.828-0.647-0.932C15.943,22.392,15.624,22.201,15.14,21.96z"/>
			<path style="fill-rule:evenodd;clip-rule:evenodd;fill:#F27922;" d="M17.911,22.504c0-0.104,0.008-0.225,0.026-0.363
				c0.051-0.275,0.138-0.475,0.259-0.596c0.207-0.172,0.5-0.224,0.88-0.155l-0.182,0.674c-0.034,0.173,0.018,0.336,0.156,0.491
				c0.069,0.087,0.181,0.217,0.336,0.389c0.069,0.138,0.043,0.242-0.078,0.312c-0.121,0.068-0.242,0.077-0.362,0.025
				c-0.069-0.034-0.112-0.164-0.129-0.389c-0.018-0.311-0.052-0.526-0.104-0.646c-0.069-0.155-0.172-0.19-0.311-0.104
				C18.229,22.296,18.066,22.417,17.911,22.504z"/>
			<path style="fill-rule:evenodd;clip-rule:evenodd;fill:#F27922;" d="M25.833,17.352c-0.052,0.052-0.112,0.104-0.182,0.155
				c-0.104,0.138-0.164,0.259-0.182,0.362c0,0.069,0.026,0.155,0.078,0.259c0.034,0.069,0.026,0.164-0.025,0.285
				c-0.069,0.155-0.173,0.173-0.312,0.052c-0.12-0.121-0.198-0.259-0.232-0.414c-0.018-0.139-0.147-0.225-0.389-0.259
				c-0.207-0.035-0.432-0.026-0.673,0.025l0.414-0.285c0.311-0.189,0.526-0.293,0.647-0.311
				C25.186,17.188,25.47,17.23,25.833,17.352z"/>
			<path style="fill-rule:evenodd;clip-rule:evenodd;fill:#F27922;" d="M25.522,18.827l0.181,0.311l0.181,0.052
				c0.121,0.035,0.19,0.069,0.208,0.104c0.034,0.069,0.017,0.13-0.052,0.182c-0.069,0.068-0.182,0.086-0.337,0.052
				c-0.138-0.035-0.207-0.164-0.207-0.389L25.522,18.827z"/>
			<path style="fill-rule:evenodd;clip-rule:evenodd;fill:#F27922;" d="M30.079,17.015c-0.053-0.104,0-0.12,0.154-0.052
				c0.155,0.069,0.26,0.173,0.311,0.311c0.035,0.173,0,0.319-0.103,0.44c-0.139,0.138-0.406,0.293-0.803,0.466
				c-0.362,0.155-0.69,0.276-0.984,0.362l-0.362,0.052l0.647-0.232c0.501-0.155,0.872-0.38,1.113-0.674
				c0.104-0.138,0.146-0.267,0.13-0.388C30.183,17.266,30.147,17.17,30.079,17.015z"/>
			<path style="fill-rule:evenodd;clip-rule:evenodd;fill:#BD7400;" d="M24.435,15.617c0.466,0.19,0.794,0.302,0.984,0.336
				c0.31,0.052,0.673-0.06,1.087-0.336l0.078,0.104c0.051,0.086,0.086,0.173,0.104,0.259c0.052,0.189-0.139,0.362-0.57,0.518
				c-0.483,0.189-1.044,0.155-1.683-0.104c-0.707-0.345-1.295-0.621-1.761-0.829c-0.759-0.345-1.562-0.63-2.407-0.854l-1.424-0.362
				c-0.051-0.017-0.034-0.052,0.052-0.104c0.104-0.069,0.19-0.104,0.259-0.104l1.709,0.388c1.191,0.276,1.967,0.475,2.331,0.596
				L24.435,15.617z"/>
			<path style="fill-rule:evenodd;clip-rule:evenodd;fill:#C7BE91;" d="M23.71,13.157c0.086,0.017,0.121,0.086,0.104,0.207
				c0,0.121-0.043,0.25-0.13,0.388c-0.068,0.121-0.164,0.208-0.285,0.259l-0.129,0.052c-0.086,0.052-0.173,0.086-0.259,0.104
				c-0.812,0.017-1.424,0.043-1.838,0.078c-0.259,0.035-0.397,0.069-0.414,0.104L20.81,14.4l-0.44-0.104
				c-0.069-0.017-0.129-0.061-0.182-0.129l-0.026-0.078h2.563c-0.863-0.172-1.484-0.285-1.864-0.337
				c-0.742-0.103-1.191-0.138-1.346-0.103l0.129-0.129c0.086-0.104,0.164-0.147,0.233-0.13l1.761,0.208l1.372,0.336l-0.673-0.233
				c-0.363-0.225-0.639-0.354-0.829-0.388l-0.415-0.13l0.104-0.078c0.104-0.052,0.208-0.078,0.311-0.078
				c0.138,0.017,0.388,0.138,0.75,0.362c0.121,0.086,0.423,0.25,0.906,0.492l0.052-0.155l0.207-0.414l-0.026-0.104
				C23.348,13.123,23.451,13.105,23.71,13.157z"/>
			<path style="fill-rule:evenodd;clip-rule:evenodd;fill:#C7BE91;" d="M25.884,14.374l-1.165-0.129h-0.802l1.605,0.647
				c0.482,0.207,0.725,0.379,0.725,0.518c-0.018,0.104-0.173,0.224-0.466,0.363c0-0.173-0.112-0.346-0.337-0.518
				c-0.225-0.155-0.63-0.38-1.217-0.673l-0.621-0.336l0.725,0.622c0.052,0.069,0.095,0.172,0.129,0.311
				c0.053,0.138,0.061,0.224,0.026,0.259c-0.034,0.069-0.198,0.061-0.492-0.026c0.035-0.138,0.009-0.276-0.077-0.414l-0.622-0.777
				l-0.025-0.155l0.233-0.026c0.12,0.034,0.689,0.034,1.708,0c0.328,0.017,0.518,0.052,0.57,0.104L25.884,14.374z"/>
			<path style="fill-rule:evenodd;clip-rule:evenodd;fill:#C7BE91;" d="M24.486,13.52c0.553,0.138,0.915,0.25,1.088,0.336
				c0.448,0.259,0.785,0.587,1.01,0.983c0.086,0.121,0.095,0.216,0.025,0.285c-0.034,0.034-0.13,0.086-0.285,0.155
				c-0.086,0.052-0.129,0.043-0.129-0.026c0.017-0.121,0.017-0.242,0-0.362c0-0.138-0.146-0.311-0.44-0.518
				c-0.362-0.242-0.612-0.414-0.751-0.518c-0.224-0.173-0.889-0.371-1.993-0.596c-0.587-0.138-1.536-0.043-2.848,0.285
				c-0.379,0.104-0.63,0.242-0.751,0.415l-0.051,0.233c-0.121-0.034-0.216-0.138-0.285-0.311c-0.052-0.121-0.035-0.225,0.051-0.311
				c0.052-0.035,0.182-0.095,0.389-0.182c0.155-0.086,0.449-0.164,0.88-0.233c0.466-0.086,0.889-0.138,1.269-0.155
				c0.966-0.035,1.596,0.043,1.889,0.233C23.641,13.287,23.951,13.382,24.486,13.52z"/>
			<path style="fill-rule:evenodd;clip-rule:evenodd;fill:#F7CE00;" d="M24.046,15.513c0.691,0.242,1.269,0.328,1.735,0.259
				c0.207-0.035,0.414-0.156,0.621-0.363l0.311-0.388c0.034,0.276,0.018,0.5-0.052,0.673c-0.139,0.362-0.535,0.544-1.191,0.544
				c-0.362-0.018-0.802-0.104-1.32-0.259c-0.466-0.156-0.871-0.328-1.216-0.518c-0.76-0.379-1.735-0.708-2.926-0.984
				c-0.328-0.069-0.604-0.138-0.828-0.207l-0.208-0.104l-0.025-0.129v-0.388l0.181-0.104c-0.155,0.242,0.225,0.458,1.14,0.647
				c0.259,0.069,0.923,0.268,1.993,0.595C22.795,14.927,23.391,15.168,24.046,15.513z"/>
			<path style="fill-rule:evenodd;clip-rule:evenodd;fill:#FFFF9C;" d="M22.7,14.555c0.207-0.121,0.345-0.285,0.414-0.492
				c-0.673,0.069-1.131,0.095-1.373,0.078c-1.104-0.069-1.562-0.052-1.372,0.052c0.104,0.069,0.526,0.181,1.269,0.336
				C22.156,14.65,22.51,14.659,22.7,14.555z M21.768,14.012c0.379,0.035,0.794,0.026,1.243-0.026l-2.149-0.44l-1.191-0.103
				c-0.086,0.017-0.164,0.043-0.233,0.078c-0.138,0.052-0.19,0.121-0.156,0.207c0.069,0.104,0.138,0.164,0.208,0.181
				c0.069,0.034,0.268,0.061,0.596,0.078c0.138,0,0.423,0,0.854,0C21.268,13.969,21.543,13.977,21.768,14.012z M22.984,13.856
				l-0.932-0.518c-0.379-0.155-0.673-0.224-0.88-0.207c-0.828,0.069-1.165,0.138-1.01,0.207c0.155,0.069,0.734,0.164,1.735,0.285
				L22.984,13.856z M23.036,14.685c-0.068,0.103,0.078,0.224,0.44,0.362c0.518,0.259,0.803,0.345,0.854,0.259
				c0.086-0.104-0.034-0.319-0.362-0.647l-0.674-0.518L23.036,14.685z M23.684,13.364c0.035-0.051-0.009-0.095-0.13-0.129
				c-0.327-0.121-0.768-0.181-1.319-0.181h-0.363c-0.051,0.035,0.121,0.155,0.518,0.362l1.01,0.544l0.182-0.44
				C23.649,13.451,23.684,13.399,23.684,13.364z M26.195,15.824c-0.604,0.225-1.277,0.147-2.02-0.233
				c-0.725-0.379-1.726-0.733-3.003-1.062c-1.19-0.311-1.89-0.526-2.097-0.647c-0.346-0.207-0.086-0.432,0.776-0.673
				c0.863-0.224,1.709-0.302,2.537-0.233c2.089,0.19,3.47,0.759,4.143,1.709C26.911,15.203,26.799,15.583,26.195,15.824z
				 M24.563,15.099c0.155,0.225,0.233,0.345,0.233,0.362c0.155,0.155,0.346,0.242,0.569,0.259c0.276,0.035,0.458,0.009,0.544-0.078
				s0.043-0.216-0.129-0.388c-0.156-0.155-0.57-0.38-1.243-0.673l-0.958-0.414L24.563,15.099z M24.875,13.934
				c0.259,0.017,0.396,0.026,0.414,0.026c0.104,0,0.112-0.035,0.025-0.104c-0.241-0.207-0.596-0.354-1.061-0.44
				c-0.121-0.017-0.199,0-0.233,0.052c-0.052,0.104-0.095,0.164-0.13,0.182c-0.069,0.052-0.146,0.129-0.232,0.233l-0.078,0.155
				L24.875,13.934z M25.962,14.296l-0.388-0.181l-1.787,0.026l1.295,0.44c0.155,0.069,0.414,0.19,0.776,0.363
				c0.311,0.138,0.483,0.172,0.518,0.104c0.053-0.104,0.034-0.225-0.052-0.362C26.255,14.512,26.135,14.383,25.962,14.296z"/>
			
				<use xlink:href="#flash0.ai_x5F_8_x2F_Layer_2_copy_x2F__x3C_Path_x3E__x5F_20"  width="7.235" height="1.14" x="-0.035" y="-1.14" transform="matrix(0.5178 0 0 -0.5178 19.3999 13.3999)" style="overflow:visible;opacity:0.4219;enable-background:new    ;"/>
			
				<use xlink:href="#flash0.ai_x5F_8_x2F_Layer_2_copy_x2F__x3C_Path_x3E__x5F_19"  width="5.381" height="1.088" x="-0.031" y="-1.088" transform="matrix(0.5178 0 0 -0.5178 20.4502 14.25)" style="overflow:visible;opacity:0.4219;enable-background:new    ;"/>
			
				<use xlink:href="#flash0.ai_x5F_8_x2F_Layer_2_copy_x2F__x3C_Path_x3E__x5F_18"  width="2.584" height="2.312" x="0.018" y="-2.312" transform="matrix(0.5178 0 0 -0.5178 22.9502 14.25)" style="overflow:visible;opacity:0.4219;enable-background:new    ;"/>
			
				<use xlink:href="#flash0.ai_x5F_8_x2F_Layer_2_copy_x2F__x3C_Path_x3E__x5F_17"  width="4.583" height="3.029" y="-3.029" transform="matrix(0.5178 0 0 -0.5178 23.75 14.25)" style="overflow:visible;opacity:0.4219;enable-background:new    ;"/>
			
				<use xlink:href="#flash0.ai_x5F_8_x2F_Layer_2_copy_x2F__x3C_Path_x3E__x5F_16"  width="5.056" height="1.867" y="-1.867" transform="matrix(0.5178 0 0 -0.5178 24.0996 14.25)" style="overflow:visible;opacity:0.4219;enable-background:new    ;"/>
			
				<use xlink:href="#flash0.ai_x5F_8_x2F_Layer_2_copy_x2F__x3C_Path_x3E__x5F_15"  width="3.464" height="1.213" y="-1.2" transform="matrix(0.5178 0 0 -0.5178 23.75 13.3999)" style="overflow:visible;opacity:0.4219;enable-background:new    ;"/>
			
				<use xlink:href="#flash0.ai_x5F_8_x2F_Layer_2_copy_x2F__x3C_Path_x3E__x5F_14"  width="3.54" height="1.75" x="0.033" y="-1.8" transform="matrix(0.5178 0 0 -0.5178 21.7998 12.9502)" style="overflow:visible;opacity:0.4219;enable-background:new    ;"/>
			
				<use xlink:href="#flash0.ai_x5F_8_x2F_Layer_2_copy_x2F__x3C_Path_x3E__x5F_13"  width="5.521" height="1.405" x="0.029" y="-1.4" transform="matrix(0.5178 0 0 -0.5178 20.2002 13)" style="overflow:visible;opacity:0.4219;enable-background:new    ;"/>
			<path style="fill-rule:evenodd;clip-rule:evenodd;fill:#BD7400;" d="M20.215,18.051c0.103,0.138,0.181,0.275,0.232,0.414
				c0.104,0.311-0.051,0.655-0.465,1.035c-0.208,0.19-0.509,0.328-0.906,0.415c-0.38,0.086-0.734,0.095-1.062,0.025
				c-0.259-0.069-0.613-0.182-1.062-0.337c-0.535-0.207-0.949-0.362-1.242-0.466c-0.967-0.328-2.002-0.535-3.107-0.621
				c-0.897-0.069-1.476-0.104-1.734-0.104c-0.069,0-0.061-0.069,0.026-0.207c0.069-0.139,0.146-0.216,0.233-0.233l2.071,0.052
				c1.484,0.035,2.451,0.104,2.899,0.207c0.242,0.052,0.785,0.182,1.631,0.389c0.604,0.173,1.019,0.25,1.243,0.232
				c0.38-0.017,0.751-0.336,1.114-0.958L20.215,18.051z"/>
			<path style="fill-rule:evenodd;clip-rule:evenodd;fill:#C7BE91;" d="M15.581,15.875l0.104-0.75l-0.104-0.155
				c-0.069-0.121,0.051-0.182,0.362-0.182c0.086,0,0.155,0.095,0.207,0.285c0.034,0.207,0.026,0.44-0.026,0.699
				c-0.052,0.362-0.172,0.578-0.362,0.647c-0.052,0.103-0.13,0.198-0.233,0.284c-0.915,0.276-1.605,0.526-2.071,0.751
				c-0.276,0.138-0.415,0.241-0.415,0.311c0,0.048,0.022,0.073,0.065,0.078l-0.531-0.026c-0.104-0.018-0.19-0.069-0.259-0.155
				l-0.078-0.13l2.926-0.88c-1.053,0.018-1.804,0.043-2.253,0.077c-0.811,0.069-1.337,0.165-1.579,0.285
				c0.017-0.086,0.052-0.173,0.104-0.259c0.069-0.189,0.147-0.285,0.233-0.285c0.138,0,0.837-0.077,2.097-0.232l1.683,0.077
				c-0.432-0.052-0.725-0.104-0.88-0.155c-0.587-0.258-0.941-0.388-1.062-0.388l-0.544-0.052l0.104-0.155
				c0.086-0.121,0.189-0.198,0.311-0.233c0.241-0.069,0.569,0.043,0.984,0.336c0.172,0.104,0.578,0.276,1.217,0.518V15.875z"/>
			<path style="fill-rule:evenodd;clip-rule:evenodd;fill:#C7BE91;" d="M19.309,18.413c-0.069-0.294-0.259-0.535-0.57-0.726
				c-0.242-0.155-0.794-0.396-1.657-0.725l-0.828-0.336l1.036,0.776c0.104,0.086,0.199,0.232,0.285,0.44
				c0.104,0.224,0.146,0.379,0.129,0.466c-0.017,0.104-0.198,0.138-0.543,0.104c-0.034-0.242-0.129-0.458-0.285-0.647
				c-0.604-0.639-0.94-1.001-1.01-1.087l-0.104-0.259l0.285-0.104c0.156,0,0.803-0.189,1.941-0.569
				c0.138-0.017,0.285-0.052,0.44-0.104c0.104-0.017,0.181,0.009,0.233,0.078c0.103,0.104,0.172,0.208,0.207,0.311
				c-0.586,0.069-1.044,0.138-1.372,0.207l-0.906,0.259l2.071,0.544c0.621,0.173,0.966,0.38,1.035,0.621
				C19.731,17.835,19.602,18.085,19.309,18.413z"/>
			<path style="fill-rule:evenodd;clip-rule:evenodd;fill:#C7BE91;" d="M19.749,17.429c-0.086,0.121-0.146,0.121-0.181,0
				c-0.035-0.224-0.078-0.431-0.129-0.621c-0.052-0.225-0.293-0.466-0.725-0.725c-0.5-0.259-0.846-0.458-1.036-0.596
				c-0.328-0.207-1.165-0.311-2.511-0.311c-0.38,0-0.88,0.155-1.502,0.466c-0.535,0.276-1.07,0.613-1.605,1.01
				c-0.397,0.294-0.63,0.604-0.699,0.933c-0.035,0.172-0.026,0.31,0.026,0.414c-0.155-0.035-0.311-0.182-0.466-0.44
				c-0.104-0.19-0.112-0.362-0.026-0.518c0.017-0.052,0.138-0.207,0.362-0.466c0.155-0.173,0.466-0.397,0.932-0.673
				c0.483-0.293,0.94-0.518,1.372-0.673c1.07-0.397,1.812-0.492,2.226-0.285c0.104,0.052,0.501,0.104,1.191,0.155
				c0.673,0.035,1.13,0.104,1.372,0.207c0.518,0.207,1.027,0.63,1.527,1.269c0.121,0.189,0.164,0.354,0.129,0.491
				C19.973,17.136,19.887,17.257,19.749,17.429z"/>
			<path style="fill-rule:evenodd;clip-rule:evenodd;fill:#F7CE00;" d="M20.267,17.999c0,0.621-0.38,1.044-1.14,1.269
				c-0.397,0.138-0.932,0.155-1.605,0.052c-0.57-0.104-1.096-0.25-1.579-0.44c-0.415-0.155-0.984-0.293-1.708-0.414
				c-0.725-0.121-1.39-0.19-1.994-0.207c-0.414-0.018-0.751-0.044-1.01-0.078l-0.285-0.077l-0.104-0.233
				c-0.051-0.104-0.086-0.241-0.103-0.414l-0.026-0.233l0.156-0.232c-0.035,0.207,0.103,0.379,0.414,0.518
				c0.276,0.104,0.647,0.164,1.113,0.181c0.345,0,1.182,0.104,2.511,0.312c0.38,0.017,0.733,0.086,1.062,0.207
				c0.483,0.172,0.906,0.293,1.269,0.362c0.569,0.121,1.027,0.155,1.372,0.104c0.19-0.034,0.423-0.121,0.699-0.259
				c0.172-0.087,0.302-0.207,0.388-0.362c0.018-0.035,0.078-0.182,0.181-0.44l0.208-0.776l0.103,0.414
				C20.258,17.559,20.284,17.809,20.267,17.999z"/>
			<path style="fill-rule:evenodd;clip-rule:evenodd;fill:#FFFF9C;" d="M14.053,16.187c0.432,0.034,0.88,0.025,1.346-0.026
				l-1.294-0.492c-0.466-0.138-0.82-0.164-1.062-0.078c-0.932,0.397-1.294,0.63-1.087,0.699c0.121,0.034,0.431,0.025,0.932-0.026
				C13.492,16.212,13.88,16.187,14.053,16.187z M14.053,16.834c0.466-0.069,0.932-0.207,1.398-0.414
				c-1.26-0.035-2.132-0.044-2.615-0.026c-0.293,0.018-0.612,0.061-0.958,0.129l-0.414,0.13c-0.086,0.052-0.164,0.112-0.233,0.182
				c-0.155,0.138-0.19,0.268-0.104,0.388c0.104,0.155,0.207,0.242,0.311,0.259c0.086,0.018,0.311-0.017,0.673-0.104
				c0.224-0.052,0.552-0.146,0.983-0.284C13.492,16.954,13.811,16.868,14.053,16.834z M15.322,17.429
				c0.189-0.259,0.285-0.569,0.285-0.932c-0.743,0.328-1.26,0.526-1.554,0.596c-1.173,0.293-1.683,0.475-1.527,0.543
				c0.086,0.052,0.311,0.087,0.673,0.104c0.19,0,0.492,0,0.906,0c0.38,0.017,0.622,0.017,0.725,0
				C15.037,17.705,15.201,17.602,15.322,17.429z M15.839,16.549l-0.104,0.983c0,0.208,0.225,0.362,0.673,0.467
				c0.138,0.052,0.363,0.129,0.673,0.232c0.242,0.052,0.372,0.026,0.389-0.077c0.069-0.207-0.147-0.526-0.647-0.958
				c-0.155-0.139-0.371-0.285-0.647-0.44L15.839,16.549z M14.234,15.099c-0.276,0.069-0.423,0.121-0.44,0.155
				c-0.035,0.052,0.216,0.19,0.751,0.414l1.372,0.57v-0.803c0.052-0.155,0.078-0.259,0.078-0.311
				c0.017-0.104-0.052-0.164-0.208-0.181C15.494,14.909,14.976,14.961,14.234,15.099z M16.332,15.513
				c-0.069,0.104-0.121,0.259-0.156,0.466c-0.018,0.104-0.035,0.198-0.052,0.284l0.569-0.284c0.432-0.19,0.725-0.293,0.88-0.311
				c0.293-0.069,0.449-0.104,0.466-0.104c0.121-0.034,0.121-0.095,0-0.181c-0.138-0.086-0.363-0.172-0.673-0.259
				c-0.311-0.086-0.553-0.121-0.726-0.104c-0.138,0.017-0.216,0.069-0.233,0.155C16.375,15.367,16.349,15.479,16.332,15.513z
				 M19.749,16.342c0.622,0.742,0.639,1.415,0.052,2.02c-0.604,0.604-1.398,0.716-2.382,0.336c-0.984-0.396-2.261-0.655-3.832-0.776
				c-1.519-0.121-2.408-0.241-2.667-0.362c-0.466-0.242-0.25-0.699,0.647-1.372c0.88-0.69,1.813-1.113,2.796-1.269
				C16.814,14.521,18.609,14.996,19.749,16.342z M18.817,18.49c0.328-0.052,0.526-0.155,0.595-0.311
				c0.069-0.173-0.034-0.38-0.31-0.621c-0.225-0.207-0.777-0.449-1.657-0.725l-1.269-0.337l1.501,1.217
				C18.057,18.283,18.437,18.542,18.817,18.49z M19.697,17.015c0.035-0.189-0.026-0.396-0.181-0.621
				c-0.155-0.242-0.354-0.406-0.595-0.492l-0.492-0.182l-2.02,0.647l1.657,0.285c0.189,0.052,0.526,0.173,1.01,0.362
				C19.473,17.136,19.679,17.136,19.697,17.015z"/>
			
				<use xlink:href="#flash0.ai_x5F_8_x2F_Layer_2_copy_x2F__x3C_Path_x3E__x5F_7"  width="8.46" height="2.125" x="-0.01" y="-2.108" transform="matrix(0.5178 0 0 -0.5178 11.0498 16.5996)" style="overflow:visible;opacity:0.4219;enable-background:new    ;"/>
			
				<use xlink:href="#flash0.ai_x5F_8_x2F_Layer_2_copy_x2F__x3C_Path_x3E__x5F_6"  width="6.003" height="2.425" x="-0.003" y="-2.425" transform="matrix(0.5178 0 0 -0.5178 12.3501 16.5996)" style="overflow:visible;opacity:0.4219;enable-background:new    ;"/>
			
				<use xlink:href="#flash0.ai_x5F_8_x2F_Layer_2_copy_x2F__x3C_Path_x3E__x5F_5"  width="3.374" height="3.3" y="-3.3" transform="matrix(0.5178 0 0 -0.5178 15.8501 16.5996)" style="overflow:visible;opacity:0.4219;enable-background:new    ;"/>
			
				<use xlink:href="#flash0.ai_x5F_8_x2F_Layer_2_copy_x2F__x3C_Path_x3E__x5F_4"  width="6.29" height="3.863" y="-3.863" transform="matrix(0.5178 0 0 -0.5178 16.1001 16.5996)" style="overflow:visible;opacity:0.4219;enable-background:new    ;"/>
			
				<use xlink:href="#flash0.ai_x5F_8_x2F_Layer_2_copy_x2F__x3C_Path_x3E__x5F_3"  width="6.368" height="2.675" y="-2.675" transform="matrix(0.5178 0 0 -0.5178 16.7998 16.0498)" style="overflow:visible;opacity:0.4219;enable-background:new    ;"/>
			
				<use xlink:href="#flash0.ai_x5F_8_x2F_Layer_2_copy_x2F__x3C_Path_x3E__x5F_2"  width="3.875" height="2.408" y="-2.4" transform="matrix(0.5178 0 0 -0.5178 16.1001 15.2998)" style="overflow:visible;opacity:0.4219;enable-background:new    ;"/>
			
				<use xlink:href="#flash0.ai_x5F_8_x2F_Layer_2_copy_x2F__x3C_Path_x3E__x5F_1"  width="4.261" height="2.52" x="-0.006" y="-2.55" transform="matrix(0.5178 0 0 -0.5178 14.0498 15.2998)" style="overflow:visible;opacity:0.4219;enable-background:new    ;"/>
			
				<use xlink:href="#flash0.ai_x5F_8_x2F_Layer_2_copy_x2F__x3C_Path_x3E_"  width="6.759" height="1.486" x="-0.009" y="-1.49" transform="matrix(0.5178 0 0 -0.5178 12.0498 15.6499)" style="overflow:visible;opacity:0.4219;enable-background:new    ;"/>
		</g>
	</g>
</g>
</svg>
