<?xml version="1.0" encoding="iso-8859-1"?>
<!-- Generator: Adobe Illustrator 15.1.0, SVG Export Plug-In . SVG Version: 6.00 Build 0)  -->
<!DOCTYPE svg PUBLIC "-//W3C//DTD SVG 1.1//EN" "http://www.w3.org/Graphics/SVG/1.1/DTD/svg11.dtd">
<svg version="1.1" id="flash0.ai" xmlns="http://www.w3.org/2000/svg" xmlns:xlink="http://www.w3.org/1999/xlink" x="0px" y="0px"
	 width="54.4px" height="39.55px" viewBox="0 0 54.4 39.55" style="enable-background:new 0 0 54.4 39.55;" xml:space="preserve">
<symbol  id="sammich4" viewBox="1.6 -39.565 50.525 33.759">
	<g id="Layer_1_2_">
		<g>
			<g>
				<g>
					
						<linearGradient id="SVGID_1_" gradientUnits="userSpaceOnUse" x1="-397.4414" y1="-473.5278" x2="-365.4185" y2="-473.5278" gradientTransform="matrix(0.7489 -0.041 0.041 0.7489 337.1416 319.6953)">
						<stop  offset="0" style="stop-color:#E9B140"/>
						<stop  offset="1" style="stop-color:#C47E00"/>
					</linearGradient>
					<path style="fill-rule:evenodd;clip-rule:evenodd;fill:url(#SVGID_1_);" d="M23.649-15.024
						c2.75,0.975,6.263,1.313,10.538,1.012c4.55-0.3,6.987-1.237,7.313-2.813c0.4-1.899-0.038-3.524-1.313-4.875
						c-1.2-1.225-2.888-2.037-5.063-2.438c-3.8-0.7-7.425-0.537-10.875,0.488c-2.05,0.6-3.413,1.574-4.088,2.925l-0.412,1.837
						l1.237,1.688C21.962-16.025,22.85-15.3,23.649-15.024z"/>
					<path style="fill-rule:evenodd;clip-rule:evenodd;fill:#FFD15B;" d="M30.513-15.7c6.074,0.1,9.437-0.237,10.087-1.012
						c0.575-0.676,0.625-1.413,0.15-2.213c-0.475-0.85-1.438-1.525-2.888-2.025c-1.6-0.575-3.525-0.975-5.775-1.199
						c-2.475-0.226-4.587-0.163-6.337,0.188c-1.75,0.35-3.288,1.037-4.612,2.063c-1.275,0.95-1.738,1.674-1.388,2.175
						C20.649-16.475,24.237-15.8,30.513-15.7z"/>
					<path style="fill-rule:evenodd;clip-rule:evenodd;fill:#57390D;" d="M41.013-13.45c1.25-0.149,1.762-0.524,1.537-1.125
						c-0.125-0.35-0.425-0.812-0.9-1.387c-0.024-0.1,0-0.55,0.075-1.351c0.05-0.575-0.1-0.925-0.45-1.05
						c-0.3-0.1-0.787-0.112-1.462-0.037c-0.725,0.1-1.237,0.112-1.538,0.037C37.8-18.487,37.65-18.7,37.825-19
						c0.174-0.275,0.512-0.487,1.012-0.638C39.312-19.762,39.3-20.05,38.8-20.5c-0.525-0.45-1.363-0.712-2.513-0.787
						c-1.025-0.025-1.737-0.05-2.138-0.075c-0.675-0.025-1.299-0.087-1.875-0.188c-1.4-0.25-2.737-0.275-4.012-0.075
						c-0.601,0.1-1.45,0.313-2.551,0.638c-1.075,0.3-2.012,0.487-2.813,0.563c-0.6,0.05-1.162,0.35-1.688,0.9
						c-0.549,0.524-0.65,0.912-0.3,1.162c0.7,0.45,3.813,1.4,9.338,2.85C36.075-13.987,39.662-13.3,41.013-13.45z"/>
					<path style="fill-rule:evenodd;clip-rule:evenodd;fill:#80561C;" d="M40.975-13.149c1.25-0.15,1.763-0.538,1.538-1.163
						c-0.125-0.325-0.425-0.787-0.9-1.388c-0.025-0.1,0-0.537,0.075-1.313c0.05-0.575-0.1-0.924-0.45-1.05
						c-0.3-0.1-0.787-0.112-1.463-0.037c-0.7,0.075-1.212,0.075-1.537,0c-0.75-0.175-0.55-0.688,0.6-1.538
						c0.375-0.3,0.25-0.625-0.375-0.975c-0.625-0.35-1.362-0.475-2.212-0.375c-0.95,0.1-1.975,0.05-3.075-0.15
						c-1.175-0.2-1.987-0.287-2.438-0.262c-1.575,0.1-2.675,0.2-3.3,0.3c-0.525,0.075-1.113,0.212-1.763,0.412
						c-1.075,0.3-2.012,0.487-2.813,0.563c-0.575,0.025-1.138,0.313-1.688,0.862c-0.55,0.55-0.65,0.938-0.3,1.163
						c0.675,0.475,3.787,1.438,9.337,2.888C36.038-13.688,39.625-13,40.975-13.149z"/>
					<path style="fill-rule:evenodd;clip-rule:evenodd;fill:#57390D;" d="M40.938-15.024c0.925-0.175,1.212-0.65,0.862-1.426
						c-0.35-0.725-0.8-1.087-1.35-1.087c-0.301,0-0.576-0.238-0.825-0.713c-0.325-0.575-0.725-0.975-1.2-1.2
						c-1.15-0.575-2.638-0.675-4.463-0.3c-0.475,0.1-1.274-0.062-2.399-0.487c-1.2-0.45-2.175-0.65-2.925-0.6
						c-0.425,0.024-0.976,0.024-1.65,0c-0.25,0-0.688,0.1-1.313,0.3c-0.55,0.149-1.1,0.362-1.65,0.638
						c-0.425,0.2-0.837,0.337-1.237,0.412c-0.7,0.1-1.212,0.175-1.537,0.225c-0.525,0.075-0.962,0.238-1.313,0.488
						c-0.4,0.275-0.538,0.787-0.413,1.537c0.1,0.675,0.263,1.075,0.488,1.2c1,0.575,4.55,0.95,10.649,1.125
						C36.362-14.737,39.788-14.775,40.938-15.024z"/>
					<path style="fill-rule:evenodd;clip-rule:evenodd;fill:#80561C;" d="M40.787-14.763c0.95-0.2,1.288-0.662,1.013-1.387
						c-0.275-0.7-0.688-1.051-1.237-1.051c-0.275,0-0.55-0.237-0.825-0.712c-0.3-0.575-0.688-0.976-1.162-1.2
						c-1.175-0.575-2.675-0.675-4.5-0.3c-0.475,0.1-1.275-0.063-2.4-0.487c-1.2-0.45-2.163-0.65-2.888-0.601
						c-0.65,0.05-1.212,0.013-1.688-0.112c-0.275-0.075-0.712-0.013-1.313,0.188c-0.524,0.175-1.15,0.425-1.875,0.75
						c-0.6,0.3-1.1,0.487-1.5,0.563c-0.8,0.1-1.362,0.2-1.688,0.3c-0.6,0.15-0.975,0.45-1.125,0.9
						c-0.175,0.45-0.188,0.862-0.037,1.237c0.1,0.3,0.25,0.512,0.45,0.638c1,0.575,4.524,0.987,10.574,1.237
						C36.262-14.55,39.662-14.537,40.787-14.763z"/>
					<path style="fill-rule:evenodd;clip-rule:evenodd;fill:#57390D;" d="M41.125-12.774c0.3-0.1,0.462-0.275,0.487-0.525
						c0.075-0.375,0.238-0.688,0.487-0.938c0.375-0.375,0.413-0.775,0.112-1.2c-0.3-0.375-0.737-0.625-1.313-0.75
						c-0.425-0.1-1-0.412-1.725-0.938c-0.9-0.65-1.425-1.013-1.575-1.087c-0.05-0.025-0.6-0.188-1.649-0.488
						c-0.625-0.149-0.85-0.375-0.676-0.675c0.201-0.35-0.05-0.612-0.75-0.787c-0.675-0.15-1.299-0.138-1.875,0.037
						c-0.475,0.15-1.149,0.212-2.024,0.188c-0.125,0-0.888-0.037-2.288-0.112c-0.524-0.025-1.237,0.063-2.137,0.263
						c-1.125,0.25-1.75,0.387-1.875,0.412c-0.525,0.075-1,0.338-1.426,0.788c-0.425,0.425-0.774,0.65-1.05,0.675
						c-1.1,0.05-1.912,0.55-2.438,1.5c-0.2,0.375-0.1,0.612,0.3,0.712c0.226,0.025,0.55,0.075,0.976,0.15
						c0.475,0.25,3.899,0.813,10.274,1.688S40.725-12.625,41.125-12.774z"/>
					<path style="fill-rule:evenodd;clip-rule:evenodd;fill:#80561C;" d="M41.087-12.362c0.301-0.1,0.463-0.275,0.488-0.525
						c0.074-0.375,0.237-0.687,0.487-0.938c0.375-0.375,0.412-0.774,0.112-1.199c-0.275-0.375-0.713-0.638-1.313-0.788
						c-0.425-0.1-1.025-0.412-1.8-0.938c-1-0.7-1.55-1.075-1.65-1.125c-0.05-0.025-0.6-0.188-1.649-0.487
						c-0.625-0.15-0.85-0.375-0.676-0.675c0.226-0.35,0-0.587-0.675-0.713c-0.625-0.125-1.237-0.1-1.837,0.075
						c-0.45,0.15-1.125,0.212-2.025,0.188c-1.025-0.075-1.763-0.125-2.213-0.15c-0.75-0.05-1.688,0.025-2.813,0.226
						c-1.199,0.225-2,0.475-2.399,0.75c-0.226,0.149-0.413,0.362-0.563,0.638c-0.075,0.174-0.275,0.275-0.601,0.3
						c-0.475,0.025-0.95,0.188-1.425,0.487c-0.5,0.325-0.875,0.725-1.125,1.2c-0.2,0.375-0.112,0.612,0.263,0.712
						c0.225,0.025,0.55,0.075,0.975,0.15c0.475,0.25,3.9,0.813,10.275,1.688S40.688-12.237,41.087-12.362z"/>
					<path style="fill-rule:evenodd;clip-rule:evenodd;fill:#BA803D;" d="M39.587-14.8c1.375,0.15,1.825,0.425,1.351,0.825
						c-0.8,0.375-1.263,0.612-1.388,0.712c-0.225,0.15-0.25,0.288-0.075,0.413c0.175,0.125,0.5,0.062,0.976-0.188
						c0.625-0.35,0.975-0.725,1.05-1.125c0.05-0.4-0.212-0.65-0.788-0.75c-1-0.175-2.137-0.463-3.412-0.862
						c-1.8-0.601-3.013-1.213-3.638-1.838c-0.524-0.575-0.612-0.925-0.263-1.05c0.45-0.175,0.663-0.325,0.638-0.45
						c-0.1-0.3-0.538-0.388-1.313-0.263c-0.275,0.05-1.05,0.226-2.325,0.525c-0.575,0.125-1.412,0.2-2.512,0.225
						c-1.175,0.025-1.913,0.075-2.213,0.15c-0.3,0.05-0.8,0.35-1.5,0.899c-0.499,0.407-0.992,0.676-1.481,0.807
						c-0.28-0.011-0.624-0.005-1.031,0.019c-0.165,0.019-0.327,0.1-0.487,0.244c-0.198,0.046-0.335,0.103-0.412,0.169
						c-0.125,0.074-0.138,0.2-0.038,0.375l0.263-0.375c0.06-0.067,0.123-0.123,0.188-0.169c0.241-0.071,0.579-0.127,1.013-0.169
						c0.169-0.013,0.338-0.044,0.506-0.094c0.628,0.031,0.959,0.15,0.994,0.356c0,0.05-0.025,0.125-0.075,0.225
						c0,0.025,0.075-0.012,0.225-0.112c0.025-0.025,0.5-0.412,1.426-1.162c0.625-0.525,1.112-0.788,1.462-0.788
						c2.101,0.1,3.638-0.05,4.612-0.45c0.65-0.275,1.263-0.412,1.838-0.412s0.7,0.063,0.375,0.188c-0.575,0.2-0.8,0.55-0.675,1.05
						c0.1,0.4,0.825,0.95,2.175,1.65C36.575-15.45,38.087-14.975,39.587-14.8z"/>
					
						<linearGradient id="SVGID_2_" gradientUnits="userSpaceOnUse" x1="96.7852" y1="42.4521" x2="115.6765" y2="42.4521" gradientTransform="matrix(0.75 0.005 -0.005 0.75 -47.4043 -46.4883)">
						<stop  offset="0" style="stop-color:#FDCB53"/>
						<stop  offset="1" style="stop-color:#D48801"/>
					</linearGradient>
					<path style="fill-rule:evenodd;clip-rule:evenodd;fill:url(#SVGID_2_);" d="M24.962-16.825l1.163,2.7
						c1.075,1.95,2.325,3.3,3.75,4.05c1.625,0.85,3.563,0.65,5.813-0.6c2.125-1.2,3.263-2.525,3.412-3.975
						c0.25-2.076-2.012-3.388-6.787-3.938c-1.875-0.226-3.55-0.1-5.025,0.375C26.137-17.837,25.362-17.375,24.962-16.825z"/>
					<path style="fill-rule:evenodd;clip-rule:evenodd;fill:#C98000;" d="M38.725-13.487c0.2-0.35,0.325-0.737,0.375-1.162
						c0.25-2.076-2.012-3.388-6.787-3.938c-1.875-0.226-3.55-0.1-5.025,0.375c-1.15,0.375-1.925,0.837-2.325,1.387l1.088,2.513
						c1,1.85,2.15,3.188,3.45,4.013c0.325,0.1,0.5,0.1,0.524,0c0.025-0.075,0.075-0.35,0.15-0.825c0.5-1.3,0.325-2.35-0.525-3.149
						l-1.462-0.788l-0.226-1.2c0.275-0.774,1.5-1.075,3.676-0.899c2.825,0.225,4.825,0.925,6,2.1
						c0.575,0.601,0.875,1.175,0.899,1.726L38.725-13.487z"/>
					<path style="fill-rule:evenodd;clip-rule:evenodd;fill:#EDE2AD;" d="M25.524-10.675c2.75,0.65,4.525,0.7,5.325,0.15
						c1.025-0.7,0.875-1.888-0.45-3.563c-1.35-1.701-2.85-2.425-4.5-2.176c-2.75,0.375-4.387,0.65-4.912,0.825
						c-1.25,0.375-1.862,1.038-1.838,1.987c0.025,0.825,0.301,1.275,0.825,1.351c1,0.125,1.563,0.225,1.688,0.3L25.524-10.675z"/>
					
						<linearGradient id="SVGID_3_" gradientUnits="userSpaceOnUse" x1="-1267.1602" y1="-14781.7031" x2="-1260.132" y2="-14781.7031" gradientTransform="matrix(0.1281 -0.739 0.739 0.1281 11110.2285 945.499)">
						<stop  offset="0" style="stop-color:#FDCB53"/>
						<stop  offset="1" style="stop-color:#D48801"/>
					</linearGradient>
					<path style="fill-rule:evenodd;clip-rule:evenodd;fill:url(#SVGID_3_);" d="M24.962-10c2.725,0.2,4.488,0.025,5.288-0.524
						c0.975-0.676,1.025-1.701,0.149-3.075c-0.875-1.4-2.25-2.425-4.125-3.075c-1.8-0.65-3.575-0.55-5.324,0.3
						c-1.65,0.8-2.451,1.775-2.4,2.925c0,0.576,0.137,1.088,0.412,1.538c0.226,0.3,0.55,0.563,0.976,0.787
						c0.275,0.15,0.675,0.363,1.2,0.638L24.962-10z"/>
					
						<linearGradient id="SVGID_4_" gradientUnits="userSpaceOnUse" x1="11210.6914" y1="-19274.3828" x2="11225.4238" y2="-19274.3828" gradientTransform="matrix(-0.6529 -0.3691 0.3691 -0.6529 14463.8779 -8456.707)">
						<stop  offset="0" style="stop-color:#D69211"/>
						<stop  offset="1" style="stop-color:#C98000"/>
					</linearGradient>
					<path style="fill-rule:evenodd;clip-rule:evenodd;fill:url(#SVGID_4_);" d="M23.425-15.774c1.825-0.075,3.5,0.312,5.025,1.162
						c1.5,0.8,2.362,1.75,2.587,2.85c-0.05-1.175-0.712-2.274-1.987-3.3c-0.9-0.725-1.825-1.262-2.775-1.612
						c-1.8-0.65-3.575-0.55-5.324,0.3c-1.65,0.8-2.451,1.775-2.4,2.925l0.075,0.713C18.875-14.637,20.475-15.65,23.425-15.774z"/>
					<path style="fill-rule:evenodd;clip-rule:evenodd;fill:#EDE2AD;" d="M27.138-7.037c0.6-0.025,1.287-0.587,2.063-1.688
						c0.399-0.55,0.725-1.1,0.975-1.65c0.2,0,0.25-0.037,0.15-0.112c-0.226-0.15-1.113-0.388-2.663-0.713
						c-1.975-0.399-3.837-0.537-5.587-0.412l-1.988,0.3c-0.275,0.2-0.412,0.487-0.412,0.862c0,0.7,0.65,1.413,1.95,2.138
						C23.025-7.563,24.862-7.137,27.138-7.037z"/>
					
						<linearGradient id="SVGID_5_" gradientUnits="userSpaceOnUse" x1="94.9185" y1="54.6475" x2="111.9939" y2="54.6475" gradientTransform="matrix(0.75 0.0055 -0.0055 0.75 -51.6533 -50.7925)">
						<stop  offset="0" style="stop-color:#FDCB53"/>
						<stop  offset="1" style="stop-color:#D48801"/>
					</linearGradient>
					<path style="fill-rule:evenodd;clip-rule:evenodd;fill:url(#SVGID_5_);" d="M26.837-6.962c1-0.05,2.738-0.963,5.213-2.738
						c-0.5-0.3-1.987-0.7-4.463-1.199c-1.975-0.425-3.924-0.638-5.85-0.638l-2.25,0.149c-0.225,0.226-0.313,0.525-0.263,0.9
						c0.1,0.75,0.8,1.487,2.101,2.213C22.725-7.5,24.563-7.062,26.837-6.962z"/>
					<path style="fill-rule:evenodd;clip-rule:evenodd;fill:#EDE2AD;" d="M29.95-10.563c-1.2,0.7-2.15,1.337-2.851,1.913
						c-1.35,1.125-0.787,1.912,1.688,2.362c2.05,0.4,3.95,0.25,5.7-0.45c0.875-0.325,1.537-0.7,1.987-1.125
						c-0.475,0.025-1.025,0-1.649-0.075c-1.225-0.1-2.163-0.337-2.813-0.712c-0.65-0.375-1.188-0.813-1.613-1.313L29.95-10.563z"/>
					
						<linearGradient id="SVGID_6_" gradientUnits="userSpaceOnUse" x1="105.6602" y1="57.0645" x2="119.0855" y2="57.0645" gradientTransform="matrix(0.75 0.0056 -0.0056 0.75 -52.4336 -51.584)">
						<stop  offset="0" style="stop-color:#FDCB53"/>
						<stop  offset="1" style="stop-color:#D48801"/>
					</linearGradient>
					<path style="fill-rule:evenodd;clip-rule:evenodd;fill:url(#SVGID_6_);" d="M30.25-10.524c-1.325,0.85-2.338,1.562-3.038,2.137
						c-1.35,1.125-0.787,1.913,1.688,2.363c2.05,0.399,3.938,0.25,5.663-0.45C35.438-6.8,36.1-7.175,36.55-7.6
						c-0.475,0.025-1.025,0-1.65-0.075c-1.199-0.1-2.125-0.338-2.774-0.713c-0.65-0.375-1.163-0.85-1.538-1.425L30.25-10.524z"/>
					<path style="fill-rule:evenodd;clip-rule:evenodd;fill:#EDE2AD;" d="M39.513-14.125c0.074,0.525,0.024,1.088-0.15,1.688
						c-0.35,1.15-1.162,1.825-2.438,2.025c-1.975,0.325-3.737,0.425-5.287,0.3l-1.688-0.263l0.188,0.788
						c0.325,0.625,0.987,1.175,1.987,1.649c1.625,0.775,3.263,0.875,4.912,0.3c1.675-0.549,2.925-1.649,3.75-3.3
						c0.625-1.25,0.601-2.162-0.075-2.737L39.513-14.125z"/>
					
						<linearGradient id="SVGID_7_" gradientUnits="userSpaceOnUse" x1="102.4507" y1="44.7881" x2="117.951" y2="44.7881" gradientTransform="matrix(0.75 0.0048 -0.0048 0.75 -46.3643 -45.4351)">
						<stop  offset="0" style="stop-color:#FDCB53"/>
						<stop  offset="1" style="stop-color:#D48801"/>
					</linearGradient>
					<path style="fill-rule:evenodd;clip-rule:evenodd;fill:url(#SVGID_7_);" d="M40.899-14.087l-1.8-1.2
						c-0.05,0.475-0.225,1.013-0.524,1.612c-0.576,1.15-1.413,1.987-2.513,2.513c-1.55,0.725-2.988,1.05-4.313,0.975l-1.5-0.337
						l0.188,0.787c0.325,0.625,0.987,1.175,1.987,1.65c1.675,0.8,3.4,0.975,5.175,0.524c1.85-0.45,3.163-1.462,3.938-3.037
						C42.188-11.85,41.975-13.012,40.899-14.087z"/>
					<path style="fill-rule:evenodd;clip-rule:evenodd;fill:#C98000;" d="M39.1-15.287c-0.075,0.524-0.263,1.087-0.563,1.688
						c1.025,0.35,1.712,0.875,2.063,1.575c0.5,0.924,0.35,1.987-0.45,3.188c0.625-0.55,1.088-1.138,1.388-1.763
						c0.65-1.25,0.438-2.413-0.638-3.487L39.1-15.287z"/>
					<path style="fill-rule:evenodd;clip-rule:evenodd;fill:#EDE2AD;" d="M37-11.274c0.524-0.325,0.938-0.763,1.237-1.313
						c0.258-0.492,0.408-0.974,0.45-1.444c-0.06,0.477-0.347,1.008-0.862,1.594c-0.525,0.601-1.038,1.013-1.538,1.237
						c-1.7,0.7-3.212,1.025-4.537,0.976l-1.5-0.3c-0.226-0.075-0.325-0.05-0.3,0.074c1.025,0.425,2.2,0.55,3.524,0.375
						C34.775-10.25,35.95-10.65,37-11.274z"/>
					<path style="fill-rule:evenodd;clip-rule:evenodd;fill:#EDE2AD;" d="M30.1-10.188c0.3,0.025,0.601,0.038,0.9,0.038
						c0.25,0,0.313-0.025,0.188-0.075c-0.35-0.1-0.5-0.238-0.45-0.413c0-0.1-0.075-0.125-0.225-0.074
						c-0.275,0.1-0.676,0.087-1.2-0.038c0.097,0.06,0.185,0.134,0.263,0.226l0.188,0.262L30.1-10.188z"/>
					<path style="fill-rule:evenodd;clip-rule:evenodd;fill:#A88A43;" d="M25.712-8.05c0.5-0.05,0.676-0.163,0.525-0.338
						c-0.15-0.174-0.425-0.25-0.825-0.225c-0.325,0.025-0.4,0.125-0.225,0.3C25.337-8.112,25.512-8.025,25.712-8.05z"/>
					<path style="fill-rule:evenodd;clip-rule:evenodd;fill:#A88A43;" d="M22.899-9.138c0.325,0.025,0.45-0.05,0.375-0.225
						c-0.1-0.175-0.25-0.238-0.449-0.188c-0.201,0.025-0.275,0.1-0.226,0.225C22.625-9.225,22.725-9.162,22.899-9.138z"/>
					<path style="fill-rule:evenodd;clip-rule:evenodd;fill:#A88A43;" d="M27.813-11.8c0.35-0.075,0.425-0.175,0.225-0.3
						c-0.175-0.125-0.375-0.163-0.6-0.112c-0.226,0.05-0.288,0.149-0.188,0.3C27.325-11.763,27.513-11.725,27.813-11.8z"/>
					<path style="fill-rule:evenodd;clip-rule:evenodd;fill:#A88A43;" d="M24.888-13.524c0.3,0.024,0.487-0.038,0.563-0.188
						c0.074-0.15-0.063-0.213-0.413-0.188c-0.3,0.024-0.437,0.087-0.412,0.188C24.65-13.612,24.737-13.55,24.888-13.524z"/>
					<path style="fill-rule:evenodd;clip-rule:evenodd;fill:#A88A43;" d="M34.188-11.35c0.5,0,0.75-0.1,0.75-0.3
						c0-0.201-0.212-0.275-0.638-0.226c-0.35,0.05-0.512,0.15-0.487,0.3C33.837-11.4,33.962-11.325,34.188-11.35z"/>
					<path style="fill-rule:evenodd;clip-rule:evenodd;fill:#A88A43;" d="M38.8-8.8c0.45-0.125,0.6-0.3,0.45-0.525
						c-0.125-0.225-0.375-0.237-0.75-0.037c-0.3,0.15-0.375,0.3-0.226,0.45C38.4-8.763,38.575-8.725,38.8-8.8z"/>
					<path style="fill-rule:evenodd;clip-rule:evenodd;fill:#A88A43;" d="M35.2-7.825C35.125-8.1,34.899-8.225,34.524-8.2
						c-0.375,0.05-0.537,0.163-0.487,0.338C34.087-7.688,34.3-7.6,34.675-7.6C35.075-7.575,35.25-7.65,35.2-7.825z"/>
					<path style="fill-rule:evenodd;clip-rule:evenodd;fill:#A88A43;" d="M35.912-9.475c0.601-0.15,0.738-0.338,0.413-0.563
						c-0.325-0.226-0.688-0.25-1.088-0.075C34.913-9.962,34.85-9.8,35.05-9.625C35.274-9.425,35.562-9.375,35.912-9.475z"/>
					<path style="fill-rule:evenodd;clip-rule:evenodd;fill:#A88A43;" d="M31.75-6.138c0.5,0,0.675-0.149,0.524-0.449
						C32.1-6.888,31.812-7,31.412-6.925c-0.375,0.075-0.487,0.225-0.337,0.45C31.225-6.25,31.45-6.138,31.75-6.138z"/>
					<path style="fill-rule:evenodd;clip-rule:evenodd;fill:#A88A43;" d="M22.638-12.475c-0.375,0.149-0.463,0.287-0.263,0.412
						c0.149,0.1,0.4,0.15,0.75,0.15c0.55-0.025,0.7-0.163,0.45-0.413C23.35-12.6,23.037-12.65,22.638-12.475z"/>
					<path style="fill-rule:evenodd;clip-rule:evenodd;fill:#A88A43;" d="M28.787-7.487c0.5-0.1,0.613-0.313,0.338-0.638
						c-0.3-0.3-0.587-0.35-0.862-0.149c-0.275,0.2-0.313,0.399-0.113,0.6C28.3-7.5,28.512-7.437,28.787-7.487z"/>
					<path style="fill-rule:evenodd;clip-rule:evenodd;fill:#EDE2AD;" d="M25.675-7.975c0.5-0.05,0.675-0.163,0.525-0.338
						c-0.15-0.175-0.425-0.25-0.825-0.225c-0.325,0.025-0.4,0.125-0.226,0.3C25.3-8.037,25.475-7.95,25.675-7.975z"/>
					<path style="fill-rule:evenodd;clip-rule:evenodd;fill:#EDE2AD;" d="M22.862-9.063c0.325,0.025,0.438-0.05,0.338-0.225
						c-0.075-0.2-0.226-0.275-0.45-0.226c-0.175,0.025-0.238,0.1-0.188,0.226C22.612-9.162,22.712-9.087,22.862-9.063z"/>
					<path style="fill-rule:evenodd;clip-rule:evenodd;fill:#EDE2AD;" d="M27.774-11.725C28.125-11.8,28.2-11.9,28-12.024
						c-0.2-0.15-0.413-0.201-0.638-0.15c-0.2,0.05-0.263,0.15-0.188,0.3C27.275-11.725,27.475-11.675,27.774-11.725z"/>
					<path style="fill-rule:evenodd;clip-rule:evenodd;fill:#EDE2AD;" d="M24.85-13.487c0.3,0.025,0.487-0.025,0.563-0.15
						c0.075-0.149-0.062-0.212-0.412-0.188c-0.3,0.025-0.438,0.075-0.413,0.15C24.612-13.575,24.7-13.512,24.85-13.487z"/>
					<path style="fill-rule:evenodd;clip-rule:evenodd;fill:#EDE2AD;" d="M34.149-11.274c0.5-0.025,0.75-0.138,0.75-0.338
						s-0.212-0.275-0.637-0.225c-0.351,0.05-0.513,0.162-0.488,0.337C33.8-11.35,33.925-11.274,34.149-11.274z"/>
					<path style="fill-rule:evenodd;clip-rule:evenodd;fill:#EDE2AD;" d="M38.763-8.725c0.425-0.125,0.563-0.3,0.412-0.525
						c-0.125-0.225-0.362-0.25-0.713-0.075C38.137-9.15,38.05-8.987,38.2-8.837C38.35-8.688,38.537-8.649,38.763-8.725z"/>
					<path style="fill-rule:evenodd;clip-rule:evenodd;fill:#EDE2AD;" d="M35.125-7.787c-0.075-0.275-0.3-0.388-0.675-0.338
						c-0.375,0.05-0.525,0.163-0.45,0.338c0.05,0.149,0.263,0.225,0.638,0.225C35.013-7.538,35.175-7.612,35.125-7.787z"/>
					<path style="fill-rule:evenodd;clip-rule:evenodd;fill:#EDE2AD;" d="M35.875-9.399c0.575-0.175,0.7-0.375,0.375-0.601
						c-0.325-0.2-0.675-0.212-1.05-0.037c-0.351,0.149-0.425,0.313-0.226,0.487C35.2-9.35,35.5-9.3,35.875-9.399z"/>
					<path style="fill-rule:evenodd;clip-rule:evenodd;fill:#EDE2AD;" d="M31.712-6.1c0.5,0.025,0.676-0.125,0.525-0.45
						c-0.175-0.3-0.462-0.412-0.862-0.338C31-6.813,30.888-6.662,31.037-6.438C31.188-6.212,31.412-6.1,31.712-6.1z"/>
					<path style="fill-rule:evenodd;clip-rule:evenodd;fill:#EDE2AD;" d="M22.563-12.399c-0.35,0.149-0.438,0.287-0.263,0.412
						c0.175,0.1,0.425,0.15,0.75,0.15c0.55-0.025,0.7-0.163,0.45-0.413C23.274-12.525,22.962-12.575,22.563-12.399z"/>
					<path style="fill-rule:evenodd;clip-rule:evenodd;fill:#EDE2AD;" d="M28.75-7.412c0.5-0.1,0.612-0.313,0.337-0.638
						c-0.3-0.3-0.6-0.35-0.899-0.15c-0.25,0.175-0.288,0.363-0.112,0.563C28.275-7.437,28.5-7.362,28.75-7.412z"/>
					<path style="fill-rule:evenodd;clip-rule:evenodd;fill:#FFFFFF;" d="M25.563-8.087c0.175,0.024,0.25,0.012,0.225-0.038
						c0-0.075-0.075-0.112-0.225-0.112c-0.15,0-0.212,0.025-0.188,0.075C25.4-8.112,25.462-8.087,25.563-8.087z"/>
					<path style="fill-rule:evenodd;clip-rule:evenodd;fill:#FFFFFF;" d="M22.938-9.138c0.1-0.024,0.125-0.062,0.075-0.112
						c-0.05-0.075-0.125-0.1-0.226-0.075c-0.1,0.025-0.125,0.063-0.075,0.113C22.737-9.162,22.812-9.138,22.938-9.138z"/>
					<path style="fill-rule:evenodd;clip-rule:evenodd;fill:#FFFFFF;" d="M23.05-11.95c0.25-0.05,0.263-0.125,0.037-0.225
						c-0.2-0.075-0.375-0.087-0.524-0.037c-0.125,0.074-0.112,0.137,0.037,0.188C22.725-11.95,22.875-11.925,23.05-11.95z"/>
					<path style="fill-rule:evenodd;clip-rule:evenodd;fill:#FFFFFF;" d="M27.625-11.8c0.3-0.05,0.237-0.112-0.188-0.188
						c-0.1,0.025-0.112,0.075-0.038,0.15C27.45-11.787,27.525-11.775,27.625-11.8z"/>
					<path style="fill-rule:evenodd;clip-rule:evenodd;fill:#FFFFFF;" d="M25-13.524c0.149-0.025,0.188-0.063,0.112-0.113
						c-0.075-0.024-0.163-0.037-0.263-0.037c-0.075,0.025-0.087,0.05-0.037,0.075C24.862-13.55,24.925-13.524,25-13.524z"/>
					<path style="fill-rule:evenodd;clip-rule:evenodd;fill:#FFFFFF;" d="M34.375-11.425c0.225-0.1,0.237-0.163,0.037-0.188
						c-0.2-0.025-0.337,0-0.412,0.075c-0.05,0.075-0.025,0.125,0.075,0.149C34.175-11.362,34.275-11.375,34.375-11.425z"/>
					<path style="fill-rule:evenodd;clip-rule:evenodd;fill:#FFFFFF;" d="M35.8-9.513c0.275-0.074,0.3-0.162,0.075-0.262
						c-0.25-0.075-0.45-0.075-0.601,0C35.125-9.7,35.137-9.625,35.313-9.55C35.487-9.475,35.649-9.462,35.8-9.513z"/>
					<path style="fill-rule:evenodd;clip-rule:evenodd;fill:#FFFFFF;" d="M38.612-8.912l0.375-0.3c0.05-0.075-0.025-0.1-0.225-0.075
						c-0.226,0-0.375,0.05-0.45,0.149c-0.05,0.1-0.038,0.175,0.037,0.226C38.425-8.862,38.512-8.862,38.612-8.912z"/>
					<path style="fill-rule:evenodd;clip-rule:evenodd;fill:#FFFFFF;" d="M34.563-7.638c0.2-0.05,0.237-0.112,0.112-0.188
						c-0.15-0.1-0.288-0.125-0.412-0.074c-0.1,0.05-0.1,0.112,0,0.188C34.387-7.638,34.487-7.612,34.563-7.638z"/>
					<path style="fill-rule:evenodd;clip-rule:evenodd;fill:#FFFFFF;" d="M31.675-6.175C31.95-6.2,32-6.275,31.825-6.399
						c-0.201-0.15-0.351-0.188-0.45-0.113c-0.075,0.075-0.075,0.15,0,0.226C31.45-6.188,31.55-6.15,31.675-6.175z"/>
					<path style="fill-rule:evenodd;clip-rule:evenodd;fill:#FFFFFF;" d="M28.524-7.524c0.25-0.075,0.301-0.175,0.15-0.301
						c-0.15-0.149-0.288-0.188-0.412-0.112c-0.075,0.05-0.088,0.138-0.038,0.263C28.3-7.55,28.4-7.5,28.524-7.524z"/>
				</g>
				<path style="fill-rule:evenodd;clip-rule:evenodd;fill:#A88A43;" d="M23.95-7.412c0.275,0,0.399-0.075,0.375-0.226
					c0-0.149-0.113-0.275-0.338-0.375c-0.45-0.149-0.737-0.1-0.862,0.15c-0.05,0.075,0,0.163,0.149,0.263
					C23.45-7.475,23.675-7.412,23.95-7.412z"/>
				<path style="fill-rule:evenodd;clip-rule:evenodd;fill:#EDE2AD;" d="M23.912-7.337c0.25,0,0.375-0.075,0.375-0.226
					c-0.025-0.149-0.149-0.263-0.375-0.337c-0.2-0.075-0.387-0.1-0.563-0.075C23.2-7.95,23.1-7.887,23.05-7.787
					c-0.05,0.1,0,0.2,0.15,0.3C23.4-7.387,23.637-7.337,23.912-7.337z"/>
				<path style="fill-rule:evenodd;clip-rule:evenodd;fill:#FFFFFF;" d="M23.763-7.412c0.125,0,0.2-0.025,0.225-0.075
					s-0.013-0.1-0.112-0.15c-0.1-0.074-0.212-0.125-0.338-0.149c-0.149-0.025-0.237,0-0.263,0.075
					c-0.024,0.074,0.013,0.137,0.113,0.188C23.487-7.45,23.612-7.412,23.763-7.412z"/>
			</g>
			<g>
				<g>
					
						<linearGradient id="SVGID_8_" gradientUnits="userSpaceOnUse" x1="-134.377" y1="-166.3105" x2="-100.2221" y2="-166.3105" gradientTransform="matrix(0.7499 -0.0126 0.0126 0.7499 105.6504 99.3262)">
						<stop  offset="0" style="stop-color:#E9B140"/>
						<stop  offset="1" style="stop-color:#C47E00"/>
					</linearGradient>
					<path style="fill-rule:evenodd;clip-rule:evenodd;fill:url(#SVGID_8_);" d="M18.288-17.563c4.85-0.35,7.45-1.375,7.8-3.075
						c0.45-2.15,0.05-4.075-1.2-5.775c-1.2-1.675-2.9-2.725-5.1-3.15c-5.225-0.975-9.35-1-12.375-0.075
						c-2.225,0.65-3.75,2-4.575,4.05l-0.6,2.888c0.45,0.55,0.987,1.125,1.612,1.725c1.25,1.2,2.3,1.962,3.15,2.288
						C9.925-17.612,13.688-17.237,18.288-17.563z"/>
					<path style="fill-rule:evenodd;clip-rule:evenodd;fill:#FFD15B;" d="M2.538-21.462c0.75,1.475,4.6,2.175,11.55,2.1
						c6.7-0.075,10.425-0.538,11.175-1.388c0.6-0.725,0.662-1.525,0.188-2.4c-0.55-0.925-1.588-1.663-3.113-2.212
						c-1.575-0.575-3.625-1.025-6.15-1.35c-2.525-0.325-4.8-0.425-6.825-0.3c-2.55,0.125-4.488,0.837-5.813,2.137
						C2.35-23.7,2.013-22.563,2.538-21.462z"/>
					<path style="fill-rule:evenodd;clip-rule:evenodd;fill:#57390D;" d="M25.675-18.125c1.325-0.15,1.875-0.563,1.65-1.237
						c-0.15-0.375-0.475-0.888-0.975-1.538c-0.05-0.125-0.025-0.6,0.075-1.425c0.05-0.65-0.113-1.038-0.488-1.163
						c-0.325-0.125-0.837-0.138-1.538-0.038c-0.775,0.1-1.337,0.112-1.688,0.038c-0.5-0.125-0.65-0.35-0.45-0.675
						c0.175-0.3,0.525-0.525,1.05-0.675c0.55-0.15,0.55-0.475,0-0.975s-1.45-0.775-2.7-0.825c-2.575-0.15-4-0.25-4.275-0.3
						c-1.5-0.25-2.95-0.275-4.35-0.075c-0.55,0.1-1.45,0.325-2.7,0.675c-1.225,0.35-2.225,0.55-3,0.6
						c-0.625,0.05-1.225,0.375-1.8,0.975c-0.6,0.6-0.713,1.025-0.338,1.275c0.725,0.5,4.05,1.538,9.975,3.112
						C20.375-18.725,24.225-17.975,25.675-18.125z"/>
					<path style="fill-rule:evenodd;clip-rule:evenodd;fill:#80561C;" d="M25.638-17.825c1.325-0.15,1.875-0.563,1.65-1.238
						c-0.15-0.375-0.475-0.875-0.975-1.5c-0.05-0.125-0.025-0.612,0.075-1.462c0.05-0.625-0.113-1-0.488-1.125
						c-0.325-0.125-0.837-0.137-1.537-0.038c-0.775,0.1-1.337,0.1-1.688,0c-0.775-0.2-0.563-0.75,0.637-1.65
						c0.425-0.325,0.3-0.675-0.375-1.05c-0.675-0.4-1.462-0.55-2.362-0.45c-1,0.125-2.088,0.075-3.263-0.15
						c-1.25-0.225-2.125-0.313-2.625-0.263c-1.7,0.1-2.875,0.2-3.525,0.3c-0.6,0.075-1.237,0.225-1.913,0.45
						c-1.1,0.325-2.1,0.525-3,0.6c-0.625,0.05-1.225,0.375-1.8,0.975c-0.6,0.6-0.712,1.025-0.337,1.275
						c0.725,0.5,4.05,1.538,9.975,3.112C20.338-18.387,24.188-17.65,25.638-17.825z"/>
					<path style="fill-rule:evenodd;clip-rule:evenodd;fill:#57390D;" d="M25.6-19.85c1-0.2,1.3-0.712,0.9-1.537
						c-0.375-0.8-0.862-1.2-1.462-1.2c-0.275,0-0.563-0.263-0.862-0.788C23.825-24,23.4-24.438,22.9-24.688
						c-1.25-0.625-2.85-0.725-4.8-0.3c-0.5,0.1-1.35-0.075-2.55-0.525c-1.3-0.5-2.337-0.713-3.113-0.638
						c-0.9,0.05-1.612,0.188-2.137,0.413c-1,0.45-1.587,0.7-1.763,0.75c-0.675,0.2-1.363,0.212-2.063,0.038
						c-0.75-0.2-1.288-0.263-1.612-0.188c-0.5,0.125-0.913,0.375-1.238,0.75c-0.475,0.55-0.8,0.887-0.975,1.012
						c-0.425,0.3-0.5,0.775-0.225,1.425c0.225,0.525,0.487,0.862,0.787,1.012c1.05,0.625,4.838,1.025,11.363,1.2
						C20.675-19.537,24.35-19.575,25.6-19.85z"/>
					<path style="fill-rule:evenodd;clip-rule:evenodd;fill:#80561C;" d="M25.45-19.55c1-0.225,1.35-0.725,1.05-1.5
						c-0.275-0.775-0.712-1.163-1.313-1.163c-0.3,0-0.587-0.263-0.862-0.788c-0.35-0.625-0.775-1.063-1.275-1.313
						c-1.25-0.625-2.85-0.725-4.8-0.3c-0.5,0.1-1.35-0.075-2.55-0.525c-1.3-0.5-2.338-0.725-3.113-0.675
						c-0.925,0.075-1.65,0.225-2.175,0.45c-0.975,0.45-1.55,0.7-1.725,0.75c-0.675,0.2-1.362,0.212-2.063,0.038
						c-0.775-0.2-1.325-0.263-1.65-0.188c-0.475,0.1-0.875,0.337-1.2,0.712c-0.5,0.575-0.837,0.925-1.012,1.05
						C2.338-22.7,2.25-22.3,2.5-21.8c0.175,0.425,0.413,0.712,0.712,0.862c1.05,0.625,4.813,1.075,11.288,1.35
						C20.55-19.313,24.2-19.3,25.45-19.55z"/>
					<path style="fill-rule:evenodd;clip-rule:evenodd;fill:#57390D;" d="M25.788-17.413c0.325-0.1,0.5-0.288,0.525-0.563
						c0.075-0.4,0.25-0.737,0.525-1.012c0.4-0.425,0.438-0.863,0.113-1.313c-0.3-0.4-0.775-0.675-1.425-0.825
						c-0.425-0.1-1.038-0.438-1.837-1.012c-0.95-0.7-1.513-1.1-1.688-1.2c-0.075-0.05-0.662-0.212-1.762-0.487
						c-0.675-0.175-0.913-0.425-0.713-0.75c0.225-0.4-0.037-0.688-0.787-0.863c-0.725-0.175-1.4-0.162-2.025,0.038
						c-0.5,0.15-1.225,0.225-2.175,0.225c-0.175,0-0.975-0.038-2.4-0.113c-0.8-0.05-1.6-0.025-2.4,0.075
						c-0.9,0.15-1.55,0.363-1.95,0.638c-0.875,0.65-1.913,1-3.112,1.05c-0.5,0.025-0.85,0.112-1.05,0.263
						c-0.225,0.15-0.475,0.487-0.75,1.012c-0.35,0.675,0,1.275,1.05,1.8c0.525,0.275,4.187,0.887,10.987,1.837
						C21.713-17.637,25.337-17.237,25.788-17.413z"/>
					<path style="fill-rule:evenodd;clip-rule:evenodd;fill:#80561C;" d="M25.75-16.962c0.325-0.1,0.5-0.3,0.525-0.6
						c0.075-0.4,0.25-0.737,0.525-1.012c0.4-0.4,0.437-0.825,0.112-1.275c-0.325-0.4-0.8-0.675-1.425-0.825
						c-0.45-0.1-1.088-0.45-1.913-1.05c-1.075-0.775-1.663-1.187-1.763-1.237c-0.075-0.05-0.662-0.212-1.762-0.487
						c-0.675-0.175-0.913-0.425-0.713-0.75c0.225-0.4-0.025-0.663-0.75-0.788c-0.675-0.125-1.325-0.088-1.95,0.112
						c-0.5,0.15-1.213,0.213-2.138,0.188c-0.025,0-0.825-0.063-2.4-0.188c-2.05-0.1-3.5,0.15-4.35,0.75
						c-0.95,0.65-1.987,1-3.112,1.05c-0.475,0.025-0.825,0.112-1.05,0.262c-0.225,0.15-0.475,0.475-0.75,0.975
						c-0.25,0.45-0.2,0.85,0.15,1.2c0.125,0.15,0.425,0.362,0.9,0.637c0.525,0.275,4.188,0.888,10.987,1.837
						C21.675-17.212,25.3-16.813,25.75-16.962z"/>
					<path style="fill-rule:evenodd;clip-rule:evenodd;fill:#BA803D;" d="M19.263-21.163c1.65,0.85,3.275,1.375,4.875,1.575
						c1.475,0.175,1.962,0.462,1.462,0.862c-0.875,0.425-1.375,0.688-1.5,0.788c-0.25,0.175-0.288,0.325-0.112,0.45
						c0.2,0.125,0.563,0.05,1.087-0.225c0.675-0.375,1.037-0.775,1.087-1.2c0.05-0.425-0.225-0.687-0.825-0.787
						C24.212-19.9,23-20.225,21.7-20.675c-1.95-0.65-3.25-1.313-3.9-1.988c-0.575-0.6-0.675-0.975-0.3-1.125
						c0.5-0.2,0.725-0.362,0.675-0.487c-0.075-0.325-0.538-0.425-1.388-0.3c-0.05,0.025-0.887,0.212-2.513,0.563
						c-0.625,0.15-1.512,0.237-2.662,0.262c-1.25,0.05-2.025,0.1-2.325,0.15c-0.325,0.05-0.862,0.275-1.612,0.675
						c-0.7,0.4-1.388,0.637-2.063,0.712C4.788-22.137,4.25-21.925,4-21.575c-0.175,0.25-0.188,0.487-0.038,0.712l0.975-0.825
						c0.125-0.1,0.5-0.225,1.125-0.375c0.65-0.125,1.138-0.3,1.462-0.525c0.775-0.5,1.725-0.75,2.85-0.75c1.425,0,2.175,0,2.25,0
						c1.15-0.05,2.05-0.212,2.7-0.487c0.675-0.3,1.325-0.45,1.95-0.45c0.625,0,0.763,0.063,0.413,0.188
						c-0.625,0.2-0.875,0.575-0.75,1.125C17.038-22.537,17.813-21.938,19.263-21.163z"/>
					
						<linearGradient id="SVGID_9_" gradientUnits="userSpaceOnUse" x1="59.793" y1="28.9834" x2="79.9934" y2="28.9834" gradientTransform="matrix(0.75 0.0046 -0.0046 0.75 -36.209 -40.9116)">
						<stop  offset="0" style="stop-color:#FDCB53"/>
						<stop  offset="1" style="stop-color:#D48801"/>
					</linearGradient>
					<path style="fill-rule:evenodd;clip-rule:evenodd;fill:url(#SVGID_9_);" d="M8.5-21.837c0.275,0.9,0.7,1.887,1.275,2.962
						c1.125,2.125,2.45,3.6,3.975,4.425c1.75,0.925,3.825,0.7,6.225-0.675c2.3-1.3,3.525-2.737,3.675-4.313
						c0.125-1.35-0.75-2.425-2.625-3.225c-1.225-0.5-2.788-0.85-4.688-1.05c-1.975-0.225-3.762-0.087-5.362,0.413
						C9.75-22.9,8.925-22.412,8.5-21.837z"/>
					<path style="fill-rule:evenodd;clip-rule:evenodd;fill:#C98000;" d="M23.013-18.012l0.188-0.15
						c0.275-0.55,0.425-0.975,0.45-1.275c0.125-1.35-0.75-2.425-2.625-3.225c-1.225-0.5-2.788-0.85-4.688-1.05
						c-1.975-0.225-3.762-0.087-5.362,0.413c-1.225,0.4-2.05,0.888-2.475,1.462c0.25,0.825,0.638,1.75,1.163,2.775
						c1.05,2.025,2.275,3.475,3.675,4.35c0.35,0.1,0.538,0.1,0.563,0s0.087-0.4,0.188-0.9c0.525-1.4,0.325-2.538-0.6-3.413
						c-0.45-0.425-0.962-0.712-1.538-0.862L11.688-21.2c0.3-0.85,1.613-1.175,3.938-0.975c3.025,0.25,5.163,1.012,6.413,2.288
						C22.663-19.237,22.987-18.612,23.013-18.012z"/>
					<path style="fill-rule:evenodd;clip-rule:evenodd;fill:#EDE2AD;" d="M4.938-16.325c1.3,0.475,2.688,0.887,4.163,1.237
						c2.95,0.675,4.85,0.712,5.7,0.112c1.075-0.75,0.913-2.038-0.488-3.862c-1.45-1.85-3.05-2.637-4.8-2.362
						c-3,0.45-4.763,0.75-5.288,0.9c-1.35,0.425-2.012,1.138-1.987,2.137c0.025,0.925,0.325,1.425,0.9,1.5
						C4.213-16.512,4.813-16.4,4.938-16.325z"/>
					
						<linearGradient id="SVGID_10_" gradientUnits="userSpaceOnUse" x1="-1284.9043" y1="-14785.3477" x2="-1277.2882" y2="-14785.3477" gradientTransform="matrix(0.1305 -0.7386 0.7386 0.1305 11095.5215 964.7432)">
						<stop  offset="0" style="stop-color:#FDCB53"/>
						<stop  offset="1" style="stop-color:#D48801"/>
					</linearGradient>
					<path style="fill-rule:evenodd;clip-rule:evenodd;fill:url(#SVGID_10_);" d="M4.375-14.938c1.3,0.225,2.675,0.4,4.125,0.525
						c2.925,0.225,4.813,0.038,5.663-0.563c1.05-0.725,1.1-1.837,0.15-3.337s-2.425-2.612-4.425-3.337
						c-1.925-0.7-3.813-0.587-5.663,0.337c-1.775,0.85-2.65,1.9-2.625,3.15c0.025,0.7,0.188,1.263,0.487,1.688
						c0.225,0.325,0.575,0.613,1.05,0.863C3.688-15.337,4.1-15.112,4.375-14.938z"/>
					
						<linearGradient id="SVGID_11_" gradientUnits="userSpaceOnUse" x1="13395.6621" y1="-18443.3164" x2="13412.9053" y2="-18443.3164" gradientTransform="matrix(-0.7133 -0.2316 0.2316 -0.7133 13842.5488 -10070.1504)">
						<stop  offset="0" style="stop-color:#D69211"/>
						<stop  offset="1" style="stop-color:#C98000"/>
					</linearGradient>
					<path style="fill-rule:evenodd;clip-rule:evenodd;fill:url(#SVGID_11_);" d="M9.888-21.65c-1.925-0.7-3.813-0.587-5.663,0.337
						c-1.775,0.85-2.65,1.9-2.625,3.15l0.112,0.825c0.25-2.075,1.962-3.188,5.138-3.337c1.95-0.075,3.738,0.337,5.362,1.237
						c1.6,0.875,2.525,1.913,2.775,3.113c-0.05-1.275-0.763-2.475-2.138-3.6C11.9-20.7,10.913-21.275,9.888-21.65z"/>
					<path style="fill-rule:evenodd;clip-rule:evenodd;fill:#EDE2AD;" d="M5.425-16.137C4.5-16.087,3.788-15.975,3.288-15.8
						c-0.275,0.225-0.425,0.525-0.45,0.9c0,0.775,0.7,1.55,2.1,2.325c1.475,0.825,3.438,1.288,5.888,1.387
						c0.65-0.025,1.387-0.625,2.212-1.8c0.425-0.6,0.775-1.2,1.05-1.8c0.225-0.025,0.275-0.075,0.15-0.15
						c-0.25-0.15-1.2-0.4-2.85-0.75C9.263-16.137,7.275-16.288,5.425-16.137z"/>
					
						<linearGradient id="SVGID_12_" gradientUnits="userSpaceOnUse" x1="57.0059" y1="41.3486" x2="75.2835" y2="41.3486" gradientTransform="matrix(0.75 0.0051 -0.0051 0.75 -40.1777 -44.9282)">
						<stop  offset="0" style="stop-color:#FDCB53"/>
						<stop  offset="1" style="stop-color:#D48801"/>
					</linearGradient>
					<path style="fill-rule:evenodd;clip-rule:evenodd;fill:url(#SVGID_12_);" d="M10.488-11.112c1.075-0.025,2.937-1,5.587-2.925
						c-0.525-0.325-2.112-0.775-4.763-1.35c-2.125-0.45-4.2-0.675-6.225-0.675c-1.025,0-1.837,0.05-2.438,0.15
						c-0.225,0.25-0.312,0.587-0.262,1.013C2.462-14.075,3.2-13.275,4.6-12.5C6.1-11.675,8.063-11.212,10.488-11.112z"/>
					<path style="fill-rule:evenodd;clip-rule:evenodd;fill:#EDE2AD;" d="M13.863-15.012c-1.3,0.75-2.325,1.45-3.075,2.1
						c-0.65,0.55-0.9,1.013-0.75,1.388c0.2,0.475,1.05,0.862,2.55,1.163c2.2,0.425,4.225,0.275,6.075-0.45
						C19.588-11.188,20.3-11.6,20.8-12.05c-2.075,0.05-3.663-0.25-4.763-0.9C14.913-13.6,14.188-14.287,13.863-15.012z"/>
					
						<linearGradient id="SVGID_13_" gradientUnits="userSpaceOnUse" x1="68.3174" y1="43.8096" x2="82.6886" y2="43.8096" gradientTransform="matrix(0.75 0.0052 -0.0052 0.75 -40.8867 -45.6475)">
						<stop  offset="0" style="stop-color:#FDCB53"/>
						<stop  offset="1" style="stop-color:#D48801"/>
					</linearGradient>
					<path style="fill-rule:evenodd;clip-rule:evenodd;fill:url(#SVGID_13_);" d="M14.163-14.975
						c-1.425,0.925-2.513,1.7-3.263,2.325c-0.65,0.55-0.887,1.025-0.712,1.425c0.2,0.475,1.038,0.863,2.513,1.163
						c2.2,0.425,4.225,0.263,6.075-0.487c0.925-0.375,1.638-0.788,2.138-1.238C18.838-11.712,17.25-12,16.15-12.65
						c-0.7-0.4-1.237-0.913-1.612-1.538C14.338-14.487,14.213-14.75,14.163-14.975z"/>
					<path style="fill-rule:evenodd;clip-rule:evenodd;fill:#EDE2AD;" d="M23.913-17.075c-0.4,1.275-1.275,2.025-2.625,2.25
						c-2.125,0.35-4,0.45-5.625,0.3l-1.8-0.3c-0.05,0.225,0.012,0.512,0.188,0.862c0.35,0.675,1.05,1.275,2.1,1.8
						c1.725,0.85,3.475,0.962,5.25,0.338c1.8-0.6,3.138-1.788,4.013-3.563c0.675-1.35,0.65-2.337-0.075-2.963l-1.275-0.525
						C24.138-18.3,24.088-17.7,23.913-17.075z"/>
					
						<linearGradient id="SVGID_14_" gradientUnits="userSpaceOnUse" x1="78.4819" y1="43.9209" x2="95.0715" y2="43.9209" gradientTransform="matrix(0.75 0.0057 -0.0057 0.75 -44.4463 -49.2559)">
						<stop  offset="0" style="stop-color:#FDCB53"/>
						<stop  offset="1" style="stop-color:#D48801"/>
					</linearGradient>
					<path style="fill-rule:evenodd;clip-rule:evenodd;fill:url(#SVGID_14_);" d="M23.05-18.425c-0.6,1.275-1.5,2.2-2.7,2.775
						c-1.65,0.8-3.175,1.15-4.575,1.05l-1.612-0.375c-0.025,0.225,0.038,0.513,0.188,0.863c0.35,0.675,1.05,1.275,2.1,1.8
						c1.8,0.85,3.637,1.05,5.512,0.6c2-0.5,3.425-1.612,4.275-3.337c0.675-1.35,0.437-2.612-0.713-3.788
						c-0.575-0.575-1.212-1.013-1.912-1.313C23.563-19.625,23.375-19.05,23.05-18.425z"/>
					<path style="fill-rule:evenodd;clip-rule:evenodd;fill:#C98000;" d="M23.613-20.15c-0.075,0.575-0.275,1.188-0.6,1.837
						c1.1,0.4,1.837,0.975,2.212,1.725c0.525,1.025,0.375,2.175-0.45,3.45c0.625-0.55,1.113-1.188,1.463-1.913
						c0.675-1.35,0.437-2.612-0.713-3.788C24.95-19.412,24.313-19.85,23.613-20.15z"/>
					<path style="fill-rule:evenodd;clip-rule:evenodd;fill:#EDE2AD;" d="M17.613-14.487c1.4-0.175,2.65-0.612,3.75-1.313
						c0.575-0.35,1.025-0.825,1.35-1.425c0.3-0.55,0.45-1.1,0.45-1.65c-0.025,0.525-0.325,1.138-0.9,1.837
						c-0.55,0.65-1.1,1.1-1.65,1.35c-1.825,0.775-3.45,1.125-4.875,1.05l-1.575-0.338c-0.225-0.075-0.325-0.037-0.3,0.113
						C14.938-14.413,16.188-14.287,17.613-14.487z"/>
					<path style="fill-rule:evenodd;clip-rule:evenodd;fill:#EDE2AD;" d="M13.6-14.675l0.413,0.075
						c0.325,0.025,0.637,0.038,0.938,0.038c0.275,0,0.35-0.025,0.225-0.075c-0.375-0.125-0.55-0.275-0.525-0.45
						c0.025-0.1-0.037-0.125-0.188-0.075c-0.3,0.1-0.737,0.087-1.313-0.037c0.106,0.065,0.194,0.152,0.263,0.262L13.6-14.675z"/>
					<path style="fill-rule:evenodd;clip-rule:evenodd;fill:#A88A43;" d="M7.413-11.6c0.275,0,0.413-0.087,0.413-0.262
						c0-0.15-0.125-0.275-0.375-0.375C7-12.412,6.688-12.35,6.513-12.05c-0.05,0.075,0.013,0.162,0.188,0.262
						C6.875-11.662,7.113-11.6,7.413-11.6z"/>
					<path style="fill-rule:evenodd;clip-rule:evenodd;fill:#EDE2AD;" d="M7.337-11.487c0.275,0,0.413-0.088,0.413-0.263
						c0-0.15-0.125-0.275-0.375-0.375C6.95-12.3,6.638-12.25,6.438-11.975c-0.05,0.1,0.013,0.2,0.188,0.3
						C6.8-11.55,7.038-11.487,7.337-11.487z"/>
					<path style="fill-rule:evenodd;clip-rule:evenodd;fill:#FFFFFF;" d="M7.188-11.6c0.3,0,0.35-0.075,0.15-0.225
						c-0.1-0.075-0.225-0.125-0.375-0.15C6.813-12,6.725-11.975,6.7-11.9c-0.025,0.1,0.013,0.175,0.112,0.225
						C6.913-11.6,7.038-11.575,7.188-11.6z"/>
					<path style="fill-rule:evenodd;clip-rule:evenodd;fill:#A88A43;" d="M9.288-12.275C9.813-12.325,10-12.45,9.85-12.65
						c-0.175-0.175-0.462-0.25-0.862-0.225c-0.35,0.025-0.45,0.138-0.3,0.337C8.862-12.337,9.063-12.25,9.288-12.275z"/>
					<path style="fill-rule:evenodd;clip-rule:evenodd;fill:#A88A43;" d="M6.288-13.438C6.638-13.412,6.775-13.5,6.7-13.7
						c-0.1-0.2-0.275-0.275-0.525-0.225C5.975-13.9,5.9-13.813,5.95-13.663C6-13.537,6.112-13.462,6.288-13.438z"/>
					<path style="fill-rule:evenodd;clip-rule:evenodd;fill:#A88A43;" d="M11.538-16.325c0.35-0.075,0.438-0.188,0.263-0.338
						c-0.2-0.15-0.425-0.2-0.675-0.15c-0.225,0.05-0.287,0.15-0.188,0.3C11.013-16.337,11.213-16.275,11.538-16.325z"/>
					<path style="fill-rule:evenodd;clip-rule:evenodd;fill:#A88A43;" d="M18.363-15.837c0.525-0.025,0.787-0.15,0.787-0.375
						c0-0.2-0.225-0.275-0.675-0.225c-0.375,0.05-0.55,0.163-0.525,0.337C17.975-15.925,18.112-15.837,18.363-15.837z"/>
					<path style="fill-rule:evenodd;clip-rule:evenodd;fill:#A88A43;" d="M23.313-13.063c0.45-0.15,0.6-0.337,0.45-0.563
						c-0.15-0.25-0.413-0.275-0.788-0.075c-0.35,0.175-0.438,0.337-0.263,0.487C22.863-13.037,23.063-12.987,23.313-13.063z"/>
					<path style="fill-rule:evenodd;clip-rule:evenodd;fill:#A88A43;" d="M19.413-12.05c-0.075-0.3-0.313-0.425-0.712-0.375
						c-0.4,0.05-0.563,0.175-0.488,0.375c0.05,0.175,0.275,0.262,0.675,0.262C19.288-11.788,19.463-11.875,19.413-12.05z"/>
					<path style="fill-rule:evenodd;clip-rule:evenodd;fill:#A88A43;" d="M20.238-13.813C20.862-13.987,21-14.2,20.65-14.45
						c-0.375-0.225-0.762-0.25-1.162-0.075c-0.375,0.175-0.438,0.363-0.188,0.563C19.525-13.737,19.838-13.688,20.238-13.813z"/>
					<path style="fill-rule:evenodd;clip-rule:evenodd;fill:#A88A43;" d="M15.775-10.212c0.525,0,0.713-0.163,0.563-0.487
						c-0.175-0.325-0.487-0.45-0.938-0.375C15-11,14.875-10.837,15.025-10.587C15.2-10.337,15.45-10.212,15.775-10.212z"/>
					<path style="fill-rule:evenodd;clip-rule:evenodd;fill:#A88A43;" d="M6.513-16.475C7.088-16.5,7.25-16.65,7-16.925
						c-0.25-0.3-0.587-0.35-1.012-0.15c-0.4,0.175-0.5,0.325-0.3,0.45S6.163-16.45,6.513-16.475z"/>
					<path style="fill-rule:evenodd;clip-rule:evenodd;fill:#A88A43;" d="M12.587-11.637c0.525-0.125,0.638-0.35,0.338-0.675
						c-0.3-0.35-0.6-0.413-0.9-0.188c-0.275,0.2-0.325,0.413-0.15,0.638C12.075-11.662,12.313-11.587,12.587-11.637z"/>
					<path style="fill-rule:evenodd;clip-rule:evenodd;fill:#EDE2AD;" d="M9.25-12.2c0.525-0.05,0.7-0.175,0.525-0.375
						C9.625-12.75,9.35-12.825,8.95-12.8c-0.35,0.025-0.45,0.138-0.3,0.337C8.825-12.263,9.025-12.175,9.25-12.2z"/>
					<path style="fill-rule:evenodd;clip-rule:evenodd;fill:#EDE2AD;" d="M6.25-13.4c0.35,0.05,0.475-0.025,0.375-0.225
						c-0.1-0.2-0.262-0.275-0.487-0.225c-0.2,0.025-0.275,0.1-0.225,0.225S6.075-13.425,6.25-13.4z"/>
					<path style="fill-rule:evenodd;clip-rule:evenodd;fill:#EDE2AD;" d="M11.5-16.288c0.375-0.075,0.463-0.175,0.263-0.3
						c-0.2-0.15-0.425-0.2-0.675-0.15c-0.25,0.05-0.325,0.15-0.225,0.3C10.963-16.263,11.175-16.212,11.5-16.288z"/>
					<path style="fill-rule:evenodd;clip-rule:evenodd;fill:#EDE2AD;" d="M18.325-15.762c0.5-0.025,0.763-0.15,0.788-0.375
						c0-0.2-0.225-0.275-0.675-0.225c-0.4,0.05-0.575,0.162-0.525,0.337C17.938-15.85,18.075-15.762,18.325-15.762z"/>
					<path style="fill-rule:evenodd;clip-rule:evenodd;fill:#EDE2AD;" d="M23.238-12.987c0.475-0.15,0.637-0.35,0.487-0.6
						c-0.125-0.25-0.387-0.275-0.788-0.075c-0.35,0.175-0.438,0.35-0.262,0.525C22.825-12.962,23.013-12.913,23.238-12.987z"/>
					<path style="fill-rule:evenodd;clip-rule:evenodd;fill:#EDE2AD;" d="M19.375-11.975c-0.075-0.3-0.313-0.425-0.712-0.375
						c-0.4,0.05-0.575,0.175-0.525,0.375c0.05,0.175,0.275,0.263,0.675,0.263C19.237-11.712,19.425-11.8,19.375-11.975z"/>
					<path style="fill-rule:evenodd;clip-rule:evenodd;fill:#EDE2AD;" d="M20.163-13.775c0.625-0.15,0.762-0.35,0.413-0.6
						c-0.35-0.225-0.725-0.25-1.125-0.075c-0.375,0.175-0.45,0.362-0.225,0.563C19.45-13.688,19.763-13.65,20.163-13.775z"/>
					<path style="fill-rule:evenodd;clip-rule:evenodd;fill:#EDE2AD;" d="M15.7-10.137c0.55,0,0.737-0.163,0.563-0.488
						s-0.475-0.45-0.9-0.375c-0.4,0.075-0.525,0.237-0.375,0.488C15.138-10.263,15.375-10.137,15.7-10.137z"/>
					<path style="fill-rule:evenodd;clip-rule:evenodd;fill:#EDE2AD;" d="M6.475-16.4c0.575-0.025,0.738-0.175,0.487-0.45
						C6.713-17.15,6.375-17.2,5.95-17c-0.4,0.175-0.5,0.325-0.3,0.45C5.825-16.45,6.1-16.4,6.475-16.4z"/>
					<path style="fill-rule:evenodd;clip-rule:evenodd;fill:#EDE2AD;" d="M12.55-11.563c0.525-0.125,0.637-0.362,0.337-0.712
						c-0.3-0.35-0.612-0.4-0.938-0.15c-0.275,0.2-0.313,0.413-0.113,0.637C12.038-11.587,12.275-11.513,12.55-11.563z"/>
					<path style="fill-rule:evenodd;clip-rule:evenodd;fill:#FFFFFF;" d="M9.138-12.313C9.313-12.287,9.4-12.3,9.4-12.35
						c0-0.075-0.087-0.112-0.262-0.112c-0.15,0-0.213,0.025-0.188,0.075C8.975-12.337,9.038-12.313,9.138-12.313z"/>
					<path style="fill-rule:evenodd;clip-rule:evenodd;fill:#FFFFFF;" d="M6.325-13.475c0.1,0,0.125-0.037,0.075-0.112
						c-0.05-0.075-0.125-0.1-0.225-0.075c-0.125,0.025-0.163,0.075-0.113,0.15C6.112-13.462,6.2-13.45,6.325-13.475z"/>
					<path style="fill-rule:evenodd;clip-rule:evenodd;fill:#FFFFFF;" d="M6.438-16.512c0.275-0.05,0.3-0.125,0.075-0.225
						c-0.25-0.075-0.45-0.088-0.6-0.038c-0.125,0.05-0.112,0.112,0.038,0.188C6.125-16.512,6.288-16.487,6.438-16.512z"/>
					<path style="fill-rule:evenodd;clip-rule:evenodd;fill:#FFFFFF;" d="M11.35-16.325c0.3-0.075,0.225-0.15-0.225-0.225
						c-0.1,0.025-0.112,0.075-0.038,0.15C11.163-16.325,11.25-16.3,11.35-16.325z"/>
					<path style="fill-rule:evenodd;clip-rule:evenodd;fill:#FFFFFF;" d="M18.55-15.913c0.25-0.1,0.262-0.175,0.037-0.225
						c-0.2-0.025-0.337,0-0.412,0.075c-0.075,0.075-0.063,0.138,0.037,0.188C18.313-15.85,18.425-15.862,18.55-15.913z"/>
					<path style="fill-rule:evenodd;clip-rule:evenodd;fill:#FFFFFF;" d="M20.087-13.85c0.3-0.075,0.325-0.163,0.075-0.262
						c-0.25-0.1-0.462-0.113-0.638-0.038C19.375-14.075,19.4-14,19.6-13.925C19.775-13.825,19.938-13.8,20.087-13.85z"/>
					<path style="fill-rule:evenodd;clip-rule:evenodd;fill:#FFFFFF;" d="M23.087-13.212c0.1-0.05,0.238-0.163,0.413-0.337
						c0.05-0.075-0.038-0.1-0.262-0.075c-0.225,0.025-0.375,0.088-0.45,0.188c-0.05,0.1-0.038,0.175,0.038,0.225
						C22.9-13.162,22.987-13.162,23.087-13.212z"/>
					<path style="fill-rule:evenodd;clip-rule:evenodd;fill:#FFFFFF;" d="M18.775-11.825c0.2-0.075,0.238-0.15,0.113-0.225
						c-0.15-0.075-0.3-0.088-0.45-0.038c-0.1,0.05-0.087,0.112,0.038,0.188S18.7-11.8,18.775-11.825z"/>
					<path style="fill-rule:evenodd;clip-rule:evenodd;fill:#FFFFFF;" d="M15.7-10.212c0.3-0.025,0.35-0.125,0.15-0.3
						c-0.225-0.15-0.387-0.175-0.487-0.075c-0.1,0.075-0.1,0.15,0,0.225C15.463-10.263,15.575-10.212,15.7-10.212z"/>
					<path style="fill-rule:evenodd;clip-rule:evenodd;fill:#FFFFFF;" d="M12.288-11.675c0.3-0.075,0.363-0.188,0.188-0.337
						c-0.175-0.175-0.325-0.212-0.45-0.113c-0.1,0.05-0.112,0.15-0.037,0.3C12.063-11.7,12.163-11.65,12.288-11.675z"/>
				</g>
				<g>
					
						<linearGradient id="SVGID_15_" gradientUnits="userSpaceOnUse" x1="-134.377" y1="-166.3105" x2="-100.2221" y2="-166.3105" gradientTransform="matrix(0.7499 -0.0126 0.0126 0.7499 130.4004 95.2256)">
						<stop  offset="0" style="stop-color:#E9B140"/>
						<stop  offset="1" style="stop-color:#C47E00"/>
					</linearGradient>
					<path style="fill-rule:evenodd;clip-rule:evenodd;fill:url(#SVGID_15_);" d="M43.038-21.662c4.85-0.351,7.45-1.375,7.8-3.075
						c0.45-2.15,0.05-4.075-1.2-5.775c-1.2-1.675-2.9-2.725-5.1-3.149c-5.225-0.976-9.35-1-12.375-0.075
						c-2.225,0.65-3.75,2-4.575,4.05l-0.6,2.888c0.45,0.55,0.987,1.125,1.612,1.725c1.25,1.2,2.3,1.963,3.15,2.288
						C34.675-21.712,38.438-21.337,43.038-21.662z"/>
					<path style="fill-rule:evenodd;clip-rule:evenodd;fill:#FFD15B;" d="M27.288-25.563c0.75,1.475,4.6,2.175,11.55,2.1
						c6.7-0.074,10.425-0.537,11.175-1.387c0.6-0.726,0.662-1.525,0.188-2.4c-0.55-0.925-1.588-1.663-3.113-2.213
						c-1.575-0.575-3.625-1.025-6.15-1.35c-2.525-0.325-4.8-0.425-6.825-0.3c-2.55,0.125-4.488,0.837-5.813,2.138
						C27.1-27.8,26.763-26.663,27.288-25.563z"/>
					<path style="fill-rule:evenodd;clip-rule:evenodd;fill:#57390D;" d="M50.425-22.225c1.325-0.15,1.875-0.563,1.65-1.238
						C51.925-23.838,51.6-24.35,51.1-25c-0.05-0.125-0.025-0.6,0.075-1.425c0.05-0.65-0.113-1.038-0.488-1.163
						c-0.325-0.125-0.837-0.137-1.538-0.037c-0.775,0.1-1.337,0.112-1.688,0.037c-0.5-0.125-0.65-0.35-0.45-0.675
						c0.175-0.3,0.525-0.524,1.05-0.675c0.55-0.15,0.55-0.475,0-0.975c-0.55-0.5-1.45-0.775-2.7-0.825c-2.575-0.15-4-0.25-4.275-0.3
						c-1.5-0.25-2.95-0.275-4.35-0.075c-0.55,0.1-1.45,0.325-2.7,0.675c-1.225,0.35-2.225,0.55-3,0.6
						c-0.625,0.05-1.225,0.375-1.8,0.976c-0.6,0.6-0.713,1.025-0.338,1.274c0.725,0.5,4.05,1.538,9.975,3.113
						C45.125-22.825,48.975-22.075,50.425-22.225z"/>
					<path style="fill-rule:evenodd;clip-rule:evenodd;fill:#80561C;" d="M50.388-21.925c1.325-0.15,1.875-0.563,1.65-1.237
						c-0.15-0.375-0.475-0.875-0.975-1.5c-0.05-0.125-0.025-0.613,0.075-1.463c0.05-0.625-0.113-1-0.488-1.125
						c-0.325-0.125-0.837-0.137-1.537-0.037c-0.775,0.1-1.337,0.1-1.688,0c-0.775-0.201-0.563-0.75,0.637-1.65
						c0.425-0.325,0.3-0.675-0.375-1.05c-0.675-0.4-1.462-0.55-2.362-0.45c-1,0.125-2.088,0.075-3.263-0.15
						c-1.25-0.225-2.125-0.312-2.625-0.262c-1.7,0.1-2.875,0.2-3.525,0.3c-0.6,0.075-1.237,0.225-1.913,0.45
						c-1.1,0.325-2.1,0.524-3,0.6c-0.625,0.05-1.225,0.375-1.8,0.975c-0.6,0.601-0.712,1.025-0.337,1.275
						c0.725,0.5,4.05,1.537,9.975,3.112C45.088-22.487,48.938-21.75,50.388-21.925z"/>
					<path style="fill-rule:evenodd;clip-rule:evenodd;fill:#57390D;" d="M50.35-23.95c1-0.2,1.3-0.712,0.9-1.537
						c-0.375-0.8-0.862-1.2-1.462-1.2c-0.275,0-0.563-0.263-0.862-0.787c-0.35-0.625-0.775-1.063-1.275-1.313
						c-1.25-0.625-2.85-0.726-4.8-0.301c-0.5,0.1-1.35-0.074-2.55-0.524c-1.3-0.5-2.337-0.713-3.113-0.638
						c-0.9,0.05-1.612,0.188-2.137,0.412c-1,0.45-1.587,0.7-1.763,0.75c-0.675,0.201-1.363,0.213-2.063,0.038
						c-0.75-0.2-1.288-0.263-1.612-0.188c-0.5,0.125-0.913,0.375-1.238,0.75c-0.475,0.55-0.8,0.887-0.975,1.013
						c-0.425,0.3-0.5,0.774-0.225,1.425c0.225,0.524,0.487,0.862,0.787,1.013c1.05,0.625,4.838,1.025,11.363,1.199
						C45.425-23.637,49.1-23.675,50.35-23.95z"/>
					<path style="fill-rule:evenodd;clip-rule:evenodd;fill:#80561C;" d="M50.2-23.65c1-0.225,1.35-0.725,1.05-1.5
						c-0.275-0.774-0.712-1.162-1.313-1.162c-0.3,0-0.587-0.263-0.862-0.787c-0.35-0.625-0.775-1.063-1.275-1.313
						c-1.25-0.625-2.85-0.726-4.8-0.301c-0.5,0.1-1.35-0.074-2.55-0.524c-1.3-0.5-2.338-0.725-3.113-0.675
						c-0.925,0.074-1.65,0.225-2.175,0.449c-0.975,0.45-1.55,0.7-1.725,0.75c-0.675,0.201-1.362,0.213-2.063,0.038
						c-0.775-0.2-1.325-0.263-1.65-0.188c-0.475,0.1-0.875,0.337-1.2,0.712c-0.5,0.576-0.837,0.925-1.012,1.051
						C27.088-26.8,27-26.4,27.25-25.9c0.175,0.425,0.413,0.713,0.712,0.863c1.05,0.625,4.813,1.075,11.288,1.35
						C45.3-23.413,48.95-23.4,50.2-23.65z"/>
					<path style="fill-rule:evenodd;clip-rule:evenodd;fill:#57390D;" d="M50.538-21.513c0.325-0.1,0.5-0.287,0.525-0.563
						c0.075-0.4,0.25-0.737,0.525-1.013c0.4-0.425,0.438-0.862,0.113-1.313c-0.3-0.399-0.775-0.675-1.425-0.824
						c-0.425-0.1-1.038-0.438-1.837-1.013c-0.95-0.7-1.513-1.1-1.688-1.2c-0.075-0.05-0.662-0.212-1.762-0.487
						c-0.675-0.175-0.913-0.425-0.713-0.75c0.225-0.4-0.037-0.688-0.787-0.862c-0.725-0.175-1.4-0.163-2.025,0.037
						c-0.5,0.15-1.225,0.225-2.175,0.225c-0.175,0-0.975-0.037-2.4-0.112c-0.8-0.05-1.6-0.025-2.4,0.075
						c-0.9,0.15-1.55,0.362-1.95,0.638c-0.875,0.65-1.913,1-3.112,1.05c-0.5,0.025-0.85,0.112-1.05,0.263
						c-0.225,0.149-0.475,0.487-0.75,1.013c-0.35,0.675,0,1.274,1.05,1.8c0.525,0.275,4.187,0.887,10.987,1.837
						C46.463-21.737,50.087-21.337,50.538-21.513z"/>
					<path style="fill-rule:evenodd;clip-rule:evenodd;fill:#80561C;" d="M50.5-21.063c0.325-0.1,0.5-0.3,0.525-0.6
						c0.075-0.4,0.25-0.738,0.525-1.013c0.4-0.4,0.437-0.825,0.112-1.275c-0.325-0.4-0.8-0.675-1.425-0.825
						c-0.45-0.1-1.088-0.449-1.913-1.05c-1.075-0.775-1.663-1.187-1.763-1.237c-0.075-0.05-0.662-0.212-1.762-0.487
						c-0.675-0.175-0.913-0.425-0.713-0.75c0.225-0.4-0.025-0.663-0.75-0.788c-0.675-0.125-1.325-0.087-1.95,0.113
						c-0.5,0.149-1.213,0.212-2.138,0.188c-0.025,0-0.825-0.063-2.4-0.188c-2.05-0.1-3.5,0.149-4.35,0.75
						c-0.95,0.65-1.987,1-3.112,1.05c-0.475,0.025-0.825,0.112-1.05,0.263c-0.225,0.149-0.475,0.475-0.75,0.975
						c-0.25,0.45-0.2,0.85,0.15,1.2c0.125,0.149,0.425,0.362,0.9,0.638c0.525,0.275,4.188,0.887,10.987,1.837
						C46.425-21.313,50.05-20.912,50.5-21.063z"/>
					<path style="fill-rule:evenodd;clip-rule:evenodd;fill:#BA803D;" d="M44.013-25.263c1.65,0.85,3.275,1.375,4.875,1.575
						c1.475,0.175,1.962,0.462,1.462,0.862c-0.875,0.425-1.375,0.688-1.5,0.788c-0.25,0.174-0.288,0.325-0.112,0.449
						c0.2,0.125,0.563,0.05,1.087-0.225c0.675-0.375,1.037-0.775,1.087-1.2c0.05-0.425-0.225-0.688-0.825-0.787
						c-1.125-0.2-2.337-0.525-3.637-0.976c-1.95-0.65-3.25-1.313-3.9-1.987c-0.575-0.6-0.675-0.975-0.3-1.125
						c0.5-0.2,0.725-0.362,0.675-0.487c-0.075-0.325-0.538-0.425-1.388-0.3c-0.05,0.025-0.887,0.212-2.513,0.563
						c-0.625,0.149-1.512,0.237-2.662,0.263c-1.25,0.05-2.025,0.1-2.325,0.149c-0.325,0.05-0.862,0.275-1.612,0.675
						c-0.7,0.4-1.388,0.638-2.063,0.713c-0.825,0.075-1.363,0.288-1.613,0.638c-0.175,0.25-0.188,0.487-0.038,0.712l0.975-0.824
						c0.125-0.1,0.5-0.226,1.125-0.375c0.65-0.125,1.138-0.301,1.462-0.525c0.775-0.5,1.725-0.75,2.85-0.75c1.425,0,2.175,0,2.25,0
						c1.15-0.05,2.05-0.212,2.7-0.487c0.675-0.3,1.325-0.45,1.95-0.45c0.625,0,0.763,0.063,0.413,0.188
						c-0.625,0.2-0.875,0.575-0.75,1.125C41.788-26.637,42.563-26.038,44.013-25.263z"/>
					
						<linearGradient id="SVGID_16_" gradientUnits="userSpaceOnUse" x1="59.793" y1="28.9834" x2="79.9934" y2="28.9834" gradientTransform="matrix(0.75 0.0046 -0.0046 0.75 -11.459 -45.0117)">
						<stop  offset="0" style="stop-color:#FDCB53"/>
						<stop  offset="1" style="stop-color:#D48801"/>
					</linearGradient>
					<path style="fill-rule:evenodd;clip-rule:evenodd;fill:url(#SVGID_16_);" d="M33.25-25.938c0.275,0.9,0.7,1.888,1.275,2.963
						c1.125,2.125,2.45,3.6,3.975,4.425c1.75,0.925,3.825,0.7,6.225-0.675c2.3-1.3,3.525-2.738,3.675-4.313
						c0.125-1.351-0.75-2.425-2.625-3.226c-1.225-0.5-2.788-0.85-4.688-1.05c-1.975-0.225-3.762-0.087-5.362,0.412
						C34.5-27,33.675-26.513,33.25-25.938z"/>
					<path style="fill-rule:evenodd;clip-rule:evenodd;fill:#C98000;" d="M47.763-22.112l0.188-0.15
						c0.275-0.55,0.425-0.975,0.45-1.274c0.125-1.351-0.75-2.425-2.625-3.226c-1.225-0.5-2.788-0.85-4.688-1.05
						c-1.975-0.225-3.762-0.087-5.362,0.412c-1.225,0.4-2.05,0.888-2.475,1.463c0.25,0.825,0.638,1.75,1.163,2.775
						c1.05,2.024,2.275,3.475,3.675,4.35c0.35,0.1,0.538,0.1,0.563,0s0.087-0.4,0.188-0.9c0.525-1.4,0.325-2.537-0.6-3.412
						c-0.45-0.425-0.962-0.713-1.538-0.862L36.438-25.3c0.3-0.85,1.613-1.175,3.938-0.976c3.025,0.25,5.163,1.013,6.413,2.288
						C47.413-23.337,47.737-22.713,47.763-22.112z"/>
					<path style="fill-rule:evenodd;clip-rule:evenodd;fill:#EDE2AD;" d="M29.688-20.425c1.3,0.475,2.688,0.887,4.163,1.237
						c2.95,0.675,4.85,0.713,5.7,0.112c1.075-0.75,0.913-2.038-0.488-3.862c-1.45-1.85-3.05-2.638-4.8-2.362
						c-3,0.45-4.763,0.75-5.288,0.899c-1.35,0.425-2.012,1.138-1.987,2.138c0.025,0.925,0.325,1.425,0.9,1.5
						C28.963-20.612,29.563-20.5,29.688-20.425z"/>
					
						<linearGradient id="SVGID_17_" gradientUnits="userSpaceOnUse" x1="-1284.9043" y1="-14785.3477" x2="-1277.2882" y2="-14785.3477" gradientTransform="matrix(0.1305 -0.7386 0.7386 0.1305 11120.2715 960.6426)">
						<stop  offset="0" style="stop-color:#FDCB53"/>
						<stop  offset="1" style="stop-color:#D48801"/>
					</linearGradient>
					<path style="fill-rule:evenodd;clip-rule:evenodd;fill:url(#SVGID_17_);" d="M29.125-19.037c1.3,0.225,2.675,0.399,4.125,0.524
						c2.925,0.226,4.813,0.038,5.663-0.563c1.05-0.725,1.1-1.837,0.15-3.337s-2.425-2.613-4.425-3.338
						c-1.925-0.7-3.813-0.587-5.663,0.338c-1.775,0.85-2.65,1.899-2.625,3.149c0.025,0.7,0.188,1.263,0.487,1.688
						c0.225,0.325,0.575,0.613,1.05,0.862C28.438-19.438,28.85-19.212,29.125-19.037z"/>
					
						<linearGradient id="SVGID_18_" gradientUnits="userSpaceOnUse" x1="13395.6621" y1="-18443.3164" x2="13412.9053" y2="-18443.3164" gradientTransform="matrix(-0.7133 -0.2316 0.2316 -0.7133 13867.2988 -10074.251)">
						<stop  offset="0" style="stop-color:#D69211"/>
						<stop  offset="1" style="stop-color:#C98000"/>
					</linearGradient>
					<path style="fill-rule:evenodd;clip-rule:evenodd;fill:url(#SVGID_18_);" d="M34.638-25.75c-1.925-0.7-3.813-0.587-5.663,0.338
						c-1.775,0.85-2.65,1.899-2.625,3.149l0.112,0.825c0.25-2.075,1.962-3.188,5.138-3.338c1.95-0.074,3.738,0.338,5.362,1.238
						c1.6,0.875,2.525,1.912,2.775,3.112c-0.05-1.275-0.763-2.476-2.138-3.601C36.65-24.8,35.663-25.375,34.638-25.75z"/>
					<path style="fill-rule:evenodd;clip-rule:evenodd;fill:#EDE2AD;" d="M30.175-20.237c-0.925,0.05-1.638,0.163-2.138,0.337
						c-0.275,0.226-0.425,0.525-0.45,0.9c0,0.775,0.7,1.55,2.1,2.325c1.475,0.825,3.438,1.288,5.888,1.388
						c0.65-0.025,1.387-0.625,2.212-1.801c0.425-0.6,0.775-1.199,1.05-1.8c0.225-0.025,0.275-0.075,0.15-0.149
						c-0.25-0.15-1.2-0.4-2.85-0.75C34.013-20.237,32.025-20.388,30.175-20.237z"/>
					
						<linearGradient id="SVGID_19_" gradientUnits="userSpaceOnUse" x1="57.0059" y1="41.3486" x2="75.2835" y2="41.3486" gradientTransform="matrix(0.75 0.0051 -0.0051 0.75 -15.4272 -49.0283)">
						<stop  offset="0" style="stop-color:#FDCB53"/>
						<stop  offset="1" style="stop-color:#D48801"/>
					</linearGradient>
					<path style="fill-rule:evenodd;clip-rule:evenodd;fill:url(#SVGID_19_);" d="M35.238-15.213c1.075-0.024,2.937-1,5.587-2.925
						c-0.525-0.325-2.112-0.775-4.763-1.35c-2.125-0.45-4.2-0.675-6.225-0.675c-1.025,0-1.837,0.05-2.438,0.149
						c-0.225,0.25-0.312,0.587-0.262,1.013c0.075,0.825,0.813,1.625,2.212,2.4C30.85-15.775,32.813-15.313,35.238-15.213z"/>
					<path style="fill-rule:evenodd;clip-rule:evenodd;fill:#EDE2AD;" d="M38.613-19.112c-1.3,0.75-2.325,1.45-3.075,2.1
						c-0.65,0.55-0.9,1.013-0.75,1.388c0.2,0.475,1.05,0.862,2.55,1.162c2.2,0.425,4.225,0.275,6.075-0.449
						c0.925-0.375,1.637-0.788,2.138-1.238c-2.075,0.05-3.663-0.25-4.763-0.899C39.663-17.7,38.938-18.387,38.613-19.112z"/>
					
						<linearGradient id="SVGID_20_" gradientUnits="userSpaceOnUse" x1="68.3174" y1="43.8105" x2="82.6886" y2="43.8105" gradientTransform="matrix(0.75 0.0052 -0.0052 0.75 -16.1367 -49.7476)">
						<stop  offset="0" style="stop-color:#FDCB53"/>
						<stop  offset="1" style="stop-color:#D48801"/>
					</linearGradient>
					<path style="fill-rule:evenodd;clip-rule:evenodd;fill:url(#SVGID_20_);" d="M38.913-19.075
						c-1.425,0.925-2.513,1.7-3.263,2.325c-0.65,0.55-0.887,1.025-0.712,1.425c0.2,0.475,1.038,0.862,2.513,1.163
						c2.2,0.425,4.225,0.262,6.075-0.488c0.925-0.375,1.638-0.787,2.138-1.237C43.588-15.813,42-16.1,40.9-16.75
						c-0.7-0.4-1.237-0.913-1.612-1.537C39.088-18.588,38.963-18.85,38.913-19.075z"/>
					<path style="fill-rule:evenodd;clip-rule:evenodd;fill:#EDE2AD;" d="M48.663-21.175c-0.4,1.274-1.275,2.024-2.625,2.25
						c-2.125,0.35-4,0.45-5.625,0.3l-1.8-0.3c-0.05,0.225,0.012,0.512,0.188,0.862c0.35,0.675,1.05,1.275,2.1,1.8
						c1.725,0.85,3.475,0.962,5.25,0.338c1.8-0.601,3.138-1.788,4.013-3.563c0.675-1.351,0.65-2.338-0.075-2.963l-1.275-0.524
						C48.888-22.4,48.838-21.8,48.663-21.175z"/>
					
						<linearGradient id="SVGID_21_" gradientUnits="userSpaceOnUse" x1="78.4819" y1="43.9209" x2="95.0715" y2="43.9209" gradientTransform="matrix(0.75 0.0057 -0.0057 0.75 -19.6968 -53.356)">
						<stop  offset="0" style="stop-color:#FDCB53"/>
						<stop  offset="1" style="stop-color:#D48801"/>
					</linearGradient>
					<path style="fill-rule:evenodd;clip-rule:evenodd;fill:url(#SVGID_21_);" d="M47.8-22.525c-0.6,1.275-1.5,2.2-2.7,2.775
						c-1.65,0.8-3.175,1.15-4.575,1.05l-1.612-0.375c-0.025,0.226,0.038,0.513,0.188,0.862c0.35,0.676,1.05,1.275,2.1,1.801
						c1.8,0.85,3.637,1.05,5.512,0.6c2-0.5,3.425-1.612,4.275-3.338c0.675-1.35,0.437-2.612-0.713-3.787
						c-0.575-0.575-1.212-1.013-1.912-1.313C48.313-23.725,48.125-23.15,47.8-22.525z"/>
					<path style="fill-rule:evenodd;clip-rule:evenodd;fill:#C98000;" d="M48.363-24.25c-0.075,0.575-0.275,1.188-0.6,1.838
						c1.1,0.399,1.837,0.975,2.212,1.725c0.525,1.025,0.375,2.175-0.45,3.45c0.625-0.55,1.113-1.188,1.463-1.913
						c0.675-1.35,0.437-2.612-0.713-3.787C49.7-23.513,49.063-23.95,48.363-24.25z"/>
					<path style="fill-rule:evenodd;clip-rule:evenodd;fill:#EDE2AD;" d="M47.013-21.138c-0.55,0.65-1.1,1.1-1.65,1.351
						c-1.825,0.774-3.45,1.125-4.875,1.05l-1.575-0.338c-0.225-0.075-0.325-0.037-0.3,0.112c1.075,0.45,2.325,0.576,3.75,0.375
						c1.4-0.174,2.65-0.612,3.75-1.313c0.575-0.35,1.025-0.824,1.35-1.425c0.3-0.55,0.45-1.1,0.45-1.649
						C47.888-22.45,47.588-21.837,47.013-21.138z"/>
					<path style="fill-rule:evenodd;clip-rule:evenodd;fill:#EDE2AD;" d="M38.35-18.775l0.413,0.075
						c0.325,0.025,0.637,0.038,0.938,0.038c0.275,0,0.35-0.025,0.225-0.075c-0.375-0.125-0.55-0.275-0.525-0.45
						c0.025-0.1-0.037-0.125-0.188-0.075c-0.3,0.1-0.737,0.088-1.313-0.037c0.106,0.064,0.194,0.152,0.263,0.263L38.35-18.775z"/>
					<path style="fill-rule:evenodd;clip-rule:evenodd;fill:#A88A43;" d="M32.163-15.7c0.275,0,0.413-0.087,0.413-0.263
						c0-0.149-0.125-0.275-0.375-0.375c-0.45-0.174-0.763-0.112-0.938,0.188c-0.05,0.075,0.013,0.163,0.188,0.263
						C31.625-15.762,31.863-15.7,32.163-15.7z"/>
					<path style="fill-rule:evenodd;clip-rule:evenodd;fill:#EDE2AD;" d="M32.087-15.588c0.275,0,0.413-0.087,0.413-0.262
						c0-0.15-0.125-0.275-0.375-0.375c-0.425-0.175-0.737-0.125-0.938,0.149c-0.05,0.1,0.013,0.2,0.188,0.3
						C31.55-15.65,31.788-15.588,32.087-15.588z"/>
					<path style="fill-rule:evenodd;clip-rule:evenodd;fill:#FFFFFF;" d="M31.938-15.7c0.3,0,0.35-0.075,0.15-0.225
						c-0.1-0.075-0.225-0.125-0.375-0.15c-0.15-0.025-0.237,0-0.262,0.075c-0.025,0.1,0.013,0.175,0.112,0.225
						C31.663-15.7,31.788-15.675,31.938-15.7z"/>
					<path style="fill-rule:evenodd;clip-rule:evenodd;fill:#A88A43;" d="M34.038-16.375c0.525-0.05,0.712-0.175,0.563-0.375
						c-0.175-0.175-0.462-0.25-0.862-0.225c-0.35,0.024-0.45,0.137-0.3,0.337C33.612-16.438,33.813-16.35,34.038-16.375z"/>
					<path style="fill-rule:evenodd;clip-rule:evenodd;fill:#A88A43;" d="M31.038-17.537c0.35,0.024,0.487-0.063,0.413-0.263
						c-0.1-0.2-0.275-0.275-0.525-0.226c-0.2,0.025-0.275,0.113-0.225,0.263C30.75-17.637,30.862-17.563,31.038-17.537z"/>
					<path style="fill-rule:evenodd;clip-rule:evenodd;fill:#A88A43;" d="M36.288-20.425c0.35-0.075,0.438-0.188,0.263-0.338
						c-0.2-0.149-0.425-0.2-0.675-0.149c-0.225,0.05-0.287,0.149-0.188,0.3C35.763-20.438,35.963-20.375,36.288-20.425z"/>
					<path style="fill-rule:evenodd;clip-rule:evenodd;fill:#A88A43;" d="M43.113-19.938c0.525-0.025,0.787-0.15,0.787-0.375
						c0-0.2-0.225-0.275-0.675-0.225c-0.375,0.05-0.55,0.162-0.525,0.337C42.725-20.025,42.862-19.938,43.113-19.938z"/>
					<path style="fill-rule:evenodd;clip-rule:evenodd;fill:#A88A43;" d="M48.063-17.162c0.45-0.15,0.6-0.338,0.45-0.563
						C48.363-17.975,48.1-18,47.725-17.8c-0.35,0.175-0.438,0.337-0.263,0.487C47.613-17.138,47.813-17.088,48.063-17.162z"/>
					<path style="fill-rule:evenodd;clip-rule:evenodd;fill:#A88A43;" d="M44.163-16.15c-0.075-0.3-0.313-0.425-0.712-0.375
						c-0.4,0.05-0.563,0.175-0.488,0.375c0.05,0.175,0.275,0.263,0.675,0.263C44.038-15.888,44.213-15.975,44.163-16.15z"/>
					<path style="fill-rule:evenodd;clip-rule:evenodd;fill:#A88A43;" d="M44.988-17.912c0.625-0.175,0.762-0.388,0.412-0.638
						c-0.375-0.226-0.762-0.25-1.162-0.075c-0.375,0.175-0.438,0.362-0.188,0.563C44.275-17.838,44.588-17.788,44.988-17.912z"/>
					<path style="fill-rule:evenodd;clip-rule:evenodd;fill:#A88A43;" d="M40.525-14.313c0.525,0,0.713-0.163,0.563-0.487
						c-0.175-0.325-0.487-0.45-0.938-0.375c-0.4,0.075-0.525,0.237-0.375,0.487C39.95-14.438,40.2-14.313,40.525-14.313z"/>
					<path style="fill-rule:evenodd;clip-rule:evenodd;fill:#A88A43;" d="M31.263-20.575C31.838-20.6,32-20.75,31.75-21.025
						c-0.25-0.3-0.587-0.35-1.012-0.149c-0.4,0.175-0.5,0.325-0.3,0.45C30.638-20.6,30.913-20.55,31.263-20.575z"/>
					<path style="fill-rule:evenodd;clip-rule:evenodd;fill:#A88A43;" d="M37.337-15.737c0.525-0.125,0.638-0.35,0.338-0.675
						c-0.3-0.351-0.6-0.413-0.9-0.188c-0.275,0.2-0.325,0.412-0.15,0.637C36.825-15.762,37.063-15.688,37.337-15.737z"/>
					<path style="fill-rule:evenodd;clip-rule:evenodd;fill:#EDE2AD;" d="M34-16.3c0.525-0.05,0.7-0.175,0.525-0.375
						c-0.15-0.175-0.425-0.25-0.825-0.226c-0.35,0.025-0.45,0.138-0.3,0.338C33.575-16.362,33.775-16.275,34-16.3z"/>
					<path style="fill-rule:evenodd;clip-rule:evenodd;fill:#EDE2AD;" d="M31-17.5c0.35,0.05,0.475-0.025,0.375-0.225
						c-0.1-0.201-0.262-0.275-0.487-0.226c-0.2,0.025-0.275,0.1-0.225,0.226C30.713-17.6,30.825-17.525,31-17.5z"/>
					<path style="fill-rule:evenodd;clip-rule:evenodd;fill:#EDE2AD;" d="M36.25-20.388c0.375-0.075,0.463-0.175,0.263-0.3
						c-0.2-0.15-0.425-0.2-0.675-0.15c-0.25,0.05-0.325,0.15-0.225,0.301C35.713-20.363,35.925-20.313,36.25-20.388z"/>
					<path style="fill-rule:evenodd;clip-rule:evenodd;fill:#EDE2AD;" d="M43.075-19.862c0.5-0.025,0.763-0.15,0.788-0.375
						c0-0.2-0.225-0.275-0.675-0.226c-0.4,0.05-0.575,0.163-0.525,0.338C42.688-19.95,42.825-19.862,43.075-19.862z"/>
					<path style="fill-rule:evenodd;clip-rule:evenodd;fill:#EDE2AD;" d="M47.988-17.088c0.475-0.149,0.637-0.35,0.487-0.6
						c-0.125-0.25-0.387-0.275-0.788-0.075c-0.35,0.175-0.438,0.35-0.262,0.525C47.575-17.063,47.763-17.013,47.988-17.088z"/>
					<path style="fill-rule:evenodd;clip-rule:evenodd;fill:#EDE2AD;" d="M44.125-16.075c-0.075-0.3-0.313-0.425-0.712-0.375
						c-0.4,0.05-0.575,0.175-0.525,0.375c0.05,0.175,0.275,0.263,0.675,0.263C43.987-15.813,44.175-15.9,44.125-16.075z"/>
					<path style="fill-rule:evenodd;clip-rule:evenodd;fill:#EDE2AD;" d="M44.913-17.875c0.625-0.15,0.762-0.35,0.413-0.6
						c-0.35-0.226-0.725-0.25-1.125-0.075c-0.375,0.175-0.45,0.362-0.225,0.563C44.2-17.788,44.513-17.75,44.913-17.875z"/>
					<path style="fill-rule:evenodd;clip-rule:evenodd;fill:#EDE2AD;" d="M40.45-14.237c0.55,0,0.737-0.163,0.563-0.487
						c-0.175-0.325-0.475-0.45-0.9-0.375c-0.4,0.074-0.525,0.237-0.375,0.487C39.888-14.363,40.125-14.237,40.45-14.237z"/>
					<path style="fill-rule:evenodd;clip-rule:evenodd;fill:#EDE2AD;" d="M31.225-20.5c0.575-0.025,0.738-0.175,0.487-0.45
						c-0.25-0.3-0.587-0.35-1.012-0.149c-0.4,0.174-0.5,0.325-0.3,0.449C30.575-20.55,30.85-20.5,31.225-20.5z"/>
					<path style="fill-rule:evenodd;clip-rule:evenodd;fill:#EDE2AD;" d="M37.3-15.662c0.525-0.125,0.637-0.363,0.337-0.713
						c-0.3-0.35-0.612-0.4-0.938-0.15c-0.275,0.201-0.313,0.413-0.113,0.638C36.788-15.688,37.025-15.612,37.3-15.662z"/>
					<path style="fill-rule:evenodd;clip-rule:evenodd;fill:#FFFFFF;" d="M33.888-16.412c0.175,0.024,0.262,0.012,0.262-0.038
						c0-0.075-0.087-0.112-0.262-0.112c-0.15,0-0.213,0.025-0.188,0.075C33.725-16.438,33.788-16.412,33.888-16.412z"/>
					<path style="fill-rule:evenodd;clip-rule:evenodd;fill:#FFFFFF;" d="M31.075-17.575c0.1,0,0.125-0.037,0.075-0.112
						c-0.05-0.075-0.125-0.1-0.225-0.075c-0.125,0.025-0.163,0.075-0.113,0.15C30.862-17.563,30.95-17.55,31.075-17.575z"/>
					<path style="fill-rule:evenodd;clip-rule:evenodd;fill:#FFFFFF;" d="M31.188-20.612c0.275-0.05,0.3-0.125,0.075-0.226
						c-0.25-0.074-0.45-0.087-0.6-0.037c-0.125,0.05-0.112,0.112,0.038,0.188C30.875-20.612,31.038-20.587,31.188-20.612z"/>
					<path style="fill-rule:evenodd;clip-rule:evenodd;fill:#FFFFFF;" d="M36.1-20.425c0.3-0.075,0.225-0.15-0.225-0.226
						c-0.1,0.025-0.112,0.075-0.038,0.15C35.913-20.425,36-20.4,36.1-20.425z"/>
					<path style="fill-rule:evenodd;clip-rule:evenodd;fill:#FFFFFF;" d="M43.3-20.013c0.25-0.1,0.262-0.175,0.037-0.225
						c-0.2-0.025-0.337,0-0.412,0.075c-0.075,0.074-0.063,0.137,0.037,0.188C43.063-19.95,43.175-19.962,43.3-20.013z"/>
					<path style="fill-rule:evenodd;clip-rule:evenodd;fill:#FFFFFF;" d="M44.837-17.95c0.3-0.075,0.325-0.163,0.075-0.263
						c-0.25-0.1-0.462-0.112-0.638-0.037c-0.15,0.075-0.125,0.15,0.075,0.225C44.525-17.925,44.688-17.9,44.837-17.95z"/>
					<path style="fill-rule:evenodd;clip-rule:evenodd;fill:#FFFFFF;" d="M47.837-17.313c0.1-0.05,0.238-0.163,0.413-0.338
						c0.05-0.074-0.038-0.1-0.262-0.074c-0.225,0.024-0.375,0.087-0.45,0.188c-0.05,0.1-0.038,0.174,0.038,0.225
						C47.65-17.262,47.737-17.262,47.837-17.313z"/>
					<path style="fill-rule:evenodd;clip-rule:evenodd;fill:#FFFFFF;" d="M43.525-15.925c0.2-0.075,0.238-0.15,0.113-0.226
						c-0.15-0.074-0.3-0.087-0.45-0.037c-0.1,0.05-0.087,0.112,0.038,0.188S43.45-15.9,43.525-15.925z"/>
					<path style="fill-rule:evenodd;clip-rule:evenodd;fill:#FFFFFF;" d="M40.45-14.313c0.3-0.025,0.35-0.125,0.15-0.3
						c-0.225-0.15-0.387-0.175-0.487-0.075c-0.1,0.075-0.1,0.15,0,0.225C40.213-14.363,40.325-14.313,40.45-14.313z"/>
					<path style="fill-rule:evenodd;clip-rule:evenodd;fill:#FFFFFF;" d="M37.038-15.775c0.3-0.074,0.363-0.188,0.188-0.337
						c-0.175-0.175-0.325-0.212-0.45-0.112c-0.1,0.05-0.112,0.149-0.037,0.3C36.813-15.8,36.913-15.75,37.038-15.775z"/>
				</g>
				<g>
					<path style="fill-rule:evenodd;clip-rule:evenodd;fill:#826A38;" d="M24.825-17.763c0.3-1.975-0.238-3.663-1.612-5.063
						c-1.25-1.25-3-2.087-5.25-2.513c-2.75-0.524-5.375-0.612-7.875-0.263c0.875-0.05,2.075-0.012,3.6,0.113
						c3.475,0.3,6,0.899,7.575,1.8c1.725,0.975,2.75,2.525,3.075,4.649C24.388-18.737,24.55-18.313,24.825-17.763z"/>
					<path style="fill-rule:evenodd;clip-rule:evenodd;fill:#A88A43;" d="M6.825-15.288c0.325,0.025,0.524-0.037,0.6-0.188
						c0.075-0.149-0.075-0.212-0.45-0.188c-0.325,0.025-0.462,0.088-0.412,0.188C6.587-15.375,6.675-15.313,6.825-15.288z"/>
					<path style="fill-rule:evenodd;clip-rule:evenodd;fill:#EDE2AD;" d="M6.787-15.213c0.325,0.025,0.525-0.037,0.601-0.188
						c0.075-0.149-0.075-0.225-0.45-0.225c-0.325,0.025-0.475,0.087-0.45,0.188C6.538-15.313,6.638-15.238,6.787-15.213z"/>
					
						<linearGradient id="SVGID_22_" gradientUnits="userSpaceOnUse" x1="-45.9424" y1="-99.6875" x2="-10.1165" y2="-99.6875" gradientTransform="matrix(0.75 -0.0052 0.0052 0.75 42.9185 42.6318)">
						<stop  offset="0" style="stop-color:#E9B140"/>
						<stop  offset="1" style="stop-color:#C47E00"/>
					</linearGradient>
					<path style="fill-rule:evenodd;clip-rule:evenodd;fill:url(#SVGID_22_);" d="M34.95-27.588c0.65-2.625,0.475-4.887-0.525-6.787
						c-1.05-2-2.962-3.4-5.737-4.2c-1.975-0.575-4.438-0.9-7.388-0.975c-3-0.075-5.287,0.125-6.862,0.6
						c-4.125,1.25-6.212,3.5-6.263,6.75c-0.025,1.025,0.15,2.075,0.525,3.15l0.6,1.35c1.5,0.25,2.988,0.7,4.463,1.35
						c3.175,1.4,7.3,2.038,12.375,1.913C31.513-24.563,34.45-25.613,34.95-27.588z"/>
					<path style="fill-rule:evenodd;clip-rule:evenodd;fill:#FFD15B;" d="M34.8-27.963c0.7-0.8,0.65-1.887-0.149-3.263
						c-0.8-1.425-2.038-2.5-3.713-3.225c-1.975-0.85-4.212-1.45-6.713-1.8c-3.024-0.425-6.125-0.413-9.3,0.037
						c-2.65,0.375-4.562,1.288-5.737,2.737c-1.15,1.426-1.275,2.938-0.375,4.538c0.925,1.649,5.337,2.462,13.237,2.438
						C29.7-26.5,33.95-26.987,34.8-27.963z"/>
					<path style="fill-rule:evenodd;clip-rule:evenodd;fill:#57390D;" d="M34.05-25.038c1.475-0.1,2.101-0.563,1.875-1.387
						c-0.1-0.425-0.412-1.025-0.938-1.801c-0.05-0.149,0-0.712,0.15-1.688c0.1-0.75-0.05-1.212-0.45-1.387
						c-0.35-0.15-0.925-0.188-1.725-0.113c-0.85,0.075-1.463,0.05-1.838-0.074c-0.55-0.175-0.713-0.45-0.487-0.825
						c0.2-0.325,0.6-0.563,1.2-0.713c0.6-0.149,0.625-0.524,0.074-1.125c-0.575-0.625-1.55-1-2.925-1.125
						c-0.325-0.025-1.175,0.325-2.55,1.05c-1,0.55-2.075,0.325-3.225-0.675c-1.25-1.1-2.563-1.575-3.938-1.425
						c-1.375,0.4-2.313,0.663-2.813,0.787c-1.25,0.325-2.375,0.513-3.375,0.563c-0.7,0.05-1.375,0.388-2.025,1.013
						c-0.675,0.675-0.813,1.175-0.412,1.5C11.4-31.838,15-30.45,21.45-28.3C28.25-26,32.45-24.913,34.05-25.038z"/>
					<path style="fill-rule:evenodd;clip-rule:evenodd;fill:#80561C;" d="M34.013-24.663c1.475-0.1,2.1-0.563,1.875-1.387
						c-0.125-0.425-0.45-1.025-0.976-1.801c-0.024-0.125,0.025-0.687,0.15-1.688c0.1-0.75-0.05-1.212-0.45-1.387
						c-0.35-0.15-0.925-0.188-1.725-0.113c-0.85,0.075-1.463,0.05-1.838-0.074c-0.524-0.175-0.65-0.463-0.375-0.863
						c0.175-0.25,0.563-0.6,1.163-1.05c0.449-0.325,0.337-0.675-0.338-1.05c-0.6-0.35-1.463-0.625-2.588-0.825
						c-0.375-0.075-1.225,0.263-2.55,1.013c-1,0.55-2.075,0.338-3.225-0.638c-1.225-1.1-2.525-1.575-3.9-1.425
						c-1.4,0.4-2.35,0.663-2.85,0.787c-1.25,0.325-2.375,0.513-3.375,0.563c-0.675,0.05-1.337,0.388-1.987,1.013
						c-0.676,0.675-0.825,1.175-0.45,1.5c0.775,0.625,4.388,2.013,10.837,4.163C28.212-25.625,32.413-24.538,34.013-24.663z"/>
					<path style="fill-rule:evenodd;clip-rule:evenodd;fill:#57390D;" d="M34.05-27.025c1.125-0.2,1.5-0.787,1.125-1.763
						c-0.375-0.95-0.887-1.45-1.537-1.5c-0.35-0.024-0.663-0.337-0.938-0.938c-0.325-0.75-0.763-1.287-1.313-1.612
						c-1.351-0.8-3.112-1.013-5.288-0.638c-0.575,0.1-1.512-0.149-2.813-0.75c-1.375-0.65-2.5-0.962-3.375-0.938
						c-1,0.025-1.8,0.163-2.399,0.413c-1.075,0.45-1.726,0.712-1.95,0.787c-0.75,0.2-1.5,0.175-2.25-0.075
						c-0.825-0.275-1.438-0.375-1.838-0.3c-0.524,0.075-0.987,0.325-1.387,0.75c-0.55,0.625-0.938,1.013-1.163,1.163
						c-0.475,0.325-0.575,0.862-0.3,1.612c0.225,0.625,0.487,1.05,0.787,1.274c1.15,0.775,5.313,1.463,12.488,2.063
						C28.625-26.925,32.675-26.775,34.05-27.025z"/>
					<path style="fill-rule:evenodd;clip-rule:evenodd;fill:#80561C;" d="M33.862-26.726c1.125-0.2,1.55-0.774,1.275-1.725
						c-0.275-0.9-0.738-1.363-1.388-1.388c-0.325-0.025-0.625-0.35-0.9-0.975c-0.35-0.75-0.8-1.288-1.35-1.612
						c-1.375-0.825-3.125-1.025-5.25-0.601c-0.575,0.1-1.513-0.149-2.813-0.75c-1.4-0.65-2.525-0.962-3.375-0.938
						c-1,0.025-1.8,0.15-2.4,0.375c-1.175,0.475-1.837,0.738-1.987,0.788c-0.725,0.2-1.475,0.174-2.25-0.075
						c-0.825-0.25-1.425-0.35-1.8-0.3c-0.55,0.1-1.013,0.362-1.388,0.787c-0.575,0.65-0.962,1.038-1.162,1.162
						C8.6-31.65,8.475-31.188,8.7-30.588c0.175,0.475,0.412,0.825,0.712,1.05c1.15,0.8,5.288,1.538,12.413,2.213
						C28.525-26.675,32.538-26.475,33.862-26.726z"/>
					<path style="fill-rule:evenodd;clip-rule:evenodd;fill:#57390D;" d="M34.162-24.175c0.325-0.1,0.525-0.313,0.601-0.638
						c0.1-0.45,0.313-0.838,0.638-1.163c0.449-0.475,0.512-0.975,0.188-1.5c-0.325-0.5-0.825-0.85-1.5-1.05
						c-0.15-0.05-1.638-0.362-4.463-0.938c-2.425-0.524-3.837-0.899-4.237-1.125c-0.4-0.25-0.275-0.737,0.375-1.462
						c0.35-0.4,0.85-0.963,1.5-1.688c0.275-0.45,0.012-0.788-0.788-1.013c-0.774-0.226-1.512-0.238-2.212-0.038
						c-1.975,0.55-3.55,0.763-4.726,0.638c-0.899-0.1-1.787-0.112-2.662-0.037c-0.975,0.1-1.7,0.313-2.175,0.638
						c-1,0.725-2.163,1.087-3.487,1.087c-0.55,0-0.951,0.075-1.2,0.226c-0.25,0.174-0.538,0.549-0.862,1.125
						c-0.301,0.5-0.275,0.975,0.074,1.425c0.1,0.1,0.425,0.362,0.976,0.787c0.55,0.35,4.55,1.263,12,2.737
						C29.675-24.663,33.663-24,34.162-24.175z"/>
					<path style="fill-rule:evenodd;clip-rule:evenodd;fill:#80561C;" d="M34.088-23.65c0.35-0.125,0.563-0.35,0.637-0.675
						c0.1-0.45,0.301-0.837,0.601-1.162c0.475-0.45,0.538-0.951,0.188-1.5c-0.3-0.5-0.8-0.85-1.5-1.051
						c-0.15-0.05-1.625-0.362-4.425-0.938c-2.451-0.5-3.863-0.875-4.238-1.125c-0.399-0.25-0.287-0.737,0.338-1.462
						c0.35-0.375,0.862-0.925,1.537-1.65c0.275-0.45,0.013-0.8-0.787-1.05c-0.775-0.225-1.513-0.238-2.213-0.037
						c-1.975,0.575-3.563,0.787-4.762,0.637c-0.9-0.1-1.775-0.112-2.625-0.037c-1,0.125-1.726,0.35-2.176,0.675
						c-1.05,0.7-2.225,1.05-3.524,1.05c-0.525,0-0.913,0.075-1.163,0.226c-0.25,0.175-0.549,0.563-0.899,1.162
						c-0.425,0.75-0.063,1.475,1.087,2.175c0.525,0.351,4.513,1.263,11.963,2.738C29.6-24.175,33.587-23.5,34.088-23.65z"/>
					<path style="fill-rule:evenodd;clip-rule:evenodd;fill:#BA803D;" d="M32.475-27.476c2.575,0.45,3.05,1.288,1.426,2.513
						c-0.301,0.2-0.375,0.35-0.226,0.45c0.1,0.1,0.388-0.075,0.862-0.525c0.525-0.5,0.7-1,0.525-1.5
						c-0.175-0.5-0.6-0.837-1.275-1.012c-1.149-0.275-2.475-0.713-3.975-1.313c-2.1-0.85-3.487-1.701-4.162-2.551
						c-0.601-0.75-0.688-1.199-0.263-1.35c0.524-0.175,0.775-0.35,0.75-0.525C26.063-33.663,25.55-33.8,24.6-33.7
						c-0.275,0.025-1.199,0.2-2.774,0.525c-0.7,0.149-1.7,0.2-3,0.149c-1.351-0.025-2.2-0.012-2.55,0.038
						c-0.351,0.05-0.938,0.3-1.763,0.75c-0.8,0.425-1.588,0.662-2.362,0.712c-0.9,0.05-1.488,0.263-1.763,0.638
						c-0.226,0.275-0.263,0.563-0.112,0.862l1.125-0.938c0.149-0.1,0.563-0.212,1.237-0.337c0.725-0.15,1.274-0.338,1.649-0.563
						c0.9-0.55,1.963-0.8,3.188-0.75c2.625,0.2,4.45,0.1,5.476-0.301c0.775-0.3,1.5-0.437,2.175-0.412
						c0.7,0.025,0.85,0.1,0.45,0.225c-0.675,0.226-0.962,0.663-0.862,1.313c0.074,0.5,0.899,1.238,2.475,2.213
						C28.938-28.475,30.7-27.775,32.475-27.476z"/>
					
						<linearGradient id="SVGID_23_" gradientUnits="userSpaceOnUse" x1="488.3062" y1="407.1895" x2="510.6411" y2="407.1895" gradientTransform="matrix(0.7488 0.042 -0.042 0.7488 -333.418 -352.2783)">
						<stop  offset="0" style="stop-color:#FDCB53"/>
						<stop  offset="1" style="stop-color:#D48801"/>
					</linearGradient>
					<path style="fill-rule:evenodd;clip-rule:evenodd;fill:url(#SVGID_23_);" d="M15.338-30.288c0.25,1.075,0.662,2.25,1.237,3.525
						c1.125,2.55,2.5,4.35,4.125,5.4c1.875,1.175,4.175,1.025,6.899-0.45c2.601-1.425,4.025-3.05,4.275-4.875
						c0.25-1.575-0.638-2.875-2.662-3.9c-1.326-0.65-3.038-1.15-5.138-1.5c-2.2-0.375-4.175-0.313-5.925,0.188
						C16.775-31.5,15.837-30.963,15.338-30.288z"/>
					<path style="fill-rule:evenodd;clip-rule:evenodd;fill:#C98000;" d="M31.088-25.038l0.262-0.188
						c0.325-0.6,0.5-1.087,0.525-1.462c0.25-1.575-0.638-2.875-2.662-3.9c-1.326-0.65-3.038-1.15-5.138-1.5
						c-2.2-0.375-4.175-0.313-5.925,0.188c-1.375,0.4-2.313,0.938-2.813,1.612c0.225,0.976,0.6,2.076,1.125,3.301
						c1.05,2.424,2.324,4.187,3.824,5.287c0.375,0.15,0.576,0.163,0.601,0.037c0.025-0.1,0.112-0.449,0.263-1.05
						c0.675-1.6,0.524-2.938-0.45-4.013c-0.5-0.549-1.063-0.924-1.688-1.125l-0.188-1.537c0.375-0.975,1.837-1.288,4.388-0.938
						c3.325,0.45,5.637,1.463,6.938,3.037C30.8-26.488,31.112-25.738,31.088-25.038z"/>
					<path style="fill-rule:evenodd;clip-rule:evenodd;fill:#EDE2AD;" d="M11.1-24.063c1.4,0.625,2.9,1.187,4.5,1.688
						c3.201,0.975,5.3,1.125,6.301,0.45c1.25-0.825,1.137-2.338-0.338-4.538c-1.475-2.25-3.2-3.263-5.175-3.037
						c-3.275,0.325-5.225,0.575-5.851,0.75c-1.524,0.425-2.3,1.237-2.324,2.438C8.188-25.238,8.5-24.65,9.15-24.55
						C10.3-24.325,10.95-24.163,11.1-24.063z"/>
					
						<linearGradient id="SVGID_24_" gradientUnits="userSpaceOnUse" x1="-1564.6689" y1="-14334.0176" x2="-1555.7775" y2="-14334.0176" gradientTransform="matrix(0.1645 -0.7317 0.7317 0.1645 10760.5293 1189.877)">
						<stop  offset="0" style="stop-color:#FDCB53"/>
						<stop  offset="1" style="stop-color:#D48801"/>
					</linearGradient>
					<path style="fill-rule:evenodd;clip-rule:evenodd;fill:url(#SVGID_24_);" d="M9.037-23.313c0.601,0.35,1.051,0.638,1.351,0.862
						c1.4,0.35,2.9,0.638,4.5,0.862c3.225,0.425,5.325,0.3,6.3-0.375c1.2-0.8,1.325-2.1,0.375-3.899
						c-0.975-1.825-2.538-3.213-4.688-4.163c-2.075-0.899-4.175-0.862-6.3,0.112c-2,0.925-3.013,2.113-3.038,3.563
						c-0.024,0.75,0.113,1.413,0.413,1.988C8.175-23.987,8.538-23.638,9.037-23.313z"/>
					
						<linearGradient id="SVGID_25_" gradientUnits="userSpaceOnUse" x1="11357.0293" y1="-19230.9238" x2="11373.0752" y2="-19230.9238" gradientTransform="matrix(-0.6567 -0.3622 0.3622 -0.6567 14446.123 -8537.9043)">
						<stop  offset="0" style="stop-color:#D69211"/>
						<stop  offset="1" style="stop-color:#C98000"/>
					</linearGradient>
					<path style="fill-rule:evenodd;clip-rule:evenodd;fill:url(#SVGID_25_);" d="M16.875-30.025
						c-2.075-0.899-4.175-0.862-6.3,0.112c-2,0.925-3.013,2.113-3.038,3.563c-0.024,0.301,0,0.613,0.075,0.938
						c0.375-2.399,2.313-3.6,5.813-3.6c2.15,0,4.1,0.575,5.851,1.725C21-26.163,21.962-24.9,22.162-23.5
						c0.025-1.475-0.687-2.913-2.137-4.313C19.025-28.788,17.975-29.525,16.875-30.025z"/>
					<path style="fill-rule:evenodd;clip-rule:evenodd;fill:#EDE2AD;" d="M11.625-23.8l-2.4,0.262
						c-0.325,0.25-0.5,0.601-0.524,1.051c-0.075,0.899,0.65,1.85,2.175,2.85c1.575,1.05,3.7,1.7,6.375,1.95
						c0.725,0.025,1.587-0.65,2.588-2.025c0.475-0.675,0.887-1.35,1.237-2.024c0.25,0,0.313-0.05,0.188-0.15
						c-0.25-0.225-1.288-0.575-3.112-1.05C15.85-23.588,13.675-23.875,11.625-23.8z"/>
					
						<linearGradient id="SVGID_26_" gradientUnits="userSpaceOnUse" x1="476.8174" y1="413.29" x2="497.0237" y2="413.29" gradientTransform="matrix(0.7488 0.0418 -0.0418 0.7488 -331.7373 -350.4004)">
						<stop  offset="0" style="stop-color:#FDCB53"/>
						<stop  offset="1" style="stop-color:#D48801"/>
					</linearGradient>
					<path style="fill-rule:evenodd;clip-rule:evenodd;fill:url(#SVGID_26_);" d="M16.912-17.612c1.175,0,3.288-1.051,6.338-3.15
						c-0.575-0.425-2.313-1.038-5.213-1.838c-2.3-0.625-4.574-1-6.824-1.125l-2.7,0.038c-0.275,0.275-0.388,0.662-0.338,1.162
						C8.225-21.55,9-20.575,10.5-19.601c1,0.65,2.375,1.175,4.125,1.575C15.475-17.825,16.237-17.688,16.912-17.612z"/>
					<path style="fill-rule:evenodd;clip-rule:evenodd;fill:#EDE2AD;" d="M20.85-22.038c-1.5,0.825-2.675,1.588-3.524,2.288
						c-1.625,1.35-1,2.387,1.875,3.112c2.375,0.6,4.612,0.525,6.712-0.225c1.025-0.375,1.825-0.813,2.4-1.313
						C27.737-18.2,27.1-18.263,26.4-18.362c-1.45-0.226-2.538-0.601-3.263-1.125C21.938-20.288,21.175-21.138,20.85-22.038z"/>
					
						<linearGradient id="SVGID_27_" gradientUnits="userSpaceOnUse" x1="483.541" y1="410.791" x2="499.4152" y2="410.791" gradientTransform="matrix(0.7489 0.0413 -0.0413 0.7489 -328.5273 -346.8159)">
						<stop  offset="0" style="stop-color:#FDCB53"/>
						<stop  offset="1" style="stop-color:#D48801"/>
					</linearGradient>
					<path style="fill-rule:evenodd;clip-rule:evenodd;fill:url(#SVGID_27_);" d="M21.188-21.963c-1.625,1-2.875,1.85-3.75,2.55
						c-1.625,1.351-1,2.388,1.875,3.113c2.375,0.625,4.612,0.549,6.713-0.226c1.025-0.375,1.825-0.812,2.399-1.313
						c-2.275-0.05-4-0.475-5.175-1.274c-0.75-0.525-1.313-1.15-1.688-1.875C21.362-21.362,21.238-21.688,21.188-21.963z"/>
					<path style="fill-rule:evenodd;clip-rule:evenodd;fill:#EDE2AD;" d="M33.6-21.851c0.825-1.55,0.863-2.712,0.113-3.487
						l-1.388-0.675c0.05,0.7-0.05,1.413-0.3,2.138c-0.475,1.45-1.476,2.275-3,2.475c-2.35,0.3-4.426,0.325-6.226,0.075l-1.987-0.45
						c-0.05,0.275,0.013,0.613,0.188,1.013c0.325,0.8,1.063,1.537,2.213,2.213c1.875,1.075,3.8,1.299,5.774,0.675
						C31.013-18.5,32.55-19.825,33.6-21.851z"/>
					
						<linearGradient id="SVGID_28_" gradientUnits="userSpaceOnUse" x1="496.9932" y1="412.1436" x2="515.308" y2="412.1436" gradientTransform="matrix(0.7488 0.042 -0.042 0.7488 -333.6123 -352.4956)">
						<stop  offset="0" style="stop-color:#FDCB53"/>
						<stop  offset="1" style="stop-color:#D48801"/>
					</linearGradient>
					<path style="fill-rule:evenodd;clip-rule:evenodd;fill:url(#SVGID_28_);" d="M34.5-21.362c0.825-1.575,0.638-3.075-0.563-4.5
						c-0.6-0.7-1.288-1.25-2.063-1.65c-0.1,0.6-0.325,1.262-0.675,1.987c-0.75,1.475-1.8,2.513-3.15,3.112
						c-1.875,0.85-3.575,1.175-5.1,0.976l-1.763-0.525c-0.05,0.275,0.013,0.613,0.188,1.013c0.325,0.825,1.05,1.563,2.175,2.213
						c1.925,1.125,3.95,1.462,6.075,1.012C31.85-18.175,33.475-19.388,34.5-21.362z"/>
					<path style="fill-rule:evenodd;clip-rule:evenodd;fill:#C98000;" d="M31.875-27.513c-0.1,0.65-0.35,1.363-0.75,2.138
						c1.175,0.475,1.962,1.175,2.362,2.1c0.5,1.225,0.263,2.575-0.712,4.05c0.725-0.6,1.299-1.313,1.725-2.137
						c0.825-1.575,0.638-3.075-0.563-4.5C33.338-26.563,32.65-27.113,31.875-27.513z"/>
					<path style="fill-rule:evenodd;clip-rule:evenodd;fill:#EDE2AD;" d="M30.75-24.138c0.35-0.625,0.538-1.262,0.563-1.912
						c-0.05,0.625-0.412,1.325-1.088,2.1c-0.65,0.775-1.287,1.275-1.912,1.5c-2.05,0.8-3.85,1.125-5.4,0.975l-1.725-0.487
						c-0.25-0.1-0.375-0.062-0.375,0.112c1.175,0.576,2.55,0.8,4.125,0.676c1.525-0.15,2.938-0.601,4.237-1.351
						C29.825-22.9,30.35-23.438,30.75-24.138z"/>
					<path style="fill-rule:evenodd;clip-rule:evenodd;fill:#EDE2AD;" d="M20.081-22.3c0.108,0.081,0.202,0.181,0.281,0.3
						l0.188,0.337l0.45,0.15c0.35,0.05,0.688,0.075,1.013,0.075c0.3,0,0.387-0.025,0.263-0.075c-0.4-0.175-0.576-0.362-0.525-0.563
						c0.025-0.1-0.063-0.125-0.263-0.075C21.166-22.051,20.697-22.101,20.081-22.3z"/>
					<path style="fill-rule:evenodd;clip-rule:evenodd;fill:#A88A43;" d="M13.575-18.362c0.3,0.024,0.45-0.063,0.45-0.263
						C14-18.8,13.862-18.963,13.612-19.112c-0.45-0.201-0.8-0.15-1.05,0.149c-0.05,0.1,0.013,0.212,0.188,0.338
						C12.975-18.476,13.25-18.388,13.575-18.362z"/>
					<path style="fill-rule:evenodd;clip-rule:evenodd;fill:#EDE2AD;" d="M13.463-18.25c0.3,0.025,0.449-0.063,0.449-0.263
						S13.775-18.875,13.5-19c-0.225-0.1-0.438-0.125-0.638-0.075c-0.175,0.05-0.3,0.125-0.375,0.225
						c-0.075,0.1-0.012,0.213,0.188,0.338C12.875-18.362,13.138-18.275,13.463-18.25z"/>
					<path style="fill-rule:evenodd;clip-rule:evenodd;fill:#FFFFFF;" d="M13.313-18.362c0.35,0,0.4-0.1,0.15-0.301
						c-0.351-0.25-0.588-0.275-0.713-0.074c-0.025,0.1,0.013,0.188,0.112,0.262C12.988-18.4,13.138-18.362,13.313-18.362z"/>
					<path style="fill-rule:evenodd;clip-rule:evenodd;fill:#A88A43;" d="M15.675-19.038c0.575-0.024,0.775-0.162,0.601-0.412
						c-0.175-0.225-0.488-0.338-0.938-0.338c-0.375,0-0.475,0.125-0.301,0.375C15.188-19.163,15.4-19.038,15.675-19.038z"/>
					<path style="fill-rule:evenodd;clip-rule:evenodd;fill:#A88A43;" d="M12.412-20.612c0.4,0.074,0.55,0,0.45-0.226
						c-0.1-0.25-0.275-0.35-0.524-0.3c-0.226,0.025-0.325,0.112-0.301,0.263C12.087-20.726,12.212-20.638,12.412-20.612z"/>
					<path style="fill-rule:evenodd;clip-rule:evenodd;fill:#A88A43;" d="M18.375-23.688c0.425-0.075,0.525-0.2,0.3-0.375
						c-0.225-0.175-0.475-0.25-0.75-0.226c-0.25,0.05-0.325,0.175-0.225,0.375C17.8-23.712,18.025-23.638,18.375-23.688z"/>
					<path style="fill-rule:evenodd;clip-rule:evenodd;fill:#A88A43;" d="M15.037-26.088c0.351,0.075,0.576,0.013,0.676-0.188
						c0.074-0.175-0.088-0.263-0.488-0.263c-0.35,0-0.512,0.075-0.487,0.226C14.788-26.188,14.888-26.113,15.037-26.088z"/>
					<path style="fill-rule:evenodd;clip-rule:evenodd;fill:#A88A43;" d="M25.875-22.75c0.575,0.025,0.862-0.1,0.862-0.375
						c0.025-0.25-0.212-0.35-0.712-0.3C25.6-23.4,25.4-23.275,25.425-23.05C25.45-22.85,25.6-22.75,25.875-22.75z"/>
					<path style="fill-rule:evenodd;clip-rule:evenodd;fill:#A88A43;" d="M31.162-19.226c0.525-0.149,0.713-0.362,0.563-0.637
						c-0.149-0.301-0.449-0.351-0.899-0.15c-0.375,0.175-0.475,0.375-0.3,0.6C30.675-19.212,30.887-19.15,31.162-19.226z"/>
					<path style="fill-rule:evenodd;clip-rule:evenodd;fill:#A88A43;" d="M26.813-18.25c-0.05-0.35-0.3-0.513-0.75-0.487
						c-0.45,0.05-0.65,0.188-0.6,0.412c0.05,0.2,0.3,0.325,0.75,0.375C26.662-17.925,26.863-18.025,26.813-18.25z"/>
					<path style="fill-rule:evenodd;clip-rule:evenodd;fill:#A88A43;" d="M27.787-20.275c0.7-0.175,0.863-0.412,0.488-0.712
						c-0.375-0.275-0.788-0.325-1.238-0.15c-0.425,0.175-0.512,0.388-0.262,0.638C27-20.225,27.338-20.15,27.787-20.275z"/>
					<path style="fill-rule:evenodd;clip-rule:evenodd;fill:#A88A43;" d="M22.688-16.3c0.575,0.024,0.775-0.15,0.6-0.525
						c-0.174-0.4-0.5-0.563-0.975-0.487c-0.45,0.075-0.587,0.263-0.412,0.563C22.05-16.475,22.313-16.325,22.688-16.3z"/>
					<path style="fill-rule:evenodd;clip-rule:evenodd;fill:#A88A43;" d="M12.825-24.138c0.65,0.025,0.837-0.137,0.563-0.487
						c-0.25-0.35-0.613-0.425-1.088-0.226c-0.45,0.175-0.563,0.338-0.337,0.488C12.163-24.213,12.45-24.138,12.825-24.138z"/>
					<path style="fill-rule:evenodd;clip-rule:evenodd;fill:#A88A43;" d="M19.237-18.138c0.601-0.1,0.75-0.362,0.45-0.787
						c-0.325-0.425-0.663-0.513-1.013-0.263c-0.325,0.225-0.387,0.475-0.188,0.75C18.688-18.188,18.938-18.087,19.237-18.138z"/>
					<path style="fill-rule:evenodd;clip-rule:evenodd;fill:#EDE2AD;" d="M15.6-19c0.576-0.025,0.788-0.15,0.638-0.375
						c-0.175-0.226-0.487-0.338-0.938-0.338c-0.375,0-0.487,0.125-0.337,0.375C15.137-19.088,15.35-18.975,15.6-19z"/>
					<path style="fill-rule:evenodd;clip-rule:evenodd;fill:#EDE2AD;" d="M12.338-20.538c0.399,0.075,0.549,0,0.449-0.225
						c-0.074-0.25-0.25-0.362-0.524-0.338C12.037-21.075,11.95-20.975,12-20.8C12.05-20.65,12.163-20.563,12.338-20.538z"/>
					<path style="fill-rule:evenodd;clip-rule:evenodd;fill:#EDE2AD;" d="M18.3-23.612c0.425-0.075,0.525-0.201,0.3-0.375
						c-0.2-0.201-0.437-0.275-0.712-0.226c-0.25,0.05-0.325,0.175-0.226,0.375C17.762-23.638,17.975-23.563,18.3-23.612z"/>
					<path style="fill-rule:evenodd;clip-rule:evenodd;fill:#EDE2AD;" d="M14.963-26.013c0.35,0.075,0.575,0.013,0.675-0.188
						c0.1-0.175-0.05-0.263-0.45-0.263c-0.35,0-0.512,0.063-0.487,0.188C14.7-26.15,14.788-26.063,14.963-26.013z"/>
					<path style="fill-rule:evenodd;clip-rule:evenodd;fill:#EDE2AD;" d="M25.838-22.675c0.575,0.024,0.862-0.1,0.862-0.375
						c0.025-0.25-0.212-0.351-0.713-0.301c-0.425,0.025-0.625,0.15-0.6,0.375C25.413-22.775,25.563-22.675,25.838-22.675z"/>
					<path style="fill-rule:evenodd;clip-rule:evenodd;fill:#EDE2AD;" d="M31.088-19.15c0.524-0.149,0.712-0.362,0.563-0.638
						c-0.15-0.3-0.438-0.35-0.863-0.149c-0.399,0.175-0.512,0.375-0.337,0.6C30.6-19.138,30.813-19.075,31.088-19.15z"/>
					<path style="fill-rule:evenodd;clip-rule:evenodd;fill:#EDE2AD;" d="M26.775-18.175c-0.075-0.351-0.338-0.513-0.788-0.488
						c-0.45,0.05-0.638,0.188-0.563,0.413c0.05,0.2,0.3,0.325,0.75,0.375C26.625-17.85,26.825-17.95,26.775-18.175z"/>
					<path style="fill-rule:evenodd;clip-rule:evenodd;fill:#EDE2AD;" d="M27.75-20.2c0.7-0.175,0.85-0.412,0.45-0.713
						c-0.375-0.275-0.788-0.325-1.237-0.149c-0.4,0.175-0.488,0.387-0.263,0.638C26.95-20.175,27.3-20.1,27.75-20.2z"/>
					<path style="fill-rule:evenodd;clip-rule:evenodd;fill:#EDE2AD;" d="M22.612-16.226c0.601,0.025,0.813-0.149,0.638-0.524
						c-0.175-0.4-0.5-0.563-0.975-0.487c-0.45,0.074-0.601,0.262-0.45,0.563C22-16.4,22.262-16.25,22.612-16.226z"/>
					<path style="fill-rule:evenodd;clip-rule:evenodd;fill:#EDE2AD;" d="M12.75-24.063c0.65,0.025,0.85-0.138,0.6-0.487
						c-0.275-0.351-0.65-0.425-1.125-0.226c-0.449,0.175-0.563,0.338-0.337,0.487C12.087-24.138,12.375-24.063,12.75-24.063z"/>
					<path style="fill-rule:evenodd;clip-rule:evenodd;fill:#EDE2AD;" d="M19.2-18.063c0.6-0.1,0.737-0.363,0.412-0.788
						c-0.325-0.425-0.662-0.512-1.013-0.262c-0.325,0.225-0.387,0.475-0.188,0.75C18.613-18.113,18.875-18.013,19.2-18.063z"/>
					<path style="fill-rule:evenodd;clip-rule:evenodd;fill:#FFFFFF;" d="M15.45-19.075c0.2,0.025,0.313,0,0.337-0.075
						c0-0.075-0.087-0.125-0.262-0.149c-0.175,0-0.263,0.037-0.263,0.112C15.288-19.138,15.35-19.1,15.45-19.075z"/>
					<path style="fill-rule:evenodd;clip-rule:evenodd;fill:#FFFFFF;" d="M12.45-20.612c0.125-0.025,0.149-0.075,0.075-0.15
						c-0.05-0.075-0.138-0.1-0.263-0.075c-0.125,0.025-0.163,0.063-0.112,0.112C12.225-20.65,12.325-20.612,12.45-20.612z"/>
					<path style="fill-rule:evenodd;clip-rule:evenodd;fill:#FFFFFF;" d="M12.75-24.175c0.3-0.025,0.325-0.1,0.075-0.226
						c-0.25-0.125-0.463-0.163-0.638-0.112c-0.15,0.05-0.137,0.125,0.037,0.225C12.4-24.188,12.575-24.15,12.75-24.175z"/>
					<path style="fill-rule:evenodd;clip-rule:evenodd;fill:#FFFFFF;" d="M18.188-23.688c0.225-0.05,0.263-0.112,0.112-0.188
						c-0.125-0.1-0.25-0.125-0.375-0.075c-0.1,0.025-0.112,0.087-0.037,0.188C17.963-23.688,18.063-23.663,18.188-23.688z"/>
					<path style="fill-rule:evenodd;clip-rule:evenodd;fill:#FFFFFF;" d="M15.15-26.088c0.275-0.05,0.225-0.1-0.15-0.149
						c-0.1,0-0.112,0.024-0.037,0.074C15.013-26.088,15.075-26.063,15.15-26.088z"/>
					<path style="fill-rule:evenodd;clip-rule:evenodd;fill:#FFFFFF;" d="M26.1-22.825c0.275-0.1,0.301-0.188,0.075-0.263
						c-0.25-0.05-0.425-0.025-0.524,0.075c-0.075,0.1-0.05,0.163,0.074,0.188C25.825-22.775,25.95-22.775,26.1-22.825z"/>
					<path style="fill-rule:evenodd;clip-rule:evenodd;fill:#FFFFFF;" d="M27.675-20.313c0.35-0.075,0.375-0.175,0.075-0.3
						c-0.3-0.15-0.538-0.175-0.713-0.075c-0.149,0.075-0.125,0.163,0.075,0.263C27.313-20.3,27.5-20.263,27.675-20.313z"/>
					<path style="fill-rule:evenodd;clip-rule:evenodd;fill:#FFFFFF;" d="M30.938-19.375l0.45-0.375
						c0.075-0.1-0.013-0.15-0.263-0.15c-0.25,0.025-0.425,0.1-0.525,0.226c-0.074,0.1-0.062,0.188,0.038,0.262
						C30.713-19.338,30.813-19.325,30.938-19.375z"/>
					<path style="fill-rule:evenodd;clip-rule:evenodd;fill:#FFFFFF;" d="M26.063-18.025c0.275-0.05,0.325-0.137,0.15-0.263
						c-0.15-0.1-0.313-0.125-0.488-0.074c-0.125,0.05-0.125,0.125,0,0.225C25.875-18.038,25.987-18,26.063-18.025z"/>
					<path style="fill-rule:evenodd;clip-rule:evenodd;fill:#FFFFFF;" d="M22.575-16.3c0.325-0.025,0.387-0.125,0.188-0.301
						c-0.226-0.2-0.388-0.25-0.487-0.149c-0.1,0.1-0.113,0.2-0.038,0.3S22.425-16.3,22.575-16.3z"/>
					<path style="fill-rule:evenodd;clip-rule:evenodd;fill:#FFFFFF;" d="M18.938-18.213c0.3-0.075,0.375-0.2,0.225-0.375
						c-0.174-0.2-0.337-0.25-0.487-0.149c-0.125,0.05-0.149,0.162-0.075,0.337C18.675-18.25,18.787-18.188,18.938-18.213z"/>
				</g>
			</g>
		</g>
	</g>
</symbol>
<use xlink:href="#sammich4"  width="50.525" height="33.759" x="1.6" y="-39.565" transform="matrix(1 0 0 -1 0 0)" style="overflow:visible;"/>
</svg>
