<?xml version="1.0" encoding="iso-8859-1"?>
<!-- Generator: Adobe Illustrator 15.1.0, SVG Export Plug-In . SVG Version: 6.00 Build 0)  -->
<!DOCTYPE svg PUBLIC "-//W3C//DTD SVG 1.1//EN" "http://www.w3.org/Graphics/SVG/1.1/DTD/svg11.dtd">
<svg version="1.1" id="flash0.ai" xmlns="http://www.w3.org/2000/svg" xmlns:xlink="http://www.w3.org/1999/xlink" x="0px" y="0px"
	 width="43.5px" height="42.45px" viewBox="0 0 43.5 42.45" style="enable-background:new 0 0 43.5 42.45;" xml:space="preserve">
<symbol  id="flash0.ai_x5F_8_x2F_Layer_37_copy_x2F__x3C_Path_x3E__x5F_10" viewBox="0 -31.45 5.25 31.45">
	<g id="Layer_1_2_">
		
			<linearGradient id="SVGID_1_" gradientUnits="userSpaceOnUse" x1="-544.9414" y1="-15751.1357" x2="-519.7805" y2="-15751.1357" gradientTransform="matrix(0.0696 -0.9976 0.9976 0.0696 15752.9023 549.4541)">
			<stop  offset="0" style="stop-color:#FFFFFF"/>
			<stop  offset="1" style="stop-color:#000000"/>
		</linearGradient>
		<path style="fill-rule:evenodd;clip-rule:evenodd;fill:url(#SVGID_1_);" d="M3.3-0.5L5.25,0c0-0.267-0.183-1-0.55-2.2
			C4.567-2.667,4.2-3.567,3.6-4.9C3.133-5.967,2.867-6.767,2.8-7.3c-0.1-0.6-0.15-3.233-0.15-7.9c-0.033-3.966-0.033-7.333,0-10.1
			c0.067-2.867,0.267-4.917,0.6-6.15c-0.333,0.2-0.8,0.667-1.4,1.4c-0.4,0.466-0.767,1.033-1.1,1.7l-0.4,0.85L0-6.5
			C0.033-6,0.3-5.4,0.8-4.7C1.4-4,1.783-3.5,1.95-3.2C2.683-2.033,3.133-1.133,3.3-0.5z"/>
	</g>
</symbol>
<symbol  id="flash0.ai_x5F_8_x2F_Layer_37_copy_x2F__x3C_Path_x3E__x5F_2" viewBox="0.028 -1.2 9.472 1.2">
	<g id="Layer_1_5_">
		<path style="fill-rule:evenodd;clip-rule:evenodd;fill:#FFFFFF;" d="M0.45-0.05c0.633-0.2,1.667-0.4,3.1-0.6
			C5.35-0.917,7.333-1.033,9.5-1C9.433-1.2,8.35-1.25,6.25-1.15C3.583-1.05,1.6-0.767,0.3-0.3C0.067-0.2-0.017-0.117,0.05-0.05
			C0.117,0.017,0.25,0.017,0.45-0.05z"/>
	</g>
</symbol>
<symbol  id="flash0.ai_x5F_8_x2F_Layer_37_copy_x2F__x3C_Path_x3E__x5F_8" viewBox="0 -3.112 16.45 3.112">
	<g id="Layer_1_4_">
		<path style="fill-rule:evenodd;clip-rule:evenodd;fill:#94894D;" d="M15.55,0l0.9-1.45c-1.467-1.2-4.034-1.75-7.7-1.65
			C4.617-3,1.7-2.25,0-0.85L0.5,0l7.55-0.35L15.55,0z"/>
	</g>
</symbol>
<symbol  id="flash0.ai_x5F_8_x2F_Layer_37_copy_x2F__x3C_Path_x3E__x5F_9" viewBox="0 -31.45 5.25 31.45">
	<g id="Layer_1_3_">
		<linearGradient id="SVGID_2_" gradientUnits="userSpaceOnUse" x1="4.2183" y1="-27.4805" x2="2.4683" y2="-2.3805">
			<stop  offset="0" style="stop-color:#FFFFFF"/>
			<stop  offset="1" style="stop-color:#000000"/>
		</linearGradient>
		<path style="fill-rule:evenodd;clip-rule:evenodd;fill:url(#SVGID_2_);" d="M1.95-0.5C2.117-1.133,2.567-2.033,3.3-3.2
			C3.5-3.5,3.883-4,4.45-4.7c0.5-0.7,0.767-1.3,0.8-1.8l-0.3-21l-0.4-0.85c-0.367-0.667-0.733-1.233-1.1-1.7
			c-0.6-0.733-1.083-1.2-1.45-1.4c0.367,1.233,0.567,3.284,0.6,6.15c0.133,10.5,0.083,16.5-0.15,18C2.383-6.8,2.117-6,1.65-4.9
			C1.117-3.6,0.767-2.7,0.6-2.2C0.2-1,0-0.267,0,0L1.95-0.5z"/>
	</g>
</symbol>
<linearGradient id="SVGID_3_" gradientUnits="userSpaceOnUse" x1="0" y1="22.9814" x2="24.175" y2="22.9814">
	<stop  offset="0" style="stop-color:#FFFFF0"/>
	<stop  offset="1" style="stop-color:#918649"/>
</linearGradient>
<path style="fill-rule:evenodd;clip-rule:evenodd;fill:url(#SVGID_3_);" d="M22.3,9.7c0.7,0.733,1.167,1.433,1.4,2.1
	c0.333,0.833,0.5,1.934,0.5,3.3c0,1.333-0.117,4.533-0.351,9.6c-0.233,4.8-0.399,7.666-0.5,8.6c-0.1,1.066-0.566,2.101-1.399,3.101
	c-1.1,1.366-2.717,2.35-4.85,2.949c-1.7,0.467-3.367,0.667-5,0.601c-1.633,0.066-3.317-0.134-5.05-0.601
	C4.917,38.75,3.3,37.767,2.2,36.4c-0.833-1-1.284-2.034-1.35-3.101c-0.1-0.934-0.267-3.8-0.5-8.6C0.117,19.633,0,16.433,0,15.1
	c0-1.4,0.15-2.5,0.45-3.3c0.267-0.667,0.733-1.367,1.4-2.1c1.4-1.534,2.3-2.767,2.7-3.7l7.55,0.35L19.6,6
	C20.233,7.167,21.134,8.4,22.3,9.7z"/>
<linearGradient id="SVGID_4_" gradientUnits="userSpaceOnUse" x1="0.6499" y1="22.8066" x2="23.3496" y2="22.8066">
	<stop  offset="0" style="stop-color:#F5F3A7"/>
	<stop  offset="1" style="stop-color:#B3A662"/>
</linearGradient>
<path style="fill-rule:evenodd;clip-rule:evenodd;fill:url(#SVGID_4_);" d="M21.6,9.9c0.634,0.7,1.067,1.383,1.301,2.05
	c0.3,0.8,0.449,1.867,0.449,3.2c0,1.233-0.116,4.35-0.35,9.35c-0.2,4.366-0.333,7.15-0.4,8.35c-0.1,1.034-0.533,2.034-1.3,3
	c-1.066,1.334-2.6,2.284-4.6,2.851c-1.6,0.467-3.167,0.666-4.7,0.6c-1.533,0.066-3.1-0.133-4.7-0.6c-2-0.566-3.517-1.517-4.55-2.851
	c-0.8-0.966-1.233-1.966-1.3-3C1.383,31.983,1.233,29.2,1,24.5c-0.233-4.9-0.35-8.017-0.35-9.35c0-1.333,0.15-2.4,0.45-3.2
	c0.233-0.667,0.667-1.35,1.3-2.05c1.3-1.533,2.15-2.733,2.55-3.6L12,6.7l7.05-0.4C19.45,7.167,20.3,8.367,21.6,9.9z"/>
<path style="fill-rule:evenodd;clip-rule:evenodd;fill:#757369;" d="M6.45,12.75c0.6,0,0.8,0.167,0.6,0.5
	c-0.2,0.333-0.483,0.45-0.85,0.35c-0.267-0.033-0.35-0.184-0.25-0.45C6.05,12.883,6.217,12.75,6.45,12.75z"/>
<path style="fill-rule:evenodd;clip-rule:evenodd;fill:#757369;" d="M10.95,14.2c0.767-0.034,1.15,0.133,1.15,0.5
	c0,0.4-0.3,0.583-0.9,0.55c-0.5-0.033-0.75-0.217-0.75-0.55C10.45,14.367,10.617,14.2,10.95,14.2z"/>
<path style="fill-rule:evenodd;clip-rule:evenodd;fill:#757369;" d="M7.05,17.25c0.434-0.133,0.65,0.017,0.65,0.45
	c0,0.4-0.2,0.6-0.6,0.6c-0.367,0-0.533-0.15-0.5-0.45C6.633,17.55,6.783,17.35,7.05,17.25z"/>
<path style="fill-rule:evenodd;clip-rule:evenodd;fill:#757369;" d="M2.3,14.45c0.333,0.167,0.4,0.383,0.2,0.65
	c-0.167,0.3-0.367,0.4-0.6,0.3c-0.233-0.066-0.283-0.267-0.15-0.6C1.883,14.433,2.067,14.317,2.3,14.45z"/>
<path style="fill-rule:evenodd;clip-rule:evenodd;fill:#757369;" d="M10.55,11.85c0.4-0.033,0.583,0.117,0.55,0.45
	c0,0.3-0.217,0.45-0.65,0.45c-0.367,0-0.517-0.15-0.45-0.45C10.1,12.033,10.283,11.883,10.55,11.85z"/>
<path style="fill-rule:evenodd;clip-rule:evenodd;fill:#757369;" d="M17.25,10.85c0.267,0.2,0.417,0.533,0.45,1
	c0,0.5-0.25,0.633-0.75,0.4c-0.534-0.233-0.717-0.583-0.55-1.05C16.567,10.733,16.85,10.617,17.25,10.85z"/>
<path style="fill-rule:evenodd;clip-rule:evenodd;fill:#757369;" d="M19.65,14.2c0.267,0.133,0.3,0.383,0.1,0.75
	c-0.2,0.4-0.433,0.517-0.7,0.35c-0.3-0.133-0.367-0.4-0.2-0.8C19.017,14.1,19.283,14,19.65,14.2z"/>
<path style="fill-rule:evenodd;clip-rule:evenodd;fill:#757369;" d="M6.85,9.05c0.367-0.033,0.55,0.1,0.55,0.4
	c-0.033,0.333-0.25,0.466-0.65,0.4C6.417,9.817,6.3,9.683,6.4,9.45C6.5,9.217,6.65,9.083,6.85,9.05z"/>
<path style="fill-rule:evenodd;clip-rule:evenodd;fill:#757369;" d="M5.6,33.25c0.433,0.267,0.467,0.467,0.1,0.6
	c-0.367,0.167-0.65,0.167-0.85,0c-0.167-0.133-0.15-0.3,0.05-0.5C5.1,33.116,5.333,33.083,5.6,33.25z"/>
<path style="fill-rule:evenodd;clip-rule:evenodd;fill:#757369;" d="M7.6,35.8c0.467,0.134,0.633,0.334,0.5,0.601
	c-0.167,0.233-0.45,0.3-0.85,0.199c-0.367-0.066-0.5-0.25-0.4-0.55S7.2,35.667,7.6,35.8z"/>
<path style="fill-rule:evenodd;clip-rule:evenodd;fill:#757369;" d="M18.15,32.35c0.4-0.033,0.567,0.101,0.5,0.4
	c-0.1,0.333-0.333,0.5-0.7,0.5c-0.333,0-0.467-0.15-0.4-0.45C17.617,32.533,17.817,32.384,18.15,32.35z"/>
<path style="fill-rule:evenodd;clip-rule:evenodd;fill:#757369;" d="M20.65,34.2c0.333-0.033,0.417,0.1,0.25,0.399
	c-0.167,0.334-0.367,0.5-0.6,0.5c-0.233,0-0.3-0.149-0.2-0.449C20.167,34.384,20.35,34.233,20.65,34.2z"/>
<path style="fill-rule:evenodd;clip-rule:evenodd;fill:#757369;" d="M16.9,37c0.434,0.066,0.533,0.25,0.3,0.55
	c-0.233,0.3-0.467,0.45-0.7,0.45s-0.317-0.184-0.25-0.55C16.317,37.083,16.533,36.934,16.9,37z"/>
<path style="fill-rule:evenodd;clip-rule:evenodd;fill:#757369;" d="M11.5,34c0.5,0.134,0.667,0.366,0.5,0.7
	c-0.2,0.366-0.483,0.517-0.85,0.45c-0.333-0.034-0.45-0.25-0.35-0.65C10.9,34.1,11.133,33.934,11.5,34z"/>
<linearGradient id="SVGID_5_" gradientUnits="userSpaceOnUse" x1="0.7002" y1="25.0254" x2="23.2752" y2="25.0254">
	<stop  offset="0" style="stop-color:#5CF261"/>
	<stop  offset="1" style="stop-color:#278029"/>
</linearGradient>
<path style="fill-rule:evenodd;clip-rule:evenodd;fill:url(#SVGID_5_);" d="M0.7,17.9c3.066,0.934,6.733,1.4,11,1.4
	c4.6,0,8.466-0.533,11.6-1.6c-0.066,2.3-0.25,6.416-0.55,12.35c-3,1.533-6.683,2.3-11.05,2.3c-4.067,0-7.534-0.666-10.4-2L0.7,17.9z
	"/>
<linearGradient id="SVGID_6_" gradientUnits="userSpaceOnUse" x1="6.979" y1="23.6289" x2="15.7421" y2="23.6289" gradientTransform="matrix(0.9928 0.1198 -0.1198 0.9928 -1.889467e-005 -4.252642e-004)">
	<stop  offset="0" style="stop-color:#F5F5F5"/>
	<stop  offset="1" style="stop-color:#D4D4D4"/>
</linearGradient>
<path style="fill-rule:evenodd;clip-rule:evenodd;fill:url(#SVGID_6_);" d="M4.9,22.1c0.267-0.899,0.85-1.466,1.75-1.7
	c1.067-0.267,2.05-0.283,2.95-0.05c1,0.233,1.733,0.717,2.2,1.45c0.467,0.733,0.6,1.5,0.4,2.3c-0.167,0.733-0.567,1.317-1.2,1.75
	c-0.767,0.534-1.417,0.851-1.95,0.95L8.7,27.7c-0.167,0.6-0.067,0.916,0.3,0.95c0.6,0.066,0.783-0.134,0.55-0.601l0.4,0.2
	c0.233,0.167,0.316,0.35,0.25,0.55c-0.1,0.3-0.417,0.517-0.95,0.65c-0.6,0.133-1.1,0.017-1.5-0.351
	c-0.967-0.966-1.033-1.866-0.2-2.699l1.65-1c0.667-0.4,1.033-0.95,1.1-1.65c0.067-0.8-0.167-1.4-0.7-1.8
	c-0.434-0.4-0.967-0.567-1.6-0.5c-0.5,0.033-0.967,0.2-1.4,0.5c-0.4,0.3-0.567,0.55-0.5,0.75L6.2,23.1l0.55-0.05
	c0.367,0,0.65,0.117,0.85,0.351c0.2,0.267,0.283,0.433,0.25,0.5C7.817,23.967,7.533,24.233,7,24.7c-0.233,0.233-0.55,0.267-0.95,0.1
	c-0.367-0.166-0.7-0.45-1-0.85C4.683,23.517,4.633,22.9,4.9,22.1z"/>
<linearGradient id="SVGID_7_" gradientUnits="userSpaceOnUse" x1="5.4409" y1="30.5088" x2="14.1802" y2="30.5088" gradientTransform="matrix(0.9984 0.0572 -0.0572 0.9984 -1.663938e-004 4.033372e-004)">
	<stop  offset="0" style="stop-color:#F5F5F5"/>
	<stop  offset="1" style="stop-color:#D4D4D4"/>
</linearGradient>
<path style="fill-rule:evenodd;clip-rule:evenodd;fill:url(#SVGID_7_);" d="M8.85,30.3c1.066,0.233,1.333,0.601,0.8,1.101
	c-0.533,0.533-1.133,0.583-1.8,0.149c-0.434-0.3-0.483-0.6-0.15-0.899C8,30.316,8.383,30.2,8.85,30.3z"/>
<use xlink:href="#flash0.ai_x5F_8_x2F_Layer_37_copy_x2F__x3C_Path_x3E__x5F_10"  width="5.25" height="31.45" y="-31.45" transform="matrix(1 0 0 -1 2.2002 6.2998)" style="overflow:visible;opacity:0.5781;enable-background:new    ;"/>
<use xlink:href="#flash0.ai_x5F_8_x2F_Layer_37_copy_x2F__x3C_Path_x3E__x5F_9"  width="5.25" height="31.45" y="-31.45" transform="matrix(1 0 0 -1 16.8999 6.2998)" style="overflow:visible;opacity:0.2109;enable-background:new    ;"/>
<use xlink:href="#flash0.ai_x5F_8_x2F_Layer_37_copy_x2F__x3C_Path_x3E__x5F_8"  width="16.45" height="3.112" y="-3.112" transform="matrix(1 0 0 -1 4.0498 6)" style="overflow:visible;opacity:0.6719;enable-background:new    ;"/>
<linearGradient id="SVGID_8_" gradientUnits="userSpaceOnUse" x1="3.2998" y1="6" x2="20.7748" y2="6">
	<stop  offset="0" style="stop-color:#FFFFF0"/>
	<stop  offset="1" style="stop-color:#918649"/>
</linearGradient>
<path style="fill-rule:evenodd;clip-rule:evenodd;fill:url(#SVGID_8_);" d="M20.8,6c0,0.567-0.85,1.05-2.55,1.45
	c-1.7,0.4-3.767,0.6-6.2,0.6c-2.4,0-4.45-0.2-6.15-0.6C4.167,7.05,3.3,6.567,3.3,6s0.867-1.05,2.6-1.45c1.7-0.4,3.75-0.6,6.15-0.6
	c2.4,0,4.467,0.2,6.2,0.6C19.95,4.95,20.8,5.433,20.8,6z"/>
<linearGradient id="SVGID_9_" gradientUnits="userSpaceOnUse" x1="3.0498" y1="5.5249" x2="21.25" y2="5.5249">
	<stop  offset="0" style="stop-color:#51D656"/>
	<stop  offset="0.2549" style="stop-color:#5FFF63"/>
	<stop  offset="1" style="stop-color:#247827"/>
</linearGradient>
<path style="fill-rule:evenodd;clip-rule:evenodd;fill:url(#SVGID_9_);" d="M21.25,5.5c0,0.567-0.883,1.05-2.65,1.45
	c-1.8,0.4-3.95,0.6-6.45,0.6c-2.533,0-4.683-0.2-6.45-0.6C3.933,6.55,3.05,6.067,3.05,5.5S3.933,4.467,5.7,4.1
	c1.767-0.4,3.917-0.6,6.45-0.6c2.5,0,4.65,0.2,6.45,0.6C20.367,4.5,21.25,4.967,21.25,5.5z"/>
<path style="fill-rule:evenodd;clip-rule:evenodd;fill:#0304D6;" d="M20.95,1.8v3.4H20.9c-0.033,0.367-0.917,0.7-2.65,1
	c-1.733,0.267-3.783,0.4-6.15,0.4c-2.4,0-4.467-0.133-6.2-0.4c-1.7-0.3-2.583-0.633-2.65-1V1.8H20.95z"/>
<linearGradient id="SVGID_10_" gradientUnits="userSpaceOnUse" x1="3.25" y1="4.2754" x2="20.925" y2="4.2754">
	<stop  offset="0" style="stop-color:#5CF261"/>
	<stop  offset="0.2549" style="stop-color:#5FFF63"/>
	<stop  offset="1" style="stop-color:#2C912F"/>
</linearGradient>
<path style="fill-rule:evenodd;clip-rule:evenodd;fill:url(#SVGID_10_);" d="M20.95,1.6v3.6H20.9c-0.066,0.433-0.95,0.833-2.65,1.2
	c-1.767,0.367-3.817,0.55-6.15,0.55c-2.367,0-4.434-0.184-6.2-0.55C4.2,6.033,3.317,5.633,3.25,5.2V1.6H20.95z"/>
<path style="fill-rule:evenodd;clip-rule:evenodd;fill:#5FFE63;" d="M20.9,1.7c0,0.466-0.867,0.867-2.6,1.2
	c-1.7,0.333-3.767,0.5-6.2,0.5c-2.467,0-4.55-0.167-6.25-0.5c-1.733-0.333-2.6-0.733-2.6-1.2c0-0.467,0.867-0.867,2.6-1.2
	C7.55,0.167,9.633,0,12.1,0c2.433,0,4.5,0.167,6.2,0.5C20.033,0.833,20.9,1.233,20.9,1.7z"/>
<use xlink:href="#flash0.ai_x5F_8_x2F_Layer_37_copy_x2F__x3C_Path_x3E__x5F_2"  width="9.472" height="1.2" x="0.028" y="-1.2" transform="matrix(1 0 0 -1 4.2998 6.7998)" style="overflow:visible;opacity:0.4805;enable-background:new    ;"/>
<path style="fill-rule:evenodd;clip-rule:evenodd;fill:#FFFFFF;" d="M4.55,36.35c0.7,0.367,1.117,0.75,1.25,1.15
	c0.133,0.366,0.05,0.55-0.25,0.55c-0.433,0-1.066-0.383-1.9-1.149C3.283,36.533,3.233,36.3,3.5,36.2
	C3.8,36.066,4.15,36.116,4.55,36.35z"/>
<path style="fill-rule:evenodd;clip-rule:evenodd;fill:#FFFFFF;" d="M7.2,37.7c0.5,0.1,0.633,0.267,0.4,0.5
	c-0.233,0.267-0.434,0.333-0.6,0.2c-0.167-0.134-0.25-0.301-0.25-0.5C6.717,37.667,6.867,37.6,7.2,37.7z"/>
</svg>
