<?xml version="1.0" encoding="iso-8859-1"?>
<!-- Generator: Adobe Illustrator 15.1.0, SVG Export Plug-In . SVG Version: 6.00 Build 0)  -->
<!DOCTYPE svg PUBLIC "-//W3C//DTD SVG 1.1//EN" "http://www.w3.org/Graphics/SVG/1.1/DTD/svg11.dtd">
<svg version="1.1" id="flash0.ai" xmlns="http://www.w3.org/2000/svg" xmlns:xlink="http://www.w3.org/1999/xlink" x="0px" y="0px"
	 width="30.9px" height="60.75px" viewBox="0 0 30.9 60.75" style="enable-background:new 0 0 30.9 60.75;" xml:space="preserve">
<symbol  id="flash0.ai_x5F_5_x2F_Layer_7_x2F__x3C_Compound_Path_x3E_" viewBox="0 -42.1 12.55 42.1">
	<g id="Layer_1_8_">
		<linearGradient id="SVGID_1_" gradientUnits="userSpaceOnUse" x1="-0.0376" y1="-21.0498" x2="12.5374" y2="-21.0498">
			<stop  offset="0" style="stop-color:#AB5416"/>
			<stop  offset="1" style="stop-color:#411800"/>
		</linearGradient>
		<path style="fill-rule:evenodd;clip-rule:evenodd;fill:url(#SVGID_1_);" d="M8-0.45H4.55C3.85-3.217,3.433-6.033,3.3-8.9
			c-0.1-1.833-0.133-3.55-0.1-5.15v-0.1l-0.15-0.1l-0.55-0.3c-0.433-0.3-0.8-0.6-1.1-0.9c-0.467-0.433-0.783-1.117-0.95-2.05v-20.65
			l0.15-0.7c0.133-0.533,0.3-0.933,0.5-1.2c0.367-0.467,0.816-0.817,1.35-1.05c0.733-0.3,1.816-0.483,3.25-0.55h1.15
			c1.433,0.066,2.517,0.25,3.25,0.55c0.533,0.233,0.983,0.583,1.35,1.05c0.2,0.267,0.367,0.667,0.5,1.2
			c0.1,0.367,0.15,0.617,0.15,0.75v20.65c-0.167,0.9-0.483,1.567-0.95,2c-0.3,0.3-0.667,0.6-1.1,0.9l-0.55,0.3l-0.15,0.1v0.1
			c0.033,1.6,0,3.316-0.1,5.15C9.117-6.033,8.7-3.217,8-0.45z M9.7-8.85c0.1-1.6,0.15-3.283,0.15-5.05
			c0.533-0.267,1.083-0.684,1.65-1.25c0.533-0.5,0.883-1.25,1.05-2.25v-20.75c0-0.033-0.033-0.317-0.1-0.85
			c-0.133-0.567-0.333-1-0.6-1.3c-0.434-0.5-0.917-0.867-1.45-1.1c-0.8-0.367-1.9-0.583-3.3-0.65L6.7-42.1H5.45v0.05
			c-1.4,0.066-2.5,0.283-3.3,0.65c-0.533,0.233-1.017,0.6-1.45,1.1C0.433-40,0.25-39.567,0.15-39C0.05-38.467,0-38.183,0-38.15v20.7
			c0.167,1.034,0.517,1.8,1.05,2.3c0.5,0.533,1.05,0.95,1.65,1.25c0,1.767,0.033,3.45,0.1,5.05c0.167,3,0.617,5.883,1.35,8.65V0h4.2
			L8.4-0.2C9.133-2.967,9.567-5.85,9.7-8.85z"/>
	</g>
</symbol>
<symbol  id="flash0.ai_x5F_5_x2F_Layer_7_x2F__x3C_Path_x3E__x5F_12" viewBox="0 -3.25 10.1 3.25">
	<g id="Layer_1_3_">
		<path style="fill-rule:evenodd;clip-rule:evenodd;" d="M10.1-1.65c0-0.434-0.483-0.817-1.45-1.15c-1-0.3-2.2-0.45-3.6-0.45
			c-1.4,0-2.583,0.15-3.55,0.45C0.5-2.467,0-2.083,0-1.65C0-1.183,0.5-0.8,1.5-0.5C2.467-0.167,3.65,0,5.05,0
			c1.4,0,2.6-0.167,3.6-0.5C9.617-0.8,10.1-1.183,10.1-1.65z"/>
	</g>
</symbol>
<symbol  id="flash0.ai_x5F_5_x2F_Layer_7_x2F__x3C_Path_x3E__x5F_13" viewBox="0 -41.65 12.15 41.65">
	<g id="Layer_1_2_">
		<linearGradient id="SVGID_2_" gradientUnits="userSpaceOnUse" x1="0" y1="-20.8252" x2="12.1" y2="-20.8252">
			<stop  offset="0" style="stop-color:#FFFFFF"/>
			<stop  offset="1" style="stop-color:#86ACB8"/>
		</linearGradient>
		<path style="fill-rule:evenodd;clip-rule:evenodd;fill:url(#SVGID_2_);" d="M2.85-8.7c0.167,3.034,0.6,5.934,1.3,8.7H8
			c0.7-2.767,1.133-5.667,1.3-8.7c0.1-1.833,0.133-3.55,0.1-5.15L10-14.2c0.433-0.267,0.817-0.566,1.15-0.9
			c0.5-0.467,0.833-1.183,1-2.15v-20.7L12-38.7c-0.133-0.566-0.317-0.983-0.55-1.25c-0.4-0.5-0.867-0.867-1.4-1.1
			c-0.8-0.367-1.933-0.567-3.4-0.6H5.5c-1.467,0.033-2.583,0.233-3.35,0.6c-0.566,0.233-1.05,0.6-1.45,1.1
			c-0.233,0.267-0.417,0.684-0.55,1.25L0-37.95v20.7c0.167,0.967,0.5,1.683,1,2.15c0.333,0.333,0.733,0.633,1.2,0.9l0.55,0.35
			C2.717-12.25,2.75-10.533,2.85-8.7z"/>
	</g>
</symbol>
<symbol  id="flash0.ai_x5F_5_x2F_Layer_7_x2F__x3C_Path_x3E__x5F_3" viewBox="-0.004 -1.006 2.053 1.006">
	<g id="Layer_1_7_">
		<path style="fill-rule:evenodd;clip-rule:evenodd;fill:#FFFFFF;" d="M0.6,0c0.967,0,1.45-0.133,1.45-0.4
			c0-0.133-0.167-0.283-0.5-0.45c-0.4-0.167-0.783-0.2-1.15-0.1C0.033-0.85-0.083-0.667,0.05-0.4S0.367,0,0.6,0z"/>
	</g>
</symbol>
<symbol  id="flash0.ai_x5F_5_x2F_Layer_7_x2F__x3C_Path_x3E__x5F_4" viewBox="0 -1.5 4.45 1.5">
	<g id="Layer_1_6_">
		<path style="fill-rule:evenodd;clip-rule:evenodd;" d="M0.15,0l4.3-0.05V-1.3c-0.1-0.133-0.667-0.2-1.7-0.2
			C1.617-1.5,0.7-1.3,0-0.9L0.15,0z"/>
	</g>
</symbol>
<symbol  id="flash0.ai_x5F_5_x2F_Layer_7_x2F__x3C_Path_x3E__x5F_5" viewBox="0 -41.15 3.856 41.15">
	<g id="Layer_1_5_">
		<linearGradient id="SVGID_3_" gradientUnits="userSpaceOnUse" x1="1.9282" y1="-33.4126" x2="1.9282" y2="-2.1876">
			<stop  offset="0" style="stop-color:#FFFFFF"/>
			<stop  offset="1" style="stop-color:#000000"/>
		</linearGradient>
		<path style="fill-rule:evenodd;clip-rule:evenodd;fill:url(#SVGID_3_);" d="M0,0c0.8-2.233,1.233-4.9,1.3-8
			c0.034-3.133,0.083-5.133,0.15-6l1-0.8c0.733-0.733,1.167-1.7,1.3-2.9c0.2-1.867,0.117-8.633-0.25-20.3
			c-0.167-1.233-0.617-2.067-1.35-2.5s-1.367-0.65-1.9-0.65c0.367,0.8,0.65,1.566,0.85,2.3c0.233,0.7,0.35,7.633,0.35,20.8
			c-0.1,1.533-0.367,2.517-0.8,2.95L0-14.5l0.5,7.65C0.6-4.983,0.433-2.7,0,0z"/>
	</g>
</symbol>
<symbol  id="flash0.ai_x5F_5_x2F_Layer_7_x2F__x3C_Path_x3E__x5F_6" viewBox="-0.006 -41.1 3.806 41.1">
	<g id="Layer_1_4_">
		
			<linearGradient id="SVGID_4_" gradientUnits="userSpaceOnUse" x1="26.313" y1="-16335.8438" x2="57.538" y2="-16335.8438" gradientTransform="matrix(3.202562e-005 -1 1 -0.001 16337.7383 7.8389)">
			<stop  offset="0" style="stop-color:#FFFFFF"/>
			<stop  offset="1" style="stop-color:#000000"/>
		</linearGradient>
		<path style="fill-rule:evenodd;clip-rule:evenodd;fill:url(#SVGID_4_);" d="M3.8,0C3.4-2.667,3.25-4.95,3.35-6.85l0.45-7.6
			l-0.6-0.6C2.767-15.483,2.5-16.467,2.4-18c0-13.167,0.1-20.1,0.3-20.8c0.233-0.733,0.533-1.5,0.9-2.3
			c-0.533,0-1.167,0.217-1.9,0.65c-0.733,0.434-1.184,1.267-1.35,2.5c-0.367,11.633-0.45,18.4-0.25,20.3
			c0.133,1.2,0.566,2.167,1.3,2.9l1,0.8c0.067,0.867,0.117,2.867,0.15,6C2.617-4.85,3.033-2.2,3.8,0z"/>
	</g>
</symbol>
<use xlink:href="#flash0.ai_x5F_5_x2F_Layer_7_x2F__x3C_Path_x3E__x5F_13"  width="12.15" height="41.65" y="-41.65" transform="matrix(1 0 0 -1 0.2002 2.4502)" style="overflow:visible;opacity:0.8984;enable-background:new    ;"/>
<use xlink:href="#flash0.ai_x5F_5_x2F_Layer_7_x2F__x3C_Path_x3E__x5F_12"  width="10.1" height="3.25" y="-3.25" transform="matrix(1 0 0 -1 1.2998 40.6504)" style="overflow:visible;opacity:0.2813;enable-background:new    ;"/>
<linearGradient id="SVGID_5_" gradientUnits="userSpaceOnUse" x1="-9.0352" y1="-13.5723" x2="-0.6537" y2="-13.5723" gradientTransform="matrix(-0.9963 0.0865 -0.0865 -0.9963 -6.012619e-005 -1.980737e-004)">
	<stop  offset="0" style="stop-color:#7A3300"/>
	<stop  offset="1" style="stop-color:#2B0D00"/>
</linearGradient>
<path style="fill-rule:evenodd;clip-rule:evenodd;fill:url(#SVGID_5_);" d="M9.35,13.1c0,0.267-1.033,0.4-3.1,0.4
	c-2.033,0-3.05-0.133-3.05-0.4c0-0.3,1.017-0.45,3.05-0.45C8.317,12.65,9.35,12.8,9.35,13.1z"/>
<path style="fill-rule:evenodd;clip-rule:evenodd;fill:#311000;" d="M3,13.2v-0.15c1,0.3,2.133,0.45,3.4,0.45
	c1.1,0,2.15-0.133,3.15-0.4v0.15c-1,0.267-2.05,0.4-3.15,0.4C5.133,13.65,4,13.5,3,13.2z"/>
<linearGradient id="SVGID_6_" gradientUnits="userSpaceOnUse" x1="0.2627" y1="28.6753" x2="12.2377" y2="28.6753">
	<stop  offset="0" style="stop-color:#7A3300"/>
	<stop  offset="1" style="stop-color:#2B0D00"/>
</linearGradient>
<path style="fill-rule:evenodd;clip-rule:evenodd;fill:url(#SVGID_6_);" d="M0.3,19.85c0.167-0.967,0.483-1.684,0.95-2.15
	c0.333-0.333,0.717-0.633,1.15-0.9l0.55-0.35L3,13.2c1,0.3,2.133,0.45,3.4,0.45c1.1,0,2.15-0.133,3.15-0.4
	c0.034,1.233,0.034,2.3,0,3.2l0.6,0.35c0.434,0.267,0.817,0.567,1.15,0.9c0.467,0.466,0.784,1.183,0.95,2.15V40.4l-0.1,0.75
	c-0.133,0.566-0.316,1-0.55,1.3c-0.434,0.5-0.9,0.85-1.4,1.05c-0.8,0.366-1.917,0.566-3.35,0.6v0.051H5.7V44.1
	c-1.434-0.033-2.55-0.233-3.35-0.6c-0.5-0.2-0.967-0.55-1.4-1.05c-0.233-0.3-0.417-0.733-0.55-1.3L0.3,40.4V19.85z"/>
<linearGradient id="SVGID_7_" gradientUnits="userSpaceOnUse" x1="0.6748" y1="29.6001" x2="10.5244" y2="29.6001">
	<stop  offset="0" style="stop-color:#EB5C1F"/>
	<stop  offset="1" style="stop-color:#8C2A00"/>
</linearGradient>
<path style="fill-rule:evenodd;clip-rule:evenodd;fill:url(#SVGID_7_);" d="M8.25,23.05c0.833-0.066,1.6-0.167,2.3-0.3v13.5
	l-0.1,0.5c-0.1,0.366-0.25,0.65-0.45,0.85c-0.667,0.667-1.967,1.034-3.9,1.101H5.15c-1.933-0.066-3.233-0.434-3.9-1.101
	C1.05,37.4,0.9,37.116,0.8,36.75l-0.1-0.5V22.9l1.45,0.15c0.267-0.767,0.684-1.383,1.25-1.85c0.533-0.467,1.133-0.7,1.8-0.7
	c0.667,0,1.283,0.233,1.85,0.7C7.583,21.667,7.983,22.283,8.25,23.05z"/>
<linearGradient id="SVGID_8_" gradientUnits="userSpaceOnUse" x1="1.6875" y1="28.8501" x2="8.4125" y2="28.8501">
	<stop  offset="0" style="stop-color:#EBB96F"/>
	<stop  offset="1" style="stop-color:#BA861E"/>
</linearGradient>
<path style="fill-rule:evenodd;clip-rule:evenodd;fill:url(#SVGID_8_);" d="M8.45,28.85c0,1.867-0.333,3.433-1,4.7
	c-0.633,1.3-1.434,1.95-2.4,1.95c-0.933,0-1.716-0.65-2.35-1.95c-0.667-1.3-1-2.867-1-4.7c0-1.833,0.333-3.4,1-4.7
	c0.633-1.3,1.417-1.95,2.35-1.95c0.967,0,1.767,0.65,2.4,1.95C8.117,25.417,8.45,26.983,8.45,28.85z"/>
<use xlink:href="#flash0.ai_x5F_5_x2F_Layer_7_x2F__x3C_Path_x3E__x5F_6"  width="3.806" height="41.1" x="-0.006" y="-41.1" transform="matrix(1 0 0 -1 1.25 2.8501)" style="overflow:visible;opacity:0.6914;enable-background:new    ;"/>
<use xlink:href="#flash0.ai_x5F_5_x2F_Layer_7_x2F__x3C_Path_x3E__x5F_5"  width="3.856" height="41.15" y="-41.15" transform="matrix(1 0 0 -1 7.2998 2.7002)" style="overflow:visible;opacity:0.2383;enable-background:new    ;"/>
<use xlink:href="#flash0.ai_x5F_5_x2F_Layer_7_x2F__x3C_Path_x3E__x5F_4"  width="4.45" height="1.5" y="-1.5" transform="matrix(1 0 0 -1 4.1001 3.1499)" style="overflow:visible;opacity:0.3008;enable-background:new    ;"/>
<use xlink:href="#flash0.ai_x5F_5_x2F_Layer_7_x2F__x3C_Path_x3E__x5F_3"  width="2.053" height="1.006" x="-0.004" y="-1.006" transform="matrix(1 0 0 -1 4.75 17.5498)" style="overflow:visible;opacity:0.3594;enable-background:new    ;"/>
<use xlink:href="#flash0.ai_x5F_5_x2F_Layer_7_x2F__x3C_Compound_Path_x3E_"  width="12.55" height="42.1" y="-42.1" transform="matrix(1 0 0 -1 0 2.25)" style="overflow:visible;opacity:0.5703;enable-background:new    ;"/>
<linearGradient id="SVGID_9_" gradientUnits="userSpaceOnUse" x1="3.5249" y1="3.3501" x2="9.2749" y2="3.3501">
	<stop  offset="0" style="stop-color:#F77943"/>
	<stop  offset="1" style="stop-color:#8C2A00"/>
</linearGradient>
<path style="fill-rule:evenodd;clip-rule:evenodd;fill:url(#SVGID_9_);" d="M9.3,3.35c0,0.233-0.283,0.433-0.85,0.6
	C7.883,4.117,7.2,4.2,6.4,4.2c-0.8,0-1.467-0.083-2-0.25c-0.566-0.167-0.85-0.367-0.85-0.6s0.284-0.434,0.85-0.6
	c0.533-0.167,1.2-0.25,2-0.25c0.8,0,1.483,0.083,2.05,0.25C9.017,2.917,9.3,3.117,9.3,3.35z"/>
<linearGradient id="SVGID_10_" gradientUnits="userSpaceOnUse" x1="3.7373" y1="2.1748" x2="9.0623" y2="2.1748">
	<stop  offset="0" style="stop-color:#EB5C1F"/>
	<stop  offset="1" style="stop-color:#8C2A00"/>
</linearGradient>
<path style="fill-rule:evenodd;clip-rule:evenodd;fill:url(#SVGID_10_);" d="M3.7,3.3V0.5H9v2.65l0.05,0.1c0,0.4-0.883,0.6-2.65,0.6
	c-1.566,0-2.45-0.184-2.65-0.55H3.7z"/>
<linearGradient id="SVGID_11_" gradientUnits="userSpaceOnUse" x1="-9.0752" y1="-1.1929" x2="-2.7391" y2="-1.1929" gradientTransform="matrix(-0.9943 0.1065 -0.1065 -0.9943 7.920787e-004 0)">
	<stop  offset="0" style="stop-color:#EB5C1F"/>
	<stop  offset="1" style="stop-color:#8C2A00"/>
</linearGradient>
<path style="fill-rule:evenodd;clip-rule:evenodd;fill:url(#SVGID_11_);" d="M9.05,0.5C9.05,0.833,8.167,1,6.4,1
	C4.6,1,3.7,0.833,3.7,0.5c0-0.133,0.267-0.25,0.8-0.35S5.667,0,6.4,0c0.7,0,1.317,0.05,1.85,0.15S9.05,0.367,9.05,0.5z"/>
</svg>
