<?xml version="1.0" encoding="iso-8859-1"?>
<!-- Generator: Adobe Illustrator 15.1.0, SVG Export Plug-In . SVG Version: 6.00 Build 0)  -->
<!DOCTYPE svg PUBLIC "-//W3C//DTD SVG 1.1//EN" "http://www.w3.org/Graphics/SVG/1.1/DTD/svg11.dtd">
<svg version="1.1" id="flash0.ai" xmlns="http://www.w3.org/2000/svg" xmlns:xlink="http://www.w3.org/1999/xlink" x="0px" y="0px"
	 width="72.1px" height="44.05px" viewBox="0 0 72.1 44.05" style="enable-background:new 0 0 72.1 44.05;" xml:space="preserve">
<symbol  id="silvertongue2" viewBox="0 -31.026 51.791 31.026">
	<g id="Layer_1_2_">
		<path style="fill-rule:evenodd;clip-rule:evenodd;fill:#667C00;" d="M38.75-24.6c3.1,3.667,5.483,7.2,7.15,10.6l0.4-1.35
			c1.167-5.933,0.033-9.566-3.4-10.9l-3.9,1.2L38.75-24.6z"/>
		
			<linearGradient id="SVGID_1_" gradientUnits="userSpaceOnUse" x1="13986.7715" y1="1739.415" x2="13997.2617" y2="1739.415" gradientTransform="matrix(0.2526 0.9676 -0.9676 0.2526 -1808.3867 -13996.8555)">
			<stop  offset="0" style="stop-color:#617220"/>
			<stop  offset="1" style="stop-color:#869D2E"/>
		</linearGradient>
		<path style="fill-rule:evenodd;clip-rule:evenodd;fill:url(#SVGID_1_);" d="M44.95-12.4c1.4-0.733,2.117-2.034,2.15-3.9
			c0-4.567-1.583-7.65-4.75-9.25l-3.15,0.3c-0.467,0.733-0.566,1.833-0.3,3.3c0.267,1.7,0.967,2.95,2.1,3.75
			c1.367,1,2.3,1.817,2.8,2.45c0.6,0.767,0.716,1.45,0.35,2.05l-1.3,1.85L44.95-12.4z"/>
		<path style="fill-rule:evenodd;clip-rule:evenodd;fill:#5E7200;" d="M46.95-16.95c-0.1-1.1-0.233-2.533-0.4-4.3
			c-0.133-1.233-0.317-2-0.55-2.3c-0.433-0.634-0.767-1.083-1-1.35c-0.366-0.534-0.616-0.767-0.75-0.7l-2,0.9l-2.95,3.6
			c0.767-0.833,1.35-0.95,1.75-0.35c0.167,0.267,0.333,0.784,0.5,1.55c0.133,0.7,0.35,1.2,0.65,1.5l1.375,1.425
			C43.44-17.131,43.282-17.34,43.1-17.6c-0.4-0.7-0.65-1.45-0.75-2.25c-0.1-0.833,0.017-1.6,0.35-2.3c0.3-0.567,0.617-0.9,0.95-1
			c0.6-0.133,1.217,0.566,1.85,2.1c0.367,0.9,0.667,1.966,0.9,3.2c0.267,1.4,0.3,2.417,0.1,3.05l-0.75,2l0.7-0.85
			C46.917-14.483,47.083-15.583,46.95-16.95z"/>
		<path style="fill-rule:evenodd;clip-rule:evenodd;fill:#485700;" d="M40.25-21.75l1.6-1c-0.3,0.6-0.4,1.2-0.3,1.8l0.25,1.45
			l0.25-1.4c0.2-0.967,0.433-1.617,0.7-1.95c0.233-0.267,0.417-0.617,0.55-1.05c0.133-0.267,0.466-0.233,1,0.1
			c1.1,0.7,1.75,1.733,1.95,3.1l0.4,2.05c0.066-2.6-0.217-4.383-0.85-5.35c-0.367-0.6-0.733-1.05-1.1-1.35l-0.45-0.25l-1.35,0.65
			L40.25-21.75z"/>
		<path style="fill-rule:evenodd;clip-rule:evenodd;fill:#9DB800;" d="M42.85-19.8l0.7,0.3c0.067,0.033,0.3,0.25,0.7,0.65
			c0.434,0.333,0.717,0.45,0.85,0.35c0.233-0.2,0.1-0.617-0.4-1.25c-0.767-1.167-1.316-1.633-1.65-1.4
			C42.684-20.883,42.617-20.434,42.85-19.8z"/>
		<path style="fill-rule:evenodd;clip-rule:evenodd;fill:#9DB800;" d="M43.15-18.1l-0.05,0.2c1.467,1.233,2.133,1.55,2,0.95
			c-0.033-0.167-0.167-0.316-0.4-0.45c-0.3-0.133-0.5-0.233-0.6-0.3l-1.05-0.9C42.85-18.434,42.884-18.267,43.15-18.1z"/>
		<path style="fill-rule:evenodd;clip-rule:evenodd;fill:#9DB800;" d="M40.6-19.2l0.45,0.1c0.033-0.1-0.034-0.267-0.2-0.5
			c-0.167-0.2-0.317-0.3-0.45-0.3c-0.233,0.033-0.3,0.15-0.2,0.35C40.3-19.383,40.434-19.267,40.6-19.2z"/>
		<path style="fill-rule:evenodd;clip-rule:evenodd;fill:#9DB800;" d="M39.7-20.45l0.7-0.35c0.167-0.134,0.183-0.25,0.05-0.35
			c-0.133-0.133-0.267-0.15-0.4-0.05c-0.1,0.067-0.2,0.167-0.3,0.3C39.684-20.733,39.667-20.583,39.7-20.45z"/>
		
			<linearGradient id="SVGID_2_" gradientUnits="userSpaceOnUse" x1="13297.9072" y1="2121.2559" x2="13303.0225" y2="2121.2559" gradientTransform="matrix(0.3177 0.9482 -0.9482 0.3177 -2180.9004 -13307.2275)">
			<stop  offset="0" style="stop-color:#617220"/>
			<stop  offset="1" style="stop-color:#869D2E"/>
		</linearGradient>
		<path style="fill-rule:evenodd;clip-rule:evenodd;fill:url(#SVGID_2_);" d="M23.55-18l-5.9,2.8l8.2-2.35
			c5.833-1.733,9.683-3.034,11.55-3.9c1.967-0.9,3.933-1.5,5.9-1.8c1.167-0.2,2.667-0.3,4.5-0.3c1.767,0.033,2.65,0.017,2.65-0.05
			c-0.533-0.167-1.066-0.417-1.6-0.75c-1.067-0.7-1.6-1.566-1.6-2.6c0-1.633,0.05-2.85,0.15-3.65
			C35.533-23.667,27.583-19.467,23.55-18z"/>
		<path style="fill-rule:evenodd;clip-rule:evenodd;fill:#4A5A00;" d="M46.65-25.4c0.733,0.966,1.233,1.533,1.5,1.7
			c0.467,0.267,1.233,0.3,2.3,0.1c1.7-0.333,1.783-2.15,0.25-5.45c-0.4-0.9-0.917-1.5-1.55-1.8c-0.6-0.3-1.184-0.216-1.75,0.25
			c-0.6,0.467-1,1.267-1.2,2.4C45.967-27.033,46.117-26.1,46.65-25.4z"/>
		<path style="fill-rule:evenodd;clip-rule:evenodd;fill:#677C00;" d="M48.9-24.35c0.967-0.133,1.583-0.35,1.85-0.65
			c0.434-0.533,0.283-1.467-0.45-2.8c-0.7-1.367-1.383-1.967-2.05-1.8c-0.533,0.1-0.866,0.567-1,1.4
			c-0.133,0.8-0.083,1.617,0.15,2.45C47.7-24.717,48.2-24.25,48.9-24.35z"/>
		
			<linearGradient id="SVGID_3_" gradientUnits="userSpaceOnUse" x1="16408.9805" y1="-16206.1895" x2="16419.6309" y2="-16206.1895" gradientTransform="matrix(-0.9999 0.0141 -0.0141 -0.9999 16196.1465 -16452.0508)">
			<stop  offset="0" style="stop-color:#6F66AE"/>
			<stop  offset="0.1765" style="stop-color:#7E7AC1"/>
			<stop  offset="0.5216" style="stop-color:#969BE2"/>
			<stop  offset="0.8078" style="stop-color:#A6AFF6"/>
			<stop  offset="1" style="stop-color:#ABB6FD"/>
		</linearGradient>
		<path style="fill-rule:evenodd;clip-rule:evenodd;fill:url(#SVGID_3_);" d="M7.1-19.75C5.4-19.316,3.7-18.533,2-17.4l-2,1.6h1
			c0.833-0.067,1.65-0.167,2.45-0.3c0.833-0.133,2.217,0.267,4.15,1.2c1.133,0.566,2.867,1.5,5.2,2.8c1.4,0.7,2.966,0.75,4.7,0.15
			c0.867-0.3,1.6-0.667,2.2-1.1c1.2-1.733,1.533-3.367,1-4.9c-0.467-1.3-1.35-2.233-2.65-2.8C16.217-21.55,12.567-21.217,7.1-19.75z
			"/>
		<path style="fill-rule:evenodd;clip-rule:evenodd;fill:#605A98;" d="M11.35-16.45l0.2,0.25c0-0.2-0.05-0.366-0.15-0.5
			c-0.967-0.167-2.05-0.25-3.25-0.25c0.6,0.134,0.983,0.267,1.15,0.4l1.15,0.3L11.35-16.45z"/>
		<path style="fill-rule:evenodd;clip-rule:evenodd;fill:#605A98;" d="M13.3-11.9c1.333,0.533,2.8,0.5,4.4-0.1
			c0.8-0.3,1.467-0.65,2-1.05c1.2-1.733,1.533-3.367,1-4.9c-0.467-1.3-1.35-2.233-2.65-2.8c-1.833-0.8-5.483-0.467-10.95,1
			c-2.4,0.633-4.6,1.8-6.6,3.5l1.15-0.55c1.2-0.733,2.183-1.25,2.95-1.55c1.833-0.767,3.8-1.216,5.9-1.35
			c2.033-0.1,3.717,0.184,5.05,0.85c0.667,0.3,1.117,0.633,1.35,1l0.25,1.45c-0.267,0.333-0.867,0.483-1.8,0.45l0.25,0.5l-0.9-0.35
			l0.05-0.2l-2.2-0.5c0.167,0.333,0.367,0.617,0.6,0.85L11.65-16l-0.2,0.05c1.233,0.333,2.083,0.667,2.55,1l0.85-0.15l-0.4,0.5
			l0.85,0.55C14.233-13.783,13.567-13.066,13.3-11.9z"/>
		<path style="fill-rule:evenodd;clip-rule:evenodd;fill:#605A98;" d="M11.65-16l1.5,0.35c-0.233-0.233-0.434-0.517-0.6-0.85
			c-0.367-0.633-0.583-0.983-0.65-1.05c-0.934-1.067-1.567-1.6-1.9-1.6c0.6,0.667,1.067,1.483,1.4,2.45c0.1,0.134,0.15,0.3,0.15,0.5
			l0.2,0.2H11.65z"/>
		<path style="fill-rule:evenodd;clip-rule:evenodd;fill:#605A98;" d="M14.75-16l-0.05,0.2l0.9,0.35l-0.25-0.5l-0.25-0.8
			c-0.033-0.066-0.183-0.3-0.45-0.7c-0.068-0.122-0.126-0.239-0.175-0.35c0.074,0.24,0.132,0.457,0.175,0.65
			C14.75-16.617,14.783-16.233,14.75-16z"/>
		<path style="fill-rule:evenodd;clip-rule:evenodd;fill:#605A98;" d="M11.75-16l-0.4-0.45l-0.9,0.2l-0.95,0.5
			c-0.167,0.167-0.433,0.333-0.8,0.5L11.65-16H11.75z"/>
		<path style="fill-rule:evenodd;clip-rule:evenodd;fill:#605A98;" d="M14.85-15.1L14-14.95c-1.167,0.267-1.95,0.75-2.35,1.45
			c0.3-0.033,0.75-0.2,1.35-0.5c0.6-0.3,1.067-0.467,1.4-0.5l0.05-0.1L14.85-15.1z"/>
		<path style="fill-rule:evenodd;clip-rule:evenodd;fill:#577ED3;" d="M5.65-16.25c0.6-0.3,1.25-0.367,1.95-0.2
			c0.267,0.067,0.433,0.15,0.5,0.25c0.133,0.167,0.167,0.284,0.1,0.35c-0.033,0.034-0.15,0.067-0.35,0.1l-0.8,0.15
			c-0.233,0.067-0.517,0.05-0.85-0.05C5.833-15.783,5.65-15.983,5.65-16.25z M7.25-16.95c-3.6,0-5.483,0.367-5.65,1.1l1.85-0.25
			c0.833-0.167,2.25,0.25,4.25,1.25l1-0.4c0.367-0.167,0.633-0.333,0.8-0.5c0.134-0.133,0.167-0.267,0.1-0.4
			c0-0.067-0.1-0.2-0.3-0.4c-0.167-0.134-0.55-0.267-1.15-0.4C7.75-17.017,7.45-17.017,7.25-16.95z"/>
		<path style="fill-rule:evenodd;clip-rule:evenodd;fill:#577ED3;" d="M6.5-17.75c0.233-0.2,0.533-0.35,0.9-0.45
			c0.333-0.133,0.616-0.167,0.85-0.1c0.267,0.033,0.434,0.116,0.5,0.25c0.1,0.133-0.033,0.233-0.4,0.3
			C6.917-17.55,6.3-17.55,6.5-17.75z M7.1-18.5c-1.267,0.267-2.35,0.65-3.25,1.15c-0.367,0.2,0.2,0.217,1.7,0.05
			c1.9-0.2,3.017-0.25,3.35-0.15c0.566,0.167,0.933,0.15,1.1-0.05c0.167-0.167,0.083-0.467-0.25-0.9
			C9.45-18.8,8.567-18.833,7.1-18.5z"/>
		<path style="fill-rule:evenodd;clip-rule:evenodd;fill:#577ED3;" d="M11.6-18.1c0.267,0.6,0.567,0.934,0.9,1
			c0.733,0.2,0.9-0.05,0.5-0.75c-0.4-0.7-0.816-1.066-1.25-1.1C11.384-18.95,11.333-18.667,11.6-18.1z M12.45-18.05
			c0.033,0.1,0.1,0.283,0.2,0.55l-0.25,0.2c-0.167,0.1-0.283-0.017-0.35-0.35c-0.034-0.1-0.083-0.217-0.15-0.35
			c0-0.1,0.05-0.184,0.15-0.25C12.217-18.316,12.35-18.25,12.45-18.05z"/>
		<path style="fill-rule:evenodd;clip-rule:evenodd;fill:#577ED3;" d="M11.05-14.05C10.884-14.017,10.767-14,10.7-14
			c-0.133,0-0.2-0.1-0.2-0.3c0.267-0.167,0.65-0.25,1.15-0.25l0.05,0.35L11.05-14.05z M11.4-13.85c0.366-0.167,0.633-0.383,0.8-0.65
			s0.133-0.467-0.1-0.6c-0.233-0.133-0.583-0.133-1.05,0c-0.534,0.133-0.883,0.35-1.05,0.65c-0.133,0.3-0.033,0.517,0.3,0.65
			C10.6-13.667,10.967-13.684,11.4-13.85z"/>
		<path style="fill-rule:evenodd;clip-rule:evenodd;fill:#86E8FF;" d="M6.5-17.75c-0.2,0.2,0.417,0.2,1.85,0
			c0.367-0.066,0.5-0.167,0.4-0.3c-0.066-0.134-0.233-0.217-0.5-0.25c-0.233-0.067-0.517-0.034-0.85,0.1
			C7.033-18.1,6.733-17.95,6.5-17.75z"/>
		<path style="fill-rule:evenodd;clip-rule:evenodd;fill:#86E8FF;" d="M8.1-16.2c-0.067-0.1-0.233-0.183-0.5-0.25
			c-0.7-0.167-1.35-0.1-1.95,0.2c0,0.267,0.183,0.467,0.55,0.6c0.333,0.1,0.617,0.117,0.85,0.05l0.8-0.15
			c0.2-0.033,0.317-0.066,0.35-0.1C8.267-15.917,8.233-16.033,8.1-16.2z"/>
		<path style="fill-rule:evenodd;clip-rule:evenodd;fill:#86E8FF;" d="M11.65-14.55c-0.5,0-0.884,0.083-1.15,0.25
			c0,0.2,0.067,0.3,0.2,0.3c0.066,0,0.184-0.017,0.35-0.05l0.65-0.15L11.65-14.55z"/>
		<path style="fill-rule:evenodd;clip-rule:evenodd;fill:#86E8FF;" d="M12.05-18.25c-0.1,0.066-0.15,0.15-0.15,0.25
			c0.066,0.133,0.116,0.25,0.15,0.35c0.067,0.333,0.183,0.45,0.35,0.35l0.25-0.2c-0.1-0.267-0.167-0.45-0.2-0.55
			C12.35-18.25,12.217-18.316,12.05-18.25z"/>
		
			<linearGradient id="SVGID_4_" gradientUnits="userSpaceOnUse" x1="18644.1191" y1="-3397.6499" x2="18655.9141" y2="-3397.6499" gradientTransform="matrix(-0.3497 0.9369 -0.9369 -0.3497 3355.2588 -18666.8945)">
			<stop  offset="0" style="stop-color:#6F66AE"/>
			<stop  offset="0.1765" style="stop-color:#7E7AC1"/>
			<stop  offset="0.5216" style="stop-color:#969BE2"/>
			<stop  offset="0.8078" style="stop-color:#A6AFF6"/>
			<stop  offset="1" style="stop-color:#ABB6FD"/>
		</linearGradient>
		<path style="fill-rule:evenodd;clip-rule:evenodd;fill:url(#SVGID_4_);" d="M10.95-2.15L10.5,0l5.1-2.1
			c3.567-1.667,5.8-3.133,6.7-4.4c0.533-0.733,0.7-1.783,0.5-3.15c-0.2-1.3-0.683-2.467-1.45-3.5c-1.966-2.633-4.183-2.733-6.65-0.3
			c-0.833,0.3-1.633,0.784-2.4,1.45c-1.534,1.333-2.083,2.867-1.65,4.6C11.083-5.667,11.184-3.917,10.95-2.15z"/>
		<path style="fill-rule:evenodd;clip-rule:evenodd;fill:#605A98;" d="M10.5,0l0.25-0.1c0.533-0.533,0.817-1.216,0.85-2.05
			c-0.2-1.333-0.283-2.167-0.25-2.5C11.184-5.983,11.1-6.967,11.1-7.6c0.034-1.066,0.284-1.9,0.75-2.5
			c0.667-0.9,1.75-1.433,3.25-1.6c1.333-0.2,2.267-0.083,2.8,0.35c0.333,0.233,0.467,0.65,0.4,1.25c-0.034,0.367-0.2,0.983-0.5,1.85
			l0.25-0.05L17.6-7.6c0.133-0.167,0.284-0.3,0.45-0.4c0.033,0.066-0.067,0.45-0.3,1.15c0.9-1.233,1.533-1.9,1.9-2
			c0.066-0.033,0.333,0.317,0.8,1.05c0.6,0.767,1.217,1.216,1.85,1.35V-6.5c0.533-0.733,0.7-1.783,0.5-3.15
			c-0.2-1.3-0.683-2.467-1.45-3.5c-1.966-2.633-4.183-2.733-6.65-0.3c-0.833,0.3-1.633,0.784-2.4,1.45
			c-1.534,1.333-2.083,2.867-1.65,4.6c0.433,1.733,0.533,3.483,0.3,5.25L10.5,0z"/>
		<path style="fill-rule:evenodd;clip-rule:evenodd;fill:#605A98;" d="M17-5.75l-0.15-0.6c-0.7,0.934-1.667,1.95-2.9,3.05L13.9-3.15
			C15.233-3.983,16.267-4.85,17-5.75z"/>
		<path style="fill-rule:evenodd;clip-rule:evenodd;fill:#577ED3;" d="M14.7-5.6c-0.2-0.433-0.684-0.617-1.45-0.55
			c-0.767,0.1-1.316,0.316-1.65,0.65c-0.1,0.133-0.183,0.417-0.25,0.85c-0.033,0.333,0.05,1.167,0.25,2.5l0.1,0.55
			c0.066,0.367,0.283,0.417,0.65,0.15c0.1-0.066,0.417-0.366,0.95-0.9l0.6-0.8l0.05-0.15C14.65-4.367,14.9-5.133,14.7-5.6z
			 M12.9-4.7c0.467,0,0.616,0.367,0.45,1.1s-0.5,1.184-1,1.35C12.083-2.184,12-2.583,12.1-3.45C12.167-4.283,12.434-4.7,12.9-4.7z"
			/>
		<path style="fill-rule:evenodd;clip-rule:evenodd;fill:#577ED3;" d="M15.95-2.9c0.333-0.133,0.617-0.05,0.85,0.25l0.8-0.45
			l0.05-0.45c-0.033-0.467-0.2-0.8-0.5-1c-0.267-0.167-0.517-0.184-0.75-0.05c-0.2,0.133-0.684,0.583-1.45,1.35
			c-0.767,0.733-1.316,1.3-1.65,1.7c-0.133,0.233-0.183,0.4-0.15,0.5l1.45-0.6C14.867-2.316,15.317-2.733,15.95-2.9z"/>
		<path style="fill-rule:evenodd;clip-rule:evenodd;fill:#577ED3;" d="M15.35-7.05c-0.267,0.133-0.6,0.116-1-0.05
			c-0.433-0.2-0.667-0.5-0.7-0.9s0.15-0.633,0.55-0.7c0.333-0.066,0.617-0.033,0.85,0.1c0.3,0.167,0.517,0.383,0.65,0.65
			C15.867-7.583,15.75-7.283,15.35-7.05z M14.25-6.5l-0.1-0.1c0.2-0.066,0.517-0.117,0.95-0.15c0.3-0.066,0.717-0.233,1.25-0.5
			l0.3-0.15c0.167-0.5-0.067-1-0.7-1.5c-0.6-0.5-1.233-0.7-1.9-0.6c-0.733,0.1-1.2,0.316-1.4,0.65c-0.2,0.267-0.233,0.75-0.1,1.45
			C12.617-6.867,13.184-6.566,14.25-6.5z"/>
		<path style="fill-rule:evenodd;clip-rule:evenodd;fill:#577ED3;" d="M19.05-5.9c0.466-0.1,0.8,0.033,1,0.4
			C20.217-5.133,20-4.816,19.4-4.55c-0.2,0.1-0.4-0.083-0.6-0.55C18.567-5.566,18.65-5.833,19.05-5.9z M19.1-3.9l1.75-1.15
			c-0.1-0.767-0.533-1.3-1.3-1.6c-0.5-0.233-0.917-0.217-1.25,0.05c-0.333,0.3-0.467,0.684-0.4,1.15
			C18.067-4.583,18.467-4.066,19.1-3.9z"/>
		<path style="fill-rule:evenodd;clip-rule:evenodd;fill:#86E8FF;" d="M12.9-4.7c-0.467,0-0.733,0.417-0.8,1.25
			c-0.1,0.867-0.017,1.267,0.25,1.2c0.5-0.167,0.833-0.617,1-1.35S13.367-4.7,12.9-4.7z"/>
		<path style="fill-rule:evenodd;clip-rule:evenodd;fill:#86E8FF;" d="M15.95-2.9c-0.633,0.167-1.083,0.583-1.35,1.25l2.2-1
			C16.567-2.95,16.283-3.033,15.95-2.9z"/>
		<path style="fill-rule:evenodd;clip-rule:evenodd;fill:#86E8FF;" d="M19.05-5.9c-0.4,0.066-0.483,0.333-0.25,0.8
			c0.2,0.467,0.4,0.65,0.6,0.55c0.6-0.267,0.816-0.583,0.65-0.95C19.85-5.867,19.517-6,19.05-5.9z"/>
		<path style="fill-rule:evenodd;clip-rule:evenodd;fill:#86E8FF;" d="M15.05-8.6c-0.233-0.133-0.517-0.167-0.85-0.1
			c-0.4,0.067-0.583,0.3-0.55,0.7s0.267,0.7,0.7,0.9c0.4,0.167,0.733,0.184,1,0.05c0.4-0.233,0.517-0.534,0.35-0.9
			C15.567-8.217,15.35-8.434,15.05-8.6z"/>
		<path style="fill-rule:evenodd;clip-rule:evenodd;fill:#605A98;" d="M16.8-6.4l-0.05-0.45c0.033-0.133,0.233-0.3,0.6-0.5L17.6-7.6
			l0.45-0.7L17.8-8.25l-0.5,0.4c-0.2,0.2-0.417,0.35-0.65,0.45l-0.3,0.15c-0.533,0.267-0.95,0.434-1.25,0.5
			c-0.433,0.033-0.75,0.083-0.95,0.15l0.1,0.1c0.533,0.434,1.333,0.55,2.4,0.35L16.8-6.4z"/>
		<path style="fill-rule:evenodd;clip-rule:evenodd;fill:#605A98;" d="M16.85-6.35L17-5.75c0.134,0.267,0.384,0.517,0.75,0.75
			c-0.066-0.9-0.066-1.483,0-1.75v-0.1c0.233-0.7,0.333-1.083,0.3-1.15c-0.167,0.1-0.317,0.233-0.45,0.4l-0.25,0.25
			c-0.367,0.2-0.567,0.367-0.6,0.5L16.8-6.4L16.85-6.35z"/>
		
			<linearGradient id="SVGID_5_" gradientUnits="userSpaceOnUse" x1="3068.9663" y1="2167.0439" x2="3085.3313" y2="2167.0439" gradientTransform="matrix(0.9471 0.3208 -0.3208 0.9471 -2189.583 -3048.2783)">
			<stop  offset="0" style="stop-color:#6F66AE"/>
			<stop  offset="0.1765" style="stop-color:#7E7AC1"/>
			<stop  offset="0.5216" style="stop-color:#969BE2"/>
			<stop  offset="0.8078" style="stop-color:#A6AFF6"/>
			<stop  offset="1" style="stop-color:#ABB6FD"/>
		</linearGradient>
		<path style="fill-rule:evenodd;clip-rule:evenodd;fill:url(#SVGID_5_);" d="M19.35-11.3c0.2,1.033,0.967,2.3,2.3,3.8
			c1.767,1.967,3.583,2.783,5.45,2.45c2.933-0.534,6.45-0.6,10.55-0.2c-0.233-0.733-0.617-1.566-1.15-2.5
			c-1.033-1.9-2.267-3.333-3.7-4.3c-2.2-1.534-5.034-2.434-8.5-2.7C20.4-15.017,18.75-13.867,19.35-11.3z"/>
		<path style="fill-rule:evenodd;clip-rule:evenodd;fill:#605A98;" d="M32.15-11.2c2.066,1.134,3.783,2.784,5.15,4.95
			c-1.233-2.7-2.733-4.633-4.5-5.8c-2.2-1.534-5.034-2.434-8.5-2.7c-3.9-0.267-5.55,0.883-4.95,3.45c0.067,0.4,0.467,1.183,1.2,2.35
			l-0.1-0.45l1.8,1.45c1.367,0.967,2.533,1.467,3.5,1.5c1.467,0.067,3.333,0.067,5.6,0c-2.733-0.3-4.317-0.5-4.75-0.6
			c-0.667-0.134-1.483-0.483-2.45-1.05c-1-0.566-1.733-1.15-2.2-1.75c-0.4-0.533-0.7-1.017-0.9-1.45c-0.1-0.233-0.167-0.4-0.2-0.5
			l2.5-0.55c1.867-0.333,3.284-0.45,4.25-0.35C29.1-12.566,30.617-12.066,32.15-11.2z"/>
		<path style="fill-rule:evenodd;clip-rule:evenodd;fill:#577ED3;" d="M36.15-5.65c-0.2-0.333-1-0.55-2.4-0.65
			c-1.267-0.067-2.35-0.017-3.25,0.15c-0.467,0.066-1.316,0.1-2.55,0.1c-1.066,0-1.883,0.1-2.45,0.3c-0.4,0.133-0.633,0.3-0.7,0.5
			C25.233-5.083,25.634-5,26-5l-0.05-0.05c0.1-0.167,0.233-0.25,0.4-0.25c0.5-0.2,1.117-0.367,1.85-0.5
			c0.467-0.1,0.75,0.066,0.85,0.5l2.15-0.15V-5.5l0.65-0.3c0.367-0.1,0.784-0.05,1.25,0.15l0.6,0.2l2.55,0.1L36.15-5.65z"/>
		<path style="fill-rule:evenodd;clip-rule:evenodd;fill:#577ED3;" d="M31.45-7.95C30.684-8.483,30.533-8.833,31-9
			c2.333,0.066,3.333,0.45,3,1.15l-0.65,0.5C33.317-7.417,33.033-7.5,32.5-7.6C32-7.733,31.65-7.85,31.45-7.95z M34.2-6.75
			c0.7,0.1,1.133,0.083,1.3-0.05c0.634-0.5,0.4-1.117-0.7-1.85c-0.967-0.633-1.917-1.034-2.85-1.2c-0.6-0.1-1.05-0.033-1.35,0.2
			c-0.233,0.3-0.45,0.533-0.65,0.7c-0.233,0.2-0.167,0.467,0.2,0.8c0.4,0.333,1,0.633,1.8,0.9C32.717-6.983,33.467-6.816,34.2-6.75z
			"/>
		<path style="fill-rule:evenodd;clip-rule:evenodd;fill:#577ED3;" d="M26.55-9.5c0.433-0.2,0.85-0.15,1.25,0.15
			c0.367,0.3,0.233,0.583-0.4,0.85c-0.3,0.133-0.617,0.033-0.95-0.3C26.15-9.133,26.184-9.367,26.55-9.5z M25.45-9
			c-0.066,0.333,0.2,0.633,0.8,0.9c0.634,0.267,1.167,0.267,1.6,0c0.667-0.4,0.917-0.867,0.75-1.4c-0.2-0.533-0.6-0.767-1.2-0.7
			C26.2-10.033,25.55-9.633,25.45-9z"/>
		<path style="fill-rule:evenodd;clip-rule:evenodd;fill:#86E8FF;" d="M26.55-9.5c-0.367,0.133-0.4,0.367-0.1,0.7
			c0.333,0.333,0.65,0.433,0.95,0.3c0.633-0.267,0.767-0.55,0.4-0.85C27.4-9.65,26.983-9.7,26.55-9.5z"/>
		<path style="fill-rule:evenodd;clip-rule:evenodd;fill:#86E8FF;" d="M33.35-7.35L34-7.85c0.333-0.7-0.667-1.083-3-1.15
			c-0.467,0.167-0.316,0.517,0.45,1.05c0.2,0.1,0.55,0.217,1.05,0.35C33.033-7.5,33.317-7.417,33.35-7.35z"/>
		<path style="fill-rule:evenodd;clip-rule:evenodd;fill:#86E8FF;" d="M26.35-5.3c-0.167,0-0.3,0.083-0.4,0.25L26-5
			c0.4,0.066,0.767,0.05,1.1-0.05l1.95-0.25c-0.1-0.434-0.383-0.6-0.85-0.5C27.467-5.667,26.85-5.5,26.35-5.3z"/>
		<path style="fill-rule:evenodd;clip-rule:evenodd;fill:#86E8FF;" d="M31.85-5.8L31.2-5.5v0.05h2.5l-0.6-0.2
			C32.634-5.85,32.217-5.9,31.85-5.8z"/>
		
			<linearGradient id="SVGID_6_" gradientUnits="userSpaceOnUse" x1="-1300.9736" y1="-1592.7744" x2="-1278.9095" y2="-1592.7744" gradientTransform="matrix(0.984 -0.178 0.178 0.984 1584.209 1321.2285)">
			<stop  offset="0" style="stop-color:#6F66AE"/>
			<stop  offset="0.1765" style="stop-color:#7E7AC1"/>
			<stop  offset="0.5216" style="stop-color:#969BE2"/>
			<stop  offset="0.8078" style="stop-color:#A6AFF6"/>
			<stop  offset="1" style="stop-color:#ABB6FD"/>
		</linearGradient>
		<path style="fill-rule:evenodd;clip-rule:evenodd;fill:url(#SVGID_6_);" d="M23.5-11.7c1.434,0.534,2.934,0.6,4.5,0.2
			c1.467-0.4,3.533-1.35,6.2-2.85c3.467-1.966,6.184-3.117,8.15-3.45c-1.767-0.7-3.833-1.284-6.2-1.75c-4.7-1-8.483-1.034-11.35-0.1
			c-3.1,1.033-4.567,2.483-4.4,4.35C20.533-13.667,21.567-12.467,23.5-11.7z"/>
		<path style="fill-rule:evenodd;clip-rule:evenodd;fill:#605A98;" d="M23.5-11.7c0-0.033,0.583-0.083,1.75-0.15
			c1.367-0.066,2.567-0.483,3.6-1.25c1.133-0.833,2.383-1.617,3.75-2.35c-2.833,1.367-4.567,2.117-5.2,2.25
			c-0.634,0.167-1.367,0.3-2.2,0.4l-1.05,0.1l1.25-0.65c0.933-0.6,1.683-1.333,2.25-2.2l0.5-0.85c0.633-1.267,2.433-2,5.4-2.2
			c2.733-0.2,5.667,0.067,8.8,0.8c-1.767-0.7-3.833-1.284-6.2-1.75c-4.7-1-8.483-1.034-11.35-0.1c-3.1,1.033-4.567,2.483-4.4,4.35
			C20.533-13.667,21.567-12.467,23.5-11.7z"/>
		<path style="fill-rule:evenodd;clip-rule:evenodd;fill:#577ED3;" d="M32.9-13.6c-0.233-0.367-0.067-0.7,0.5-1
			c0.267-0.133,1.1-0.367,2.5-0.7l0.35-0.1l3.25-1.5c-0.066,0-1.05,0.15-2.95,0.45c-1.633,0.333-3.05,0.884-4.25,1.65
			c-0.534,0.333-0.683,0.767-0.45,1.3c0.1,0.167,0.217,0.267,0.35,0.3L32.9-13.6z"/>
		<path style="fill-rule:evenodd;clip-rule:evenodd;fill:#577ED3;" d="M33.95-17.35c1-0.233,2.3-0.133,3.9,0.3l2.5-0.4
			c-0.4-0.2-1.35-0.383-2.85-0.55c-1.366-0.233-2.6-0.233-3.7,0c-0.9,0.133-1.45,0.233-1.65,0.3c-0.7,0.167-1.217,0.417-1.55,0.75
			c-0.233,0.233-0.283,0.467-0.15,0.7c0.1,0.133,0.25,0.2,0.45,0.2c0.133,0,0.3-0.017,0.5-0.05c0.467-0.033,1.4-0.2,2.8-0.5
			c0.233-0.033,0.617-0.066,1.15-0.1l1.75-0.25l-1.9,0.1c-1.833,0.3-2.767,0.333-2.8,0.1C32.367-16.95,32.884-17.15,33.95-17.35z"/>
		<path style="fill-rule:evenodd;clip-rule:evenodd;fill:#577ED3;" d="M29-12.45c-0.333,0.2-0.383,0.434-0.15,0.7l0.45-0.15
			c0-0.2,0.1-0.333,0.3-0.4c0.367-0.134,0.65-0.167,0.85-0.1l0.7-0.3c-0.1-0.167-0.233-0.283-0.4-0.35l-0.8,0.2
			C29.417-12.684,29.1-12.55,29-12.45z"/>
		<path style="fill-rule:evenodd;clip-rule:evenodd;fill:#577ED3;" d="M28.4-15.55c0.366-0.034,0.566-0.05,0.6-0.05
			c0.2,0,0.317,0.133,0.35,0.4c0.133,0.367,0,0.583-0.4,0.65L28.8-14.5c-0.4,0.1-0.683-0.033-0.85-0.4
			C27.783-15.233,27.934-15.45,28.4-15.55z M27.65-15.55c-0.167,0.267-0.2,0.616-0.1,1.05c0.033,0.3,0.133,0.467,0.3,0.5
			c0.3,0.033,0.733-0.083,1.3-0.35l0.35-0.2c0.033-0.134,0.1-0.317,0.2-0.55c0-0.1-0.066-0.283-0.2-0.55
			c-0.167-0.333-0.517-0.467-1.05-0.4C28.083-16.017,27.817-15.85,27.65-15.55z"/>
		<path style="fill-rule:evenodd;clip-rule:evenodd;fill:#86E8FF;" d="M28.4-15.55c-0.467,0.1-0.617,0.316-0.45,0.65
			c0.167,0.367,0.45,0.5,0.85,0.4l0.15-0.05c0.4-0.067,0.533-0.284,0.4-0.65c-0.033-0.267-0.15-0.4-0.35-0.4
			C28.967-15.6,28.767-15.583,28.4-15.55z"/>
		<path style="fill-rule:evenodd;clip-rule:evenodd;fill:#86E8FF;" d="M29.6-12.3c-0.2,0.066-0.3,0.2-0.3,0.4l1.15-0.5
			C30.25-12.467,29.967-12.434,29.6-12.3z"/>
		<path style="fill-rule:evenodd;clip-rule:evenodd;fill:#86E8FF;" d="M32.9-13.6l3.35-1.8l-0.35,0.1
			c-1.4,0.333-2.233,0.566-2.5,0.7C32.833-14.3,32.667-13.967,32.9-13.6z"/>
		<path style="fill-rule:evenodd;clip-rule:evenodd;fill:#86E8FF;" d="M35.2-16.85L38.05-17l-0.2-0.05c-1.6-0.434-2.9-0.534-3.9-0.3
			c-1.066,0.2-1.583,0.4-1.55,0.6C32.434-16.517,33.367-16.55,35.2-16.85z"/>
		
			<linearGradient id="SVGID_7_" gradientUnits="userSpaceOnUse" x1="1575.8032" y1="-17618.1836" x2="1589.5975" y2="-17618.1836" gradientTransform="matrix(-0.1776 -0.9841 0.9841 -0.1776 17643.7031 -1593.562)">
			<stop  offset="0" style="stop-color:#6F66AE"/>
			<stop  offset="0.1765" style="stop-color:#7E7AC1"/>
			<stop  offset="0.5216" style="stop-color:#969BE2"/>
			<stop  offset="0.8078" style="stop-color:#A6AFF6"/>
			<stop  offset="1" style="stop-color:#ABB6FD"/>
		</linearGradient>
		<path style="fill-rule:evenodd;clip-rule:evenodd;fill:url(#SVGID_7_);" d="M16.95-17.95c-0.2,0.967-0.083,1.75,0.35,2.35
			c0.533,0.7,1.6,1.35,3.2,1.95c2,0.767,3.55,0.733,4.65-0.1c2.4-1.8,4.283-4.65,5.65-8.55c0.667-1.967,1.1-3.75,1.3-5.35l-3.75,1.3
			c-3.867,1.367-6.966,3.05-9.3,5.05C17.884-20.333,17.184-19.217,16.95-17.95z"/>
		<path style="fill-rule:evenodd;clip-rule:evenodd;fill:#605A98;" d="M20.85-21.75c3.943-2.639,7.535-4.548,10.775-5.725
			L28.35-26.35c-3.867,1.367-6.966,3.05-9.3,5.05c-1.733,1.466-2.433,3.05-2.1,4.75C16.884-18.283,18.184-20.017,20.85-21.75z"/>
		<path style="fill-rule:evenodd;clip-rule:evenodd;fill:#605A98;" d="M20.95-14l-0.6,0.3l1.1,0.4c0.833-0.567,1.45-1.284,1.85-2.15
			c0.533-1.2,0.833-2.116,0.9-2.75C22.7-15.767,21.617-14.367,20.95-14z"/>
		<path style="fill-rule:evenodd;clip-rule:evenodd;fill:#577ED3;" d="M29.6-20.15l-0.35,0.05c-0.133-0.233-0.1-0.55,0.1-0.95
			c0.1-0.233,0.25-0.534,0.45-0.9c0.233-0.8,0.533-1.216,0.9-1.25l0.2,0.6l0.8-3.15c-0.667-0.066-1.467,0.684-2.4,2.25
			C28.434-22,28-20.883,28-20.15s0.5,1.033,1.5,0.9c0.1-0.233,0.25-0.566,0.45-1L29.6-20.15z"/>
		<path style="fill-rule:evenodd;clip-rule:evenodd;fill:#577ED3;" d="M27-24.65c-0.767,0.367-1.7,1.066-2.8,2.1
			c-1.1,1.066-1.633,1.783-1.6,2.15c0.034,0.4,0.4,0.6,1.1,0.6s1.4-0.2,2.1-0.6c0.767-0.467,1.95-2.217,3.55-5.25L27-24.65z
			 M26.9-22.7c-0.134,0.233-0.25,0.434-0.35,0.6l-1,1c-0.5,0.233-0.85,0.317-1.05,0.25c-0.5-0.133-0.467-0.533,0.1-1.2
			c0.733-0.867,1.517-1.3,2.35-1.3C27.05-23.117,27.033-22.9,26.9-22.7z"/>
		<path style="fill-rule:evenodd;clip-rule:evenodd;fill:#577ED3;" d="M26.45-15.75c-0.1-0.033-0.167-0.167-0.2-0.4
			c-0.066-0.233-0.066-0.4,0-0.5c0.067-0.167,0.333-0.3,0.8-0.4c0.233,0.733,0.133,1.167-0.3,1.3H26.45z M26.4-15l0.45-0.25
			l0.05-0.1c0.433-0.4,0.667-0.983,0.7-1.75c0-0.733-0.183-1.167-0.55-1.3c-0.367-0.1-0.7,0.1-1,0.6
			c-0.133,0.3-0.367,0.883-0.7,1.75c-0.2,0.533-0.15,0.883,0.15,1.05C25.733-14.9,26.033-14.9,26.4-15z"/>
		<path style="fill-rule:evenodd;clip-rule:evenodd;fill:#577ED3;" d="M21.4-18.6c0.2-0.1,0.45-0.083,0.75,0.05
			c0.2,0.066,0.35,0.283,0.45,0.65l-0.55,0.25c-0.367,0.1-0.633,0.017-0.8-0.25C21.017-18.267,21.067-18.5,21.4-18.6z M23.25-17.6
			c0.033-0.333-0.033-0.733-0.2-1.2c0.067-0.2-0.15-0.4-0.65-0.6c-0.467-0.233-0.934-0.333-1.4-0.3c-0.5,0.067-0.7,0.567-0.6,1.5
			c0.066,0.967,0.45,1.467,1.15,1.5C22.65-16.667,23.217-16.967,23.25-17.6z"/>
		<path style="fill-rule:evenodd;clip-rule:evenodd;fill:#86E8FF;" d="M21.25-17.9c0.167,0.267,0.434,0.35,0.8,0.25l0.55-0.25
			c-0.1-0.367-0.25-0.583-0.45-0.65c-0.3-0.134-0.55-0.15-0.75-0.05C21.067-18.5,21.017-18.267,21.25-17.9z"/>
		<path style="fill-rule:evenodd;clip-rule:evenodd;fill:#86E8FF;" d="M27.05-17.05c-0.467,0.1-0.733,0.233-0.8,0.4
			c-0.066,0.1-0.066,0.267,0,0.5c0.033,0.233,0.1,0.367,0.2,0.4h0.3C27.184-15.883,27.283-16.316,27.05-17.05z"/>
		<path style="fill-rule:evenodd;clip-rule:evenodd;fill:#86E8FF;" d="M24.6-22.05c-0.567,0.667-0.6,1.066-0.1,1.2
			c0.2,0.067,0.55-0.017,1.05-0.25l1-1c0.1-0.167,0.216-0.367,0.35-0.6c0.133-0.2,0.15-0.417,0.05-0.65
			C26.117-23.35,25.333-22.917,24.6-22.05z"/>
		<path style="fill-rule:evenodd;clip-rule:evenodd;fill:#86E8FF;" d="M29.25-20.1l0.35-0.05l0.35-0.1
			c0.333-0.667,0.65-1.45,0.95-2.35l-0.2-0.6c-0.367,0.034-0.667,0.45-0.9,1.25c-0.2,0.367-0.35,0.667-0.45,0.9
			C29.15-20.65,29.117-20.333,29.25-20.1z"/>
		<path style="fill-rule:evenodd;clip-rule:evenodd;fill:#343157;" d="M16.75-15.125c0.244-0.428,0.277-1.286,0.1-2.575
			c0,0.333-0.133,0.817-0.4,1.45C16.306-15.937,16.405-15.562,16.75-15.125c-0.079,0.135-0.179,0.227-0.3,0.275
			c-0.3,0.1-0.717,0.05-1.25-0.15l-0.65-0.3l1.4,1.4c-0.267-0.1-0.617-0.083-1.05,0.05C13.967-13.583,13-12.9,12-11.8l1.25-0.65
			c0.967-0.4,1.884-0.55,2.75-0.45c1,0.133,1.85,0.466,2.55,1c0.633,0.533,0.933,1.066,0.9,1.6c-0.033,0.433,0,0.8,0.1,1.1l0.1,0.35
			l0.45,0.1c0.3,0.1,0.55,0.267,0.75,0.5l0.4,0.5l-0.95-2.7l1.25,1.05c-0.267-0.267-0.534-0.55-0.8-0.85
			c-0.533-0.6-0.85-1.05-0.95-1.35l-0.25-0.7l0.75-0.3c0.533-0.2,0.966-0.3,1.3-0.3l1.9-0.1l-2.05-0.3l0.45-0.95
			c-1.267,0.5-2.217,0.717-2.85,0.65c-0.5-0.066-1.1-0.4-1.8-1C17.047-14.785,16.881-14.959,16.75-15.125z"/>
		<path style="fill-rule:evenodd;clip-rule:evenodd;fill:#DFDF6D;" d="M20.5-10.85l0.35,0.05h0.05c0.066,0.233,0.167,0.45,0.3,0.65
			c-0.517,0.226-0.875,0.451-1.075,0.675C20.539-9.965,20.664-10.423,20.5-10.85z M18.1-11.6l0.2,0.15l0.95-0.5v0.1l0.05,0.1
			l-0.95,0.45L18.1-11.6z M19.85-8c-0.167-0.167-0.367-0.184-0.6-0.05L18.7-7.7c0.3-0.6,0.333-1.2,0.1-1.8l-0.05-0.1
			c0.3,0.167,0.583,0.184,0.85,0.05l0.3,0.1c-0.333,0.134-0.5,0.333-0.5,0.6c0,0.133,0.05,0.284,0.15,0.45
			c0.1,0.2,0.216,0.316,0.35,0.35L19.85-8z M17.05-12.15h-0.2c-0.12-0.33-0.303-0.496-0.55-0.5l0.45-0.05v0.15
			C16.75-12.417,16.85-12.283,17.05-12.15z M15.65-9.85c0.1,0.233,0.333,0.417,0.7,0.55l0.05,0.45c0.1,0.567,0.267,0.967,0.5,1.2
			c0.1,0.1,0.3,0.15,0.6,0.15c0.267,0,0.45,0.033,0.55,0.1l0.5-0.15c-0.034,0.2,0.133,0.366,0.5,0.5c0.4,0.1,0.667,0.066,0.8-0.1
			c0.233-0.233,0.233-0.5,0-0.8c0.433-0.2,0.667-0.433,0.7-0.7c0.033,0.167,0.15,0.283,0.35,0.35c0.2,0.1,0.366,0.133,0.5,0.1
			c0.267-0.033,0.467-0.167,0.6-0.4c0.167-0.233,0.217-0.5,0.15-0.8l-0.1-0.3h0.45l-0.2-0.15c0.433-0.167,0.683-0.533,0.75-1.1
			c0.033-0.6-0.167-0.933-0.6-1c-0.1-0.3-0.283-0.583-0.55-0.85c-0.3-0.233-0.567-0.35-0.8-0.35c-0.4-0.067-0.867,0.083-1.4,0.45
			v-0.2L19.65-13l0.9-0.25l0.15-0.1c-0.133-0.7-0.55-0.8-1.25-0.3l-0.15,0.1c-0.267-0.134-0.483-0.2-0.65-0.2l-0.6,0.1L17.9-13.9
			c-0.233-0.3-0.55-0.367-0.95-0.2c-0.733,0.3-1.083,0.6-1.05,0.9c0,0.134,0.116,0.317,0.35,0.55H16.2
			c-0.167,0.033-0.333,0.117-0.5,0.25c-0.2,0.167-0.283,0.333-0.25,0.5c0,0.3,0.15,0.533,0.45,0.7
			C15.467-10.7,15.384-10.25,15.65-9.85z"/>
		<path style="fill-rule:evenodd;clip-rule:evenodd;fill:#B6A648;" d="M20.25-11.25c-0.333,0.066-0.4-0.033-0.2-0.3
			c0.2-0.267,0.35-0.233,0.45,0.1L20.25-11.25c0.333-0.133,0.617-0.167,0.85-0.1c-0.3-0.433-0.617-0.683-0.95-0.75l-0.35-0.65
			l-0.1,0.05v-0.2L19.65-13l-0.15-0.2c-0.1-0.1-0.2-0.15-0.3-0.15c-0.1,0.034-0.2,0.067-0.3,0.1c-0.167,0.033-0.367,0.017-0.6-0.05
			c-0.333-0.1-0.534-0.15-0.6-0.15h-0.2l0.2,0.35L16.9-13l-0.35,0.1c-0.034-0.1,0.017-0.217,0.15-0.35
			c-0.233,0.1-0.434,0.233-0.6,0.4l0.15,0.2l0.5-0.05v0.1l0.35,0.05c0,0.033-0.067,0.116-0.2,0.25l0.15,0.15h-0.2l-0.05-0.1
			l-1.3,0.6l0.4,0.45c-0.2,0.267-0.317,0.5-0.35,0.7c0.367-0.3,0.7-0.45,1-0.45c-0.1-0.366-0.133-0.583-0.1-0.65
			c0.133-0.233,0.367-0.283,0.7-0.15c-0.134-0.2,0.017-0.417,0.45-0.65c0.467-0.267,0.75-0.333,0.85-0.2c-0.066-0.1-0.066-0.2,0-0.3
			c0.033-0.1,0.117-0.133,0.25-0.1s0.267,0.2,0.4,0.5c0.167-0.066,0.267-0.05,0.3,0.05l0.1,0.25l0.575,0.525
			c-0.167-0.142-0.492-0.101-0.975,0.125c-0.367,0.167-0.667,0.35-0.9,0.55c0.4-0.1,0.717-0.117,0.95-0.05
			c0.221,0.063,0.471,0.246,0.75,0.55l0.45,0.3c-0.1-0.2-0.117-0.35-0.05-0.45l0.25-0.1l-0.05-0.1l0.35,0.05h0.05l0.05,0.1l0.1,0.1
			c0.267,0.133,0.433,0.317,0.5,0.55s-0.034,0.417-0.3,0.55c0,0.033,0.117,0.117,0.35,0.25c0.1,0.167,0.183,0.45,0.25,0.85
			c0.3-0.3,0.4-0.633,0.3-1l-0.1-0.3h0.45l-0.2-0.15c0.233-0.1,0.433-0.316,0.6-0.65l-0.2-0.15l-0.35,0.3
			c-0.167,0-0.283-0.117-0.35-0.35l0.3-0.2l-0.15-0.05c-0.233-0.066-0.317,0.05-0.25,0.35c0.133,0.4,0.2,0.667,0.2,0.8
			c-0.233-0.567-0.483-0.95-0.75-1.15c-0.461-0.308-0.919-0.366-1.375-0.175L20.25-11.25z"/>
		<path style="fill-rule:evenodd;clip-rule:evenodd;fill:#7B6F2E;" d="M15.5-11.65l1.3-0.6c-0.034-0.133-0.117-0.233-0.25-0.3
			l-0.35-0.1c-0.566,0.066-0.816,0.316-0.75,0.75L15.5-11.65z"/>
		<path style="fill-rule:evenodd;clip-rule:evenodd;fill:#7B6F2E;" d="M20.25-11.25l-0.275,0.125
			c0.456-0.191,0.914-0.133,1.375,0.175c0.267,0.2,0.517,0.583,0.75,1.15c0-0.134-0.067-0.4-0.2-0.8
			c-0.067-0.3,0.017-0.417,0.25-0.35l0.15,0.05c0.3-0.133,0.466-0.083,0.5,0.15l-0.1,0.1l0.2,0.15c0.133-0.3,0.167-0.6,0.1-0.9
			c-0.066-0.333-0.25-0.517-0.55-0.55c-0.1-0.3-0.283-0.583-0.55-0.85c-0.3-0.233-0.567-0.35-0.8-0.35
			c-0.433-0.067-0.867,0.066-1.3,0.4l0.35,0.65c0.333,0.067,0.65,0.317,0.95,0.75C20.867-11.417,20.583-11.383,20.25-11.25z"/>
		<path style="fill-rule:evenodd;clip-rule:evenodd;fill:#7B6F2E;" d="M17.9-13.9c-0.233-0.3-0.55-0.367-0.95-0.2
			c-0.733,0.3-1.083,0.6-1.05,0.9c0,0.1,0.066,0.217,0.2,0.35c0.167-0.167,0.367-0.3,0.6-0.4l0.45-0.2
			c0.167-0.066,0.283-0.066,0.35,0h0.2c0.066,0,0.267,0.05,0.6,0.15c0.233,0.066,0.433,0.083,0.6,0.05c0.1-0.033,0.2-0.066,0.3-0.1
			c0.1,0,0.2,0.05,0.3,0.15l0.15,0.2l0.9-0.25l0.15-0.1c-0.133-0.7-0.55-0.8-1.25-0.3l-0.15,0.1c-0.267-0.134-0.483-0.2-0.65-0.2
			l-0.6,0.1L17.9-13.9z"/>
		<path style="fill-rule:evenodd;clip-rule:evenodd;fill:#6A6E32;" d="M16.9-12.3c0.133-0.134,0.2-0.217,0.2-0.25l-0.35-0.05v0.05
			C16.75-12.483,16.8-12.4,16.9-12.3z"/>
		<path style="fill-rule:evenodd;clip-rule:evenodd;fill:#FBFEC4;" d="M16.9-7.65c0.1,0.1,0.3,0.15,0.6,0.15
			c0.267,0,0.45,0.033,0.55,0.1l0.45-0.1c-0.133-0.434-0.316-0.717-0.55-0.85c-0.133-0.133-0.316-0.167-0.55-0.1
			c-0.233,0.067-0.417,0.167-0.55,0.3l-0.1,0.2L16.9-7.65z"/>
		<path style="fill-rule:evenodd;clip-rule:evenodd;fill:#FBFEC4;" d="M17.95-10v0.1c0.1,0.1,0.4,0.283,0.9,0.55L18.8-9.5l-0.05-0.1
			c0.3,0.167,0.583,0.184,0.85,0.05l0.4-0.2c-0.2-0.4-0.517-0.617-0.95-0.65c-0.4-0.034-0.784,0.066-1.15,0.3L17.95-10z"/>
		<path style="fill-rule:evenodd;clip-rule:evenodd;fill:#FBFEC4;" d="M16.1-9.7l-0.05,0.25l0.3,0.15v0.15
			c0.267,0.1,0.534,0.083,0.8-0.05l0.95-0.45L17.95-9.9V-10c-0.233-0.267-0.483-0.367-0.75-0.3C16.567-10.167,16.2-9.967,16.1-9.7z"
			/>
		<path style="fill-rule:evenodd;clip-rule:evenodd;fill:#FBFEC4;" d="M16.9-10.9c0,0.133,0.066,0.216,0.2,0.25
			c0.133,0.033,0.233,0.017,0.3-0.05l0.15-0.15c-0.034-0.167-0.133-0.25-0.3-0.25C17.05-11.133,16.934-11.066,16.9-10.9z"/>
		<path style="fill-rule:evenodd;clip-rule:evenodd;fill:#FBFEC4;" d="M18-11.6l0.95-0.45c-0.133-0.3-0.283-0.45-0.45-0.45
			c-0.1,0-0.283,0.066-0.55,0.2c-0.267,0.167-0.434,0.3-0.5,0.4C17.617-11.533,17.8-11.434,18-11.6z"/>
		<path style="fill-rule:evenodd;clip-rule:evenodd;fill:#FBFEC4;" d="M20.45-8.4c-0.267-0.333-0.5-0.417-0.7-0.25L20-8.05
			C20.233-8.15,20.384-8.267,20.45-8.4z"/>
		<path style="fill-rule:evenodd;clip-rule:evenodd;fill:#FBFEC4;" d="M21.25-8.8c-0.333,0-0.517,0.066-0.55,0.2
			c-0.033,0.034-0.017,0.117,0.05,0.25L21-8.25l0.35,0.05h0.05l0.35-0.1C21.55-8.566,21.384-8.733,21.25-8.8z"/>
		<path style="fill-rule:evenodd;clip-rule:evenodd;fill:#FBFEC4;" d="M19.95-7.25c-0.233,0-0.467,0.083-0.7,0.25
			c0.333,0,0.533-0.05,0.6-0.15L19.95-7.25z"/>
		<path style="fill-rule:evenodd;clip-rule:evenodd;fill:#FBFEC4;" d="M21.05-10.1L20.6-9.9c0,0.2,0.034,0.35,0.1,0.45h0.2
			c0.2,0.034,0.3-0.033,0.3-0.2C21.233-9.816,21.184-9.967,21.05-10.1z"/>
		<path style="fill-rule:evenodd;clip-rule:evenodd;fill:#FBFEC4;" d="M19.4-12.45c-0.033-0.1-0.134-0.116-0.3-0.05v0.05
			c0.034,0.134,0.183,0.3,0.45,0.5L19.5-12.2L19.4-12.45z"/>
		<path style="fill-rule:evenodd;clip-rule:evenodd;fill:#FBFEC4;" d="M20.25-11.25l0.25-0.2c-0.1-0.333-0.25-0.366-0.45-0.1
			C19.85-11.283,19.917-11.184,20.25-11.25z"/>
		<path style="fill-rule:evenodd;clip-rule:evenodd;fill:#FBFEC4;" d="M22.35-10.35l0.45-0.4c-0.034-0.233-0.2-0.283-0.5-0.15
			L22-10.7C22.067-10.467,22.184-10.35,22.35-10.35z"/>
		<path style="fill-rule:evenodd;clip-rule:evenodd;fill:#FBFEC4;" d="M17.15-13.45l-0.45,0.2c-0.133,0.133-0.184,0.25-0.15,0.35
			L16.9-13l0.8-0.1l-0.2-0.35C17.434-13.517,17.317-13.517,17.15-13.45z"/>
		<path style="fill-rule:evenodd;clip-rule:evenodd;fill:#667C00;" d="M32.8-30.55c-2.5-0.233-4.6,0.466-6.3,2.1l-1.8,2.5l0.85-0.35
			c0.767-0.233,1.65-0.333,2.65-0.3c0.6,0.034,1.233,0.317,1.9,0.85c1.867,0.066,4.4-0.3,7.6-1.1c1.6-0.4,3.017-0.8,4.25-1.2
			c-0.533-0.333-1.3-0.684-2.3-1.05C37.583-29.833,35.3-30.316,32.8-30.55z"/>
		
			<linearGradient id="SVGID_8_" gradientUnits="userSpaceOnUse" x1="14696.5137" y1="-17623.0234" x2="14703.9824" y2="-17623.0234" gradientTransform="matrix(-0.9841 -0.1774 0.1774 -0.9841 17631.8984 -14761.4365)">
			<stop  offset="0" style="stop-color:#617220"/>
			<stop  offset="1" style="stop-color:#869D2E"/>
		</linearGradient>
		<path style="fill-rule:evenodd;clip-rule:evenodd;fill:url(#SVGID_8_);" d="M31.75-24.85c1.733,0.934,3.35,1.434,4.85,1.5
			c1.733,0.034,3.133-0.233,4.2-0.8c0.667-0.333,1.333-0.9,2-1.7c0.4-0.5,0.317-1.083-0.25-1.75l-0.95-0.8
			c-1.933,0-4.9-0.15-8.9-0.45c-2.533-0.2-4.617,0.233-6.25,1.3l-1.75,1.6l0.85-0.2c0.767-0.133,1.633-0.184,2.6-0.15
			C28.817-26.3,30.017-25.816,31.75-24.85z"/>
		<path style="fill-rule:evenodd;clip-rule:evenodd;fill:#5E7200;" d="M40.5-23.95c0.4-0.233,0.717-0.466,0.95-0.7l0.85-1.15
			c-0.367-0.3-0.784-0.817-1.25-1.55c-0.433-0.767-0.717-1.233-0.85-1.4c-0.133-0.267-0.533-0.517-1.2-0.75
			c-0.6-0.233-1.783-0.583-3.55-1.05c-1.434-0.367-2.95-0.384-4.55-0.05l-2,0.65l1.45-0.25c1.267-0.1,2.617,0.034,4.05,0.4
			c1.533,0.4,2.967,1.116,4.3,2.15c1.1,0.833,1.717,1.483,1.85,1.95c0.067,0.367-0.05,0.7-0.35,1c-0.367,0.333-0.917,0.534-1.65,0.6
			c-0.667,0.067-1.667-0.117-3-0.55l-1.8-0.65l1.15,0.65c0.933,0.466,1.883,0.8,2.85,1C38.717-23.45,39.634-23.55,40.5-23.95z"/>
		<path style="fill-rule:evenodd;clip-rule:evenodd;fill:#485700;" d="M40.8-24.55c1.233-0.134,1.9-0.284,2-0.45l1.3-1.65
			c-0.1-0.467-0.567-1.034-1.4-1.7c-1.167-0.933-2.6-1.566-4.3-1.9c-1.634-0.3-3.567-0.383-5.8-0.25l-2.85,0.35h4.75
			c1.967,0.033,3.7,0.517,5.2,1.45c0.733,0.5,1.267,0.983,1.6,1.45l-0.2,1.45c-0.067,0.6-0.45,1.017-1.15,1.25l-1,0.15L40.8-24.55z"
			/>
		<path style="fill-rule:evenodd;clip-rule:evenodd;fill:#9DB800;" d="M31.75-26.3l1.05,0.25c-0.567-0.567-1.35-1.1-2.35-1.6
			c-0.833-0.434-1.417-0.55-1.75-0.35c-0.367,0.2-0.3,0.434,0.2,0.7c0.366,0.167,0.733,0.283,1.1,0.35
			C30.4-26.85,30.983-26.633,31.75-26.3z"/>
		<path style="fill-rule:evenodd;clip-rule:evenodd;fill:#9DB800;" d="M34.3-25.65l1.4,0.05c-0.633-0.7-1.133-1.216-1.5-1.55
			c-0.7-0.6-1.333-0.833-1.9-0.7c-0.1,0.534,0.083,1,0.55,1.4C33.45-25.85,33.934-25.583,34.3-25.65z"/>
		<path style="fill-rule:evenodd;clip-rule:evenodd;fill:#9DB800;" d="M36.75-25.3l0.35-0.5c-0.133-0.067-0.466-0.417-1-1.05
			c-0.4-0.466-0.817-0.65-1.25-0.55c0.034,0.233,0.167,0.45,0.4,0.65c0.134,0.133,0.333,0.316,0.6,0.55c0.1,0.1,0.233,0.267,0.4,0.5
			C36.384-25.5,36.55-25.367,36.75-25.3z"/>
		<path style="fill-rule:evenodd;clip-rule:evenodd;fill:#9DB800;" d="M38.2-25.75l1.05,0.25c0-0.133-0.083-0.283-0.25-0.45
			c-0.233-0.167-0.383-0.283-0.45-0.35c-0.333-0.4-0.617-0.717-0.85-0.95c-0.434-0.4-0.8-0.566-1.1-0.5
			c-0.133,0.4,0.017,0.833,0.45,1.3C37.45-25.983,37.833-25.75,38.2-25.75z"/>
	</g>
</symbol>
<use xlink:href="#silvertongue2"  width="51.791" height="31.026" y="-31.026" transform="matrix(0.8 0 0 -0.8 15.3501 23.2002)" style="overflow:visible;"/>
</svg>
