<?xml version="1.0" encoding="iso-8859-1"?>
<!-- Generator: Adobe Illustrator 15.1.0, SVG Export Plug-In . SVG Version: 6.00 Build 0)  -->
<!DOCTYPE svg PUBLIC "-//W3C//DTD SVG 1.1//EN" "http://www.w3.org/Graphics/SVG/1.1/DTD/svg11.dtd">
<svg version="1.1" id="flash0.ai" xmlns="http://www.w3.org/2000/svg" xmlns:xlink="http://www.w3.org/1999/xlink" x="0px" y="0px"
	 width="47.75px" height="34.65px" viewBox="0 0 47.75 34.65" style="enable-background:new 0 0 47.75 34.65;" xml:space="preserve"
	>
<path style="fill-rule:evenodd;clip-rule:evenodd;fill:#A3A3A3;" d="M33.55,12.95l-0.6,4.6c-1.533,0.5-3.517,0.95-5.95,1.351
	c-4.8,0.767-9.333,0.85-13.6,0.25c-4.233-0.567-7.566-1.184-10-1.851c-1.2-0.333-1.983-0.617-2.35-0.85v-4.6
	c0.633-0.6,1.733-1.217,3.3-1.85c3.167-1.233,7.066-1.85,11.7-1.85c6.767,0,11.717,0.8,14.851,2.4
	C32.467,11.35,33.35,12.15,33.55,12.95z"/>
<linearGradient id="SVGID_1_" gradientUnits="userSpaceOnUse" x1="1.3501" y1="25.1504" x2="32.5996" y2="25.1504">
	<stop  offset="0" style="stop-color:#D9D9D9"/>
	<stop  offset="0.3216" style="stop-color:#EDEDED"/>
	<stop  offset="1" style="stop-color:#B0B0B0"/>
</linearGradient>
<path style="fill-rule:evenodd;clip-rule:evenodd;fill:url(#SVGID_1_);" d="M1.35,15.65l15.6,1.5l15.649-1.5l-3.8,15.1h-0.05
	c-0.134,0.934-1.333,1.8-3.6,2.6c-2.434,0.867-5.167,1.301-8.2,1.301c-3.133,0-5.934-0.434-8.4-1.301
	c-2.333-0.866-3.5-1.767-3.5-2.699V30.6L1.35,15.65z"/>
<path style="fill-rule:evenodd;clip-rule:evenodd;fill:#8A8A8A;" d="M31,21.8c-0.134,0.267-0.583,0.533-1.35,0.8
	c-1.567,0.601-3.917,1-7.05,1.2c-5.733,0.367-10.783,0.033-15.15-1c-2.167-0.5-3.767-1.05-4.8-1.649L2.45,20.6L2,18.2l0.15-3.25
	L31.3,19.85L31,21.8z"/>
<path style="fill-rule:evenodd;clip-rule:evenodd;fill:#FFFFFF;" d="M32.3,12.35c-0.033-1.1-1.55-2.033-4.55-2.8
	c-2.967-0.767-6.533-1.15-10.7-1.15c-4.167,0-7.733,0.383-10.7,1.15c-2.967,0.767-4.483,1.7-4.55,2.8H0.05
	c0.434-1.2,2.25-2.217,5.45-3.05c3.233-0.833,7.033-1.25,11.4-1.25s8.167,0.417,11.4,1.25c3.2,0.833,5.017,1.85,5.45,3.05H32.3z"/>
<path style="fill-rule:evenodd;clip-rule:evenodd;fill:#547526;" d="M16.25,4.85c0.167,0.9-0.2,1.767-1.1,2.6
	c1.467-1.2,1.934-1.284,1.4-0.25c-0.267,0.533-0.566,1.117-0.9,1.75C15.35,9.383,14.8,9.667,14,9.8c-1.467-1.233-2.2-2.117-2.2-2.65
	c0-0.333,0.35-0.45,1.05-0.35c0.333,0.067,0.667,0.15,1,0.25c-0.467-0.267-0.917-0.566-1.35-0.9c-0.867-0.667-1.183-1.133-0.95-1.4
	c0.4-0.433,0.934-0.417,1.6,0.05c-0.333-0.267-0.65-0.566-0.95-0.9c-0.567-0.633-0.733-1.083-0.5-1.35c0.4-0.4,0.95-0.267,1.65,0.4
	c-0.233-0.367-0.467-0.767-0.7-1.2c-0.433-0.833-0.55-1.333-0.35-1.5c0.534-0.5,0.983-0.3,1.35,0.6
	c0.167,0.467,0.283,0.967,0.35,1.5l0.4-0.95c0.333-0.566,0.6-0.717,0.8-0.45c0.333,0.433,0.133,1.267-0.6,2.5
	c0.9-1.1,1.4-1.367,1.5-0.8c0.08,0.482-0.136,1.124-0.65,1.925C15.881,4.065,16.147,4.157,16.25,4.85z"/>
<radialGradient id="SVGID_2_" cx="9.9985" cy="-11.8667" r="17.2463" gradientTransform="matrix(0.309 0.9511 0.9511 -0.309 22.5715 -7.3343)" gradientUnits="userSpaceOnUse">
	<stop  offset="0" style="stop-color:#F6FCCC"/>
	<stop  offset="1" style="stop-color:#87BB44"/>
</radialGradient>
<path style="fill-rule:evenodd;clip-rule:evenodd;fill:url(#SVGID_2_);" d="M24.15,4.3C24.55,4.5,25.1,4.75,25.8,5.05
	c1.134,0.633,1.75,1.067,1.851,1.3c0.066,0.133,0.149,0.6,0.25,1.4c0.166,0.767,0.399,1.2,0.699,1.3c0.4,0.167,0.65,0.3,0.75,0.4
	c0.134,0.133,0.317,0.417,0.551,0.85c0.066,0.167,0.183,0.567,0.35,1.2c0.1,0.367,0.25,0.6,0.45,0.7
	c0.267,0.167,0.517,0.433,0.75,0.8c0.267,0.367,0.399,0.717,0.399,1.05c0,0.633-1.483,1.684-4.449,3.15
	c-3.5,1.666-6.917,2.399-10.25,2.2C7.917,18.733,3,17.183,2.4,14.75c-0.133-0.4-0.133-0.867,0-1.4c0.167-0.533,0.283-0.95,0.35-1.25
	c0.067-0.3,0.317-0.583,0.75-0.85c0.4-0.233,0.583-0.45,0.55-0.65C3.917,10,4.183,9.4,4.85,8.8c0.233-0.267,0.6-0.6,1.1-1
	c0.566-0.466,1-0.75,1.3-0.85c0.2-0.1,0.6-0.167,1.2-0.2c0.633-0.033,1.183-0.133,1.65-0.3c0.5-0.133,0.917-0.35,1.25-0.65
	c0.433-0.333,0.767-0.55,1-0.65c0.3-0.167,0.683-0.25,1.15-0.25s0.833-0.083,1.1-0.25c0.2-0.133,0.383-0.367,0.55-0.7
	C15.283,3.717,15.567,3.567,16,3.5c0.533-0.1,1.35-0.383,2.45-0.85c0.633-0.3,1.3-0.417,2-0.35c0.8,0.067,1.466,0.35,2,0.85
	C22.917,3.583,23.483,3.967,24.15,4.3z"/>
<radialGradient id="SVGID_3_" cx="10.855" cy="-11.5571" r="16.8611" gradientTransform="matrix(0.3091 0.951 0.951 -0.3091 21.9819 -7.1447)" gradientUnits="userSpaceOnUse">
	<stop  offset="0" style="stop-color:#D3DB97"/>
	<stop  offset="1" style="stop-color:#75B327"/>
</radialGradient>
<path style="fill-rule:evenodd;clip-rule:evenodd;fill:url(#SVGID_3_);" d="M27.65,11.1c0.199-0.267,0.383-0.633,0.55-1.1
	c0.1-0.333,0.217-0.5,0.35-0.5c0.066,0.033,0.217,0.05,0.45,0.05c0.1,0,0.134,0.05,0.1,0.15c-0.033,0.1-0.149,0.333-0.35,0.7
	c-0.167,0.333-0.233,0.55-0.2,0.65c0.066,0.367,0.25,0.567,0.55,0.6c0.134,0.033,0.351,0,0.65-0.1c0.167-0.033,0.05,0.117-0.35,0.45
	c-0.834,0.733-0.917,1.167-0.25,1.3c0.199,0.067,0.316,0,0.35-0.2c0.066-0.233,0.134-0.367,0.2-0.4
	c0.133-0.034,0.25-0.083,0.35-0.15c0.066,0,0.15,0.083,0.25,0.25l0.3,0.8c0.034,0.066,0.067,0.033,0.101-0.1l0.1,0.5
	c0.101,0.367,0.417,0.717,0.95,1.05c0.233,0.367-0.217,0.95-1.35,1.75c-1.267,0.9-5.117,1.667-11.55,2.3
	c-6.167,0.634-9.9,0.75-11.2,0.351c-1-0.3-2.083-0.851-3.25-1.65c-1.066-0.733-1.617-1.216-1.65-1.45c-0.1-0.467-0.183-0.9-0.25-1.3
	c-0.133-0.733-0.167-1.267-0.1-1.6l0.1-0.85l0.75-0.45l0.1,0.65c0.367,0.467,0.717,0.7,1.05,0.7c0.2,0,0.45-0.2,0.75-0.6
	c0.367-0.467,0.617-0.75,0.75-0.85c0.2-0.133,0.15-0.233-0.15-0.3c-0.467-0.167-0.767-0.333-0.9-0.5
	c-0.267-0.3-0.434-0.517-0.5-0.65c-0.133-0.2-0.117-0.434,0.05-0.7l1.35-1.65L6,9.3c0.1,0.2,0.2,0.483,0.3,0.85
	c0.133,0.3,0.383,0.467,0.75,0.5c0.434,0.033,0.817-0.017,1.15-0.15c0.3-0.1,0.433-0.2,0.4-0.3C8.133,9.667,7.867,9.267,7.8,9
	C7.767,8.867,7.833,8.617,8,8.25L8.2,7.8l0.55,0.7c0,0.133,0.083,0.233,0.25,0.3c0.167,0.034,0.267-0.017,0.3-0.15
	c0.034-0.033,0.05-0.2,0.05-0.5c0-0.167,0.05-0.233,0.15-0.2l0.6,0.35c0.066,0.067,0.25,0.317,0.55,0.75
	c0.367,0.367,0.7,0.45,1,0.25c0.333-0.233,0.517-0.383,0.55-0.45c0-0.067-0.133-0.317-0.4-0.75c-0.233-0.333-0.383-0.55-0.45-0.65
	c-0.067-0.1-0.083-0.317-0.05-0.65c0.034-0.367,0.2-0.733,0.5-1.1c0.133-0.2,0.267-0.367,0.4-0.5l-0.1,0.45
	c-0.033,0.3-0.017,0.55,0.05,0.75c0,0.033,0.05,0.217,0.15,0.55c0,0.1,0.133,0.117,0.4,0.05c0.433-0.067,0.667-0.1,0.7-0.1
	c0.133-0.066,0.2-0.2,0.2-0.4c-0.067-0.233-0.117-0.383-0.15-0.45c-0.034-0.1,0.033-0.216,0.2-0.35c0.167-0.1,0.283-0.217,0.35-0.35
	c0.067-0.1,0.15-0.167,0.25-0.2c0.133-0.033,0.317-0.1,0.55-0.2c0.167-0.1,0.267-0.25,0.3-0.45l0.1-0.55l0.25,0.15
	c0.167,0.1,0.267,0.217,0.3,0.35c0.033,0.066,0.1,0.15,0.2,0.25c0.033,0.033,0,0.15-0.1,0.35c-0.167,0.4-0.25,0.617-0.25,0.65
	c-0.133,0.167-0.317,0.216-0.55,0.15c-0.233-0.033-0.433,0-0.6,0.1c-0.167,0.066-0.267,0.167-0.3,0.3l0.1,0.65
	c-0.133,0.167-0.233,0.317-0.3,0.45C13.783,7.617,13.8,7.733,14,7.7c0.167-0.034,0.267-0.2,0.3-0.5c0.034-0.3,0.117-0.5,0.25-0.6
	c0.167-0.1,0.434-0.25,0.8-0.45c0.3-0.2,0.5-0.45,0.6-0.75c0.2-0.5,0.4-1.066,0.6-1.7l0.85-0.4c-0.2,0.333-0.35,0.733-0.45,1.2
	c-0.067,0.433-0.233,0.85-0.5,1.25c0,0.1,0.083,0.15,0.25,0.15c0.2,0,0.333-0.066,0.4-0.2c0.4-0.467,0.55-0.6,0.45-0.4
	C17.483,5.533,17.3,5.833,17,6.2c-0.1,0.2-0.333,0.417-0.7,0.65c-0.4,0.2-0.683,0.35-0.85,0.45C15.183,7.467,15.033,7.667,15,7.9
	c0,0.1,0.117,0.6,0.35,1.5c0.033,0.167,0.017,0.35-0.05,0.55c-0.033,0.133-0.017,0.216,0.05,0.25c0.367,0.133,0.75,0.033,1.15-0.3
	c0.133-0.1,0.333-0.167,0.6-0.2c0.133-0.034,0.167-0.117,0.1-0.25c-0.067-0.133-0.233-0.367-0.5-0.7
	c-0.267-0.3-0.417-0.483-0.45-0.55l0.05-0.6l0.35,0.05c0.233,0.033,0.367,0.133,0.4,0.3c0.1,0.267,0.317,0.683,0.65,1.25
	c0.066,0.167,0.316,0.367,0.75,0.6c0.5,0.233,0.716,0.417,0.65,0.55c-0.133-0.067-0.55-0.017-1.25,0.15
	c-1.267,0.3-1.934,0.467-2,0.5l-0.15,0.2c-0.034,0.033-0.2,0.066-0.5,0.1c-0.434-0.066-0.733-0.083-0.9-0.05
	c-0.267,0.033-0.517,0.233-0.75,0.6c-0.167,0.3-0.45,0.617-0.85,0.95c-0.2,0.233-0.15,0.417,0.15,0.55
	c0.267,0.133,0.583,0.316,0.95,0.55c0.3,0.1,0.467,0.017,0.5-0.25c0.034-0.2,0-0.467-0.1-0.8c-0.067-0.267-0.067-0.434,0-0.5
	c0.1-0.133,0.167-0.2,0.2-0.2c0.067,0,0.184,0.083,0.35,0.25c0.067,0.067,0.35,0.117,0.85,0.15c0.333,0.034,0.4,0.267,0.2,0.7
	c-0.2,0.433-0.466,0.817-0.8,1.15c-0.333,0.3-0.517,0.5-0.55,0.6c-0.133,0.367-0.2,0.583-0.2,0.65c0,0.233,0.133,0.333,0.4,0.3
	c0.2,0,0.417,0.05,0.65,0.15c0.2,0,0.367-0.167,0.5-0.5c0.1-0.267,0.2-0.684,0.3-1.25c0.1-0.533,0.217-0.9,0.35-1.1
	s0.267-0.4,0.4-0.6c0.066-0.133,0.233-0.217,0.5-0.25c0.433-0.066,0.767-0.033,1,0.1c0.967,0.733,1.45,1.133,1.45,1.2
	c0,0.1-0.133,0.25-0.4,0.45c-0.367-0.367-0.75-0.533-1.15-0.5c-0.5,0.033-0.8,0.067-0.9,0.1c-0.267,0.1-0.467,0.317-0.6,0.65
	c-0.1,0.267-0.25,0.6-0.45,1c-0.133,0.267-0.05,0.417,0.25,0.45c0.469,0.063,0.819,0.096,1.05,0.1
	c0.005-0.047,0.089-0.197,0.25-0.45c0.233-0.333,0.483-0.55,0.75-0.65c0.667-0.267,1.05-0.367,1.15-0.3
	c0.267,0.067,0.083,0.333-0.55,0.8c-0.034,0.033-0.217,0.133-0.55,0.3c-0.133,0.067-0.167,0.2-0.1,0.4
	c0.067,0.267,0.217,0.45,0.45,0.55c0.233,0.133,0.433,0.117,0.6-0.05c0.233-0.233,0.533-0.583,0.9-1.05
	c0.167-0.133,0.567-0.35,1.2-0.65c0.533-0.267,0.95-0.583,1.25-0.95c0.733-0.867,1.133-1.316,1.2-1.35
	c0.399-0.4,0.833-0.583,1.3-0.55c0.366,0.033,0.666,0.2,0.899,0.5c0.167,0.233,0.367,0.25,0.601,0.05
	c0.233-0.167,0.35-0.383,0.35-0.65C27.333,11.6,27.45,11.333,27.65,11.1z"/>
<radialGradient id="SVGID_4_" cx="10.8076" cy="-19.2012" r="7.0837" gradientTransform="matrix(0.3088 0.9511 0.9511 -0.3088 36.5253 -11.859)" gradientUnits="userSpaceOnUse">
	<stop  offset="0" style="stop-color:#BEDB7F"/>
	<stop  offset="1" style="stop-color:#96CF4F"/>
</radialGradient>
<path style="fill-rule:evenodd;clip-rule:evenodd;fill:url(#SVGID_4_);" d="M22.7,3.8c0.133,0.067,0.2,0.067,0.2,0l0.2-0.1
	l0.65,0.45l0.8,0.35C24.283,4.533,24.1,4.617,24,4.75c-0.233,0.333-0.417,0.567-0.55,0.7c-0.633,0.433-0.967,0.7-1,0.8
	c0,0.133,0.066,0.317,0.2,0.55c0.133,0.3,0.283,0.417,0.45,0.35l0.601-0.4c0.166-0.167,0.383-0.2,0.649-0.1l0.351,0.1
	c-0.066,0-0.134,0.017-0.2,0.05c-0.134,0.067-0.184,0.217-0.15,0.45c0,0.167-0.017,0.35-0.05,0.55c0,0.1,0.134,0.167,0.4,0.2
	c0.633,0.033,0.967,0.05,1,0.05c0.066,0,0.133-0.083,0.2-0.25c0.033-0.1,0.183-0.117,0.449-0.05c0.233,0.067,0.45,0.133,0.65,0.2
	c0.1,0.033,0.167,0.1,0.2,0.2c0.033,0.067,0.133,0.133,0.3,0.2c0.134,0.1,0.217,0.2,0.25,0.3c0.033,0.133,0.066,0.317,0.1,0.55
	c0.034,0.167-0.017,0.267-0.149,0.3c-0.134,0.033-0.5-0.067-1.101-0.3c-0.666-0.267-1.017-0.4-1.05-0.4
	c-0.267,0.133-0.616,0.25-1.05,0.35c-1.033,0.3-1.683,0.55-1.95,0.75c-0.833,0.633-1.316,0.983-1.45,1.05
	c-0.167,0.066-0.45,0.05-0.85-0.05c-0.467-0.1-0.767-0.217-0.9-0.35c-0.067-0.066-0.283-0.4-0.65-1
	c-0.3-0.533-0.517-0.816-0.65-0.85c-0.466-0.367-0.7-0.65-0.7-0.85c-0.033-0.2,0.05-0.533,0.25-1c0.066-0.233,0.133-0.417,0.2-0.55
	c0.1-0.233,0.25-0.417,0.45-0.55L19.9,5c0.6-0.2,0.917-0.483,0.95-0.85l0.05-1.6l0.4,0.55c0.167,0.4,0.25,0.85,0.25,1.35
	c0,0.566-0.1,0.933-0.3,1.1c-0.233,0.133-0.383,0.217-0.45,0.25c-0.133,0.067-0.133,0.133,0,0.2c0.133,0.1,0.333,0.133,0.6,0.1
	s0.467-0.117,0.6-0.25S22.233,5.433,22.3,5c0.067-0.4,0.083-0.667,0.05-0.8c0-0.034-0.05-0.167-0.15-0.4
	c-0.067-0.167-0.05-0.233,0.05-0.2C22.283,3.6,22.433,3.667,22.7,3.8z"/>
<radialGradient id="SVGID_5_" cx="9.458" cy="-3.7114" r="5.5065" gradientTransform="matrix(0.3087 0.9512 0.9512 -0.3087 7.0607 -2.2918)" gradientUnits="userSpaceOnUse">
	<stop  offset="0" style="stop-color:#83AB4F"/>
	<stop  offset="1" style="stop-color:#739C40"/>
</radialGradient>
<path style="fill-rule:evenodd;clip-rule:evenodd;fill:url(#SVGID_5_);" d="M4.65,8.95C5.117,8.183,5.633,7.6,6.2,7.2
	c0.367-0.267,0.65-0.417,0.85-0.45C7.217,6.717,7.6,6.683,8.2,6.65C9,6.583,9.683,6.467,10.25,6.3c-0.1,0.1-0.183,0.217-0.25,0.35
	c-0.133,0.2-0.133,0.3,0,0.3c-0.41,0.017-0.993,0.117-1.75,0.3c-1,0.267-1.65,0.567-1.95,0.9C6.167,8.25,6.017,8.4,5.85,8.6
	C5.517,8.967,5.233,9.35,5,9.75c-0.6,1.033-0.75,1.65-0.45,1.85c0.2,0.1,0.65,0.25,1.35,0.45C6.5,12.483,7.067,12.8,7.6,13
	l-0.45,0.8c-1.1-0.333-1.8-0.617-2.1-0.85C4.283,12.317,3.867,11.6,3.8,10.8c-0.033-0.367,0-0.65,0.1-0.85
	C3.933,9.883,4.183,9.55,4.65,8.95z"/>
<linearGradient id="SVGID_6_" gradientUnits="userSpaceOnUse" x1="13.2607" y1="-19.2495" x2="15.7105" y2="-19.2495" gradientTransform="matrix(0.4184 0.9083 -0.9083 0.4184 -3.951192e-004 6.127357e-005)">
	<stop  offset="0" style="stop-color:#FFE000"/>
	<stop  offset="1" style="stop-color:#FFF7B5"/>
</linearGradient>
<path style="fill-rule:evenodd;clip-rule:evenodd;fill:url(#SVGID_6_);" d="M25.4,4.8c0.199,0.333,0.216,0.7,0.05,1.1
	c-0.066,0.167-0.184,0.3-0.351,0.4c-0.166,0.067-0.5,0.15-1,0.25c-0.466,0.1-0.816,0.117-1.05,0.05L22.8,6.45
	c-0.5-0.267-0.867-0.617-1.1-1.05c-0.367-0.533-0.4-1-0.1-1.4c0.167-0.233,0.5-0.433,1-0.6c0.633-0.133,1.167-0.083,1.6,0.15
	C24.866,3.883,25.267,4.3,25.4,4.8z"/>
<radialGradient id="SVGID_7_" cx="8.8877" cy="-9.5747" r="10.7363" gradientTransform="matrix(0.3085 0.9512 0.9512 -0.3085 18.2156 -5.9088)" gradientUnits="userSpaceOnUse">
	<stop  offset="0" style="stop-color:#83AB4F"/>
	<stop  offset="1" style="stop-color:#739C40"/>
</radialGradient>
<path style="fill-rule:evenodd;clip-rule:evenodd;fill:url(#SVGID_7_);" d="M17.5,2.775c-0.193,0.16-0.36,0.352-0.5,0.575
	c-0.167,0.3-0.3,0.617-0.4,0.95c-0.133,0.434-0.233,0.733-0.3,0.9c-0.1,0.3-0.216,0.5-0.35,0.6c-0.233,0.233-0.5,0.483-0.8,0.75
	c-0.333,0.3-0.767,0.617-1.3,0.95c-0.5,0.3-0.817,0.517-0.95,0.65c-0.233,0.367-0.417,0.633-0.55,0.8
	c-0.233,0.3-0.517,0.55-0.85,0.75c-0.567,0.3-1.6,0.667-3.1,1.1l0.15,0.55c0.1,0.4,0.25,0.7,0.45,0.9c0.1,0.133,0.433,0.35,1,0.65
	c0.567,0.3,0.983,0.617,1.25,0.95c0.3,0.4,0.5,0.816,0.6,1.25c0.033,0.133,0.083,0.6,0.15,1.4c0.067,0.7-0.283,1.083-1.05,1.15
	L10.2,17.3c0.533-1.633,0.517-2.7-0.05-3.2c-0.967-0.7-1.633-1.25-2-1.65c-0.233-0.233-0.45-0.5-0.65-0.8L7.3,11.3
	c0.667-0.233,1.167-0.533,1.5-0.9l0.55-0.55l1.45-0.8c0.567-0.267,0.817-0.5,0.75-0.7l-0.4-0.45c1.3-0.233,2.4-0.767,3.3-1.6
	c0.3-0.267,0.6-0.533,0.9-0.8c0.133-0.167,0.183-0.4,0.15-0.7c-0.033-0.3,0.1-0.667,0.4-1.1c0.133-0.233,0.267-0.434,0.4-0.6h0.3
	c0.233-0.033,0.517-0.133,0.85-0.3L17.5,2.775z"/>
<radialGradient id="SVGID_8_" cx="12.4883" cy="-10.1416" r="15.638" gradientTransform="matrix(0.3085 0.9512 0.9512 -0.3085 19.2935 -6.2585)" gradientUnits="userSpaceOnUse">
	<stop  offset="0" style="stop-color:#AFD67C"/>
	<stop  offset="1" style="stop-color:#709C39"/>
</radialGradient>
<path style="fill-rule:evenodd;clip-rule:evenodd;fill:url(#SVGID_8_);" d="M22.7,7.1c0.333-0.467,0.533-0.85,0.6-1.15l1,0.55
	c-0.133,0.1-0.25,0.217-0.35,0.35c-0.2,0.3-0.167,0.633,0.1,1c0.967,1.367,1.233,2.433,0.8,3.2l-0.8,1.2c-0.2,0.5-0.184,1,0.05,1.5
	c0.733,1.7,1.434,2.467,2.101,2.3c0.267-0.066,0.666-0.183,1.2-0.35c0.366-0.2,0.449-0.5,0.25-0.9
	c-0.367-0.566-0.634-0.966-0.801-1.2c-0.233-0.4-0.283-0.783-0.149-1.15c0.066-0.133,0.3-0.467,0.7-1c0.233-0.3,0.25-0.633,0.05-1
	l-0.95-1.4l0.35-0.45l0.7,0.45c0.5,0.434,0.733,0.917,0.7,1.45c0,0.367-0.217,0.85-0.65,1.45c-0.3,0.433-0.316,0.85-0.05,1.25
	c0.233,0.367,0.55,0.733,0.95,1.1c0.267,0.233,0.417,0.467,0.45,0.7c0.033,0.333,0.217,0.517,0.55,0.55
	c0.366,0.034,0.55-0.1,0.55-0.4c0-0.233-0.116-0.65-0.35-1.25l-0.351-0.8l0.301-0.6L30,13.05c0.267,0.434,0.417,0.85,0.45,1.25
	c0.1,0.7,0.066,1.267-0.101,1.7c-0.267,0.7-0.966,1.35-2.1,1.95c-1.333,0.7-4.066,1.149-8.2,1.35c-4.267,0.233-7.667,0.033-10.2-0.6
	c-2.2-0.566-4.217-1.467-6.05-2.7l-2.05-1.7l0.7-2.6L3,12.1l0.25,0.05l-0.65,1.6c-0.1,0.467-0.1,0.783,0,0.95
	c0.4,0.066,0.883-0.3,1.45-1.1c0.867-1.233,1.9-2.083,3.1-2.55c0.6-0.233,0.983-0.45,1.15-0.65c0.167-0.267,0.35-0.533,0.55-0.8
	c0.467-0.533,0.883-0.85,1.25-0.95l1.1,0.15c-0.267,0.1-0.684,0.4-1.25,0.9c-0.2,0.167-0.45,0.483-0.75,0.95
	C9,10.983,8.7,11.233,8.3,11.4c-1.3,0.567-2.033,1.017-2.2,1.35c-0.033,0.067-0.25,0.4-0.65,1c-0.367,0.667-0.434,1.233-0.2,1.7
	c0.3,0.633,0.5,0.966,0.6,1c0.133,0.133,0.467,0.167,1,0.1c1-0.133,1.733-0.767,2.2-1.9c0.133-0.333,0.4-0.683,0.8-1.05
	c0.467-0.434,0.8-0.85,1-1.25l0.6-1.65c0.233-0.633,0.583-1.1,1.05-1.4c0.6-0.433,0.95-0.716,1.05-0.85
	c0.133-0.2,0.117-0.534-0.05-1c-0.133-0.4-0.317-0.733-0.55-1l-0.3-0.25l1-0.2l0.4,0.45c0.3,0.367,0.483,0.733,0.55,1.1
	c0.1,0.4,0.1,0.733,0,1c-0.1,0.2-0.3,0.417-0.6,0.65c-0.4,0.267-0.667,0.45-0.8,0.55c-0.233,0.2-0.383,0.45-0.45,0.75
	c-0.133,0.633-0.467,1.367-1,2.2c-0.133,0.2-0.533,0.667-1.2,1.4c-0.5,0.5-0.75,0.867-0.75,1.1c0,0.2-0.066,0.417-0.2,0.65
	c-0.067,0.2,0.066,0.35,0.4,0.45c0.5,0.167,1.083,0.3,1.75,0.4c0.833,0.133,1.417,0.167,1.75,0.1c0.367-0.1,0.783-0.466,1.25-1.1
	c0.433-0.633,0.667-1.217,0.7-1.75c0.033-0.7,0.1-1.167,0.2-1.4c0.167-0.433,0.6-0.816,1.3-1.15c0.533-0.233,1.083-0.483,1.65-0.75
	c0.333-0.2,0.517-0.566,0.55-1.1C19.183,9.017,19.133,8.467,19,7.9l-0.25-0.75h0.85c0.3,0.233,0.4,0.917,0.3,2.05
	c-0.1,0.767-0.333,1.4-0.7,1.9c-0.233,0.267-0.65,0.6-1.25,1c-0.5,0.333-0.833,0.583-1,0.75c-0.2,0.267-0.317,0.566-0.35,0.9
	c-0.033,0.3-0.184,0.75-0.45,1.35c-0.133,0.3-0.333,0.733-0.6,1.3c-0.133,0.434,0.083,0.8,0.65,1.1c0.633,0.367,1.45,0.467,2.45,0.3
	c0.133-0.033,1.217,0,3.25,0.1c1.067,0.033,1.617-0.367,1.65-1.2c0.033-0.767-0.05-1.583-0.25-2.45
	c-0.166-0.767-0.233-1.283-0.2-1.55c0.034-0.3,0.217-0.684,0.551-1.15c0.366-0.5,0.566-0.9,0.6-1.2c0.033-0.267-0.267-0.833-0.9-1.7
	C22.75,7.85,22.533,7.333,22.7,7.1z"/>
<radialGradient id="SVGID_9_" cx="10.7891" cy="-15.894" r="9.8705" gradientTransform="matrix(0.309 0.9511 0.9511 -0.309 30.2326 -9.8227)" gradientUnits="userSpaceOnUse">
	<stop  offset="0" style="stop-color:#83AB4F"/>
	<stop  offset="1" style="stop-color:#739C40"/>
</radialGradient>
<path style="fill-rule:evenodd;clip-rule:evenodd;fill:url(#SVGID_9_);" d="M20.45,2.15l0.8,0.2l0.1,0.6c0.2,0.8,0.183,1.5-0.05,2.1
	c-0.066,0.2-0.466,0.417-1.2,0.65c-0.9,0.3-1.383,0.466-1.45,0.5c-0.2,0.133-0.4,0.383-0.6,0.75c-0.133,0.433-0.233,0.683-0.3,0.75
	c-0.033,0.1-0.033,0.167,0,0.2c0.133,0.067,0.267,0.2,0.4,0.4c0.367,0.567,1.2,1.233,2.5,2c0.5,0.3,0.917,0.883,1.25,1.75
	c0.067,0.667-0.2,1.317-0.8,1.95c-0.3,0.333-0.733,0.6-1.3,0.8c-0.6,0.233-1,0.434-1.2,0.6c-0.434,0.4-0.7,1.117-0.8,2.15
	l-1.75-0.35c0.5-0.534,0.934-1.133,1.3-1.8c0.233-0.4,0.683-0.767,1.35-1.1c1.033-0.533,1.566-0.816,1.6-0.85
	c0.833-0.567,1.017-1.167,0.55-1.8c-0.367-0.533-0.9-0.967-1.6-1.3c-0.5-0.133-0.867-0.267-1.1-0.4C17.75,9.783,17.5,9.5,17.4,9.1
	c-0.1-0.367-0.333-0.717-0.7-1.05l-0.5-0.4l0.85-0.45c0.167-0.034,0.517-0.534,1.05-1.5c0.167-0.267,0.65-0.55,1.45-0.85
	c0.534-0.167,0.833-0.367,0.9-0.6c0.033-0.133-0.017-0.45-0.15-0.95c-0.1-0.566-0.367-0.95-0.8-1.15H20.45z"/>
<radialGradient id="SVGID_10_" cx="16.0166" cy="-19.0918" r="6.6489" gradientTransform="matrix(0.3083 0.9513 0.9513 -0.3083 36.3238 -11.7734)" gradientUnits="userSpaceOnUse">
	<stop  offset="0" style="stop-color:#86B548"/>
	<stop  offset="1" style="stop-color:#5B802D"/>
</radialGradient>
<path style="fill-rule:evenodd;clip-rule:evenodd;fill:url(#SVGID_10_);" d="M23.2,10.3c-0.534,0.233-1.034,0.633-1.5,1.2l-0.6,0.8
	l0.35,0.25c0.333,0.167,0.683,0.317,1.05,0.45c0.634,0.167,2,0.5,4.1,1c0.534,0.233,1.15,0.7,1.851,1.4L27,16
	c-0.467-0.533-1.066-1.05-1.8-1.55c-0.4-0.267-0.867-0.383-1.4-0.35c-0.733,0-1.433-0.083-2.1-0.25c-0.867-0.233-1.5-0.6-1.9-1.1
	l-0.4-0.7l2-2.1c0.167-0.233,0.533-0.483,1.1-0.75c0.3-0.167,0.684-0.35,1.15-0.55c0.366-0.2,0.783-0.566,1.25-1.1
	c0.066,0.1,0.366,0.133,0.899,0.1l-0.7,1c-0.233,0.333-0.449,0.6-0.649,0.8C24.15,9.783,23.733,10.067,23.2,10.3z"/>
<linearGradient id="SVGID_11_" gradientUnits="userSpaceOnUse" x1="15.8359" y1="-7.2656" x2="18.3974" y2="-7.2656" gradientTransform="matrix(0.4197 0.9077 -0.9077 0.4197 2.456009e-004 -2.558827e-004)">
	<stop  offset="0" style="stop-color:#FFE000"/>
	<stop  offset="1" style="stop-color:#FFF7B5"/>
</linearGradient>
<path style="fill-rule:evenodd;clip-rule:evenodd;fill:url(#SVGID_11_);" d="M11.75,11.4c0.233-0.267,0.6-0.517,1.1-0.75
	c0.667-0.3,1.217-0.35,1.65-0.15c0.667,0.333,1.017,0.917,1.05,1.75c0.1,0.167,0,0.583-0.3,1.25c-0.1,0.233-0.167,0.367-0.2,0.4
	c-0.133,0.1-0.417,0.2-0.85,0.3c-0.467,0.1-0.833,0.1-1.1,0L12.85,14c0.267,0.133-0.067-0.25-1-1.15l-0.1-0.25
	C11.55,12.067,11.55,11.667,11.75,11.4z"/>
<radialGradient id="SVGID_12_" cx="17.4526" cy="-24.2007" r="5.0322" gradientTransform="matrix(0.308 0.9514 0.9514 -0.308 46.0482 -14.9081)" gradientUnits="userSpaceOnUse">
	<stop  offset="0" style="stop-color:#83AB4F"/>
	<stop  offset="1" style="stop-color:#739C40"/>
</radialGradient>
<path style="fill-rule:evenodd;clip-rule:evenodd;fill:url(#SVGID_12_);" d="M30.4,11.35c0.033,0.3,0.1,0.517,0.199,0.65
	c0.101,0.1,0.301,0.3,0.601,0.6c0.399,0.433,0.566,0.767,0.5,1c-0.733,0.633-1.25,1-1.55,1.1c-0.634,0.2-1.117-0.034-1.45-0.7
	c-0.101-0.2-0.417-0.383-0.95-0.55c-0.6-0.167-1.033-0.417-1.3-0.75c-0.334-0.367-0.367-0.75-0.101-1.15
	c0.167-0.267,0.5-0.767,1-1.5c0.434-0.8,0.317-1.583-0.35-2.35c0.167,0.2,0.417,0.316,0.75,0.35c0.4,0.4,0.634,0.75,0.7,1.05
	c0.133,0.533-0.184,1.233-0.95,2.1c-0.167,0.2-0.2,0.45-0.1,0.75c0.1,0.267,0.267,0.466,0.5,0.6c0.733,0.4,1.283,0.833,1.649,1.3
	c0.233,0.333,0.483,0.45,0.75,0.35c0.134-0.034,0.334-0.184,0.601-0.45c0.199-0.267,0.033-0.667-0.5-1.2
	c-0.367-0.333-0.584-0.783-0.65-1.35c-0.033-0.233-0.167-0.583-0.4-1.05L29,9.5l0.4,0.25C29.6,9.883,29.733,9.933,29.8,9.9l0.3,0.45
	C30.267,10.717,30.366,11.05,30.4,11.35z"/>
<radialGradient id="SVGID_13_" cx="12.7915" cy="-23.0801" r="2.8778" gradientTransform="matrix(0.3084 0.9513 0.9513 -0.3084 43.9104 -14.2354)" gradientUnits="userSpaceOnUse">
	<stop  offset="0" style="stop-color:#83AB4F"/>
	<stop  offset="1" style="stop-color:#739C40"/>
</radialGradient>
<path style="fill-rule:evenodd;clip-rule:evenodd;fill:url(#SVGID_13_);" d="M25.8,5.1L25.9,5.4c0.066,0.1,0.166,0.317,0.3,0.65
	c0.166,0.3,0.416,0.517,0.75,0.65l1,0.45l0.1,0.9l-0.45-0.4C26.9,7.417,26.4,7.217,26.1,7.05c-0.199-0.133-0.399-0.4-0.6-0.8
	c-0.167-0.4-0.267-0.767-0.3-1.1c-0.033-0.3-0.184-0.533-0.45-0.7l-0.35-0.2C24.833,4.317,25.3,4.6,25.8,5.1z"/>
<linearGradient id="SVGID_14_" gradientUnits="userSpaceOnUse" x1="12.1606" y1="-2.2441" x2="14.6164" y2="-2.2441" gradientTransform="matrix(0.8144 0.5803 -0.5803 0.8144 -1.106858e-004 -3.379583e-005)">
	<stop  offset="0" style="stop-color:#FFE000"/>
	<stop  offset="1" style="stop-color:#FFF7B5"/>
</linearGradient>
<path style="fill-rule:evenodd;clip-rule:evenodd;fill:url(#SVGID_14_);" d="M13.7,4.8c0.367,0.267,0.566,0.567,0.6,0.9
	c0.034,0.2-0.017,0.367-0.15,0.5c-0.066,0.133-0.316,0.383-0.75,0.75c-0.566,0.466-0.95,0.633-1.15,0.5
	c-0.6,0.033-1.1-0.067-1.5-0.3c-0.533-0.367-0.8-0.783-0.8-1.25c0.033-0.267,0.25-0.583,0.65-0.95c0.433-0.434,0.9-0.667,1.4-0.7
	C12.767,4.217,13.333,4.4,13.7,4.8z"/>
<radialGradient id="SVGID_15_" cx="11.687" cy="-11.4004" r="8.7519" gradientTransform="matrix(0.3085 0.9512 0.9512 -0.3085 21.6889 -7.0347)" gradientUnits="userSpaceOnUse">
	<stop  offset="0" style="stop-color:#83AB4F"/>
	<stop  offset="1" style="stop-color:#608C2B"/>
</radialGradient>
<path style="fill-rule:evenodd;clip-rule:evenodd;fill:url(#SVGID_15_);" d="M10.45,6c0.4-0.067,0.667-0.183,0.8-0.35
	c0.233-0.233,0.6-0.4,1.1-0.5c-0.033,0.2-0.184,0.434-0.45,0.7c-0.233,0.267-0.2,0.867,0.1,1.8c0.133,0.267,0.317,0.483,0.55,0.65
	c0.167,0.067,0.383,0.167,0.65,0.3c0.833,0.733,1.383,1.333,1.65,1.8c0.133,0.267,0.533,0.533,1.2,0.8
	c0.4,0.167,1.05,0.383,1.95,0.65c0.633,0.233,1.217,0.667,1.75,1.3c0.467,0.567,0.783,1.133,0.95,1.7c0.167,0.7-0.034,1.4-0.6,2.1
	l-1.35-0.1c0.633-0.8,0.967-1.533,1-2.2c0.033-0.467-0.483-1.083-1.55-1.85c-1.034-0.767-1.784-1.133-2.25-1.1
	c-0.767,0.033-1.534-0.417-2.3-1.35c-0.3-0.367-0.933-0.867-1.9-1.5c-0.933-0.6-1.433-1-1.5-1.2c-0.133-0.3-0.133-0.667,0-1.1
	L10.45,6z"/>
<radialGradient id="SVGID_16_" cx="13.9175" cy="-5.7837" r="6.1508" gradientTransform="matrix(0.3089 0.9511 0.9511 -0.3089 11.0017 -3.5735)" gradientUnits="userSpaceOnUse">
	<stop  offset="0" style="stop-color:#83AB4F"/>
	<stop  offset="1" style="stop-color:#668A38"/>
</radialGradient>
<path style="fill-rule:evenodd;clip-rule:evenodd;fill:url(#SVGID_16_);" d="M7.65,11.15l0.8-1.5L8.5,10.5
	c0.1,0.667,0.267,1.2,0.5,1.6c0.233,0.5,0.617,0.917,1.15,1.25c0.467,0.333,1.217,0.717,2.25,1.15c0.833,0.367,1.317,1.067,1.45,2.1
	c0.066,0.533,0.05,1.017-0.05,1.45c-1.1,0.3-2.35,0.2-3.75-0.3c-0.667-0.233-1.283-0.633-1.85-1.2
	c-0.767-0.733-1.184-1.533-1.25-2.4C6.917,13.35,7.15,12.35,7.65,11.15z"/>
<path style="fill-rule:evenodd;clip-rule:evenodd;fill:#60872B;" d="M25.2,8.1l0.3-0.5c0.267-0.367,0.517-0.6,0.75-0.7
	s0.333,0.083,0.3,0.55c-0.033,0.466-0.133,0.8-0.3,1l-0.3,0.35l0.45-0.45c0.3-0.267,0.483-0.267,0.55,0
	C27.017,8.783,26.7,9.267,26,9.8l0.7-0.35c0.467-0.167,0.649-0.067,0.55,0.3c-0.167,0.567-0.55,0.967-1.15,1.2l0.65-0.05
	c0.4,0,0.55,0.167,0.45,0.5c-0.134,0.533-0.783,1.1-1.95,1.7c0.967-0.4,1.366-0.35,1.2,0.15c-0.134,0.5-0.65,1.017-1.55,1.55
	l0.649-0.05c0.434,0,0.65,0.067,0.65,0.2c0,0.333-0.417,0.767-1.25,1.3c-1,0.667-2.083,0.917-3.25,0.75
	c-0.667-0.3-1.067-0.8-1.2-1.5c-0.067-0.533-0.1-0.983-0.1-1.35c0.033-0.4,0.1-0.533,0.2-0.4l0.35,0.45c-0.2-1.167-0.233-2-0.1-2.5
	c0.1-0.3,0.316-0.333,0.65-0.1c0.167,0.133,0.317,0.3,0.45,0.5c-0.167-0.8-0.15-1.483,0.05-2.05c0.133-0.333,0.317-0.35,0.55-0.05
	c0.1,0.133,0.2,0.3,0.3,0.5c0-0.2,0-0.433,0-0.7C22.883,9.3,23,8.917,23.2,8.65c0.3-0.467,0.517-0.3,0.649,0.5L24.6,7.6
	C24.833,7.267,25.033,7.433,25.2,8.1z"/>
<radialGradient id="SVGID_17_" cx="13.7393" cy="-2.6719" r="6.6417" gradientTransform="matrix(0.4084 0.9128 0.9128 -0.4084 4.8782 -2.1829)" gradientUnits="userSpaceOnUse">
	<stop  offset="0" style="stop-color:#95C755"/>
	<stop  offset="1" style="stop-color:#6E963E"/>
</radialGradient>
<path style="fill-rule:evenodd;clip-rule:evenodd;fill:url(#SVGID_17_);" d="M9.2,13.65l-0.3,0.6L9.35,15l0.25,0.3
	c0.233-0.233,0.383-0.5,0.45-0.8l0.2-1.1v1.2c-0.033,0.4-0.167,0.733-0.4,1l0.6,0.6c0.333,0.233,0.55,0.35,0.65,0.35
	c0.066-0.333,0.1-0.733,0.1-1.2v-1l0.5,1.3c0.066,0.367,0.167,0.733,0.3,1.1c0.267,0.3,0.433,0.267,0.5-0.1
	c0.033-0.2,0.017-0.5-0.05-0.9L12.3,15.2l0.3,0.55c0.2,0.4,0.316,0.7,0.35,0.9c0.033,0.167,0.133,0.4,0.3,0.7
	c0.033,0.2-0.217,0.233-0.75,0.1c-1.333-0.367-2.1-0.667-2.3-0.9L9.65,15.8c-0.3,0.034-0.717-0.05-1.25-0.25l-0.95-0.6L8.4,15.2
	l0.8,0.1c-0.233-0.4-0.4-0.633-0.5-0.7l-0.1-0.15c-0.133,0-0.367-0.083-0.7-0.25c-0.2-0.133-0.367-0.3-0.5-0.5l-0.15-0.3l0.55,0.4
	C8.033,13.933,8.25,14,8.45,14c-0.167-0.167-0.3-0.4-0.4-0.7L7.95,12l0.35,1.25L8.7,14l0.55-0.95L9.2,13.65z"/>
<radialGradient id="SVGID_18_" cx="-0.7583" cy="-27.1196" r="8.6845" gradientTransform="matrix(-0.3123 0.95 0.95 0.3123 51.5255 16.9413)" gradientUnits="userSpaceOnUse">
	<stop  offset="0" style="stop-color:#537525"/>
	<stop  offset="1" style="stop-color:#547828"/>
</radialGradient>
<path style="fill-rule:evenodd;clip-rule:evenodd;fill:url(#SVGID_18_);" d="M24.85,9.25L26.1,7.5l-0.6,1.15l-0.55,0.8l0.149,0.1
	c0.101,0.034,0.217,0,0.351-0.1c0.233-0.133,0.483-0.333,0.75-0.6c-0.334,0.433-0.617,0.717-0.851,0.85l-0.6,0.15l-0.3,1v0.3
	l2.1-1.2l-1.3,1.1l-0.8,0.5l-0.2,0.7c-0.033,0.267-0.134,0.583-0.3,0.95l2.399-1.5l-2.6,2.25c-0.066,0.733-0.134,1.15-0.2,1.25
	l-0.1,0.1l1.85-1.55c-0.7,0.967-1.2,1.583-1.5,1.85c-0.166,0.133-0.217,0.383-0.149,0.75c0.066,0.333,0.017,0.517-0.15,0.55
	c-0.2,0.033-0.467,0-0.8-0.1l-0.4-0.2c-0.3-0.333-0.533-0.8-0.7-1.4c-0.1-0.367-0.15-0.817-0.15-1.35v-0.7l0.1,0.85
	c0.1,0.6,0.25,1.033,0.45,1.3c0.3,0.434,0.65,0.617,1.05,0.55l0.351-2l-0.9-3l1.15,2.35l0.25-1.45
	c-0.167-0.333-0.317-0.733-0.45-1.2c-0.066-0.3-0.101-0.617-0.101-0.95V9.15l0.601,1.75l0.2,0.25L24.55,9.7L24.7,8L24.85,9.25z"/>
<path style="fill-rule:evenodd;clip-rule:evenodd;fill:#EBFFBF;" d="M19,2.7c0.2,0,0.333,0.05,0.4,0.15
	c0.033,0.066,0.067,0.183,0.1,0.35c0.267,0.433,0.367,0.716,0.3,0.85c-0.033,0.1-0.167,0.083-0.4-0.05c-0.233-0.2-0.4-0.333-0.5-0.4
	c-0.066-0.067-0.25-0.133-0.55-0.2c-0.267-0.033-0.434-0.066-0.5-0.1c-0.2,0-0.1-0.117,0.3-0.35C18.483,2.783,18.767,2.7,19,2.7z"/>
<path style="fill-rule:evenodd;clip-rule:evenodd;fill:#EBFFBF;" d="M17.55,4.4c0.367-0.033,0.4,0.167,0.1,0.6l-0.7,0.15
	C16.817,5.183,16.8,5.133,16.9,5c0.067-0.067,0.15-0.183,0.25-0.35C17.183,4.517,17.317,4.433,17.55,4.4z"/>
<path style="fill-rule:evenodd;clip-rule:evenodd;fill:#EBFFBF;" d="M18.6,4.65c0.4,0,0.6,0.033,0.6,0.1l-0.3,0.2
	c-0.433,0.167-0.8,0.367-1.1,0.6c-0.133,0.067-0.1-0.083,0.1-0.45C18.067,4.8,18.3,4.65,18.6,4.65z"/>
<path style="fill-rule:evenodd;clip-rule:evenodd;fill:#EBFFBF;" d="M11.85,4.55c0.233,0,0.283,0.117,0.15,0.35
	c-0.2,0.1-0.383,0.233-0.55,0.4c-0.233,0.233-0.4,0.333-0.5,0.3c-0.2-0.1-0.284-0.25-0.25-0.45c0-0.133,0.15-0.267,0.45-0.4
	C11.383,4.617,11.617,4.55,11.85,4.55z"/>
<path style="fill-rule:evenodd;clip-rule:evenodd;fill:#EBFFBF;" d="M7.4,8.4C7.267,8.5,7.2,8.65,7.2,8.85L7.25,9.4
	c0,0.2-0.067,0.317-0.2,0.35c-0.066,0-0.25-0.033-0.55-0.1C6.3,9.583,6.2,9.433,6.2,9.2c0-0.2,0.066-0.417,0.2-0.65
	c0.1-0.167,0.25-0.3,0.45-0.4c0.133-0.033,0.367-0.117,0.7-0.25C7.717,7.867,7.767,7.917,7.7,8.05C7.667,8.183,7.567,8.3,7.4,8.4z"
	/>
<path style="fill-rule:evenodd;clip-rule:evenodd;fill:#EBFFBF;" d="M9.45,7.3c0.233,0.067,0.3,0.15,0.2,0.25
	c-0.167,0.1-0.3,0.167-0.4,0.2c-0.2,0.167-0.333,0.133-0.4-0.1C8.817,7.517,8.867,7.417,9,7.35C9.133,7.283,9.283,7.267,9.45,7.3z"
	/>
<path style="fill-rule:evenodd;clip-rule:evenodd;fill:#EBFFBF;" d="M10.6,10.65c0.167-0.033,0.167,0.133,0,0.5
	c-0.167,0.333-0.35,0.617-0.55,0.85c-0.133,0.167-0.233,0.183-0.3,0.05c-0.067-0.267-0.133-0.5-0.2-0.7
	C9.45,10.983,9.8,10.75,10.6,10.65z"/>
<path style="fill-rule:evenodd;clip-rule:evenodd;fill:#EBFFBF;" d="M14.9,9.3c0.1,0.034,0.167,0.117,0.2,0.25
	c0,0.133-0.033,0.233-0.1,0.3c-0.033,0.133-0.2,0-0.5-0.4C14.3,9.217,14.433,9.167,14.9,9.3z"/>
<path style="fill-rule:evenodd;clip-rule:evenodd;fill:#EBFFBF;" d="M18.45,7.55c0.2,0.067,0.283,0.2,0.25,0.4
	c0,0.133-0.034,0.283-0.1,0.45c-0.033,0.167-0.217,0.017-0.55-0.45c-0.066-0.1-0.066-0.2,0-0.3C18.15,7.55,18.283,7.517,18.45,7.55z
	"/>
<path style="fill-rule:evenodd;clip-rule:evenodd;fill:#EBFFBF;" d="M20.85,8c0.133,0.067,0.217,0.167,0.25,0.3
	c0.033,0.1,0.133,0.184,0.3,0.25c0.333,0.1,0.333,0.35,0,0.75c-0.333,0.333-0.633,0.467-0.9,0.4c-0.233-0.067-0.35-0.25-0.35-0.55
	c0.1-0.4,0.133-0.7,0.1-0.9c-0.033-0.267,0-0.417,0.1-0.45C20.383,7.8,20.55,7.867,20.85,8z"/>
<path style="fill-rule:evenodd;clip-rule:evenodd;fill:#EBFFBF;" d="M17.75,12.9c0.333,0.033,0.45,0.184,0.35,0.45
	c-0.133,0.033-0.267,0.05-0.4,0.05c-0.2,0-0.367-0.033-0.5-0.1c-0.167-0.066-0.167-0.15,0-0.25C17.367,12.95,17.55,12.9,17.75,12.9z
	"/>
<path style="fill-rule:evenodd;clip-rule:evenodd;fill:#EBFFBF;" d="M12.7,13.65c0.2,0.033,0.35,0.133,0.45,0.3
	c0.133,0.167,0.083,0.25-0.15,0.25c-0.133,0-0.483-0.167-1.05-0.5c-0.1-0.1-0.05-0.15,0.15-0.15C12.3,13.55,12.5,13.583,12.7,13.65z
	"/>
<path style="fill-rule:evenodd;clip-rule:evenodd;fill:#EBFFBF;" d="M22.15,4.1c0.233,0,0.317,0.05,0.25,0.15
	c-0.066,0.067-0.15,0.167-0.25,0.3c-0.033,0.067,0.033,0.167,0.2,0.3c0.1,0.1,0.267,0.25,0.5,0.45c0.2,0.133,0.333,0.284,0.4,0.45
	c0.033,0.167-0.033,0.167-0.2,0c-0.767-0.5-1.216-0.833-1.35-1c-0.1-0.1-0.083-0.233,0.05-0.4C21.883,4.183,22.017,4.1,22.15,4.1z"
	/>
<path style="fill-rule:evenodd;clip-rule:evenodd;fill:#EBFFBF;" d="M13.3,11c0.3,0,0.434,0.1,0.4,0.3
	c-0.067,0.2-0.2,0.317-0.4,0.35c-0.466,0-0.833,0.133-1.1,0.4C12.1,12.117,12.033,12.1,12,12c-0.067-0.1-0.05-0.217,0.05-0.35
	C12.483,11.217,12.9,11,13.3,11z"/>
<radialGradient id="SVGID_19_" cx="-26.5825" cy="21.2559" r="4.5455" gradientTransform="matrix(-0.4317 -0.902 -0.902 0.4317 38.3455 -18.3534)" gradientUnits="userSpaceOnUse">
	<stop  offset="0" style="stop-color:#639C35"/>
	<stop  offset="0.3098" style="stop-color:#79BD40"/>
	<stop  offset="1" style="stop-color:#699632"/>
</radialGradient>
<path style="fill-rule:evenodd;clip-rule:evenodd;fill:url(#SVGID_19_);" d="M30.3,12.7l1,1.7l-1.35,0.7
	c-0.767-0.1-1.417-0.65-1.95-1.65c-0.4-0.733-0.583-1.45-0.55-2.15l0.2-0.8l1.25-0.85L30.3,12.7z"/>
<path style="fill-rule:evenodd;clip-rule:evenodd;fill:#68AB2E;" d="M30.85,14.45c-0.433-0.233-0.866-0.583-1.3-1.05
	c-0.833-0.9-1.184-1.9-1.05-3c0.1-0.933,0.6-1.117,1.5-0.55c0.833,0.533,1.384,1.2,1.65,2C32.25,13.683,31.983,14.55,30.85,14.45z"
	/>
<path style="fill-rule:evenodd;clip-rule:evenodd;fill:#6AA338;" d="M31.45,13.55c-0.2,0.4-0.617,0.35-1.25-0.15
	c-0.667-0.5-1.066-1.117-1.2-1.85c-0.2-1.5,0.267-1.783,1.4-0.85c0.433,0.367,0.767,0.833,1,1.4
	C31.634,12.7,31.65,13.183,31.45,13.55z"/>
<radialGradient id="SVGID_20_" cx="-18.5786" cy="-8.9453" r="4.5384" gradientTransform="matrix(-0.9337 0.3581 0.3581 0.9337 6.4063 16.7043)" gradientUnits="userSpaceOnUse">
	<stop  offset="0" style="stop-color:#639C35"/>
	<stop  offset="0.3098" style="stop-color:#79BD40"/>
	<stop  offset="1" style="stop-color:#699632"/>
</radialGradient>
<path style="fill-rule:evenodd;clip-rule:evenodd;fill:url(#SVGID_20_);" d="M18.45,1.9l1.75-0.85l0.6,1.4
	C20.633,3.183,20.033,3.8,19,4.3c-0.767,0.367-1.483,0.483-2.15,0.35l-0.8-0.3l-0.75-1.3L18.45,1.9z"/>
<path style="fill-rule:evenodd;clip-rule:evenodd;fill:#7FC743;" d="M20.25,1.5c-0.267,0.433-0.65,0.833-1.15,1.2
	c-0.967,0.767-2,1.05-3.1,0.85c-0.933-0.2-1.083-0.716-0.45-1.55c0.6-0.8,1.317-1.3,2.15-1.5c0.8-0.2,1.433-0.233,1.9-0.1
	C20.133,0.567,20.35,0.933,20.25,1.5z"/>
<path style="fill-rule:evenodd;clip-rule:evenodd;fill:#8CD64D;" d="M19.4,0.85c0.367,0.2,0.283,0.617-0.25,1.25
	c-0.566,0.633-1.217,0.967-1.95,1c-1.534,0.133-1.784-0.35-0.75-1.45c0.433-0.4,0.933-0.683,1.5-0.85
	C18.55,0.633,19.033,0.65,19.4,0.85z"/>
<radialGradient id="SVGID_21_" cx="0.5981" cy="-10.7139" r="5.2665" gradientTransform="matrix(-0.5459 0.8378 0.8378 0.5459 17.953 11.6977)" gradientUnits="userSpaceOnUse">
	<stop  offset="0" style="stop-color:#639C35"/>
	<stop  offset="0.3098" style="stop-color:#79BD40"/>
	<stop  offset="1" style="stop-color:#699632"/>
</radialGradient>
<path style="fill-rule:evenodd;clip-rule:evenodd;fill:url(#SVGID_21_);" d="M6.55,7.6l0.9-1.8l1.3,0.8
	c0.467,1.033,0.467,2.05,0,3.05s-1.2,1.483-2.2,1.45l-2.2-0.9L6.55,7.6z"/>
<path style="fill-rule:evenodd;clip-rule:evenodd;fill:#7FC743;" d="M8,6.4C8,6.9,7.883,7.433,7.65,8
	C7.183,9.167,6.433,9.933,5.4,10.3c-0.867,0.333-1.25-0.017-1.15-1.05c0.1-1,0.45-1.8,1.05-2.4C5.867,6.25,6.383,5.9,6.85,5.8
	C7.383,5.633,7.767,5.833,8,6.4z"/>
<path style="fill-rule:evenodd;clip-rule:evenodd;fill:#8CD64D;" d="M6.9,6.25c0.467,0,0.617,0.4,0.45,1.2
	C7.217,8.283,6.833,8.917,6.2,9.35c-1.3,0.9-1.75,0.617-1.35-0.85c0.133-0.567,0.4-1.083,0.8-1.55C6.083,6.483,6.5,6.25,6.9,6.25z"
	/>
<path style="fill-rule:evenodd;clip-rule:evenodd;fill:#FFFFFF;" d="M8.9,7.7C8.933,7.833,8.917,8,8.85,8.2
	C8.883,8.267,8.733,8.233,8.4,8.1C8.033,7.933,7.917,7.717,8.05,7.45C8.083,7.35,8.233,7.333,8.5,7.4
	C8.733,7.467,8.867,7.567,8.9,7.7z"/>
<path style="fill-rule:evenodd;clip-rule:evenodd;fill:#FFFFFF;" d="M19.9,2.5c0.3,0.3,0.4,0.5,0.3,0.6
	c-0.034,0.066-0.133,0.066-0.3,0c-0.1-0.067-0.15-0.2-0.15-0.4C19.783,2.5,19.833,2.433,19.9,2.5z"/>
<linearGradient id="SVGID_22_" gradientUnits="userSpaceOnUse" x1="0" y1="18.0254" x2="33.7998" y2="18.0254">
	<stop  offset="0" style="stop-color:#D9D9D9"/>
	<stop  offset="0.3216" style="stop-color:#FFFFFF"/>
	<stop  offset="1" style="stop-color:#BDBDBD"/>
</linearGradient>
<path style="fill-rule:evenodd;clip-rule:evenodd;fill:url(#SVGID_22_);" d="M32.75,12.9h1.05v5.55c-0.1,1.3-1.783,2.416-5.05,3.35
	c-3.3,0.9-7.25,1.351-11.85,1.351S8.367,22.7,5.1,21.8c-3.3-0.934-5-2.05-5.1-3.35V12.9h0.8c0.333,1.067,2.017,1.95,5.05,2.65
	c3.066,0.7,6.7,1.05,10.9,1.05c4.233,0,7.884-0.35,10.95-1.05C30.733,14.85,32.417,13.967,32.75,12.9z"/>
<path style="fill-rule:evenodd;clip-rule:evenodd;fill:#FFFFFF;" d="M32.3,12.35h1.45l0.05,0.5c0,1.333-1.649,2.467-4.95,3.4
	c-3.3,0.933-7.283,1.4-11.95,1.4c-4.667,0-8.65-0.467-11.95-1.4C1.65,15.317,0,14.183,0,12.85l0.05-0.5H1.8l-0.05,0.1
	c0,1.1,1.5,2.05,4.5,2.85c2.967,0.767,6.567,1.15,10.8,1.15c4.233,0,7.834-0.383,10.8-1.15c3-0.8,4.5-1.75,4.5-2.85L32.3,12.35z"/>
</svg>
