<?xml version="1.0" encoding="iso-8859-1"?>
<!-- Generator: Adobe Illustrator 15.1.0, SVG Export Plug-In . SVG Version: 6.00 Build 0)  -->
<!DOCTYPE svg PUBLIC "-//W3C//DTD SVG 1.1//EN" "http://www.w3.org/Graphics/SVG/1.1/DTD/svg11.dtd">
<svg version="1.1" id="flash0.ai" xmlns="http://www.w3.org/2000/svg" xmlns:xlink="http://www.w3.org/1999/xlink" x="0px" y="0px"
	 width="70.8px" height="35.1px" viewBox="0 0 70.8 35.1" style="enable-background:new 0 0 70.8 35.1;" xml:space="preserve">
<symbol  id="flash0.ai_x5F_7_x2F_Layer_2_x2F__x3C_Path_x3E__x5F_1" viewBox="-0.028 -1.005 1.034 1.005">
	<g id="Layer_1_16_">
		<path style="fill-rule:evenodd;clip-rule:evenodd;fill:#BD7A4A;" d="M0.7,0C0.933,0,1.033-0.183,1-0.55
			C0.967-0.883,0.75-1.033,0.35-1c-0.367,0.067-0.467,0.25-0.3,0.55C0.217-0.15,0.433,0,0.7,0z"/>
	</g>
</symbol>
<symbol  id="flash0.ai_x5F_7_x2F_Layer_2_x2F__x3C_Path_x3E__x5F_10" viewBox="0.02 -1.2 4.972 1.207">
	<g id="Layer_1_7_">
		<path style="fill-rule:evenodd;clip-rule:evenodd;fill:#BD7A4A;" d="M4.4-0.25C4.9-0.45,5.083-0.6,4.95-0.7
			C4.783-0.8,4.4-0.917,3.8-1.05C3.2-1.15,2.717-1.2,2.35-1.2s-0.8,0.1-1.3,0.3c-0.466,0.2-0.8,0.417-1,0.65
			C-0.083-0.083,0.233-0.017,1-0.05c1.2,0,1.933,0.017,2.2,0.05C3.5,0.033,3.9-0.05,4.4-0.25z"/>
	</g>
</symbol>
<symbol  id="flash0.ai_x5F_7_x2F_Layer_2_x2F__x3C_Path_x3E__x5F_11" viewBox="-0.034 -1.232 5.416 1.243">
	<g id="Layer_1_6_">
		<path style="fill-rule:evenodd;clip-rule:evenodd;fill:#BD7A4A;" d="M4.05-0.3C4.783-0.567,5.2-0.733,5.3-0.8
			c0.233-0.167-0.033-0.284-0.8-0.35c-2.433-0.2-3.917-0.033-4.45,0.5c-0.267,0.3,0.1,0.5,1.1,0.6C2.217,0.083,3.183,0,4.05-0.3z"/>
	</g>
</symbol>
<symbol  id="flash0.ai_x5F_7_x2F_Layer_2_x2F__x3C_Path_x3E__x5F_12" viewBox="-0.029 -1.104 1.236 1.108">
	<g id="Layer_1_5_">
		<path style="fill-rule:evenodd;clip-rule:evenodd;fill:#BD7A4A;" d="M1.15-0.55c-0.133-0.4-0.4-0.583-0.8-0.55
			S-0.133-0.883,0.1-0.55C0.3-0.25,0.55-0.067,0.85,0C1.183,0.033,1.283-0.15,1.15-0.55z"/>
	</g>
</symbol>
<symbol  id="flash0.ai_x5F_7_x2F_Layer_2_x2F__x3C_Path_x3E__x5F_13" viewBox="-0.063 -1.275 3.451 1.325">
	<g id="Layer_1_4_">
		<path style="fill-rule:evenodd;clip-rule:evenodd;fill:#BD7A4A;" d="M2.8-0.1C3.6-0.3,3.583-0.6,2.75-1
			c-0.8-0.367-1.567-0.367-2.3,0c-0.7,0.367-0.684,0.667,0.05,0.9C1.267,0.1,2.033,0.1,2.8-0.1z"/>
	</g>
</symbol>
<symbol  id="flash0.ai_x5F_7_x2F_Layer_2_x2F__x3C_Path_x3E__x5F_14" viewBox="-0.05 -1.168 2.338 1.208">
	<g id="Layer_1_3_">
		<path style="fill-rule:evenodd;clip-rule:evenodd;fill:#BD7A4A;" d="M1.95-0.25C2.417-0.517,2.4-0.767,1.9-1
			C1.4-1.267,0.883-1.217,0.35-0.85s-0.533,0.633,0,0.8C0.883,0.117,1.417,0.05,1.95-0.25z"/>
	</g>
</symbol>
<symbol  id="flash0.ai_x5F_7_x2F_Layer_2_x2F__x3C_Path_x3E__x5F_15" viewBox="-0.002 -1.7 4.449 1.708">
	<g id="Layer_1_2_">
		<path style="fill-rule:evenodd;clip-rule:evenodd;fill:#BD7A4A;" d="M3.5-0.2c0.833-0.333,1.117-0.667,0.85-1
			C4.083-1.533,3.6-1.7,2.9-1.7c-0.533,0-1.15,0.167-1.85,0.5C0.417-0.9,0.067-0.633,0-0.4C-0.033-0.167,0.4-0.033,1.3,0
			C2.233,0.033,2.967-0.033,3.5-0.2z"/>
	</g>
</symbol>
<symbol  id="flash0.ai_x5F_7_x2F_Layer_2_x2F__x3C_Path_x3E__x5F_2" viewBox="0.006 -1.075 3.39 1.1">
	<g id="Layer_1_15_">
		<path style="fill-rule:evenodd;clip-rule:evenodd;fill:#BD7A4A;" d="M2.8,0c0.7,0,0.784-0.233,0.25-0.7
			C2.783-0.767,2.533-0.867,2.3-1C2.1-1.1,1.75-1.1,1.25-1C0.75-0.867,0.367-0.667,0.1-0.4C-0.133-0.133,0.067,0,0.7,0
			C1.067,0.033,1.767,0.033,2.8,0z"/>
	</g>
</symbol>
<symbol  id="flash0.ai_x5F_7_x2F_Layer_2_x2F__x3C_Path_x3E__x5F_3" viewBox="0.007 -0.645 1.882 0.645">
	<g id="Layer_1_14_">
		<path style="fill-rule:evenodd;clip-rule:evenodd;fill:#BD7A4A;" d="M1.65-0.25C1.283-0.417,1.017-0.533,0.85-0.6
			c-0.333-0.1-0.6-0.033-0.8,0.2C-0.117-0.133,0.2,0,1,0C1.9,0,2.117-0.083,1.65-0.25z"/>
	</g>
</symbol>
<symbol  id="flash0.ai_x5F_7_x2F_Layer_2_x2F__x3C_Path_x3E__x5F_4" viewBox="0.007 -0.554 2.562 0.516">
	<g id="Layer_1_13_">
		<path style="fill-rule:evenodd;clip-rule:evenodd;fill:#BD7A4A;" d="M2.2-0.1c0.633-0.033,0.45-0.15-0.55-0.35
			c-0.867-0.167-1.4-0.133-1.6,0.1C-0.183-0.05,0.533,0.033,2.2-0.1z"/>
	</g>
</symbol>
<symbol  id="flash0.ai_x5F_7_x2F_Layer_2_x2F__x3C_Path_x3E__x5F_5" viewBox="-0.018 -0.412 2.257 0.427">
	<g id="Layer_1_12_">
		<path style="fill-rule:evenodd;clip-rule:evenodd;fill:#BD7A4A;" d="M2.05-0.1c0.367-0.167,0.2-0.267-0.5-0.3
			c-0.7-0.033-1.183,0-1.45,0.1c-0.267,0.1-0.083,0.183,0.55,0.25C1.25,0.05,1.717,0.033,2.05-0.1z"/>
	</g>
</symbol>
<symbol  id="flash0.ai_x5F_7_x2F_Layer_2_x2F__x3C_Path_x3E__x5F_6" viewBox="0.014 -1.129 3.097 1.129">
	<g id="Layer_1_11_">
		<path style="fill-rule:evenodd;clip-rule:evenodd;fill:#BD7A4A;" d="M2.35,0C2.917,0,3.167-0.167,3.1-0.5
			C3-0.867,2.65-1.067,2.05-1.1C1.55-1.167,1.167-1.117,0.9-0.95c-0.267,0.267-0.517,0.467-0.75,0.6C-0.317-0.117,0.417,0,2.35,0z"
			/>
	</g>
</symbol>
<symbol  id="flash0.ai_x5F_7_x2F_Layer_2_x2F__x3C_Path_x3E__x5F_7" viewBox="-0.013 -0.912 2.767 0.882">
	<g id="Layer_1_10_">
		<path style="fill-rule:evenodd;clip-rule:evenodd;fill:#BD7A4A;" d="M2.35-0.15C2.717-0.183,2.833-0.3,2.7-0.5
			C2.533-0.733,2.183-0.867,1.65-0.9c-0.5-0.033-0.85,0-1.05,0.1C0.433-0.733,0.25-0.567,0.05-0.3C-0.25,0,0.517,0.05,2.35-0.15z"/>
	</g>
</symbol>
<symbol  id="flash0.ai_x5F_7_x2F_Layer_2_x2F__x3C_Path_x3E__x5F_8" viewBox="-0.052 -0.773 2.674 0.795">
	<g id="Layer_1_9_">
		<path style="fill-rule:evenodd;clip-rule:evenodd;fill:#BD7A4A;" d="M1.75,0C2.55-0.167,2.8-0.35,2.5-0.55
			C2.133-0.783,1.383-0.833,0.25-0.7c-0.433,0.067-0.4,0.217,0.1,0.45S1.317,0.067,1.75,0z"/>
	</g>
</symbol>
<symbol  id="flash0.ai_x5F_7_x2F_Layer_2_x2F__x3C_Path_x3E__x5F_9" viewBox="0.002 -1.506 2.943 1.506">
	<g id="Layer_1_8_">
		<path style="fill-rule:evenodd;clip-rule:evenodd;fill:#BD7A4A;" d="M2.4-0.25c0.467-0.133,0.633-0.367,0.5-0.7
			C2.733-1.283,2.3-1.467,1.6-1.5C0.967-1.533,0.567-1.417,0.4-1.15c-0.1,0.333-0.217,0.6-0.35,0.8C-0.117-0.117,0.15,0,0.85,0
			C1.45-0.033,1.967-0.117,2.4-0.25z"/>
	</g>
</symbol>
<g>
	
		<linearGradient id="SVGID_1_" gradientUnits="userSpaceOnUse" x1="-0.0205" y1="13.6147" x2="52.1795" y2="13.6147" gradientTransform="matrix(0.78 -3.735626e-004 -3.560014e-004 0.78 15.0499 16.4998)">
		<stop  offset="0.0235" style="stop-color:#A0A1A3"/>
		<stop  offset="1" style="stop-color:#78797A"/>
	</linearGradient>
	<path style="fill-rule:evenodd;clip-rule:evenodd;fill:url(#SVGID_1_);" d="M55.688,27.381c-0.546,2.21-2.99,4.069-7.332,5.577
		s-9.308,2.223-14.897,2.145c-5.59-0.052-10.179-0.884-13.767-2.495c-3.562-1.612-5.083-3.523-4.563-5.733
		c0.546-2.21,2.99-4.069,7.332-5.577c4.316-1.508,9.282-2.236,14.897-2.184c5.59,0.078,10.18,0.923,13.768,2.535
		C54.687,23.26,56.208,25.171,55.688,27.381z"/>
	
		<linearGradient id="SVGID_2_" gradientUnits="userSpaceOnUse" x1="-54.2534" y1="-5.7295" x2="2.5878" y2="-5.7295" gradientTransform="matrix(-0.7546 -0.1974 0.1974 -0.7546 15.0501 16.5005)">
		<stop  offset="0" style="stop-color:#CCCCCC"/>
		<stop  offset="1" style="stop-color:#FFFFFF"/>
	</linearGradient>
	<path style="fill-rule:evenodd;clip-rule:evenodd;fill:url(#SVGID_2_);" d="M55.688,26.718c-0.546,2.002-2.99,3.692-7.332,5.07
		s-9.308,2.041-14.897,1.989c-5.59-0.078-10.179-0.858-13.767-2.34c-3.562-1.482-5.083-3.237-4.563-5.266
		c0.546-2.002,2.99-3.692,7.332-5.07c4.342-1.378,9.308-2.041,14.897-1.988c5.59,0.078,10.18,0.857,13.768,2.34
		C54.687,22.935,56.208,24.69,55.688,26.718z"/>
	
		<linearGradient id="SVGID_3_" gradientUnits="userSpaceOnUse" x1="2.2681" y1="12.334" x2="50.1181" y2="12.334" gradientTransform="matrix(0.78 4.075228e-004 4.259963e-004 0.78 15.0498 16.5)">
		<stop  offset="0" style="stop-color:#CCCCCC"/>
		<stop  offset="1" style="stop-color:#FFFFFF"/>
	</linearGradient>
	<path style="fill-rule:evenodd;clip-rule:evenodd;fill:url(#SVGID_3_);" d="M54.05,26.367c-0.494,1.69-2.73,3.106-6.708,4.25
		c-3.979,1.145-8.528,1.69-13.65,1.639c-5.122-0.078-9.321-0.741-12.597-1.989c-3.302-1.222-4.706-2.678-4.212-4.368
		c0.494-1.689,2.73-3.119,6.708-4.29c3.978-1.144,8.528-1.677,13.65-1.599c5.121,0.053,9.334,0.702,12.636,1.95
		C53.152,23.208,54.544,24.677,54.05,26.367z"/>
	<path style="fill-rule:evenodd;clip-rule:evenodd;fill:#949494;" d="M49.604,21.921c1.093,0.521,1.586,1.053,1.482,1.599
		c-0.078,0.469-0.533,0.846-1.365,1.132c-1.431,0.494-2.613,0.909-3.549,1.247c-1.742,0.625-2.898,1.079-3.471,1.365
		c-0.442,0.234-1.054,0.871-1.833,1.911c-0.858,1.17-1.586,1.963-2.185,2.379c-1.456,1.014-5.408,1.118-11.856,0.313
		c-1.585-0.183-2.977-0.702-4.173-1.561c-0.468-0.338-1.157-1.001-2.067-1.988c0.884-0.729,1.924-1.495,3.12-2.301
		c2.366-1.639,4.342-2.691,5.928-3.16c2.002-0.571,5.512-1,10.53-1.286C45.34,21.284,48.485,21.401,49.604,21.921z"/>
	<path style="fill-rule:evenodd;clip-rule:evenodd;fill:#542F15;" d="M49.447,19.191c0.598,0.728,0.78,1.56,0.546,2.495
		c-0.129,0.469-0.312,0.858-0.546,1.17l-2.184,0.391c-0.729,0.13-1.703,0.507-2.925,1.131c-1.065,0.546-2.093,1.157-3.081,1.833
		c-0.624,0.416-1.378,1.209-2.262,2.379c-0.91,1.196-1.534,1.924-1.872,2.184c-0.494,0.391-1.378,0.611-2.652,0.664
		c-1.612,0-2.86,0-3.744,0c-3.25,0-5.538-0.261-6.864-0.78c-1.04-0.416-1.716-0.702-2.028-0.858
		c-0.702-0.416-1.118-0.91-1.248-1.481c-0.104-0.546-0.13-1.404-0.078-2.574l0.078-1.6l1.833-1.287
		c5.46-0.884,10.01-1.755,13.65-2.612l6.278-1.014C46.64,18.658,49.006,18.645,49.447,19.191z"/>
	<path style="fill-rule:evenodd;clip-rule:evenodd;fill:#915224;" d="M21.758,25.197c-0.364,0.286-0.507,1.001-0.429,2.145
		c0.078,1.353,0.65,2.275,1.716,2.77l1.482,0.741l-0.663-0.195c-1.04-0.416-1.716-0.702-2.028-0.858
		c-0.702-0.416-1.118-0.91-1.248-1.481c-0.156-0.91-0.156-2.263,0-4.057L21.758,25.197z"/>
	<path style="fill-rule:evenodd;clip-rule:evenodd;fill:#422511;" d="M49.214,20.322c0.468,0.546,0.402,1.417-0.195,2.612
		l-1.755,0.313c-0.729,0.13-1.703,0.507-2.925,1.131c-1.065,0.546-2.093,1.157-3.081,1.833c-0.624,0.416-1.378,1.209-2.262,2.379
		c-0.91,1.196-1.534,1.924-1.872,2.184c-0.494,0.391-1.353,0.611-2.574,0.664c0.494-0.234,0.858-0.599,1.092-1.093
		c0.208-0.468,0.26-0.923,0.156-1.364c-0.312-1.586-0.416-2.535-0.312-2.848l0.662-1.911c6.63-2.938,10.179-4.433,10.647-4.484
		c0.572-0.052,0.975-0.065,1.209-0.039C48.499,19.75,48.902,19.958,49.214,20.322z"/>
	<path style="fill-rule:evenodd;clip-rule:evenodd;fill:#613412;" d="M47.147,17.358c2.287,0.832,3.016,1.625,2.184,2.379
		c-0.521,0.468-1.534,0.818-3.042,1.053c-2.028,0.312-3.445,0.611-4.251,0.896c-1.196,0.416-2.405,1.248-3.627,2.496l-2.613,2.574
		c-0.78,0.598-2.275,0.937-4.485,1.015c-2.236,0.077-4.68-0.131-7.332-0.625c-2.444-0.441-3.575-1.416-3.393-2.925
		c0.13-1.117,0.832-2.223,2.106-3.314c0.754-0.65,2.314-1.287,4.68-1.911c1.3-0.364,3.159-0.819,5.578-1.365
		c2.001-0.521,3.991-0.819,5.967-0.897C41.985,16.24,44.729,16.448,47.147,17.358z"/>
	<path style="fill-rule:evenodd;clip-rule:evenodd;fill:#915224;" d="M38.411,17.358c2.756-0.39,5.174-0.364,7.254,0.078
		c1.924,0.442,2.535,0.949,1.832,1.521c-0.441,0.39-1.352,0.767-2.729,1.131c-1.82,0.521-3.159,0.962-4.017,1.326
		c-1.015,0.442-2.016,1.144-3.003,2.105c-1.274,1.223-1.989,1.886-2.146,1.989c-0.676,0.468-2.002,0.729-3.978,0.78
		c-1.976,0.052-4.16-0.104-6.552-0.468c-2.106-0.338-3.094-1.118-2.964-2.34c0.078-0.962,0.676-1.873,1.794-2.73
		c0.65-0.521,1.846-0.962,3.588-1.326c0.988-0.208,2.457-0.494,4.407-0.857C34.368,17.995,36.539,17.592,38.411,17.358z"/>
	<path style="fill-rule:evenodd;clip-rule:evenodd;fill:#613412;" d="M41.336,21.336l-0.975,0.585
		c-3.771-0.078-6.787-0.117-9.048-0.117c-2.236,0-5.265,0.104-9.087,0.313l-0.585,1.521c2.782-0.13,5.057-0.155,6.825-0.078
		c1.768,0.078,4.953,0.039,9.555-0.116l-0.507,0.624h-2.808c-2.782,0-5.122,0.025-7.02,0.077h-6.163
		c1.326,2.133,1.326,2.354,0,0.663c-1.166-1.457-0.457-2.854,2.126-4.192c-0.166,0.128-0.355,0.29-0.566,0.487l-0.585,0.507
		c1.898-0.182,3.653-0.285,5.265-0.312C29.35,21.245,33.874,21.258,41.336,21.336z M47.888,18.021l0.39,0.39
		c-0.676,0-2.47-0.078-5.382-0.234c-2.002-0.13-4.342-0.182-7.02-0.155c-2.444,0.025-3.835,0.077-4.173,0.155l-3.626,0.897
		l2.847,0.078c1.092,0,6.383,0.194,15.873,0.585l-1.248,0.312c-1.977-0.182-4.784-0.312-8.424-0.39
		c-3.61-0.078-7.309-0.104-11.096-0.078c0.279-0.104,0.572-0.209,0.877-0.313c2.08-0.701,4.966-1.247,8.658-1.637L47.888,18.021z"/>
	<path style="fill-rule:evenodd;clip-rule:evenodd;fill:#613412;" d="M47.849,19.542c-0.182,0.468-0.598,0.741-1.248,0.819
		c-0.49,0.074-0.932,0.146-1.326,0.214c0.377-0.197,0.883-0.478,1.521-0.838c-1.17-1.17-2.041-1.885-2.613-2.146l-1.404-0.858h0.624
		l1.443,0.819c1.04,0.598,1.717,1.014,2.028,1.248C47.342,19.191,47.667,19.438,47.849,19.542z M43.363,21.023l-4.952-3.977
		l0.507-0.313l1.481,1.092c1.066,0.78,1.794,1.352,2.185,1.716c0.703,0.638,1.223,1.06,1.56,1.268
		c-0.271,0.06-0.492,0.119-0.663,0.176C43.441,20.996,43.402,21.01,43.363,21.023z M44.144,20.81
		c0.313-0.074,0.689-0.152,1.131-0.234c-0.424,0.233-0.671,0.356-0.741,0.371C44.466,20.975,44.336,20.93,44.144,20.81z
		 M38.918,23.442c-1.976,1.794-3.017,2.729-3.12,2.808c-0.806,0.546-1.885,0.845-3.237,0.896c-1.201,0.047-2.333,0.021-3.393-0.078
		l4.173-0.467c-1.248-0.988-2.327-1.898-3.237-2.73l-4.68-4.134l0.507-0.156l4.602,3.705c0.702,0.624,2.119,1.599,4.251,2.925
		l2.262-1.56c-1.248-1.431-2.223-2.51-2.925-3.237c-0.807-0.832-1.846-1.703-3.12-2.613l-0.507-0.233l0.78-0.273l3.627,2.729
		c0.91,0.729,1.885,1.729,2.925,3.004l2.027-1.834l-5.147-4.68l0.585-0.117l3.782,2.925c0.65,0.52,1.313,0.949,1.989,1.286
		l2.301-0.585C41.62,21.543,40.138,22.349,38.918,23.442z M26.204,24.729c0.373,0.448,1.101,1.202,2.184,2.263
		c-0.441-0.05-0.871-0.114-1.287-0.195c-1.3-1.586-2.171-2.69-2.613-3.314l-1.677-2.263l0.312-0.39L26.204,24.729z"/>
	
		<use xlink:href="#flash0.ai_x5F_7_x2F_Layer_2_x2F__x3C_Path_x3E__x5F_15"  width="4.449" height="1.708" x="-0.002" y="-1.7" transform="matrix(0.78 0 0 -0.78 26.7002 24.2998)" style="overflow:visible;opacity:0.5313;enable-background:new    ;"/>
	
		<use xlink:href="#flash0.ai_x5F_7_x2F_Layer_2_x2F__x3C_Path_x3E__x5F_14"  width="2.338" height="1.208" x="-0.05" y="-1.168" transform="matrix(0.78 0 0 -0.78 23.1001 24.25)" style="overflow:visible;opacity:0.5313;enable-background:new    ;"/>
	
		<use xlink:href="#flash0.ai_x5F_7_x2F_Layer_2_x2F__x3C_Path_x3E__x5F_13"  width="3.451" height="1.325" x="-0.063" y="-1.275" transform="matrix(0.78 0 0 -0.78 25.1001 21.9004)" style="overflow:visible;opacity:0.5313;enable-background:new    ;"/>
	
		<use xlink:href="#flash0.ai_x5F_7_x2F_Layer_2_x2F__x3C_Path_x3E__x5F_12"  width="1.236" height="1.108" x="-0.029" y="-1.104" transform="matrix(0.78 0 0 -0.78 24.5498 20.1504)" style="overflow:visible;opacity:0.5313;enable-background:new    ;"/>
	
		<use xlink:href="#flash0.ai_x5F_7_x2F_Layer_2_x2F__x3C_Path_x3E__x5F_11"  width="5.416" height="1.243" x="-0.034" y="-1.232" transform="matrix(0.78 0 0 -0.78 27.7002 19.6504)" style="overflow:visible;opacity:0.5313;enable-background:new    ;"/>
	
		<use xlink:href="#flash0.ai_x5F_7_x2F_Layer_2_x2F__x3C_Path_x3E__x5F_10"  width="4.972" height="1.207" x="0.02" y="-1.2" transform="matrix(0.78 0 0 -0.78 30.1499 22.0996)" style="overflow:visible;opacity:0.5313;enable-background:new    ;"/>
	
		<use xlink:href="#flash0.ai_x5F_7_x2F_Layer_2_x2F__x3C_Path_x3E__x5F_9"  width="2.943" height="1.506" x="0.002" y="-1.506" transform="matrix(0.78 0 0 -0.78 34.3999 19.6504)" style="overflow:visible;opacity:0.5313;enable-background:new    ;"/>
	
		<use xlink:href="#flash0.ai_x5F_7_x2F_Layer_2_x2F__x3C_Path_x3E__x5F_8"  width="2.674" height="0.795" x="-0.052" y="-0.773" transform="matrix(0.78 0 0 -0.78 33.1001 18.3496)" style="overflow:visible;opacity:0.5313;enable-background:new    ;"/>
	
		<use xlink:href="#flash0.ai_x5F_7_x2F_Layer_2_x2F__x3C_Path_x3E__x5F_7"  width="2.767" height="0.882" x="-0.013" y="-0.912" transform="matrix(0.78 0 0 -0.78 37.3496 18.1504)" style="overflow:visible;opacity:0.5313;enable-background:new    ;"/>
	
		<use xlink:href="#flash0.ai_x5F_7_x2F_Layer_2_x2F__x3C_Path_x3E__x5F_6"  width="3.097" height="1.129" x="0.014" y="-1.129" transform="matrix(0.78 0 0 -0.78 42 18.2998)" style="overflow:visible;opacity:0.5313;enable-background:new    ;"/>
	
		<use xlink:href="#flash0.ai_x5F_7_x2F_Layer_2_x2F__x3C_Path_x3E__x5F_5"  width="2.257" height="0.427" x="-0.018" y="-0.412" transform="matrix(0.78 0 0 -0.78 40.7998 17.1499)" style="overflow:visible;opacity:0.5313;enable-background:new    ;"/>
	
		<use xlink:href="#flash0.ai_x5F_7_x2F_Layer_2_x2F__x3C_Path_x3E__x5F_4"  width="2.562" height="0.516" x="0.007" y="-0.554" transform="matrix(0.78 0 0 -0.78 39.5498 19.9502)" style="overflow:visible;opacity:0.5313;enable-background:new    ;"/>
	
		<use xlink:href="#flash0.ai_x5F_7_x2F_Layer_2_x2F__x3C_Path_x3E__x5F_3"  width="1.882" height="0.645" x="0.007" y="-0.645" transform="matrix(0.78 0 0 -0.78 36.6504 22)" style="overflow:visible;opacity:0.5313;enable-background:new    ;"/>
	
		<use xlink:href="#flash0.ai_x5F_7_x2F_Layer_2_x2F__x3C_Path_x3E__x5F_2"  width="3.39" height="1.1" x="0.006" y="-1.075" transform="matrix(0.78 0 0 -0.78 33 24.4004)" style="overflow:visible;opacity:0.5313;enable-background:new    ;"/>
	
		<use xlink:href="#flash0.ai_x5F_7_x2F_Layer_2_x2F__x3C_Path_x3E__x5F_1"  width="1.034" height="1.005" x="-0.028" y="-1.005" transform="matrix(0.78 0 0 -0.78 22.5498 22.4004)" style="overflow:visible;opacity:0.5313;enable-background:new    ;"/>
	<path style="fill-rule:evenodd;clip-rule:evenodd;fill:#613412;" d="M31.664,28.239c-0.104-0.182,0.195-0.3,0.897-0.352
		c0.702-0.052,1.222,0.026,1.56,0.234c0.416,0.234,0.598,0.624,0.545,1.17c-0.026,0.494-0.234,0.923-0.624,1.287
		c-0.468,0.468-1.157,0.559-2.067,0.273c0.052-0.131,0.117-0.261,0.195-0.391c0.182-0.312,0.351-0.533,0.507-0.663
		c0.156-0.13,0.065-0.39-0.273-0.78C31.989,28.603,31.742,28.343,31.664,28.239z"/>
</g>
<g>
	<path style="fill-rule:evenodd;clip-rule:evenodd;fill-opacity:0.302;" d="M42.75,20.25l8.2,5.05c0.352,1.101-0.648,2.184-3,3.25
		c-1.995,1.066-6.062,1.299-12.2,0.7c-0.033,0-0.066,0-0.1,0c-1.2-0.167-2.067-0.45-2.601-0.85c-0.6-0.434-1.316-1.267-2.15-2.5
		c-0.8-1.034-1.417-1.684-1.85-1.95c-0.563-0.269-1.53-0.752-2.9-1.45c-1.172-0.591-2.506-1.425-4-2.5
		c-1.372-1.274-0.605-1.908,2.3-1.9c2.901,0.003,5.285,0.086,7.15,0.25c5,0.467,8.5,1.017,10.5,1.65
		C42.3,20.066,42.517,20.15,42.75,20.25z"/>
	<path style="fill-rule:evenodd;clip-rule:evenodd;fill:#542F15;" d="M22.303,15.655c-0.598,0.707-0.78,1.533-0.546,2.477
		c0.129,0.473,0.312,0.868,0.546,1.188l2.184,0.466c0.729,0.155,1.703,0.565,2.925,1.231c1.065,0.583,2.093,1.229,3.081,1.939
		c0.624,0.438,1.378,1.257,2.262,2.457c0.911,1.228,1.534,1.977,1.873,2.248c0.494,0.407,1.377,0.659,2.652,0.755
		c1.611,0.056,2.859,0.099,3.744,0.13c3.25,0.111,5.538-0.07,6.864-0.544c1.039-0.38,1.716-0.643,2.027-0.788
		c0.702-0.392,1.118-0.871,1.248-1.439c0.104-0.542,0.13-1.399,0.078-2.57l-0.078-1.603l-1.833-1.35
		c-5.46-1.072-10.01-2.101-13.65-3.084l-6.278-1.23C25.11,15.218,22.744,15.124,22.303,15.655z"/>
	<path style="fill-rule:evenodd;clip-rule:evenodd;fill:#915224;" d="M49.992,22.615c0.364,0.299,0.507,1.019,0.429,2.16
		c-0.077,1.35-0.649,2.253-1.716,2.71l-1.481,0.69l0.663-0.173c1.039-0.38,1.716-0.643,2.027-0.788
		c0.702-0.392,1.118-0.871,1.248-1.439c0.156-0.904,0.156-2.256,0-4.056L49.992,22.615z"/>
	<path style="fill-rule:evenodd;clip-rule:evenodd;fill:#422511;" d="M22.537,16.793c-0.469,0.53-0.403,1.404,0.195,2.62
		l1.755,0.373c0.729,0.155,1.703,0.565,2.925,1.231c1.065,0.583,2.093,1.229,3.081,1.939c0.624,0.438,1.378,1.257,2.262,2.457
		c0.911,1.228,1.534,1.977,1.873,2.248c0.494,0.407,1.352,0.658,2.574,0.753c-0.494-0.252-0.858-0.628-1.092-1.13
		c-0.208-0.476-0.26-0.933-0.156-1.371c0.312-1.575,0.416-2.521,0.312-2.836l-0.662-1.934c-6.63-3.167-10.179-4.784-10.647-4.853
		c-0.572-0.072-0.975-0.099-1.209-0.081C23.251,16.246,22.848,16.44,22.537,16.793z"/>
	<path style="fill-rule:evenodd;clip-rule:evenodd;fill:#613412;" d="M24.603,13.901c-2.288,0.753-3.016,1.521-2.184,2.304
		c0.521,0.486,1.534,0.872,3.042,1.158c2.028,0.382,3.444,0.729,4.251,1.044c1.196,0.457,2.405,1.331,3.626,2.621l2.613,2.664
		c0.78,0.625,2.275,1.015,4.485,1.169c2.235,0.154,4.68,0.031,7.332-0.371c2.443-0.358,3.574-1.294,3.393-2.809
		c-0.13-1.122-0.832-2.252-2.105-3.388c-0.754-0.675-2.314-1.367-4.681-2.072c-1.3-0.409-3.159-0.928-5.577-1.558
		c-2.002-0.589-3.991-0.957-5.967-1.103C29.764,12.961,27.021,13.074,24.603,13.901z"/>
	<path style="fill-rule:evenodd;clip-rule:evenodd;fill:#915224;" d="M33.339,14.202c-2.756-0.485-5.173-0.542-7.253-0.172
		c-1.924,0.375-2.535,0.861-1.833,1.458c0.442,0.405,1.352,0.813,2.73,1.225c1.82,0.583,3.159,1.071,4.017,1.465
		c1.014,0.477,2.015,1.213,3.003,2.209c1.274,1.267,1.989,1.954,2.146,2.063c0.676,0.491,2.002,0.797,3.978,0.917
		c1.977,0.12,4.16,0.039,6.552-0.242c2.106-0.266,3.095-1.011,2.965-2.237c-0.078-0.965-0.676-1.896-1.795-2.792
		c-0.649-0.542-1.846-1.026-3.588-1.45c-0.987-0.242-2.457-0.579-4.406-1.01C37.382,14.979,35.211,14.5,33.339,14.202z"/>
	<path style="fill-rule:evenodd;clip-rule:evenodd;fill:#613412;" d="M30.414,18.079l0.975,0.619
		c3.77,0.052,6.786,0.116,9.048,0.194c2.235,0.077,5.265,0.286,9.087,0.626l0.585,1.541c-2.782-0.226-5.057-0.33-6.825-0.313
		c-1.768,0.017-4.953-0.132-9.555-0.446l0.507,0.642l2.808,0.097c2.782,0.096,5.122,0.202,7.021,0.32l6.162,0.212
		c-1.326,2.087-1.326,2.308,0,0.663c1.166-1.417,0.457-2.839-2.126-4.266c0.166,0.133,0.354,0.302,0.565,0.507l0.585,0.527
		c-1.897-0.247-3.652-0.412-5.265-0.493C42.4,18.401,37.876,18.259,30.414,18.079z M23.863,14.539l-0.39,0.376
		c0.676,0.023,2.469,0.007,5.381-0.049c2.002-0.061,4.342-0.032,7.02,0.086c2.444,0.11,3.835,0.21,4.173,0.3l3.627,1.022
		l-2.847-0.02c-1.092-0.038-6.383-0.025-15.873,0.038l1.249,0.355c1.976-0.114,4.784-0.147,8.424-0.1
		c3.61,0.047,7.308,0.149,11.095,0.305c-0.279-0.114-0.572-0.229-0.878-0.343c-2.079-0.773-4.966-1.419-8.657-1.936L23.863,14.539z"
		/>
	<path style="fill-rule:evenodd;clip-rule:evenodd;fill:#613412;" d="M23.901,16.061c0.182,0.475,0.598,0.762,1.248,0.862
		c0.491,0.092,0.933,0.178,1.326,0.26c-0.376-0.211-0.883-0.508-1.521-0.891c1.17-1.13,2.042-1.814,2.613-2.055l1.404-0.81
		l-0.624-0.021l-1.443,0.77c-1.04,0.562-1.716,0.955-2.028,1.178C24.408,15.728,24.083,15.963,23.901,16.061z M28.386,17.697
		l4.953-3.807l-0.507-0.33l-1.482,1.041c-1.066,0.744-1.794,1.29-2.184,1.641c-0.703,0.613-1.223,1.018-1.56,1.214
		c0.271,0.069,0.492,0.136,0.663,0.198C28.309,17.667,28.348,17.682,28.386,17.697z M27.606,17.456
		c-0.313-0.085-0.689-0.176-1.131-0.273c0.424,0.248,0.671,0.379,0.741,0.396C27.284,17.61,27.414,17.569,27.606,17.456z
		 M32.832,20.269c1.976,1.862,3.017,2.834,3.12,2.916c0.806,0.573,1.886,0.91,3.237,1.009c1.201,0.087,2.332,0.101,3.393,0.038
		l-4.173-0.611c1.248-0.945,2.327-1.817,3.237-2.618l4.68-3.973l-0.507-0.173l-4.603,3.546c-0.701,0.6-2.119,1.525-4.25,2.778
		l-2.263-1.639c1.248-1.387,2.223-2.432,2.925-3.136c0.807-0.804,1.846-1.639,3.12-2.505l0.508-0.217l-0.78-0.3l-3.628,2.605
		c-0.909,0.696-1.884,1.664-2.924,2.902l-2.028-1.903l5.147-4.502l-0.585-0.137l-3.783,2.794c-0.65,0.498-1.313,0.904-1.989,1.218
		l-2.301-0.664C30.129,18.276,31.612,19.134,32.832,20.269z M45.546,21.994c-0.373,0.435-1.101,1.163-2.184,2.187
		c0.441-0.034,0.87-0.084,1.287-0.15c1.3-1.541,2.171-2.616,2.612-3.225l1.678-2.205l-0.313-0.4L45.546,21.994z"/>
	
		<use xlink:href="#flash0.ai_x5F_7_x2F_Layer_2_x2F__x3C_Path_x3E__x5F_15"  width="4.449" height="1.708" x="-0.002" y="-1.7" transform="matrix(-0.78 -0.0269 0 -0.78 45.0498 21.5498)" style="overflow:visible;opacity:0.5313;enable-background:new    ;"/>
	
		<use xlink:href="#flash0.ai_x5F_7_x2F_Layer_2_x2F__x3C_Path_x3E__x5F_14"  width="2.338" height="1.208" x="-0.05" y="-1.168" transform="matrix(-0.78 -0.0269 0 -0.78 48.6504 21.6504)" style="overflow:visible;opacity:0.5313;enable-background:new    ;"/>
	
		<use xlink:href="#flash0.ai_x5F_7_x2F_Layer_2_x2F__x3C_Path_x3E__x5F_13"  width="3.451" height="1.325" x="-0.063" y="-1.275" transform="matrix(-0.78 -0.0269 0 -0.78 46.6504 19.2002)" style="overflow:visible;opacity:0.5313;enable-background:new    ;"/>
	
		<use xlink:href="#flash0.ai_x5F_7_x2F_Layer_2_x2F__x3C_Path_x3E__x5F_12"  width="1.236" height="1.108" x="-0.029" y="-1.104" transform="matrix(-0.78 -0.0269 0 -0.78 47.2002 17.5)" style="overflow:visible;opacity:0.5313;enable-background:new    ;"/>
	
		<use xlink:href="#flash0.ai_x5F_7_x2F_Layer_2_x2F__x3C_Path_x3E__x5F_11"  width="5.416" height="1.243" x="-0.034" y="-1.232" transform="matrix(-0.78 -0.0269 0 -0.78 44.0498 16.8501)" style="overflow:visible;opacity:0.5313;enable-background:new    ;"/>
	
		<use xlink:href="#flash0.ai_x5F_7_x2F_Layer_2_x2F__x3C_Path_x3E__x5F_10"  width="4.972" height="1.207" x="0.02" y="-1.2" transform="matrix(-0.78 -0.0269 0 -0.78 41.5996 19.25)" style="overflow:visible;opacity:0.5313;enable-background:new    ;"/>
	
		<use xlink:href="#flash0.ai_x5F_7_x2F_Layer_2_x2F__x3C_Path_x3E__x5F_9"  width="2.943" height="1.506" x="0.002" y="-1.506" transform="matrix(-0.78 -0.0269 0 -0.78 37.3496 16.6499)" style="overflow:visible;opacity:0.5313;enable-background:new    ;"/>
	
		<use xlink:href="#flash0.ai_x5F_7_x2F_Layer_2_x2F__x3C_Path_x3E__x5F_8"  width="2.674" height="0.795" x="-0.052" y="-0.773" transform="matrix(-0.78 -0.0269 0 -0.78 38.6504 15.3999)" style="overflow:visible;opacity:0.5313;enable-background:new    ;"/>
	
		<use xlink:href="#flash0.ai_x5F_7_x2F_Layer_2_x2F__x3C_Path_x3E__x5F_7"  width="2.767" height="0.882" x="-0.013" y="-0.912" transform="matrix(-0.78 -0.0269 0 -0.78 34.3999 15.0498)" style="overflow:visible;opacity:0.5313;enable-background:new    ;"/>
	
		<use xlink:href="#flash0.ai_x5F_7_x2F_Layer_2_x2F__x3C_Path_x3E__x5F_6"  width="3.097" height="1.129" x="0.014" y="-1.129" transform="matrix(-0.78 -0.0269 0 -0.78 29.75 15.0498)" style="overflow:visible;opacity:0.5313;enable-background:new    ;"/>
	
		<use xlink:href="#flash0.ai_x5F_7_x2F_Layer_2_x2F__x3C_Path_x3E__x5F_5"  width="2.257" height="0.427" x="-0.018" y="-0.412" transform="matrix(-0.78 -0.0269 0 -0.78 30.9502 13.8999)" style="overflow:visible;opacity:0.5313;enable-background:new    ;"/>
	
		<use xlink:href="#flash0.ai_x5F_7_x2F_Layer_2_x2F__x3C_Path_x3E__x5F_4"  width="2.562" height="0.516" x="0.007" y="-0.554" transform="matrix(-0.78 -0.0269 0 -0.78 32.2002 16.75)" style="overflow:visible;opacity:0.5313;enable-background:new    ;"/>
	
		<use xlink:href="#flash0.ai_x5F_7_x2F_Layer_2_x2F__x3C_Path_x3E__x5F_3"  width="1.882" height="0.645" x="0.007" y="-0.645" transform="matrix(-0.78 -0.0269 0 -0.78 35.0996 18.9004)" style="overflow:visible;opacity:0.5313;enable-background:new    ;"/>
	
		<use xlink:href="#flash0.ai_x5F_7_x2F_Layer_2_x2F__x3C_Path_x3E__x5F_2"  width="3.39" height="1.1" x="0.006" y="-1.075" transform="matrix(-0.78 -0.0269 0 -0.78 38.75 21.4502)" style="overflow:visible;opacity:0.5313;enable-background:new    ;"/>
	
		<use xlink:href="#flash0.ai_x5F_7_x2F_Layer_2_x2F__x3C_Path_x3E__x5F_1"  width="1.034" height="1.005" x="-0.028" y="-1.005" transform="matrix(-0.78 -0.0269 0 -0.78 49.2002 19.7998)" style="overflow:visible;opacity:0.5313;enable-background:new    ;"/>
	<path style="fill-rule:evenodd;clip-rule:evenodd;fill:#613412;" d="M39.346,26.07c0.415-0.401,0.662-0.653,0.74-0.755
		c0.104-0.178-0.194-0.306-0.896-0.382s-1.223-0.016-1.561,0.181c-0.416,0.22-0.598,0.604-0.546,1.151
		c0.026,0.494,0.234,0.931,0.624,1.308c0.468,0.485,1.157,0.6,2.067,0.345c-0.052-0.132-0.117-0.264-0.195-0.396
		c-0.182-0.318-0.351-0.545-0.507-0.681S39.008,26.448,39.346,26.07z"/>
</g>
<g>
	<path style="fill-rule:evenodd;clip-rule:evenodd;fill-opacity:0.302;" d="M48,16.55c-0.467,1.167-1.083,1.884-1.85,2.15
		c-1.733,0.633-2.884,1.083-3.45,1.35c-0.434,0.233-1.05,0.867-1.851,1.9c-0.833,1.2-1.55,2-2.149,2.399
		c-1.4,0.967-5.083,1.101-11.05,0.4c-1.333-0.2-1.6-0.816-0.8-1.85L39.5,20.3l-9-4.85c1.367-0.3,3.233-0.567,5.6-0.8
		C41.566,14.217,45.533,14.85,48,16.55z"/>
	<path style="fill-rule:evenodd;clip-rule:evenodd;fill:#542F15;" d="M49.447,11.991c0.598,0.728,0.78,1.56,0.546,2.496
		c-0.129,0.468-0.312,0.858-0.546,1.17l-2.184,0.39c-0.729,0.13-1.703,0.507-2.925,1.131c-1.065,0.546-2.093,1.157-3.081,1.833
		c-0.624,0.416-1.378,1.209-2.262,2.379c-0.91,1.196-1.534,1.924-1.872,2.184c-0.494,0.391-1.378,0.611-2.652,0.664
		c-1.612,0-2.86,0-3.744,0c-3.25,0-5.538-0.261-6.864-0.78c-1.04-0.416-1.716-0.702-2.028-0.858
		c-0.702-0.416-1.118-0.91-1.248-1.481c-0.104-0.546-0.13-1.404-0.078-2.574l0.078-1.599l1.833-1.287
		c5.46-0.884,10.01-1.755,13.65-2.613l6.278-1.014C46.64,11.458,49.006,11.445,49.447,11.991z"/>
	<path style="fill-rule:evenodd;clip-rule:evenodd;fill:#915224;" d="M21.758,17.997c-0.364,0.287-0.507,1.001-0.429,2.145
		c0.078,1.353,0.65,2.275,1.716,2.77l1.482,0.741l-0.663-0.195c-1.04-0.416-1.716-0.702-2.028-0.858
		c-0.702-0.416-1.118-0.91-1.248-1.481c-0.156-0.91-0.156-2.263,0-4.056L21.758,17.997z"/>
	<path style="fill-rule:evenodd;clip-rule:evenodd;fill:#422511;" d="M49.214,13.122c0.468,0.546,0.402,1.417-0.195,2.613
		l-1.755,0.312c-0.729,0.13-1.703,0.507-2.925,1.131c-1.065,0.546-2.093,1.157-3.081,1.833c-0.624,0.416-1.378,1.209-2.262,2.379
		c-0.91,1.196-1.534,1.924-1.872,2.184c-0.494,0.391-1.353,0.611-2.574,0.664c0.494-0.234,0.858-0.599,1.092-1.093
		c0.208-0.468,0.26-0.923,0.156-1.365c-0.312-1.585-0.416-2.534-0.312-2.847l0.662-1.911c6.63-2.938,10.179-4.433,10.647-4.485
		c0.572-0.052,0.975-0.064,1.209-0.039C48.499,12.55,48.902,12.758,49.214,13.122z"/>
	<path style="fill-rule:evenodd;clip-rule:evenodd;fill:#613412;" d="M47.147,10.158c2.287,0.832,3.016,1.625,2.184,2.379
		c-0.521,0.468-1.534,0.819-3.042,1.053c-2.028,0.312-3.445,0.611-4.251,0.897c-1.196,0.416-2.405,1.248-3.627,2.496l-2.613,2.574
		c-0.78,0.598-2.275,0.937-4.485,1.015c-2.236,0.077-4.68-0.131-7.332-0.625c-2.444-0.441-3.575-1.416-3.393-2.925
		c0.13-1.118,0.832-2.223,2.106-3.315c0.754-0.649,2.314-1.287,4.68-1.911c1.3-0.364,3.159-0.819,5.578-1.365
		c2.001-0.521,3.991-0.819,5.967-0.897C41.985,9.04,44.729,9.248,47.147,10.158z"/>
	<path style="fill-rule:evenodd;clip-rule:evenodd;fill:#915224;" d="M38.411,10.158c2.756-0.39,5.174-0.364,7.254,0.078
		c1.924,0.442,2.535,0.949,1.832,1.521c-0.441,0.39-1.352,0.767-2.729,1.131c-1.82,0.52-3.159,0.962-4.017,1.326
		c-1.015,0.442-2.016,1.144-3.003,2.106c-1.274,1.222-1.989,1.885-2.146,1.989c-0.676,0.468-2.002,0.729-3.978,0.78
		c-1.976,0.052-4.16-0.104-6.552-0.468c-2.106-0.338-3.094-1.118-2.964-2.34c0.078-0.962,0.676-1.872,1.794-2.73
		c0.65-0.52,1.846-0.962,3.588-1.326c0.988-0.208,2.457-0.494,4.407-0.858C34.368,10.794,36.539,10.392,38.411,10.158z"/>
	<path style="fill-rule:evenodd;clip-rule:evenodd;fill:#613412;" d="M41.336,14.136l-0.975,0.585
		c-3.771-0.078-6.787-0.118-9.048-0.118c-2.236,0-5.265,0.104-9.087,0.313l-0.585,1.521c2.782-0.13,5.057-0.156,6.825-0.078
		c1.768,0.078,4.953,0.04,9.555-0.117l-0.507,0.624h-2.808c-2.782,0-5.122,0.026-7.02,0.078h-6.163c1.326,2.132,1.326,2.353,0,0.663
		c-1.166-1.458-0.457-2.855,2.126-4.193c-0.166,0.128-0.355,0.29-0.566,0.488l-0.585,0.507c1.898-0.182,3.653-0.286,5.265-0.312
		C29.35,14.045,33.874,14.058,41.336,14.136z M47.888,10.821l0.39,0.39c-0.676,0-2.47-0.078-5.382-0.234
		c-2.002-0.13-4.342-0.182-7.02-0.156c-2.444,0.026-3.835,0.078-4.173,0.156l-3.626,0.897l2.847,0.078
		c1.092,0,6.383,0.195,15.873,0.585l-1.248,0.312c-1.977-0.182-4.784-0.312-8.424-0.39c-3.61-0.077-7.309-0.103-11.096-0.078
		c0.279-0.104,0.572-0.208,0.877-0.312c2.08-0.702,4.966-1.248,8.658-1.638L47.888,10.821z"/>
	<path style="fill-rule:evenodd;clip-rule:evenodd;fill:#613412;" d="M47.849,12.342c-0.182,0.468-0.598,0.741-1.248,0.819
		c-0.49,0.075-0.932,0.146-1.326,0.214c0.377-0.198,0.883-0.478,1.521-0.839c-1.17-1.17-2.041-1.885-2.613-2.145l-1.404-0.858h0.624
		l1.443,0.819c1.04,0.598,1.717,1.014,2.028,1.248C47.342,11.991,47.667,12.238,47.849,12.342z M43.363,13.824l-4.952-3.978
		l0.507-0.313l1.481,1.092c1.066,0.78,1.794,1.352,2.185,1.716c0.703,0.638,1.223,1.06,1.56,1.268
		c-0.271,0.06-0.492,0.119-0.663,0.175C43.441,13.796,43.402,13.809,43.363,13.824z M44.144,13.609
		c0.313-0.074,0.689-0.152,1.131-0.234c-0.424,0.233-0.671,0.356-0.741,0.371C44.466,13.775,44.336,13.729,44.144,13.609z
		 M38.918,16.242c-1.976,1.794-3.017,2.73-3.12,2.808c-0.806,0.546-1.885,0.845-3.237,0.896c-1.201,0.047-2.333,0.021-3.393-0.078
		l4.173-0.467c-1.248-0.988-2.327-1.898-3.237-2.73l-4.68-4.134l0.507-0.156l4.602,3.705c0.702,0.624,2.119,1.599,4.251,2.925
		l2.262-1.56c-1.248-1.43-2.223-2.509-2.925-3.237c-0.807-0.832-1.846-1.703-3.12-2.613l-0.507-0.234l0.78-0.273l3.627,2.73
		c0.91,0.728,1.885,1.729,2.925,3.003l2.027-1.833l-5.147-4.68l0.585-0.117l3.782,2.925c0.65,0.521,1.313,0.949,1.989,1.287
		l2.301-0.585C41.62,14.342,40.138,15.148,38.918,16.242z M26.204,17.529c0.373,0.447,1.101,1.202,2.184,2.262
		c-0.441-0.05-0.871-0.114-1.287-0.195c-1.3-1.586-2.171-2.691-2.613-3.315l-1.677-2.262l0.312-0.39L26.204,17.529z"/>
	
		<use xlink:href="#flash0.ai_x5F_7_x2F_Layer_2_x2F__x3C_Path_x3E__x5F_15"  width="4.449" height="1.708" x="-0.002" y="-1.7" transform="matrix(0.78 0 0 -0.78 26.7002 17.1001)" style="overflow:visible;opacity:0.5313;enable-background:new    ;"/>
	
		<use xlink:href="#flash0.ai_x5F_7_x2F_Layer_2_x2F__x3C_Path_x3E__x5F_14"  width="2.338" height="1.208" x="-0.05" y="-1.168" transform="matrix(0.78 0 0 -0.78 23.1001 17.0498)" style="overflow:visible;opacity:0.5313;enable-background:new    ;"/>
	
		<use xlink:href="#flash0.ai_x5F_7_x2F_Layer_2_x2F__x3C_Path_x3E__x5F_13"  width="3.451" height="1.325" x="-0.063" y="-1.275" transform="matrix(0.78 0 0 -0.78 25.1001 14.7002)" style="overflow:visible;opacity:0.5313;enable-background:new    ;"/>
	
		<use xlink:href="#flash0.ai_x5F_7_x2F_Layer_2_x2F__x3C_Path_x3E__x5F_12"  width="1.236" height="1.108" x="-0.029" y="-1.104" transform="matrix(0.78 0 0 -0.78 24.5498 12.9502)" style="overflow:visible;opacity:0.5313;enable-background:new    ;"/>
	
		<use xlink:href="#flash0.ai_x5F_7_x2F_Layer_2_x2F__x3C_Path_x3E__x5F_11"  width="5.416" height="1.243" x="-0.034" y="-1.232" transform="matrix(0.78 0 0 -0.78 27.7002 12.4502)" style="overflow:visible;opacity:0.5313;enable-background:new    ;"/>
	
		<use xlink:href="#flash0.ai_x5F_7_x2F_Layer_2_x2F__x3C_Path_x3E__x5F_10"  width="4.972" height="1.207" x="0.02" y="-1.2" transform="matrix(0.78 0 0 -0.78 30.1499 14.8999)" style="overflow:visible;opacity:0.5313;enable-background:new    ;"/>
	
		<use xlink:href="#flash0.ai_x5F_7_x2F_Layer_2_x2F__x3C_Path_x3E__x5F_9"  width="2.943" height="1.506" x="0.002" y="-1.506" transform="matrix(0.78 0 0 -0.78 34.3999 12.4502)" style="overflow:visible;opacity:0.5313;enable-background:new    ;"/>
	
		<use xlink:href="#flash0.ai_x5F_7_x2F_Layer_2_x2F__x3C_Path_x3E__x5F_8"  width="2.674" height="0.795" x="-0.052" y="-0.773" transform="matrix(0.78 0 0 -0.78 33.1001 11.1499)" style="overflow:visible;opacity:0.5313;enable-background:new    ;"/>
	
		<use xlink:href="#flash0.ai_x5F_7_x2F_Layer_2_x2F__x3C_Path_x3E__x5F_7"  width="2.767" height="0.882" x="-0.013" y="-0.912" transform="matrix(0.78 0 0 -0.78 37.3496 10.9502)" style="overflow:visible;opacity:0.5313;enable-background:new    ;"/>
	
		<use xlink:href="#flash0.ai_x5F_7_x2F_Layer_2_x2F__x3C_Path_x3E__x5F_6"  width="3.097" height="1.129" x="0.014" y="-1.129" transform="matrix(0.78 0 0 -0.78 42 11.1001)" style="overflow:visible;opacity:0.5313;enable-background:new    ;"/>
	
		<use xlink:href="#flash0.ai_x5F_7_x2F_Layer_2_x2F__x3C_Path_x3E__x5F_5"  width="2.257" height="0.427" x="-0.018" y="-0.412" transform="matrix(0.78 0 0 -0.78 40.7998 9.9502)" style="overflow:visible;opacity:0.5313;enable-background:new    ;"/>
	
		<use xlink:href="#flash0.ai_x5F_7_x2F_Layer_2_x2F__x3C_Path_x3E__x5F_4"  width="2.562" height="0.516" x="0.007" y="-0.554" transform="matrix(0.78 0 0 -0.78 39.5498 12.75)" style="overflow:visible;opacity:0.5313;enable-background:new    ;"/>
	
		<use xlink:href="#flash0.ai_x5F_7_x2F_Layer_2_x2F__x3C_Path_x3E__x5F_3"  width="1.882" height="0.645" x="0.007" y="-0.645" transform="matrix(0.78 0 0 -0.78 36.6504 14.7998)" style="overflow:visible;opacity:0.5313;enable-background:new    ;"/>
	
		<use xlink:href="#flash0.ai_x5F_7_x2F_Layer_2_x2F__x3C_Path_x3E__x5F_2"  width="3.39" height="1.1" x="0.006" y="-1.075" transform="matrix(0.78 0 0 -0.78 33 17.2002)" style="overflow:visible;opacity:0.5313;enable-background:new    ;"/>
	
		<use xlink:href="#flash0.ai_x5F_7_x2F_Layer_2_x2F__x3C_Path_x3E__x5F_1"  width="1.034" height="1.005" x="-0.028" y="-1.005" transform="matrix(0.78 0 0 -0.78 22.5498 15.2002)" style="overflow:visible;opacity:0.5313;enable-background:new    ;"/>
	<path style="fill-rule:evenodd;clip-rule:evenodd;fill:#613412;" d="M32.678,22.599c0.156-0.13,0.065-0.39-0.273-0.78
		c-0.416-0.416-0.663-0.676-0.741-0.779c-0.104-0.182,0.195-0.3,0.897-0.352c0.702-0.052,1.222,0.026,1.56,0.234
		c0.416,0.234,0.598,0.624,0.545,1.17c-0.026,0.494-0.234,0.923-0.624,1.287c-0.468,0.468-1.157,0.559-2.067,0.273
		c0.052-0.131,0.117-0.261,0.195-0.391C32.353,22.95,32.521,22.729,32.678,22.599z"/>
</g>
<g>
	<path style="fill-rule:evenodd;clip-rule:evenodd;fill-opacity:0.302;" d="M44.27,9.451l5.582,2.724
		c0.09,0.762-0.879,1.67-2.906,2.725c-1.747,1.012-4.979,1.659-9.697,1.942c-0.025,0.004-0.052,0.008-0.078,0.012
		c-0.914,0.019-1.547-0.086-1.897-0.315c-0.397-0.246-0.819-0.77-1.264-1.573c-0.453-0.661-0.827-1.063-1.122-1.207
		c-0.396-0.13-1.074-0.37-2.031-0.718c-0.82-0.294-1.726-0.746-2.717-1.356c-0.861-0.77-0.151-1.322,2.128-1.657
		c2.277-0.338,4.134-0.557,5.571-0.656c3.846-0.246,6.5-0.255,7.963-0.027C43.947,9.37,44.103,9.406,44.27,9.451z"/>
	<path style="fill-rule:evenodd;clip-rule:evenodd;fill:#542F15;" d="M29.087,8.785c-0.589,0.586-0.872,1.21-0.849,1.872
		c0.022,0.33,0.098,0.598,0.228,0.804l1.636,0.083c0.545,0.028,1.241,0.213,2.088,0.556c0.738,0.3,1.435,0.652,2.09,1.054
		c0.416,0.246,0.869,0.755,1.36,1.528c0.507,0.789,0.869,1.263,1.089,1.421c0.318,0.239,0.97,0.319,1.954,0.24
		c1.256-0.148,2.229-0.263,2.917-0.345c2.533-0.3,4.36-0.701,5.481-1.202c0.881-0.399,1.457-0.671,1.727-0.813
		c0.617-0.368,1.025-0.767,1.224-1.197c0.173-0.408,0.339-1.037,0.497-1.886l0.21-1.16l-1.21-0.771
		c-4.105-0.142-7.504-0.358-10.195-0.649l-4.721-0.162C31.366,8.137,29.524,8.345,29.087,8.785z"/>
	<path style="fill-rule:evenodd;clip-rule:evenodd;fill:#915224;" d="M49.648,10.617c0.234,0.175,0.225,0.684-0.029,1.526
		c-0.29,0.994-0.893,1.721-1.807,2.18L46.531,15l0.55-0.204c0.881-0.399,1.457-0.671,1.727-0.813
		c0.617-0.368,1.025-0.767,1.224-1.197c0.275-0.679,0.505-1.666,0.688-2.961L49.648,10.617z"/>
	<path style="fill-rule:evenodd;clip-rule:evenodd;fill:#422511;" d="M29.078,9.588c-0.458,0.442-0.554,1.072-0.291,1.89
		l1.315,0.066c0.545,0.028,1.241,0.213,2.088,0.556c0.738,0.3,1.435,0.652,2.09,1.054c0.416,0.246,0.869,0.755,1.36,1.528
		c0.507,0.789,0.869,1.263,1.089,1.421c0.318,0.239,0.949,0.321,1.894,0.247c-0.346-0.125-0.567-0.357-0.666-0.697
		c-0.083-0.322-0.047-0.649,0.109-0.982c0.512-1.187,0.754-1.889,0.726-2.107l-0.192-1.334c-4.669-1.534-7.181-2.298-7.537-2.293
		c-0.437,0.015-0.749,0.042-0.936,0.083C29.732,9.105,29.383,9.294,29.078,9.588z"/>
	<path style="fill-rule:evenodd;clip-rule:evenodd;fill:#613412;" d="M31.191,7.234c-1.923,0.818-2.625,1.464-2.105,1.938
		c0.326,0.293,1.057,0.457,2.192,0.488c1.527,0.041,2.581,0.128,3.161,0.263c0.862,0.193,1.663,0.689,2.403,1.488l1.601,1.638
		c0.507,0.365,1.614,0.474,3.323,0.327c1.729-0.149,3.669-0.526,5.819-1.131c1.979-0.548,3.026-1.364,3.14-2.448
		c0.089-0.804-0.271-1.546-1.079-2.226c-0.478-0.405-1.585-0.726-3.323-0.963C45.371,6.462,44,6.301,42.208,6.125
		c-1.473-0.195-2.972-0.23-4.498-0.105C35.402,5.942,33.23,6.347,31.191,7.234z"/>
	<path style="fill-rule:evenodd;clip-rule:evenodd;fill:#915224;" d="M37.999,6.429c-2.082-0.031-3.97,0.211-5.666,0.726
		c-1.575,0.5-2.136,0.926-1.686,1.279c0.278,0.244,0.923,0.436,1.936,0.574c1.33,0.212,2.299,0.411,2.906,0.598
		c0.715,0.229,1.376,0.649,1.983,1.261c0.785,0.775,1.23,1.193,1.334,1.254c0.447,0.279,1.438,0.347,2.968,0.203
		c1.531-0.144,3.26-0.459,5.186-0.945c1.698-0.441,2.601-1.102,2.706-1.981c0.103-0.695-0.209-1.304-0.936-1.827
		c-0.418-0.32-1.275-0.532-2.571-0.638c-0.734-0.061-1.831-0.134-3.288-0.22C41.042,6.521,39.418,6.427,37.999,6.429z"/>
	<path style="fill-rule:evenodd;clip-rule:evenodd;fill:#613412;" d="M35.045,9.603l0.661,0.337
		c2.951-0.404,5.309-0.711,7.071-0.919c1.742-0.206,4.085-0.409,7.028-0.609l0.198,1.056c-2.146,0.162-3.915,0.352-5.306,0.572
		c-1.392,0.22-3.866,0.485-7.427,0.795l0.29,0.409l2.188-0.259c2.168-0.257,3.987-0.453,5.458-0.59l4.802-0.568
		c-1.395,1.678-1.432,1.84-0.112,0.484c1.155-1.171,0.84-2.126-0.945-2.865c0.107,0.078,0.227,0.179,0.357,0.304l0.37,0.316
		c-1.448,0.042-2.798,0.128-4.05,0.257C44.401,8.432,40.874,8.858,35.045,9.603z M30.501,7.787l-0.37,0.321
		c0.527-0.063,1.938-0.285,4.234-0.667c1.582-0.279,3.414-0.533,5.497-0.761c1.9-0.207,2.976-0.297,3.226-0.271l2.674,0.321
		L43.53,7.049c-0.851,0.101-5.007,0.73-12.469,1.89l0.92,0.113c1.571-0.315,3.78-0.668,6.631-1.061
		c2.826-0.389,5.713-0.749,8.659-1.079c-0.199-0.051-0.41-0.1-0.631-0.147c-1.502-0.321-3.658-0.453-6.469-0.397L30.501,7.787z"/>
	<path style="fill-rule:evenodd;clip-rule:evenodd;fill:#613412;" d="M30.274,8.893c0.063,0.325,0.34,0.486,0.833,0.483
		c0.37,0.009,0.702,0.021,0.997,0.034c-0.259-0.11-0.607-0.268-1.043-0.472c1.11-0.962,1.91-1.564,2.4-1.807l1.24-0.756
		l-0.486,0.058l-1.264,0.731c-0.912,0.532-1.509,0.898-1.792,1.098C30.729,8.59,30.434,8.8,30.274,8.893z M33.518,9.562l4.534-3.36
		L37.71,6.021l-1.34,0.934c-0.963,0.668-1.627,1.152-1.993,1.454c-0.656,0.53-1.132,0.886-1.43,1.069
		c0.201,0.019,0.363,0.042,0.486,0.067C33.462,9.549,33.49,9.555,33.518,9.562z M32.947,9.477c-0.231-0.025-0.512-0.047-0.842-0.066
		c0.292,0.131,0.463,0.198,0.515,0.202C32.667,9.627,32.776,9.583,32.947,9.477z M36.573,10.917
		c1.235,1.128,1.887,1.715,1.955,1.763c0.535,0.324,1.326,0.443,2.37,0.356c0.929-0.077,1.814-0.2,2.658-0.37l-3.173,0.043
		c1.14-0.836,2.135-1.6,2.985-2.292l4.348-3.449l-0.369-0.067l-4.214,3.129c-0.653,0.52-1.923,1.362-3.809,2.527l-1.499-0.93
		c1.216-1.159,2.158-2.037,2.828-2.633c0.77-0.682,1.728-1.413,2.875-2.195l0.435-0.218l-0.562-0.127l-3.289,2.327
		c-0.833,0.615-1.763,1.436-2.789,2.462l-1.27-1.151l4.805-3.891L40.424,6.17L36.98,8.654c-0.595,0.44-1.185,0.814-1.769,1.123
		l-1.694-0.215C34.789,9.78,35.807,10.231,36.573,10.917z M46.263,10.685c-0.366,0.361-1.062,0.979-2.086,1.853
		c0.353-0.077,0.698-0.164,1.036-0.261c1.282-1.278,2.148-2.165,2.599-2.661l1.69-1.806l-0.178-0.256L46.263,10.685z"/>
	
		<use xlink:href="#flash0.ai_x5F_7_x2F_Layer_2_x2F__x3C_Path_x3E__x5F_15"  width="4.449" height="1.708" x="-0.002" y="-1.7" transform="matrix(-0.6078 0.0719 0.1322 -0.5694 46.0498 10.4502)" style="overflow:visible;opacity:0.5313;enable-background:new    ;"/>
	
		<use xlink:href="#flash0.ai_x5F_7_x2F_Layer_2_x2F__x3C_Path_x3E__x5F_14"  width="2.338" height="1.208" x="-0.05" y="-1.168" transform="matrix(-0.6078 0.0719 0.1322 -0.5694 48.6504 9.9502)" style="overflow:visible;opacity:0.5313;enable-background:new    ;"/>
	
		<use xlink:href="#flash0.ai_x5F_7_x2F_Layer_2_x2F__x3C_Path_x3E__x5F_13"  width="3.451" height="1.325" x="-0.063" y="-1.275" transform="matrix(-0.6078 0.0719 0.1322 -0.5694 47.4502 8.6499)" style="overflow:visible;opacity:0.5313;enable-background:new    ;"/>
	
		<use xlink:href="#flash0.ai_x5F_7_x2F_Layer_2_x2F__x3C_Path_x3E__x5F_12"  width="1.236" height="1.108" x="-0.029" y="-1.104" transform="matrix(-0.6078 0.0719 0.1322 -0.5694 48.2002 7.2998)" style="overflow:visible;opacity:0.5313;enable-background:new    ;"/>
	
		<use xlink:href="#flash0.ai_x5F_7_x2F_Layer_2_x2F__x3C_Path_x3E__x5F_11"  width="5.416" height="1.243" x="-0.034" y="-1.232" transform="matrix(-0.6078 0.0719 0.1322 -0.5694 45.5 7.2998)" style="overflow:visible;opacity:0.5313;enable-background:new    ;"/>
	
		<use xlink:href="#flash0.ai_x5F_7_x2F_Layer_2_x2F__x3C_Path_x3E__x5F_10"  width="4.972" height="1.207" x="0.02" y="-1.2" transform="matrix(-0.6078 0.0719 0.1322 -0.5694 43.8496 9.3999)" style="overflow:visible;opacity:0.5313;enable-background:new    ;"/>
	
		<use xlink:href="#flash0.ai_x5F_7_x2F_Layer_2_x2F__x3C_Path_x3E__x5F_9"  width="2.943" height="1.506" x="0.002" y="-1.506" transform="matrix(-0.6078 0.0719 0.1322 -0.5694 40.4502 8.0498)" style="overflow:visible;opacity:0.5313;enable-background:new    ;"/>
	
		<use xlink:href="#flash0.ai_x5F_7_x2F_Layer_2_x2F__x3C_Path_x3E__x5F_8"  width="2.674" height="0.795" x="-0.052" y="-0.773" transform="matrix(-0.6078 0.0719 0.1322 -0.5694 41.5 6.7998)" style="overflow:visible;opacity:0.5313;enable-background:new    ;"/>
	
		<use xlink:href="#flash0.ai_x5F_7_x2F_Layer_2_x2F__x3C_Path_x3E__x5F_7"  width="2.767" height="0.882" x="-0.013" y="-0.912" transform="matrix(-0.6078 0.0719 0.1322 -0.5694 38.8496 7)" style="overflow:visible;opacity:0.5313;enable-background:new    ;"/>
	
		<use xlink:href="#flash0.ai_x5F_7_x2F_Layer_2_x2F__x3C_Path_x3E__x5F_6"  width="3.097" height="1.129" x="0.014" y="-1.129" transform="matrix(-0.6078 0.0719 0.1322 -0.5694 34.75 7.4502)" style="overflow:visible;opacity:0.5313;enable-background:new    ;"/>
	
		<use xlink:href="#flash0.ai_x5F_7_x2F_Layer_2_x2F__x3C_Path_x3E__x5F_5"  width="2.257" height="0.427" x="-0.018" y="-0.412" transform="matrix(-0.6078 0.0719 0.1322 -0.5694 35.8496 6.6001)" style="overflow:visible;opacity:0.5313;enable-background:new    ;"/>
	
		<use xlink:href="#flash0.ai_x5F_7_x2F_Layer_2_x2F__x3C_Path_x3E__x5F_4"  width="2.562" height="0.516" x="0.007" y="-0.554" transform="matrix(-0.6078 0.0719 0.1322 -0.5694 36.2002 8.6499)" style="overflow:visible;opacity:0.5313;enable-background:new    ;"/>
	
		<use xlink:href="#flash0.ai_x5F_7_x2F_Layer_2_x2F__x3C_Path_x3E__x5F_3"  width="1.882" height="0.645" x="0.007" y="-0.645" transform="matrix(-0.6078 0.0719 0.1322 -0.5694 38.7002 9.6001)" style="overflow:visible;opacity:0.5313;enable-background:new    ;"/>
	
		<use xlink:href="#flash0.ai_x5F_7_x2F_Layer_2_x2F__x3C_Path_x3E__x5F_2"  width="3.39" height="1.1" x="0.006" y="-1.075" transform="matrix(-0.6078 0.0719 0.1322 -0.5694 41.0498 11.25)" style="overflow:visible;opacity:0.5313;enable-background:new    ;"/>
	
		<use xlink:href="#flash0.ai_x5F_7_x2F_Layer_2_x2F__x3C_Path_x3E__x5F_1"  width="1.034" height="1.005" x="-0.028" y="-1.005" transform="matrix(-0.6078 0.0719 0.1322 -0.5694 49.0996 8.7998)" style="overflow:visible;opacity:0.5313;enable-background:new    ;"/>
	<path style="fill-rule:evenodd;clip-rule:evenodd;fill:#613412;" d="M40.358,14.982c-0.1-0.08,0.016-0.278,0.345-0.594
		c0.395-0.342,0.631-0.555,0.71-0.638c0.111-0.143-0.102-0.2-0.64-0.173c-0.538,0.026-0.957,0.131-1.256,0.314
		c-0.363,0.209-0.571,0.511-0.623,0.904c-0.063,0.358,0.025,0.652,0.268,0.882c0.285,0.299,0.807,0.302,1.564,0.009
		c-0.019-0.09-0.047-0.18-0.086-0.267C40.552,15.209,40.458,15.063,40.358,14.982z"/>
</g>
</svg>
