<?xml version="1.0" encoding="iso-8859-1"?>
<!-- Generator: Adobe Illustrator 15.1.0, SVG Export Plug-In . SVG Version: 6.00 Build 0)  -->
<!DOCTYPE svg PUBLIC "-//W3C//DTD SVG 1.1//EN" "http://www.w3.org/Graphics/SVG/1.1/DTD/svg11.dtd">
<svg version="1.1" id="flash0.ai" xmlns="http://www.w3.org/2000/svg" xmlns:xlink="http://www.w3.org/1999/xlink" x="0px" y="0px"
	 width="28px" height="43.3px" viewBox="0 0 28 43.3" style="enable-background:new 0 0 28 43.3;" xml:space="preserve">
<symbol  id="flash0.ai_x5F_8_x2F_Layer_43_x2F__x3C_Path_x3E__x5F_10" viewBox="0 -31.5 5.3 31.5">
	<g id="Layer_1_6_">
		<linearGradient id="SVGID_1_" gradientUnits="userSpaceOnUse" x1="4.2661" y1="-27.4805" x2="2.5161" y2="-2.3805">
			<stop  offset="0" style="stop-color:#FFFFFF"/>
			<stop  offset="1" style="stop-color:#000000"/>
		</linearGradient>
		<path style="fill-rule:evenodd;clip-rule:evenodd;fill:url(#SVGID_1_);" d="M2-0.55c0.167-0.6,0.617-1.483,1.35-2.65
			C3.55-3.5,3.933-4,4.5-4.7C5-5.4,5.267-6,5.3-6.5l-0.35-21l-0.4-0.85c-0.333-0.667-0.7-1.233-1.1-1.7
			c-0.6-0.733-1.067-1.217-1.4-1.45c0.333,1.267,0.517,3.333,0.55,6.2c0.066,2.4,0.083,5.767,0.05,10.1c0,4.633-0.05,7.267-0.15,7.9
			C2.433-6.8,2.167-6.017,1.7-4.95C1.133-3.583,0.767-2.667,0.6-2.2C0.2-1,0-0.267,0,0L2-0.55z"/>
	</g>
</symbol>
<symbol  id="flash0.ai_x5F_8_x2F_Layer_43_x2F__x3C_Path_x3E__x5F_11" viewBox="0 -31.5 5.25 31.5">
	<g id="Layer_1_4_">
		
			<linearGradient id="SVGID_2_" gradientUnits="userSpaceOnUse" x1="-538.4316" y1="-15758.1426" x2="-513.2707" y2="-15758.1426" gradientTransform="matrix(0.0696 -0.9976 0.9976 0.0696 15759.415 556.4365)">
			<stop  offset="0" style="stop-color:#FFFFFF"/>
			<stop  offset="1" style="stop-color:#000000"/>
		</linearGradient>
		<path style="fill-rule:evenodd;clip-rule:evenodd;fill:url(#SVGID_2_);" d="M3.3-0.55L5.25,0c0-0.267-0.2-1-0.6-2.2
			C4.483-2.733,4.133-3.65,3.6-4.95C3.133-6.017,2.867-6.8,2.8-7.3c-0.1-0.6-0.15-3.233-0.15-7.9c-0.033-3.966-0.033-7.333,0-10.1
			c0.033-2.867,0.233-4.934,0.6-6.2c-0.367,0.233-0.85,0.717-1.45,1.45c-0.367,0.466-0.733,1.033-1.1,1.7L0.3-27.5L0-6.5
			C0.033-6,0.3-5.4,0.8-4.7C1.4-4,1.783-3.5,1.95-3.2C2.683-2.033,3.133-1.15,3.3-0.55z"/>
	</g>
</symbol>
<symbol  id="flash0.ai_x5F_8_x2F_Layer_43_x2F__x3C_Path_x3E__x5F_4" viewBox="-0.022 -1.206 9.522 1.206">
	<g id="Layer_1_7_">
		<path style="fill-rule:evenodd;clip-rule:evenodd;fill:#FFFFFF;" d="M0.4-0.05c0.633-0.2,1.667-0.4,3.1-0.6
			c1.8-0.267,3.8-0.4,6-0.4c-0.067-0.167-1.15-0.2-3.25-0.1c-2.533,0.066-4.533,0.35-6,0.85C0.017-0.2-0.067-0.117,0-0.05
			C0.067,0.017,0.2,0.017,0.4-0.05z"/>
	</g>
</symbol>
<symbol  id="flash0.ai_x5F_8_x2F_Layer_43_x2F__x3C_Path_x3E__x5F_9" viewBox="0 -3.112 16.45 3.112">
	<g id="Layer_1_5_">
		<path style="fill-rule:evenodd;clip-rule:evenodd;fill:#94894D;" d="M15.55,0c0.1-0.233,0.4-0.717,0.9-1.45
			c-1.467-1.2-4.034-1.75-7.7-1.65C4.617-3,1.7-2.25,0-0.85L0.5,0L8-0.4L15.55,0z"/>
	</g>
</symbol>
<symbol  id="jar" viewBox="0 -33.963 24.15 33.963">
	<g id="Layer_1_2_">
		<linearGradient id="SVGID_3_" gradientUnits="userSpaceOnUse" x1="-0.0376" y1="-16.9814" x2="24.1374" y2="-16.9814">
			<stop  offset="0" style="stop-color:#FFE8AD"/>
			<stop  offset="1" style="stop-color:#8F7441"/>
		</linearGradient>
		<path style="fill-rule:evenodd;clip-rule:evenodd;fill:url(#SVGID_3_);" d="M24.15-9.1c0-1.267-0.117-4.467-0.35-9.6
			c-0.2-4.433-0.35-7.3-0.45-8.6c-0.1-1.067-0.567-2.1-1.4-3.1c-1.1-1.367-2.717-2.35-4.85-2.95c-1.733-0.467-3.417-0.667-5.05-0.6
			c-1.6-0.066-3.267,0.133-5,0.6c-2.133,0.6-3.75,1.583-4.85,2.95c-0.833,1-1.3,2.033-1.4,3.1c-0.066,0.867-0.216,3.733-0.45,8.6
			C0.117-13.667,0-10.467,0-9.1c0,1.4,0.15,2.5,0.45,3.3c0.267,0.667,0.733,1.367,1.4,2.1C3.183-2.267,4.083-1.033,4.55,0l7.5-0.4
			L19.6,0c0.467-1.033,1.367-2.267,2.7-3.7c0.667-0.733,1.133-1.433,1.4-2.1C24-6.6,24.15-7.7,24.15-9.1z"/>
	</g>
</symbol>
<symbol  id="jartwo" viewBox="0 -3.112 16.45 3.112">
	<g id="Layer_1_9_">
		
			<use xlink:href="#flash0.ai_x5F_8_x2F_Layer_43_x2F__x3C_Path_x3E__x5F_9"  width="16.45" height="3.112" y="-3.112" style="overflow:visible;opacity:0.6719;enable-background:new    ;"/>
	</g>
</symbol>
<symbol  id="lid" viewBox="0 -7.55 18.2 7.55">
	<g id="Layer_1_8_">
		<linearGradient id="SVGID_4_" gradientUnits="userSpaceOnUse" x1="0" y1="-5.5249" x2="18.2002" y2="-5.5249">
			<stop  offset="0" style="stop-color:#E68045"/>
			<stop  offset="0.2118" style="stop-color:#FF9B61"/>
			<stop  offset="1" style="stop-color:#914C1A"/>
		</linearGradient>
		<path style="fill-rule:evenodd;clip-rule:evenodd;fill:url(#SVGID_4_);" d="M18.2-5.55c0-0.567-0.883-1.034-2.65-1.4
			c-1.767-0.4-3.917-0.6-6.45-0.6c-2.5,0-4.633,0.2-6.4,0.6C0.9-6.583,0-6.117,0-5.55C0-4.983,0.9-4.5,2.7-4.1
			c1.767,0.4,3.9,0.6,6.4,0.6c2.533,0,4.683-0.2,6.45-0.6C17.317-4.5,18.2-4.983,18.2-5.55z"/>
		<linearGradient id="SVGID_5_" gradientUnits="userSpaceOnUse" x1="0.2124" y1="-4.2998" x2="17.8874" y2="-4.2998">
			<stop  offset="0" style="stop-color:#FF8E4D"/>
			<stop  offset="0.2118" style="stop-color:#FF9B61"/>
			<stop  offset="1" style="stop-color:#AB591F"/>
		</linearGradient>
		<path style="fill-rule:evenodd;clip-rule:evenodd;fill:url(#SVGID_5_);" d="M17.9-1.65V-5.2c-0.066-0.433-0.95-0.833-2.65-1.2
			c-1.767-0.367-3.833-0.55-6.2-0.55c-2.333,0-4.383,0.184-6.15,0.55C1.2-6.033,0.317-5.633,0.25-5.2v3.55H17.9z"/>
		<path style="fill-rule:evenodd;clip-rule:evenodd;fill:#FF9B61;" d="M17.9-1.7c0-0.466-0.867-0.867-2.6-1.2
			c-1.7-0.333-3.783-0.5-6.25-0.5c-2.433,0-4.5,0.167-6.2,0.5c-1.733,0.333-2.6,0.733-2.6,1.2c0,0.467,0.867,0.867,2.6,1.2
			C4.55-0.167,6.617,0,9.05,0c2.467,0,4.55-0.167,6.25-0.5C17.033-0.833,17.9-1.233,17.9-1.7z"/>
	</g>
</symbol>
<symbol  id="sauce" viewBox="0 -33.013 22.7 33.013">
	<g id="Layer_1_3_">
		<linearGradient id="SVGID_6_" gradientUnits="userSpaceOnUse" x1="0" y1="-16.5063" x2="22.7002" y2="-16.5063">
			<stop  offset="0" style="stop-color:#FFD770"/>
			<stop  offset="1" style="stop-color:#A3844A"/>
		</linearGradient>
		<path style="fill-rule:evenodd;clip-rule:evenodd;fill:url(#SVGID_6_);" d="M20.95-3.6c0.633-0.733,1.066-1.417,1.3-2.05
			c0.3-0.8,0.45-1.867,0.45-3.2c0-1.333-0.117-4.45-0.35-9.35c-0.2-4.733-0.35-7.517-0.45-8.35c-0.066-1.033-0.483-2.033-1.25-3
			c-1.066-1.333-2.6-2.283-4.6-2.85c-1.633-0.466-3.2-0.667-4.7-0.6c-1.567-0.067-3.15,0.133-4.75,0.6
			c-2,0.567-3.517,1.517-4.55,2.85c-0.767,0.934-1.2,1.934-1.3,3c-0.066,1.133-0.2,3.917-0.4,8.35C0.117-13.2,0-10.083,0-8.85
			c0,1.333,0.15,2.4,0.45,3.2c0.233,0.633,0.667,1.317,1.3,2.05c1.2,1.333,2.033,2.533,2.5,3.6l7.1-0.4L18.4,0
			C18.9-1.1,19.75-2.3,20.95-3.6z"/>
	</g>
</symbol>
<g>
	
		<use xlink:href="#jar"  width="24.15" height="33.963" y="-33.963" transform="matrix(0.8 0 0 -0.8 3.5498 16.1499)" style="overflow:visible;"/>
	
		<use xlink:href="#sauce"  width="22.7" height="33.013" y="-33.013" transform="matrix(0.8 0 0 -0.8 4.1001 16.3999)" style="overflow:visible;"/>
	
		<use xlink:href="#flash0.ai_x5F_8_x2F_Layer_43_x2F__x3C_Path_x3E__x5F_11"  width="5.25" height="31.5" y="-31.5" transform="matrix(0.8 0 0 -0.8 5.2998 16.3999)" style="overflow:visible;opacity:0.5781;enable-background:new    ;"/>
	
		<use xlink:href="#jartwo"  width="16.45" height="3.112" y="-3.112" transform="matrix(0.8 0 0 -0.8 6.7998 16.1499)" style="overflow:visible;"/>
	
		<use xlink:href="#flash0.ai_x5F_8_x2F_Layer_43_x2F__x3C_Path_x3E__x5F_10"  width="5.3" height="31.5" y="-31.5" transform="matrix(0.8 0 0 -0.8 17.0498 16.3999)" style="overflow:visible;opacity:0.2109;enable-background:new    ;"/>
	
		<linearGradient id="SVGID_7_" gradientUnits="userSpaceOnUse" x1="3.2998" y1="6" x2="20.7748" y2="6" gradientTransform="matrix(0.8 0 0 0.8 3.5497 11.35)">
		<stop  offset="0" style="stop-color:#FFFFF0"/>
		<stop  offset="1" style="stop-color:#918649"/>
	</linearGradient>
	<path style="fill-rule:evenodd;clip-rule:evenodd;fill:url(#SVGID_7_);" d="M20.189,16.15c0,0.454-0.68,0.84-2.04,1.16
		c-1.387,0.32-3.04,0.48-4.96,0.48c-1.946,0-3.6-0.16-4.959-0.48c-1.36-0.32-2.041-0.707-2.041-1.16s0.68-0.84,2.041-1.16
		c1.387-0.32,3.04-0.479,4.959-0.479s3.573,0.16,4.96,0.479C19.51,15.31,20.189,15.696,20.189,16.15z"/>
	
		<use xlink:href="#flash0.ai_x5F_8_x2F_Layer_43_x2F__x3C_Path_x3E__x5F_4"  width="9.522" height="1.206" x="-0.022" y="-1.206" transform="matrix(0.8 0 0 -0.8 7 16.7998)" style="overflow:visible;opacity:0.4805;enable-background:new    ;"/>
	<path style="fill-rule:evenodd;clip-rule:evenodd;fill:#FFFFFF;" d="M7.189,40.43c0.56,0.293,0.894,0.6,1,0.92
		c0.107,0.293,0.041,0.439-0.2,0.439c-0.373,0-0.894-0.306-1.56-0.919c-0.293-0.294-0.32-0.48-0.08-0.561
		C6.59,40.203,6.87,40.242,7.189,40.43z"/>
	<path style="fill-rule:evenodd;clip-rule:evenodd;fill:#FFFFFF;" d="M9.31,41.51c0.4,0.08,0.506,0.227,0.32,0.439
		c-0.187,0.214-0.347,0.254-0.48,0.121c-0.133-0.107-0.2-0.241-0.2-0.4C8.923,41.51,9.043,41.457,9.31,41.51z"/>
	
		<use xlink:href="#lid"  width="18.2" height="7.55" y="-7.55" transform="matrix(0.8 0 0 -0.8 5.9502 11.3501)" style="overflow:visible;"/>
	<g>
		<path style="fill-rule:evenodd;clip-rule:evenodd;fill:#A1643D;" d="M17.016,25.736l-0.12,1.92c-0.08,1.36-0.107,2.32-0.08,2.88
			c0.054,0.907,0.093,2.294,0.12,4.16l-6.24,0.12c-0.667,0-1.733-0.146-3.2-0.44l-2-0.479c0.133-2.507,0.133-4.174,0-5l-0.36-3.6
			l6.96,0.52C13.722,25.949,15.361,25.923,17.016,25.736z"/>
		<path style="fill-rule:evenodd;clip-rule:evenodd;fill:#D9D2A9;" d="M16.815,25.496l-0.12,1.88c-0.08,1.387-0.107,2.36-0.08,2.921
			c0.054,0.879,0.094,2.253,0.12,4.12l-6.24,0.119c-0.666,0-1.733-0.146-3.2-0.439l-2-0.48c0.134-2.479,0.134-4.146,0-4.999
			l-0.36-3.601l6.96,0.52C13.522,25.67,15.162,25.656,16.815,25.496z"/>
		<path style="fill-rule:evenodd;clip-rule:evenodd;fill:#806B00;" d="M6.335,27.816c0.026-0.693,0.293-1.094,0.8-1.199
			c0.267-0.055,0.534-0.041,0.8,0.039l0.16,0.601l-0.08,0.88c-0.134-0.106-0.267-0.2-0.4-0.28c-0.267-0.134-0.44-0.067-0.521,0.2
			c-0.026,0.106,0.107,0.373,0.4,0.8c0.347,0.453,0.521,1.106,0.521,1.96c0,0.934-0.374,1.453-1.12,1.56l-1.16-0.159l0.12-1.24
			c0.8,0.08,1.24-0.227,1.32-0.92c0.027-0.294-0.106-0.587-0.4-0.881C6.456,28.883,6.309,28.43,6.335,27.816z"/>
		<polygon style="fill-rule:evenodd;clip-rule:evenodd;fill:#806B00;" points="8.255,26.656 9.775,26.856 9.735,28.176 
			9.095,28.057 9.175,32.816 8.255,32.616 8.735,28.057 8.255,28.057 		"/>
		<path style="fill-rule:evenodd;clip-rule:evenodd;fill:#806B00;" d="M10.495,26.977c0.4-0.106,0.6,0.76,0.6,2.6
			c0.027,1.841-0.213,2.787-0.72,2.841c-0.479,0.053-0.653-0.827-0.52-2.641C10.016,27.963,10.229,27.03,10.495,26.977z"/>
		<path style="fill-rule:evenodd;clip-rule:evenodd;fill:#806B00;" d="M13.016,27.057l-0.081,0.88c-0.213,0-0.413,0.067-0.6,0.2
			c-0.4,0.293-0.547,0.8-0.439,1.52c0.107,0.693,0.333,1.174,0.68,1.44c0.187,0.134,0.36,0.2,0.52,0.2v1.52
			c-0.32-0.027-0.626-0.2-0.92-0.52c-0.613-0.587-0.879-1.561-0.8-2.921c0.081-1.359,0.374-2.159,0.88-2.399
			C12.522,26.87,12.775,26.896,13.016,27.057z"/>
		<polygon style="fill-rule:evenodd;clip-rule:evenodd;fill:#806B00;" points="13.575,27.376 14.295,27.376 14.216,29.297 
			15.175,27.656 15.615,28.057 14.655,30.336 15.815,32.576 14.975,32.816 14.216,31.336 14.216,32.816 13.535,32.816 		"/>
	</g>
</g>
</svg>
