<?xml version="1.0" encoding="iso-8859-1"?>
<!-- Generator: Adobe Illustrator 15.1.0, SVG Export Plug-In . SVG Version: 6.00 Build 0)  -->
<!DOCTYPE svg PUBLIC "-//W3C//DTD SVG 1.1//EN" "http://www.w3.org/Graphics/SVG/1.1/DTD/svg11.dtd">
<svg version="1.1" id="flash0.ai" xmlns="http://www.w3.org/2000/svg" xmlns:xlink="http://www.w3.org/1999/xlink" x="0px" y="0px"
	 width="38px" height="41.1px" viewBox="0 0 38 41.1" style="enable-background:new 0 0 38 41.1;" xml:space="preserve">
<g>
	<path style="fill-rule:evenodd;clip-rule:evenodd;fill:#2D4F1B;" d="M21.83,29.18l0.12,0.101c0.133,0.08,0.253,0.08,0.359,0
		c0.16-0.187,0.507-0.267,1.04-0.24c0.64,0.026,1.12,0.32,1.44,0.88c0.347,0.587,0.093,0.934-0.76,1.04
		c-0.773,0.106-1.307,0.04-1.601-0.2c-0.16-0.133-0.307-0.453-0.44-0.96L21.83,29.18z M21.75,29.12
		c-1.387,0.054-2.254-0.066-2.601-0.36c-0.213-0.187-0.333-0.506-0.36-0.96l0.041-0.64l0.28,0.24
		c0.266,0.133,0.586,0.199,0.959,0.199c0.454,0,0.841,0.16,1.16,0.48c0.32,0.293,0.507,0.613,0.561,0.96l0.04,0.14L21.75,29.12z"/>
	<path style="fill-rule:evenodd;clip-rule:evenodd;fill:#2D4F1B;" d="M23.79,31.439c0.427-0.053,0.906,0.106,1.439,0.48
		c0.561,0.399,0.881,0.894,0.96,1.479c0.187,1.094,0.027,2.107-0.479,3.04c-0.293,0.614-0.373,1.134-0.24,1.561
		c-0.187-0.533-0.227-1.134-0.12-1.8c0.054-0.533-0.093-1.134-0.439-1.801c-0.4-0.72-0.841-1.093-1.32-1.119
		c-0.427-0.027-0.521-0.334-0.28-0.92L23.79,31.439z"/>
	<path style="fill-rule:evenodd;clip-rule:evenodd;fill:#387329;" d="M20.11,27.04c0.853,0.293,1.479,0.627,1.879,1
		c0.428,0.399,0.641,0.854,0.641,1.36c-0.054,0.826-0.054,1.346,0,1.56c-2.16-0.267-3.134-0.667-2.92-1.2
		c0.453-1.04,0.094-1.906-1.08-2.6c-0.586-0.32-0.84-0.773-0.76-1.36c0.027-0.293,0.12-0.56,0.28-0.8
		c-0.026,0.133-0.04,0.28-0.04,0.439c0.053,0.348,0.2,0.641,0.44,0.881C18.737,26.48,19.257,26.72,20.11,27.04z"/>
	<path style="fill-rule:evenodd;clip-rule:evenodd;fill:#48782A;" d="M21.91,30.08c1.066-0.373,2.066-0.28,3,0.28
		c0.56,0.373,0.933,1.053,1.12,2.039c0.08,0.507,0.106,0.974,0.08,1.4c-0.188-0.347-0.454-0.64-0.801-0.88
		c-0.693-0.507-1.453-0.507-2.279,0c-0.827,0.507-1.254,0.187-1.28-0.96L21.91,30.08z"/>
	
		<radialGradient id="SVGID_1_" cx="9.6738" cy="-3.3438" r="14.2673" gradientTransform="matrix(0.307 0.7387 0.7387 -0.307 16.6899 22.947)" gradientUnits="userSpaceOnUse">
		<stop  offset="0" style="stop-color:#ED0101"/>
		<stop  offset="1" style="stop-color:#7E0806"/>
	</radialGradient>
	<path style="fill-rule:evenodd;clip-rule:evenodd;fill:url(#SVGID_1_);" d="M12.95,33.64c0.187-1.493,0.626-2.68,1.32-3.56
		c0.747-0.986,1.733-1.533,2.96-1.641c2.426-0.213,4.293,0.348,5.6,1.681c1.706,1.84,2.413,3.706,2.12,5.6
		c-0.214,1.52-0.907,2.667-2.08,3.44c-1.014,0.666-2.188,1.053-3.521,1.159c-1.733,0.16-2.826,0.307-3.28,0.44
		c-1.066,0.347-2.04,0.427-2.92,0.24c-0.907-0.187-1.374-0.613-1.4-1.28c0-0.533,0.133-1.267,0.4-2.2
		C12.497,36.267,12.763,34.974,12.95,33.64z"/>
	
		<radialGradient id="SVGID_2_" cx="9.2959" cy="-2.3169" r="8.5519" gradientTransform="matrix(0.3064 0.739 0.739 -0.3064 15.1749 23.5807)" gradientUnits="userSpaceOnUse">
		<stop  offset="0" style="stop-color:#FF7D7D"/>
		<stop  offset="1" style="stop-color:#F51919"/>
	</radialGradient>
	<path style="fill-rule:evenodd;clip-rule:evenodd;fill:url(#SVGID_2_);" d="M15.15,37.28c0.213-0.027,0.4-0.147,0.56-0.36
		c0.133-0.24,0.173-0.521,0.12-0.84c-0.08-0.347-0.267-0.44-0.56-0.28c-0.187,0.08-0.347,0.254-0.48,0.52
		c-0.16,0.268-0.187,0.507-0.08,0.721C14.79,37.253,14.937,37.333,15.15,37.28z M16.23,36.2c0.267,0.267,0.626,0.133,1.08-0.4
		c0.16-0.187,0.227-0.387,0.2-0.6c-0.054-0.24-0.267-0.32-0.641-0.24c-0.266,0.053-0.48,0.227-0.64,0.52
		C16.043,35.773,16.043,36.013,16.23,36.2z M16.71,32.92c-0.32,0.319-0.493,0.64-0.52,0.96c-0.053,0.347,0.066,0.52,0.36,0.52
		s0.587-0.227,0.88-0.68c0.32-0.427,0.466-0.76,0.439-1c-0.026-0.24-0.173-0.333-0.439-0.28
		C17.217,32.467,16.977,32.626,16.71,32.92z M16.03,31.76c0.027,0.4,0.28,0.467,0.76,0.2c0.454-0.267,0.747-0.573,0.88-0.92
		c0.133-0.294,0.187-0.479,0.16-0.56c-0.054-0.107-0.213-0.174-0.48-0.2c-0.267-0.026-0.561,0.106-0.88,0.399
		C16.15,31,16.003,31.36,16.03,31.76z M19.79,32c-0.24-0.054-0.547,0.066-0.92,0.36c-0.373,0.293-0.6,0.613-0.68,0.959
		c-0.08,0.374,0.053,0.547,0.4,0.521c0.32,0,0.627-0.16,0.92-0.479c0.267-0.294,0.427-0.574,0.479-0.841
		C20.043,32.227,19.977,32.054,19.79,32z M18.59,30.96c0.027,0.427,0.374,0.36,1.04-0.2c0.693-0.586,0.854-0.946,0.48-1.08
		c-0.32-0.106-0.654-0.026-1,0.24C18.737,30.187,18.563,30.533,18.59,30.96z M15.71,33.56c-0.24,0-0.493,0.134-0.76,0.4
		c-0.293,0.293-0.427,0.653-0.4,1.08c0.027,0.32,0.174,0.467,0.44,0.439c0.267-0.026,0.507-0.187,0.72-0.479
		c0.187-0.294,0.293-0.601,0.32-0.92C16.03,33.733,15.923,33.56,15.71,33.56z M15.59,31.6c-0.24-0.187-0.6,0.08-1.08,0.8
		c-0.134,0.24-0.121,0.494,0.04,0.761c0.133,0.239,0.293,0.227,0.48-0.04l0.36-0.561C15.657,31.974,15.723,31.653,15.59,31.6z
		 M20.03,29.439c0.746,0.054,0.813,0.521,0.199,1.4c-0.24,0.347-0.626,0.587-1.16,0.72l0.761,0.04
		c0.479,0.134,0.666,0.427,0.56,0.88c-0.24,0.881-0.854,1.467-1.84,1.76c-0.213,0.08-0.44,0.121-0.68,0.121h-0.32l0.16,0.239
		c0.107,0.187,0.12,0.427,0.04,0.72c-0.08,0.32-0.187,0.561-0.32,0.721c-0.08,0.08-0.28,0.199-0.6,0.359
		c-0.293,0.16-0.547,0.188-0.76,0.08c-0.187,0.427-0.427,0.707-0.72,0.84c-0.187,0.107-0.374,0.12-0.56,0.041
		c-0.16-0.08-0.24-0.188-0.24-0.32v-0.2c-0.373,0.347-0.693,0.479-0.96,0.399c-0.24-0.106-0.307-0.399-0.2-0.879
		c-0.026,0.293,0.041,0.52,0.2,0.68c0.134,0.16,0.28,0.12,0.44-0.12c0.187-0.24,0.307-0.521,0.359-0.84l0.041-0.4
		c-0.107-0.16-0.24-0.253-0.4-0.28c-0.17,0-0.33,0.12-0.48,0.36l0.2-0.36c-0.08-0.053-0.16-0.146-0.24-0.279
		c0.106,0.106,0.227,0.133,0.36,0.08c0.106-0.054,0.187-0.146,0.24-0.28c0.106-0.24,0.173-0.521,0.2-0.84
		c0.053-0.374,0.04-0.561-0.04-0.561c-0.48,0-0.773,0.307-0.88,0.92v0.4c-0.026-0.187-0.026-0.4,0-0.64
		c0.214-0.773,0.547-1.08,1-0.92c-0.213-0.107-0.24-0.414-0.08-0.92c0.107-0.4,0.307-0.734,0.6-1c0.24-0.24,0.44-0.334,0.6-0.28
		l0.32,0.04c0.32-0.587,0.787-0.946,1.4-1.08c0.613-0.16,0.894-0.134,0.84,0.08l0.64-0.36C19.217,29.52,19.656,29.413,20.03,29.439z
		"/>
	
		<radialGradient id="SVGID_3_" cx="13.2021" cy="4.0728" r="0.4202" gradientTransform="matrix(0.3094 0.7377 0.7377 -0.3094 5.7407 27.5206)" gradientUnits="userSpaceOnUse">
		<stop  offset="0" style="stop-color:#FF7D7D"/>
		<stop  offset="1" style="stop-color:#F51919"/>
	</radialGradient>
	<path style="fill-rule:evenodd;clip-rule:evenodd;fill:url(#SVGID_3_);" d="M13.11,35.92c-0.214,0.267-0.347,0.387-0.4,0.36
		c-0.053-0.027-0.08-0.094-0.08-0.2l0.04-0.12l0.08,0.08C12.804,36.12,12.923,36.08,13.11,35.92z"/>
	
		<radialGradient id="SVGID_4_" cx="15.2075" cy="-3.165" r="1.2606" gradientTransform="matrix(0.3094 0.7377 0.7377 -0.3094 16.4197 23.0417)" gradientUnits="userSpaceOnUse">
		<stop  offset="0" style="stop-color:#FF7D7D"/>
		<stop  offset="1" style="stop-color:#F51919"/>
	</radialGradient>
	<path style="fill-rule:evenodd;clip-rule:evenodd;fill:url(#SVGID_4_);" d="M18.27,35.84c0.133,0.134,0.373,0.106,0.72-0.08
		c0.32-0.187,0.494-0.44,0.52-0.76c0,0.399-0.134,0.706-0.399,0.92C18.737,36.187,18.457,36.16,18.27,35.84z"/>
	
		<radialGradient id="SVGID_5_" cx="12.9575" cy="-8.1108" r="1.451" gradientTransform="matrix(0.3101 0.7374 0.7374 -0.3101 23.7125 19.9692)" gradientUnits="userSpaceOnUse">
		<stop  offset="0" style="stop-color:#FF7D7D"/>
		<stop  offset="1" style="stop-color:#F51919"/>
	</radialGradient>
	<path style="fill-rule:evenodd;clip-rule:evenodd;fill:url(#SVGID_5_);" d="M21.31,33.04c0.24,0.026,0.494-0.094,0.76-0.36
		c0.24-0.24,0.32-0.56,0.24-0.96c0.214,0.267,0.214,0.613,0,1.04C22.069,33.187,21.736,33.28,21.31,33.04z"/>
	
		<radialGradient id="SVGID_6_" cx="16.3613" cy="-5.5771" r="1.3952" gradientTransform="matrix(0.3082 0.7382 0.7382 -0.3082 19.9846 21.5624)" gradientUnits="userSpaceOnUse">
		<stop  offset="0" style="stop-color:#FF7D7D"/>
		<stop  offset="1" style="stop-color:#F51919"/>
	</radialGradient>
	<path style="fill-rule:evenodd;clip-rule:evenodd;fill:url(#SVGID_6_);" d="M20.27,36c0.24,0.106,0.534,0.04,0.88-0.2
		c0.32-0.24,0.547-0.467,0.681-0.68c-0.054,0.506-0.28,0.84-0.681,1c-0.239,0.08-0.467,0.08-0.68,0L20.27,36z"/>
	
		<radialGradient id="SVGID_7_" cx="17.519" cy="-1.4102" r="0.8635" gradientTransform="matrix(0.3011 0.7412 0.7412 -0.3011 13.8411 24.151)" gradientUnits="userSpaceOnUse">
		<stop  offset="0" style="stop-color:#FF7D7D"/>
		<stop  offset="1" style="stop-color:#F51919"/>
	</radialGradient>
	<path style="fill-rule:evenodd;clip-rule:evenodd;fill:url(#SVGID_7_);" d="M18.75,37.439c0,0.294-0.173,0.454-0.52,0.48
		c-0.187,0-0.347-0.04-0.48-0.12l-0.12-0.12l0.2,0.04c0.133,0.026,0.266,0.026,0.4,0C18.443,37.667,18.617,37.573,18.75,37.439z"/>
	
		<radialGradient id="SVGID_8_" cx="16.8418" cy="0.8037" r="1.0702" gradientTransform="matrix(0.3084 0.7382 0.7382 -0.3084 10.5641 25.4952)" gradientUnits="userSpaceOnUse">
		<stop  offset="0" style="stop-color:#FF7D7D"/>
		<stop  offset="1" style="stop-color:#F51919"/>
	</radialGradient>
	<path style="fill-rule:evenodd;clip-rule:evenodd;fill:url(#SVGID_8_);" d="M16.99,37.52l0.04,0.2c0,0.16-0.066,0.32-0.2,0.48
		c-0.24,0.267-0.56,0.279-0.96,0.039c0.32,0,0.561-0.053,0.72-0.159C16.75,38,16.883,37.813,16.99,37.52z"/>
	
		<radialGradient id="SVGID_9_" cx="16.959" cy="2.7896" r="0.8241" gradientTransform="matrix(0.3034 0.7402 0.7402 -0.3034 7.6202 26.6923)" gradientUnits="userSpaceOnUse">
		<stop  offset="0" style="stop-color:#FF7D7D"/>
		<stop  offset="1" style="stop-color:#F51919"/>
	</radialGradient>
	<path style="fill-rule:evenodd;clip-rule:evenodd;fill:url(#SVGID_9_);" d="M15.27,38.239c0.053,0.16,0.04,0.307-0.04,0.44
		s-0.2,0.214-0.36,0.24c-0.107,0.026-0.2,0.026-0.28,0l-0.08-0.04c0.24,0.026,0.413-0.014,0.52-0.12L15.27,38.239z"/>
	
		<radialGradient id="SVGID_10_" cx="16.6382" cy="5.7217" r="0.6385" gradientTransform="matrix(0.3132 0.7361 0.7361 -0.3132 3.3259 28.585)" gradientUnits="userSpaceOnUse">
		<stop  offset="0" style="stop-color:#FF7D7D"/>
		<stop  offset="1" style="stop-color:#F51919"/>
	</radialGradient>
	<path style="fill-rule:evenodd;clip-rule:evenodd;fill:url(#SVGID_10_);" d="M13.19,38.92c0.053,0.187-0.027,0.333-0.24,0.44
		c-0.24,0.106-0.4,0.066-0.48-0.121l0.28,0.041C12.856,39.28,13.003,39.16,13.19,38.92z"/>
	
		<radialGradient id="SVGID_11_" cx="15.9233" cy="3.8149" r="0.801" gradientTransform="matrix(0.3121 0.7366 0.7366 -0.3121 6.1303 27.3813)" gradientUnits="userSpaceOnUse">
		<stop  offset="0" style="stop-color:#FF7D7D"/>
		<stop  offset="1" style="stop-color:#F51919"/>
	</radialGradient>
	<path style="fill-rule:evenodd;clip-rule:evenodd;fill:url(#SVGID_11_);" d="M14.43,37.8c-0.054,0.293-0.187,0.48-0.4,0.561
		c-0.24,0.106-0.4,0.066-0.48-0.121l0.44,0.041C14.124,38.227,14.27,38.066,14.43,37.8z"/>
	
		<radialGradient id="SVGID_12_" cx="9.3608" cy="-4.3594" r="10.9282" gradientTransform="matrix(0.2086 0.7723 0.7723 -0.2086 18.4839 23.1814)" gradientUnits="userSpaceOnUse">
		<stop  offset="0" style="stop-color:#F58758"/>
		<stop  offset="1" style="stop-color:#BD5206"/>
	</radialGradient>
	<path style="fill-rule:evenodd;clip-rule:evenodd;fill:url(#SVGID_12_);" d="M15.23,30.04c-0.16,0.507-0.36,0.813-0.6,0.92
		s-0.32,0-0.24-0.32c0.134-0.479,0.32-0.76,0.561-0.84C15.19,29.746,15.283,29.826,15.23,30.04z"/>
	
		<radialGradient id="SVGID_13_" cx="9.3643" cy="-4.3521" r="10.9435" gradientTransform="matrix(0.2093 0.7721 0.7721 -0.2093 18.4703 23.1789)" gradientUnits="userSpaceOnUse">
		<stop  offset="0" style="stop-color:#F58758"/>
		<stop  offset="1" style="stop-color:#BD5206"/>
	</radialGradient>
	<path style="fill-rule:evenodd;clip-rule:evenodd;fill:url(#SVGID_13_);" d="M17.35,30.72c-0.08,0.561-0.333,0.894-0.76,1
		c-0.453,0.106-0.56-0.04-0.32-0.439c0.187-0.347,0.426-0.601,0.72-0.761C17.283,30.387,17.403,30.453,17.35,30.72z"/>
	
		<radialGradient id="SVGID_14_" cx="9.3643" cy="-4.3521" r="10.9435" gradientTransform="matrix(0.2093 0.7721 0.7721 -0.2093 18.4703 23.1789)" gradientUnits="userSpaceOnUse">
		<stop  offset="0" style="stop-color:#F58758"/>
		<stop  offset="1" style="stop-color:#BD5206"/>
	</radialGradient>
	<path style="fill-rule:evenodd;clip-rule:evenodd;fill:url(#SVGID_14_);" d="M19.71,32.28c0.08,0.479-0.106,0.853-0.561,1.119
		c-0.479,0.268-0.706,0.227-0.68-0.119c0.027-0.294,0.24-0.587,0.641-0.881C19.483,32.106,19.683,32.066,19.71,32.28z"/>
	
		<radialGradient id="SVGID_15_" cx="9.3643" cy="-4.3521" r="10.9435" gradientTransform="matrix(0.2093 0.7721 0.7721 -0.2093 18.4703 23.1789)" gradientUnits="userSpaceOnUse">
		<stop  offset="0" style="stop-color:#F58758"/>
		<stop  offset="1" style="stop-color:#BD5206"/>
	</radialGradient>
	<path style="fill-rule:evenodd;clip-rule:evenodd;fill:url(#SVGID_15_);" d="M21.39,34.84c0.373,0.026,0.387,0.214,0.04,0.56
		c-0.373,0.374-0.72,0.507-1.04,0.4c-0.32-0.08-0.32-0.267,0-0.561C20.71,34.946,21.043,34.813,21.39,34.84z"/>
	
		<radialGradient id="SVGID_16_" cx="9.3608" cy="-4.3594" r="10.9282" gradientTransform="matrix(0.2086 0.7723 0.7723 -0.2086 18.4839 23.1814)" gradientUnits="userSpaceOnUse">
		<stop  offset="0" style="stop-color:#F58758"/>
		<stop  offset="1" style="stop-color:#BD5206"/>
	</radialGradient>
	<path style="fill-rule:evenodd;clip-rule:evenodd;fill:url(#SVGID_16_);" d="M22.39,37.399c0.347,0,0.32,0.16-0.08,0.48
		c-0.399,0.32-0.72,0.453-0.96,0.4c-0.213-0.08-0.16-0.24,0.16-0.48C21.856,37.533,22.149,37.399,22.39,37.399z"/>
	
		<radialGradient id="SVGID_17_" cx="9.3608" cy="-4.3594" r="10.9282" gradientTransform="matrix(0.2086 0.7723 0.7723 -0.2086 18.4839 23.1814)" gradientUnits="userSpaceOnUse">
		<stop  offset="0" style="stop-color:#F58758"/>
		<stop  offset="1" style="stop-color:#BD5206"/>
	</radialGradient>
	<path style="fill-rule:evenodd;clip-rule:evenodd;fill:url(#SVGID_17_);" d="M15.39,31.8c-0.026,0.373-0.16,0.693-0.4,0.96
		c-0.213,0.267-0.333,0.253-0.36-0.04c-0.026-0.267,0.107-0.533,0.4-0.8C15.323,31.6,15.443,31.56,15.39,31.8z"/>
	
		<radialGradient id="SVGID_18_" cx="9.3643" cy="-4.3521" r="10.9435" gradientTransform="matrix(0.2093 0.7721 0.7721 -0.2093 18.4703 23.1789)" gradientUnits="userSpaceOnUse">
		<stop  offset="0" style="stop-color:#F58758"/>
		<stop  offset="1" style="stop-color:#BD5206"/>
	</radialGradient>
	<path style="fill-rule:evenodd;clip-rule:evenodd;fill:url(#SVGID_18_);" d="M17.51,32.64c0.293,0.214,0.253,0.521-0.121,0.92
		c-0.346,0.4-0.64,0.561-0.879,0.48c-0.187-0.107-0.121-0.4,0.2-0.88C17.03,32.706,17.296,32.533,17.51,32.64z"/>
	
		<radialGradient id="SVGID_19_" cx="9.3643" cy="-4.3521" r="10.9435" gradientTransform="matrix(0.2093 0.7721 0.7721 -0.2093 18.4703 23.1789)" gradientUnits="userSpaceOnUse">
		<stop  offset="0" style="stop-color:#F58758"/>
		<stop  offset="1" style="stop-color:#BD5206"/>
	</radialGradient>
	<path style="fill-rule:evenodd;clip-rule:evenodd;fill:url(#SVGID_19_);" d="M19.31,34.84c0.16,0.187,0.066,0.413-0.279,0.68
		c-0.347,0.294-0.561,0.36-0.641,0.2c-0.106-0.16-0.013-0.387,0.28-0.68C18.963,34.72,19.177,34.653,19.31,34.84z"/>
	
		<radialGradient id="SVGID_20_" cx="9.3643" cy="-4.3521" r="10.9435" gradientTransform="matrix(0.2093 0.7721 0.7721 -0.2093 18.4703 23.1789)" gradientUnits="userSpaceOnUse">
		<stop  offset="0" style="stop-color:#F58758"/>
		<stop  offset="1" style="stop-color:#BD5206"/>
	</radialGradient>
	<path style="fill-rule:evenodd;clip-rule:evenodd;fill:url(#SVGID_20_);" d="M20.47,37.16c0.08,0.213-0.066,0.453-0.439,0.72
		c-0.374,0.24-0.627,0.267-0.761,0.08c-0.133-0.16,0.014-0.373,0.44-0.641C20.137,37.054,20.39,37,20.47,37.16z"/>
	
		<radialGradient id="SVGID_21_" cx="9.3643" cy="-4.3521" r="10.9435" gradientTransform="matrix(0.2093 0.7721 0.7721 -0.2093 18.4703 23.1789)" gradientUnits="userSpaceOnUse">
		<stop  offset="0" style="stop-color:#F58758"/>
		<stop  offset="1" style="stop-color:#BD5206"/>
	</radialGradient>
	<path style="fill-rule:evenodd;clip-rule:evenodd;fill:url(#SVGID_21_);" d="M20.39,39.439c0.48,0.027,0.561,0.134,0.24,0.32
		c-0.347,0.187-0.641,0.24-0.88,0.16c-0.214-0.054-0.214-0.146,0-0.28C19.937,39.507,20.149,39.439,20.39,39.439z"/>
	
		<radialGradient id="SVGID_22_" cx="9.3608" cy="-4.3594" r="10.9282" gradientTransform="matrix(0.2086 0.7723 0.7723 -0.2086 18.4839 23.1814)" gradientUnits="userSpaceOnUse">
		<stop  offset="0" style="stop-color:#F58758"/>
		<stop  offset="1" style="stop-color:#BD5206"/>
	</radialGradient>
	<path style="fill-rule:evenodd;clip-rule:evenodd;fill:url(#SVGID_22_);" d="M14.07,33.68c0.054,0.374,0,0.707-0.16,1
		c-0.187,0.294-0.307,0.28-0.36-0.04c-0.053-0.293,0.014-0.573,0.2-0.84S14.043,33.493,14.07,33.68z"/>
	
		<radialGradient id="SVGID_23_" cx="9.3643" cy="-4.3521" r="10.9435" gradientTransform="matrix(0.2093 0.7721 0.7721 -0.2093 18.4703 23.1789)" gradientUnits="userSpaceOnUse">
		<stop  offset="0" style="stop-color:#F58758"/>
		<stop  offset="1" style="stop-color:#BD5206"/>
	</radialGradient>
	<path style="fill-rule:evenodd;clip-rule:evenodd;fill:url(#SVGID_23_);" d="M15.43,33.88c0.373-0.106,0.466,0.094,0.28,0.6
		c-0.187,0.48-0.44,0.747-0.76,0.801c-0.213,0-0.254-0.214-0.12-0.641C14.963,34.213,15.163,33.96,15.43,33.88z"/>
	
		<radialGradient id="SVGID_24_" cx="9.3608" cy="-4.3594" r="10.9282" gradientTransform="matrix(0.2086 0.7723 0.7723 -0.2086 18.4839 23.1814)" gradientUnits="userSpaceOnUse">
		<stop  offset="0" style="stop-color:#F58758"/>
		<stop  offset="1" style="stop-color:#BD5206"/>
	</radialGradient>
	<path style="fill-rule:evenodd;clip-rule:evenodd;fill:url(#SVGID_24_);" d="M17.11,35.12c0.293,0.026,0.307,0.227,0.04,0.6
		c-0.267,0.347-0.507,0.493-0.72,0.44c-0.187-0.08-0.187-0.267,0-0.561C16.643,35.28,16.87,35.12,17.11,35.12z"/>
	
		<radialGradient id="SVGID_25_" cx="9.3608" cy="-4.3594" r="10.9282" gradientTransform="matrix(0.2086 0.7723 0.7723 -0.2086 18.4839 23.1814)" gradientUnits="userSpaceOnUse">
		<stop  offset="0" style="stop-color:#F58758"/>
		<stop  offset="1" style="stop-color:#BD5206"/>
	</radialGradient>
	<path style="fill-rule:evenodd;clip-rule:evenodd;fill:url(#SVGID_25_);" d="M18.47,37c0.293,0.133,0.333,0.267,0.12,0.399
		c-0.187,0.134-0.427,0.2-0.72,0.2c-0.24,0-0.24-0.12,0-0.36C18.11,37.026,18.31,36.946,18.47,37z"/>
	
		<radialGradient id="SVGID_26_" cx="9.3608" cy="-4.3594" r="10.9282" gradientTransform="matrix(0.2086 0.7723 0.7723 -0.2086 18.4839 23.1814)" gradientUnits="userSpaceOnUse">
		<stop  offset="0" style="stop-color:#F58758"/>
		<stop  offset="1" style="stop-color:#BD5206"/>
	</radialGradient>
	<path style="fill-rule:evenodd;clip-rule:evenodd;fill:url(#SVGID_26_);" d="M19.03,38.92c0.399,0.054,0.466,0.16,0.199,0.319
		c-0.24,0.134-0.506,0.2-0.799,0.2c-0.24,0-0.254-0.093-0.041-0.279C18.577,38.974,18.79,38.894,19.03,38.92z"/>
	
		<radialGradient id="SVGID_27_" cx="9.3643" cy="-4.3521" r="10.9435" gradientTransform="matrix(0.2093 0.7721 0.7721 -0.2093 18.4703 23.1789)" gradientUnits="userSpaceOnUse">
		<stop  offset="0" style="stop-color:#F58758"/>
		<stop  offset="1" style="stop-color:#BD5206"/>
	</radialGradient>
	<path style="fill-rule:evenodd;clip-rule:evenodd;fill:url(#SVGID_27_);" d="M13.95,35.64c0.293-0.133,0.373,0.066,0.24,0.6
		c-0.133,0.534-0.307,0.747-0.52,0.641c-0.16-0.08-0.2-0.28-0.12-0.6C13.63,35.96,13.763,35.746,13.95,35.64z"/>
	
		<radialGradient id="SVGID_28_" cx="9.3643" cy="-4.3521" r="10.9435" gradientTransform="matrix(0.2093 0.7721 0.7721 -0.2093 18.4703 23.1789)" gradientUnits="userSpaceOnUse">
		<stop  offset="0" style="stop-color:#F58758"/>
		<stop  offset="1" style="stop-color:#BD5206"/>
	</radialGradient>
	<path style="fill-rule:evenodd;clip-rule:evenodd;fill:url(#SVGID_28_);" d="M15.47,35.96c0.267,0.026,0.28,0.253,0.041,0.68
		c-0.214,0.427-0.4,0.561-0.56,0.4c-0.133-0.16-0.133-0.387,0-0.68C15.083,36.066,15.256,35.933,15.47,35.96z"/>
	
		<radialGradient id="SVGID_29_" cx="9.3643" cy="-4.3521" r="10.9435" gradientTransform="matrix(0.2093 0.7721 0.7721 -0.2093 18.4703 23.1789)" gradientUnits="userSpaceOnUse">
		<stop  offset="0" style="stop-color:#F58758"/>
		<stop  offset="1" style="stop-color:#BD5206"/>
	</radialGradient>
	<path style="fill-rule:evenodd;clip-rule:evenodd;fill:url(#SVGID_29_);" d="M16.63,37.28c0.267,0.026,0.32,0.159,0.16,0.399
		c-0.186,0.24-0.426,0.374-0.72,0.4c-0.267,0.026-0.28-0.106-0.04-0.4C16.243,37.413,16.443,37.28,16.63,37.28z"/>
	
		<radialGradient id="SVGID_30_" cx="9.3608" cy="-4.3594" r="10.9282" gradientTransform="matrix(0.2086 0.7723 0.7723 -0.2086 18.4839 23.1814)" gradientUnits="userSpaceOnUse">
		<stop  offset="0" style="stop-color:#F58758"/>
		<stop  offset="1" style="stop-color:#BD5206"/>
	</radialGradient>
	<path style="fill-rule:evenodd;clip-rule:evenodd;fill:url(#SVGID_30_);" d="M17.31,38.84c0.267,0,0.32,0.106,0.16,0.32
		c-0.16,0.187-0.387,0.293-0.68,0.319c-0.293,0.027-0.32-0.08-0.08-0.319C16.923,38.946,17.124,38.84,17.31,38.84z"/>
	
		<radialGradient id="SVGID_31_" cx="9.3643" cy="-4.3521" r="10.9435" gradientTransform="matrix(0.2093 0.7721 0.7721 -0.2093 18.4703 23.1789)" gradientUnits="userSpaceOnUse">
		<stop  offset="0" style="stop-color:#F58758"/>
		<stop  offset="1" style="stop-color:#BD5206"/>
	</radialGradient>
	<path style="fill-rule:evenodd;clip-rule:evenodd;fill:url(#SVGID_31_);" d="M14.11,37.319c0.293-0.106,0.386-0.013,0.279,0.28
		c-0.133,0.294-0.32,0.493-0.56,0.601c-0.213,0.08-0.253-0.027-0.12-0.32S13.977,37.399,14.11,37.319z"/>
	
		<radialGradient id="SVGID_32_" cx="9.3643" cy="-4.3521" r="10.9435" gradientTransform="matrix(0.2093 0.7721 0.7721 -0.2093 18.4703 23.1789)" gradientUnits="userSpaceOnUse">
		<stop  offset="0" style="stop-color:#F58758"/>
		<stop  offset="1" style="stop-color:#BD5206"/>
	</radialGradient>
	<path style="fill-rule:evenodd;clip-rule:evenodd;fill:url(#SVGID_32_);" d="M14.87,38.08c0.267-0.187,0.347-0.12,0.24,0.2
		c-0.08,0.319-0.227,0.506-0.44,0.56c-0.187,0.026-0.227-0.066-0.12-0.28C14.63,38.347,14.737,38.187,14.87,38.08z"/>
	
		<radialGradient id="SVGID_33_" cx="9.3608" cy="-4.3594" r="10.9282" gradientTransform="matrix(0.2086 0.7723 0.7723 -0.2086 18.4839 23.1814)" gradientUnits="userSpaceOnUse">
		<stop  offset="0" style="stop-color:#F58758"/>
		<stop  offset="1" style="stop-color:#BD5206"/>
	</radialGradient>
	<path style="fill-rule:evenodd;clip-rule:evenodd;fill:url(#SVGID_33_);" d="M15.91,38.92c0.186,0,0.213,0.093,0.08,0.28
		c-0.133,0.213-0.32,0.333-0.56,0.359c-0.24,0.027-0.267-0.066-0.08-0.279C15.563,39.04,15.75,38.92,15.91,38.92z"/>
	
		<radialGradient id="SVGID_34_" cx="9.3643" cy="-4.3521" r="10.9435" gradientTransform="matrix(0.2093 0.7721 0.7721 -0.2093 18.4703 23.1789)" gradientUnits="userSpaceOnUse">
		<stop  offset="0" style="stop-color:#F58758"/>
		<stop  offset="1" style="stop-color:#BD5206"/>
	</radialGradient>
	<path style="fill-rule:evenodd;clip-rule:evenodd;fill:url(#SVGID_34_);" d="M13.03,37.16c-0.08,0.507-0.174,0.772-0.28,0.8
		c-0.08,0.026-0.133-0.106-0.16-0.4c-0.026-0.213,0.054-0.387,0.24-0.52C12.99,36.933,13.057,36.974,13.03,37.16z"/>
	
		<radialGradient id="SVGID_35_" cx="9.3643" cy="-4.3521" r="10.9435" gradientTransform="matrix(0.2093 0.7721 0.7721 -0.2093 18.4703 23.1789)" gradientUnits="userSpaceOnUse">
		<stop  offset="0" style="stop-color:#F58758"/>
		<stop  offset="1" style="stop-color:#BD5206"/>
	</radialGradient>
	<path style="fill-rule:evenodd;clip-rule:evenodd;fill:url(#SVGID_35_);" d="M13.07,38.439c0.08,0.214,0.041,0.4-0.12,0.561
		s-0.293,0.187-0.4,0.08c-0.106-0.08-0.053-0.227,0.16-0.44C12.896,38.427,13.017,38.36,13.07,38.439z"/>
	
		<radialGradient id="SVGID_36_" cx="9.3643" cy="-4.3521" r="10.9435" gradientTransform="matrix(0.2093 0.7721 0.7721 -0.2093 18.4703 23.1789)" gradientUnits="userSpaceOnUse">
		<stop  offset="0" style="stop-color:#F58758"/>
		<stop  offset="1" style="stop-color:#BD5206"/>
	</radialGradient>
	<path style="fill-rule:evenodd;clip-rule:evenodd;fill:url(#SVGID_36_);" d="M14.07,39.36c0.213,0,0.253,0.093,0.12,0.279
		s-0.32,0.28-0.56,0.28c-0.213,0-0.24-0.094-0.08-0.28C13.737,39.453,13.91,39.36,14.07,39.36z"/>
	
		<radialGradient id="SVGID_37_" cx="9.3643" cy="-4.3521" r="10.9435" gradientTransform="matrix(0.2093 0.7721 0.7721 -0.2093 18.4703 23.1789)" gradientUnits="userSpaceOnUse">
		<stop  offset="0" style="stop-color:#F58758"/>
		<stop  offset="1" style="stop-color:#BD5206"/>
	</radialGradient>
	<path style="fill-rule:evenodd;clip-rule:evenodd;fill:url(#SVGID_37_);" d="M13.15,35.16c0.027,0.239-0.04,0.439-0.2,0.6
		c-0.133,0.16-0.2,0.146-0.2-0.04c0-0.16,0.067-0.333,0.2-0.52C13.057,35.04,13.124,35.026,13.15,35.16z"/>
	
		<radialGradient id="SVGID_38_" cx="9.3633" cy="-4.355" r="10.9556" gradientTransform="matrix(0.209 0.7722 0.7722 -0.209 18.4757 23.1792)" gradientUnits="userSpaceOnUse">
		<stop  offset="0" style="stop-color:#F58758"/>
		<stop  offset="1" style="stop-color:#BD5206"/>
	</radialGradient>
	<path style="fill-rule:evenodd;clip-rule:evenodd;fill:url(#SVGID_38_);" d="M13.83,31.8c0,0.427-0.054,0.72-0.16,0.88
		c-0.106,0.134-0.173,0.054-0.2-0.24c-0.026-0.267,0.027-0.479,0.16-0.64C13.763,31.613,13.83,31.613,13.83,31.8z"/>
	
		<radialGradient id="SVGID_39_" cx="9.3643" cy="-4.3521" r="10.9435" gradientTransform="matrix(0.2093 0.7721 0.7721 -0.2093 18.4703 23.1789)" gradientUnits="userSpaceOnUse">
		<stop  offset="0" style="stop-color:#F58758"/>
		<stop  offset="1" style="stop-color:#BD5206"/>
	</radialGradient>
	<path style="fill-rule:evenodd;clip-rule:evenodd;fill:url(#SVGID_39_);" d="M17.23,29c0.374-0.026,0.507,0.054,0.4,0.24
		c-0.106,0.213-0.374,0.373-0.8,0.479c-0.427,0.134-0.534,0.054-0.32-0.239C16.696,29.187,16.937,29.026,17.23,29z"/>
	
		<radialGradient id="SVGID_40_" cx="9.3608" cy="-4.3594" r="10.9282" gradientTransform="matrix(0.2086 0.7723 0.7723 -0.2086 18.4839 23.1814)" gradientUnits="userSpaceOnUse">
		<stop  offset="0" style="stop-color:#F58758"/>
		<stop  offset="1" style="stop-color:#BD5206"/>
	</radialGradient>
	<path style="fill-rule:evenodd;clip-rule:evenodd;fill:url(#SVGID_40_);" d="M19.55,29.8c0.507-0.133,0.613,0,0.32,0.4
		c-0.294,0.399-0.561,0.587-0.801,0.56c-0.213-0.026-0.239-0.173-0.08-0.439C19.123,30.026,19.31,29.854,19.55,29.8z"/>
	
		<radialGradient id="SVGID_41_" cx="9.3608" cy="-4.3594" r="10.9282" gradientTransform="matrix(0.2086 0.7723 0.7723 -0.2086 18.4839 23.1814)" gradientUnits="userSpaceOnUse">
		<stop  offset="0" style="stop-color:#F58758"/>
		<stop  offset="1" style="stop-color:#BD5206"/>
	</radialGradient>
	<path style="fill-rule:evenodd;clip-rule:evenodd;fill:url(#SVGID_41_);" d="M21.79,31.72c0.427,0.106,0.52,0.347,0.279,0.72
		c-0.266,0.374-0.506,0.507-0.72,0.4c-0.187-0.08-0.213-0.294-0.08-0.64C21.403,31.854,21.576,31.693,21.79,31.72z"/>
	
		<radialGradient id="SVGID_42_" cx="9.3643" cy="-4.3521" r="10.9435" gradientTransform="matrix(0.2093 0.7721 0.7721 -0.2093 18.4703 23.1789)" gradientUnits="userSpaceOnUse">
		<stop  offset="0" style="stop-color:#F58758"/>
		<stop  offset="1" style="stop-color:#BD5206"/>
	</radialGradient>
	<path style="fill-rule:evenodd;clip-rule:evenodd;fill:url(#SVGID_42_);" d="M23.43,34.04c0.106,0.479,0.066,0.813-0.12,1
		c-0.187,0.16-0.333,0.08-0.439-0.24c-0.08-0.267-0.027-0.507,0.16-0.72C23.243,33.84,23.376,33.826,23.43,34.04z"/>
	
		<radialGradient id="SVGID_43_" cx="9.3643" cy="-4.3521" r="10.9435" gradientTransform="matrix(0.2093 0.7721 0.7721 -0.2093 18.4703 23.1789)" gradientUnits="userSpaceOnUse">
		<stop  offset="0" style="stop-color:#F58758"/>
		<stop  offset="1" style="stop-color:#BD5206"/>
	</radialGradient>
	<path style="fill-rule:evenodd;clip-rule:evenodd;fill:url(#SVGID_43_);" d="M24.59,36.439c0.026,0.24-0.08,0.48-0.32,0.721
		c-0.213,0.239-0.399,0.279-0.56,0.12c-0.134-0.134-0.027-0.36,0.32-0.681C24.376,36.28,24.563,36.227,24.59,36.439z"/>
	
		<radialGradient id="SVGID_44_" cx="9.3608" cy="-4.3594" r="10.9282" gradientTransform="matrix(0.2086 0.7723 0.7723 -0.2086 18.4839 23.1814)" gradientUnits="userSpaceOnUse">
		<stop  offset="0" style="stop-color:#F58758"/>
		<stop  offset="1" style="stop-color:#BD5206"/>
	</radialGradient>
	<path style="fill-rule:evenodd;clip-rule:evenodd;fill:url(#SVGID_44_);" d="M19.75,28.8c0.319,0.054,0.399,0.134,0.239,0.24
		c-0.133,0.08-0.319,0.093-0.56,0.04c-0.213-0.026-0.24-0.094-0.08-0.2C19.483,28.8,19.616,28.773,19.75,28.8z"/>
	
		<radialGradient id="SVGID_45_" cx="9.3608" cy="-4.3594" r="10.9282" gradientTransform="matrix(0.2086 0.7723 0.7723 -0.2086 18.4839 23.1814)" gradientUnits="userSpaceOnUse">
		<stop  offset="0" style="stop-color:#F58758"/>
		<stop  offset="1" style="stop-color:#BD5206"/>
	</radialGradient>
	<path style="fill-rule:evenodd;clip-rule:evenodd;fill:url(#SVGID_45_);" d="M21.27,29.8c0.4-0.133,0.534-0.054,0.4,0.24
		c-0.16,0.347-0.32,0.493-0.48,0.44c-0.106-0.027-0.133-0.134-0.079-0.32C21.137,29.974,21.189,29.854,21.27,29.8z"/>
	
		<radialGradient id="SVGID_46_" cx="9.3643" cy="-4.3521" r="10.9435" gradientTransform="matrix(0.2093 0.7721 0.7721 -0.2093 18.4703 23.1789)" gradientUnits="userSpaceOnUse">
		<stop  offset="0" style="stop-color:#F58758"/>
		<stop  offset="1" style="stop-color:#BD5206"/>
	</radialGradient>
	<path style="fill-rule:evenodd;clip-rule:evenodd;fill:url(#SVGID_46_);" d="M23.31,31.56c0.054,0.373,0.027,0.601-0.08,0.68
		c-0.08,0.107-0.146,0.041-0.199-0.199c-0.027-0.214,0-0.4,0.08-0.561C23.217,31.32,23.283,31.347,23.31,31.56z"/>
	
		<radialGradient id="SVGID_47_" cx="9.3608" cy="-4.3594" r="10.9282" gradientTransform="matrix(0.2086 0.7723 0.7723 -0.2086 18.4839 23.1814)" gradientUnits="userSpaceOnUse">
		<stop  offset="0" style="stop-color:#F58758"/>
		<stop  offset="1" style="stop-color:#BD5206"/>
	</radialGradient>
	<path style="fill-rule:evenodd;clip-rule:evenodd;fill:url(#SVGID_47_);" d="M24.67,33.479c0,0.4-0.054,0.681-0.16,0.84
		c-0.08,0.16-0.173,0.16-0.28,0c-0.08-0.133-0.026-0.373,0.16-0.72C24.55,33.28,24.644,33.239,24.67,33.479z"/>
	<path style="fill-rule:evenodd;clip-rule:evenodd;fill:#649433;" d="M23.87,35.36c0.267-0.214,0.52-0.507,0.76-0.881
		c0.507-0.746,0.76-1.506,0.76-2.279c-0.026-0.907-0.373-1.613-1.04-2.12l0.36,0.16c0.32,0.187,0.627,0.467,0.92,0.84
		c0.32,0.399,0.493,1,0.52,1.8c0.027,0.746-0.066,1.28-0.279,1.6C25.55,35.013,24.883,35.307,23.87,35.36z"/>
</g>
</svg>
