<?xml version="1.0" encoding="iso-8859-1"?>
<!-- Generator: Adobe Illustrator 15.1.0, SVG Export Plug-In . SVG Version: 6.00 Build 0)  -->
<!DOCTYPE svg PUBLIC "-//W3C//DTD SVG 1.1//EN" "http://www.w3.org/Graphics/SVG/1.1/DTD/svg11.dtd">
<svg version="1.1" id="flash0.ai" xmlns="http://www.w3.org/2000/svg" xmlns:xlink="http://www.w3.org/1999/xlink" x="0px" y="0px"
	 width="43.55px" height="40px" viewBox="0 0 43.55 40" style="enable-background:new 0 0 43.55 40;" xml:space="preserve">
<symbol  id="flash0.ai_x5F_0_x2F_Layer_13_x2F__x3C_Path_x3E__x5F_14" viewBox="-0.006 -1.238 1.097 1.232">
	<g id="Layer_1_6_">
		<path style="fill-rule:evenodd;clip-rule:evenodd;fill:#FFFFFF;" d="M0.8-0.1c0.267-0.2,0.35-0.467,0.25-0.8
			c-0.1-0.3-0.333-0.4-0.7-0.3C-0.017-1.1-0.1-0.85,0.1-0.45C0.3-0.017,0.533,0.1,0.8-0.1z"/>
	</g>
</symbol>
<symbol  id="flash0.ai_x5F_0_x2F_Layer_13_x2F__x3C_Path_x3E__x5F_15" viewBox="-0.034 -4.296 3.853 4.321">
	<g id="Layer_1_5_">
		<path style="fill-rule:evenodd;clip-rule:evenodd;fill:#FFFFFF;" d="M3.65-1C3.917-1.733,3.867-2.367,3.5-2.9
			C3-3.567,2.483-4,1.95-4.2C1.483-4.367,1.1-4.317,0.8-4.05C0.067-3.417-0.183-2.6,0.05-1.6C0.283-0.7,0.733-0.183,1.4-0.05
			C2.533,0.183,3.283-0.133,3.65-1z"/>
	</g>
</symbol>
<symbol  id="flash0.ai_x5F_0_x2F_Layer_13_x2F__x3C_Path_x3E__x5F_16" viewBox="-0.059 -17.023 17.153 17.023">
	<g id="Layer_1_4_">
		<path style="fill-rule:evenodd;clip-rule:evenodd;fill:#F28457;" d="M10.85,0c1.533,0,2.883-0.533,4.05-1.6
			c1.267-1.133,1.983-2.617,2.15-4.45c0.233-2.767-0.466-5.2-2.1-7.3c-1.767-2.267-4.117-3.483-7.05-3.65
			c-3.133-0.2-5.4,0.883-6.8,3.25c-1.333,2.233-1.517,4.8-0.55,7.7c0.767,2.233,2.367,3.867,4.8,4.9C7.083-0.383,8.917,0,10.85,0z"
			/>
	</g>
</symbol>
<symbol  id="flash0.ai_x5F_0_x2F_Layer_13_x2F__x3C_Path_x3E__x5F_17" viewBox="0 -26.708 23.453 26.721">
	<g id="Layer_1_3_">
		<path style="fill-rule:evenodd;clip-rule:evenodd;fill:#571B09;" d="M23.2-8.25c0.667-3.667,0.017-7.283-1.95-10.85l-0.35-0.55
			l-0.05-0.1c-0.667-0.933-1.2-1.6-1.6-2c-1.733-1.733-4-3.033-6.8-3.9c-3.1-0.767-6-1.117-8.7-1.05
			c-1.2,0.067-2.267,0.184-3.2,0.35L0-26.25c0.933-0.1,2.117-0.083,3.55,0.05c2.867,0.233,5.567,0.9,8.1,2
			c2.867,1.267,5.05,3.417,6.55,6.45c1.4,2.8,1.9,5.65,1.5,8.55c-0.567,3.9-2.284,6.867-5.15,8.9c0.534,0.033,1.15,0.1,1.85,0.2
			C16.933,0,17.333,0.033,17.6,0c0.5-0.067,0.95-0.2,1.35-0.4c1.566-1.567,2.7-3.2,3.4-4.9C22.717-6.2,23-7.183,23.2-8.25z"/>
	</g>
</symbol>
<symbol  id="flash0.ai_x5F_0_x2F_Layer_13_x2F__x3C_Path_x3E__x5F_18" viewBox="-0.001 -22.159 23.718 22.185">
	<g id="Layer_1_2_">
		<path style="fill-rule:evenodd;clip-rule:evenodd;fill:#F28457;" d="M14.25-0.15c2.967-0.467,5.4-1.95,7.3-4.45
			c2.434-3.167,2.817-6.583,1.15-10.25c-1.6-3.533-4.3-5.8-8.1-6.8c-3.767-0.934-7.1-0.583-10,1.05c-3,1.667-4.533,4.167-4.6,7.5
			c-0.033,3.167,0.567,5.817,1.8,7.95c1.067,1.833,2.517,3.133,4.35,3.9C8.95-0.083,11.65,0.283,14.25-0.15z"/>
	</g>
</symbol>
<g>
	<rect x="0.1" style="fill-rule:evenodd;clip-rule:evenodd;fill:#FFFFFF;fill-opacity:0;" width="40" height="40"/>
</g>
<g>
	
		<radialGradient id="SVGID_1_" cx="15.5327" cy="9.396" r="25.9481" gradientTransform="matrix(0.7631 0.4344 0.4344 -0.7631 -4.4137 18.8407)" gradientUnits="userSpaceOnUse">
		<stop  offset="0" style="stop-color:#FF280D"/>
		<stop  offset="1" style="stop-color:#630000"/>
	</radialGradient>
	<path style="fill-rule:evenodd;clip-rule:evenodd;fill:url(#SVGID_1_);" d="M22.937,8.144c2.752-0.088,5.343,0.82,7.771,2.722
		c3.894,3.015,5.679,6.791,5.356,11.328c-0.264,3.6-1.479,6.483-3.644,8.649c-2.137,2.137-4.728,3.541-7.772,4.215
		c-2.927,0.644-6.102,0.6-9.527-0.132c-3.512-0.762-6.322-2.356-8.43-4.786c-2.313-2.692-3.264-5.941-2.854-9.747
		c0.38-3.541,1.99-6.425,4.83-8.649c2.253-1.786,4.463-2.708,6.629-2.766C17.2,8.92,19.747,8.642,22.937,8.144z"/>
	
		<use xlink:href="#flash0.ai_x5F_0_x2F_Layer_13_x2F__x3C_Path_x3E__x5F_18"  width="23.718" height="22.185" x="-0.001" y="-22.159" transform="matrix(0.8781 0 0 -0.8781 4.75 11.3999)" style="overflow:visible;opacity:0.0586;enable-background:new    ;"/>
	
		<use xlink:href="#flash0.ai_x5F_0_x2F_Layer_13_x2F__x3C_Path_x3E__x5F_17"  width="23.453" height="26.721" y="-26.708" transform="matrix(0.8781 0 0 -0.8781 15.8999 11.3999)" style="overflow:visible;opacity:0.1211;enable-background:new    ;"/>
	
		<use xlink:href="#flash0.ai_x5F_0_x2F_Layer_13_x2F__x3C_Path_x3E__x5F_16"  width="17.153" height="17.023" x="-0.059" y="-17.023" transform="matrix(0.8781 0 0 -0.8781 6.1499 12.5)" style="overflow:visible;opacity:0.0898;enable-background:new    ;"/>
	
		<use xlink:href="#flash0.ai_x5F_0_x2F_Layer_13_x2F__x3C_Path_x3E__x5F_15"  width="3.853" height="4.321" x="-0.034" y="-4.296" transform="matrix(0.8781 0 0 -0.8781 9.0498 16.2998)" style="overflow:visible;opacity:0.1797;enable-background:new    ;"/>
	
		<use xlink:href="#flash0.ai_x5F_0_x2F_Layer_13_x2F__x3C_Path_x3E__x5F_14"  width="1.097" height="1.232" x="-0.006" y="-1.238" transform="matrix(0.8781 0 0 -0.8781 9.3999 21)" style="overflow:visible;opacity:0.1797;enable-background:new    ;"/>
	<path style="fill-rule:evenodd;clip-rule:evenodd;fill:#5E9119;" d="M31.762,11.349c-0.233,0-0.863,0.059-1.888,0.176
		c-0.702,0.059-1.552,0.029-2.547-0.088c-1.083-0.117-2.078-0.322-2.985-0.614l-1.01-0.396l1.712,1.054
		c1.259,0.791,2.254,1.493,2.986,2.107c1.463,1.259,2.561,1.947,3.293,2.064c0.614,0.087,1.127,0.043,1.536-0.132
		c-0.146,0.176-0.395,0.337-0.746,0.483c-0.731,0.234-1.61,0.219-2.635-0.044c-0.937-0.263-1.668-0.614-2.195-1.053
		c-0.673-0.615-1.347-1.186-2.02-1.712c-1.054-0.791-2.137-1.449-3.249-1.976l-1.361-0.57c-0.995,0.585-1.947,1.419-2.854,2.502
		c-0.439,0.556-0.907,1.17-1.405,1.844c-0.468,0.41-1.302,0.717-2.502,0.922c-1.054,0.176-2.327-0.132-3.819-0.922l1.844,0.614
		c1.317,0.234,2.239-0.131,2.766-1.098c0.41-0.673,0.761-1.346,1.054-2.02c0.205-0.468,0.439-0.878,0.703-1.229
		c0.673-0.82,1.537-1.303,2.59-1.449c0.059-0.087-0.776-0.22-2.503-0.395c-0.966-0.088-1.961,0.058-2.985,0.439
		c-1.054,0.41-1.8,0.6-2.239,0.571c-0.761-0.029-1.405-0.234-1.932-0.615C8.873,9.461,8.624,9.051,8.624,8.583l0.044-0.922
		l0.263,1.098c0.41,0.731,1.157,1.01,2.24,0.834c0.761-0.117,1.668-0.439,2.722-0.965c0.82-0.439,1.712-0.644,2.678-0.615
		c1.112,0.029,2.049,0.219,2.81,0.57c0.38,0.205,0.659,0.396,0.834,0.571l0.57-0.395c0.498-0.292,0.995-0.498,1.493-0.615
		c0.352-0.088,0.893-0.043,1.625,0.132c0.702,0.146,1.287,0.117,1.756-0.087c0.485-0.227,0.822-0.425,1.009-0.593
		c-0.26,0.441-0.625,0.755-1.098,0.944c-0.292,0.117-0.833,0.175-1.624,0.175c-0.702,0-1.127,0.044-1.273,0.132l-0.438,0.307
		l0.834,0.088c0.702,0.146,1.449,0.351,2.239,0.615c1.874,0.644,3.703,0.981,5.488,1.01c1.346,0.059,2.971,0.468,4.873,1.229
		C34.146,11.598,32.845,11.349,31.762,11.349z"/>
	<path style="fill-rule:evenodd;clip-rule:evenodd;fill:#31591E;" d="M20.478,9.505c1.346,0.117,2.108,0.249,2.284,0.395
		c0.175,0.176,0.087,0.336-0.265,0.483c-0.351,0.146-0.849,0.19-1.492,0.132c-0.556-0.059-0.951-0.19-1.186-0.396l-0.175-0.307
		L20.478,9.505z"/>
	
		<linearGradient id="SVGID_2_" gradientUnits="userSpaceOnUse" x1="-21.939" y1="0.3789" x2="-19.8626" y2="0.3789" gradientTransform="matrix(-0.8775 -0.0317 0.0317 -0.8775 3.7504 4.4987)">
		<stop  offset="0" style="stop-color:#599C00"/>
		<stop  offset="1" style="stop-color:#425200"/>
	</linearGradient>
	<path style="fill-rule:evenodd;clip-rule:evenodd;fill:url(#SVGID_2_);" d="M21.444,5.115L21.269,4.5h0.264
		c0.233,0,0.482,0.044,0.746,0.132c0.38,0.146,0.527,0.307,0.438,0.483c-0.38,0.029-0.644,0.029-0.79,0H21.444z"/>
	
		<linearGradient id="SVGID_3_" gradientUnits="userSpaceOnUse" x1="18.7656" y1="1.3477" x2="23.5144" y2="1.3477" gradientTransform="matrix(0.8737 0.0878 -0.0878 0.8737 3.75 4.4997)">
		<stop  offset="0" style="stop-color:#599C00"/>
		<stop  offset="1" style="stop-color:#425200"/>
	</linearGradient>
	<path style="fill-rule:evenodd;clip-rule:evenodd;fill:url(#SVGID_3_);" d="M22.322,5.115h0.439
		c-0.1,0.017-0.202,0.061-0.308,0.132c-0.322,0.234-0.513,0.747-0.571,1.537c-0.088,1.288,0,2.341,0.264,3.161
		c-0.176,0.263-0.629,0.395-1.361,0.395c-0.41,0-0.717-0.088-0.922-0.263l-0.219-0.264c0.263-1.786,0.6-3.117,1.01-3.995L21.269,4.5
		l0.307,0.308C21.81,5.012,22.059,5.115,22.322,5.115z"/>
	<g>
		
			<linearGradient id="SVGID_4_" gradientUnits="userSpaceOnUse" x1="18.1001" y1="3.4746" x2="21.6001" y2="3.4746" gradientTransform="matrix(0.8781 0 0 0.8781 3.7501 4.5002)">
			<stop  offset="0" style="stop-color:#599C00"/>
			<stop  offset="1" style="stop-color:#425200"/>
		</linearGradient>
		<path style="fill-rule:evenodd;clip-rule:evenodd;fill:url(#SVGID_4_);" d="M21.532,7.178c0.088-1.054,0.248-1.639,0.482-1.756
			c-0.088,0.03-0.19,0.117-0.307,0.264L21.4,6.607l0.088-0.659c0.204-0.41,0.277-0.673,0.22-0.79l-0.22-0.396
			C21.722,4.998,22,5.115,22.322,5.115h0.395c-0.497,0.087-0.775,0.644-0.834,1.668c-0.088,1.288,0,2.341,0.264,3.161
			c-0.176,0.263-0.629,0.395-1.361,0.395c-0.41,0-0.717-0.088-0.922-0.263l-0.197-0.242c0.09,0.103,0.346,0.154,0.768,0.154
			c0.146,0,0.22-0.132,0.22-0.396l0.307-0.746v0.395c0,0.205,0.044,0.424,0.132,0.659l0.044-0.527l0.176-0.966v1.405
			c0.059,0.205,0.146,0.19,0.263-0.044C21.488,9.096,21.473,8.232,21.532,7.178z"/>
	</g>
	<path style="fill-rule:evenodd;clip-rule:evenodd;fill:#67A614;" d="M21.269,5.466c0.029,0.088,0.103,0.117,0.22,0.088
		l-0.396,0.834c-0.38,1.025-0.644,1.859-0.79,2.503c-0.117,0.527-0.059,0.015,0.175-1.537C20.917,5.773,21.181,5.144,21.269,5.466z"
		/>
	
		<linearGradient id="SVGID_5_" gradientUnits="userSpaceOnUse" x1="-14.0498" y1="-7.1943" x2="-11.2098" y2="-7.1943" gradientTransform="matrix(-0.8657 0.1469 -0.1469 -0.8657 3.7509 4.5003)">
		<stop  offset="0" style="stop-color:#97C41B"/>
		<stop  offset="1" style="stop-color:#CDFF00;stop-opacity:0"/>
	</linearGradient>
	<path style="fill-rule:evenodd;clip-rule:evenodd;fill:url(#SVGID_5_);" d="M17.932,8.627l-0.791-0.132
		c-0.322-0.029-0.585-0.029-0.79,0l-0.22,0.088l0.615,0.132l0.395,0.176h-0.966l0.834,0.176c0.351,0.087,0.6,0.175,0.746,0.263
		c-0.468-0.117-1.127-0.176-1.976-0.176c-0.556,0-1.054,0.073-1.493,0.22L13.76,9.549l0.308-0.132
		c0.205-0.117,0.644-0.249,1.317-0.396L14.77,9.11l-1.141,0.308l0.527-0.176c0.263-0.117,0.629-0.234,1.098-0.351l-1.054,0.176
		c-0.205,0.058-0.542,0.161-1.009,0.307c-0.264,0.059-0.6,0.117-1.01,0.176l2.151-0.703c0.498-0.146,0.864-0.292,1.098-0.439
		l-1.317,0.263l0.527-0.263c0.41-0.205,0.775-0.307,1.098-0.307l1.229,0.131h-0.834c-0.205,0-0.351,0.029-0.439,0.088l-0.088,0.088
		h1.054C17.068,8.408,17.492,8.48,17.932,8.627z"/>
	
		<linearGradient id="SVGID_6_" gradientUnits="userSpaceOnUse" x1="-2.7612" y1="-17.9556" x2="-0.514" y2="-17.9556" gradientTransform="matrix(-0.4689 0.7424 -0.7424 -0.4689 3.7494 4.4999)">
		<stop  offset="0" style="stop-color:#97C41B"/>
		<stop  offset="1" style="stop-color:#CDFF00;stop-opacity:0"/>
	</linearGradient>
	<path style="fill-rule:evenodd;clip-rule:evenodd;fill:url(#SVGID_6_);" d="M16.482,13.632l0.22-0.308l1.493-2.283l-0.659,0.395
		l-0.615,0.79l0.043-0.219l0.527-0.922l-0.614,0.615c-0.205,0.175-0.381,0.468-0.527,0.878c-0.088,0.205-0.146,0.38-0.176,0.527
		c0.059-0.322,0.19-0.717,0.395-1.185c0.117-0.322,0.249-0.542,0.395-0.659c0.087-0.087,0.146-0.131,0.176-0.132
		c-0.088,0-0.161,0.044-0.219,0.132l-0.483,0.439l0.263-0.396c0.176-0.292,0.351-0.498,0.527-0.615l0.395-0.131l-0.395,0.483
		l0.351-0.219c0.088-0.088,0.293-0.19,0.615-0.308l-0.308,0.263l-0.132,0.351l0.307-0.263c0.146-0.117,0.366-0.219,0.659-0.307
		l-0.22,0.176l-0.219,0.482l0.439-0.482l-0.263,0.351l-0.308,0.527l0.351-0.308c0.147-0.176,0.352-0.307,0.615-0.395l-0.439,0.439
		l-0.351,0.483l0.659-0.439c0.175-0.176,0.424-0.322,0.747-0.439l-1.186,1.01l-0.659,0.703l0.22-0.352l0.175-0.395
		c-0.059,0.029-0.132,0.087-0.22,0.175c-0.146,0.146-0.263,0.307-0.351,0.483c-0.175,0.292-0.424,0.6-0.747,0.922l0.878-1.668
		l-0.571,0.79C17.039,12.974,16.775,13.31,16.482,13.632z"/>
	
		<linearGradient id="SVGID_7_" gradientUnits="userSpaceOnUse" x1="7.3232" y1="1.812" x2="10.7891" y2="1.812" gradientTransform="matrix(0.7854 0.3927 -0.3927 0.7854 3.7504 4.5001)">
		<stop  offset="0" style="stop-color:#58730F"/>
		<stop  offset="1" style="stop-color:#576B00;stop-opacity:0"/>
	</linearGradient>
	<path style="fill-rule:evenodd;clip-rule:evenodd;fill:url(#SVGID_7_);" d="M9.677,9.9C9.268,9.695,8.975,9.33,8.799,8.803
		L8.667,8.101l0.132,0.395c0.117,0.293,0.249,0.513,0.395,0.659c0.234,0.234,0.629,0.396,1.185,0.483
		c0.293,0.048,0.644,0.048,1.054,0l-1.229,0.175L10.775,9.9c0.322,0.029,0.776,0,1.361-0.088c-0.058,0.088-0.439,0.146-1.141,0.176
		c-0.439,0.029-0.776,0-1.01-0.088l0.219,0.131c0.263,0.117,0.673,0.162,1.229,0.132C10.965,10.281,10.379,10.193,9.677,9.9z"/>
	
		<linearGradient id="SVGID_8_" gradientUnits="userSpaceOnUse" x1="15.0264" y1="5.21" x2="17.486" y2="5.21" gradientTransform="matrix(0.7854 0.3927 -0.3927 0.7854 3.7504 4.5004)">
		<stop  offset="0" style="stop-color:#58730F"/>
		<stop  offset="1" style="stop-color:#576B00;stop-opacity:0"/>
	</linearGradient>
	<path style="fill-rule:evenodd;clip-rule:evenodd;fill:url(#SVGID_8_);" d="M14.639,15.125c0.117,0.029,0.278-0.103,0.483-0.396
		l0.571-0.878c-0.117,0.41-0.264,0.731-0.439,0.966l-0.483,0.527l0.352-0.131l0.395-0.264c-0.175,0.205-0.351,0.352-0.527,0.439
		l-0.307,0.176c0,0.088,0.175,0.043,0.526-0.132l0.703-0.307c-0.234,0.322-0.805,0.527-1.713,0.614
		c-0.585,0.059-1.039,0.073-1.361,0.044l-0.307-0.044l0.263-0.044c0.527,0.088,0.951-0.015,1.273-0.307
		c0.322-0.292,0.629-0.644,0.922-1.054L14.639,15.125z"/>
	
		<linearGradient id="SVGID_9_" gradientUnits="userSpaceOnUse" x1="29.0908" y1="-2.082" x2="33.1157" y2="-2.082" gradientTransform="matrix(0.7854 0.3927 -0.3927 0.7854 3.7502 4.4999)">
		<stop  offset="0" style="stop-color:#58730F"/>
		<stop  offset="1" style="stop-color:#576B00;stop-opacity:0"/>
	</linearGradient>
	<path style="fill-rule:evenodd;clip-rule:evenodd;fill:url(#SVGID_9_);" d="M26.888,14.291l0.483,0.395
		c0.176,0.175,0.425,0.337,0.746,0.483c-0.117-0.058-0.233-0.161-0.352-0.308l-0.526-0.702l0.526,0.571
		c0.205,0.205,0.47,0.336,0.791,0.396l-0.307-0.22l-0.439-0.396l0.351,0.264l0.396,0.132l-0.307-0.22l-0.659-0.834l0.79,0.658
		c0.352,0.322,0.513,0.396,0.482,0.22l-0.526-0.702l1.098,0.878c0.557,0.38,0.85,0.542,0.878,0.483
		c0.088,0.059,0.073,0.088-0.043,0.088l-0.791-0.22l0.396,0.22c0.176,0.088,0.438,0.176,0.79,0.263l-0.527-0.044l-0.878-0.176
		l0.702,0.308c0.273,0.096,0.5,0.162,0.682,0.198c-0.432-0.049-1.024-0.174-1.779-0.373c-0.613-0.176-1.126-0.454-1.536-0.834
		L26.888,14.291z"/>
	
		<linearGradient id="SVGID_10_" gradientUnits="userSpaceOnUse" x1="27.0566" y1="-6.1602" x2="30.858" y2="-6.1602" gradientTransform="matrix(0.7854 0.3927 -0.3927 0.7854 3.7504 4.5004)">
		<stop  offset="0" style="stop-color:#58730F"/>
		<stop  offset="1" style="stop-color:#576B00;stop-opacity:0"/>
	</linearGradient>
	<path style="fill-rule:evenodd;clip-rule:evenodd;fill:url(#SVGID_10_);" d="M29.522,10.91h-0.22l-0.307,0.088l1.668,0.044
		l-1.316,0.175h1.844l-2.239,0.22c-0.497,0.029-0.907,0-1.229-0.088l-0.352-0.132c0.469,0.088,0.819,0.088,1.054,0l-1.361-0.263
		l0.483,0.044c0.233,0.029,0.498,0.015,0.79-0.044h-0.702c-0.176,0-0.381-0.059-0.615-0.176l-0.307-0.175l0.834,0.22
		c0.409,0.087,0.673,0.103,0.79,0.043h-0.22l-0.352-0.219L29.522,10.91z"/>
	
		<linearGradient id="SVGID_11_" gradientUnits="userSpaceOnUse" x1="22.8447" y1="-6.4971" x2="24.097" y2="-6.4971" gradientTransform="matrix(0.7889 0.3857 -0.3857 0.7889 3.7498 4.5003)">
		<stop  offset="0" style="stop-color:#58730F"/>
		<stop  offset="1" style="stop-color:#576B00;stop-opacity:0"/>
	</linearGradient>
	<path style="fill-rule:evenodd;clip-rule:evenodd;fill:url(#SVGID_11_);" d="M24.034,8.32c0.234,0.117,0.542,0.175,0.923,0.175
		c0.292,0,0.482-0.029,0.57-0.087c-0.146,0.117-0.351,0.19-0.615,0.22c-0.264,0.029-0.468,0.015-0.614-0.044L24.034,8.32z"/>
	
		<linearGradient id="SVGID_12_" gradientUnits="userSpaceOnUse" x1="24.1211" y1="-9.4082" x2="27.169" y2="-9.4082" gradientTransform="matrix(0.6626 0.5762 -0.5762 0.6626 3.7499 4.5003)">
		<stop  offset="0" style="stop-color:#97C41B"/>
		<stop  offset="1" style="stop-color:#CDFF00;stop-opacity:0"/>
	</linearGradient>
	<path style="fill-rule:evenodd;clip-rule:evenodd;fill:url(#SVGID_12_);" d="M27.063,13.281l-0.263-0.088l0.263,0.264
		c0.118,0.087,0.22,0.205,0.308,0.351L26.977,13.5l-0.483-0.176l0.088,0.044l0.263,0.395c-0.058,0-0.189-0.088-0.395-0.264
		c-0.117-0.117-0.205-0.161-0.264-0.131v0.088l0.176,0.526l-0.264-0.395l-0.658-0.483l0.615,0.219v-0.131l-0.089-0.175l0.352,0.131
		l-0.438-0.439l0.396,0.175c0.175,0.117,0.307,0.161,0.394,0.132l-0.482-0.483l0.658,0.351c0.176,0.117,0.469,0.381,0.879,0.791
		l-0.703-0.571l0.308,0.307L27.063,13.281z"/>
	
		<linearGradient id="SVGID_13_" gradientUnits="userSpaceOnUse" x1="23.8389" y1="2.1768" x2="26.5848" y2="2.1768" gradientTransform="matrix(0.8634 0.1599 -0.1599 0.8634 3.7499 4.4995)">
		<stop  offset="0" style="stop-color:#97C41B"/>
		<stop  offset="1" style="stop-color:#CDFF00;stop-opacity:0"/>
	</linearGradient>
	<path style="fill-rule:evenodd;clip-rule:evenodd;fill:url(#SVGID_13_);" d="M25.527,10.778l0.088,0.088
		c0.088,0.059,0.205,0.103,0.351,0.132l0.483,0.088l-1.142-0.176l-0.659-0.175l0.879-0.044l-0.966-0.439h0.878l-0.308-0.22
		l-0.351-0.087l-0.044-0.088l0.614,0.175l0.395,0.176l-0.438-0.088l0.79,0.483l-0.658-0.176h-0.176l0.966,0.351
		c-0.234,0.029-0.409,0.029-0.526,0H25.527z"/>
</g>
</svg>
