<?xml version="1.0" encoding="iso-8859-1"?>
<!-- Generator: Adobe Illustrator 15.1.0, SVG Export Plug-In . SVG Version: 6.00 Build 0)  -->
<!DOCTYPE svg PUBLIC "-//W3C//DTD SVG 1.1//EN" "http://www.w3.org/Graphics/SVG/1.1/DTD/svg11.dtd">
<svg version="1.1" id="flash0.ai" xmlns="http://www.w3.org/2000/svg" xmlns:xlink="http://www.w3.org/1999/xlink" x="0px" y="0px"
	 width="50.05px" height="18.75px" viewBox="0 0 50.05 18.75" style="enable-background:new 0 0 50.05 18.75;" xml:space="preserve"
	>
<linearGradient id="SVGID_1_" gradientUnits="userSpaceOnUse" x1="10.9556" y1="21.1582" x2="22.2514" y2="21.1582" gradientTransform="matrix(0.8255 -0.5644 0.5644 0.8255 -3.397465e-005 -8.571148e-005)">
	<stop  offset="0" style="stop-color:#F59300"/>
	<stop  offset="1" style="stop-color:#C25100"/>
</linearGradient>
<path style="fill-rule:evenodd;clip-rule:evenodd;fill:url(#SVGID_1_);" d="M40.35,11.3c-0.767,0.667-2.116,1.334-4.05,2
	c-3.833,1.3-8.583,1.95-14.25,1.95c-6.533,0-11.816-0.717-15.85-2.15c-2.034-0.733-3.4-1.466-4.1-2.199
	c1.167-0.167,2.65-0.834,4.45-2c3.267-2.167,5.184-3.4,5.75-3.7c3.1-1.733,5.784-3.467,8.05-5.2C21.783,1.167,25.333,3.2,31,6.1
	C34.7,7.967,37.816,9.7,40.35,11.3z"/>
<linearGradient id="SVGID_2_" gradientUnits="userSpaceOnUse" x1="-5.1719" y1="10.5879" x2="-4.5062" y2="10.5879" gradientTransform="matrix(0.8262 -0.5633 0.5633 0.8262 1.341105e-005 -1.403093e-004)">
	<stop  offset="0" style="stop-color:#F59300"/>
	<stop  offset="1" style="stop-color:#C25100"/>
</linearGradient>
<path style="fill-rule:evenodd;clip-rule:evenodd;fill:url(#SVGID_2_);" d="M2.3,10.9c0.7,0.767,0.65,1.216-0.15,1.35
	c-0.867,0.1-1.367-0.05-1.5-0.45c-0.1-0.3,0.083-0.583,0.55-0.85C1.7,10.65,2.067,10.634,2.3,10.9z"/>
<linearGradient id="SVGID_3_" gradientUnits="userSpaceOnUse" x1="-5.2212" y1="12.9199" x2="-4.715" y2="12.9199" gradientTransform="matrix(0.8396 -0.5433 0.5433 0.8396 1.093149e-004 3.308058e-005)">
	<stop  offset="0" style="stop-color:#F59300"/>
	<stop  offset="1" style="stop-color:#C25100"/>
</linearGradient>
<path style="fill-rule:evenodd;clip-rule:evenodd;fill:url(#SVGID_3_);" d="M2.85,13.2c0.667,0.267,0.833,0.5,0.5,0.7
	c-0.3,0.166-0.684,0.183-1.15,0.05c-0.4-0.066-0.467-0.233-0.2-0.5S2.55,13.1,2.85,13.2z"/>
<linearGradient id="SVGID_4_" gradientUnits="userSpaceOnUse" x1="-3.665" y1="12.7051" x2="-3.415" y2="12.7051" gradientTransform="matrix(0.8 -0.6 0.6 0.8 4.856586e-004 0)">
	<stop  offset="0" style="stop-color:#F59300"/>
	<stop  offset="1" style="stop-color:#C25100"/>
</linearGradient>
<path style="fill-rule:evenodd;clip-rule:evenodd;fill:url(#SVGID_4_);" d="M4.75,12.2c0.367,0.033,0.467,0.133,0.3,0.3
	c-0.167,0.134-0.35,0.15-0.55,0.05C4.3,12.483,4.217,12.4,4.25,12.3C4.317,12.2,4.483,12.167,4.75,12.2z"/>
<linearGradient id="SVGID_5_" gradientUnits="userSpaceOnUse" x1="-2.5586" y1="14.3223" x2="-2.3783" y2="14.3223" gradientTransform="matrix(0.8321 -0.5547 0.5547 0.8321 3.721714e-004 1.287460e-004)">
	<stop  offset="0" style="stop-color:#F59300"/>
	<stop  offset="1" style="stop-color:#C25100"/>
</linearGradient>
<path style="fill-rule:evenodd;clip-rule:evenodd;fill:url(#SVGID_5_);" d="M5.9,13.2c0.434,0.1,0.333,0.184-0.3,0.25
	c-0.1-0.033-0.117-0.084-0.05-0.15C5.65,13.2,5.767,13.167,5.9,13.2z"/>
<linearGradient id="SVGID_6_" gradientUnits="userSpaceOnUse" x1="0.5337" y1="18.5059" x2="1.65" y2="18.5059" gradientTransform="matrix(0.8286 -0.5599 0.5599 0.8286 -3.079772e-004 9.804964e-005)">
	<stop  offset="0" style="stop-color:#F59300"/>
	<stop  offset="1" style="stop-color:#C25100"/>
</linearGradient>
<path style="fill-rule:evenodd;clip-rule:evenodd;fill:url(#SVGID_6_);" d="M8.9,14.85c-0.4-0.199-0.4-0.383,0-0.55
	c0.367-0.166,0.7-0.2,1-0.1c0.2,0.1,0.833,0.133,1.9,0.1c0.567,0.066,0.833,0.316,0.8,0.75c-0.033,0.2-0.067,0.45-0.1,0.75
	c0.133,0.101,0,0.184-0.4,0.25c-0.367,0.066-0.7,0.066-1,0c-0.233-0.033-0.4-0.149-0.5-0.35s-0.167-0.316-0.2-0.351L8.9,14.85z"/>
<linearGradient id="SVGID_7_" gradientUnits="userSpaceOnUse" x1="-1.2881" y1="17.8203" x2="-0.8027" y2="17.8203" gradientTransform="matrix(0.824 -0.5665 0.5665 0.824 -2.231598e-004 -5.006790e-005)">
	<stop  offset="0" style="stop-color:#F59300"/>
	<stop  offset="1" style="stop-color:#C25100"/>
</linearGradient>
<path style="fill-rule:evenodd;clip-rule:evenodd;fill:url(#SVGID_7_);" d="M9.4,15.2c0.4,0.1,0.55,0.2,0.45,0.3
	c-0.067,0.1-0.25,0.167-0.55,0.2c-0.5,0.033-0.85-0.033-1.05-0.2c-0.167-0.134-0.067-0.233,0.3-0.3
	C8.883,15.134,9.167,15.134,9.4,15.2z"/>
<linearGradient id="SVGID_8_" gradientUnits="userSpaceOnUse" x1="-3.4053" y1="10.2354" x2="-2.8851" y2="10.2354" gradientTransform="matrix(0.817 -0.5767 0.5767 0.817 -1.112819e-004 -1.579523e-004)">
	<stop  offset="0" style="stop-color:#F59300"/>
	<stop  offset="1" style="stop-color:#C25100"/>
</linearGradient>
<path style="fill-rule:evenodd;clip-rule:evenodd;fill:url(#SVGID_8_);" d="M3.95,10.35c-0.4,0.2-0.733,0.284-1,0.25
	c-0.467-0.066-0.667-0.133-0.6-0.199C2.417,10.267,2.5,10.167,2.6,10.1c0.2-0.2,0.45-0.266,0.75-0.2C3.85,10,4.05,10.15,3.95,10.35z
	"/>
<linearGradient id="SVGID_9_" gradientUnits="userSpaceOnUse" x1="-6.6851" y1="9.8325" x2="-6.4351" y2="9.8325" gradientTransform="matrix(0.8 -0.6 0.6 0.8 4.856586e-004 0)">
	<stop  offset="0" style="stop-color:#F59300"/>
	<stop  offset="1" style="stop-color:#C25100"/>
</linearGradient>
<path style="fill-rule:evenodd;clip-rule:evenodd;fill:url(#SVGID_9_);" d="M0.95,12.05C0.883,12.15,0.733,12.184,0.5,12.15
	c-0.367-0.067-0.467-0.217-0.3-0.45c0.066-0.167,0.25-0.2,0.55-0.101C0.883,11.6,0.95,11.75,0.95,12.05z"/>
<linearGradient id="SVGID_10_" gradientUnits="userSpaceOnUse" x1="-4.0366" y1="16.5059" x2="-3.4263" y2="16.5059" gradientTransform="matrix(0.8192 -0.5735 0.5735 0.8192 -5.775094e-004 1.975298e-004)">
	<stop  offset="0" style="stop-color:#F59300"/>
	<stop  offset="1" style="stop-color:#C25100"/>
</linearGradient>
<path style="fill-rule:evenodd;clip-rule:evenodd;fill:url(#SVGID_10_);" d="M6.55,15.45c0.6,0.066,0.767,0.25,0.5,0.55
	c-0.267,0.3-0.716,0.35-1.35,0.15c-0.567-0.2-0.684-0.384-0.35-0.551C5.65,15.434,6.05,15.384,6.55,15.45z"/>
<linearGradient id="SVGID_11_" gradientUnits="userSpaceOnUse" x1="6.3042" y1="23.4121" x2="8.0862" y2="23.4121" gradientTransform="matrix(0.8277 -0.5612 0.5612 0.8277 -9.524822e-005 -7.987022e-005)">
	<stop  offset="0" style="stop-color:#F59300"/>
	<stop  offset="1" style="stop-color:#C25100"/>
</linearGradient>
<path style="fill-rule:evenodd;clip-rule:evenodd;fill:url(#SVGID_11_);" d="M21.55,16.15c0,0.066-0.483,0.149-1.45,0.25
	c-1.033,0.133-1.883,0.199-2.55,0.199c-0.667,0-1.2-0.1-1.6-0.3c-0.4-0.166-0.55-0.333-0.45-0.5c0.133-0.467,0.55-0.916,1.25-1.35
	c0.433-0.267,0.983-0.334,1.65-0.2c0.567,0.066,1.1,0.25,1.6,0.55c0.367,0.233,0.733,0.517,1.1,0.851
	C21.4,15.917,21.55,16.083,21.55,16.15z"/>
<linearGradient id="SVGID_12_" gradientUnits="userSpaceOnUse" x1="8.6289" y1="25.8164" x2="9.981" y2="25.8164" gradientTransform="matrix(0.8321 -0.5547 0.5547 0.8321 -1.134276e-004 1.284480e-004)">
	<stop  offset="0" style="stop-color:#F59300"/>
	<stop  offset="1" style="stop-color:#C25100"/>
</linearGradient>
<path style="fill-rule:evenodd;clip-rule:evenodd;fill:url(#SVGID_12_);" d="M22.6,15.75l1.15,0.85
	c-0.133,0.4-0.567,0.667-1.3,0.801c-1.034,0.233-1.967,0.166-2.8-0.2c-0.2-0.101-0.167-0.316,0.1-0.65
	c0.133-0.166,0.35-0.399,0.65-0.7c0.133-0.199,0.434-0.316,0.9-0.35C21.767,15.434,22.2,15.517,22.6,15.75z"/>
<linearGradient id="SVGID_13_" gradientUnits="userSpaceOnUse" x1="3.5996" y1="23.7793" x2="4.5357" y2="23.7793" gradientTransform="matrix(0.8279 -0.5608 0.5608 0.8279 -2.965331e-004 -1.716614e-004)">
	<stop  offset="0" style="stop-color:#F59300"/>
	<stop  offset="1" style="stop-color:#C25100"/>
</linearGradient>
<path style="fill-rule:evenodd;clip-rule:evenodd;fill:url(#SVGID_13_);" d="M16.85,16.85c0.3,0.067,0.583,0.233,0.85,0.5
	c0.233,0.267,0.267,0.467,0.1,0.601c-0.133,0.133-0.55,0.184-1.25,0.149C15.983,18.066,15.5,18,15.1,17.9
	c-0.267-0.067-0.383-0.167-0.35-0.301c0.033-0.066,0.183-0.216,0.45-0.449C15.6,16.783,16.15,16.684,16.85,16.85z"/>
<linearGradient id="SVGID_14_" gradientUnits="userSpaceOnUse" x1="1.8994" y1="23.3809" x2="2.475" y2="23.3809" gradientTransform="matrix(0.8253 -0.5647 0.5647 0.8253 -2.244115e-004 -2.345443e-004)">
	<stop  offset="0" style="stop-color:#F59300"/>
	<stop  offset="1" style="stop-color:#C25100"/>
</linearGradient>
<path style="fill-rule:evenodd;clip-rule:evenodd;fill:url(#SVGID_14_);" d="M15.65,18.1c0.133,0.134,0.117,0.233-0.05,0.301
	c-0.367,0.166-0.883,0.183-1.55,0.05c-0.4-0.134-0.233-0.4,0.5-0.8c0.167-0.134,0.367-0.15,0.6-0.051
	C15.383,17.7,15.55,17.866,15.65,18.1z"/>
<linearGradient id="SVGID_15_" gradientUnits="userSpaceOnUse" x1="17.3877" y1="30.8662" x2="19.0242" y2="30.8662" gradientTransform="matrix(0.8249 -0.5652 0.5652 0.8249 2.557635e-004 1.120567e-004)">
	<stop  offset="0" style="stop-color:#F59300"/>
	<stop  offset="1" style="stop-color:#C25100"/>
</linearGradient>
<path style="fill-rule:evenodd;clip-rule:evenodd;fill:url(#SVGID_15_);" d="M29.5,15.5c0.1-0.167,0.233-0.434,0.4-0.8
	c0.133-0.334,0.35-0.566,0.649-0.7c0.367-0.167,0.783-0.217,1.25-0.15c0.467,0.067,0.816,0.217,1.05,0.45
	c0.267,0.3,0.617,0.533,1.051,0.7c0.199,0.066,0.416,0.267,0.649,0.6c0.2,0.301,0.25,0.483,0.15,0.551c-0.134,0.1-0.467,0.199-1,0.3
	c-0.566,0.133-1.05,0.217-1.45,0.25c-0.033,0-0.45,0.033-1.25,0.1c-0.467,0.033-0.816,0-1.05-0.1
	c-0.233-0.101-0.384-0.283-0.45-0.55C29.434,15.917,29.434,15.7,29.5,15.5z"/>
<linearGradient id="SVGID_16_" gradientUnits="userSpaceOnUse" x1="15.1572" y1="30.7061" x2="16.2389" y2="30.7061" gradientTransform="matrix(0.8321 -0.5547 0.5547 0.8321 -6.023049e-004 1.284480e-004)">
	<stop  offset="0" style="stop-color:#F59300"/>
	<stop  offset="1" style="stop-color:#C25100"/>
</linearGradient>
<path style="fill-rule:evenodd;clip-rule:evenodd;fill:url(#SVGID_16_);" d="M30.2,16.05c0.366,0.066,0.717,0.3,1.05,0.7
	c0.333,0.366,0.384,0.616,0.15,0.75c-0.733,0.3-1.351,0.45-1.851,0.45c-0.833,0-1.399-0.283-1.7-0.851
	c-0.066-0.133,0.017-0.25,0.25-0.35c0.334-0.2,0.551-0.366,0.65-0.5c0.167-0.2,0.384-0.3,0.65-0.3
	C29.467,15.95,29.733,15.983,30.2,16.05z"/>
<linearGradient id="SVGID_17_" gradientUnits="userSpaceOnUse" x1="12.377" y1="30.2695" x2="12.9178" y2="30.2695" gradientTransform="matrix(0.8321 -0.5547 0.5547 0.8321 -6.023049e-004 1.284480e-004)">
	<stop  offset="0" style="stop-color:#F59300"/>
	<stop  offset="1" style="stop-color:#C25100"/>
</linearGradient>
<path style="fill-rule:evenodd;clip-rule:evenodd;fill:url(#SVGID_17_);" d="M27.5,17.9c0.5,0.233,0.6,0.449,0.3,0.649
	c-0.3,0.167-0.649,0.233-1.05,0.2c-0.267-0.033-0.434-0.116-0.5-0.25c-0.033-0.134-0.017-0.233,0.05-0.3
	c0.033-0.101,0.184-0.2,0.45-0.3C27.083,17.8,27.333,17.8,27.5,17.9z"/>
<linearGradient id="SVGID_18_" gradientUnits="userSpaceOnUse" x1="13.8604" y1="28.3271" x2="14.5608" y2="28.3271" gradientTransform="matrix(0.8209 -0.5711 0.5711 0.8209 1.255870e-004 1.775026e-004)">
	<stop  offset="0" style="stop-color:#F59300"/>
	<stop  offset="1" style="stop-color:#C25100"/>
</linearGradient>
<path style="fill-rule:evenodd;clip-rule:evenodd;fill:url(#SVGID_18_);" d="M28.55,15c0.267,0.5-0.233,0.75-1.5,0.75
	c-0.533,0-0.583-0.25-0.149-0.75c0.233-0.2,0.517-0.316,0.85-0.35C28.15,14.616,28.417,14.733,28.55,15z"/>
<linearGradient id="SVGID_19_" gradientUnits="userSpaceOnUse" x1="23.1772" y1="31.832" x2="24.3837" y2="31.832" gradientTransform="matrix(0.8288 -0.5595 0.5595 0.8288 -5.154014e-004 9.268522e-005)">
	<stop  offset="0" style="stop-color:#F59300"/>
	<stop  offset="1" style="stop-color:#C25100"/>
</linearGradient>
<path style="fill-rule:evenodd;clip-rule:evenodd;fill:url(#SVGID_19_);" d="M38.95,13.15c-0.634,0.966-1.55,1.366-2.75,1.199
	C35.434,14.217,35.233,13.9,35.6,13.4c0.067-0.101,0.517-0.517,1.351-1.25c0.366-0.301,0.666-0.334,0.899-0.101
	C38.017,12.184,38.384,12.55,38.95,13.15z"/>
<linearGradient id="SVGID_20_" gradientUnits="userSpaceOnUse" x1="24.4976" y1="33.46" x2="25.3783" y2="33.46" gradientTransform="matrix(0.8232 -0.5677 0.5677 0.8232 -3.251433e-004 -2.278686e-004)">
	<stop  offset="0" style="stop-color:#F59300"/>
	<stop  offset="1" style="stop-color:#C25100"/>
</linearGradient>
<path style="fill-rule:evenodd;clip-rule:evenodd;fill:url(#SVGID_20_);" d="M40.4,13.3c-0.167,0.767-0.667,1.15-1.5,1.15
	c-0.534,0.033-0.817-0.084-0.851-0.351c0-0.133,0.101-0.416,0.3-0.85c0.101-0.233,0.334-0.333,0.7-0.3
	C39.184,12.983,39.634,13.1,40.4,13.3z"/>
<linearGradient id="SVGID_21_" gradientUnits="userSpaceOnUse" x1="27.3662" y1="36.5723" x2="28.4272" y2="36.5723" gradientTransform="matrix(0.8247 -0.5655 0.5655 0.8247 4.221797e-004 -1.934171e-004)">
	<stop  offset="0" style="stop-color:#F59300"/>
	<stop  offset="1" style="stop-color:#C25100"/>
</linearGradient>
<path style="fill-rule:evenodd;clip-rule:evenodd;fill:url(#SVGID_21_);" d="M44.3,13.75c0.101,0.033,0.25,0.167,0.45,0.4
	c0.2,0.267,0.267,0.483,0.2,0.649c-0.101,0.267-1.017,0.334-2.75,0.2c-0.467-0.066-0.634-0.167-0.5-0.3l0.5-0.45
	c0.066-0.233,0.3-0.417,0.7-0.55C43.4,13.5,43.866,13.517,44.3,13.75z"/>
<linearGradient id="SVGID_22_" gradientUnits="userSpaceOnUse" x1="27.2266" y1="32.4023" x2="27.712" y2="32.4023" gradientTransform="matrix(0.824 -0.5665 0.5665 0.824 -2.231598e-004 -5.006790e-005)">
	<stop  offset="0" style="stop-color:#F59300"/>
	<stop  offset="1" style="stop-color:#C25100"/>
</linearGradient>
<path style="fill-rule:evenodd;clip-rule:evenodd;fill:url(#SVGID_22_);" d="M41.15,11.7c-0.5-0.167-0.834-0.3-1-0.4l-0.601-0.6
	l0.15-0.2c0.2-0.1,0.45-0.1,0.75,0c0.5,0.2,0.883,0.5,1.149,0.9c0.5,0.366,0.617,0.55,0.351,0.55
	C41.884,11.95,41.616,11.866,41.15,11.7z"/>
<linearGradient id="SVGID_23_" gradientUnits="userSpaceOnUse" x1="26.9814" y1="33.7031" x2="28.0772" y2="33.7031" gradientTransform="matrix(0.8214 -0.5704 0.5704 0.8214 5.638003e-004 -1.919866e-004)">
	<stop  offset="0" style="stop-color:#F59300"/>
	<stop  offset="1" style="stop-color:#C25100"/>
</linearGradient>
<path style="fill-rule:evenodd;clip-rule:evenodd;fill:url(#SVGID_23_);" d="M41.65,12.8c-0.267,0-0.65-0.066-1.15-0.2
	c-0.5-0.1-0.783-0.183-0.85-0.25c-0.034-0.033,0.033-0.116,0.199-0.25c0.067-0.033,0.15-0.083,0.25-0.149
	c0.2-0.3,0.467-0.517,0.801-0.65c0.333-0.133,0.649-0.133,0.949,0c0.4,0.2,0.884,0.55,1.45,1.05
	C42.566,12.65,42.017,12.8,41.65,12.8z"/>
<linearGradient id="SVGID_24_" gradientUnits="userSpaceOnUse" x1="28.6738" y1="34.9834" x2="29.4296" y2="34.9834" gradientTransform="matrix(0.8269 -0.5623 0.5623 0.8269 1.236796e-004 -8.791685e-005)">
	<stop  offset="0" style="stop-color:#F59300"/>
	<stop  offset="1" style="stop-color:#C25100"/>
</linearGradient>
<path style="fill-rule:evenodd;clip-rule:evenodd;fill:url(#SVGID_24_);" d="M44,12.1c0.6,0.434,0.8,0.733,0.6,0.9
	c-0.166,0.1-0.833,0.116-2,0.05c-0.366-0.033-0.5-0.133-0.399-0.3c0.066-0.066,0.184-0.184,0.35-0.35
	c0.101-0.134,0.267-0.25,0.5-0.351C43.417,11.917,43.733,11.934,44,12.1z"/>
<linearGradient id="SVGID_25_" gradientUnits="userSpaceOnUse" x1="29.2461" y1="31.9229" x2="29.6066" y2="31.9229" gradientTransform="matrix(0.8321 -0.5547 0.5547 0.8321 3.721714e-004 1.287460e-004)">
	<stop  offset="0" style="stop-color:#F59300"/>
	<stop  offset="1" style="stop-color:#C25100"/>
</linearGradient>
<path style="fill-rule:evenodd;clip-rule:evenodd;fill:url(#SVGID_25_);" d="M42.15,9.9c0.166,0.067,0.316,0.167,0.449,0.3
	c0.134,0.166,0.134,0.283,0,0.35c-0.199,0.101-0.583,0.033-1.149-0.2c-0.167-0.033-0.117-0.133,0.149-0.3
	C41.833,9.883,42.017,9.833,42.15,9.9z"/>
<linearGradient id="SVGID_26_" gradientUnits="userSpaceOnUse" x1="21.1748" y1="34.3027" x2="22.8461" y2="34.3027" gradientTransform="matrix(0.8227 -0.5684 0.5684 0.8227 -1.353025e-004 9.638071e-005)">
	<stop  offset="0" style="stop-color:#F59300"/>
	<stop  offset="1" style="stop-color:#C25100"/>
</linearGradient>
<path style="fill-rule:evenodd;clip-rule:evenodd;fill:url(#SVGID_26_);" d="M38.85,14.9c0.867,0.933,1.134,1.483,0.801,1.649
	c-0.233,0.134-0.733,0.283-1.5,0.45c-0.834,0.167-1.5,0.25-2,0.25c-0.4-0.033-0.817-0.167-1.25-0.4L34.35,16.5l0.7-1.1
	c0.101-0.2,0.384-0.45,0.851-0.75c0.466-0.367,0.85-0.567,1.149-0.601c0.267-0.033,0.584,0.05,0.95,0.25
	C38.2,14.434,38.483,14.634,38.85,14.9z"/>
<linearGradient id="SVGID_27_" gradientUnits="userSpaceOnUse" x1="24.856" y1="36.8164" x2="25.4315" y2="36.8164" gradientTransform="matrix(0.8253 -0.5647 0.5647 0.8253 -2.244115e-004 -2.345443e-004)">
	<stop  offset="0" style="stop-color:#F59300"/>
	<stop  offset="1" style="stop-color:#C25100"/>
</linearGradient>
<path style="fill-rule:evenodd;clip-rule:evenodd;fill:url(#SVGID_27_);" d="M41.55,15.9c0.566,0.133,0.8,0.3,0.7,0.5
	c-0.1,0.166-0.333,0.267-0.7,0.3c-0.5,0.1-0.866,0.033-1.1-0.2c-0.134-0.1-0.066-0.25,0.2-0.45C40.95,15.85,41.25,15.8,41.55,15.9z"
	/>
<path style="fill-rule:evenodd;clip-rule:evenodd;fill:#A65000;" d="M32.8,9.35c0.3,0.367,0.45,0.6,0.45,0.7
	c0,0.066-0.05,0.184-0.15,0.351c-0.033,0.233-0.283,0.366-0.75,0.399c-0.466,0-0.75-0.217-0.85-0.649
	c-0.1-0.601-0.05-1.034,0.15-1.3C31.884,8.55,32.267,8.717,32.8,9.35z"/>
<path style="fill-rule:evenodd;clip-rule:evenodd;fill:#A65000;" d="M35.85,9.65c0.767,0.367,0.983,0.767,0.65,1.2
	c-0.167,0.233-0.45,0.233-0.85,0c-0.4-0.233-0.617-0.5-0.65-0.8C34.934,9.383,35.217,9.25,35.85,9.65z"/>
<path style="fill-rule:evenodd;clip-rule:evenodd;fill:#A65000;" d="M37.6,10.45c0.267,0.233,0.4,0.366,0.4,0.399
	c0.066,0.067,0.05,0.15-0.05,0.25c-0.2,0.2-0.467,0.15-0.8-0.149c-0.2-0.134-0.2-0.283,0-0.45
	C37.316,10.333,37.467,10.316,37.6,10.45z"/>
<path style="fill-rule:evenodd;clip-rule:evenodd;fill:#A65000;" d="M29.65,6.25c0.233,0.2,0.366,0.417,0.399,0.65
	c0.033,0.3-0.1,0.5-0.399,0.6C29.384,7.633,29.167,7.567,29,7.3c-0.134-0.367-0.25-0.65-0.35-0.85C28.517,6.183,28.566,6.033,28.8,6
	C29.033,5.933,29.316,6.017,29.65,6.25z"/>
<path style="fill-rule:evenodd;clip-rule:evenodd;fill:#A65000;" d="M31.85,6.95c0.534,0.466,0.684,0.833,0.45,1.1
	c-0.2,0.3-0.55,0.1-1.05-0.6C31.017,7.217,31,7.017,31.2,6.85C31.4,6.717,31.616,6.75,31.85,6.95z"/>
<path style="fill-rule:evenodd;clip-rule:evenodd;fill:#A65000;" d="M33.8,10.5c0.3,0.233,0.483,0.5,0.55,0.8
	c0.067,0.334-0.066,0.517-0.399,0.55c-0.334,0.034-0.55-0.083-0.65-0.35c-0.133-0.267-0.133-0.5,0-0.7
	C33.467,10.434,33.634,10.333,33.8,10.5z"/>
<path style="fill-rule:evenodd;clip-rule:evenodd;fill:#A65000;" d="M25.15,3.5c0.267,0.2,0.399,0.417,0.399,0.65
	c0.033,0.267-0.116,0.45-0.45,0.55c-0.3,0.1-0.55-0.034-0.75-0.4c-0.167-0.3-0.25-0.633-0.25-1C24.1,2.867,24.45,2.933,25.15,3.5z"
	/>
<path style="fill-rule:evenodd;clip-rule:evenodd;fill:#A65000;" d="M23.45,2.9c0.133,0.167,0.2,0.333,0.2,0.5
	c-0.033,0.133-0.1,0.233-0.2,0.3c-0.133,0.066-0.267,0-0.4-0.2C22.883,3.333,22.8,3.167,22.8,3s0.083-0.25,0.25-0.25
	C23.183,2.717,23.317,2.767,23.45,2.9z"/>
<path style="fill-rule:evenodd;clip-rule:evenodd;fill:#A65000;" d="M28.8,8.6c0.5,0.967,0.316,1.55-0.55,1.75
	c-0.267,0.067-0.417-0.083-0.45-0.45c0-0.1,0.017-0.467,0.05-1.1c0-0.3,0.134-0.466,0.4-0.5C28.483,8.233,28.667,8.333,28.8,8.6z"/>
<path style="fill-rule:evenodd;clip-rule:evenodd;fill:#A65000;" d="M30.15,9.95c0.267,0.3,0.333,0.633,0.199,1
	c-0.033,0.133-0.166,0.166-0.399,0.1s-0.417-0.25-0.55-0.55c-0.101-0.3-0.017-0.5,0.25-0.6C29.884,9.833,30.05,9.85,30.15,9.95z"/>
<path style="fill-rule:evenodd;clip-rule:evenodd;fill:#A65000;" d="M28.6,12.2c0.233,0.267,0.4,0.583,0.5,0.95
	c0.067,0.433-0.033,0.699-0.3,0.8c-0.3,0.1-0.517,0.083-0.649-0.05c-0.134-0.101-0.301-0.351-0.5-0.75
	c-0.2-0.4-0.15-0.717,0.149-0.95C28.1,11.934,28.366,11.934,28.6,12.2z"/>
<path style="fill-rule:evenodd;clip-rule:evenodd;fill:#A65000;" d="M25.3,12.1c0.134-0.033,0.3,0.101,0.5,0.4
	c0.233,0.267,0.334,0.483,0.3,0.65c-0.066,0.3-0.399,0.399-1,0.3c-0.266-0.033-0.35-0.25-0.25-0.65
	C24.917,12.4,25.066,12.167,25.3,12.1z"/>
<path style="fill-rule:evenodd;clip-rule:evenodd;fill:#A65000;" d="M33.4,12.4C33.6,12.6,33.717,12.8,33.75,13
	c0.033,0.267-0.05,0.45-0.25,0.55c-0.333,0.167-0.65-0.05-0.95-0.649c-0.1-0.233-0.05-0.434,0.15-0.601
	C32.934,12.167,33.167,12.2,33.4,12.4z"/>
<path style="fill-rule:evenodd;clip-rule:evenodd;fill:#A65000;" d="M34.3,8.3c0.066,0.6-0.083,0.967-0.45,1.1
	c-0.233,0.067-0.383-0.017-0.449-0.25c-0.034-0.3-0.101-0.533-0.2-0.7C33,8.05,33.366,8,34.3,8.3z"/>
<path style="fill-rule:evenodd;clip-rule:evenodd;fill:#FFA621;" d="M17.15,3.05c0.6-0.233,0.767,0.05,0.5,0.85
	c-0.066,0.267-0.233,0.467-0.5,0.6c-0.333,0.1-0.7,0.033-1.1-0.2C15.517,4.033,15.883,3.617,17.15,3.05z"/>
<path style="fill-rule:evenodd;clip-rule:evenodd;fill:#FFA621;" d="M15.6,4.95c0.267,0,0.417,0.117,0.45,0.35
	C16.083,5.5,16,5.667,15.8,5.8c-0.3,0.233-0.55,0.15-0.75-0.25C14.85,5.15,15.033,4.95,15.6,4.95z"/>
<path style="fill-rule:evenodd;clip-rule:evenodd;fill:#FFA621;" d="M21.45,3.05c0.167,0.434,0,0.767-0.5,1
	c-0.333,0.167-0.434-0.066-0.3-0.7c0.033-0.133,0.15-0.267,0.35-0.4C21.233,2.85,21.383,2.883,21.45,3.05z"/>
<path style="fill-rule:evenodd;clip-rule:evenodd;fill:#FFA621;" d="M19.35,4.65L19.9,4.5c0.033,0,0.05,0.083,0.05,0.25
	c0,0.367-0.167,0.517-0.5,0.45c-0.167-0.034-0.25-0.117-0.25-0.25C19.167,4.817,19.217,4.717,19.35,4.65z"/>
<path style="fill-rule:evenodd;clip-rule:evenodd;fill:#FFA621;" d="M11.6,6.4c0.4-0.1,0.65-0.05,0.75,0.15
	c0.066,0.167,0.017,0.4-0.15,0.7c-0.233,0.4-0.75,0.467-1.55,0.2c-0.3-0.1-0.267-0.284,0.1-0.55C11.05,6.667,11.333,6.5,11.6,6.4z"
	/>
<path style="fill-rule:evenodd;clip-rule:evenodd;fill:#FFA621;" d="M13.6,6.15c0.467-0.2,0.667-0.133,0.6,0.2
	c-0.067,0.367-0.233,0.633-0.5,0.8c-0.4,0.233-0.717,0.2-0.95-0.1C12.55,6.783,12.833,6.483,13.6,6.15z"/>
<path style="fill-rule:evenodd;clip-rule:evenodd;fill:#FFA621;" d="M8.1,9.1c0.267-0.033,0.417,0.1,0.45,0.4
	c0.067,0.267-0.066,0.533-0.4,0.8c-0.3,0.233-0.566,0.334-0.8,0.3c-0.133,0-0.367-0.116-0.7-0.35C6.35,10.083,6.4,9.867,6.8,9.6
	C7.2,9.333,7.633,9.167,8.1,9.1z"/>
<path style="fill-rule:evenodd;clip-rule:evenodd;fill:#FFA621;" d="M9.55,8.75c0.267-0.067,0.434,0,0.5,0.2
	c0.067,0.167-0.033,0.367-0.3,0.6C9.517,9.717,9.333,9.8,9.2,9.8C9.1,9.733,9,9.7,8.9,9.7c-0.167-0.034-0.167-0.184,0-0.45
	C9.067,8.983,9.283,8.817,9.55,8.75z"/>
<path style="fill-rule:evenodd;clip-rule:evenodd;fill:#FFA621;" d="M15.35,8.8c0.433-0.033,0.667,0.1,0.7,0.4
	c0.034,0.233-0.117,0.55-0.45,0.95c-0.233,0.333-0.417,0.466-0.55,0.399c-0.167-0.2-0.333-0.333-0.5-0.399
	c-0.3-0.101-0.333-0.351-0.1-0.75C14.65,9.033,14.95,8.833,15.35,8.8z"/>
<path style="fill-rule:evenodd;clip-rule:evenodd;fill:#FFA621;" d="M18.55,9.2c0.2-0.034,0.367,0.05,0.5,0.25
	c0.167,0.167,0.217,0.3,0.15,0.4c-0.1,0.233-0.434,0.284-1,0.15c-0.267-0.033-0.367-0.167-0.3-0.4C18,9.4,18.217,9.267,18.55,9.2z"
	/>
<path style="fill-rule:evenodd;clip-rule:evenodd;fill:#FFA621;" d="M18.35,10.5c0.5,0.1,0.583,0.283,0.25,0.55
	c-0.167,0.134-0.417,0.101-0.75-0.1c-0.133-0.134-0.133-0.25,0-0.351C17.983,10.5,18.15,10.467,18.35,10.5z"/>
<path style="fill-rule:evenodd;clip-rule:evenodd;fill:#FFA621;" d="M13.75,12.05c0.667-0.233,1.017-0.083,1.05,0.45
	c0,0.533-0.167,0.9-0.5,1.1c-0.333,0.2-0.683,0.034-1.05-0.5c-0.1-0.199-0.1-0.399,0-0.6C13.35,12.267,13.517,12.116,13.75,12.05z"
	/>
<path style="fill-rule:evenodd;clip-rule:evenodd;fill:#FFA621;" d="M9.55,11c0.367-0.2,0.633-0.25,0.8-0.15
	c0.167,0.067,0.233,0.167,0.2,0.301c-0.066,0.366-0.35,0.6-0.85,0.699c-0.3,0.067-0.45-0.033-0.45-0.3S9.35,11.1,9.55,11z"/>
<path style="fill-rule:evenodd;clip-rule:evenodd;fill:#FFA621;" d="M21,12.8c0.8-0.033,0.833,0.25,0.1,0.851
	c-0.133,0.1-0.25,0.133-0.35,0.1c-0.067-0.1-0.133-0.167-0.2-0.2c-0.1-0.066-0.117-0.2-0.05-0.399C20.6,12.917,20.767,12.8,21,12.8z
	"/>
<path style="fill-rule:evenodd;clip-rule:evenodd;fill:#FFA621;" d="M17.35,14.45c0.333,0.033,0.517,0.233,0.55,0.6
	c0,0.367-0.183,0.634-0.55,0.8c-0.3,0.167-0.483,0.2-0.55,0.101c-0.066-0.2-0.167-0.367-0.3-0.5c-0.133-0.2-0.083-0.434,0.15-0.7
	C16.917,14.483,17.15,14.384,17.35,14.45z"/>
<path style="fill-rule:evenodd;clip-rule:evenodd;fill:#FFA621;" d="M20.8,15.85c0.133,0.067,0.233,0.184,0.3,0.351
	c0.1,0.2,0.1,0.366,0,0.5c-0.1,0.166-0.2,0.217-0.3,0.149c-0.133-0.133-0.283-0.267-0.45-0.399c-0.233-0.2-0.267-0.367-0.1-0.5
	C20.417,15.783,20.6,15.75,20.8,15.85z"/>
<path style="fill-rule:evenodd;clip-rule:evenodd;fill:#FFA621;" d="M30.75,14.25c0.5-0.066,0.733,0.1,0.7,0.5
	c0,0.366-0.117,0.684-0.351,0.95c-0.166,0.2-0.366,0.217-0.6,0.05c-0.2-0.134-0.366-0.3-0.5-0.5c-0.066-0.167-0.05-0.35,0.05-0.55
	C30.184,14.434,30.417,14.283,30.75,14.25z"/>
<path style="fill-rule:evenodd;clip-rule:evenodd;fill:#FFA621;" d="M1.45,11c0.233-0.066,0.3,0.066,0.2,0.4
	c-0.1,0.3-0.283,0.433-0.55,0.399S0.767,11.634,0.9,11.4C1.033,11.233,1.217,11.1,1.45,11z"/>
<path style="fill-rule:evenodd;clip-rule:evenodd;fill:#FFA621;" d="M2.55,13.4c0.167,0,0.217,0.066,0.15,0.199
	c-0.067,0.101-0.2,0.15-0.4,0.15C1.967,13.75,2.05,13.634,2.55,13.4z"/>
<path style="fill-rule:evenodd;clip-rule:evenodd;fill:#FFA621;" d="M9.2,14.4c0.133,0.033,0.216,0.1,0.25,0.199
	c0,0.101-0.117,0.15-0.35,0.15c-0.2,0-0.267-0.066-0.2-0.2C9,14.417,9.1,14.366,9.2,14.4z"/>
<path style="fill-rule:evenodd;clip-rule:evenodd;fill:#FFA621;" d="M11.05,14.55c0.2,0.033,0.35,0.15,0.45,0.351
	c0.067,0.166,0.017,0.316-0.15,0.449c-0.133,0.101-0.267,0.101-0.4,0c-0.167-0.166-0.333-0.316-0.5-0.449
	C10.217,14.667,10.417,14.55,11.05,14.55z"/>
<path style="fill-rule:evenodd;clip-rule:evenodd;fill:#FFA621;" d="M29.2,16.55c0.166,0,0.267,0.117,0.3,0.351
	c0.033,0.199,0.017,0.35-0.05,0.449c-0.167,0.233-0.55,0.15-1.15-0.25c-0.267-0.166-0.267-0.3,0-0.399
	C28.5,16.6,28.8,16.55,29.2,16.55z"/>
<path style="fill-rule:evenodd;clip-rule:evenodd;fill:#FFA621;" d="M35.7,15.2c0.2-0.066,0.399,0.033,0.6,0.3
	c0.233,0.267,0.334,0.517,0.3,0.75c0,0.2-0.183,0.333-0.55,0.4c-0.333,0.033-0.633,0-0.899-0.101
	c-0.233-0.066-0.284-0.283-0.15-0.649C35.134,15.533,35.366,15.3,35.7,15.2z"/>
<path style="fill-rule:evenodd;clip-rule:evenodd;fill:#FFA621;" d="M36.55,12.95c0.3,0,0.384,0.149,0.25,0.45
	c-0.066,0.199-0.217,0.316-0.45,0.35c-0.233,0-0.399-0.05-0.5-0.15c-0.066-0.1-0.017-0.233,0.15-0.399
	C36.167,13.033,36.35,12.95,36.55,12.95z"/>
<path style="fill-rule:evenodd;clip-rule:evenodd;fill:#FFA621;" d="M38.6,13.25c0.134-0.033,0.25,0,0.351,0.1
	c0.1,0.101,0.149,0.217,0.149,0.351c0,0.3-0.25,0.416-0.75,0.35C38.15,14.017,38.1,13.9,38.2,13.7
	C38.267,13.467,38.4,13.316,38.6,13.25z"/>
<path style="fill-rule:evenodd;clip-rule:evenodd;fill:#FFA621;" d="M42.65,14.1c0.199-0.033,0.333,0.034,0.399,0.2
	c0.066,0.101,0.05,0.2-0.05,0.3c-0.066,0.067-0.217,0.101-0.45,0.101l-0.3-0.05c0-0.067,0-0.15,0-0.25
	C42.316,14.233,42.45,14.134,42.65,14.1z"/>
<path style="fill-rule:evenodd;clip-rule:evenodd;fill:#FFA621;" d="M43,12.35c0.134-0.033,0.217,0.017,0.25,0.15
	c0.033,0.1,0,0.2-0.1,0.3c-0.101,0.134-0.317,0.15-0.65,0.05c-0.134-0.033-0.116-0.116,0.05-0.25
	C42.684,12.467,42.833,12.384,43,12.35z"/>
<path style="fill-rule:evenodd;clip-rule:evenodd;fill:#FFA621;" d="M40.7,11.65c0.166-0.101,0.3-0.017,0.399,0.25
	c0.067,0.3,0.051,0.5-0.05,0.6c-0.066,0.066-0.166,0.05-0.3-0.05c-0.134-0.134-0.233-0.233-0.3-0.3
	C40.25,12.05,40.333,11.884,40.7,11.65z"/>
<path style="fill-rule:evenodd;clip-rule:evenodd;fill:#FFA621;" d="M40.45,10.8c0.166,0.3,0.166,0.434,0,0.4
	c-0.167-0.066-0.3-0.184-0.4-0.351c-0.066-0.1-0.017-0.149,0.15-0.149C40.333,10.7,40.417,10.733,40.45,10.8z"/>
<path style="fill-rule:evenodd;clip-rule:evenodd;fill:#FFA621;" d="M15.75,16.9c0.267,0,0.417,0.017,0.45,0.05
	c0.033,0.033,0.066,0.133,0.1,0.3c0.1,0.167,0.117,0.267,0.05,0.3c-0.067,0.033-0.317,0-0.75-0.1c-0.4-0.101-0.517-0.217-0.35-0.351
	C15.383,16.967,15.55,16.9,15.75,16.9z"/>
<path style="fill-rule:evenodd;clip-rule:evenodd;fill:#FFA621;" d="M14.7,17.8c0.2,0.033,0.216,0.101,0.05,0.2
	s-0.35,0.116-0.55,0.05c-0.2-0.033-0.217-0.1-0.05-0.2C14.317,17.783,14.5,17.767,14.7,17.8z"/>
</svg>
