<?xml version="1.0" encoding="iso-8859-1"?>
<!-- Generator: Adobe Illustrator 15.1.0, SVG Export Plug-In . SVG Version: 6.00 Build 0)  -->
<!DOCTYPE svg PUBLIC "-//W3C//DTD SVG 1.1//EN" "http://www.w3.org/Graphics/SVG/1.1/DTD/svg11.dtd">
<svg version="1.1" id="flash0.ai" xmlns="http://www.w3.org/2000/svg" xmlns:xlink="http://www.w3.org/1999/xlink" x="0px" y="0px"
	 width="100.95px" height="46.5px" viewBox="0 0 100.95 46.5" style="enable-background:new 0 0 100.95 46.5;" xml:space="preserve"
	>
<symbol  id="flash0.ai_x5F_5_x2F_Layer_17_x2F__x3C_Path_x3E_" viewBox="0 -4.75 6.9 4.764">
	<g id="Layer_1_11_">
		
			<radialGradient id="SVGID_1_" cx="-2915.5029" cy="-11464.2793" r="26.492" gradientTransform="matrix(0.4733 -0.8809 -0.8809 -0.4733 -8714.1934 -7981.0234)" gradientUnits="userSpaceOnUse">
			<stop  offset="0" style="stop-color:#D6C28A"/>
			<stop  offset="1" style="stop-color:#8A7C41"/>
		</radialGradient>
		<path style="fill-rule:evenodd;clip-rule:evenodd;fill:url(#SVGID_1_);" d="M0.8-4.75L0-3.3l0.45,0.7
			C1.483-1.233,2.867-0.4,4.6-0.1c0.867,0.133,1.633,0.15,2.3,0.05L3.35-1.3C1.717-1.9,0.867-3.05,0.8-4.75z"/>
	</g>
</symbol>
<symbol  id="flash0.ai_x5F_5_x2F_Layer_17_x2F__x3C_Path_x3E__x5F_0" viewBox="-0.037 -5.54 4.45 5.568">
	<g id="Layer_1_13_">
		<path style="fill-rule:evenodd;clip-rule:evenodd;fill:#FFFFFF;" d="M4.25-0.55c0.233-0.534,0.217-1.233-0.05-2.1
			c-0.7-2.267-1.9-3.2-3.6-2.8C-0.133-5.283-0.233-4.467,0.3-3c0.534,1.467,1.367,2.433,2.5,2.9C3.533,0.167,4.017,0.017,4.25-0.55z
			"/>
	</g>
</symbol>
<symbol  id="flash0.ai_x5F_5_x2F_Layer_17_x2F__x3C_Path_x3E__x5F_1" viewBox="0 -10.17 7.193 10.17">
	<g id="Layer_1_10_">
		
			<radialGradient id="SVGID_2_" cx="-2920.7041" cy="-11474.001" r="26.4751" gradientTransform="matrix(0.4731 -0.881 -0.881 -0.4731 -8731.2891 -7986.9766)" gradientUnits="userSpaceOnUse">
			<stop  offset="0" style="stop-color:#D6C28A"/>
			<stop  offset="1" style="stop-color:#8A7C41"/>
		</radialGradient>
		<path style="fill-rule:evenodd;clip-rule:evenodd;fill:url(#SVGID_2_);" d="M5.9-4c1.367-1.967,1.65-3.917,0.85-5.85
			C5.383-10.117,4-10.217,2.6-10.15c1.566,0.467,2.483,1.566,2.75,3.3c0.2,1.3-0.633,2.833-2.5,4.6C1.917-1.383,0.967-0.633,0,0
			c0.533,0,1.167-0.167,1.9-0.5C3.4-1.167,4.733-2.333,5.9-4z"/>
	</g>
</symbol>
<symbol  id="flash0.ai_x5F_5_x2F_Layer_17_x2F__x3C_Path_x3E__x5F_10" viewBox="0.005 -4.038 4.835 4.038">
	<g id="Layer_1_4_">
		
			<radialGradient id="SVGID_3_" cx="-3301.7686" cy="-6658.0254" r="24.4791" gradientTransform="matrix(0.793 -0.6092 -0.6092 -0.793 -1450.9424 -7290.4756)" gradientUnits="userSpaceOnUse">
			<stop  offset="0" style="stop-color:#E0C884"/>
			<stop  offset="1" style="stop-color:#A89958"/>
		</radialGradient>
		<path style="fill-rule:evenodd;clip-rule:evenodd;fill:url(#SVGID_3_);" d="M1.5,0c1.3,0,2.267-0.567,2.9-1.7
			c0.633-1.1,0.583-1.816-0.15-2.15c-1.1-0.5-2.367,0-3.8,1.5C0.017-1.85-0.1-1.333,0.1-0.8C0.267-0.267,0.733,0,1.5,0z"/>
	</g>
</symbol>
<symbol  id="flash0.ai_x5F_5_x2F_Layer_17_x2F__x3C_Path_x3E__x5F_11" viewBox="-0.002 -2.086 2.146 2.098">
	<g id="Layer_1_3_">
		
			<radialGradient id="SVGID_4_" cx="-3308.6982" cy="-6653.2178" r="24.4967" gradientTransform="matrix(0.793 -0.6093 -0.6093 -0.793 -1445.002 -7281.9507)" gradientUnits="userSpaceOnUse">
			<stop  offset="0" style="stop-color:#E0C884"/>
			<stop  offset="1" style="stop-color:#A89958"/>
		</radialGradient>
		<path style="fill-rule:evenodd;clip-rule:evenodd;fill:url(#SVGID_4_);" d="M2.05-0.7c0.267-0.733-0.033-1.183-0.9-1.35
			C0.35-2.183-0.033-1.95,0-1.35C0-0.783,0.2-0.4,0.6-0.2C1.3,0.2,1.783,0.033,2.05-0.7z"/>
	</g>
</symbol>
<symbol  id="flash0.ai_x5F_5_x2F_Layer_17_x2F__x3C_Path_x3E__x5F_12" viewBox="-0.023 -3.728 3.329 3.745">
	<g id="Layer_1_2_">
		
			<radialGradient id="SVGID_5_" cx="-3311.2119" cy="-6651.7241" r="24.4791" gradientTransform="matrix(0.793 -0.6092 -0.6092 -0.793 -1443.2646 -7280.4814)" gradientUnits="userSpaceOnUse">
			<stop  offset="0" style="stop-color:#E0C884"/>
			<stop  offset="1" style="stop-color:#A89958"/>
		</radialGradient>
		<path style="fill-rule:evenodd;clip-rule:evenodd;fill:url(#SVGID_5_);" d="M3-1.95c-0.6-1.433-1.317-2-2.15-1.7
			c-0.8,0.267-1.05,0.9-0.75,1.9C0.4-0.717,1.083-0.133,2.15,0C3.317,0.133,3.6-0.517,3-1.95z"/>
	</g>
</symbol>
<symbol  id="flash0.ai_x5F_5_x2F_Layer_17_x2F__x3C_Path_x3E__x5F_2" viewBox="0 -3.15 4.05 3.162">
	<g id="Layer_1_9_">
		
			<radialGradient id="SVGID_6_" cx="-2912.8633" cy="-11465.9531" r="26.4751" gradientTransform="matrix(0.4731 -0.881 -0.881 -0.4731 -8717.1074 -7979.3618)" gradientUnits="userSpaceOnUse">
			<stop  offset="0" style="stop-color:#D6C28A"/>
			<stop  offset="1" style="stop-color:#8A7C41"/>
		</radialGradient>
		<path style="fill-rule:evenodd;clip-rule:evenodd;fill:url(#SVGID_6_);" d="M2.25-0.9c-0.567-0.3-1.133-1.05-1.7-2.25L0-1.45
			C1.033-0.75,2.017-0.3,2.95-0.1C3.417,0,3.783,0.033,4.05,0L2.25-0.9z"/>
	</g>
</symbol>
<symbol  id="flash0.ai_x5F_5_x2F_Layer_17_x2F__x3C_Path_x3E__x5F_3" viewBox="0 -11.4 8.518 11.4">
	<g id="Layer_1_8_">
		
			<radialGradient id="SVGID_7_" cx="-2920.1553" cy="-11476.6787" r="26.4751" gradientTransform="matrix(0.4731 -0.881 -0.881 -0.4731 -8736.0059 -7989.5103)" gradientUnits="userSpaceOnUse">
			<stop  offset="0" style="stop-color:#D6C28A"/>
			<stop  offset="1" style="stop-color:#8A7C41"/>
		</radialGradient>
		<path style="fill-rule:evenodd;clip-rule:evenodd;fill:url(#SVGID_7_);" d="M7.05-4.65C8.483-6.917,8.867-8.9,8.2-10.6
			c-1-0.367-1.8-0.633-2.4-0.8c0.7,0.6,1.05,1.333,1.05,2.2c0,0.8-0.3,1.967-0.9,3.5c-0.5,1.3-1.633,2.633-3.4,4
			C1.65-1,0.8-0.433,0,0c0.967-0.433,1.983-0.933,3.05-1.5C5.183-2.7,6.517-3.75,7.05-4.65z"/>
	</g>
</symbol>
<symbol  id="flash0.ai_x5F_5_x2F_Layer_17_x2F__x3C_Path_x3E__x5F_5" viewBox="-0.108 -13.67 11.102 13.644">
	<g id="Layer_1_12_">
		<path style="fill-rule:evenodd;clip-rule:evenodd;fill:#FFFFFF;" d="M7-0.15c2.033,0.4,3.3-0.167,3.8-1.7
			c0.4-1.333,0.184-3.083-0.65-5.25c-0.833-2.1-1.933-3.8-3.3-5.1c-1.533-1.4-2.934-1.8-4.2-1.2C-0.183-12-0.833-9.533,0.7-6
			C2.2-2.633,4.3-0.683,7-0.15z"/>
	</g>
</symbol>
<symbol  id="flash0.ai_x5F_5_x2F_Layer_17_x2F__x3C_Path_x3E__x5F_7" viewBox="-0.01 -2.402 2.568 2.418">
	<g id="Layer_1_7_">
		
			<radialGradient id="SVGID_8_" cx="-3301.543" cy="-6648.9619" r="24.4791" gradientTransform="matrix(0.793 -0.6092 -0.6092 -0.793 -1439.8994 -7276.1006)" gradientUnits="userSpaceOnUse">
			<stop  offset="0" style="stop-color:#E0C884"/>
			<stop  offset="1" style="stop-color:#A89958"/>
		</radialGradient>
		<path style="fill-rule:evenodd;clip-rule:evenodd;fill:url(#SVGID_8_);" d="M2.5-1.1c0.2-0.833-0.117-1.267-0.95-1.3
			c-0.7-0.033-1.167,0.35-1.4,1.15c-0.267,0.8-0.2,1.217,0.2,1.25C1.55,0.1,2.267-0.267,2.5-1.1z"/>
	</g>
</symbol>
<symbol  id="flash0.ai_x5F_5_x2F_Layer_17_x2F__x3C_Path_x3E__x5F_8" viewBox="-0.05 -2.312 2.844 2.343">
	<g id="Layer_1_6_">
		
			<radialGradient id="SVGID_9_" cx="-3296.7676" cy="-6651.9775" r="24.4791" gradientTransform="matrix(0.793 -0.6092 -0.6092 -0.793 -1443.5742 -7280.8833)" gradientUnits="userSpaceOnUse">
			<stop  offset="0" style="stop-color:#E0C884"/>
			<stop  offset="1" style="stop-color:#A89958"/>
		</radialGradient>
		<path style="fill-rule:evenodd;clip-rule:evenodd;fill:url(#SVGID_9_);" d="M1.65,0c1.033-0.2,1.367-0.667,1-1.4
			c-0.367-0.767-0.967-1.05-1.8-0.85c-0.8,0.133-1.067,0.583-0.8,1.35C0.35-0.167,0.883,0.133,1.65,0z"/>
	</g>
</symbol>
<symbol  id="flash0.ai_x5F_5_x2F_Layer_17_x2F__x3C_Path_x3E__x5F_9" viewBox="-0.013 -3.677 2.42 3.695">
	<g id="Layer_1_5_">
		
			<radialGradient id="SVGID_10_" cx="-3308.0127" cy="-6659.4175" r="24.4791" gradientTransform="matrix(0.793 -0.6092 -0.6092 -0.793 -1452.6387 -7292.6836)" gradientUnits="userSpaceOnUse">
			<stop  offset="0" style="stop-color:#E0C884"/>
			<stop  offset="1" style="stop-color:#A89958"/>
		</radialGradient>
		<path style="fill-rule:evenodd;clip-rule:evenodd;fill:url(#SVGID_10_);" d="M2.4-1.85c0.067-1.367-0.333-1.967-1.2-1.8
			C0.467-3.517,0.067-2.883,0-1.75C-0.067-0.683,0.133-0.1,0.6,0C1.7,0.133,2.3-0.483,2.4-1.85z"/>
	</g>
</symbol>
<linearGradient id="SVGID_11_" gradientUnits="userSpaceOnUse" x1="-13.9839" y1="-24.5898" x2="7.2484" y2="-24.5898" gradientTransform="matrix(-0.3956 0.9184 -0.9184 -0.3956 -3.886819e-004 3.645420e-004)">
	<stop  offset="0" style="stop-color:#779E39"/>
	<stop  offset="0.8039" style="stop-color:#608A25"/>
	<stop  offset="1" style="stop-color:#59851F"/>
</linearGradient>
<path style="fill-rule:evenodd;clip-rule:evenodd;fill:url(#SVGID_11_);" d="M26.35,5.95L26.1,6.5l0.65-0.65
	c0.433-0.333,0.717-0.2,0.85,0.4c0.133,0.567-0.2,1.1-1,1.6C25.7,8.417,25.217,8.8,25.15,9c-0.2,0.567-0.4,1.017-0.6,1.35l0.4-0.55
	c0.333-0.367,0.6-0.466,0.8-0.3c0.233,0.133,0.233,0.367,0,0.7c-0.4,0.466-0.717,0.85-0.95,1.15c-1.3,1.5-2.05,2.45-2.25,2.85
	l-0.2,0.6l0.55-0.35c0.367-0.167,0.55-0.067,0.55,0.3c0,0.267-0.5,0.733-1.5,1.4c-1.133,0.733-1.817,1.4-2.05,2
	c-0.3,0.7-0.633,1.033-1,1l-0.45-0.25c0.633-0.533,1.25-1.367,1.85-2.5c0.6-1.167,0.784-1.917,0.55-2.25c-0.2-0.367-0.2-0.75,0-1.15
	c0.233-0.4,0.533-0.583,0.9-0.55l0.7,0.1c-0.267-1.3-0.667-2.133-1.2-2.5c-0.367-0.233-0.4-0.617-0.1-1.15
	c0.3-0.5,0.583-0.683,0.85-0.55l0.5,0.2c0-0.367-0.05-0.716-0.15-1.05c-0.233-0.733-0.65-1.1-1.25-1.1
	c-0.667,0.033-0.817-0.233-0.45-0.8c0.367-0.567,0.783-0.75,1.25-0.55l0.85,0.5c-0.233-0.6-0.417-1.2-0.55-1.8
	c-0.233-1.167-0.034-1.767,0.6-1.8c1,0,1.534,0.216,1.6,0.65l0.75-1.7c0.567-1,1.117-1.183,1.65-0.55
	c0.534,0.633,0.784,1.183,0.75,1.65c0,0.2-0.066,0.35-0.2,0.45c1.467-0.534,2.05-0.367,1.75,0.5C28.933,3.417,28.45,4,27.65,4.7
	C26.85,5.4,26.417,5.817,26.35,5.95z"/>
<path style="fill-rule:evenodd;clip-rule:evenodd;fill:#547A20;" d="M27.85,3.3c-1.533,1.034-2.5,1.817-2.9,2.35
	c-0.6,0.8-0.733,1.517-0.4,2.15c0.133,0.2,0.267,0.267,0.4,0.2c0.133-0.033,0.367-0.217,0.7-0.55c0.4-0.434,0.783-0.75,1.15-0.95
	c-0.233,0.233-0.5,0.483-0.8,0.75c-0.567,0.567-0.933,1-1.1,1.3c-0.633,1.067-0.967,1.8-1,2.2c0,0.233,0.05,0.333,0.15,0.3
	c0.067-0.033,0.217-0.183,0.45-0.45c0.2-0.233,0.4-0.4,0.6-0.5c-0.633,0.667-1.083,1.217-1.35,1.65L23.1,13.4
	c-0.2,0.3-0.417,0.65-0.65,1.05c-0.434,0.767-0.667,1.35-0.7,1.75c-0.033,0.433-0.167,0.583-0.4,0.45
	c-0.233-0.1-0.367-0.267-0.4-0.5l-0.5-1.3c0.2-0.167,0.316-0.417,0.35-0.75c0-0.333,0-0.55,0-0.65L21,13.2l0.15,0.25
	c0.133,0.133,0.3,0.15,0.5,0.05c0.434-0.233,0.684-0.367,0.75-0.4c0.3-0.233,0.434-0.55,0.4-0.95c-0.066-1-0.35-1.85-0.85-2.55
	L21.6,9.2l0.3,0.2c0.267,0.167,0.467,0.367,0.6,0.6l0.65,1c0.233-0.867,0.383-1.55,0.45-2.05c0.1-0.667-0.184-1.367-0.85-2.1
	L22.1,6.2l1.05,0.65c0.3,0.233,0.533,0.55,0.7,0.95l0.35-1.55c-0.133-0.8-0.317-1.433-0.55-1.9L23,3.15l0.65,0.8L24.4,5.4l0.55-2
	c0.233-0.867,0.633-1.617,1.2-2.25c-0.6,1.033-0.917,1.8-0.95,2.3l-0.45,1.9l0.7-0.65c0.566-0.467,1.05-0.784,1.45-0.95L27.85,3.3z"
	/>
<linearGradient id="SVGID_12_" gradientUnits="userSpaceOnUse" x1="-37.6787" y1="-26.5586" x2="-9.929" y2="-26.5586" gradientTransform="matrix(-0.8676 0.4973 -0.4973 -0.8676 -8.269548e-004 4.155040e-004)">
	<stop  offset="0" style="stop-color:#779E39"/>
	<stop  offset="0.8039" style="stop-color:#608A25"/>
	<stop  offset="1" style="stop-color:#59851F"/>
</linearGradient>
<path style="fill-rule:evenodd;clip-rule:evenodd;fill:url(#SVGID_12_);" d="M40.7,3.95c1.333-0.8,2.3-0.9,2.9-0.3
	c0.433,0.434,0.6,1.05,0.5,1.85c-0.067,0.8-1.617,1.6-4.65,2.4l1.15,0.35c0.566,0.2,0.767,0.633,0.6,1.3
	c-0.2,0.667-0.567,0.967-1.1,0.9c-0.434-0.034-0.95,0.033-1.55,0.2L37.8,10.9l0.5,0.85c0.233,0.4,0.034,0.683-0.6,0.85
	c-0.633,0.167-1.034,0.066-1.2-0.3c-0.167-0.267-0.617-0.466-1.35-0.6l-1.1-0.15c0.333,0.3,0.133,0.65-0.6,1.05
	c-0.467,0.233-1.15,0.417-2.05,0.55l-1.15,0.15c-0.133,0.333-0.367,0.717-0.7,1.15c-0.233,0.267-0.683,0.3-1.35,0.1l-0.95-0.4
	l-0.95,0.9c-0.267,0.267-0.65,0.317-1.15,0.15c-0.6-0.2-1.3-0.017-2.1,0.55c-1.033,0.733-2,1.8-2.9,3.2
	c-0.833,1.3-1.45,2.617-1.85,3.95c0.067,3.933-0.033,4.284-0.3,1.05c-0.167-2.133,0.9-4.767,3.2-7.9
	c1.966-2.733,3.316-4.167,4.05-4.3c0.6-0.1,0.9-0.033,0.9,0.2c0.167-0.467,0.35-0.95,0.55-1.45c0.466-1.033,0.883-1.667,1.25-1.9
	c0.6-0.333,1.017,0.3,1.25,1.9l0.6-1.3c0.534-0.967,1.167-1.75,1.9-2.35c0.733-0.567,1.283-0.65,1.65-0.25
	c0.167,0.233,0.267,0.5,0.3,0.8l1.4-1.45c1.067-0.967,1.883-1.467,2.45-1.5c0.933-0.034,0.833,0.7-0.3,2.2l0.65-0.7
	C38.517,5.317,39.467,4.65,40.7,3.95z"/>
<path style="fill-rule:evenodd;clip-rule:evenodd;fill:#547A20;" d="M34.95,8.45c-0.067,0.2-0.1,0.383-0.1,0.55l0.8-0.3
	c0.2-0.067,1.167-0.684,2.9-1.85c0.567-0.4,1.7-0.95,3.4-1.65L39.8,6.25c-0.867,0.433-1.617,0.933-2.25,1.5l-0.7,0.7l2.05,0.3
	c0.5,0.067,0.867,0.233,1.1,0.5c-0.867-0.267-1.817-0.433-2.85-0.5C36.517,8.683,35.8,8.867,35,9.3l-1,0.65l1.75,0.65
	c0.367,0.2,0.783,0.6,1.25,1.2c-1.067-0.9-1.983-1.417-2.75-1.55c-0.467-0.067-1.3,0.15-2.5,0.65l-1.65,0.8l2.05,0.1l1.3,0.3
	l-2.25-0.15c-0.667-0.034-1.4,0.1-2.2,0.4l-1,0.5l0.35,0.25l0.75,0.8c-0.367-0.233-0.833-0.467-1.4-0.7
	c-0.367-0.133-0.833-0.083-1.4,0.15l-0.75,0.45l0.3,0.35c0.1,0.1,0.167,0.283,0.2,0.55l-0.4-0.4c-0.4-0.3-0.95-0.216-1.65,0.25
	c-0.333,0.267-0.467,0.467-0.4,0.6c0.033,0.067,0.1,0.1,0.2,0.1l-0.85,0.55l-0.6,0.75L21.7,15.8c0.233-0.066,0.733-0.6,1.5-1.6
	c0.733-1,1.5-1.6,2.3-1.8L24.7,13l-1.15,1.1l1.25-0.65c0.267-0.167,0.983-0.467,2.15-0.9c0.1-0.1,0.2-0.35,0.3-0.75l0.65-1.45
	l-0.45,1.95l2.65-1.1c0.033,0.167,0.217-0.184,0.55-1.05C30.983,9.283,31.433,8.467,32,7.7c-0.033,0.133-0.233,0.5-0.6,1.1
	c-0.233,0.367-0.383,0.8-0.45,1.3c-0.034,0.267-0.05,0.5-0.05,0.7l1.35-0.55c0.4-0.233,1-0.517,1.8-0.85l0.5-1.1
	c0.2-0.367,0.583-0.867,1.15-1.5c0.3-0.3,0.583-0.583,0.85-0.85l-1.05,1.3C35.267,7.583,35.083,7.983,34.95,8.45z"/>
<path style="fill-rule:evenodd;clip-rule:evenodd;fill:#A3B33F;" d="M33.65,9.4l4.25-1.9l-3.55,1.9c-1.167,0.6-2.483,1.233-3.95,1.9
	c-2.033,0.867-3.45,1.483-4.25,1.85c-1.4,0.633-2.367,1.184-2.9,1.65c-0.433,0.434-0.817,0.767-1.15,1c-0.434,0.7-0.567,0.7-0.4,0
	c0.233-1.066,1.566-2.033,4-2.9C27.267,12.4,29.917,11.233,33.65,9.4z"/>
<path style="fill-rule:evenodd;clip-rule:evenodd;fill:#A3B33F;" d="M19.65,16.05c0.4-0.433,1.05-1.1,1.95-2
	c0.733-0.966,1.267-2.283,1.6-3.95c0.5-2.567,1.05-4.633,1.65-6.2c-0.533,1.967-0.867,3.55-1,4.75c-0.5,3.633-1.467,6-2.9,7.1
	c-0.8,0.667-1.267,0.917-1.4,0.75L19.65,16.05z"/>
<radialGradient id="SVGID_13_" cx="17.3701" cy="10.7646" r="27.2809" gradientTransform="matrix(0.7514 0.6598 0.6598 -0.7514 -14.205 16.1778)" gradientUnits="userSpaceOnUse">
	<stop  offset="0" style="stop-color:#F07DC2"/>
	<stop  offset="1" style="stop-color:#662B3D"/>
</radialGradient>
<path style="fill-rule:evenodd;clip-rule:evenodd;fill:url(#SVGID_13_);" d="M12.1,12.2c4.733-1.034,9.233,0.4,13.5,4.3
	c4.367,4,5.983,8.45,4.85,13.35c-1.133,4.867-3.65,8.317-7.55,10.351c-2.667,1.434-5.633,2.05-8.9,1.85
	c-2.6-0.166-4.633-0.684-6.1-1.55c-1.833-1.1-3.617-3.1-5.35-6c-2.767-4.667-3.3-9.184-1.6-13.55C2.683,16.383,6.4,13.467,12.1,12.2
	z"/>
<use xlink:href="#flash0.ai_x5F_5_x2F_Layer_17_x2F__x3C_Path_x3E__x5F_12"  width="3.329" height="3.745" x="-0.023" y="-3.728" transform="matrix(1 0 0 -1 24.6001 30.1504)" style="overflow:visible;opacity:0.1289;enable-background:new    ;"/>
<use xlink:href="#flash0.ai_x5F_5_x2F_Layer_17_x2F__x3C_Path_x3E__x5F_11"  width="2.146" height="2.098" x="-0.002" y="-2.086" transform="matrix(1 0 0 -1 22.75 28.25)" style="overflow:visible;opacity:0.3398;enable-background:new    ;"/>
<use xlink:href="#flash0.ai_x5F_5_x2F_Layer_17_x2F__x3C_Path_x3E__x5F_10"  width="4.835" height="4.038" x="0.005" y="-4.038" transform="matrix(1 0 0 -1 20.9502 19.4502)" style="overflow:visible;opacity:0.2813;enable-background:new    ;"/>
<use xlink:href="#flash0.ai_x5F_5_x2F_Layer_17_x2F__x3C_Path_x3E__x5F_9"  width="2.42" height="3.695" x="-0.013" y="-3.677" transform="matrix(1 0 0 -1 26.75 22.1001)" style="overflow:visible;opacity:0.2695;enable-background:new    ;"/>
<use xlink:href="#flash0.ai_x5F_5_x2F_Layer_17_x2F__x3C_Path_x3E__x5F_8"  width="2.844" height="2.343" x="-0.05" y="-2.312" transform="matrix(1 0 0 -1 13.2998 21.2002)" style="overflow:visible;opacity:0.5586;enable-background:new    ;"/>
<use xlink:href="#flash0.ai_x5F_5_x2F_Layer_17_x2F__x3C_Path_x3E__x5F_7"  width="2.568" height="2.418" x="-0.01" y="-2.402" transform="matrix(1 0 0 -1 15.25 26.4502)" style="overflow:visible;opacity:0.5586;enable-background:new    ;"/>
<radialGradient id="SVGID_14_" cx="20.4736" cy="-1.5933" r="24.5931" gradientTransform="matrix(0.4026 0.9154 0.9154 -0.4026 2.9169 -1.2829)" gradientUnits="userSpaceOnUse">
	<stop  offset="0" style="stop-color:#F0DA9E"/>
	<stop  offset="1" style="stop-color:#9C8E51"/>
</radialGradient>
<path style="fill-rule:evenodd;clip-rule:evenodd;fill:url(#SVGID_14_);" d="M10.9,25.35c1.367,0.2,2.3,0.733,2.8,1.601
	c0.966,1.633,1.5,2.5,1.6,2.6c0.5,0.5,1.284,0.601,2.35,0.3c1.2-0.333,2.417-0.05,3.65,0.851c1.233,0.899,1.7,1.866,1.4,2.899
	c-0.567,1.9-0.85,2.884-0.85,2.95c0.033,0.5,0.65,0.733,1.85,0.7c0.733-0.033,1.133,0.184,1.2,0.65
	c0.067,0.433-0.183,0.966-0.75,1.6c-2.9,1.934-6.283,2.783-10.15,2.55c-2.6-0.166-4.633-0.684-6.1-1.55c-1.833-1.1-3.617-3.1-5.35-6
	c-1.6-2.767-2.433-5.583-2.5-8.45c0.5-0.833,1.067-1.25,1.7-1.25c0.6,0.033,1.033,0.467,1.3,1.3c0.367,1.233,0.983,1.834,1.85,1.801
	c0.833-0.034,1.7-0.551,2.6-1.551C8.367,25.45,9.5,25.116,10.9,25.35z"/>
<g>
	
		<use xlink:href="#flash0.ai_x5F_5_x2F_Layer_17_x2F__x3C_Path_x3E__x5F_3"  width="8.518" height="11.4" y="-11.4" transform="matrix(1 0 0 -1 13.6499 30.1504)" style="overflow:visible;opacity:0.5898;enable-background:new    ;"/>
	
		<use xlink:href="#flash0.ai_x5F_5_x2F_Layer_17_x2F__x3C_Path_x3E__x5F_2"  width="4.05" height="3.162" y="-3.15" transform="matrix(1 0 0 -1 0.75 28.7998)" style="overflow:visible;opacity:0.5313;enable-background:new    ;"/>
	
		<use xlink:href="#flash0.ai_x5F_5_x2F_Layer_17_x2F__x3C_Path_x3E__x5F_1"  width="7.193" height="10.17" y="-10.17" transform="matrix(1 0 0 -1 11.5498 31.9004)" style="overflow:visible;opacity:0.7109;enable-background:new    ;"/>
	
		<use xlink:href="#flash0.ai_x5F_5_x2F_Layer_17_x2F__x3C_Path_x3E_"  width="6.9" height="4.764" y="-4.75" transform="matrix(1 0 0 -1 2.1001 30.3496)" style="overflow:visible;opacity:0.4883;enable-background:new    ;"/>
</g>
<use xlink:href="#flash0.ai_x5F_5_x2F_Layer_17_x2F__x3C_Path_x3E__x5F_5"  width="11.102" height="13.644" x="-0.108" y="-13.67" transform="matrix(1 0 0 -1 1.6499 14.4502)" style="overflow:visible;opacity:0.1484;enable-background:new    ;"/>
<path style="fill-rule:evenodd;clip-rule:evenodd;fill:#8F824D;" d="M7.95,35.6l1.5,0.5l-0.6-0.149
	C8.483,35.85,7.983,35.866,7.35,36C6.65,36.167,6.2,36.417,6,36.75c-0.4,0.634,0.117,1.5,1.55,2.6c0.833,0.667,1.883,1.25,3.15,1.75
	l-0.5-0.05c-0.434-0.033-1.133-0.333-2.1-0.899c-1.233-0.7-2.05-1.434-2.45-2.2c-0.433-0.834-0.333-1.5,0.3-2
	C6.517,35.483,7.183,35.366,7.95,35.6z"/>
<path style="fill-rule:evenodd;clip-rule:evenodd;fill:#8F824D;" d="M10.4,36.6l0.9,0.25c0.7,0.2,1.25,0.45,1.65,0.75
	c0.966,0.767,1.283,1.517,0.95,2.25c-0.267,0.567-0.95,0.834-2.05,0.801c1.233-0.034,1.717-0.5,1.45-1.4
	c-0.233-0.8-0.783-1.483-1.65-2.05L10.4,36.6z"/>
<path style="fill-rule:evenodd;clip-rule:evenodd;fill:#8F824D;" d="M9.05,37.35c1.2,0.167,1.967,0.534,2.3,1.101
	c0.566,1,0.25,1.566-0.95,1.7c-0.733,0.066-1.45-0.167-2.15-0.7c-0.633-0.467-0.983-0.884-1.05-1.25
	c-0.067-0.334,0.033-0.584,0.3-0.75C7.833,37.283,8.35,37.25,9.05,37.35z"/>
<path style="fill-rule:evenodd;clip-rule:evenodd;fill:#C9B570;" d="M8.9,37.75c0.8,0.1,1.367,0.35,1.7,0.75
	c0.267,0.333,0.3,0.583,0.1,0.75c-0.3,0.3-0.733,0.4-1.3,0.3c-0.533-0.1-0.933-0.333-1.2-0.7C7.933,38.483,7.9,38.2,8.1,38
	C8.267,37.8,8.533,37.717,8.9,37.75z"/>
<use xlink:href="#flash0.ai_x5F_5_x2F_Layer_17_x2F__x3C_Path_x3E__x5F_0"  width="4.45" height="5.568" x="-0.037" y="-5.54" transform="matrix(1 0 0 -1 3.3999 17.3501)" style="overflow:visible;opacity:0.25;enable-background:new    ;"/>
</svg>
