<?xml version="1.0" encoding="iso-8859-1"?>
<!-- Generator: Adobe Illustrator 15.1.0, SVG Export Plug-In . SVG Version: 6.00 Build 0)  -->
<!DOCTYPE svg PUBLIC "-//W3C//DTD SVG 1.1//EN" "http://www.w3.org/Graphics/SVG/1.1/DTD/svg11.dtd">
<svg version="1.1" id="flash0.ai" xmlns="http://www.w3.org/2000/svg" xmlns:xlink="http://www.w3.org/1999/xlink" x="0px" y="0px"
	 width="39.3px" height="34.65px" viewBox="0 0 39.3 34.65" style="enable-background:new 0 0 39.3 34.65;" xml:space="preserve">
<g>
	<g>
		<path style="fill-rule:evenodd;clip-rule:evenodd;fill:#F9F5EA;" d="M11.235,6.686l6.893-3.722l1.241,0.551
			c0.965,0.368,1.93,0.643,2.895,0.827c1.563,0.322,2.481,0.644,2.757,0.965l-5.927,3.17c-0.92-0.275-2.16-0.574-3.723-0.896
			L11.235,6.686z"/>
		<path style="fill-rule:evenodd;clip-rule:evenodd;fill:#E8E1C5;" d="M11.717,6.203l4.825,0.689
			c0.782,0.138,1.769,0.597,2.964,1.378l-0.413,9.167l-0.965-0.413l-6.41-2.068V6.203z"/>
		<path style="fill-rule:evenodd;clip-rule:evenodd;fill:#A79E81;" d="M19.506,8.271l5.514-2.963v8.684
			c-0.597,0.46-1.286,0.919-2.067,1.378c-0.735,0.46-2.022,1.149-3.859,2.068L19.506,8.271z"/>
		<path style="fill-rule:evenodd;clip-rule:evenodd;fill:#C1AA76;" d="M15.853,13.096c0.827-0.229,1.401-0.068,1.723,0.483
			c0.322,0.597-0.023,1.057-1.034,1.378c-0.965,0.322-1.494,0.138-1.585-0.551C14.911,13.716,15.209,13.28,15.853,13.096z"/>
		<path style="fill-rule:evenodd;clip-rule:evenodd;fill:#D9D2B8;" d="M19.988,4.825c0.827-0.413,1.401-0.322,1.724,0.276
			c0.321,0.597,0.206,0.965-0.345,1.103c-0.506,0.138-1.012,0.023-1.517-0.344C19.345,5.445,19.392,5.101,19.988,4.825z"/>
		<path style="fill-rule:evenodd;clip-rule:evenodd;fill:#C9BF9C;" d="M21.85,8.271c0.78-0.229,1.148,0.046,1.103,0.827
			C22.86,9.926,22.4,10.5,21.573,10.821c-0.734,0.322-0.964,0-0.688-0.965C21.114,8.938,21.436,8.409,21.85,8.271z"/>
		<path style="fill-rule:evenodd;clip-rule:evenodd;fill:#C1AA76;" d="M13.302,9.167c0.46-0.184,0.735,0,0.828,0.551
			c0.092,0.552-0.092,0.827-0.551,0.827c-0.506,0-0.828-0.161-0.965-0.482C12.475,9.742,12.706,9.443,13.302,9.167z"/>
		<path style="fill-rule:evenodd;clip-rule:evenodd;fill:#D9D2B8;" d="M15.853,5.308c0.413-0.276,0.781-0.414,1.103-0.414
			c0.322,0.046,0.253,0.322-0.207,0.827c-0.459,0.598-0.873,0.781-1.24,0.551C15.095,6.042,15.209,5.721,15.853,5.308z"/>
	</g>
	<polygon style="fill-rule:evenodd;clip-rule:evenodd;fill:#CCC8AB;" points="0,19.299 20.195,11.028 38.806,18.403 21.16,25.502 	
		"/>
	<path style="fill-rule:evenodd;clip-rule:evenodd;fill:#F5F5F5;" d="M38.116,18.61l-18.817-5.032L1.172,20.471L0,19.299
		L19.093,12.2l19.713,5.238c0.321,1.241,0.321,1.93,0,2.068c-0.185,0.138-0.345,0.022-0.483-0.345L38.116,18.61z"/>
	<g>
		<path style="fill-rule:evenodd;clip-rule:evenodd;fill:#F9F5EA;" d="M22.332,9.512l7.65-1.654l1.034,0.827
			c0.874,0.643,1.746,1.194,2.619,1.654c1.379,0.689,2.16,1.218,2.343,1.585l-6.616,1.448c-0.781-0.505-1.86-1.126-3.239-1.861
			L22.332,9.512z"/>
		<path style="fill-rule:evenodd;clip-rule:evenodd;fill:#E8E1C5;" d="M22.952,9.167l4.411,1.999c0.688,0.368,1.54,1.08,2.551,2.136
			l-2.965,8.685l-0.758-0.689l-5.651-3.722L22.952,9.167z"/>
		<polygon style="fill-rule:evenodd;clip-rule:evenodd;fill:#A79E81;" points="33.636,20.333 26.949,21.987 29.914,13.302 
			35.979,11.924 		"/>
		<path style="fill-rule:evenodd;clip-rule:evenodd;fill:#C1AA76;" d="M25.02,16.956c0.873,0,1.38,0.322,1.517,0.965
			c0.138,0.597-0.321,0.919-1.378,0.965c-0.966,0.046-1.401-0.253-1.311-0.896C23.986,17.3,24.376,16.956,25.02,16.956z"/>
		<path style="fill-rule:evenodd;clip-rule:evenodd;fill:#D9D2B8;" d="M31.292,10.132c0.919-0.184,1.447,0.045,1.585,0.689
			c0.139,0.689-0.092,1.034-0.689,1.034c-0.505-0.046-0.94-0.299-1.309-0.759C30.512,10.591,30.649,10.27,31.292,10.132z"/>
		<path style="fill-rule:evenodd;clip-rule:evenodd;fill:#C9BF9C;" d="M32.119,13.923c0.828,0,1.079,0.368,0.758,1.103
			c-0.274,0.735-0.85,1.172-1.724,1.31c-0.78,0.092-0.918-0.276-0.413-1.103C31.247,14.359,31.706,13.923,32.119,13.923z"/>
		<path style="fill-rule:evenodd;clip-rule:evenodd;fill:#C1AA76;" d="M23.642,12.475c0.505-0.091,0.734,0.138,0.688,0.689
			c-0.091,0.598-0.367,0.827-0.827,0.689c-0.505-0.091-0.758-0.321-0.758-0.689C22.699,12.843,22.998,12.613,23.642,12.475z"/>
		<path style="fill-rule:evenodd;clip-rule:evenodd;fill:#D9D2B8;" d="M27.157,9.443c0.505-0.184,0.895-0.207,1.171-0.069
			c0.276,0.092,0.139,0.345-0.413,0.759c-0.598,0.413-1.057,0.459-1.379,0.138C26.215,9.948,26.422,9.672,27.157,9.443z"/>
	</g>
	<g>
		<path style="fill-rule:evenodd;clip-rule:evenodd;fill:#F9F5EA;" d="M3.17,13.785l6.203-4.756
			c1.333,0.414,2.781,0.644,4.343,0.689c1.516,0.046,2.458,0.208,2.826,0.482l-5.376,4.136c-0.965-0.138-2.229-0.229-3.791-0.275
			L3.17,13.785z"/>
		<path style="fill-rule:evenodd;clip-rule:evenodd;fill:#E8E1C5;" d="M3.584,13.302l4.825-0.138
			c0.781,0.046,1.837,0.345,3.17,0.896l1.034,9.097l-0.965-0.274l-6.686-0.966L3.584,13.302z"/>
		<path style="fill-rule:evenodd;clip-rule:evenodd;fill:#A79E81;" d="M11.579,14.061l4.963-3.86l1.447,8.616
			c-0.551,0.552-1.171,1.104-1.86,1.654c-0.644,0.598-1.815,1.493-3.516,2.688L11.579,14.061z"/>
		<path style="fill-rule:evenodd;clip-rule:evenodd;fill:#C1AA76;" d="M8.754,19.368c0.781-0.368,1.378-0.299,1.792,0.207
			c0.368,0.506,0.092,1.01-0.827,1.516c-0.873,0.46-1.401,0.368-1.585-0.275C7.949,20.172,8.156,19.689,8.754,19.368z"/>
		<path style="fill-rule:evenodd;clip-rule:evenodd;fill:#D9D2B8;" d="M11.511,10.545c0.735-0.551,1.309-0.551,1.723,0
			c0.413,0.551,0.368,0.942-0.138,1.172c-0.505,0.184-1.034,0.138-1.585-0.138C10.959,11.304,10.959,10.959,11.511,10.545z"/>
		<path style="fill-rule:evenodd;clip-rule:evenodd;fill:#C9BF9C;" d="M13.854,13.647c0.736-0.322,1.149-0.091,1.241,0.689
			c0.046,0.735-0.299,1.355-1.034,1.861c-0.689,0.46-0.988,0.184-0.896-0.827C13.257,14.406,13.486,13.831,13.854,13.647z"/>
		<path style="fill-rule:evenodd;clip-rule:evenodd;fill:#C1AA76;" d="M5.652,15.921c0.414-0.275,0.689-0.137,0.828,0.414
			c0.184,0.551,0.045,0.873-0.414,0.964c-0.506,0.092-0.827-0.022-0.965-0.344C4.917,16.634,5.101,16.29,5.652,15.921z"/>
		<path style="fill-rule:evenodd;clip-rule:evenodd;fill:#D9D2B8;" d="M7.513,11.717c0.321-0.368,0.643-0.551,0.964-0.551
			c0.322-0.046,0.322,0.229,0,0.827c-0.367,0.643-0.758,0.896-1.172,0.758C6.847,12.567,6.916,12.223,7.513,11.717z"/>
	</g>
	<g>
		<path style="fill-rule:evenodd;clip-rule:evenodd;fill:#F9F5EA;" d="M13.579,15.646l6.892-3.722l1.172,0.551
			c1.011,0.368,1.999,0.644,2.964,0.827c1.517,0.322,2.435,0.644,2.757,0.965l-5.996,3.17c-0.919-0.275-2.137-0.574-3.653-0.896
			L13.579,15.646z"/>
		<path style="fill-rule:evenodd;clip-rule:evenodd;fill:#E8E1C5;" d="M13.992,15.164l4.825,0.689
			c0.781,0.138,1.793,0.597,3.033,1.378l-0.482,9.168l-0.896-0.415l-6.479-2.067V15.164z"/>
		<path style="fill-rule:evenodd;clip-rule:evenodd;fill:#C1AA76;" d="M19.782,16.335l1.585,1.103
			c0.551,0.505,0.367,0.873-0.552,1.103c-0.644,0.184-1.103-0.115-1.378-0.896C19.161,16.864,19.276,16.427,19.782,16.335z"/>
		<polygon style="fill-rule:evenodd;clip-rule:evenodd;fill:#A79E81;" points="21.85,17.231 27.363,14.268 27.363,22.952 
			25.296,24.33 21.367,26.399 		"/>
		<path style="fill-rule:evenodd;clip-rule:evenodd;fill:#C9BF9C;" d="M25.641,17.163c0.551-0.23,0.827-0.069,0.827,0.482
			c0,0.506-0.23,0.805-0.689,0.896c-0.46,0.092-0.735-0.046-0.827-0.414C24.813,17.76,25.043,17.438,25.641,17.163z"/>
		<path style="fill-rule:evenodd;clip-rule:evenodd;fill:#C1AA76;" d="M18.127,22.057c0.873-0.23,1.448-0.069,1.723,0.482
			c0.321,0.597-0.023,1.057-1.034,1.378c-0.964,0.322-1.47,0.139-1.517-0.551C17.208,22.677,17.484,22.24,18.127,22.057z"/>
		<path style="fill-rule:evenodd;clip-rule:evenodd;fill:#D9D2B8;" d="M22.263,13.785c0.827-0.414,1.401-0.322,1.724,0.276
			c0.367,0.597,0.253,0.964-0.345,1.103c-0.506,0.138-1.012,0.023-1.517-0.345C21.619,14.406,21.666,14.061,22.263,13.785z"/>
		<path style="fill-rule:evenodd;clip-rule:evenodd;fill:#C9BF9C;" d="M24.124,20.126c0.781-0.184,1.148,0.115,1.103,0.896
			c-0.092,0.781-0.528,1.333-1.31,1.654c-0.734,0.321-0.988,0-0.759-0.965C23.389,20.793,23.711,20.265,24.124,20.126z"/>
		<path style="fill-rule:evenodd;clip-rule:evenodd;fill:#C1AA76;" d="M15.646,18.127c0.459-0.184,0.712,0,0.758,0.552
			c0.092,0.552-0.092,0.827-0.551,0.827c-0.506,0-0.805-0.161-0.896-0.482C14.819,18.702,15.048,18.403,15.646,18.127z"/>
		<path style="fill-rule:evenodd;clip-rule:evenodd;fill:#D9D2B8;" d="M18.127,14.268c0.414-0.276,0.781-0.414,1.103-0.414
			c0.321,0.047,0.275,0.322-0.138,0.828c-0.46,0.598-0.896,0.781-1.31,0.551C17.369,15.003,17.484,14.681,18.127,14.268z"/>
	</g>
	<polygon style="fill-rule:evenodd;clip-rule:evenodd;fill:#DBDBDB;" points="0,19.299 22.745,24.606 39.287,17.438 33.98,29.431 
		22.539,34.67 4.825,30.534 	"/>
	<polygon style="fill-rule:evenodd;clip-rule:evenodd;fill:#B2B2B2;" points="38.806,19.506 33.98,29.431 22.539,34.67 
		23.435,26.191 	"/>
	<polygon style="fill-rule:evenodd;clip-rule:evenodd;fill:#F5F5F5;" points="0.207,21.16 0,19.299 23.917,24.33 39.287,17.438 
		38.599,19.782 23.435,26.191 	"/>
	<polygon style="fill-rule:evenodd;clip-rule:evenodd;fill:#E4E4E4;" points="5.652,21.918 18.816,25.158 13.785,31.498 
		6.617,30.396 	"/>
	<path style="fill-rule:evenodd;clip-rule:evenodd;fill:#949494;" d="M37.702,20.678l-3.446,8.271L22.539,34.67
		c3.492-3.218,6.156-5.584,7.995-7.1C32.372,26.055,34.762,23.757,37.702,20.678z"/>
	<path style="fill-rule:evenodd;clip-rule:evenodd;fill:#BDBF02;" d="M17.438,12.475c-2.113-2.665-3.4-4.365-3.859-5.1L10.132,0
		c1.195,1.838,2.573,3.446,4.135,4.825C15.784,6.203,16.841,8.754,17.438,12.475z"/>
	<path style="fill-rule:evenodd;clip-rule:evenodd;fill:#586436;" d="M17.025,1.378c0.275,3.217,0.413,5.215,0.413,5.997v5.1
		c-0.919-2.481-1.378-4.043-1.378-4.687L17.025,1.378z"/>
	<path style="fill-rule:evenodd;clip-rule:evenodd;fill:#90A701;" d="M10.545,0.689l3.722,4.135
		c0.919,1.057,1.608,2.206,2.068,3.446v0.483l-3.722-3.24c-0.275-0.276-0.712-1.172-1.309-2.688
		C11.028,2.091,10.776,1.378,10.545,0.689z"/>
</g>
</svg>
