<?xml version="1.0" encoding="iso-8859-1"?>
<!-- Generator: Adobe Illustrator 15.1.0, SVG Export Plug-In . SVG Version: 6.00 Build 0)  -->
<!DOCTYPE svg PUBLIC "-//W3C//DTD SVG 1.1//EN" "http://www.w3.org/Graphics/SVG/1.1/DTD/svg11.dtd">
<svg version="1.1" id="flash0.ai" xmlns="http://www.w3.org/2000/svg" xmlns:xlink="http://www.w3.org/1999/xlink" x="0px" y="0px"
	 width="42.95px" height="41.45px" viewBox="0 0 42.95 41.45" style="enable-background:new 0 0 42.95 41.45;" xml:space="preserve"
	>
<symbol  id="flash0.ai_x5F_8_x2F_Layer_7_copy_x2F__x3C_Path_x3E__x5F_10" viewBox="0 -31.45 5.3 31.45">
	<g id="Layer_1_2_">
		
			<linearGradient id="SVGID_1_" gradientUnits="userSpaceOnUse" x1="-545.9893" y1="-15752.041" x2="-520.8283" y2="-15752.041" gradientTransform="matrix(0.0696 -0.9976 0.9976 0.0696 15753.8994 548.5234)">
			<stop  offset="0" style="stop-color:#FFFFFF"/>
			<stop  offset="1" style="stop-color:#000000"/>
		</linearGradient>
		<path style="fill-rule:evenodd;clip-rule:evenodd;fill:url(#SVGID_1_);" d="M3.35-0.5L5.3,0c0-0.233-0.2-0.967-0.6-2.2
			C4.567-2.633,4.2-3.533,3.6-4.9C3.133-5.967,2.867-6.75,2.8-7.25c-0.1-0.633-0.15-3.267-0.15-7.9
			c-0.033-4.367-0.017-7.733,0.05-10.1c0.033-2.867,0.216-4.933,0.55-6.2c-0.333,0.233-0.8,0.717-1.4,1.45
			c-0.367,0.467-0.733,1.017-1.1,1.65l-0.4,0.85L0-6.5C0.033-6,0.3-5.4,0.8-4.7c0.6,0.733,0.983,1.25,1.15,1.55
			C2.717-1.983,3.183-1.1,3.35-0.5z"/>
	</g>
</symbol>
<symbol  id="flash0.ai_x5F_8_x2F_Layer_7_copy_x2F__x3C_Path_x3E__x5F_2" viewBox="0.028 -1.179 9.522 1.229">
	<g id="Layer_1_5_">
		<path style="fill-rule:evenodd;clip-rule:evenodd;fill:#FFFFFF;" d="M0.45,0c0.633-0.233,1.667-0.45,3.1-0.65
			C5.35-0.883,7.35-1,9.55-1c-0.066-0.167-1.167-0.217-3.3-0.15c-1.4,0.066-2.733,0.217-4,0.45c-1,0.167-1.65,0.317-1.95,0.45
			C0.067-0.15-0.017-0.067,0.05,0C0.117,0.067,0.25,0.067,0.45,0z"/>
	</g>
</symbol>
<symbol  id="flash0.ai_x5F_8_x2F_Layer_7_copy_x2F__x3C_Path_x3E__x5F_8" viewBox="0 -3.112 16.5 3.112">
	<g id="Layer_1_4_">
		<path style="fill-rule:evenodd;clip-rule:evenodd;fill:#755332;" d="M15.55,0l0.95-1.45c-1.467-1.2-4.05-1.75-7.75-1.65
			C4.617-3,1.7-2.267,0-0.9L0.55,0l7.5-0.4L15.55,0z"/>
	</g>
</symbol>
<symbol  id="flash0.ai_x5F_8_x2F_Layer_7_copy_x2F__x3C_Path_x3E__x5F_9" viewBox="0 -31.45 5.25 31.45">
	<g id="Layer_1_3_">
		<linearGradient id="SVGID_2_" gradientUnits="userSpaceOnUse" x1="4.2148" y1="-27.4346" x2="2.4648" y2="-2.3346">
			<stop  offset="0" style="stop-color:#FFFFFF"/>
			<stop  offset="1" style="stop-color:#000000"/>
		</linearGradient>
		<path style="fill-rule:evenodd;clip-rule:evenodd;fill:url(#SVGID_2_);" d="M1.95-0.5C2.117-1.1,2.567-1.983,3.3-3.15
			c0.2-0.3,0.583-0.817,1.15-1.55c0.5-0.7,0.767-1.3,0.8-1.8l-0.3-21l-0.4-0.85c-0.367-0.633-0.733-1.183-1.1-1.65
			c-0.6-0.733-1.083-1.217-1.45-1.45c0.367,1.267,0.567,3.333,0.6,6.2c0.133,10.3,0.1,16.3-0.1,18C2.433-6.75,2.167-5.967,1.7-4.9
			C1.1-3.533,0.733-2.633,0.6-2.2C0.2-0.967,0-0.233,0,0L1.95-0.5z"/>
	</g>
</symbol>
<linearGradient id="SVGID_3_" gradientUnits="userSpaceOnUse" x1="0" y1="22.9814" x2="24.175" y2="22.9814">
	<stop  offset="0" style="stop-color:#E3C098"/>
	<stop  offset="1" style="stop-color:#78532B"/>
</linearGradient>
<path style="fill-rule:evenodd;clip-rule:evenodd;fill:url(#SVGID_3_);" d="M22.3,9.7c0.7,0.733,1.167,1.433,1.4,2.1
	c0.333,0.833,0.5,1.934,0.5,3.3s-0.117,4.583-0.351,9.65c-0.233,4.8-0.399,7.65-0.5,8.55c-0.066,1.033-0.517,2.066-1.35,3.101
	c-1.133,1.366-2.75,2.35-4.85,2.949c-1.733,0.467-3.417,0.667-5.05,0.601c-1.633,0.066-3.3-0.134-5-0.601
	c-2.133-0.6-3.75-1.583-4.85-2.949c-0.833-1-1.3-2.034-1.4-3.101c-0.1-0.899-0.267-3.75-0.5-8.55C0.117,19.683,0,16.467,0,15.1
	s0.167-2.467,0.5-3.3c0.267-0.667,0.733-1.367,1.4-2.1C3.133,8.367,4.033,7.133,4.6,6l7.5,0.4L19.6,6C20.1,7,21,8.233,22.3,9.7z"/>
<linearGradient id="SVGID_4_" gradientUnits="userSpaceOnUse" x1="0.6499" y1="22.8242" x2="23.3496" y2="22.8242">
	<stop  offset="0" style="stop-color:#C29561"/>
	<stop  offset="1" style="stop-color:#855F36"/>
</linearGradient>
<path style="fill-rule:evenodd;clip-rule:evenodd;fill:url(#SVGID_4_);" d="M21.6,9.9c0.634,0.733,1.084,1.417,1.351,2.05
	c0.267,0.8,0.399,1.867,0.399,3.2c0,1.233-0.116,4.35-0.35,9.35c-0.2,4.434-0.333,7.217-0.4,8.35c-0.1,1.067-0.533,2.084-1.3,3.051
	c-1.033,1.333-2.55,2.283-4.55,2.85c-1.367,0.4-2.95,0.6-4.75,0.6c-1.767,0-3.333-0.199-4.7-0.6c-2-0.566-3.517-1.517-4.55-2.85
	c-0.8-1-1.233-2.017-1.3-3.051C1.383,32.017,1.233,29.233,1,24.5c-0.233-4.9-0.35-8.017-0.35-9.35c0-1.333,0.15-2.4,0.45-3.2
	c0.233-0.633,0.667-1.317,1.3-2.05c1.267-1.367,2.117-2.566,2.55-3.6L12,6.7l7.1-0.4C19.5,7.267,20.333,8.467,21.6,9.9z"/>
<linearGradient id="SVGID_5_" gradientUnits="userSpaceOnUse" x1="1.6875" y1="25.5303" x2="17.2125" y2="25.5303">
	<stop  offset="0" style="stop-color:#C2512F"/>
	<stop  offset="0.1882" style="stop-color:#B94C2C"/>
	<stop  offset="0.498" style="stop-color:#A04025"/>
	<stop  offset="0.8863" style="stop-color:#782C19"/>
	<stop  offset="1" style="stop-color:#6B2515"/>
</linearGradient>
<path style="fill-rule:evenodd;clip-rule:evenodd;fill:url(#SVGID_5_);" d="M13.25,20.55c1.633-0.066,2.95-0.167,3.95-0.3L16.8,34
	c-2.033,0.7-4.8,0.884-8.3,0.55c-1.967-0.2-3.583-0.7-4.85-1.5l-1.3-1.1l-0.7-12.3c0.333,0.167,1.033,0.333,2.1,0.5
	c0.4-1.133,1-2.033,1.8-2.7c0.867-0.733,1.817-1.1,2.85-1.1c1.1-0.033,2.1,0.35,3,1.15C12.267,18.3,12.883,19.317,13.25,20.55z"/>
<linearGradient id="SVGID_6_" gradientUnits="userSpaceOnUse" x1="3.3999" y1="28.0078" x2="11.2998" y2="28.0078">
	<stop  offset="0" style="stop-color:#DBAE84"/>
	<stop  offset="0.3294" style="stop-color:#D4A77B"/>
	<stop  offset="0.8667" style="stop-color:#C09362"/>
	<stop  offset="1" style="stop-color:#BA8D5B"/>
</linearGradient>
<path style="fill-rule:evenodd;clip-rule:evenodd;fill:url(#SVGID_6_);" d="M7.55,25.9l3.75,2.5c-0.033,1.5-0.3,2.017-0.8,1.55
	c-0.467-0.4-2.05-0.566-4.75-0.5c-1.233,0.066-2-0.101-2.3-0.5l-0.05-1.5C5.167,26.45,6.55,25.934,7.55,25.9z"/>
<linearGradient id="SVGID_7_" gradientUnits="userSpaceOnUse" x1="10.4248" y1="29.2305" x2="14.7748" y2="29.2305">
	<stop  offset="0" style="stop-color:#C29561"/>
	<stop  offset="1" style="stop-color:#855F36"/>
</linearGradient>
<path style="fill-rule:evenodd;clip-rule:evenodd;fill:url(#SVGID_7_);" d="M10.4,28.95c0.6-0.4,1.217-0.783,1.85-1.15
	c1.267-0.733,2.017-0.983,2.25-0.75c0.367,0.4,0.383,1.367,0.05,2.9c-0.267,0.833-1.033,1.333-2.3,1.5
	c-0.667,0.1-1.15,0.033-1.45-0.2l-0.3-0.35L10.4,28.95z"/>
<linearGradient id="SVGID_8_" gradientUnits="userSpaceOnUse" x1="3.3623" y1="27.6426" x2="14.7373" y2="27.6426">
	<stop  offset="0" style="stop-color:#FFCEA1"/>
	<stop  offset="0.2196" style="stop-color:#F6C698"/>
	<stop  offset="0.5843" style="stop-color:#DEAF7F"/>
	<stop  offset="1" style="stop-color:#BA8D5B"/>
</linearGradient>
<path style="fill-rule:evenodd;clip-rule:evenodd;fill:url(#SVGID_8_);" d="M8.65,25.05c3.1,0,5.033,0.584,5.8,1.75
	c0.6,0.9,0.45,1.783-0.45,2.65c-0.667,0.633-1.45,0.883-2.35,0.75c-0.867-0.134-1.283-0.55-1.25-1.25
	c0.033-0.5-0.717-0.767-2.25-0.8c-2.333-0.067-3.7-0.15-4.1-0.25C2.917,27.667,3.033,27.134,4.4,26.3
	C5.8,25.467,7.217,25.05,8.65,25.05z"/>
<linearGradient id="SVGID_9_" gradientUnits="userSpaceOnUse" x1="4" y1="26.6211" x2="14.6" y2="26.6211">
	<stop  offset="0" style="stop-color:#FF9354"/>
	<stop  offset="0.2235" style="stop-color:#F68E51"/>
	<stop  offset="0.5882" style="stop-color:#DD8048"/>
	<stop  offset="1" style="stop-color:#BA6C3C"/>
</linearGradient>
<path style="fill-rule:evenodd;clip-rule:evenodd;fill:url(#SVGID_9_);" d="M7.9,25.45c2-0.101,3.283,0.1,3.85,0.6
	c0.267,0.233,0.183,0.517-0.25,0.851c-0.433,0.333-1.017,0.566-1.75,0.699c-1.667,0.334-3.333,0.284-5-0.149
	c-0.8-0.233-0.7-0.617,0.3-1.15C6.017,25.767,6.967,25.483,7.9,25.45z"/>
<linearGradient id="SVGID_10_" gradientUnits="userSpaceOnUse" x1="4" y1="28.8027" x2="14.6" y2="28.8027">
	<stop  offset="0" style="stop-color:#FF9354"/>
	<stop  offset="0.2235" style="stop-color:#F68E51"/>
	<stop  offset="0.5882" style="stop-color:#DD8048"/>
	<stop  offset="1" style="stop-color:#BA6C3C"/>
</linearGradient>
<path style="fill-rule:evenodd;clip-rule:evenodd;fill:url(#SVGID_10_);" d="M13.45,27.95c0.5,0,0.683,0.184,0.55,0.55
	s-0.467,0.684-1,0.95c-0.5,0.233-0.95,0.267-1.35,0.1c-0.433-0.166-0.633-0.45-0.6-0.85c0.034-0.334,0.267-0.533,0.7-0.601
	C11.783,28.066,12.35,28.017,13.45,27.95z"/>
<linearGradient id="SVGID_11_" gradientUnits="userSpaceOnUse" x1="4" y1="26.9375" x2="14.6" y2="26.9375">
	<stop  offset="0" style="stop-color:#FF9354"/>
	<stop  offset="0.2235" style="stop-color:#F68E51"/>
	<stop  offset="0.5882" style="stop-color:#DD8048"/>
	<stop  offset="1" style="stop-color:#BA6C3C"/>
</linearGradient>
<path style="fill-rule:evenodd;clip-rule:evenodd;fill:url(#SVGID_11_);" d="M13.45,26.45c0.367,0.133,0.417,0.366,0.15,0.7
	c-0.267,0.3-0.65,0.383-1.15,0.25c-0.467-0.134-0.5-0.351-0.1-0.65C12.783,26.45,13.15,26.35,13.45,26.45z"/>
<linearGradient id="SVGID_12_" gradientUnits="userSpaceOnUse" x1="2.0498" y1="25.75" x2="16.5498" y2="25.75">
	<stop  offset="0" style="stop-color:#F2BA66"/>
	<stop  offset="0.2" style="stop-color:#E9B160"/>
	<stop  offset="0.5333" style="stop-color:#D0994E"/>
	<stop  offset="0.9529" style="stop-color:#A87233"/>
	<stop  offset="1" style="stop-color:#A36D2F"/>
</linearGradient>
<path style="fill-rule:evenodd;clip-rule:evenodd;fill:url(#SVGID_12_);" d="M8.35,17.2c1.033,0,1.967,0.35,2.8,1.05
	c0.833,0.733,1.434,1.683,1.8,2.85c1.4-0.066,2.533-0.167,3.4-0.3h0.2L16.2,33.65l-0.1,0.05c-1.233,0.399-2.9,0.6-5,0.6l-2.65-0.1
	C6.65,34,5.167,33.55,4,32.85c-0.8-0.699-1.217-1.066-1.25-1.1L2.7,31.7L2.05,20.15l0.25,0.1c0.3,0.167,0.867,0.317,1.7,0.45
	c0.4-1.067,0.983-1.9,1.75-2.5C6.55,17.567,7.417,17.233,8.35,17.2z M5.95,18.45c-0.733,0.6-1.284,1.417-1.65,2.45L4.25,21H4.1
	c-0.8-0.133-1.367-0.267-1.7-0.4l0.6,11c1,1.267,2.817,2.034,5.45,2.301c0.6,0.066,1.483,0.1,2.65,0.1c2.1,0,3.7-0.184,4.8-0.55
	L16.25,21.1c-0.533,0.134-1.683,0.217-3.45,0.25h-0.1l-0.05-0.1c-0.333-1.133-0.883-2.033-1.65-2.7c-0.767-0.7-1.633-1.05-2.6-1.05
	C7.5,17.5,6.683,17.817,5.95,18.45z"/>
<linearGradient id="SVGID_13_" gradientUnits="userSpaceOnUse" x1="4.875" y1="28.2402" x2="13.825" y2="28.2402">
	<stop  offset="0" style="stop-color:#996F3F"/>
	<stop  offset="1" style="stop-color:#734E26"/>
</linearGradient>
<path style="fill-rule:evenodd;clip-rule:evenodd;fill:url(#SVGID_13_);" d="M13.5,25.95c0.033,0.2,0.083,0.517,0.15,0.95
	c0.1,0.233,0.1,0.483,0,0.75s-0.233,0.433-0.4,0.5c-0.233,0.066-0.45,0.166-0.65,0.3c-0.2,0.2-0.217,0.35-0.05,0.45
	c0.667,0.466,1,0.733,1,0.8c0,0.1-0.017,0.35-0.05,0.75c0,0.399,0.033,0.616,0.1,0.649c0.133,0.034,0.217,0.134,0.25,0.301
	c0,0.166-0.083,0.267-0.25,0.3c-0.233,0.1-0.4-0.05-0.5-0.45v-1.3c-0.033-0.167-0.15-0.316-0.35-0.45
	c-0.3-0.134-0.883-0.25-1.75-0.35c-0.233-0.034-0.317-0.117-0.25-0.25c0.033-0.167,0.217-0.334,0.55-0.5
	c0.267-0.167,0.284-0.317,0.05-0.45l-1-0.3c-0.633-0.2-1.417-0.267-2.35-0.2c-1,0.066-1.7,0.366-2.1,0.899
	c-0.1,0.134-0.133,0.367-0.1,0.7c0.034,0.4,0.017,0.684-0.05,0.851c-0.1,0.267-0.3,0.333-0.6,0.199
	c-0.3-0.166-0.383-0.316-0.25-0.449c0.233-0.233,0.35-0.7,0.35-1.4c0-0.267,0.217-0.517,0.65-0.75
	c0.367-0.167,0.783-0.283,1.25-0.35c0.4-0.067,0.4-0.217,0-0.45c-0.333-0.167-0.783-0.316-1.35-0.45c-0.5-0.066-0.333-0.333,0.5-0.8
	c0.867-0.467,1.684-0.7,2.45-0.7c0.6,0,0.95,0.15,1.05,0.45l0.2,0.5c0.1,0.033,0.35,0,0.75-0.101c0.5-0.133,0.917-0.199,1.25-0.199
	C12.867,25.4,13.367,25.583,13.5,25.95z"/>
<path style="fill-rule:evenodd;clip-rule:evenodd;fill:#AB7C45;" d="M8.65,25.05c0.467,0,0.717,0.084,0.75,0.25
	c0,0.066-0.1,0.233-0.3,0.5C8.967,26,8.617,26.116,8.05,26.15c-0.566,0.033-0.966-0.034-1.2-0.2c-0.233-0.2-0.133-0.4,0.3-0.601
	C7.55,25.15,8.05,25.05,8.65,25.05z"/>
<path style="fill-rule:evenodd;clip-rule:evenodd;fill:#AB7C45;" d="M12.25,25.7c0.4-0.066,0.617,0.017,0.65,0.25
	c0,0.2-0.117,0.416-0.35,0.649c-0.167,0.167-0.533,0.233-1.1,0.2c-0.567-0.033-0.967-0.133-1.2-0.3c-0.2-0.134,0-0.3,0.6-0.5
	C11.35,25.833,11.817,25.733,12.25,25.7z"/>
<path style="fill-rule:evenodd;clip-rule:evenodd;fill:#AB7C45;" d="M12.75,27.15c0.333,0.033,0.4,0.116,0.2,0.25
	c-0.167,0.133-0.35,0.216-0.55,0.25c-0.133,0.033-0.15-0.051-0.05-0.25C12.45,27.2,12.583,27.116,12.75,27.15z"/>
<use xlink:href="#flash0.ai_x5F_8_x2F_Layer_7_copy_x2F__x3C_Path_x3E__x5F_10"  width="5.3" height="31.45" y="-31.45" transform="matrix(1 0 0 -1 2.2002 6.3501)" style="overflow:visible;opacity:0.5781;enable-background:new    ;"/>
<use xlink:href="#flash0.ai_x5F_8_x2F_Layer_7_copy_x2F__x3C_Path_x3E__x5F_9"  width="5.25" height="31.45" y="-31.45" transform="matrix(1 0 0 -1 16.8999 6.3501)" style="overflow:visible;opacity:0.2109;enable-background:new    ;"/>
<use xlink:href="#flash0.ai_x5F_8_x2F_Layer_7_copy_x2F__x3C_Path_x3E__x5F_8"  width="16.5" height="3.112" y="-3.112" transform="matrix(1 0 0 -1 4.0498 6)" style="overflow:visible;opacity:0.6719;enable-background:new    ;"/>
<radialGradient id="SVGID_14_" cx="12.0498" cy="6.0498" r="8.55" gradientTransform="matrix(1 0 0 -0.2325 0 7.4561)" gradientUnits="userSpaceOnUse">
	<stop  offset="0" style="stop-color:#FFC98C"/>
	<stop  offset="1" style="stop-color:#CC9B66"/>
</radialGradient>
<path style="fill-rule:evenodd;clip-rule:evenodd;fill:url(#SVGID_14_);" d="M20.8,6.05c0,0.567-0.85,1.05-2.55,1.45
	c-1.733,0.4-3.8,0.6-6.2,0.6c-2.4,0-4.45-0.2-6.15-0.6C4.2,7.1,3.35,6.617,3.35,6.05C3.35,5.483,4.2,5,5.9,4.6
	C7.6,4.2,9.65,4,12.05,4c2.434,0,4.5,0.2,6.2,0.6S20.8,5.483,20.8,6.05z"/>
<linearGradient id="SVGID_15_" gradientUnits="userSpaceOnUse" x1="3.0498" y1="5.5498" x2="21.25" y2="5.5498">
	<stop  offset="0" style="stop-color:#6E2717"/>
	<stop  offset="0.3255" style="stop-color:#C7512F"/>
	<stop  offset="0.4549" style="stop-color:#BE4D2D"/>
	<stop  offset="0.6627" style="stop-color:#A54226"/>
	<stop  offset="0.9255" style="stop-color:#7D311C"/>
	<stop  offset="1" style="stop-color:#702B19"/>
</linearGradient>
<path style="fill-rule:evenodd;clip-rule:evenodd;fill:url(#SVGID_15_);" d="M21.25,5.55c0,0.567-0.883,1.034-2.65,1.4
	c-1.8,0.4-3.95,0.6-6.45,0.6c-2.533,0-4.683-0.2-6.45-0.6c-1.767-0.367-2.65-0.833-2.65-1.4c0-0.566,0.883-1.033,2.65-1.4
	c1.767-0.4,3.917-0.6,6.45-0.6c2.5,0,4.65,0.2,6.45,0.6C20.367,4.55,21.25,5.017,21.25,5.55z"/>
<path style="fill-rule:evenodd;clip-rule:evenodd;fill:#0304D6;" d="M20.95,1.8v3.4c-0.034,0.4-0.917,0.75-2.65,1.05
	c-1.733,0.267-3.8,0.4-6.2,0.4s-4.467-0.133-6.2-0.4C4.2,5.95,3.317,5.6,3.25,5.2V1.8H20.95z"/>
<linearGradient id="SVGID_16_" gradientUnits="userSpaceOnUse" x1="3.25" y1="4.2998" x2="20.925" y2="4.2998">
	<stop  offset="0" style="stop-color:#B33D1E"/>
	<stop  offset="0.3686" style="stop-color:#C7512F"/>
	<stop  offset="0.5216" style="stop-color:#BE4D2C"/>
	<stop  offset="0.7725" style="stop-color:#A54126"/>
	<stop  offset="1" style="stop-color:#89341E"/>
</linearGradient>
<path style="fill-rule:evenodd;clip-rule:evenodd;fill:url(#SVGID_16_);" d="M20.95,5.2C20.883,5.633,20,6.033,18.3,6.4
	c-1.8,0.367-3.867,0.55-6.2,0.55c-2.333,0-4.4-0.184-6.2-0.55C4.2,6.033,3.317,5.633,3.25,5.2V1.65h17.7V5.2z"/>
<path style="fill-rule:evenodd;clip-rule:evenodd;fill:#D45430;" d="M20.9,1.7c0,0.466-0.867,0.867-2.6,1.2
	c-1.7,0.333-3.767,0.5-6.2,0.5c-2.467,0-4.55-0.167-6.25-0.5c-1.733-0.333-2.6-0.733-2.6-1.2c0-0.467,0.867-0.867,2.6-1.2
	C7.55,0.167,9.633,0,12.1,0c2.433,0,4.5,0.167,6.2,0.5C20.033,0.833,20.9,1.233,20.9,1.7z"/>
<use xlink:href="#flash0.ai_x5F_8_x2F_Layer_7_copy_x2F__x3C_Path_x3E__x5F_2"  width="9.522" height="1.229" x="0.028" y="-1.179" transform="matrix(1 0 0 -1 4.2998 6.8501)" style="overflow:visible;opacity:0.4805;enable-background:new    ;"/>
<path style="fill-rule:evenodd;clip-rule:evenodd;fill:#F9E2C9;" d="M4.55,36.35c0.7,0.367,1.117,0.75,1.25,1.15
	c0.133,0.366,0.05,0.55-0.25,0.55c-0.5,0-1.133-0.366-1.9-1.1c-0.367-0.367-0.4-0.617-0.1-0.75C3.85,36.066,4.183,36.116,4.55,36.35
	z"/>
<path style="fill-rule:evenodd;clip-rule:evenodd;fill:#F9E2C9;" d="M7.25,37.7c0.467,0.1,0.583,0.283,0.35,0.55
	s-0.434,0.333-0.6,0.2c-0.167-0.167-0.25-0.334-0.25-0.5C6.717,37.717,6.883,37.634,7.25,37.7z"/>
</svg>
