<?xml version="1.0" encoding="iso-8859-1"?>
<!-- Generator: Adobe Illustrator 15.1.0, SVG Export Plug-In . SVG Version: 6.00 Build 0)  -->
<!DOCTYPE svg PUBLIC "-//W3C//DTD SVG 1.1//EN" "http://www.w3.org/Graphics/SVG/1.1/DTD/svg11.dtd">
<svg version="1.1" id="flash0.ai" xmlns="http://www.w3.org/2000/svg" xmlns:xlink="http://www.w3.org/1999/xlink" x="0px" y="0px"
	 width="40px" height="40px" viewBox="0 0 40 40" style="enable-background:new 0 0 40 40;" xml:space="preserve">
<symbol  id="flash0.ai_x5F_7_x2F_Layer_9_x2F__x3C_Path_x3E_" viewBox="-0.015 -2.775 4.639 2.752">
	<g id="Layer_1_5_">
		<path style="fill-rule:evenodd;clip-rule:evenodd;fill:#FFFFFF;" d="M1.9-0.25c1.434,0.333,2.3,0.3,2.6-0.1
			C4.767-0.717,4.6-1.2,4-1.8C3.467-2.3,2.7-2.617,1.7-2.75c-1-0.1-1.567,0.1-1.7,0.6C-0.067-1.883,0.083-1.533,0.45-1.1
			C0.883-0.667,1.367-0.383,1.9-0.25z"/>
	</g>
</symbol>
<symbol  id="flash0.ai_x5F_7_x2F_Layer_9_x2F__x3C_Path_x3E__x5F_10" viewBox="0.018 -2.676 4.577 2.704">
	<g id="Layer_1_3_">
		<path style="fill-rule:evenodd;clip-rule:evenodd;fill:#FFFFFF;" d="M4.45-0.3c0.3-0.367,0.133-0.833-0.5-1.4
			C3.417-2.2,2.667-2.517,1.7-2.65C0.733-2.75,0.183-2.567,0.05-2.1c-0.1,0.267,0.034,0.617,0.4,1.05
			c0.4,0.433,0.867,0.716,1.4,0.85C3.283,0.133,4.15,0.1,4.45-0.3z"/>
	</g>
</symbol>
<symbol  id="flash0.ai_x5F_7_x2F_Layer_9_x2F__x3C_Path_x3E__x5F_11" viewBox="-0.027 -4.993 8.081 4.999">
	<g id="Layer_1_2_">
		<path style="fill-rule:evenodd;clip-rule:evenodd;fill:#FFFFFF;" d="M8-1.55C8.167-2.217,7.95-2.833,7.35-3.4
			c-0.8-0.733-2.133-1.233-4-1.5c-2.767-0.367-3.833,0.35-3.2,2.15c0.267,0.7,0.767,1.3,1.5,1.8c0.633,0.4,1.267,0.667,1.9,0.8
			C6.183,0.283,7.667-0.183,8-1.55z"/>
	</g>
</symbol>
<symbol  id="flash0.ai_x5F_7_x2F_Layer_9_x2F__x3C_Path_x3E__x5F_3" viewBox="-0.025 -5.056 8.227 5.06">
	<g id="Layer_1_4_">
		<path style="fill-rule:evenodd;clip-rule:evenodd;fill:#FFFFFF;" d="M8.15-1.6c0.167-0.667-0.066-1.283-0.7-1.85
			C6.65-4.183,5.3-4.683,3.4-4.95c-2.8-0.4-3.883,0.333-3.25,2.2c0.267,0.667,0.767,1.267,1.5,1.8c0.633,0.4,1.283,0.667,1.95,0.8
			C6.3,0.283,7.817-0.2,8.15-1.6z"/>
	</g>
</symbol>
<g>
	
		<radialGradient id="SVGID_1_" cx="35.4326" cy="4.0288" r="9.6354" gradientTransform="matrix(0.7174 0.6967 0.6084 -0.8212 -4.8713 6.5738)" gradientUnits="userSpaceOnUse">
		<stop  offset="0" style="stop-color:#8589FF"/>
		<stop  offset="1" style="stop-color:#404082"/>
	</radialGradient>
	<path style="fill-rule:evenodd;clip-rule:evenodd;fill:url(#SVGID_1_);" d="M31.2,27.5c0.934,2.267,0.767,4.184-0.5,5.75
		c-1.5,1.866-3.566,2.65-6.2,2.35c-2.6-0.267-4.3-1.333-5.1-3.199c-0.9-2.233-0.75-4.217,0.45-5.95c1.2-1.7,2.983-2.584,5.35-2.65
		C28.167,23.767,30.167,25,31.2,27.5z"/>
	<path style="fill-rule:evenodd;clip-rule:evenodd;fill:#48498F;" d="M30.7,33.25c-1.434,1.767-3.434,2.566-6,2.4
		c-2.467-0.2-4.167-1.167-5.1-2.9c1.766,1.667,3.733,2.366,5.9,2.1c1.833-0.233,3.134-0.983,3.9-2.25c1.533-2.633,1.733-4.966,0.6-7
		c1,1.067,1.55,2.4,1.65,4C31.75,31.1,31.434,32.316,30.7,33.25z"/>
	
		<use xlink:href="#flash0.ai_x5F_7_x2F_Layer_9_x2F__x3C_Path_x3E__x5F_11"  width="8.081" height="4.999" x="-0.027" y="-4.993" transform="matrix(1 0 0 -1 19.8501 24.3496)" style="overflow:visible;opacity:0.0703;enable-background:new    ;"/>
	
		<use xlink:href="#flash0.ai_x5F_7_x2F_Layer_9_x2F__x3C_Path_x3E__x5F_10"  width="4.577" height="2.704" x="0.018" y="-2.676" transform="matrix(1 0 0 -1 20.9004 24.75)" style="overflow:visible;opacity:0.1484;enable-background:new    ;"/>
	
		<linearGradient id="SVGID_2_" gradientUnits="userSpaceOnUse" x1="-30.52" y1="-22.7622" x2="-19.873" y2="-22.7622" gradientTransform="matrix(-0.9956 -0.0939 0.0939 -0.9956 -1.243055e-004 -4.209578e-004)">
		<stop  offset="0" style="stop-color:#4F52A8"/>
		<stop  offset="1" style="stop-color:#363670"/>
	</linearGradient>
	<path style="fill-rule:evenodd;clip-rule:evenodd;fill:url(#SVGID_2_);" d="M25,24.25c1.167-0.033,1.983,0.15,2.45,0.55
		c0.399,0.334,0.416,0.634,0.05,0.9c-0.366,0.233-1.05,0.383-2.05,0.45c-1.101,0.1-1.9,0.017-2.4-0.25
		c-0.467-0.301-0.434-0.65,0.101-1.051C23.684,24.45,24.3,24.25,25,24.25z"/>
	<path style="fill-rule:evenodd;clip-rule:evenodd;fill:#664F35;" d="M24.05,25.1c1-0.3,1.816-0.333,2.45-0.1
		c0.366,0.134,0.55,0.316,0.55,0.55c-0.033,0.2-0.233,0.367-0.6,0.5c-0.367,0.134-0.834,0.184-1.4,0.15c-0.533,0-1-0.066-1.399-0.2
		c-0.367-0.134-0.5-0.283-0.4-0.45C23.35,25.384,23.616,25.233,24.05,25.1z"/>
	
		<linearGradient id="SVGID_3_" gradientUnits="userSpaceOnUse" x1="-26.7651" y1="-25.9316" x2="-22.6148" y2="-25.9316" gradientTransform="matrix(-0.9999 0.012 -0.012 -0.9999 -3.804378e-004 4.038028e-004)">
		<stop  offset="0" style="stop-color:#5C4820"/>
		<stop  offset="1" style="stop-color:#473819"/>
	</linearGradient>
	<path style="fill-rule:evenodd;clip-rule:evenodd;fill:url(#SVGID_3_);" d="M25.15,25.15c0.633-0.034,1.033,0.05,1.199,0.25
		c0.134,0.166,0.067,0.333-0.199,0.5c-0.534,0.3-1.167,0.283-1.9-0.051c-0.366-0.166-0.417-0.316-0.15-0.449
		C24.366,25.267,24.717,25.184,25.15,25.15z"/>
	
		<radialGradient id="SVGID_4_" cx="29.4268" cy="14.2554" r="9.8296" gradientTransform="matrix(0.716 0.6981 0.6091 -0.8215 -17.2517 23.2659)" gradientUnits="userSpaceOnUse">
		<stop  offset="0" style="stop-color:#8589FF"/>
		<stop  offset="1" style="stop-color:#404082"/>
	</radialGradient>
	<path style="fill-rule:evenodd;clip-rule:evenodd;fill:url(#SVGID_4_);" d="M14.7,27.9c3.033-0.034,5.066,1.216,6.1,3.75
		c0.967,2.3,0.8,4.25-0.5,5.85c-1.5,1.9-3.617,2.717-6.35,2.45c-2.633-0.267-4.35-1.367-5.15-3.3c-0.9-2.267-0.733-4.301,0.5-6.101
		C10.5,28.816,12.3,27.934,14.7,27.9z"/>
	<path style="fill-rule:evenodd;clip-rule:evenodd;fill:#48498F;" d="M20.3,37.5c-1.466,1.833-3.5,2.65-6.1,2.45
		C11.7,39.75,9.967,38.767,9,37c1.833,1.7,3.833,2.417,6,2.15c1.867-0.233,3.2-1,4-2.301c1.566-2.699,1.767-5.066,0.6-7.1
		c1.034,1.066,1.6,2.417,1.7,4.05C21.4,35.333,21.066,36.566,20.3,37.5z"/>
	
		<use xlink:href="#flash0.ai_x5F_7_x2F_Layer_9_x2F__x3C_Path_x3E__x5F_3"  width="8.227" height="5.06" x="-0.025" y="-5.056" transform="matrix(1 0 0 -1 9.25 28.4502)" style="overflow:visible;opacity:0.0703;enable-background:new    ;"/>
	
		<linearGradient id="SVGID_5_" gradientUnits="userSpaceOnUse" x1="34.6396" y1="9.1113" x2="40.3901" y2="9.1113" gradientTransform="matrix(0.5304 0.8478 -0.8478 0.5304 -3.719330e-004 1.161098e-004)">
		<stop  offset="0" style="stop-color:#4F52A8"/>
		<stop  offset="1" style="stop-color:#363670"/>
	</linearGradient>
	<path style="fill-rule:evenodd;clip-rule:evenodd;fill:url(#SVGID_5_);" d="M10.225,35.525c-0.536-0.24-0.661-0.599-0.375-1.075
		c0.2-0.334,0.45-0.45,0.75-0.351c0.233,0.067,0.433,0.2,0.6,0.4l0.15,0.3c0.033-0.133,0.1-0.283,0.2-0.45
		c0.167-0.267,0.383-0.416,0.65-0.449c0.667-0.067,1.033,0.183,1.1,0.75c0.034,0.333-0.017,0.583-0.15,0.75l0.45-0.2
		c0.333-0.101,0.617-0.066,0.85,0.1c0.3,0.233,0.433,0.5,0.4,0.8c-0.033,0.233-0.133,0.4-0.3,0.5C14.417,36.7,14.233,36.733,14,36.7
		l0.55,0.2c0.333,0.199,0.467,0.433,0.4,0.699c-0.133,0.467-0.434,0.617-0.9,0.45c0.267,0.634,0.1,1.017-0.5,1.15
		c-0.6,0.1-0.9-0.017-0.9-0.351c-0.033,0.4-0.217,0.584-0.55,0.551c-0.233-0.034-0.4-0.15-0.5-0.351l-0.1-0.35
		c-0.1,0.3-0.367,0.316-0.8,0.05c-0.267-0.167-0.367-0.35-0.3-0.55l0.15-0.25c-0.4,0.133-0.716,0.033-0.95-0.3
		c-0.133-0.233-0.083-0.417,0.15-0.551l0.4-0.1c-0.633,0.066-0.9-0.217-0.8-0.85c0.033-0.4,0.2-0.617,0.5-0.65
		C9.983,35.474,10.108,35.481,10.225,35.525z"/>
	
		<linearGradient id="SVGID_6_" gradientUnits="userSpaceOnUse" x1="-39.6421" y1="8.835" x2="-35.8531" y2="8.835" gradientTransform="matrix(-0.0858 -0.9963 0.9963 -0.0858 -2.108216e-004 7.468164e-004)">
		<stop  offset="0" style="stop-color:#4F52A8"/>
		<stop  offset="1" style="stop-color:#363670"/>
	</linearGradient>
	<path style="fill-rule:evenodd;clip-rule:evenodd;fill:url(#SVGID_6_);" d="M12.5,35.45c1.167,0.934,1.483,1.75,0.95,2.45
		c-0.534,0.699-1.267,0.716-2.2,0.05c-0.867-0.634-1.083-1.367-0.65-2.2C11.033,34.917,11.667,34.816,12.5,35.45z"/>
	
		<use xlink:href="#flash0.ai_x5F_7_x2F_Layer_9_x2F__x3C_Path_x3E_"  width="4.639" height="2.752" x="-0.015" y="-2.775" transform="matrix(1 0 0 -1 10.3501 28.7998)" style="overflow:visible;opacity:0.1484;enable-background:new    ;"/>
</g>
</svg>
