<?xml version="1.0" encoding="iso-8859-1"?>
<!-- Generator: Adobe Illustrator 15.1.0, SVG Export Plug-In . SVG Version: 6.00 Build 0)  -->
<!DOCTYPE svg PUBLIC "-//W3C//DTD SVG 1.1//EN" "http://www.w3.org/Graphics/SVG/1.1/DTD/svg11.dtd">
<svg version="1.1" id="flash0.ai" xmlns="http://www.w3.org/2000/svg" xmlns:xlink="http://www.w3.org/1999/xlink" x="0px" y="0px"
	 width="37.75px" height="41.9px" viewBox="0 0 37.75 41.9" style="enable-background:new 0 0 37.75 41.9;" xml:space="preserve">
<symbol  id="flash0.ai_x5F_8_x2F_Layer_2_copy_x2F__x3C_Path_x3E__x5F_11" viewBox="0 -5.383 19.4 5.383">
	<g id="Layer_1_4_">
		<path style="fill-rule:evenodd;clip-rule:evenodd;fill:#333362;" d="M17.9-0.9c0.167-0.567,0.667-1.333,1.5-2.3
			c-0.467-0.5-1.033-0.933-1.7-1.3c-0.367-0.2-0.95-0.35-1.75-0.45c-1-0.133-1.6-0.233-1.8-0.3c-0.433-0.133-1.017-0.167-1.75-0.1
			c-0.867,0.1-1.517,0.167-1.95,0.2c-0.2,0-0.75,0.167-1.65,0.5c-0.833,0.267-1.966,0.433-3.4,0.5
			c-1.333,0.066-2.283,0.233-2.85,0.5c-0.033,0-0.367,0.25-1,0.75C1.15-2.567,0.633-2.433,0-2.5c0.533,0.967,1.017,1.717,1.45,2.25
			V0C12.25,0,17.733-0.3,17.9-0.9z"/>
	</g>
</symbol>
<symbol  id="flash0.ai_x5F_8_x2F_Layer_2_copy_x2F__x3C_Path_x3E__x5F_12" viewBox="0 -31.5 5.25 31.5">
	<g id="Layer_1_3_">
		<linearGradient id="SVGID_1_" gradientUnits="userSpaceOnUse" x1="4.2163" y1="-27.4844" x2="2.4663" y2="-2.3844">
			<stop  offset="0" style="stop-color:#FFFFFF"/>
			<stop  offset="1" style="stop-color:#000000"/>
		</linearGradient>
		<path style="fill-rule:evenodd;clip-rule:evenodd;fill:url(#SVGID_1_);" d="M1.95-0.55C2.117-1.15,2.567-2.033,3.3-3.2
			C3.5-3.5,3.883-4,4.45-4.7c0.5-0.7,0.767-1.3,0.8-1.8l-0.3-21l-0.4-0.85c-0.367-0.667-0.733-1.233-1.1-1.7
			C2.85-30.783,2.367-31.267,2-31.5c0.367,1.267,0.567,3.333,0.6,6.2c0.133,10.5,0.083,16.5-0.15,18
			c-0.067,0.5-0.333,1.283-0.8,2.35C1.117-3.65,0.767-2.733,0.6-2.2C0.2-1,0-0.267,0,0L1.95-0.55z"/>
	</g>
</symbol>
<symbol  id="flash0.ai_x5F_8_x2F_Layer_2_copy_x2F__x3C_Path_x3E__x5F_13" viewBox="0 -31.5 5.3 31.5">
	<g id="Layer_1_2_">
		
			<linearGradient id="SVGID_2_" gradientUnits="userSpaceOnUse" x1="-543.1475" y1="-15755.0332" x2="-517.9865" y2="-15755.0332" gradientTransform="matrix(0.0696 -0.9976 0.9976 0.0696 15756.6914 551.5156)">
			<stop  offset="0" style="stop-color:#FFFFFF"/>
			<stop  offset="1" style="stop-color:#000000"/>
		</linearGradient>
		<path style="fill-rule:evenodd;clip-rule:evenodd;fill:url(#SVGID_2_);" d="M3.35-0.55L5.3,0c0-0.267-0.2-1-0.6-2.2
			C4.533-2.667,4.167-3.583,3.6-4.95C3.133-6.017,2.867-6.8,2.8-7.3c-0.1-0.633-0.15-3.267-0.15-7.9
			c-0.033-4.333-0.017-7.7,0.05-10.1c0.033-2.867,0.216-4.934,0.55-6.2c-0.333,0.233-0.8,0.717-1.4,1.45
			c-0.4,0.466-0.767,1.033-1.1,1.7l-0.4,0.85L0-6.5C0.033-6,0.3-5.4,0.8-4.7C1.4-4,1.783-3.5,1.95-3.2
			C2.683-2.033,3.15-1.15,3.35-0.55z"/>
	</g>
</symbol>
<symbol  id="flash0.ai_x5F_8_x2F_Layer_2_copy_x2F__x3C_Path_x3E__x5F_4" viewBox="0.028 -1.206 9.472 1.206">
	<g id="Layer_1_6_">
		<path style="fill-rule:evenodd;clip-rule:evenodd;fill:#FFFFFF;" d="M0.45-0.05c0.633-0.2,1.667-0.4,3.1-0.6
			c1.8-0.267,3.784-0.4,5.95-0.4c-0.067-0.167-1.15-0.2-3.25-0.1C3.583-1.05,1.6-0.767,0.3-0.3C0.067-0.2-0.017-0.117,0.05-0.05
			C0.117,0.017,0.25,0.017,0.45-0.05z"/>
	</g>
</symbol>
<symbol  id="flash0.ai_x5F_8_x2F_Layer_2_copy_x2F__x3C_Path_x3E__x5F_8" viewBox="0 -3.708 17.7 3.708">
	<g id="Layer_1_5_">
		<path style="fill-rule:evenodd;clip-rule:evenodd;fill:#3B4F6B;" d="M17.3-0.95c0.167-0.267,0.3-0.5,0.4-0.7
			c0-0.067-0.083-0.184-0.25-0.35c-0.133-0.2-0.367-0.333-0.7-0.4c-0.467-0.1-0.9-0.184-1.3-0.25C13.65-2.817,12.533-3,12.1-3.2
			c-0.6-0.267-1.25-0.433-1.95-0.5c-0.167-0.033-0.467,0.034-0.9,0.2C8.717-3.3,8.267-3.133,7.9-3C6.833-2.7,5.817-2.75,4.85-3.15
			c-0.6-0.233-1.083-0.1-1.45,0.4c-0.066,0.1-0.4,0.2-1,0.3C1.8-2.383,1.383-2.233,1.15-2C0.383-1.367,0-0.7,0,0
			C11.233-0.1,17-0.417,17.3-0.95z"/>
	</g>
</symbol>
<linearGradient id="SVGID_3_" gradientUnits="userSpaceOnUse" x1="0" y1="23.4316" x2="24.175" y2="23.4316">
	<stop  offset="0" style="stop-color:#D4D5FF"/>
	<stop  offset="1" style="stop-color:#2A2A54"/>
</linearGradient>
<path style="fill-rule:evenodd;clip-rule:evenodd;fill:url(#SVGID_3_);" d="M22.3,10.15c0.7,0.733,1.167,1.434,1.4,2.1
	c0.333,0.833,0.5,1.933,0.5,3.3c0,1.333-0.117,4.534-0.351,9.601c-0.233,4.833-0.399,7.699-0.5,8.6c-0.1,1.066-0.566,2.1-1.399,3.1
	c-1.101,1.367-2.717,2.351-4.85,2.95c-1.7,0.467-3.367,0.667-5,0.601c-1.633,0.066-3.317-0.134-5.05-0.601
	c-2.133-0.6-3.75-1.583-4.85-2.95c-0.833-1-1.284-2.033-1.35-3.1c-0.1-0.9-0.267-3.767-0.5-8.6C0.117,20.083,0,16.883,0,15.55
	c0-1.367,0.167-2.466,0.5-3.3c0.233-0.633,0.683-1.333,1.35-2.1c1.2-1.267,2.117-2.5,2.75-3.7l7.5,0.4l7.5-0.4
	C20.3,7.717,21.2,8.95,22.3,10.15z"/>
<linearGradient id="SVGID_4_" gradientUnits="userSpaceOnUse" x1="0.6499" y1="23.2559" x2="23.3496" y2="23.2559">
	<stop  offset="0" style="stop-color:#6E73E6"/>
	<stop  offset="1" style="stop-color:#373770"/>
</linearGradient>
<path style="fill-rule:evenodd;clip-rule:evenodd;fill:url(#SVGID_4_);" d="M21.6,10.35c0.634,0.733,1.084,1.417,1.351,2.05
	c0.267,0.8,0.399,1.867,0.399,3.2c0,1.233-0.116,4.35-0.35,9.35c-0.2,4.434-0.333,7.217-0.4,8.35c-0.1,1.066-0.533,2.066-1.3,3
	c-1.066,1.334-2.6,2.283-4.6,2.851c-1.6,0.466-3.167,0.666-4.7,0.6c-1.533,0.066-3.1-0.134-4.7-0.6c-2-0.567-3.517-1.517-4.55-2.851
	c-0.8-0.967-1.233-1.967-1.3-3C1.383,32.467,1.233,29.684,1,24.95c-0.233-4.9-0.35-8.017-0.35-9.35c0-1.333,0.15-2.4,0.45-3.2
	c0.233-0.633,0.667-1.316,1.3-2.05c1.2-1.3,2.05-2.5,2.55-3.6L12,7.15l7.05-0.4C19.717,7.983,20.566,9.183,21.6,10.35z"/>
<linearGradient id="SVGID_5_" gradientUnits="userSpaceOnUse" x1="1.2373" y1="26.6309" x2="17.5623" y2="26.6309">
	<stop  offset="0" style="stop-color:#DED2A9"/>
	<stop  offset="1" style="stop-color:#9E936D"/>
</linearGradient>
<path style="fill-rule:evenodd;clip-rule:evenodd;fill:url(#SVGID_5_);" d="M1.2,19.4c1.133,0.5,3.333,0.833,6.6,1
	c4.167,0.233,7.417,0.184,9.75-0.15L16.9,33c-0.467,0.2-1.183,0.384-2.15,0.55c-1.9,0.3-4.05,0.384-6.45,0.25
	c-1.966-0.1-3.633-0.467-5-1.1l-1.4-0.9L1.2,19.4z"/>
<linearGradient id="SVGID_6_" gradientUnits="userSpaceOnUse" x1="2.375" y1="30.5996" x2="14.625" y2="30.5996">
	<stop  offset="0" style="stop-color:#45488F"/>
	<stop  offset="1" style="stop-color:#313157"/>
</linearGradient>
<path style="fill-rule:evenodd;clip-rule:evenodd;fill:url(#SVGID_6_);" d="M11.1,31.05L12.2,31c0.833,0,1.533,0.066,2.1,0.2
	c0.6,0.133,0.333,0.35-0.8,0.649c-1.1,0.267-1.967,0.4-2.6,0.4c-0.2,0-1.433-0.116-3.7-0.35c-0.9-0.134-0.684-0.334,0.65-0.601
	l1.8-0.149c0.267,0,0.15-0.117-0.35-0.351c-0.5-0.2-0.917-0.316-1.25-0.35c-1.133-0.267-2.033-0.417-2.7-0.45
	c-0.567-0.033-1.283-0.267-2.15-0.7c-0.167-0.066-0.034-0.116,0.4-0.149c0.433-0.034,0.917-0.034,1.45,0L5.3,29.2l1.05-0.25H7.4
	c0.767,0.033,1.267,0.2,1.5,0.5C9.333,29.917,10.067,30.45,11.1,31.05z"/>
<linearGradient id="SVGID_7_" gradientUnits="userSpaceOnUse" x1="2.5" y1="26.2598" x2="13.7" y2="26.2598">
	<stop  offset="0" style="stop-color:#6E73E6"/>
	<stop  offset="1" style="stop-color:#373770"/>
</linearGradient>
<path style="fill-rule:evenodd;clip-rule:evenodd;fill:url(#SVGID_7_);" d="M6.1,23.2c1.1,0.399,1.767,1.25,2,2.55
	c0.167,1.233-0.133,2.233-0.9,3c-0.8,0.767-1.75,0.95-2.85,0.55C3.183,28.833,2.533,27.9,2.4,26.5c-0.1-1.333,0.3-2.316,1.2-2.95
	C4.433,22.983,5.267,22.866,6.1,23.2z"/>
<linearGradient id="SVGID_8_" gradientUnits="userSpaceOnUse" x1="2.5" y1="28.0488" x2="13.7" y2="28.0488">
	<stop  offset="0" style="stop-color:#6E73E6"/>
	<stop  offset="1" style="stop-color:#373770"/>
</linearGradient>
<path style="fill-rule:evenodd;clip-rule:evenodd;fill:url(#SVGID_8_);" d="M11.05,24.7c1.767,0.467,2.7,1.517,2.8,3.149
	c0.066,1.567-0.567,2.667-1.9,3.301c-1.167,0.566-2.333,0.483-3.5-0.25c-1.1-0.7-1.684-1.684-1.75-2.95
	c-0.034-1.167,0.466-2.084,1.5-2.75C9.133,24.6,10.083,24.434,11.05,24.7z"/>
<linearGradient id="SVGID_9_" gradientUnits="userSpaceOnUse" x1="2.3848" y1="27.2695" x2="14.6348" y2="27.2695">
	<stop  offset="0" style="stop-color:#45488F"/>
	<stop  offset="1" style="stop-color:#313157"/>
</linearGradient>
<path style="fill-rule:evenodd;clip-rule:evenodd;fill:url(#SVGID_9_);" d="M11.6,30.55c1.1-0.5,1.617-1.399,1.55-2.7
	c-0.066-1.366-0.833-2.233-2.3-2.6c-0.8-0.2-1.583-0.05-2.35,0.45c-0.833,0.533-1.233,1.283-1.2,2.25c0.034,1.033,0.5,1.85,1.4,2.45
	C9.667,31,10.633,31.05,11.6,30.55z M5.85,23.55c-0.7-0.3-1.367-0.2-2,0.3c-0.767,0.567-1.1,1.434-1,2.601
	c0.1,1.2,0.633,2,1.6,2.399c0.9,0.367,1.667,0.217,2.3-0.449L6.7,27.95c0-0.8,0.267-1.5,0.8-2.101
	C7.333,24.717,6.783,23.95,5.85,23.55z M3.6,23.55c0.833-0.566,1.667-0.684,2.5-0.35c0.933,0.366,1.566,1.1,1.9,2.2
	c0.9-0.733,1.917-0.967,3.05-0.7c1.767,0.467,2.7,1.517,2.8,3.149c0.066,1.567-0.567,2.667-1.9,3.301c-1,0.5-2,0.5-3,0
	c-1-0.434-1.667-1.15-2-2.15L5.9,29.45c-0.8,0.133-1.55-0.05-2.25-0.55c-0.733-0.567-1.15-1.367-1.25-2.4
	C2.3,25.167,2.7,24.184,3.6,23.55z"/>
<linearGradient id="SVGID_10_" gradientUnits="userSpaceOnUse" x1="2.375" y1="27.0996" x2="14.625" y2="27.0996">
	<stop  offset="0" style="stop-color:#45488F"/>
	<stop  offset="1" style="stop-color:#313157"/>
</linearGradient>
<path style="fill-rule:evenodd;clip-rule:evenodd;fill:url(#SVGID_10_);" d="M6.55,24.75l0.95,1.1
	c0.167,0.267,0.05,0.801-0.35,1.601c-0.066,0.2-0.133,0.616-0.2,1.25c0.033,0.5-0.317,0.75-1.05,0.75
	c-0.566,0-0.917-0.017-1.05-0.05c-0.167,0-0.3-0.067-0.4-0.2L4.2,27.8l0.85,0.851l0.5,0.149c-0.233-0.399-0.367-0.75-0.4-1.05
	L5.1,27l0.25,0.4c0.167,0.3,0.333,0.483,0.5,0.55l0.6,0.25L5.9,26.7l-0.1-0.45l0.8,0.5l0.2,0.2c0.067-0.533,0.034-1-0.1-1.4
	L6.55,24.75z"/>
<linearGradient id="SVGID_11_" gradientUnits="userSpaceOnUse" x1="2.375" y1="28.3496" x2="14.625" y2="28.3496">
	<stop  offset="0" style="stop-color:#45488F"/>
	<stop  offset="1" style="stop-color:#313157"/>
</linearGradient>
<path style="fill-rule:evenodd;clip-rule:evenodd;fill:url(#SVGID_11_);" d="M11.5,27.4l-0.3-0.7l0.45,0.45
	c0.3,0.267,0.567,0.683,0.8,1.25l-0.1-1.25c-0.067-0.301-0.233-0.65-0.5-1.051l-0.4-0.449l0.85,0.05l0.3,0.25
	c0.2,0.233,0.367,0.467,0.5,0.7c0.267,0.5,0.333,1.35,0.2,2.55c-0.1,0.566-0.517,1.184-1.25,1.85L10.85,31
	c-0.5-0.033-0.934-0.2-1.3-0.5L9.1,30l0.3,0.15c0.233,0.133,0.533,0.233,0.9,0.3c0.534,0.066,0.867-0.017,1-0.25
	c-0.333-0.2-0.633-0.467-0.9-0.8c-0.133-0.2-0.25-0.483-0.35-0.851l-0.1-0.5l0.9,0.9c0.3,0.3,0.617,0.366,0.95,0.2v-0.7
	C11.8,28.25,11.7,27.9,11.5,27.4z"/>
<linearGradient id="SVGID_12_" gradientUnits="userSpaceOnUse" x1="2.8501" y1="27.0566" x2="10.0501" y2="27.0566">
	<stop  offset="0" style="stop-color:#CFD1FF"/>
	<stop  offset="1" style="stop-color:#7E7FD6"/>
</linearGradient>
<path style="fill-rule:evenodd;clip-rule:evenodd;fill:url(#SVGID_12_);" d="M9.1,26.05c0.6,0.033,0.683,0.417,0.25,1.15
	c-0.434,0.733-0.833,1-1.2,0.8c-0.333-0.167-0.35-0.533-0.05-1.1C8.4,26.333,8.733,26.05,9.1,26.05z"/>
<linearGradient id="SVGID_13_" gradientUnits="userSpaceOnUse" x1="2.8501" y1="25.0947" x2="10.0501" y2="25.0947">
	<stop  offset="0" style="stop-color:#CFD1FF"/>
	<stop  offset="1" style="stop-color:#7E7FD6"/>
</linearGradient>
<path style="fill-rule:evenodd;clip-rule:evenodd;fill:url(#SVGID_13_);" d="M4.15,24.3c0.567-0.066,0.7,0.184,0.4,0.75
	C4.25,25.616,3.933,25.9,3.6,25.9c-0.333,0-0.417-0.25-0.25-0.75C3.483,24.65,3.75,24.366,4.15,24.3z"/>
<use xlink:href="#flash0.ai_x5F_8_x2F_Layer_2_copy_x2F__x3C_Path_x3E__x5F_13"  width="5.3" height="31.5" y="-31.5" transform="matrix(1 0 0 -1 2.2002 6.75)" style="overflow:visible;opacity:0.5781;enable-background:new    ;"/>
<use xlink:href="#flash0.ai_x5F_8_x2F_Layer_2_copy_x2F__x3C_Path_x3E__x5F_12"  width="5.25" height="31.5" y="-31.5" transform="matrix(1 0 0 -1 16.8999 6.75)" style="overflow:visible;opacity:0.2109;enable-background:new    ;"/>
<use xlink:href="#flash0.ai_x5F_8_x2F_Layer_2_copy_x2F__x3C_Path_x3E__x5F_11"  width="19.4" height="5.383" y="-5.383" transform="matrix(1 0 0 -1 2.6499 6.75)" style="overflow:visible;opacity:0.7695;enable-background:new    ;"/>
<linearGradient id="SVGID_14_" gradientUnits="userSpaceOnUse" x1="1.6499" y1="7.6499" x2="22.6504" y2="7.6499">
	<stop  offset="0" style="stop-color:#D6D8FF"/>
	<stop  offset="1" style="stop-color:#939AAD"/>
</linearGradient>
<path style="fill-rule:evenodd;clip-rule:evenodd;fill:url(#SVGID_14_);" d="M20.45,6.2c0.2,0.633,0.633,1.066,1.3,1.3
	c0.333,0.133,0.634,0.183,0.9,0.15c0,0.167-0.067,0.35-0.2,0.55c-0.167,0.333-0.533,0.517-1.101,0.55
	c-0.199,0-0.416,0.117-0.649,0.35c-0.2,0.233-0.467,0.35-0.8,0.35c-0.834,0-1.667,0.083-2.5,0.25c-0.3,0.066-0.783,0.267-1.45,0.6
	c-0.6,0.3-1.05,0.45-1.35,0.45c-0.8-0.133-1.367-0.167-1.7-0.1c-0.566,0.067-1.133,0-1.7-0.2c-1.267-0.434-2.517-0.5-3.75-0.2
	c-1,0.233-1.967-0.017-2.9-0.75c-0.367-0.267-0.733-0.417-1.1-0.45C3.017,9.05,2.733,9,2.6,8.9C2.367,8.733,2.133,8.483,1.9,8.15
	L1.65,7.7C2.517,7.4,3.1,7.1,3.4,6.8C3.7,6.533,4,5.783,4.3,4.55c2.6,0.034,5.233,0.117,7.9,0.25C17.5,5.1,20.25,5.567,20.45,6.2z"
	/>
<linearGradient id="SVGID_15_" gradientUnits="userSpaceOnUse" x1="2.0498" y1="8.5" x2="22.6504" y2="8.5">
	<stop  offset="0" style="stop-color:#8CADDE"/>
	<stop  offset="1" style="stop-color:#516D96"/>
</linearGradient>
<path style="fill-rule:evenodd;clip-rule:evenodd;fill:url(#SVGID_15_);" d="M22.65,7.75c0,0.133-0.067,0.283-0.2,0.45
	c-0.167,0.333-0.517,0.517-1.05,0.55c-0.434-0.333-0.967-0.867-1.601-1.6c-0.2-0.233-0.533-0.217-1,0.05l-0.6,0.45l0.2,1.9l-1,0.15
	c-0.3,0.066-0.767,0.267-1.4,0.6c-0.567,0.267-1,0.417-1.3,0.45l0.35-0.8c0.333-0.667,0.517-1.333,0.55-2L12.1,8
	c-0.133,0.367-0.434,0.867-0.9,1.5c-0.167,0.3-0.367,0.567-0.6,0.8c-1.133-0.267-2.184-0.283-3.15-0.05
	c-0.167,0.067-0.434,0.1-0.8,0.1L7.35,10C8.317,9.5,9,8.8,9.4,7.9L8.15,7.3l-1.3,0.15l-1,0.75c-0.333,0.267-0.983,0.6-1.95,1
	C3.3,9.167,2.867,9.067,2.6,8.9L2.05,8.3L2.8,8.15c0.867-0.2,1.833-0.833,2.9-1.9l15.05,0.5c0.4,0.567,0.917,0.85,1.55,0.85
	L22.65,7.75z"/>
<use xlink:href="#flash0.ai_x5F_8_x2F_Layer_2_copy_x2F__x3C_Path_x3E__x5F_8"  width="17.7" height="3.708" y="-3.708" transform="matrix(1 0 0 -1 3.4502 5.7998)" style="overflow:visible;opacity:0.4883;enable-background:new    ;"/>
<linearGradient id="SVGID_16_" gradientUnits="userSpaceOnUse" x1="3.2998" y1="6.4502" x2="20.7748" y2="6.4502">
	<stop  offset="0" style="stop-color:#FFE5A3"/>
	<stop  offset="1" style="stop-color:#87733D"/>
</linearGradient>
<path style="fill-rule:evenodd;clip-rule:evenodd;fill:url(#SVGID_16_);" d="M20.8,6.45c0,0.566-0.85,1.05-2.55,1.45
	s-3.767,0.6-6.2,0.6c-2.4,0-4.45-0.2-6.15-0.6C4.167,7.5,3.3,7.017,3.3,6.45C3.3,5.883,4.167,5.4,5.9,5c1.7-0.4,3.75-0.6,6.15-0.6
	c2.4,0,4.467,0.2,6.2,0.6C19.95,5.4,20.8,5.883,20.8,6.45z"/>
<linearGradient id="SVGID_17_" gradientUnits="userSpaceOnUse" x1="3.25" y1="4.75" x2="20.925" y2="4.75">
	<stop  offset="0" style="stop-color:#2B2BE2"/>
	<stop  offset="0.3255" style="stop-color:#3045FF"/>
	<stop  offset="0.6" style="stop-color:#3241F6"/>
	<stop  offset="1" style="stop-color:#3636E0"/>
</linearGradient>
<path style="fill-rule:evenodd;clip-rule:evenodd;fill:url(#SVGID_17_);" d="M20.95,2.1v3.55C20.884,6.083,20,6.483,18.3,6.85
	c-1.8,0.367-3.867,0.55-6.2,0.55c-2.333,0-4.4-0.183-6.2-0.55c-1.7-0.367-2.583-0.767-2.65-1.2V2.1H20.95z"/>
<linearGradient id="SVGID_18_" gradientUnits="userSpaceOnUse" x1="-19.3667" y1="-3.0298" x2="-3.3485" y2="-3.0298" gradientTransform="matrix(-0.9973 0.0734 -0.0734 -0.9973 3.098473e-004 -6.072223e-005)">
	<stop  offset="0" style="stop-color:#3B5BFF"/>
	<stop  offset="0.8157" style="stop-color:#3B52FF"/>
	<stop  offset="1" style="stop-color:#3B4FFF"/>
</linearGradient>
<path style="fill-rule:evenodd;clip-rule:evenodd;fill:url(#SVGID_18_);" d="M20.9,2.15c0,0.467-0.867,0.867-2.601,1.2
	c-1.7,0.333-3.767,0.5-6.2,0.5c-2.467,0-4.55-0.167-6.25-0.5c-1.733-0.333-2.6-0.733-2.6-1.2s0.867-0.867,2.6-1.2
	c1.7-0.333,3.783-0.5,6.25-0.5c2.433,0,4.5,0.167,6.2,0.5C20.033,1.283,20.9,1.683,20.9,2.15z"/>
<use xlink:href="#flash0.ai_x5F_8_x2F_Layer_2_copy_x2F__x3C_Path_x3E__x5F_4"  width="9.472" height="1.206" x="0.028" y="-1.206" transform="matrix(1 0 0 -1 4.2998 7.25)" style="overflow:visible;opacity:0.4805;enable-background:new    ;"/>
<path style="fill-rule:evenodd;clip-rule:evenodd;fill:#F9E2C9;" d="M4.55,36.8c0.7,0.367,1.117,0.75,1.25,1.15
	c0.133,0.366,0.05,0.55-0.25,0.55c-0.433,0-1.066-0.384-1.9-1.15c-0.367-0.366-0.4-0.6-0.1-0.699
	C3.85,36.517,4.183,36.566,4.55,36.8z"/>
<path style="fill-rule:evenodd;clip-rule:evenodd;fill:#F9E2C9;" d="M7.2,38.15c0.5,0.1,0.633,0.283,0.4,0.55S7.167,39.017,7,38.85
	c-0.167-0.133-0.25-0.3-0.25-0.5C6.717,38.15,6.867,38.083,7.2,38.15z"/>
<linearGradient id="SVGID_19_" gradientUnits="userSpaceOnUse" x1="2.8125" y1="3.876" x2="21.394" y2="3.876">
	<stop  offset="0" style="stop-color:#D6D8FF"/>
	<stop  offset="1" style="stop-color:#7B8191"/>
</linearGradient>
<path style="fill-rule:evenodd;clip-rule:evenodd;fill:url(#SVGID_19_);" d="M20.9,6.05C20.6,6.45,19.816,6.8,18.55,7.1
	c-1.7,0.4-3.95,0.617-6.75,0.65c-3.767,0.033-6.6-0.4-8.5-1.3C3,6.317,2.833,5.717,2.8,4.65C2.767,3.75,2.8,3,2.9,2.4
	c0.1-0.566,0.767-1.083,2-1.55C6.467,0.283,8.683,0,11.55,0c3.133,0,5.567,0.25,7.3,0.75c1.567,0.467,2.384,1.067,2.45,1.8
	C21.467,4.283,21.333,5.45,20.9,6.05z"/>
<g>
	<linearGradient id="SVGID_20_" gradientUnits="userSpaceOnUse" x1="2.75" y1="4.9502" x2="21.25" y2="4.9502">
		<stop  offset="0" style="stop-color:#8CADDE"/>
		<stop  offset="1" style="stop-color:#516D96"/>
	</linearGradient>
	<path style="fill-rule:evenodd;clip-rule:evenodd;fill:url(#SVGID_20_);" d="M21.3,2.55l0.05,0.9c-1.433,1.333-2.333,2.333-2.699,3
		l-0.4,0.7c-0.867,0.2-1.7,0.333-2.5,0.4c1.7-2.1,3.05-3.466,4.05-4.1c0.7-0.467,1.184-0.833,1.45-1.1L21.3,2.55z"/>
	<linearGradient id="SVGID_21_" gradientUnits="userSpaceOnUse" x1="2.75" y1="2.9502" x2="21.25" y2="2.9502">
		<stop  offset="0" style="stop-color:#8CADDE"/>
		<stop  offset="1" style="stop-color:#516D96"/>
	</linearGradient>
	<path style="fill-rule:evenodd;clip-rule:evenodd;fill:url(#SVGID_21_);" d="M4.15,2.7L9.6,0.05L12.55,0
		c-1.4,0.8-2.983,1.583-4.75,2.35C7,2.683,6.233,2.95,5.5,3.15C4.4,4.05,3.567,4.967,3,5.9C2.867,5.5,2.8,4.883,2.8,4.05
		C2.867,3.917,2.933,3.833,3,3.8C3.333,3.367,3.717,3,4.15,2.7z"/>
	<linearGradient id="SVGID_22_" gradientUnits="userSpaceOnUse" x1="2.75" y1="3.7754" x2="21.25" y2="3.7754">
		<stop  offset="0" style="stop-color:#8CADDE"/>
		<stop  offset="1" style="stop-color:#516D96"/>
	</linearGradient>
	<path style="fill-rule:evenodd;clip-rule:evenodd;fill:url(#SVGID_22_);" d="M11.75,1.9c0.967-0.433,2.067-1.033,3.3-1.8l2.45,0.35
		c-2.033,1.2-3.317,1.917-3.85,2.15l-2.9,1.15C9.783,4.25,8.9,4.967,8.1,5.9L6.85,7.45c-0.533-0.1-1.3-0.267-2.3-0.5
		C5.517,5.717,6.333,4.8,7,4.2c0.4-0.333,0.733-0.534,1-0.6L11.75,1.9z"/>
	<linearGradient id="SVGID_23_" gradientUnits="userSpaceOnUse" x1="2.75" y1="4.2998" x2="21.25" y2="4.2998">
		<stop  offset="0" style="stop-color:#8CADDE"/>
		<stop  offset="1" style="stop-color:#516D96"/>
	</linearGradient>
	<path style="fill-rule:evenodd;clip-rule:evenodd;fill:url(#SVGID_23_);" d="M12.35,4.6l6.8-3.75c0.566,0.167,1.05,0.4,1.449,0.7
		l-3.75,2c-1.567,0.767-2.817,1.784-3.75,3.05l-0.75,1.15L9.75,7.7C10.75,6.167,11.617,5.133,12.35,4.6z"/>
</g>
<linearGradient id="SVGID_24_" gradientUnits="userSpaceOnUse" x1="-21.3052" y1="-2.6934" x2="-2.2857" y2="-2.6934" gradientTransform="matrix(-0.9977 0.0684 -0.0684 -0.9977 4.541576e-004 2.319515e-004)">
	<stop  offset="0" style="stop-color:#D6D8FF"/>
	<stop  offset="1" style="stop-color:#939AAD"/>
</linearGradient>
<path style="fill-rule:evenodd;clip-rule:evenodd;fill:url(#SVGID_24_);" d="M12.2,3.75C7.633,3.75,4.567,3.233,3,2.2
	c0.267-0.567,1.017-1.05,2.25-1.45C6.783,0.25,8.883,0,11.55,0c5.534,0,8.733,0.7,9.601,2.1C19.75,3.2,16.767,3.75,12.2,3.75z"/>
<g>
	
		<linearGradient id="SVGID_25_" gradientUnits="userSpaceOnUse" x1="-15.6953" y1="-4.3008" x2="-2.7196" y2="-4.3008" gradientTransform="matrix(-0.9306 0.3661 -0.3661 -0.9306 5.362034e-004 4.481673e-004)">
		<stop  offset="0" style="stop-color:#8CADDE"/>
		<stop  offset="1" style="stop-color:#516D96"/>
	</linearGradient>
	<path style="fill-rule:evenodd;clip-rule:evenodd;fill:url(#SVGID_25_);" d="M4.15,2.7L9.6,0.05L12.55,0
		c-1.4,0.8-2.983,1.583-4.75,2.35l-2.3,0.8l-1.4-0.4L4.15,2.7z"/>
	
		<linearGradient id="SVGID_26_" gradientUnits="userSpaceOnUse" x1="-15.6895" y1="-6.522" x2="-2.7138" y2="-6.522" gradientTransform="matrix(-0.9306 0.3661 -0.3661 -0.9306 5.362034e-004 4.481673e-004)">
		<stop  offset="0" style="stop-color:#8CADDE"/>
		<stop  offset="1" style="stop-color:#516D96"/>
	</linearGradient>
	<path style="fill-rule:evenodd;clip-rule:evenodd;fill:url(#SVGID_26_);" d="M17.5,0.45C17,0.65,16.233,1,15.2,1.5
		c-1.1,0.567-1.767,0.9-2,1l-2.4,1.25L8,3.55l3.75-1.65c0.967-0.433,2.067-1.033,3.3-1.8v0.05l1.35,0.1l0.95,0.15L17.5,0.45z"/>
	
		<linearGradient id="SVGID_27_" gradientUnits="userSpaceOnUse" x1="-15.7202" y1="-8.626" x2="-2.7445" y2="-8.626" gradientTransform="matrix(-0.9306 0.3661 -0.3661 -0.9306 5.362034e-004 4.481673e-004)">
		<stop  offset="0" style="stop-color:#8CADDE"/>
		<stop  offset="1" style="stop-color:#516D96"/>
	</linearGradient>
	<polygon style="fill-rule:evenodd;clip-rule:evenodd;fill:url(#SVGID_27_);" points="20.55,1.55 20.6,1.55 17.05,3.45 13.85,3.7 
		19.15,0.85 19.95,1.15 20.05,1.2 	"/>
</g>
</svg>
