<?xml version="1.0" encoding="iso-8859-1"?>
<!-- Generator: Adobe Illustrator 15.1.0, SVG Export Plug-In . SVG Version: 6.00 Build 0)  -->
<!DOCTYPE svg PUBLIC "-//W3C//DTD SVG 1.1//EN" "http://www.w3.org/Graphics/SVG/1.1/DTD/svg11.dtd">
<svg version="1.1" id="flash0.ai" xmlns="http://www.w3.org/2000/svg" xmlns:xlink="http://www.w3.org/1999/xlink" x="0px" y="0px"
	 width="43.3px" height="41.1px" viewBox="0 0 43.3 41.1" style="enable-background:new 0 0 43.3 41.1;" xml:space="preserve">
<symbol  id="flash0.ai_x5F_8_x2F_Layer_17_x2F__x3C_Path_x3E__x5F_10" viewBox="0 -31.5 5.25 31.5">
	<g id="Layer_1_16_">
		
			<linearGradient id="SVGID_1_" gradientUnits="userSpaceOnUse" x1="-545.9424" y1="-15752.0898" x2="-520.7814" y2="-15752.0898" gradientTransform="matrix(0.0696 -0.9976 0.9976 0.0696 15753.8994 548.5234)">
			<stop  offset="0" style="stop-color:#FFFFFF"/>
			<stop  offset="1" style="stop-color:#000000"/>
		</linearGradient>
		<path style="fill-rule:evenodd;clip-rule:evenodd;fill:url(#SVGID_1_);" d="M3.3-0.55L5.25,0c0-0.267-0.2-1.017-0.6-2.25
			c-0.133-0.5-0.483-1.4-1.05-2.7C3.133-6.017,2.867-6.8,2.8-7.3c-0.1-0.6-0.15-3.233-0.15-7.9c-0.033-3.966-0.033-7.333,0-10.1
			c0.033-2.867,0.233-4.934,0.6-6.2c-0.367,0.233-0.85,0.717-1.45,1.45c-0.367,0.466-0.733,1.033-1.1,1.7L0.3-27.5L0-6.5
			C0.033-6,0.3-5.417,0.8-4.75C1.4-4.017,1.783-3.5,1.95-3.2C2.683-2.033,3.133-1.15,3.3-0.55z"/>
	</g>
</symbol>
<symbol  id="flash0.ai_x5F_8_x2F_Layer_17_x2F__x3C_Path_x3E__x5F_2" viewBox="-0.022 -1.179 9.522 1.229">
	<g id="Layer_1_19_">
		<path style="fill-rule:evenodd;clip-rule:evenodd;fill:#FFFFFF;" d="M0.4,0c0.633-0.233,1.667-0.45,3.1-0.65
			C5.3-0.883,7.3-1,9.5-1C9.433-1.167,8.35-1.217,6.25-1.15c-2.567,0.133-4.567,0.433-6,0.9C0.017-0.15-0.067-0.067,0,0
			S0.2,0.067,0.4,0z"/>
	</g>
</symbol>
<symbol  id="flash0.ai_x5F_8_x2F_Layer_17_x2F__x3C_Path_x3E__x5F_27" viewBox="0.006 -1.675 1.698 1.705">
	<g id="Layer_1_15_">
		<path style="fill-rule:evenodd;clip-rule:evenodd;fill:#60270D;" d="M1.15-0.05c0.4-0.1,0.583-0.317,0.55-0.65
			c0-0.066-0.1-0.316-0.3-0.75c-0.066-0.2-0.183-0.267-0.35-0.2c-0.133,0.066-0.383,0.3-0.75,0.7c-0.333,0.367-0.383,0.633-0.15,0.8
			C0.35,0.05,0.683,0.083,1.15-0.05z"/>
	</g>
</symbol>
<symbol  id="flash0.ai_x5F_8_x2F_Layer_17_x2F__x3C_Path_x3E__x5F_28" viewBox="-0.053 -1.2 1.951 1.243">
	<g id="Layer_1_14_">
		<path style="fill-rule:evenodd;clip-rule:evenodd;fill:#60270D;" d="M1.05-0.15C1.95-0.85,2.133-1.2,1.6-1.2
			c-0.067,0-0.533,0.083-1.4,0.25C-0.1-0.917-0.133-0.7,0.1-0.3C0.333,0.1,0.65,0.15,1.05-0.15z"/>
	</g>
</symbol>
<symbol  id="flash0.ai_x5F_8_x2F_Layer_17_x2F__x3C_Path_x3E__x5F_29" viewBox="-0.001 -2.006 3.001 2.024">
	<g id="Layer_1_13_">
		<path style="fill-rule:evenodd;clip-rule:evenodd;fill:#60270D;" d="M2.6-0.15C2.867-0.283,3-0.5,3-0.8
			c0-0.333-0.133-0.617-0.4-0.85C2.333-1.917,2.1-2.033,1.9-2C1.7-2,1.233-1.8,0.5-1.4c-0.7,0.367-0.667,0.733,0.1,1.1
			S2.033,0.117,2.6-0.15z"/>
	</g>
</symbol>
<symbol  id="flash0.ai_x5F_8_x2F_Layer_17_x2F__x3C_Path_x3E__x5F_30" viewBox="0.012 -1.606 2.291 1.611">
	<g id="Layer_1_12_">
		<path style="fill-rule:evenodd;clip-rule:evenodd;fill:#60270D;" d="M2.3-0.35c-0.167-0.4-0.3-0.7-0.4-0.9
			C1.8-1.517,1.633-1.633,1.4-1.6C1.3-1.567,0.95-1.383,0.35-1.05C-0.083-0.817-0.1-0.583,0.3-0.35C0.6-0.15,0.983-0.033,1.45,0
			C2.05,0.033,2.333-0.083,2.3-0.35z"/>
	</g>
</symbol>
<symbol  id="flash0.ai_x5F_8_x2F_Layer_17_x2F__x3C_Path_x3E__x5F_31" viewBox="-0.043 -1.972 3.335 1.978">
	<g id="Layer_1_11_">
		<path style="fill-rule:evenodd;clip-rule:evenodd;fill:#60270D;" d="M1.9-1.7C1.533-1.933,1.25-2.017,1.05-1.95
			C0.817-1.817,0.567-1.683,0.3-1.55C-0.1-1.383-0.15-1.1,0.15-0.7c0.3,0.434,0.767,0.667,1.4,0.7C3.75,0.067,3.867-0.5,1.9-1.7z"/>
	</g>
</symbol>
<symbol  id="flash0.ai_x5F_8_x2F_Layer_17_x2F__x3C_Path_x3E__x5F_32" viewBox="-0.071 -1.889 3.469 1.894">
	<g id="Layer_1_10_">
		<path style="fill-rule:evenodd;clip-rule:evenodd;fill:#60270D;" d="M2.75,0c0.6-0.033,0.783-0.233,0.55-0.6
			c-0.466-0.467-0.783-0.8-0.95-1C2.15-1.9,1.867-1.967,1.5-1.8C1-1.533,0.583-1.333,0.25-1.2c-0.5,0.233-0.417,0.5,0.25,0.8
			C1.133-0.1,1.883,0.033,2.75,0z"/>
	</g>
</symbol>
<symbol  id="flash0.ai_x5F_8_x2F_Layer_17_x2F__x3C_Path_x3E__x5F_33" viewBox="-0.006 -2.124 2.299 2.144">
	<g id="Layer_1_9_">
		<path style="fill-rule:evenodd;clip-rule:evenodd;fill:#60270D;" d="M2.15-0.25C2.583-1.083,2.033-1.7,0.5-2.1
			c-0.6-0.133-0.667,0.3-0.2,1.3c0.133,0.333,0.434,0.566,0.9,0.7C1.7,0.1,2.017,0.05,2.15-0.25z"/>
	</g>
</symbol>
<symbol  id="flash0.ai_x5F_8_x2F_Layer_17_x2F__x3C_Path_x3E__x5F_34" viewBox="-0.028 -2.817 3.174 2.817">
	<g id="Layer_1_8_">
		<path style="fill-rule:evenodd;clip-rule:evenodd;fill:#60270D;" d="M1.85,0c0.7,0,1.117-0.317,1.25-0.95
			C3.267-1.617,2.983-2.167,2.25-2.6c-0.6-0.333-1.067-0.283-1.4,0.15c-0.3,0.6-0.533,0.967-0.7,1.1c-0.267,0.233-0.233,0.5,0.1,0.8
			C0.583-0.183,1.117,0,1.85,0z"/>
	</g>
</symbol>
<symbol  id="flash0.ai_x5F_8_x2F_Layer_17_x2F__x3C_Path_x3E__x5F_35" viewBox="-0.028 -2.598 2.67 2.615">
	<g id="Layer_1_7_">
		<path style="fill-rule:evenodd;clip-rule:evenodd;fill:#60270D;" d="M2.6-1.05C2.5-1.85,2.25-2.333,1.85-2.5
			C1.35-2.733,0.767-2.55,0.1-1.95c-0.267,0.267-0.117,0.633,0.45,1.1c0.5,0.467,1,0.75,1.5,0.85S2.733-0.25,2.6-1.05z"/>
	</g>
</symbol>
<symbol  id="flash0.ai_x5F_8_x2F_Layer_17_x2F__x3C_Path_x3E__x5F_36" viewBox="-0.043 -1.106 1.531 1.159">
	<g id="Layer_1_6_">
		<path style="fill-rule:evenodd;clip-rule:evenodd;fill:#60270D;" d="M1.2-0.2c0.367-0.533,0.383-0.833,0.05-0.9
			c-0.3-0.033-0.667,0.083-1.1,0.35C-0.15-0.583-0.1-0.367,0.3-0.1C0.7,0.133,1,0.1,1.2-0.2z"/>
	</g>
</symbol>
<symbol  id="flash0.ai_x5F_8_x2F_Layer_17_x2F__x3C_Path_x3E__x5F_37" viewBox="-0.005 -1.383 1.884 1.373">
	<g id="Layer_1_5_">
		<path style="fill-rule:evenodd;clip-rule:evenodd;fill:#60270D;" d="M0.65-0.1C1.117,0.067,1.467,0,1.7-0.3
			C1.867-0.533,1.917-0.767,1.85-1C1.783-1.167,1.6-1.283,1.3-1.35c-0.333-0.066-0.633-0.033-0.9,0.1C0.1-1.117-0.033-0.933,0-0.7
			C0.033-0.433,0.25-0.233,0.65-0.1z"/>
	</g>
</symbol>
<symbol  id="flash0.ai_x5F_8_x2F_Layer_17_x2F__x3C_Path_x3E__x5F_38" viewBox="0.056 -2.655 2.65 2.665">
	<g id="Layer_1_4_">
		<path style="fill-rule:evenodd;clip-rule:evenodd;fill:#60270D;" d="M1.55,0C1.817-0.033,2.067-0.183,2.3-0.45
			C2.6-0.75,2.733-1.1,2.7-1.5C2.667-1.9,2.483-2.183,2.15-2.35c-0.233-0.1-0.7-0.2-1.4-0.3c-0.833-0.067-0.917,0.5-0.25,1.7
			c0.167,0.267,0.3,0.534,0.4,0.8C1-0.017,1.217,0.033,1.55,0z"/>
	</g>
</symbol>
<symbol  id="flash0.ai_x5F_8_x2F_Layer_17_x2F__x3C_Path_x3E__x5F_39" viewBox="-0.05 -1.2 1.609 1.204">
	<g id="Layer_1_3_">
		<path style="fill-rule:evenodd;clip-rule:evenodd;fill:#60270D;" d="M0.6,0c0.9-0.1,1.167-0.333,0.8-0.7
			C1.067-1.033,0.717-1.2,0.35-1.2c-0.267,0-0.4,0.217-0.4,0.65C-0.017-0.15,0.2,0.033,0.6,0z"/>
	</g>
</symbol>
<symbol  id="flash0.ai_x5F_8_x2F_Layer_17_x2F__x3C_Path_x3E__x5F_40" viewBox="-0.004 -1.688 1.72 1.712">
	<g id="Layer_1_2_">
		<path style="fill-rule:evenodd;clip-rule:evenodd;fill:#60270D;" d="M1.7-0.65c-0.133-0.533-0.467-0.867-1-1
			C0.267-1.783,0.033-1.567,0-1c-0.033,0.6,0.167,0.933,0.6,1C1.433,0.1,1.8-0.117,1.7-0.65z"/>
	</g>
</symbol>
<symbol  id="flash0.ai_x5F_8_x2F_Layer_17_x2F__x3C_Path_x3E__x5F_8" viewBox="0 -3.112 16.5 3.112">
	<g id="Layer_1_18_">
		<path style="fill-rule:evenodd;clip-rule:evenodd;fill:#752A20;" d="M15.6,0l0.9-1.45c-1.467-1.2-4.033-1.75-7.7-1.65
			C4.667-3,1.733-2.267,0-0.9L0.55,0l7.5-0.4L15.6,0z"/>
	</g>
</symbol>
<symbol  id="flash0.ai_x5F_8_x2F_Layer_17_x2F__x3C_Path_x3E__x5F_9" viewBox="0 -31.5 5.3 31.5">
	<g id="Layer_1_17_">
		<linearGradient id="SVGID_2_" gradientUnits="userSpaceOnUse" x1="4.2661" y1="-27.4805" x2="2.5161" y2="-2.3805">
			<stop  offset="0" style="stop-color:#FFFFFF"/>
			<stop  offset="1" style="stop-color:#000000"/>
		</linearGradient>
		<path style="fill-rule:evenodd;clip-rule:evenodd;fill:url(#SVGID_2_);" d="M1.95-0.55c0.2-0.6,0.667-1.483,1.4-2.65
			c0.2-0.3,0.583-0.816,1.15-1.55C5-5.417,5.267-6,5.3-6.5l-0.35-21l-0.4-0.85c-0.333-0.667-0.7-1.233-1.1-1.7
			c-0.6-0.733-1.067-1.217-1.4-1.45c0.333,1.267,0.517,3.333,0.55,6.2c0.066,2.4,0.083,5.767,0.05,10.1c0,4.633-0.05,7.267-0.15,7.9
			C2.433-6.8,2.167-6.017,1.7-4.95c-0.6,1.367-0.967,2.267-1.1,2.7C0.2-1.017,0-0.267,0,0L1.95-0.55z"/>
	</g>
</symbol>
<linearGradient id="SVGID_3_" gradientUnits="userSpaceOnUse" x1="-0.0376" y1="22.9814" x2="24.1374" y2="22.9814">
	<stop  offset="0" style="stop-color:#DE632C"/>
	<stop  offset="1" style="stop-color:#4F200B"/>
</linearGradient>
<path style="fill-rule:evenodd;clip-rule:evenodd;fill:url(#SVGID_3_);" d="M22.3,9.7c0.667,0.733,1.134,1.433,1.4,2.1
	c0.3,0.8,0.45,1.9,0.45,3.3c0,1.267-0.117,4.483-0.351,9.65c-0.2,4.4-0.35,7.25-0.45,8.55c-0.1,1.066-0.566,2.101-1.399,3.101
	c-1.1,1.366-2.717,2.35-4.85,2.949c-1.733,0.467-3.417,0.667-5.05,0.601c-1.633,0.066-3.3-0.134-5-0.601
	C4.917,38.75,3.3,37.767,2.2,36.4c-0.833-1-1.3-2.034-1.4-3.101c-0.066-0.866-0.216-3.717-0.45-8.55C0.117,19.683,0,16.467,0,15.1
	c0-1.4,0.15-2.5,0.45-3.3c0.267-0.667,0.733-1.367,1.4-2.1C3.083,8.367,3.983,7.133,4.55,6l7.5,0.4L19.6,6
	C20,6.967,20.9,8.2,22.3,9.7z"/>
<linearGradient id="SVGID_4_" gradientUnits="userSpaceOnUse" x1="0.6499" y1="22.8242" x2="23.3496" y2="22.8242">
	<stop  offset="0" style="stop-color:#B34312"/>
	<stop  offset="1" style="stop-color:#5E260D"/>
</linearGradient>
<path style="fill-rule:evenodd;clip-rule:evenodd;fill:url(#SVGID_4_);" d="M21.6,9.9c0.634,0.733,1.067,1.417,1.301,2.05
	c0.3,0.8,0.449,1.867,0.449,3.2c0,1.333-0.116,4.45-0.35,9.35c-0.2,4.733-0.35,7.517-0.45,8.35c-0.066,1.034-0.483,2.051-1.25,3.051
	c-1.066,1.333-2.6,2.283-4.6,2.85c-1.367,0.4-2.934,0.6-4.7,0.6c-1.8,0-3.383-0.199-4.75-0.6c-2-0.566-3.517-1.517-4.55-2.85
	c-0.767-0.967-1.2-1.983-1.3-3.051C1.333,31.717,1.2,28.934,1,24.5c-0.233-5-0.35-8.117-0.35-9.35c0-1.333,0.15-2.4,0.45-3.2
	c0.233-0.633,0.667-1.317,1.3-2.05c1.267-1.433,2.1-2.633,2.5-3.6L12,6.7l7.05-0.4C19.483,7.333,20.333,8.533,21.6,9.9z"/>
<use xlink:href="#flash0.ai_x5F_8_x2F_Layer_17_x2F__x3C_Path_x3E__x5F_40"  width="1.72" height="1.712" x="-0.004" y="-1.688" transform="matrix(1 0 0 -1 8.1001 13)" style="overflow:visible;opacity:0.5781;enable-background:new    ;"/>
<use xlink:href="#flash0.ai_x5F_8_x2F_Layer_17_x2F__x3C_Path_x3E__x5F_39"  width="1.609" height="1.204" x="-0.05" y="-1.2" transform="matrix(1 0 0 -1 12.8999 13.7002)" style="overflow:visible;opacity:0.5781;enable-background:new    ;"/>
<use xlink:href="#flash0.ai_x5F_8_x2F_Layer_17_x2F__x3C_Path_x3E__x5F_38"  width="2.65" height="2.665" x="0.056" y="-2.655" transform="matrix(1 0 0 -1 17.5 13.25)" style="overflow:visible;opacity:0.5781;enable-background:new    ;"/>
<use xlink:href="#flash0.ai_x5F_8_x2F_Layer_17_x2F__x3C_Path_x3E__x5F_37"  width="1.884" height="1.373" x="-0.005" y="-1.383" transform="matrix(1 0 0 -1 18.3501 17.2998)" style="overflow:visible;opacity:0.5781;enable-background:new    ;"/>
<use xlink:href="#flash0.ai_x5F_8_x2F_Layer_17_x2F__x3C_Path_x3E__x5F_36"  width="1.531" height="1.159" x="-0.043" y="-1.106" transform="matrix(1 0 0 -1 21.3496 15.7998)" style="overflow:visible;opacity:0.5781;enable-background:new    ;"/>
<use xlink:href="#flash0.ai_x5F_8_x2F_Layer_17_x2F__x3C_Path_x3E__x5F_35"  width="2.67" height="2.615" x="-0.028" y="-2.598" transform="matrix(1 0 0 -1 14.2002 16.25)" style="overflow:visible;opacity:0.5781;enable-background:new    ;"/>
<use xlink:href="#flash0.ai_x5F_8_x2F_Layer_17_x2F__x3C_Path_x3E__x5F_34"  width="3.174" height="2.817" x="-0.028" y="-2.817" transform="matrix(1 0 0 -1 16.3999 32.2998)" style="overflow:visible;opacity:0.5781;enable-background:new    ;"/>
<use xlink:href="#flash0.ai_x5F_8_x2F_Layer_17_x2F__x3C_Path_x3E__x5F_33"  width="2.299" height="2.144" x="-0.006" y="-2.124" transform="matrix(1 0 0 -1 20.3999 32.5996)" style="overflow:visible;opacity:0.5781;enable-background:new    ;"/>
<use xlink:href="#flash0.ai_x5F_8_x2F_Layer_17_x2F__x3C_Path_x3E__x5F_32"  width="3.469" height="1.894" x="-0.071" y="-1.889" transform="matrix(1 0 0 -1 9.7998 35.4502)" style="overflow:visible;opacity:0.5781;enable-background:new    ;"/>
<use xlink:href="#flash0.ai_x5F_8_x2F_Layer_17_x2F__x3C_Path_x3E__x5F_31"  width="3.335" height="1.978" x="-0.043" y="-1.972" transform="matrix(1 0 0 -1 13.3999 36.25)" style="overflow:visible;opacity:0.5781;enable-background:new    ;"/>
<use xlink:href="#flash0.ai_x5F_8_x2F_Layer_17_x2F__x3C_Path_x3E__x5F_30"  width="2.291" height="1.611" x="0.012" y="-1.606" transform="matrix(1 0 0 -1 3.7998 17.4502)" style="overflow:visible;opacity:0.5781;enable-background:new    ;"/>
<use xlink:href="#flash0.ai_x5F_8_x2F_Layer_17_x2F__x3C_Path_x3E__x5F_29"  width="3.001" height="2.024" x="-0.001" y="-2.006" transform="matrix(1 0 0 -1 3.8999 10.2998)" style="overflow:visible;opacity:0.5781;enable-background:new    ;"/>
<use xlink:href="#flash0.ai_x5F_8_x2F_Layer_17_x2F__x3C_Path_x3E__x5F_28"  width="1.951" height="1.243" x="-0.053" y="-1.2" transform="matrix(1 0 0 -1 9.9502 10.3501)" style="overflow:visible;opacity:0.5781;enable-background:new    ;"/>
<use xlink:href="#flash0.ai_x5F_8_x2F_Layer_17_x2F__x3C_Path_x3E__x5F_27"  width="1.698" height="1.705" x="0.006" y="-1.675" transform="matrix(1 0 0 -1 2.6499 33.4502)" style="overflow:visible;opacity:0.5781;enable-background:new    ;"/>
<path style="fill-rule:evenodd;clip-rule:evenodd;fill:#C46033;" d="M5.95,13.75c0.4,0.033,0.617,0.133,0.65,0.3
	c0.033,0.167-0.1,0.284-0.4,0.35c-0.133,0-0.517,0.133-1.15,0.4C4.617,15,4.367,15,4.3,14.8c-0.066-0.267,0.067-0.517,0.4-0.75
	C5.033,13.817,5.45,13.717,5.95,13.75z"/>
<path style="fill-rule:evenodd;clip-rule:evenodd;fill:#C46033;" d="M9.45,11C8.783,10.467,8.9,10.067,9.8,9.8
	c0.333-0.066,0.4,0.15,0.2,0.65S9.617,11.133,9.45,11z"/>
<path style="fill-rule:evenodd;clip-rule:evenodd;fill:#C46033;" d="M14.05,13.5c0.233,0.133,0.167,0.217-0.2,0.25
	c-0.5,0.067-0.8,0.15-0.9,0.25c-0.133,0.2-0.3,0.317-0.5,0.35c-0.167,0.066-0.25,0.017-0.25-0.15c0-0.367,0.15-0.633,0.45-0.8
	c0.133-0.1,0.367-0.133,0.7-0.1C13.65,13.333,13.883,13.4,14.05,13.5z"/>
<path style="fill-rule:evenodd;clip-rule:evenodd;fill:#C46033;" d="M18.3,12.7c0.367,0.167,0.383,0.333,0.05,0.5
	c-0.6,0.333-0.917,0.5-0.95,0.5c-0.3,0.233-0.533,0.216-0.7-0.05c-0.1-0.133,0.05-0.367,0.45-0.7
	C17.55,12.583,17.933,12.5,18.3,12.7z"/>
<path style="fill-rule:evenodd;clip-rule:evenodd;fill:#C46033;" d="M16.15,16c-0.267,0.033-0.75,0.3-1.45,0.8
	c-0.567,0.4-0.883,0.517-0.95,0.35c-0.2-0.333-0.333-0.566-0.4-0.7c-0.067-0.233,0.05-0.4,0.35-0.5
	C14.2,15.817,15.017,15.833,16.15,16z"/>
<path style="fill-rule:evenodd;clip-rule:evenodd;fill:#C46033;" d="M5.95,17.05c0.3,0.2,0.1,0.35-0.6,0.45
	c-0.733,0.1-1.1,0.033-1.1-0.2c0-0.233,0.183-0.383,0.55-0.45C5.2,16.75,5.583,16.817,5.95,17.05z"/>
<path style="fill-rule:evenodd;clip-rule:evenodd;fill:#C46033;" d="M9.9,15.75c0.5,0.133,0.65,0.3,0.45,0.5
	c-0.2,0.233-0.583,0.383-1.15,0.45c-0.534,0.066-0.684-0.117-0.45-0.55C8.983,15.75,9.367,15.617,9.9,15.75z"/>
<path style="fill-rule:evenodd;clip-rule:evenodd;fill:#C46033;" d="M6.3,34.3c0.5,0,0.75,0.167,0.75,0.5
	c0,0.367-0.216,0.584-0.65,0.65C6,35.483,5.8,35.3,5.8,34.9C5.8,34.5,5.967,34.3,6.3,34.3z"/>
<path style="fill-rule:evenodd;clip-rule:evenodd;fill:#C46033;" d="M10.7,34.4c0.8-0.067,1.117,0.133,0.95,0.6L9.7,35.5
	c-0.467,0.1-0.567-0.05-0.3-0.45C9.667,34.65,10.1,34.434,10.7,34.4z"/>
<path style="fill-rule:evenodd;clip-rule:evenodd;fill:#C46033;" d="M15.95,35.05c0.466,0.101,0.5,0.233,0.1,0.4
	c-0.367,0.166-0.733,0.233-1.1,0.2c-0.367-0.067-0.4-0.2-0.1-0.4C15.117,35.05,15.483,34.983,15.95,35.05z"/>
<path style="fill-rule:evenodd;clip-rule:evenodd;fill:#C46033;" d="M18.8,35.7c0.5-0.134,0.733-0.101,0.7,0.1s-0.233,0.4-0.6,0.601
	C18.433,36.6,18.4,36.366,18.8,35.7z"/>
<linearGradient id="SVGID_5_" gradientUnits="userSpaceOnUse" x1="0.7373" y1="26.0352" x2="23.2623" y2="26.0352">
	<stop  offset="0" style="stop-color:#4BCC2B"/>
	<stop  offset="0.1804" style="stop-color:#48C329"/>
	<stop  offset="0.4784" style="stop-color:#3FAA24"/>
	<stop  offset="0.851" style="stop-color:#31821C"/>
	<stop  offset="1" style="stop-color:#2B7018"/>
</linearGradient>
<path style="fill-rule:evenodd;clip-rule:evenodd;fill:url(#SVGID_5_);" d="M23.25,18.4L22.7,30.85c-1.3,0.9-2.684,1.567-4.15,2
	c-2.267,0.634-5.2,0.9-8.8,0.801C6.017,33.517,3.2,32.583,1.3,30.85C1.1,28.017,0.9,23.967,0.7,18.7c1.833,1.2,4.367,1.867,7.6,2
	C15.367,20.967,20.35,20.2,23.25,18.4z"/>
<linearGradient id="SVGID_6_" gradientUnits="userSpaceOnUse" x1="5.5752" y1="25.332" x2="23.2251" y2="25.332">
	<stop  offset="0" style="stop-color:#CCCCCC"/>
	<stop  offset="0.1804" style="stop-color:#C3C3C3"/>
	<stop  offset="0.4784" style="stop-color:#AAAAAA"/>
	<stop  offset="0.851" style="stop-color:#828282"/>
	<stop  offset="1" style="stop-color:#707070"/>
</linearGradient>
<path style="fill-rule:evenodd;clip-rule:evenodd;fill:url(#SVGID_6_);" d="M13.2,17.9c0.933,0.867,1.617,1.75,2.05,2.65
	c3.567-0.333,6.233-1.05,8-2.15L22.7,30.85c-1.3,0.9-2.684,1.567-4.15,2c-2.267,0.634-5.2,0.9-8.8,0.801
	C8.283,33.616,6.967,33.434,5.8,33.1L5.6,20.45l1.1,0.15c0.367-1.434,1.25-2.483,2.65-3.15C10.783,16.717,12.067,16.867,13.2,17.9z"
	/>
<linearGradient id="SVGID_7_" gradientUnits="userSpaceOnUse" x1="16.5498" y1="25.8496" x2="23.25" y2="25.8496">
	<stop  offset="0" style="stop-color:#BD4715"/>
	<stop  offset="1" style="stop-color:#BA4816"/>
</linearGradient>
<path style="fill-rule:evenodd;clip-rule:evenodd;fill:url(#SVGID_7_);" d="M16.55,20.4c3.034-0.367,5.267-1.033,6.7-2L22.7,30.85
	c-1.7,1.2-3.75,2.017-6.15,2.45V20.4z"/>
<linearGradient id="SVGID_8_" gradientUnits="userSpaceOnUse" x1="7.6626" y1="22.9766" x2="14.6376" y2="22.9766">
	<stop  offset="0" style="stop-color:#CCA92B"/>
	<stop  offset="0.1804" style="stop-color:#C3A129"/>
	<stop  offset="0.4784" style="stop-color:#AA8D24"/>
	<stop  offset="0.851" style="stop-color:#826C1C"/>
	<stop  offset="1" style="stop-color:#705D18"/>
</linearGradient>
<path style="fill-rule:evenodd;clip-rule:evenodd;fill:url(#SVGID_8_);" d="M11.05,18.55c1.367,0.133,2.367,0.9,3,2.3
	c0.567,1.233,0.733,2.633,0.5,4.2c-0.2,1.434-1.2,2.217-3,2.351c-1.867,0.1-3.066-0.733-3.6-2.5C7.417,23.167,7.533,21.634,8.3,20.3
	C9,19.067,9.917,18.483,11.05,18.55z"/>
<linearGradient id="SVGID_9_" gradientUnits="userSpaceOnUse" x1="8.1123" y1="23.127" x2="13.2873" y2="23.127">
	<stop  offset="0" style="stop-color:#CC5B2B"/>
	<stop  offset="0.1804" style="stop-color:#C35829"/>
	<stop  offset="0.4784" style="stop-color:#AA5024"/>
	<stop  offset="0.851" style="stop-color:#82431C"/>
	<stop  offset="1" style="stop-color:#703D18"/>
</linearGradient>
<path style="fill-rule:evenodd;clip-rule:evenodd;fill:url(#SVGID_9_);" d="M11,19.45c0.967,0.133,1.667,0.767,2.1,1.899
	c0.4,1.034,0.517,2.2,0.35,3.5c-0.133,1.2-0.833,1.851-2.1,1.95c-1.333,0.101-2.184-0.6-2.55-2.1C8.4,23.267,8.467,22,9,20.9
	C9.533,19.867,10.2,19.383,11,19.45z"/>
<use xlink:href="#flash0.ai_x5F_8_x2F_Layer_17_x2F__x3C_Path_x3E__x5F_10"  width="5.25" height="31.5" y="-31.5" transform="matrix(1 0 0 -1 2.2002 6.2998)" style="overflow:visible;opacity:0.5781;enable-background:new    ;"/>
<use xlink:href="#flash0.ai_x5F_8_x2F_Layer_17_x2F__x3C_Path_x3E__x5F_9"  width="5.3" height="31.5" y="-31.5" transform="matrix(1 0 0 -1 16.8501 6.2998)" style="overflow:visible;opacity:0.2109;enable-background:new    ;"/>
<use xlink:href="#flash0.ai_x5F_8_x2F_Layer_17_x2F__x3C_Path_x3E__x5F_8"  width="16.5" height="3.112" y="-3.112" transform="matrix(1 0 0 -1 4 6)" style="overflow:visible;opacity:0.6719;enable-background:new    ;"/>
<linearGradient id="SVGID_10_" gradientUnits="userSpaceOnUse" x1="3.2998" y1="6.0498" x2="20.7748" y2="6.0498">
	<stop  offset="0" style="stop-color:#C44822"/>
	<stop  offset="1" style="stop-color:#96301A"/>
</linearGradient>
<path style="fill-rule:evenodd;clip-rule:evenodd;fill:url(#SVGID_10_);" d="M20.8,6.05c0,0.567-0.85,1.05-2.55,1.45
	c-1.733,0.4-3.8,0.6-6.2,0.6c-2.4,0-4.466-0.2-6.2-0.6C4.15,7.1,3.3,6.617,3.3,6.05C3.3,5.483,4.15,5,5.85,4.6
	C7.55,4.2,9.617,4,12.05,4c2.4,0,4.467,0.2,6.2,0.6C19.95,5,20.8,5.483,20.8,6.05z"/>
<linearGradient id="SVGID_11_" gradientUnits="userSpaceOnUse" x1="3" y1="5.5498" x2="21.2002" y2="5.5498">
	<stop  offset="0" style="stop-color:#50D92E"/>
	<stop  offset="0.1451" style="stop-color:#4DD02C"/>
	<stop  offset="0.3804" style="stop-color:#44B727"/>
	<stop  offset="0.6784" style="stop-color:#358F1F"/>
	<stop  offset="1" style="stop-color:#235C14"/>
</linearGradient>
<path style="fill-rule:evenodd;clip-rule:evenodd;fill:url(#SVGID_11_);" d="M21.2,5.55c0,0.567-0.883,1.034-2.65,1.4
	c-1.767,0.4-3.917,0.6-6.45,0.6c-2.5,0-4.633-0.2-6.4-0.6C3.9,6.583,3,6.117,3,5.55c0-0.533,0.9-1,2.7-1.4
	c1.767-0.4,3.9-0.6,6.4-0.6c2.533,0,4.683,0.2,6.45,0.6C20.317,4.517,21.2,4.983,21.2,5.55z"/>
<path style="fill-rule:evenodd;clip-rule:evenodd;fill:#0304D6;" d="M20.9,1.8v3.4c-0.033,0.4-0.917,0.75-2.65,1.05
	c-1.7,0.267-3.767,0.4-6.2,0.4c-2.4,0-4.45-0.133-6.15-0.4C4.2,5.95,3.317,5.6,3.25,5.2V1.8H20.9z"/>
<linearGradient id="SVGID_12_" gradientUnits="userSpaceOnUse" x1="3.2124" y1="4.2998" x2="20.8874" y2="4.2998">
	<stop  offset="0" style="stop-color:#4BCC2B"/>
	<stop  offset="0.1804" style="stop-color:#48C329"/>
	<stop  offset="0.4784" style="stop-color:#3FAA24"/>
	<stop  offset="0.851" style="stop-color:#31821C"/>
	<stop  offset="1" style="stop-color:#2B7018"/>
</linearGradient>
<path style="fill-rule:evenodd;clip-rule:evenodd;fill:url(#SVGID_12_);" d="M20.9,5.2c-0.066,0.433-0.95,0.833-2.65,1.2
	c-1.767,0.367-3.833,0.55-6.2,0.55c-2.333,0-4.383-0.184-6.15-0.55C4.2,6.033,3.317,5.633,3.25,5.2V1.65H20.9V5.2z"/>
<linearGradient id="SVGID_13_" gradientUnits="userSpaceOnUse" x1="-19.3994" y1="-2.5806" x2="-3.3813" y2="-2.5806" gradientTransform="matrix(-0.9973 0.0734 -0.0734 -0.9973 4.031509e-005 -3.970489e-004)">
	<stop  offset="0" style="stop-color:#4BCC2B"/>
	<stop  offset="1" style="stop-color:#50CF2D"/>
</linearGradient>
<path style="fill-rule:evenodd;clip-rule:evenodd;fill:url(#SVGID_13_);" d="M20.9,1.7c0,0.466-0.867,0.867-2.6,1.2
	c-1.7,0.333-3.783,0.5-6.25,0.5c-2.433,0-4.5-0.167-6.2-0.5c-1.733-0.333-2.6-0.733-2.6-1.2c0-0.467,0.867-0.867,2.6-1.2
	C7.55,0.167,9.617,0,12.05,0c2.467,0,4.55,0.167,6.25,0.5C20.033,0.833,20.9,1.233,20.9,1.7z"/>
<use xlink:href="#flash0.ai_x5F_8_x2F_Layer_17_x2F__x3C_Path_x3E__x5F_2"  width="9.522" height="1.229" x="-0.022" y="-1.179" transform="matrix(1 0 0 -1 4.2998 6.8501)" style="overflow:visible;opacity:0.4805;enable-background:new    ;"/>
<path style="fill-rule:evenodd;clip-rule:evenodd;fill:#F9E2C9;" d="M4.55,36.35c0.667,0.367,1.083,0.75,1.25,1.15
	c0.133,0.366,0.05,0.55-0.25,0.55c-0.533,0-1.183-0.366-1.95-1.1c-0.367-0.367-0.4-0.617-0.1-0.75C3.8,36.1,4.15,36.15,4.55,36.35z"
	/>
<path style="fill-rule:evenodd;clip-rule:evenodd;fill:#F9E2C9;" d="M7.2,37.7c0.5,0.1,0.633,0.283,0.4,0.55s-0.434,0.333-0.6,0.2
	c-0.167-0.167-0.25-0.334-0.25-0.5C6.717,37.717,6.867,37.634,7.2,37.7z"/>
</svg>
