<?xml version="1.0" encoding="iso-8859-1"?>
<!-- Generator: Adobe Illustrator 15.1.0, SVG Export Plug-In . SVG Version: 6.00 Build 0)  -->
<!DOCTYPE svg PUBLIC "-//W3C//DTD SVG 1.1//EN" "http://www.w3.org/Graphics/SVG/1.1/DTD/svg11.dtd">
<svg version="1.1" id="flash0.ai" xmlns="http://www.w3.org/2000/svg" xmlns:xlink="http://www.w3.org/1999/xlink" x="0px" y="0px"
	 width="64.05px" height="36.2px" viewBox="0 0 64.05 36.2" style="enable-background:new 0 0 64.05 36.2;" xml:space="preserve">
<symbol  id="_x31_" viewBox="0 -30.1 59.889 30.1">
	<g id="Layer_1_2_">
		<path style="fill-rule:evenodd;clip-rule:evenodd;fill:#819D13;" d="M57.8-13.1c0.233,0,0.433-0.133,0.6-0.4
			c0.1-0.167,0.267-0.467,0.5-0.9c0.167-0.233,0.283-0.5,0.35-0.8c0.167-0.5,0.267-0.8,0.3-0.9c0.133-0.4,0.183-0.867,0.15-1.4
			c-0.034-0.6-0.167-1.1-0.4-1.5c-0.2-0.767-0.5-1.4-0.9-1.9c-0.233-0.3-0.467-0.534-0.7-0.7l-0.3-0.15
			c-0.633,0.367-1.283,0.684-1.95,0.95c-4.2,1.767-7.883,3.05-11.05,3.85c-2.167,0.567-5.467,0.817-9.9,0.75
			c-5.567-0.033-8.783-0.017-9.65,0.05c-4.233,0.333-6.917,0.783-8.05,1.35c-0.6,0.3-0.684,0.417-0.25,0.35
			c1.3-0.233,2.217-0.366,2.75-0.4c1.566-0.133,3.55-0.167,5.95-0.1c3,0.067,5.4,0.284,7.2,0.65c1.933,0.433,4.617,0.75,8.05,0.95
			c3.233,0.233,5.417,0.267,6.55,0.1C48.416-13.45,52-13.4,57.8-13.1z"/>
		<path style="fill-rule:evenodd;clip-rule:evenodd;fill:#677F0D;" d="M55.55-18.15l4-0.05l-0.1-0.45l-2,0.25l0.65-0.2
			c0.467-0.133,0.85-0.283,1.15-0.45l-0.2-0.5C56.983-18.617,55.816-18.15,55.55-18.15z"/>
		<path style="fill-rule:evenodd;clip-rule:evenodd;fill:#677F0D;" d="M20.5-14.95l-0.15-0.7c-1.833,0.3-3.017,0.583-3.55,0.85
			c-0.6,0.3-0.684,0.417-0.25,0.35c1.3-0.233,2.217-0.366,2.75-0.4L20.5-14.95z"/>
		<path style="fill-rule:evenodd;clip-rule:evenodd;fill:#677F0D;" d="M54.149-14.45c2.867,0,4.483-0.05,4.85-0.15
			c0.034-0.066,0.217-0.566,0.55-1.5l0.05-0.35l-2.65,0.1c0.4,0.034,0.633,0.1,0.7,0.2c0.033,0.066,0.017,0.167-0.05,0.3
			c-0.066,0.1-0.75,0.2-2.05,0.3c-1.4,0.1-2.917,0.083-4.55-0.05c-0.867-0.066-1.533-0.216-2-0.45c-0.466-0.233-0.9-0.634-1.3-1.2
			c-0.167-0.233-0.367-0.383-0.6-0.45l-0.6,0.2c-0.466,0.4-0.817,0.667-1.05,0.8c-0.3,0.167-0.483,0.35-0.55,0.55
			c-0.066,0.233-0.15,0.45-0.25,0.65c-0.1,0.267-0.283,0.417-0.55,0.45c-0.033,0-0.383-0.017-1.05-0.05
			c-0.4-0.033-0.767-0.15-1.1-0.35c-0.4-0.3-0.733-0.533-1-0.7l-0.4-0.2c-1,0.1-2.033,0.15-3.1,0.15l-0.25,0.4
			c-0.133,0.033-0.167,0.15-0.1,0.35c0.033,0.167,0.117,0.333,0.25,0.5c0.1,0.134,0.033,0.25-0.2,0.35s-0.533,0.133-0.9,0.1
			c-0.833-0.066-2.05-0.316-3.65-0.75c-0.667-0.167-1.033-0.5-1.1-1h-0.6c-0.066,0.6-0.017,0.95,0.15,1.05
			c0.2,0.167,1.066,0.417,2.6,0.75c1.634,0.367,2.9,0.567,3.8,0.6c0.8,0.034,1.35-0.083,1.65-0.35c0.133-0.1,0.2-0.216,0.2-0.35
			c1.633-0.5,2.667-0.517,3.1-0.05c0.267,0.3,0.967,0.417,2.1,0.35c0.633-0.033,1.383-0.1,2.25-0.2c0.3,0,0.317-0.366,0.05-1.1
			c-0.134-0.367-0.283-0.784-0.45-1.25c0.1-0.167,0.217-0.317,0.35-0.45c0.2-0.167,0.367-0.15,0.5,0.05
			c0.466,0.767,0.933,1.367,1.4,1.8c0.267,0.267,0.983,0.5,2.15,0.7C51.85-14.533,52.983-14.45,54.149-14.45z"/>
		<path style="fill-rule:evenodd;clip-rule:evenodd;fill:#677F0D;" d="M53.125-16.7c0.778,0.074,2.053,0.191,3.825,0.35l1-0.2
			c0.767-0.134,1.35-0.284,1.75-0.45c0-0.4-0.034-0.717-0.1-0.95l-1.2,0.6c-0.733,0.367-1.95,0.583-3.65,0.65
			C54.1-16.683,53.558-16.683,53.125-16.7z"/>
		<path style="fill-rule:evenodd;clip-rule:evenodd;fill:#677F0D;" d="M51.8-18.65h0.1l6.95-1.4c0-0.134-0.05-0.25-0.15-0.35
			l-2.35,0.5l1.9-1.15l-0.15-0.2C57-20.417,54.899-19.55,51.8-18.65z"/>
		<polygon style="fill-rule:evenodd;clip-rule:evenodd;fill:#586C08;" points="58.25,-21.05 56.35,-19.9 58.7,-20.4 58.399,-20.9 		
			"/>
		<path style="fill-rule:evenodd;clip-rule:evenodd;fill:#586C08;" d="M59.7-17c-0.4,0.167-0.983,0.316-1.75,0.45l-1,0.2l2.65-0.1
			L59.7-17z"/>
		<path style="fill-rule:evenodd;clip-rule:evenodd;fill:#586C08;" d="M57.8-13.1c0.233,0,0.433-0.133,0.6-0.4
			c0.1-0.167,0.267-0.467,0.5-0.9l0.1-0.2c-0.367,0.1-1.983,0.15-4.85,0.15c-1.167,0-2.3-0.083-3.4-0.25
			c-1.167-0.2-1.883-0.433-2.15-0.7c-0.467-0.434-0.934-1.034-1.4-1.8c-0.133-0.2-0.3-0.216-0.5-0.05
			c-0.133,0.133-0.25,0.283-0.35,0.45c0.167,0.466,0.316,0.883,0.45,1.25c0.267,0.733,0.25,1.1-0.05,1.1
			c-0.867,0.1-1.617,0.167-2.25,0.2c-1.133,0.066-1.833-0.05-2.1-0.35c-0.433-0.466-1.467-0.45-3.1,0.05
			c0,0.133-0.067,0.25-0.2,0.35c-0.3,0.267-0.85,0.384-1.65,0.35c-0.9-0.033-2.167-0.233-3.8-0.6c-1.533-0.333-2.4-0.583-2.6-0.75
			c-0.167-0.1-0.217-0.45-0.15-1.05c-2.633-0.066-4.65-0.033-6.05,0.1c-1.934,0.167-3.434,0.333-4.5,0.5l0.15,0.7
			c5.133-0.167,9.117,0.05,11.95,0.65c1.933,0.433,4.617,0.75,8.05,0.95c3.233,0.233,5.417,0.267,6.55,0.1
			C48.416-13.45,52-13.4,57.8-13.1z"/>
		<path style="fill-rule:evenodd;clip-rule:evenodd;fill:#586C08;" d="M59.25-19.05c-0.3,0.167-0.683,0.316-1.15,0.45l-0.65,0.2
			l2-0.25L59.3-19L59.25-19.05z"/>
		<path style="fill-rule:evenodd;clip-rule:evenodd;fill:#94B614;" d="M47.7-17.9l-0.05,0.2c0.233-0.2,0.583-0.316,1.05-0.35
			c0.239,0,0.556,0,0.95,0c-0.15,0.025-0.35,0.125-0.6,0.3c-0.267,0.233-0.467,0.434-0.6,0.6c0.296,0,1.122-0.025,2.475-0.075
			C50.621-17.204,50.313-17.163,50-17.1c-0.333,0.034-0.466,0.117-0.4,0.25c0.033,0.133,0.2,0.2,0.5,0.2l1.45,0.1
			c0.667,0.133,1.116,0.183,1.35,0.15c-0.477-0.254-0.801-0.371-0.975-0.35l0.325-0.05c0.733,0,1.284-0.034,1.65-0.1
			c0.733-0.067,1.25-0.2,1.55-0.4c0.267-0.2,0.216-0.333-0.15-0.4c-0.7,0.067-1.2,0.067-1.5,0c1-0.4,1.616-0.733,1.85-1
			c-0.833,0.034-1.683,0.034-2.55,0l-1.3,0.05c-0.3,0-0.467-0.017-0.5-0.05c0.233-0.3,0.75-0.566,1.55-0.8l1.95-0.65
			c0.233-0.1,0.616-0.233,1.15-0.4c0.3-0.134,0.45-0.35,0.45-0.65l-0.95,0.4C51.883-19.367,49.3-18.4,47.7-17.9z"/>
		<path style="fill-rule:evenodd;clip-rule:evenodd;fill:#94B614;" d="M35.7-15.4c0.1-0.1,0.15-0.317,0.15-0.65l-0.05-0.1l-3.3-0.05
			c0,0.2,0.017,0.317,0.05,0.35l0.6,0.2c0.2,0.033,0.467,0.083,0.8,0.15l0.7,0.05C35.25-15.35,35.6-15.333,35.7-15.4z"/>
		<path style="fill-rule:evenodd;clip-rule:evenodd;fill:#94B614;" d="M42.95-16.1c-0.333-0.133-0.534-0.267-0.6-0.4v-0.05
			L41.2-16.4l0.4,0.2C42.033-15.967,42.483-15.934,42.95-16.1z"/>
		<path style="fill-rule:evenodd;clip-rule:evenodd;fill:#586C08;" d="M57.899-13.05l0.4-0.25c0.4-0.1,0.717-0.35,0.95-0.75
			c0.067-0.167,0.183-0.567,0.35-1.2c0.3-1,0.367-1.85,0.2-2.55l-0.4-1.25c-0.1-0.233-0.217-0.65-0.35-1.25
			c-0.033-0.1-0.25-0.333-0.65-0.7c-0.433-0.467-0.7-0.717-0.8-0.75c-0.633-0.367-1.066,0.1-1.3,1.4L56-17.9
			c-0.133,1.333-0.05,2.316,0.25,2.95c0.367,0.733,0.567,1.117,0.6,1.15C57.183-13.3,57.533-13.05,57.899-13.05z"/>
		<path style="fill-rule:evenodd;clip-rule:evenodd;fill:#435505;" d="M57.899-14.45l0.4,0.65c0.066-0.3,0.25-0.684,0.55-1.15
			l0.2-1.05c0.066-0.434,0.066-0.85,0-1.25c-0.033-0.5-0.283-1.15-0.75-1.95c-0.4-1.033-0.817-1.45-1.25-1.25
			c-0.1,0.067-0.217,0.317-0.35,0.75c-0.1,0.367-0.15,0.65-0.15,0.85c-0.033,0.5-0.033,1,0,1.5c0,0.133,0.133,0.65,0.4,1.55
			c0.133,0.366,0.25,0.633,0.35,0.8C57.433-14.667,57.633-14.483,57.899-14.45z"/>
		<path style="fill-rule:evenodd;clip-rule:evenodd;fill:#556909;" d="M58-16.45l0.1-0.8c0-1.133-0.233-1.55-0.7-1.25
			c-0.267,0.167-0.283,0.533-0.05,1.1C57.55-16.967,57.767-16.65,58-16.45z"/>
		<path style="fill-rule:evenodd;clip-rule:evenodd;fill:#94B614;" d="M56.649-14l0.7,0.3c-0.367-0.167-0.65-0.583-0.85-1.25
			c-0.067-0.233-0.167-0.767-0.3-1.6c-0.067-0.467-0.067-1.067,0-1.8c0.033-0.4,0.083-1,0.15-1.8c-0.066,0.1-0.217,0.6-0.45,1.5
			c-0.033,0.167-0.1,0.667-0.2,1.5c-0.034,0.533,0,1.083,0.1,1.65c0.066,0.2,0.2,0.45,0.4,0.75
			C56.433-14.383,56.583-14.133,56.649-14z"/>
		<linearGradient id="SVGID_1_" gradientUnits="userSpaceOnUse" x1="17.0625" y1="-22.9316" x2="30.5125" y2="-22.6566">
			<stop  offset="0" style="stop-color:#617220"/>
			<stop  offset="1" style="stop-color:#869D2E"/>
		</linearGradient>
		<path style="fill-rule:evenodd;clip-rule:evenodd;fill:url(#SVGID_1_);" d="M28.7-15.65c0.667,0.167,1.067,0.25,1.2,0.25l0.8-0.05
			l1.45-0.65c0.1-0.066,0.134-0.15,0.1-0.25c0-0.133-0.067-0.216-0.2-0.25l-0.6,0.05c-0.767,0-1.284-0.034-1.55-0.1
			c-1.233-0.367-2.85-1.3-4.85-2.8c-0.867-0.667-1.45-1.133-1.75-1.4c-0.634-0.6-1.083-1.216-1.35-1.85l-0.65-2
			c-0.167-0.966-0.233-1.6-0.2-1.9c0-1.3,0.3-2.466,0.9-3.5l-0.6,0.6l-1,0.75c-0.5,0.333-1.05,0.883-1.65,1.65
			c-0.533,0.7-0.9,1.417-1.1,2.15c-0.233,0.8-0.133,1.8,0.3,3c0.267,0.667,0.8,1.35,1.6,2.05c1.5,1.333,2.483,2.133,2.95,2.4
			c1.267,0.633,2.633,1.133,4.1,1.5L28.7-15.65z"/>
		<path style="fill-rule:evenodd;clip-rule:evenodd;fill:#586C08;" d="M24.75-18.1c1.034,0.767,2.2,1.383,3.5,1.85
			c1.067,0.367,2.017,0.583,2.85,0.65l1.05-0.5c0.1-0.066,0.134-0.15,0.1-0.25c0-0.133-0.067-0.216-0.2-0.25l-0.6,0.05
			c-0.767,0-1.284-0.034-1.55-0.1c-1.233-0.367-2.85-1.3-4.85-2.8c-0.867-0.667-1.45-1.133-1.75-1.4
			c-0.634-0.6-1.083-1.216-1.35-1.85l-0.65-2c-0.167-0.966-0.233-1.6-0.2-1.9c0-1.3,0.3-2.466,0.9-3.5l-0.4,0.4l-1.1,1.95l-0.05,3.4
			c0,0.934,0.417,2,1.25,3.2C22.5-20.017,23.517-19,24.75-18.1z"/>
		<path style="fill-rule:evenodd;clip-rule:evenodd;fill:#586C08;" d="M19.55-19.9l0.3,0.25L19.6-20.3h0.1l-0.1-0.4
			c-0.5-1.767-0.6-3-0.3-3.7c-0.5,1.066-0.567,2.233-0.2,3.5l0.25,0.2l-0.05,0.4l0.2,0.4H19.55z"/>
		<path style="fill-rule:evenodd;clip-rule:evenodd;fill:#586C08;" d="M21.1-20.95l-1.05,0.7L19.7-20.3h-0.1l0.25,0.65l0.1,0.15
			l0.1-0.05c0.133-0.034,0.233-0.117,0.3-0.25C20.816-20.367,21.066-20.75,21.1-20.95z"/>
		<path style="fill-rule:evenodd;clip-rule:evenodd;fill:#586C08;" d="M19.1-20.9c-0.434-0.367-0.717-0.667-0.85-0.9v0.5
			c0.2,0.3,0.55,0.7,1.05,1.2v-0.2l0.05-0.4L19.1-20.9z"/>
		<path style="fill-rule:evenodd;clip-rule:evenodd;fill:#586C08;" d="M22.55-18l-0.9-0.05l0.85,0.55l0.3,0.15
			c0.233-0.133,0.417-0.367,0.55-0.7C22.983-18.017,22.716-18,22.55-18z"/>
		<path style="fill-rule:evenodd;clip-rule:evenodd;fill:#586C08;" d="M26.55-16h0.05l1.05,0.2c0.134-0.134,0.184-0.233,0.15-0.3
			C27.7-16.133,27.283-16.1,26.55-16z"/>
		<path style="fill-rule:evenodd;clip-rule:evenodd;fill:#8CA700;" d="M25.25-17.15L24-17.3l-0.9,0.1c0.667,0.3,1.583,0.634,2.75,1
			l0.3-0.25c0.2-0.2,0.15-0.366-0.15-0.5C25.633-17.05,25.383-17.117,25.25-17.15z"/>
		<path style="fill-rule:evenodd;clip-rule:evenodd;fill:#8CA700;" d="M21.649-19.6c-0.2-0.033-0.55,0.05-1.05,0.25l-0.3,0.15
			l1.25,1.1c0.6-0.066,0.866-0.316,0.8-0.75C22.35-19.15,22.116-19.4,21.649-19.6z"/>
		<path style="fill-rule:evenodd;clip-rule:evenodd;fill:#8CA700;" d="M19.8-20.95l0.25,0.45c0.133,0.066,0.283,0.017,0.45-0.15
			c0.1-0.133,0.133-0.284,0.1-0.45c0-0.1-0.033-0.267-0.1-0.5c-0.067-0.733-0.3-1.3-0.7-1.7c-0.2,0.133-0.267,0.45-0.2,0.95
			L19.8-20.95z"/>
		<path style="fill-rule:evenodd;clip-rule:evenodd;fill:#8CA700;" d="M18.825-22.15c-0.029-0.144-0.071-0.31-0.125-0.5
			c-0.034-0.3,0-0.617,0.1-0.95c0.066-0.333,0.15-0.583,0.25-0.75c0.066-0.133,0.167-0.333,0.3-0.6
			c0.133-0.233,0.184-0.433,0.15-0.6c-0.4,0.133-0.75,0.65-1.05,1.55c-0.1,0.333-0.1,0.684,0,1.05
			C18.631-22.627,18.756-22.361,18.825-22.15z"/>
		<path style="fill-rule:evenodd;clip-rule:evenodd;fill:#D5C337;" d="M18.649-2.9c1.4-1,2.8-2.75,4.2-5.25
			c1.367-2.434,2.083-3.667,2.15-3.7l0.85-0.35c0.667-0.3,1.184-0.633,1.55-1c4-0.566,1.917-2.616-6.25-6.15
			c-3.833-1.633-9.816-1.783-17.95-0.45c-2.534,0.433-3.55,1.066-3.05,1.9c0.434,0.7,1.4,1.25,2.9,1.65
			c0.6,0.167,1.65,0.717,3.15,1.65c1.433,0.967,2.817,1.6,4.15,1.9c1.533,0.333,3.767,0.617,6.7,0.85c-1.367,0.8-2.3,1.534-2.8,2.2
			c-0.333,0.466-0.95,1.517-1.85,3.15c-0.6,1.066-1.15,1.75-1.65,2.05c-2.067,1.267-2.7,2.384-1.9,3.35
			c0.566,0.7,1.883,0.883,3.95,0.55C15-0.883,16.95-1.667,18.649-2.9z"/>
		<path style="fill-rule:evenodd;clip-rule:evenodd;fill:#C0AE1A;" d="M13.3-14.65l-1.45-0.8c-0.767-0.533-1.45-0.966-2.05-1.3
			c-0.9-0.367-1.483-0.684-1.75-0.95c1.167,0.134,2.467,0.534,3.9,1.2c0.8,0.4,2,1.017,3.6,1.85c0.967,0.367,1.5,0.55,1.6,0.55
			l1.7,0.15c0.333,0,0.8,0.083,1.4,0.25l0.4-0.1c-0.967-0.167-2.3-0.567-4-1.2c-1.8-0.667-3.483-1.4-5.05-2.2
			c-1.867-0.966-4.583-1.183-8.15-0.65H4l0.6,0.1h0.05c1.533,0.434,3.25,1.383,5.15,2.85c0.767,0.6,2.033,1.15,3.8,1.65
			c0.934,0.233,1.967,0.5,3.1,0.8c-1.2-0.633-1.833-0.983-1.9-1.05C13.966-14.167,13.466-14.55,13.3-14.65z"/>
		<path style="fill-rule:evenodd;clip-rule:evenodd;fill:#BEB218;" d="M22.35-13.6c0.267-0.233,0.767-0.367,1.5-0.4
			c0.4-0.033,0.917-0.05,1.55-0.05c1.434-0.1,2.35-0.1,2.75,0c-1.066-0.333-3.566-0.25-7.5,0.25l-0.4,0.1l0.3,0.1
			C21.149-13.667,21.75-13.667,22.35-13.6z"/>
		<path style="fill-rule:evenodd;clip-rule:evenodd;fill:#BEB218;" d="M23.399-13c-0.5,0-0.85-0.033-1.05-0.1
			c-0.367,0.133-0.75,0.367-1.15,0.7c-1,0.833-1.683,1.6-2.05,2.3L18.5-8.75c0.733-1.3,1.4-2.184,2-2.65
			c0.534-0.633,1.034-1.034,1.5-1.2L23.399-13z"/>
		<path style="fill-rule:evenodd;clip-rule:evenodd;fill:#C0AE1A;" d="M13.649-5.95L12.8-4.7c-0.233,0.434-0.467,0.717-0.7,0.85
			L13.05-4c0.767-0.2,1.45-0.45,2.05-0.75L14.8-4.7c1.033-1.033,1.733-2.116,2.1-3.25c0.233-0.6,0.4-1.333,0.5-2.2
			c0.167-1.167,0.033-1.767-0.4-1.8l0.1-0.2l-0.15-0.1l-0.5,0.35l0.6,0.05l-0.95,0.6c0.167,0.1,0.167,0.333,0,0.7
			c0.533,0.267,0.65,0.35,0.35,0.25c-0.167-0.034-0.567,0.483-1.2,1.55C14.216-6.95,13.683-6.017,13.649-5.95z"/>
		<path style="fill-rule:evenodd;clip-rule:evenodd;fill:#958600;" d="M14.8-13.5c0.066,0.066,0.7,0.417,1.9,1.05l0.15,0.1l0.1,0.1
			l0.15,0.1l0.15-0.2v-0.05l-0.35-0.75c0.2-0.267,0.567-0.367,1.1-0.3v-0.05l2.55-0.1l-0.3-0.1c-0.6-0.167-1.067-0.25-1.4-0.25
			l-1.7-0.15c-0.1,0-0.633-0.183-1.6-0.55c-1.6-0.833-2.8-1.45-3.6-1.85c-1.433-0.667-2.733-1.066-3.9-1.2
			c0.267,0.267,0.85,0.583,1.75,0.95c0.6,0.333,1.283,0.767,2.05,1.3l1.45,0.8C13.466-14.55,13.966-14.167,14.8-13.5z"/>
		<path style="fill-rule:evenodd;clip-rule:evenodd;fill:#958600;" d="M22.35-13.1l-0.25-0.2c0.033-0.134,0.117-0.233,0.25-0.3
			c-0.6-0.066-1.2-0.066-1.8,0L18-13.5v0.05l0.15,0.05c0.2,0.033,0.467,0.15,0.8,0.35c0.367,0.2,0.6,0.366,0.7,0.5
			c0.134,0.2,0.134,0.383,0,0.55c-0.233,0.233-0.4,0.417-0.5,0.55c-0.1,0.167-0.267,0.534-0.5,1.1
			c-0.167,0.467-0.366,0.784-0.6,0.95c-0.067-0.367-0.167-0.934-0.3-1.7c-0.067-0.233-0.233-0.65-0.5-1.25l-0.15,0.2l-0.1,0.2
			c0.433,0.034,0.567,0.634,0.4,1.8c-0.1,0.867-0.267,1.6-0.5,2.2c-0.366,1.134-1.066,2.217-2.1,3.25l0.3-0.05
			c0.5-0.1,0.917-0.3,1.25-0.6c0.333-0.367,1.05-1.5,2.15-3.4l0.65-1.35c0.367-0.7,1.05-1.466,2.05-2.3
			C21.6-12.733,21.983-12.967,22.35-13.1z"/>
		<path style="fill-rule:evenodd;clip-rule:evenodd;fill:#564D01;" d="M19.649-12.55c-0.1-0.134-0.333-0.3-0.7-0.5
			c-0.333-0.2-0.6-0.317-0.8-0.35L18-13.45c-0.533-0.066-0.9,0.034-1.1,0.3l0.35,0.75v0.05c0.267,0.6,0.433,1.017,0.5,1.25
			c0.133,0.767,0.233,1.333,0.3,1.7c0.233-0.167,0.433-0.483,0.6-0.95c0.233-0.566,0.4-0.933,0.5-1.1
			c0.1-0.133,0.267-0.316,0.5-0.55C19.783-12.167,19.783-12.35,19.649-12.55z"/>
		<path style="fill-rule:evenodd;clip-rule:evenodd;fill:#F5E458;" d="M24.25-14.35l-1.7-0.4c-1.167-0.3-2.217-0.6-3.15-0.9
			c-1.767-0.567-3.267-1.25-4.5-2.05c-1.233-0.8-2.733-1.4-4.5-1.8l-2.25-0.4C8.017-20.1,7.966-20.267,8-20.4H7.8
			c-1.634,0.167-3.167,0.367-4.6,0.6c-2.534,0.433-3.55,1.066-3.05,1.9c0.434,0.7,1.4,1.25,2.9,1.65c0.6,0.167,1.65,0.717,3.15,1.65
			c1.433,0.967,2.817,1.6,4.15,1.9c1.333,0.3,3.066,0.534,5.2,0.7c0.866-0.434,0.5-0.667-1.1-0.7c-1.367-0.066-2.6-0.267-3.7-0.6
			c-1.1-0.367-1.883-0.833-2.35-1.4c-1.433-1.7-2.683-2.716-3.75-3.05H4.6L4-17.85H2.3l2.3-0.55c1.8-0.3,3.267-0.233,4.4,0.2
			c5.167,1.867,8.367,2.967,9.6,3.3c1.2,0.333,2.217,0.517,3.05,0.55C22.216-14.316,23.083-14.316,24.25-14.35z"/>
		<path style="fill-rule:evenodd;clip-rule:evenodd;fill:#FFF25E;" d="M27.2-14.3l-0.1-0.05c-1.7-0.133-3.35-0.367-4.95-0.7
			c0.8,0.3,1.5,0.533,2.1,0.7L27.2-14.3z"/>
		<path style="fill-rule:evenodd;clip-rule:evenodd;fill:#D9C40C;" d="M24.1-14.9c0.434,0.133,1.434,0.316,3,0.55l0.1,0.05l0.95,0.2
			c-0.167-0.2-0.433-0.367-0.8-0.5c-0.467-0.2-0.717-0.35-0.75-0.45c0.167-0.034,0.434-0.067,0.8-0.1
			c-0.467-0.333-1.3-0.567-2.5-0.7c-1.333-0.1-2.233-0.267-2.7-0.5c1.267,0,2.167-0.066,2.7-0.2c-0.566-0.333-1.383-0.667-2.45-1
			c-1.267-0.367-2.1-0.634-2.5-0.8l1.3-0.05c-0.667-0.467-1.183-0.8-1.55-1c-0.233-0.133-0.8-0.367-1.7-0.7l-0.95-0.25
			c-0.367,0.067-0.817,0.1-1.35,0.1c-0.655,0.025-1.072,0.042-1.25,0.05c0.872-0.02,1.822,0.147,2.85,0.5
			c0.633,0.233,1.566,0.6,2.8,1.1c-0.267-0.1-0.5-0.167-0.7-0.2c-0.2-0.067-0.667-0.1-1.4-0.1c-1.009-0.092-1.776-0.108-2.3-0.05
			c0.43-0.034,0.947,0.099,1.55,0.4c0.133,0.033,0.667,0.316,1.6,0.85c0.867,0.467,1.566,0.7,2.1,0.7
			c-0.167,0.066-0.433,0.1-0.8,0.1c-0.4-0.034-0.683-0.05-0.85-0.05L17.95-17c0.466,0.133,1.167,0.367,2.1,0.7
			c0.5,0.1,1.283,0.183,2.35,0.25c1.4,0.1,2.65,0.35,3.75,0.75c-0.267,0.066-0.6,0.083-1,0.05c-0.467-0.033-0.816-0.05-1.05-0.05
			l-1.45,0.125C22.99-15.174,23.473-15.083,24.1-14.9z"/>
		<path style="fill-rule:evenodd;clip-rule:evenodd;fill:#B69726;" d="M27.95-15.3c-0.267-0.333-0.667-0.617-1.2-0.85
			c-0.067-0.034-0.533-0.217-1.4-0.55c-0.2-0.066-0.833-0.417-1.9-1.05c-0.667-0.467-1.167-0.883-1.5-1.25l-0.8-0.35
			c-1.366-0.566-3.183-0.966-5.45-1.2l0.45,0.1l0.9,0.1L18-20.1c0.9,0.333,1.467,0.567,1.7,0.7c0.367,0.2,0.883,0.533,1.55,1
			l-1.3,0.05c0.4,0.167,1.233,0.434,2.5,0.8c1.067,0.333,1.883,0.667,2.45,1c-0.533,0.133-1.433,0.2-2.7,0.2
			c0.466,0.233,1.367,0.4,2.7,0.5c1.2,0.133,2.033,0.367,2.5,0.7c-0.366,0.033-0.633,0.066-0.8,0.1c0.033,0.1,0.283,0.25,0.75,0.45
			c0.367,0.133,0.633,0.3,0.8,0.5l0.05,0.05l0.2,0.05C28.399-14.434,28.25-14.867,27.95-15.3z"/>
		<path style="fill-rule:evenodd;clip-rule:evenodd;fill:#817817;" d="M23.45-17.75c1.067,0.633,1.7,0.983,1.9,1.05
			c0.867,0.333,1.333,0.517,1.4,0.55c0.534,0.233,0.933,0.517,1.2,0.85c0.3,0.433,0.45,0.866,0.45,1.3l0.65,0.25
			c1.066-0.934-1.3-2.684-7.1-5.25C22.283-18.633,22.783-18.217,23.45-17.75z"/>
		<path style="fill-rule:evenodd;clip-rule:evenodd;fill:#F5E458;" d="M13.2-1.7c2.133-0.733,3.45-1.483,3.95-2.25l2.4-3.4l0.15-0.4
			c0.466-1.2,1.7-2.934,3.7-5.2c-0.566,0.034-1.467,0.5-2.7,1.4l-0.2,0.15c-0.6,0.466-1.267,1.35-2,2.65
			c-1.1,1.9-1.817,3.033-2.15,3.4l-0.4,0.4c-0.7,0.667-1.667,1.1-2.9,1.3l-1.6,0.1l0.65-0.3c0.233-0.133,0.467-0.417,0.7-0.85
			c0.433-1.066,0.7-1.667,0.8-1.8s0.333-0.55,0.7-1.25c0.366-0.733,0.85-1.483,1.45-2.25l0.35-0.55c0.167-0.367,0.167-0.6,0-0.7
			c-0.9,0.633-1.517,1.167-1.85,1.6c-0.333,0.466-0.95,1.517-1.85,3.15c-0.6,1.066-1.15,1.75-1.65,2.05
			C9.216-3.517,8.466-2.684,8.5-1.95C9.233-0.95,10.8-0.867,13.2-1.7z"/>
		<path style="fill-rule:evenodd;clip-rule:evenodd;fill:#D9C40C;" d="M21.075-9.6L20.75-9.15L21.075-9.6z M23.5-9.35l0.75-1.35
			l-0.15-0.15l-0.9,0.45c0.533-1.367,1.1-2.167,1.7-2.4c-0.167,0-0.417,0.066-0.75,0.2c-0.3,0.133-0.533,0.184-0.7,0.15
			c-0.567,0.367-1.133,1.017-1.7,1.95l-1.35,1.95c-0.133,0.333-0.2,0.583-0.2,0.75l0.75-0.7l-1.05,2.25
			c-0.366,0.633-0.566,1.083-0.6,1.35c0.3-0.034,0.6-0.184,0.9-0.45c0.167-0.133,0.417-0.333,0.75-0.6
			C20.916-5.717,20.783-5.4,20.55-5l-0.6,0.95c0.966-1,2.033-2.534,3.2-4.6C23.149-8.717,23.267-8.95,23.5-9.35z"/>
		<path style="fill-rule:evenodd;clip-rule:evenodd;fill:#B69726;" d="M23.5-13.05c-0.133,0.2-0.15,0.4-0.05,0.6
			c0.167,0.034,0.4-0.017,0.7-0.15c0.333-0.133,0.583-0.2,0.75-0.2c-0.6,0.233-1.167,1.033-1.7,2.4l0.9-0.45l0.15,0.15
			c0.333-0.7,0.583-1.083,0.75-1.15L25.5-12c0.4-0.167,0.75-0.35,1.05-0.55c-0.167-0.167-0.45-0.317-0.85-0.45
			c-0.367-0.133-0.633-0.2-0.8-0.2L23.5-13.05z"/>
		<path style="fill-rule:evenodd;clip-rule:evenodd;fill:#817400;" d="M24.899-13.2c0.167,0,0.434,0.067,0.8,0.2
			c0.4,0.133,0.683,0.283,0.85,0.45l0.85-0.65c0.833-0.1,1.384-0.283,1.65-0.55L28.399-14l-0.2-0.05h-0.05
			c-0.4-0.1-1.316-0.1-2.75,0c-0.633,0-1.15,0.017-1.55,0.05c-0.733,0.033-1.233,0.167-1.5,0.4c-0.133,0.067-0.217,0.167-0.25,0.3
			l0.25,0.2c0.2,0.067,0.55,0.1,1.05,0.1l0.1-0.05L24.899-13.2z"/>
		<path style="fill-rule:evenodd;clip-rule:evenodd;fill:#FFF395;" d="M24.25-14.35c-0.6-0.167-1.3-0.4-2.1-0.7
			c-2.767-0.934-4.866-1.934-6.3-3c-0.733-0.534-1.7-1.05-2.9-1.55c-1.1-0.433-2.133-0.75-3.1-0.95c-0.434,0-1.05,0.033-1.85,0.1
			v0.05c-0.033,0.133,0.017,0.3,0.15,0.5l2.25,0.4c1.767,0.4,3.267,1,4.5,1.8c1.233,0.8,2.733,1.483,4.5,2.05
			c0.934,0.3,1.983,0.6,3.15,0.9L24.25-14.35z"/>
		<path style="fill-rule:evenodd;clip-rule:evenodd;fill:#FFF395;" d="M17.35-3.15L20.1-8.1l-2.95,4.15
			c-0.5,0.767-1.816,1.517-3.95,2.25c-2.4,0.833-3.967,0.75-4.7-0.25c0,0.3,0.117,0.583,0.35,0.85c0.4,0.5,1.267,0.733,2.6,0.7
			c1.367-0.034,2.783-0.333,4.25-0.9C16.366-1.8,16.916-2.417,17.35-3.15z"/>
		<path style="fill-rule:evenodd;clip-rule:evenodd;fill:#FEEB47;" d="M19.75-3.3c-0.033-0.367-0.233-0.517-0.6-0.45L18.6-3.3
			c-0.1,0-0.184,0.083-0.25,0.25c-0.033,0.167-0.033,0.3,0,0.4c0.066,0.133,0.233,0.2,0.5,0.2c0.2,0.034,0.367,0.017,0.5-0.05
			C19.649-2.633,19.783-2.9,19.75-3.3z"/>
		<path style="fill-rule:evenodd;clip-rule:evenodd;fill:#FEEB47;" d="M19.95-4.8c0,0.033,0,0.183,0,0.45
			c-0.034,0.167,0.033,0.267,0.2,0.3C20.483-3.983,20.767-4.1,21-4.4c0.233-0.4,0.233-0.75,0-1.05
			c-0.333-0.233-0.533-0.216-0.6,0.05L19.95-4.8z"/>
		<path style="fill-rule:evenodd;clip-rule:evenodd;fill:#FEEB47;" d="M18.8-4.55C19-4.383,19.233-4.4,19.5-4.6
			c0.267-0.233,0.367-0.45,0.3-0.65c-0.067-0.233-0.233-0.316-0.5-0.25c-0.233,0.033-0.384,0.15-0.45,0.35L18.8-4.55z"/>
		<path style="fill-rule:evenodd;clip-rule:evenodd;fill:#FEEB47;" d="M20.649-6.35c0.3,0.233,0.6,0.184,0.9-0.15
			c0.267-0.333,0.3-0.633,0.1-0.9c-0.1-0.2-0.383-0.233-0.85-0.1c-0.2,0.1-0.3,0.467-0.3,1.1L20.649-6.35z"/>
		<path style="fill-rule:evenodd;clip-rule:evenodd;fill:#FEEB47;" d="M21.2-8.4h0.9c0.3-0.133,0.4-0.417,0.3-0.85
			c-0.066-0.333-0.316-0.417-0.75-0.25c-0.4,0.133-0.583,0.35-0.55,0.65L21.2-8.4z"/>
		<path style="fill-rule:evenodd;clip-rule:evenodd;fill:#FEEB47;" d="M22.149-7.9c0,0.466,0.083,0.716,0.25,0.75
			c0.2,0.033,0.367-0.083,0.5-0.35c0.134-0.167,0.2-0.367,0.2-0.6c0-0.2-0.017-0.316-0.05-0.35c-0.033-0.033-0.15-0.083-0.35-0.15
			L22.149-7.9z"/>
		<path style="fill-rule:evenodd;clip-rule:evenodd;fill:#FEEB47;" d="M21.399-6.05v0.4c0.233,0.033,0.5-0.184,0.8-0.65
			c0.167-0.233,0.216-0.4,0.15-0.5L22.1-7.05L21.399-6.05z"/>
		<path style="fill-rule:evenodd;clip-rule:evenodd;fill:#FEEB47;" d="M23.5-10c-0.033,0.033-0.05,0.117-0.05,0.25
			c0,0.167,0.033,0.267,0.1,0.3c0.133,0.1,0.217,0.067,0.25-0.1c0.066-0.167,0.05-0.3-0.05-0.4L23.5-10z"/>
		<path style="fill-rule:evenodd;clip-rule:evenodd;fill:#FEEB47;" d="M15.75-1.25c0.4,0.1,0.733,0.083,1-0.05
			c0.1-0.1,0.267-0.233,0.5-0.4c0.1-0.1,0.15-0.233,0.15-0.4c-0.267,0.034-0.5,0.117-0.7,0.25c-0.4,0.267-0.683,0.4-0.85,0.4
			L15.75-1.25z"/>
		<path style="fill-rule:evenodd;clip-rule:evenodd;fill:#FEEB47;" d="M17-3c0.133,0.233,0.4,0.267,0.8,0.1
			c0.267-0.1,0.366-0.35,0.3-0.75c-0.133-0.034-0.267,0-0.4,0.1c-0.167,0.1-0.284,0.15-0.35,0.15L17-3z"/>
		<path style="fill-rule:evenodd;clip-rule:evenodd;fill:#FFF290;" d="M16.5-5.35C16.466-5.15,16.45-5,16.45-4.9
			c0,0.167,0.067,0.3,0.2,0.4c0.333,0.133,0.733-0.083,1.2-0.65c0.267-0.267,0.283-0.517,0.05-0.75C17.833-5.967,17.483-6,16.85-6
			L16.5-5.35z"/>
		<path style="fill-rule:evenodd;clip-rule:evenodd;fill:#FFF290;" d="M13.7-2.7c0.2,0.2,0.483,0.25,0.85,0.15
			c0.4-0.134,0.583-0.35,0.55-0.65c-0.033-0.167-0.184-0.25-0.45-0.25c-0.333,0.034-0.566,0.167-0.7,0.4L13.7-2.7z"/>
		<path style="fill-rule:evenodd;clip-rule:evenodd;fill:#FFF290;" d="M11.35-1.9c0.066,0.133,0.217,0.216,0.45,0.25
			c0.233,0.066,0.417,0.05,0.55-0.05c0.066-0.066,0.1-0.216,0.1-0.45s-0.034-0.383-0.1-0.45c-0.066-0.066-0.2-0.1-0.4-0.1
			c-0.233,0-0.383,0.034-0.45,0.1L11.35-1.9z"/>
		<path style="fill-rule:evenodd;clip-rule:evenodd;fill:#FFF290;" d="M11.2-0.35c0.067,0.167,0.25,0.284,0.55,0.35h0.45
			c0.233-0.1,0.3-0.316,0.2-0.65c-0.1-0.3-0.25-0.5-0.45-0.6L11.2-0.35z"/>
		<path style="fill-rule:evenodd;clip-rule:evenodd;fill:#FFF290;" d="M8.649-1.65c0,0.233,0.167,0.3,0.5,0.2
			c0.333-0.066,0.417-0.267,0.25-0.6C9.3-2.184,9.149-2.267,8.95-2.3C8.75-2.3,8.666-2.2,8.7-2L8.649-1.65z"/>
		<path style="fill-rule:evenodd;clip-rule:evenodd;fill:#FFF290;" d="M9.7-3.5c0.267-0.167,0.267-0.3,0-0.4
			C9.433-4.033,9.216-4.05,9.05-3.95c-0.134,0.067-0.217,0.2-0.25,0.4c-0.067,0.233-0.033,0.383,0.1,0.45L9.7-3.5z"/>
		<path style="fill-rule:evenodd;clip-rule:evenodd;fill:#FFF290;" d="M10.45-3.6c0.133,0.034,0.3,0.083,0.5,0.15
			c0.1,0.034,0.25,0.017,0.45-0.05c0.233-0.066,0.367-0.15,0.4-0.25C11.833-3.917,11.733-4,11.5-4c-0.233,0-0.4,0.05-0.5,0.15
			L10.45-3.6z"/>
		<path style="fill-rule:evenodd;clip-rule:evenodd;fill:#FFF290;" d="M11.55-5.8c0.066,0.433,0.183,0.667,0.35,0.7
			c0.467,0.1,0.7-0.1,0.7-0.6c0.1-0.333,0.066-0.566-0.1-0.7c-0.133-0.067-0.267-0.05-0.4,0.05c-0.167,0.133-0.283,0.217-0.35,0.25
			L11.55-5.8z"/>
		<path style="fill-rule:evenodd;clip-rule:evenodd;fill:#FFF290;" d="M12.45-7.1c0.033,0.167,0.117,0.3,0.25,0.4
			c0.167,0.134,0.317,0.15,0.45,0.05c0.134-0.133,0.15-0.333,0.05-0.6h-0.4L12.45-7.1z"/>
		<path style="fill-rule:evenodd;clip-rule:evenodd;fill:#FFF290;" d="M13.75-9.4c-0.067,0.167-0.067,0.367,0,0.6
			c0.367,0.033,0.683-0.067,0.95-0.3c0.267-0.233,0.383-0.533,0.35-0.9c-0.033-0.3-0.2-0.367-0.5-0.2
			c-0.267,0.134-0.467,0.317-0.6,0.55L13.75-9.4z"/>
		<path style="fill-rule:evenodd;clip-rule:evenodd;fill:#FFF290;" d="M15.35-10.85c-0.033,0.267,0.066,0.367,0.3,0.3
			c0.233-0.034,0.333-0.184,0.3-0.45l-0.75-0.1L15.35-10.85z"/>
		<path style="fill-rule:evenodd;clip-rule:evenodd;fill:#FFF290;" d="M17.8-7.8c-0.134,0.233-0.134,0.4,0,0.5
			c0.167,0.133,0.333,0.1,0.5-0.1c0.233-0.233,0.3-0.583,0.2-1.05c-0.333,0-0.533,0.1-0.6,0.3L17.8-7.8z"/>
		<path style="fill-rule:evenodd;clip-rule:evenodd;fill:#FFF290;" d="M19.05-8.7c0,0.2,0.017,0.35,0.05,0.45
			c0.033,0.167,0.117,0.267,0.25,0.3c0.2,0.067,0.467-0.1,0.8-0.5c0.267-0.4,0.367-0.667,0.3-0.8c-0.2-0.3-0.534-0.217-1,0.25
			L19.05-8.7z"/>
		<path style="fill-rule:evenodd;clip-rule:evenodd;fill:#FFF290;" d="M20.1-10.6c0.434,0.3,0.733,0.25,0.9-0.15
			c0.1-0.2,0.1-0.316,0-0.35c-0.067-0.033-0.233-0.05-0.5-0.05L20.1-10.6z"/>
		<path style="fill-rule:evenodd;clip-rule:evenodd;fill:#FFF290;" d="M8.55-20.4c-0.033-0.034-0.35-0.05-0.95-0.05
			c-0.267,0-0.483,0.017-0.65,0.05c-0.267,0.033-0.433,0.133-0.5,0.3c-0.1,0.267,0,0.45,0.3,0.55c0.2,0.066,0.45,0.083,0.75,0.05
			c0.267-0.033,0.433-0.083,0.5-0.15c0.034-0.067,0.034-0.233,0-0.5L8.55-20.4z"/>
		<path style="fill-rule:evenodd;clip-rule:evenodd;fill:#FFF290;" d="M4.399-19.5c-0.033,0.233,0.15,0.35,0.55,0.35
			c0.367,0,0.583-0.083,0.65-0.25c0.167-0.2,0.15-0.35-0.05-0.45C5.383-19.95,5.183-20,4.95-20L4.399-19.5z"/>
		<path style="fill-rule:evenodd;clip-rule:evenodd;fill:#FFF290;" d="M0-18.25c0,0.333,0.333,0.434,1,0.3
			c0.633-0.1,0.784-0.35,0.45-0.75c-0.133-0.167-0.367-0.233-0.7-0.2c-0.3,0-0.533,0.083-0.7,0.25L0-18.25z"/>
		<path style="fill-rule:evenodd;clip-rule:evenodd;fill:#FFF290;" d="M0.649-19.4c0.1-0.034,0.25,0.017,0.45,0.15
			c0.1,0.033,0.283,0.017,0.55-0.05c0.733,0,1.067-0.15,1-0.45C2.616-19.917,2.383-20,1.95-20c-0.4,0-0.7,0.05-0.9,0.15L0.649-19.4z
			"/>
		<path style="fill-rule:evenodd;clip-rule:evenodd;fill:#FFF290;" d="M2.5-19.05c-0.033,0.2,0.083,0.333,0.35,0.4
			c0.233,0.066,0.434,0.033,0.6-0.1c0.2-0.2,0.2-0.367,0-0.5c-0.167-0.133-0.383-0.2-0.65-0.2L2.5-19.05z"/>
		<path style="fill-rule:evenodd;clip-rule:evenodd;fill:#FFF290;" d="M2.05-17.05c0.066,0.4,0.2,0.667,0.4,0.8
			c0.4,0.233,0.883,0.283,1.45,0.15c0-0.333-0.15-0.583-0.45-0.75c-0.067-0.033-0.367-0.133-0.9-0.3L2.05-17.05z"/>
		<path style="fill-rule:evenodd;clip-rule:evenodd;fill:#FFF290;" d="M5.05-15.6c0.033,0.434,0.267,0.784,0.7,1.05
			c0.534,0.267,0.85,0.316,0.95,0.15c0.133-0.2,0.117-0.45-0.05-0.75L6.3-15.5c-0.434-0.133-0.65-0.217-0.65-0.25L5.05-15.6z"/>
		<path style="fill-rule:evenodd;clip-rule:evenodd;fill:#FFF290;" d="M4.7-16.25c0.267,0.333,0.667,0.417,1.2,0.25
			c0-0.533-0.217-0.867-0.65-1c-0.3-0.1-0.5-0.133-0.6-0.1c-0.066,0.034-0.1,0.217-0.1,0.55L4.7-16.25z"/>
		<path style="fill-rule:evenodd;clip-rule:evenodd;fill:#FFF290;" d="M7.05-14.8c0.467,0.6,0.733,0.733,0.8,0.4
			c0.066-0.2,0.017-0.4-0.15-0.6c-0.2-0.2-0.4-0.2-0.6,0L7.05-14.8z"/>
		<path style="fill-rule:evenodd;clip-rule:evenodd;fill:#FFF290;" d="M8.6-13.65c-0.333,0.1-0.184,0.3,0.45,0.6
			c0.433,0.2,0.833,0.25,1.2,0.15c0.133-0.367-0.067-0.65-0.6-0.85c-0.667-0.167-1.083-0.283-1.25-0.35L8.6-13.65z"/>
		<path style="fill-rule:evenodd;clip-rule:evenodd;fill:#FFF290;" d="M11.149-12.75c0,0.233,0.05,0.417,0.15,0.55
			c0.167,0.134,0.4,0.2,0.7,0.2c0.267,0,0.417-0.1,0.45-0.3c0-0.367-0.317-0.55-0.95-0.55L11.149-12.75z"/>
		<path style="fill-rule:evenodd;clip-rule:evenodd;fill:#FFF290;" d="M12.85-12.55c0.133,0.1,0.333,0.183,0.6,0.25
			c0.3,0.066,0.5,0.05,0.6-0.05c0.033-0.033,0.05-0.117,0.05-0.25c0-0.1-0.033-0.167-0.1-0.2c-0.1-0.134-0.35-0.134-0.75,0
			L12.85-12.55z"/>
		<path style="fill-rule:evenodd;clip-rule:evenodd;fill:#FFF290;" d="M10.399-13.4c0.033,0.133,0.167,0.183,0.4,0.15
			c0.267,0,0.433-0.05,0.5-0.15c0.1-0.2,0.033-0.367-0.2-0.5c-0.267-0.1-0.5-0.117-0.7-0.05V-13.4z"/>
		<path style="fill-rule:evenodd;clip-rule:evenodd;fill:#FFF290;" d="M10.75-18.2c-0.033,0.267,0.15,0.45,0.55,0.55
			c0.3,0.033,0.583,0.017,0.85-0.05c0.1-0.433,0.017-0.716-0.25-0.85c-0.4-0.167-0.767-0.167-1.1,0L10.75-18.2z"/>
		<path style="fill-rule:evenodd;clip-rule:evenodd;fill:#FFF290;" d="M8.05-18.6c-0.033,0.233,0.217,0.383,0.75,0.45
			c0.5,0.1,0.816,0.066,0.95-0.1c0.067-0.1,0.1-0.233,0.1-0.4c-0.033-0.2-0.1-0.317-0.2-0.35c-0.133-0.066-0.533-0.05-1.2,0.05
			L8.05-18.6z"/>
		<path style="fill-rule:evenodd;clip-rule:evenodd;fill:#FFF290;" d="M12.85-18.3c-0.066,0.267,0.1,0.433,0.5,0.5
			c0.4,0.066,0.583-0.05,0.55-0.35c0-0.467-0.366-0.667-1.1-0.6L12.85-18.3z"/>
		<path style="fill-rule:evenodd;clip-rule:evenodd;fill:#FFF290;" d="M12.95-16.8c-0.034,0.167,0.167,0.35,0.6,0.55
			c0.4,0.167,0.683,0.184,0.85,0.05c0.3-0.3-0.033-0.65-1-1.05L12.95-16.8z"/>
		<path style="fill-rule:evenodd;clip-rule:evenodd;fill:#FFF290;" d="M15.399-16.5c0.167,0.434,0.7,0.583,1.6,0.45
			c0-0.267-0.133-0.483-0.4-0.65l-0.65-0.2L15.399-16.5z"/>
		<path style="fill-rule:evenodd;clip-rule:evenodd;fill:#FFF290;" d="M17.8-15.25c-0.033,0.233,0.133,0.434,0.5,0.6
			c0.3,0.133,0.583,0.183,0.85,0.15c0.267-0.066,0.35-0.217,0.25-0.45c-0.1-0.2-0.3-0.35-0.6-0.45c-0.3-0.1-0.567-0.133-0.8-0.1
			L17.8-15.25z"/>
		<path style="fill-rule:evenodd;clip-rule:evenodd;fill:#FFF290;" d="M20-14.85c0,0.133,0.1,0.25,0.3,0.35
			c0.2,0.1,0.366,0.117,0.5,0.05c0.033-0.1-0.067-0.216-0.3-0.35L20-14.85z"/>
		<path style="fill-rule:evenodd;clip-rule:evenodd;fill:#FEEB47;" d="M12.05-20.5c0.267,0.066,0.633,0.25,1.1,0.55
			c0.2,0.067,0.45,0.083,0.75,0.05c0.467,0,0.717-0.017,0.75-0.05c0.067-0.033,0.1-0.15,0.1-0.35c0-0.134-0.017-0.233-0.05-0.3
			c-0.167-0.3-0.617-0.4-1.35-0.3c-0.7,0-1.083,0.083-1.15,0.25L12.05-20.5z"/>
		<path style="fill-rule:evenodd;clip-rule:evenodd;fill:#FEEB47;" d="M15.25-19.6c0.433,0.333,0.8,0.483,1.1,0.45
			c0.333,0,0.533,0,0.6,0c0.233-0.067,0.3-0.217,0.2-0.45c-0.1-0.233-0.583-0.283-1.45-0.15L15.25-19.6z"/>
		<path style="fill-rule:evenodd;clip-rule:evenodd;fill:#FEEB47;" d="M16.399-18.2c0.1,0.167,0.3,0.333,0.6,0.5
			c0.3,0.2,0.534,0.217,0.7,0.05c0.133-0.133,0.083-0.317-0.15-0.55c-0.2-0.267-0.467-0.366-0.8-0.3L16.399-18.2z"/>
		<path style="fill-rule:evenodd;clip-rule:evenodd;fill:#FEEB47;" d="M17.8-18.75c0.1,0.767,0.6,1.05,1.5,0.85
			c0.066-0.434-0.017-0.767-0.25-1c-0.134-0.133-0.317-0.233-0.55-0.3c-0.3-0.066-0.5-0.033-0.6,0.1L17.8-18.75z"/>
		<path style="fill-rule:evenodd;clip-rule:evenodd;fill:#FEEB47;" d="M16.6-20.35c0.333,0,0.833,0.034,1.5,0.1
			c0.033-0.167-0.1-0.316-0.4-0.45c-0.2-0.066-0.417-0.1-0.65-0.1l-0.55,0.05c-0.133,0.1-0.267,0.184-0.4,0.25L16.6-20.35z"/>
		<path style="fill-rule:evenodd;clip-rule:evenodd;fill:#FEEB47;" d="M19.75-16.85c0,0.233,0.233,0.4,0.7,0.5
			c0.433,0.133,0.716,0.117,0.85-0.05c0.4-0.467-0.1-0.684-1.5-0.65L19.75-16.85z"/>
		<path style="fill-rule:evenodd;clip-rule:evenodd;fill:#F5E458;" d="M14.45-5.3c0.133,0.2,0.383,0.216,0.75,0.05
			c0.367-0.2,0.55-0.417,0.55-0.65c0.034-0.567-0.45-0.567-1.45,0L14.45-5.3z"/>
		<path style="fill-rule:evenodd;clip-rule:evenodd;fill:#F5E458;" d="M15.55-7.15c0.167,0.133,0.366,0.216,0.6,0.25
			c0.233,0,0.4-0.1,0.5-0.3c0.1-0.3,0.033-0.483-0.2-0.55c-0.1-0.033-0.333-0.05-0.7-0.05L15.55-7.15z"/>
		<path style="fill-rule:evenodd;clip-rule:evenodd;fill:#F5E458;" d="M14.25-6.8c0.133,0.233,0.333,0.283,0.6,0.15
			c0.033-0.1,0.017-0.25-0.05-0.45h-0.3L14.25-6.8z"/>
		<path style="fill-rule:evenodd;clip-rule:evenodd;fill:#F5E458;" d="M16.649-9.45l0.05,0.4c0.367,0.066,0.6,0.05,0.7-0.05
			c0.134-0.133,0.233-0.417,0.3-0.85c0.033-0.433,0.017-0.716-0.05-0.85c-0.133-0.2-0.333-0.3-0.6-0.3
			c-0.233,0.034-0.384,0.167-0.45,0.4c-0.066,0.333-0.133,0.583-0.2,0.75L16.649-9.45z"/>
		<path style="fill-rule:evenodd;clip-rule:evenodd;fill:#F5E458;" d="M12.95-14.2c0.1,0.3,0.367,0.567,0.8,0.8
			c0.5,0.267,0.817,0.216,0.95-0.15c0.167-0.367,0.017-0.617-0.45-0.75c-0.333-0.1-0.7-0.134-1.1-0.1L12.95-14.2z"/>
		<path style="fill-rule:evenodd;clip-rule:evenodd;fill:#F5E458;" d="M9.45-15.95c0.167,0.267,0.466,0.434,0.9,0.5
			c0.434,0.1,0.633-0.05,0.6-0.45c-0.034-0.333-0.267-0.583-0.7-0.75c-0.367-0.133-0.75-0.167-1.15-0.1L9.45-15.95z"/>
		<path style="fill-rule:evenodd;clip-rule:evenodd;fill:#F5E458;" d="M7.55-16.25c0.2,0.2,0.366,0.2,0.5,0
			c0.133-0.167,0.167-0.35,0.1-0.55c-0.066-0.267-0.267-0.483-0.6-0.65c-0.333-0.133-0.634-0.167-0.9-0.1l0.05,0.8L7.55-16.25z"/>
		<path style="fill-rule:evenodd;clip-rule:evenodd;fill:#F5E458;" d="M11.899-14.45c0.167,0.1,0.333,0.1,0.5,0
			c0.134-0.066,0.167-0.2,0.1-0.4c-0.4,0-0.617,0.034-0.65,0.1L11.899-14.45z"/>
		<path style="fill-rule:evenodd;clip-rule:evenodd;fill:#D9C40C;" d="M19.8-9.3c0.1-0.1,0.3-0.15,0.6-0.15
			c0.033,0.167-0.017,0.384-0.15,0.65c0.267,0.033,0.45-0.117,0.55-0.45c0.133-0.267,0.167-0.517,0.1-0.75
			c-0.667-0.066-1.066,0.133-1.2,0.6L19.8-9.3z"/>
		<path style="fill-rule:evenodd;clip-rule:evenodd;fill:#D9C40C;" d="M20.649-11.15c0.2,0.167,0.317,0.316,0.35,0.45
			c0.067,0.1,0.083,0.233,0.05,0.4C21.017-10.1,21-9.967,21-9.9c0.1,0,0.317-0.133,0.65-0.4c0.367-0.267,0.533-0.45,0.5-0.55
			s-0.217-0.2-0.55-0.3c-0.1-0.067-0.333-0.1-0.7-0.1L20.649-11.15z"/>
		<path style="fill-rule:evenodd;clip-rule:evenodd;fill:#D9C40C;" d="M18.3-8.3l0.05,0.9c0.233-0.133,0.35-0.383,0.35-0.75
			c0-0.233-0.034-0.367-0.1-0.4h-0.45L18.3-8.3z"/>
		<path style="fill-rule:evenodd;clip-rule:evenodd;fill:#D9C40C;" d="M17.45-6.1c0.233,0.1,0.383,0.284,0.45,0.55
			c0.067,0.3,0.017,0.55-0.15,0.75c0.4-0.134,0.6-0.434,0.6-0.9c0-0.566-0.367-0.816-1.1-0.75L17.45-6.1z"/>
		<path style="fill-rule:evenodd;clip-rule:evenodd;fill:#D9C40C;" d="M15.649-3c0.1-0.533-0.15-0.733-0.75-0.6l-0.3,0.3
			c0.3-0.067,0.434,0.05,0.4,0.35c0,0.3-0.067,0.534-0.2,0.7C15.267-2.184,15.55-2.434,15.649-3z"/>
		<path style="fill-rule:evenodd;clip-rule:evenodd;fill:#D9C40C;" d="M12.35-5.55l-0.1,0.6c0.2,0.067,0.4,0.017,0.6-0.15
			c0.167-0.167,0.25-0.35,0.25-0.55c0.1-0.267,0.066-0.483-0.1-0.65c-0.067-0.067-0.167-0.117-0.3-0.15
			c-0.2,0-0.317-0.017-0.35-0.05V-5.55z"/>
		<path style="fill-rule:evenodd;clip-rule:evenodd;fill:#D9C40C;" d="M13.25-6.95l-0.2,0.4c0.267,0.033,0.467-0.05,0.6-0.25
			c0.1-0.267,0.067-0.417-0.1-0.45L13.25-6.95z"/>
		<path style="fill-rule:evenodd;clip-rule:evenodd;fill:#D9C40C;" d="M14.899-10.2v0.6c-0.2,0.233-0.316,0.434-0.35,0.6
			c0.333,0.033,0.583-0.1,0.75-0.4c0.133-0.3,0.083-0.567-0.15-0.8H14.899z"/>
		<path style="fill-rule:evenodd;clip-rule:evenodd;fill:#D9C40C;" d="M15.95-16.75c0.2-0.033,0.4,0.017,0.6,0.15
			c0.167,0.1,0.25,0.2,0.25,0.3c0.033,0.133,0.05,0.267,0.05,0.4c0.2,0.033,0.35-0.034,0.45-0.2c0.1-0.167,0.083-0.316-0.05-0.45
			c-0.1-0.1-0.283-0.184-0.55-0.25c-0.267-0.067-0.467-0.083-0.6-0.05L15.95-16.75z"/>
		<path style="fill-rule:evenodd;clip-rule:evenodd;fill:#D9C40C;" d="M18.35-15.55c0.267,0.066,0.533,0.233,0.8,0.5
			c0.033,0.033,0.083,0.233,0.15,0.6c0.233,0.067,0.35-0.033,0.35-0.3c0-0.233-0.05-0.417-0.15-0.55c-0.233-0.267-0.567-0.4-1-0.4
			L18.35-15.55z"/>
		<path style="fill-rule:evenodd;clip-rule:evenodd;fill:#D9C40C;" d="M20.35-14.85c0.133,0.034,0.333,0.15,0.6,0.35
			c0.033-0.167-0.034-0.283-0.2-0.35l-0.45-0.2L20.35-14.85z"/>
		<path style="fill-rule:evenodd;clip-rule:evenodd;fill:#D9C40C;" d="M13.35-16.9c0.267-0.034,0.5,0.083,0.7,0.35
			c0.066,0.066,0.2,0.216,0.4,0.45c0.133,0,0.2-0.15,0.2-0.45c-0.033-0.3-0.3-0.517-0.8-0.65L13.35-16.9z"/>
		<path style="fill-rule:evenodd;clip-rule:evenodd;fill:#B69726;" d="M19-19c0.133,0.467,0.05,0.85-0.25,1.15
			c0.233,0.167,0.467,0.167,0.7,0c0.133-0.1,0.167-0.267,0.1-0.5c-0.1-0.2-0.217-0.35-0.35-0.45L19-19z"/>
		<path style="fill-rule:evenodd;clip-rule:evenodd;fill:#B69726;" d="M16.95-19.6c-0.067,0.233-0.167,0.367-0.3,0.4
			c0.033,0.067,0.134,0.1,0.3,0.1c0.133,0.034,0.233,0.017,0.3-0.05c0.133-0.034,0.2-0.1,0.2-0.2c0.033-0.2-0.133-0.367-0.5-0.5
			V-19.6z"/>
		<path style="fill-rule:evenodd;clip-rule:evenodd;fill:#B69726;" d="M14.35-20.75c0.2,0.066,0.217,0.2,0.05,0.4
			c-0.2,0.2-0.333,0.333-0.4,0.4c0.167,0.134,0.467,0.15,0.9,0.05c0-0.333-0.116-0.6-0.35-0.8L14.35-20.75z"/>
		<path style="fill-rule:evenodd;clip-rule:evenodd;fill:#B69726;" d="M16.95-18.45c0.3,0.1,0.466,0.2,0.5,0.3
			c0.067,0.1,0.067,0.283,0,0.55c0.033,0.1,0.117,0.133,0.25,0.1c0.1,0,0.183-0.05,0.25-0.15s0.067-0.25,0-0.45
			c-0.034-0.167-0.1-0.3-0.2-0.4L16.95-18.45z"/>
		<path style="fill-rule:evenodd;clip-rule:evenodd;fill:#B69726;" d="M21.05-16.95L21-16.5c-0.033,0.233,0.067,0.3,0.3,0.2v-0.45
			L21.05-16.95z"/>
		<path style="fill-rule:evenodd;clip-rule:evenodd;fill:#B69726;" d="M22.55-9.15c0.033-0.3,0-0.5-0.1-0.6
			c-0.1-0.133-0.317-0.167-0.65-0.1c-0.3,0.067-0.434,0.2-0.4,0.4l-0.05,0.2c0.033-0.066,0.15-0.117,0.35-0.15
			c0.167,0,0.3,0.017,0.4,0.05c0.133,0.067,0.217,0.184,0.25,0.35l0.05,0.4C22.466-8.7,22.517-8.883,22.55-9.15z"/>
		<path style="fill-rule:evenodd;clip-rule:evenodd;fill:#B69726;" d="M23.149-8.35c-0.033-0.133-0.033-0.35,0-0.65
			c-0.1-0.033-0.217,0.017-0.35,0.15c-0.167,0.167-0.267,0.267-0.3,0.3l-0.2,0.2H23.149z"/>
		<path style="fill-rule:evenodd;clip-rule:evenodd;fill:#B69726;" d="M20.85-7.35c0.167-0.033,0.283-0.017,0.35,0.05l0.15,0.25
			c0.233,0.233,0.4,0.25,0.5,0.05c0.066-0.167,0.066-0.367,0-0.6c-0.1-0.233-0.217-0.367-0.35-0.4c-0.4-0.1-0.633-0.017-0.7,0.25
			L20.85-7.35z"/>
		<path style="fill-rule:evenodd;clip-rule:evenodd;fill:#B69726;" d="M21.7-6.4c0.133,0,0.267-0.117,0.4-0.35
			c0.167-0.233,0.217-0.417,0.15-0.55c-0.233-0.034-0.433,0.1-0.6,0.4c-0.2,0.3-0.383,0.483-0.55,0.55L21.7-6.4z"/>
		<path style="fill-rule:evenodd;clip-rule:evenodd;fill:#B69726;" d="M20.1-5.075c0.059-0.14,0.175-0.231,0.35-0.275
			c0.167-0.066,0.433-0.1,0.8-0.1c0-0.066,0.017-0.183,0.05-0.35c0.033-0.167,0.017-0.267-0.05-0.3c-0.2-0.2-0.55-0.05-1.05,0.45
			L20.1-5.075z"/>
		<path style="fill-rule:evenodd;clip-rule:evenodd;fill:#B69726;" d="M19.85-5.35V-5.7c-0.1-0.1-0.233-0.116-0.4-0.05
			s-0.267,0.167-0.3,0.3c0.033,0,0.167,0,0.4,0C19.683-5.45,19.783-5.417,19.85-5.35z"/>
		<linearGradient id="SVGID_2_" gradientUnits="userSpaceOnUse" x1="29.0249" y1="-13.1582" x2="28.8664" y2="-7.9335">
			<stop  offset="0" style="stop-color:#617220"/>
			<stop  offset="1" style="stop-color:#869D2E"/>
		</linearGradient>
		<path style="fill-rule:evenodd;clip-rule:evenodd;fill:url(#SVGID_2_);" d="M30.5-15.2c-0.267-0.167-0.633-0.25-1.1-0.25
			l-1.15,0.1l-1.75,1.2l0.1,1.35c0.033,0.333,0.167,0.8,0.4,1.4c0.233,0.633,0.367,1.1,0.4,1.4l0.1,3.25
			c-0.033,0.267-0.167,0.633-0.4,1.1c-0.233,0.5-0.383,0.883-0.45,1.15c0.3,0,0.733-0.3,1.3-0.9c0.466-0.434,0.85-0.867,1.15-1.3
			c1.233-1.5,1.983-2.917,2.25-4.25C31.816-13.217,31.533-14.633,30.5-15.2z"/>
		<path style="fill-rule:evenodd;clip-rule:evenodd;fill:#586C08;" d="M28.25-11.5c-0.167-1-0.567-2-1.2-3l-0.55,0.35l0.1,1.35
			l0.05,0.2c0.8,0.434,1.45,1.5,1.95,3.2L28.25-11.5z"/>
		<path style="fill-rule:evenodd;clip-rule:evenodd;fill:#586C08;" d="M30.5-15.2c-0.267-0.167-0.633-0.25-1.1-0.25l-1.15,0.1
			l-0.75,0.5l0.65-0.05c1.134-0.067,1.817,0.4,2.05,1.4c0.433,1.467,0.2,3.167-0.7,5.1c-0.433,1-1.033,1.95-1.8,2.85l-1.05,1.05
			c0.3,0,0.733-0.3,1.3-0.9c0.466-0.434,0.85-0.867,1.15-1.3c1.233-1.5,1.983-2.917,2.25-4.25
			C31.816-13.217,31.533-14.633,30.5-15.2z"/>
		
			<linearGradient id="SVGID_3_" gradientUnits="userSpaceOnUse" x1="3238.563" y1="2235.0371" x2="3247.5061" y2="2235.0371" gradientTransform="matrix(0.9421 0.3355 -0.3355 0.9421 -2268.8301 -3210.8403)">
			<stop  offset="0" style="stop-color:#617220"/>
			<stop  offset="1" style="stop-color:#869D2E"/>
		</linearGradient>
		<path style="fill-rule:evenodd;clip-rule:evenodd;fill:url(#SVGID_3_);" d="M37.3-15.8c1.333,0.5,2.366,0.533,3.1,0.1l0.4-0.3
			c-0.167-0.434-0.317-0.75-0.45-0.95c-0.167-0.3-0.5-0.7-1-1.2c-0.367-0.434-0.95-0.767-1.75-1c-0.767-0.167-1.3-0.25-1.6-0.25
			c-0.567-0.034-1.117,0.066-1.65,0.3c-0.6,0.434-1.066,0.733-1.4,0.9c-0.5,0.233-0.767,0.367-0.8,0.4
			c-0.267,0.2-0.417,0.45-0.45,0.75c0.2,0.033,0.55,0.017,1.05-0.05c0.333,0,0.933,0.117,1.8,0.35
			C35.183-16.583,36.1-16.267,37.3-15.8z"/>
		<path style="fill-rule:evenodd;clip-rule:evenodd;fill:#586C08;" d="M38.85-15.85c0.367,0.067,0.633,0.067,0.8,0l0.4,0.3
			l0.35-0.15l0.4-0.3c-0.167-0.434-0.317-0.75-0.45-0.95c-0.167-0.3-0.5-0.7-1-1.2c-0.367-0.434-0.95-0.767-1.75-1
			c-0.767-0.167-1.3-0.25-1.6-0.25c-0.567-0.034-1.117,0.066-1.65,0.3c-0.6,0.434-1.066,0.733-1.4,0.9l-0.2,0.1l1.9-0.6
			c0.733-0.2,1.783-0.033,3.15,0.5c0.133,0.034,0.366,0.25,0.7,0.65c0.367,0.366,0.467,0.7,0.3,1c-0.367-0.1-0.733-0.25-1.1-0.45
			c-0.4-0.267-0.633-0.4-0.7-0.4c-0.6-0.367-1-0.534-1.2-0.5c0.066,0.167,0.25,0.367,0.55,0.6c0.133,0.1,0.333,0.3,0.6,0.6
			c-0.233-0.066-0.417-0.116-0.55-0.15c-0.206-0.038-0.39-0.079-0.55-0.125c0.234,0.094,0.551,0.236,0.95,0.425
			c0.5,0.233,0.917,0.383,1.25,0.45C38.216-16.066,38.483-15.983,38.85-15.85z"/>
		<path style="fill-rule:evenodd;clip-rule:evenodd;fill:#8CA700;" d="M36.899-18.3c-0.1-0.067-0.267-0.134-0.5-0.2
			c-0.267-0.066-0.433-0.066-0.5,0c-0.267,0.2-0.15,0.417,0.35,0.65c0.467,0.167,0.817,0.35,1.05,0.55l0.65,0.05
			C37.783-17.617,37.433-17.967,36.899-18.3z"/>
		<path style="fill-rule:evenodd;clip-rule:evenodd;fill:#8CA700;" d="M35.3-17.25l0.375,0.125
			c-0.119-0.065-0.311-0.257-0.575-0.575c-0.2-0.267-0.55-0.466-1.05-0.6C33.75-17.934,34.166-17.583,35.3-17.25z"/>
		<path style="fill-rule:evenodd;clip-rule:evenodd;fill:#8CA700;" d="M37.3-15.8c0.866,0.3,1.533,0.433,2,0.4l-0.2-0.1
			c-0.1-0.033-0.267-0.05-0.5-0.05c-0.233,0.033-0.4,0.017-0.5-0.05c-0.133-0.233-0.3-0.367-0.5-0.4
			c-0.434,0.1-0.717,0.083-0.85-0.05c-0.033-0.134-0.133-0.25-0.3-0.35l-0.35-0.1c-0.167-0.033-0.283-0.083-0.35-0.15l-0.3-0.25
			c-0.034-0.034-0.367-0.15-1-0.35c-0.067,0.2-0.05,0.35,0.05,0.45l0.05,0.05C35.183-16.583,36.1-16.267,37.3-15.8z"/>
		
			<linearGradient id="SVGID_4_" gradientUnits="userSpaceOnUse" x1="13118.1953" y1="-18562.0293" x2="13123.4688" y2="-18562.0293" gradientTransform="matrix(-0.9437 -0.3308 0.3308 -0.9437 18564.4199 -13186.1416)">
			<stop  offset="0" style="stop-color:#617220"/>
			<stop  offset="1" style="stop-color:#869D2E"/>
		</linearGradient>
		<path style="fill-rule:evenodd;clip-rule:evenodd;fill:url(#SVGID_4_);" d="M41.2-6.6c0.466-0.767,0.85-1.583,1.15-2.45
			c0.6-1.833,0.783-3.35,0.55-4.55c-0.233-1.1-0.917-1.733-2.05-1.9c-1-0.1-1.483,0.117-1.45,0.65l0.2,0.3
			c-0.4,0.167-0.717,0.833-0.95,2c-0.133,0.9-0.183,1.6-0.15,2.1c0.067,0.733,0.383,1.567,0.95,2.5c0.433,0.733,0.7,1.233,0.8,1.5
			c0,0.034,0.034,0.217,0.1,0.55c0.066,0.267,0.133,0.433,0.2,0.5C40.616-5.667,40.833-6.066,41.2-6.6z"/>
		<path style="fill-rule:evenodd;clip-rule:evenodd;fill:#586C08;" d="M41.05-7.3l0.05,0.85l0.1-0.15
			c0.466-0.767,0.85-1.583,1.15-2.45c0.6-1.833,0.783-3.35,0.55-4.55c-0.233-1.1-0.917-1.733-2.05-1.9
			c-0.5-0.1-0.883-0.083-1.15,0.05l0.05,0.2c-0.033,0-0.083,0.083-0.15,0.25c0.5-0.2,0.883-0.233,1.15-0.1
			c0.967,0.4,1.4,1.067,1.3,2l-0.3,2.1c-0.167,0.5-0.267,0.867-0.3,1.1C41.216-8.5,41.083-7.633,41.05-7.3z"/>
		<path style="fill-rule:evenodd;clip-rule:evenodd;fill:#586C08;" d="M39.45-11.25l-0.1-1.25l-0.4-0.1l0.15,0.95
			c0.133,1.033,0.283,1.633,0.45,1.8C39.583-10.017,39.55-10.483,39.45-11.25z"/>
		<path style="fill-rule:evenodd;clip-rule:evenodd;fill:#586C08;" d="M39.25-13.75l0.025,0.025L39.45-13.9l0.1-0.6
			c-0.267,0.2-0.483,0.583-0.65,1.15v0.15L39.25-13.75z M39.274-13.675v-0.05L39.25-13.7L39.274-13.675z"/>
		<path style="fill-rule:evenodd;clip-rule:evenodd;fill:#586C08;" d="M39.6-15c0.066-0.167,0.117-0.25,0.15-0.25l-0.05-0.2
			c-0.2,0.1-0.3,0.3-0.3,0.6l0.15,0.25l0.05-0.1V-15z"/>
		<path style="fill-rule:evenodd;clip-rule:evenodd;fill:#586C08;" d="M38.649-12.65l0.7,0.15c0.233,0.033,0.55,0.117,0.95,0.25
			c0.366,0.133,0.683,0.184,0.95,0.15c-0.667-0.4-1.067-0.667-1.2-0.8l-0.65-0.55l-0.15-0.3L38.75-13L38.649-12.65z"/>
		<path style="fill-rule:evenodd;clip-rule:evenodd;fill:#A1C000;" d="M41.05-13.05c0.233-0.733,0.116-1.267-0.35-1.6
			c-0.4-0.2-0.667-0.267-0.8-0.2c-0.233,0.1-0.35,0.383-0.35,0.85l-0.3,0.3l0.2,0.1c0.2,0.067,0.45,0.2,0.75,0.4
			C40.5-13.066,40.783-13.017,41.05-13.05z"/>
		<linearGradient id="SVGID_5_" gradientUnits="userSpaceOnUse" x1="49.811" y1="-4.6851" x2="51.2331" y2="-17.6854">
			<stop  offset="0" style="stop-color:#617220"/>
			<stop  offset="1" style="stop-color:#869D2E"/>
		</linearGradient>
		<path style="fill-rule:evenodd;clip-rule:evenodd;fill:url(#SVGID_5_);" d="M53.05-13.75c-0.533-1.5-1.067-2.417-1.6-2.75
			c-0.767-0.533-1.483-0.783-2.15-0.75c-0.967,0.033-1.7,0.717-2.2,2.05c-0.167,0.167-0.3,0.434-0.4,0.8
			c-0.133,0.733,0.067,1.566,0.6,2.5c0.4,0.667,1.383,1.767,2.95,3.3c1.4,1.367,2.167,2.367,2.3,3l0.35,1.85L53.7-5
			c0.533-1.133,0.7-2.434,0.5-3.9C53.966-10.667,53.583-12.283,53.05-13.75z"/>
		<path style="fill-rule:evenodd;clip-rule:evenodd;fill:#586C08;" d="M54.2-8.9c-0.233-1.767-0.617-3.383-1.15-4.85
			c-0.533-1.5-1.067-2.417-1.6-2.75c-0.8-0.566-1.55-0.816-2.25-0.75c0.8,0.367,1.817,1.8,3.05,4.3
			c0.933,1.967,1.317,4.083,1.15,6.35l-0.5,2.85L53.7-5C54.233-6.133,54.399-7.434,54.2-8.9z"/>
		<path style="fill-rule:evenodd;clip-rule:evenodd;fill:#586C08;" d="M50-11c-0.9-0.5-1.55-1.033-1.95-1.6l-0.35-0.6l-0.2,0.05
			l-0.4-0.95h0.25c-0.1-0.3-0.117-0.733-0.05-1.3v-0.15l-0.2,0.35c-0.233,0.267-0.367,0.634-0.4,1.1c0.233,0.4,0.55,0.833,0.95,1.3
			h0.1v0.15l0.15,0.15c0.6,0.7,1.283,1.217,2.05,1.55L50-11z"/>
		<path style="fill-rule:evenodd;clip-rule:evenodd;fill:#586C08;" d="M47.5-13.15l0.2-0.05c1.294-0.537,2.153-0.745,2.575-0.625
			c-0.636-0.218-1.228-0.343-1.775-0.375l-1.15,0.1H47.1L47.5-13.15z"/>
		<path style="fill-rule:evenodd;clip-rule:evenodd;fill:#586C08;" d="M50.25-10.8c0.067,0.2,0.534,0.45,1.4,0.75
			c-0.033-0.434-0.517-0.733-1.45-0.9L50.25-10.8z"/>
		<path style="fill-rule:evenodd;clip-rule:evenodd;fill:#586C08;" d="M49.95-10.95l0.25,0.7c0.033,0.4,0.067,0.717,0.1,0.95
			c0.066,0.433,0.183,0.683,0.35,0.75c0.2-0.634,0.067-1.384-0.4-2.25l-0.05-0.15c-0.067-0.033-0.133-0.116-0.2-0.25v0.2
			L49.95-10.95z"/>
		<path style="fill-rule:evenodd;clip-rule:evenodd;fill:#586C08;" d="M47.649-12.8l-0.3-0.1l0.25,1.45l0.55,0.7
			c-0.133-0.867-0.267-1.5-0.4-1.9v-0.15H47.649z"/>
		<path style="fill-rule:evenodd;clip-rule:evenodd;fill:#8CA700;" d="M51.85-10.65c0.167-0.167,0.167-0.434,0-0.8
			c-0.1-0.3-0.25-0.517-0.45-0.65c-0.566-0.466-1.316-0.7-2.25-0.7l-0.55,0.2c0.033,0.267,0.25,0.517,0.65,0.75
			c0.2,0.133,0.5,0.3,0.9,0.5c0.1,0.034,0.367,0.217,0.8,0.55C51.35-10.533,51.649-10.483,51.85-10.65z"/>
		<path style="fill-rule:evenodd;clip-rule:evenodd;fill:#8CA700;" d="M47.8-14.45c0.6,0.233,1.35,0.184,2.25-0.15
			c-0.134-0.733-0.467-1.167-1-1.3c-0.333-0.067-0.65-0.05-0.95,0.05c-0.434,0.1-0.566,0.317-0.4,0.65L47.8-14.45z"/>
		<path style="fill-rule:evenodd;clip-rule:evenodd;fill:#8CA700;" d="M52.7-8.75c-0.133-0.2-0.367-0.417-0.7-0.65
			c-0.433-0.267-0.733-0.35-0.9-0.25c-0.2,0.1-0.2,0.417,0,0.95c0.2,0.5,0.4,0.784,0.6,0.85c0.033-0.1,0.017-0.216-0.05-0.35v-0.75
			c0.467,0.8,0.783,1.217,0.95,1.25C53.2-7.566,53.233-7.917,52.7-8.75z"/>
		<path style="fill-rule:evenodd;clip-rule:evenodd;fill:#8CA700;" d="M49.3-9.85c0-0.5-0.25-0.867-0.75-1.1L48.5-10.6l0.2,0.45
			L49-9.8L49.3-9.85z"/>
	</g>
</symbol>
<use xlink:href="#_x31_"  width="59.889" height="30.1" x="0" y="-30.1" transform="matrix(0.8 0 0 -0.8 8.0498 17.1001)" style="overflow:visible;"/>
</svg>
