<?xml version="1.0" encoding="iso-8859-1"?>
<!-- Generator: Adobe Illustrator 15.1.0, SVG Export Plug-In . SVG Version: 6.00 Build 0)  -->
<!DOCTYPE svg PUBLIC "-//W3C//DTD SVG 1.1//EN" "http://www.w3.org/Graphics/SVG/1.1/DTD/svg11.dtd">
<svg version="1.1" id="flash0.ai" xmlns="http://www.w3.org/2000/svg" xmlns:xlink="http://www.w3.org/1999/xlink" x="0px" y="0px"
	 width="63.35px" height="55.6px" viewBox="0 0 63.35 55.6" style="enable-background:new 0 0 63.35 55.6;" xml:space="preserve">
<symbol  id="flash0.ai_x5F_1_x2F_Layer_18_x2F__x3C_Path_x3E__x5F_39" viewBox="0 -30.417 30.81 30.425">
	<g id="Layer_1_5_">
		<path style="fill-rule:evenodd;clip-rule:evenodd;fill:#E4FF9E;" d="M23.95-19.3c-0.8,1.3-1.5,2.316-2.1,3.05l-0.55,0.7
			c-1.966,2.433-4.167,4.45-6.6,6.05C12.067-8,10.15-6.9,8.95-6.2C8.45-5.9,6.533-5.067,3.2-3.7C1.1-2.833,0.033-2,0-1.2l0.1,0.3
			c0.033,0.3,0.167,0.533,0.4,0.7C0.767-0.033,1.183,0.033,1.75,0l0.1-0.05l1.3-0.2L6.6-1.2c1.8-0.466,4.017-1.617,6.65-3.45
			c2.633-1.833,5.133-3.983,7.5-6.45c2.433-2.6,4.75-5.983,6.95-10.15c0.908-1.733,1.649-3.284,2.225-4.65L29.6-25.05
			c0.733-1.6,1.133-3.034,1.2-4.3c0.067-0.8-0.183-1.15-0.75-1.05c-0.6,0.066-1.117,0.65-1.55,1.75c-0.533,1.367-1,2.5-1.4,3.4
			C26.4-23.683,25.35-21.7,23.95-19.3z"/>
	</g>
</symbol>
<symbol  id="flash0.ai_x5F_1_x2F_Layer_18_x2F__x3C_Path_x3E__x5F_40" viewBox="0 -26.764 34.35 26.764">
	<g id="Layer_1_4_">
		<path style="fill-rule:evenodd;clip-rule:evenodd;" d="M25.1-21.25c-1.3,2.5-2.367,4.333-3.2,5.5c-1.566,2.133-2.833,3.7-3.8,4.7
			c-1.033,1.1-2.533,2.433-4.5,4C12.433-6.117,10.217-5,6.95-3.7C3.717-2.433,1.4-1.2,0,0c0.233-0.1,0.45-0.133,0.65-0.1
			C1.15-0.2,2.267-0.683,4-1.55c0.333-0.167,2.067-0.767,5.2-1.8c2.2-0.7,4.583-2.05,7.15-4.05c3.633-2.8,6.55-6.517,8.75-11.15
			l0.6-1.25c0.466-0.967,0.8-1.767,1-2.4l0.05-0.3c0.967-2.067,1.683-3.033,2.15-2.9c0.3,0.1,0.883,0.5,1.75,1.2
			c0.467,0.167,1.217,0.117,2.25-0.15c0.6-0.167,1.083,0.25,1.45,1.25c-0.3-1.6-1.267-2.717-2.9-3.35
			c-1.6-0.566-2.817-0.367-3.65,0.6C27.167-25.083,26.267-23.55,25.1-21.25z"/>
	</g>
</symbol>
<symbol  id="flash0.ai_x5F_1_x2F_Layer_18_x2F__x3C_Path_x3E__x5F_41" viewBox="-0.003 -31.632 31.928 31.632">
	<g id="Layer_1_3_">
		<path style="fill-rule:evenodd;clip-rule:evenodd;fill:#E4FF9E;" d="M9.15-2.35c2.1-1.1,3.95-2.233,5.55-3.4
			c4.4-3.367,8.283-7.517,11.65-12.45c2.333-3.466,4.083-7.083,5.25-10.85c0.1-0.5,0.2-0.967,0.3-1.4c0.033-0.2,0.033-0.4,0-0.6
			c-0.133-0.534-0.45-0.7-0.95-0.5c-0.534,0.233-0.983,0.833-1.35,1.8l-0.65,1.8l0.55-1.35c-1.5,4.4-3.367,8.2-5.6,11.4
			c-3.633,5.367-8.367,9.733-14.2,13.1C7.767-3.667,5.633-2.917,3.3-2.55c-1.733,0.3-2.8,0.767-3.2,1.4
			c-0.267,0.4-0.017,0.717,0.75,0.95C1.417-0.067,2.083,0,2.85,0C4.517-0.267,6.617-1.05,9.15-2.35z"/>
	</g>
</symbol>
<symbol  id="flash0.ai_x5F_1_x2F_Layer_18_x2F__x3C_Path_x3E__x5F_42" viewBox="-0.001 -31.95 33.851 31.956">
	<g id="Layer_1_2_">
		<path style="fill-rule:evenodd;clip-rule:evenodd;fill:#E9FF57;" d="M31.3-23.95c-2.2,4.167-4.517,7.55-6.95,10.15
			c-2.367,2.466-4.867,4.617-7.5,6.45C14.217-5.517,12-4.367,10.2-3.9C7.5-3.167,5.983-2.783,5.65-2.75
			c-1.333,0.167-2.017-0.2-2.05-1.1C3.567-4.683,4.617-5.533,6.75-6.4c3.467-1.434,5.4-2.267,5.8-2.5c1.2-0.7,3.117-1.8,5.75-3.3
			c2.434-1.6,4.633-3.617,6.6-6.05c1.934-2.4,3.717-5.333,5.35-8.8c0.833-1.733,1.467-3.233,1.9-4.5c-0.633,1.733-1.566,3.7-2.8,5.9
			c-2.4,4.433-4.983,7.867-7.75,10.3c-2.067,1.8-4.65,3.55-7.75,5.25c-2.6,1.434-4.633,2.367-6.1,2.8c-2,0.566-3.15,0.883-3.45,0.95
			c-1.133,0.2-1.933,0-2.4-0.6C1.467-7.517,1.667-8.133,2.5-8.8c0.8-0.6,2.3-1.4,4.5-2.4c1.433-0.667,3.267-1.3,5.5-1.9
			c2.133-0.8,4.483-2.3,7.05-4.5c1.567-1.333,3.15-3.117,4.75-5.35c1.167-1.6,2.15-3.15,2.95-4.65c1-1.833,1.533-3.283,1.6-4.35
			c-0.467,1.5-1.267,3.233-2.4,5.2c-2.2,3.967-4.85,7.167-7.95,9.6c-2.567,2-4.95,3.35-7.15,4.05c-3.033,0.967-4.767,1.567-5.2,1.8
			c-0.933,0.5-2.017,1-3.25,1.5C2.833-9.767,2.7-9.75,2.5-9.75s-0.35,0.033-0.45,0.1C0.65-8.35-0.033-6.967,0-5.5
			c0.033,1.3,0.583,2.483,1.65,3.55c1.067,1,2.3,1.633,3.7,1.9c0.467,0.1,1.1,0.066,1.9-0.1c-0.8,0-1.467-0.067-2-0.2
			c-0.8-0.2-1.067-0.517-0.8-0.95c0.4-0.633,1.466-1.1,3.2-1.4c2.333-0.367,4.467-1.117,6.4-2.25
			c5.833-3.367,10.567-7.733,14.2-13.1c2.233-3.2,4.1-7,5.6-11.4C33.25-27.883,32.4-26.05,31.3-23.95z"/>
	</g>
</symbol>
<linearGradient id="SVGID_1_" gradientUnits="userSpaceOnUse" x1="-49.9209" y1="1.5435" x2="-3.5547" y2="1.5435" gradientTransform="matrix(-1.1134 -1.0324 1.0324 -1.1134 0.0991 0.0507)">
	<stop  offset="0" style="stop-color:#3A7524"/>
	<stop  offset="0.3725" style="stop-color:#3D7624"/>
	<stop  offset="0.6039" style="stop-color:#457A23"/>
	<stop  offset="0.7961" style="stop-color:#548021"/>
	<stop  offset="0.9686" style="stop-color:#68881F"/>
	<stop  offset="1" style="stop-color:#6D8A1E"/>
</linearGradient>
<path style="fill-rule:evenodd;clip-rule:evenodd;fill:url(#SVGID_1_);" d="M18.625,2.859c3.897,1.873,7.364,3.922,10.401,6.149
	c6.681,5.112,12.578,11.414,17.69,18.905c3.847,5.669,6.705,11.818,8.578,18.448c1.013,3.543,0.052,6.2-2.884,7.972
	c-2.886,1.772-5.163,1.695-6.833-0.229c-0.962-1.164-2.329-3.491-4.101-6.983c-1.974-3.797-3.593-6.58-4.858-8.352
	c-2.379-3.239-4.302-5.618-5.77-7.137c-1.569-1.67-3.847-3.695-6.833-6.074c-1.873-1.519-5.416-3.29-10.629-5.314
	c-4.859-1.872-8.25-3.72-10.174-5.542c-3.188-2.986-3.973-6.099-2.353-9.338c1.468-2.885,3.923-4.631,7.364-5.239
	C10.451-0.228,13.918,0.682,18.625,2.859z"/>
<use xlink:href="#flash0.ai_x5F_1_x2F_Layer_18_x2F__x3C_Path_x3E__x5F_42"  width="33.851" height="31.956" x="-0.001" y="-31.95" transform="matrix(1.5184 0 0 -1.5184 0.1001 0.0498)" style="overflow:visible;opacity:0.2813;enable-background:new    ;"/>
<use xlink:href="#flash0.ai_x5F_1_x2F_Layer_18_x2F__x3C_Path_x3E__x5F_41"  width="31.928" height="31.632" x="-0.003" y="-31.632" transform="matrix(1.5184 0 0 -1.5184 6.7002 0.25)" style="overflow:visible;opacity:0.2188;enable-background:new    ;"/>
<use xlink:href="#flash0.ai_x5F_1_x2F_Layer_18_x2F__x3C_Path_x3E__x5F_40"  width="34.35" height="26.764" y="-26.764" transform="matrix(1.5184 0 0 -1.5184 3.3501 14.8501)" style="overflow:visible;opacity:0.1992;enable-background:new    ;"/>
<use xlink:href="#flash0.ai_x5F_1_x2F_Layer_18_x2F__x3C_Path_x3E__x5F_39"  width="30.81" height="30.425" y="-30.417" transform="matrix(1.5184 0 0 -1.5184 5.5498 4.1499)" style="overflow:visible;opacity:0.1406;enable-background:new    ;"/>
<path style="fill-rule:evenodd;clip-rule:evenodd;fill:#A6CF4F;" d="M4.807,5.744c0,0.81-0.278,1.721-0.835,2.733
	C3.415,9.438,2.935,9.97,2.53,10.071c-0.405,0.101-0.785,0.025-1.139-0.228C0.935,9.438,0.708,8.73,0.708,7.717
	c0-1.062,0.279-2.024,0.835-2.885C2.048,4.124,2.58,3.694,3.137,3.542c0.456-0.101,0.861,0.076,1.215,0.531
	C4.655,4.529,4.807,5.086,4.807,5.744z"/>
<path style="fill-rule:evenodd;clip-rule:evenodd;fill:#336315;" d="M16.575,9.919l0.303,0.304c0.304,0.253,0.608,0.354,0.911,0.303
	l0.835-0.076c-0.102,0.658-0.456,0.911-1.063,0.759c-0.354-0.102-0.632-0.354-0.835-0.759L16.575,9.919z"/>
<path style="fill-rule:evenodd;clip-rule:evenodd;fill:#336315;" d="M28.343,15.386l0.152,0.532
	c0.151,0.405,0.405,0.632,0.759,0.683c0.607,0.102,1.012-0.025,1.214-0.38c-0.05,0.659-0.329,1.038-0.834,1.139
	c-0.304,0.051-0.608-0.025-0.911-0.228c-0.254-0.152-0.405-0.379-0.456-0.684L28.343,15.386z"/>
<path style="fill-rule:evenodd;clip-rule:evenodd;fill:#336315;" d="M36.314,23.661c0.058,0.222,0.208,0.374,0.455,0.456
	c0.507,0.253,0.861,0.278,1.063,0.076c-0.254,0.557-0.633,0.734-1.139,0.532c-0.305-0.102-0.431-0.405-0.38-0.911V23.661z"/>
<path style="fill-rule:evenodd;clip-rule:evenodd;fill:#336315;" d="M28.039,22.446c0.202,0.81-0.025,1.164-0.683,1.063
	c-0.354-0.051-0.633-0.177-0.835-0.38l-0.152-0.228l0.759,0.076C27.634,22.978,27.938,22.801,28.039,22.446z"/>
<path style="fill-rule:evenodd;clip-rule:evenodd;fill:#336315;" d="M14.525,15.614l0.152,0.228
	c0.101,0.102,0.278,0.177,0.531,0.228l0.835-0.076c0.152,0.506-0.05,0.709-0.607,0.607c-0.354-0.051-0.607-0.228-0.759-0.532
	L14.525,15.614z"/>
<path style="fill-rule:evenodd;clip-rule:evenodd;fill:#336315;" d="M34.948,29.204l0.075,0.455
	c0.102,0.253,0.253,0.404,0.455,0.455c0.354,0.102,0.634,0.102,0.836,0c0,0.506-0.304,0.658-0.911,0.456
	c-0.354-0.102-0.531-0.354-0.531-0.76L34.948,29.204z"/>
<path style="fill-rule:evenodd;clip-rule:evenodd;fill:#336315;" d="M39.124,31.253l-0.077,0.304
	c-0.05,0.203,0.051,0.38,0.305,0.532c0.294,0.21,0.496,0.286,0.607,0.228c-0.37,0.336-0.699,0.336-0.987,0
	c-0.202-0.203-0.254-0.431-0.152-0.684L39.124,31.253z"/>
<path style="fill-rule:evenodd;clip-rule:evenodd;fill:#336315;" d="M30.468,10.603L31,11.058l0.607,0.152
	c0.05,0.253-0.127,0.303-0.532,0.152c-0.202-0.051-0.379-0.203-0.531-0.456L30.468,10.603z"/>
<path style="fill-rule:evenodd;clip-rule:evenodd;fill:#336315;" d="M44.894,34.669l0.075,0.38c0.102,0.202,0.254,0.329,0.456,0.38
	c0.354,0.051,0.582,0.051,0.683,0c0.052,0.456-0.177,0.607-0.683,0.456c-0.354-0.102-0.557-0.329-0.607-0.684L44.894,34.669z"/>
<path style="fill-rule:evenodd;clip-rule:evenodd;fill:#336315;" d="M43.527,41.807v0.228c0,0.151,0.126,0.329,0.379,0.531
	c0.405,0.304,0.684,0.354,0.835,0.151c-0.253,0.404-0.607,0.432-1.063,0.077c-0.304-0.203-0.405-0.431-0.304-0.684L43.527,41.807z"
	/>
<path style="fill-rule:evenodd;clip-rule:evenodd;fill:#336315;" d="M46.64,49.93v0.228c0.05,0.151,0.127,0.254,0.228,0.305
	c0.254,0.05,0.455-0.051,0.607-0.305c0.102,0.456-0.075,0.659-0.531,0.608c-0.304-0.052-0.43-0.203-0.38-0.457L46.64,49.93z"/>
<path style="fill-rule:evenodd;clip-rule:evenodd;fill:#336315;" d="M52.485,44.235c0,0.152,0.076,0.304,0.229,0.456
	c0.252,0.202,0.506,0.202,0.759,0c-0.052,0.354-0.304,0.431-0.759,0.228c-0.304-0.101-0.405-0.279-0.304-0.531L52.485,44.235z"/>
<path style="fill-rule:evenodd;clip-rule:evenodd;fill:#336315;" d="M44.514,27.609v0.304c0.051,0.202,0.152,0.354,0.304,0.455
	c0.253,0.152,0.531,0.254,0.835,0.304c-0.557,0.102-0.937,0.076-1.139-0.076c-0.152-0.101-0.202-0.303-0.152-0.607L44.514,27.609z"
	/>
<path style="fill-rule:evenodd;clip-rule:evenodd;fill:#336315;" d="M48.081,41.807c-0.05,0.151,0,0.329,0.153,0.531
	c0.304,0.354,0.581,0.481,0.835,0.379c-0.254,0.354-0.557,0.404-0.911,0.152c-0.203-0.203-0.278-0.456-0.228-0.759L48.081,41.807z"
	/>
<path style="fill-rule:evenodd;clip-rule:evenodd;fill:#336315;" d="M40.338,38.922c-0.102-0.152-0.151-0.33-0.151-0.532
	l0.076-0.304l0.303,0.456c0.352,0.25,0.58,0.327,0.684,0.228C40.944,39.072,40.642,39.123,40.338,38.922z"/>
<path style="fill-rule:evenodd;clip-rule:evenodd;fill:#336315;" d="M17.79,20.776l0.607,0.38c0.354,0.102,0.633,0.102,0.835,0
	c-0.102,0.253-0.354,0.354-0.759,0.304c-0.253-0.05-0.43-0.177-0.532-0.379L17.79,20.776z"/>
<path style="fill-rule:evenodd;clip-rule:evenodd;fill:#336315;" d="M21.282,9.464v0.228c0,0.152,0.151,0.278,0.455,0.379
	c0.456,0.203,0.759,0.228,0.912,0.076c-0.405,0.607-0.836,0.709-1.291,0.304c-0.304-0.253-0.405-0.481-0.304-0.684L21.282,9.464z"/>
<path style="fill-rule:evenodd;clip-rule:evenodd;fill:#336315;" d="M11.488,1.644l0.076,0.228c0.102,0.151,0.279,0.253,0.531,0.303
	L12.931,2.1c0.05,0.354-0.203,0.48-0.759,0.38c-0.354-0.05-0.582-0.203-0.684-0.456V1.644z"/>
<path style="fill-rule:evenodd;clip-rule:evenodd;fill:#336315;" d="M10.274,15.538c0.151,0.151,0.328,0.228,0.531,0.228
	c0.354,0,0.532-0.152,0.532-0.456c0.102,0.608-0.076,0.835-0.532,0.684C10.552,15.943,10.375,15.791,10.274,15.538z"/>
<path style="fill-rule:evenodd;clip-rule:evenodd;fill:#70A837;" d="M30.089,15.234c0.455,0.81,0.379,1.114-0.228,0.911
	c-0.659-0.253-0.987-0.557-0.987-0.911c-0.051-0.253,0.126-0.354,0.531-0.304C29.709,14.981,29.937,15.082,30.089,15.234z"/>
<path style="fill-rule:evenodd;clip-rule:evenodd;fill:#91BA4E;" d="M12.931,1.568c0.253,0.354,0.101,0.405-0.456,0.152
	c-0.506-0.253-0.709-0.405-0.607-0.456C12.222,1.113,12.577,1.214,12.931,1.568z"/>
<path style="fill-rule:evenodd;clip-rule:evenodd;fill:#91BA4E;" d="M18.397,9.692c0.102,0.405-0.126,0.506-0.683,0.303
	c-0.253-0.05-0.481-0.151-0.684-0.303c-0.202-0.203-0.253-0.379-0.152-0.532c0.152-0.152,0.405-0.177,0.759-0.076
	C18.043,9.186,18.296,9.388,18.397,9.692z"/>
<path style="fill-rule:evenodd;clip-rule:evenodd;fill:#91BA4E;" d="M22.497,9.54c0.304,0.405,0.203,0.506-0.304,0.304
	c-0.506-0.253-0.733-0.456-0.683-0.608c0.051-0.151,0.177-0.202,0.38-0.151C22.092,9.186,22.294,9.337,22.497,9.54z"/>
<path style="fill-rule:evenodd;clip-rule:evenodd;fill:#70A837;" d="M15.968,15.31c0.303,0.304,0.177,0.456-0.379,0.456
	c-0.506,0-0.811-0.102-0.911-0.304c-0.102-0.202,0.05-0.329,0.455-0.379S15.816,15.107,15.968,15.31z"/>
<path style="fill-rule:evenodd;clip-rule:evenodd;fill:#70A837;" d="M11.033,14.475c0.607,0.405,0.43,0.709-0.532,0.911
	l-0.304-0.304c-0.152-0.101-0.101-0.253,0.152-0.455C10.602,14.424,10.831,14.373,11.033,14.475z"/>
<path style="fill-rule:evenodd;clip-rule:evenodd;fill:#70A837;" d="M18.853,20.7c0.658,0.405,0.405,0.456-0.759,0.152
	c-0.152-0.102-0.102-0.177,0.152-0.229C18.499,20.574,18.701,20.599,18.853,20.7z"/>
<path style="fill-rule:evenodd;clip-rule:evenodd;fill:#70A837;" d="M27.887,22.219c-0.354,0.456-0.683,0.632-0.987,0.532
	c-0.354-0.152-0.405-0.329-0.152-0.532c0.202-0.152,0.481-0.228,0.835-0.228C27.887,21.991,27.988,22.067,27.887,22.219z"/>
<path style="fill-rule:evenodd;clip-rule:evenodd;fill:#70A837;" d="M30.696,10.451c0.152-0.05,0.329-0.025,0.531,0.076
	c0.202,0.152,0.329,0.329,0.38,0.531C31.709,11.261,31.405,11.058,30.696,10.451z"/>
<path style="fill-rule:evenodd;clip-rule:evenodd;fill:#699E33;" d="M37.833,23.661c-0.304,0.202-0.607,0.202-0.911,0
	c-0.304-0.203-0.405-0.405-0.304-0.607c0.102-0.203,0.405-0.203,0.911,0C38.035,23.256,38.136,23.458,37.833,23.661z"/>
<path style="fill-rule:evenodd;clip-rule:evenodd;fill:#699E33;" d="M36.314,29.204c0.253,0.354,0.178,0.53-0.228,0.53
	c-0.354,0-0.658-0.126-0.911-0.38c-0.202-0.252-0.102-0.404,0.303-0.455C35.885,28.85,36.162,28.95,36.314,29.204z"/>
<path style="fill-rule:evenodd;clip-rule:evenodd;fill:#699E33;" d="M39.959,31.633c0.202,0.405,0.126,0.48-0.229,0.229
	c-0.354-0.203-0.531-0.431-0.531-0.684c0-0.203,0.102-0.228,0.304-0.076C39.706,31.202,39.857,31.38,39.959,31.633z"/>
<path style="fill-rule:evenodd;clip-rule:evenodd;fill:#699E33;" d="M45.577,27.836c0.253,0.355,0.228,0.481-0.076,0.379
	c-0.354-0.05-0.582-0.227-0.684-0.531c-0.151-0.253-0.076-0.329,0.228-0.228C45.298,27.559,45.476,27.685,45.577,27.836z"/>
<path style="fill-rule:evenodd;clip-rule:evenodd;fill:#699E33;" d="M45.957,34.594c0.354,0.354,0.354,0.531,0,0.531
	c-0.354,0-0.608-0.126-0.76-0.379c-0.152-0.254-0.102-0.38,0.151-0.38C45.652,34.366,45.855,34.441,45.957,34.594z"/>
<path style="fill-rule:evenodd;clip-rule:evenodd;fill:#699E33;" d="M41.325,38.01c0.202,0.305,0.127,0.431-0.228,0.38
	c-0.354-0.102-0.607-0.253-0.76-0.455c-0.05-0.202,0.076-0.304,0.38-0.304C41.021,37.681,41.225,37.808,41.325,38.01z"/>
<path style="fill-rule:evenodd;clip-rule:evenodd;fill:#699E33;" d="M44.666,41.882c0.202,0.456,0.126,0.633-0.228,0.531
	c-0.305-0.151-0.557-0.379-0.76-0.683c-0.151-0.253-0.051-0.354,0.304-0.304C44.286,41.478,44.514,41.629,44.666,41.882z"/>
<path style="fill-rule:evenodd;clip-rule:evenodd;fill:#699E33;" d="M49.069,41.807c0.203,0.354,0.229,0.557,0.075,0.606
	c-0.201,0.102-0.404,0-0.606-0.303c-0.203-0.254-0.203-0.405,0-0.456C48.79,41.554,48.968,41.604,49.069,41.807z"/>
<path style="fill-rule:evenodd;clip-rule:evenodd;fill:#699E33;" d="M53.245,43.933c0.253,0.405,0.228,0.556-0.076,0.455
	c-0.304-0.05-0.532-0.203-0.684-0.455c-0.05-0.203,0-0.304,0.151-0.304C52.84,43.629,53.042,43.729,53.245,43.933z"/>
<path style="fill-rule:evenodd;clip-rule:evenodd;fill:#699E33;" d="M47.322,49.474c0.304,0.354,0.329,0.583,0.077,0.684
	c-0.254,0.051-0.507-0.024-0.76-0.228c-0.152-0.151-0.101-0.303,0.151-0.456C47.044,49.322,47.222,49.322,47.322,49.474z"/>
</svg>
