<?xml version="1.0" encoding="iso-8859-1"?>
<!-- Generator: Adobe Illustrator 15.1.0, SVG Export Plug-In . SVG Version: 6.00 Build 0)  -->
<!DOCTYPE svg PUBLIC "-//W3C//DTD SVG 1.1//EN" "http://www.w3.org/Graphics/SVG/1.1/DTD/svg11.dtd">
<svg version="1.1" id="flash0.ai" xmlns="http://www.w3.org/2000/svg" xmlns:xlink="http://www.w3.org/1999/xlink" x="0px" y="0px"
	 width="43.2px" height="40.85px" viewBox="0 0 43.2 40.85" style="enable-background:new 0 0 43.2 40.85;" xml:space="preserve">
<symbol  id="flash0.ai_x5F_7_x2F_Layer_2_x2F__x3C_Path_x3E__x5F_63" viewBox="-0.042 -9.65 41.792 9.681">
	<g id="Layer_1_5_">
		<path style="fill-rule:evenodd;clip-rule:evenodd;" d="M40.9-5.45c0.533-0.633,0.817-1.25,0.85-1.85L41.5-7
			c-0.867,1.5-2.367,2.533-4.5,3.1c-0.567,0.167-1.517,0.35-2.85,0.55c-1.433,0.2-2.683,0.434-3.75,0.7
			c-1.2,0.3-2.617,0.417-4.25,0.35c-1.867-0.133-3.367-0.2-4.5-0.2c-3.6,0-6.1-0.05-7.5-0.15c-1-0.033-2.4-0.483-4.2-1.35
			c-1.633-0.8-2.7-1.45-3.2-1.95c-0.233,0.1-0.517,0.133-0.85,0.1C5.267-5.983,4.733-6.5,4.3-7.4C4.2-7.6,3.833-7.95,3.2-8.45
			c-0.6-0.5-0.934-0.9-1-1.2C1.1-9.017,0.367-8.467,0-8c-0.133,0.467,0.05,1.05,0.55,1.75c0.434,0.633,1,1.167,1.7,1.6
			c0.467,0.3,1.467,0.683,3,1.15C6.783-3,7.833-2.583,8.4-2.25c1.833,1.133,4.083,1.75,6.75,1.85c0.633,0.033,2.217,0.083,4.75,0.15
			c2.133,0.067,3.8,0.15,5,0.25c2.133,0.167,4.883-0.333,8.25-1.5c2.9-1.033,4.934-1.867,6.1-2.5
			C39.883-4.333,40.433-4.817,40.9-5.45z"/>
	</g>
</symbol>
<symbol  id="flash0.ai_x5F_7_x2F_Layer_2_x2F__x3C_Path_x3E__x5F_70" viewBox="0 -12.55 12.75 12.55">
	<g id="Layer_1_4_">
		<path style="fill-rule:evenodd;clip-rule:evenodd;fill:#595959;" d="M12.75-12.55c-3.2,1.2-5.917,2.9-8.15,5.1
			C2.333-5.25,0.8-2.767,0,0l0.35-0.1L1.1-0.55c0.533-1.6,1.4-3.233,2.6-4.9C6.033-8.683,9.05-11.05,12.75-12.55z"/>
	</g>
</symbol>
<symbol  id="flash0.ai_x5F_7_x2F_Layer_2_x2F__x3C_Path_x3E__x5F_71" viewBox="0 -13.05 17.2 13.05">
	<g id="Layer_1_3_">
		<path style="fill-rule:evenodd;clip-rule:evenodd;fill:#595959;" d="M10.15-1.5c3,0.4,5.35,0.9,7.05,1.5
			c-0.3-0.933-0.767-1.917-1.4-2.95C14.533-4.917,12.6-6.9,10-8.9c-2-1.5-4.55-2.767-7.65-3.8L0-13.05c4,1.433,6.833,3.517,8.5,6.25
			c0.767,1.2,1.25,2.333,1.45,3.4C10.083-2.833,10.15-2.2,10.15-1.5z"/>
	</g>
</symbol>
<symbol  id="flash0.ai_x5F_7_x2F_Layer_2_x2F__x3C_Path_x3E__x5F_72" viewBox="0 -12.7 24.3 12.7">
	<g id="Layer_1_2_">
		
			<linearGradient id="SVGID_1_" gradientUnits="userSpaceOnUse" x1="-22.4609" y1="-32.3843" x2="-6.7609" y2="-32.3843" gradientTransform="matrix(1 -0.0032 0.0032 1 26.0635 25.9814)">
			<stop  offset="0" style="stop-color:#FFFFFF"/>
			<stop  offset="1" style="stop-color:#000000"/>
		</linearGradient>
		<path style="fill-rule:evenodd;clip-rule:evenodd;fill:url(#SVGID_1_);" d="M24.3-1.75L21.1-12.6l-2.35-0.1
			c-0.933,0-1.85,0.05-2.75,0.15c-1.1,0.167-2.35,0.5-3.75,1c-1.433,0.533-2.633,1.117-3.6,1.75c-3.066,2-5.433,4.233-7.1,6.7
			C0.717-1.867,0.2-0.833,0,0l2.65-0.55c4.567-0.867,10-1.3,16.3-1.3L24.3-1.75z"/>
	</g>
</symbol>
<symbol  id="halfbowl" viewBox="-0.062 -25.76 47.024 26.01">
	<g>
		<defs>
			<path id="SVGID_2_" d="M46.65-7.35c-0.7,1.367-1.583,2.467-2.65,3.3c-1.233,1.066-2.667,1.8-4.3,2.2C39-1.65,38.3-1.5,37.6-1.4
				c-1.367,0.4-2.817,0.717-4.35,0.95c-1.6,0.3-3.133,0.517-4.6,0.65c-0.267,0.033-0.517,0.05-0.75,0.05h-5.2
				c-1.1-0.167-2.233-0.267-3.4-0.3c-1.633-0.167-3.216-0.35-4.75-0.55c-1.367-0.133-2.767-0.383-4.2-0.75
				C9.117-1.617,7.867-1.967,6.6-2.4C5.467-2.8,4.417-3.35,3.45-4.05c-1.167-0.733-2.133-1.6-2.9-2.6
				C0.083-7.283-0.117-8.033-0.05-8.9c0.033-0.767,0.216-1.583,0.55-2.45c0.533-1.333,1.217-2.6,2.05-3.8c0.934-1.3,2-2.5,3.2-3.6
				C6.883-19.817,8.2-20.7,9.7-21.4c0.469-0.232,1.178-0.349,2.125-0.35c0.94-0.003,1.699-0.22,2.275-0.65
				c0.577-0.428,1.277-0.744,2.1-0.95c0.828-0.207,1.877-0.157,3.15,0.15c1.27,0.299,2.228,0.258,2.875-0.125
				c0.643-0.371,1.102-0.596,1.375-0.675c0.275-0.073,0.642-0.098,1.1-0.075c0.463,0.018,0.913,0.176,1.35,0.475
				c0.434,0.302,1.001,0.327,1.7,0.075c0.694-0.249,2.069,0.026,4.125,0.825c2.053,0.798,3.461,1.198,4.225,1.2
				c0.772,0.001,1.764,0.46,2.975,1.375c1.208,0.917,2.324,1.925,3.35,3.025c1.02,1.1,1.928,2.283,2.725,3.55
				c0.867,1.333,1.45,2.8,1.75,4.4C47.033-8.55,46.95-7.95,46.65-7.35z"/>
		</defs>
		<clipPath id="SVGID_3_">
			<use xlink:href="#SVGID_2_"  style="overflow:visible;"/>
		</clipPath>
		<g id="Layer_1_6_" style="clip-path:url(#SVGID_3_);">
			<g>
				<path style="fill-rule:evenodd;clip-rule:evenodd;fill:#D9D9D9;" d="M46.05-10.65l0.2,0.05c-1.3-4.133-4.05-7.517-8.25-10.15
					c-4.3-2.7-9.2-4.05-14.7-4.05c-5.533,0-10.45,1.367-14.75,4.1c-4.267,2.7-7,6.133-8.2,10.3l0.35-0.1c1.3-1,4.05-1.833,8.25-2.5
					c4.233-0.633,9.083-0.95,14.55-0.95c5.3,0,10.033,0.317,14.2,0.95C41.833-12.4,44.617-11.617,46.05-10.65z"/>
				
					<use xlink:href="#flash0.ai_x5F_7_x2F_Layer_2_x2F__x3C_Path_x3E__x5F_72"  width="24.3" height="12.7" y="-12.7" transform="matrix(1 0 0 1 4.5498 -12.1001)" style="overflow:visible;opacity:0.7188;enable-background:new    ;"/>
				
					<use xlink:href="#flash0.ai_x5F_7_x2F_Layer_2_x2F__x3C_Path_x3E__x5F_71"  width="17.2" height="13.05" y="-13.05" transform="matrix(1 0 0 1 27.0498 -11.5)" style="overflow:visible;opacity:0.1602;enable-background:new    ;"/>
				
					<use xlink:href="#flash0.ai_x5F_7_x2F_Layer_2_x2F__x3C_Path_x3E__x5F_70"  width="12.75" height="12.55" y="-12.55" transform="matrix(1 0 0 1 0.3501 -10.3999)" style="overflow:visible;opacity:0.3203;enable-background:new    ;"/>
				<linearGradient id="SVGID_4_" gradientUnits="userSpaceOnUse" x1="0.7998" y1="-8.6001" x2="46.0498" y2="-8.6001">
					<stop  offset="0" style="stop-color:#7D7D7D"/>
					<stop  offset="1" style="stop-color:#D4D4D4"/>
				</linearGradient>
				<path style="fill-rule:evenodd;clip-rule:evenodd;fill:url(#SVGID_4_);" d="M39.4-2.6c4.434-1.667,6.65-3.667,6.65-6
					c0-2.367-2.216-4.367-6.65-6c-4.4-1.667-9.733-2.5-16-2.5c-6.233,0-11.566,0.833-16,2.5c-4.4,1.633-6.6,3.633-6.6,6
					c0,2.333,2.2,4.333,6.6,6c4.434,1.667,9.767,2.5,16,2.5S34.967-0.933,39.4-2.6z"/>
				<path style="fill-rule:evenodd;clip-rule:evenodd;fill:#F5F5F5;" d="M46.7-8h-1.45c-0.3,2.067-2.55,3.817-6.75,5.25
					c-4.167,1.433-9.167,2.15-15,2.15c-5.8,0-10.783-0.717-14.95-2.15C4.35-4.183,2.1-5.933,1.8-8H0.1
					c0.533,2.267,3.017,4.167,7.45,5.7C12.05-0.767,17.333,0,23.4,0c6.1,0,11.383-0.767,15.85-2.3C43.683-3.833,46.167-5.733,46.7-8
					z"/>
				<linearGradient id="SVGID_5_" gradientUnits="userSpaceOnUse" x1="2.6079" y1="-9.9761" x2="44.3829" y2="-9.9761">
					<stop  offset="0" style="stop-color:#A67C3C"/>
					<stop  offset="1" style="stop-color:#85612D"/>
				</linearGradient>
				<path style="fill-rule:evenodd;clip-rule:evenodd;fill:url(#SVGID_5_);" d="M43.3-12.1c-2.033-1.167-3.867-2.083-5.5-2.75
					c-3-1.3-5.917-1.967-8.75-2c-8.633-0.2-15.216,0.5-19.75,2.1C7.1-13.95,5.333-13.1,4-12.2l-1.35,1.1
					C2.517-10.633,2.7-10.05,3.2-9.35c0.433,0.633,1,1.167,1.7,1.6c0.467,0.3,1.467,0.683,3,1.15c1.533,0.5,2.583,0.917,3.15,1.25
					c1.833,1.133,4.083,1.75,6.75,1.85c0.633,0.033,2.217,0.083,4.75,0.15c2.133,0.067,3.8,0.15,5,0.25
					c2.133,0.167,4.883-0.333,8.25-1.5c2.9-1.033,4.934-1.867,6.1-2.5c1.1-0.566,1.867-1.383,2.3-2.45
					C44.7-10.75,44.4-11.6,43.3-12.1z"/>
				<path style="fill-rule:evenodd;clip-rule:evenodd;fill:#B5964A;" d="M9.85-9.35c0.2-0.167,0.283-0.4,0.25-0.7
					c-0.033-0.3-0.167-0.517-0.4-0.65c-0.167-0.066-0.483-0.066-0.95,0c-0.6,0.133-1.05,0.2-1.35,0.2c-0.967,0-1.183,0.4-0.65,1.2
					C7.017-8.933,7.467-8.75,8.1-8.75C8.767-8.75,9.35-8.95,9.85-9.35z"/>
				<path style="fill-rule:evenodd;clip-rule:evenodd;fill:#664220;" d="M11.65-8.15c-0.2-0.1-0.5-0.067-0.9,0.1l-1,0.55L10-7.1
					c0.2,0.267,0.417,0.367,0.65,0.3l1.95-0.6C12.667-7.4,12.35-7.65,11.65-8.15z"/>
				<path style="fill-rule:evenodd;clip-rule:evenodd;fill:#E6C77A;" d="M7.2-10.85c-0.333-0.133-0.717-0.133-1.15,0
					c-0.3,0.067-0.4,0.2-0.3,0.4L6-10.15l0.15-0.35C6.283-10.733,6.633-10.85,7.2-10.85z"/>
				
					<use xlink:href="#flash0.ai_x5F_7_x2F_Layer_2_x2F__x3C_Path_x3E__x5F_63"  width="41.792" height="9.681" x="-0.042" y="-9.65" transform="matrix(1 0 0 1 2.6499 -3.1001)" style="overflow:visible;opacity:0.2891;enable-background:new    ;"/>
				<path style="fill-rule:evenodd;clip-rule:evenodd;fill:#664220;" d="M17.95-6.85c-0.6,0.6-1.067,1.267-1.4,2
					c-0.2,0.434-0.367,0.917-0.5,1.45l-0.1,0.7l1.65-0.1c0.5,0,1.15-0.133,1.95-0.4l0.55-1.35c0.133-0.333,0.383-0.667,0.75-1
					L17.95-6.85z"/>
				<path style="fill-rule:evenodd;clip-rule:evenodd;fill:#57381B;" d="M16.85-5.1l1.2-0.5l2.8,0.05l-0.9-1.25L19.8-7.2
					c-0.633-0.433-1.283-0.716-1.95-0.85l-2.4-0.5L15.7-6.2L16.85-5.1z"/>
				<path style="fill-rule:evenodd;clip-rule:evenodd;fill:#805328;" d="M16.7-3.3l1.1-1.4c0.167-0.267,0.25-0.566,0.25-0.9
					c-0.5-0.133-0.9-0.383-1.2-0.75c-0.133-0.2-0.267-0.5-0.4-0.9c-0.1-0.333-0.217-0.567-0.35-0.7l-0.65-0.6
					c-0.9,1.066-1.367,1.716-1.4,1.95C14.017-6.467,14.2-5.933,14.6-5c0.4,0.867,0.733,1.517,1,1.95
					C15.933-2.483,16.3-2.567,16.7-3.3z"/>
				<path style="fill-rule:evenodd;clip-rule:evenodd;fill:#57381B;" d="M32.9-6.5l-1.25-1.1c-0.133-0.2-0.383-0.417-0.75-0.65
					l-0.5-0.3l-1.7,0.9l1.45,2.75l2.6-0.65L32.9-6.5z"/>
				<path style="fill-rule:evenodd;clip-rule:evenodd;fill:#805328;" d="M25.7-4.45l4.55-1.3L30.2-6.6l0.2-1.95L30.25-8.5L27.8-8.1
					l-0.85,0.4c-0.034,0-0.434,0.15-1.2,0.45c-0.433,0.167-0.8,0.333-1.1,0.5l-2,0.95L22.6-4.05L25.7-4.45z"/>
				<path style="fill-rule:evenodd;clip-rule:evenodd;fill:#664220;" d="M31.25-4.7c0.667-0.267,1.167-0.55,1.5-0.85l-1.6-0.35
					L30.2-6.6c-0.333,0-0.8,0.117-1.4,0.35l-6.2,2.2l1.3,1l1.35,0.5l2.3-0.55C28.417-3.367,29.65-3.9,31.25-4.7z"/>
				<path style="fill-rule:evenodd;clip-rule:evenodd;fill:#B5964A;" d="M11.3-10.1l0.55,1l6,1.05l0.2-0.25
					c0.133-0.2,0.184-0.383,0.15-0.55c-0.034-0.333-0.284-0.5-0.75-0.5L14-9.4c-0.367,0-0.767-0.15-1.2-0.45
					c-0.433-0.3-0.733-0.483-0.9-0.55c-0.167-0.1-0.3-0.133-0.4-0.1l-0.15,0.05L11.3-10.1z"/>
				<path style="fill-rule:evenodd;clip-rule:evenodd;fill:#E6C77A;" d="M11.1-9.7c0.033,0.167,0.117,0.35,0.25,0.55
					c0.233,0.433,0.533,0.717,0.9,0.85c0.533,0.233,1.183,0.433,1.95,0.6c0.867,0.2,1.5,0.25,1.9,0.15
					c0.566-0.1,1.15-0.267,1.75-0.5c0.1-0.434-0.05-0.7-0.45-0.8c-0.1-0.033-0.6-0.033-1.5,0C15-8.783,14.233-8.867,13.6-9.1
					c-0.667-0.233-1.233-0.533-1.7-0.9c-0.267-0.167-0.45-0.317-0.55-0.45C11.117-10.25,11.033-10,11.1-9.7z"/>
				<path style="fill-rule:evenodd;clip-rule:evenodd;fill:#E6C77A;" d="M31.5-7.6c0.267-0.1,0.533-0.316,0.8-0.65
					c0.233-0.233,0.85-0.283,1.85-0.15C34.417-8.367,34.7-8.267,35-8.1c0.233,0.133,0.4,0.184,0.5,0.15c0.2-0.1,0.3-0.233,0.3-0.4
					L35.65-8.6C35.583-8.767,35.367-8.917,35-9.05c-0.433-0.167-0.883-0.25-1.35-0.25c-0.8-0.034-1.617,0.1-2.45,0.4
					c-0.7,0.267-1.05,0.633-1.05,1.1C30.15-7.5,30.6-7.433,31.5-7.6z"/>
				<path style="fill-rule:evenodd;clip-rule:evenodd;fill:#E6C77A;" d="M35.05-6.85c0.5,0.033,0.983-0.033,1.45-0.2
					c0.433-0.167,0.65-0.317,0.65-0.45c-0.033-0.167-0.45-0.15-1.25,0.05c-0.2,0.034-0.566-0.017-1.1-0.15
					c-0.533-0.133-0.917-0.167-1.15-0.1c-0.3,0.067-0.233,0.233,0.2,0.5C34.25-6.967,34.65-6.85,35.05-6.85z"/>
				<path style="fill-rule:evenodd;clip-rule:evenodd;fill:#B5964A;" d="M19.95-12.35c0.7-0.066,0.867-0.316,0.5-0.75
					c-0.333-0.367-0.784-0.617-1.35-0.75c-0.267-0.033-0.533-0.3-0.8-0.8c-0.233-0.434-0.517-0.617-0.85-0.55
					c-0.434,0.1-0.6,0.417-0.5,0.95c0.066,0.5,0.283,0.883,0.65,1.15C18.4-12.533,19.183-12.283,19.95-12.35z"/>
				<path style="fill-rule:evenodd;clip-rule:evenodd;fill:#E6C77A;" d="M35.15-11.7c1.233-0.066,1.8-0.333,1.7-0.8
					s-0.5-0.65-1.2-0.55c-0.333,0.033-0.8-0.017-1.4-0.15c-0.6-0.167-1.167-0.216-1.7-0.15c-0.767,0.067-0.75,0.367,0.05,0.9
					C33.367-11.917,34.217-11.667,35.15-11.7z"/>
				<path style="fill-rule:evenodd;clip-rule:evenodd;fill:#B5964A;" d="M41.3-9.45c0.733-0.233,0.983-0.483,0.75-0.75
					c-0.233-0.267-0.566-0.4-1-0.4c-1.466,0-2.25,0.133-2.35,0.4c-0.1,0.267,0.167,0.5,0.8,0.7C40.167-9.3,40.767-9.283,41.3-9.45z"
					/>
				<path style="fill-rule:evenodd;clip-rule:evenodd;fill:#B5964A;" d="M11.8-11.65c0.667,0.233,1.25,0.15,1.75-0.25
					c0.467-0.367,0.583-0.65,0.35-0.85c-0.167-0.133-0.417-0.183-0.75-0.15c-0.633,0.033-1,0.05-1.1,0.05
					c-0.167-0.033-0.45-0.133-0.85-0.3c-0.267-0.1-0.5-0.1-0.7,0c-0.267,0.133-0.2,0.383,0.2,0.75
					C11.033-12.067,11.4-11.817,11.8-11.65z"/>
				<path style="fill-rule:evenodd;clip-rule:evenodd;fill:#805328;" d="M20.65-10.2c0-0.633,0.15-1.167,0.45-1.6
					c-1.2,0.133-2,0.25-2.4,0.35c-0.833,0.133-1.4,0.383-1.7,0.75c-0.033,0.167-0.05,0.333-0.05,0.5C16.917-9.8,16.933-9.533,17-9.4
					l0.6,2.1l1.3-0.3c0.133-0.066,0.483-0.183,1.05-0.35c0.466-0.1,0.7-0.183,0.7-0.25V-10.2z"/>
				<path style="fill-rule:evenodd;clip-rule:evenodd;fill:#664220;" d="M22.6-7.6l-1.95-0.6L20-8.05L18.9-7.6l-1.3,0.3l0.55,0.15
					L19.2-7l0.35-0.05l1.7-0.1C21.55-7.15,22-7.3,22.6-7.6z"/>
				<path style="fill-rule:evenodd;clip-rule:evenodd;fill:#57381B;" d="M20.65-8.2l0.85,0.4l1.1,0.2v-2.7l0.25-0.95L21.1-11.8
					c-0.267,0.233-0.417,0.466-0.45,0.7l-0.1,1L20.65-8.2z"/>
				<path style="fill-rule:evenodd;clip-rule:evenodd;fill:#664220;" d="M27.15-7.4l3-0.65c0.4-0.1,0.767-0.25,1.1-0.45L29.2-9.15
					l-4.35,1l0.6,0.3L27.15-7.4z"/>
				<path style="fill-rule:evenodd;clip-rule:evenodd;fill:#805328;" d="M24.55-9.8l0.3,1.65l4.35-1l0.15-1.7L27.8-10.5
					c-0.167,0.067-0.45,0.1-0.85,0.1c-0.434,0.033-0.717,0.066-0.85,0.1C25.5-10.167,24.983-10,24.55-9.8z"/>
				<path style="fill-rule:evenodd;clip-rule:evenodd;fill:#57381B;" d="M31.25-8.5l0.35-1.6l-2.25-0.75l-0.2,0.9l0.05,0.8l0.7,0.35
					C30.133-8.7,30.583-8.6,31.25-8.5z"/>
				<path style="fill-rule:evenodd;clip-rule:evenodd;fill:#664220;" d="M28.3-11.75c0.667,0.033,1.017-0.183,1.05-0.65
					c0-0.333-0.15-0.633-0.45-0.9c-0.3-0.3-0.933-0.45-1.9-0.45c-0.2,0-0.633,0.117-1.3,0.35L24.75-13l0.35,0.5l1.25,0.8L28.3-11.75
					z"/>
				<path style="fill-rule:evenodd;clip-rule:evenodd;fill:#D1BD88;" d="M16.35-11.5c0.2-0.2,0.233-0.4,0.1-0.6
					c-0.434-0.433-0.8-0.683-1.1-0.75l-1.4-0.45l-0.35,1c-0.1,0.367-0.133,0.633-0.1,0.8l0.05,0.15l1.2,0.7
					c0.333,0.167,0.6,0.15,0.8-0.05L16.35-11.5z"/>
				<path style="fill-rule:evenodd;clip-rule:evenodd;fill:#E6D3A3;" d="M13.5-11.4l0.2-0.05c0.6-0.3,1.066-0.633,1.4-1l0.3-0.4
					l-0.3-0.25l-0.6-0.4h-0.3l-1.25,0.4l0.15,0.6L13.5-11.4z"/>
				<path style="fill-rule:evenodd;clip-rule:evenodd;fill:#D1BD88;" d="M25.25-14.3L23-14.5l0.25,0.35
					c0.533,0.7,0.95,1.05,1.25,1.05c0.133,0,0.25-0.133,0.35-0.4C25.117-14,25.25-14.267,25.25-14.3z"/>
				<path style="fill-rule:evenodd;clip-rule:evenodd;fill:#E6D3A3;" d="M21.8-13.95l0.95,1.05c0.3,0.3,0.667,0.35,1.1,0.15l0.8-0.4
					c0.1-0.1-0.167-0.283-0.8-0.55L23-14.5l-0.45,0.1L21.8-13.95z"/>
				<linearGradient id="SVGID_6_" gradientUnits="userSpaceOnUse" x1="7.6748" y1="-11.0933" x2="9.5248" y2="-11.0933">
					<stop  offset="0" style="stop-color:#548735"/>
					<stop  offset="1" style="stop-color:#4A7516"/>
				</linearGradient>
				<path style="fill-rule:evenodd;clip-rule:evenodd;fill:url(#SVGID_6_);" d="M9.5-11.3c0-0.4-0.333-0.583-1-0.55l-0.8,0.1
					c-0.133,0.433-0.067,0.783,0.2,1.05c0.4,0.434,0.833,0.483,1.3,0.15C9.433-10.717,9.533-10.967,9.5-11.3z"/>
				<linearGradient id="SVGID_7_" gradientUnits="userSpaceOnUse" x1="19.8877" y1="-14.686" x2="22.6127" y2="-14.686">
					<stop  offset="0" style="stop-color:#548735"/>
					<stop  offset="1" style="stop-color:#4A7516"/>
				</linearGradient>
				<path style="fill-rule:evenodd;clip-rule:evenodd;fill:url(#SVGID_7_);" d="M22.65-15c0-0.6-0.5-0.883-1.5-0.85l-1.2,0.15
					c-0.167,0.633-0.05,1.184,0.35,1.65c0.6,0.633,1.233,0.7,1.9,0.2C22.533-14.083,22.683-14.467,22.65-15z"/>
				<linearGradient id="SVGID_8_" gradientUnits="userSpaceOnUse" x1="16.5249" y1="-11.228" x2="19.0749" y2="-11.228">
					<stop  offset="0" style="stop-color:#548735"/>
					<stop  offset="1" style="stop-color:#4A7516"/>
				</linearGradient>
				<path style="fill-rule:evenodd;clip-rule:evenodd;fill:url(#SVGID_8_);" d="M19.1-11.5c0-0.6-0.467-0.883-1.4-0.85l-1.1,0.2
					c-0.033,0.133-0.05,0.3-0.05,0.5c0,0.4,0.117,0.733,0.35,1c0.533,0.633,1.117,0.717,1.75,0.25
					C18.983-10.633,19.133-11,19.1-11.5z"/>
				<linearGradient id="SVGID_9_" gradientUnits="userSpaceOnUse" x1="22.8999" y1="-6.9482" x2="25.3999" y2="-6.9482">
					<stop  offset="0" style="stop-color:#548735"/>
					<stop  offset="1" style="stop-color:#4A7516"/>
				</linearGradient>
				<path style="fill-rule:evenodd;clip-rule:evenodd;fill:url(#SVGID_9_);" d="M25.45-7.2c0-0.466-0.467-0.683-1.4-0.65l-1.1,0.1
					C22.917-7.617,22.9-7.467,22.9-7.3c0,0.333,0.117,0.6,0.35,0.8C23.817-5.967,24.4-5.9,25-6.3C25.3-6.5,25.45-6.8,25.45-7.2z"/>
				<linearGradient id="SVGID_10_" gradientUnits="userSpaceOnUse" x1="31.3877" y1="-10.1157" x2="34.1127" y2="-10.1157">
					<stop  offset="0" style="stop-color:#548735"/>
					<stop  offset="1" style="stop-color:#4A7516"/>
				</linearGradient>
				<path style="fill-rule:evenodd;clip-rule:evenodd;fill:url(#SVGID_10_);" d="M34.15-10.45c0-0.6-0.5-0.883-1.5-0.85l-1.2,0.2
					c-0.034,0.167-0.05,0.35-0.05,0.55c0.033,0.433,0.167,0.783,0.4,1.05c0.567,0.667,1.2,0.75,1.9,0.25
					C34.033-9.517,34.183-9.917,34.15-10.45z"/>
				<linearGradient id="SVGID_11_" gradientUnits="userSpaceOnUse" x1="37.7002" y1="-7.4165" x2="40.2002" y2="-7.4165">
					<stop  offset="0" style="stop-color:#548735"/>
					<stop  offset="1" style="stop-color:#4A7516"/>
				</linearGradient>
				<path style="fill-rule:evenodd;clip-rule:evenodd;fill:url(#SVGID_11_);" d="M40.2-7.65c0-0.467-0.45-0.7-1.35-0.7l-1.1,0.15
					c-0.033,0.133-0.05,0.284-0.05,0.45c0,0.333,0.117,0.617,0.35,0.85c0.567,0.5,1.15,0.55,1.75,0.15
					C40.1-6.95,40.233-7.25,40.2-7.65z"/>
				<linearGradient id="SVGID_12_" gradientUnits="userSpaceOnUse" x1="38.1377" y1="-11.2778" x2="40.8627" y2="-11.2778">
					<stop  offset="0" style="stop-color:#548735"/>
					<stop  offset="1" style="stop-color:#4A7516"/>
				</linearGradient>
				<path style="fill-rule:evenodd;clip-rule:evenodd;fill:url(#SVGID_12_);" d="M40.4-10.4c0.333-0.267,0.483-0.667,0.45-1.2
					c0-0.6-0.5-0.883-1.5-0.85c-0.367,0-0.667,0.034-0.9,0.1l-0.25,0.1c-0.034,0.167-0.05,0.35-0.05,0.55
					c0,0.434,0.117,0.784,0.35,1.05C39.1-10.017,39.733-9.933,40.4-10.4z"/>
				<path style="fill-rule:evenodd;clip-rule:evenodd;fill:#E6C77A;" d="M22.15-2c1.1-0.167,1.8-0.367,2.1-0.6
					c0.1-0.066,0.183-0.283,0.25-0.65c0.033-0.2-0.067-0.317-0.3-0.35c-0.034,0-0.383,0-1.05,0c-0.367,0-0.883-0.133-1.55-0.4
					c-0.733-0.333-1.217-0.533-1.45-0.6c-0.367-0.2-0.65-0.35-0.85-0.45c-0.367-0.133-0.7-0.167-1-0.1
					c-0.333,0.033-0.4,0.316-0.2,0.85c0.167,0.466,0.417,0.867,0.75,1.2c0.3,0.267,0.833,0.517,1.6,0.75
					C21.183-2.083,21.75-1.967,22.15-2z"/>
				<path style="fill-rule:evenodd;clip-rule:evenodd;fill:#664220;" d="M10.7-11.05c0.3-0.1,0.35-0.2,0.15-0.3
					c-0.167-0.1-0.383-0.15-0.65-0.15c-0.267,0-0.317,0.1-0.15,0.3C10.217-11,10.433-10.95,10.7-11.05z"/>
				<path style="fill-rule:evenodd;clip-rule:evenodd;fill:#664220;" d="M27.85-14.35c0.533,0,0.883-0.083,1.05-0.25
					c0.167-0.167,0.1-0.333-0.2-0.5c-0.6-0.267-1.267-0.417-2-0.45c-1.467-0.067-2.417,0.083-2.85,0.45
					c-0.133,0.167,0.117,0.283,0.75,0.35c0.767,0.133,1.167,0.217,1.2,0.25C25.933-14.4,26.617-14.35,27.85-14.35z"/>
				<path style="fill-rule:evenodd;clip-rule:evenodd;fill:#664220;" d="M35.15-13.6c0.967-0.033,1.517-0.117,1.65-0.25
					s-0.083-0.3-0.65-0.5c-0.9-0.333-1.75-0.35-2.55-0.05c-0.4,0.133-0.35,0.316,0.15,0.55C34.217-13.65,34.683-13.567,35.15-13.6z"
					/>
				<path style="fill-rule:evenodd;clip-rule:evenodd;fill:#664220;" d="M24.8-10.55c0.6-0.133,0.8-0.317,0.6-0.55
					c-0.2-0.233-0.617-0.333-1.25-0.3s-0.816,0.217-0.55,0.55C23.833-10.483,24.233-10.383,24.8-10.55z"/>
				<path style="fill-rule:evenodd;clip-rule:evenodd;fill:#E6C77A;" d="M10.05-13.1l0.2-0.25c0.167-0.167,0.35-0.233,0.55-0.2
					l0.5,0.1c-0.533-0.233-0.933-0.316-1.2-0.25c-0.2,0.034-0.267,0.15-0.2,0.35L10.05-13.1z"/>
				<path style="fill-rule:evenodd;clip-rule:evenodd;fill:#E6C77A;" d="M7.6-11.85c0.133-0.066,0.3-0.133,0.5-0.2
					c0.133-0.067,0.15-0.117,0.05-0.15c-0.1-0.066-0.3-0.05-0.6,0.05c-0.167,0.033-0.233,0.1-0.2,0.2
					C7.383-11.85,7.467-11.817,7.6-11.85z"/>
				<path style="fill-rule:evenodd;clip-rule:evenodd;fill:#E6C77A;" d="M8.85-12.05c0.167-0.034,0.233-0.083,0.2-0.15
					c-0.033-0.066-0.117-0.1-0.25-0.1C8.633-12.3,8.65-12.217,8.85-12.05z"/>
				<path style="fill-rule:evenodd;clip-rule:evenodd;fill:#E6C77A;" d="M10.8-10.5c0-0.167,0.267-0.25,0.8-0.25
					c0.333,0,0.633,0.05,0.9,0.15c-0.333-0.3-0.667-0.433-1-0.4c-0.667,0.067-1,0.2-1,0.4c0,0.1,0.05,0.15,0.15,0.15
					C10.717-10.45,10.767-10.467,10.8-10.5z"/>
				<path style="fill-rule:evenodd;clip-rule:evenodd;fill:#E6C77A;" d="M16.95-12.6h0.85c-0.5-0.233-0.883-0.383-1.15-0.45
					c-0.6-0.067-1.017-0.25-1.25-0.55c-0.3-0.367-0.783-0.5-1.45-0.4c-0.333,0.033-0.6,0.15-0.8,0.35l-0.25,0.3l0.3-0.15
					c0.633-0.233,1.1-0.3,1.4-0.2c0.3,0.1,0.7,0.35,1.2,0.75C16.333-12.717,16.717-12.6,16.95-12.6z"/>
				<path style="fill-rule:evenodd;clip-rule:evenodd;fill:#E6C77A;" d="M19.8-12.05l0.6-0.1c0.434-0.033,0.733-0.017,0.9,0.05
					c0.3,0.1,0.567,0.15,0.8,0.15c-0.067-0.433-0.333-0.617-0.8-0.55L19.8-12.05z"/>
				<path style="fill-rule:evenodd;clip-rule:evenodd;fill:#E6C77A;" d="M23.15-11.45l0.15-0.15c0.133-0.066,0.333-0.1,0.6-0.1h1.15
					c-0.667-0.3-1.183-0.383-1.55-0.25c-0.233,0.1-0.367,0.217-0.4,0.35L23.15-11.45z"/>
				<path style="fill-rule:evenodd;clip-rule:evenodd;fill:#E6C77A;" d="M23.8-9.55c0.5-0.034,0.7-0.2,0.6-0.5L23.8-10
					c-0.233,0.033-0.333,0.117-0.3,0.25C23.567-9.583,23.667-9.517,23.8-9.55z"/>
				<path style="fill-rule:evenodd;clip-rule:evenodd;fill:#E6C77A;" d="M25.4-10.3c0.2-0.067,0.55-0.133,1.05-0.2
					c0.267-0.067,0.2-0.1-0.2-0.1c-0.567,0.033-0.95,0.083-1.15,0.15c-0.1,0.067-0.117,0.117-0.05,0.15
					C25.083-10.267,25.2-10.267,25.4-10.3z"/>
				<path style="fill-rule:evenodd;clip-rule:evenodd;fill:#E6C77A;" d="M16.65-14.95l0.2-0.25l0.8-0.35
					c-0.167-0.034-0.467-0.034-0.9,0c-0.267,0.033-0.4,0.133-0.4,0.3C16.383-15.083,16.483-14.983,16.65-14.95z"/>
				<path style="fill-rule:evenodd;clip-rule:evenodd;fill:#E6C77A;" d="M31-13.2c0.4,0,0.717-0.083,0.95-0.25
					c0.2-0.167,0.533-0.283,1-0.35c-0.733-0.034-1.333-0.034-1.8,0c-0.3,0-0.467,0.1-0.5,0.3S30.733-13.2,31-13.2z"/>
				<path style="fill-rule:evenodd;clip-rule:evenodd;fill:#E6C77A;" d="M31.1-11.1l0.15-0.25c0.133-0.133,0.367-0.2,0.7-0.2h0.9
					c-0.967-0.4-1.6-0.467-1.9-0.2c-0.2,0.167-0.233,0.317-0.1,0.45C30.917-11.2,31-11.133,31.1-11.1z"/>
				<path style="fill-rule:evenodd;clip-rule:evenodd;fill:#E6C77A;" d="M37.55-12.25l0.25-0.25c0.2-0.133,0.467-0.2,0.8-0.2
					c1.233,0,1.583-0.033,1.05-0.1c-0.5-0.034-0.917-0.05-1.25-0.05c-0.6-0.033-0.95,0-1.05,0.1c-0.067,0.067-0.05,0.167,0.05,0.3
					C37.433-12.383,37.483-12.317,37.55-12.25z"/>
				<path style="fill-rule:evenodd;clip-rule:evenodd;fill:#E6C77A;" d="M37.35-8.25l0.25-0.2c0.267-0.133,0.633-0.183,1.1-0.15
					l1.15,0.05c-0.7-0.434-1.417-0.567-2.15-0.4c-0.467,0.1-0.667,0.25-0.6,0.45L37.35-8.25z"/>
				<path style="fill-rule:evenodd;clip-rule:evenodd;fill:#E6C77A;" d="M23-8.05c0.433-0.1,0.733-0.133,0.9-0.1
					c-0.233-0.3-0.45-0.4-0.65-0.3C23.117-8.417,23.033-8.333,23-8.2V-8.05z"/>
				<linearGradient id="SVGID_13_" gradientUnits="userSpaceOnUse" x1="15.7373" y1="-4.3896" x2="24.0623" y2="-4.3896">
					<stop  offset="0" style="stop-color:#ED4A26"/>
					<stop  offset="0.9922" style="stop-color:#B84C1D"/>
				</linearGradient>
				<path style="fill-rule:evenodd;clip-rule:evenodd;fill:url(#SVGID_13_);" d="M23.7-2.05l0.35-0.35L23.6-2.35
					C23.333-2.15,23.083-2,22.85-1.9c-0.434,0.2-0.967,0.217-1.6,0.05C20.683-2.017,20.3-2.267,20.1-2.6
					c-0.3-0.633-0.533-1.033-0.7-1.2c-1.066-1.067-1.8-1.767-2.2-2.1c-0.367-0.3-0.667-0.667-0.9-1.1l-0.2-0.55l-0.4,0.3L16-6.6
					c0.3,0.667,0.8,1.233,1.5,1.7c0.467,0.333,0.783,0.583,0.95,0.75c0.267,0.267,0.533,0.683,0.8,1.25
					c0.3,0.566,0.617,0.967,0.95,1.2c0.333,0.233,0.783,0.383,1.35,0.45C22.317-1.15,23.033-1.417,23.7-2.05z"/>
				<linearGradient id="SVGID_14_" gradientUnits="userSpaceOnUse" x1="21.3501" y1="-3.77" x2="31.9501" y2="-3.77">
					<stop  offset="0" style="stop-color:#FF3C00"/>
					<stop  offset="1" style="stop-color:#BD2C00"/>
				</linearGradient>
				<path style="fill-rule:evenodd;clip-rule:evenodd;fill:url(#SVGID_14_);" d="M28.5-4.65l3.45-0.65c-1-0.067-1.9-0.05-2.7,0.05
					C28.883-5.217,28.333-5.2,27.6-5.2c-0.633,0-1.067,0.034-1.3,0.1c-0.533,0.167-1.333,0.667-2.4,1.5
					c-0.733,0.6-1.533,0.9-2.4,0.9c-0.2,0-0.25,0.083-0.15,0.25l0.2,0.25l0.75-0.05c0.567-0.133,1.1-0.4,1.6-0.8
					c1.233-1.067,2.217-1.6,2.95-1.6H28.5z"/>
				<linearGradient id="SVGID_15_" gradientUnits="userSpaceOnUse" x1="19.6875" y1="-5.709" x2="28.7125" y2="-5.709">
					<stop  offset="0" style="stop-color:#FF3C00"/>
					<stop  offset="1" style="stop-color:#BD2C00"/>
				</linearGradient>
				<path style="fill-rule:evenodd;clip-rule:evenodd;fill:url(#SVGID_15_);" d="M28.1-4.1c0.767-0.267,0.9-0.45,0.4-0.55
					c-0.267-0.067-0.633-0.05-1.1,0.05c-0.533,0.067-0.9,0.1-1.1,0.1c-0.466-0.067-1.183-0.483-2.15-1.25
					c-0.367-0.3-1.35-0.8-2.95-1.5c-0.367-0.2-0.733-0.217-1.1-0.05L19.7-7h0.5c0.4,0.033,0.75,0.133,1.05,0.3
					c0.5,0.3,1.267,0.633,2.3,1c0.167,0.1,0.5,0.333,1,0.7S25.533-4.383,26-4.25C26.767-3.983,27.467-3.933,28.1-4.1z"/>
				<linearGradient id="SVGID_16_" gradientUnits="userSpaceOnUse" x1="17.3125" y1="-4.4004" x2="27.5875" y2="-4.4004">
					<stop  offset="0" style="stop-color:#FF7B00"/>
					<stop  offset="0.9922" style="stop-color:#DB6A00"/>
				</linearGradient>
				<path style="fill-rule:evenodd;clip-rule:evenodd;fill:url(#SVGID_16_);" d="M24.95-5.3c0.466,0,1.15,0.117,2.05,0.35h0.6
					c-0.767-0.433-1.467-0.65-2.1-0.65c-1,0-1.983,0.367-2.95,1.1c-0.6,0.467-1.65,0.7-3.15,0.7c-0.433,0-0.917-0.117-1.45-0.35
					l-0.65-0.3L17.5-4l0.45,0.4c0.4,0.267,0.883,0.4,1.45,0.4c1.434,0,2.567-0.3,3.4-0.9C23.833-4.9,24.55-5.3,24.95-5.3z"/>
				<linearGradient id="SVGID_17_" gradientUnits="userSpaceOnUse" x1="24.6875" y1="-4.4009" x2="29.0109" y2="-4.4009">
					<stop  offset="0" style="stop-color:#FF7B00"/>
					<stop  offset="0.9922" style="stop-color:#DB6A00"/>
				</linearGradient>
				<path style="fill-rule:evenodd;clip-rule:evenodd;fill:url(#SVGID_17_);" d="M25.7-0.55c0.367,0.4,0.716,0.316,1.05-0.25h-0.2
					c-0.167,0-0.383-0.133-0.65-0.4c-0.3-0.333-0.483-0.716-0.55-1.15c-0.067-0.4,0.167-0.816,0.7-1.25
					c0.3-0.267,0.717-0.617,1.25-1.05c0.833-0.9,1.3-1.633,1.4-2.2c0.1-0.533-0.117-0.917-0.65-1.15l0.8-0.2L29-8.5
					c-0.6,0.1-1.067,0.25-1.4,0.45c-0.2,0.1-0.217,0.25-0.05,0.45c0.3,0.333,0.467,0.583,0.5,0.75c0.067,0.3-0.066,0.633-0.4,1
					c-0.1,0.133-0.55,0.583-1.35,1.35c-0.566,0.467-0.917,0.75-1.05,0.85c-0.2,0.167-0.367,0.5-0.5,1
					c-0.167,0.533-0.05,1.033,0.35,1.5C25.267-0.883,25.467-0.683,25.7-0.55z"/>
				<linearGradient id="SVGID_18_" gradientUnits="userSpaceOnUse" x1="23.6377" y1="-6.2051" x2="32.3627" y2="-6.2051">
					<stop  offset="0" style="stop-color:#FF7B00"/>
					<stop  offset="0.9922" style="stop-color:#DB6A00"/>
				</linearGradient>
				<path style="fill-rule:evenodd;clip-rule:evenodd;fill:url(#SVGID_18_);" d="M31.4-3.3c0.567,0.3,0.9,0.117,1-0.55
					c-0.6-0.2-1.033-0.467-1.3-0.8c-0.333-0.467-1.083-0.9-2.25-1.3c-0.5-0.2-0.95-0.466-1.35-0.8c-0.467-0.4-0.833-0.7-1.1-0.9
					c-0.667-0.434-1.35-0.65-2.05-0.65c-0.233,0-0.283-0.167-0.15-0.5c0.066-0.133,0.15-0.284,0.25-0.45L23.75-9
					c-0.067,0.167-0.1,0.35-0.1,0.55C23.683-8.083,23.9-7.9,24.3-7.9c0.434,0,0.8,0.066,1.1,0.2c0.167,0.1,0.517,0.333,1.05,0.7
					c0.3,0.2,0.716,0.517,1.25,0.95c0.5,0.333,1.017,0.6,1.55,0.8C30.083-4.95,30.8-4.3,31.4-3.3z"/>
				<linearGradient id="SVGID_19_" gradientUnits="userSpaceOnUse" x1="16.6875" y1="-8.1128" x2="25.1125" y2="-8.1128">
					<stop  offset="0" style="stop-color:#FF7B00"/>
					<stop  offset="0.9922" style="stop-color:#DB6A00"/>
				</linearGradient>
				<path style="fill-rule:evenodd;clip-rule:evenodd;fill:url(#SVGID_19_);" d="M21.85-7.35c-0.267-0.133-0.617-0.4-1.05-0.8
					c-0.433-0.4-0.933-0.717-1.5-0.95c-0.633-0.267-1.167-0.433-1.6-0.5h-1l0.2,0.3c0.333,0.4,1.083,0.733,2.25,1
					c0.533,0.167,0.9,0.3,1.1,0.4c0.2,0.133,0.383,0.35,0.55,0.65c0.167,0.3,0.767,0.483,1.8,0.55c0.867,0.1,1.6,0.1,2.2,0
					c0.667-0.1,0.517-0.216-0.45-0.35C23.35-6.95,22.517-7.05,21.85-7.35z"/>
				<linearGradient id="SVGID_20_" gradientUnits="userSpaceOnUse" x1="19.9126" y1="-6.2739" x2="31.0876" y2="-6.2739">
					<stop  offset="0" style="stop-color:#ED4A26"/>
					<stop  offset="0.9922" style="stop-color:#B84C1D"/>
				</linearGradient>
				<path style="fill-rule:evenodd;clip-rule:evenodd;fill:url(#SVGID_20_);" d="M20.95-4.8c0.667-0.2,1.283-0.45,1.85-0.75
					c0.167-0.1,0.55-0.367,1.15-0.8c0.367-0.267,0.783-0.433,1.25-0.5c0.4-0.066,1-0.167,1.8-0.3c0.7-0.1,1.267-0.133,1.7-0.1
					l2.1,0.175c-0.6-0.071-1.217-0.279-1.85-0.625c-0.667-0.367-2.2-0.15-4.6,0.65c-0.6,0.2-1.383,0.7-2.35,1.5
					c-0.333,0.3-0.783,0.517-1.35,0.65L19.9-4.8C19.9-4.633,20.25-4.633,20.95-4.8z"/>
				<linearGradient id="SVGID_21_" gradientUnits="userSpaceOnUse" x1="16.5" y1="-5.6343" x2="31.625" y2="-5.6343">
					<stop  offset="0" style="stop-color:#ED4A26"/>
					<stop  offset="0.9922" style="stop-color:#B84C1D"/>
				</linearGradient>
				<path style="fill-rule:evenodd;clip-rule:evenodd;fill:url(#SVGID_21_);" d="M31.4-4.8l-1.25,0.6c-1.3,0.667-2.1,0.934-2.4,0.8
					c-0.6-0.434-1.067-0.717-1.4-0.85c-1.667-0.467-2.55-0.7-2.65-0.7c-0.5-0.066-1.05-0.2-1.65-0.4c-0.733-0.267-1.2-0.533-1.4-0.8
					c-0.167-0.233-0.533-0.483-1.1-0.75c-0.767-0.3-1.2-0.483-1.3-0.55l-1.3-0.75L16.5-7.9l1.35,0.5c0.967,0.4,1.7,0.8,2.2,1.2
					c1.034,0.8,2.4,1.35,4.1,1.65c0.7,0.133,1.367,0.35,2,0.65c0.333,0.167,0.767,0.4,1.3,0.7c0.6,0.333,1.65,0.034,3.15-0.9
					l1.05-0.5L31.4-4.8z"/>
				<linearGradient id="SVGID_22_" gradientUnits="userSpaceOnUse" x1="18.4248" y1="-6.0835" x2="30.2748" y2="-6.0835">
					<stop  offset="0" style="stop-color:#ED4A26"/>
					<stop  offset="0.9922" style="stop-color:#B84C1D"/>
				</linearGradient>
				<path style="fill-rule:evenodd;clip-rule:evenodd;fill:url(#SVGID_22_);" d="M20.65-6.15c0.233-0.033,1.2,0.117,2.9,0.45
					c0.5,0.133,1.083,0.167,1.75,0.1c0.667-0.033,1.217-0.15,1.65-0.35c0.733-0.3,1.483-0.383,2.25-0.25l1.1,0.15
					c-0.3-0.2-0.716-0.367-1.25-0.5c-0.333-0.1-0.8-0.05-1.4,0.15c-0.1,0.033-0.617,0.217-1.55,0.55
					c-0.367,0.133-1.05,0.117-2.05-0.05c-1.433-0.233-2.367-0.367-2.8-0.4c-0.8-0.034-1.45,0.033-1.95,0.2
					c-0.4,0.2-0.7,0.333-0.9,0.4l1,0.1L20.65-6.15z"/>
				<path style="fill-rule:evenodd;clip-rule:evenodd;fill:#F5F5F5;" d="M45.25-7.95h1.45c0.066-0.2,0.1-0.466,0.1-0.8
					c0-2.433-2.283-4.5-6.85-6.2c-4.567-1.7-10.083-2.55-16.55-2.55s-11.983,0.85-16.55,2.55C2.283-13.25,0-11.183,0-8.75l0.1,0.8
					h1.7V-8.4c0-2.167,2.117-4,6.35-5.5c4.233-1.533,9.35-2.3,15.35-2.3c6.033,0,11.167,0.767,15.4,2.3
					c4.233,1.5,6.35,3.333,6.35,5.5V-7.95z"/>
			</g>
		</g>
		<g id="Layer_2_2_" style="clip-path:url(#SVGID_3_);">
			<path style="fill-rule:evenodd;clip-rule:evenodd;fill:#666666;fill-opacity:0.9843;" d="M24.225-23.125
				c0.15,0.027,0.542,0.094,1.175,0.2c0.64,0.102,1.29,0.285,1.95,0.55c0.655,0.26,1.497,0.243,2.525-0.05
				c1.026-0.288,3.185,0.321,6.475,1.825c3.298,1.497,3.665,0.922,1.1-1.725c-2.572-2.651-7.838-3.768-15.8-3.35
				c-7.965,0.418-12.298,1.977-13,4.675c0.411,0.537,1.32,0.529,2.725-0.025c1.41-0.557,2.435-0.84,3.075-0.85
				c0.632-0.006,1.374-0.223,2.225-0.65c0.858-0.428,1.667-0.503,2.425-0.225c0.75,0.281,1.55,0.289,2.4,0.025
				c0.862-0.269,1.496-0.411,1.9-0.425C23.801-23.16,24.076-23.152,24.225-23.125z"/>
		</g>
	</g>
</symbol>
<g>
	<g>
		<path style="fill-rule:evenodd;clip-rule:evenodd;fill:#D9D9D9;" d="M38.587,30.237l0.15-0.037
			c-0.975,3.1-3.037,5.638-6.188,7.612c-3.225,2.025-6.9,3.037-11.025,3.037c-4.149,0-7.837-1.024-11.063-3.074
			c-3.2-2.025-5.25-4.601-6.149-7.726l0.263,0.075C5.55,30.875,7.612,31.5,10.763,32c3.174,0.475,6.812,0.713,10.912,0.713
			c3.975,0,7.524-0.238,10.65-0.713C35.425,31.55,37.512,30.963,38.587,30.237z"/>
		
			<use xlink:href="#flash0.ai_x5F_7_x2F_Layer_2_x2F__x3C_Path_x3E__x5F_72"  width="24.3" height="12.7" y="-12.7" transform="matrix(0.75 0 0 -0.75 7.4502 31.2998)" style="overflow:visible;opacity:0.7188;enable-background:new    ;"/>
		
			<use xlink:href="#flash0.ai_x5F_7_x2F_Layer_2_x2F__x3C_Path_x3E__x5F_71"  width="17.2" height="13.05" y="-13.05" transform="matrix(0.75 0 0 -0.75 24.2998 30.8496)" style="overflow:visible;opacity:0.1602;enable-background:new    ;"/>
		
			<use xlink:href="#flash0.ai_x5F_7_x2F_Layer_2_x2F__x3C_Path_x3E__x5F_70"  width="12.75" height="12.55" y="-12.55" transform="matrix(0.75 0 0 -0.75 4.2998 30.0498)" style="overflow:visible;opacity:0.3203;enable-background:new    ;"/>
		
			<linearGradient id="SVGID_23_" gradientUnits="userSpaceOnUse" x1="0.7998" y1="8.6006" x2="46.0498" y2="8.6006" gradientTransform="matrix(0.75 0 0 0.75 4.0498 22.25)">
			<stop  offset="0" style="stop-color:#7D7D7D"/>
			<stop  offset="1" style="stop-color:#D4D4D4"/>
		</linearGradient>
		<path style="fill-rule:evenodd;clip-rule:evenodd;fill:url(#SVGID_23_);" d="M33.6,24.2c3.325,1.25,4.987,2.75,4.987,4.5
			c0,1.774-1.662,3.274-4.987,4.5c-3.3,1.25-7.3,1.875-12,1.875c-4.675,0-8.675-0.625-12-1.875c-3.3-1.226-4.95-2.726-4.95-4.5
			c0-1.75,1.65-3.25,4.95-4.5c3.325-1.25,7.325-1.875,12-1.875C26.275,22.325,30.275,22.95,33.6,24.2z"/>
		<path style="fill-rule:evenodd;clip-rule:evenodd;fill:#F5F5F5;" d="M39.075,28.25h-1.088c-0.225-1.55-1.912-2.862-5.063-3.938
			C29.8,23.237,26.05,22.7,21.675,22.7c-4.35,0-8.087,0.537-11.213,1.612C7.313,25.388,5.625,26.7,5.399,28.25H4.125
			c0.4-1.7,2.262-3.125,5.587-4.275c3.375-1.149,7.338-1.725,11.888-1.725c4.575,0,8.537,0.575,11.888,1.725
			C36.813,25.125,38.675,26.55,39.075,28.25z"/>
		
			<linearGradient id="SVGID_24_" gradientUnits="userSpaceOnUse" x1="2.6079" y1="9.9766" x2="44.3829" y2="9.9766" gradientTransform="matrix(0.75 0 0 0.75 4.0498 22.25)">
			<stop  offset="0" style="stop-color:#A67C3C"/>
			<stop  offset="1" style="stop-color:#85612D"/>
		</linearGradient>
		<path style="fill-rule:evenodd;clip-rule:evenodd;fill:url(#SVGID_24_);" d="M36.524,31.325C35,32.2,33.625,32.888,32.399,33.388
			c-2.25,0.975-4.437,1.475-6.563,1.5c-6.475,0.149-11.412-0.375-14.813-1.575c-1.649-0.6-2.975-1.237-3.975-1.912l-1.013-0.825
			c-0.1-0.351,0.038-0.788,0.413-1.313c0.325-0.476,0.75-0.875,1.274-1.2c0.35-0.225,1.1-0.513,2.25-0.862
			c1.15-0.375,1.938-0.688,2.362-0.938c1.375-0.851,3.063-1.313,5.063-1.388c0.475-0.025,1.663-0.063,3.563-0.112
			c1.601-0.05,2.851-0.112,3.75-0.188c1.601-0.125,3.663,0.25,6.188,1.125c2.176,0.774,3.7,1.399,4.575,1.875
			c0.825,0.425,1.4,1.037,1.726,1.837C37.575,30.313,37.35,30.95,36.524,31.325z"/>
		<path style="fill-rule:evenodd;clip-rule:evenodd;fill:#B5964A;" d="M11.438,29.263c0.149,0.125,0.212,0.3,0.188,0.524
			c-0.025,0.226-0.125,0.388-0.3,0.488c-0.125,0.05-0.363,0.05-0.713,0c-0.45-0.101-0.787-0.15-1.013-0.15
			c-0.725,0-0.887-0.3-0.487-0.9c0.2-0.274,0.538-0.412,1.013-0.412C10.625,28.813,11.063,28.963,11.438,29.263z"/>
		<path style="fill-rule:evenodd;clip-rule:evenodd;fill:#664220;" d="M12.787,28.362c-0.149,0.075-0.375,0.05-0.675-0.075
			l-0.75-0.412l0.188-0.3c0.15-0.2,0.313-0.275,0.487-0.226L13.5,27.8C13.55,27.8,13.313,27.987,12.787,28.362z"/>
		<path style="fill-rule:evenodd;clip-rule:evenodd;fill:#E6C77A;" d="M9.45,30.388c-0.25,0.1-0.538,0.1-0.863,0
			c-0.225-0.05-0.3-0.15-0.225-0.3l0.188-0.226l0.112,0.263C8.762,30.3,9.025,30.388,9.45,30.388z"/>
		
			<use xlink:href="#flash0.ai_x5F_7_x2F_Layer_2_x2F__x3C_Path_x3E__x5F_63"  width="41.792" height="9.681" x="-0.042" y="-9.65" transform="matrix(0.75 0 0 -0.75 6 24.5498)" style="overflow:visible;opacity:0.2891;enable-background:new    ;"/>
		<path style="fill-rule:evenodd;clip-rule:evenodd;fill:#664220;" d="M17.513,27.388c-0.45-0.45-0.8-0.95-1.051-1.5
			c-0.149-0.325-0.275-0.688-0.375-1.088l-0.074-0.524l1.237,0.074c0.375,0,0.862,0.101,1.462,0.301l0.413,1.012
			c0.1,0.25,0.287,0.5,0.563,0.75L17.513,27.388z"/>
		<path style="fill-rule:evenodd;clip-rule:evenodd;fill:#57381B;" d="M16.688,26.075l0.899,0.375l2.101-0.038l-0.675,0.938
			l-0.113,0.301c-0.475,0.324-0.962,0.537-1.462,0.637l-1.8,0.375l0.188-1.762L16.688,26.075z"/>
		<path style="fill-rule:evenodd;clip-rule:evenodd;fill:#805328;" d="M16.575,24.725l0.824,1.051
			c0.125,0.199,0.188,0.425,0.188,0.675c-0.375,0.1-0.675,0.287-0.899,0.563c-0.1,0.149-0.2,0.375-0.3,0.675
			c-0.075,0.25-0.163,0.425-0.263,0.525l-0.487,0.449c-0.676-0.8-1.025-1.287-1.051-1.462C14.563,27.1,14.7,26.7,15,26
			c0.3-0.65,0.55-1.138,0.75-1.463C16,24.112,16.274,24.175,16.575,24.725z"/>
		<path style="fill-rule:evenodd;clip-rule:evenodd;fill:#57381B;" d="M28.725,27.125l-0.938,0.825
			c-0.1,0.149-0.287,0.313-0.563,0.487l-0.375,0.225l-1.274-0.675l1.087-2.063l1.95,0.487L28.725,27.125z"/>
		<path style="fill-rule:evenodd;clip-rule:evenodd;fill:#805328;" d="M23.325,25.588l3.412,0.975L26.7,27.2l0.149,1.462
			l-0.112-0.037l-1.838-0.3l-0.637-0.3c-0.025,0-0.325-0.113-0.9-0.338c-0.325-0.125-0.6-0.25-0.825-0.375l-1.5-0.713L21,25.287
			L23.325,25.588z"/>
		<path style="fill-rule:evenodd;clip-rule:evenodd;fill:#664220;" d="M27.487,25.775c0.5,0.199,0.875,0.412,1.125,0.637l-1.2,0.263
			L26.7,27.2c-0.251,0-0.601-0.088-1.051-0.263L21,25.287l0.975-0.75l1.013-0.375l1.725,0.413
			C25.362,24.775,26.287,25.175,27.487,25.775z"/>
		<path style="fill-rule:evenodd;clip-rule:evenodd;fill:#B5964A;" d="M12.524,29.825l0.413-0.75l4.5-0.788l0.149,0.188
			c0.1,0.15,0.138,0.288,0.113,0.413c-0.025,0.25-0.213,0.375-0.563,0.375L14.55,29.3c-0.275,0-0.575,0.112-0.9,0.338
			C13.325,29.862,13.1,30,12.975,30.05c-0.125,0.075-0.225,0.101-0.3,0.075l-0.112-0.037L12.524,29.825z"/>
		<path style="fill-rule:evenodd;clip-rule:evenodd;fill:#E6C77A;" d="M12.375,29.525c0.025-0.125,0.087-0.263,0.188-0.413
			c0.175-0.325,0.4-0.537,0.675-0.638c0.4-0.175,0.887-0.324,1.463-0.449c0.65-0.15,1.125-0.188,1.425-0.113
			c0.425,0.075,0.862,0.2,1.313,0.375c0.075,0.325-0.038,0.525-0.338,0.601c-0.075,0.024-0.45,0.024-1.125,0
			c-0.675-0.05-1.25,0.013-1.725,0.188c-0.5,0.175-0.925,0.399-1.275,0.675c-0.2,0.125-0.337,0.237-0.412,0.338
			C12.387,29.938,12.325,29.75,12.375,29.525z"/>
		<path style="fill-rule:evenodd;clip-rule:evenodd;fill:#E6C77A;" d="M28.274,28.438c0.175,0.175,0.638,0.213,1.388,0.112
			c0.2-0.024,0.413-0.1,0.638-0.225c0.175-0.101,0.3-0.138,0.375-0.112c0.15,0.074,0.225,0.175,0.225,0.3L30.787,28.7
			c-0.05,0.125-0.213,0.237-0.487,0.337c-0.325,0.125-0.663,0.188-1.013,0.188c-0.6,0.025-1.213-0.074-1.837-0.3
			c-0.525-0.2-0.788-0.475-0.788-0.825c0-0.225,0.338-0.274,1.013-0.149C27.875,28.025,28.074,28.188,28.274,28.438z"/>
		<path style="fill-rule:evenodd;clip-rule:evenodd;fill:#E6C77A;" d="M30.337,27.388c0.375-0.025,0.737,0.024,1.088,0.149
			c0.325,0.125,0.487,0.238,0.487,0.338c-0.025,0.125-0.337,0.112-0.938-0.037c-0.149-0.025-0.425,0.012-0.825,0.112
			c-0.399,0.1-0.687,0.125-0.862,0.075c-0.225-0.051-0.175-0.176,0.15-0.375C29.737,27.475,30.037,27.388,30.337,27.388z"/>
		<path style="fill-rule:evenodd;clip-rule:evenodd;fill:#B5964A;" d="M19.013,31.513c0.524,0.05,0.65,0.237,0.375,0.563
			c-0.25,0.274-0.588,0.462-1.013,0.563c-0.2,0.024-0.4,0.225-0.601,0.6c-0.174,0.325-0.387,0.463-0.637,0.413
			c-0.325-0.075-0.45-0.313-0.375-0.713c0.05-0.375,0.212-0.662,0.487-0.862C17.85,31.65,18.437,31.463,19.013,31.513z"/>
		<path style="fill-rule:evenodd;clip-rule:evenodd;fill:#E6C77A;" d="M30.412,31.025c0.926,0.05,1.351,0.25,1.275,0.6
			s-0.375,0.487-0.9,0.412c-0.25-0.024-0.6,0.013-1.05,0.113c-0.45,0.125-0.875,0.162-1.275,0.112
			c-0.575-0.05-0.563-0.275,0.038-0.675C29.074,31.188,29.713,31,30.412,31.025z"/>
		<path style="fill-rule:evenodd;clip-rule:evenodd;fill:#B5964A;" d="M35.024,29.338c0.55,0.175,0.737,0.362,0.563,0.563
			c-0.175,0.199-0.425,0.3-0.75,0.3c-1.1,0-1.688-0.101-1.762-0.3c-0.075-0.2,0.124-0.375,0.6-0.525
			C34.175,29.225,34.625,29.213,35.024,29.338z"/>
		<path style="fill-rule:evenodd;clip-rule:evenodd;fill:#B5964A;" d="M12.899,30.987c0.5-0.175,0.938-0.112,1.313,0.188
			c0.351,0.275,0.438,0.487,0.263,0.638c-0.125,0.1-0.313,0.138-0.563,0.112c-0.475-0.024-0.75-0.037-0.825-0.037
			c-0.125,0.024-0.337,0.1-0.637,0.225c-0.201,0.075-0.375,0.075-0.525,0c-0.2-0.1-0.15-0.287,0.15-0.563
			C12.325,31.3,12.6,31.112,12.899,30.987z"/>
		<path style="fill-rule:evenodd;clip-rule:evenodd;fill:#805328;" d="M19.537,29.9c0,0.475,0.112,0.875,0.337,1.199
			c-0.9-0.1-1.5-0.188-1.799-0.262c-0.625-0.101-1.051-0.288-1.275-0.563c-0.025-0.125-0.037-0.25-0.037-0.375
			C16.737,29.6,16.75,29.4,16.8,29.3l0.45-1.575l0.975,0.226c0.1,0.05,0.363,0.138,0.788,0.263c0.35,0.074,0.524,0.137,0.524,0.188
			V29.9z"/>
		<path style="fill-rule:evenodd;clip-rule:evenodd;fill:#664220;" d="M19.987,27.612c0.225,0,0.563,0.112,1.012,0.338l-1.462,0.45
			l-0.487-0.113l-0.825-0.337l-0.975-0.226l0.412-0.112L18.45,27.5l0.262,0.037L19.987,27.612z"/>
		<path style="fill-rule:evenodd;clip-rule:evenodd;fill:#57381B;" d="M19.537,28.4l0.638-0.301L21,27.95v2.024l0.188,0.713
			L19.875,31.1c-0.2-0.175-0.313-0.35-0.337-0.524l-0.075-0.75L19.537,28.4z"/>
		<path style="fill-rule:evenodd;clip-rule:evenodd;fill:#664220;" d="M24.412,27.8l2.25,0.487c0.3,0.075,0.575,0.188,0.825,0.338
			l-1.537,0.487l-3.263-0.75l0.45-0.225L24.412,27.8z"/>
		<path style="fill-rule:evenodd;clip-rule:evenodd;fill:#805328;" d="M22.462,29.6l0.226-1.237l3.263,0.75l0.112,1.275
			l-1.163-0.263c-0.124-0.05-0.337-0.075-0.637-0.075c-0.325-0.024-0.538-0.05-0.638-0.075C23.175,29.875,22.787,29.75,22.462,29.6z
			"/>
		<path style="fill-rule:evenodd;clip-rule:evenodd;fill:#57381B;" d="M27.487,28.625l0.263,1.2l-1.688,0.563l-0.15-0.675
			l0.038-0.601l0.524-0.263C26.65,28.775,26.987,28.7,27.487,28.625z"/>
		<path style="fill-rule:evenodd;clip-rule:evenodd;fill:#664220;" d="M25.274,31.063c0.501-0.025,0.763,0.138,0.788,0.487
			c0,0.25-0.112,0.476-0.338,0.675c-0.225,0.226-0.699,0.338-1.425,0.338c-0.15,0-0.476-0.088-0.975-0.263L22.612,32l0.263-0.375
			l0.938-0.6L25.274,31.063z"/>
		<path style="fill-rule:evenodd;clip-rule:evenodd;fill:#D1BD88;" d="M16.313,30.875c0.149,0.15,0.175,0.3,0.075,0.45
			c-0.325,0.325-0.601,0.513-0.825,0.563l-1.05,0.337l-0.263-0.75c-0.075-0.274-0.1-0.475-0.075-0.6l0.037-0.112l0.9-0.525
			c0.25-0.125,0.45-0.112,0.6,0.038L16.313,30.875z"/>
		<path style="fill-rule:evenodd;clip-rule:evenodd;fill:#E6D3A3;" d="M14.175,30.8l0.15,0.038c0.449,0.225,0.8,0.475,1.05,0.75
			l0.225,0.3l-0.225,0.188l-0.45,0.3H14.7l-0.938-0.3l0.112-0.45L14.175,30.8z"/>
		<path style="fill-rule:evenodd;clip-rule:evenodd;fill:#D1BD88;" d="M22.987,32.975l-1.688,0.15l0.188-0.263
			c0.399-0.524,0.713-0.787,0.938-0.787c0.101,0,0.188,0.1,0.263,0.3C22.887,32.75,22.987,32.95,22.987,32.975z"/>
		<path style="fill-rule:evenodd;clip-rule:evenodd;fill:#E6D3A3;" d="M20.399,32.713l0.713-0.788
			c0.225-0.225,0.5-0.263,0.825-0.112l0.6,0.3c0.075,0.075-0.125,0.213-0.6,0.413l-0.638,0.6l-0.338-0.075L20.399,32.713z"/>
		
			<linearGradient id="SVGID_25_" gradientUnits="userSpaceOnUse" x1="7.6748" y1="11.0933" x2="9.5248" y2="11.0933" gradientTransform="matrix(0.75 0 0 0.75 4.0498 22.25)">
			<stop  offset="0" style="stop-color:#548735"/>
			<stop  offset="1" style="stop-color:#4A7516"/>
		</linearGradient>
		<path style="fill-rule:evenodd;clip-rule:evenodd;fill:url(#SVGID_25_);" d="M11.175,30.725c0,0.301-0.25,0.438-0.75,0.413
			l-0.6-0.075c-0.1-0.325-0.05-0.588,0.149-0.787c0.3-0.325,0.625-0.363,0.976-0.113C11.125,30.287,11.2,30.475,11.175,30.725z"/>
		
			<linearGradient id="SVGID_26_" gradientUnits="userSpaceOnUse" x1="19.8877" y1="14.6865" x2="22.6127" y2="14.6865" gradientTransform="matrix(0.75 0 0 0.75 4.0498 22.25)">
			<stop  offset="0" style="stop-color:#548735"/>
			<stop  offset="1" style="stop-color:#4A7516"/>
		</linearGradient>
		<path style="fill-rule:evenodd;clip-rule:evenodd;fill:url(#SVGID_26_);" d="M21.037,33.5c0,0.45-0.375,0.662-1.125,0.638
			l-0.9-0.112c-0.125-0.476-0.038-0.888,0.262-1.238c0.45-0.475,0.925-0.524,1.426-0.149C20.95,32.813,21.063,33.1,21.037,33.5z"/>
		
			<linearGradient id="SVGID_27_" gradientUnits="userSpaceOnUse" x1="16.5249" y1="11.228" x2="19.0749" y2="11.228" gradientTransform="matrix(0.75 0 0 0.75 4.0498 22.25)">
			<stop  offset="0" style="stop-color:#548735"/>
			<stop  offset="1" style="stop-color:#4A7516"/>
		</linearGradient>
		<path style="fill-rule:evenodd;clip-rule:evenodd;fill:url(#SVGID_27_);" d="M18.375,30.875c0,0.45-0.35,0.662-1.05,0.638
			l-0.825-0.15c-0.025-0.1-0.038-0.225-0.038-0.375c0-0.3,0.088-0.55,0.263-0.75c0.4-0.475,0.838-0.537,1.313-0.188
			C18.287,30.225,18.4,30.5,18.375,30.875z"/>
		
			<linearGradient id="SVGID_28_" gradientUnits="userSpaceOnUse" x1="22.9004" y1="6.9482" x2="25.4004" y2="6.9482" gradientTransform="matrix(0.75 0 0 0.75 4.0498 22.25)">
			<stop  offset="0" style="stop-color:#548735"/>
			<stop  offset="1" style="stop-color:#4A7516"/>
		</linearGradient>
		<path style="fill-rule:evenodd;clip-rule:evenodd;fill:url(#SVGID_28_);" d="M23.138,27.65c0,0.35-0.351,0.512-1.051,0.487
			l-0.824-0.075c-0.025-0.1-0.038-0.213-0.038-0.338c0-0.25,0.088-0.449,0.263-0.6c0.425-0.4,0.862-0.45,1.313-0.15
			C23.024,27.125,23.138,27.35,23.138,27.65z"/>
		
			<linearGradient id="SVGID_29_" gradientUnits="userSpaceOnUse" x1="31.3877" y1="10.1152" x2="34.1127" y2="10.1152" gradientTransform="matrix(0.75 0 0 0.75 4.0498 22.25)">
			<stop  offset="0" style="stop-color:#548735"/>
			<stop  offset="1" style="stop-color:#4A7516"/>
		</linearGradient>
		<path style="fill-rule:evenodd;clip-rule:evenodd;fill:url(#SVGID_29_);" d="M29.662,30.088c0,0.449-0.375,0.662-1.125,0.637
			l-0.899-0.149c-0.025-0.125-0.038-0.263-0.038-0.413c0.025-0.324,0.125-0.587,0.3-0.787c0.425-0.5,0.9-0.563,1.426-0.188
			C29.574,29.388,29.688,29.688,29.662,30.088z"/>
		
			<linearGradient id="SVGID_30_" gradientUnits="userSpaceOnUse" x1="37.7012" y1="7.417" x2="40.2012" y2="7.417" gradientTransform="matrix(0.75 0 0 0.75 4.0498 22.25)">
			<stop  offset="0" style="stop-color:#548735"/>
			<stop  offset="1" style="stop-color:#4A7516"/>
		</linearGradient>
		<path style="fill-rule:evenodd;clip-rule:evenodd;fill:url(#SVGID_30_);" d="M34.2,27.987c0,0.351-0.338,0.525-1.013,0.525
			L32.362,28.4c-0.024-0.101-0.037-0.213-0.037-0.338c0-0.25,0.087-0.463,0.262-0.638c0.425-0.375,0.863-0.412,1.313-0.112
			C34.125,27.463,34.225,27.688,34.2,27.987z"/>
		
			<linearGradient id="SVGID_31_" gradientUnits="userSpaceOnUse" x1="38.1377" y1="11.2783" x2="40.8627" y2="11.2783" gradientTransform="matrix(0.75 0 0 0.75 4.0498 22.25)">
			<stop  offset="0" style="stop-color:#548735"/>
			<stop  offset="1" style="stop-color:#4A7516"/>
		</linearGradient>
		<path style="fill-rule:evenodd;clip-rule:evenodd;fill:url(#SVGID_31_);" d="M34.35,30.05c0.25,0.2,0.363,0.5,0.338,0.9
			c0,0.45-0.375,0.662-1.125,0.638c-0.275,0-0.5-0.025-0.675-0.075L32.7,31.438c-0.025-0.125-0.038-0.263-0.038-0.412
			c0-0.325,0.088-0.588,0.263-0.788C33.375,29.763,33.85,29.7,34.35,30.05z"/>
		<path style="fill-rule:evenodd;clip-rule:evenodd;fill:#E6C77A;" d="M20.663,23.75c0.825,0.125,1.35,0.275,1.575,0.45
			c0.075,0.05,0.138,0.212,0.188,0.487c0.024,0.15-0.05,0.237-0.225,0.263c-0.025,0-0.288,0-0.788,0c-0.275,0-0.662,0.1-1.163,0.3
			c-0.55,0.25-0.912,0.4-1.087,0.45c-0.275,0.149-0.487,0.263-0.638,0.337c-0.275,0.101-0.524,0.125-0.75,0.075
			c-0.25-0.024-0.3-0.237-0.149-0.638c0.125-0.35,0.313-0.649,0.563-0.899c0.225-0.2,0.625-0.388,1.2-0.563
			C19.938,23.813,20.362,23.725,20.663,23.75z"/>
		<path style="fill-rule:evenodd;clip-rule:evenodd;fill:#664220;" d="M12.075,30.537c0.225,0.075,0.262,0.15,0.112,0.226
			c-0.125,0.075-0.288,0.112-0.487,0.112c-0.201,0-0.238-0.075-0.113-0.225C11.712,30.5,11.875,30.463,12.075,30.537z"/>
		<path style="fill-rule:evenodd;clip-rule:evenodd;fill:#664220;" d="M24.938,33.013c0.4,0,0.662,0.063,0.787,0.188
			s0.075,0.25-0.149,0.375c-0.45,0.2-0.95,0.313-1.5,0.337c-1.101,0.051-1.813-0.063-2.138-0.337
			c-0.1-0.125,0.088-0.213,0.563-0.263c0.574-0.1,0.875-0.162,0.899-0.188C23.5,33.05,24.012,33.013,24.938,33.013z"/>
		<path style="fill-rule:evenodd;clip-rule:evenodd;fill:#664220;" d="M30.412,32.45c0.725,0.024,1.138,0.087,1.237,0.188
			c0.101,0.1-0.062,0.225-0.487,0.375c-0.675,0.25-1.313,0.263-1.912,0.037c-0.3-0.1-0.263-0.237,0.112-0.412
			C29.713,32.487,30.063,32.425,30.412,32.45z"/>
		<path style="fill-rule:evenodd;clip-rule:evenodd;fill:#664220;" d="M22.649,30.162c0.45,0.101,0.601,0.238,0.45,0.413
			c-0.149,0.175-0.463,0.25-0.938,0.225c-0.475-0.024-0.612-0.162-0.412-0.412C21.925,30.112,22.225,30.037,22.649,30.162z"/>
		<path style="fill-rule:evenodd;clip-rule:evenodd;fill:#E6C77A;" d="M11.587,32.075l0.15,0.188
			c0.125,0.125,0.263,0.175,0.412,0.149l0.375-0.074c-0.399,0.175-0.7,0.237-0.899,0.188c-0.15-0.025-0.2-0.113-0.15-0.263
			L11.587,32.075z"/>
		<path style="fill-rule:evenodd;clip-rule:evenodd;fill:#E6C77A;" d="M9.75,31.138c0.1,0.05,0.225,0.1,0.375,0.149
			c0.1,0.051,0.112,0.088,0.037,0.113c-0.075,0.05-0.225,0.037-0.45-0.038c-0.125-0.024-0.174-0.075-0.149-0.149
			C9.587,31.138,9.65,31.112,9.75,31.138z"/>
		<path style="fill-rule:evenodd;clip-rule:evenodd;fill:#E6C77A;" d="M10.688,31.287c0.125,0.025,0.175,0.063,0.149,0.113
			c-0.024,0.05-0.087,0.074-0.188,0.074C10.525,31.475,10.537,31.412,10.688,31.287z"/>
		<path style="fill-rule:evenodd;clip-rule:evenodd;fill:#E6C77A;" d="M12.149,30.125c0,0.125,0.201,0.188,0.601,0.188
			c0.25,0,0.475-0.037,0.675-0.112c-0.25,0.225-0.5,0.325-0.75,0.3c-0.5-0.05-0.75-0.15-0.75-0.3c0-0.075,0.037-0.112,0.112-0.112
			C12.087,30.088,12.125,30.1,12.149,30.125z"/>
		<path style="fill-rule:evenodd;clip-rule:evenodd;fill:#E6C77A;" d="M16.763,31.7h0.637c-0.375,0.175-0.662,0.287-0.862,0.337
			c-0.45,0.051-0.762,0.188-0.938,0.413c-0.225,0.274-0.587,0.375-1.087,0.3c-0.25-0.025-0.45-0.112-0.601-0.263l-0.188-0.225
			l0.226,0.112c0.475,0.175,0.824,0.225,1.05,0.15c0.225-0.075,0.524-0.263,0.899-0.563C16.3,31.787,16.587,31.7,16.763,31.7z"/>
		<path style="fill-rule:evenodd;clip-rule:evenodd;fill:#E6C77A;" d="M18.899,31.287l0.45,0.075
			c0.325,0.025,0.551,0.013,0.675-0.037c0.225-0.075,0.425-0.112,0.6-0.112c-0.05,0.324-0.25,0.462-0.6,0.412L18.899,31.287z"/>
		<path style="fill-rule:evenodd;clip-rule:evenodd;fill:#E6C77A;" d="M21.412,30.838l0.112,0.112
			c0.101,0.05,0.251,0.075,0.45,0.075h0.862c-0.499,0.225-0.888,0.287-1.162,0.188c-0.175-0.075-0.274-0.163-0.3-0.263
			L21.412,30.838z"/>
		<path style="fill-rule:evenodd;clip-rule:evenodd;fill:#E6C77A;" d="M21.899,29.412c0.375,0.025,0.525,0.15,0.45,0.375
			l-0.45-0.037c-0.175-0.025-0.249-0.088-0.225-0.188C21.725,29.438,21.8,29.388,21.899,29.412z"/>
		<path style="fill-rule:evenodd;clip-rule:evenodd;fill:#E6C77A;" d="M23.1,29.975c0.15,0.051,0.413,0.101,0.788,0.15
			c0.2,0.05,0.149,0.075-0.15,0.075c-0.425-0.025-0.713-0.063-0.862-0.112C22.8,30.037,22.787,30,22.837,29.975
			C22.862,29.95,22.95,29.95,23.1,29.975z"/>
		<path style="fill-rule:evenodd;clip-rule:evenodd;fill:#E6C77A;" d="M16.537,33.463l0.15,0.188l0.6,0.262
			c-0.125,0.025-0.35,0.025-0.675,0c-0.2-0.024-0.3-0.1-0.3-0.225C16.337,33.563,16.412,33.487,16.537,33.463z"/>
		<path style="fill-rule:evenodd;clip-rule:evenodd;fill:#E6C77A;" d="M27.3,32.15c0.3,0,0.538,0.063,0.713,0.188
			c0.149,0.125,0.399,0.212,0.75,0.262c-0.55,0.025-1.001,0.025-1.351,0c-0.225,0-0.35-0.074-0.375-0.225S27.1,32.15,27.3,32.15z"/>
		<path style="fill-rule:evenodd;clip-rule:evenodd;fill:#E6C77A;" d="M27.375,30.575l0.112,0.188
			c0.101,0.1,0.274,0.149,0.525,0.149h0.675c-0.725,0.301-1.2,0.351-1.425,0.15c-0.15-0.125-0.175-0.237-0.075-0.338
			C27.237,30.65,27.3,30.6,27.375,30.575z"/>
		<path style="fill-rule:evenodd;clip-rule:evenodd;fill:#E6C77A;" d="M32.212,31.438l0.188,0.188c0.15,0.1,0.351,0.15,0.601,0.15
			c0.925,0,1.188,0.024,0.787,0.074c-0.375,0.025-0.688,0.038-0.938,0.038c-0.45,0.024-0.712,0-0.787-0.075
			c-0.051-0.05-0.038-0.125,0.037-0.225C32.125,31.537,32.162,31.487,32.212,31.438z"/>
		<path style="fill-rule:evenodd;clip-rule:evenodd;fill:#E6C77A;" d="M32.063,28.438l0.188,0.15c0.199,0.1,0.475,0.137,0.825,0.112
			l0.862-0.038c-0.525,0.325-1.063,0.426-1.612,0.301c-0.351-0.075-0.501-0.188-0.45-0.338L32.063,28.438z"/>
		<path style="fill-rule:evenodd;clip-rule:evenodd;fill:#E6C77A;" d="M21.3,28.287c0.325,0.075,0.55,0.101,0.675,0.075
			c-0.175,0.226-0.337,0.3-0.487,0.226C21.387,28.563,21.324,28.5,21.3,28.4V28.287z"/>
		
			<linearGradient id="SVGID_32_" gradientUnits="userSpaceOnUse" x1="15.7373" y1="4.3896" x2="24.0623" y2="4.3896" gradientTransform="matrix(0.75 0 0 0.75 4.0498 22.25)">
			<stop  offset="0" style="stop-color:#ED4A26"/>
			<stop  offset="0.9922" style="stop-color:#B84C1D"/>
		</linearGradient>
		<path style="fill-rule:evenodd;clip-rule:evenodd;fill:url(#SVGID_32_);" d="M21.825,23.787l0.262,0.263l-0.337-0.037
			c-0.2-0.15-0.388-0.263-0.563-0.338c-0.325-0.149-0.725-0.162-1.2-0.037c-0.425,0.125-0.713,0.313-0.862,0.563
			c-0.226,0.475-0.4,0.774-0.525,0.899c-0.8,0.801-1.35,1.325-1.649,1.575c-0.275,0.226-0.5,0.5-0.676,0.825l-0.149,0.412
			l-0.3-0.225L16.05,27.2c0.225-0.5,0.6-0.925,1.125-1.275c0.35-0.25,0.587-0.438,0.713-0.563c0.2-0.2,0.399-0.513,0.6-0.938
			C18.712,24,18.95,23.7,19.2,23.525c0.25-0.176,0.587-0.288,1.012-0.338C20.787,23.112,21.324,23.313,21.825,23.787z"/>
		
			<linearGradient id="SVGID_33_" gradientUnits="userSpaceOnUse" x1="21.3496" y1="3.7705" x2="31.9496" y2="3.7705" gradientTransform="matrix(0.75 0 0 0.75 4.0498 22.25)">
			<stop  offset="0" style="stop-color:#FF3C00"/>
			<stop  offset="1" style="stop-color:#BD2C00"/>
		</linearGradient>
		<path style="fill-rule:evenodd;clip-rule:evenodd;fill:url(#SVGID_33_);" d="M25.425,25.737l2.588,0.487
			c-0.75,0.051-1.426,0.038-2.025-0.037c-0.274-0.025-0.688-0.037-1.237-0.037c-0.475,0-0.801-0.025-0.976-0.075
			c-0.399-0.125-0.999-0.5-1.8-1.125c-0.55-0.45-1.15-0.675-1.8-0.675c-0.15,0-0.188-0.063-0.113-0.188l0.15-0.188l0.563,0.037
			c0.425,0.1,0.825,0.3,1.2,0.6c0.926,0.801,1.662,1.2,2.213,1.2H25.425z"/>
		
			<linearGradient id="SVGID_34_" gradientUnits="userSpaceOnUse" x1="19.6875" y1="5.709" x2="28.7125" y2="5.709" gradientTransform="matrix(0.75 0 0 0.75 4.0498 22.25)">
			<stop  offset="0" style="stop-color:#FF3C00"/>
			<stop  offset="1" style="stop-color:#BD2C00"/>
		</linearGradient>
		<path style="fill-rule:evenodd;clip-rule:evenodd;fill:url(#SVGID_34_);" d="M25.125,25.325c0.574,0.2,0.675,0.337,0.3,0.412
			c-0.2,0.05-0.476,0.038-0.825-0.037c-0.4-0.05-0.675-0.075-0.825-0.075c-0.35,0.05-0.888,0.362-1.612,0.938
			c-0.275,0.225-1.013,0.6-2.212,1.125c-0.275,0.15-0.55,0.162-0.825,0.037l-0.3-0.225H19.2c0.3-0.025,0.563-0.1,0.787-0.225
			c0.375-0.226,0.95-0.476,1.725-0.75c0.126-0.075,0.375-0.25,0.75-0.525s0.737-0.463,1.088-0.563
			C24.125,25.237,24.65,25.2,25.125,25.325z"/>
		
			<linearGradient id="SVGID_35_" gradientUnits="userSpaceOnUse" x1="17.3125" y1="4.4004" x2="27.5875" y2="4.4004" gradientTransform="matrix(0.75 0 0 0.75 4.0498 22.25)">
			<stop  offset="0" style="stop-color:#FF7B00"/>
			<stop  offset="0.9922" style="stop-color:#DB6A00"/>
		</linearGradient>
		<path style="fill-rule:evenodd;clip-rule:evenodd;fill:url(#SVGID_35_);" d="M22.763,26.225c0.35,0,0.862-0.087,1.537-0.262h0.45
			c-0.575,0.324-1.1,0.487-1.575,0.487c-0.75,0-1.487-0.275-2.213-0.825c-0.449-0.35-1.237-0.525-2.362-0.525
			c-0.325,0-0.688,0.088-1.087,0.263l-0.488,0.226l0.15-0.338l0.338-0.3c0.3-0.2,0.662-0.3,1.087-0.3
			c1.075,0,1.925,0.225,2.55,0.675C21.925,25.925,22.462,26.225,22.763,26.225z"/>
		
			<linearGradient id="SVGID_36_" gradientUnits="userSpaceOnUse" x1="24.6875" y1="4.4009" x2="29.0107" y2="4.4009" gradientTransform="matrix(0.75 0 0 0.75 4.0498 22.25)">
			<stop  offset="0" style="stop-color:#FF7B00"/>
			<stop  offset="0.9922" style="stop-color:#DB6A00"/>
		</linearGradient>
		<path style="fill-rule:evenodd;clip-rule:evenodd;fill:url(#SVGID_36_);" d="M23.325,22.662c0.274-0.3,0.537-0.237,0.787,0.188
			h-0.15c-0.124,0-0.287,0.101-0.487,0.301c-0.225,0.25-0.362,0.537-0.412,0.862c-0.051,0.3,0.125,0.612,0.524,0.938
			c0.226,0.2,0.538,0.462,0.938,0.787c0.626,0.675,0.976,1.226,1.051,1.65c0.074,0.399-0.088,0.688-0.488,0.862l0.601,0.15
			l0.112,0.225c-0.45-0.075-0.8-0.188-1.05-0.338c-0.15-0.074-0.162-0.188-0.038-0.337c0.226-0.25,0.351-0.438,0.375-0.563
			c0.05-0.226-0.05-0.476-0.3-0.75c-0.075-0.101-0.412-0.438-1.013-1.013c-0.425-0.35-0.687-0.563-0.787-0.638
			c-0.15-0.125-0.274-0.375-0.375-0.75c-0.125-0.399-0.037-0.774,0.263-1.125C23,22.912,23.15,22.763,23.325,22.662z"/>
		
			<linearGradient id="SVGID_37_" gradientUnits="userSpaceOnUse" x1="23.6377" y1="6.2051" x2="32.3627" y2="6.2051" gradientTransform="matrix(0.75 0 0 0.75 4.0498 22.25)">
			<stop  offset="0" style="stop-color:#FF7B00"/>
			<stop  offset="0.9922" style="stop-color:#DB6A00"/>
		</linearGradient>
		<path style="fill-rule:evenodd;clip-rule:evenodd;fill:url(#SVGID_37_);" d="M27.6,24.725c0.426-0.225,0.675-0.087,0.75,0.413
			c-0.45,0.149-0.775,0.35-0.975,0.6c-0.25,0.351-0.813,0.675-1.688,0.976c-0.375,0.149-0.713,0.35-1.013,0.6
			c-0.351,0.3-0.625,0.525-0.825,0.675c-0.5,0.325-1.013,0.487-1.537,0.487c-0.176,0-0.213,0.125-0.112,0.375
			c0.05,0.101,0.112,0.213,0.188,0.338L21.862,29c-0.05-0.125-0.075-0.263-0.075-0.412c0.025-0.275,0.188-0.413,0.487-0.413
			c0.325,0,0.601-0.05,0.825-0.149c0.125-0.075,0.388-0.25,0.788-0.525c0.225-0.15,0.537-0.388,0.938-0.713
			c0.375-0.25,0.763-0.449,1.162-0.6C26.612,25.963,27.149,25.475,27.6,24.725z"/>
		
			<linearGradient id="SVGID_38_" gradientUnits="userSpaceOnUse" x1="16.6875" y1="8.1133" x2="25.1125" y2="8.1133" gradientTransform="matrix(0.75 0 0 0.75 4.0498 22.25)">
			<stop  offset="0" style="stop-color:#FF7B00"/>
			<stop  offset="0.9922" style="stop-color:#DB6A00"/>
		</linearGradient>
		<path style="fill-rule:evenodd;clip-rule:evenodd;fill:url(#SVGID_38_);" d="M20.437,27.763c-0.2,0.1-0.462,0.3-0.788,0.6
			c-0.325,0.3-0.7,0.538-1.125,0.713c-0.475,0.2-0.875,0.325-1.199,0.375h-0.75l0.149-0.226c0.25-0.3,0.813-0.55,1.688-0.75
			c0.4-0.125,0.675-0.225,0.825-0.3c0.15-0.1,0.288-0.263,0.412-0.487c0.125-0.225,0.575-0.362,1.35-0.412
			c0.651-0.075,1.201-0.075,1.65,0c0.501,0.074,0.388,0.162-0.337,0.262C21.563,27.463,20.938,27.537,20.437,27.763z"/>
		
			<linearGradient id="SVGID_39_" gradientUnits="userSpaceOnUse" x1="19.9126" y1="6.2739" x2="31.0876" y2="6.2739" gradientTransform="matrix(0.75 0 0 0.75 4.0498 22.25)">
			<stop  offset="0" style="stop-color:#ED4A26"/>
			<stop  offset="0.9922" style="stop-color:#B84C1D"/>
		</linearGradient>
		<path style="fill-rule:evenodd;clip-rule:evenodd;fill:url(#SVGID_39_);" d="M19.763,25.85c0.499,0.15,0.962,0.338,1.387,0.563
			c0.126,0.075,0.413,0.275,0.863,0.601c0.274,0.2,0.587,0.325,0.938,0.375c0.3,0.05,0.75,0.125,1.35,0.225
			c0.525,0.075,0.95,0.101,1.275,0.075l1.574-0.131c-0.449,0.053-0.912,0.209-1.387,0.469c-0.501,0.274-1.65,0.112-3.45-0.488
			c-0.45-0.149-1.037-0.524-1.763-1.125c-0.25-0.225-0.587-0.387-1.013-0.487l-0.563-0.075
			C18.975,25.725,19.237,25.725,19.763,25.85z"/>
		
			<linearGradient id="SVGID_40_" gradientUnits="userSpaceOnUse" x1="16.5005" y1="5.6348" x2="31.6255" y2="5.6348" gradientTransform="matrix(0.75 0 0 0.75 4.0498 22.25)">
			<stop  offset="0" style="stop-color:#ED4A26"/>
			<stop  offset="0.9922" style="stop-color:#B84C1D"/>
		</linearGradient>
		<path style="fill-rule:evenodd;clip-rule:evenodd;fill:url(#SVGID_40_);" d="M27.6,25.85L26.662,25.4
			c-0.975-0.5-1.575-0.7-1.8-0.601c-0.45,0.325-0.8,0.538-1.05,0.638c-1.25,0.35-1.913,0.525-1.987,0.525
			c-0.375,0.05-0.788,0.149-1.238,0.3c-0.55,0.2-0.899,0.399-1.05,0.6c-0.125,0.175-0.4,0.362-0.825,0.563
			c-0.575,0.226-0.899,0.362-0.975,0.413L16.763,28.4l-0.338-0.226l1.013-0.375c0.725-0.3,1.274-0.6,1.649-0.899
			c0.775-0.601,1.801-1.013,3.075-1.238c0.525-0.1,1.025-0.262,1.5-0.487c0.25-0.125,0.575-0.3,0.976-0.524
			c0.449-0.25,1.237-0.025,2.362,0.675l0.787,0.375L27.6,25.85z"/>
		
			<linearGradient id="SVGID_41_" gradientUnits="userSpaceOnUse" x1="18.4248" y1="6.084" x2="30.2748" y2="6.084" gradientTransform="matrix(0.75 0 0 0.75 4.0498 22.25)">
			<stop  offset="0" style="stop-color:#ED4A26"/>
			<stop  offset="0.9922" style="stop-color:#B84C1D"/>
		</linearGradient>
		<path style="fill-rule:evenodd;clip-rule:evenodd;fill:url(#SVGID_41_);" d="M19.537,26.862c0.175,0.025,0.9-0.087,2.175-0.337
			c0.375-0.101,0.813-0.125,1.313-0.075c0.501,0.024,0.913,0.112,1.238,0.263c0.55,0.225,1.112,0.287,1.688,0.188l0.824-0.113
			c-0.225,0.15-0.537,0.275-0.938,0.375c-0.249,0.075-0.6,0.038-1.05-0.112c-0.075-0.024-0.463-0.162-1.162-0.412
			c-0.275-0.101-0.788-0.088-1.538,0.037c-1.075,0.175-1.774,0.275-2.1,0.3c-0.6,0.025-1.088-0.024-1.463-0.149
			c-0.3-0.15-0.524-0.25-0.675-0.3l0.75-0.075L19.537,26.862z"/>
		<path style="fill-rule:evenodd;clip-rule:evenodd;fill:#F5F5F5;" d="M37.987,28.213h1.088c0.05,0.149,0.074,0.35,0.074,0.6
			c0,1.825-1.712,3.375-5.137,4.65c-3.425,1.274-7.563,1.912-12.413,1.912c-4.85,0-8.987-0.638-12.412-1.912
			c-3.425-1.275-5.138-2.825-5.138-4.65l0.075-0.6h1.274v0.337c0,1.625,1.588,3,4.763,4.125c3.175,1.15,7.013,1.726,11.513,1.726
			c4.524,0,8.375-0.575,11.55-1.726c3.176-1.125,4.763-2.5,4.763-4.125V28.213z"/>
	</g>
	
		<use xlink:href="#halfbowl"  width="47.024" height="26.01" x="-0.062" y="-25.76" transform="matrix(0.7477 0.0585 0.0585 -0.7477 4.8501 13.8501)" style="overflow:visible;"/>
	
		<use xlink:href="#halfbowl"  width="47.024" height="26.01" x="-0.062" y="-25.76" transform="matrix(0.7459 -0.078 -0.078 -0.7459 3.2002 9.6499)" style="overflow:visible;"/>
	
		<use xlink:href="#halfbowl"  width="47.024" height="26.01" x="-0.062" y="-25.76" transform="matrix(0.7498 0.0168 0.0168 -0.7498 4.3501 0.2002)" style="overflow:visible;"/>
	<g>
		<path style="fill-rule:evenodd;clip-rule:evenodd;fill:#644922;" d="M32.35,20.85c-0.169,0.401-0.419,0.667-0.75,0.8
			c-0.633,0.166-0.916-0.034-0.85-0.601c0.1-0.566,0.15-0.933,0.15-1.1c0.033-0.167-0.051-0.417-0.25-0.75
			c-0.2-0.367-0.434-0.567-0.7-0.6c-0.3-0.033-0.45-0.184-0.45-0.45c0-0.29,0.108-0.457,0.325-0.5
			c-0.017,0.009-0.025,0.026-0.025,0.05c0,0.033,0.25,0.183,0.75,0.45c0.5,0.2,0.8,0.533,0.9,1c0,0.067,0,0.434,0,1.1
			c0,0.7,0.133,1.017,0.399,0.95C32.08,21.2,32.246,21.083,32.35,20.85z M9.75,13.35c0.033,0.2,0.1,0.45,0.2,0.75
			c0.167,0.6,0.483,0.9,0.95,0.9c0.1,0,0.15-0.083,0.15-0.25c0-0.2-0.05-0.45-0.15-0.75c-0.1-0.333-0.167-0.583-0.2-0.75
			c0-0.167-0.067-0.433-0.2-0.8c-0.1-0.3-0.15-0.55-0.15-0.75c0-0.2,0.133-0.534,0.4-1c0.3-0.5,0.45-0.784,0.45-0.85
			c0.167,0.033,0.3,0.117,0.4,0.25c0.167,0.167,0.25,0.367,0.25,0.6c0,0.233-0.117,0.417-0.35,0.55s-0.35,0.233-0.35,0.3
			c0,0.1,0.1,0.483,0.3,1.15c0.2,0.633,0.3,1.083,0.3,1.35c0,0.333-0.017,0.567-0.05,0.7c-0.133,0.367-0.383,0.55-0.75,0.55
			c-0.567,0-0.95-0.333-1.15-1C9.767,13.8,9.75,13.483,9.75,13.35z M6.1,23.9c0.167,0.399,0.55,0.649,1.15,0.75
			c0.367,0.066,0.6-0.034,0.7-0.301c0.066-0.3,0.117-0.183,0.15,0.351c0,0.5,0.033,0.983,0.1,1.45c0.1,0.466,0.283,0.649,0.55,0.55
			C8.883,26.634,9,26.45,9.1,26.15c0.133-0.301,0.3-0.434,0.5-0.4c0.233,0,0.35,0.05,0.35,0.15c0.033,0.1,0.3,0.233,0.8,0.399
			c0.067,0,0.15-0.05,0.25-0.149c0.067,0,0.2,0.216,0.4,0.649c0.2,0.334,0.467,0.384,0.8,0.15c0.133-0.134,0.316-0.283,0.55-0.45
			c0.133-0.134,0.217-0.3,0.25-0.5c0.2,0.267,0.267,0.55,0.2,0.85c-0.1,0.534-0.35,0.967-0.75,1.301c-0.434,0.233-0.733,0.233-0.9,0
			c-0.2-0.301-0.4-0.584-0.6-0.851c-0.233-0.2-0.583-0.399-1.05-0.6c-0.467-0.134-0.683,0.1-0.65,0.7
			c0.033,0.566-0.2,0.816-0.7,0.75c-0.5-0.067-0.816-0.467-0.95-1.2c0.033-0.733,0.017-1.184-0.05-1.351
			c-0.9-0.966-1.367-1.466-1.4-1.5C6.117,24.033,6.1,23.967,6.1,23.9z"/>
		<path style="fill-rule:evenodd;clip-rule:evenodd;fill:#906A32;" d="M32,17.95c0.2,0.167,0.35,0.367,0.45,0.6
			c0.1,0.267,0.149,0.7,0.149,1.3c0,0.5-0.083,0.816-0.25,0.95v0.05c-0.104,0.233-0.27,0.35-0.5,0.35
			c-0.267,0.066-0.399-0.25-0.399-0.95c0-0.667,0-1.033,0-1.1c-0.101-0.467-0.4-0.8-0.9-1c-0.5-0.267-0.75-0.417-0.75-0.45
			c0-0.024,0.009-0.041,0.025-0.05h0.024c0.067-0.066,0.167-0.1,0.301-0.1c-0.067,0.034-0.101,0.083-0.101,0.15
			c0,0.1,0.167,0.216,0.5,0.35c0.367,0.133,0.667,0.233,0.9,0.3c0.233,0.033,0.366,0,0.399-0.1
			C31.884,18.083,31.934,17.983,32,17.95z M31.7,20.8c0.033,0.067,0.083,0.1,0.149,0.1c0.134,0,0.217-0.066,0.25-0.2v-0.05
			c0-0.167-0.083-0.25-0.25-0.25L31.7,20.45V20.8z M11.2,9.85c0,0.066-0.15,0.35-0.45,0.85c-0.267,0.466-0.4,0.8-0.4,1
			c0,0.2,0.05,0.45,0.15,0.75c0.133,0.367,0.2,0.633,0.2,0.8c0.033,0.167,0.1,0.417,0.2,0.75c0.1,0.3,0.15,0.55,0.15,0.75
			C11.05,14.917,11,15,10.9,15c-0.467,0-0.783-0.3-0.95-0.9c-0.1-0.3-0.167-0.55-0.2-0.75C9.683,13.15,9.6,13,9.5,12.9
			c-0.267-0.367-0.45-0.7-0.55-1c-0.034-0.267-0.05-0.6-0.05-1s0.017-0.65,0.05-0.75c0.233-0.333,0.75-0.5,1.55-0.5
			C10.9,9.65,11.133,9.717,11.2,9.85z M10.5,10.75c0.1-0.1,0.15-0.2,0.15-0.3c0-0.067-0.066-0.167-0.2-0.3
			C10.283,9.983,10.067,9.9,9.8,9.9c-0.4,0-0.6,0.184-0.6,0.55c0,0.1,0.05,0.2,0.15,0.3c0.1,0.133,0.267,0.2,0.5,0.2
			S10.3,10.883,10.5,10.75z M13,26c-0.033,0.2-0.117,0.366-0.25,0.5c-0.233,0.167-0.417,0.316-0.55,0.45
			c-0.333,0.233-0.6,0.184-0.8-0.15c-0.2-0.434-0.333-0.649-0.4-0.649c-0.1,0.1-0.183,0.149-0.25,0.149
			c-0.5-0.166-0.767-0.3-0.8-0.399c0-0.101-0.117-0.15-0.35-0.15c-0.2-0.033-0.367,0.1-0.5,0.4c-0.1,0.3-0.217,0.483-0.35,0.55
			c-0.267,0.1-0.45-0.084-0.55-0.55c-0.067-0.467-0.1-0.95-0.1-1.45c-0.033-0.533-0.083-0.65-0.15-0.351
			c-0.1,0.267-0.333,0.367-0.7,0.301C6.65,24.55,6.267,24.3,6.1,23.9L6.05,23.85V23.8c-0.1-0.233-0.117-0.517-0.05-0.85
			c0.1-0.733,0.317-1.084,0.65-1.05c0.133,0.033,0.333,0.116,0.6,0.25C6.817,21.983,6.567,22.134,6.5,22.6
			c-0.067,0.334,0.133,0.65,0.6,0.95C7.367,23.65,7.933,23.9,8.8,24.3c0.167,0.101,0.35,0.267,0.55,0.5
			c0.2,0.233,0.35,0.384,0.45,0.45c1.434,0.5,2.25,0.75,2.45,0.75c0.267,0.066,0.417-0.066,0.45-0.4c0-0.033,0-0.066,0-0.1
			C12.933,25.733,13.033,25.9,13,26z M10.45,14.2c-0.167,0.066-0.25,0.15-0.25,0.25c0,0.066,0.083,0.133,0.25,0.2
			c0.133-0.133,0.2-0.217,0.2-0.25C10.65,14.233,10.583,14.167,10.45,14.2z"/>
		<path style="fill-rule:evenodd;clip-rule:evenodd;fill:#B5964A;" d="M30.15,17.55c0.133-0.066,0.333-0.1,0.6-0.1
			c0.134,0,0.3,0.05,0.5,0.15c0.233,0.033,0.4,0.05,0.5,0.05s0.184,0.1,0.25,0.3c-0.066,0.033-0.116,0.133-0.15,0.3
			c-0.033,0.1-0.166,0.133-0.399,0.1c-0.233-0.067-0.533-0.167-0.9-0.3c-0.333-0.133-0.5-0.25-0.5-0.35
			C30.05,17.633,30.083,17.583,30.15,17.55z M31.7,20.8v-0.35l0.149-0.05c0.167,0,0.25,0.083,0.25,0.25v0.05
			c-0.033,0.133-0.116,0.2-0.25,0.2C31.783,20.9,31.733,20.867,31.7,20.8z M10.5,10.75c-0.2,0.133-0.417,0.2-0.65,0.2
			s-0.4-0.067-0.5-0.2c-0.1-0.1-0.15-0.2-0.15-0.3c0-0.367,0.2-0.55,0.6-0.55c0.267,0,0.483,0.083,0.65,0.25
			c0.133,0.133,0.2,0.233,0.2,0.3C10.65,10.55,10.6,10.65,10.5,10.75z M12.7,25.5c0,0.033,0,0.066,0,0.1
			c-0.034,0.334-0.184,0.467-0.45,0.4c-0.2,0-1.017-0.25-2.45-0.75c-0.1-0.066-0.25-0.217-0.45-0.45
			c-0.2-0.233-0.383-0.399-0.55-0.5C7.933,23.9,7.367,23.65,7.1,23.55c-0.467-0.3-0.667-0.616-0.6-0.95
			c0.067-0.466,0.317-0.616,0.75-0.449c0.1,0,0.167,0.066,0.2,0.199c0.033,0.101,0.267,0.45,0.7,1.051c0.4,0.533,1.3,0.983,2.7,1.35
			C12.217,25.116,12.833,25.366,12.7,25.5z M10.45,14.2c0.133-0.034,0.2,0.033,0.2,0.2c0,0.033-0.066,0.117-0.2,0.25
			c-0.167-0.066-0.25-0.133-0.25-0.2C10.2,14.35,10.283,14.267,10.45,14.2z"/>
	</g>
</g>
</svg>
