<?xml version="1.0" encoding="iso-8859-1"?>
<!-- Generator: Adobe Illustrator 15.1.0, SVG Export Plug-In . SVG Version: 6.00 Build 0)  -->
<!DOCTYPE svg PUBLIC "-//W3C//DTD SVG 1.1//EN" "http://www.w3.org/Graphics/SVG/1.1/DTD/svg11.dtd">
<svg version="1.1" id="Layer_1" xmlns="http://www.w3.org/2000/svg" xmlns:xlink="http://www.w3.org/1999/xlink" x="0px" y="0px"
	 width="64.1px" height="31.4px" viewBox="0 0 64.1 31.4" style="enable-background:new 0 0 64.1 31.4;" xml:space="preserve">
<symbol  id="item_x5F_rasherBacon" viewBox="-32.031 0 64.107 28.819">
	<g id="Layer_1_2_">
		<g>
			<path style="fill-rule:evenodd;clip-rule:evenodd;fill:#ECB6A3;" d="M9.582,16.685c0.226-0.063,0.45-0.116,0.671-0.161
				c0.634-0.178,1.203-0.421,1.704-0.729c0.264-0.181,0.501-0.375,0.713-0.581c0.206-0.232,0.387-0.483,0.543-0.753
				c0.13-0.264,0.27-0.538,0.417-0.822c0.097-0.226,0.281-0.38,0.555-0.462c0.431-0.136,0.638-0.416,0.62-0.84
				c-0.031-0.284-0.017-0.562,0.043-0.833c0.018-0.199,0.068-0.389,0.153-0.57c0.334-0.665,0.844-1.139,1.531-1.422
				c1.113-0.492,2.231-0.755,3.354-0.79c1.121-0.071,2.131,0.158,3.031,0.687c0.144,0.086,0.324,0.176,0.538,0.27
				c1.369,0.164,2.625-0.302,3.769-1.396c0.174-0.157,0.339-0.305,0.496-0.442c0.404-0.347,0.576-0.809,0.516-1.388
				c-0.073-0.487-0.209-0.895-0.409-1.223c-0.021,0.078-0.034,0.17-0.038,0.277c-0.066,0.246-0.173,0.51-0.321,0.794
				c-0.139,0.25-0.253,0.609-0.342,1.076c-0.277-0.038-0.64,0.11-1.089,0.445c-0.475,0.388-0.8,0.642-0.977,0.762
				c-0.122,0.052-0.478,0.106-1.067,0.163c-0.537,0.036-0.927,0.04-1.17,0.01c-0.336-0.042-0.711-0.185-1.125-0.427
				c-0.416-0.279-0.668-0.413-0.755-0.4c-1.278-0.103-2.564,0.073-3.86,0.528c-1.698,0.575-2.672,1.439-2.922,2.594
				c-0.03,0.112-0.042,0.313-0.035,0.602c0.021,0.281,0.012,0.512-0.024,0.694c-0.067,0.341-0.249,0.55-0.545,0.626
				c-0.364,0.106-0.662,0.325-0.895,0.658c-0.078,0.111-0.193,0.409-0.348,0.895c-0.127,0.433-0.227,0.712-0.296,0.837
				c-0.372,0.451-0.827,0.785-1.363,1C10.594,16.379,10.236,16.486,9.582,16.685z"/>
			<path style="fill-rule:evenodd;clip-rule:evenodd;fill:#DA5B5B;" d="M-25.279,17.079l-0.004,0.017
				c0.027,0.031,0.068,0.061,0.121,0.086c-0.096-0.001-0.194,0.009-0.295,0.029c0.022,0.006,0.035,0.027,0.037,0.063
				c-0.304-0.117-0.684-0.153-1.139-0.107c-0.66,0.051-1.142,0.018-1.446-0.1c-0.083-0.047-0.251-0.134-0.505-0.262
				c-0.222-0.155-0.344-0.235-0.366-0.241c-0.086-0.035-0.21-0.021-0.371,0.044c-0.138,0.023-0.222,0.066-0.251,0.131
				c-0.046,0.083-0.073,0.184-0.081,0.302c0.581,0.335,1.206,0.64,1.874,0.915c0.706,0.225,1.283,0.595,1.732,1.11
				c0.336,0.354,0.715,0.683,1.137,0.987c0.121-0.004,0.229-0.028,0.325-0.075c0.022,0.007,0.199-0.072,0.53-0.234
				c0.263-0.134,0.464-0.193,0.604-0.18c0.116-0.028,0.36-0.023,0.732,0.017c0.34-0.017,0.566-0.1,0.678-0.25
				c0.02-0.03,0.071-0.196,0.151-0.498c0.076-0.327,0.148-0.529,0.216-0.606c0.195-0.235,0.573-0.439,1.134-0.612
				c0.446-0.144,0.747-0.195,0.903-0.153c0.334,0.006,0.749-0.11,1.243-0.349c0.184-0.106,0.527-0.314,1.029-0.623
				c0.803-0.539,1.536-0.882,2.197-1.028c0.698-0.148,1.394-0.105,2.085,0.128c0.868,0.292,1.592,0.541,2.172,0.744
				c0.697,0.259,1.305,0.493,1.823,0.704c-0.006,0.022-0.022,0.036-0.047,0.041c-0.353-0.022-0.82-0.112-1.401-0.268
				c-0.642-0.196-1.142-0.342-1.5-0.438c-1.211-0.349-2.164-0.413-2.858-0.191c-0.508,0.151-1.035,0.399-1.583,0.744
				c-0.514,0.353-1.014,0.59-1.501,0.711c-0.737,0.113-1.293,0.222-1.668,0.325c-0.628,0.155-1.077,0.4-1.346,0.735
				c-0.038,0.05-0.088,0.149-0.153,0.3c-0.067,0.162-0.114,0.269-0.14,0.322c-0.152,0.21-0.465,0.396-0.939,0.557
				c0.357-0.036,0.736-0.133,1.137-0.289c0.342-0.159,0.935-0.474,1.779-0.941c0.743-0.448,1.474-0.719,2.193-0.813
				c0.186-0.022,0.48-0.051,0.885-0.086c0.349-0.051,0.693-0.107,1.034-0.172c0.752-0.218,1.554-0.326,2.404-0.326
				c0.491,0,1.182,0.035,2.073,0.106c0.241-0.007,0.994-0.045,2.257-0.113c0.894-0.072,1.56-0.056,1.999,0.05
				c0.162,0.02,0.337,0.15,0.523,0.393c0.187,0.241,0.378,0.376,0.574,0.404c0.171,0.034,0.437-0.021,0.798-0.163
				C-4.11,17.8-3.72,17.772-3.32,17.844c0.033,0.009,0.084,0.022,0.151,0.04c0.25-0.04,0.491-0.065,0.721-0.076
				c0.359,0.001,0.644,0.077,0.854,0.229c0.134,0.083,0.275,0.157,0.426,0.222c0.165,0.056,0.36,0.042,0.585-0.041
				c0.423-0.15,0.844-0.289,1.261-0.416l0.034,0.009c0.268,0.071,0.458,0.188,0.57,0.351c0.401-0.156,0.828-0.275,1.281-0.357
				c0.571-0.074,1.132-0.068,1.683,0.02c0.292,0.03,0.564,0.086,0.818,0.165c0.167,0.045,0.37,0.094,0.608,0.146
				c0.927,0.116,1.801,0.003,2.623-0.339c0.167-0.087,0.293-0.179,0.379-0.275c0.113-0.245,0.171-0.481,0.171-0.709
				c0.197-0.019,0.409-0.052,0.637-0.099l0.098-0.027c0.654-0.198,1.012-0.306,1.074-0.323c0.537-0.215,0.991-0.549,1.363-1
				c0.069-0.125,0.168-0.404,0.296-0.837c0.154-0.485,0.27-0.784,0.348-0.895c0.233-0.333,0.531-0.552,0.895-0.658
				c0.296-0.077,0.478-0.285,0.545-0.626c0.037-0.182,0.045-0.413,0.024-0.694c-0.007-0.289,0.005-0.49,0.035-0.602
				c0.25-1.154,1.224-2.019,2.922-2.594c1.295-0.455,2.582-0.631,3.86-0.528c0.087-0.013,0.339,0.121,0.755,0.4
				c0.414,0.243,0.789,0.385,1.125,0.427c0.243,0.029,0.633,0.026,1.17-0.01c0.59-0.057,0.946-0.111,1.067-0.163
				c0.176-0.12,0.501-0.374,0.977-0.762c0.449-0.335,0.812-0.483,1.089-0.445C27.216,6.909,27.33,6.55,27.469,6.3
				c0.148-0.284,0.255-0.548,0.321-0.794c0.004-0.107,0.017-0.199,0.038-0.277c-0.125-0.202-0.269-0.383-0.429-0.546
				c-1.069-0.969-2.296-1.729-3.682-2.28c-0.131-0.047-0.258-0.087-0.381-0.12c-0.207-0.079-0.409-0.151-0.606-0.216
				c-1.392-0.48-2.686-1.061-3.88-1.74c0.195,0.208,0.264,0.466,0.206,0.773c-0.054,0.201-0.226,0.395-0.515,0.581
				c-0.648,0.186-1.057,0.256-1.224,0.211c-0.248-0.103-0.478-0.182-0.69-0.239c-0.355,0.121-0.63,0.185-0.824,0.193
				c-0.07-0.007-0.217-0.041-0.44-0.1C15.144,1.71,15,1.69,14.93,1.683c-0.166-0.008-0.519,0.059-1.06,0.201
				c0.561,0.007,1.131,0.136,1.71,0.387c0.758,0.299,1.062,0.751,0.912,1.358c-0.104,0.475-0.43,0.891-0.98,1.246
				c-0.244,0.15-0.457,0.296-0.639,0.439c1.028-0.443,2.137-0.649,3.326-0.618c0.191,0.003,0.515,0.09,0.972,0.261
				c0.46,0.159,0.819,0.249,1.077,0.271c0.07,0.007,0.154,0.005,0.252-0.004c-0.301,0.231-0.56,0.347-0.776,0.349
				c-1.39-0.085-2.501,0.06-3.332,0.436c-0.542,0.238-1.131,0.715-1.766,1.431c-0.7,0.735-1.217,1.189-1.551,1.363
				c-0.207,0.101-0.489,0.192-0.846,0.276c-0.414,0.069-0.718,0.131-0.912,0.187c-0.752,0.17-1.18,0.492-1.283,0.967
				c-0.233,0.872-0.614,1.422-1.143,1.651c-0.26,0.075-0.44,0.146-0.542,0.214c-0.162,0.112-0.264,0.271-0.307,0.475
				c-0.07,0.305,0.021,0.706,0.27,1.204c0.245,0.473,0.344,0.793,0.299,0.96c-0.049,0.274-0.341,0.537-0.876,0.789
				c-0.604,0.245-0.929,0.386-0.975,0.421c-0.297,0.303-0.668,0.527-1.114,0.671c-0.507,0.151-0.989,0.184-1.445,0.098
				c-0.299-0.044-0.529-0.105-0.687-0.184c-0.145-0.087-0.333-0.144-0.565-0.17c-0.156-0.042-0.334-0.048-0.534-0.018
				c-0.268,0.061-0.481,0.099-0.642,0.116c-0.706,0.086-1.428,0.054-2.166-0.096c-0.241-0.041-0.626-0.144-1.157-0.31
				c-0.527-0.177-0.877-0.277-1.051-0.3c-0.55-0.136-1.032-0.169-1.446-0.1c-0.261,0.038-0.579,0.15-0.953,0.337
				c-0.396,0.182-0.708,0.296-0.936,0.342c-0.396,0.05-0.854,0.017-1.375-0.099c-0.845-0.334-1.323-0.516-1.434-0.546
				c-0.374-0.124-0.955-0.19-1.743-0.198c-0.786-0.019-1.223-0.04-1.312-0.064c-0.894-0.419-1.391-0.642-1.491-0.669
				c-0.086-0.035-0.501,0.016-1.244,0.152c-0.861,0.128-1.298,0.197-1.313,0.205c-0.69,0.03-1.214,0.153-1.571,0.369
				c-0.426,0.293-0.844,0.535-1.254,0.724c-0.286,0.127-0.562,0.196-0.828,0.209c-0.277-0.038-0.49-0.048-0.639-0.027
				c-0.273,0.034-0.505,0.14-0.695,0.316c-0.277,0.272-0.465,0.438-0.564,0.495c-0.249,0.125-0.614,0.213-1.095,0.264
				c-0.41,0.058-0.878,0.04-1.404-0.053C-24.443,17.267-24.904,17.155-25.279,17.079z M7.336,17.286
				c-0.067-0.018-0.157-0.084-0.27-0.198c-0.088-0.119-0.127-0.195-0.118-0.229c0.148-0.283,0.567-0.554,1.259-0.812
				s1.054-0.472,1.088-0.643c0.07-0.305-0.046-0.677-0.347-1.117C8.625,13.842,8.5,13.479,8.575,13.2
				c0.041-0.241,0.315-0.484,0.825-0.731c0.37-0.176,0.714-0.276,1.032-0.298c0.153-0.126,0.31-0.24,0.468-0.341
				c0.404-0.299,0.696-0.61,0.878-0.932c0.352-0.553,0.808-0.915,1.369-1.088c0.079-0.026,0.157-0.048,0.233-0.063
				c0.069-0.125,0.15-0.248,0.242-0.367c0.069-0.077,0.337-0.365,0.806-0.862c0.292-0.329,0.551-0.559,0.777-0.689
				c0.176-0.121,0.555-0.283,1.136-0.486c0.564-0.184,0.899-0.316,1.004-0.396c0.123-0.099,0.48-0.183,1.073-0.251
				c0.247-0.029,0.458-0.057,0.633-0.082c0.794-0.194,1.573-0.243,2.338-0.146c0.667,0.059,1.126,0.29,1.377,0.692
				c0.159,0.258,0.249,0.39,0.271,0.396c0.096,0.133,0.242,0.214,0.438,0.243c0.003-0.011,0.147-0.056,0.432-0.135
				c0.299-0.088,0.478-0.13,0.537-0.126c0.028-0.016,0.088,0.072,0.181,0.264c0.138,0.156,0.251,0.247,0.34,0.271
				c-0.932,0.396-1.498,0.586-1.697,0.569c-0.079-0.021-0.477-0.253-1.196-0.698s-1.22-0.674-1.503-0.69
				c-0.527-0.045-1.138,0-1.833,0.137c-0.82,0.2-1.458,0.346-1.914,0.439c-0.233,0.021-0.453,0.082-0.66,0.183
				c-0.525,0.35-1.053,0.735-1.585,1.156c-0.091,0.071-0.207,0.148-0.349,0.229c-0.166,0.171-0.287,0.336-0.366,0.495
				c-0.141,0.214-0.315,0.64-0.522,1.279c-0.206,0.543-0.511,0.857-0.917,0.94c-0.567,0.063-1.022,0.127-1.362,0.192
				c-0.664,0.109-1.035,0.309-1.113,0.6l-0.004,0.017c-0.049,0.227,0.141,0.571,0.567,1.032c0.447,0.479,0.643,0.843,0.588,1.092
				c-0.074,0.363-0.606,0.699-1.599,1.008c-0.541,0.143-0.927,0.242-1.158,0.3c-0.394,0.086-0.648,0.162-0.761,0.228
				c0.013,0.039,0.058,0.142,0.134,0.306c0.07,0.138,0.101,0.225,0.092,0.258c-0.026,0.053-0.058,0.104-0.095,0.154
				c-0.044-0.012-0.104-0.016-0.177-0.012C7.47,17.304,7.404,17.304,7.336,17.286z"/>
			<path style="fill-rule:evenodd;clip-rule:evenodd;fill:#FFDAC8;" d="M-22.148,19.876c-0.237,0.08-0.482,0.146-0.736,0.197
				c-0.783,0.197-1.375,0.236-1.773,0.118c0.019,0.017,0.054,0.044,0.104,0.081c0.342,0.199,0.731,0.357,1.167,0.475
				c0.29,0.125,0.58,0.138,0.871,0.035c0.175-0.072,0.364-0.153,0.568-0.242c0.364-0.154,0.746-0.304,1.144-0.448
				c0.322-0.129,0.62-0.283,0.896-0.461c0.76-0.467,1.599-0.828,2.518-1.085c0.68-0.213,1.376-0.374,2.087-0.482
				c1.021-0.193,2.018-0.315,2.99-0.367c0.146-0.009,0.297,0.008,0.454,0.05c0.885,0.094,1.814,0.091,2.786-0.008
				c0.745-0.1,1.435-0.082,2.07,0.052c0.33,0.064,0.62,0.166,0.87,0.305c0.15,0.064,0.355,0.083,0.613,0.057
				c0.75-0.026,1.49-0.109,2.222-0.249c0.04-0.013,0.083-0.02,0.131-0.019c-0.067-0.018-0.118-0.031-0.151-0.04
				c-0.4-0.071-0.791-0.044-1.171,0.081c-0.361,0.143-0.627,0.197-0.798,0.163c-0.196-0.028-0.387-0.163-0.574-0.404
				c-0.187-0.242-0.361-0.373-0.523-0.393c-0.439-0.105-1.105-0.122-1.999-0.05c-1.263,0.068-2.016,0.106-2.257,0.113
				c-0.891-0.071-1.582-0.106-2.073-0.106c-0.85,0-1.652,0.108-2.404,0.326c-0.341,0.064-0.685,0.121-1.034,0.172
				c-0.405,0.035-0.7,0.063-0.885,0.086c-0.72,0.095-1.451,0.365-2.193,0.813c-0.844,0.468-1.437,0.782-1.779,0.941
				C-21.413,19.743-21.792,19.84-22.148,19.876z"/>
			<path style="fill-rule:evenodd;clip-rule:evenodd;fill:#FFECDA;" d="M-22.148,19.876c0.474-0.161,0.787-0.347,0.939-0.557
				c0.026-0.054,0.073-0.16,0.14-0.322c0.064-0.15,0.115-0.25,0.153-0.3c0.269-0.335,0.718-0.58,1.346-0.735
				c0.375-0.104,0.931-0.212,1.668-0.325c0.487-0.121,0.988-0.358,1.501-0.711c0.547-0.345,1.075-0.593,1.583-0.744
				c0.694-0.221,1.646-0.157,2.858,0.191c0.358,0.096,0.857,0.241,1.5,0.438c0.581,0.155,1.048,0.245,1.401,0.268
				c0.025-0.005,0.041-0.019,0.047-0.041c-0.519-0.211-1.126-0.445-1.823-0.704c-0.58-0.203-1.304-0.451-2.172-0.744
				c-0.691-0.233-1.387-0.276-2.085-0.128c-0.662,0.146-1.394,0.489-2.197,1.028c-0.501,0.309-0.845,0.517-1.029,0.623
				c-0.495,0.238-0.909,0.354-1.243,0.349c-0.156-0.042-0.457,0.01-0.903,0.153c-0.561,0.173-0.939,0.377-1.134,0.612
				c-0.068,0.077-0.141,0.279-0.216,0.606c-0.081,0.302-0.131,0.468-0.151,0.498c-0.112,0.15-0.338,0.233-0.678,0.25
				c-0.372-0.04-0.616-0.045-0.732-0.017c-0.14-0.014-0.341,0.046-0.604,0.18c-0.331,0.162-0.508,0.241-0.53,0.234
				c-0.096,0.047-0.205,0.071-0.325,0.075c0.055,0.063,0.115,0.108,0.179,0.138c0.399,0.118,0.99,0.079,1.773-0.118
				C-22.631,20.021-22.385,19.956-22.148,19.876z M7.336,17.286c0.067,0.018,0.133,0.018,0.198-0.001
				c0.073-0.004,0.132,0,0.177,0.012c0.037-0.05,0.069-0.102,0.095-0.154c0.009-0.033-0.022-0.12-0.092-0.258
				c-0.076-0.164-0.121-0.267-0.134-0.306c0.113-0.065,0.367-0.142,0.761-0.228c0.231-0.058,0.617-0.157,1.158-0.3
				c0.993-0.309,1.525-0.645,1.599-1.008c0.055-0.249-0.141-0.613-0.588-1.092c-0.427-0.461-0.616-0.806-0.567-1.032l0.004-0.017
				c0.078-0.291,0.449-0.49,1.113-0.6c0.34-0.065,0.795-0.128,1.362-0.192c0.406-0.083,0.711-0.396,0.917-0.94
				c0.207-0.639,0.381-1.065,0.522-1.279c0.079-0.158,0.2-0.323,0.366-0.495c0.142-0.082,0.258-0.158,0.349-0.229
				c0.532-0.42,1.06-0.806,1.585-1.156c0.207-0.101,0.426-0.161,0.66-0.183c0.456-0.093,1.094-0.24,1.914-0.439
				c0.695-0.137,1.306-0.183,1.833-0.137c0.283,0.016,0.784,0.246,1.503,0.69s1.118,0.677,1.196,0.698
				c0.199,0.018,0.765-0.172,1.697-0.569c-0.089-0.024-0.203-0.115-0.34-0.271c-0.092-0.192-0.152-0.28-0.181-0.264
				c-0.059-0.004-0.238,0.038-0.537,0.126c-0.285,0.079-0.429,0.125-0.432,0.135c-0.196-0.028-0.342-0.109-0.438-0.243
				c-0.022-0.006-0.112-0.138-0.271-0.396c-0.251-0.402-0.71-0.633-1.377-0.692c-0.765-0.097-1.544-0.048-2.338,0.146
				c-0.175,0.025-0.386,0.053-0.633,0.082c-0.593,0.068-0.951,0.152-1.073,0.251c-0.105,0.08-0.44,0.211-1.004,0.396
				c-0.582,0.203-0.96,0.365-1.136,0.486c-0.227,0.131-0.486,0.361-0.777,0.689c-0.468,0.497-0.737,0.785-0.806,0.862
				C13.53,9.498,13.45,9.62,13.38,9.746c-0.076,0.015-0.154,0.037-0.233,0.063c-0.561,0.173-1.018,0.536-1.369,1.088
				c-0.182,0.322-0.475,0.633-0.878,0.932c-0.158,0.101-0.315,0.215-0.468,0.341c-0.317,0.022-0.662,0.122-1.032,0.298
				c-0.509,0.247-0.784,0.49-0.825,0.731c-0.075,0.279,0.049,0.642,0.373,1.088c0.301,0.44,0.417,0.812,0.347,1.117
				c-0.034,0.17-0.396,0.385-1.088,0.643s-1.111,0.528-1.259,0.812c-0.009,0.034,0.03,0.11,0.118,0.229
				C7.18,17.202,7.27,17.269,7.336,17.286z"/>
			<path style="fill-rule:evenodd;clip-rule:evenodd;fill:#EC7F6D;" d="M-31.249,15.965c0.308,0.237,0.646,0.472,1.015,0.703
				c0.256-0.423,0.621-0.576,1.093-0.462c0.252,0.044,0.616,0.183,1.091,0.418c0.353,0.071,0.806,0.12,1.361,0.149
				c0.485,0.022,0.858,0.08,1.121,0.175c0.089,0.023,0.174,0.064,0.254,0.122l0.034,0.009c0.375,0.076,0.836,0.188,1.383,0.335
				c0.526,0.093,0.994,0.11,1.404,0.053c0.481-0.051,0.846-0.139,1.095-0.264c0.099-0.057,0.287-0.223,0.564-0.495
				c0.19-0.177,0.422-0.282,0.695-0.316c0.149-0.021,0.362-0.011,0.639,0.027c0.267-0.013,0.542-0.082,0.828-0.209
				c0.41-0.189,0.828-0.431,1.254-0.724c0.357-0.216,0.881-0.339,1.571-0.369c0.015-0.008,0.452-0.077,1.313-0.205
				c0.743-0.136,1.158-0.187,1.244-0.152c0.101,0.027,0.598,0.25,1.491,0.669c0.089,0.024,0.526,0.045,1.312,0.064
				c0.788,0.008,1.369,0.074,1.743,0.198c0.111,0.03,0.589,0.212,1.434,0.546c0.52,0.115,0.978,0.148,1.375,0.099
				c0.228-0.046,0.54-0.16,0.936-0.342c0.374-0.188,0.691-0.3,0.953-0.337c0.414-0.069,0.896-0.036,1.446,0.1
				c0.174,0.022,0.524,0.123,1.051,0.3c0.53,0.166,0.916,0.269,1.157,0.31c0.738,0.149,1.46,0.182,2.166,0.096
				c0.16-0.018,0.374-0.056,0.642-0.116c0.2-0.03,0.378-0.024,0.534,0.018c0.232,0.026,0.421,0.083,0.565,0.17
				c0.158,0.078,0.388,0.14,0.687,0.184c0.456,0.086,0.938,0.054,1.445-0.098c0.446-0.145,0.817-0.368,1.114-0.671
				c0.045-0.036,0.37-0.176,0.975-0.421c0.535-0.252,0.827-0.515,0.876-0.789c0.045-0.167-0.055-0.488-0.299-0.96
				c-0.25-0.498-0.34-0.899-0.27-1.204c0.042-0.204,0.145-0.362,0.307-0.475c0.102-0.069,0.283-0.14,0.542-0.214
				c0.528-0.229,0.909-0.78,1.143-1.651c0.104-0.475,0.531-0.797,1.283-0.967c0.194-0.056,0.499-0.118,0.912-0.187
				c0.357-0.084,0.64-0.176,0.846-0.276c0.334-0.174,0.851-0.628,1.551-1.363c0.635-0.716,1.224-1.193,1.766-1.431
				c0.831-0.376,1.942-0.521,3.332-0.436c0.216-0.002,0.475-0.118,0.776-0.349c-0.098,0.01-0.183,0.011-0.252,0.004
				c-0.258-0.021-0.617-0.111-1.077-0.271c-0.458-0.17-0.781-0.257-0.972-0.261c-1.189-0.031-2.298,0.175-3.326,0.618
				c0.182-0.143,0.395-0.29,0.639-0.439c0.55-0.355,0.877-0.771,0.98-1.246c0.15-0.606-0.154-1.059-0.912-1.358
				c-0.58-0.251-1.149-0.38-1.71-0.387c-0.427,0.029-1.234,0.047-2.421,0.052c-1.192-0.02-1.995,0.184-2.409,0.612
				C8.604,2.97,8.253,3.654,7.987,4.601c-0.286,0.977-0.47,1.508-0.553,1.594c-0.155,0.222-0.5,0.482-1.036,0.782
				C5.994,7.192,5.741,7.531,5.641,7.995c-0.027,0.101,0.044,0.347,0.215,0.74C6,9.133,6.062,9.395,6.041,9.521
				c-0.018,0.067-0.377,0.468-1.077,1.203c-0.699,0.687-1.104,1.081-1.215,1.183c-0.502,0.308-1.052,0.484-1.65,0.527
				c-0.553,0.008-0.882,0.051-0.987,0.131c-0.147,0.104-0.313,0.365-0.497,0.783c-0.155,0.354-0.31,0.576-0.466,0.666
				c-0.427,0.209-0.813,0.333-1.159,0.372c-0.289,0.006-0.738-0.06-1.348-0.199c-0.257-0.069-0.5-0.17-0.727-0.303
				c-0.267-0.167-0.478-0.272-0.634-0.313c-0.089-0.024-0.291,0.012-0.604,0.107c-0.321,0.082-0.705,0.063-1.152-0.057
				c-0.43-0.139-0.744-0.307-0.943-0.504c-0.21-0.2-0.425-0.335-0.645-0.407l-0.36-0.132c-0.095-0.001-0.187,0.094-0.274,0.286
				c-0.041,0.108-0.007,0.25,0.103,0.422c0.135,0.168,0.147,0.321,0.039,0.459c-0.316-0.025-0.741-0.073-1.272-0.144
				c-0.633-0.098-1.091-0.196-1.375-0.296c-0.045-0.012-0.431-0.248-1.158-0.706c-0.719-0.444-1.321-0.767-1.806-0.969
				c-0.226-0.096-0.475-0.169-0.75-0.219c-0.427-0.103-0.686-0.076-0.775,0.079c-0.084,0.134-0.204,0.425-0.36,0.874
				c-0.872-0.366-1.696-0.508-2.472-0.429c-0.902,0.105-1.653,0.539-2.252,1.3c-0.061,0.091-0.142,0.261-0.245,0.509
				c-0.096,0.226-0.183,0.394-0.261,0.505c-0.304,0.374-0.793,0.704-1.469,0.989c-0.505,0.188-1.157,0.385-1.954,0.59
				c-0.608,0.125-1.183,0.192-1.725,0.203c-0.595,0.032-1.104-0.033-1.528-0.194c-0.697-0.259-1.414-0.421-2.151-0.486
				c-1.128-0.123-1.824,0.038-2.087,0.482C-31.216,15.865-31.234,15.909-31.249,15.965z"/>
			<path style="fill-rule:evenodd;clip-rule:evenodd;fill:#FFC8C8;" d="M-29.579,17.041c0.008-0.118,0.035-0.219,0.081-0.302
				c0.029-0.064,0.113-0.107,0.251-0.131c0.161-0.064,0.285-0.079,0.371-0.044c0.022,0.006,0.145,0.086,0.366,0.241
				c0.253,0.128,0.422,0.215,0.505,0.262c0.304,0.117,0.786,0.15,1.446,0.1c0.455-0.046,0.834-0.01,1.139,0.107
				c-0.002-0.036-0.015-0.058-0.037-0.063c0.102-0.021,0.2-0.03,0.295-0.029c-0.053-0.025-0.093-0.055-0.121-0.086l0.004-0.017
				l-0.034-0.009c-0.08-0.058-0.165-0.099-0.254-0.122c-0.262-0.095-0.636-0.152-1.121-0.175c-0.555-0.029-1.009-0.078-1.361-0.149
				c-0.476-0.235-0.839-0.374-1.091-0.418c-0.472-0.114-0.837,0.039-1.093,0.462C-30.014,16.786-29.796,16.91-29.579,17.041z
				 M8.761,2.383L8.743,2.45C8.72,2.492,8.704,2.529,8.695,2.563c-0.063,0.103-0.316,0.376-0.758,0.82
				c-0.434,0.411-0.679,0.68-0.738,0.809C7.121,4.35,6.989,4.686,6.803,5.199c-0.192,0.404-0.416,0.637-0.672,0.7
				c-0.447,0.06-0.77,0.123-0.967,0.19c-0.361,0.143-0.577,0.39-0.648,0.742C4.507,6.865,4.518,7.048,4.549,7.379
				c0.042,0.334,0.052,0.564,0.03,0.69C4.525,8.271,4.381,8.406,4.147,8.475C3.854,8.54,3.615,8.764,3.429,9.145
				c-0.09,0.204-0.185,0.489-0.284,0.858c-0.08,0.386-0.144,0.626-0.193,0.72c-0.097,0.273-0.291,0.437-0.581,0.491
				c-0.149,0.02-0.419,0.001-0.811-0.056c-0.313-0.036-0.545-0.021-0.695,0.047c-0.181,0.095-0.261,0.326-0.239,0.69
				c-0.764-0.276-1.32-0.413-1.668-0.411c-0.585-0.049-0.88,0.177-0.882,0.679c-0.175-0.106-0.316-0.138-0.424-0.095
				c-0.141,0.034-0.221,0.108-0.239,0.223c-0.011-0.003,0.016,0.076,0.08,0.237c0.045,0.144,0.078,0.224,0.097,0.241
				c-0.027,0.101-0.045,0.191-0.055,0.272c-0.157-0.042-0.313-0.083-0.469-0.125c-0.075-0.032-0.212-0.146-0.411-0.344
				c-0.147-0.123-0.298-0.206-0.455-0.248c-0.173-0.07-0.299-0.068-0.379,0.006c-0.063,0.055-0.133,0.162-0.212,0.321
				c-0.152,0.031-0.306,0.025-0.462-0.017c-0.204-0.09-0.361-0.15-0.473-0.18c-0.031,0.027-0.026,0.077,0.015,0.147
				c0.029,0.068,0.037,0.13,0.022,0.186c-0.084,0.133-0.209,0.177-0.377,0.132c-0.094-0.049-0.349-0.195-0.763-0.438
				c-0.416-0.279-0.74-0.456-0.972-0.53c-0.15-0.064-0.297-0.074-0.441-0.029c-0.169,0.051-0.332,0.055-0.488,0.013
				c-0.061-0.041-0.158-0.103-0.292-0.186c-0.081-0.058-0.14-0.103-0.179-0.138c-0.056-0.015-0.089-0.024-0.101-0.027
				c-0.097-0.038-0.209-0.068-0.335-0.09c-0.011-0.003-0.031,0.003-0.06,0.02c-0.051,0.058-0.117,0.148-0.198,0.271
				c-0.099,0.189-0.252,0.292-0.46,0.308c-0.275,0.046-0.723-0.05-1.342-0.288c-0.192-0.087-0.492-0.264-0.9-0.528
				c-0.391-0.285-0.642-0.442-0.754-0.472c-0.086-0.035-0.213-0.033-0.379,0.006c-0.174,0.025-0.345,0.015-0.513-0.03
				c-0.061-0.04-0.142-0.098-0.241-0.172c-0.116-0.103-0.207-0.169-0.271-0.198c-1.164-0.527-2.597-0.654-4.299-0.379
				c-1.665,0.225-3.098,0.769-4.299,1.632c-0.996,0.679-1.772,1.184-2.327,1.514c-0.964,0.604-1.774,1.034-2.429,1.289
				c-0.141,0.034-0.432,0.07-0.873,0.107c-0.778,0.043-1.225,0.079-1.34,0.108c-0.975,0.11-1.632,0.305-1.971,0.585
				c0.134,0.215,0.307,0.418,0.52,0.606c0.042,0.023,0.082,0.052,0.121,0.086c0.015-0.056,0.032-0.1,0.053-0.13
				c0.263-0.444,0.958-0.605,2.087-0.482c0.737,0.065,1.454,0.228,2.151,0.486c0.424,0.161,0.933,0.227,1.528,0.194
				c0.542-0.011,1.117-0.078,1.725-0.203c0.797-0.206,1.449-0.402,1.954-0.59c0.675-0.286,1.165-0.616,1.469-0.989
				c0.078-0.111,0.165-0.279,0.261-0.505c0.103-0.248,0.184-0.418,0.245-0.509c0.599-0.762,1.35-1.195,2.252-1.3
				c0.776-0.08,1.6,0.063,2.472,0.429c0.156-0.449,0.276-0.74,0.36-0.874c0.089-0.155,0.348-0.182,0.775-0.079
				c0.274,0.049,0.524,0.123,0.75,0.219c0.485,0.202,1.087,0.524,1.806,0.969c0.728,0.458,1.113,0.693,1.158,0.706
				c0.284,0.1,0.743,0.199,1.375,0.296c0.532,0.071,0.956,0.119,1.272,0.144c0.109-0.139,0.096-0.292-0.039-0.459
				c-0.109-0.173-0.144-0.314-0.103-0.422c0.087-0.192,0.179-0.288,0.274-0.286l0.36,0.132c0.22,0.071,0.435,0.207,0.645,0.407
				c0.199,0.197,0.513,0.365,0.943,0.504c0.447,0.12,0.831,0.139,1.152,0.057c0.313-0.096,0.515-0.131,0.604-0.107
				c0.156,0.042,0.368,0.146,0.634,0.313c0.228,0.133,0.47,0.234,0.727,0.303c0.609,0.139,1.059,0.206,1.348,0.199
				c0.346-0.039,0.732-0.163,1.159-0.372c0.156-0.09,0.311-0.312,0.466-0.666c0.184-0.417,0.35-0.679,0.497-0.783
				c0.105-0.08,0.434-0.123,0.987-0.131c0.599-0.043,1.148-0.219,1.65-0.527c0.111-0.102,0.516-0.497,1.215-1.183
				c0.7-0.735,1.059-1.136,1.077-1.203C6.062,9.395,6,9.133,5.856,8.735c-0.17-0.393-0.242-0.64-0.215-0.74
				c0.1-0.464,0.353-0.803,0.758-1.018c0.535-0.3,0.88-0.561,1.036-0.782c0.083-0.086,0.267-0.617,0.553-1.594
				C8.253,3.654,8.604,2.97,9.041,2.548c0.414-0.428,1.217-0.632,2.409-0.612c1.187-0.005,1.994-0.023,2.421-0.052
				c0.541-0.142,0.894-0.209,1.06-0.201C15,1.69,15.144,1.71,15.362,1.745c0.223,0.06,0.37,0.093,0.44,0.1
				c0.194-0.008,0.468-0.072,0.824-0.193c-1.041-0.314-1.839-0.463-2.396-0.444c-0.238-0.004-0.654,0.052-1.249,0.168
				c-0.554,0.103-0.837,0.153-0.848,0.15c-1.302-0.013-2.25,0.152-2.845,0.495C9.145,2.115,8.968,2.235,8.761,2.383z"/>
			<path style="fill-rule:evenodd;clip-rule:evenodd;fill:#ECC8C8;" d="M-9.437,10.439c-0.431-0.044-0.775,0.122-1.031,0.496
				c-0.058,0.08-0.152,0.121-0.284,0.122c-0.455-0.002-0.832-0.181-1.131-0.537c-0.314-0.348-0.682-0.608-1.102-0.78
				c-0.106-0.005-0.192,0.002-0.257,0.021c-0.3,0.135-0.598,0.109-0.895-0.078c-0.755-0.49-1.567-0.743-2.437-0.761
				c-0.72-0.038-1.451,0.006-2.19,0.131c-0.65,0.102-1.286,0.308-1.909,0.621c-0.8,0.396-1.638,0.818-2.512,1.266
				c-1.31,0.643-2.579,1.423-3.806,2.339c-1.68,0.328-3.312,0.699-4.896,1.113c-0.179,0.312-0.191,0.602-0.036,0.871l0.034,0.009
				c0.338-0.28,0.996-0.476,1.971-0.585c0.116-0.029,0.562-0.065,1.34-0.108c0.441-0.038,0.732-0.073,0.873-0.107
				c0.655-0.255,1.465-0.685,2.429-1.289c0.555-0.33,1.331-0.834,2.327-1.514c1.201-0.864,2.634-1.408,4.299-1.632
				c1.702-0.274,3.135-0.148,4.299,0.379c0.064,0.029,0.154,0.095,0.271,0.198c0.1,0.075,0.18,0.132,0.241,0.172
				c0.167,0.045,0.338,0.055,0.513,0.03c0.166-0.04,0.292-0.042,0.379-0.006c0.112,0.03,0.363,0.187,0.754,0.472
				c0.408,0.265,0.708,0.441,0.9,0.528c0.619,0.238,1.066,0.333,1.342,0.288c0.208-0.016,0.361-0.119,0.46-0.308
				c0.081-0.122,0.146-0.212,0.198-0.271c0.006-0.022,0.021-0.03,0.043-0.024c-0.12-0.092-0.197-0.227-0.233-0.404
				c-0.073-0.175-0.091-0.33-0.055-0.464C-9.517,10.538-9.482,10.475-9.437,10.439z"/>
			<path style="fill-rule:evenodd;clip-rule:evenodd;fill:#ECA391;" d="M-8.153,10.675c0.035,0.405-0.123,0.638-0.475,0.699
				c-0.399,0.061-0.607,0.101-0.625,0.12c-0.022-0.006-0.037,0.002-0.043,0.024c0.028-0.017,0.048-0.023,0.06-0.02
				c0.126,0.022,0.238,0.052,0.335,0.09c0.011,0.003,0.045,0.012,0.101,0.027c0.039,0.035,0.098,0.08,0.179,0.138
				c0.133,0.083,0.23,0.146,0.292,0.186c0.156,0.042,0.319,0.038,0.488-0.013c0.144-0.045,0.291-0.036,0.441,0.029
				c0.231,0.074,0.556,0.25,0.972,0.53c0.414,0.242,0.668,0.388,0.763,0.438c0.167,0.045,0.293,0.001,0.377-0.132
				c0.015-0.056,0.007-0.118-0.022-0.186c-0.041-0.071-0.046-0.12-0.015-0.147c0.112,0.03,0.269,0.09,0.473,0.18
				c0.156,0.042,0.311,0.047,0.462,0.017c0.079-0.159,0.149-0.266,0.212-0.321c0.08-0.074,0.206-0.077,0.379-0.006
				c0.156,0.042,0.308,0.125,0.455,0.248c0.198,0.197,0.335,0.312,0.411,0.344c0.156,0.042,0.313,0.084,0.469,0.125
				c0.01-0.081,0.028-0.172,0.055-0.272c-0.02-0.017-0.052-0.098-0.097-0.241c-0.064-0.161-0.091-0.24-0.08-0.237
				c0.019-0.115,0.099-0.189,0.239-0.223c0.107-0.043,0.249-0.011,0.424,0.095c0.002-0.502,0.297-0.729,0.882-0.679
				c0.348-0.002,0.904,0.134,1.668,0.411c-0.022-0.365,0.058-0.595,0.239-0.69c0.15-0.067,0.382-0.083,0.695-0.047
				c0.392,0.057,0.662,0.076,0.811,0.056c0.29-0.054,0.483-0.218,0.581-0.491c0.049-0.094,0.114-0.334,0.193-0.72
				c0.099-0.369,0.193-0.655,0.284-0.858C3.615,8.764,3.854,8.54,4.147,8.475C4.381,8.406,4.525,8.271,4.579,8.07
				c0.022-0.126,0.012-0.356-0.03-0.69C4.518,7.048,4.507,6.865,4.516,6.832c0.071-0.352,0.287-0.6,0.648-0.742
				c0.198-0.067,0.52-0.13,0.967-0.19c0.256-0.063,0.48-0.296,0.672-0.7C6.989,4.686,7.121,4.35,7.199,4.192
				c0.059-0.128,0.304-0.397,0.738-0.809c0.442-0.444,0.695-0.718,0.758-0.82C8.704,2.529,8.72,2.492,8.743,2.45
				C8.602,2.532,8.458,2.643,8.313,2.784C7.709,3.292,7.256,3.597,6.955,3.695C6.645,3.78,6.374,3.899,6.141,4.052
				C5.914,4.183,5.807,4.447,5.82,4.846c0.008,0.373-0.179,0.599-0.559,0.676C4.879,5.564,4.647,5.604,4.565,5.642
				c-0.37,0.128-0.644,0.48-0.822,1.055C3.452,7.564,3.298,8.026,3.283,8.082c-0.512,0.929-1.277,1.64-2.295,2.133
				c-0.941,0.43-1.822,0.565-2.641,0.406c-0.28-0.075-0.521-0.134-0.726-0.176c-0.24-0.041-0.792,0.207-1.653,0.742
				c-0.864,0.499-1.729,0.668-2.597,0.508C-7.477,11.551-7.985,11.211-8.153,10.675z"/>
			<path style="fill-rule:evenodd;clip-rule:evenodd;fill:#E29990;" d="M9.02,1.016c0.29,0.125,0.4,0.34,0.33,0.645
				C9.115,1.957,8.918,2.198,8.761,2.383c0.207-0.148,0.383-0.269,0.528-0.362c0.595-0.343,1.543-0.508,2.845-0.495
				c0.011,0.003,0.294-0.047,0.848-0.15c0.594-0.116,1.01-0.172,1.249-0.168c0.556-0.019,1.354,0.129,2.396,0.444
				c0.212,0.057,0.442,0.137,0.69,0.239c0.167,0.045,0.576-0.025,1.224-0.211c0.289-0.186,0.461-0.38,0.515-0.581
				c0.059-0.308-0.01-0.565-0.206-0.773c-0.267,0.012-0.501,0.039-0.704,0.081c-0.158,0.006-0.302,0.009-0.434,0.009
				c-1.01,0.017-1.978-0.057-2.904-0.221c-0.596-0.1-1.184-0.162-1.765-0.186c-0.328-0.028-0.641,0.002-0.94,0.09
				c-0.695,0.137-1.379,0.319-2.05,0.546C9.926,0.672,9.791,0.707,9.647,0.752C9.506,0.787,9.348,0.84,9.173,0.913
				C9.113,0.957,9.063,0.991,9.02,1.016z M-8.153,10.675c-0.258-0.021-0.532-0.07-0.822-0.148c-0.153-0.053-0.307-0.083-0.461-0.088
				c-0.045,0.036-0.08,0.098-0.104,0.188c-0.036,0.134-0.018,0.289,0.055,0.464c0.036,0.177,0.114,0.312,0.233,0.404
				c0.017-0.02,0.225-0.06,0.625-0.12C-8.276,11.313-8.118,11.08-8.153,10.675z"/>
			<path style="fill-rule:evenodd;clip-rule:evenodd;fill:#DA6D5B;" d="M8.761,2.383C8.918,2.198,9.115,1.957,9.35,1.661
				c0.07-0.305-0.04-0.52-0.33-0.645L9.003,1.011C8.978,1.016,8.911,1.041,8.804,1.083C8.708,1.129,8.566,1.235,8.378,1.4
				C8.199,1.532,7.995,1.669,7.765,1.811C7.524,1.95,7.342,2.093,7.219,2.239C7.064,2.414,6.878,2.573,6.66,2.718
				C5.965,3.167,5.245,3.596,4.5,4.007C3.583,4.48,2.912,5.175,2.487,6.09C2.391,6.316,2.273,6.554,2.134,6.804
				C1.41,8.035,0.453,8.88-0.736,9.34c-0.273,0.083-0.552,0.116-0.835,0.1C-1.909,9.361-2.24,9.254-2.563,9.12
				c-0.316-0.073-0.558,0.048-0.726,0.363c-0.106,0.175-0.219,0.348-0.337,0.52c-0.427,0.521-0.956,0.864-1.587,1.03
				c-0.568,0.111-1.138,0-1.707-0.332c-0.089-0.071-0.182-0.103-0.281-0.093c-0.103-0.016-0.221,0-0.354,0.049
				c-0.205,0.005-0.404,0.011-0.598,0.019c0.168,0.536,0.676,0.876,1.523,1.019c0.867,0.161,1.732-0.009,2.597-0.508
				c0.862-0.535,1.413-0.783,1.653-0.742c0.204,0.042,0.446,0.102,0.726,0.176c0.819,0.16,1.7,0.024,2.641-0.406
				C2.005,9.721,2.771,9.01,3.283,8.082c0.015-0.056,0.169-0.517,0.461-1.385C3.922,6.122,4.196,5.77,4.565,5.642
				c0.082-0.038,0.314-0.078,0.696-0.119c0.38-0.078,0.566-0.303,0.559-0.676c-0.013-0.399,0.094-0.664,0.32-0.794
				C6.374,3.899,6.645,3.78,6.955,3.695c0.302-0.099,0.754-0.403,1.358-0.912C8.458,2.643,8.602,2.532,8.743,2.45L8.761,2.383z"/>
		</g>
		<g>
			<path style="fill-rule:evenodd;clip-rule:evenodd;fill:#DA5B5B;" d="M30.918,19.158c-0.498-0.42-0.998-0.836-1.498-1.245
				c-0.756,0.229-1.333,0.415-1.731,0.56c-0.616,0.242-1.134,0.522-1.554,0.841c-0.389,0.291-0.935,0.45-1.637,0.478
				c-0.23,0.011-0.537-0.006-0.921-0.049c-0.401-0.023-0.706-0.046-0.916-0.065c-0.743-0.044-1.296,0.012-1.661,0.165
				c-0.525,0.219-0.872,0.641-1.04,1.267c-0.009,0.033-0.16,0.173-0.453,0.417c-0.347,0.267-0.703,0.524-1.069,0.773
				c-1.104,0.722-1.883,1.04-2.339,0.954c-0.635-0.135-1.219-0.165-1.753-0.093c-0.343,0.028-0.758,0.126-1.247,0.295
				c-0.514,0.174-0.893,0.27-1.137,0.288c-0.414,0.068-0.85,0.041-1.308-0.081c-0.357-0.096-0.884-0.207-1.581-0.334
				c-0.693-0.138-1.208-0.252-1.543-0.342c-0.268-0.071-0.689-0.221-1.263-0.446c-0.622-0.227-1.093-0.389-1.415-0.486
				c-1.146-0.367-2.009-0.365-2.588,0.007c-0.457,0.273-0.869,0.605-1.237,0.998c-0.181,0.227-0.433,0.542-0.756,0.946
				c-0.264,0.313-0.531,0.528-0.802,0.647c-0.322,0.129-0.732,0.163-1.23,0.102c-0.717-0.097-1.583-0.28-2.6-0.553
				c-0.204-0.043-1.065-0.268-2.585-0.675c-0.436-0.117-0.828-0.15-1.177-0.1c-0.225,0.035-0.528,0.115-0.909,0.241
				c-0.37,0.128-0.667,0.21-0.892,0.246c-0.375,0.055-0.773,0.026-1.198-0.088c-0.413-0.11-0.873-0.341-1.377-0.692
				c-0.53-0.346-1.024-0.579-1.482-0.702c-1.095-0.293-2.212-0.258-3.352,0.107c-0.962,0.329-1.698,0.82-2.208,1.474
				c1.093,0.39,2.206,0.771,3.339,1.146c0.075,0.032,0.647,0.533,1.717,1.502c0.008,0.014,0.026,0.037,0.054,0.068
				c0.033,0.009,0.067,0.018,0.101,0.026c0.809,0.109,1.252,0.174,1.331,0.195c0.257,0.068,0.56,0.258,0.908,0.566
				c0.333,0.28,0.616,0.452,0.85,0.515c0.682,0.183,1.53,0.188,2.546,0.018c1.033-0.189,1.819-0.488,2.359-0.895
				c0.273-0.214,0.606-0.34,1-0.379c0.248-0.029,0.616-0.021,1.106,0.027c0.499,0.062,0.863,0.088,1.093,0.077
				c0.399-0.013,0.746-0.123,1.041-0.332c1.166-0.776,2.564-1.348,4.195-1.714c1.848-0.415,3.723-0.487,5.626-0.217
				c1.271,0.173,2.17,0.282,2.696,0.327c0.943,0.014,1.866-0.08,2.77-0.281c0.406-0.083,0.863-0.116,1.374-0.099
				c0.28,0.026,0.716,0.096,1.31,0.207c0.596,0.1,1.053,0.156,1.373,0.17c0.176,0.012,0.348,0.021,0.513,0.03
				c0.459-0.104,0.923-0.25,1.392-0.436c0.116-0.029,0.235-0.075,0.36-0.137c0.253-0.185,0.546-0.429,0.879-0.734
				c0.516-0.497,1.032-1.059,1.547-1.688c0.261-0.301,0.581-0.515,0.962-0.64c0.198-0.067,0.575-0.134,1.131-0.2
				c0.476-0.076,0.831-0.173,1.065-0.289c0.35-0.146,0.632-0.417,0.847-0.815c0.705-0.038,1.736-0.199,3.093-0.482
				C29.566,19.443,30.194,19.312,30.918,19.158z"/>
			<path style="fill-rule:evenodd;clip-rule:evenodd;fill:#FFC8C8;" d="M17.757,24.973c-0.165-0.009-0.336-0.019-0.513-0.03
				c-0.32-0.014-0.777-0.07-1.373-0.17c-0.593-0.111-1.03-0.181-1.31-0.207c-0.511-0.018-0.968,0.016-1.374,0.099
				c-0.904,0.201-1.827,0.295-2.77,0.281c-0.526-0.045-1.425-0.154-2.696-0.327c-1.903-0.271-3.778-0.198-5.626,0.217
				c-1.63,0.366-3.029,0.938-4.195,1.714c-0.295,0.209-0.642,0.319-1.041,0.332c-0.23,0.011-0.594-0.016-1.093-0.077
				c-0.49-0.048-0.859-0.057-1.106-0.027c-0.393,0.039-0.727,0.165-1,0.379c-0.54,0.406-1.326,0.705-2.359,0.895
				c-1.016,0.171-1.864,0.165-2.546-0.018c-0.234-0.063-0.518-0.234-0.85-0.515c-0.348-0.309-0.651-0.498-0.908-0.566
				c-0.078-0.021-0.521-0.086-1.331-0.195c-0.034-0.009-0.067-0.018-0.101-0.026c0.961,0.88,1.593,1.36,1.895,1.441
				c2.402,0.644,4.424,0.808,6.064,0.493c0.645-0.127,1.333-0.35,2.065-0.668c0.028-0.017,0.718-0.335,2.07-0.954
				c1.922-0.874,3.847-1.466,5.774-1.776c2.911-0.453,6.532-0.446,10.861,0.019C15.356,25.4,16.509,25.297,17.757,24.973z
				 M19.509,24.4c1.513-0.553,3.213-1.354,5.099-2.406c2.053-1.139,4.542-1.759,7.467-1.86c-0.387-0.344-0.773-0.669-1.158-0.976
				c-0.724,0.153-1.352,0.285-1.883,0.394c-1.357,0.283-2.388,0.444-3.093,0.482c-0.214,0.398-0.497,0.67-0.847,0.815
				c-0.235,0.116-0.59,0.213-1.065,0.289c-0.557,0.066-0.934,0.133-1.131,0.2c-0.381,0.125-0.701,0.339-0.962,0.64
				c-0.515,0.629-1.031,1.19-1.547,1.688C20.055,23.972,19.762,24.216,19.509,24.4z"/>
			<path style="fill-rule:evenodd;clip-rule:evenodd;fill:#FFECDA;" d="M29.42,17.913c-0.26-0.237-0.53-0.459-0.81-0.666
				c-0.448,0.287-0.832,0.514-1.152,0.68c-1.51,0.853-2.638,1.131-3.385,0.835c-0.826-0.317-1.56-0.436-2.204-0.357
				c-0.487,0.073-1.024,0.271-1.613,0.592c-0.833,0.472-1.33,0.739-1.491,0.805c-0.644,0.258-1.307,0.362-1.987,0.312
				c0.145,0.709-0.072,1.273-0.651,1.693c-0.488,0.348-1.158,0.546-2.009,0.593c-0.362,0.011-0.764,0.059-1.206,0.145
				c-0.507,0.104-0.875,0.179-1.103,0.226c-0.903,0.152-1.679,0.143-2.327-0.031c-0.123-0.032-0.947-0.308-2.473-0.824
				c-1.503-0.511-2.322-0.784-2.457-0.819c-0.815-0.219-1.557-0.178-2.224,0.122c-0.438,0.206-0.949,0.614-1.531,1.225
				c-0.642,0.653-1.114,1.072-1.414,1.255c-0.57,0.339-1.201,0.415-1.894,0.229c-0.123-0.033-0.409-0.193-0.859-0.481
				c-0.456-0.266-0.812-0.434-1.068-0.502c-0.604-0.162-1.556-0.159-2.858,0.007c-0.661,0.098-1.119,0.155-1.375,0.17
				c-0.421,0.055-0.71,0.062-0.867,0.02c-0.189-0.051-0.727-0.303-1.611-0.755c-0.89-0.479-1.359-0.76-1.409-0.845
				c0.252-0.136,0.459-0.284,0.622-0.444c0.162-0.112,0.267-0.191,0.315-0.238c0.063-0.056,0.129-0.079,0.199-0.072
				c0.073-0.005,0.227,0.024,0.461,0.087c0.123,0.033,0.461,0.178,1.015,0.435c0.565,0.259,0.909,0.405,1.032,0.438
				c0.95,0.255,1.798,0.351,2.545,0.287c0.598-0.043,1.221-0.199,1.868-0.47c0.393-0.17,0.975-0.444,1.748-0.824
				c0.738-0.342,1.436-0.579,2.095-0.714c1.493-0.343,3.153-0.461,4.98-0.354c1.071,0.071,2.754,0.247,5.05,0.527
				c2.014,0.168,3.783-0.154,5.306-0.968c0.603-0.329,1.218-0.77,1.844-1.32c0.318-0.249,0.854-0.729,1.606-1.437
				c0.642-0.607,1.166-1.065,1.572-1.375c0.603-0.461,1.185-0.802,1.747-1.023c1.172-0.44,2.497-0.492,3.976-0.156
				c-0.12-0.403-0.26-0.752-0.42-1.046l-0.302-0.081c-1.316-0.005-2.718,0.379-4.207,1.154c-0.58,0.288-1.246,0.672-1.997,1.153
				c-0.116,0.077-0.773,0.517-1.971,1.322c-1.674,1.108-3.031,1.882-4.07,2.322c-1.619,0.632-3.211,0.857-4.78,0.677
				C5.678,19.155,4.049,19,2.793,18.951c-2.189-0.096-3.804,0.028-4.842,0.373c-0.198,0.067-0.474,0.227-0.829,0.479l-0.921,0.688
				c-0.829,0.592-1.429,0.887-1.799,0.883c-1.265-0.016-2.569-0.222-3.912-0.617c-0.374-0.124-0.758-0.257-1.151-0.397l-0.439-0.172
				c-0.626,0.012-1.317,0.024-2.075,0.037c-1.507,0.039-2.589,0.187-3.244,0.441c-1.118,0.419-2.504,1.281-4.159,2.586
				c-0.036,0.134-0.066,0.246-0.09,0.335c0.256,0.116,0.564,0.241,0.924,0.373c0.067,0.019,0.134,0.036,0.201,0.054
				c0.51-0.653,1.246-1.145,2.208-1.474c1.14-0.365,2.257-0.4,3.352-0.107c0.458,0.123,0.952,0.356,1.482,0.702
				c0.504,0.352,0.964,0.582,1.377,0.692c0.425,0.114,0.824,0.143,1.198,0.088c0.225-0.036,0.522-0.118,0.892-0.246
				c0.38-0.126,0.684-0.206,0.909-0.241c0.349-0.051,0.741-0.018,1.177,0.1c1.52,0.407,2.381,0.632,2.585,0.675
				c1.017,0.272,1.883,0.456,2.6,0.553c0.499,0.062,0.908,0.027,1.23-0.102c0.271-0.119,0.539-0.335,0.802-0.647
				c0.324-0.404,0.576-0.72,0.756-0.946c0.369-0.393,0.781-0.725,1.237-0.998c0.579-0.372,1.441-0.374,2.588-0.007
				c0.321,0.098,0.792,0.26,1.415,0.486c0.574,0.226,0.995,0.375,1.263,0.446c0.335,0.09,0.85,0.204,1.543,0.342
				c0.697,0.127,1.224,0.238,1.581,0.334c0.458,0.122,0.894,0.149,1.308,0.081c0.244-0.019,0.623-0.114,1.137-0.288
				c0.488-0.169,0.904-0.267,1.247-0.295c0.534-0.072,1.119-0.042,1.753,0.093c0.456,0.086,1.235-0.232,2.339-0.954
				c0.366-0.249,0.723-0.507,1.069-0.773c0.293-0.244,0.444-0.384,0.453-0.417c0.167-0.626,0.514-1.048,1.04-1.267
				c0.365-0.153,0.918-0.209,1.661-0.165c0.21,0.02,0.515,0.042,0.916,0.065c0.384,0.043,0.69,0.06,0.921,0.049
				c0.702-0.027,1.248-0.187,1.637-0.478c0.42-0.318,0.938-0.599,1.554-0.841C28.087,18.328,28.664,18.142,29.42,17.913z"/>
			<path style="fill-rule:evenodd;clip-rule:evenodd;fill:#EC7F6D;" d="M28.61,17.247c-0.933-0.765-1.889-1.53-2.87-2.295
				c-0.092-0.372-0.197-0.717-0.315-1.037c-1.479-0.336-2.804-0.284-3.976,0.156c-0.562,0.221-1.144,0.562-1.747,1.023
				c-0.406,0.31-0.93,0.769-1.572,1.375c-0.752,0.708-1.288,1.188-1.606,1.437c-0.626,0.551-1.241,0.991-1.844,1.32
				c-1.523,0.813-3.292,1.136-5.306,0.968c-2.296-0.28-3.979-0.456-5.05-0.527c-1.827-0.106-3.487,0.012-4.98,0.354
				c-0.659,0.135-1.357,0.372-2.095,0.714c-0.772,0.38-1.355,0.654-1.748,0.824c-0.647,0.271-1.27,0.427-1.868,0.47
				c-0.748,0.063-1.596-0.032-2.545-0.287c-0.123-0.032-0.467-0.179-1.032-0.438c-0.554-0.257-0.893-0.401-1.015-0.435
				c-0.235-0.063-0.389-0.092-0.461-0.087c-0.07-0.007-0.137,0.017-0.199,0.072c-0.048,0.047-0.154,0.126-0.315,0.238
				c-0.163,0.16-0.37,0.309-0.622,0.444c0.049,0.085,0.519,0.366,1.409,0.845c0.884,0.452,1.422,0.704,1.611,0.755
				c0.157,0.042,0.446,0.035,0.867-0.02c0.256-0.015,0.714-0.072,1.375-0.17c1.302-0.166,2.254-0.169,2.858-0.007
				c0.257,0.068,0.613,0.236,1.068,0.502c0.45,0.288,0.736,0.448,0.859,0.481c0.693,0.186,1.324,0.109,1.894-0.229
				c0.3-0.183,0.772-0.602,1.414-1.255c0.583-0.61,1.093-1.019,1.531-1.225c0.667-0.3,1.409-0.341,2.224-0.122
				c0.134,0.035,0.953,0.309,2.457,0.819c1.526,0.517,2.351,0.792,2.473,0.824c0.648,0.174,1.424,0.184,2.327,0.031
				c0.228-0.047,0.596-0.122,1.103-0.226c0.442-0.086,0.844-0.134,1.206-0.145c0.851-0.047,1.521-0.245,2.009-0.593
				c0.579-0.42,0.796-0.984,0.651-1.693c0.681,0.051,1.343-0.054,1.987-0.312c0.161-0.065,0.658-0.333,1.491-0.805
				c0.589-0.321,1.126-0.519,1.613-0.592c0.644-0.078,1.378,0.04,2.204,0.357c0.747,0.296,1.875,0.018,3.385-0.835
				C27.778,17.761,28.162,17.534,28.61,17.247z"/>
			<path style="fill-rule:evenodd;clip-rule:evenodd;fill:#E29990;" d="M-20.667,23.586c0.024-0.089,0.054-0.201,0.09-0.335
				c1.655-1.305,3.041-2.167,4.159-2.586c0.655-0.255,1.736-0.402,3.244-0.441c0.758-0.013,1.449-0.025,2.075-0.037l0.439,0.172
				c0.393,0.141,0.777,0.273,1.151,0.397c1.343,0.396,2.646,0.602,3.912,0.617c0.37,0.004,0.97-0.291,1.799-0.883l0.921-0.688
				c0.355-0.252,0.631-0.411,0.829-0.479c1.038-0.345,2.652-0.469,4.842-0.373C4.049,19,5.678,19.155,7.679,19.416
				c1.568,0.181,3.161-0.045,4.78-0.677c1.04-0.44,2.396-1.214,4.07-2.322c1.198-0.805,1.854-1.245,1.971-1.322
				c0.751-0.481,1.417-0.866,1.997-1.153c1.489-0.774,2.891-1.159,4.207-1.154l0.302,0.081c-0.497-1.007-1.072-1.473-1.728-1.396
				c-1.02,0.098-2.204,0.451-3.553,1.06c-1.376,0.577-2.764,1.355-4.163,2.333c-0.792,0.542-1.381,0.953-1.768,1.233
				c-0.65,0.46-1.227,0.826-1.731,1.099c-1.337,0.791-2.556,1.226-3.654,1.302c-0.82,0.068-2.058,0.06-3.711-0.024
				c-1.999-0.092-3.359-0.133-4.08-0.123c-1.515,0.025-2.762,0.188-3.741,0.488c-0.95,0.284-1.721,0.725-2.312,1.32
				c-0.285,0.08-0.552,0.116-0.802,0.109c-0.403-0.061-0.849-0.162-1.337-0.305c-0.257-0.069-0.7-0.224-1.33-0.464
				c-1.196-0.453-2.167-0.694-2.913-0.727c-1.211-0.085-3.065,0.334-5.563,1.257c-0.635,0.226-1.69,0.631-3.164,1.218
				C-22.031,22.107-22.072,22.886-20.667,23.586z"/>
		</g>
	</g>
</symbol>
<use xlink:href="#item_x5F_rasherBacon"  width="64.107" height="28.819" x="-32.031" y="0" transform="matrix(1 0 0 -1 32.0498 30.2998)" style="overflow:visible;"/>
</svg>
