<?xml version="1.0" encoding="iso-8859-1"?>
<!-- Generator: Adobe Illustrator 15.1.0, SVG Export Plug-In . SVG Version: 6.00 Build 0)  -->
<!DOCTYPE svg PUBLIC "-//W3C//DTD SVG 1.1//EN" "http://www.w3.org/Graphics/SVG/1.1/DTD/svg11.dtd">
<svg version="1.1" id="FlashAICB" xmlns="http://www.w3.org/2000/svg" xmlns:xlink="http://www.w3.org/1999/xlink" x="0px" y="0px"
	 width="40.05px" height="24.65px" viewBox="0 0 40.05 24.65" style="enable-background:new 0 0 40.05 24.65;" xml:space="preserve"
	>
<symbol  id="_x31_" viewBox="-0.017 -16.3 27.917 16.313">
	<g id="Layer_1_2_">
		<g>
			<path style="fill-rule:evenodd;clip-rule:evenodd;fill:#D49746;" d="M21.55-6.1c-0.466-0.333-0.833-0.583-1.1-0.75
				c-0.133-0.066-0.233-0.117-0.3-0.15l-0.1-0.05l-0.5-0.45L19.3-7.15c-0.367-0.1-1.55-0.217-3.55-0.35
				c-3.767-0.233-5.867-0.367-6.3-0.4c-0.2-0.033-0.434-0.35-0.7-0.95C8.717-8.95,8.667-9.067,8.6-9.2
				C8.533-9.4,8.45-9.617,8.35-9.85C8.483-9.483,8.6-9.167,8.7-8.9C7.233-8.6,5.783-7.967,4.35-7l-0.3,0.25v-0.3V-7.6L4-5.5
				c1,0.233,1.917,0.367,2.75,0.4c1.167,0.033,3.783,0.167,7.85,0.4c0.767,0,2.4,0.133,4.9,0.4l1.8-0.5l0.1-0.5l0.1-0.55L21.55-6.1z
				 M14.85-2.85l-0.55-0.1C13-3.083,10.933-3.333,8.1-3.7c-0.067,0-0.133,0-0.2,0l2,0.85c0.833,0.333,1.533,0.633,2.1,0.9
				C12.233-1.883,12.55-1.9,12.95-2l0.1-0.05c0.534-0.133,1.15-0.4,1.85-0.8H14.85z M20.75-9.45c-0.067,0.167-0.167,0.367-0.3,0.6
				h0.05c0.133-0.233,0.233-0.433,0.3-0.6H20.75z M16.55-9.8l-0.65-0.35c-0.367-0.1-0.65-0.233-0.85-0.4c-0.033,0-0.066,0-0.1,0
				c-0.034,0-0.083,0-0.15,0c-0.233,0.033-0.6,0.117-1.1,0.25c-0.161,0.064-0.336,0.131-0.525,0.2c0.59,0.2,1.182,0.3,1.775,0.3
				H16.55z M19.6-7.55c0.3-0.4,0.55-0.767,0.75-1.1C20.217-8.483,20.1-8.317,20-8.15L19.6-7.55z"/>
			<path style="fill-rule:evenodd;clip-rule:evenodd;fill:#AEA98A;" d="M21.5-5.85l0.05-0.2V-6.1L21.5-5.85z M18.7-11.35
				c0.066-0.167,0.167-0.283,0.3-0.35v-0.05l0.15-0.05l0.1-0.05c0.1-0.033,0.2-0.1,0.3-0.2c0.066-0.035,0.116-0.084,0.15-0.15
				c-0.267-0.167-0.567-0.316-0.9-0.45c-0.1-0.033-0.2-0.083-0.3-0.15c-0.3-0.167-0.583-0.35-0.85-0.55
				c0.033,0.067,0.083,0.117,0.15,0.15c0.233,0.167,0.467,0.3,0.7,0.4c-0.233,0.267-0.45,0.566-0.65,0.9
				c-0.067,0.066-0.117,0.133-0.15,0.2l-0.2,0.3c-0.067,0.167-0.15,0.316-0.25,0.45c0.267,0.067,0.467,0.15,0.6,0.25l0.55,0.25
				l-0.25-0.65l0.2,0.1c-0.233-0.3-0.3-0.567-0.2-0.8c0.067-0.233,0.333-0.383,0.8-0.45c0.2-0.1,0.333-0.1,0.4,0
				c0.1,0.067,0.083,0.167-0.05,0.3c-0.1,0.067-0.2,0.133-0.3,0.2c-0.1,0.1-0.183,0.183-0.25,0.25L18.7-11.35z M11.2-12.75
				l-0.1-0.15L10.5-14L7-12.6c0.1,0.067,0.2,0.167,0.3,0.3l0.4-0.05H10c0.4,0,0.633-0.033,0.7-0.1c-0.321-0.08-0.537-0.13-0.65-0.15
				C10.322-12.576,10.705-12.626,11.2-12.75z M26.4-11.35L27-11.4h0.45l-0.4-0.25c-0.267-0.033-0.466-0.067-0.6-0.1L26-11.85
				c-0.367-0.167-0.567-0.3-0.6-0.4c0-0.067,0.083-0.283,0.25-0.65c0.133-0.267,0.15-0.533,0.05-0.8l-0.55-0.5l-1.1-0.7l0.05,0.75
				c0,0.533-0.117,0.816-0.35,0.85c-0.2,0.066-0.433,0-0.7-0.2c-0.133-0.3-0.267-0.467-0.4-0.5l-0.1,0.2l-0.05,0.25L22.45-13
				c0,0.167,0.083,0.367,0.25,0.6l0.5,0.45l0.05,0.25v0.05l0.05-0.05c0-0.167-0.033-0.3-0.1-0.4l-0.55-0.5
				c0-0.133,0.1-0.25,0.3-0.35h0.25c0.3,0,0.517-0.033,0.65-0.1c0.066,0,0.233-0.1,0.5-0.3c0.167-0.167,0.3-0.25,0.4-0.25
				c-0.1,0.233-0.167,0.4-0.2,0.5l-0.3,0.7c-0.167,0.133-0.3,0.25-0.4,0.35c-0.1,0.1-0.133,0.183-0.1,0.25l1,0.05
				c0.933,0.067,1.483,0.133,1.65,0.2c0.1,0.033,0.3,0.083,0.6,0.15l-1.5,0.05l-1,0.2l-0.3,0.1c-0.3-0.034-0.517-0.05-0.65-0.05
				l-0.9,0.1h0.15l0.15,0.1l0.3,0.05c0.167,0,0.3,0.05,0.4,0.15l0.25,0.3l0.15,0.45l0.3,0.45l0.1,0.25
				c0.066,0.067,0.3,0.15,0.7,0.25l-0.1,0.3c0.2,0.034,0.367-0.05,0.5-0.25c0.133-0.2,0.117-0.383-0.05-0.55
				c-0.1-0.133-0.167-0.217-0.2-0.25c-0.033-0.233-0.083-0.4-0.15-0.5l-0.1-0.35c0-0.3,0.117-0.483,0.35-0.55
				C25.5-11.217,25.833-11.283,26.4-11.35z M19.7-9.6l0.75,0.75c0.133-0.233,0.233-0.433,0.3-0.6c-0.11-0.055-0.21-0.097-0.3-0.125
				C20.434-9.586,20.417-9.594,20.4-9.6c-0.1,0-0.183,0-0.25,0l-0.1,0.05V-9.6c-0.167,0.033-0.283,0.017-0.35-0.05V-9.6z M11.8-11.7
				l-0.1-0.25c-0.333,0.1-0.633,0.2-0.9,0.3l-0.75,0.3l-0.7,0.4c0.133,0.034,0.4-0.017,0.8-0.15c0.434-0.066,1.067-0.117,1.9-0.15
				C11.95-11.45,11.867-11.6,11.8-11.7z M20.35-8.65l-0.3-0.1l-2.7-1.95l-0.15-0.05v-0.05c-0.167,0.3-0.317,0.617-0.45,0.95
				L16.7-9.8h-0.05c0.367,0.167,0.733,0.4,1.1,0.7c0.167,0.133,0.333,0.267,0.5,0.4l1.35,1.15l0.4-0.6
				C20.1-8.317,20.217-8.483,20.35-8.65z"/>
			<path style="fill-rule:evenodd;clip-rule:evenodd;fill:#9D6E30;" d="M4.35-7C5.617-7.9,6.967-8.517,8.4-8.85
				c-1.767,0.333-3.217,0.934-4.35,1.8v0.3L4.35-7z M20.35-8.65c-0.2,0.333-0.45,0.7-0.75,1.1L19.55-7.5l0.5,0.45L20.15-7
				c0.067,0.033,0.167,0.083,0.3,0.15c0.267,0.167,0.633,0.417,1.1,0.75v0.05L21.8-7.5c0.034-0.3,0.05-0.717,0.05-1.25l-0.7-0.35
				L20.8-9.4v-0.05c-0.066,0.167-0.167,0.367-0.3,0.6l0.05,0.15L20.5-8.6v0.05L20.35-8.65z M17.25-10.95
				c0.1-0.133,0.183-0.283,0.25-0.45l0.2-0.3c0.033-0.066,0.083-0.133,0.15-0.2c0.2-0.333,0.417-0.633,0.65-0.9
				c-0.233-0.1-0.467-0.233-0.7-0.4c-0.066-0.033-0.117-0.083-0.15-0.15c-0.133-0.1-0.267-0.2-0.4-0.3s-0.25-0.2-0.35-0.3l-0.65-0.5
				v-0.05c-0.033,0-0.067-0.017-0.1-0.05c-0.066-0.034-0.133-0.067-0.2-0.1c-0.3-0.133-0.684-0.25-1.15-0.35l-0.9-0.15
				c-0.333,0-0.783,0.1-1.35,0.3l-2.1,0.8L10.5-14l0.6,1.1c0.367-0.167,0.7-0.267,1-0.3l0.25-0.45c0.066-0.367,0.35-0.633,0.85-0.8
				c0.066-0.033,0.167-0.066,0.3-0.1c0.4-0.1,0.783-0.133,1.15-0.1L14.6-12.2c-0.033,0-0.067,0-0.1,0c-0.2-0.033-0.4-0.05-0.6-0.05
				c-1.267,0.267-1.983,0.4-2.15,0.4l0.05,0.15c0.067,0.1,0.15,0.25,0.25,0.45c0.3-0.067,0.583-0.117,0.85-0.15
				c0.6-0.1,1.167-0.15,1.7-0.15c0.033,0.3,0.1,0.533,0.2,0.7c0.034,0.067,0.067,0.133,0.1,0.2c0.033,0.033,0.083,0.066,0.15,0.1
				c0.2,0.167,0.483,0.3,0.85,0.4l0.65,0.35h0.1h0.05l0.05-0.05c0.133-0.333,0.283-0.65,0.45-0.95h-0.1l0.1-0.15H17.25z M8.1-10.55
				L7.95-10.9c-0.167,0.1-0.383,0.2-0.65,0.3c-0.4,0.133-0.633,0.217-0.7,0.25C6.133-10.183,5.75-9.967,5.45-9.7L8.1-10.55z"/>
			<path style="fill-rule:evenodd;clip-rule:evenodd;fill:#F5F1DE;" d="M21.4-5.3l0.1-0.5v-0.05L21.4-5.3z M7.85-3.8
				C7.917-3.767,8-3.733,8.1-3.7c2.833,0.367,4.9,0.617,6.2,0.75l0.55,0.1c0.1-0.033,0.183-0.066,0.25-0.1
				c0.833-0.3,2.3-0.75,4.4-1.35c-2.5-0.267-4.133-0.4-4.9-0.4c-4.067-0.233-6.684-0.367-7.85-0.4C5.917-5.133,5-5.267,4-5.5
				l0.25,0.2L4.8-4.8c0.067,0.033,0.167,0.066,0.3,0.1c0.233,0.133,0.566,0.233,1,0.3c0.066,0,0.167,0.017,0.3,0.05
				C6.433-4.317,6.5-4.3,6.6-4.3c0.167,0.066,0.367,0.15,0.6,0.25C7.4-3.983,7.617-3.9,7.85-3.8z M13.025-10.15
				c-1.622,0.435-3.047,0.869-4.275,1.3c0.267,0.6,0.5,0.917,0.7,0.95c0.433,0.033,2.533,0.167,6.3,0.4
				c2,0.133,3.183,0.25,3.55,0.35l0.25-0.35l0.05-0.05L18.25-8.7c-0.167-0.133-0.333-0.267-0.5-0.4c-0.367-0.3-0.733-0.533-1.1-0.7
				h-0.1h-1.6c-0.593,0-1.185-0.1-1.775-0.3H13.15L13.025-10.15z M22.35-14.8l-0.05,0.15c-0.367,0.367-0.55,0.65-0.55,0.85
				l-0.1-0.15L21.6-13.9v0.05l0.15,0.05h0.3c0.034,0.066-0.017,0.167-0.15,0.3c-0.1,0.133-0.15,0.267-0.15,0.4
				c0.033,0.3,0.033,0.517,0,0.65l-0.1,0.5c-0.133,0.067-0.25,0.017-0.35-0.15c-0.1-0.167-0.183-0.267-0.25-0.3
				c-0.167-0.167-0.283-0.4-0.35-0.7h-0.05l-0.1,0.15l-0.05,0.1l0.2,0.7l0.25,0.4c0.066,0.133,0.083,0.233,0.05,0.3
				c-0.1,0.167-0.367,0.317-0.8,0.45l-0.35,0.2l0.05,0.55v0.05l0.25,0.35l-0.3-0.3c0.066,0.133,0.167,0.25,0.3,0.35l0.2,0.1
				c-0.033-0.1-0.017-0.183,0.05-0.25c0.1-0.167,0.434-0.25,1-0.25c0.367-0.066,0.617-0.05,0.75,0.05h0.9l0.3,0.05
				c-0.033,0.533-0.067,0.934-0.1,1.2c-0.333,0.133-0.683,0.066-1.05-0.2c-0.2-0.133-0.534-0.233-1-0.3
				c-0.034-0.167,0-0.283,0.1-0.35l0.35-0.15l0.05-0.05L20.35-9.7v0.05l0.1,0.075c0.089,0.028,0.189,0.07,0.3,0.125h0.05v0.05
				l0.35,0.3l0.7,0.35l0.1,0.05c0.4,0.233,0.85,0.4,1.35,0.5c0.467,0,0.85,0.067,1.15,0.2l0.2,0.05l1.1,0.1l0.3,0.2h0.85v-0.2
				l-0.15-0.1v0.05c-0.133,0-0.283-0.05-0.45-0.15c-0.1-0.167-0.2-0.267-0.3-0.3L25.5-8.5l-0.7-0.3c-0.6-0.267-0.9-0.8-0.9-1.6
				l-0.25-0.3c-0.1-0.1-0.233-0.15-0.4-0.15L22.2-10.9h-0.15l-1.3,0.25l-0.4,0.2l0.15-0.2l0.35-0.25c0.167-0.1,0.433-0.184,0.8-0.25
				l0.2-0.05H22l0.75-0.15c0.333-0.1,0.5-0.2,0.5-0.3v-0.05l-0.55-0.55c-0.133-0.133-0.233-0.317-0.3-0.55l0.05-1.25l0.1-0.65
				c0-0.066,0.017-0.15,0.05-0.25L22.35-14.8z M26.25-14.3c-0.233-0.034-0.517-0.15-0.85-0.35l-0.45-0.15
				c-0.133-0.1-0.267-0.267-0.4-0.5c-0.167-0.233-0.3-0.4-0.4-0.5l-0.25-0.15c-0.267,0-0.533,0.067-0.8,0.2l0.45,0.2
				c0.1,0.033,0.3,0.2,0.6,0.5c0.2,0.2,0.367,0.333,0.5,0.4c0.2,0.2,0.35,0.316,0.45,0.35c0.467,0.1,0.833,0.433,1.1,1
				c0.066,0.2,0.216,0.383,0.45,0.55l0.9,1.1c0.067,0.133,0.1,0.45,0.1,0.95v0.8c0.167-0.434,0.25-0.667,0.25-0.7V-11
				c0-0.367-0.15-0.7-0.45-1c-0.3-0.367-0.483-0.667-0.55-0.9l-0.25-0.7C26.517-13.967,26.383-14.2,26.25-14.3z M19.8-12.3
				l-0.05,0.95l0.05,0.3v-0.55c0.034-0.167,0.083-0.283,0.15-0.35c0.033-0.066,0.133-0.117,0.3-0.15l0.1-0.4H20.3l-0.1-0.05
				l-0.1,0.1l-0.1-0.1c0.233-0.333,0.533-0.883,0.9-1.65c-0.066,0.1-0.3,0.534-0.7,1.3c-0.067,0.133-0.133,0.25-0.2,0.35
				C19.933-12.45,19.867-12.367,19.8-12.3z M27.45-11.4H27l-0.6,0.05L27.45-11.4z M19.8-10.2l0.05,0.05v-0.05H19.8z M18.7-9.95
				c0.1,0.167,0.216,0.284,0.35,0.35c0.3,0.067,0.517,0.083,0.65,0.05V-9.6v-0.05c0.066,0.066,0.183,0.083,0.35,0.05
				c-0.033-0.066-0.033-0.117,0-0.15l-0.4-0.2l-0.15-0.4c0.067,0.2,0.1,0.367,0.1,0.5l0.05,0.25l0.05,0.05h-0.3L19.05-9.6L19-9.65
				C18.9-9.717,18.8-9.817,18.7-9.95z M19.2-10.75l-0.2-0.4l-0.05,0.3c-0.167,0.033-0.267,0.067-0.3,0.1
				c0,0.133,0.033,0.267,0.1,0.4l0.2,0.2c0.1,0.066,0.25,0.183,0.45,0.35C19.267-10.067,19.2-10.383,19.2-10.75z M19.7-12.2
				c-0.035,0.066-0.084,0.116-0.15,0.15l0.1-0.05L19.7-12.2z M19.6-10.6l-0.1-0.95h-0.05l-0.05,0.4
				C19.4-10.883,19.467-10.7,19.6-10.6z M22.6-15c0.033-0.167,0.1-0.333,0.2-0.5v-0.05l-0.25,0.4L22.6-15z"/>
			<path style="fill-rule:evenodd;clip-rule:evenodd;fill:#C5BF9C;" d="M8.75-8.85c1.228-0.431,2.653-0.865,4.275-1.3L12.6-10.3
				c-0.1-0.067-0.217-0.25-0.35-0.55c-0.067-0.133-0.133-0.267-0.2-0.4c-0.833,0.033-1.466,0.083-1.9,0.15
				c-0.4,0.133-0.667,0.184-0.8,0.15l0.7-0.4l0.75-0.3c0.267-0.1,0.567-0.2,0.9-0.3l-0.5-0.8c-0.495,0.124-0.878,0.174-1.15,0.15
				c0.113,0.02,0.33,0.07,0.65,0.15c-0.067,0.067-0.3,0.1-0.7,0.1H7.7L7.3-12.3c0.067,0.066,0.117,0.133,0.15,0.2
				c0.167,0.4,0.3,0.733,0.4,1c0.033,0.067,0.066,0.133,0.1,0.2l0.15,0.35c0,0.066,0.017,0.133,0.05,0.2l0.2,0.5
				C8.45-9.617,8.533-9.4,8.6-9.2C8.667-9.067,8.717-8.95,8.75-8.85z M23.25-10.85l-0.3-0.05L22.8-11h-0.15l-0.45,0.1L23.25-10.85z
				 M23.9-10.4c0,0.8,0.3,1.333,0.9,1.6l0.7,0.3L26-8.35c0.1,0.033,0.2,0.133,0.3,0.3c0.167,0.1,0.317,0.15,0.45,0.15v-0.05
				l0.15-0.1l0.15-0.25l0.3-1.05l0.3-0.55v-0.8c0-0.5-0.033-0.816-0.1-0.95l-0.9-1.1c-0.233-0.167-0.383-0.35-0.45-0.55
				c-0.267-0.567-0.633-0.9-1.1-1c-0.1-0.034-0.25-0.15-0.45-0.35c-0.133-0.067-0.3-0.2-0.5-0.4c-0.3-0.3-0.5-0.467-0.6-0.5
				l-0.45-0.2c0.267-0.133,0.533-0.2,0.8-0.2l0.25,0.15c0.1,0.1,0.233,0.267,0.4,0.5c0.133,0.233,0.267,0.4,0.4,0.5l0.45,0.15
				c0.333,0.2,0.617,0.316,0.85,0.35h0.05l-0.1-0.05c0-0.033-0.083-0.083-0.25-0.15l-1.45-1l-0.35-0.3l-0.45-0.4
				c-0.133-0.133-0.317-0.133-0.55,0l-0.4,0.15L22.5-16c-0.633,0.6-1.167,1.2-1.6,1.8c-0.367,0.767-0.667,1.317-0.9,1.65l0.1,0.1
				l0.1-0.1l0.3-0.3l0.05-0.1l0.1-0.15l0.1-0.15c0.167-0.1,0.283-0.083,0.35,0.05c0.1,0.233,0.183,0.367,0.25,0.4
				c0.033-0.133,0.017-0.317-0.05-0.55c0-0.033,0.1-0.2,0.3-0.5v-0.05l0.05-0.05l0.05-0.35c0.066-0.2,0.283-0.367,0.65-0.5
				l0.25-0.15c-0.033,0.1-0.05,0.184-0.05,0.25l-0.1,0.65L22.4-12.8c0.067,0.233,0.167,0.417,0.3,0.55l0.55,0.55l-0.05-0.25
				l-0.5-0.45c-0.167-0.233-0.25-0.434-0.25-0.6l0.05-0.55l0.05-0.25l0.1-0.2c0.133,0.033,0.267,0.2,0.4,0.5
				c0.267,0.2,0.5,0.267,0.7,0.2c0.233-0.034,0.35-0.317,0.35-0.85l-0.05-0.75l1.1,0.7l0.55,0.5c0.1,0.267,0.083,0.534-0.05,0.8
				c-0.167,0.367-0.25,0.583-0.25,0.65c0.033,0.1,0.233,0.233,0.6,0.4l0.45,0.1c0.133,0.033,0.333,0.067,0.6,0.1l0.4,0.25
				l-1.05,0.05c-0.566,0.067-0.9,0.133-1,0.2c-0.233,0.066-0.35,0.25-0.35,0.55l0.1,0.35c0.067,0.1,0.117,0.267,0.15,0.5
				c0.034,0.033,0.1,0.117,0.2,0.25c0.167,0.167,0.183,0.35,0.05,0.55c-0.133,0.2-0.3,0.284-0.5,0.25l0.1-0.3
				c-0.4-0.1-0.633-0.183-0.7-0.25l-0.1-0.25l-0.3-0.45L23.9-10.4z M2-7l0.1,0.75c-0.033,0.233-0.167,0.4-0.4,0.5L0.7-5L0.65-4.95
				L0.6-4.9l0.3-0.05L1.1-4.9l0.05-0.05C1.817-5.183,2.267-5.4,2.5-5.6c0.133-0.066,0.45-0.217,0.95-0.45
				c0.033-0.034,0.15-0.1,0.35-0.2c0.2-0.1,0.25-0.2,0.15-0.3L3.45-6.8l-1-0.2H2z M4.55-3.5c0.067-0.167,0.067-0.317,0-0.45
				L4.5-4.05c0-0.067,0.083-0.184,0.25-0.35C4.883-4.5,5-4.6,5.1-4.7C4.967-4.733,4.867-4.767,4.8-4.8L4.25-5.3
				c-0.133,0.033-0.267,0.05-0.4,0.05c-0.4,0-1,0.133-1.8,0.4l-1.5,0.5l-0.5,0.3C-0.017-3.983-0.033-3.9,0-3.8l0.025,0.125
				C0.03-3.647,0.039-3.623,0.05-3.6L1.2-3.8c0.7-0.267,1.083-0.4,1.15-0.4L3-4.15C3.267-4.183,3.683-4.267,4.25-4.4l-0.3,0.3
				C3.95-4.033,4-3.983,4.1-3.95c0.033,0,0.1,0.017,0.2,0.05C4.467-3.867,4.55-3.733,4.55-3.5z M6.4-4.35
				c-0.233,0.3-0.433,0.5-0.6,0.6C5.733-3.717,5.583-3.667,5.35-3.6L5.1-3.55C5.033-3.483,5-3.233,5-2.8L4.8-2.1
				C4.667-1.6,4.467-1.4,4.2-1.5v-1.1l0.2-0.6L4.1-2.5c-0.267,0.567-0.367,0.9-0.3,1l0.15,0.15c0.1,0.033,0.216,0.133,0.35,0.3
				l0.3,0.1L5.7-0.9C5.667-1.033,5.767-1.267,6-1.6l0.6-0.85c0,0.133-0.05,0.333-0.15,0.6L6.35-1.2C6.583-1.7,7-2.433,7.6-3.4
				l0.25-0.4C7.617-3.9,7.4-3.983,7.2-4.05L7.1-3.9C6.767-3.167,6.467-2.65,6.2-2.35C5.767-1.817,5.517-1.567,5.45-1.6
				c0-0.167,0.1-0.35,0.3-0.55c0.467-0.6,0.717-1.1,0.75-1.5L6.6-4.3C6.5-4.3,6.433-4.317,6.4-4.35z M19.85-10.15L19.8-10.2
				l-0.2-0.4c-0.133-0.1-0.2-0.283-0.2-0.55l0.05-0.4h0.05l0.05-0.4l0.1-0.15l-0.1,0.05c-0.1,0.1-0.2,0.167-0.3,0.2l-0.1,0.05
				l0.1,1.1l-0.05-0.05c0,0.367,0.066,0.683,0.2,0.95c-0.2-0.167-0.35-0.284-0.45-0.35l-0.2-0.2c0.1,0.167,0.233,0.3,0.4,0.4H18.9
				c0.102,0.003,0.218,0.103,0.35,0.3l0.15,0.1h0.3L19.65-9.6L19.6-9.85c0-0.133-0.033-0.3-0.1-0.5l0.15,0.4l0.4,0.2
				c-0.033,0.033-0.033,0.083,0,0.15v0.05l0.1-0.05c0.067,0,0.15,0,0.25,0c0.017,0.006,0.034,0.014,0.05,0.025l-0.1-0.075V-9.7
				l-0.2-0.1C20.017-9.9,19.917-10.017,19.85-10.15z M22.6-15l-0.05-0.15l0.25-0.4v0.05C22.7-15.333,22.633-15.167,22.6-15z
				 M18.7-9.95c0.1,0.133,0.2,0.233,0.3,0.3l-0.1-0.3H18.7z M18.65-10.75c0.033-0.033,0.133-0.067,0.3-0.1l0.05-0.3v-0.55
				c-0.133,0.067-0.233,0.184-0.3,0.35l-0.05,0.1C18.617-11.083,18.617-10.917,18.65-10.75z"/>
			<path style="fill-rule:evenodd;clip-rule:evenodd;fill:#8B866D;" d="M4.25-5.3L4-5.5l0.05-2.1v-0.05L3.5-7.6
				C3.233-7.567,2.883-7.583,2.45-7.65C1.917-7.683,1.55-7.7,1.35-7.7c-0.267,0.267-0.434,0.483-0.5,0.65V-7
				C1.25-7.067,1.633-7.067,2-7h0.45l1,0.2l0.5,0.25c0.1,0.1,0.05,0.2-0.15,0.3c-0.2,0.1-0.316,0.167-0.35,0.2
				C2.95-5.817,2.633-5.667,2.5-5.6C2.267-5.4,1.817-5.183,1.15-4.95L1.1-4.9h0.15C1.217-4.833,1.067-4.717,0.8-4.55l-0.25,0.2
				l1.5-0.5c0.8-0.267,1.4-0.4,1.8-0.4C3.983-5.25,4.117-5.267,4.25-5.3z M5.1-4.7C5-4.6,4.883-4.5,4.75-4.4
				C4.583-4.233,4.5-4.117,4.5-4.05l0.05,0.1c0.067,0.133,0.067,0.284,0,0.45L4.4-3.2L4.2-2.6v1.1c0.267,0.1,0.466-0.1,0.6-0.6
				L5-2.8c0-0.434,0.033-0.684,0.1-0.75L5.35-3.6C5.583-3.667,5.733-3.717,5.8-3.75c0.167-0.1,0.367-0.3,0.6-0.6
				C6.267-4.383,6.167-4.4,6.1-4.4C5.667-4.467,5.333-4.567,5.1-4.7z M18.7-9.95h0.2l0.1,0.3l0.05,0.05l0.35,0.05l-0.15-0.1
				c-0.132-0.197-0.249-0.297-0.35-0.3h0.25c-0.167-0.1-0.3-0.233-0.4-0.4c-0.067-0.133-0.1-0.267-0.1-0.4
				c-0.033-0.167-0.033-0.333,0-0.5l0.05-0.1l0.05-0.15c0.067-0.067,0.15-0.15,0.25-0.25c0.1-0.067,0.2-0.133,0.3-0.2
				c0.133-0.133,0.15-0.233,0.05-0.3c-0.067-0.1-0.2-0.1-0.4,0c-0.467,0.067-0.733,0.217-0.8,0.45c-0.1,0.233-0.033,0.5,0.2,0.8
				l-0.2-0.1l0.25,0.65l-0.55-0.25c-0.133-0.1-0.333-0.183-0.6-0.25H17.2l-0.1,0.15h0.1v0.05l0.15,0.05l2.7,1.95l0.3,0.1l0.15,0.1
				V-8.6l0.05-0.1L20.5-8.85h-0.05L19.7-9.6v0.05c-0.133,0.033-0.35,0.017-0.65-0.05C18.917-9.667,18.8-9.783,18.7-9.95z M19.8-10.2
				h0.05v0.05l0.3,0.3L19.9-10.2v-0.05l-0.05-0.55H19.8v-0.25l-0.05-0.3l0.05-0.95l-0.1,0.1l-0.05,0.1l-0.1,0.15l-0.05,0.4l0.1,0.95
				L19.8-10.2z M19-11.15l0.2,0.4l0.05,0.05l-0.1-1.1L19-11.75v0.05V-11.15z M22.2-10.9l0.45-0.1l0.9-0.1
				c0.133,0,0.35,0.017,0.65,0.05l0.3-0.1l1-0.2L27-11.4c-0.3-0.067-0.5-0.117-0.6-0.15c-0.167-0.067-0.717-0.133-1.65-0.2l-1-0.05
				c-0.033-0.067,0-0.15,0.1-0.25c0.1-0.1,0.233-0.217,0.4-0.35l0.3-0.7c0.034-0.1,0.1-0.267,0.2-0.5c-0.1,0-0.233,0.083-0.4,0.25
				c-0.267,0.2-0.434,0.3-0.5,0.3c-0.133,0.066-0.35,0.1-0.65,0.1h-0.25c-0.2,0.1-0.3,0.217-0.3,0.35l0.55,0.5
				c0.066,0.1,0.1,0.233,0.1,0.4l-0.05,0.05c0,0.1-0.167,0.2-0.5,0.3L22-11.2h-0.15l-0.2,0.05c-0.367,0.066-0.633,0.15-0.8,0.25
				l-0.35,0.25l-0.15,0.2l0.4-0.2l1.3-0.25H22.2z M7.2-4.05C6.967-4.15,6.767-4.233,6.6-4.3L6.5-3.65c-0.033,0.4-0.283,0.9-0.75,1.5
				c-0.2,0.2-0.3,0.383-0.3,0.55C5.517-1.567,5.767-1.817,6.2-2.35c0.267-0.3,0.566-0.816,0.9-1.55L7.2-4.05z"/>
			<path style="fill-rule:evenodd;clip-rule:evenodd;fill:#E4E0CE;" d="M2-7C1.633-7.067,1.25-7.067,0.85-7v-0.05
				C0.783-6.917,0.75-6.7,0.75-6.4L0.9-5.95c-0.233,0.2-0.383,0.367-0.45,0.5c0,0.3,0.033,0.467,0.1,0.5h0.1L0.7-5l1-0.75
				c0.233-0.1,0.367-0.267,0.4-0.5L2-7z M4.4-3.2l0.15-0.3c0-0.233-0.083-0.367-0.25-0.4C4.2-3.933,4.133-3.95,4.1-3.95
				C4-3.983,3.95-4.033,3.95-4.1l0.3-0.3C3.683-4.267,3.267-4.183,3-4.15L2.35-4.2C2.283-4.2,1.9-4.067,1.2-3.8L0.05-3.6
				C0.039-3.623,0.03-3.647,0.025-3.675L0.05-3.5C0.15-3.2,0.2-3.033,0.2-3l0.15,0.45L0.7-2.1L1-1.9l0.8,0.85
				c0.267,0.333,0.6,0.55,1,0.65c0.133,0.066,0.3,0.1,0.5,0.1L4-0.2C4.133-0.167,4.333-0.1,4.6,0c0.233,0.033,0.433,0,0.6-0.1
				l0.9-0.55c0.033-0.1,0.117-0.283,0.25-0.55l0.1-0.65c0.1-0.267,0.15-0.467,0.15-0.6L6-1.6C5.767-1.267,5.667-1.033,5.7-0.9
				L4.6-0.95l-0.3-0.1c-0.133-0.167-0.25-0.267-0.35-0.3L3.8-1.5c-0.066-0.1,0.034-0.433,0.3-1L4.4-3.2z M21.65-13.95l0.1,0.15
				c0-0.2,0.183-0.483,0.55-0.85l0.05-0.15c-0.367,0.133-0.583,0.3-0.65,0.5L21.65-13.95z M20.65-13.1h0.05
				c0.066,0.3,0.183,0.533,0.35,0.7c0.067,0.033,0.15,0.133,0.25,0.3c0.1,0.167,0.217,0.217,0.35,0.15l0.1-0.5
				c0.033-0.133,0.033-0.35,0-0.65c0-0.133,0.05-0.267,0.15-0.4c0.133-0.133,0.184-0.233,0.15-0.3h-0.3l-0.15-0.05
				c-0.2,0.3-0.3,0.467-0.3,0.5c0.067,0.233,0.083,0.417,0.05,0.55c-0.067-0.034-0.15-0.167-0.25-0.4
				c-0.067-0.133-0.184-0.15-0.35-0.05L20.65-13.1z M19.8-11.05v0.25h0.05L20.2-11c0.433-0.133,0.7-0.283,0.8-0.45
				c0.033-0.066,0.017-0.167-0.05-0.3l-0.25-0.4l-0.2-0.7l-0.3,0.3l0.1,0.05h0.05l-0.1,0.4c-0.167,0.033-0.267,0.083-0.3,0.15
				c-0.067,0.067-0.117,0.184-0.15,0.35V-11.05z M20.35-9.7l1.35-0.25L21.65-9.9L21.3-9.75c-0.1,0.067-0.133,0.183-0.1,0.35
				c0.466,0.066,0.8,0.167,1,0.3c0.367,0.267,0.716,0.333,1.05,0.2c0.033-0.267,0.067-0.667,0.1-1.2l-0.3-0.05h-0.9
				c-0.133-0.1-0.383-0.117-0.75-0.05c-0.566,0-0.9,0.083-1,0.25C20.333-9.883,20.317-9.8,20.35-9.7z"/>
			<path style="fill-rule:evenodd;clip-rule:evenodd;fill:#B17B39;" d="M4.05-7.05c1.133-0.867,2.583-1.467,4.35-1.8
				C6.967-8.517,5.617-7.9,4.35-7C5.783-7.967,7.233-8.6,8.7-8.9C8.6-9.167,8.483-9.483,8.35-9.85l-0.2-0.5
				c-0.033-0.066-0.05-0.133-0.05-0.2L5.45-9.7c0.3-0.267,0.683-0.483,1.15-0.65c0.066-0.033,0.3-0.117,0.7-0.25
				c0.267-0.1,0.483-0.2,0.65-0.3c-0.034-0.067-0.067-0.133-0.1-0.2c-0.1-0.267-0.233-0.6-0.4-1c-0.034-0.066-0.083-0.133-0.15-0.2
				c-0.1-0.133-0.2-0.233-0.3-0.3c-0.033,0-0.067,0-0.1,0l-2.5,1.1c-0.2,1.033-0.3,1.833-0.3,2.4L4.05-7.65v0.05V-7.05z M11.2-12.75
				l0.5,0.8l0.1,0.25l-0.05-0.15c0.167,0,0.883-0.133,2.15-0.4c0.2,0,0.4,0.017,0.6,0.05c0.033,0,0.067,0,0.1,0l0.05-2.45
				c-0.367-0.033-0.75,0-1.15,0.1c-0.133,0.033-0.233,0.066-0.3,0.1c-0.5,0.167-0.784,0.434-0.85,0.8L12.1-13.2
				c-0.3,0.034-0.633,0.133-1,0.3L11.2-12.75z M13.025-10.15l0.125,0.05h0.025c0.189-0.069,0.364-0.136,0.525-0.2
				c0.5-0.133,0.867-0.217,1.1-0.25c0.067,0,0.117,0,0.15,0c0.033,0,0.066,0,0.1,0c-0.066-0.034-0.117-0.067-0.15-0.1
				c-0.033-0.067-0.066-0.133-0.1-0.2c-0.1-0.167-0.167-0.4-0.2-0.7c-0.533,0-1.1,0.05-1.7,0.15c-0.267,0.033-0.55,0.083-0.85,0.15
				c0.067,0.133,0.133,0.267,0.2,0.4c0.133,0.3,0.25,0.483,0.35,0.55L13.025-10.15z"/>
		</g>
	</g>
</symbol>
<use xlink:href="#_x31_"  width="27.917" height="16.313" x="-0.017" y="-16.3" transform="matrix(1 0 0 -1 0 0)" style="overflow:visible;"/>
</svg>
