<?xml version="1.0" encoding="iso-8859-1"?>
<!-- Generator: Adobe Illustrator 15.1.0, SVG Export Plug-In . SVG Version: 6.00 Build 0)  -->
<!DOCTYPE svg PUBLIC "-//W3C//DTD SVG 1.1//EN" "http://www.w3.org/Graphics/SVG/1.1/DTD/svg11.dtd">
<svg version="1.1" id="Layer_1" xmlns="http://www.w3.org/2000/svg" xmlns:xlink="http://www.w3.org/1999/xlink" x="0px" y="0px"
	 width="63px" height="45.75px" viewBox="0 0 63 45.75" style="enable-background:new 0 0 63 45.75;" xml:space="preserve">
<g>
	<g>
		<g>
			<path style="fill-rule:evenodd;clip-rule:evenodd;fill:#E7CD8B;" d="M46.484,13.699c-1.117-0.466-2.409-0.85-3.875-1.152
				c-1.42-0.349-2.887-0.582-4.399-0.698c-1.582-0.116-2.665-0.093-3.247,0.07c-1.35,0.396-3.259,2.467-5.726,6.215
				c-0.512,0.814-1.443,2.351-2.793,4.608c-0.559,0.907-1.199,2.095-1.92,3.562l-0.104,0.104h-0.07l-0.209,0.07l-0.069-0.175
				l0.035-0.21c0.232-0.209,0.756-1.012,1.571-2.409c1.326-2.304,2.304-3.945,2.933-4.922c2.863-4.585,5.178-7.123,6.948-7.611
				l1.013,0.035c0.628-0.023,1.699,0.093,3.212,0.349l2.653,0.419c0.372,0.047,0.838,0.233,1.396,0.559
				c1.629,0.605,2.618,0.966,2.968,1.082c1.396,0.489,2.142,0.919,2.234,1.292c0.023,0.046,0.012,0.093-0.035,0.14
				c-0.023,0.465-1.141,2.176-3.352,5.132c-2.281,3.002-4.341,5.586-6.18,7.75c-1.396,1.677-2.292,2.561-2.688,2.653l-0.069-0.209
				c0.721-0.629,1.617-1.676,2.688-3.143c1.188-1.723,2.468-3.293,3.841-4.713c1.653-1.606,2.909-3.212,3.771-4.818
				c0.908-1.466,1.327-2.386,1.257-2.758C48.172,14.618,47.578,14.21,46.484,13.699z"/>
			<g>
				<path style="fill-rule:evenodd;clip-rule:evenodd;fill:#F5E1A3;" d="M44.913,16.771c0.094-0.512-0.058-1.001-0.454-1.466
					c-0.465-0.512-1.187-0.896-2.164-1.152c-1.001-0.256-2.653-0.326-4.958-0.209c-2.258,0.116-3.491,0.303-3.701,0.559
					c-0.093,0.093-0.372,0.326-0.837,0.698c-0.373,0.28-0.617,0.524-0.734,0.733l-0.453,0.768c-0.861,1.35-2.386,3.596-4.573,6.738
					c-0.326,0.513-0.56,0.908-0.699,1.187c-0.233,0.489-0.233,0.815,0,0.979c0.442,0.349,1.896,1.035,4.364,2.06
					c2.723,1.164,4.411,1.664,5.063,1.501c0.65-0.14,1.314-0.604,1.989-1.396c0.187-0.232,0.675-0.919,1.466-2.06
					c0.28-0.396,1.305-1.92,3.073-4.574C43.971,18.598,44.844,17.144,44.913,16.771z M48.265,14.92
					c0.07,0.373-0.349,1.292-1.257,2.758c-0.861,1.606-2.117,3.212-3.771,4.818c-1.373,1.42-2.653,2.99-3.841,4.713
					c-1.07,1.467-1.967,2.514-2.688,3.143l-0.105,0.14l-0.139-0.07c-1.164-0.465-2.724-0.942-4.679-1.432l-2.095-0.523
					c-0.698-0.232-1.129-0.372-1.292-0.419c-0.535-0.349-1.338-0.732-2.409-1.152c-0.559-0.279-0.943-0.442-1.152-0.488l-0.14,0.035
					c-0.14,0.022-0.232,0.011-0.279-0.035l0.104-0.104c0.722-1.467,1.362-2.654,1.92-3.562c1.35-2.258,2.281-3.794,2.793-4.608
					c2.467-3.748,4.376-5.819,5.726-6.215c0.582-0.163,1.665-0.186,3.247-0.07c1.513,0.116,2.979,0.349,4.399,0.698
					c1.466,0.302,2.758,0.687,3.875,1.152C47.578,14.21,48.172,14.618,48.265,14.92z"/>
				<path style="fill-rule:evenodd;clip-rule:evenodd;fill:#F5E1A3;" d="M42.295,14.152c0.978,0.256,1.699,0.64,2.164,1.152
					c0.396,0.465,0.548,0.955,0.454,1.466c-0.069,0.373-0.942,1.827-2.618,4.364c-1.769,2.654-2.793,4.178-3.073,4.574
					c-0.791,1.141-1.279,1.827-1.466,2.06c-0.675,0.792-1.339,1.257-1.989,1.396c-0.652,0.163-2.34-0.337-5.063-1.501
					c-2.468-1.024-3.922-1.711-4.364-2.06c-0.233-0.163-0.233-0.489,0-0.979c0.139-0.278,0.373-0.674,0.699-1.187
					c2.188-3.142,3.712-5.388,4.573-6.738l0.453-0.768c0.117-0.209,0.361-0.454,0.734-0.733c0.465-0.372,0.744-0.605,0.837-0.698
					c0.21-0.256,1.443-0.442,3.701-0.559C39.642,13.827,41.294,13.896,42.295,14.152z"/>
			</g>
			<path style="fill-rule:evenodd;clip-rule:evenodd;fill:#DDAF64;" d="M34.684,22.043c0.349-0.186,0.675-0.314,0.978-0.384
				c0.35-0.139,0.733-0.232,1.152-0.279c0.954-0.163,1.571,0.012,1.851,0.524c0.14,0.186,0.209,0.349,0.209,0.489
				c-0.35-0.209-0.803-0.245-1.361-0.104c-0.559,0.093-1.187,0.361-1.886,0.803c-0.605,0.372-0.989,0.803-1.152,1.291
				c-0.278,0.652-0.303,1.176-0.069,1.571l0.069,0.104c-0.349-0.162-0.651-0.441-0.907-0.838c-0.372-0.651-0.372-1.35,0-2.095
				l0.419-0.593C34.032,22.462,34.265,22.299,34.684,22.043z"/>
			<path style="fill-rule:evenodd;clip-rule:evenodd;fill:#BD8437;" d="M34.474,24.382c0.163-0.488,0.547-0.919,1.152-1.291
				c0.699-0.442,1.327-0.71,1.886-0.803c0.559-0.14,1.012-0.105,1.361,0.104c0.047,0.419-0.128,0.943-0.523,1.571
				c-0.488,0.582-0.745,0.873-0.769,0.873l-0.838,0.629c-0.838,0.465-1.442,0.687-1.815,0.663l-0.454-0.07l-0.069-0.104
				C34.171,25.558,34.195,25.034,34.474,24.382z"/>
			<path style="fill-rule:evenodd;clip-rule:evenodd;fill:#BD8437;" d="M36.534,13.35l0.14,0.454
				c0.069,0.349-0.035,0.687-0.314,1.013c-0.256,0.302-0.559,0.512-0.907,0.628l-0.14,0.035c-0.21,0.069-0.419,0.023-0.629-0.14
				c-0.187-0.093-0.291-0.221-0.313-0.384c-0.07-0.256,0-0.523,0.209-0.803c0.232-0.349,0.582-0.593,1.047-0.733l0.314-0.105
				c0.116-0.023,0.244-0.011,0.385,0.035H36.534z"/>
			<path style="fill-rule:evenodd;clip-rule:evenodd;fill:#DDAF64;" d="M36.22,13.07c0.07,0.07,0.175,0.163,0.314,0.279h-0.209
				c-0.141-0.046-0.269-0.058-0.385-0.035l-0.314,0.105c-0.465,0.14-0.814,0.384-1.047,0.733c-0.209,0.28-0.279,0.547-0.209,0.803
				c0.022,0.163,0.127,0.291,0.313,0.384c0.21,0.163,0.419,0.209,0.629,0.14l-0.07,0.035c-0.232,0.047-0.466,0-0.698-0.14
				c-0.21-0.093-0.337-0.233-0.384-0.419c-0.14-0.536-0.128-1.001,0.035-1.396c-0.024-0.07,0.034-0.14,0.175-0.209
				c0.139-0.117,0.349-0.221,0.628-0.314h0.872C35.94,13.012,36.057,13.023,36.22,13.07z"/>
			<path style="fill-rule:evenodd;clip-rule:evenodd;fill:#DDAF64;" d="M30.878,25.569c0.349,0.093,0.582,0.256,0.698,0.488
				l-0.384,0.35c-0.279-0.093-0.663-0.128-1.152-0.104c-0.256,0.116-0.535,0.303-0.838,0.559c0-0.233,0.151-0.489,0.454-0.769
				C30.378,25.767,30.785,25.593,30.878,25.569z"/>
			<path style="fill-rule:evenodd;clip-rule:evenodd;fill:#BD8437;" d="M29.586,27.001c-0.186,0.046-0.326,0.058-0.418,0.034
				l0.035-0.174c0.303-0.256,0.582-0.442,0.838-0.559c0.489-0.023,0.873,0.012,1.152,0.104l-0.314,0.209L29.586,27.001z"/>
			<path style="fill-rule:evenodd;clip-rule:evenodd;fill:#DDAF64;" d="M32.729,17.854c0.326-0.093,0.71,0.023,1.152,0.349
				c0.326,0.232,0.453,0.512,0.384,0.837l-0.069-0.069c-0.187-0.117-0.687,0-1.502,0.349c-0.372,0.14-0.722,0.314-1.047,0.524
				c-0.35,0.256-0.535,0.396-0.559,0.418c-0.07,0.093-0.151,0.326-0.245,0.698c0.024,0.023,0.024,0.059,0,0.105
				c-0.163-0.187-0.221-0.466-0.174-0.838c0.07-0.349,0.326-0.826,0.768-1.432C31.995,18.284,32.426,17.97,32.729,17.854z"/>
			<path style="fill-rule:evenodd;clip-rule:evenodd;fill:#BD8437;" d="M34.229,19.285c-0.069,0.256-0.256,0.605-0.558,1.047
				c-0.35,0.466-0.839,0.827-1.467,1.083c-0.513,0.14-0.896,0.105-1.152-0.105c-0.116-0.069-0.186-0.151-0.21-0.244
				c0.024-0.046,0.024-0.082,0-0.105c0.094-0.372,0.175-0.605,0.245-0.698c0.023-0.023,0.209-0.163,0.559-0.418
				c0.325-0.21,0.675-0.384,1.047-0.524c0.815-0.349,1.315-0.466,1.502-0.349l0.069,0.069C34.265,19.18,34.253,19.262,34.229,19.285
				z"/>
			<path style="fill-rule:evenodd;clip-rule:evenodd;fill:#DDAF64;" d="M42.226,15.025c0,0.046-0.012,0.105-0.036,0.174L42.12,14.99
				c-0.163-0.14-0.454-0.244-0.873-0.314c-0.418,0-0.803,0.128-1.152,0.384c-0.022,0.046-0.115,0.187-0.278,0.419
				c-0.187,0.139-0.314,0.349-0.384,0.628c-0.35,0.698-0.443,1.129-0.28,1.292c0.047,0.046,0.175,0.14,0.384,0.279
				c0.257,0,0.443-0.023,0.559-0.07l-0.278,0.175c-0.094,0.07-0.314,0.14-0.664,0.209c-0.629,0.047-1.082-0.116-1.361-0.488
				c-0.14-0.14-0.21-0.338-0.21-0.594c-0.022-0.116-0.011-0.384,0.035-0.803c0.047-0.373,0.209-0.769,0.489-1.188l1.257-1.012
				c1.187-0.28,1.827-0.419,1.92-0.419c0.187,0.023,0.326,0.058,0.419,0.104c0.047,0.023,0.187,0.151,0.419,0.384
				C42.33,14.281,42.364,14.63,42.226,15.025z"/>
			<path style="fill-rule:evenodd;clip-rule:evenodd;fill:#BD8437;" d="M42.189,15.2l-0.209,0.489
				c-0.35,0.536-0.559,0.838-0.628,0.908c-0.233,0.303-0.42,0.512-0.56,0.629c-0.115,0.069-0.349,0.198-0.698,0.384
				c-0.115,0.047-0.302,0.07-0.559,0.07c-0.209-0.14-0.337-0.233-0.384-0.279c-0.163-0.163-0.069-0.593,0.28-1.292
				c0.069-0.279,0.197-0.489,0.384-0.628c0.163-0.233,0.256-0.373,0.278-0.419c0.35-0.256,0.734-0.384,1.152-0.384
				c0.419,0.07,0.71,0.174,0.873,0.314L42.189,15.2z"/>
			<path style="fill-rule:evenodd;clip-rule:evenodd;fill:#DDAF64;" d="M36.325,26.896l0.244-0.139l0.209-0.07
				c0.07,0.047,0.187,0.07,0.349,0.07c0.28,0.139,0.432,0.244,0.454,0.313c0.117,0.233,0.175,0.466,0.175,0.698
				c-0.093-0.187-0.384-0.256-0.873-0.209c-0.396,0.069-0.732,0.186-1.013,0.349c-0.465,0.232-0.744,0.431-0.838,0.594
				c-0.046-0.187,0.047-0.454,0.28-0.803C35.661,27.304,35.999,27.035,36.325,26.896z"/>
			<path style="fill-rule:evenodd;clip-rule:evenodd;fill:#BD8437;" d="M35.87,27.908c0.28-0.163,0.617-0.279,1.013-0.349
				c0.489-0.047,0.78,0.022,0.873,0.209c-0.046,0.117-0.104,0.257-0.175,0.42c-0.209,0.255-0.535,0.488-0.978,0.698
				c-0.209,0.093-0.488,0.162-0.837,0.209c-0.326-0.07-0.548-0.209-0.664-0.419l-0.07-0.175
				C35.126,28.339,35.405,28.141,35.87,27.908z"/>
			<path style="fill-rule:evenodd;clip-rule:evenodd;fill:#DDAF64;" d="M42.958,19.04c-0.209,0.303-0.419,0.524-0.628,0.664
				c-0.023-0.163-0.129-0.291-0.314-0.384c-0.187-0.07-0.454-0.058-0.803,0.035l-0.384,0.14l0.069-0.245
				c0.186-0.163,0.326-0.268,0.419-0.314h0.733C42.167,18.936,42.47,18.971,42.958,19.04z"/>
			<path style="fill-rule:evenodd;clip-rule:evenodd;fill:#BD8437;" d="M42.016,19.32c0.186,0.093,0.291,0.221,0.314,0.384
				c-0.279,0.279-0.501,0.442-0.664,0.489c-0.187,0.046-0.36,0.035-0.523-0.035c-0.187-0.14-0.291-0.268-0.313-0.384
				c-0.024-0.093-0.024-0.186,0-0.279l0.384-0.14C41.562,19.262,41.829,19.25,42.016,19.32z"/>
			<path style="fill-rule:evenodd;clip-rule:evenodd;fill:#DDAF64;" d="M28.12,24.452l-0.384,0.104
				c-0.094-0.023-0.21-0.012-0.349,0.035l-0.28,0.069c0.023,0.023,0.012,0.07-0.035,0.14c-0.07-0.069-0.128-0.186-0.175-0.349
				l0.14-0.07l0.593-0.174c0.14-0.047,0.256-0.059,0.35-0.035c0.046,0.023,0.093,0.093,0.14,0.209V24.452z"/>
			<path style="fill-rule:evenodd;clip-rule:evenodd;fill:#BD8437;" d="M27.387,24.592c0.139-0.047,0.255-0.059,0.349-0.035
				l0.384-0.104c-0.07,0.187-0.14,0.325-0.209,0.419c-0.14,0.186-0.268,0.279-0.385,0.279c-0.069,0.023-0.186-0.047-0.349-0.21
				l-0.104-0.14c0.046-0.069,0.058-0.116,0.035-0.14L27.387,24.592z"/>
			<path style="fill-rule:evenodd;clip-rule:evenodd;fill:#F0E0C3;" d="M36.465,30.422l0.139,0.07
				c0.047,0.093,0.105,0.116,0.175,0.069l0.14,0.21c0.14,0.325,0.233,0.651,0.279,0.978c-1.815-0.256-4.026-0.896-6.633-1.92
				l-5.97-2.444c-0.07-0.232-0.128-0.384-0.174-0.454c-0.117-0.209-0.21-0.36-0.28-0.453l0.209-0.07h0.07
				c0.046,0.046,0.139,0.058,0.279,0.035l0.14-0.035c0.209,0.046,0.593,0.209,1.152,0.488c1.071,0.42,1.874,0.804,2.409,1.152
				c0.163,0.047,0.594,0.187,1.292,0.419l2.095,0.523C33.741,29.479,35.301,29.957,36.465,30.422z"/>
			<path style="fill-rule:evenodd;clip-rule:evenodd;fill:#EDB348;" d="M50.674,19.145c0.07,0.396,0.151,0.652,0.244,0.768
				c0.024,0.093,0.129,0.373,0.314,0.838c0.023,0.07,0.07,0.256,0.14,0.559c0.023,0.326-0.069,0.559-0.279,0.698
				c-0.139,0.489-0.628,1.024-1.466,1.606c-1.56,1.024-3.096,2.06-4.608,3.107c-1.77,1.304-4.307,2.979-7.611,5.027h-0.21
				c-0.046-0.326-0.14-0.652-0.279-0.978l-0.14-0.21c0.396-0.093,1.292-0.977,2.688-2.653c1.839-2.164,3.898-4.748,6.18-7.75
				c2.211-2.956,3.328-4.667,3.352-5.132l0.21,0.14c0.116,0.14,0.232,0.384,0.35,0.733c0.162,0.373,0.302,0.664,0.418,0.873
				c0.14,0.419,0.303,0.85,0.489,1.292C50.581,18.412,50.651,18.772,50.674,19.145z"/>
		</g>
	</g>
</g>
<g>
	<g>
		<g>
			<path style="fill-rule:evenodd;clip-rule:evenodd;fill:#E7CD8B;" d="M59.259,20.97c0.16,0.267,0.453,0.934,0.88,2
				c0.187,0.746,0.721,2.133,1.6,4.159c0.827,1.867,1.147,3.147,0.961,3.841c-0.107,0-0.16,0.053-0.16,0.159
				c-0.641,0.721-3.04,2.241-7.2,4.561c-4.427,2.48-8.347,4.533-11.76,6.16c-2.64,1.279-4.133,1.813-4.479,1.6
				c0.053-0.107,0.079-0.213,0.079-0.32c1.36-0.453,2.96-1.253,4.8-2.399c2.241-1.359,4.721-2.56,7.44-3.601
				c2.906-1.146,5.28-2.427,7.12-3.84c2.053-1.36,3.173-2.347,3.359-2.96c0.214-0.479,0.027-1.6-0.56-3.359
				c-0.693-1.841-1.493-3.521-2.4-5.04c-1.199-2.026-2.266-3.573-3.199-4.64c-1.36-1.546-2.32-2.4-2.88-2.56
				c-1.413-0.64-4.8,0.746-10.16,4.16c-0.721,0.454-2.8,1.906-6.24,4.36c-1.439,1.093-2.96,2.293-4.56,3.6l-0.16,0.04l-0.16-0.04
				c-0.053,0-0.08-0.04-0.08-0.12v-0.28c0.08,0,0.16-0.093,0.24-0.279c0.268-0.08,1.387-0.827,3.36-2.24
				c4.266-3.067,6.453-4.626,6.56-4.68c6.347-4.24,10.427-6.013,12.24-5.32c0.026,0,0.373,0.307,1.039,0.92
				c1.014,1.227,1.813,2.307,2.4,3.24C58.485,19.689,59.125,20.649,59.259,20.97z"/>
			<path style="fill-rule:evenodd;clip-rule:evenodd;fill:#F5E1A3;" d="M58.938,21.93c0.907,1.52,1.707,3.199,2.4,5.04
				c0.587,1.76,0.773,2.88,0.56,3.359c-0.187,0.613-1.307,1.6-3.359,2.96c-1.84,1.413-4.214,2.694-7.12,3.84
				c-2.72,1.041-5.199,2.241-7.44,3.601c-1.84,1.146-3.439,1.946-4.8,2.399c-0.106,0-0.187,0.041-0.239,0.12
				c0-0.134-0.027-0.227-0.08-0.279c-0.96-2.454-1.894-4.48-2.8-6.08l-1.36-2.44c-0.427-0.8-0.693-1.373-0.8-1.72l-1.76-5.479
				l-0.16-0.121l-0.24-0.239l0.16-0.04c1.6-1.307,3.12-2.507,4.56-3.6c3.44-2.454,5.52-3.907,6.24-4.36
				c5.36-3.414,8.747-4.8,10.16-4.16c0.56,0.16,1.52,1.013,2.88,2.56C56.673,18.356,57.739,19.903,58.938,21.93z M48.938,18.89
				c-0.906,0.374-1.573,1.2-2,2.48c-0.293,0.747-0.399,1.44-0.319,2.08c0,0.134,0.054,0.334,0.159,0.601
				c0.294,0.64,0.881,1.106,1.761,1.399c0.32,0.16,0.72,0.24,1.2,0.24c0.239,0.053,0.693,0.04,1.359-0.04
				c0.88-0.32,1.521-0.72,1.921-1.2l0.479-0.8c0.24-1.04,0.026-2.013-0.64-2.92c-0.107-0.133-0.453-0.493-1.04-1.08
				c-0.213-0.24-0.533-0.467-0.96-0.68c-0.427-0.107-0.747-0.213-0.96-0.32L48.938,18.89z M41.02,22.89
				c-0.561,0.48-0.96,1.146-1.2,2c-0.08,0.187-0.08,0.573,0,1.16c0.026,0.16,0.187,0.387,0.479,0.68h0.08l0.16,0.12
				c0.587,0,1.04-0.093,1.36-0.279c0.453-0.107,0.8-0.508,1.04-1.2l0.239-0.8V23.93c-0.079-0.133-0.159-0.227-0.239-0.28
				c-0.374-0.479-0.613-0.746-0.72-0.8c-0.214-0.08-0.534-0.12-0.96-0.12C41.232,22.783,41.152,22.836,41.02,22.89z M46.299,28.449
				c-0.453,0.054-0.773,0.32-0.96,0.801c-0.133,0.106-0.239,0.279-0.319,0.52c-0.187,0.427-0.134,1.066,0.159,1.92
				c0.373,0.747,0.881,1.227,1.521,1.439c0.507,0.268,0.96,0.347,1.36,0.241c0.105-0.055,0.213-0.081,0.319-0.081
				c0.399-0.16,0.72-0.56,0.96-1.2c0.24-0.773,0.268-1.439,0.08-1.999c-0.347-0.587-0.773-1.066-1.28-1.44
				C47.313,28.41,46.699,28.343,46.299,28.449z M41.179,29.289l0.4,0.4l0.399,0.16c0.374,0.16,0.694,0.267,0.961,0.32
				c0.16,0,0.32-0.027,0.48-0.08c0.266,0,0.479-0.054,0.64-0.16c0.079-0.507,0-0.96-0.24-1.359c-0.854-0.107-1.36-0.134-1.521-0.081
				c-0.479,0-0.8,0.214-0.96,0.64L41.179,29.289z M41.339,33.449c-0.399,0-0.88,0.16-1.439,0.479
				c-0.427,0.188-0.721,0.428-0.88,0.721c-0.16,0.134-0.373,0.427-0.641,0.88c-0.267,0.986-0.213,1.786,0.16,2.399
				c0.107,0.32,0.268,0.534,0.48,0.641l0.24,0.28l0.879,0.439l0.881,0.24c0.587,0,1.014-0.026,1.279-0.08
				c0.32-0.106,0.534-0.16,0.641-0.16l0.16-0.16c0.507-0.213,0.879-0.613,1.12-1.2c0.159-0.399,0.239-0.692,0.239-0.879
				c0.054-0.134,0.027-0.374-0.08-0.721c-0.053-0.24-0.506-0.986-1.359-2.24L41.339,33.449z M35.499,26.17
				c-0.053,0.106-0.079,0.333-0.079,0.68l-0.081,0.12l0.16,0.72c0.026,0.026,0.187,0.014,0.479-0.04
				c0.214-0.079,0.428-0.213,0.641-0.399v-0.2c0.054-0.107,0.08-0.214,0.08-0.32c0-0.133-0.107-0.267-0.32-0.4
				c-0.053,0-0.133-0.053-0.24-0.159H35.499z M56.299,26.85c-0.453-0.16-0.986-0.2-1.6-0.12c-0.507,0.213-0.827,0.454-0.96,0.72
				l-0.08,0.24c-0.16,0.48-0.134,0.907,0.08,1.28c0.16,0.347,0.426,0.587,0.8,0.72c0.507,0.213,0.934,0.24,1.28,0.08
				c0.159,0,0.319-0.08,0.479-0.24c0.374-0.346,0.587-0.693,0.64-1.04c0.107-0.16,0.107-0.439,0-0.84
				c-0.079-0.32-0.16-0.521-0.239-0.6c0-0.054-0.054-0.08-0.16-0.08L56.299,26.85z M52.859,32.329c0.267-0.053,0.613-0.187,1.04-0.4
				l-0.641-1.039c-0.267-0.267-0.507-0.453-0.72-0.561c-0.187-0.106-0.347-0.066-0.479,0.12c-0.107,0.026-0.24,0.12-0.4,0.28
				c0,0.106-0.053,0.24-0.16,0.399c-0.08,0.268-0.08,0.534,0,0.8c0.053,0.16,0.187,0.348,0.4,0.561
				C52.165,32.489,52.485,32.437,52.859,32.329z"/>
			<path style="fill-rule:evenodd;clip-rule:evenodd;fill:#DDAF64;" d="M53.499,23.649l-0.479,0.8c0-0.56-0.241-1.187-0.721-1.88
				c-0.32-0.426-0.986-0.866-2-1.32c-0.64-0.267-1.333-0.2-2.079,0.2c-0.773,0.426-1.281,1.026-1.521,1.8
				c-0.054,0.026-0.08,0.093-0.08,0.199c-0.08-0.64,0.026-1.333,0.319-2.08c0.427-1.28,1.094-2.106,2-2.48l0.961-0.24
				c0.213,0.106,0.533,0.213,0.96,0.32c0.427,0.213,0.747,0.44,0.96,0.68c0.587,0.586,0.933,0.946,1.04,1.08
				C53.525,21.636,53.739,22.61,53.499,23.649z"/>
			<path style="fill-rule:evenodd;clip-rule:evenodd;fill:#BD8437;" d="M52.299,22.569c0.479,0.693,0.721,1.32,0.721,1.88
				c-0.4,0.48-1.041,0.88-1.921,1.2c-0.666,0.08-1.12,0.093-1.359,0.04c-0.48,0-0.88-0.08-1.2-0.24
				c-0.88-0.293-1.467-0.76-1.761-1.399c-0.105-0.267-0.159-0.467-0.159-0.601c0-0.106,0.026-0.173,0.08-0.199
				c0.239-0.774,0.747-1.374,1.521-1.8c0.746-0.4,1.439-0.467,2.079-0.2C51.313,21.703,51.979,22.143,52.299,22.569z"/>
			<path style="fill-rule:evenodd;clip-rule:evenodd;fill:#BD8437;" d="M42.299,24.05l0.4,0.04c0.107,0.053,0.24,0.173,0.4,0.359
				l0.079,0.121l-0.239,0.8c-0.24,0.692-0.587,1.093-1.04,1.2c-0.32,0.187-0.773,0.279-1.36,0.279l-0.16-0.12
				c-0.24-0.159-0.4-0.387-0.479-0.68c0-0.4,0.026-0.667,0.079-0.8c0.188-0.561,0.48-0.947,0.881-1.16
				C41.473,23.823,41.952,23.81,42.299,24.05z"/>
			<path style="fill-rule:evenodd;clip-rule:evenodd;fill:#DDAF64;" d="M43.179,23.93v0.641L43.1,24.449
				c-0.16-0.187-0.293-0.307-0.4-0.359l-0.4-0.04c-0.347-0.24-0.826-0.227-1.439,0.04c-0.4,0.213-0.693,0.6-0.881,1.16
				c-0.053,0.133-0.079,0.399-0.079,0.8c0.079,0.293,0.239,0.521,0.479,0.68h-0.08c-0.293-0.293-0.453-0.52-0.479-0.68
				c-0.08-0.587-0.08-0.974,0-1.16c0.24-0.854,0.64-1.52,1.2-2c0.133-0.053,0.213-0.107,0.24-0.16c0.426,0,0.746,0.04,0.96,0.12
				c0.106,0.054,0.346,0.32,0.72,0.8C43.02,23.703,43.1,23.797,43.179,23.93z"/>
			<path style="fill-rule:evenodd;clip-rule:evenodd;fill:#DDAF64;" d="M43.819,28.57c0.24,0.399,0.319,0.853,0.24,1.359
				c-0.16,0.106-0.374,0.16-0.64,0.16l-0.881-1.12c-0.319-0.106-0.72-0.054-1.2,0.159c0.16-0.426,0.48-0.64,0.96-0.64
				C42.459,28.437,42.966,28.463,43.819,28.57z"/>
			<path style="fill-rule:evenodd;clip-rule:evenodd;fill:#BD8437;" d="M41.179,29.289l0.16-0.16c0.48-0.213,0.881-0.266,1.2-0.159
				l0.881,1.12c-0.16,0.053-0.32,0.08-0.48,0.08c-0.267-0.054-0.587-0.16-0.961-0.32l-0.399-0.16L41.179,29.289z"/>
			<path style="fill-rule:evenodd;clip-rule:evenodd;fill:#DDAF64;" d="M48.139,28.649c0.507,0.374,0.934,0.854,1.28,1.44
				c0.188,0.56,0.16,1.226-0.08,1.999c-0.24,0.641-0.561,1.04-0.96,1.2c0-0.106,0.027-0.187,0.08-0.239
				c0.106-0.214-0.134-0.934-0.72-2.16l-0.801-1.12c-0.105-0.187-0.319-0.399-0.64-0.641c-0.16-0.079-0.453-0.079-0.88,0
				l-0.08,0.121c0.187-0.48,0.507-0.747,0.96-0.801C46.699,28.343,47.313,28.41,48.139,28.649z"/>
			<path style="fill-rule:evenodd;clip-rule:evenodd;fill:#BD8437;" d="M45.419,29.129c0.427-0.079,0.72-0.079,0.88,0
				c0.32,0.241,0.534,0.454,0.64,0.641l0.801,1.12c0.586,1.227,0.826,1.946,0.72,2.16c-0.053,0.053-0.08,0.133-0.08,0.239
				c-0.106,0-0.214,0.026-0.319,0.081c-0.4,0.105-0.854,0.026-1.36-0.241c-0.64-0.213-1.147-0.692-1.521-1.439
				c-0.293-0.854-0.346-1.493-0.159-1.92c0.08-0.24,0.187-0.413,0.319-0.52L45.419,29.129z"/>
			<path style="fill-rule:evenodd;clip-rule:evenodd;fill:#DDAF64;" d="M43.02,34.089c0.854,1.254,1.307,2,1.359,2.24
				c0.107,0.347,0.134,0.587,0.08,0.721c0,0.187-0.08,0.479-0.239,0.879c-0.241,0.587-0.613,0.987-1.12,1.2l-0.16,0.16l0.16-0.399
				c0.133-0.293,0.133-0.747,0-1.36c-0.24-0.64-0.561-1.066-0.961-1.28c-0.053-0.053-0.239-0.079-0.56-0.079
				c-0.373,0.106-0.667,0.159-0.88,0.159c-0.88,0.16-1.413,0.467-1.6,0.92c-0.054,0.188-0.08,0.467-0.08,0.84v0.081
				c0.053,0.106,0.133,0.333,0.24,0.68l-0.24-0.28c-0.213-0.106-0.373-0.32-0.48-0.641c-0.373-0.613-0.427-1.413-0.16-2.399
				c0.268-0.453,0.48-0.746,0.641-0.88c0.159-0.293,0.453-0.533,0.88-0.721c0.56-0.319,1.04-0.479,1.439-0.479L43.02,34.089z"/>
			<path style="fill-rule:evenodd;clip-rule:evenodd;fill:#BD8437;" d="M40.699,36.329c0.213,0,0.507-0.053,0.88-0.159
				c0.32,0,0.507,0.026,0.56,0.079c0.4,0.214,0.721,0.641,0.961,1.28c0.133,0.613,0.133,1.067,0,1.36l-0.16,0.399
				c-0.106,0-0.32,0.054-0.641,0.16c-0.266,0.054-0.692,0.08-1.279,0.08l-0.881-0.24L39.26,38.85
				c-0.107-0.347-0.188-0.573-0.24-0.68v-0.081c0-0.373,0.026-0.652,0.08-0.84C39.286,36.796,39.819,36.489,40.699,36.329z"/>
			<path style="fill-rule:evenodd;clip-rule:evenodd;fill:#DDAF64;" d="M55.02,27.649c-0.507-0.293-0.934-0.36-1.28-0.2
				c0.133-0.266,0.453-0.507,0.96-0.72c0.613-0.08,1.146-0.04,1.6,0.12l0.24,0.12c0.106,0,0.16,0.026,0.16,0.08
				c0.079,0.079,0.16,0.279,0.239,0.6c0.107,0.4,0.107,0.68,0,0.84c-0.053,0.347-0.266,0.694-0.64,1.04
				c0.16-0.373,0.026-0.772-0.399-1.2C55.659,27.93,55.365,27.703,55.02,27.649z"/>
			<path style="fill-rule:evenodd;clip-rule:evenodd;fill:#BD8437;" d="M55.02,27.649c0.346,0.054,0.64,0.28,0.88,0.68
				c0.426,0.428,0.56,0.827,0.399,1.2c-0.16,0.16-0.32,0.24-0.479,0.24c-0.347,0.16-0.773,0.133-1.28-0.08
				c-0.374-0.133-0.64-0.373-0.8-0.72c-0.214-0.373-0.24-0.8-0.08-1.28l0.08-0.24C54.086,27.289,54.513,27.356,55.02,27.649z"/>
			<path style="fill-rule:evenodd;clip-rule:evenodd;fill:#DDAF64;" d="M53.899,31.929c-0.427,0.214-0.773,0.348-1.04,0.4
				c0.079-0.373,0.079-0.666,0-0.88c-0.16-0.293-0.4-0.493-0.721-0.6c-0.106-0.08-0.267-0.12-0.479-0.12
				c0.16-0.16,0.293-0.254,0.4-0.28c0.133-0.187,0.293-0.227,0.479-0.12c0.213,0.107,0.453,0.294,0.72,0.561L53.899,31.929z"/>
			<path style="fill-rule:evenodd;clip-rule:evenodd;fill:#BD8437;" d="M52.859,31.449c0.079,0.214,0.079,0.507,0,0.88
				c-0.374,0.107-0.694,0.16-0.96,0.16c-0.214-0.213-0.348-0.4-0.4-0.561c-0.08-0.266-0.08-0.532,0-0.8
				c0.107-0.159,0.16-0.293,0.16-0.399c0.213,0,0.373,0.04,0.479,0.12C52.459,30.956,52.699,31.156,52.859,31.449z"/>
			<path style="fill-rule:evenodd;clip-rule:evenodd;fill:#DDAF64;" d="M36.139,26.17c0.107,0.106,0.188,0.159,0.24,0.159
				c0.213,0.134,0.32,0.268,0.32,0.4c0,0.106-0.026,0.213-0.08,0.32v0.2l-0.399-0.36l-0.32-0.04c-0.16-0.134-0.293-0.174-0.4-0.12
				l-0.079,0.12c0-0.347,0.026-0.573,0.079-0.68H36.139z"/>
			<path style="fill-rule:evenodd;clip-rule:evenodd;fill:#BD8437;" d="M35.499,26.729c0.107-0.054,0.24-0.014,0.4,0.12l0.32,0.04
				l0.399,0.36c-0.213,0.187-0.427,0.32-0.641,0.399c-0.293,0.054-0.453,0.066-0.479,0.04l-0.16-0.72L35.499,26.729z"/>
			<path style="fill-rule:evenodd;clip-rule:evenodd;fill:#F0E0C3;" d="M38.859,42.97c0.053,0.053,0.08,0.146,0.08,0.279
				s0.053,0.2,0.16,0.2l-0.08,0.4c-0.32,0.96-0.507,1.492-0.561,1.6c-1.387-1.92-2.773-4.72-4.16-8.399
				c-0.239-0.534-0.826-2.16-1.76-4.88c-0.64-1.867-1.093-3.094-1.36-3.681c0-0.293,0.055-0.56,0.16-0.8
				c0-0.319,0.054-0.64,0.16-0.96c0,0.08,0.027,0.12,0.08,0.12l0.16,0.04l0.24,0.239l0.16,0.121l1.76,5.479
				c0.106,0.347,0.373,0.92,0.8,1.72l1.36,2.44C36.966,38.489,37.899,40.516,38.859,42.97z"/>
			<path style="fill-rule:evenodd;clip-rule:evenodd;fill:#EDB348;" d="M39.1,43.449c0.347,0.213,1.84-0.32,4.479-1.6
				c3.413-1.627,7.333-3.68,11.76-6.16c4.16-2.319,6.56-3.84,7.2-4.561v0.32c0,0.827-0.08,1.921-0.24,3.28
				c-0.187,1.6-0.373,2.8-0.561,3.6c0,0.32-0.053,0.693-0.16,1.12c-0.239,0.934-0.372,1.44-0.399,1.521
				c-0.106,0.213-0.214,0.373-0.319,0.479c-1.04,1.28-4.827,2.373-11.36,3.279c-2.4,0.374-6,0.721-10.8,1.041l-0.24-0.32
				c0.054-0.107,0.24-0.64,0.561-1.6L39.1,43.449z"/>
		</g>
	</g>
</g>
<g>
	<g>
		<g>
			<path style="fill-rule:evenodd;clip-rule:evenodd;fill:#E7CD8B;" d="M33.26,33.37h-0.32l-0.16-0.081
				c-1.387-1.813-2.454-3.119-3.2-3.919c-2.026-2.294-3.52-3.934-4.479-4.921c-3.92-4-6.667-6-8.24-6c-0.72,0-1.92,0.333-3.6,1
				c-1.733,0.773-3.28,1.6-4.64,2.48c-1.573,0.933-2.88,1.906-3.92,2.92c-1.067,1.014-1.6,1.747-1.6,2.2
				c0,0.507,0.747,1.547,2.24,3.12c1.414,1.732,3.28,3.359,5.6,4.88c2,1.359,3.894,2.934,5.68,4.72
				c1.547,1.467,2.854,2.507,3.92,3.12v0.359c-0.4,0-1.653-0.84-3.76-2.52c-3.28-2.667-6.347-5.28-9.2-7.84
				c-3.307-2.987-5.066-4.8-5.28-5.44l-0.08-0.16c0-0.532,0.693-1.347,2.08-2.439c1.227-0.986,2.213-1.826,2.96-2.52
				c0.533-0.613,0.986-1.013,1.36-1.2l2.8-1.48c1.813-0.96,2.96-1.494,3.44-1.6c0.479-0.24,0.853-0.374,1.12-0.4
				c2.053,0,5.387,2.439,10,7.32c0.187,0.214,1.76,2,4.72,5.359c1.36,1.521,2.187,2.373,2.479,2.561l0.081,0.239V33.37z"/>
			<path style="fill-rule:evenodd;clip-rule:evenodd;fill:#F5E1A3;" d="M22.939,36.089c-0.373-0.373-0.8-0.64-1.28-0.8h-1.84
				c-1.253,0.721-1.92,1.12-2,1.2c-0.16,0.16-0.266,0.32-0.32,0.48c-0.054,0.106-0.08,0.346-0.08,0.72c0,0.507,0.213,0.907,0.64,1.2
				l0.16,0.16l0.561,0.32c0.533,0.213,0.933,0.346,1.2,0.399c0.533,0.106,0.853,0.159,0.96,0.159c0.267,0,0.56-0.053,0.88-0.159
				l0.4-0.08c0.054,0,0.293-0.106,0.72-0.319c0.586-0.48,0.88-1.041,0.88-1.681c0-0.293-0.08-0.561-0.24-0.8
				C23.473,36.676,23.26,36.409,22.939,36.089z M21.18,32.489h1.52l0.48-0.04L23.1,32.17c-0.08-0.268-0.32-0.534-0.72-0.8
				c-0.8-0.16-1.307-0.241-1.52-0.241c-0.347,0.16-0.561,0.468-0.641,0.921L21.18,32.489z M28.22,32.089v0.081
				c0.106,0.213,0.24,0.372,0.4,0.479c0.133,0.16,0.293,0.24,0.48,0.24c0.133,0,0.24-0.133,0.32-0.4l0.08-0.24
				c0.053-0.106,0.08-0.266,0.08-0.479l-0.16-0.08h-0.72l-0.4,0.08C28.246,31.823,28.22,31.929,28.22,32.089z M25.42,27.85
				c0-0.08-0.081-0.146-0.241-0.2c-0.267-0.134-0.533-0.2-0.8-0.2c-0.32,0.134-0.64,0.24-0.96,0.32c-0.053,0-0.187,0.054-0.4,0.16
				c-0.133,0.293-0.213,0.467-0.24,0.52v0.601c0,0.453,0.213,0.853,0.64,1.2c0.426,0.319,0.827,0.479,1.2,0.479h0.24
				c0.293,0,0.533-0.133,0.72-0.4c0.213-0.213,0.32-0.439,0.32-0.68C25.899,28.93,25.739,28.329,25.42,27.85z M14.54,32.05
				c0,0.533,0.16,0.893,0.48,1.079c0.08,0.107,0.16,0.16,0.24,0.16c0.32,0.16,0.773,0.24,1.36,0.24c0.64,0,1.307-0.214,2-0.64
				c0.48-0.48,0.72-0.934,0.72-1.36c0-0.159-0.026-0.293-0.08-0.4c-0.054-0.319-0.267-0.613-0.64-0.879
				c-0.427-0.214-1.04-0.32-1.84-0.32c-0.827,0.16-1.414,0.347-1.76,0.56C14.7,30.862,14.54,31.383,14.54,32.05z M11.1,31.129
				c0.454,0.268,0.747,0.4,0.88,0.4c0.213,0,0.4-0.08,0.56-0.24c0.16-0.319,0.24-0.532,0.24-0.64s-0.027-0.213-0.08-0.32
				c-0.08-0.187-0.133-0.279-0.16-0.279c-0.24-0.187-0.427-0.28-0.56-0.28c-0.16,0-0.426,0.094-0.8,0.28
				c-0.374,0.106-0.693,0.253-0.96,0.439C10.486,30.757,10.78,30.97,11.1,31.129z M9.66,26.17H9.1
				c-0.08,0.133-0.187,0.24-0.32,0.319c-0.213,0.32-0.32,0.534-0.32,0.64c0,0.32,0.053,0.641,0.16,0.961l0.4,0.399
				c0.32,0.16,0.773,0.24,1.36,0.24c0.32,0,0.64-0.08,0.959-0.24c0.32-0.239,0.48-0.52,0.48-0.84V27.37
				c-0.08-0.268-0.32-0.534-0.72-0.8C10.566,26.303,10.086,26.17,9.66,26.17z M19.18,22.569l-0.8-0.4
				c-0.106-0.053-0.426-0.08-0.96-0.08c-0.4,0-0.8,0.08-1.2,0.24c-0.56,0.133-0.987,0.307-1.28,0.52c-1.013,0.4-1.52,1-1.52,1.8
				c0,0.4,0.027,0.64,0.08,0.721c0.187,0.56,0.667,1.053,1.44,1.479c0.054,0.026,0.253,0.107,0.6,0.24
				c0.267,0.106,0.493,0.173,0.68,0.199c0.533,0.107,0.933,0.16,1.2,0.16c1.04,0,1.76-0.16,2.16-0.479l0.4-0.399
				c0.267-0.454,0.4-0.987,0.4-1.601C20.379,24.063,19.979,23.263,19.18,22.569z M32.779,33.289l0.16,0.081
				c-0.054,0.105-0.16,0.159-0.32,0.159h-0.16c-0.213,0.16-0.586,0.507-1.12,1.04c-1.04,0.96-1.813,1.76-2.319,2.4
				c-0.427,0.373-0.854,0.693-1.28,0.959l-2.16,1.441c-2.133,1.439-3.706,2.613-4.719,3.52l-0.16,0.159l-0.16-0.159
				c-1.066-0.613-2.373-1.653-3.92-3.12c-1.787-1.786-3.68-3.36-5.68-4.72c-2.32-1.521-4.186-3.147-5.6-4.88
				c-1.493-1.573-2.24-2.613-2.24-3.12c0-0.453,0.533-1.187,1.6-2.2c1.04-1.014,2.347-1.987,3.92-2.92
				c1.36-0.88,2.907-1.707,4.64-2.48c1.68-0.667,2.88-1,3.6-1c1.573,0,4.32,2,8.24,6c0.96,0.987,2.453,2.627,4.479,4.921
				C30.326,30.17,31.393,31.476,32.779,33.289z"/>
			<path style="fill-rule:evenodd;clip-rule:evenodd;fill:#DDAF64;" d="M17.419,22.089c0.534,0,0.854,0.027,0.96,0.08l0.8,0.4
				c0.8,0.693,1.2,1.493,1.2,2.4c0,0.613-0.133,1.146-0.4,1.601v-0.121c0-0.586-0.32-1.187-0.96-1.8
				c-0.48-0.479-1.12-0.72-1.92-0.72c-0.933,0-1.707,0.133-2.32,0.399c-0.613,0.241-1.041,0.587-1.28,1.041
				c-0.053-0.081-0.08-0.32-0.08-0.721c0-0.8,0.507-1.399,1.52-1.8c0.293-0.213,0.72-0.387,1.28-0.52
				C16.62,22.169,17.02,22.089,17.419,22.089z"/>
			<path style="fill-rule:evenodd;clip-rule:evenodd;fill:#BD8437;" d="M14.939,26.85c-0.773-0.427-1.253-0.92-1.44-1.479
				c0.24-0.454,0.667-0.8,1.28-1.041c0.613-0.267,1.387-0.399,2.32-0.399c0.8,0,1.44,0.24,1.92,0.72c0.64,0.613,0.96,1.214,0.96,1.8
				v0.121l-0.4,0.399c-0.4,0.319-1.12,0.479-2.16,0.479c-0.267,0-0.667-0.053-1.2-0.16c-0.187-0.026-0.414-0.093-0.68-0.199
				C15.193,26.957,14.993,26.876,14.939,26.85z"/>
			<path style="fill-rule:evenodd;clip-rule:evenodd;fill:#BD8437;" d="M25.179,28.729c0.32,0.32,0.48,0.641,0.48,0.96
				c0,0.268-0.081,0.48-0.24,0.64c-0.187,0.268-0.4,0.4-0.641,0.4h-0.16c-0.373,0-0.773-0.16-1.2-0.479
				c-0.427-0.348-0.64-0.747-0.64-1.2v-0.601c0.053-0.079,0.133-0.12,0.24-0.12c0.106-0.106,0.24-0.159,0.4-0.159h0.4
				C24.353,28.17,24.806,28.356,25.179,28.729z"/>
			<path style="fill-rule:evenodd;clip-rule:evenodd;fill:#DDAF64;" d="M25.179,27.649c0.16,0.054,0.241,0.12,0.241,0.2
				c0.319,0.479,0.479,1.08,0.479,1.8c0,0.24-0.107,0.467-0.32,0.68c-0.187,0.268-0.427,0.4-0.72,0.4h-0.06
				c0.232-0.008,0.438-0.141,0.621-0.4c0.159-0.159,0.24-0.372,0.24-0.64c0-0.319-0.16-0.64-0.48-0.96
				c-0.373-0.373-0.826-0.56-1.36-0.56h-0.4c-0.16,0-0.293,0.053-0.4,0.159c-0.107,0-0.187,0.041-0.24,0.12
				c0.027-0.053,0.107-0.227,0.24-0.52c0.213-0.106,0.347-0.16,0.4-0.16c0.32-0.08,0.64-0.187,0.96-0.32
				C24.646,27.449,24.913,27.516,25.179,27.649z"/>
			<path style="fill-rule:evenodd;clip-rule:evenodd;fill:#DDAF64;" d="M20.86,31.129c0.213,0,0.72,0.081,1.52,0.241
				c0.4,0.266,0.64,0.532,0.72,0.8c-0.533-0.268-0.907-0.4-1.12-0.4c-0.586,0.159-0.987,0.347-1.2,0.56l-0.561-0.279
				C20.299,31.597,20.513,31.289,20.86,31.129z"/>
			<path style="fill-rule:evenodd;clip-rule:evenodd;fill:#BD8437;" d="M23.18,32.449l-2,0.04l-0.4-0.16
				c0.213-0.213,0.613-0.4,1.2-0.56c0.213,0,0.587,0.133,1.12,0.4L23.18,32.449z"/>
			<path style="fill-rule:evenodd;clip-rule:evenodd;fill:#DDAF64;" d="M14.54,32.05c0-0.667,0.16-1.188,0.48-1.561
				c0.347-0.213,0.934-0.399,1.76-0.56c0.8,0,1.413,0.106,1.84,0.32c0.373,0.266,0.586,0.56,0.64,0.879l-0.08-0.079
				c-0.427-0.214-0.693-0.32-0.8-0.32c-0.32,0.106-0.586,0.187-0.8,0.24c-0.4,0.159-0.8,0.4-1.2,0.72
				c-0.906,0.587-1.36,1.013-1.36,1.28v0.159C14.7,32.942,14.54,32.583,14.54,32.05z"/>
			<path style="fill-rule:evenodd;clip-rule:evenodd;fill:#BD8437;" d="M15.02,32.97c0-0.268,0.454-0.693,1.36-1.28
				c0.4-0.319,0.8-0.561,1.2-0.72c0.213-0.054,0.48-0.134,0.8-0.24c0.107,0,0.374,0.106,0.8,0.32l0.08,0.079
				c0.053,0.107,0.08,0.241,0.08,0.4c0,0.427-0.24,0.88-0.72,1.36c-0.693,0.426-1.36,0.64-2,0.64c-0.587,0-1.04-0.08-1.36-0.24
				c-0.08,0-0.16-0.053-0.24-0.16V32.97z"/>
			<path style="fill-rule:evenodd;clip-rule:evenodd;fill:#DDAF64;" d="M21.66,35.289c0.479,0.16,0.907,0.427,1.28,0.8
				c0.32,0.32,0.533,0.587,0.64,0.801c0.16,0.239,0.24,0.507,0.24,0.8c0,0.64-0.293,1.2-0.88,1.681
				c-0.427,0.213-0.667,0.319-0.72,0.319l-0.4,0.08c0.16-0.054,0.347-0.187,0.56-0.399c0.107-0.32,0.16-0.534,0.16-0.641
				c0-0.32-0.4-0.68-1.2-1.08c-0.293-0.24-0.56-0.36-0.8-0.36c-0.213-0.106-0.4-0.16-0.56-0.16c-0.48,0-0.907,0.187-1.28,0.561
				c-0.32,0.399-0.507,0.747-0.561,1.04c0,0.08,0.027,0.187,0.08,0.32l-0.16-0.16c-0.427-0.293-0.64-0.693-0.64-1.2
				c0-0.374,0.026-0.613,0.08-0.72c0.054-0.16,0.16-0.32,0.32-0.48c0.08-0.08,0.747-0.479,2-1.2H21.66z"/>
			<path style="fill-rule:evenodd;clip-rule:evenodd;fill:#BD8437;" d="M21.339,37.649c0.8,0.4,1.2,0.76,1.2,1.08
				c0,0.106-0.053,0.32-0.16,0.641c-0.213,0.213-0.4,0.346-0.56,0.399c-0.32,0.106-0.613,0.159-0.88,0.159
				c-0.107,0-0.427-0.053-0.96-0.159c-0.267-0.054-0.667-0.187-1.2-0.399l-0.561-0.32c-0.053-0.134-0.08-0.24-0.08-0.32
				c0.054-0.293,0.24-0.641,0.561-1.04c0.373-0.374,0.8-0.561,1.28-0.561c0.16,0,0.347,0.054,0.56,0.16
				C20.78,37.289,21.046,37.409,21.339,37.649z"/>
			<path style="fill-rule:evenodd;clip-rule:evenodd;fill:#DDAF64;" d="M9.1,26.17h0.56c0.427,0,0.907,0.133,1.44,0.4
				c0.4,0.266,0.64,0.532,0.72,0.8c-0.32-0.16-0.72-0.241-1.2-0.241c-0.533,0.081-0.933,0.134-1.2,0.16
				c-0.533,0.268-0.8,0.534-0.8,0.801c-0.106-0.32-0.16-0.641-0.16-0.961c0-0.105,0.106-0.319,0.32-0.64
				C8.913,26.41,9.02,26.303,9.1,26.17z"/>
			<path style="fill-rule:evenodd;clip-rule:evenodd;fill:#BD8437;" d="M10.62,27.129c0.48,0,0.88,0.081,1.2,0.241v0.279
				c0,0.32-0.16,0.601-0.48,0.84c-0.32,0.16-0.64,0.24-0.959,0.24c-0.587,0-1.041-0.08-1.36-0.24l-0.4-0.399
				c0-0.267,0.267-0.533,0.8-0.801C9.687,27.263,10.086,27.21,10.62,27.129z"/>
			<path style="fill-rule:evenodd;clip-rule:evenodd;fill:#DDAF64;" d="M10.22,30.489c0.267-0.187,0.586-0.333,0.96-0.439
				c0.374-0.187,0.64-0.28,0.8-0.28c0.133,0,0.32,0.094,0.56,0.28c0.027,0,0.08,0.093,0.16,0.279l-0.48-0.079
				c-0.427,0-0.72,0.079-0.88,0.239c-0.16,0.16-0.24,0.373-0.24,0.64C10.78,30.97,10.486,30.757,10.22,30.489z"/>
			<path style="fill-rule:evenodd;clip-rule:evenodd;fill:#BD8437;" d="M11.339,30.489c0.16-0.16,0.454-0.239,0.88-0.239l0.48,0.079
				c0.053,0.107,0.08,0.213,0.08,0.32s-0.08,0.32-0.24,0.64c-0.16,0.16-0.347,0.24-0.56,0.24c-0.133,0-0.426-0.133-0.88-0.4
				C11.1,30.862,11.18,30.649,11.339,30.489z"/>
			<path style="fill-rule:evenodd;clip-rule:evenodd;fill:#DDAF64;" d="M28.22,32.089c0-0.16,0.026-0.266,0.08-0.319l0.4-0.08h0.72
				l0.16,0.08c0,0.214-0.027,0.373-0.08,0.479l-0.08-0.16H29.1l-0.4,0.081H28.22V32.089z"/>
			<path style="fill-rule:evenodd;clip-rule:evenodd;fill:#BD8437;" d="M29.1,32.089h0.32l0.08,0.16l-0.08,0.24
				c-0.08,0.268-0.187,0.4-0.32,0.4c-0.187,0-0.347-0.08-0.48-0.24c-0.16-0.107-0.293-0.267-0.4-0.479h0.479L29.1,32.089z"/>
			<path style="fill-rule:evenodd;clip-rule:evenodd;fill:#F0E0C3;" d="M32.939,33.37h0.32l-0.16,0.719
				c-0.054,0.16-0.08,0.374-0.08,0.641c-1.067,0.906-1.946,1.653-2.641,2.24l-3.2,3.08c-2.667,2.293-4.906,3.906-6.72,4.839
				c-0.08-0.373-0.08-0.826,0-1.359l0.08-0.28c0.106,0,0.16-0.066,0.16-0.2l0.16-0.159c1.013-0.906,2.586-2.08,4.719-3.52
				l2.16-1.441c0.427-0.266,0.853-0.586,1.28-0.959c0.506-0.641,1.28-1.44,2.319-2.4c0.534-0.533,0.907-0.88,1.12-1.04h0.16
				C32.779,33.529,32.886,33.476,32.939,33.37z"/>
			<path style="fill-rule:evenodd;clip-rule:evenodd;fill:#EDB348;" d="M10.22,41.05c-5.84-2.453-9.12-4.348-9.84-5.68
				c-0.054-0.16-0.08-0.32-0.08-0.48l0.08-1.2c0.106-0.319,0.16-0.587,0.16-0.8l0.8-2.8c0.133-0.533,0.4-1.333,0.8-2.4
				c0.054-0.106,0.106-0.187,0.16-0.24c0.213,0.641,1.973,2.453,5.28,5.44c2.853,2.56,5.92,5.173,9.2,7.84
				c2.106,1.68,3.359,2.52,3.76,2.52l-0.08,0.28c-0.08,0.533-0.08,0.986,0,1.359c-0.16,0-0.24,0.027-0.24,0.081
				C16.406,43.636,13.073,42.329,10.22,41.05z"/>
		</g>
	</g>
</g>
<g>
	<g>
		<path style="fill-rule:evenodd;clip-rule:evenodd;fill:#E7CD8B;" d="M43.25,33.95l-0.2-0.101H43l-0.1-0.1
			c-0.733-1.467-1.384-2.65-1.95-3.55c-1.334-2.267-2.267-3.8-2.8-4.601c-2.467-3.766-4.367-5.85-5.7-6.25
			c-0.601-0.167-1.684-0.184-3.25-0.05c-1.534,0.1-3,0.333-4.4,0.7c-1.466,0.3-2.767,0.683-3.9,1.15c-1.1,0.5-1.683,0.9-1.75,1.2
			c-0.066,0.4,0.35,1.333,1.25,2.8c0.867,1.6,2.117,3.199,3.75,4.8c1.367,1.434,2.65,3,3.85,4.7c1.067,1.466,1.967,2.517,2.7,3.149
			L30.6,38c-0.367-0.1-1.25-0.983-2.65-2.65c-1.833-2.166-3.9-4.75-6.2-7.75c-2.2-2.966-3.317-4.667-3.35-5.1
			c-0.033-0.067-0.05-0.117-0.05-0.15c0.1-0.367,0.85-0.8,2.25-1.3c0.367-0.133,1.35-0.5,2.95-1.1c0.567-0.333,1.034-0.517,1.4-0.55
			L27.6,19c1.533-0.267,2.617-0.383,3.25-0.35l1-0.05c1.767,0.5,4.084,3.033,6.95,7.6c0.634,1,1.601,2.649,2.9,4.95
			c0.833,1.399,1.366,2.199,1.6,2.399l0.05,0.2L43.25,33.95z"/>
		<path style="fill-rule:evenodd;clip-rule:evenodd;fill:#F0E0C3;" d="M43.25,33.95c-0.066,0.066-0.15,0.217-0.25,0.45
			c-0.066,0.066-0.134,0.216-0.2,0.449l-1.1,0.45l-4.851,2c-2.6,1-4.816,1.634-6.649,1.9c0.033-0.334,0.133-0.667,0.3-1l0.1-0.2
			c0.1,0.066,0.167,0.05,0.2-0.05l0.15-0.101c1.166-0.466,2.717-0.933,4.649-1.399L37.7,35.9c0.7-0.233,1.133-0.367,1.3-0.4
			c0.533-0.366,1.333-0.75,2.4-1.15c0.566-0.267,0.949-0.433,1.149-0.5L42.7,33.9c0.133,0.033,0.233,0.017,0.3-0.051h0.05
			L43.25,33.95z"/>
		<path style="fill-rule:evenodd;clip-rule:evenodd;fill:#F5E1A3;" d="M30.8,37.95l-0.1-0.15c-0.733-0.633-1.633-1.684-2.7-3.149
			c-1.2-1.7-2.483-3.267-3.85-4.7c-1.633-1.601-2.883-3.2-3.75-4.8c-0.9-1.467-1.316-2.4-1.25-2.8c0.067-0.3,0.65-0.7,1.75-1.2
			c1.133-0.467,2.434-0.85,3.9-1.15c1.4-0.367,2.867-0.6,4.4-0.7c1.566-0.133,2.649-0.117,3.25,0.05c1.333,0.4,3.233,2.483,5.7,6.25
			c0.533,0.801,1.466,2.334,2.8,4.601c0.566,0.899,1.217,2.083,1.95,3.55l0.1,0.1c-0.066,0.067-0.167,0.084-0.3,0.051l-0.15-0.051
			c-0.2,0.067-0.583,0.233-1.149,0.5c-1.067,0.4-1.867,0.784-2.4,1.15c-0.167,0.033-0.6,0.167-1.3,0.4L35.6,36.45
			c-1.933,0.467-3.483,0.934-4.649,1.399L30.8,37.95z M25.2,22.65l0.2,0.5c0.367,0.533,0.583,0.833,0.65,0.899
			c0.233,0.3,0.417,0.5,0.55,0.601c0.133,0.1,0.367,0.233,0.7,0.399l0.3,0.2c0.066,0.066,0.283,0.134,0.65,0.2
			c0.633,0.033,1.083-0.134,1.35-0.5c0.133-0.134,0.2-0.334,0.2-0.601c0.034-0.1,0.034-0.366,0-0.8
			c-0.066-0.366-0.233-0.767-0.5-1.2l-1.25-1c-1.2-0.267-1.85-0.4-1.95-0.4c-0.167,0-0.3,0.033-0.4,0.1
			c-0.034,0.034-0.167,0.167-0.4,0.4c-0.233,0.3-0.267,0.65-0.1,1.05C25.2,22.533,25.2,22.583,25.2,22.65z M30.85,20.8l-0.1,0.45
			c-0.1,0.367,0,0.7,0.3,1c0.233,0.3,0.533,0.517,0.9,0.65l0.149,0.05c0.067,0.022,0.134,0.03,0.2,0.025
			c0.186,0.012,0.369-0.046,0.55-0.175c0.2-0.066,0.334-0.2,0.4-0.4c0.134-0.533,0.116-1-0.05-1.4c0.033-0.067-0.017-0.133-0.15-0.2
			c-0.166-0.133-0.383-0.233-0.649-0.3H31.55c-0.1-0.033-0.217-0.033-0.35,0C31.134,20.567,31.017,20.667,30.85,20.8z M33.15,26.5
			c0,0.134,0,0.217,0,0.25c0.1,0.233,0.3,0.583,0.6,1.05c0.333,0.467,0.816,0.816,1.45,1.05c0.5,0.134,0.883,0.101,1.149-0.1
			c0.101-0.066,0.167-0.15,0.2-0.25c0.167-0.167,0.233-0.434,0.2-0.8c-0.066-0.367-0.333-0.851-0.8-1.45
			c-0.533-0.5-0.967-0.816-1.3-0.95c-0.301-0.1-0.684,0.017-1.15,0.351C33.2,25.884,33.083,26.167,33.15,26.5z M28.55,29.85
			c-0.066,0.4,0.1,0.917,0.5,1.551L29.8,32.3l0.85,0.601c0.833,0.466,1.433,0.699,1.8,0.699l0.5-0.1
			c0.333-0.167,0.633-0.45,0.899-0.85c0.367-0.634,0.367-1.317,0-2.051L33.4,30c-0.034-0.066-0.267-0.233-0.7-0.5
			c-0.334-0.2-0.65-0.333-0.95-0.4c-0.366-0.133-0.75-0.216-1.15-0.25c-0.967-0.166-1.583,0-1.85,0.5
			C28.617,29.55,28.55,29.717,28.55,29.85z M29.65,35.2c0.033,0.133,0.083,0.283,0.15,0.45c0.233,0.233,0.567,0.466,1,0.699
			c0.2,0.101,0.483,0.167,0.851,0.2c0.3-0.066,0.517-0.2,0.649-0.399l0.05-0.2c0.067-0.2-0.017-0.467-0.25-0.8
			c-0.366-0.4-0.699-0.667-1-0.801L30.85,34.2l-0.25-0.05c-0.067,0.033-0.184,0.05-0.35,0.05c-0.267,0.133-0.417,0.233-0.45,0.3
			C29.7,34.733,29.65,34.967,29.65,35.2z M39.3,31.9c0.066,0.199,0.134,0.333,0.2,0.399c0.134,0.2,0.25,0.3,0.35,0.3
			c0.101,0.034,0.217-0.033,0.351-0.199l0.149-0.15c0.067-0.066,0.117-0.184,0.15-0.35l-0.75-0.25
			C39.616,31.616,39.5,31.6,39.4,31.6c-0.034,0.034-0.067,0.117-0.101,0.25V31.9z M38.2,34.3c0-0.233-0.15-0.483-0.45-0.75
			c-0.733-0.333-1.15-0.517-1.25-0.55c-0.333,0.1-0.566,0.267-0.7,0.5l0.4,0.35l0.3,0.2l1.3,0.4c0.2,0.033,0.351,0.05,0.45,0.05
			L38.2,34.3z M25.05,27.15c0.3,0.267,0.534,0.433,0.7,0.5c0.167,0.033,0.333,0.017,0.5-0.051c0.2-0.133,0.3-0.267,0.3-0.399
			c0.034-0.066,0.034-0.15,0-0.25L26.5,26.7c-0.2-0.167-0.333-0.267-0.4-0.3h-0.75c-0.1,0-0.4,0.033-0.9,0.1
			C24.65,26.8,24.85,27.017,25.05,27.15z"/>
		<path style="fill-rule:evenodd;clip-rule:evenodd;fill:#DDAF64;" d="M25.2,22.65c0-0.066,0-0.117,0-0.15
			c-0.167-0.4-0.133-0.75,0.1-1.05c0.233-0.233,0.367-0.367,0.4-0.4c0.1-0.066,0.233-0.1,0.4-0.1c0.1,0,0.75,0.133,1.95,0.4l1.25,1
			c0.267,0.433,0.434,0.833,0.5,1.2c0.034,0.434,0.034,0.7,0,0.8c0,0.267-0.066,0.467-0.2,0.601c-0.267,0.366-0.717,0.533-1.35,0.5
			c-0.367-0.066-0.583-0.134-0.65-0.2l-0.3-0.2c0.133,0.066,0.317,0.101,0.55,0.101c0.233-0.167,0.367-0.267,0.4-0.301
			c0.167-0.166,0.067-0.6-0.3-1.3c-0.067-0.267-0.184-0.467-0.35-0.6c-0.167-0.233-0.267-0.383-0.3-0.45
			c-0.333-0.233-0.716-0.35-1.15-0.35c-0.433,0.067-0.717,0.167-0.85,0.3L25.2,22.65z M32.3,22.975
			c0.134-0.006,0.267-0.064,0.4-0.175c0.2-0.1,0.316-0.233,0.35-0.4c0.066-0.267-0.017-0.533-0.25-0.8
			c-0.233-0.333-0.583-0.583-1.05-0.75l-0.3-0.1c-0.101,0-0.217,0.017-0.351,0.05h-0.25c0.167-0.133,0.284-0.233,0.35-0.3
			c0.133-0.033,0.25-0.033,0.35,0H32.4c0.267,0.067,0.483,0.167,0.649,0.3c0.134,0.067,0.184,0.133,0.15,0.2
			c0.166,0.4,0.184,0.867,0.05,1.4c-0.066,0.2-0.2,0.333-0.4,0.4C32.669,22.929,32.485,22.987,32.3,22.975z M36.55,28.5
			c-0.033-0.033-0.033-0.066,0-0.1c-0.1-0.367-0.184-0.601-0.25-0.7l-0.55-0.4c-0.333-0.2-0.684-0.383-1.05-0.55
			c-0.8-0.333-1.3-0.45-1.5-0.35l-0.05,0.1c-0.067-0.333,0.05-0.616,0.35-0.85c0.467-0.334,0.85-0.45,1.15-0.351
			c0.333,0.134,0.767,0.45,1.3,0.95c0.467,0.6,0.733,1.083,0.8,1.45C36.783,28.066,36.717,28.333,36.55,28.5z M32.95,33.5L33,33.4
			c0.233-0.4,0.217-0.917-0.05-1.551c-0.167-0.5-0.566-0.933-1.2-1.3c-0.667-0.434-1.283-0.7-1.85-0.8
			c-0.566-0.134-1.017-0.1-1.35,0.1c0-0.133,0.067-0.3,0.2-0.5c0.267-0.5,0.883-0.666,1.85-0.5c0.4,0.034,0.784,0.117,1.15,0.25
			c0.3,0.067,0.616,0.2,0.95,0.4c0.434,0.267,0.666,0.434,0.7,0.5l0.449,0.6c0.367,0.733,0.367,1.417,0,2.051
			C33.583,33.05,33.283,33.333,32.95,33.5z M32.35,35.95c-0.066-0.167-0.333-0.367-0.8-0.601c-0.3-0.166-0.65-0.283-1.05-0.35
			c-0.467-0.033-0.75,0.033-0.85,0.2c0-0.233,0.05-0.467,0.15-0.7c0.034-0.066,0.184-0.167,0.45-0.3c0.167,0,0.283-0.017,0.35-0.05
			l0.25,0.05l0.25,0.149c0.301,0.134,0.634,0.4,1,0.801C32.333,35.483,32.417,35.75,32.35,35.95z M40.35,32.25
			c-0.066-0.066-0.083-0.116-0.05-0.15L40,32.05c-0.134-0.066-0.25-0.083-0.35-0.05L39.3,31.9V31.85
			c0.033-0.133,0.066-0.216,0.101-0.25c0.1,0,0.216,0.017,0.35,0.051l0.75,0.25C40.467,32.066,40.417,32.184,40.35,32.25z
			 M38.2,34.3c-0.3-0.233-0.584-0.416-0.851-0.55c-0.466-0.033-0.85,0-1.149,0.1l-0.4-0.35c0.134-0.233,0.367-0.4,0.7-0.5
			c0.1,0.033,0.517,0.217,1.25,0.55C38.05,33.816,38.2,34.066,38.2,34.3z M25.05,27.15c-0.2-0.134-0.4-0.351-0.6-0.65
			c0.5-0.066,0.8-0.1,0.9-0.1h0.75c0.066,0.033,0.2,0.133,0.4,0.3l0.05,0.25L26.2,26.8c-0.367-0.1-0.633-0.116-0.8-0.05
			C25.2,26.85,25.083,26.983,25.05,27.15z"/>
		<path style="fill-rule:evenodd;clip-rule:evenodd;fill:#BD8437;" d="M27.3,25.05c-0.333-0.166-0.566-0.3-0.7-0.399
			c-0.133-0.101-0.317-0.301-0.55-0.601c-0.066-0.066-0.283-0.366-0.65-0.899l-0.2-0.5l0.1-0.2c0.133-0.133,0.417-0.233,0.85-0.3
			c0.434,0,0.817,0.117,1.15,0.35c0.034,0.067,0.133,0.217,0.3,0.45c0.167,0.133,0.283,0.333,0.35,0.6
			c0.367,0.7,0.466,1.134,0.3,1.3c-0.033,0.034-0.167,0.134-0.4,0.301C27.617,25.15,27.433,25.116,27.3,25.05z M32.3,22.975
			c-0.066,0.005-0.133-0.003-0.2-0.025L31.95,22.9c-0.367-0.133-0.667-0.35-0.9-0.65c-0.3-0.3-0.4-0.633-0.3-1l0.1-0.45h0.25
			c0.134-0.033,0.25-0.05,0.351-0.05l0.3,0.1c0.467,0.167,0.816,0.417,1.05,0.75c0.233,0.267,0.316,0.533,0.25,0.8
			c-0.033,0.167-0.149,0.3-0.35,0.4C32.566,22.911,32.434,22.969,32.3,22.975z M36.55,28.5c-0.033,0.1-0.1,0.184-0.2,0.25
			c-0.267,0.2-0.649,0.233-1.149,0.1c-0.634-0.233-1.117-0.583-1.45-1.05c-0.3-0.467-0.5-0.816-0.6-1.05c0-0.033,0-0.116,0-0.25
			l0.05-0.1c0.2-0.101,0.7,0.017,1.5,0.35c0.366,0.167,0.717,0.35,1.05,0.55l0.55,0.4c0.066,0.1,0.15,0.333,0.25,0.7
			C36.517,28.434,36.517,28.467,36.55,28.5z M32.95,33.5l-0.5,0.1c-0.367,0-0.967-0.233-1.8-0.699L29.8,32.3L29.05,31.4
			c-0.4-0.634-0.566-1.15-0.5-1.551c0.333-0.199,0.784-0.233,1.35-0.1c0.567,0.1,1.183,0.366,1.85,0.8
			c0.634,0.367,1.033,0.8,1.2,1.3C33.217,32.483,33.233,33,33,33.4L32.95,33.5z M32.35,35.95l-0.05,0.2
			c-0.133,0.199-0.35,0.333-0.649,0.399c-0.367-0.033-0.65-0.1-0.851-0.2c-0.433-0.233-0.767-0.466-1-0.699
			c-0.066-0.167-0.117-0.317-0.15-0.45c0.1-0.167,0.383-0.233,0.85-0.2c0.4,0.066,0.75,0.184,1.05,0.35
			C32.017,35.583,32.283,35.783,32.35,35.95z M40.35,32.25L40.2,32.4c-0.134,0.166-0.25,0.233-0.351,0.199
			c-0.1,0-0.216-0.1-0.35-0.3c-0.066-0.066-0.134-0.2-0.2-0.399L39.65,32c0.1-0.033,0.216-0.017,0.35,0.05l0.3,0.05
			C40.267,32.134,40.283,32.184,40.35,32.25z M25.05,27.15c0.034-0.167,0.15-0.301,0.35-0.4c0.167-0.066,0.434-0.05,0.8,0.05
			l0.35,0.15c0.034,0.1,0.034,0.184,0,0.25c0,0.133-0.1,0.267-0.3,0.399c-0.167,0.067-0.333,0.084-0.5,0.051
			C25.583,27.583,25.35,27.417,25.05,27.15z M38.2,34.3l0.05,0.2c-0.1,0-0.25-0.017-0.45-0.05l-1.3-0.4l-0.3-0.2
			c0.3-0.1,0.684-0.133,1.149-0.1C37.616,33.884,37.9,34.066,38.2,34.3z"/>
		<path style="fill-rule:evenodd;clip-rule:evenodd;fill:#EDB348;" d="M30.2,39.2H30c-3.3-2.033-5.833-3.717-7.6-5.05
			c-1.533-1.034-3.083-2.067-4.65-3.101c-0.833-0.566-1.317-1.1-1.45-1.6c-0.074-0.05-0.132-0.116-0.175-0.2
			c-0.071-0.123-0.096-0.29-0.075-0.5c0.067-0.3,0.1-0.483,0.1-0.55c0.2-0.467,0.317-0.75,0.35-0.851c0.067-0.1,0.15-0.35,0.25-0.75
			c0-0.366,0.067-0.733,0.2-1.1c0.167-0.434,0.316-0.866,0.45-1.3c0.133-0.2,0.283-0.483,0.45-0.851
			c0.1-0.366,0.217-0.616,0.35-0.75l0.2-0.1c0.033,0.433,1.15,2.134,3.35,5.1c2.3,3,4.367,5.584,6.2,7.75
			c1.4,1.667,2.283,2.551,2.65,2.65l-0.1,0.2C30.333,38.533,30.233,38.866,30.2,39.2z"/>
		<path style="fill-rule:evenodd;clip-rule:evenodd;fill-opacity:0.2824;" d="M41.7,35.3c-0.556,0.386-1.239,0.818-2.05,1.3
			c-0.667,0.365-1.491,0.832-2.476,1.4c-0.984,0.572-2.201,1.155-3.649,1.75c-1.449,0.595-2.523,0.778-3.226,0.55
			c-0.697-0.232-1.263-0.491-1.7-0.774c-0.444-0.281-1.386-0.914-2.825-1.9s-2.623-1.828-3.55-2.525
			c-0.92-0.698-2.045-1.615-3.375-2.75c-1.833-1.6-2.75-2.583-2.75-2.949c0-0.051,0.008-0.102,0.025-0.15
			c0.042,0.084,0.101,0.15,0.175,0.2c0.133,0.5,0.617,1.033,1.45,1.6c1.567,1.033,3.117,2.066,4.65,3.101
			c1.767,1.333,4.3,3.017,7.6,5.05h0.2c1.833-0.267,4.05-0.9,6.649-1.9L41.7,35.3z"/>
	</g>
</g>
</svg>
