<?xml version="1.0" encoding="iso-8859-1"?>
<!-- Generator: Adobe Illustrator 15.0.0, SVG Export Plug-In . SVG Version: 6.00 Build 0)  -->
<!DOCTYPE svg PUBLIC "-//W3C//DTD SVG 1.1//EN" "http://www.w3.org/Graphics/SVG/1.1/DTD/svg11.dtd">
<svg version="1.1" id="Layer_1" xmlns="http://www.w3.org/2000/svg" xmlns:xlink="http://www.w3.org/1999/xlink" x="0px" y="0px"
	 width="128px" height="128px" viewBox="0 0 128 128" style="enable-background:new 0 0 128 128;" xml:space="preserve">
<g>
	<circle style="fill:#F5F5F5;" cx="64" cy="64" r="64"/>
	<path style="fill:#E6E6E6;" d="M64,0c-1.006,0-2.005,0.03-3,0.076C94.954,1.643,122,29.658,122,64s-27.046,62.356-61,63.924
		c0.995,0.046,1.994,0.076,3,0.076c35.348,0,64-28.652,64-64S99.348,0,64,0z"/>
	<path style="fill:#E16B5A;" d="M124.063,86.141c-1.519-3.192-3.672-6.081-6.395-8.501c-4.908-4.365-11.229-6.771-17.799-6.771
		c-7.633,0-14.922,3.268-20.008,8.976c-3.918,4.403-9.688,6.93-15.825,6.93c-6.154,0-11.937-2.542-15.863-6.972
		c-5.079-5.731-12.386-9.02-20.044-9.02c-6.556,0-12.867,2.396-17.763,6.739c-2.749,2.437-4.923,5.351-6.448,8.572
		C12.916,110.555,36.419,128,64,128C91.564,128,115.055,110.575,124.063,86.141z"/>
	<path style="fill:#CC6152;" d="M117.669,77.64c-4.907-4.365-11.229-6.771-17.799-6.771c-1.013,0-2.019,0.062-3.015,0.175
		c5.51,0.6,10.715,2.878,14.895,6.596c2.723,2.42,4.876,5.309,6.395,8.501c-8.685,23.556-30.828,40.59-57.104,41.786
		c0.98,0.044,1.968,0.073,2.96,0.073c27.563,0,51.056-17.425,60.063-41.859C122.545,82.947,120.391,80.06,117.669,77.64z"/>
	<path style="fill:#F5F5F5;" d="M64.037,116.338c-14.605,0-28.451-6.169-37.988-16.926c-1.02-1.149-0.914-2.908,0.236-3.928
		c1.15-1.021,2.908-0.914,3.928,0.235c8.48,9.566,20.811,15.054,33.824,15.054c12.984,0,25.285-5.457,33.754-14.974
		c1.021-1.146,2.779-1.25,3.928-0.229c1.149,1.021,1.25,2.779,0.229,3.928C92.424,110.201,78.607,116.338,64.037,116.338z"/>
	<path style="fill:#E16B5A;" d="M84,64c0,11.055-8.955,20-20,20s-20-8.945-20-20s8.955-20,20-20S84,52.945,84,64z"/>
	<path style="fill:#CC6152;" d="M64,44c-0.675,0-1.342,0.035-2,0.101C72.105,45.104,80,53.622,80,64s-7.895,18.896-18,19.899
		C62.658,83.964,63.325,84,64,84c11.045,0,20-8.945,20-20S75.045,44,64,44z"/>
	<g>
		<path style="fill:#263740;" d="M51,44c-1.656,0-3-1.344-3-3c0-4.963-4.037-9-9-9s-9,4.037-9,9c0,1.656-1.344,3-3,3s-3-1.344-3-3
			c0-8.271,6.729-15,15-15s15,6.729,15,15C54,42.656,52.656,44,51,44z"/>
		<path style="fill:#263740;" d="M101,44c-1.656,0-3-1.344-3-3c0-4.963-4.037-9-9-9s-9,4.037-9,9c0,1.656-1.344,3-3,3s-3-1.344-3-3
			c0-8.271,6.729-15,15-15s15,6.729,15,15C104,42.656,102.656,44,101,44z"/>
	</g>
</g>
</svg>
