<?xml version="1.0" encoding="iso-8859-1"?>
<!-- Generator: Adobe Illustrator 15.1.0, SVG Export Plug-In . SVG Version: 6.00 Build 0)  -->
<!DOCTYPE svg PUBLIC "-//W3C//DTD SVG 1.1//EN" "http://www.w3.org/Graphics/SVG/1.1/DTD/svg11.dtd">
<svg version="1.1" id="flash0.ai" xmlns="http://www.w3.org/2000/svg" xmlns:xlink="http://www.w3.org/1999/xlink" x="0px" y="0px"
	 width="31.9px" height="28.3px" viewBox="0 0 31.9 28.3" style="enable-background:new 0 0 31.9 28.3;" xml:space="preserve">
<symbol  id="cubimal_1_" viewBox="-6.087 -26.614 31.886 28.313">
	<g id="Layer_1_5_">
		<g>
			<g>
				<g>
					
						<linearGradient id="SVGID_1_" gradientUnits="userSpaceOnUse" x1="16.0171" y1="-16356.0205" x2="22.8421" y2="-16356.0205" gradientTransform="matrix(1.465202e-004 -1 1 -0.001 16352.8027 -8.1768)">
						<stop  offset="0" style="stop-color:#8F8F8F"/>
						<stop  offset="0.2275" style="stop-color:#E8E8E8"/>
						<stop  offset="1" style="stop-color:#696969"/>
					</linearGradient>
					<path style="fill-rule:evenodd;clip-rule:evenodd;fill:url(#SVGID_1_);" d="M-2.9-12.5c-0.233,0-0.434-0.033-0.6-0.1
						c-0.533-0.167-0.817-0.533-0.85-1.1c-0.033-0.467,0.083-0.817,0.35-1.05c0.433-0.233,0.867-0.233,1.3,0
						c0.4,0.233,0.633,0.583,0.7,1.05c0.067,0.6-0.083,0.983-0.45,1.15L-2.9-12.5z M-4-8.9c-0.267-0.133-0.383-0.467-0.35-1
						c0.033-0.6,0.317-1.05,0.85-1.35l0.6-0.3l0.45-0.05c0.366,0.034,0.517,0.384,0.45,1.05c-0.067,0.5-0.3,0.917-0.7,1.25
						C-3.134-8.9-3.567-8.767-4-8.9z M-1.351-9.8c0.5-1.233,0.533-2.05,0.1-2.45c0.433-0.533,0.4-1.333-0.1-2.4
						c-0.566-1.167-1.533-1.533-2.9-1.1c-0.7,0.233-1.1,0.767-1.2,1.6c-0.134,0.867,0.116,1.533,0.75,2l0.5,0.35l-0.5,0.45
						c-0.634,0.7-0.884,1.467-0.75,2.3c0.1,0.8,0.5,1.216,1.2,1.25C-2.884-7.767-1.917-8.434-1.351-9.8z"/>
					
						<linearGradient id="SVGID_2_" gradientUnits="userSpaceOnUse" x1="-1914.0684" y1="-13822.8457" x2="-1904.8961" y2="-13822.8457" gradientTransform="matrix(0.2726 -0.9621 0.9621 0.2726 13815.6797 1919.1348)">
						<stop  offset="0" style="stop-color:#E8E8E8"/>
						<stop  offset="1" style="stop-color:#EDEDED"/>
					</linearGradient>
					<path style="fill-rule:evenodd;clip-rule:evenodd;fill:url(#SVGID_2_);" d="M-3.5-12.7l-0.6-0.1
						c-0.566-0.133-0.866-0.483-0.9-1.05c-0.033-0.533,0.1-0.9,0.4-1.1c0.4-0.267,0.817-0.267,1.25,0
						c0.434,0.233,0.684,0.583,0.75,1.05c0.067,0.6-0.083,0.967-0.45,1.1L-3.5-12.7z M-4.601-9.101c-0.3-0.133-0.433-0.466-0.4-1
						c0.034-0.6,0.333-1.05,0.9-1.35l0.6-0.3l0.45-0.05c0.367,0.033,0.517,0.383,0.45,1.05c-0.066,0.5-0.316,0.917-0.75,1.25
						C-3.784-9.101-4.2-8.967-4.601-9.101z M-1.95-10c0.5-1.233,0.517-2.05,0.05-2.45c0.467-0.5,0.45-1.3-0.05-2.4
						c-0.567-1.2-1.533-1.583-2.9-1.15c-0.7,0.233-1.1,0.784-1.2,1.65c-0.133,0.867,0.1,1.534,0.7,2l0.5,0.35l-0.5,0.45
						c-0.6,0.7-0.833,1.466-0.7,2.3c0.1,0.8,0.5,1.217,1.2,1.25C-3.483-7.967-2.517-8.634-1.95-10z"/>
					
						<linearGradient id="SVGID_3_" gradientUnits="userSpaceOnUse" x1="-1913.8281" y1="-13822.9131" x2="-1904.6559" y2="-13822.9131" gradientTransform="matrix(0.2726 -0.9621 0.9621 0.2726 13815.6797 1919.1348)">
						<stop  offset="0" style="stop-color:#E8E8E8"/>
						<stop  offset="1" style="stop-color:#878787"/>
					</linearGradient>
					<path style="fill-rule:evenodd;clip-rule:evenodd;fill:url(#SVGID_3_);" d="M-3.5-12.95l-0.6-0.1
						c-0.566-0.133-0.866-0.483-0.9-1.05c-0.033-0.533,0.1-0.9,0.4-1.1c0.4-0.267,0.817-0.267,1.25,0
						c0.434,0.233,0.684,0.583,0.75,1.05c0.067,0.633-0.083,1-0.45,1.1L-3.5-12.95z M-4.601-9.351c-0.3-0.133-0.433-0.466-0.4-1
						c0.034-0.6,0.333-1.05,0.9-1.35l0.6-0.3l0.45-0.05c0.367,0.033,0.517,0.383,0.45,1.05c-0.066,0.5-0.316,0.917-0.75,1.25
						C-3.784-9.351-4.2-9.217-4.601-9.351z M-1.95-10.25c0.5-1.233,0.517-2.05,0.05-2.45c0.467-0.5,0.45-1.3-0.05-2.4
						c-0.567-1.2-1.533-1.583-2.9-1.15c-0.7,0.233-1.1,0.784-1.2,1.65c-0.133,0.867,0.1,1.534,0.7,2l0.5,0.35l-0.5,0.45
						c-0.6,0.7-0.833,1.466-0.7,2.3c0.1,0.8,0.5,1.217,1.2,1.25C-3.483-8.217-2.517-8.884-1.95-10.25z"/>
				</g>
				
					<linearGradient id="SVGID_4_" gradientUnits="userSpaceOnUse" x1="1526.4575" y1="-17625.332" x2="1527.7769" y2="-17625.332" gradientTransform="matrix(-0.1705 -0.9854 0.9854 -0.1705 17628.7266 -1514.3062)">
					<stop  offset="0" style="stop-color:#8F8F8F"/>
					<stop  offset="0.2275" style="stop-color:#E8E8E8"/>
					<stop  offset="1" style="stop-color:#696969"/>
				</linearGradient>
				<path style="fill-rule:evenodd;clip-rule:evenodd;fill:url(#SVGID_4_);" d="M4.05-14.101l-5.35,0.8
					c-0.333-0.034-0.5,0.133-0.5,0.5c0,0.233,0.083,0.4,0.25,0.5c0.1,0.066,0.183,0.1,0.25,0.1L4.05-13V-14.101z"/>
			</g>
			<g>
				
					<linearGradient id="SVGID_5_" gradientUnits="userSpaceOnUse" x1="-2092.3223" y1="-13468.6934" x2="-2085.9419" y2="-13468.6934" gradientTransform="matrix(0.3056 -0.9522 0.9522 0.3056 13463.6104 2107.8613)">
					<stop  offset="0" style="stop-color:#6B9118"/>
					<stop  offset="1" style="stop-color:#4B6416"/>
				</linearGradient>
				<path style="fill-rule:evenodd;clip-rule:evenodd;fill:url(#SVGID_5_);" d="M1.149-14.7L5-16.95v-2.35
					c-0.167-1.6-0.65-2.583-1.45-2.95c-0.867-0.4-2.117-0.383-3.75,0.05c-1.267,0.333-2.283,0.733-3.05,1.2
					c-0.433,0.233-0.5,0.567-0.2,1c0.1,0.133,0.633,0.667,1.6,1.6S0.116-16.234,1.149-14.7z"/>
				
					<linearGradient id="SVGID_6_" gradientUnits="userSpaceOnUse" x1="-3028.0879" y1="-10994.374" x2="-3023.8604" y2="-10994.374" gradientTransform="matrix(0.5145 -0.8575 0.8575 0.5145 10981.6875 3041.752)">
					<stop  offset="0" style="stop-color:#8DBE21"/>
					<stop  offset="1" style="stop-color:#709321"/>
				</linearGradient>
				<path style="fill-rule:evenodd;clip-rule:evenodd;fill:url(#SVGID_6_);" d="M-2.351-19.8c0.134-0.034,0.233-0.1,0.3-0.2
					c0.2-0.3,0.1-0.55-0.3-0.75c-0.333-0.2-0.6-0.167-0.8,0.1c-0.133,0.333-0.033,0.583,0.3,0.75
					C-2.717-19.8-2.55-19.767-2.351-19.8z"/>
				
					<linearGradient id="SVGID_7_" gradientUnits="userSpaceOnUse" x1="-3028.1299" y1="-10992.5762" x2="-3023.9023" y2="-10992.5762" gradientTransform="matrix(0.5145 -0.8575 0.8575 0.5145 10981.6875 3041.752)">
					<stop  offset="0" style="stop-color:#8DBE21"/>
					<stop  offset="1" style="stop-color:#709321"/>
				</linearGradient>
				<path style="fill-rule:evenodd;clip-rule:evenodd;fill:url(#SVGID_7_);" d="M-0.8-18.65c0.267-0.267,0.25-0.533-0.05-0.8
					c-0.233-0.333-0.5-0.384-0.8-0.15c-0.233,0.233-0.217,0.5,0.05,0.8C-1.3-18.5-1.034-18.45-0.8-18.65z"/>
				
					<linearGradient id="SVGID_8_" gradientUnits="userSpaceOnUse" x1="-3028.1475" y1="-10990.7734" x2="-3023.9199" y2="-10990.7734" gradientTransform="matrix(0.5145 -0.8575 0.8575 0.5145 10981.6875 3041.752)">
					<stop  offset="0" style="stop-color:#8DBE21"/>
					<stop  offset="1" style="stop-color:#709321"/>
				</linearGradient>
				<path style="fill-rule:evenodd;clip-rule:evenodd;fill:url(#SVGID_8_);" d="M0.45-17.25c0.1-0.066,0.15-0.183,0.15-0.35
					c0-0.167-0.066-0.316-0.2-0.45c-0.233-0.3-0.5-0.333-0.8-0.1c-0.233,0.2-0.217,0.467,0.05,0.8
					C-0.05-17.05,0.216-17.017,0.45-17.25z"/>
				
					<linearGradient id="SVGID_9_" gradientUnits="userSpaceOnUse" x1="-3028.1309" y1="-10993.4531" x2="-3023.9033" y2="-10993.4531" gradientTransform="matrix(0.5145 -0.8575 0.8575 0.5145 10981.6875 3041.752)">
					<stop  offset="0" style="stop-color:#8DBE21"/>
					<stop  offset="1" style="stop-color:#709321"/>
				</linearGradient>
				<path style="fill-rule:evenodd;clip-rule:evenodd;fill:url(#SVGID_9_);" d="M-0.7-20.5c0.167-0.267,0.083-0.517-0.25-0.75
					c-0.367-0.233-0.634-0.2-0.8,0.1c-0.167,0.267-0.067,0.517,0.3,0.75C-1.15-20.167-0.9-20.2-0.7-20.5z"/>
				
					<linearGradient id="SVGID_10_" gradientUnits="userSpaceOnUse" x1="-3028.1299" y1="-10991.7168" x2="-3023.9023" y2="-10991.7168" gradientTransform="matrix(0.5145 -0.8575 0.8575 0.5145 10981.6875 3041.752)">
					<stop  offset="0" style="stop-color:#8DBE21"/>
					<stop  offset="1" style="stop-color:#709321"/>
				</linearGradient>
				<path style="fill-rule:evenodd;clip-rule:evenodd;fill:url(#SVGID_10_);" d="M0.8-19.601c0.2-0.333,0.116-0.583-0.25-0.75
					c-0.333-0.233-0.6-0.216-0.8,0.05c-0.2,0.3-0.1,0.55,0.3,0.75C0.35-19.317,0.6-19.334,0.8-19.601z"/>
			</g>
			<g>
				
					<linearGradient id="SVGID_11_" gradientUnits="userSpaceOnUse" x1="360.2944" y1="319.165" x2="362.0461" y2="319.165" gradientTransform="matrix(0.9991 0.0428 -0.0428 0.9991 -342.6221 -357.6211)">
					<stop  offset="0" style="stop-color:#7AA41C"/>
					<stop  offset="1" style="stop-color:#5D7A1B"/>
				</linearGradient>
				<path style="fill-rule:evenodd;clip-rule:evenodd;fill:url(#SVGID_11_);" d="M2.649-21l4.65-0.35
					c-0.333-1.366-0.6-2.316-0.8-2.85c-0.4-1.034-0.817-1.5-1.25-1.4C4.416-25.4,3.55-23.867,2.649-21z"/>
				
					<linearGradient id="SVGID_12_" gradientUnits="userSpaceOnUse" x1="369.5928" y1="317.7676" x2="371.3444" y2="317.7676" gradientTransform="matrix(0.9991 0.0428 -0.0428 0.9991 -342.6221 -357.6211)">
					<stop  offset="0" style="stop-color:#7AA41C"/>
					<stop  offset="1" style="stop-color:#5D7A1B"/>
				</linearGradient>
				<path style="fill-rule:evenodd;clip-rule:evenodd;fill:url(#SVGID_12_);" d="M12-22l4.65-0.35c-0.733-3-1.433-4.417-2.1-4.25
					C13.75-26.4,12.899-24.867,12-22z"/>
				
					<linearGradient id="SVGID_13_" gradientUnits="userSpaceOnUse" x1="377.3989" y1="321.2852" x2="379.1505" y2="321.2852" gradientTransform="matrix(0.9991 0.0428 -0.0428 0.9991 -342.6221 -357.6211)">
					<stop  offset="0" style="stop-color:#7AA41C"/>
					<stop  offset="1" style="stop-color:#5D7A1B"/>
				</linearGradient>
				<path style="fill-rule:evenodd;clip-rule:evenodd;fill:url(#SVGID_13_);" d="M19.649-18.15l4.65-0.35
					c-0.333-1.367-0.6-2.316-0.8-2.85c-0.4-1.033-0.817-1.5-1.25-1.4C21.416-22.55,20.55-21.017,19.649-18.15z"/>
			</g>
			<g>
				
					<linearGradient id="SVGID_14_" gradientUnits="userSpaceOnUse" x1="-2106.6895" y1="-13442.4521" x2="-2087.541" y2="-13442.4521" gradientTransform="matrix(0.3068 -0.9518 0.9518 0.3068 13450.8223 2114.4268)">
					<stop  offset="0" style="stop-color:#7AA41C"/>
					<stop  offset="1" style="stop-color:#5D7A1B"/>
				</linearGradient>
				<path style="fill-rule:evenodd;clip-rule:evenodd;fill:url(#SVGID_14_);" d="M22.05-2.25c1.1,0,1.933-0.216,2.5-0.65
					c0.366-0.3,0.65-0.767,0.85-1.4c0.167-0.534,0.25-4.383,0.25-11.55c0-0.366,0-0.85,0-1.45c-0.033-0.5-0.183-0.95-0.45-1.35
					c-0.3-0.434-1.217-1.184-2.75-2.25c-1.333-0.967-2.3-1.6-2.9-1.9c-1.7-0.934-2.967-1.4-3.8-1.4c-2.433,0.3-4.283,0.45-5.55,0.45
					c-0.8,0.034-2.25,0.2-4.35,0.5c-2.133,0.3-3.4,0.483-3.8,0.55c-0.7,0.1-1.167,0.4-1.4,0.9c-0.366,0.667-0.566,2.017-0.6,4.05
					c-0.134,3.233-0.2,5.6-0.2,7.1C-0.117-7.984,0.267-6.4,1-5.9c0.867,0.633,2.4,1.533,4.6,2.7c2.533,1.4,4.15,2.116,4.85,2.15
					c0.933,0.033,2.867-0.15,5.8-0.55C19.383-2.034,21.316-2.25,22.05-2.25z"/>
				<g>
					
						<linearGradient id="SVGID_15_" gradientUnits="userSpaceOnUse" x1="-3219.9883" y1="-10093.7676" x2="-3203.7485" y2="-10093.7676" gradientTransform="matrix(0.5804 -0.8144 0.8144 0.5804 10090.3594 3227.6357)">
						<stop  offset="0" style="stop-color:#8DBE21"/>
						<stop  offset="1" style="stop-color:#709321"/>
					</linearGradient>
					<path style="fill-rule:evenodd;clip-rule:evenodd;fill:url(#SVGID_15_);" d="M3.399-9.3c0-0.367-0.1-0.684-0.3-0.95
						c-0.167-0.267-0.383-0.4-0.65-0.4c-0.267,0-0.5,0.133-0.7,0.4C1.583-9.984,1.5-9.667,1.5-9.3c0,0.4,0.083,0.733,0.25,1
						c0.2,0.267,0.433,0.4,0.7,0.4c0.267,0,0.483-0.133,0.65-0.4C3.3-8.567,3.399-8.9,3.399-9.3z"/>
					
						<linearGradient id="SVGID_16_" gradientUnits="userSpaceOnUse" x1="-3219.9912" y1="-10096.0742" x2="-3203.7515" y2="-10096.0742" gradientTransform="matrix(0.5804 -0.8144 0.8144 0.5804 10090.3594 3227.6357)">
						<stop  offset="0" style="stop-color:#8DBE21"/>
						<stop  offset="1" style="stop-color:#709321"/>
					</linearGradient>
					<path style="fill-rule:evenodd;clip-rule:evenodd;fill:url(#SVGID_16_);" d="M3.399-13.25c0-0.367-0.1-0.683-0.3-0.95
						c-0.167-0.267-0.383-0.4-0.65-0.4c-0.267,0-0.5,0.134-0.7,0.4c-0.167,0.267-0.25,0.583-0.25,0.95s0.083,0.684,0.25,0.95
						c0.2,0.267,0.433,0.4,0.7,0.4c0.267,0,0.483-0.133,0.65-0.4C3.3-12.567,3.399-12.884,3.399-13.25z"/>
					
						<linearGradient id="SVGID_17_" gradientUnits="userSpaceOnUse" x1="-3220.001" y1="-10098.5566" x2="-3203.7612" y2="-10098.5566" gradientTransform="matrix(0.5804 -0.8144 0.8144 0.5804 10090.3594 3227.6357)">
						<stop  offset="0" style="stop-color:#8DBE21"/>
						<stop  offset="1" style="stop-color:#709321"/>
					</linearGradient>
					<path style="fill-rule:evenodd;clip-rule:evenodd;fill:url(#SVGID_17_);" d="M3.399-17.55c0-0.367-0.1-0.684-0.3-0.95
						c-0.167-0.267-0.383-0.4-0.65-0.4c-0.267,0-0.5,0.133-0.7,0.4c-0.167,0.267-0.25,0.583-0.25,0.95s0.083,0.7,0.25,1
						c0.2,0.267,0.433,0.4,0.7,0.4c0.267,0,0.483-0.133,0.65-0.4C3.3-16.851,3.399-17.184,3.399-17.55z"/>
					
						<linearGradient id="SVGID_18_" gradientUnits="userSpaceOnUse" x1="-3220.002" y1="-10091.5449" x2="-3203.7622" y2="-10091.5449" gradientTransform="matrix(0.5804 -0.8144 0.8144 0.5804 10090.3594 3227.6357)">
						<stop  offset="0" style="stop-color:#8DBE21"/>
						<stop  offset="1" style="stop-color:#709321"/>
					</linearGradient>
					<path style="fill-rule:evenodd;clip-rule:evenodd;fill:url(#SVGID_18_);" d="M6.45-9.75c0-0.367-0.1-0.683-0.3-0.95
						c-0.167-0.267-0.383-0.4-0.65-0.4c-0.267,0-0.5,0.134-0.7,0.4c-0.167,0.267-0.25,0.583-0.25,0.95s0.083,0.7,0.25,1
						c0.2,0.267,0.433,0.4,0.7,0.4c0.267,0,0.483-0.133,0.65-0.4C6.35-9.05,6.45-9.384,6.45-9.75z"/>
					
						<linearGradient id="SVGID_19_" gradientUnits="userSpaceOnUse" x1="-3220.0059" y1="-10093.8672" x2="-3203.7661" y2="-10093.8672" gradientTransform="matrix(0.5804 -0.8144 0.8144 0.5804 10090.3594 3227.6357)">
						<stop  offset="0" style="stop-color:#8DBE21"/>
						<stop  offset="1" style="stop-color:#709321"/>
					</linearGradient>
					<path style="fill-rule:evenodd;clip-rule:evenodd;fill:url(#SVGID_19_);" d="M6.45-13.7c0-0.367-0.1-0.7-0.3-1
						c-0.167-0.267-0.383-0.4-0.65-0.4c-0.267,0-0.5,0.134-0.7,0.4c-0.167,0.3-0.25,0.633-0.25,1c0,0.366,0.083,0.683,0.25,0.95
						c0.2,0.267,0.433,0.4,0.7,0.4c0.267,0,0.483-0.133,0.65-0.4C6.35-13.017,6.45-13.334,6.45-13.7z"/>
					
						<linearGradient id="SVGID_20_" gradientUnits="userSpaceOnUse" x1="-3220.0146" y1="-10096.3623" x2="-3203.7749" y2="-10096.3623" gradientTransform="matrix(0.5804 -0.8144 0.8144 0.5804 10090.3594 3227.6357)">
						<stop  offset="0" style="stop-color:#8DBE21"/>
						<stop  offset="1" style="stop-color:#709321"/>
					</linearGradient>
					<path style="fill-rule:evenodd;clip-rule:evenodd;fill:url(#SVGID_20_);" d="M6.45-18c0-0.367-0.1-0.7-0.3-1
						c-0.167-0.267-0.383-0.4-0.65-0.4c-0.267,0-0.5,0.133-0.7,0.4c-0.167,0.3-0.25,0.633-0.25,1s0.083,0.684,0.25,0.95
						c0.2,0.267,0.433,0.4,0.7,0.4c0.267,0,0.483-0.133,0.65-0.4C6.35-17.317,6.45-17.634,6.45-18z"/>
					
						<linearGradient id="SVGID_21_" gradientUnits="userSpaceOnUse" x1="-3219.9814" y1="-10089.0625" x2="-3203.7417" y2="-10089.0625" gradientTransform="matrix(0.5804 -0.8144 0.8144 0.5804 10090.3594 3227.6357)">
						<stop  offset="0" style="stop-color:#8DBE21"/>
						<stop  offset="1" style="stop-color:#709321"/>
					</linearGradient>
					<path style="fill-rule:evenodd;clip-rule:evenodd;fill:url(#SVGID_21_);" d="M9.75-10.101c0-0.366-0.1-0.683-0.3-0.95
						c-0.2-0.267-0.433-0.4-0.7-0.4c-0.267,0-0.483,0.133-0.65,0.4c-0.2,0.267-0.3,0.583-0.3,0.95c0,0.367,0.1,0.7,0.3,1
						c0.2,0.267,0.417,0.4,0.65,0.4c0.267,0,0.5-0.134,0.7-0.4C9.649-9.4,9.75-9.734,9.75-10.101z"/>
					
						<linearGradient id="SVGID_22_" gradientUnits="userSpaceOnUse" x1="-3219.9961" y1="-10091.3691" x2="-3203.7563" y2="-10091.3691" gradientTransform="matrix(0.5804 -0.8144 0.8144 0.5804 10090.3594 3227.6357)">
						<stop  offset="0" style="stop-color:#8DBE21"/>
						<stop  offset="1" style="stop-color:#709321"/>
					</linearGradient>
					<path style="fill-rule:evenodd;clip-rule:evenodd;fill:url(#SVGID_22_);" d="M9.75-14.05c0-0.367-0.1-0.684-0.3-0.95
						c-0.2-0.267-0.433-0.4-0.7-0.4c-0.267,0-0.483,0.133-0.65,0.4c-0.2,0.267-0.3,0.583-0.3,0.95s0.1,0.683,0.3,0.95
						c0.167,0.267,0.383,0.4,0.65,0.4c0.267,0,0.5-0.134,0.7-0.4C9.649-13.367,9.75-13.684,9.75-14.05z"/>
					
						<linearGradient id="SVGID_23_" gradientUnits="userSpaceOnUse" x1="-3220.0059" y1="-10093.8789" x2="-3203.7661" y2="-10093.8789" gradientTransform="matrix(0.5804 -0.8144 0.8144 0.5804 10090.3594 3227.6357)">
						<stop  offset="0" style="stop-color:#8DBE21"/>
						<stop  offset="1" style="stop-color:#709321"/>
					</linearGradient>
					<path style="fill-rule:evenodd;clip-rule:evenodd;fill:url(#SVGID_23_);" d="M9.75-18.351c0-0.366-0.1-0.7-0.3-1
						c-0.2-0.267-0.433-0.4-0.7-0.4c-0.233,0-0.45,0.133-0.65,0.4c-0.2,0.3-0.3,0.634-0.3,1c0,0.367,0.1,0.684,0.3,0.95
						C8.267-17.134,8.483-17,8.75-17c0.267,0,0.5-0.133,0.7-0.4C9.649-17.667,9.75-17.984,9.75-18.351z"/>
					
						<linearGradient id="SVGID_24_" gradientUnits="userSpaceOnUse" x1="-3219.9619" y1="-10086.1992" x2="-3203.7222" y2="-10086.1992" gradientTransform="matrix(0.5804 -0.8144 0.8144 0.5804 10090.3594 3227.6357)">
						<stop  offset="0" style="stop-color:#8DBE21"/>
						<stop  offset="1" style="stop-color:#709321"/>
					</linearGradient>
					<path style="fill-rule:evenodd;clip-rule:evenodd;fill:url(#SVGID_24_);" d="M13.55-10.5c0-0.367-0.1-0.683-0.3-0.95
						c-0.167-0.267-0.383-0.4-0.65-0.4s-0.5,0.134-0.7,0.4c-0.167,0.267-0.25,0.583-0.25,0.95s0.083,0.7,0.25,1
						c0.2,0.267,0.434,0.4,0.7,0.4s0.483-0.133,0.65-0.4C13.45-9.8,13.55-10.134,13.55-10.5z"/>
					
						<linearGradient id="SVGID_25_" gradientUnits="userSpaceOnUse" x1="-3219.9648" y1="-10088.5195" x2="-3203.7251" y2="-10088.5195" gradientTransform="matrix(0.5804 -0.8144 0.8144 0.5804 10090.3594 3227.6357)">
						<stop  offset="0" style="stop-color:#8DBE21"/>
						<stop  offset="1" style="stop-color:#709321"/>
					</linearGradient>
					<path style="fill-rule:evenodd;clip-rule:evenodd;fill:url(#SVGID_25_);" d="M13.55-14.45c0-0.367-0.1-0.7-0.3-1
						c-0.167-0.267-0.383-0.4-0.65-0.4s-0.5,0.134-0.7,0.4c-0.167,0.3-0.25,0.633-0.25,1c0,0.366,0.083,0.683,0.25,0.95
						c0.2,0.267,0.434,0.4,0.7,0.4s0.483-0.133,0.65-0.4C13.45-13.767,13.55-14.084,13.55-14.45z"/>
					
						<linearGradient id="SVGID_26_" gradientUnits="userSpaceOnUse" x1="-3219.9854" y1="-10091.0156" x2="-3203.7456" y2="-10091.0156" gradientTransform="matrix(0.5804 -0.8144 0.8144 0.5804 10090.3594 3227.6357)">
						<stop  offset="0" style="stop-color:#8DBE21"/>
						<stop  offset="1" style="stop-color:#709321"/>
					</linearGradient>
					<path style="fill-rule:evenodd;clip-rule:evenodd;fill:url(#SVGID_26_);" d="M13.55-18.75c0-0.367-0.1-0.7-0.3-1
						c-0.167-0.267-0.383-0.4-0.65-0.4s-0.5,0.133-0.7,0.4c-0.167,0.3-0.25,0.633-0.25,1s0.083,0.684,0.25,0.95
						c0.2,0.267,0.434,0.4,0.7,0.4s0.483-0.133,0.65-0.4C13.45-18.067,13.55-18.384,13.55-18.75z"/>
				</g>
				
					<linearGradient id="SVGID_27_" gradientUnits="userSpaceOnUse" x1="-2090.7461" y1="-13458.2988" x2="-2080.7686" y2="-13458.2988" gradientTransform="matrix(0.3057 -0.9521 0.9521 0.3057 13463.0059 2108.1729)">
					<stop  offset="0" style="stop-color:#6788A2"/>
					<stop  offset="1" style="stop-color:#48596B"/>
				</linearGradient>
				<path style="fill-rule:evenodd;clip-rule:evenodd;fill:url(#SVGID_27_);" d="M16.149-18.101c0.233,0,0.783,0.167,1.65,0.5l5.1-3
					c-1.467-1.066-2.583-1.8-3.35-2.2c-1.7-0.934-2.967-1.4-3.8-1.4c-2.433,0.3-4.283,0.45-5.55,0.45c-0.8,0.034-2.25,0.2-4.35,0.5
					c-2.133,0.3-3.4,0.483-3.8,0.55c-0.7,0.1-1.167,0.4-1.4,0.9c-0.366,0.667-0.566,2.017-0.6,4.05v1.4
					C2.55-17.15,7.916-17.734,16.149-18.101z"/>
			</g>
			<g>
				
					<linearGradient id="SVGID_28_" gradientUnits="userSpaceOnUse" x1="-2369.584" y1="-12877.3154" x2="-2352.5862" y2="-12877.3154" gradientTransform="matrix(0.3574 -0.934 0.934 0.3574 12891.4414 2382.3887)">
					<stop  offset="0" style="stop-color:#6B9118"/>
					<stop  offset="1" style="stop-color:#4B6416"/>
				</linearGradient>
				<path style="fill-rule:evenodd;clip-rule:evenodd;fill:url(#SVGID_28_);" d="M25.399-4.3c0.1-0.267,0.15-1.133,0.15-2.6
					c0.066-2.133,0.1-5.117,0.1-8.95c0-0.366,0-0.85,0-1.45c-0.033-0.5-0.183-0.95-0.45-1.35c-0.3-0.434-1.217-1.184-2.75-2.25
					c-1.333-0.967-2.3-1.6-2.9-1.9c-0.267-0.167-0.9-0.434-1.9-0.8c-1-0.366-1.633-0.566-1.9-0.6c0.333,0.667,0.483,1.383,0.45,2.15
					l-0.1,14l0.1,0.15c0.167,0.2,1.067,0.7,2.7,1.5c1.867,0.9,3.05,1.517,3.55,1.85c1.4,0.9,2.15,1.4,2.25,1.5
					C25-3.351,25.233-3.767,25.399-4.3z"/>
			</g>
			<g>
				
					<linearGradient id="SVGID_29_" gradientUnits="userSpaceOnUse" x1="-2359.3545" y1="-12881.6406" x2="-2352.0745" y2="-12881.6406" gradientTransform="matrix(0.3571 -0.9341 0.9341 0.3571 12894.4277 2381.0537)">
					<stop  offset="0" style="stop-color:#4A677F"/>
					<stop  offset="1" style="stop-color:#3D4A59"/>
				</linearGradient>
				<path style="fill-rule:evenodd;clip-rule:evenodd;fill:url(#SVGID_29_);" d="M16.2-22.05l-0.05,3.95
					c0.833,0.1,1.483,0.25,1.95,0.45c2.467,1.1,5.033,2.7,7.7,4.8v-2.45c-0.033-1.034-0.067-1.617-0.1-1.75
					c-0.067-0.667-0.233-1.2-0.5-1.6c-0.3-0.434-1.217-1.184-2.75-2.25c-1.333-0.967-2.3-1.6-2.9-1.9
					c-0.267-0.167-0.9-0.434-1.9-0.8c-1-0.366-1.633-0.566-1.9-0.6C16.083-23.534,16.233-22.817,16.2-22.05z"/>
				
					<linearGradient id="SVGID_30_" gradientUnits="userSpaceOnUse" x1="-2363.0664" y1="-12869.6582" x2="-2358.8088" y2="-12869.6582" gradientTransform="matrix(0.3582 -0.9336 0.9336 0.3582 12882.5029 2386.375)">
					<stop  offset="0" style="stop-color:#E5F3FF"/>
					<stop  offset="1" style="stop-color:#8495A6"/>
				</linearGradient>
				<path style="fill-rule:evenodd;clip-rule:evenodd;fill:url(#SVGID_30_);" d="M23.149-18.25c0.767-0.167,1.55-0.216,2.35-0.15
					c-0.267-0.4-0.533-0.717-0.8-0.95l-1.25-0.8c-2.633,0.2-4.367,0.367-5.2,0.5l-1.75,0.3l-0.05,1l2.75,0.7L23.149-18.25z"/>
				
					<linearGradient id="SVGID_31_" gradientUnits="userSpaceOnUse" x1="-2350.5693" y1="-12900.6563" x2="-2345.9958" y2="-12900.6563" gradientTransform="matrix(0.3553 -0.9347 0.9347 0.3553 12915.0303 2371.8252)">
					<stop  offset="0" style="stop-color:#6788A2"/>
					<stop  offset="1" style="stop-color:#48596B"/>
				</linearGradient>
				<path style="fill-rule:evenodd;clip-rule:evenodd;fill:url(#SVGID_31_);" d="M18.1-17.601c2.6,1.1,5.15,2.767,7.65,5l0.05-0.25
					l-0.65-3.8c-0.033,0.367-0.167,0.617-0.4,0.75L23-14.95l-1.1-3.95c-0.3,0.333-0.85,0.5-1.65,0.5l-3.55,0.25L18.1-17.601z"/>
			</g>
			<g>
				<linearGradient id="SVGID_32_" gradientUnits="userSpaceOnUse" x1="0.4995" y1="-4.4678" x2="24.6997" y2="-4.4678">
					<stop  offset="0" style="stop-color:#ACE82A"/>
					<stop  offset="1" style="stop-color:#7FA725"/>
				</linearGradient>
				<path style="fill-rule:evenodd;clip-rule:evenodd;fill:url(#SVGID_32_);" d="M23.2-4.25c-0.5-0.3-1.8-0.966-3.9-2
					c-1.9-0.9-2.934-1.45-3.1-1.65C15.333-7.834,12.433-7.534,7.5-7c-3.767,0.4-6.1,0.567-7,0.5C0.666-6.234,0.833-6.034,1-5.9
					c0.867,0.633,2.4,1.533,4.6,2.7c2.533,1.4,4.15,2.116,4.85,2.15c2.3,0.1,6.167-0.3,11.6-1.2c1.433-0.2,2.316-0.466,2.65-0.8
					C24.366-3.417,23.866-3.817,23.2-4.25z"/>
			</g>
			<g>
				
					<linearGradient id="SVGID_33_" gradientUnits="userSpaceOnUse" x1="-2377.5234" y1="-12884.498" x2="-2368.2097" y2="-12884.498" gradientTransform="matrix(0.357 -0.9341 0.9341 0.357 12895.9863 2380.3594)">
					<stop  offset="0" style="stop-color:#6788A2"/>
					<stop  offset="1" style="stop-color:#48596B"/>
				</linearGradient>
				<path style="fill-rule:evenodd;clip-rule:evenodd;fill:url(#SVGID_33_);" d="M19.7,0.25c0.333-0.533,1.067-1.566,2.2-3.1
					c-2.2-1.5-3.75-2.4-4.65-2.7L15.95-6c-5.8,0.467-9.3,1.017-10.5,1.65l0.85,1.5c0.667,1.134,1.267,2,1.8,2.6
					c1.133,1.3,2.017,1.95,2.65,1.95c0.133,0,1.067-0.117,2.8-0.35c1.8-0.2,3.017-0.316,3.65-0.35c1-0.033,1.567-0.066,1.7-0.1
					C19.2,0.833,19.466,0.616,19.7,0.25z"/>
				<g>
					<path style="fill-rule:evenodd;clip-rule:evenodd;fill:#4A576B;" d="M20.5-0.95c-0.833-0.934-2.1-1.634-3.8-2.1
						c0.633,2.1,1.367,3.417,2.2,3.95c0.333-0.1,0.6-0.316,0.8-0.65L20.5-0.95z"/>
					<path style="fill-rule:evenodd;clip-rule:evenodd;fill:#4A576B;" d="M16.6-3.55c1.667-0.1,3.083,0.617,4.25,2.15l1.05-1.45
						c-2.2-1.5-3.75-2.4-4.65-2.7L16-6c0.034,0.167,0.15,0.684,0.35,1.55l0.2,0.9H16.6z"/>
					<linearGradient id="SVGID_34_" gradientUnits="userSpaceOnUse" x1="5.187" y1="-2.7754" x2="21.812" y2="-2.7754">
						<stop  offset="0" style="stop-color:#E5F3FF"/>
						<stop  offset="1" style="stop-color:#8495A6"/>
					</linearGradient>
					<path style="fill-rule:evenodd;clip-rule:evenodd;fill:url(#SVGID_34_);" d="M13.85-2.851l2.85-0.2l-0.15-0.5
						c-4.934,0.267-8.267,0.65-10,1.15L6.8-2C10.233-2.5,12.583-2.784,13.85-2.851z"/>
					<path style="fill-rule:evenodd;clip-rule:evenodd;fill:#4A576B;" d="M20.85-1.4c-1.167-1.533-2.583-2.25-4.25-2.15h-0.05
						l0.15,0.5c1.7,0.466,2.966,1.167,3.8,2.1L20.85-1.4z"/>
					<linearGradient id="SVGID_35_" gradientUnits="userSpaceOnUse" x1="5.187" y1="-2.2549" x2="21.812" y2="-2.2549">
						<stop  offset="0" style="stop-color:#E5F3FF"/>
						<stop  offset="1" style="stop-color:#8495A6"/>
					</linearGradient>
					<path style="fill-rule:evenodd;clip-rule:evenodd;fill:url(#SVGID_35_);" d="M20.85-1.4c-1.167-1.533-2.583-2.25-4.25-2.15
						h-0.05l0.15,0.5c1.7,0.466,2.966,1.167,3.8,2.1L20.85-1.4z"/>
				</g>
			</g>
			<g>
				<path style="fill-rule:evenodd;clip-rule:evenodd;fill:#546C1B;" d="M20.399-13.05v-1.3c-0.133-1-0.517-1.767-1.15-2.3
					c-0.767-0.633-1.45-0.733-2.05-0.3c-0.534,0.4-0.817,1.066-0.85,2c-0.033,0.733,0.184,1.283,0.65,1.65
					c0.2,0.2,0.417,0.316,0.65,0.35L20.399-13.05z"/>
				<path style="fill-rule:evenodd;clip-rule:evenodd;fill:#546C1B;" d="M24.3-9.8l1.3,0.3l0.2-2.6c0-0.7-0.184-1.133-0.55-1.3
					s-0.667-0.083-0.9,0.25c-0.233,0.367-0.434,0.917-0.6,1.65l-0.15,1L24.3-9.8z"/>
			</g>
			<g>
				<g>
					<path style="fill-rule:evenodd;clip-rule:evenodd;fill:#445C17;" d="M19.1-15.3c0-0.5-0.1-0.917-0.3-1.25
						c-0.233-0.333-0.5-0.5-0.8-0.5c-0.3,0-0.55,0.167-0.75,0.5c-0.233,0.333-0.35,0.75-0.35,1.25c0,0.466,0.117,0.867,0.35,1.2
						c0.2,0.333,0.45,0.5,0.75,0.5c0.3,0,0.567-0.167,0.8-0.5C19-14.434,19.1-14.834,19.1-15.3z"/>
					
						<radialGradient id="SVGID_36_" cx="17.7495" cy="-15.3506" r="1.1" gradientTransform="matrix(1 0 0 -1 0 -30.7012)" gradientUnits="userSpaceOnUse">
						<stop  offset="0" style="stop-color:#FFFEB2"/>
						<stop  offset="1" style="stop-color:#D8C156"/>
					</radialGradient>
					<path style="fill-rule:evenodd;clip-rule:evenodd;fill:url(#SVGID_36_);" d="M18.7-15.351c0-0.333-0.1-0.633-0.3-0.9
						c-0.167-0.233-0.383-0.35-0.65-0.35c-0.233,0-0.45,0.117-0.65,0.35c-0.167,0.233-0.25,0.534-0.25,0.9
						c0,0.367,0.083,0.684,0.25,0.95c0.167,0.233,0.383,0.35,0.65,0.35c0.267,0,0.483-0.117,0.65-0.35
						C18.6-14.667,18.7-14.984,18.7-15.351z"/>
				</g>
				<g>
					<path style="fill-rule:evenodd;clip-rule:evenodd;fill:#445C17;" d="M25.55-11.45c0-0.467-0.067-0.85-0.2-1.15
						c-0.133-0.333-0.3-0.5-0.5-0.5s-0.367,0.167-0.5,0.5c-0.167,0.333-0.25,0.717-0.25,1.15c0,0.433,0.083,0.816,0.25,1.15
						c0.133,0.3,0.3,0.45,0.5,0.45C25.316-9.851,25.55-10.384,25.55-11.45z"/>
					
						<radialGradient id="SVGID_37_" cx="24.6997" cy="-11.4502" r="0.9373" gradientTransform="matrix(1 0 0 -1 0 -22.9004)" gradientUnits="userSpaceOnUse">
						<stop  offset="0" style="stop-color:#FFFEB2"/>
						<stop  offset="1" style="stop-color:#D8C156"/>
					</radialGradient>
					<path style="fill-rule:evenodd;clip-rule:evenodd;fill:url(#SVGID_37_);" d="M25.3-11.45c0-0.333-0.067-0.617-0.2-0.85
						c-0.1-0.233-0.233-0.35-0.4-0.35c-0.4,0-0.6,0.4-0.6,1.2c0,0.8,0.2,1.2,0.6,1.2c0.167,0,0.3-0.117,0.4-0.35
						C25.233-10.834,25.3-11.117,25.3-11.45z"/>
				</g>
			</g>
			<g>
				<linearGradient id="SVGID_38_" gradientUnits="userSpaceOnUse" x1="16.312" y1="-12.4497" x2="20.987" y2="-12.4497">
					<stop  offset="0" style="stop-color:#7AA41C"/>
					<stop  offset="1" style="stop-color:#485F14"/>
				</linearGradient>
				<path style="fill-rule:evenodd;clip-rule:evenodd;fill:url(#SVGID_38_);" d="M16.6-14.9c-0.1,0-0.184,0.316-0.25,0.95
					c-0.1,0.667-0.1,1.3,0,1.9c0.1,0.633,0.3,1.1,0.6,1.4c0.267,0.3,0.7,0.5,1.3,0.6c1.067,0.2,1.833-0.184,2.3-1.15
					c0.3-0.567,0.45-1.15,0.45-1.75c0-0.1-0.117-0.217-0.35-0.35c-0.4-0.233-0.816-0.467-1.25-0.7
					C18.399-14.601,17.466-14.9,16.6-14.9z"/>
				<linearGradient id="SVGID_39_" gradientUnits="userSpaceOnUse" x1="23.2871" y1="-9.1753" x2="25.7121" y2="-9.1753">
					<stop  offset="0" style="stop-color:#7AA41C"/>
					<stop  offset="1" style="stop-color:#485F14"/>
				</linearGradient>
				<path style="fill-rule:evenodd;clip-rule:evenodd;fill:url(#SVGID_39_);" d="M24.399-7.2c0.934,0.267,1.367-0.534,1.3-2.4
					c-0.034-0.333-0.083-0.55-0.15-0.65c-0.1-0.133-0.35-0.3-0.75-0.5c-0.767-0.3-1.217-0.45-1.35-0.45
					c-0.067,0-0.117,0.267-0.15,0.8c-0.033,0.566-0.033,1.1,0,1.6C23.433-7.867,23.8-7.334,24.399-7.2z"/>
			</g>
			<g>
				<path style="fill-rule:evenodd;clip-rule:evenodd;fill:#B5DA62;" d="M24.7-3.05c-0.067-0.4-1.433-1.333-4.1-2.8
					c-2.7-1.5-4.083-2.417-4.15-2.75c-0.1-0.366-0.1-4.517,0-12.45c-0.067-1.7-0.3-2.75-0.7-3.15l0.2,0.6
					c0.067,0.3,0.083,2.3,0.05,6c-0.033,3.667-0.083,6.034-0.15,7.1c-0.066,1.167-0.117,1.8-0.15,1.9
					c-0.067,0.2-0.25,0.333-0.55,0.4c-0.366,0.1-3.217,0.417-8.55,0.95C5.8-7.184,4.55-7,2.85-6.7l-2.3,0.45l7.6-0.8
					C9.517-7.217,11.133-7.367,13-7.5c1.8-0.133,2.85-0.167,3.15-0.1c0.3,0.034,1.6,0.65,3.9,1.85
					C21.483-4.984,23.033-4.084,24.7-3.05z"/>
				<path style="fill-rule:evenodd;clip-rule:evenodd;fill:#747F8C;" d="M16-18.101h0.45v-2.95c-0.067-1.7-0.3-2.75-0.7-3.15
					l0.2,0.6C16.05-23.067,16.066-21.234,16-18.101z"/>
			</g>
		</g>
	</g>
</symbol>
<symbol  id="cubimal_x5F_mc" viewBox="-0.487 -26.564 31.886 28.313">
	<g id="Layer_5_1_">
	</g>
	<g id="Layer_4_2_">
	</g>
	<g id="Layer_2_copy_2_">
	</g>
	<g id="Layer_2_2_">
	</g>
	<g id="Layer_1_9_">
		
			<use xlink:href="#cubimal_x5F_scene1"  width="31.886" height="28.313" x="-0.087" y="-26.614" transform="matrix(1 0 0 1 -0.3999 0.0498)" style="overflow:visible;"/>
	</g>
	<g id="Layer_6_1_">
	</g>
</symbol>
<symbol  id="cubimal_x5F_scene1" viewBox="-0.087 -26.614 31.886 28.313">
	<g id="Layer_1_8_">
		
			<use xlink:href="#winder_x5F_static"  width="10.185" height="8.474" x="0.015" y="-8.472" transform="matrix(1 0 0 1 0 -7.9502)" style="overflow:visible;"/>
		
			<use xlink:href="#cubimal_1_"  width="31.886" height="28.313" x="-6.087" y="-26.614" transform="matrix(1 0 0 1 6 0)" style="overflow:visible;"/>
	</g>
</symbol>
<symbol  id="winder_x5F_static" viewBox="0.015 -8.472 10.185 8.474">
	<g id="Layer_4_1_">
		
			<use xlink:href="#winderedge"  width="4.537" height="8.127" x="0.015" y="-8.126" transform="matrix(1 0 0 1 0.7002 0)" style="overflow:visible;"/>
	</g>
	<g id="Layer_3_1_">
		
			<use xlink:href="#winderfacehighlight"  width="4.573" height="8.174" x="0.016" y="-8.173" transform="matrix(1 0 0 1 0.2002 -0.2002)" style="overflow:visible;"/>
	</g>
	<g id="Layer_2_copy_1_">
		
			<use xlink:href="#winderface1a"  width="4.573" height="8.174" x="0.015" y="-8.172" transform="matrix(1 0 0 1 0 -0.2998)" style="overflow:visible;"/>
	</g>
	<g id="Layer_1_7_">
		<g>
			
				<linearGradient id="SVGID_40_" gradientUnits="userSpaceOnUse" x1="1517.7222" y1="-17620.6016" x2="1519.0415" y2="-17620.6016" gradientTransform="matrix(-0.1705 -0.9854 0.9854 -0.1705 17628.7266 -1514.3062)">
				<stop  offset="0" style="stop-color:#8F8F8F"/>
				<stop  offset="0.2275" style="stop-color:#E8E8E8"/>
				<stop  offset="1" style="stop-color:#696969"/>
			</linearGradient>
			<path style="fill-rule:evenodd;clip-rule:evenodd;fill:url(#SVGID_40_);" d="M10.2-6.3L4.8-5.5C4.5-5.533,4.351-5.366,4.351-5
				c0,0.233,0.083,0.4,0.25,0.5c0.066,0.066,0.133,0.1,0.2,0.1l5.4-0.8V-6.3z"/>
		</g>
	</g>
</symbol>
<symbol  id="winderedge" viewBox="0.015 -8.126 4.537 8.127">
	<g id="Layer_1_4_">
		<g>
			
				<linearGradient id="SVGID_41_" gradientUnits="userSpaceOnUse" x1="8.2109" y1="-16350.5195" x2="15.0359" y2="-16350.5195" gradientTransform="matrix(1.465202e-004 -1 1 -0.001 16352.8027 -8.1768)">
				<stop  offset="0" style="stop-color:#8F8F8F"/>
				<stop  offset="0.2275" style="stop-color:#E8E8E8"/>
				<stop  offset="1" style="stop-color:#696969"/>
			</linearGradient>
			<path style="fill-rule:evenodd;clip-rule:evenodd;fill:url(#SVGID_41_);" d="M3.5-5.899c0.066,0.6-0.083,0.983-0.45,1.15L2.6-4.7
				C2.367-4.7,2.167-4.733,2-4.8c-0.533-0.167-0.833-0.533-0.9-1.1c-0.034-0.5,0.1-0.85,0.4-1.05c0.434-0.233,0.867-0.233,1.3,0
				C3.2-6.716,3.434-6.366,3.5-5.899z M0.05-1.25c0.1,0.8,0.5,1.216,1.2,1.25c1.367,0.033,2.333-0.633,2.9-2
				c0.5-1.233,0.534-2.05,0.1-2.45c0.434-0.533,0.4-1.333-0.1-2.4c-0.567-1.167-1.533-1.533-2.9-1.1c-0.7,0.233-1.1,0.767-1.2,1.6
				c-0.133,0.867,0.117,1.533,0.75,2L1.25-4L0.8-3.55C0.167-2.85-0.083-2.083,0.05-1.25z M3.5-2.75C3.434-2.25,3.2-1.833,2.8-1.5
				C2.367-1.1,1.934-0.966,1.5-1.1c-0.3-0.133-0.434-0.467-0.4-1C1.167-2.666,1.467-3.116,2-3.45l0.6-0.3L3.05-3.8
				C3.417-3.766,3.566-3.416,3.5-2.75z"/>
		</g>
	</g>
</symbol>
<symbol  id="winderface1a" viewBox="0.015 -8.172 4.573 8.174">
	<g id="Layer_1_2_">
		
			<linearGradient id="SVGID_42_" gradientUnits="userSpaceOnUse" x1="-1920.0898" y1="-13814.7617" x2="-1910.9176" y2="-13814.7617" gradientTransform="matrix(0.2726 -0.9621 0.9621 0.2726 13815.6797 1919.1348)">
			<stop  offset="0" style="stop-color:#E8E8E8"/>
			<stop  offset="1" style="stop-color:#878787"/>
		</linearGradient>
		<path style="fill-rule:evenodd;clip-rule:evenodd;fill:url(#SVGID_42_);" d="M2.05-4.8c-0.566-0.133-0.867-0.483-0.9-1.05
			c-0.033-0.533,0.1-0.9,0.4-1.1c0.4-0.267,0.817-0.267,1.25,0C3.2-6.717,3.433-6.367,3.5-5.9c0.133,0.633,0,1-0.4,1.1L2.65-4.7
			L2.05-4.8z M0.05-1.25C0.183-0.45,0.6-0.033,1.3,0c1.367,0.033,2.333-0.633,2.9-2c0.5-1.233,0.517-2.05,0.05-2.45
			c0.467-0.5,0.45-1.3-0.05-2.4C3.633-8.05,2.667-8.433,1.3-8C0.6-7.733,0.183-7.183,0.05-6.35c-0.133,0.867,0.117,1.533,0.75,2
			L1.3-4L0.8-3.55C0.167-2.85-0.083-2.083,0.05-1.25z M3.5-2.75C3.433-2.25,3.2-1.833,2.8-1.5C2.367-1.1,1.95-0.967,1.55-1.1
			c-0.3-0.133-0.433-0.467-0.4-1c0.033-0.6,0.333-1.05,0.9-1.35l0.6-0.3L3.1-3.8C3.467-3.767,3.6-3.417,3.5-2.75z"/>
	</g>
</symbol>
<symbol  id="winderfacehighlight" viewBox="0.016 -8.173 4.573 8.174">
	<g id="Layer_1_3_">
		
			<linearGradient id="SVGID_43_" gradientUnits="userSpaceOnUse" x1="-1920.0889" y1="-13814.7617" x2="-1910.9166" y2="-13814.7617" gradientTransform="matrix(0.2726 -0.9621 0.9621 0.2726 13815.6797 1919.1348)">
			<stop  offset="0" style="stop-color:#E8E8E8"/>
			<stop  offset="1" style="stop-color:#EDEDED"/>
		</linearGradient>
		<path style="fill-rule:evenodd;clip-rule:evenodd;fill:url(#SVGID_43_);" d="M2.05-4.8c-0.567-0.133-0.867-0.483-0.9-1.05
			c-0.033-0.533,0.1-0.9,0.4-1.1c0.4-0.267,0.817-0.267,1.25,0C3.2-6.717,3.434-6.367,3.5-5.9c0.1,0.6-0.034,0.967-0.4,1.1L2.65-4.7
			L2.05-4.8z M0.05-1.25C0.184-0.45,0.601-0.034,1.3,0c1.367,0.034,2.333-0.633,2.9-2c0.5-1.233,0.517-2.05,0.05-2.45
			c0.466-0.5,0.45-1.3-0.05-2.4C3.634-8.05,2.667-8.434,1.3-8c-0.7,0.267-1.117,0.817-1.25,1.65c-0.133,0.867,0.117,1.534,0.75,2
			L1.3-4L0.8-3.55C0.167-2.851-0.083-2.084,0.05-1.25z M1.55-1.101c-0.3-0.133-0.433-0.466-0.4-1c0.033-0.6,0.333-1.05,0.9-1.35
			l0.6-0.3l0.45-0.05c0.366,0.033,0.5,0.383,0.4,1.05C3.434-2.25,3.2-1.834,2.8-1.5C2.367-1.101,1.95-0.967,1.55-1.101z"/>
	</g>
</symbol>
<use xlink:href="#cubimal_x5F_mc"  width="31.886" height="28.313" id="cubimal" x="-0.487" y="-26.564" transform="matrix(1 0 0 -1 0.5 1.75)" style="overflow:visible;"/>
</svg>
