<?xml version="1.0" encoding="iso-8859-1"?>
<!-- Generator: Adobe Illustrator 15.1.0, SVG Export Plug-In . SVG Version: 6.00 Build 0)  -->
<!DOCTYPE svg PUBLIC "-//W3C//DTD SVG 1.1//EN" "http://www.w3.org/Graphics/SVG/1.1/DTD/svg11.dtd">
<svg version="1.1" id="flash0.ai" xmlns="http://www.w3.org/2000/svg" xmlns:xlink="http://www.w3.org/1999/xlink" x="0px" y="0px"
	 width="32.1px" height="38.9px" viewBox="0 0 32.1 38.9" style="enable-background:new 0 0 32.1 38.9;" xml:space="preserve">
<symbol  id="cubimal_1_" viewBox="-5.875 -26.713 31.982 38.926">
	<g id="Layer_1_5_">
		<g>
			<g>
				
					<linearGradient id="SVGID_1_" gradientUnits="userSpaceOnUse" x1="359.7754" y1="319.04" x2="361.527" y2="319.04" gradientTransform="matrix(0.9991 0.0428 -0.0428 0.9991 -342.4082 -357.5737)">
					<stop  offset="0" style="stop-color:#665958"/>
					<stop  offset="1" style="stop-color:#423838"/>
				</linearGradient>
				<path style="fill-rule:evenodd;clip-rule:evenodd;fill:url(#SVGID_1_);" d="M2.35-21.1l4.7-0.35c-0.4-1.5-0.684-2.45-0.85-2.85
					c-0.4-1.034-0.817-1.5-1.25-1.4C4.116-25.5,3.25-23.967,2.35-21.1z"/>
				
					<linearGradient id="SVGID_2_" gradientUnits="userSpaceOnUse" x1="369.0737" y1="317.6406" x2="370.8253" y2="317.6406" gradientTransform="matrix(0.9991 0.0428 -0.0428 0.9991 -342.4082 -357.5737)">
					<stop  offset="0" style="stop-color:#665958"/>
					<stop  offset="1" style="stop-color:#423838"/>
				</linearGradient>
				<path style="fill-rule:evenodd;clip-rule:evenodd;fill:url(#SVGID_2_);" d="M11.7-22.1l4.65-0.35
					c-0.333-1.366-0.6-2.316-0.8-2.85c-0.4-1.034-0.817-1.5-1.25-1.4C13.466-26.5,12.6-24.967,11.7-22.1z"/>
				
					<linearGradient id="SVGID_3_" gradientUnits="userSpaceOnUse" x1="376.8794" y1="321.1602" x2="378.631" y2="321.1602" gradientTransform="matrix(0.9991 0.0428 -0.0428 0.9991 -342.4082 -357.5737)">
					<stop  offset="0" style="stop-color:#665958"/>
					<stop  offset="1" style="stop-color:#423838"/>
				</linearGradient>
				<path style="fill-rule:evenodd;clip-rule:evenodd;fill:url(#SVGID_3_);" d="M19.35-18.25l4.7-0.35
					c-0.4-1.5-0.684-2.45-0.85-2.85c-0.4-1.033-0.817-1.5-1.25-1.4C21.116-22.65,20.25-21.117,19.35-18.25z"/>
			</g>
			<g>
				
					<linearGradient id="SVGID_4_" gradientUnits="userSpaceOnUse" x1="-2102.6211" y1="-13438.3418" x2="-2083.4727" y2="-13438.3418" gradientTransform="matrix(0.3068 -0.9518 0.9518 0.3068 13445.3711 2116.9404)">
					<stop  offset="0" style="stop-color:#665958"/>
					<stop  offset="1" style="stop-color:#423838"/>
				</linearGradient>
				<path style="fill-rule:evenodd;clip-rule:evenodd;fill:url(#SVGID_4_);" d="M21.75-2.35c1.867,0,2.983-0.683,3.35-2.05
					c0.167-0.534,0.25-4.383,0.25-11.55v-1.45c-0.033-0.5-0.184-0.95-0.45-1.35c-0.267-0.434-1.167-1.184-2.7-2.25
					c-1.367-0.967-2.35-1.6-2.95-1.9c-0.7-0.4-1.45-0.733-2.25-1c-0.7-0.267-1.216-0.4-1.55-0.4c-2.433,0.3-4.284,0.45-5.55,0.45
					c-0.767,0.034-2.217,0.2-4.35,0.5c-2.134,0.3-3.4,0.483-3.8,0.55c-0.667,0.133-1.133,0.433-1.4,0.9
					c-0.333,0.667-0.517,2.017-0.55,4.05c-0.167,3.233-0.25,5.6-0.25,7.1C-0.417-8.083-0.034-6.5,0.7-6
					c0.966,0.667,2.5,1.566,4.6,2.7c2.533,1.4,4.167,2.116,4.9,2.15C11.1-1.117,13.033-1.3,16-1.7
					C19.1-2.133,21.017-2.35,21.75-2.35z"/>
				
					<linearGradient id="SVGID_5_" gradientUnits="userSpaceOnUse" x1="-2365.5537" y1="-12873.4746" x2="-2348.5559" y2="-12873.4746" gradientTransform="matrix(0.3574 -0.934 0.934 0.3574 12886.1289 2384.667)">
					<stop  offset="0" style="stop-color:#554A49"/>
					<stop  offset="1" style="stop-color:#3C3333"/>
				</linearGradient>
				<path style="fill-rule:evenodd;clip-rule:evenodd;fill:url(#SVGID_5_);" d="M25.1-4.4c0.066-0.2,0.133-1.067,0.2-2.6
					c0.033-1.066,0.05-4.05,0.05-8.95v-1.45c-0.033-0.5-0.184-0.95-0.45-1.35c-0.267-0.434-1.167-1.184-2.7-2.25
					c-1.367-0.967-2.35-1.6-2.95-1.9c-0.3-0.167-0.933-0.434-1.9-0.8c-0.967-0.366-1.6-0.566-1.9-0.6
					c0.333,0.667,0.483,1.383,0.45,2.15l-0.1,14l0.1,0.15c0.167,0.167,1.083,0.667,2.75,1.5c1.8,0.867,2.967,1.483,3.5,1.85
					c1.4,0.9,2.15,1.4,2.25,1.5C24.767-3.517,25-3.934,25.1-4.4z"/>
				<path style="fill-rule:evenodd;clip-rule:evenodd;fill:#725C5D;" d="M22.899-4.35c-0.5-0.3-1.8-0.966-3.9-2
					c-1.867-0.9-2.9-1.45-3.1-1.65c-0.866,0.066-3.767,0.367-8.7,0.9c-3.733,0.4-6.067,0.567-7,0.5C0.366-6.333,0.533-6.133,0.7-6
					c0.966,0.667,2.5,1.566,4.6,2.7c2.533,1.4,4.167,2.116,4.9,2.15c2.267,0.1,6.117-0.3,11.55-1.2c1.433-0.2,2.317-0.466,2.65-0.8
					C23.966-3.583,23.466-3.983,22.899-4.35z"/>
			</g>
			<g>
				
					<radialGradient id="SVGID_6_" cx="16.3994" cy="-3.1001" r="4.975" gradientTransform="matrix(1 0 0 -0.3467 0 -4.1748)" gradientUnits="userSpaceOnUse">
					<stop  offset="0.2157" style="stop-color:#000000;stop-opacity:0.3765"/>
					<stop  offset="0.8667" style="stop-color:#000000;stop-opacity:0"/>
				</radialGradient>
				<path style="fill-rule:evenodd;clip-rule:evenodd;fill:url(#SVGID_6_);" d="M21.35-3.1c0-0.5-0.483-0.917-1.45-1.25
					c-0.933-0.333-2.1-0.5-3.5-0.5c-1.4,0-2.583,0.167-3.55,0.5s-1.45,0.75-1.45,1.25c0,0.467,0.483,0.867,1.45,1.2
					c1,0.333,2.184,0.5,3.55,0.5c1.367,0,2.533-0.167,3.5-0.5S21.35-2.633,21.35-3.1z"/>
				
					<radialGradient id="SVGID_7_" cx="9.0498" cy="-6.4502" r="4.975" gradientTransform="matrix(1 0 0 -0.3467 0 -8.6865)" gradientUnits="userSpaceOnUse">
					<stop  offset="0.2157" style="stop-color:#000000;stop-opacity:0.3765"/>
					<stop  offset="0.8667" style="stop-color:#000000;stop-opacity:0"/>
				</radialGradient>
				<path style="fill-rule:evenodd;clip-rule:evenodd;fill:url(#SVGID_7_);" d="M14.05-6.45c0-0.466-0.483-0.883-1.45-1.25
					c-1-0.333-2.184-0.5-3.55-0.5c-1.367,0-2.533,0.167-3.5,0.5C4.583-7.333,4.1-6.917,4.1-6.45c0,0.467,0.483,0.884,1.45,1.25
					c0.967,0.333,2.133,0.5,3.5,0.5c1.366,0,2.55-0.167,3.55-0.5C13.566-5.566,14.05-5.983,14.05-6.45z"/>
			</g>
			<g>
				<g>
					
						<linearGradient id="SVGID_8_" gradientUnits="userSpaceOnUse" x1="266.083" y1="-16602.6699" x2="284.168" y2="-16602.6699" gradientTransform="matrix(-0.0329 -0.9995 0.9995 -0.0329 16612.8887 -269.6299)">
						<stop  offset="0" style="stop-color:#AD978F"/>
						<stop  offset="1" style="stop-color:#8D7770"/>
					</linearGradient>
					<path style="fill-rule:evenodd;clip-rule:evenodd;fill:url(#SVGID_8_);" d="M17.45-2.65l-0.15-0.2c0-0.267-0.733-0.167-2.2,0.3
						l-7.6,2.1L7.1-0.3L3.7,1.45c0.233-0.1,0.4,0.1,0.5,0.6c0.1,0.634-0.133,1.167-0.7,1.6L2.649,4.1L3.3,4.25
						c0.5,0.233,0.933,0.6,1.3,1.1C5.1,6.083,5.3,6.867,5.2,7.7l-0.35,1l0.8-0.15c0.667-0.066,1.367,0.017,2.1,0.25
						c1.034,0.333,1.7,0.95,2,1.85l0.1,1.3l2.2-1.7c1.7-1.533,3.083-3.383,4.15-5.55c0.633-1.267,1.05-2.85,1.25-4.75
						C17.649-1.783,17.649-2.65,17.45-2.65z"/>
					
						<linearGradient id="SVGID_9_" gradientUnits="userSpaceOnUse" x1="256.5381" y1="-16599.8281" x2="294.4079" y2="-16599.8281" gradientTransform="matrix(-0.0324 -0.9995 0.9995 -0.0324 16608.8125 -265.2788)">
						<stop  offset="0" style="stop-color:#665958"/>
						<stop  offset="1" style="stop-color:#423838"/>
					</linearGradient>
					<path style="fill-rule:evenodd;clip-rule:evenodd;fill:url(#SVGID_9_);" d="M11.7,10.6c1.433-1.233,2.667-2.7,3.7-4.4
						c-0.767,0.7-1.4,1.133-1.9,1.3c-0.567,0.2-1.2,0.15-1.9-0.15c-0.633-0.3-0.867-0.833-0.7-1.6c0.1-0.367,0.25-0.717,0.45-1.05
						l-0.4,0.2c-0.3,0.133-0.7,0.15-1.2,0.05c-0.633-0.134-1.067-0.434-1.3-0.9c-0.2-0.433-0.25-0.9-0.15-1.4
						c0.033-0.233,0.083-0.433,0.15-0.6c-1.167,0.034-1.933-0.033-2.3-0.2c-0.633-0.3-0.883-0.733-0.75-1.3l-1.7,0.9
						c0.233-0.1,0.4,0.1,0.5,0.6c0.1,0.634-0.133,1.167-0.7,1.6L2.649,4.1L3.3,4.25c0.5,0.233,0.933,0.6,1.3,1.1
						C5.1,6.083,5.3,6.867,5.2,7.7l-0.35,1l0.8-0.15c0.667-0.066,1.367,0.017,2.1,0.25c1.034,0.333,1.7,0.95,2,1.85l0.1,1.3
						L11.7,10.6z"/>
					
						<linearGradient id="SVGID_10_" gradientUnits="userSpaceOnUse" x1="268.8906" y1="-16604.3262" x2="274.3934" y2="-16604.3262" gradientTransform="matrix(-0.0331 -0.9995 0.9995 -0.0331 16614.4023 -271.2446)">
						<stop  offset="0" style="stop-color:#AD978F"/>
						<stop  offset="1" style="stop-color:#8D7770"/>
					</linearGradient>
					<path style="fill-rule:evenodd;clip-rule:evenodd;fill:url(#SVGID_10_);" d="M10.6,9.45c0.3-0.1,0.483-0.3,0.55-0.6
						C11.183,8.55,11.133,8.3,11,8.1c-0.1-0.2-0.35-0.284-0.75-0.25c-0.4,0.033-0.683,0.167-0.85,0.4
						c-0.167,0.267-0.1,0.566,0.2,0.9S10.233,9.583,10.6,9.45z"/>
					
						<linearGradient id="SVGID_11_" gradientUnits="userSpaceOnUse" x1="266.6279" y1="-16602.2969" x2="272.6313" y2="-16602.2969" gradientTransform="matrix(-0.0325 -0.9995 0.9995 -0.0325 16609.0859 -265.5698)">
						<stop  offset="0" style="stop-color:#AD978F"/>
						<stop  offset="1" style="stop-color:#8D7770"/>
					</linearGradient>
					<path style="fill-rule:evenodd;clip-rule:evenodd;fill:url(#SVGID_11_);" d="M7.1,6.1c0.633-0.167,0.816-0.6,0.55-1.3
						c-0.167-0.4-0.5-0.55-1-0.45C6.183,4.45,5.933,4.667,5.899,5C5.866,5.3,5.983,5.583,6.25,5.85C6.517,6.117,6.8,6.2,7.1,6.1z"/>
					
						<linearGradient id="SVGID_12_" gradientUnits="userSpaceOnUse" x1="291.4146" y1="-16624.7539" x2="294.1414" y2="-16624.7539" gradientTransform="matrix(-0.0357 -0.9994 0.9994 -0.0357 16634.8086 -293.0957)">
						<stop  offset="0" style="stop-color:#463E3D"/>
						<stop  offset="1" style="stop-color:#302929"/>
					</linearGradient>
					<path style="fill-rule:evenodd;clip-rule:evenodd;fill:url(#SVGID_12_);" d="M10.1,8.3c-0.267,0.1-0.333,0.267-0.2,0.5
						c0.1,0.267,0.233,0.384,0.4,0.35c0.267-0.066,0.366-0.233,0.3-0.5C10.533,8.35,10.366,8.233,10.1,8.3z"/>
					
						<linearGradient id="SVGID_13_" gradientUnits="userSpaceOnUse" x1="274.8535" y1="-16609.1543" x2="277.7802" y2="-16609.1543" gradientTransform="matrix(-0.0333 -0.9994 0.9994 -0.0333 16616.0098 -272.9619)">
						<stop  offset="0" style="stop-color:#463E3D"/>
						<stop  offset="1" style="stop-color:#302929"/>
					</linearGradient>
					<path style="fill-rule:evenodd;clip-rule:evenodd;fill:url(#SVGID_13_);" d="M7.05,5.65C7.35,5.517,7.433,5.3,7.3,5
						C7.166,4.767,6.933,4.75,6.6,4.95c-0.2,0.133-0.217,0.3-0.05,0.5C6.683,5.65,6.85,5.717,7.05,5.65z"/>
					
						<linearGradient id="SVGID_14_" gradientUnits="userSpaceOnUse" x1="-1482.0498" y1="-14529.8418" x2="-1472.1213" y2="-14529.8418" gradientTransform="matrix(0.2008 -0.9796 0.9796 0.2008 14539.4189 1478.6709)">
						<stop  offset="0" style="stop-color:#000000;stop-opacity:0.349"/>
						<stop  offset="1" style="stop-color:#000000;stop-opacity:0.2471"/>
					</linearGradient>
					<path style="fill-rule:evenodd;clip-rule:evenodd;fill:url(#SVGID_14_);" d="M17.45-2.65l-0.15-0.2
						c0-0.267-0.733-0.167-2.2,0.3l-7.6,2.1L7.1-0.3L3.7,1.45c0.233-0.1,0.4,0.1,0.5,0.6c0.1,0.634-0.133,1.167-0.7,1.6L2.649,4.1
						L3.3,4.25c0.5,0.233,0.933,0.6,1.3,1.1C5.1,6.083,5.3,6.867,5.2,7.7l-0.35,1l0.8-0.15c0.667-0.066,1.367,0.017,2.1,0.25
						c1.034,0.333,1.7,0.95,2,1.85l0.1,1.3l2.2-1.7c1.7-1.533,3.083-3.383,4.15-5.55c0.633-1.267,1.05-2.85,1.25-4.75
						C17.649-1.783,17.649-2.65,17.45-2.65z"/>
					
						<linearGradient id="SVGID_15_" gradientUnits="userSpaceOnUse" x1="6300.2456" y1="-19571.9883" x2="6302.4312" y2="-19571.9883" gradientTransform="matrix(-0.5839 -0.8119 0.8119 -0.5839 19584.0957 -6305.478)">
						<stop  offset="0" style="stop-color:#332C2C"/>
						<stop  offset="1" style="stop-color:#2B2425"/>
					</linearGradient>
					<path style="fill-rule:evenodd;clip-rule:evenodd;fill:url(#SVGID_15_);" d="M13.7,9.25c1.4-1.434,2.433-2.767,3.1-4
						c0.6-1.066,1.2-2.566,1.8-4.5c0.533-1.7,0.8-2.733,0.8-3.1c0.033-0.267-0.066-0.517-0.3-0.75s-0.517-0.367-0.85-0.4
						c-0.267-0.033-0.55,0.05-0.85,0.25l-0.35,0.3v0.8c0.066,0.6,0.033,1.566-0.1,2.9c-0.233,1.934-0.633,3.467-1.2,4.6
						c-0.733,1.466-1.833,2.917-3.3,4.35c-0.867,0.866-1.667,1.55-2.4,2.05c-0.233,0.167-0.367,0.283-0.4,0.35
						c-0.033,0.1,0,0.133,0.1,0.1C10.85,11.8,12.166,10.816,13.7,9.25z"/>
					
						<linearGradient id="SVGID_16_" gradientUnits="userSpaceOnUse" x1="464.5264" y1="-16775.2422" x2="465.8535" y2="-16775.2422" gradientTransform="matrix(-0.055 -0.9985 0.9985 -0.055 16785.3418 -457.8701)">
						<stop  offset="0" style="stop-color:#332C2C"/>
						<stop  offset="1" style="stop-color:#2B2425"/>
					</linearGradient>
					<path style="fill-rule:evenodd;clip-rule:evenodd;fill:url(#SVGID_16_);" d="M16.149-1.95l1.05-0.2
						c0.067-0.467,0.033-0.8-0.1-1c-0.133-0.167-0.434-0.2-0.9-0.1c-0.467,0.1-1.017,0.434-1.65,1c-1.3,1.3-2.85,2.45-4.65,3.45
						c-1.533,0.9-3.616,1.75-6.25,2.55c-0.8,0.167-1.133,0.283-1,0.35c0.2,0.066,1.117-0.1,2.75-0.5c1.867-0.467,3.35-1,4.45-1.6
						C13.649,0.066,15.75-1.25,16.149-1.95z"/>
					
						<linearGradient id="SVGID_17_" gradientUnits="userSpaceOnUse" x1="1559.6099" y1="-17644.5176" x2="1561.4144" y2="-17644.5176" gradientTransform="matrix(-0.1754 -0.9845 0.9845 -0.1754 17655.7012 -1556.5762)">
						<stop  offset="0" style="stop-color:#332C2C"/>
						<stop  offset="1" style="stop-color:#2B2425"/>
					</linearGradient>
					<path style="fill-rule:evenodd;clip-rule:evenodd;fill:url(#SVGID_17_);" d="M13.35,3.55c2.2-1.933,3.483-3.3,3.85-4.1
						c0.433-0.9,0.6-1.6,0.5-2.1c-0.067-0.233-0.333-0.3-0.8-0.2c-0.467,0.067-0.733,0.184-0.8,0.35c-0.767,2.1-2.05,4.05-3.85,5.85
						C11.083,4.517,9.566,5.7,7.7,6.9c-1.567,1.034-2.55,1.583-2.95,1.65C4.483,8.617,4.466,8.667,4.7,8.7
						c0.233,0.033,0.433,0.017,0.6-0.05C7.899,7.65,10.583,5.95,13.35,3.55z"/>
				</g>
			</g>
			<g>
				<g>
					
						<linearGradient id="SVGID_18_" gradientUnits="userSpaceOnUse" x1="-1076.9199" y1="-15108.8652" x2="-1055.8588" y2="-15108.8652" gradientTransform="matrix(0.1413 -0.99 0.99 0.1413 15111.1582 1076.3574)">
						<stop  offset="0" style="stop-color:#AD978F"/>
						<stop  offset="1" style="stop-color:#8D7770"/>
					</linearGradient>
					<path style="fill-rule:evenodd;clip-rule:evenodd;fill:url(#SVGID_18_);" d="M12.5-6.15L12.35-6.4
						c0.033-0.267-0.833-0.284-2.6-0.05L0.6-5.65l-4.7,1.35c0.3-0.067,0.45,0.183,0.45,0.75c0,0.7-0.367,1.216-1.1,1.55l-1.1,0.35
						c0.867,0.167,1.533,0.75,2,1.75c0.434,0.867,0.5,1.75,0.2,2.65l-0.6,1.05l0.95-0.05c0.8,0.066,1.6,0.3,2.4,0.7
						c1.1,0.533,1.717,1.333,1.85,2.4L0.85,8.3L3.7,6.9c2.233-1.4,4.2-3.167,5.9-5.3c0.967-1.233,1.767-2.867,2.4-4.9
						C12.566-5.133,12.733-6.083,12.5-6.15z"/>
					
						<linearGradient id="SVGID_19_" gradientUnits="userSpaceOnUse" x1="-1083.8271" y1="-15109.5381" x2="-1039.785" y2="-15109.5381" gradientTransform="matrix(0.1413 -0.99 0.99 0.1413 15110.3486 1076.9648)">
						<stop  offset="0" style="stop-color:#665958"/>
						<stop  offset="1" style="stop-color:#423838"/>
					</linearGradient>
					<path style="fill-rule:evenodd;clip-rule:evenodd;fill:url(#SVGID_19_);" d="M0.95,6.85L0.85,8.3L3.2,7.15
						c1.9-1.066,3.617-2.433,5.15-4.1c-1.033,0.634-1.85,1-2.45,1.1C5.2,4.25,4.5,4.066,3.8,3.6C3.1,3.133,2.916,2.5,3.25,1.7
						C3.45,1.3,3.7,0.95,4,0.65L3.5,0.8C3.166,0.934,2.7,0.883,2.1,0.65c-0.7-0.233-1.117-0.633-1.25-1.2
						c-0.233-0.833-0.1-1.567,0.4-2.2C-0.117-2.95-1-3.184-1.4-3.45c-0.667-0.433-0.85-0.933-0.55-1.5l-2.15,0.65
						c0.3-0.067,0.45,0.183,0.45,0.75c0,0.7-0.367,1.216-1.1,1.55l-1.1,0.35c0.867,0.167,1.533,0.75,2,1.75
						c0.434,0.867,0.5,1.75,0.2,2.65l-0.6,1.05l0.95-0.05c0.8,0.066,1.6,0.3,2.4,0.7C0.2,4.983,0.816,5.783,0.95,6.85z"/>
					
						<linearGradient id="SVGID_20_" gradientUnits="userSpaceOnUse" x1="-1072.5449" y1="-15112.6484" x2="-1066.1563" y2="-15112.6484" gradientTransform="matrix(0.1409 -0.99 0.99 0.1409 15114.7236 1073.6826)">
						<stop  offset="0" style="stop-color:#AD978F"/>
						<stop  offset="1" style="stop-color:#8D7770"/>
					</linearGradient>
					<path style="fill-rule:evenodd;clip-rule:evenodd;fill:url(#SVGID_20_);" d="M2.2,5.7c0.367-0.034,0.617-0.233,0.75-0.6
						c0.1-0.267,0.1-0.55,0-0.85c-0.1-0.233-0.383-0.367-0.85-0.4c-0.434-0.034-0.767,0.066-1,0.3c-0.267,0.267-0.267,0.6,0,1
						S1.733,5.733,2.2,5.7z"/>
					
						<linearGradient id="SVGID_21_" gradientUnits="userSpaceOnUse" x1="-1062.0986" y1="-15125.4131" x2="-1055.1301" y2="-15125.4131" gradientTransform="matrix(0.1399 -0.9902 0.9902 0.1399 15123.6768 1066.957)">
						<stop  offset="0" style="stop-color:#AD978F"/>
						<stop  offset="1" style="stop-color:#8D7770"/>
					</linearGradient>
					<path style="fill-rule:evenodd;clip-rule:evenodd;fill:url(#SVGID_21_);" d="M-1.15,1.4c0.767-0.133,1.066-0.583,0.9-1.35
						c-0.1-0.466-0.433-0.683-1-0.65c-0.6,0-0.95,0.184-1.05,0.55c-0.1,0.333-0.034,0.667,0.2,1C-1.834,1.283-1.517,1.434-1.15,1.4z
						"/>
					
						<linearGradient id="SVGID_22_" gradientUnits="userSpaceOnUse" x1="-1075.5439" y1="-15107.5586" x2="-1072.3619" y2="-15107.5586" gradientTransform="matrix(0.1414 -0.9899 0.9899 0.1414 15109.6064 1077.5215)">
						<stop  offset="0" style="stop-color:#463E3D"/>
						<stop  offset="1" style="stop-color:#302929"/>
					</linearGradient>
					<path style="fill-rule:evenodd;clip-rule:evenodd;fill:url(#SVGID_22_);" d="M1.899,5.25c0.333,0,0.483-0.167,0.45-0.5
						s-0.2-0.467-0.5-0.4c-0.3,0.033-0.417,0.2-0.35,0.5C1.566,5.117,1.7,5.25,1.899,5.25z"/>
					
						<linearGradient id="SVGID_23_" gradientUnits="userSpaceOnUse" x1="-1057.2246" y1="-15130.4375" x2="-1053.8164" y2="-15130.4375" gradientTransform="matrix(0.1394 -0.9902 0.9902 0.1394 15128.7813 1063.1172)">
						<stop  offset="0" style="stop-color:#463E3D"/>
						<stop  offset="1" style="stop-color:#302929"/>
					</linearGradient>
					<path style="fill-rule:evenodd;clip-rule:evenodd;fill:url(#SVGID_23_);" d="M-1.15,0.85c0.367-0.067,0.517-0.267,0.45-0.6
						C-0.8-0.083-1.05-0.167-1.45,0c-0.267,0.133-0.333,0.316-0.2,0.55C-1.517,0.816-1.351,0.917-1.15,0.85z"/>
					
						<linearGradient id="SVGID_24_" gradientUnits="userSpaceOnUse" x1="-2438.1729" y1="-12768.8701" x2="-2426.6133" y2="-12768.8701" gradientTransform="matrix(0.3677 -0.93 0.93 0.3677 12769.6582 2435.8672)">
						<stop  offset="0" style="stop-color:#FFFFFF;stop-opacity:0.4784"/>
						<stop  offset="1" style="stop-color:#FFFFFF;stop-opacity:0"/>
					</linearGradient>
					<path style="fill-rule:evenodd;clip-rule:evenodd;fill:url(#SVGID_24_);" d="M12.5-6.15L12.35-6.4
						c0.033-0.267-0.833-0.284-2.6-0.05L0.6-5.65l-4.7,1.35c0.3-0.067,0.45,0.183,0.45,0.75c0,0.7-0.367,1.216-1.1,1.55l-1.1,0.35
						c0.867,0.167,1.533,0.75,2,1.75c0.434,0.867,0.5,1.75,0.2,2.65l-0.6,1.05l0.95-0.05c0.8,0.066,1.6,0.3,2.4,0.7
						c1.1,0.533,1.717,1.333,1.85,2.4L0.85,8.3L3.7,6.9c2.233-1.4,4.2-3.167,5.9-5.3c0.967-1.233,1.767-2.867,2.4-4.9
						C12.566-5.133,12.733-6.083,12.5-6.15z"/>
					
						<linearGradient id="SVGID_25_" gradientUnits="userSpaceOnUse" x1="4420.1182" y1="-19100.8945" x2="4422.6787" y2="-19100.8945" gradientTransform="matrix(-0.4394 -0.8983 0.8983 -0.4394 19109.3105 -4418.165)">
						<stop  offset="0" style="stop-color:#463E3D"/>
						<stop  offset="1" style="stop-color:#302929"/>
					</linearGradient>
					<path style="fill-rule:evenodd;clip-rule:evenodd;fill:url(#SVGID_25_);" d="M13.1-2.25c0.967-1.733,1.483-2.8,1.55-3.2
						c0.067-0.267,0-0.533-0.2-0.8c-0.2-0.3-0.483-0.517-0.85-0.65c-0.3-0.1-0.65-0.067-1.05,0.1L12.1-6.55L11.95-5.7
						c-0.067,0.733-0.317,1.784-0.75,3.15c-0.633,2.066-1.4,3.667-2.3,4.8c-1.833,2.3-4.433,4.233-7.8,5.8
						C0.8,8.184,0.616,8.3,0.55,8.4c-0.033,0.1,0,0.133,0.1,0.1C2.017,8.267,3.733,7.45,5.8,6.05c1.866-1.267,3.316-2.517,4.35-3.75
						C11.017,1.267,12-0.25,13.1-2.25z"/>
					
						<linearGradient id="SVGID_26_" gradientUnits="userSpaceOnUse" x1="-857.7744" y1="-15376.8477" x2="-856.2145" y2="-15376.8477" gradientTransform="matrix(0.1122 -0.9937 0.9937 0.1122 15379.1387 869.2031)">
						<stop  offset="0" style="stop-color:#463E3D"/>
						<stop  offset="1" style="stop-color:#302929"/>
					</linearGradient>
					<path style="fill-rule:evenodd;clip-rule:evenodd;fill:url(#SVGID_26_);" d="M10.85-5.6l1.25-0.05
						c0.167-0.5,0.184-0.867,0.05-1.1C12.083-6.883,11.966-6.967,11.8-7c-0.067,0-0.283,0-0.65,0c-0.5,0-1.183,0.25-2.05,0.75
						C7.133-5.05,5.116-4.1,3.05-3.4C1.883-3,0.366-2.633-1.5-2.3c-1.466,0.267-2.517,0.417-3.15,0.45
						c-0.934,0.067-1.333,0.133-1.2,0.2c0.2,0.133,1.283,0.133,3.25,0c2.233-0.133,4.05-0.417,5.45-0.85
						C7.75-4.066,10.416-5.1,10.85-5.6z"/>
					
						<linearGradient id="SVGID_27_" gradientUnits="userSpaceOnUse" x1="12.5044" y1="-16340.0879" x2="14.6294" y2="-16340.0879" gradientTransform="matrix(4.705882e-004 -1 1 -0.001 16344.1572 -4.1729)">
						<stop  offset="0" style="stop-color:#463E3D"/>
						<stop  offset="1" style="stop-color:#302929"/>
					</linearGradient>
					<path style="fill-rule:evenodd;clip-rule:evenodd;fill:url(#SVGID_27_);" d="M11.8-3.9c0.7-0.9,1.017-1.633,0.95-2.2
						c-0.033-0.267-0.317-0.4-0.85-0.4s-0.866,0.083-1,0.25C9.6-4.083,7.75-2.2,5.35-0.6c-1.6,1.034-3.583,2.034-5.95,3
						c-1.967,0.767-3.217,1.167-3.75,1.2c-0.333,0.033-0.366,0.083-0.1,0.15S-3.934,3.833-3.7,3.8c3.167-0.6,6.566-1.933,10.2-4
						C9.399-1.833,11.166-3.066,11.8-3.9z"/>
				</g>
			</g>
			<g>
				<g>
					
						<radialGradient id="SVGID_28_" cx="-1041.209" cy="-364.9561" r="3.1655" gradientTransform="matrix(0.9991 -0.0434 -0.0513 -0.3791 1040.9907 -186.5283)" gradientUnits="userSpaceOnUse">
						<stop  offset="0.2157" style="stop-color:#000000;stop-opacity:0.3765"/>
						<stop  offset="0.8667" style="stop-color:#000000;stop-opacity:0"/>
					</radialGradient>
					<path style="fill-rule:evenodd;clip-rule:evenodd;fill:url(#SVGID_28_);" d="M20.25-1.9c0.833-0.067,1.517-0.217,2.05-0.45
						c0.566-0.233,0.816-0.517,0.75-0.85C23.017-3.533,22.666-3.8,22-4c-0.667-0.233-1.433-0.316-2.3-0.25c-0.6,0-1.233,0.1-1.9,0.3
						c0.4,0.333,0.95,0.884,1.65,1.65l0.1,0.2L20.25-1.9z"/>
					<path style="fill-rule:evenodd;clip-rule:evenodd;fill:#AB9393;" d="M18.1-3.65c-0.033,0.466,0.083,1.167,0.35,2.1
						c0.367,1.133,0.783,1.683,1.25,1.65c0.7-0.034,1.233-0.767,1.6-2.2c0.133-0.333-0.033-0.633-0.5-0.9
						c-0.867-0.467-1.384-0.7-1.55-0.7L18.1-3.65z"/>
					
						<linearGradient id="SVGID_29_" gradientUnits="userSpaceOnUse" x1="-84.7832" y1="-15474.8838" x2="-81.2657" y2="-15474.8838" gradientTransform="matrix(0.0995 -0.995 1.0043 0.0066 15569.8516 17.0674)">
						<stop  offset="0" style="stop-color:#7E6E6D"/>
						<stop  offset="1" style="stop-color:#423838"/>
					</linearGradient>
					<path style="fill-rule:evenodd;clip-rule:evenodd;fill:url(#SVGID_29_);" d="M18.1-3.65c0.5,2.466,1.066,3.683,1.7,3.65
						c0.7-0.033,1.25-0.783,1.65-2.25c0.133-0.333-0.034-0.633-0.5-0.9c-0.867-0.467-1.383-0.7-1.55-0.7L18.1-3.65z"/>
					<path style="fill-rule:evenodd;clip-rule:evenodd;fill:#AB9393;" d="M19.649-3.75h-0.2c-0.067,0.233-0.05,0.767,0.05,1.6
						c0.067,0.833,0.167,1.367,0.3,1.6c0.133,0.267,0.316,0.383,0.55,0.35c0.333-0.3,0.667-0.95,1-1.95
						C21.416-2.483,21.233-2.767,20.8-3L19.649-3.75z"/>
					
						<linearGradient id="SVGID_30_" gradientUnits="userSpaceOnUse" x1="-79.8223" y1="-15447.4014" x2="-75.6754" y2="-15447.4014" gradientTransform="matrix(0.1025 -0.9947 1.0047 0.0056 15548.5928 6.8159)">
						<stop  offset="0" style="stop-color:#554A49"/>
						<stop  offset="1" style="stop-color:#3C3333"/>
					</linearGradient>
					<path style="fill-rule:evenodd;clip-rule:evenodd;fill:url(#SVGID_30_);" d="M20.95-3.15c-0.867-0.467-1.383-0.7-1.55-0.7
						c0.134,1.733,0.3,2.784,0.5,3.15c0.2,0.3,0.384,0.434,0.55,0.4c0.333-0.3,0.667-0.95,1-1.95
						C21.583-2.583,21.416-2.883,20.95-3.15z"/>
				</g>
				<g>
					
						<radialGradient id="SVGID_31_" cx="13.0996" cy="-6.25" r="3.95" gradientTransform="matrix(1 0 0 -0.3513 0 -8.4448)" gradientUnits="userSpaceOnUse">
						<stop  offset="0.2157" style="stop-color:#000000;stop-opacity:0.3765"/>
						<stop  offset="0.8667" style="stop-color:#000000;stop-opacity:0"/>
					</radialGradient>
					<path style="fill-rule:evenodd;clip-rule:evenodd;fill:url(#SVGID_31_);" d="M13.85-4.85c1.033-0.033,1.9-0.183,2.6-0.45
						c0.733-0.267,1.1-0.583,1.1-0.95s-0.384-0.7-1.15-1c-0.767-0.267-1.7-0.4-2.8-0.4c-0.767,0-1.583,0.1-2.45,0.3
						c0.467,0.4,1.05,1.05,1.75,1.95l0.15,0.3L13.85-4.85z"/>
					<path style="fill-rule:evenodd;clip-rule:evenodd;fill:#AB9393;" d="M11.5-7c-0.167,0.5-0.15,1.316,0.05,2.45
						c0.233,1.3,0.65,1.95,1.25,1.95c0.933,0,1.733-0.816,2.4-2.45c0.233-0.367,0.067-0.717-0.5-1.05C13.733-6.7,13.149-7,12.95-7
						H11.5z"/>
					
						<linearGradient id="SVGID_32_" gradientUnits="userSpaceOnUse" x1="-1071.1553" y1="-15090.2031" x2="-1066.7606" y2="-15090.2031" gradientTransform="matrix(0.1422 -0.9898 0.9898 0.1422 15102.1621 1083.0977)">
						<stop  offset="0" style="stop-color:#7E6E6D"/>
						<stop  offset="1" style="stop-color:#423838"/>
					</linearGradient>
					<path style="fill-rule:evenodd;clip-rule:evenodd;fill:url(#SVGID_32_);" d="M11.5-7c0,0.8,0.083,1.583,0.25,2.35
						c0.233,1.3,0.633,1.95,1.2,1.95c0.9,0,1.733-0.85,2.5-2.55c0.067-0.2,0.1-0.333,0.1-0.4c-0.033-0.167-0.233-0.367-0.6-0.6
						c-1.034-0.6-1.633-0.9-1.8-0.9L11.5-7z"/>
					<path style="fill-rule:evenodd;clip-rule:evenodd;fill:#AB9393;" d="M15.25-5.1c0.233-0.367,0.067-0.716-0.5-1.05l-1.35-0.9
						h-0.15l-0.1-0.05c-0.133,0.267-0.217,0.883-0.25,1.85c-0.033,1,0.017,1.633,0.15,1.9c0.167,0.333,0.383,0.483,0.65,0.45
						C14.2-3.267,14.716-4,15.25-5.1z"/>
					
						<linearGradient id="SVGID_33_" gradientUnits="userSpaceOnUse" x1="-1055.6875" y1="-15109.4443" x2="-1050.5115" y2="-15109.4443" gradientTransform="matrix(0.1401 -0.9901 0.9901 0.1401 15122.2354 1068.042)">
						<stop  offset="0" style="stop-color:#554A49"/>
						<stop  offset="1" style="stop-color:#3C3333"/>
					</linearGradient>
					<path style="fill-rule:evenodd;clip-rule:evenodd;fill:url(#SVGID_33_);" d="M14.95-6.25c-1.034-0.6-1.633-0.9-1.8-0.9
						c-0.133,2-0.116,3.216,0.05,3.65C13.366-3.167,13.583-3,13.85-3c0.5-0.4,1.033-1.15,1.6-2.25c0.067-0.2,0.1-0.333,0.1-0.4
						C15.517-5.816,15.316-6.017,14.95-6.25z"/>
				</g>
			</g>
			<g>
				
					<radialGradient id="SVGID_34_" cx="22.2495" cy="-18.3999" r="3.7125" gradientTransform="matrix(1 0 0 -1 0 -36.7998)" gradientUnits="userSpaceOnUse">
					<stop  offset="0.2157" style="stop-color:#000000;stop-opacity:0.3765"/>
					<stop  offset="0.8667" style="stop-color:#000000;stop-opacity:0"/>
				</radialGradient>
				<path style="fill-rule:evenodd;clip-rule:evenodd;fill:url(#SVGID_34_);" d="M25.35-14.5v-2.9c-0.033-0.5-0.184-0.95-0.45-1.35
					c-0.467-0.7-1.917-1.816-4.35-3.35c-1.1,0.1-1.85,0.517-2.25,1.25c-0.4,0.767-0.267,1.684,0.4,2.75
					c0.7,1.067,1.733,1.95,3.1,2.65C22.966-14.816,24.149-14.5,25.35-14.5z"/>
				
					<linearGradient id="SVGID_35_" gradientUnits="userSpaceOnUse" x1="-158.5195" y1="-16142.2813" x2="-155.1437" y2="-16142.2813" gradientTransform="matrix(0.0222 -0.9998 0.9998 0.0222 16164.3398 183.5371)">
					<stop  offset="0" style="stop-color:#7E6E6D"/>
					<stop  offset="1" style="stop-color:#423838"/>
				</linearGradient>
				<path style="fill-rule:evenodd;clip-rule:evenodd;fill:url(#SVGID_35_);" d="M22.95-13.95c0.466,0.3,1.05,0.4,1.75,0.3
					c0.7-0.1,1.083-0.317,1.15-0.65c0.233-0.867-0.283-1.8-1.55-2.8c-0.634-0.7-1.15-1.25-1.55-1.65c-0.7-0.767-1.267-1.167-1.7-1.2
					c-0.9-0.066-1.483,0.3-1.75,1.1c-0.233,0.633-0.233,1.284,0,1.95S20.75-15.25,22.95-13.95z"/>
				<path style="fill-rule:evenodd;clip-rule:evenodd;fill:#9E898B;" d="M24-14c0.433,0.267,0.833,0.333,1.2,0.2
					c0.333-0.1,0.55-0.333,0.65-0.7c0.066-0.4-0.066-1-0.4-1.8c-0.267-0.634-0.383-0.934-0.35-0.9c-1.934-1.866-3.267-2.75-4-2.65
					c-0.633,0.067-1.033,0.4-1.2,1c-0.167,0.567-0.1,1.184,0.2,1.85c0.167,0.434,0.767,0.983,1.8,1.65
					C22.433-14.983,23.133-14.533,24-14z"/>
				
					<linearGradient id="SVGID_36_" gradientUnits="userSpaceOnUse" x1="-2960.5547" y1="-11170.1807" x2="-2956.5452" y2="-11170.1807" gradientTransform="matrix(0.4988 -0.8667 0.8667 0.4988 11180.333 2990.5508)">
					<stop  offset="0" style="stop-color:#554A49"/>
					<stop  offset="1" style="stop-color:#3C3333"/>
				</linearGradient>
				<path style="fill-rule:evenodd;clip-rule:evenodd;fill:url(#SVGID_36_);" d="M23.95-14.15c0.466,0.3,0.917,0.4,1.35,0.3
					c0.4-0.066,0.633-0.267,0.7-0.6c0.267-1.333,0.034-2.283-0.7-2.85c-2.067-1.833-3.483-2.717-4.25-2.65
					c-0.567,0.067-0.884,0.434-0.95,1.1c-0.1,0.534-0.033,1.117,0.2,1.75C20.5-16.6,21.716-15.617,23.95-14.15z"/>
				<path style="fill-rule:evenodd;clip-rule:evenodd;fill:#8B7676;" d="M22.649-18c0-0.667-0.283-1.05-0.85-1.15
					c-0.5-0.1-0.783,0.167-0.85,0.8c0,0.267,0.083,0.5,0.25,0.7c0.167,0.233,0.367,0.367,0.6,0.4s0.433-0.017,0.6-0.15
					C22.566-17.566,22.649-17.767,22.649-18z"/>
				
					<linearGradient id="SVGID_37_" gradientUnits="userSpaceOnUse" x1="15858.7305" y1="-1092.1816" x2="15860.7451" y2="-1092.1816" gradientTransform="matrix(-0.124 0.9923 -1.0171 0.0748 878.1157 -15673.6875)">
					<stop  offset="0" style="stop-color:#554A49"/>
					<stop  offset="1" style="stop-color:#3C3333"/>
				</linearGradient>
				<path style="fill-rule:evenodd;clip-rule:evenodd;fill:url(#SVGID_37_);" d="M22.649-17.75c0.033-0.267-0.033-0.517-0.2-0.75
					c-0.167-0.2-0.367-0.333-0.6-0.4c-0.233-0.067-0.434-0.017-0.6,0.15S21-18.367,21-18.1s0.083,0.5,0.25,0.7
					c0.133,0.233,0.317,0.367,0.55,0.4C22.366-16.9,22.649-17.15,22.649-17.75z"/>
				
					<linearGradient id="SVGID_38_" gradientUnits="userSpaceOnUse" x1="15903.625" y1="-1158.0972" x2="15905.3398" y2="-1158.0972" gradientTransform="matrix(-0.1312 0.9914 -1.018 0.0702 929.562 -15703.5781)">
					<stop  offset="0" style="stop-color:#49403F"/>
					<stop  offset="1" style="stop-color:#272021"/>
				</linearGradient>
				<path style="fill-rule:evenodd;clip-rule:evenodd;fill:url(#SVGID_38_);" d="M22.399-17.65c0-0.567-0.233-0.883-0.7-0.95
					c-0.167-0.066-0.333-0.033-0.5,0.1c-0.133,0.133-0.2,0.316-0.2,0.55c0,0.534,0.233,0.867,0.7,1
					c0.167,0.034,0.333-0.017,0.5-0.15C22.333-17.233,22.399-17.417,22.399-17.65z"/>
				<path style="fill-rule:evenodd;clip-rule:evenodd;fill:#8B7676;" d="M25.75-15.9c0.067-0.567-0.15-0.917-0.65-1.05
					c-0.167-0.066-0.333-0.017-0.5,0.15c-0.133,0.167-0.2,0.366-0.2,0.6c0,0.567,0.217,0.917,0.65,1.05
					c0.2,0.033,0.366-0.017,0.5-0.15C25.683-15.434,25.75-15.633,25.75-15.9z"/>
				
					<linearGradient id="SVGID_39_" gradientUnits="userSpaceOnUse" x1="15840.709" y1="-1170.5776" x2="15842.6006" y2="-1170.5776" gradientTransform="matrix(-0.1322 0.9912 -1.0195 0.0796 925.4697 -15625.4121)">
					<stop  offset="0" style="stop-color:#554A49"/>
					<stop  offset="1" style="stop-color:#3C3333"/>
				</linearGradient>
				<path style="fill-rule:evenodd;clip-rule:evenodd;fill:url(#SVGID_39_);" d="M25.8-15.65c0-0.567-0.217-0.917-0.65-1.05
					c-0.2-0.066-0.366-0.017-0.5,0.15c-0.133,0.133-0.2,0.333-0.2,0.6c-0.067,0.567,0.15,0.917,0.65,1.05
					c0.2,0.033,0.367-0.017,0.5-0.15C25.733-15.184,25.8-15.383,25.8-15.65z"/>
				
					<linearGradient id="SVGID_40_" gradientUnits="userSpaceOnUse" x1="15857.5234" y1="-1095.6094" x2="15859.1357" y2="-1095.6094" gradientTransform="matrix(-0.124 0.9923 -1.0172 0.0753 877.5449 -15669.1191)">
					<stop  offset="0" style="stop-color:#49403F"/>
					<stop  offset="1" style="stop-color:#272021"/>
				</linearGradient>
				<path style="fill-rule:evenodd;clip-rule:evenodd;fill:url(#SVGID_40_);" d="M25.55-15.55c0-0.467-0.184-0.767-0.55-0.9
					c-0.367-0.066-0.55,0.15-0.55,0.65c-0.067,0.466,0.117,0.767,0.55,0.9C25.366-14.833,25.55-15.05,25.55-15.55z"/>
			</g>
			<g>
				<g>
					<path style="fill-rule:evenodd;clip-rule:evenodd;fill:#2D2525;" d="M18.85-15.4c0-0.5-0.1-0.917-0.3-1.25
						c-0.233-0.333-0.5-0.5-0.8-0.5c-0.3,0-0.55,0.167-0.75,0.5c-0.233,0.333-0.35,0.75-0.35,1.25c0,0.466,0.117,0.867,0.35,1.2
						c0.2,0.333,0.45,0.5,0.75,0.5c0.3,0,0.567-0.167,0.8-0.5C18.75-14.533,18.85-14.934,18.85-15.4z"/>
					
						<linearGradient id="SVGID_41_" gradientUnits="userSpaceOnUse" x1="515.8682" y1="-16799.1953" x2="518.8234" y2="-16799.1953" gradientTransform="matrix(-0.0592 -0.9982 0.9982 -0.0592 16817.8223 -494.2764)">
						<stop  offset="0" style="stop-color:#CCCCCC"/>
						<stop  offset="0.8588" style="stop-color:#8D7D58"/>
					</linearGradient>
					<path style="fill-rule:evenodd;clip-rule:evenodd;fill:url(#SVGID_41_);" d="M18.399-15.45c0-0.366-0.083-0.667-0.25-0.9
						c-0.167-0.233-0.383-0.35-0.65-0.35c-0.233,0-0.45,0.117-0.65,0.35c-0.167,0.233-0.25,0.534-0.25,0.9
						c0,0.367,0.083,0.684,0.25,0.95c0.167,0.233,0.383,0.35,0.65,0.35c0.267,0,0.483-0.117,0.65-0.35
						C18.316-14.767,18.399-15.083,18.399-15.45z"/>
				</g>
				<g>
					<path style="fill-rule:evenodd;clip-rule:evenodd;fill:#2D2525;" d="M25.3-11.55c0-0.434-0.067-0.817-0.2-1.15
						c-0.167-0.333-0.35-0.5-0.55-0.5c-0.2,0-0.367,0.167-0.5,0.5c-0.134,0.3-0.2,0.684-0.2,1.15c0,1.066,0.233,1.6,0.7,1.6
						c0.2,0,0.383-0.15,0.55-0.45C25.233-10.733,25.3-11.117,25.3-11.55z"/>
					
						<linearGradient id="SVGID_42_" gradientUnits="userSpaceOnUse" x1="548.7871" y1="-16825.3984" x2="551.5427" y2="-16825.3984" gradientTransform="matrix(-0.0635 -0.998 0.998 -0.0635 16850.7441 -531.4917)">
						<stop  offset="0" style="stop-color:#CCCCCC"/>
						<stop  offset="0.8588" style="stop-color:#8D7D58"/>
					</linearGradient>
					<path style="fill-rule:evenodd;clip-rule:evenodd;fill:url(#SVGID_42_);" d="M25-11.55c0-0.8-0.2-1.2-0.6-1.2
						c-0.4,0-0.6,0.4-0.6,1.2c0,0.8,0.2,1.2,0.6,1.2C24.8-10.35,25-10.75,25-11.55z"/>
				</g>
			</g>
			<g>
				<path style="fill-rule:evenodd;clip-rule:evenodd;fill:#8B7676;" d="M24.399-3.15c-0.066-0.4-1.433-1.333-4.1-2.8
					c-2.7-1.5-4.083-2.417-4.15-2.75c-0.066-0.366-0.066-4.517,0-12.45c-0.033-1.7-0.267-2.75-0.7-3.15l0.2,0.6
					c0.1,0.267,0.134,2.267,0.1,6c-0.033,3.434-0.083,5.8-0.15,7.1c-0.066,1.1-0.133,1.733-0.2,1.9c-0.066,0.2-0.25,0.333-0.55,0.4
					c-0.4,0.1-3.233,0.417-8.5,0.95l-6.1,1l7.6-0.8c1.367-0.167,2.983-0.317,4.85-0.45c1.833-0.133,2.883-0.167,3.15-0.1
					c0.333,0.034,1.633,0.65,3.9,1.85C21.216-5.083,22.767-4.184,24.399-3.15z"/>
			</g>
		</g>
	</g>
</symbol>
<symbol  id="cubimal_x5F_mc" viewBox="-0.385 -26.664 32.091 38.926">
	<g id="Layer_5_1_">
	</g>
	<g id="Layer_4_2_">
	</g>
	<g id="Layer_2_copy_2_">
	</g>
	<g id="Layer_2_2_">
	</g>
	<g id="Layer_1_9_">
		
			<use xlink:href="#cubimal_x5F_scene1"  width="32.091" height="38.926" x="0.015" y="-26.713" transform="matrix(1 0 0 1 -0.3999 0.0498)" style="overflow:visible;"/>
	</g>
	<g id="Layer_6_1_">
	</g>
</symbol>
<symbol  id="cubimal_x5F_scene1" viewBox="0.015 -26.713 32.091 38.926">
	<g id="Layer_1_8_">
		
			<use xlink:href="#winder_x5F_static"  width="10.185" height="8.474" x="0.015" y="-8.472" transform="matrix(1 0 0 1 0 -7.9502)" style="overflow:visible;"/>
		
			<use xlink:href="#cubimal_1_"  width="31.982" height="38.926" x="-5.875" y="-26.713" transform="matrix(1 0 0 1 6 0)" style="overflow:visible;"/>
	</g>
</symbol>
<symbol  id="winder_x5F_static" viewBox="0.015 -8.472 10.185 8.474">
	<g id="Layer_4_1_">
		
			<use xlink:href="#winderedge"  width="4.537" height="8.127" x="0.015" y="-8.126" transform="matrix(1 0 0 1 0.7002 0)" style="overflow:visible;"/>
	</g>
	<g id="Layer_3_1_">
		
			<use xlink:href="#winderfacehighlight"  width="4.573" height="8.174" x="0.016" y="-8.173" transform="matrix(1 0 0 1 0.2002 -0.2002)" style="overflow:visible;"/>
	</g>
	<g id="Layer_2_copy_1_">
		
			<use xlink:href="#winderface1a"  width="4.573" height="8.174" x="0.015" y="-8.172" transform="matrix(1 0 0 1 0 -0.2998)" style="overflow:visible;"/>
	</g>
	<g id="Layer_1_7_">
		<g>
			
				<linearGradient id="SVGID_43_" gradientUnits="userSpaceOnUse" x1="1521.478" y1="-17613.7656" x2="1522.7974" y2="-17613.7656" gradientTransform="matrix(-0.1705 -0.9854 0.9854 -0.1705 17622.6289 -1509.4385)">
				<stop  offset="0" style="stop-color:#8F8F8F"/>
				<stop  offset="0.2275" style="stop-color:#E8E8E8"/>
				<stop  offset="1" style="stop-color:#696969"/>
			</linearGradient>
			<path style="fill-rule:evenodd;clip-rule:evenodd;fill:url(#SVGID_43_);" d="M10.2-6.3L4.8-5.5C4.5-5.533,4.351-5.366,4.351-5
				c0,0.233,0.083,0.4,0.25,0.5c0.066,0.066,0.133,0.1,0.2,0.1l5.4-0.8V-6.3z"/>
		</g>
	</g>
</symbol>
<symbol  id="winderedge" viewBox="0.015 -8.126 4.537 8.127">
	<g id="Layer_1_4_">
		<g>
			
				<linearGradient id="SVGID_44_" gradientUnits="userSpaceOnUse" x1="12.21" y1="-16344.5195" x2="19.035" y2="-16344.5195" gradientTransform="matrix(1.465202e-004 -1 1 -0.001 16346.8027 -4.1719)">
				<stop  offset="0" style="stop-color:#8F8F8F"/>
				<stop  offset="0.2275" style="stop-color:#E8E8E8"/>
				<stop  offset="1" style="stop-color:#696969"/>
			</linearGradient>
			<path style="fill-rule:evenodd;clip-rule:evenodd;fill:url(#SVGID_44_);" d="M3.5-5.899c0.066,0.6-0.083,0.983-0.45,1.15L2.6-4.7
				C2.367-4.7,2.167-4.733,2-4.8c-0.533-0.167-0.833-0.533-0.9-1.1c-0.034-0.5,0.1-0.85,0.4-1.05c0.434-0.233,0.867-0.233,1.3,0
				C3.2-6.716,3.434-6.366,3.5-5.899z M0.05-1.25c0.1,0.8,0.5,1.216,1.2,1.25c1.367,0.033,2.333-0.633,2.9-2
				c0.5-1.233,0.534-2.05,0.1-2.45c0.434-0.533,0.4-1.333-0.1-2.4c-0.567-1.167-1.533-1.533-2.9-1.1c-0.7,0.233-1.1,0.767-1.2,1.6
				c-0.133,0.867,0.117,1.533,0.75,2L1.25-4L0.8-3.55C0.167-2.85-0.083-2.083,0.05-1.25z M3.5-2.75C3.434-2.25,3.2-1.833,2.8-1.5
				C2.367-1.1,1.934-0.966,1.5-1.1c-0.3-0.133-0.434-0.467-0.4-1C1.167-2.666,1.467-3.116,2-3.45l0.6-0.3L3.05-3.8
				C3.417-3.766,3.566-3.416,3.5-2.75z"/>
		</g>
	</g>
</symbol>
<symbol  id="winderface1a" viewBox="0.015 -8.172 4.573 8.174">
	<g id="Layer_1_2_">
		
			<linearGradient id="SVGID_45_" gradientUnits="userSpaceOnUse" x1="-1916.0068" y1="-13810.1621" x2="-1906.8346" y2="-13810.1621" gradientTransform="matrix(0.2726 -0.9621 0.9621 0.2726 13810.1416 1921.8105)">
			<stop  offset="0" style="stop-color:#E8E8E8"/>
			<stop  offset="1" style="stop-color:#878787"/>
		</linearGradient>
		<path style="fill-rule:evenodd;clip-rule:evenodd;fill:url(#SVGID_45_);" d="M2.05-4.8c-0.566-0.133-0.867-0.483-0.9-1.05
			c-0.033-0.533,0.1-0.9,0.4-1.1c0.4-0.267,0.817-0.267,1.25,0C3.2-6.717,3.433-6.367,3.5-5.9c0.133,0.633,0,1-0.4,1.1L2.65-4.7
			L2.05-4.8z M0.05-1.25C0.183-0.45,0.6-0.033,1.3,0c1.367,0.033,2.333-0.633,2.9-2c0.5-1.233,0.517-2.05,0.05-2.45
			c0.467-0.5,0.45-1.3-0.05-2.4C3.633-8.05,2.667-8.433,1.3-8C0.6-7.733,0.183-7.183,0.05-6.35c-0.133,0.867,0.117,1.533,0.75,2
			L1.3-4L0.8-3.55C0.167-2.85-0.083-2.083,0.05-1.25z M3.5-2.75C3.433-2.25,3.2-1.833,2.8-1.5C2.367-1.1,1.95-0.967,1.55-1.1
			c-0.3-0.133-0.433-0.467-0.4-1c0.033-0.6,0.333-1.05,0.9-1.35l0.6-0.3L3.1-3.8C3.467-3.767,3.6-3.417,3.5-2.75z"/>
	</g>
</symbol>
<symbol  id="winderfacehighlight" viewBox="0.016 -8.173 4.573 8.174">
	<g id="Layer_1_3_">
		
			<linearGradient id="SVGID_46_" gradientUnits="userSpaceOnUse" x1="-1916.0059" y1="-13810.1621" x2="-1906.8336" y2="-13810.1621" gradientTransform="matrix(0.2726 -0.9621 0.9621 0.2726 13810.1416 1921.8105)">
			<stop  offset="0" style="stop-color:#E8E8E8"/>
			<stop  offset="1" style="stop-color:#EDEDED"/>
		</linearGradient>
		<path style="fill-rule:evenodd;clip-rule:evenodd;fill:url(#SVGID_46_);" d="M2.05-4.8c-0.567-0.133-0.867-0.483-0.9-1.05
			c-0.033-0.533,0.1-0.9,0.4-1.1c0.4-0.267,0.817-0.267,1.25,0C3.2-6.717,3.434-6.367,3.5-5.9c0.1,0.6-0.034,0.967-0.4,1.1L2.65-4.7
			L2.05-4.8z M0.05-1.25C0.184-0.45,0.601-0.034,1.3,0c1.367,0.034,2.333-0.633,2.9-2c0.5-1.233,0.517-2.05,0.05-2.45
			c0.466-0.5,0.45-1.3-0.05-2.4C3.634-8.05,2.667-8.434,1.3-8c-0.7,0.267-1.117,0.817-1.25,1.65c-0.133,0.867,0.117,1.534,0.75,2
			L1.3-4L0.8-3.55C0.167-2.851-0.083-2.084,0.05-1.25z M1.55-1.101c-0.3-0.133-0.433-0.466-0.4-1c0.033-0.6,0.333-1.05,0.9-1.35
			l0.6-0.3l0.45-0.05c0.366,0.033,0.5,0.383,0.4,1.05C3.434-2.25,3.2-1.834,2.8-1.5C2.367-1.101,1.95-0.967,1.55-1.101z"/>
	</g>
</symbol>
<use xlink:href="#cubimal_x5F_mc"  width="32.091" height="38.926" id="cubimal" x="-0.385" y="-26.664" transform="matrix(1 0 0 -1 0.3999 12.25)" style="overflow:visible;"/>
</svg>
