<?xml version="1.0" encoding="iso-8859-1"?>
<!-- Generator: Adobe Illustrator 15.1.0, SVG Export Plug-In . SVG Version: 6.00 Build 0)  -->
<!DOCTYPE svg PUBLIC "-//W3C//DTD SVG 1.1//EN" "http://www.w3.org/Graphics/SVG/1.1/DTD/svg11.dtd">
<svg version="1.1" id="flash0.ai" xmlns="http://www.w3.org/2000/svg" xmlns:xlink="http://www.w3.org/1999/xlink" x="0px" y="0px"
	 width="39px" height="31.15px" viewBox="0 0 39 31.15" style="enable-background:new 0 0 39 31.15;" xml:space="preserve">
<symbol  id="Symbol_1" viewBox="0.017 -13.9 12.483 13.912">
	<g id="Layer_1_8_">
		<use xlink:href="#Symbol_2"  width="12.483" height="13.912" x="0.017" y="-13.9" style="overflow:visible;"/>
	</g>
</symbol>
<symbol  id="Symbol_2" viewBox="0.017 -13.9 12.483 13.912">
	<g id="Layer_1_2_">
		<g>
			
				<linearGradient id="SVGID_1_" gradientUnits="userSpaceOnUse" x1="16524.5195" y1="-200.6128" x2="16527.8203" y2="-200.6128" gradientTransform="matrix(-0.0227 0.9997 -0.9997 -0.0227 184.814 -16532.6602)">
				<stop  offset="0" style="stop-color:#786116"/>
				<stop  offset="1" style="stop-color:#F8E63B"/>
			</linearGradient>
			<path style="fill-rule:evenodd;clip-rule:evenodd;fill:url(#SVGID_1_);" d="M12.5-6.2l-0.15-0.4L11.5-7.15
				c-0.333-0.333-1-1.433-2-3.3c-0.333-0.633-1.067,0.1-2.2,2.2l0.65,6l1.15-1.15c0.867-0.8,1.633-1.233,2.3-1.3l0.65-0.05
				c0.133-0.267,0.267-0.45,0.4-0.55L12.5-6.2z"/>
		</g>
		<g>
			
				<radialGradient id="SVGID_2_" cx="10749.0723" cy="-18857.9922" r="12.6356" gradientTransform="matrix(-0.923 -0.3848 0.4373 -0.6925 18177.625 -8928.3809)" gradientUnits="userSpaceOnUse">
				<stop  offset="0" style="stop-color:#786116"/>
				<stop  offset="0.1373" style="stop-color:#8B7521"/>
				<stop  offset="0.7294" style="stop-color:#DACA52"/>
				<stop  offset="1" style="stop-color:#F9EB66"/>
			</radialGradient>
			<path style="fill-rule:evenodd;clip-rule:evenodd;fill:url(#SVGID_2_);" d="M11.05-4.85l0.3-0.85c0.2-0.633,0.316-1.167,0.35-1.6
				c0.067-0.733-0.1-1.833-0.5-3.3c-0.466-0.934-1.05-1.733-1.75-2.4c-0.466-0.434-0.833-0.634-1.1-0.6l-0.3,0.15
				c-1-0.4-1.867-0.533-2.6-0.4c-0.466,0.066-0.85,0.3-1.15,0.7L4-12.55c-0.8,0.067-1.517,0.483-2.15,1.25
				c-0.4,0.5-0.6,1.017-0.6,1.55L1.4-9.1c-0.633,0.433-1.067,1.2-1.3,2.3c-0.167,0.667-0.083,1.233,0.25,1.7
				C0.517-4.833,0.7-4.65,0.9-4.55c-0.267,0.367-0.283,0.967-0.05,1.8c0.133,0.533,0.533,0.966,1.2,1.3C2.384-1.284,2.7-1.167,3-1.1
				l0.6,0.5c0.5,0.333,0.983,0.533,1.45,0.6c0.7,0.066,1.434-0.15,2.2-0.65l0.5-0.25c0.433-0.233,0.883-0.566,1.35-1
				C9.833-2.6,10.484-3.583,11.05-4.85z"/>
			
				<radialGradient id="SVGID_3_" cx="10754.9531" cy="-18825.1328" r="12.1378" gradientTransform="matrix(-0.9258 -0.378 0.4387 -0.6951 18226.4629 -9027.1846)" gradientUnits="userSpaceOnUse">
				<stop  offset="0" style="stop-color:#786116"/>
				<stop  offset="1" style="stop-color:#7C721D"/>
			</radialGradient>
			<path style="fill-rule:evenodd;clip-rule:evenodd;fill:url(#SVGID_3_);" d="M10.9-4.85l0.3-0.8c0.233-0.633,0.367-1.15,0.4-1.55
				c0.033-0.7-0.15-1.75-0.55-3.15c-0.433-0.9-0.983-1.667-1.65-2.3c-0.433-0.4-0.783-0.6-1.05-0.6l-0.3,0.15
				c-0.967-0.367-1.8-0.483-2.5-0.35c-0.433,0.066-0.8,0.3-1.1,0.7l-0.3,0.55c-0.767,0.066-1.45,0.483-2.05,1.25
				C1.734-10.483,1.55-10,1.55-9.5l0.1,0.65c-0.633,0.433-1.067,1.167-1.3,2.2C0.217-6.017,0.3-5.467,0.601-5
				c0.167,0.233,0.35,0.4,0.55,0.5c-0.267,0.366-0.283,0.933-0.05,1.7c0.133,0.5,0.533,0.917,1.2,1.25c0.3,0.167,0.6,0.284,0.9,0.35
				l0.6,0.45c0.467,0.333,0.917,0.533,1.35,0.6C5.817-0.083,6.517-0.3,7.25-0.8l0.5-0.25c0.433-0.233,0.867-0.566,1.3-1
				C9.784-2.717,10.4-3.65,10.9-4.85z"/>
			
				<radialGradient id="SVGID_4_" cx="10751.585" cy="-18858.4902" r="11.9183" gradientTransform="matrix(-0.923 -0.3849 0.4468 -0.7079 18359.4961 -9218.2803)" gradientUnits="userSpaceOnUse">
				<stop  offset="0" style="stop-color:#786116"/>
				<stop  offset="0.1059" style="stop-color:#86701A"/>
				<stop  offset="0.7216" style="stop-color:#D8C532"/>
				<stop  offset="1" style="stop-color:#F8E63B"/>
			</radialGradient>
			<path style="fill-rule:evenodd;clip-rule:evenodd;fill:url(#SVGID_4_);" d="M10.9-4.85l0.3-0.8c0.233-0.633,0.367-1.15,0.4-1.55
				c0.066-0.7-0.1-1.75-0.5-3.15c-0.4-0.9-0.934-1.667-1.6-2.3c-0.4-0.4-0.733-0.6-1-0.6L8.2-13.1
				c-0.966-0.367-1.783-0.483-2.45-0.35c-0.434,0.066-0.8,0.3-1.1,0.7l-0.3,0.55c-0.767,0.066-1.45,0.483-2.05,1.25
				C1.934-10.483,1.734-10,1.7-9.5l0.1,0.65c-0.566,0.433-0.983,1.167-1.25,2.2C0.417-6.017,0.5-5.467,0.8-5
				c0.167,0.233,0.333,0.4,0.5,0.5C1.067-4.134,1.05-3.567,1.25-2.8C1.384-2.3,1.767-1.884,2.4-1.55
				C2.734-1.384,3.034-1.267,3.3-1.2l0.6,0.45c0.467,0.333,0.9,0.533,1.3,0.6C5.867-0.083,6.567-0.3,7.3-0.8l0.5-0.25
				c0.434-0.233,0.867-0.566,1.3-1C9.8-2.717,10.4-3.65,10.9-4.85z"/>
			
				<radialGradient id="SVGID_5_" cx="15888.6973" cy="-16890.5234" r="8.1195" gradientTransform="matrix(-0.9976 -0.0693 -0.0416 0.7805 15160.791 14277.0488)" gradientUnits="userSpaceOnUse">
				<stop  offset="0" style="stop-color:#786116"/>
				<stop  offset="0.1059" style="stop-color:#86701A"/>
				<stop  offset="0.7216" style="stop-color:#D8C532"/>
				<stop  offset="1" style="stop-color:#F8E63B"/>
			</radialGradient>
			<path style="fill-rule:evenodd;clip-rule:evenodd;fill:url(#SVGID_5_);" d="M10.75-7.3l0.05-1.15
				c-0.733-0.934-1.383-1.983-1.95-3.15c-0.3-0.6-0.517-1.1-0.65-1.5c-0.966-0.367-1.783-0.483-2.45-0.35
				c-0.434,0.066-0.8,0.3-1.1,0.7l-0.3,0.55l1.85,1.55c1.4,1.134,2.5,1.967,3.3,2.5L10.75-7.3z"/>
			
				<radialGradient id="SVGID_6_" cx="15891.2949" cy="-16892.2227" r="12.4175" gradientTransform="matrix(-0.9976 -0.0695 -0.0413 0.7812 15169.1328 14292.4492)" gradientUnits="userSpaceOnUse">
				<stop  offset="0" style="stop-color:#786116"/>
				<stop  offset="0.1059" style="stop-color:#86701A"/>
				<stop  offset="0.7216" style="stop-color:#D8C532"/>
				<stop  offset="1" style="stop-color:#F8E63B"/>
			</radialGradient>
			<path style="fill-rule:evenodd;clip-rule:evenodd;fill:url(#SVGID_6_);" d="M3.95-11.55c0.034,0-0.017-0.167-0.15-0.5
				c-0.6,0.233-1.1,0.6-1.5,1.1c-0.566,0.7-0.733,1.4-0.5,2.1c2.9,0.8,4.633,1.267,5.2,1.4l2.25,0.5l-4.15-3.2
				c-0.167-0.133-0.4-0.383-0.7-0.75C4.067-11.3,3.917-11.517,3.95-11.55z"/>
			
				<radialGradient id="SVGID_7_" cx="15889.5938" cy="-16889.7168" r="8.132" gradientTransform="matrix(-0.9976 -0.0692 -0.0415 0.7809 15162.916 14280.541)" gradientUnits="userSpaceOnUse">
				<stop  offset="0" style="stop-color:#786116"/>
				<stop  offset="1" style="stop-color:#F8E63B"/>
			</radialGradient>
			<path style="fill-rule:evenodd;clip-rule:evenodd;fill:url(#SVGID_7_);" d="M10.8-6.55L10.75-7.3L9.5-8.15
				c-0.8-0.533-1.9-1.366-3.3-2.5l-1.85-1.55c-0.167,0-0.35,0.05-0.55,0.15c0.133,0.333,0.184,0.5,0.15,0.5
				C3.917-11.517,4.067-11.3,4.4-10.9c0.3,0.367,0.533,0.617,0.7,0.75l4.15,3.2L10.8-6.55z"/>
			
				<radialGradient id="SVGID_8_" cx="15891.8867" cy="-16892.2227" r="12.4175" gradientTransform="matrix(-0.9976 -0.0695 -0.0413 0.7822 15169.7227 14309.4941)" gradientUnits="userSpaceOnUse">
				<stop  offset="0" style="stop-color:#786116"/>
				<stop  offset="1" style="stop-color:#F8E63B"/>
			</radialGradient>
			<path style="fill-rule:evenodd;clip-rule:evenodd;fill:url(#SVGID_8_);" d="M10.8-6.55L10.75-7.3L9.5-8.15
				c-0.8-0.533-1.9-1.366-3.3-2.5l-1.85-1.55c-0.167,0-0.35,0.05-0.55,0.15c0.133,0.333,0.184,0.5,0.15,0.5
				C3.917-11.517,4.067-11.3,4.4-10.9c0.3,0.367,0.533,0.617,0.7,0.75l4.15,3.2L10.8-6.55z"/>
			
				<radialGradient id="SVGID_9_" cx="12001.9668" cy="3327.3643" r="10.2942" gradientTransform="matrix(0.6411 0.7674 1.2762 -0.629 -11931.0879 -7122.2012)" gradientUnits="userSpaceOnUse">
				<stop  offset="0" style="stop-color:#786116"/>
				<stop  offset="0.1059" style="stop-color:#86701A"/>
				<stop  offset="0.7216" style="stop-color:#D8C532"/>
				<stop  offset="1" style="stop-color:#F8E63B"/>
			</radialGradient>
			<path style="fill-rule:evenodd;clip-rule:evenodd;fill:url(#SVGID_9_);" d="M9.25-3.65l0.6-0.75C7.05-3.267,4.867-2.2,3.3-1.2
				l0.6,0.45c0.467,0.333,0.9,0.533,1.3,0.6C5.867-0.083,6.567-0.3,7.3-0.8l0.6-0.3C8.534-2.467,8.984-3.317,9.25-3.65z"/>
			
				<radialGradient id="SVGID_10_" cx="15888.2109" cy="-16893.2324" r="16.5276" gradientTransform="matrix(-0.9976 -0.0696 -0.0416 0.7813 15159.9434 14296.9551)" gradientUnits="userSpaceOnUse">
				<stop  offset="0" style="stop-color:#786116"/>
				<stop  offset="0.1059" style="stop-color:#86701A"/>
				<stop  offset="0.7216" style="stop-color:#D8C532"/>
				<stop  offset="1" style="stop-color:#F8E63B"/>
			</radialGradient>
			<path style="fill-rule:evenodd;clip-rule:evenodd;fill:url(#SVGID_10_);" d="M10.95-5.85l-0.1-0.4L9.55-6.3
				c-0.3,0.067-3.1-0.517-8.4-1.75c-0.267,0.4-0.467,0.867-0.6,1.4C0.417-6.017,0.5-5.467,0.8-5c0.167,0.233,0.333,0.4,0.5,0.5v0.05
				C4.034-5.517,6.267-6.083,8-6.15C8.867-6.184,9.851-6.083,10.95-5.85z"/>
			
				<radialGradient id="SVGID_11_" cx="15891.2949" cy="-16892.2227" r="12.4175" gradientTransform="matrix(-0.9976 -0.0695 -0.0413 0.7812 15169.1328 14292.4492)" gradientUnits="userSpaceOnUse">
				<stop  offset="0" style="stop-color:#786116"/>
				<stop  offset="1" style="stop-color:#F8E63B"/>
			</radialGradient>
			<path style="fill-rule:evenodd;clip-rule:evenodd;fill:url(#SVGID_11_);" d="M9.25-6.95L7-7.45c-0.567-0.133-2.3-0.6-5.2-1.4
				c-0.2,0.167-0.417,0.433-0.65,0.8c5.3,1.233,8.1,1.817,8.4,1.75l1.15,0.05l-0.9-0.2L9.25-6.95z"/>
			
				<radialGradient id="SVGID_12_" cx="15888.6523" cy="-16892.8359" r="16.54" gradientTransform="matrix(-0.9976 -0.0695 -0.0416 0.7814 15160.9863 14298.6563)" gradientUnits="userSpaceOnUse">
				<stop  offset="0" style="stop-color:#786116"/>
				<stop  offset="1" style="stop-color:#F8E63B"/>
			</radialGradient>
			<path style="fill-rule:evenodd;clip-rule:evenodd;fill:url(#SVGID_12_);" d="M9.25-6.95L7-7.45c-0.567-0.133-2.3-0.6-5.2-1.4
				c-0.2,0.167-0.417,0.433-0.65,0.8c5.3,1.233,8.1,1.817,8.4,1.75l1.15,0.05l-0.9-0.2L9.25-6.95z"/>
			
				<radialGradient id="SVGID_13_" cx="15888.6973" cy="-16890.5234" r="8.1195" gradientTransform="matrix(-0.9976 -0.0693 -0.0416 0.7805 15160.791 14277.0488)" gradientUnits="userSpaceOnUse">
				<stop  offset="0" style="stop-color:#786116"/>
				<stop  offset="1" style="stop-color:#F8E63B"/>
			</radialGradient>
			<polygon style="fill-rule:evenodd;clip-rule:evenodd;fill:url(#SVGID_13_);" points="10.7,-6.25 10.851,-6.25 10.8,-6.55 
				9.25,-6.95 9.8,-6.45 			"/>
			
				<radialGradient id="SVGID_14_" cx="15891.2949" cy="-16892.2227" r="12.4175" gradientTransform="matrix(-0.9976 -0.0695 -0.0413 0.7812 15169.1328 14292.4492)" gradientUnits="userSpaceOnUse">
				<stop  offset="0" style="stop-color:#786116"/>
				<stop  offset="1" style="stop-color:#F8E63B"/>
			</radialGradient>
			<polygon style="fill-rule:evenodd;clip-rule:evenodd;fill:url(#SVGID_14_);" points="10.7,-6.25 10.851,-6.25 10.8,-6.55 
				9.25,-6.95 9.8,-6.45 			"/>
			
				<radialGradient id="SVGID_15_" cx="15888.2109" cy="-16893.2324" r="16.5276" gradientTransform="matrix(-0.9976 -0.0696 -0.0416 0.7813 15159.9434 14296.9551)" gradientUnits="userSpaceOnUse">
				<stop  offset="0" style="stop-color:#786116"/>
				<stop  offset="1" style="stop-color:#F8E63B"/>
			</radialGradient>
			<polygon style="fill-rule:evenodd;clip-rule:evenodd;fill:url(#SVGID_15_);" points="10.7,-6.25 10.851,-6.25 10.8,-6.55 
				9.25,-6.95 9.8,-6.45 			"/>
			
				<radialGradient id="SVGID_16_" cx="14488.0684" cy="2484.9795" r="9.8981" gradientTransform="matrix(0.3814 0.9244 1.5622 -0.3448 -9396.2207 -12541.7314)" gradientUnits="userSpaceOnUse">
				<stop  offset="0" style="stop-color:#786116"/>
				<stop  offset="0.1059" style="stop-color:#86701A"/>
				<stop  offset="0.7216" style="stop-color:#D8C532"/>
				<stop  offset="1" style="stop-color:#F8E63B"/>
			</radialGradient>
			<path style="fill-rule:evenodd;clip-rule:evenodd;fill:url(#SVGID_16_);" d="M11-5.55V-5.6L1.25-4.4c-0.2,0.4-0.2,0.934,0,1.6
				c0.2,0.6,0.617,1.034,1.25,1.3C6.234-3.4,8.4-4.467,9-4.7L11-5.55z"/>
			
				<radialGradient id="SVGID_17_" cx="12001.9668" cy="3327.3643" r="10.2942" gradientTransform="matrix(0.6411 0.7674 1.2762 -0.629 -11931.0879 -7122.2012)" gradientUnits="userSpaceOnUse">
				<stop  offset="0" style="stop-color:#786116"/>
				<stop  offset="1" style="stop-color:#F8E63B"/>
			</radialGradient>
			<path style="fill-rule:evenodd;clip-rule:evenodd;fill:url(#SVGID_17_);" d="M11.05-5.45L11-5.55L9-4.7
				C8.4-4.467,6.234-3.4,2.5-1.5l0.8,0.3c1.567-1,3.75-2.066,6.55-3.2C10.15-4.767,10.55-5.117,11.05-5.45z"/>
			
				<radialGradient id="SVGID_18_" cx="14488.0684" cy="2484.9795" r="9.8981" gradientTransform="matrix(0.3814 0.9244 1.5622 -0.3448 -9396.2207 -12541.7314)" gradientUnits="userSpaceOnUse">
				<stop  offset="0" style="stop-color:#786116"/>
				<stop  offset="1" style="stop-color:#F8E63B"/>
			</radialGradient>
			<path style="fill-rule:evenodd;clip-rule:evenodd;fill:url(#SVGID_18_);" d="M11.05-5.45L11-5.55L9-4.7
				C8.4-4.467,6.234-3.4,2.5-1.5l0.8,0.3c1.567-1,3.75-2.066,6.55-3.2C10.15-4.767,10.55-5.117,11.05-5.45z"/>
			
				<radialGradient id="SVGID_19_" cx="15888.2109" cy="-16893.2324" r="16.5276" gradientTransform="matrix(-0.9976 -0.0696 -0.0416 0.7813 15159.9434 14296.9551)" gradientUnits="userSpaceOnUse">
				<stop  offset="0" style="stop-color:#786116"/>
				<stop  offset="1" style="stop-color:#F8E63B"/>
			</radialGradient>
			<path style="fill-rule:evenodd;clip-rule:evenodd;fill:url(#SVGID_19_);" d="M11-5.6l-0.05-0.25C9.851-6.083,8.867-6.184,8-6.15
				c-1.733,0.067-3.967,0.634-6.7,1.7L1.25-4.4L11-5.6z"/>
			
				<radialGradient id="SVGID_20_" cx="14484.1504" cy="2480.707" r="9.9213" gradientTransform="matrix(0.3805 0.9248 1.5623 -0.3452 -9375.5313 -12543.752)" gradientUnits="userSpaceOnUse">
				<stop  offset="0" style="stop-color:#786116"/>
				<stop  offset="1" style="stop-color:#F8E63B"/>
			</radialGradient>
			<path style="fill-rule:evenodd;clip-rule:evenodd;fill:url(#SVGID_20_);" d="M11-5.6l-0.05-0.25C9.851-6.083,8.867-6.184,8-6.15
				c-1.733,0.067-3.967,0.634-6.7,1.7L1.25-4.4L11-5.6z"/>
			
				<radialGradient id="SVGID_21_" cx="11992.6211" cy="3327.2041" r="10.2766" gradientTransform="matrix(0.641 0.7675 1.276 -0.6301 -11922.6602 -7112.7256)" gradientUnits="userSpaceOnUse">
				<stop  offset="0" style="stop-color:#786116"/>
				<stop  offset="1" style="stop-color:#F8E63B"/>
			</radialGradient>
			<path style="fill-rule:evenodd;clip-rule:evenodd;fill:url(#SVGID_21_);" d="M9.851-4.4l-0.6,0.75
				C8.984-3.317,8.534-2.467,7.9-1.1l1.2-0.95c0.733-0.733,1.333-1.65,1.8-2.75L9.851-4.4z"/>
			
				<radialGradient id="SVGID_22_" cx="15903.5684" cy="-16894.832" r="9.1722" gradientTransform="matrix(-0.9976 -0.0695 -0.0409 0.7809 15179.5703 14293.3262)" gradientUnits="userSpaceOnUse">
				<stop  offset="0" style="stop-color:#786116"/>
				<stop  offset="1" style="stop-color:#F8E63B"/>
			</radialGradient>
			<path style="fill-rule:evenodd;clip-rule:evenodd;fill:url(#SVGID_22_);" d="M9.851-4.4l-0.6,0.75
				C8.984-3.317,8.534-2.467,7.9-1.1l1.2-0.95c0.733-0.733,1.333-1.65,1.8-2.75L9.851-4.4z"/>
			
				<radialGradient id="SVGID_23_" cx="11992.6211" cy="3327.2041" r="10.2766" gradientTransform="matrix(0.641 0.7675 1.276 -0.6301 -11922.6602 -7112.7256)" gradientUnits="userSpaceOnUse">
				<stop  offset="0" style="stop-color:#786116"/>
				<stop  offset="1" style="stop-color:#F8E63B"/>
			</radialGradient>
			<path style="fill-rule:evenodd;clip-rule:evenodd;fill:url(#SVGID_23_);" d="M10.9-4.8v-0.05l0.2-0.45l-0.05-0.15
				c-0.5,0.333-0.9,0.684-1.2,1.05L10.9-4.8z"/>
			
				<radialGradient id="SVGID_24_" cx="14484.1504" cy="2480.707" r="9.9213" gradientTransform="matrix(0.3805 0.9248 1.5623 -0.3452 -9375.5313 -12543.752)" gradientUnits="userSpaceOnUse">
				<stop  offset="0" style="stop-color:#786116"/>
				<stop  offset="1" style="stop-color:#F8E63B"/>
			</radialGradient>
			<path style="fill-rule:evenodd;clip-rule:evenodd;fill:url(#SVGID_24_);" d="M10.9-4.8v-0.05l0.2-0.45l-0.05-0.15
				c-0.5,0.333-0.9,0.684-1.2,1.05L10.9-4.8z"/>
			
				<radialGradient id="SVGID_25_" cx="15903.5684" cy="-16894.832" r="9.1722" gradientTransform="matrix(-0.9976 -0.0695 -0.0409 0.7809 15179.5703 14293.3262)" gradientUnits="userSpaceOnUse">
				<stop  offset="0" style="stop-color:#786116"/>
				<stop  offset="1" style="stop-color:#F8E63B"/>
			</radialGradient>
			<path style="fill-rule:evenodd;clip-rule:evenodd;fill:url(#SVGID_25_);" d="M10.9-4.8v-0.05l0.2-0.45l-0.05-0.15
				c-0.5,0.333-0.9,0.684-1.2,1.05L10.9-4.8z"/>
			
				<radialGradient id="SVGID_26_" cx="15906.666" cy="-16886.0586" r="25.6997" gradientTransform="matrix(-0.9976 -0.0696 -0.0413 0.7811 15167.6758 14281.873)" gradientUnits="userSpaceOnUse">
				<stop  offset="0" style="stop-color:#786116"/>
				<stop  offset="1" style="stop-color:#F8E63B"/>
			</radialGradient>
			<path style="fill-rule:evenodd;clip-rule:evenodd;fill:url(#SVGID_26_);" d="M11.101-10.35l-0.3,1.9l0.8,0.9
				C11.601-8.284,11.434-9.217,11.101-10.35z"/>
			
				<radialGradient id="SVGID_27_" cx="15887.7949" cy="-16891.332" r="8.107" gradientTransform="matrix(-0.9976 -0.0694 -0.0416 0.7802 15158.6621 14273.5449)" gradientUnits="userSpaceOnUse">
				<stop  offset="0" style="stop-color:#786116"/>
				<stop  offset="1" style="stop-color:#F8E63B"/>
			</radialGradient>
			<polygon style="fill-rule:evenodd;clip-rule:evenodd;fill:url(#SVGID_27_);" points="11.601,-7.2 11.601,-7.55 10.8,-8.45 
				10.75,-7.3 11.55,-6.8 			"/>
			
				<radialGradient id="SVGID_28_" cx="15906.666" cy="-16886.0586" r="25.6997" gradientTransform="matrix(-0.9976 -0.0696 -0.0413 0.7811 15167.6758 14281.873)" gradientUnits="userSpaceOnUse">
				<stop  offset="0" style="stop-color:#786116"/>
				<stop  offset="1" style="stop-color:#F8E63B"/>
			</radialGradient>
			<polygon style="fill-rule:evenodd;clip-rule:evenodd;fill:url(#SVGID_28_);" points="11.601,-7.2 11.601,-7.55 10.8,-8.45 
				10.75,-7.3 11.55,-6.8 			"/>
			
				<radialGradient id="SVGID_29_" cx="15888.6973" cy="-16890.5234" r="8.1195" gradientTransform="matrix(-0.9976 -0.0693 -0.0416 0.7805 15160.791 14277.0488)" gradientUnits="userSpaceOnUse">
				<stop  offset="0" style="stop-color:#786116"/>
				<stop  offset="1" style="stop-color:#F8E63B"/>
			</radialGradient>
			<polygon style="fill-rule:evenodd;clip-rule:evenodd;fill:url(#SVGID_29_);" points="10.8,-6.55 11.25,-6.5 11.45,-6.35 
				11.55,-6.8 10.75,-7.3 			"/>
			
				<radialGradient id="SVGID_30_" cx="15891.2949" cy="-16892.2227" r="12.4175" gradientTransform="matrix(-0.9976 -0.0695 -0.0413 0.7812 15169.1328 14292.4492)" gradientUnits="userSpaceOnUse">
				<stop  offset="0" style="stop-color:#786116"/>
				<stop  offset="1" style="stop-color:#F8E63B"/>
			</radialGradient>
			<polygon style="fill-rule:evenodd;clip-rule:evenodd;fill:url(#SVGID_30_);" points="10.8,-6.55 11.25,-6.5 11.45,-6.35 
				11.55,-6.8 10.75,-7.3 			"/>
			
				<radialGradient id="SVGID_31_" cx="15906.666" cy="-16886.0586" r="25.6997" gradientTransform="matrix(-0.9976 -0.0696 -0.0413 0.7811 15167.6758 14281.873)" gradientUnits="userSpaceOnUse">
				<stop  offset="0" style="stop-color:#786116"/>
				<stop  offset="1" style="stop-color:#F8E63B"/>
			</radialGradient>
			<polygon style="fill-rule:evenodd;clip-rule:evenodd;fill:url(#SVGID_31_);" points="10.8,-6.55 11.25,-6.5 11.45,-6.35 
				11.55,-6.8 10.75,-7.3 			"/>
			
				<radialGradient id="SVGID_32_" cx="15889.0859" cy="-16892.0391" r="16.565" gradientTransform="matrix(-0.9976 -0.0694 -0.0415 0.781 15162.627 14289.2754)" gradientUnits="userSpaceOnUse">
				<stop  offset="0" style="stop-color:#786116"/>
				<stop  offset="1" style="stop-color:#F8E63B"/>
			</radialGradient>
			<polygon style="fill-rule:evenodd;clip-rule:evenodd;fill:url(#SVGID_32_);" points="10.851,-6.25 10.95,-5.85 11.25,-5.75 
				11.351,-6.1 			"/>
			
				<radialGradient id="SVGID_33_" cx="15906.3809" cy="-16886.3633" r="25.6873" gradientTransform="matrix(-0.9976 -0.0696 -0.0414 0.781 15167.002 14280.8652)" gradientUnits="userSpaceOnUse">
				<stop  offset="0" style="stop-color:#786116"/>
				<stop  offset="1" style="stop-color:#F8E63B"/>
			</radialGradient>
			<polygon style="fill-rule:evenodd;clip-rule:evenodd;fill:url(#SVGID_33_);" points="10.851,-6.25 10.95,-5.85 11.25,-5.75 
				11.351,-6.1 			"/>
			
				<radialGradient id="SVGID_34_" cx="15889.5938" cy="-16889.7168" r="8.132" gradientTransform="matrix(-0.9976 -0.0692 -0.0415 0.7809 15162.916 14280.541)" gradientUnits="userSpaceOnUse">
				<stop  offset="0" style="stop-color:#786116"/>
				<stop  offset="1" style="stop-color:#F8E63B"/>
			</radialGradient>
			<polygon style="fill-rule:evenodd;clip-rule:evenodd;fill:url(#SVGID_34_);" points="10.851,-6.25 11.351,-6.1 11.4,-6.25 			"/>
			
				<radialGradient id="SVGID_35_" cx="15889.5254" cy="-16891.6445" r="16.5774" gradientTransform="matrix(-0.9976 -0.0694 -0.0415 0.7812 15163.666 14290.9785)" gradientUnits="userSpaceOnUse">
				<stop  offset="0" style="stop-color:#786116"/>
				<stop  offset="1" style="stop-color:#F8E63B"/>
			</radialGradient>
			<polygon style="fill-rule:evenodd;clip-rule:evenodd;fill:url(#SVGID_35_);" points="10.851,-6.25 11.351,-6.1 11.4,-6.25 			"/>
			
				<radialGradient id="SVGID_36_" cx="15906.3809" cy="-16886.3633" r="25.6873" gradientTransform="matrix(-0.9976 -0.0696 -0.0414 0.781 15167.002 14280.8652)" gradientUnits="userSpaceOnUse">
				<stop  offset="0" style="stop-color:#786116"/>
				<stop  offset="1" style="stop-color:#F8E63B"/>
			</radialGradient>
			<polygon style="fill-rule:evenodd;clip-rule:evenodd;fill:url(#SVGID_36_);" points="10.851,-6.25 11.351,-6.1 11.4,-6.25 			"/>
			
				<radialGradient id="SVGID_37_" cx="15887.7949" cy="-16891.332" r="8.107" gradientTransform="matrix(-0.9976 -0.0694 -0.0416 0.7802 15158.6621 14273.5449)" gradientUnits="userSpaceOnUse">
				<stop  offset="0" style="stop-color:#786116"/>
				<stop  offset="1" style="stop-color:#F8E63B"/>
			</radialGradient>
			<polygon style="fill-rule:evenodd;clip-rule:evenodd;fill:url(#SVGID_37_);" points="10.8,-6.55 10.851,-6.25 11.4,-6.25 
				11.45,-6.35 11.25,-6.5 			"/>
			
				<radialGradient id="SVGID_38_" cx="15890.127" cy="-16893.2852" r="12.3926" gradientTransform="matrix(-0.9976 -0.0696 -0.0414 0.7807 15166.3662 14287.8984)" gradientUnits="userSpaceOnUse">
				<stop  offset="0" style="stop-color:#786116"/>
				<stop  offset="1" style="stop-color:#F8E63B"/>
			</radialGradient>
			<polygon style="fill-rule:evenodd;clip-rule:evenodd;fill:url(#SVGID_38_);" points="10.8,-6.55 10.851,-6.25 11.4,-6.25 
				11.45,-6.35 11.25,-6.5 			"/>
			
				<radialGradient id="SVGID_39_" cx="15887.333" cy="-16894.4316" r="16.4901" gradientTransform="matrix(-0.9976 -0.0697 -0.0417 0.7815 15157.248 14304.668)" gradientUnits="userSpaceOnUse">
				<stop  offset="0" style="stop-color:#786116"/>
				<stop  offset="1" style="stop-color:#F8E63B"/>
			</radialGradient>
			<polygon style="fill-rule:evenodd;clip-rule:evenodd;fill:url(#SVGID_39_);" points="10.8,-6.55 10.851,-6.25 11.4,-6.25 
				11.45,-6.35 11.25,-6.5 			"/>
			
				<radialGradient id="SVGID_40_" cx="15907.2754" cy="-16885.291" r="25.7371" gradientTransform="matrix(-0.9976 -0.0695 -0.0413 0.781 15169.3906 14276.9375)" gradientUnits="userSpaceOnUse">
				<stop  offset="0" style="stop-color:#786116"/>
				<stop  offset="1" style="stop-color:#F8E63B"/>
			</radialGradient>
			<polygon style="fill-rule:evenodd;clip-rule:evenodd;fill:url(#SVGID_40_);" points="10.8,-6.55 10.851,-6.25 11.4,-6.25 
				11.45,-6.35 11.25,-6.5 			"/>
			
				<radialGradient id="SVGID_41_" cx="12001.9961" cy="3327.8379" r="10.347" gradientTransform="matrix(0.6415 0.7671 1.2769 -0.6294 -11938.3691 -7117.0278)" gradientUnits="userSpaceOnUse">
				<stop  offset="0" style="stop-color:#786116"/>
				<stop  offset="1" style="stop-color:#F8E63B"/>
			</radialGradient>
			<polygon style="fill-rule:evenodd;clip-rule:evenodd;fill:url(#SVGID_41_);" points="11,-5.55 11.05,-5.45 11.2,-5.55 11.2,-5.6 
				11.05,-5.6 			"/>
			
				<radialGradient id="SVGID_42_" cx="14486.7715" cy="2483.752" r="9.9376" gradientTransform="matrix(0.3811 0.9245 1.561 -0.3447 -9387.209 -12542.7559)" gradientUnits="userSpaceOnUse">
				<stop  offset="0" style="stop-color:#786116"/>
				<stop  offset="1" style="stop-color:#F8E63B"/>
			</radialGradient>
			<polygon style="fill-rule:evenodd;clip-rule:evenodd;fill:url(#SVGID_42_);" points="11,-5.55 11.05,-5.45 11.2,-5.55 11.2,-5.6 
				11.05,-5.6 			"/>
			
				<radialGradient id="SVGID_43_" cx="15908.3916" cy="-16884.0156" r="25.7995" gradientTransform="matrix(-0.9976 -0.0693 -0.0412 0.781 15172.4297 14274.2051)" gradientUnits="userSpaceOnUse">
				<stop  offset="0" style="stop-color:#786116"/>
				<stop  offset="1" style="stop-color:#F8E63B"/>
			</radialGradient>
			<polygon style="fill-rule:evenodd;clip-rule:evenodd;fill:url(#SVGID_43_);" points="11,-5.55 11.05,-5.45 11.2,-5.55 11.2,-5.6 
				11.05,-5.6 			"/>
			
				<radialGradient id="SVGID_44_" cx="15886.3506" cy="-16889.498" r="16.4643" gradientTransform="matrix(-0.9976 -0.0691 -0.0418 0.7812 15156.0879 14285.4648)" gradientUnits="userSpaceOnUse">
				<stop  offset="0" style="stop-color:#786116"/>
				<stop  offset="1" style="stop-color:#F8E63B"/>
			</radialGradient>
			<polygon style="fill-rule:evenodd;clip-rule:evenodd;fill:url(#SVGID_44_);" points="11,-5.6 11.05,-5.6 11.25,-5.65 
				11.25,-5.75 10.95,-5.85 			"/>
			
				<radialGradient id="SVGID_45_" cx="14488.0684" cy="2484.9795" r="9.8981" gradientTransform="matrix(0.3814 0.9244 1.5622 -0.3448 -9396.2207 -12541.7314)" gradientUnits="userSpaceOnUse">
				<stop  offset="0" style="stop-color:#786116"/>
				<stop  offset="1" style="stop-color:#F8E63B"/>
			</radialGradient>
			<polygon style="fill-rule:evenodd;clip-rule:evenodd;fill:url(#SVGID_45_);" points="11,-5.6 11.05,-5.6 11.25,-5.65 
				11.25,-5.75 10.95,-5.85 			"/>
			
				<radialGradient id="SVGID_46_" cx="15907.2754" cy="-16885.291" r="25.7371" gradientTransform="matrix(-0.9976 -0.0695 -0.0413 0.781 15169.3906 14276.9375)" gradientUnits="userSpaceOnUse">
				<stop  offset="0" style="stop-color:#786116"/>
				<stop  offset="1" style="stop-color:#F8E63B"/>
			</radialGradient>
			<polygon style="fill-rule:evenodd;clip-rule:evenodd;fill:url(#SVGID_46_);" points="11,-5.6 11.05,-5.6 11.25,-5.65 
				11.25,-5.75 10.95,-5.85 			"/>
		</g>
	</g>
</symbol>
<symbol  id="Symbol_3" viewBox="-0.01 -6.65 4.449 6.632">
	<g id="Layer_1_10_">
		<use xlink:href="#Symbol_4"  width="4.449" height="6.632" x="-0.01" y="-6.65" style="overflow:visible;"/>
	</g>
</symbol>
<symbol  id="Symbol_4" viewBox="-0.01 -6.65 4.449 6.632">
	<g id="Layer_1_6_">
		<g>
			<path style="fill-rule:evenodd;clip-rule:evenodd;fill:#909090;" d="M2.15-3.9C2.183-3.867,2.233-3.8,2.3-3.7
				c0.1,0.1,0.184,0.133,0.25,0.1C2.717-3.634,2.733-3.784,2.6-4.05S2.433-4.733,2.5-5.3c0-0.367-0.05-0.566-0.15-0.6L2.2-4.5
				C2.068-4.533,2.001-4.483,2-4.35c-0.001-0.1-0.052-0.133-0.15-0.1c-0.1,0.033-0.167,0.066-0.2,0.1V-4.7l0.1-0.6
				c0-0.3-0.083-0.5-0.25-0.6L1.3-5.55C1.433-5.417,1.45-5.1,1.35-4.6C1.183-4.2,1.1-3.884,1.1-3.65h0.2
				c0.057,0,0.115-0.033,0.175-0.1C1.457-3.717,1.499-3.7,1.6-3.7c0.066,0,0.1-0.033,0.1-0.1l0.2,0.1h0.2L2.15-3.9z"/>
			
				<radialGradient id="SVGID_47_" cx="-2786.7266" cy="-11846.5449" r="3.533" gradientTransform="matrix(0.4458 -0.8951 -0.8951 -0.4458 -9360.373 -7777.5557)" gradientUnits="userSpaceOnUse">
				<stop  offset="0.3255" style="stop-color:#87A6B2;stop-opacity:0.4275"/>
				<stop  offset="0.4549" style="stop-color:#8FAEB9;stop-opacity:0.451"/>
				<stop  offset="0.6667" style="stop-color:#A6C2CC;stop-opacity:0.5137"/>
				<stop  offset="0.9333" style="stop-color:#CBE3EC;stop-opacity:0.6196"/>
			</radialGradient>
			<path style="fill-rule:evenodd;clip-rule:evenodd;fill:url(#SVGID_47_);" d="M3.2-4.75c-0.367-0.333-0.517-0.8-0.45-1.4
				C2.783-6.317,2.7-6.483,2.5-6.65L0.6-6.2c0.267,0.733,0.267,1.3,0,1.7C0.433-4.233,0.283-3.833,0.15-3.3
				C0.017-2.733-0.033-2.284,0-1.95C0.033-1.45,0.267-1,0.7-0.6c0.533,0.533,1.2,0.7,2,0.5c0.867-0.2,1.417-0.65,1.65-1.35
				c0.167-0.6,0.1-1.283-0.2-2.05C4.017-3.833,3.7-4.25,3.2-4.75z"/>
			
				<linearGradient id="SVGID_48_" gradientUnits="userSpaceOnUse" x1="-374.9658" y1="-15957.2031" x2="-372.2879" y2="-15957.2031" gradientTransform="matrix(0.0467 -0.9989 0.9989 0.0467 15958.5869 369.7314)">
				<stop  offset="0" style="stop-color:#FFFFFF;stop-opacity:0.7373"/>
				<stop  offset="1" style="stop-color:#FFFFFF;stop-opacity:0.2863"/>
			</linearGradient>
			<path style="fill-rule:evenodd;clip-rule:evenodd;fill:url(#SVGID_48_);" d="M1.5-0.35c0.3,0.1,0.517,0.1,0.65,0
				c0.167-0.133,0.167-0.284,0-0.45C2.017-0.967,1.9-1.317,1.8-1.85C1.667-2.384,1.6-2.867,1.6-3.3c0-0.566-0.283-0.716-0.85-0.45
				c-0.333,0.966-0.467,1.733-0.4,2.3c0.033,0.333,0.233,0.617,0.6,0.85C1.15-0.5,1.333-0.417,1.5-0.35z"/>
			
				<linearGradient id="SVGID_49_" gradientUnits="userSpaceOnUse" x1="1181.8545" y1="-17379.0391" x2="1187.3806" y2="-17379.0391" gradientTransform="matrix(-0.1357 -0.9907 0.9907 -0.1357 17382.5801 -1188.2593)">
				<stop  offset="0" style="stop-color:#FFFFFF;stop-opacity:0.7373"/>
				<stop  offset="1" style="stop-color:#FFFFFF;stop-opacity:0.2863"/>
			</linearGradient>
			<path style="fill-rule:evenodd;clip-rule:evenodd;fill:url(#SVGID_49_);" d="M4.15-3.5c-0.133-0.333-0.433-0.75-0.9-1.25
				c-0.367-0.333-0.533-0.733-0.5-1.2h-0.1c-0.066,0.1-0.1,0.233-0.1,0.4c-0.033,0.267,0.067,0.5,0.3,0.7
				c0.8,0.6,1.283,1.367,1.45,2.3c0.067,0.333,0.017,0.7-0.15,1.1c-0.133,0.434-0.333,0.767-0.6,1C4.017-0.75,4.3-1.2,4.4-1.8
				C4.467-2.333,4.383-2.9,4.15-3.5z"/>
		</g>
	</g>
</symbol>
<symbol  id="cubimal_x5F_mc" viewBox="-0.385 -24.05 38.989 31.132">
	<g id="Layer_5_1_">
	</g>
	<g id="Layer_4_2_">
	</g>
	<g id="Layer_2_copy_2_">
	</g>
	<g id="Layer_2_2_">
	</g>
	<g id="Layer_7_1_">
	</g>
	<g id="Layer_1_11_">
		
			<use xlink:href="#winder_x5F_static"  width="10.185" height="8.474" x="0.015" y="-8.472" transform="matrix(1 0 0 1 -0.3999 -7.8999)" style="overflow:visible;"/>
		<g>
			
				<linearGradient id="SVGID_50_" gradientUnits="userSpaceOnUse" x1="1521.5869" y1="-17614.0449" x2="1522.9063" y2="-17614.0449" gradientTransform="matrix(-0.1705 -0.9854 0.9854 -0.1705 17623.0605 -1517.0771)">
				<stop  offset="0" style="stop-color:#8F8F8F"/>
				<stop  offset="0.2275" style="stop-color:#E8E8E8"/>
				<stop  offset="1" style="stop-color:#696969"/>
			</linearGradient>
			<path style="fill-rule:evenodd;clip-rule:evenodd;fill:url(#SVGID_50_);" d="M10.35-13.95l-5.4,0.8C4.65-13.183,4.5-13,4.5-12.6
				c0,0.233,0.083,0.4,0.25,0.5c0.067,0.033,0.133,0.05,0.2,0.05l5.4-0.75V-13.95z"/>
			<g>
				<g>
					<path style="fill-rule:evenodd;clip-rule:evenodd;fill:#909090;" d="M28.6,3.2c0.033,0.034,0.083,0.1,0.15,0.2
						c0.1,0.1,0.184,0.133,0.25,0.1c0.167-0.034,0.184-0.184,0.05-0.45s-0.167-0.683-0.1-1.25c0-0.367-0.05-0.566-0.15-0.6
						l-0.15,1.4c-0.132-0.033-0.199,0.017-0.2,0.15c-0.001-0.1-0.052-0.133-0.15-0.1c-0.1,0.033-0.167,0.066-0.2,0.1V2.4l0.1-0.6
						c0-0.3-0.083-0.5-0.25-0.6l-0.2,0.35C27.883,1.684,27.9,2,27.8,2.5c-0.167,0.4-0.25,0.716-0.25,0.95h0.2
						c0.057,0,0.115-0.033,0.175-0.1C27.907,3.384,27.949,3.4,28.05,3.4c0.066,0,0.1-0.033,0.1-0.1l0.2,0.1h0.2L28.6,3.2z"/>
					
						<radialGradient id="SVGID_51_" cx="-2781.291" cy="-11819.7031" r="3.533" gradientTransform="matrix(0.4458 -0.8951 -0.8951 -0.4458 -9312.3203 -7753.624)" gradientUnits="userSpaceOnUse">
						<stop  offset="0.3255" style="stop-color:#87A6B2;stop-opacity:0.4275"/>
						<stop  offset="0.4549" style="stop-color:#8FAEB9;stop-opacity:0.451"/>
						<stop  offset="0.6667" style="stop-color:#A6C2CC;stop-opacity:0.5137"/>
						<stop  offset="0.9333" style="stop-color:#CBE3EC;stop-opacity:0.6196"/>
					</radialGradient>
					<path style="fill-rule:evenodd;clip-rule:evenodd;fill:url(#SVGID_51_);" d="M29.65,2.351c-0.367-0.333-0.517-0.8-0.45-1.4
						c0.033-0.167-0.05-0.333-0.25-0.5l-1.9,0.45c0.267,0.733,0.267,1.3,0,1.7c-0.167,0.267-0.317,0.667-0.45,1.2
						c-0.133,0.567-0.183,1.017-0.15,1.35c0.033,0.5,0.267,0.95,0.7,1.35c0.533,0.533,1.2,0.7,2,0.5c0.867-0.2,1.417-0.65,1.65-1.35
						c0.167-0.6,0.1-1.283-0.2-2.05C30.467,3.267,30.15,2.851,29.65,2.351z"/>
					
						<linearGradient id="SVGID_52_" gradientUnits="userSpaceOnUse" x1="-380.8242" y1="-15930.4512" x2="-378.1463" y2="-15930.4512" gradientTransform="matrix(0.0467 -0.9989 0.9989 0.0467 15958.5869 369.7314)">
						<stop  offset="0" style="stop-color:#FFFFFF;stop-opacity:0.7373"/>
						<stop  offset="1" style="stop-color:#FFFFFF;stop-opacity:0.2863"/>
					</linearGradient>
					<path style="fill-rule:evenodd;clip-rule:evenodd;fill:url(#SVGID_52_);" d="M27.95,6.75c0.3,0.1,0.517,0.1,0.65,0
						c0.167-0.133,0.167-0.284,0-0.45c-0.133-0.167-0.25-0.517-0.35-1.05c-0.133-0.534-0.2-1.017-0.2-1.45
						c0-0.566-0.283-0.716-0.85-0.45c-0.333,0.966-0.467,1.733-0.4,2.3c0.033,0.333,0.233,0.617,0.6,0.85
						C27.6,6.601,27.784,6.684,27.95,6.75z"/>
					
						<linearGradient id="SVGID_53_" gradientUnits="userSpaceOnUse" x1="1171.23" y1="-17353.7969" x2="1176.7561" y2="-17353.7969" gradientTransform="matrix(-0.1357 -0.9907 0.9907 -0.1357 17382.5801 -1188.2593)">
						<stop  offset="0" style="stop-color:#FFFFFF;stop-opacity:0.7373"/>
						<stop  offset="1" style="stop-color:#FFFFFF;stop-opacity:0.2863"/>
					</linearGradient>
					<path style="fill-rule:evenodd;clip-rule:evenodd;fill:url(#SVGID_53_);" d="M30.6,3.601c-0.133-0.333-0.433-0.75-0.9-1.25
						c-0.367-0.333-0.533-0.733-0.5-1.2h-0.1c-0.066,0.1-0.1,0.233-0.1,0.4c-0.033,0.267,0.067,0.5,0.3,0.7
						c0.8,0.6,1.283,1.367,1.45,2.3c0.067,0.333,0.017,0.7-0.15,1.1c-0.133,0.434-0.333,0.767-0.6,1c0.467-0.3,0.75-0.75,0.85-1.35
						C30.917,4.767,30.833,4.2,30.6,3.601z"/>
				</g>
				<linearGradient id="SVGID_54_" gradientUnits="userSpaceOnUse" x1="25.4878" y1="-2.395" x2="29.4128" y2="-2.395">
					<stop  offset="0" style="stop-color:#F6DED6"/>
					<stop  offset="1" style="stop-color:#A06853"/>
				</linearGradient>
				<path style="fill-rule:evenodd;clip-rule:evenodd;fill:url(#SVGID_54_);" d="M26.8-6.75l-1.3,2.9
					c0.7,0.934,0.983,2.783,0.85,5.55l0.55,0.2c0.367,0.167,1.216-0.017,2.55-0.55L29.4,0.3c-0.067-0.9-0.2-1.8-0.4-2.7
					C28.7-3.899,27.967-5.35,26.8-6.75z"/>
			</g>
			
				<linearGradient id="SVGID_55_" gradientUnits="userSpaceOnUse" x1="-2106.7363" y1="-13431.9531" x2="-2087.5879" y2="-13431.9531" gradientTransform="matrix(0.3068 -0.9518 0.9518 0.3068 13447.0986 2111.3125)">
				<stop  offset="0" style="stop-color:#A2B619"/>
				<stop  offset="1" style="stop-color:#6A780D"/>
			</linearGradient>
			<path style="fill-rule:evenodd;clip-rule:evenodd;fill:url(#SVGID_55_);" d="M16.75-0.899c0.9,0.033,2.833-0.15,5.8-0.55
				c3.1-0.433,5.017-0.65,5.75-0.65c1.133,0,1.983-0.217,2.55-0.65c0.367-0.333,0.633-0.8,0.8-1.4
				c0.167-0.534,0.25-4.384,0.25-11.55v-1.45c-0.034-0.5-0.184-0.95-0.45-1.35c-0.267-0.434-1.167-1.184-2.7-2.25
				c-1.367-0.967-2.35-1.6-2.95-1.9c-1.633-0.934-2.9-1.4-3.8-1.4c-2.4,0.3-4.25,0.45-5.55,0.45c-1.633,0.033-4.333,0.383-8.1,1.05
				c-0.7,0.134-1.183,0.417-1.45,0.85c-0.333,0.7-0.517,2.05-0.55,4.05C6.184-14.383,6.1-12,6.1-10.5
				c0.033,2.667,0.417,4.25,1.15,4.75c0.967,0.667,2.5,1.566,4.6,2.7C14.383-1.649,16.017-0.933,16.75-0.899z"/>
			<g>
				
					<linearGradient id="SVGID_56_" gradientUnits="userSpaceOnUse" x1="-2103.543" y1="-13444.9707" x2="-2086.8137" y2="-13444.9707" gradientTransform="matrix(0.3063 -0.9519 0.9519 0.3063 13452.1143 2108.7393)">
					<stop  offset="0" style="stop-color:#889A13"/>
					<stop  offset="1" style="stop-color:#596409"/>
				</linearGradient>
				<path style="fill-rule:evenodd;clip-rule:evenodd;fill:url(#SVGID_56_);" d="M12.35-18.55c-0.1-1.233-0.017-2.783,0.25-4.65
					l-3.15,0.5c-0.367,3.967-0.483,8.05-0.35,12.25C9.133-8.683,9.317-7.1,9.65-5.7l0.45,1.6l3.1-2c-0.5-0.633-0.783-2.65-0.85-6.05
					C12.317-13.916,12.317-16.05,12.35-18.55z"/>
				
					<linearGradient id="SVGID_57_" gradientUnits="userSpaceOnUse" x1="-2101.4863" y1="-13439.0547" x2="-2084.7571" y2="-13439.0547" gradientTransform="matrix(0.3063 -0.9519 0.9519 0.3063 13452.1143 2108.7393)">
					<stop  offset="0" style="stop-color:#889A13"/>
					<stop  offset="1" style="stop-color:#596409"/>
				</linearGradient>
				<path style="fill-rule:evenodd;clip-rule:evenodd;fill:url(#SVGID_57_);" d="M16.4-4.25l3.15-2c-0.5-0.6-0.783-2.617-0.85-6.05
					c-0.033-1.767-0.05-3.9-0.05-6.4c-0.067-0.9,0.05-2.583,0.35-5.05c-1.2,0.1-2.05,0.15-2.55,0.15l-0.6,0.05
					c-0.133,1.3-0.25,3.284-0.35,5.95c-0.1,2.867-0.133,5.2-0.1,7c0.066,1.767,0.25,3.35,0.55,4.75L16.4-4.25z"/>
			</g>
			
				<linearGradient id="SVGID_58_" gradientUnits="userSpaceOnUse" x1="-2369.1104" y1="-12867.0352" x2="-2352.1125" y2="-12867.0352" gradientTransform="matrix(0.3574 -0.934 0.934 0.3574 12887.9375 2379.2949)">
				<stop  offset="0" style="stop-color:#889A13"/>
				<stop  offset="1" style="stop-color:#596409"/>
			</linearGradient>
			<path style="fill-rule:evenodd;clip-rule:evenodd;fill:url(#SVGID_58_);" d="M31.65-4.149c0.066-0.233,0.133-1.1,0.2-2.6
				c0.033-1.067,0.05-4.05,0.05-8.95v-1.45c-0.034-0.5-0.184-0.95-0.45-1.35c-0.267-0.434-1.167-1.184-2.7-2.25
				c-1.367-0.967-2.35-1.6-2.95-1.9c-0.3-0.167-0.934-0.434-1.9-0.8c-0.967-0.367-1.6-0.566-1.9-0.6
				c0.333,0.667,0.483,1.384,0.45,2.15l-0.05,14l0.05,0.15c0.167,0.167,1.083,0.667,2.75,1.5c1.8,0.867,2.967,1.483,3.5,1.85
				c1.5,0.966,2.267,1.466,2.3,1.5C31.333-3.266,31.55-3.683,31.65-4.149z"/>
			<linearGradient id="SVGID_59_" gradientUnits="userSpaceOnUse" x1="6.75" y1="-4.3169" x2="30.95" y2="-4.3169">
				<stop  offset="0" style="stop-color:#B9D11E"/>
				<stop  offset="1" style="stop-color:#93A616"/>
			</linearGradient>
			<path style="fill-rule:evenodd;clip-rule:evenodd;fill:url(#SVGID_59_);" d="M29.45-4.1c-0.5-0.3-1.8-0.967-3.9-2
				c-1.867-0.9-2.9-1.45-3.1-1.65c-0.867,0.066-3.767,0.367-8.7,0.9c-3.733,0.4-6.066,0.566-7,0.5c0.167,0.267,0.333,0.467,0.5,0.6
				c0.967,0.667,2.5,1.566,4.6,2.7c2.533,1.4,4.167,2.117,4.9,2.15c2.267,0.1,6.117-0.3,11.55-1.2c1.433-0.2,2.333-0.467,2.7-0.8
				C30.633-3.266,30.117-3.666,29.45-4.1z"/>
			<linearGradient id="SVGID_60_" gradientUnits="userSpaceOnUse" x1="7.875" y1="-4.1748" x2="31.225" y2="-4.1748">
				<stop  offset="0" style="stop-color:#A2B619"/>
				<stop  offset="1" style="stop-color:#6A780D"/>
			</linearGradient>
			<path style="fill-rule:evenodd;clip-rule:evenodd;fill:url(#SVGID_60_);" d="M22.55-3.149l-1.9-0.4l8.5-0.55l0.25-0.05
				c-0.733-0.434-1.917-1.034-3.55-1.8c-0.367,0.233-0.933,0.467-1.7,0.7l-3.8,1.2L19.8-5.2c-0.4-0.867-0.667-1.6-0.8-2.2l-3.1,0.3
				l1.15,1.35C17.583-5.116,18.233-4.466,19-3.8c-2.7-1.133-4.633-2.133-5.8-3L9.8-6.45l3.2,1.55c0.833,0.366,2.55,0.883,5.15,1.55
				c-3.2-0.133-5.733-0.267-7.6-0.4c2.133,1.167,3.583,1.917,4.35,2.25l2.2-0.85c0.6-0.2,1.1-0.417,1.5-0.65l-0.35,1.95l-0.05,0.1
				c0.9,0,2.05-0.083,3.45-0.25c-0.467-0.4-0.733-0.683-0.8-0.85c-0.033-0.167-0.267-0.517-0.7-1.05l4.6,1.5l3.55-0.5
				c0.8-0.1,1.4-0.217,1.8-0.35l-4.2-0.3C25.067-2.783,23.95-2.916,22.55-3.149z"/>
			<path style="fill-rule:evenodd;clip-rule:evenodd;fill:#B4C630;" d="M31-2.899c-0.066-0.4-1.45-1.333-4.15-2.8
				c-2.7-1.5-4.083-2.433-4.15-2.8c-0.067-0.333-0.067-4.467,0-12.4c-0.033-1.7-0.267-2.75-0.7-3.15l0.2,0.6
				c0.1,0.267,0.133,2.267,0.1,6c-0.033,3.434-0.083,5.8-0.15,7.1c-0.067,1.1-0.133,1.733-0.2,1.9c-0.067,0.2-0.25,0.333-0.55,0.4
				c-0.4,0.1-3.233,0.417-8.5,0.95l-6.1,1l7.6-0.8c1.367-0.167,2.983-0.317,4.85-0.45c1.833-0.133,2.883-0.167,3.15-0.1
				c0.333,0.034,1.633,0.65,3.9,1.85C27.767-4.833,29.333-3.933,31-2.899z"/>
			<g>
				<g>
					<path style="fill-rule:evenodd;clip-rule:evenodd;fill:#584D39;" d="M27.15-13.7c0-0.733-0.2-1.383-0.6-1.95
						c-0.367-0.534-0.833-0.817-1.4-0.85c-0.534,0-1,0.25-1.4,0.75c-0.367,0.5-0.55,1.133-0.55,1.9c0,0.733,0.183,1.35,0.55,1.85
						c0.4,0.533,0.867,0.816,1.4,0.85c0.566,0.033,1.033-0.2,1.4-0.7C26.95-12.35,27.15-12.966,27.15-13.7z"/>
					
						<radialGradient id="SVGID_61_" cx="19.5513" cy="288.1348" r="1.9891" gradientTransform="matrix(0.9993 0.0377 0 -0.861 5.8125 234.0547)" gradientUnits="userSpaceOnUse">
						<stop  offset="0" style="stop-color:#E5DDC4"/>
						<stop  offset="1" style="stop-color:#D3C48E"/>
					</radialGradient>
					<path style="fill-rule:evenodd;clip-rule:evenodd;fill:url(#SVGID_61_);" d="M27-13.7c0-0.566-0.167-1.05-0.5-1.45
						c-0.333-0.4-0.716-0.6-1.15-0.6c-0.467-0.034-0.85,0.133-1.15,0.5c-0.333,0.4-0.5,0.867-0.5,1.4s0.167,1,0.5,1.4
						c0.3,0.367,0.683,0.567,1.15,0.6c0.467,0,0.85-0.184,1.15-0.55C26.833-12.733,27-13.166,27-13.7z"/>
				</g>
				<g>
					<path style="fill-rule:evenodd;clip-rule:evenodd;fill:#584D39;" d="M31.85-10.649c0-0.7-0.133-1.3-0.4-1.8
						c-0.3-0.5-0.65-0.767-1.05-0.8c-0.367-0.034-0.7,0.183-1,0.65c-0.267,0.434-0.4,1-0.4,1.7c0,0.7,0.133,1.316,0.4,1.85
						c0.3,0.5,0.633,0.767,1,0.8c0.4,0.033,0.75-0.2,1.05-0.7C31.717-9.416,31.85-9.983,31.85-10.649z"/>
					
						<radialGradient id="SVGID_62_" cx="7.7349" cy="574.7373" r="1.8426" gradientTransform="matrix(0.9972 0.0746 0 -0.7869 22.7866 441.5928)" gradientUnits="userSpaceOnUse">
						<stop  offset="0" style="stop-color:#E5DDC4"/>
						<stop  offset="1" style="stop-color:#D3C48E"/>
					</radialGradient>
					<path style="fill-rule:evenodd;clip-rule:evenodd;fill:url(#SVGID_62_);" d="M31.65-10.6c0-0.5-0.117-0.95-0.35-1.35
						c-0.233-0.367-0.517-0.566-0.85-0.6c-0.3,0-0.567,0.167-0.8,0.5c-0.233,0.333-0.35,0.75-0.35,1.25s0.117,0.95,0.35,1.35
						c0.233,0.367,0.5,0.567,0.8,0.6c0.333,0.033,0.617-0.133,0.85-0.5C31.534-9.683,31.65-10.1,31.65-10.6z"/>
				</g>
				<path style="fill-rule:evenodd;clip-rule:evenodd;fill:#493E28;" d="M26.35-13.899c0-0.4-0.1-0.75-0.3-1.05
					c-0.233-0.267-0.5-0.417-0.8-0.45c-0.3,0-0.55,0.133-0.75,0.4c-0.2,0.267-0.3,0.6-0.3,1s0.1,0.733,0.3,1
					c0.2,0.3,0.45,0.45,0.75,0.45c0.3,0,0.567-0.133,0.8-0.4C26.25-13.216,26.35-13.533,26.35-13.899z"/>
				<path style="fill-rule:evenodd;clip-rule:evenodd;fill:#493E28;" d="M31.65-10.7c0-0.333-0.083-0.617-0.25-0.85
					c-0.167-0.267-0.367-0.4-0.6-0.4c-0.233-0.033-0.417,0.067-0.55,0.3C30.083-11.45,30-11.166,30-10.8
					c0,0.333,0.083,0.617,0.25,0.85c0.133,0.233,0.317,0.367,0.55,0.4c0.233,0.034,0.433-0.066,0.6-0.3
					C31.567-10.083,31.65-10.366,31.65-10.7z"/>
				<path style="fill-rule:evenodd;clip-rule:evenodd;fill:#FFFFFF;" d="M25-13.45c0-0.367-0.167-0.55-0.5-0.55
					c-0.333,0-0.5,0.183-0.5,0.55s0.167,0.55,0.5,0.55C24.833-12.899,25-13.083,25-13.45z"/>
				<path style="fill-rule:evenodd;clip-rule:evenodd;fill:#FFFFFF;" d="M30.65-10.3c0-0.4-0.184-0.6-0.55-0.6s-0.55,0.2-0.55,0.6
					c0,0.367,0.183,0.55,0.55,0.55S30.65-9.933,30.65-10.3z"/>
			</g>
			
				<radialGradient id="SVGID_63_" cx="20.1001" cy="-4.8994" r="11.75" gradientTransform="matrix(1 0 0 -0.2532 0 -6.1401)" gradientUnits="userSpaceOnUse">
				<stop  offset="0.2824" style="stop-color:#000000;stop-opacity:0.6275"/>
				<stop  offset="1" style="stop-color:#000000;stop-opacity:0"/>
			</radialGradient>
			<path style="fill-rule:evenodd;clip-rule:evenodd;fill:url(#SVGID_63_);" d="M31.85-4.899c0-0.833-1.15-1.534-3.45-2.1
				c-2.267-0.567-5.034-0.85-8.3-0.85S14.067-7.566,11.8-7c-2.3,0.566-3.45,1.267-3.45,2.1c0,0.833,1.15,1.533,3.45,2.1
				c2.3,0.6,5.066,0.9,8.3,0.9s6-0.3,8.3-0.9C30.7-3.366,31.85-4.066,31.85-4.899z"/>
			<path style="fill-rule:evenodd;clip-rule:evenodd;fill:#D8C433;" d="M17.7,0.95c3.333,0.134,6.033-0.233,8.1-1.1
				c1.9-0.767,2.55-1.567,1.95-2.4c-0.633-0.833-1.316-1.483-2.05-1.95c-0.967-0.567-2.4-1.083-4.3-1.55
				c-1.767-0.433-3.75-0.267-5.95,0.5c-0.833,0.3-2.017,0.85-3.55,1.65c-1,0.566-1.184,1.4-0.55,2.5c0.3,0.533,1.184,1.05,2.65,1.55
				C15.367,0.617,16.6,0.884,17.7,0.95z"/>
			<path style="fill-rule:evenodd;clip-rule:evenodd;fill:#AE9E29;" d="M21.4-6.05c-1.767-0.433-3.75-0.267-5.95,0.5
				c-0.833,0.3-2.017,0.85-3.55,1.65c-0.9,0.5-1.117,1.25-0.65,2.25c0.767-1.1,1.85-1.967,3.25-2.6
				c2.667-1.133,5.284-1.35,7.85-0.65c0.533,0.133,1.367,0.366,2.5,0.7c1,0.333,1.8,0.667,2.4,1c-0.566-0.633-1.233-1.15-2-1.55
				C24.317-5.25,23.034-5.683,21.4-6.05z"/>
			<path style="fill-rule:evenodd;clip-rule:evenodd;fill:#A79826;" d="M16-0.1c1.367,0.233,3.034,0.35,5,0.35
				c1.4,0,2.65-0.233,3.75-0.7c1.034-0.466,1.517-0.95,1.45-1.45c-0.1-0.534-0.917-1.034-2.45-1.5C22.083-3.866,20.5-4,19-3.8
				c-1.9,0.267-3.25,0.534-4.05,0.8c-1.133,0.367-1.717,0.85-1.75,1.45C13.1-0.883,14.034-0.399,16-0.1z"/>
			<path style="fill-rule:evenodd;clip-rule:evenodd;fill:#7D721D;" d="M16-0.1c1.367,0.233,3.034,0.35,5,0.35
				c1.4,0,2.65-0.233,3.75-0.7c1.034-0.466,1.517-0.95,1.45-1.45c-0.1-0.367-0.567-0.733-1.4-1.1c-3.167,1.3-6.033,1.783-8.6,1.45
				c-0.967-0.167-1.7-0.5-2.2-1c-0.533,0.267-0.8,0.6-0.8,1C13.1-0.883,14.034-0.399,16-0.1z"/>
			<path style="fill-rule:evenodd;clip-rule:evenodd;fill:#D8C433;" d="M16.5-2.399c0.1,0.633,0.25,1.316,0.45,2.05
				c0.467,1.434,1.05,2.367,1.75,2.8c0.833,0.5,1.5,0.65,2,0.45c0.5-0.233,1-0.883,1.5-1.95c0.667-1.466,0.883-2.8,0.65-4
				c-0.566-0.3-1.25-0.483-2.05-0.55C19.2-3.766,17.767-3.366,16.5-2.399z"/>
			<g>
				<path style="fill-rule:evenodd;clip-rule:evenodd;fill:#A87F19;" d="M22.7-0.6l-0.15-0.15c-0.2-0.1-0.5-0.1-0.9,0
					c-0.434,0.167-0.7,0.233-0.8,0.2c-0.167-0.033-0.333-0.133-0.5-0.3c-0.1-0.1-0.267-0.117-0.5-0.05
					c-0.267,0.2-0.483,0.316-0.65,0.35c-0.2,0.1-0.317,0.15-0.35,0.15c-0.2,0.033-0.383-0.034-0.55-0.2c-0.2-0.2-0.35-0.3-0.45-0.3
					c-0.4-0.034-0.7,0.1-0.9,0.4c0.167,0.667,0.417,1.267,0.75,1.8V0.95c0.3-0.1,0.633-0.066,1,0.1c0.4-0.5,0.617-0.867,0.65-1.1
					c0.267-0.066,0.533-0.066,0.8,0c0.066,0.534,0.283,0.9,0.65,1.1c0.167-0.4,0.633-0.483,1.4-0.25
					C22.4,0.434,22.567-0.033,22.7-0.6z"/>
				<path style="fill-rule:evenodd;clip-rule:evenodd;fill:#A87F19;" d="M16.8-0.899c0.1-0.233,0.133-0.5,0.1-0.8
					c-0.067-0.3-0.2-0.5-0.4-0.6L16.8-0.899z"/>
				<path style="fill-rule:evenodd;clip-rule:evenodd;fill:#A87F19;" d="M18-1.899l0.85,0.15c0.333-0.034,0.5-0.233,0.5-0.6
					l-0.2-0.85c-0.534-0.066-0.867,0-1,0.2C18.05-2.866,18-2.5,18-1.899z"/>
				<path style="fill-rule:evenodd;clip-rule:evenodd;fill:#A87F19;" d="M21.35-1.899c0.033-0.3-0.033-0.55-0.2-0.75
					c-0.167-0.267-0.383-0.284-0.65-0.05c-0.167,0.133-0.233,0.367-0.2,0.7s0.167,0.533,0.4,0.6L21.35-1.899z"/>
				<path style="fill-rule:evenodd;clip-rule:evenodd;fill:#A87F19;" d="M22.85-1.3l0.05-1.1c-0.233,0.066-0.367,0.167-0.4,0.3
					C22.333-1.7,22.45-1.433,22.85-1.3z"/>
			</g>
			<g>
				<path style="fill-rule:evenodd;clip-rule:evenodd;fill:#846E13;" d="M29.5-15.6l1.2,0.4c0.233,0,0.167-0.333-0.2-1l-0.45-1
					l0.3-1.2c0.033-0.067,0.067-0.15,0.1-0.25c0-0.067-0.1-0.117-0.3-0.15h-1c-0.4-0.633-0.684-1.033-0.85-1.2
					c-0.3-0.467-0.434-0.383-0.4,0.25v1.3c-0.633,0.3-1.05,0.467-1.25,0.5c-0.167,0.067-0.284,0.15-0.35,0.25
					c-0.033,0.1,0.017,0.2,0.15,0.3l1.4,1c0.033,0.366,0.083,0.75,0.15,1.15c0.133,0.767,0.233,1.15,0.3,1.15
					c0.033,0,0.133,0.083,0.3,0.25c0.133,0.133,0.233,0.117,0.3-0.05L29.5-15.6z"/>
				<path style="fill-rule:evenodd;clip-rule:evenodd;fill:#C6A41D;" d="M29.8-15.35l1.15,0.4c0.2,0,0.15-0.333-0.15-1l-0.45-1
					l0.25-1.15c0.033-0.066,0.083-0.15,0.15-0.25c0-0.1-0.1-0.15-0.3-0.15h-1c-0.4-0.633-0.667-1.034-0.8-1.2
					c-0.167-0.167-0.267-0.25-0.3-0.25c-0.1,0-0.15,0.167-0.15,0.5l0.05,1.35L27-17.6c-0.167,0.033-0.267,0.1-0.3,0.2
					c-0.067,0.133-0.033,0.25,0.1,0.35l1.4,0.95c0.033,0.367,0.083,0.75,0.15,1.15c0.133,0.767,0.233,1.133,0.3,1.1
					c0.233,0,0.466-0.233,0.7-0.7C29.45-14.816,29.6-15.083,29.8-15.35z"/>
				
					<radialGradient id="SVGID_64_" cx="14503.3496" cy="-19412.8984" r="2.8302" gradientTransform="matrix(-0.848 -0.53 0.2385 -0.9893 16957.4844 -11534.1299)" gradientUnits="userSpaceOnUse">
					<stop  offset="0" style="stop-color:#F1DF6F"/>
					<stop  offset="1" style="stop-color:#DFCA2D"/>
				</radialGradient>
				<path style="fill-rule:evenodd;clip-rule:evenodd;fill:url(#SVGID_64_);" d="M29.8-15.25l1.1,0.35c0.2,0,0.133-0.317-0.2-0.95
					l-0.4-0.95l0.25-1.1c0.033-0.067,0.066-0.167,0.1-0.3c0.033-0.066-0.05-0.1-0.25-0.1h-0.95c-0.367-0.6-0.617-0.983-0.75-1.15
					c-0.1-0.167-0.183-0.25-0.25-0.25c-0.1,0.034-0.133,0.217-0.1,0.55v1.25l-1.15,0.5c-0.4,0.133-0.467,0.316-0.2,0.55L28.3-16
					c0.033,0.367,0.083,0.733,0.15,1.1c0.1,0.733,0.183,1.1,0.25,1.1c0.267-0.1,0.467-0.333,0.6-0.7L29.8-15.25z"/>
				
					<radialGradient id="SVGID_65_" cx="14568.9023" cy="-19389.6328" r="2.7269" gradientTransform="matrix(-0.8526 -0.5226 0.2338 -0.9993 16983.125 -11777.9678)" gradientUnits="userSpaceOnUse">
					<stop  offset="0" style="stop-color:#FDF9DD"/>
					<stop  offset="1" style="stop-color:#FDF775"/>
				</radialGradient>
				<path style="fill-rule:evenodd;clip-rule:evenodd;fill:url(#SVGID_65_);" d="M30.6-15.95l-0.2-0.55
					c-0.7,0.267-1.534,0.167-2.5-0.3l-0.8-0.4c-0.066,0.1-0.033,0.2,0.1,0.3l1.15,0.8c0.033,0.333,0.083,0.667,0.15,1
					c0.1,0.7,0.184,1.033,0.25,1c0.167,0,0.367-0.2,0.6-0.6l0.4-0.7l1,0.3C30.95-15.1,30.9-15.383,30.6-15.95z"/>
			</g>
			
				<radialGradient id="SVGID_66_" cx="15.5" cy="-15.3496" r="5.325" gradientTransform="matrix(1 0 0 -1.1878 0 -33.582)" gradientUnits="userSpaceOnUse">
				<stop  offset="0" style="stop-color:#000000;stop-opacity:0.6275"/>
				<stop  offset="1" style="stop-color:#000000;stop-opacity:0"/>
			</radialGradient>
			<path style="fill-rule:evenodd;clip-rule:evenodd;fill:url(#SVGID_66_);" d="M20.85-15.35c0-1.767-0.517-3.267-1.55-4.5
				c-1.067-1.233-2.333-1.85-3.8-1.85c-1.466,0-2.716,0.617-3.75,1.85c-1.033,1.233-1.55,2.733-1.55,4.5c0,1.733,0.517,3.2,1.55,4.4
				c1.034,1.233,2.284,1.85,3.75,1.85c1.467,0,2.733-0.617,3.8-1.85C20.333-12.149,20.85-13.616,20.85-15.35z"/>
			
				<radialGradient id="SVGID_67_" cx="28.75" cy="-6.7998" r="1.3624" gradientTransform="matrix(1 0 0 -1.5688 0 -17.4673)" gradientUnits="userSpaceOnUse">
				<stop  offset="0" style="stop-color:#000000;stop-opacity:0.2588"/>
				<stop  offset="1" style="stop-color:#000000;stop-opacity:0"/>
			</radialGradient>
			<path style="fill-rule:evenodd;clip-rule:evenodd;fill:url(#SVGID_67_);" d="M30.1-6.8c0-0.566-0.133-1.066-0.4-1.5
				c-0.267-0.4-0.583-0.6-0.95-0.6s-0.683,0.2-0.95,0.6c-0.267,0.434-0.4,0.934-0.4,1.5c0,0.6,0.133,1.1,0.4,1.5
				c0.267,0.434,0.583,0.65,0.95,0.65s0.684-0.217,0.95-0.65C29.967-5.7,30.1-6.2,30.1-6.8z"/>
			<g>
				<linearGradient id="SVGID_68_" gradientUnits="userSpaceOnUse" x1="30.4136" y1="-5.8618" x2="29.7886" y2="-5.8868">
					<stop  offset="0" style="stop-color:#5C5C5C"/>
					<stop  offset="0.698" style="stop-color:#FFFFFF"/>
					<stop  offset="1" style="stop-color:#8B8B8B"/>
				</linearGradient>
				<path style="fill-rule:evenodd;clip-rule:evenodd;fill:url(#SVGID_68_);" d="M29-6.5c-0.1,0-0.167,0.066-0.2,0.2
					c-0.033,0.134-0.033,0.233,0,0.3l0.05,0.05l2.35,0.7l0.4-0.6L29-6.5z"/>
				<linearGradient id="SVGID_69_" gradientUnits="userSpaceOnUse" x1="30.124" y1="-5.4927" x2="35.074" y2="-4.8927">
					<stop  offset="0" style="stop-color:#D1C931"/>
					<stop  offset="1" style="stop-color:#7B7617"/>
				</linearGradient>
				<path style="fill-rule:evenodd;clip-rule:evenodd;fill:url(#SVGID_69_);" d="M32.05-2.75c0.533,0.133,1.033-0.017,1.5-0.45
					c0.433-0.4,0.733-0.933,0.9-1.6c0.167-0.667,0.117-1.283-0.15-1.85c-0.267-0.534-0.667-0.867-1.2-1
					c-0.5-0.1-0.983,0.05-1.45,0.45c-0.467,0.4-0.767,0.95-0.9,1.65c-0.133,0.667-0.083,1.284,0.15,1.85
					C31.167-3.166,31.55-2.85,32.05-2.75z"/>
				<linearGradient id="SVGID_70_" gradientUnits="userSpaceOnUse" x1="34.3794" y1="-5.2163" x2="29.5794" y2="-5.4413">
					<stop  offset="0" style="stop-color:#8B851A"/>
					<stop  offset="0.5569" style="stop-color:#E5E09A"/>
					<stop  offset="1" style="stop-color:#CFC732"/>
				</linearGradient>
				<path style="fill-rule:evenodd;clip-rule:evenodd;fill:url(#SVGID_70_);" d="M31.55-3c-0.434-1.1-0.6-1.9-0.5-2.4
					c0.167-0.7,0.45-1.25,0.85-1.65c0.466-0.433,0.95-0.6,1.45-0.5c0.2,0.034,0.434,0.15,0.7,0.35
					c-0.267-0.233-0.517-0.367-0.75-0.4c-0.533-0.1-1.033,0.05-1.5,0.45c-0.434,0.4-0.733,0.933-0.9,1.6
					C30.7-4.483,30.917-3.633,31.55-3z"/>
				<path style="fill-rule:evenodd;clip-rule:evenodd;fill:#7F7B0F;" d="M33.9-5.75c0.333-0.467,0.383-0.9,0.15-1.3
					c-0.2-0.333-0.517-0.5-0.95-0.5c-0.5,0-0.85,0.217-1.05,0.65c-0.367,0.7-0.4,1.4-0.1,2.1C32.25-4.066,32.9-4.383,33.9-5.75z"/>
				<path style="fill-rule:evenodd;clip-rule:evenodd;fill:#6E6915;" d="M33.9-5.399c0.3-0.367,0.333-0.75,0.1-1.15
					c-0.167-0.3-0.5-0.417-1-0.35c-0.466,0.033-0.8,0.25-1,0.65c-0.3,0.633-0.283,1.216,0.05,1.75
					C32.417-3.899,33.034-4.2,33.9-5.399z"/>
				<linearGradient id="SVGID_71_" gradientUnits="userSpaceOnUse" x1="32.5913" y1="-5.1704" x2="35.2913" y2="-4.6954">
					<stop  offset="0" style="stop-color:#D1C931"/>
					<stop  offset="1" style="stop-color:#7B7617"/>
				</linearGradient>
				<path style="fill-rule:evenodd;clip-rule:evenodd;fill:url(#SVGID_71_);" d="M36.2-5.149l-2.9-1.4c-0.767-0.033-1.267,0.3-1.5,1
					c-0.167,0.567-0.117,1.05,0.15,1.45c0.133,0.2,0.283,0.333,0.45,0.4l2.9,0.4L36.2-5.149z"/>
				<path style="fill-rule:evenodd;clip-rule:evenodd;fill:#787317;" d="M35.3-3.3l0.9-1.85l-2.9-1.4c-0.767-0.033-1.267,0.3-1.5,1
					v0.1c0.4-0.433,1-0.517,1.8-0.25l0.35,0.2c0.6,0.267,0.933,0.617,1,1.05L35-4c0.1,0.1,0.167,0.316,0.2,0.65v0.05H35.3z"/>
				<linearGradient id="SVGID_72_" gradientUnits="userSpaceOnUse" x1="34.5347" y1="-4.2002" x2="39.0597" y2="-3.6502">
					<stop  offset="0" style="stop-color:#D1C931"/>
					<stop  offset="1" style="stop-color:#7B7617"/>
				</linearGradient>
				<path style="fill-rule:evenodd;clip-rule:evenodd;fill:url(#SVGID_72_);" d="M36.25-1.7c0.467,0.1,0.917-0.05,1.35-0.45
					C38.034-2.516,38.333-3,38.5-3.6c0.167-0.633,0.133-1.2-0.1-1.7c-0.233-0.5-0.583-0.783-1.05-0.85
					c-0.467-0.1-0.917,0.033-1.35,0.4c-0.433,0.4-0.733,0.9-0.9,1.5c-0.133,0.633-0.1,1.2,0.1,1.7
					C35.434-2.05,35.784-1.766,36.25-1.7z"/>
				<path style="fill-rule:evenodd;clip-rule:evenodd;fill:#787317;" d="M38-2.55c0.233-0.267,0.4-0.616,0.5-1.05
					c0.167-0.633,0.133-1.2-0.1-1.7c-0.233-0.5-0.583-0.783-1.05-0.85c-0.467-0.1-0.917,0.033-1.35,0.4
					c-0.433,0.4-0.733,0.9-0.9,1.5v0.1l0.05-0.15c0.167-0.433,0.417-0.75,0.75-0.95c0.466-0.3,0.95-0.284,1.45,0.05
					c0.434,0.267,0.7,0.633,0.8,1.1C38.25-3.566,38.2-3.05,38-2.55z"/>
				<linearGradient id="SVGID_73_" gradientUnits="userSpaceOnUse" x1="38.4619" y1="-3.9614" x2="34.0119" y2="-4.1864">
					<stop  offset="0" style="stop-color:#8B851A"/>
					<stop  offset="0.5569" style="stop-color:#E5E09A"/>
					<stop  offset="1" style="stop-color:#CFC732"/>
				</linearGradient>
				<path style="fill-rule:evenodd;clip-rule:evenodd;fill:url(#SVGID_73_);" d="M36.25-5.6c0.4-0.4,0.833-0.566,1.3-0.5
					c0.139,0.02,0.272,0.062,0.4,0.125c-0.166-0.094-0.315-0.152-0.45-0.175c-0.466-0.067-0.917,0.083-1.35,0.45
					c-0.434,0.367-0.733,0.867-0.9,1.5c-0.2,1.034-0.017,1.784,0.55,2.25c-0.367-0.767-0.483-1.483-0.35-2.15
					C35.617-4.733,35.883-5.233,36.25-5.6z"/>
				<path style="fill-rule:evenodd;clip-rule:evenodd;fill:#E5DE68;" d="M34.75-3.6c0.034-0.167,0.017-0.267-0.05-0.3l-1.6-0.35
					l-0.4,0.1c-0.1,0.033-0.217,0.017-0.35-0.05c-0.1-0.033-0.2-0.133-0.3-0.3L31.9-4.75c-0.034,0.133-0.034,0.25,0,0.35
					c0.033,0.066,0.117,0.167,0.25,0.3s0.233,0.2,0.3,0.2l0.95,0.1c0.267,0.034,0.55,0.05,0.85,0.05L34.75-3.6z"/>
			</g>
		</g>
		
			<use xlink:href="#Symbol_1"  width="12.483" height="13.912" x="0.017" y="-13.9" transform="matrix(1 0 0 1 3.7002 -8.2002)" style="overflow:visible;"/>
	</g>
	<g id="Layer_3_2_">
	</g>
	<g id="Layer_6_1_">
	</g>
</symbol>
<symbol  id="winder_x5F_static" viewBox="0.015 -8.472 10.185 8.474">
	<g id="Layer_4_1_">
		
			<use xlink:href="#winderedge"  width="4.537" height="8.127" x="0.015" y="-8.126" transform="matrix(1 0 0 1 0.7002 0)" style="overflow:visible;"/>
	</g>
	<g id="Layer_3_1_">
		
			<use xlink:href="#winderfacehighlight"  width="4.573" height="8.174" x="0.016" y="-8.173" transform="matrix(1 0 0 1 0.2002 -0.2002)" style="overflow:visible;"/>
	</g>
	<g id="Layer_2_copy_1_">
		
			<use xlink:href="#winderface1a"  width="4.573" height="8.174" x="0.015" y="-8.172" transform="matrix(1 0 0 1 0 -0.2998)" style="overflow:visible;"/>
	</g>
	<g id="Layer_1_9_">
		<g>
			
				<linearGradient id="SVGID_74_" gradientUnits="userSpaceOnUse" x1="1514.0249" y1="-17615.4922" x2="1515.3442" y2="-17615.4922" gradientTransform="matrix(-0.1705 -0.9854 0.9854 -0.1705 17623.0605 -1517.0771)">
				<stop  offset="0" style="stop-color:#8F8F8F"/>
				<stop  offset="0.2275" style="stop-color:#E8E8E8"/>
				<stop  offset="1" style="stop-color:#696969"/>
			</linearGradient>
			<path style="fill-rule:evenodd;clip-rule:evenodd;fill:url(#SVGID_74_);" d="M10.2-6.3L4.8-5.5C4.5-5.533,4.351-5.366,4.351-5
				c0,0.233,0.083,0.4,0.25,0.5c0.066,0.066,0.133,0.1,0.2,0.1l5.4-0.8V-6.3z"/>
		</g>
	</g>
</symbol>
<symbol  id="winderedge" viewBox="0.015 -8.126 4.537 8.127">
	<g id="Layer_1_5_">
		<g>
			
				<linearGradient id="SVGID_75_" gradientUnits="userSpaceOnUse" x1="5.207" y1="-16345.5195" x2="12.032" y2="-16345.5195" gradientTransform="matrix(1.465202e-004 -1 1 -0.001 16347.8037 -11.1758)">
				<stop  offset="0" style="stop-color:#8F8F8F"/>
				<stop  offset="0.2275" style="stop-color:#E8E8E8"/>
				<stop  offset="1" style="stop-color:#696969"/>
			</linearGradient>
			<path style="fill-rule:evenodd;clip-rule:evenodd;fill:url(#SVGID_75_);" d="M3.5-5.899c0.066,0.6-0.083,0.983-0.45,1.15L2.6-4.7
				C2.367-4.7,2.167-4.733,2-4.8c-0.533-0.167-0.833-0.533-0.9-1.1c-0.034-0.5,0.1-0.85,0.4-1.05c0.434-0.233,0.867-0.233,1.3,0
				C3.2-6.716,3.434-6.366,3.5-5.899z M0.05-1.25c0.1,0.8,0.5,1.216,1.2,1.25c1.367,0.033,2.333-0.633,2.9-2
				c0.5-1.233,0.534-2.05,0.1-2.45c0.434-0.533,0.4-1.333-0.1-2.4c-0.567-1.167-1.533-1.533-2.9-1.1c-0.7,0.233-1.1,0.767-1.2,1.6
				c-0.133,0.867,0.117,1.533,0.75,2L1.25-4L0.8-3.55C0.167-2.85-0.083-2.083,0.05-1.25z M3.5-2.75C3.434-2.25,3.2-1.833,2.8-1.5
				C2.367-1.1,1.934-0.966,1.5-1.1c-0.3-0.133-0.434-0.467-0.4-1C1.167-2.666,1.467-3.116,2-3.45l0.6-0.3L3.05-3.8
				C3.417-3.766,3.566-3.416,3.5-2.75z"/>
		</g>
	</g>
</symbol>
<symbol  id="winderface1a" viewBox="0.015 -8.172 4.573 8.174">
	<g id="Layer_1_3_">
		
			<linearGradient id="SVGID_76_" gradientUnits="userSpaceOnUse" x1="-1922.0371" y1="-13810.1855" x2="-1912.8649" y2="-13810.1855" gradientTransform="matrix(0.2726 -0.9621 0.9621 0.2726 13811.8076 1916.0137)">
			<stop  offset="0" style="stop-color:#E8E8E8"/>
			<stop  offset="1" style="stop-color:#878787"/>
		</linearGradient>
		<path style="fill-rule:evenodd;clip-rule:evenodd;fill:url(#SVGID_76_);" d="M2.05-4.8c-0.566-0.133-0.867-0.483-0.9-1.05
			c-0.033-0.533,0.1-0.9,0.4-1.1c0.4-0.267,0.817-0.267,1.25,0C3.2-6.717,3.433-6.367,3.5-5.9c0.133,0.633,0,1-0.4,1.1L2.65-4.7
			L2.05-4.8z M0.05-1.25C0.183-0.45,0.6-0.033,1.3,0c1.367,0.033,2.333-0.633,2.9-2c0.5-1.233,0.517-2.05,0.05-2.45
			c0.467-0.5,0.45-1.3-0.05-2.4C3.633-8.05,2.667-8.433,1.3-8C0.6-7.733,0.183-7.183,0.05-6.35c-0.133,0.867,0.117,1.533,0.75,2
			L1.3-4L0.8-3.55C0.167-2.85-0.083-2.083,0.05-1.25z M3.5-2.75C3.433-2.25,3.2-1.833,2.8-1.5C2.367-1.1,1.95-0.967,1.55-1.1
			c-0.3-0.133-0.433-0.467-0.4-1c0.033-0.6,0.333-1.05,0.9-1.35l0.6-0.3L3.1-3.8C3.467-3.767,3.6-3.417,3.5-2.75z"/>
	</g>
</symbol>
<symbol  id="winderfacehighlight" viewBox="0.016 -8.173 4.573 8.174">
	<g id="Layer_1_4_">
		
			<linearGradient id="SVGID_77_" gradientUnits="userSpaceOnUse" x1="-1922.0371" y1="-13810.1855" x2="-1912.8649" y2="-13810.1855" gradientTransform="matrix(0.2726 -0.9621 0.9621 0.2726 13811.8076 1916.0137)">
			<stop  offset="0" style="stop-color:#E8E8E8"/>
			<stop  offset="1" style="stop-color:#EDEDED"/>
		</linearGradient>
		<path style="fill-rule:evenodd;clip-rule:evenodd;fill:url(#SVGID_77_);" d="M2.05-4.8c-0.567-0.133-0.867-0.483-0.9-1.05
			c-0.033-0.533,0.1-0.9,0.4-1.1c0.4-0.267,0.817-0.267,1.25,0C3.2-6.717,3.434-6.367,3.5-5.9c0.1,0.6-0.034,0.967-0.4,1.1L2.65-4.7
			L2.05-4.8z M0.05-1.25C0.184-0.45,0.601-0.034,1.3,0c1.367,0.034,2.333-0.633,2.9-2c0.5-1.233,0.517-2.05,0.05-2.45
			c0.466-0.5,0.45-1.3-0.05-2.4C3.634-8.05,2.667-8.434,1.3-8c-0.7,0.267-1.117,0.817-1.25,1.65c-0.133,0.867,0.117,1.534,0.75,2
			L1.3-4L0.8-3.55C0.167-2.851-0.083-2.084,0.05-1.25z M1.55-1.101c-0.3-0.133-0.433-0.466-0.4-1c0.033-0.6,0.333-1.05,0.9-1.35
			l0.6-0.3l0.45-0.05c0.366,0.033,0.5,0.383,0.4,1.05C3.434-2.25,3.2-1.834,2.8-1.5C2.367-1.101,1.95-0.967,1.55-1.101z"/>
	</g>
</symbol>
<use xlink:href="#cubimal_x5F_mc"  width="38.989" height="31.132" id="cubimal" x="-0.385" y="-24.05" transform="matrix(1 0 0 -1 0.3999 7.1001)" style="overflow:visible;"/>
</svg>
