<?xml version="1.0" encoding="iso-8859-1"?>
<!-- Generator: Adobe Illustrator 15.1.0, SVG Export Plug-In . SVG Version: 6.00 Build 0)  -->
<!DOCTYPE svg PUBLIC "-//W3C//DTD SVG 1.1//EN" "http://www.w3.org/Graphics/SVG/1.1/DTD/svg11.dtd">
<svg version="1.1" id="flash0.ai" xmlns="http://www.w3.org/2000/svg" xmlns:xlink="http://www.w3.org/1999/xlink" x="0px" y="0px"
	 width="32.2px" height="30.9px" viewBox="0 0 32.2 30.9" style="enable-background:new 0 0 32.2 30.9;" xml:space="preserve">
<symbol  id="cubimal_1_" viewBox="0.4 -30.41 25.814 30.91">
	<g id="Layer_1_5_">
		<g>
			<g>
				
					<linearGradient id="SVGID_1_" gradientUnits="userSpaceOnUse" x1="16335.7246" y1="-16330.0996" x2="16338.375" y2="-16330.0996" gradientTransform="matrix(-1 0 0 -1 16352 -16352)">
					<stop  offset="0" style="stop-color:#D39825"/>
					<stop  offset="0.1765" style="stop-color:#CF9524"/>
					<stop  offset="0.3647" style="stop-color:#C48D22"/>
					<stop  offset="0.5608" style="stop-color:#B07F1F"/>
					<stop  offset="0.7608" style="stop-color:#956B1A"/>
					<stop  offset="0.9608" style="stop-color:#725214"/>
					<stop  offset="1" style="stop-color:#6B4D12"/>
				</linearGradient>
				<path style="fill-rule:evenodd;clip-rule:evenodd;fill:url(#SVGID_1_);" d="M14-20.351c0.066,0.267,0.434,0.483,1.1,0.65
					c0.333,0.1,0.667,0.167,1,0.2V-21c-0.034-0.566-0.017-1.5,0.05-2.8c-0.3-0.333-0.667-0.5-1.1-0.5c-0.3,0-0.55,0.117-0.75,0.35
					c-0.2,0.267-0.3,0.55-0.3,0.85V-20.351z"/>
				
					<linearGradient id="SVGID_2_" gradientUnits="userSpaceOnUse" x1="16330.2129" y1="-16327.3428" x2="16340.0879" y2="-16327.3428" gradientTransform="matrix(-1 0 0 -1 16352 -16352)">
					<stop  offset="0" style="stop-color:#D39825"/>
					<stop  offset="0.1765" style="stop-color:#CF9524"/>
					<stop  offset="0.3647" style="stop-color:#C48D22"/>
					<stop  offset="0.5608" style="stop-color:#B07F1F"/>
					<stop  offset="0.7608" style="stop-color:#956B1A"/>
					<stop  offset="0.9608" style="stop-color:#725214"/>
					<stop  offset="1" style="stop-color:#6B4D12"/>
				</linearGradient>
				<path style="fill-rule:evenodd;clip-rule:evenodd;fill:url(#SVGID_2_);" d="M14-23.5c0.066,0,0.217-0.1,0.45-0.3
					c0.267-0.2,0.467-0.3,0.6-0.3c0.2-0.033,0.567,0.067,1.1,0.3l0.1,0.9l2.9-0.15c1.333-0.067,2.05-0.217,2.15-0.45
					c0.067-0.466-0.267-0.667-1-0.6l0.45-0.05c0.233,0,0.367-0.1,0.4-0.3c0.034-0.233-0.067-0.467-0.3-0.7
					c-0.2-0.2-0.483-0.283-0.85-0.25l-0.45,0.1c0.428-0.111,0.578-0.294,0.45-0.55c-0.167-0.433-0.483-0.616-0.95-0.55
					c-0.566,0.2-1.583,0.367-3.05,0.5c-0.867,0.1-1.45,0.217-1.75,0.35c-0.434,0.133-0.717,0.35-0.85,0.65
					c-0.1,0.3-0.033,0.633,0.2,1C13.733-23.734,13.867-23.601,14-23.5z"/>
				<g>
					<path style="fill-rule:evenodd;clip-rule:evenodd;fill:#8A670D;" d="M16-25.9c-0.867,0.1-1.45,0.217-1.75,0.35
						c-0.434,0.133-0.717,0.35-0.85,0.65v0.35c0.067-0.233,0.367-0.367,0.9-0.4c1.9-0.2,3.083-0.417,3.55-0.65
						c0.5-0.2,1.133-0.3,1.9-0.3c0.1,0.033,0.184,0.133,0.25,0.3c0.066-0.066,0.066-0.15,0-0.25c-0.167-0.433-0.483-0.616-0.95-0.55
						C18.483-26.2,17.467-26.034,16-25.9z"/>
					<path style="fill-rule:evenodd;clip-rule:evenodd;fill:#8A670D;" d="M20.1-24.601c0.367-0.2,0.583-0.05,0.65,0.45
						c0.233,0,0.367-0.1,0.4-0.3c0.034-0.233-0.067-0.467-0.3-0.7c-0.167-0.167-0.433-0.25-0.8-0.25L20-25.2
						c-0.066,0.133-0.233,0.283-0.5,0.45S19.066-24.5,19-24.5l0.3,0.05C19.633-24.45,19.9-24.5,20.1-24.601z"/>
					<path style="fill-rule:evenodd;clip-rule:evenodd;fill:#8A670D;" d="M20.75-24.101c0.033,0.134,0.017,0.233-0.05,0.3
						c-0.033,0-0.15,0.066-0.35,0.2l-0.25,0.15l0.7-0.15c0.134,0,0.25,0.083,0.35,0.25l0.15-0.15
						C21.333-23.834,21.15-24.034,20.75-24.101z"/>
				</g>
				
					<linearGradient id="SVGID_3_" gradientUnits="userSpaceOnUse" x1="16339.8877" y1="-16327.1992" x2="16342.7129" y2="-16327.1992" gradientTransform="matrix(-1 0 0 -1 16352 -16352)">
					<stop  offset="0" style="stop-color:#D39825"/>
					<stop  offset="0.1765" style="stop-color:#CF9524"/>
					<stop  offset="0.3647" style="stop-color:#C48D22"/>
					<stop  offset="0.5608" style="stop-color:#B07F1F"/>
					<stop  offset="0.7608" style="stop-color:#956B1A"/>
					<stop  offset="0.9608" style="stop-color:#725214"/>
					<stop  offset="1" style="stop-color:#6B4D12"/>
				</linearGradient>
				<path style="fill-rule:evenodd;clip-rule:evenodd;fill:url(#SVGID_3_);" d="M11.95-21.8L12-27.2c-0.333-0.4-0.733-0.6-1.2-0.6
					c-0.3,0-0.566,0.15-0.8,0.45c-0.2,0.3-0.3,0.65-0.3,1.05v3.45c0.066,0.333,0.467,0.6,1.2,0.8
					C11.267-21.917,11.617-21.834,11.95-21.8z"/>
				
					<linearGradient id="SVGID_4_" gradientUnits="userSpaceOnUse" x1="16333.9873" y1="-16323.8203" x2="16344.5127" y2="-16323.8203" gradientTransform="matrix(-1 0 0 -1 16352 -16352)">
					<stop  offset="0" style="stop-color:#D39825"/>
					<stop  offset="0.1765" style="stop-color:#CF9524"/>
					<stop  offset="0.3647" style="stop-color:#C48D22"/>
					<stop  offset="0.5608" style="stop-color:#B07F1F"/>
					<stop  offset="0.7608" style="stop-color:#956B1A"/>
					<stop  offset="0.9608" style="stop-color:#725214"/>
					<stop  offset="1" style="stop-color:#6B4D12"/>
				</linearGradient>
				<path style="fill-rule:evenodd;clip-rule:evenodd;fill:url(#SVGID_4_);" d="M16.45-27.55l0.45-0.05
					c0.233,0,0.383-0.133,0.45-0.4c0.033-0.267-0.083-0.55-0.35-0.85c-0.2-0.233-0.483-0.333-0.85-0.3l-0.55,0.1
					c0.466-0.133,0.633-0.367,0.5-0.7c-0.067-0.2-0.217-0.367-0.45-0.5c-0.2-0.133-0.4-0.183-0.6-0.15
					c-0.8,0.267-1.883,0.483-3.25,0.65c-0.9,0.1-1.533,0.233-1.9,0.4c-0.433,0.167-0.716,0.45-0.85,0.85
					c-0.133,0.367-0.066,0.767,0.2,1.2c0.133,0.2,0.283,0.367,0.45,0.5c0.066,0,0.233-0.133,0.5-0.4
					c0.267-0.233,0.467-0.35,0.6-0.35c0.233-0.034,0.634,0.083,1.2,0.35v1.25l3.2-0.3c1.4-0.066,2.15-0.25,2.25-0.55
					C17.55-27.367,17.217-27.617,16.45-27.55z"/>
				<g>
					<path style="fill-rule:evenodd;clip-rule:evenodd;fill:#8A670D;" d="M14.8-28.351l-0.7,0.1l0.5,0.05
						c0.4,0.033,0.75,0.017,1.05-0.05c0.267-0.066,0.534-0.183,0.8-0.35c0.167-0.066,0.316,0.017,0.45,0.25l0.3,0.6
						c0.267-0.267,0.2-0.633-0.2-1.1c-0.2-0.267-0.583-0.366-1.15-0.3L15.8-29c-0.2,0.267-0.316,0.417-0.35,0.45
						C15.316-28.45,15.1-28.384,14.8-28.351z"/>
					<path style="fill-rule:evenodd;clip-rule:evenodd;fill:#8A670D;" d="M17.45-26.8c0.066-0.367-0.134-0.617-0.6-0.75
						c-0.3,0.433-0.65,0.667-1.05,0.7l-0.7,0.1l0.55,0.1c0.4,0.033,0.717,0,0.95-0.1c0.367-0.2,0.617-0.167,0.75,0.1L17.45-26.8z"/>
					<path style="fill-rule:evenodd;clip-rule:evenodd;fill:#8A670D;" d="M9.15-27.55c0-0.534,0.25-0.883,0.75-1.05
						c0.8-0.2,1.967-0.466,3.5-0.8c1.133-0.4,1.867-0.5,2.2-0.3c0.3,0.167,0.4,0.333,0.3,0.5c0.2-0.134,0.267-0.317,0.2-0.55
						c-0.067-0.2-0.217-0.367-0.45-0.5c-0.2-0.133-0.4-0.183-0.6-0.15c-0.8,0.267-1.883,0.483-3.25,0.65
						c-0.9,0.1-1.533,0.233-1.9,0.4c-0.433,0.167-0.716,0.45-0.85,0.85C8.983-28.267,9.017-27.95,9.15-27.55z"/>
				</g>
			</g>
			
				<linearGradient id="SVGID_5_" gradientUnits="userSpaceOnUse" x1="-2106.2617" y1="-13440.2832" x2="-2087.1133" y2="-13440.2832" gradientTransform="matrix(0.3068 -0.9518 0.9518 0.3068 13449.1777 2114.168)">
				<stop  offset="0" style="stop-color:#F4D935"/>
				<stop  offset="1" style="stop-color:#D1B928"/>
			</linearGradient>
			<path style="fill-rule:evenodd;clip-rule:evenodd;fill:url(#SVGID_5_);" d="M16.8-1.601c3.134-0.433,5.067-0.65,5.8-0.65
				c1.1,0,1.933-0.216,2.5-0.65c0.367-0.3,0.65-0.767,0.85-1.4c0.1-0.434,0.167-2.333,0.2-5.7c0.034-3.066,0.034-5.017,0-5.85
				c0-0.366,0-0.85,0-1.45c-0.033-0.5-0.183-0.95-0.45-1.35c-0.267-0.434-1.167-1.184-2.7-2.25c-1.333-0.967-2.3-1.6-2.9-1.9
				c-1.7-0.934-2.967-1.4-3.8-1.4c-2.433,0.3-4.3,0.45-5.6,0.45c-0.767,0.034-2.2,0.2-4.3,0.5c-2.133,0.3-3.4,0.483-3.8,0.55
				c-0.7,0.1-1.167,0.4-1.4,0.9c-0.367,0.667-0.567,2.017-0.6,4.05c-0.133,3.233-0.2,5.6-0.2,7.1C0.434-7.984,0.816-6.4,1.55-5.9
				c0.867,0.633,2.4,1.533,4.6,2.7C8.684-1.8,10.3-1.084,11-1.05C11.934-1.017,13.867-1.2,16.8-1.601z"/>
			
				<linearGradient id="SVGID_6_" gradientUnits="userSpaceOnUse" x1="-2369.0967" y1="-12875.2246" x2="-2352.0989" y2="-12875.2246" gradientTransform="matrix(0.3574 -0.934 0.934 0.3574 12889.8652 2382.0967)">
				<stop  offset="0" style="stop-color:#BEA823"/>
				<stop  offset="0.3725" style="stop-color:#BAA422"/>
				<stop  offset="0.7725" style="stop-color:#AE9A20"/>
				<stop  offset="1" style="stop-color:#A3901F"/>
			</linearGradient>
			<path style="fill-rule:evenodd;clip-rule:evenodd;fill:url(#SVGID_6_);" d="M25.95-4.3c0.1-0.5,0.15-1.367,0.15-2.6
				c0.133-4.333,0.15-7.316,0.05-8.95c0-0.366,0-0.85,0-1.45c-0.033-0.5-0.183-0.95-0.45-1.35c-0.267-0.434-1.167-1.184-2.7-2.25
				c-1.333-0.967-2.3-1.6-2.9-1.9c-0.267-0.167-0.9-0.434-1.9-0.8c-1-0.366-1.634-0.566-1.9-0.6c0.3,0.6,0.45,1.316,0.45,2.15
				l-0.1,14l0.1,0.15c0.167,0.2,1.066,0.7,2.7,1.5C21.316-5.5,22.5-4.884,23-4.55c1.4,0.9,2.15,1.4,2.25,1.5
				C25.55-3.351,25.783-3.767,25.95-4.3z"/>
			<path style="fill-rule:evenodd;clip-rule:evenodd;fill:#F4D935;" d="M19.85-6.25c-1.9-0.9-2.933-1.45-3.1-1.65
				C15.816-7.834,12.9-7.534,8-7c-3.733,0.4-6.05,0.567-6.95,0.5c0.167,0.267,0.333,0.467,0.5,0.6c0.867,0.633,2.4,1.533,4.6,2.7
				C8.684-1.8,10.3-1.084,11-1.05c2.3,0.1,6.167-0.3,11.6-1.2c1.4-0.2,2.283-0.466,2.65-0.8c-0.367-0.367-0.883-0.767-1.55-1.2
				C23.2-4.55,21.917-5.217,19.85-6.25z"/>
			<g>
				
					<radialGradient id="SVGID_7_" cx="8.0498" cy="-17.3506" r="3.25" gradientTransform="matrix(1 0 0 -1.8538 0 -49.5161)" gradientUnits="userSpaceOnUse">
					<stop  offset="0.2157" style="stop-color:#000000;stop-opacity:0.3765"/>
					<stop  offset="0.8667" style="stop-color:#000000;stop-opacity:0"/>
				</radialGradient>
				<path style="fill-rule:evenodd;clip-rule:evenodd;fill:url(#SVGID_7_);" d="M8-16.851c0.467-0.033,1.566-0.366,3.3-1
					c-0.066-1.566-0.417-2.883-1.05-3.95c-0.633-1.067-1.367-1.6-2.2-1.6c-0.9,0-1.667,0.583-2.3,1.75
					c-0.633,1.2-0.95,2.633-0.95,4.3v0.25C6.066-16.867,7.133-16.784,8-16.851z"/>
				
					<linearGradient id="SVGID_8_" gradientUnits="userSpaceOnUse" x1="-3093.5459" y1="-10693.5488" x2="-3089.7246" y2="-10693.5488" gradientTransform="matrix(0.5365 -0.8439 0.8439 0.5365 10689.9453 3110.0107)">
					<stop  offset="0" style="stop-color:#F4D935"/>
					<stop  offset="1" style="stop-color:#D1B928"/>
				</linearGradient>
				<path style="fill-rule:evenodd;clip-rule:evenodd;fill:url(#SVGID_8_);" d="M4.25-16.95c0.967,0.6,1.566,0.95,1.8,1.05
					c0.733,0.367,1.367,0.566,1.9,0.6c0.9,0.033,1.65-0.284,2.25-0.95c0.533-0.566,0.75-1.1,0.65-1.6c-0.1-0.466-0.433-0.866-1-1.2
					c-0.6-0.367-1.35-0.55-2.25-0.55c-1.534,0-2.9,0.333-4.1,1c-0.4,0.233-0.517,0.483-0.35,0.75
					C3.283-17.617,3.65-17.317,4.25-16.95z"/>
				<g>
					<path style="fill-rule:evenodd;clip-rule:evenodd;fill:#9F7626;" d="M6.45-15.7c0.366,0.167,0.75,0.283,1.15,0.35
						c0.267-0.066,0.517-0.183,0.75-0.35c0.533-0.333,0.867-0.567,1-0.7c-0.633,0.333-1.367,0.55-2.2,0.65L6.45-15.7z"/>
					<path style="fill-rule:evenodd;clip-rule:evenodd;fill:#9F7626;" d="M3.9-17.2l0.85,0.55c0.566-0.2,1-0.4,1.3-0.6l0.85-0.6
						c-1.2,0.434-2.183,0.65-2.95,0.65H3.9z"/>
					<path style="fill-rule:evenodd;clip-rule:evenodd;fill:#9F7626;" d="M7.35-16.55L8.1-17.2c-0.933,0.4-1.85,0.667-2.75,0.8
						l-0.15,0.05L6-15.9C6.633-16.134,7.083-16.351,7.35-16.55z"/>
					<path style="fill-rule:evenodd;clip-rule:evenodd;fill:#BEA71D;" d="M10.85-17.851c-0.1-0.466-0.433-0.866-1-1.2
						c-0.6-0.367-1.35-0.55-2.25-0.55c-1.534,0-2.9,0.333-4.1,1c-0.267,0.167-0.4,0.333-0.4,0.5c0.3,0,0.8-0.133,1.5-0.4
						c1.7-0.7,3.2-0.767,4.5-0.2c0.966,0.433,1.533,0.917,1.7,1.45L10.85-17.851z"/>
				</g>
			</g>
			<g>
				<path style="fill-rule:evenodd;clip-rule:evenodd;fill:#978715;" d="M19.65-15.3c0-0.5-0.1-0.917-0.3-1.25
					c-0.233-0.333-0.5-0.5-0.8-0.5c-0.3,0-0.55,0.167-0.75,0.5c-0.233,0.333-0.35,0.75-0.35,1.25c0,0.466,0.116,0.867,0.35,1.2
					c0.2,0.333,0.45,0.5,0.75,0.5c0.3,0,0.567-0.167,0.8-0.5C19.55-14.434,19.65-14.834,19.65-15.3z"/>
				
					<linearGradient id="SVGID_9_" gradientUnits="userSpaceOnUse" x1="511.7251" y1="-16802.6172" x2="514.6803" y2="-16802.6172" gradientTransform="matrix(-0.0592 -0.9982 0.9982 -0.0592 16821.8164 -498.5132)">
					<stop  offset="0" style="stop-color:#5F4E29"/>
					<stop  offset="0.8588" style="stop-color:#271D09"/>
				</linearGradient>
				<path style="fill-rule:evenodd;clip-rule:evenodd;fill:url(#SVGID_9_);" d="M19.25-15.351c0-0.333-0.1-0.633-0.3-0.9
					c-0.167-0.233-0.384-0.35-0.65-0.35c-0.233,0-0.45,0.117-0.65,0.35c-0.167,0.233-0.25,0.534-0.25,0.9
					c0,0.367,0.083,0.684,0.25,0.95c0.167,0.233,0.383,0.35,0.65,0.35s0.483-0.117,0.65-0.35
					C19.15-14.667,19.25-14.984,19.25-15.351z"/>
			</g>
			<g>
				<path style="fill-rule:evenodd;clip-rule:evenodd;fill:#978715;" d="M26.1-11.45c0-0.467-0.067-0.85-0.2-1.15
					c-0.133-0.333-0.3-0.5-0.5-0.5c-0.2,0-0.367,0.167-0.5,0.5c-0.167,0.333-0.25,0.717-0.25,1.15c0,0.433,0.083,0.816,0.25,1.15
					c0.133,0.3,0.3,0.45,0.5,0.45C25.867-9.851,26.1-10.384,26.1-11.45z"/>
				
					<linearGradient id="SVGID_10_" gradientUnits="userSpaceOnUse" x1="544.645" y1="-16828.834" x2="547.4006" y2="-16828.834" gradientTransform="matrix(-0.0635 -0.998 0.998 -0.0635 16854.7363 -535.7456)">
					<stop  offset="0" style="stop-color:#5F4E29"/>
					<stop  offset="0.8588" style="stop-color:#271D09"/>
				</linearGradient>
				<path style="fill-rule:evenodd;clip-rule:evenodd;fill:url(#SVGID_10_);" d="M25.8-11.45c0-0.8-0.183-1.2-0.55-1.2
					c-0.4,0-0.6,0.4-0.6,1.2c0,0.8,0.2,1.2,0.6,1.2C25.617-10.25,25.8-10.65,25.8-11.45z"/>
			</g>
			<g>
				
					<radialGradient id="SVGID_11_" cx="23.25" cy="-15.1006" r="1.3125" gradientTransform="matrix(1 0 0 -2.181 0 -48.0327)" gradientUnits="userSpaceOnUse">
					<stop  offset="0" style="stop-color:#000000;stop-opacity:0.3765"/>
					<stop  offset="0.8667" style="stop-color:#000000;stop-opacity:0"/>
				</radialGradient>
				<path style="fill-rule:evenodd;clip-rule:evenodd;fill:url(#SVGID_11_);" d="M22.3-17.2c-0.233,0.533-0.366,1.183-0.4,1.95
					l2.4,1.7c0.167-0.5,0.25-1.017,0.25-1.55c0-0.8-0.133-1.483-0.4-2.05c-0.233-0.566-0.533-0.85-0.9-0.85S22.566-17.734,22.3-17.2
					z"/>
				<g>
					
						<linearGradient id="SVGID_12_" gradientUnits="userSpaceOnUse" x1="521.9565" y1="-16806.6523" x2="524.4361" y2="-16806.6523" gradientTransform="matrix(-0.0605 -0.9982 0.9982 -0.0605 16831.6328 -509.582)">
						<stop  offset="0" style="stop-color:#D39825"/>
						<stop  offset="0.1765" style="stop-color:#CF9524"/>
						<stop  offset="0.3647" style="stop-color:#C48D22"/>
						<stop  offset="0.5608" style="stop-color:#B07F1F"/>
						<stop  offset="0.7608" style="stop-color:#956B1A"/>
						<stop  offset="0.9608" style="stop-color:#725214"/>
						<stop  offset="1" style="stop-color:#6B4D12"/>
					</linearGradient>
					<path style="fill-rule:evenodd;clip-rule:evenodd;fill:url(#SVGID_12_);" d="M22.7-14.101c0.267,0.3,0.533,0.467,0.8,0.5
						c0.7,0.034,1.316-0.267,1.85-0.9c0.5-0.6,0.617-0.95,0.35-1.05c-0.267-0.167-0.817-0.233-1.65-0.2
						c-0.933,0-1.467,0.184-1.6,0.55C22.316-14.834,22.4-14.467,22.7-14.101z"/>
					
						<linearGradient id="SVGID_13_" gradientUnits="userSpaceOnUse" x1="470.0146" y1="-16760.2871" x2="471.3917" y2="-16760.2871" gradientTransform="matrix(-0.0545 -0.9985 0.9985 -0.0545 16785.166 -457.437)">
						<stop  offset="0" style="stop-color:#F1CC7D"/>
						<stop  offset="0.8588" style="stop-color:#D39825"/>
					</linearGradient>
					<path style="fill-rule:evenodd;clip-rule:evenodd;fill:url(#SVGID_13_);" d="M22.95-14.3c-0.033,0.367,0.217,0.55,0.75,0.55
						c0.4,0.034,0.783-0.133,1.15-0.5c0.4-0.333,0.533-0.566,0.4-0.7c-0.066-0.067-0.3-0.067-0.7,0c-0.533,0.133-0.833,0.2-0.9,0.2
						C23.217-14.75,22.983-14.601,22.95-14.3z"/>
				</g>
			</g>
			<path style="fill-rule:evenodd;clip-rule:evenodd;fill:#F8E87C;" d="M16.7-7.601c0.3,0.034,1.6,0.65,3.9,1.85
				c1.433,0.767,2.983,1.667,4.65,2.7c-0.066-0.4-1.434-1.333-4.1-2.8c-2.7-1.5-4.083-2.417-4.15-2.75c-0.1-0.366-0.1-4.517,0-12.45
				c-0.066-1.7-0.3-2.75-0.7-3.15l0.15,0.6c0.1,0.267,0.133,2.267,0.1,6c-0.033,3.6-0.083,5.967-0.15,7.1
				c-0.067,1.167-0.117,1.8-0.15,1.9C16.184-8.4,16-8.267,15.7-8.2c-0.367,0.1-3.217,0.417-8.55,0.95C6.35-7.184,5.1-7,3.4-6.7
				L1.1-6.25l7.55-0.8c1.4-0.167,3.017-0.317,4.85-0.45S16.4-7.667,16.7-7.601z"/>
			<g>
				
					<radialGradient id="SVGID_14_" cx="17.2998" cy="-3.8003" r="6.1625" gradientTransform="matrix(1 0 0 -0.3448 0 -5.1113)" gradientUnits="userSpaceOnUse">
					<stop  offset="0" style="stop-color:#000000;stop-opacity:0.3765"/>
					<stop  offset="0.8667" style="stop-color:#000000;stop-opacity:0"/>
				</radialGradient>
				<path style="fill-rule:evenodd;clip-rule:evenodd;fill:url(#SVGID_14_);" d="M17.25-5.601l-0.1-0.1L16.7-5.9l-0.05-0.05
					c-1.567,0.066-2.867,0.3-3.9,0.7c-1.066,0.434-1.6,0.917-1.6,1.45c0,0.566,0.6,1.066,1.8,1.5c1.2,0.4,2.65,0.6,4.35,0.6
					c1.5,0,2.833-0.167,4-0.5l-0.1-0.15c-0.167-0.533-0.367-1.017-0.6-1.45C19.133-4.601,18.017-5.2,17.25-5.601z"/>
			</g>
			<g>
				<path style="fill-rule:evenodd;clip-rule:evenodd;fill:#F8E87C;" d="M15.95-5.4l-1.1,1.55c-0.167,0.267-0.233,0.567-0.2,0.9
					c0,0.366,0.117,0.633,0.35,0.8c0.367,0.367,0.75,0.483,1.15,0.35l0.35-0.1c-0.1,0.233-0.184,0.483-0.25,0.75
					c-0.1,0.533-0.083,0.867,0.05,1c0.5,0.434,1.083,0.65,1.75,0.65c0.367,0,0.684-0.15,0.95-0.45c0.2-0.267,0.3-0.517,0.3-0.75
					c0.007-0.042,0.007-0.084,0-0.125c0.119,0.155,0.236,0.246,0.35,0.275c0.7,0.1,1.15-0.083,1.35-0.55
					c0.2-0.466,0.1-1.15-0.3-2.05c0.3-0.2-0.233-0.667-1.6-1.4c-1.167-0.6-1.8-0.917-1.9-0.95L15.95-5.4z"/>
				<path style="fill-rule:evenodd;clip-rule:evenodd;fill:#EFD433;" d="M16.6-0.3c0.5,0.433,1.083,0.65,1.75,0.65
					c0.367,0,0.65-0.184,0.85-0.55c0.133-0.267,0.2-0.534,0.2-0.8v-0.3l0.15,0.25c0.134,0.2,0.267,0.316,0.4,0.35
					c0.7,0.1,1.15-0.083,1.35-0.55C21.5-1.717,21.4-2.4,21-3.3c0.267-0.2-0.267-0.667-1.6-1.4c-0.167-0.1-0.55-0.317-1.15-0.65
					c-0.3-0.167-0.55-0.267-0.75-0.3L15.95-5.4c-0.3,0.633-0.583,1.1-0.85,1.4c-0.167,0.233-0.233,0.534-0.2,0.9
					c0.034,0.367,0.15,0.65,0.35,0.85c0.434,0.333,0.833,0.434,1.2,0.3l0.3-0.1c-0.066,0.233-0.133,0.483-0.2,0.75
					C16.45-0.767,16.467-0.434,16.6-0.3z"/>
				<g>
					<path style="fill-rule:evenodd;clip-rule:evenodd;fill:#DCC22F;" d="M16.65-2.05L16.6-2l0.15-0.05
						c-0.233,0.667-0.316,1.167-0.25,1.5c0-0.067,0.066-0.1,0.2-0.1c0.2-0.066,0.333-0.083,0.4-0.05l0.2,0.05
						c0.2-0.367,0.35-0.783,0.45-1.25l0.15-0.6c-0.1-0.033-0.233,0-0.4,0.1c-0.2,0.133-0.333,0.2-0.4,0.2L16.65-2.05z"/>
					<path style="fill-rule:evenodd;clip-rule:evenodd;fill:#DCC22F;" d="M16.2-3.75c-0.167,0.4-0.15,0.684,0.05,0.85L18-4.7
						l-1.45,0.3l0.25-0.85c-0.2-0.066-0.4-0.066-0.6,0L15.75-5L15.1-4v0.05l0.35-0.4L15.8-4.5c0.3-0.066,0.467-0.017,0.5,0.15
						C16.333-4.25,16.3-4.05,16.2-3.75z"/>
					<path style="fill-rule:evenodd;clip-rule:evenodd;fill:#A89423;" d="M16.8-5.25L16.55-4.4l2.35-0.45l-0.25-0.25
						c-0.466-0.267-0.85-0.45-1.15-0.55L15.95-5.4L15.75-5l0.45-0.25C16.4-5.317,16.6-5.317,16.8-5.25z"/>
				</g>
				<path style="fill-rule:evenodd;clip-rule:evenodd;fill:#F8E87C;" d="M16.8-4.75c-0.333,0.467-0.533,0.85-0.6,1.15
					c-0.134,0.434-0.117,0.817,0.05,1.15C16.383-2.15,16.583-2,16.85-2c0.333-0.033,0.567-0.083,0.7-0.15
					c-0.1,0.233-0.2,0.483-0.3,0.75c-0.167,0.533-0.184,0.883-0.05,1.05c0.2,0.233,0.45,0.4,0.75,0.5
					C18.316,0.283,18.6,0.3,18.8,0.2L19,0c0.133-0.267,0.2-0.533,0.2-0.8v-0.45c0-0.233,0.033-0.383,0.1-0.45l0.3,0.5
					c0.233,0.366,0.483,0.566,0.75,0.6c0.233,0,0.4-0.033,0.5-0.1l0.25-0.35c0.2-0.467,0.1-1.167-0.3-2.1
					c0.3-0.2-0.233-0.65-1.6-1.35c-0.233-0.133-0.517-0.316-0.85-0.55C18.184-5.184,18-5.267,17.8-5.3l-0.3-0.35
					C17.233-5.317,17-5.017,16.8-4.75z"/>
				<path style="fill-rule:evenodd;clip-rule:evenodd;fill:#C8AF21;" d="M16.35-3.55c-0.1,0.966,0.133,1.417,0.7,1.35
					c0.333-0.034,0.567-0.083,0.7-0.15c-0.1,0.233-0.2,0.483-0.3,0.75c-0.2,0.567-0.233,0.917-0.1,1.05c0.233,0.233,0.5,0.4,0.8,0.5
					C18.517,0.083,18.8,0.1,19,0l0.15-0.15C19.316-0.484,19.4-0.767,19.4-1v-0.4c0-0.267,0.034-0.417,0.1-0.45l0.25,0.5
					c0.233,0.333,0.5,0.517,0.8,0.55c0.167,0.066,0.317,0.033,0.45-0.1l0.3-0.35C21.5-1.717,21.4-2.4,21-3.3
					c0.267-0.2-0.267-0.667-1.6-1.4c-0.167-0.1-0.55-0.317-1.15-0.65c-0.3-0.167-0.55-0.267-0.75-0.3h-0.1
					C16.767-4.784,16.417-4.084,16.35-3.55z"/>
			</g>
		</g>
	</g>
</symbol>
<symbol  id="cubimal_x5F_mc" viewBox="-0.385 -30.361 32.199 30.91">
	<g id="Layer_5_1_">
	</g>
	<g id="Layer_4_2_">
	</g>
	<g id="Layer_2_copy_2_">
	</g>
	<g id="Layer_2_2_">
	</g>
	<g id="Layer_1_9_">
		
			<use xlink:href="#cubimal_x5F_scene1"  width="32.199" height="30.91" x="0.015" y="-30.41" transform="matrix(1 0 0 1 -0.3999 0.0498)" style="overflow:visible;"/>
	</g>
	<g id="Layer_6_1_">
	</g>
</symbol>
<symbol  id="cubimal_x5F_scene1" viewBox="0.015 -30.41 32.199 30.91">
	<g id="Layer_1_8_">
		
			<use xlink:href="#winder_x5F_static"  width="10.185" height="8.474" x="0.015" y="-8.472" transform="matrix(1 0 0 1 0 -7.9502)" style="overflow:visible;"/>
		
			<use xlink:href="#cubimal_1_"  width="25.814" height="30.91" x="0.4" y="-30.41" transform="matrix(1 0 0 1 6 0)" style="overflow:visible;"/>
	</g>
</symbol>
<symbol  id="winder_x5F_static" viewBox="0.015 -8.472 10.185 8.474">
	<g id="Layer_4_1_">
		
			<use xlink:href="#winderedge"  width="4.537" height="8.127" x="0.015" y="-8.126" transform="matrix(1 0 0 1 0.7002 0)" style="overflow:visible;"/>
	</g>
	<g id="Layer_3_1_">
		
			<use xlink:href="#winderfacehighlight"  width="4.573" height="8.174" x="0.016" y="-8.173" transform="matrix(1 0 0 1 0.2002 -0.2002)" style="overflow:visible;"/>
	</g>
	<g id="Layer_2_copy_1_">
		
			<use xlink:href="#winderface1a"  width="4.573" height="8.174" x="0.015" y="-8.172" transform="matrix(1 0 0 1 0 -0.2998)" style="overflow:visible;"/>
	</g>
	<g id="Layer_1_7_">
		<g>
			
				<linearGradient id="SVGID_15_" gradientUnits="userSpaceOnUse" x1="1517.5366" y1="-17618.4453" x2="1518.856" y2="-17618.4453" gradientTransform="matrix(-0.1705 -0.9854 0.9854 -0.1705 17626.5703 -1514.1211)">
				<stop  offset="0" style="stop-color:#8F8F8F"/>
				<stop  offset="0.2275" style="stop-color:#E8E8E8"/>
				<stop  offset="1" style="stop-color:#696969"/>
			</linearGradient>
			<path style="fill-rule:evenodd;clip-rule:evenodd;fill:url(#SVGID_15_);" d="M10.2-6.3L4.8-5.5C4.5-5.533,4.351-5.366,4.351-5
				c0,0.233,0.083,0.4,0.25,0.5c0.066,0.066,0.133,0.1,0.2,0.1l5.4-0.8V-6.3z"/>
		</g>
	</g>
</symbol>
<symbol  id="winderedge" viewBox="0.015 -8.126 4.537 8.127">
	<g id="Layer_1_4_">
		<g>
			
				<linearGradient id="SVGID_16_" gradientUnits="userSpaceOnUse" x1="8.21" y1="-16348.5195" x2="15.035" y2="-16348.5195" gradientTransform="matrix(1.465202e-004 -1 1 -0.001 16350.8027 -8.1758)">
				<stop  offset="0" style="stop-color:#8F8F8F"/>
				<stop  offset="0.2275" style="stop-color:#E8E8E8"/>
				<stop  offset="1" style="stop-color:#696969"/>
			</linearGradient>
			<path style="fill-rule:evenodd;clip-rule:evenodd;fill:url(#SVGID_16_);" d="M3.5-5.899c0.066,0.6-0.083,0.983-0.45,1.15L2.6-4.7
				C2.367-4.7,2.167-4.733,2-4.8c-0.533-0.167-0.833-0.533-0.9-1.1c-0.034-0.5,0.1-0.85,0.4-1.05c0.434-0.233,0.867-0.233,1.3,0
				C3.2-6.716,3.434-6.366,3.5-5.899z M0.05-1.25c0.1,0.8,0.5,1.216,1.2,1.25c1.367,0.033,2.333-0.633,2.9-2
				c0.5-1.233,0.534-2.05,0.1-2.45c0.434-0.533,0.4-1.333-0.1-2.4c-0.567-1.167-1.533-1.533-2.9-1.1c-0.7,0.233-1.1,0.767-1.2,1.6
				c-0.133,0.867,0.117,1.533,0.75,2L1.25-4L0.8-3.55C0.167-2.85-0.083-2.083,0.05-1.25z M3.5-2.75C3.434-2.25,3.2-1.833,2.8-1.5
				C2.367-1.1,1.934-0.966,1.5-1.1c-0.3-0.133-0.434-0.467-0.4-1C1.167-2.666,1.467-3.116,2-3.45l0.6-0.3L3.05-3.8
				C3.417-3.766,3.566-3.416,3.5-2.75z"/>
		</g>
	</g>
</symbol>
<symbol  id="winderface1a" viewBox="0.015 -8.172 4.573 8.174">
	<g id="Layer_1_2_">
		
			<linearGradient id="SVGID_17_" gradientUnits="userSpaceOnUse" x1="-1919.8555" y1="-13813.0723" x2="-1910.6832" y2="-13813.0723" gradientTransform="matrix(0.2726 -0.9621 0.9621 0.2726 13813.9902 1918.9004)">
			<stop  offset="0" style="stop-color:#E8E8E8"/>
			<stop  offset="1" style="stop-color:#878787"/>
		</linearGradient>
		<path style="fill-rule:evenodd;clip-rule:evenodd;fill:url(#SVGID_17_);" d="M2.05-4.8c-0.566-0.133-0.867-0.483-0.9-1.05
			c-0.033-0.533,0.1-0.9,0.4-1.1c0.4-0.267,0.817-0.267,1.25,0C3.2-6.717,3.433-6.367,3.5-5.9c0.133,0.633,0,1-0.4,1.1L2.65-4.7
			L2.05-4.8z M0.05-1.25C0.183-0.45,0.6-0.033,1.3,0c1.367,0.033,2.333-0.633,2.9-2c0.5-1.233,0.517-2.05,0.05-2.45
			c0.467-0.5,0.45-1.3-0.05-2.4C3.633-8.05,2.667-8.433,1.3-8C0.6-7.733,0.183-7.183,0.05-6.35c-0.133,0.867,0.117,1.533,0.75,2
			L1.3-4L0.8-3.55C0.167-2.85-0.083-2.083,0.05-1.25z M3.5-2.75C3.433-2.25,3.2-1.833,2.8-1.5C2.367-1.1,1.95-0.967,1.55-1.1
			c-0.3-0.133-0.433-0.467-0.4-1c0.033-0.6,0.333-1.05,0.9-1.35l0.6-0.3L3.1-3.8C3.467-3.767,3.6-3.417,3.5-2.75z"/>
	</g>
</symbol>
<symbol  id="winderfacehighlight" viewBox="0.016 -8.173 4.573 8.174">
	<g id="Layer_1_3_">
		
			<linearGradient id="SVGID_18_" gradientUnits="userSpaceOnUse" x1="-1919.8545" y1="-13813.0723" x2="-1910.6823" y2="-13813.0723" gradientTransform="matrix(0.2726 -0.9621 0.9621 0.2726 13813.9902 1918.9004)">
			<stop  offset="0" style="stop-color:#E8E8E8"/>
			<stop  offset="1" style="stop-color:#EDEDED"/>
		</linearGradient>
		<path style="fill-rule:evenodd;clip-rule:evenodd;fill:url(#SVGID_18_);" d="M2.05-4.8c-0.567-0.133-0.867-0.483-0.9-1.05
			c-0.033-0.533,0.1-0.9,0.4-1.1c0.4-0.267,0.817-0.267,1.25,0C3.2-6.717,3.434-6.367,3.5-5.9c0.1,0.6-0.034,0.967-0.4,1.1L2.65-4.7
			L2.05-4.8z M0.05-1.25C0.184-0.45,0.601-0.034,1.3,0c1.367,0.034,2.333-0.633,2.9-2c0.5-1.233,0.517-2.05,0.05-2.45
			c0.466-0.5,0.45-1.3-0.05-2.4C3.634-8.05,2.667-8.434,1.3-8c-0.7,0.267-1.117,0.817-1.25,1.65c-0.133,0.867,0.117,1.534,0.75,2
			L1.3-4L0.8-3.55C0.167-2.851-0.083-2.084,0.05-1.25z M1.55-1.101c-0.3-0.133-0.433-0.466-0.4-1c0.033-0.6,0.333-1.05,0.9-1.35
			l0.6-0.3l0.45-0.05c0.366,0.033,0.5,0.383,0.4,1.05C3.434-2.25,3.2-1.834,2.8-1.5C2.367-1.101,1.95-0.967,1.55-1.101z"/>
	</g>
</symbol>
<use xlink:href="#cubimal_x5F_mc"  width="32.199" height="30.91" id="cubimal" x="-0.385" y="-30.361" transform="matrix(1 0 0 -1 0.3999 0.5498)" style="overflow:visible;"/>
</svg>
