<?xml version="1.0" encoding="iso-8859-1"?>
<!-- Generator: Adobe Illustrator 15.1.0, SVG Export Plug-In . SVG Version: 6.00 Build 0)  -->
<!DOCTYPE svg PUBLIC "-//W3C//DTD SVG 1.1//EN" "http://www.w3.org/Graphics/SVG/1.1/DTD/svg11.dtd">
<svg version="1.1" id="flash0.ai" xmlns="http://www.w3.org/2000/svg" xmlns:xlink="http://www.w3.org/1999/xlink" x="0px" y="0px"
	 width="35.8px" height="26.8px" viewBox="0 0 35.8 26.8" style="enable-background:new 0 0 35.8 26.8;" xml:space="preserve">
<symbol  id="Symbol_3" viewBox="0 -26.8 29.3 26.815">
	<g id="Layer_1_2_">
		<g>
			
				<linearGradient id="SVGID_1_" gradientUnits="userSpaceOnUse" x1="-2109.9814" y1="-13440.7754" x2="-2090.833" y2="-13440.7754" gradientTransform="matrix(0.3068 -0.9518 0.9518 0.3068 13450.3877 2111.8301)">
				<stop  offset="0" style="stop-color:#6B4307"/>
				<stop  offset="1" style="stop-color:#3E0B02"/>
			</linearGradient>
			<path style="fill-rule:evenodd;clip-rule:evenodd;fill:url(#SVGID_1_);" d="M6-22.2c-2.133,0.3-3.4,0.483-3.8,0.55
				c-0.7,0.1-1.167,0.4-1.4,0.9c-0.366,0.667-0.566,2.017-0.6,4.05C0.066-13.466,0-11.1,0-9.6c0.033,2.667,0.4,4.25,1.1,4.75
				c0.966,0.667,2.517,1.566,4.65,2.7C8.283-0.75,9.9-0.033,10.6,0c0.933,0.033,2.867-0.15,5.8-0.55
				c3.133-0.433,5.067-0.65,5.8-0.65c1.1,0,1.933-0.216,2.5-0.65c0.366-0.3,0.65-0.767,0.85-1.4c0.1-0.434,0.167-2.333,0.2-5.7
				c0.033-3.066,0.033-5.017,0-5.85c0-0.366,0-0.85,0-1.45c-0.033-0.5-0.184-0.95-0.45-1.35c-0.267-0.434-1.167-1.184-2.7-2.25
				c-1.333-0.967-2.3-1.6-2.9-1.9c-1.7-0.934-2.967-1.4-3.8-1.4c-2.433,0.3-4.3,0.45-5.6,0.45C9.533-22.666,8.1-22.5,6-22.2z"/>
			
				<linearGradient id="SVGID_2_" gradientUnits="userSpaceOnUse" x1="-2372.7314" y1="-12875.5742" x2="-2355.7336" y2="-12875.5742" gradientTransform="matrix(0.3574 -0.934 0.934 0.3574 12891.0908 2379.8779)">
				<stop  offset="0" style="stop-color:#563604"/>
				<stop  offset="1" style="stop-color:#330801"/>
			</linearGradient>
			<path style="fill-rule:evenodd;clip-rule:evenodd;fill:url(#SVGID_2_);" d="M25.55-3.25c0.1-0.5,0.15-1.367,0.15-2.6
				c0.133-4.333,0.15-7.316,0.05-8.95c0-0.366,0-0.85,0-1.45c-0.033-0.5-0.184-0.95-0.45-1.35c-0.267-0.434-1.167-1.184-2.7-2.25
				c-1.333-0.967-2.3-1.6-2.9-1.9c-0.267-0.167-0.9-0.434-1.9-0.8c-1-0.366-1.633-0.566-1.9-0.6c0.3,0.6,0.45,1.316,0.45,2.15
				l-0.1,14l0.1,0.15c0.167,0.2,1.067,0.7,2.7,1.5c1.867,0.9,3.05,1.517,3.55,1.85C24-2.6,24.75-2.1,24.85-2
				C25.15-2.3,25.383-2.716,25.55-3.25z"/>
			
				<linearGradient id="SVGID_3_" gradientUnits="userSpaceOnUse" x1="-1788.6475" y1="-14000.8457" x2="-1782.0319" y2="-14000.8457" gradientTransform="matrix(0.2532 -0.9674 0.9674 0.2532 14016.6943 1801.2256)">
				<stop  offset="0" style="stop-color:#B8AB8D"/>
				<stop  offset="1" style="stop-color:#9B9178"/>
			</linearGradient>
			<path style="fill-rule:evenodd;clip-rule:evenodd;fill:url(#SVGID_3_);" d="M16.35-20.95c3.267,1.333,6.4,2.967,9.4,4.9
				c0-0.633-0.15-1.15-0.45-1.55c-0.267-0.434-1.167-1.184-2.7-2.25c-1.333-0.967-2.3-1.6-2.9-1.9c-0.267-0.167-0.9-0.434-1.9-0.8
				c-1-0.366-1.633-0.566-1.9-0.6c0.3,0.6,0.45,1.316,0.45,2.15V-20.95z"/>
			<linearGradient id="SVGID_4_" gradientUnits="userSpaceOnUse" x1="0.6499" y1="-3.417" x2="24.8501" y2="-3.417">
				<stop  offset="0" style="stop-color:#9A6936"/>
				<stop  offset="1" style="stop-color:#653613"/>
			</linearGradient>
			<path style="fill-rule:evenodd;clip-rule:evenodd;fill:url(#SVGID_4_);" d="M0.65-5.45l0.45,0.6
				c0.966,0.667,2.517,1.566,4.65,2.7C8.283-0.75,9.9-0.033,10.6,0c2.233,0.1,6.1-0.3,11.6-1.2c1.4-0.2,2.283-0.466,2.65-0.8
				c-0.367-0.367-0.883-0.767-1.55-1.2c-0.5-0.3-1.783-0.966-3.85-2c-1.9-0.9-2.934-1.45-3.1-1.65c-0.933,0.066-3.85,0.367-8.75,0.9
				C3.867-5.55,1.55-5.383,0.65-5.45z"/>
			
				<radialGradient id="SVGID_5_" cx="8.6001" cy="-20.5996" r="2.375" gradientTransform="matrix(1 0 0 -1.1947 0 -45.2104)" gradientUnits="userSpaceOnUse">
				<stop  offset="0.2157" style="stop-color:#000000;stop-opacity:0.3765"/>
				<stop  offset="0.8667" style="stop-color:#000000;stop-opacity:0"/>
			</radialGradient>
			<path style="fill-rule:evenodd;clip-rule:evenodd;fill:url(#SVGID_5_);" d="M11-20.6c0-0.767-0.233-1.434-0.7-2
				s-1.033-0.85-1.7-0.85c-0.633,0-1.183,0.284-1.65,0.85s-0.7,1.233-0.7,2s0.233,1.434,0.7,2c0.467,0.533,1.017,0.8,1.65,0.8
				c0.667,0,1.233-0.267,1.7-0.8C10.767-19.166,11-19.833,11-20.6z"/>
			<g>
				
					<linearGradient id="SVGID_6_" gradientUnits="userSpaceOnUse" x1="15883.8408" y1="-144.0938" x2="15889.0166" y2="-144.0938" gradientTransform="matrix(-0.0145 0.9999 -1.0009 0.0569 107.8608 -15886.6094)">
					<stop  offset="0" style="stop-color:#563604"/>
					<stop  offset="1" style="stop-color:#190300"/>
				</linearGradient>
				<path style="fill-rule:evenodd;clip-rule:evenodd;fill:url(#SVGID_6_);" d="M19.45-9.899c1.066,0.733,2.433,1.55,4.1,2.45
					c0.567-0.667,0.817-1.5,0.75-2.5c-0.066-0.9-0.366-1.667-0.9-2.3c-0.5-0.633-1.083-0.95-1.75-0.95s-1.216,0.317-1.65,0.95
					s-0.617,1.4-0.55,2.3V-9.899z"/>
				
					<radialGradient id="SVGID_7_" cx="1138.2231" cy="-17326.7695" r="3.1645" gradientTransform="matrix(-0.1304 -0.9915 -0.9915 0.1304 -17009.0117 3378.3945)" gradientUnits="userSpaceOnUse">
					<stop  offset="0" style="stop-color:#F9ECAD"/>
					<stop  offset="0.3804" style="stop-color:#F2CF35"/>
					<stop  offset="0.5843" style="stop-color:#F1CC32"/>
					<stop  offset="0.7804" style="stop-color:#EFC52A"/>
					<stop  offset="0.9725" style="stop-color:#EBB821"/>
					<stop  offset="1" style="stop-color:#EBB61F"/>
				</radialGradient>
				<path style="fill-rule:evenodd;clip-rule:evenodd;fill:url(#SVGID_7_);" d="M22.55-8c0.6-0.467,0.867-1.133,0.8-2
					c-0.034-0.633-0.267-1.184-0.7-1.65c-0.466-0.467-0.966-0.7-1.5-0.7c-0.533,0-0.983,0.233-1.35,0.7
					c-0.366,0.466-0.533,1.017-0.5,1.65C20.566-9.166,21.65-8.5,22.55-8z"/>
			</g>
			
				<radialGradient id="SVGID_8_" cx="1476.27" cy="-17575.7188" r="1.0522" gradientTransform="matrix(-0.1663 -0.9861 -0.9861 0.1663 -17063.0098 4369.4932)" gradientUnits="userSpaceOnUse">
				<stop  offset="0" style="stop-color:#8F7D6C"/>
				<stop  offset="1" style="stop-color:#594D40"/>
			</radialGradient>
			<path style="fill-rule:evenodd;clip-rule:evenodd;fill:url(#SVGID_8_);" d="M22.85-10.05c0-0.6-0.217-0.9-0.65-0.9
				c-0.434,0-0.65,0.3-0.65,0.9c0,0.567,0.217,0.85,0.65,0.85C22.633-9.2,22.85-9.483,22.85-10.05z"/>
			<path style="fill-rule:evenodd;clip-rule:evenodd;fill:#9C6947;" d="M3-5.649L0.7-5.2L8.25-6c1.4-0.167,3.017-0.317,4.85-0.45
				s2.9-0.167,3.2-0.1c0.3,0.034,1.6,0.65,3.9,1.85c1.433,0.767,2.983,1.667,4.65,2.7c-0.067-0.4-1.45-1.333-4.15-2.8
				c-2.7-1.5-4.083-2.417-4.15-2.75c-0.066-0.366-0.066-4.517,0-12.45c-0.033-1.7-0.25-2.75-0.65-3.15l0.15,0.6
				c0.1,0.267,0.134,2.267,0.1,6c-0.033,3.634-0.083,6-0.15,7.1s-0.133,1.733-0.2,1.9c-0.066,0.2-0.25,0.333-0.55,0.4
				c-0.4,0.1-3.233,0.417-8.5,0.95C5.95-6.133,4.7-5.95,3-5.649z"/>
			
				<linearGradient id="SVGID_9_" gradientUnits="userSpaceOnUse" x1="19724.166" y1="-8274.3545" x2="19728.6914" y2="-8274.3545" gradientTransform="matrix(-0.7126 0.7016 -0.8183 -0.5977 7308.9297 -18801.4902)">
				<stop  offset="0" style="stop-color:#191001"/>
				<stop  offset="1" style="stop-color:#160300"/>
			</linearGradient>
			<path style="fill-rule:evenodd;clip-rule:evenodd;fill:url(#SVGID_9_);" d="M22.1-14.05c0.933,0.4,1.783,0.467,2.55,0.2
				c0.7-0.267,0.983-0.633,0.85-1.1c-0.1-0.333-0.517-0.617-1.25-0.85c-1.066-0.333-1.733-0.566-2-0.7
				c-0.934-0.833-1.633-1.4-2.1-1.7c-0.833-0.566-1.35-0.4-1.55,0.5c-0.1,0.5,0.283,1.167,1.15,2
				C20.55-14.933,21.333-14.383,22.1-14.05z"/>
			
				<linearGradient id="SVGID_10_" gradientUnits="userSpaceOnUse" x1="738.7871" y1="-16997.4707" x2="743.1533" y2="-16997.4707" gradientTransform="matrix(-0.0859 -0.9963 0.9963 -0.0859 17024.916 -735.6035)">
				<stop  offset="0" style="stop-color:#F6E9B8"/>
				<stop  offset="1" style="stop-color:#AFA16D"/>
			</linearGradient>
			<path style="fill-rule:evenodd;clip-rule:evenodd;fill:url(#SVGID_10_);" d="M24.45-14.05c0.2,0,0.5-0.183,0.9-0.55
				c0.4-0.4,0.8-0.617,1.2-0.65c0.733-0.067,1.65,0.083,2.75,0.45c-0.4-0.633-0.866-1.15-1.4-1.55c-0.4-0.267-0.917-0.383-1.55-0.35
				c-0.633,0.034-1.267,0.217-1.9,0.55c-0.567,0.3-0.783,0.733-0.65,1.3C23.9-14.35,24.117-14.083,24.45-14.05z"/>
			
				<linearGradient id="SVGID_11_" gradientUnits="userSpaceOnUse" x1="502.731" y1="-18531.3691" x2="507.9884" y2="-18531.3691" gradientTransform="matrix(-0.3234 -0.9463 1.0269 -0.0873 19216.6816 -1156.1943)">
				<stop  offset="0" style="stop-color:#F6E9B8"/>
				<stop  offset="1" style="stop-color:#AFA16D"/>
			</linearGradient>
			<path style="fill-rule:evenodd;clip-rule:evenodd;fill:url(#SVGID_11_);" d="M19.95-15.95c0.233-0.033,0.566-0.367,1-1
				c0.5-0.7,0.967-1.133,1.4-1.3c0.867-0.3,1.917-0.35,3.15-0.15c-0.934-1.267-1.85-1.85-2.75-1.75
				c-0.733,0.066-1.15,0.116-1.25,0.15c-0.367,0.133-0.867,0.5-1.5,1.1c-0.633,0.566-0.9,1.233-0.8,2
				C19.3-16.2,19.55-15.883,19.95-15.95z"/>
			
				<linearGradient id="SVGID_12_" gradientUnits="userSpaceOnUse" x1="502.3394" y1="-18532.5059" x2="507.5968" y2="-18532.5059" gradientTransform="matrix(-0.3234 -0.9463 1.0269 -0.0873 19216.6816 -1156.1943)">
				<stop  offset="0" style="stop-color:#CBBE8E"/>
				<stop  offset="1" style="stop-color:#746942"/>
			</linearGradient>
			<path style="fill-rule:evenodd;clip-rule:evenodd;fill:url(#SVGID_12_);" d="M20.45-16.5c-0.2-0.8-0.1-1.534,0.3-2.2
				c0.367-0.633,0.95-1.117,1.75-1.45c-0.533,0.033-0.9,0.083-1.1,0.15c-0.333,0.167-0.8,0.533-1.4,1.1
				c-0.633,0.566-0.9,1.233-0.8,2c0.1,0.7,0.35,1.017,0.75,0.95c0.2-0.066,0.383-0.2,0.55-0.4L20.45-16.5z"/>
			
				<linearGradient id="SVGID_13_" gradientUnits="userSpaceOnUse" x1="755.1704" y1="-17012.0176" x2="759.1608" y2="-17012.0176" gradientTransform="matrix(-0.0877 -0.9961 0.9961 -0.0877 17038.5176 -751.8066)">
				<stop  offset="0" style="stop-color:#CBBE8E"/>
				<stop  offset="1" style="stop-color:#746942"/>
			</linearGradient>
			<path style="fill-rule:evenodd;clip-rule:evenodd;fill:url(#SVGID_13_);" d="M24.45-14.05c0.167,0,0.233-0.216,0.2-0.65
				c-0.1-0.566,0.05-0.933,0.45-1.1c0.813-0.358,1.522-0.55,2.125-0.575L27-16.399c-1.2-0.1-2.05-0.017-2.55,0.25
				c-0.567,0.3-0.783,0.733-0.65,1.3C23.9-14.35,24.117-14.083,24.45-14.05z"/>
			
				<linearGradient id="SVGID_14_" gradientUnits="userSpaceOnUse" x1="752.2568" y1="664.0195" x2="758.23" y2="664.0195" gradientTransform="matrix(0.9961 0.0879 -0.0879 0.9961 -687.1572 -750.1821)">
				<stop  offset="0" style="stop-color:#6B4307"/>
				<stop  offset="1" style="stop-color:#3E0B02"/>
			</linearGradient>
			<path style="fill-rule:evenodd;clip-rule:evenodd;fill:url(#SVGID_14_);" d="M4.7-22.3c0.066,1.634,0.4,2.784,1,3.45
				c0.5,0.533,1.283,0.783,2.35,0.75c0.8,0,1.317-0.316,1.55-0.95C9.7-19.383,9.733-19.7,9.7-20c0-0.267-0.2-0.867-0.6-1.8
				c-0.333-0.767-0.4-1.366-0.2-1.8c0.367-0.8,1.65-1.517,3.85-2.15l-2.1-0.4c-1.5-0.267-2.783-0.2-3.85,0.2
				C5.333-25.35,4.633-24.133,4.7-22.3z"/>
			
				<linearGradient id="SVGID_15_" gradientUnits="userSpaceOnUse" x1="721.4497" y1="635.1357" x2="726.1916" y2="635.1357" gradientTransform="matrix(0.9964 0.0844 -0.0844 0.9964 -660.7129 -718.7441)">
				<stop  offset="0" style="stop-color:#B8AB8D"/>
				<stop  offset="1" style="stop-color:#9B9178"/>
			</linearGradient>
			<path style="fill-rule:evenodd;clip-rule:evenodd;fill:url(#SVGID_15_);" d="M5.35-26.05l0.65,2
				c0.133,0.434,0.533,0.817,1.2,1.15c0.667,0.333,1.267,0.5,1.8,0.5L9.25-23c0.2-0.434,0.483-0.784,0.85-1.05
				c0.6-0.4,1.067-0.816,1.4-1.25c-0.5,0.167-0.95-0.033-1.35-0.6c-0.2-0.333-0.233-0.583-0.1-0.75c0.1-0.1,0.117-0.15,0.05-0.15
				c-0.833,0-1.583,0.083-2.25,0.25L5.35-26.05z"/>
			
				<linearGradient id="SVGID_16_" gradientUnits="userSpaceOnUse" x1="737.8096" y1="668.3418" x2="749.7287" y2="668.3418" gradientTransform="matrix(0.9963 0.086 -0.086 0.9963 -672.9902 -733.314)">
				<stop  offset="0" style="stop-color:#6B4307"/>
				<stop  offset="1" style="stop-color:#3E0B02"/>
			</linearGradient>
			<path style="fill-rule:evenodd;clip-rule:evenodd;fill:url(#SVGID_16_);" d="M20.35-4.05c-6.167,0.9-9.95,1.4-11.35,1.5
				l-2.75,0.1l3.2,0.05c2.566-0.034,4.833-0.167,6.8-0.4c3.167-0.433,5.033-0.767,5.6-1L20.35-4.05z"/>
			
				<linearGradient id="SVGID_17_" gradientUnits="userSpaceOnUse" x1="-2529.1865" y1="-2.6934" x2="-2524.6365" y2="-2.6934" gradientTransform="matrix(1 0 0.3103 1 2538 0)">
				<stop  offset="0" style="stop-color:#AB863B"/>
				<stop  offset="1" style="stop-color:#B38336"/>
			</linearGradient>
			<path style="fill-rule:evenodd;clip-rule:evenodd;fill:url(#SVGID_17_);" d="M11.35-1.55c0.533,0.034,0.95,0,1.25-0.1
				c0.267-0.067,0.3-0.134,0.1-0.2c-1.033-0.434-1.767-0.8-2.2-1.1c-0.934-0.6-1.617-0.9-2.05-0.9c-0.8,0-0.967,0.233-0.5,0.7
				c0.2,0.267,0.75,0.6,1.65,1C10.467-1.783,11.05-1.583,11.35-1.55z"/>
			
				<linearGradient id="SVGID_18_" gradientUnits="userSpaceOnUse" x1="-2523.1162" y1="-3.2432" x2="-2518.5662" y2="-3.2432" gradientTransform="matrix(1 0 0.3103 1 2538 0)">
				<stop  offset="0" style="stop-color:#AB863B"/>
				<stop  offset="1" style="stop-color:#B38336"/>
			</linearGradient>
			<path style="fill-rule:evenodd;clip-rule:evenodd;fill:url(#SVGID_18_);" d="M17.25-2.1c0.533,0.033,0.95,0,1.25-0.1
				c0.267-0.066,0.3-0.133,0.1-0.2c-1.034-0.434-1.767-0.8-2.2-1.1c-0.933-0.6-1.617-0.9-2.05-0.9c-0.767,0-0.95,0.25-0.55,0.75
				c0.233,0.233,0.8,0.55,1.7,0.95C16.367-2.333,16.95-2.133,17.25-2.1z"/>
			<g>
				
					<linearGradient id="SVGID_19_" gradientUnits="userSpaceOnUse" x1="725.3374" y1="639.6211" x2="733.5922" y2="639.6211" gradientTransform="matrix(0.9964 0.0848 -0.0848 0.9964 -664.0459 -722.6958)">
					<stop  offset="0" style="stop-color:#706856"/>
					<stop  offset="1" style="stop-color:#7A725F"/>
				</linearGradient>
				<path style="fill-rule:evenodd;clip-rule:evenodd;fill:url(#SVGID_19_);" d="M9.05-22.7v0.05c0.267-0.6,0.617-1.067,1.05-1.4
					l0.2-0.15c-0.566,0.133-0.9,0.233-1,0.3l0.3,0.2c-0.133,0.2-0.383,0.267-0.75,0.2c-0.4-0.133-0.683-0.217-0.85-0.25l0.35,0.55
					c-0.433,0.067-0.767,0.017-1-0.15C7.517-22.916,8.083-22.7,9.05-22.7z"/>
				
					<linearGradient id="SVGID_20_" gradientUnits="userSpaceOnUse" x1="725.3462" y1="637.3691" x2="733.601" y2="637.3691" gradientTransform="matrix(0.9964 0.0848 -0.0848 0.9964 -664.0459 -722.6958)">
					<stop  offset="0" style="stop-color:#706856"/>
					<stop  offset="1" style="stop-color:#7A725F"/>
				</linearGradient>
				<path style="fill-rule:evenodd;clip-rule:evenodd;fill:url(#SVGID_20_);" d="M11.5-25.3c-0.5,0.167-0.95-0.033-1.35-0.6
					c-0.2-0.333-0.233-0.583-0.1-0.75c0.1-0.1,0.117-0.15,0.05-0.15c-0.833,0-1.583,0.083-2.25,0.25l-0.7,0.2
					c0.867-0.066,1.3-0.017,1.3,0.15l-0.2,0.1c0.133-0.033,0.35-0.1,0.65-0.2c0.3-0.066,0.517-0.033,0.65,0.1
					c0.1,0.1,0.15,0.267,0.15,0.5s0.033,0.4,0.1,0.5l0.45,0.45l0.4,0.2v0.1L11.5-25.3z"/>
			</g>
		</g>
	</g>
</symbol>
<symbol  id="cubimal_x5F_mc" viewBox="-0.385 -27.75 35.685 26.815">
	<g id="Layer_3_2_">
	</g>
	<g id="Layer_5_1_">
	</g>
	<g id="Layer_4_2_">
	</g>
	<g id="Layer_2_copy_2_">
	</g>
	<g id="Layer_2_2_">
	</g>
	<g id="Layer_1_10_">
		
			<use xlink:href="#winder_x5F_static"  width="10.185" height="8.474" x="0.015" y="-8.472" transform="matrix(1 0 0 1 -0.3999 -7.8999)" style="overflow:visible;"/>
		<g>
			
				<linearGradient id="SVGID_21_" gradientUnits="userSpaceOnUse" x1="-2107.2363" y1="-13435.3574" x2="-2088.0879" y2="-13435.3574" gradientTransform="matrix(0.3068 -0.9518 0.9518 0.3068 13450.3877 2111.8301)">
				<stop  offset="0" style="stop-color:#6B4307"/>
				<stop  offset="1" style="stop-color:#3E0B02"/>
			</linearGradient>
			<path style="fill-rule:evenodd;clip-rule:evenodd;fill:url(#SVGID_21_);" d="M12-23.15c-2.133,0.3-3.4,0.483-3.8,0.55
				c-0.7,0.1-1.167,0.4-1.4,0.9c-0.366,0.667-0.566,2.017-0.6,4.05c-0.134,3.233-0.2,5.6-0.2,7.1C6.033-7.883,6.4-6.3,7.1-5.8
				c0.966,0.667,2.517,1.566,4.65,2.7c2.533,1.4,4.15,2.116,4.85,2.15c0.933,0.033,2.867-0.15,5.8-0.55
				c3.133-0.433,5.067-0.65,5.8-0.65c1.1,0,1.933-0.216,2.5-0.65c0.366-0.3,0.65-0.767,0.85-1.4c0.1-0.434,0.167-2.333,0.2-5.7
				c0.033-3.066,0.033-5.017,0-5.85c0-0.366,0-0.85,0-1.45c-0.033-0.5-0.184-0.95-0.45-1.35c-0.267-0.434-1.167-1.184-2.7-2.25
				c-1.333-0.967-2.3-1.6-2.9-1.9c-1.7-0.934-2.967-1.4-3.8-1.4c-2.433,0.3-4.3,0.45-5.6,0.45C15.533-23.616,14.1-23.45,12-23.15z"
				/>
			
				<linearGradient id="SVGID_22_" gradientUnits="userSpaceOnUse" x1="-2369.6992" y1="-12870.3105" x2="-2352.7014" y2="-12870.3105" gradientTransform="matrix(0.3574 -0.934 0.934 0.3574 12891.0908 2379.8779)">
				<stop  offset="0" style="stop-color:#563604"/>
				<stop  offset="1" style="stop-color:#330801"/>
			</linearGradient>
			<path style="fill-rule:evenodd;clip-rule:evenodd;fill:url(#SVGID_22_);" d="M31.55-4.2c0.1-0.5,0.15-1.367,0.15-2.6
				c0.133-4.333,0.15-7.316,0.05-8.95c0-0.366,0-0.85,0-1.45c-0.033-0.5-0.184-0.95-0.45-1.35c-0.267-0.434-1.167-1.184-2.7-2.25
				c-1.333-0.967-2.3-1.6-2.9-1.9c-0.267-0.167-0.9-0.434-1.9-0.8c-1-0.366-1.633-0.566-1.9-0.6c0.3,0.6,0.45,1.316,0.45,2.15
				l-0.1,14l0.1,0.15c0.167,0.2,1.067,0.7,2.7,1.5c1.867,0.9,3.05,1.517,3.55,1.85c1.4,0.9,2.15,1.4,2.25,1.5
				C31.15-3.25,31.383-3.667,31.55-4.2z"/>
			
				<linearGradient id="SVGID_23_" gradientUnits="userSpaceOnUse" x1="-1786.209" y1="-13995.2822" x2="-1779.5934" y2="-13995.2822" gradientTransform="matrix(0.2532 -0.9674 0.9674 0.2532 14016.6943 1801.2256)">
				<stop  offset="0" style="stop-color:#B8AB8D"/>
				<stop  offset="1" style="stop-color:#9B9178"/>
			</linearGradient>
			<path style="fill-rule:evenodd;clip-rule:evenodd;fill:url(#SVGID_23_);" d="M22.35-21.9c3.267,1.333,6.4,2.967,9.4,4.9
				c0-0.633-0.15-1.15-0.45-1.55c-0.267-0.434-1.167-1.184-2.7-2.25c-1.333-0.967-2.3-1.6-2.9-1.9c-0.267-0.167-0.9-0.434-1.9-0.8
				c-1-0.366-1.633-0.566-1.9-0.6c0.3,0.6,0.45,1.316,0.45,2.15V-21.9z"/>
			<linearGradient id="SVGID_24_" gradientUnits="userSpaceOnUse" x1="6.6499" y1="-4.3672" x2="30.8501" y2="-4.3672">
				<stop  offset="0" style="stop-color:#9A6936"/>
				<stop  offset="1" style="stop-color:#653613"/>
			</linearGradient>
			<path style="fill-rule:evenodd;clip-rule:evenodd;fill:url(#SVGID_24_);" d="M6.65-6.4L7.1-5.8c0.966,0.667,2.517,1.566,4.65,2.7
				c2.533,1.4,4.15,2.116,4.85,2.15c2.233,0.1,6.1-0.3,11.6-1.2c1.4-0.2,2.283-0.466,2.65-0.8c-0.367-0.367-0.883-0.767-1.55-1.2
				c-0.5-0.3-1.783-0.966-3.85-2c-1.9-0.9-2.934-1.45-3.1-1.65c-0.933,0.066-3.85,0.367-8.75,0.9C9.867-6.5,7.55-6.333,6.65-6.4z"/>
			
				<radialGradient id="SVGID_25_" cx="14.6001" cy="-21.5498" r="2.375" gradientTransform="matrix(1 0 0 -1.1947 0 -47.2964)" gradientUnits="userSpaceOnUse">
				<stop  offset="0.2157" style="stop-color:#000000;stop-opacity:0.3765"/>
				<stop  offset="0.8667" style="stop-color:#000000;stop-opacity:0"/>
			</radialGradient>
			<path style="fill-rule:evenodd;clip-rule:evenodd;fill:url(#SVGID_25_);" d="M17-21.55c0-0.767-0.233-1.434-0.7-2
				s-1.033-0.85-1.7-0.85c-0.633,0-1.183,0.284-1.65,0.85s-0.7,1.233-0.7,2s0.233,1.434,0.7,2c0.467,0.533,1.017,0.8,1.65,0.8
				c0.667,0,1.233-0.267,1.7-0.8C16.767-20.116,17-20.783,17-21.55z"/>
			<g>
				
					<linearGradient id="SVGID_26_" gradientUnits="userSpaceOnUse" x1="15883.2314" y1="-150.0796" x2="15888.4072" y2="-150.0796" gradientTransform="matrix(-0.0145 0.9999 -1.0009 0.0569 107.8608 -15886.6094)">
					<stop  offset="0" style="stop-color:#563604"/>
					<stop  offset="1" style="stop-color:#190300"/>
				</linearGradient>
				<path style="fill-rule:evenodd;clip-rule:evenodd;fill:url(#SVGID_26_);" d="M25.45-10.85c1.066,0.733,2.433,1.55,4.1,2.45
					c0.567-0.667,0.817-1.5,0.75-2.5c-0.066-0.9-0.366-1.667-0.9-2.3c-0.5-0.633-1.083-0.95-1.75-0.95S26.434-13.833,26-13.2
					s-0.617,1.4-0.55,2.3V-10.85z"/>
				
					<radialGradient id="SVGID_27_" cx="1138.3828" cy="-17320.6973" r="3.1645" gradientTransform="matrix(-0.1304 -0.9915 -0.9915 0.1304 -16996.9707 3376.8115)" gradientUnits="userSpaceOnUse">
					<stop  offset="0" style="stop-color:#F9ECAD"/>
					<stop  offset="0.3804" style="stop-color:#F2CF35"/>
					<stop  offset="0.5843" style="stop-color:#F1CC32"/>
					<stop  offset="0.7804" style="stop-color:#EFC52A"/>
					<stop  offset="0.9725" style="stop-color:#EBB821"/>
					<stop  offset="1" style="stop-color:#EBB61F"/>
				</radialGradient>
				<path style="fill-rule:evenodd;clip-rule:evenodd;fill:url(#SVGID_27_);" d="M28.55-8.95c0.6-0.467,0.867-1.133,0.8-2
					c-0.034-0.633-0.267-1.184-0.7-1.65c-0.466-0.467-0.966-0.7-1.5-0.7c-0.533,0-0.983,0.233-1.35,0.7
					c-0.366,0.466-0.533,1.017-0.5,1.65C26.566-10.116,27.65-9.45,28.55-8.95z"/>
			</g>
			
				<radialGradient id="SVGID_28_" cx="1476.209" cy="-17569.6445" r="1.0522" gradientTransform="matrix(-0.1663 -0.9861 -0.9861 0.1663 -17051.0313 4367.4727)" gradientUnits="userSpaceOnUse">
				<stop  offset="0" style="stop-color:#8F7D6C"/>
				<stop  offset="1" style="stop-color:#594D40"/>
			</radialGradient>
			<path style="fill-rule:evenodd;clip-rule:evenodd;fill:url(#SVGID_28_);" d="M28.85-11c0-0.6-0.217-0.9-0.65-0.9
				c-0.434,0-0.65,0.3-0.65,0.9c0,0.567,0.217,0.85,0.65,0.85C28.633-10.15,28.85-10.433,28.85-11z"/>
			<path style="fill-rule:evenodd;clip-rule:evenodd;fill:#9C6947;" d="M9-6.6L6.7-6.15l7.55-0.8c1.4-0.167,3.017-0.317,4.85-0.45
				s2.9-0.167,3.2-0.1c0.3,0.034,1.6,0.65,3.9,1.85c1.433,0.767,2.983,1.667,4.65,2.7c-0.067-0.4-1.45-1.333-4.15-2.8
				c-2.7-1.5-4.083-2.417-4.15-2.75c-0.066-0.366-0.066-4.517,0-12.45c-0.033-1.7-0.25-2.75-0.65-3.15l0.15,0.6
				c0.1,0.267,0.134,2.267,0.1,6c-0.033,3.634-0.083,6-0.15,7.1s-0.133,1.733-0.2,1.9c-0.066,0.2-0.25,0.333-0.55,0.4
				c-0.4,0.1-3.233,0.417-8.5,0.95C11.95-7.083,10.7-6.9,9-6.6z"/>
			
				<linearGradient id="SVGID_29_" gradientUnits="userSpaceOnUse" x1="19719.8008" y1="-8277.8867" x2="19724.3262" y2="-8277.8867" gradientTransform="matrix(-0.7126 0.7016 -0.8183 -0.5977 7308.9297 -18801.4902)">
				<stop  offset="0" style="stop-color:#191001"/>
				<stop  offset="1" style="stop-color:#160300"/>
			</linearGradient>
			<path style="fill-rule:evenodd;clip-rule:evenodd;fill:url(#SVGID_29_);" d="M28.1-15c0.933,0.4,1.783,0.467,2.55,0.2
				c0.7-0.267,0.983-0.633,0.85-1.1c-0.1-0.333-0.517-0.617-1.25-0.85c-1.066-0.333-1.733-0.566-2-0.7
				c-0.934-0.833-1.633-1.4-2.1-1.7c-0.833-0.566-1.35-0.4-1.55,0.5c-0.1,0.5,0.283,1.167,1.15,2
				C26.55-15.883,27.333-15.333,28.1-15z"/>
			
				<linearGradient id="SVGID_30_" gradientUnits="userSpaceOnUse" x1="739.2183" y1="-16991.4102" x2="743.5844" y2="-16991.4102" gradientTransform="matrix(-0.0859 -0.9963 0.9963 -0.0859 17024.916 -735.6035)">
				<stop  offset="0" style="stop-color:#F6E9B8"/>
				<stop  offset="1" style="stop-color:#AFA16D"/>
			</linearGradient>
			<path style="fill-rule:evenodd;clip-rule:evenodd;fill:url(#SVGID_30_);" d="M30.45-15c0.2,0,0.5-0.183,0.9-0.55
				c0.4-0.4,0.8-0.617,1.2-0.65c0.733-0.067,1.65,0.083,2.75,0.45c-0.4-0.633-0.866-1.15-1.4-1.55c-0.4-0.267-0.917-0.383-1.55-0.35
				c-0.633,0.034-1.267,0.217-1.9,0.55c-0.567,0.3-0.783,0.733-0.65,1.3C29.9-15.3,30.117-15.033,30.45-15z"/>
			
				<linearGradient id="SVGID_31_" gradientUnits="userSpaceOnUse" x1="503.1826" y1="-18525.3848" x2="508.4401" y2="-18525.3848" gradientTransform="matrix(-0.3234 -0.9463 1.0269 -0.0873 19216.6816 -1156.1943)">
				<stop  offset="0" style="stop-color:#F6E9B8"/>
				<stop  offset="1" style="stop-color:#AFA16D"/>
			</linearGradient>
			<path style="fill-rule:evenodd;clip-rule:evenodd;fill:url(#SVGID_31_);" d="M25.95-16.9c0.233-0.033,0.566-0.367,1-1
				c0.5-0.7,0.967-1.133,1.4-1.3c0.867-0.3,1.917-0.35,3.15-0.15c-0.934-1.267-1.85-1.85-2.75-1.75
				c-0.733,0.066-1.15,0.116-1.25,0.15c-0.367,0.133-0.867,0.5-1.5,1.1c-0.633,0.566-0.9,1.233-0.8,2
				C25.3-17.15,25.55-16.833,25.95-16.9z"/>
			
				<linearGradient id="SVGID_32_" gradientUnits="userSpaceOnUse" x1="502.7915" y1="-18526.5215" x2="508.049" y2="-18526.5215" gradientTransform="matrix(-0.3234 -0.9463 1.0269 -0.0873 19216.6816 -1156.1943)">
				<stop  offset="0" style="stop-color:#CBBE8E"/>
				<stop  offset="1" style="stop-color:#746942"/>
			</linearGradient>
			<path style="fill-rule:evenodd;clip-rule:evenodd;fill:url(#SVGID_32_);" d="M26.45-17.45c-0.2-0.8-0.1-1.534,0.3-2.2
				c0.367-0.633,0.95-1.117,1.75-1.45c-0.533,0.033-0.9,0.083-1.1,0.15c-0.333,0.167-0.8,0.533-1.4,1.1
				c-0.633,0.566-0.9,1.233-0.8,2c0.1,0.7,0.35,1.017,0.75,0.95c0.2-0.066,0.383-0.2,0.55-0.4L26.45-17.45z"/>
			
				<linearGradient id="SVGID_33_" gradientUnits="userSpaceOnUse" x1="755.5908" y1="-17005.957" x2="759.5812" y2="-17005.957" gradientTransform="matrix(-0.0877 -0.9961 0.9961 -0.0877 17038.5176 -751.8066)">
				<stop  offset="0" style="stop-color:#CBBE8E"/>
				<stop  offset="1" style="stop-color:#746942"/>
			</linearGradient>
			<path style="fill-rule:evenodd;clip-rule:evenodd;fill:url(#SVGID_33_);" d="M30.45-15c0.167,0,0.233-0.216,0.2-0.65
				c-0.1-0.566,0.05-0.933,0.45-1.1c0.813-0.358,1.522-0.55,2.125-0.575L33-17.35c-1.2-0.1-2.05-0.017-2.55,0.25
				c-0.567,0.3-0.783,0.733-0.65,1.3C29.9-15.3,30.117-15.033,30.45-15z"/>
			
				<linearGradient id="SVGID_34_" gradientUnits="userSpaceOnUse" x1="758.1504" y1="662.5459" x2="764.1235" y2="662.5459" gradientTransform="matrix(0.9961 0.0879 -0.0879 0.9961 -687.1572 -750.1821)">
				<stop  offset="0" style="stop-color:#6B4307"/>
				<stop  offset="1" style="stop-color:#3E0B02"/>
			</linearGradient>
			<path style="fill-rule:evenodd;clip-rule:evenodd;fill:url(#SVGID_34_);" d="M10.7-23.25c0.066,1.634,0.4,2.784,1,3.45
				c0.5,0.533,1.283,0.783,2.35,0.75c0.8,0,1.317-0.316,1.55-0.95c0.1-0.333,0.133-0.65,0.1-0.95c0-0.267-0.2-0.867-0.6-1.8
				c-0.333-0.767-0.4-1.366-0.2-1.8c0.367-0.8,1.65-1.517,3.85-2.15l-2.1-0.4c-1.5-0.267-2.783-0.2-3.85,0.2
				C11.333-26.3,10.633-25.083,10.7-23.25z"/>
			
				<linearGradient id="SVGID_35_" gradientUnits="userSpaceOnUse" x1="727.3481" y1="633.6826" x2="732.09" y2="633.6826" gradientTransform="matrix(0.9964 0.0844 -0.0844 0.9964 -660.7129 -718.7441)">
				<stop  offset="0" style="stop-color:#B8AB8D"/>
				<stop  offset="1" style="stop-color:#9B9178"/>
			</linearGradient>
			<path style="fill-rule:evenodd;clip-rule:evenodd;fill:url(#SVGID_35_);" d="M11.35-27L12-25c0.133,0.434,0.533,0.817,1.2,1.15
				c0.667,0.333,1.267,0.5,1.8,0.5l0.25-0.6c0.2-0.434,0.483-0.784,0.85-1.05c0.6-0.4,1.067-0.816,1.4-1.25
				c-0.5,0.167-0.95-0.033-1.35-0.6c-0.2-0.333-0.233-0.583-0.1-0.75c0.1-0.1,0.117-0.15,0.05-0.15c-0.833,0-1.583,0.083-2.25,0.25
				L11.35-27z"/>
			
				<linearGradient id="SVGID_36_" gradientUnits="userSpaceOnUse" x1="743.7056" y1="666.8789" x2="755.6247" y2="666.8789" gradientTransform="matrix(0.9963 0.086 -0.086 0.9963 -672.9902 -733.314)">
				<stop  offset="0" style="stop-color:#6B4307"/>
				<stop  offset="1" style="stop-color:#3E0B02"/>
			</linearGradient>
			<path style="fill-rule:evenodd;clip-rule:evenodd;fill:url(#SVGID_36_);" d="M26.35-5C20.184-4.1,16.4-3.6,15-3.5l-2.75,0.1
				l3.2,0.05c2.566-0.034,4.833-0.167,6.8-0.4c3.167-0.433,5.033-0.767,5.6-1L26.35-5z"/>
			
				<linearGradient id="SVGID_37_" gradientUnits="userSpaceOnUse" x1="-2522.8916" y1="-3.6436" x2="-2518.3416" y2="-3.6436" gradientTransform="matrix(1 0 0.3103 1 2538 0)">
				<stop  offset="0" style="stop-color:#AB863B"/>
				<stop  offset="1" style="stop-color:#B38336"/>
			</linearGradient>
			<path style="fill-rule:evenodd;clip-rule:evenodd;fill:url(#SVGID_37_);" d="M17.35-2.5c0.533,0.034,0.95,0,1.25-0.1
				c0.267-0.067,0.3-0.134,0.1-0.2c-1.033-0.434-1.767-0.8-2.2-1.1c-0.934-0.6-1.617-0.9-2.05-0.9c-0.8,0-0.967,0.233-0.5,0.7
				c0.2,0.267,0.75,0.6,1.65,1C16.467-2.733,17.05-2.533,17.35-2.5z"/>
			
				<linearGradient id="SVGID_38_" gradientUnits="userSpaceOnUse" x1="-2516.8213" y1="-4.1934" x2="-2512.2712" y2="-4.1934" gradientTransform="matrix(1 0 0.3103 1 2538 0)">
				<stop  offset="0" style="stop-color:#AB863B"/>
				<stop  offset="1" style="stop-color:#B38336"/>
			</linearGradient>
			<path style="fill-rule:evenodd;clip-rule:evenodd;fill:url(#SVGID_38_);" d="M23.25-3.05c0.533,0.033,0.95,0,1.25-0.1
				c0.267-0.066,0.3-0.133,0.1-0.2c-1.034-0.434-1.767-0.8-2.2-1.1c-0.933-0.6-1.617-0.9-2.05-0.9c-0.767,0-0.95,0.25-0.55,0.75
				c0.233,0.233,0.8,0.55,1.7,0.95C22.367-3.283,22.95-3.083,23.25-3.05z"/>
			<g>
				
					<linearGradient id="SVGID_39_" gradientUnits="userSpaceOnUse" x1="731.2354" y1="638.166" x2="739.4901" y2="638.166" gradientTransform="matrix(0.9964 0.0848 -0.0848 0.9964 -664.0459 -722.6958)">
					<stop  offset="0" style="stop-color:#706856"/>
					<stop  offset="1" style="stop-color:#7A725F"/>
				</linearGradient>
				<path style="fill-rule:evenodd;clip-rule:evenodd;fill:url(#SVGID_39_);" d="M15.05-23.65v0.05c0.267-0.6,0.617-1.067,1.05-1.4
					l0.2-0.15c-0.566,0.133-0.9,0.233-1,0.3l0.3,0.2c-0.133,0.2-0.383,0.267-0.75,0.2c-0.4-0.133-0.683-0.217-0.85-0.25l0.35,0.55
					c-0.433,0.067-0.767,0.017-1-0.15C13.517-23.866,14.083-23.65,15.05-23.65z"/>
				
					<linearGradient id="SVGID_40_" gradientUnits="userSpaceOnUse" x1="731.2441" y1="635.9141" x2="739.4989" y2="635.9141" gradientTransform="matrix(0.9964 0.0848 -0.0848 0.9964 -664.0459 -722.6958)">
					<stop  offset="0" style="stop-color:#706856"/>
					<stop  offset="1" style="stop-color:#7A725F"/>
				</linearGradient>
				<path style="fill-rule:evenodd;clip-rule:evenodd;fill:url(#SVGID_40_);" d="M17.5-26.25c-0.5,0.167-0.95-0.033-1.35-0.6
					c-0.2-0.333-0.233-0.583-0.1-0.75c0.1-0.1,0.117-0.15,0.05-0.15c-0.833,0-1.583,0.083-2.25,0.25l-0.7,0.2
					c0.867-0.066,1.3-0.017,1.3,0.15l-0.2,0.1c0.133-0.033,0.35-0.1,0.65-0.2c0.3-0.066,0.517-0.033,0.65,0.1
					c0.1,0.1,0.15,0.267,0.15,0.5s0.033,0.4,0.1,0.5l0.45,0.45l0.4,0.2v0.1L17.5-26.25z"/>
			</g>
		</g>
	</g>
	<g id="Layer_7_1_">
	</g>
	<g id="Layer_8_1_">
	</g>
	<g id="Layer_6_1_">
	</g>
</symbol>
<symbol  id="winder_x5F_static" viewBox="0.015 -8.472 10.185 8.474">
	<g id="Layer_4_1_">
		
			<use xlink:href="#winderedge"  width="4.537" height="8.127" x="0.015" y="-8.126" transform="matrix(1 0 0 1 0.7002 0)" style="overflow:visible;"/>
	</g>
	<g id="Layer_3_1_">
		
			<use xlink:href="#winderfacehighlight"  width="4.573" height="8.174" x="0.016" y="-8.173" transform="matrix(1 0 0 1 0.2002 -0.2002)" style="overflow:visible;"/>
	</g>
	<g id="Layer_2_copy_1_">
		
			<use xlink:href="#winderface1a"  width="4.573" height="8.174" x="0.015" y="-8.172" transform="matrix(1 0 0 1 0 -0.2998)" style="overflow:visible;"/>
	</g>
	<g id="Layer_1_9_">
		<g>
			
				<linearGradient id="SVGID_41_" gradientUnits="userSpaceOnUse" x1="1514.3955" y1="-17619.8047" x2="1515.7148" y2="-17619.8047" gradientTransform="matrix(-0.1705 -0.9854 0.9854 -0.1705 17627.3711 -1517.4473)">
				<stop  offset="0" style="stop-color:#8F8F8F"/>
				<stop  offset="0.2275" style="stop-color:#E8E8E8"/>
				<stop  offset="1" style="stop-color:#696969"/>
			</linearGradient>
			<path style="fill-rule:evenodd;clip-rule:evenodd;fill:url(#SVGID_41_);" d="M10.2-6.3L4.8-5.5C4.5-5.533,4.351-5.366,4.351-5
				c0,0.233,0.083,0.4,0.25,0.5c0.066,0.066,0.133,0.1,0.2,0.1l5.4-0.8V-6.3z"/>
		</g>
	</g>
</symbol>
<symbol  id="winderedge" viewBox="0.015 -8.126 4.537 8.127">
	<g id="Layer_1_5_">
		<g>
			
				<linearGradient id="SVGID_42_" gradientUnits="userSpaceOnUse" x1="5.209" y1="-16349.5176" x2="12.034" y2="-16349.5176" gradientTransform="matrix(1.465202e-004 -1 1 -0.001 16351.8027 -11.1782)">
				<stop  offset="0" style="stop-color:#8F8F8F"/>
				<stop  offset="0.2275" style="stop-color:#E8E8E8"/>
				<stop  offset="1" style="stop-color:#696969"/>
			</linearGradient>
			<path style="fill-rule:evenodd;clip-rule:evenodd;fill:url(#SVGID_42_);" d="M3.5-5.899c0.066,0.6-0.083,0.983-0.45,1.15L2.6-4.7
				C2.367-4.7,2.167-4.733,2-4.8c-0.533-0.167-0.833-0.533-0.9-1.1c-0.034-0.5,0.1-0.85,0.4-1.05c0.434-0.233,0.867-0.233,1.3,0
				C3.2-6.716,3.434-6.366,3.5-5.899z M0.05-1.25c0.1,0.8,0.5,1.216,1.2,1.25c1.367,0.033,2.333-0.633,2.9-2
				c0.5-1.233,0.534-2.05,0.1-2.45c0.434-0.533,0.4-1.333-0.1-2.4c-0.567-1.167-1.533-1.533-2.9-1.1c-0.7,0.233-1.1,0.767-1.2,1.6
				c-0.133,0.867,0.117,1.533,0.75,2L1.25-4L0.8-3.55C0.167-2.85-0.083-2.083,0.05-1.25z M3.5-2.75C3.434-2.25,3.2-1.833,2.8-1.5
				C2.367-1.1,1.934-0.966,1.5-1.1c-0.3-0.133-0.434-0.467-0.4-1C1.167-2.666,1.467-3.116,2-3.45l0.6-0.3L3.05-3.8
				C3.417-3.766,3.566-3.416,3.5-2.75z"/>
		</g>
	</g>
</symbol>
<symbol  id="winderface1a" viewBox="0.015 -8.172 4.573 8.174">
	<g id="Layer_1_3_">
		
			<linearGradient id="SVGID_43_" gradientUnits="userSpaceOnUse" x1="-1922.5068" y1="-13813.5654" x2="-1913.3346" y2="-13813.5654" gradientTransform="matrix(0.2726 -0.9621 0.9621 0.2726 13815.1875 1916.4834)">
			<stop  offset="0" style="stop-color:#E8E8E8"/>
			<stop  offset="1" style="stop-color:#878787"/>
		</linearGradient>
		<path style="fill-rule:evenodd;clip-rule:evenodd;fill:url(#SVGID_43_);" d="M2.05-4.8c-0.566-0.133-0.867-0.483-0.9-1.05
			c-0.033-0.533,0.1-0.9,0.4-1.1c0.4-0.267,0.817-0.267,1.25,0C3.2-6.717,3.433-6.367,3.5-5.9c0.133,0.633,0,1-0.4,1.1L2.65-4.7
			L2.05-4.8z M0.05-1.25C0.183-0.45,0.6-0.033,1.3,0c1.367,0.033,2.333-0.633,2.9-2c0.5-1.233,0.517-2.05,0.05-2.45
			c0.467-0.5,0.45-1.3-0.05-2.4C3.633-8.05,2.667-8.433,1.3-8C0.6-7.733,0.183-7.183,0.05-6.35c-0.133,0.867,0.117,1.533,0.75,2
			L1.3-4L0.8-3.55C0.167-2.85-0.083-2.083,0.05-1.25z M3.5-2.75C3.433-2.25,3.2-1.833,2.8-1.5C2.367-1.1,1.95-0.967,1.55-1.1
			c-0.3-0.133-0.433-0.467-0.4-1c0.033-0.6,0.333-1.05,0.9-1.35l0.6-0.3L3.1-3.8C3.467-3.767,3.6-3.417,3.5-2.75z"/>
	</g>
</symbol>
<symbol  id="winderfacehighlight" viewBox="0.016 -8.173 4.573 8.174">
	<g id="Layer_1_4_">
		
			<linearGradient id="SVGID_44_" gradientUnits="userSpaceOnUse" x1="-1922.5059" y1="-13813.5654" x2="-1913.3336" y2="-13813.5654" gradientTransform="matrix(0.2726 -0.9621 0.9621 0.2726 13815.1875 1916.4834)">
			<stop  offset="0" style="stop-color:#E8E8E8"/>
			<stop  offset="1" style="stop-color:#EDEDED"/>
		</linearGradient>
		<path style="fill-rule:evenodd;clip-rule:evenodd;fill:url(#SVGID_44_);" d="M2.05-4.8c-0.567-0.133-0.867-0.483-0.9-1.05
			c-0.033-0.533,0.1-0.9,0.4-1.1c0.4-0.267,0.817-0.267,1.25,0C3.2-6.717,3.434-6.367,3.5-5.9c0.1,0.6-0.034,0.967-0.4,1.1L2.65-4.7
			L2.05-4.8z M0.05-1.25C0.184-0.45,0.601-0.034,1.3,0c1.367,0.034,2.333-0.633,2.9-2c0.5-1.233,0.517-2.05,0.05-2.45
			c0.466-0.5,0.45-1.3-0.05-2.4C3.634-8.05,2.667-8.434,1.3-8c-0.7,0.267-1.117,0.817-1.25,1.65c-0.133,0.867,0.117,1.534,0.75,2
			L1.3-4L0.8-3.55C0.167-2.851-0.083-2.084,0.05-1.25z M1.55-1.101c-0.3-0.133-0.433-0.466-0.4-1c0.033-0.6,0.333-1.05,0.9-1.35
			l0.6-0.3l0.45-0.05c0.366,0.033,0.5,0.383,0.4,1.05C3.434-2.25,3.2-1.834,2.8-1.5C2.367-1.101,1.95-0.967,1.55-1.101z"/>
	</g>
</symbol>
<use xlink:href="#cubimal_x5F_mc"  width="35.685" height="26.815" id="cubimal" x="-0.385" y="-27.75" transform="matrix(1 0 0 -1 0.3999 -1)" style="overflow:visible;"/>
</svg>
