<?xml version="1.0" encoding="iso-8859-1"?>
<!-- Generator: Adobe Illustrator 15.1.0, SVG Export Plug-In . SVG Version: 6.00 Build 0)  -->
<!DOCTYPE svg PUBLIC "-//W3C//DTD SVG 1.1//EN" "http://www.w3.org/Graphics/SVG/1.1/DTD/svg11.dtd">
<svg version="1.1" id="flash0.ai" xmlns="http://www.w3.org/2000/svg" xmlns:xlink="http://www.w3.org/1999/xlink" x="0px" y="0px"
	 width="32.2px" height="25.55px" viewBox="0 0 32.2 25.55" style="enable-background:new 0 0 32.2 25.55;" xml:space="preserve">
<symbol  id="cubimal_1_" viewBox="0.4 -26.563 25.814 25.578">
	<g id="Layer_1_5_">
		<g>
			
				<linearGradient id="SVGID_1_" gradientUnits="userSpaceOnUse" x1="365.084" y1="317.9688" x2="366.8356" y2="317.9688" gradientTransform="matrix(0.9991 0.0428 -0.0428 0.9991 -342.708 -357.5801)">
				<stop  offset="0" style="stop-color:#5F4E29"/>
				<stop  offset="0.9373" style="stop-color:#3A2B0E"/>
			</linearGradient>
			<path style="fill-rule:evenodd;clip-rule:evenodd;fill:url(#SVGID_1_);" d="M7.4-21.95l4.65-0.35
				c-0.333-1.366-0.6-2.316-0.8-2.85c-0.4-1.034-0.816-1.5-1.25-1.4C9.167-26.35,8.3-24.816,7.4-21.95z"/>
			
				<linearGradient id="SVGID_2_" gradientUnits="userSpaceOnUse" x1="372.8901" y1="321.4883" x2="374.6418" y2="321.4883" gradientTransform="matrix(0.9991 0.0428 -0.0428 0.9991 -342.708 -357.5801)">
				<stop  offset="0" style="stop-color:#5F4E29"/>
				<stop  offset="0.9373" style="stop-color:#3A2B0E"/>
			</linearGradient>
			<path style="fill-rule:evenodd;clip-rule:evenodd;fill:url(#SVGID_2_);" d="M15.05-18.1l4.7-0.35c-0.4-1.5-0.684-2.45-0.85-2.85
				c-0.4-1.033-0.817-1.5-1.25-1.4C16.816-22.5,15.95-20.966,15.05-18.1z"/>
			
				<linearGradient id="SVGID_3_" gradientUnits="userSpaceOnUse" x1="-2109.166" y1="-13442.3477" x2="-2090.0176" y2="-13442.3477" gradientTransform="matrix(0.3068 -0.9518 0.9518 0.3068 13452.0332 2112.0879)">
				<stop  offset="0" style="stop-color:#B5A57F"/>
				<stop  offset="1" style="stop-color:#8A7D5F"/>
			</linearGradient>
			<path style="fill-rule:evenodd;clip-rule:evenodd;fill:url(#SVGID_3_);" d="M16.8-1.55c3.133-0.433,5.067-0.65,5.8-0.65
				c1.1,0,1.933-0.216,2.5-0.65c0.367-0.3,0.65-0.767,0.85-1.4c0.1-0.434,0.167-2.333,0.2-5.7c0.033-3.066,0.033-5.017,0-5.85
				c0-0.366,0-0.85,0-1.45c-0.033-0.5-0.183-0.95-0.45-1.35c-0.267-0.434-1.167-1.184-2.7-2.25c-1.333-0.967-2.3-1.6-2.9-1.9
				c-1.7-0.934-2.967-1.4-3.8-1.4c-2.433,0.3-4.3,0.45-5.6,0.45c-0.767,0.034-2.217,0.2-4.35,0.5c-2.1,0.3-3.35,0.483-3.75,0.55
				c-0.7,0.1-1.167,0.4-1.4,0.9c-0.367,0.667-0.567,2.017-0.6,4.05c-0.133,3.233-0.2,5.6-0.2,7.1c0.034,2.667,0.4,4.25,1.1,4.75
				c0.967,0.667,2.5,1.566,4.6,2.7C8.633-1.75,10.267-1.033,11-1C11.934-0.966,13.867-1.149,16.8-1.55z"/>
			
				<linearGradient id="SVGID_4_" gradientUnits="userSpaceOnUse" x1="-2371.9453" y1="-12877.1367" x2="-2354.9475" y2="-12877.1367" gradientTransform="matrix(0.3574 -0.934 0.934 0.3574 12892.667 2380.1689)">
				<stop  offset="0" style="stop-color:#A79876"/>
				<stop  offset="1" style="stop-color:#685C44"/>
			</linearGradient>
			<path style="fill-rule:evenodd;clip-rule:evenodd;fill:url(#SVGID_4_);" d="M25.95-4.25l0.15-2.6
				c0.133-4.333,0.15-7.316,0.05-8.95c0-0.366,0-0.85,0-1.45c-0.033-0.5-0.183-0.95-0.45-1.35c-0.267-0.434-1.167-1.184-2.7-2.25
				c-1.333-0.967-2.3-1.6-2.9-1.9c-0.267-0.167-0.9-0.434-1.9-0.8c-1-0.366-1.634-0.566-1.9-0.6c0.3,0.6,0.45,1.316,0.45,2.15
				l-0.1,14l0.1,0.15c0.167,0.2,1.066,0.7,2.7,1.5C21.317-5.45,22.5-4.833,23-4.5c0.433,0.3,1.183,0.8,2.25,1.5
				C25.55-3.333,25.783-3.75,25.95-4.25z"/>
			<path style="fill-rule:evenodd;clip-rule:evenodd;fill:#CCB990;" d="M23.7-4.2c-0.5-0.3-1.784-0.966-3.85-2
				c-1.9-0.9-2.933-1.45-3.1-1.65C15.816-7.783,12.9-7.483,8-6.95c-3.733,0.4-6.05,0.567-6.95,0.5c0.067,0.167,0.217,0.367,0.45,0.6
				c0.967,0.667,2.5,1.566,4.6,2.7C8.633-1.75,10.267-1.033,11-1c2.233,0.1,6.1-0.3,11.6-1.2c1.4-0.2,2.283-0.466,2.65-0.8
				C24.883-3.366,24.367-3.766,23.7-4.2z"/>
			<g>
				<path style="fill-rule:evenodd;clip-rule:evenodd;fill:#584D39;" d="M20.9-14.3c0-0.767-0.167-1.4-0.5-1.9
					c-0.333-0.533-0.733-0.8-1.2-0.8c-0.467,0-0.867,0.267-1.2,0.8c-0.333,0.5-0.5,1.133-0.5,1.9c0,0.733,0.167,1.367,0.5,1.9
					c0.333,0.533,0.733,0.8,1.2,0.8c0.466,0,0.867-0.267,1.2-0.8C20.733-12.933,20.9-13.566,20.9-14.3z"/>
				
					<radialGradient id="SVGID_5_" cx="18.7998" cy="-13.8496" r="1.7124" gradientTransform="matrix(1 0 0 -1 0 -27.6992)" gradientUnits="userSpaceOnUse">
					<stop  offset="0" style="stop-color:#E5DDC4"/>
					<stop  offset="1" style="stop-color:#D3C48E"/>
				</radialGradient>
				<path style="fill-rule:evenodd;clip-rule:evenodd;fill:url(#SVGID_5_);" d="M20.2-14.3c0-0.566-0.133-1.033-0.4-1.4
					c-0.267-0.4-0.6-0.6-1-0.6c-0.366,0-0.7,0.2-1,0.6c-0.267,0.4-0.4,0.867-0.4,1.4c0,0.534,0.133,0.983,0.4,1.35
					c0.3,0.4,0.634,0.6,1,0.6c0.4,0,0.733-0.2,1-0.6C20.067-13.316,20.2-13.766,20.2-14.3z"/>
			</g>
			<g>
				<path style="fill-rule:evenodd;clip-rule:evenodd;fill:#584D39;" d="M26.15-11.1c0-0.7-0.117-1.283-0.35-1.75
					c-0.2-0.5-0.466-0.75-0.8-0.75c-0.3,0-0.55,0.25-0.75,0.75c-0.233,0.5-0.35,1.083-0.35,1.75s0.117,1.25,0.35,1.75
					C24.45-8.85,24.7-8.6,25-8.6c0.333,0,0.6-0.25,0.8-0.75C26.033-9.85,26.15-10.433,26.15-11.1z"/>
				
					<radialGradient id="SVGID_6_" cx="24.75" cy="-10.5498" r="1.45" gradientTransform="matrix(1 0 0 -1 0 -21.0996)" gradientUnits="userSpaceOnUse">
					<stop  offset="0" style="stop-color:#E5DDC4"/>
					<stop  offset="1" style="stop-color:#D3C48E"/>
				</radialGradient>
				<path style="fill-rule:evenodd;clip-rule:evenodd;fill:url(#SVGID_6_);" d="M25.7-11.1c0-0.5-0.083-0.934-0.25-1.3
					c-0.2-0.367-0.434-0.55-0.7-0.55c-0.233,0-0.45,0.184-0.65,0.55c-0.167,0.366-0.25,0.8-0.25,1.3s0.083,0.917,0.25,1.25
					c0.2,0.367,0.417,0.55,0.65,0.55c0.267,0,0.5-0.183,0.7-0.55C25.617-10.183,25.7-10.6,25.7-11.1z"/>
			</g>
			<path style="fill-rule:evenodd;clip-rule:evenodd;fill:#E9D7B0;" d="M25.25-3c-0.067-0.4-1.45-1.333-4.15-2.8
				c-2.7-1.5-4.083-2.417-4.15-2.75c-0.067-0.366-0.067-4.517,0-12.45c-0.033-1.7-0.25-2.75-0.65-3.15l0.15,0.6
				c0.1,0.267,0.133,2.267,0.1,6c-0.033,3.634-0.083,6-0.15,7.1s-0.133,1.733-0.2,1.9c-0.067,0.2-0.25,0.333-0.55,0.4
				c-0.4,0.1-3.233,0.417-8.5,0.95l-6.05,1L8.65-7c1.4-0.167,3.017-0.317,4.85-0.45s2.9-0.167,3.2-0.1c0.3,0.034,1.6,0.65,3.9,1.85
				C22.033-4.933,23.583-4.033,25.25-3z"/>
			<path style="fill-rule:evenodd;clip-rule:evenodd;fill:#493E28;" d="M19.8-14.35c0-0.5-0.183-0.75-0.55-0.75
				s-0.55,0.25-0.55,0.75s0.183,0.75,0.55,0.75S19.8-13.85,19.8-14.35z"/>
			<path style="fill-rule:evenodd;clip-rule:evenodd;fill:#5B5239;" d="M26.2-12.95l-0.05-1.85c0-0.366,0-0.85,0-1.45
				c-0.033-0.5-0.183-0.95-0.45-1.35c-0.267-0.434-1.167-1.217-2.7-2.35c-1.3-0.966-2.267-1.633-2.9-2c-1.833-1-3.1-1.5-3.8-1.5
				c-2.433,0.233-4.283,0.333-5.55,0.3c-0.9,0-3.617,0.283-8.15,0.85c-0.667,0.067-1.117,0.317-1.35,0.75
				c-0.367,0.634-0.566,1.884-0.6,3.75l0.7-0.2c0.4-0.034,2.933-0.25,7.6-0.65c4.566-0.4,7.083-0.534,7.55-0.4
				c0.667,0.2,2.3,1.067,4.9,2.6C24.167-14.783,25.767-13.616,26.2-12.95z"/>
			<path style="fill-rule:evenodd;clip-rule:evenodd;fill:#493E28;" d="M25.4-11.35c0-0.467-0.133-0.7-0.4-0.7
				c-0.233,0-0.35,0.233-0.35,0.7s0.117,0.7,0.35,0.7C25.267-10.649,25.4-10.883,25.4-11.35z"/>
			<path style="fill-rule:evenodd;clip-rule:evenodd;fill:#746541;" d="M26.2-13.95l-0.05-1.85c0-0.366,0-0.85,0-1.45
				c-0.033-0.5-0.183-0.95-0.45-1.35c-0.267-0.434-1.167-1.184-2.7-2.25c-1.333-0.967-2.3-1.6-2.9-1.9c-1.7-0.934-2.967-1.4-3.8-1.4
				c-2.433,0.3-4.3,0.45-5.6,0.45c-0.767,0.034-2.217,0.2-4.35,0.5c-2.1,0.3-3.35,0.483-3.75,0.55c-0.667,0.1-1.133,0.366-1.4,0.8
				c-0.367,0.667-0.567,1.934-0.6,3.8c0.267-0.133,0.517-0.216,0.75-0.25c0.4-0.033,2.933-0.333,7.6-0.9
				c4.566-0.5,7.083-0.7,7.55-0.6c0.667,0.167,2.3,0.983,4.9,2.45C24.167-15.75,25.767-14.616,26.2-13.95z"/>
			<path style="fill-rule:evenodd;clip-rule:evenodd;fill:#665839;" d="M26.2-13.95l-0.05-1.85c0-0.366,0-0.85,0-1.45
				c-0.033-0.5-0.183-0.95-0.45-1.35c-0.267-0.434-1.167-1.184-2.7-2.25c-1.333-0.967-2.3-1.6-2.9-1.9c-1.5-0.8-2.7-1.267-3.6-1.4
				c0,0.066,0.05,0.933,0.15,2.6c0.2,0.634,0.3,1.284,0.3,1.95c1.233,0.5,2.933,1.383,5.1,2.65C24.417-15.55,25.8-14.55,26.2-13.95z
				"/>
			<polygon style="fill-rule:evenodd;clip-rule:evenodd;fill:#4E422C;" points="17.2,-20.05 16.6,-19.899 25.8,-14.45 25.55,-17.85 
				23.15,-16.75 21.55,-20.3 			"/>
			<polygon style="fill-rule:evenodd;clip-rule:evenodd;fill:#806F48;" points="17.1,-19.899 16.5,-19.8 26.2,-13.95 25.85,-17.149 
				23.5,-16.3 21.75,-19.8 			"/>
			<path style="fill-rule:evenodd;clip-rule:evenodd;fill:#3D3628;" d="M23.5-18.05l0.75-0.1c0.2-0.267,0.2-0.617,0-1.05
				c-0.167-0.367-0.533-0.483-1.1-0.35c-0.267,0.067-0.417,0.15-0.45,0.25c0,0.034,0.05,0.2,0.15,0.5
				C22.983-18.333,23.2-18.083,23.5-18.05z"/>
			<path style="fill-rule:evenodd;clip-rule:evenodd;fill:#242017;" d="M23.1-18.149l0.4-0.25c-0.267-0.1-0.45-0.184-0.55-0.25
				c-0.133-0.067-0.167-0.233-0.1-0.5l1.35-0.4c-0.2-0.167-0.517-0.267-0.95-0.3c-0.467,0-0.767,0.1-0.9,0.3
				c-0.133,0.233-0.1,0.517,0.1,0.85C22.617-18.399,22.833-18.216,23.1-18.149z"/>
			
				<linearGradient id="SVGID_7_" gradientUnits="userSpaceOnUse" x1="-3234.9014" y1="-6409.9165" x2="-3231.001" y2="-6409.9165" gradientTransform="matrix(0.8076 -0.5897 0.5897 0.8076 6395.9673 3247.9189)">
				<stop  offset="0" style="stop-color:#B5A57F"/>
				<stop  offset="1" style="stop-color:#8A7D5F"/>
			</linearGradient>
			<path style="fill-rule:evenodd;clip-rule:evenodd;fill:url(#SVGID_7_);" d="M4.55-20.05c1.267,0.467,2.134,0.233,2.6-0.7
				c0.233-0.467,0.333-0.983,0.3-1.55c-2.033-1.433-3.384-2.2-4.05-2.3c-0.466-0.066-0.5,0.633-0.1,2.1
				C3.7-21.033,4.117-20.216,4.55-20.05z"/>
			<path style="fill-rule:evenodd;clip-rule:evenodd;fill:#665839;" d="M4.15-19.399c0.6,0.267,1.284,0.267,2.05,0
				c0.733-0.2,1.2-0.5,1.4-0.9c0.367-0.6,0.417-1.283,0.15-2.05c-0.133-0.3-0.6-0.467-1.4-0.5c0.1,0.233,0.15,0.483,0.15,0.75
				c-0.033,0.566-0.35,0.967-0.95,1.2c-0.6,0.233-1.1,0.25-1.5,0.05l-0.4-0.35l-0.3,0.75c-0.034,0.167,0.05,0.367,0.25,0.6
				C3.767-19.649,3.95-19.5,4.15-19.399z"/>
			<path style="fill-rule:evenodd;clip-rule:evenodd;fill:#DDCA9E;" d="M4.9-19.149c0.567,0.133,1,0.083,1.3-0.15
				c0.267-0.233,0.333-0.433,0.2-0.6c-0.267-0.467-0.817-0.634-1.65-0.5c-0.467,0.033-0.65,0.233-0.55,0.6
				C4.3-19.433,4.533-19.216,4.9-19.149z"/>
		</g>
	</g>
</symbol>
<symbol  id="cubimal_x5F_mc" viewBox="-0.385 -26.513 32.199 25.578">
	<g id="Layer_5_1_">
	</g>
	<g id="Layer_4_2_">
	</g>
	<g id="Layer_2_copy_2_">
	</g>
	<g id="Layer_2_2_">
	</g>
	<g id="Layer_1_9_">
		
			<use xlink:href="#cubimal_x5F_scene1"  width="32.199" height="25.578" x="0.015" y="-26.563" transform="matrix(1 0 0 1 -0.3999 0.0498)" style="overflow:visible;"/>
	</g>
	<g id="Layer_6_1_">
	</g>
</symbol>
<symbol  id="cubimal_x5F_scene1" viewBox="0.015 -26.563 32.199 25.578">
	<g id="Layer_1_8_">
		
			<use xlink:href="#winder_x5F_static"  width="10.185" height="8.474" x="0.015" y="-8.472" transform="matrix(1 0 0 1 0 -7.9502)" style="overflow:visible;"/>
		
			<use xlink:href="#cubimal_1_"  width="25.814" height="25.578" x="0.4" y="-26.563" transform="matrix(1 0 0 1 6 0)" style="overflow:visible;"/>
	</g>
</symbol>
<symbol  id="winder_x5F_static" viewBox="0.015 -8.472 10.185 8.474">
	<g id="Layer_4_1_">
		
			<use xlink:href="#winderedge"  width="4.537" height="8.127" x="0.015" y="-8.126" transform="matrix(1 0 0 1 0.7002 0)" style="overflow:visible;"/>
	</g>
	<g id="Layer_3_1_">
		
			<use xlink:href="#winderfacehighlight"  width="4.573" height="8.174" x="0.016" y="-8.173" transform="matrix(1 0 0 1 0.2002 -0.2002)" style="overflow:visible;"/>
	</g>
	<g id="Layer_2_copy_1_">
		
			<use xlink:href="#winderface1a"  width="4.573" height="8.174" x="0.015" y="-8.172" transform="matrix(1 0 0 1 0 -0.2998)" style="overflow:visible;"/>
	</g>
	<g id="Layer_1_7_">
		<g>
			
				<linearGradient id="SVGID_8_" gradientUnits="userSpaceOnUse" x1="1514.5806" y1="-17621.9609" x2="1515.8999" y2="-17621.9609" gradientTransform="matrix(-0.1705 -0.9854 0.9854 -0.1705 17629.5273 -1517.6323)">
				<stop  offset="0" style="stop-color:#8F8F8F"/>
				<stop  offset="0.2275" style="stop-color:#E8E8E8"/>
				<stop  offset="1" style="stop-color:#696969"/>
			</linearGradient>
			<path style="fill-rule:evenodd;clip-rule:evenodd;fill:url(#SVGID_8_);" d="M10.2-6.3L4.8-5.5C4.5-5.533,4.351-5.366,4.351-5
				c0,0.233,0.083,0.4,0.25,0.5c0.066,0.066,0.133,0.1,0.2,0.1l5.4-0.8V-6.3z"/>
		</g>
	</g>
</symbol>
<symbol  id="winderedge" viewBox="0.015 -8.126 4.537 8.127">
	<g id="Layer_1_4_">
		<g>
			
				<linearGradient id="SVGID_9_" gradientUnits="userSpaceOnUse" x1="5.21" y1="-16351.5176" x2="12.035" y2="-16351.5176" gradientTransform="matrix(1.465202e-004 -1 1 -0.001 16353.8027 -11.1792)">
				<stop  offset="0" style="stop-color:#8F8F8F"/>
				<stop  offset="0.2275" style="stop-color:#E8E8E8"/>
				<stop  offset="1" style="stop-color:#696969"/>
			</linearGradient>
			<path style="fill-rule:evenodd;clip-rule:evenodd;fill:url(#SVGID_9_);" d="M3.5-5.899c0.066,0.6-0.083,0.983-0.45,1.15L2.6-4.7
				C2.367-4.7,2.167-4.733,2-4.8c-0.533-0.167-0.833-0.533-0.9-1.1c-0.034-0.5,0.1-0.85,0.4-1.05c0.434-0.233,0.867-0.233,1.3,0
				C3.2-6.716,3.434-6.366,3.5-5.899z M0.05-1.25c0.1,0.8,0.5,1.216,1.2,1.25c1.367,0.033,2.333-0.633,2.9-2
				c0.5-1.233,0.534-2.05,0.1-2.45c0.434-0.533,0.4-1.333-0.1-2.4c-0.567-1.167-1.533-1.533-2.9-1.1c-0.7,0.233-1.1,0.767-1.2,1.6
				c-0.133,0.867,0.117,1.533,0.75,2L1.25-4L0.8-3.55C0.167-2.85-0.083-2.083,0.05-1.25z M3.5-2.75C3.434-2.25,3.2-1.833,2.8-1.5
				C2.367-1.1,1.934-0.966,1.5-1.1c-0.3-0.133-0.434-0.467-0.4-1C1.167-2.666,1.467-3.116,2-3.45l0.6-0.3L3.05-3.8
				C3.417-3.766,3.566-3.416,3.5-2.75z"/>
		</g>
	</g>
</symbol>
<symbol  id="winderface1a" viewBox="0.015 -8.172 4.573 8.174">
	<g id="Layer_1_2_">
		
			<linearGradient id="SVGID_10_" gradientUnits="userSpaceOnUse" x1="-1922.7412" y1="-13815.2549" x2="-1913.569" y2="-13815.2549" gradientTransform="matrix(0.2726 -0.9621 0.9621 0.2726 13816.877 1916.7178)">
			<stop  offset="0" style="stop-color:#E8E8E8"/>
			<stop  offset="1" style="stop-color:#878787"/>
		</linearGradient>
		<path style="fill-rule:evenodd;clip-rule:evenodd;fill:url(#SVGID_10_);" d="M2.05-4.8c-0.566-0.133-0.867-0.483-0.9-1.05
			c-0.033-0.533,0.1-0.9,0.4-1.1c0.4-0.267,0.817-0.267,1.25,0C3.2-6.717,3.433-6.367,3.5-5.9c0.133,0.633,0,1-0.4,1.1L2.65-4.7
			L2.05-4.8z M0.05-1.25C0.183-0.45,0.6-0.033,1.3,0c1.367,0.033,2.333-0.633,2.9-2c0.5-1.233,0.517-2.05,0.05-2.45
			c0.467-0.5,0.45-1.3-0.05-2.4C3.633-8.05,2.667-8.433,1.3-8C0.6-7.733,0.183-7.183,0.05-6.35c-0.133,0.867,0.117,1.533,0.75,2
			L1.3-4L0.8-3.55C0.167-2.85-0.083-2.083,0.05-1.25z M3.5-2.75C3.433-2.25,3.2-1.833,2.8-1.5C2.367-1.1,1.95-0.967,1.55-1.1
			c-0.3-0.133-0.433-0.467-0.4-1c0.033-0.6,0.333-1.05,0.9-1.35l0.6-0.3L3.1-3.8C3.467-3.767,3.6-3.417,3.5-2.75z"/>
	</g>
</symbol>
<symbol  id="winderfacehighlight" viewBox="0.016 -8.173 4.573 8.174">
	<g id="Layer_1_3_">
		
			<linearGradient id="SVGID_11_" gradientUnits="userSpaceOnUse" x1="-1922.7412" y1="-13815.2549" x2="-1913.569" y2="-13815.2549" gradientTransform="matrix(0.2726 -0.9621 0.9621 0.2726 13816.877 1916.7178)">
			<stop  offset="0" style="stop-color:#E8E8E8"/>
			<stop  offset="1" style="stop-color:#EDEDED"/>
		</linearGradient>
		<path style="fill-rule:evenodd;clip-rule:evenodd;fill:url(#SVGID_11_);" d="M2.05-4.8c-0.567-0.133-0.867-0.483-0.9-1.05
			c-0.033-0.533,0.1-0.9,0.4-1.1c0.4-0.267,0.817-0.267,1.25,0C3.2-6.717,3.434-6.367,3.5-5.9c0.1,0.6-0.034,0.967-0.4,1.1L2.65-4.7
			L2.05-4.8z M0.05-1.25C0.184-0.45,0.601-0.034,1.3,0c1.367,0.034,2.333-0.633,2.9-2c0.5-1.233,0.517-2.05,0.05-2.45
			c0.466-0.5,0.45-1.3-0.05-2.4C3.634-8.05,2.667-8.434,1.3-8c-0.7,0.267-1.117,0.817-1.25,1.65c-0.133,0.867,0.117,1.534,0.75,2
			L1.3-4L0.8-3.55C0.167-2.851-0.083-2.084,0.05-1.25z M1.55-1.101c-0.3-0.133-0.433-0.466-0.4-1c0.033-0.6,0.333-1.05,0.9-1.35
			l0.6-0.3l0.45-0.05c0.366,0.033,0.5,0.383,0.4,1.05C3.434-2.25,3.2-1.834,2.8-1.5C2.367-1.101,1.95-0.967,1.55-1.101z"/>
	</g>
</symbol>
<use xlink:href="#cubimal_x5F_mc"  width="32.199" height="25.578" id="cubimal" x="-0.385" y="-26.513" transform="matrix(1 0 0 -1 0.3999 -0.9502)" style="overflow:visible;"/>
</svg>
