<?xml version="1.0" encoding="iso-8859-1"?>
<!-- Generator: Adobe Illustrator 15.1.0, SVG Export Plug-In . SVG Version: 6.00 Build 0)  -->
<!DOCTYPE svg PUBLIC "-//W3C//DTD SVG 1.1//EN" "http://www.w3.org/Graphics/SVG/1.1/DTD/svg11.dtd">
<svg version="1.1" id="flash0.ai" xmlns="http://www.w3.org/2000/svg" xmlns:xlink="http://www.w3.org/1999/xlink" x="0px" y="0px"
	 width="33.9px" height="29.45px" viewBox="0 0 33.9 29.45" style="enable-background:new 0 0 33.9 29.45;" xml:space="preserve">
<symbol  id="cubimal_1_" viewBox="-1.63 -27.238 29.508 29.417">
	<g id="Layer_1_5_">
		<g>
			<g>
				<g>
					
						<linearGradient id="SVGID_1_" gradientUnits="userSpaceOnUse" x1="-1824.1113" y1="-14379.2813" x2="-1820.1686" y2="-14379.2813" gradientTransform="matrix(0.2156 -0.9765 0.9669 0.2591 14319.5195 1925.3828)">
						<stop  offset="0" style="stop-color:#B8C32E"/>
						<stop  offset="1" style="stop-color:#8D9622"/>
					</linearGradient>
					<path style="fill-rule:evenodd;clip-rule:evenodd;fill:url(#SVGID_1_);" d="M19.9-19l1.6,0.35l4.95-0.7
						c0.733-0.133,1.184-0.367,1.35-0.7c0.167-0.267,0.067-0.483-0.3-0.65c-0.2-0.1-0.333-0.25-0.4-0.45
						c-0.1-0.267-0.283-0.517-0.55-0.75c-0.267-0.233-0.517-0.383-0.75-0.45c-0.2-0.1-0.4-0.233-0.6-0.4
						c-0.4-0.4-0.983-0.383-1.75,0.05c-0.6,0.4-1.9,1.1-3.9,2.1C18.884-20.267,19-19.733,19.9-19z"/>
					
						<linearGradient id="SVGID_2_" gradientUnits="userSpaceOnUse" x1="-2099.7383" y1="-13409.0137" x2="-2096.6628" y2="-13409.0137" gradientTransform="matrix(0.3089 -0.9511 0.9511 0.3089 13427.5078 2125.0361)">
						<stop  offset="0" style="stop-color:#D8D6A0"/>
						<stop  offset="1" style="stop-color:#828162"/>
					</linearGradient>
					<path style="fill-rule:evenodd;clip-rule:evenodd;fill:url(#SVGID_2_);" d="M25.75-20.35l-1.5,0.5L25.7-20
						c0.667-0.133,1.2-0.4,1.6-0.8l-0.2-0.3C26.934-20.833,26.483-20.583,25.75-20.35z"/>
					
						<linearGradient id="SVGID_3_" gradientUnits="userSpaceOnUse" x1="-2099.7441" y1="-13410.2979" x2="-2096.6687" y2="-13410.2979" gradientTransform="matrix(0.3089 -0.9511 0.9511 0.3089 13427.5078 2125.0361)">
						<stop  offset="0" style="stop-color:#D8D6A0"/>
						<stop  offset="1" style="stop-color:#828162"/>
					</linearGradient>
					<path style="fill-rule:evenodd;clip-rule:evenodd;fill:url(#SVGID_3_);" d="M23.35-20.7c0.133-0.066,0.65-0.283,1.55-0.65
						c0.866-0.333,1.417-0.517,1.65-0.55c-0.3-0.267-0.583-0.434-0.85-0.5c0,0.367-0.367,0.683-1.1,0.95l-1.7,0.85L23.35-20.7z"/>
				</g>
				<g>
					
						<linearGradient id="SVGID_4_" gradientUnits="userSpaceOnUse" x1="-1809.6836" y1="-14340.0156" x2="-1805.7111" y2="-14340.0156" gradientTransform="matrix(0.2203 -0.9754 0.967 0.2575 14282.6436 1903.4482)">
						<stop  offset="0" style="stop-color:#B8C32E"/>
						<stop  offset="1" style="stop-color:#8D9622"/>
					</linearGradient>
					<path style="fill-rule:evenodd;clip-rule:evenodd;fill:url(#SVGID_4_);" d="M12.95-24.85c-0.367,0.167-0.483,0.434-0.35,0.8
						c0.133,0.3,0.367,0.566,0.7,0.8l1.6,0.4c0.233-0.033,1.883-0.283,4.95-0.75c0.733-0.133,1.183-0.35,1.35-0.65
						s0.066-0.517-0.3-0.65c-0.2-0.1-0.333-0.25-0.4-0.45c-0.1-0.267-0.283-0.517-0.55-0.75s-0.517-0.4-0.75-0.5
						c-0.2-0.066-0.4-0.183-0.6-0.35c-0.4-0.4-0.966-0.383-1.7,0.05C14.767-25.767,13.45-25.083,12.95-24.85z"/>
					
						<linearGradient id="SVGID_5_" gradientUnits="userSpaceOnUse" x1="-2097.7354" y1="-13416.5645" x2="-2094.6599" y2="-13416.5645" gradientTransform="matrix(0.3089 -0.9511 0.9511 0.3089 13427.5078 2125.0361)">
						<stop  offset="0" style="stop-color:#D8D6A0"/>
						<stop  offset="1" style="stop-color:#828162"/>
					</linearGradient>
					<path style="fill-rule:evenodd;clip-rule:evenodd;fill:url(#SVGID_5_);" d="M20.7-25l-0.2-0.3c-0.2,0.233-0.633,0.483-1.3,0.75
						l-1.5,0.5l1.4-0.2C19.634-24.316,20.167-24.566,20.7-25z"/>
					
						<linearGradient id="SVGID_6_" gradientUnits="userSpaceOnUse" x1="-2097.7256" y1="-13417.873" x2="-2094.6501" y2="-13417.873" gradientTransform="matrix(0.3089 -0.9511 0.9511 0.3089 13427.5078 2125.0361)">
						<stop  offset="0" style="stop-color:#D8D6A0"/>
						<stop  offset="1" style="stop-color:#828162"/>
					</linearGradient>
					<path style="fill-rule:evenodd;clip-rule:evenodd;fill:url(#SVGID_6_);" d="M16.75-24.95c0.1-0.033,0.617-0.233,1.55-0.6
						c0.867-0.333,1.417-0.517,1.65-0.55c-0.167-0.167-0.45-0.35-0.85-0.55c0,0.433-0.367,0.75-1.1,0.95
						c-0.3,0.1-0.683,0.284-1.15,0.55L16.3-24.8L16.75-24.95z"/>
				</g>
				
					<radialGradient id="SVGID_7_" cx="16.0503" cy="-23.3999" r="4.3625" gradientTransform="matrix(1 0 0 -0.5158 0 -35.4692)" gradientUnits="userSpaceOnUse">
					<stop  offset="0.2157" style="stop-color:#000000;stop-opacity:0.3765"/>
					<stop  offset="0.8667" style="stop-color:#000000;stop-opacity:0"/>
				</radialGradient>
				<path style="fill-rule:evenodd;clip-rule:evenodd;fill:url(#SVGID_7_);" d="M20.45-23.4c0-0.633-0.434-1.167-1.3-1.6
					c-0.867-0.467-1.9-0.7-3.1-0.7c-1.2,0-2.217,0.233-3.05,0.7c-0.866,0.434-1.3,0.967-1.3,1.6c0,0.6,0.434,1.117,1.3,1.55
					c0.833,0.467,1.85,0.7,3.05,0.7c1.2,0,2.233-0.233,3.1-0.7C20.017-22.283,20.45-22.8,20.45-23.4z"/>
				
					<radialGradient id="SVGID_8_" cx="21.8003" cy="-19.7998" r="4.3625" gradientTransform="matrix(1 0 0 -0.5158 0 -30.0122)" gradientUnits="userSpaceOnUse">
					<stop  offset="0.2157" style="stop-color:#000000;stop-opacity:0.3765"/>
					<stop  offset="0.8667" style="stop-color:#000000;stop-opacity:0"/>
				</radialGradient>
				<path style="fill-rule:evenodd;clip-rule:evenodd;fill:url(#SVGID_8_);" d="M24.9-18.2c0.866-0.433,1.3-0.966,1.3-1.6
					c0-0.634-0.434-1.167-1.3-1.6c-0.867-0.434-1.9-0.65-3.1-0.65c-1.2,0-2.217,0.216-3.05,0.65c-0.866,0.433-1.3,0.966-1.3,1.6
					c0,0.633,0.434,1.167,1.3,1.6c0.833,0.434,1.85,0.65,3.05,0.65C23-17.55,24.033-17.767,24.9-18.2z"/>
			</g>
			<g>
				
					<linearGradient id="SVGID_9_" gradientUnits="userSpaceOnUse" x1="-2107.3643" y1="-13441.7373" x2="-2088.2158" y2="-13441.7373" gradientTransform="matrix(0.3068 -0.9518 0.9518 0.3068 13450.1299 2113.4746)">
					<stop  offset="0" style="stop-color:#B8C32E"/>
					<stop  offset="1" style="stop-color:#8D9622"/>
				</linearGradient>
				<path style="fill-rule:evenodd;clip-rule:evenodd;fill:url(#SVGID_9_);" d="M10.25-1.15c0.9,0.033,2.833-0.15,5.8-0.55
					c3.133-0.433,5.067-0.65,5.8-0.65c1.1,0,1.933-0.216,2.5-0.65C24.717-3.3,25-3.767,25.2-4.4c0.133-0.5,0.2-4.35,0.2-11.55v-1.45
					c-0.033-0.5-0.184-0.95-0.45-1.35c-0.267-0.434-1.167-1.184-2.7-2.25c-1.366-0.967-2.35-1.6-2.95-1.9
					c-0.7-0.4-1.45-0.733-2.25-1c-0.7-0.267-1.217-0.4-1.55-0.4c-2.4,0.3-4.25,0.45-5.55,0.45c-0.767,0.034-2.217,0.2-4.35,0.5
					c-2.1,0.3-3.35,0.483-3.75,0.55c-0.7,0.133-1.183,0.433-1.45,0.9c-0.333,0.667-0.517,2.017-0.55,4.05
					c-0.167,3.233-0.25,5.6-0.25,7.1C-0.366-8.083,0.017-6.5,0.75-6c0.967,0.667,2.5,1.566,4.6,2.7
					C7.884-1.9,9.517-1.184,10.25-1.15z"/>
				
					<linearGradient id="SVGID_10_" gradientUnits="userSpaceOnUse" x1="-75.3857" y1="-16254.4873" x2="-59.3848" y2="-16254.4873" gradientTransform="matrix(0.0109 -0.9999 0.9999 0.0109 16263.0898 87.9414)">
					<stop  offset="0" style="stop-color:#D8D6A0"/>
					<stop  offset="1" style="stop-color:#828162"/>
				</linearGradient>
				<path style="fill-rule:evenodd;clip-rule:evenodd;fill:url(#SVGID_10_);" d="M-0.15-17.85v0.7c2.2-0.434,4.933-0.85,8.2-1.25
					c4.233-0.534,6.867-0.667,7.9-0.4c1.1,0.3,1.7-0.233,1.8-1.6c0.033-0.667-0.033-1.367-0.2-2.1l-2.35-1.8
					c-3,0.3-4.75,0.45-5.25,0.45c-0.767,0.034-2.217,0.2-4.35,0.5c-2.1,0.3-3.35,0.483-3.75,0.55c-0.7,0.133-1.183,0.433-1.45,0.9
					C0.067-21.233-0.116-19.883-0.15-17.85z"/>
				
					<linearGradient id="SVGID_11_" gradientUnits="userSpaceOnUse" x1="-2370.2051" y1="-12876.6289" x2="-2353.2073" y2="-12876.6289" gradientTransform="matrix(0.3574 -0.934 0.934 0.3574 12890.7988 2381.4541)">
					<stop  offset="0" style="stop-color:#9FA928"/>
					<stop  offset="1" style="stop-color:#828A1F"/>
				</linearGradient>
				<path style="fill-rule:evenodd;clip-rule:evenodd;fill:url(#SVGID_11_);" d="M25.2-4.4L25.35-7c0.034-1.066,0.05-4.05,0.05-8.95
					v-1.45c-0.033-0.5-0.184-0.95-0.45-1.35c-0.267-0.434-1.167-1.184-2.7-2.25c-1.366-0.967-2.35-1.6-2.95-1.9
					c-0.3-0.167-0.933-0.434-1.9-0.8c-0.967-0.366-1.6-0.566-1.9-0.6c0.333,0.667,0.483,1.383,0.45,2.15l-0.05,14L15.95-8
					c0.2,0.2,1.117,0.7,2.75,1.5c1.833,0.9,3.017,1.517,3.55,1.85c0.434,0.3,1.184,0.8,2.25,1.5C24.8-3.483,25.033-3.9,25.2-4.4z"/>
				
					<linearGradient id="SVGID_12_" gradientUnits="userSpaceOnUse" x1="-2360.4912" y1="-12879.5771" x2="-2346.7063" y2="-12879.5771" gradientTransform="matrix(0.3573 -0.934 0.934 0.3573 12892.2061 2380.8262)">
					<stop  offset="0" style="stop-color:#D8D6A0"/>
					<stop  offset="1" style="stop-color:#828162"/>
				</linearGradient>
				<path style="fill-rule:evenodd;clip-rule:evenodd;fill:url(#SVGID_12_);" d="M25.4-13.55v-3.85c-0.033-0.5-0.184-0.95-0.45-1.35
					c-0.267-0.434-1.167-1.184-2.7-2.25c-1.366-0.967-2.35-1.6-2.95-1.9c-0.3-0.167-0.933-0.434-1.9-0.8
					c-0.967-0.366-1.6-0.566-1.9-0.6c0.333,0.667,0.483,1.383,0.45,2.15v3.2C18.583-17.917,21.733-16.117,25.4-13.55z"/>
				<linearGradient id="SVGID_13_" gradientUnits="userSpaceOnUse" x1="0.3003" y1="-4.5674" x2="24.5003" y2="-4.5674">
					<stop  offset="0" style="stop-color:#CFDB34"/>
					<stop  offset="1" style="stop-color:#969F24"/>
				</linearGradient>
				<path style="fill-rule:evenodd;clip-rule:evenodd;fill:url(#SVGID_13_);" d="M22.95-4.35c-0.5-0.3-1.8-0.966-3.9-2
					c-1.867-0.9-2.9-1.45-3.1-1.65c-0.867,0.066-3.767,0.367-8.7,0.9c-3.733,0.4-6.066,0.567-7,0.5C0.417-6.333,0.583-6.133,0.75-6
					c0.967,0.667,2.5,1.566,4.6,2.7c2.534,1.4,4.167,2.116,4.9,2.15c2.233,0.1,6.1-0.3,11.6-1.2c1.4-0.2,2.284-0.466,2.65-0.8
					C24.134-3.517,23.617-3.917,22.95-4.35z"/>
				
					<radialGradient id="SVGID_14_" cx="2831.8867" cy="2056.6943" r="5.3608" gradientTransform="matrix(0.9538 0.3004 0.3502 -1.1121 -3416.833 1415.3281)" gradientUnits="userSpaceOnUse">
					<stop  offset="0.2157" style="stop-color:#000000;stop-opacity:0.3765"/>
					<stop  offset="0.8667" style="stop-color:#000000;stop-opacity:0"/>
				</radialGradient>
				<path style="fill-rule:evenodd;clip-rule:evenodd;fill:url(#SVGID_14_);" d="M5.3-22.25c-0.733,0.434-1.667,1.133-2.8,2.1
					C1.2-19.083,0.283-18.367-0.25-18c0.634,1.4,1.634,2.3,3,2.7c1.4,0.433,2.783,0.233,4.15-0.6c1.366-0.867,2.316-2.117,2.85-3.75
					c0.5-1.6,0.45-3.133-0.15-4.6C8-23.65,6.567-22.983,5.3-22.25z"/>
			</g>
			<g>
				
					<radialGradient id="SVGID_15_" cx="12.75" cy="-3.9004" r="5.9372" gradientTransform="matrix(1 0 0 -0.3684 0 -5.3369)" gradientUnits="userSpaceOnUse">
					<stop  offset="0.2157" style="stop-color:#000000;stop-opacity:0.3765"/>
					<stop  offset="0.8667" style="stop-color:#000000;stop-opacity:0"/>
				</radialGradient>
				<path style="fill-rule:evenodd;clip-rule:evenodd;fill:url(#SVGID_15_);" d="M18.7-3.9c0-0.6-0.583-1.117-1.75-1.55
					c-1.167-0.433-2.566-0.65-4.2-0.65c-1.633,0-3.033,0.217-4.2,0.65C7.384-5.017,6.8-4.5,6.8-3.9s0.583,1.117,1.75,1.55
					c1.167,0.434,2.567,0.65,4.2,0.65c1.634,0,3.033-0.216,4.2-0.65C18.117-2.783,18.7-3.3,18.7-3.9z"/>
				<linearGradient id="SVGID_16_" gradientUnits="userSpaceOnUse" x1="11.9126" y1="-1.9751" x2="13.2876" y2="-1.9751">
					<stop  offset="0" style="stop-color:#E9E9E9"/>
					<stop  offset="1" style="stop-color:#6E6E6E"/>
				</linearGradient>
				<path style="fill-rule:evenodd;clip-rule:evenodd;fill:url(#SVGID_16_);" d="M13.3-3.65c0-0.467-0.233-0.7-0.7-0.7
					c-0.433,0-0.65,0.233-0.65,0.7v3.35c0,0.466,0.217,0.7,0.65,0.7c0.467,0,0.7-0.233,0.7-0.7V-3.65z"/>
				<path style="fill-rule:evenodd;clip-rule:evenodd;fill:#828282;" d="M9.95-1.2c1.967,0.267,2.867,0.167,2.7-0.3l-1.2-1.2
					c-1-1-2.25-1.5-3.75-1.5c-2.2,0-3.45,0.284-3.75,0.85C3.583-2.717,4.467-2.167,6.6-1.7C7.7-1.467,8.817-1.3,9.95-1.2z"/>
				<path style="fill-rule:evenodd;clip-rule:evenodd;fill:#828282;" d="M13.2-1.1c-0.434,0.133-0.083,0.6,1.05,1.4
					c1.1,0.767,2,1.184,2.7,1.25c0.767,0.067,1.483,0.017,2.15-0.15c0.733-0.2,0.933-0.45,0.6-0.75c-0.467-0.367-1.467-0.8-3-1.3
					C14.967-1.184,13.8-1.333,13.2-1.1z"/>
				<linearGradient id="SVGID_17_" gradientUnits="userSpaceOnUse" x1="3.7754" y1="-2.0239" x2="12.5254" y2="-2.0239">
					<stop  offset="0" style="stop-color:#E9E9E9"/>
					<stop  offset="1" style="stop-color:#BFBFBF"/>
				</linearGradient>
				<path style="fill-rule:evenodd;clip-rule:evenodd;fill:url(#SVGID_17_);" d="M9.8-0.6c1.966,0.267,2.883,0.184,2.75-0.25
					L11.3-2.1c-1-1-2.25-1.5-3.75-1.5c-2.034,0-3.284,0.3-3.75,0.9C3.667-2.5,4.617-2.083,6.65-1.45C7.684-1.15,8.733-0.867,9.8-0.6
					z"/>
				
					<linearGradient id="SVGID_18_" gradientUnits="userSpaceOnUse" x1="11882.0898" y1="-19117.2227" x2="11890.8662" y2="-19117.2227" gradientTransform="matrix(-0.8973 -0.4415 0.4415 -0.8973 19122.1855 -11904.1084)">
					<stop  offset="0" style="stop-color:#E9E9E9"/>
					<stop  offset="1" style="stop-color:#BFBFBF"/>
				</linearGradient>
				<path style="fill-rule:evenodd;clip-rule:evenodd;fill:url(#SVGID_18_);" d="M13.05-0.45c-0.433,0.134-0.083,0.583,1.05,1.35
					s2.034,1.184,2.7,1.25C17.567,2.217,18.3,2.167,19,2c0.733-0.2,0.917-0.434,0.55-0.7c-0.467-0.4-1.467-0.833-3-1.3
					C14.85-0.533,13.684-0.684,13.05-0.45z"/>
				<linearGradient id="SVGID_19_" gradientUnits="userSpaceOnUse" x1="10.8379" y1="0.5625" x2="14.4629" y2="0.5625">
					<stop  offset="0" style="stop-color:#E9E9E9"/>
					<stop  offset="1" style="stop-color:#BFBFBF"/>
				</linearGradient>
				<path style="fill-rule:evenodd;clip-rule:evenodd;fill:url(#SVGID_19_);" d="M12.45,2.15c0.566-0.133,1.1-0.517,1.6-1.15
					c0.5-0.667,0.583-1.117,0.25-1.35c-0.833-0.7-1.784-0.867-2.85-0.5c-0.7,0.233-0.833,0.817-0.4,1.75
					C11.517,1.833,11.983,2.25,12.45,2.15z"/>
			</g>
			<g>
				
					<linearGradient id="SVGID_20_" gradientUnits="userSpaceOnUse" x1="-2101.1963" y1="-13430.042" x2="-2097.2275" y2="-13430.042" gradientTransform="matrix(0.3087 -0.9512 0.9512 0.3087 13430.1465 2123.6914)">
					<stop  offset="0" style="stop-color:#B8C32E"/>
					<stop  offset="1" style="stop-color:#8D9622"/>
				</linearGradient>
				<path style="fill-rule:evenodd;clip-rule:evenodd;fill:url(#SVGID_20_);" d="M4-23.3l1.55,0.5l4.95-0.25
					c0.733-0.067,1.2-0.233,1.4-0.5c0.2-0.233,0.15-0.45-0.15-0.65c-0.167-0.1-0.267-0.25-0.3-0.45
					c-0.033-0.267-0.167-0.534-0.4-0.8c-0.2-0.267-0.417-0.45-0.65-0.55c-0.2-0.1-0.384-0.25-0.55-0.45
					c-0.367-0.433-0.966-0.466-1.8-0.1l-4.3,1.7c-0.4,0.133-0.533,0.367-0.4,0.7C3.45-23.883,3.667-23.6,4-23.3z"/>
				<g>
					
						<linearGradient id="SVGID_21_" gradientUnits="userSpaceOnUse" x1="-2113.0742" y1="-13399.9756" x2="-2110.1016" y2="-13399.9756" gradientTransform="matrix(0.3112 -0.9504 0.9504 0.3112 13402.8428 2137.5732)">
						<stop  offset="0" style="stop-color:#D8D6A0"/>
						<stop  offset="1" style="stop-color:#828162"/>
					</linearGradient>
					<path style="fill-rule:evenodd;clip-rule:evenodd;fill:url(#SVGID_21_);" d="M9.45-23.8l2.3-0.4c-0.2-0.1-0.3-0.233-0.3-0.4
						c-0.066-0.233-0.133-0.417-0.2-0.55c0.033,0.333-0.267,0.6-0.9,0.8L9.45-23.8z"/>
					
						<linearGradient id="SVGID_22_" gradientUnits="userSpaceOnUse" x1="-2113.0811" y1="-13401.584" x2="-2110.1084" y2="-13401.584" gradientTransform="matrix(0.3112 -0.9504 0.9504 0.3112 13402.8428 2137.5732)">
						<stop  offset="0" style="stop-color:#D8D6A0"/>
						<stop  offset="1" style="stop-color:#828162"/>
					</linearGradient>
					<path style="fill-rule:evenodd;clip-rule:evenodd;fill:url(#SVGID_22_);" d="M10.55-25.85h0.05l-0.35-0.2
						c-0.1,0.167-0.316,0.333-0.65,0.5c-0.333,0.167-0.583,0.25-0.75,0.25c-0.133,0-0.317,0.116-0.55,0.35L8-24.55l0.6-0.05
						c0.933-0.133,1.467-0.283,1.6-0.45c0.033-0.067,0.083-0.217,0.15-0.45C10.384-25.667,10.45-25.783,10.55-25.85z"/>
				</g>
			</g>
			<g>
				
					<linearGradient id="SVGID_23_" gradientUnits="userSpaceOnUse" x1="-2091.8682" y1="-13464.6035" x2="-2084.6736" y2="-13464.6035" gradientTransform="matrix(0.3058 -0.9521 0.9521 0.3058 13461.2354 2107.7725)">
					<stop  offset="0" style="stop-color:#B8C32E"/>
					<stop  offset="1" style="stop-color:#8D9622"/>
				</linearGradient>
				<path style="fill-rule:evenodd;clip-rule:evenodd;fill:url(#SVGID_23_);" d="M2.35-23.3c-1.233,0.566-2.133,1.066-2.7,1.5
					c-1.067,0.767-1.467,1.633-1.2,2.6c0.333,1.267,1.05,2.067,2.15,2.4c1.2,0.4,2.45,0.1,3.75-0.9c1.267-0.933,2.233-2.15,2.9-3.65
					c0.6-1.333,0.717-2.15,0.35-2.45c-0.533-0.5-1.35-0.667-2.45-0.5C4.184-24.167,3.25-23.833,2.35-23.3z"/>
				<g>
					<path style="fill-rule:evenodd;clip-rule:evenodd;fill:#858B26;" d="M5.15-24.3c-0.967,0.133-1.9,0.466-2.8,1
						c-1.4,0.667-2.4,1.233-3,1.7l0.5-0.25c1.567-0.966,3.034-1.433,4.4-1.4c1.4,0.066,2.134,0.65,2.2,1.75
						c0.033,1-0.55,2.184-1.75,3.55c1.133-0.966,2-2.15,2.6-3.55c0.533-1.233,0.633-2,0.3-2.3C7.067-24.3,6.25-24.467,5.15-24.3z"/>
					<path style="fill-rule:evenodd;clip-rule:evenodd;fill:#D4DC78;" d="M0.45-19.6c-0.5,0.034-0.833,0.233-1,0.6
						c-0.066,0.133-0.066,0.434,0,0.9c0.1,0.534,0.3,0.833,0.6,0.9C0.184-17,0.4-16.867,0.7-16.8c0.133,0,0.267,0,0.4,0
						c-0.367-0.167-0.65-0.333-0.85-0.5c-0.167-0.134-0.217-0.417-0.15-0.85c0.1-0.434,0.3-0.65,0.6-0.65
						c0.533,0,0.883,0.267,1.05,0.8c0.033,0.233-0.033,0.283-0.2,0.15c-0.2-0.133-0.317-0.283-0.35-0.45
						c-0.066-0.2-0.2-0.25-0.4-0.15c-0.2,0.1-0.284,0.267-0.25,0.5c0.033,0.267,0.233,0.434,0.6,0.5c0.366,0.1,0.717,0.067,1.05-0.1
						c0.5-0.333,0.333-0.884-0.5-1.65C1.333-19.5,0.917-19.633,0.45-19.6z"/>
				</g>
			</g>
			<g>
				<g>
					<path style="fill-rule:evenodd;clip-rule:evenodd;fill:#72773E;" d="M18.9-15.4c0-0.5-0.1-0.917-0.3-1.25
						c-0.233-0.333-0.5-0.5-0.8-0.5c-0.3,0-0.55,0.167-0.75,0.5c-0.233,0.333-0.35,0.75-0.35,1.25c0,0.466,0.117,0.867,0.35,1.2
						c0.2,0.333,0.45,0.5,0.75,0.5c0.3,0,0.567-0.167,0.8-0.5C18.8-14.533,18.9-14.934,18.9-15.4z"/>
					
						<linearGradient id="SVGID_24_" gradientUnits="userSpaceOnUse" x1="510.874" y1="-16804.4453" x2="513.8292" y2="-16804.4453" gradientTransform="matrix(-0.0592 -0.9982 0.9982 -0.0592 16822.8145 -499.5723)">
						<stop  offset="0" style="stop-color:#CD6C22"/>
						<stop  offset="0.8588" style="stop-color:#6A5108"/>
					</linearGradient>
					<path style="fill-rule:evenodd;clip-rule:evenodd;fill:url(#SVGID_24_);" d="M18.45-15.45c0-0.366-0.083-0.667-0.25-0.9
						s-0.383-0.35-0.65-0.35c-0.233,0-0.45,0.117-0.65,0.35c-0.167,0.233-0.25,0.534-0.25,0.9c0,0.367,0.083,0.684,0.25,0.95
						c0.167,0.233,0.383,0.35,0.65,0.35c0.267,0,0.483-0.117,0.65-0.35C18.367-14.767,18.45-15.083,18.45-15.45z"/>
				</g>
				<g>
					<path style="fill-rule:evenodd;clip-rule:evenodd;fill:#72773E;" d="M25.35-11.55c0-0.434-0.067-0.817-0.2-1.15
						c-0.167-0.333-0.35-0.5-0.55-0.5c-0.2,0-0.367,0.167-0.5,0.5c-0.133,0.3-0.2,0.684-0.2,1.15c0,1.066,0.233,1.6,0.7,1.6
						c0.2,0,0.383-0.15,0.55-0.45C25.283-10.733,25.35-11.117,25.35-11.55z"/>
					
						<linearGradient id="SVGID_25_" gradientUnits="userSpaceOnUse" x1="543.7939" y1="-16830.666" x2="546.5495" y2="-16830.666" gradientTransform="matrix(-0.0635 -0.998 0.998 -0.0635 16855.7344 -536.8091)">
						<stop  offset="0" style="stop-color:#CD6C22"/>
						<stop  offset="0.8588" style="stop-color:#6A5108"/>
					</linearGradient>
					<path style="fill-rule:evenodd;clip-rule:evenodd;fill:url(#SVGID_25_);" d="M25.05-11.55c0-0.8-0.2-1.2-0.6-1.2
						c-0.167,0-0.3,0.117-0.4,0.35c-0.133,0.233-0.2,0.517-0.2,0.85c0,0.333,0.067,0.616,0.2,0.85c0.1,0.233,0.233,0.35,0.4,0.35
						C24.85-10.35,25.05-10.75,25.05-11.55z"/>
				</g>
			</g>
			<g>
				<path style="fill-rule:evenodd;clip-rule:evenodd;fill:#D9DF95;" d="M12.75-7.6c1.833-0.133,2.884-0.167,3.15-0.1
					c0.333,0.034,1.633,0.65,3.9,1.85c1.466,0.767,3.033,1.667,4.7,2.7c-0.066-0.4-1.45-1.333-4.15-2.8
					c-2.7-1.5-4.083-2.417-4.15-2.75c-0.066-0.366-0.066-4.517,0-12.45c-0.033-1.7-0.267-2.75-0.7-3.15l0.2,0.6
					c0.1,0.267,0.133,2.267,0.1,6c-0.034,3.6-0.083,5.967-0.15,7.1c-0.067,1.1-0.134,1.733-0.2,1.9c-0.066,0.2-0.25,0.333-0.55,0.4
					c-0.4,0.1-3.233,0.417-8.5,0.95l-6.1,1l7.6-0.8C9.267-7.316,10.884-7.467,12.75-7.6z"/>
			</g>
		</g>
	</g>
</symbol>
<symbol  id="cubimal_x5F_mc" viewBox="-0.385 -27.188 33.863 29.417">
	<g id="Layer_5_1_">
	</g>
	<g id="Layer_4_2_">
	</g>
	<g id="Layer_2_copy_2_">
	</g>
	<g id="Layer_2_2_">
	</g>
	<g id="Layer_1_9_">
		
			<use xlink:href="#cubimal_x5F_scene1"  width="33.863" height="29.417" x="0.015" y="-27.238" transform="matrix(1 0 0 1 -0.3999 0.0498)" style="overflow:visible;"/>
	</g>
	<g id="Layer_6_1_">
	</g>
</symbol>
<symbol  id="cubimal_x5F_scene1" viewBox="0.015 -27.238 33.863 29.417">
	<g id="Layer_1_8_">
		
			<use xlink:href="#winder_x5F_static"  width="10.185" height="8.474" x="0.015" y="-8.472" transform="matrix(1 0 0 1 0 -7.9502)" style="overflow:visible;"/>
		
			<use xlink:href="#cubimal_1_"  width="29.508" height="29.417" x="-1.63" y="-27.238" transform="matrix(1 0 0 1 6 0)" style="overflow:visible;"/>
	</g>
</symbol>
<symbol  id="winder_x5F_static" viewBox="0.015 -8.472 10.185 8.474">
	<g id="Layer_4_1_">
		
			<use xlink:href="#winderedge"  width="4.537" height="8.127" x="0.015" y="-8.126" transform="matrix(1 0 0 1 0.7002 0)" style="overflow:visible;"/>
	</g>
	<g id="Layer_3_1_">
		
			<use xlink:href="#winderfacehighlight"  width="4.573" height="8.174" x="0.016" y="-8.173" transform="matrix(1 0 0 1 0.2002 -0.2002)" style="overflow:visible;"/>
	</g>
	<g id="Layer_2_copy_1_">
		
			<use xlink:href="#winderface1a"  width="4.573" height="8.174" x="0.015" y="-8.172" transform="matrix(1 0 0 1 0 -0.2998)" style="overflow:visible;"/>
	</g>
	<g id="Layer_1_7_">
		<g>
			
				<linearGradient id="SVGID_26_" gradientUnits="userSpaceOnUse" x1="1516.5513" y1="-17619.6172" x2="1517.8706" y2="-17619.6172" gradientTransform="matrix(-0.1705 -0.9854 0.9854 -0.1705 17627.5566 -1515.2915)">
				<stop  offset="0" style="stop-color:#8F8F8F"/>
				<stop  offset="0.2275" style="stop-color:#E8E8E8"/>
				<stop  offset="1" style="stop-color:#696969"/>
			</linearGradient>
			<path style="fill-rule:evenodd;clip-rule:evenodd;fill:url(#SVGID_26_);" d="M10.2-6.3L4.8-5.5C4.5-5.533,4.351-5.366,4.351-5
				c0,0.233,0.083,0.4,0.25,0.5c0.066,0.066,0.133,0.1,0.2,0.1l5.4-0.8V-6.3z"/>
		</g>
	</g>
</symbol>
<symbol  id="winderedge" viewBox="0.015 -8.126 4.537 8.127">
	<g id="Layer_1_4_">
		<g>
			
				<linearGradient id="SVGID_27_" gradientUnits="userSpaceOnUse" x1="7.21" y1="-16349.5195" x2="14.035" y2="-16349.5195" gradientTransform="matrix(1.465202e-004 -1 1 -0.001 16351.8027 -9.1768)">
				<stop  offset="0" style="stop-color:#8F8F8F"/>
				<stop  offset="0.2275" style="stop-color:#E8E8E8"/>
				<stop  offset="1" style="stop-color:#696969"/>
			</linearGradient>
			<path style="fill-rule:evenodd;clip-rule:evenodd;fill:url(#SVGID_27_);" d="M3.5-5.899c0.066,0.6-0.083,0.983-0.45,1.15L2.6-4.7
				C2.367-4.7,2.167-4.733,2-4.8c-0.533-0.167-0.833-0.533-0.9-1.1c-0.034-0.5,0.1-0.85,0.4-1.05c0.434-0.233,0.867-0.233,1.3,0
				C3.2-6.716,3.434-6.366,3.5-5.899z M0.05-1.25c0.1,0.8,0.5,1.216,1.2,1.25c1.367,0.033,2.333-0.633,2.9-2
				c0.5-1.233,0.534-2.05,0.1-2.45c0.434-0.533,0.4-1.333-0.1-2.4c-0.567-1.167-1.533-1.533-2.9-1.1c-0.7,0.233-1.1,0.767-1.2,1.6
				c-0.133,0.867,0.117,1.533,0.75,2L1.25-4L0.8-3.55C0.167-2.85-0.083-2.083,0.05-1.25z M3.5-2.75C3.434-2.25,3.2-1.833,2.8-1.5
				C2.367-1.1,1.934-0.966,1.5-1.1c-0.3-0.133-0.434-0.467-0.4-1C1.167-2.666,1.467-3.116,2-3.45l0.6-0.3L3.05-3.8
				C3.417-3.766,3.566-3.416,3.5-2.75z"/>
		</g>
	</g>
</symbol>
<symbol  id="winderface1a" viewBox="0.015 -8.172 4.573 8.174">
	<g id="Layer_1_2_">
		
			<linearGradient id="SVGID_28_" gradientUnits="userSpaceOnUse" x1="-1920.8174" y1="-13813.7998" x2="-1911.6451" y2="-13813.7998" gradientTransform="matrix(0.2726 -0.9621 0.9621 0.2726 13814.9521 1918.1729)">
			<stop  offset="0" style="stop-color:#E8E8E8"/>
			<stop  offset="1" style="stop-color:#878787"/>
		</linearGradient>
		<path style="fill-rule:evenodd;clip-rule:evenodd;fill:url(#SVGID_28_);" d="M2.05-4.8c-0.566-0.133-0.867-0.483-0.9-1.05
			c-0.033-0.533,0.1-0.9,0.4-1.1c0.4-0.267,0.817-0.267,1.25,0C3.2-6.717,3.433-6.367,3.5-5.9c0.133,0.633,0,1-0.4,1.1L2.65-4.7
			L2.05-4.8z M0.05-1.25C0.183-0.45,0.6-0.033,1.3,0c1.367,0.033,2.333-0.633,2.9-2c0.5-1.233,0.517-2.05,0.05-2.45
			c0.467-0.5,0.45-1.3-0.05-2.4C3.633-8.05,2.667-8.433,1.3-8C0.6-7.733,0.183-7.183,0.05-6.35c-0.133,0.867,0.117,1.533,0.75,2
			L1.3-4L0.8-3.55C0.167-2.85-0.083-2.083,0.05-1.25z M3.5-2.75C3.433-2.25,3.2-1.833,2.8-1.5C2.367-1.1,1.95-0.967,1.55-1.1
			c-0.3-0.133-0.433-0.467-0.4-1c0.033-0.6,0.333-1.05,0.9-1.35l0.6-0.3L3.1-3.8C3.467-3.767,3.6-3.417,3.5-2.75z"/>
	</g>
</symbol>
<symbol  id="winderfacehighlight" viewBox="0.016 -8.173 4.573 8.174">
	<g id="Layer_1_3_">
		
			<linearGradient id="SVGID_29_" gradientUnits="userSpaceOnUse" x1="-1920.8164" y1="-13813.7998" x2="-1911.6442" y2="-13813.7998" gradientTransform="matrix(0.2726 -0.9621 0.9621 0.2726 13814.9521 1918.1729)">
			<stop  offset="0" style="stop-color:#E8E8E8"/>
			<stop  offset="1" style="stop-color:#EDEDED"/>
		</linearGradient>
		<path style="fill-rule:evenodd;clip-rule:evenodd;fill:url(#SVGID_29_);" d="M2.05-4.8c-0.567-0.133-0.867-0.483-0.9-1.05
			c-0.033-0.533,0.1-0.9,0.4-1.1c0.4-0.267,0.817-0.267,1.25,0C3.2-6.717,3.434-6.367,3.5-5.9c0.1,0.6-0.034,0.967-0.4,1.1L2.65-4.7
			L2.05-4.8z M0.05-1.25C0.184-0.45,0.601-0.034,1.3,0c1.367,0.034,2.333-0.633,2.9-2c0.5-1.233,0.517-2.05,0.05-2.45
			c0.466-0.5,0.45-1.3-0.05-2.4C3.634-8.05,2.667-8.434,1.3-8c-0.7,0.267-1.117,0.817-1.25,1.65c-0.133,0.867,0.117,1.534,0.75,2
			L1.3-4L0.8-3.55C0.167-2.851-0.083-2.084,0.05-1.25z M1.55-1.101c-0.3-0.133-0.433-0.466-0.4-1c0.033-0.6,0.333-1.05,0.9-1.35
			l0.6-0.3l0.45-0.05c0.366,0.033,0.5,0.383,0.4,1.05C3.434-2.25,3.2-1.834,2.8-1.5C2.367-1.101,1.95-0.967,1.55-1.101z"/>
	</g>
</symbol>
<use xlink:href="#cubimal_x5F_mc"  width="33.863" height="29.417" id="cubimal" x="-0.385" y="-27.188" transform="matrix(1 0 0 -1 0.3999 2.25)" style="overflow:visible;"/>
</svg>
