<?xml version="1.0" encoding="iso-8859-1"?>
<!-- Generator: Adobe Illustrator 15.1.0, SVG Export Plug-In . SVG Version: 6.00 Build 0)  -->
<!DOCTYPE svg PUBLIC "-//W3C//DTD SVG 1.1//EN" "http://www.w3.org/Graphics/SVG/1.1/DTD/svg11.dtd">
<svg version="1.1" id="flash0.ai" xmlns="http://www.w3.org/2000/svg" xmlns:xlink="http://www.w3.org/1999/xlink" x="0px" y="0px"
	 width="32.65px" height="25.35px" viewBox="0 0 32.65 25.35" style="enable-background:new 0 0 32.65 25.35;" xml:space="preserve"
	>
<symbol  id="cubimal_1_" viewBox="-0.3 -25.914 26.959 25.363">
	<g id="Layer_1_5_">
		<g>
			<g>
				
					<linearGradient id="SVGID_1_" gradientUnits="userSpaceOnUse" x1="366.709" y1="318.5488" x2="368.4606" y2="318.5488" gradientTransform="matrix(0.9991 0.0428 -0.0428 0.9991 -342.708 -357.5801)">
					<stop  offset="0" style="stop-color:#D8F9FF;stop-opacity:0.9176"/>
					<stop  offset="1" style="stop-color:#74B5C6;stop-opacity:0.749"/>
				</linearGradient>
				<path style="fill-rule:evenodd;clip-rule:evenodd;fill:url(#SVGID_1_);" d="M9-21.3l4.65-0.35c-0.333-1.367-0.6-2.316-0.8-2.85
					c-0.4-1.033-0.817-1.5-1.25-1.4C10.767-25.7,9.9-24.167,9-21.3z"/>
			</g>
			<g>
				<linearGradient id="SVGID_2_" gradientUnits="userSpaceOnUse" x1="0.8252" y1="-20.3481" x2="24.9751" y2="-20.3481">
					<stop  offset="0" style="stop-color:#D8F9FF;stop-opacity:0.9176"/>
					<stop  offset="1" style="stop-color:#74B5C6;stop-opacity:0.749"/>
				</linearGradient>
				<path style="fill-rule:evenodd;clip-rule:evenodd;fill:url(#SVGID_2_);" d="M22.95-17.9c0.6-0.1,1.05-0.25,1.35-0.45
					c0.167-0.1,0.4-0.3,0.7-0.6c-1.067-0.667-1.817-1.167-2.25-1.5c-1.267-0.934-2.633-1.717-4.1-2.35
					c-1.367-0.567-2.083-0.883-2.15-0.95c-8.4,0.534-13.417,0.983-15.05,1.35l-0.6,0.1L1-22.05l0.3,0.25
					c0.867,0.633,2.4,1.533,4.6,2.7c2.533,1.4,4.15,2.117,4.85,2.15c0.9,0.033,2.933-0.117,6.1-0.45
					C20.15-17.734,22.184-17.9,22.95-17.9z"/>
				<linearGradient id="SVGID_3_" gradientUnits="userSpaceOnUse" x1="10.438" y1="-9.8623" x2="25.3614" y2="-9.8623">
					<stop  offset="0" style="stop-color:#D8F9FF;stop-opacity:0.9176"/>
					<stop  offset="1" style="stop-color:#74B5C6;stop-opacity:0.749"/>
				</linearGradient>
				<path style="fill-rule:evenodd;clip-rule:evenodd;fill:url(#SVGID_3_);" d="M23.2-2.8c1.3-0.2,2-1.05,2.1-2.55
					c0.067-8.5,0.034-12.85-0.1-13.05c-0.066-0.133-0.9-0.066-2.5,0.2c-1.933,0.333-2.917,0.5-2.95,0.5
					c-0.5,0.033-3.333,0.383-8.5,1.05c-0.467,5.367-0.733,9.316-0.8,11.85c-0.066,1.633-0.05,2.683,0.05,3.15
					c0.033,0.167,0.133,0.283,0.3,0.35C11.367-1.101,15.5-1.601,23.2-2.8z"/>
				<path style="fill-rule:evenodd;clip-rule:evenodd;fill:#699298;" d="M13.45-21.601c0-0.233-0.2-0.433-0.6-0.6
					c-0.434-0.167-0.917-0.25-1.45-0.25c-0.566,0-1.066,0.083-1.5,0.25c-0.4,0.167-0.6,0.366-0.6,0.6s0.2,0.45,0.6,0.65
					c0.434,0.167,0.934,0.25,1.5,0.25s1.05-0.083,1.45-0.25C13.25-21.15,13.45-21.367,13.45-21.601z"/>
				<path style="fill-rule:evenodd;clip-rule:evenodd;fill:#699298;" d="M19.5-18.75c0-0.267-0.2-0.483-0.6-0.65
					s-0.883-0.25-1.45-0.25c-0.566,0-1.05,0.083-1.45,0.25s-0.6,0.383-0.6,0.65c0,0.233,0.2,0.434,0.6,0.6s0.883,0.25,1.45,0.25
					c0.567,0,1.05-0.083,1.45-0.25S19.5-18.517,19.5-18.75z"/>
			</g>
			<g>
				
					<linearGradient id="SVGID_4_" gradientUnits="userSpaceOnUse" x1="-2109.2529" y1="-13447.8086" x2="-2090.1045" y2="-13447.8086" gradientTransform="matrix(0.3068 -0.9518 0.9518 0.3068 13452.0332 2112.0879)">
					<stop  offset="0" style="stop-color:#D8F9FF;stop-opacity:0.9176"/>
					<stop  offset="1" style="stop-color:#74B5C6;stop-opacity:0.749"/>
				</linearGradient>
				<path style="fill-rule:evenodd;clip-rule:evenodd;fill:url(#SVGID_4_);" d="M16.2-7.9l-0.1-0.15l0.1-14
					c0.033-0.767-0.116-1.483-0.45-2.15c-2.433,0.3-4.284,0.45-5.55,0.45c-0.8,0.034-2.25,0.2-4.35,0.5
					c-2.134,0.3-3.4,0.483-3.8,0.55c-0.667,0.133-1.133,0.433-1.4,0.9c-0.333,0.667-0.517,2.017-0.55,4.05
					c-0.134,2.833-0.217,4.95-0.25,6.35C-0.183-8.967,0.034-7.334,0.5-6.5c0.933,0.067,3.267-0.1,7-0.5
					C12.434-7.534,15.334-7.834,16.2-7.9z"/>
				
					<linearGradient id="SVGID_5_" gradientUnits="userSpaceOnUse" x1="-2372.0762" y1="-12877.6563" x2="-2355.0784" y2="-12877.6563" gradientTransform="matrix(0.3574 -0.934 0.934 0.3574 12892.667 2380.1689)">
					<stop  offset="0" style="stop-color:#D8F9FF;stop-opacity:0.9176"/>
					<stop  offset="1" style="stop-color:#74B5C6;stop-opacity:0.749"/>
				</linearGradient>
				<path style="fill-rule:evenodd;clip-rule:evenodd;fill:url(#SVGID_5_);" d="M24.7-3.05c0.367-0.367,0.6-0.784,0.7-1.25
					l0.05-0.25l0.15-2.1v-1.95l0.05-0.3v-6.95c0-0.366,0-0.85,0-1.45c-0.033-0.5-0.184-0.95-0.45-1.35
					c-0.267-0.434-1.183-1.184-2.75-2.25c-1.333-0.934-2.3-1.566-2.9-1.9c-0.3-0.167-0.933-0.434-1.9-0.8
					c-0.967-0.366-1.6-0.566-1.9-0.6c0.333,0.667,0.483,1.383,0.45,2.15l-0.1,14l0.1,0.15c0.2,0.2,1.233,0.75,3.1,1.65
					c2.1,1.034,3.4,1.7,3.9,2C23.767-3.884,24.267-3.484,24.7-3.05z"/>
				<linearGradient id="SVGID_6_" gradientUnits="userSpaceOnUse" x1="0.5005" y1="-4.4736" x2="24.7002" y2="-4.4736">
					<stop  offset="0" style="stop-color:#D8F9FF;stop-opacity:0.9176"/>
					<stop  offset="1" style="stop-color:#74B5C6;stop-opacity:0.749"/>
				</linearGradient>
				<path style="fill-rule:evenodd;clip-rule:evenodd;fill:url(#SVGID_6_);" d="M22.05-2.25c1.433-0.2,2.317-0.466,2.65-0.8
					c-0.1-0.1-0.85-0.6-2.25-1.5c-0.533-0.367-1.7-0.983-3.5-1.85c-1.667-0.833-2.583-1.333-2.75-1.5
					C15.334-7.834,12.434-7.534,7.5-7c-3.733,0.4-6.067,0.567-7,0.5l0.05,0.1L1-5.9c0.9,0.633,2.433,1.533,4.6,2.7
					c2.533,1.4,4.167,2.116,4.9,2.15c0.9,0.033,2.833-0.15,5.8-0.55C19.4-2.034,21.317-2.25,22.05-2.25z"/>
			</g>
			<g>
				<g>
					<path style="fill-rule:evenodd;clip-rule:evenodd;fill:#749FA8;" d="M19.15-15.3c0-0.5-0.1-0.917-0.3-1.25
						c-0.233-0.333-0.5-0.5-0.8-0.5c-0.333,0-0.6,0.167-0.8,0.5c-0.2,0.333-0.3,0.75-0.3,1.25c0,0.466,0.1,0.867,0.3,1.2
						c0.2,0.333,0.466,0.5,0.8,0.5c0.3,0,0.567-0.167,0.8-0.5C19.05-14.434,19.15-14.834,19.15-15.3z"/>
					
						<linearGradient id="SVGID_7_" gradientUnits="userSpaceOnUse" x1="508.7632" y1="-16806.3438" x2="511.7184" y2="-16806.3438" gradientTransform="matrix(-0.0592 -0.9982 0.9982 -0.0592 16824.8105 -501.6909)">
						<stop  offset="0" style="stop-color:#5F4E29"/>
						<stop  offset="0.8588" style="stop-color:#271D09"/>
					</linearGradient>
					<path style="fill-rule:evenodd;clip-rule:evenodd;fill:url(#SVGID_7_);" d="M18.45-14.4c0.167-0.267,0.25-0.583,0.25-0.95
						c0-0.366-0.083-0.667-0.25-0.9c-0.167-0.233-0.383-0.35-0.65-0.35c-0.267,0-0.483,0.117-0.65,0.35
						c-0.2,0.267-0.3,0.567-0.3,0.9c0,0.367,0.1,0.684,0.3,0.95c0.167,0.233,0.383,0.35,0.65,0.35
						C18.067-14.05,18.284-14.167,18.45-14.4z"/>
				</g>
				<g>
					<path style="fill-rule:evenodd;clip-rule:evenodd;fill:#749FA8;" d="M25.55-11.45c0-0.467-0.067-0.85-0.2-1.15
						c-0.134-0.333-0.3-0.5-0.5-0.5c-0.2,0-0.367,0.167-0.5,0.5c-0.134,0.3-0.2,0.684-0.2,1.15c0,1.066,0.233,1.6,0.7,1.6
						S25.55-10.384,25.55-11.45z"/>
					
						<linearGradient id="SVGID_8_" gradientUnits="userSpaceOnUse" x1="541.6855" y1="-16832.5508" x2="544.4411" y2="-16832.5508" gradientTransform="matrix(-0.0635 -0.998 0.998 -0.0635 16857.7305 -538.936)">
						<stop  offset="0" style="stop-color:#5F4E29"/>
						<stop  offset="0.8588" style="stop-color:#271D09"/>
					</linearGradient>
					<path style="fill-rule:evenodd;clip-rule:evenodd;fill:url(#SVGID_8_);" d="M25.3-11.45c0-0.333-0.067-0.617-0.2-0.85
						c-0.1-0.233-0.233-0.35-0.4-0.35c-0.4,0-0.6,0.4-0.6,1.2c0,0.8,0.2,1.2,0.6,1.2c0.167,0,0.3-0.117,0.4-0.35
						C25.233-10.834,25.3-11.117,25.3-11.45z"/>
				</g>
			</g>
			<g>
				
					<radialGradient id="SVGID_9_" cx="1737.748" cy="1405.0479" r="2.802" gradientTransform="matrix(0.9812 0.193 0.2616 -1.3297 -2063.7021 1514.9834)" gradientUnits="userSpaceOnUse">
					<stop  offset="0.2157" style="stop-color:#000000;stop-opacity:0.3765"/>
					<stop  offset="0.8667" style="stop-color:#000000;stop-opacity:0"/>
				</radialGradient>
				<path style="fill-rule:evenodd;clip-rule:evenodd;fill:url(#SVGID_9_);" d="M11.65-17.351c0.2-1.033,0.1-1.966-0.3-2.8
					c-0.367-0.833-0.934-1.316-1.7-1.45c-0.767-0.167-1.5,0.067-2.2,0.7c-0.667,0.6-1.1,1.417-1.3,2.45
					c-0.2,1.033-0.1,1.966,0.3,2.8c0.4,0.833,0.967,1.333,1.7,1.5c0.767,0.133,1.5-0.1,2.2-0.7
					C11.017-15.484,11.45-16.317,11.65-17.351z"/>
				
					<linearGradient id="SVGID_10_" gradientUnits="userSpaceOnUse" x1="-3086.6191" y1="-5624.9922" x2="-3082.6309" y2="-5624.9922" gradientTransform="matrix(0.8462 -0.5328 0.5328 0.8462 5615.0791 3098.6201)">
					<stop  offset="0" style="stop-color:#F2FDFF;stop-opacity:0.9176"/>
					<stop  offset="1" style="stop-color:#74B5C6;stop-opacity:0.749"/>
				</linearGradient>
				<path style="fill-rule:evenodd;clip-rule:evenodd;fill:url(#SVGID_10_);" d="M8.75-15.351c0.733-0.1,1.133-0.533,1.2-1.3
					c0.033-0.633-0.1-1.15-0.4-1.55c-0.267-0.4-0.683-0.884-1.25-1.45c-0.7-0.633-1.233-0.95-1.6-0.95c-0.366,0-0.55,0.434-0.55,1.3
					c0.033,0.833,0.217,1.65,0.55,2.45C7.167-15.684,7.851-15.184,8.75-15.351z"/>
			</g>
			<g>
				
					<linearGradient id="SVGID_11_" gradientUnits="userSpaceOnUse" x1="-1291.6523" y1="-14795.1885" x2="-1274.4143" y2="-14795.1885" gradientTransform="matrix(0.174 -0.9847 0.9847 0.174 14807.2881 1295.6523)">
					<stop  offset="0" style="stop-color:#D8F9FF;stop-opacity:0.9176"/>
					<stop  offset="1" style="stop-color:#BBE7F1;stop-opacity:0.749"/>
				</linearGradient>
				<path style="fill-rule:evenodd;clip-rule:evenodd;fill:url(#SVGID_11_);" d="M24.7-3.05c-0.066-0.4-1.433-1.333-4.1-2.8
					c-2.7-1.5-4.083-2.417-4.15-2.75c-0.066-0.366-0.066-4.517,0-12.45c-0.066-1.7-0.3-2.75-0.7-3.15l0.2,0.6
					c0.067,0.3,0.083,2.3,0.05,6c-0.034,3.667-0.083,6.034-0.15,7.1c-0.067,1.167-0.117,1.8-0.15,1.9
					c-0.066,0.2-0.25,0.333-0.55,0.4c-0.367,0.1-3.217,0.417-8.55,0.95l-6.05,1l7.6-0.8C9.517-7.217,11.134-7.367,13-7.5
					c1.833-0.133,2.883-0.167,3.15-0.1c0.333,0.034,1.633,0.65,3.9,1.85C21.483-4.984,23.034-4.084,24.7-3.05z"/>
			</g>
			<g>
				
					<linearGradient id="SVGID_12_" gradientUnits="userSpaceOnUse" x1="-1547.876" y1="-14424.373" x2="-1522.8826" y2="-14424.373" gradientTransform="matrix(0.2121 -0.9773 0.9773 0.2121 14435.2197 1545.4629)">
					<stop  offset="0" style="stop-color:#D8F9FF;stop-opacity:0.9176"/>
					<stop  offset="1" style="stop-color:#91DAEC;stop-opacity:0.749"/>
				</linearGradient>
				<path style="fill-rule:evenodd;clip-rule:evenodd;fill:url(#SVGID_12_);" d="M19.05-4.2l0.2-1.8c-0.067-1.433-0.6-2.767-1.6-4
					c-0.9-1.133-1.85-2.083-2.85-2.85c-0.8-0.6-1.25-1.017-1.35-1.25l-0.65-1.15c-0.3,0.333-0.6,0.8-0.9,1.4
					c-0.533,1.2-0.684,2.4-0.45,3.6c0.233,1.233,0.6,2.284,1.1,3.15C12.784-6.7,13-6.4,13.2-6.2c-0.733-0.367-1.55-0.85-2.45-1.45
					c-1.733-1.2-2.917-2.4-3.55-3.6c-0.733-1.4-1.267-2.966-1.6-4.7c-0.3-1.7-0.367-3.217-0.2-4.55c0.2-1.767,0.667-2.933,1.4-3.5
					c-1.1-0.066-2.233,0.067-3.4,0.4c-1.133,0.167-1.917,0.367-2.35,0.6c-0.7,0.333-1.067,1.1-1.1,2.3
					c-0.167,3.1-0.25,6.85-0.25,11.25C-0.3-7.384,0.134-6,1-5.3c0.6,0.466,2.2,1.35,4.8,2.65c2.8,1.4,4.517,2.1,5.15,2.1
					c1.367,0,5.55-0.583,12.55-1.75c0.833-0.133,1.567-0.434,2.2-0.9c0.7-0.5,1.017-1.05,0.95-1.65
					c-0.133-0.833-0.483-1.783-1.05-2.85c0.033,0.3-0.033,0.633-0.2,1c-0.3,0.767-0.917,1.383-1.85,1.85
					c-0.933,0.434-1.966,0.667-3.1,0.7L19.05-4.2z"/>
				<g>
					<linearGradient id="SVGID_13_" gradientUnits="userSpaceOnUse" x1="4.4253" y1="-9.2002" x2="25.9753" y2="-9.2002">
						<stop  offset="0" style="stop-color:#D8F9FF;stop-opacity:0.9176"/>
						<stop  offset="1" style="stop-color:#91DAEC;stop-opacity:0.749"/>
					</linearGradient>
					<path style="fill-rule:evenodd;clip-rule:evenodd;fill:url(#SVGID_13_);" d="M25.95-7l-0.35-0.7c0.033,0.3-0.033,0.633-0.2,1
						c-0.3,0.767-0.917,1.383-1.85,1.85c-0.933,0.434-1.966,0.667-3.1,0.7l-1.4-0.05l0.2-1.8c-0.067-1.433-0.6-2.767-1.6-4
						c-0.9-1.133-1.85-2.083-2.85-2.85c-0.8-0.6-1.25-1.017-1.35-1.25l-0.65-1.15c-0.267,0.3-0.533,0.7-0.8,1.2
						c0.1,0.033,0.317,0.333,0.65,0.9c0.467,0.6,0.983,1.05,1.55,1.35c2.467,1.233,3.817,2.833,4.05,4.8
						c0.133,1.034,0.083,1.967-0.15,2.8l-0.4,1l2,0.05c1.467,0,2.617-0.184,3.45-0.55C24.784-4.367,25.717-5.467,25.95-7z"/>
					<linearGradient id="SVGID_14_" gradientUnits="userSpaceOnUse" x1="4.4253" y1="-14.8506" x2="25.9753" y2="-14.8506">
						<stop  offset="0" style="stop-color:#D8F9FF;stop-opacity:0.9176"/>
						<stop  offset="1" style="stop-color:#91DAEC;stop-opacity:0.749"/>
					</linearGradient>
					<path style="fill-rule:evenodd;clip-rule:evenodd;fill:url(#SVGID_14_);" d="M12.9-6.25L12.8-6.4
						c-2.9-1.566-4.767-3.184-5.6-4.85c-0.733-1.4-1.267-2.966-1.6-4.7c-0.3-1.7-0.367-3.217-0.2-4.55
						c0.2-1.767,0.667-2.933,1.4-3.5c-0.267,0.067-0.567,0.233-0.9,0.5c-0.633,0.567-1.05,1.417-1.25,2.55
						c-0.267,1.5-0.267,3.183,0,5.05c0.3,2.133,0.9,3.9,1.8,5.3c0.8,1.3,1.967,2.483,3.5,3.55c1.2,0.833,2.033,1.267,2.5,1.3
						L13.4-5.7L12.9-6.25z"/>
				</g>
				
					<linearGradient id="SVGID_15_" gradientUnits="userSpaceOnUse" x1="-3224.2246" y1="-10073.7148" x2="-3214.2419" y2="-10073.7148" gradientTransform="matrix(0.581 -0.8139 0.8139 0.581 10082.6426 3227.4775)">
					<stop  offset="0" style="stop-color:#F8FEFF;stop-opacity:0.9176"/>
					<stop  offset="1" style="stop-color:#D7F7FF;stop-opacity:0.749"/>
				</linearGradient>
				<path style="fill-rule:evenodd;clip-rule:evenodd;fill:url(#SVGID_15_);" d="M18.95-2c0.667,0,1.317-0.133,1.95-0.4
					c0.6-0.267,0.566-0.4-0.1-0.4c-0.533,0-1.383-0.083-2.55-0.25l-1.55-0.2l0.35-1.65c0.067-1.167-0.367-2.017-1.3-2.55
					c-0.9-0.534-1.35-0.184-1.35,1.05l0.25,1.95C13.384-4.817,12.167-5.267,11-5.8C9.367-6.567,8.2-6.817,7.5-6.55
					C7.267-6.484,7.567-6.034,8.4-5.2c0.434,0.433,0.883,0.85,1.35,1.25c-1.9-0.9-3.417-1.45-4.55-1.65
					C4.334-5.767,3.817-5.784,3.65-5.65S3.7-5.167,4.3-4.601c0.833,0.733,2.617,1.35,5.35,1.85L9.8-2.2c0,0.133,0.4,0.4,1.2,0.8
					c0.833,0.4,1.466,0.55,1.9,0.45c0.667-0.167,0.434-0.667-0.7-1.5l1.4,0.45c1.033,0.3,1.833,0.45,2.4,0.45
					c0.933,0,0.833-0.3-0.3-0.9l1.1,0.2C17.667-2.084,18.384-2,18.95-2z"/>
			</g>
		</g>
	</g>
</symbol>
<symbol  id="cubimal_x5F_mc" viewBox="-0.385 -25.864 32.644 25.363">
	<g id="Layer_5_1_">
	</g>
	<g id="Layer_4_2_">
	</g>
	<g id="Layer_2_copy_2_">
	</g>
	<g id="Layer_2_2_">
	</g>
	<g id="Layer_1_9_">
		
			<use xlink:href="#cubimal_x5F_scene1"  width="32.644" height="25.363" x="0.015" y="-25.914" transform="matrix(1 0 0 1 -0.3999 0.0498)" style="overflow:visible;"/>
	</g>
	<g id="Layer_6_1_">
	</g>
</symbol>
<symbol  id="cubimal_x5F_scene1" viewBox="0.015 -25.914 32.644 25.363">
	<g id="Layer_1_8_">
		
			<use xlink:href="#winder_x5F_static"  width="10.185" height="8.474" x="0.015" y="-8.472" transform="matrix(1 0 0 1 0 -7.9502)" style="overflow:visible;"/>
		
			<use xlink:href="#cubimal_1_"  width="26.959" height="25.363" x="-0.3" y="-25.914" transform="matrix(1 0 0 1 6 0)" style="overflow:visible;"/>
	</g>
</symbol>
<symbol  id="winder_x5F_static" viewBox="0.015 -8.472 10.185 8.474">
	<g id="Layer_4_1_">
		
			<use xlink:href="#winderedge"  width="4.537" height="8.127" x="0.015" y="-8.126" transform="matrix(1 0 0 1 0.7002 0)" style="overflow:visible;"/>
	</g>
	<g id="Layer_3_1_">
		
			<use xlink:href="#winderfacehighlight"  width="4.573" height="8.174" x="0.016" y="-8.173" transform="matrix(1 0 0 1 0.2002 -0.2002)" style="overflow:visible;"/>
	</g>
	<g id="Layer_2_copy_1_">
		
			<use xlink:href="#winderface1a"  width="4.573" height="8.174" x="0.015" y="-8.172" transform="matrix(1 0 0 1 0 -0.2998)" style="overflow:visible;"/>
	</g>
	<g id="Layer_1_7_">
		<g>
			
				<linearGradient id="SVGID_16_" gradientUnits="userSpaceOnUse" x1="1514.5806" y1="-17621.9609" x2="1515.8999" y2="-17621.9609" gradientTransform="matrix(-0.1705 -0.9854 0.9854 -0.1705 17629.5273 -1517.6323)">
				<stop  offset="0" style="stop-color:#8F8F8F"/>
				<stop  offset="0.2275" style="stop-color:#E8E8E8"/>
				<stop  offset="1" style="stop-color:#696969"/>
			</linearGradient>
			<path style="fill-rule:evenodd;clip-rule:evenodd;fill:url(#SVGID_16_);" d="M10.2-6.3L4.8-5.5C4.5-5.533,4.351-5.366,4.351-5
				c0,0.233,0.083,0.4,0.25,0.5c0.066,0.066,0.133,0.1,0.2,0.1l5.4-0.8V-6.3z"/>
		</g>
	</g>
</symbol>
<symbol  id="winderedge" viewBox="0.015 -8.126 4.537 8.127">
	<g id="Layer_1_4_">
		<g>
			
				<linearGradient id="SVGID_17_" gradientUnits="userSpaceOnUse" x1="5.21" y1="-16351.5176" x2="12.035" y2="-16351.5176" gradientTransform="matrix(1.465202e-004 -1 1 -0.001 16353.8027 -11.1792)">
				<stop  offset="0" style="stop-color:#8F8F8F"/>
				<stop  offset="0.2275" style="stop-color:#E8E8E8"/>
				<stop  offset="1" style="stop-color:#696969"/>
			</linearGradient>
			<path style="fill-rule:evenodd;clip-rule:evenodd;fill:url(#SVGID_17_);" d="M3.5-5.899c0.066,0.6-0.083,0.983-0.45,1.15L2.6-4.7
				C2.367-4.7,2.167-4.733,2-4.8c-0.533-0.167-0.833-0.533-0.9-1.1c-0.034-0.5,0.1-0.85,0.4-1.05c0.434-0.233,0.867-0.233,1.3,0
				C3.2-6.716,3.434-6.366,3.5-5.899z M0.05-1.25c0.1,0.8,0.5,1.216,1.2,1.25c1.367,0.033,2.333-0.633,2.9-2
				c0.5-1.233,0.534-2.05,0.1-2.45c0.434-0.533,0.4-1.333-0.1-2.4c-0.567-1.167-1.533-1.533-2.9-1.1c-0.7,0.233-1.1,0.767-1.2,1.6
				c-0.133,0.867,0.117,1.533,0.75,2L1.25-4L0.8-3.55C0.167-2.85-0.083-2.083,0.05-1.25z M3.5-2.75C3.434-2.25,3.2-1.833,2.8-1.5
				C2.367-1.1,1.934-0.966,1.5-1.1c-0.3-0.133-0.434-0.467-0.4-1C1.167-2.666,1.467-3.116,2-3.45l0.6-0.3L3.05-3.8
				C3.417-3.766,3.566-3.416,3.5-2.75z"/>
		</g>
	</g>
</symbol>
<symbol  id="winderface1a" viewBox="0.015 -8.172 4.573 8.174">
	<g id="Layer_1_2_">
		
			<linearGradient id="SVGID_18_" gradientUnits="userSpaceOnUse" x1="-1922.7412" y1="-13815.2549" x2="-1913.569" y2="-13815.2549" gradientTransform="matrix(0.2726 -0.9621 0.9621 0.2726 13816.877 1916.7178)">
			<stop  offset="0" style="stop-color:#E8E8E8"/>
			<stop  offset="1" style="stop-color:#878787"/>
		</linearGradient>
		<path style="fill-rule:evenodd;clip-rule:evenodd;fill:url(#SVGID_18_);" d="M2.05-4.8c-0.566-0.133-0.867-0.483-0.9-1.05
			c-0.033-0.533,0.1-0.9,0.4-1.1c0.4-0.267,0.817-0.267,1.25,0C3.2-6.717,3.433-6.367,3.5-5.9c0.133,0.633,0,1-0.4,1.1L2.65-4.7
			L2.05-4.8z M0.05-1.25C0.183-0.45,0.6-0.033,1.3,0c1.367,0.033,2.333-0.633,2.9-2c0.5-1.233,0.517-2.05,0.05-2.45
			c0.467-0.5,0.45-1.3-0.05-2.4C3.633-8.05,2.667-8.433,1.3-8C0.6-7.733,0.183-7.183,0.05-6.35c-0.133,0.867,0.117,1.533,0.75,2
			L1.3-4L0.8-3.55C0.167-2.85-0.083-2.083,0.05-1.25z M3.5-2.75C3.433-2.25,3.2-1.833,2.8-1.5C2.367-1.1,1.95-0.967,1.55-1.1
			c-0.3-0.133-0.433-0.467-0.4-1c0.033-0.6,0.333-1.05,0.9-1.35l0.6-0.3L3.1-3.8C3.467-3.767,3.6-3.417,3.5-2.75z"/>
	</g>
</symbol>
<symbol  id="winderfacehighlight" viewBox="0.016 -8.173 4.573 8.174">
	<g id="Layer_1_3_">
		
			<linearGradient id="SVGID_19_" gradientUnits="userSpaceOnUse" x1="-1922.7412" y1="-13815.2549" x2="-1913.569" y2="-13815.2549" gradientTransform="matrix(0.2726 -0.9621 0.9621 0.2726 13816.877 1916.7178)">
			<stop  offset="0" style="stop-color:#E8E8E8"/>
			<stop  offset="1" style="stop-color:#EDEDED"/>
		</linearGradient>
		<path style="fill-rule:evenodd;clip-rule:evenodd;fill:url(#SVGID_19_);" d="M2.05-4.8c-0.567-0.133-0.867-0.483-0.9-1.05
			c-0.033-0.533,0.1-0.9,0.4-1.1c0.4-0.267,0.817-0.267,1.25,0C3.2-6.717,3.434-6.367,3.5-5.9c0.1,0.6-0.034,0.967-0.4,1.1L2.65-4.7
			L2.05-4.8z M0.05-1.25C0.184-0.45,0.601-0.034,1.3,0c1.367,0.034,2.333-0.633,2.9-2c0.5-1.233,0.517-2.05,0.05-2.45
			c0.466-0.5,0.45-1.3-0.05-2.4C3.634-8.05,2.667-8.434,1.3-8c-0.7,0.267-1.117,0.817-1.25,1.65c-0.133,0.867,0.117,1.534,0.75,2
			L1.3-4L0.8-3.55C0.167-2.851-0.083-2.084,0.05-1.25z M1.55-1.101c-0.3-0.133-0.433-0.466-0.4-1c0.033-0.6,0.333-1.05,0.9-1.35
			l0.6-0.3l0.45-0.05c0.366,0.033,0.5,0.383,0.4,1.05C3.434-2.25,3.2-1.834,2.8-1.5C2.367-1.101,1.95-0.967,1.55-1.101z"/>
	</g>
</symbol>
<use xlink:href="#cubimal_x5F_mc"  width="32.644" height="25.363" id="cubimal" x="-0.385" y="-25.864" transform="matrix(1 0 0 -1 0.3999 -0.5)" style="overflow:visible;"/>
</svg>
