<?xml version="1.0" encoding="iso-8859-1"?>
<!-- Generator: Adobe Illustrator 15.1.0, SVG Export Plug-In . SVG Version: 6.00 Build 0)  -->
<!DOCTYPE svg PUBLIC "-//W3C//DTD SVG 1.1//EN" "http://www.w3.org/Graphics/SVG/1.1/DTD/svg11.dtd">
<svg version="1.1" id="flash0.ai" xmlns="http://www.w3.org/2000/svg" xmlns:xlink="http://www.w3.org/1999/xlink" x="0px" y="0px"
	 width="35px" height="33.8px" viewBox="0 0 35 33.8" style="enable-background:new 0 0 35 33.8;" xml:space="preserve">
<symbol  id="cubimal_1_" viewBox="-1.7 -27.05 30.7 33.8">
	<g id="Layer_1_5_">
		<g>
			<path style="fill-rule:evenodd;clip-rule:evenodd;fill:#65608B;" d="M22.65,0.05c0.9,1.133,1.767,1.85,2.6,2.15l2,0.75l-0.85-3
				c-0.5-2.133-0.683-3.533-0.55-4.2c0.267-1.034,0.066-1.883-0.6-2.55L28-6.55h1c-0.533-0.5-1.05-1.116-1.55-1.85
				c-1.034-1.467-1.483-2.8-1.35-4c0.2-1.934,0.2-3.067,0-3.4l2.65-1l-3.55-1.15l-3.7,16.4L22.65,0.05z"/>
			
				<linearGradient id="SVGID_1_" gradientUnits="userSpaceOnUse" x1="9682.0039" y1="-19612.0586" x2="9688.2988" y2="-19612.0586" gradientTransform="matrix(-0.7942 -0.6076 0.6076 -0.7942 19635.0625 -9700.8438)">
				<stop  offset="0" style="stop-color:#C4928A"/>
				<stop  offset="1" style="stop-color:#68534F"/>
			</linearGradient>
			<path style="fill-rule:evenodd;clip-rule:evenodd;fill:url(#SVGID_1_);" d="M23.45-2.1c0.433,0.4,1.1,0.95,2,1.65
				c0.1-0.7,0.117-1.5,0.05-2.4c-0.033-0.333-0.133-0.816-0.3-1.45c-0.2-0.633-0.317-1.1-0.35-1.4c-0.067-0.5-0.017-0.816,0.15-0.95
				c0.1-0.067,0.433-0.1,1-0.1h1.6c0.133-0.6-0.067-1.3-0.6-2.1c-0.7-0.833-1.183-1.417-1.45-1.75c-0.6-0.7-0.9-1.383-0.9-2.05
				c0-0.5,0.067-0.884,0.2-1.15c0-0.033,0.2-0.333,0.6-0.9c0.133-0.2,0.283-0.45,0.45-0.75c0.133-0.267,0.333-0.466,0.6-0.6
				c0.133-0.066,0.333-0.15,0.6-0.25c0.167-0.1,0.233-0.283,0.2-0.55c-0.066-0.733-1.267-1.066-3.6-1c-2.567,0.2-4.083,0.3-4.55,0.3
				l2.65,13.65L22.1-4c0.133,0.2,0.333,0.517,0.6,0.95C22.933-2.649,23.183-2.333,23.45-2.1z"/>
			
				<linearGradient id="SVGID_2_" gradientUnits="userSpaceOnUse" x1="-2106.083" y1="-13438.709" x2="-2086.9346" y2="-13438.709" gradientTransform="matrix(0.3068 -0.9518 0.9518 0.3068 13447.5332 2113.9092)">
				<stop  offset="0" style="stop-color:#B39CC4"/>
				<stop  offset="1" style="stop-color:#665363"/>
			</linearGradient>
			<path style="fill-rule:evenodd;clip-rule:evenodd;fill:url(#SVGID_2_);" d="M22.5-2.2c1.133,0,1.983-0.216,2.55-0.65
				c0.367-0.333,0.633-0.8,0.8-1.4c0.167-0.534,0.25-4.383,0.25-11.55c0-0.366,0-0.85,0-1.45c-0.033-0.5-0.184-0.95-0.45-1.35
				c-0.267-0.434-1.183-1.184-2.75-2.25c-1.333-0.934-2.3-1.566-2.9-1.9c-1.633-0.934-2.9-1.4-3.8-1.4
				c-2.434,0.3-4.284,0.45-5.55,0.45c-0.8,0.034-2.25,0.2-4.35,0.5c-2.133,0.3-3.4,0.483-3.8,0.55c-0.667,0.133-1.133,0.433-1.4,0.9
				c-0.333,0.667-0.517,2.017-0.55,4.05c-0.167,3.233-0.25,5.6-0.25,7.1c0.034,2.667,0.417,4.25,1.15,4.75
				c0.9,0.633,2.433,1.533,4.6,2.7c2.534,1.4,4.167,2.116,4.9,2.15c0.9,0.033,2.833-0.15,5.8-0.55C19.85-1.983,21.767-2.2,22.5-2.2z
				"/>
			
				<linearGradient id="SVGID_3_" gradientUnits="userSpaceOnUse" x1="-2368.8701" y1="-12873.7129" x2="-2351.8723" y2="-12873.7129" gradientTransform="matrix(0.3574 -0.934 0.934 0.3574 12888.2881 2381.8057)">
				<stop  offset="0" style="stop-color:#B994B0"/>
				<stop  offset="1" style="stop-color:#705A6B"/>
			</linearGradient>
			<path style="fill-rule:evenodd;clip-rule:evenodd;fill:url(#SVGID_3_);" d="M25.85-4.25c0.066-0.2,0.133-1.067,0.2-2.6l0.05-8.95
				c0-0.366,0-0.85,0-1.45c-0.033-0.5-0.184-0.95-0.45-1.35c-0.267-0.434-1.183-1.184-2.75-2.25c-1.333-0.934-2.3-1.566-2.9-1.9
				c-0.3-0.167-0.933-0.434-1.9-0.8c-0.967-0.366-1.6-0.566-1.9-0.6c0.333,0.667,0.483,1.383,0.45,2.15l-0.1,14l0.1,0.15
				c0.167,0.167,1.083,0.667,2.75,1.5c1.8,0.867,2.967,1.483,3.5,1.85c1.4,0.9,2.15,1.4,2.25,1.5
				C25.517-3.366,25.75-3.783,25.85-4.25z"/>
			<path style="fill-rule:evenodd;clip-rule:evenodd;fill:#9C8DAD;" d="M23.65-4.2c-0.5-0.3-1.8-0.966-3.9-2
				c-1.867-0.9-2.9-1.45-3.1-1.65c-0.867,0.066-3.767,0.367-8.7,0.9c-3.733,0.4-6.067,0.567-7,0.5c0.167,0.267,0.333,0.467,0.5,0.6
				c0.9,0.633,2.433,1.533,4.6,2.7c2.534,1.4,4.167,2.116,4.9,2.15c2.267,0.1,6.117-0.3,11.55-1.2c1.433-0.2,2.317-0.466,2.65-0.8
				C24.717-3.433,24.217-3.833,23.65-4.2z"/>
			<path style="fill-rule:evenodd;clip-rule:evenodd;fill:#DEBFE4;" d="M25.15-3c-0.066-0.4-1.433-1.333-4.1-2.8
				c-2.7-1.5-4.083-2.417-4.15-2.75c-0.066-0.366-0.066-4.517,0-12.45c-0.066-1.7-0.3-2.75-0.7-3.15l0.2,0.6
				c0.067,0.3,0.083,2.3,0.05,6c-0.034,3.667-0.083,6.034-0.15,7.1c-0.066,1.167-0.117,1.8-0.15,1.9c-0.066,0.2-0.25,0.333-0.55,0.4
				c-0.367,0.1-3.217,0.417-8.55,0.95C6.25-7.133,5-6.95,3.3-6.649L1-6.2L8.6-7c1.367-0.167,2.983-0.317,4.85-0.45
				c1.833-0.133,2.883-0.167,3.15-0.1c0.333,0.034,1.633,0.65,3.9,1.85C21.933-4.933,23.483-4.033,25.15-3z"/>
			<g>
				<path style="fill-rule:evenodd;clip-rule:evenodd;fill:#423247;" d="M25.15-12.6l0.7,0.55L26-12.2c0.2-0.1,0.483-0.167,0.85-0.2
					c0.4-0.034,0.6-0.184,0.6-0.45c0-0.233-0.083-0.417-0.25-0.55l-1.1-0.25l0.35-0.25c0.267-0.167,0.55-0.267,0.85-0.3
					c0.333-0.033,0.417-0.2,0.25-0.5c-0.167-0.3-0.417-0.45-0.75-0.45c-0.3,0-0.6,0.1-0.9,0.3l-0.35,0.3l0.3-0.5
					c0.133-0.3,0.217-0.65,0.25-1.05c0-0.467-0.117-0.7-0.35-0.7c-0.2,0-0.35,0.134-0.45,0.4c0,0.033-0.05,0.316-0.15,0.85
					l-0.25,1.2L25.15-12.6z"/>
				<g>
					<path style="fill-rule:evenodd;clip-rule:evenodd;fill:#4C3D4C;" d="M26.5-11.8c0-0.833-0.15-1.55-0.45-2.15
						c-0.3-0.633-0.667-0.983-1.1-1.05c-0.434-0.067-0.8,0.183-1.1,0.75c-0.3,0.533-0.45,1.216-0.45,2.05c0,0.8,0.15,1.5,0.45,2.1
						c0.3,0.633,0.667,0.983,1.1,1.05c0.433,0.034,0.8-0.216,1.1-0.75C26.35-10.333,26.5-11,26.5-11.8z"/>
					
						<radialGradient id="SVGID_4_" cx="-45.6328" cy="995.2227" r="4.0607" gradientTransform="matrix(0.9912 0.1324 0 -0.788 71.9316 778.8125)" gradientUnits="userSpaceOnUse">
						<stop  offset="0" style="stop-color:#F8E6E5"/>
						<stop  offset="0.1451" style="stop-color:#F3E2E1"/>
						<stop  offset="0.3216" style="stop-color:#E5D4D4"/>
						<stop  offset="0.5098" style="stop-color:#CDBFBE"/>
						<stop  offset="0.7098" style="stop-color:#ACA0A0"/>
						<stop  offset="0.9176" style="stop-color:#827A79"/>
						<stop  offset="1" style="stop-color:#706868"/>
					</radialGradient>
					<path style="fill-rule:evenodd;clip-rule:evenodd;fill:url(#SVGID_4_);" d="M27-11.649c0-0.7-0.15-1.3-0.45-1.8
						c-0.333-0.566-0.716-0.867-1.15-0.9c-0.433-0.066-0.8,0.133-1.1,0.6c-0.3,0.433-0.45,1-0.45,1.7c0,0.667,0.15,1.267,0.45,1.8
						c0.3,0.5,0.667,0.783,1.1,0.85c0.434,0.066,0.817-0.117,1.15-0.55C26.85-10.416,27-10.983,27-11.649z"/>
				</g>
				
					<radialGradient id="SVGID_5_" cx="26.4502" cy="-11.9497" r="2.35" gradientTransform="matrix(1 0 0 -1.1383 0 -25.5522)" gradientUnits="userSpaceOnUse">
					<stop  offset="0" style="stop-color:#543F5A"/>
					<stop  offset="1" style="stop-color:#251C28"/>
				</radialGradient>
				<path style="fill-rule:evenodd;clip-rule:evenodd;fill:url(#SVGID_5_);" d="M26.9-11.85c0-0.467-0.1-0.883-0.3-1.25
					c-0.233-0.333-0.5-0.517-0.8-0.55c-0.333-0.067-0.6,0.05-0.8,0.35c-0.233,0.3-0.35,0.684-0.35,1.15
					c0,0.433,0.117,0.816,0.35,1.15c0.2,0.333,0.467,0.533,0.8,0.6c0.3,0.033,0.567-0.083,0.8-0.35
					C26.8-11.05,26.9-11.416,26.9-11.85z"/>
			</g>
			<g>
				<path style="fill-rule:evenodd;clip-rule:evenodd;fill:#423247;" d="M16.75-11.85c0-0.6,0.45-0.983,1.35-1.15l-0.45-2.95
					L16.9-16.7c-0.233-0.2-0.667-0.267-1.3-0.2c-0.633,0.033-1.167,0.167-1.6,0.4c-0.433,0.2-0.483,0.433-0.15,0.7
					c0.3,0.267,0.683,0.333,1.15,0.2c0.6-0.167,1.217-0.033,1.85,0.4H15.9c-0.933,0-1.65,0.317-2.15,0.95
					c-0.367,0.433-0.35,0.767,0.05,1c0.4,0.233,0.8,0.167,1.2-0.2c0.5-0.433,1.3-0.683,2.4-0.75l-0.9,0.7
					c-0.767,0.533-1.183,1.216-1.25,2.05c-0.033,0.567,0.2,0.75,0.7,0.55C16.483-11.066,16.75-11.383,16.75-11.85z"/>
				<g>
					<path style="fill-rule:evenodd;clip-rule:evenodd;fill:#4C3D4C;" d="M21.65-15.149c0-0.967-0.25-1.8-0.75-2.5
						c-0.5-0.667-1.1-1-1.8-1c-0.7,0-1.3,0.333-1.8,1c-0.5,0.7-0.75,1.533-0.75,2.5c0,0.966,0.25,1.8,0.75,2.5
						c0.5,0.667,1.1,1,1.8,1c0.7,0,1.3-0.333,1.8-1C21.4-13.35,21.65-14.183,21.65-15.149z"/>
					
						<radialGradient id="SVGID_6_" cx="19.3999" cy="-14.8994" r="3.1375" gradientTransform="matrix(1 0 0 -0.9402 0 -28.9087)" gradientUnits="userSpaceOnUse">
						<stop  offset="0" style="stop-color:#F8E6E5"/>
						<stop  offset="0.1451" style="stop-color:#F3E2E1"/>
						<stop  offset="0.3216" style="stop-color:#E5D4D4"/>
						<stop  offset="0.5098" style="stop-color:#CDBFBE"/>
						<stop  offset="0.7098" style="stop-color:#ACA0A0"/>
						<stop  offset="0.9176" style="stop-color:#827A79"/>
						<stop  offset="1" style="stop-color:#706868"/>
					</radialGradient>
					<path style="fill-rule:evenodd;clip-rule:evenodd;fill:url(#SVGID_6_);" d="M21.5-15.3c0-0.833-0.233-1.55-0.7-2.15
						c-0.466-0.6-1.017-0.9-1.65-0.9s-1.167,0.3-1.6,0.9c-0.466,0.6-0.7,1.317-0.7,2.15c0,0.833,0.233,1.55,0.7,2.15
						c0.434,0.6,0.967,0.9,1.6,0.9c0.667,0,1.217-0.3,1.65-0.9C21.267-13.75,21.5-14.466,21.5-15.3z"/>
				</g>
				
					<radialGradient id="SVGID_7_" cx="20.25" cy="-15.1494" r="2.2125" gradientTransform="matrix(1 0 0 -0.9435 0 -29.4429)" gradientUnits="userSpaceOnUse">
					<stop  offset="0" style="stop-color:#543F5A"/>
					<stop  offset="1" style="stop-color:#251C28"/>
				</radialGradient>
				<path style="fill-rule:evenodd;clip-rule:evenodd;fill:url(#SVGID_7_);" d="M19.65-13.35c0.367,0,0.7-0.2,1-0.6
					c0.267-0.4,0.4-0.867,0.4-1.4s-0.133-1-0.4-1.4c-0.3-0.4-0.633-0.6-1-0.6c-0.4,0-0.733,0.2-1,0.6
					c-0.3,0.367-0.45,0.833-0.45,1.4c0,0.533,0.15,1,0.45,1.4C18.917-13.55,19.25-13.35,19.65-13.35z M19.95-14.35
					c-0.167,0-0.333-0.1-0.5-0.3c-0.133-0.2-0.2-0.434-0.2-0.7s0.067-0.5,0.2-0.7c0.167-0.2,0.333-0.3,0.5-0.3
					c0.466,0,0.7,0.333,0.7,1S20.417-14.35,19.95-14.35z"/>
			</g>
			<path style="fill-rule:evenodd;clip-rule:evenodd;fill:#D3C3C2;" d="M26.1-15.8c0-0.366,0-0.85,0-1.45
				c-0.033-0.5-0.184-0.95-0.45-1.35c-0.267-0.434-1.183-1.184-2.75-2.25c-1.333-0.934-2.3-1.566-2.9-1.9
				c-1.633-0.934-2.9-1.4-3.8-1.4l-0.55,0.05c0.367,0.367,0.633,0.684,0.8,0.95c0.533,0.767,0.667,1.533,0.4,2.3l0.65,0.1l0.05,0.05
				c0.4,0.034,0.8,0.184,1.2,0.45c1.633,1.066,4.083,2.683,7.35,4.85V-15.8z"/>
			<g>
				<polygon style="fill-rule:evenodd;clip-rule:evenodd;fill:#978C8B;" points="16.7,-22.649 18.4,-21.8 18.4,-22.399 
					16.45,-23.149 				"/>
				<polygon style="fill-rule:evenodd;clip-rule:evenodd;fill:#978C8B;" points="18.85,-22.2 18.85,-21.55 20.8,-20.5 20.75,-21.1 
									"/>
				<polygon style="fill-rule:evenodd;clip-rule:evenodd;fill:#978C8B;" points="21.25,-20.2 22.9,-19.149 22.9,-19.7 21.2,-20.8 
					21.25,-20.3 				"/>
				<polygon style="fill-rule:evenodd;clip-rule:evenodd;fill:#978C8B;" points="25.2,-17.95 25.25,-17.649 25.25,-17.45 
					26.1,-16.649 26.1,-17.25 				"/>
				<polygon style="fill-rule:evenodd;clip-rule:evenodd;fill:#978C8B;" points="23.35,-18.85 24.8,-17.8 24.8,-18.3 23.35,-19.35 
									"/>
				<polygon style="fill-rule:evenodd;clip-rule:evenodd;fill:#978C8B;" points="18.45,-20.399 18.75,-20.25 18.85,-20.149 
					18.85,-23.3 18.45,-23.5 				"/>
				<polygon style="fill-rule:evenodd;clip-rule:evenodd;fill:#978C8B;" points="21.25,-18.6 21.25,-20.3 21.2,-20.8 21.25,-22 
					20.85,-22.3 20.75,-21.1 20.85,-18.85 				"/>
				<polygon style="fill-rule:evenodd;clip-rule:evenodd;fill:#978C8B;" points="22.95,-17.45 23.35,-17.2 23.4,-20.55 
					22.95,-20.85 				"/>
				<polygon style="fill-rule:evenodd;clip-rule:evenodd;fill:#978C8B;" points="25.25,-16 25.25,-17.649 25.2,-17.95 25.25,-19.05 
					24.8,-19.45 24.85,-16.25 				"/>
			</g>
			<path style="fill-rule:evenodd;clip-rule:evenodd;fill:#F9ECEB;" d="M16.5-20.8h0.6c-0.033-0.2-0.067-0.5-0.1-0.9
				c-0.033-0.367-0.133-0.683-0.3-0.95c-0.167-0.4-0.317-0.7-0.45-0.9c-0.2-0.4-0.4-0.583-0.6-0.55c0.167,0.2,0.3,0.467,0.4,0.8
				c0.067,0.4,0.133,0.717,0.2,0.95C16.417-21.45,16.5-20.933,16.5-20.8z"/>
			<path style="fill-rule:evenodd;clip-rule:evenodd;fill:#423247;" d="M14.3-0.899c1.2-0.034,2.767-0.167,4.7-0.4
				c1.767-0.167,3.383-0.517,4.85-1.05c0.733-0.233,1.283-0.467,1.65-0.7c-0.833-1.933-1.633-3.566-2.4-4.9
				c-0.533-0.966-1.25-1.4-2.15-1.3c-0.567,0.033-1.5,0.383-2.8,1.05c-0.833,0.4-2.316,0.717-4.45,0.95L1-6.2l2.25,1.65
				C5.083-3.35,6.833-2.433,8.5-1.8C10.2-1.166,12.133-0.866,14.3-0.899z"/>
			<path style="fill-rule:evenodd;clip-rule:evenodd;fill:#423247;" d="M25.75-3.5l0.15-0.3c0.1-0.3,0.167-0.716,0.2-1.25
				c0.066-0.667-0.3-1.767-1.1-3.3c-0.867-1.6-1.667-2.533-2.4-2.8c-0.7-0.267-1.667-0.267-2.9,0c-1.034,0.233-2.05,0.6-3.05,1.1
				c-0.633,0.3-1.65,0.517-3.05,0.65c-1.5,0.1-2.45,0.216-2.85,0.35c-0.633,0.2-1.117,0.434-1.45,0.7L9-8.05l1.25,0.6
				c2.7,0,4.8-0.283,6.3-0.85c0.1-0.033,1.067-0.517,2.9-1.45c1.1-0.534,1.917-0.717,2.45-0.55c0.9,0.233,1.967,2.017,3.2,5.35
				L25.75-3.5z"/>
			<path style="fill-rule:evenodd;clip-rule:evenodd;fill:#5E4765;" d="M20.85-5.3c-1-0.533-1.717-0.917-2.15-1.15
				C17.967-6.883,17.4-7.333,17-7.8c-1,0.267-2.333,0.467-4,0.6l-12,1l2.25,1.65C5.083-3.35,6.833-2.433,8.5-1.8
				c1.7,0.634,3.633,0.934,5.8,0.9c1.2-0.034,2.767-0.167,4.7-0.4c2.3-0.233,4.4-0.783,6.3-1.65L20.85-5.3z"/>
			<path style="fill-rule:evenodd;clip-rule:evenodd;fill:#5E4765;" d="M16.6-8.35c-0.2-0.3-0.383-0.8-0.55-1.5
				c-0.6,0.2-1.533,0.35-2.8,0.45c-1.267,0.1-2.1,0.216-2.5,0.35c-0.633,0.2-1.117,0.434-1.45,0.7L9-8.05l1.25,0.6
				c2.7,0,4.8-0.283,6.3-0.85L16.6-8.35z"/>
			<g>
				<path style="fill-rule:evenodd;clip-rule:evenodd;fill:#493C54;" d="M13-11.35c0.033-0.467-0.067-0.934-0.3-1.4
					c-0.1-0.167-0.233-0.333-0.4-0.5c-0.267-0.2-0.433-0.35-0.5-0.45c-0.233-0.267-0.3-0.633-0.2-1.1c0.133-0.767,0.2-1.167,0.2-1.2
					c0-0.4,0-0.95,0-1.65c0.034-0.6,0.2-1.1,0.5-1.5c0.9-1.2,1.467-2.217,1.7-3.05c0.4-1.333-0.15-2-1.65-2
					c-1.4,0-2.533,1.017-3.4,3.05c-0.133,0.733-0.267,1.283-0.4,1.65c-0.4,1.1-0.633,1.933-0.7,2.5c-0.3,2.033-0.15,4.783,0.45,8.25
					h3.5C12.367-9.25,12.767-10.116,13-11.35z"/>
				<path style="fill-rule:evenodd;clip-rule:evenodd;fill:#352B3D;" d="M14.55-4.25c2.367,1.2,4.367,1.867,6,2
					c0.6,0.066,1,0.066,1.2,0c0.367-0.133,0.5-0.467,0.4-1c-0.167-0.667-0.617-1.05-1.35-1.15c-0.3-0.067-0.983-0.067-2.05,0
					c-0.867,0.033-1.533-0.067-2-0.3c-0.267-0.133-0.583-0.433-0.95-0.9s-0.7-0.783-1-0.95c-0.433-0.233-0.767-0.4-1-0.5
					c-0.367-0.2-0.7-0.316-1-0.35c-0.5,0-0.883-0.017-1.15-0.05c0-0.1,0.017-0.433,0.05-1c0.033-0.433-0.034-0.75-0.2-0.95
					c-0.233-0.3-0.533-0.4-0.9-0.3c-0.434,0.133-0.75,0.233-0.95,0.3l1.15,2C11.167-6.366,12.417-5.316,14.55-4.25z"/>
			</g>
			<g>
				
					<linearGradient id="SVGID_8_" gradientUnits="userSpaceOnUse" x1="-2212.1846" y1="-13244.5762" x2="-2200.3967" y2="-13244.5762" gradientTransform="matrix(0.3245 -0.9459 0.9459 0.3245 13254.9697 2210.333)">
					<stop  offset="0" style="stop-color:#9E7BB7"/>
					<stop  offset="1" style="stop-color:#4E404C"/>
				</linearGradient>
				<path style="fill-rule:evenodd;clip-rule:evenodd;fill:url(#SVGID_8_);" d="M16.45-4.35c-0.667-0.6-1.383-1.017-2.15-1.25
					c-0.466-0.167-1.017-0.5-1.65-1L11.8-7.3c-0.533,0.167-1.117,0.467-1.75,0.9c-1.233,0.833-2.066,1.883-2.5,3.15
					C7.117-2.016,7.3-0.399,8.1,1.601l1.3,2.6l4.05-2.25c1.333-0.7,2.233-1.966,2.7-3.8C16.383-2.75,16.483-3.583,16.45-4.35z"/>
				<linearGradient id="SVGID_9_" gradientUnits="userSpaceOnUse" x1="-1.6748" y1="-9.8081" x2="12.2754" y2="-9.8081">
					<stop  offset="0" style="stop-color:#8D6383"/>
					<stop  offset="1" style="stop-color:#564551"/>
				</linearGradient>
				<path style="fill-rule:evenodd;clip-rule:evenodd;fill:url(#SVGID_9_);" d="M9.9-6.25c0.967-0.667,1.75-1.383,2.35-2.15
					c-0.267-2-0.5-3.267-0.7-3.8c-0.2-0.533-0.6-1.1-1.2-1.7l-1.3-0.55c-0.733-0.3-1.8-0.233-3.2,0.2
					c-1.6,0.466-3.033,1.283-4.3,2.45c-1.133,1.034-2.017,2-2.65,2.9l-0.6,1.05l6.1,2.5C6.133-4.649,7.967-4.95,9.9-6.25z"/>
				<linearGradient id="SVGID_10_" gradientUnits="userSpaceOnUse" x1="-1.2627" y1="-18.5352" x2="10.8623" y2="-18.5352">
					<stop  offset="0" style="stop-color:#A56C68"/>
					<stop  offset="1" style="stop-color:#624949"/>
				</linearGradient>
				<path style="fill-rule:evenodd;clip-rule:evenodd;fill:url(#SVGID_10_);" d="M10.25-14.55l0.6-4.7
					c-0.067-0.534-0.317-1.083-0.75-1.65c-0.9-1.134-2.267-1.767-4.1-1.9c-1.867-0.133-3.633,0.367-5.3,1.5l-1.95,1.75l0.8,0.7
					c0.7,0.733,1.517,1.667,2.45,2.8c0.933,1.134,2.583,1.733,4.95,1.8C8.15-14.25,9.25-14.35,10.25-14.55z"/>
				
					<linearGradient id="SVGID_11_" gradientUnits="userSpaceOnUse" x1="10141.5869" y1="3192.1289" x2="10149.1055" y2="3192.1289" gradientTransform="matrix(0.5752 0.818 -0.818 0.5752 -3214.627 -10159.3506)">
					<stop  offset="0" style="stop-color:#725688"/>
					<stop  offset="1" style="stop-color:#473158"/>
				</linearGradient>
				<path style="fill-rule:evenodd;clip-rule:evenodd;fill:url(#SVGID_11_);" d="M11.15-19.25l0.5-0.45c0.4-0.466,0.733-1.066,1-1.8
					c0.434-1.133,0.867-1.667,1.3-1.6c-0.434-1.167-1.15-2.133-2.15-2.9c-0.733-0.6-1.667-0.95-2.8-1.05H7.55L7.7-25
					c0.1,0.8,0.7,2,1.8,3.6C10.067-20.6,10.617-19.883,11.15-19.25z"/>
				
					<linearGradient id="SVGID_12_" gradientUnits="userSpaceOnUse" x1="2.0659" y1="-16329.0996" x2="11.0409" y2="-16329.0996" gradientTransform="matrix(1.114206e-004 -1 1 -0.001 16349.0898 -8.1748)">
					<stop  offset="0" style="stop-color:#B994B0"/>
					<stop  offset="1" style="stop-color:#564551"/>
				</linearGradient>
				<path style="fill-rule:evenodd;clip-rule:evenodd;fill:url(#SVGID_12_);" d="M19.3,4.75c0.733,0.767,1.417,1.433,2.05,2
					l1.6-2.95c0.533-0.966,0.55-2.3,0.05-4c-0.233-0.867-0.533-1.633-0.9-2.3c-0.733-0.367-1.4-0.583-2-0.65
					c-0.367-0.034-0.867-0.2-1.5-0.5l-0.85-0.4c-0.267,0.267-0.517,0.667-0.75,1.2c-0.433,1.033-0.5,2.167-0.2,3.4
					C17.067,1.75,17.9,3.15,19.3,4.75z"/>
				
					<linearGradient id="SVGID_13_" gradientUnits="userSpaceOnUse" x1="5.9146" y1="-16327.8438" x2="10.9896" y2="-16327.8438" gradientTransform="matrix(1.970444e-004 -1 1 -0.001 16348.3906 -8.1748)">
					<stop  offset="0" style="stop-color:#C4928A"/>
					<stop  offset="1" style="stop-color:#68534F"/>
				</linearGradient>
				<path style="fill-rule:evenodd;clip-rule:evenodd;fill:url(#SVGID_13_);" d="M21.75-2.649C21.317-2.85,20.933-2.966,20.6-3
					l-1.35-0.5c-0.6,0.6-0.783,1.466-0.55,2.6c0.167,0.7,0.65,1.483,1.45,2.35c0.4,0.467,0.783,0.85,1.15,1.15l0.9-1.65
					C22.7,0.084,22.55-1.116,21.75-2.649z"/>
				
					<linearGradient id="SVGID_14_" gradientUnits="userSpaceOnUse" x1="-2206.1748" y1="-13244.7275" x2="-2199.7788" y2="-13244.7275" gradientTransform="matrix(0.3244 -0.9459 0.9459 0.3244 13255.6582 2209.9961)">
					<stop  offset="0" style="stop-color:#C4928A"/>
					<stop  offset="1" style="stop-color:#68534F"/>
				</linearGradient>
				<path style="fill-rule:evenodd;clip-rule:evenodd;fill:url(#SVGID_14_);" d="M15.5-5.2c-0.4-0.333-0.8-0.566-1.2-0.7
					c-0.233-0.1-0.533-0.284-0.9-0.55L12.95-6.8c-1.167,0.367-1.934,1.1-2.3,2.2c-0.233,0.7-0.133,1.583,0.3,2.65l0.7,1.4l2.2-1.2
					c0.733-0.4,1.233-1.1,1.5-2.1C15.483-4.35,15.533-4.8,15.5-5.2z"/>
				<linearGradient id="SVGID_15_" gradientUnits="userSpaceOnUse" x1="4" y1="-10.3491" x2="12.1001" y2="-10.3491">
					<stop  offset="0" style="stop-color:#C4928A"/>
					<stop  offset="1" style="stop-color:#68534F"/>
				</linearGradient>
				<path style="fill-rule:evenodd;clip-rule:evenodd;fill:url(#SVGID_15_);" d="M7.5-7.75c1.033,0.4,2.1,0.216,3.2-0.55
					c0.566-0.366,1.033-0.783,1.4-1.25l-0.4-2.2c-0.133-0.3-0.367-0.633-0.7-1l-0.75-0.3c-0.433-0.167-1.067-0.133-1.9,0.1
					c-0.934,0.3-1.767,0.784-2.5,1.45c-0.667,0.566-1.167,1.117-1.5,1.65L4-9.25L7.5-7.75z"/>
				<linearGradient id="SVGID_16_" gradientUnits="userSpaceOnUse" x1="3.7373" y1="-18.4292" x2="10.3623" y2="-18.4292">
					<stop  offset="0" style="stop-color:#C4928A"/>
					<stop  offset="1" style="stop-color:#68534F"/>
				</linearGradient>
				<path style="fill-rule:evenodd;clip-rule:evenodd;fill:url(#SVGID_16_);" d="M10-16.25l0.35-2.55c-0.033-0.3-0.167-0.6-0.4-0.9
					c-0.5-0.633-1.25-0.983-2.25-1.05c-1.034-0.067-2,0.216-2.9,0.85l-1.05,0.95l1.75,1.9c0.533,0.634,1.433,0.95,2.7,0.95
					C8.867-16.1,9.467-16.149,10-16.25z"/>
				
					<linearGradient id="SVGID_17_" gradientUnits="userSpaceOnUse" x1="10163.8301" y1="3188.5078" x2="10167.707" y2="3188.5078" gradientTransform="matrix(0.5739 0.8189 -0.8189 0.5739 -3211.334 -10178.1514)">
					<stop  offset="0" style="stop-color:#C4928A"/>
					<stop  offset="1" style="stop-color:#68534F"/>
				</linearGradient>
				<path style="fill-rule:evenodd;clip-rule:evenodd;fill:url(#SVGID_17_);" d="M12-20.6l0.25-0.25
					c0.233-0.233,0.417-0.533,0.55-0.9c0.233-0.6,0.45-0.883,0.65-0.85c-0.233-0.566-0.6-1.066-1.1-1.5
					c-0.367-0.3-0.85-0.483-1.45-0.55h-0.75l0.1,1.1c0.033,0.4,0.333,1.017,0.9,1.85C11.45-21.3,11.733-20.933,12-20.6z"/>
			</g>
			<g>
				<path style="fill-rule:evenodd;clip-rule:evenodd;fill:#9F8778;" d="M14.6-7h-0.05l-0.5,0.05c-0.133,0-0.2,0.1-0.2,0.3
					c0,0.133,0.1,0.2,0.3,0.2L14.6-6.5c0.167,0,0.25-0.1,0.25-0.3C14.85-6.933,14.767-7,14.6-7z"/>
				<path style="fill-rule:evenodd;clip-rule:evenodd;fill:#9F8778;" d="M15.3-6.85c0.034,0.133,0.133,0.2,0.3,0.2l0.95-0.15
					c0.167,0,0.25-0.083,0.25-0.25c-0.066-0.167-0.15-0.25-0.25-0.25L16.5-7.25l-0.95,0.1C15.383-7.083,15.3-6.983,15.3-6.85z
					 M17.25-7.149c0.033,0.133,0.133,0.2,0.3,0.2L18.5-7.2c0.167-0.066,0.217-0.183,0.15-0.35c0-0.1-0.066-0.15-0.2-0.15h-0.1
					l-0.9,0.25C17.283-7.383,17.217-7.283,17.25-7.149z M24-4.6c0.167-0.1,0.2-0.2,0.1-0.3l-0.4-0.9c-0.034-0.1-0.1-0.15-0.2-0.15
					l-0.1,0.05c-0.167,0.066-0.217,0.167-0.15,0.3l0.4,0.9C23.717-4.566,23.833-4.533,24-4.6z M19.45-7.7l0.8-0.4
					c0.133-0.1,0.183-0.217,0.15-0.35c-0.033-0.1-0.117-0.15-0.25-0.15h-0.1L19.2-8.1c-0.167,0.066-0.2,0.184-0.1,0.35
					C19.167-7.616,19.283-7.6,19.45-7.7z M23.25-6.7L22.8-7.55c-0.033-0.1-0.117-0.15-0.25-0.15l-0.1,0.05
					c-0.133,0.1-0.167,0.216-0.1,0.35l0.5,0.85c0.066,0.133,0.167,0.167,0.3,0.1C23.317-6.416,23.35-6.533,23.25-6.7z M22.15-8.399
					c-0.267-0.267-0.617-0.4-1.05-0.4c-0.167,0-0.25,0.067-0.25,0.2s0.083,0.233,0.25,0.3c0.3,0,0.533,0.083,0.7,0.25
					c0.133,0.134,0.267,0.134,0.4,0C22.267-8.183,22.25-8.3,22.15-8.399z"/>
				<path style="fill-rule:evenodd;clip-rule:evenodd;fill:#9F8778;" d="M24.1-3.05l0.45-0.15l0.15-0.15
					c0.066-0.066,0.066-0.133,0-0.2L24.5-4c0-0.1-0.067-0.15-0.2-0.15h-0.1c-0.167,0.066-0.217,0.183-0.15,0.35l0.1,0.2L23.9-3.5
					c-0.133,0.066-0.183,0.167-0.15,0.3C23.817-3.033,23.933-2.983,24.1-3.05z"/>
				<path style="fill-rule:evenodd;clip-rule:evenodd;fill:#9F8778;" d="M23.2-3.25h-0.1l-0.45,0.2
					c-0.167,0.067-0.217,0.167-0.15,0.3c0.067,0.167,0.167,0.216,0.3,0.15l0.5-0.15c0.167-0.067,0.217-0.184,0.15-0.35
					C23.417-3.2,23.333-3.25,23.2-3.25z"/>
			</g>
		</g>
	</g>
</symbol>
<symbol  id="cubimal_x5F_mc" viewBox="-0.385 -27 34.985 33.8">
	<g id="Layer_5_1_">
	</g>
	<g id="Layer_4_2_">
	</g>
	<g id="Layer_2_copy_2_">
	</g>
	<g id="Layer_2_2_">
	</g>
	<g id="Layer_1_9_">
		
			<use xlink:href="#cubimal_x5F_scene1"  width="34.985" height="33.8" x="0.015" y="-27.05" transform="matrix(1 0 0 1 -0.3999 0.0498)" style="overflow:visible;"/>
	</g>
	<g id="Layer_6_1_">
	</g>
</symbol>
<symbol  id="cubimal_x5F_scene1" viewBox="0.015 -27.05 34.985 33.8">
	<g id="Layer_1_8_">
		
			<use xlink:href="#winder_x5F_static"  width="10.185" height="8.474" x="0.015" y="-8.472" transform="matrix(1 0 0 1 0 -7.9502)" style="overflow:visible;"/>
		
			<use xlink:href="#cubimal_1_"  width="30.7" height="33.8" x="-1.7" y="-27.05" transform="matrix(1 0 0 1 6 0)" style="overflow:visible;"/>
	</g>
</symbol>
<symbol  id="winder_x5F_static" viewBox="0.015 -8.472 10.185 8.474">
	<g id="Layer_4_1_">
		
			<use xlink:href="#winderedge"  width="4.537" height="8.127" x="0.015" y="-8.126" transform="matrix(1 0 0 1 0.7002 0)" style="overflow:visible;"/>
	</g>
	<g id="Layer_3_1_">
		
			<use xlink:href="#winderfacehighlight"  width="4.573" height="8.174" x="0.016" y="-8.173" transform="matrix(1 0 0 1 0.2002 -0.2002)" style="overflow:visible;"/>
	</g>
	<g id="Layer_2_copy_1_">
		
			<use xlink:href="#winderface1a"  width="4.573" height="8.174" x="0.015" y="-8.172" transform="matrix(1 0 0 1 0 -0.2998)" style="overflow:visible;"/>
	</g>
	<g id="Layer_1_7_">
		<g>
			
				<linearGradient id="SVGID_18_" gradientUnits="userSpaceOnUse" x1="1517.3516" y1="-17616.293" x2="1518.6709" y2="-17616.293" gradientTransform="matrix(-0.1705 -0.9854 0.9854 -0.1705 17624.416 -1513.9355)">
				<stop  offset="0" style="stop-color:#8F8F8F"/>
				<stop  offset="0.2275" style="stop-color:#E8E8E8"/>
				<stop  offset="1" style="stop-color:#696969"/>
			</linearGradient>
			<path style="fill-rule:evenodd;clip-rule:evenodd;fill:url(#SVGID_18_);" d="M10.2-6.3L4.8-5.5C4.5-5.533,4.351-5.366,4.351-5
				c0,0.233,0.083,0.4,0.25,0.5c0.066,0.066,0.133,0.1,0.2,0.1l5.4-0.8V-6.3z"/>
		</g>
	</g>
</symbol>
<symbol  id="winderedge" viewBox="0.015 -8.126 4.537 8.127">
	<g id="Layer_1_4_">
		<g>
			
				<linearGradient id="SVGID_19_" gradientUnits="userSpaceOnUse" x1="8.209" y1="-16346.5195" x2="15.034" y2="-16346.5195" gradientTransform="matrix(1.465202e-004 -1 1 -0.001 16348.8027 -8.1748)">
				<stop  offset="0" style="stop-color:#8F8F8F"/>
				<stop  offset="0.2275" style="stop-color:#E8E8E8"/>
				<stop  offset="1" style="stop-color:#696969"/>
			</linearGradient>
			<path style="fill-rule:evenodd;clip-rule:evenodd;fill:url(#SVGID_19_);" d="M3.5-5.899c0.066,0.6-0.083,0.983-0.45,1.15L2.6-4.7
				C2.367-4.7,2.167-4.733,2-4.8c-0.533-0.167-0.833-0.533-0.9-1.1c-0.034-0.5,0.1-0.85,0.4-1.05c0.434-0.233,0.867-0.233,1.3,0
				C3.2-6.716,3.434-6.366,3.5-5.899z M0.05-1.25c0.1,0.8,0.5,1.216,1.2,1.25c1.367,0.033,2.333-0.633,2.9-2
				c0.5-1.233,0.534-2.05,0.1-2.45c0.434-0.533,0.4-1.333-0.1-2.4c-0.567-1.167-1.533-1.533-2.9-1.1c-0.7,0.233-1.1,0.767-1.2,1.6
				c-0.133,0.867,0.117,1.533,0.75,2L1.25-4L0.8-3.55C0.167-2.85-0.083-2.083,0.05-1.25z M3.5-2.75C3.434-2.25,3.2-1.833,2.8-1.5
				C2.367-1.1,1.934-0.966,1.5-1.1c-0.3-0.133-0.434-0.467-0.4-1C1.167-2.666,1.467-3.116,2-3.45l0.6-0.3L3.05-3.8
				C3.417-3.766,3.566-3.416,3.5-2.75z"/>
		</g>
	</g>
</symbol>
<symbol  id="winderface1a" viewBox="0.015 -8.172 4.573 8.174">
	<g id="Layer_1_2_">
		
			<linearGradient id="SVGID_20_" gradientUnits="userSpaceOnUse" x1="-1919.6201" y1="-13811.3828" x2="-1910.4479" y2="-13811.3828" gradientTransform="matrix(0.2726 -0.9621 0.9621 0.2726 13812.3008 1918.666)">
			<stop  offset="0" style="stop-color:#E8E8E8"/>
			<stop  offset="1" style="stop-color:#878787"/>
		</linearGradient>
		<path style="fill-rule:evenodd;clip-rule:evenodd;fill:url(#SVGID_20_);" d="M2.05-4.8c-0.566-0.133-0.867-0.483-0.9-1.05
			c-0.033-0.533,0.1-0.9,0.4-1.1c0.4-0.267,0.817-0.267,1.25,0C3.2-6.717,3.433-6.367,3.5-5.9c0.133,0.633,0,1-0.4,1.1L2.65-4.7
			L2.05-4.8z M0.05-1.25C0.183-0.45,0.6-0.033,1.3,0c1.367,0.033,2.333-0.633,2.9-2c0.5-1.233,0.517-2.05,0.05-2.45
			c0.467-0.5,0.45-1.3-0.05-2.4C3.633-8.05,2.667-8.433,1.3-8C0.6-7.733,0.183-7.183,0.05-6.35c-0.133,0.867,0.117,1.533,0.75,2
			L1.3-4L0.8-3.55C0.167-2.85-0.083-2.083,0.05-1.25z M3.5-2.75C3.433-2.25,3.2-1.833,2.8-1.5C2.367-1.1,1.95-0.967,1.55-1.1
			c-0.3-0.133-0.433-0.467-0.4-1c0.033-0.6,0.333-1.05,0.9-1.35l0.6-0.3L3.1-3.8C3.467-3.767,3.6-3.417,3.5-2.75z"/>
	</g>
</symbol>
<symbol  id="winderfacehighlight" viewBox="0.016 -8.173 4.573 8.174">
	<g id="Layer_1_3_">
		
			<linearGradient id="SVGID_21_" gradientUnits="userSpaceOnUse" x1="-1919.6201" y1="-13811.3828" x2="-1910.4479" y2="-13811.3828" gradientTransform="matrix(0.2726 -0.9621 0.9621 0.2726 13812.3008 1918.666)">
			<stop  offset="0" style="stop-color:#E8E8E8"/>
			<stop  offset="1" style="stop-color:#EDEDED"/>
		</linearGradient>
		<path style="fill-rule:evenodd;clip-rule:evenodd;fill:url(#SVGID_21_);" d="M2.05-4.8c-0.567-0.133-0.867-0.483-0.9-1.05
			c-0.033-0.533,0.1-0.9,0.4-1.1c0.4-0.267,0.817-0.267,1.25,0C3.2-6.717,3.434-6.367,3.5-5.9c0.1,0.6-0.034,0.967-0.4,1.1L2.65-4.7
			L2.05-4.8z M0.05-1.25C0.184-0.45,0.601-0.034,1.3,0c1.367,0.034,2.333-0.633,2.9-2c0.5-1.233,0.517-2.05,0.05-2.45
			c0.466-0.5,0.45-1.3-0.05-2.4C3.634-8.05,2.667-8.434,1.3-8c-0.7,0.267-1.117,0.817-1.25,1.65c-0.133,0.867,0.117,1.534,0.75,2
			L1.3-4L0.8-3.55C0.167-2.851-0.083-2.084,0.05-1.25z M1.55-1.101c-0.3-0.133-0.433-0.466-0.4-1c0.033-0.6,0.333-1.05,0.9-1.35
			l0.6-0.3l0.45-0.05c0.366,0.033,0.5,0.383,0.4,1.05C3.434-2.25,3.2-1.834,2.8-1.5C2.367-1.101,1.95-0.967,1.55-1.101z"/>
	</g>
</symbol>
<use xlink:href="#cubimal_x5F_mc"  width="34.985" height="33.8" id="cubimal" x="-0.385" y="-27" transform="matrix(1 0 0 -1 0.3999 7.7998)" style="overflow:visible;"/>
</svg>
