<?xml version="1.0" encoding="iso-8859-1"?>
<!-- Generator: Adobe Illustrator 15.1.0, SVG Export Plug-In . SVG Version: 6.00 Build 0)  -->
<!DOCTYPE svg PUBLIC "-//W3C//DTD SVG 1.1//EN" "http://www.w3.org/Graphics/SVG/1.1/DTD/svg11.dtd">
<svg version="1.1" id="flash0.ai" xmlns="http://www.w3.org/2000/svg" xmlns:xlink="http://www.w3.org/1999/xlink" x="0px" y="0px"
	 width="32.35px" height="34.55px" viewBox="0 0 32.35 34.55" style="enable-background:new 0 0 32.35 34.55;" xml:space="preserve"
	>
<symbol  id="cubimal_1_" viewBox="-0.2 -27.113 26.557 34.57">
	<g id="Layer_1_5_">
		<g>
			<g>
				
					<linearGradient id="SVGID_1_" gradientUnits="userSpaceOnUse" x1="367.6426" y1="317.2803" x2="369.3942" y2="317.2803" gradientTransform="matrix(0.9991 0.0428 -0.0428 0.9991 -342.4941 -357.5757)">
					<stop  offset="0" style="stop-color:#5D513D"/>
					<stop  offset="1" style="stop-color:#3D3424"/>
				</linearGradient>
				<path style="fill-rule:evenodd;clip-rule:evenodd;fill:url(#SVGID_1_);" d="M10.2-22.55l4.65-0.3c-0.7-3-1.4-4.417-2.1-4.25
					C11.95-26.899,11.101-25.383,10.2-22.55z"/>
				
					<linearGradient id="SVGID_2_" gradientUnits="userSpaceOnUse" x1="375.4502" y1="320.7734" x2="377.2018" y2="320.7734" gradientTransform="matrix(0.9991 0.0428 -0.0428 0.9991 -342.4941 -357.5757)">
					<stop  offset="0" style="stop-color:#5D513D"/>
					<stop  offset="1" style="stop-color:#3D3424"/>
				</linearGradient>
				<path style="fill-rule:evenodd;clip-rule:evenodd;fill:url(#SVGID_2_);" d="M17.851-18.7l4.65-0.35
					c-0.333-1.366-0.6-2.316-0.8-2.85c-0.4-1.034-0.816-1.5-1.25-1.4C19.617-23.1,18.75-21.566,17.851-18.7z"/>
			</g>
			<g>
				
					<linearGradient id="SVGID_3_" gradientUnits="userSpaceOnUse" x1="-2104.5908" y1="-13439.4502" x2="-2085.4424" y2="-13439.4502" gradientTransform="matrix(0.3068 -0.9518 0.9518 0.3068 13447.2744 2115.5547)">
					<stop  offset="0" style="stop-color:#F2CF35"/>
					<stop  offset="1" style="stop-color:#EBB61F"/>
				</linearGradient>
				<path style="fill-rule:evenodd;clip-rule:evenodd;fill:url(#SVGID_3_);" d="M10.4-1c0.934,0.033,2.867-0.15,5.8-0.55
					C19.334-1.983,21.267-2.2,22-2.2c1.867,0,2.983-0.683,3.35-2.05c0.167-0.534,0.25-4.383,0.25-11.55c0-0.366,0-0.85,0-1.45
					c-0.033-0.5-0.184-0.95-0.45-1.35c-0.267-0.434-1.184-1.184-2.75-2.25c-1.333-0.934-2.3-1.566-2.9-1.9
					c-0.7-0.4-1.45-0.733-2.25-1c-0.7-0.267-1.217-0.4-1.55-0.4c-2.433,0.3-4.283,0.45-5.55,0.45c-0.8,0.034-2.25,0.2-4.35,0.5
					c-2.133,0.3-3.4,0.483-3.8,0.55c-0.667,0.133-1.133,0.433-1.4,0.9C0.233-21.083,0.034-19.733,0-17.7
					c-0.133,3.233-0.2,5.6-0.2,7.1c0.034,2.667,0.417,4.25,1.15,4.75c0.867,0.633,2.4,1.533,4.6,2.7C8.084-1.75,9.7-1.033,10.4-1z"
					/>
				
					<linearGradient id="SVGID_4_" gradientUnits="userSpaceOnUse" x1="-2367.4727" y1="-12874.4707" x2="-2350.4749" y2="-12874.4707" gradientTransform="matrix(0.3574 -0.934 0.934 0.3574 12887.9971 2383.3818)">
					<stop  offset="0" style="stop-color:#E0B429"/>
					<stop  offset="1" style="stop-color:#C98917"/>
				</linearGradient>
				<path style="fill-rule:evenodd;clip-rule:evenodd;fill:url(#SVGID_4_);" d="M25.351-4.25c0.066-0.2,0.133-1.067,0.2-2.6
					l0.05-8.95c0-0.366,0-0.85,0-1.45c-0.033-0.5-0.184-0.95-0.45-1.35c-0.267-0.434-1.184-1.184-2.75-2.25
					c-1.333-0.934-2.3-1.566-2.9-1.9c-0.267-0.167-0.9-0.434-1.9-0.8c-1-0.366-1.634-0.566-1.9-0.6
					c0.333,0.667,0.483,1.383,0.45,2.15l-0.1,14l0.1,0.15c0.2,0.2,1.117,0.7,2.75,1.5c1.8,0.9,2.967,1.517,3.5,1.85
					c1.4,0.9,2.15,1.4,2.25,1.5C25.017-3.366,25.25-3.783,25.351-4.25z"/>
				<linearGradient id="SVGID_5_" gradientUnits="userSpaceOnUse" x1="0.4502" y1="-4.417" x2="24.6504" y2="-4.417">
					<stop  offset="0" style="stop-color:#F7E58F"/>
					<stop  offset="1" style="stop-color:#EFC434"/>
				</linearGradient>
				<path style="fill-rule:evenodd;clip-rule:evenodd;fill:url(#SVGID_5_);" d="M23.15-4.2c-0.5-0.3-1.8-0.966-3.9-2
					c-1.867-0.9-2.9-1.45-3.1-1.65c-0.867,0.066-3.767,0.367-8.7,0.9c-3.733,0.4-6.066,0.567-7,0.5c0.167,0.267,0.333,0.467,0.5,0.6
					c0.867,0.633,2.4,1.533,4.6,2.7C8.084-1.75,9.7-1.033,10.4-1c2.3,0.1,6.167-0.3,11.6-1.2c1.433-0.2,2.317-0.466,2.65-0.8
					C24.317-3.366,23.817-3.766,23.15-4.2z"/>
			</g>
			<g>
				
					<radialGradient id="SVGID_6_" cx="22.5005" cy="-18.2495" r="3.7125" gradientTransform="matrix(1 0 0 -1 0 -36.499)" gradientUnits="userSpaceOnUse">
					<stop  offset="0.2157" style="stop-color:#000000;stop-opacity:0.3765"/>
					<stop  offset="0.8667" style="stop-color:#000000;stop-opacity:0"/>
				</radialGradient>
				<path style="fill-rule:evenodd;clip-rule:evenodd;fill:url(#SVGID_6_);" d="M25.15-18.6c-0.467-0.7-1.917-1.816-4.35-3.35
					c-1.1,0.1-1.85,0.517-2.25,1.25c-0.4,0.767-0.267,1.684,0.4,2.75c0.7,1.067,1.717,1.95,3.05,2.65
					c1.233,0.634,2.433,0.95,3.6,0.95v-1.45c0-0.366,0-0.85,0-1.45C25.567-17.75,25.417-18.2,25.15-18.6z"/>
				
					<linearGradient id="SVGID_7_" gradientUnits="userSpaceOnUse" x1="-160.6631" y1="-16144.0176" x2="-157.2872" y2="-16144.0176" gradientTransform="matrix(0.0222 -0.9998 0.9998 0.0222 16166.3389 181.582)">
					<stop  offset="0" style="stop-color:#E493C1"/>
					<stop  offset="1" style="stop-color:#AB5181"/>
				</linearGradient>
				<path style="fill-rule:evenodd;clip-rule:evenodd;fill:url(#SVGID_7_);" d="M23.15-13.8c0.5,0.3,1.1,0.4,1.8,0.3
					c0.667-0.1,1.05-0.317,1.15-0.65c0.167-0.9-0.35-1.833-1.55-2.8c-0.633-0.7-1.15-1.25-1.55-1.65c-0.7-0.767-1.267-1.167-1.7-1.2
					c-0.9-0.066-1.5,0.3-1.8,1.1c-0.233,0.633-0.233,1.284,0,1.95C19.7-16.183,20.917-15.2,23.15-13.8z"/>
				<path style="fill-rule:evenodd;clip-rule:evenodd;fill:#F4D8E1;" d="M22.101-15.2c0.566,0.367,1.267,0.817,2.1,1.35
					c0.467,0.267,0.884,0.333,1.25,0.2c0.333-0.1,0.533-0.333,0.6-0.7c0.1-0.434-0.017-1.033-0.35-1.8
					c-0.267-0.6-0.383-0.9-0.35-0.9c-1.934-1.866-3.267-2.75-4-2.65c-0.6,0.067-1,0.4-1.2,1c-0.167,0.567-0.117,1.184,0.15,1.85
					C20.467-16.45,21.067-15.899,22.101-15.2z"/>
				
					<linearGradient id="SVGID_8_" gradientUnits="userSpaceOnUse" x1="-2962.3184" y1="-11170.9082" x2="-2958.3088" y2="-11170.9082" gradientTransform="matrix(0.4988 -0.8667 0.8667 0.4988 11182.0664 2989.5488)">
					<stop  offset="0" style="stop-color:#DE6AA8"/>
					<stop  offset="1" style="stop-color:#AB5181"/>
				</linearGradient>
				<path style="fill-rule:evenodd;clip-rule:evenodd;fill:url(#SVGID_8_);" d="M24.2-14c0.467,0.3,0.9,0.4,1.3,0.3
					c0.4-0.066,0.65-0.267,0.75-0.6c0.267-1.333,0.033-2.283-0.7-2.85c-2.067-1.833-3.483-2.717-4.25-2.65
					c-0.567,0.067-0.9,0.434-1,1.1c-0.067,0.534,0.017,1.117,0.25,1.75C20.75-16.45,21.967-15.466,24.2-14z"/>
			</g>
			<g>
				<g>
					<path style="fill-rule:evenodd;clip-rule:evenodd;fill:#916B20;" d="M19.05-15.25c0-0.5-0.1-0.917-0.3-1.25
						c-0.2-0.333-0.467-0.5-0.8-0.5c-0.3,0-0.55,0.167-0.75,0.5c-0.233,0.333-0.35,0.75-0.35,1.25c0,0.466,0.116,0.867,0.35,1.2
						c0.2,0.333,0.45,0.5,0.75,0.5c0.333,0,0.6-0.167,0.8-0.5C18.95-14.383,19.05-14.783,19.05-15.25z"/>
					
						<linearGradient id="SVGID_9_" gradientUnits="userSpaceOnUse" x1="513.7065" y1="-16801.1016" x2="516.6617" y2="-16801.1016" gradientTransform="matrix(-0.0592 -0.9982 0.9982 -0.0592 16819.8203 -496.3945)">
						<stop  offset="0" style="stop-color:#5F4E29"/>
						<stop  offset="0.8588" style="stop-color:#271D09"/>
					</linearGradient>
					<path style="fill-rule:evenodd;clip-rule:evenodd;fill:url(#SVGID_9_);" d="M18.65-15.3c0-0.366-0.083-0.667-0.25-0.9
						c-0.2-0.233-0.434-0.35-0.7-0.35c-0.233,0-0.45,0.117-0.65,0.35c-0.167,0.233-0.25,0.534-0.25,0.9
						c0,0.367,0.083,0.684,0.25,0.95C17.217-14.116,17.434-14,17.7-14s0.5-0.117,0.7-0.35C18.567-14.616,18.65-14.933,18.65-15.3z"
						/>
				</g>
				<g>
					<path style="fill-rule:evenodd;clip-rule:evenodd;fill:#916B20;" d="M25.5-11.399c0-0.467-0.067-0.85-0.2-1.15
						c-0.133-0.333-0.3-0.5-0.5-0.5c-0.2,0-0.367,0.167-0.5,0.5c-0.133,0.3-0.2,0.684-0.2,1.15c0,1.066,0.233,1.6,0.7,1.6
						C25.267-9.8,25.5-10.333,25.5-11.399z"/>
					
						<linearGradient id="SVGID_10_" gradientUnits="userSpaceOnUse" x1="546.6279" y1="-16827.2852" x2="549.3835" y2="-16827.2852" gradientTransform="matrix(-0.0635 -0.998 0.998 -0.0635 16852.7402 -533.6187)">
						<stop  offset="0" style="stop-color:#5F4E29"/>
						<stop  offset="0.8588" style="stop-color:#271D09"/>
					</linearGradient>
					<path style="fill-rule:evenodd;clip-rule:evenodd;fill:url(#SVGID_10_);" d="M25.25-11.399c0-0.333-0.067-0.617-0.2-0.85
						c-0.1-0.233-0.233-0.35-0.4-0.35c-0.4,0-0.6,0.4-0.6,1.2c0,0.8,0.2,1.2,0.6,1.2c0.167,0,0.3-0.117,0.4-0.35
						C25.184-10.783,25.25-11.066,25.25-11.399z"/>
				</g>
			</g>
			<g>
				<g>
					
						<radialGradient id="SVGID_11_" cx="-1812.6992" cy="-828.2417" r="5.3121" gradientTransform="matrix(0.9953 -0.0965 -0.0635 -0.2565 1770.7739 -390.5068)" gradientUnits="userSpaceOnUse">
						<stop  offset="0.2157" style="stop-color:#000000;stop-opacity:0.3765"/>
						<stop  offset="0.8667" style="stop-color:#000000;stop-opacity:0"/>
					</radialGradient>
					<path style="fill-rule:evenodd;clip-rule:evenodd;fill:url(#SVGID_11_);" d="M24.45-3.7c-0.1-0.367-0.7-0.633-1.8-0.8
						c-1.133-0.2-2.417-0.217-3.85-0.05c-1.466,0.134-2.683,0.384-3.65,0.75c-0.967,0.367-1.4,0.733-1.3,1.1
						c0.066,0.367,0.65,0.633,1.75,0.8c1.133,0.167,2.417,0.183,3.85,0.05c1.467-0.133,2.684-0.383,3.65-0.75
						S24.517-3.333,24.45-3.7z"/>
					<path style="fill-rule:evenodd;clip-rule:evenodd;fill:#D9FDF2;" d="M21.2-3.95L17.65-3.5c-0.5-0.034-1.083,0.05-1.75,0.25
						C14.534-2.85,13.417-2.1,12.55-1c-1.367,1.7-1.8,3.433-1.3,5.2c0.567,1.967,2.167,3.05,4.8,3.25
						c2.133,0.134,3.817-1.583,5.05-5.15c0.633-1.8,1.05-3.617,1.25-5.45C21.95-3.516,21.567-3.783,21.2-3.95z"/>
					<path style="fill-rule:evenodd;clip-rule:evenodd;fill:#FFFFFF;" d="M21.25-3.95c-0.667,2.133-1.9,4.434-3.7,6.9
						c-1.7,2.367-3.417,3.417-5.15,3.15L13,6.55c1.633,0.434,3.267-0.5,4.9-2.8C19.534,1.55,20.65-1.016,21.25-3.95z"/>
					<path style="fill-rule:evenodd;clip-rule:evenodd;fill:#BAE8DA;" d="M17.9,3.75c-1.633,2.3-3.267,3.233-4.9,2.8
						c0.767,0.5,1.783,0.8,3.05,0.9c2.133,0.134,3.817-1.583,5.05-5.15c0.633-1.8,1.05-3.617,1.25-5.45
						c-0.367-0.333-0.733-0.6-1.1-0.8C20.65-1.016,19.534,1.55,17.9,3.75z"/>
				</g>
				<g>
					
						<radialGradient id="SVGID_12_" cx="-562.6865" cy="-623.46" r="6.3657" gradientTransform="matrix(0.9973 -0.073 -0.0152 -0.2082 563.2905 -176.749)" gradientUnits="userSpaceOnUse">
						<stop  offset="0.2157" style="stop-color:#000000;stop-opacity:0.3765"/>
						<stop  offset="0.8667" style="stop-color:#000000;stop-opacity:0"/>
					</radialGradient>
					<path style="fill-rule:evenodd;clip-rule:evenodd;fill:url(#SVGID_12_);" d="M17.95-6.35C17.917-6.716,17.267-7,16-7.2
						c-1.233-0.167-2.733-0.183-4.5-0.05c-1.767,0.133-3.25,0.367-4.45,0.7c-1.233,0.367-1.833,0.733-1.8,1.1
						c0.033,0.367,0.667,0.633,1.9,0.8C8.417-4.483,9.934-4.466,11.7-4.6c1.733-0.133,3.217-0.367,4.45-0.7
						C17.384-5.633,17.983-5.983,17.95-6.35z"/>
					<path style="fill-rule:evenodd;clip-rule:evenodd;fill:#D9FDF2;" d="M14.2-6.649L9.9-6.2c-0.566-0.033-1.283,0.05-2.15,0.25
						c-1.667,0.367-3.133,1.067-4.4,2.1C1.384-2.183,0.5-0.483,0.7,1.25c0.2,1.933,1.833,3,4.9,3.2c2.467,0.167,4.833-1.5,7.1-5
						c1.167-1.767,2.067-3.533,2.7-5.3C14.967-6.183,14.567-6.45,14.2-6.649z"/>
					<path style="fill-rule:evenodd;clip-rule:evenodd;fill:#FFFFFF;" d="M14.2-6.6c-1.066,1.9-3,4.133-5.8,6.7
						c-2.467,2.2-4.717,3.2-6.75,3L2.2,3.5C4,3.967,6.15,3.084,8.65,0.851c2.3-2.1,4.167-4.583,5.6-7.45H14.2z"/>
					<path style="fill-rule:evenodd;clip-rule:evenodd;fill:#BAE8DA;" d="M8.65,0.851C6.15,3.084,4,3.967,2.2,3.5
						c0.867,0.533,2,0.85,3.4,0.95c2.467,0.167,4.833-1.5,7.1-5c1.167-1.767,2.067-3.533,2.7-5.3L14.25-6.6
						C12.817-3.733,10.95-1.25,8.65,0.851z"/>
				</g>
			</g>
			<g>
				<path style="fill-rule:evenodd;clip-rule:evenodd;fill:#F0E188;" d="M24.65-3c-0.066-0.4-1.434-1.333-4.1-2.8
					c-2.7-1.5-4.083-2.417-4.15-2.75c-0.066-0.366-0.066-4.517,0-12.45c-0.066-1.7-0.3-2.75-0.7-3.15l0.2,0.6
					c0.066,0.3,0.083,2.3,0.05,6c-0.033,3.667-0.083,6.034-0.15,7.1c-0.067,1.167-0.117,1.8-0.15,1.9
					c-0.066,0.2-0.25,0.333-0.55,0.4c-0.367,0.1-3.217,0.417-8.55,0.95C5.75-7.133,4.5-6.95,2.8-6.649L0.5-6.2l7.6-0.8
					c1.366-0.167,2.983-0.317,4.85-0.45c1.8-0.133,2.85-0.167,3.15-0.1c0.333,0.034,1.633,0.65,3.9,1.85
					C21.434-4.933,22.983-4.033,24.65-3z"/>
			</g>
		</g>
	</g>
</symbol>
<symbol  id="cubimal_x5F_mc" viewBox="-0.385 -27.063 32.342 34.57">
	<g id="Layer_5_1_">
	</g>
	<g id="Layer_4_2_">
	</g>
	<g id="Layer_2_copy_2_">
	</g>
	<g id="Layer_2_2_">
	</g>
	<g id="Layer_1_9_">
		
			<use xlink:href="#cubimal_x5F_scene1"  width="32.342" height="34.57" x="0.015" y="-27.113" transform="matrix(1 0 0 1 -0.3999 0.0498)" style="overflow:visible;"/>
	</g>
	<g id="Layer_6_1_">
	</g>
</symbol>
<symbol  id="cubimal_x5F_scene1" viewBox="0.015 -27.113 32.342 34.57">
	<g id="Layer_1_8_">
		
			<use xlink:href="#winder_x5F_static"  width="10.185" height="8.474" x="0.015" y="-8.472" transform="matrix(1 0 0 1 0 -7.9502)" style="overflow:visible;"/>
		
			<use xlink:href="#cubimal_1_"  width="26.557" height="34.57" x="-0.2" y="-27.113" transform="matrix(1 0 0 1 6 0)" style="overflow:visible;"/>
	</g>
</symbol>
<symbol  id="winder_x5F_static" viewBox="0.015 -8.472 10.185 8.474">
	<g id="Layer_4_1_">
		
			<use xlink:href="#winderedge"  width="4.537" height="8.127" x="0.015" y="-8.126" transform="matrix(1 0 0 1 0.7002 0)" style="overflow:visible;"/>
	</g>
	<g id="Layer_3_1_">
		
			<use xlink:href="#winderfacehighlight"  width="4.573" height="8.174" x="0.016" y="-8.173" transform="matrix(1 0 0 1 0.2002 -0.2002)" style="overflow:visible;"/>
	</g>
	<g id="Layer_2_copy_1_">
		
			<use xlink:href="#winderface1a"  width="4.573" height="8.174" x="0.015" y="-8.172" transform="matrix(1 0 0 1 0 -0.2998)" style="overflow:visible;"/>
	</g>
	<g id="Layer_1_7_">
		<g>
			
				<linearGradient id="SVGID_13_" gradientUnits="userSpaceOnUse" x1="1519.5073" y1="-17616.1055" x2="1520.8267" y2="-17616.1055" gradientTransform="matrix(-0.1705 -0.9854 0.9854 -0.1705 17624.5996 -1511.7798)">
				<stop  offset="0" style="stop-color:#8F8F8F"/>
				<stop  offset="0.2275" style="stop-color:#E8E8E8"/>
				<stop  offset="1" style="stop-color:#696969"/>
			</linearGradient>
			<path style="fill-rule:evenodd;clip-rule:evenodd;fill:url(#SVGID_13_);" d="M10.2-6.3L4.8-5.5C4.5-5.533,4.351-5.366,4.351-5
				c0,0.233,0.083,0.4,0.25,0.5c0.066,0.066,0.133,0.1,0.2,0.1l5.4-0.8V-6.3z"/>
		</g>
	</g>
</symbol>
<symbol  id="winderedge" viewBox="0.015 -8.126 4.537 8.127">
	<g id="Layer_1_4_">
		<g>
			
				<linearGradient id="SVGID_14_" gradientUnits="userSpaceOnUse" x1="10.21" y1="-16346.5195" x2="17.035" y2="-16346.5195" gradientTransform="matrix(1.465202e-004 -1 1 -0.001 16348.8027 -6.1738)">
				<stop  offset="0" style="stop-color:#8F8F8F"/>
				<stop  offset="0.2275" style="stop-color:#E8E8E8"/>
				<stop  offset="1" style="stop-color:#696969"/>
			</linearGradient>
			<path style="fill-rule:evenodd;clip-rule:evenodd;fill:url(#SVGID_14_);" d="M3.5-5.899c0.066,0.6-0.083,0.983-0.45,1.15L2.6-4.7
				C2.367-4.7,2.167-4.733,2-4.8c-0.533-0.167-0.833-0.533-0.9-1.1c-0.034-0.5,0.1-0.85,0.4-1.05c0.434-0.233,0.867-0.233,1.3,0
				C3.2-6.716,3.434-6.366,3.5-5.899z M0.05-1.25c0.1,0.8,0.5,1.216,1.2,1.25c1.367,0.033,2.333-0.633,2.9-2
				c0.5-1.233,0.534-2.05,0.1-2.45c0.434-0.533,0.4-1.333-0.1-2.4c-0.567-1.167-1.533-1.533-2.9-1.1c-0.7,0.233-1.1,0.767-1.2,1.6
				c-0.133,0.867,0.117,1.533,0.75,2L1.25-4L0.8-3.55C0.167-2.85-0.083-2.083,0.05-1.25z M3.5-2.75C3.434-2.25,3.2-1.833,2.8-1.5
				C2.367-1.1,1.934-0.966,1.5-1.1c-0.3-0.133-0.434-0.467-0.4-1C1.167-2.666,1.467-3.116,2-3.45l0.6-0.3L3.05-3.8
				C3.417-3.766,3.566-3.416,3.5-2.75z"/>
		</g>
	</g>
</symbol>
<symbol  id="winderface1a" viewBox="0.015 -8.172 4.573 8.174">
	<g id="Layer_1_2_">
		
			<linearGradient id="SVGID_15_" gradientUnits="userSpaceOnUse" x1="-1917.9307" y1="-13811.6172" x2="-1908.7584" y2="-13811.6172" gradientTransform="matrix(0.2726 -0.9621 0.9621 0.2726 13812.0654 1920.3555)">
			<stop  offset="0" style="stop-color:#E8E8E8"/>
			<stop  offset="1" style="stop-color:#878787"/>
		</linearGradient>
		<path style="fill-rule:evenodd;clip-rule:evenodd;fill:url(#SVGID_15_);" d="M2.05-4.8c-0.566-0.133-0.867-0.483-0.9-1.05
			c-0.033-0.533,0.1-0.9,0.4-1.1c0.4-0.267,0.817-0.267,1.25,0C3.2-6.717,3.433-6.367,3.5-5.9c0.133,0.633,0,1-0.4,1.1L2.65-4.7
			L2.05-4.8z M0.05-1.25C0.183-0.45,0.6-0.033,1.3,0c1.367,0.033,2.333-0.633,2.9-2c0.5-1.233,0.517-2.05,0.05-2.45
			c0.467-0.5,0.45-1.3-0.05-2.4C3.633-8.05,2.667-8.433,1.3-8C0.6-7.733,0.183-7.183,0.05-6.35c-0.133,0.867,0.117,1.533,0.75,2
			L1.3-4L0.8-3.55C0.167-2.85-0.083-2.083,0.05-1.25z M3.5-2.75C3.433-2.25,3.2-1.833,2.8-1.5C2.367-1.1,1.95-0.967,1.55-1.1
			c-0.3-0.133-0.433-0.467-0.4-1c0.033-0.6,0.333-1.05,0.9-1.35l0.6-0.3L3.1-3.8C3.467-3.767,3.6-3.417,3.5-2.75z"/>
	</g>
</symbol>
<symbol  id="winderfacehighlight" viewBox="0.016 -8.173 4.573 8.174">
	<g id="Layer_1_3_">
		
			<linearGradient id="SVGID_16_" gradientUnits="userSpaceOnUse" x1="-1917.9307" y1="-13811.6172" x2="-1908.7584" y2="-13811.6172" gradientTransform="matrix(0.2726 -0.9621 0.9621 0.2726 13812.0654 1920.3555)">
			<stop  offset="0" style="stop-color:#E8E8E8"/>
			<stop  offset="1" style="stop-color:#EDEDED"/>
		</linearGradient>
		<path style="fill-rule:evenodd;clip-rule:evenodd;fill:url(#SVGID_16_);" d="M2.05-4.8c-0.567-0.133-0.867-0.483-0.9-1.05
			c-0.033-0.533,0.1-0.9,0.4-1.1c0.4-0.267,0.817-0.267,1.25,0C3.2-6.717,3.434-6.367,3.5-5.9c0.1,0.6-0.034,0.967-0.4,1.1L2.65-4.7
			L2.05-4.8z M0.05-1.25C0.184-0.45,0.601-0.034,1.3,0c1.367,0.034,2.333-0.633,2.9-2c0.5-1.233,0.517-2.05,0.05-2.45
			c0.466-0.5,0.45-1.3-0.05-2.4C3.634-8.05,2.667-8.434,1.3-8c-0.7,0.267-1.117,0.817-1.25,1.65c-0.133,0.867,0.117,1.534,0.75,2
			L1.3-4L0.8-3.55C0.167-2.851-0.083-2.084,0.05-1.25z M1.55-1.101c-0.3-0.133-0.433-0.466-0.4-1c0.033-0.6,0.333-1.05,0.9-1.35
			l0.6-0.3l0.45-0.05c0.366,0.033,0.5,0.383,0.4,1.05C3.434-2.25,3.2-1.834,2.8-1.5C2.367-1.101,1.95-0.967,1.55-1.101z"/>
	</g>
</symbol>
<use xlink:href="#cubimal_x5F_mc"  width="32.342" height="34.57" id="cubimal" x="-0.385" y="-27.063" transform="matrix(1 0 0 -1 0.3999 7.5)" style="overflow:visible;"/>
</svg>
