<?xml version="1.0" encoding="iso-8859-1"?>
<!-- Generator: Adobe Illustrator 15.1.0, SVG Export Plug-In . SVG Version: 6.00 Build 0)  -->
<!DOCTYPE svg PUBLIC "-//W3C//DTD SVG 1.1//EN" "http://www.w3.org/Graphics/SVG/1.1/DTD/svg11.dtd">
<svg version="1.1" id="flash0.ai" xmlns="http://www.w3.org/2000/svg" xmlns:xlink="http://www.w3.org/1999/xlink" x="0px" y="0px"
	 width="32.2px" height="26.9px" viewBox="0 0 32.2 26.9" style="enable-background:new 0 0 32.2 26.9;" xml:space="preserve">
<symbol  id="cubimal_1_" viewBox="0.4 -24.154 25.8 26.904">
	<g id="Layer_1_5_">
		<g>
			
				<linearGradient id="SVGID_1_" gradientUnits="userSpaceOnUse" x1="-3334.1152" y1="-9188.6465" x2="-3314.9673" y2="-9188.6465" gradientTransform="matrix(0.6424 -0.7664 0.7664 0.6424 9191.6338 3341.3379)">
				<stop  offset="0" style="stop-color:#B3B3B3"/>
				<stop  offset="0.2627" style="stop-color:#B8B8B8"/>
				<stop  offset="0.5843" style="stop-color:#808080"/>
				<stop  offset="0.8235" style="stop-color:#8C8C8C"/>
				<stop  offset="1" style="stop-color:#636363"/>
			</linearGradient>
			<path style="fill-rule:evenodd;clip-rule:evenodd;fill:url(#SVGID_1_);" d="M22.6-2.2c1.1,0,1.933-0.216,2.5-0.65
				c0.367-0.3,0.65-0.767,0.85-1.4c0.167-0.534,0.25-4.383,0.25-11.55c0-0.366,0-0.85,0-1.45c-0.034-0.5-0.184-0.95-0.45-1.35
				c-0.3-0.434-1.217-1.184-2.75-2.25c-1.333-0.967-2.3-1.6-2.9-1.9c-1.7-0.934-2.967-1.4-3.8-1.4c-2.433,0.3-4.283,0.45-5.55,0.45
				c-0.8,0.034-2.25,0.2-4.35,0.5c-2.133,0.3-3.4,0.483-3.8,0.55c-0.7,0.1-1.167,0.4-1.4,0.9c-0.367,0.667-0.567,2.017-0.6,4.05
				c-0.133,3.233-0.2,5.6-0.2,7.1c0.033,2.667,0.417,4.25,1.15,4.75c0.867,0.633,2.4,1.533,4.6,2.7C8.683-1.75,10.3-1.033,11-1
				c0.933,0.033,2.867-0.15,5.8-0.55C19.933-1.983,21.867-2.2,22.6-2.2z"/>
			<g>
				
					<linearGradient id="SVGID_2_" gradientUnits="userSpaceOnUse" x1="-2108.6025" y1="-13439.6113" x2="-2090.4502" y2="-13439.6113" gradientTransform="matrix(0.3071 -0.9517 0.9517 0.3071 13447.7129 2114.5068)">
					<stop  offset="0" style="stop-color:#A17616"/>
					<stop  offset="1" style="stop-color:#7E570A"/>
				</linearGradient>
				<path style="fill-rule:evenodd;clip-rule:evenodd;fill:url(#SVGID_2_);" d="M7.65-5.2c1.167,0.4,2.45,0.55,3.85,0.45L11.1-5.5
					L7.65-5.2z"/>
			</g>
			
				<linearGradient id="SVGID_3_" gradientUnits="userSpaceOnUse" x1="-2371.0117" y1="-12876.4922" x2="-2354.0139" y2="-12876.4922" gradientTransform="matrix(0.3574 -0.934 0.934 0.3574 12891.7334 2380.8115)">
				<stop  offset="0" style="stop-color:#787878"/>
				<stop  offset="0.2627" style="stop-color:#8A8A8A"/>
				<stop  offset="0.5843" style="stop-color:#545454"/>
				<stop  offset="0.8235" style="stop-color:#616161"/>
				<stop  offset="1" style="stop-color:#454545"/>
			</linearGradient>
			<path style="fill-rule:evenodd;clip-rule:evenodd;fill:url(#SVGID_3_);" d="M25.95-4.25c0.1-0.267,0.15-1.133,0.15-2.6
				c0.066-2.133,0.1-5.117,0.1-8.95c0-0.366,0-0.85,0-1.45c-0.034-0.5-0.184-0.95-0.45-1.35c-0.3-0.434-1.217-1.184-2.75-2.25
				c-1.333-0.967-2.3-1.6-2.9-1.9c-0.267-0.167-0.9-0.434-1.9-0.8c-1-0.366-1.633-0.566-1.9-0.6c0.3,0.6,0.45,1.316,0.45,2.15
				l-0.1,14l0.1,0.15c0.167,0.2,1.067,0.7,2.7,1.5C21.317-5.45,22.5-4.833,23-4.5c1.4,0.9,2.15,1.4,2.25,1.5
				C25.55-3.3,25.783-3.716,25.95-4.25z"/>
			<path style="fill-rule:evenodd;clip-rule:evenodd;fill:#B3B3B3;" d="M23.75-4.2c-0.5-0.3-1.8-0.966-3.9-2
				c-1.9-0.9-2.934-1.45-3.1-1.65c-0.867,0.066-3.767,0.367-8.7,0.9c-3.767,0.4-6.1,0.567-7,0.5c0.167,0.267,0.333,0.467,0.5,0.6
				c0.867,0.633,2.4,1.533,4.6,2.7C8.683-1.75,10.3-1.033,11-1c2.3,0.1,6.167-0.3,11.6-1.2c1.433-0.2,2.316-0.466,2.65-0.8
				C24.917-3.366,24.417-3.766,23.75-4.2z"/>
			
				<linearGradient id="SVGID_4_" gradientUnits="userSpaceOnUse" x1="-1395.4512" y1="-14629.7598" x2="-1386.3855" y2="-14629.7598" gradientTransform="matrix(0.1903 -0.9817 0.9817 0.1903 14648.8672 1404.7266)">
				<stop  offset="0" style="stop-color:#4F4F4F"/>
				<stop  offset="1" style="stop-color:#262626"/>
			</linearGradient>
			<path style="fill-rule:evenodd;clip-rule:evenodd;fill:url(#SVGID_4_);" d="M21.8-9.05c1.534,0.767,2.45,1.2,2.75,1.3
				c0.434,0.167,0.8,0.233,1.1,0.2c0.3-0.066,0.45-0.883,0.45-2.45c0.033-0.833,0.017-1.867-0.05-3.1c0-1.1-0.85-2.184-2.55-3.25
				c-2.733-1.733-4.567-2.483-5.5-2.25c-0.6,0.167-0.933,1.167-1,3c-0.033,1.533,0.05,2.633,0.25,3.3
				C17.483-11.533,19-10.45,21.8-9.05z"/>
			<g>
				<path style="fill-rule:evenodd;clip-rule:evenodd;fill:#1F1F1F;" d="M19.65-15.25c0-0.5-0.1-0.917-0.3-1.25
					c-0.233-0.333-0.5-0.5-0.8-0.5c-0.3,0-0.55,0.167-0.75,0.5c-0.233,0.333-0.35,0.75-0.35,1.25c0,0.466,0.117,0.867,0.35,1.2
					c0.2,0.333,0.45,0.5,0.75,0.5c0.3,0,0.567-0.167,0.8-0.5C19.55-14.383,19.65-14.783,19.65-15.25z"/>
				
					<linearGradient id="SVGID_5_" gradientUnits="userSpaceOnUse" x1="509.6782" y1="-16804.7383" x2="512.6334" y2="-16804.7383" gradientTransform="matrix(-0.0592 -0.9982 0.9982 -0.0592 16823.8125 -500.6313)">
					<stop  offset="0" style="stop-color:#D4D4D4"/>
					<stop  offset="0.8588" style="stop-color:#5E5E5E"/>
				</linearGradient>
				<path style="fill-rule:evenodd;clip-rule:evenodd;fill:url(#SVGID_5_);" d="M19.25-15.3c0-0.333-0.1-0.633-0.3-0.9
					c-0.167-0.233-0.383-0.35-0.65-0.35c-0.233,0-0.45,0.117-0.65,0.35c-0.167,0.233-0.25,0.534-0.25,0.9
					c0,0.367,0.083,0.684,0.25,0.95C17.817-14.116,18.033-14,18.3-14c0.267,0,0.483-0.117,0.65-0.35
					C19.15-14.616,19.25-14.933,19.25-15.3z"/>
			</g>
			<g>
				<path style="fill-rule:evenodd;clip-rule:evenodd;fill:#1F1F1F;" d="M26.1-11.399c0-0.467-0.067-0.85-0.2-1.15
					c-0.133-0.333-0.3-0.5-0.5-0.5c-0.2,0-0.367,0.167-0.5,0.5c-0.167,0.333-0.25,0.717-0.25,1.15c0,0.433,0.083,0.816,0.25,1.15
					c0.133,0.3,0.3,0.45,0.5,0.45C25.867-9.8,26.1-10.333,26.1-11.399z"/>
				
					<linearGradient id="SVGID_6_" gradientUnits="userSpaceOnUse" x1="542.5981" y1="-16830.9414" x2="545.3537" y2="-16830.9414" gradientTransform="matrix(-0.0635 -0.998 0.998 -0.0635 16856.7324 -537.8726)">
					<stop  offset="0" style="stop-color:#D4D4D4"/>
					<stop  offset="0.8588" style="stop-color:#5E5E5E"/>
				</linearGradient>
				<path style="fill-rule:evenodd;clip-rule:evenodd;fill:url(#SVGID_6_);" d="M25.85-11.399c0-0.333-0.067-0.617-0.2-0.85
					c-0.1-0.233-0.233-0.35-0.4-0.35c-0.4,0-0.6,0.4-0.6,1.2c0,0.8,0.2,1.2,0.6,1.2c0.167,0,0.3-0.117,0.4-0.35
					C25.783-10.783,25.85-11.066,25.85-11.399z"/>
			</g>
			<path style="fill-rule:evenodd;clip-rule:evenodd;fill:#DEDEDE;" d="M25.25-3c-0.067-0.4-1.433-1.333-4.1-2.8
				c-2.7-1.5-4.083-2.417-4.15-2.75c-0.1-0.366-0.1-4.517,0-12.45c-0.067-1.7-0.3-2.75-0.7-3.15l0.15,0.6
				c0.1,0.267,0.133,2.267,0.1,6c-0.033,3.6-0.083,5.967-0.15,7.1c-0.066,1.167-0.117,1.8-0.15,1.9c-0.067,0.2-0.25,0.333-0.55,0.4
				c-0.367,0.1-3.217,0.417-8.55,0.95C6.35-7.133,5.1-6.95,3.4-6.649L1.1-6.2L8.7-7c1.367-0.167,2.983-0.317,4.85-0.45
				c1.8-0.133,2.85-0.167,3.15-0.1c0.3,0.034,1.6,0.65,3.9,1.85C22.033-4.933,23.583-4.033,25.25-3z"/>
			
				<radialGradient id="SVGID_7_" cx="8.6499" cy="-18.1997" r="3.3125" gradientTransform="matrix(1 0 0 -1.0075 0 -36.5361)" gradientUnits="userSpaceOnUse">
				<stop  offset="0.2157" style="stop-color:#000000;stop-opacity:0.3765"/>
				<stop  offset="0.8667" style="stop-color:#000000;stop-opacity:0"/>
			</radialGradient>
			<path style="fill-rule:evenodd;clip-rule:evenodd;fill:url(#SVGID_7_);" d="M12-18.2c0-0.933-0.333-1.716-1-2.35
				c-0.633-0.667-1.417-1-2.35-1c-0.9,0-1.667,0.333-2.3,1c-0.667,0.634-1,1.417-1,2.35c0,0.934,0.333,1.717,1,2.35
				c0.633,0.667,1.4,1,2.3,1c0.934,0,1.717-0.333,2.35-1C11.667-16.483,12-17.266,12-18.2z"/>
			
				<linearGradient id="SVGID_8_" gradientUnits="userSpaceOnUse" x1="-3358.9277" y1="-7620.3525" x2="-3355.3171" y2="-7620.3525" gradientTransform="matrix(0.7409 -0.6716 0.6716 0.7409 7611.2285 3372.2246)">
				<stop  offset="0" style="stop-color:#C7C7C7"/>
				<stop  offset="1" style="stop-color:#858585"/>
			</linearGradient>
			<path style="fill-rule:evenodd;clip-rule:evenodd;fill:url(#SVGID_8_);" d="M9.4-16.6c0.467-0.867,0.5-1.533,0.1-2
				c-0.8-0.3-1.35-0.55-1.65-0.75c-0.2-0.133-0.033-0.6,0.5-1.4c0.233-0.4,0.5-0.784,0.8-1.15l-0.05-0.25
				c-0.167-0.867-0.667-1.467-1.5-1.8c-0.533-0.233-1.067-0.267-1.6-0.1c-0.433,0.1-0.667,0.233-0.7,0.4
				c-0.8,1.733-1.283,3.017-1.45,3.85c-0.2,1.067,0.15,1.95,1.05,2.65c1.2,0.833,2.083,1.25,2.65,1.25c0.534,0,0.9-0.017,1.1-0.05
				C8.983-16.05,9.233-16.266,9.4-16.6z"/>
			<path style="fill-rule:evenodd;clip-rule:evenodd;fill:#404040;" d="M9.2-16.25l0.2-0.35c0.467-0.867,0.5-1.533,0.1-2
				c-0.8-0.3-1.35-0.55-1.65-0.75c-0.2-0.133-0.033-0.6,0.5-1.4c0.233-0.4,0.5-0.784,0.8-1.15l-0.05-0.25
				c-0.167-0.767-0.583-1.333-1.25-1.7c-0.2,0.333-0.317,0.6-0.35,0.8l-0.1,1.4c0,0.366-0.066,0.883-0.2,1.55l-0.15,0.45
				c-0.233,0.333-0.383,0.6-0.45,0.8c0.233,0.1,0.583,0.184,1.05,0.25c0.467,0.2,0.8,0.383,1,0.55c0.434,0.2,0.667,0.45,0.7,0.75
				c0.066,0.167,0.066,0.35,0,0.55C9.25-16.55,9.2-16.383,9.2-16.25z"/>
			<path style="fill-rule:evenodd;clip-rule:evenodd;fill:#DEDEDE;" d="M9.15-21.899l-0.05-0.25c-0.167-0.867-0.667-1.467-1.5-1.8
				c-0.533-0.233-1.067-0.267-1.6-0.1c-0.433,0.1-0.667,0.233-0.7,0.4c-0.8,1.733-1.283,3.017-1.45,3.85
				c-0.2,1.067,0.15,1.95,1.05,2.65c0.934,0.667,1.7,1.066,2.3,1.2l1.1,0.05c-1.667-0.3-2.767-0.817-3.3-1.55
				C4.933-17.516,4.75-17.7,4.45-18c-0.233-0.5-0.167-1.3,0.2-2.4c0.467-1.367,0.917-2.05,1.35-2.05l0.85,0.65
				C7.55-21.433,8.317-21.466,9.15-21.899z"/>
			
				<linearGradient id="SVGID_9_" gradientUnits="userSpaceOnUse" x1="18967.3359" y1="-4086.271" x2="18969.5859" y2="-4086.271" gradientTransform="matrix(-0.4113 0.9115 -0.9115 -0.4113 4084.4102 -18993.9863)">
				<stop  offset="0" style="stop-color:#9E9E9E"/>
				<stop  offset="1" style="stop-color:#4D4D4D"/>
			</linearGradient>
			<path style="fill-rule:evenodd;clip-rule:evenodd;fill:url(#SVGID_9_);" d="M7.25-21.95c1.033,0.4,1.667,0.417,1.9,0.05
				l-0.05-0.25c-0.167-0.867-0.667-1.467-1.5-1.8c-0.533-0.233-1.067-0.267-1.6-0.1c-0.433,0.1-0.667,0.233-0.7,0.4
				C5.7-22.883,6.35-22.316,7.25-21.95z"/>
			
				<radialGradient id="SVGID_10_" cx="14.3496" cy="-3.9497" r="4.0502" gradientTransform="matrix(1 0 0 -0.4352 0 -5.6689)" gradientUnits="userSpaceOnUse">
				<stop  offset="0.2157" style="stop-color:#000000;stop-opacity:0.3765"/>
				<stop  offset="0.8667" style="stop-color:#000000;stop-opacity:0"/>
			</radialGradient>
			<path style="fill-rule:evenodd;clip-rule:evenodd;fill:url(#SVGID_10_);" d="M18.4-3.95c0-0.466-0.4-0.883-1.2-1.25
				c-0.767-0.333-1.717-0.5-2.85-0.5s-2.083,0.167-2.85,0.5c-0.8,0.367-1.2,0.784-1.2,1.25c0,0.5,0.4,0.917,1.2,1.25
				c0.767,0.333,1.717,0.5,2.85,0.5s2.083-0.167,2.85-0.5C18-3.033,18.4-3.45,18.4-3.95z"/>
			<linearGradient id="SVGID_11_" gradientUnits="userSpaceOnUse" x1="11.5127" y1="-1.9478" x2="16.2877" y2="-1.9478">
				<stop  offset="0" style="stop-color:#808080"/>
				<stop  offset="1" style="stop-color:#363636"/>
			</linearGradient>
			<path style="fill-rule:evenodd;clip-rule:evenodd;fill:url(#SVGID_11_);" d="M13,0.15l0.4,0.65l0.6-2
				c0.133-0.466,0.55-0.933,1.25-1.4c0.7-0.5,1.05-0.767,1.05-0.8c0.034-0.233-0.133-0.45-0.5-0.65c-0.433-0.3-1.083-0.5-1.95-0.6
				c-1.333-0.167-2.117,0.116-2.35,0.85c-0.033,0.067,0.05,0.184,0.25,0.35c0.267,0.3,0.467,0.534,0.6,0.7
				c0.333,0.5,0.55,1,0.65,1.5c0.033,0.066-0.017,0.216-0.15,0.45C12.85-0.166,12.9,0.15,13,0.15z"/>
			<linearGradient id="SVGID_12_" gradientUnits="userSpaceOnUse" x1="11.7876" y1="-2.3726" x2="15.2126" y2="-2.3726">
				<stop  offset="0" style="stop-color:#D6D6D6"/>
				<stop  offset="1" style="stop-color:#616161"/>
			</linearGradient>
			<path style="fill-rule:evenodd;clip-rule:evenodd;fill:url(#SVGID_12_);" d="M14.95-2.399c-0.867-0.767-1.767-0.9-2.7-0.4
				l0.1,0.05l0.4,0.8c0.567-0.133,1.05-0.033,1.45,0.3C14.4-1.95,14.65-2.2,14.95-2.399z"/>
			
				<radialGradient id="SVGID_13_" cx="-3060.7773" cy="-10875.1182" r="2.0366" gradientTransform="matrix(0.5217 -0.8531 -0.8531 -0.5217 -7668.2891 -8283.4209)" gradientUnits="userSpaceOnUse">
				<stop  offset="0" style="stop-color:#FFFFFF"/>
				<stop  offset="0.2196" style="stop-color:#C9C9C9"/>
				<stop  offset="0.3804" style="stop-color:#C5C5C5"/>
				<stop  offset="0.5294" style="stop-color:#BABABA"/>
				<stop  offset="0.6784" style="stop-color:#A6A6A6"/>
				<stop  offset="0.8275" style="stop-color:#8B8B8B"/>
				<stop  offset="0.9725" style="stop-color:#686868"/>
				<stop  offset="1" style="stop-color:#616161"/>
			</radialGradient>
			<path style="fill-rule:evenodd;clip-rule:evenodd;fill:url(#SVGID_13_);" d="M14.95,0.9c0-0.5-0.184-0.934-0.55-1.3
				c-0.367-0.333-0.8-0.5-1.3-0.5s-0.917,0.167-1.25,0.5c-0.367,0.366-0.55,0.8-0.55,1.3c0,0.533,0.184,0.967,0.55,1.3
				c0.333,0.367,0.75,0.55,1.25,0.55s0.933-0.184,1.3-0.55C14.767,1.867,14.95,1.434,14.95,0.9z"/>
		</g>
	</g>
</symbol>
<symbol  id="cubimal_x5F_mc" viewBox="-0.385 -24.104 32.185 26.904">
	<g id="Layer_5_1_">
	</g>
	<g id="Layer_4_2_">
	</g>
	<g id="Layer_2_copy_2_">
	</g>
	<g id="Layer_2_2_">
	</g>
	<g id="Layer_1_9_">
		
			<use xlink:href="#cubimal_x5F_scene1"  width="32.185" height="26.904" x="0.015" y="-24.154" transform="matrix(1 0 0 1 -0.3999 0.0498)" style="overflow:visible;"/>
	</g>
	<g id="Layer_6_1_">
	</g>
</symbol>
<symbol  id="cubimal_x5F_scene1" viewBox="0.015 -24.154 32.185 26.904">
	<g id="Layer_1_8_">
		
			<use xlink:href="#winder_x5F_static"  width="10.185" height="8.474" x="0.015" y="-8.472" transform="matrix(1 0 0 1 0 -7.9502)" style="overflow:visible;"/>
		
			<use xlink:href="#cubimal_1_"  width="25.8" height="26.904" x="0.4" y="-24.154" transform="matrix(1 0 0 1 6 0)" style="overflow:visible;"/>
	</g>
</symbol>
<symbol  id="winder_x5F_static" viewBox="0.015 -8.472 10.185 8.474">
	<g id="Layer_4_1_">
		
			<use xlink:href="#winderedge"  width="4.537" height="8.127" x="0.015" y="-8.126" transform="matrix(1 0 0 1 0.7002 0)" style="overflow:visible;"/>
	</g>
	<g id="Layer_3_1_">
		
			<use xlink:href="#winderfacehighlight"  width="4.573" height="8.174" x="0.016" y="-8.173" transform="matrix(1 0 0 1 0.2002 -0.2002)" style="overflow:visible;"/>
	</g>
	<g id="Layer_2_copy_1_">
		
			<use xlink:href="#winderface1a"  width="4.573" height="8.174" x="0.015" y="-8.172" transform="matrix(1 0 0 1 0 -0.2998)" style="overflow:visible;"/>
	</g>
	<g id="Layer_1_7_">
		<g>
			
				<linearGradient id="SVGID_14_" gradientUnits="userSpaceOnUse" x1="1515.5659" y1="-17620.7891" x2="1516.8853" y2="-17620.7891" gradientTransform="matrix(-0.1705 -0.9854 0.9854 -0.1705 17628.541 -1516.4619)">
				<stop  offset="0" style="stop-color:#8F8F8F"/>
				<stop  offset="0.2275" style="stop-color:#E8E8E8"/>
				<stop  offset="1" style="stop-color:#696969"/>
			</linearGradient>
			<path style="fill-rule:evenodd;clip-rule:evenodd;fill:url(#SVGID_14_);" d="M10.2-6.3L4.8-5.5C4.5-5.533,4.351-5.366,4.351-5
				c0,0.233,0.083,0.4,0.25,0.5c0.066,0.066,0.133,0.1,0.2,0.1l5.4-0.8V-6.3z"/>
		</g>
	</g>
</symbol>
<symbol  id="winderedge" viewBox="0.015 -8.126 4.537 8.127">
	<g id="Layer_1_4_">
		<g>
			
				<linearGradient id="SVGID_15_" gradientUnits="userSpaceOnUse" x1="6.21" y1="-16350.5176" x2="13.035" y2="-16350.5176" gradientTransform="matrix(1.465202e-004 -1 1 -0.001 16352.8027 -10.1782)">
				<stop  offset="0" style="stop-color:#8F8F8F"/>
				<stop  offset="0.2275" style="stop-color:#E8E8E8"/>
				<stop  offset="1" style="stop-color:#696969"/>
			</linearGradient>
			<path style="fill-rule:evenodd;clip-rule:evenodd;fill:url(#SVGID_15_);" d="M3.5-5.899c0.066,0.6-0.083,0.983-0.45,1.15L2.6-4.7
				C2.367-4.7,2.167-4.733,2-4.8c-0.533-0.167-0.833-0.533-0.9-1.1c-0.034-0.5,0.1-0.85,0.4-1.05c0.434-0.233,0.867-0.233,1.3,0
				C3.2-6.716,3.434-6.366,3.5-5.899z M0.05-1.25c0.1,0.8,0.5,1.216,1.2,1.25c1.367,0.033,2.333-0.633,2.9-2
				c0.5-1.233,0.534-2.05,0.1-2.45c0.434-0.533,0.4-1.333-0.1-2.4c-0.567-1.167-1.533-1.533-2.9-1.1c-0.7,0.233-1.1,0.767-1.2,1.6
				c-0.133,0.867,0.117,1.533,0.75,2L1.25-4L0.8-3.55C0.167-2.85-0.083-2.083,0.05-1.25z M3.5-2.75C3.434-2.25,3.2-1.833,2.8-1.5
				C2.367-1.1,1.934-0.966,1.5-1.1c-0.3-0.133-0.434-0.467-0.4-1C1.167-2.666,1.467-3.116,2-3.45l0.6-0.3L3.05-3.8
				C3.417-3.766,3.566-3.416,3.5-2.75z"/>
		</g>
	</g>
</symbol>
<symbol  id="winderface1a" viewBox="0.015 -8.172 4.573 8.174">
	<g id="Layer_1_2_">
		
			<linearGradient id="SVGID_16_" gradientUnits="userSpaceOnUse" x1="-1921.7793" y1="-13814.5264" x2="-1912.6071" y2="-13814.5264" gradientTransform="matrix(0.2726 -0.9621 0.9621 0.2726 13815.9141 1917.4453)">
			<stop  offset="0" style="stop-color:#E8E8E8"/>
			<stop  offset="1" style="stop-color:#878787"/>
		</linearGradient>
		<path style="fill-rule:evenodd;clip-rule:evenodd;fill:url(#SVGID_16_);" d="M2.05-4.8c-0.566-0.133-0.867-0.483-0.9-1.05
			c-0.033-0.533,0.1-0.9,0.4-1.1c0.4-0.267,0.817-0.267,1.25,0C3.2-6.717,3.433-6.367,3.5-5.9c0.133,0.633,0,1-0.4,1.1L2.65-4.7
			L2.05-4.8z M0.05-1.25C0.183-0.45,0.6-0.033,1.3,0c1.367,0.033,2.333-0.633,2.9-2c0.5-1.233,0.517-2.05,0.05-2.45
			c0.467-0.5,0.45-1.3-0.05-2.4C3.633-8.05,2.667-8.433,1.3-8C0.6-7.733,0.183-7.183,0.05-6.35c-0.133,0.867,0.117,1.533,0.75,2
			L1.3-4L0.8-3.55C0.167-2.85-0.083-2.083,0.05-1.25z M3.5-2.75C3.433-2.25,3.2-1.833,2.8-1.5C2.367-1.1,1.95-0.967,1.55-1.1
			c-0.3-0.133-0.433-0.467-0.4-1c0.033-0.6,0.333-1.05,0.9-1.35l0.6-0.3L3.1-3.8C3.467-3.767,3.6-3.417,3.5-2.75z"/>
	</g>
</symbol>
<symbol  id="winderfacehighlight" viewBox="0.016 -8.173 4.573 8.174">
	<g id="Layer_1_3_">
		
			<linearGradient id="SVGID_17_" gradientUnits="userSpaceOnUse" x1="-1921.7783" y1="-13814.5264" x2="-1912.6061" y2="-13814.5264" gradientTransform="matrix(0.2726 -0.9621 0.9621 0.2726 13815.9141 1917.4453)">
			<stop  offset="0" style="stop-color:#E8E8E8"/>
			<stop  offset="1" style="stop-color:#EDEDED"/>
		</linearGradient>
		<path style="fill-rule:evenodd;clip-rule:evenodd;fill:url(#SVGID_17_);" d="M2.05-4.8c-0.567-0.133-0.867-0.483-0.9-1.05
			c-0.033-0.533,0.1-0.9,0.4-1.1c0.4-0.267,0.817-0.267,1.25,0C3.2-6.717,3.434-6.367,3.5-5.9c0.1,0.6-0.034,0.967-0.4,1.1L2.65-4.7
			L2.05-4.8z M0.05-1.25C0.184-0.45,0.601-0.034,1.3,0c1.367,0.034,2.333-0.633,2.9-2c0.5-1.233,0.517-2.05,0.05-2.45
			c0.466-0.5,0.45-1.3-0.05-2.4C3.634-8.05,2.667-8.434,1.3-8c-0.7,0.267-1.117,0.817-1.25,1.65c-0.133,0.867,0.117,1.534,0.75,2
			L1.3-4L0.8-3.55C0.167-2.851-0.083-2.084,0.05-1.25z M1.55-1.101c-0.3-0.133-0.433-0.466-0.4-1c0.033-0.6,0.333-1.05,0.9-1.35
			l0.6-0.3l0.45-0.05c0.366,0.033,0.5,0.383,0.4,1.05C3.434-2.25,3.2-1.834,2.8-1.5C2.367-1.101,1.95-0.967,1.55-1.101z"/>
	</g>
</symbol>
<use xlink:href="#cubimal_x5F_mc"  width="32.185" height="26.904" id="cubimal" x="-0.385" y="-24.104" transform="matrix(1 0 0 -1 0.3999 2.7998)" style="overflow:visible;"/>
</svg>
