<?xml version="1.0" encoding="iso-8859-1"?>
<!-- Generator: Adobe Illustrator 15.1.0, SVG Export Plug-In . SVG Version: 6.00 Build 0)  -->
<!DOCTYPE svg PUBLIC "-//W3C//DTD SVG 1.1//EN" "http://www.w3.org/Graphics/SVG/1.1/DTD/svg11.dtd">
<svg version="1.1" id="FlashAICB" xmlns="http://www.w3.org/2000/svg" xmlns:xlink="http://www.w3.org/1999/xlink" x="0px" y="0px"
	 width="30px" height="25.55px" viewBox="0 0 30 25.55" style="enable-background:new 0 0 30 25.55;" xml:space="preserve">
<g>
	<path style="fill-rule:evenodd;clip-rule:evenodd;fill:#648C75;" d="M19,6.8l-0.05-0.2c0.033-0.1,0.066-0.217,0.1-0.35v0.1
		L19.15,6.6c0.033-0.333,0.066-0.583,0.1-0.75c0.066-0.1,0.15-0.184,0.25-0.25l0.7-0.3L29.1,1.1h0.051L29.3,1
		c-0.033,0.033-0.05,0.067-0.05,0.1c-0.7,0.633-1.35,1.2-1.95,1.7c-1.066,0.8-1.816,1.3-2.25,1.5L19,6.8z"/>
	<path style="fill-rule:evenodd;clip-rule:evenodd;fill:#86BC9C;" d="M29.45,1.1c-0.834,0.667-1.55,1.233-2.15,1.7
		c0.601-0.5,1.25-1.066,1.95-1.7C29.316,1.1,29.384,1.1,29.45,1.1z M22.35,1.1C22.15,0.933,21.7,0.85,21,0.85L14.65,0.7
		c-1.533,0-2.767,0.233-3.7,0.7L7.5,3.2C7.1,3.4,6.967,3.583,7.1,3.75c0.1,0.167,0.433,0.267,1,0.3l5.8,0.3
		c0.633,0.066,1.35,0.033,2.15-0.1c0.767-0.133,1.384-0.317,1.851-0.55l4-1.95C22.366,1.517,22.517,1.3,22.35,1.1z M20.2,5.3
		l-0.7,0.3c-0.1,0.066-0.184,0.15-0.25,0.25c0.033-0.167,0.066-0.25,0.1-0.25C19.616,5.5,19.9,5.4,20.2,5.3z M0,5.7l2-1.4
		C4.5,2.9,7.367,1.467,10.6,0l9.5,0.3c1.859,0,4.859,0.267,9,0.8L18.9,5.45L3.65,4.9L14.4,5.5c0.8,0.067,2.317,0.15,4.55,0.25
		l0.1,0.5c-0.033,0.133-0.066,0.25-0.1,0.35L19,6.8l-7.45-0.55c-1.667-0.167-4.083-0.3-7.25-0.4L0,5.7z"/>
	<path style="fill-rule:evenodd;clip-rule:evenodd;fill:#8BB662;" d="M28.75,4.6c0.2-0.067,0.316,0.2,0.35,0.8
		c0.034,0.333,0.051,0.8,0.051,1.4c0.033,0.333,0.033,0.567,0,0.7c-0.067,0.2-0.217,0.35-0.45,0.45c-0.9,0.533-1.4,0.8-1.5,0.8
		c-0.167-0.033-0.233-0.5-0.2-1.4c0-0.833,0.033-1.4,0.1-1.7C27.167,5.45,27.717,5.1,28.75,4.6z M26.4,17
		c0.033,0.366,0.05,0.85,0.05,1.45c0.033,0.366,0.033,0.6,0,0.7c-0.066,0.199-0.233,0.366-0.5,0.5C25.517,19.917,25.2,20.1,25,20.2
		c-0.4,0.233-0.667,0.333-0.8,0.3c-0.167,0-0.25-0.483-0.25-1.45c0-0.899,0.05-1.467,0.149-1.7C24.2,17.083,24.833,16.7,26,16.2
		C26.233,16.1,26.366,16.366,26.4,17z"/>
	<path style="fill-rule:evenodd;clip-rule:evenodd;fill:#73A085;" d="M28.75,4.6c-1.033,0.5-1.583,0.85-1.65,1.05
		c-0.066,0.3-0.1,0.867-0.1,1.7c-0.033,0.9,0.033,1.367,0.2,1.4c0.1,0,0.6-0.267,1.5-0.8c0.233-0.1,0.383-0.25,0.45-0.45
		c0.033-0.133,0.033-0.367,0-0.7c0-0.6-0.017-1.066-0.051-1.4C29.066,4.8,28.95,4.533,28.75,4.6z M19.15,23.8v1.75
		c0.199-0.6,0.3-1.35,0.3-2.25L19.35,7.1L25,4.8c1.167-0.566,2.65-1.8,4.45-3.7L29.7,5c0.166,2.833,0.25,4.833,0.25,6
		c0,1.867-0.066,4.467-0.2,7.8c-2.9,2.267-4.884,3.733-5.95,4.4c-0.666,0.434-1.633,0.95-2.899,1.55l-1.75,0.8L17.5,25.4L19.15,23.8
		z M23.95,9.1c0,0.967,0.083,1.467,0.25,1.5c0.133,0,0.399-0.1,0.8-0.3c0.2-0.133,0.517-0.316,0.95-0.55
		c0.267-0.1,0.434-0.25,0.5-0.45c0.033-0.133,0.033-0.383,0-0.75c0-0.6-0.017-1.083-0.05-1.45c-0.034-0.633-0.167-0.9-0.4-0.8
		c-1.134,0.367-1.767,0.733-1.9,1.1C24,7.633,23.95,8.2,23.95,9.1z M20.65,9.2c-0.067,0.3-0.101,0.883-0.101,1.75
		c-0.033,0.933,0.033,1.417,0.2,1.45c0.233,0.033,0.816-0.233,1.75-0.8c0.267-0.133,0.434-0.3,0.5-0.5
		c0.033-0.133,0.033-0.383,0-0.75c0-0.6,0-1.067,0-1.4c-0.066-0.633-0.217-0.917-0.45-0.85C21.35,8.633,20.717,9,20.65,9.2z
		 M27,12.3c-0.033,0.9,0.033,1.367,0.2,1.4c0.2,0.033,0.7-0.233,1.5-0.8c0.267-0.133,0.416-0.3,0.45-0.5
		c0.033-0.1,0.033-0.333,0-0.7c0-0.6-0.017-1.067-0.051-1.4c-0.033-0.6-0.149-0.85-0.35-0.75c-0.967,0.4-1.517,0.75-1.65,1.05
		C27.033,10.9,27,11.467,27,12.3z M26,11.25c-1.167,0.5-1.8,0.883-1.9,1.15c-0.1,0.233-0.149,0.8-0.149,1.7
		c0,0.967,0.083,1.45,0.25,1.45c0.133,0.033,0.399-0.05,0.8-0.25c0.2-0.133,0.517-0.316,0.95-0.55c0.267-0.134,0.434-0.3,0.5-0.5
		c0.033-0.134,0.033-0.384,0-0.75c0-0.6-0.017-1.083-0.05-1.45C26.366,11.417,26.233,11.15,26,11.25z M28.75,14.45
		c-0.967,0.399-1.517,0.767-1.65,1.1c-0.066,0.267-0.1,0.816-0.1,1.65c-0.033,0.934,0.033,1.399,0.2,1.399c0.1,0,0.6-0.267,1.5-0.8
		c0.267-0.133,0.416-0.3,0.45-0.5c0.033-0.1,0.033-0.333,0-0.7c0-0.566-0.017-1.017-0.051-1.35
		C29.066,14.616,28.95,14.35,28.75,14.45z M26.4,17c-0.034-0.634-0.167-0.9-0.4-0.8c-1.167,0.5-1.8,0.883-1.9,1.149
		c-0.1,0.233-0.149,0.801-0.149,1.7c0,0.967,0.083,1.45,0.25,1.45c0.133,0.033,0.399-0.066,0.8-0.3c0.2-0.101,0.517-0.283,0.95-0.55
		c0.267-0.134,0.434-0.301,0.5-0.5c0.033-0.101,0.033-0.334,0-0.7C26.45,17.85,26.434,17.366,26.4,17z M23,13.95
		c-0.066-0.634-0.217-0.9-0.45-0.8c-1.133,0.433-1.767,0.8-1.899,1.1c-0.067,0.3-0.101,0.884-0.101,1.75
		c-0.033,0.934,0.033,1.417,0.2,1.45c0.134,0.033,0.4-0.066,0.8-0.3c0.233-0.101,0.55-0.284,0.95-0.551
		c0.267-0.133,0.434-0.3,0.5-0.5c0.033-0.1,0.033-0.333,0-0.699C23,14.8,23,14.316,23,13.95z M20.75,22.45
		c0.134,0,0.717-0.283,1.75-0.851c0.267-0.166,0.434-0.35,0.5-0.55c0.033-0.1,0.033-0.333,0-0.7c0-0.6,0-1.083,0-1.449
		c-0.066-0.634-0.217-0.9-0.45-0.801c-1.166,0.534-1.8,0.917-1.899,1.15c-0.067,0.3-0.101,0.884-0.101,1.75
		C20.517,21.934,20.583,22.417,20.75,22.45z M4,15.35v0.45c-0.033-0.033-0.067-0.05-0.1-0.05c0.033,0.033,0.067,0.083,0.1,0.15
		c0.067,0.133,0.067,0.25,0,0.35l-0.1,0.1c-0.267,0.101-0.517,0.101-0.75,0c0.1,0.334,0.067,0.551-0.1,0.65
		c-0.1,0.1-0.233,0.134-0.4,0.1c-0.2-0.066-0.367-0.216-0.5-0.449L2,16.4l-0.1,0.25c-0.133,0.199-0.267,0.333-0.4,0.399
		C1.333,17.15,1.15,17.134,0.95,17c-0.034-0.033-0.05-0.066-0.05-0.1c-0.066-0.167-0.083-0.351-0.05-0.551L0.4,16.4
		c-0.033-0.467-0.05-0.9-0.05-1.301l0.1-0.05c0.133,0.134,0.333,0.15,0.6,0.05c-0.033,0.267,0,0.45,0.1,0.551
		c0.3,0.199,0.55,0.1,0.75-0.301l0.15-0.199l0.1,0.199c0.233,0.467,0.483,0.567,0.75,0.301C3.033,15.55,3.067,15.366,3,15.1
		c0.233,0.101,0.433,0.101,0.6,0l0.35,0.2L4,15.35z M18.95,15.45v1.45c-0.134,0.066-0.316,0.066-0.55,0
		c0.133,0.333,0.116,0.583-0.051,0.75c-0.1,0.133-0.25,0.199-0.449,0.199c-0.134-0.033-0.25-0.083-0.351-0.149
		c-0.1-0.066-0.2-0.167-0.3-0.3l-0.2-0.301l-0.1,0.301c-0.134,0.3-0.316,0.483-0.55,0.55c-0.2,0.066-0.367,0.05-0.5-0.05
		c-0.167-0.134-0.233-0.367-0.2-0.7c-0.2,0.066-0.417,0.1-0.65,0.1v-1.55c0.267,0.1,0.517,0.083,0.75-0.05
		c-0.033,0.3,0.017,0.5,0.15,0.6c0.333,0.267,0.616,0.134,0.85-0.399L16.9,15.6L17.05,15.9c0.367,0.466,0.684,0.533,0.95,0.199
		c0.134-0.133,0.134-0.35,0-0.649c0.267,0.066,0.517,0.033,0.75-0.101L18.95,15.45z M1.8,23.65l4.15-4c0.533,0,1.066,0.033,1.6,0.1
		c0.1,0,0.217,0.017,0.35,0.05l-0.1,0.05L3.3,24c-0.4-0.066-0.783-0.15-1.15-0.25L1.8,23.65z M0.7,22.55l-0.1-2
		c0.233-0.1,0.483-0.184,0.75-0.25c0.4-0.166,0.816-0.283,1.25-0.35c0.4-0.101,0.8-0.167,1.2-0.2L0.7,22.55z M9.55,20.2
		c0.5,0.133,1.083,0.3,1.75,0.5c0.067,0,0.133,0.017,0.2,0.05l-4.1,3.7l0.5,0.05c-0.505-0.041-0.972-0.075-1.4-0.1
		c-0.433-0.034-0.833-0.067-1.2-0.101L9.55,20.2z M14.75,21.75L11.4,24.8l0.65,0.101c-0.966-0.101-1.85-0.184-2.65-0.25L13,21.2
		c0.3,0.1,0.6,0.2,0.9,0.3C14.2,21.6,14.483,21.684,14.75,21.75z M18.4,22.5l-2.95,2.7l-1.8-0.175
		c-0.083-0.009-0.167-0.017-0.25-0.025l2.9-2.8L15.55,22c0.434,0.1,0.851,0.2,1.25,0.3C17.4,22.4,17.934,22.467,18.4,22.5z"/>
	<path style="fill-rule:evenodd;clip-rule:evenodd;fill:#D4F3E2;" d="M19.15,25.55V23.8L19.1,22.45l-0.05-2L19,18.5l-0.05-1.6v-1.45
		l-0.05-0.7v-0.2L18.85,11.6l-0.1-3.95C10.35,6.717,4.1,6.067,0,5.7l4.3,0.15c3.167,0.1,5.583,0.233,7.25,0.4L19,6.8l6.05-2.5
		c0.434-0.2,1.184-0.7,2.25-1.5c0.601-0.466,1.316-1.033,2.15-1.7C27.65,3,26.167,4.233,25,4.8l-5.65,2.3l0.101,16.2
		C19.45,24.2,19.35,24.95,19.15,25.55z"/>
	<path style="fill-rule:evenodd;clip-rule:evenodd;fill:#BCAC41;" d="M22.35,1.1c0.167,0.2,0.017,0.417-0.449,0.65l-4,1.95
		c-0.467,0.233-1.084,0.417-1.851,0.55c-0.8,0.133-1.517,0.167-2.15,0.1l-5.8-0.3c-0.567-0.033-0.9-0.133-1-0.3
		C6.967,3.583,7.1,3.4,7.5,3.2l3.45-1.8c0.933-0.467,2.167-0.7,3.7-0.7L21,0.85C21.7,0.85,22.15,0.933,22.35,1.1z M18.75,2.75
		c0.333-0.167,0.267-0.25-0.2-0.25c-0.467-0.067-0.883,0-1.25,0.2C17.066,2.833,17.15,2.933,17.55,3
		C18.083,3,18.483,2.917,18.75,2.75z M12.25,3.25c0.133,0,0.267,0,0.4,0c1.4,0.067,2.4-0.033,3-0.3L11.4,2.8L11.25,3
		C11.317,3.1,11.65,3.183,12.25,3.25z M11.15,2.45c0.267-0.1,0.217-0.184-0.15-0.25c-0.467,0-0.833,0.083-1.1,0.25
		c-0.267,0.1-0.2,0.183,0.2,0.25C10.533,2.7,10.883,2.617,11.15,2.45z M4,15.8v-0.45L3.9,10.7c0-0.667,0.217-1.217,0.65-1.65
		c0.467-0.433,1.017-0.633,1.65-0.6l6.4,0.35c0.667,0.067,1.25,0.35,1.75,0.85c0.467,0.533,0.7,1.133,0.7,1.8v3.2v0.5
		c-0.2,0.233-0.2,0.416,0,0.55v0.05v1.55v0.05c0,0.534-0.15,1-0.45,1.4c-0.067,0.1-0.15,0.184-0.25,0.25
		c-0.367,0.333-0.783,0.517-1.25,0.55c-0.167,0.033-0.333,0.033-0.5,0L7,19l-0.65-0.05c-0.167-0.033-0.333-0.066-0.5-0.101
		C5.717,18.816,5.6,18.767,5.5,18.7c-0.133-0.066-0.267-0.15-0.4-0.25l0.2,0.2l0.05,0.399v0.55c-0.233,0-0.45,0.017-0.65,0.051V18.9
		v-0.25l0.25-0.2L5,18.35C4.9,18.283,4.817,18.2,4.75,18.1C4.583,17.9,4.433,17.7,4.3,17.5c-0.167-0.333-0.267-0.7-0.3-1.1v-0.15
		c0.067-0.1,0.067-0.217,0-0.35V15.8z M5.55,14.75c0.434,0.066,0.65-0.2,0.65-0.8C6.133,13.384,5.883,13.066,5.45,13
		C5.283,12.967,5.133,13.033,5,13.2c-0.133,0.166-0.183,0.366-0.15,0.6C4.85,14.366,5.083,14.684,5.55,14.75z M8.625,16.825
		c0.039,0.007,0.08,0.016,0.125,0.024c0.167,0.034,0.333,0.051,0.5,0.051c0.267,0.033,0.517,0.05,0.75,0.05
		c0.133-0.033,0.267-0.05,0.4-0.05c0.367-0.101,0.65-0.25,0.85-0.45c0.2-0.167,0.3-0.367,0.3-0.601L7.1,15.5l0.25,0.65
		C7.629,16.46,8.054,16.685,8.625,16.825z M1.4,18.5c0.2-0.066,0.35-0.217,0.45-0.45L2,17.75l0.15,0.3
		c0.133,0.2,0.267,0.351,0.4,0.45l0.05,1.45c-0.434,0.066-0.85,0.184-1.25,0.35L1.4,18.5z M13.25,15.4
		c0.2,0.033,0.367-0.034,0.5-0.2c0.167-0.167,0.233-0.367,0.2-0.601c0-0.566-0.233-0.883-0.7-0.949
		c-0.2-0.034-0.367,0.033-0.5,0.199c-0.133,0.167-0.2,0.367-0.2,0.601C12.55,15.017,12.783,15.333,13.25,15.4z M18.4,22.5
		c-0.467-0.033-1-0.1-1.601-0.2l-0.149-2.5L16.6,19.6c0.167-0.033,0.334-0.216,0.5-0.55L17.2,18.65l0.2,0.399l0.55,0.4l0.1,0.6
		L18.4,22.5z"/>
	<path style="fill-rule:evenodd;clip-rule:evenodd;fill:#B19B62;" d="M23.95,9.1c0-0.9,0.05-1.467,0.149-1.7
		c0.134-0.367,0.767-0.733,1.9-1.1c0.233-0.1,0.366,0.167,0.4,0.8c0.033,0.367,0.05,0.85,0.05,1.45c0.033,0.367,0.033,0.617,0,0.75
		c-0.066,0.2-0.233,0.35-0.5,0.45C25.517,9.983,25.2,10.167,25,10.3c-0.4,0.2-0.667,0.3-0.8,0.3
		C24.033,10.567,23.95,10.067,23.95,9.1z M27,12.3c0-0.833,0.033-1.4,0.1-1.7c0.134-0.3,0.684-0.65,1.65-1.05
		c0.2-0.1,0.316,0.15,0.35,0.75c0.034,0.333,0.051,0.8,0.051,1.4c0.033,0.367,0.033,0.6,0,0.7c-0.034,0.2-0.184,0.367-0.45,0.5
		c-0.8,0.567-1.3,0.833-1.5,0.8C27.033,13.667,26.967,13.2,27,12.3z"/>
	<path style="fill-rule:evenodd;clip-rule:evenodd;fill:#A4B863;" d="M20.65,9.2C20.717,9,21.35,8.633,22.55,8.1
		c0.233-0.067,0.384,0.217,0.45,0.85c0,0.333,0,0.8,0,1.4c0.033,0.367,0.033,0.617,0,0.75c-0.066,0.2-0.233,0.367-0.5,0.5
		c-0.934,0.566-1.517,0.833-1.75,0.8c-0.167-0.033-0.233-0.517-0.2-1.45C20.55,10.083,20.583,9.5,20.65,9.2z"/>
	<path style="fill-rule:evenodd;clip-rule:evenodd;fill:#B9B963;" d="M26,11.25c0.233-0.1,0.366,0.167,0.4,0.8
		c0.033,0.367,0.05,0.85,0.05,1.45c0.033,0.366,0.033,0.616,0,0.75c-0.066,0.2-0.233,0.366-0.5,0.5
		c-0.434,0.233-0.75,0.417-0.95,0.55c-0.4,0.2-0.667,0.283-0.8,0.25c-0.167,0-0.25-0.483-0.25-1.45c0-0.899,0.05-1.466,0.149-1.7
		C24.2,12.133,24.833,11.75,26,11.25z M20.75,22.45c-0.167-0.033-0.233-0.517-0.2-1.45c0-0.866,0.033-1.45,0.101-1.75
		c0.1-0.233,0.733-0.616,1.899-1.15C22.783,18,22.934,18.267,23,18.9c0,0.366,0,0.85,0,1.449c0.033,0.367,0.033,0.601,0,0.7
		c-0.066,0.2-0.233,0.384-0.5,0.55C21.467,22.167,20.884,22.45,20.75,22.45z"/>
	<path style="fill-rule:evenodd;clip-rule:evenodd;fill:#B7AF63;" d="M28.75,14.45c0.2-0.101,0.316,0.166,0.35,0.8
		c0.034,0.333,0.051,0.783,0.051,1.35c0.033,0.367,0.033,0.601,0,0.7c-0.034,0.2-0.184,0.367-0.45,0.5c-0.9,0.533-1.4,0.8-1.5,0.8
		c-0.167,0-0.233-0.466-0.2-1.399c0-0.834,0.033-1.384,0.1-1.65C27.233,15.217,27.783,14.85,28.75,14.45z"/>
	<path style="fill-rule:evenodd;clip-rule:evenodd;fill:#87A7B9;" d="M23,13.95c0,0.366,0,0.85,0,1.45
		c0.033,0.366,0.033,0.6,0,0.699c-0.066,0.2-0.233,0.367-0.5,0.5c-0.4,0.267-0.717,0.45-0.95,0.551
		c-0.399,0.233-0.666,0.333-0.8,0.3c-0.167-0.033-0.233-0.517-0.2-1.45c0-0.866,0.033-1.45,0.101-1.75
		c0.133-0.3,0.767-0.667,1.899-1.1C22.783,13.05,22.934,13.316,23,13.95z"/>
	<path style="fill-rule:evenodd;clip-rule:evenodd;fill:#7C712B;" d="M18.75,2.75C18.483,2.917,18.083,3,17.55,3
		c-0.399-0.067-0.483-0.167-0.25-0.3c0.367-0.2,0.783-0.267,1.25-0.2C19.017,2.5,19.083,2.583,18.75,2.75z M11.15,2.45
		C10.883,2.617,10.533,2.7,10.1,2.7C9.7,2.633,9.633,2.55,9.9,2.45C10.167,2.283,10.533,2.2,11,2.2
		C11.367,2.267,11.417,2.35,11.15,2.45z M5.55,14.75c-0.466-0.066-0.7-0.384-0.7-0.95C4.817,13.566,4.867,13.366,5,13.2
		c0.133-0.167,0.283-0.233,0.45-0.2c0.433,0.066,0.683,0.384,0.75,0.95C6.2,14.55,5.983,14.816,5.55,14.75z M13.25,15.4
		c-0.467-0.067-0.7-0.384-0.7-0.95c0-0.233,0.067-0.434,0.2-0.601c0.133-0.166,0.3-0.233,0.5-0.199c0.467,0.066,0.7,0.383,0.7,0.949
		c0.033,0.233-0.034,0.434-0.2,0.601C13.617,15.366,13.45,15.434,13.25,15.4z"/>
	<path style="fill-rule:evenodd;clip-rule:evenodd;fill:#B2E5C8;" d="M19.25,5.85c-0.033,0.167-0.066,0.417-0.1,0.75L19.05,6.35
		v-0.1l-0.1-0.5c-2.233-0.1-3.75-0.183-4.55-0.25L3.65,4.9L18.9,5.45L29.1,1.1L20.2,5.3c-0.3,0.1-0.584,0.2-0.851,0.3
		C19.316,5.6,19.283,5.683,19.25,5.85z"/>
	<path style="fill-rule:evenodd;clip-rule:evenodd;fill:#79682A;" d="M12.65,3.25h1.15c0-0.133-0.216-0.2-0.65-0.2
		c-0.433-0.033-0.883,0-1.35,0.1c0.133,0.033,0.284,0.067,0.45,0.1c-0.6-0.067-0.933-0.15-1-0.25l0.15-0.2l4.25,0.15
		C15.05,3.217,14.05,3.317,12.65,3.25z M10.4,16.9c-0.3-0.434-0.667-0.65-1.1-0.65c-0.4-0.033-0.75,0.116-1.05,0.45
		c0.123,0.049,0.248,0.091,0.375,0.125C8.054,16.685,7.629,16.46,7.35,16.15L7.1,15.5l4.45,0.35c0,0.233-0.1,0.434-0.3,0.601
		C11.05,16.65,10.767,16.8,10.4,16.9z"/>
	<path style="fill-rule:evenodd;clip-rule:evenodd;fill:#A1783A;" d="M12.25,3.25c-0.167-0.033-0.317-0.067-0.45-0.1
		c0.467-0.1,0.917-0.133,1.35-0.1c0.434,0,0.65,0.067,0.65,0.2h-1.15C12.517,3.25,12.383,3.25,12.25,3.25z M8.625,16.825
		C8.498,16.791,8.373,16.749,8.25,16.7c0.3-0.334,0.65-0.483,1.05-0.45c0.434,0,0.8,0.217,1.1,0.65c-0.133,0-0.267,0.017-0.4,0.05
		c-0.233,0-0.483-0.017-0.75-0.05c-0.167,0-0.333-0.017-0.5-0.051C8.705,16.841,8.664,16.832,8.625,16.825z"/>
	<path style="fill-rule:evenodd;clip-rule:evenodd;fill:#D1EEDF;" d="M4,15.35L3.95,15.3L3.6,15.1v-0.05
		c0.167-0.1,0.15-0.25-0.05-0.45h0.3C3.983,14.533,3.9,14.4,3.6,14.2L3.3,14c0-0.1-0.033-0.184-0.1-0.25h0.2
		c0.133-0.066,0.083-0.184-0.15-0.35L2.6,12.9c-0.267-0.167-0.434-0.367-0.5-0.6H2.05v-0.05L2,12.3l-0.5,0.6l-0.7,0.5
		c-0.267,0.199-0.316,0.3-0.15,0.3c0.033,0.033,0.1,0.033,0.2,0L0.75,14l-0.3,0.2l-0.1,0.1v0.3l0.15-0.05l-0.15,0.3
		C0.317,14.017,0.3,13.366,0.3,12.9L0,5.7c4.1,0.367,10.35,1.017,18.75,1.95l0.1,3.95c-0.399,0.066-0.616,0.217-0.649,0.45
		c0,0.133,0.033,0.25,0.1,0.35l-0.45,0.1c-0.166,0.033-0.316,0.217-0.449,0.55l-0.101-0.1c-0.366-0.333-0.6-0.534-0.7-0.6V12.3
		l-0.05-0.05v0.05l-0.05,0.05L16,13.1l-0.7,0.65c-0.233,0.2-0.283,0.333-0.149,0.4L15.35,14.1c-0.066,0.167-0.083,0.284-0.05,0.351
		l-0.25,0.2v-3.2c0-0.667-0.233-1.267-0.7-1.8c-0.5-0.5-1.083-0.783-1.75-0.85L6.2,8.45c-0.633-0.034-1.184,0.167-1.65,0.6
		C4.117,9.483,3.9,10.033,3.9,10.7L4,15.35z M0.35,14.85l0.1,0.2l-0.1,0.05C0.35,15,0.35,14.917,0.35,14.85z M4,16.4L3.9,16.35
		l0.1-0.1V16.4z M4,15.8V15.9c-0.033-0.067-0.067-0.117-0.1-0.15C3.933,15.75,3.967,15.767,4,15.8z M4.7,18.65v0.25l-1.1-0.2
		L3.45,18.35c0-0.066-0.034-0.116-0.1-0.149c0.033-0.134,0.017-0.3-0.05-0.5l0.35,0.1l0.05,0.05h0.2
		C3.8,17.95,3.783,18.066,3.85,18.2c0.133,0.066,0.283,0.083,0.45,0.05c-0.066,0.167-0.033,0.283,0.1,0.35
		C4.433,18.7,4.533,18.717,4.7,18.65z M7,19l5.6,0.55c0.167,0.033,0.333,0.033,0.5,0c-0.067,0.066-0.117,0.134-0.15,0.2
		c-0.034,0.134-0.05,0.3-0.05,0.5c-0.467,0.1-1,0.25-1.6,0.45c-0.667-0.2-1.25-0.367-1.75-0.5v-0.05L9,20.05
		c-0.133-0.2-0.317-0.399-0.55-0.6c-0.233-0.2-0.517-0.283-0.85-0.25L7.15,19.35C7.15,19.217,7.1,19.1,7,19z M5.85,18.85
		c-0.033,0-0.067,0.017-0.1,0.051L5.55,19.1l-0.2-0.05L5.3,18.65c0.067,0.033,0.133,0.05,0.2,0.05
		C5.6,18.767,5.717,18.816,5.85,18.85z"/>
	<path style="fill-rule:evenodd;clip-rule:evenodd;fill:#8FC4A4;" d="M18.25,14.15L18.2,14.3c-0.101,0.167-0.283,0.2-0.55,0.101
		c0.066,0.166,0.066,0.366,0,0.6l-0.25,0.15c-0.167,0-0.317-0.134-0.45-0.4c-0.101-0.033-0.15-0.167-0.15-0.4l-0.1,0.45
		c-0.134,0.434-0.351,0.55-0.65,0.351c-0.1-0.101-0.133-0.284-0.1-0.551c-0.233,0.167-0.434,0.167-0.601,0L15.3,14.45
		c-0.033-0.066-0.017-0.184,0.05-0.351L15.15,14.15c-0.134-0.067-0.084-0.2,0.149-0.4L16,13.1l0.5-0.75l0.05-0.05v-0.05l0.05,0.05
		v0.05c0.101,0.066,0.334,0.267,0.7,0.6l0.101,0.1l0.699,0.4c0.267,0.166,0.351,0.283,0.25,0.35l-0.25,0.05L18.25,14.15z M3.3,14
		l-0.05,0.15c-0.133,0.133-0.3,0.149-0.5,0.05c0.067,0.267,0.05,0.416-0.05,0.45c-0.2,0.199-0.4,0.116-0.6-0.25L2.05,14.05
		L1.95,14.4c-0.167,0.399-0.367,0.483-0.6,0.25c-0.067-0.134-0.083-0.284-0.05-0.45c-0.133,0.066-0.3,0.05-0.5-0.05L0.75,14l0.1-0.3
		c-0.1,0.033-0.167,0.033-0.2,0c-0.167,0-0.117-0.101,0.15-0.3l0.7-0.5L2,12.3l0.05-0.05v0.05H2.1c0.066,0.233,0.233,0.434,0.5,0.6
		l0.65,0.5c0.233,0.166,0.283,0.283,0.15,0.35H3.2C3.267,13.816,3.3,13.9,3.3,14z"/>
	<path style="fill-rule:evenodd;clip-rule:evenodd;fill:#FFFFFF;" d="M18.9,14.55c-0.067-0.066-0.15-0.133-0.25-0.2l-0.4-0.199
		L18.1,13.85l0.25-0.05c0.101-0.066,0.017-0.184-0.25-0.35l-0.699-0.4c0.133-0.333,0.283-0.517,0.449-0.55l0.45-0.1
		c-0.066-0.1-0.1-0.217-0.1-0.35c0.033-0.233,0.25-0.383,0.649-0.45L18.9,14.55z M19,18.5l0.05,1.95c-0.333-0.167-0.666-0.3-1-0.4
		l-0.1-0.6c0.233,0.1,0.483,0.066,0.75-0.101c0.166-0.233,0.184-0.533,0.05-0.899L19,18.5z M2.55,18.5
		c0.267,0.134,0.483,0.116,0.65-0.05c0.066-0.066,0.117-0.15,0.15-0.25c0.066,0.033,0.1,0.083,0.1,0.149L3.6,18.7l1.1,0.2v0.75
		c-0.367,0-0.667,0.017-0.9,0.05v0.05c-0.4,0.033-0.8,0.1-1.2,0.2L2.55,18.5z M1.4,18.5l-0.05,1.8
		c-0.267,0.066-0.517,0.15-0.75,0.25l-0.1-2.8l0.2-0.05c-0.1,0.333-0.067,0.583,0.1,0.75C0.967,18.583,1.167,18.6,1.4,18.5z
		 M5.35,19.05l0.2,0.05l0.2-0.199c0.033-0.034,0.067-0.051,0.1-0.051c0.167,0.034,0.333,0.067,0.5,0.101L7,19
		c0.1,0.1,0.15,0.217,0.15,0.35L7.6,19.2c0.333-0.033,0.617,0.05,0.85,0.25c0.233,0.2,0.417,0.399,0.55,0.6L8.85,20
		c-0.367-0.1-0.684-0.167-0.95-0.2c-0.133-0.033-0.25-0.05-0.35-0.05c-0.533-0.066-1.066-0.1-1.6-0.1V19.6c-0.233,0-0.434,0-0.6,0
		V19.05z M12.9,20.25c0-0.2,0.017-0.366,0.05-0.5c0.033-0.066,0.083-0.134,0.15-0.2c0.467-0.033,0.883-0.217,1.25-0.55
		c0.1-0.066,0.183-0.15,0.25-0.25c0,0.033,0.017,0.05,0.05,0.05c0.267,0.2,0.617,0.2,1.05,0c-0.101,0.367-0.033,0.634,0.2,0.8
		c0.267,0.167,0.5,0.167,0.699,0l0.051,0.2c-0.667-0.033-1.384,0-2.15,0.101C14.167,19.934,13.633,20.05,12.9,20.25z M18.9,14.75
		l0.05,0.7l-0.2-0.101c0.134-0.166,0.1-0.35-0.1-0.55L18.9,14.75z"/>
	<path style="fill-rule:evenodd;clip-rule:evenodd;fill:#82B596;" d="M18.75,15.35c-0.233,0.134-0.483,0.167-0.75,0.101
		c0.134,0.3,0.134,0.517,0,0.649c-0.267,0.334-0.583,0.267-0.95-0.199L16.9,15.6L16.8,15.9c-0.233,0.533-0.517,0.666-0.85,0.399
		c-0.134-0.1-0.184-0.3-0.15-0.6c-0.233,0.133-0.483,0.149-0.75,0.05V15.7c-0.2-0.134-0.2-0.316,0-0.55v-0.5l0.25-0.2l0.05,0.149
		c0.167,0.167,0.367,0.167,0.601,0c-0.033,0.267,0,0.45,0.1,0.551c0.3,0.199,0.517,0.083,0.65-0.351l0.1-0.45
		c0,0.233,0.05,0.367,0.15,0.4c0.133,0.267,0.283,0.4,0.45,0.4L17.65,15c0.066-0.233,0.066-0.434,0-0.6
		c0.267,0.1,0.449,0.066,0.55-0.101l0.05-0.149l0.4,0.199c0.1,0.067,0.183,0.134,0.25,0.2v0.2l-0.25,0.05
		C18.85,15,18.884,15.184,18.75,15.35z M0.45,15.05l-0.1-0.2l0.15-0.3L0.35,14.6v-0.3l0.1-0.1l0.3-0.2l0.05,0.15
		c0.2,0.1,0.367,0.116,0.5,0.05c-0.033,0.166-0.017,0.316,0.05,0.45c0.233,0.233,0.433,0.149,0.6-0.25l0.1-0.351L2.1,14.4
		c0.2,0.366,0.4,0.449,0.6,0.25c0.1-0.034,0.117-0.184,0.05-0.45c0.2,0.1,0.367,0.083,0.5-0.05L3.3,14l0.3,0.2
		c0.3,0.2,0.383,0.333,0.25,0.399h-0.3c0.2,0.2,0.217,0.351,0.05,0.45v0.05C3.433,15.2,3.233,15.2,3,15.1
		c0.067,0.267,0.033,0.45-0.1,0.551c-0.267,0.267-0.517,0.166-0.75-0.301l-0.1-0.199L1.9,15.35c-0.2,0.4-0.45,0.5-0.75,0.301
		c-0.1-0.101-0.133-0.284-0.1-0.551C0.783,15.2,0.583,15.184,0.45,15.05z"/>
	<path style="fill-rule:evenodd;clip-rule:evenodd;fill:#668E77;" d="M0.5,17.75H0.45L0.4,16.4l0.45-0.051
		c-0.033,0.2-0.017,0.384,0.05,0.551c0,0.033,0.017,0.066,0.05,0.1c0.2,0.134,0.383,0.15,0.55,0.05c0.133-0.066,0.267-0.2,0.4-0.399
		L2,16.4l0.15,0.25c0.133,0.233,0.3,0.383,0.5,0.449c0.167,0.034,0.3,0,0.4-0.1c0.167-0.1,0.2-0.316,0.1-0.65
		c0.233,0.101,0.483,0.101,0.75,0L4,16.4c0.033,0.399,0.133,0.767,0.3,1.1c0,0.066-0.033,0.116-0.1,0.15
		C4.1,17.75,3.917,17.8,3.65,17.8L3.3,17.7c0.067,0.2,0.083,0.366,0.05,0.5c-0.033,0.1-0.083,0.184-0.15,0.25
		c-0.167,0.166-0.383,0.184-0.65,0.05c-0.133-0.1-0.267-0.25-0.4-0.45L2,17.75l-0.15,0.3c-0.1,0.233-0.25,0.384-0.45,0.45
		c-0.233,0.1-0.433,0.083-0.6-0.05c-0.167-0.167-0.2-0.417-0.1-0.75L0.5,17.75z M17.95,19.45l-0.55-0.4l-0.2-0.399L17.1,19.05
		c-0.166,0.334-0.333,0.517-0.5,0.55c-0.199,0.167-0.433,0.167-0.699,0c-0.233-0.166-0.301-0.433-0.2-0.8
		c-0.434,0.2-0.784,0.2-1.05,0c-0.033,0-0.05-0.017-0.05-0.05c0.3-0.4,0.45-0.866,0.45-1.4V17.3c0.233,0,0.45-0.033,0.65-0.1
		c-0.033,0.333,0.033,0.566,0.2,0.7c0.133,0.1,0.3,0.116,0.5,0.05c0.233-0.066,0.416-0.25,0.55-0.55l0.1-0.301l0.2,0.301
		c0.1,0.133,0.2,0.233,0.3,0.3c0.101,0.066,0.217,0.116,0.351,0.149c0.199,0,0.35-0.066,0.449-0.199
		c0.167-0.167,0.184-0.417,0.051-0.75c0.233,0.066,0.416,0.066,0.55,0L19,18.5l-0.25-0.05c0.134,0.366,0.116,0.666-0.05,0.899
		C18.434,19.517,18.184,19.55,17.95,19.45z"/>
	<path style="fill-rule:evenodd;clip-rule:evenodd;fill:#658E76;" d="M4.3,17.5c0.133,0.2,0.284,0.4,0.45,0.6
		C4.817,18.2,4.9,18.283,5,18.35L4.95,18.45l-0.25,0.2C4.533,18.717,4.433,18.7,4.4,18.6c-0.133-0.066-0.167-0.183-0.1-0.35
		c-0.167,0.033-0.316,0.017-0.45-0.05C3.783,18.066,3.8,17.95,3.9,17.85H3.7L3.65,17.8c0.267,0,0.45-0.05,0.55-0.149
		C4.267,17.616,4.3,17.566,4.3,17.5z M5.5,18.7c-0.067,0-0.133-0.017-0.2-0.05l-0.2-0.2C5.233,18.55,5.367,18.634,5.5,18.7z"/>
	<path style="fill-rule:evenodd;clip-rule:evenodd;fill:#80AD8D;" d="M5.35,19.6c0.167,0,0.367,0,0.6,0v0.051l-4.15,4H1.75l-1-0.351
		L0.7,22.55l3.1-2.8V19.7c0.233-0.033,0.534-0.05,0.9-0.05C4.9,19.616,5.117,19.6,5.35,19.6z M7.9,19.8
		C8.167,19.833,8.483,19.9,8.85,20L9,20.05l0.55,0.101v0.05L5.3,24.3H5.25l-0.6-0.1h-0.1L4.3,24.15
		C4.133,24.116,3.983,24.1,3.85,24.1L3.3,24l4.5-4.15L7.9,19.8z M11.5,20.75V20.7l1.5,0.5l-3.6,3.45L7.9,24.5l-0.5-0.05L11.5,20.75z
		 M12.1,24.9h-0.05L11.4,24.8l3.35-3.05c0.233,0.066,0.467,0.134,0.7,0.2l0.1,0.05l0.75,0.2L13.4,25l-1-0.1h-0.1
		C12.245,24.9,12.178,24.9,12.1,24.9z M15.45,25.2l2.95-2.7h0.149c0.2,0,0.384-0.017,0.55-0.05l0.051,1.35L17.5,25.4h-0.05
		L15.45,25.2z"/>
	<path style="fill-rule:evenodd;clip-rule:evenodd;fill:#8FBFA3;" d="M16.65,19.8l0.149,2.5c-0.399-0.1-0.816-0.2-1.25-0.3
		l-0.1-0.05c-0.233-0.066-0.467-0.134-0.7-0.2c-0.267-0.066-0.55-0.15-0.85-0.25c-0.3-0.1-0.6-0.2-0.9-0.3l-1.5-0.5v0.05
		c-0.067-0.033-0.133-0.05-0.2-0.05c0.6-0.2,1.133-0.351,1.6-0.45c0.733-0.2,1.267-0.316,1.6-0.35
		C15.267,19.8,15.983,19.767,16.65,19.8z M19.05,20.45l0.05,2c-0.166,0.033-0.35,0.05-0.55,0.05H18.4l-0.351-2.45
		C18.384,20.15,18.717,20.283,19.05,20.45z M12.1,24.9c0.078,0,0.145,0,0.2,0h0.1l1,0.1L12.1,24.9z"/>
</g>
<g>
	<g>
		
			<linearGradient id="SVGID_1_" gradientUnits="userSpaceOnUse" x1="6.4146" y1="-0.2007" x2="25.5619" y2="-0.2007" gradientTransform="matrix(0.5392 0.8422 -0.8422 0.5392 -4.610419e-004 -3.064275e-004)">
			<stop  offset="0" style="stop-color:#FFFFFF;stop-opacity:0.6196"/>
			<stop  offset="1" style="stop-color:#FFFFFF;stop-opacity:0"/>
		</linearGradient>
		<path style="fill-rule:evenodd;clip-rule:evenodd;fill:url(#SVGID_1_);" d="M6.5,24.4c-1.633-0.134-3.083-0.351-4.35-0.65
			l-1.4-0.45c-0.3-5.467-0.45-8.933-0.45-10.4L0,5.7l5.95,0.4C7.65,6.233,12,6.467,19,6.8l0.15,18.75
			C13.316,24.983,9.1,24.6,6.5,24.4z"/>
		
			<linearGradient id="SVGID_2_" gradientUnits="userSpaceOnUse" x1="16.6201" y1="-12.0474" x2="32.0346" y2="-12.0474" gradientTransform="matrix(0.5806 0.8142 -0.8142 0.5806 -1.364946e-004 5.245209e-005)">
			<stop  offset="0" style="stop-color:#000000;stop-opacity:0.2078"/>
			<stop  offset="1" style="stop-color:#000000;stop-opacity:0"/>
		</linearGradient>
		<path style="fill-rule:evenodd;clip-rule:evenodd;fill:url(#SVGID_2_);" d="M29.45,1.1L29.7,5c0.167,2.833,0.25,4.833,0.25,6
			c0,1.867-0.066,4.467-0.2,7.8c-2.9,2.267-4.883,3.733-5.95,4.4c-0.666,0.433-1.633,0.95-2.899,1.55l-1.75,0.8L19,6.8l5.75-2.3
			C25.684,4.167,27.25,3.033,29.45,1.1z"/>
		
			<linearGradient id="SVGID_3_" gradientUnits="userSpaceOnUse" x1="1.2549" y1="-13.4229" x2="9.1253" y2="-13.4229" gradientTransform="matrix(0.2478 0.9688 -0.9688 0.2478 3.999621e-004 -1.855642e-004)">
			<stop  offset="0" style="stop-color:#FFFFFF;stop-opacity:0.6196"/>
			<stop  offset="1" style="stop-color:#FFFFFF;stop-opacity:0"/>
		</linearGradient>
		<path style="fill-rule:evenodd;clip-rule:evenodd;fill:url(#SVGID_3_);" d="M19,6.8C12,6.467,7.65,6.233,5.95,6.1L0,5.7l2-1.4
			C4.5,2.9,7.367,1.467,10.6,0l9.5,0.3c1.9,0,5.018,0.267,9.351,0.8c-2.2,1.933-3.767,3.066-4.7,3.4L19,6.8z"/>
	</g>
</g>
</svg>
