<?xml version="1.0" encoding="iso-8859-1"?>
<!-- Generator: Adobe Illustrator 15.1.0, SVG Export Plug-In . SVG Version: 6.00 Build 0)  -->
<!DOCTYPE svg PUBLIC "-//W3C//DTD SVG 1.1//EN" "http://www.w3.org/Graphics/SVG/1.1/DTD/svg11.dtd">
<svg version="1.1" id="flash0.ai" xmlns="http://www.w3.org/2000/svg" xmlns:xlink="http://www.w3.org/1999/xlink" x="0px" y="0px"
	 width="34.1px" height="29.2px" viewBox="0 0 34.1 29.2" style="enable-background:new 0 0 34.1 29.2;" xml:space="preserve">
<symbol  id="cubimal_1_" viewBox="0.15 -28.004 27.963 29.209">
	<g id="FlashAICB_1_">
		<g>
			<g>
				
					<linearGradient id="SVGID_1_" gradientUnits="userSpaceOnUse" x1="-1111.248" y1="-135.8403" x2="-1091.6533" y2="-135.8403" gradientTransform="matrix(0.9999 -0.014 0.1391 0.9981 1138.4521 99.6582)">
					<stop  offset="0" style="stop-color:#F6DFB9"/>
					<stop  offset="1" style="stop-color:#AB9E89"/>
				</linearGradient>
				<path style="fill-rule:evenodd;clip-rule:evenodd;fill:url(#SVGID_1_);" d="M22.35-17.5l1.3-0.65c1-0.433,1.883-0.633,2.65-0.6
					c0.8,0.067,1.35-0.117,1.65-0.55c0.233-0.367,0.217-0.7-0.05-1c-0.4-0.467-0.733-0.567-1-0.3c0.033-0.5-0.117-0.867-0.45-1.1
					c-0.208-0.162-0.417-0.221-0.625-0.175c0.04-0.058,0.048-0.133,0.025-0.225c-0.4-1.167-1.067-1.633-2-1.4
					c-0.3,0.067-0.767,0.133-1.4,0.2c-0.667,0.033-1.233,0.117-1.7,0.25c-0.567,0.133-1.367,0.217-2.4,0.25c-1.367,0-2.517,0-3.45,0
					c-1.3,0.033-2.517,0.317-3.65,0.85c-0.6,0.333-1.317,0.833-2.15,1.5c-0.434,0.4-0.6,0.883-0.5,1.45
					c0.033,0.233,0.2,0.667,0.5,1.3L22.35-17.5z"/>
				<path style="fill-rule:evenodd;clip-rule:evenodd;fill:#998C6E;" d="M25.05-18.6l0.2-0.1c-0.133-0.367-0.517-0.867-1.15-1.5
					c-0.434-0.434-0.7-0.684-0.8-0.75c-0.2-0.1-0.433-0.283-0.7-0.55l-0.4-0.3c0-0.1,0.083-0.233,0.25-0.4
					c0.4-0.3,0.784-0.467,1.15-0.5c0.9-0.067,1.483,0.066,1.75,0.4c0.233,0.267,0.267,0.6,0.1,1c-0.066,0.1-0.183,0.217-0.35,0.35
					c-0.162,0.129-0.303,0.196-0.425,0.2c0.486-0.002,0.861-0.119,1.125-0.35c0.233-0.167,0.434-0.217,0.6-0.15
					c0.1,0.034,0.217,0.15,0.35,0.35c0.167,0.367,0.133,0.7-0.1,1c-0.233,0.3-0.55,0.434-0.95,0.4c0.067,0.034,0.25,0.05,0.55,0.05
					h0.55c0.133-0.033,0.3-0.15,0.5-0.35c0.367-0.133,0.6-0.05,0.7,0.25l0.05,0.05c0.1-0.333,0.05-0.6-0.15-0.8l-0.2-0.15
					c-0.167,0.333-0.483,0.633-0.95,0.9l0.15-0.2l0.2-0.4l0.1-0.55l-0.3,0.1c0.033-0.5-0.117-0.867-0.45-1.1l-0.1-0.05L26.3-21.7
					c-0.1,0.167-0.25,0.333-0.45,0.5c-0.3,0.2-0.483,0.3-0.55,0.3c0.3-0.2,0.483-0.517,0.55-0.95l-0.1,0.05
					c0.1-0.1,0.133-0.2,0.1-0.3c-0.133-0.467-0.333-0.817-0.6-1.05L25.2-23.2c-0.267-0.133-0.6-0.167-1-0.1
					c-0.133,0-0.433,0.15-0.9,0.45c-0.066,0.033-0.433,0.1-1.1,0.2c-0.267,0.033-0.466,0.067-0.6,0.1
					c-0.3,0.067-0.417,0.183-0.35,0.35c0.033,0.1,0.2,0.25,0.5,0.45l0.7,0.6c0.833,0.7,1.35,1.233,1.55,1.6l-6.35,1.95l4.6,0.1
					l0.25-0.1C23.333-18.1,24.183-18.433,25.05-18.6z"/>
				<path style="fill-rule:evenodd;clip-rule:evenodd;fill:#998C6E;" d="M14.9-22.8l-1.55,0.2c-0.1,0.333-0.15,0.733-0.15,1.2
					l0.1,0.7c0.033-0.333,0.25-0.7,0.65-1.1L14.9-22.8z"/>
				<path style="fill-rule:evenodd;clip-rule:evenodd;fill:#7C7159;" d="M26.75-19.55c0.467-0.267,0.783-0.567,0.95-0.9
					c-0.167-0.167-0.333-0.25-0.5-0.25l-0.1,0.55l-0.2,0.4L26.75-19.55z"/>
				<path style="fill-rule:evenodd;clip-rule:evenodd;fill:#7C7159;" d="M25.85-21.2c0.2-0.167,0.35-0.333,0.45-0.5l0.05-0.05
					c-0.133-0.066-0.3-0.1-0.5-0.1c-0.067,0.433-0.25,0.75-0.55,0.95C25.367-20.9,25.55-21,25.85-21.2z"/>
				<path style="fill-rule:evenodd;clip-rule:evenodd;fill:#7C7159;" d="M22.45-21.15l-0.7-0.6c-0.3-0.2-0.467-0.35-0.5-0.45
					c-0.067-0.167,0.05-0.283,0.35-0.35c0.133-0.033,0.333-0.067,0.6-0.1c0.667-0.1,1.034-0.167,1.1-0.2
					c0.467-0.3,0.767-0.45,0.9-0.45c0.4-0.067,0.733-0.033,1,0.1c-0.359-0.327-0.809-0.427-1.35-0.3c-0.3,0.067-0.767,0.133-1.4,0.2
					c-0.667,0.033-1.233,0.117-1.7,0.25c-0.567,0.133-1.367,0.217-2.4,0.25c-1.367,0-2.517,0-3.45,0l-0.95,1
					c-0.4,0.4-0.617,0.767-0.65,1.1v0.15c-0.033,0.733,0.25,1.7,0.85,2.9l3.5,0.05L24-19.55C23.8-19.917,23.283-20.45,22.45-21.15z"
					/>
				
					<linearGradient id="SVGID_2_" gradientUnits="userSpaceOnUse" x1="-75.2988" y1="-103.8818" x2="-54.5729" y2="-103.8818" gradientTransform="matrix(1 -0.0096 0.0096 1 79.2871 78.5049)">
					<stop  offset="0" style="stop-color:#F6DFB9"/>
					<stop  offset="1" style="stop-color:#AB9E89"/>
				</linearGradient>
				<path style="fill-rule:evenodd;clip-rule:evenodd;fill:url(#SVGID_2_);" d="M21.2-22.5c1.167,0.133,1.95-0.15,2.35-0.85
					c0.367-0.667,0.267-1.233-0.3-1.7c-0.633-0.5-1.233-0.6-1.8-0.3c0.1-0.667-0.05-1.15-0.45-1.45s-0.8-0.317-1.2-0.05l-0.1-0.4
					c-0.2-0.466-0.783-0.716-1.75-0.75c-0.933-0.033-2.1,0.15-3.5,0.55c-1.3,0.4-3,0.633-5.1,0.7c-3,0.067-4.95,0.55-5.85,1.45
					c-0.367,0.367-0.533,0.85-0.5,1.45c0,0.2,0.083,0.633,0.25,1.3l12.3,1l1.95-0.6C19-22.517,20.233-22.633,21.2-22.5z"/>
				<path style="fill-rule:evenodd;clip-rule:evenodd;fill:#998C6E;" d="M9-22.45c-0.3,0.133-0.434,0.25-0.4,0.35l6.95,0.55
					l1.35-0.4c1.1-0.3,2.083-0.483,2.95-0.55c0-0.3-0.2-0.566-0.6-0.8l-1.35-0.95l-1.3-0.25h-1.65c-1.066,0-2.017,0.117-2.85,0.35
					c-0.467,0.133-1,0.383-1.6,0.75C9.833-22.966,9.333-22.65,9-22.45z"/>
				<path style="fill-rule:evenodd;clip-rule:evenodd;fill:#998C6E;" d="M20.25-23.95L20-23.75c0.1,0.067,0.283,0.05,0.55-0.05
					c0.467-0.067,0.783-0.15,0.95-0.25l0.3-0.3c0.067-0.034,0.167-0.083,0.3-0.15c0.133-0.066,0.216-0.133,0.25-0.2
					c-0.1,0-0.167-0.033-0.2-0.1h0.6c0.233,0.033,0.467,0.15,0.7,0.35l0.25,0.3c0-0.367-0.15-0.667-0.45-0.9
					c-0.633-0.5-1.233-0.6-1.8-0.3c0.1-0.667-0.05-1.15-0.45-1.45s-0.8-0.317-1.2-0.05l-0.1-0.4c-0.2-0.466-0.783-0.716-1.75-0.75
					c-0.933-0.033-2.1,0.15-3.5,0.55L13-27.05c0.867-0.033,2.133-0.217,3.8-0.55c1.333-0.233,2.167,0.033,2.5,0.8
					c0.133,0.267,0.1,0.567-0.1,0.9c-0.033,0.133-0.25,0.317-0.65,0.55c0.067,0.033,0.367-0.017,0.9-0.15
					c0.167-0.066,0.35-0.2,0.55-0.4l0.25-0.3c0.233-0.1,0.45-0.05,0.65,0.15c0.2,0.133,0.3,0.383,0.3,0.75c0,0.333-0.1,0.6-0.3,0.8
					C20.867-24.466,20.65-24.283,20.25-23.95z"/>
				
					<linearGradient id="SVGID_3_" gradientUnits="userSpaceOnUse" x1="-2108.2705" y1="-13440.1611" x2="-2089.1221" y2="-13440.1611" gradientTransform="matrix(0.3068 -0.9518 0.9518 0.3068 13449.4365 2112.5234)">
					<stop  offset="0" style="stop-color:#EFF8FF"/>
					<stop  offset="1" style="stop-color:#BDD0D9"/>
				</linearGradient>
				<path style="fill-rule:evenodd;clip-rule:evenodd;fill:url(#SVGID_3_);" d="M22.35-1.95c1.867,0,2.983-0.684,3.35-2.05
					c0.167-0.533,0.25-4.383,0.25-11.55c0-0.367,0-0.85,0-1.45c-0.033-0.5-0.183-0.95-0.45-1.35c-0.267-0.434-1.184-1.184-2.75-2.25
					c-1.333-0.934-2.3-1.567-2.9-1.9c-0.7-0.4-1.45-0.733-2.25-1c-0.7-0.267-1.217-0.4-1.55-0.4c-2.433,0.3-4.283,0.45-5.55,0.45
					c-0.8,0.033-2.25,0.2-4.35,0.5c-2.133,0.3-3.4,0.483-3.8,0.55c-0.667,0.133-1.133,0.434-1.4,0.9
					c-0.333,0.667-0.517,2.017-0.55,4.05c-0.167,3.233-0.25,5.6-0.25,7.1C0.183-7.683,0.566-6.1,1.3-5.6
					c0.9,0.633,2.434,1.533,4.6,2.7c2.533,1.4,4.167,2.117,4.9,2.15c0.9,0.034,2.833-0.15,5.8-0.55
					C19.7-1.733,21.617-1.95,22.35-1.95z"/>
				
					<linearGradient id="SVGID_4_" gradientUnits="userSpaceOnUse" x1="-2371.0254" y1="-12875.0488" x2="-2354.0276" y2="-12875.0488" gradientTransform="matrix(0.3574 -0.934 0.934 0.3574 12890.1563 2380.5205)">
					<stop  offset="0" style="stop-color:#EFF8FF"/>
					<stop  offset="1" style="stop-color:#BDD0D9"/>
				</linearGradient>
				<path style="fill-rule:evenodd;clip-rule:evenodd;fill:url(#SVGID_4_);" d="M25.9-6.6l0.05-8.95c0-0.367,0-0.85,0-1.45
					c-0.033-0.5-0.183-0.95-0.45-1.35c-0.267-0.434-1.184-1.184-2.75-2.25c-1.333-0.934-2.3-1.567-2.9-1.9
					c-0.3-0.167-0.934-0.433-1.9-0.8c-0.966-0.367-1.6-0.567-1.9-0.6c0.333,0.667,0.483,1.383,0.45,2.15l-0.1,14l0.1,0.15
					c0.167,0.167,1.083,0.667,2.75,1.5c1.8,0.867,2.967,1.483,3.5,1.85c1.4,0.9,2.15,1.4,2.25,1.5c0.367-0.367,0.6-0.783,0.7-1.25
					C25.767-4.2,25.833-5.066,25.9-6.6z"/>
				<linearGradient id="SVGID_5_" gradientUnits="userSpaceOnUse" x1="0.7998" y1="-4.1675" x2="25" y2="-4.1675">
					<stop  offset="0" style="stop-color:#EFF8FF"/>
					<stop  offset="1" style="stop-color:#DCF2FC"/>
				</linearGradient>
				<path style="fill-rule:evenodd;clip-rule:evenodd;fill:url(#SVGID_5_);" d="M25-2.75c-0.434-0.433-0.934-0.833-1.5-1.2
					c-0.5-0.3-1.8-0.967-3.9-2c-1.867-0.9-2.9-1.45-3.1-1.65c-0.867,0.066-3.767,0.367-8.7,0.9c-3.733,0.4-6.066,0.566-7,0.5
					c0.167,0.267,0.333,0.467,0.5,0.6c0.9,0.633,2.434,1.533,4.6,2.7c2.533,1.4,4.167,2.117,4.9,2.15c2.267,0.1,6.117-0.3,11.55-1.2
					C23.783-2.15,24.667-2.417,25-2.75z"/>
				
					<linearGradient id="SVGID_6_" gradientUnits="userSpaceOnUse" x1="-915.457" y1="-15081.4844" x2="-902.4993" y2="-15081.4844" gradientTransform="matrix(0.1428 -0.9898 0.9931 0.1198 15128.1836 893.749)">
					<stop  offset="0" style="stop-color:#F6DFB9"/>
					<stop  offset="1" style="stop-color:#AB9E89"/>
				</linearGradient>
				<path style="fill-rule:evenodd;clip-rule:evenodd;fill:url(#SVGID_6_);" d="M25.15-8.1c0.333,0.167,0.5-0.567,0.5-2.2
					c0-0.833-0.033-1.85-0.1-3.05c0-0.333-0.566-0.883-1.7-1.65c-1.4-0.867-2.383-1.483-2.95-1.85C19.767-17.617,18.917-18,18.35-18
					c-0.467,0.034-0.817,0.3-1.05,0.8c-0.167,0.467-0.283,1.25-0.35,2.35c-0.033,1.167,0.05,1.9,0.25,2.2
					c0.133,0.3,1.434,1.117,3.9,2.45C23.1-9.133,24.45-8.433,25.15-8.1z"/>
				
					<linearGradient id="SVGID_7_" gradientUnits="userSpaceOnUse" x1="18045.8223" y1="-2405.6479" x2="18048.4355" y2="-2405.6479" gradientTransform="matrix(-0.2583 0.9661 -0.9715 -0.2381 2342.6006 -18021.6465)">
					<stop  offset="0" style="stop-color:#F6DFB9"/>
					<stop  offset="1" style="stop-color:#7C7364"/>
				</linearGradient>
				<path style="fill-rule:evenodd;clip-rule:evenodd;fill:url(#SVGID_7_);" d="M20.05-14.55c0-0.5-0.1-0.917-0.3-1.25
					c-0.233-0.333-0.5-0.517-0.8-0.55c-0.3,0-0.55,0.167-0.75,0.5c-0.233,0.333-0.35,0.75-0.35,1.25c0,0.466,0.117,0.883,0.35,1.25
					c0.2,0.333,0.45,0.5,0.75,0.5c0.3,0,0.567-0.167,0.8-0.5C19.95-13.683,20.05-14.083,20.05-14.55z"/>
				
					<linearGradient id="SVGID_8_" gradientUnits="userSpaceOnUse" x1="506.4829" y1="-16605.1484" x2="509.4346" y2="-16605.1484" gradientTransform="matrix(-0.0339 -0.9994 0.9986 -0.0592 16617.2363 -491.0737)">
					<stop  offset="0" style="stop-color:#5F4E29"/>
					<stop  offset="0.8588" style="stop-color:#271D09"/>
				</linearGradient>
				<path style="fill-rule:evenodd;clip-rule:evenodd;fill:url(#SVGID_8_);" d="M19.6-14.6c0-0.333-0.083-0.633-0.25-0.9
					c-0.167-0.233-0.383-0.367-0.65-0.4c-0.233,0-0.45,0.117-0.65,0.35c-0.167,0.233-0.25,0.533-0.25,0.9s0.083,0.667,0.25,0.9
					c0.2,0.267,0.417,0.4,0.65,0.4c0.233,0.033,0.45-0.083,0.65-0.35C19.517-13.933,19.6-14.233,19.6-14.6z"/>
				
					<linearGradient id="SVGID_9_" gradientUnits="userSpaceOnUse" x1="16345.2021" y1="-250.415" x2="16347.9785" y2="-250.415" gradientTransform="matrix(-0.027 0.9996 -1.0004 -3.604884e-004 215.9595 -16351.9639)">
					<stop  offset="0" style="stop-color:#F6DFB9"/>
					<stop  offset="1" style="stop-color:#7C7364"/>
				</linearGradient>
				<path style="fill-rule:evenodd;clip-rule:evenodd;fill:url(#SVGID_9_);" d="M25.55-11.25c0-0.433-0.066-0.816-0.2-1.15
					c-0.167-0.3-0.35-0.467-0.55-0.5c-0.2,0-0.367,0.167-0.5,0.5c-0.133,0.3-0.2,0.684-0.2,1.15c0,1.067,0.233,1.6,0.7,1.6
					c0.2,0.033,0.383-0.117,0.55-0.45C25.483-10.433,25.55-10.816,25.55-11.25z"/>
				
					<linearGradient id="SVGID_10_" gradientUnits="userSpaceOnUse" x1="539.5972" y1="-16618.707" x2="542.349" y2="-16618.707" gradientTransform="matrix(-0.0363 -0.9993 0.9984 -0.0635 16635.5898 -526.896)">
					<stop  offset="0" style="stop-color:#5F4E29"/>
					<stop  offset="0.8588" style="stop-color:#271D09"/>
				</linearGradient>
				<path style="fill-rule:evenodd;clip-rule:evenodd;fill:url(#SVGID_10_);" d="M25.25-11.25c0-0.8-0.2-1.2-0.6-1.2
					s-0.6,0.383-0.6,1.15s0.2,1.183,0.6,1.25C25.05-10.05,25.25-10.45,25.25-11.25z"/>
				<path style="fill-rule:evenodd;clip-rule:evenodd;fill:#FFFFFF;" d="M25-2.75c-0.067-0.4-1.434-1.333-4.1-2.8
					c-2.7-1.5-4.083-2.417-4.15-2.75c-0.067-0.333-0.067-4.483,0-12.45c-0.067-1.7-0.3-2.75-0.7-3.15l0.2,0.6
					c0.066,0.3,0.083,2.3,0.05,6s-0.083,6.083-0.15,7.15C16.083-9.017,16.033-8.4,16-8.3c-0.067,0.2-0.25,0.333-0.55,0.4
					c-0.367,0.1-3.216,0.417-8.55,0.95c-1.3,0.133-3.317,0.467-6.05,1c3.167-0.3,5.7-0.567,7.6-0.8
					c1.367-0.167,2.983-0.316,4.85-0.45c1.833-0.133,2.883-0.167,3.15-0.1c0.333,0.033,1.633,0.65,3.9,1.85
					C21.783-4.683,23.333-3.783,25-2.75z"/>
				
					<radialGradient id="SVGID_11_" cx="8.4497" cy="-17.4497" r="5.325" gradientTransform="matrix(1 0 0 -0.9742 0 -34.4487)" gradientUnits="userSpaceOnUse">
					<stop  offset="0" style="stop-color:#000000;stop-opacity:0.4078"/>
					<stop  offset="0.8667" style="stop-color:#000000;stop-opacity:0"/>
				</radialGradient>
				<path style="fill-rule:evenodd;clip-rule:evenodd;fill:url(#SVGID_11_);" d="M13.8-17.45c0-1.434-0.517-2.667-1.55-3.7
					c-1.067-1-2.333-1.5-3.8-1.5c-1.466,0-2.716,0.5-3.75,1.5c-1.033,1-1.55,2.233-1.55,3.7c0,1.433,0.517,2.65,1.55,3.65
					c1.034,1,2.284,1.5,3.75,1.5c1.467,0,2.733-0.5,3.8-1.5C13.283-14.8,13.8-16.017,13.8-17.45z"/>
				
					<linearGradient id="SVGID_12_" gradientUnits="userSpaceOnUse" x1="-2108.5723" y1="-13419.8135" x2="-2104.05" y2="-13419.8135" gradientTransform="matrix(0.3096 -0.9509 0.9509 0.3096 13419.4082 2127.8584)">
					<stop  offset="0" style="stop-color:#F6DFB9"/>
					<stop  offset="1" style="stop-color:#AB9E89"/>
				</linearGradient>
				<path style="fill-rule:evenodd;clip-rule:evenodd;fill:url(#SVGID_12_);" d="M3.3-21.75l2.75,0.6
					c0.434-0.467,1.167-0.65,2.2-0.55c0.667,0.066,1.133-0.167,1.4-0.7c0.233-0.467,0.2-0.8-0.1-1c-0.167-0.1-0.283-0.083-0.35,0.05
					c-0.1,0.133-0.283,0.2-0.55,0.2c-0.4-0.033-0.567-0.267-0.5-0.7c0.033-0.434,0.25-0.667,0.65-0.7c0.4,0,0.65-0.167,0.75-0.5
					C9.617-25.417,9.433-25.667,9-25.8c-0.567-0.233-1.1-0.067-1.6,0.5c-0.1-0.167-0.433-0.267-1-0.3
					c-0.367-0.034-0.667,0.017-0.9,0.15l-0.25,0.2l-0.4-0.05c-0.467,0-0.867,0.317-1.2,0.95c-0.2,0.3-0.317,0.833-0.35,1.6V-21.75z"
					/>
				<path style="fill-rule:evenodd;clip-rule:evenodd;fill:#998C6E;" d="M9.25-22.6c0.1,0.466,0.017,0.716-0.25,0.75l0.05,0.05
					c0.367-0.167,0.6-0.45,0.7-0.85c0.1-0.367,0.033-0.617-0.2-0.75c-0.167-0.1-0.283-0.083-0.35,0.05
					c-0.1,0.133-0.283,0.2-0.55,0.2c-0.4-0.033-0.567-0.267-0.5-0.7c0.033-0.434,0.25-0.667,0.65-0.7c0.4,0,0.65-0.167,0.75-0.5
					C9.617-25.417,9.433-25.667,9-25.8c-0.567-0.233-1.1-0.067-1.6,0.5c-0.1-0.167-0.433-0.267-1-0.3
					c-0.367-0.034-0.667,0.017-0.9,0.15l-0.25,0.2l-0.4-0.05L4.5-25.25l0.05,0.05c0.133,0.066,0.233,0.2,0.3,0.4
					c0.033,0.233,0.066,0.4,0.1,0.5c0.1,0.167,0.2,0.1,0.3-0.2l0.25-0.6c0.133-0.167,0.316-0.25,0.55-0.25s0.4,0.05,0.5,0.15
					c0.1,0.066,0.167,0.233,0.2,0.5c0.033,0.233,0.083,0.4,0.15,0.5c0.067-0.1,0.117-0.283,0.15-0.55l0.35-0.5
					c0.167-0.233,0.4-0.367,0.7-0.4c0.3-0.033,0.533,0.017,0.7,0.15c0.2,0.133,0.184,0.317-0.05,0.55l-0.25,0.3
					c-0.3,0.434-0.467,0.667-0.5,0.7v0.6c0.066,0.267,0.217,0.466,0.45,0.6C8.65-22.65,8.917-22.6,9.25-22.6z"/>
				
					<linearGradient id="SVGID_13_" gradientUnits="userSpaceOnUse" x1="-2096.208" y1="-13454.4775" x2="-2088.6973" y2="-13454.4775" gradientTransform="matrix(0.3062 -0.952 0.952 0.3062 13455.7832 2109.2666)">
					<stop  offset="0" style="stop-color:#EFF8FF"/>
					<stop  offset="1" style="stop-color:#95AAB5"/>
				</linearGradient>
				<path style="fill-rule:evenodd;clip-rule:evenodd;fill:url(#SVGID_13_);" d="M5.45-14.1c0.833,0.466,1.5,0.733,2,0.8
					c1.034,0.2,2-0.217,2.9-1.25c0.633-0.7,0.7-1.733,0.2-3.1L9.65-18c-0.6-0.2-0.883-0.7-0.85-1.5c0.033-0.367,0.1-0.95,0.2-1.75
					c0.033-0.7-0.133-1.183-0.5-1.45c-0.6-0.4-0.883-0.184-0.85,0.65c-0.1-0.5-0.433-0.883-1-1.15S5.7-23.167,5.5-22.3l-0.1-0.25
					c-0.133-0.167-0.367-0.35-0.7-0.55c-0.533-0.3-0.85-0.05-0.95,0.75c-0.067-0.133-0.2-0.25-0.4-0.35
					c-0.2-0.067-0.367,0.233-0.5,0.9c-0.3,1.7-0.167,3.417,0.4,5.15C3.583-15.65,4.316-14.8,5.45-14.1z"/>
				
					<radialGradient id="SVGID_14_" cx="13.25" cy="-3.2002" r="6.8499" gradientTransform="matrix(1 0 0 -0.3595 0 -4.3506)" gradientUnits="userSpaceOnUse">
					<stop  offset="0" style="stop-color:#000000;stop-opacity:0.2392"/>
					<stop  offset="0.8667" style="stop-color:#000000;stop-opacity:0"/>
				</radialGradient>
				<path style="fill-rule:evenodd;clip-rule:evenodd;fill:url(#SVGID_14_);" d="M20.1-3.2c0-0.667-0.667-1.25-2-1.75
					c-1.333-0.467-2.95-0.7-4.85-0.7S9.733-5.417,8.4-4.95c-1.333,0.5-2,1.083-2,1.75c0,0.667,0.667,1.25,2,1.75
					c1.333,0.467,2.95,0.7,4.85,0.7s3.517-0.233,4.85-0.7C19.433-1.95,20.1-2.533,20.1-3.2z"/>
				
					<linearGradient id="SVGID_15_" gradientUnits="userSpaceOnUse" x1="-2495.5303" y1="-11669.5625" x2="-2490.6328" y2="-11669.5625" gradientTransform="matrix(0.4594 -0.8882 0.9333 0.3723 12050.5889 2128.6104)">
					<stop  offset="0" style="stop-color:#EFF8FF"/>
					<stop  offset="1" style="stop-color:#71868F"/>
				</linearGradient>
				<path style="fill-rule:evenodd;clip-rule:evenodd;fill:url(#SVGID_15_);" d="M16.15-2.95c-0.767-1-1.333-1.6-1.7-1.8
					C14.383-4.816,14.233-4.833,14-4.8c-0.3,0.033-0.567,0.133-0.8,0.3c-1.4,0.534-2.066,1.05-2,1.55c0.067,0.433,0.2,0.767,0.4,1
					c0.267,0.3,0.566,0.4,0.9,0.3l0.75-0.15C13.117-1.533,13-1.233,12.9-0.9c-0.167,0.7-0.1,1.2,0.2,1.5
					c0.367,0.367,0.883,0.567,1.55,0.6s1.083-0.117,1.25-0.45c0.12-0.279,0.112-0.621-0.025-1.025
					c0.157,0.174,0.332,0.282,0.525,0.325c0.8,0.167,1.133-0.117,1-0.85C17.333-1.2,16.917-1.917,16.15-2.95z"/>
				<path style="fill-rule:evenodd;clip-rule:evenodd;fill:#FFFFFF;" d="M17.75-2.8c-1.8-1.033-3.017-1.633-3.65-1.8
					c-1.4,0.566-2.067,1.1-2,1.6c0.033,0.4,0.15,0.717,0.35,0.95c0.267,0.3,0.567,0.4,0.9,0.3l0.8-0.15
					C14.017-1.633,13.9-1.333,13.8-1c-0.167,0.7-0.1,1.2,0.2,1.5c0.333,0.367,0.733,0.583,1.2,0.65c0.467,0.033,0.767-0.133,0.9-0.5
					c0.233-0.467,0.3-1.117,0.2-1.95l0.2,0.55c0.2,0.4,0.467,0.65,0.8,0.75c0.8,0.167,1.133-0.133,1-0.9
					C18.1-2,17.917-2.633,17.75-2.8z"/>
				
					<linearGradient id="SVGID_16_" gradientUnits="userSpaceOnUse" x1="-2489.9629" y1="-11678.2969" x2="-2485.6023" y2="-11678.2969" gradientTransform="matrix(0.4586 -0.8886 0.9337 0.3712 12060.709 2123.1211)">
					<stop  offset="0" style="stop-color:#EFF8FF"/>
					<stop  offset="1" style="stop-color:#BDD0D9"/>
				</linearGradient>
				<path style="fill-rule:evenodd;clip-rule:evenodd;fill:url(#SVGID_16_);" d="M18-2.95c-1.767-1.033-2.983-1.617-3.65-1.75
					c-1.4,0.533-2.067,1.05-2,1.55c0.133,1,0.566,1.434,1.3,1.3l0.75-0.2c-0.133,0.267-0.25,0.567-0.35,0.9
					c-0.167,0.7-0.1,1.2,0.2,1.5c0.367,0.367,0.767,0.583,1.2,0.65c0.467,0.034,0.784-0.133,0.95-0.5c0.2-0.466,0.267-1.1,0.2-1.9
					l0.2,0.55c0.2,0.4,0.45,0.633,0.75,0.7c0.8,0.167,1.133-0.117,1-0.85C18.35-2.133,18.167-2.783,18-2.95z"/>
			</g>
		</g>
	</g>
</symbol>
<symbol  id="cubimal_x5F_mc" viewBox="-0.385 -27.954 34.098 29.209">
	<g id="Layer_5_1_">
	</g>
	<g id="Layer_4_2_">
	</g>
	<g id="Layer_2_copy_2_">
	</g>
	<g id="Layer_2_2_">
	</g>
	<g id="Layer_1_8_">
		
			<use xlink:href="#cubimal_x5F_scene1"  width="34.098" height="29.209" x="0.015" y="-28.004" transform="matrix(1 0 0 1 -0.3999 0.0498)" style="overflow:visible;"/>
	</g>
	<g id="Layer_6_1_">
	</g>
</symbol>
<symbol  id="cubimal_x5F_scene1" viewBox="0.015 -28.004 34.098 29.209">
	<g id="Layer_1_7_">
		
			<use xlink:href="#winder_x5F_static"  width="10.185" height="8.474" x="0.015" y="-8.472" transform="matrix(1 0 0 1 0 -7.9502)" style="overflow:visible;"/>
		
			<use xlink:href="#cubimal_1_"  width="27.963" height="29.209" x="0.15" y="-28.004" transform="matrix(1 0 0 1 6 0)" style="overflow:visible;"/>
	</g>
</symbol>
<symbol  id="winder_x5F_static" viewBox="0.015 -8.472 10.185 8.474">
	<g id="Layer_4_1_">
		
			<use xlink:href="#winderedge"  width="4.537" height="8.127" x="0.015" y="-8.126" transform="matrix(1 0 0 1 0.7002 0)" style="overflow:visible;"/>
	</g>
	<g id="Layer_3_1_">
		
			<use xlink:href="#winderfacehighlight"  width="4.573" height="8.174" x="0.016" y="-8.173" transform="matrix(1 0 0 1 0.2002 -0.2002)" style="overflow:visible;"/>
	</g>
	<g id="Layer_2_copy_1_">
		
			<use xlink:href="#winderface1a"  width="4.573" height="8.174" x="0.015" y="-8.172" transform="matrix(1 0 0 1 0 -0.2998)" style="overflow:visible;"/>
	</g>
	<g id="Layer_1_6_">
		<g>
			
				<linearGradient id="SVGID_17_" gradientUnits="userSpaceOnUse" x1="1515.3809" y1="-17618.6328" x2="1516.7002" y2="-17618.6328" gradientTransform="matrix(-0.1705 -0.9854 0.9854 -0.1705 17626.3867 -1516.2769)">
				<stop  offset="0" style="stop-color:#8F8F8F"/>
				<stop  offset="0.2275" style="stop-color:#E8E8E8"/>
				<stop  offset="1" style="stop-color:#696969"/>
			</linearGradient>
			<path style="fill-rule:evenodd;clip-rule:evenodd;fill:url(#SVGID_17_);" d="M10.2-6.3L4.8-5.5C4.5-5.533,4.351-5.366,4.351-5
				c0,0.233,0.083,0.4,0.25,0.5c0.066,0.066,0.133,0.1,0.2,0.1l5.4-0.8V-6.3z"/>
		</g>
	</g>
</symbol>
<symbol  id="winderedge" viewBox="0.015 -8.126 4.537 8.127">
	<g id="Layer_1_4_">
		<g>
			
				<linearGradient id="SVGID_18_" gradientUnits="userSpaceOnUse" x1="6.209" y1="-16348.5176" x2="13.034" y2="-16348.5176" gradientTransform="matrix(1.465202e-004 -1 1 -0.001 16350.8027 -10.1768)">
				<stop  offset="0" style="stop-color:#8F8F8F"/>
				<stop  offset="0.2275" style="stop-color:#E8E8E8"/>
				<stop  offset="1" style="stop-color:#696969"/>
			</linearGradient>
			<path style="fill-rule:evenodd;clip-rule:evenodd;fill:url(#SVGID_18_);" d="M3.5-5.899c0.066,0.6-0.083,0.983-0.45,1.15L2.6-4.7
				C2.367-4.7,2.167-4.733,2-4.8c-0.533-0.167-0.833-0.533-0.9-1.1c-0.034-0.5,0.1-0.85,0.4-1.05c0.434-0.233,0.867-0.233,1.3,0
				C3.2-6.716,3.434-6.366,3.5-5.899z M0.05-1.25c0.1,0.8,0.5,1.216,1.2,1.25c1.367,0.033,2.333-0.633,2.9-2
				c0.5-1.233,0.534-2.05,0.1-2.45c0.434-0.533,0.4-1.333-0.1-2.4c-0.567-1.167-1.533-1.533-2.9-1.1c-0.7,0.233-1.1,0.767-1.2,1.6
				c-0.133,0.867,0.117,1.533,0.75,2L1.25-4L0.8-3.55C0.167-2.85-0.083-2.083,0.05-1.25z M3.5-2.75C3.434-2.25,3.2-1.833,2.8-1.5
				C2.367-1.1,1.934-0.966,1.5-1.1c-0.3-0.133-0.434-0.467-0.4-1C1.167-2.666,1.467-3.116,2-3.45l0.6-0.3L3.05-3.8
				C3.417-3.766,3.566-3.416,3.5-2.75z"/>
		</g>
	</g>
</symbol>
<symbol  id="winderface1a" viewBox="0.015 -8.172 4.573 8.174">
	<g id="Layer_1_2_">
		
			<linearGradient id="SVGID_19_" gradientUnits="userSpaceOnUse" x1="-1921.5449" y1="-13812.8369" x2="-1912.3727" y2="-13812.8369" gradientTransform="matrix(0.2726 -0.9621 0.9621 0.2726 13814.2246 1917.2109)">
			<stop  offset="0" style="stop-color:#E8E8E8"/>
			<stop  offset="1" style="stop-color:#878787"/>
		</linearGradient>
		<path style="fill-rule:evenodd;clip-rule:evenodd;fill:url(#SVGID_19_);" d="M2.05-4.8c-0.566-0.133-0.867-0.483-0.9-1.05
			c-0.033-0.533,0.1-0.9,0.4-1.1c0.4-0.267,0.817-0.267,1.25,0C3.2-6.717,3.433-6.367,3.5-5.9c0.133,0.633,0,1-0.4,1.1L2.65-4.7
			L2.05-4.8z M0.05-1.25C0.183-0.45,0.6-0.033,1.3,0c1.367,0.033,2.333-0.633,2.9-2c0.5-1.233,0.517-2.05,0.05-2.45
			c0.467-0.5,0.45-1.3-0.05-2.4C3.633-8.05,2.667-8.433,1.3-8C0.6-7.733,0.183-7.183,0.05-6.35c-0.133,0.867,0.117,1.533,0.75,2
			L1.3-4L0.8-3.55C0.167-2.85-0.083-2.083,0.05-1.25z M3.5-2.75C3.433-2.25,3.2-1.833,2.8-1.5C2.367-1.1,1.95-0.967,1.55-1.1
			c-0.3-0.133-0.433-0.467-0.4-1c0.033-0.6,0.333-1.05,0.9-1.35l0.6-0.3L3.1-3.8C3.467-3.767,3.6-3.417,3.5-2.75z"/>
	</g>
</symbol>
<symbol  id="winderfacehighlight" viewBox="0.016 -8.173 4.573 8.174">
	<g id="Layer_1_3_">
		
			<linearGradient id="SVGID_20_" gradientUnits="userSpaceOnUse" x1="-1921.5439" y1="-13812.8369" x2="-1912.3717" y2="-13812.8369" gradientTransform="matrix(0.2726 -0.9621 0.9621 0.2726 13814.2246 1917.2109)">
			<stop  offset="0" style="stop-color:#E8E8E8"/>
			<stop  offset="1" style="stop-color:#EDEDED"/>
		</linearGradient>
		<path style="fill-rule:evenodd;clip-rule:evenodd;fill:url(#SVGID_20_);" d="M2.05-4.8c-0.567-0.133-0.867-0.483-0.9-1.05
			c-0.033-0.533,0.1-0.9,0.4-1.1c0.4-0.267,0.817-0.267,1.25,0C3.2-6.717,3.434-6.367,3.5-5.9c0.1,0.6-0.034,0.967-0.4,1.1L2.65-4.7
			L2.05-4.8z M0.05-1.25C0.184-0.45,0.601-0.034,1.3,0c1.367,0.034,2.333-0.633,2.9-2c0.5-1.233,0.517-2.05,0.05-2.45
			c0.466-0.5,0.45-1.3-0.05-2.4C3.634-8.05,2.667-8.434,1.3-8c-0.7,0.267-1.117,0.817-1.25,1.65c-0.133,0.867,0.117,1.534,0.75,2
			L1.3-4L0.8-3.55C0.167-2.851-0.083-2.084,0.05-1.25z M1.55-1.101c-0.3-0.133-0.433-0.466-0.4-1c0.033-0.6,0.333-1.05,0.9-1.35
			l0.6-0.3l0.45-0.05c0.366,0.033,0.5,0.383,0.4,1.05C3.434-2.25,3.2-1.834,2.8-1.5C2.367-1.101,1.95-0.967,1.55-1.101z"/>
	</g>
</symbol>
<use xlink:href="#cubimal_x5F_mc"  width="34.098" height="29.209" id="cubimal" x="-0.385" y="-27.954" transform="matrix(1 0 0 -1 0.3999 1.25)" style="overflow:visible;"/>
</svg>
