<?xml version="1.0" encoding="iso-8859-1"?>
<!-- Generator: Adobe Illustrator 15.1.0, SVG Export Plug-In . SVG Version: 6.00 Build 0)  -->
<!DOCTYPE svg PUBLIC "-//W3C//DTD SVG 1.1//EN" "http://www.w3.org/Graphics/SVG/1.1/DTD/svg11.dtd">
<svg version="1.1" id="flash0.ai" xmlns="http://www.w3.org/2000/svg" xmlns:xlink="http://www.w3.org/1999/xlink" x="0px" y="0px"
	 width="31.85px" height="26.9px" viewBox="0 0 31.85 26.9" style="enable-background:new 0 0 31.85 26.9;" xml:space="preserve">
<symbol  id="cubimal_1_" viewBox="0.05 -26.414 25.8 26.909">
	<g id="Layer_1_5_">
		<g>
			<g>
				
					<linearGradient id="SVGID_1_" gradientUnits="userSpaceOnUse" x1="360.5962" y1="319.3555" x2="362.3478" y2="319.3555" gradientTransform="matrix(0.9991 0.0428 -0.0428 0.9991 -342.665 -357.6221)">
					<stop  offset="0" style="stop-color:#EFF8FF"/>
					<stop  offset="1" style="stop-color:#BDD0D9"/>
				</linearGradient>
				<path style="fill-rule:evenodd;clip-rule:evenodd;fill:url(#SVGID_1_);" d="M2.85-20.8l4.7-0.35C7.15-22.65,6.867-23.6,6.7-24
					c-0.4-1.034-0.816-1.5-1.25-1.4C4.617-25.2,3.75-23.667,2.85-20.8z"/>
				
					<linearGradient id="SVGID_2_" gradientUnits="userSpaceOnUse" x1="369.8447" y1="317.9561" x2="371.5963" y2="317.9561" gradientTransform="matrix(0.9991 0.0428 -0.0428 0.9991 -342.665 -357.6221)">
					<stop  offset="0" style="stop-color:#EFF8FF"/>
					<stop  offset="1" style="stop-color:#BDD0D9"/>
				</linearGradient>
				<path style="fill-rule:evenodd;clip-rule:evenodd;fill:url(#SVGID_2_);" d="M12.2-21.8l4.65-0.35
					c-0.333-1.366-0.6-2.316-0.8-2.85c-0.4-1.034-0.817-1.5-1.25-1.4C13.967-26.2,13.1-24.667,12.2-21.8z"/>
				
					<linearGradient id="SVGID_3_" gradientUnits="userSpaceOnUse" x1="377.6504" y1="321.4756" x2="379.402" y2="321.4756" gradientTransform="matrix(0.9991 0.0428 -0.0428 0.9991 -342.665 -357.6221)">
					<stop  offset="0" style="stop-color:#EFF8FF"/>
					<stop  offset="1" style="stop-color:#BDD0D9"/>
				</linearGradient>
				<path style="fill-rule:evenodd;clip-rule:evenodd;fill:url(#SVGID_3_);" d="M19.85-17.95l4.7-0.35
					c-0.4-1.5-0.683-2.45-0.85-2.85c-0.4-1.033-0.816-1.5-1.25-1.4C21.617-22.35,20.75-20.817,19.85-17.95z"/>
			</g>
			<g>
				
					<linearGradient id="SVGID_4_" gradientUnits="userSpaceOnUse" x1="-2107.7705" y1="-13442.8838" x2="-2088.6221" y2="-13442.8838" gradientTransform="matrix(0.3068 -0.9518 0.9518 0.3068 13451.7744 2113.7334)">
					<stop  offset="0" style="stop-color:#EFF8FF"/>
					<stop  offset="1" style="stop-color:#BDD0D9"/>
				</linearGradient>
				<path style="fill-rule:evenodd;clip-rule:evenodd;fill:url(#SVGID_4_);" d="M22.25-2.05c1.134,0,1.983-0.216,2.55-0.65
					c0.367-0.333,0.633-0.8,0.8-1.4c0.167-0.534,0.25-4.383,0.25-11.55v-1.45c-0.033-0.5-0.183-0.95-0.45-1.35
					c-0.267-0.434-1.167-1.184-2.7-2.25c-1.367-0.967-2.35-1.6-2.95-1.9c-0.7-0.4-1.45-0.733-2.25-1c-0.7-0.267-1.217-0.4-1.55-0.4
					c-2.4,0.3-4.25,0.45-5.55,0.45c-0.767,0.034-2.217,0.2-4.35,0.5c-2.1,0.3-3.35,0.483-3.75,0.55c-0.7,0.133-1.183,0.433-1.45,0.9
					c-0.333,0.667-0.517,2.017-0.55,4.05c-0.167,3.233-0.25,5.6-0.25,7.1C0.083-7.784,0.467-6.2,1.2-5.7
					C2.167-5.034,3.7-4.134,5.8-3c2.533,1.4,4.167,2.116,4.9,2.15C11.6-0.817,13.533-1,16.5-1.4C19.6-1.833,21.517-2.05,22.25-2.05z
					"/>
				
					<linearGradient id="SVGID_5_" gradientUnits="userSpaceOnUse" x1="-2370.6152" y1="-12877.6875" x2="-2353.6174" y2="-12877.6875" gradientTransform="matrix(0.3574 -0.934 0.934 0.3574 12892.376 2381.7461)">
					<stop  offset="0" style="stop-color:#EFF8FF"/>
					<stop  offset="1" style="stop-color:#BDD0D9"/>
				</linearGradient>
				<path style="fill-rule:evenodd;clip-rule:evenodd;fill:url(#SVGID_5_);" d="M25.6-4.1c0.067-0.2,0.133-1.067,0.2-2.6
					c0.033-1.066,0.05-4.05,0.05-8.95v-1.45c-0.033-0.5-0.183-0.95-0.45-1.35c-0.267-0.434-1.167-1.184-2.7-2.25
					c-1.367-0.967-2.35-1.6-2.95-1.9c-0.3-0.167-0.933-0.434-1.9-0.8c-0.966-0.366-1.6-0.566-1.9-0.6
					c0.333,0.667,0.483,1.383,0.45,2.15l-0.1,14l0.1,0.15c0.167,0.167,1.083,0.667,2.75,1.5c1.8,0.867,2.967,1.483,3.5,1.85
					c1.467,0.933,2.233,1.433,2.3,1.5C25.283-3.217,25.5-3.634,25.6-4.1z"/>
				<linearGradient id="SVGID_6_" gradientUnits="userSpaceOnUse" x1="0.7002" y1="-4.2676" x2="24.9002" y2="-4.2676">
					<stop  offset="0" style="stop-color:#EFF8FF"/>
					<stop  offset="1" style="stop-color:#DCF2FC"/>
				</linearGradient>
				<path style="fill-rule:evenodd;clip-rule:evenodd;fill:url(#SVGID_6_);" d="M23.4-4.05c-0.5-0.3-1.8-0.966-3.9-2
					c-1.866-0.9-2.9-1.45-3.1-1.65c-0.867,0.066-3.767,0.367-8.7,0.9c-3.733,0.4-6.066,0.567-7,0.5c0.167,0.267,0.333,0.467,0.5,0.6
					C2.167-5.034,3.7-4.134,5.8-3c2.533,1.4,4.167,2.116,4.9,2.15c2.267,0.1,6.117-0.3,11.55-1.2c1.434-0.2,2.333-0.466,2.7-0.8
					C24.35-3.35,23.833-3.75,23.4-4.05z"/>
			</g>
			<g>
				<g>
					
						<radialGradient id="SVGID_7_" cx="-1034.8145" cy="-2.7998" r="3.8251" gradientTransform="matrix(1 0 -0.0523 -0.4052 1054.7178 -3.9341)" gradientUnits="userSpaceOnUse">
						<stop  offset="0.2157" style="stop-color:#000000;stop-opacity:0.3765"/>
						<stop  offset="0.8667" style="stop-color:#000000;stop-opacity:0"/>
					</radialGradient>
					<path style="fill-rule:evenodd;clip-rule:evenodd;fill:url(#SVGID_7_);" d="M23.9-2.8c-0.067-0.433-0.5-0.8-1.3-1.1
						c-0.8-0.3-1.716-0.45-2.75-0.45l-1.45,0.1l0.2,0.35c0.2,0.934,0.284,1.634,0.25,2.1c0.067,0.1,0.1,0.25,0.1,0.45l1.3,0.1
						c1.067,0,1.95-0.15,2.65-0.45C23.634-2,23.967-2.367,23.9-2.8z"/>
					
						<linearGradient id="SVGID_8_" gradientUnits="userSpaceOnUse" x1="-135.8027" y1="-15026.1846" x2="-131.6059" y2="-15026.1846" gradientTransform="matrix(0.1489 -0.9888 1.0104 0.0061 15221.9824 -42.4072)">
						<stop  offset="0" style="stop-color:#EFF8FF"/>
						<stop  offset="1" style="stop-color:#BDD0D9"/>
					</linearGradient>
					<path style="fill-rule:evenodd;clip-rule:evenodd;fill:url(#SVGID_8_);" d="M18-3.75c-0.066,0.333-0.1,0.716-0.1,1.15
						c-0.033,0.867,0.1,1.483,0.4,1.85c0.433,0.5,0.966,0.866,1.6,1.1c0.767,0.267,1.4,0.167,1.9-0.3
						c0.767-0.667,1.067-1.45,0.9-2.35c-0.767-0.6-1.417-1-1.95-1.2L19.4-3.9C18.667-3.934,18.2-3.884,18-3.75z"/>
					<path style="fill-rule:evenodd;clip-rule:evenodd;fill:#FFFFFF;" d="M18.4-1.05C18.1-1.384,18-2.3,18.1-3.8L18-3.75
						c-0.066,0.333-0.1,0.716-0.1,1.15c-0.033,0.867,0.1,1.483,0.4,1.85c0.3,0.4,0.716,0.716,1.25,0.95
						c0.567,0.267,1.1,0.333,1.6,0.2C20.15,0.366,19.233-0.117,18.4-1.05z"/>
					<path style="fill-rule:evenodd;clip-rule:evenodd;fill:#FFFFFF;" d="M21.8,0.05L21.85,0c-0.7,0.133-1.383-0.284-2.05-1.25
						C19.634-1.483,19.517-2,19.45-2.8c-0.033-0.4-0.05-0.767-0.05-1.1h-0.2c0,1.534,0.1,2.483,0.3,2.85
						c0.167,0.267,0.4,0.517,0.7,0.75c0.467,0.367,0.934,0.534,1.4,0.5C21.634,0.167,21.7,0.116,21.8,0.05z"/>
					<path style="fill-rule:evenodd;clip-rule:evenodd;fill:#FFFFFF;" d="M19.8-1.25c0.667,0.966,1.35,1.383,2.05,1.25
						c0.7-0.634,0.983-1.4,0.85-2.3c-0.767-0.6-1.417-1-1.95-1.2L19.4-3.9c0,0.333,0.017,0.7,0.05,1.1
						C19.517-2,19.634-1.483,19.8-1.25z"/>
					
						<linearGradient id="SVGID_9_" gradientUnits="userSpaceOnUse" x1="-2065.918" y1="-12206.8594" x2="-2062.4834" y2="-12206.8594" gradientTransform="matrix(0.4149 -0.9099 0.9698 0.2835 12715.3525 1580.2734)">
						<stop  offset="0" style="stop-color:#E1F1FF"/>
						<stop  offset="1" style="stop-color:#BDD0D9"/>
					</linearGradient>
					<path style="fill-rule:evenodd;clip-rule:evenodd;fill:url(#SVGID_9_);" d="M19.8-1.25c0.667,0.966,1.35,1.383,2.05,1.25
						c0.7-0.634,0.983-1.4,0.85-2.3c-0.767-0.6-1.417-1-1.95-1.2L19.4-3.9c0,0.333,0.017,0.7,0.05,1.1
						C19.517-2,19.634-1.483,19.8-1.25z"/>
					
						<linearGradient id="SVGID_10_" gradientUnits="userSpaceOnUse" x1="-2066.3779" y1="-12287.1875" x2="-2064.0503" y2="-12287.1875" gradientTransform="matrix(0.4081 -0.9129 0.9676 0.2859 12752.5752 1624.8662)">
						<stop  offset="0" style="stop-color:#E8CDB0"/>
						<stop  offset="1" style="stop-color:#C0AA92"/>
					</linearGradient>
					<path style="fill-rule:evenodd;clip-rule:evenodd;fill:url(#SVGID_10_);" d="M20.2-1.9c0.467,0.667,0.934,0.967,1.4,0.9
						c0.5-0.467,0.7-1,0.6-1.6c-0.533-0.4-0.967-0.667-1.3-0.8l-0.95-0.3c0,0.233,0.017,0.483,0.05,0.75
						C20.033-2.384,20.1-2.034,20.2-1.9z"/>
				</g>
				<g>
					
						<radialGradient id="SVGID_11_" cx="-107.7148" cy="-6.1001" r="4.7125" gradientTransform="matrix(1 0 -0.0053 -0.3581 121.0332 -8.2847)" gradientUnits="userSpaceOnUse">
						<stop  offset="0.2157" style="stop-color:#000000;stop-opacity:0.3765"/>
						<stop  offset="0.8667" style="stop-color:#000000;stop-opacity:0"/>
					</radialGradient>
					<path style="fill-rule:evenodd;clip-rule:evenodd;fill:url(#SVGID_11_);" d="M16.75-4.85C17.617-5.184,18.033-5.567,18-6
						c0-0.467-0.45-0.867-1.35-1.2c-0.9-0.367-1.983-0.566-3.25-0.6c-0.467-0.033-1.1-0.017-1.9,0.05c0.167,0.1,0.25,0.233,0.25,0.4
						c0.134,1.133,0.15,1.9,0.05,2.3c0.133,0.167,0.167,0.333,0.1,0.5c0.5,0.1,1.033,0.15,1.6,0.15
						C14.767-4.4,15.85-4.55,16.75-4.85z"/>
					
						<linearGradient id="SVGID_12_" gradientUnits="userSpaceOnUse" x1="-1037.9316" y1="-15016.5801" x2="-1033.7843" y2="-15016.5801" gradientTransform="matrix(0.1507 -0.9886 0.9907 0.1367 15046.8574 1023.1504)">
						<stop  offset="0" style="stop-color:#EFF8FF"/>
						<stop  offset="1" style="stop-color:#BDD0D9"/>
					</linearGradient>
					<path style="fill-rule:evenodd;clip-rule:evenodd;fill:url(#SVGID_12_);" d="M10.95-7.2c-0.133,0.367-0.217,0.783-0.25,1.25
						C10.567-5.017,10.667-4.333,11-3.9c0.434,0.567,1.05,0.967,1.85,1.2c0.9,0.267,1.683,0.167,2.35-0.3
						c0.967-0.7,1.417-1.534,1.35-2.5C15.717-6.134,15-6.567,14.4-6.8l-1.65-0.55C11.817-7.417,11.217-7.367,10.95-7.2z"/>
					<path style="fill-rule:evenodd;clip-rule:evenodd;fill:#FFFFFF;" d="M11.2-4.2c-0.333-0.367-0.367-1.383-0.1-3.05L10.95-7.2
						c-0.133,0.367-0.217,0.783-0.25,1.25C10.567-5.017,10.667-4.333,11-3.9c0.367,0.467,0.85,0.817,1.45,1.05
						c0.667,0.3,1.316,0.367,1.95,0.2C13.167-2.684,12.1-3.2,11.2-4.2z"/>
					<path style="fill-rule:evenodd;clip-rule:evenodd;fill:#FFFFFF;" d="M15.25-3.05c-0.566,0.1-1.066-0.033-1.5-0.4
						c-0.2-0.167-0.467-0.483-0.8-0.95c-0.2-0.267-0.283-0.833-0.25-1.7c0-0.434,0.017-0.85,0.05-1.25H12.5
						c-0.1,1.867-0.083,2.917,0.05,3.15c0.167,0.3,0.417,0.583,0.75,0.85c0.5,0.367,1.033,0.533,1.6,0.5L15.2-3L15.25-3.05z"/>
					<path style="fill-rule:evenodd;clip-rule:evenodd;fill:#FFFFFF;" d="M12.95-4.4c0.333,0.467,0.6,0.784,0.8,0.95
						c0.434,0.367,0.934,0.5,1.5,0.4c0.934-0.667,1.367-1.483,1.3-2.45C15.717-6.134,15-6.567,14.4-6.8l-1.65-0.55
						c-0.033,0.4-0.05,0.816-0.05,1.25C12.667-5.233,12.75-4.667,12.95-4.4z"/>
					
						<linearGradient id="SVGID_13_" gradientUnits="userSpaceOnUse" x1="-2623.9902" y1="-12276.916" x2="-2620.6116" y2="-12276.916" gradientTransform="matrix(0.4096 -0.9123 0.9123 0.4096 12288.1201 2631.333)">
						<stop  offset="0" style="stop-color:#E1F1FF"/>
						<stop  offset="1" style="stop-color:#BDD0D9"/>
					</linearGradient>
					<path style="fill-rule:evenodd;clip-rule:evenodd;fill:url(#SVGID_13_);" d="M12.95-4.4c0.333,0.467,0.6,0.784,0.8,0.95
						c0.434,0.367,0.934,0.5,1.5,0.4c0.934-0.667,1.367-1.483,1.3-2.45C15.717-6.134,15-6.567,14.4-6.8l-1.65-0.55
						c-0.033,0.4-0.05,0.816-0.05,1.25C12.667-5.233,12.75-4.667,12.95-4.4z"/>
					
						<linearGradient id="SVGID_14_" gradientUnits="userSpaceOnUse" x1="-2586.2891" y1="-12246.5742" x2="-2583.9841" y2="-12246.5742" gradientTransform="matrix(0.4122 -0.9111 0.916 0.4014 12297.6279 2554.6699)">
						<stop  offset="0" style="stop-color:#E8CDB0"/>
						<stop  offset="1" style="stop-color:#C0AA92"/>
					</linearGradient>
					<path style="fill-rule:evenodd;clip-rule:evenodd;fill:url(#SVGID_14_);" d="M13.55-5.1c0.367,0.733,0.883,1.066,1.55,1
						c0.633-0.467,0.933-1.034,0.9-1.7c-0.566-0.466-1.066-0.767-1.5-0.9l-1.1-0.35c-0.033,0.267-0.05,0.534-0.05,0.8
						C13.35-5.65,13.417-5.267,13.55-5.1z"/>
				</g>
			</g>
			<g>
				<path style="fill-rule:evenodd;clip-rule:evenodd;fill:#8A7A6A;" d="M22.55-15.1l0.6,0.3c-0.033-0.833,0.083-1.35,0.35-1.55
					c0.167-0.133,0.333-0.1,0.5,0.1c0.067,0.066,0.117,0.2,0.15,0.4c0.066,0.167,0.183,0.233,0.35,0.2c0.2,0,0.25-0.216,0.15-0.65
					c-0.134-0.433-0.35-0.683-0.65-0.75c-0.3-0.1-0.533-0.1-0.7,0l-0.15,0.2c0-0.567-0.3-0.95-0.9-1.15
					c-0.8-0.3-1.267-0.134-1.4,0.5c-0.033,0.233,0.05,0.383,0.25,0.45c0.2,0.034,0.333-0.033,0.4-0.2
					c0.067-0.2,0.217-0.267,0.45-0.2c0.267,0.066,0.467,0.217,0.6,0.45C22.717-16.634,22.717-16,22.55-15.1z"/>
			</g>
			<g>
				
					<radialGradient id="SVGID_15_" cx="22.7002" cy="-15.4502" r="1.45" gradientTransform="matrix(1 0 0 -1 0 -30.9004)" gradientUnits="userSpaceOnUse">
					<stop  offset="0.2157" style="stop-color:#000000;stop-opacity:0.3765"/>
					<stop  offset="0.8667" style="stop-color:#000000;stop-opacity:0"/>
				</radialGradient>
				<path style="fill-rule:evenodd;clip-rule:evenodd;fill:url(#SVGID_15_);" d="M23.7-15.6c-0.133-0.233-0.684-0.667-1.65-1.3
					c-0.467,0.034-0.767,0.2-0.9,0.5c-0.134,0.3-0.083,0.65,0.15,1.05c0.267,0.433,0.667,0.783,1.2,1.05
					c0.434,0.2,0.9,0.333,1.4,0.4v-0.6C23.9-15.034,23.833-15.4,23.7-15.6z"/>
				
					<linearGradient id="SVGID_16_" gradientUnits="userSpaceOnUse" x1="-141.5244" y1="-16173.7344" x2="-140.2242" y2="-16173.7344" gradientTransform="matrix(0.0192 -0.9998 0.9998 0.0192 16196.2666 154.7295)">
					<stop  offset="0" style="stop-color:#E9A9BA"/>
					<stop  offset="1" style="stop-color:#C47F91"/>
				</linearGradient>
				<path style="fill-rule:evenodd;clip-rule:evenodd;fill:url(#SVGID_16_);" d="M22.95-13.7c0.2,0.133,0.434,0.167,0.7,0.1
					c0.267-0.034,0.417-0.117,0.45-0.25c0.1-0.333-0.1-0.7-0.6-1.1c-0.566-0.7-1-1.066-1.3-1.1c-0.333-0.033-0.55,0.117-0.65,0.45
					c-0.1,0.233-0.1,0.483,0,0.75C21.617-14.583,22.083-14.2,22.95-13.7z"/>
				<path style="fill-rule:evenodd;clip-rule:evenodd;fill:#F4D8E1;" d="M23.35-13.75c0.367,0.233,0.617,0.167,0.75-0.2
					c0.067-0.267-0.033-0.6-0.3-1c-0.767-0.733-1.284-1.083-1.55-1.05c-0.233,0.033-0.383,0.167-0.45,0.4
					c-0.067,0.2-0.05,0.433,0.05,0.7C21.917-14.767,22.417-14.384,23.35-13.75z"/>
				
					<linearGradient id="SVGID_17_" gradientUnits="userSpaceOnUse" x1="-2962.7705" y1="-11185.3984" x2="-2961.2139" y2="-11185.3984" gradientTransform="matrix(0.4979 -0.8673 0.8673 0.4979 11198.333 2985.0898)">
					<stop  offset="0" style="stop-color:#C78F9F"/>
					<stop  offset="1" style="stop-color:#9B6473"/>
				</linearGradient>
				<path style="fill-rule:evenodd;clip-rule:evenodd;fill:url(#SVGID_17_);" d="M23.35-13.8c0.167,0.133,0.333,0.184,0.5,0.15
					c0.167-0.033,0.267-0.116,0.3-0.25c0.133-0.533,0.05-0.9-0.25-1.1c-0.867-0.733-1.434-1.083-1.7-1.05
					c-0.233,0.034-0.35,0.184-0.35,0.45c-0.033,0.2,0,0.417,0.1,0.65C22.017-14.684,22.483-14.3,23.35-13.8z"/>
			</g>
			<g>
				<g>
					
						<linearGradient id="SVGID_18_" gradientUnits="userSpaceOnUse" x1="18046.75" y1="-2196.9902" x2="18049.375" y2="-2196.9902" gradientTransform="matrix(-0.2381 0.9713 -0.9713 -0.2381 2180.6499 -18066.7207)">
						<stop  offset="0" style="stop-color:#A7BCD0"/>
						<stop  offset="1" style="stop-color:#678795"/>
					</linearGradient>
					<path style="fill-rule:evenodd;clip-rule:evenodd;fill:url(#SVGID_18_);" d="M19.35-15.1c0-0.5-0.1-0.917-0.3-1.25
						c-0.233-0.333-0.5-0.5-0.8-0.5c-0.3,0-0.55,0.167-0.75,0.5c-0.233,0.333-0.35,0.75-0.35,1.25c0,0.466,0.116,0.867,0.35,1.2
						c0.2,0.333,0.45,0.5,0.75,0.5c0.3,0,0.567-0.167,0.8-0.5C19.25-14.233,19.35-14.634,19.35-15.1z"/>
					
						<linearGradient id="SVGID_19_" gradientUnits="userSpaceOnUse" x1="510.6089" y1="-16806.0703" x2="513.5641" y2="-16806.0703" gradientTransform="matrix(-0.0592 -0.9982 0.9982 -0.0592 16824.8711 -499.6333)">
						<stop  offset="0" style="stop-color:#5F4E29"/>
						<stop  offset="0.8588" style="stop-color:#271D09"/>
					</linearGradient>
					<path style="fill-rule:evenodd;clip-rule:evenodd;fill:url(#SVGID_19_);" d="M18.9-15.15c0-0.366-0.083-0.667-0.25-0.9
						c-0.167-0.233-0.384-0.35-0.65-0.35c-0.233,0-0.45,0.117-0.65,0.35c-0.167,0.233-0.25,0.534-0.25,0.9
						c0,0.367,0.083,0.684,0.25,0.95c0.167,0.233,0.383,0.35,0.65,0.35s0.483-0.117,0.65-0.35C18.817-14.467,18.9-14.784,18.9-15.15
						z"/>
				</g>
				<g>
					
						<linearGradient id="SVGID_20_" gradientUnits="userSpaceOnUse" x1="18046.6992" y1="-2204.5322" x2="18049.3242" y2="-2204.5322" gradientTransform="matrix(-0.2381 0.9713 -0.9713 -0.2381 2180.6499 -18066.7207)">
						<stop  offset="0" style="stop-color:#A7BCD0"/>
						<stop  offset="1" style="stop-color:#678795"/>
					</linearGradient>
					<path style="fill-rule:evenodd;clip-rule:evenodd;fill:url(#SVGID_20_);" d="M25.8-11.25c0-0.434-0.067-0.817-0.2-1.15
						c-0.167-0.333-0.35-0.5-0.55-0.5c-0.2,0-0.367,0.167-0.5,0.5c-0.133,0.3-0.2,0.684-0.2,1.15c0,1.066,0.233,1.6,0.7,1.6
						c0.2,0,0.383-0.15,0.55-0.45C25.733-10.434,25.8-10.817,25.8-11.25z"/>
					
						<linearGradient id="SVGID_21_" gradientUnits="userSpaceOnUse" x1="543.5317" y1="-16832.3008" x2="546.2873" y2="-16832.3008" gradientTransform="matrix(-0.0635 -0.998 0.998 -0.0635 16857.7969 -536.8745)">
						<stop  offset="0" style="stop-color:#5F4E29"/>
						<stop  offset="0.8588" style="stop-color:#271D09"/>
					</linearGradient>
					<path style="fill-rule:evenodd;clip-rule:evenodd;fill:url(#SVGID_21_);" d="M25.5-11.25c0-0.8-0.2-1.2-0.6-1.2
						c-0.4,0-0.6,0.4-0.6,1.2c0,0.8,0.2,1.2,0.6,1.2C25.3-10.05,25.5-10.45,25.5-11.25z"/>
				</g>
			</g>
			<g>
				<path style="fill-rule:evenodd;clip-rule:evenodd;fill:#FFFFFF;" d="M24.95-2.85c-0.066-0.4-1.45-1.333-4.15-2.8
					c-2.7-1.5-4.083-2.417-4.15-2.75c-0.067-0.366-0.067-4.517,0-12.45c-0.033-1.7-0.267-2.75-0.7-3.15l0.2,0.6
					c0.1,0.267,0.133,2.267,0.1,6c-0.033,3.434-0.083,5.8-0.15,7.1c-0.067,1.1-0.133,1.733-0.2,1.9c-0.067,0.2-0.25,0.333-0.55,0.4
					c-0.4,0.1-3.233,0.417-8.5,0.95l-6.1,1l7.6-0.8c1.367-0.167,2.983-0.317,4.85-0.45c1.833-0.133,2.883-0.167,3.15-0.1
					c0.333,0.034,1.633,0.65,3.9,1.85C21.717-4.784,23.283-3.884,24.95-2.85z"/>
			</g>
		</g>
	</g>
</symbol>
<symbol  id="cubimal_x5F_mc" viewBox="-0.385 -26.364 31.835 26.909">
	<g id="Layer_5_1_">
	</g>
	<g id="Layer_4_2_">
	</g>
	<g id="Layer_2_copy_2_">
	</g>
	<g id="Layer_2_2_">
	</g>
	<g id="Layer_1_9_">
		
			<use xlink:href="#cubimal_x5F_scene1"  width="31.835" height="26.909" x="0.015" y="-26.414" transform="matrix(1 0 0 1 -0.3999 0.0498)" style="overflow:visible;"/>
	</g>
	<g id="Layer_6_1_">
	</g>
</symbol>
<symbol  id="cubimal_x5F_scene1" viewBox="0.015 -26.414 31.835 26.909">
	<g id="Layer_1_8_">
		
			<use xlink:href="#winder_x5F_static"  width="10.185" height="8.474" x="0.015" y="-8.472" transform="matrix(1 0 0 1 0 -7.9502)" style="overflow:visible;"/>
		
			<use xlink:href="#cubimal_1_"  width="25.8" height="26.909" x="0.05" y="-26.414" transform="matrix(1 0 0 1 6 0)" style="overflow:visible;"/>
	</g>
</symbol>
<symbol  id="winder_x5F_static" viewBox="0.015 -8.472 10.185 8.474">
	<g id="Layer_4_1_">
		
			<use xlink:href="#winderedge"  width="4.537" height="8.127" x="0.015" y="-8.126" transform="matrix(1 0 0 1 0.7002 0)" style="overflow:visible;"/>
	</g>
	<g id="Layer_3_1_">
		
			<use xlink:href="#winderfacehighlight"  width="4.573" height="8.174" x="0.016" y="-8.173" transform="matrix(1 0 0 1 0.2002 -0.2002)" style="overflow:visible;"/>
	</g>
	<g id="Layer_2_copy_1_">
		
			<use xlink:href="#winderface1a"  width="4.573" height="8.174" x="0.015" y="-8.172" transform="matrix(1 0 0 1 0 -0.2998)" style="overflow:visible;"/>
	</g>
	<g id="Layer_1_7_">
		<g>
			
				<linearGradient id="SVGID_22_" gradientUnits="userSpaceOnUse" x1="1516.7368" y1="-17621.7734" x2="1518.0562" y2="-17621.7734" gradientTransform="matrix(-0.1705 -0.9854 0.9854 -0.1705 17629.7129 -1515.4766)">
				<stop  offset="0" style="stop-color:#8F8F8F"/>
				<stop  offset="0.2275" style="stop-color:#E8E8E8"/>
				<stop  offset="1" style="stop-color:#696969"/>
			</linearGradient>
			<path style="fill-rule:evenodd;clip-rule:evenodd;fill:url(#SVGID_22_);" d="M10.2-6.3L4.8-5.5C4.5-5.533,4.351-5.366,4.351-5
				c0,0.233,0.083,0.4,0.25,0.5c0.066,0.066,0.133,0.1,0.2,0.1l5.4-0.8V-6.3z"/>
		</g>
	</g>
</symbol>
<symbol  id="winderedge" viewBox="0.015 -8.126 4.537 8.127">
	<g id="Layer_1_4_">
		<g>
			
				<linearGradient id="SVGID_23_" gradientUnits="userSpaceOnUse" x1="7.2109" y1="-16351.5195" x2="14.0359" y2="-16351.5195" gradientTransform="matrix(1.465202e-004 -1 1 -0.001 16353.8027 -9.1782)">
				<stop  offset="0" style="stop-color:#8F8F8F"/>
				<stop  offset="0.2275" style="stop-color:#E8E8E8"/>
				<stop  offset="1" style="stop-color:#696969"/>
			</linearGradient>
			<path style="fill-rule:evenodd;clip-rule:evenodd;fill:url(#SVGID_23_);" d="M3.5-5.899c0.066,0.6-0.083,0.983-0.45,1.15L2.6-4.7
				C2.367-4.7,2.167-4.733,2-4.8c-0.533-0.167-0.833-0.533-0.9-1.1c-0.034-0.5,0.1-0.85,0.4-1.05c0.434-0.233,0.867-0.233,1.3,0
				C3.2-6.716,3.434-6.366,3.5-5.899z M0.05-1.25c0.1,0.8,0.5,1.216,1.2,1.25c1.367,0.033,2.333-0.633,2.9-2
				c0.5-1.233,0.534-2.05,0.1-2.45c0.434-0.533,0.4-1.333-0.1-2.4c-0.567-1.167-1.533-1.533-2.9-1.1c-0.7,0.233-1.1,0.767-1.2,1.6
				c-0.133,0.867,0.117,1.533,0.75,2L1.25-4L0.8-3.55C0.167-2.85-0.083-2.083,0.05-1.25z M3.5-2.75C3.434-2.25,3.2-1.833,2.8-1.5
				C2.367-1.1,1.934-0.966,1.5-1.1c-0.3-0.133-0.434-0.467-0.4-1C1.167-2.666,1.467-3.116,2-3.45l0.6-0.3L3.05-3.8
				C3.417-3.766,3.566-3.416,3.5-2.75z"/>
		</g>
	</g>
</symbol>
<symbol  id="winderface1a" viewBox="0.015 -8.172 4.573 8.174">
	<g id="Layer_1_2_">
		
			<linearGradient id="SVGID_24_" gradientUnits="userSpaceOnUse" x1="-1921.0518" y1="-13815.4893" x2="-1911.8795" y2="-13815.4893" gradientTransform="matrix(0.2726 -0.9621 0.9621 0.2726 13816.6416 1918.4072)">
			<stop  offset="0" style="stop-color:#E8E8E8"/>
			<stop  offset="1" style="stop-color:#878787"/>
		</linearGradient>
		<path style="fill-rule:evenodd;clip-rule:evenodd;fill:url(#SVGID_24_);" d="M2.05-4.8c-0.566-0.133-0.867-0.483-0.9-1.05
			c-0.033-0.533,0.1-0.9,0.4-1.1c0.4-0.267,0.817-0.267,1.25,0C3.2-6.717,3.433-6.367,3.5-5.9c0.133,0.633,0,1-0.4,1.1L2.65-4.7
			L2.05-4.8z M0.05-1.25C0.183-0.45,0.6-0.033,1.3,0c1.367,0.033,2.333-0.633,2.9-2c0.5-1.233,0.517-2.05,0.05-2.45
			c0.467-0.5,0.45-1.3-0.05-2.4C3.633-8.05,2.667-8.433,1.3-8C0.6-7.733,0.183-7.183,0.05-6.35c-0.133,0.867,0.117,1.533,0.75,2
			L1.3-4L0.8-3.55C0.167-2.85-0.083-2.083,0.05-1.25z M3.5-2.75C3.433-2.25,3.2-1.833,2.8-1.5C2.367-1.1,1.95-0.967,1.55-1.1
			c-0.3-0.133-0.433-0.467-0.4-1c0.033-0.6,0.333-1.05,0.9-1.35l0.6-0.3L3.1-3.8C3.467-3.767,3.6-3.417,3.5-2.75z"/>
	</g>
</symbol>
<symbol  id="winderfacehighlight" viewBox="0.016 -8.173 4.573 8.174">
	<g id="Layer_1_3_">
		
			<linearGradient id="SVGID_25_" gradientUnits="userSpaceOnUse" x1="-1921.0518" y1="-13815.4893" x2="-1911.8795" y2="-13815.4893" gradientTransform="matrix(0.2726 -0.9621 0.9621 0.2726 13816.6416 1918.4072)">
			<stop  offset="0" style="stop-color:#E8E8E8"/>
			<stop  offset="1" style="stop-color:#EDEDED"/>
		</linearGradient>
		<path style="fill-rule:evenodd;clip-rule:evenodd;fill:url(#SVGID_25_);" d="M2.05-4.8c-0.567-0.133-0.867-0.483-0.9-1.05
			c-0.033-0.533,0.1-0.9,0.4-1.1c0.4-0.267,0.817-0.267,1.25,0C3.2-6.717,3.434-6.367,3.5-5.9c0.1,0.6-0.034,0.967-0.4,1.1L2.65-4.7
			L2.05-4.8z M0.05-1.25C0.184-0.45,0.601-0.034,1.3,0c1.367,0.034,2.333-0.633,2.9-2c0.5-1.233,0.517-2.05,0.05-2.45
			c0.466-0.5,0.45-1.3-0.05-2.4C3.634-8.05,2.667-8.434,1.3-8c-0.7,0.267-1.117,0.817-1.25,1.65c-0.133,0.867,0.117,1.534,0.75,2
			L1.3-4L0.8-3.55C0.167-2.851-0.083-2.084,0.05-1.25z M1.55-1.101c-0.3-0.133-0.433-0.466-0.4-1c0.033-0.6,0.333-1.05,0.9-1.35
			l0.6-0.3l0.45-0.05c0.366,0.033,0.5,0.383,0.4,1.05C3.434-2.25,3.2-1.834,2.8-1.5C2.367-1.101,1.95-0.967,1.55-1.101z"/>
	</g>
</symbol>
<use xlink:href="#cubimal_x5F_mc"  width="31.835" height="26.909" id="cubimal" x="-0.385" y="-26.364" transform="matrix(1 0 0 -1 0.3999 0.5498)" style="overflow:visible;"/>
</svg>
