<?xml version="1.0" encoding="iso-8859-1"?>
<!-- Generator: Adobe Illustrator 15.1.0, SVG Export Plug-In . SVG Version: 6.00 Build 0)  -->
<!DOCTYPE svg PUBLIC "-//W3C//DTD SVG 1.1//EN" "http://www.w3.org/Graphics/SVG/1.1/DTD/svg11.dtd">
<svg version="1.1" id="flash0.ai" xmlns="http://www.w3.org/2000/svg" xmlns:xlink="http://www.w3.org/1999/xlink" x="0px" y="0px"
	 width="32.55px" height="25px" viewBox="0 0 32.55 25" style="enable-background:new 0 0 32.55 25;" xml:space="preserve">
<symbol  id="cubimal_1_" viewBox="0.4 -24 26.14 25.012">
	<g id="Layer_1_5_">
		<g>
			
				<linearGradient id="SVGID_1_" gradientUnits="userSpaceOnUse" x1="-2109.3076" y1="-13442.291" x2="-2090.1592" y2="-13442.291" gradientTransform="matrix(0.3068 -0.9518 0.9518 0.3068 13452.0332 2112.0879)">
				<stop  offset="0" style="stop-color:#D0B965"/>
				<stop  offset="1" style="stop-color:#958344"/>
			</linearGradient>
			<path style="fill-rule:evenodd;clip-rule:evenodd;fill:url(#SVGID_1_);" d="M22.601-2.05c1.133,0,1.983-0.216,2.55-0.65
				c0.367-0.333,0.633-0.8,0.8-1.4c0.167-0.534,0.25-4.383,0.25-11.55c0-0.366,0-0.85,0-1.45c-0.033-0.5-0.183-0.95-0.45-1.35
				c-0.267-0.434-1.167-1.184-2.7-2.25c-1.367-0.967-2.35-1.6-2.95-1.9c-0.7-0.4-1.45-0.733-2.25-1c-0.7-0.267-1.217-0.4-1.55-0.4
				c-2.433,0.3-4.283,0.45-5.55,0.45c-0.8,0.034-2.25,0.2-4.35,0.5c-2.133,0.3-3.4,0.483-3.8,0.55c-0.667,0.133-1.134,0.433-1.4,0.9
				c-0.333,0.667-0.517,2.017-0.55,4.05c-0.167,3.233-0.25,5.6-0.25,7.1C0.434-7.784,0.817-6.2,1.55-5.7
				c0.9,0.633,2.433,1.533,4.6,2.7c2.533,1.4,4.167,2.116,4.9,2.15c0.9,0.033,2.833-0.15,5.8-0.55
				C19.95-1.833,21.867-2.05,22.601-2.05z"/>
			<g>
				
					<linearGradient id="SVGID_2_" gradientUnits="userSpaceOnUse" x1="-2110.7041" y1="-13442.252" x2="-2088.8755" y2="-13442.252" gradientTransform="matrix(0.3069 -0.9517 0.9517 0.3069 13450.6934 2112.7754)">
					<stop  offset="0" style="stop-color:#EDD478"/>
					<stop  offset="1" style="stop-color:#958344"/>
				</linearGradient>
				<polygon style="fill-rule:evenodd;clip-rule:evenodd;fill:url(#SVGID_2_);" points="8.15,-2.75 10.65,-5.6 9.75,-5.4 				"/>
				
					<linearGradient id="SVGID_3_" gradientUnits="userSpaceOnUse" x1="-2108.8184" y1="-13450.6299" x2="-2086.9658" y2="-13450.6299" gradientTransform="matrix(0.3066 -0.9518 0.9518 0.3066 13454.3057 2110.9219)">
					<stop  offset="0" style="stop-color:#EDD478"/>
					<stop  offset="1" style="stop-color:#958344"/>
				</linearGradient>
				<polygon style="fill-rule:evenodd;clip-rule:evenodd;fill:url(#SVGID_3_);" points="3.9,-4.25 4.55,-3.9 5,-4.45 				"/>
				
					<linearGradient id="SVGID_4_" gradientUnits="userSpaceOnUse" x1="-2110.7266" y1="-13447.999" x2="-2088.8979" y2="-13447.999" gradientTransform="matrix(0.3069 -0.9517 0.9517 0.3069 13450.6934 2112.7754)">
					<stop  offset="0" style="stop-color:#EDD478"/>
					<stop  offset="1" style="stop-color:#958344"/>
				</linearGradient>
				<path style="fill-rule:evenodd;clip-rule:evenodd;fill:url(#SVGID_4_);" d="M1.55-5.7l1.5,0.95c0.967-2.034,2.5-5.067,4.6-9.1
					c2.833-5.434,4.717-8.717,5.65-9.85c-0.9,0.1-1.75,0.15-2.55,0.15c-0.833,0-2.383,0.167-4.65,0.5
					C4.067-17.684,2.284-12.367,0.75-7.1C0.983-6.4,1.25-5.934,1.55-5.7z"/>
				
					<linearGradient id="SVGID_5_" gradientUnits="userSpaceOnUse" x1="-2110.6992" y1="-13441.0977" x2="-2088.8706" y2="-13441.0977" gradientTransform="matrix(0.3069 -0.9517 0.9517 0.3069 13450.6934 2112.7754)">
					<stop  offset="0" style="stop-color:#EDD478"/>
					<stop  offset="1" style="stop-color:#958344"/>
				</linearGradient>
				<path style="fill-rule:evenodd;clip-rule:evenodd;fill:url(#SVGID_5_);" d="M17.3-15.7c2-2.434,3.534-4.367,4.6-5.8
					c-0.7-0.5-1.3-0.867-1.8-1.1L19-23.15L5-4.45L9.75-5.4C11.784-8.667,14.3-12.1,17.3-15.7z"/>
			</g>
			
				<linearGradient id="SVGID_6_" gradientUnits="userSpaceOnUse" x1="-2372.0674" y1="-12877.0703" x2="-2355.0696" y2="-12877.0703" gradientTransform="matrix(0.3574 -0.934 0.934 0.3574 12892.667 2380.1689)">
				<stop  offset="0.9882" style="stop-color:#85763C"/>
				<stop  offset="1" style="stop-color:#958344"/>
			</linearGradient>
			<path style="fill-rule:evenodd;clip-rule:evenodd;fill:url(#SVGID_6_);" d="M25.95-4.1c0.067-0.2,0.134-1.067,0.2-2.6
				c0.033-1.066,0.05-4.05,0.05-8.95c0-0.366,0-0.85,0-1.45c-0.033-0.5-0.183-0.95-0.45-1.35c-0.267-0.434-1.167-1.184-2.7-2.25
				c-1.367-0.967-2.35-1.6-2.95-1.9c-0.3-0.167-0.934-0.434-1.9-0.8c-0.967-0.366-1.6-0.566-1.9-0.6
				c0.333,0.667,0.483,1.383,0.45,2.15l-0.1,14l0.1,0.15c0.167,0.167,1.083,0.667,2.75,1.5c1.8,0.867,2.966,1.483,3.5,1.85
				c1.4,0.9,2.15,1.4,2.25,1.5C25.617-3.217,25.851-3.634,25.95-4.1z"/>
			<path style="fill-rule:evenodd;clip-rule:evenodd;fill:#D1B867;" d="M23.75-4.05c-0.5-0.3-1.8-0.966-3.9-2
				c-1.867-0.9-2.9-1.45-3.1-1.65c-0.867,0.066-3.767,0.367-8.7,0.9c-3.733,0.4-6.067,0.567-7,0.5c0.167,0.267,0.333,0.467,0.5,0.6
				c0.9,0.633,2.433,1.533,4.6,2.7c2.533,1.4,4.167,2.116,4.9,2.15c2.267,0.1,6.117-0.3,11.55-1.2c1.433-0.2,2.316-0.466,2.65-0.8
				C24.817-3.284,24.317-3.684,23.75-4.05z"/>
			<path style="fill-rule:evenodd;clip-rule:evenodd;fill:#F7E4A4;" d="M25.25-2.85c-0.067-0.4-1.433-1.333-4.1-2.8
				c-2.7-1.5-4.083-2.417-4.15-2.75c-0.067-0.366-0.067-4.517,0-12.45c-0.034-1.7-0.267-2.75-0.7-3.15l0.2,0.6
				c0.1,0.267,0.133,2.267,0.1,6c-0.033,3.6-0.1,5.967-0.2,7.1c-0.066,1.1-0.117,1.733-0.15,1.9C16.184-8.2,16-8.067,15.7-8
				c-0.4,0.1-3.233,0.417-8.5,0.95l-6.1,1l7.6-0.8c1.367-0.167,2.983-0.317,4.85-0.45c1.833-0.133,2.883-0.167,3.15-0.1
				c0.333,0.034,1.634,0.65,3.9,1.85C22.067-4.784,23.617-3.884,25.25-2.85z"/>
			
				<radialGradient id="SVGID_7_" cx="-164.4541" cy="-16161.1738" r="15.3532" gradientTransform="matrix(0.0208 -0.9998 -0.8011 -0.0167 -12922.3203 -441.1216)" gradientUnits="userSpaceOnUse">
				<stop  offset="0" style="stop-color:#FDFDFD"/>
				<stop  offset="1" style="stop-color:#B8B8B8"/>
			</radialGradient>
			<path style="fill-rule:evenodd;clip-rule:evenodd;fill:url(#SVGID_7_);" d="M23.05-5.7c1.133,0.5,1.867,0.667,2.2,0.5
				c0.267-0.1,0.4-3.767,0.4-11c0-1-0.517-1.917-1.55-2.75c-0.4-0.333-1.233-0.85-2.5-1.55c-1.134-0.667-1.783-1.034-1.95-1.1
				c-0.733-0.333-1.233-0.3-1.5,0.1c-0.267,0.4-0.467,2.2-0.6,5.4c-0.1,2.533-0.133,4.566-0.1,6.1
				C17.483-8.634,19.351-7.2,23.05-5.7z"/>
			<path style="fill-rule:evenodd;clip-rule:evenodd;fill:#999999;" d="M24.7-7.5c-0.3,0.167-0.967,0.05-2-0.35
				c-3.3-1.4-4.967-2.717-5-3.95c0-4.033,0.083-7.066,0.25-9.1c-0.2,1-0.35,2.9-0.45,5.7c-0.067,2.3-0.083,4.033-0.05,5.2
				c0.033,1.366,1.9,2.8,5.6,4.3c1.133,0.5,1.867,0.667,2.2,0.5c0.267-0.1,0.4-3.767,0.4-11c0-0.6-0.2-1.184-0.6-1.75
				C25.05-11.117,24.934-7.634,24.7-7.5z"/>
			
				<radialGradient id="SVGID_8_" cx="-161.5664" cy="-16164.1904" r="15.3157" gradientTransform="matrix(0.0205 -0.9998 -0.8333 -0.0171 -13444.5664 -444.249)" gradientUnits="userSpaceOnUse">
				<stop  offset="0" style="stop-color:#757575"/>
				<stop  offset="1" style="stop-color:#4A4A4A"/>
			</radialGradient>
			<path style="fill-rule:evenodd;clip-rule:evenodd;fill:url(#SVGID_8_);" d="M23.05-5.7c1.133,0.5,1.867,0.667,2.2,0.5
				c0.267-0.1,0.4-3.767,0.4-11c0-1-0.517-1.917-1.55-2.75c-0.4-0.333-1.233-0.85-2.5-1.55c-1.134-0.667-1.783-1.034-1.95-1.1
				c-0.733-0.333-1.233-0.3-1.5,0.1c-0.267,0.4-0.467,2.2-0.6,5.4c-0.1,2.533-0.133,4.566-0.1,6.1
				C17.483-8.634,19.351-7.2,23.05-5.7z M24.9-5.7c-0.333,0.133-1-0.017-2-0.45c-3.3-1.566-4.967-2.917-5-4.05
				c-0.033-1.4,0-3.316,0.1-5.75c0.1-3,0.267-4.684,0.5-5.05c0.233-0.367,0.683-0.4,1.35-0.1c0.1,0.033,0.7,0.383,1.8,1.05
				c1.133,0.667,1.867,1.15,2.2,1.45c0.933,0.767,1.4,1.617,1.4,2.55C25.25-9.217,25.134-5.767,24.9-5.7z"/>
			<g>
				<path style="fill-rule:evenodd;clip-rule:evenodd;fill:#958344;" d="M18.5-6l1.25-0.05l0.3-3.3l-0.1-0.8L18.8-10.9h-0.05
					c-0.534-0.133-0.983-0.3-1.35-0.5c-0.2-0.1-0.517-0.1-0.95,0l-0.6,0.15c0.1,1.1,0.1,1.883,0,2.35l-0.4,1.25l0.7,0.55
					C16.617-6.733,17.4-6.367,18.5-6z"/>
				<path style="fill-rule:evenodd;clip-rule:evenodd;fill:#BEA757;" d="M18.5-6l1.25-0.05l-2.65-1.65L16.8-8l-0.85-0.2
					c-0.1,0.1-0.267,0.25-0.5,0.45v0.1l0.7,0.55C16.617-6.733,17.4-6.367,18.5-6z"/>
				<path style="fill-rule:evenodd;clip-rule:evenodd;fill:#AB964D;" d="M16.4-7.95v-1.8c0.1-0.867,0.233-1.4,0.4-1.6
					c-0.367-0.067-0.716-0.067-1.05,0l-0.2,1.6c-0.167,0.767-0.25,1.366-0.25,1.8H16.4z"/>
				<path style="fill-rule:evenodd;clip-rule:evenodd;fill:#82807A;" d="M18.5-7.65c0.6,0.1,0.933-0.167,1-0.8
					c0.033-0.533-0.083-0.983-0.35-1.35c-0.233-0.3-0.533-0.417-0.9-0.35c-0.4,0.067-0.6,0.3-0.6,0.7
					C17.65-8.417,17.934-7.817,18.5-7.65z"/>
				<path style="fill-rule:evenodd;clip-rule:evenodd;fill:#555452;" d="M18-8.55c-0.133-0.167-0.2-0.483-0.2-0.95l-0.15,0.05
					c0,1.033,0.283,1.633,0.85,1.8c0.5,0.1,0.817-0.066,0.95-0.5c0.1-0.366,0.067-0.783-0.1-1.25c-0.067,0.4-0.2,0.7-0.4,0.9
					c-0.233,0.233-0.4,0.35-0.5,0.35C18.417-8.15,18.267-8.284,18-8.55z"/>
				<path style="fill-rule:evenodd;clip-rule:evenodd;fill:#D1B867;" d="M19.351-9.1l0.15,0.55c0-0.2,0.067-0.433,0.2-0.7
					c0-0.1-0.066-0.267-0.2-0.5c-0.034-0.1-0.267-0.233-0.7-0.4c-0.2-0.1-0.433-0.1-0.7,0c-0.267,0.067-0.417,0.217-0.45,0.45
					c0.434-0.2,0.733-0.283,0.9-0.25C18.817-9.884,19.084-9.6,19.351-9.1z"/>
				<path style="fill-rule:evenodd;clip-rule:evenodd;fill:#555452;" d="M19-8.15v-0.3c0.067-0.167-0.017-0.367-0.25-0.6
					c-0.233-0.233-0.45-0.316-0.65-0.25c-0.033,0.1,0.083,0.3,0.35,0.6C18.684-8.434,18.867-8.25,19-8.15z"/>
				<path style="fill-rule:evenodd;clip-rule:evenodd;fill:#ACABA7;" d="M18.65-8.2l-0.3-0.15c-0.067,0-0.117-0.067-0.15-0.2
					s-0.1-0.2-0.2-0.2C17.967-8.384,18.184-8.2,18.65-8.2z"/>
				<path style="fill-rule:evenodd;clip-rule:evenodd;fill:#ACABA7;" d="M19-8.7l0.2-0.15c0-0.2-0.1-0.383-0.3-0.55
					c-0.233-0.2-0.434-0.216-0.6-0.05c0.233,0.1,0.383,0.217,0.45,0.35C18.884-9.034,18.967-8.9,19-8.7z"/>
				<path style="fill-rule:evenodd;clip-rule:evenodd;fill:#F7E4A4;" d="M19.5-6.1c0.133-0.2,0-0.434-0.4-0.7
					c-0.5-0.267-0.833-0.433-1-0.5c-0.7-0.367-1.083-0.583-1.15-0.65c-0.066-0.066-0.183-0.467-0.35-1.2l-0.05-1.55l-0.3,1.85
					L16.2-8.2c-0.066,0.133-0.167,0.217-0.3,0.25c-0.2,0.033-0.333,0.066-0.4,0.1c0.7-0.067,1.233,0,1.6,0.2l1.75,1.05
					C18.983-6.5,19.2-6.333,19.5-6.1z"/>
			</g>
			<g>
				<path style="fill-rule:evenodd;clip-rule:evenodd;fill:#958344;" d="M26.15-2.4l0.35-2.95c0.067-0.233,0.05-0.467-0.05-0.7
					l-0.85-0.65h-0.05c-0.533-0.167-0.9-0.3-1.1-0.4c-0.133-0.1-0.4-0.1-0.8,0l-0.5,0.15c0.033,1.033,0,1.767-0.1,2.2l-0.4,1.25
					l0.6,0.45c0.367,0.3,1.017,0.583,1.95,0.85L26.15-2.4z"/>
				<path style="fill-rule:evenodd;clip-rule:evenodd;fill:#BEA757;" d="M23.15-4.05l-0.45,0.4L22.65-3.5l0.6,0.45
					c0.367,0.3,1.017,0.583,1.95,0.85l0.95-0.2c-1.2-0.733-1.883-1.167-2.05-1.3l-0.25-0.2L23.15-4.05z"/>
				<path style="fill-rule:evenodd;clip-rule:evenodd;fill:#AB964D;" d="M23.5-3.85l0.05-1.7c0.034-0.133,0.083-0.4,0.15-0.8
					c0.1-0.367,0.2-0.6,0.3-0.7c-0.3-0.066-0.617-0.066-0.95,0l-0.2,1.55c-0.167,0.733-0.267,1.3-0.3,1.7L23.5-3.85z"/>
				<path style="fill-rule:evenodd;clip-rule:evenodd;fill:#82807A;" d="M25.25-3.75c0.466,0.1,0.733-0.15,0.8-0.75
					c0.067-0.5-0.017-0.9-0.25-1.2c-0.167-0.267-0.4-0.367-0.7-0.3c-0.3,0.066-0.467,0.283-0.5,0.65
					C24.601-4.317,24.817-3.784,25.25-3.75z"/>
				<path style="fill-rule:evenodd;clip-rule:evenodd;fill:#555452;" d="M24.851-4.5c-0.134-0.2-0.167-0.5-0.1-0.9l-0.15,0.05
					c0,1.033,0.217,1.566,0.65,1.6c0.4,0.066,0.65-0.1,0.75-0.5c0.1-0.333,0.083-0.7-0.05-1.1c-0.066,0.4-0.167,0.667-0.3,0.8
					C25.483-4.317,25.334-4.2,25.2-4.2C25.067-4.2,24.95-4.3,24.851-4.5z"/>
				<path style="fill-rule:evenodd;clip-rule:evenodd;fill:#D1B867;" d="M25.95-5.1l0.1,0.5c0.034-0.167,0.1-0.383,0.2-0.65
					l-0.15-0.45c-0.033-0.133-0.217-0.233-0.55-0.3C25.384-6.067,25.2-6.067,25-6c-0.233,0.1-0.367,0.25-0.4,0.45
					c0.4-0.2,0.667-0.283,0.8-0.25C25.601-5.733,25.784-5.5,25.95-5.1z"/>
				<path style="fill-rule:evenodd;clip-rule:evenodd;fill:#555452;" d="M25.65-4.2v-0.25c0.066-0.167,0-0.35-0.2-0.55
					c-0.167-0.2-0.333-0.267-0.5-0.2c0,0.1,0.1,0.283,0.3,0.55C25.417-4.417,25.55-4.267,25.65-4.2z"/>
				<path style="fill-rule:evenodd;clip-rule:evenodd;fill:#ACABA7;" d="M25.351-4.25l-0.2-0.1C25.084-4.583,25-4.7,24.9-4.7
					C24.834-4.4,24.983-4.25,25.351-4.25z"/>
				<path style="fill-rule:evenodd;clip-rule:evenodd;fill:#ACABA7;" d="M25.65-4.7l0.2-0.15c0-0.2-0.083-0.367-0.25-0.5
					c-0.167-0.167-0.317-0.167-0.45,0c0.033,0.1,0.15,0.183,0.35,0.25L25.65-4.7z"/>
				<path style="fill-rule:evenodd;clip-rule:evenodd;fill:#F7E4A4;" d="M25.95-2.4c0.134-0.2,0.033-0.4-0.3-0.6
					c-0.367-0.2-0.617-0.333-0.75-0.4c-0.533-0.2-0.833-0.366-0.9-0.5c-0.167-0.2-0.25-0.55-0.25-1.05c-0.034-0.5-0.034-1,0-1.5
					c-0.067,0.367-0.117,0.65-0.15,0.85l-0.25,1.5c-0.067,0.133-0.15,0.216-0.25,0.25c-0.167,0.066-0.283,0.117-0.35,0.15
					c0.567-0.1,1.017-0.083,1.35,0.05l0.75,0.45c0.233,0.1,0.433,0.233,0.6,0.4L25.95-2.4z"/>
			</g>
			<path style="fill-rule:evenodd;clip-rule:evenodd;fill:#746735;" d="M6-9.3c1.067,0.333,1.983,0.017,2.75-0.95
				c0.6-0.767,0.933-1.567,1-2.4c0.1-0.7-0.034-1.3-0.4-1.8c-0.5-0.667-1.283-1.017-2.35-1.05c-1.034-0.067-1.867,0.3-2.5,1.1
				c-0.5,0.7-0.7,1.367-0.6,2c0.066,0.534,0.316,1.134,0.75,1.8C5.084-9.867,5.534-9.434,6-9.3z"/>
			<path style="fill-rule:evenodd;clip-rule:evenodd;fill:#9F8D49;" d="M5.4-10.4c0.767,0.034,1.2,0,1.3-0.1
				c0.1-0.134-0.083-0.267-0.55-0.4c-0.3-0.1-0.55-0.433-0.75-1c-0.2-0.533-0.45-0.816-0.75-0.85c-0.434-0.034-0.517,0.333-0.25,1.1
				S5-10.467,5.4-10.4z"/>
			<g>
				<path style="fill-rule:evenodd;clip-rule:evenodd;fill:#423A1E;" d="M8.601-13.1c-0.2-0.367-0.55-0.6-1.05-0.7
					C7.017-13.9,6.5-13.833,6-13.6c-0.5,0.2-0.667,0.667-0.5,1.4c0.2,0.767,0.617,1.2,1.25,1.3c0.667,0.1,1.216-0.083,1.65-0.55
					C8.867-11.917,8.934-12.467,8.601-13.1z"/>
				<linearGradient id="SVGID_9_" gradientUnits="userSpaceOnUse" x1="3.8506" y1="-14.0493" x2="8.2506" y2="-14.0493">
					<stop  offset="0" style="stop-color:#BEBDBD"/>
					<stop  offset="1" style="stop-color:#464646"/>
				</linearGradient>
				<path style="fill-rule:evenodd;clip-rule:evenodd;fill:url(#SVGID_9_);" d="M8.15-12.6c0.1-0.333,0.133-0.65,0.1-0.95l-1-0.75
					c-0.233-0.2-0.284-0.617-0.15-1.25c0.066-0.333,0.15-0.65,0.25-0.95c-0.367,0.3-1,0.517-1.9,0.65c-0.566,0.066-1,0.033-1.3-0.1
					l-0.3-0.2l0.1,1.1c0.067,0.567,0.434,1.284,1.1,2.15c0.667,0.9,1.167,1.333,1.5,1.3C7.351-11.634,7.884-11.967,8.15-12.6z"/>
				<path style="fill-rule:evenodd;clip-rule:evenodd;fill:#7E6E3A;" d="M7.601-16.05l1.7-1.1l0.15-0.7
					c0.067-0.5,0.083-0.85,0.05-1.05c-0.067-0.3-0.45-0.7-1.15-1.2l-0.75,1.65L7.45-20.3c-0.366-0.066-0.967,0.034-1.8,0.3
					c-0.533,0.133-1.117,0.4-1.75,0.8l-0.85,0.55v2.15l1.6,0.55L7.601-16.05z"/>
				<path style="fill-rule:evenodd;clip-rule:evenodd;fill:#5F532C;" d="M9.3-17.15l0.15-0.7c0.067-0.5,0.083-0.85,0.05-1.05
					c-0.067-0.267-0.4-0.633-1-1.1l-0.2,1.4c-0.1,0.566-0.517,1.017-1.25,1.35c-0.7,0.3-1.383,0.366-2.05,0.2
					c-1-0.233-1.617-0.783-1.85-1.65l-0.1,0.05v2.15l1.6,0.55l2.95-0.1L9.3-17.15z"/>
				<path style="fill-rule:evenodd;clip-rule:evenodd;fill:#D9BF69;" d="M8.55-15.65c0.5-0.533,0.75-1.033,0.75-1.5
					c0-0.3-0.383-0.616-1.15-0.95L7.7-16.95c-0.667,0.533-1.2,0.65-1.6,0.35c-0.233-0.2-0.083-0.4,0.45-0.6
					c0.3-0.1,0.6-0.184,0.9-0.25l0.15-1c-0.467-0.1-0.983-0.15-1.55-0.15c-1.133,0.066-1.983,0.433-2.55,1.1
					c-0.6,0.667-0.55,1.366,0.15,2.1c0.566,0.634,1.117,0.95,1.65,0.95C6.7-14.45,7.784-14.85,8.55-15.65z"/>
				<path style="fill-rule:evenodd;clip-rule:evenodd;fill:#F8E7B2;" d="M6.101-18.45l1.45,0.05l0.05-0.05
					c-0.467-0.1-0.983-0.15-1.55-0.15c-1.133,0.066-1.983,0.433-2.55,1.1c-0.534,0.633-0.517,1.3,0.05,2
					c-0.1-0.2-0.15-0.45-0.15-0.75c0-0.6,0.267-1.117,0.8-1.55C4.733-18.233,5.367-18.45,6.101-18.45z"/>
				<path style="fill-rule:evenodd;clip-rule:evenodd;fill:#F8E7B2;" d="M7.7-17.25c0.033,0.2-0.167,0.35-0.6,0.45
					c-0.467,0.1-0.767,0.167-0.9,0.2c-0.333,0.1-0.65,0.333-0.95,0.7c0.2-0.167,0.567-0.267,1.1-0.3
					c0.667-0.066,1.083-0.133,1.25-0.2c0.366-0.2,0.55-0.483,0.55-0.85c0-0.067,0.033-0.233,0.1-0.5c0.033-0.233,0.033-0.4,0-0.5
					c-0.233-0.034-0.4,0.066-0.5,0.3c-0.067,0.233-0.083,0.434-0.05,0.6V-17.25z"/>
			</g>
			<path style="fill-rule:evenodd;clip-rule:evenodd;fill:#81713F;" d="M22.101-2.55c0.2-0.167-0.6-0.767-2.4-1.8
				c-1.667-0.934-2.85-1.534-3.55-1.8c-0.4-0.167-1.517-0.15-3.35,0.05c-1.966,0.267-3.2,0.433-3.7,0.5
				C6.434-5.434,5.2-5.134,5.4-4.7c0.133,0.233,1.15,0.833,3.05,1.8c1.867,0.967,3.017,1.483,3.45,1.55
				c0.3,0.066,2.017-0.067,5.15-0.4C20.217-2.117,21.9-2.384,22.101-2.55z"/>
			<path style="fill-rule:evenodd;clip-rule:evenodd;fill:#5A4E2B;" d="M21.351-3c0.167-0.167-0.55-0.7-2.15-1.6
				c-1.4-0.767-2.433-1.284-3.1-1.55c-0.4-0.133-1.4-0.116-3,0.05c-1.733,0.233-2.833,0.367-3.3,0.4
				C7.467-5.434,6.367-5.167,6.5-4.9c0.133,0.2,1.033,0.717,2.7,1.55c1.667,0.867,2.7,1.333,3.1,1.4
				c0.267,0.066,1.784-0.05,4.55-0.35C19.65-2.634,21.15-2.867,21.351-3z"/>
			
				<radialGradient id="SVGID_10_" cx="482.0747" cy="-0.25" r="7.9625" gradientTransform="matrix(1 0 0.0345 -0.6028 -468.5664 -0.4004)" gradientUnits="userSpaceOnUse">
				<stop  offset="0" style="stop-color:#F5DC88"/>
				<stop  offset="1" style="stop-color:#958344"/>
			</radialGradient>
			<path style="fill-rule:evenodd;clip-rule:evenodd;fill:url(#SVGID_10_);" d="M18.8-0.5c0.567-0.5,0.983-1.05,1.25-1.65
				c0.267-0.5,0.333-0.8,0.2-0.9c-2.867-1.767-4.683-2.617-5.45-2.55l-7.45,0.9L7.5-3.6c0.133,0.7,0.6,1.5,1.4,2.4
				c0.934,1.033,1.95,1.667,3.05,1.9C14.851,1.366,17.134,0.966,18.8-0.5z"/>
			<path style="fill-rule:evenodd;clip-rule:evenodd;fill:#6C6335;" d="M17.25-1.85c0,0.4,0.067,0.783,0.2,1.15
				c0.1,0.267,0.434,0.383,1,0.35c0.6-0.034,1-0.267,1.2-0.7c0.3-0.566,0.45-1.133,0.45-1.7c-0.033-0.667-0.3-1.134-0.8-1.4
				c-0.466-0.2-0.883-0.083-1.25,0.35l-0.4,0.7L17.4-4.7c-0.033-0.3-0.383-0.566-1.05-0.8c-0.634-0.2-1.233-0.3-1.8-0.3
				s-1.017,0.184-1.35,0.55c-0.333,0.4-0.483,0.95-0.45,1.65c0.033,0.6,0.35,1.167,0.95,1.7c0.3,0.267,0.583,0.467,0.85,0.6
				C15.483-0.967,16.384-1.15,17.25-1.85z"/>
			
				<radialGradient id="SVGID_11_" cx="16.4502" cy="-1.3501" r="5.325" gradientTransform="matrix(1 0 0 -0.5775 0 -2.1299)" gradientUnits="userSpaceOnUse">
				<stop  offset="0" style="stop-color:#8A8A8A"/>
				<stop  offset="1" style="stop-color:#4D4D4D"/>
			</radialGradient>
			<path style="fill-rule:evenodd;clip-rule:evenodd;fill:url(#SVGID_11_);" d="M17.25-1.85c0,0.4,0.067,0.783,0.2,1.15
				c0.1,0.267,0.434,0.383,1,0.35c0.6-0.034,1-0.267,1.2-0.7c0.7-1.333,0.583-2.216-0.35-2.65c-0.466-0.233-0.883-0.2-1.25,0.1
				l-0.4,0.5l-0.1-0.7c-0.033-0.333-0.4-0.7-1.1-1.1c-0.667-0.4-1.267-0.6-1.8-0.6c-0.5,0-0.917,0.2-1.25,0.6
				c-0.3,0.434-0.434,1-0.4,1.7c0.033,0.6,0.3,1.1,0.8,1.5c0.267,0.2,0.517,0.333,0.75,0.4C15.483-0.967,16.384-1.15,17.25-1.85z"/>
			
				<radialGradient id="SVGID_12_" cx="16.8506" cy="-1.4502" r="4.7875" gradientTransform="matrix(1 0 0 -0.6266 0 -2.3589)" gradientUnits="userSpaceOnUse">
				<stop  offset="0" style="stop-color:#DEDEDE"/>
				<stop  offset="1" style="stop-color:#808080"/>
			</radialGradient>
			<path style="fill-rule:evenodd;clip-rule:evenodd;fill:url(#SVGID_12_);" d="M17.55-1.9c0,0.367,0.05,0.717,0.15,1.05
				c0.1,0.267,0.4,0.383,0.9,0.35c0.533,0,0.9-0.217,1.1-0.65c0.567-1.366,0.467-2.233-0.3-2.6c-0.4-0.2-0.767-0.167-1.1,0.1
				l-0.4,0.5l-0.1-0.7c-0.033-0.333-0.367-0.684-1-1.05c-0.6-0.4-1.133-0.6-1.6-0.6s-0.833,0.2-1.1,0.6
				c-0.3,0.4-0.434,0.95-0.4,1.65c0.033,0.566,0.283,1.05,0.75,1.45c0.233,0.2,0.467,0.333,0.7,0.4
				C15.983-1.067,16.784-1.233,17.55-1.9z"/>
			<g>
				<path style="fill-rule:evenodd;clip-rule:evenodd;fill:#5E5E5E;" d="M16.9-2.25c0.233-0.3,0.35-0.667,0.35-1.1
					c0-0.434-0.117-0.8-0.35-1.1C16.634-4.75,16.334-4.9,16-4.9s-0.617,0.15-0.85,0.45s-0.35,0.667-0.35,1.1
					c0,0.433,0.117,0.8,0.35,1.1C15.384-1.95,15.667-1.8,16-1.8S16.634-1.95,16.9-2.25z"/>
				
					<linearGradient id="SVGID_13_" gradientUnits="userSpaceOnUse" x1="478.3438" y1="-16792.4043" x2="480.973" y2="-16792.4043" gradientTransform="matrix(-0.057 -0.9984 0.9984 -0.057 16808.1172 -482.9268)">
					<stop  offset="0" style="stop-color:#5F4E29"/>
					<stop  offset="0.8588" style="stop-color:#271D09"/>
				</linearGradient>
				<path style="fill-rule:evenodd;clip-rule:evenodd;fill:url(#SVGID_13_);" d="M16.75-3.35c0-0.333-0.1-0.6-0.3-0.8
					c-0.2-0.233-0.433-0.35-0.7-0.35c-0.3,0-0.55,0.116-0.75,0.35c-0.2,0.2-0.3,0.467-0.3,0.8c0,0.3,0.1,0.55,0.3,0.75
					c0.2,0.233,0.45,0.35,0.75,0.35c0.267,0,0.5-0.117,0.7-0.35C16.65-2.8,16.75-3.05,16.75-3.35z"/>
			</g>
			<g>
				<path style="fill-rule:evenodd;clip-rule:evenodd;fill:#5E5E5E;" d="M19.7-1.9c0.134-0.866-0.017-1.333-0.45-1.4
					c-0.167-0.033-0.333,0.067-0.5,0.3s-0.284,0.517-0.35,0.85c-0.033,0.367-0.017,0.684,0.05,0.95c0.1,0.267,0.233,0.417,0.4,0.45
					C19.217-0.684,19.5-1.067,19.7-1.9z"/>
				
					<linearGradient id="SVGID_14_" gradientUnits="userSpaceOnUse" x1="-722.1719" y1="-15543.5664" x2="-719.9877" y2="-15543.5664" gradientTransform="matrix(0.0926 -0.9957 0.9957 0.0926 15562.4414 719.5107)">
					<stop  offset="0" style="stop-color:#5F4E29"/>
					<stop  offset="0.8588" style="stop-color:#271D09"/>
				</linearGradient>
				<path style="fill-rule:evenodd;clip-rule:evenodd;fill:url(#SVGID_14_);" d="M19.4-1.95c0.133-0.633,0.017-0.983-0.35-1.05
					c-0.367,0-0.6,0.283-0.7,0.85C18.317-1.917,18.334-1.7,18.4-1.5c0.066,0.2,0.184,0.316,0.35,0.35
					C19.117-1.083,19.334-1.35,19.4-1.95z"/>
			</g>
			<path style="fill-rule:evenodd;clip-rule:evenodd;fill:#F9ECC0;" d="M14.15,0.35c0.934-0.167,1.233-0.333,0.9-0.5
				c-0.3-0.1-0.733-0.15-1.3-0.15c-0.3,0-0.85-0.1-1.65-0.3l-1.05-0.25l1.05,0.7C12.9,0.283,13.584,0.45,14.15,0.35z"/>
			<path style="fill-rule:evenodd;clip-rule:evenodd;fill:#AD9B60;" d="M15.45-2.65c0.333,0.034,0.467-0.083,0.4-0.35
				c-0.067-0.267-0.2-0.417-0.4-0.45c-0.133,0-0.217,0.133-0.25,0.4C15.167-2.817,15.25-2.684,15.45-2.65z"/>
			<path style="fill-rule:evenodd;clip-rule:evenodd;fill:#AD9B60;" d="M18.7-1.45c0.3,0.066,0.317-0.167,0.05-0.7
				c-0.167,0.1-0.217,0.25-0.15,0.45L18.7-1.45z"/>
		</g>
	</g>
</symbol>
<symbol  id="cubimal_x5F_mc" viewBox="-0.385 -23.95 32.525 25.012">
	<g id="Layer_5_1_">
	</g>
	<g id="Layer_4_2_">
	</g>
	<g id="Layer_2_copy_2_">
	</g>
	<g id="Layer_2_2_">
	</g>
	<g id="Layer_1_9_">
		
			<use xlink:href="#cubimal_x5F_scene1"  width="32.525" height="25.012" x="0.015" y="-24" transform="matrix(1 0 0 1 -0.3999 0.0498)" style="overflow:visible;"/>
	</g>
	<g id="Layer_6_1_">
	</g>
</symbol>
<symbol  id="cubimal_x5F_scene1" viewBox="0.015 -24 32.525 25.012">
	<g id="Layer_1_8_">
		
			<use xlink:href="#winder_x5F_static"  width="10.185" height="8.474" x="0.015" y="-8.472" transform="matrix(1 0 0 1 0 -7.9502)" style="overflow:visible;"/>
		
			<use xlink:href="#cubimal_1_"  width="26.14" height="25.012" x="0.4" y="-24" transform="matrix(1 0 0 1 6 0)" style="overflow:visible;"/>
	</g>
</symbol>
<symbol  id="winder_x5F_static" viewBox="0.015 -8.472 10.185 8.474">
	<g id="Layer_4_1_">
		
			<use xlink:href="#winderedge"  width="4.537" height="8.127" x="0.015" y="-8.126" transform="matrix(1 0 0 1 0.7002 0)" style="overflow:visible;"/>
	</g>
	<g id="Layer_3_1_">
		
			<use xlink:href="#winderfacehighlight"  width="4.573" height="8.174" x="0.016" y="-8.173" transform="matrix(1 0 0 1 0.2002 -0.2002)" style="overflow:visible;"/>
	</g>
	<g id="Layer_2_copy_1_">
		
			<use xlink:href="#winderface1a"  width="4.573" height="8.174" x="0.015" y="-8.172" transform="matrix(1 0 0 1 0 -0.2998)" style="overflow:visible;"/>
	</g>
	<g id="Layer_1_7_">
		<g>
			
				<linearGradient id="SVGID_15_" gradientUnits="userSpaceOnUse" x1="1514.5806" y1="-17621.9609" x2="1515.8999" y2="-17621.9609" gradientTransform="matrix(-0.1705 -0.9854 0.9854 -0.1705 17629.5273 -1517.6323)">
				<stop  offset="0" style="stop-color:#8F8F8F"/>
				<stop  offset="0.2275" style="stop-color:#E8E8E8"/>
				<stop  offset="1" style="stop-color:#696969"/>
			</linearGradient>
			<path style="fill-rule:evenodd;clip-rule:evenodd;fill:url(#SVGID_15_);" d="M10.2-6.3L4.8-5.5C4.5-5.533,4.351-5.366,4.351-5
				c0,0.233,0.083,0.4,0.25,0.5c0.066,0.066,0.133,0.1,0.2,0.1l5.4-0.8V-6.3z"/>
		</g>
	</g>
</symbol>
<symbol  id="winderedge" viewBox="0.015 -8.126 4.537 8.127">
	<g id="Layer_1_4_">
		<g>
			
				<linearGradient id="SVGID_16_" gradientUnits="userSpaceOnUse" x1="5.21" y1="-16351.5176" x2="12.035" y2="-16351.5176" gradientTransform="matrix(1.465202e-004 -1 1 -0.001 16353.8027 -11.1792)">
				<stop  offset="0" style="stop-color:#8F8F8F"/>
				<stop  offset="0.2275" style="stop-color:#E8E8E8"/>
				<stop  offset="1" style="stop-color:#696969"/>
			</linearGradient>
			<path style="fill-rule:evenodd;clip-rule:evenodd;fill:url(#SVGID_16_);" d="M3.5-5.899c0.066,0.6-0.083,0.983-0.45,1.15L2.6-4.7
				C2.367-4.7,2.167-4.733,2-4.8c-0.533-0.167-0.833-0.533-0.9-1.1c-0.034-0.5,0.1-0.85,0.4-1.05c0.434-0.233,0.867-0.233,1.3,0
				C3.2-6.716,3.434-6.366,3.5-5.899z M0.05-1.25c0.1,0.8,0.5,1.216,1.2,1.25c1.367,0.033,2.333-0.633,2.9-2
				c0.5-1.233,0.534-2.05,0.1-2.45c0.434-0.533,0.4-1.333-0.1-2.4c-0.567-1.167-1.533-1.533-2.9-1.1c-0.7,0.233-1.1,0.767-1.2,1.6
				c-0.133,0.867,0.117,1.533,0.75,2L1.25-4L0.8-3.55C0.167-2.85-0.083-2.083,0.05-1.25z M3.5-2.75C3.434-2.25,3.2-1.833,2.8-1.5
				C2.367-1.1,1.934-0.966,1.5-1.1c-0.3-0.133-0.434-0.467-0.4-1C1.167-2.666,1.467-3.116,2-3.45l0.6-0.3L3.05-3.8
				C3.417-3.766,3.566-3.416,3.5-2.75z"/>
		</g>
	</g>
</symbol>
<symbol  id="winderface1a" viewBox="0.015 -8.172 4.573 8.174">
	<g id="Layer_1_2_">
		
			<linearGradient id="SVGID_17_" gradientUnits="userSpaceOnUse" x1="-1922.7412" y1="-13815.2549" x2="-1913.569" y2="-13815.2549" gradientTransform="matrix(0.2726 -0.9621 0.9621 0.2726 13816.877 1916.7178)">
			<stop  offset="0" style="stop-color:#E8E8E8"/>
			<stop  offset="1" style="stop-color:#878787"/>
		</linearGradient>
		<path style="fill-rule:evenodd;clip-rule:evenodd;fill:url(#SVGID_17_);" d="M2.05-4.8c-0.566-0.133-0.867-0.483-0.9-1.05
			c-0.033-0.533,0.1-0.9,0.4-1.1c0.4-0.267,0.817-0.267,1.25,0C3.2-6.717,3.433-6.367,3.5-5.9c0.133,0.633,0,1-0.4,1.1L2.65-4.7
			L2.05-4.8z M0.05-1.25C0.183-0.45,0.6-0.033,1.3,0c1.367,0.033,2.333-0.633,2.9-2c0.5-1.233,0.517-2.05,0.05-2.45
			c0.467-0.5,0.45-1.3-0.05-2.4C3.633-8.05,2.667-8.433,1.3-8C0.6-7.733,0.183-7.183,0.05-6.35c-0.133,0.867,0.117,1.533,0.75,2
			L1.3-4L0.8-3.55C0.167-2.85-0.083-2.083,0.05-1.25z M3.5-2.75C3.433-2.25,3.2-1.833,2.8-1.5C2.367-1.1,1.95-0.967,1.55-1.1
			c-0.3-0.133-0.433-0.467-0.4-1c0.033-0.6,0.333-1.05,0.9-1.35l0.6-0.3L3.1-3.8C3.467-3.767,3.6-3.417,3.5-2.75z"/>
	</g>
</symbol>
<symbol  id="winderfacehighlight" viewBox="0.016 -8.173 4.573 8.174">
	<g id="Layer_1_3_">
		
			<linearGradient id="SVGID_18_" gradientUnits="userSpaceOnUse" x1="-1922.7412" y1="-13815.2549" x2="-1913.569" y2="-13815.2549" gradientTransform="matrix(0.2726 -0.9621 0.9621 0.2726 13816.877 1916.7178)">
			<stop  offset="0" style="stop-color:#E8E8E8"/>
			<stop  offset="1" style="stop-color:#EDEDED"/>
		</linearGradient>
		<path style="fill-rule:evenodd;clip-rule:evenodd;fill:url(#SVGID_18_);" d="M2.05-4.8c-0.567-0.133-0.867-0.483-0.9-1.05
			c-0.033-0.533,0.1-0.9,0.4-1.1c0.4-0.267,0.817-0.267,1.25,0C3.2-6.717,3.434-6.367,3.5-5.9c0.1,0.6-0.034,0.967-0.4,1.1L2.65-4.7
			L2.05-4.8z M0.05-1.25C0.184-0.45,0.601-0.034,1.3,0c1.367,0.034,2.333-0.633,2.9-2c0.5-1.233,0.517-2.05,0.05-2.45
			c0.466-0.5,0.45-1.3-0.05-2.4C3.634-8.05,2.667-8.434,1.3-8c-0.7,0.267-1.117,0.817-1.25,1.65c-0.133,0.867,0.117,1.534,0.75,2
			L1.3-4L0.8-3.55C0.167-2.851-0.083-2.084,0.05-1.25z M1.55-1.101c-0.3-0.133-0.433-0.466-0.4-1c0.033-0.6,0.333-1.05,0.9-1.35
			l0.6-0.3l0.45-0.05c0.366,0.033,0.5,0.383,0.4,1.05C3.434-2.25,3.2-1.834,2.8-1.5C2.367-1.101,1.95-0.967,1.55-1.101z"/>
	</g>
</symbol>
<use xlink:href="#cubimal_x5F_mc"  width="32.525" height="25.012" id="cubimal" x="-0.385" y="-23.95" transform="matrix(1 0 0 -1 0.3999 1.0498)" style="overflow:visible;"/>
</svg>
