<?xml version="1.0" encoding="iso-8859-1"?>
<!-- Generator: Adobe Illustrator 15.1.0, SVG Export Plug-In . SVG Version: 6.00 Build 0)  -->
<!DOCTYPE svg PUBLIC "-//W3C//DTD SVG 1.1//EN" "http://www.w3.org/Graphics/SVG/1.1/DTD/svg11.dtd">
<svg version="1.1" id="flash0.ai" xmlns="http://www.w3.org/2000/svg" xmlns:xlink="http://www.w3.org/1999/xlink" x="0px" y="0px"
	 width="33.7px" height="31.7px" viewBox="0 0 33.7 31.7" style="enable-background:new 0 0 33.7 31.7;" xml:space="preserve">
<symbol  id="cubimal_1_" viewBox="-0.75 -26.813 28.45 31.713">
	<g id="Layer_1_5_">
		<g>
			
				<linearGradient id="SVGID_1_" gradientUnits="userSpaceOnUse" x1="360.5918" y1="318.9092" x2="362.3434" y2="318.9092" gradientTransform="matrix(0.9991 0.0428 -0.0428 0.9991 -342.5801 -357.5771)">
				<stop  offset="0" style="stop-color:#E9A9BA"/>
				<stop  offset="1" style="stop-color:#C47F91"/>
			</linearGradient>
			<path style="fill-rule:evenodd;clip-rule:evenodd;fill:url(#SVGID_1_);" d="M3-21.2l4.7-0.35c-0.4-1.5-0.684-2.45-0.85-2.85
				c-0.4-1.034-0.817-1.5-1.25-1.4C4.767-25.6,3.9-24.066,3-21.2z"/>
			
				<linearGradient id="SVGID_2_" gradientUnits="userSpaceOnUse" x1="369.8906" y1="317.5098" x2="371.6422" y2="317.5098" gradientTransform="matrix(0.9991 0.0428 -0.0428 0.9991 -342.5801 -357.5771)">
				<stop  offset="0" style="stop-color:#E9A9BA"/>
				<stop  offset="1" style="stop-color:#C47F91"/>
			</linearGradient>
			<path style="fill-rule:evenodd;clip-rule:evenodd;fill:url(#SVGID_2_);" d="M12.35-22.2L17-22.55
				c-0.333-1.366-0.6-2.316-0.8-2.85c-0.4-1.034-0.817-1.5-1.25-1.4C14.117-26.6,13.25-25.066,12.35-22.2z"/>
			
				<linearGradient id="SVGID_3_" gradientUnits="userSpaceOnUse" x1="377.6963" y1="321.0293" x2="379.4479" y2="321.0293" gradientTransform="matrix(0.9991 0.0428 -0.0428 0.9991 -342.5801 -357.5771)">
				<stop  offset="0" style="stop-color:#E9A9BA"/>
				<stop  offset="1" style="stop-color:#C47F91"/>
			</linearGradient>
			<path style="fill-rule:evenodd;clip-rule:evenodd;fill:url(#SVGID_3_);" d="M20-18.35l4.7-0.35c-0.4-1.5-0.684-2.45-0.85-2.85
				c-0.4-1.033-0.817-1.5-1.25-1.4C21.767-22.75,20.9-21.216,20-18.35z"/>
			
				<linearGradient id="SVGID_4_" gradientUnits="userSpaceOnUse" x1="-2106.1338" y1="-13440.5254" x2="-2086.9854" y2="-13440.5254" gradientTransform="matrix(0.3068 -0.9518 0.9518 0.3068 13449.1777 2114.168)">
				<stop  offset="0" style="stop-color:#E9A9BA"/>
				<stop  offset="1" style="stop-color:#C47F91"/>
			</linearGradient>
			<path style="fill-rule:evenodd;clip-rule:evenodd;fill:url(#SVGID_4_);" d="M24.95-3.1c0.367-0.333,0.633-0.8,0.8-1.4
				C25.917-5.033,26-8.883,26-16.05v-1.45c-0.033-0.5-0.183-0.95-0.45-1.35c-0.267-0.434-1.167-1.184-2.7-2.25
				c-1.367-0.967-2.35-1.6-2.95-1.9c-1.633-0.934-2.9-1.4-3.8-1.4c-2.4,0.3-4.25,0.45-5.55,0.45c-0.767,0.034-2.216,0.2-4.35,0.5
				c-2.133,0.3-3.4,0.483-3.8,0.55C1.733-22.766,1.267-22.466,1-22c-0.333,0.667-0.517,2.017-0.55,4.05
				c-0.167,3.233-0.25,5.6-0.25,7.1C0.233-8.183,0.617-6.6,1.35-6.1c0.967,0.667,2.5,1.566,4.6,2.7c2.533,1.4,4.167,2.116,4.9,2.15
				c0.9,0.033,2.833-0.15,5.8-0.55c3.1-0.433,5.017-0.65,5.75-0.65C23.533-2.45,24.383-2.666,24.95-3.1z"/>
			
				<linearGradient id="SVGID_5_" gradientUnits="userSpaceOnUse" x1="-2368.9639" y1="-12875.4727" x2="-2351.9661" y2="-12875.4727" gradientTransform="matrix(0.3574 -0.934 0.934 0.3574 12889.8652 2382.0967)">
				<stop  offset="0" style="stop-color:#C78F9F"/>
				<stop  offset="1" style="stop-color:#9B6473"/>
			</linearGradient>
			<path style="fill-rule:evenodd;clip-rule:evenodd;fill:url(#SVGID_5_);" d="M25.95-7.1c0.033-1.066,0.05-4.05,0.05-8.95v-1.45
				c-0.033-0.5-0.183-0.95-0.45-1.35c-0.267-0.434-1.167-1.184-2.7-2.25c-1.367-0.967-2.35-1.6-2.95-1.9
				c-0.3-0.167-0.933-0.434-1.9-0.8c-0.967-0.366-1.6-0.566-1.9-0.6c0.333,0.667,0.483,1.383,0.45,2.15l-0.1,14l0.1,0.15
				c0.167,0.167,1.083,0.667,2.75,1.5c1.8,0.867,2.967,1.483,3.5,1.85c1.4,0.9,2.15,1.4,2.25,1.5c0.367-0.367,0.6-0.784,0.7-1.25
				C25.817-4.7,25.883-5.566,25.95-7.1z"/>
			<path style="fill-rule:evenodd;clip-rule:evenodd;fill:#ECB9C9;" d="M23.55-4.45c-0.5-0.3-1.8-0.966-3.9-2
				c-1.867-0.9-2.9-1.45-3.1-1.65c-0.867,0.066-3.767,0.367-8.7,0.9c-3.733,0.4-6.067,0.567-7,0.5c0.167,0.267,0.333,0.467,0.5,0.6
				c0.967,0.667,2.5,1.566,4.6,2.7c2.533,1.4,4.167,2.116,4.9,2.15c2.267,0.1,6.117-0.3,11.55-1.2c1.434-0.2,2.317-0.466,2.65-0.8
				C24.617-3.683,24.117-4.083,23.55-4.45z"/>
			<g>
				
					<radialGradient id="SVGID_6_" cx="-1041.0869" cy="-365.0313" r="3.1655" gradientTransform="matrix(0.9991 -0.0434 -0.0513 -0.3791 1041.5156 -186.6514)" gradientUnits="userSpaceOnUse">
					<stop  offset="0.2157" style="stop-color:#000000;stop-opacity:0.3765"/>
					<stop  offset="0.8667" style="stop-color:#000000;stop-opacity:0"/>
				</radialGradient>
				<path style="fill-rule:evenodd;clip-rule:evenodd;fill:url(#SVGID_6_);" d="M20.9-2c0.833-0.067,1.517-0.217,2.05-0.45
					c0.566-0.233,0.816-0.517,0.75-0.85c-0.034-0.333-0.383-0.6-1.05-0.8c-0.667-0.233-1.433-0.316-2.3-0.25
					c-0.6,0-1.233,0.1-1.9,0.3c0.4,0.333,0.95,0.884,1.65,1.65l0.1,0.2L20.9-2z"/>
				<path style="fill-rule:evenodd;clip-rule:evenodd;fill:#F4D8E1;" d="M18.75-3.75c-0.033,0.466,0.083,1.167,0.35,2.1
					c0.367,1.133,0.783,1.683,1.25,1.65c0.7-0.034,1.233-0.767,1.6-2.2c0.133-0.333-0.034-0.633-0.5-0.9
					c-0.867-0.467-1.383-0.7-1.55-0.7L18.75-3.75z"/>
				
					<linearGradient id="SVGID_7_" gradientUnits="userSpaceOnUse" x1="-88.6963" y1="-15477.8486" x2="-85.1788" y2="-15477.8486" gradientTransform="matrix(0.0995 -0.995 1.0043 0.0066 15573.8691 13.0933)">
					<stop  offset="0" style="stop-color:#E9A9BA"/>
					<stop  offset="1" style="stop-color:#C47F91"/>
				</linearGradient>
				<path style="fill-rule:evenodd;clip-rule:evenodd;fill:url(#SVGID_7_);" d="M18.75-3.75c0.5,2.466,1.067,3.683,1.7,3.65
					c0.7-0.033,1.25-0.783,1.65-2.25c0.133-0.333-0.033-0.633-0.5-0.9c-0.867-0.467-1.383-0.7-1.55-0.7L18.75-3.75z"/>
				<path style="fill-rule:evenodd;clip-rule:evenodd;fill:#F4D8E1;" d="M20.3-3.85h-0.2c-0.067,0.233-0.05,0.767,0.05,1.6
					c0.067,0.833,0.167,1.367,0.3,1.6C20.583-0.383,20.767-0.266,21-0.3c0.333-0.3,0.667-0.95,1-1.95
					c0.067-0.333-0.117-0.617-0.55-0.85L20.3-3.85z"/>
				
					<linearGradient id="SVGID_8_" gradientUnits="userSpaceOnUse" x1="-83.7373" y1="-15450.3545" x2="-79.5905" y2="-15450.3545" gradientTransform="matrix(0.1025 -0.9947 1.0047 0.0056 15552.6113 2.8384)">
					<stop  offset="0" style="stop-color:#C78F9F"/>
					<stop  offset="1" style="stop-color:#9B6473"/>
				</linearGradient>
				<path style="fill-rule:evenodd;clip-rule:evenodd;fill:url(#SVGID_8_);" d="M21.6-3.25c-0.867-0.467-1.383-0.7-1.55-0.7
					c0.133,1.733,0.3,2.784,0.5,3.15c0.2,0.3,0.383,0.434,0.55,0.4c0.333-0.3,0.667-0.95,1-1.95
					C22.233-2.683,22.067-2.983,21.6-3.25z"/>
			</g>
			
				<radialGradient id="SVGID_9_" cx="22.8999" cy="-18.4995" r="3.7125" gradientTransform="matrix(1 0 0 -1 0 -36.999)" gradientUnits="userSpaceOnUse">
				<stop  offset="0.2157" style="stop-color:#000000;stop-opacity:0.3765"/>
				<stop  offset="0.8667" style="stop-color:#000000;stop-opacity:0"/>
			</radialGradient>
			<path style="fill-rule:evenodd;clip-rule:evenodd;fill:url(#SVGID_9_);" d="M26-14.6v-2.9c-0.033-0.5-0.183-0.95-0.45-1.35
				c-0.433-0.667-1.867-1.783-4.3-3.35c-1.133,0.1-1.9,0.517-2.3,1.25c-0.4,0.767-0.267,1.684,0.4,2.75
				c0.7,1.067,1.733,1.95,3.1,2.65C23.617-14.916,24.8-14.6,26-14.6z"/>
			
				<linearGradient id="SVGID_10_" gradientUnits="userSpaceOnUse" x1="-162.4043" y1="-16145.5439" x2="-159.0285" y2="-16145.5439" gradientTransform="matrix(0.0222 -0.9998 0.9998 0.0222 16168.3389 179.626)">
				<stop  offset="0" style="stop-color:#E9A9BA"/>
				<stop  offset="1" style="stop-color:#C47F91"/>
			</linearGradient>
			<path style="fill-rule:evenodd;clip-rule:evenodd;fill:url(#SVGID_10_);" d="M25.35-13.75c0.7-0.1,1.083-0.317,1.15-0.65
				c0.233-0.867-0.283-1.8-1.55-2.8c-0.633-0.7-1.15-1.25-1.55-1.65c-0.7-0.767-1.267-1.167-1.7-1.2c-0.9-0.066-1.483,0.3-1.75,1.1
				c-0.233,0.633-0.233,1.284,0,1.95c0.233,0.667,1.45,1.65,3.65,2.95C24.067-13.75,24.65-13.649,25.35-13.75z"/>
			<path style="fill-rule:evenodd;clip-rule:evenodd;fill:#F4D8E1;" d="M25.85-13.899c0.333-0.1,0.55-0.333,0.65-0.7
				c0.067-0.4-0.067-1-0.4-1.8c-0.267-0.634-0.383-0.934-0.35-0.9c-1.933-1.866-3.267-2.75-4-2.65c-0.633,0.067-1.033,0.4-1.2,1
				c-0.167,0.567-0.1,1.184,0.2,1.85c0.167,0.434,0.767,0.983,1.8,1.65c0.534,0.367,1.233,0.817,2.1,1.35
				C25.083-13.833,25.483-13.766,25.85-13.899z"/>
			
				<linearGradient id="SVGID_11_" gradientUnits="userSpaceOnUse" x1="-2963.6104" y1="-11171.6699" x2="-2959.6008" y2="-11171.6699" gradientTransform="matrix(0.4988 -0.8667 0.8667 0.4988 11183.7998 2988.5469)">
				<stop  offset="0" style="stop-color:#C78F9F"/>
				<stop  offset="1" style="stop-color:#9B6473"/>
			</linearGradient>
			<path style="fill-rule:evenodd;clip-rule:evenodd;fill:url(#SVGID_11_);" d="M25.95-13.95c0.4-0.066,0.633-0.267,0.7-0.6
				c0.267-1.333,0.033-2.283-0.7-2.85c-2.067-1.833-3.483-2.717-4.25-2.65c-0.567,0.067-0.883,0.434-0.95,1.1
				c-0.1,0.534-0.033,1.117,0.2,1.75c0.2,0.5,1.417,1.483,3.65,2.95C25.067-13.95,25.517-13.85,25.95-13.95z"/>
			<path style="fill-rule:evenodd;clip-rule:evenodd;fill:#CCA0AE;" d="M23.3-18.1c0-0.667-0.283-1.05-0.85-1.15
				c-0.5-0.1-0.784,0.167-0.85,0.8c0,0.267,0.083,0.5,0.25,0.7c0.167,0.233,0.367,0.367,0.6,0.4c0.233,0.033,0.433-0.017,0.6-0.15
				C23.217-17.666,23.3-17.866,23.3-18.1z"/>
			
				<linearGradient id="SVGID_12_" gradientUnits="userSpaceOnUse" x1="15862.7461" y1="-1097.3086" x2="15864.7617" y2="-1097.3086" gradientTransform="matrix(-0.124 0.9923 -1.0171 0.0748 874.0469 -15677.3887)">
				<stop  offset="0" style="stop-color:#9C6877"/>
				<stop  offset="1" style="stop-color:#905D6A"/>
			</linearGradient>
			<path style="fill-rule:evenodd;clip-rule:evenodd;fill:url(#SVGID_12_);" d="M23.3-17.85c0.034-0.267-0.033-0.517-0.2-0.75
				c-0.167-0.2-0.367-0.333-0.6-0.4c-0.233-0.067-0.433-0.017-0.6,0.15c-0.167,0.167-0.25,0.383-0.25,0.65s0.083,0.5,0.25,0.7
				c0.133,0.233,0.317,0.367,0.55,0.4c0.233,0.033,0.433-0.017,0.6-0.15C23.217-17.383,23.3-17.583,23.3-17.85z"/>
			
				<linearGradient id="SVGID_13_" gradientUnits="userSpaceOnUse" x1="15907.6416" y1="-1163.2539" x2="15909.3564" y2="-1163.2539" gradientTransform="matrix(-0.1312 0.9914 -1.018 0.0702 925.4902 -15707.2979)">
				<stop  offset="0" style="stop-color:#754E5A"/>
				<stop  offset="1" style="stop-color:#4E3238"/>
			</linearGradient>
			<path style="fill-rule:evenodd;clip-rule:evenodd;fill:url(#SVGID_13_);" d="M23.05-17.75c0-0.567-0.233-0.883-0.7-0.95
				c-0.167-0.066-0.333-0.033-0.5,0.1c-0.133,0.133-0.2,0.316-0.2,0.55c0,0.534,0.233,0.867,0.7,1c0.167,0.034,0.333-0.017,0.5-0.15
				C22.983-17.333,23.05-17.516,23.05-17.75z"/>
			<path style="fill-rule:evenodd;clip-rule:evenodd;fill:#CCA0AE;" d="M26.4-16c0.067-0.567-0.15-0.917-0.65-1.05
				c-0.167-0.066-0.333-0.017-0.5,0.15c-0.133,0.167-0.2,0.366-0.2,0.6c0,0.567,0.217,0.917,0.65,1.05
				c0.2,0.033,0.367-0.017,0.5-0.15C26.333-15.533,26.4-15.733,26.4-16z"/>
			
				<linearGradient id="SVGID_14_" gradientUnits="userSpaceOnUse" x1="15844.7373" y1="-1175.7378" x2="15846.6289" y2="-1175.7378" gradientTransform="matrix(-0.1322 0.9912 -1.0195 0.0796 921.3916 -15629.0928)">
				<stop  offset="0" style="stop-color:#9C6877"/>
				<stop  offset="1" style="stop-color:#905D6A"/>
			</linearGradient>
			<path style="fill-rule:evenodd;clip-rule:evenodd;fill:url(#SVGID_14_);" d="M26.45-15.75c0-0.567-0.217-0.917-0.65-1.05
				c-0.2-0.066-0.367-0.017-0.5,0.15c-0.133,0.133-0.2,0.333-0.2,0.6c-0.067,0.567,0.15,0.917,0.65,1.05
				c0.2,0.033,0.367-0.017,0.5-0.15C26.383-15.283,26.45-15.483,26.45-15.75z"/>
			
				<linearGradient id="SVGID_15_" gradientUnits="userSpaceOnUse" x1="15861.5391" y1="-1100.7383" x2="15863.1514" y2="-1100.7383" gradientTransform="matrix(-0.124 0.9923 -1.0172 0.0753 873.4761 -15672.8174)">
				<stop  offset="0" style="stop-color:#754E5A"/>
				<stop  offset="1" style="stop-color:#4E3238"/>
			</linearGradient>
			<path style="fill-rule:evenodd;clip-rule:evenodd;fill:url(#SVGID_15_);" d="M26.2-15.649c0-0.467-0.184-0.767-0.55-0.9
				c-0.367-0.066-0.55,0.15-0.55,0.65c-0.067,0.466,0.117,0.767,0.55,0.9C26.017-14.933,26.2-15.149,26.2-15.649z"/>
			<g>
				<path style="fill-rule:evenodd;clip-rule:evenodd;fill:#805361;" d="M19.5-15.5c0-0.5-0.1-0.917-0.3-1.25
					c-0.233-0.333-0.5-0.5-0.8-0.5c-0.3,0-0.55,0.167-0.75,0.5C17.417-16.416,17.3-16,17.3-15.5c0,0.466,0.117,0.867,0.35,1.2
					c0.2,0.333,0.45,0.5,0.75,0.5c0.3,0,0.567-0.167,0.8-0.5C19.4-14.633,19.5-15.033,19.5-15.5z"/>
				
					<linearGradient id="SVGID_16_" gradientUnits="userSpaceOnUse" x1="511.936" y1="-16802.7793" x2="514.8912" y2="-16802.7793" gradientTransform="matrix(-0.0592 -0.9982 0.9982 -0.0592 16821.8164 -498.5132)">
					<stop  offset="0" style="stop-color:#5F4E29"/>
					<stop  offset="0.8588" style="stop-color:#271D09"/>
				</linearGradient>
				<path style="fill-rule:evenodd;clip-rule:evenodd;fill:url(#SVGID_16_);" d="M19.05-15.55c0-0.366-0.083-0.667-0.25-0.9
					c-0.167-0.233-0.383-0.35-0.65-0.35c-0.233,0-0.45,0.117-0.65,0.35c-0.167,0.233-0.25,0.534-0.25,0.9
					c0,0.367,0.083,0.684,0.25,0.95c0.167,0.233,0.383,0.35,0.65,0.35s0.483-0.117,0.65-0.35
					C18.967-14.866,19.05-15.183,19.05-15.55z"/>
			</g>
			<g>
				<path style="fill-rule:evenodd;clip-rule:evenodd;fill:#805361;" d="M25.95-11.649c0-0.434-0.067-0.817-0.2-1.15
					c-0.167-0.333-0.35-0.5-0.55-0.5c-0.2,0-0.367,0.167-0.5,0.5c-0.133,0.3-0.2,0.684-0.2,1.15c0,1.066,0.233,1.6,0.7,1.6
					c0.2,0,0.383-0.15,0.55-0.45C25.883-10.833,25.95-11.216,25.95-11.649z"/>
				
					<linearGradient id="SVGID_17_" gradientUnits="userSpaceOnUse" x1="544.853" y1="-16828.9961" x2="547.6086" y2="-16828.9961" gradientTransform="matrix(-0.0635 -0.998 0.998 -0.0635 16854.7363 -535.7456)">
					<stop  offset="0" style="stop-color:#5F4E29"/>
					<stop  offset="0.8588" style="stop-color:#271D09"/>
				</linearGradient>
				<path style="fill-rule:evenodd;clip-rule:evenodd;fill:url(#SVGID_17_);" d="M25.65-11.649c0-0.8-0.2-1.2-0.6-1.2
					c-0.4,0-0.6,0.4-0.6,1.2c0,0.8,0.2,1.2,0.6,1.2C25.45-10.45,25.65-10.85,25.65-11.649z"/>
			</g>
			<path style="fill-rule:evenodd;clip-rule:evenodd;fill:#F4D8E1;" d="M20.95-6.05c-2.7-1.5-4.083-2.417-4.15-2.75
				c-0.066-0.366-0.066-4.517,0-12.45c-0.033-1.7-0.267-2.75-0.7-3.15l0.2,0.6c0.1,0.267,0.133,2.267,0.1,6
				c-0.033,3.434-0.083,5.8-0.15,7.1c-0.067,1.1-0.133,1.733-0.2,1.9c-0.066,0.2-0.25,0.333-0.55,0.4C15.1-8.3,12.267-7.983,7-7.45
				l-6.1,1l7.6-0.8c1.367-0.167,2.983-0.317,4.85-0.45c1.833-0.133,2.883-0.167,3.15-0.1c0.333,0.034,1.633,0.65,3.9,1.85
				c1.467,0.767,3.017,1.667,4.65,2.7C24.983-3.649,23.617-4.583,20.95-6.05z"/>
			<g>
				
					<radialGradient id="SVGID_18_" cx="13.4502" cy="-4.8994" r="14.2375" gradientTransform="matrix(1 0 0 -0.6901 0 -8.2808)" gradientUnits="userSpaceOnUse">
					<stop  offset="0" style="stop-color:#000000;stop-opacity:0.7373"/>
					<stop  offset="0.8667" style="stop-color:#000000;stop-opacity:0"/>
				</radialGradient>
				<path style="fill-rule:evenodd;clip-rule:evenodd;fill:url(#SVGID_18_);" d="M5.65,3.3c2.1,0.967,4.434,1.5,7,1.6
					C9.883,4.367,7.55,3.834,5.65,3.3z"/>
				
					<radialGradient id="SVGID_19_" cx="13.4751" cy="-4.8994" r="14.2206" gradientTransform="matrix(1 0 0 -0.6901 0 -8.2808)" gradientUnits="userSpaceOnUse">
					<stop  offset="0" style="stop-color:#000000;stop-opacity:0.7373"/>
					<stop  offset="0.8667" style="stop-color:#000000;stop-opacity:0"/>
				</radialGradient>
				<path style="fill-rule:evenodd;clip-rule:evenodd;fill:url(#SVGID_19_);" d="M2.25-5.8C5.083-5.833,9.333-5.866,15-5.899
					c4.867,0,9.1,0.183,12.7,0.55c-0.167-2.6-1.633-4.816-4.4-6.65c-2.733-1.8-6.017-2.7-9.85-2.7c-3.934,0-7.284,0.95-10.05,2.85
					s-4.15,4.217-4.15,6.95v0.35l0.7-0.1C0.55-5.416,1.317-5.8,2.25-5.8z"/>
				<path style="fill-rule:evenodd;clip-rule:evenodd;fill:#906765;" d="M4-22.5c-0.267,0.566-0.483,0.966-0.65,1.2
					c-0.133,0.233-0.283,0.384-0.45,0.45c-0.233,0.133-0.417,0.25-0.55,0.35C1.783-20,1.4-19.616,1.2-19.35
					c-0.4,0.5-0.55,1.017-0.45,1.55l3.45-0.85c0.367-0.6,1.15-0.983,2.35-1.15c0.633-0.1,1.5-0.216,2.6-0.35
					c0.8-0.267,1.934-0.65,3.4-1.15c0.8-0.2,1.784-0.3,2.95-0.3c2.7,0.133,4.25-0.316,4.65-1.35c-0.367-0.233-0.683-0.566-0.95-1
					c-1.967,0.167-3.467,0.267-4.5,0.3c-1.067,0.2-1.867,0.35-2.4,0.45c-0.933,0.167-1.7,0-2.3-0.5l-0.2-0.15
					c-0.767,0.1-1.466-0.017-2.1-0.35c-0.4-0.2-0.767-0.466-1.1-0.8c-0.533,0.167-1.167,0.617-1.9,1.35C4.433-23.383,4.2-23,4-22.5z
					"/>
				<path style="fill-rule:evenodd;clip-rule:evenodd;fill:#655732;" d="M23.65-2.95l-8.6,2.4l0.6,1.45
					c0.633,0.9,1.517,1.25,2.65,1.05c1.067-0.2,2.2-1.066,3.4-2.6C22.867-2.149,23.517-2.916,23.65-2.95z"/>
				<path style="fill-rule:evenodd;clip-rule:evenodd;fill:#837041;" d="M7-3.3C6.667-2.833,6.917-2.066,7.75-1
					C8.617,0.167,9.7,0.984,11,1.45c1.4,0.5,2.533,0.817,3.4,0.95c0.867,0.1,1.733,0.033,2.6-0.2c1.167-0.333,2.733-2.25,4.7-5.75
					c-0.333-0.333-0.767-0.683-1.3-1.05c-1.066-0.7-2.117-1.1-3.15-1.2C11.883-6.333,8.467-5.5,7-3.3z"/>
				<g>
					<path style="fill-rule:evenodd;clip-rule:evenodd;fill:#76653B;" d="M11.1-2.25c-0.333,0.367-0.567,0.583-0.7,0.65
						c-0.3,0.133-0.733,0.117-1.3-0.05C8.5-1.816,8.05-1.866,7.75-1.8L7.6-1.149C8.467-0.016,9.5,0.8,10.7,1.3
						c0.3,0,0.6-0.05,0.9-0.15L12,1c0.533-0.267,0.967-0.6,1.3-1c0.133-0.167,0.25-0.35,0.35-0.55c0.1-0.133,0.283-0.233,0.55-0.3
						c0.367-0.1,0.95-0.1,1.75,0l-0.2-0.45c0.667-0.066,1.167-0.083,1.5-0.05c0.467,0.1,0.967,0.417,1.5,0.95l0.3,0.15l0.5-0.45
						c-2.033-1.433-3.983-2.133-5.85-2.1c-0.833-0.1-1.417-0.116-1.75-0.05C11.717-2.783,11.433-2.583,11.1-2.25z"/>
					<path style="fill-rule:evenodd;clip-rule:evenodd;fill:#76653B;" d="M10.35-5.45l0.7-0.1c1.2-0.1,2.567-0.116,4.1-0.05
						c1.233,0,2.167,0.066,2.8,0.2c1.1,0.2,1.9,0.616,2.4,1.25c0.367,0.5,0.517,1.183,0.45,2.05l0.5-0.75c0-0.467-0.1-0.9-0.3-1.3
						c-1.333-1-2.583-1.55-3.75-1.65C14.583-6.133,12.283-6.016,10.35-5.45z"/>
					<path style="fill-rule:evenodd;clip-rule:evenodd;fill:#594C2C;" d="M11.95-2.85c0.333-0.066,0.917-0.05,1.75,0.05
						c1.867-0.033,3.816,0.667,5.85,2.1l0.75-0.6l0.5-0.8c0.067-0.867-0.083-1.55-0.45-2.05c-0.5-0.634-1.3-1.05-2.4-1.25
						c-0.633-0.134-1.567-0.2-2.8-0.2c-1.533-0.066-2.9-0.05-4.1,0.05l-0.7,0.1C8.75-5.05,7.633-4.333,7-3.3
						c-0.3,0.4-0.1,1.117,0.6,2.15L7.75-1.8c0.3-0.066,0.75-0.017,1.35,0.15c0.566,0.167,1,0.183,1.3,0.05
						c0.133-0.066,0.367-0.283,0.7-0.65C11.433-2.583,11.717-2.783,11.95-2.85z"/>
					<path style="fill-rule:evenodd;clip-rule:evenodd;fill:#A28950;" d="M12,1l-1.05,0.4L11,1.45c1.4,0.5,2.533,0.817,3.4,0.95
						c0.867,0.1,1.733,0.033,2.6-0.2c0.767-0.233,1.867-1.4,3.3-3.5l-1.25,1.05L18,0.5c-0.3,0.233-0.75,0.383-1.35,0.45l-1,0.15
						C14.117,1.3,13.233,1.167,13,0.7C12.7,0.734,12.367,0.834,12,1z"/>
				</g>
				<path style="fill-rule:evenodd;clip-rule:evenodd;fill:#837041;" d="M18.85-2c5.9-0.9,8.7-1.967,8.4-3.2
					c-0.267-1.033-1.7-2.083-4.3-3.15c-2.9-1.167-5.717-1.6-8.45-1.3c-2.467,0.3-5.267,1.033-8.4,2.2L2.15-5.8
					c-0.633,0.967-1.066,1.9-1.3,2.8C0.383-1.2,1.167-0.483,3.2-0.85c2-0.333,3.6-0.9,4.8-1.7C8.667-3.016,9.6-3.7,10.8-4.6
					c2.534-1.5,5.567-1.617,9.1-0.35c1.434,0.534,1.684,1.184,0.75,1.95L18.85-2z"/>
				<path style="fill-rule:evenodd;clip-rule:evenodd;fill:#A28950;" d="M2.5-1.8c-0.667,0-1.25-0.167-1.75-0.5
					C0.617-1.033,1.433-0.55,3.2-0.85c2-0.333,3.6-0.9,4.8-1.7C8.667-3.016,9.6-3.7,10.8-4.6c1.434-0.867,3.167-1.25,5.2-1.15
					L15.5-5.8C13.967-6,11.817-5.433,9.05-4.1C6.05-2.633,3.867-1.866,2.5-1.8z"/>
				<path style="fill-rule:evenodd;clip-rule:evenodd;fill:#655732;" d="M26.95-4.399c0.233-0.233,0.333-0.5,0.3-0.8
					c-0.267-1.033-1.7-2.083-4.3-3.15c-2.9-1.167-5.717-1.6-8.45-1.3c-2.467,0.3-5.267,1.033-8.4,2.2L2.15-5.8
					c-0.4,0.6-0.733,1.267-1,2C0.583-2.399,0.6-1.483,1.2-1.05c2.133-0.5,3.55-1.2,4.25-2.1c3.3-4.434,7.883-5.983,13.75-4.65
					c2.4,0.534,4.117,1.034,5.15,1.5C25.517-5.8,26.383-5.166,26.95-4.399z"/>
				<path style="fill-rule:evenodd;clip-rule:evenodd;fill:#393631;" d="M14.5-4.95l-3.25,0.9l0.8,0.3
					c0.833,0.2,1.983,0.35,3.45,0.45c1.467,0.1,2.733,0.567,3.8,1.4c0.534,0.433,0.917,0.85,1.15,1.25l1.95-1.8
					c-0.467-0.733-1.15-1.367-2.05-1.9C19.783-4.716,18.733-4.933,17.2-5C16.067-5.066,15.167-5.05,14.5-4.95z"/>
				<path style="fill-rule:evenodd;clip-rule:evenodd;fill:#493D24;" d="M27.25-5.149V-5.2c-0.267-1.033-1.7-2.083-4.3-3.15
					c-2.9-1.167-5.717-1.6-8.45-1.3C11.133-9.283,7.183-8.066,2.65-6c0.1,0.767,0.067,1.583-0.1,2.45L7.4-5.3
					c2.167-1.966,4.733-2.95,7.7-2.95c0.4-0.2,0.867-0.3,1.4-0.3c1.967-0.033,3.867,0.267,5.7,0.9
					C23.7-7.116,25.383-6.283,27.25-5.149z"/>
				<path style="fill-rule:evenodd;clip-rule:evenodd;fill:#675835;" d="M-0.25-15.55l5.5-1.95c4.167-1.367,7.5-2.217,10-2.55
					c3.967-0.5,6.8-0.75,8.5-0.75l-3-2.15c-5.333,0.434-9.833,1.233-13.5,2.4c-2.3,0.733-4.2,1.417-5.7,2.05L0-17.8L-0.25-15.55z"/>
				<path style="fill-rule:evenodd;clip-rule:evenodd;fill:#4B3F28;" d="M16.2-20.149c3.533-0.434,6.05-0.65,7.55-0.65l-3-2.15
					c-1.3,0.1-2.833,0.284-4.6,0.55L16.2-20.149z"/>
				<path style="fill-rule:evenodd;clip-rule:evenodd;fill:#76653F;" d="M2.25-18.05c0.1,0.9,0.517,1.417,1.25,1.55
					c0.5,0.066,1.417-0.034,2.75-0.3c0.833-0.167,2.25-0.75,4.25-1.75l-0.3-0.9c-0.2-0.733-0.35-1.517-0.45-2.35
					c-0.133-1.033-0.7-1.733-1.7-2.1c-1.066-0.367-2.333-0.25-3.8,0.35c-1.3,0.534-2.033,1.35-2.2,2.45
					C1.983-20.7,2.05-19.683,2.25-18.05z"/>
				<g>
					<path style="fill-rule:evenodd;clip-rule:evenodd;fill:#655735;" d="M7.65-20.8c0.267-1.133,0.067-2.05-0.6-2.75
						C6.75-23.85,6.367-24,5.9-24c-0.6,0.133-1.15,0.283-1.65,0.45c-0.6,0.3-1,0.534-1.2,0.7c2.833-0.4,4.05-0.05,3.65,1.05
						c-0.434-0.2-0.883-0.25-1.35-0.15C6.15-21.95,6.917-21.566,7.65-20.8z"/>
					<path style="fill-rule:evenodd;clip-rule:evenodd;fill:#655735;" d="M5.35-20.95c-0.733-0.167-1.434,0.05-2.1,0.65
						c-0.067,0.233-0.1,0.384-0.1,0.45c1.067-0.7,1.867-1.05,2.4-1.05L5.35-20.95z"/>
					<path style="fill-rule:evenodd;clip-rule:evenodd;fill:#493E26;" d="M2.05-19.1l1.2-1.2c0.667-0.6,1.367-0.816,2.1-0.65
						l0.2,0.05c0.467,0.133,1.034,0.533,1.7,1.2c0.7,0.767,1.2,1.233,1.5,1.4l0.2,0.5l1.55-0.75l-0.3-0.9
						c-0.2-0.733-0.35-1.517-0.45-2.35c-0.133-0.8-0.533-1.4-1.2-1.8C7.85-24,6.967-24.133,5.9-24c0.467,0,0.85,0.15,1.15,0.45
						c0.667,0.7,0.867,1.617,0.6,2.75c-0.733-0.767-1.5-1.15-2.3-1.15l-1.1,0.1c-1.033,0.267-1.8,0.833-2.3,1.7L2.05-19.1z"/>
				</g>
			</g>
			<g>
				
					<radialGradient id="SVGID_20_" cx="13.75" cy="-6.3496" r="3.95" gradientTransform="matrix(1 0 0 -0.3513 0 -8.5806)" gradientUnits="userSpaceOnUse">
					<stop  offset="0.2157" style="stop-color:#000000;stop-opacity:0.3765"/>
					<stop  offset="0.8667" style="stop-color:#000000;stop-opacity:0"/>
				</radialGradient>
				<path style="fill-rule:evenodd;clip-rule:evenodd;fill:url(#SVGID_20_);" d="M14.5-4.95c1.033-0.033,1.9-0.183,2.6-0.45
					c0.733-0.267,1.1-0.583,1.1-0.95s-0.383-0.7-1.15-1c-0.767-0.267-1.7-0.4-2.8-0.4c-0.767,0-1.583,0.1-2.45,0.3
					c0.467,0.4,1.05,1.05,1.75,1.95l0.15,0.3L14.5-4.95z"/>
				<path style="fill-rule:evenodd;clip-rule:evenodd;fill:#F4D8E1;" d="M12.15-7.1C11.983-6.6,12-5.783,12.2-4.649
					c0.233,1.3,0.65,1.95,1.25,1.95c0.933,0,1.733-0.816,2.4-2.45c0.233-0.367,0.066-0.717-0.5-1.05c-0.967-0.6-1.55-0.9-1.75-0.9
					H12.15z"/>
				
					<linearGradient id="SVGID_21_" gradientUnits="userSpaceOnUse" x1="-1074.9238" y1="-15093.0039" x2="-1070.5292" y2="-15093.0039" gradientTransform="matrix(0.1422 -0.9898 0.9898 0.1422 15106.1211 1079.667)">
					<stop  offset="0" style="stop-color:#E9A9BA"/>
					<stop  offset="1" style="stop-color:#C47F91"/>
				</linearGradient>
				<path style="fill-rule:evenodd;clip-rule:evenodd;fill:url(#SVGID_21_);" d="M12.15-7.1c0,0.8,0.083,1.583,0.25,2.35
					c0.233,1.3,0.633,1.95,1.2,1.95c0.9,0,1.733-0.85,2.5-2.55c0.066-0.2,0.1-0.333,0.1-0.4c-0.034-0.167-0.233-0.367-0.6-0.6
					c-1.033-0.6-1.633-0.9-1.8-0.9L12.15-7.1z"/>
				<path style="fill-rule:evenodd;clip-rule:evenodd;fill:#F4D8E1;" d="M15.9-5.2c0.233-0.367,0.067-0.716-0.5-1.05l-1.35-0.9H13.9
					L13.8-7.2c-0.133,0.267-0.216,0.883-0.25,1.85c-0.033,1,0.017,1.633,0.15,1.9c0.167,0.333,0.383,0.483,0.65,0.45
					C14.85-3.366,15.367-4.1,15.9-5.2z"/>
				
					<linearGradient id="SVGID_22_" gradientUnits="userSpaceOnUse" x1="-1059.459" y1="-15112.2539" x2="-1054.283" y2="-15112.2539" gradientTransform="matrix(0.1401 -0.9901 0.9901 0.1401 15126.1953 1064.6025)">
					<stop  offset="0" style="stop-color:#C78F9F"/>
					<stop  offset="1" style="stop-color:#9B6473"/>
				</linearGradient>
				<path style="fill-rule:evenodd;clip-rule:evenodd;fill:url(#SVGID_22_);" d="M15.6-6.35c-1.033-0.6-1.633-0.9-1.8-0.9
					c-0.133,2-0.117,3.216,0.05,3.65c0.167,0.333,0.383,0.5,0.65,0.5c0.5-0.367,1.033-1.117,1.6-2.25c0.066-0.2,0.1-0.333,0.1-0.4
					C16.167-5.916,15.967-6.116,15.6-6.35z"/>
			</g>
		</g>
	</g>
</symbol>
<symbol  id="cubimal_x5F_mc" viewBox="-0.385 -26.763 33.685 31.713">
	<g id="Layer_5_1_">
	</g>
	<g id="Layer_4_2_">
	</g>
	<g id="Layer_2_copy_2_">
	</g>
	<g id="Layer_2_2_">
	</g>
	<g id="Layer_1_9_">
		
			<use xlink:href="#cubimal_x5F_scene1"  width="33.685" height="31.713" x="0.015" y="-26.813" transform="matrix(1 0 0 1 -0.3999 0.0498)" style="overflow:visible;"/>
	</g>
	<g id="Layer_6_1_">
	</g>
</symbol>
<symbol  id="cubimal_x5F_scene1" viewBox="0.015 -26.813 33.685 31.713">
	<g id="Layer_1_8_">
		
			<use xlink:href="#winder_x5F_static"  width="10.185" height="8.474" x="0.015" y="-8.472" transform="matrix(1 0 0 1 0 -7.9502)" style="overflow:visible;"/>
		
			<use xlink:href="#cubimal_1_"  width="28.45" height="31.713" x="-0.75" y="-26.813" transform="matrix(1 0 0 1 6 0)" style="overflow:visible;"/>
	</g>
</symbol>
<symbol  id="winder_x5F_static" viewBox="0.015 -8.472 10.185 8.474">
	<g id="Layer_4_1_">
		
			<use xlink:href="#winderedge"  width="4.537" height="8.127" x="0.015" y="-8.126" transform="matrix(1 0 0 1 0.7002 0)" style="overflow:visible;"/>
	</g>
	<g id="Layer_3_1_">
		
			<use xlink:href="#winderfacehighlight"  width="4.573" height="8.174" x="0.016" y="-8.173" transform="matrix(1 0 0 1 0.2002 -0.2002)" style="overflow:visible;"/>
	</g>
	<g id="Layer_2_copy_1_">
		
			<use xlink:href="#winderface1a"  width="4.573" height="8.174" x="0.015" y="-8.172" transform="matrix(1 0 0 1 0 -0.2998)" style="overflow:visible;"/>
	</g>
	<g id="Layer_1_7_">
		<g>
			
				<linearGradient id="SVGID_23_" gradientUnits="userSpaceOnUse" x1="1517.5366" y1="-17618.4453" x2="1518.856" y2="-17618.4453" gradientTransform="matrix(-0.1705 -0.9854 0.9854 -0.1705 17626.5703 -1514.1211)">
				<stop  offset="0" style="stop-color:#8F8F8F"/>
				<stop  offset="0.2275" style="stop-color:#E8E8E8"/>
				<stop  offset="1" style="stop-color:#696969"/>
			</linearGradient>
			<path style="fill-rule:evenodd;clip-rule:evenodd;fill:url(#SVGID_23_);" d="M10.2-6.3L4.8-5.5C4.5-5.533,4.351-5.366,4.351-5
				c0,0.233,0.083,0.4,0.25,0.5c0.066,0.066,0.133,0.1,0.2,0.1l5.4-0.8V-6.3z"/>
		</g>
	</g>
</symbol>
<symbol  id="winderedge" viewBox="0.015 -8.126 4.537 8.127">
	<g id="Layer_1_4_">
		<g>
			
				<linearGradient id="SVGID_24_" gradientUnits="userSpaceOnUse" x1="8.21" y1="-16348.5195" x2="15.035" y2="-16348.5195" gradientTransform="matrix(1.465202e-004 -1 1 -0.001 16350.8027 -8.1758)">
				<stop  offset="0" style="stop-color:#8F8F8F"/>
				<stop  offset="0.2275" style="stop-color:#E8E8E8"/>
				<stop  offset="1" style="stop-color:#696969"/>
			</linearGradient>
			<path style="fill-rule:evenodd;clip-rule:evenodd;fill:url(#SVGID_24_);" d="M3.5-5.899c0.066,0.6-0.083,0.983-0.45,1.15L2.6-4.7
				C2.367-4.7,2.167-4.733,2-4.8c-0.533-0.167-0.833-0.533-0.9-1.1c-0.034-0.5,0.1-0.85,0.4-1.05c0.434-0.233,0.867-0.233,1.3,0
				C3.2-6.716,3.434-6.366,3.5-5.899z M0.05-1.25c0.1,0.8,0.5,1.216,1.2,1.25c1.367,0.033,2.333-0.633,2.9-2
				c0.5-1.233,0.534-2.05,0.1-2.45c0.434-0.533,0.4-1.333-0.1-2.4c-0.567-1.167-1.533-1.533-2.9-1.1c-0.7,0.233-1.1,0.767-1.2,1.6
				c-0.133,0.867,0.117,1.533,0.75,2L1.25-4L0.8-3.55C0.167-2.85-0.083-2.083,0.05-1.25z M3.5-2.75C3.434-2.25,3.2-1.833,2.8-1.5
				C2.367-1.1,1.934-0.966,1.5-1.1c-0.3-0.133-0.434-0.467-0.4-1C1.167-2.666,1.467-3.116,2-3.45l0.6-0.3L3.05-3.8
				C3.417-3.766,3.566-3.416,3.5-2.75z"/>
		</g>
	</g>
</symbol>
<symbol  id="winderface1a" viewBox="0.015 -8.172 4.573 8.174">
	<g id="Layer_1_2_">
		
			<linearGradient id="SVGID_25_" gradientUnits="userSpaceOnUse" x1="-1919.8555" y1="-13813.0723" x2="-1910.6832" y2="-13813.0723" gradientTransform="matrix(0.2726 -0.9621 0.9621 0.2726 13813.9902 1918.9004)">
			<stop  offset="0" style="stop-color:#E8E8E8"/>
			<stop  offset="1" style="stop-color:#878787"/>
		</linearGradient>
		<path style="fill-rule:evenodd;clip-rule:evenodd;fill:url(#SVGID_25_);" d="M2.05-4.8c-0.566-0.133-0.867-0.483-0.9-1.05
			c-0.033-0.533,0.1-0.9,0.4-1.1c0.4-0.267,0.817-0.267,1.25,0C3.2-6.717,3.433-6.367,3.5-5.9c0.133,0.633,0,1-0.4,1.1L2.65-4.7
			L2.05-4.8z M0.05-1.25C0.183-0.45,0.6-0.033,1.3,0c1.367,0.033,2.333-0.633,2.9-2c0.5-1.233,0.517-2.05,0.05-2.45
			c0.467-0.5,0.45-1.3-0.05-2.4C3.633-8.05,2.667-8.433,1.3-8C0.6-7.733,0.183-7.183,0.05-6.35c-0.133,0.867,0.117,1.533,0.75,2
			L1.3-4L0.8-3.55C0.167-2.85-0.083-2.083,0.05-1.25z M3.5-2.75C3.433-2.25,3.2-1.833,2.8-1.5C2.367-1.1,1.95-0.967,1.55-1.1
			c-0.3-0.133-0.433-0.467-0.4-1c0.033-0.6,0.333-1.05,0.9-1.35l0.6-0.3L3.1-3.8C3.467-3.767,3.6-3.417,3.5-2.75z"/>
	</g>
</symbol>
<symbol  id="winderfacehighlight" viewBox="0.016 -8.173 4.573 8.174">
	<g id="Layer_1_3_">
		
			<linearGradient id="SVGID_26_" gradientUnits="userSpaceOnUse" x1="-1919.8545" y1="-13813.0723" x2="-1910.6823" y2="-13813.0723" gradientTransform="matrix(0.2726 -0.9621 0.9621 0.2726 13813.9902 1918.9004)">
			<stop  offset="0" style="stop-color:#E8E8E8"/>
			<stop  offset="1" style="stop-color:#EDEDED"/>
		</linearGradient>
		<path style="fill-rule:evenodd;clip-rule:evenodd;fill:url(#SVGID_26_);" d="M2.05-4.8c-0.567-0.133-0.867-0.483-0.9-1.05
			c-0.033-0.533,0.1-0.9,0.4-1.1c0.4-0.267,0.817-0.267,1.25,0C3.2-6.717,3.434-6.367,3.5-5.9c0.1,0.6-0.034,0.967-0.4,1.1L2.65-4.7
			L2.05-4.8z M0.05-1.25C0.184-0.45,0.601-0.034,1.3,0c1.367,0.034,2.333-0.633,2.9-2c0.5-1.233,0.517-2.05,0.05-2.45
			c0.466-0.5,0.45-1.3-0.05-2.4C3.634-8.05,2.667-8.434,1.3-8c-0.7,0.267-1.117,0.817-1.25,1.65c-0.133,0.867,0.117,1.534,0.75,2
			L1.3-4L0.8-3.55C0.167-2.851-0.083-2.084,0.05-1.25z M1.55-1.101c-0.3-0.133-0.433-0.466-0.4-1c0.033-0.6,0.333-1.05,0.9-1.35
			l0.6-0.3l0.45-0.05c0.366,0.033,0.5,0.383,0.4,1.05C3.434-2.25,3.2-1.834,2.8-1.5C2.367-1.101,1.95-0.967,1.55-1.101z"/>
	</g>
</symbol>
<use xlink:href="#cubimal_x5F_mc"  width="33.685" height="31.713" id="cubimal" x="-0.385" y="-26.763" transform="matrix(1 0 0 -1 0.3999 4.9502)" style="overflow:visible;"/>
</svg>
