<?xml version="1.0" encoding="iso-8859-1"?>
<!-- Generator: Adobe Illustrator 15.1.0, SVG Export Plug-In . SVG Version: 6.00 Build 0)  -->
<!DOCTYPE svg PUBLIC "-//W3C//DTD SVG 1.1//EN" "http://www.w3.org/Graphics/SVG/1.1/DTD/svg11.dtd">
<svg version="1.1" id="flash0.ai" xmlns="http://www.w3.org/2000/svg" xmlns:xlink="http://www.w3.org/1999/xlink" x="0px" y="0px"
	 width="32.3px" height="25.55px" viewBox="0 0 32.3 25.55" style="enable-background:new 0 0 32.3 25.55;" xml:space="preserve">
<symbol  id="cubimal_1_" viewBox="0.399 -26.664 25.922 25.578">
	<g id="Layer_1_5_">
		<g>
			
				<linearGradient id="SVGID_1_" gradientUnits="userSpaceOnUse" x1="360.9263" y1="319.0488" x2="362.6779" y2="319.0488" gradientTransform="matrix(0.9991 0.0428 -0.0428 0.9991 -342.708 -357.5801)">
				<stop  offset="0" style="stop-color:#B8B7C3"/>
				<stop  offset="1" style="stop-color:#818091"/>
			</linearGradient>
			<path style="fill-rule:evenodd;clip-rule:evenodd;fill:url(#SVGID_1_);" d="M3.2-21.05l4.65-0.35c-0.733-3-1.434-4.417-2.1-4.25
				C4.95-25.45,4.1-23.917,3.2-21.05z"/>
			
				<linearGradient id="SVGID_2_" gradientUnits="userSpaceOnUse" x1="370.1748" y1="317.6504" x2="371.9264" y2="317.6504" gradientTransform="matrix(0.9991 0.0428 -0.0428 0.9991 -342.708 -357.5801)">
				<stop  offset="0" style="stop-color:#A57F73"/>
				<stop  offset="1" style="stop-color:#81645B"/>
			</linearGradient>
			<path style="fill-rule:evenodd;clip-rule:evenodd;fill:url(#SVGID_2_);" d="M12.5-22.05l4.7-0.35c-0.4-1.5-0.683-2.45-0.85-2.85
				c-0.4-1.034-0.816-1.5-1.25-1.4C14.267-26.45,13.399-24.917,12.5-22.05z"/>
			
				<linearGradient id="SVGID_3_" gradientUnits="userSpaceOnUse" x1="378.0308" y1="321.168" x2="379.7824" y2="321.168" gradientTransform="matrix(0.9991 0.0428 -0.0428 0.9991 -342.708 -357.5801)">
				<stop  offset="0" style="stop-color:#EFF8FF"/>
				<stop  offset="1" style="stop-color:#BDD0D9"/>
			</linearGradient>
			<path style="fill-rule:evenodd;clip-rule:evenodd;fill:url(#SVGID_3_);" d="M24.85-18.55c-0.733-3-1.434-4.417-2.1-4.25
				c-0.8,0.2-1.65,1.733-2.55,4.6L24.85-18.55z"/>
			
				<linearGradient id="SVGID_4_" gradientUnits="userSpaceOnUse" x1="-2109.0703" y1="-13442.3789" x2="-2089.9219" y2="-13442.3789" gradientTransform="matrix(0.3068 -0.9518 0.9518 0.3068 13452.0332 2112.0879)">
				<stop  offset="0" style="stop-color:#E9E6B9"/>
				<stop  offset="1" style="stop-color:#C9C6A0"/>
			</linearGradient>
			<path style="fill-rule:evenodd;clip-rule:evenodd;fill:url(#SVGID_4_);" d="M22.6-2.3c1.1,0,1.934-0.216,2.5-0.65
				c0.367-0.3,0.65-0.767,0.85-1.4c0.1-0.434,0.167-2.333,0.2-5.7c0.033-3.066,0.033-5.017,0-5.85c0-0.366,0-0.85,0-1.45
				c-0.033-0.5-0.183-0.95-0.45-1.35c-0.267-0.434-1.167-1.184-2.7-2.25c-1.333-0.967-2.3-1.6-2.9-1.9c-1.7-0.934-2.967-1.4-3.8-1.4
				c-2.434,0.3-4.3,0.45-5.6,0.45c-0.767,0.034-2.217,0.2-4.35,0.5C4.25-23,3-22.817,2.6-22.75c-0.7,0.1-1.167,0.4-1.4,0.9
				c-0.367,0.667-0.567,2.017-0.6,4.05c-0.133,3.233-0.2,5.6-0.2,7.1c0.033,2.667,0.4,4.25,1.1,4.75C2.466-5.284,4-4.384,6.1-3.25
				c2.533,1.4,4.167,2.116,4.9,2.15c0.933,0.033,2.867-0.15,5.8-0.55C19.933-2.083,21.866-2.3,22.6-2.3z"/>
			<g>
				<path style="fill-rule:evenodd;clip-rule:evenodd;fill:#8F9C8C;" d="M21.1-20.25c0.333-0.4,0.5-0.784,0.5-1.15l-3.7-1.55
					c-6.9,0.6-12.566,1.25-17,1.95l-0.1,0.55c4.433-0.733,9.9-1.383,16.4-1.95l0.85,2.1l1.6,0.8c-1.6-0.567-7.95,0.116-19.05,2.05
					v0.75c9.867-1.434,15.617-2.184,17.25-2.25C19.383-19.017,20.466-19.45,21.1-20.25z"/>
				<path style="fill-rule:evenodd;clip-rule:evenodd;fill:#8F9C8C;" d="M18.55-16.75c0.667-0.067,0.983-0.317,0.95-0.75
					c0-0.233-0.083-0.45-0.25-0.65c-7.233,0.9-13.466,1.717-18.7,2.45L0.5-14.75c11.167-1.733,17.233-2.5,18.2-2.3L18.55-16.75z"/>
				<path style="fill-rule:evenodd;clip-rule:evenodd;fill:#8F9C8C;" d="M0.399-10.05c10.333-1.533,16.2-2.333,17.6-2.4l0.45,1.5
					c1-0.033,1.75-0.167,2.25-0.4l-1.1-2.2c-9.8,1.133-16.2,1.833-19.2,2.1V-10.05z"/>
				<path style="fill-rule:evenodd;clip-rule:evenodd;fill:#647770;" d="M0.399-12.35v0.9c3-0.267,9.4-0.967,19.2-2.1l0.65-0.1
					l-0.35-1l-2.5,0.2c-0.767,0.033-4.083,0.434-9.95,1.2L0.399-12.35z"/>
				<path style="fill-rule:evenodd;clip-rule:evenodd;fill:#647770;" d="M17.75-20.95L17.2-22.4c-6.5,0.567-11.967,1.217-16.4,1.95
					C0.767-20.384,0.716-19.9,0.649-19l0.85-0.1C5.399-19.833,10.816-20.45,17.75-20.95z"/>
				<path style="fill-rule:evenodd;clip-rule:evenodd;fill:#C0CDCA;" d="M2.55-8c1.667-0.233,7.233-0.85,16.7-1.85l-0.8-1.1
					L18-12.45c-1.4,0.066-7.267,0.867-17.6,2.4c0.067,1.1,0.15,1.883,0.25,2.35L2.55-8z"/>
				<path style="fill-rule:evenodd;clip-rule:evenodd;fill:#C0CDCA;" d="M0.649-18.9L0.6-17.45c11.1-1.934,17.45-2.617,19.05-2.05
					l-1.6-0.8l-0.3-0.65c-6.933,0.5-12.35,1.117-16.25,1.85L0.649-18.9z"/>
				<path style="fill-rule:evenodd;clip-rule:evenodd;fill:#C6C191;" d="M17.899-15.45l0.8-1.6c-0.967-0.2-7.034,0.567-18.2,2.3
					l-0.05,1.3C3.716-13.75,9.533-14.417,17.899-15.45z"/>
				<path style="fill-rule:evenodd;clip-rule:evenodd;fill:#8F9C8C;" d="M16.3-24.25c-2.434,0.3-4.3,0.45-5.6,0.45
					c-0.767,0.034-2.217,0.2-4.35,0.5C4.25-23,3-22.817,2.6-22.75c-0.434,0.066-0.75,0.167-0.95,0.3C1.383-22.25,1.166-21.9,1-21.4
					c10.067-1.333,16.2-1.933,18.4-1.8C17.933-23.9,16.899-24.25,16.3-24.25z"/>
			</g>
			
				<linearGradient id="SVGID_5_" gradientUnits="userSpaceOnUse" x1="-2109.0703" y1="-13442.3789" x2="-2089.9219" y2="-13442.3789" gradientTransform="matrix(0.3068 -0.9518 0.9518 0.3068 13452.0332 2112.0879)">
				<stop  offset="0" style="stop-color:#000000;stop-opacity:0.0196"/>
				<stop  offset="1" style="stop-color:#000000;stop-opacity:0.3569"/>
			</linearGradient>
			<path style="fill-rule:evenodd;clip-rule:evenodd;fill:url(#SVGID_5_);" d="M22.6-2.3c1.1,0,1.934-0.216,2.5-0.65
				c0.367-0.3,0.65-0.767,0.85-1.4c0.1-0.434,0.167-2.333,0.2-5.7c0.033-3.066,0.033-5.017,0-5.85c0-0.366,0-0.85,0-1.45
				c-0.033-0.5-0.183-0.95-0.45-1.35c-0.267-0.434-1.167-1.184-2.7-2.25c-1.333-0.967-2.3-1.6-2.9-1.9c-1.7-0.934-2.967-1.4-3.8-1.4
				c-2.434,0.3-4.3,0.45-5.6,0.45c-0.767,0.034-2.217,0.2-4.35,0.5C4.25-23,3-22.817,2.6-22.75c-0.7,0.1-1.167,0.4-1.4,0.9
				c-0.367,0.667-0.567,2.017-0.6,4.05c-0.133,3.233-0.2,5.6-0.2,7.1c0.033,2.667,0.4,4.25,1.1,4.75C2.466-5.284,4-4.384,6.1-3.25
				c2.533,1.4,4.167,2.116,4.9,2.15c0.933,0.033,2.867-0.15,5.8-0.55C19.933-2.083,21.866-2.3,22.6-2.3z"/>
			
				<linearGradient id="SVGID_6_" gradientUnits="userSpaceOnUse" x1="-2371.8516" y1="-12877.1729" x2="-2354.8538" y2="-12877.1729" gradientTransform="matrix(0.3574 -0.934 0.934 0.3574 12892.667 2380.1689)">
				<stop  offset="0" style="stop-color:#C9C6A0"/>
				<stop  offset="1" style="stop-color:#9D9A7D"/>
			</linearGradient>
			<path style="fill-rule:evenodd;clip-rule:evenodd;fill:url(#SVGID_6_);" d="M26.1-6.95c0.133-4.333,0.15-7.316,0.05-8.95
				c0-0.366,0-0.85,0-1.45c-0.033-0.5-0.183-0.95-0.45-1.35c-0.267-0.434-1.167-1.184-2.7-2.25c-1.333-0.967-2.3-1.6-2.9-1.9
				c-0.267-0.167-0.9-0.434-1.9-0.8c-1-0.366-1.633-0.566-1.9-0.6c0.3,0.6,0.45,1.316,0.45,2.15l-0.1,14l0.1,0.15
				c0.167,0.2,1.067,0.7,2.7,1.5C21.316-5.55,22.5-4.934,23-4.6c1.4,0.9,2.15,1.4,2.25,1.5c0.3-0.333,0.534-0.75,0.7-1.25L26.1-6.95
				z"/>
			<g>
				<path style="fill-rule:evenodd;clip-rule:evenodd;fill:#8F9C8C;" d="M26.2-13.2v-0.9c-3.1-1.767-6.267-3.517-9.5-5.25v0.8
					L26.2-13.2z"/>
				<path style="fill-rule:evenodd;clip-rule:evenodd;fill:#8F9C8C;" d="M26.149-16.85v-0.5c-3.233-1.967-6.383-3.817-9.45-5.55
					l0.05,0.55C19.783-20.65,22.916-18.817,26.149-16.85z"/>
				<path style="fill-rule:evenodd;clip-rule:evenodd;fill:#8F9C8C;" d="M26.149-11.35l0.05-0.75l-9.5-5.4v0.9
					C22.033-13.667,25.183-11.917,26.149-11.35z"/>
				<path style="fill-rule:evenodd;clip-rule:evenodd;fill:#8F9C8C;" d="M26.1-6.55v-1l-9.45-5.6v1.4
					C19.283-10.384,22.433-8.65,26.1-6.55z"/>
				<polygon style="fill-rule:evenodd;clip-rule:evenodd;fill:#586862;" points="26.1,-7.55 26.149,-8.7 16.649,-14.1 
					16.649,-13.15 				"/>
				<path style="fill-rule:evenodd;clip-rule:evenodd;fill:#586862;" d="M26.149-15.4v-1.45c-3.233-1.967-6.366-3.8-9.4-5.5
					l-0.05,1.5C18.8-19.784,21.95-17.967,26.149-15.4z"/>
				<path style="fill-rule:evenodd;clip-rule:evenodd;fill:#C0CDCA;" d="M25.8-4l0.15-0.35l0.15-2.2
					c-3.667-2.1-6.816-3.833-9.45-5.2v2.4L25.8-4z"/>
				<path style="fill-rule:evenodd;clip-rule:evenodd;fill:#C0CDCA;" d="M26.2-14.1l-0.05-1.3c-4.2-2.566-7.35-4.383-9.45-5.45v1.5
					C19.933-17.617,23.1-15.867,26.2-14.1z"/>
				<path style="fill-rule:evenodd;clip-rule:evenodd;fill:#C6C191;" d="M26.149-9.6v-1.75c-0.967-0.567-4.116-2.317-9.45-5.25
					l-0.05,1.4L26.149-9.6z"/>
				<path style="fill-rule:evenodd;clip-rule:evenodd;fill:#8F9C8C;" d="M26.1-17.75c-0.066-0.333-0.2-0.65-0.4-0.95
					c-0.267-0.4-0.983-1.017-2.15-1.85c-0.4-0.267-2.25-1.316-5.55-3.15l-1.5-0.5l-0.15,0.15l0.25,0.7
					C19.933-21.417,23.1-19.55,26.1-17.75z"/>
			</g>
			
				<linearGradient id="SVGID_7_" gradientUnits="userSpaceOnUse" x1="-2371.8516" y1="-12877.1729" x2="-2354.8538" y2="-12877.1729" gradientTransform="matrix(0.3574 -0.934 0.934 0.3574 12892.667 2380.1689)">
				<stop  offset="0" style="stop-color:#000000;stop-opacity:0.2196"/>
				<stop  offset="1" style="stop-color:#000000;stop-opacity:0.4471"/>
			</linearGradient>
			<path style="fill-rule:evenodd;clip-rule:evenodd;fill:url(#SVGID_7_);" d="M26.1-6.95c0.133-4.333,0.15-7.316,0.05-8.95
				c0-0.366,0-0.85,0-1.45c-0.033-0.5-0.183-0.95-0.45-1.35c-0.267-0.434-1.167-1.184-2.7-2.25c-1.333-0.967-2.3-1.6-2.9-1.9
				c-0.267-0.167-0.9-0.434-1.9-0.8c-1-0.366-1.633-0.566-1.9-0.6c0.3,0.6,0.45,1.316,0.45,2.15l-0.1,14l0.1,0.15
				c0.167,0.2,1.067,0.7,2.7,1.5C21.316-5.55,22.5-4.934,23-4.6c1.4,0.9,2.15,1.4,2.25,1.5c0.3-0.333,0.534-0.75,0.7-1.25L26.1-6.95
				z"/>
			<linearGradient id="SVGID_8_" gradientUnits="userSpaceOnUse" x1="1.0498" y1="-4.5176" x2="25.2495" y2="-4.5176">
				<stop  offset="0" style="stop-color:#FDF9C9"/>
				<stop  offset="1" style="stop-color:#E6E3B8"/>
			</linearGradient>
			<path style="fill-rule:evenodd;clip-rule:evenodd;fill:url(#SVGID_8_);" d="M22.6-2.3c1.4-0.2,2.283-0.466,2.65-0.8
				c-0.367-0.367-0.883-0.767-1.55-1.2c-0.5-0.3-1.784-0.966-3.85-2c-1.9-0.9-2.934-1.45-3.1-1.65c-0.933,0.066-3.85,0.367-8.75,0.9
				c-3.733,0.4-6.05,0.567-6.95,0.5c0.066,0.167,0.217,0.367,0.45,0.6C2.466-5.284,4-4.384,6.1-3.25c2.533,1.4,4.167,2.116,4.9,2.15
				C13.233-1,17.1-1.4,22.6-2.3z"/>
			<g>
				<path style="fill-rule:evenodd;clip-rule:evenodd;fill:#B2C3AC;" d="M11.75-1.95c-0.4,0.167-0.567,0.45-0.5,0.85
					c0.967,0,2.367-0.083,4.2-0.25c-0.3-0.367-0.85-0.55-1.65-0.55C13.366-1.967,13.017-2,12.75-2
					C12.283-2.067,11.95-2.05,11.75-1.95z"/>
				<path style="fill-rule:evenodd;clip-rule:evenodd;fill:#B2C3AC;" d="M18.75-2.55c-0.267,0.034-0.433,0.067-0.5,0.1
					c-0.1,0.1-0.15,0.283-0.15,0.55l0.05,0.25l4.3-0.6C21.583-2.583,20.35-2.684,18.75-2.55z"/>
				<path style="fill-rule:evenodd;clip-rule:evenodd;fill:#B2C3AC;" d="M24.649-3.65L23.7-4.3L22-5.2
					c-1.067,0.4-1.283,0.867-0.65,1.4c0.233,0.2,0.7,0.317,1.4,0.35C23.483-3.384,24.116-3.45,24.649-3.65z"/>
				<path style="fill-rule:evenodd;clip-rule:evenodd;fill:#B2C3AC;" d="M16.6-3.05c0.333-0.167,0.483-0.466,0.45-0.9
					s-0.217-0.733-0.55-0.9c-0.4-0.167-1.2-0.2-2.4-0.1c-1.467,0.233-1.967,0.717-1.5,1.45c0.2,0.333,0.583,0.533,1.15,0.6
					c0.1,0,0.55,0,1.35,0L16.6-3.05z"/>
				<path style="fill-rule:evenodd;clip-rule:evenodd;fill:#B2C3AC;" d="M9.45-2.2C9.55-2.7,9.267-3,8.6-3.1
					C8.066-3.2,7.366-3.167,6.5-3l2.2,1.05L9.45-2.2z"/>
				<path style="fill-rule:evenodd;clip-rule:evenodd;fill:#B2C3AC;" d="M6.35-4c0.267,0.2,0.733,0.3,1.4,0.3
					c0.367-0.033,0.867-0.066,1.5-0.1l1.5-0.35c0.067-0.833-0.45-1.3-1.55-1.4c-0.833-0.066-1.65,0.034-2.45,0.3
					C6.483-5.184,6.333-5.117,6.3-5.05c-0.1,0.034-0.167,0.167-0.2,0.4C6.066-4.384,6.149-4.167,6.35-4z"/>
				<path style="fill-rule:evenodd;clip-rule:evenodd;fill:#B2C3AC;" d="M17.25-5.75c0.1,0.133,0.567,0.2,1.4,0.2
					c0.8,0,1.567-0.066,2.3-0.2l-3.4-1.65C17.216-7.2,17.033-7,17-6.8C16.866-6.4,16.95-6.05,17.25-5.75z"/>
				<path style="fill-rule:evenodd;clip-rule:evenodd;fill:#B2C3AC;" d="M14.25-7.15c0.1-0.3,0.15-0.5,0.15-0.6l-4.6,0.5
					c0.133,0.433,0.316,0.716,0.55,0.85c0.5,0.3,1.2,0.417,2.1,0.35C13.416-6.117,14.017-6.483,14.25-7.15z"/>
				<path style="fill-rule:evenodd;clip-rule:evenodd;fill:#B2C3AC;" d="M3.399-6.6L1.1-6.45c0.233,0.3,0.367,0.467,0.4,0.5l1.8,1.1
					c1.1-0.167,1.583-0.534,1.45-1.1C4.683-6.317,4.233-6.534,3.399-6.6z"/>
			</g>
			<path style="fill-rule:evenodd;clip-rule:evenodd;fill:#2A2820;" d="M24.2-8.15c0.833,0.3,1.383,0.117,1.65-0.55
				c0.133-0.333,0.217-1.15,0.25-2.45c0.1-1.3-0.35-2.15-1.35-2.55c-1.233-0.733-2.333-1.367-3.3-1.9c-1.833-1.034-3-1.517-3.5-1.45
				c-0.8,0.133-1.067,1.733-0.8,4.8c0.067,0.466,1.067,1.216,3,2.25C21.616-9.233,22.966-8.617,24.2-8.15z"/>
			<path style="fill-rule:evenodd;clip-rule:evenodd;fill:#464234;" d="M24.35-8.5c0.767,0.3,1.267,0.133,1.5-0.5
				c0.133-0.333,0.217-1.134,0.25-2.4c0.1-1.233-0.316-2.033-1.25-2.4c-1.133-0.7-2.133-1.316-3-1.85c-1.667-1-2.717-1.466-3.15-1.4
				c-0.5,0.067-0.784,0.717-0.85,1.95c-0.033,0.833,0.017,1.716,0.15,2.65c0.034,0.467,0.917,1.184,2.65,2.15
				C22.083-9.5,23.316-8.9,24.35-8.5z"/>
			<path style="fill-rule:evenodd;clip-rule:evenodd;fill:#696558;" d="M26-11.35c0.034-1.067-0.383-1.8-1.25-2.2l-1.35-0.85
				c-2.267-1.466-3.65-2.2-4.15-2.2c-0.233,0-0.433,0.1-0.6,0.3c-0.433,0.5-0.517,1.65-0.25,3.45c0.067,0.5,1.033,1.267,2.9,2.3
				c0.933,0.534,1.866,1.017,2.8,1.45c0.3,0.133,0.566,0.2,0.8,0.2c0.434,0,0.733-0.233,0.9-0.7c0.1-0.267,0.167-0.767,0.2-1.5
				V-11.35z M24.899-9.4l-0.6-0.15c-1.033-0.466-2.134-1.05-3.3-1.75c-1.367-0.8-2.067-1.333-2.1-1.6c-0.2-1.667-0.15-2.7,0.15-3.1
				l0.2-0.1c0.367,0,1.667,0.7,3.9,2.1c0.767,0.533,1.233,0.833,1.4,0.9c0.667,0.3,0.983,0.883,0.95,1.75v0.25
				C25.466-9.967,25.267-9.4,24.899-9.4z"/>
			
				<radialGradient id="SVGID_9_" cx="20.9995" cy="-12.9502" r="1.8125" gradientTransform="matrix(1 0 0 -1 0 -25.9004)" gradientUnits="userSpaceOnUse">
				<stop  offset="0" style="stop-color:#514B39"/>
				<stop  offset="0.8588" style="stop-color:#211E13"/>
			</radialGradient>
			<path style="fill-rule:evenodd;clip-rule:evenodd;fill:url(#SVGID_9_);" d="M22-13.35c0-0.434-0.117-0.784-0.35-1.05
				c-0.2-0.3-0.467-0.45-0.8-0.45c-0.3,0-0.55,0.15-0.75,0.45c-0.233,0.267-0.35,0.617-0.35,1.05c0,0.4,0.117,0.733,0.35,1
				c0.2,0.3,0.45,0.45,0.75,0.45c0.333,0,0.6-0.15,0.8-0.45C21.883-12.617,22-12.95,22-13.35z"/>
			<path style="fill-rule:evenodd;clip-rule:evenodd;fill:#FEFDE7;" d="M25.25-3.1c-0.067-0.4-1.45-1.333-4.15-2.8
				c-2.7-1.5-4.083-2.417-4.15-2.75c-0.067-0.366-0.067-4.517,0-12.45c-0.034-1.7-0.25-2.75-0.65-3.15l0.15,0.6
				c0.1,0.267,0.133,2.267,0.1,6c-0.033,3.634-0.083,6-0.15,7.1c-0.066,1.1-0.133,1.733-0.2,1.9c-0.067,0.2-0.25,0.333-0.55,0.4
				c-0.4,0.1-3.233,0.417-8.5,0.95c-0.8,0.067-2.05,0.25-3.75,0.55L1.1-6.3l7.55-0.8c1.4-0.167,3.017-0.317,4.85-0.45
				s2.9-0.167,3.2-0.1C17-7.617,18.3-7,20.6-5.8C22.033-5.034,23.583-4.134,25.25-3.1z"/>
			<g>
				
					<radialGradient id="SVGID_10_" cx="-344.7949" cy="-401.1665" r="2.9907" gradientTransform="matrix(0.9989 -0.0461 -0.0459 -0.9948 348.6221 -431.8027)" gradientUnits="userSpaceOnUse">
					<stop  offset="0.2157" style="stop-color:#000000;stop-opacity:0.3765"/>
					<stop  offset="0.8667" style="stop-color:#000000;stop-opacity:0"/>
				</radialGradient>
				<path style="fill-rule:evenodd;clip-rule:evenodd;fill:url(#SVGID_10_);" d="M25.25-17.95c-0.4-0.533-1.6-1.383-3.6-2.55
					c-0.9,0.1-1.5,0.466-1.8,1.1c-0.3,0.634-0.15,1.35,0.45,2.15c0.566,0.833,1.417,1.517,2.55,2.05
					c0.967,0.434,1.934,0.65,2.9,0.65l-0.05-1.2c0-0.3-0.017-0.684-0.05-1.15C25.583-17.3,25.45-17.65,25.25-17.95z"/>
				
					<linearGradient id="SVGID_11_" gradientUnits="userSpaceOnUse" x1="242.6724" y1="-16555.1367" x2="245.3734" y2="-16555.1367" gradientTransform="matrix(-0.0278 -0.9996 0.9996 -0.0278 16578.8691 -233.2588)">
					<stop  offset="0" style="stop-color:#B6B391"/>
					<stop  offset="1" style="stop-color:#686755"/>
				</linearGradient>
				<path style="fill-rule:evenodd;clip-rule:evenodd;fill:url(#SVGID_11_);" d="M23.8-14.05c0.4,0.233,0.883,0.284,1.45,0.15
					c0.534-0.1,0.833-0.283,0.9-0.55c0.134-0.733-0.316-1.45-1.35-2.15c-0.533-0.534-0.95-0.967-1.25-1.3
					c-0.6-0.566-1.083-0.85-1.45-0.85c-0.7-0.034-1.167,0.267-1.4,0.9c-0.167,0.533-0.133,1.05,0.1,1.55
					c0.133,0.333,0.583,0.75,1.35,1.25C22.583-14.75,23.133-14.417,23.8-14.05z"/>
				<path style="fill-rule:evenodd;clip-rule:evenodd;fill:#FDF9C9;" d="M25.649-14c0.233-0.1,0.384-0.3,0.45-0.6
					c0.066-0.333-0.033-0.817-0.3-1.45l-0.35-0.65c-1.6-1.434-2.7-2.1-3.3-2c-0.5,0.066-0.816,0.35-0.95,0.85
					c-0.1,0.433-0.034,0.917,0.2,1.45c0.167,0.333,0.667,0.75,1.5,1.25c0.467,0.3,1.05,0.634,1.75,1
					C25.017-13.95,25.35-13.9,25.649-14z"/>
				
					<linearGradient id="SVGID_12_" gradientUnits="userSpaceOnUse" x1="-2821.5967" y1="-11667.165" x2="-2818.3877" y2="-11667.165" gradientTransform="matrix(0.4596 -0.8881 0.8881 0.4596 11681.8584 2841.5234)">
					<stop  offset="0" style="stop-color:#EFEDCA"/>
					<stop  offset="1" style="stop-color:#B2B08F"/>
				</linearGradient>
				<path style="fill-rule:evenodd;clip-rule:evenodd;fill:url(#SVGID_12_);" d="M24.649-14.25c0.367,0.233,0.717,0.3,1.05,0.2
					c0.3-0.066,0.483-0.233,0.55-0.5c0.2-1.066-0.017-1.833-0.65-2.3c-1.1-0.767-1.65-1.167-1.65-1.2
					c-0.867-0.533-1.483-0.767-1.85-0.7c-0.434,0.066-0.684,0.366-0.75,0.9c-0.033,0.4,0.05,0.85,0.25,1.35
					C21.767-16.067,22.783-15.317,24.649-14.25z"/>
			</g>
			<path style="fill-rule:evenodd;clip-rule:evenodd;fill:#A49B75;" d="M20.85-13.4c-0.267-0.1-0.4,0-0.4,0.3
				c0.033,0.333,0.133,0.517,0.3,0.55c0.2,0.034,0.35-0.066,0.45-0.3C21.267-13.117,21.149-13.3,20.85-13.4z"/>
			
				<linearGradient id="SVGID_13_" gradientUnits="userSpaceOnUse" x1="-621.4072" y1="-15648.8008" x2="-617.6702" y2="-15648.8008" gradientTransform="matrix(0.0803 -0.9968 0.9968 0.0803 15672.2588 627.1982)">
				<stop  offset="0" style="stop-color:#6E8DAC"/>
				<stop  offset="1" style="stop-color:#49616B"/>
			</linearGradient>
			<path style="fill-rule:evenodd;clip-rule:evenodd;fill:url(#SVGID_13_);" d="M25.45-11.45c0-0.533-0.117-0.983-0.35-1.35
				c-0.233-0.4-0.517-0.6-0.85-0.6s-0.633,0.2-0.9,0.6C23.116-12.434,23-11.983,23-11.45c0,0.5,0.117,0.934,0.35,1.3
				c0.267,0.4,0.566,0.6,0.9,0.6s0.617-0.2,0.85-0.6C25.333-10.517,25.45-10.95,25.45-11.45z"/>
			
				<linearGradient id="SVGID_14_" gradientUnits="userSpaceOnUse" x1="-790.4688" y1="-15444.6348" x2="-786.3468" y2="-15444.6348" gradientTransform="matrix(0.1031 -0.9947 0.9947 0.1031 15468.4141 796.7295)">
				<stop  offset="0" style="stop-color:#99C5F1"/>
				<stop  offset="1" style="stop-color:#678795"/>
			</linearGradient>
			<path style="fill-rule:evenodd;clip-rule:evenodd;fill:url(#SVGID_14_);" d="M26.05-11.45c0-0.533-0.117-0.983-0.35-1.35
				c-0.267-0.4-0.567-0.6-0.9-0.6c-0.333,0-0.634,0.2-0.9,0.6c-0.233,0.367-0.35,0.817-0.35,1.35c0,0.5,0.116,0.934,0.35,1.3
				c0.267,0.4,0.567,0.6,0.9,0.6c0.333,0,0.633-0.2,0.9-0.6C25.933-10.517,26.05-10.95,26.05-11.45z"/>
			
				<linearGradient id="SVGID_15_" gradientUnits="userSpaceOnUse" x1="-798.3887" y1="-15434.168" x2="-795.2717" y2="-15434.168" gradientTransform="matrix(0.1043 -0.9945 0.9945 0.1043 15457.9287 805.2363)">
				<stop  offset="0" style="stop-color:#81A6CB"/>
				<stop  offset="1" style="stop-color:#546F7A"/>
			</linearGradient>
			<path style="fill-rule:evenodd;clip-rule:evenodd;fill:url(#SVGID_15_);" d="M25.7-11.5c0-0.4-0.083-0.75-0.25-1.05
				c-0.167-0.267-0.383-0.4-0.65-0.4c-0.233,0-0.434,0.133-0.6,0.4c-0.2,0.3-0.3,0.65-0.3,1.05c0,0.4,0.1,0.733,0.3,1
				c0.167,0.3,0.367,0.45,0.6,0.45c0.267,0,0.483-0.15,0.65-0.45C25.616-10.767,25.7-11.1,25.7-11.5z"/>
			<path style="fill-rule:evenodd;clip-rule:evenodd;fill:#ECE5C4;" d="M25.3-11.7c0.167-0.566,0.05-0.633-0.35-0.2
				c-0.5,0.534-0.7,0.884-0.6,1.05C24.416-10.75,24.733-11.034,25.3-11.7z"/>
			<path style="fill-rule:evenodd;clip-rule:evenodd;fill:#ECE5C4;" d="M25.05-10.55l0.2-0.05c0.133-0.2,0.15-0.583,0.05-1.15
				c-0.1-0.534-0.384-0.767-0.85-0.7c-0.034,0.1,0,0.25,0.1,0.45c0.133,0.3,0.2,0.466,0.2,0.5
				C24.816-11.167,24.916-10.85,25.05-10.55z"/>
			<g>
				<path style="fill-rule:evenodd;clip-rule:evenodd;fill:#B6C1B3;" d="M22.85-15.95c-0.1-0.333-0.3-0.517-0.6-0.55
					c-0.3,0-0.5,0.033-0.6,0.1c0.2,0.333,0.65,0.733,1.35,1.2L22.85-15.95z"/>
				<path style="fill-rule:evenodd;clip-rule:evenodd;fill:#B6C1B3;" d="M25.55-14.2c-0.067-0.6-0.3-0.934-0.7-1
					c-0.3-0.066-0.55,0-0.75,0.2l-0.25,0.35l0.8,0.4c0.3,0.167,0.617,0.25,0.95,0.25L25.55-14.2z"/>
				<path style="fill-rule:evenodd;clip-rule:evenodd;fill:#95A293;" d="M24.1-17.05c-0.434-0.1-0.7-0.017-0.8,0.25
					c-0.033,0.133-0.017,0.3,0.05,0.5c0.066,0.233,0.15,0.4,0.25,0.5l0.75,0.1c0.066-0.1,0.133-0.2,0.2-0.3
					c0.066-0.067,0.083-0.2,0.05-0.4C24.6-16.733,24.433-16.95,24.1-17.05z"/>
				<path style="fill-rule:evenodd;clip-rule:evenodd;fill:#95A293;" d="M21.75-17.65c0-0.2-0.067-0.366-0.2-0.5l-0.1-0.05
					c-0.1,0.2-0.117,0.566-0.05,1.1l0.15-0.05C21.683-17.217,21.75-17.384,21.75-17.65z"/>
				<path style="fill-rule:evenodd;clip-rule:evenodd;fill:#95A293;" d="M26.2-14.45l0.05-0.1c0.067-0.333,0.067-0.65,0-0.95
					c-0.133,0.033-0.233,0.133-0.3,0.3c-0.067,0.133-0.067,0.267,0,0.4C25.95-14.634,26.033-14.517,26.2-14.45z"/>
				<path style="fill-rule:evenodd;clip-rule:evenodd;fill:#879385;" d="M23.7-17.95l0.05-0.2c-0.5-0.333-0.983-0.533-1.45-0.6
					l-0.05,0.25c-0.033,0.366,0.167,0.616,0.6,0.75C23.283-17.65,23.566-17.717,23.7-17.95z"/>
				<path style="fill-rule:evenodd;clip-rule:evenodd;fill:#879385;" d="M25.55-16.35c0.2,0.1,0.366,0.1,0.5,0
					c-0.167-0.233-0.317-0.4-0.45-0.5l-0.55-0.4v0.3C25.05-16.684,25.216-16.483,25.55-16.35z"/>
			</g>
			<g>
				<path style="fill-rule:evenodd;clip-rule:evenodd;fill:#AA827A;" d="M22.5-20.45l0.8,0.4l0.8,1c0.8,1.133,1.417,1.35,1.85,0.65
					c0.133-0.167,0.15-0.533,0.05-1.1c-0.1-0.534-0.25-0.867-0.45-1c-0.134-0.1-0.4-0.167-0.8-0.2H24.2
					c-0.067-0.467-0.233-0.75-0.5-0.85c-0.2-0.1-0.4-0.117-0.6-0.05l-0.25,0.1c-0.7-0.833-1.533-1.517-2.5-2.05
					c-0.633-0.367-1.1-0.417-1.4-0.15c-0.267,0.2-0.383,0.5-0.35,0.9c0.033,0.167,0.033,0.417,0,0.75
					c-0.066,0.333-0.083,0.633-0.05,0.9c0.066,0.367,0.75,0.583,2.05,0.65C21.233-20.434,21.866-20.417,22.5-20.45z"/>
				<path style="fill-rule:evenodd;clip-rule:evenodd;fill:#94726B;" d="M22.1-20.9l-0.2-0.05l-0.05,0.25l0.35,0.25h0.3
					c-0.104-0.574-0.22-0.991-0.35-1.25c-0.066-0.133-0.4-0.417-1-0.85c-0.566-0.433-1.017-0.65-1.35-0.65
					c-0.6,0.033-0.867,0.367-0.8,1c0.233-0.033,0.3,0.066,0.2,0.3c-0.1,0.1-0.15,0.25-0.15,0.45l0.05,0.75l0.45,0.1
					c-0.134-0.167-0.15-0.367-0.05-0.6c0.133-0.2,0.317-0.333,0.55-0.4c0-0.034-0.1-0.083-0.3-0.15
					c-0.133-0.067-0.183-0.167-0.15-0.3c0.033-0.1,0.2-0.167,0.5-0.2c0.267-0.034,0.467-0.034,0.6,0
					c0.466,0.033,0.883,0.283,1.25,0.75H21.6C21.6-21.434,21.767-21.233,22.1-20.9z"/>
				<path style="fill-rule:evenodd;clip-rule:evenodd;fill:#94726B;" d="M24.55-20.35c0,0.066,0.066,0.167,0.2,0.3H25
					c-0.097-0.097-0.205-0.147-0.325-0.15c0.318,0.001,0.561,0.051,0.725,0.15L26-19.3c-0.073-0.444-0.172-0.777-0.3-1
					C25.433-20.434,25.05-20.45,24.55-20.35z"/>
				<path style="fill-rule:evenodd;clip-rule:evenodd;fill:#94726B;" d="M22.6-20.4l0.3,0.15c0-0.467,0.117-0.733,0.35-0.8
					c0.3-0.133,0.483-0.083,0.55,0.15c0.066,0.2-0.017,0.517-0.25,0.95c0.066,0.066,0.183,0.1,0.35,0.1
					c0.167,0.1,0.35,0.316,0.55,0.65l-0.25-0.55c0.3,0.1,0.466,0.167,0.5,0.2c0.1,0.067,0.233,0.167,0.4,0.3
					c-0.033-0.2-0.2-0.467-0.5-0.8h0.05l-0.6-0.15c0-0.167,0-0.383,0-0.65c-0.033-0.2-0.184-0.317-0.45-0.35
					C23.267-21.2,22.933-20.934,22.6-20.4z"/>
				<path style="fill-rule:evenodd;clip-rule:evenodd;fill:#614A45;" d="M22.5-20.4h0.1c0.333-0.533,0.667-0.8,1-0.8
					c0.267,0.033,0.417,0.15,0.45,0.35c0,0.267,0,0.483,0,0.65l0.6,0.15L24.8-20l-0.05-0.05c-0.133-0.133-0.2-0.233-0.2-0.3
					c0.5-0.1,0.883-0.083,1.15,0.05l-0.15-0.2c-0.134-0.1-0.4-0.167-0.8-0.2H24.2c-0.067-0.467-0.233-0.75-0.5-0.85
					c-0.2-0.1-0.4-0.117-0.6-0.05l-0.25,0.1c-0.7-0.833-1.533-1.517-2.5-2.05c-0.633-0.367-1.1-0.417-1.4-0.15
					c-0.267,0.2-0.383,0.5-0.35,0.9c0.033,0.167,0.033,0.417,0,0.75c-0.066,0.333-0.083,0.633-0.05,0.9
					c0.033,0.2,0.217,0.35,0.55,0.45l-0.05-0.75c0-0.2,0.05-0.35,0.15-0.45c0.1-0.233,0.033-0.333-0.2-0.3
					c-0.067-0.633,0.2-0.967,0.8-1c0.333,0,0.783,0.217,1.35,0.65c0.6,0.434,0.934,0.717,1,0.85C22.283-21.434,22.399-21,22.5-20.4z
					"/>
				<path style="fill-rule:evenodd;clip-rule:evenodd;fill:#C3958C;" d="M25.95-18.4L26-18.8L25.8-19
					c-0.167-0.167-0.3-0.233-0.4-0.2l-0.05,0.3c-0.1,0-0.233-0.083-0.4-0.25c-0.2-0.167-0.35-0.25-0.45-0.25l-0.05,0.2
					c0,0.167,0.233,0.533,0.7,1.1C25.483-17.967,25.75-18.067,25.95-18.4z"/>
				<path style="fill-rule:evenodd;clip-rule:evenodd;fill:#C3958C;" d="M23.1-20.8c-0.167,0.034-0.217,0.117-0.15,0.25
					c0.1,0.133,0.15,0.25,0.15,0.35v0.05l0.2,0.1l0.2,0.2l0.1-0.6C23.666-20.817,23.5-20.934,23.1-20.8z"/>
				<path style="fill-rule:evenodd;clip-rule:evenodd;fill:#C3958C;" d="M22.2-20.45l-0.35-0.25l-0.05-0.05L21.1-21
					c-0.033-0.067-0.1-0.167-0.2-0.3c-0.133-0.267-0.417-0.367-0.85-0.3c-0.033,0.1,0.033,0.2,0.2,0.3s0.25,0.184,0.25,0.25
					c-0.2-0.033-0.35-0.05-0.45-0.05c-0.2,0-0.333,0.033-0.4,0.1c0.067,0.167,0.417,0.35,1.05,0.55H22.2z"/>
			</g>
		</g>
	</g>
</symbol>
<symbol  id="cubimal_x5F_mc" viewBox="-0.385 -26.614 32.307 25.578">
	<g id="Layer_5_1_">
	</g>
	<g id="Layer_4_2_">
	</g>
	<g id="Layer_2_copy_2_">
	</g>
	<g id="Layer_2_2_">
	</g>
	<g id="Layer_1_9_">
		
			<use xlink:href="#cubimal_x5F_scene1"  width="32.307" height="25.578" x="0.015" y="-26.664" transform="matrix(1 0 0 1 -0.3999 0.0498)" style="overflow:visible;"/>
	</g>
	<g id="Layer_6_1_">
	</g>
</symbol>
<symbol  id="cubimal_x5F_scene1" viewBox="0.015 -26.664 32.307 25.578">
	<g id="Layer_1_8_">
		
			<use xlink:href="#winder_x5F_static"  width="10.185" height="8.474" x="0.015" y="-8.472" transform="matrix(1 0 0 1 0 -7.9502)" style="overflow:visible;"/>
		
			<use xlink:href="#cubimal_1_"  width="25.922" height="25.578" x="0.399" y="-26.664" transform="matrix(1 0 0 1 6 0)" style="overflow:visible;"/>
	</g>
</symbol>
<symbol  id="winder_x5F_static" viewBox="0.015 -8.472 10.185 8.474">
	<g id="Layer_4_1_">
		
			<use xlink:href="#winderedge"  width="4.537" height="8.127" x="0.015" y="-8.126" transform="matrix(1 0 0 1 0.7002 0)" style="overflow:visible;"/>
	</g>
	<g id="Layer_3_1_">
		
			<use xlink:href="#winderfacehighlight"  width="4.573" height="8.174" x="0.016" y="-8.173" transform="matrix(1 0 0 1 0.2002 -0.2002)" style="overflow:visible;"/>
	</g>
	<g id="Layer_2_copy_1_">
		
			<use xlink:href="#winderface1a"  width="4.573" height="8.174" x="0.015" y="-8.172" transform="matrix(1 0 0 1 0 -0.2998)" style="overflow:visible;"/>
	</g>
	<g id="Layer_1_7_">
		<g>
			
				<linearGradient id="SVGID_16_" gradientUnits="userSpaceOnUse" x1="1514.5806" y1="-17621.9609" x2="1515.8999" y2="-17621.9609" gradientTransform="matrix(-0.1705 -0.9854 0.9854 -0.1705 17629.5273 -1517.6323)">
				<stop  offset="0" style="stop-color:#8F8F8F"/>
				<stop  offset="0.2275" style="stop-color:#E8E8E8"/>
				<stop  offset="1" style="stop-color:#696969"/>
			</linearGradient>
			<path style="fill-rule:evenodd;clip-rule:evenodd;fill:url(#SVGID_16_);" d="M10.2-6.3L4.8-5.5C4.5-5.533,4.351-5.366,4.351-5
				c0,0.233,0.083,0.4,0.25,0.5c0.066,0.066,0.133,0.1,0.2,0.1l5.4-0.8V-6.3z"/>
		</g>
	</g>
</symbol>
<symbol  id="winderedge" viewBox="0.015 -8.126 4.537 8.127">
	<g id="Layer_1_4_">
		<g>
			
				<linearGradient id="SVGID_17_" gradientUnits="userSpaceOnUse" x1="5.21" y1="-16351.5176" x2="12.035" y2="-16351.5176" gradientTransform="matrix(1.465202e-004 -1 1 -0.001 16353.8027 -11.1792)">
				<stop  offset="0" style="stop-color:#8F8F8F"/>
				<stop  offset="0.2275" style="stop-color:#E8E8E8"/>
				<stop  offset="1" style="stop-color:#696969"/>
			</linearGradient>
			<path style="fill-rule:evenodd;clip-rule:evenodd;fill:url(#SVGID_17_);" d="M3.5-5.899c0.066,0.6-0.083,0.983-0.45,1.15L2.6-4.7
				C2.367-4.7,2.167-4.733,2-4.8c-0.533-0.167-0.833-0.533-0.9-1.1c-0.034-0.5,0.1-0.85,0.4-1.05c0.434-0.233,0.867-0.233,1.3,0
				C3.2-6.716,3.434-6.366,3.5-5.899z M0.05-1.25c0.1,0.8,0.5,1.216,1.2,1.25c1.367,0.033,2.333-0.633,2.9-2
				c0.5-1.233,0.534-2.05,0.1-2.45c0.434-0.533,0.4-1.333-0.1-2.4c-0.567-1.167-1.533-1.533-2.9-1.1c-0.7,0.233-1.1,0.767-1.2,1.6
				c-0.133,0.867,0.117,1.533,0.75,2L1.25-4L0.8-3.55C0.167-2.85-0.083-2.083,0.05-1.25z M3.5-2.75C3.434-2.25,3.2-1.833,2.8-1.5
				C2.367-1.1,1.934-0.966,1.5-1.1c-0.3-0.133-0.434-0.467-0.4-1C1.167-2.666,1.467-3.116,2-3.45l0.6-0.3L3.05-3.8
				C3.417-3.766,3.566-3.416,3.5-2.75z"/>
		</g>
	</g>
</symbol>
<symbol  id="winderface1a" viewBox="0.015 -8.172 4.573 8.174">
	<g id="Layer_1_2_">
		
			<linearGradient id="SVGID_18_" gradientUnits="userSpaceOnUse" x1="-1922.7412" y1="-13815.2549" x2="-1913.569" y2="-13815.2549" gradientTransform="matrix(0.2726 -0.9621 0.9621 0.2726 13816.877 1916.7178)">
			<stop  offset="0" style="stop-color:#E8E8E8"/>
			<stop  offset="1" style="stop-color:#878787"/>
		</linearGradient>
		<path style="fill-rule:evenodd;clip-rule:evenodd;fill:url(#SVGID_18_);" d="M2.05-4.8c-0.566-0.133-0.867-0.483-0.9-1.05
			c-0.033-0.533,0.1-0.9,0.4-1.1c0.4-0.267,0.817-0.267,1.25,0C3.2-6.717,3.433-6.367,3.5-5.9c0.133,0.633,0,1-0.4,1.1L2.65-4.7
			L2.05-4.8z M0.05-1.25C0.183-0.45,0.6-0.033,1.3,0c1.367,0.033,2.333-0.633,2.9-2c0.5-1.233,0.517-2.05,0.05-2.45
			c0.467-0.5,0.45-1.3-0.05-2.4C3.633-8.05,2.667-8.433,1.3-8C0.6-7.733,0.183-7.183,0.05-6.35c-0.133,0.867,0.117,1.533,0.75,2
			L1.3-4L0.8-3.55C0.167-2.85-0.083-2.083,0.05-1.25z M3.5-2.75C3.433-2.25,3.2-1.833,2.8-1.5C2.367-1.1,1.95-0.967,1.55-1.1
			c-0.3-0.133-0.433-0.467-0.4-1c0.033-0.6,0.333-1.05,0.9-1.35l0.6-0.3L3.1-3.8C3.467-3.767,3.6-3.417,3.5-2.75z"/>
	</g>
</symbol>
<symbol  id="winderfacehighlight" viewBox="0.016 -8.173 4.573 8.174">
	<g id="Layer_1_3_">
		
			<linearGradient id="SVGID_19_" gradientUnits="userSpaceOnUse" x1="-1922.7412" y1="-13815.2549" x2="-1913.569" y2="-13815.2549" gradientTransform="matrix(0.2726 -0.9621 0.9621 0.2726 13816.877 1916.7178)">
			<stop  offset="0" style="stop-color:#E8E8E8"/>
			<stop  offset="1" style="stop-color:#EDEDED"/>
		</linearGradient>
		<path style="fill-rule:evenodd;clip-rule:evenodd;fill:url(#SVGID_19_);" d="M2.05-4.8c-0.567-0.133-0.867-0.483-0.9-1.05
			c-0.033-0.533,0.1-0.9,0.4-1.1c0.4-0.267,0.817-0.267,1.25,0C3.2-6.717,3.434-6.367,3.5-5.9c0.1,0.6-0.034,0.967-0.4,1.1L2.65-4.7
			L2.05-4.8z M0.05-1.25C0.184-0.45,0.601-0.034,1.3,0c1.367,0.034,2.333-0.633,2.9-2c0.5-1.233,0.517-2.05,0.05-2.45
			c0.466-0.5,0.45-1.3-0.05-2.4C3.634-8.05,2.667-8.434,1.3-8c-0.7,0.267-1.117,0.817-1.25,1.65c-0.133,0.867,0.117,1.534,0.75,2
			L1.3-4L0.8-3.55C0.167-2.851-0.083-2.084,0.05-1.25z M1.55-1.101c-0.3-0.133-0.433-0.466-0.4-1c0.033-0.6,0.333-1.05,0.9-1.35
			l0.6-0.3l0.45-0.05c0.366,0.033,0.5,0.383,0.4,1.05C3.434-2.25,3.2-1.834,2.8-1.5C2.367-1.101,1.95-0.967,1.55-1.101z"/>
	</g>
</symbol>
<use xlink:href="#cubimal_x5F_mc"  width="32.307" height="25.578" id="cubimal" x="-0.385" y="-26.614" transform="matrix(1 0 0 -1 0.3999 -1.0498)" style="overflow:visible;"/>
</svg>
