<?xml version="1.0" encoding="iso-8859-1"?>
<!-- Generator: Adobe Illustrator 15.1.0, SVG Export Plug-In . SVG Version: 6.00 Build 0)  -->
<!DOCTYPE svg PUBLIC "-//W3C//DTD SVG 1.1//EN" "http://www.w3.org/Graphics/SVG/1.1/DTD/svg11.dtd">
<svg version="1.1" id="flash0.ai" xmlns="http://www.w3.org/2000/svg" xmlns:xlink="http://www.w3.org/1999/xlink" x="0px" y="0px"
	 width="32.05px" height="23.15px" viewBox="0 0 32.05 23.15" style="enable-background:new 0 0 32.05 23.15;" xml:space="preserve"
	>
<symbol  id="cubimal_1_" viewBox="0.25 -23.7 25.8 23.165">
	<g id="Layer_1_5_">
		<g>
			<g>
				
					<linearGradient id="SVGID_1_" gradientUnits="userSpaceOnUse" x1="-2110.5908" y1="-13443.0361" x2="-2091.4424" y2="-13443.0361" gradientTransform="matrix(0.3068 -0.9518 0.9518 0.3068 13452.9844 2111.3945)">
					<stop  offset="0" style="stop-color:#CECCCD"/>
					<stop  offset="1" style="stop-color:#828282"/>
				</linearGradient>
				<path style="fill-rule:evenodd;clip-rule:evenodd;fill:url(#SVGID_1_);" d="M22.45-1.75c1.133,0,1.983-0.216,2.55-0.65
					c0.366-0.333,0.633-0.8,0.8-1.4c0.167-0.534,0.25-4.383,0.25-11.55v-1.45c-0.033-0.5-0.184-0.95-0.45-1.35
					c-0.267-0.434-1.167-1.184-2.7-2.25c-1.367-0.967-2.35-1.6-2.95-1.9c-0.7-0.4-1.45-0.733-2.25-1c-0.7-0.267-1.216-0.4-1.55-0.4
					c-2.4,0.3-4.25,0.45-5.55,0.45c-0.767,0.034-2.217,0.2-4.35,0.5c-2.134,0.3-3.4,0.483-3.8,0.55
					c-0.667,0.133-1.133,0.433-1.4,0.9c-0.333,0.667-0.517,2.017-0.55,4.05c-0.167,3.233-0.25,5.6-0.25,7.1
					C0.283-7.484,0.667-5.9,1.4-5.4C2.366-4.734,3.9-3.834,6-2.7c2.533,1.4,4.167,2.116,4.9,2.15c0.9,0.033,2.833-0.15,5.8-0.55
					C19.8-1.534,21.717-1.75,22.45-1.75z"/>
				
					<linearGradient id="SVGID_2_" gradientUnits="userSpaceOnUse" x1="-2373.335" y1="-12877.7461" x2="-2356.3372" y2="-12877.7461" gradientTransform="matrix(0.3574 -0.934 0.934 0.3574 12893.6006 2379.5264)">
					<stop  offset="0" style="stop-color:#9B999B"/>
					<stop  offset="1" style="stop-color:#545454"/>
				</linearGradient>
				<path style="fill-rule:evenodd;clip-rule:evenodd;fill:url(#SVGID_2_);" d="M26-6.4c0.033-1.066,0.05-4.05,0.05-8.95v-1.45
					c-0.033-0.5-0.184-0.95-0.45-1.35c-0.267-0.434-1.167-1.184-2.7-2.25c-1.367-0.967-2.35-1.6-2.95-1.9
					c-0.3-0.167-0.933-0.434-1.9-0.8c-0.967-0.366-1.6-0.566-1.9-0.6c0.333,0.667,0.483,1.383,0.45,2.15l-0.1,14l0.1,0.15
					c0.167,0.167,1.083,0.667,2.75,1.5c1.8,0.867,2.967,1.483,3.5,1.85c1.4,0.9,2.15,1.4,2.25,1.5c0.367-0.367,0.6-0.784,0.7-1.25
					C25.866-4,25.933-4.867,26-6.4z"/>
				<linearGradient id="SVGID_3_" gradientUnits="userSpaceOnUse" x1="0.8999" y1="-3.9678" x2="25.0996" y2="-3.9678">
					<stop  offset="0" style="stop-color:#EAE7E9"/>
					<stop  offset="1" style="stop-color:#BDBDBD"/>
				</linearGradient>
				<path style="fill-rule:evenodd;clip-rule:evenodd;fill:url(#SVGID_3_);" d="M22.45-1.75c1.433-0.2,2.317-0.466,2.65-0.8
					c-0.433-0.434-0.933-0.833-1.5-1.2c-0.5-0.3-1.8-0.966-3.9-2c-1.867-0.9-2.9-1.45-3.1-1.65c-0.866,0.066-3.767,0.367-8.7,0.9
					c-3.733,0.4-6.067,0.567-7,0.5c0.167,0.267,0.333,0.467,0.5,0.6C2.366-4.734,3.9-3.834,6-2.7c2.533,1.4,4.167,2.116,4.9,2.15
					C13.167-0.45,17.017-0.851,22.45-1.75z"/>
			</g>
			<g>
				
					<linearGradient id="SVGID_4_" gradientUnits="userSpaceOnUse" x1="17073.9102" y1="-811.5596" x2="17077.9023" y2="-811.5596" gradientTransform="matrix(-0.0939 0.9956 -0.9956 -0.0939 800.0713 -17088.1445)">
					<stop  offset="0" style="stop-color:#DDDADC"/>
					<stop  offset="1" style="stop-color:#858585"/>
				</linearGradient>
				<path style="fill-rule:evenodd;clip-rule:evenodd;fill:url(#SVGID_4_);" d="M5.65-11.45c0-0.567-0.133-1.067-0.4-1.5
					c-0.3-0.434-0.65-0.65-1.05-0.65s-0.733,0.217-1,0.65c-0.267,0.4-0.4,0.9-0.4,1.5c0,0.6,0.133,1.116,0.4,1.55
					c0.267,0.434,0.6,0.65,1,0.65S4.95-9.467,5.25-9.9C5.517-10.334,5.65-10.851,5.65-11.45z"/>
				
					<linearGradient id="SVGID_5_" gradientUnits="userSpaceOnUse" x1="17051.127" y1="-797.5908" x2="17056.0469" y2="-797.5908" gradientTransform="matrix(-0.0915 0.9958 -0.9958 -0.0915 777.9893 -17069.8145)">
					<stop  offset="0" style="stop-color:#DDDADC"/>
					<stop  offset="1" style="stop-color:#858585"/>
				</linearGradient>
				<path style="fill-rule:evenodd;clip-rule:evenodd;fill:url(#SVGID_5_);" d="M14.45-14.7c0-0.767-0.167-1.4-0.5-1.9
					c-0.367-0.533-0.8-0.8-1.3-0.8s-0.917,0.267-1.25,0.8c-0.367,0.5-0.55,1.134-0.55,1.9c0,0.733,0.184,1.366,0.55,1.9
					c0.333,0.5,0.75,0.75,1.25,0.75s0.933-0.25,1.3-0.75C14.283-13.334,14.45-13.967,14.45-14.7z"/>
				
					<linearGradient id="SVGID_6_" gradientUnits="userSpaceOnUse" x1="17075.4922" y1="-822.9087" x2="17078.9082" y2="-822.9087" gradientTransform="matrix(-0.0952 0.9955 -0.9955 -0.0952 811.1006 -17097.2656)">
					<stop  offset="0" style="stop-color:#DDDADC"/>
					<stop  offset="1" style="stop-color:#858585"/>
				</linearGradient>
				<path style="fill-rule:evenodd;clip-rule:evenodd;fill:url(#SVGID_6_);" d="M6.55-19.2c0-0.534-0.133-0.983-0.4-1.35
					c-0.233-0.367-0.517-0.55-0.85-0.55s-0.633,0.184-0.9,0.55c-0.233,0.367-0.35,0.816-0.35,1.35c0,0.533,0.117,0.966,0.35,1.3
					c0.233,0.367,0.533,0.55,0.9,0.55c0.333,0,0.617-0.183,0.85-0.55C6.417-18.267,6.55-18.7,6.55-19.2z"/>
				
					<linearGradient id="SVGID_7_" gradientUnits="userSpaceOnUse" x1="17092.2266" y1="-850.5337" x2="17096.1191" y2="-850.5337" gradientTransform="matrix(-0.0963 0.9954 -0.9954 -0.0963 821.5835 -17105.9141)">
					<stop  offset="0" style="stop-color:#A7A5A7"/>
					<stop  offset="1" style="stop-color:#737373"/>
				</linearGradient>
				<path style="fill-rule:evenodd;clip-rule:evenodd;fill:url(#SVGID_7_);" d="M22.75-9.25c0-0.566-0.117-1.066-0.35-1.5
					c-0.2-0.4-0.467-0.6-0.8-0.6c-0.333,0-0.616,0.2-0.85,0.6c-0.233,0.434-0.35,0.934-0.35,1.5c0,0.567,0.117,1.067,0.35,1.5
					c0.233,0.434,0.517,0.65,0.85,0.65c0.333,0,0.6-0.216,0.8-0.65C22.633-8.184,22.75-8.684,22.75-9.25z"/>
				
					<linearGradient id="SVGID_8_" gradientUnits="userSpaceOnUse" x1="17043.0977" y1="-801.0713" x2="17045.8594" y2="-801.0713" gradientTransform="matrix(-0.0905 0.9959 -0.9959 -0.0905 769.8125 -17063.0059)">
					<stop  offset="0" style="stop-color:#777677"/>
					<stop  offset="1" style="stop-color:#5C5C5C"/>
				</linearGradient>
				<path style="fill-rule:evenodd;clip-rule:evenodd;fill:url(#SVGID_8_);" d="M25.05-15.95c0-1-0.2-1.5-0.6-1.5
					c-0.167,0-0.3,0.15-0.4,0.45c-0.133,0.3-0.2,0.65-0.2,1.05c0,0.4,0.067,0.75,0.2,1.05c0.1,0.3,0.233,0.45,0.4,0.45
					C24.85-14.45,25.05-14.95,25.05-15.95z"/>
				
					<linearGradient id="SVGID_9_" gradientUnits="userSpaceOnUse" x1="17080.3594" y1="-844.6953" x2="17083.2227" y2="-844.6953" gradientTransform="matrix(-0.096 0.9954 -0.9954 -0.096 819.0825 -17103.8516)">
					<stop  offset="0" style="stop-color:#777677"/>
					<stop  offset="1" style="stop-color:#5C5C5C"/>
				</linearGradient>
				<path style="fill-rule:evenodd;clip-rule:evenodd;fill:url(#SVGID_9_);" d="M20.4-19.9c0-0.434-0.117-0.8-0.35-1.1
					c-0.2-0.3-0.467-0.45-0.8-0.45c-0.3,0-0.567,0.15-0.8,0.45c-0.233,0.3-0.35,0.667-0.35,1.1s0.117,0.8,0.35,1.1
					c0.233,0.3,0.5,0.45,0.8,0.45c0.333,0,0.6-0.15,0.8-0.45C20.283-19.101,20.4-19.467,20.4-19.9z"/>
				
					<linearGradient id="SVGID_10_" gradientUnits="userSpaceOnUse" x1="19488.4512" y1="-10526.7061" x2="19493.6855" y2="-10526.7061" gradientTransform="matrix(-0.8357 0.5492 -0.5492 -0.8357 10516.4531 -19506.1504)">
					<stop  offset="0" style="stop-color:#FBF8FA"/>
					<stop  offset="1" style="stop-color:#BABABA"/>
				</linearGradient>
				<path style="fill-rule:evenodd;clip-rule:evenodd;fill:url(#SVGID_10_);" d="M10.8-4.55c0-0.233-0.25-0.417-0.75-0.55
					c-0.5-0.167-1.117-0.25-1.85-0.25c-0.7,0-1.3,0.083-1.8,0.25C5.9-4.967,5.65-4.784,5.65-4.55S5.9-4.134,6.4-4
					c0.5,0.167,1.1,0.25,1.8,0.25c0.733,0,1.35-0.083,1.85-0.25C10.55-4.134,10.8-4.317,10.8-4.55z"/>
				
					<linearGradient id="SVGID_11_" gradientUnits="userSpaceOnUse" x1="19480.4844" y1="-10534.1631" x2="19485.7188" y2="-10534.1631" gradientTransform="matrix(-0.8357 0.5492 -0.5492 -0.8357 10516.4531 -19506.1504)">
					<stop  offset="0" style="stop-color:#FBF8FA"/>
					<stop  offset="1" style="stop-color:#BABABA"/>
				</linearGradient>
				<path style="fill-rule:evenodd;clip-rule:evenodd;fill:url(#SVGID_11_);" d="M21.55-2.7c0-0.233-0.25-0.417-0.75-0.55
					c-0.5-0.167-1.117-0.25-1.85-0.25c-0.7,0-1.3,0.083-1.8,0.25c-0.5,0.133-0.75,0.317-0.75,0.55s0.25,0.433,0.75,0.6
					c0.5,0.167,1.1,0.25,1.8,0.25c0.733,0,1.35-0.083,1.85-0.25C21.3-2.267,21.55-2.467,21.55-2.7z"/>
			</g>
			<g>
				<g>
					<path style="fill-rule:evenodd;clip-rule:evenodd;fill:#4A4A4A;" d="M19.55-14.8c0-0.5-0.1-0.917-0.3-1.25
						c-0.233-0.333-0.5-0.5-0.8-0.5c-0.3,0-0.55,0.167-0.75,0.5c-0.233,0.333-0.35,0.75-0.35,1.25c0,0.466,0.117,0.867,0.35,1.2
						c0.2,0.333,0.45,0.5,0.75,0.5c0.3,0,0.567-0.167,0.8-0.5C19.45-13.934,19.55-14.334,19.55-14.8z"/>
					
						<linearGradient id="SVGID_12_" gradientUnits="userSpaceOnUse" x1="507.2422" y1="-16807.0078" x2="510.1974" y2="-16807.0078" gradientTransform="matrix(-0.0592 -0.9982 0.9982 -0.0592 16825.8086 -502.75)">
						<stop  offset="0" style="stop-color:#5F4E29"/>
						<stop  offset="0.8588" style="stop-color:#271D09"/>
					</linearGradient>
					<path style="fill-rule:evenodd;clip-rule:evenodd;fill:url(#SVGID_12_);" d="M19.1-14.851c0-0.366-0.083-0.667-0.25-0.9
						c-0.167-0.233-0.383-0.35-0.65-0.35c-0.233,0-0.45,0.117-0.65,0.35c-0.167,0.233-0.25,0.534-0.25,0.9
						c0,0.367,0.083,0.684,0.25,0.95c0.167,0.233,0.383,0.35,0.65,0.35c0.267,0,0.483-0.117,0.65-0.35
						C19.017-14.167,19.1-14.484,19.1-14.851z"/>
				</g>
				<g>
					<path style="fill-rule:evenodd;clip-rule:evenodd;fill:#4A4A4A;" d="M26-10.95c0-0.434-0.067-0.817-0.2-1.15
						c-0.167-0.333-0.35-0.5-0.55-0.5c-0.2,0-0.367,0.167-0.5,0.5c-0.134,0.3-0.2,0.684-0.2,1.15c0,1.066,0.233,1.6,0.7,1.6
						c0.2,0,0.383-0.15,0.55-0.45C25.933-10.134,26-10.517,26-10.95z"/>
					
						<linearGradient id="SVGID_13_" gradientUnits="userSpaceOnUse" x1="540.1602" y1="-16833.2461" x2="542.9157" y2="-16833.2461" gradientTransform="matrix(-0.0635 -0.998 0.998 -0.0635 16858.7285 -539.9995)">
						<stop  offset="0" style="stop-color:#5F4E29"/>
						<stop  offset="0.8588" style="stop-color:#271D09"/>
					</linearGradient>
					<path style="fill-rule:evenodd;clip-rule:evenodd;fill:url(#SVGID_13_);" d="M25.7-10.95c0-0.8-0.2-1.2-0.6-1.2
						c-0.4,0-0.6,0.4-0.6,1.2c0,0.8,0.2,1.2,0.6,1.2C25.5-9.75,25.7-10.15,25.7-10.95z"/>
				</g>
			</g>
			<g>
				<path style="fill-rule:evenodd;clip-rule:evenodd;fill:#E3E2E3;" d="M21-5.351c-2.7-1.5-4.083-2.417-4.15-2.75
					c-0.066-0.366-0.066-4.517,0-12.45c-0.033-1.7-0.267-2.75-0.7-3.15l0.2,0.6c0.1,0.267,0.134,2.267,0.1,6
					c-0.033,3.434-0.083,5.8-0.15,7.1c-0.066,1.1-0.133,1.733-0.2,1.9c-0.066,0.2-0.25,0.333-0.55,0.4
					c-0.4,0.1-3.233,0.417-8.5,0.95l-6.1,1l7.6-0.8C9.917-6.717,11.533-6.867,13.4-7c1.833-0.133,2.883-0.167,3.15-0.1
					c0.333,0.034,1.633,0.65,3.9,1.85c1.467,0.767,3.017,1.667,4.65,2.7C25.033-2.95,23.667-3.884,21-5.351z"/>
			</g>
		</g>
	</g>
</symbol>
<symbol  id="cubimal_x5F_mc" viewBox="-0.385 -23.65 32.035 23.165">
	<g id="Layer_5_1_">
	</g>
	<g id="Layer_4_2_">
	</g>
	<g id="Layer_2_copy_2_">
	</g>
	<g id="Layer_2_2_">
	</g>
	<g id="Layer_1_9_">
		
			<use xlink:href="#cubimal_x5F_scene1"  width="32.035" height="23.165" x="0.015" y="-23.7" transform="matrix(1 0 0 1 -0.3999 0.0498)" style="overflow:visible;"/>
	</g>
	<g id="Layer_6_1_">
	</g>
</symbol>
<symbol  id="cubimal_x5F_scene1" viewBox="0.015 -23.7 32.035 23.165">
	<g id="Layer_1_8_">
		
			<use xlink:href="#winder_x5F_static"  width="10.185" height="8.474" x="0.015" y="-8.472" transform="matrix(1 0 0 1 0 -7.9502)" style="overflow:visible;"/>
		
			<use xlink:href="#cubimal_1_"  width="25.8" height="23.165" x="0.25" y="-23.7" transform="matrix(1 0 0 1 6 0)" style="overflow:visible;"/>
	</g>
</symbol>
<symbol  id="winder_x5F_static" viewBox="0.015 -8.472 10.185 8.474">
	<g id="Layer_4_1_">
		
			<use xlink:href="#winderedge"  width="4.537" height="8.127" x="0.015" y="-8.126" transform="matrix(1 0 0 1 0.7002 0)" style="overflow:visible;"/>
	</g>
	<g id="Layer_3_1_">
		
			<use xlink:href="#winderfacehighlight"  width="4.573" height="8.174" x="0.016" y="-8.173" transform="matrix(1 0 0 1 0.2002 -0.2002)" style="overflow:visible;"/>
	</g>
	<g id="Layer_2_copy_1_">
		
			<use xlink:href="#winderface1a"  width="4.573" height="8.174" x="0.015" y="-8.172" transform="matrix(1 0 0 1 0 -0.2998)" style="overflow:visible;"/>
	</g>
	<g id="Layer_1_7_">
		<g>
			
				<linearGradient id="SVGID_14_" gradientUnits="userSpaceOnUse" x1="1513.5952" y1="-17623.1289" x2="1514.9146" y2="-17623.1289" gradientTransform="matrix(-0.1705 -0.9854 0.9854 -0.1705 17630.5117 -1518.8027)">
				<stop  offset="0" style="stop-color:#8F8F8F"/>
				<stop  offset="0.2275" style="stop-color:#E8E8E8"/>
				<stop  offset="1" style="stop-color:#696969"/>
			</linearGradient>
			<path style="fill-rule:evenodd;clip-rule:evenodd;fill:url(#SVGID_14_);" d="M10.2-6.3L4.8-5.5C4.5-5.533,4.351-5.366,4.351-5
				c0,0.233,0.083,0.4,0.25,0.5c0.066,0.066,0.133,0.1,0.2,0.1l5.4-0.8V-6.3z"/>
		</g>
	</g>
</symbol>
<symbol  id="winderedge" viewBox="0.015 -8.126 4.537 8.127">
	<g id="Layer_1_4_">
		<g>
			
				<linearGradient id="SVGID_15_" gradientUnits="userSpaceOnUse" x1="4.21" y1="-16352.5176" x2="11.035" y2="-16352.5176" gradientTransform="matrix(1.465202e-004 -1 1 -0.001 16354.8027 -12.1802)">
				<stop  offset="0" style="stop-color:#8F8F8F"/>
				<stop  offset="0.2275" style="stop-color:#E8E8E8"/>
				<stop  offset="1" style="stop-color:#696969"/>
			</linearGradient>
			<path style="fill-rule:evenodd;clip-rule:evenodd;fill:url(#SVGID_15_);" d="M3.5-5.899c0.066,0.6-0.083,0.983-0.45,1.15L2.6-4.7
				C2.367-4.7,2.167-4.733,2-4.8c-0.533-0.167-0.833-0.533-0.9-1.1c-0.034-0.5,0.1-0.85,0.4-1.05c0.434-0.233,0.867-0.233,1.3,0
				C3.2-6.716,3.434-6.366,3.5-5.899z M0.05-1.25c0.1,0.8,0.5,1.216,1.2,1.25c1.367,0.033,2.333-0.633,2.9-2
				c0.5-1.233,0.534-2.05,0.1-2.45c0.434-0.533,0.4-1.333-0.1-2.4c-0.567-1.167-1.533-1.533-2.9-1.1c-0.7,0.233-1.1,0.767-1.2,1.6
				c-0.133,0.867,0.117,1.533,0.75,2L1.25-4L0.8-3.55C0.167-2.85-0.083-2.083,0.05-1.25z M3.5-2.75C3.434-2.25,3.2-1.833,2.8-1.5
				C2.367-1.1,1.934-0.966,1.5-1.1c-0.3-0.133-0.434-0.467-0.4-1C1.167-2.666,1.467-3.116,2-3.45l0.6-0.3L3.05-3.8
				C3.417-3.766,3.566-3.416,3.5-2.75z"/>
		</g>
	</g>
</symbol>
<symbol  id="winderface1a" viewBox="0.015 -8.172 4.573 8.174">
	<g id="Layer_1_2_">
		
			<linearGradient id="SVGID_16_" gradientUnits="userSpaceOnUse" x1="-1923.7041" y1="-13815.9824" x2="-1914.5319" y2="-13815.9824" gradientTransform="matrix(0.2726 -0.9621 0.9621 0.2726 13817.8389 1915.9902)">
			<stop  offset="0" style="stop-color:#E8E8E8"/>
			<stop  offset="1" style="stop-color:#878787"/>
		</linearGradient>
		<path style="fill-rule:evenodd;clip-rule:evenodd;fill:url(#SVGID_16_);" d="M2.05-4.8c-0.566-0.133-0.867-0.483-0.9-1.05
			c-0.033-0.533,0.1-0.9,0.4-1.1c0.4-0.267,0.817-0.267,1.25,0C3.2-6.717,3.433-6.367,3.5-5.9c0.133,0.633,0,1-0.4,1.1L2.65-4.7
			L2.05-4.8z M0.05-1.25C0.183-0.45,0.6-0.033,1.3,0c1.367,0.033,2.333-0.633,2.9-2c0.5-1.233,0.517-2.05,0.05-2.45
			c0.467-0.5,0.45-1.3-0.05-2.4C3.633-8.05,2.667-8.433,1.3-8C0.6-7.733,0.183-7.183,0.05-6.35c-0.133,0.867,0.117,1.533,0.75,2
			L1.3-4L0.8-3.55C0.167-2.85-0.083-2.083,0.05-1.25z M3.5-2.75C3.433-2.25,3.2-1.833,2.8-1.5C2.367-1.1,1.95-0.967,1.55-1.1
			c-0.3-0.133-0.433-0.467-0.4-1c0.033-0.6,0.333-1.05,0.9-1.35l0.6-0.3L3.1-3.8C3.467-3.767,3.6-3.417,3.5-2.75z"/>
	</g>
</symbol>
<symbol  id="winderfacehighlight" viewBox="0.016 -8.173 4.573 8.174">
	<g id="Layer_1_3_">
		
			<linearGradient id="SVGID_17_" gradientUnits="userSpaceOnUse" x1="-1923.7031" y1="-13815.9824" x2="-1914.5309" y2="-13815.9824" gradientTransform="matrix(0.2726 -0.9621 0.9621 0.2726 13817.8389 1915.9902)">
			<stop  offset="0" style="stop-color:#E8E8E8"/>
			<stop  offset="1" style="stop-color:#EDEDED"/>
		</linearGradient>
		<path style="fill-rule:evenodd;clip-rule:evenodd;fill:url(#SVGID_17_);" d="M2.05-4.8c-0.567-0.133-0.867-0.483-0.9-1.05
			c-0.033-0.533,0.1-0.9,0.4-1.1c0.4-0.267,0.817-0.267,1.25,0C3.2-6.717,3.434-6.367,3.5-5.9c0.1,0.6-0.034,0.967-0.4,1.1L2.65-4.7
			L2.05-4.8z M0.05-1.25C0.184-0.45,0.601-0.034,1.3,0c1.367,0.034,2.333-0.633,2.9-2c0.5-1.233,0.517-2.05,0.05-2.45
			c0.466-0.5,0.45-1.3-0.05-2.4C3.634-8.05,2.667-8.434,1.3-8c-0.7,0.267-1.117,0.817-1.25,1.65c-0.133,0.867,0.117,1.534,0.75,2
			L1.3-4L0.8-3.55C0.167-2.851-0.083-2.084,0.05-1.25z M1.55-1.101c-0.3-0.133-0.433-0.466-0.4-1c0.033-0.6,0.333-1.05,0.9-1.35
			l0.6-0.3l0.45-0.05c0.366,0.033,0.5,0.383,0.4,1.05C3.434-2.25,3.2-1.834,2.8-1.5C2.367-1.101,1.95-0.967,1.55-1.101z"/>
	</g>
</symbol>
<use xlink:href="#cubimal_x5F_mc"  width="32.035" height="23.165" id="cubimal" x="-0.385" y="-23.65" transform="matrix(1 0 0 -1 0.3999 -0.5)" style="overflow:visible;"/>
</svg>
