<?xml version="1.0" encoding="iso-8859-1"?>
<!-- Generator: Adobe Illustrator 15.1.0, SVG Export Plug-In . SVG Version: 6.00 Build 0)  -->
<!DOCTYPE svg PUBLIC "-//W3C//DTD SVG 1.1//EN" "http://www.w3.org/Graphics/SVG/1.1/DTD/svg11.dtd">
<svg version="1.1" id="flash0.ai" xmlns="http://www.w3.org/2000/svg" xmlns:xlink="http://www.w3.org/1999/xlink" x="0px" y="0px"
	 width="32.95px" height="26.9px" viewBox="0 0 32.95 26.9" style="enable-background:new 0 0 32.95 26.9;" xml:space="preserve">
<symbol  id="cubimal_1_" viewBox="0.4 -26.614 26.552 26.914">
	<g id="Layer_1_5_">
		<g>
			
				<linearGradient id="SVGID_1_" gradientUnits="userSpaceOnUse" x1="360.8862" y1="319.0996" x2="362.6378" y2="319.0996" gradientTransform="matrix(0.9991 0.0428 -0.0428 0.9991 -342.665 -357.5791)">
				<stop  offset="0" style="stop-color:#5F4E29"/>
				<stop  offset="0.9373" style="stop-color:#3A2B0E"/>
			</linearGradient>
			<path style="fill-rule:evenodd;clip-rule:evenodd;fill:url(#SVGID_1_);" d="M3.2-21l4.65-0.35c-0.733-3-1.433-4.417-2.1-4.25
				C4.95-25.4,4.1-23.867,3.2-21z"/>
			
				<linearGradient id="SVGID_2_" gradientUnits="userSpaceOnUse" x1="370.1348" y1="317.7012" x2="371.8864" y2="317.7012" gradientTransform="matrix(0.9991 0.0428 -0.0428 0.9991 -342.665 -357.5791)">
				<stop  offset="0" style="stop-color:#5F4E29"/>
				<stop  offset="0.9373" style="stop-color:#3A2B0E"/>
			</linearGradient>
			<path style="fill-rule:evenodd;clip-rule:evenodd;fill:url(#SVGID_2_);" d="M12.5-22l4.7-0.35c-0.4-1.5-0.684-2.45-0.85-2.85
				c-0.4-1.034-0.817-1.5-1.25-1.4C14.267-26.4,13.4-24.867,12.5-22z"/>
			
				<linearGradient id="SVGID_3_" gradientUnits="userSpaceOnUse" x1="377.9902" y1="321.2188" x2="379.7419" y2="321.2188" gradientTransform="matrix(0.9991 0.0428 -0.0428 0.9991 -342.665 -357.5791)">
				<stop  offset="0" style="stop-color:#5F4E29"/>
				<stop  offset="0.9373" style="stop-color:#3A2B0E"/>
			</linearGradient>
			<path style="fill-rule:evenodd;clip-rule:evenodd;fill:url(#SVGID_3_);" d="M20.2-18.15l4.65-0.35c-0.733-3-1.433-4.417-2.1-4.25
				C21.95-22.55,21.1-21.017,20.2-18.15z"/>
			
				<linearGradient id="SVGID_4_" gradientUnits="userSpaceOnUse" x1="-2108.166" y1="-13441.6699" x2="-2089.0176" y2="-13441.6699" gradientTransform="matrix(0.3068 -0.9518 0.9518 0.3068 13451.0811 2112.7813)">
				<stop  offset="0" style="stop-color:#C37D27"/>
				<stop  offset="1" style="stop-color:#A6671A"/>
			</linearGradient>
			<path style="fill-rule:evenodd;clip-rule:evenodd;fill:url(#SVGID_4_);" d="M11-1.05c0.934,0.033,2.867-0.15,5.8-0.55
				c3.134-0.433,5.067-0.65,5.8-0.65c1.1,0,1.933-0.216,2.5-0.65c0.367-0.3,0.65-0.767,0.85-1.4c0.1-0.434,0.167-2.333,0.2-5.7
				c0.034-3.066,0.034-5.017,0-5.85c0-0.366,0-0.85,0-1.45c-0.033-0.5-0.183-0.95-0.45-1.35c-0.267-0.434-1.167-1.184-2.7-2.25
				c-1.333-0.967-2.3-1.6-2.9-1.9c-1.7-0.934-2.967-1.4-3.8-1.4c-2.433,0.3-4.3,0.45-5.6,0.45c-0.767,0.034-2.217,0.2-4.35,0.5
				C4.25-22.95,3-22.767,2.6-22.7c-0.7,0.1-1.167,0.4-1.4,0.9c-0.367,0.667-0.567,2.017-0.6,4.05c-0.133,3.233-0.2,5.6-0.2,7.1
				C0.434-7.984,0.8-6.4,1.5-5.9C2.467-5.234,4-4.334,6.1-3.2C8.633-1.8,10.267-1.084,11-1.05z"/>
			
				<linearGradient id="SVGID_5_" gradientUnits="userSpaceOnUse" x1="-2370.9639" y1="-12876.5127" x2="-2353.9661" y2="-12876.5127" gradientTransform="matrix(0.3574 -0.934 0.934 0.3574 12891.7334 2380.8115)">
				<stop  offset="0" style="stop-color:#B6711C"/>
				<stop  offset="1" style="stop-color:#8B5615"/>
			</linearGradient>
			<path style="fill-rule:evenodd;clip-rule:evenodd;fill:url(#SVGID_5_);" d="M25.95-4.3l0.15-2.6
				c0.133-4.333,0.15-7.316,0.05-8.95c0-0.366,0-0.85,0-1.45c-0.033-0.5-0.183-0.95-0.45-1.35c-0.267-0.434-1.167-1.184-2.7-2.25
				c-1.333-0.967-2.3-1.6-2.9-1.9c-0.267-0.167-0.9-0.434-1.9-0.8c-1-0.366-1.634-0.566-1.9-0.6c0.3,0.6,0.45,1.316,0.45,2.15
				l-0.1,14l0.1,0.15c0.167,0.2,1.066,0.7,2.7,1.5C21.316-5.5,22.5-4.884,23-4.55c0.434,0.3,1.184,0.8,2.25,1.5
				C25.55-3.384,25.783-3.8,25.95-4.3z"/>
			
				<linearGradient id="SVGID_6_" gradientUnits="userSpaceOnUse" x1="-1026.0273" y1="-15136.8809" x2="-1021.1058" y2="-15136.8809" gradientTransform="matrix(0.1372 -0.9905 0.9905 0.1372 15155.3535 1042.373)">
				<stop  offset="0" style="stop-color:#ADA492"/>
				<stop  offset="1" style="stop-color:#878170"/>
			</linearGradient>
			<path style="fill-rule:evenodd;clip-rule:evenodd;fill:url(#SVGID_6_);" d="M19.5-19l0.65,1.25l1.55,2.4L25.35-16l0.8-1.1
				c0-0.566-0.15-1.083-0.45-1.55c-0.267-0.434-1.167-1.184-2.7-2.25c-1.333-0.967-2.3-1.6-2.9-1.9
				c-0.267-0.167-0.883-0.417-1.85-0.75c-0.934-0.367-1.566-0.583-1.9-0.65c0.2,0.7,0.617,1.483,1.25,2.35
				c0.333,0.4,0.633,0.75,0.9,1.05l-0.65,0.05l0.7,0.4c0.467,0.233,1.033,0.8,1.7,1.7L19.5-19z"/>
			<path style="fill-rule:evenodd;clip-rule:evenodd;fill:#D89B3B;" d="M23.7-4.25c-0.5-0.3-1.783-0.966-3.85-2
				c-1.9-0.9-2.933-1.45-3.1-1.65C15.816-7.834,12.9-7.534,8-7c-3.733,0.4-6.05,0.567-6.95,0.5C1.117-6.334,1.267-6.134,1.5-5.9
				C2.467-5.234,4-4.334,6.1-3.2c2.533,1.4,4.167,2.116,4.9,2.15c2.233,0.1,6.1-0.3,11.6-1.2c1.4-0.2,2.283-0.466,2.65-0.8
				C24.883-3.417,24.367-3.817,23.7-4.25z"/>
			<g>
				
					<radialGradient id="SVGID_7_" cx="-1041.2344" cy="-364.8276" r="3.1655" gradientTransform="matrix(0.9991 -0.0434 -0.0513 -0.3791 1041.8232 -186.3809)" gradientUnits="userSpaceOnUse">
					<stop  offset="0.2157" style="stop-color:#000000;stop-opacity:0.3765"/>
					<stop  offset="0.8667" style="stop-color:#000000;stop-opacity:0"/>
				</radialGradient>
				<path style="fill-rule:evenodd;clip-rule:evenodd;fill:url(#SVGID_7_);" d="M21.05-1.8c0.833-0.067,1.517-0.217,2.05-0.45
					c0.567-0.233,0.817-0.517,0.75-0.85c-0.034-0.333-0.383-0.6-1.05-0.8c-0.633-0.233-1.383-0.316-2.25-0.25
					c-0.633,0-1.283,0.1-1.95,0.3c0.4,0.333,0.95,0.884,1.65,1.65l0.1,0.2L21.05-1.8z"/>
				<path style="fill-rule:evenodd;clip-rule:evenodd;fill:#ECC17C;" d="M18.95-3.55c-0.067,0.4,0.05,1.1,0.35,2.1
					c0.333,1.133,0.733,1.683,1.2,1.65c0.7-0.034,1.25-0.767,1.65-2.2c0.034-0.2,0.05-0.333,0.05-0.4
					c-0.067-0.167-0.267-0.333-0.6-0.5c-0.8-0.467-1.317-0.7-1.55-0.7L18.95-3.55z"/>
				
					<linearGradient id="SVGID_8_" gradientUnits="userSpaceOnUse" x1="-90.9043" y1="-15479.4355" x2="-87.3868" y2="-15479.4355" gradientTransform="matrix(0.0995 -0.995 1.0043 0.0066 15575.877 11.1064)">
					<stop  offset="0" style="stop-color:#C37D27"/>
					<stop  offset="1" style="stop-color:#A6671A"/>
				</linearGradient>
				<path style="fill-rule:evenodd;clip-rule:evenodd;fill:url(#SVGID_8_);" d="M18.95-3.55c0.066,0.6,0.217,1.283,0.45,2.05
					c0.367,1.1,0.767,1.633,1.2,1.6c0.733-0.033,1.3-0.783,1.7-2.25c0.033-0.2,0.05-0.333,0.05-0.4
					c-0.067-0.167-0.267-0.333-0.6-0.5c-0.8-0.467-1.316-0.7-1.55-0.7L18.95-3.55z"/>
				<path style="fill-rule:evenodd;clip-rule:evenodd;fill:#ECC17C;" d="M20.45-3.65h-0.2c-0.066,0.233-0.05,0.767,0.05,1.6
					c0.067,0.833,0.167,1.367,0.3,1.6c0.2,0.267,0.383,0.383,0.55,0.35c0.433-0.366,0.767-1.017,1-1.95
					c0.133-0.3-0.033-0.583-0.5-0.85L20.45-3.65z"/>
				
					<linearGradient id="SVGID_9_" gradientUnits="userSpaceOnUse" x1="-85.9453" y1="-15451.9609" x2="-81.7985" y2="-15451.9609" gradientTransform="matrix(0.1025 -0.9947 1.0047 0.0056 15554.6211 0.8496)">
					<stop  offset="0" style="stop-color:#B6711C"/>
					<stop  offset="1" style="stop-color:#8B5615"/>
				</linearGradient>
				<path style="fill-rule:evenodd;clip-rule:evenodd;fill:url(#SVGID_9_);" d="M21.75-3.05c-0.8-0.467-1.316-0.7-1.55-0.7
					c0.133,1.733,0.3,2.784,0.5,3.15c0.2,0.3,0.4,0.434,0.6,0.4c0.367-0.367,0.7-1.017,1-1.95c0.033-0.2,0.05-0.333,0.05-0.4
					C22.283-2.717,22.083-2.884,21.75-3.05z"/>
			</g>
			<g>
				<path style="fill-rule:evenodd;clip-rule:evenodd;fill:#623C0E;" d="M19.65-15.3c0-0.5-0.1-0.917-0.3-1.25
					c-0.233-0.333-0.5-0.5-0.8-0.5c-0.3,0-0.55,0.167-0.75,0.5c-0.233,0.333-0.35,0.75-0.35,1.25c0,0.466,0.116,0.867,0.35,1.2
					c0.2,0.333,0.45,0.5,0.75,0.5c0.3,0,0.567-0.167,0.8-0.5C19.55-14.434,19.65-14.834,19.65-15.3z"/>
				
					<linearGradient id="SVGID_10_" gradientUnits="userSpaceOnUse" x1="509.729" y1="-16804.7598" x2="512.6842" y2="-16804.7598" gradientTransform="matrix(-0.0592 -0.9982 0.9982 -0.0592 16823.8125 -500.6313)">
					<stop  offset="0" style="stop-color:#5F4E29"/>
					<stop  offset="0.8588" style="stop-color:#271D09"/>
				</linearGradient>
				<path style="fill-rule:evenodd;clip-rule:evenodd;fill:url(#SVGID_10_);" d="M19.2-15.351c0-0.366-0.083-0.667-0.25-0.9
					c-0.167-0.233-0.384-0.35-0.65-0.35c-0.233,0-0.45,0.117-0.65,0.35c-0.167,0.233-0.25,0.534-0.25,0.9
					c0,0.367,0.083,0.684,0.25,0.95c0.167,0.233,0.383,0.35,0.65,0.35s0.483-0.117,0.65-0.35C19.117-14.667,19.2-14.984,19.2-15.351
					z"/>
			</g>
			<g>
				<path style="fill-rule:evenodd;clip-rule:evenodd;fill:#623C0E;" d="M26.1-11.4c0-0.467-0.067-0.85-0.2-1.15
					c-0.133-0.333-0.3-0.5-0.5-0.5c-0.2,0-0.367,0.167-0.5,0.5c-0.167,0.333-0.25,0.716-0.25,1.15s0.083,0.8,0.25,1.1
					c0.133,0.3,0.3,0.45,0.5,0.45C25.867-9.851,26.1-10.367,26.1-11.4z"/>
				
					<linearGradient id="SVGID_11_" gradientUnits="userSpaceOnUse" x1="542.5991" y1="-16830.9883" x2="545.3547" y2="-16830.9883" gradientTransform="matrix(-0.0635 -0.998 0.998 -0.0635 16856.7324 -537.8726)">
					<stop  offset="0" style="stop-color:#5F4E29"/>
					<stop  offset="0.8588" style="stop-color:#271D09"/>
				</linearGradient>
				<path style="fill-rule:evenodd;clip-rule:evenodd;fill:url(#SVGID_11_);" d="M25.8-11.4c0-0.8-0.2-1.2-0.6-1.2
					c-0.167,0-0.3,0.117-0.4,0.35c-0.133,0.233-0.2,0.517-0.2,0.85c0,0.3,0.067,0.566,0.2,0.8c0.1,0.233,0.233,0.35,0.4,0.35
					C25.6-10.25,25.8-10.634,25.8-11.4z"/>
			</g>
			<path style="fill-rule:evenodd;clip-rule:evenodd;fill:#ECC17C;" d="M25.25-3.05c-0.066-0.4-1.45-1.333-4.15-2.8
				c-2.7-1.5-4.083-2.417-4.15-2.75c-0.067-0.366-0.067-4.517,0-12.45c-0.033-1.7-0.25-2.75-0.65-3.15l0.15,0.6
				c0.1,0.267,0.133,2.267,0.1,6c-0.033,3.634-0.083,6-0.15,7.1s-0.133,1.733-0.2,1.9c-0.067,0.2-0.25,0.333-0.55,0.4
				c-0.4,0.1-3.233,0.417-8.5,0.95l-6.05,1l7.55-0.8c1.4-0.167,3.017-0.317,4.85-0.45s2.9-0.167,3.2-0.1
				c0.3,0.034,1.6,0.65,3.9,1.85C22.033-4.984,23.583-4.084,25.25-3.05z"/>
			
				<linearGradient id="SVGID_12_" gradientUnits="userSpaceOnUse" x1="-2361.0215" y1="-12877.792" x2="-2355.5615" y2="-12877.792" gradientTransform="matrix(0.3571 -0.9341 0.9341 0.3571 12894.7197 2379.4775)">
				<stop  offset="0" style="stop-color:#D5CBB5"/>
				<stop  offset="1" style="stop-color:#A8A08C"/>
			</linearGradient>
			<path style="fill-rule:evenodd;clip-rule:evenodd;fill:url(#SVGID_12_);" d="M24.4-13.75c1.133-0.267,1.9-0.9,2.3-1.9
				c0.366-0.934,0.333-1.717-0.1-2.35c-0.367-0.533-1.15-0.816-2.35-0.85c-1.033,0-1.867,0.15-2.5,0.45
				c-0.533,0.233-0.8,0.667-0.8,1.3l0.15,0.85c0.033,0.167,0.1,0.367,0.2,0.6c0.2,0.467,0.45,0.816,0.75,1.05
				C22.883-13.867,23.667-13.584,24.4-13.75z"/>
			
				<linearGradient id="SVGID_13_" gradientUnits="userSpaceOnUse" x1="-2375.7236" y1="-12836.707" x2="-2373.7134" y2="-12836.707" gradientTransform="matrix(0.3606 -0.9327 0.9327 0.3606 12855.0117 2397.1357)">
				<stop  offset="0" style="stop-color:#5F4E29"/>
				<stop  offset="0.8588" style="stop-color:#271D09"/>
			</linearGradient>
			<path style="fill-rule:evenodd;clip-rule:evenodd;fill:url(#SVGID_13_);" d="M26.05-18.2c-0.3-0.134-0.633-0.134-1,0
				c-0.4,0.133-0.6,0.333-0.6,0.6c0,0.733,0.55,1.217,1.65,1.45c0.533,0.1,0.75-0.184,0.65-0.85S26.417-18.067,26.05-18.2z"/>
			
				<linearGradient id="SVGID_14_" gradientUnits="userSpaceOnUse" x1="-1492.5996" y1="-1872.563" x2="-1488.8438" y2="-1872.563" gradientTransform="matrix(0.9785 -0.2064 0.2064 0.9785 1864.0303 1511.4629)">
				<stop  offset="0" style="stop-color:#C37D27"/>
				<stop  offset="1" style="stop-color:#A6671A"/>
			</linearGradient>
			<path style="fill-rule:evenodd;clip-rule:evenodd;fill:url(#SVGID_14_);" d="M18.7-11.4c1.167-0.066,1.85-0.783,2.05-2.15
				c0-0.1-0.083-0.184-0.25-0.25c-0.333-0.133-0.684-0.25-1.05-0.35c-0.467-0.167-1-0.25-1.6-0.25c-0.4-0.033-0.683-0.017-0.85,0.05
				c-0.066,0.034-0.083,0.284-0.05,0.75c0.033,0.5,0.116,0.95,0.25,1.35C17.467-11.65,17.967-11.367,18.7-11.4z"/>
			
				<linearGradient id="SVGID_15_" gradientUnits="userSpaceOnUse" x1="1444.52" y1="1195.0205" x2="1446.8503" y2="1195.0205" gradientTransform="matrix(0.987 0.1609 -0.1609 0.987 -1209.4395 -1422.25)">
				<stop  offset="0" style="stop-color:#C37D27"/>
				<stop  offset="1" style="stop-color:#A6671A"/>
			</linearGradient>
			<path style="fill-rule:evenodd;clip-rule:evenodd;fill:url(#SVGID_15_);" d="M24.85-8.75c0.5,0.233,0.9,0.083,1.2-0.45
				c0.167-0.333,0.25-0.667,0.25-1c0-0.267-0.033-0.434-0.1-0.5c-0.067-0.167-0.3-0.333-0.7-0.5l-1.2-0.6
				c-0.066,0-0.133,0.183-0.2,0.55c-0.067,0.434-0.083,0.833-0.05,1.2C24.083-9.417,24.35-8.984,24.85-8.75z"/>
			
				<linearGradient id="SVGID_16_" gradientUnits="userSpaceOnUse" x1="-1263.9443" y1="-14835.7246" x2="-1258.0342" y2="-14835.7246" gradientTransform="matrix(0.1692 -0.9856 0.9856 0.1692 14852.7217 1263.8252)">
				<stop  offset="0" style="stop-color:#5F4E29"/>
				<stop  offset="0.9373" style="stop-color:#3A2B0E"/>
			</linearGradient>
			<path style="fill-rule:evenodd;clip-rule:evenodd;fill:url(#SVGID_16_);" d="M14.95,0.3l-0.4-0.15
				c-0.3-0.133-0.533-0.333-0.7-0.6c-0.2-0.367-0.133-0.667,0.2-0.9c0.367-0.3,1-0.366,1.9-0.2c0.833,0.133,1.616,0.417,2.35,0.85
				c0.667,0.366,1.467,0.4,2.4,0.1c0.833-0.267,1.517-0.7,2.05-1.3c0.467-0.533,0.517-1.217,0.15-2.05
				c-0.367-0.767-0.95-1.35-1.75-1.75c-0.667-0.3-1.4-0.434-2.2-0.4L17.9-5.95c-0.533,0.267-1.183,0.433-1.95,0.5
				c-0.967,0.033-1.767,0.066-2.4,0.1c-0.866,0.034-1.417,0.467-1.65,1.3c-0.167,0.733-0.083,1.6,0.25,2.6
				c0.233,0.733,0.767,1.25,1.6,1.55C14.184,0.233,14.583,0.3,14.95,0.3z"/>
			
				<linearGradient id="SVGID_17_" gradientUnits="userSpaceOnUse" x1="-1236.1992" y1="-14871.3438" x2="-1231.5098" y2="-14871.3438" gradientTransform="matrix(0.1653 -0.9862 0.9862 0.1653 14890.3525 1237.0996)">
				<stop  offset="0" style="stop-color:#7A6334"/>
				<stop  offset="0.9373" style="stop-color:#483511"/>
			</linearGradient>
			<path style="fill-rule:evenodd;clip-rule:evenodd;fill:url(#SVGID_17_);" d="M22.75-1.9l0.15-0.2L23-3.65
				c-0.2-0.467-0.383-0.8-0.55-1v0.225c-0.003-0.12-0.036-0.211-0.1-0.275c-0.067,0.066-0.083,0.216-0.05,0.45
				c0,0.267,0,0.434,0,0.5L21.8-4.3l-0.15,1.15c0-0.1,0.017-0.35,0.05-0.75c0-0.3-0.033-0.533-0.1-0.7c0,0.2-0.017,0.367-0.05,0.5
				c-0.033,0.267-0.083,0.434-0.15,0.5C21.333-3.867,21.283-4,21.25-4c-0.133,0.133-0.2,0.367-0.2,0.7c-0.066-0.034-0.2-0.2-0.4-0.5
				v0.25c-0.233-0.3-0.35-0.6-0.35-0.9c-0.133,0.2-0.25,0.35-0.35,0.45L19.9-4.3c-0.033,0-0.2,0.1-0.5,0.3
				c-0.133-0.3-0.233-0.5-0.3-0.6c-0.133,0.3-0.233,0.517-0.3,0.65c-0.066-0.034-0.15-0.117-0.25-0.25c-0.1-0.167-0.2-0.25-0.3-0.25
				c-0.1,0.267-0.25,0.4-0.45,0.4l-0.25-0.1c-0.066,0.1-0.116,0.167-0.15,0.2c-0.167,0.066-0.383,0.083-0.65,0.05l-0.7-0.05
				l1.1,0.15c0.067,0.233,0.217,0.3,0.45,0.2c0.133-0.033,0.333-0.116,0.6-0.25c0.133,0.134,0.3,0.367,0.5,0.7l0.45-0.6
				c0.067,0.034,0.083,0.133,0.05,0.3c0,0.167,0.017,0.283,0.05,0.35c0.1,0.134,0.25,0.117,0.45-0.05c0.1-0.1,0.217-0.233,0.35-0.4
				l0.1,0.9c0.1,0,0.233-0.05,0.4-0.15c0.134-0.1,0.217-0.2,0.25-0.3c0.033,0.134,0.017,0.567-0.05,1.3c0.167,0.066,0.367,0,0.6-0.2
				c0.1-0.133,0.233-0.3,0.4-0.5c0.1,0.133,0.15,0.333,0.15,0.6l0.4-0.6c0.067,0.133,0.1,0.367,0.1,0.7
				c-0.133,0.233-0.383,0.5-0.75,0.8C22.083-1.234,22.45-1.534,22.75-1.9z"/>
			<g>
				
					<radialGradient id="SVGID_18_" cx="13.8999" cy="-6.1504" r="3.95" gradientTransform="matrix(1 0 0 -0.3513 0 -8.3105)" gradientUnits="userSpaceOnUse">
					<stop  offset="0.2157" style="stop-color:#000000;stop-opacity:0.3765"/>
					<stop  offset="0.8667" style="stop-color:#000000;stop-opacity:0"/>
				</radialGradient>
				<path style="fill-rule:evenodd;clip-rule:evenodd;fill:url(#SVGID_18_);" d="M14.65-4.75c1.034-0.033,1.9-0.183,2.6-0.45
					c0.733-0.267,1.1-0.583,1.1-0.95s-0.383-0.7-1.15-1c-0.767-0.267-1.7-0.4-2.8-0.4c-0.7,0-1.517,0.1-2.45,0.3
					c0.467,0.4,1.066,1.05,1.8,1.95l0.1,0.3L14.65-4.75z"/>
				<path style="fill-rule:evenodd;clip-rule:evenodd;fill:#ECC17C;" d="M12.35-6.9c-0.167,0.467-0.15,1.283,0.05,2.45
					c0.233,1.3,0.633,1.95,1.2,1.95s1.133-0.383,1.7-1.15c0.267-0.367,0.517-0.8,0.75-1.3c0.167-0.4,0-0.75-0.5-1.05
					c-1.033-0.6-1.633-0.9-1.8-0.9H12.35z"/>
				
					<linearGradient id="SVGID_19_" gradientUnits="userSpaceOnUse" x1="-1077.0791" y1="-15094.5059" x2="-1072.6844" y2="-15094.5059" gradientTransform="matrix(0.1422 -0.9898 0.9898 0.1422 15108.1006 1077.9512)">
					<stop  offset="0" style="stop-color:#C37D27"/>
					<stop  offset="1" style="stop-color:#A6671A"/>
				</linearGradient>
				<path style="fill-rule:evenodd;clip-rule:evenodd;fill:url(#SVGID_19_);" d="M12.35-6.9c0,0.833,0.067,1.617,0.2,2.35
					c0.267,1.3,0.684,1.95,1.25,1.95c0.867,0,1.684-0.85,2.45-2.55c0.1-0.2,0.133-0.333,0.1-0.4c-0.034-0.2-0.233-0.4-0.6-0.6
					c-1.033-0.6-1.633-0.9-1.8-0.9L12.35-6.9z"/>
				<path style="fill-rule:evenodd;clip-rule:evenodd;fill:#ECC17C;" d="M16.1-5c0.167-0.4,0-0.75-0.5-1.05l-1.35-0.9H14.1L14-7
					c-0.133,0.267-0.217,0.883-0.25,1.85s0,1.6,0.1,1.9c0.167,0.333,0.383,0.483,0.65,0.45C15.033-3.167,15.566-3.9,16.1-5z"/>
				
					<linearGradient id="SVGID_20_" gradientUnits="userSpaceOnUse" x1="-1061.6152" y1="-15113.7871" x2="-1056.4392" y2="-15113.7871" gradientTransform="matrix(0.1401 -0.9901 0.9901 0.1401 15128.1758 1062.8828)">
					<stop  offset="0" style="stop-color:#B6711C"/>
					<stop  offset="1" style="stop-color:#8B5615"/>
				</linearGradient>
				<path style="fill-rule:evenodd;clip-rule:evenodd;fill:url(#SVGID_20_);" d="M15.75-6.15c-1.033-0.6-1.633-0.9-1.8-0.9
					c-0.134,1.933-0.1,3.15,0.1,3.65c0.1,0.333,0.3,0.5,0.6,0.5c0.5-0.367,1.034-1.117,1.6-2.25c0.1-0.2,0.133-0.333,0.1-0.4
					C16.316-5.75,16.117-5.95,15.75-6.15z"/>
			</g>
		</g>
	</g>
</symbol>
<symbol  id="cubimal_x5F_mc" viewBox="-0.385 -26.564 32.937 26.914">
	<g id="Layer_5_1_">
	</g>
	<g id="Layer_4_2_">
	</g>
	<g id="Layer_2_copy_2_">
	</g>
	<g id="Layer_2_2_">
	</g>
	<g id="Layer_1_9_">
		
			<use xlink:href="#cubimal_x5F_scene1"  width="32.937" height="26.914" x="0.015" y="-26.614" transform="matrix(1 0 0 1 -0.3999 0.0498)" style="overflow:visible;"/>
	</g>
	<g id="Layer_6_1_">
	</g>
</symbol>
<symbol  id="cubimal_x5F_scene1" viewBox="0.015 -26.614 32.937 26.914">
	<g id="Layer_1_8_">
		
			<use xlink:href="#winder_x5F_static"  width="10.185" height="8.474" x="0.015" y="-8.472" transform="matrix(1 0 0 1 0 -7.9502)" style="overflow:visible;"/>
		
			<use xlink:href="#cubimal_1_"  width="26.552" height="26.914" x="0.4" y="-26.614" transform="matrix(1 0 0 1 6 0)" style="overflow:visible;"/>
	</g>
</symbol>
<symbol  id="winder_x5F_static" viewBox="0.015 -8.472 10.185 8.474">
	<g id="Layer_4_1_">
		
			<use xlink:href="#winderedge"  width="4.537" height="8.127" x="0.015" y="-8.126" transform="matrix(1 0 0 1 0.7002 0)" style="overflow:visible;"/>
	</g>
	<g id="Layer_3_1_">
		
			<use xlink:href="#winderfacehighlight"  width="4.573" height="8.174" x="0.016" y="-8.173" transform="matrix(1 0 0 1 0.2002 -0.2002)" style="overflow:visible;"/>
	</g>
	<g id="Layer_2_copy_1_">
		
			<use xlink:href="#winderface1a"  width="4.573" height="8.174" x="0.015" y="-8.172" transform="matrix(1 0 0 1 0 -0.2998)" style="overflow:visible;"/>
	</g>
	<g id="Layer_1_7_">
		<g>
			
				<linearGradient id="SVGID_21_" gradientUnits="userSpaceOnUse" x1="1515.5659" y1="-17620.7891" x2="1516.8853" y2="-17620.7891" gradientTransform="matrix(-0.1705 -0.9854 0.9854 -0.1705 17628.541 -1516.4619)">
				<stop  offset="0" style="stop-color:#8F8F8F"/>
				<stop  offset="0.2275" style="stop-color:#E8E8E8"/>
				<stop  offset="1" style="stop-color:#696969"/>
			</linearGradient>
			<path style="fill-rule:evenodd;clip-rule:evenodd;fill:url(#SVGID_21_);" d="M10.2-6.3L4.8-5.5C4.5-5.533,4.351-5.366,4.351-5
				c0,0.233,0.083,0.4,0.25,0.5c0.066,0.066,0.133,0.1,0.2,0.1l5.4-0.8V-6.3z"/>
		</g>
	</g>
</symbol>
<symbol  id="winderedge" viewBox="0.015 -8.126 4.537 8.127">
	<g id="Layer_1_4_">
		<g>
			
				<linearGradient id="SVGID_22_" gradientUnits="userSpaceOnUse" x1="6.21" y1="-16350.5176" x2="13.035" y2="-16350.5176" gradientTransform="matrix(1.465202e-004 -1 1 -0.001 16352.8027 -10.1782)">
				<stop  offset="0" style="stop-color:#8F8F8F"/>
				<stop  offset="0.2275" style="stop-color:#E8E8E8"/>
				<stop  offset="1" style="stop-color:#696969"/>
			</linearGradient>
			<path style="fill-rule:evenodd;clip-rule:evenodd;fill:url(#SVGID_22_);" d="M3.5-5.899c0.066,0.6-0.083,0.983-0.45,1.15L2.6-4.7
				C2.367-4.7,2.167-4.733,2-4.8c-0.533-0.167-0.833-0.533-0.9-1.1c-0.034-0.5,0.1-0.85,0.4-1.05c0.434-0.233,0.867-0.233,1.3,0
				C3.2-6.716,3.434-6.366,3.5-5.899z M0.05-1.25c0.1,0.8,0.5,1.216,1.2,1.25c1.367,0.033,2.333-0.633,2.9-2
				c0.5-1.233,0.534-2.05,0.1-2.45c0.434-0.533,0.4-1.333-0.1-2.4c-0.567-1.167-1.533-1.533-2.9-1.1c-0.7,0.233-1.1,0.767-1.2,1.6
				c-0.133,0.867,0.117,1.533,0.75,2L1.25-4L0.8-3.55C0.167-2.85-0.083-2.083,0.05-1.25z M3.5-2.75C3.434-2.25,3.2-1.833,2.8-1.5
				C2.367-1.1,1.934-0.966,1.5-1.1c-0.3-0.133-0.434-0.467-0.4-1C1.167-2.666,1.467-3.116,2-3.45l0.6-0.3L3.05-3.8
				C3.417-3.766,3.566-3.416,3.5-2.75z"/>
		</g>
	</g>
</symbol>
<symbol  id="winderface1a" viewBox="0.015 -8.172 4.573 8.174">
	<g id="Layer_1_2_">
		
			<linearGradient id="SVGID_23_" gradientUnits="userSpaceOnUse" x1="-1921.7793" y1="-13814.5264" x2="-1912.6071" y2="-13814.5264" gradientTransform="matrix(0.2726 -0.9621 0.9621 0.2726 13815.9141 1917.4453)">
			<stop  offset="0" style="stop-color:#E8E8E8"/>
			<stop  offset="1" style="stop-color:#878787"/>
		</linearGradient>
		<path style="fill-rule:evenodd;clip-rule:evenodd;fill:url(#SVGID_23_);" d="M2.05-4.8c-0.566-0.133-0.867-0.483-0.9-1.05
			c-0.033-0.533,0.1-0.9,0.4-1.1c0.4-0.267,0.817-0.267,1.25,0C3.2-6.717,3.433-6.367,3.5-5.9c0.133,0.633,0,1-0.4,1.1L2.65-4.7
			L2.05-4.8z M0.05-1.25C0.183-0.45,0.6-0.033,1.3,0c1.367,0.033,2.333-0.633,2.9-2c0.5-1.233,0.517-2.05,0.05-2.45
			c0.467-0.5,0.45-1.3-0.05-2.4C3.633-8.05,2.667-8.433,1.3-8C0.6-7.733,0.183-7.183,0.05-6.35c-0.133,0.867,0.117,1.533,0.75,2
			L1.3-4L0.8-3.55C0.167-2.85-0.083-2.083,0.05-1.25z M3.5-2.75C3.433-2.25,3.2-1.833,2.8-1.5C2.367-1.1,1.95-0.967,1.55-1.1
			c-0.3-0.133-0.433-0.467-0.4-1c0.033-0.6,0.333-1.05,0.9-1.35l0.6-0.3L3.1-3.8C3.467-3.767,3.6-3.417,3.5-2.75z"/>
	</g>
</symbol>
<symbol  id="winderfacehighlight" viewBox="0.016 -8.173 4.573 8.174">
	<g id="Layer_1_3_">
		
			<linearGradient id="SVGID_24_" gradientUnits="userSpaceOnUse" x1="-1921.7783" y1="-13814.5264" x2="-1912.6061" y2="-13814.5264" gradientTransform="matrix(0.2726 -0.9621 0.9621 0.2726 13815.9141 1917.4453)">
			<stop  offset="0" style="stop-color:#E8E8E8"/>
			<stop  offset="1" style="stop-color:#EDEDED"/>
		</linearGradient>
		<path style="fill-rule:evenodd;clip-rule:evenodd;fill:url(#SVGID_24_);" d="M2.05-4.8c-0.567-0.133-0.867-0.483-0.9-1.05
			c-0.033-0.533,0.1-0.9,0.4-1.1c0.4-0.267,0.817-0.267,1.25,0C3.2-6.717,3.434-6.367,3.5-5.9c0.1,0.6-0.034,0.967-0.4,1.1L2.65-4.7
			L2.05-4.8z M0.05-1.25C0.184-0.45,0.601-0.034,1.3,0c1.367,0.034,2.333-0.633,2.9-2c0.5-1.233,0.517-2.05,0.05-2.45
			c0.466-0.5,0.45-1.3-0.05-2.4C3.634-8.05,2.667-8.434,1.3-8c-0.7,0.267-1.117,0.817-1.25,1.65c-0.133,0.867,0.117,1.534,0.75,2
			L1.3-4L0.8-3.55C0.167-2.851-0.083-2.084,0.05-1.25z M1.55-1.101c-0.3-0.133-0.433-0.466-0.4-1c0.033-0.6,0.333-1.05,0.9-1.35
			l0.6-0.3l0.45-0.05c0.366,0.033,0.5,0.383,0.4,1.05C3.434-2.25,3.2-1.834,2.8-1.5C2.367-1.101,1.95-0.967,1.55-1.101z"/>
	</g>
</symbol>
<use xlink:href="#cubimal_x5F_mc"  width="32.937" height="26.914" id="cubimal" x="-0.385" y="-26.564" transform="matrix(1 0 0 -1 0.3999 0.3501)" style="overflow:visible;"/>
</svg>
