<?xml version="1.0" encoding="iso-8859-1"?>
<!-- Generator: Adobe Illustrator 15.1.0, SVG Export Plug-In . SVG Version: 6.00 Build 0)  -->
<!DOCTYPE svg PUBLIC "-//W3C//DTD SVG 1.1//EN" "http://www.w3.org/Graphics/SVG/1.1/DTD/svg11.dtd">
<svg version="1.1" id="flash0.ai" xmlns="http://www.w3.org/2000/svg" xmlns:xlink="http://www.w3.org/1999/xlink" x="0px" y="0px"
	 width="54.45px" height="52.7px" viewBox="0 0 54.45 52.7" style="enable-background:new 0 0 54.45 52.7;" xml:space="preserve">
<symbol  id="flash0.ai_x5F_2_x2F_Layer_33_copy_x2F__x3C_Path_x3E_" viewBox="0.3 -6.457 36.853 6.495">
	<g id="Layer_1_5_">
		<path style="fill-rule:evenodd;clip-rule:evenodd;fill:#FFFFFF;" d="M36.15-5.55c1.9-1.034,1.1-1.184-2.4-0.45
			c-4.967,1.133-8.483,1.9-10.55,2.3C11.9-1.5,4.267-0.35,0.3-0.25c1.4,0.4,4.117,0.383,8.15-0.05c4.1-0.434,9.216-1.217,15.35-2.35
			C30.733-3.883,34.85-4.85,36.15-5.55z"/>
	</g>
</symbol>
<symbol  id="flash0.ai_x5F_2_x2F_Layer_33_copy_x2F__x3C_Path_x3E__x5F_1" viewBox="-0.008 -14.96 49.408 14.96">
	<g id="Layer_1_4_">
		<path style="fill-rule:evenodd;clip-rule:evenodd;" d="M49.4-11.2c-0.633-3.167-4.55-4.333-11.75-3.5
			c-9.167,1.733-15.833,2.983-20,3.75C11.683-9.883,7.333-8.733,4.6-7.5C1.4-6.1-0.133-4.417,0-2.45C0.1-1.383,0.75-0.567,1.95,0
			c-1-1.9,0.2-3.683,3.6-5.35c2.167-1.033,7.133-2.333,14.9-3.9c5.566-1.1,11.45-2.133,17.65-3.1c2.967-0.467,5.45-0.566,7.45-0.3
			C47.383-12.417,48.667-11.933,49.4-11.2z"/>
	</g>
</symbol>
<symbol  id="flash0.ai_x5F_2_x2F_Layer_33_copy_x2F__x3C_Path_x3E__x5F_2" viewBox="-0.008 -14.707 49.258 14.707">
	<g id="Layer_1_3_">
		<path style="fill-rule:evenodd;clip-rule:evenodd;" d="M49.25-11.5c-0.967-2.8-4.983-3.767-12.05-2.9
			c-8.967,1.733-15.483,2.967-19.55,3.7C11.683-9.633,7.333-8.483,4.6-7.25C1.4-5.85-0.133-4.167,0-2.2
			C0.067-1.267,0.567-0.533,1.5,0C1.067-0.4,0.767-0.933,0.6-1.6C0.433-2.367,0.517-3.017,0.85-3.55
			c1.066-1.667,4.083-3.167,9.05-4.5c2.533-0.667,9.15-2.034,19.85-4.1c5.967-1.133,9.85-1.733,11.65-1.8
			C44.9-14.083,47.517-13.267,49.25-11.5z"/>
	</g>
</symbol>
<symbol  id="flash0.ai_x5F_2_x2F_Layer_33_copy_x2F__x3C_Path_x3E__x5F_41" viewBox="-0.006 -13.15 45.656 13.15">
	<g id="Layer_1_2_">
		<path style="fill-rule:evenodd;clip-rule:evenodd;fill:#164A0E;" d="M42.4-7.05c-4.2,1.2-9.1,2.333-14.7,3.4
			C20.7-2.283,13.95-1.4,7.45-1c-3.167,0.167-4.333-0.483-3.5-1.95c0.466-0.767,3.216-1.5,8.25-2.2
			c2.867-0.434,7.316-1.017,13.35-1.75c3.133-0.5,7.083-1.267,11.85-2.3c4.2-0.9,6.95-1.417,8.25-1.55
			c-2.233,0.133-4.35,0.4-6.35,0.8C32.767-8.617,27.2-7.667,22.6-7.1C14.467-6.133,9.433-5.367,7.5-4.8C6.1-4.4,5.117-4.3,4.55-4.5
			C4.183-4.633,3.833-5.033,3.5-5.7C3.1-6.433,5.033-7.167,9.3-7.9c9.167-1.567,16.3-2.75,21.4-3.55
			c5.833-0.933,10.117-1.5,12.85-1.7c-1.8,0-3.783,0.117-5.95,0.35c-3.067,0.367-7.517,1.05-13.35,2.05
			c-2.533,0.433-6.167,1-10.9,1.7C9.517-8.517,6.933-8.1,5.6-7.8c-1.233,0.267-2,0.4-2.3,0.4C1-6.133-0.1-4.667,0-3
			c0.1,1.4,1.25,2.4,3.45,3C4.35-0.233,6.867-0.517,11-0.85c4.467-0.333,8.017-0.767,10.65-1.3c7.367-1.467,13.967-2.967,19.8-4.5
			L42.4-7.05z"/>
	</g>
</symbol>
<g>
	
		<linearGradient id="SVGID_1_" gradientUnits="userSpaceOnUse" x1="-12.5342" y1="25.2319" x2="-2.0074" y2="25.2319" gradientTransform="matrix(0.057 -0.798 0.798 0.057 7.3998 39.7994)">
		<stop  offset="0" style="stop-color:#3A7524"/>
		<stop  offset="0.3725" style="stop-color:#3D7624"/>
		<stop  offset="0.6039" style="stop-color:#457A23"/>
		<stop  offset="0.7961" style="stop-color:#548021"/>
		<stop  offset="0.9686" style="stop-color:#68881F"/>
		<stop  offset="1" style="stop-color:#6D8A1E"/>
	</linearGradient>
	<path style="fill-rule:evenodd;clip-rule:evenodd;fill:url(#SVGID_1_);" d="M46.959,48.039c0.48,3.547-2.267,5.067-8.239,4.561
		c-2.054-0.16-4.881-0.613-8.48-1.36c-4-0.853-6.906-1.439-8.72-1.76c-4.773-0.854-8.253-1.773-10.439-2.76
		c-2.56-1.12-3.787-2.467-3.68-4.04c0.133-1.946,2.733-2.906,7.8-2.88c2.854,0.026,7.64,0.48,14.36,1.36
		c6.16,0.826,10.439,1.68,12.84,2.56C45.199,44.733,46.72,46.173,46.959,48.039z"/>
	
		<use xlink:href="#flash0.ai_x5F_2_x2F_Layer_33_copy_x2F__x3C_Path_x3E__x5F_41"  width="45.656" height="13.15" x="-0.006" y="-13.15" transform="matrix(0.8 0 0 -0.8 7.3999 40.25)" style="overflow:visible;opacity:0.2813;enable-background:new    ;"/>
	<path style="fill-rule:evenodd;clip-rule:evenodd;fill:#336315;" d="M37.279,45.84c-0.319,0.24-0.627,0.267-0.92,0.08
		c-0.187-0.106-0.267-0.267-0.239-0.48l0.119-0.239l0.28,0.359C36.733,45.8,36.986,45.894,37.279,45.84z"/>
	<path style="fill-rule:evenodd;clip-rule:evenodd;fill:#336315;" d="M31.479,44.8c-0.054,0.213-0.173,0.373-0.359,0.48
		c-0.134,0.08-0.28,0.106-0.44,0.08c-0.214-0.054-0.373-0.16-0.48-0.32c-0.079-0.16-0.079-0.32,0-0.48l0.16-0.24v0.2
		c0.027,0.16,0.12,0.294,0.28,0.4C30.906,45.106,31.187,45.066,31.479,44.8z"/>
	<path style="fill-rule:evenodd;clip-rule:evenodd;fill:#336315;" d="M24.18,43.1c-0.196,0.282-0.402,0.369-0.62,0.261
		c-0.16-0.054-0.24-0.174-0.24-0.36l0.04-0.28l0.04,0.16c0.08,0.106,0.2,0.187,0.36,0.24C23.944,43.187,24.083,43.181,24.18,43.1z"
		/>
	<path style="fill-rule:evenodd;clip-rule:evenodd;fill:#336315;" d="M26.68,47.199l-0.04,0.16c-0.027,0.134,0.04,0.254,0.2,0.36
		l0.321,0.319c-0.161,0.08-0.374,0.014-0.641-0.199c-0.187-0.16-0.213-0.307-0.08-0.44C26.493,47.319,26.573,47.253,26.68,47.199z"
		/>
	<path style="fill-rule:evenodd;clip-rule:evenodd;fill:#336315;" d="M35.6,49.56c-0.267,0.187-0.521,0.187-0.761,0
		c-0.16-0.106-0.213-0.214-0.16-0.32l0.16-0.159l0.281,0.359C35.307,49.6,35.466,49.64,35.6,49.56z"/>
	<path style="fill-rule:evenodd;clip-rule:evenodd;fill:#336315;" d="M22.48,45.8c-0.24,0.399-0.507,0.52-0.8,0.36
		c-0.187-0.106-0.267-0.228-0.24-0.36l0.121-0.16l0.32,0.32C22.04,46.066,22.24,46.013,22.48,45.8z"/>
	<path style="fill-rule:evenodd;clip-rule:evenodd;fill:#336315;" d="M21.16,43c0,0.319-0.133,0.479-0.4,0.479
		c-0.16,0-0.28-0.08-0.36-0.24L20.36,43l0.04,0.08c0.053,0.053,0.16,0.106,0.32,0.159C20.96,43.293,21.106,43.213,21.16,43z"/>
	<path style="fill-rule:evenodd;clip-rule:evenodd;fill:#336315;" d="M32.6,42.16c-0.187,0.106-0.373,0.106-0.561,0
		c-0.105-0.054-0.16-0.106-0.16-0.16l0.081-0.08l0.279,0.16C32.426,42.16,32.547,42.187,32.6,42.16z"/>
	<path style="fill-rule:evenodd;clip-rule:evenodd;fill:#336315;" d="M15.76,43.239c-0.187,0.294-0.4,0.374-0.64,0.24
		c-0.16-0.106-0.227-0.213-0.2-0.319L15,43l0.28,0.28C15.413,43.387,15.573,43.373,15.76,43.239z"/>
	<path style="fill-rule:evenodd;clip-rule:evenodd;fill:#336315;" d="M16.56,45.92c0,0.267-0.16,0.373-0.48,0.319
		c-0.187-0.053-0.307-0.146-0.36-0.279v-0.2l0.04,0.12c0.053,0.08,0.173,0.133,0.36,0.16C16.387,46.093,16.533,46.054,16.56,45.92z"
		/>
	<path style="fill-rule:evenodd;clip-rule:evenodd;fill:#336315;" d="M9.84,42.2c-0.107,0.293-0.267,0.359-0.48,0.199
		c-0.106-0.106-0.133-0.213-0.08-0.319l0.12-0.12v0.12c0.026,0.106,0.067,0.173,0.12,0.2C9.626,42.36,9.733,42.333,9.84,42.2z"/>
	<path style="fill-rule:evenodd;clip-rule:evenodd;fill:#336315;" d="M9.68,44.399c-0.002,0.267-0.135,0.347-0.4,0.24
		c-0.16-0.053-0.253-0.133-0.28-0.24l0.04-0.16l0.041,0.16c0.08,0.08,0.173,0.134,0.28,0.16C9.57,44.56,9.676,44.507,9.68,44.399z"
		/>
	<path style="fill-rule:evenodd;clip-rule:evenodd;fill:#336315;" d="M18.8,40.68c-0.08,0.294-0.2,0.427-0.36,0.4
		c-0.106-0.026-0.213-0.106-0.32-0.24l-0.16-0.2l0.44,0.2C18.586,40.866,18.72,40.813,18.8,40.68z"/>
	<path style="fill-rule:evenodd;clip-rule:evenodd;fill:#336315;" d="M11.82,45.479c-0.076,0.264-0.229,0.384-0.46,0.36
		c-0.16-0.026-0.253-0.106-0.28-0.24v-0.2l0.08,0.12c0.08,0.08,0.2,0.106,0.359,0.08C11.669,45.583,11.769,45.543,11.82,45.479z"/>
	<path style="fill-rule:evenodd;clip-rule:evenodd;fill:#336315;" d="M20.24,46.88c-0.064,0.185-0.184,0.265-0.36,0.239
		c-0.134-0.026-0.227-0.093-0.28-0.199l-0.04-0.2l0.359,0.16C20.095,46.924,20.202,46.924,20.24,46.88z"/>
	<path style="fill-rule:evenodd;clip-rule:evenodd;fill:#336315;" d="M31.52,50.479c-0.187,0.16-0.359,0.174-0.52,0.04
		c-0.107-0.106-0.174-0.213-0.2-0.32l0.04-0.119l0.28,0.319C31.279,50.506,31.413,50.533,31.52,50.479z"/>
	<path style="fill-rule:evenodd;clip-rule:evenodd;fill:#336315;" d="M36.319,42.96c0.027,0.24-0.12,0.347-0.44,0.32
		c-0.187-0.027-0.306-0.134-0.359-0.32l-0.04-0.28L35.879,43C36.12,43.106,36.266,43.093,36.319,42.96z"/>
	<path style="fill-rule:evenodd;clip-rule:evenodd;fill:#336315;" d="M42.56,44.72c-0.187,0.213-0.4,0.213-0.64,0
		c-0.16-0.106-0.228-0.213-0.2-0.32l0.08-0.119l0.279,0.359C42.266,44.8,42.426,44.826,42.56,44.72z"/>
	<path style="fill-rule:evenodd;clip-rule:evenodd;fill:#336315;" d="M37.64,51.96c-0.188,0.133-0.387,0.146-0.601,0.04
		c-0.133-0.08-0.16-0.188-0.079-0.32c0.053-0.08,0.105-0.146,0.16-0.2l-0.041,0.12c-0.026,0.106-0.014,0.2,0.041,0.28
		C37.253,52.013,37.426,52.039,37.64,51.96z"/>
	<path style="fill-rule:evenodd;clip-rule:evenodd;fill:#70A837;" d="M30.92,44.08c0.106-0.054,0.24-0.014,0.4,0.12
		c0.159,0.16,0.172,0.279,0.039,0.359c-0.16,0.134-0.399,0.107-0.72-0.08C30.347,44.319,30.439,44.187,30.92,44.08z"/>
	<path style="fill-rule:evenodd;clip-rule:evenodd;fill:#91BA4E;" d="M41.999,44.08c0.293,0,0.467,0.093,0.521,0.28
		c0.026,0.106-0.106,0.093-0.399-0.041C41.826,44.187,41.786,44.106,41.999,44.08z"/>
	<path style="fill-rule:evenodd;clip-rule:evenodd;fill:#91BA4E;" d="M36.679,45c0.134-0.08,0.308-0.054,0.521,0.08
		c0.16,0.106,0.24,0.213,0.24,0.319c0,0.107-0.08,0.146-0.24,0.12c-0.134,0-0.267-0.04-0.399-0.12
		c-0.16-0.106-0.254-0.173-0.28-0.199C36.492,45.146,36.546,45.08,36.679,45z"/>
	<path style="fill-rule:evenodd;clip-rule:evenodd;fill:#91BA4E;" d="M35.8,42.52c0.16-0.026,0.293-0.013,0.399,0.04
		c0.107,0.054,0.134,0.12,0.08,0.2s-0.214,0.066-0.479-0.04C35.533,42.613,35.533,42.546,35.8,42.52z"/>
	<path style="fill-rule:evenodd;clip-rule:evenodd;fill:#70A837;" d="M35.12,48.84c0.159,0,0.306,0.093,0.439,0.279
		c0.16,0.188,0.174,0.294,0.04,0.32c-0.134,0.054-0.308-0.026-0.521-0.24C34.893,48.986,34.906,48.866,35.12,48.84z"/>
	<path style="fill-rule:evenodd;clip-rule:evenodd;fill:#70A837;" d="M37.6,51.279c0.106,0.027,0.173,0.134,0.2,0.32
		c0,0.187-0.054,0.28-0.16,0.28h-0.2c-0.08-0.106-0.133-0.227-0.16-0.36C37.253,51.307,37.359,51.227,37.6,51.279z"/>
	<path style="fill-rule:evenodd;clip-rule:evenodd;fill:#70A837;" d="M31.16,50.08c0.293,0.239,0.373,0.346,0.239,0.319
		c-0.106,0-0.239-0.08-0.399-0.239C30.84,50.026,30.893,50,31.16,50.08z"/>
	<path style="fill-rule:evenodd;clip-rule:evenodd;fill:#70A837;" d="M26.8,47.16c0.026-0.107,0.106-0.094,0.239,0.039
		c0.134,0.134,0.2,0.268,0.2,0.4c0,0.187-0.093,0.24-0.279,0.16C26.8,47.68,26.746,47.479,26.8,47.16z"/>
	<path style="fill-rule:evenodd;clip-rule:evenodd;fill:#70A837;" d="M32.6,41.96c0.026,0.08-0.093,0.08-0.36,0
		c-0.267-0.054-0.347-0.106-0.239-0.16c0.106-0.054,0.227-0.054,0.359,0C32.492,41.826,32.573,41.88,32.6,41.96z"/>
	<path style="fill-rule:evenodd;clip-rule:evenodd;fill:#699E33;" d="M23.56,42.52c-0.027-0.159,0.094-0.187,0.36-0.08
		c0.293,0.106,0.414,0.214,0.36,0.32c-0.054,0.134-0.173,0.173-0.36,0.12C23.706,42.826,23.586,42.706,23.56,42.52z"/>
	<path style="fill-rule:evenodd;clip-rule:evenodd;fill:#699E33;" d="M21.919,45.28c0.16-0.027,0.307,0.039,0.44,0.199
		c0.133,0.188,0.106,0.28-0.08,0.28s-0.36-0.08-0.52-0.24C21.626,45.387,21.68,45.307,21.919,45.28z"/>
	<path style="fill-rule:evenodd;clip-rule:evenodd;fill:#699E33;" d="M20.64,42.8c0.187-0.054,0.333-0.066,0.44-0.04
		c0.133,0.054,0.146,0.12,0.04,0.2c-0.08,0.08-0.24,0.094-0.48,0.04C20.4,42.92,20.4,42.854,20.64,42.8z"/>
	<path style="fill-rule:evenodd;clip-rule:evenodd;fill:#699E33;" d="M18.32,40.319c0.453,0.134,0.573,0.227,0.36,0.28
		c-0.16,0.054-0.32,0.026-0.48-0.08C18.066,40.439,18.106,40.373,18.32,40.319z"/>
	<path style="fill-rule:evenodd;clip-rule:evenodd;fill:#699E33;" d="M15.4,42.72c0.4,0.213,0.48,0.347,0.24,0.4
		c-0.187,0.026-0.347-0.027-0.479-0.16C15.053,42.826,15.133,42.746,15.4,42.72z"/>
	<path style="fill-rule:evenodd;clip-rule:evenodd;fill:#699E33;" d="M19.88,46.399c0.106-0.026,0.227,0.026,0.36,0.16
		c0.133,0.106,0.146,0.173,0.04,0.2c-0.16,0.026-0.32-0.014-0.48-0.12C19.64,46.506,19.667,46.426,19.88,46.399z"/>
	<path style="fill-rule:evenodd;clip-rule:evenodd;fill:#699E33;" d="M16.08,45.479c0.187-0.026,0.346,0.014,0.48,0.12
		c0.133,0.106,0.12,0.174-0.041,0.2c-0.187,0.054-0.373,0.026-0.56-0.08C15.773,45.64,15.813,45.56,16.08,45.479z"/>
	<path style="fill-rule:evenodd;clip-rule:evenodd;fill:#699E33;" d="M11.439,45.04c0.134-0.027,0.227,0.026,0.28,0.16
		c0.054,0.106-0.013,0.173-0.2,0.199c-0.187,0.054-0.307,0.014-0.359-0.119C11.106,45.173,11.2,45.093,11.439,45.04z"/>
	<path style="fill-rule:evenodd;clip-rule:evenodd;fill:#699E33;" d="M9.48,44.08c0.16-0.026,0.28,0,0.36,0.08
		c0.08,0.079,0.053,0.146-0.08,0.2c-0.134,0.053-0.28,0.026-0.44-0.08C9.16,44.173,9.213,44.106,9.48,44.08z"/>
	<path style="fill-rule:evenodd;clip-rule:evenodd;fill:#699E33;" d="M9.76,41.72c0.24,0.32,0.266,0.48,0.08,0.48
		c-0.187-0.027-0.307-0.107-0.36-0.24C9.426,41.826,9.52,41.746,9.76,41.72z"/>
	
		<use xlink:href="#flash0.ai_x5F_2_x2F_Layer_33_copy_x2F__x3C_Path_x3E__x5F_2"  width="49.258" height="14.707" x="-0.008" y="-14.707" transform="matrix(0.8 0 0 -0.8 7.3999 40.9004)" style="overflow:visible;opacity:0.1211;enable-background:new    ;"/>
	
		<use xlink:href="#flash0.ai_x5F_2_x2F_Layer_33_copy_x2F__x3C_Path_x3E__x5F_1"  width="49.408" height="14.96" x="-0.008" y="-14.96" transform="matrix(0.8 0 0 -0.8 7.3999 40.7002)" style="overflow:visible;opacity:0.1289;enable-background:new    ;"/>
	
		<use xlink:href="#flash0.ai_x5F_2_x2F_Layer_33_copy_x2F__x3C_Path_x3E_"  width="36.853" height="6.495" x="0.3" y="-6.457" transform="matrix(0.8 0 0 -0.8 11.9502 41.2998)" style="overflow:visible;opacity:0.1406;enable-background:new    ;"/>
</g>
</svg>
