<?xml version="1.0" encoding="UTF-8" standalone="no"?>
<!-- Created with Inkscape (http://www.inkscape.org/) -->

<svg
   xmlns:dc="http://purl.org/dc/elements/1.1/"
   xmlns:cc="http://creativecommons.org/ns#"
   xmlns:rdf="http://www.w3.org/1999/02/22-rdf-syntax-ns#"
   xmlns:svg="http://www.w3.org/2000/svg"
   xmlns="http://www.w3.org/2000/svg"
   xmlns:sodipodi="http://sodipodi.sourceforge.net/DTD/sodipodi-0.dtd"
   xmlns:inkscape="http://www.inkscape.org/namespaces/inkscape"
   width="30"
   height="30"
   viewBox="0 0 30 30"
   id="svg4709"
   version="1.1"
   inkscape:version="0.91 r13725"
   sodipodi:docname="currant.svg">
  <defs
     id="defs4711">
    <inkscape:path-effect
       effect="spiro"
       id="path-effect5278"
       is_visible="true" />
    <filter
       height="1.945"
       y="-.473"
       width="1.859"
       x="-.429"
       id="a">
      <feGaussianBlur
         id="feGaussianBlur6069"
         stdDeviation="3.023" />
    </filter>
    <filter
       height="1.945"
       y="-.473"
       width="1.859"
       x="-.429"
       id="b"
       color-interpolation-filters="sRGB">
      <feGaussianBlur
         id="feGaussianBlur6072"
         stdDeviation="3.023" />
    </filter>
  </defs>
  <sodipodi:namedview
     id="base"
     pagecolor="#ffffff"
     bordercolor="#666666"
     borderopacity="1.0"
     inkscape:pageopacity="0.0"
     inkscape:pageshadow="2"
     inkscape:zoom="7.9195959"
     inkscape:cx="26.74574"
     inkscape:cy="7.8781131"
     inkscape:document-units="px"
     inkscape:current-layer="layer1"
     showgrid="false"
     units="px"
     inkscape:window-width="1271"
     inkscape:window-height="728"
     inkscape:window-x="1674"
     inkscape:window-y="107"
     inkscape:window-maximized="0" />
  <metadata
     id="metadata4714">
    <rdf:RDF>
      <cc:Work
         rdf:about="">
        <dc:format>image/svg+xml</dc:format>
        <dc:type
           rdf:resource="http://purl.org/dc/dcmitype/StillImage" />
        <dc:title></dc:title>
      </cc:Work>
    </rdf:RDF>
  </metadata>
  <g
     inkscape:label="Layer 1"
     inkscape:groupmode="layer"
     id="layer1"
     transform="translate(0,-1022.3622)">
    <g
       id="g6074"
       transform="matrix(0.92534518,0,0,0.92534518,1.5543315,1023.1082)">
      <g
         id="g6076">
        <path
           id="path6078"
           d="M 28.922,15.16 C 29.098,22.187 23.237,28.726 16.224,29.307 9.848,30.037 3.324,25.853 1.371,19.727 -0.66,13.84 1.654,6.765 6.895,3.345 c 5.24,-3.605 12.918,-3.068 17.5,1.39 2.854,2.656 4.563,6.518 4.528,10.424 z"
           inkscape:connector-curvature="0"
           style="fill:#6f530c;stroke:#000000;stroke-width:1.27699995;stroke-opacity:0.13900003" />
        <g
           id="g6080"
           style="opacity:0.29100001;stroke:#ffffff;stroke-linecap:round">
          <path
             id="path6082"
             d="m 18.407,8.23 c -2.49,4.404 -4.978,8.81 -7.467,13.213 1.246,-1.772 2.165,-3.77 3.263,-5.644 1.4,-2.524 2.803,-5.047 4.204,-7.57 z"
             inkscape:connector-curvature="0"
             style="opacity:0.88300003;fill:#6f530c;stroke-width:1.00699997;stroke-linejoin:round" />
          <path
             id="path6084"
             d="m 20.61,9.75 -7.466,13.213 c 1.246,-1.772 2.165,-3.768 3.263,-5.643 l 4.204,-7.57 z"
             inkscape:connector-curvature="0"
             style="opacity:0.88300003;fill:#ffffff;stroke-width:1.00699997;stroke-linejoin:round" />
          <path
             id="path6086"
             d="m 19.974,12.61 c -1.47,-2.953 -6.434,-3.33 -7.952,-0.224 -1.158,2.136 -1.504,5.228 0.34,7.08 2.253,1.794 5.854,0.92 7.574,-1.213 l 0.152,-0.242 0.127,-0.256"
             inkscape:connector-curvature="0"
             style="opacity:0.88300003;fill:none;stroke-width:2.04099989" />
        </g>
        <path
           id="path6088"
           transform="matrix(1.237,0,0,0.874,28.32,-0.583)"
           d="m -4.165,13.04 c 0.07,4.595 -4.635,8.078 -9.012,7.674 -4.146,-0.143 -8.19,-3.738 -7.888,-8.062 0.226,-4.49 4.867,-7.74 9.175,-7.277 3.96,0.272 7.792,3.507 7.725,7.666 z"
           inkscape:connector-curvature="0"
           style="opacity:0.31600001;fill:#312405;fill-rule:evenodd;filter:url(#a)" />
        <path
           id="path6090"
           d="m 27.654,15.092 c 0.154,6.376 -5.25,12.223 -11.59,12.702 C 10.112,28.447 4.019,24.404 2.454,18.592 0.822,13.082 3.444,6.672 8.531,3.957 13.79,0.964 21.096,2.274 24.82,7.1 c 1.814,2.24 2.853,5.106 2.834,7.992 z"
           inkscape:connector-curvature="0"
           style="opacity:0.51999996;fill:none;stroke:#ffffff;stroke-width:0.92400002" />
        <g
           id="g6092"
           style="stroke:#312405;stroke-linecap:round">
          <path
             id="path6094"
             d="m 17.63,7.995 c -2.49,4.404 -4.978,8.81 -7.467,13.213 1.246,-1.773 2.165,-3.77 3.264,-5.645 1.4,-2.523 2.802,-5.045 4.203,-7.568 z"
             inkscape:connector-curvature="0"
             style="opacity:0.88300003;fill:#6f530c;stroke-width:1.00699997;stroke-linejoin:round" />
          <path
             id="path6096"
             d="m 19.834,9.516 -7.467,13.212 c 1.247,-1.772 2.166,-3.77 3.264,-5.645 l 4.204,-7.567 z"
             inkscape:connector-curvature="0"
             style="opacity:0.88300003;fill:#ffffff;stroke-width:1.00699997;stroke-linejoin:round" />
          <path
             id="path6098"
             d="m 19.197,12.374 c -1.47,-2.952 -6.434,-3.33 -7.952,-0.223 -1.156,2.135 -1.505,5.23 0.34,7.08 2.253,1.795 5.854,0.92 7.574,-1.212 l 0.15,-0.242 0.128,-0.257"
             inkscape:connector-curvature="0"
             style="opacity:0.88300003;fill:none;stroke-width:2.04099989" />
        </g>
        <path
           id="path6100"
           transform="matrix(0.885,0,0,0.874,29.139,8.374)"
           d="m -4.165,13.04 c 0.067,5.01 -5.432,8.574 -10.096,7.55 -4.35,-0.617 -7.99,-5.28 -6.494,-9.65 1.59,-5.062 8.314,-7.115 12.698,-4.368 2.264,1.32 3.94,3.793 3.89,6.47 z"
           inkscape:connector-curvature="0"
           style="opacity:0.20899999;fill:#f6dfa7;fill-opacity:0.67600002;fill-rule:evenodd;filter:url(#b)" />
        <path
           id="path6102"
           d="m 26.913,15.48 c 0.152,6.043 -5.084,11.54 -11.1,11.817 C 10.08,27.767 4.365,23.543 3.301,17.855 2.161,12.545 5.179,6.703 10.214,4.625 15.42,2.306 22.17,4.28 25.11,9.22 c 1.17,1.863 1.814,4.058 1.803,6.26 z"
           inkscape:connector-curvature="0"
           style="opacity:0.097;fill:none;stroke:#000000;stroke-width:0.85799998" />
      </g>
    </g>
  </g>
</svg>
