<?xml version="1.0" encoding="iso-8859-1"?>
<!-- Generator: Adobe Illustrator 15.0.0, SVG Export Plug-In . SVG Version: 6.00 Build 0)  -->
<!DOCTYPE svg PUBLIC "-//W3C//DTD SVG 1.1//EN" "http://www.w3.org/Graphics/SVG/1.1/DTD/svg11.dtd">
<svg version="1.1" id="Layer_1" xmlns="http://www.w3.org/2000/svg" xmlns:xlink="http://www.w3.org/1999/xlink" x="0px" y="0px"
	 width="128px" height="128px" viewBox="0 0 128 128" style="enable-background:new 0 0 128 128;" xml:space="preserve">
<g>
	<circle style="fill:#FFC200;" cx="64" cy="64" r="64"/>
	<path style="fill:#F2B800;" d="M64,0c-1.685,0-3.349,0.085-5,0.213C92.006,2.768,118,30.339,118,64s-25.994,61.233-59,63.787
		c1.651,0.128,3.315,0.213,5,0.213c35.346,0,64-28.654,64-64S99.346,0,64,0z"/>
	<path style="fill:#F2B800;" d="M102.943,103c-1.916,0-3.635-1.065-4.483-2.781C93.066,89.321,79.218,82,64,82
		s-29.066,7.321-34.46,18.218c-0.85,1.717-2.568,2.782-4.483,2.782c-0.764,0-1.528-0.18-2.216-0.52
		c-1.196-0.593-2.091-1.614-2.519-2.881c-0.428-1.266-0.336-2.622,0.257-3.818C27.729,81.335,44.772,72,64,72
		s36.271,9.335,43.422,23.782c0.592,1.196,0.684,2.553,0.256,3.817c-0.428,1.267-1.321,2.288-2.52,2.882
		C104.472,102.82,103.706,103,102.943,103z"/>
	<path style="fill:#F5F5F5;" d="M64,74c18.473,0,34.813,8.898,41.629,22.669c0.735,1.485,0.127,3.285-1.356,4.021
		c-1.485,0.733-3.284,0.127-4.021-1.357C94.529,87.769,79.961,80,64,80s-30.529,7.769-36.252,19.331
		c-0.735,1.484-2.536,2.092-4.021,1.356c-1.483-0.733-2.093-2.533-1.356-4.02C29.188,82.898,45.527,74,64,74z"/>
	<g>
		<path style="fill:#263740;" d="M51,34c-1.656,0-3,1.344-3,3c0,4.963-4.037,9-9,9s-9-4.037-9-9c0-1.656-1.344-3-3-3s-3,1.344-3,3
			c0,8.271,6.729,15,15,15s15-6.729,15-15C54,35.344,52.656,34,51,34z"/>
		<path style="fill:#263740;" d="M101,34c-1.656,0-3,1.344-3,3c0,4.963-4.037,9-9,9s-9-4.037-9-9c0-1.656-1.344-3-3-3s-3,1.344-3,3
			c0,8.271,6.729,15,15,15s15-6.729,15-15C104,35.344,102.656,34,101,34z"/>
	</g>
</g>
</svg>
