<?xml version="1.0" encoding="iso-8859-1"?>
<!-- Generator: Adobe Illustrator 15.1.0, SVG Export Plug-In . SVG Version: 6.00 Build 0)  -->
<!DOCTYPE svg PUBLIC "-//W3C//DTD SVG 1.1//EN" "http://www.w3.org/Graphics/SVG/1.1/DTD/svg11.dtd">
<svg version="1.1" id="flash0.ai" xmlns="http://www.w3.org/2000/svg" xmlns:xlink="http://www.w3.org/1999/xlink" x="0px" y="0px"
	 width="36.75px" height="57.05px" viewBox="0 0 36.75 57.05" style="enable-background:new 0 0 36.75 57.05;" xml:space="preserve"
	>
<symbol  id="flash0.ai_x5F_3_x2F_Layer_18_copy_x2F__x3C_Path_x3E__x5F_10" viewBox="0 -0.9 0.6 0.9">
	<g id="Layer_1_17_">
		<path style="fill-rule:evenodd;clip-rule:evenodd;fill:#FF8452;" d="M0.6-0.45c0-0.3-0.1-0.45-0.3-0.45C0.1-0.9,0-0.75,0-0.45
			C0-0.15,0.1,0,0.3,0C0.5,0,0.6-0.15,0.6-0.45z"/>
	</g>
</symbol>
<symbol  id="flash0.ai_x5F_3_x2F_Layer_18_copy_x2F__x3C_Path_x3E__x5F_11" viewBox="0 -0.95 0.6 0.95">
	<g id="Layer_1_16_">
		<path style="fill-rule:evenodd;clip-rule:evenodd;fill:#FF8452;" d="M0.6-0.5c0-0.3-0.1-0.45-0.3-0.45C0.1-0.95,0-0.8,0-0.5
			C0-0.167,0.1,0,0.3,0C0.5,0,0.6-0.167,0.6-0.5z"/>
	</g>
</symbol>
<symbol  id="flash0.ai_x5F_3_x2F_Layer_18_copy_x2F__x3C_Path_x3E__x5F_12" viewBox="0 -1.6 1.1 1.6">
	<g id="Layer_1_15_">
		<path style="fill-rule:evenodd;clip-rule:evenodd;fill:#FF8452;" d="M1.1-0.8c0-0.534-0.184-0.8-0.55-0.8S0-1.333,0-0.8
			C0-0.267,0.183,0,0.55,0S1.1-0.267,1.1-0.8z"/>
	</g>
</symbol>
<symbol  id="flash0.ai_x5F_3_x2F_Layer_18_copy_x2F__x3C_Path_x3E__x5F_13" viewBox="0 -1.2 0.85 1.2">
	<g id="Layer_1_14_">
		<path style="fill-rule:evenodd;clip-rule:evenodd;fill:#FF8452;" d="M0.85-0.6C0.85-1,0.7-1.2,0.4-1.2C0.133-1.2,0-1,0-0.6
			S0.133,0,0.4,0C0.7,0,0.85-0.2,0.85-0.6z"/>
	</g>
</symbol>
<symbol  id="flash0.ai_x5F_3_x2F_Layer_18_copy_x2F__x3C_Path_x3E__x5F_14" viewBox="0 -1.25 0.9 1.25">
	<g id="Layer_1_13_">
		<path style="fill-rule:evenodd;clip-rule:evenodd;fill:#FF8452;" d="M0.9-0.6c0-0.433-0.15-0.65-0.45-0.65
			C0.15-1.25,0-1.033,0-0.6C0-0.2,0.15,0,0.45,0C0.75,0,0.9-0.2,0.9-0.6z"/>
	</g>
</symbol>
<symbol  id="flash0.ai_x5F_3_x2F_Layer_18_copy_x2F__x3C_Path_x3E__x5F_15" viewBox="0 -1.9 1.35 1.9">
	<g id="Layer_1_12_">
		<path style="fill-rule:evenodd;clip-rule:evenodd;fill:#FF8452;" d="M1.35-0.95c0-0.267-0.067-0.483-0.2-0.65
			C1.017-1.8,0.867-1.9,0.7-1.9C0.233-1.9,0-1.583,0-0.95S0.233,0,0.7,0c0.167,0,0.316-0.1,0.45-0.3
			C1.283-0.467,1.35-0.683,1.35-0.95z"/>
	</g>
</symbol>
<symbol  id="flash0.ai_x5F_3_x2F_Layer_18_copy_x2F__x3C_Path_x3E__x5F_16" viewBox="0 -1.2 0.9 1.2">
	<g id="Layer_1_11_">
		<path style="fill-rule:evenodd;clip-rule:evenodd;fill:#FF8452;" d="M0.9-0.6c0-0.4-0.15-0.6-0.45-0.6C0.15-1.2,0-1,0-0.6
			S0.15,0,0.45,0C0.75,0,0.9-0.2,0.9-0.6z"/>
	</g>
</symbol>
<symbol  id="flash0.ai_x5F_3_x2F_Layer_18_copy_x2F__x3C_Path_x3E__x5F_17" viewBox="0 -1.8 1.4 1.8">
	<g id="Layer_1_10_">
		<path style="fill-rule:evenodd;clip-rule:evenodd;fill:#FF8452;" d="M1.4-0.9c0-0.233-0.066-0.45-0.2-0.65
			C1.033-1.717,0.867-1.8,0.7-1.8C0.233-1.8,0-1.5,0-0.9S0.233,0,0.7,0c0.167,0,0.333-0.083,0.5-0.25C1.333-0.45,1.4-0.667,1.4-0.9z
			"/>
	</g>
</symbol>
<symbol  id="flash0.ai_x5F_3_x2F_Layer_18_copy_x2F__x3C_Path_x3E__x5F_23" viewBox="0 -4.7 18.2 4.7">
	<g id="Layer_1_9_">
		<linearGradient id="SVGID_1_" gradientUnits="userSpaceOnUse" x1="0" y1="-2.3501" x2="18.2002" y2="-2.3501">
			<stop  offset="0" style="stop-color:#829396"/>
			<stop  offset="1" style="stop-color:#F3F9FA"/>
		</linearGradient>
		<path style="fill-rule:evenodd;clip-rule:evenodd;fill:url(#SVGID_1_);" d="M18.2-2.35c0-0.667-0.883-1.217-2.65-1.65
			c-1.8-0.467-3.95-0.7-6.45-0.7C6.567-4.7,4.417-4.467,2.65-4C0.883-3.567,0-3.017,0-2.35C0-1.717,0.883-1.167,2.65-0.7
			C4.417-0.233,6.567,0,9.1,0c2.5,0,4.65-0.233,6.45-0.7C17.317-1.167,18.2-1.717,18.2-2.35z"/>
	</g>
</symbol>
<symbol  id="flash0.ai_x5F_3_x2F_Layer_18_copy_x2F__x3C_Path_x3E__x5F_29" viewBox="0 -4.7 9 4.7">
	<g id="Layer_1_8_">
		<linearGradient id="SVGID_2_" gradientUnits="userSpaceOnUse" x1="0.0127" y1="-2.3501" x2="8.9877" y2="-2.3501">
			<stop  offset="0" style="stop-color:#F0FCFF"/>
			<stop  offset="1" style="stop-color:#9FC1C9"/>
		</linearGradient>
		<path style="fill-rule:evenodd;clip-rule:evenodd;fill:url(#SVGID_2_);" d="M9-2.35C9-2.983,8.55-3.533,7.65-4
			C6.783-4.467,5.733-4.7,4.5-4.7S2.2-4.467,1.3-4C0.433-3.567,0-3.017,0-2.35C0-1.717,0.433-1.167,1.3-0.7C2.2-0.233,3.267,0,4.5,0
			s2.283-0.233,3.15-0.7C8.55-1.167,9-1.717,9-2.35z"/>
	</g>
</symbol>
<symbol  id="flash0.ai_x5F_3_x2F_Layer_18_copy_x2F__x3C_Path_x3E__x5F_32" viewBox="0 -2.2 4.35 2.2">
	<g id="Layer_1_7_">
		<linearGradient id="SVGID_3_" gradientUnits="userSpaceOnUse" x1="0.0249" y1="-1.1001" x2="4.375" y2="-1.1001">
			<stop  offset="0" style="stop-color:#F0FCFF"/>
			<stop  offset="1" style="stop-color:#9FC1C9"/>
		</linearGradient>
		<path style="fill-rule:evenodd;clip-rule:evenodd;fill:url(#SVGID_3_);" d="M4.35-1.1c0-0.333-0.2-0.6-0.6-0.8
			C3.317-2.1,2.8-2.2,2.2-2.2c-0.6,0-1.117,0.1-1.55,0.3C0.217-1.7,0-1.433,0-1.1c0,0.3,0.217,0.55,0.65,0.75
			C1.083-0.117,1.6,0,2.2,0c0.6,0,1.117-0.117,1.55-0.35C4.15-0.55,4.35-0.8,4.35-1.1z"/>
	</g>
</symbol>
<symbol  id="flash0.ai_x5F_3_x2F_Layer_18_copy_x2F__x3C_Path_x3E__x5F_34" viewBox="0 -3.65 3.9 3.65">
	<g id="Layer_1_6_">
		<linearGradient id="SVGID_4_" gradientUnits="userSpaceOnUse" x1="0.0127" y1="-1.8252" x2="3.8877" y2="-1.8252">
			<stop  offset="0" style="stop-color:#F0FCFF"/>
			<stop  offset="1" style="stop-color:#9FC1C9"/>
		</linearGradient>
		<path style="fill-rule:evenodd;clip-rule:evenodd;fill:url(#SVGID_4_);" d="M3.9-1.85c0-0.5-0.2-0.933-0.6-1.3
			c-0.367-0.333-0.816-0.5-1.35-0.5c-0.534,0-1,0.167-1.4,0.5C0.183-2.783,0-2.35,0-1.85s0.183,0.934,0.55,1.3
			C0.95-0.183,1.417,0,1.95,0C2.483,0,2.933-0.183,3.3-0.55C3.7-0.917,3.9-1.35,3.9-1.85z"/>
	</g>
</symbol>
<symbol  id="flash0.ai_x5F_3_x2F_Layer_18_copy_x2F__x3C_Path_x3E__x5F_35" viewBox="-0.033 -1.311 3.646 1.328">
	<g id="Layer_1_5_">
		<path style="fill-rule:evenodd;clip-rule:evenodd;fill:#597092;" d="M0-0.45c0.8-0.267,1.417-0.4,1.85-0.4
			c0.433,0,0.733,0.267,0.9,0.8c-0.2,0.133-0.017,0.066,0.55-0.2C3.733-0.45,3.717-0.7,3.25-1S2.167-1.383,1.4-1.25
			C0.3-1.017-0.167-0.75,0-0.45z"/>
	</g>
</symbol>
<symbol  id="flash0.ai_x5F_3_x2F_Layer_18_copy_x2F__x3C_Path_x3E__x5F_37" viewBox="0 -3.85 4.356 3.85">
	<g id="Layer_1_4_">
		
			<linearGradient id="SVGID_5_" gradientUnits="userSpaceOnUse" x1="733.647" y1="-16997.4727" x2="737.1847" y2="-16997.4727" gradientTransform="matrix(-0.0848 -0.9964 0.9964 -0.0848 17000.748 -710.6631)">
			<stop  offset="0" style="stop-color:#FFFFFF;stop-opacity:0.7569"/>
			<stop  offset="1" style="stop-color:#FFFFFF;stop-opacity:0"/>
		</linearGradient>
		<path style="fill-rule:evenodd;clip-rule:evenodd;fill:url(#SVGID_5_);" d="M0-0.35L0.2,0c1.167-0.5,2.216-1.033,3.15-1.6
			c0.6-0.367,0.933-0.733,1-1.1C4.383-3,4.283-3.2,4.05-3.3c-0.2-0.133-0.667-0.317-1.4-0.55c0.667,0.6,0.7,1.184,0.1,1.75
			C2.183-1.567,1.267-0.983,0-0.35z"/>
	</g>
</symbol>
<symbol  id="flash0.ai_x5F_3_x2F_Layer_18_copy_x2F__x3C_Path_x3E__x5F_38" viewBox="-0.008 -4.808 11.666 4.808">
	<g id="Layer_1_3_">
		<linearGradient id="SVGID_6_" gradientUnits="userSpaceOnUse" x1="0.0127" y1="-2.4043" x2="11.6792" y2="-2.4043">
			<stop  offset="0" style="stop-color:#F0FCFF"/>
			<stop  offset="1" style="stop-color:#9FC1C9"/>
		</linearGradient>
		<path style="fill-rule:evenodd;clip-rule:evenodd;fill:url(#SVGID_6_);" d="M7.05,0c1.633-0.7,2.767-1.267,3.4-1.7
			c1.4-0.9,1.583-1.6,0.55-2.1C9.367-4.633,7.65-4.95,5.85-4.75c-1.867-0.2-3.6,0.117-5.2,0.95C-0.383-3.3-0.2-2.6,1.2-1.7
			C1.767-1.333,2.9-0.767,4.6,0l1.25-0.1L7.05,0z"/>
	</g>
</symbol>
<symbol  id="flash0.ai_x5F_3_x2F_Layer_18_copy_x2F__x3C_Path_x3E__x5F_39" viewBox="0.031 -36.275 19.337 36.275">
	<g id="Layer_1_2_">
		<linearGradient id="SVGID_7_" gradientUnits="userSpaceOnUse" x1="0.0313" y1="-18.1377" x2="19.3686" y2="-18.1377">
			<stop  offset="0" style="stop-color:#F0FCFF"/>
			<stop  offset="1" style="stop-color:#9FC1C9"/>
		</linearGradient>
		<path style="fill-rule:evenodd;clip-rule:evenodd;fill:url(#SVGID_7_);" d="M18.8-0.1c-0.9-1.3-1.55-2.983-1.95-5.05
			c-0.633-3.267-0.567-7.083,0.2-11.45c0.167-1,0.767-3.117,1.8-6.35c0.767-3.167,0.683-5.75-0.25-7.75c-1.133-2.4-2.8-4.05-5-4.95
			c-1.333-0.5-2.633-0.7-3.9-0.6c-1.267-0.1-2.567,0.1-3.9,0.6c-2.233,0.9-3.9,2.55-5,4.95c-0.933,2-1.017,4.583-0.25,7.75
			c1.034,3.233,1.633,5.35,1.8,6.35C3.117-12.133,3.167-8.267,2.5-5c-0.433,2.1-1.1,3.767-2,5c0.633-0.5,1.783-0.917,3.45-1.25
			c1.733-0.333,3.65-0.5,5.75-0.5c2.066,0,3.933,0.15,5.6,0.45C16.933-1,18.1-0.6,18.8-0.1z"/>
	</g>
</symbol>
<symbol  id="flash0.ai_x5F_3_x2F_Layer_18_copy_x2F__x3C_Path_x3E__x5F_6" viewBox="0 -32.5 3.486 32.5">
	<g id="Layer_1_20_">
		<path style="fill-rule:evenodd;clip-rule:evenodd;fill:#FFFFFF;" d="M1.05-0.55L2.95,0C2.817-0.167,2.533-0.85,2.1-2.05
			c-0.467-1.267-0.817-3.034-1.05-5.3C0.717-10.217,0.8-12.5,1.3-14.2c0.4-1.367,0.95-3.117,1.65-5.25
			c0.5-1.833,0.65-3.783,0.45-5.85c-0.2-1.967-0.816-3.75-1.85-5.35C1.017-31.483,0.5-32.1,0-32.5
			c0.567,0.567,1.117,1.383,1.65,2.45C2.717-27.917,3.167-25.567,3-23c-0.067,1.3-0.633,3.383-1.7,6.25c-0.933,2.6-1.35,5-1.25,7.2
			C0.217-6.217,0.55-3.217,1.05-0.55z"/>
	</g>
</symbol>
<symbol  id="flash0.ai_x5F_3_x2F_Layer_18_copy_x2F__x3C_Path_x3E__x5F_8" viewBox="0.031 -36.275 19.337 36.275">
	<g id="Layer_1_19_">
		<linearGradient id="SVGID_8_" gradientUnits="userSpaceOnUse" x1="0.0313" y1="-18.1377" x2="19.3686" y2="-18.1377">
			<stop  offset="0" style="stop-color:#F0FCFF"/>
			<stop  offset="1" style="stop-color:#9FC1C9"/>
		</linearGradient>
		<path style="fill-rule:evenodd;clip-rule:evenodd;fill:url(#SVGID_8_);" d="M18.8-0.1c-0.9-1.3-1.55-2.983-1.95-5.05
			c-0.633-3.267-0.567-7.083,0.2-11.45c0.167-1,0.767-3.117,1.8-6.35c0.767-3.167,0.683-5.75-0.25-7.75c-1.133-2.4-2.8-4.05-5-4.95
			c-1.333-0.5-2.633-0.7-3.9-0.6c-1.267-0.1-2.567,0.1-3.9,0.6c-2.233,0.9-3.9,2.55-5,4.95c-0.933,2-1.017,4.583-0.25,7.75
			c1.034,3.233,1.633,5.35,1.8,6.35C3.117-12.133,3.167-8.267,2.5-5c-0.433,2.1-1.1,3.767-2,5c0.633-0.5,1.783-0.917,3.45-1.25
			c1.733-0.333,3.65-0.5,5.75-0.5c2.066,0,3.933,0.15,5.6,0.45C16.933-1,18.1-0.6,18.8-0.1z"/>
	</g>
</symbol>
<symbol  id="flash0.ai_x5F_3_x2F_Layer_18_copy_x2F__x3C_Path_x3E__x5F_9" viewBox="0 -1.65 1.25 1.65">
	<g id="Layer_1_18_">
		<path style="fill-rule:evenodd;clip-rule:evenodd;fill:#FF8452;" d="M1.25-0.85c0-0.533-0.217-0.8-0.65-0.8
			C0.2-1.65,0-1.383,0-0.85C0-0.283,0.2,0,0.6,0C1.033,0,1.25-0.283,1.25-0.85z"/>
	</g>
</symbol>
<g>
	<g>
		
			<use xlink:href="#flash0.ai_x5F_3_x2F_Layer_18_copy_x2F__x3C_Path_x3E__x5F_39"  width="19.337" height="36.275" x="0.031" y="-36.275" transform="matrix(0.6672 0 0 -0.6968 14.5 15.0498)" style="overflow:visible;opacity:0.3984;enable-background:new    ;"/>
		
			<use xlink:href="#flash0.ai_x5F_3_x2F_Layer_18_copy_x2F__x3C_Path_x3E__x5F_38"  width="11.666" height="4.808" x="-0.008" y="-4.808" transform="matrix(0.6672 0 0 -0.6968 17.5498 43.75)" style="overflow:visible;opacity:0.8906;enable-background:new    ;"/>
		
			<use xlink:href="#flash0.ai_x5F_3_x2F_Layer_18_copy_x2F__x3C_Path_x3E__x5F_37"  width="4.356" height="3.85" y="-3.85" transform="matrix(0.6672 0 0 -0.6968 22.2002 44.2998)" style="overflow:visible;opacity:0.6289;enable-background:new    ;"/>
		<path style="fill-rule:evenodd;clip-rule:evenodd;fill:none;stroke:#E3FAFF;stroke-width:0.25;" d="M22.224,43.938l-0.801,0.069
			l-0.834-0.069c-1.135,0.534-1.891,0.93-2.269,1.185c-0.935,0.627-1.057,1.115-0.367,1.464c1.067,0.58,2.225,0.801,3.47,0.662
			c1.201,0.139,2.347-0.082,3.437-0.662c0.689-0.349,0.567-0.837-0.367-1.464C24.069,44.821,23.313,44.426,22.224,43.938z"/>
		
			<use xlink:href="#flash0.ai_x5F_3_x2F_Layer_18_copy_x2F__x3C_Path_x3E__x5F_35"  width="3.646" height="1.328" x="-0.033" y="-1.311" transform="matrix(0.6672 0 0 -0.6968 20.7998 44.2998)" style="overflow:visible;opacity:0.3281;enable-background:new    ;"/>
		
			<use xlink:href="#flash0.ai_x5F_3_x2F_Layer_18_copy_x2F__x3C_Path_x3E__x5F_34"  width="3.9" height="3.65" y="-3.65" transform="matrix(0.6672 0 0 -0.6968 20.75 42.0996)" style="overflow:visible;opacity:0.9609;enable-background:new    ;"/>
		<path style="fill-rule:evenodd;clip-rule:evenodd;fill:none;stroke:#E3FAFF;stroke-width:0.25;" d="M22.724,43.485
			c0,0.349-0.133,0.65-0.4,0.906c-0.244,0.232-0.545,0.349-0.9,0.349s-0.667-0.116-0.934-0.349
			c-0.245-0.256-0.367-0.558-0.367-0.906c0-0.348,0.122-0.65,0.367-0.905c0.267-0.256,0.578-0.383,0.934-0.383
			s0.656,0.127,0.9,0.383C22.591,42.835,22.724,43.138,22.724,43.485z"/>
		
			<use xlink:href="#flash0.ai_x5F_3_x2F_Layer_18_copy_x2F__x3C_Path_x3E__x5F_32"  width="4.35" height="2.2" y="-2.2" transform="matrix(0.6672 0 0 -0.6968 19.9004 41.2998)" style="overflow:visible;opacity:0.8203;enable-background:new    ;"/>
		
			<linearGradient id="SVGID_9_" gradientUnits="userSpaceOnUse" x1="34.6865" y1="23.6035" x2="36.4193" y2="23.6035" gradientTransform="matrix(0.4813 0.4825 -0.4621 0.5026 14.3496 13.3503)">
			<stop  offset="0" style="stop-color:#FFFFFF;stop-opacity:0.7569"/>
			<stop  offset="1" style="stop-color:#FFFFFF;stop-opacity:0"/>
		</linearGradient>
		<path style="fill-rule:evenodd;clip-rule:evenodd;fill:url(#SVGID_9_);" d="M20.288,42.127l0.334,0.034v0.21
			c0,0.139,0.134,0.29,0.4,0.452l-0.434-0.208c-0.156-0.07-0.256-0.175-0.301-0.314V42.127z"/>
		<path style="fill-rule:evenodd;clip-rule:evenodd;fill:none;stroke:#E3FAFF;stroke-width:0.25;" d="M22.824,42.267
			c0,0.231-0.134,0.418-0.4,0.557c-0.289,0.14-0.634,0.209-1.034,0.209s-0.745-0.069-1.034-0.209
			c-0.289-0.139-0.434-0.325-0.434-0.557c0-0.209,0.145-0.384,0.434-0.522c0.289-0.163,0.634-0.244,1.034-0.244
			s0.745,0.081,1.034,0.244C22.69,41.883,22.824,42.058,22.824,42.267z"/>
		
			<use xlink:href="#flash0.ai_x5F_3_x2F_Layer_18_copy_x2F__x3C_Path_x3E__x5F_29"  width="9" height="4.7" y="-4.7" transform="matrix(0.6672 0 0 -0.6968 18.5 39.3496)" style="overflow:visible;opacity:0.8281;enable-background:new    ;"/>
		
			<linearGradient id="SVGID_10_" gradientUnits="userSpaceOnUse" x1="25.2002" y1="-31.9287" x2="28.2744" y2="-31.9287" gradientTransform="matrix(-0.3473 0.595 -0.5697 -0.3626 14.3506 13.3498)">
			<stop  offset="0" style="stop-color:#FFFFFF;stop-opacity:0.7569"/>
			<stop  offset="1" style="stop-color:#FFFFFF;stop-opacity:0"/>
		</linearGradient>
		<path style="fill-rule:evenodd;clip-rule:evenodd;fill:url(#SVGID_10_);" d="M23.324,40.002l0.834-0.14l-0.467,0.941
			c-0.312,0.604-0.745,0.905-1.301,0.905c0.267-0.07,0.522-0.279,0.768-0.627c0.178-0.209,0.255-0.453,0.232-0.731L23.324,40.002z"
			/>
		
			<linearGradient id="SVGID_11_" gradientUnits="userSpaceOnUse" x1="34.5205" y1="19.0547" x2="37.1133" y2="19.0547" gradientTransform="matrix(0.4246 0.5375 -0.5147 0.4434 14.3507 13.3499)">
			<stop  offset="0" style="stop-color:#FFFFFF;stop-opacity:0.7569"/>
			<stop  offset="1" style="stop-color:#FFFFFF;stop-opacity:0"/>
		</linearGradient>
		<path style="fill-rule:evenodd;clip-rule:evenodd;fill:url(#SVGID_11_);" d="M19.054,40.176l0.534,0.035
			c0.334,0.046,0.4,0.174,0.2,0.383c-0.312,0.325-0.156,0.744,0.467,1.255c-0.312,0-0.634-0.174-0.968-0.522
			c-0.222-0.21-0.322-0.465-0.3-0.767L19.054,40.176z"/>
		<path style="fill-rule:evenodd;clip-rule:evenodd;fill:none;stroke:#E3FAFF;stroke-width:0.25;" d="M24.325,40.56
			c0,0.441-0.3,0.824-0.9,1.149c-0.578,0.325-1.279,0.488-2.102,0.488c-0.823,0-1.535-0.163-2.136-0.488
			c-0.578-0.302-0.867-0.686-0.867-1.149c0-0.441,0.289-0.825,0.867-1.149c0.601-0.325,1.313-0.488,2.136-0.488
			c0.822,0,1.523,0.163,2.102,0.488C24.025,39.734,24.325,40.118,24.325,40.56z"/>
		
			<linearGradient id="SVGID_12_" gradientUnits="userSpaceOnUse" x1="43.8936" y1="-2.8633" x2="45.0074" y2="-2.8633" gradientTransform="matrix(0.1048 0.6881 -0.6589 0.1095 14.3506 13.3505)">
			<stop  offset="0" style="stop-color:#FFFFFF;stop-opacity:0.7569"/>
			<stop  offset="1" style="stop-color:#FFFFFF;stop-opacity:0"/>
		</linearGradient>
		<path style="fill-rule:evenodd;clip-rule:evenodd;fill:url(#SVGID_12_);" d="M20.756,43.347c0.222-0.07,0.389,0.046,0.5,0.348
			c0.111,0.279,0.012,0.407-0.3,0.384c-0.289-0.023-0.423-0.15-0.4-0.384C20.556,43.485,20.622,43.369,20.756,43.347z"/>
		
			<linearGradient id="SVGID_13_" gradientUnits="userSpaceOnUse" x1="44.0391" y1="-10.9697" x2="47.201" y2="-10.9697" gradientTransform="matrix(-0.058 0.6941 -0.6647 -0.0606 14.3501 13.35)">
			<stop  offset="0" style="stop-color:#FFFFFF;stop-opacity:0.7569"/>
			<stop  offset="1" style="stop-color:#FFFFFF;stop-opacity:0"/>
		</linearGradient>
		<path style="fill-rule:evenodd;clip-rule:evenodd;fill:url(#SVGID_13_);" d="M20.021,44.601l-0.533,0.278
			c-0.356,0.256-0.579,0.546-0.668,0.871c-0.155,0.534,0.089,0.883,0.734,1.045c-0.2,0.023-0.567-0.093-1.102-0.348
			c-0.355-0.163-0.489-0.325-0.4-0.488c0.201-0.186,0.356-0.349,0.468-0.487c0.178-0.163,0.479-0.36,0.9-0.593L20.021,44.601z"/>
		
			<use xlink:href="#flash0.ai_x5F_3_x2F_Layer_18_copy_x2F__x3C_Path_x3E__x5F_23"  width="18.2" height="4.7" y="-4.7" transform="matrix(0.6672 0 0 -0.6968 14.8501 13.3501)" style="overflow:visible;opacity:0.4219;enable-background:new    ;"/>
		
			<radialGradient id="SVGID_14_" cx="22.7314" cy="-1.0225" r="15.1517" gradientTransform="matrix(0.1899 0.668 0.6396 -0.1983 15.6587 12.9449)" gradientUnits="userSpaceOnUse">
			<stop  offset="0" style="stop-color:#FF6D40"/>
			<stop  offset="1" style="stop-color:#AD4305"/>
		</radialGradient>
		<path style="fill-rule:evenodd;clip-rule:evenodd;fill:url(#SVGID_14_);" d="M16.585,21.851l8.841,0.069l0.1,1.951
			c0.066,1.394,0.167,2.369,0.301,2.926c0.066,0.348,0.277,1.15,0.634,2.404c0.333,1.301,0.6,2.415,0.8,3.344
			c0.379,1.788-0.011,3.577-1.167,5.365c-0.379,0.604-1.034,1.162-1.969,1.673c-1.045,0.558-2.102,0.836-3.169,0.836
			c-1.046,0.023-1.913-0.128-2.603-0.453c-0.512-0.256-1.167-0.731-1.968-1.428c-0.667-0.581-1.156-1.371-1.468-2.369
			c-0.267-0.883-0.378-1.836-0.334-2.857c0.044-0.767,0.256-1.846,0.634-3.24c0.445-1.439,0.723-2.415,0.834-2.926
			c0.156-0.627,0.29-1.695,0.4-3.205L16.585,21.851z"/>
		<path style="fill-rule:evenodd;clip-rule:evenodd;fill:#99360D;" d="M19.988,40.281c-1.045-0.187-1.657-0.465-1.835-0.837
			c-0.222-0.395,0.467-0.674,2.068-0.836c1.69-0.186,2.892-0.163,3.604,0.069c0.601,0.21,0.767,0.499,0.5,0.871
			c-0.223,0.349-0.768,0.593-1.635,0.732C21.801,40.443,20.9,40.443,19.988,40.281z"/>
		<path style="fill-rule:evenodd;clip-rule:evenodd;fill:#FFFFFF;" d="M25.427,21.851c0,0.813-1.479,1.312-4.438,1.498
			c-1.156,0.069-2.225-0.07-3.203-0.418c-0.889-0.348-1.334-0.708-1.334-1.08c0-0.325,0.434-0.569,1.301-0.732
			c0.801-0.163,1.846-0.244,3.136-0.244c1.313,0,2.38,0.082,3.203,0.244C24.981,21.282,25.427,21.526,25.427,21.851z"/>
		<path style="fill-rule:evenodd;clip-rule:evenodd;fill:#FFFFFF;" d="M25.46,21.781c0,0.325-0.435,0.615-1.302,0.871
			C23.291,22.884,22.246,23,21.022,23s-2.279-0.116-3.169-0.348c-0.867-0.256-1.301-0.546-1.301-0.871
			c0-0.349,0.434-0.639,1.301-0.871c0.868-0.255,1.924-0.383,3.169-0.383c1.224,0,2.269,0.128,3.136,0.383
			C25.025,21.142,25.46,21.433,25.46,21.781z"/>
		
			<linearGradient id="SVGID_15_" gradientUnits="userSpaceOnUse" x1="-7.2676" y1="-15.3823" x2="3.3223" y2="-15.3823" gradientTransform="matrix(-0.5907 0.324 -0.3103 -0.6168 14.3501 13.35)">
			<stop  offset="0" style="stop-color:#FF6D40"/>
			<stop  offset="1" style="stop-color:#AD4305"/>
		</linearGradient>
		<path style="fill-rule:evenodd;clip-rule:evenodd;fill:url(#SVGID_15_);" d="M25.359,21.851c0,0.348-0.434,0.639-1.301,0.871
			c-0.846,0.232-1.891,0.349-3.136,0.349c-1.246,0-2.291-0.116-3.137-0.349c-0.867-0.232-1.301-0.522-1.301-0.871
			c0-0.349,0.434-0.639,1.301-0.871c0.846-0.232,1.891-0.349,3.137-0.349c1.245,0,2.29,0.116,3.136,0.349
			C24.926,21.212,25.359,21.502,25.359,21.851z"/>
		
			<use xlink:href="#flash0.ai_x5F_3_x2F_Layer_18_copy_x2F__x3C_Path_x3E__x5F_17"  width="1.4" height="1.8" y="-1.8" transform="matrix(0.6672 0 0 -0.6968 22.6504 34.75)" style="overflow:visible;opacity:0.6602;enable-background:new    ;"/>
		
			<use xlink:href="#flash0.ai_x5F_3_x2F_Layer_18_copy_x2F__x3C_Path_x3E__x5F_16"  width="0.9" height="1.2" y="-1.2" transform="matrix(0.6672 0 0 -0.6968 22.0996 28)" style="overflow:visible;opacity:0.6602;enable-background:new    ;"/>
		
			<use xlink:href="#flash0.ai_x5F_3_x2F_Layer_18_copy_x2F__x3C_Path_x3E__x5F_15"  width="1.35" height="1.9" y="-1.9" transform="matrix(0.6672 0 0 -0.6968 18.5 36.7998)" style="overflow:visible;opacity:0.6602;enable-background:new    ;"/>
		
			<use xlink:href="#flash0.ai_x5F_3_x2F_Layer_18_copy_x2F__x3C_Path_x3E__x5F_14"  width="0.9" height="1.25" y="-1.25" transform="matrix(0.6672 0 0 -0.6968 17.5498 34.2998)" style="overflow:visible;opacity:0.6602;enable-background:new    ;"/>
		
			<use xlink:href="#flash0.ai_x5F_3_x2F_Layer_18_copy_x2F__x3C_Path_x3E__x5F_13"  width="0.85" height="1.2" y="-1.2" transform="matrix(0.6672 0 0 -0.6968 18.5996 33.1504)" style="overflow:visible;opacity:0.6602;enable-background:new    ;"/>
		
			<use xlink:href="#flash0.ai_x5F_3_x2F_Layer_18_copy_x2F__x3C_Path_x3E__x5F_12"  width="1.1" height="1.6" y="-1.6" transform="matrix(0.6672 0 0 -0.6968 17.1499 28)" style="overflow:visible;opacity:0.6602;enable-background:new    ;"/>
		
			<use xlink:href="#flash0.ai_x5F_3_x2F_Layer_18_copy_x2F__x3C_Path_x3E__x5F_11"  width="0.6" height="0.95" y="-0.95" transform="matrix(0.6672 0 0 -0.6968 24.4502 24.7998)" style="overflow:visible;opacity:0.6602;enable-background:new    ;"/>
		
			<use xlink:href="#flash0.ai_x5F_3_x2F_Layer_18_copy_x2F__x3C_Path_x3E__x5F_10"  width="0.6" height="0.9" y="-0.9" transform="matrix(0.6672 0 0 -0.6968 24.9502 26.2002)" style="overflow:visible;opacity:0.6602;enable-background:new    ;"/>
		
			<use xlink:href="#flash0.ai_x5F_3_x2F_Layer_18_copy_x2F__x3C_Path_x3E__x5F_9"  width="1.25" height="1.65" y="-1.65" transform="matrix(0.6672 0 0 -0.6968 25.5 33.1504)" style="overflow:visible;opacity:0.6602;enable-background:new    ;"/>
		<path style="fill-rule:evenodd;clip-rule:evenodd;fill:#FFFFFF;" d="M20.021,23.07c0.178,0,0.267-0.093,0.267-0.279
			c0-0.209-0.089-0.313-0.267-0.313c-0.2,0-0.3,0.104-0.3,0.313C19.722,22.978,19.821,23.07,20.021,23.07z M20.021,22.443
			c0.267,0,0.4,0.128,0.4,0.383c0,0.279-0.134,0.418-0.4,0.418c-0.244,0-0.367-0.14-0.367-0.418
			C19.654,22.571,19.777,22.443,20.021,22.443z"/>
		<path style="fill-rule:evenodd;clip-rule:evenodd;fill:#FFFFFF;" d="M20.789,22.199c-0.289,0-0.434,0.151-0.434,0.453
			c0,0.278,0.145,0.418,0.434,0.418s0.434-0.14,0.434-0.418C21.223,22.35,21.078,22.199,20.789,22.199z M20.822,23.314
			c-0.155,0-0.3-0.058-0.434-0.174c-0.111-0.116-0.167-0.255-0.167-0.418s0.056-0.313,0.167-0.453
			c0.134-0.116,0.278-0.174,0.434-0.174s0.289,0.058,0.4,0.174c0.111,0.14,0.167,0.291,0.167,0.453s-0.056,0.302-0.167,0.418
			S20.978,23.314,20.822,23.314z"/>
		
			<use xlink:href="#flash0.ai_x5F_3_x2F_Layer_18_copy_x2F__x3C_Path_x3E__x5F_8"  width="19.337" height="36.275" x="0.031" y="-36.275" transform="matrix(0.6672 0 0 -0.6968 14.5 15.0498)" style="overflow:visible;opacity:0.1797;enable-background:new    ;"/>
		<path style="fill-rule:evenodd;clip-rule:evenodd;fill:none;stroke:#E3FAFF;stroke-width:0.75;" d="M26.961,15.371
			c-0.445,0.349-1.201,0.627-2.269,0.836c-1.112,0.209-2.347,0.313-3.703,0.313c-1.401,0-2.669-0.116-3.803-0.349
			c-1.112-0.232-1.868-0.522-2.269-0.871c0.6,0.883,1.034,2.044,1.301,3.484c0.445,2.276,0.412,4.947-0.1,8.013
			c-0.111,0.697-0.511,2.171-1.201,4.425c-0.49,2.183-0.423,3.96,0.2,5.33c0.734,1.673,1.835,2.821,3.303,3.449
			c0.867,0.349,1.713,0.487,2.536,0.418c0.845,0.069,1.701-0.069,2.568-0.418c1.468-0.628,2.569-1.776,3.303-3.449
			c0.623-1.37,0.689-3.147,0.2-5.33c-0.689-2.253-1.09-3.728-1.2-4.425c-0.513-3.019-0.557-5.656-0.134-7.908
			C25.96,17.426,26.383,16.253,26.961,15.371z"/>
		
			<use xlink:href="#flash0.ai_x5F_3_x2F_Layer_18_copy_x2F__x3C_Path_x3E__x5F_6"  width="3.486" height="32.5" y="-32.5" transform="matrix(0.6672 0 0 -0.6968 23.5996 15.8999)" style="overflow:visible;opacity:0.2305;enable-background:new    ;"/>
		<path style="fill-rule:evenodd;clip-rule:evenodd;fill:#E3FAFF;" d="M25.192,15.928c1.157-0.255,1.734-0.581,1.734-0.976
			c0-0.372-0.577-0.697-1.734-0.976c-1.179-0.279-2.591-0.418-4.236-0.418c-1.624,0-3.025,0.139-4.204,0.418
			c-1.157,0.279-1.735,0.604-1.735,0.976c0,0.395,0.578,0.72,1.735,0.976c1.179,0.279,2.58,0.418,4.204,0.418
			C22.602,16.346,24.014,16.207,25.192,15.928z M25.593,13.873c1.246,0.325,1.869,0.731,1.869,1.219c0,0.465-0.623,0.871-1.869,1.22
			c-1.268,0.325-2.791,0.488-4.57,0.488s-3.303-0.163-4.571-0.488c-1.268-0.349-1.901-0.755-1.901-1.22
			c0-0.488,0.634-0.894,1.901-1.219c1.246-0.348,2.769-0.522,4.571-0.522C22.802,13.35,24.325,13.524,25.593,13.873z"/>
		
			<linearGradient id="SVGID_16_" gradientUnits="userSpaceOnUse" x1="4.8828" y1="-4.5869" x2="17.0078" y2="-4.5869" gradientTransform="matrix(5.502980e-005 0.6968 -0.6672 -6.967774e-004 14.35 13.3498)">
			<stop  offset="0" style="stop-color:#FFFFFF;stop-opacity:0.7569"/>
			<stop  offset="1" style="stop-color:#FFFFFF;stop-opacity:0"/>
		</linearGradient>
		<path style="fill-rule:evenodd;clip-rule:evenodd;fill:url(#SVGID_16_);" d="M16.619,16.242l0.634,0.07
			c0.222,0,0.445,0.081,0.667,0.244c0.267,0.906,0.345,2.369,0.233,4.39c-0.132,2.242-0.448,3.786-0.951,4.634
			c0.149-0.289,0.266-1.392,0.35-3.31c0.089-1.904-0.044-3.484-0.4-4.738C16.997,16.904,16.819,16.474,16.619,16.242z"/>
		
			<linearGradient id="SVGID_17_" gradientUnits="userSpaceOnUse" x1="23.748" y1="-4.3228" x2="27.2245" y2="-4.3228" gradientTransform="matrix(-0.0192 0.6965 -0.667 -0.02 14.35 13.35)">
			<stop  offset="0" style="stop-color:#FFFFFF;stop-opacity:0.5098"/>
			<stop  offset="1" style="stop-color:#FFFFFF;stop-opacity:0"/>
		</linearGradient>
		<path style="fill-rule:evenodd;clip-rule:evenodd;fill:url(#SVGID_17_);" d="M16.519,30.177c0.2-0.208,0.434-0.302,0.701-0.278
			c0.245,0.023,0.333,0.093,0.267,0.209c-0.312,0.627-0.512,1.486-0.601,2.578c-0.066,0.697-0.2,0.929-0.4,0.697
			c-0.4-0.534-0.556-1.15-0.467-1.847C16.063,30.955,16.229,30.503,16.519,30.177z"/>
		<path style="fill-rule:evenodd;clip-rule:evenodd;fill:#FFFFFF;" d="M21.156,20.492c0,0.093-0.045,0.139-0.134,0.139
			c-0.066,0-0.1-0.046-0.1-0.139l0.1-0.104C21.111,20.388,21.156,20.422,21.156,20.492z"/>
		<path style="fill-rule:evenodd;clip-rule:evenodd;fill:#FFFFFF;" d="M25.025,21.049c0,0.14-0.066,0.209-0.199,0.209
			c-0.111,0-0.167-0.07-0.167-0.209c0-0.116,0.056-0.174,0.167-0.174C24.959,20.875,25.025,20.933,25.025,21.049z"/>
		<path style="fill-rule:evenodd;clip-rule:evenodd;fill:#FFFFFF;" d="M24.659,20.945c0,0.093-0.034,0.14-0.101,0.14
			c-0.089,0-0.133-0.047-0.133-0.14c0-0.07,0.044-0.104,0.133-0.104C24.625,20.84,24.659,20.875,24.659,20.945z"/>
		<polygon style="fill-rule:evenodd;clip-rule:evenodd;fill:#FFFFFF;" points="17.219,21.084 17.153,21.154 17.086,21.084 
			17.153,21.015 		"/>
	</g>
	<g>
		
			<use xlink:href="#flash0.ai_x5F_3_x2F_Layer_18_copy_x2F__x3C_Path_x3E__x5F_39"  width="19.337" height="36.275" x="0.031" y="-36.275" transform="matrix(0.75 0 0 -0.75 19.2002 19.6499)" style="overflow:visible;opacity:0.3984;enable-background:new    ;"/>
		
			<use xlink:href="#flash0.ai_x5F_3_x2F_Layer_18_copy_x2F__x3C_Path_x3E__x5F_38"  width="11.666" height="4.808" x="-0.008" y="-4.808" transform="matrix(0.75 0 0 -0.75 22.5498 50.6504)" style="overflow:visible;opacity:0.8906;enable-background:new    ;"/>
		
			<use xlink:href="#flash0.ai_x5F_3_x2F_Layer_18_copy_x2F__x3C_Path_x3E__x5F_37"  width="4.356" height="3.85" y="-3.85" transform="matrix(0.75 0 0 -0.75 27.7998 51)" style="overflow:visible;opacity:0.6289;enable-background:new    ;"/>
		<path style="fill-rule:evenodd;clip-rule:evenodd;fill:none;stroke:#E3FAFF;stroke-width:0.25;" d="M27.85,50.625L26.95,50.7
			l-0.938-0.075c-1.275,0.575-2.125,1-2.55,1.275c-1.051,0.675-1.188,1.2-0.413,1.575c1.2,0.624,2.5,0.862,3.9,0.712
			c1.35,0.15,2.638-0.088,3.862-0.712c0.775-0.375,0.638-0.9-0.412-1.575C29.925,51.575,29.075,51.15,27.85,50.625z"/>
		
			<use xlink:href="#flash0.ai_x5F_3_x2F_Layer_18_copy_x2F__x3C_Path_x3E__x5F_35"  width="3.646" height="1.328" x="-0.033" y="-1.311" transform="matrix(0.75 0 0 -0.75 26.0498 50.8496)" style="overflow:visible;opacity:0.3281;enable-background:new    ;"/>
		
			<use xlink:href="#flash0.ai_x5F_3_x2F_Layer_18_copy_x2F__x3C_Path_x3E__x5F_34"  width="3.9" height="3.65" y="-3.65" transform="matrix(0.75 0 0 -0.75 25.5 48.75)" style="overflow:visible;opacity:0.9609;enable-background:new    ;"/>
		<path style="fill-rule:evenodd;clip-rule:evenodd;fill:none;stroke:#E3FAFF;stroke-width:0.25;" d="M28.412,50.138
			c0,0.375-0.149,0.7-0.449,0.975c-0.275,0.251-0.613,0.375-1.013,0.375c-0.4,0-0.75-0.124-1.05-0.375
			c-0.275-0.274-0.413-0.6-0.413-0.975s0.138-0.7,0.413-0.975c0.3-0.275,0.649-0.413,1.05-0.413c0.399,0,0.737,0.138,1.013,0.413
			C28.263,49.438,28.412,49.763,28.412,50.138z"/>
		
			<use xlink:href="#flash0.ai_x5F_3_x2F_Layer_18_copy_x2F__x3C_Path_x3E__x5F_32"  width="4.35" height="2.2" y="-2.2" transform="matrix(0.75 0 0 -0.75 25.25 48)" style="overflow:visible;opacity:0.8203;enable-background:new    ;"/>
		
			<linearGradient id="SVGID_18_" gradientUnits="userSpaceOnUse" x1="34.6865" y1="23.603" x2="36.4193" y2="23.603" gradientTransform="matrix(0.541 0.5194 -0.5194 0.541 18.9996 17.7004)">
			<stop  offset="0" style="stop-color:#FFFFFF;stop-opacity:0.7569"/>
			<stop  offset="1" style="stop-color:#FFFFFF;stop-opacity:0"/>
		</linearGradient>
		<path style="fill-rule:evenodd;clip-rule:evenodd;fill:url(#SVGID_18_);" d="M25.675,48.675l0.375,0.038v0.225
			c0,0.15,0.15,0.313,0.45,0.487L26.013,49.2c-0.175-0.075-0.288-0.188-0.338-0.338V48.675z"/>
		<path style="fill-rule:evenodd;clip-rule:evenodd;fill:none;stroke:#E3FAFF;stroke-width:0.25;" d="M28.525,48.825
			c0,0.25-0.15,0.45-0.45,0.6c-0.325,0.15-0.713,0.226-1.163,0.226c-0.449,0-0.837-0.075-1.162-0.226
			c-0.325-0.149-0.487-0.35-0.487-0.6c0-0.225,0.162-0.412,0.487-0.563C26.075,48.088,26.463,48,26.912,48
			c0.45,0,0.838,0.088,1.163,0.263C28.375,48.413,28.525,48.601,28.525,48.825z"/>
		
			<use xlink:href="#flash0.ai_x5F_3_x2F_Layer_18_copy_x2F__x3C_Path_x3E__x5F_29"  width="9" height="4.7" y="-4.7" transform="matrix(0.75 0 0 -0.75 23.4502 45.25)" style="overflow:visible;opacity:0.8281;enable-background:new    ;"/>
		
			<linearGradient id="SVGID_19_" gradientUnits="userSpaceOnUse" x1="25.2002" y1="-31.9287" x2="28.2744" y2="-31.9287" gradientTransform="matrix(-0.3903 0.6404 -0.6404 -0.3903 18.9996 17.7003)">
			<stop  offset="0" style="stop-color:#FFFFFF;stop-opacity:0.7569"/>
			<stop  offset="1" style="stop-color:#FFFFFF;stop-opacity:0"/>
		</linearGradient>
		<path style="fill-rule:evenodd;clip-rule:evenodd;fill:url(#SVGID_19_);" d="M29.088,46.388l0.938-0.15L29.5,47.25
			c-0.35,0.65-0.838,0.976-1.463,0.976c0.301-0.075,0.588-0.301,0.863-0.676c0.199-0.225,0.287-0.487,0.262-0.787L29.088,46.388z"/>
		
			<linearGradient id="SVGID_20_" gradientUnits="userSpaceOnUse" x1="34.5205" y1="19.0537" x2="37.1133" y2="19.0537" gradientTransform="matrix(0.4773 0.5785 -0.5785 0.4773 19.0004 17.7002)">
			<stop  offset="0" style="stop-color:#FFFFFF;stop-opacity:0.7569"/>
			<stop  offset="1" style="stop-color:#FFFFFF;stop-opacity:0"/>
		</linearGradient>
		<path style="fill-rule:evenodd;clip-rule:evenodd;fill:url(#SVGID_20_);" d="M24.287,46.575l0.601,0.037
			c0.375,0.05,0.45,0.188,0.225,0.413c-0.35,0.35-0.175,0.8,0.525,1.35c-0.351,0-0.713-0.188-1.088-0.563
			c-0.25-0.225-0.362-0.5-0.337-0.825L24.287,46.575z"/>
		<path style="fill-rule:evenodd;clip-rule:evenodd;fill:none;stroke:#E3FAFF;stroke-width:0.25;" d="M30.213,46.987
			c0,0.476-0.338,0.888-1.013,1.238c-0.65,0.35-1.438,0.524-2.362,0.524c-0.926,0-1.726-0.175-2.4-0.524
			c-0.65-0.325-0.975-0.737-0.975-1.238c0-0.475,0.324-0.888,0.975-1.237c0.675-0.35,1.475-0.524,2.4-0.524
			c0.925,0,1.712,0.175,2.362,0.524C29.875,46.1,30.213,46.513,30.213,46.987z"/>
		
			<linearGradient id="SVGID_21_" gradientUnits="userSpaceOnUse" x1="43.8936" y1="-2.8628" x2="45.0074" y2="-2.8628" gradientTransform="matrix(0.1178 0.7407 -0.7407 0.1178 19.0006 17.7002)">
			<stop  offset="0" style="stop-color:#FFFFFF;stop-opacity:0.7569"/>
			<stop  offset="1" style="stop-color:#FFFFFF;stop-opacity:0"/>
		</linearGradient>
		<path style="fill-rule:evenodd;clip-rule:evenodd;fill:url(#SVGID_21_);" d="M26.2,49.987c0.25-0.074,0.438,0.05,0.563,0.375
			c0.125,0.301,0.013,0.438-0.338,0.413c-0.325-0.025-0.475-0.162-0.45-0.413C25.975,50.138,26.05,50.013,26.2,49.987z"/>
		
			<linearGradient id="SVGID_22_" gradientUnits="userSpaceOnUse" x1="44.0391" y1="-10.9707" x2="47.201" y2="-10.9707" gradientTransform="matrix(-0.0652 0.7472 -0.7472 -0.0652 18.9988 17.7005)">
			<stop  offset="0" style="stop-color:#FFFFFF;stop-opacity:0.7569"/>
			<stop  offset="1" style="stop-color:#FFFFFF;stop-opacity:0"/>
		</linearGradient>
		<path style="fill-rule:evenodd;clip-rule:evenodd;fill:url(#SVGID_22_);" d="M25.375,51.338l-0.6,0.3
			c-0.4,0.274-0.65,0.587-0.75,0.938c-0.176,0.575,0.1,0.95,0.824,1.125c-0.225,0.024-0.637-0.101-1.237-0.375
			c-0.399-0.175-0.55-0.351-0.45-0.525c0.226-0.2,0.4-0.375,0.525-0.524c0.2-0.176,0.537-0.388,1.013-0.638L25.375,51.338z"/>
		
			<use xlink:href="#flash0.ai_x5F_3_x2F_Layer_18_copy_x2F__x3C_Path_x3E__x5F_23"  width="18.2" height="4.7" y="-4.7" transform="matrix(0.75 0 0 -0.75 19.6504 17.8501)" style="overflow:visible;opacity:0.4219;enable-background:new    ;"/>
		
			<radialGradient id="SVGID_23_" cx="22.7314" cy="-1.0225" r="15.1517" gradientTransform="matrix(0.2135 0.719 0.719 -0.2135 20.4702 17.2636)" gradientUnits="userSpaceOnUse">
			<stop  offset="0" style="stop-color:#FF6D40"/>
			<stop  offset="1" style="stop-color:#AD4305"/>
		</radialGradient>
		<path style="fill-rule:evenodd;clip-rule:evenodd;fill:url(#SVGID_23_);" d="M21.513,26.851l9.938,0.074l0.112,2.101
			c0.075,1.5,0.188,2.55,0.338,3.149c0.074,0.375,0.313,1.238,0.713,2.588c0.375,1.4,0.674,2.601,0.898,3.6
			c0.426,1.925-0.012,3.851-1.312,5.775c-0.425,0.649-1.163,1.25-2.213,1.8c-1.175,0.601-2.362,0.9-3.563,0.9
			c-1.175,0.025-2.149-0.138-2.925-0.487c-0.575-0.275-1.313-0.788-2.213-1.538c-0.75-0.625-1.3-1.475-1.649-2.55
			c-0.3-0.95-0.425-1.976-0.375-3.075c0.05-0.825,0.287-1.987,0.712-3.487c0.5-1.55,0.813-2.601,0.938-3.15
			c0.176-0.675,0.325-1.824,0.45-3.449L21.513,26.851z"/>
		<path style="fill-rule:evenodd;clip-rule:evenodd;fill:#99360D;" d="M25.338,46.688c-1.176-0.199-1.863-0.5-2.063-0.899
			c-0.25-0.425,0.524-0.726,2.324-0.9c1.9-0.2,3.25-0.175,4.051,0.075c0.675,0.225,0.862,0.537,0.563,0.938
			c-0.25,0.375-0.863,0.638-1.838,0.787C27.375,46.863,26.362,46.863,25.338,46.688z"/>
		<path style="fill-rule:evenodd;clip-rule:evenodd;fill:#FFFFFF;" d="M31.45,26.851c0,0.875-1.663,1.412-4.987,1.612
			c-1.301,0.075-2.5-0.075-3.601-0.45c-1-0.375-1.5-0.763-1.5-1.162c0-0.351,0.487-0.613,1.463-0.788
			C23.725,25.888,24.9,25.8,26.35,25.8c1.476,0,2.676,0.088,3.601,0.263C30.95,26.238,31.45,26.5,31.45,26.851z"/>
		<path style="fill-rule:evenodd;clip-rule:evenodd;fill:#FFFFFF;" d="M31.487,26.775c0,0.35-0.487,0.662-1.462,0.938
			c-0.976,0.25-2.15,0.375-3.525,0.375s-2.563-0.125-3.563-0.375c-0.975-0.275-1.463-0.587-1.463-0.938
			c0-0.375,0.488-0.688,1.463-0.938c0.975-0.275,2.162-0.413,3.563-0.413c1.375,0,2.55,0.138,3.525,0.413
			C31,26.087,31.487,26.4,31.487,26.775z"/>
		
			<linearGradient id="SVGID_24_" gradientUnits="userSpaceOnUse" x1="-7.2676" y1="-15.3813" x2="3.3223" y2="-15.3813" gradientTransform="matrix(-0.664 0.3488 -0.3488 -0.664 18.9993 17.7005)">
			<stop  offset="0" style="stop-color:#FF6D40"/>
			<stop  offset="1" style="stop-color:#AD4305"/>
		</linearGradient>
		<path style="fill-rule:evenodd;clip-rule:evenodd;fill:url(#SVGID_24_);" d="M31.375,26.851c0,0.375-0.487,0.687-1.463,0.938
			c-0.949,0.25-2.125,0.375-3.524,0.375c-1.4,0-2.575-0.125-3.525-0.375c-0.975-0.25-1.462-0.563-1.462-0.938
			s0.487-0.688,1.462-0.938c0.95-0.25,2.125-0.375,3.525-0.375c1.399,0,2.575,0.125,3.524,0.375
			C30.888,26.163,31.375,26.476,31.375,26.851z"/>
		
			<use xlink:href="#flash0.ai_x5F_3_x2F_Layer_18_copy_x2F__x3C_Path_x3E__x5F_17"  width="1.4" height="1.8" y="-1.8" transform="matrix(0.75 0 0 -0.75 28.4502 40.5)" style="overflow:visible;opacity:0.6602;enable-background:new    ;"/>
		
			<use xlink:href="#flash0.ai_x5F_3_x2F_Layer_18_copy_x2F__x3C_Path_x3E__x5F_16"  width="0.9" height="1.2" y="-1.2" transform="matrix(0.75 0 0 -0.75 27.6504 33.2998)" style="overflow:visible;opacity:0.6602;enable-background:new    ;"/>
		
			<use xlink:href="#flash0.ai_x5F_3_x2F_Layer_18_copy_x2F__x3C_Path_x3E__x5F_15"  width="1.35" height="1.9" y="-1.9" transform="matrix(0.75 0 0 -0.75 23.3496 42.9004)" style="overflow:visible;opacity:0.6602;enable-background:new    ;"/>
		
			<use xlink:href="#flash0.ai_x5F_3_x2F_Layer_18_copy_x2F__x3C_Path_x3E__x5F_14"  width="0.9" height="1.25" y="-1.25" transform="matrix(0.75 0 0 -0.75 22.4502 39.6504)" style="overflow:visible;opacity:0.6602;enable-background:new    ;"/>
		
			<use xlink:href="#flash0.ai_x5F_3_x2F_Layer_18_copy_x2F__x3C_Path_x3E__x5F_13"  width="0.85" height="1.2" y="-1.2" transform="matrix(0.75 0 0 -0.75 23.9004 39.0498)" style="overflow:visible;opacity:0.6602;enable-background:new    ;"/>
		
			<use xlink:href="#flash0.ai_x5F_3_x2F_Layer_18_copy_x2F__x3C_Path_x3E__x5F_12"  width="1.1" height="1.6" y="-1.6" transform="matrix(0.75 0 0 -0.75 21.9502 33.1504)" style="overflow:visible;opacity:0.6602;enable-background:new    ;"/>
		
			<use xlink:href="#flash0.ai_x5F_3_x2F_Layer_18_copy_x2F__x3C_Path_x3E__x5F_11"  width="0.6" height="0.95" y="-0.95" transform="matrix(0.75 0 0 -0.75 30.3496 29.4004)" style="overflow:visible;opacity:0.6602;enable-background:new    ;"/>
		
			<use xlink:href="#flash0.ai_x5F_3_x2F_Layer_18_copy_x2F__x3C_Path_x3E__x5F_10"  width="0.6" height="0.9" y="-0.9" transform="matrix(0.75 0 0 -0.75 30.5498 30.75)" style="overflow:visible;opacity:0.6602;enable-background:new    ;"/>
		
			<use xlink:href="#flash0.ai_x5F_3_x2F_Layer_18_copy_x2F__x3C_Path_x3E__x5F_9"  width="1.25" height="1.65" y="-1.65" transform="matrix(0.75 0 0 -0.75 31.5498 38.75)" style="overflow:visible;opacity:0.6602;enable-background:new    ;"/>
		<path style="fill-rule:evenodd;clip-rule:evenodd;fill:#FFFFFF;" d="M25.375,28.163c0.2,0,0.3-0.1,0.3-0.301
			c0-0.225-0.1-0.337-0.3-0.337c-0.225,0-0.338,0.112-0.338,0.337C25.037,28.063,25.15,28.163,25.375,28.163z M25.375,27.487
			c0.3,0,0.45,0.138,0.45,0.413c0,0.3-0.15,0.45-0.45,0.45c-0.275,0-0.412-0.15-0.412-0.45C24.963,27.625,25.1,27.487,25.375,27.487
			z"/>
		<path style="fill-rule:evenodd;clip-rule:evenodd;fill:#FFFFFF;" d="M26.237,27.226c-0.325,0-0.487,0.162-0.487,0.487
			c0,0.3,0.162,0.45,0.487,0.45s0.487-0.15,0.487-0.45C26.725,27.388,26.563,27.226,26.237,27.226z M26.275,28.425
			c-0.176,0-0.338-0.062-0.488-0.188c-0.125-0.125-0.188-0.275-0.188-0.449c0-0.175,0.063-0.338,0.188-0.488
			c0.15-0.125,0.313-0.188,0.488-0.188c0.175,0,0.324,0.063,0.449,0.188c0.125,0.15,0.188,0.313,0.188,0.488
			c0,0.174-0.063,0.325-0.188,0.449C26.6,28.363,26.45,28.425,26.275,28.425z"/>
		
			<use xlink:href="#flash0.ai_x5F_3_x2F_Layer_18_copy_x2F__x3C_Path_x3E__x5F_8"  width="19.337" height="36.275" x="0.031" y="-36.275" transform="matrix(0.75 0 0 -0.75 19.2002 19.6499)" style="overflow:visible;opacity:0.1797;enable-background:new    ;"/>
		<path style="fill-rule:evenodd;clip-rule:evenodd;fill:none;stroke:#E3FAFF;stroke-width:0.75;" d="M33.176,19.875
			c-0.501,0.375-1.351,0.675-2.551,0.9c-1.25,0.225-2.638,0.337-4.162,0.337c-1.575,0-3-0.125-4.275-0.375
			c-1.25-0.25-2.1-0.563-2.55-0.938C20.313,20.75,20.8,22,21.1,23.55c0.5,2.451,0.463,5.325-0.112,8.625
			c-0.125,0.75-0.575,2.338-1.35,4.763c-0.55,2.35-0.476,4.263,0.225,5.737c0.825,1.801,2.063,3.038,3.713,3.713
			c0.975,0.375,1.925,0.525,2.85,0.45c0.95,0.075,1.913-0.075,2.888-0.45c1.65-0.675,2.888-1.912,3.713-3.713
			c0.7-1.475,0.774-3.388,0.225-5.737c-0.775-2.425-1.225-4.013-1.35-4.763c-0.575-3.25-0.625-6.087-0.15-8.512
			C32.05,22.088,32.525,20.825,33.176,19.875z"/>
		
			<use xlink:href="#flash0.ai_x5F_3_x2F_Layer_18_copy_x2F__x3C_Path_x3E__x5F_6"  width="3.486" height="32.5" y="-32.5" transform="matrix(0.75 0 0 -0.75 29.4502 20.7002)" style="overflow:visible;opacity:0.2305;enable-background:new    ;"/>
		<path style="fill-rule:evenodd;clip-rule:evenodd;fill:#E3FAFF;" d="M31.188,20.476c1.3-0.275,1.949-0.625,1.949-1.051
			c0-0.399-0.649-0.75-1.949-1.05c-1.325-0.3-2.912-0.45-4.763-0.45c-1.825,0-3.399,0.15-4.725,0.45c-1.3,0.3-1.95,0.65-1.95,1.05
			c0,0.425,0.65,0.775,1.95,1.051c1.325,0.3,2.899,0.449,4.725,0.449C28.275,20.925,29.862,20.775,31.188,20.476z M31.638,18.263
			c1.399,0.35,2.101,0.787,2.101,1.313c0,0.5-0.701,0.938-2.101,1.313c-1.425,0.35-3.138,0.525-5.138,0.525
			s-3.713-0.175-5.138-0.525c-1.425-0.375-2.138-0.813-2.138-1.313c0-0.525,0.713-0.962,2.138-1.313
			c1.4-0.375,3.112-0.563,5.138-0.563C28.5,17.7,30.213,17.888,31.638,18.263z"/>
		
			<linearGradient id="SVGID_25_" gradientUnits="userSpaceOnUse" x1="4.8828" y1="-4.5864" x2="17.0078" y2="-4.5864" gradientTransform="matrix(6.185567e-005 0.75 -0.75 -7.500000e-004 19.0002 17.7)">
			<stop  offset="0" style="stop-color:#FFFFFF;stop-opacity:0.7569"/>
			<stop  offset="1" style="stop-color:#FFFFFF;stop-opacity:0"/>
		</linearGradient>
		<path style="fill-rule:evenodd;clip-rule:evenodd;fill:url(#SVGID_25_);" d="M21.55,20.813l0.713,0.075
			c0.25,0,0.5,0.087,0.75,0.263c0.3,0.975,0.388,2.55,0.263,4.725c-0.148,2.413-0.504,4.075-1.069,4.987
			c0.168-0.31,0.299-1.497,0.394-3.563c0.101-2.049-0.05-3.75-0.449-5.1C21.975,21.525,21.775,21.063,21.55,20.813z"/>
		
			<linearGradient id="SVGID_26_" gradientUnits="userSpaceOnUse" x1="23.748" y1="-4.3242" x2="27.2245" y2="-4.3242" gradientTransform="matrix(-0.0216 0.7497 -0.7497 -0.0216 18.9998 17.7004)">
			<stop  offset="0" style="stop-color:#FFFFFF;stop-opacity:0.5098"/>
			<stop  offset="1" style="stop-color:#FFFFFF;stop-opacity:0"/>
		</linearGradient>
		<path style="fill-rule:evenodd;clip-rule:evenodd;fill:url(#SVGID_26_);" d="M21.438,35.813c0.225-0.225,0.487-0.324,0.787-0.3
			c0.275,0.024,0.375,0.1,0.301,0.225c-0.351,0.676-0.575,1.601-0.676,2.775c-0.074,0.75-0.225,1-0.449,0.75
			c-0.45-0.575-0.625-1.237-0.525-1.987C20.925,36.65,21.112,36.163,21.438,35.813z"/>
		<path style="fill-rule:evenodd;clip-rule:evenodd;fill:#FFFFFF;" d="M26.65,25.388c0,0.1-0.051,0.15-0.15,0.15
			c-0.075,0-0.112-0.05-0.112-0.15l0.112-0.112C26.6,25.275,26.65,25.313,26.65,25.388z"/>
		<path style="fill-rule:evenodd;clip-rule:evenodd;fill:#FFFFFF;" d="M31,25.987c0,0.15-0.075,0.226-0.225,0.226
			c-0.125,0-0.188-0.075-0.188-0.226c0-0.125,0.063-0.188,0.188-0.188C30.925,25.8,31,25.863,31,25.987z"/>
		<path style="fill-rule:evenodd;clip-rule:evenodd;fill:#FFFFFF;" d="M30.588,25.875c0,0.1-0.038,0.15-0.113,0.15
			c-0.1,0-0.149-0.05-0.149-0.15c0-0.075,0.05-0.112,0.149-0.112C30.55,25.763,30.588,25.8,30.588,25.875z"/>
		
			<rect x="22.097" y="25.972" transform="matrix(0.7025 -0.7117 0.7117 0.7025 -11.9324 23.5077)" style="fill-rule:evenodd;clip-rule:evenodd;fill:#FFFFFF;" width="0.106" height="0.106"/>
	</g>
	<g>
		
			<use xlink:href="#flash0.ai_x5F_3_x2F_Layer_18_copy_x2F__x3C_Path_x3E__x5F_39"  width="19.337" height="36.275" x="0.031" y="-36.275" transform="matrix(0.6672 0 0 -0.6968 2.9502 18.5498)" style="overflow:visible;opacity:0.3984;enable-background:new    ;"/>
		
			<use xlink:href="#flash0.ai_x5F_3_x2F_Layer_18_copy_x2F__x3C_Path_x3E__x5F_38"  width="11.666" height="4.808" x="-0.008" y="-4.808" transform="matrix(0.6672 0 0 -0.6968 6 47.25)" style="overflow:visible;opacity:0.8906;enable-background:new    ;"/>
		
			<use xlink:href="#flash0.ai_x5F_3_x2F_Layer_18_copy_x2F__x3C_Path_x3E__x5F_37"  width="4.356" height="3.85" y="-3.85" transform="matrix(0.6672 0 0 -0.6968 10.6499 47.7998)" style="overflow:visible;opacity:0.6289;enable-background:new    ;"/>
		<path style="fill-rule:evenodd;clip-rule:evenodd;fill:none;stroke:#E3FAFF;stroke-width:0.25;" d="M10.673,47.438l-0.8,0.069
			l-0.834-0.069c-1.134,0.534-1.891,0.93-2.269,1.185c-0.935,0.627-1.057,1.115-0.367,1.464c1.068,0.58,2.224,0.801,3.47,0.662
			c1.201,0.139,2.346-0.082,3.436-0.662c0.689-0.349,0.567-0.837-0.367-1.464C12.52,48.321,11.763,47.926,10.673,47.438z"/>
		
			<use xlink:href="#flash0.ai_x5F_3_x2F_Layer_18_copy_x2F__x3C_Path_x3E__x5F_35"  width="3.646" height="1.328" x="-0.033" y="-1.311" transform="matrix(0.6672 0 0 -0.6968 9.25 47.7998)" style="overflow:visible;opacity:0.3281;enable-background:new    ;"/>
		
			<use xlink:href="#flash0.ai_x5F_3_x2F_Layer_18_copy_x2F__x3C_Path_x3E__x5F_34"  width="3.9" height="3.65" y="-3.65" transform="matrix(0.6672 0 0 -0.6968 9.2002 45.5996)" style="overflow:visible;opacity:0.9609;enable-background:new    ;"/>
		<path style="fill-rule:evenodd;clip-rule:evenodd;fill:none;stroke:#E3FAFF;stroke-width:0.25;" d="M11.173,46.985
			c0,0.349-0.133,0.65-0.4,0.906c-0.245,0.232-0.545,0.349-0.901,0.349s-0.667-0.116-0.934-0.349
			c-0.245-0.256-0.367-0.558-0.367-0.906c0-0.348,0.123-0.65,0.367-0.905c0.267-0.256,0.578-0.383,0.934-0.383
			s0.656,0.127,0.901,0.383C11.04,46.335,11.173,46.638,11.173,46.985z"/>
		
			<use xlink:href="#flash0.ai_x5F_3_x2F_Layer_18_copy_x2F__x3C_Path_x3E__x5F_32"  width="4.35" height="2.2" y="-2.2" transform="matrix(0.6672 0 0 -0.6968 8.3501 44.7998)" style="overflow:visible;opacity:0.8203;enable-background:new    ;"/>
		
			<linearGradient id="SVGID_27_" gradientUnits="userSpaceOnUse" x1="34.6865" y1="23.603" x2="36.4193" y2="23.603" gradientTransform="matrix(0.4813 0.4825 -0.4621 0.5026 2.7993 16.8503)">
			<stop  offset="0" style="stop-color:#FFFFFF;stop-opacity:0.7569"/>
			<stop  offset="1" style="stop-color:#FFFFFF;stop-opacity:0"/>
		</linearGradient>
		<path style="fill-rule:evenodd;clip-rule:evenodd;fill:url(#SVGID_27_);" d="M8.738,45.627l0.333,0.034v0.21
			c0,0.139,0.134,0.29,0.4,0.452l-0.434-0.208c-0.156-0.07-0.256-0.175-0.3-0.314V45.627z"/>
		<path style="fill-rule:evenodd;clip-rule:evenodd;fill:none;stroke:#E3FAFF;stroke-width:0.25;" d="M11.274,45.767
			c0,0.231-0.134,0.418-0.4,0.557c-0.29,0.14-0.634,0.209-1.035,0.209c-0.4,0-0.745-0.069-1.034-0.209
			c-0.289-0.139-0.434-0.325-0.434-0.557c0-0.209,0.145-0.384,0.434-0.522C9.094,45.081,9.439,45,9.839,45
			c0.4,0,0.745,0.081,1.035,0.244C11.14,45.383,11.274,45.558,11.274,45.767z"/>
		
			<use xlink:href="#flash0.ai_x5F_3_x2F_Layer_18_copy_x2F__x3C_Path_x3E__x5F_29"  width="9" height="4.7" y="-4.7" transform="matrix(0.6672 0 0 -0.6968 6.9502 42.8496)" style="overflow:visible;opacity:0.8281;enable-background:new    ;"/>
		
			<linearGradient id="SVGID_28_" gradientUnits="userSpaceOnUse" x1="25.2002" y1="-31.9297" x2="28.2744" y2="-31.9297" gradientTransform="matrix(-0.3473 0.595 -0.5697 -0.3626 2.7998 16.8498)">
			<stop  offset="0" style="stop-color:#FFFFFF;stop-opacity:0.7569"/>
			<stop  offset="1" style="stop-color:#FFFFFF;stop-opacity:0"/>
		</linearGradient>
		<path style="fill-rule:evenodd;clip-rule:evenodd;fill:url(#SVGID_28_);" d="M11.774,43.502l0.834-0.14l-0.467,0.941
			c-0.312,0.604-0.745,0.905-1.301,0.905c0.267-0.07,0.523-0.279,0.768-0.627c0.178-0.209,0.256-0.453,0.233-0.731L11.774,43.502z"
			/>
		
			<linearGradient id="SVGID_29_" gradientUnits="userSpaceOnUse" x1="34.5205" y1="19.0547" x2="37.1133" y2="19.0547" gradientTransform="matrix(0.4246 0.5375 -0.5147 0.4434 2.7999 16.8499)">
			<stop  offset="0" style="stop-color:#FFFFFF;stop-opacity:0.7569"/>
			<stop  offset="1" style="stop-color:#FFFFFF;stop-opacity:0"/>
		</linearGradient>
		<path style="fill-rule:evenodd;clip-rule:evenodd;fill:url(#SVGID_29_);" d="M7.504,43.676l0.534,0.035
			c0.333,0.046,0.4,0.174,0.2,0.383c-0.312,0.325-0.156,0.744,0.467,1.255c-0.312,0-0.634-0.174-0.968-0.522
			c-0.222-0.21-0.323-0.465-0.3-0.767L7.504,43.676z"/>
		<path style="fill-rule:evenodd;clip-rule:evenodd;fill:none;stroke:#E3FAFF;stroke-width:0.25;" d="M12.775,44.06
			c0,0.441-0.3,0.824-0.9,1.149c-0.579,0.325-1.279,0.488-2.102,0.488s-1.535-0.163-2.135-0.488
			C7.059,44.907,6.77,44.523,6.77,44.06c0-0.441,0.289-0.825,0.867-1.149c0.601-0.325,1.313-0.488,2.135-0.488
			s1.523,0.163,2.102,0.488C12.475,43.234,12.775,43.618,12.775,44.06z"/>
		
			<linearGradient id="SVGID_30_" gradientUnits="userSpaceOnUse" x1="43.8936" y1="-2.8633" x2="45.0074" y2="-2.8633" gradientTransform="matrix(0.1048 0.6881 -0.6589 0.1095 2.7998 16.8505)">
			<stop  offset="0" style="stop-color:#FFFFFF;stop-opacity:0.7569"/>
			<stop  offset="1" style="stop-color:#FFFFFF;stop-opacity:0"/>
		</linearGradient>
		<path style="fill-rule:evenodd;clip-rule:evenodd;fill:url(#SVGID_30_);" d="M9.206,46.847c0.222-0.07,0.389,0.046,0.5,0.348
			c0.111,0.279,0.011,0.407-0.3,0.384c-0.289-0.023-0.422-0.15-0.4-0.384C9.005,46.985,9.072,46.869,9.206,46.847z"/>
		
			<linearGradient id="SVGID_31_" gradientUnits="userSpaceOnUse" x1="44.0391" y1="-10.9707" x2="47.201" y2="-10.9707" gradientTransform="matrix(-0.058 0.6941 -0.6647 -0.0606 2.7993 16.85)">
			<stop  offset="0" style="stop-color:#FFFFFF;stop-opacity:0.7569"/>
			<stop  offset="1" style="stop-color:#FFFFFF;stop-opacity:0"/>
		</linearGradient>
		<path style="fill-rule:evenodd;clip-rule:evenodd;fill:url(#SVGID_31_);" d="M8.471,48.101l-0.534,0.278
			c-0.356,0.256-0.578,0.546-0.667,0.871c-0.156,0.534,0.089,0.883,0.733,1.045c-0.2,0.023-0.567-0.093-1.101-0.348
			c-0.356-0.163-0.489-0.325-0.4-0.488c0.2-0.186,0.356-0.349,0.467-0.487c0.178-0.163,0.478-0.36,0.901-0.593L8.471,48.101z"/>
		
			<use xlink:href="#flash0.ai_x5F_3_x2F_Layer_18_copy_x2F__x3C_Path_x3E__x5F_23"  width="18.2" height="4.7" y="-4.7" transform="matrix(0.6672 0 0 -0.6968 3.2998 16.8501)" style="overflow:visible;opacity:0.4219;enable-background:new    ;"/>
		
			<radialGradient id="SVGID_32_" cx="22.7314" cy="-1.0225" r="15.1517" gradientTransform="matrix(0.1899 0.668 0.6396 -0.1983 4.1079 16.4449)" gradientUnits="userSpaceOnUse">
			<stop  offset="0" style="stop-color:#FF6D40"/>
			<stop  offset="1" style="stop-color:#AD4305"/>
		</radialGradient>
		<path style="fill-rule:evenodd;clip-rule:evenodd;fill:url(#SVGID_32_);" d="M5.035,25.351l8.841,0.069l0.1,1.951
			c0.067,1.394,0.167,2.369,0.3,2.926c0.066,0.349,0.278,1.149,0.634,2.404c0.333,1.301,0.6,2.415,0.8,3.344
			c0.379,1.788-0.011,3.577-1.167,5.365c-0.378,0.604-1.035,1.162-1.969,1.673c-1.045,0.558-2.102,0.836-3.169,0.836
			c-1.045,0.023-1.913-0.128-2.602-0.453c-0.512-0.256-1.167-0.731-1.968-1.428c-0.667-0.581-1.156-1.371-1.468-2.369
			c-0.267-0.883-0.378-1.836-0.334-2.857c0.044-0.767,0.256-1.846,0.634-3.24c0.445-1.439,0.723-2.415,0.834-2.926
			c0.156-0.627,0.29-1.696,0.4-3.205L5.035,25.351z"/>
		<path style="fill-rule:evenodd;clip-rule:evenodd;fill:#99360D;" d="M8.438,43.781c-1.045-0.187-1.657-0.465-1.835-0.837
			c-0.222-0.395,0.467-0.674,2.068-0.836c1.69-0.186,2.892-0.163,3.604,0.069c0.6,0.21,0.767,0.499,0.5,0.871
			c-0.222,0.349-0.768,0.593-1.635,0.732C10.25,43.943,9.35,43.943,8.438,43.781z"/>
		<path style="fill-rule:evenodd;clip-rule:evenodd;fill:#FFFFFF;" d="M13.876,25.351c0,0.813-1.479,1.312-4.437,1.498
			c-1.157,0.069-2.224-0.07-3.203-0.418c-0.889-0.348-1.334-0.708-1.334-1.08c0-0.325,0.434-0.569,1.301-0.732
			c0.801-0.163,1.846-0.244,3.136-0.244c1.313,0,2.38,0.082,3.203,0.244C13.431,24.782,13.876,25.026,13.876,25.351z"/>
		<path style="fill-rule:evenodd;clip-rule:evenodd;fill:#FFFFFF;" d="M13.909,25.281c0,0.325-0.434,0.615-1.301,0.871
			c-0.868,0.232-1.913,0.348-3.136,0.348s-2.28-0.116-3.169-0.348c-0.867-0.256-1.301-0.546-1.301-0.871
			c0-0.349,0.434-0.639,1.301-0.871c0.867-0.255,1.924-0.383,3.169-0.383c1.223,0,2.269,0.128,3.136,0.383
			C13.476,24.642,13.909,24.933,13.909,25.281z"/>
		
			<linearGradient id="SVGID_33_" gradientUnits="userSpaceOnUse" x1="-7.2676" y1="-15.3799" x2="3.3223" y2="-15.3799" gradientTransform="matrix(-0.5907 0.324 -0.3103 -0.6168 2.8003 16.85)">
			<stop  offset="0" style="stop-color:#FF6D40"/>
			<stop  offset="1" style="stop-color:#AD4305"/>
		</linearGradient>
		<path style="fill-rule:evenodd;clip-rule:evenodd;fill:url(#SVGID_33_);" d="M13.809,25.351c0,0.348-0.434,0.639-1.301,0.871
			c-0.845,0.232-1.89,0.349-3.136,0.349s-2.291-0.116-3.136-0.349c-0.867-0.232-1.301-0.522-1.301-0.871
			c0-0.349,0.434-0.639,1.301-0.871c0.845-0.232,1.891-0.349,3.136-0.349s2.291,0.116,3.136,0.349
			C13.375,24.712,13.809,25.002,13.809,25.351z"/>
		
			<use xlink:href="#flash0.ai_x5F_3_x2F_Layer_18_copy_x2F__x3C_Path_x3E__x5F_17"  width="1.4" height="1.8" y="-1.8" transform="matrix(0.6672 0 0 -0.6968 11.1001 38.25)" style="overflow:visible;opacity:0.6602;enable-background:new    ;"/>
		
			<use xlink:href="#flash0.ai_x5F_3_x2F_Layer_18_copy_x2F__x3C_Path_x3E__x5F_16"  width="0.9" height="1.2" y="-1.2" transform="matrix(0.6672 0 0 -0.6968 10.5498 31.5)" style="overflow:visible;opacity:0.6602;enable-background:new    ;"/>
		
			<use xlink:href="#flash0.ai_x5F_3_x2F_Layer_18_copy_x2F__x3C_Path_x3E__x5F_15"  width="1.35" height="1.9" y="-1.9" transform="matrix(0.6672 0 0 -0.6968 6.9502 40.2998)" style="overflow:visible;opacity:0.6602;enable-background:new    ;"/>
		
			<use xlink:href="#flash0.ai_x5F_3_x2F_Layer_18_copy_x2F__x3C_Path_x3E__x5F_14"  width="0.9" height="1.25" y="-1.25" transform="matrix(0.6672 0 0 -0.6968 6 37.7998)" style="overflow:visible;opacity:0.6602;enable-background:new    ;"/>
		
			<use xlink:href="#flash0.ai_x5F_3_x2F_Layer_18_copy_x2F__x3C_Path_x3E__x5F_13"  width="0.85" height="1.2" y="-1.2" transform="matrix(0.6672 0 0 -0.6968 7.0498 36.6504)" style="overflow:visible;opacity:0.6602;enable-background:new    ;"/>
		
			<use xlink:href="#flash0.ai_x5F_3_x2F_Layer_18_copy_x2F__x3C_Path_x3E__x5F_12"  width="1.1" height="1.6" y="-1.6" transform="matrix(0.6672 0 0 -0.6968 5.6001 31.5)" style="overflow:visible;opacity:0.6602;enable-background:new    ;"/>
		
			<use xlink:href="#flash0.ai_x5F_3_x2F_Layer_18_copy_x2F__x3C_Path_x3E__x5F_11"  width="0.6" height="0.95" y="-0.95" transform="matrix(0.6672 0 0 -0.6968 12.8999 28.2998)" style="overflow:visible;opacity:0.6602;enable-background:new    ;"/>
		
			<use xlink:href="#flash0.ai_x5F_3_x2F_Layer_18_copy_x2F__x3C_Path_x3E__x5F_10"  width="0.6" height="0.9" y="-0.9" transform="matrix(0.6672 0 0 -0.6968 13.3999 29.7002)" style="overflow:visible;opacity:0.6602;enable-background:new    ;"/>
		
			<use xlink:href="#flash0.ai_x5F_3_x2F_Layer_18_copy_x2F__x3C_Path_x3E__x5F_9"  width="1.25" height="1.65" y="-1.65" transform="matrix(0.6672 0 0 -0.6968 13.9502 36.6504)" style="overflow:visible;opacity:0.6602;enable-background:new    ;"/>
		<path style="fill-rule:evenodd;clip-rule:evenodd;fill:#FFFFFF;" d="M8.471,25.943c0.267,0,0.4,0.128,0.4,0.383
			c0,0.279-0.133,0.418-0.4,0.418c-0.245,0-0.367-0.14-0.367-0.418C8.104,26.071,8.227,25.943,8.471,25.943z M8.471,26.57
			c0.178,0,0.267-0.093,0.267-0.279c0-0.209-0.089-0.313-0.267-0.313c-0.2,0-0.3,0.104-0.3,0.313
			C8.171,26.478,8.271,26.57,8.471,26.57z"/>
		<path style="fill-rule:evenodd;clip-rule:evenodd;fill:#FFFFFF;" d="M9.272,26.814c-0.156,0-0.3-0.058-0.434-0.174
			c-0.111-0.116-0.167-0.255-0.167-0.418s0.056-0.313,0.167-0.453c0.133-0.116,0.278-0.174,0.434-0.174s0.289,0.058,0.4,0.174
			c0.111,0.14,0.167,0.291,0.167,0.453s-0.055,0.302-0.167,0.418S9.428,26.814,9.272,26.814z M9.239,25.699
			c-0.289,0-0.434,0.151-0.434,0.453c0,0.278,0.145,0.418,0.434,0.418s0.434-0.14,0.434-0.418
			C9.672,25.85,9.528,25.699,9.239,25.699z"/>
		
			<use xlink:href="#flash0.ai_x5F_3_x2F_Layer_18_copy_x2F__x3C_Path_x3E__x5F_8"  width="19.337" height="36.275" x="0.031" y="-36.275" transform="matrix(0.6672 0 0 -0.6968 2.9502 18.5498)" style="overflow:visible;opacity:0.1797;enable-background:new    ;"/>
		<path style="fill-rule:evenodd;clip-rule:evenodd;fill:none;stroke:#E3FAFF;stroke-width:0.75;" d="M15.411,18.871
			c-0.445,0.349-1.201,0.627-2.269,0.836c-1.112,0.209-2.347,0.313-3.703,0.313c-1.401,0-2.669-0.116-3.803-0.349
			c-1.112-0.232-1.868-0.522-2.269-0.871c0.6,0.883,1.034,2.044,1.301,3.484c0.445,2.276,0.412,4.947-0.1,8.013
			c-0.111,0.696-0.511,2.172-1.201,4.425c-0.49,2.183-0.423,3.96,0.2,5.33c0.734,1.673,1.835,2.821,3.303,3.449
			c0.867,0.349,1.712,0.487,2.535,0.418c0.845,0.069,1.702-0.069,2.569-0.418c1.468-0.628,2.569-1.776,3.303-3.449
			c0.623-1.37,0.689-3.147,0.2-5.33c-0.689-2.253-1.09-3.729-1.201-4.425c-0.512-3.019-0.556-5.656-0.134-7.908
			C14.41,20.926,14.832,19.753,15.411,18.871z"/>
		
			<use xlink:href="#flash0.ai_x5F_3_x2F_Layer_18_copy_x2F__x3C_Path_x3E__x5F_6"  width="3.486" height="32.5" y="-32.5" transform="matrix(0.6672 0 0 -0.6968 12.0498 19.3999)" style="overflow:visible;opacity:0.2305;enable-background:new    ;"/>
		<path style="fill-rule:evenodd;clip-rule:evenodd;fill:#E3FAFF;" d="M14.043,17.373c1.246,0.325,1.868,0.731,1.868,1.219
			c0,0.465-0.623,0.871-1.868,1.22c-1.268,0.325-2.792,0.488-4.571,0.488s-3.303-0.163-4.571-0.488C3.634,19.463,3,19.057,3,18.592
			c0-0.488,0.634-0.894,1.901-1.219c1.246-0.348,2.769-0.522,4.571-0.522C11.251,16.85,12.775,17.024,14.043,17.373z M13.643,19.428
			c1.156-0.255,1.734-0.581,1.734-0.976c0-0.372-0.578-0.697-1.734-0.976c-1.179-0.279-2.591-0.418-4.237-0.418
			c-1.624,0-3.024,0.139-4.203,0.418c-1.157,0.279-1.735,0.604-1.735,0.976c0,0.395,0.579,0.72,1.735,0.976
			c1.179,0.279,2.58,0.418,4.203,0.418C11.051,19.846,12.464,19.707,13.643,19.428z"/>
		
			<linearGradient id="SVGID_34_" gradientUnits="userSpaceOnUse" x1="4.8828" y1="-4.5859" x2="17.0078" y2="-4.5859" gradientTransform="matrix(5.502980e-005 0.6968 -0.6672 -6.967774e-004 2.8002 16.8498)">
			<stop  offset="0" style="stop-color:#FFFFFF;stop-opacity:0.7569"/>
			<stop  offset="1" style="stop-color:#FFFFFF;stop-opacity:0"/>
		</linearGradient>
		<path style="fill-rule:evenodd;clip-rule:evenodd;fill:url(#SVGID_34_);" d="M5.068,19.742l0.634,0.07
			c0.222,0,0.445,0.081,0.667,0.244c0.267,0.906,0.345,2.369,0.233,4.39c-0.131,2.242-0.448,3.786-0.951,4.633
			c0.149-0.288,0.266-1.391,0.35-3.31c0.089-1.904-0.044-3.484-0.4-4.738C5.447,20.404,5.269,19.974,5.068,19.742z"/>
		
			<linearGradient id="SVGID_35_" gradientUnits="userSpaceOnUse" x1="23.748" y1="-4.3237" x2="27.2245" y2="-4.3237" gradientTransform="matrix(-0.0192 0.6965 -0.667 -0.02 2.7992 16.85)">
			<stop  offset="0" style="stop-color:#FFFFFF;stop-opacity:0.5098"/>
			<stop  offset="1" style="stop-color:#FFFFFF;stop-opacity:0"/>
		</linearGradient>
		<path style="fill-rule:evenodd;clip-rule:evenodd;fill:url(#SVGID_35_);" d="M4.968,33.677c0.2-0.208,0.434-0.302,0.701-0.278
			c0.245,0.023,0.333,0.093,0.267,0.209c-0.312,0.627-0.512,1.486-0.601,2.578c-0.066,0.697-0.2,0.929-0.4,0.697
			c-0.4-0.534-0.556-1.15-0.467-1.847C4.513,34.455,4.679,34.003,4.968,33.677z"/>
		<path style="fill-rule:evenodd;clip-rule:evenodd;fill:#FFFFFF;" d="M9.606,23.992c0,0.093-0.045,0.139-0.134,0.139
			c-0.067,0-0.1-0.046-0.1-0.139l0.1-0.104C9.561,23.888,9.606,23.922,9.606,23.992z"/>
		<path style="fill-rule:evenodd;clip-rule:evenodd;fill:#FFFFFF;" d="M13.476,24.549c0,0.14-0.067,0.209-0.2,0.209
			c-0.111,0-0.167-0.07-0.167-0.209c0-0.116,0.055-0.174,0.167-0.174C13.409,24.375,13.476,24.433,13.476,24.549z"/>
		<path style="fill-rule:evenodd;clip-rule:evenodd;fill:#FFFFFF;" d="M13.109,24.445c0,0.093-0.034,0.14-0.101,0.14
			c-0.089,0-0.133-0.047-0.133-0.14c0-0.07,0.044-0.104,0.133-0.104C13.075,24.34,13.109,24.375,13.109,24.445z"/>
		<polygon style="fill-rule:evenodd;clip-rule:evenodd;fill:#FFFFFF;" points="5.669,24.584 5.603,24.654 5.536,24.584 
			5.603,24.515 		"/>
	</g>
	<g>
		
			<use xlink:href="#flash0.ai_x5F_3_x2F_Layer_18_copy_x2F__x3C_Path_x3E__x5F_39"  width="19.337" height="36.275" x="0.031" y="-36.275" transform="matrix(0.75 0 0 -0.75 9.6001 22.4502)" style="overflow:visible;opacity:0.3984;enable-background:new    ;"/>
		
			<use xlink:href="#flash0.ai_x5F_3_x2F_Layer_18_copy_x2F__x3C_Path_x3E__x5F_38"  width="11.666" height="4.808" x="-0.008" y="-4.808" transform="matrix(0.75 0 0 -0.75 12.9502 53.4502)" style="overflow:visible;opacity:0.8906;enable-background:new    ;"/>
		
			<use xlink:href="#flash0.ai_x5F_3_x2F_Layer_18_copy_x2F__x3C_Path_x3E__x5F_37"  width="4.356" height="3.85" y="-3.85" transform="matrix(0.75 0 0 -0.75 18.2002 53.7998)" style="overflow:visible;opacity:0.6289;enable-background:new    ;"/>
		<path style="fill-rule:evenodd;clip-rule:evenodd;fill:none;stroke:#E3FAFF;stroke-width:0.25;" d="M18.25,53.426l-0.9,0.074
			l-0.938-0.074c-1.275,0.574-2.125,0.999-2.55,1.273c-1.05,0.676-1.188,1.201-0.413,1.576c1.2,0.625,2.5,0.861,3.9,0.713
			c1.35,0.148,2.637-0.088,3.863-0.713c0.774-0.375,0.637-0.9-0.413-1.576C20.325,54.375,19.475,53.949,18.25,53.426z"/>
		
			<use xlink:href="#flash0.ai_x5F_3_x2F_Layer_18_copy_x2F__x3C_Path_x3E__x5F_35"  width="3.646" height="1.328" x="-0.033" y="-1.311" transform="matrix(0.75 0 0 -0.75 16.4502 53.6504)" style="overflow:visible;opacity:0.3281;enable-background:new    ;"/>
		
			<use xlink:href="#flash0.ai_x5F_3_x2F_Layer_18_copy_x2F__x3C_Path_x3E__x5F_34"  width="3.9" height="3.65" y="-3.65" transform="matrix(0.75 0 0 -0.75 15.8999 51.5498)" style="overflow:visible;opacity:0.9609;enable-background:new    ;"/>
		<path style="fill-rule:evenodd;clip-rule:evenodd;fill:none;stroke:#E3FAFF;stroke-width:0.25;" d="M18.813,52.938
			c0,0.375-0.15,0.7-0.45,0.975c-0.274,0.251-0.612,0.375-1.012,0.375s-0.75-0.124-1.05-0.375c-0.275-0.274-0.413-0.6-0.413-0.975
			s0.138-0.7,0.413-0.975c0.3-0.275,0.65-0.412,1.05-0.412s0.738,0.137,1.012,0.412C18.662,52.237,18.813,52.563,18.813,52.938z"/>
		
			<use xlink:href="#flash0.ai_x5F_3_x2F_Layer_18_copy_x2F__x3C_Path_x3E__x5F_32"  width="4.35" height="2.2" y="-2.2" transform="matrix(0.75 0 0 -0.75 15.6499 50.7998)" style="overflow:visible;opacity:0.8203;enable-background:new    ;"/>
		
			<linearGradient id="SVGID_36_" gradientUnits="userSpaceOnUse" x1="34.6865" y1="23.6025" x2="36.4193" y2="23.6025" gradientTransform="matrix(0.541 0.5194 -0.5194 0.541 9.3995 20.5002)">
			<stop  offset="0" style="stop-color:#FFFFFF;stop-opacity:0.7569"/>
			<stop  offset="1" style="stop-color:#FFFFFF;stop-opacity:0"/>
		</linearGradient>
		<path style="fill-rule:evenodd;clip-rule:evenodd;fill:url(#SVGID_36_);" d="M16.075,51.475l0.375,0.037v0.227
			c0,0.148,0.15,0.312,0.45,0.486L16.413,52c-0.175-0.074-0.288-0.188-0.338-0.338V51.475z"/>
		<path style="fill-rule:evenodd;clip-rule:evenodd;fill:none;stroke:#E3FAFF;stroke-width:0.25;" d="M18.925,51.625
			c0,0.25-0.149,0.449-0.45,0.6c-0.325,0.15-0.712,0.225-1.162,0.225c-0.45,0-0.838-0.074-1.163-0.225s-0.487-0.35-0.487-0.6
			c0-0.225,0.163-0.412,0.487-0.563c0.325-0.175,0.712-0.262,1.163-0.262c0.45,0,0.837,0.087,1.162,0.262
			C18.775,51.213,18.925,51.4,18.925,51.625z"/>
		
			<use xlink:href="#flash0.ai_x5F_3_x2F_Layer_18_copy_x2F__x3C_Path_x3E__x5F_29"  width="9" height="4.7" y="-4.7" transform="matrix(0.75 0 0 -0.75 13.8501 48.0498)" style="overflow:visible;opacity:0.8281;enable-background:new    ;"/>
		
			<linearGradient id="SVGID_37_" gradientUnits="userSpaceOnUse" x1="25.2002" y1="-31.9287" x2="28.2744" y2="-31.9287" gradientTransform="matrix(-0.3903 0.6404 -0.6404 -0.3903 9.4 20.5001)">
			<stop  offset="0" style="stop-color:#FFFFFF;stop-opacity:0.7569"/>
			<stop  offset="1" style="stop-color:#FFFFFF;stop-opacity:0"/>
		</linearGradient>
		<path style="fill-rule:evenodd;clip-rule:evenodd;fill:url(#SVGID_37_);" d="M19.487,49.188l0.938-0.15L19.9,50.051
			c-0.351,0.649-0.838,0.975-1.463,0.975c0.3-0.076,0.588-0.301,0.862-0.676c0.2-0.225,0.288-0.486,0.263-0.787L19.487,49.188z"/>
		
			<linearGradient id="SVGID_38_" gradientUnits="userSpaceOnUse" x1="34.5205" y1="19.0527" x2="37.1133" y2="19.0527" gradientTransform="matrix(0.4773 0.5785 -0.5785 0.4773 9.3998 20.5)">
			<stop  offset="0" style="stop-color:#FFFFFF;stop-opacity:0.7569"/>
			<stop  offset="1" style="stop-color:#FFFFFF;stop-opacity:0"/>
		</linearGradient>
		<path style="fill-rule:evenodd;clip-rule:evenodd;fill:url(#SVGID_38_);" d="M14.688,49.375l0.6,0.037
			c0.375,0.05,0.45,0.188,0.225,0.412c-0.35,0.351-0.175,0.801,0.525,1.352c-0.35,0-0.713-0.188-1.088-0.563
			c-0.25-0.227-0.362-0.501-0.337-0.826L14.688,49.375z"/>
		<path style="fill-rule:evenodd;clip-rule:evenodd;fill:none;stroke:#E3FAFF;stroke-width:0.25;" d="M20.612,49.787
			c0,0.476-0.337,0.888-1.013,1.238c-0.649,0.35-1.438,0.525-2.362,0.525s-1.725-0.176-2.4-0.525
			c-0.65-0.325-0.975-0.738-0.975-1.238c0-0.475,0.325-0.888,0.975-1.236c0.675-0.351,1.475-0.525,2.4-0.525S18.95,48.2,19.6,48.551
			C20.275,48.899,20.612,49.313,20.612,49.787z"/>
		
			<linearGradient id="SVGID_39_" gradientUnits="userSpaceOnUse" x1="43.8936" y1="-2.8633" x2="45.0074" y2="-2.8633" gradientTransform="matrix(0.1178 0.7407 -0.7407 0.1178 9.4 20.5)">
			<stop  offset="0" style="stop-color:#FFFFFF;stop-opacity:0.7569"/>
			<stop  offset="1" style="stop-color:#FFFFFF;stop-opacity:0"/>
		</linearGradient>
		<path style="fill-rule:evenodd;clip-rule:evenodd;fill:url(#SVGID_39_);" d="M16.6,52.787c0.25-0.074,0.437,0.05,0.563,0.375
			c0.125,0.301,0.012,0.438-0.338,0.412c-0.325-0.024-0.475-0.161-0.45-0.412C16.375,52.938,16.45,52.813,16.6,52.787z"/>
		
			<linearGradient id="SVGID_40_" gradientUnits="userSpaceOnUse" x1="44.0391" y1="-10.9697" x2="47.201" y2="-10.9697" gradientTransform="matrix(-0.0652 0.7472 -0.7472 -0.0652 9.3992 20.5003)">
			<stop  offset="0" style="stop-color:#FFFFFF;stop-opacity:0.7569"/>
			<stop  offset="1" style="stop-color:#FFFFFF;stop-opacity:0"/>
		</linearGradient>
		<path style="fill-rule:evenodd;clip-rule:evenodd;fill:url(#SVGID_40_);" d="M15.775,54.137l-0.6,0.301
			c-0.4,0.274-0.65,0.588-0.75,0.938c-0.175,0.575,0.1,0.95,0.825,1.125c-0.225,0.025-0.638-0.101-1.238-0.375
			c-0.4-0.175-0.55-0.35-0.45-0.525c0.225-0.199,0.4-0.375,0.525-0.525c0.2-0.175,0.538-0.387,1.013-0.637L15.775,54.137z"/>
		
			<use xlink:href="#flash0.ai_x5F_3_x2F_Layer_18_copy_x2F__x3C_Path_x3E__x5F_23"  width="18.2" height="4.7" y="-4.7" transform="matrix(0.75 0 0 -0.75 10.0498 20.6499)" style="overflow:visible;opacity:0.4219;enable-background:new    ;"/>
		
			<radialGradient id="SVGID_41_" cx="22.7314" cy="-1.0225" r="15.1517" gradientTransform="matrix(0.2135 0.719 0.719 -0.2135 10.8706 20.0634)" gradientUnits="userSpaceOnUse">
			<stop  offset="0" style="stop-color:#FF6D40"/>
			<stop  offset="1" style="stop-color:#AD4305"/>
		</radialGradient>
		<path style="fill-rule:evenodd;clip-rule:evenodd;fill:url(#SVGID_41_);" d="M11.913,29.65l9.937,0.074l0.113,2.101
			c0.074,1.5,0.188,2.55,0.337,3.149c0.075,0.375,0.313,1.238,0.713,2.588c0.375,1.4,0.675,2.6,0.899,3.6
			c0.426,1.925-0.013,3.851-1.313,5.775c-0.425,0.649-1.162,1.25-2.212,1.801c-1.175,0.6-2.362,0.898-3.563,0.898
			c-1.175,0.026-2.15-0.137-2.925-0.486c-0.575-0.275-1.313-0.787-2.212-1.537c-0.75-0.626-1.3-1.476-1.65-2.551
			c-0.3-0.95-0.425-1.976-0.375-3.075C9.712,41.162,9.95,40,10.375,38.5c0.5-1.55,0.813-2.6,0.938-3.15
			c0.175-0.675,0.325-1.824,0.45-3.449L11.913,29.65z"/>
		<path style="fill-rule:evenodd;clip-rule:evenodd;fill:#99360D;" d="M15.737,49.488c-1.175-0.2-1.862-0.501-2.063-0.9
			c-0.25-0.425,0.525-0.726,2.325-0.9c1.9-0.2,3.25-0.175,4.05,0.074c0.675,0.227,0.862,0.538,0.563,0.938
			c-0.25,0.375-0.862,0.639-1.837,0.789C17.775,49.663,16.763,49.663,15.737,49.488z"/>
		<path style="fill-rule:evenodd;clip-rule:evenodd;fill:#FFFFFF;" d="M21.85,29.65c0,0.875-1.662,1.412-4.987,1.612
			c-1.3,0.075-2.5-0.075-3.6-0.45c-1-0.375-1.5-0.763-1.5-1.162c0-0.351,0.488-0.613,1.463-0.788c0.9-0.175,2.075-0.263,3.525-0.263
			c1.475,0,2.675,0.088,3.6,0.263C21.35,29.037,21.85,29.3,21.85,29.65z"/>
		<path style="fill-rule:evenodd;clip-rule:evenodd;fill:#FFFFFF;" d="M21.888,29.575c0,0.35-0.487,0.662-1.463,0.938
			c-0.975,0.25-2.149,0.375-3.525,0.375c-1.375,0-2.563-0.125-3.563-0.375c-0.975-0.275-1.462-0.588-1.462-0.938
			c0-0.375,0.487-0.688,1.462-0.938c0.975-0.275,2.163-0.413,3.563-0.413c1.375,0,2.55,0.138,3.525,0.413
			C21.4,28.887,21.888,29.2,21.888,29.575z"/>
		
			<linearGradient id="SVGID_42_" gradientUnits="userSpaceOnUse" x1="-7.2676" y1="-15.3818" x2="3.3223" y2="-15.3818" gradientTransform="matrix(-0.664 0.3488 -0.3488 -0.664 9.3997 20.5003)">
			<stop  offset="0" style="stop-color:#FF6D40"/>
			<stop  offset="1" style="stop-color:#AD4305"/>
		</linearGradient>
		<path style="fill-rule:evenodd;clip-rule:evenodd;fill:url(#SVGID_42_);" d="M21.775,29.65c0,0.375-0.488,0.688-1.463,0.938
			c-0.95,0.25-2.125,0.375-3.525,0.375s-2.575-0.125-3.525-0.375c-0.975-0.25-1.462-0.563-1.462-0.938s0.488-0.688,1.462-0.938
			c0.95-0.25,2.125-0.375,3.525-0.375s2.575,0.125,3.525,0.375C21.287,28.962,21.775,29.275,21.775,29.65z"/>
		
			<use xlink:href="#flash0.ai_x5F_3_x2F_Layer_18_copy_x2F__x3C_Path_x3E__x5F_17"  width="1.4" height="1.8" y="-1.8" transform="matrix(0.75 0 0 -0.75 18.8496 43.2998)" style="overflow:visible;opacity:0.6602;enable-background:new    ;"/>
		
			<use xlink:href="#flash0.ai_x5F_3_x2F_Layer_18_copy_x2F__x3C_Path_x3E__x5F_16"  width="0.9" height="1.2" y="-1.2" transform="matrix(0.75 0 0 -0.75 18.0498 36.0996)" style="overflow:visible;opacity:0.6602;enable-background:new    ;"/>
		
			<use xlink:href="#flash0.ai_x5F_3_x2F_Layer_18_copy_x2F__x3C_Path_x3E__x5F_15"  width="1.35" height="1.9" y="-1.9" transform="matrix(0.75 0 0 -0.75 13.75 45.7002)" style="overflow:visible;opacity:0.6602;enable-background:new    ;"/>
		
			<use xlink:href="#flash0.ai_x5F_3_x2F_Layer_18_copy_x2F__x3C_Path_x3E__x5F_14"  width="0.9" height="1.25" y="-1.25" transform="matrix(0.75 0 0 -0.75 12.8501 42.4502)" style="overflow:visible;opacity:0.6602;enable-background:new    ;"/>
		
			<use xlink:href="#flash0.ai_x5F_3_x2F_Layer_18_copy_x2F__x3C_Path_x3E__x5F_13"  width="0.85" height="1.2" y="-1.2" transform="matrix(0.75 0 0 -0.75 14.2998 41.8496)" style="overflow:visible;opacity:0.6602;enable-background:new    ;"/>
		
			<use xlink:href="#flash0.ai_x5F_3_x2F_Layer_18_copy_x2F__x3C_Path_x3E__x5F_12"  width="1.1" height="1.6" y="-1.6" transform="matrix(0.75 0 0 -0.75 12.3501 35.9502)" style="overflow:visible;opacity:0.6602;enable-background:new    ;"/>
		
			<use xlink:href="#flash0.ai_x5F_3_x2F_Layer_18_copy_x2F__x3C_Path_x3E__x5F_11"  width="0.6" height="0.95" y="-0.95" transform="matrix(0.75 0 0 -0.75 20.75 32.2002)" style="overflow:visible;opacity:0.6602;enable-background:new    ;"/>
		
			<use xlink:href="#flash0.ai_x5F_3_x2F_Layer_18_copy_x2F__x3C_Path_x3E__x5F_10"  width="0.6" height="0.9" y="-0.9" transform="matrix(0.75 0 0 -0.75 20.9502 33.5498)" style="overflow:visible;opacity:0.6602;enable-background:new    ;"/>
		
			<use xlink:href="#flash0.ai_x5F_3_x2F_Layer_18_copy_x2F__x3C_Path_x3E__x5F_9"  width="1.25" height="1.65" y="-1.65" transform="matrix(0.75 0 0 -0.75 21.9502 41.5498)" style="overflow:visible;opacity:0.6602;enable-background:new    ;"/>
		<path style="fill-rule:evenodd;clip-rule:evenodd;fill:#FFFFFF;" d="M15.775,30.287c0.3,0,0.45,0.138,0.45,0.413
			c0,0.3-0.15,0.45-0.45,0.45c-0.275,0-0.413-0.15-0.413-0.45C15.362,30.425,15.5,30.287,15.775,30.287z M15.775,30.963
			c0.2,0,0.3-0.101,0.3-0.301c0-0.225-0.1-0.337-0.3-0.337c-0.225,0-0.337,0.112-0.337,0.337
			C15.438,30.862,15.55,30.963,15.775,30.963z"/>
		<path style="fill-rule:evenodd;clip-rule:evenodd;fill:#FFFFFF;" d="M16.675,31.225c-0.175,0-0.337-0.063-0.487-0.188
			C16.063,30.912,16,30.763,16,30.588c0-0.176,0.063-0.338,0.188-0.488c0.15-0.125,0.313-0.188,0.487-0.188S17,29.975,17.125,30.1
			c0.125,0.15,0.188,0.313,0.188,0.488c0,0.175-0.063,0.324-0.188,0.449S16.85,31.225,16.675,31.225z M16.637,30.025
			c-0.325,0-0.487,0.162-0.487,0.487c0,0.3,0.163,0.45,0.487,0.45c0.325,0,0.488-0.15,0.488-0.45
			C17.125,30.188,16.962,30.025,16.637,30.025z"/>
		
			<use xlink:href="#flash0.ai_x5F_3_x2F_Layer_18_copy_x2F__x3C_Path_x3E__x5F_8"  width="19.337" height="36.275" x="0.031" y="-36.275" transform="matrix(0.75 0 0 -0.75 9.6001 22.4502)" style="overflow:visible;opacity:0.1797;enable-background:new    ;"/>
		<path style="fill-rule:evenodd;clip-rule:evenodd;fill:none;stroke:#E3FAFF;stroke-width:0.75;" d="M23.575,22.675
			c-0.5,0.375-1.351,0.675-2.55,0.9c-1.25,0.225-2.638,0.337-4.163,0.337c-1.575,0-3-0.125-4.275-0.375
			c-1.25-0.25-2.1-0.563-2.55-0.938c0.675,0.951,1.162,2.2,1.462,3.75c0.5,2.451,0.462,5.325-0.113,8.625
			c-0.125,0.75-0.575,2.338-1.35,4.763c-0.55,2.351-0.475,4.263,0.225,5.737c0.825,1.801,2.063,3.037,3.713,3.713
			c0.975,0.375,1.925,0.525,2.85,0.449c0.95,0.076,1.913-0.074,2.888-0.449c1.649-0.676,2.887-1.912,3.712-3.713
			c0.7-1.475,0.775-3.387,0.226-5.737c-0.775-2.425-1.226-4.013-1.351-4.763c-0.575-3.25-0.625-6.087-0.149-8.512
			C22.45,24.888,22.925,23.625,23.575,22.675z"/>
		
			<use xlink:href="#flash0.ai_x5F_3_x2F_Layer_18_copy_x2F__x3C_Path_x3E__x5F_6"  width="3.486" height="32.5" y="-32.5" transform="matrix(0.75 0 0 -0.75 19.8496 23.5)" style="overflow:visible;opacity:0.2305;enable-background:new    ;"/>
		<path style="fill-rule:evenodd;clip-rule:evenodd;fill:#E3FAFF;" d="M22.037,21.063c1.4,0.35,2.101,0.787,2.101,1.313
			c0,0.5-0.7,0.938-2.101,1.313c-1.425,0.35-3.138,0.525-5.137,0.525c-2,0-3.712-0.175-5.138-0.525
			c-1.425-0.375-2.137-0.813-2.137-1.313c0-0.525,0.712-0.962,2.137-1.313c1.4-0.375,3.113-0.563,5.138-0.563
			C18.899,20.5,20.612,20.688,22.037,21.063z M21.588,23.275c1.3-0.275,1.949-0.625,1.949-1.051c0-0.399-0.649-0.75-1.949-1.05
			c-1.325-0.3-2.913-0.45-4.763-0.45c-1.825,0-3.4,0.15-4.725,0.45c-1.3,0.3-1.95,0.65-1.95,1.05c0,0.425,0.65,0.775,1.95,1.051
			c1.325,0.3,2.9,0.449,4.725,0.449C18.675,23.725,20.263,23.575,21.588,23.275z"/>
		
			<linearGradient id="SVGID_43_" gradientUnits="userSpaceOnUse" x1="4.8828" y1="-4.5864" x2="17.0078" y2="-4.5864" gradientTransform="matrix(6.185567e-005 0.75 -0.75 -7.500000e-004 9.3996 20.4998)">
			<stop  offset="0" style="stop-color:#FFFFFF;stop-opacity:0.7569"/>
			<stop  offset="1" style="stop-color:#FFFFFF;stop-opacity:0"/>
		</linearGradient>
		<path style="fill-rule:evenodd;clip-rule:evenodd;fill:url(#SVGID_43_);" d="M11.95,23.612l0.713,0.075
			c0.25,0,0.5,0.087,0.75,0.263c0.3,0.975,0.387,2.55,0.262,4.725c-0.147,2.413-0.504,4.075-1.069,4.987
			c0.168-0.31,0.299-1.497,0.394-3.563c0.1-2.049-0.05-3.75-0.45-5.1C12.375,24.325,12.175,23.862,11.95,23.612z"/>
		
			<linearGradient id="SVGID_44_" gradientUnits="userSpaceOnUse" x1="23.748" y1="-4.3242" x2="27.2245" y2="-4.3242" gradientTransform="matrix(-0.0216 0.7497 -0.7497 -0.0216 9.3992 20.5002)">
			<stop  offset="0" style="stop-color:#FFFFFF;stop-opacity:0.5098"/>
			<stop  offset="1" style="stop-color:#FFFFFF;stop-opacity:0"/>
		</linearGradient>
		<path style="fill-rule:evenodd;clip-rule:evenodd;fill:url(#SVGID_44_);" d="M11.837,38.612c0.225-0.225,0.487-0.325,0.788-0.3
			c0.275,0.025,0.375,0.1,0.3,0.225c-0.35,0.676-0.575,1.601-0.675,2.775c-0.075,0.75-0.225,1-0.45,0.75
			c-0.45-0.575-0.625-1.237-0.525-1.987C11.325,39.45,11.513,38.963,11.837,38.612z"/>
		<path style="fill-rule:evenodd;clip-rule:evenodd;fill:#FFFFFF;" d="M17.05,28.188c0,0.1-0.05,0.15-0.15,0.15
			c-0.075,0-0.112-0.05-0.112-0.15l0.112-0.112C17,28.075,17.05,28.112,17.05,28.188z"/>
		<path style="fill-rule:evenodd;clip-rule:evenodd;fill:#FFFFFF;" d="M21.4,28.787c0,0.15-0.075,0.226-0.226,0.226
			c-0.125,0-0.188-0.075-0.188-0.226c0-0.125,0.063-0.188,0.188-0.188C21.325,28.6,21.4,28.663,21.4,28.787z"/>
		<path style="fill-rule:evenodd;clip-rule:evenodd;fill:#FFFFFF;" d="M20.987,28.675c0,0.1-0.037,0.15-0.112,0.15
			c-0.101,0-0.15-0.05-0.15-0.15c0-0.075,0.05-0.112,0.15-0.112C20.95,28.563,20.987,28.6,20.987,28.675z"/>
		
			<rect x="12.497" y="28.772" transform="matrix(0.7071 -0.7071 0.7071 0.7071 -16.7067 17.3169)" style="fill-rule:evenodd;clip-rule:evenodd;fill:#FFFFFF;" width="0.106" height="0.106"/>
	</g>
</g>
</svg>
