<?xml version="1.0" encoding="iso-8859-1"?>
<!-- Generator: Adobe Illustrator 15.0.0, SVG Export Plug-In . SVG Version: 6.00 Build 0)  -->
<!DOCTYPE svg PUBLIC "-//W3C//DTD SVG 1.1//EN" "http://www.w3.org/Graphics/SVG/1.1/DTD/svg11.dtd">
<svg version="1.1" id="Layer_1" xmlns="http://www.w3.org/2000/svg" xmlns:xlink="http://www.w3.org/1999/xlink" x="0px" y="0px"
	 width="128px" height="128px" viewBox="0 0 128 128" style="enable-background:new 0 0 128 128;" xml:space="preserve">
<g>
	<circle style="fill:#FFC200;" cx="64" cy="64" r="64"/>
	<path style="fill:#F2B800;" d="M64,0c-1.685,0-3.348,0.085-5,0.213C92.007,2.767,118,30.337,118,64
		c0,33.664-25.993,61.232-59,63.787c1.652,0.127,3.315,0.213,5,0.213c35.348,0,64-28.652,64-64C128,28.652,99.348,0,64,0z"/>
	<g>
		<path style="fill:#263740;" d="M77,56h-4c0-4.962-4.038-9-9-9s-9,4.038-9,9h-4c0-7.168,5.832-13,13-13S77,48.832,77,56z"/>
		<path style="fill:#263740;" d="M57,63c0,3.3-2.7,6-6,6H27c-3.3,0-6-2.7-6-6V49c0-3.3,2.7-6,6-6h24c3.3,0,6,2.7,6,6V63z"/>
		<path style="fill:#C2E2F2;" d="M27,65c-1.084,0-2-0.916-2-2V49c0-1.084,0.916-2,2-2h24c1.084,0,2,0.916,2,2v14
			c0,1.084-0.916,2-2,2H27z"/>
		<path style="fill:#263740;" d="M107,63c0,3.3-2.7,6-6,6H77c-3.3,0-6-2.7-6-6V49c0-3.3,2.7-6,6-6h24c3.3,0,6,2.7,6,6V63z"/>
		<path style="fill:#C2E2F2;" d="M77,65c-1.084,0-2-0.916-2-2V49c0-1.084,0.916-2,2-2h24c1.084,0,2,0.916,2,2v14
			c0,1.084-0.916,2-2,2H77z"/>
		<circle style="fill:#242424;" cx="45" cy="58" r="3"/>
		<circle style="fill:#242424;" cx="83" cy="58" r="3"/>
	</g>
	<path style="fill:#F2B800;" d="M64.038,115.12c-15.402,0-30.007-6.511-40.07-17.863c-0.985-1.11-1.48-2.541-1.392-4.024
		c0.09-1.484,0.751-2.844,1.862-3.83C25.458,88.498,26.768,88,28.13,88c1.592,0,3.109,0.684,4.165,1.875
		c7.953,8.97,19.522,14.115,31.742,14.115c12.188,0,23.732-5.117,31.674-14.039c1.057-1.186,2.572-1.866,4.159-1.866
		c1.364,0,2.678,0.5,3.698,1.408c1.109,0.987,1.769,2.349,1.854,3.833c0.088,1.484-0.409,2.914-1.397,4.023
		C93.977,108.645,79.4,115.12,64.038,115.12z"/>
	<path style="fill:#F5F5F5;" d="M64.038,112.338c-14.606,0-28.452-6.169-37.988-16.926c-1.02-1.148-0.914-2.908,0.235-3.928
		c1.151-1.021,2.909-0.914,3.928,0.235c8.481,9.566,20.811,15.052,33.825,15.052c12.983,0,25.284-5.457,33.753-14.972
		c1.021-1.146,2.779-1.25,3.928-0.229c1.148,1.022,1.252,2.781,0.229,3.93C92.425,106.201,78.607,112.338,64.038,112.338z"/>
</g>
</svg>
