<?xml version="1.0" encoding="iso-8859-1"?>
<!-- Generator: Adobe Illustrator 15.1.0, SVG Export Plug-In . SVG Version: 6.00 Build 0)  -->
<!DOCTYPE svg PUBLIC "-//W3C//DTD SVG 1.1//EN" "http://www.w3.org/Graphics/SVG/1.1/DTD/svg11.dtd">
<svg version="1.1" id="flamingo" xmlns="http://www.w3.org/2000/svg" xmlns:xlink="http://www.w3.org/1999/xlink" x="0px" y="0px"
	 width="173.4px" height="183.25px" viewBox="0 0 173.4 183.25" style="enable-background:new 0 0 173.4 183.25;"
	 xml:space="preserve">
<symbol  id="beakBottom" viewBox="-16.602 -11.85 16.602 12.356">
	<g id="Layer_1_3_">
		<g>
			<g>
				
					<linearGradient id="SVGID_1_" gradientUnits="userSpaceOnUse" x1="1594.6172" y1="1337.5596" x2="1610.8131" y2="1337.5596" gradientTransform="matrix(0.9833 0.1821 -0.1821 0.9833 -1339.7715 -1611.9629)">
					<stop  offset="0" style="stop-color:#F8E87A"/>
					<stop  offset="0.2471" style="stop-color:#F7E57A"/>
					<stop  offset="0.4314" style="stop-color:#F5DC79"/>
					<stop  offset="0.5922" style="stop-color:#F1CD79"/>
					<stop  offset="0.7451" style="stop-color:#EBB878"/>
					<stop  offset="0.8824" style="stop-color:#E59E78"/>
					<stop  offset="1" style="stop-color:#E08378"/>
				</linearGradient>
				<path style="fill-rule:evenodd;clip-rule:evenodd;fill:url(#SVGID_1_);" d="M-8.9-4.45c-2.567-0.7-4.6-2.35-6.1-4.95
					c-0.767-1.3-1.3-2.117-1.6-2.45C-16.733-1.683-11.2,2.2,0-0.2c-1.5-1.3-2.3-2.017-2.4-2.15l-0.2-0.3l-0.2,0.1
					C-3.7-2.883-4.75-3.233-5.95-3.6C-6.85-3.867-7.833-4.15-8.9-4.45z"/>
			</g>
			<g>
				<path style="fill-rule:evenodd;clip-rule:evenodd;fill:#584E3F;" d="M-6.25-3.65l-2.65-0.8c-2.567-0.7-4.6-2.35-6.1-4.95
					c-0.767-1.3-1.3-2.117-1.6-2.45c-0.066,5.2,1.333,8.75,4.2,10.65c0.1,0,0.2,0,0.3,0c0.067-0.533,0-1.267-0.2-2.2
					c0.4-0.033,0.983,0,1.75,0.1c0.733,0.133,1.316,0.183,1.75,0.15C-8.233-3.217-7.383-3.383-6.25-3.65z"/>
			</g>
			<g>
				
					<radialGradient id="SVGID_2_" cx="-12.6001" cy="2.1001" r="10.5875" gradientTransform="matrix(1 0 0 -1 0 4.2002)" gradientUnits="userSpaceOnUse">
					<stop  offset="0" style="stop-color:#FFFFFF"/>
					<stop  offset="1" style="stop-color:#F4D98F;stop-opacity:0"/>
				</radialGradient>
				<path style="fill-rule:evenodd;clip-rule:evenodd;fill:url(#SVGID_2_);" d="M-15.8-7.05c0.033,0.066,0.117,0.183,0.25,0.35
					l-0.25-0.25c-0.034,0.333-0.034,0.7,0,1.1c1.633,4.9,5.85,6.967,12.65,6.2C-3.517-0.183-4-0.683-4.6-1.15
					c-0.4-0.333-0.85-0.667-1.35-1c-0.9-0.533-1.95-1.033-3.15-1.5c-2.566-1-4.8-2.333-6.7-4C-15.867-7.417-15.867-7.217-15.8-7.05z
					"/>
			</g>
		</g>
	</g>
</symbol>
<symbol  id="beakTop" viewBox="-17.157 -11.791 18.657 18.591">
	<g id="Layer_1_2_">
		<g>
			<g>
				
					<linearGradient id="SVGID_3_" gradientUnits="userSpaceOnUse" x1="1594.7031" y1="1340.2744" x2="1610.899" y2="1340.2744" gradientTransform="matrix(0.9833 0.1821 -0.1821 0.9833 -1339.7715 -1611.9629)">
					<stop  offset="0" style="stop-color:#F8E87A"/>
					<stop  offset="0.2471" style="stop-color:#F7E57A"/>
					<stop  offset="0.4314" style="stop-color:#F5DC79"/>
					<stop  offset="0.5922" style="stop-color:#F1CD79"/>
					<stop  offset="0.7451" style="stop-color:#EBB878"/>
					<stop  offset="0.8824" style="stop-color:#E59E78"/>
					<stop  offset="1" style="stop-color:#E08378"/>
				</linearGradient>
				<path style="fill-rule:evenodd;clip-rule:evenodd;fill:url(#SVGID_3_);" d="M0.2,5.4c0.867-0.867,1.3-1.75,1.3-2.65
					C1.467,1.75,0.983,0.833,0.05,0c-11.2,2.4-16.733-1.483-16.6-11.65c-0.034-0.033-0.067-0.067-0.1-0.1
					c-0.167-0.1-0.25-0.017-0.25,0.25c-0.4,4.033-0.333,7.15,0.2,9.35c0.367,1.6,0.85,2.767,1.45,3.5C-14.683,2.05-13.8,2.6-12.6,3
					c0.8,0.267,2.467,0.783,5,1.55c0.633,0.2,1.2,0.383,1.7,0.55c1.367,0.533,2.35,1.017,2.95,1.45L-2.6,6.8
					C-1.633,6.733-0.7,6.267,0.2,5.4z"/>
			</g>
			<g>
				<path style="fill-rule:evenodd;clip-rule:evenodd;fill:#584E3F;" d="M-12.5,1.6c-0.667-0.434-1.083-0.783-1.25-1.05l0.7-0.05
					c-0.2-0.9,0.033-1.4,0.7-1.5c-2.867-1.9-4.267-5.45-4.2-10.65c-0.034-0.033-0.067-0.067-0.1-0.1
					c-0.167-0.1-0.25-0.017-0.25,0.25c-0.4,4.033-0.333,7.15,0.2,9.35c0.333,1.5,0.767,2.6,1.3,3.3c0.5,0.7,1.267,1.25,2.3,1.65
					l1.55-0.05C-11.617,2.35-11.933,1.967-12.5,1.6z"/>
			</g>
			<g>
				
					<radialGradient id="SVGID_4_" cx="-12.5498" cy="2.2998" r="10.5875" gradientTransform="matrix(1 0 0 -1 0 4.5996)" gradientUnits="userSpaceOnUse">
					<stop  offset="0" style="stop-color:#FFFFFF"/>
					<stop  offset="1" style="stop-color:#F4D98F;stop-opacity:0"/>
				</radialGradient>
				<path style="fill-rule:evenodd;clip-rule:evenodd;fill:url(#SVGID_4_);" d="M-3.1,0.55c-6.8,0.767-11.017-1.3-12.65-6.2
					c0.067,1.1,0.4,2.367,1,3.8c0.8,2,1.767,3.317,2.9,3.95c0.5,0.267,1.25,0.467,2.25,0.6c0.533,0.1,1.3,0.216,2.3,0.35
					c0.5,0.1,0.966,0.167,1.4,0.2C-4.133,3.517-2.933,3.6-2.3,3.5C-2.2,2.467-2.467,1.483-3.1,0.55z"/>
			</g>
		</g>
	</g>
</symbol>
<symbol  id="body" viewBox="-40.183 -26.878 80.406 53.779">
	<g id="Layer_1_4_">
		<g>
			<path style="fill-rule:evenodd;clip-rule:evenodd;fill:#E5A39D;" d="M1.55,17.15c0.5-0.267,1.5-0.95,3-2.05l1.25-1.25
				c0.333-0.4,0.833-1.017,1.5-1.85l0.95-0.9l-1.2,0.4c-0.6,0.167-1.267,0.667-2,1.5c-0.733,0.967-1.267,1.633-1.6,2
				c-1.2,1.233-2.833,2.317-4.9,3.25C-0.783,18.217,0.217,17.85,1.55,17.15z M11.85,7.95c3.1-0.3,4.667-0.45,4.7-0.45l1.5-0.25
				c0.067-0.167,0.333-0.4,0.8-0.7c0.367-0.2,0.5-0.517,0.4-0.95c-2.233,0.7-3.717,1.083-4.45,1.15
				c-2.933,0.367-4.833,0.767-5.7,1.2c0.566,0.066,1.433,0.066,2.6,0H11.85z M3.3,10.65c0.4-0.233,0.95-0.583,1.65-1.05
				C4.583,9.467,4,9.6,3.2,10c-0.833,0.467-1.4,0.75-1.7,0.85c-1.5,0.467-2.5,0.7-3,0.7c-0.533-0.2-0.967-0.3-1.3-0.3
				c-1.067,0-2.383,0.683-3.95,2.05c-1.6,1.4-2.85,2.133-3.75,2.2c1.1,0,1.9-0.033,2.4-0.1c0.8-0.1,1.567-0.316,2.3-0.65
				c0.367-0.167,1.05-0.517,2.05-1.05c0.833-0.434,1.517-0.75,2.05-0.95l3.25-1.25C2.05,11.367,2.633,11.083,3.3,10.65z M3.75,1.55
				c-0.5,0-1.367-0.05-2.6-0.15C0.05,1.3-0.833,1.25-1.5,1.25c-1.4,0-2.4,0.167-3,0.5C-4.733,1.917-4.867,2.033-4.9,2.1
				C-5,2.167-5.2,2.217-5.5,2.25C-5.833,2.317-6.25,2.333-6.75,2.3C-7.317,2.267-7.733,2.25-8,2.25
				c-1.033,0.067-2.45,0.35-4.25,0.85c-0.5,0.133-1.5,0.133-3,0c-1.067-0.133-2.117,0.2-3.15,1c-0.9,0.667-1.667,1.55-2.3,2.65
				c1.567,0.267,3.4,0.05,5.5-0.65l2.45-1.05c0.633-0.3,1.367-0.833,2.2-1.6c0.566-0.4,1.466-0.6,2.7-0.6C-7.183,2.85-6.233,2.9-5,3
				H5.05l11-2.75c-0.7-0.033-1.617,0.067-2.75,0.3c-1.733,0.367-2.633,0.55-2.7,0.55C8.3,1.433,6.017,1.583,3.75,1.55z M4,4.9
				L2.95,5.4L2.3,5.8c0.233-0.033,1.284-0.05,3.15-0.05H9.8c2.3,0,3.967-0.133,5-0.4c1.7-0.4,3.117-1.267,4.25-2.6l1-1.25
				c-0.3,0.233-0.767,0.45-1.4,0.65c-0.7,0.233-1.183,0.417-1.45,0.55c-1.3,0.966-2.3,1.583-3,1.85c-0.567,0.2-1.217,0.267-1.95,0.2
				c-0.233,0-0.883-0.083-1.95-0.25c-1.933-0.267-3.683-0.267-5.25,0C4.75,4.567,4.4,4.7,4,4.9z M19.65,6.75
				C18.25,7.683,17.1,8.2,16.2,8.3c0.367-0.033,1.316-0.05,2.85-0.05l1.25-1.5c0.133-0.1,0.383-0.267,0.75-0.5
				c0.267-0.233,0.417-0.467,0.45-0.7c-0.3,0-0.617,0.15-0.95,0.45C20.017,6.467,19.717,6.717,19.65,6.75z M12.8,9.5
				c-1.867,0.1-3.383,0.633-4.55,1.6L12.8,9.5z M-32,3.25c0.1-0.5,0.083-0.933-0.05-1.3l-0.75-0.1c0.1,0.6,0.05,1.15-0.15,1.65
				l0.25-0.25H-32z M-7.55,25.45c-0.8-0.233-1.267-0.35-1.4-0.35c1.2-0.333,1.934-0.55,2.2-0.65c-0.5-0.434-1.45-0.617-2.85-0.55
				c-1.533,0.133-2.583,0.184-3.15,0.15c-1.267-0.133-2.3-0.433-3.1-0.9c-0.667-0.433-1.383-1.133-2.15-2.1
				c-0.6-0.767-1.9-1.983-3.9-3.65c-1.667-1.4-2.783-2.667-3.35-3.8c-0.933-1.934-1.4-2.917-1.4-2.95
				c-0.7-1.267-1.35-2.033-1.95-2.3c-0.333,0.433-0.85,0.55-1.55,0.35c-0.833-0.3-1.434-0.45-1.8-0.45L-32,5.8
				c-0.567,0.8-1.517,1.3-2.85,1.5c-1.767,0.233-2.816,0.434-3.15,0.6c0.2,0.2,0.483,0.45,0.85,0.75c0.3,0.333,0.533,0.7,0.7,1.1
				h-0.5c0.067,0.067,0.95,1.117,2.65,3.15c1.1,1.267,1.833,2.283,2.2,3.05l-0.1-0.35c0.633,0.367,1.4,1.183,2.3,2.45
				c0.933,1.333,1.683,2.217,2.25,2.65c1.2,0.933,3.267,2.15,6.2,3.65C-17.583,26.45-12.95,26.817-7.55,25.45z M-14.1,11.1
				c1.033-0.167,2.267-0.483,3.7-0.95l1.2-0.65c-0.966,0-2.216,0.083-3.75,0.25c-2.167,0.267-3.167,0.617-3,1.05
				C-15.85,11.067-15.233,11.167-14.1,11.1z"/>
			<path style="fill-rule:evenodd;clip-rule:evenodd;fill:#E08378;" d="M1.55,17.15c-1.333,0.7-2.333,1.067-3,1.1
				c2.067-0.933,3.7-2.017,4.9-3.25c0.333-0.367,0.867-1.033,1.6-2c0.733-0.833,1.4-1.333,2-1.5l1.2-0.4L7.3,12
				c-0.667,0.833-1.167,1.45-1.5,1.85L4.55,15.1C3.05,16.2,2.05,16.883,1.55,17.15z M1.8,13c0.034-0.167,0.05-0.317,0.05-0.45
				c-0.467,0.233-0.8,0.4-1,0.5C1.083,13.017,1.4,13,1.8,13z M8.85,12.2c0-0.1,0.017-0.2,0.05-0.3c0.033,0,0.067-0.017,0.1-0.05
				C8.933,11.983,8.883,12.1,8.85,12.2z M5.8,10.35l0.4-0.2L6,10.2L5.8,10.35z M-0.15,15.55c-0.633,0.4-1.267,0.7-1.9,0.9
				c1.667-1.067,2.783-1.917,3.35-2.55c-2.233,1.467-4.667,1.967-7.3,1.5c0.133-0.1,0.267-0.183,0.4-0.25
				c0.1-0.033,0.184-0.083,0.25-0.15c0.3-0.067,0.583-0.15,0.85-0.25c0.633-0.267,1.4-0.8,2.3-1.6c0.8-0.433,1.233-0.667,1.3-0.7
				c1.1-0.4,1.867-0.567,2.3-0.5l0.35-0.1L1.8,11.8c2.733-1.667,5.15-2.716,7.25-3.15c0.567-0.267,1.45-0.5,2.65-0.7
				c-1.167,0.066-2.034,0.066-2.6,0c0.867-0.434,2.767-0.833,5.7-1.2c0.733-0.067,2.217-0.45,4.45-1.15
				c0.1,0.433-0.033,0.75-0.4,0.95c-0.467,0.3-0.733,0.534-0.8,0.7l-1.5,0.25c-0.033,0-1.6,0.15-4.7,0.45L11.1,8.2
				C12,8.067,13.567,8,15.8,8l-5,1l1.15-0.2C10.517,9.333,9.5,9.717,8.9,9.95c-1.367,0.6-2.633,1.35-3.8,2.25l-3.4,2.65
				C1.133,15.25,0.517,15.483-0.15,15.55z M-8.4,16.65c0.633-0.3,1.35-0.683,2.15-1.15c0.467,0.467,1.217,1.167,2.25,2.1l-0.35,0.25
				c-0.167,0-0.316,0-0.45,0c-0.534,0-0.917-0.017-1.15-0.05c-0.566-0.1-1.167-0.333-1.8-0.7C-7.983,16.933-8.2,16.783-8.4,16.65z
				 M-8.95,12.95L-9.2,13l-6.25,1.75c0.367-0.433,0.917-0.8,1.65-1.1l1.7-0.55c-0.533-0.567-1.133-1.167-1.8-1.8
				c1.467-0.2,2.95-0.683,4.45-1.45c0.267-0.1,0.567-0.2,0.9-0.3c0.066,0,0.133-0.017,0.2-0.05C-6.817,9-5.6,8.617-4.7,8.35
				c1.1-0.3,1.717-0.434,1.85-0.4c0.4,0.066,0.4,0.333,0,0.8l2.1-0.5C3.117,7.717,5.933,7.7,7.7,8.2L5.75,8.6l0.5,0.2
				C5.75,8.767,5.067,8.817,4.2,8.95l-5.15,1c-0.9,0.167-2.1,0.55-3.6,1.15l1.45-0.8l-3.35,1.75C-8.05,12.65-8.883,12.95-8.95,12.95
				z M3.3,10.65c-0.667,0.434-1.25,0.717-1.75,0.85l-3.25,1.25c-0.533,0.2-1.216,0.517-2.05,0.95c-1,0.533-1.683,0.883-2.05,1.05
				c-0.733,0.333-1.5,0.55-2.3,0.65c-0.5,0.067-1.3,0.1-2.4,0.1c0.9-0.067,2.15-0.8,3.75-2.2c1.567-1.367,2.883-2.05,3.95-2.05
				c0.333,0,0.767,0.1,1.3,0.3c0.5,0,1.5-0.233,3-0.7c0.3-0.1,0.867-0.383,1.7-0.85C4,9.6,4.583,9.467,4.95,9.6
				C4.25,10.067,3.7,10.417,3.3,10.65z M4,4.9c0.4-0.2,0.75-0.333,1.05-0.4c1.567-0.267,3.317-0.267,5.25,0
				c1.067,0.167,1.717,0.25,1.95,0.25c0.733,0.067,1.383,0,1.95-0.2c0.7-0.267,1.7-0.883,3-1.85c0.267-0.133,0.75-0.317,1.45-0.55
				c0.633-0.2,1.1-0.417,1.4-0.65l-1,1.25c-1.133,1.333-2.55,2.2-4.25,2.6c-1.033,0.267-2.7,0.4-5,0.4H5.45
				c-1.867,0-2.917,0.017-3.15,0.05l0.65-0.4L4,4.9z M3.75,1.55C6.017,1.583,8.3,1.433,10.6,1.1c0.066,0,0.967-0.184,2.7-0.55
				c1.133-0.233,2.05-0.333,2.75-0.3L5.05,3H-5c-1.233-0.1-2.183-0.15-2.85-0.15c-1.233,0-2.133,0.2-2.7,0.6
				c-0.833,0.767-1.567,1.3-2.2,1.6L-15.2,6.1c-2.1,0.7-3.933,0.917-5.5,0.65c0.633-1.1,1.4-1.983,2.3-2.65
				c1.033-0.8,2.083-1.133,3.15-1c1.5,0.133,2.5,0.133,3,0c1.8-0.5,3.217-0.783,4.25-0.85c0.267,0,0.683,0.017,1.25,0.05
				c0.5,0.034,0.917,0.017,1.25-0.05C-5.2,2.217-5,2.167-4.9,2.1c0.033-0.067,0.167-0.184,0.4-0.35c0.6-0.333,1.6-0.5,3-0.5
				c0.667,0,1.55,0.05,2.65,0.15C2.383,1.5,3.25,1.55,3.75,1.55z M-4.15,4C-3.317,3.833-2.267,3.75-1,3.75h7.6
				c-2.767,0.067-6.217,1.067-10.35,3c-1.367,0.633-2.833,1.133-4.4,1.5c-0.434,0.133-0.95,0.2-1.55,0.2
				c-0.933,0.033-1.466,0.05-1.6,0.05c-1.267,0.4-2.233,0.567-2.9,0.5l-1.45-0.1c-0.2,0.033-0.383,0.05-0.55,0.05
				c-0.2-0.034-0.417-0.1-0.65-0.2c-0.867-0.667-1.55-1.2-2.05-1.6c1.367-0.267,2.983-0.65,4.85-1.15
				c2.133-0.6,4.75-1.317,7.85-2.15L-6,3.8l1.35-0.15L-4.35,4H-4.15z M-2.3-3.95l-1,0.05l1.65-0.05H-2.3z M4.6-12.8l2,1.4
				c2.933,0.3,4.933,0.667,6,1.1c0.667,0.3,1.233,0.733,1.7,1.3c0.567,0.7,0.667,1.333,0.3,1.9c-2.4-0.967-4.333-1.5-5.8-1.6
				C6.333-8.867,4.567-8.883,3.5-8.75l-0.15,0.4c0.8,0.8,1.816,2.267,3.05,4.4c2.2,0.667,4.583,0.833,7.15,0.5
				c2.467-0.333,4.833-1.05,7.1-2.15H22l0.3,0.35c-1,0.167-1.95,0.533-2.85,1.1c-0.434,0.3-1.217,0.917-2.35,1.85
				c-0.8,0.667-2.067,1.267-3.8,1.8l1.6,0.3l-2.75,0.05c-2.767,0.733-5.2,0.9-7.3,0.5c-1.434-0.533-2.5-0.917-3.2-1.15
				c-1.3-0.4-2.4-0.35-3.3,0.15c-1.133,0.833-2.067,1.367-2.8,1.6c-0.466,0.133-1.8,0.333-4,0.6c0.434-0.1,0.934-0.316,1.5-0.65
				c0.633-0.367,1.017-0.717,1.15-1.05C-6.267-0.317-7-0.133-8,0.4c-1.033,0.633-1.75,1.033-2.15,1.2
				c-0.667,0.267-1.45,0.417-2.35,0.45c-0.3,0-1.133-0.017-2.5-0.05c-0.833,0-1.733-0.183-2.7-0.55c-0.5-0.2-1.333-0.6-2.5-1.2h-2.4
				c-0.767,0.033-1.4,0.233-1.9,0.6l1.8-1.7c-0.4,0.333-0.85,0.733-1.35,1.2c-2.034,1.933-3.3,3-3.8,3.2
				c-0.2,0.067-0.35,0.15-0.45,0.25c-0.1-0.1-0.217-0.2-0.35-0.3c-1.033-0.8-2.167-1.317-3.4-1.55c-0.2-0.567-0.567-0.95-1.1-1.15
				c0.167,0.3,0.283,0.65,0.35,1.05c-1.167-0.1-2.217,0.117-3.15,0.65l-3.75-1.55c-0.1,0.267-0.183,0.55-0.25,0.85
				c-0.566,2.267-0.1,4.817,1.4,7.65c2,3.833,3.983,6.833,5.95,9c3.767,4.1,8.283,6.683,13.55,7.75c4.6,0.966,8.95,0.933,13.05-0.1
				c4.5-1.1,8.083-3.267,10.75-6.5c1.833-2.2,3.267-4.783,4.3-7.75c1-0.4,2.217-0.717,3.65-0.95c2.1,0,4.233-0.233,6.4-0.7
				c0.933-0.2,1.85-0.434,2.75-0.7C19.183,9.133,17.1,8.967,15.6,9c0.533-0.033,1.217-0.133,2.05-0.3c4.434-0.7,7.667-1.3,9.7-1.8
				c1.9-1.2,3.667-2.683,5.3-4.45c1.967-2.167,3.95-5.167,5.95-9c0.733-1.4,1.217-2.733,1.45-4c-2.033,0.566-3.966,0.617-5.8,0.15
				c-1.467-0.434-2.517-1.217-3.15-2.35c-0.167-0.267-0.283-0.683-0.35-1.25c-0.033-0.6-0.1-1.017-0.2-1.25
				c-0.267-0.533-0.8-1.067-1.6-1.6c-0.3-0.2-0.967-0.566-2-1.1c-0.7-0.367-2.184-0.55-4.45-0.55c-1.533-0.033-2.683,0-3.45,0.1
				c-0.733,0-1.333,0.017-1.8,0.05c-0.833,0.1-1.35,0.317-1.55,0.65c0.367,0.267,1.183,0.45,2.45,0.55c1.133,0.1,1.867,0.4,2.2,0.9
				c-2.133,0.067-3.75,0.217-4.85,0.45c-0.8,0.1-1.417,0.2-1.85,0.3c-0.767,0.167-1.316,0.417-1.65,0.75
				c1.5,0.1,2.467,0.183,2.9,0.25c1.167,0.267,1.95,0.767,2.35,1.5c-0.167,0.2-0.383,0.3-0.65,0.3c-0.367,0-0.667,0-0.9,0h-5.55
				c-1.733,0.1-3.283,0.267-4.65,0.5L4.6-12.8z M19.65,6.75c0.067-0.033,0.367-0.283,0.9-0.75c0.333-0.3,0.65-0.45,0.95-0.45
				c-0.033,0.233-0.183,0.467-0.45,0.7c-0.367,0.233-0.617,0.4-0.75,0.5l-1.25,1.5c-1.533,0-2.483,0.017-2.85,0.05
				C17.1,8.2,18.25,7.683,19.65,6.75z M12.9,3.3c1.434-0.3,3.367-1.033,5.8-2.2c0.2-0.1,0.466-0.233,0.8-0.4
				c0.267-0.1,0.533-0.167,0.8-0.2l-6.75,3c-0.2,0.467-1,0.7-2.4,0.7c-1,0.033-1.967-0.034-2.9-0.2c0.467-0.3,1.217-0.467,2.25-0.5
				C11.8,3.433,12.6,3.367,12.9,3.3z M12.8,9.5l-4.55,1.6C9.417,10.133,10.933,9.6,12.8,9.5z M37.1-20.5v0.05
				c0.333,0.267,0.65,0.617,0.95,1.05c-0.267-0.4-0.55-0.733-0.85-1C37.167-20.433,37.133-20.467,37.1-20.5z M-10.4-10.1
				c-0.067-0.7-0.117-1.383-0.15-2.05c-0.1-1.733,0.066-3.25,0.5-4.55C-10.65-15.033-10.767-12.833-10.4-10.1z M-37.7-3.75
				c0.267-0.333,0.534-0.617,0.8-0.85c-0.1,0.067-0.184,0.133-0.25,0.2C-37.35-4.2-37.533-3.983-37.7-3.75z M-7.55,25.45
				c-5.4,1.367-10.034,1-13.9-1.1c-2.933-1.5-5-2.717-6.2-3.65c-0.567-0.434-1.317-1.317-2.25-2.65c-0.9-1.267-1.667-2.083-2.3-2.45
				l0.1,0.35c-0.367-0.767-1.1-1.784-2.2-3.05c-1.7-2.033-2.583-3.083-2.65-3.15h0.5c-0.167-0.4-0.4-0.767-0.7-1.1
				C-37.517,8.35-37.8,8.1-38,7.9c0.333-0.167,1.383-0.367,3.15-0.6c1.333-0.2,2.283-0.7,2.85-1.5l0.05,2.45
				c0.367,0,0.967,0.15,1.8,0.45c0.7,0.2,1.217,0.083,1.55-0.35c0.6,0.267,1.25,1.033,1.95,2.3c0,0.033,0.467,1.017,1.4,2.95
				c0.567,1.133,1.683,2.4,3.35,3.8c2,1.667,3.3,2.883,3.9,3.65c0.767,0.967,1.483,1.667,2.15,2.1c0.8,0.467,1.833,0.767,3.1,0.9
				c0.567,0.034,1.617-0.017,3.15-0.15c1.4-0.066,2.35,0.117,2.85,0.55c-0.267,0.1-1,0.316-2.2,0.65
				C-8.817,25.1-8.35,25.217-7.55,25.45z M-32,3.25h-0.7l-0.25,0.25c0.2-0.5,0.25-1.05,0.15-1.65l0.75,0.1
				C-31.917,2.317-31.9,2.75-32,3.25z M-13.4-1.7c0.333,0.067,0.633,0.117,0.9,0.15c1.633,0.2,3.067,0.133,4.3-0.2
				C-9-1.55-9.917-1.467-10.95-1.5c-0.267,0-0.55,0-0.85,0C-12.3-1.533-12.833-1.6-13.4-1.7z M-9.15,17
				c0,0.064,0.017,0.115,0.05,0.15c-0.034-0.034-0.067-0.067-0.1-0.1L-9.15,17z M-16.7,14.45l-1.9,0.65
				c0.167-0.233,0.567-0.417,1.2-0.55L-16.7,14.45z M-14.1,11.1c-1.133,0.066-1.75-0.033-1.85-0.3c-0.167-0.433,0.833-0.783,3-1.05
				c1.534-0.167,2.784-0.25,3.75-0.25l-1.2,0.65C-11.833,10.617-13.067,10.933-14.1,11.1z M-4,9.7c0.433-0.3,0.8-0.6,1.1-0.9V8.75
				c-0.1,0.1-0.2,0.2-0.3,0.3C-3.433,9.25-3.7,9.467-4,9.7z"/>
			<path style="fill-rule:evenodd;clip-rule:evenodd;fill:#8C534B;" d="M1.3,13.9c-0.566,0.633-1.683,1.483-3.35,2.55
				c0.633-0.2,1.267-0.5,1.9-0.9c0.433-0.333,1.017-0.883,1.75-1.65c0.8-0.8,1.383-1.35,1.75-1.65c0.533-0.467,1.35-1.1,2.45-1.9
				L6,10.2l0.2-0.15c-0.267,0-1.067,0.333-2.4,1H3.75L1.8,12.2l-0.05,0.05c0.067,0.1,0.1,0.2,0.1,0.3c0,0.133-0.017,0.284-0.05,0.45
				c-0.033,0.133-0.083,0.267-0.15,0.4L1.5,13.65C1.433,13.717,1.367,13.8,1.3,13.9z M10.8,9l5-1c-2.233,0-3.8,0.067-4.7,0.2
				C9.967,8.433,9.2,8.733,8.8,9.1L8.5,9.5c0.1-0.033,0.483-0.15,1.15-0.35C10.083,9.017,10.467,8.967,10.8,9z M-3.1,10.3l0.9-0.65
				c0.367-0.167,0.6-0.267,0.7-0.3C-1.267,9.283-0.817,9.2-0.15,9.1C0.417,9.033,0.867,8.917,1.2,8.75
				c-1.167-0.067-2.133-0.1-2.9-0.1l-1.1,0.1L-2.9,8.8C-3.2,9.1-3.567,9.4-4,9.7l-1,0.65c-0.167,0.1-0.35,0.2-0.55,0.3l-3.35,1.4
				c-0.567,0.167-1.184,0.367-1.85,0.6c-0.022,0.009-0.047,0.018-0.075,0.025c-0.046,0.021-0.096,0.038-0.15,0.05
				c-0.042,0.021-0.084,0.038-0.125,0.05c-0.113,0.049-0.229,0.091-0.35,0.125l-0.6,0.2l3.1-0.15c0.067,0,0.9-0.3,2.5-0.9L-3.1,10.3
				z M-2.3-3.95C-4.133-4.35-5.6-5.033-6.7-6c-0.833-0.733-1.667-2.25-2.5-4.55c-0.6-1.534-0.966-2.5-1.1-2.9
				c0.367-1.333,0.883-2.533,1.55-3.6c0.433-0.733,0.833-0.95,1.2-0.65c0.233,0.167,0.533,0.667,0.9,1.5
				c0.066-0.2,0.183-0.917,0.35-2.15c0.1-0.9,0.383-1.5,0.85-1.8c0.2,0.333,0.35,0.883,0.45,1.65c0.1,0.7,0.283,1.233,0.55,1.6
				c0.534,0.7,1.034,1.183,1.5,1.45c0.133,0.067,0.5,0.2,1.1,0.4c0.434,0.133,0.733,0.316,0.9,0.55c-0.933,0.133-1.716,0.133-2.35,0
				c-0.367-0.1-0.75-0.35-1.15-0.75c-0.433-0.4-0.767-0.633-1-0.7c-0.1,0.7,0.417,1.284,1.55,1.75c1.467,0.6,2.267,0.983,2.4,1.15
				l-2.75-0.85c0.467,0.5,1.317,0.85,2.55,1.05c0.567,0.1,1.534,0.2,2.9,0.3c1.6,0.133,2.733,0.05,3.4-0.25l0.45-0.25
				c1.1-0.6,2.083-0.9,2.95-0.9c0.3,0,1.017,0,2.15,0c0.9,0.034,1.6,0.017,2.1-0.05c-0.667-0.633-1.667-1.1-3-1.4L8.2-15.55
				c-0.733-0.034-1.284-0.083-1.65-0.15c-0.667-0.1-1-0.35-1-0.75c0.034-0.767,0.717-1.2,2.05-1.3c0.7-0.067,1.6-0.083,2.7-0.05
				c-0.066-0.067-0.316-0.133-0.75-0.2C9.217-18.033,9.033-18.183,9-18.45c-0.067-0.466,0.517-1.117,1.75-1.95
				c1.167-0.833,2.1-1.333,2.8-1.5c0.534-0.167,1.267-0.25,2.2-0.25c1.167-0.033,1.917-0.067,2.25-0.1
				c-0.033-0.033-0.533-0.233-1.5-0.6c-0.633-0.233-0.867-0.6-0.7-1.1c0.633-0.033,1.567-0.216,2.8-0.55h3.05
				c1.533,0.033,3.083,0.283,4.65,0.75c1.1,0.333,2.4,1.017,3.9,2.05c0.433,0.333,1.066,0.817,1.9,1.45
				c0.167,0.167,0.367,0.383,0.6,0.65c0.2,0.2,0.483,0.333,0.85,0.4c1.8,0.267,2.983-0.15,3.55-1.25v-0.05
				c-0.4-0.3-0.983-0.667-1.75-1.1c-0.833-0.433-1.483-0.8-1.95-1.1l-0.2-0.15c-0.034,0-0.067-0.017-0.1-0.05
				c-5.934-4.033-11.717-5-17.35-2.9c-2.5,0.933-4.967,2.7-7.4,5.3c-2,2.467-3.133,3.8-3.4,4c-0.467,0.367-1.067,0.633-1.8,0.8
				C2.283-15.533,1.567-15.583,1-15.85c-1.4-0.767-2.25-1.533-2.55-2.3c-0.367-1-1.15-1.833-2.35-2.5
				c-0.5-0.267-0.883-0.383-1.15-0.35l-0.25,0.15l-1.4-0.2c-0.7-0.1-1.233,0.05-1.6,0.45c-0.4,0.5-0.983,1.8-1.75,3.9
				c-0.434,1.3-0.6,2.817-0.5,4.55c0.033,0.667,0.083,1.35,0.15,2.05c0.033,0.367,0.083,0.717,0.15,1.05
				C-10.183-8.617-10.1-8.2-10-7.8c-0.233-0.034-0.45-0.05-0.65-0.05c0.066,0.1,0.117,0.3,0.15,0.6c-1.6-1.233-3.233-2.067-4.9-2.5
				c0.033,0.033,0.066,0.067,0.1,0.1c0.333,0.4,0.833,1.083,1.5,2.05c0.566,0.9,1.117,1.533,1.65,1.9
				c0.667,0.434,1.033,0.684,1.1,0.75c0.133,0.233,0.216,0.7,0.25,1.4c0,0.9,0,1.417,0,1.55c-0.034,0.2-0.083,0.367-0.15,0.5
				C-9.917-1.467-9-1.55-8.2-1.75c0.7,0.167,1.534,0.167,2.5,0c0.233-0.033,1-0.317,2.3-0.85l0.2,0.05l0.75,0.05
				C-2.25-2.667-2-2.767-1.7-2.8l0.4-0.05c0.933-0.033,2.417,0.283,4.45,0.95c1.667,0.267,4.2,0.5,7.6,0.7
				c-0.9-0.133-1.933-0.483-3.1-1.05c-1.833-0.9-2.8-1.367-2.9-1.4c-0.7-0.3-1.633-0.45-2.8-0.45l-3.6,0.15L-3.3-3.9L-2.3-3.95z
				 M-4.15,4h-0.2l-0.3-0.35L-6,3.8c0.067,0.333,0.133,0.55,0.2,0.65c0.033,0.066,0.283,0.283,0.75,0.65L-6,5.75
				c0.033,0,0.083-0.017,0.15-0.05h0.05c2-0.534,3.017-1.083,3.05-1.65H-3.3C-3.5,4.017-3.783,4-4.15,4z"/>
			<path style="fill-rule:evenodd;clip-rule:evenodd;fill:#CE786F;" d="M6.2,10.15c1.167-0.667,2.117-1.167,2.85-1.5
				c-2.1,0.434-4.517,1.483-7.25,3.15l1.95-0.75H3.8c1.333-0.667,2.133-1,2.4-1L6,10.2L6.2,10.15z M-0.15,15.55
				c0.667-0.066,1.283-0.3,1.85-0.7l3.4-2.65c1.167-0.9,2.433-1.65,3.8-2.25c0.6-0.233,1.617-0.617,3.05-1.15L10.8,9
				c-0.333-0.033-0.716,0.017-1.15,0.15C8.983,9.35,8.6,9.467,8.5,9.5l0.3-0.4l-2.6,1.05l-0.4,0.2c-1.1,0.8-1.917,1.433-2.45,1.9
				C2.983,12.55,2.4,13.1,1.6,13.9C0.867,14.667,0.283,15.217-0.15,15.55z M8.85,12.2c0.033-0.1,0.083-0.217,0.15-0.35
				c-0.033,0.033-0.067,0.05-0.1,0.05C8.867,12,8.85,12.1,8.85,12.2z M1.8,13c-0.4,0-0.716,0.017-0.95,0.05
				c0.2-0.1,0.533-0.267,1-0.5c0-0.1-0.033-0.2-0.1-0.3L1.35,12l0.05-0.05c-0.433-0.067-1.2,0.1-2.3,0.5
				c-0.067,0.033-0.5,0.267-1.3,0.7c-0.9,0.8-1.667,1.333-2.3,1.6c-0.267,0.1-0.55,0.183-0.85,0.25
				c-0.066,0.067-0.15,0.117-0.25,0.15C-5.733,15.217-5.867,15.3-6,15.4c2.633,0.467,5.067-0.033,7.3-1.5
				c0.067-0.1,0.133-0.183,0.2-0.25l0.15-0.25C1.717,13.267,1.767,13.133,1.8,13z M-2.2,9.65l-0.9,0.65l-1.45,0.8
				c1.5-0.6,2.7-0.983,3.6-1.15l5.15-1c-1.267,0.2-2.233,0.3-2.9,0.3C0.233,9.283-0.933,9.417-2.2,9.65z M-8.95,12.95l-3.1,0.15
				l0.6-0.2c0.121-0.034,0.237-0.076,0.35-0.125c0.041-0.012,0.083-0.028,0.125-0.05c0.054-0.013,0.104-0.029,0.15-0.05
				c0.028-0.007,0.053-0.016,0.075-0.025c0.667-0.233,1.283-0.433,1.85-0.6l3.35-1.4c0.2-0.1,0.383-0.2,0.55-0.3l1-0.65
				c0.3-0.233,0.567-0.45,0.8-0.65c0.1-0.1,0.2-0.2,0.3-0.3V8.8l0.1-0.05l1.1-0.1c1.167-0.1,2.35-0.15,3.55-0.15
				c0.4,0,1.05-0.017,1.95-0.05C4.6,8.417,5.25,8.467,5.75,8.6L7.7,8.2C5.933,7.7,3.117,7.717-0.75,8.25l-2.1,0.5
				c0.4-0.467,0.4-0.733,0-0.8c-0.133-0.034-0.75,0.1-1.85,0.4c-1.5,0.867-2.783,1.267-3.85,1.2c-0.333,0.1-0.633,0.2-0.9,0.3
				c-1.5,0.767-2.983,1.25-4.45,1.45c0.667,0.633,1.267,1.233,1.8,1.8l-1.7,0.55c-0.733,0.3-1.284,0.667-1.65,1.1L-9.2,13
				L-8.95,12.95z M-8.4,16.65c0.2,0.133,0.417,0.283,0.65,0.45c0.633,0.367,1.233,0.6,1.8,0.7c0.233,0.034,0.617,0.05,1.15,0.05
				c0.133,0,0.283,0,0.45,0L-4,17.6c-1.033-0.934-1.783-1.633-2.25-2.1C-7.05,15.967-7.767,16.35-8.4,16.65z M-6,5.75l0.95-0.65
				C-5.517,4.733-5.767,4.517-5.8,4.45C-5.867,4.35-5.933,4.133-6,3.8l-0.2,0.05C-9.3,4.683-11.917,5.4-14.05,6
				c-1.867,0.5-3.483,0.883-4.85,1.15c0.5,0.4,1.183,0.934,2.05,1.6c0.233,0.1,0.45,0.167,0.65,0.2c0.167,0,0.35-0.017,0.55-0.05
				L-14.2,9c0.667,0.067,1.633-0.1,2.9-0.5c0.133,0,0.667-0.017,1.6-0.05c0.6,0,1.117-0.067,1.55-0.2
				c1.566-0.367,3.033-0.867,4.4-1.5c4.133-1.933,7.583-2.933,10.35-3H-1c-1.267,0-2.317,0.083-3.15,0.25
				C-3.783,4-3.5,4.017-3.3,4.05C-2.233,3.883-0.583,3.867,1.65,4C1.417,4.167,1.033,4.283,0.5,4.35
				c-0.667,0.1-1.067,0.183-1.2,0.25C-1,4.7-1.617,4.983-2.55,5.45c-0.867,0.5-2.267,0.783-4.2,0.85H-6.8L-6,5.75z M21.85,9.5
				c0.167-0.067,0.35-0.133,0.55-0.2l4.1-1.9c0.3-0.167,0.583-0.333,0.85-0.5c-2.033,0.5-5.267,1.1-9.7,1.8
				C16.817,8.867,16.133,8.967,15.6,9C17.1,8.967,19.183,9.133,21.85,9.5z M12.9,3.3c-0.3,0.067-1.1,0.133-2.4,0.2
				C9.467,3.533,8.717,3.7,8.25,4c0.933,0.167,1.9,0.233,2.9,0.2c1.4,0,2.2-0.233,2.4-0.7l6.75-3c-0.267,0.033-0.533,0.1-0.8,0.2
				c-0.333,0.167-0.6,0.3-0.8,0.4C16.267,2.267,14.333,3,12.9,3.3z M40.15-11.15c-0.533,0.133-0.983,0.2-1.35,0.2
				c-1.566-0.066-2.667-0.4-3.3-1c-0.667-0.667-1.267-1.6-1.8-2.8c-0.534-1.367-0.983-2.367-1.35-3
				c-0.867-1.5-2.383-2.683-4.55-3.55c-1.833-0.7-2.95-1.1-3.35-1.2c-1.5-0.367-2.617-0.3-3.35,0.2c0.2,0.333,0.333,0.683,0.4,1.05
				c-0.5,0.067-1.217,0.067-2.15,0c-1-0.033-1.717-0.033-2.15,0c-0.367,0.033-1.1,0.067-2.2,0.1c-0.967,0-1.7,0.05-2.2,0.15
				c-1.533,0.3-2.633,0.9-3.3,1.8c-0.433,0.567-0.283,0.95,0.45,1.15c1.133,0.3,1.816,0.566,2.05,0.8
				c-1.167,0-2.083,0.017-2.75,0.05c-1.233,0.034-2.017,0.35-2.35,0.95c0.5,0.233,1.283,0.517,2.35,0.85
				c1.333,0.3,2.333,0.767,3,1.4c-0.5,0.067-1.2,0.083-2.1,0.05c-1.133,0-1.85,0-2.15,0c-0.867,0-1.85,0.3-2.95,0.9L4.6-12.8
				l0.9,0.6c1.367-0.233,2.917-0.4,4.65-0.5h5.55c0.233,0,0.533,0,0.9,0c0.267,0,0.483-0.1,0.65-0.3
				c-0.4-0.733-1.183-1.233-2.35-1.5c-0.433-0.067-1.4-0.15-2.9-0.25c0.333-0.333,0.883-0.583,1.65-0.75
				c0.434-0.1,1.05-0.2,1.85-0.3c1.1-0.233,2.717-0.383,4.85-0.45c-0.333-0.5-1.067-0.8-2.2-0.9c-1.267-0.1-2.083-0.283-2.45-0.55
				c0.2-0.333,0.716-0.55,1.55-0.65c0.467-0.033,1.067-0.05,1.8-0.05c0.767-0.1,1.917-0.133,3.45-0.1c2.267,0,3.75,0.183,4.45,0.55
				c1.033,0.534,1.7,0.9,2,1.1c0.8,0.533,1.333,1.067,1.6,1.6c0.1,0.233,0.167,0.65,0.2,1.25c0.067,0.567,0.183,0.983,0.35,1.25
				c0.633,1.133,1.683,1.917,3.15,2.35c1.833,0.467,3.767,0.417,5.8-0.15h0.05l0.05-0.4C40.15-11.017,40.15-11.083,40.15-11.15z
				 M-3.2-2.55C-3.7-2.417-4.417-2.167-5.35-1.8C-6.283-1.367-6.983-1.1-7.45-1c-3.5,0.7-6.083,0.617-7.75-0.25
				c-0.1-0.067-0.183-0.117-0.25-0.15l-0.6-0.45c-0.2-0.167-0.367-0.333-0.5-0.5c0.633,0.167,1.233,0.3,1.8,0.4l1.35,0.25
				c0.566,0.1,1.1,0.167,1.6,0.2c-0.7-2.133-2.133-3.533-4.3-4.2c-1.566-0.5-3.85-0.65-6.85-0.45C-27.45-5.917-31.533-3.533-35.2,1
				l-4.35-0.7l-0.2,0.65h0.05l3.75,1.55c0.934-0.533,1.983-0.75,3.15-0.65c-0.067-0.4-0.184-0.75-0.35-1.05
				c0.533,0.2,0.9,0.583,1.1,1.15c1.233,0.233,2.367,0.75,3.4,1.55c0.133,0.1,0.25,0.2,0.35,0.3c0.1-0.1,0.25-0.183,0.45-0.25
				c0.5-0.2,1.767-1.267,3.8-3.2c0.5-0.467,0.95-0.867,1.35-1.2l-1.8,1.7c0.5-0.367,1.133-0.567,1.9-0.6h2.4c1.167,0.6,2,1,2.5,1.2
				C-16.733,1.817-15.833,2-15,2c1.367,0.033,2.2,0.05,2.5,0.05c0.9-0.033,1.683-0.183,2.35-0.45C-9.75,1.433-9.033,1.033-8,0.4
				c1-0.533,1.733-0.717,2.2-0.55C-5.933,0.183-6.317,0.533-6.95,0.9c-0.566,0.333-1.066,0.55-1.5,0.65c2.2-0.267,3.534-0.466,4-0.6
				c0.733-0.233,1.667-0.767,2.8-1.6c0.9-0.5,2-0.55,3.3-0.15c0.7,0.233,1.767,0.617,3.2,1.15c2.1,0.4,4.533,0.233,7.3-0.5L14.9-0.2
				l-1.6-0.3c1.733-0.533,3-1.133,3.8-1.8c1.133-0.934,1.917-1.55,2.35-1.85c0.9-0.567,1.85-0.934,2.85-1.1L22-5.6h-1.35
				c-2.267,1.1-4.633,1.817-7.1,2.15C10.983-3.117,8.6-3.283,6.4-3.95c-1.233-2.133-2.25-3.6-3.05-4.4l0.15-0.4
				C4.567-8.883,6.333-8.867,8.8-8.7c1.467,0.1,3.4,0.633,5.8,1.6c0.367-0.566,0.267-1.2-0.3-1.9c-0.466-0.567-1.033-1-1.7-1.3
				c-1.067-0.434-3.067-0.8-6-1.1c0.566,0.333,1.066,0.55,1.5,0.65l-7.35-0.8c-1-0.1-1.683-0.184-2.05-0.25
				C-2.133-12-2.7-12.367-3-12.9c0.367,0.9,0.717,1.617,1.05,2.15c-0.4-0.3-0.917-0.783-1.55-1.45
				c-0.667-0.733-1.15-1.216-1.45-1.45c0.267,0.967,0.483,1.717,0.65,2.25c0.267,0.967,0.617,1.667,1.05,2.1
				c0.1,0.167,0.317,0.35,0.65,0.55C-3-8.683-3.65-8.833-4.55-9.2l-1.9-1C-6.517-9.833-6.5-9.467-6.4-9.1
				c0.233,0.767,0.8,1.6,1.7,2.5c0.767,0.767,1.517,1.317,2.25,1.65C-1.95-4.683-1.267-4.5-0.4-4.4c1.2,0.133,1.883,0.217,2.05,0.25
				l0.3,0.05c1.167,0,2.1,0.15,2.8,0.45c0.1,0.033,1.067,0.5,2.9,1.4c1.167,0.567,2.2,0.917,3.1,1.05c-3.4-0.2-5.933-0.433-7.6-0.7
				C1.117-2.567-0.367-2.883-1.3-2.85L-1.7-2.8C-2-2.767-2.25-2.667-2.45-2.5L-3.2-2.55z M-9.15,17l-0.05,0.05
				c0.033,0.033,0.066,0.066,0.1,0.1C-9.133,17.115-9.15,17.064-9.15,17z"/>
			<path style="fill-rule:evenodd;clip-rule:evenodd;fill:#B56A61;" d="M3.75,11.05L1.8,11.8l-0.05,0.05l-0.35,0.1L1.35,12l0.4,0.25
				L1.8,12.2L3.75,11.05z M8.8,9.1c0.4-0.367,1.167-0.667,2.3-0.9l0.75-0.25H11.7c-1.2,0.2-2.083,0.433-2.65,0.7
				c-0.733,0.333-1.683,0.833-2.85,1.5L8.8,9.1z M5.75,8.6C5.25,8.467,4.6,8.417,3.8,8.45C2.9,8.483,2.25,8.5,1.85,8.5
				c-1.2,0-2.383,0.05-3.55,0.15c0.767,0,1.733,0.033,2.9,0.1C0.867,8.917,0.417,9.033-0.15,9.1C-0.817,9.2-1.267,9.283-1.5,9.35
				c-0.1,0.033-0.333,0.133-0.7,0.3c1.267-0.233,2.434-0.367,3.5-0.4c0.667,0,1.633-0.1,2.9-0.3C5.067,8.817,5.75,8.767,6.25,8.8
				L5.75,8.6z M-3.3,4.05h0.55C-2.783,4.617-3.8,5.167-5.8,5.7h-0.05C-5.917,5.733-5.967,5.75-6,5.75L-6.8,6.3h0.05
				c1.933-0.066,3.333-0.35,4.2-0.85C-1.617,4.983-1,4.7-0.7,4.6c0.133-0.067,0.534-0.15,1.2-0.25C1.033,4.283,1.417,4.167,1.65,4
				C-0.583,3.867-2.233,3.883-3.3,4.05z M38.05-19.4c-0.3-0.434-0.617-0.783-0.95-1.05c-0.567,1.1-1.75,1.517-3.55,1.25
				c-0.367-0.066-0.65-0.2-0.85-0.4c-0.233-0.267-0.434-0.483-0.6-0.65c-0.833-0.633-1.467-1.117-1.9-1.45
				c-1.5-1.033-2.8-1.716-3.9-2.05c-1.566-0.467-3.117-0.717-4.65-0.75H18.6c-1.233,0.333-2.167,0.517-2.8,0.55
				c-0.167,0.5,0.067,0.867,0.7,1.1c0.967,0.367,1.467,0.567,1.5,0.6c-0.333,0.033-1.083,0.067-2.25,0.1
				c-0.933,0-1.667,0.083-2.2,0.25c-0.7,0.167-1.633,0.667-2.8,1.5C9.517-19.567,8.933-18.917,9-18.45
				c0.033,0.267,0.217,0.417,0.55,0.45c0.434,0.067,0.684,0.133,0.75,0.2c-1.1-0.034-2-0.017-2.7,0.05
				c-1.333,0.1-2.017,0.533-2.05,1.3c0,0.4,0.333,0.65,1,0.75c0.367,0.067,0.917,0.117,1.65,0.15l1.05,0.15
				c-1.067-0.333-1.85-0.617-2.35-0.85c0.333-0.6,1.117-0.917,2.35-0.95c0.667-0.033,1.583-0.05,2.75-0.05
				c-0.233-0.233-0.917-0.5-2.05-0.8c-0.733-0.2-0.883-0.583-0.45-1.15c0.667-0.9,1.767-1.5,3.3-1.8c0.5-0.1,1.233-0.15,2.2-0.15
				c1.1-0.033,1.833-0.067,2.2-0.1c0.433-0.033,1.15-0.033,2.15,0c0.933,0.067,1.65,0.067,2.15,0c-0.067-0.367-0.2-0.717-0.4-1.05
				c0.733-0.5,1.85-0.567,3.35-0.2c0.4,0.1,1.517,0.5,3.35,1.2c2.167,0.867,3.684,2.05,4.55,3.55c0.367,0.633,0.816,1.633,1.35,3
				c0.533,1.2,1.133,2.133,1.8,2.8c0.633,0.6,1.733,0.934,3.3,1c0.367,0,0.817-0.066,1.35-0.2c0.133-1.067,0.083-2.083-0.15-3.05
				c-0.467-1.833-0.967-3.3-1.5-4.4L38.05-19.4z M-36.9-4.6c-0.267,0.233-0.533,0.517-0.8,0.85L-38-3.3l-0.85,1.65
				c-0.233,0.566-0.467,1.217-0.7,1.95L-35.2,1c3.667-4.533,7.75-6.917,12.25-7.15c3-0.2,5.284-0.05,6.85,0.45
				c2.167,0.667,3.6,2.067,4.3,4.2c0.3,0,0.583,0,0.85,0c0.067-0.133,0.117-0.3,0.15-0.5c0-0.133,0-0.65,0-1.55
				c-0.034-0.7-0.117-1.167-0.25-1.4c-0.067-0.066-0.434-0.316-1.1-0.75c-0.533-0.367-1.083-1-1.65-1.9
				c-0.667-0.967-1.167-1.65-1.5-2.05c-0.133-0.067-0.267-0.117-0.4-0.15c-5.633-2.1-11.417-1.133-17.35,2.9
				C-34.85-5.967-36.133-5.2-36.9-4.6z M-2.3-3.95h0.65l3.6-0.15l-0.3-0.05C1.483-4.183,0.8-4.267-0.4-4.4
				c-0.867-0.1-1.55-0.283-2.05-0.55C-3.183-5.283-3.933-5.833-4.7-6.6c-0.9-0.9-1.466-1.733-1.7-2.5
				c-0.1-0.367-0.117-0.733-0.05-1.1l1.9,1C-3.65-8.833-3-8.683-2.6-8.75c-0.333-0.2-0.55-0.383-0.65-0.55
				c-0.433-0.434-0.783-1.133-1.05-2.1c-0.167-0.533-0.383-1.283-0.65-2.25c0.3,0.233,0.784,0.717,1.45,1.45
				c0.633,0.667,1.15,1.15,1.55,1.45C-2.283-11.283-2.633-12-3-12.9c0.3,0.533,0.867,0.9,1.7,1.1c0.367,0.066,1.05,0.15,2.05,0.25
				l7.35,0.8c-0.434-0.1-0.934-0.317-1.5-0.65l-2-1.4c-0.667,0.3-1.8,0.383-3.4,0.25c-1.367-0.1-2.333-0.2-2.9-0.3
				c-1.233-0.2-2.083-0.55-2.55-1.05l2.75,0.85c-0.133-0.167-0.933-0.55-2.4-1.15c-1.133-0.466-1.65-1.05-1.55-1.75
				c0.233,0.067,0.567,0.3,1,0.7c0.4,0.4,0.784,0.65,1.15,0.75c0.633,0.133,1.417,0.133,2.35,0c-0.167-0.233-0.466-0.417-0.9-0.55
				c-0.6-0.2-0.967-0.333-1.1-0.4c-0.466-0.267-0.966-0.75-1.5-1.45C-4.717-17.267-4.9-17.8-5-18.5c-0.1-0.767-0.25-1.317-0.45-1.65
				c-0.466,0.3-0.75,0.9-0.85,1.8c-0.167,1.233-0.284,1.95-0.35,2.15c-0.367-0.833-0.667-1.333-0.9-1.5
				c-0.367-0.3-0.767-0.083-1.2,0.65c-0.667,1.066-1.183,2.267-1.55,3.6c0.133,0.4,0.5,1.367,1.1,2.9C-8.367-8.25-7.533-6.733-6.7-6
				C-5.6-5.033-4.133-4.35-2.3-3.95z M-8.2-1.75c-1.233,0.333-2.667,0.4-4.3,0.2c-0.267-0.034-0.567-0.083-0.9-0.15l-1.35-0.25
				c-0.567-0.1-1.167-0.233-1.8-0.4c0.133,0.167,0.3,0.333,0.5,0.5l0.6,0.45c0.067,0.033,0.15,0.083,0.25,0.15
				C-13.533-0.383-10.95-0.3-7.45-1c0.467-0.1,1.167-0.367,2.1-0.8C-4.417-2.167-3.7-2.417-3.2-2.55L-3.4-2.6
				c-1.3,0.533-2.067,0.817-2.3,0.85C-6.667-1.583-7.5-1.583-8.2-1.75z M-4.7,8.35C-5.6,8.617-6.817,9-8.35,9.5
				c-0.066,0.033-0.133,0.05-0.2,0.05C-7.483,9.617-6.2,9.217-4.7,8.35z M-16.7,14.45l-0.7,0.1c-0.633,0.133-1.033,0.317-1.2,0.55
				L-16.7,14.45z"/>
		</g>
	</g>
</symbol>
<symbol  id="flamingo_1_" viewBox="-81.562 -84.345 159.525 173.99">
	<g id="neck1_1_">
		<g id="neck_3_">
			
				<path style="fill-rule:evenodd;clip-rule:evenodd;fill:none;stroke:#E08378;stroke-width:6;stroke-linecap:round;stroke-linejoin:round;stroke-miterlimit:3;" d="
				M-55.1,82.85l3.2-1.35c2.533-1.233,4.7-2.617,6.5-4.15c5.833-5,7.1-10.783,3.8-17.35c-0.175-0.351-0.358-0.7-0.55-1.05
				c-1.698-3.043-4.131-6.061-7.3-9.05c-1.048-1.007-2.681-2.407-4.9-4.2c-1.372-1.115-2.972-2.381-4.8-3.8
				c-3.967-3.066-6.767-5.533-8.4-7.4c-2.367-2.767-3.583-5.567-3.65-8.4c-0.167-6.333,2.117-11.517,6.85-15.55
				c2.367-2.033,4.75-3.417,7.15-4.15"/>
		</g>
		<g id="shadow_3_">
			
				<path style="fill-rule:evenodd;clip-rule:evenodd;fill:none;stroke:#B56A61;stroke-width:2;stroke-linecap:round;stroke-linejoin:round;stroke-miterlimit:3;" d="
				M-57.6,79.7l3.05-0.9c2.4-0.867,4.517-1.867,6.35-3c5.767-3.7,7.5-8.25,5.2-13.65c-0.452-1.079-1.002-2.146-1.65-3.2
				c-1.477-2.364-3.46-4.664-5.95-6.9c-1.346-1.231-4.046-3.348-8.1-6.35c-0.662-0.493-1.362-1.01-2.1-1.55
				c-4.267-3.1-7.3-5.733-9.1-7.9c-2.667-3.167-4.083-6.583-4.25-10.25c-0.267-6.333,2.066-12.033,7-17.1
				c2.467-2.5,4.95-4.383,7.45-5.65"/>
		</g>
		<g id="hilight_3_">
			
				<path style="fill-rule:evenodd;clip-rule:evenodd;fill:none;stroke:#E5A39D;stroke-linecap:round;stroke-linejoin:round;stroke-miterlimit:3;" d="
				M-53.5,82.15l3.1-1.25c2.433-1.1,4.566-2.383,6.4-3.85c5.9-4.667,7.733-10.2,5.5-16.6c-0.175-0.503-0.366-1.003-0.575-1.5
				c-1.461-3.483-3.753-6.799-6.875-9.95c-0.959-0.989-2.159-2.089-3.6-3.3c-1.804-1.524-3.987-3.224-6.55-5.1
				c-4.433-3.267-7.367-5.684-8.8-7.25c-2.5-2.667-3.684-5.35-3.55-8.05c0.267-5.066,2.1-9.55,5.5-13.45
				c1.7-1.967,3.383-3.417,5.05-4.35"/>
		</g>
	</g>
	<g id="HEAD_tall_1_">
		
			<use xlink:href="#head1"  width="33.607" height="22.991" x="-30.657" y="-12.341" transform="matrix(0.951 0.309 -0.309 0.951 -53.6006 80.9502)" style="overflow:visible;"/>
	</g>
	<g id="leg2_3_">
		
			<use xlink:href="#leg2"  width="11.626" height="67.51" x="-11.317" y="-67.501" transform="matrix(0.9602 0.2793 -0.2793 0.9602 -42.3496 -1.0498)" style="overflow:visible;"/>
	</g>
	<g id="leg1_1_">
		
			<use xlink:href="#leg1"  width="4.489" height="72.144" x="-3.169" y="-70.784" transform="matrix(0.9714 -0.2374 0.2374 0.9714 -43 -4.6006)" style="overflow:visible;"/>
	</g>
	<g id="leg3_1_">
		
			<use xlink:href="#leg3"  width="2.166" height="62.392" x="-0.565" y="-61.316" transform="matrix(0.9601 -0.2796 0.2796 0.9601 -5.4502 -17.0493)" style="overflow:visible;"/>
	</g>
	<g id="leg4_1_">
		
			<use xlink:href="#leg4"  width="11.308" height="63.772" x="-10.696" y="-63.33" transform="matrix(0.966 0.2583 -0.2583 0.966 -5.5005 -20.7998)" style="overflow:visible;"/>
	</g>
	<g id="neck2_1_">
		<g id="neck_2_">
			
				<path style="fill-rule:evenodd;clip-rule:evenodd;fill:none;stroke:#E08378;stroke-width:6;stroke-linecap:round;stroke-linejoin:round;stroke-miterlimit:3;" d="
				M54.3,19.8c-3.433,1.5-7.066,2.317-10.9,2.45c-3.9,0.133-7.066-0.717-9.5-2.55c-2.333-1.667-3.983-4.233-4.95-7.7
				c-0.133-0.3-0.217-0.583-0.25-0.85c-0.833-3.367-0.767-6.5,0.2-9.4c0.6-1.933,1.867-4.267,3.8-7
				c1.767-2.567,2.783-4.45,3.05-5.65c0.533-2-0.133-4.05-2-6.15c-4.133-4.833-9.3-5.85-15.5-3.05c-1.867,0.867-3.75,2.067-5.65,3.6
				l-2.25,2"/>
		</g>
		<g id="shadow_2_">
			
				<path style="fill-rule:evenodd;clip-rule:evenodd;fill:none;stroke:#B56A61;stroke-width:2;stroke-linecap:round;stroke-linejoin:round;stroke-miterlimit:3;" d="
				M54,15.8c-3.033,1.7-6.2,2.833-9.5,3.4c-4.067,0.7-7.267,0.2-9.6-1.5c-1.566-1.167-2.733-2.867-3.5-5.1
				c-0.2-0.567-0.367-1.15-0.5-1.75c-0.767-2.967-0.7-5.75,0.2-8.35c0.633-1.767,2.05-4.167,4.25-7.2c2-2.733,3.117-4.883,3.35-6.45
				c0.4-2.5-0.55-5.15-2.85-7.95c-4.067-4.867-9.6-6.217-16.6-4.05c-2.167,0.7-4.35,1.667-6.55,2.9l-2.7,1.8"/>
		</g>
		<g id="hilight_2_">
			
				<path style="fill-rule:evenodd;clip-rule:evenodd;fill:none;stroke:#E5A39D;stroke-linecap:round;stroke-linejoin:round;stroke-miterlimit:3;" d="
				M52.65,20.35c-3.2,1.5-6.683,2.367-10.45,2.6c-3.567,0.233-6.6-0.284-9.1-1.55c-2.667-1.4-4.684-3.683-6.05-6.85
				c-0.033-0.033-0.066-0.1-0.1-0.2c-1.667-3.967-2.1-7.65-1.3-11.05c0.533-2.2,1.817-4.683,3.85-7.45C31.6-7.083,32.8-9,33.1-9.9
				c0.633-2,0.017-3.967-1.85-5.9c-3.633-3.6-8-4.4-13.1-2.4c-1.566,0.6-3.15,1.45-4.75,2.55l-1.85,1.45"/>
		</g>
	</g>
	<g id="body_1_">
		
			<use xlink:href="#body"  width="80.406" height="53.779" x="-40.183" y="-26.878" transform="matrix(1 0 0 1 -23.8999 1.6499)" style="overflow:visible;"/>
	</g>
	<g id="HEAD_short_1_">
		
			<use xlink:href="#head2"  width="25.112" height="36.005" x="-2.751" y="-31.052" transform="matrix(0.9007 0.4344 -0.4344 0.9007 48.5498 21.2002)" style="overflow:visible;"/>
	</g>
	<g id="states_3_">
	</g>
</symbol>
<symbol  id="head1" viewBox="-30.657 -12.341 33.607 22.991">
	<g id="Layer_15_1_">
		<g>
			<g>
				<path style="fill-rule:evenodd;clip-rule:evenodd;fill:#E08378;" d="M-9.75,10.35c2.533,0.4,4.533,0.4,6,0
					c2.933-0.8,5.167-3.017,6.7-6.65c0-3.067-1.15-5.75-3.45-8.05C-1.533-4.917-3.9-5.2-7.6-5.2c-1.467,0-3.35,0.383-5.65,1.15
					l-2.775,1.075L-15.85-2.7c0.1,0.133,0.9,0.85,2.4,2.15C-12.517,0.283-12.033,1.2-12,2.2c0,0.9-0.433,1.783-1.3,2.65
					c-0.9,0.867-1.833,1.333-2.8,1.4l3.05,2.5C-11.917,9.617-10.817,10.15-9.75,10.35z"/>
			</g>
			<g>
				<path style="fill-rule:evenodd;clip-rule:evenodd;fill:#CE786F;" d="M0.7-3C0.333-2.633,0.283-2.117,0.55-1.45
					c-0.6-0.566-0.983-1.033-1.15-1.4V-2.9c-0.967-0.633-2.217-1.017-3.75-1.15C-5.283-4.117-6.617-4.1-8.35-4l0.4,0.45
					c-0.533,0-0.933,0-1.2,0C-9.617-3.517-10-3.433-10.3-3.3L-10-3c-0.3,0.1-0.783,0.167-1.45,0.2
					c-0.667,0.033-1.167,0.117-1.5,0.25H-12c-1.169,0.286-1.986,0.661-2.45,1.125c0.127,0.112,0.261,0.229,0.4,0.35
					c0.271-0.099,0.637-0.158,1.1-0.175c0.467-0.033,1.117-0.067,1.95-0.1c2.967-0.2,3.85,0.067,2.65,0.8
					c0.5-0.067,1.017,0.066,1.55,0.4c0.3,0.167,0.75,0.467,1.35,0.9c-0.066-0.367-0.333-0.733-0.8-1.1
					c0.833-0.133,1.717,0.567,2.65,2.1c-0.033-0.633-0.2-1.267-0.5-1.9c0.233,0.1,0.633,0.2,1.2,0.3
					c0.133-0.433,0.017-0.833-0.35-1.2c0.5-0.233,1.267-0.217,2.3,0.05C0.083-0.767,0.8-0.45,1.2-0.05
					c0.033-0.434,0.017-1.2-0.05-2.3L0.7-3z M1.7,6.1c0.033-0.4,0.167-0.9,0.4-1.5c0.233-0.7,0.383-1.184,0.45-1.45
					C2.583,2.983,2.617,2.7,2.65,2.3c0-0.267,0.05-0.45,0.15-0.55c-0.133-0.667-0.267-1.167-0.4-1.5L2.25,0.2
					c-0.067,0.133-0.1,0.383-0.1,0.75c0,0.333-0.033,0.566-0.1,0.7C1.983,1.783,1.833,1.983,1.6,2.25C1.3,2.55,1.1,2.783,1,2.95
					c-0.533,0.966-0.85,1.533-0.95,1.7c-0.333,0.533-0.767,1.033-1.3,1.5c0.5-0.066,0.867-0.283,1.1-0.65
					C-0.383,6.167-0.517,6.667-0.55,7c0.466-0.433,0.9-0.75,1.3-0.95c0.1,0.633-0.217,1.4-0.95,2.3C0.433,7.817,1.067,7.067,1.7,6.1
					z"/>
				<path style="fill-rule:evenodd;clip-rule:evenodd;fill:#E5A39D;" d="M-14.45,6.65c0.4,0,0.817,0.25,1.25,0.75
					c0.267,0.267,0.617,0.667,1.05,1.2c0.733,0.667,1.6,1.133,2.6,1.4c0.9,0.233,1.833,0.333,2.8,0.3
					c0.5-0.033,0.983-0.183,1.45-0.45c0.633-0.4,1.066-0.633,1.3-0.7c-0.2,0-1.017,0.067-2.45,0.2C-7.483,9.417-8.3,9.4-8.9,9.3
					c-0.434-0.066-0.883-0.283-1.35-0.65C-10.783,8.217-11.2,7.9-11.5,7.7c-1.233-0.767-2.033-1.383-2.4-1.85
					c-0.066-0.126-0.125-0.243-0.175-0.35c-0.166,0.114-0.333,0.214-0.5,0.3L-14.45,6.65z"/>
				<path style="fill-rule:evenodd;clip-rule:evenodd;fill:#E3978E;" d="M-9.95,7.025C-10.481,6.795-10.832,6.62-11,6.5
					c-0.293-0.215-0.543-0.499-0.75-0.85c-0.137-0.25-0.253-0.534-0.35-0.85h-0.35c0,0.867,0,1.317,0,1.35
					c0.067,0.467,0.3,0.833,0.7,1.1c0.333,0.267,0.767,0.417,1.3,0.45c0.534,0.033,0.934-0.1,1.2-0.4
					C-9.509,7.198-9.743,7.106-9.95,7.025z M-5.8,3.55c0.033,0.133,0.05,0.667,0.05,1.6h0.65c0.8-0.566,1.05-1.233,0.75-2
					c-0.233-0.7-0.8-1.3-1.7-1.8c-0.867-0.5-1.667-0.684-2.4-0.55C-9.283,0.933-9.767,1.483-9.9,2.45
					c0.195-0.114,0.387-0.205,0.575-0.275c0.651-0.233,1.301-0.233,1.95,0C-7.185,2.246-6.993,2.338-6.8,2.45
					C-6.233,2.783-5.9,3.15-5.8,3.55z"/>
				<path style="fill-rule:evenodd;clip-rule:evenodd;fill:#B76B62;" d="M-9.95,7.025C-9.666,7.039-9.349,7.031-9,7
					c1.694-0.148,2.502-0.749,2.425-1.8c-0.08,0.122-0.172,0.238-0.275,0.35c-0.433,0.4-0.933,0.6-1.5,0.6
					c-0.566,0-1.066-0.2-1.5-0.6c-0.388-0.42-0.588-0.904-0.6-1.45V4.05c-0.032-0.364-0.032-0.881,0-1.55
					c-0.8,0.1-1.267,0.4-1.4,0.9c-0.1,0.333-0.066,0.967,0.1,1.9c-0.006,0.122-0.006,0.239,0,0.35
					c0.207,0.352,0.457,0.635,0.75,0.85C-10.832,6.62-10.481,6.795-9.95,7.025z"/>
				<path style="fill-rule:evenodd;clip-rule:evenodd;fill:#B56A61;" d="M0.7-3l-1.1-1.25C-1.333-4.883-3.767-5.2-7.7-5.2
					c-1.466,0-3.383,0.383-5.75,1.15l-2.925,1.1c0.041,0.018,0.083,0.035,0.125,0.05l0.2-0.1l0.2,0.3
					c0.075,0.1,0.542,0.525,1.4,1.275c0.464-0.464,1.281-0.839,2.45-1.125h-0.95c0.333-0.133,0.833-0.217,1.5-0.25
					C-10.783-2.833-10.3-2.9-10-3l-0.3-0.3c0.3-0.133,0.683-0.217,1.15-0.25c0.267,0,0.667,0,1.2,0L-8.35-4
					c1.733-0.1,3.067-0.117,4-0.05C-2.817-3.917-1.567-3.533-0.6-2.9v0.05c0.167,0.367,0.55,0.833,1.15,1.4
					C0.283-2.117,0.333-2.633,0.7-3z"/>
			</g>
		</g>
	</g>
	<g id="beakBottom_1_">
		
			<use xlink:href="#beakBottom"  width="16.602" height="12.356" x="-16.602" y="-11.85" transform="matrix(1 0 0 1 -13.4502 -0.3501)" style="overflow:visible;"/>
	</g>
	<g id="Layer_16_1_">
		
			<use xlink:href="#beakTop"  width="18.657" height="18.591" x="-17.157" y="-11.791" transform="matrix(1 0 0 1 -13.5 -0.5498)" style="overflow:visible;"/>
	</g>
	<g id="Layer_20_1_">
		<g>
			<path style="fill-rule:evenodd;clip-rule:evenodd;fill:#504739;" d="M-10.45,4.1c0.012,0.546,0.212,1.029,0.6,1.45
				c0.434,0.4,0.934,0.6,1.5,0.6c0.567,0,1.067-0.2,1.5-0.6c0.103-0.111,0.195-0.228,0.275-0.35C-6.358,4.854-6.25,4.471-6.25,4.05
				c0-0.566-0.2-1.066-0.6-1.5c-0.167-0.154-0.342-0.279-0.525-0.375c-0.649-0.233-1.299-0.233-1.95,0
				C-9.506,2.27-9.681,2.395-9.85,2.55c-0.4,0.434-0.6,0.934-0.6,1.5V4.1z M-9.2,5.35c-0.533-0.434-0.667-0.833-0.4-1.2
				c0.3-0.4,0.717-0.417,1.25-0.05c0.533,0.433,0.667,0.833,0.4,1.2C-8.083,5.467-8.267,5.55-8.5,5.55
				C-8.733,5.583-8.967,5.517-9.2,5.35z"/>
			<path style="fill-rule:evenodd;clip-rule:evenodd;fill:#84765E;" d="M-9.2,5.35c0.233,0.167,0.467,0.233,0.7,0.2
				c0.233,0,0.417-0.083,0.55-0.25c0.267-0.367,0.133-0.767-0.4-1.2C-8.883,3.733-9.3,3.75-9.6,4.15
				C-9.867,4.517-9.733,4.917-9.2,5.35z"/>
		</g>
	</g>
	<g id="states_1_">
	</g>
</symbol>
<symbol  id="head2" viewBox="-2.751 -31.052 25.112 36.005">
	<g id="Layer_22_1_">
		<path style="fill-rule:evenodd;clip-rule:evenodd;fill:#E08378;" d="M-2.4-2.9l0.25-0.7c-0.767,1.767-0.8,3.4-0.1,4.9
			c0.028,0.03,0.053,0.063,0.075,0.1C-1.718,2.326-0.993,3.226,0,4.1c1.8,0.6,3.583,0.883,5.35,0.85
			c0.079,0,0.354-0.025,0.825-0.075C7.95,4.978,9.575,4.62,11.05,3.8c1.367-0.733,2.817-2.133,4.35-4.2
			c0.478-0.654,0.836-1.47,1.075-2.45c-0.028,0.075-0.053,0.142-0.075,0.2c-0.333,0.1-0.967,0.383-1.9,0.85
			c-0.2-0.434-0.117-1.117,0.25-2.05l-0.075,0.025C14.574-3.458,14.366-3.116,14.05-2.8c-0.367,0.4-0.733,0.6-1.1,0.6
			c0.095-0.223,0.179-0.431,0.25-0.625C13.022-2.618,12.805-2.41,12.55-2.2c-1.355,1.109-2.372,1.209-3.05,0.3
			C9.662-1.867,9.829-1.85,10-1.85c0.567,0.033,1.067-0.167,1.5-0.6c0.4-0.4,0.6-0.883,0.6-1.45c0-0.377-0.092-0.719-0.275-1.025
			c-0.068-0.139-0.16-0.281-0.275-0.425c-0.5-0.533-0.867-0.917-1.1-1.15c0.633-0.467,1.183-0.583,1.65-0.35
			c0.3,0.167,0.717,0.65,1.25,1.45c0.086,0.081,0.161,0.164,0.225,0.25C13.506-5.421,13.397-5.705,13.25-6l0.2-0.25
			c0.633,0.667,0.95,1.017,0.95,1.05c0.014,0.018,0.031,0.035,0.05,0.05c0.116-0.58,0.316-1.097,0.6-1.55
			c0.06-0.09,0.119-0.173,0.175-0.25c-0.322,0.057-0.664,0.09-1.025,0.1c-1.2-0.033-2.117-0.367-2.75-1
			c-0.7-0.7-1.017-1.683-0.95-2.95c0.005-0.058,0.013-0.116,0.025-0.175C10.125-10.816,9.817-10.658,9.6-10.5
			C8.867-9.933,8.5-9.483,8.5-9.15c0,0.1,0.233,0.667,0.7,1.7c-0.304,0.221-0.629,0.521-0.975,0.9C8.803-6.778,9.395-6.645,10-6.15
			C9.705-6.072,9.438-5.964,9.2-5.825C8.699-5.543,8.316-5.134,8.05-4.6C7.95-4.4,7.867-4.184,7.8-3.95
			C7.633-3.35,7.65-2.867,7.85-2.5c0.066,0.1,0.433,0.483,1.1,1.15l-0.5,0.5C7.483-0.717,6.833-1.017,6.5-1.75L6.475-1.8
			c-0.299,0.36-0.607,0.36-0.925,0c-0.933-1.133-1.433-1.717-1.5-1.75c0-0.034-0.617,0.066-1.85,0.3
			C2.033-3.217,1.817-3.233,1.55-3.3C1.283-3.367,1.1-3.383,1-3.35C0.833-3.317,0.717-3.167,0.65-2.9L0.5-2.55
			c-1.133,0.4-1.8,0.683-2,0.85C-2-1.367-2.383-0.8-2.65,0C-2.817-1-2.733-1.967-2.4-2.9z M-0.725-5.825
			C-0.769-5.833-0.811-5.841-0.85-5.85c-0.544,0.77-0.969,1.511-1.275,2.225L-1.5-4.15l0.45-1.2
			C-0.954-5.503-0.846-5.661-0.725-5.825z M6.25,2.9c1.7-0.133,4.117-0.9,7.25-2.3c-0.833,1.2-2.483,2.483-4.95,3.85l0.2-0.65
			C8.05,4,7,4.1,5.6,4.1c-1.533,0-2.883-0.133-4.05-0.4l-0.1-0.05c-1.133-0.5-2.034-1-2.7-1.5L-0.5,2.3
			c0.067-0.5,1.05-0.55,2.95-0.15C4.85,2.65,6.117,2.9,6.25,2.9z M17.05-7.675L16.95-6.9l0.125-0.8L17.05-7.675z M10.675-13.275
			c-0.004,0.104-0.004,0.22,0,0.35c0.027-0.49,0.035-0.815,0.025-0.975c0.005,0.116-0.003,0.316-0.025,0.6V-13.275z"/>
		<path style="fill-rule:evenodd;clip-rule:evenodd;fill:#CE786F;" d="M17.05-7.675V-7.7c-0.256,0.185-0.539,0.343-0.85,0.475
			L15.225-6.95C15.168-6.874,15.11-6.79,15.05-6.7c-0.283,0.454-0.483,0.97-0.6,1.55C14.68-4.825,14.763-4.442,14.7-4
			c-0.009,0.06-0.018,0.119-0.025,0.175L14.75-3.85C14.383-2.917,14.3-2.233,14.5-1.8c0.933-0.467,1.567-0.75,1.9-0.85
			c0.022-0.059,0.047-0.125,0.075-0.2c0.067-0.314,0.125-0.647,0.175-1c-0.867,0.033-1.25-0.433-1.15-1.4s0.567-1.417,1.4-1.35
			l0.05-0.3L17.05-7.675z M10.675-12.925c-0.004-0.13-0.004-0.247,0-0.35c-0.041,0.069-0.082,0.135-0.125,0.2L10.5-13
			c-0.1,0.167-1.25,0.95-3.45,2.35c-1.566,1-1.917,2-1.05,3c-1.167,0.933-1.983,1.833-2.45,2.7c-0.233-0.8-0.2-1.583,0.1-2.35
			c-0.4,0.4-0.667,0.716-0.8,0.95C2.917-6.717,2.867-7.067,2.7-7.4C2.067-6.967,1.217-6.217,0.15-5.15
			C-0.917-4.083-1.767-3.333-2.4-2.9C-2.733-1.967-2.817-1-2.65,0C-2.383-0.8-2-1.367-1.5-1.7c0.2-0.167,0.867-0.45,2-0.85L0.65-2.9
			C0.717-3.167,0.833-3.317,1-3.35C1.1-3.383,1.283-3.367,1.55-3.3C1.817-3.233,2.033-3.217,2.2-3.25
			c1.233-0.233,1.85-0.333,1.85-0.3c0.067,0.033,0.567,0.617,1.5,1.75c0.318,0.36,0.626,0.36,0.925,0
			C6.197-2.485,6.206-3.302,6.5-4.25c0.267-0.967,0.717-1.667,1.35-2.1c0.122-0.082,0.247-0.148,0.375-0.2
			C8.571-6.929,8.896-7.229,9.2-7.45c-0.467-1.033-0.7-1.6-0.7-1.7c0-0.333,0.367-0.783,1.1-1.35
			c0.217-0.158,0.525-0.316,0.925-0.475L10.675-12.925z"/>
		<path style="fill-rule:evenodd;clip-rule:evenodd;fill:#B56A61;" d="M10.825-14.45h0.025c0.023-0.049,0.048-0.099,0.075-0.15H10.9
			L10.825-14.45z M10.7-13.9V-14l-0.05-0.35C7.227-13.061,4.677-11.611,3-10C1.289-8.317,0.047-6.926-0.725-5.825
			C-0.846-5.661-0.954-5.503-1.05-5.35l-0.45,1.2l-0.625,0.525L-2.15-3.6L-2.4-2.9c0.633-0.434,1.483-1.184,2.55-2.25
			C1.217-6.217,2.067-6.967,2.7-7.4c0.167,0.333,0.216,0.683,0.15,1.05c0.133-0.233,0.4-0.55,0.8-0.95
			c-0.3,0.767-0.333,1.55-0.1,2.35C4.017-5.817,4.833-6.717,6-7.65c-0.867-1-0.517-2,1.05-3c2.2-1.4,3.35-2.184,3.45-2.35
			l0.05-0.075c0.043-0.064,0.084-0.131,0.125-0.2V-13.3C10.697-13.583,10.705-13.784,10.7-13.9z M16.65-3.85
			c0.1-0.733,0.133-1.367,0.1-1.9L16.9-6.6c-0.833-0.066-1.3,0.383-1.4,1.35S15.783-3.817,16.65-3.85z"/>
		<path style="fill-rule:evenodd;clip-rule:evenodd;fill:#E5A39D;" d="M6.25,2.9c-0.133,0-1.4-0.25-3.8-0.75
			C0.55,1.75-0.433,1.8-0.5,2.3l-0.75-0.15c0.667,0.5,1.567,1,2.7,1.5l0.1,0.05C2.717,3.967,4.067,4.1,5.6,4.1
			C7,4.1,8.05,4,8.75,3.8l-0.2,0.65c2.467-1.367,4.117-2.65,4.95-3.85C10.367,2,7.95,2.767,6.25,2.9z"/>
		<path style="fill-rule:evenodd;clip-rule:evenodd;fill:#B76B62;" d="M13.2-2.825c0.249-0.588,0.399-0.997,0.45-1.225
			c0.06-0.339,0.035-0.706-0.075-1.1c-0.064-0.086-0.139-0.169-0.225-0.25c-0.533-0.8-0.95-1.283-1.25-1.45
			c-0.467-0.233-1.017-0.117-1.65,0.35c0.233,0.233,0.6,0.617,1.1,1.15c0.116,0.145,0.207,0.286,0.275,0.425
			C12.008-4.619,12.1-4.277,12.1-3.9c0,0.566-0.2,1.05-0.6,1.45c-0.433,0.434-0.933,0.633-1.5,0.6c-0.171,0-0.338-0.017-0.5-0.05
			c0.678,0.909,1.694,0.809,3.05-0.3C12.805-2.41,13.022-2.618,13.2-2.825z"/>
		<path style="fill-rule:evenodd;clip-rule:evenodd;fill:#E3978E;" d="M14.675-3.825C14.683-3.881,14.691-3.94,14.7-4
			c0.063-0.442-0.021-0.825-0.25-1.15c-0.02-0.016-0.036-0.033-0.05-0.05c0-0.033-0.316-0.383-0.95-1.05L13.25-6
			c0.147,0.295,0.256,0.579,0.325,0.85c0.109,0.395,0.135,0.761,0.075,1.1c-0.051,0.228-0.201,0.636-0.45,1.225
			c-0.071,0.194-0.155,0.402-0.25,0.625c0.367,0,0.733-0.2,1.1-0.6C14.366-3.116,14.574-3.458,14.675-3.825z M8.225-6.55
			C8.097-6.499,7.972-6.432,7.85-6.35C7.217-5.917,6.767-5.217,6.5-4.25C6.206-3.302,6.197-2.485,6.475-1.8L6.5-1.75
			c0.333,0.733,0.983,1.033,1.95,0.9l0.5-0.5C8.283-2.017,7.917-2.4,7.85-2.5C7.65-2.867,7.633-3.35,7.8-3.95
			C7.867-4.184,7.95-4.4,8.05-4.6C8.316-5.134,8.699-5.543,9.2-5.825C9.438-5.964,9.705-6.072,10-6.15
			C9.395-6.645,8.803-6.778,8.225-6.55z"/>
	</g>
	<g id="beakBottom_2_">
		
			<use xlink:href="#beakBottom"  width="16.602" height="12.356" x="-16.602" y="-11.85" transform="matrix(-0.7111 0.7031 0.7031 0.7111 10.6514 -10.6499)" style="overflow:visible;"/>
	</g>
	<g id="beakTop_1_">
		
			<use xlink:href="#beakTop"  width="18.657" height="18.591" x="-17.157" y="-11.791" transform="matrix(-0.7111 0.7031 0.7031 0.7111 10.5498 -10.8501)" style="overflow:visible;"/>
	</g>
	<g id="Layer_3_1_">
		<g>
			<path style="fill-rule:evenodd;clip-rule:evenodd;fill:#504739;" d="M10.65-2.75c-0.467-0.033-0.65-0.4-0.55-1.1
				C10.2-4.517,10.5-4.8,11-4.7c0.433,0.067,0.617,0.45,0.55,1.15c-0.033,0.3-0.15,0.5-0.35,0.6
				C11.033-2.783,10.85-2.717,10.65-2.75z M11.6-5.35h-0.05c-0.4-0.4-0.9-0.633-1.5-0.7C9.817-6.017,9.583-5.967,9.35-5.9
				C8.75-5.6,8.3-5.133,8-4.5C7.933-4.333,7.9-4.133,7.9-3.9c0.033,0.6,0.25,1.1,0.65,1.5c0.3,0.3,0.633,0.5,1,0.6
				C9.717-1.767,9.867-1.75,10-1.75C10.6-1.783,11.1-2,11.5-2.4s0.617-0.9,0.65-1.5C12.15-4.467,11.967-4.95,11.6-5.35z"/>
			<path style="fill-rule:evenodd;clip-rule:evenodd;fill:#84765E;" d="M10.65-2.75c0.2,0.033,0.383-0.033,0.55-0.2
				c0.2-0.1,0.316-0.3,0.35-0.6c0.067-0.7-0.117-1.083-0.55-1.15c-0.5-0.1-0.8,0.184-0.9,0.85C10-3.15,10.183-2.783,10.65-2.75z"/>
		</g>
	</g>
	<g id="states_2_">
	</g>
</symbol>
<symbol  id="leg1" viewBox="-3.169 -70.784 4.489 72.144">
	<g id="Layer_1_19_">
		<g>
			<path style="fill-rule:evenodd;clip-rule:evenodd;fill:#C7C3AE;" d="M1.271,0.415L-0.67-69.858
				c-0.042-0.419-0.438-0.713-1.186-0.881c-0.358-0.081-0.688-0.052-0.992,0.084l-0.321,0.287L-0.222,1.36L1.271,0.415z"/>
			<g>
				<path style="fill-rule:evenodd;clip-rule:evenodd;fill:#747265;" d="M-0.222,1.36L1.32,0.426l-1.941-70.273
					c0.055-0.397-0.292-0.68-1.039-0.848c-0.358-0.081-0.656-0.045-0.895,0.106l-0.223,0.309c0.658,0.114,1.208,0.477,1.651,1.088
					L0.507-6.674l-0.878-0.197l0.004,0.206L-0.55-6.758L-0.222,1.36z"/>
				<path style="fill-rule:evenodd;clip-rule:evenodd;fill:#FFFFFF;" d="M-0.566-6.915l0.195,0.044
					c-0.021-1.883-0.102-6.085-0.242-12.607c-0.17-7.758-0.329-13.054-0.479-15.889c-0.149-3.441-0.413-10.785-0.789-22.03
					c0.136,9.992,0.258,19.028,0.365,27.11L-0.566-6.915z"/>
				<polygon style="fill-rule:evenodd;clip-rule:evenodd;fill:#FFFFFF;" points="-0.367,-6.665 -0.371,-6.871 -0.566,-6.915 
					-0.55,-6.758 				"/>
			</g>
		</g>
	</g>
</symbol>
<symbol  id="leg2" viewBox="-11.317 -67.501 11.626 67.51">
	<g id="Layer_1_20_">
		<g>
			<path style="fill-rule:evenodd;clip-rule:evenodd;fill:#C7C3AE;" d="M-1.128-0.535l1.437,0.543l-9.581-67.324
				c-0.321-0.241-0.708-0.247-1.163-0.018c-0.363,0.183-0.617,0.411-0.759,0.684l-0.123,0.363L-1.128-0.535z"/>
			<g>
				<path style="fill-rule:evenodd;clip-rule:evenodd;fill:#747265;" d="M-2.976-12.574l1.358,9.028L-0.3-4.209l-8.972-63.107
					c-0.321-0.241-0.708-0.247-1.163-0.018c-0.363,0.183-0.617,0.411-0.759,0.684l-0.123,0.363l0.021,0.05
					c0.683-0.384,1.204-0.364,1.564,0.058l7.786,53.569C-2.241-12.703-2.585-12.691-2.976-12.574z"/>
				<path style="fill-rule:evenodd;clip-rule:evenodd;fill:#FFFFFF;" d="M-5.331-27.797l2.168,13.99l0.705,0.369l-6.511-41.061
					C-7.497-43.97-6.284-35.069-5.331-27.797z"/>
			</g>
		</g>
	</g>
</symbol>
<symbol  id="leg3" viewBox="-0.565 -61.316 2.166 62.392">
	<g id="Layer_1_18_">
		<g>
			<path style="fill-rule:evenodd;clip-rule:evenodd;fill:#C7C3AE;" d="M0.814,0.364L1.6-60.453
				c-0.038-0.357-0.377-0.626-1.02-0.807c-0.289-0.082-0.567-0.074-0.837,0.023l-0.309,0.173l0.036,62.14L0.814,0.364z"/>
			<g>
				<path style="fill-rule:evenodd;clip-rule:evenodd;fill:#747265;" d="M0.941-10.769c-0.234-0.031-0.481-0.015-0.742,0.05
					l-0.281,0.077l0.132-49.469l0.335-0.269c0.361-0.175,0.762-0.184,1.202-0.025L1.6-60.453c-0.038-0.357-0.377-0.626-1.02-0.807
					c-0.289-0.082-0.567-0.074-0.837,0.023l-0.309,0.173l0.043,58.246l1.395,0.394L0.941-10.769z"/>
				<path style="fill-rule:evenodd;clip-rule:evenodd;fill:#FFFFFF;" d="M0.95-11.909l0.168-12.939
					c-0.085-6.7-0.143-14.907-0.174-24.621L0.306-11.467L0.95-11.909z"/>
			</g>
		</g>
	</g>
</symbol>
<symbol  id="leg4" viewBox="-10.696 -63.33 11.308 63.772">
	<g id="Layer_1_5_">
		<g>
			<path style="fill-rule:evenodd;clip-rule:evenodd;fill:#C7C3AE;" d="M-1.01-0.124l1.622,0.565L-8.28-63.093
				c-0.347-0.281-0.797-0.312-1.351-0.093c-0.43,0.171-0.73,0.387-0.901,0.648l-0.118,0.337L-1.01-0.124z"/>
			<g>
				<path style="fill-rule:evenodd;clip-rule:evenodd;fill:#747265;" d="M0.612,0.442L-0.4-6.748l-0.166,0.115l-0.029-0.182
					l-0.83,0.329l-8.667-55.211l0.422-0.506c0.33-0.389,0.686-0.643,1.067-0.762c-0.255-0.318-0.659-0.367-1.212-0.148
					c-0.43,0.171-0.715,0.381-0.855,0.629l-0.026,0.3l9.641,62.078L0.612,0.442z"/>
				<path style="fill-rule:evenodd;clip-rule:evenodd;fill:#FFFFFF;" d="M-0.41-6.889L-3.318-27.59
					c-1.222-7.119-2.58-15.083-4.072-23.889c1.485,9.943,2.426,16.444,2.821,19.502c0.32,2.516,1.034,7.197,2.141,14.042
					c0.934,5.754,1.545,9.46,1.834,11.119L-0.41-6.889z"/>
				<polygon style="fill-rule:evenodd;clip-rule:evenodd;fill:#FFFFFF;" points="-0.565,-6.633 -0.4,-6.748 -0.41,-6.889 
					-0.594,-6.815 				"/>
			</g>
		</g>
	</g>
</symbol>
<use xlink:href="#flamingo_1_"  width="159.525" height="173.99" id="flamingo_x5F_mc" x="-81.562" y="-84.345" transform="matrix(-0.9962 -0.0872 0.0872 -0.9962 81.5498 103.5996)" style="overflow:visible;"/>
</svg>
