<?xml version="1.0" encoding="iso-8859-1"?>
<!-- Generator: Adobe Illustrator 15.1.0, SVG Export Plug-In . SVG Version: 6.00 Build 0)  -->
<!DOCTYPE svg PUBLIC "-//W3C//DTD SVG 1.1//EN" "http://www.w3.org/Graphics/SVG/1.1/DTD/svg11.dtd">
<svg version="1.1" id="anim" xmlns="http://www.w3.org/2000/svg" xmlns:xlink="http://www.w3.org/1999/xlink" x="0px" y="0px"
	 width="149.2px" height="185px" viewBox="0 0 149.2 185" style="enable-background:new 0 0 149.2 185;" xml:space="preserve">
<symbol  id="body" viewBox="-30.2 -36.9 60.4 73.8">
	<g id="Layer_1_24_">
		<path style="fill-rule:evenodd;clip-rule:evenodd;fill:#B39140;" d="M-3.5-12.05c0.633-0.067,4.283-0.183,10.95-0.35
			c6.833-0.533,11.35-1.7,13.55-3.5c2.233-1.8,4.233-2.867,6-3.2c0.327-0.061,0.626-0.094,0.9-0.1l-2.4-0.35
			c-1.467-0.2-2.483-0.233-3.05-0.1L22-19.4l0.4-0.75c0.267-0.733,0.467-1.7,0.6-2.9c0.133-1.167,1.216-2.5,3.25-4
			c1-0.733,1.983-1.35,2.95-1.85l-3.85,1.35c-1.6,0.567-3.066,1.667-4.4,3.3L19.45-22l-0.05-1.8c0-1.467,0.1-2.933,0.3-4.4
			c0.2-1.467,0.817-2.767,1.85-3.9c0.5-0.6,0.983-1.034,1.45-1.3l-3.3,1.5c-1.4,0.633-2.816,2.267-4.25,4.9l-1.75,3.8l0.15-4.7
			c0.1-3.1-0.183-5.367-0.85-6.8c0.233,0.533,0.233,1.633,0,3.3c-0.133,1.033-1.067,2.434-2.8,4.2l-2.5,2.3l-0.15-1.65
			c-0.033-1.367,0.117-2.7,0.45-4c0.303-1.076,0.586-1.834,0.85-2.275l0.5-0.375C9.283-33.3,9.167-33.25,9-33.05
			c-0.052,0.063-0.102,0.138-0.15,0.225L7.35-31.7c-0.833,0.633-1.667,1.45-2.5,2.45l-1,1.35l-0.2-1.05
			c-0.133-0.934-0.25-2.033-0.35-3.3c-0.067-1.267,0.25-2.417,0.95-3.45c0.367-0.533,0.733-0.934,1.1-1.2
			c-1.333,0.567-2.95,1.9-4.85,4c-1.233,1.4-2.284,3.3-3.15,5.7c-0.667,1.9-1,3.333-1,4.3c0,0.533-0.566,0.117-1.7-1.25
			c-2.9-3.533-4.383-5.333-4.45-5.4c-1.533-1.733-3.167-2.983-4.9-3.75l-2.1-0.6c0.867,0.567,1.967,1.967,3.3,4.2
			c0.833,1.367,1.75,3.95,2.75,7.75l1.25,5.25l-1.7-2.2c-1.533-1.8-3.35-3.566-5.45-5.3c-2.066-1.767-3.933-2.717-5.6-2.85
			l-1.9,0.35c0.9,0.433,1.85,1.033,2.85,1.8c1.033,0.833,2.184,2.3,3.45,4.4c1.566,2.6,2.333,4.85,2.3,6.75l5.35,0.9
			C-6.467-12.25-4.233-11.983-3.5-12.05z"/>
		<path style="fill-rule:evenodd;clip-rule:evenodd;fill:#DEB550;" d="M-25.05-17.6c1.4,1.3,2.917,3.35,4.55,6.15l2.05,3.85
			c0.3,0.033,0.683,0.167,1.15,0.4c0.934,0.5,1.85,1.233,2.75,2.2L-1.5-5.75c9.267-1.033,15.25-2.933,17.95-5.7
			c2.434-2.5,4.867-4.367,7.3-5.6c1.233-0.6,2.216-0.95,2.95-1.05l0.05-0.1c-1-0.167-2.633,0.05-4.9,0.65
			c-0.867,0.233-1.683,0.533-2.45,0.9l-0.9,0.45l0.95-1.6c0.8-1.133,1.6-1.933,2.4-2.4c1.8-1.1,3.733-1.65,5.8-1.65
			c1.033,0,1.883,0.117,2.55,0.35c-0.667-0.566-2.333-1.1-5-1.6c-1.667-0.3-2.733-0.333-3.2-0.1l-0.2,0.45l0.5-1.6
			c0.333-1.1,0.133-2.483-0.6-4.15l-0.25,1.9c-0.1,0.767-0.467,1.917-1.1,3.45l-0.9,2.05V-22l-0.9-4.85
			c-0.367-2.034-1.233-3.667-2.6-4.9c-0.7-0.633-1.367-1.05-2-1.25c0.467,0.467,0.883,1.083,1.25,1.85
			c0.767,1.567,0.934,3.167,0.5,4.8c-0.4,1.6-1.083,3.417-2.05,5.45l-1.35,2.55l-1.6-2c-1.066-1.7-1.566-3.417-1.5-5.15
			c0.033-1.7,0.483-3.267,1.35-4.7c0.433-0.733,0.85-1.283,1.25-1.65l-3.1,2c-1.3,0.833-2.617,2.267-3.95,4.3l-1.55,2.8l0.1-4.75
			c0.067-1.6,0.55-3.216,1.45-4.85c0.433-0.833,0.867-1.5,1.3-2l-2.75,2.1c-1.133,0.9-2.167,3.117-3.1,6.65l-1,5l-0.9-0.6
			c-0.767-0.767-1.6-2.117-2.5-4.05c-0.867-1.933-2.383-3.45-4.55-4.55c-1.067-0.533-2.05-0.883-2.95-1.05
			c0.767,0.566,1.35,1.6,1.75,3.1c0.267,0.934,0.367,1.867,0.3,2.8l-0.15,1.1l-1.25-2.5c-0.833-1.667-2.333-3.333-4.5-5
			c0.833,1.167,1.617,2.7,2.35,4.6c0.467,1.2,1.017,3.1,1.65,5.7l0.75,3.55l-2.75-3.35c-1.133-1.434-2.667-2.7-4.6-3.8
			c-0.966-0.533-1.816-0.933-2.55-1.2l1.75,2.5c0.733,1.033,1.517,2.95,2.35,5.75l1.05,3.85l-1.7-1.25c-1.567-1.1-3.333-2.3-5.3-3.6
			c-1.967-1.3-3.833-2.1-5.6-2.4h-2.05C-29.034-20.833-27.317-19.7-25.05-17.6z"/>
		<path style="fill-rule:evenodd;clip-rule:evenodd;fill:#FFD466;" d="M9.65-14.2l-0.2,6.35L8.8-16.1
			C8.566-19.533,7.417-23.167,5.35-27c-1.017-1.903-2.017-3.47-3-4.7c0.749,0.977,1.482,3.344,2.2,7.1
			c0.467,2.4,0.683,4.517,0.65,6.35l-0.25,2l-1,3.65c-0.6,2.133-1.367,3.083-2.3,2.85c-1.167-0.267-2.2-2.3-3.1-6.1
			C-2.284-19.35-3.467-22.6-5-25.6c-0.767-1.467-1.45-2.6-2.05-3.4l0.6,3.4c0.267,1.4,0.267,3.2,0,5.4l-0.5,2.85l-1-1.5
			c-0.967-1.467-2.25-3.267-3.85-5.4c-1.633-2.133-3.6-3.983-5.9-5.55c-1.167-0.767-2.167-1.333-3-1.7c1.433,1.667,3.15,4,5.15,7
			c1.267,1.867,2,3.534,2.2,5l-0.1,1.65l-1.45-1.55c-1.333-1.233-2.966-2.383-4.9-3.45c-1.933-1.1-3.55-1.784-4.85-2.05l-1.4-0.1
			c0.7,0.4,1.567,1.05,2.6,1.95c2,1.733,3.75,3.75,5.25,6.05c1.533,2.3,2.483,4.567,2.85,6.8l0.15,2.7l-2.65-2.3
			c-2-1.7-3.65-3.017-4.95-3.95c-1.3-0.933-2.733-1.65-4.3-2.15l-1.95-0.45l5.35,4.25c1.467,1.1,2.983,2.783,4.55,5.05
			c0.267,0.367,1.383,2.1,3.35,5.2L-0.95-4c10.133-1.867,15.767-3.9,16.9-6.1c1.133-2.2,3.167-3.4,6.1-3.6
			c1.433-0.1,2.767,0.017,4,0.35c-0.333-0.5-1.533-1.05-3.6-1.65c-1.3-0.367-2.283-0.466-2.95-0.3L18.95-15l0.25-0.85
			c0.333-0.934,0.917-2.317,1.75-4.15c0.833-1.8,2.567-3.3,5.2-4.5c1.3-0.6,2.517-1.017,3.65-1.25c-0.333-0.1-0.933-0.133-1.8-0.1
			c-1.733,0.1-3.917,0.517-6.55,1.25c-2.667,0.733-4.617,2.417-5.85,5.05l-1.05,3.7l-0.4-0.9c-0.267-0.9-0.417-2.183-0.45-3.85
			c-0.066-1.667,0.333-3.8,1.2-6.4c0.433-1.267,0.867-2.383,1.3-3.35C15.9-30.283,15.5-30,15-29.5c-1.034,1-2.1,2.633-3.2,4.9
			C10.733-22.367,10.017-18.9,9.65-14.2z"/>
		<path style="fill-rule:evenodd;clip-rule:evenodd;fill:#DEB550;" d="M-3.05-16.75c0.3,1.934,0.333,3.867,0.1,5.8l-0.5,2.35
			l-2.85-8.25c-0.833-2.3-2.867-5.05-6.1-8.25c-1.633-1.633-3.183-3.017-4.65-4.15c0.934,0.934,1.917,2.05,2.95,3.35
			c2.066,2.633,3.417,4.85,4.05,6.65c0.633,1.833,0.7,3.417,0.2,4.75L-10.8-13l-1.9-3.75c-0.767-1.566-2.517-3.2-5.25-4.9
			c-1.367-0.867-2.65-1.566-3.85-2.1c1.2,0.867,2.434,1.9,3.7,3.1c2.5,2.4,3.85,4.417,4.05,6.05c0.2,1.6,0.017,2.716-0.55,3.35
			l-0.95,0.5l0.35,1.9c0.933,0.333,1.483,0.75,1.65,1.25c0.3,0.9,0.3,1.433,0,1.6c-0.467,0.267-1.683-0.816-3.65-3.25
			c-1.9-2.4-4.45-4.3-7.65-5.7l-4.025-1.35c0.752,0.277,2.027,0.927,3.825,1.95c1.467,0.8,2.983,2.1,4.55,3.9
			c1.667,1.833,2.983,3.733,3.95,5.7l14.8-1.3c10.2-1.267,16.133-2.833,17.8-4.7s3.833-2.867,6.5-3
			c0.814-0.041,1.564-0.007,2.25,0.1c-0.887-0.188-1.837-0.337-2.85-0.45c-0.933-0.1-1.733-0.233-2.4-0.4l-0.75-0.25l0.4-0.85
			l1.25-3.75c-0.333,0.667-1.167,1.7-2.5,3.1c-0.833,0.9-1.65,1.233-2.45,1l-0.95-0.6L13.7-18l-0.65,1.15
			c-0.233,0.466-0.867,0.533-1.9,0.2l-1.45-0.6c0,0.333,0.083,0.883,0.25,1.65c0.1,0.466,0.15,0.917,0.15,1.35l-0.05,0.5l-1,1.65
			l0.15-2.15c0.067-1.4-0.233-2.35-0.9-2.85L7.55-17l-2.6,0.75c-0.1,0.333-0.517,1.217-1.25,2.65c-0.467,0.867-0.4,1.517,0.2,1.95
			l1.05,0.4c-0.733,1.2-1.533,2.017-2.4,2.45C0.85-7.9-0.267-9.3-0.8-13c-0.533-3.7-1.6-7.35-3.2-10.95
			c-0.833-1.8-1.6-3.233-2.3-4.3C-4.633-23.65-3.55-19.816-3.05-16.75z"/>
		<path style="fill-rule:evenodd;clip-rule:evenodd;fill:#FF462E;" d="M10.85,25.35c1.5-4.267,2.4-8.5,2.7-12.7
			c0.167-2.3,0.317-4.95,0.45-7.95c0.133-2.3,0.4-4.367,0.8-6.2c0.3-1.4,1.333-3.433,3.1-6.1c0.9-1.333,1.75-2.534,2.55-3.6
			l-2.7-1.85c-2.367-1.3-4.967-2.15-7.8-2.55c-5.833-0.867-12.583,0.383-20.25,3.75c-2.533,1.066-5.7,1.867-9.5,2.4L-24.7-9
			c1.467,1.167,2.8,2.833,4,5c0.033,0.067,0.617,0.667,1.75,1.8c0.933,0.933,1.65,2.133,2.15,3.6c0.633,1.833,1.35,5,2.15,9.5
			c0.833,4.767,1.534,8.033,2.1,9.8c0.7,2.267,1.583,5.4,2.65,9.4l1.4,5.3c1.733,0.833,4.55,1.316,8.45,1.45
			c4.833,0.2,7.483-0.8,7.95-3C7.933,33.75,8.917,30.917,10.85,25.35z"/>
		
			<use xlink:href="#flash0.ai_x5F_4_x2F_Layer_5_x2F__x3C_Group_x3E__x5F_3"  width="39.75" height="52.731" y="-52.706" transform="matrix(1 0 0 1 -21.0498 36.8501)" style="overflow:visible;opacity:0.5;enable-background:new    ;"/>
		
			<use xlink:href="#flash0.ai_x5F_4_x2F_Layer_5_x2F__x3C_Group_x3E__x5F_2"  width="40" height="41.001" y="-41.019" transform="matrix(1 0 0 1 -22.0498 30.2998)" style="overflow:visible;opacity:0.5;enable-background:new    ;"/>
		
			<use xlink:href="#flash0.ai_x5F_4_x2F_Layer_5_x2F__x3C_Path_x3E__x5F_11"  width="37.55" height="52.772" y="-52.723" transform="matrix(1 0 0 1 -17.1001 36.8501)" style="overflow:visible;opacity:0.2109;enable-background:new    ;"/>
		<path style="fill-rule:evenodd;clip-rule:evenodd;fill:#FFD466;" d="M-3.15,0.45C-6.817,1.117-9.534,1.434-11.3,1.4
			c-2.233-0.067-3.9-0.217-5-0.45l-1-0.3c-0.133,0.1-0.25,0.25-0.35,0.45c-0.133,0.4-0.017,0.833,0.35,1.3
			c0.567,0.733,2.85,1.066,6.85,1c1.933-0.067,4.283-0.383,7.05-0.95c1.6-0.3,4.133-0.817,7.6-1.55
			c3.667-0.667,7.083-0.833,10.25-0.5l0.3-0.3c0.2-0.267,0.3-0.55,0.3-0.85V-1.5C11.483-1.733,8.2-1.6,5.2-1.1
			C1.667-0.433-1.117,0.083-3.15,0.45z"/>
	</g>
</symbol>
<symbol  id="eye_x5F_left" viewBox="-6.136 -6.416 12.266 12.882">
	<g id="Layer_1_3_">
		<path style="fill-rule:evenodd;clip-rule:evenodd;fill:#D17F4F;" d="M5.55,2.7c0.7-1.4,0.767-3.067,0.2-5
			C5.216-4.033,4.2-5.233,2.7-5.9C1.433-6.467,0.2-6.567-1-6.2C-2.367-5.8-3.45-5.067-4.25-4c-0.566,0.8-0.9,1.633-1,2.5l1.8,4.15
			c1.433,2.7,2.767,3.9,4,3.6C3.083,5.617,4.75,4.433,5.55,2.7z"/>
		<path style="fill-rule:evenodd;clip-rule:evenodd;fill:#FFA470;" d="M3.3,4.25c1.667-2.367,1.716-4.8,0.15-7.3
			c-1.367-2.233-3.1-3.133-5.2-2.7c-1.767,0.367-3,1.233-3.7,2.6c-0.8,1.633-0.9,3.283-0.3,4.95C-5.217,3.367-4.2,4.633-2.7,5.6
			C-0.4,7.1,1.6,6.65,3.3,4.25z"/>
		<path style="fill-rule:evenodd;clip-rule:evenodd;fill:#FFBC96;" d="M2-2.75c0.467-0.4,0.383-0.667-0.25-0.8
			C1.016-3.717,0.116-3.467-0.95-2.8c-0.934,0.633-1.733,1.4-2.4,2.3c-0.633,0.833-0.966,1.7-1,2.6
			c-0.033,0.933,0.267,1.583,0.9,1.95c0.233,0.167,0.517-0.216,0.85-1.15c0.567-1.5,1.483-2.917,2.75-4.25
			C0.55-1.75,1.167-2.217,2-2.75z"/>
		<path style="fill-rule:evenodd;clip-rule:evenodd;fill:#FFC9AB;" d="M1.75,4.35c0.733,0.033,0.783-0.317,0.15-1.05
			c-1-0.966-1.733-1.7-2.2-2.2c-0.833-0.867-1.617-1.934-2.35-3.2C-3.15-3-3.601-3.5-4-3.6c-0.633-0.167-0.816,0.317-0.55,1.45
			C-4.317-1.017-3.734,0.067-2.8,1.1c0.867,0.967,1.783,1.783,2.75,2.45C0.783,4.083,1.383,4.35,1.75,4.35z"/>
	</g>
</symbol>
<symbol  id="eye_x5F_right" viewBox="-4.156 -5.65 8.298 11.361">
	<g id="Layer_1_4_">
		<path style="fill-rule:evenodd;clip-rule:evenodd;fill:#D17F4F;" d="M2.9,4.5l0.85-1.35C4.217,1.883,4.267,0.333,3.9-1.5
			C3.567-3.2,2.917-4.4,1.95-5.1L0.6-5.65L-1.75-5.1L-2.5-0.6l2.35,6.25L2.9,4.5z"/>
		<path style="fill-rule:evenodd;clip-rule:evenodd;fill:#FFA470;" d="M-2.2-4.9c-0.967,0.667-1.567,1.667-1.8,3
			c-0.3,1.566-0.167,3.05,0.4,4.45c0.5,1.267,1.25,2.2,2.25,2.8C0.184,6.25,1.284,5.467,1.95,3c0.667-2.434,0.4-4.6-0.8-6.5
			C0.083-5.2-1.033-5.667-2.2-4.9z"/>
		<path style="fill-rule:evenodd;clip-rule:evenodd;fill:#FFBC96;" d="M-2.6-0.1c-0.3,0.7-0.417,1.417-0.35,2.15
			c0.066,0.667,0.267,1.184,0.6,1.55c0.1,0.133,0.25-0.217,0.45-1.05C-1.633,1.183-1.167-0.1-0.5-1.3l0.95-1.3
			c0.267-0.333,0.233-0.567-0.1-0.7c-0.4-0.133-0.917,0.167-1.55,0.9C-1.8-1.7-2.267-0.934-2.6-0.1z"/>
		<path style="fill-rule:evenodd;clip-rule:evenodd;fill:#FFC9AB;" d="M-2.2-1.75C-2.5-2.517-2.783-2.934-3.05-3
			c-0.4-0.133-0.517,0.267-0.35,1.2c0.167,0.967,0.533,1.883,1.1,2.75C-1.767,1.783-1.183,2.467-0.55,3
			c0.533,0.467,0.917,0.7,1.15,0.7c0.434,0.034,0.45-0.267,0.05-0.9c-0.633-0.833-1.1-1.45-1.4-1.85
			C-1.25,0.217-1.733-0.684-2.2-1.75z"/>
	</g>
</symbol>
<symbol  id="flash0.ai_x5F_4_x2F_Layer_5_x2F__x3C_Group_x3E__x5F_1" viewBox="-0.007 -23 38.907 23">
	<g id="Layer_1_8_">
		<g>
			<path style="fill-rule:evenodd;clip-rule:evenodd;fill:#5D8039;" d="M31.6-2.75c-2.1-1.4-3.75-3.283-4.95-5.65
				c-1.566-3.133-2.05-6.383-1.45-9.75l-2.45,1.2c-0.6,2.4-0.467,4.917,0.4,7.55c0.833,2.667,2.55,4.967,5.15,6.9L31.6-2.75z"/>
			<path style="fill-rule:evenodd;clip-rule:evenodd;fill:#5D8039;" d="M18.7-1.55l3.5-0.4c-1.233-0.7-2.417-1.683-3.55-2.95
				c-1.333-1.5-2.183-3.217-2.55-5.15c-0.2-1.233-0.217-2.383-0.05-3.45l-1.75,0.9c-0.167,1.3-0.117,2.633,0.15,4
				C15.017-5.5,16.433-3.15,18.7-1.55z"/>
			<path style="fill-rule:evenodd;clip-rule:evenodd;fill:#5D8039;" d="M35.65-2.85h3.25c-1.7-2.033-3.066-4.583-4.1-7.65
				c-1.466-4.167-1.267-8.333,0.6-12.5c-0.8,0.5-1.8,1.05-3,1.65c-1.4,3.067-1.65,6.483-0.75,10.25
				C32.35-7.967,33.683-5.217,35.65-2.85z"/>
			<path style="fill-rule:evenodd;clip-rule:evenodd;fill:#5D8039;" d="M2.65-0.05C1.15-1.65,0.867-3.833,1.8-6.6L0.35-5.7
				c-0.667,2.434-0.4,4.333,0.8,5.7L2.65-0.05z"/>
			<path style="fill-rule:evenodd;clip-rule:evenodd;fill:#5D8039;" d="M11.05-10.9L9.8-10.3C9.267-8.367,9.15-6.633,9.45-5.1
				c0.3,1.533,1.1,2.95,2.4,4.25l1.85-0.2c-1.4-0.867-2.367-1.934-2.9-3.2C10.133-5.817,10.217-8.033,11.05-10.9z"/>
			<path style="fill-rule:evenodd;clip-rule:evenodd;fill:#5D8039;" d="M6.15-2.9C5.717-4.267,5.6-6.1,5.8-8.4L5.05-8.1
				c-0.4,1.467-0.6,2.633-0.6,3.5c0,1.4,0.533,2.833,1.6,4.3l1.8-0.2C7.017-1.1,6.45-1.9,6.15-2.9z"/>
		</g>
	</g>
</symbol>
<symbol  id="flash0.ai_x5F_4_x2F_Layer_5_x2F__x3C_Group_x3E__x5F_2" viewBox="0 -41.019 40 41.001">
	<g id="Layer_1_14_">
		<g>
			<path style="fill-rule:evenodd;clip-rule:evenodd;fill:#5D8039;" d="M22.45-5.55c3.333-0.3,6.05-0.917,8.15-1.85
				c1.5-0.7,2.733-1.434,3.7-2.2c0.267-0.933,0.55-2.316,0.85-4.15c-3.267,2.633-6.566,4.333-9.9,5.1
				c-3.033,0.633-5.9,0.833-8.6,0.6c-3.033-0.267-5.5-1.05-7.4-2.35l1.15,3.9c1.267,0.467,2.667,0.783,4.2,0.95
				C16.933-5.283,19.55-5.283,22.45-5.55z"/>
			<path style="fill-rule:evenodd;clip-rule:evenodd;fill:#5D8039;" d="M30.1-17.5c-2.533,1-5.1,1.617-7.7,1.85
				c-2.8,0.233-5.633,0.183-8.5-0.15c-2.4-0.3-4.433-0.717-6.1-1.25l0.45,1.95c3.767,1.567,7.233,2.267,10.4,2.1
				c3.767-0.233,6.383-0.483,7.85-0.75c2.133-0.333,4.067-0.967,5.8-1.9c0.467-0.267,1.083-0.733,1.85-1.4
				c0.4-0.367,0.9-0.817,1.5-1.35l0.15-2.55C34.567-19.65,32.667-18.5,30.1-17.5z"/>
			<path style="fill-rule:evenodd;clip-rule:evenodd;fill:#5D8039;" d="M11.6-2.3c0.2,0.867,0.367,1.483,0.5,1.85
				c1.767,0.367,4.017,0.5,6.75,0.4c3.467-0.133,6.066-0.317,7.8-0.55c1.867-0.233,3.567-0.633,5.1-1.2l0.8-2.15
				c-4.1,1.6-7.917,2.534-11.45,2.8C17.533-0.95,14.367-1.333,11.6-2.3z"/>
			<path style="fill-rule:evenodd;clip-rule:evenodd;fill:#5D8039;" d="M1.65-33.85c4.333,0.267,9.033-0.25,14.1-1.55
				c4.967-1.333,8.417-2.1,10.35-2.3c2.9-0.333,5.7-0.033,8.4,0.9c1.1,0.367,2.4,0.85,3.9,1.45c0.533-0.933,1.067-1.8,1.6-2.6
				c-2.233-1.633-4.817-2.617-7.75-2.95c-2.667-0.3-5.75-0.033-9.25,0.8c-4,1.133-7,1.95-9,2.45c-3.733,0.9-8.4,1.316-14,1.25
				c0.467,0.6,0.917,1.3,1.35,2.1L1.65-33.85z"/>
			<path style="fill-rule:evenodd;clip-rule:evenodd;fill:#5D8039;" d="M17.1-31.15c-4.067,0.667-8.333,0.733-12.8,0.2
				c0.434,0.8,0.733,1.467,0.9,2c2,0.5,4.466,0.684,7.4,0.55c2.767-0.167,6.1-0.65,10-1.45c3.4-0.667,6.117-0.983,8.15-0.95
				c2.367,0.033,4.35-0.034,5.95-0.2l0.4-1.6c-1.367-0.6-2.65-0.917-3.85-0.95c-1.367-0.034-3.617,0.216-6.75,0.75
				C22.5-32.1,19.367-31.55,17.1-31.15z"/>
			<path style="fill-rule:evenodd;clip-rule:evenodd;fill:#5D8039;" d="M20.6-20.3c5.733-0.067,10.85-1.434,15.35-4.1l0.2-2.6
				c-3.533,1.167-7.633,2.033-12.3,2.6c-5.767,0.633-11.617,0.417-17.55-0.65L7-21.7C11.667-20.7,16.2-20.233,20.6-20.3z"/>
		</g>
	</g>
</symbol>
<symbol  id="flash0.ai_x5F_4_x2F_Layer_5_x2F__x3C_Group_x3E__x5F_3" viewBox="0 -52.706 39.75 52.731">
	<g id="Layer_1_13_">
		<g>
			<path style="fill-rule:evenodd;clip-rule:evenodd;fill:#5D8039;" d="M23.7-0.05C26.833-0.317,28.583-1.3,28.95-3
				c0.2-0.833,0.617-2.167,1.25-4c0-5.333-0.05-9.467-0.15-12.4c-0.033-1.133-0.267-5.517-0.7-13.15
				c-0.367-6.534-0.517-10.917-0.45-13.15c0.033-2.033,0.467-4.316,1.3-6.85c-1.434-0.167-2.817-0.2-4.15-0.1
				c-0.267,2.2-0.333,5-0.2,8.4c0.1,2.767,0.283,5.117,0.55,7.05c0.233,1.6,0.517,5.017,0.85,10.25c0.333,5.133,0.5,8.65,0.5,10.55
				c0,5.3-0.283,9.283-0.85,11.95c-0.267,1.333-0.55,2.133-0.85,2.4c-0.333-0.034-0.667-0.15-1-0.35c-0.667-0.367-1-0.967-1-1.8
				c0-0.7-0.183-3-0.55-6.9c-0.4-4.467-0.65-7.5-0.75-9.1c-0.633-9.033-1.417-15.316-2.35-18.85c-0.667-2.434-1.5-6.517-2.5-12.25
				c-1.733,0.533-3.233,1.033-4.5,1.5c0.4,0.833,0.85,1.867,1.35,3.1c0.4,1.067,0.867,3.15,1.4,6.25
				c0.467,2.733,0.934,4.483,1.4,5.25c0.567,0.9,0.983,2.75,1.25,5.55c0.2,3.333,0.35,5.7,0.45,7.1c1.1,12,1.65,18.883,1.65,20.65
				c0,1.433-0.75,1.7-2.25,0.8c-1.533-0.9-2.333-2.333-2.4-4.3c-0.133-2.867-0.533-7.133-1.2-12.8c-0.3-2.767-0.933-6.233-1.9-10.4
				c-0.867-3.667-1.667-6.6-2.4-8.8c-0.833-2.267-2.667-5.467-5.5-9.6C3.283-46.6,1.533-46.317,0-46.15
				c2.733,2.333,4.7,4.483,5.9,6.45c0.9,1.434,1.717,3.284,2.45,5.55c0.667,2.1,1.133,4.083,1.4,5.95c0.1,0.733,0.583,3.1,1.45,7.1
				c0.733,3.4,1.133,5.8,1.2,7.2c0.1,2.433,0.817,6.717,2.15,12.85l1.1,0.4C18.683-0.05,21.367,0.15,23.7-0.05z"/>
			<path style="fill-rule:evenodd;clip-rule:evenodd;fill:#5D8039;" d="M33.55-17.55v0.5c0.534-2.534,0.883-4.917,1.05-7.15
				c0.167-2.367,0.316-5.1,0.45-8.2c-0.066-3.667,0.05-6.167,0.35-7.5c0.5-2.467,1.95-5.6,4.35-9.4c-0.9-0.567-1.833-1.067-2.8-1.5
				l-0.55,1.6c-0.033,0.067-0.7,1.684-2,4.85c-0.867,2.1-1.367,4.15-1.5,6.15c-0.133,1.767-0.033,5.333,0.3,10.7
				C33.5-22.1,33.617-18.783,33.55-17.55z"/>
		</g>
	</g>
</symbol>
<symbol  id="flash0.ai_x5F_4_x2F_Layer_5_x2F__x3C_Group_x3E__x5F_5" viewBox="-0.027 -16.95 33.977 16.95">
	<g id="Layer_1_16_">
		<g>
			<path style="fill-rule:evenodd;clip-rule:evenodd;fill:#5D8039;" d="M18.15-12.7l-2.35-0.85c-3.333,0.8-5.316,2.433-5.95,4.9
				C9.25-6.083,9.6-3.467,10.9-0.8L13.5-1c-0.667-1.033-1.1-2.233-1.3-3.6c-0.233-1.4-0.117-2.633,0.35-3.7
				C13.183-9.8,15.05-11.267,18.15-12.7z"/>
			<path style="fill-rule:evenodd;clip-rule:evenodd;fill:#5D8039;" d="M18.95-1.3l2.65-0.05c-1.233-1.367-1.417-3.017-0.55-4.95
				c0.7-1.667,1.934-3.083,3.7-4.25l-2.05-0.7c-1.567,0.667-2.684,1.767-3.35,3.3C18.283-5.417,18.15-3.2,18.95-1.3z"/>
			<path style="fill-rule:evenodd;clip-rule:evenodd;fill:#5D8039;" d="M10.55-15.9c-0.833-0.567-1.333-0.917-1.5-1.05
				c-1.767,0.367-3.383,0.917-4.85,1.65c-2.333,1.2-3.667,2.65-4,4.35C-0.133-9.383-0.1-7.567,0.3-5.5c0.4,2.133,1.067,3.967,2,5.5
				l3.2-0.35c-0.8-1.1-1.35-2.4-1.65-3.9c-0.367-1.7-0.367-3.433,0-5.2C4.483-12.383,6.717-14.533,10.55-15.9z"/>
			<path style="fill-rule:evenodd;clip-rule:evenodd;fill:#5D8039;" d="M33.7-1.05c-0.8-2.467-0.717-4.417,0.25-5.85L33.5-7.15
				l-0.65,0.7c-1.367,1.534-1.617,3.3-0.75,5.3L33.7-1.05z"/>
			<path style="fill-rule:evenodd;clip-rule:evenodd;fill:#5D8039;" d="M31.1-8.2l-1.5-0.6c-2.1,0.867-3.233,2.033-3.4,3.5
				c-0.167,1.5,0.25,2.816,1.25,3.95h1.45c-1.333-1.267-1.683-2.533-1.05-3.8C28.35-6.083,29.433-7.1,31.1-8.2z"/>
		</g>
	</g>
</symbol>
<symbol  id="flash0.ai_x5F_4_x2F_Layer_5_x2F__x3C_Path_x3E_" viewBox="0 -14.15 36.65 14.15">
	<g id="Layer_1_18_">
		<path style="fill-rule:evenodd;clip-rule:evenodd;fill:#5D8039;" d="M36.65,0L35-1.65c-3.033-1.367-7.283-2.934-12.75-4.7
			c-5.867-1.867-9.817-3.133-11.85-3.8c-2.5-0.833-4.917-2.167-7.25-4c-1.3,0.467-2.35,0.933-3.15,1.4
			C5.067-9.717,11.133-7.4,18.2-5.8C24.767-4.3,30.917-2.367,36.65,0z"/>
	</g>
</symbol>
<symbol  id="flash0.ai_x5F_4_x2F_Layer_5_x2F__x3C_Path_x3E__x5F_0" viewBox="0 -5.9 41.8 5.9">
	<g id="Layer_1_11_">
		<path style="fill-rule:evenodd;clip-rule:evenodd;fill:#5D8039;" d="M41.8-4c-0.433-0.7-0.75-1.333-0.95-1.9
			c-2.3,0.3-5.067,0.55-8.3,0.75c-3.033,0.2-6.566,0.633-10.6,1.3C17.617-3.083,14.7-2.633,13.2-2.5C6.533-1.833,2.133-1.183,0-0.55
			C0.2-0.35,0.583-0.167,1.15,0C4.55-1,9.4-1.717,15.7-2.15c1.167-0.067,4.617-0.45,10.35-1.15c4.967-0.567,8.3-0.85,10-0.85
			C38.283-4.15,40.2-4.1,41.8-4z"/>
	</g>
</symbol>
<symbol  id="flash0.ai_x5F_4_x2F_Layer_5_x2F__x3C_Path_x3E__x5F_1" viewBox="0 -11.65 43.556 11.667">
	<g id="Layer_1_17_">
		<path style="fill-rule:evenodd;clip-rule:evenodd;fill:#5D8039;" d="M43.5-0.8c-0.167-0.467-0.767-1.25-1.8-2.35
			c-4.5-1.367-7.6-2.267-9.3-2.7c-5.367-1.4-12.867-2.733-22.5-4c-2.733-0.333-5.833-0.933-9.3-1.8c-0.233,0.5-0.4,1.066-0.5,1.7
			L0-8.85C6.133-7.917,13.433-6.967,21.9-6c4.934,0.533,9.6,1.45,14,2.75c2.2,0.633,3.917,1.217,5.15,1.75
			c-3-0.667-6.383-1.283-10.15-1.85C24.633-4.217,17.467-4.333,9.4-3.7C6.833-3.467,4.05-3.15,1.05-2.75
			C1.483-1.783,1.867-1.033,2.2-0.5C4-0.867,7.817-1.217,13.65-1.55c3.233-0.2,7.817-0.417,13.75-0.65
			c4-0.167,8.317,0.467,12.95,1.9L42-0.05C43.233,0.15,43.733-0.1,43.5-0.8z"/>
	</g>
</symbol>
<symbol  id="flash0.ai_x5F_4_x2F_Layer_5_x2F__x3C_Path_x3E__x5F_11" viewBox="0 -52.723 37.55 52.772">
	<g id="Layer_1_15_">
		<path style="fill-rule:evenodd;clip-rule:evenodd;" d="M26.2-20.5c-0.333,2.067-0.85,3.45-1.55,4.15c-0.5,0.5-1.05,1.434-1.65,2.8
			c-0.533,1.267-1.017,2.05-1.45,2.35c-0.466,0.3-1.466,0.534-3,0.7c-1.966,0.2-3.267,0.383-3.9,0.55c-0.967,0.267-2.3,1.517-4,3.75
			C9.45-4.567,8.667-3.383,8.3-2.65v0.1L9.25-1.2c2.633,0.8,5.533,1.217,8.7,1.25c4.267,0,6.617-1.017,7.05-3.05
			c0.033-0.1,1.017-2.933,2.95-8.5c1.5-4.267,2.4-8.5,2.7-12.7c0.167-2.3,0.317-4.95,0.45-7.95c0.133-2.3,0.4-4.367,0.8-6.2
			c0.3-1.4,1.333-3.433,3.1-6.1c0.9-1.333,1.75-2.533,2.55-3.6c-0.6-0.567-1.5-1.184-2.7-1.85c-2.367-1.3-4.967-2.15-7.8-2.55
			c-2.867-0.433-5.933-0.35-9.2,0.25c3.967-0.133,6.967,0.567,9,2.1c1.6,1.2,2.25,2.45,1.95,3.75c-0.333,1.4-0.767,2.617-1.3,3.65
			c-0.733,1.4-1.517,2.184-2.35,2.35C21.117-39.483,17-38.4,12.8-37.1c-2.3,0.733-4.966,1.117-8,1.15C3.067-35.917,1.467-36,0-36.2
			v0.05c2.467,0.967,4.85,1.483,7.15,1.55c2.9,0.133,4.45,0.2,4.65,0.2c1.967,0.267,3.133,0.883,3.5,1.85
			c0.2,0.566-1.3,4.333-4.5,11.3C7.533-14.217,6.117-9.867,6.55-8.2c0.2,0.8,3.267-3.65,9.2-13.35c6.033-9.9,9.25-14.667,9.65-14.3
			c0.833,0.767,1.25,4.017,1.25,9.75C26.65-24.067,26.5-22.2,26.2-20.5z"/>
	</g>
</symbol>
<symbol  id="flash0.ai_x5F_4_x2F_Layer_5_x2F__x3C_Path_x3E__x5F_1_x5F_0" viewBox="0 -17.7 39.7 17.7">
	<g id="Layer_1_10_">
		<path style="fill-rule:evenodd;clip-rule:evenodd;fill:#5D8039;" d="M32.35-14.55c-2.467,1.033-5.567,2.417-9.3,4.15
			c-4.533,2.133-7.433,3.483-8.7,4.05c-0.9,0.4-2.867,1.1-5.9,2.1c-2.867,0.933-5.167,1.8-6.9,2.6C0.917-1.183,0.4-0.633,0,0
			c2.167-0.833,4.333-1.567,6.5-2.2c3.767-1.433,7.317-2.65,10.65-3.65c1.567-0.467,5.117-1.933,10.65-4.4
			c5.267-2.333,8.717-3.7,10.35-4.1l1.45-0.4l0.1-2.95L32.35-14.55z"/>
	</g>
</symbol>
<symbol  id="flash0.ai_x5F_4_x2F_Layer_5_x2F__x3C_Path_x3E__x5F_2" viewBox="0.025 -11.3 40.525 11.3">
	<g id="Layer_1_9_">
		<path style="fill-rule:evenodd;clip-rule:evenodd;fill:#5D8039;" d="M25.35-7C19.117-5.433,12.667-3.933,6-2.5
			C3.4-1.8,1.417-1.183,0.05-0.65c-0.033,0.2-0.033,0.417,0,0.65c1.333-0.567,3.034-1.017,5.1-1.35c1.333-0.2,3.733-0.467,7.2-0.8
			c4.367-0.4,11.816-1.9,22.35-4.5c2.033-0.5,3.983-0.883,5.85-1.15c-0.2-1.067-0.35-2.233-0.45-3.5
			C35.2-9.667,30.283-8.233,25.35-7z"/>
	</g>
</symbol>
<symbol  id="flash0.ai_x5F_4_x2F_Layer_7_x2F__x3C_Path_x3E__x5F_1" viewBox="0 -7.05 15.098 7.069">
	<g id="Layer_1_21_">
		<path style="fill-rule:evenodd;clip-rule:evenodd;" d="M0-2.3c0.367,0.5,0.9,0.966,1.6,1.4c1.433,0.833,3.033,1.1,4.8,0.8
			c2.867-0.5,5.1-1.1,6.7-1.8c2.2-0.9,2.583-1.767,1.15-2.6C12.117-5.733,9.8-6.583,7.3-7.05L0-2.3z"/>
	</g>
</symbol>
<symbol  id="gardeningvendor_1_" viewBox="-74.6 -92.5 149.22 185">
	<g id="shadow_1_">
		
			<use xlink:href="#shadow"  width="78.95" height="23.35" x="-39.5" y="-11.7" transform="matrix(1 0 0 1 -9.8999 -80.7998)" style="overflow:visible;"/>
	</g>
	<g id="shadow_x5F_stick_1_">
		
			<use xlink:href="#shadow_x5F_stick"  width="15.098" height="7.069" x="-7.55" y="-3.55" transform="matrix(1 0 0 1 -9.5 -80.5498)" style="overflow:visible;"/>
	</g>
	<g id="stick_1_">
		
			<use xlink:href="#stick"  width="18.95" height="134.3" x="-9.5" y="-67.15" transform="matrix(1 0 0 1 -9.8501 -16.9502)" style="overflow:visible;"/>
	</g>
	<g id="strap_x5F_back_1_">
		
			<use xlink:href="#strap_x5F_back"  width="19.2" height="34.35" y="-34.35" transform="matrix(1 0 0 1 5.6001 8.3501)" style="overflow:visible;"/>
	</g>
	<g id="right_x5F_arm_1_">
		
			<use xlink:href="#right_x5F_arm"  width="65.056" height="33.3" x="-65.05" y="-33.3" transform="matrix(1 0 0 1 -9.5498 19.6499)" style="overflow:visible;"/>
	</g>
	<g id="body_1_">
		
			<use xlink:href="#body"  width="60.4" height="73.8" x="-30.2" y="-36.9" transform="matrix(1 0 0 1 -4.3999 -13.4502)" style="overflow:visible;"/>
	</g>
	<g id="satchel_1_">
		
			<use xlink:href="#satchel"  width="27.872" height="36.569" x="-13.922" y="-18.29" transform="matrix(1 0 0 1 20.25 -39.6499)" style="overflow:visible;"/>
	</g>
	<g id="left_x5F_arm_1_">
		
			<use xlink:href="#left_x5F_arm"  width="71.495" height="42.05" x="0.025" y="-42.05" transform="matrix(1 0 0 1 3.1001 16.25)" style="overflow:visible;"/>
	</g>
	<g id="strap_x5F_front_1_">
		
			<use xlink:href="#strap_x5F_front"  width="28.214" height="57.527" x="-0.002" y="-57.503" transform="matrix(1 0 0 1 -16.5 22.3999)" style="overflow:visible;"/>
	</g>
	<g id="hat_1_">
		
			<use xlink:href="#hat"  width="96.624" height="51.111" x="-48.312" y="-25.561" transform="matrix(1 0 0 1 1.1499 66.9502)" style="overflow:visible;"/>
	</g>
	<g id="head_2_">
		
			<use xlink:href="#head"  width="54.506" height="55.401" x="-27.256" y="-27.713" transform="matrix(1 0 0 1 0.5498 42.5)" style="overflow:visible;"/>
	</g>
	<g id="code_1_">
	</g>
	<g id="parent_1_">
	</g>
	<g id="labels_1_">
	</g>
</symbol>
<symbol  id="hat" viewBox="-48.312 -25.561 96.624 51.111">
	<g id="Layer_6_2_">
		<path style="fill-rule:evenodd;clip-rule:evenodd;fill:#B07737;" d="M20.65-7.4C15.217-7.733,8.983-7.5,1.95-6.7
			c-7.7,0.9-13.934,2.267-18.7,4.1c-5.6,2.133-8.25,4.633-7.95,7.5c0.267,2.5,2.45,5.3,6.55,8.4c5.5,4.2,8.433,6.517,8.8,6.95
			c1.533,1.8,3.2,3.216,5,4.25c0.934,0.533,1.7,0.883,2.3,1.05L1.4,25.4c2.633-0.167,4.717-0.45,6.25-0.85
			c1.533-0.433,3-0.75,4.4-0.95c0.867-0.133,2.5-0.367,4.9-0.7c1.933-0.3,3.783-1.717,5.55-4.25c1.433-2.033,2.367-3.95,2.8-5.75
			c0.167-0.667,0.633-3.233,1.4-7.7c0.8-4.533,1.45-7.85,1.95-9.95C28.983-6.15,26.317-7.034,20.65-7.4z"/>
	</g>
	<g id="Layer_5_2_">
		<g>
			<path style="fill-rule:evenodd;clip-rule:evenodd;fill:#A36E33;" d="M22.75,18.25c1.267-1.9,2.117-3.684,2.55-5.35
				c0.333-1.4,1.167-5.983,2.5-13.75c-0.966-0.033-2.583-0.033-4.85,0c-2.9,0.066-5.067,0.1-6.5,0.1c-5.4,0-9.117,1.95-11.15,5.85
				c-0.8,1.5-1.017,2.833-0.65,4c0.4,1.167,1.333,1.717,2.8,1.65c3.433-0.2,6.066-0.05,7.9,0.45c2.3,0.667,3.733,1.95,4.3,3.85
				c0.4,1.5,0.367,2.967-0.1,4.4c-0.333,0.967-0.917,2.05-1.75,3.25C19.533,22.133,21.183,20.65,22.75,18.25z"/>
			<path style="fill-rule:evenodd;clip-rule:evenodd;fill:#A36E33;" d="M7.65,24.55c1.467-0.4,2.8-0.7,4-0.9
				c-2-0.533-3.45-0.783-4.35-0.75c-0.933,0.033-1.883,0.3-2.85,0.8c-0.6,0.267-1.534,0.833-2.8,1.7
				C4.083,25.267,6.083,24.983,7.65,24.55z"/>
		</g>
	</g>
	<g id="Layer_4_2_">
		<path style="fill-rule:evenodd;clip-rule:evenodd;fill:#CC8C43;" d="M10.15,12.05C15.95,10.883,20.333,9.533,23.3,8
			c1.967-1,6.85-4.15,14.65-9.45c8.367-5.667,11.667-9.833,9.9-12.5c-0.4-0.567-1.633-1.617-3.7-3.15c-1.8-1.333-2.917-2.6-3.35-3.8
			c-0.933-2.7-6.3-3.383-16.1-2.05C13.167-20.784,5.467-19.4,1.6-18.8c-1.4,0.2-2.184,0.434-2.35,0.7
			c-0.067,0.1,0.017,0.383,0.25,0.85c0.433,0.833-1.283,1.65-5.15,2.45c-6,1.233-10.934,2.1-14.8,2.6
			c-5.233,0.733-11.483,1.267-18.75,1.6c-7,0.3-9.966,2.267-8.9,5.9c0.4,1.4,1.367,2.767,2.9,4.1c1.467,1.3,2.967,2.183,4.5,2.65
			c2.133,0.633,4.534,2.567,7.2,5.8c2.733,3.3,4.783,5.2,6.15,5.7C-20.483,16.083-13.767,16.9-7.2,16
			C-3.333,15.433,2.45,14.117,10.15,12.05z"/>
	</g>
	<g id="Layer_3_2_">
		<path style="fill-rule:evenodd;clip-rule:evenodd;fill:#91602A;" d="M9.3,11.6c5.733-1.167,10.417-2.683,14.05-4.55
			c2.2-1.133,7.383-4.4,15.55-9.8c7.6-5.034,10.55-9.1,8.85-12.2c-0.4-0.767-1.533-2.017-3.4-3.75c-1.733-1.6-2.8-2.983-3.2-4.15
			c-0.933-2.7-6.283-3.383-16.05-2.05c-11.533,2.167-19.25,3.55-23.15,4.15c-1.4,0.2-2.184,0.433-2.35,0.7
			c-0.067,0.1,0.017,0.383,0.25,0.85c0.433,0.833-1.283,1.65-5.15,2.45c-6.5,1.6-11.467,2.8-14.9,3.6
			c-6.1,1.367-12.383,2.2-18.85,2.5c-7,0.3-9.967,2.133-8.9,5.5c0.4,1.3,1.367,2.583,2.9,3.85c1.433,1.2,2.933,2.033,4.5,2.5
			c2.2,0.667,4.9,2.733,8.1,6.2c3.167,3.5,5.217,5.383,6.15,5.65c8.533,2.4,15.45,3.183,20.75,2.35
			C-2.317,14.9,2.633,13.633,9.3,11.6z"/>
	</g>
	<g id="Layer_2_3_">
		<path style="fill-rule:evenodd;clip-rule:evenodd;fill:#7A5123;" d="M11.55,0.9c3.2-0.8,6.067-1.9,8.6-3.3
			c3.233-1.8,6-3.717,8.3-5.75c1.3-1.167,2.783-2.7,4.45-4.6c1.033-1.233,1.2-2.75,0.5-4.55c-0.633-1.6-1.6-2.75-2.9-3.45
			c-1.066-0.603-3.458-0.811-7.175-0.625c-3.718,0.19-8.209,1.257-13.475,3.2c-5.265,1.942-9.115,3.1-11.55,3.475
			c-18.086,2.736-25.203,6.62-21.35,11.65c5.425,4.702,14.725,6.501,27.9,5.4L11.55,0.9z"/>
	</g>
	<g id="Layer_1_6_">
	</g>
</symbol>
<symbol  id="head" viewBox="-27.256 -27.713 54.506 55.401">
	<g id="head_1_">
		
			<use xlink:href="#skull"  width="53.24" height="55.401" x="-26.59" y="-27.713" transform="matrix(1 0 0 1 0.6001 0)" style="overflow:visible;"/>
	</g>
	<g id="right_eye_1_">
		
			<use xlink:href="#eye_x5F_right"  width="8.298" height="11.361" x="-4.156" y="-5.65" transform="matrix(1 0 0 1 -23.1001 9.3501)" style="overflow:visible;"/>
	</g>
	<g id="left_eye_1_">
		
			<use xlink:href="#eye_x5F_left"  width="12.266" height="12.882" x="-6.136" y="-6.416" transform="matrix(1 0 0 1 4.5 9)" style="overflow:visible;"/>
	</g>
	<g id="stitches_1_">
		
			<use xlink:href="#skull_x5F_stitches"  width="23.501" height="50.15" x="-11.75" y="-25.1" transform="matrix(1 0 0 1 12.8501 -2.6001)" style="overflow:visible;"/>
	</g>
	<g id="mouth_2_">
		
			<use xlink:href="#mouth"  width="20.862" height="5.5" x="-10.45" y="-2.75" transform="matrix(1 0 0 1 -10.0498 -0.2002)" style="overflow:visible;"/>
	</g>
</symbol>
<symbol  id="left_x5F_arm" viewBox="0.025 -42.05 71.495 42.05">
	<g id="Layer_1_23_">
		<path style="fill-rule:evenodd;clip-rule:evenodd;fill:#B53220;" d="M38.5-5.4c1.233,1.333,3.1,2.333,5.6,3l1.25-1.2
			c0.867-1.267,1.483-3.15,1.85-5.65c0.333-2.567,0.15-5.417-0.55-8.55c-0.4-1.867-0.95-3.633-1.65-5.3
			c-0.4-1.033-1.167-1.933-2.3-2.7c-1.3-0.833-2.25-0.767-2.85,0.2c-0.566,0.9-1.133,2.783-1.7,5.65L37.5-15.9
			c-0.5,3.033-0.684,5.283-0.55,6.75C37.083-7.65,37.6-6.4,38.5-5.4z"/>
		<path style="fill-rule:evenodd;clip-rule:evenodd;fill:#DEB550;" d="M32.65-12.9l4.85,6.2l3.85,0.35
			c3.267,0.067,6.684-0.217,10.25-0.85c4.434-0.8,7.917-1.85,10.45-3.15c2.733-1.433,5.017-3.483,6.85-6.15
			c1.6-2.3,2.467-4.683,2.6-7.15c0.066-1.233-0.034-2.233-0.3-3c-0.033,1.167-0.267,2.417-0.7,3.75
			c-0.867,2.667-2.267,4.467-4.2,5.4c-1.9,0.933-4.617,1.767-8.15,2.5l-4.75,0.85l4.25-1.2c3.2-1.533,5.7-4.183,7.5-7.95
			c1.767-3.767,2.867-7.883,3.3-12.35c0.2-2.267,0.233-4.133,0.1-5.6c-0.067,1.033-0.25,2.283-0.55,3.75
			c-0.633,2.9-1.55,5.367-2.75,7.4c-1.233,2.033-2.534,3.8-3.9,5.3l-1.65,1.6l1.85-2.8c1.267-2.3,1.95-4.517,2.05-6.65l0.25-5.7
			c-0.1,1.267-0.383,2.7-0.85,4.3c-0.9,3.133-2.184,5.417-3.85,6.85c-1.667,1.467-3.717,2.833-6.15,4.1l-3.15,1.45l2.6-3.5
			c1.733-2.9,2.633-5.717,2.7-8.45l0.1-6.55c-0.233,2.033-0.633,4.183-1.2,6.45c-1.133,4.534-2.567,7.434-4.3,8.7
			c-1.7,1.233-3.083,2.15-4.15,2.75l-1.05,0.55l1.55-1.85c1.034-1.567,1.517-3.2,1.45-4.9c-0.067-2.733-0.317-4.5-0.75-5.3
			c0.133,1.267-0.017,2.667-0.45,4.2c-0.9,3.1-2.833,5.367-5.8,6.8c-2.967,1.467-5.183,3.55-6.65,6.25L32.65-12.9z"/>
		<path style="fill-rule:evenodd;clip-rule:evenodd;fill:#8F591A;" d="M43.05-19.85L19.3-10.4l30.4-1.15l6.5-0.95l-1.6-11.55
			C49.566-22.35,45.716-20.95,43.05-19.85z"/>
		<path style="fill-rule:evenodd;clip-rule:evenodd;fill:#B87932;" d="M15.95-5.75L16.2-3.4l15.05-1.7
			c10.4-1.167,16.466-1.883,18.2-2.15c2.767-0.433,4.9-0.65,6.4-0.65l-1.7-10.85c-0.133-1.1-0.367-2.167-0.7-3.2
			c-19.333,7.167-30.667,11.333-34,12.5C17.383-8.717,16.216-7.483,15.95-5.75z"/>
		<path style="fill-rule:evenodd;clip-rule:evenodd;fill:#FFD466;" d="M69.8-17.55c-1.2,2.466-2.5,4.1-3.9,4.9
			c-0.867,0.533-2.25,1.1-4.15,1.7L59.2-10.2l2.55-1.3c2.033-1.467,3.883-3.75,5.55-6.85c1.667-3.133,2.7-6.383,3.1-9.75
			c0.2-1.667,0.233-3.033,0.1-4.1c-0.4,2.233-1.15,4.583-2.25,7.05c-2.2,4.867-5.017,7.783-8.45,8.75
			c-3.4,0.967-6.883,1.55-10.45,1.75h-4.3l3.35-1.3c2.567-1.2,4.617-2.65,6.15-4.35c2.467-2.7,3.7-4.4,3.7-5.1
			c-1.6,1.4-3.6,2.816-6,4.25c-4.733,2.9-9,4.417-12.8,4.55l-9.1,0.35l5.85-0.8c4.566-0.967,8.55-2.633,11.95-5
			c3.667-2.534,6.434-5.017,8.3-7.45c1.333-1.733,2.283-3.567,2.85-5.5c0.633-2.033,0.867-4.383,0.7-7.05
			c-0.333,1.933-1.033,4.05-2.1,6.35c-2.1,4.633-5,7.9-8.7,9.8c-3.233,1.633-6.25,2.917-9.05,3.85l-3.25,0.9
			c-1.3,0.267-2.617,0.717-3.95,1.35c-2.7,1.267-4.15,2.783-4.35,4.55c-0.2,1.733,0.917,4,3.35,6.8c1.233,1.4,2.466,2.633,3.7,3.7
			l2.7,0.3c2.333,0.233,4.833,0.4,7.5,0.5c3.6,0.133,6.5,0.017,8.7-0.35c2.767-0.5,5.35-1.517,7.75-3.05
			c2.133-1.367,4.034-3.467,5.7-6.3C68.8-15.083,69.4-16.383,69.8-17.55z"/>
		<path style="fill-rule:evenodd;clip-rule:evenodd;fill:#DEB550;" d="M38.85-8.85L34.5-10l0.2-0.25c0.3-0.167,0.85-0.25,1.65-0.25
			c8.067,0,13.45-0.5,16.15-1.5c2.676-0.979,6.401-3.079,11.175-6.3c-0.603,0.377-1.411,0.777-2.425,1.2
			c-2.434,1.033-5.1,1.733-8,2.1c-2.867,0.4-5.717,0.517-8.55,0.35L41.35-15l1.2-0.4c1-0.4,2.1-0.95,3.3-1.65
			c1.721-1.026,3.562-2.201,5.525-3.525c-0.577,0.373-1.252,0.765-2.025,1.175c-2.133,1.133-4.167,1.883-6.1,2.25
			c-1.9,0.367-3.65,0.583-5.25,0.65l-1.8-0.05c-1.066,0.533-1.967,0.95-2.7,1.25c-2.367,2.333-3.717,3.883-4.05,4.65
			c-0.3,0.667,0.5,1.583,2.4,2.75c2.167,1.3,4.784,2.183,7.85,2.65c2.8,0.4,5.8,0.5,9,0.3c1.567-0.1,2.867-0.25,3.9-0.45h-3.9
			c-1.467,0-2.75-0.15-3.85-0.45L43.6-6.3l5.85-0.45c2.733-0.2,5.45-0.983,8.15-2.35c1.367-0.667,2.45-1.316,3.25-1.95
			c-0.833,0.5-1.983,1.017-3.45,1.55c-2.9,1.033-5.833,1.6-8.8,1.7C45.633-7.733,42.383-8.083,38.85-8.85z"/>
		<path style="fill-rule:evenodd;clip-rule:evenodd;fill:#FF462E;" d="M11.55-10.4C7.783-8.7,5.316-7.567,4.15-7
			c-1.767,0.833-3.033,1.817-3.8,2.95c-0.267,0.6-0.367,1.233-0.3,1.9C0.15-0.85,1-0.133,2.6,0l3.55-0.2
			c3.833-0.3,9.367-0.85,16.6-1.65c7.233-0.8,12.966-1.133,17.2-1c2.1,0.067,3.483,0.217,4.15,0.45
			c-0.566-0.367-1.167-1.117-1.8-2.25c-1.233-2.233-1.967-5.25-2.2-9.05c-0.233-3.767-0.216-7,0.05-9.7
			c0.167-1.367,0.333-2.35,0.5-2.95c-0.167,0.467-0.7,1.067-1.6,1.8c-1.8,1.533-4.467,3.05-8,4.55
			c-3.433,1.433-6.917,3.067-10.45,4.9C16.8-13.067,13.783-11.5,11.55-10.4z"/>
		
			<use xlink:href="#flash0.ai_x5F_4_x2F_Layer_5_x2F__x3C_Group_x3E__x5F_1"  width="38.907" height="23" x="-0.007" y="-23" transform="matrix(1 0 0 1 1.5498 0)" style="overflow:visible;opacity:0.5;enable-background:new    ;"/>
		<g>
			
				<use xlink:href="#flash0.ai_x5F_4_x2F_Layer_5_x2F__x3C_Path_x3E__x5F_2"  width="40.525" height="11.3" x="0.025" y="-11.3" transform="matrix(1 0 0 1 0 -2.1001)" style="overflow:visible;opacity:0.5;enable-background:new    ;"/>
			
				<use xlink:href="#flash0.ai_x5F_4_x2F_Layer_5_x2F__x3C_Path_x3E__x5F_1_x5F_0"  width="39.7" height="17.7" y="-17.7" transform="matrix(1 0 0 1 0.3501 -4.0498)" style="overflow:visible;opacity:0.5;enable-background:new    ;"/>
			
				<use xlink:href="#flash0.ai_x5F_4_x2F_Layer_5_x2F__x3C_Path_x3E__x5F_0"  width="41.8" height="5.9" y="-5.9" transform="matrix(1 0 0 1 0.7998 -0.1001)" style="overflow:visible;opacity:0.5;enable-background:new    ;"/>
		</g>
		<path style="fill-rule:evenodd;clip-rule:evenodd;fill:#FFED91;" d="M61.2-12.05c2.1-1.733,3.867-3.817,5.3-6.25
			c0.733-1.233,1.25-2.284,1.55-3.15c-0.633,1.233-1.566,2.6-2.8,4.1c-2.433,2.967-5.167,5.017-8.2,6.15
			c-2.8,1.067-5.45,1.784-7.95,2.15L46.2-8.8l5.65-0.1C56.017-9.3,59.133-10.35,61.2-12.05z"/>
		<path style="fill-rule:evenodd;clip-rule:evenodd;fill:#FFED91;" d="M62.05-8.05c2.433-1.6,3.683-2.733,3.75-3.4
			c-2.5,2.167-4.75,3.55-6.75,4.15c-1.233,0.367-2.7,0.716-4.4,1.05l-2.2,0.45l3.45-0.25C58.5-6.417,60.55-7.083,62.05-8.05z"/>
		<path style="fill-rule:evenodd;clip-rule:evenodd;fill:#FFED91;" d="M52.8-19.2c1.9-1.566,2.883-2.55,2.95-2.95
			c-3.406,2.967-5.99,4.825-7.75,5.575l0.85-0.275C50.283-17.45,51.6-18.233,52.8-19.2z"/>
	</g>
</symbol>
<symbol  id="mouth" viewBox="-10.45 -2.75 20.862 5.5">
	<g id="mouth_1_">
		<path style="fill-rule:evenodd;clip-rule:evenodd;fill:#A87831;" d="M8.6,0.15c-2.133-0.967-5.45-1.467-9.95-1.5
			c-3.033-0.033-5.4,0.217-7.1,0.75c-1.333,0.434-2,0.934-2,1.5c0,0.3,0.617,0.267,1.85-0.1C-6.433,0.167-3.967-0.1-1.2,0
			C1.667,0.1,4.4,0.483,7,1.15c2.033,0.533,3.083,0.783,3.15,0.75C10.783,1.5,10.267,0.917,8.6,0.15z"/>
	</g>
	<g id="tongue_1_">
	</g>
	<g id="Layer_6_1_">
		<path style="fill-rule:evenodd;clip-rule:evenodd;fill:#A87831;" d="M-9.15,0.6c0.333,1.2,0.767,1.75,1.3,1.65
			c0.2-0.033,0.067-0.4-0.4-1.1C-8.55,0.75-8.7-0.133-8.7-1.5c0-0.433-0.066-0.667-0.2-0.7c-0.133-0.033-0.283,0.117-0.45,0.45
			C-9.517-1.317-9.45-0.533-9.15,0.6z"/>
	</g>
	<g id="Layer_5_1_">
		<path style="fill-rule:evenodd;clip-rule:evenodd;fill:#A87831;" d="M-5.4,0.9c0.233,0.6,0.467,0.9,0.7,0.9
			c0.267,0.034,0.317-0.267,0.15-0.9c-0.267-1.033-0.4-1.566-0.4-1.6c0-0.1,0.034-0.5,0.1-1.2c0-0.367-0.083-0.567-0.25-0.6
			c-0.4,0-0.6,0.633-0.6,1.9C-5.733-0.167-5.633,0.333-5.4,0.9z"/>
	</g>
	<g id="Layer_4_1_">
		<path style="fill-rule:evenodd;clip-rule:evenodd;fill:#A87831;" d="M0.1,1.9c0.2,0,0.316-0.316,0.35-0.95
			c0.033-0.333,0.033-0.833,0-1.5c0.033-0.3,0.1-0.767,0.2-1.4c0.067-0.533-0.017-0.8-0.25-0.8c-0.433,0-0.7,0.85-0.8,2.55
			C-0.533,1.167-0.367,1.867,0.1,1.9z"/>
	</g>
	<g id="Layer_3_1_">
		<path style="fill-rule:evenodd;clip-rule:evenodd;fill:#A87831;" d="M5.3,2.6c0.467,0.1,0.833-0.717,1.1-2.45
			c0.233-1.267,0.167-1.967-0.2-2.1c-0.167-0.066-0.284,0.167-0.35,0.7C5.717,0.183,5.5,1.217,5.2,1.85
			C5.033,2.317,5.067,2.567,5.3,2.6z"/>
	</g>
	<g id="Layer_2_2_">
		<path style="fill-rule:evenodd;clip-rule:evenodd;fill:#A87831;" d="M9.3,0.5C9.233,0.9,9.017,1.533,8.65,2.4
			C8.583,2.533,8.6,2.633,8.7,2.7c0.066,0.066,0.167,0.066,0.3,0C9.267,2.533,9.533,2,9.8,1.1c0.1-0.4,0.133-0.817,0.1-1.25
			c-0.066-0.367-0.15-0.567-0.25-0.6C9.517-0.783,9.4-0.367,9.3,0.5z"/>
	</g>
</symbol>
<symbol  id="right_x5F_arm" viewBox="-65.05 -33.3 65.056 33.3">
	<g id="Layer_1_25_">
		<path style="fill-rule:evenodd;clip-rule:evenodd;fill:#DEB550;" d="M-47.8-13.25c-1.667-1.066-2.917-2.433-3.75-4.1
			c-0.833-1.667-1.067-4.3-0.7-7.9c0.2-1.8,0.467-3.433,0.8-4.9c-0.667,0.767-1.367,1.717-2.1,2.85
			c-1.467,2.267-2.317,4.333-2.55,6.2c-0.233,1.9-0.167,3.85,0.2,5.85l0.6,2.45l-2.15-2.15c-1.533-1.767-2.467-3.534-2.8-5.3
			c-0.333-1.767-0.367-3.717-0.1-5.85c0.133-1.1,0.3-2,0.5-2.7c-0.5,1.033-0.95,2.316-1.35,3.85c-0.833,3.066-1,5.867-0.5,8.4
			s1.95,5.05,4.35,7.55l3.4,3.05c-1.067-0.1-2.2-0.3-3.4-0.6c-2.434-0.667-4.017-1.567-4.75-2.7c0.5,1.267,1.533,2.517,3.1,3.75
			c3.067,2.467,7.184,3.567,12.35,3.3c5.533-0.3,9.5-1.983,11.9-5.05c2-2.566,2.4-4.833,1.2-6.8c-0.633-1.033-1.8-2.65-3.5-4.85
			c-1.367-2.1-1.933-4.15-1.7-6.15c0.2-2.033,1.133-4.017,2.8-5.95c0.833-0.967,1.633-1.733,2.4-2.3c-0.967,0.6-2.033,1.333-3.2,2.2
			c-2.3,1.8-3.867,3.45-4.7,4.95c-0.833,1.467-1.417,2.65-1.75,3.55l-0.25,0.85l-0.95-2c-0.633-1.566-0.883-2.967-0.75-4.2L-44.9-31
			c-0.433,0.8-0.883,1.817-1.35,3.05c-0.9,2.433-1.383,4.683-1.45,6.75c-0.067,2.066,0.267,4.2,1,6.4l1.15,2.65L-47.8-13.25z"/>
		<path style="fill-rule:evenodd;clip-rule:evenodd;fill:#8F591A;" d="M-49.85-11.85l0.95,2.05c17.7,1.933,26.767,2.767,27.2,2.5
			c0.433-0.267-0.267-0.85-2.1-1.75c-2-1-4.15-1.617-6.45-1.85c-3.367-0.367-9.4-0.967-18.1-1.8L-49.85-11.85z"/>
		<path style="fill-rule:evenodd;clip-rule:evenodd;fill:#B87932;" d="M-50.1-3.75c5.367-0.033,10.966-0.033,16.8,0
			c11.7,0.033,18.767,0.133,21.2,0.3l0.95-3.2c-9.967-2-18.1-3.283-24.4-3.85c-6.333-0.533-11.1-0.983-14.3-1.35L-50.1-3.75z"/>
		<path style="fill-rule:evenodd;clip-rule:evenodd;fill:#8F591A;" d="M-48.55-9.5l-1.35,0.05l-0.1,3.4l9.35-0.15l0.2-4.3
			c0-0.133-0.983-0.533-2.95-1.2c-0.566,0.633-1.4,1.183-2.5,1.65C-46.6-9.75-47.483-9.566-48.55-9.5z"/>
		<path style="fill-rule:evenodd;clip-rule:evenodd;fill:#FFD466;" d="M-45.8-8.85c-3.3,0.667-6.067,0.767-8.3,0.3
			c-2.233-0.467-4.7-2.3-7.4-5.5c-1.367-1.633-2.5-3.2-3.4-4.7c0,0.467,0.167,1.2,0.5,2.2c0.7,1.933,1.917,4.133,3.65,6.6
			c1.7,2.466,3.95,4.417,6.75,5.85l3.65,1.35l-2.8,0.25c-1.867,0.2-3.467,0.067-4.8-0.4c0.566,0.467,1.4,0.917,2.5,1.35
			c2.267,0.933,4.85,1.4,7.75,1.4s5.8-0.517,8.7-1.55c1.434-0.5,2.583-1,3.45-1.5l3.75-1.25c2.5-1.133,3.833-2.417,4-3.85
			c0.2-1.567-0.45-3.35-1.95-5.35c-1.333-1.733-2.833-3.1-4.5-4.1c-1.2-0.767-1.716-2.083-1.55-3.95
			c0.1-0.934,0.317-1.784,0.65-2.55c-0.333,0.467-0.65,1.033-0.95,1.7c-0.6,1.367-0.817,2.6-0.65,3.7c0.167,1.167,0.85,2.2,2.05,3.1
			c0.55,0.436,1.083,0.761,1.6,0.975c-1.041-0.204-2.091-0.429-3.15-0.675c-2.033-0.467-3.7-1.65-5-3.55
			c-1.2-1.8-1.8-3.816-1.8-6.05c0-1.8,0.3-3.367,0.9-4.7c0.075-0.196,0.15-0.379,0.225-0.55l-1.775,2.75
			c-1,1.533-1.633,3.833-1.9,6.9l-0.1,4.1l-1.75-2.05c-0.7-0.867-1.067-2.767-1.1-5.7c0-1.5,0.067-2.9,0.2-4.2
			c-0.467,0.967-0.867,2.15-1.2,3.55c-0.667,2.8-0.667,5.233,0,7.3s2.2,3.967,4.6,5.7l3.4,2C-42.75-9.55-44.167-9.183-45.8-8.85z"/>
		<path style="fill-rule:evenodd;clip-rule:evenodd;fill:#DEB550;" d="M-47.8-2.05c2.167,0.2,4.5-0.267,7-1.4
			c2.633-1.2,4.017-2.3,4.15-3.3c0.1-0.533-0.316-1.267-1.25-2.2c-0.566-0.567-1.283-0.967-2.15-1.2c-0.7-0.2-1.367-0.267-2-0.2
			c-1.3,0.667-2.717,1.2-4.25,1.6c-2.967,0.733-6,0.533-9.1-0.6c-2.633-0.966-5.033-2.933-7.2-5.9c-1.067-1.5-1.883-2.9-2.45-4.2
			c0.467,1.4,1.217,2.933,2.25,4.6c2.067,3.367,4.533,5.784,7.4,7.25c2.867,1.467,6.15,2.317,9.85,2.55
			c1.867,0.133,3.45,0.117,4.75-0.05c-1.333,1-2.95,1.717-4.85,2.15c-1.2,0.233-2.35,0.333-3.45,0.3l-1.25-0.1L-47.8-2.05z"/>
		<path style="fill-rule:evenodd;clip-rule:evenodd;fill:#FFED91;" d="M-49.85-18.5c0.133,1.233,0.9,2.667,2.3,4.3l2,2.05
			c2.267,1.433,3.733,1.833,4.4,1.2c0.333-0.3,0.434-0.75,0.3-1.35l-1.05-1.2c-0.833-1.133-1.533-2.467-2.1-4
			c-0.566-1.533-0.767-3.517-0.6-5.95c0.1-1.233,0.25-2.3,0.45-3.2c-0.367,0.533-0.717,1.25-1.05,2.15
			c-0.633,1.8-0.85,3.633-0.65,5.5c0.2,1.867,0.683,3.317,1.45,4.35l1.05,1l-1.15-0.4c-1-0.533-2.05-1.45-3.15-2.75
			c-1.133-1.333-1.783-3.35-1.95-6.05c-0.059-1.196-0.042-2.279,0.05-3.25C-49.941-22.951-50.042-20.418-49.85-18.5z"/>
		<path style="fill-rule:evenodd;clip-rule:evenodd;fill:#E8402A;" d="M-43.45-10.75c-0.333,2.633,0.066,5.217,1.2,7.75l1.75,3
			c7.833-0.933,14.767-1.483,20.8-1.65c7.267-0.233,13.316,0.033,18.15,0.8c1.5,0.233,1.9-0.183,1.2-1.25
			c-0.267-0.433-1.2-1.483-2.8-3.15c-0.9-0.933-1.9-1.683-3-2.25C-7.083-7.967-9.1-8.783-12.2-9.95
			c-1.767-0.667-3.833-1.367-6.2-2.1c-2.133-0.633-4.333-1.4-6.6-2.3c-2.7-1.033-4.716-2.117-6.05-3.25
			c-0.667-0.566-1.067-1.033-1.2-1.4c-1.733,0.3-3.5,0.883-5.3,1.75C-41.15-15.55-43.117-13.383-43.45-10.75z"/>
		
			<use xlink:href="#flash0.ai_x5F_4_x2F_Layer_5_x2F__x3C_Group_x3E__x5F_5"  width="33.977" height="16.95" x="-0.027" y="-16.95" transform="matrix(1 0 0 1 -39.7002 -0.3501)" style="overflow:visible;opacity:0.5;enable-background:new    ;"/>
		<g>
			
				<use xlink:href="#flash0.ai_x5F_4_x2F_Layer_5_x2F__x3C_Path_x3E__x5F_1"  width="43.556" height="11.667" y="-11.65" transform="matrix(1 0 0 1 -43.5498 -0.7998)" style="overflow:visible;opacity:0.5;enable-background:new    ;"/>
			
				<use xlink:href="#flash0.ai_x5F_4_x2F_Layer_5_x2F__x3C_Path_x3E_"  width="36.65" height="14.15" y="-14.15" transform="matrix(1 0 0 1 -38.5498 -4)" style="overflow:visible;opacity:0.5;enable-background:new    ;"/>
		</g>
		<path style="fill-rule:evenodd;clip-rule:evenodd;fill:#FFED91;" d="M-51-2.8c1.767,0.093,3.717-0.249,5.85-1.025
			c-0.58,0.175-1.33,0.25-2.25,0.225c-2.367-0.033-4.95-0.833-7.75-2.4c-3.133-1.733-5.683-4.283-7.65-7.65
			c-0.865-1.442-1.49-2.758-1.875-3.95c0.701,2.344,1.592,4.444,2.675,6.3c1.167,1.967,2.934,3.85,5.3,5.65
			C-54.367-3.85-52.466-2.9-51-2.8z"/>
	</g>
</symbol>
<symbol  id="satchel" viewBox="-13.922 -18.29 27.872 36.569">
	<g id="Layer_1_12_">
		<path style="fill-rule:evenodd;clip-rule:evenodd;fill:#825321;" d="M-13.101,9.7l0.9,0.6c0.8,0.2,1.667-0.167,2.6-1.1
			c1.067-1.067,1.467-2.3,1.2-3.7c-0.267-1.367-0.833-1.867-1.7-1.5c-0.767,0.3-1.466,1.05-2.1,2.25
			C-12.8,7.417-13.101,8.567-13.101,9.7z"/>
		<path style="fill-rule:evenodd;clip-rule:evenodd;fill:#734617;" d="M0.101,16.65c0.433,0.633,0.966,1.033,1.6,1.2
			c0.867,0.233,1.75-0.083,2.65-0.95c0.933-0.9,2.316-3.017,4.15-6.35c1.5-2.8,2.6-5.017,3.3-6.65c0.667-1.6,1.383-3.65,2.15-6.15
			c-2.933-4.333-5.433-7.533-7.5-9.6c-4.633-4.633-7.466-6.383-8.5-5.25c-0.566,0.633-1.4,3.733-2.5,9.3l-1.5,8.2
			c-0.867,1.867-2.267,3.8-4.2,5.8l-2.65,2.45c5.133,1.567,8.55,3.067,10.25,4.5c1.066,0.9,1.783,1.65,2.15,2.25
			C-0.266,15.934-0.066,16.351,0.101,16.65z"/>
		<path style="fill-rule:evenodd;clip-rule:evenodd;fill:#965E21;" d="M-10.2-1.5c-1.167,2.333-2,4-2.5,5
			c-1.633,3.233-1.267,5.183,1.1,5.85c2.133,0.566,3.617,0.167,4.45-1.2c2.167-3.4,4.167-8.2,6-14.4c0.933-3.1,1.633-5.85,2.1-8.25
			L1-16.2c-0.467-1.167-1.9-1.85-4.3-2.05c-1.566-0.133-2.833,0.066-3.8,0.6l-0.95,0.9c0,2.566-0.017,4.267-0.05,5.1
			C-8.133-10.483-8.25-8.933-8.45-7C-8.649-5.466-9.233-3.633-10.2-1.5z"/>
		<path style="fill-rule:evenodd;clip-rule:evenodd;fill:#B0722F;" d="M0.101-13.1C0-11.633-0.433-9.316-1.2-6.149
			c0.934-3.133,1.65-5.917,2.15-8.35L1-16.2c-0.467-1.167-1.9-1.85-4.3-2.05c-1.2-0.1-2.167-0.017-2.9,0.25
			c0.833-0.067,1.55-0.083,2.15-0.05c1.867,0.067,3.067,0.483,3.6,1.25C0.017-16.167,0.2-14.933,0.101-13.1z"/>
		<path style="fill-rule:evenodd;clip-rule:evenodd;fill:#7D4C19;" d="M-4.55,12.9c1,0.867,1.934,1.867,2.8,3
			c0.8,1.033,1.333,1.65,1.6,1.85c0.6,0.433,1.4,0.6,2.4,0.5c1.2-0.133,2.1-0.633,2.7-1.5c0.733-1,1.4-2.533,2-4.6
			c0.667-2.233,1-4.2,1-5.9c0-1.767-0.25-3.217-0.75-4.35c-0.466-1.067-1.083-1.65-1.85-1.75c-0.767-0.067-1.833,0.167-3.2,0.7
			C0.784,1.384-0.167,1.934-0.7,2.5c-0.733,0.767-2.683,2.4-5.85,4.9C-7.35,8.034-8.5,8.684-10,9.351l-2.05,0.8
			c0.067,0.033,1.1,0.267,3.1,0.7C-7.083,11.284-5.616,11.967-4.55,12.9z"/>
		<path style="fill-rule:evenodd;clip-rule:evenodd;fill:#A86D2D;" d="M-6.8,8.5c2.133-2.267,4.2-4.167,6.2-5.7
			c1.9-1.467,3.3-2.267,4.2-2.4l1.75-0.25c-0.2-0.133-0.517-0.2-0.95-0.2c-0.833-0.033-1.767,0.233-2.8,0.8
			c-1.034,0.566-2.7,1.833-5,3.8c-2.333,2.033-3.767,3.267-4.3,3.7c-1.133,0.9-2,1.433-2.6,1.6c-1.033,0.3-1.9-0.067-2.6-1.1
			c-0.7-1.033-0.867-1.983-0.5-2.85c-0.6,1.133-0.684,2.05-0.25,2.75c0.733,1.133,1.417,1.817,2.05,2.05
			C-10.266,11.2-8.667,10.467-6.8,8.5z"/>
	</g>
</symbol>
<symbol  id="shadow" viewBox="-39.5 -11.7 78.95 23.35">
	<g id="Layer_1_22_">
		
			<radialGradient id="SVGID_1_" cx="-0.0254" cy="0" r="29.0205" gradientTransform="matrix(1 0 0 -0.3091 0 -4.882813e-004)" gradientUnits="userSpaceOnUse">
			<stop  offset="0" style="stop-color:#000000;stop-opacity:0.4588"/>
			<stop  offset="1" style="stop-color:#000000;stop-opacity:0"/>
		</radialGradient>
		<path style="fill-rule:evenodd;clip-rule:evenodd;fill:url(#SVGID_1_);" d="M-27.95,8.25c7.7,2.267,17,3.4,27.9,3.4
			s20.217-1.133,27.95-3.4C35.6,5.983,39.45,3.233,39.45,0c0-3.233-3.85-5.983-11.55-8.25c-7.733-2.3-17.05-3.45-27.95-3.45
			s-20.2,1.15-27.9,3.45C-35.65-5.983-39.5-3.233-39.5,0C-39.5,3.233-35.65,5.983-27.95,8.25z"/>
	</g>
</symbol>
<symbol  id="shadow_x5F_stick" viewBox="-7.55 -3.55 15.098 7.069">
	<g id="Layer_1_26_">
		
			<use xlink:href="#flash0.ai_x5F_4_x2F_Layer_7_x2F__x3C_Path_x3E__x5F_1"  width="15.098" height="7.069" y="-7.05" transform="matrix(1 0 0 1 -7.5498 3.5)" style="overflow:visible;opacity:0.1602;enable-background:new    ;"/>
	</g>
</symbol>
<symbol  id="skull" viewBox="-26.59 -27.713 53.24 55.401">
	<g id="Layer_1_5_">
		<path style="fill-rule:evenodd;clip-rule:evenodd;fill:#FFDE9C;" d="M26.45,14.1l0.2-7.25c-0.167-5.5-1.017-9.917-2.55-13.25
			c-1.533-3.4-2.467-5.367-2.8-5.9c-1-1.567-2.3-2.534-3.9-2.9c-1.5-0.333-4.017-1.1-7.55-2.3L5-19.2l0.15-1.6
			c0.4-1.2,1.3-2.083,2.7-2.65c2.233-0.867,4.133-1.3,5.7-1.3c-0.633-0.467-1.45-0.933-2.45-1.4c-2-0.934-3.85-1.45-5.55-1.55
			c-1.3-0.066-2.816,0.133-4.55,0.6c-1.5,0.4-2.833,0.467-4,0.2c-1.833-0.434-3.117-0.617-3.85-0.55c-1,0.133-2.283,0.767-3.85,1.9
			c-1.767,1.267-3.283,2.133-4.55,2.6c-1.367,0.567-2.867,0.85-4.5,0.85h-3.35l2.35,0.95c1.833,0.7,3.45,1.267,4.85,1.7
			c2.233,0.7,3.967,0.967,5.2,0.8c-0.933,0.533-2.083,1.283-3.45,2.25c-2.733,1.9-5.117,3.9-7.15,6c-2.367,2.433-3.9,5.05-4.6,7.85
			c-0.667,2.533-0.85,6.216-0.55,11.05c0.167,3.233,0.45,5.767,0.85,7.6c0.633,2.867,1.633,4.95,3,6.25
			c1.967,1.867,5.617,3.333,10.95,4.4c6.5,1.3,13,1.25,19.5-0.15c7.3-1.533,12.6-4.083,15.9-7.65
			C25.383,17.183,26.283,15.567,26.45,14.1z"/>
		<path style="fill-rule:evenodd;clip-rule:evenodd;fill:#DBBC7B;" d="M22.3,1.75c0.9,5.567,0.817,9.933-0.25,13.1
			c-0.966,2.867-4.433,5.167-10.4,6.9c-5.5,1.633-11.833,2.45-19,2.45c-7.467,0-13.133-1.434-17-4.3
			c0.567,1.067,1.15,1.883,1.75,2.45c1.967,1.867,5.617,3.333,10.95,4.4c6.5,1.3,13,1.25,19.5-0.15c7.3-1.533,12.6-4.083,15.9-7.65
			c1.633-1.767,2.533-3.383,2.7-4.85l0.2-7.25c-0.167-5.5-1.017-9.917-2.55-13.25c-1.533-3.4-2.467-5.367-2.8-5.9
			c-1-1.567-2.3-2.534-3.9-2.9c-1.5-0.333-4.017-1.1-7.55-2.3L5-19.2l0.15-1.6c0.4-1.2,1.3-2.083,2.7-2.65
			c2.233-0.867,4.133-1.3,5.7-1.3c-0.633-0.467-1.45-0.933-2.45-1.4c-2-0.934-3.85-1.45-5.55-1.55H4.4c0.6,0.9,0.667,1.967,0.2,3.2
			c-0.333,0.867-0.983,1.933-1.95,3.2c-0.9,1.1-2.417,2.017-4.55,2.75l-2.95,0.75l2.05,1.5c1.8,1.033,3.783,1.583,5.95,1.65
			c3.267,0.1,5.8,0.367,7.6,0.8c2.7,0.667,4.933,1.867,6.7,3.6C19.717-8.05,21.333-4.05,22.3,1.75z"/>
	</g>
</symbol>
<symbol  id="skull_x5F_stitches" viewBox="-11.75 -25.1 23.501 50.15">
	<g id="Layer_1_2_">
		<path style="fill-rule:evenodd;clip-rule:evenodd;fill:#B38C3B;" d="M7.6,24.7c0.867-2.567,1.5-4.833,1.9-6.8
			c0.333-1.6,0.217-4.433-0.35-8.5c-0.133-1-0.6-3.867-1.4-8.6c-0.3-1.967-1.233-4.117-2.8-6.45C3.35-8.017,1.7-9.7,0-10.7
			c-1.4-0.833-3.7-1.833-6.9-3l-4.35-1.5l0.85-2.1c0.6-1.667,1.033-3.184,1.3-4.55c0.133-0.833,0.383-1.917,0.75-3.25l-0.8,0.1
			c-0.333,2.1-0.65,3.617-0.95,4.55l-1.65,5.5L-9-14.3c2.2,0.633,4.167,1.367,5.9,2.2c2.1,1.034,4.033,2.6,5.8,4.7
			c1.6,1.933,2.833,4.033,3.7,6.3c0.7,1.867,1.217,4.117,1.55,6.75c0.133,1.067,0.367,3.983,0.7,8.75
			c0.167,2.733-0.35,6.284-1.55,10.65L7.6,24.7z"/>
		<path style="fill-rule:evenodd;clip-rule:evenodd;fill:#9C782D;" d="M11.2,17.4c-0.7-0.667-1.483-1.3-2.35-1.9
			s-1.434-0.883-1.7-0.85c-0.3,0.034-0.5,0.284-0.6,0.75c-0.066,0.5,0.133,0.833,0.6,1c0.7,0.267,1.883,1.083,3.55,2.45
			c0.4,0.3,0.716,0.25,0.95-0.15C11.85,18.333,11.7,17.9,11.2,17.4z"/>
		<path style="fill-rule:evenodd;clip-rule:evenodd;fill:#A88231;" d="M8.6,16.8c-0.9,0.933-1.533,1.533-1.9,1.8
			c-0.267,0.233-0.317,0.517-0.15,0.85c0.167,0.367,0.383,0.517,0.65,0.45c0.633-0.167,1.55-0.917,2.75-2.25
			c1.233-1.367,1.833-2.367,1.8-3s-0.217-0.933-0.55-0.9c-0.333,0.033-0.633,0.3-0.9,0.8C10.1,15.017,9.533,15.767,8.6,16.8z"/>
		<path style="fill-rule:evenodd;clip-rule:evenodd;fill:#9C782D;" d="M10.15,6.15C9.35,5.483,8.467,4.867,7.5,4.3
			c-1-0.567-1.633-0.817-1.9-0.75C5.3,3.617,5.117,3.9,5.05,4.4c-0.066,0.5,0.167,0.833,0.7,1c0.767,0.2,2.067,0.967,3.9,2.3
			c0.434,0.267,0.767,0.2,1-0.2S10.717,6.65,10.15,6.15z"/>
		<path style="fill-rule:evenodd;clip-rule:evenodd;fill:#A88231;" d="M9.1,3.4C8.933,3.833,8.4,4.6,7.5,5.7
			c-0.8,0.967-1.383,1.633-1.75,2c-0.267,0.233-0.3,0.517-0.1,0.85c0.2,0.367,0.417,0.5,0.65,0.4c0.633-0.2,1.517-1,2.65-2.4
			c1.133-1.434,1.667-2.467,1.6-3.1c-0.066-0.633-0.267-0.934-0.6-0.9C9.617,2.583,9.333,2.867,9.1,3.4z"/>
		<path style="fill-rule:evenodd;clip-rule:evenodd;fill:#9C782D;" d="M6.4-5.55C5.533-6.017,4.617-6.433,3.65-6.8
			c-1-0.333-1.633-0.45-1.9-0.35S1.367-6.767,1.4-6.3c0.033,0.5,0.317,0.783,0.85,0.85C2.717-5.417,3.4-5.2,4.3-4.8
			c0.5,0.2,1.15,0.483,1.95,0.85c0.467,0.167,0.767,0.033,0.9-0.4C7.283-4.816,7.033-5.217,6.4-5.55z"/>
		<path style="fill-rule:evenodd;clip-rule:evenodd;fill:#A88231;" d="M6-7.7C5.8-8.333,5.55-8.617,5.25-8.55
			c-0.3,0.066-0.5,0.383-0.6,0.95C4.55-7.133,4.2-6.35,3.6-5.25C3.067-4.283,2.65-3.6,2.35-3.2c-0.2,0.267-0.167,0.55,0.1,0.85
			c0.233,0.3,0.466,0.383,0.7,0.25c0.6-0.333,1.267-1.183,2-2.55C5.917-6.083,6.2-7.1,6-7.7z"/>
	</g>
</symbol>
<symbol  id="stick" viewBox="-9.5 -67.15 18.95 134.3">
	<g id="Layer_1_20_">
		<path style="fill-rule:evenodd;clip-rule:evenodd;fill:#8F591A;" d="M3,20.6l0.85,0.65c0.7,0.333,1.333,0.35,1.9,0.05
			c1.8-1,2.583-5.167,2.35-12.5C7.733-2.966,6.033-27.917,3-66.05l-2.9-1.1l-4.8,5.75L3,20.6z"/>
		<path style="fill-rule:evenodd;clip-rule:evenodd;fill:#B87932;" d="M4.65,67.15l4.8-1.95c-1.8-28.067-2.967-47.15-3.5-57.25
			C5.417-2.15,3.467-27.183,0.1-67.15l-2.15,1.1c-0.9,0.467-2.417,1.067-4.55,1.8l-2.9,0.95c0.933,2.867,2,8.083,3.2,15.65
			c1.033,6.767,2.383,17.133,4.05,31.1C-0.517-1.716,0.7,8.1,1.4,12.9c1.033,6.867,1.883,17.966,2.55,33.3
			C4.283,53.867,4.517,60.85,4.65,67.15z"/>
		<g>
			<path style="fill-rule:evenodd;clip-rule:evenodd;fill:#A1692B;" d="M0.95-50.9c-1.867-4.667-3.2-6-4-4
				c-0.733,1.867-0.784,4.033-0.15,6.5c0.2,0.8,0.917,2.483,2.15,5.05c1.633,3.3,2.883,5.85,3.75,7.65l-0.3-3.9
				c-3.333-3.233-4.816-7.267-4.45-12.1c0.133-1.533,0.65-1.483,1.55,0.15c0.433,0.8,1.2,2.55,2.3,5.25l-0.2-3.05L0.95-50.9z"/>
			<path style="fill-rule:evenodd;clip-rule:evenodd;fill:#A1692B;" d="M1.1-54.95l-0.35-4.5c-1.4-1.967-2.467-4.1-3.2-6.4h-0.1
				c0.8,5.033,1.7,8.183,2.7,9.45L1.1-54.95z"/>
			<path style="fill-rule:evenodd;clip-rule:evenodd;fill:#A1692B;" d="M-1.55-10.55c2,0,4.066-0.15,6.2-0.45L3.3-28.05l-0.15-1
				C2.717-31.85,1.6-35.3-0.2-39.4c-2.066-4.667-3.4-8.217-4-10.65c-1.066-4.333-1.316-9.267-0.75-14.8l-1.15,0.4
				c-1.233,6.667-0.316,13.3,2.75,19.9c1.167,2.5,2.267,5.25,3.3,8.25c1.2,3.5,1.867,6.083,2,7.75
				c0.133,1.533-0.017,4.017-0.45,7.45l-0.7,4.7l0.05-4.85C0.783-25.083,0.433-28.566-0.2-31.7c-0.433-2.2-1.45-5.317-3.05-9.35
				c-1.9-4.733-3.067-7.85-3.5-9.35l1.8,12.15c0.367,0.7,0.617,1.15,0.75,1.35c2.833,4.467,4.167,8.967,4,13.5l-0.15,7.85
				l-1.35-12.5C-1.967-30.383-2.9-32.7-4.5-35l0.25,2.1l0.55,0.85c1.633,2.567,2.034,7,1.2,13.3L-1.55-10.55z"/>
			<path style="fill-rule:evenodd;clip-rule:evenodd;fill:#A1692B;" d="M-9.1-61.85c0.367,1.333,0.817,3.333,1.35,6
				c-0.133-2.267-0.167-4.934-0.1-8l-1.1,0.35L-9.1-61.85z"/>
		</g>
		<path style="fill-rule:evenodd;clip-rule:evenodd;fill:#8F591A;" d="M4.4-19.35l-0.45-1.9c-0.534-1.533-1.434-2.95-2.7-4.25
			c-1.233-1.3-2.433-2.183-3.6-2.65l-1.4-0.35l1.25,9.4l2.5,1l4.75,2.6L4.4-19.35z"/>
	</g>
</symbol>
<symbol  id="strap_x5F_back" viewBox="0 -34.35 19.2 34.35">
	<g id="Layer_1_19_">
		<path style="fill-rule:evenodd;clip-rule:evenodd;fill:#593918;" d="M0.5,0c0.833-4.367,2.733-9.383,5.7-15.05
			c1.533-2.966,3.75-6.75,6.65-11.35c1.1-1.767,2.483-3.317,4.15-4.65c0.867-0.667,1.6-1.15,2.2-1.45L13.6-34
			C9.033-25.767,5.617-18.967,3.35-13.6c-1.4,3.367-2.3,6.65-2.7,9.85L0.5,0z"/>
		<path style="fill-rule:evenodd;clip-rule:evenodd;fill:#6E461E;" d="M0-0.35c1.2-4.933,3.233-10.267,6.1-16
			c2.3-4.567,4.383-8.033,6.25-10.4c1.9-2.434,3.4-4.4,4.5-5.9l-3.75-1.7C8.533-26.117,5.117-19.3,2.85-13.9
			c-1.4,3.367-2.3,6.633-2.7,9.8L0-0.35z"/>
	</g>
</symbol>
<symbol  id="strap_x5F_front" viewBox="-0.002 -57.503 28.214 57.527">
	<g id="Layer_1_7_">
		<path style="fill-rule:evenodd;clip-rule:evenodd;fill:#C78135;" d="M3-0.15c0.433,0.4,0.367-0.167-0.2-1.7
			C2.233-3.417,3.583-7.566,6.85-14.3c0.5-1,3.2-6.083,8.1-15.25c1.333-2.5,3.733-6.867,7.2-13.1c2.833-5.433,4.383-9.233,4.65-11.4
			c0.267-2.133,0.05-3.15-0.65-3.05l-1.1,0.8c-0.6,1.667-1.433,3.717-2.5,6.15c-2.1,4.9-4.3,9.333-6.6,13.3
			c-3.167,5.467-6.267,11.034-9.3,16.7c-3.5,6.567-5.567,10.767-6.2,12.6c-0.566,1.8-0.6,3.333-0.1,4.6
			C0.783-1.883,1.383-1.3,2.15-1.2C2.483-0.7,2.767-0.35,3-0.15z"/>
		<path style="fill-rule:evenodd;clip-rule:evenodd;fill:#754B20;" d="M3.45-1.15C3.783-0.65,4.066-0.3,4.3-0.1
			c0.434,0.4,0.367-0.167-0.2-1.7C3.533-3.367,4.9-7.5,8.2-14.2c0.434-0.867,3.133-5.95,8.1-15.25c1.333-2.5,3.717-6.883,7.15-13.15
			c2.833-5.4,4.383-9.183,4.65-11.35c0.3-2.167,0-3.217-0.9-3.15l-1.4,0.8c-0.5,1.667-1.233,3.733-2.2,6.2
			c-1.9,4.9-4,9.333-6.3,13.3c-3.233,5.566-6.333,11.15-9.3,16.75C4.467-13.483,2.4-9.283,1.8-7.45c-0.6,1.8-0.633,3.333-0.1,4.6
			C2.133-1.816,2.717-1.25,3.45-1.15z"/>
		<path style="fill-rule:evenodd;clip-rule:evenodd;fill:#966128;" d="M2.8-1.55C3.133-1.05,3.417-0.7,3.65-0.5
			c0.433,0.367,0.367-0.217-0.2-1.75c-0.566-1.566,0.784-5.7,4.05-12.4c0.5-0.967,3.2-6.05,8.1-15.25
			c1.333-2.5,3.733-6.883,7.2-13.15c2.833-5.4,4.383-9.184,4.65-11.35c0.267-2.133-0.05-3.167-0.95-3.1l-1.4,0.75
			c-0.5,1.667-1.233,3.733-2.2,6.2c-1.9,4.9-4,9.333-6.3,13.3c-3.133,5.434-6.233,11.017-9.3,16.75C3.8-13.933,1.733-9.733,1.1-7.9
			C0.533-6.1,0.5-4.566,1-3.3C1.433-2.267,2.033-1.683,2.8-1.55z"/>
	</g>
</symbol>
<use xlink:href="#gardeningvendor_1_"  width="149.22" height="185" id="gardeningvendor" x="-74.6" y="-92.5" transform="matrix(1 0 0 -1 74.5996 92.5)" style="overflow:visible;"/>
</svg>
