<?xml version="1.0" encoding="iso-8859-1"?>
<!-- Generator: Adobe Illustrator 15.0.0, SVG Export Plug-In . SVG Version: 6.00 Build 0)  -->
<!DOCTYPE svg PUBLIC "-//W3C//DTD SVG 1.1//EN" "http://www.w3.org/Graphics/SVG/1.1/DTD/svg11.dtd">
<svg version="1.1" id="Layer_1" xmlns="http://www.w3.org/2000/svg" xmlns:xlink="http://www.w3.org/1999/xlink" x="0px" y="0px"
	 width="128px" height="128px" viewBox="0 0 128 128" style="enable-background:new 0 0 128 128;" xml:space="preserve">
<g>
	<circle style="fill:#FFC200;" cx="64" cy="64" r="64"/>
	<path style="fill:#F2B800;" d="M64,0c-1.686,0-3.35,0.085-5,0.213C92.008,2.768,118,30.337,118,64s-25.992,61.232-59.001,63.787
		c1.651,0.128,3.315,0.213,5,0.213C99.348,128,128,99.348,128,64S99.348,0,64,0z"/>
	<path style="fill:#F2B800;" d="M33.658,111.068C12,97-4.34,57.025,25.867,36.122c0.441-0.306,0.979-0.408,1.486-0.29
		s0.942,0.443,1.215,0.908c18.224,27.425,41.457,42.518,73.923,48.017c1.057,0.116,1.8,1.024,1.681,2.076
		c-1.404,12.388-9.809,22.958-20.869,28.16C65.757,123.246,49.225,118.979,33.658,111.068z"/>
	<path style="fill:#F5F5F5;" d="M102.161,86.704c-4.58,35.312-49.28,34.338-67.421,22.682C15.848,97.245-1.684,58.384,26.926,37.833
		C45.467,65.748,69.121,81.109,102.161,86.704z"/>
	<g>
		<path style="fill:#263740;" d="M65.079,38.469c-1.39-0.9-1.784-2.761-0.882-4.148c2.703-4.162,1.516-9.747-2.646-12.45
			s-9.746-1.517-12.449,2.646c-0.901,1.389-2.762,1.784-4.149,0.883c-1.388-0.902-1.784-2.762-0.882-4.149
			c4.505-6.938,13.813-8.916,20.748-4.411c6.938,4.505,8.916,13.813,4.412,20.75C68.327,38.977,66.468,39.371,65.079,38.469z"/>
		<path style="fill:#263740;" d="M107.014,65.701c-1.39-0.902-1.785-2.762-0.883-4.15c2.703-4.162,1.516-9.746-2.646-12.449
			c-4.161-2.703-9.746-1.517-12.449,2.646c-0.901,1.391-2.762,1.784-4.148,0.883c-1.391-0.902-1.785-2.761-0.883-4.15
			c4.505-6.937,13.813-8.914,20.749-4.41c6.938,4.506,8.916,13.813,4.411,20.75C110.261,66.208,108.4,66.604,107.014,65.701z"/>
	</g>
</g>
</svg>
