<?xml version="1.0" encoding="iso-8859-1"?>
<!-- Generator: Adobe Illustrator 15.0.0, SVG Export Plug-In . SVG Version: 6.00 Build 0)  -->
<!DOCTYPE svg PUBLIC "-//W3C//DTD SVG 1.1//EN" "http://www.w3.org/Graphics/SVG/1.1/DTD/svg11.dtd">
<svg version="1.1" id="Layer_1" xmlns="http://www.w3.org/2000/svg" xmlns:xlink="http://www.w3.org/1999/xlink" x="0px" y="0px"
	 width="128px" height="128px" viewBox="0 0 128 128" style="enable-background:new 0 0 128 128;" xml:space="preserve">
<g>
	<path style="fill:#FFC200;" d="M56,91c0-14.454,9.704-24.548,23.6-24.548c4.393,0,9.01,1.067,13.412,3.093
		c0.129-0.059,0.256-0.117,0.385-0.175c0.342-0.152,0.681-0.295,1.018-0.435c0.277-0.113,0.552-0.225,0.826-0.328
		c0.341-0.131,0.684-0.252,1.025-0.371c0.273-0.096,0.551-0.19,0.827-0.278c0.349-0.11,0.695-0.21,1.044-0.31l0.159-0.045
		c0.22-0.062,0.438-0.123,0.656-0.18c0.36-0.092,0.718-0.171,1.075-0.25l0.216-0.048c0.192-0.043,0.386-0.086,0.577-0.124
		c0.334-0.064,0.668-0.117,1.002-0.169l0.335-0.054c0.179-0.029,0.356-0.059,0.536-0.081c0.397-0.052,0.799-0.087,1.199-0.123
		l0.229-0.022c0.144-0.015,0.286-0.029,0.429-0.039c0.618-0.041,1.236-0.063,1.85-0.063c7.877,0,14.402,3.244,18.582,8.688
		C125.639,71.523,126,67.805,126,64c0-34.242-27.76-62-62-62S2,29.758,2,64s27.76,62,62,62c5.387,0,10.611-0.689,15.594-1.98
		C68.926,117.559,56,106.155,56,91z"/>
	<path style="fill:#F2B800;" d="M59.342,104.094c-10.466-1.13-20.148-6.041-27.084-13.861c-1.056-1.19-2.572-1.875-4.165-1.875
		c-1.362,0-2.673,0.498-3.692,1.402c-1.11,0.986-1.771,2.346-1.861,3.83c-0.089,1.484,0.406,2.915,1.393,4.025
		c10.063,11.352,24.668,17.863,40.069,17.863c1.358,0,2.707-0.069,4.051-0.17C64.618,112.052,61.532,108.301,59.342,104.094z"/>
	<path style="fill:#263740;" d="M51,51c-1.656,0-3-1.343-3-3c0-4.962-4.037-9-9-9s-9,4.038-9,9c0,1.657-1.344,3-3,3s-3-1.343-3-3
		c0-8.271,6.729-15,15-15s15,6.729,15,15C54,49.657,52.656,51,51,51z"/>
	<path style="fill:#263740;" d="M101,51c-1.656,0-3-1.343-3-3c0-4.962-4.037-9-9-9s-9,4.038-9,9c0,1.657-1.344,3-3,3s-3-1.343-3-3
		c0-8.271,6.729-15,15-15s15,6.729,15,15C104,49.657,102.656,51,101,51z"/>
	<path style="fill:#E16B5A;" d="M93,74c-16.107-8.527-33-1.227-33,17s23,32,33,35c10-3,33-16.773,33-35S109.107,65.473,93,74z"/>
	<path style="fill:#CC6152;" d="M93,74v52c10-3,33-16.773,33-35S109.107,65.473,93,74z"/>
	<g>
		<path style="fill:#F2B800;" d="M116,64c0,1.418-0.064,2.82-0.158,4.214c3.676,1.483,6.782,3.854,9.141,6.925
			C125.639,71.523,126,67.805,126,64c0-34.242-27.76-62-62-62c-1.686,0-3.35,0.086-5,0.218C90.898,4.767,116,31.443,116,64z"/>
		<path style="fill:#F2B800;" d="M76.246,121.866c-5.424,2.085-11.213,3.434-17.246,3.916c1.65,0.132,3.314,0.218,5,0.218
			c5.387,0,10.611-0.689,15.594-1.98C78.496,123.355,77.375,122.635,76.246,121.866z"/>
	</g>
	<path style="fill:#F5F5F5;" d="M61.05,107.025c-11.913-0.764-23.038-6.108-30.875-14.947c-1.019-1.15-2.776-1.258-3.928-0.236
		c-1.149,1.02-1.255,2.778-0.235,3.928c9.536,10.758,23.383,16.926,37.988,16.926c0.482,0,0.963-0.023,1.443-0.037
		C63.834,110.898,62.346,109.021,61.05,107.025z"/>
</g>
</svg>
