<?xml version="1.0" encoding="iso-8859-1"?>
<!-- Generator: Adobe Illustrator 15.1.0, SVG Export Plug-In . SVG Version: 6.00 Build 0)  -->
<!DOCTYPE svg PUBLIC "-//W3C//DTD SVG 1.1//EN" "http://www.w3.org/Graphics/SVG/1.1/DTD/svg11.dtd">
<svg version="1.1" id="FlashAICB" xmlns="http://www.w3.org/2000/svg" xmlns:xlink="http://www.w3.org/1999/xlink" x="0px" y="0px"
	 width="37px" height="37px" viewBox="0 0 37 37" style="enable-background:new 0 0 37 37;" xml:space="preserve">
<g>
	<g>
		
			<linearGradient id="SVGID_1_" gradientUnits="userSpaceOnUse" x1="2.2749" y1="-25.3037" x2="47.1749" y2="-25.3037" gradientTransform="matrix(1.670379e-005 0.75 -0.75 -7.499999e-004 3.051386e-004 -3.539734e-004)">
			<stop  offset="0" style="stop-color:#7B4E10"/>
			<stop  offset="0.7961" style="stop-color:#67410C"/>
			<stop  offset="1" style="stop-color:#5B3A0A"/>
		</linearGradient>
		<path style="fill-rule:evenodd;clip-rule:evenodd;fill:url(#SVGID_1_);" d="M36.938,27.824c-0.05,3.326-1.199,5.738-3.449,7.238
			c-2.001,1.35-4.951,1.988-8.852,1.912l-15.111-5.85c-1.675-0.476-2.8-1.226-3.375-2.25c-0.601-1.075-0.9-2.963-0.9-5.662
			L1.013,5.85c-0.35-2.15,0.65-3.687,3-4.612c1.725-0.675,4.35-1.05,7.875-1.125l17.851,1.013c2.8,0.4,4.762,1.438,5.887,3.112
			c0.925,1.351,1.387,3.338,1.387,5.963L36.938,27.824z"/>
		
			<linearGradient id="SVGID_2_" gradientUnits="userSpaceOnUse" x1="4.9507" y1="2.5137" x2="44.6191" y2="2.5137" gradientTransform="matrix(0.75 0 0 0.75 0 0)">
			<stop  offset="0" style="stop-color:#BD761B"/>
			<stop  offset="1" style="stop-color:#965F15"/>
		</linearGradient>
		<path style="fill-rule:evenodd;clip-rule:evenodd;fill:url(#SVGID_2_);" d="M32.551,1.838c0.523,0.225,0.824,0.475,0.898,0.75
			c0.076,0.275-0.148,0.487-0.674,0.637c-1.275,0.351-2.388,0.488-3.338,0.413c-0.824-0.05-1.774-0.288-2.85-0.713
			C25.362,2.45,21.25,2.075,14.25,1.8c-0.274,0-2.287-0.1-6.037-0.3c-2-0.125-3.5-0.163-4.5-0.112c1-0.5,2.3-0.85,3.899-1.05
			c1.05-0.125,2.476-0.201,4.275-0.226l17.851,1.013C30.863,1.275,31.801,1.513,32.551,1.838z"/>
		<path style="fill-rule:evenodd;clip-rule:evenodd;fill:#B07219;" d="M31.688,29.324c-0.05,3.275-0.775,5.464-2.176,6.563
			c-1.199,0.926-3.199,1.251-6,0.977L4.275,32.625c-1.675-0.476-2.8-1.226-3.375-2.25C0.3,29.3,0,27.412,0,24.713L0.037,8.888
			c0.05-5.5,2.05-8.013,6-7.538l17.588,0.976C26.375,2.6,28.45,3.65,29.85,5.475c1.275,1.625,1.912,3.7,1.912,6.226L31.688,29.324z"
			/>
		<g>
			<path style="fill-rule:evenodd;clip-rule:evenodd;fill:#9B6212;" d="M21.637,15.863c0-2.875,0.088-5.326,0.264-7.35
				c0.199-2.4,0.325-4.488,0.375-6.263l0.6,0.037l-0.074,4.388c-0.15,3.875-0.227,6.813-0.227,8.813c0,0.1-0.012,1.712-0.037,4.836
				c-0.024,1.875-0.012,3.264,0.037,4.164c0.051,0.799,0.176,1.774,0.375,2.924c0.251,1.426,0.426,2.638,0.525,3.639
				c0.176,1.648,0.325,3.6,0.451,5.85l-0.639-0.076c-0.325-3.299-0.486-5.475-0.486-6.523c0-1.301-0.227-2.464-0.676-3.488
				c-0.476-1.024-0.713-1.862-0.713-2.512c0-0.176,0.037-0.713,0.113-1.613C21.6,21.787,21.637,19.513,21.637,15.863z"/>
			<path style="fill-rule:evenodd;clip-rule:evenodd;fill:#9B6212;" d="M16.012,13.612c-0.25-0.65-0.512-1.637-0.788-2.962
				c-0.55-2.625-0.9-5.575-1.049-8.851l0.637,0.038l0.075,1.649c0.15,2.25,0.451,4.313,0.9,6.188
				c0.125-1.875,0.225-4.462,0.301-7.763l0.75,0.038v0.037c-0.175,5.35-0.363,8.725-0.563,10.125L16.012,13.612z"/>
			<path style="fill-rule:evenodd;clip-rule:evenodd;fill:#9B6212;" d="M11.813,1.65l0.675,32.775l-1.05-0.227l-0.225-10.836
				c-0.175-5.176-0.288-8.913-0.338-11.213c-0.125-3.9-0.163-7.163-0.112-9.788v-0.75L11.813,1.65z"/>
			<path style="fill-rule:evenodd;clip-rule:evenodd;fill:#9B6212;" d="M1.275,30.9l-0.413-0.6L0.9,26.926
				C0.8,20.85,0.875,14.225,1.125,7.05l0.112-3.675C1.413,3.1,1.625,2.837,1.875,2.588C1.6,7.862,1.463,11.975,1.463,14.925
				C1.463,22.801,1.4,28.125,1.275,30.9z"/>
			<path style="fill-rule:evenodd;clip-rule:evenodd;fill:#9B6212;" d="M6.862,4.237c0,5.8,0.175,15.5,0.525,29.101l-0.75-0.188
				l-0.112-4.537C6.3,16.737,6.188,8.488,6.188,3.862V1.35l0.638,0.038L6.862,4.237z"/>
			<path style="fill-rule:evenodd;clip-rule:evenodd;fill:#9B6212;" d="M26.699,10.05c-0.148-1.625-0.312-3.1-0.486-4.425
				C26.137,5,26.088,4.075,26.063,2.85l0.637,0.226c0.076,2.7,0.451,6.462,1.125,11.288c0.375,2.525,0.701,5.625,0.977,9.299
				c0.324,4.35,0.499,8.45,0.523,12.301c-0.274,0.225-0.662,0.425-1.162,0.6l-0.111-8.324C28,24.013,27.851,20.65,27.6,18.15
				C27.225,15.375,26.926,12.675,26.699,10.05z"/>
			<path style="fill-rule:evenodd;clip-rule:evenodd;fill:#9B6212;" d="M2.287,3.862l0.038-1.688l0.3-0.225
				C2.7,4.025,2.737,6.037,2.737,7.987c0,11.875-0.075,19.438-0.225,22.688l-0.075,1.236l-0.45-0.299l0.075-3.563
				c0.025-1.875,0.05-6.326,0.075-13.351C2.163,9.625,2.213,6.013,2.287,3.862z"/>
			<path style="fill-rule:evenodd;clip-rule:evenodd;fill:#9B6212;" d="M5.213,1.313c0.1,1.15,0.149,1.938,0.149,2.362
				c0.05,1,0.05,4.45,0,10.351c-0.025,6.074-0.025,9.813,0,11.213c0.025,0.349,0.063,2.912,0.112,7.688l-0.449-0.113
				c0.05-3.725,0.05-7.063,0-10.012C4.875,12.375,4.763,6.188,4.688,4.237L4.575,1.313H5.213z"/>
			<path style="fill-rule:evenodd;clip-rule:evenodd;fill:#9B6212;" d="M31.725,24.563C31.275,21.688,31,19.838,30.9,19.012
				c-0.2-1.699-0.264-3.187-0.188-4.461c0.024-0.3,0.087-1.125,0.188-2.475c0.024-0.375,0.037-1.963,0.037-4.763
				c0.55,1.275,0.824,2.737,0.824,4.388L31.725,24.563z"/>
			<path style="fill-rule:evenodd;clip-rule:evenodd;fill:#9B6212;" d="M8.7,27.488C8.525,23.163,8.275,17.5,7.95,10.5
				c-0.175-3.975-0.275-7-0.3-9.075l0.675,0.038c0.075,3.5,0.237,8.862,0.487,16.087c0.075,3,0.35,8.425,0.825,16.274l-0.675-0.148
				L8.7,27.488z"/>
			<polygon style="fill-rule:evenodd;clip-rule:evenodd;fill:#9B6212;" points="3.412,32.363 3.3,1.612 3.938,1.425 4.125,32.588 
							"/>
			<path style="fill-rule:evenodd;clip-rule:evenodd;fill:#9B6212;" d="M30.525,20.137c0.199,4.101,0.299,6.551,0.299,7.352
				c0,1.249,0.15,3.049,0.451,5.398c-0.2,0.726-0.438,1.313-0.713,1.764c-0.25-1.5-0.4-2.575-0.449-3.225
				c-0.026-0.9-0.026-3.214,0-6.938c0.049-3.801-0.088-7.001-0.414-9.601C29.375,12.112,29.213,9,29.213,5.55V4.763
				C29.588,5.138,29.926,5.55,30.225,6v5.55C30.225,13.2,30.325,16.063,30.525,20.137z"/>
			<path style="fill-rule:evenodd;clip-rule:evenodd;fill:#9B6212;" d="M12.713,1.725h0.524c-0.1,5.05-0.05,8.388,0.15,10.013
				c0.05,0.35,0.3,1.95,0.75,4.8c0.3,1.825,0.475,3.476,0.525,4.951c0.05,1.249,0.138,2.924,0.263,5.023
				c0.125,1.851,0.188,3.113,0.188,3.789c0,1.099-0.038,2.662-0.113,4.688l-0.975-0.188l-0.076-3.563
				c0-1.101,0.15-2.051,0.451-2.852c0.15-0.399,0-2.137-0.451-5.211c-0.525-3.851-0.875-7.038-1.049-9.563
				c-0.125-2.125-0.188-5.125-0.188-9V1.725z"/>
			<path style="fill-rule:evenodd;clip-rule:evenodd;fill:#9B6212;" d="M24.525,2.438l0.563,0.112v4.5
				c0,1.675,0.25,4.125,0.75,7.351c0.499,3.2,0.75,5.875,0.75,8.025c0,3.724-0.063,8.549-0.188,14.475
				c-0.15,0.024-0.388,0.037-0.713,0.037c0.074-5.75,0.101-9.4,0.074-10.949c-0.049-2.801-0.087-4.288-0.111-4.463
				c-0.15-0.7-0.301-2.088-0.451-4.163C24.9,13.637,24.725,11.1,24.676,9.75C24.575,7.85,24.525,5.413,24.525,2.438z"/>
			<path style="fill-rule:evenodd;clip-rule:evenodd;fill:#9B6212;" d="M17.4,7.8l0.375-5.813l0.6,0.038
				c-0.425,7.149-0.938,13.075-1.537,17.775c-0.275,2.25-0.388,3.986-0.338,5.211c0.025,0.75,0.101,2.014,0.225,3.789
				c0.025,0.949,0.463,3.236,1.313,6.861l-0.975-0.225c-0.575-2.575-0.975-4.574-1.2-6c-0.3-1.949-0.438-3.725-0.413-5.324
				c0.026-1.801,0.3-4.051,0.826-6.75C16.825,14.337,17.2,11.15,17.4,7.8z"/>
			<path style="fill-rule:evenodd;clip-rule:evenodd;fill:#9B6212;" d="M19.275,15.3c0.274-1.25,0.412-4.063,0.412-8.438L19.762,2.1
				l1.051,0.075c-0.05,2.55-0.074,5.737-0.074,9.563c0,0.75,0,1.925,0,3.525c0,1.351-0.076,2.3-0.227,2.851
				c-0.199,0.75-0.424,1.788-0.674,3.112c-0.251,1.476-0.375,2.563-0.375,3.264c0,0.499-0.025,1.262-0.076,2.287
				c0,0.824,0.139,1.313,0.414,1.463c0.824,0.449,1.374,0.887,1.648,1.313c0.75,1.225,1.125,3.349,1.125,6.375v0.711l-0.711-0.148
				c-0.026-0.9-0.139-1.901-0.338-3c-0.275-1.801-0.575-2.876-0.9-3.227c-0.375-0.1-0.688-0.274-0.938-0.523
				c-0.449-0.051-0.763-0.139-0.938-0.264c-0.274-0.225-0.412-1.263-0.412-3.111c0-1.051-0.088-2.188-0.264-3.414
				c-0.099-0.624-0.012-1.862,0.264-3.711C18.787,17.363,19.1,16.05,19.275,15.3z"/>
		</g>
		
			<linearGradient id="SVGID_3_" gradientUnits="userSpaceOnUse" x1="8.8159" y1="-5.5547" x2="60.4598" y2="-5.5547" gradientTransform="matrix(0.3812 0.6459 -0.6459 0.3812 -6.352663e-004 0)">
			<stop  offset="0" style="stop-color:#110C0E;stop-opacity:0"/>
			<stop  offset="1" style="stop-color:#110C0E;stop-opacity:0.3686"/>
		</linearGradient>
		<path style="fill-rule:evenodd;clip-rule:evenodd;fill:url(#SVGID_3_);" d="M31.688,29.324c-0.05,3.275-0.775,5.464-2.176,6.563
			c-1.199,0.926-3.199,1.251-6,0.977L4.275,32.625c-1.675-0.476-2.8-1.226-3.375-2.25C0.3,29.3,0,27.412,0,24.713L0.037,8.888
			c0.05-5.5,2.05-8.013,6-7.538l17.588,0.976C26.375,2.6,28.45,3.65,29.85,5.475c1.275,1.625,1.912,3.7,1.912,6.226L31.688,29.324z"
			/>
		<path style="fill-rule:evenodd;clip-rule:evenodd;fill:#AC711C;" d="M31.762,11.7l-0.074,17.624
			c-0.05,3.275-0.775,5.464-2.176,6.563c-1.199,0.926-3.199,1.251-6,0.977l-12.374-2.701c2.35,0.375,5.925,1.001,10.726,1.875
			c5.023,0.926,7.975-0.637,8.85-4.688c0.399-1.799,0.612-4.949,0.637-9.449C31.35,16.976,31.487,13.575,31.762,11.7z"/>
		<path style="fill-rule:evenodd;clip-rule:evenodd;fill:#D48F2A;" d="M0.037,8.888c0.05-5.5,2.05-8.013,6-7.538l6.244,0.338
			c-0.391-0.013-0.76-0.025-1.106-0.037c-3.8-0.1-6.4,0.262-7.8,1.087c-1.6,0.95-2.588,2.7-2.963,5.25
			c-0.183,1.331-0.308,3.274-0.375,5.831V8.888z"/>
		<path style="fill-rule:evenodd;clip-rule:evenodd;fill:#D48F2A;" d="M2.25,2.925l-0.938,0.3c0.15-0.275,0.425-0.6,0.825-0.975
			c0.75-0.7,1.7-1.25,2.85-1.65c1.2-0.425,2.9-0.625,5.101-0.6c1.125,0,2.112,0.05,2.962,0.15c-0.875,0-1.875,0.037-3,0.112
			c-2.225,0.2-3.975,0.575-5.25,1.125c-1.274,0.55-1.925,0.825-1.95,0.825C2.725,2.287,2.525,2.525,2.25,2.925z"/>
	</g>
	<path style="fill-rule:evenodd;clip-rule:evenodd;fill:#B5781D;" d="M29.625,11.737l-0.037,12.337
		c-0.05,2.15-0.688,3.589-1.912,4.313c-1.025,0.626-2.775,0.851-5.25,0.676L5.625,26.588c-1.45-0.325-2.425-0.826-2.925-1.5
		c-0.55-0.726-0.825-1.976-0.825-3.75L1.912,9.862c0.05-3.6,1.801-5.25,5.25-4.95l15.375,0.601c2.375,0.2,4.188,0.899,5.438,2.1
		C29.075,8.712,29.625,10.088,29.625,11.737z"/>
	
		<linearGradient id="SVGID_4_" gradientUnits="userSpaceOnUse" x1="-32.8208" y1="20.626" x2="-6.0208" y2="20.626" gradientTransform="matrix(2.798508e-005 -0.75 0.75 -7.499999e-004 -2.527660e-004 1.332349e-004)">
		<stop  offset="0" style="stop-color:#774A0F"/>
		<stop  offset="1" style="stop-color:#492E08"/>
	</linearGradient>
	<path style="fill-rule:evenodd;clip-rule:evenodd;fill:url(#SVGID_4_);" d="M29.25,11.475l-0.037,12.188
		c-0.05,2.126-0.688,3.551-1.912,4.275c-1.025,0.6-2.751,0.813-5.176,0.637L5.4,26.1c-1.45-0.325-2.425-0.813-2.926-1.463
		c-0.524-0.724-0.787-1.962-0.787-3.711L1.725,9.638c0.05-3.575,1.788-5.213,5.213-4.913l15.262,0.601
		c2.376,0.2,4.176,0.887,5.4,2.063C28.7,8.462,29.25,9.825,29.25,11.475z"/>
	<path style="fill-rule:evenodd;clip-rule:evenodd;fill:#956115;" d="M27.6,7.688c1.101,1.05,1.65,2.4,1.65,4.05l-0.037,12.188
		c-0.025,1.474-0.338,2.599-0.938,3.375c-1.051,0.375-2.551,0.486-4.5,0.336L7.05,25.199c-1.45-0.324-2.425-0.812-2.925-1.461
		c-0.525-0.726-0.787-1.963-0.787-3.713L3.375,8.7c0-1.45,0.313-2.6,0.938-3.45C4.987,5,5.863,4.912,6.938,4.987l15.262,0.638
		C24.575,5.8,26.375,6.487,27.6,7.688z"/>
	<path style="fill-rule:evenodd;clip-rule:evenodd;fill:#B07219;" d="M27.6,7.388c1.101,1.075,1.65,2.438,1.65,4.087l-0.037,12.188
		c-0.025,1.426-0.338,2.551-0.938,3.375c-0.95,0.351-2.45,0.463-4.5,0.338L7.05,24.9c-1.45-0.325-2.425-0.813-2.925-1.463
		c-0.525-0.725-0.787-1.962-0.787-3.713L3.375,8.438c0-1.45,0.313-2.6,0.938-3.45c0.775-0.275,1.65-0.362,2.625-0.263l15.262,0.601
		C24.575,5.525,26.375,6.212,27.6,7.388z"/>
	<path style="fill-rule:evenodd;clip-rule:evenodd;fill:#3E6181;" d="M27.6,7.388c1.101,1.075,1.65,2.438,1.65,4.087l-0.037,12.188
		c-0.025,1.426-0.338,2.551-0.938,3.375c-0.95,0.351-2.45,0.463-4.5,0.338L7.05,24.9c-1.45-0.325-2.425-0.813-2.925-1.463
		c-0.525-0.725-0.787-1.962-0.787-3.713L3.375,8.438c0-1.45,0.313-2.6,0.938-3.45c0.775-0.275,1.65-0.362,2.625-0.263l15.262,0.601
		C24.575,5.525,26.375,6.212,27.6,7.388z"/>
	<polygon style="fill-rule:evenodd;clip-rule:evenodd;fill:#F4F3E1;" points="5.138,5.888 5.325,7.088 6.375,7.2 5.438,7.688 
		5.55,9 4.875,7.838 4.313,8.775 4.388,7.575 4.05,7.088 4.763,6.9 	"/>
	<polygon style="fill-rule:evenodd;clip-rule:evenodd;fill:#F4F3E1;" points="7.2,12.15 7.612,12.037 7.875,11.325 7.987,12.15 
		8.7,12.263 8.063,12.6 8.138,13.5 7.725,12.675 7.35,13.35 7.388,12.525 	"/>
	<polygon style="fill-rule:evenodd;clip-rule:evenodd;fill:#F4F3E1;" points="10.2,7.162 10.463,6.412 10.575,7.275 11.362,7.388 
		10.688,7.763 10.763,8.7 10.275,7.838 9.862,8.513 9.9,7.65 9.675,7.275 	"/>
	<polygon style="fill-rule:evenodd;clip-rule:evenodd;fill:#F4F3E1;" points="24.225,8.438 24.375,7.688 24.637,8.513 25.426,8.475 
		24.787,8.963 25.051,9.862 24.412,9.112 24.113,9.862 24.037,9 23.738,8.662 	"/>
	<polygon style="fill-rule:evenodd;clip-rule:evenodd;fill:#F4F3E1;" points="27.301,11.438 27.563,12.525 28.762,12.563 
		27.75,13.125 27.975,14.325 27.15,13.275 26.588,14.175 26.588,13.088 26.213,12.638 26.963,12.412 	"/>
	
		<radialGradient id="SVGID_5_" cx="22.9004" cy="20.0996" r="12.5375" gradientTransform="matrix(0.75 0 0 -0.7216 0 29.5783)" gradientUnits="userSpaceOnUse">
		<stop  offset="0" style="stop-color:#FFFFFF;stop-opacity:0.4784"/>
		<stop  offset="1" style="stop-color:#FFFFFF;stop-opacity:0"/>
	</radialGradient>
	<path style="fill-rule:evenodd;clip-rule:evenodd;fill:url(#SVGID_5_);" d="M26.438,15.075c0,2.525-0.9,4.687-2.699,6.488
		c-1.826,1.801-4.014,2.699-6.563,2.699c-2.55,0-4.725-0.898-6.525-2.699c-1.801-1.801-2.7-3.962-2.7-6.488
		c0-2.525,0.899-4.687,2.7-6.487c1.8-1.801,3.975-2.7,6.525-2.7c2.549,0,4.737,0.899,6.563,2.7
		C25.537,10.388,26.438,12.55,26.438,15.075z"/>
	<path style="fill-rule:evenodd;clip-rule:evenodd;fill:#F0EDC7;" d="M17.025,8.513c1.949,0,3.625,0.725,5.025,2.175
		c1.374,1.45,2.063,3.2,2.063,5.25s-0.688,3.787-2.063,5.213c-1.4,1.45-3.076,2.174-5.025,2.174c-1.976,0-3.65-0.724-5.025-2.174
		c-1.4-1.426-2.1-3.163-2.1-5.213s0.7-3.8,2.1-5.25C13.375,9.238,15.05,8.513,17.025,8.513z"/>
	<g>
		<path style="fill-rule:evenodd;clip-rule:evenodd;fill:#D3D0A4;" d="M22.725,16.688c-0.225,0-0.412-0.113-0.563-0.338
			c-0.15-0.25-0.225-0.55-0.225-0.9c0-0.349,0.074-0.637,0.225-0.862c0.15-0.251,0.338-0.375,0.563-0.375
			c0.2,0,0.388,0.124,0.563,0.375c0.15,0.25,0.225,0.537,0.225,0.862c0,0.35-0.074,0.65-0.225,0.9
			C23.112,16.575,22.925,16.688,22.725,16.688z"/>
		<path style="fill-rule:evenodd;clip-rule:evenodd;fill:#D3D0A4;" d="M20.512,19.875c-0.225,0-0.412-0.063-0.563-0.188
			c-0.175-0.15-0.262-0.325-0.262-0.525c0-0.2,0.087-0.362,0.262-0.487c0.15-0.15,0.338-0.226,0.563-0.226
			c0.2,0,0.388,0.076,0.563,0.226c0.15,0.149,0.227,0.312,0.227,0.487c0,0.2-0.076,0.375-0.227,0.525
			C20.899,19.813,20.712,19.875,20.512,19.875z"/>
		<path style="fill-rule:evenodd;clip-rule:evenodd;fill:#D3D0A4;" d="M18.637,21.637c-0.274,0-0.512-0.074-0.711-0.225
			c-0.2-0.175-0.3-0.375-0.3-0.6c0-0.25,0.101-0.449,0.3-0.6c0.2-0.176,0.437-0.264,0.711-0.264c0.301,0,0.551,0.088,0.75,0.264
			c0.2,0.15,0.301,0.35,0.301,0.6c0,0.225-0.101,0.425-0.301,0.6C19.188,21.563,18.938,21.637,18.637,21.637z"/>
		<path style="fill-rule:evenodd;clip-rule:evenodd;fill:#D3D0A4;" d="M18.637,19.012c0,0.15-0.062,0.288-0.188,0.414
			c-0.124,0.1-0.274,0.148-0.449,0.148s-0.325-0.049-0.45-0.148c-0.125-0.126-0.188-0.264-0.188-0.414
			c0-0.149,0.062-0.274,0.188-0.375c0.125-0.125,0.275-0.188,0.45-0.188s0.325,0.063,0.449,0.188
			C18.575,18.737,18.637,18.863,18.637,19.012z"/>
		<path style="fill-rule:evenodd;clip-rule:evenodd;fill:#D3D0A4;" d="M16.313,19.762c0.5,0,0.75,0.2,0.75,0.602
			c0,0.399-0.25,0.6-0.75,0.6s-0.75-0.2-0.75-0.6C15.563,19.962,15.813,19.762,16.313,19.762z"/>
		<path style="fill-rule:evenodd;clip-rule:evenodd;fill:#D3D0A4;" d="M14.7,19.125c0-0.25,0.125-0.375,0.375-0.375
			c0.275,0,0.413,0.125,0.413,0.375S15.35,19.5,15.075,19.5C14.825,19.5,14.7,19.375,14.7,19.125z"/>
		<path style="fill-rule:evenodd;clip-rule:evenodd;fill:#D3D0A4;" d="M13.05,19.574c0-0.249,0.15-0.375,0.45-0.375
			c0.3,0,0.45,0.126,0.45,0.375c0,0.251-0.149,0.375-0.45,0.375C13.2,19.949,13.05,19.825,13.05,19.574z"/>
		<path style="fill-rule:evenodd;clip-rule:evenodd;fill:#D3D0A4;" d="M12.675,18.563c0,0.3-0.149,0.449-0.45,0.449
			c-0.325,0-0.487-0.149-0.487-0.449c0-0.274,0.163-0.412,0.487-0.412C12.525,18.15,12.675,18.288,12.675,18.563z"/>
		<path style="fill-rule:evenodd;clip-rule:evenodd;fill:#D3D0A4;" d="M11.25,17.4c-0.25,0-0.375-0.138-0.375-0.413
			c0-0.275,0.125-0.413,0.375-0.413s0.375,0.138,0.375,0.413C11.625,17.263,11.5,17.4,11.25,17.4z"/>
		<path style="fill-rule:evenodd;clip-rule:evenodd;fill:#D3D0A4;" d="M20.25,17.1c0,0.2-0.101,0.375-0.301,0.525
			c-0.175,0.125-0.399,0.188-0.674,0.188c-0.275,0-0.5-0.063-0.676-0.188c-0.199-0.15-0.299-0.325-0.299-0.525
			c0-0.2,0.1-0.362,0.299-0.487c0.2-0.15,0.425-0.226,0.676-0.226c0.25,0,0.475,0.076,0.674,0.226
			C20.149,16.737,20.25,16.9,20.25,17.1z"/>
		<path style="fill-rule:evenodd;clip-rule:evenodd;fill:#D3D0A4;" d="M22.199,12.338c0,0.25-0.1,0.475-0.299,0.675
			c-0.225,0.175-0.476,0.263-0.75,0.263c-0.275,0-0.513-0.088-0.713-0.263c-0.2-0.175-0.301-0.4-0.301-0.675
			c0-0.25,0.101-0.475,0.301-0.676c0.2-0.174,0.438-0.262,0.713-0.262c0.274,0,0.525,0.087,0.75,0.262
			C22.1,11.863,22.199,12.087,22.199,12.338z"/>
		<path style="fill-rule:evenodd;clip-rule:evenodd;fill:#D3D0A4;" d="M20.813,10.088c0,0.2-0.113,0.3-0.338,0.3
			s-0.338-0.1-0.338-0.3c0-0.226,0.113-0.338,0.338-0.338S20.813,9.862,20.813,10.088z"/>
		<path style="fill-rule:evenodd;clip-rule:evenodd;fill:#F4F3E1;" d="M13.5,15.863c-0.7-0.401-1.138-1-1.313-1.8
			c-0.175-0.825-0.05-1.612,0.375-2.362s1.038-1.25,1.838-1.5c0.774-0.25,1.512-0.175,2.212,0.225c0.7,0.4,1.137,1,1.313,1.8
			c0.175,0.825,0.05,1.613-0.375,2.363c-0.425,0.75-1.038,1.249-1.837,1.5C14.938,16.337,14.2,16.263,13.5,15.863z"/>
	</g>
	<path style="fill-rule:evenodd;clip-rule:evenodd;fill:#253B51;" d="M21.262,18.113c0.451-0.35,0.65-0.601,0.602-0.75l-0.602,0.112
		l0.301-0.299c0.15-0.15,0.338-0.401,0.563-0.75l0.262-0.563l0.227-0.15l0.148,0.674l0.375,0.938c0.051,0.1,0.15,0.263,0.301,0.488
		c-0.074,0.025-0.175,0.013-0.301-0.037c-0.148-0.025-0.249-0.038-0.299-0.038l0.338,0.674l0.449,0.525
		c1.199-0.45,2.037-0.9,2.512-1.35c0.176-0.101,0.363-0.275,0.563-0.525c0.227-0.325,0.301-0.55,0.227-0.675
		c-0.826,0.076-1.413,0.038-1.764-0.112c0.101-0.125,0.301-0.275,0.6-0.451c0.2-0.175,0.426-0.437,0.676-0.788
		c0.101-0.1,0.262-0.299,0.488-0.6c0.199-0.25,0.287-0.475,0.262-0.675l0.375-0.75c0.05,0.524,0.237,1.225,0.563,2.1
		c0.175,0.475,0.35,0.862,0.525,1.163l0.6,0.938V17.7c-0.649-0.1-1.1-0.212-1.35-0.337c0.024,0.025,0.037,0.137,0.037,0.337
		l0.15,0.451c0.15,0.399,0.375,0.861,0.674,1.387l0.451,0.713v0.449c-0.325-0.1-0.538-0.124-0.639-0.074
		c0.101,0.301,0.2,0.787,0.301,1.463c0.074,0.425,0.188,0.837,0.338,1.236v0.338c-0.025,0.676-0.101,1.275-0.225,1.801
		c-0.2,0.674-0.438,1.199-0.713,1.574c-0.95,0.351-2.45,0.463-4.5,0.338L7.05,24.9C6,24.676,5.213,24.375,4.688,24
		c-0.55-0.425-0.925-1.038-1.125-1.838c-0.15-0.625-0.225-1.437-0.225-2.438l0.037-8.962l1.162,1.95
		c0.301,0.5,0.638,0.95,1.013,1.35l0.601,0.6c-0.201,0.05-0.463,0.05-0.788,0c-0.4-0.024-0.675-0.037-0.825-0.037
		C4.563,14.95,4.95,15.3,5.7,15.675c0.65,0.45,1.162,0.75,1.537,0.899c0.226,0.1,0.338,0.163,0.338,0.188L7.388,16.8l-1.875,0.038
		c-0.4,0-0.625,0.024-0.675,0.074c0.024,0.225,0.149,0.4,0.375,0.525l2.25,1.125l0.149-0.225c0.4-0.451,0.65-0.8,0.75-1.051
		c-0.25,0.076-0.487,0.101-0.712,0.076c0.2-0.3,0.325-0.5,0.375-0.601c0.024-0.05,0.237-0.375,0.637-0.975
		c0.15-0.25,0.25-0.575,0.301-0.975l0.149-0.787c0.1,0.074,0.212,0.274,0.338,0.6c0.275,0.476,0.462,0.787,0.563,0.938l0.862,1.012
		c0.375,0.375,0.563,0.588,0.563,0.638c-0.2,0.124-0.563,0.15-1.088,0.074l-0.262-0.074c0,0.074,0.149,0.262,0.449,0.563
		l0.863,0.787c0.225,0.225,0.587,0.537,1.087,0.938c-0.1,0.025-0.275,0.013-0.524-0.037c-0.226-0.076-0.4-0.101-0.525-0.076
		c-0.05,0.101,0.037,0.251,0.263,0.451c0.149,0.124,0.313,0.25,0.487,0.375l0.188,0.15c2.225,0,4.475,0.175,6.75,0.523l0.338-0.225
		c0.75-0.6,1.263-1.1,1.537-1.5c0.25-0.25,0.325-0.437,0.225-0.563c-0.024-0.024-0.074-0.05-0.15-0.074
		c-0.324,0.074-0.563,0.087-0.711,0.037C20.738,18.412,21.037,18.262,21.262,18.113z"/>
	
		<radialGradient id="SVGID_6_" cx="21.1475" cy="18.895" r="25.9581" gradientTransform="matrix(0.748 0.0552 0.0495 -0.6714 -1.9787 26.8192)" gradientUnits="userSpaceOnUse">
		<stop  offset="0.1529" style="stop-color:#110C0E;stop-opacity:0"/>
		<stop  offset="0.9255" style="stop-color:#110C0E;stop-opacity:0.6667"/>
		<stop  offset="1" style="stop-color:#110C0E;stop-opacity:0.8275"/>
	</radialGradient>
	<path style="fill-rule:evenodd;clip-rule:evenodd;fill:url(#SVGID_6_);" d="M27.6,7.388c1.101,1.075,1.65,2.438,1.65,4.087
		l-0.037,12.188c-0.025,1.426-0.338,2.551-0.938,3.375c-0.95,0.351-2.45,0.463-4.5,0.338L7.05,24.9
		c-1.45-0.325-2.425-0.813-2.925-1.463c-0.525-0.725-0.787-1.962-0.787-3.713L3.375,8.438c0-1.45,0.313-2.6,0.938-3.45
		c0.775-0.275,1.65-0.362,2.625-0.263l15.262,0.601C24.575,5.525,26.375,6.212,27.6,7.388z"/>
	
		<linearGradient id="SVGID_7_" gradientUnits="userSpaceOnUse" x1="-36.9839" y1="24.8994" x2="-28.453" y2="24.8994" gradientTransform="matrix(0.0857 -0.7451 0.7451 0.0857 -2.636462e-004 1.866817e-004)">
		<stop  offset="0" style="stop-color:#000000;stop-opacity:0.6196"/>
		<stop  offset="1" style="stop-color:#000000;stop-opacity:0"/>
	</linearGradient>
	<path style="fill-rule:evenodd;clip-rule:evenodd;fill:url(#SVGID_7_);" d="M3.338,19.801h25.875v3.861
		c-0.025,1.426-0.338,2.551-0.938,3.375c-0.95,0.351-2.45,0.463-4.5,0.338L7.05,24.9c-1.45-0.325-2.425-0.813-2.925-1.463
		C3.6,22.737,3.338,21.525,3.338,19.801z"/>
	<path style="fill-rule:evenodd;clip-rule:evenodd;fill:#253B51;" d="M13.5,16.65l0.262,0.112c0.076,0.175,0.213,0.363,0.413,0.563
		l0.487,0.451c-0.074,0.074-0.25,0.074-0.525,0c0.1,0.2,0.25,0.399,0.451,0.6c0.325,0.25,0.499,0.425,0.525,0.525
		c-0.35-0.076-0.601-0.101-0.75-0.076c0.05,0.2,0.175,0.475,0.375,0.826c0.275,0.55,0.4,0.861,0.375,0.938
		c-0.425,0.024-0.738,0.037-0.938,0.037c-1.525,0-2.538-0.087-3.038-0.262c0.5-0.326,0.875-0.575,1.125-0.75
		c0.425-0.301,0.75-0.602,0.975-0.9c-0.325,0.024-0.575,0.024-0.75,0c0.05-0.076,0.2-0.175,0.45-0.301
		c0.25-0.175,0.45-0.387,0.6-0.637c-0.325,0.074-0.575,0.087-0.75,0.037C13.237,17.287,13.475,16.9,13.5,16.65z"/>
	<path style="fill-rule:evenodd;clip-rule:evenodd;fill:#253B51;" d="M19.199,17.775l0.039,0.112l0.037,0.675
		c0.074,0.25,0.1,0.4,0.074,0.449h-0.262c0,0.076,0.05,0.176,0.15,0.301c0.074,0.101,0.111,0.188,0.111,0.262l-0.111,0.039
		c0.1,0.148,0.287,0.312,0.563,0.486c-0.401-0.05-0.514,0.088-0.338,0.412c0.124,0.176,0.188,0.275,0.188,0.301
		c0.024,0.074-0.05,0.125-0.225,0.15h-0.9C18.225,20.987,18,21,17.85,21c-0.299,0-0.525-0.025-0.674-0.074
		c0.1-0.051,0.363-0.227,0.788-0.525c0.274-0.101,0.449-0.225,0.525-0.375H18.15c0.1-0.05,0.225-0.138,0.375-0.264
		c0.124-0.175,0.175-0.299,0.15-0.375h-0.227c0.026-0.074,0.101-0.175,0.227-0.299c0.124-0.125,0.188-0.251,0.188-0.375
		c-0.101,0-0.176-0.025-0.227-0.076C18.963,18.188,19.15,17.899,19.199,17.775z"/>
	
		<radialGradient id="SVGID_8_" cx="22.248" cy="4.5708" r="24.1777" gradientTransform="matrix(0.748 0.0553 0.0494 -0.6673 -0.4789 6.4695)" gradientUnits="userSpaceOnUse">
		<stop  offset="0" style="stop-color:#FFFFFF;stop-opacity:0.5686"/>
		<stop  offset="0.8353" style="stop-color:#FFFFFF;stop-opacity:0"/>
	</radialGradient>
	<path style="fill-rule:evenodd;clip-rule:evenodd;fill:url(#SVGID_8_);" d="M27.637,8.888c1.025,1,1.539,2.25,1.539,3.75
		L29.1,23.926c0,1.374-0.287,2.411-0.861,3.111c-0.9,0.351-2.301,0.463-4.201,0.338L8.475,25.088c-1.35-0.275-2.25-0.726-2.699-1.35
		c-0.5-0.676-0.75-1.826-0.75-3.451L5.063,9.825c0-1.325,0.288-2.388,0.862-3.188C6.65,6.388,7.475,6.3,8.4,6.375l14.213,0.6
		C24.813,7.15,26.487,7.788,27.637,8.888z"/>
	<g>
		<path style="fill-rule:evenodd;clip-rule:evenodd;fill:#503411;" d="M6.75,29.438c0.125,0.775,0.025,1.475-0.3,2.1
			c-0.3,0.626-0.725,0.987-1.275,1.088c-0.55,0.074-1.063-0.138-1.537-0.637c-0.475-0.501-0.775-1.151-0.9-1.951
			C2.612,29.263,2.7,28.563,3,27.938s0.737-0.987,1.313-1.088c0.55-0.074,1.075,0.138,1.575,0.639
			C6.362,27.987,6.65,28.638,6.75,29.438z"/>
		
			<radialGradient id="SVGID_9_" cx="-7.3076" cy="-39.1416" r="5.7152" gradientTransform="matrix(-0.7497 0.0229 0.0164 0.538 1.5413 50.4025)" gradientUnits="userSpaceOnUse">
			<stop  offset="0.1961" style="stop-color:#ECD723"/>
			<stop  offset="0.6549" style="stop-color:#A38012"/>
			<stop  offset="0.8157" style="stop-color:#C4A119"/>
			<stop  offset="1" style="stop-color:#B8991C"/>
		</radialGradient>
		<path style="fill-rule:evenodd;clip-rule:evenodd;fill:url(#SVGID_9_);" d="M6.225,29.512c0,0.726-0.2,1.352-0.6,1.875
			c-0.375,0.525-0.837,0.789-1.388,0.789c-0.6,0-1.175-0.264-1.725-0.789c-0.575-0.55-0.862-1.174-0.862-1.875
			c0-0.699,0.287-1.324,0.862-1.875c0.55-0.499,1.125-0.75,1.725-0.75c0.55,0,1.013,0.251,1.388,0.75
			C6.025,28.162,6.225,28.788,6.225,29.512z"/>
		<path style="fill-rule:evenodd;clip-rule:evenodd;fill:#FAF3B1;" d="M5.025,29.551c0,0.574-0.15,1.074-0.45,1.5
			c-0.3,0.424-0.663,0.637-1.088,0.637c-0.425,0-0.787-0.213-1.087-0.637c-0.301-0.426-0.45-0.926-0.45-1.5
			c0-0.575,0.149-1.076,0.45-1.5c0.3-0.401,0.662-0.602,1.087-0.602c0.425,0,0.788,0.2,1.088,0.602
			C4.875,28.475,5.025,28.976,5.025,29.551z"/>
		
			<linearGradient id="SVGID_10_" gradientUnits="userSpaceOnUse" x1="36.4492" y1="7.5254" x2="40.9487" y2="7.5254" gradientTransform="matrix(0.2209 0.7167 -0.7167 0.2209 -1.130700e-004 -2.264977e-005)">
			<stop  offset="0" style="stop-color:#E9D32A"/>
			<stop  offset="1" style="stop-color:#B79316"/>
		</linearGradient>
		<path style="fill-rule:evenodd;clip-rule:evenodd;fill:url(#SVGID_10_);" d="M4.725,29.512c0,0.575-0.149,1.076-0.449,1.5
			c-0.301,0.401-0.663,0.602-1.088,0.602S2.4,31.413,2.1,31.012c-0.3-0.424-0.449-0.925-0.449-1.5c0-0.574,0.149-1.074,0.449-1.5
			c0.301-0.424,0.663-0.637,1.088-0.637s0.787,0.213,1.088,0.637C4.575,28.438,4.725,28.938,4.725,29.512z"/>
	</g>
	<g>
		<path style="fill-rule:evenodd;clip-rule:evenodd;fill:#503411;" d="M27.15,32.551c0.124,0.874,0.012,1.648-0.338,2.324
			s-0.851,1.063-1.5,1.162c-0.625,0.101-1.226-0.124-1.801-0.674c-0.55-0.551-0.887-1.264-1.012-2.139
			c-0.15-0.874-0.05-1.65,0.301-2.324c0.375-0.676,0.887-1.063,1.537-1.162c0.649-0.101,1.249,0.124,1.799,0.674
			C26.688,30.963,27.025,31.675,27.15,32.551z"/>
		
			<radialGradient id="SVGID_11_" cx="-34.106" cy="-42.709" r="6.5905" gradientTransform="matrix(-0.7496 0.0239 0.0163 0.5107 1.7173 53.8269)" gradientUnits="userSpaceOnUse">
			<stop  offset="0.1961" style="stop-color:#ECD723"/>
			<stop  offset="0.6549" style="stop-color:#A38012"/>
			<stop  offset="0.8157" style="stop-color:#C4A119"/>
			<stop  offset="1" style="stop-color:#B8991C"/>
		</radialGradient>
		<path style="fill-rule:evenodd;clip-rule:evenodd;fill:url(#SVGID_11_);" d="M26.551,32.625c0,0.8-0.227,1.487-0.676,2.063
			s-1,0.863-1.65,0.863c-0.674,0-1.324-0.288-1.949-0.863c-0.676-0.6-1.014-1.287-1.014-2.063s0.338-1.463,1.014-2.063
			c0.625-0.55,1.275-0.824,1.949-0.824c0.626,0,1.175,0.287,1.65,0.861C26.324,31.15,26.551,31.825,26.551,32.625z"/>
		<path style="fill-rule:evenodd;clip-rule:evenodd;fill:#FAF3B1;" d="M25.162,32.662c0,0.65-0.175,1.201-0.525,1.65
			c-0.349,0.449-0.774,0.676-1.273,0.676c-0.501,0-0.913-0.227-1.238-0.676c-0.35-0.449-0.525-1-0.525-1.65
			c0-0.625,0.176-1.162,0.525-1.611c0.325-0.451,0.737-0.676,1.238-0.676c0.499,0,0.925,0.225,1.273,0.676
			C24.987,31.475,25.162,32.013,25.162,32.662z"/>
		
			<linearGradient id="SVGID_12_" gradientUnits="userSpaceOnUse" x1="47.9629" y1="-16.6069" x2="52.9054" y2="-16.6069" gradientTransform="matrix(0.22 0.717 -0.717 0.22 1.721680e-004 3.566146e-004)">
			<stop  offset="0" style="stop-color:#E9D32A"/>
			<stop  offset="1" style="stop-color:#B79316"/>
		</linearGradient>
		<path style="fill-rule:evenodd;clip-rule:evenodd;fill:url(#SVGID_12_);" d="M24.824,32.625c0,0.625-0.175,1.175-0.523,1.65
			c-0.351,0.449-0.776,0.674-1.275,0.674c-0.476,0-0.888-0.225-1.238-0.674c-0.35-0.451-0.525-1.001-0.525-1.65
			s0.176-1.199,0.525-1.65c0.351-0.449,0.763-0.674,1.238-0.674c0.499,0,0.925,0.225,1.275,0.674
			C24.649,31.45,24.824,32,24.824,32.625z"/>
	</g>
</g>
</svg>
