<?xml version="1.0" encoding="iso-8859-1"?>
<!-- Generator: Adobe Illustrator 15.1.0, SVG Export Plug-In . SVG Version: 6.00 Build 0)  -->
<!DOCTYPE svg PUBLIC "-//W3C//DTD SVG 1.1//EN" "http://www.w3.org/Graphics/SVG/1.1/DTD/svg11.dtd">
<svg version="1.1" xmlns="http://www.w3.org/2000/svg" xmlns:xlink="http://www.w3.org/1999/xlink" x="0px" y="0px" width="37px"
	 height="37px" viewBox="0 0 37 37" style="enable-background:new 0 0 37 37;" xml:space="preserve">
<symbol  id="element4_1_" viewBox="0 -8.351 7 8.35">
	<g id="Layer_1_4_">
		<polygon style="fill-rule:evenodd;clip-rule:evenodd;fill:#A1F0F6;" points="0,-3.5 1.8,0 5.25,-0.3 7,-4.45 5.15,-8.351 
			1.1,-7.65 		"/>
	</g>
</symbol>
<symbol  id="letterx_1_" viewBox="0 -11.35 8.45 11.35">
	<g id="Layer_1_2_">
		<g>
			<path style="fill-rule:evenodd;clip-rule:evenodd;fill:#C95B75;" d="M8.25-3.05l-0.9,0.1l-0.05,1l0.9-0.1L8.25-3.05z M8.2-1.9
				L7.3-1.8v1.05l0.85-0.1L8.2-1.9z M6.15-3L6.2-4L5.3-3.95L5.25-2.9L6.15-3z M6.25-1.85l0.9-0.1l0.05-1l-0.9,0.1L6.25-1.85z
				 M6.25-0.65l0.9-0.1v-1l-0.9,0.1V-0.65z M5.2-5.1L4.3-5L4.25-4l0.9-0.1L5.2-5.1z M7.2-4.15l-0.85,0.1L6.3-3l0.9-0.1V-4.15z
				 M6.2-4.2v-1L5.3-5.1v1L6.2-4.2z M1.95-1.2L1.1-1.15L1.05-0.1l0.9-0.1V-1.2z M0.95-1.3v-1l-0.9,0.1v1L0.95-1.3z M0.9-0.1l0.05-1
				L0.05-1L0,0L0.9-0.1z M2-2.55L2.05-3.6l-0.9,0.1l-0.05,1L2-2.55z M2-2.4L1.1-2.3v1L2-1.4V-2.4z M2.2-3.75l0.9-0.1V-4.9L2.2-4.8
				V-3.75z M3.25-5.05l0.9-0.1v-1L3.3-6.1L3.25-5.05z M4.15-5l-0.9,0.1l-0.05,1l0.9-0.05L4.15-5z M3.05-2.7v-1L2.2-3.6l-0.05,1
				L3.05-2.7z M3.3-7.25v1l0.85-0.1l0.05-1L3.3-7.25z M4.3-6.35l0.9-0.1l0.05-1l-0.9,0.1L4.3-6.35z M3.2-8.4L2.3-8.35L2.25-7.3
				l0.9-0.1L3.2-8.4z M3.15-7.25l-0.9,0.1v1l0.9-0.1V-7.25z M1.1-8.35L1.15-9.4l-0.9,0.1v1L1.1-8.35z M2.15-8.5l0.05-1L1.3-9.4
				l-0.05,1L2.15-8.5z M2.15-7.3v-1l-0.9,0.1v1L2.15-7.3z M1.3-9.55l0.9-0.1v-1.05l-0.9,0.1V-9.55z M1.15-9.55l0.05-1L0.3-10.5
				L0.25-9.45L1.15-9.55z M6.25-6.55l0.05-1l-0.9,0.1l-0.05,1L6.25-6.55z M5.4-8.65v1l0.9-0.1v-1L5.4-8.65z M6.45-7.75l0.85-0.1
				l0.05-1l-0.9,0.1V-7.75z M7.35-9l0.05-1.05l-0.9,0.1l-0.05,1L7.35-9z M7.55-10.2l0.85-0.1l0.05-1.05l-0.9,0.1V-10.2z M7.4-10.2
				v-1l-0.9,0.05v1.05L7.4-10.2z M8.4-9.15v-1l-0.9,0.1v1L8.4-9.15z M4.3-5.15l0.9-0.1V-6.3L4.3-6.2V-5.15z"/>
		</g>
	</g>
</symbol>
<symbol  id="number5_1_" viewBox="0 -22.7 13.8 22.7">
	<g id="Layer_1_3_">
		<g>
			<polygon style="fill-rule:evenodd;clip-rule:evenodd;fill:#3C423C;" points="9.4,-17.25 9.4,-15.2 11.45,-15.4 11.45,-17.5 			
				"/>
			<polygon style="fill-rule:evenodd;clip-rule:evenodd;fill:#3C423C;" points="9.4,-10.05 9.4,-7.95 11.45,-8.1 11.45,-10.2 			"/>
			<polygon style="fill-rule:evenodd;clip-rule:evenodd;fill:#3C423C;" points="9.4,-12.5 9.4,-10.4 11.45,-10.55 11.45,-12.65 			
				"/>
			<polygon style="fill-rule:evenodd;clip-rule:evenodd;fill:#3C423C;" points="9.4,-14.95 9.4,-12.85 11.45,-13 11.45,-15.1 			"/>
			<polygon style="fill-rule:evenodd;clip-rule:evenodd;fill:#3C423C;" points="7.05,-2.6 7.05,-0.5 9.05,-0.65 9.05,-2.75 			"/>
			<polygon style="fill-rule:evenodd;clip-rule:evenodd;fill:#3C423C;" points="9.4,-19.7 9.4,-17.6 11.45,-17.85 11.45,-19.95 			
				"/>
			<polygon style="fill-rule:evenodd;clip-rule:evenodd;fill:#3C423C;" points="9.4,-22.45 9.4,-20.35 11.45,-20.6 11.45,-22.7 			
				"/>
			<polygon style="fill-rule:evenodd;clip-rule:evenodd;fill:#3C423C;" points="9.4,-2.75 9.4,-0.65 11.45,-0.8 11.45,-2.9 			"/>
			<polygon style="fill-rule:evenodd;clip-rule:evenodd;fill:#3C423C;" points="11.75,-15.1 11.75,-13 13.8,-13.15 13.8,-15.25 			
				"/>
			<polygon style="fill-rule:evenodd;clip-rule:evenodd;fill:#3C423C;" points="7.05,-9.9 7.05,-7.8 9.05,-7.95 9.05,-10.05 			"/>
			<polygon style="fill-rule:evenodd;clip-rule:evenodd;fill:#3C423C;" points="11.75,-0.85 13.8,-1 13.8,-3.05 11.75,-2.95 			"/>
			<polygon style="fill-rule:evenodd;clip-rule:evenodd;fill:#3C423C;" points="11.75,-12.7 11.75,-10.6 13.8,-10.7 13.8,-12.8 			
				"/>
			<polygon style="fill-rule:evenodd;clip-rule:evenodd;fill:#3C423C;" points="11.75,-20 11.75,-17.9 13.8,-18.15 13.8,-20.25 			
				"/>
			<polygon style="fill-rule:evenodd;clip-rule:evenodd;fill:#3C423C;" points="11.75,-17.55 11.75,-15.45 13.8,-15.7 13.8,-17.8 
							"/>
			<polygon style="fill-rule:evenodd;clip-rule:evenodd;fill:#3C423C;" points="0,-6.95 0,-4.85 2,-5 2,-7.1 			"/>
			<polygon style="fill-rule:evenodd;clip-rule:evenodd;fill:#3C423C;" points="0,-2.1 0,0 2,-0.15 2,-2.25 			"/>
			<polygon style="fill-rule:evenodd;clip-rule:evenodd;fill:#3C423C;" points="7.05,-22.15 7.05,-20.05 9.05,-20.3 9.05,-22.4 			
				"/>
			<polygon style="fill-rule:evenodd;clip-rule:evenodd;fill:#3C423C;" points="2.35,-21.6 2.35,-19.5 4.35,-19.75 4.35,-21.85 			
				"/>
			<polygon style="fill-rule:evenodd;clip-rule:evenodd;fill:#3C423C;" points="0,-18.85 0,-16.75 2,-17 2,-19.1 			"/>
			<polygon style="fill-rule:evenodd;clip-rule:evenodd;fill:#3C423C;" points="0,-9.4 0,-7.3 2,-7.45 2,-9.55 			"/>
			<polygon style="fill-rule:evenodd;clip-rule:evenodd;fill:#3C423C;" points="2.35,-9.55 2.35,-7.5 4.35,-7.6 4.35,-9.7 			"/>
			<polygon style="fill-rule:evenodd;clip-rule:evenodd;fill:#3C423C;" points="0,-4.55 0,-2.45 2,-2.6 2,-4.7 			"/>
			<polygon style="fill-rule:evenodd;clip-rule:evenodd;fill:#3C423C;" points="4.7,-9.75 4.7,-7.65 6.7,-7.8 6.7,-9.9 			"/>
			<polygon style="fill-rule:evenodd;clip-rule:evenodd;fill:#3C423C;" points="4.7,-21.85 4.7,-19.75 6.7,-20 6.7,-22.1 			"/>
			<polygon style="fill-rule:evenodd;clip-rule:evenodd;fill:#3C423C;" points="2.35,-7.15 2.35,-5.05 4.35,-5.2 4.35,-7.3 			"/>
			<polygon style="fill-rule:evenodd;clip-rule:evenodd;fill:#3C423C;" points="4.7,-2.45 4.7,-0.35 6.7,-0.5 6.7,-2.55 			"/>
			<polygon style="fill-rule:evenodd;clip-rule:evenodd;fill:#3C423C;" points="2.35,-4.7 2.35,-2.6 4.35,-2.75 4.35,-4.85 			"/>
			<polygon style="fill-rule:evenodd;clip-rule:evenodd;fill:#3C423C;" points="2.35,-2.25 2.35,-0.15 4.35,-0.3 4.35,-2.4 			"/>
		</g>
	</g>
</symbol>
<g id="Base">
	<g>
		<g>
			
				<linearGradient id="SVGID_1_" gradientUnits="userSpaceOnUse" x1="493.3779" y1="-671.6929" x2="538.278" y2="-671.6929" gradientTransform="matrix(1.670379e-005 0.75 -0.75 -7.499999e-004 -484.7995 -368.8002)">
				<stop  offset="0" style="stop-color:#884A16"/>
				<stop  offset="0.7961" style="stop-color:#723E11"/>
				<stop  offset="1" style="stop-color:#65380E"/>
			</linearGradient>
			<path style="fill-rule:evenodd;clip-rule:evenodd;fill:url(#SVGID_1_);" d="M29.737,1.138c2.8,0.4,4.763,1.438,5.888,3.113
				c0.926,1.35,1.388,3.337,1.388,5.962l-0.075,17.625c-0.05,3.324-1.2,5.737-3.45,7.237c-1.999,1.35-4.949,1.987-8.85,1.912
				l-15.113-5.85c-1.675-0.476-2.8-1.226-3.375-2.25c-0.6-1.075-0.899-2.963-0.899-5.662L1.013,5.862
				c-0.35-2.149,0.649-3.687,3-4.612c1.725-0.675,4.35-1.05,7.875-1.125L29.737,1.138z"/>
			
				<linearGradient id="SVGID_2_" gradientUnits="userSpaceOnUse" x1="651.3496" y1="494.2637" x2="691.0186" y2="494.2637" gradientTransform="matrix(0.75 0 0 0.75 -484.7998 -368.7998)">
				<stop  offset="0" style="stop-color:#D26F24"/>
				<stop  offset="1" style="stop-color:#A65B1C"/>
			</linearGradient>
			<path style="fill-rule:evenodd;clip-rule:evenodd;fill:url(#SVGID_2_);" d="M3.712,1.4c1-0.5,2.3-0.85,3.9-1.049
				c1.051-0.125,2.475-0.2,4.275-0.225l17.85,1.012c1.125,0.15,2.063,0.388,2.813,0.713c0.525,0.225,0.825,0.475,0.9,0.75
				c0.075,0.274-0.15,0.487-0.675,0.637C31.5,3.588,30.388,3.726,29.438,3.65c-0.825-0.05-1.775-0.287-2.85-0.712
				c-1.225-0.475-5.338-0.85-12.337-1.125c-0.275,0-2.288-0.1-6.038-0.3C6.213,1.388,4.713,1.35,3.712,1.4z"/>
			<path style="fill-rule:evenodd;clip-rule:evenodd;fill:#C26D22;" d="M23.625,2.337c2.75,0.275,4.825,1.325,6.226,3.15
				c1.274,1.625,1.912,3.7,1.912,6.225l-0.075,17.625c-0.05,3.275-0.775,5.463-2.175,6.563c-1.2,0.925-3.2,1.25-6,0.975
				L4.275,32.638c-1.675-0.476-2.8-1.226-3.375-2.25C0.3,29.313,0,27.425,0,24.726L0.038,8.9c0.05-5.5,2.05-8.012,6-7.538
				L23.625,2.337z"/>
			<g>
				<path style="fill-rule:evenodd;clip-rule:evenodd;fill:#AB5E1A;" d="M22.275,2.263l0.6,0.037L22.8,6.688
					c-0.149,3.875-0.225,6.812-0.225,8.813c0,0.1-0.013,1.712-0.037,4.837c-0.025,1.875-0.013,3.263,0.037,4.162
					c0.05,0.801,0.175,1.775,0.375,2.925c0.25,1.426,0.425,2.638,0.525,3.638c0.175,1.65,0.325,3.601,0.449,5.851l-0.637-0.075
					c-0.325-3.3-0.488-5.476-0.488-6.525c0-1.3-0.225-2.463-0.675-3.487c-0.475-1.024-0.712-1.862-0.712-2.513
					c0-0.175,0.037-0.712,0.112-1.612s0.112-3.175,0.112-6.825c0-2.875,0.087-5.326,0.263-7.351
					C22.1,6.125,22.225,4.037,22.275,2.263z"/>
				<path style="fill-rule:evenodd;clip-rule:evenodd;fill:#AB5E1A;" d="M14.175,1.813l0.638,0.038l0.075,1.65
					c0.15,2.25,0.45,4.313,0.9,6.188c0.124-1.875,0.225-4.462,0.299-7.763l0.75,0.038V2c-0.175,5.35-0.363,8.725-0.563,10.125
					l-0.262,1.5c-0.25-0.65-0.513-1.638-0.787-2.962C14.675,8.038,14.325,5.088,14.175,1.813z"/>
				<path style="fill-rule:evenodd;clip-rule:evenodd;fill:#AB5E1A;" d="M10.763,2.375v-0.75l1.05,0.038l0.674,32.774l-1.049-0.225
					l-0.226-10.838c-0.175-5.175-0.287-8.912-0.337-11.212C10.75,8.263,10.713,5,10.763,2.375z"/>
				<path style="fill-rule:evenodd;clip-rule:evenodd;fill:#AB5E1A;" d="M1.237,3.388C1.413,3.113,1.625,2.85,1.875,2.601
					C1.6,7.875,1.462,11.988,1.462,14.938c0,7.875-0.062,13.2-0.188,15.975l-0.413-0.601L0.9,26.938
					c-0.1-6.075-0.025-12.7,0.226-19.875L1.237,3.388z"/>
				<path style="fill-rule:evenodd;clip-rule:evenodd;fill:#AB5E1A;" d="M6.188,1.362L6.825,1.4L6.862,4.25
					c0,5.8,0.175,15.5,0.525,29.1l-0.75-0.188l-0.113-4.538C6.3,16.75,6.188,8.5,6.188,3.875V1.362z"/>
				<path style="fill-rule:evenodd;clip-rule:evenodd;fill:#AB5E1A;" d="M26.7,3.087c0.075,2.701,0.45,6.463,1.125,11.288
					C28.2,16.9,28.525,20,28.8,23.675c0.325,4.351,0.501,8.45,0.525,12.301c-0.274,0.225-0.663,0.425-1.162,0.6L28.05,28.25
					c-0.05-4.225-0.2-7.588-0.449-10.087c-0.375-2.775-0.676-5.475-0.9-8.1c-0.399-2.55-0.612-4.951-0.638-7.201L26.7,3.087z"/>
				<path style="fill-rule:evenodd;clip-rule:evenodd;fill:#AB5E1A;" d="M2.325,2.188l0.3-0.226C2.7,4.037,2.737,6.05,2.737,8
					c0,11.875-0.074,19.437-0.225,22.687l-0.075,1.237l-0.451-0.3l0.076-3.563c0-12.375,0.075-20.437,0.225-24.187L2.325,2.188z"/>
				<path style="fill-rule:evenodd;clip-rule:evenodd;fill:#AB5E1A;" d="M4.575,1.325h0.637c0.1,1.15,0.15,1.938,0.15,2.363
					c0.05,0.975,0.05,4.424,0,10.35c-0.024,6.074-0.024,9.812,0,11.212c0.025,0.35,0.063,2.912,0.113,7.688l-0.451-0.112
					c0.05-3.726,0.05-7.063,0-10.013C4.875,12.388,4.763,6.2,4.688,4.25L4.575,1.325z"/>
				<path style="fill-rule:evenodd;clip-rule:evenodd;fill:#AB5E1A;" d="M31.763,11.712l-0.037,12.863
					C31.275,21.7,31,19.851,30.9,19.025c-0.2-1.7-0.263-3.188-0.188-4.462c0.025-0.3,0.088-1.125,0.188-2.476
					c0.025-0.375,0.037-1.962,0.037-4.762C31.488,8.601,31.763,10.063,31.763,11.712z"/>
				<path style="fill-rule:evenodd;clip-rule:evenodd;fill:#AB5E1A;" d="M7.65,1.438l0.675,0.038
					C8.4,4.975,8.563,10.338,8.813,17.563c0.075,3,0.349,8.425,0.825,16.275l-0.675-0.15L8.7,27.5
					C8.051,13.851,7.7,5.162,7.65,1.438z"/>
				<polygon style="fill-rule:evenodd;clip-rule:evenodd;fill:#AB5E1A;" points="3.3,1.625 3.938,1.438 4.125,32.601 3.413,32.375 
									"/>
				<path style="fill-rule:evenodd;clip-rule:evenodd;fill:#AB5E1A;" d="M29.7,14.9c-0.325-2.774-0.487-5.887-0.487-9.337V4.775
					c0.375,0.375,0.712,0.788,1.013,1.238v5.55c0,1.649,0.1,4.512,0.3,8.587c0.199,4.1,0.3,6.55,0.3,7.35
					c0,1.25,0.15,3.051,0.45,5.4c-0.2,0.725-0.438,1.313-0.713,1.763c-0.25-1.5-0.4-2.575-0.45-3.226
					c-0.024-0.899-0.024-3.213,0-6.938C30.162,20.7,30.025,17.5,29.7,14.9z"/>
				<path style="fill-rule:evenodd;clip-rule:evenodd;fill:#AB5E1A;" d="M12.712,1.737h0.525c-0.1,5.05-0.05,8.388,0.15,10.013
					c0.05,0.349,0.3,1.95,0.75,4.799c0.3,1.825,0.476,3.476,0.525,4.95c0.05,1.25,0.138,2.925,0.262,5.025
					c0.125,1.85,0.188,3.112,0.188,3.787c0,1.1-0.037,2.663-0.112,4.688l-0.976-0.188L13.95,31.25c0-1.1,0.15-2.05,0.45-2.85
					c0.15-0.4,0-2.138-0.45-5.213c-0.525-3.85-0.875-7.037-1.05-9.562c-0.125-2.125-0.188-5.125-0.188-9V1.737z"/>
				<path style="fill-rule:evenodd;clip-rule:evenodd;fill:#AB5E1A;" d="M24.525,2.45l0.563,0.113v4.5c0,1.675,0.25,4.125,0.75,7.35
					c0.5,3.2,0.75,5.874,0.75,8.024c0,3.725-0.063,8.55-0.188,14.476c-0.15,0.024-0.388,0.037-0.713,0.037
					c0.075-5.75,0.1-9.399,0.075-10.95c-0.05-2.8-0.087-4.287-0.112-4.462c-0.15-0.7-0.3-2.088-0.45-4.163
					c-0.3-3.725-0.476-6.263-0.525-7.613C24.575,7.863,24.525,5.425,24.525,2.45z"/>
				<path style="fill-rule:evenodd;clip-rule:evenodd;fill:#AB5E1A;" d="M17.775,2l0.6,0.038
					c-0.425,7.149-0.937,13.075-1.538,17.774c-0.275,2.25-0.387,3.988-0.337,5.213c0.025,0.75,0.1,2.012,0.225,3.787
					c0.024,0.95,0.462,3.238,1.313,6.862l-0.975-0.225c-0.575-2.575-0.976-4.575-1.201-6c-0.299-1.95-0.437-3.726-0.412-5.325
					c0.025-1.8,0.3-4.05,0.825-6.75c0.55-3.026,0.925-6.213,1.125-9.563L17.775,2z"/>
				<path style="fill-rule:evenodd;clip-rule:evenodd;fill:#AB5E1A;" d="M19.763,2.112l1.05,0.076
					c-0.05,2.549-0.075,5.737-0.075,9.563c0,0.75,0,1.925,0,3.524c0,1.351-0.074,2.3-0.225,2.851c-0.2,0.75-0.425,1.787-0.675,3.112
					c-0.25,1.476-0.375,2.563-0.375,3.263c0,0.5-0.025,1.263-0.075,2.288c0,0.824,0.138,1.313,0.412,1.462
					c0.825,0.45,1.376,0.888,1.65,1.313c0.75,1.225,1.125,3.35,1.125,6.375v0.713l-0.713-0.15c-0.024-0.899-0.138-1.9-0.337-3
					c-0.275-1.8-0.575-2.875-0.9-3.225c-0.375-0.1-0.688-0.275-0.938-0.525c-0.45-0.05-0.762-0.137-0.938-0.263
					c-0.275-0.225-0.412-1.263-0.412-3.112c0-1.05-0.088-2.188-0.263-3.412c-0.101-0.625-0.013-1.863,0.263-3.713
					c0.45-1.875,0.762-3.187,0.938-3.937c0.275-1.25,0.412-4.063,0.412-8.438L19.763,2.112z"/>
			</g>
			
				<linearGradient id="SVGID_3_" gradientUnits="userSpaceOnUse" x1="760.8623" y1="-312.2725" x2="812.5062" y2="-312.2725" gradientTransform="matrix(0.3812 0.6459 -0.6459 0.3812 -484.7995 -368.7998)">
				<stop  offset="0" style="stop-color:#130C0E;stop-opacity:0"/>
				<stop  offset="1" style="stop-color:#130C0E;stop-opacity:0.3569"/>
			</linearGradient>
			<path style="fill-rule:evenodd;clip-rule:evenodd;fill:url(#SVGID_3_);" d="M23.625,2.337c2.75,0.275,4.825,1.325,6.226,3.15
				c1.274,1.625,1.912,3.7,1.912,6.225l-0.075,17.625c-0.05,3.275-0.775,5.463-2.175,6.563c-1.2,0.925-3.2,1.25-6,0.975
				L4.275,32.638c-1.675-0.476-2.8-1.226-3.375-2.25C0.3,29.313,0,27.425,0,24.726L0.038,8.9c0.05-5.5,2.05-8.012,6-7.538
				L23.625,2.337z"/>
			<path style="fill-rule:evenodd;clip-rule:evenodd;fill:#BD6D23;" d="M31.763,11.712l-0.075,17.625
				c-0.05,3.275-0.775,5.463-2.175,6.563c-1.2,0.925-3.2,1.25-6,0.975l-12.375-2.7c2.351,0.375,5.925,1.001,10.725,1.875
				c5.025,0.925,7.976-0.637,8.851-4.688c0.4-1.8,0.612-4.949,0.638-9.449C31.351,16.988,31.488,13.587,31.763,11.712z"/>
			<path style="fill-rule:evenodd;clip-rule:evenodd;fill:#E88A32;" d="M12.282,1.7c-0.391-0.013-0.759-0.025-1.107-0.037
				c-3.8-0.101-6.399,0.262-7.799,1.087C1.775,3.7,0.788,5.45,0.413,8c-0.184,1.33-0.309,3.274-0.375,5.831V8.9
				c0.05-5.5,2.05-8.012,6-7.538L12.282,1.7z"/>
			<path style="fill-rule:evenodd;clip-rule:evenodd;fill:#E88A32;" d="M2.851,2.226C2.725,2.3,2.525,2.537,2.25,2.938L1.313,3.237
				l0.825-0.975c0.75-0.7,1.7-1.25,2.85-1.65c1.201-0.425,2.9-0.625,5.1-0.6c1.125,0,2.113,0.05,2.962,0.15
				c-0.874,0-1.875,0.037-3,0.112C7.825,0.475,6.075,0.85,4.8,1.4C3.525,1.95,2.875,2.226,2.851,2.226z"/>
		</g>
		<g>
			<path style="fill-rule:evenodd;clip-rule:evenodd;fill:#C77326;" d="M29.625,11.75l-0.037,12.337
				c-0.051,2.15-0.688,3.588-1.913,4.313c-1.024,0.625-2.774,0.85-5.25,0.675L5.625,26.601c-1.45-0.325-2.425-0.825-2.925-1.5
				c-0.55-0.726-0.825-1.976-0.825-3.75L1.913,9.875c0.05-3.601,1.799-5.25,5.25-4.951l15.375,0.6c2.374,0.2,4.187,0.9,5.438,2.101
				C29.075,8.725,29.625,10.101,29.625,11.75z"/>
			
				<linearGradient id="SVGID_4_" gradientUnits="userSpaceOnUse" x1="-525.2168" y1="667.0449" x2="-498.4168" y2="667.0449" gradientTransform="matrix(2.798508e-005 -0.75 0.75 -7.499999e-004 -484.8 -368.7997)">
				<stop  offset="0" style="stop-color:#834715"/>
				<stop  offset="1" style="stop-color:#512C0B"/>
			</linearGradient>
			<path style="fill-rule:evenodd;clip-rule:evenodd;fill:url(#SVGID_4_);" d="M29.25,11.487l-0.037,12.188
				c-0.051,2.126-0.688,3.55-1.913,4.275c-1.024,0.6-2.749,0.813-5.175,0.638L5.4,26.112c-1.45-0.325-2.425-0.812-2.924-1.462
				c-0.525-0.725-0.788-1.963-0.788-3.713L1.726,9.65c0.05-3.575,1.787-5.212,5.212-4.913l15.262,0.6
				c2.375,0.2,4.175,0.888,5.4,2.063C28.7,8.475,29.25,9.837,29.25,11.487z"/>
			<path style="fill-rule:evenodd;clip-rule:evenodd;fill:#A45D1C;" d="M27.601,7.7c1.1,1.05,1.649,2.4,1.649,4.05l-0.037,12.187
				c-0.025,1.475-0.338,2.6-0.938,3.375c-1.05,0.375-2.55,0.487-4.5,0.338L7.05,25.213C5.6,24.888,4.625,24.4,4.125,23.75
				c-0.525-0.725-0.788-1.963-0.788-3.712L3.375,8.712c0-1.45,0.312-2.599,0.938-3.45C4.987,5.013,5.863,4.925,6.938,5L22.2,5.638
				C24.575,5.813,26.375,6.5,27.601,7.7z"/>
			<path style="fill-rule:evenodd;clip-rule:evenodd;fill:#C26D22;" d="M27.601,7.4c1.1,1.075,1.649,2.438,1.649,4.087
				l-0.037,12.188c-0.025,1.426-0.338,2.551-0.938,3.375c-0.95,0.351-2.45,0.463-4.5,0.338L7.05,24.913
				C5.6,24.588,4.625,24.1,4.125,23.45c-0.525-0.726-0.788-1.962-0.788-3.713L3.375,8.45C3.375,7,3.688,5.85,4.313,5
				c0.775-0.275,1.649-0.363,2.625-0.263l15.262,0.6C24.575,5.537,26.375,6.225,27.601,7.4z"/>
			<path style="fill-rule:evenodd;clip-rule:evenodd;fill:#FEF5E4;" d="M27.601,7.4c1.1,1.075,1.649,2.438,1.649,4.087
				l-0.037,12.188c-0.025,1.426-0.338,2.551-0.938,3.375c-0.95,0.351-2.45,0.463-4.5,0.338L7.05,24.913
				C5.6,24.588,4.625,24.1,4.125,23.45c-0.525-0.726-0.788-1.962-0.788-3.713L3.375,8.45C3.375,7,3.688,5.85,4.313,5
				c0.775-0.275,1.649-0.363,2.625-0.263l15.262,0.6C24.575,5.537,26.375,6.225,27.601,7.4z"/>
			
				<radialGradient id="SVGID_5_" cx="21.1475" cy="18.895" r="25.9581" gradientTransform="matrix(0.748 0.0552 0.0495 -0.6714 -1.9787 26.8192)" gradientUnits="userSpaceOnUse">
				<stop  offset="0" style="stop-color:#130C0E;stop-opacity:0"/>
				<stop  offset="0.9137" style="stop-color:#130C0E;stop-opacity:0.2196"/>
				<stop  offset="1" style="stop-color:#130C0E;stop-opacity:0.3373"/>
			</radialGradient>
			<path style="fill-rule:evenodd;clip-rule:evenodd;fill:url(#SVGID_5_);" d="M22.199,5.325c2.376,0.2,4.176,0.887,5.4,2.063
				c1.101,1.075,1.65,2.438,1.65,4.087l-0.037,12.188c-0.025,1.426-0.338,2.551-0.938,3.375c-0.95,0.351-2.45,0.463-4.5,0.338
				L7.05,24.9c-1.45-0.325-2.425-0.813-2.925-1.463c-0.525-0.725-0.787-1.962-0.787-3.713L3.375,8.438c0-1.45,0.313-2.6,0.938-3.45
				c0.775-0.275,1.65-0.362,2.625-0.263L22.199,5.325z"/>
			
				<linearGradient id="SVGID_6_" gradientUnits="userSpaceOnUse" x1="-451.6343" y1="723.2656" x2="-443.1034" y2="723.2656" gradientTransform="matrix(0.0857 -0.7451 0.7451 0.0857 -484.8001 -368.7996)">
				<stop  offset="0" style="stop-color:#000000;stop-opacity:0.2392"/>
				<stop  offset="1" style="stop-color:#000000;stop-opacity:0"/>
			</linearGradient>
			<path style="fill-rule:evenodd;clip-rule:evenodd;fill:url(#SVGID_6_);" d="M3.337,19.813h25.875v3.862
				c-0.025,1.426-0.338,2.551-0.938,3.375c-0.95,0.351-2.45,0.463-4.5,0.338L7.05,24.913C5.6,24.588,4.625,24.1,4.125,23.45
				C3.601,22.75,3.337,21.538,3.337,19.813z"/>
		</g>
		<g>
			<path style="fill-rule:evenodd;clip-rule:evenodd;fill:#583213;" d="M6.75,29.45c0.125,0.774,0.025,1.476-0.3,2.1
				c-0.3,0.626-0.725,0.987-1.275,1.088C4.625,32.713,4.113,32.5,3.638,32s-0.775-1.15-0.9-1.95C2.613,29.275,2.7,28.575,3,27.95
				c0.299-0.625,0.738-0.987,1.313-1.088C4.863,26.788,5.388,27,5.888,27.5C6.363,28,6.65,28.65,6.75,29.45z"/>
			
				<radialGradient id="SVGID_7_" cx="-638.3848" cy="-550.4077" r="5.7152" gradientTransform="matrix(-0.7497 0.0229 0.0164 0.538 -463.1395 339.9538)" gradientUnits="userSpaceOnUse">
				<stop  offset="0.1961" style="stop-color:#F2D838"/>
				<stop  offset="0.6549" style="stop-color:#AE7E1F"/>
				<stop  offset="0.8157" style="stop-color:#CFA129"/>
				<stop  offset="1" style="stop-color:#C29929"/>
			</radialGradient>
			<path style="fill-rule:evenodd;clip-rule:evenodd;fill:url(#SVGID_7_);" d="M6.226,29.525c0,0.725-0.2,1.35-0.6,1.875
				c-0.375,0.524-0.838,0.787-1.388,0.787c-0.6,0-1.175-0.263-1.725-0.787C1.938,30.85,1.65,30.225,1.65,29.525
				c0-0.7,0.288-1.325,0.863-1.875c0.55-0.5,1.125-0.75,1.725-0.75c0.55,0,1.013,0.25,1.388,0.75
				C6.025,28.175,6.226,28.801,6.226,29.525z"/>
			<path style="fill-rule:evenodd;clip-rule:evenodd;fill:#FCF5B4;" d="M5.025,29.563c0,0.575-0.149,1.075-0.45,1.5
				c-0.3,0.426-0.663,0.638-1.088,0.638S2.7,31.488,2.4,31.063c-0.299-0.425-0.45-0.925-0.45-1.5c0-0.574,0.15-1.074,0.45-1.5
				c0.3-0.4,0.663-0.6,1.087-0.6s0.788,0.199,1.088,0.6C4.875,28.488,5.025,28.988,5.025,29.563z"/>
			
				<linearGradient id="SVGID_8_" gradientUnits="userSpaceOnUse" x1="696.7432" y1="-465.4033" x2="701.2427" y2="-465.4033" gradientTransform="matrix(0.2209 0.7167 -0.7167 0.2209 -484.7999 -368.7998)">
				<stop  offset="0" style="stop-color:#EFD43B"/>
				<stop  offset="1" style="stop-color:#C29124"/>
			</linearGradient>
			<path style="fill-rule:evenodd;clip-rule:evenodd;fill:url(#SVGID_8_);" d="M4.726,29.525c0,0.574-0.15,1.074-0.451,1.5
				c-0.299,0.4-0.662,0.6-1.087,0.6c-0.425,0-0.788-0.199-1.087-0.6C1.8,30.6,1.65,30.1,1.65,29.525c0-0.575,0.15-1.075,0.451-1.5
				C2.4,27.6,2.763,27.388,3.188,27.388c0.425,0,0.788,0.212,1.087,0.638C4.575,28.45,4.726,28.95,4.726,29.525z"/>
		</g>
		<g>
			<path style="fill-rule:evenodd;clip-rule:evenodd;fill:#583213;" d="M27.15,32.563c0.125,0.875,0.012,1.65-0.338,2.325
				s-0.85,1.063-1.5,1.162c-0.625,0.101-1.225-0.124-1.8-0.675c-0.55-0.55-0.888-1.262-1.013-2.138
				c-0.149-0.874-0.05-1.649,0.3-2.324c0.375-0.676,0.888-1.063,1.538-1.163s1.25,0.125,1.8,0.675S27.025,31.688,27.15,32.563z"/>
			
				<radialGradient id="SVGID_9_" cx="-664.502" cy="-554.8145" r="6.5905" gradientTransform="matrix(-0.7496 0.0239 0.0163 0.5107 -462.4991 330.4438)" gradientUnits="userSpaceOnUse">
				<stop  offset="0.1961" style="stop-color:#F2D838"/>
				<stop  offset="0.6549" style="stop-color:#AE7E1F"/>
				<stop  offset="0.8157" style="stop-color:#CFA129"/>
				<stop  offset="1" style="stop-color:#C29929"/>
			</radialGradient>
			<path style="fill-rule:evenodd;clip-rule:evenodd;fill:url(#SVGID_9_);" d="M26.55,32.638c0,0.8-0.225,1.487-0.675,2.063
				s-1,0.862-1.649,0.862c-0.676,0-1.325-0.287-1.95-0.862c-0.675-0.6-1.013-1.288-1.013-2.063s0.338-1.463,1.013-2.063
				c0.625-0.55,1.274-0.825,1.95-0.825c0.624,0,1.175,0.287,1.649,0.862C26.325,31.162,26.55,31.838,26.55,32.638z"/>
			<path style="fill-rule:evenodd;clip-rule:evenodd;fill:#FCF5B4;" d="M25.163,32.675c0,0.65-0.175,1.2-0.525,1.65
				S23.863,35,23.362,35c-0.499,0-0.912-0.225-1.237-0.675c-0.35-0.45-0.524-1-0.524-1.65c0-0.624,0.175-1.162,0.524-1.612
				c0.325-0.45,0.738-0.675,1.237-0.675c0.501,0,0.925,0.225,1.275,0.675C24.988,31.488,25.163,32.025,25.163,32.675z"/>
			
				<linearGradient id="SVGID_10_" gradientUnits="userSpaceOnUse" x1="707.7129" y1="-490.2969" x2="712.6554" y2="-490.2969" gradientTransform="matrix(0.22 0.717 -0.717 0.22 -484.7996 -368.7994)">
				<stop  offset="0" style="stop-color:#EFD43B"/>
				<stop  offset="1" style="stop-color:#C29124"/>
			</linearGradient>
			<path style="fill-rule:evenodd;clip-rule:evenodd;fill:url(#SVGID_10_);" d="M24.825,32.638c0,0.625-0.175,1.175-0.525,1.65
				c-0.35,0.449-0.774,0.675-1.274,0.675c-0.475,0-0.888-0.226-1.237-0.675c-0.351-0.45-0.525-1.001-0.525-1.65
				s0.175-1.2,0.525-1.65c0.35-0.449,0.763-0.675,1.237-0.675c0.5,0,0.925,0.226,1.274,0.675
				C24.65,31.463,24.825,32.013,24.825,32.638z"/>
		</g>
	</g>
</g>
<g id="letterx">
	<g>
		
			<use xlink:href="#letterx_1_"  width="8.45" height="11.35" y="-11.35" transform="matrix(0.75 0 0 -0.75 21.7998 17.7002)" style="overflow:visible;"/>
	</g>
</g>
<g id="number5">
	<g>
		
			<use xlink:href="#number5_1_"  width="13.8" height="22.7" y="-22.7" transform="matrix(0.75 0 0 -0.75 10.7998 8.3999)" style="overflow:visible;"/>
	</g>
</g>
<g id="element4">
	<g>
		
			<use xlink:href="#element4_1_"  width="7" height="8.35" y="-8.351" transform="matrix(0.75 0 0 -0.75 4.6001 17)" style="overflow:visible;"/>
	</g>
</g>
</svg>
