<?xml version="1.0" encoding="iso-8859-1"?>
<!-- Generator: Adobe Illustrator 15.1.0, SVG Export Plug-In . SVG Version: 6.00 Build 0)  -->
<!DOCTYPE svg PUBLIC "-//W3C//DTD SVG 1.1//EN" "http://www.w3.org/Graphics/SVG/1.1/DTD/svg11.dtd">
<svg version="1.1" id="flash0.ai" xmlns="http://www.w3.org/2000/svg" xmlns:xlink="http://www.w3.org/1999/xlink" x="0px" y="0px"
	 width="37.05px" height="36.95px" viewBox="0 0 37.05 36.95" style="enable-background:new 0 0 37.05 36.95;" xml:space="preserve"
	>
<g>
	
		<linearGradient id="SVGID_1_" gradientUnits="userSpaceOnUse" x1="420.8906" y1="-709.8472" x2="465.7906" y2="-709.8472" gradientTransform="matrix(1.670379e-005 0.75 -0.75 -7.499999e-004 -513.4001 -314.5004)">
		<stop  offset="0" style="stop-color:#7B4E10"/>
		<stop  offset="0.7961" style="stop-color:#67410C"/>
		<stop  offset="1" style="stop-color:#5B3A0A"/>
	</linearGradient>
	<path style="fill-rule:evenodd;clip-rule:evenodd;fill:url(#SVGID_1_);" d="M37.025,10.175l-0.038,17.625
		c-0.075,3.324-1.225,5.736-3.45,7.236c-2.024,1.35-4.987,1.988-8.887,1.912L9.538,31.1c-1.65-0.475-2.763-1.225-3.337-2.25
		c-0.625-1.075-0.938-2.963-0.938-5.662L1.025,5.825c-0.35-2.125,0.649-3.662,3-4.612C5.775,0.537,8.4,0.162,11.9,0.088L29.787,1.1
		c2.801,0.4,4.763,1.438,5.888,3.113C36.6,5.563,37.051,7.55,37.025,10.175z"/>
	
		<linearGradient id="SVGID_2_" gradientUnits="userSpaceOnUse" x1="689.5" y1="421.8145" x2="729.175" y2="421.8145" gradientTransform="matrix(0.75 0 0 0.75 -513.3999 -314.5)">
		<stop  offset="0" style="stop-color:#BD761B"/>
		<stop  offset="1" style="stop-color:#965F15"/>
	</linearGradient>
	<path style="fill-rule:evenodd;clip-rule:evenodd;fill:url(#SVGID_2_);" d="M7.625,0.35C8.55,0.226,9.975,0.138,11.9,0.088
		L29.787,1.1c1.076,0.15,2.014,0.388,2.813,0.713c0.501,0.225,0.801,0.476,0.9,0.75c0.075,0.274-0.15,0.488-0.675,0.637
		c-1.275,0.35-2.388,0.488-3.338,0.413c-0.85-0.05-1.812-0.288-2.888-0.712c-1.225-0.476-5.324-0.851-12.3-1.125
		c-0.324,0-2.35-0.101-6.075-0.301c-2-0.124-3.5-0.162-4.5-0.112C4.725,0.862,6.025,0.525,7.625,0.35z"/>
	<path style="fill-rule:evenodd;clip-rule:evenodd;fill:#B07219;" d="M31.775,11.675l-0.038,17.625
		c-0.075,3.274-0.813,5.462-2.212,6.563c-1.176,0.925-3.162,1.249-5.963,0.975L4.288,32.6c-1.65-0.475-2.763-1.225-3.337-2.25
		c-0.625-1.075-0.938-2.963-0.938-5.662L0.088,8.863c0-5.5,2-8.013,6-7.538L23.675,2.3C26.425,2.575,28.5,3.625,29.9,5.45
		C31.175,7.075,31.801,9.15,31.775,11.675z"/>
	<g>
		<path style="fill-rule:evenodd;clip-rule:evenodd;fill:#9B6212;" d="M21.688,15.838c0-2.876,0.088-5.326,0.263-7.35
			c0.2-2.4,0.325-4.488,0.375-6.263l0.6,0.038C22.85,4.987,22.813,6.45,22.813,6.65c-0.15,3.874-0.225,6.812-0.225,8.813
			c0,0.1-0.013,1.712-0.038,4.838c-0.024,1.875-0.013,3.262,0.038,4.162c0.05,0.8,0.175,1.774,0.375,2.924
			c0.274,1.476,0.462,2.688,0.563,3.639c0.175,1.65,0.324,3.6,0.449,5.85L23.3,36.801c-0.324-3.301-0.487-5.477-0.487-6.525
			c0-1.301-0.225-2.463-0.675-3.488c-0.45-1.024-0.675-1.862-0.675-2.512c0-0.176,0.037-0.713,0.112-1.613
			S21.688,19.487,21.688,15.838z"/>
		<path style="fill-rule:evenodd;clip-rule:evenodd;fill:#9B6212;" d="M14.188,1.775l0.638,0.037l0.075,1.65
			c0.149,2.25,0.462,4.313,0.938,6.188c0.125-1.875,0.225-4.463,0.3-7.763l0.712,0.038v0.038c-0.175,5.35-0.363,8.725-0.563,10.125
			l-0.225,1.5c-0.25-0.65-0.513-1.638-0.787-2.963C14.726,8,14.363,5.05,14.188,1.775z"/>
		<path style="fill-rule:evenodd;clip-rule:evenodd;fill:#9B6212;" d="M10.888,12.125c-0.125-3.851-0.163-7.112-0.112-9.787
			l0.037-0.75l1.05,0.037L12.5,34.438l-1.013-0.225l-0.225-10.875C11.087,18.162,10.963,14.425,10.888,12.125z"/>
		<path style="fill-rule:evenodd;clip-rule:evenodd;fill:#9B6212;" d="M1.175,7.025L1.288,3.35c0.2-0.325,0.4-0.587,0.6-0.787
			c-0.25,6-0.375,10.112-0.375,12.338c0,7.875-0.075,13.199-0.225,15.975l-0.413-0.6c0.05-1.576,0.063-2.701,0.038-3.375
			C0.813,20.525,0.9,13.899,1.175,7.025z"/>
		<path style="fill-rule:evenodd;clip-rule:evenodd;fill:#9B6212;" d="M6.2,3.838V1.325l0.675,0.038v2.85
			c0,5.8,0.175,15.499,0.525,29.1l-0.75-0.188l-0.113-4.537C6.313,16.712,6.2,8.462,6.2,3.838z"/>
		<path style="fill-rule:evenodd;clip-rule:evenodd;fill:#9B6212;" d="M26.713,10.025c-0.125-1.476-0.275-2.95-0.45-4.426
			c-0.075-0.6-0.125-1.524-0.15-2.775l0.638,0.263c0.1,3.05,0.475,6.8,1.125,11.25c0.375,2.524,0.7,5.625,0.975,9.299
			c0.326,4.352,0.501,8.464,0.525,12.338c-0.399,0.251-0.8,0.438-1.2,0.563L28.1,28.213c-0.049-4.201-0.212-7.563-0.487-10.088
			C27.237,15.35,26.938,12.65,26.713,10.025z"/>
		<path style="fill-rule:evenodd;clip-rule:evenodd;fill:#9B6212;" d="M2.3,3.838L2.375,2.15l0.263-0.225
			C2.713,4,2.75,6.012,2.75,7.963c0,11.875-0.075,19.437-0.225,22.688l-0.038,1.236L2,31.588l0.075-3.563
			C2.075,15.65,2.15,7.588,2.3,3.838z"/>
		<path style="fill-rule:evenodd;clip-rule:evenodd;fill:#9B6212;" d="M4.625,1.325C4.75,1.3,4.95,1.287,5.225,1.287L5.413,3.65
			c0.05,0.975,0.05,4.424,0,10.35c-0.025,6.074-0.025,9.813,0,11.213L5.525,32.9l-0.488-0.113c0.05-3.7,0.062-7.037,0.038-10.012
			c0-0.5-0.05-3.738-0.15-9.713C4.875,9.688,4.8,6.737,4.7,4.213L4.625,1.325z"/>
		<path style="fill-rule:evenodd;clip-rule:evenodd;fill:#9B6212;" d="M30.95,18.988c-0.226-1.726-0.3-3.213-0.226-4.462
			c0.126-1.376,0.188-2.2,0.188-2.475c0.025-0.275,0.038-1.863,0.038-4.763c0.55,1.325,0.825,2.788,0.825,4.388l-0.038,12.862
			C31.238,21.188,30.975,19.337,30.95,18.988z"/>
		<path style="fill-rule:evenodd;clip-rule:evenodd;fill:#9B6212;" d="M8,10.475C7.825,6.575,7.725,3.55,7.7,1.4l0.638,0.037
			l0.487,16.088C8.85,18.575,9.125,24,9.65,33.801l-0.675-0.15l-0.262-6.188C8.588,24.238,8.351,18.575,8,10.475z"/>
		<polygon style="fill-rule:evenodd;clip-rule:evenodd;fill:#9B6212;" points="3.35,1.588 3.95,1.4 4.138,32.563 3.463,32.338 		"/>
		<path style="fill-rule:evenodd;clip-rule:evenodd;fill:#9B6212;" d="M29.75,14.863c-0.35-2.775-0.525-5.888-0.525-9.337V4.738
			c0.426,0.375,0.763,0.788,1.013,1.237l0.038,5.551c0,1.65,0.1,4.512,0.3,8.588c0.175,4.099,0.263,6.55,0.263,7.35
			c0,0.85,0.149,2.649,0.449,5.4c-0.199,0.724-0.437,1.313-0.712,1.762c-0.25-1.525-0.388-2.6-0.413-3.225
			c-0.024-0.9-0.024-3.213,0-6.938C30.213,20.688,30.075,17.488,29.75,14.863z"/>
		<path style="fill-rule:evenodd;clip-rule:evenodd;fill:#9B6212;" d="M12.725,1.7l0.525,0.038c-0.05,5.399,0.013,8.725,0.188,9.975
			c0.025,0.2,0.275,1.799,0.75,4.799c0.275,1.8,0.438,3.451,0.487,4.951c0.051,1.249,0.138,2.924,0.263,5.025
			c0.125,1.849,0.188,3.111,0.188,3.787l-0.075,4.688l-0.975-0.188L14,31.213c0-1.101,0.138-2.051,0.413-2.85
			c0.15-0.401,0.012-2.139-0.413-5.213c-0.55-3.851-0.912-7.038-1.087-9.563c-0.125-2.1-0.188-5.1-0.188-9V1.7z"/>
		<path style="fill-rule:evenodd;clip-rule:evenodd;fill:#9B6212;" d="M24.537,2.412l0.563,0.15v4.463c0,1.675,0.25,4.125,0.75,7.35
			c0.501,3.2,0.75,5.875,0.75,8.025c0,3.725-0.062,8.549-0.188,14.475c-0.149,0.025-0.375,0.037-0.675,0.037
			c0.101-3.925,0.125-7.574,0.075-10.949c-0.05-2.801-0.088-4.288-0.112-4.463c-0.15-0.7-0.313-2.088-0.487-4.162
			c-0.275-3.5-0.45-6.025-0.525-7.576C24.612,7.938,24.563,5.488,24.537,2.412z"/>
		<path style="fill-rule:evenodd;clip-rule:evenodd;fill:#9B6212;" d="M17.45,7.775l0.375-5.813L18.388,2
			c-0.425,7.15-0.938,13.075-1.538,17.775c-0.275,2.25-0.387,3.987-0.337,5.213c0.024,0.75,0.1,2.012,0.225,3.787
			c0.025,1.049,0.476,3.338,1.351,6.861l-1.013-0.225c-0.575-2.649-0.963-4.65-1.163-6c-0.3-1.975-0.437-3.75-0.413-5.324
			c0.025-1.825,0.287-4.075,0.788-6.75C16.862,14.288,17.25,11.101,17.45,7.775z"/>
		<path style="fill-rule:evenodd;clip-rule:evenodd;fill:#9B6212;" d="M18.35,19.213c0.45-1.875,0.763-3.188,0.938-3.938
			c0.301-1.25,0.45-4.063,0.45-8.438c0-2.2,0.025-3.788,0.075-4.763l1.013,0.076c-0.05,2.549-0.075,5.737-0.075,9.563
			c0,0.75,0,1.925,0,3.525c0,1.35-0.075,2.3-0.225,2.85c-0.2,0.8-0.413,1.838-0.638,3.111c-0.25,1.5-0.375,2.588-0.375,3.264
			c0,0.499-0.038,1.263-0.112,2.287c0,0.824,0.149,1.313,0.449,1.463c0.825,0.449,1.363,0.888,1.613,1.313
			c0.75,1.225,1.125,3.35,1.125,6.375v0.713l-0.676-0.15l-0.337-3c-0.3-1.801-0.612-2.876-0.938-3.225
			c-0.375-0.101-0.675-0.275-0.9-0.525c-0.475-0.05-0.8-0.138-0.975-0.264c-0.274-0.225-0.413-1.262-0.413-3.111
			c0-1.051-0.087-2.188-0.262-3.412C18.013,22.3,18.101,21.063,18.35,19.213z"/>
	</g>
	
		<linearGradient id="SVGID_3_" gradientUnits="userSpaceOnUse" x1="717.8604" y1="-381.9961" x2="769.5042" y2="-381.9961" gradientTransform="matrix(0.3812 0.6459 -0.6459 0.3812 -513.4 -314.5)">
		<stop  offset="0" style="stop-color:#110C0E;stop-opacity:0"/>
		<stop  offset="1" style="stop-color:#110C0E;stop-opacity:0.3686"/>
	</linearGradient>
	<path style="fill-rule:evenodd;clip-rule:evenodd;fill:url(#SVGID_3_);" d="M31.775,11.675l-0.038,17.625
		c-0.075,3.274-0.813,5.462-2.212,6.563c-1.176,0.925-3.162,1.249-5.963,0.975L4.288,32.6c-1.65-0.475-2.763-1.225-3.337-2.25
		c-0.625-1.075-0.938-2.963-0.938-5.662L0.088,8.863c0-5.5,2-8.013,6-7.538L23.675,2.3C26.425,2.575,28.5,3.625,29.9,5.45
		C31.175,7.075,31.801,9.15,31.775,11.675z"/>
	<path style="fill-rule:evenodd;clip-rule:evenodd;fill:#AC711C;" d="M31.737,29.301c-0.075,3.274-0.813,5.462-2.212,6.563
		c-1.176,0.925-3.162,1.249-5.963,0.975L11.15,34.137c2.375,0.375,5.949,1.001,10.725,1.875c5.025,0.926,7.987-0.637,8.888-4.688
		c0.399-1.774,0.6-4.924,0.6-9.449c0-4.925,0.138-8.325,0.413-10.2L31.737,29.301z"/>
	<path style="fill-rule:evenodd;clip-rule:evenodd;fill:#D48F2A;" d="M12.256,1.662c-0.363-0.013-0.707-0.025-1.031-0.037
		c-3.8-0.101-6.4,0.262-7.8,1.088C1.8,3.663,0.813,5.412,0.463,7.963c-0.2,1.45-0.338,3.625-0.413,6.525l0.038-5.625
		c0-5.5,2-8.013,6-7.538L12.256,1.662z"/>
	<path style="fill-rule:evenodd;clip-rule:evenodd;fill:#D48F2A;" d="M4.813,1.363C3.563,1.913,2.925,2.188,2.9,2.188
		C2.775,2.262,2.575,2.5,2.3,2.9L1.362,3.2l0.825-0.975c0.75-0.7,1.688-1.249,2.813-1.65c1.225-0.425,2.938-0.625,5.138-0.6
		c1.1,0,2.075,0.05,2.925,0.15c-0.875,0-1.875,0.037-3,0.113C7.838,0.438,6.088,0.813,4.813,1.363z"/>
	<path style="fill-rule:evenodd;clip-rule:evenodd;fill:#B5781D;" d="M29.675,11.713L29.6,24.088
		c-0.049,2.149-0.688,3.587-1.912,4.313c-1.05,0.6-2.787,0.813-5.213,0.637L5.638,26.563c-1.45-0.325-2.425-0.824-2.925-1.5
		c-0.55-0.725-0.825-1.976-0.825-3.75L1.963,9.838c0-3.6,1.75-5.25,5.25-4.951L22.55,5.525c2.4,0.175,4.226,0.874,5.476,2.1
		C29.125,8.7,29.675,10.063,29.675,11.713z"/>
	
		<linearGradient id="SVGID_4_" gradientUnits="userSpaceOnUse" x1="-452.8052" y1="705.2168" x2="-426.0052" y2="705.2168" gradientTransform="matrix(2.798508e-005 -0.75 0.75 -7.499999e-004 -513.4001 -314.4999)">
		<stop  offset="0" style="stop-color:#774A0F"/>
		<stop  offset="1" style="stop-color:#492E08"/>
	</linearGradient>
	<path style="fill-rule:evenodd;clip-rule:evenodd;fill:url(#SVGID_4_);" d="M29.3,11.45l-0.075,12.187
		c-0.049,2.126-0.688,3.551-1.912,4.275c-1,0.6-2.725,0.813-5.175,0.639L5.413,26.074c-1.45-0.324-2.425-0.812-2.925-1.461
		C1.963,23.888,1.7,22.65,1.7,20.9L1.775,9.613c0-3.575,1.737-5.212,5.212-4.913L22.25,5.3c2.375,0.2,4.175,0.887,5.4,2.063
		C28.75,8.438,29.3,9.8,29.3,11.45z"/>
	<path style="fill-rule:evenodd;clip-rule:evenodd;fill:#956115;" d="M3.388,8.675C3.438,7.149,3.763,6,4.362,5.225
		c0.65-0.25,1.525-0.337,2.625-0.262L22.25,5.6c2.375,0.2,4.175,0.888,5.4,2.063c1.1,1.075,1.649,2.425,1.649,4.051L29.225,23.9
		c-0.024,1.5-0.324,2.625-0.899,3.375c-1.075,0.375-2.588,0.486-4.538,0.338L7.063,25.176c-1.45-0.326-2.425-0.813-2.925-1.463
		C3.612,22.987,3.35,21.75,3.35,20L3.388,8.675z"/>
	<path style="fill-rule:evenodd;clip-rule:evenodd;fill:#B07219;" d="M3.388,8.412c0.05-1.524,0.375-2.675,0.975-3.449
		C5.087,4.688,5.963,4.6,6.987,4.7L22.25,5.3c2.375,0.2,4.175,0.887,5.4,2.063C28.75,8.438,29.3,9.8,29.3,11.45l-0.075,12.187
		c-0.024,1.451-0.324,2.576-0.899,3.375c-0.976,0.351-2.487,0.463-4.538,0.338L7.063,24.875c-1.45-0.325-2.425-0.813-2.925-1.463
		C3.612,22.688,3.35,21.45,3.35,19.699L3.388,8.412z"/>
	<path style="fill-rule:evenodd;clip-rule:evenodd;fill:#FCF5E4;" d="M3.388,8.412c0.05-1.524,0.375-2.675,0.975-3.449
		C5.087,4.688,5.963,4.6,6.987,4.7L22.25,5.3c2.375,0.2,4.175,0.887,5.4,2.063C28.75,8.438,29.3,9.8,29.3,11.45l-0.075,12.187
		c-0.024,1.451-0.324,2.576-0.899,3.375c-0.976,0.351-2.487,0.463-4.538,0.338L7.063,24.875c-1.45-0.325-2.425-0.813-2.925-1.463
		C3.612,22.688,3.35,21.45,3.35,19.699L3.388,8.412z"/>
	
		<radialGradient id="SVGID_5_" cx="734.7461" cy="386.6807" r="25.958" gradientTransform="matrix(0.748 0.0552 0.0495 -0.6714 -553.8965 234.3388)" gradientUnits="userSpaceOnUse">
		<stop  offset="0" style="stop-color:#110C0E;stop-opacity:0"/>
		<stop  offset="0.9137" style="stop-color:#110C0E;stop-opacity:0.2784"/>
		<stop  offset="1" style="stop-color:#110C0E;stop-opacity:0.349"/>
	</radialGradient>
	<path style="fill-rule:evenodd;clip-rule:evenodd;fill:url(#SVGID_5_);" d="M3.388,8.412c0.05-1.524,0.375-2.675,0.975-3.449
		C5.087,4.688,5.963,4.6,6.987,4.7L22.25,5.3c2.375,0.2,4.175,0.887,5.4,2.063C28.75,8.438,29.3,9.8,29.3,11.45l-0.075,12.187
		c-0.024,1.451-0.324,2.576-0.899,3.375c-0.976,0.351-2.487,0.463-4.538,0.338L7.063,24.875c-1.45-0.325-2.425-0.813-2.925-1.463
		C3.612,22.688,3.35,21.45,3.35,19.699L3.388,8.412z"/>
	
		<linearGradient id="SVGID_6_" gradientUnits="userSpaceOnUse" x1="-375.2988" y1="752.8877" x2="-366.7679" y2="752.8877" gradientTransform="matrix(0.0857 -0.7451 0.7451 0.0857 -513.4001 -314.4998)">
		<stop  offset="0" style="stop-color:#000000;stop-opacity:0.2392"/>
		<stop  offset="1" style="stop-color:#000000;stop-opacity:0"/>
	</linearGradient>
	<path style="fill-rule:evenodd;clip-rule:evenodd;fill:url(#SVGID_6_);" d="M3.35,19.775h25.913l-0.038,3.861
		c-0.024,1.451-0.324,2.576-0.899,3.375c-0.976,0.351-2.487,0.463-4.538,0.338L7.063,24.875c-1.425-0.301-2.388-0.775-2.888-1.426
		C3.65,22.75,3.375,21.525,3.35,19.775z"/>
	<path style="fill-rule:evenodd;clip-rule:evenodd;fill:#503411;" d="M6.8,29.412c0.125,0.8,0.025,1.5-0.3,2.1
		C6.175,32.138,5.738,32.5,5.188,32.6c-0.55,0.076-1.063-0.138-1.537-0.637c-0.5-0.5-0.801-1.15-0.9-1.951
		c-0.1-0.774,0-1.474,0.3-2.1c0.3-0.625,0.725-0.975,1.275-1.049c0.55-0.101,1.075,0.1,1.575,0.6
		C6.375,27.962,6.675,28.612,6.8,29.412z"/>
	
		<radialGradient id="SVGID_7_" cx="-678.73" cy="-479.1567" r="5.7152" gradientTransform="matrix(-0.7497 0.0229 0.0164 0.538 -494.5431 302.5054)" gradientUnits="userSpaceOnUse">
		<stop  offset="0.1961" style="stop-color:#ECD723"/>
		<stop  offset="0.6549" style="stop-color:#A38012"/>
		<stop  offset="0.8157" style="stop-color:#C4A119"/>
		<stop  offset="1" style="stop-color:#B8991C"/>
	</radialGradient>
	<path style="fill-rule:evenodd;clip-rule:evenodd;fill:url(#SVGID_7_);" d="M2.563,27.613c0.55-0.501,1.113-0.75,1.688-0.75
		c0.575,0,1.05,0.249,1.425,0.75c0.4,0.523,0.601,1.149,0.601,1.875c0,0.724-0.2,1.35-0.601,1.875
		C5.275,31.887,4.8,32.15,4.25,32.15c-0.575,0-1.137-0.264-1.688-0.787c-0.6-0.551-0.9-1.176-0.9-1.875
		C1.663,28.787,1.963,28.163,2.563,27.613z"/>
	<path style="fill-rule:evenodd;clip-rule:evenodd;fill:#FAF3B1;" d="M2.413,28.025c0.3-0.4,0.663-0.6,1.087-0.6
		s0.8,0.199,1.125,0.6c0.3,0.425,0.45,0.925,0.45,1.5c0,0.574-0.15,1.075-0.45,1.5C4.3,31.45,3.925,31.662,3.5,31.662
		s-0.787-0.212-1.087-0.637s-0.45-0.926-0.45-1.5C1.963,28.95,2.112,28.45,2.413,28.025z"/>
	
		<linearGradient id="SVGID_8_" gradientUnits="userSpaceOnUse" x1="638.7549" y1="-523.2207" x2="643.2544" y2="-523.2207" gradientTransform="matrix(0.2209 0.7167 -0.7167 0.2209 -513.3995 -314.5)">
		<stop  offset="0" style="stop-color:#E9D32A"/>
		<stop  offset="1" style="stop-color:#B79316"/>
	</linearGradient>
	<path style="fill-rule:evenodd;clip-rule:evenodd;fill:url(#SVGID_8_);" d="M2.112,27.988c0.325-0.426,0.7-0.639,1.125-0.639
		c0.426,0,0.788,0.213,1.088,0.639c0.3,0.424,0.45,0.925,0.45,1.5c0,0.574-0.15,1.074-0.45,1.5c-0.3,0.399-0.662,0.6-1.088,0.6
		c-0.425,0-0.8-0.2-1.125-0.6c-0.3-0.426-0.45-0.926-0.45-1.5C1.663,28.913,1.813,28.412,2.112,27.988z"/>
	<path style="fill-rule:evenodd;clip-rule:evenodd;fill:#503411;" d="M27.162,32.525c0.15,0.874,0.051,1.65-0.3,2.324
		c-0.375,0.676-0.887,1.063-1.537,1.162c-0.625,0.101-1.212-0.124-1.763-0.674c-0.55-0.551-0.9-1.263-1.05-2.139
		c-0.125-0.874-0.013-1.648,0.337-2.324c0.351-0.676,0.851-1.063,1.5-1.162c0.65-0.101,1.251,0.124,1.801,0.674
		C26.7,30.962,27.037,31.675,27.162,32.525z"/>
	
		<radialGradient id="SVGID_9_" cx="-704.9922" cy="-483.6187" r="6.5905" gradientTransform="matrix(-0.7496 0.0239 0.0163 0.5107 -493.9604 295.0142)" gradientUnits="userSpaceOnUse">
		<stop  offset="0.1961" style="stop-color:#ECD723"/>
		<stop  offset="0.6549" style="stop-color:#A38012"/>
		<stop  offset="0.8157" style="stop-color:#C4A119"/>
		<stop  offset="1" style="stop-color:#B8991C"/>
	</radialGradient>
	<path style="fill-rule:evenodd;clip-rule:evenodd;fill:url(#SVGID_9_);" d="M26.563,32.637c0,0.801-0.225,1.476-0.675,2.025
		c-0.45,0.575-1,0.863-1.65,0.863c-0.675,0-1.325-0.288-1.95-0.863c-0.675-0.6-1.012-1.287-1.012-2.063
		c0-0.774,0.337-1.463,1.012-2.063c0.625-0.55,1.275-0.824,1.95-0.824c0.65,0,1.2,0.287,1.65,0.861
		C26.338,31.149,26.563,31.838,26.563,32.637z"/>
	<path style="fill-rule:evenodd;clip-rule:evenodd;fill:#FAF3B1;" d="M25.175,32.637c0,0.65-0.175,1.201-0.524,1.65
		c-0.325,0.451-0.737,0.676-1.238,0.676c-0.5,0-0.925-0.225-1.274-0.676c-0.351-0.449-0.525-1-0.525-1.65
		c0-0.624,0.175-1.162,0.525-1.611c0.35-0.451,0.774-0.676,1.274-0.676c0.501,0,0.913,0.225,1.238,0.676
		C25,31.475,25.175,32.013,25.175,32.637z"/>
	
		<linearGradient id="SVGID_10_" gradientUnits="userSpaceOnUse" x1="649.6572" y1="-548.0278" x2="654.5997" y2="-548.0278" gradientTransform="matrix(0.22 0.717 -0.717 0.22 -513.4002 -314.4996)">
		<stop  offset="0" style="stop-color:#E9D32A"/>
		<stop  offset="1" style="stop-color:#B79316"/>
	</linearGradient>
	<path style="fill-rule:evenodd;clip-rule:evenodd;fill:url(#SVGID_10_);" d="M24.838,32.6c0,0.65-0.175,1.201-0.525,1.65
		c-0.35,0.449-0.762,0.676-1.237,0.676c-0.5,0-0.925-0.227-1.275-0.676c-0.35-0.449-0.524-1-0.524-1.65
		c0-0.649,0.175-1.199,0.524-1.65c0.351-0.449,0.775-0.674,1.275-0.674c0.476,0,0.888,0.225,1.237,0.674
		C24.663,31.4,24.838,31.95,24.838,32.6z"/>
	<g>
		
			<radialGradient id="SVGID_11_" cx="733.1865" cy="-378.3354" r="28.7272" gradientTransform="matrix(0.3916 0.6396 0.6396 -0.3916 -29.4046 -610.8245)" gradientUnits="userSpaceOnUse">
			<stop  offset="0" style="stop-color:#6EA42E"/>
			<stop  offset="0.3137" style="stop-color:#6CA12D"/>
			<stop  offset="0.5686" style="stop-color:#66972A"/>
			<stop  offset="0.8039" style="stop-color:#5A8626"/>
			<stop  offset="1" style="stop-color:#4D7220"/>
		</radialGradient>
		<path style="fill-rule:evenodd;clip-rule:evenodd;fill:url(#SVGID_11_);" d="M21.425,17.488L22.4,17.6v0.9l-0.976-0.075V17.488z
			 M21.425,18.575L22.4,18.65v0.938l-0.976-0.113V18.575z M21.425,16.438L22.4,16.55v0.899l-0.976-0.112V16.438z M21.425,15.387
			l0.976,0.076V16.4l-0.976-0.113V15.387z M24.65,16.625l-0.976-0.113v-0.899l0.976,0.075V16.625z M24.8,15.725l0.976,0.076v0.938
			L24.8,16.625V15.725z M23.525,16.662v0.9L22.55,17.45V16.55L23.525,16.662z M22.55,15.5l0.976,0.075v0.938L22.55,16.4V15.5z
			 M22.55,18.688l0.976,0.075v0.937l-0.976-0.111V18.688z M22.55,17.6l0.976,0.113v0.9l-0.976-0.076V17.6z M26.9,17v0.9
			l-0.976-0.076v-0.938L26.9,17z M25.925,15.838l0.976,0.074v0.938l-0.976-0.112V15.838z M27.05,18.088l0.976,0.074V19.1
			l-0.976-0.112V18.088z M26.9,19.137v0.9l-0.976-0.111v-0.9L26.9,19.137z M25.925,17.975L26.9,18.05v0.938l-0.976-0.113V17.975z
			 M28.025,19.25v0.9l-0.976-0.113v-0.9L28.025,19.25z M27.05,17l0.976,0.113v0.899l-0.976-0.075V17z M26.9,21.238v0.938
			l-0.976-0.113v-0.9L26.9,21.238z M25.925,20.074l0.976,0.113v0.9l-0.976-0.076V20.074z M25.775,20.975L24.8,20.9v-0.938
			l0.976,0.111V20.975z M27.05,22.324l0.976,0.113v0.9l-0.976-0.076V22.324z M25.925,23.262l0.976,0.113v0.938l-0.976-0.113V23.262z
			 M25.925,22.213l0.976,0.111v0.9l-0.976-0.074V22.213z M28.025,23.488v0.938l-0.976-0.113v-0.9L28.025,23.488z M28.025,21.35
			v0.938l-0.976-0.111v-0.9L28.025,21.35z M25.925,24.35l0.976,0.113v0.9l-0.976-0.113V24.35z M25.775,25.25L24.8,25.137v-0.898
			l0.976,0.074V25.25z M24.65,20.863l-0.976-0.076V19.85l0.976,0.113V20.863z M23.525,20.75l-0.976-0.074v-0.938l0.976,0.111V20.75z
			 M22.4,20.637l-0.976-0.074v-0.938l0.976,0.113V20.637z M22.55,20.824l0.976,0.076v0.938l-0.976-0.113V20.824z M22.4,21.725
			l-0.976-0.111v-0.938l0.976,0.111V21.725z M23.525,24.088v0.938l-0.976-0.113v-0.9L23.525,24.088z M22.55,22.926l0.976,0.111v0.9
			l-0.976-0.074V22.926z M22.55,22.775v-0.9l0.976,0.113v0.898L22.55,22.775z M22.4,23.824l-0.976-0.074v-0.938l0.976,0.113V23.824z
			 M24.65,24.199v0.938l-0.976-0.111v-0.9L24.65,24.199z M22.4,22.775l-0.976-0.113v-0.9l0.976,0.113V22.775z M21.425,23.9
			l0.976,0.074v0.938l-0.976-0.111V23.9z"/>
	</g>
	<g>
		<path style="fill-rule:evenodd;clip-rule:evenodd;fill:#3E423C;" d="M17.112,9.088v1.5l-1.274-0.15V8.975L17.112,9.088z
			 M14.338,8.825l1.274,0.113v1.5l-1.274-0.15V8.825z M17.112,12.275l-1.274-0.113V10.7l1.274,0.113V12.275z M15.612,12.125
			l-1.274-0.113V10.55l1.274,0.112V12.125z M17.112,12.537V14l-1.274-0.15v-1.462L17.112,12.537z M17.112,14.225v1.463l-1.274-0.113
			v-1.462L17.112,14.225z M15.612,13.85l-1.274-0.15v-1.462l1.274,0.149V13.85z M12.875,10.363l1.275,0.149v1.462l-1.275-0.112
			V10.363z M11.413,11.713v-1.5l1.238,0.15v1.462L11.413,11.713z M14.338,17.375l1.274,0.113v1.5l-1.274-0.15V17.375z M14.338,15.65
			l1.274,0.15v1.462l-1.274-0.112V15.65z M15.838,15.8l1.274,0.149v1.462L15.838,17.3V15.8z M15.838,17.525l1.274,0.112v1.5
			l-1.274-0.149V17.525z M17.112,19.363v1.461l-1.274-0.111V19.25L17.112,19.363z M15.612,19.213v1.463l-1.274-0.113V19.1
			L15.612,19.213z M14.338,13.963l1.274,0.112v1.462l-1.274-0.112V13.963z M15.838,22.662l1.274,0.113v1.5l-1.274-0.15V22.662z
			 M15.612,24.088l-1.274-0.113v-1.463l1.274,0.113V24.088z M15.838,22.4v-1.463l1.274,0.15v1.463L15.838,22.4z M15.612,22.4
			l-1.274-0.15v-1.463l1.274,0.15V22.4z"/>
	</g>
	
		<radialGradient id="SVGID_12_" cx="394.2354" cy="-691.7231" r="22.1603" gradientTransform="matrix(0.0228 0.7497 0.6232 0.0338 437.5475 -262.8532)" gradientUnits="userSpaceOnUse">
		<stop  offset="0" style="stop-color:#DDA11C"/>
		<stop  offset="0.2353" style="stop-color:#DA9F1B"/>
		<stop  offset="0.4275" style="stop-color:#D1981A"/>
		<stop  offset="0.6039" style="stop-color:#C18D17"/>
		<stop  offset="0.7686" style="stop-color:#AB7D13"/>
		<stop  offset="0.9255" style="stop-color:#90680E"/>
		<stop  offset="1" style="stop-color:#805D0B"/>
	</radialGradient>
	<polygon style="fill-rule:evenodd;clip-rule:evenodd;fill:url(#SVGID_12_);" points="3.838,15.425 5.825,15.613 5.825,13.25 
		8.375,13.512 8.375,15.875 10.325,16.063 10.325,19.137 8.375,18.95 8.375,21.313 5.825,21.051 5.825,18.688 3.838,18.5 	"/>
</g>
</svg>
