<?xml version="1.0" encoding="iso-8859-1"?>
<!-- Generator: Adobe Illustrator 15.1.0, SVG Export Plug-In . SVG Version: 6.00 Build 0)  -->
<!DOCTYPE svg PUBLIC "-//W3C//DTD SVG 1.1//EN" "http://www.w3.org/Graphics/SVG/1.1/DTD/svg11.dtd">
<svg version="1.1" id="flash0.ai" xmlns="http://www.w3.org/2000/svg" xmlns:xlink="http://www.w3.org/1999/xlink" x="0px" y="0px"
	 width="36.15px" height="40.95px" viewBox="0 0 36.15 40.95" style="enable-background:new 0 0 36.15 40.95;" xml:space="preserve"
	>
<symbol  id="arm_x5F_left" viewBox="-4.8 -6.328 9.668 12.67">
	<g id="Layer_1_16_">
		<path style="fill-rule:evenodd;clip-rule:evenodd;fill:#BA7763;" d="M0.35-3L1.1-2.85C1.667-2.784,2.067-2.8,2.3-2.9
			c0.367-0.167,0.9-0.566,1.6-1.2c0.733-0.7,1.05-1.15,0.95-1.35c-0.2-0.3-0.733-0.1-1.6,0.6L4-6.05c-1-0.333-1.783-0.367-2.35-0.1
			c-0.367,0.133-0.667,0.4-0.9,0.8L0.45-4.8L0.35-3z"/>
		<path style="fill-rule:evenodd;clip-rule:evenodd;fill:#9E6554;" d="M1.45-3.9l0.35-1C2.233-5.6,2.967-5.983,4-6.05
			c-1-0.333-1.783-0.367-2.35-0.1c-0.367,0.133-0.667,0.4-0.9,0.8L0.45-4.8v0.55L1.45-3.9z"/>
		<path style="fill-rule:evenodd;clip-rule:evenodd;fill:#FFBDBA;" d="M-4.5,2.65L-4.8,4.1C-4,6.033-3.017,6.716-1.85,6.15
			c1-0.434,1.667-1.3,2-2.6c0.667-2.6,1.9-5.067,3.7-7.4c0.033-0.033-0.184-0.167-0.65-0.4c-0.967-0.567-1.867-0.6-2.7-0.1
			c-0.067,0.367-0.217,0.8-0.45,1.3c-0.5,1.033-1.216,1.9-2.15,2.6C-3.3,0.45-4.1,1.483-4.5,2.65z"/>
		<path style="fill-rule:evenodd;clip-rule:evenodd;fill:#E8A09B;" d="M-3.6,1l-0.3,1.85c0,0.133,0.3,0.483,0.9,1.05
			c0.6,0.533,1.283,1.066,2.05,1.6c0.567-0.633,0.934-1.284,1.1-1.95c0.267-1.167,0.783-2.5,1.55-4C1.233-0.383,0.9-0.567,0.7-1
			C0.533-1.434,0.55-1.967,0.75-2.6c0.3-0.8,0.9-1.45,1.8-1.95c-0.466-0.133-0.95-0.133-1.45,0l-0.6,0.2
			c-0.067,0.367-0.217,0.8-0.45,1.3c-0.5,1.033-1.216,1.9-2.15,2.6C-2.533-0.117-3.033,0.367-3.6,1z"/>
	</g>
</symbol>
<symbol  id="arm_x5F_right" viewBox="-5.073 -7.75 10.1 15.466">
	<g id="Layer_1_9_">
		<path style="fill-rule:evenodd;clip-rule:evenodd;fill:#BA7763;" d="M-0.2-3.7l0.95,0.15c0.667,0.033,1.133-0.017,1.4-0.15
			c0.4-0.167,1-0.667,1.8-1.5C4.783-6.066,5.133-6.617,5-6.85C4.767-7.183,4.15-6.9,3.15-6L4-7.5c-1.233-0.333-2.184-0.333-2.85,0
			c-0.4,0.2-0.733,0.534-1,1l-0.3,0.65L-0.2-3.7z"/>
		<path style="fill-rule:evenodd;clip-rule:evenodd;fill:#9E6554;" d="M1.05-4.8L1.45-6C1.95-6.867,2.8-7.367,4-7.5
			c-1.233-0.333-2.184-0.333-2.85,0c-0.4,0.2-0.733,0.534-1,1l-0.3,0.65v0.7L1.05-4.8z"/>
		<path style="fill-rule:evenodd;clip-rule:evenodd;fill:#E8A09B;" d="M-4.65,1.95c-0.399,1.065-0.516,2.065-0.35,3L-4.65,6l4.3-3.5
			l0.15-7.1c-0.065,0.896-0.723,1.945-1.975,3.15C-3.428-0.246-4.253,0.888-4.65,1.95z"/>
		<path style="fill-rule:evenodd;clip-rule:evenodd;fill:#E8A09B;" d="M2.3,0.625C2.063-0.056,1.813-0.564,1.55-0.9
			c-0.497,1.634-0.931,3.317-1.3,5.05l-1,2.7c0.433-0.033,1.083-0.533,1.95-1.5c0.528-0.612,0.903-1.387,1.125-2.325
			C2.551,2.099,2.543,1.299,2.3,0.625z"/>
		<path style="fill-rule:evenodd;clip-rule:evenodd;fill:#FFBDBA;" d="M-4.65,6c1.333,2.067,2.784,2.267,4.35,0.6
			C1.1,5.1,1.75,3.567,1.65,2C1.583,0.733,1.9-0.816,2.6-2.65C2.933-3.55,3.283-4.333,3.65-5l-0.8-0.35
			c-0.566-0.233-1.566-0.4-3-0.5c-0.033,0.6-0.15,1.3-0.35,2.1c-0.434,1.6-1.1,2.9-2,3.9c-1.2,1.3-1.917,2.667-2.15,4.1V6z"/>
	</g>
</symbol>
<symbol  id="body1" viewBox="-16.174 -18.63 20.797 27.798">
	<g id="Layer_1_12_">
		<path style="fill-rule:evenodd;clip-rule:evenodd;fill:#FFBDBA;" d="M3.15-0.4c-1.234-0.427-2.034-1.193-2.4-2.3
			c-0.367-1.102-0.333-3.035,0.1-5.8c0.233-2.7-0.283-4.683-1.55-5.95c-1.233-1.233-2.7-2.15-4.4-2.75
			c-1.9-0.667-3.75-0.783-5.55-0.35c1.733-0.767,3.583-1.067,5.55-0.9c1.583,0.137,2.974,0.57,4.175,1.3
			c-2.75-1.768-5.891-1.952-9.425-0.55c-4.133,1.7-6.066,4.983-5.8,9.85c0.2,3.2,1.633,6.233,4.3,9.1c1.367,1.433,2.7,2.55,4,3.35
			C0.934,12.053,4.601,10.386,3.15-0.4z"/>
		<path style="fill-rule:evenodd;clip-rule:evenodd;fill:#E8A09B;" d="M3.15-0.4c0.46,0.172,0.835,0.139,1.125-0.1
			c0.292-0.234,0.4-0.351,0.325-0.35c-0.269-0.415-0.502-0.715-0.7-0.9C3.567-2.05,3.217-2.767,2.85-3.9
			C2.65-4.567,2.833-6.35,3.4-9.25c0.1-3-1.083-5.45-3.55-7.35c-0.089-0.069-0.181-0.135-0.275-0.2l-0.5-0.35
			c-1.201-0.73-2.593-1.164-4.175-1.3c-1.967-0.167-3.816,0.133-5.55,0.9c1.8-0.434,3.65-0.317,5.55,0.35
			c1.7,0.6,3.167,1.517,4.4,2.75c1.267,1.267,1.784,3.25,1.55,5.95c-0.433,2.765-0.467,4.698-0.1,5.8
			C1.116-1.593,1.916-0.827,3.15-0.4z"/>
	</g>
</symbol>
<symbol  id="ear_x5F_left" viewBox="-5.35 -3.685 10.7 7.46">
	<g id="Layer_1_15_">
		<path style="fill-rule:evenodd;clip-rule:evenodd;fill:#E8A09B;" d="M5.3,0.95c0.1-0.466,0.05-1-0.15-1.6
			C4.683-1.85,3.633-2.8,2-3.5C0.7-4.067-0.917-3.333-2.85-1.3l-2.5,3.2l0.75,0.85c0.8,0.566,1.933,0.9,3.4,1
			C1,3.883,2.75,3.467,4.05,2.5C4.683,2,5.1,1.483,5.3,0.95z"/>
	</g>
</symbol>
<symbol  id="ear_x5F_right" viewBox="-7.6 -5.005 15.156 10.056">
	<g id="Layer_1_7_">
		<path style="fill-rule:evenodd;clip-rule:evenodd;fill:#FFBDBA;" d="M6.65,3.45c0.4-0.533,0.617-1.233,0.65-2.1
			C7.367-0.417,6.517-2.2,4.75-4C3.35-5.434,0.867-5.333-2.7-3.7c-1.767,0.8-3.4,1.75-4.9,2.85c0,0.4,0.184,0.883,0.55,1.45
			c0.7,1.133,1.966,2.15,3.8,3.05c2.8,1.367,5.283,1.733,7.45,1.1C5.3,4.45,6.117,4.017,6.65,3.45z"/>
		<path style="fill-rule:evenodd;clip-rule:evenodd;fill:#E39C8C;" d="M7.25,1.85c0.2-1.367-0.183-2.767-1.15-4.2
			C5.633-2.684,5.1-2.9,4.5-3C2.067-3.434-0.017-3.117-1.75-2.05l-1.9,1.75c0.066,0.333,0.3,0.717,0.7,1.15
			c0.867,0.867,2.233,1.534,4.1,2C3.883,3.517,5.917,3.183,7.25,1.85z"/>
		<path style="fill-rule:evenodd;clip-rule:evenodd;fill:#BA7763;" d="M1.15,2.85c2.733,0.667,4.767,0.333,6.1-1l0.05-0.8
			C5.7,2.05,3.717,2.367,1.35,2c-2.434-0.367-4.1-1.117-5-2.25c0,0.3,0.267,0.7,0.8,1.2C-1.983,1.75-0.65,2.383,1.15,2.85z"/>
		<path style="fill-rule:evenodd;clip-rule:evenodd;fill:#FFBDBA;" d="M4.1-0.15l-0.35-0.3L4.3,0.3
			c0.333,0.467,0.983,0.833,1.95,1.1h-0.5l-1.6-0.25L5.2,1.6c0.566,0.267,1.25,0.35,2.05,0.25c0.233-0.2,0.333-0.5,0.3-0.9
			c0-0.4-0.15-0.767-0.45-1.1L6.7-0.1c-0.3,0-0.6-0.133-0.9-0.4L5.45-0.9l-0.1,0.55C5.317-0.117,5.383,0.1,5.55,0.3
			c0.1,0.1,0.184,0.183,0.25,0.25c-0.133,0-0.417-0.083-0.85-0.25C4.683,0.2,4.4,0.05,4.1-0.15z"/>
	</g>
</symbol>
<symbol  id="eye1" viewBox="-3.559 -3.46 7.13 6.97">
	<g id="Layer_5_1_">
		<path style="fill-rule:evenodd;clip-rule:evenodd;fill:#FFF5F5;" d="M3.55-0.3C3.483-1.233,3.067-2.017,2.3-2.65
			c-0.767-0.6-1.633-0.867-2.6-0.8c-0.967,0.066-1.767,0.466-2.4,1.2S-3.617-0.667-3.55,0.3c0.066,0.966,0.483,1.767,1.25,2.4
			c0.767,0.6,1.633,0.867,2.6,0.8c0.967-0.1,1.784-0.517,2.45-1.25C3.383,1.483,3.65,0.633,3.55-0.3z"/>
	</g>
</symbol>
<symbol  id="hair" viewBox="-3.95 -1.5 7.957 3.058">
	<g id="Layer_1_4_">
		<path style="fill-rule:evenodd;clip-rule:evenodd;fill:#E8A09B;" d="M2.35,1.55c0.033-0.133,0.017-0.233-0.05-0.3
			C2.167,1.117,1.983,1.033,1.75,1H1.5l1.25-0.5C3.149,0.3,3.566,0.033,4-0.3c0.067-0.133-0.35-0.183-1.25-0.15L1.2-0.25l0.4-0.6
			c0.1-0.3,0.1-0.517,0-0.65c-0.167,0-0.467,0.117-0.9,0.35l-0.85,0.6l-1.45,0.15l-0.2,0.25l-0.05,0.1C-1.784,0.05-1.5,0.167-1,0.3
			l0.3,0.3C-0.434,0.833-0.2,0.983,0,1.05C0.366,1.183,1.149,1.35,2.35,1.55z"/>
		<path style="fill-rule:evenodd;clip-rule:evenodd;fill:#FFBDBA;" d="M2.2-0.25C1.733-0.184,1.35-0.1,1.05,0L0.8,0.1
			c0.466-0.667,0.683-1.05,0.65-1.15l-0.05-0.2C0.866-0.983,0.5-0.767,0.3-0.6l-0.35,0.3l-3.1-0.25c-0.267,0-0.483,0.05-0.65,0.15
			l-0.15,0.15l1,0.7c0.833,0.5,1.733,0.8,2.7,0.9c1.5,0.167,2.367,0.233,2.6,0.2c-0.067-0.233-0.333-0.367-0.8-0.4L0.899,1.1
			l0.85-0.3c0.6-0.233,1.033-0.45,1.3-0.65l0.7-0.4C3.483-0.35,2.966-0.35,2.2-0.25z"/>
	</g>
</symbol>
<symbol  id="head1" viewBox="-8.216 -1.946 24.416 20.596">
	<g id="Layer_1_10_">
		<path style="fill-rule:evenodd;clip-rule:evenodd;fill:#FFBDBA;" d="M11.875,1.375L11.75,1.45c-1.667-0.6-2.8-0.983-3.4-1.15
			C7.25,0,6.133-0.167,5-0.2C4.08-0.224,3.063-0.523,1.95-1.1c-4.803-0.238-8.069,1.662-9.8,5.7c-0.533,2.333-0.483,4.667,0.15,7
			c1.267,4.7,4.784,7.05,10.55,7.05c3.9-0.033,6.633-1.316,8.2-3.85c0.233-0.367,0.7-1.316,1.4-2.85c0.433-1,0.883-1.617,1.35-1.85
			c1.034-0.533,1.667-0.684,1.9-0.45l0.45-1.35c0.167-1.167-0.083-2.35-0.75-3.55c-0.767-1.367-1.7-2.367-2.8-3
			C12.397,1.63,12.156,1.505,11.875,1.375z"/>
		<path style="fill-rule:evenodd;clip-rule:evenodd;fill:#E8A09B;" d="M11.875,1.375L11.9,1.35c-0.311-0.142-0.761-0.316-1.35-0.525
			L10.025,0.65C9.272,0.381,8.397,0.098,7.4-0.2C6.169-0.565,5.302-0.882,4.8-1.15C4.298-1.418,3.79-1.66,3.275-1.875
			C2.765-2.085,2.323-1.827,1.95-1.1C3.063-0.523,4.08-0.224,5-0.2C6.133-0.167,7.25,0,8.35,0.3c0.6,0.167,1.733,0.55,3.4,1.15
			L11.875,1.375z"/>
	</g>
</symbol>
<symbol  id="leg_x5F_left" viewBox="-6.105 -5.091 12.205 10.153">
	<g id="Layer_1_17_">
		<path style="fill-rule:evenodd;clip-rule:evenodd;fill:#BA7763;" d="M2.9-4.4c0.066,0.233,0.15,0.45,0.25,0.65
			c0.2,0.466,0.383,0.7,0.55,0.7c0.433,0.033,0.917,0.133,1.45,0.3c0.433,0.167,0.667,0.233,0.7,0.2c0.2-0.133-0.033-0.383-0.7-0.75
			L6.1-3.25c-0.3-0.767-0.633-1.284-1-1.55C4.7-5.067,4.284-5.15,3.85-5.05L2.9-4.4z"/>
		<path style="fill-rule:evenodd;clip-rule:evenodd;fill:#9E6554;" d="M3.05-3.5l1.1-0.45c0.8-0.167,1.45,0.067,1.95,0.7
			c-0.3-0.767-0.633-1.284-1-1.55C4.7-5.067,4.284-5.15,3.85-5.05L2.95-4.3L3.05-3.5z"/>
		<path style="fill-rule:evenodd;clip-rule:evenodd;fill:#E8A09B;" d="M-5.2,2.1C-5.767,3.167-6.066,3.8-6.1,4
			c-0.067,0.633,0.45,0.983,1.55,1.05c1.733,0.1,3.133-0.433,4.2-1.6c0.9-1,1.233-2.017,1-3.05c-0.2-0.967-0.4-1.533-0.6-1.7
			L0.7-1.7c0.6-0.267,1.333-0.5,2.2-0.7l2.05-0.5c-0.2,0-0.4-0.017-0.6-0.05c-0.467-0.067-0.767-0.233-0.9-0.5
			C3.217-3.883,3.184-4.267,3.35-4.6C2.15-4.434,0.733-4.15-0.9-3.75c-3.2,0.767-4.717,1.667-4.55,2.7
			c0.233,0.434,0.417,0.8,0.55,1.1C-4.7,0.617-4.8,1.3-5.2,2.1z"/>
	</g>
</symbol>
<symbol  id="leg_x5F_right" viewBox="-6.45 -6.296 12.9 12.606">
	<g id="Layer_1_8_">
		<path style="fill-rule:evenodd;clip-rule:evenodd;fill:#E8A09B;" d="M-5.5,4.675c0.432,0.547,1.381,0.964,2.85,1.25
			C-1.182,6.202,0.034,5.494,1,3.8c0.968-1.687,1.101-3.062,0.4-4.125c-0.708-1.063-0.7-1.796,0.025-2.2
			C2.148-2.929,2.724-3.187,3.15-3.3l-0.6-0.05c-1.867,0-3.583,0.417-5.15,1.25c-1.733,0.934-3.017,2.25-3.85,3.95l0.05,0.3
			C-6.234,3.286-5.934,4.127-5.5,4.675z"/>
		<path style="fill-rule:evenodd;clip-rule:evenodd;fill:#BA7763;" d="M6-3.35c0.267-0.167-0.033-0.433-0.9-0.8l1.35-0.1
			C6.117-5.183,5.7-5.783,5.2-6.05C4.7-6.317,4.167-6.367,3.6-6.2L2.2-5.25c0.066,0.267,0.15,0.533,0.25,0.8
			c0.2,0.567,0.417,0.833,0.65,0.8C3.667-3.683,4.317-3.633,5.05-3.5C5.65-3.367,5.967-3.317,6-3.35z"/>
		<path style="fill-rule:evenodd;clip-rule:evenodd;fill:#9E6554;" d="M2.25-4.15l1.55-0.7c1.133-0.3,2.017-0.1,2.65,0.6
			C6.117-5.183,5.7-5.783,5.2-6.05C4.7-6.317,4.167-6.367,3.6-6.2L2.25-5.15c0.067,0.233,0.083,0.467,0.05,0.7L2.25-4.15z"/>
		<path style="fill-rule:evenodd;clip-rule:evenodd;fill:#FFBDBA;" d="M0-2.1c0.633-0.367,1.383-0.65,2.25-0.85
			c0.667-0.167,1.367-0.383,2.1-0.65c-0.2,0.033-0.4,0.017-0.6-0.05C3.283-3.717,2.967-3.917,2.8-4.25c-0.233-0.533-0.267-1-0.1-1.4
			c-1.233,0.167-2.684,0.5-4.35,1c-3.267,0.967-4.817,2.066-4.65,3.3c0.267,0.567,0.45,1.033,0.55,1.4
			c0.233,0.667,0.133,1.5-0.3,2.5C-6.417,3.383-6.4,4.183-6,4.95c0.467,0.8,1.317,1.25,2.55,1.35c1.733,0.1,3-0.566,3.8-2
			C1.017,3.133,1.233,1.883,1,0.55c-0.2-1.2-0.767-1.933-1.7-2.2L0-2.1z"/>
	</g>
</symbol>
<symbol  id="mouth" viewBox="-3.9 -1.074 7.85 2.174">
	<g id="Layer_1_6_">
		<path style="fill-rule:evenodd;clip-rule:evenodd;fill:#BA7763;" d="M-1.4-0.4c-0.8,0.367-1.45,0.733-1.95,1.1L-3.9,1.1l0.55-0.35
			c0.534-0.267,1.267-0.55,2.2-0.85c1.3-0.434,2.5-0.617,3.6-0.55c0.566,0.033,1,0.117,1.3,0.25l0.2,0.15l-0.5-0.4L2.5-1.05
			C1.066-1.15-0.234-0.933-1.4-0.4z"/>
	</g>
</symbol>
<symbol  id="nose1" viewBox="-1.991 -3.8 4.042 7.6">
	<g id="Layer_1_2_">
		<path style="fill-rule:evenodd;clip-rule:evenodd;fill:#FFCDCA;" d="M1.55,3.8L2,2.45C2.167,1.283,1.917,0.1,1.25-1.1
			c-0.633-1.067-1.367-1.967-2.2-2.7c-0.833,0.333-1.167,1.35-1,3.05c0.167,1.767,0.8,3.033,1.9,3.8
			c0.633,0.367,1.067,0.583,1.3,0.65L1.55,3.8z"/>
		<path style="fill-rule:evenodd;clip-rule:evenodd;fill:#E3A496;" d="M1,1.2C0.867,0.9,0.767,0.583,0.7,0.25
			c0.133-0.467,0.183-0.767,0.15-0.9C0.717-1.184,0.5-1.583,0.2-1.85S-0.283-2.067-0.35-1.7c-0.067,0.567,0.133,1.217,0.6,1.95
			C0.483,0.617,0.733,0.933,1,1.2z"/>
	</g>
</symbol>
<symbol  id="piglet1" viewBox="-17.933 -20.5 36.033 40.958">
	<g id="leg_x5F_left_1_">
		
			<use xlink:href="#leg_x5F_left"  width="12.205" height="10.153" x="-6.105" y="-5.091" transform="matrix(1 0 0 1 4.7998 -11.1001)" style="overflow:visible;"/>
	</g>
	<g id="arm_x5F_left_1_">
		
			<use xlink:href="#arm_x5F_left"  width="9.668" height="12.67" x="-4.8" y="-6.328" transform="matrix(1 0 0 1 4.75 -11.1001)" style="overflow:visible;"/>
	</g>
	<g id="ear_x5F_left_1_">
		
			<use xlink:href="#ear_x5F_left"  width="10.7" height="7.46" x="-5.35" y="-3.685" transform="matrix(1 0 0 1 -0.3999 15.5498)" style="overflow:visible;"/>
	</g>
	<g id="tail_1_">
		
			<use xlink:href="#tail"  width="5.352" height="3.154" x="-4.482" y="-1.6" transform="matrix(1 0 0 1 -13.4502 -11.1499)" style="overflow:visible;"/>
	</g>
	<g id="body1_1_">
		
			<use xlink:href="#body1"  width="20.797" height="27.798" x="-16.174" y="-18.63" transform="matrix(1 0 0 1 1.8999 1.0498)" style="overflow:visible;"/>
	</g>
	<g id="head1_1_">
		
			<use xlink:href="#head1"  width="24.416" height="20.596" x="-8.216" y="-1.946" transform="matrix(1 0 0 1 1.8999 1.1001)" style="overflow:visible;"/>
	</g>
	<g id="arm_x5F_right_1_">
		
			<use xlink:href="#arm_x5F_right"  width="10.1" height="15.466" x="-5.073" y="-7.75" transform="matrix(1 0 0 1 -0.0498 -12.75)" style="overflow:visible;"/>
	</g>
	<g id="leg_x5F_right_1_">
		
			<use xlink:href="#leg_x5F_right"  width="12.9" height="12.606" x="-6.45" y="-6.296" transform="matrix(1 0 0 1 -6.8501 -14.0498)" style="overflow:visible;"/>
	</g>
	<g id="ear_x5F_right_1_">
		
			<use xlink:href="#ear_x5F_right"  width="15.156" height="10.056" x="-7.6" y="-5.005" transform="matrix(1 0 0 1 -7 11.8999)" style="overflow:visible;"/>
	</g>
	<g id="mouth_1_">
		
			<use xlink:href="#mouth"  width="7.85" height="2.174" x="-3.9" y="-1.074" transform="matrix(1 0 0 1 10.8999 3.25)" style="overflow:visible;"/>
	</g>
	<g id="eye1_1_">
		
			<use xlink:href="#eye1"  width="7.13" height="6.97" x="-3.559" y="-3.46" transform="matrix(1 0 0 1 7.5 9.3501)" style="overflow:visible;"/>
	</g>
	<g id="pupil1_1_">
		
			<use xlink:href="#pupil1"  width="5.15" height="4.9" x="-2.55" y="-2.45" transform="matrix(1 0 0 1 8.25 9.3999)" style="overflow:visible;"/>
	</g>
	<g id="eye2_1_">
	</g>
	<g id="pupil2_1_">
	</g>
	<g id="hair_1_">
		
			<use xlink:href="#hair"  width="7.957" height="3.058" x="-3.95" y="-1.5" transform="matrix(1 0 0 1 3.1499 18.8999)" style="overflow:visible;"/>
	</g>
	<g id="nose_1_">
		
			<use xlink:href="#nose1"  width="4.042" height="7.6" x="-1.991" y="-3.8" transform="matrix(1 0 0 1 16.0498 6.8999)" style="overflow:visible;"/>
	</g>
	<g id="labels_1_">
	</g>
</symbol>
<symbol  id="pupil1" viewBox="-2.55 -2.45 5.15 4.9">
	<g id="Layer_1_5_">
		<path style="fill-rule:evenodd;clip-rule:evenodd;fill:#292727;" d="M2.6,0c0-0.667-0.25-1.25-0.75-1.75
			C1.35-2.217,0.733-2.45,0-2.45c-0.7,0-1.3,0.233-1.8,0.7C-2.3-1.25-2.55-0.667-2.55,0c0,0.667,0.25,1.25,0.75,1.75
			c0.5,0.466,1.1,0.7,1.8,0.7c0.733,0,1.35-0.233,1.85-0.7C2.35,1.25,2.6,0.667,2.6,0z"/>
		<path style="fill-rule:evenodd;clip-rule:evenodd;fill:#FFF5F5;" d="M0.75,1.05c0-0.367-0.133-0.7-0.4-1
			c-0.3-0.267-0.633-0.4-1-0.4c-0.4,0-0.733,0.133-1,0.4c-0.267,0.3-0.4,0.633-0.4,1s0.133,0.7,0.4,1c0.267,0.267,0.6,0.4,1,0.4
			c0.367,0,0.7-0.133,1-0.4C0.617,1.75,0.75,1.417,0.75,1.05z"/>
		<path style="fill-rule:evenodd;clip-rule:evenodd;fill:#8F5B59;" d="M-1.1-1.6h0.5c0.434,0,0.85,0.1,1.25,0.3
			c0.867,0.4,1.367,0.934,1.5,1.6C2.317-0.567,1.933-1.267,1-1.8C0.5-2.067,0-2.117-0.5-1.95L-1.1-1.6z"/>
	</g>
</symbol>
<symbol  id="tail" viewBox="-4.482 -1.6 5.352 3.154">
	<g id="Layer_1_14_">
		<path style="fill-rule:evenodd;clip-rule:evenodd;fill:#FFBDBA;" d="M-3.05-0.6C-2.383-0.833-2.2-1.05-2.5-1.25
			c-0.434-0.367-0.95-0.367-1.55,0c-0.367,0.2-0.5,0.583-0.4,1.15C-4.417-0.366-4.267-0.55-4-0.649
			C-3.667-0.783-3.35-0.766-3.05-0.6z"/>
		<path style="fill-rule:evenodd;clip-rule:evenodd;fill:#FFBDBA;" d="M-1.7-0.05C-1.734-0.069-1.767-0.085-1.8-0.1l-0.25-0.1
			c0.3,0.4,0.267,0.667-0.1,0.8c-0.2,0.1-0.367,0.066-0.5-0.1C-2.75,0.333-2.767,0.167-2.7,0C-2.468-0.347-2.135-0.364-1.7-0.05z
			 M-3.3,1.101c0.267,0.333,0.6,0.483,1,0.45c0.8-0.033,1.133-0.45,1-1.25V0.275C-1.201,0.402-1.068,0.577-0.9,0.8
			c0.233,0.3,0.45,0.467,0.65,0.5c0.267,0.033,0.533-0.117,0.8-0.45c0.267-0.333,0.367-0.7,0.3-1.1C0.716-1.149-0.133-1.6-1.7-1.6
			c-1.267,0.033-1.933,0.567-2,1.6C-3.733,0.434-3.6,0.8-3.3,1.101z"/>
		<path style="fill-rule:evenodd;clip-rule:evenodd;fill:#E8A09B;" d="M-0.25,1.3c0.267,0.033,0.533-0.117,0.8-0.45
			c0.267-0.333,0.367-0.7,0.3-1.1C0.716-1.149-0.133-1.6-1.7-1.6c-0.767,0.033-1.333,0.267-1.7,0.7l0.25-0.15
			c0.467-0.333,1.017-0.466,1.65-0.4c0.6,0.067,0.933,0.317,1,0.75c0.066,0.333,0,0.667-0.2,1L-1,0.7
			C-0.733,1.101-0.483,1.3-0.25,1.3z"/>
	</g>
</symbol>
<use xlink:href="#piglet1"  width="36.033" height="40.958" id="piglet" x="-17.933" y="-20.5" transform="matrix(1 0 0 -1 18.0498 20.4502)" style="overflow:visible;"/>
</svg>
