<?xml version="1.0" encoding="iso-8859-1"?>
<!-- Generator: Adobe Illustrator 15.1.0, SVG Export Plug-In . SVG Version: 6.00 Build 0)  -->
<!DOCTYPE svg PUBLIC "-//W3C//DTD SVG 1.1//EN" "http://www.w3.org/Graphics/SVG/1.1/DTD/svg11.dtd">
<svg version="1.1" id="FlashAICB" xmlns="http://www.w3.org/2000/svg" xmlns:xlink="http://www.w3.org/1999/xlink" x="0px" y="0px"
	 width="83.7px" height="37.8px" viewBox="0 0 83.7 37.8" style="enable-background:new 0 0 83.7 37.8;" xml:space="preserve">
<symbol  id="flash0.ai_x5F_5_x2F_Layer_19_x2F__x3C_Path_x3E__x5F_1" viewBox="0 -33.95 22.65 33.95">
	<g id="Layer_1_2_">
		<path style="fill-rule:evenodd;clip-rule:evenodd;fill:#7F6127;" d="M1.65-2.15C2.183-2.683,5.067-7.033,10.3-15.2
			c5.7-8.867,8.667-13.483,8.9-13.85c0.566-0.767,1.15-1.667,1.75-2.7c0.466-0.5,1.033-0.35,1.7,0.45l-1.4-2.65
			C15.85-26.217,11.767-19.8,9-14.7C6.5-10.133,3.5-5.583,0-1.05L0.35,0C0.25-0.467,0.683-1.183,1.65-2.15z"/>
	</g>
</symbol>
<path style="fill-rule:evenodd;clip-rule:evenodd;fill:#7A5D27;" d="M41,30.4c-5.3,1.833-9.65,3.399-13.05,4.699
	c-2.5,0.967-4.767,1.784-6.8,2.45l0.65-8.399l10.1-7l10.25,6.25L41,30.4z"/>
<path style="fill-rule:evenodd;clip-rule:evenodd;fill:#8C6B2B;" d="M13.05,1.8L26.4,28.25l-5.15,9.55
	C15.85,30.066,11.767,23.65,9,18.55C6.5,13.983,3.5,9.433,0,4.9C-0.033,5,0.3,4.467,1,3.3c0.433-0.7,2.4,0.684,5.9,4.15
	c1.733,1.7,3.434,3.483,5.1,5.35L13.05,1.8z"/>
<use xlink:href="#flash0.ai_x5F_5_x2F_Layer_19_x2F__x3C_Path_x3E__x5F_1"  width="22.65" height="33.95" y="-33.95" transform="matrix(1 0 0 -1 0 3.8501)" style="overflow:visible;opacity:0.2617;enable-background:new    ;"/>
<path style="fill-rule:evenodd;clip-rule:evenodd;fill:#AF8433;" d="M1.1,3.2l9.3-2c2.367-0.5,4.75-0.9,7.15-1.2
	c4.8,5.533,9.267,10.75,13.4,15.65c3.333,3.933,7.066,8.216,11.2,12.85c-3.9,1.134-7.4,2.184-10.5,3.15
	c-3.033,0.966-5.85,1.783-8.45,2.449c-5.633-7.533-10.534-14.283-14.7-20.25C4.3,7.883,1.833,4.333,1.1,3.2z"/>
<g>
	<path style="fill-rule:evenodd;clip-rule:evenodd;fill:#C8943A;" d="M22.25,13.05c1.833,1.7,3.25,3.717,4.25,6.05
		c0.767,1.801,1.733,4.051,2.9,6.75c1.033,2.067,2.45,3.801,4.25,5.2l-1.2,0.351c-1.534-1.434-3.1-3.417-4.7-5.95
		c-0.9-1.434-1.617-3.217-2.15-5.351c-0.367-1.566-1.233-2.966-2.6-4.2c-3.167-2.767-5.65-4.933-7.45-6.5
		c-3.3-2.867-5.417-4.8-6.35-5.8C8.6,3,8.117,2.383,7.75,1.75L9.8,1.3c0.867,1.233,3.15,3.534,6.85,6.9
		C18.083,9.5,19.95,11.117,22.25,13.05z"/>
	<path style="fill-rule:evenodd;clip-rule:evenodd;fill:#C8943A;" d="M17.25,13.15c0.467,0.667,1.2,2.483,2.2,5.45
		c0.933,2.733,2.117,4.883,3.55,6.45c0.8,0.867,2.183,2,4.15,3.4c1.767,1.267,3.033,2.416,3.8,3.45l-2.85,0.85
		c-0.733-1.634-1.633-2.767-2.7-3.4c-1.933-1.233-3.283-2.25-4.05-3.05c-1.3-1.333-2.167-3.05-2.6-5.149
		c-0.633-2.833-1.033-4.45-1.2-4.851c-0.367-1.033-1.133-2.083-2.3-3.15c-2.433-1.967-4.417-3.6-5.95-4.9
		C6.433,5.783,4.667,3.883,4,2.55L5.65,2.2c0.733,1.2,2.684,3.1,5.85,5.7C14.767,10.633,16.683,12.383,17.25,13.15z"/>
	<path style="fill-rule:evenodd;clip-rule:evenodd;fill:#C8943A;" d="M9.35,12C7.017,10.4,5.567,9.35,5,8.85L1.1,3.2l1.1-0.25
		c2.867,3.9,5.75,6.75,8.65,8.55c2.1,1.3,3.45,2.467,4.05,3.5c0.567,1.067,1.067,3.233,1.5,6.5c0.167,1.434,0.25,2.667,0.25,3.7
		l-2.05-2.8c0.233-1.801,0.333-3.034,0.3-3.7c-0.1-1.3-0.566-2.4-1.4-3.3C12.667,14.467,11.283,13.333,9.35,12z"/>
	<path style="fill-rule:evenodd;clip-rule:evenodd;fill:#C8943A;" d="M26,33.35L23.85,33.9c-0.4-0.4-0.9-0.717-1.5-0.95l-2.7-3.65
		c1,0.5,2.267,1.066,3.8,1.7C24.617,31.6,25.467,32.384,26,33.35z"/>
	<path style="fill-rule:evenodd;clip-rule:evenodd;fill:#C8943A;" d="M39.35,29.3c-1.133-1.333-2.533-3.217-4.2-5.649
		c-1.533-2.233-2.816-4.767-3.85-7.601l2.75,3.25c2.233,4.101,4.4,7.316,6.5,9.65L39.35,29.3z"/>
	<path style="fill-rule:evenodd;clip-rule:evenodd;fill:#C8943A;" d="M23.05,9.05c1.667,1.7,3.217,3.934,4.65,6.7
		c3.4,6.667,6.566,11.4,9.5,14.2l-1.05,0.35c-1.367-1.133-2.367-2.066-3-2.8c-1.133-1.333-2.517-3.55-4.15-6.65
		c-1.667-3.167-2.817-5.133-3.45-5.899c-0.533-0.633-2.917-2.883-7.15-6.75c-3.867-3.534-6.117-5.817-6.75-6.85l-0.2-0.4l1.9-0.3
		c0.367,0.367,2,1.767,4.9,4.2C20.917,7.05,22.517,8.45,23.05,9.05z"/>
	<path style="fill-rule:evenodd;clip-rule:evenodd;fill:#C8943A;" d="M20.05,2.9l3.6,4.15c-2.633-2.4-4.6-3.983-5.9-4.75
		c-0.967-0.566-1.8-1.233-2.5-2l1.25-0.2C17.067,0.767,18.25,1.7,20.05,2.9z"/>
	<path style="fill-rule:evenodd;clip-rule:evenodd;fill:#C8943A;" d="M24.1,19.2l0.6,1.85c0.3,1.233,0.15,1.834-0.45,1.8
		c-0.667-0.033-1.3-0.533-1.9-1.5c-0.6-0.899-0.983-1.866-1.15-2.899C21.1,17.483,21.333,17,21.9,17
		C22.5,17,23.233,17.733,24.1,19.2z"/>
	<path style="fill-rule:evenodd;clip-rule:evenodd;fill:#C8943A;" d="M13.4,16.85c0.9,1.933,0.6,2.3-0.9,1.1
		c-1.5-1.233-2.4-2.333-2.7-3.3c-0.233-0.767,0.217-0.783,1.35-0.05S13.033,16.083,13.4,16.85z"/>
</g>
</svg>
