<?xml version="1.0" encoding="iso-8859-1"?>
<!-- Generator: Adobe Illustrator 15.1.0, SVG Export Plug-In . SVG Version: 6.00 Build 0)  -->
<!DOCTYPE svg PUBLIC "-//W3C//DTD SVG 1.1//EN" "http://www.w3.org/Graphics/SVG/1.1/DTD/svg11.dtd">
<svg version="1.1" id="flash0.ai" xmlns="http://www.w3.org/2000/svg" xmlns:xlink="http://www.w3.org/1999/xlink" x="0px" y="0px"
	 width="50.5px" height="31.2px" viewBox="0 0 50.5 31.2" style="enable-background:new 0 0 50.5 31.2;" xml:space="preserve">
<symbol  id="flash0.ai_x5F_1_x2F_Layer_4_copy_x2F__x3C_Path_x3E_" viewBox="-0.033 -4.475 4.572 4.485">
	<g id="Layer_1_9_">
		<path style="fill-rule:evenodd;clip-rule:evenodd;fill:#FFD670;" d="M4.25-1.05c0.467-0.934,0.367-1.684-0.3-2.25
			c-0.767-0.667-1.534-1.05-2.3-1.15c-0.767-0.1-1.283,0.1-1.55,0.6c-0.267,0.467-0.133,1.167,0.4,2.1C1-0.817,1.533-0.267,2.1-0.1
			C3.067,0.2,3.783-0.117,4.25-1.05z"/>
	</g>
</symbol>
<symbol  id="flash0.ai_x5F_1_x2F_Layer_4_copy_x2F__x3C_Path_x3E__x5F_1" viewBox="-0.01 -10.103 10.316 10.103">
	<g id="Layer_1_8_">
		<path style="fill-rule:evenodd;clip-rule:evenodd;fill:#FFE39E;" d="M3.65-0.8C5.483-0.133,7,0.117,8.2-0.05
			c1.333-0.2,2.033-1.1,2.1-2.7c0.034-0.867-0.083-1.983-0.35-3.35C9.917-6.767,9.067-7.583,7.4-8.55c-1.6-1-2.95-1.517-4.05-1.55
			C2.283-10.133,1.433-9.833,0.8-9.2C0.2-8.567-0.067-7.7,0-6.6C0.1-5,0.567-3.65,1.4-2.55C2.067-1.65,2.817-1.067,3.65-0.8z"/>
	</g>
</symbol>
<symbol  id="flash0.ai_x5F_1_x2F_Layer_4_copy_x2F__x3C_Path_x3E__x5F_19" viewBox="0 -19.348 33.831 19.348">
	<g id="Layer_1_6_">
		<path style="fill-rule:evenodd;clip-rule:evenodd;" d="M33.45-2.35L33.3,0c0.633-1.567,0.7-3.383,0.2-5.45
			c-0.467-1.9-1.3-3.65-2.5-5.25c-1.9-2.466-4.367-4.367-7.4-5.7c-3.3-1.434-7.733-2.383-13.3-2.85c-4.333-0.367-7.767,0.3-10.3,2
			c1.367-0.733,3.033-1.183,5-1.35c1.867-0.167,4.25-0.05,7.15,0.35c2.3,0.3,4.367,0.683,6.2,1.15c1.3,0.3,2.617,0.817,3.95,1.55
			c0.7,0.4,1.583,0.933,2.65,1.6c0.966,0.534,1.55,0.883,1.75,1.05c0.066,0.2,0.15,0.433,0.25,0.7c0.2,0.534,0.417,0.934,0.65,1.2
			c0.167,0.2,0.683,0.667,1.55,1.4c0.867,0.767,1.383,1.25,1.55,1.45c0.167,0.2,0.683,0.816,1.55,1.85
			C33.083-5.1,33.483-3.783,33.45-2.35z"/>
	</g>
</symbol>
<symbol  id="flash0.ai_x5F_1_x2F_Layer_4_copy_x2F__x3C_Path_x3E__x5F_2" viewBox="-0.003 -15.826 16.66 15.836">
	<g id="Layer_1_7_">
		<path style="fill-rule:evenodd;clip-rule:evenodd;fill:#FFEBBA;" d="M9.85,0c3.367-0.3,5.483-1.717,6.35-4.25
			c0.733-2.067,0.583-3.967-0.45-5.7c-1.3-2.2-2.95-3.816-4.95-4.85c-2.566-1.333-5.267-1.367-8.1-0.1
			c-1.333,0.6-2.184,1.867-2.55,3.8c-0.467,2.4,0.133,5,1.8,7.8c0.6,1,1.917,1.85,3.95,2.55C7.633-0.183,8.95,0.067,9.85,0z"/>
	</g>
</symbol>
<symbol  id="flash0.ai_x5F_1_x2F_Layer_4_copy_x2F__x3C_Path_x3E__x5F_20" viewBox="0 -1.464 4.75 1.464">
	<g id="Layer_1_5_">
		<path style="fill-rule:evenodd;clip-rule:evenodd;fill:#FFD670;" d="M2.55-0.75l-1.8,0.2C0.483-0.517,0.267-0.4,0.1-0.2L0,0
			c0.133-0.133,0.267-0.183,0.4-0.15c0.434,0.1,0.85,0.1,1.25,0c0.8-0.2,1.283-0.367,1.45-0.5C3.433-0.917,3.983-1.133,4.75-1.3
			c-0.267-0.2-0.6-0.217-1-0.05C3.417-1.017,3.017-0.817,2.55-0.75z"/>
	</g>
</symbol>
<symbol  id="flash0.ai_x5F_1_x2F_Layer_4_copy_x2F__x3C_Path_x3E__x5F_21" viewBox="0 -2.4 7.1 2.4">
	<g id="Layer_1_4_">
		<path style="fill-rule:evenodd;clip-rule:evenodd;fill:#FFE39E;" d="M3.8-1.9C3.533-1.867,3.25-1.767,2.95-1.6
			C2.417-1.233,1.833-1.05,1.2-1.05c-0.6,0-0.983,0.1-1.15,0.3C-0.05-0.583,0-0.333,0.2,0c0.333-0.133,0.566-0.15,0.7-0.05h0.7
			c0.066,0,0.1-0.1,0.1-0.3c0-0.167,0.167-0.267,0.5-0.3c0.4-0.033,0.65-0.067,0.75-0.1C3.017-0.783,3.217-0.9,3.55-1.1
			C3.817-1.233,4-1.35,4.1-1.45C4.167-1.517,4.4-1.567,4.8-1.6c0.633-0.1,1.4-0.367,2.3-0.8C6.033-2,5.233-1.817,4.7-1.85
			C4.167-1.883,3.867-1.9,3.8-1.9z"/>
	</g>
</symbol>
<symbol  id="flash0.ai_x5F_1_x2F_Layer_4_copy_x2F__x3C_Path_x3E__x5F_22" viewBox="0 -3.5 7.25 3.5">
	<g id="Layer_1_3_">
		<path style="fill-rule:evenodd;clip-rule:evenodd;fill:#FFE5A3;" d="M6.55-2.2C6.883-2.333,7.1-2.583,7.2-2.95
			c0.066-0.3,0.066-0.483,0-0.55c0,0.1-0.15,0.2-0.45,0.3C6.35-3.067,5.8-3,5.1-3C4.433-3,3.817-2.917,3.25-2.75
			C2.617-2.517,2.117-2.333,1.75-2.2C1.05-2.1,0.567-2.017,0.3-1.95c-0.4,0.133-0.4,0.417,0,0.85H0.2l1.1,0.3L3.25,0
			c0.2,0,0.417-0.067,0.65-0.2c0.233-0.1,0.333-0.216,0.3-0.35c0-0.3-0.017-0.534-0.05-0.7c0-0.033,0.15-0.033,0.45,0
			C5.067-1.217,5.533-1.367,6-1.7l0.15-0.2C6.283-2.067,6.417-2.167,6.55-2.2z"/>
	</g>
</symbol>
<symbol  id="flash0.ai_x5F_1_x2F_Layer_4_copy_x2F__x3C_Path_x3E__x5F_23" viewBox="0 -22.658 35.206 22.658">
	<g id="Layer_1_2_">
		<path style="fill-rule:evenodd;clip-rule:evenodd;" d="M30.55-8.15c0.967,0.733,1.633,1.45,2,2.15C32.85-5.5,33-5.5,33-6
			c0-0.767,0.067-1.2,0.2-1.3c0.233-0.167,0.466-0.034,0.7,0.4c0.267,0.467,0.4,1.083,0.4,1.85c0,0.533-0.25,1.316-0.75,2.35
			c-0.533,1-1.133,1.9-1.8,2.7c2.4-1.333,3.55-3.5,3.45-6.5c-0.1-2.633-1.034-5.133-2.8-7.5c-1.9-2.467-4.367-4.367-7.4-5.7
			c-3.3-1.433-7.733-2.383-13.3-2.85C6.433-23.017,2.533-21.967,0-19.4c2.6-1.233,5.8-1.7,9.6-1.4c2.566,0.2,4.683,0.7,6.35,1.5
			c0.9,0.433,1.867,0.983,2.9,1.65c0.867,0.333,1.933,0.867,3.2,1.6c0.267,0.167,0.867,0.3,1.8,0.4c0.867,0.1,1.383,0.233,1.55,0.4
			l0.95,1.1c-0.3,0.1-0.567,0.217-0.8,0.35c-0.533,0.233-0.7,0.383-0.5,0.45c0.1,0.033,0.3,0.15,0.6,0.35
			c0.233,0.2,0.567,0.35,1,0.45c0.567,0.167,0.917,0.333,1.05,0.5c0.167,0.133,0.25,0.4,0.25,0.8c0,0.333-0.35,0.583-1.05,0.75
			l-1.05,0.2l2.25,0.8C28.833-9.267,29.65-8.817,30.55-8.15z"/>
	</g>
</symbol>
<g>
	
		<linearGradient id="SVGID_1_" gradientUnits="userSpaceOnUse" x1="10.7471" y1="-14.7495" x2="28.1992" y2="-14.7495" gradientTransform="matrix(0.2361 0.7644 -0.7644 0.2361 10.1502 11.9501)">
		<stop  offset="0" style="stop-color:#B39345"/>
		<stop  offset="1" style="stop-color:#6E5720"/>
	</linearGradient>
	<path style="fill-rule:evenodd;clip-rule:evenodd;fill:url(#SVGID_1_);" d="M35.43,12.23c3.013,0.64,4.64,2.333,4.88,5.08
		c0.213,2.373-0.521,4.68-2.2,6.92c-1.521,1.973-3.493,3.493-5.92,4.56c-2.64,1.146-6.187,1.907-10.64,2.28
		c-4.4,0.399-7.6-0.521-9.6-2.76c-1.867-2.054-2.32-4.693-1.36-7.921c0.667-2.266,2.467-3.853,5.4-4.759
		c1.173-0.374,3.707-0.787,7.6-1.24c0.88-0.08,2.72-0.653,5.52-1.72C31.137,11.924,33.242,11.777,35.43,12.23z"/>
	
		<linearGradient id="SVGID_2_" gradientUnits="userSpaceOnUse" x1="7.8071" y1="-17.502" x2="12.3857" y2="-17.502" gradientTransform="matrix(0.2359 0.7644 -0.7644 0.2359 10.1499 11.95)">
		<stop  offset="0" style="stop-color:#997E38"/>
		<stop  offset="1" style="stop-color:#9C7F3A"/>
	</linearGradient>
	<path style="fill-rule:evenodd;clip-rule:evenodd;fill:url(#SVGID_2_);" d="M26.63,14.91c0.293,0.107,0.693,0.253,1.2,0.44
		c0.453,0.133,0.946,0.2,1.479,0.2c0.56,0,1,0.053,1.319,0.16c0.241,0.08,0.36,0.16,0.36,0.24c-0.532-0.187-1.373-0.173-2.52,0.04
		c-0.587,0.107-1.054,0.081-1.4-0.08l-0.319-0.24c-0.667,0.267-1.134,0.227-1.4-0.12c-0.133-0.187-0.4-0.307-0.8-0.36
		c-0.907-0.08-1.72-0.2-2.44-0.36c-0.405-0.088-0.872-0.115-1.4-0.08c0.78-0.095,1.74-0.215,2.879-0.36
		c0.641-0.08,1.267-0.2,1.88-0.36c-0.32,0.347-0.32,0.573,0,0.68C25.683,14.764,26.069,14.83,26.63,14.91z"/>
	
		<use xlink:href="#flash0.ai_x5F_1_x2F_Layer_4_copy_x2F__x3C_Path_x3E__x5F_23"  width="35.206" height="22.658" y="-22.658" transform="matrix(0.8 0 0 -0.8 12.2002 13.0498)" style="overflow:visible;opacity:0.1211;enable-background:new    ;"/>
	
		<use xlink:href="#flash0.ai_x5F_1_x2F_Layer_4_copy_x2F__x3C_Path_x3E__x5F_22"  width="7.25" height="3.5" x="0" y="-3.5" transform="matrix(0.8 0 0 -0.8 25.25 13.1499)" style="overflow:visible;opacity:0.0703;enable-background:new    ;"/>
	
		<use xlink:href="#flash0.ai_x5F_1_x2F_Layer_4_copy_x2F__x3C_Path_x3E__x5F_21"  width="7.1" height="2.4" x="0" y="-2.4" transform="matrix(0.8 0 0 -0.8 25.3496 14.0498)" style="overflow:visible;opacity:0.1016;enable-background:new    ;"/>
	
		<use xlink:href="#flash0.ai_x5F_1_x2F_Layer_4_copy_x2F__x3C_Path_x3E__x5F_20"  width="4.75" height="1.464" y="-1.464" transform="matrix(0.8 0 0 -0.8 25.2998 14.5)" style="overflow:visible;opacity:0.3008;enable-background:new    ;"/>
	
		<use xlink:href="#flash0.ai_x5F_1_x2F_Layer_4_copy_x2F__x3C_Path_x3E__x5F_19"  width="33.831" height="19.348" y="-19.348" transform="matrix(0.8 0 0 -0.8 13.3501 15.7002)" style="overflow:visible;opacity:0.1914;enable-background:new    ;"/>
	
		<linearGradient id="SVGID_3_" gradientUnits="userSpaceOnUse" x1="16.8281" y1="-10.0537" x2="18.3702" y2="-10.0537" gradientTransform="matrix(0.2334 0.7652 -0.7652 0.2334 10.1496 11.9501)">
		<stop  offset="0" style="stop-color:#856629"/>
		<stop  offset="0.9882" style="stop-color:#96782D"/>
	</linearGradient>
	<path style="fill-rule:evenodd;clip-rule:evenodd;fill:url(#SVGID_3_);" d="M21.87,22.23c1.067,0.187,1.347,0.546,0.84,1.08
		c-0.534,0.56-1.014,0.706-1.44,0.439c-0.32-0.187-0.413-0.493-0.28-0.92C21.15,22.377,21.443,22.177,21.87,22.23z"/>
	
		<linearGradient id="SVGID_4_" gradientUnits="userSpaceOnUse" x1="9.5825" y1="-7.3936" x2="10.1285" y2="-7.3936" gradientTransform="matrix(0.2198 0.7692 -0.7692 0.2198 10.1505 11.9498)">
		<stop  offset="0" style="stop-color:#7A5E26"/>
		<stop  offset="0.9882" style="stop-color:#96782D"/>
	</linearGradient>
	<path style="fill-rule:evenodd;clip-rule:evenodd;fill:url(#SVGID_4_);" d="M18.03,17.59c0.427-0.026,0.533,0.08,0.32,0.32
		c-0.213,0.267-0.426,0.36-0.64,0.28c-0.187-0.054-0.227-0.16-0.12-0.32C17.67,17.71,17.816,17.617,18.03,17.59z"/>
	
		<linearGradient id="SVGID_5_" gradientUnits="userSpaceOnUse" x1="14.9229" y1="-15.0439" x2="16.101" y2="-15.0439" gradientTransform="matrix(0.2376 0.7639 -0.7639 0.2376 10.15 11.95)">
		<stop  offset="0" style="stop-color:#8F6E2C"/>
		<stop  offset="0.9882" style="stop-color:#9E7F2F"/>
	</linearGradient>
	<path style="fill-rule:evenodd;clip-rule:evenodd;fill:url(#SVGID_5_);" d="M25.35,19.51c0.693-0.106,0.92,0.094,0.68,0.601
		c-0.267,0.533-0.64,0.746-1.12,0.64c-0.427-0.106-0.573-0.333-0.44-0.68C24.603,19.75,24.896,19.563,25.35,19.51z"/>
	
		<linearGradient id="SVGID_6_" gradientUnits="userSpaceOnUse" x1="20.6714" y1="-0.7305" x2="21.4305" y2="-0.7305" gradientTransform="matrix(0.2371 0.764 -0.764 0.2371 10.1503 11.9504)">
		<stop  offset="0" style="stop-color:#7A5E26"/>
		<stop  offset="0.9882" style="stop-color:#96782D"/>
	</linearGradient>
	<path style="fill-rule:evenodd;clip-rule:evenodd;fill:url(#SVGID_6_);" d="M15.83,27.51c0.586,0.133,0.707,0.307,0.359,0.52
		c-0.373,0.214-0.707,0.214-1,0c-0.266-0.187-0.293-0.332-0.08-0.439C15.296,27.483,15.537,27.457,15.83,27.51z"/>
	
		<linearGradient id="SVGID_7_" gradientUnits="userSpaceOnUse" x1="22.3574" y1="-14.2397" x2="23.3299" y2="-14.2397" gradientTransform="matrix(0.2468 0.761 -0.761 0.2468 10.1501 11.9506)">
		<stop  offset="0" style="stop-color:#7A5E26"/>
		<stop  offset="0.9882" style="stop-color:#96782D"/>
	</linearGradient>
	<path style="fill-rule:evenodd;clip-rule:evenodd;fill:url(#SVGID_7_);" d="M26.63,25.229c0.72-0.079,0.92,0.107,0.6,0.561
		c-0.319,0.427-0.693,0.6-1.12,0.521c-0.32-0.081-0.373-0.281-0.16-0.601C26.137,25.416,26.363,25.257,26.63,25.229z"/>
	
		<linearGradient id="SVGID_8_" gradientUnits="userSpaceOnUse" x1="12.6777" y1="-21.6689" x2="13.3027" y2="-21.6689" gradientTransform="matrix(0.224 0.768 -0.768 0.224 10.1494 11.9505)">
		<stop  offset="0" style="stop-color:#A17C31"/>
		<stop  offset="0.9882" style="stop-color:#A18130"/>
	</linearGradient>
	<path style="fill-rule:evenodd;clip-rule:evenodd;fill:url(#SVGID_8_);" d="M29.75,16.71c0.399-0.026,0.533,0.094,0.399,0.36
		c-0.16,0.267-0.387,0.36-0.68,0.28c-0.267-0.054-0.36-0.174-0.28-0.36C29.27,16.83,29.456,16.737,29.75,16.71z"/>
	
		<linearGradient id="SVGID_9_" gradientUnits="userSpaceOnUse" x1="17.0923" y1="-24.666" x2="17.9857" y2="-24.666" gradientTransform="matrix(0.2463 0.7611 -0.7611 0.2463 10.1494 11.9505)">
		<stop  offset="0" style="stop-color:#91702D"/>
		<stop  offset="0.9882" style="stop-color:#A38332"/>
	</linearGradient>
	<path style="fill-rule:evenodd;clip-rule:evenodd;fill:url(#SVGID_9_);" d="M32.949,18.75c0.693-0.293,0.987-0.213,0.88,0.24
		c-0.133,0.479-0.413,0.706-0.84,0.68c-0.347-0.026-0.493-0.174-0.439-0.439C32.603,19.017,32.736,18.856,32.949,18.75z"/>
	
		<linearGradient id="SVGID_10_" gradientUnits="userSpaceOnUse" x1="19.2886" y1="-19.6504" x2="20.2848" y2="-19.6504" gradientTransform="matrix(0.2409 0.7629 -0.7629 0.2409 10.1491 11.9503)">
		<stop  offset="0" style="stop-color:#856629"/>
		<stop  offset="0.9882" style="stop-color:#96782D"/>
	</linearGradient>
	<path style="fill-rule:evenodd;clip-rule:evenodd;fill:url(#SVGID_10_);" d="M29.949,21.71c0.721-0.08,0.961,0.094,0.721,0.521
		c-0.268,0.426-0.667,0.613-1.2,0.56c-0.48-0.08-0.601-0.28-0.36-0.601C29.323,21.896,29.604,21.736,29.949,21.71z"/>
	
		<linearGradient id="SVGID_11_" gradientUnits="userSpaceOnUse" x1="20.5859" y1="-23.5371" x2="21.108" y2="-23.5371" gradientTransform="matrix(0.2299 0.7662 -0.7662 0.2299 10.1498 11.95)">
		<stop  offset="0" style="stop-color:#7A5E26"/>
		<stop  offset="0.9882" style="stop-color:#96782D"/>
	</linearGradient>
	<path style="fill-rule:evenodd;clip-rule:evenodd;fill:url(#SVGID_11_);" d="M32.989,22.189c0.4,0,0.534,0.107,0.4,0.32
		c-0.133,0.214-0.347,0.294-0.64,0.24c-0.24-0.054-0.32-0.16-0.24-0.32C32.616,22.27,32.776,22.189,32.989,22.189z"/>
	
		<linearGradient id="SVGID_12_" gradientUnits="userSpaceOnUse" x1="11.3418" y1="-28.8755" x2="12.1248" y2="-28.8755" gradientTransform="matrix(0.2299 0.7662 -0.7662 0.2299 10.1495 11.9501)">
		<stop  offset="0" style="stop-color:#AB8435"/>
		<stop  offset="0.9882" style="stop-color:#997B2E"/>
	</linearGradient>
	<path style="fill-rule:evenodd;clip-rule:evenodd;fill:url(#SVGID_12_);" d="M34.829,13.87c0.454-0.08,0.628,0.054,0.521,0.4
		c-0.107,0.347-0.293,0.48-0.561,0.4c-0.213-0.08-0.306-0.227-0.279-0.439C34.536,14.017,34.643,13.896,34.829,13.87z"/>
	
		<linearGradient id="SVGID_13_" gradientUnits="userSpaceOnUse" x1="14.2197" y1="-30.0615" x2="15.3428" y2="-30.0615" gradientTransform="matrix(0.2315 0.7658 -0.7658 0.2315 10.1503 11.9502)">
		<stop  offset="0" style="stop-color:#96742E"/>
		<stop  offset="0.9882" style="stop-color:#A38332"/>
	</linearGradient>
	<path style="fill-rule:evenodd;clip-rule:evenodd;fill:url(#SVGID_13_);" d="M36.87,15.59c0.399,0.107,0.426,0.387,0.079,0.841
		c-0.347,0.479-0.64,0.6-0.88,0.359c-0.213-0.213-0.187-0.493,0.08-0.84C36.416,15.63,36.656,15.51,36.87,15.59z"/>
	
		<linearGradient id="SVGID_14_" gradientUnits="userSpaceOnUse" x1="16.1743" y1="-29.1299" x2="16.9573" y2="-29.1299" gradientTransform="matrix(0.2299 0.7662 -0.7662 0.2299 10.1495 11.9501)">
		<stop  offset="0" style="stop-color:#96742E"/>
		<stop  offset="0.9882" style="stop-color:#A38332"/>
	</linearGradient>
	<path style="fill-rule:evenodd;clip-rule:evenodd;fill:url(#SVGID_14_);" d="M36.229,17.511c0.347-0.027,0.493,0.093,0.44,0.359
		c-0.081,0.24-0.254,0.387-0.521,0.44c-0.24,0.053-0.32-0.067-0.24-0.36C35.963,17.657,36.069,17.511,36.229,17.511z"/>
	
		<linearGradient id="SVGID_15_" gradientUnits="userSpaceOnUse" x1="10.7813" y1="-31.5049" x2="11.5883" y2="-31.5049" gradientTransform="matrix(0.223 0.7683 -0.7683 0.223 10.1497 11.95)">
		<stop  offset="0" style="stop-color:#AB8435"/>
		<stop  offset="0.9882" style="stop-color:#997B2E"/>
	</linearGradient>
	<path style="fill-rule:evenodd;clip-rule:evenodd;fill:url(#SVGID_15_);" d="M36.47,13.11c0.267-0.027,0.467,0.026,0.6,0.16
		c0.133,0.134,0.173,0.293,0.12,0.48c-0.054,0.133-0.227,0.067-0.52-0.2C36.402,13.311,36.336,13.164,36.47,13.11z"/>
	
		<linearGradient id="SVGID_16_" gradientUnits="userSpaceOnUse" x1="9.7842" y1="-24.2061" x2="10.3613" y2="-24.2061" gradientTransform="matrix(0.2426 0.7623 -0.7623 0.2426 10.1496 11.95)">
		<stop  offset="0" style="stop-color:#AB8435"/>
		<stop  offset="0.9882" style="stop-color:#997B2E"/>
	</linearGradient>
	<path style="fill-rule:evenodd;clip-rule:evenodd;fill:url(#SVGID_16_);" d="M30.629,13.59c0.16-0.133,0.334-0.2,0.521-0.2
		c0.16,0.027,0.267,0.08,0.32,0.16s0.04,0.173-0.04,0.28c-0.106,0.107-0.254,0.16-0.44,0.16c-0.16,0-0.293-0.053-0.399-0.16
		C30.51,13.724,30.523,13.644,30.629,13.59z"/>
	
		<linearGradient id="SVGID_17_" gradientUnits="userSpaceOnUse" x1="17.8804" y1="2.7178" x2="18.6395" y2="2.7178" gradientTransform="matrix(0.2371 0.764 -0.764 0.2371 10.1503 11.9504)">
		<stop  offset="0" style="stop-color:#7A5E26"/>
		<stop  offset="0.9882" style="stop-color:#96782D"/>
	</linearGradient>
	<path style="fill-rule:evenodd;clip-rule:evenodd;fill:url(#SVGID_17_);" d="M12.47,26.189c0.454,0.188,0.547,0.374,0.28,0.561
		c-0.24,0.187-0.467,0.213-0.68,0.08c-0.16-0.133-0.2-0.293-0.12-0.48C12.057,26.137,12.23,26.084,12.47,26.189z"/>
	
		<linearGradient id="SVGID_18_" gradientUnits="userSpaceOnUse" x1="23.1187" y1="-6.25" x2="23.9257" y2="-6.25" gradientTransform="matrix(0.223 0.7683 -0.7683 0.223 10.1497 11.95)">
		<stop  offset="0" style="stop-color:#7A5E26"/>
		<stop  offset="0.9882" style="stop-color:#96782D"/>
	</linearGradient>
	<path style="fill-rule:evenodd;clip-rule:evenodd;fill:url(#SVGID_18_);" d="M19.87,28.229c0.587-0.079,0.854,0.014,0.8,0.28
		c-0.026,0.24-0.2,0.4-0.52,0.48c-0.24,0.026-0.4-0.08-0.48-0.32C19.59,28.403,19.656,28.257,19.87,28.229z"/>
	
		<use xlink:href="#flash0.ai_x5F_1_x2F_Layer_4_copy_x2F__x3C_Path_x3E__x5F_2"  width="16.66" height="15.836" x="-0.003" y="-15.826" transform="matrix(0.8 0 0 -0.8 10.5498 15.7002)" style="overflow:visible;opacity:0.0703;enable-background:new    ;"/>
	
		<use xlink:href="#flash0.ai_x5F_1_x2F_Layer_4_copy_x2F__x3C_Path_x3E__x5F_1"  width="10.316" height="10.103" x="-0.01" y="-10.103" transform="matrix(0.8 0 0 -0.8 11.3501 16.75)" style="overflow:visible;opacity:0.1016;enable-background:new    ;"/>
	
		<use xlink:href="#flash0.ai_x5F_1_x2F_Layer_4_copy_x2F__x3C_Path_x3E_"  width="4.572" height="4.485" x="-0.033" y="-4.475" transform="matrix(0.8 0 0 -0.8 12.7002 18.0996)" style="overflow:visible;opacity:0.3008;enable-background:new    ;"/>
</g>
</svg>
