<?xml version="1.0" encoding="iso-8859-1"?>
<!-- Generator: Adobe Illustrator 15.1.0, SVG Export Plug-In . SVG Version: 6.00 Build 0)  -->
<!DOCTYPE svg PUBLIC "-//W3C//DTD SVG 1.1//EN" "http://www.w3.org/Graphics/SVG/1.1/DTD/svg11.dtd">
<svg version="1.1" id="FlashAICB" xmlns="http://www.w3.org/2000/svg" xmlns:xlink="http://www.w3.org/1999/xlink" x="0px" y="0px"
	 width="59.1px" height="39.8px" viewBox="0 0 59.1 39.8" style="enable-background:new 0 0 59.1 39.8;" xml:space="preserve">
<g>
	<path style="fill-rule:evenodd;clip-rule:evenodd;fill:#F2E396;" d="M31.55,18.65H31.5c-0.134-0.267-0.267-0.467-0.4-0.6h-0.05
		l-0.2-0.2l-0.1-0.05l0.7,0.05c0.3,0.066,0.783,0.1,1.45,0.1c0.699,0.3,1.149,0.466,1.35,0.5c0.434,0.133,0.85,0.2,1.25,0.2
		c0.333-0.033,0.866-0.117,1.6-0.25c0.7-0.066,1.367,0.083,2,0.45c1.167,0.533,2.567,0.933,4.2,1.2c0.233,0,0.517,0.017,0.851,0.05
		C44.05,20.2,44,20.316,44,20.45c0,0.133,0.8,0.267,2.4,0.399c-0.367-0.366-0.867-0.6-1.5-0.699c0.033,0,0.083,0,0.149,0
		c0.566,0.066,1.05,0.333,1.45,0.8c0.467,0.467,0.866,0.8,1.2,1c-0.434,0.066-0.75,0.1-0.95,0.1c-0.167,0-0.384-0.017-0.65-0.05
		l-0.149-0.15c-0.101-0.133-0.55-0.399-1.351-0.8C44.4,20.95,43.95,20.9,43.25,20.9c-0.366,0-0.833-0.017-1.4-0.051
		c0.134-0.3,0.15-0.633,0.051-1l-0.5,0.1c-0.434,0.066-0.784,0.066-1.051,0c-0.199-0.1-0.383-0.184-0.55-0.25
		c-0.2-0.1-0.517-0.1-0.95,0c-0.333-0.1-0.6-0.15-0.8-0.15H37.7l-2-0.7l-0.2-0.15l1.45,1.2H36.9l-0.65-0.5l-0.9-0.25
		c-0.3-0.2-0.55-0.333-0.75-0.4v-0.1h-0.25H31.55z M47.75,22c0.167,0.066,0.434,0.15,0.8,0.25c-0.434,0.2-0.583,0.434-0.45,0.7
		L48,22.9c-0.134-0.067-0.366-0.134-0.7-0.2c-0.366-0.033-0.616-0.084-0.75-0.15C47.45,22.483,47.85,22.3,47.75,22z M50.825,23.175
		c0.054,0.053,0.112,0.094,0.175,0.125c0.434,0.367,0.733,0.733,0.9,1.101c-0.434,0.433-0.851,0.716-1.25,0.85L50.5,25.3
		c-0.533-0.166-0.9-0.316-1.1-0.45L49.35,24.7l-0.3-0.4L48.9,23.85c-0.134-0.267-0.301-0.433-0.5-0.5l-0.051-0.1
		c0.2,0.134,0.551,0.2,1.051,0.2l0.699,0.1c0.267-0.033,0.534-0.133,0.801-0.3C50.871,23.221,50.846,23.196,50.825,23.175z
		 M52.1,25.5c-0.066-0.167-0.1-0.316-0.1-0.45c0.028,0.256,0.203,0.631,0.525,1.125C52.327,25.917,52.186,25.692,52.1,25.5z
		 M51.05,30.05c0.101-0.2,0.25-0.35,0.45-0.45h-0.05l0.25-0.1c0.049-0.021,0.099-0.037,0.149-0.05
		C51.483,29.583,51.217,29.783,51.05,30.05z M31.5,34.65c-0.134,0.233-0.2,0.5-0.2,0.8c0.167,0.1,0.5,0.166,1,0.2
		c0.233,0,0.533,0,0.9,0c0.467,0,0.967-0.034,1.5-0.101c-0.4,0.334-0.851,0.601-1.351,0.8c-1,0.434-2.35,0.301-4.05-0.399
		c-0.533-0.267-0.9-0.45-1.1-0.55c-0.367-0.2-0.75-0.284-1.15-0.25c-0.367,0.033-0.683,0.133-0.95,0.3
		c-0.333,0.2-0.667,0.333-1,0.399c-0.8,0.2-1.867,0.067-3.2-0.399c-0.566-0.167-1.066-0.367-1.5-0.601l-0.45-0.3L19.9,34.6v-0.05
		l-0.15,0.101c-0.733,0.267-1.617,0.383-2.65,0.35c-0.667-0.033-1.383-0.4-2.15-1.1c-0.733-0.801-1.267-1.301-1.6-1.5
		c-0.333-0.233-0.983-0.45-1.95-0.65c-0.933-0.2-1.5-0.384-1.7-0.55c-0.4-0.267-0.717-0.834-0.95-1.7l0.6-0.15H8.7V29.2
		c-0.534-0.101-1.034-0.283-1.5-0.55c-0.333-0.233-0.633-0.634-0.9-1.2c0.034-0.066,0.083-0.134,0.15-0.2c0.4-0.4,0.667-0.733,0.8-1
		c0.032-0.032,0.048-0.082,0.05-0.15c0.1-0.166,0.117-0.366,0.05-0.6c-0.033-0.267,0.017-0.55,0.15-0.85
		c0.133,0.1,0.317,0.116,0.55,0.05c0.2-0.033,0.333-0.117,0.4-0.25l0.75-1.4c0.233-0.133,0.483-0.267,0.75-0.399
		c0.333-0.101,0.883-0.301,1.65-0.601c0.633-0.267,1.066-0.583,1.3-0.95c0.133-0.199,0.267-0.366,0.4-0.5l0.25,0.051
		c0.667,0.133,1.184,0.083,1.55-0.15l0.3-0.35h-0.15c0.633-0.067,1.217-0.2,1.75-0.4l1.1-0.7c0.018-0.014,0.035-0.031,0.05-0.05
		c0.1,0.133,0.267,0.217,0.5,0.25c0.833,0.2,1.467,0.167,1.9-0.1c0.167-0.066,0.317-0.217,0.45-0.45l-1.4-0.15
		c0.4,0.034,1.033,0.1,1.9,0.2c0.509,0.063,0.901,0.063,1.175,0c-0.391,0.103-0.699,0.203-0.925,0.3
		c-0.133,0.067-0.283,0.2-0.45,0.4c-0.133,0.2-0.283,0.333-0.45,0.4c-0.434,0.133-1,0.216-1.7,0.25c-0.8,0-1.383,0-1.75,0
		c-0.267,0-0.583,0.084-0.95,0.25c-0.367,0.267-0.667,0.45-0.9,0.551c-0.566,0.233-0.983,0.35-1.25,0.35
		c-0.9-0.134-1.383-0.083-1.45,0.15v0.1l-0.25,0.25c-0.267,0-0.45,0.033-0.55,0.1L12,21.9c-0.2,0.1-0.35,0.233-0.45,0.399L11.5,22.4
		c-0.267,0.133-0.7,0.383-1.3,0.75c-0.2,0.166-0.5,0.517-0.9,1.05c-0.367,0.533-0.6,0.816-0.7,0.85L7.3,26.1v0.15
		c0.667-0.1,1.284-0.1,1.85,0c-0.066,0.267-0.1,0.533-0.1,0.8c0,0.967,0.417,1.884,1.25,2.75c-0.033,0-0.066,0.017-0.1,0.05
		c-0.167,0.134-0.217,0.284-0.15,0.45c0.067,0.267,0.317,0.434,0.75,0.5c0.2,0.033,0.383-0.017,0.55-0.149
		c0.933,0.666,2.167,1.267,3.7,1.8c0.267,0.133,0.55,0.25,0.85,0.35c-0.066,0.033-0.133,0.084-0.2,0.15c-0.133,0.2,0,0.434,0.4,0.7
		c0.433,0.267,1.167,0.366,2.2,0.3c0.333-0.066,0.534-0.15,0.6-0.25c0-0.033,0.017-0.05,0.05-0.05
		c0.933,0.199,1.917,0.383,2.95,0.55c0,0.2,0.2,0.399,0.6,0.6c0.667,0.367,1.4,0.517,2.2,0.45c0.3-0.033,0.617-0.167,0.95-0.4
		c0.1-0.033,0.233-0.1,0.4-0.199c1.1,0.033,2.25,0.05,3.45,0.05C30.167,34.7,30.833,34.684,31.5,34.65z M10.1,32.9
		c0.4,0.133,0.767,0.25,1.1,0.35c-0.167-0.033-0.317-0.066-0.45-0.1C10.517,33.083,10.3,33,10.1,32.9z M23.65,18.65l-0.05-0.3
		c0.311-0.123,0.611-0.223,0.9-0.3c0,0.3,0.033,0.517,0.1,0.65c0.367,0.1,0.95,0.117,1.75,0.05c0.4,0,0.65-0.25,0.75-0.75
		c0.367,0.067,0.767,0.15,1.2,0.25c0.155,0.062,0.338,0.095,0.55,0.1H28.7c-0.6,0.333-0.983,0.517-1.15,0.55
		C27.35,18.967,26.833,19,26,19c-0.633-0.067-1.1-0.1-1.4-0.1h-0.1C24.233,18.733,23.95,18.65,23.65,18.65z M51.2,27.05
		C50.566,27.083,50.283,27.4,50.35,28c0.034,0.233,0.233,0.384,0.601,0.45l-0.55,0.2c-0.834,0.166-1.317,0.933-1.45,2.3
		c-0.033,0.666-0.117,1.1-0.25,1.3c-0.134,0.134-0.533,0.267-1.2,0.4h-0.15c-0.233-0.034-0.449-0.034-0.649,0l-0.7,0.1
		c-0.866-0.066-1.4-0.083-1.6-0.05c-0.5,0.1-1.067,0.399-1.7,0.899L41.65,34.4c-0.567,0.333-1.351,0.616-2.351,0.85
		c-0.967,0.134-1.75,0.134-2.35,0c-0.334-0.2-0.584-0.283-0.75-0.25H35.85c0.167-0.233,0.301-0.467,0.4-0.7
		c2.833-0.366,5.4-0.983,7.7-1.85c4-1.467,6-3.267,6-5.4c0-0.399-0.066-0.783-0.2-1.149H50l0.3-0.25
		c0.066,0.133,0.267,0.399,0.601,0.8L51.2,27.05z M41.75,33.65l-1.3,0.25c-0.233,0.066-0.45,0.116-0.65,0.149
		c-0.333,0.134-0.517,0.267-0.55,0.4c0,0.133,0.2,0.267,0.6,0.399c0.434,0.034,0.851-0.05,1.25-0.25
		C41.566,34.366,41.783,34.05,41.75,33.65z M48.7,31.1l-1.15,0.15c-0.434,0.134-0.666,0.217-0.7,0.25c-0.066,0.1-0.066,0.233,0,0.4
		c0.034,0.166,0.101,0.283,0.2,0.35c0.367,0.267,0.75,0.25,1.15-0.05C48.6,31.866,48.767,31.5,48.7,31.1z M39.1,18.85
		c-0.699-0.367-1.383-0.5-2.05-0.4l0.25,0.4c0.233,0.2,0.566,0.267,1,0.2C38.566,19.05,38.833,18.983,39.1,18.85z M19.3,35.8
		c0.4-0.033,0.667,0,0.8,0.101c0.4,0.267,0.8,0.449,1.2,0.55l0.7,0.2c-0.833-0.134-1.433-0.351-1.8-0.65
		C20.033,35.866,19.733,35.8,19.3,35.8z M29.45,36.9l1.5,0.25h0.35l0.75,0.1c-0.134,0-0.268,0-0.399,0
		c-0.967-0.1-1.75-0.217-2.351-0.35c-0.121-0.03-0.237-0.047-0.35-0.051c0.079,0,0.162,0,0.25,0L29.45,36.9z M7.7,27.45
		C7.6,27.85,7.7,28.1,8,28.2c0.333,0.133,0.567,0.017,0.7-0.351c0-0.1,0.033-0.366,0.1-0.8L8.15,26.8
		C7.883,26.866,7.733,27.083,7.7,27.45z M33.775,37.1c0.058-0.018,0.116-0.034,0.175-0.05h0.1
		C33.956,37.065,33.864,37.082,33.775,37.1z M38.9,36.05c-0.667,0.033-1.167,0.066-1.5,0.101L38,36.05c0.052,0,0.102,0,0.15,0h0.399
		C38.683,36.05,38.8,36.05,38.9,36.05z"/>
	<path style="fill-rule:evenodd;clip-rule:evenodd;fill:#FFF5C9;" d="M44.9,20.15c0.633,0.1,1.133,0.333,1.5,0.699
		C44.8,20.717,44,20.583,44,20.45c0-0.134,0.05-0.25,0.15-0.351l0.05-0.05C44.434,20.05,44.667,20.083,44.9,20.15z M48.55,22.25
		l0.55,0.2c0.467,0.066,0.9,0.217,1.301,0.45l0.1,0.1c0.134,0.033,0.233,0.083,0.3,0.15l0.025,0.024
		c0.021,0.021,0.046,0.046,0.075,0.075c-0.267,0.167-0.534,0.267-0.801,0.3l-0.699-0.1c-0.5,0-0.851-0.066-1.051-0.2l-0.149-0.1
		c-0.066-0.067-0.101-0.134-0.101-0.2C47.967,22.684,48.116,22.45,48.55,22.25z M9.2,23.05l-0.75,1.4
		c-0.067,0.133-0.2,0.217-0.4,0.25c-0.233,0.066-0.417,0.05-0.55-0.05c0.3-0.667,0.867-1.217,1.7-1.65V23.05z M19.6,18.55L21,18.7
		c-0.133,0.233-0.283,0.383-0.45,0.45c-0.433,0.267-1.066,0.3-1.9,0.1c-0.233-0.033-0.4-0.117-0.5-0.25
		c0.031-0.019,0.064-0.035,0.1-0.05c0.13-0.094,0.28-0.177,0.45-0.25l0.5-0.1h0.05C19.383,18.567,19.5,18.55,19.6,18.55z M27.1,18
		c-0.1,0.5-0.35,0.75-0.75,0.75c-0.8,0.067-1.383,0.05-1.75-0.05c-0.067-0.133-0.1-0.35-0.1-0.65c0.133-0.033,0.267-0.066,0.4-0.1
		c0.033-0.034,0.1-0.05,0.2-0.05c0.066-0.033,0.133-0.05,0.2-0.05h1.2C26.7,17.883,26.9,17.933,27.1,18z M32.9,17.95
		c-0.667,0-1.15-0.034-1.45-0.1l-0.7-0.05c0.066,0,0.116-0.017,0.15-0.05h0.05c0.033-0.033,0.066-0.05,0.1-0.05
		c0.101-0.034,0.217-0.05,0.351-0.05c0.199,0,0.433,0.017,0.699,0.05l0.351,0.1c0.066,0.034,0.149,0.05,0.25,0.05L32.9,17.95z
		 M31.5,34.65c1.667-0.034,3.25-0.15,4.75-0.351c-0.1,0.233-0.233,0.467-0.4,0.7c-0.233,0.2-0.416,0.35-0.55,0.45l-0.6,0.1
		c-0.533,0.066-1.033,0.101-1.5,0.101c-0.367,0-0.667,0-0.9,0c-0.5-0.034-0.833-0.101-1-0.2C31.3,35.15,31.366,34.884,31.5,34.65z
		 M51.2,27.05c0.3,0,0.533,0.017,0.7,0.05l0.6,0.65c-0.1,0.3-0.167,0.5-0.2,0.6c-0.066,0.167-0.267,0.233-0.6,0.2
		c-0.334-0.033-0.584-0.066-0.75-0.1c-0.367-0.066-0.566-0.217-0.601-0.45C50.283,27.4,50.566,27.083,51.2,27.05z M48.7,31.1
		c0.066,0.4-0.101,0.767-0.5,1.101c-0.4,0.3-0.783,0.316-1.15,0.05c-0.1-0.066-0.166-0.184-0.2-0.35c-0.066-0.167-0.066-0.301,0-0.4
		c0.034-0.033,0.267-0.116,0.7-0.25L48.7,31.1z M41.75,33.65c0.033,0.399-0.184,0.716-0.65,0.949c-0.399,0.2-0.816,0.284-1.25,0.25
		c-0.399-0.133-0.6-0.267-0.6-0.399c0.033-0.134,0.217-0.267,0.55-0.4c0.2-0.033,0.417-0.083,0.65-0.149L41.75,33.65z M39.1,18.85
		c-0.267,0.133-0.533,0.2-0.8,0.2c-0.434,0.067-0.767,0-1-0.2l-0.25-0.4C37.717,18.35,38.4,18.483,39.1,18.85z M10.3,29.8
		c0.267,0.267,0.617,0.55,1.05,0.851C11.183,30.783,11,30.833,10.8,30.8c-0.433-0.066-0.683-0.233-0.75-0.5
		c-0.066-0.166-0.017-0.316,0.15-0.45C10.233,29.816,10.267,29.8,10.3,29.8z M15.9,32.8c0.967,0.3,1.983,0.584,3.05,0.851
		c-0.034,0-0.05,0.017-0.05,0.05c-0.066,0.1-0.267,0.184-0.6,0.25c-1.033,0.066-1.767-0.033-2.2-0.3c-0.4-0.267-0.533-0.5-0.4-0.7
		C15.767,32.884,15.833,32.833,15.9,32.8z M7.7,27.45c0.033-0.367,0.183-0.584,0.45-0.65l0.65,0.25c-0.066,0.434-0.1,0.7-0.1,0.8
		C8.567,28.217,8.333,28.333,8,28.2C7.7,28.1,7.6,27.85,7.7,27.45z M21.9,34.2c1.333,0.166,2.717,0.316,4.15,0.45
		c-0.167,0.1-0.3,0.166-0.4,0.199c-0.333,0.233-0.65,0.367-0.95,0.4c-0.8,0.066-1.534-0.083-2.2-0.45C22.1,34.6,21.9,34.4,21.9,34.2
		z"/>
	<path style="fill-rule:evenodd;clip-rule:evenodd;fill:#D5C578;" d="M46.1,22c-0.166,0-0.333-0.05-0.5-0.15
		c-0.166-0.1-0.283-0.166-0.35-0.199c-0.1-0.101-0.267-0.167-0.5-0.2h-1.2l-1.8-0.5l0.1-0.101c0.567,0.034,1.034,0.051,1.4,0.051
		c0.7,0,1.15,0.05,1.35,0.149c0.801,0.4,1.25,0.667,1.351,0.8L46.1,22z M50.5,25.3l0.15-0.05c0.399-0.134,0.816-0.417,1.25-0.85
		c0.066,0.166,0.1,0.366,0.1,0.6v0.05c0,0.134,0.033,0.283,0.1,0.45l-0.8-0.05c-0.434,0-0.684,0.033-0.75,0.1
		c0.033,0.134,0.15,0.283,0.351,0.45c0.133,0.066,0.283,0.167,0.449,0.3l0.601,0.55c0.434,0.334,0.684,0.551,0.75,0.65
		c0.1,0.267,0.083,0.583-0.05,0.95c-0.101,0.366-0.367,0.7-0.801,1c-0.233-0.167-0.483-0.283-0.75-0.351
		c-0.333-0.033-0.6,0.017-0.8,0.15c-0.399,0.267-0.666,0.884-0.8,1.85c0,0.101-0.017,0.351-0.05,0.75V31.9l0.05,0.449
		c0,0.101,0.017,0.184,0.05,0.25c-0.3,0.2-0.583,0.334-0.85,0.4c-0.101-0.033-0.184-0.066-0.25-0.1l-1.101-0.25h0.15
		c0.667-0.134,1.066-0.267,1.2-0.4c0.133-0.2,0.217-0.634,0.25-1.3c0.133-1.367,0.616-2.134,1.45-2.3l0.55-0.2
		c0.166,0.033,0.416,0.066,0.75,0.1c0.333,0.033,0.533-0.033,0.6-0.2c0.033-0.1,0.101-0.3,0.2-0.6l-0.6-0.65
		c-0.167-0.033-0.4-0.05-0.7-0.05l-0.3-0.6c-0.334-0.4-0.534-0.667-0.601-0.8c0.167-0.101,0.283-0.184,0.351-0.25L50.5,25.3z
		 M7.8,30.55v-0.2c0.067-0.399,0.383-0.683,0.95-0.85c0.233,0.866,0.55,1.434,0.95,1.7c0.2,0.166,0.767,0.35,1.7,0.55
		c0.967,0.2,1.617,0.417,1.95,0.65c0.333,0.199,0.867,0.699,1.6,1.5c0.767,0.699,1.483,1.066,2.15,1.1
		c1.033,0.033,1.917-0.083,2.65-0.35c-0.267,0.267-0.433,0.416-0.5,0.449c-0.4,0.267-0.8,0.45-1.2,0.551
		c-0.233,0.1-0.45,0.166-0.65,0.199h-0.05c-0.033,0-0.067,0-0.1,0c-0.433-0.033-0.833-0.133-1.2-0.3l-1.15-0.6
		c-0.167-0.101-0.333-0.2-0.5-0.3c-0.333-0.267-0.617-0.467-0.85-0.601c-0.167-0.133-0.316-0.217-0.45-0.25l-0.15-0.7
		c-0.2-0.433-0.767-0.666-1.7-0.699c-0.9,0-1.567-0.051-2-0.15L8.5,32c-0.033-0.033-0.067-0.066-0.1-0.1V31.85
		c-0.033,0-0.066-0.017-0.1-0.05v-0.1c-0.066-0.066-0.1-0.15-0.1-0.25C8.133,31.05,8,30.75,7.8,30.55z M6.3,27.45
		c0.267,0.566,0.567,0.967,0.9,1.2c0.466,0.267,0.966,0.449,1.5,0.55v0.149c-0.6-0.066-1-0.149-1.2-0.25
		c-0.4-0.133-0.683-0.25-0.85-0.35c-0.333-0.134-0.55-0.3-0.65-0.5c0-0.134,0.033-0.267,0.1-0.4c0-0.066,0.017-0.116,0.05-0.149
		l0.05-0.05c0.033-0.067,0.066-0.117,0.1-0.15V27.45z M23.6,18.35l0.05,0.3c-0.5,0.033-0.95,0.267-1.35,0.7
		c-0.1,0.1-0.2,0.283-0.3,0.55c-1.067,0.133-2.1,0.317-3.1,0.55c-0.566-0.101-1.017-0.101-1.35,0c-0.3,0.066-0.6,0.2-0.9,0.399
		c-0.233,0.134-0.383,0.267-0.45,0.4c-0.4,0.134-0.784,0.267-1.15,0.4c-0.4,0.133-0.783,0.283-1.15,0.449
		c-0.066-0.033-0.133-0.05-0.2-0.05c-0.4-0.166-0.7-0.267-0.9-0.3h-0.2l0.25-0.25v-0.1c0.066-0.233,0.55-0.284,1.45-0.15
		c0.267,0,0.684-0.116,1.25-0.35c0.233-0.101,0.534-0.284,0.9-0.551c0.367-0.166,0.683-0.25,0.95-0.25c0.367,0,0.95,0,1.75,0
		c0.7-0.033,1.267-0.116,1.7-0.25c0.167-0.067,0.316-0.2,0.45-0.4c0.167-0.2,0.317-0.333,0.45-0.4
		c0.226-0.097,0.534-0.197,0.925-0.3H22.7c0.033-0.033,0.083-0.067,0.15-0.1h0.05C23.139,18.538,23.373,18.438,23.6,18.35z
		 M29,18.35c-0.067,0.333-0.3,0.633-0.7,0.9c-0.133,0.033-0.233,0.1-0.3,0.2c-0.9,0-1.783,0.033-2.65,0.1
		c-0.267-0.267-0.55-0.483-0.85-0.65h0.1c0.3,0,0.767,0.033,1.4,0.1c0.833,0,1.35-0.033,1.55-0.1c0.167-0.033,0.55-0.217,1.15-0.55
		h0.15H29z M38.85,19.7l-0.35,0.15l-0.8-0.3h0.35C38.25,19.55,38.517,19.6,38.85,19.7z M31.55,18.65h2.8
		c-0.767,0.133-1.383,0.4-1.85,0.8c-0.1,0-0.2,0-0.3,0c-0.03-0.272-0.155-0.481-0.375-0.625l-0.05-0.025H31.75l-0.1-0.05
		L31.55,18.65z M48.1,22.95c0,0.066,0.034,0.133,0.101,0.2l0.149,0.1l0.051,0.1c-0.233-0.066-0.5-0.1-0.801-0.1
		c-0.133,0-0.25,0-0.35,0c-0.109-0.082-0.209-0.14-0.3-0.175L46.1,22.6c0.101-0.033,0.25-0.05,0.45-0.05
		c0.134,0.066,0.384,0.117,0.75,0.15c0.334,0.066,0.566,0.133,0.7,0.2L48.1,22.95z M49.4,24.85l-0.15-0.1
		c-0.1-0.1-0.167-0.25-0.2-0.45l0.3,0.4L49.4,24.85z M32.05,37.25l-0.75-0.1h-0.35l-1.5-0.25l-0.05-0.2
		c-0.067-0.134-0.367-0.3-0.9-0.5c-0.2-0.101-0.45-0.334-0.75-0.7c-1.233,0.733-2.217,1.1-2.95,1.1c-0.566-0.066-1-0.1-1.3-0.1
		c-0.4,0-0.733-0.017-1-0.05c-0.367-0.066-0.65-0.184-0.85-0.351c-0.367-0.1-0.617-0.183-0.75-0.25c-0.267-0.1-0.467-0.25-0.6-0.449
		L19.9,34.6l0.05-0.05l0.45,0.3c0.434,0.233,0.934,0.434,1.5,0.601c1.333,0.467,2.4,0.6,3.2,0.399c0.333-0.066,0.667-0.199,1-0.399
		c0.267-0.167,0.583-0.267,0.95-0.3c0.4-0.034,0.784,0.05,1.15,0.25c0.2,0.1,0.566,0.283,1.1,0.55c1.7,0.7,3.05,0.833,4.05,0.399
		c0.5-0.199,0.95-0.466,1.351-0.8l0.6-0.1c0.134-0.101,0.316-0.25,0.55-0.45H36.2c-0.2,0.866-0.584,1.434-1.15,1.7
		c-0.267,0.133-0.566,0.25-0.899,0.35H34.05h-0.1c-0.059,0.016-0.117,0.032-0.175,0.05C33.302,37.2,32.727,37.25,32.05,37.25z
		 M38.55,36.05H38.15l-1.2-0.8c0.6,0.134,1.383,0.134,2.35,0c1-0.233,1.783-0.517,2.351-0.85L42.7,33.6c0.633-0.5,1.2-0.8,1.7-0.899
		c0.199-0.033,0.733-0.017,1.6,0.05l-0.95,0.3l-1.95,1.4l-0.399,0.2c-0.2,0.267-0.367,0.466-0.5,0.6c-0.233,0.167-0.467,0.3-0.7,0.4
		C40.864,35.893,39.881,36.025,38.55,36.05z M34.6,18.75c0.2,0.067,0.45,0.2,0.75,0.4l0.9,0.25l0.65,0.5
		c-0.667-0.1-1.351-0.183-2.051-0.25c-0.1-0.1-0.183-0.183-0.25-0.25V18.75z M10.8,23.9c-0.466,0.366-0.833,0.75-1.1,1.149
		c-0.3,0.167-0.667,0.3-1.1,0.4v0.25c0.267,0.1,0.483,0.184,0.65,0.25c-0.033,0.1-0.067,0.2-0.1,0.3c-0.566-0.1-1.183-0.1-1.85,0
		V26.1l1.3-1.05c0.1-0.033,0.333-0.316,0.7-0.85c0.4-0.533,0.7-0.884,0.9-1.05c0.6-0.367,1.033-0.617,1.3-0.75
		C11.267,23,11.033,23.5,10.8,23.9z"/>
	<path style="fill-rule:evenodd;clip-rule:evenodd;fill:#A49753;" d="M41.75,20.95l-1.35-0.4c-1.101-0.267-2.25-0.483-3.45-0.65
		l-1.45-1.2l0.2,0.15l2,0.7l0.8,0.3l0.35-0.15c0.434-0.1,0.75-0.1,0.95,0c0.167,0.066,0.351,0.15,0.55,0.25
		c0.267,0.066,0.617,0.066,1.051,0l0.5-0.1c0.1,0.367,0.083,0.7-0.051,1L41.75,20.95z M49.05,24.3c0.033,0.2,0.101,0.351,0.2,0.45
		l0.15,0.1c0.199,0.134,0.566,0.284,1.1,0.45l0.15,0.101c-0.067,0.066-0.184,0.149-0.351,0.25L50,25.9h-0.25
		c-0.366-0.967-1.2-1.851-2.5-2.65c0.1,0,0.217,0,0.35,0c0.301,0,0.567,0.033,0.801,0.1c0.199,0.067,0.366,0.233,0.5,0.5L49.05,24.3
		z M47.75,22c0.1,0.3-0.3,0.483-1.2,0.55c-0.2,0-0.35,0.017-0.45,0.05l-1-0.55c-0.5-0.2-1.017-0.399-1.55-0.6h1.2
		c0.233,0.033,0.4,0.1,0.5,0.2c0.066,0.033,0.184,0.1,0.35,0.199C45.767,21.95,45.934,22,46.1,22c0.267,0.033,0.483,0.05,0.65,0.05
		c0.2,0,0.517-0.033,0.95-0.1C47.7,21.983,47.717,22,47.75,22z M50.25,31.8c-0.2,0.334-0.434,0.601-0.7,0.8
		c-0.033-0.066-0.05-0.149-0.05-0.25L49.45,31.9V31.85c0.033-0.399,0.05-0.649,0.05-0.75c0.134-0.966,0.4-1.583,0.8-1.85
		c0.2-0.134,0.467-0.184,0.8-0.15c0.267,0.067,0.517,0.184,0.75,0.351c0.434-0.3,0.7-0.634,0.801-1
		c0.133-0.367,0.149-0.684,0.05-0.95c-0.066-0.1-0.316-0.316-0.75-0.65L51.35,26.3c-0.166-0.133-0.316-0.233-0.449-0.3
		c-0.2-0.167-0.317-0.316-0.351-0.45c0.066-0.066,0.316-0.1,0.75-0.1l0.8,0.05c0.086,0.192,0.228,0.417,0.426,0.675
		c0.052,0.09,0.11,0.182,0.175,0.275c0.066,0.066,0.133,0.133,0.2,0.2c0.267,0.466,0.316,1,0.149,1.6c-0.1,0.333-0.3,0.616-0.6,0.85
		L52.4,29.15c-0.167,0.133-0.351,0.233-0.551,0.3c-0.051,0.013-0.101,0.029-0.149,0.05l-0.25,0.1h0.05
		c-0.2,0.101-0.35,0.25-0.45,0.45c-0.233,0.2-0.383,0.45-0.45,0.75C50.5,31.167,50.384,31.5,50.25,31.8z M10.1,32.9L9.9,32.85
		c-0.133-0.066-0.267-0.133-0.4-0.199H9.4C9,32.417,8.7,32.2,8.5,32l0.75,0.25c0.433,0.1,1.1,0.15,2,0.15
		c0.933,0.033,1.5,0.267,1.7,0.699l0.15,0.7c-0.1-0.066-0.184-0.116-0.25-0.149c-0.4-0.167-0.85-0.301-1.35-0.4c-0.1,0-0.2,0-0.3,0
		C10.867,33.15,10.5,33.033,10.1,32.9z M8.7,29.35h0.65l-0.6,0.15c-0.567,0.167-0.883,0.45-0.95,0.85v0.2
		c-0.3-0.233-0.566-0.467-0.8-0.7C6.533,29.45,6.233,29.066,6.1,28.7l-0.05-0.2C6.017,28.434,6,28.35,6,28.25
		c0.1,0.2,0.317,0.366,0.65,0.5c0.167,0.1,0.45,0.217,0.85,0.35C7.7,29.2,8.1,29.283,8.7,29.35z M36.95,35.25l1.2,0.8
		c-0.049,0-0.099,0-0.15,0l-0.6,0.101c-0.134,0-0.233,0.017-0.301,0.05c-0.699,0.233-1.316,0.434-1.85,0.6l-0.15,0.05
		c-0.066,0-0.133,0-0.199,0c-0.267,0.101-0.517,0.167-0.75,0.2c0.333-0.1,0.633-0.217,0.899-0.35c0.566-0.267,0.95-0.834,1.15-1.7
		C36.366,34.967,36.616,35.05,36.95,35.25z M38.9,36.05c-0.101,0-0.218,0-0.351,0c1.331-0.024,2.314-0.157,2.95-0.399
		c0.233-0.101,0.467-0.233,0.7-0.4c0.133-0.134,0.3-0.333,0.5-0.6l0.399-0.2l1.95-1.4l0.95-0.3l0.7-0.1
		c0.2-0.034,0.416-0.034,0.649,0l1.101,0.25c0.066,0.033,0.149,0.066,0.25,0.1c-0.233,0.066-0.584,0.15-1.05,0.25H47.2
		c-0.733,0.134-1.634,0.533-2.7,1.2c-1.134,0.7-2.083,1.133-2.85,1.3l-1.15,0.2c-0.333,0.066-0.667,0.1-1,0.1
		C39.4,36.05,39.2,36.05,38.9,36.05z M25.35,19.55c-1.133,0.067-2.25,0.184-3.35,0.35c0.1-0.267,0.2-0.45,0.3-0.55
		c0.4-0.434,0.85-0.667,1.35-0.7c0.3,0,0.583,0.083,0.85,0.25C24.8,19.067,25.083,19.283,25.35,19.55z M13.9,22.1
		c-1.3,0.567-2.333,1.167-3.1,1.801c0.233-0.4,0.467-0.9,0.7-1.5l0.05-0.101C11.65,22.134,11.8,22,12,21.9l0.05-0.051
		c0.1-0.066,0.284-0.1,0.55-0.1h0.2c0.2,0.033,0.5,0.134,0.9,0.3C13.767,22.05,13.833,22.066,13.9,22.1z M18.9,20.45
		c-0.933,0.233-1.833,0.5-2.7,0.8c0.066-0.134,0.216-0.267,0.45-0.4c0.3-0.199,0.6-0.333,0.9-0.399
		C17.883,20.35,18.333,20.35,18.9,20.45z M34.85,19.65c-0.767-0.1-1.55-0.167-2.35-0.2c0.467-0.4,1.083-0.667,1.85-0.8h0.25v0.1
		v0.65C34.667,19.467,34.75,19.55,34.85,19.65z M9.7,25.05c-0.2,0.267-0.35,0.566-0.45,0.9C9.083,25.884,8.867,25.8,8.6,25.7v-0.25
		C9.033,25.35,9.4,25.217,9.7,25.05z M19.75,34.65l0.15-0.101v0.05l0.4,0.801c0.133,0.199,0.333,0.35,0.6,0.449
		c0.133,0.067,0.383,0.15,0.75,0.25c0.2,0.167,0.483,0.284,0.85,0.351c0.267,0.033,0.6,0.05,1,0.05c0.3,0,0.733,0.033,1.3,0.1
		c0.733,0,1.717-0.366,2.95-1.1c0.3,0.366,0.55,0.6,0.75,0.7c0.533,0.2,0.833,0.366,0.9,0.5l0.05,0.2L29.2,36.85
		c-0.088,0-0.171,0-0.25,0H28.9l-0.4-0.1c-0.133-0.033-0.233-0.05-0.3-0.05h-0.1c-0.033,0-0.083,0-0.15,0c-0.034,0-0.067,0-0.1,0
		c-1.067,0.066-1.917,0.116-2.55,0.149c-1.133,0-2.233-0.066-3.3-0.199l-0.7-0.2c-0.4-0.101-0.8-0.283-1.2-0.55
		c-0.133-0.101-0.4-0.134-0.8-0.101l-0.55,0.05c-0.533,0.067-1.033,0.067-1.5,0c0.033,0,0.067,0,0.1,0h0.05
		c0.2-0.033,0.417-0.1,0.65-0.199c0.4-0.101,0.8-0.284,1.2-0.551C19.317,35.066,19.483,34.917,19.75,34.65z"/>
	<path style="fill-rule:evenodd;clip-rule:evenodd;fill:#786027;" d="M36.9,19.9h0.05c1.2,0.167,2.35,0.383,3.45,0.65l1.35,0.4
		l1.8,0.5c0.533,0.2,1.05,0.399,1.55,0.6l1,0.55l0.851,0.476c0.085,0.035,0.169,0.094,0.25,0.175c0.2,0.134,0.399,0.267,0.6,0.4
		c-4.033-2.034-8.883-3.217-14.55-3.551L33.1,19.95c-0.1,0-0.166,0-0.199,0c-0.067-0.034-0.117-0.05-0.15-0.05
		c-0.366-0.1-0.55-0.217-0.55-0.35V19.5v-0.05c0.1,0,0.2,0,0.3,0c0.8,0.033,1.583,0.1,2.35,0.2C35.55,19.717,36.233,19.8,36.9,19.9z
		 M9.25,25.95c0.1-0.334,0.25-0.634,0.45-0.9c0.267-0.399,0.633-0.783,1.1-1.149c0.767-0.634,1.8-1.233,3.1-1.801
		c0.367-0.166,0.75-0.316,1.15-0.449c0.367-0.134,0.75-0.267,1.15-0.4c0.867-0.3,1.767-0.566,2.7-0.8c1-0.233,2.033-0.417,3.1-0.55
		c1.1-0.167,2.217-0.283,3.35-0.35c0.867-0.066,1.75-0.1,2.65-0.1c-0.333,0.2-0.583,0.4-0.75,0.6
		c-0.467,0.033-0.917,0.066-1.35,0.101c-1.467,0.1-2.867,0.267-4.2,0.5c-0.5,0.066-0.967,0.149-1.4,0.25
		c-1.066,0.233-2.1,0.483-3.1,0.75c-0.067,0-0.133,0.017-0.2,0.05c-0.8,0.233-1.55,0.5-2.25,0.8c-2.333,0.967-4,2.217-5,3.75
		c-0.033,0.033-0.05,0.066-0.05,0.1c-0.267,0.367-0.467,0.767-0.6,1.2l-0.05-0.5c0-0.267,0.034-0.533,0.1-0.8
		C9.183,26.15,9.217,26.05,9.25,25.95z M36.25,23.625c-0.02-0.042-0.036-0.084-0.05-0.125c0.6,0.366,0.967,0.684,1.1,0.95
		c0.2,0.366,0.101,0.833-0.3,1.399c-0.434,0.601-0.783,0.967-1.05,1.101c-0.367,0.2-1.184,0.399-2.45,0.6
		c-1.134,0.167-2.083,0.15-2.85-0.05c-1.167-0.366-2.284-0.717-3.351-1.05c-1.367-0.367-2.35-0.9-2.95-1.601
		c0.1,0.067,0.217,0.134,0.35,0.2c0.133,0.134,0.333,0.25,0.6,0.351c0.034,0.033,0.1,0.05,0.2,0.05c0.133,0.066,0.267,0.133,0.4,0.2
		c0.9,0.333,1.667,0.6,2.3,0.8c0.2,0,0.367,0.033,0.5,0.1c0.066,0,0.133,0.017,0.2,0.05c0.267,0.034,0.55,0.067,0.85,0.101h0.55
		c0.7-0.033,1.483-0.117,2.351-0.25c1.399-0.233,2.416-0.667,3.05-1.3c0.1-0.101,0.184-0.217,0.25-0.351l0.3-0.95V23.625z"/>
	
		<radialGradient id="SVGID_1_" cx="29.1504" cy="26.75" r="21.0625" gradientTransform="matrix(1 0 0 -0.3792 0 36.8944)" gradientUnits="userSpaceOnUse">
		<stop  offset="0" style="stop-color:#C59F4D"/>
		<stop  offset="1" style="stop-color:#9D7B34"/>
	</radialGradient>
	<path style="fill-rule:evenodd;clip-rule:evenodd;fill:url(#SVGID_1_);" d="M18.95,33.65c-1.067-0.267-2.083-0.551-3.05-0.851
		c-0.3-0.1-0.583-0.217-0.85-0.35c-1.533-0.533-2.767-1.134-3.7-1.8c-0.434-0.301-0.783-0.584-1.05-0.851
		c-0.833-0.866-1.25-1.783-1.25-2.75l0.05,0.5c0.133-0.434,0.333-0.833,0.6-1.2c0-0.033,0.017-0.066,0.05-0.1
		c1-1.533,2.667-2.783,5-3.75c0.7-0.3,1.45-0.566,2.25-0.8c0.067-0.033,0.133-0.05,0.2-0.05c1-0.267,2.033-0.517,3.1-0.75
		c0.434-0.101,0.9-0.184,1.4-0.25c1.333-0.233,2.733-0.4,4.2-0.5c0.434-0.034,0.883-0.067,1.35-0.101
		c-0.1,0.134-0.167,0.267-0.2,0.4l-0.1,0.05c-0.067,0.1-0.217,0.2-0.45,0.3c-0.167,0.066-0.3,0.167-0.4,0.3
		c-0.133,0.067-0.217,0.15-0.25,0.25c-0.033,0.034-0.067,0.067-0.1,0.101c-0.133,0.2-0.3,0.399-0.5,0.6
		c-0.1,0.066-0.167,0.134-0.2,0.2c-0.233,0.233-0.383,0.417-0.45,0.55c-0.133,0.167-0.233,0.316-0.3,0.45h-0.05
		c-0.167,0.167-0.267,0.35-0.3,0.55c-0.034,0.034-0.05,0.068-0.05,0.101v0.05V24c0,0.2,0.067,0.384,0.2,0.55
		c0.066,0.101,0.15,0.2,0.25,0.3c0.6,0.7,1.583,1.233,2.95,1.601c1.067,0.333,2.184,0.684,3.351,1.05
		c0.767,0.2,1.716,0.217,2.85,0.05c1.267-0.2,2.083-0.399,2.45-0.6c0.267-0.134,0.616-0.5,1.05-1.101c0.4-0.566,0.5-1.033,0.3-1.399
		c-0.133-0.267-0.5-0.584-1.1-0.95l-0.05-0.05c-0.034-0.091-0.067-0.175-0.101-0.25c-0.1-0.167-0.166-0.283-0.2-0.351
		c-0.066-0.133-0.116-0.216-0.149-0.25c-0.066-0.066-0.25-0.149-0.55-0.25c-0.067-0.033-0.25-0.083-0.551-0.149
		c-0.1-0.033-0.166-0.066-0.199-0.101l-0.051-0.05L34.3,22c-0.267-0.233-0.434-0.55-0.5-0.95c0-0.133-0.05-0.283-0.149-0.45
		c-0.067-0.1-0.15-0.216-0.25-0.35l-0.15-0.15c5.667,0.334,10.517,1.517,14.55,3.551c-0.2-0.134-0.399-0.267-0.6-0.4
		c-0.081-0.081-0.165-0.14-0.25-0.175c0.091,0.035,0.19,0.093,0.3,0.175c1.3,0.8,2.134,1.684,2.5,2.65
		c0.134,0.366,0.2,0.75,0.2,1.149c0,2.134-2,3.934-6,5.4c-2.3,0.866-4.867,1.483-7.7,1.85c-1.5,0.2-3.083,0.316-4.75,0.351
		c-0.667,0.033-1.333,0.05-2,0.05c-1.2,0-2.35-0.017-3.45-0.05c-1.433-0.134-2.816-0.284-4.15-0.45
		C20.867,34.033,19.883,33.85,18.95,33.65z"/>
	<linearGradient id="SVGID_2_" gradientUnits="userSpaceOnUse" x1="10.3877" y1="35.7998" x2="50.2127" y2="35.7998">
		<stop  offset="0" style="stop-color:#BEA95B"/>
		<stop  offset="0.4" style="stop-color:#BEA95B"/>
		<stop  offset="1" style="stop-color:#665A2D"/>
	</linearGradient>
	<path style="fill-rule:evenodd;clip-rule:evenodd;fill:url(#SVGID_2_);" d="M37.4,36.15c0.333-0.034,0.833-0.067,1.5-0.101
		c0.3,0,0.5,0,0.6,0c0.333,0,0.667-0.033,1-0.1l1.15-0.2c0.767-0.167,1.716-0.6,2.85-1.3c1.066-0.667,1.967-1.066,2.7-1.2h0.45
		c0.466-0.1,0.816-0.184,1.05-0.25c0.267-0.066,0.55-0.2,0.85-0.4c0.267-0.199,0.5-0.466,0.7-0.8c-0.1,2.167-2.05,4.033-5.85,5.601
		C40.5,39,35.8,39.8,30.3,39.8c-5.466,0-10.15-0.8-14.05-2.399c-3-1.233-4.833-2.65-5.5-4.25c0.133,0.033,0.283,0.066,0.45,0.1
		c0.1,0,0.2,0,0.3,0c0.5,0.1,0.95,0.233,1.35,0.4c0.066,0.033,0.15,0.083,0.25,0.149c0.133,0.033,0.283,0.117,0.45,0.25
		c0.233,0.134,0.517,0.334,0.85,0.601c0.167,0.1,0.333,0.199,0.5,0.3l1.15,0.6c0.367,0.167,0.767,0.267,1.2,0.3
		c0.467,0.067,0.967,0.067,1.5,0l0.55-0.05c0.434,0,0.733,0.066,0.9,0.2c0.367,0.3,0.966,0.517,1.8,0.65
		c1.067,0.133,2.167,0.199,3.3,0.199c0.633-0.033,1.483-0.083,2.55-0.149c0.033,0,0.066,0,0.1,0c0.066,0,0.117,0,0.15,0h0.1
		c0.066,0,0.167,0.017,0.3,0.05l0.4,0.1h0.05c0.112,0.004,0.229,0.021,0.35,0.051c0.601,0.133,1.384,0.25,2.351,0.35
		c0.132,0,0.266,0,0.399,0c0.677,0,1.252-0.05,1.726-0.15c0.089-0.018,0.181-0.034,0.274-0.05h0.101c0.233-0.033,0.483-0.1,0.75-0.2
		c0.066,0,0.133,0,0.199,0l0.15-0.05c0.533-0.166,1.15-0.366,1.85-0.6C37.167,36.167,37.267,36.15,37.4,36.15z"/>
	<path style="fill-rule:evenodd;clip-rule:evenodd;fill:#FFFCF0;" d="M27.05,20.45c0.034-0.134,0.1-0.267,0.2-0.4
		c0.167-0.2,0.417-0.4,0.75-0.6c0.067-0.1,0.167-0.167,0.3-0.2c0.4-0.267,0.633-0.567,0.7-0.9c0-0.067,0-0.117,0-0.15
		c0.233-0.534,0.616-0.75,1.15-0.65c0.199,0.067,0.383,0.133,0.55,0.2c-0.733,0.233-0.9,0.567-0.5,1l0.25,0.3
		c0.033,0.133-0.017,0.267-0.15,0.4c-0.233,0.2-0.7,0.333-1.4,0.4c-0.066,0.167,0.183,0.3,0.75,0.4c0.033,0,0.183,0.066,0.449,0.2
		c0.367,0,0.617-0.017,0.75-0.05l0.801,0.05l-0.15,0.1l-0.5,0.2c-0.333,0.066-0.517,0.134-0.55,0.2s-0.017,0.2,0.05,0.399
		c0.066,0.233,0.066,0.434,0,0.601c-0.134,0.267-0.434,0.416-0.9,0.45c-0.533,0-0.899,0.017-1.1,0.05c-0.1,0.366,0.317,0.6,1.25,0.7
		c0.634,0.066,1.217,0.083,1.75,0.05L30.3,23.1l2.351,0.051L32.7,23.1l0.2,0.15c0.1,0.167,0,0.4-0.301,0.7
		c-0.233,0.233-0.833,0.399-1.8,0.5c-0.366-0.066-0.633-0.084-0.8-0.05c-0.1,0.033-0.167,0.05-0.2,0.05s-0.033,0.05,0,0.149
		c0.2,0.534,0.217,0.884,0.05,1.051c-0.1,0.033-0.283,0.05-0.55,0.05c-0.267-0.033-0.45-0.05-0.55-0.05
		c-0.467,0-0.817-0.017-1.05-0.051c-0.4-0.1-0.934-0.383-1.6-0.85c-0.167-0.167-0.333-0.2-0.5-0.1l-0.1,0.05
		c0.033-0.434,0-0.733-0.1-0.9c-0.133-0.2-0.283-0.283-0.45-0.25c-0.167,0.033-0.3,0.134-0.4,0.3l-0.25-0.6
		c0.067-0.134,0.167-0.283,0.3-0.45c0.066-0.133,0.217-0.316,0.45-0.55c0.034-0.066,0.1-0.134,0.2-0.2c0.2-0.2,0.367-0.399,0.5-0.6
		L25.7,21.6l0.2,0.7c0.133,0.233,0.333,0.384,0.6,0.45c0.333,0.033,0.517-0.033,0.55-0.2c0.6-0.066,0.983-0.267,1.15-0.6l-0.4,0.1
		c-0.066,0.167-0.383,0.233-0.95,0.2c-0.533-0.134-0.85-0.333-0.95-0.6V21.3l-0.05,0.05c0.033-0.1,0.117-0.183,0.25-0.25
		c0.1-0.133,0.233-0.233,0.4-0.3c0.233-0.1,0.383-0.2,0.45-0.3L27,20.55c0.067,0.134,0.3,0.267,0.7,0.4
		c-0.034-0.033-0.1-0.084-0.2-0.15C27.3,20.7,27.15,20.583,27.05,20.45z M23.9,23.95V23.9c0-0.032,0.017-0.066,0.05-0.101
		C23.923,23.83,23.906,23.88,23.9,23.95z M29.6,20.2l-0.25-0.15c0.334-0.033,0.851-0.033,1.551,0l0.199-0.1
		c-0.133,0.2-0.366,0.267-0.699,0.2c-0.367-0.067-0.634-0.101-0.801-0.101V20.2z M31.825,18.825c0.22,0.144,0.345,0.353,0.375,0.625
		v0.05l-0.05-0.2C32.092,19.095,31.983,18.937,31.825,18.825z M32.2,22.65c-0.069,0.035-0.119,0.068-0.15,0.1
		c-0.033,0-0.066,0-0.1,0C32.044,22.719,32.127,22.686,32.2,22.65z M33.25,20.1l0.15,0.15c0.1,0.134,0.183,0.25,0.25,0.35
		L33.1,19.95L33.25,20.1z M28.9,26.6c0.033,0,0.1,0,0.2,0c0.2,0.034,0.417,0.067,0.65,0.101C29.45,26.667,29.167,26.634,28.9,26.6z
		 M36.15,23.45l0.05,0.05c0.014,0.041,0.03,0.083,0.05,0.125C36.22,23.563,36.187,23.505,36.15,23.45z"/>
	<path style="fill-rule:evenodd;clip-rule:evenodd;fill:#F0E6C1;" d="M30.75,17.8l0.1,0.05c-0.3,0.1-0.383,0.25-0.25,0.45
		c0,0.034,0.034,0.083,0.101,0.15c0.066,0,0.1,0.05,0.1,0.15c0,0.2-0.1,0.333-0.3,0.4c0.167,0.033,0.35,0,0.55-0.1l0.05-0.05
		c0.134-0.033,0.267-0.1,0.4-0.2h0.05l0.101,0.1l0.1,0.05h0.025l0.05,0.025c0.158,0.112,0.267,0.27,0.325,0.475L32.1,19.45
		c-0.133,0.2-0.433,0.35-0.899,0.45L31.1,19.95l-0.199,0.1c-0.7-0.033-1.217-0.033-1.551,0l0.25,0.15l0.051,0.05
		c-0.567-0.1-0.817-0.233-0.75-0.4c0.7-0.067,1.167-0.2,1.4-0.4c0.134-0.133,0.184-0.267,0.15-0.4l-0.25-0.3
		c-0.4-0.433-0.233-0.767,0.5-1L30.75,17.8z M23.95,23.8c0.033-0.2,0.133-0.383,0.3-0.55h0.05l0.25,0.6
		c-0.167,0.334-0.3,0.551-0.4,0.65l-0.05,0.05c-0.133-0.166-0.2-0.35-0.2-0.55v-0.05C23.906,23.88,23.923,23.83,23.95,23.8z
		 M34.4,22.1v0.051l-0.051,0.6c-0.033,0.2,0,0.3,0.101,0.3c0.033,0.033,0.133,0.101,0.3,0.2c0.5,0.267,0.483,0.8-0.05,1.6
		c-0.134,0.233-0.3,0.4-0.5,0.5c-0.4,0.2-0.834,0.334-1.3,0.4c-0.267,0.1-0.483,0.167-0.65,0.2c-0.3,0.066-0.517,0.033-0.65-0.101
		V25.65c-0.133-0.134-0.267-0.217-0.399-0.25c-0.066-0.034-0.334-0.084-0.8-0.15c0.033,0.333-0.233,0.517-0.801,0.55
		c-0.633-0.033-1.033-0.05-1.2-0.05c-0.5,0-0.867-0.033-1.1-0.1L26,25.4l-0.3,0.05l-0.2-0.4V24.7l0.1-0.05
		c0.167-0.101,0.333-0.067,0.5,0.1c0.667,0.467,1.2,0.75,1.6,0.85c0.233,0.034,0.583,0.051,1.05,0.051c0.1,0,0.283,0.017,0.55,0.05
		c0.267,0,0.45-0.017,0.55-0.05c0.167-0.167,0.15-0.517-0.05-1.051c-0.033-0.1-0.033-0.149,0-0.149S29.9,24.434,30,24.4
		c0.167-0.034,0.434-0.017,0.8,0.05c0.967-0.101,1.566-0.267,1.8-0.5c0.301-0.3,0.4-0.533,0.301-0.7l-0.2-0.15
		c0.133-0.033,0.3-0.116,0.5-0.25c0.133-0.066,0.366-0.166,0.7-0.3l0.449-0.5L34.4,22.1z M30.3,23.1l1.2,0.101
		c-0.533,0.033-1.116,0.017-1.75-0.05c-0.933-0.101-1.35-0.334-1.25-0.7c0.2-0.033,0.566-0.05,1.1-0.05
		c0.467-0.034,0.767-0.184,0.9-0.45c0.066-0.167,0.066-0.367,0-0.601c-0.066-0.199-0.083-0.333-0.05-0.399s0.217-0.134,0.55-0.2
		l0.5-0.2l0.15-0.1h0.199c0.167,0,0.334-0.066,0.5-0.2c0.101-0.066,0.233-0.184,0.4-0.35c0.033,0,0.083,0.017,0.15,0.05
		c0.033,0,0.1,0,0.199,0L33.65,20.6c-0.067,0.167-0.25,0.25-0.551,0.25c-0.466,0-0.683,0.167-0.649,0.5
		c0,0.034,0.083,0.184,0.25,0.45c0.133,0.134,0.116,0.283-0.05,0.45l-0.2,0.2c-0.101,0.1-0.184,0.166-0.25,0.2
		c-0.073,0.035-0.156,0.068-0.25,0.1c-0.033,0.033-0.066,0.05-0.101,0.05H31.7c-0.434-0.066-0.717-0.083-0.851-0.05l0.15,0.1h-1.9
		C29.233,22.95,29.634,23.033,30.3,23.1z M26.85,22.25l-0.75-0.1c-0.1,0.267,0.133,0.399,0.7,0.399h0.25
		c-0.033,0.167-0.216,0.233-0.55,0.2c-0.267-0.066-0.467-0.217-0.6-0.45l-0.2-0.7l0.05-0.149c0.033-0.033,0.067-0.066,0.1-0.101
		l0.05-0.05v0.351C26,21.917,26.317,22.116,26.85,22.25z M26.95,20.5l0.1-0.05c0.1,0.133,0.25,0.25,0.45,0.35
		c0.1,0.066,0.167,0.117,0.2,0.15c-0.4-0.134-0.633-0.267-0.7-0.4L26.95,20.5z"/>
	<path style="fill-rule:evenodd;clip-rule:evenodd;fill:#CDC194;" d="M24.35,24.85c-0.1-0.1-0.184-0.199-0.25-0.3l0.05-0.05
		c0.1-0.1,0.233-0.316,0.4-0.65c0.1-0.166,0.233-0.267,0.4-0.3c0.167-0.033,0.316,0.05,0.45,0.25c0.1,0.167,0.133,0.467,0.1,0.9
		v0.35l0.2,0.4L26,25.4l1.3,0.25c0.233,0.066,0.6,0.1,1.1,0.1c0.167,0,0.567,0.017,1.2,0.05c0.567-0.033,0.834-0.217,0.801-0.55
		c0.466,0.066,0.733,0.116,0.8,0.15c0.133,0.033,0.267,0.116,0.399,0.25v0.199c0.134,0.134,0.351,0.167,0.65,0.101
		c0.167-0.033,0.384-0.101,0.65-0.2c0.466-0.066,0.899-0.2,1.3-0.4c0.2-0.1,0.366-0.267,0.5-0.5c0.533-0.8,0.55-1.333,0.05-1.6
		c-0.167-0.1-0.267-0.167-0.3-0.2c-0.101,0-0.134-0.1-0.101-0.3l0.051-0.6V22.1c0.033,0.034,0.1,0.067,0.199,0.101
		c0.301,0.066,0.483,0.116,0.551,0.149c0.3,0.101,0.483,0.184,0.55,0.25c0.033,0.034,0.083,0.117,0.149,0.25
		c0.034,0.067,0.101,0.184,0.2,0.351c0,0.3-0.05,0.483-0.149,0.55c-0.134,0-0.267,0.017-0.4,0.05c-0.134,0.066-0.2,0.233-0.2,0.5
		c0,0.367,0,0.584,0,0.65c-0.066,0.133-0.184,0.233-0.35,0.3c-0.2,0-0.351,0-0.45,0c-0.233,0.066-0.434,0.2-0.6,0.4
		c-0.334,0.333-0.65,0.533-0.95,0.6c-0.834,0.066-1.434,0.116-1.8,0.15L30.3,26.45c-0.366,0-0.833-0.066-1.4-0.2
		c-0.167,0-0.45-0.066-0.85-0.2c-0.367-0.133-0.65-0.2-0.85-0.2h-0.6l-0.45-0.199H25.9c-0.133-0.067-0.267-0.134-0.4-0.2
		c-0.1,0-0.167-0.017-0.2-0.05c-0.033-0.101-0.05-0.267-0.05-0.5c0.033-0.2,0.017-0.351-0.05-0.45c-0.267-0.334-0.434-0.134-0.5,0.6
		C24.567,24.983,24.45,24.917,24.35,24.85z M26.85,22.25c0.566,0.033,0.883-0.033,0.95-0.2l0.4-0.1
		c-0.167,0.333-0.55,0.533-1.15,0.6H26.8c-0.566,0-0.8-0.133-0.7-0.399L26.85,22.25z M30.3,23.1c-0.666-0.066-1.066-0.149-1.2-0.25
		H31c0.4,0.2,0.85,0.233,1.35,0.101c0.534-0.101,0.917-0.334,1.15-0.7l-0.2-0.2c-0.133,0.167-0.467,0.367-1,0.601l-0.25,0.1
		c0.031-0.031,0.081-0.064,0.15-0.1c0.066-0.034,0.149-0.101,0.25-0.2l0.2-0.2c0.166-0.167,0.183-0.316,0.05-0.45
		c-0.167-0.267-0.25-0.416-0.25-0.45c-0.033-0.333,0.184-0.5,0.649-0.5c0.301,0,0.483-0.083,0.551-0.25
		c0.1,0.167,0.149,0.317,0.149,0.45c0.066,0.4,0.233,0.717,0.5,0.95l0.05,0.05l-0.449,0.5c-0.334,0.134-0.567,0.233-0.7,0.3
		c-0.2,0.134-0.367,0.217-0.5,0.25l-0.05,0.051L30.3,23.1z M30.85,20.4c0.367-0.101,0.717-0.284,1.051-0.55l-0.7,0.05
		c0.467-0.1,0.767-0.25,0.899-0.45l0.051-0.15l0.05,0.2v0.05c0,0.133,0.184,0.25,0.55,0.35c-0.167,0.167-0.3,0.284-0.4,0.35
		c-0.166,0.134-0.333,0.2-0.5,0.2H31.65L30.85,20.4z M30.85,17.85l0.2,0.2h0.05c0.134,0.133,0.267,0.333,0.4,0.6
		c-0.134,0.1-0.267,0.167-0.4,0.2l-0.05,0.05c-0.2,0.1-0.383,0.133-0.55,0.1c0.2-0.067,0.3-0.2,0.3-0.4c0-0.1-0.033-0.15-0.1-0.15
		c-0.066-0.067-0.101-0.117-0.101-0.15C30.467,18.1,30.55,17.95,30.85,17.85z"/>
	<path style="fill-rule:evenodd;clip-rule:evenodd;fill:#958B6A;" d="M31.2,19.9l0.7-0.05c-0.334,0.266-0.684,0.45-1.051,0.55
		c-0.133,0.033-0.383,0.05-0.75,0.05c-0.267-0.134-0.416-0.2-0.449-0.2L29.6,20.2v-0.15c0.167,0,0.434,0.033,0.801,0.101
		c0.333,0.066,0.566,0,0.699-0.2L31.2,19.9z M32.05,22.75l0.25-0.1c0.533-0.233,0.867-0.434,1-0.601l0.2,0.2
		c-0.233,0.366-0.616,0.6-1.15,0.7c-0.5,0.133-0.949,0.1-1.35-0.101l-0.15-0.1c0.134-0.033,0.417-0.017,0.851,0.05h0.149
		c0.034,0,0.067-0.017,0.101-0.05C31.983,22.75,32.017,22.75,32.05,22.75z M29.75,26.7c-0.233-0.033-0.45-0.066-0.65-0.101
		c-0.1,0-0.167,0-0.2,0c-0.066-0.033-0.133-0.05-0.2-0.05c-0.133-0.066-0.3-0.1-0.5-0.1c-0.633-0.2-1.4-0.467-2.3-0.8h0.25
		l0.45,0.199h0.6c0.2,0,0.483,0.067,0.85,0.2c0.4,0.134,0.684,0.2,0.85,0.2c0.567,0.134,1.034,0.2,1.4,0.2l0.851-0.05
		c0.366-0.034,0.966-0.084,1.8-0.15c0.3-0.066,0.616-0.267,0.95-0.6c0.166-0.2,0.366-0.334,0.6-0.4c0.1,0,0.25,0,0.45,0
		c0.166-0.066,0.283-0.167,0.35-0.3c0-0.066,0-0.283,0-0.65c0-0.267,0.066-0.434,0.2-0.5c0.134-0.033,0.267-0.05,0.4-0.05
		c0.1-0.066,0.149-0.25,0.149-0.55c0.033,0.075,0.066,0.159,0.101,0.25c0.036,0.055,0.069,0.113,0.1,0.175v0.225l-0.3,0.95
		c-0.066,0.134-0.15,0.25-0.25,0.351c-0.634,0.633-1.65,1.066-3.05,1.3C31.783,26.583,31,26.667,30.3,26.7H29.75z M24.7,25.05
		c0.066-0.733,0.233-0.934,0.5-0.6c0.066,0.1,0.083,0.25,0.05,0.45c0,0.233,0.017,0.399,0.05,0.5
		C25.033,25.3,24.833,25.184,24.7,25.05z"/>
</g>
</svg>
