<?xml version="1.0" encoding="iso-8859-1"?>
<!-- Generator: Adobe Illustrator 15.1.0, SVG Export Plug-In . SVG Version: 6.00 Build 0)  -->
<!DOCTYPE svg PUBLIC "-//W3C//DTD SVG 1.1//EN" "http://www.w3.org/Graphics/SVG/1.1/DTD/svg11.dtd">
<svg version="1.1" id="FlashAICB" xmlns="http://www.w3.org/2000/svg" xmlns:xlink="http://www.w3.org/1999/xlink" x="0px" y="0px"
	 width="67.4px" height="52.7px" viewBox="0 0 67.4 52.7" style="enable-background:new 0 0 67.4 52.7;" xml:space="preserve">
<g>
	<rect x="-0.4" y="0.15" style="fill-rule:evenodd;clip-rule:evenodd;fill:#FFFFFF;fill-opacity:0;" width="42.75" height="42.75"/>
</g>
<g>
	<path style="fill-rule:evenodd;clip-rule:evenodd;fill:#B168E1;" d="M31.15,7.35c-0.267,0.7-0.6,1.533-1,2.5
		c0.467-0.4,0.917-0.783,1.35-1.15v0.05c-0.567,0.733-1.25,1.5-2.05,2.3c-0.034-0.066-0.05-0.283-0.05-0.65
		c0.067-0.566,0.117-0.917,0.15-1.05c0.133-0.367,0.367-0.833,0.7-1.4c0.333-0.6,0.567-1.067,0.7-1.4c0.267-0.8,0.533-1.4,0.8-1.8
		l0.05-0.1c0.1,0.067,0.167,0.167,0.2,0.3c0.1,0.2,0.083,0.433-0.05,0.7c-0.067,0.167-0.167,0.367-0.3,0.6l-0.05,0.1
		c-0.033,0.033-0.05,0.066-0.05,0.1c-0.033,0.133-0.1,0.267-0.2,0.4L31.15,7.35z M23.25,10.05l-0.05,0.4v0.5
		c-0.034-0.067-0.083-0.233-0.15-0.5c-0.267-0.767-0.466-1.35-0.6-1.75l-0.3-0.8C22.217,8,22.3,8.1,22.4,8.2l0.1,0.1L23,9.45
		l0.2,0.8L23.25,10.05z M26.15,6.05l-0.1,0.4c-0.033,0.066-0.066,0.133-0.1,0.2V6.7c-0.002,0.069-0.036,0.169-0.1,0.3v0.05H25.8
		c-0.367,0.967-0.583,1.6-0.65,1.9C25.083,9.117,25.033,9.267,25,9.4l-0.2-0.35c-0.033-0.1-0.05-0.316-0.05-0.65l0.1-0.65
		C24.883,7.083,24.933,6.6,25,6.3c0.3-1.133,0.467-1.716,0.5-1.75c0.133-0.367,0.383-0.733,0.75-1.1l0.5-0.3
		c-0.033,0.434-0.167,1.117-0.4,2.05C26.35,5.433,26.283,5.717,26.15,6.05z"/>
	
		<radialGradient id="SVGID_1_" cx="31.626" cy="-10.2183" r="14.6745" gradientTransform="matrix(0.6244 0.7811 0.5596 -0.4736 13.5217 -11.4435)" gradientUnits="userSpaceOnUse">
		<stop  offset="0" style="stop-color:#FFFFFF"/>
		<stop  offset="0.9882" style="stop-color:#CF80F9"/>
	</radialGradient>
	<path style="fill-rule:evenodd;clip-rule:evenodd;fill:url(#SVGID_1_);" d="M25.85,7c0.064-0.131,0.098-0.231,0.1-0.3
		c0,0.037,0,0.087,0,0.15C25.919,6.881,25.885,6.931,25.85,7z M24.45,12.45c-0.034,0.07-0.05,0.153-0.05,0.25
		c-0.033,0.3-0.1,0.533-0.2,0.7c0.3-0.2,0.55-0.633,0.75-1.3c0.233-0.967,0.367-1.467,0.4-1.5c0.667-1.567,1.5-2.783,2.5-3.65
		c0.066-0.067,0.133-0.1,0.2-0.1c0.133-0.133,0.3-0.267,0.5-0.4c0.2-0.2,0.434-0.4,0.7-0.6c0.567-0.467,1.067-0.817,1.5-1.05
		c0.267-0.2,0.483-0.3,0.65-0.3c0.167-0.033,0.3,0.017,0.4,0.15l-0.05,0.1c-0.267,0.4-0.533,1-0.8,1.8
		c-0.133,0.333-0.367,0.8-0.7,1.4c-0.333,0.566-0.567,1.033-0.7,1.4c-0.033,0.133-0.083,0.483-0.15,1.05
		c0,0.367,0.017,0.583,0.05,0.65c0.8-0.8,1.483-1.566,2.05-2.3V8.7c0.3-0.267,0.6-0.483,0.9-0.65c0.267-0.233,0.533-0.417,0.8-0.55
		c1.233-0.733,2.033-0.8,2.399-0.2C35.667,7.4,35.7,7.783,35.7,8.45c0,0.3,0,0.617,0,0.95c-0.066,0.6-0.15,1.15-0.25,1.65
		C35.35,11.483,35.2,11.867,35,12.2l-0.65,1.1l-2,1.85c-0.133,0.133-0.25,0.233-0.35,0.3c-0.133,0.133-0.2,0.25-0.2,0.35
		c0.4-0.233,1.05-0.483,1.95-0.75c0.2-0.033,0.467-0.167,0.8-0.4c0.267-0.133,0.733-0.316,1.4-0.55
		c1.166-0.467,2.316-1.233,3.45-2.3c-0.034,0.1-0.051,0.217-0.051,0.35c-0.199,0.733-0.666,1.5-1.399,2.3H37.85l-1.55,1.2
		c-0.666,0.333-1.166,0.6-1.5,0.8c-0.7,0.167-1.184,0.35-1.45,0.55c0.434,0.1,0.75,0.117,0.95,0.05c0.267-0.033,0.733-0.1,1.4-0.2
		c0.566-0.1,1.017-0.184,1.35-0.25l2.101-0.55l-0.101,0.1c-1,1-1.767,1.717-2.3,2.15l-0.2,0.15c-0.666,0.367-1.166,0.617-1.5,0.75
		c-0.333,0.1-0.833,0.183-1.5,0.25l0.3-0.4c-0.133,0-0.3,0.05-0.5,0.15c-0.166,0.167-0.3,0.25-0.399,0.25l-0.15,0.1
		c-0.1,0-0.183,0-0.25,0c-0.3,0.034-0.5,0.1-0.6,0.2c0.033,0.033,0.1,0.067,0.2,0.1l-0.45,0.2c-0.367,0.1-0.684,0.184-0.95,0.25
		c-0.067-0.033-0.15-0.05-0.25-0.05c-0.367,0-0.65,0-0.85,0l0.1-0.1c0.133-0.066,0.267-0.167,0.4-0.3l1.6-1.3
		c0.133-0.133,0.4-0.316,0.8-0.55c-0.267,0.033-0.533,0.067-0.8,0.1l0.05-0.05l0.55-1c-0.267,0.267-0.85,0.65-1.75,1.15
		c-0.434,0-0.867-0.017-1.3-0.05c-0.167-0.033-0.316-0.033-0.45,0l0.05-0.05c0.3-0.3,0.483-0.533,0.55-0.7
		c0.433-0.6,0.667-1.05,0.7-1.35c-0.267,0.133-0.617,0.35-1.05,0.65c-0.133,0.1-0.25,0.183-0.35,0.25
		c0.533-1.9,0.917-3.083,1.15-3.55l0.2-0.3c-1.1,0.933-1.883,1.8-2.35,2.6c-0.253,0.507-0.47,0.898-0.65,1.175L27.05,16.9
		c-0.021,0.035-0.047,0.068-0.075,0.1H26.95l-0.5,0.4l0.1-0.35c-0.066,0.1-0.117,0.217-0.15,0.35l-0.05,0.05l-0.2,0.2l0.05-0.4
		c0.233-0.9,0.533-1.633,0.9-2.2c-0.3,0.034-0.583,0.2-0.85,0.5l0.1-0.8c0.066-0.733,0.133-1.383,0.2-1.95
		c0-0.033,0.017-0.066,0.05-0.1c0.066-0.067,0.117-0.15,0.15-0.25c-0.033,0-0.083,0.017-0.15,0.05c0.133-0.967,0.25-1.667,0.35-2.1
		l0.4-1.2l-0.4,0.4l-0.7,1.05c-0.2,0.4-0.3,0.667-0.3,0.8c-0.133,0.533-0.3,0.966-0.5,1.3l-0.1,0.6
		c-0.033,0.033-0.067,0.066-0.1,0.1c-0.167,0.133-0.35,0.383-0.55,0.75c-0.233,0.333-0.417,0.566-0.55,0.7l-0.05-0.05V14.8
		c-0.1-0.2-0.117-0.517-0.05-0.95c0.034-0.233,0.067-0.417,0.1-0.55c0-0.133,0.017-0.25,0.05-0.35l0.15-0.3L24.45,12.45z
		 M37.15,19.85c-1.634,1.333-3.317,2.183-5.05,2.55l-0.3,0.05h-0.05L31.5,22.5l0.1-0.05h-0.35l0.9-0.75
		c0.533-0.434,0.833-0.717,0.9-0.85l-0.5-0.15c0.1-0.133,0.217-0.25,0.35-0.35c0.033-0.067,0.1-0.133,0.2-0.2
		c0.034-0.033,0.051-0.066,0.051-0.1c0.8,0.233,1.583,0.3,2.35,0.2c0.434,0,0.85-0.033,1.25-0.1L37.15,19.85z M30.45,22.8l1.75,0.35
		c-0.267,0.033-0.55,0.033-0.85,0c-0.8-0.1-1.4-0.167-1.8-0.2l0.05-0.05c0.1-0.033,0.183-0.066,0.25-0.1
		c0.1,0.034,0.2,0.05,0.3,0.05L30.45,22.8z M23,13.05c-0.167,0.267-0.3,0.567-0.4,0.9c-0.367-2.333-0.6-4.067-0.7-5.2
		c-0.066-0.5,0.017-0.783,0.25-0.85l0.3,0.8c0.133,0.4,0.333,0.983,0.6,1.75c0.067,0.267,0.117,0.433,0.15,0.5v-0.5l0.05-0.4
		L23.3,9.8c0.434-1.867,0.784-3.15,1.05-3.85c0.566-1.4,1.367-2.333,2.4-2.8l-0.5,0.3c-0.367,0.367-0.617,0.733-0.75,1.1
		C25.467,4.583,25.3,5.167,25,6.3c-0.067,0.3-0.117,0.784-0.15,1.45l-0.1,0.65c0,0.333,0.017,0.55,0.05,0.65L25,9.4
		c-0.2,0.733-0.35,1.383-0.45,1.95c-0.133,0.1-0.333,0.267-0.6,0.5c0-0.2,0-0.417,0-0.65c0.066-0.733,0.083-1.2,0.05-1.4
		c-0.033,0.034-0.183,0.3-0.45,0.8C23.25,11.333,23.067,12.15,23,13.05z"/>
	<path style="fill-rule:evenodd;clip-rule:evenodd;fill:#8C5DAB;" d="M33.2,7.5c-0.267,0.133-0.534,0.317-0.8,0.55L32.35,8
		c-0.2-0.367-0.6-0.583-1.2-0.65l0.2-0.5c0.1-0.133,0.167-0.267,0.2-0.4C31.683,6.383,31.833,6.367,32,6.4
		c0.4,0,0.717,0.15,0.95,0.45C33.05,7.017,33.134,7.233,33.2,7.5z M35.45,11.05c0.1-0.5,0.184-1.05,0.25-1.65
		c0.2,0.1,0.383,0.333,0.55,0.7c0.333,0.6,0.55,1.1,0.65,1.5c-0.367,0.233-0.7,0.483-1,0.75V12.3c0.033-0.367,0-0.65-0.101-0.85
		C35.7,11.317,35.583,11.183,35.45,11.05z M25.95,6.85c0-0.063,0-0.113,0-0.15V6.65c0.033-0.066,0.066-0.133,0.1-0.2l0.1-0.4
		c1.633-1.267,2.617-1.583,2.95-0.95c-0.1,0.066-0.15,0.183-0.15,0.35l-0.1,0.4c-0.067,0.133-0.167,0.333-0.3,0.6
		c-0.2,0.133-0.367,0.267-0.5,0.4c-0.066-0.067-0.1-0.117-0.1-0.15c-0.2-0.133-0.434-0.217-0.7-0.25c-0.3-0.067-0.533-0.067-0.7,0
		C26.383,6.483,26.183,6.617,25.95,6.85z M26.45,17.4l-0.1,0.05l0.05-0.05H26.45z"/>
	<path style="fill-rule:evenodd;clip-rule:evenodd;fill:#644677;" d="M31.5,8.7c-0.433,0.367-0.883,0.75-1.35,1.15
		c0.4-0.967,0.733-1.8,1-2.5c0.6,0.066,1,0.283,1.2,0.65l0.05,0.05C32.1,8.217,31.8,8.433,31.5,8.7z M35.9,12.35
		c-0.601,0.467-1.184,0.933-1.75,1.4l0.199-0.45L35,12.2c0.2-0.333,0.35-0.717,0.45-1.15c0.133,0.133,0.25,0.267,0.35,0.4
		c0.101,0.2,0.134,0.483,0.101,0.85V12.35z M24.45,12.45l0.5-1.2c-0.133,0-0.267,0.033-0.4,0.1c0.1-0.567,0.25-1.217,0.45-1.95
		c0.033-0.133,0.083-0.283,0.15-0.45c0.067-0.3,0.283-0.934,0.65-1.9h0.05V7c0.035-0.069,0.069-0.119,0.1-0.15
		c0.233-0.233,0.433-0.367,0.6-0.4c0.167-0.067,0.4-0.067,0.7,0c0.267,0.033,0.5,0.117,0.7,0.25c0,0.033,0.033,0.083,0.1,0.15
		c-0.066,0-0.133,0.033-0.2,0.1c-1,0.867-1.833,2.083-2.5,3.65c-0.033,0.033-0.167,0.533-0.4,1.5c-0.2,0.667-0.45,1.1-0.75,1.3
		c0.1-0.167,0.167-0.4,0.2-0.7C24.4,12.603,24.417,12.52,24.45,12.45z M26.45,17.4H26.4c0.033-0.133,0.083-0.25,0.15-0.35
		L26.45,17.4z"/>
	<path style="fill-rule:evenodd;clip-rule:evenodd;fill:#EACCFD;" d="M39.4,11.8c-1.134,1.067-2.284,1.833-3.45,2.3
		c-0.667,0.233-1.134,0.417-1.4,0.55c-0.333,0.233-0.6,0.367-0.8,0.4c-0.9,0.267-1.55,0.517-1.95,0.75c0-0.1,0.067-0.216,0.2-0.35
		c0.1-0.067,0.217-0.167,0.35-0.3l2-1.85l-0.199,0.45c0.566-0.467,1.149-0.933,1.75-1.4c0.3-0.267,0.633-0.517,1-0.75
		c0.333-0.3,0.683-0.583,1.05-0.85c0.5-0.333,0.85-0.467,1.05-0.4c0.033,0,0.066,0.017,0.1,0.05c0.4,0.233,0.5,0.684,0.301,1.35
		V11.8z M39.15,16.05L37.05,16.6c-0.333,0.066-0.783,0.15-1.35,0.25c-0.667,0.1-1.134,0.167-1.4,0.2
		c-0.2,0.067-0.517,0.05-0.95-0.05c0.267-0.2,0.75-0.383,1.45-0.55c0.334-0.2,0.834-0.467,1.5-0.8l1.55-1.2h0.101
		c-0.167,0.167-0.334,0.333-0.5,0.5c0.866-0.067,1.566,0.066,2.1,0.4C39.55,15.55,39.417,15.783,39.15,16.05z M30.45,22.8
		c0.2-0.033,0.466-0.15,0.8-0.35h0.35l-0.1,0.05l0.25-0.05h0.05l0.35,0.05h0.05c0.3,0.033,0.55,0.117,0.75,0.25
		c-0.133,0.133-0.284,0.233-0.45,0.3c-0.1,0.034-0.183,0.067-0.25,0.1H32.2L30.45,22.8z M37.15,19.85l-0.4,0.3
		c-0.4,0.067-0.816,0.1-1.25,0.1c-0.767,0.1-1.55,0.033-2.35-0.2c0.133-0.2,0.267-0.4,0.399-0.6c0.667-0.067,1.167-0.15,1.5-0.25
		c0.334-0.133,0.834-0.383,1.5-0.75c0.533-0.133,0.934-0.034,1.2,0.3c0.2,0.267,0.2,0.5,0,0.7
		C37.483,19.65,37.283,19.783,37.15,19.85z M32.8,19.55l-0.65,0.3c-0.1-0.033-0.167-0.067-0.2-0.1c0.1-0.1,0.3-0.167,0.6-0.2
		C32.617,19.55,32.7,19.55,32.8,19.55z"/>
	<path style="fill-rule:evenodd;clip-rule:evenodd;fill:#CF8BFB;" d="M23.95,11.85c-0.133,0.167-0.284,0.35-0.45,0.55
		c-0.2,0.2-0.367,0.417-0.5,0.65c0.067-0.9,0.25-1.716,0.55-2.45c0.267-0.5,0.417-0.767,0.45-0.8c0.033,0.2,0.017,0.667-0.05,1.4
		C23.95,11.433,23.95,11.65,23.95,11.85z M26.6,12.5c-0.3,0.067-0.717,0.35-1.25,0.85l0.1-0.6c0.2-0.333,0.367-0.767,0.5-1.3
		c0-0.133,0.1-0.4,0.3-0.8l0.7-1.05l0.4-0.4l-0.4,1.2C26.85,10.833,26.733,11.533,26.6,12.5z M25.25,17.1l0.1-1.15
		c0.033-0.367,0.117-0.733,0.25-1.1v-0.1c0.066-0.167,0.117-0.317,0.15-0.45l0.2-0.45c0.167-0.367,0.367-0.717,0.6-1.05
		c-0.066,0.567-0.133,1.217-0.2,1.95l-0.1,0.8c-0.1,0.067-0.2,0.167-0.3,0.3c-0.333,0.467-0.567,0.933-0.7,1.4
		C25.25,17.217,25.25,17.167,25.25,17.1z M27.05,16.9L27,17h-0.025C27.003,16.968,27.028,16.935,27.05,16.9z M28.75,16.95
		c-0.367,0.267-0.617,0.433-0.75,0.5l-0.2,0.15c0.067-0.367,0.117-0.684,0.15-0.95c0.066-0.3,0.167-0.517,0.3-0.65l-0.3,0.2
		l-0.85,0.675c0.18-0.276,0.396-0.668,0.65-1.175c0.467-0.8,1.25-1.667,2.35-2.6l-0.2,0.3C29.667,13.867,29.283,15.05,28.75,16.95z
		 M28.85,18.15c0.133-0.033,0.283-0.033,0.45,0c0.434,0.033,0.867,0.05,1.3,0.05c-0.1,0.033-0.217,0.1-0.35,0.2
		c-0.3,0.167-0.55,0.317-0.75,0.45c-0.1,0.033-0.183,0.066-0.25,0.1c-0.5,0.2-0.933,0.183-1.3-0.05l-0.05-0.05
		C28.033,18.717,28.35,18.483,28.85,18.15z M29.75,20.4h-0.4H29.3c0.035-0.001,0.068-0.018,0.1-0.05c0.1-0.033,0.184-0.067,0.25-0.1
		c0.2,0,0.483,0,0.85,0c0.1,0,0.183,0.017,0.25,0.05c-0.3,0.067-0.5,0.117-0.6,0.15L29.75,20.4z M31.75,18.2v-0.1
		c0.267-0.033,0.533-0.067,0.8-0.1c-0.4,0.233-0.667,0.417-0.8,0.55l-1.6,1.3c-0.133,0.133-0.267,0.233-0.4,0.3
		c0.133-0.1,0.267-0.25,0.4-0.45c0.2-0.133,0.467-0.333,0.8-0.6c0.3-0.2,0.517-0.434,0.65-0.7L31.75,18.2z M32.55,20.7l0.5,0.15
		c-0.066,0.133-0.367,0.417-0.9,0.85l-0.9,0.75c-0.333,0.2-0.6,0.316-0.8,0.35l-0.3,0.05c-0.1,0-0.2-0.017-0.3-0.05
		c0.233-0.133,0.5-0.316,0.8-0.55l1.2-0.95C32.083,21.1,32.317,20.9,32.55,20.7z"/>
	<path style="fill-rule:evenodd;clip-rule:evenodd;fill:#86A214;" d="M22.35,25.85c-0.032,0-0.066,0.017-0.1,0.05
		c0.068-0.068,0.134-0.151,0.2-0.25C22.417,25.717,22.383,25.783,22.35,25.85z M2.8,35.05c0.2-0.267,0.434-0.533,0.7-0.8
		c-0.1,0.134-0.217,0.467-0.35,1c0,0.066-0.066,0.2-0.2,0.4c-0.067,0.133-0.067,0.267,0,0.399c0.1,0.167,0.316,0.217,0.65,0.15
		c0.267-0.101,0.583-0.316,0.95-0.65c0.367-0.399,0.633-0.649,0.8-0.75c0.033,0.167,0.017,0.417-0.05,0.75
		c-0.6,0.467-1.05,0.8-1.35,1c-0.267,0.167-0.483,0.2-0.65,0.101c-0.167-0.167-0.3-0.334-0.4-0.5c-0.1-0.034-0.167-0.067-0.2-0.101
		l0.2,0.05l-0.15-0.35l0.2-0.35l-0.2,0.149L2.8,35.05z M5.3,32.65C4.767,33.05,4.317,33.4,3.95,33.7
		c0.167-0.167,0.35-0.316,0.55-0.45C4.7,33.05,4.967,32.85,5.3,32.65z M6.3,34.8l0.5-0.5c0.267-0.267,0.45-0.483,0.55-0.649
		c0.033-0.101,0.066-0.167,0.1-0.2c0,0.267,0.066,0.383,0.2,0.35s0.233-0.133,0.3-0.3c0-0.066,0.033-0.283,0.1-0.65
		c0-0.199,0.067-0.267,0.2-0.199c0.233,0.133,0.333,0.366,0.3,0.699c0.133-0.466,0.4-0.916,0.8-1.35
		c0.433-0.467,1.35-1.017,2.75-1.65c0.433-0.199,0.85-0.366,1.25-0.5l-0.6,0.801l2-0.9c0.167-0.134,0.333-0.267,0.5-0.4
		c0.133-0.1,0.25-0.199,0.35-0.3c0.033-0.033,0.066-0.05,0.1-0.05c0.966-0.267,1.833-0.616,2.6-1.05c0.633-0.334,1.383-0.9,2.25-1.7
		c0.967-0.8,1.3-1.35,1-1.65c0.733-0.767,1.467-1.6,2.2-2.5l-0.2,0.3l-0.65,0.75c-0.066,0.733-0.45,1.467-1.15,2.2
		c-0.933,1.066-1.633,1.833-2.1,2.3c-0.767,0.8-1.733,1.449-2.9,1.949c-3.267,1.233-5.183,2.084-5.75,2.551
		c-0.633,0.466-1.017,0.767-1.15,0.899c-0.333,0.267-0.633,0.617-0.9,1.05C8.683,34.533,8.3,35.05,7.8,35.65l-0.65,0.8L7.6,34
		c-0.8,1.2-1.45,1.967-1.95,2.3L5.5,36.45V36.4C5.633,36.167,5.783,35.8,5.95,35.3c0.133-0.1,0.2-0.2,0.2-0.3
		C6.217,34.9,6.267,34.833,6.3,34.8z M24.3,21.25h-0.15V21.2L24.3,21.25z M23.65,19.45c-0.433-0.633-0.717-0.85-0.85-0.65
		c-0.1-0.2-0.167-0.433-0.2-0.7c0.133,0.1,0.333,0.233,0.6,0.4C23.267,18.567,23.417,18.883,23.65,19.45z M25.75,20.5l-0.85,0.55
		l-0.55-0.55l-0.25-0.35c0.1,0.1,0.183,0.167,0.25,0.2c0.133,0,0.2-0.017,0.2-0.05c0-0.033,0.034-0.083,0.1-0.15
		c0.2-0.167,0.317-0.417,0.35-0.75c0.067-0.367,0.017-0.683-0.15-0.95c-0.267,0.233-0.45,0.367-0.55,0.4
		c-0.167,0.066-0.3-0.133-0.4-0.6c-0.133-0.6-0.183-0.983-0.15-1.15c0-0.067,0.05-0.233,0.15-0.5c0.1-0.233,0.117-0.417,0.05-0.55
		c-0.233,0.3-0.434,0.517-0.6,0.65c-0.267,0.3-0.467,0.216-0.6-0.25c-0.067-0.167-0.1-0.434-0.1-0.8c0-0.4-0.017-0.65-0.05-0.75
		l-0.1-0.5L22.35,15c0.066-0.367,0.15-0.717,0.25-1.05c0.1-0.333,0.233-0.633,0.4-0.9c0.133-0.233,0.3-0.45,0.5-0.65
		c0.167-0.2,0.317-0.383,0.45-0.55c0.267-0.233,0.466-0.4,0.6-0.5c0.133-0.067,0.267-0.1,0.4-0.1l-0.5,1.2l0.3-0.9l-0.1,0.1
		c-0.733,0.6-1.217,1.383-1.45,2.35c-0.133,0.633-0.184,1.083-0.15,1.35c0,0.033,0.117,0.45,0.35,1.25
		c0.267-0.233,0.483-0.817,0.65-1.75h0.05l0.05,0.05c0.133-0.133,0.317-0.367,0.55-0.7c0.2-0.367,0.383-0.617,0.55-0.75
		c0.033-0.034,0.067-0.067,0.1-0.1c0.533-0.5,0.95-0.783,1.25-0.85c0.066-0.033,0.117-0.05,0.15-0.05
		c-0.033,0.1-0.083,0.183-0.15,0.25c-0.833,0.633-1.517,1.466-2.05,2.5c-0.267,0.6-0.383,1.183-0.35,1.75
		c0,0.066,0.15,0.566,0.45,1.5c0.067-0.034,0.1-0.233,0.1-0.6l0.2-0.4c0-0.034,0.1-0.15,0.3-0.35c0,0.066,0,0.117,0,0.15
		c0.133-0.467,0.367-0.933,0.7-1.4c0.1-0.133,0.2-0.233,0.3-0.3c0.267-0.3,0.55-0.466,0.85-0.5c-0.367,0.567-0.667,1.3-0.9,2.2
		l-0.25,0.45C25.817,18,25.833,18.433,26,19c0.133,0.5,0.15,0.85,0.05,1.05L25.75,20.5z M30.75,18.75l1.05-0.7l-0.05,0.05v0.1
		L30.75,18.75z M30.15,19.7c-0.133,0.2-0.267,0.35-0.4,0.45l-0.1,0.1c-0.066,0.033-0.15,0.067-0.25,0.1l0.4-0.3L30.15,19.7z
		 M27.8,17.45c0.067-0.367,0.117-0.65,0.15-0.85c0.066-0.3,0.167-0.5,0.3-0.6c-0.133,0.133-0.233,0.35-0.3,0.65
		c-0.034,0.267-0.083,0.583-0.15,0.95V17.45z M33.35,19.7l0.2-0.25c-0.133,0.2-0.267,0.4-0.399,0.6
		C33.217,19.917,33.283,19.8,33.35,19.7z"/>
	<path style="fill-rule:evenodd;clip-rule:evenodd;fill:#6C840E;" d="M2.7,36.05l0.05-0.3L2.9,36.1L2.7,36.05z M2.8,35.05l-0.05,0.5
		l-0.4,0.3C2.483,35.583,2.633,35.316,2.8,35.05z M7,39.25L6.9,39.1l0.2-0.449l0.55-2.4c-0.433,0.8-0.867,1.366-1.3,1.7
		c-0.367,0.267-0.767,0.5-1.2,0.7V38.5l-0.3-0.75c0.167-0.333,0.333-0.566,0.5-0.7L6.3,36.2c-0.367,0.2-0.716,0.399-1.05,0.6
		c-0.2,0.267-0.383,0.517-0.55,0.75c-0.167,0.2-0.333,0.367-0.5,0.5L4,37.75c0.1-0.066,0.217-0.167,0.35-0.3
		c0.033-0.134,0.1-0.25,0.2-0.351c0.034-0.033,0.067-0.083,0.1-0.149c0.067-0.134,0.15-0.267,0.25-0.4c-0.1,0.101-0.433,0.267-1,0.5
		L3.6,37.15H3.55l-0.3-0.5H3.3c0.167,0.1,0.383,0.066,0.65-0.101c0.3-0.2,0.75-0.533,1.35-1l0.95-0.85L6.2,34.85l0.1-0.05
		C6.267,34.833,6.217,34.9,6.15,35c0,0.1-0.066,0.2-0.2,0.3C5.783,35.8,5.633,36.167,5.5,36.4v0.05l0.15-0.15
		c0.5-0.333,1.15-1.1,1.95-2.3l-0.45,2.45l0.65-0.8c0.5-0.601,0.883-1.117,1.15-1.551c0.267-0.433,0.566-0.783,0.9-1.05
		c0.133-0.133,0.517-0.434,1.15-0.899c0.567-0.467,2.483-1.317,5.75-2.551c1.167-0.5,2.133-1.149,2.9-1.949
		c0.467-0.467,1.167-1.234,2.1-2.3c0.7-0.733,1.083-1.467,1.15-2.2l0.65-0.75v0.4c0,0.133-0.066,0.267-0.2,0.4
		c-0.1,0.1-0.133,0.216-0.1,0.35c-0.567,1-1.133,1.867-1.7,2.6c-0.167,0.267-0.35,0.517-0.55,0.75l-0.2,0.2l0.05,0.051
		c-0.8,0.866-1.583,1.5-2.35,1.899c-0.233,0.134-1.667,0.783-4.3,1.95c-1.667,0.767-2.7,1.384-3.1,1.85
		c-1.6,1.867-2.467,3.217-2.6,4.051c-0.1,0.633-0.183,1.033-0.25,1.199c-0.1,0.233-0.233,0.4-0.4,0.5
		C7.75,38.634,7.467,38.85,7,39.25z M24.9,21.05l-0.6,0.2l-0.15-0.05l-0.05-0.05v-0.2c-0.067-0.3-0.25-0.667-0.55-1.1
		c-0.333-0.467-0.583-0.817-0.75-1.05c0.133-0.2,0.417,0.017,0.85,0.65l0.1,0.2l0.25,0.4c0.033,0,0.067,0.034,0.1,0.1l0.25,0.35
		L24.9,21.05z M24.45,12.45l-0.1,0.2c-0.533,0.5-0.8,1.467-0.8,2.9c0.133-0.033,0.267-0.216,0.4-0.55l0.1-0.15
		c-0.167,0.933-0.383,1.517-0.65,1.75c-0.233-0.8-0.35-1.217-0.35-1.25c-0.033-0.267,0.017-0.717,0.15-1.35
		c0.233-0.967,0.716-1.75,1.45-2.35l0.1-0.1L24.45,12.45z M25.6,14.85c-0.2,0.1-0.383,0.3-0.55,0.6
		c-0.066,0.167-0.167,0.45-0.3,0.85c-0.3,0.534-0.367,1.133-0.2,1.8c0.1-0.033,0.167-0.117,0.2-0.25c0,0.367-0.033,0.566-0.1,0.6
		c-0.3-0.934-0.45-1.434-0.45-1.5c-0.034-0.567,0.083-1.15,0.35-1.75c0.534-1.034,1.217-1.867,2.05-2.5
		c-0.033,0.033-0.05,0.066-0.05,0.1c-0.233,0.333-0.433,0.684-0.6,1.05l-0.2,0.45c-0.033,0.133-0.083,0.284-0.15,0.45V14.85z
		 M31.8,18.05l-1.05,0.7l-0.25,0.2c-0.433,0.233-0.767,0.367-1,0.4c-0.367,0.066-0.767,0.167-1.2,0.3c-0.267,0.1-0.45,0.1-0.55,0
		c-0.133-0.1-0.283-0.083-0.45,0.05c0.233,0.4,0.333,0.716,0.3,0.95c0,0.333-0.017,0.55-0.05,0.65c-0.066,0.2-0.2,0.317-0.4,0.35
		c-0.633,0.2-1.2,0.267-1.7,0.2l0.1-0.1c0.667-0.667,0.867-1.167,0.6-1.5l-0.4,0.25l0.3-0.45c0.1-0.2,0.083-0.55-0.05-1.05
		c-0.167-0.567-0.183-1-0.05-1.3l0.25-0.45l-0.05,0.4l0.2-0.2l-0.1,0.2c0.272-0.121,0.514-0.337,0.725-0.65H27
		c0.031-0.042,0.064-0.083,0.1-0.125l0.85-0.675c0,0.066-0.067,0.183-0.2,0.35l-0.15,0.3c-0.033,0.033-0.083,0.1-0.15,0.2
		c-0.467,0.333-0.767,0.6-0.9,0.8c-0.133,0.2-0.167,0.4-0.1,0.6c0.066,0.167,0.2,0.233,0.4,0.2c-0.1,0.167-0.1,0.3,0,0.4
		c0.167,0.167,0.3,0.367,0.4,0.6l0.15-0.25c0.1-0.133,0.283-0.283,0.55-0.45V18.9c0.367,0.233,0.8,0.25,1.3,0.05
		c0.067-0.034,0.15-0.067,0.25-0.1c0.2-0.133,0.45-0.283,0.75-0.45c0.133-0.1,0.25-0.167,0.35-0.2c0.9-0.5,1.483-0.883,1.75-1.15
		L31.8,18.05z M27.8,17.6l0.2-0.15c0.133-0.067,0.383-0.233,0.75-0.5c0.1-0.067,0.217-0.15,0.35-0.25
		c0.433-0.3,0.783-0.517,1.05-0.65c-0.8,0.733-1.367,1.233-1.7,1.5c-0.3,0.233-0.65,0.434-1.05,0.6c0.167-0.2,0.3-0.433,0.4-0.7
		V17.6z M32.15,19.85l0.65-0.3l0.15-0.1c0.1,0,0.233-0.083,0.399-0.25c0.2-0.1,0.367-0.15,0.5-0.15l-0.3,0.4l-0.2,0.25
		c-0.633,0.633-1.266,1.083-1.899,1.35c-0.567,0.267-1.2,0.333-1.9,0.2l-0.8-0.2l1-0.6V20.4l0.4,0.05c0.1-0.034,0.3-0.083,0.6-0.15
		c0.267-0.066,0.583-0.15,0.95-0.25L32.15,19.85z"/>
	<path style="fill-rule:evenodd;clip-rule:evenodd;fill:#546708;" d="M20.85,27.15c0.033,0.066,0.083,0.116,0.15,0.149
		c0.533,0.533,1.117,0.851,1.75,0.95c-0.233-0.134-0.417-0.267-0.55-0.4c-0.133-0.1-0.2-0.233-0.2-0.399c0-0.134,0.1-0.2,0.3-0.2
		c0.167,0,0.45,0.066,0.85,0.2c0.4,0.1,0.684,0.133,0.85,0.1c0.6-0.066,1.25-0.383,1.95-0.95c-1.733,0.833-3.067,0.65-4-0.55
		l-0.1-0.1l-0.3,0.2c0.567-0.733,1.133-1.6,1.7-2.6c-0.033-0.133,0-0.25,0.1-0.35c0.133-0.133,0.2-0.267,0.2-0.4v-0.4l0.2-0.3
		L24.4,23c-0.133,0.2-0.267,0.417-0.4,0.65c-0.067,0.1-0.15,0.2-0.25,0.3l-0.7,0.95c-0.2,0.267-0.4,0.517-0.6,0.75
		c-0.066,0.099-0.132,0.182-0.2,0.25c0.034-0.033,0.068-0.05,0.1-0.05c0.1-0.033,0.2-0.05,0.3-0.05c0.133,0,0.567,0.1,1.3,0.3
		c0.466,0.167,0.933,0.25,1.4,0.25c0.2,0,0.533-0.033,1-0.1c-0.7,0.934-1.5,1.55-2.4,1.85c-1.067,0.4-2.05,0.134-2.95-0.8
		c-0.033,0.033-0.05,0.066-0.05,0.101C19.883,28.467,17.9,29.934,15,31.8c-0.7,0.233-1.517,0.717-2.45,1.45
		c-1,0.066-1.716,0.533-2.15,1.4c-0.333,0.399-0.566,0.733-0.7,1c-0.233,0.399-0.483,1.066-0.75,2c-0.4,0.833-0.867,1.366-1.4,1.6
		c-0.267,0.1-0.45,0.1-0.55,0c0.467-0.4,0.75-0.616,0.85-0.65c0.167-0.1,0.3-0.267,0.4-0.5C8.317,37.934,8.4,37.533,8.5,36.9
		c0.133-0.834,1-2.184,2.6-4.051c0.4-0.466,1.433-1.083,3.1-1.85c2.633-1.167,4.066-1.816,4.3-1.95
		C19.267,28.65,20.05,28.017,20.85,27.15z M3.8,37.45l0.05,0.05H3.8V37.45z M14.75,29.75l-2,0.9l0.6-0.801l0.3-0.449
		c0.167-0.101,0.3-0.217,0.4-0.351c0.233-0.3,0.333-0.633,0.3-1c0-0.533-0.283-0.967-0.85-1.3c-0.5-0.267-1.35-0.333-2.55-0.2
		l-1.7,0.25c0-0.066,0-0.117,0-0.15v-0.125l0.025-0.1c0.013-0.076,0.038-0.15,0.075-0.225l0.2,0.05c0.4,0,1.017-0.067,1.85-0.2
		c0.767-0.1,1.417-0.05,1.95,0.15c0.867,0.233,1.433,0.716,1.7,1.45c0.1,0.267,0.2,0.55,0.3,0.85c0,0.2,0.017,0.4,0.05,0.6
		c0,0.034,0,0.067,0,0.101C15.2,29.366,14.983,29.55,14.75,29.75z M16.15,27.1c-0.433-0.5-0.833-0.816-1.2-0.95
		c0.2-0.133,0.316-0.25,0.35-0.35c0.067-0.167,0-0.35-0.2-0.55c-0.533-0.267-0.9-0.467-1.1-0.6c-0.933-0.467-1.783-0.483-2.55-0.05
		c0.966-0.7,1.8-0.967,2.5-0.8c1,0.7,1.7,1.65,2.1,2.85c0.067,0.133,0.1,0.267,0.1,0.4V27.1z M29.75,20.4v0.05l-1,0.6l0.8,0.2
		c0.7,0.133,1.333,0.067,1.9-0.2c0.633-0.267,1.267-0.716,1.899-1.35c-0.066,0.1-0.133,0.216-0.199,0.35
		c0,0.034-0.017,0.067-0.051,0.1c-0.1,0.067-0.167,0.133-0.2,0.2c-0.133,0.1-0.25,0.217-0.35,0.35c-0.233,0.2-0.466,0.4-0.7,0.6
		l-1.2,0.95l-0.3,0.1c-0.267,0-0.483-0.017-0.65-0.05c-0.233-0.133-0.383-0.2-0.45-0.2c-0.1,0.033-0.267,0.133-0.5,0.3
		c-0.233,0.167-0.383,0.267-0.45,0.3c-0.367,0.133-0.883,0.117-1.55-0.05c-0.367,0-0.633-0.017-0.8-0.05
		c-0.3-0.033-0.567-0.15-0.8-0.35l-0.4-0.65c0-0.133-0.05-0.233-0.15-0.3c-0.1-0.066-0.25-0.017-0.45,0.15v-0.2h0.15l0.6-0.2
		l0.85-0.55l0.4-0.25c0.267,0.333,0.067,0.833-0.6,1.5l-0.1,0.1c0.5,0.066,1.066,0,1.7-0.2c0.2-0.033,0.333-0.15,0.4-0.35
		c0.034-0.1,0.05-0.316,0.05-0.65c0.033-0.233-0.067-0.55-0.3-0.95c0.167-0.133,0.317-0.15,0.45-0.05c0.1,0.1,0.283,0.1,0.55,0
		c0.434-0.133,0.833-0.233,1.2-0.3c0.233-0.033,0.567-0.167,1-0.4l-1.45,1c-0.367,0.2-0.6,0.483-0.7,0.85
		c0.1,0.1,0.233,0.117,0.4,0.05c0.067-0.067,0.167-0.167,0.3-0.3l0.3-0.15H29.75z M28.85,18.15c-0.5,0.333-0.817,0.567-0.95,0.7
		l0.05,0.05v0.05c-0.267,0.167-0.45,0.316-0.55,0.45l-0.15,0.25c-0.1-0.233-0.233-0.433-0.4-0.6c-0.1-0.1-0.1-0.233,0-0.4
		c-0.2,0.033-0.333-0.033-0.4-0.2c-0.067-0.2-0.034-0.4,0.1-0.6c0.133-0.2,0.434-0.467,0.9-0.8c0.066-0.1,0.117-0.167,0.15-0.2
		l0.15-0.3c0.133-0.167,0.2-0.283,0.2-0.35l0.3-0.2c-0.133,0.1-0.233,0.3-0.3,0.6c-0.034,0.2-0.083,0.483-0.15,0.85
		c-0.1,0.267-0.233,0.5-0.4,0.7c0.4-0.167,0.75-0.367,1.05-0.6c0.333-0.267,0.9-0.767,1.7-1.5c-0.033,0.3-0.267,0.75-0.7,1.35
		c-0.067,0.167-0.25,0.4-0.55,0.7L28.85,18.15z M24.35,12.65l-0.15,0.3c-0.034,0.1-0.05,0.216-0.05,0.35
		c-0.033,0.133-0.066,0.317-0.1,0.55C23.983,14.283,24,14.6,24.1,14.8v0.05h-0.05L23.95,15c-0.133,0.333-0.267,0.517-0.4,0.55
		C23.55,14.117,23.817,13.15,24.35,12.65z M26.35,17.45l0.1-0.05l0.5-0.4h0.025c-0.211,0.313-0.453,0.529-0.725,0.65L26.35,17.45z
		 M27,17l0.05-0.1l0.05-0.025C27.064,16.917,27.031,16.958,27,17z M24.75,17.85c-0.033,0.133-0.1,0.217-0.2,0.25
		c-0.167-0.667-0.1-1.267,0.2-1.8c0.133-0.4,0.233-0.683,0.3-0.85c0.167-0.3,0.35-0.5,0.55-0.6c-0.133,0.367-0.217,0.733-0.25,1.1
		l-0.1,1.15c-0.2,0.2-0.3,0.316-0.3,0.35L24.75,17.85z M4.7,37.55c0.167-0.233,0.35-0.483,0.55-0.75c0.333-0.2,0.683-0.399,1.05-0.6
		l-0.95,0.85c-0.167,0.134-0.333,0.367-0.5,0.7L4.7,37.55z M6.9,39.1L6.65,38.65c-0.533,0.233-0.917,0.316-1.15,0.25
		c-0.2-0.034-0.317-0.117-0.35-0.25c0.434-0.2,0.833-0.434,1.2-0.7c0.433-0.334,0.867-0.9,1.3-1.7l-0.55,2.4L6.9,39.1z"/>
	<path style="fill-rule:evenodd;clip-rule:evenodd;fill:#A5C71A;" d="M3.95,33.7c0.367-0.3,0.816-0.65,1.35-1.05l1.95-1.45
		c0.167-0.066,0.317-0.117,0.45-0.15c0.367-0.1,0.733-0.2,1.1-0.3c1.967-0.6,3.717-1.167,5.25-1.7c-0.1,0.134-0.233,0.25-0.4,0.351
		l-0.3,0.449c-0.4,0.134-0.817,0.301-1.25,0.5c-1.4,0.634-2.317,1.184-2.75,1.65c-0.4,0.434-0.667,0.884-0.8,1.35
		c0.034-0.333-0.066-0.566-0.3-0.699c-0.133-0.067-0.2,0-0.2,0.199c-0.066,0.367-0.1,0.584-0.1,0.65
		c-0.067,0.167-0.167,0.267-0.3,0.3s-0.2-0.083-0.2-0.35c-0.034,0.033-0.067,0.1-0.1,0.2c-0.1,0.166-0.283,0.383-0.55,0.649
		l-0.5,0.5l-0.1,0.05L6.25,34.7L5.3,35.55c0.067-0.333,0.083-0.583,0.05-0.75c-0.167,0.101-0.434,0.351-0.8,0.75
		C4.183,35.884,3.867,36.1,3.6,36.2c-0.333,0.066-0.55,0.017-0.65-0.15c-0.067-0.133-0.067-0.267,0-0.399
		c0.133-0.2,0.2-0.334,0.2-0.4c0.133-0.533,0.25-0.866,0.35-1V34.2C3.633,34.066,3.783,33.9,3.95,33.7z M21.55,24.6
		c0.3,0.3-0.033,0.85-1,1.65c-0.867,0.8-1.617,1.366-2.25,1.7c-0.767,0.434-1.633,0.783-2.6,1.05c-0.034,0-0.067,0.017-0.1,0.05
		c0.233-0.267,0.4-0.55,0.5-0.85c0.767-0.367,1.45-0.717,2.05-1.05l2.2-1.5c0.4-0.333,0.8-0.7,1.2-1.1V24.6z M24.1,20.15
		c-0.033-0.066-0.067-0.1-0.1-0.1l-0.25-0.4l-0.1-0.2c-0.233-0.567-0.383-0.883-0.45-0.95c-0.267-0.167-0.467-0.3-0.6-0.4h-0.05
		v-0.05H22.5c-0.233-0.667-0.283-1.683-0.15-3.05l0.15-0.6l0.1,0.5c0.033,0.1,0.05,0.35,0.05,0.75c0,0.367,0.033,0.633,0.1,0.8
		c0.133,0.466,0.333,0.55,0.6,0.25c0.167-0.133,0.367-0.35,0.6-0.65c0.066,0.133,0.05,0.317-0.05,0.55
		c-0.1,0.267-0.15,0.433-0.15,0.5c-0.033,0.167,0.017,0.55,0.15,1.15c0.1,0.467,0.233,0.667,0.4,0.6c0.1-0.033,0.284-0.167,0.55-0.4
		c0.167,0.267,0.217,0.583,0.15,0.95c-0.033,0.333-0.15,0.583-0.35,0.75c-0.066,0.067-0.1,0.117-0.1,0.15
		c0,0.034-0.066,0.05-0.2,0.05C24.283,20.317,24.2,20.25,24.1,20.15z"/>
	<path style="fill-rule:evenodd;clip-rule:evenodd;fill:#3B4A03;" d="M30.65,22.25c-0.3,0.233-0.566,0.417-0.8,0.55
		c-0.067,0.034-0.15,0.067-0.25,0.1l-0.05,0.05c-0.533,0.233-1,0.333-1.4,0.3c-0.167,0-0.433-0.067-0.8-0.2
		c-0.4-0.1-0.667-0.167-0.8-0.2L24.6,22.7L24.4,23l-0.65-0.9c0.133-0.133,0.25-0.283,0.35-0.45c0.033-0.066,0.05-0.133,0.05-0.2
		c0.2-0.167,0.35-0.217,0.45-0.15c0.1,0.067,0.15,0.167,0.15,0.3l0.4,0.65c0.233,0.2,0.5,0.317,0.8,0.35
		c0.167,0.033,0.433,0.05,0.8,0.05c0.667,0.167,1.183,0.184,1.55,0.05c0.067-0.034,0.217-0.133,0.45-0.3
		c0.233-0.167,0.4-0.267,0.5-0.3c0.067,0,0.217,0.066,0.45,0.2c0.167,0.034,0.383,0.05,0.65,0.05L30.65,22.25z M7,39.25
		c0.1,0.1,0.283,0.1,0.55,0c0.534-0.233,1-0.767,1.4-1.6c0.267-0.934,0.517-1.601,0.75-2c0.133-0.267,0.367-0.601,0.7-1
		c0.434-0.867,1.15-1.334,2.15-1.4c-0.367,0.267-0.75,0.6-1.15,1c-0.167,0.134-0.316,0.283-0.45,0.45l-0.55,0.5
		c-0.533,0.7-1.083,1.684-1.65,2.95C8.45,38.783,8.2,39.35,8,39.85l-1.35-0.3c-0.867-0.333-1.483-0.633-1.85-0.899
		c-0.167-0.067-0.333-0.217-0.5-0.45c-0.033-0.033-0.066-0.084-0.1-0.15c-0.1-0.133-0.233-0.316-0.4-0.55h0.05L3.8,37.45l-0.25-0.3
		H3.6l0.3-0.101c0.567-0.233,0.9-0.399,1-0.5c-0.1,0.134-0.183,0.267-0.25,0.4c-0.033,0.066-0.066,0.116-0.1,0.149
		c-0.1,0.101-0.167,0.217-0.2,0.351C4.217,37.583,4.1,37.684,4,37.75l0.2,0.3c0.167-0.133,0.333-0.3,0.5-0.5l0.15,0.2l0.3,0.75v0.15
		c0.033,0.133,0.15,0.216,0.35,0.25c0.233,0.066,0.617-0.017,1.15-0.25L6.9,39.1L7,39.25z M2.35,35.85l0.4-0.3l0.2-0.149l-0.2,0.35
		l-0.05,0.3C2.533,35.983,2.417,35.917,2.35,35.85z M29.4,20.35c-0.032,0.032-0.065,0.049-0.1,0.05h0.05l-0.3,0.15
		c-0.133,0.133-0.233,0.233-0.3,0.3c-0.167,0.066-0.3,0.05-0.4-0.05c0.1-0.367,0.333-0.65,0.7-0.85l1.45-1l0.25-0.2l1-0.55
		l-0.15,0.2c-0.133,0.267-0.35,0.5-0.65,0.7c-0.333,0.267-0.6,0.467-0.8,0.6l-0.35,0.35L29.4,20.35z M21,27.3
		c-0.067-0.033-0.117-0.083-0.15-0.149L20.8,27.1l0.2-0.2c0.2-0.233,0.383-0.483,0.55-0.75l0.3-0.2l0.1,0.1
		c0.933,1.2,2.267,1.384,4,0.55c-0.7,0.567-1.35,0.883-1.95,0.95c-0.167,0.033-0.45,0-0.85-0.1c-0.4-0.134-0.683-0.2-0.85-0.2
		c-0.2,0-0.3,0.066-0.3,0.2c0,0.166,0.067,0.3,0.2,0.399c0.133,0.134,0.316,0.267,0.55,0.4C22.117,28.15,21.533,27.833,21,27.3z"/>
	
		<linearGradient id="SVGID_2_" gradientUnits="userSpaceOnUse" x1="-9.9102" y1="28.9209" x2="-4.0927" y2="28.9209" gradientTransform="matrix(0.7821 -0.6231 0.644 0.7655 4.783273e-004 1.247525e-004)">
		<stop  offset="0" style="stop-color:#596C0A"/>
		<stop  offset="1" style="stop-color:#A7CA1C"/>
	</linearGradient>
	<path style="fill-rule:evenodd;clip-rule:evenodd;fill:url(#SVGID_2_);" d="M14.75,29.75c0.233-0.2,0.45-0.384,0.65-0.55
		c0-0.033,0-0.066,0-0.101c-0.033-0.199-0.05-0.399-0.05-0.6c-0.1-0.3-0.2-0.583-0.3-0.85c-0.267-0.734-0.833-1.217-1.7-1.45
		c-0.533-0.2-1.184-0.25-1.95-0.15c-0.833,0.133-1.45,0.2-1.85,0.2l-0.2-0.05c-0.037,0.074-0.062,0.149-0.075,0.225
		c0.018-0.119,0.06-0.244,0.125-0.375c0.233-0.667,0.717-1.4,1.45-2.2c0.8-0.867,1.783-0.917,2.95-0.15
		c0.067,0.033,0.117,0.066,0.15,0.1c-0.7-0.167-1.534,0.1-2.5,0.8c0.767-0.434,1.617-0.417,2.55,0.05c0.2,0.133,0.567,0.333,1.1,0.6
		c0.2,0.2,0.267,0.383,0.2,0.55c-0.033,0.1-0.15,0.217-0.35,0.35c0.367,0.133,0.767,0.45,1.2,0.95
		c0.067,0.367,0.05,0.733-0.05,1.101c-0.1,0.3-0.267,0.583-0.5,0.85c-0.1,0.101-0.217,0.2-0.35,0.3
		C15.083,29.483,14.917,29.616,14.75,29.75z"/>
</g>
</svg>
