<?xml version="1.0" encoding="iso-8859-1"?>
<!-- Generator: Adobe Illustrator 15.1.0, SVG Export Plug-In . SVG Version: 6.00 Build 0)  -->
<!DOCTYPE svg PUBLIC "-//W3C//DTD SVG 1.1//EN" "http://www.w3.org/Graphics/SVG/1.1/DTD/svg11.dtd">
<svg version="1.1" id="flash0.ai" xmlns="http://www.w3.org/2000/svg" xmlns:xlink="http://www.w3.org/1999/xlink" x="0px" y="0px"
	 width="62.2px" height="45.1px" viewBox="0 0 62.2 45.1" style="enable-background:new 0 0 62.2 45.1;" xml:space="preserve">
<symbol  id="rookswort_x5F_1" viewBox="0.025 -32.775 61.838 32.775">
	<g id="Layer_1_2_">
		<g>
			<path style="fill-rule:evenodd;clip-rule:evenodd;fill:#373806;" d="M56.7-13.5c-0.004-0.128-0.021-0.294-0.05-0.5
				c0-0.033,0-0.25,0-0.65c0-0.267-0.017-0.467-0.05-0.6l-0.05-0.05c-0.1-0.1-0.25-0.184-0.45-0.25l-0.05-0.5
				c-0.033-0.167-0.117-0.4-0.25-0.7c-0.066-0.3-0.017-0.533,0.15-0.7c0.1-0.1,0.216-0.216,0.35-0.35
				c0.067-0.1,0.117-0.233,0.15-0.4c0.066-0.466-0.05-0.816-0.35-1.05c-0.5-0.233-0.85-0.4-1.05-0.5l-0.8-0.4
				c-0.163-0.098-0.472-0.181-0.925-0.25c0.026,0.01,0.051,0.026,0.075,0.05c0.4,0.2,0.667,0.367,0.8,0.5
				c0.733,0.633,0.95,1.467,0.65,2.5c-0.033,0.167-0.083,0.3-0.15,0.4l0.35,0.4c0.2,0.167,0.467,0.45,0.8,0.85l0.1,0.05
				c-0.132-0.026-0.224-0.052-0.275-0.075c0.279,0.197,0.354,0.489,0.225,0.875c-0.1,0.4-0.35,0.583-0.75,0.55
				c0.033,0.033,0.233,0.167,0.6,0.4c0.2,0.133,0.317,0.333,0.35,0.6c0,0.133,0,0.233,0,0.3c-0.033,0.167-0.083,0.317-0.15,0.45
				c-0.1,0.167-0.233,0.316-0.4,0.45c-0.2,0.167-0.533,0.283-1,0.35c-0.767-0.167-1.233-0.183-1.4-0.05
				c0.434,0.367,0.25,0.883-0.55,1.55c-0.533,0.733-0.967,1.233-1.3,1.5l0.1,0.05l0.05,0.05c0.1-0.2,0.383-0.467,0.85-0.8L53-10
				l0.1-0.1c0.167-0.066,0.367-0.167,0.6-0.3c0.1,0.167,0.167,0.333,0.2,0.5c0.2,0.933,0.883,1.117,2.05,0.55
				C56.417-9.583,56.8-10,57.1-10.6c0.133-0.3,0.316-0.85,0.55-1.65c0.233-0.9,0.817-1.9,1.75-3c0.967-1.133,1.583-2.067,1.85-2.8
				v-0.05l-0.45-0.15c-0.533-0.167-0.95-0.35-1.25-0.55c-0.267-0.133-0.417-0.35-0.45-0.65c-0.167,0-0.25,0.117-0.25,0.35
				c-0.033,0.2,0.05,0.367,0.25,0.5c0.133,0.067,0.333,0.167,0.6,0.3c0.233,0.1,0.4,0.25,0.5,0.45c0.3,0.533,0.233,1.05-0.2,1.55
				c-0.067,0.1-0.517,0.483-1.35,1.15c-0.533,0.4-0.833,0.816-0.9,1.25c-0.433,1.5-0.7,2.35-0.8,2.55c-0.233,0.6-0.5,1.017-0.8,1.25
				c-0.267,0.267-0.617,0.4-1.05,0.4c-0.367,0-0.583-0.2-0.65-0.6c0-0.133,0-0.25,0-0.35c0.2-0.033,0.483-0.05,0.85-0.05v-0.7
				l1.2-0.05c0.033-0.167,0-0.417-0.1-0.75l0.25-0.45c0.033-0.167,0.05-0.434,0.05-0.8V-13.5z M42.25-21.05
				c-0.4,0-0.683-0.017-0.85-0.05c0.133,0.1,0.5,0.217,1.1,0.35c0-0.067,0.033-0.15,0.1-0.25v-0.05H42.25z M48.3-10.85
				c-1.133-0.033-2.066-0.083-2.8-0.15c-0.033,0.167-0.067,0.317-0.1,0.45l-0.1,0.45h0.05l0.35-0.05
				c0.566-0.033,1.033,0.133,1.4,0.5l0.05-0.05c0.633-0.466,1.167-0.833,1.6-1.1h-0.5L48.3-10.85z M48.1-16
				c-0.033,0.033-0.067,0.05-0.1,0.05l2.6,0.35l0.05-1.3c-0.566-0.233-0.917-0.417-1.05-0.55c-0.2-0.2-0.417-0.517-0.65-0.95
				c-0.233-0.434-0.417-0.733-0.55-0.9c-0.233-0.267-0.55-0.483-0.95-0.65c-0.1-0.033-0.184-0.083-0.25-0.15
				c0.066,0.133,0.1,0.233,0.1,0.3c-0.066,0.1-0.117,0.183-0.15,0.25c0.7,0.4,1.283,0.95,1.75,1.65c0.267,0.367,0.3,0.75,0.1,1.15
				c-0.133,0.333-0.4,0.567-0.8,0.7L48.1-16z M45.65-20.05c0.3,0.066,0.467,0.1,0.5,0.1c0.167,0.067,0.333,0.133,0.5,0.2
				c0.033-0.133-0.017-0.267-0.15-0.4c-0.2-0.267-0.483-0.317-0.85-0.15C45.617-20.2,45.617-20.117,45.65-20.05z M45.9-20.6
				c-0.533-0.167-1.05-0.283-1.55-0.35l-0.3,0.2c-0.133,0.1-0.216,0.2-0.25,0.3c0.7,0.133,1.25,0.25,1.65,0.35l-0.05-0.4
				C45.567-20.533,45.733-20.567,45.9-20.6z"/>
			<path style="fill-rule:evenodd;clip-rule:evenodd;fill:#50510E;" d="M53.4-20.35c-0.167-0.033-0.367-0.05-0.6-0.05
				c0.3,0.033,0.583,0.183,0.85,0.45c0.3,0.3,0.45,0.667,0.45,1.1c0,0.6-0.033,1-0.1,1.2l-0.65-0.6c-0.267-0.233-0.5-0.55-0.7-0.95
				c-0.233-0.5-0.433-0.867-0.6-1.1c-0.4-0.733-0.683-1.15-0.85-1.25l-3.75-1.7c-0.8-0.333-1.534-0.383-2.2-0.15
				c-0.1,0.066-0.183,0.117-0.25,0.15c0.633-0.1,1.25-0.05,1.85,0.15c0.3,0.133,0.75,0.434,1.35,0.9l2,1.1
				c0.566,0.3,1.2,1.017,1.9,2.15l0.8,0.7c0.3,0.3,0.583,0.8,0.85,1.5l0.4,0.5l0.1,0.15c0.4,0.667,0.6,1.1,0.6,1.3
				c-0.167,0.3-0.267,0.533-0.3,0.7v0.1c-0.5,0-0.867,0.05-1.1,0.15c0.433-0.033,0.983,0.067,1.65,0.3c0.5,0.167,0.833,0.35,1,0.55
				c0-0.067,0-0.167,0-0.3c-0.033-0.267-0.15-0.467-0.35-0.6c-0.367-0.233-0.567-0.367-0.6-0.4c0.4,0.033,0.65-0.15,0.75-0.55
				c0.129-0.386,0.054-0.678-0.225-0.875c0.051,0.023,0.143,0.049,0.275,0.075l-0.1-0.05c-0.333-0.4-0.6-0.683-0.8-0.85l-0.35-0.4
				c0.066-0.1,0.117-0.233,0.15-0.4c0.3-1.033,0.083-1.867-0.65-2.5C54.067-19.983,53.8-20.15,53.4-20.35z M56.6-15.25
				c0.033,0.133,0.05,0.333,0.05,0.6c0,0.4,0,0.617,0,0.65c0.029,0.206,0.046,0.372,0.05,0.5c0-0.05,0-0.1,0-0.15l0.1-0.05
				l-0.05-0.15l0.1-0.5v-0.15l-0.1-0.15c0.033-0.033,0.033-0.233,0-0.6H56.6z M32.8-17.8c-1.9-0.034-3.066-0.034-3.5,0
				c-0.367,0.033-1.1-0.034-2.2-0.2c-1.233-0.167-1.967-0.25-2.2-0.25c-0.066,0-0.117-0.017-0.15-0.05l-0.35-0.05
				c-0.556-0.126-1.139-0.385-1.75-0.775c-0.231-0.145-0.431-0.286-0.6-0.425c0.233,0.533,0.383,0.833,0.45,0.9
				c0.233,0.233,0.567,0.417,1,0.55c0.767,0.233,1.4,0.35,1.9,0.35c1.367,0,3.417,0.067,6.15,0.2c0.034,0,0.483,0.017,1.35,0.05
				C32.833-17.567,32.8-17.667,32.8-17.8z M40.75-21.3v0.05c0.1,0.2,0.167,0.467,0.2,0.8l0.05,0.1c0.367,0.167,0.85,0.267,1.45,0.3
				c-0.034-0.133-0.034-0.3,0-0.5v-0.15l0.05-0.05c-0.6-0.133-0.967-0.25-1.1-0.35c0.167,0.033,0.45,0.05,0.85,0.05
				C41.55-21.083,41.05-21.167,40.75-21.3z M39.1-22c0.033,0,0.066,0,0.1,0c0.5,0,0.783,0.017,0.85,0.05
				c0.1,0.034,0.184,0.067,0.25,0.1c0-0.033,0.017-0.066,0.05-0.1c0.066-0.2,0.25-0.3,0.55-0.3c0.467,0,0.717,0.033,0.75,0.1
				c0.167,0.167,0.117,0.333-0.15,0.5c0.667-0.1,0.917-0.333,0.75-0.7c-0.133-0.3-0.65-0.45-1.55-0.45c-0.934,0.1-1.45,0.3-1.55,0.6
				C39.117-22.133,39.1-22.067,39.1-22z M32.4-15.4c-0.738,0.43-1.705,1.047-2.9,1.85l-0.15,0.1c-0.048,0.032-0.098,0.065-0.15,0.1
				L29-13.2c0.033,0.267,0.017,0.583-0.05,0.95c-0.034,0.2-0.133,0.4-0.3,0.6c-0.05,0.075-0.1,0.142-0.15,0.2
				c0.333-0.2,0.583-0.316,0.75-0.35c0.067,0,0.15-0.034,0.25-0.1c0.067,0.033,0.15,0.117,0.25,0.25c0.233,0,0.55-0.217,0.95-0.65
				c0.5-0.3,0.9-0.417,1.2-0.35l-0.2,0.5c0.133-0.2,0.433-0.333,0.9-0.4c0.5-0.1,0.8-0.017,0.9,0.25c0.033,0.133,0,0.316-0.1,0.55
				l-0.45,0.95c0.1-0.1,0.2-0.284,0.3-0.55l0.55-0.55c0.3-0.533,0.317-0.9,0.05-1.1H33.8c-0.1-0.067-0.267-0.117-0.5-0.15
				c-0.233,0-0.4-0.033-0.5-0.1l-0.25-0.4c-0.033-0.167-0.017-0.283,0.05-0.35c0.066-0.033,0.167-0.067,0.3-0.1
				c0.133-0.066,0.317-0.1,0.55-0.1c0.167-0.066,0.283-0.183,0.35-0.35c0.1-0.267,0.083-0.517-0.05-0.75
				c-0.133-0.233-0.333-0.383-0.6-0.45H33.1C32.9-15.65,32.667-15.533,32.4-15.4z M20.15-13.65l-0.1-0.2
				c-0.833-0.3-1.6-0.267-2.3,0.1h1.4C19.55-13.75,19.883-13.717,20.15-13.65z M17.65-13.7c-0.133-0.167-0.283-0.35-0.45-0.55
				c-0.4-0.467-0.667-0.867-0.8-1.2c-0.167-0.433-0.25-0.917-0.25-1.45v-0.85c0-0.1,0.017-0.2,0.05-0.3
				c-0.2,0.333-0.317,0.55-0.35,0.65c-0.2,0.5-0.233,1.117-0.1,1.85c0.033,0.5,0.25,1.083,0.65,1.75c0.167,0.3,0.317,0.55,0.45,0.75
				c0.066-0.067,0.133-0.133,0.2-0.2C17.25-13.417,17.45-13.567,17.65-13.7z M16.65-5.85c-0.162-0.109-0.312-0.243-0.45-0.4
				L16.15-6.2c0.4,0.733,1.05,1.05,1.95,0.95c0.5-0.067,1.267-0.283,2.3-0.65c0-0.267-0.05-0.5-0.15-0.7
				c-0.6,0.3-1.183,0.533-1.75,0.7c0.133-0.4,0.2-0.7,0.2-0.9v-2.45c-0.267-0.2-0.55-0.417-0.85-0.65c0,0.6-0.083,1.2-0.25,1.8
				c-0.167,0.9-0.367,1.533-0.6,1.9L16.65-5.85z M5.15-17.3c0.3-0.167,0.667-0.3,1.1-0.4l0.7-0.15l0.5-0.1h0.1v-0.1
				c0-0.1-0.017-0.2-0.05-0.3c-0.067-0.133-0.183-0.283-0.35-0.45c-0.1-0.1-0.2-0.184-0.3-0.25l-0.3,0.25
				c-0.367,0.267-0.65,0.466-0.85,0.6c-0.3,0.233-0.483,0.5-0.55,0.8V-17.3z M8.5-6.45c0.167,0.1,0.417,0.267,0.75,0.5
				c0.4,0.2,1.017,0.45,1.85,0.75c0.267,0.133,0.883,0.233,1.85,0.3c0.767,0.1,1.55,0.1,2.35,0l-0.2-0.35L15.05-5.3
				c-1.033,0.1-2.216,0.017-3.55-0.25c-0.233-0.067-0.467-0.133-0.7-0.2c-0.033-0.1-0.05-0.217-0.05-0.35
				c-0.033-0.333-0.2-0.75-0.5-1.25c-0.067-0.167-0.267-0.467-0.6-0.9C9.383-8.617,9.217-8.933,9.15-9.2
				C8.917-10.1,9-10.617,9.4-10.75c0.367-0.167,0.633-0.1,0.8,0.2c0.133,0.267,0.117,0.55-0.05,0.85c-0.133,0.1-0.3,0.083-0.5-0.05
				c-0.033,0.2,0.133,0.317,0.5,0.35c0.333,0.033,0.567-0.017,0.7-0.15c0.2-0.267,0.2-0.717,0-1.35
				c-0.167-0.533-0.467-0.783-0.9-0.75c-0.534,0-0.934,0.117-1.2,0.35c-0.333,0.3-0.5,0.733-0.5,1.3c0,0.467,0.1,0.917,0.3,1.35
				c0.467,0.967,0.767,1.8,0.9,2.5c-0.667-0.267-1.3-0.567-1.9-0.9C7.664-6.98,7.781-6.914,7.9-6.85L8.5-6.45z M40.55-9
				c0.281-0.281,0.531-0.473,0.75-0.575L41.35-9.6h0.05c0.167-0.066,0.85-0.517,2.05-1.35L43.3-11
				c-0.367-0.133-0.683-0.15-0.95-0.05l-0.15,0.1c-0.2,0.233-0.383,0.4-0.55,0.5c-0.167,0.034-0.316,0.083-0.45,0.15
				c-0.133,0.133-0.267,0.333-0.4,0.6C40.7-9.367,40.617-9.133,40.55-9z M47.1-9.65c-0.367-0.367-0.833-0.533-1.4-0.5l-0.35,0.05
				c-0.167,0.6-0.434,1.15-0.8,1.65C44.45-8.283,44.133-8,43.6-7.6c-0.267,0.2-0.483,0.317-0.65,0.35
				c-0.633,0.067-1.2,0.05-1.7-0.05c0.633,0.4,1.2,0.583,1.7,0.55c0.5,0,0.867-0.083,1.1-0.25c0.1-0.333,0.25-0.683,0.45-1.05
				c0,0.2,0.017,0.417,0.05,0.65c0.167-0.167,0.383-0.434,0.65-0.8L47.1-9.65z M55.95-12.55h-0.5c-0.567-0.067-1.4-0.1-2.5-0.1H52.8
				c-1.233-0.1-1.966-0.067-2.2,0.1c0.167,0.033,0.5,0.117,1,0.25c0.433,0.167,0.75,0.35,0.95,0.55
				c-0.033,0.367-0.216,0.783-0.55,1.25c-0.433,0.567-0.7,0.967-0.8,1.2l-0.95,1.75c-0.733,1.3-1.15,2.2-1.25,2.7v0.05
				c0.033-0.067,0.083-0.117,0.15-0.15c0.4-0.4,0.717-0.833,0.95-1.3c0.033-0.033,0.05-0.067,0.05-0.1
				c0.2-0.367,0.434-0.883,0.7-1.55c0.167-0.3,0.35-0.567,0.55-0.8l-0.1-0.05c0.333-0.267,0.767-0.767,1.3-1.5
				c0.8-0.667,0.983-1.183,0.55-1.55c0.167-0.133,0.633-0.117,1.4,0.05c0.467-0.067,0.8-0.183,1-0.35
				C55.717-12.233,55.85-12.383,55.95-12.55z M61.25-18.05c-0.267,0.733-0.883,1.667-1.85,2.8c-0.933,1.1-1.517,2.1-1.75,3
				c-0.233,0.8-0.417,1.35-0.55,1.65c-0.3,0.6-0.684,1.017-1.15,1.25C54.783-8.783,54.1-8.967,53.9-9.9
				c-0.033-0.167-0.1-0.333-0.2-0.5c-0.233,0.133-0.434,0.233-0.6,0.3L53-10c0,0.067,0,0.133,0,0.2c0,0.367,0.133,0.75,0.4,1.15
				c0.3,0.4,0.633,0.65,1,0.75c0.3,0.066,0.883-0.033,1.75-0.3c0.367-0.167,0.767-0.5,1.2-1c0.4-0.5,0.6-1.367,0.6-2.6
				c-0.034-1,0.45-1.867,1.45-2.6c0.3-0.233,0.767-0.617,1.4-1.15c0.467-0.2,0.784-0.5,0.95-0.9c0.167-0.433,0.15-0.833-0.05-1.2
				C61.6-17.817,61.45-17.95,61.25-18.05z M37.5-17.65c-0.233,0.233-0.5,0.417-0.8,0.55c0.333,0.1,0.7,0.2,1.1,0.3
				c0.833,0.233,1.383,0.466,1.65,0.7c0.3,0.267,0.517,0.717,0.65,1.35c0.033-0.833,0.5-1.233,1.4-1.2
				c0.767,0.034,1.433,0.284,2,0.75c0.467,0.4,1.1,0.55,1.9,0.45c1.434-0.1,2.333-0.1,2.7,0c0.566,0.167,0.85,0.267,0.85,0.3
				c-0.1,0.167-0.367,0.333-0.8,0.5c-0.566,0.233-0.883,0.367-0.95,0.4l0.65,0.05l1.2-0.2c0.4-0.066,0.983-0.167,1.75-0.3l0.65-0.05
				c0.367,0,0.633,0.017,0.8,0.05l-0.9-0.25L51-14.45c-0.133-0.167-0.167-0.433-0.1-0.8l0.1-0.5c0-0.6-0.017-0.933-0.05-1
				c-0.034-0.167-0.133-0.283-0.3-0.35c0,0.067,0,0.133,0,0.2l-0.05,1.3L48-15.95l-1.75-0.2c-2.1-0.2-3.783-0.283-5.05-0.25
				c-0.733-0.367-1.184-0.567-1.35-0.6C38.917-17.333,38.133-17.55,37.5-17.65z M47.15-19.55c-0.033,0.033-0.05,0.066-0.05,0.1
				c-0.033,0.1-0.067,0.184-0.1,0.25c0.333,0.367,0.6,0.633,0.8,0.8c0.333,0.267,0.534,0.483,0.6,0.65v0.95
				c-0.066,0.463-0.166,0.729-0.3,0.8l0.1-0.05c0.4-0.133,0.667-0.367,0.8-0.7c0.2-0.4,0.167-0.783-0.1-1.15
				C48.433-18.6,47.85-19.15,47.15-19.55z M45.9-19.8c0.267,0.066,0.5,0.15,0.7,0.25c0.033-0.067,0.05-0.133,0.05-0.2
				c-0.167-0.067-0.333-0.133-0.5-0.2c-0.033,0-0.2-0.033-0.5-0.1c0.033,0.1,0.133,0.167,0.3,0.2
				C45.917-19.85,45.9-19.833,45.9-19.8z M45.45-20.1c-0.4-0.1-0.95-0.217-1.65-0.35c-0.1,0.133-0.117,0.3-0.05,0.5
				c0.367,0.034,0.75,0.05,1.15,0.05c0.2,0,0.4,0,0.6,0L45.45-20.1z M29.2-2.65L27.9-4.4c-0.133-0.333-0.117-0.833,0.05-1.5
				l-0.5,0.55c-0.467,0.533-0.684,0.934-0.65,1.2c0.034,0.2,0.1,0.333,0.2,0.4c0.033,0.033,0.183,0.117,0.45,0.25
				C28.383-3,28.967-2.717,29.2-2.65z M23-8.45l0.4,0.15h0.75c0.267,0.1,0.45,0.316,0.55,0.65c0.033-0.2,0-0.467-0.1-0.8
				c0.033-0.267,0.133-0.483,0.3-0.65c0.133-0.1,0.333-0.25,0.6-0.45c0.4-0.3,0.983-0.7,1.75-1.2l-0.45,0.1
				c-0.033,0.033-0.066,0.066-0.1,0.1c-0.034,0.066-0.05,0.117-0.05,0.15l-0.45-0.1c-0.133,0.167-0.367,0.25-0.7,0.25
				c-0.767,0.667-1.533,1.267-2.3,1.8H23z M18.05-13.15c-0.233,0.167-0.45,0.383-0.65,0.65c-0.066,0.067-0.117,0.133-0.15,0.2
				c0.033,0.033,0.05,0.066,0.05,0.1c0.2,0.434,0.35,0.883,0.45,1.35c0.2,0.2,0.517,0.45,0.95,0.75c0-0.5-0.017-0.867-0.05-1.1
				c-0.033-0.133-0.05-0.25-0.05-0.35c-0.033-0.1-0.05-0.2-0.05-0.3c-0.133-0.467-0.3-0.883-0.5-1.25V-13.15z"/>
			<path style="fill-rule:evenodd;clip-rule:evenodd;fill:#B1B356;" d="M20.35-21.05l-0.25-0.7c-0.2-0.533-0.417-0.817-0.65-0.85
				H19.4c0,0.1,0.017,0.283,0.05,0.55c0.033,0.566,0.133,1.183,0.3,1.85l0.1,0.2c0.233,0.533,0.9,1.1,2,1.7l0.3,0.15
				c0.667,0.4,1.417,0.75,2.25,1.05l-0.55-0.5l-0.45-0.35c-0.6-0.4-1.283-0.917-2.05-1.55C21.017-19.8,20.683-20.317,20.35-21.05z
				 M30.35-16.2c-0.267-0.1-0.684-0.216-1.25-0.35c-0.5-0.133-0.8-0.2-0.9-0.2c-0.4-0.067-0.967-0.1-1.7-0.1
				c-0.767-0.033-1.317-0.066-1.65-0.1l0.1,0.05c0.533,0.2,1.383,0.35,2.55,0.45L28-16.4c0.7,0.1,1.5,0.183,2.4,0.25L30.35-16.2z
				 M2.35-14.05c0,0.066,0,0.133,0,0.2c0.03,1.265,0.238,2.432,0.625,3.5c-0.034-0.101-0.059-0.201-0.075-0.3l-0.25-2.1
				C2.55-13.517,2.45-13.95,2.35-14.05z M4.15-8c-0.066-0.233-0.3-0.65-0.7-1.25L3.7-8.7c0.133,0.267,0.283,0.517,0.45,0.75V-8z
				 M2.9-5.4c0.067-0.133,0.167-0.317,0.3-0.55C3.3-6.15,3.333-6.3,3.3-6.4c-0.533,0.533-0.816,0.867-0.85,1c0.133,0,0.267,0,0.4,0
				H2.9z M18.5-2.6c0.067-0.367-0.05-0.65-0.35-0.85L17.3-4c-0.267-0.2-0.483-0.317-0.65-0.35c-0.4-0.1-0.717-0.066-0.95,0.1L15.6-4
				c-0.167,0.133-0.267,0.2-0.3,0.2h-1.8c-0.667,0.033-1.167,0.05-1.5,0.05c-0.6,0-1.083-0.1-1.45-0.3
				C9.317-4.683,8.417-4.967,7.85-4.9l0.1,0.15c0.566,0.3,1.167,0.567,1.8,0.8l2,0.65c0.3,0.066,0.6,0.133,0.9,0.2
				c0.233,0.033,0.467,0.067,0.7,0.1c1.3,0.233,2.566,0.333,3.8,0.3C17.75-2.6,18.2-2.567,18.5-2.6z M25.65-4.95
				c0.067-0.2,0.083-0.367,0.05-0.5c-0.567-0.033-1.3,0.067-2.2,0.3c-0.7,0.2-1.3,0.467-1.8,0.8c-0.4,0.1-0.7,0.2-0.9,0.3
				c-0.433,0.167-0.6,0.367-0.5,0.6h1h0.15C23.617-4.183,25.017-4.683,25.65-4.95z M29.6-1.1c0.633,0.4,1.217,0.583,1.75,0.55h0.2
				c0.633-0.133,1.184-0.25,1.65-0.35h-0.15c-1.233,0-2.05-0.05-2.45-0.15L30.05-1.2L29-1.6l-0.15-0.1h-0.1
				C29.017-1.467,29.3-1.267,29.6-1.1z M43.95-5.3c0.1,0.333,0.3,0.633,0.6,0.9c0.4,0.367,0.917,0.583,1.55,0.65L46-3.8
				c-0.567-0.1-0.983-0.284-1.25-0.55c-0.2-0.2-0.333-0.566-0.4-1.1c0-0.133,0-0.267,0-0.4s-0.067-0.217-0.2-0.25L43.9-6.15
				c0,0.167,0,0.333,0,0.5L43.95-5.3z M50.65-12.35c-0.4-0.033-0.917,0.2-1.55,0.7c-0.434,0.367-0.7,0.633-0.8,0.8l-0.05,0.05h0.5
				v0.05c0.467,0.767,0.7,1.283,0.7,1.55c0,0.2-0.067,0.467-0.2,0.8C49.117-8.033,49.033-7.75,49-7.55c0,0.066-0.017,0.133-0.05,0.2
				l-0.05,0.2c0.233,0.1,0.45-0.083,0.65-0.55c0.2-0.367,0.317-0.716,0.35-1.05l-0.05-0.7c0.033-0.2,0.133-0.45,0.3-0.75
				c0.067-0.2,0.133-0.566,0.2-1.1c0.066-0.167,0.3-0.417,0.7-0.75l0.15-0.15L50.65-12.35z M40.6-11.4c0.2,0,0.55,0.033,1.05,0.1
				l2.55,0.1c0.433,0,1.117,0.017,2.05,0.05c0.833,0,1.517-0.033,2.05-0.1c0.133-0.433-0.383-0.65-1.55-0.65
				c-1.2,0-1.783-0.2-1.75-0.6c-1.033-0.167-2.283-0.25-3.75-0.25c-0.333,0-1.083-0.1-2.25-0.3c-0.933-0.133-1.683-0.15-2.25-0.05
				c-0.3,0.067-0.433,0.15-0.4,0.25c0.033,0.267,0.033,0.434,0,0.5c-0.6,0.033-1.083,0.333-1.45,0.9
				c-0.267,0.434-0.767,0.883-1.5,1.35l-1.45,1c0.167-0.1,0.35-0.183,0.55-0.25c1.133-0.566,2.167-1.183,3.1-1.85
				c0.267-0.167,0.467-0.316,0.6-0.45c1-0.1,2.433-0.017,4.3,0.25C40.533-11.4,40.567-11.4,40.6-11.4z M43.65-19.1
				c-0.133-0.667-0.25-1.1-0.35-1.3l-0.2-0.3c-0.167-0.167-0.333-0.267-0.5-0.3c-0.067,0.1-0.1,0.183-0.1,0.25l-0.05,0.05v0.15
				c-0.034,0.2-0.034,0.367,0,0.5c0.033,0.066,0.066,0.133,0.1,0.2v0.05c0.133,0.233,0.417,0.583,0.85,1.05
				c0.067,0.067,0.184,0.267,0.35,0.6c0.2,0.267,0.367,0.433,0.5,0.5l0.3-0.05C44.15-17.833,43.85-18.3,43.65-19.1z M52.35-15.75
				h0.3c0.067-0.633-0.066-1.3-0.4-2c-0.333-0.667-0.767-1.2-1.3-1.6l-0.5-0.35l0.45,0.6c0.167,0.233,0.317,0.684,0.45,1.35
				c0.133,0.933,0.35,1.633,0.65,2.1l0.2-0.1H52.35z M31.6-10.7c-0.167,0.167-0.45,0.3-0.85,0.4c-0.433,0.1-0.717,0.2-0.85,0.3
				l-1.2,1c-0.3,0.367-0.534,0.617-0.7,0.75c-0.667,0.567-1.217,1.2-1.65,1.9l-1.1,0.8c2.6-1.434,4.817-2.917,6.65-4.45
				c0.4-0.3,0.633-0.5,0.7-0.6c0.2-0.267,0.183-0.533-0.05-0.8c-0.2,0-0.383,0.083-0.55,0.25C31.767-10.883,31.633-10.733,31.6-10.7
				z M22.7-6c0.2,0.067,0.383,0.017,0.55-0.15c0.133-0.133,0.167-0.3,0.1-0.5c-0.733-0.1-1.2-0.033-1.4,0.2
				c0,0.133,0.066,0.217,0.2,0.25L22.7-6z M17.15-10.4c-0.333-0.434-0.517-0.883-0.55-1.35l0.05-0.95
				C16.217-11.9,16.383-11.133,17.15-10.4z"/>
			<path style="fill-rule:evenodd;clip-rule:evenodd;fill:#787730;" d="M24.35-26.35h0.05c0.4-0.033,0.667-0.083,0.8-0.15
				c0.167-0.067,0.05-0.167-0.35-0.3c-0.033,0-0.083-0.017-0.15-0.05l-0.05-0.05c-0.033,0-0.066,0-0.1,0
				c-0.033,0-0.066-0.017-0.1-0.05c-0.138-0.001-0.271-0.018-0.4-0.05l-0.35-0.05c-0.267-0.034-0.534-0.067-0.8-0.1
				c-0.533-0.067-1.017,0.1-1.45,0.5l-0.85,1c-0.067,0.133-0.15,0.6-0.25,1.4c-0.033,0.167-0.05,0.733-0.05,1.7
				c0,0.833,0.017,1.333,0.05,1.5c0.333,0.733,0.667,1.25,1,1.55c0.767,0.633,1.45,1.15,2.05,1.55l0.45,0.35l0.75,0.2
				c0.5,0.1,1.017,0.15,1.55,0.15c0.633,0,1.583,0.083,2.85,0.25l4.75,0.05L33.6-17c0.066-0.1,0.15-0.2,0.25-0.3l-0.5-0.1
				c-0.1,0-0.184,0-0.25,0c-0.1,0-0.167-0.017-0.2-0.05v-0.05c-0.867-0.033-1.316-0.05-1.35-0.05c-2.733-0.133-4.783-0.2-6.15-0.2
				c-0.5,0-1.133-0.117-1.9-0.35c-0.433-0.133-0.767-0.316-1-0.55c-0.067-0.067-0.217-0.367-0.45-0.9
				c-0.016-0.018-0.032-0.035-0.05-0.05c-0.167-0.133-0.3-0.267-0.4-0.4c-0.3-0.367-0.517-0.95-0.65-1.75
				c-0.133-0.833-0.117-1.533,0.05-2.1c0.167-0.5,0.55-1.017,1.15-1.55c0.467-0.4,0.867-0.667,1.2-0.8
				C23.517-26.267,23.85-26.317,24.35-26.35z M33.1-15.75h0.05c0.267,0.067,0.467,0.217,0.6,0.45c0.133,0.233,0.15,0.483,0.05,0.75
				c-0.066,0.167-0.183,0.283-0.35,0.35c-0.233,0-0.417,0.034-0.55,0.1c-0.133,0.033-0.233,0.067-0.3,0.1
				c-0.067,0.067-0.083,0.183-0.05,0.35l0.25,0.4c0.1,0.067,0.267,0.1,0.5,0.1c0.233,0.033,0.4,0.083,0.5,0.15h0.05
				c0.066-0.167,0.167-0.267,0.3-0.3c0.133-0.133,0.45-0.184,0.95-0.15c0.3-0.066,0.55-0.3,0.75-0.7c0.333-0.733,0.017-1.2-0.95-1.4
				c-0.9-0.167-1.45-0.25-1.65-0.25L33.1-15.75z M16.2-6.25c-0.025-0.049-0.058-0.107-0.1-0.175
				c-0.016-0.024-0.033-0.049-0.05-0.075c-0.033-0.067-0.216-0.467-0.55-1.2c-0.067-0.167-0.117-0.316-0.15-0.45
				c-0.033-0.033-0.05-0.067-0.05-0.1c-0.033-0.033-0.05-0.067-0.05-0.1c-0.033-0.033-0.05-0.066-0.05-0.1
				c-0.133-0.267-0.267-0.483-0.4-0.65c-0.033-0.033-0.066-0.066-0.1-0.1l0.75,1.9l0.2,0.85c0.167,0.567,0.45,0.967,0.85,1.2
				c0.133,0.1,0.367,0.183,0.7,0.25c0.167,0.033,0.35,0.183,0.55,0.45l0.1,0.15c0.066,0.033,0.3,0,0.7-0.1
				c0.467,0,0.717-0.017,0.75-0.05c-0.033-0.034-0.117-0.067-0.25-0.1c-0.1,0-0.15-0.033-0.15-0.1
				c0.267-0.133,0.684-0.317,1.25-0.55c0.467-0.233,0.817-0.5,1.05-0.8c0.333-0.566,0.466-0.983,0.4-1.25
				c-0.434,0.3-0.883,0.55-1.35,0.75c0.1,0.2,0.15,0.434,0.15,0.7c-1.033,0.367-1.8,0.583-2.3,0.65c-0.9,0.1-1.55-0.217-1.95-0.95
				L16.2-6.25z M15.05-5.3l0.05,0.05l0.2,0.35c-0.8,0.1-1.583,0.1-2.35,0c-0.967-0.067-1.583-0.167-1.85-0.3
				c-0.833-0.3-1.45-0.55-1.85-0.75c-0.333-0.233-0.583-0.4-0.75-0.5L7.25-7.2C7.146-7.275,7.037-7.35,6.925-7.425l-0.2-0.15
				C6.648-7.636,6.573-7.694,6.5-7.75L5.7-8.4C4.333-9.633,3.567-11,3.4-12.5c-0.133-0.933,0.017-2.05,0.45-3.35
				c0.2-0.633,0.633-1.117,1.3-1.45v-0.1c0.067-0.3,0.25-0.567,0.55-0.8c0.2-0.133,0.483-0.333,0.85-0.6l0.3-0.25
				c-0.194-0.129-0.344-0.196-0.45-0.2H6.35H6.3L6.2-19.2l-0.05,0.05L6-19.1l-1.55,1.5c-0.034,0.033-0.2,0.3-0.5,0.8
				c-0.133,0.233-0.25,0.566-0.35,1c-0.1,0.5-0.2,0.833-0.3,1c-0.267,0.633-0.367,1.55-0.3,2.75c0,0.7,0.117,1.25,0.35,1.65
				C3.483-10.233,3.7-9.983,4-9.65c0.267,0.3,0.433,0.583,0.5,0.85c0.133,0.367,0.417,0.683,0.85,0.95l2.9,2.05
				c1.167,0.767,1.967,1.2,2.4,1.3c0.167,0.033,0.65,0.05,1.45,0.05l3.5-0.05c0-0.133-0.05-0.267-0.15-0.4
				c-0.133-0.167-0.217-0.3-0.25-0.4H15.05z M27.95-5.9L28-6.2l-1.35,0.95c-0.025,0.15-0.042,0.292-0.05,0.425v0.175
				c0,0.233,0.017,0.433,0.05,0.6c0.1,0.367,0.217,0.633,0.35,0.8l0.35,0.4c0.033,0,0.05,0.017,0.05,0.05l0.7,0.55h0.1
				C28.333-2.217,28.6-2,29-1.6l1.05,0.4l0.55,0.15h0.2c2,0,3.517-0.2,4.55-0.6l0.25-0.1c0-0.033,0.017-0.067,0.05-0.1V-1.9
				L35.6-1.95c-0.033-0.1-0.133-0.133-0.3-0.1C35.267-2.017,35.233-2,35.2-2l-0.8,0.25c-0.106,0.036-0.223,0.061-0.35,0.075
				C34.033-1.667,34.017-1.658,34-1.65h-0.025C33.884-1.617,33.792-1.6,33.7-1.6l-0.3,0.1c-0.9,0.233-1.45,0.367-1.65,0.4
				S31.2-1.167,30.7-1.4c-0.534-0.267-0.883-0.5-1.05-0.7L29.2-2.65C28.967-2.717,28.383-3,27.45-3.5
				C27.183-3.633,27.033-3.717,27-3.75c-0.1-0.067-0.167-0.2-0.2-0.4c-0.033-0.267,0.184-0.667,0.65-1.2L27.95-5.9z M40.2-9.9
				c-0.133,0.1-0.284,0.217-0.45,0.35c0.033,0.333-0.067,0.617-0.3,0.85l-0.7,0.65L39-8c0.367,0,0.733-0.167,1.1-0.5v-0.05l0.1-0.05
				L40.55-9c0.067-0.133,0.15-0.367,0.25-0.7c0.133-0.267,0.267-0.466,0.4-0.6c0.133-0.067,0.283-0.117,0.45-0.15
				c0.167-0.1,0.35-0.267,0.55-0.5l0.15-0.1c-0.4,0-0.684-0.017-0.85-0.05h-0.05c-0.233,0.233-0.467,0.467-0.7,0.7L40.2-9.9z
				 M49.05-13.7l2.5-0.05v0.05l0.7,0.6H51.5L50.65-13c-0.7,0.367-1.2,0.533-1.5,0.5l0.5,0.35c0.133-0.3,0.467-0.367,1-0.2l0.55,0.15
				l-0.15,0.15c0.267,0.3,0.367,0.617,0.3,0.95c-0.267,0.567-0.417,1.017-0.45,1.35l-0.25,1.1c-0.033,0.167-0.167,0.333-0.4,0.5
				c-0.3,0.167-0.467,0.283-0.5,0.35c-0.133,0.167-0.25,0.383-0.35,0.65c-0.1,0.4-0.167,0.633-0.2,0.7
				c-0.267,0.8-0.583,1.367-0.95,1.7l-1.05,1c0.466-0.133,0.966-0.4,1.5-0.8c0.033-0.034,0.066-0.067,0.1-0.1
				c0.067-0.033,0.133-0.083,0.2-0.15v-0.05c0.1-0.5,0.517-1.4,1.25-2.7L51.2-9.3c0.1-0.233,0.367-0.633,0.8-1.2
				c0.333-0.467,0.517-0.883,0.55-1.25c-0.2-0.2-0.517-0.383-0.95-0.55c-0.5-0.133-0.833-0.217-1-0.25
				c0.233-0.167,0.967-0.2,2.2-0.1h0.15c1.1,0,1.933,0.033,2.5,0.1h0.5c0.066-0.133,0.117-0.284,0.15-0.45
				c-0.167-0.2-0.5-0.383-1-0.55c-0.667-0.233-1.217-0.333-1.65-0.3c0.233-0.1,0.6-0.15,1.1-0.15v-0.1
				c0.034-0.167,0.133-0.4,0.3-0.7c0-0.2-0.2-0.633-0.6-1.3l-0.1-0.15l-0.25-0.1c-0.453-0.272-0.77-0.505-0.95-0.7
				c0.369,0.433,0.586,1.017,0.65,1.75l-0.05,0.4L52.6-15c0-0.033-0.05-0.05-0.15-0.05l-0.1-0.7H52.2l-0.2,0.1
				c-0.3-0.467-0.517-1.167-0.65-2.1c-0.133-0.667-0.283-1.117-0.45-1.35l-0.45-0.6l0.5,0.35L50.7-19.7l-0.45-0.35l-0.5-0.15h-0.1
				c0.333,0.333,0.583,0.633,0.75,0.9v0.1c0,0.067,0.017,0.117,0.05,0.15c0.1,0.367,0.167,1.017,0.2,1.95
				c0.167,0.067,0.267,0.184,0.3,0.35c0.033,0.067,0.05,0.4,0.05,1l-0.1,0.5c-0.066,0.367-0.033,0.633,0.1,0.8l0.35,0.2l0.9,0.25
				c-0.167-0.033-0.433-0.05-0.8-0.05L50.8-14C50.033-13.867,49.45-13.767,49.05-13.7z M36.7-17.1c-0.3,0.167-0.633,0.283-1,0.35
				c0.3,0.1,0.6,0.233,0.9,0.4c0.367,0.2,0.9,0.467,1.6,0.8c0.1,0.1,0.233,0.333,0.4,0.7c0.133,0.267,0.316,0.4,0.55,0.4
				c0.033,0,0.133,0,0.3,0c0.133,0,0.216,0.017,0.25,0.05c0.033,0,0.05,0.183,0.05,0.55c0.233,0.033,0.617,0.017,1.15-0.05h0.95
				c0.667,0.033,1.667,0.25,3,0.65l1,0.25c0.733,0,1.183-0.033,1.35-0.1l0.65-0.4l-0.65-0.05c0.066-0.034,0.383-0.167,0.95-0.4
				c0.434-0.167,0.7-0.333,0.8-0.5c0-0.033-0.284-0.133-0.85-0.3c-0.367-0.1-1.267-0.1-2.7,0c-0.8,0.1-1.433-0.05-1.9-0.45
				c-0.567-0.466-1.233-0.716-2-0.75c-0.9-0.033-1.367,0.367-1.4,1.2c-0.133-0.633-0.35-1.083-0.65-1.35
				c-0.267-0.233-0.817-0.467-1.65-0.7C37.4-16.9,37.033-17,36.7-17.1z M46.525-19.4c-0.023,0.037-0.048,0.07-0.075,0.1
				c-0.367,0.433-0.733,0.7-1.1,0.8c-0.333,0.1-0.617,0.017-0.85-0.25c-0.4-0.467-0.65-0.867-0.75-1.2
				c-0.067-0.2-0.05-0.367,0.05-0.5c0.034-0.1,0.117-0.2,0.25-0.3l1.65-1.2L45.55-22c-0.333-0.167-0.917,0.017-1.75,0.55
				c-0.367,0.2-0.6,0.45-0.7,0.75l0.2,0.3c0.1,0.2,0.217,0.633,0.35,1.3L43.8-19c0.034,0.033,0.117,0.183,0.25,0.45
				c0.1,0.167,0.2,0.283,0.3,0.35c0.066,0.067,0.167,0.083,0.3,0.05L45-18.2c0.267,0,0.5-0.05,0.7-0.15c0.4-0.2,0.65-0.333,0.75-0.4
				c0.233-0.2,0.367-0.433,0.4-0.7c0.066-0.333,0-0.55-0.2-0.65l-0.1-0.05C46.728-19.913,46.72-19.663,46.525-19.4z M28.5-11.45
				c-0.033,0-0.05,0.017-0.05,0.05c-0.133,0.1-0.267,0.183-0.4,0.25l-0.2,0.2c-0.233,0.067-0.367,0.133-0.4,0.2h-0.2
				c-0.767,0.5-1.35,0.9-1.75,1.2c-0.267,0.2-0.467,0.35-0.6,0.45c-0.167,0.167-0.267,0.383-0.3,0.65c0.1,0.333,0.133,0.6,0.1,0.8
				c-0.1-0.333-0.284-0.55-0.55-0.65H23.4L23-8.45c-0.35-0.025-0.692-0.066-1.025-0.125L20.45-9c-0.4-0.167-0.767-0.367-1.1-0.6
				l-0.075-0.05l-0.575-0.4c0.133,0.333,0.55,0.716,1.25,1.15c0.167,0.167,0.433,0.316,0.8,0.45C21.383-8.183,21.8-8.033,22-8
				s0.317,0.067,0.35,0.1s0.05,0.15,0.05,0.35c0.267,0.033,0.7-0.017,1.3-0.15v0.45c-0.2,0.033-0.333,0.083-0.4,0.15
				c0.067,0.067,0.25,0.083,0.55,0.05c0.233,0,0.383,0.066,0.45,0.2c0.133,0.3-0.033,0.55-0.5,0.75c-0.566,0.133-0.9,0.233-1,0.3
				c0.1,0.133,0.383,0.15,0.85,0.05c0.434-0.067,0.733-0.15,0.9-0.25c0.4-0.167,0.75-0.5,1.05-1c0.3-0.3,0.733-0.717,1.3-1.25
				c0.6-0.8,1.067-1.333,1.4-1.6l0.65-0.7c0.2-0.2,0.733-0.333,1.6-0.4c0.7-0.1,1.1-0.216,1.2-0.35l0.1-0.25
				c0.066-0.133,0.333-0.3,0.8-0.5c0.434-0.267,0.684-0.3,0.75-0.1v0.4c0.1-0.233,0.133-0.417,0.1-0.55
				c-0.1-0.267-0.4-0.35-0.9-0.25c-0.467,0.066-0.767,0.2-0.9,0.4l0.2-0.5c-0.3-0.067-0.7,0.05-1.2,0.35
				c-0.4,0.433-0.717,0.65-0.95,0.65c-0.1-0.133-0.183-0.217-0.25-0.25c-0.1,0.066-0.183,0.1-0.25,0.1
				C29.083-11.767,28.833-11.65,28.5-11.45z M21.05-11.9l-0.2-0.4c-0.033,0.367-0.3,0.8-0.8,1.3c0.133,0,0.267-0.033,0.4-0.1
				c0.133-0.066,0.233-0.167,0.3-0.3c0.1-0.133,0.183-0.267,0.25-0.4C21-11.833,21.017-11.867,21.05-11.9z M20.35-13.25
				c0,0.033,0,0.067,0,0.1l-0.2-0.5c-0.267-0.067-0.6-0.1-1-0.1h-1.4l-0.7,0.5l-0.35,0.5c0.066,0.067,0.167,0.1,0.3,0.1
				c0.1,0,0.45-0.167,1.05-0.5c0.034,0,0.083-0.017,0.15-0.05c0.5-0.233,1.033-0.25,1.6-0.05l0.25,0.1c0.2,0.1,0.35,0.217,0.45,0.35
				C20.433-12.967,20.383-13.117,20.35-13.25z M5.2-5.95v-0.1C5.367-6.017,5.45-6.1,5.45-6.3c0-0.2-0.083-0.317-0.25-0.35
				c-0.267-0.067-0.567-0.033-0.9,0.1C4-6.417,3.75-6.233,3.55-6c-0.2,0.2-0.3,0.4-0.3,0.6C4.083-5.467,4.733-5.65,5.2-5.95z"/>
			<path style="fill-rule:evenodd;clip-rule:evenodd;fill:#919340;" d="M50.95-19.35c0.533,0.4,0.966,0.934,1.3,1.6
				c0.333,0.7,0.467,1.367,0.4,2h-0.3l0.1,0.7c0.1,0,0.15,0.017,0.15,0.05l0.95,0.1l0.05-0.4c-0.064-0.733-0.281-1.317-0.65-1.75
				c0.18,0.195,0.497,0.428,0.95,0.7l0.25,0.1l-0.4-0.5c-0.267-0.7-0.55-1.2-0.85-1.5l-0.8-0.7c-0.7-1.133-1.333-1.85-1.9-2.15
				l-2-1.1c-0.6-0.466-1.05-0.767-1.35-0.9c-0.6-0.2-1.217-0.25-1.85-0.15c0.067-0.033,0.15-0.083,0.25-0.15
				c-0.2,0.1-0.383,0.2-0.55,0.3c-1.067,0.733-1.767,1.417-2.1,2.05V-21c0.167,0.033,0.333,0.133,0.5,0.3
				c0.1-0.3,0.333-0.55,0.7-0.75c0.833-0.533,1.417-0.716,1.75-0.55l0.15,0.05l-1.65,1.2l0.3-0.2l0.6-0.4
				c0.2-0.133,0.533-0.383,1-0.75c0.267-0.133,0.917,0.067,1.95,0.6c0.767,0.4,1.383,0.833,1.85,1.3l0.5,0.15l0.45,0.35L50.95-19.35
				z M22.65-19.125c0.611,0.39,1.194,0.649,1.75,0.775c-0.4-0.1-0.85-0.283-1.35-0.55C22.906-18.978,22.773-19.052,22.65-19.125z
				 M19.45-22.6c0.233,0.033,0.45,0.317,0.65,0.85l0.25,0.7c-0.033-0.167-0.05-0.667-0.05-1.5c0-0.967,0.017-1.534,0.05-1.7
				c0.1-0.8,0.183-1.267,0.25-1.4l0.85-1c-0.034,0.033-0.067,0.066-0.1,0.1c-0.167,0.133-0.417,0.433-0.75,0.9
				c-0.167,0.233-0.367,0.517-0.6,0.85C19.6-24.267,19.417-23.533,19.45-22.6z M2.9-5.4c0.133,0,0.25,0,0.35,0
				c1.1-0.067,1.9-0.367,2.4-0.9L6.4-5.65c0.934,0.7,2.05,1.267,3.35,1.7c-0.633-0.233-1.233-0.5-1.8-0.8L7.85-4.9
				c0.566-0.067,1.467,0.217,2.7,0.85c0.367,0.2,0.85,0.3,1.45,0.3c0.333,0,0.833-0.017,1.5-0.05h1.8c0.034,0,0.133-0.067,0.3-0.2
				l0.1-0.25c0.233-0.167,0.55-0.2,0.95-0.1C16.817-4.317,17.033-4.2,17.3-4l0.85,0.55c0.3,0.2,0.417,0.483,0.35,0.85
				c0.167-0.033,0.3-0.066,0.4-0.1c0.867-0.267,1.667-0.517,2.4-0.75h-1c-0.1-0.233,0.067-0.433,0.5-0.6c0.2-0.1,0.5-0.2,0.9-0.3
				c0.5-0.333,1.1-0.6,1.8-0.8c0.9-0.233,1.633-0.333,2.2-0.3c0.033,0.133,0.017,0.3-0.05,0.5c0.434-0.167,0.767-0.316,1-0.45
				c-0.026,0.211-0.043,0.403-0.05,0.575c0.008-0.133,0.025-0.275,0.05-0.425L28-6.2c0.067-0.2,0.15-0.333,0.25-0.4l0.25-0.25
				l1.4-1.2l1-0.5c0.434-0.2,0.967-0.467,1.6-0.8c-0.2,0.067-0.383,0.15-0.55,0.25l1.45-1c0.733-0.467,1.233-0.917,1.5-1.35
				c0.367-0.566,0.85-0.867,1.45-0.9c0.033-0.066,0.033-0.233,0-0.5c-0.033-0.1,0.1-0.183,0.4-0.25c0.567-0.1,1.317-0.083,2.25,0.05
				c1.167,0.2,1.917,0.3,2.25,0.3c1.467,0,2.717,0.083,3.75,0.25c-0.033,0.4,0.55,0.6,1.75,0.6c1.167,0,1.683,0.217,1.55,0.65
				c-0.533,0.067-1.216,0.1-2.05,0.1c-0.933-0.033-1.617-0.05-2.05-0.05l-2.55-0.1c-0.5-0.067-0.85-0.1-1.05-0.1
				c0.3,0.033,0.633,0.083,1,0.15c-0.033,0.067-0.067,0.117-0.1,0.15c0.167,0.033,0.45,0.05,0.85,0.05
				c0.267-0.1,0.583-0.083,0.95,0.05l0.15,0.05c0.066-0.033,0.133-0.083,0.2-0.15c0.233,0.033,0.85,0.067,1.85,0.1
				c0.733,0.067,1.667,0.117,2.8,0.15c0.1-0.167,0.367-0.433,0.8-0.8c0.633-0.5,1.15-0.733,1.55-0.7c-0.533-0.167-0.867-0.1-1,0.2
				l-0.5-0.35c0.3,0.033,0.8-0.133,1.5-0.5l0.85-0.1h0.75l-0.7-0.6v-0.05l-2.5,0.05l-1.2,0.2l-0.65,0.4
				c-0.167,0.067-0.617,0.1-1.35,0.1l-1-0.25c-1.333-0.4-2.333-0.617-3-0.65H40.9c-0.533,0.066-0.917,0.083-1.15,0.05
				c0-0.367-0.017-0.55-0.05-0.55c-0.034-0.033-0.117-0.05-0.25-0.05c-0.167,0-0.267,0-0.3,0c-0.233,0-0.417-0.133-0.55-0.4
				c-0.167-0.367-0.3-0.6-0.4-0.7c-0.7-0.333-1.233-0.6-1.6-0.8c-0.3-0.167-0.6-0.3-0.9-0.4c-0.1,0.033-0.184,0.05-0.25,0.05
				c-0.3,0.034-0.567,0.017-0.8-0.05c-0.1,0.067-0.2,0.1-0.3,0.1c-0.2,0-0.333-0.083-0.4-0.25l-0.2-0.05L29-17
				c-1.267-0.167-2.217-0.25-2.85-0.25c-0.533,0-1.05-0.05-1.55-0.15l-0.75-0.2l0.55,0.5c0.167,0.067,0.35,0.133,0.55,0.2l-0.1-0.05
				c0.333,0.034,0.883,0.067,1.65,0.1c0.733,0,1.3,0.033,1.7,0.1c0.1,0,0.4,0.067,0.9,0.2c0.566,0.133,0.983,0.25,1.25,0.35
				c0.9,0.1,1.983,0.184,3.25,0.25c-0.1,0.034-0.217,0.083-0.35,0.15c0.2,0,0.75,0.083,1.65,0.25c0.967,0.2,1.283,0.667,0.95,1.4
				c-0.2,0.4-0.45,0.633-0.75,0.7c-0.5-0.033-0.817,0.017-0.95,0.15c-0.133,0.033-0.233,0.133-0.3,0.3
				c0.267,0.2,0.25,0.567-0.05,1.1l-0.55,0.55c-0.1,0.267-0.2,0.45-0.3,0.55l0.45-0.95v-0.4c-0.066-0.2-0.316-0.167-0.75,0.1
				c-0.467,0.2-0.733,0.367-0.8,0.5l-0.1,0.25c-0.1,0.133-0.5,0.25-1.2,0.35c-0.867,0.067-1.4,0.2-1.6,0.4l-0.65,0.7
				c-0.333,0.267-0.8,0.8-1.4,1.6c-0.566,0.533-1,0.95-1.3,1.25c-0.3,0.5-0.65,0.833-1.05,1c-0.167,0.1-0.466,0.183-0.9,0.25
				c-0.467,0.1-0.75,0.083-0.85-0.05c0.1-0.067,0.434-0.167,1-0.3c0.467-0.2,0.633-0.45,0.5-0.75c-0.066-0.133-0.216-0.2-0.45-0.2
				c-0.3,0.033-0.483,0.017-0.55-0.05c0.067-0.066,0.2-0.117,0.4-0.15V-7.7c-0.6,0.133-1.034,0.184-1.3,0.15
				c0-0.2-0.017-0.317-0.05-0.35S22.2-7.967,22-8s-0.617-0.183-1.25-0.45c-0.367-0.133-0.633-0.283-0.8-0.45
				c-0.7-0.434-1.117-0.817-1.25-1.15l0.575,0.4c-0.207-0.153-0.398-0.303-0.575-0.45c-0.434-0.3-0.75-0.55-0.95-0.75
				c-0.133-0.1-0.233-0.183-0.3-0.25c-0.333-0.4-0.4-0.8-0.2-1.2c0.033-0.067,0.083-0.133,0.15-0.2c0.2-0.267,0.417-0.483,0.65-0.65
				c-0.6,0.333-0.95,0.5-1.05,0.5c-0.133,0-0.233-0.033-0.3-0.1l0.35-0.5l0.7-0.5c-0.033,0-0.067,0.017-0.1,0.05
				c-0.2,0.133-0.4,0.284-0.6,0.45c-0.066,0.067-0.133,0.133-0.2,0.2c-0.767,0.966-0.667,1.85,0.3,2.65
				c0.067,0.033,0.133,0.083,0.2,0.15c0.167,0.133,0.333,0.25,0.5,0.35c0.3,0.233,0.583,0.45,0.85,0.65
				c1.233,0.867,2.183,1.383,2.85,1.55l0.5,0.1l-0.2,0.1c-0.067,0.067-0.15,0.117-0.25,0.15c0.066,0.267-0.067,0.684-0.4,1.25
				c-0.233,0.3-0.583,0.567-1.05,0.8c-0.566,0.233-0.983,0.417-1.25,0.55c0,0.067,0.05,0.1,0.15,0.1
				c0.133,0.033,0.217,0.066,0.25,0.1c-0.033,0.033-0.283,0.05-0.75,0.05c-0.4,0.1-0.633,0.133-0.7,0.1l-0.1-0.15
				C17.55-4.817,17.367-4.967,17.2-5c-0.333-0.067-0.567-0.15-0.7-0.25c-0.4-0.233-0.683-0.633-0.85-1.2l-0.2-0.85L14.7-9.2
				c-0.167-0.167-0.333-0.267-0.5-0.3c-0.167-0.033-0.383,0-0.65,0.1c-0.267,0.133-0.466,0.217-0.6,0.25
				c-0.6,0.066-1.034,0.183-1.3,0.35c0,0.8,0.133,1.316,0.4,1.55c0.167,0.133,0.383,0.15,0.65,0.05
				c0.133-0.033,0.333-0.117,0.6-0.25c0-0.3-0.033-0.533-0.1-0.7L12.95-8.1l0.2,0.55c-0.267,0.1-0.533,0.083-0.8-0.05
				c-0.3-0.133-0.417-0.35-0.35-0.65c0.067-0.367,0.6-0.6,1.6-0.7c0.4-0.033,0.667,0.017,0.8,0.15c0.1,0.066,0.217,0.333,0.35,0.8
				c0.3,0.933,0.517,1.817,0.65,2.65L15.3-5.3c-0.033,0-0.066,0-0.1,0c0.033,0.1,0.117,0.233,0.25,0.4
				c0.1,0.133,0.15,0.267,0.15,0.4l-3.5,0.05c-0.8,0-1.283-0.017-1.45-0.05c-0.433-0.1-1.233-0.533-2.4-1.3l-2.9-2.05
				C4.917-8.117,4.633-8.433,4.5-8.8C4.433-9.067,4.267-9.35,4-9.65c-0.3-0.333-0.517-0.583-0.65-0.75C3.117-10.8,3-11.35,3-12.05
				c-0.067-1.2,0.033-2.117,0.3-2.75c0.1-0.167,0.2-0.5,0.3-1c0.1-0.434,0.217-0.767,0.35-1c0.3-0.5,0.466-0.767,0.5-0.8L6-19.1
				l-1.35,0.4C4.417-18.633,4.2-18.533,4-18.4c-1.133,0.733-1.683,2.183-1.65,4.35c0.1,0.1,0.2,0.533,0.3,1.3l0.25,2.1
				c0.017,0.099,0.042,0.199,0.075,0.3C3.013-10.229,3.055-10.113,3.1-10l0.35,0.75c0.4,0.6,0.633,1.017,0.7,1.25
				c0.167,0.267,0.367,0.533,0.6,0.8c-0.533,0.1-0.967,0.317-1.3,0.65C3.383-6.483,3.333-6.433,3.3-6.4c0.034,0.1,0,0.25-0.1,0.45
				C3.067-5.717,2.967-5.533,2.9-5.4z M29.5-13.55c1.195-0.803,2.162-1.42,2.9-1.85c-0.667,0.367-1.4,0.816-2.2,1.35
				C29.952-13.87,29.719-13.703,29.5-13.55z M16.2-6.25c0.138,0.157,0.288,0.291,0.45,0.4c-0.211-0.151-0.395-0.342-0.55-0.575
				C16.142-6.357,16.175-6.299,16.2-6.25z M6.925-7.425C7.037-7.35,7.146-7.275,7.25-7.2L8.5-6.45l-0.6-0.4
				c-0.119-0.063-0.236-0.13-0.35-0.2C7.336-7.173,7.127-7.298,6.925-7.425z M27.35-2.85L27-3.25c-0.133-0.167-0.25-0.433-0.35-0.8
				c0.1,0.466,0.3,0.833,0.6,1.1C27.283-2.917,27.317-2.883,27.35-2.85z M28.85-1.7L29-1.6c-0.4-0.4-0.667-0.617-0.8-0.65h-0.1
				L27.4-2.8c0.233,0.2,0.55,0.45,0.95,0.75C28.517-1.917,28.683-1.8,28.85-1.7z M31.35-0.55C30.817-0.517,30.233-0.7,29.6-1.1
				c0.066,0.067,0.133,0.117,0.2,0.15C30.333-0.617,30.85-0.483,31.35-0.55z M35.6-1.75l-0.25,0.1c-1.033,0.4-2.55,0.6-4.55,0.6
				h-0.2c0.4,0.1,1.217,0.15,2.45,0.15h0.15c0.7-0.167,1.2-0.317,1.5-0.45l0.8-0.35L35.6-1.75z M40.2-9.9
				c-0.233,0.167-0.483,0.35-0.75,0.55c-0.5,0.367-1.067,0.5-1.7,0.4l-0.8-0.25l0.15,0.15l0.35,0.35l0.1,0.1
				C38.05-8.2,38.533-8,39-8l-0.25-0.05l0.7-0.65c0.233-0.233,0.333-0.517,0.3-0.85C39.917-9.683,40.067-9.8,40.2-9.9z M41.3-9.575
				C41.081-9.473,40.831-9.281,40.55-9L40.2-8.6l-0.1,0.05v0.05c0.033-0.033,0.066-0.067,0.1-0.1c0.033-0.033,0.066-0.066,0.1-0.1
				C40.738-9.169,41.072-9.461,41.3-9.575z M44.55-7.4c-0.033-0.233-0.05-0.45-0.05-0.65C44.3-7.683,44.15-7.333,44.05-7
				c-0.066,0.3-0.117,0.583-0.15,0.85l0.25,0.05c0.133,0.033,0.2,0.117,0.2,0.25s0,0.267,0,0.4c0.066,0.534,0.2,0.9,0.4,1.1
				C45.017-4.083,45.433-3.9,46-3.8l0.1,0.05c-0.633-0.067-1.15-0.283-1.55-0.65c-0.3-0.267-0.5-0.567-0.6-0.9
				c0.1,0.367,0.333,0.7,0.7,1c0.533,0.4,1.184,0.6,1.95,0.6c0.2,0,0.4-0.017,0.6-0.05l1.05-1c0.367-0.333,0.683-0.9,0.95-1.7
				c0.033-0.066,0.1-0.3,0.2-0.7c0.1-0.267,0.217-0.483,0.35-0.65c0.033-0.067,0.2-0.184,0.5-0.35c0.233-0.167,0.367-0.333,0.4-0.5
				l0.25-1.1c0.033-0.333,0.184-0.783,0.45-1.35c0.066-0.333-0.033-0.65-0.3-0.95c-0.4,0.333-0.633,0.583-0.7,0.75
				c-0.067,0.533-0.133,0.9-0.2,1.1c-0.167,0.3-0.267,0.55-0.3,0.75l0.05,0.7c-0.033,0.333-0.15,0.683-0.35,1.05
				c-0.2,0.467-0.417,0.65-0.65,0.55l0.05-0.2c-0.1,0.3-0.267,0.684-0.5,1.15c-0.333,0.6-0.65,1.017-0.95,1.25
				c-0.3,0.2-0.817,0.2-1.55,0C45.217-5.183,44.8-5.433,44.7-5.7c-0.067-0.2-0.117-0.65-0.15-1.35C44.55-7.15,44.55-7.267,44.55-7.4
				z M47.2-20.1h-0.05c-0.1-0.167-0.283-0.316-0.55-0.45c-0.167-0.067-0.4-0.083-0.7-0.05c-0.167,0.033-0.333,0.067-0.5,0.1
				l0.05,0.4l0.05,0.2v0.15c0.167,0,0.3-0.017,0.4-0.05c0-0.034,0.017-0.05,0.05-0.05c-0.167-0.033-0.267-0.1-0.3-0.2
				c-0.033-0.067-0.033-0.15,0-0.25c0.367-0.167,0.65-0.117,0.85,0.15c0.133,0.133,0.183,0.267,0.15,0.4
				c0,0.067-0.017,0.133-0.05,0.2c-0.019,0.055-0.043,0.105-0.075,0.15c0.195-0.263,0.203-0.513,0.025-0.75l0.1,0.05
				c0.2,0.1,0.267,0.317,0.2,0.65c-0.033,0.267-0.167,0.5-0.4,0.7c-0.1,0.067-0.35,0.2-0.75,0.4c-0.2,0.1-0.434,0.15-0.7,0.15
				l-0.35,0.05c-0.133,0.033-0.233,0.017-0.3-0.05c-0.1-0.066-0.2-0.183-0.3-0.35c-0.133-0.267-0.216-0.417-0.25-0.45l-0.15-0.1
				c0.2,0.8,0.5,1.267,0.9,1.4l-0.3,0.05c0.167,0.033,0.567-0.067,1.2-0.3c0.566-0.167,0.917-0.316,1.05-0.45
				c0.167-0.167,0.333-0.434,0.5-0.8c0.033-0.066,0.067-0.15,0.1-0.25c0-0.033,0.017-0.066,0.05-0.1
				c0.033-0.067,0.083-0.15,0.15-0.25C47.3-19.867,47.267-19.967,47.2-20.1z M31.6-10.7c0.033-0.033,0.167-0.183,0.4-0.45
				c0.167-0.167,0.35-0.25,0.55-0.25c0.233,0.267,0.25,0.533,0.05,0.8c-0.067,0.1-0.3,0.3-0.7,0.6
				c-1.833,1.533-4.05,3.017-6.65,4.45l1.1-0.8c0.433-0.7,0.983-1.333,1.65-1.9c0.167-0.133,0.4-0.383,0.7-0.75l1.2-1
				c0.133-0.1,0.417-0.2,0.85-0.3C31.15-10.4,31.433-10.533,31.6-10.7z M22.7-6l-0.55-0.2c-0.133-0.033-0.2-0.117-0.2-0.25
				c0.2-0.233,0.667-0.3,1.4-0.2c0.066,0.2,0.033,0.367-0.1,0.5C23.083-5.983,22.9-5.933,22.7-6z M23.2-8.45
				c-0.437-0.025-0.845-0.067-1.225-0.125C22.308-8.517,22.65-8.475,23-8.45H23.2z M18.6-11.55c0.167,0.267,0.5,0.45,1,0.55
				c0.333,0.067,0.617,0.033,0.85-0.1c-0.133,0.067-0.267,0.1-0.4,0.1c0.5-0.5,0.767-0.933,0.8-1.3l-0.35-0.5
				c0.133,0.233,0.1,0.5-0.1,0.8c-0.133,0.233-0.333,0.417-0.6,0.55c-0.333,0.133-0.517,0.067-0.55-0.2l-0.05-0.6
				c-0.167,0.033-0.317,0.1-0.45,0.2c-0.1,0.066-0.167,0.133-0.2,0.2C18.55-11.75,18.567-11.65,18.6-11.55z M6.85-19.05
				c0.1,0.066,0.2,0.15,0.3,0.25c-0.263-0.296-0.513-0.446-0.75-0.45C6.506-19.246,6.656-19.179,6.85-19.05z M17.15-10.4
				c-0.767-0.733-0.933-1.5-0.5-2.3l-0.05,0.95C16.633-11.283,16.817-10.833,17.15-10.4z M5.2-5.95C4.733-5.65,4.083-5.467,3.25-5.4
				c0-0.2,0.1-0.4,0.3-0.6C3.75-6.233,4-6.417,4.3-6.55c0.333-0.133,0.633-0.167,0.9-0.1C5.367-6.617,5.45-6.5,5.45-6.3
				c0,0.2-0.083,0.283-0.25,0.25V-5.95z"/>
			<path style="fill-rule:evenodd;clip-rule:evenodd;fill:#914327;" d="M40.75-21.3c-0.133-0.233-0.283-0.417-0.45-0.55
				c-0.066-0.033-0.15-0.066-0.25-0.1C39.983-21.983,39.7-22,39.2-22c-0.034,0-0.067,0-0.1,0c-1.3,0-2.35-0.133-3.15-0.4
				c-0.067-0.033-0.133-0.067-0.2-0.1c-0.8,0.667-1.383,1.25-1.75,1.75c-0.433,0.6-0.683,0.983-0.75,1.15
				c-0.233,0.467-0.35,1.033-0.35,1.7h-0.1c0,0.033,0,0.066,0,0.1c0,0.133,0.034,0.233,0.1,0.3v0.05c0.033,0.034,0.1,0.05,0.2,0.05
				c0-0.033,0-0.067,0-0.1c-0.067-0.067-0.1-0.167-0.1-0.3c-0.033-0.034-0.05-0.083-0.05-0.15c0-0.267,0.083-0.45,0.25-0.55
				l0.3-0.25v-0.1c0.533-1.667,1.7-2.617,3.5-2.85c0.867-0.1,1.617-0.017,2.25,0.25c0.167,0.3,0.5,0.567,1,0.8
				c0.2,0.267,0.383,0.533,0.55,0.8c0,0.033,0,0.067,0,0.1l0.25,0.15L41-20.35l-0.05-0.1c-0.034-0.333-0.1-0.6-0.2-0.8V-21.3z
				 M32.6-19.45c0.033-0.133,0.083-0.267,0.15-0.4l0.35-0.7l-0.3,0.35C32.633-20,32.567-19.75,32.6-19.45z M25.8-27v-0.5
				c0.034-0.1,0.034-0.267,0-0.5c-0.033-0.033-0.05-0.083-0.05-0.15l-0.25-0.7l-0.35-0.6c0.1,0.5,0.15,1.017,0.15,1.55l0.05,0.55
				c0.066,0.367-0.1,0.55-0.5,0.55c0.4,0.133,0.517,0.233,0.35,0.3c-0.133,0.067-0.4,0.117-0.8,0.15l-0.05,0.1l0.1,0.05
				c0.033,0.133,0.05,0.3,0.05,0.5c0,0.1-0.017,0.2-0.05,0.3c0.033-0.033,0.083-0.05,0.15-0.05c0.033,0,0.066,0.017,0.1,0.05
				l0.15,0.05l0.1,0.05c0.333,0.267,0.5,0.6,0.5,1c0,0.233-0.034,0.466-0.1,0.7v0.05l0.1-0.1c0.033-0.067,0.083-0.15,0.15-0.25
				c0.033-0.067,0.066-0.167,0.1-0.3c0-0.133-0.034-0.283-0.1-0.45c-0.067-0.167-0.167-0.4-0.3-0.7l-0.15-0.45
				c0.367-0.034,0.583-0.333,0.65-0.9V-27z M23.4-29.8c-0.033,0.033-0.066,0.05-0.1,0.05c0.867,0.667,1.133,1.4,0.8,2.2v0.05
				c-0.067,0.267-0.2,0.4-0.4,0.4h-0.05l0.05,0.05L24.05-27c0.129,0.032,0.263,0.049,0.4,0.05c-0.067-0.002-0.1-0.019-0.1-0.05
				c-0.033-0.067-0.05-0.133-0.05-0.2v-0.05l0.1-0.7l-0.15-1.2c0-0.033-0.017-0.05-0.05-0.05c-0.167-0.167-0.317-0.3-0.45-0.4
				C23.583-29.7,23.467-29.767,23.4-29.8z M25.9-16c0.133,0.033,0.267,0.083,0.4,0.15c-0.033-0.033-0.066-0.066-0.1-0.1
				C26.133-16.017,26.033-16.033,25.9-16z M17.1-15c0.1-0.367,0.267-0.567,0.5-0.6c0.066-0.333,0.25-0.5,0.55-0.5
				c0.7,0,1.167,0.117,1.4,0.35c0.567,0.467,1.233,0.767,2,0.9c0.434,0.067,1.133,0.083,2.1,0.05c0.833,0,1.717,0.216,2.65,0.65
				l1.45,0.75c-0.1-0.267-0.25-0.533-0.45-0.8c-0.466-0.533-0.833-0.9-1.1-1.1c-0.333-0.2-0.567-0.3-0.7-0.3
				c-0.3,0.033-0.533,0.017-0.7-0.05c-0.4,0.1-0.933,0.2-1.6,0.3c-0.7,0.033-1.483,0-2.35-0.1c-0.167-0.033-0.35-0.133-0.55-0.3
				c-0.3-0.267-0.483-0.417-0.55-0.45c-0.8-0.6-1.383-0.733-1.75-0.4c-0.167,0.167-0.383,0.483-0.65,0.95
				C17.15-15.383,17.067-15.167,17.1-15z M20.05-13.85l0.1,0.2l0.2,0.5c0-0.033,0-0.067,0-0.1c0-0.067,0.017-0.167,0.05-0.3
				c0-0.034,0.017-0.067,0.05-0.1l-0.4-0.3H20L20.05-13.85z M5.6-20.6c-0.1,0.033-0.184,0.017-0.25-0.05
				c-0.067,0-0.117-0.017-0.15-0.05H5.15c-0.033,0-0.066,0-0.1,0c-0.5-0.167-0.767-0.25-0.8-0.25L3-20.7
				c-0.5,0.167-0.9,0.233-1.2,0.2c-0.3,0-0.483,0.017-0.55,0.05L0.85-20c-0.333,0.333-0.55,0.583-0.65,0.75
				c-0.233,0.5-0.233,0.767,0,0.8c-0.067-0.2,0.083-0.483,0.45-0.85C0.783-19.433,0.9-19.517,1-19.55h0.05
				c0.267-0.167,0.534-0.267,0.8-0.3c0.133-0.1,0.283-0.117,0.45-0.05h0.1c0.8-0.467,1.684-0.567,2.65-0.3
				c0.367,0.1,0.684,0.267,0.95,0.5c0.167,0.133,0.283,0.284,0.35,0.45H6.4c0.237,0.004,0.487,0.154,0.75,0.45
				c0.167,0.167,0.283,0.316,0.35,0.45l0.1,0.1c0.3-0.167,0.517-0.083,0.65,0.25c0.133,0.3,0.533,0.783,1.2,1.45
				c0.2,0.233,0.333,0.566,0.4,1c0.033-0.034,0.066-0.067,0.1-0.1c0.233-0.267,0.267-0.5,0.1-0.7c-0.267-0.233-0.466-0.417-0.6-0.55
				l-0.4-0.45c-0.066-0.066-0.117-0.167-0.15-0.3c-0.033-0.1-0.066-0.217-0.1-0.35c-0.033-0.2-0.05-0.367-0.05-0.5
				c-0.033-0.067-0.067-0.117-0.1-0.15c-0.267-0.367-0.566-0.55-0.9-0.55c-0.033-0.1-0.183-0.233-0.45-0.4L6.75-20l-0.6-0.25
				l-0.3-0.2l-0.15-0.1C5.667-20.55,5.633-20.567,5.6-20.6z M35.6-1.75L35.5-1.7l0.05,0.2l0.05,0.1c0.133,0,0.217,0.033,0.25,0.1
				l0.5,0.5v0.05l0.15,0.1V-0.7c-0.2-0.167-0.3-0.383-0.3-0.65l-0.1-0.2L36.05-1.7c-0.033-0.066-0.017-0.15,0.05-0.25
				c0.066-0.066,0.133-0.1,0.2-0.1c0.3,0.033,0.55,0.183,0.75,0.45c0.1,0.1,0.1,0.2,0,0.3l0.1,0.15
				c0.133,0.133,0.217,0.25,0.25,0.35l0.3,0.45l0.05-0.15v-0.45C37.717-0.983,37.633-1,37.5-1c-0.1,0.033-0.15,0-0.15-0.1
				c0-0.033,0.033-0.117,0.1-0.25l0.05-0.1L37.35-1.6L37.3-1.75c-0.051-0.103-0.093-0.194-0.125-0.275
				C37.166-2.052,37.158-2.077,37.15-2.1l-0.1-0.05l-0.75-0.2c-0.2-0.066-0.383-0.083-0.55-0.05l-0.1-0.2
				c-0.1-0.1-0.183-0.2-0.25-0.3c-0.066,0-0.1-0.033-0.1-0.1c-0.1-0.1-0.216-0.183-0.35-0.25V-3.3
				c-0.016-0.009-0.032-0.018-0.05-0.025c-0.119-0.069-0.235-0.119-0.35-0.15L34.45-3.5h-0.5h-0.175
				c-0.058,0.038-0.116,0.071-0.175,0.1l-0.3,0.15L32.95-3.2L32.6-3.1h-0.3l0.05,0.15h0.05c1.267-0.367,2.25-0.2,2.95,0.5
				c0.066,0.067,0.083,0.15,0.05,0.25c-0.033,0.067-0.066,0.117-0.1,0.15c0.167-0.034,0.267,0,0.3,0.1l0.05,0.05v0.05
				C35.617-1.817,35.6-1.783,35.6-1.75z M38.2-19.15c-0.967-0.033-2.083,0.35-3.35,1.15l0.8-0.25c0.067-0.033,0.133-0.067,0.2-0.1
				c-0.167,0.167-0.333,0.367-0.5,0.6c-0.067,0.067-0.117,0.133-0.15,0.2l-0.45,0.75c-0.033,0.033-0.067,0.05-0.1,0.05
				c0.233,0.067,0.5,0.083,0.8,0.05c0.066,0,0.15-0.017,0.25-0.05c0.367-0.067,0.7-0.183,1-0.35c0.3-0.133,0.566-0.316,0.8-0.55
				c0-0.033,0.017-0.067,0.05-0.1C37.717-18.017,37.933-18.483,38.2-19.15z M20.5-12.8l0.35,0.5l0.2,0.4l0.15,0.25
				c0.167,0.267,0.5,0.566,1,0.9c0.433,0.3,0.7,0.45,0.8,0.45h1.5c0.167,0,0.467,0.017,0.9,0.05c0.033,0,0.067,0,0.1,0
				c0.333,0,0.567-0.083,0.7-0.25l0.45,0.1c0-0.033,0.017-0.083,0.05-0.15c0.033-0.034,0.066-0.067,0.1-0.1l-0.1,0.05l-1.6,0.05
				c-0.6,0-1.133-0.083-1.6-0.25c-0.6-0.3-1.067-0.684-1.4-1.15c0.1,0.034,0.316,0.167,0.65,0.4c0.3,0.2,0.55,0.316,0.75,0.35
				c0.533,0.133,0.967,0.2,1.3,0.2c-0.333-0.067-0.667-0.15-1-0.25c-0.7-0.233-1.55-0.633-2.55-1.2H21.2
				c-0.167-0.1-0.35-0.2-0.55-0.3c-0.1-0.067-0.167-0.15-0.2-0.25L20.5-12.8z"/>
			<path style="fill-rule:evenodd;clip-rule:evenodd;fill:#B05636;" d="M24.45-26.05v0.25v0.4v0.45l0.1,0.45
				c0.167,0.2,0.284,0.35,0.35,0.45c0.067,0.333,0.117,0.566,0.15,0.7c0.1-0.066,0.2-0.15,0.3-0.25c0.066-0.233,0.1-0.467,0.1-0.7
				c0-0.4-0.167-0.733-0.5-1l-0.1-0.05L24.7-25.4c-0.034-0.033-0.067-0.05-0.1-0.05c-0.067,0-0.117,0.017-0.15,0.05
				c0.033-0.1,0.05-0.2,0.05-0.3c0-0.2-0.017-0.367-0.05-0.5V-26.05z M24.9-29.3l0.05,0.3c0,0.1-0.067,0.317-0.2,0.65L24.55-28
				c0.067-0.133,0.067-0.25,0-0.35c-0.033-0.167-0.066-0.316-0.1-0.45c-0.067-0.133-0.133-0.25-0.2-0.35l0.15,1.2l-0.1,0.7v0.05
				c0,0.067,0.017,0.133,0.05,0.2c0,0.031,0.033,0.048,0.1,0.05c0.033,0.034,0.066,0.05,0.1,0.05c0.034,0,0.067,0,0.1,0l0.05,0.05
				c0.066,0.033,0.117,0.05,0.15,0.05c0.4,0,0.566-0.184,0.5-0.55L25.3-27.9c0-0.533-0.05-1.05-0.15-1.55l-0.1-0.15
				c-0.066-0.233-0.15-0.383-0.25-0.45L24.9-29.3z M23.7-27.1c0.2,0,0.333-0.133,0.4-0.4v-0.05c0.333-0.8,0.066-1.534-0.8-2.2
				c0.034,0,0.067-0.017,0.1-0.05c-0.066,0-0.117,0.017-0.15,0.05c0.2,0.567,0.317,1,0.35,1.3l-0.1,0.75
				C23.533-27.467,23.6-27.267,23.7-27.1z M20.05-13.95l0.4,0.3c-0.034,0.033-0.05,0.066-0.05,0.1c-0.033,0.133-0.05,0.233-0.05,0.3
				c0.033,0.133,0.083,0.283,0.15,0.45L20.45-13c0.033,0.1,0.1,0.183,0.2,0.25c0.2,0.1,0.383,0.2,0.55,0.3h0.05
				c1,0.567,1.85,0.967,2.55,1.2c0.333,0.1,0.667,0.183,1,0.25c0.034,0,0.067,0,0.1,0h1.3c0.066,0,0.15-0.033,0.25-0.1
				c0.2-0.066,0.483-0.2,0.85-0.4c0.267-0.133,0.45-0.417,0.55-0.85c0-0.066,0-0.15,0-0.25c0-0.267-0.033-0.533-0.1-0.8l-1.45-0.75
				c-0.933-0.434-1.816-0.65-2.65-0.65c-0.967,0.033-1.667,0.017-2.1-0.05c-0.767-0.133-1.433-0.433-2-0.9
				c-0.233-0.233-0.7-0.35-1.4-0.35c-0.3,0-0.483,0.167-0.55,0.5c-0.233,0.033-0.4,0.233-0.5,0.6c0.133-0.4,0.367-0.6,0.7-0.6
				c0.567,0,0.95,0.05,1.15,0.15c0.2,0.1,0.517,0.517,0.95,1.25C19.933-14.133,19.983-14.05,20.05-13.95z M9.95-15.65
				c-0.034,0.033-0.067,0.066-0.1,0.1c-0.067-0.434-0.2-0.767-0.4-1C8.783-17.217,8.383-17.7,8.25-18
				c-0.133-0.333-0.35-0.417-0.65-0.25l-0.1-0.1c0.033,0.1,0.05,0.2,0.05,0.3v0.1h-0.1l-0.5,0.1c0.1,0.233,0.433,0.55,1,0.95
				c0.133,0.1,0.367,0.2,0.7,0.3c0.333,0.1,0.567,0.217,0.7,0.35c0.2,0.167,0.3,0.45,0.3,0.85C9.75-15.433,9.85-15.517,9.95-15.65z
				 M2.4-19.9c0.113,0.025,0.212,0.125,0.3,0.3c0.033,0.067,0.017,0.15-0.05,0.25c-0.066,0.133-0.1,0.233-0.1,0.3
				c0.167,0.033,0.417,0.066,0.75,0.1c0.133,0.067,0.35,0.25,0.65,0.55H4c0.2-0.133,0.417-0.233,0.65-0.3L6-19.1l0.15-0.05L6.2-19.2
				l0.1-0.05h0.05C6.283-19.417,6.167-19.567,6-19.7c-0.267-0.233-0.583-0.4-0.95-0.5C4.083-20.467,3.2-20.367,2.4-19.9z
				 M1.85-19.85c-0.267,0.033-0.533,0.133-0.8,0.3c0.133,0,0.284,0.033,0.45,0.1c0.133,0,0.233-0.117,0.3-0.35L1.85-19.85z
				 M37.7-0.35L37.4-0.8c-0.033-0.1-0.117-0.217-0.25-0.35l-0.1-0.15c0.1-0.1,0.1-0.2,0-0.3c-0.2-0.267-0.45-0.417-0.75-0.45
				c-0.066,0-0.133,0.033-0.2,0.1c-0.067,0.1-0.083,0.184-0.05,0.25l0.05,0.15l0.1,0.2c0,0.267,0.1,0.483,0.3,0.65v0.05l-0.15-0.1
				V-0.8l-0.5-0.5c-0.033-0.067-0.117-0.1-0.25-0.1l-0.05-0.1c0.067,0.2,0.167,0.35,0.3,0.45c0.267,0.267,0.467,0.417,0.6,0.45
				c0.167,0.033,0.4,0.067,0.7,0.1c0.267,0.2,0.4,0.367,0.4,0.5C37.583-0.067,37.633-0.183,37.7-0.35z M37.2-2l-0.025-0.025
				c0.032,0.081,0.074,0.172,0.125,0.275C37.267-1.85,37.233-1.933,37.2-2z M34.85-18c1.267-0.8,2.383-1.183,3.35-1.15
				c0.033-0.1,0.066-0.2,0.1-0.3c0.3-0.7,0.684-1.017,1.15-0.95c0.466,0.1,0.917,0.283,1.35,0.55c-0.167-0.267-0.35-0.533-0.55-0.8
				c-0.5-0.233-0.833-0.5-1-0.8c-0.633-0.267-1.383-0.35-2.25-0.25c-1.8,0.233-2.967,1.184-3.5,2.85v0.1l-0.3,0.25
				c-0.167,0.1-0.25,0.283-0.25,0.55c0,0.067,0.017,0.117,0.05,0.15c0,0.133,0.033,0.233,0.1,0.3c0,0.033,0,0.067,0,0.1
				c0.066,0,0.15,0,0.25,0l0.5,0.1c0.033-0.034,0.083-0.067,0.15-0.1c0.067-0.067,0.133-0.117,0.2-0.15l0.05-0.05
				c0.067-0.033,0.15-0.083,0.25-0.15C34.6-17.85,34.717-17.933,34.85-18z M32.4-2.95c0.033,0.133-0.033,0.2-0.2,0.2h-0.3l-0.2-0.1
				c-0.167-0.066-0.333,0.017-0.5,0.25l-0.1,0.2l-0.2,0.2c0.367-0.233,0.733-0.316,1.1-0.25l0.7,0.05L33-2.2
				c0.033,0.034,0.15,0.133,0.35,0.3c0.167,0.133,0.316,0.217,0.45,0.25h0.175H34c0.017-0.008,0.033-0.017,0.05-0.025
				c0.127-0.015,0.244-0.04,0.35-0.075L35.2-2c0.033,0,0.066-0.017,0.1-0.05c0.034-0.034,0.067-0.083,0.1-0.15
				c0.033-0.1,0.017-0.183-0.05-0.25C34.65-3.15,33.667-3.317,32.4-2.95z M33.65-3.45L33.6-3.4c0.059-0.029,0.117-0.063,0.175-0.1
				C33.721-3.467,33.679-3.45,33.65-3.45z M34.9-3.35c-0.108-0.054-0.225-0.096-0.35-0.125c0.115,0.031,0.231,0.081,0.35,0.15V-3.35
				z M28.5-11.45c0.05-0.058,0.1-0.125,0.15-0.2c-0.133,0.1-0.267,0.217-0.4,0.35l-0.2,0.15c0.133-0.067,0.267-0.15,0.4-0.25
				C28.45-11.433,28.467-11.45,28.5-11.45z"/>
			<path style="fill-rule:evenodd;clip-rule:evenodd;fill:#836511;" d="M24.4-26.35h-0.05c0,0.033,0,0.067,0,0.1
				c0,0.1,0.017,0.183,0.05,0.25l0.05-0.05v-0.15l-0.1-0.05L24.4-26.35z M30.4-28.1c-0.033-0.1-0.083-0.217-0.15-0.35v-0.1
				l-0.15-0.5c-0.4-0.034-0.717-0.05-0.95-0.05c0,0.167,0.033,0.317,0.1,0.45l0.4,0.1c0.1-0.034,0.2,0,0.3,0.1
				C30.183-28.317,30.333-28.2,30.4-28.1z M28.5-30.4c-0.2-0.067-0.383-0.117-0.55-0.15c-0.167,0-0.333,0-0.5,0
				c-0.083,0-0.167,0-0.25,0c0.1,0.133,0.15,0.283,0.15,0.45h0.9c0.133-0.1,0.267-0.167,0.4-0.2c0.067,0,0.117,0,0.15,0
				C28.7-30.333,28.6-30.367,28.5-30.4z M10.7-22.4c0,0.066-0.017,0.117-0.05,0.15l-0.1-0.05c-0.033-0.034-0.05-0.067-0.05-0.1
				c0.033-0.067,0.067-0.1,0.1-0.1c0.032,0,0.065,0,0.1,0c-0.034-0.001-0.05-0.018-0.05-0.05c-0.033-0.1-0.066-0.184-0.1-0.25
				c-0.1-0.1-0.233-0.133-0.4-0.1H10.1c0.2-0.2,0.217-0.4,0.05-0.6L10-23.6c-0.067-0.033-0.15-0.083-0.25-0.15
				c-0.167-0.1-0.317-0.2-0.45-0.3c-0.2-0.133-0.367-0.217-0.5-0.25c-0.066-0.034-0.117-0.05-0.15-0.05c-0.167,0-0.333,0-0.5,0
				c-0.1,0.033-0.183,0.05-0.25,0.05l-0.65,0.2c-0.027,0.017-0.052,0.033-0.075,0.05c-0.138,0.078-0.263,0.144-0.375,0.2
				c0.133-0.033,0.267-0.066,0.4-0.1c0.2-0.033,0.417-0.033,0.65,0c0.1,0,0.167,0.05,0.2,0.15l0.75,0.15l0.1,0.2v0.05
				c0.167-0.033,0.333-0.05,0.5-0.05c0.133,0.034,0.25,0.067,0.35,0.1c0.3,0.167,0.367,0.367,0.2,0.6v0.05
				c0-0.033,0.017-0.05,0.05-0.05c0.067-0.033,0.133-0.017,0.2,0.05c0.066,0.067,0.1,0.133,0.1,0.2v0.05
				c-0.033,0.1-0.083,0.133-0.15,0.1H10.1L9.9-22.5c0-0.067,0-0.133,0-0.2l-0.15,0.3c0.2,0.033,0.367,0.15,0.5,0.35
				c0.4,0.433,0.367,1-0.1,1.7H10.1l-0.65,0.2c0.066,0.167,0.1,0.316,0.1,0.45c-0.033,0.133-0.083,0.25-0.15,0.35
				c-0.167,0.2-0.333,0.233-0.5,0.1c-0.167-0.133-0.233-0.3-0.2-0.5v-0.2l-0.6,0.2L6.8-20.1c-0.367-0.233-0.65-0.383-0.85-0.45
				c-0.034,0.033-0.067,0.066-0.1,0.1l0.3,0.2L6.75-20l0.55,0.4c0.267,0.167,0.417,0.3,0.45,0.4c0.333,0,0.633,0.184,0.9,0.55
				c0.033,0.033,0.067,0.083,0.1,0.15c0.3,0.067,0.583,0.033,0.85-0.1c0.633-0.267,1.05-0.767,1.25-1.5
				c0.033-0.033,0.05-0.083,0.05-0.15c0.1-0.333,0.1-0.717,0-1.15C10.867-21.633,10.8-21.967,10.7-22.4z M34.55-3.475
				c0.125,0.029,0.242,0.071,0.35,0.125c0.1,0,0.184,0.017,0.25,0.05c0.033,0.033,0.083,0.117,0.15,0.25V-3
				c0,0.067,0.034,0.1,0.1,0.1c0.033,0,0.117,0,0.25,0c0.067-0.033,0.133-0.033,0.2,0l0.05,0.1c0-0.067,0.05-0.117,0.15-0.15
				c0.067,0,0.117,0.034,0.15,0.1c0,0.033,0,0.067,0,0.1c0.033,0,0.083,0,0.15,0L36.7-2.9l0.55-0.4c0.133-0.1,0.217-0.2,0.25-0.3
				l0.05-0.25V-4.2c-0.066,0-0.133,0.067-0.2,0.2c-0.1,0.167-0.167,0.267-0.2,0.3c0-0.066,0.033-0.25,0.1-0.55
				c0.033-0.2,0.033-0.367,0-0.5c0-0.033,0-0.067,0-0.1c-0.067,0.033-0.133,0.033-0.2,0h0.05c-0.167-0.1-0.233-0.183-0.2-0.25
				c0-0.033,0.05-0.05,0.15-0.05c-0.033-0.067-0.083-0.133-0.15-0.2l-0.1-0.2L36.75-5.7l-0.2-0.15L36.5-5.8
				c-0.1-0.067-0.183-0.117-0.25-0.15L36.2-6h-0.1h-0.05l-0.4,0.05h-0.1l-0.3,0.2l-0.1,0.35l0.2-0.1c0-0.133,0.066-0.2,0.2-0.2
				c0.067,0,0.117,0.05,0.15,0.15l0.15,0.05l0.1,0.2c0.066,0.033,0.117,0.017,0.15-0.05h0.1c0.167-0.066,0.316-0.033,0.45,0.1
				c0.067,0.133,0.067,0.283,0,0.45l0.2,0.2c0.066,0.2,0.05,0.417-0.05,0.65c0.133,0,0.2,0.034,0.2,0.1
				c0.033,0.133-0.017,0.267-0.15,0.4H36.7c-0.067,0.034-0.1,0-0.1-0.1L36.35-3.6h-0.1c-0.067,0.067-0.167,0.083-0.3,0.05
				c-0.1-0.1-0.2-0.2-0.3-0.3C35.517-3.783,35.4-3.767,35.3-3.8l-0.15-0.05c-0.133-0.066-0.217-0.167-0.25-0.3
				c-0.1,0.033-0.2,0.066-0.3,0.1c0.1,0.033,0.183,0.15,0.25,0.35L34.6-3.5l-0.25-0.3c-0.1-0.167-0.2-0.233-0.3-0.2
				c-0.167,0.1-0.2,0.267-0.1,0.5h0.5L34.55-3.475z M34.45-5.3c0.066-0.1,0.167-0.267,0.3-0.5v-0.05l-0.2,0.05l-0.1,0.05V-5.3z
				 M35.05-5.4c-0.033-0.133,0-0.283,0.1-0.45V-5.9H35.1l-0.05,0.05l-0.1,0.15c-0.067,0.133-0.1,0.25-0.1,0.35L35.05-5.4z M25.8-27
				c0.1,0,0.184,0.083,0.25,0.25l0.05,0.15c-0.067,0.267-0.1,0.483-0.1,0.65c0,0.067,0.117,0.317,0.35,0.75
				c0.4,0.7,0.717,1.083,0.95,1.15c0.233,0.066,0.733-0.117,1.5-0.55c0.3-0.2,0.517-0.383,0.65-0.55c0.267-0.434,0.267-0.617,0-0.55
				c-0.1-0.133,0.133-0.383,0.7-0.75c0.033-0.066,0.184-0.183,0.45-0.35c0-0.067,0-0.15,0-0.25c0-0.034,0-0.067,0-0.1
				c-0.032-0.192-0.082-0.417-0.15-0.675v-0.025c-0.133,0.067-0.317,0.067-0.55,0c-0.233-0.066-0.383-0.117-0.45-0.15
				c0,0.033,0,0.067,0,0.1c0.033,0.066,0.05,0.117,0.05,0.15c0.167,0.033,0.317,0.05,0.45,0.05v-0.05l0.15-0.05
				c0.1,0.033,0.133,0.083,0.1,0.15c0.333,0.133,0.417,0.35,0.25,0.65c-0.1,0.233-0.4,0.467-0.9,0.7l-0.3,0.1l-0.65,0.15l-0.2,0.15
				l0.8,0.5c-0.534,0.267-0.883,0.417-1.05,0.45c-0.167,0.034-0.283,0.05-0.35,0.05c-0.1,0-0.183-0.083-0.25-0.25
				c-0.033-0.333-0.117-0.567-0.25-0.7c-0.1,0.133-0.183,0.217-0.25,0.25c-0.066,0.067-0.167,0.067-0.3,0
				c-0.133-0.033-0.267-0.15-0.4-0.35c-0.1-0.133-0.117-0.3-0.05-0.5l-0.2-0.15l0.2-0.5h0.05c0.066-0.4,0.017-0.783-0.15-1.15
				c-0.133,0-0.267,0.083-0.4,0.25c0.034,0.233,0.034,0.4,0,0.5V-27z M28.55-27.7l-0.05-0.1c-0.1,0.033-0.15,0.083-0.15,0.15h0.15
				L28.55-27.7z M28.15-28.95c-0.066,0.034-0.133,0.067-0.2,0.1c0.033,0.033,0.117,0.05,0.25,0.05
				C28.167-28.833,28.15-28.883,28.15-28.95z"/>
			<path style="fill-rule:evenodd;clip-rule:evenodd;fill:#3D2E04;" d="M24.45-25.8v-0.25L24.4-26
				C24.4-25.933,24.417-25.867,24.45-25.8z M30.05-25.15c0.333-0.733,0.517-1.283,0.55-1.65c-0.267,0.167-0.417,0.283-0.45,0.35
				c-0.566,0.367-0.8,0.617-0.7,0.75c0.267-0.066,0.267,0.117,0,0.55c-0.133,0.167-0.35,0.35-0.65,0.55
				c-0.767,0.434-1.267,0.617-1.5,0.55c-0.233-0.067-0.55-0.45-0.95-1.15C26.117-25.633,26-25.883,26-25.95
				c0-0.167,0.033-0.383,0.1-0.65l-0.05-0.15C25.983-26.917,25.9-27,25.8-27v0.3c-0.066,0.567-0.283,0.867-0.65,0.9l0.15,0.45
				c0.133,0.3,0.233,0.533,0.3,0.7c0.066,0.167,0.1,0.316,0.1,0.45c0.267,0.1,0.617,0.217,1.05,0.35c0.7,0.167,1.167,0.217,1.4,0.15
				c0.934-0.233,1.533-0.633,1.8-1.2C29.983-24.967,30.017-25.05,30.05-25.15z M11.35-22.4c-0.133-0.233-0.3-0.45-0.5-0.65
				c-0.033-0.034-0.067-0.067-0.1-0.1c-0.167-0.1-0.417-0.25-0.75-0.45l0.15,0.1c0.167,0.2,0.15,0.4-0.05,0.6h0.05
				c0.167-0.033,0.3,0,0.4,0.1c0.034,0.066,0.067,0.15,0.1,0.25c0,0.032,0.017,0.049,0.05,0.05c0,0.033,0,0.067,0,0.1
				c0.1,0.433,0.167,0.767,0.2,1c0.1,0.433,0.1,0.816,0,1.15c0,0.067-0.017,0.117-0.05,0.15c-0.2,0.733-0.617,1.233-1.25,1.5
				c-0.267,0.133-0.55,0.167-0.85,0.1c0,0.133,0.017,0.3,0.05,0.5c0.034,0.133,0.067,0.25,0.1,0.35c0.267-0.1,0.633-0.267,1.1-0.5
				c0.533-0.233,0.9-0.483,1.1-0.75c0.533-0.733,0.75-1.383,0.65-1.95c-0.033-0.033-0.05-0.066-0.05-0.1V-21l-0.1-0.45v-0.1
				c-0.033-0.067-0.05-0.133-0.05-0.2v-0.05c-0.033-0.034-0.05-0.067-0.05-0.1c-0.033-0.067-0.05-0.133-0.05-0.2
				C11.417-22.2,11.383-22.3,11.35-22.4z M37.15-5.4l-0.4-0.3l0.05,0.15l0.1,0.2c0.067,0.067,0.117,0.133,0.15,0.2
				c0.133,0,0.217,0.033,0.25,0.1c0,0.1-0.017,0.167-0.05,0.2c0,0.033,0,0.067,0,0.1c0.033,0.133,0.033,0.3,0,0.5
				c-0.067,0.3-0.1,0.483-0.1,0.55c0.033-0.033,0.1-0.133,0.2-0.3c0.066-0.133,0.133-0.2,0.2-0.2v0.35L37.5-3.6
				c-0.033,0.1-0.117,0.2-0.25,0.3L36.7-2.9l-0.35,0.15c-0.067,0-0.117,0-0.15,0c-0.034,0.033-0.067,0.05-0.1,0.05L36-2.65
				c-0.067,0-0.1-0.05-0.1-0.15l-0.05-0.1c-0.067-0.033-0.133-0.033-0.2,0c-0.133,0-0.217,0-0.25,0c0.067,0.1,0.15,0.2,0.25,0.3
				l0.1,0.2c0.167-0.033,0.35-0.017,0.55,0.05l0.75,0.2l0.1,0.05c0.008,0.023,0.016,0.048,0.025,0.075L37.2-2
				c0-0.033,0.017-0.067,0.05-0.1l0.45-0.85c0.2-0.333,0.283-0.633,0.25-0.9c0-0.133,0-0.25,0-0.35L37.8-4.8
				c-0.1-0.167-0.216-0.3-0.35-0.4c-0.1-0.066-0.184-0.133-0.25-0.2H37.15z M34.9-3.35v0.025c0.018,0.008,0.035,0.016,0.05,0.025
				v0.05C35.083-3.183,35.2-3.1,35.3-3v-0.05c-0.066-0.133-0.117-0.217-0.15-0.25C35.083-3.333,35-3.35,34.9-3.35z M35.55-5.95H35.3
				L35.2-5.9h-0.05v0.05c-0.1,0.167-0.133,0.317-0.1,0.45h0.1l0.1-0.35L35.55-5.95z M36.55-5.85l-0.3-0.1
				c0.067,0.034,0.15,0.083,0.25,0.15L36.55-5.85z M29.45-28c-0.034-0.133-0.1-0.3-0.2-0.5c0,0.067,0.017,0.133,0.05,0.2
				c0.034,0.1,0.067,0.2,0.1,0.3s0.033,0.183,0,0.25c0,0.033-0.017,0.067-0.05,0.1c-0.033,0-0.067-0.033-0.1-0.1
				c-0.067-0.033-0.117-0.1-0.15-0.2c-0.033-0.033-0.05-0.066-0.05-0.1l-0.4-1.15c-0.2-0.1-0.367-0.083-0.5,0.05l0.05-0.2v-0.05
				c-0.067,0.133-0.083,0.283-0.05,0.45c0,0.067,0.017,0.117,0.05,0.15v0.05c0.167,0.333,0.25,0.567,0.25,0.7l0.05,0.25l0.05,0.1
				l0.15,0.25c0.2,0.067,0.4,0.05,0.6-0.05c0.1-0.033,0.167-0.117,0.2-0.25c0-0.033-0.017-0.083-0.05-0.15
				C29.45-27.933,29.45-27.967,29.45-28z M5.2-20.7c0.033,0.034,0.083,0.05,0.15,0.05c-0.067-0.033-0.117-0.1-0.15-0.2V-20.7z
				 M5.95-20.55c-0.034,0-0.05-0.017-0.05-0.05c-0.1,0-0.167,0-0.2,0c-0.034,0-0.067,0-0.1,0c0.033,0.033,0.066,0.05,0.1,0.05
				l0.15,0.1C5.883-20.483,5.917-20.517,5.95-20.55z M9-22.45l0.1-0.1c0.1-0.1,0.133-0.184,0.1-0.25c0-0.1-0.117-0.2-0.35-0.3
				L8.4-23.3c-0.467-0.233-0.75-0.217-0.85,0.05c-0.033,0.133,0.1,0.267,0.4,0.4l0.55,0.3l0.25,0.1H9z M28.55-29.6
				c0.034,0,0.067,0,0.1,0c0.129,0.032,0.229,0.083,0.3,0.15c-0.036-0.035-0.069-0.068-0.1-0.1
				C28.783-29.617,28.683-29.633,28.55-29.6z"/>
			<path style="fill-rule:evenodd;clip-rule:evenodd;fill:#FED872;" d="M35.9-2.8c0,0.1,0.033,0.15,0.1,0.15l0.1-0.05
				c0.033,0,0.066-0.017,0.1-0.05c0-0.033,0-0.067,0-0.1c-0.034-0.066-0.083-0.1-0.15-0.1C35.95-2.917,35.9-2.867,35.9-2.8z
				 M36.8-3.95h-0.05c-0.1,0.034-0.15,0.133-0.15,0.3c0,0.033,0,0.066,0,0.1c0,0.1,0.033,0.133,0.1,0.1h0.15
				c0.133-0.133,0.183-0.267,0.15-0.4C37-3.917,36.933-3.95,36.8-3.95z M37.25-4.85c0.033-0.033,0.05-0.1,0.05-0.2
				c-0.033-0.067-0.117-0.1-0.25-0.1c-0.1,0-0.15,0.017-0.15,0.05c-0.033,0.067,0.033,0.15,0.2,0.25h-0.05
				C37.117-4.817,37.183-4.817,37.25-4.85z M34.9-4.15c0.033,0.133,0.117,0.233,0.25,0.3L35.3-3.8c0.1,0.033,0.217,0.017,0.35-0.05
				h0.05C35.867-3.917,35.95-4,35.95-4.1c0.066-0.4-0.034-0.65-0.3-0.75c-0.367-0.066-0.617,0.017-0.75,0.25
				c-0.066,0.167-0.083,0.317-0.05,0.45H34.9z M33.45-3.9h0.05l0.15,0.05c0.133-0.066,0.2-0.233,0.2-0.5v-0.3
				c0-0.133-0.017-0.2-0.05-0.2c-0.066,0.033-0.133,0.1-0.2,0.2c-0.033,0.033-0.067,0.083-0.1,0.15
				C33.433-4.233,33.417-4.033,33.45-3.9z M34.85-5.35l-0.4,0.05c-0.333,0-0.45,0.066-0.35,0.2l0.3,0.05h0.3l0.35-0.05h0.1
				c0.167,0,0.283-0.033,0.35-0.1c0.033-0.1-0.017-0.167-0.15-0.2h-0.2h-0.1L34.85-5.35z M30.2-27.65c0.033-0.067,0-0.117-0.1-0.15
				l-0.15,0.05v0.05l-0.05,0.05l0.25,0.1C30.183-27.583,30.2-27.617,30.2-27.65z M29.9-27.05l0.1,0.3
				c0.133-0.033,0.183-0.117,0.15-0.25c0-0.1-0.05-0.15-0.15-0.15L29.9-27.05z M9.45-20.15c-0.034-0.033-0.067-0.067-0.1-0.1
				l0.4-0.2c0.267-0.267,0.4-0.45,0.4-0.55c0-0.167-0.133-0.2-0.4-0.1H9.3c-0.1,0.1-0.167,0.15-0.2,0.15L8.95-21.4L8.9-21.7
				c-0.1-0.267-0.217-0.35-0.35-0.25c-0.1,0.034-0.15,0.133-0.15,0.3L8.35-21.4v0.35c0,0.1-0.117,0.183-0.35,0.25
				c-0.267,0.066-0.417,0.15-0.45,0.25c0,0.033,0,0.066,0,0.1c0.034,0.167,0.2,0.25,0.5,0.25c0.034,0,0.067,0,0.1,0
				c0.2,0,0.367-0.033,0.5-0.1H8.7v0.35v0.2c-0.034,0.2,0.033,0.367,0.2,0.5c0.167,0.133,0.333,0.1,0.5-0.1
				c0.067-0.1,0.117-0.217,0.15-0.35C9.55-19.833,9.517-19.983,9.45-20.15z M9.95-22.7H9.9c0,0.067,0,0.133,0,0.2l0.2,0.15h0.05
				c0.067,0.033,0.117,0,0.15-0.1v-0.05c0-0.067-0.033-0.133-0.1-0.2c-0.067-0.066-0.133-0.083-0.2-0.05
				C9.967-22.75,9.951-22.733,9.95-22.7z M6.5-21.15c0.1-0.067,0.15-0.2,0.15-0.4c0-0.2-0.033-0.35-0.1-0.45l0.15,0.05l0.05,0.1
				c0.333-0.2,0.567-0.383,0.7-0.55c0.033-0.067,0.05-0.117,0.05-0.15c0.133-0.233,0.033-0.35-0.3-0.35c-0.133,0-0.35,0.1-0.65,0.3
				c-0.033,0.033-0.066,0.067-0.1,0.1c0-0.4-0.1-0.567-0.3-0.5c-0.133,0.033-0.2,0.2-0.2,0.5v0.3l-0.2,0.3
				c-0.133,0.3-0.133,0.467,0,0.5l0.4-0.35c0.067,0.133,0.1,0.25,0.1,0.35C6.317-21.267,6.4-21.183,6.5-21.15z M9.9-21.75v0.05
				c0.133,0.1,0.233,0.117,0.3,0.05c0.033-0.033,0.083-0.1,0.15-0.2C10.017-22.183,9.867-22.15,9.9-21.75z M10.7-22.5
				c-0.035,0-0.068,0-0.1,0c-0.033,0-0.067,0.033-0.1,0.1c0,0.033,0.017,0.066,0.05,0.1l0.1,0.05c0.033-0.033,0.05-0.083,0.05-0.15
				C10.7-22.433,10.7-22.467,10.7-22.5z M28.45-27c0.033-0.2-0.017-0.367-0.15-0.5c-0.133-0.167-0.3-0.233-0.5-0.2
				c-0.2,0-0.383,0.05-0.55,0.15c-0.267,0.1-0.367,0.25-0.3,0.45l0.1,0.35l0.3,0.2l0.3,0.1C28.15-26.517,28.417-26.7,28.45-27z
				 M27-28.85c0.267,0,0.467-0.05,0.6-0.15s0.167-0.233,0.1-0.4c0-0.267-0.067-0.45-0.2-0.55c-0.133-0.133-0.3-0.167-0.5-0.1
				c-0.167,0-0.3,0.066-0.4,0.2l-0.25,0.3v0.2c0.1,0.267,0.167,0.417,0.2,0.45C26.683-28.8,26.833-28.783,27-28.85z M28.9-30.1
				c-0.066,0.067-0.1,0.117-0.1,0.15l0.4,0.3c0.133,0.1,0.233,0.117,0.3,0.05c0.033-0.033-0.033-0.133-0.2-0.3
				C29.2-30.033,29.067-30.1,28.9-30.1z"/>
			<path style="fill-rule:evenodd;clip-rule:evenodd;fill:#C0992B;" d="M30.55-27.65c-0.033-0.033-0.05-0.083-0.05-0.15
				c-0.021,0-0.037-0.008-0.05-0.025c0.068,0.258,0.118,0.483,0.15,0.675c0-0.067,0-0.167,0-0.3c-0.033,0-0.05-0.017-0.05-0.05
				C30.55-27.533,30.55-27.583,30.55-27.65z M30.1-29.05c-0.133-0.3-0.25-0.5-0.35-0.6c-0.2-0.2-0.467-0.383-0.8-0.55
				c-0.1-0.033-0.2-0.066-0.3-0.1c-0.133,0.033-0.267,0.1-0.4,0.2h-0.9c0-0.167-0.05-0.316-0.15-0.45h-0.05
				c-0.033,0.033-0.066,0.033-0.1,0c-0.1,0.033-0.183,0.066-0.25,0.1c-0.466,0.333-0.833,0.567-1.1,0.7
				c-0.2,0.133-0.383,0.233-0.55,0.3l0.35,0.6l0.25,0.7c0,0.066,0.017,0.117,0.05,0.15c0.133-0.167,0.267-0.25,0.4-0.25
				c0.167,0.367,0.216,0.75,0.15,1.15H26.3l-0.2,0.5l0.2,0.15c-0.066,0.2-0.05,0.367,0.05,0.5c0.133,0.2,0.267,0.317,0.4,0.35
				c0.133,0.067,0.233,0.067,0.3,0c0.067-0.033,0.15-0.117,0.25-0.25c0.133,0.133,0.217,0.367,0.25,0.7
				c0.067,0.167,0.15,0.25,0.25,0.25c0.067,0,0.184-0.017,0.35-0.05c0.167-0.033,0.517-0.183,1.05-0.45l-0.8-0.5l0.2-0.15l0.65-0.15
				l0.3-0.1c0.5-0.233,0.8-0.467,0.9-0.7c0.167-0.3,0.083-0.517-0.25-0.65c0,0.033-0.017,0.066-0.05,0.1l-0.25-0.1l0.05-0.05
				c-0.133,0-0.284-0.017-0.45-0.05c-0.033,0.133-0.1,0.217-0.2,0.25c-0.2,0.1-0.4,0.117-0.6,0.05l-0.15-0.25l-0.05,0.05h-0.15
				c0-0.067,0.05-0.117,0.15-0.15l-0.05-0.25c0-0.133-0.083-0.367-0.25-0.7v-0.05c-0.133,0-0.217-0.017-0.25-0.05
				c0.066-0.033,0.133-0.066,0.2-0.1c-0.033-0.167-0.017-0.316,0.05-0.45c-0.034-0.133,0.083-0.2,0.35-0.2
				c0.133-0.033,0.233-0.017,0.3,0.05c0.031,0.031,0.064,0.064,0.1,0.1c0.1,0.1,0.167,0.217,0.2,0.35
				C29.383-29.1,29.7-29.083,30.1-29.05z M24.45-28.8c0.033,0.133,0.066,0.283,0.1,0.45c0.067,0.1,0.067,0.217,0,0.35l0.2-0.35
				c0.133-0.333,0.2-0.55,0.2-0.65l-0.05-0.3c-0.167,0.133-0.267,0.233-0.3,0.3C24.533-28.933,24.483-28.867,24.45-28.8z
				 M5.95-20.55c0.2,0.066,0.483,0.216,0.85,0.45l1.3,0.35l0.6-0.2v-0.35H8.65c-0.133,0.066-0.3,0.1-0.5,0.1c-0.033,0-0.066,0-0.1,0
				c-0.3,0-0.466-0.083-0.5-0.25c0-0.033,0-0.066,0-0.1c0.034-0.1,0.184-0.184,0.45-0.25c0.233-0.067,0.35-0.15,0.35-0.25v-0.35
				l0.05-0.25c0-0.167,0.05-0.267,0.15-0.3c0.133-0.1,0.25-0.017,0.35,0.25l0.05,0.3l0.15,0.45c0.033,0,0.1-0.05,0.2-0.15h0.45
				c0.267-0.1,0.4-0.066,0.4,0.1c0,0.1-0.133,0.283-0.4,0.55l-0.4,0.2c0.033,0.033,0.066,0.067,0.1,0.1l0.65-0.2h0.05
				c0.467-0.7,0.5-1.267,0.1-1.7c-0.133-0.2-0.3-0.317-0.5-0.35l0.15-0.3h0.05v-0.05c0.167-0.233,0.1-0.433-0.2-0.6
				c-0.1-0.033-0.217-0.066-0.35-0.1c-0.167,0-0.333,0.017-0.5,0.05v-0.05l-0.1-0.2L8.05-23.8c-0.033-0.1-0.1-0.15-0.2-0.15
				c-0.233-0.033-0.45-0.033-0.65,0c-0.133,0.034-0.267,0.067-0.4,0.1c0.112-0.056,0.237-0.122,0.375-0.2H7.15
				c-0.167,0.066-0.3,0.133-0.4,0.2H6.7c-0.4,0.233-0.667,0.483-0.8,0.75c-0.133,0.567-0.25,0.983-0.35,1.25
				c-0.233,0.533-0.367,0.917-0.4,1.15H5.2v-0.15c0.033,0.1,0.083,0.167,0.15,0.2c0.066,0.066,0.15,0.083,0.25,0.05
				c0.033,0,0.066,0,0.1,0c0.033,0,0.1,0,0.2,0C5.9-20.567,5.917-20.55,5.95-20.55z M37.45-5.2c0.133,0.1,0.25,0.233,0.35,0.4
				c-0.066-0.167-0.167-0.3-0.3-0.4H37.45z M35.15-5.4h0.2c0.133,0.033,0.183,0.1,0.15,0.2c-0.067,0.067-0.183,0.1-0.35,0.1h-0.1
				L34.7-5.05h-0.3L34.1-5.1c-0.1-0.133,0.017-0.2,0.35-0.2v-0.45l0.1-0.05H34.5l-0.15,0.05c-0.233,0.2-0.45,0.483-0.65,0.85
				c-0.034,0.066-0.067,0.15-0.1,0.25c0.066-0.1,0.133-0.167,0.2-0.2c0.034,0,0.05,0.067,0.05,0.2v0.3c0,0.267-0.067,0.434-0.2,0.5
				L33.5-3.9h-0.05v0.05c0.066,0.167,0.133,0.3,0.2,0.4c0.029,0,0.071-0.017,0.125-0.05h0.175c-0.1-0.233-0.067-0.4,0.1-0.5
				c0.1-0.033,0.2,0.033,0.3,0.2l0.25,0.3l0.25-0.2c-0.067-0.2-0.15-0.316-0.25-0.35c0.1-0.034,0.2-0.067,0.3-0.1h-0.05
				c-0.033-0.133-0.017-0.283,0.05-0.45c0.133-0.233,0.383-0.316,0.75-0.25c0.267,0.1,0.367,0.35,0.3,0.75
				c0,0.1-0.083,0.184-0.25,0.25h-0.05c0.1,0.1,0.2,0.2,0.3,0.3c0.133,0.033,0.233,0.017,0.3-0.05h0.1l0.25,0.05
				c0-0.034,0-0.067,0-0.1c0-0.167,0.05-0.267,0.15-0.3h0.05c0.1-0.233,0.117-0.45,0.05-0.65l-0.2-0.2
				c0.067-0.167,0.067-0.317,0-0.45c-0.133-0.133-0.283-0.167-0.45-0.1h-0.1c-0.033,0.067-0.083,0.083-0.15,0.05l-0.1-0.2L35.7-5.55
				c-0.034-0.1-0.083-0.15-0.15-0.15c-0.133,0-0.2,0.067-0.2,0.2L35.15-5.4z M34.45-5.3l0.4-0.05c0-0.1,0.033-0.217,0.1-0.35
				l0.1-0.15h-0.1l-0.2,0.05C34.617-5.567,34.517-5.4,34.45-5.3z M29.9-27.05l0.1-0.1c0.1,0,0.15,0.05,0.15,0.15
				c0.033,0.133-0.017,0.217-0.15,0.25L29.9-27.05z M30.4-28.1c-0.066-0.1-0.217-0.217-0.45-0.35c-0.1-0.1-0.2-0.133-0.3-0.1
				l-0.4-0.1c0,0.066,0,0.117,0,0.15c0.1,0.2,0.167,0.367,0.2,0.5c0.066,0.033,0.216,0.083,0.45,0.15
				c0.233,0.067,0.417,0.067,0.55,0c-0.031-0.061-0.047-0.136-0.05-0.225V-28.1z M6.5-21.15c-0.1-0.033-0.183-0.117-0.25-0.25
				c0-0.1-0.033-0.217-0.1-0.35l-0.4,0.35c-0.133-0.033-0.133-0.2,0-0.5l0.2-0.3v-0.3c0-0.3,0.066-0.467,0.2-0.5
				c0.2-0.067,0.3,0.1,0.3,0.5c0.033-0.033,0.066-0.067,0.1-0.1c0.3-0.2,0.517-0.3,0.65-0.3c0.333,0,0.433,0.117,0.3,0.35
				c0,0.033-0.017,0.083-0.05,0.15c-0.133,0.167-0.367,0.35-0.7,0.55l-0.05-0.1L6.55-22c0.067,0.1,0.1,0.25,0.1,0.45
				C6.65-21.35,6.6-21.217,6.5-21.15z M9.9-21.75c-0.033-0.4,0.117-0.433,0.45-0.1c-0.067,0.1-0.117,0.167-0.15,0.2
				c-0.067,0.066-0.167,0.05-0.3-0.05V-21.75z M9-22.45H8.75l-0.25-0.1l-0.55-0.3c-0.3-0.133-0.434-0.267-0.4-0.4
				c0.1-0.267,0.383-0.283,0.85-0.05l0.45,0.2C9.083-23,9.2-22.9,9.2-22.8c0.033,0.066,0,0.15-0.1,0.25L9-22.45z M30.6-26.8
				c-0.033,0.367-0.217,0.917-0.55,1.65c0.1-0.2,0.233-0.483,0.4-0.85c0.033-0.1,0.066-0.183,0.1-0.25
				C30.583-26.45,30.6-26.633,30.6-26.8z M28.45-27c-0.034,0.3-0.3,0.483-0.8,0.55l-0.3-0.1l-0.3-0.2l-0.1-0.35
				c-0.067-0.2,0.033-0.35,0.3-0.45c0.167-0.1,0.35-0.15,0.55-0.15c0.2-0.033,0.367,0.034,0.5,0.2
				C28.433-27.367,28.483-27.2,28.45-27z M27-28.85c-0.167,0.067-0.317,0.05-0.45-0.05c-0.033-0.033-0.1-0.184-0.2-0.45v-0.2
				l0.25-0.3c0.1-0.133,0.233-0.2,0.4-0.2c0.2-0.067,0.367-0.034,0.5,0.1c0.133,0.1,0.2,0.284,0.2,0.55
				c0.066,0.167,0.033,0.3-0.1,0.4S27.267-28.85,27-28.85z M28.9-30.1c0.167,0,0.3,0.067,0.4,0.2c0.167,0.167,0.233,0.267,0.2,0.3
				c-0.067,0.067-0.167,0.05-0.3-0.05l-0.4-0.3C28.8-29.983,28.833-30.033,28.9-30.1z"/>
			<path style="fill-rule:evenodd;clip-rule:evenodd;fill:#332004;" d="M34.3-29.7c-0.143-0.028-0.285-0.02-0.425,0.025
				c-0.026,0.017-0.051,0.025-0.075,0.025c0,0.033-0.017,0.05-0.05,0.05c-0.267,0.2-0.383,0.383-0.35,0.55l0.05,0.15l-0.05,0.1
				l-0.05,0.35c-0.267,0.333-0.417,0.567-0.45,0.7c-0.066,0.367-0.133,0.6-0.2,0.7c-0.2,0.167-0.35,0.3-0.45,0.4
				c-0.067,0.133-0.15,0.2-0.25,0.2c-0.3,0.1-0.55,0.083-0.75-0.05c-0.033,0-0.067-0.017-0.1-0.05l-0.05,0.1l-0.05,0.25l0.35,0.1
				c0.133,0.033,0.317,0.017,0.55-0.05c0.6-0.167,0.933-0.317,1-0.45c0.1-0.167,0.167-0.45,0.2-0.85c0.067-0.1,0.133-0.433,0.2-1
				l0.45-0.75c0.2-0.2,0.317-0.3,0.35-0.3L35-29.3c0.2-0.1,0.217-0.2,0.05-0.3c-0.1,0.1-0.2,0.133-0.3,0.1
				C34.583-29.6,34.433-29.667,34.3-29.7z M35.3-5.95h0.25h0.1c-0.033-0.033-0.05-0.066-0.05-0.1V-6.1l-0.1-0.35v0.25l-0.05,0.15
				H35.4c-0.066-0.034-0.117-0.083-0.15-0.15l-0.1-0.05C35.217-6.083,35.267-5.983,35.3-5.95z M37.1-6.7
				c-0.033-0.033-0.05,0-0.05,0.1l-0.2,0.65c-0.033,0.1-0.067,0.184-0.1,0.25l0.4,0.3v-0.05V-5.8v-0.4L37.1-6.15H37L37.1-6.7z
				 M34.35-8l0.05,0.05l0.35,0.8l0.1,0.45L35-6.3l0.05-0.15L35-6.55L34.9-7.3c-0.167-0.367-0.267-0.55-0.3-0.55L34.35-8z"/>
			<path style="fill-rule:evenodd;clip-rule:evenodd;fill:#855D13;" d="M33.875-29.675c0.14-0.045,0.282-0.054,0.425-0.025
				c-0.133-0.033-0.267-0.033-0.4,0L33.875-29.675z M31.05-26.2l0.05-0.25l-0.05,0.05L31-26.45L31.05-26.2z M30.6-27.05
				c0.066,0,0.133,0,0.2,0c0.167,0,0.317,0.183,0.45,0.55c0.2,0.133,0.45,0.15,0.75,0.05c0.1,0,0.183-0.066,0.25-0.2
				c0.1-0.1,0.25-0.233,0.45-0.4c0.066-0.1,0.133-0.333,0.2-0.7c0.033-0.133,0.184-0.367,0.45-0.7l0.05-0.35l0.05-0.1l-0.05-0.15
				c-0.033-0.167,0.083-0.35,0.35-0.55c-0.067,0.033-0.133,0.067-0.2,0.1c-0.233,0.133-0.417,0.317-0.55,0.55
				c0,0.3-0.017,0.517-0.05,0.65l-0.3,0.75c-0.133,0.3-0.316,0.466-0.55,0.5h-0.45c-0.133,0.033-0.283,0.033-0.45,0l-0.6-0.4
				c0,0.133,0,0.233,0,0.3C30.6-27.117,30.6-27.083,30.6-27.05z M30.55-27.65c0,0.067,0,0.117,0,0.15
				c0.034-0.033,0.067-0.067,0.1-0.1H30.6C30.568-27.6,30.551-27.617,30.55-27.65z M30.4-28.1v0.025
				c0.003,0.089,0.02,0.164,0.05,0.225v0.025c0.013,0.017,0.029,0.025,0.05,0.025h0.2c0.133-0.067,0.233-0.217,0.3-0.45
				c0.033-0.133,0.017-0.367-0.05-0.7c0-0.3,0.083-0.483,0.25-0.55c0.066-0.067,0.167-0.067,0.3,0l0.15,0.05L31.3-29.3
				c0.034,0,0.167-0.05,0.4-0.15c0.133-0.066,0.233-0.15,0.3-0.25c0.2-0.3,0.267-0.517,0.2-0.65c-0.167,0.333-0.333,0.533-0.5,0.6
				l-0.45,0.15c-0.167,0.067-0.283,0.15-0.35,0.25c-0.066,0.1-0.1,0.233-0.1,0.4l-0.1,0.4l-0.25,0.45H30.4z M27.95-30.55
				c0.167,0.033,0.35,0.083,0.55,0.15l0.05-0.05c0.233-0.233,0.4-0.367,0.5-0.4c0.233-0.1,0.617-0.15,1.15-0.15
				c0.233,0,0.35,0.017,0.35,0.05h0.05l0.15-0.45l-0.05-0.4c0-0.2-0.067-0.367-0.2-0.5c-0.067-0.067-0.25-0.133-0.55-0.2l-0.15-0.1
				c-0.1,0-0.167,0.017-0.2,0.05c-0.067,0.033-0.1,0.117-0.1,0.25c-0.1,0.1-0.133,0.167-0.1,0.2c0.033,0.067,0.117,0.133,0.25,0.2
				l0.25,0.15L30-31.9l-0.05-0.05l-0.1,0.05l-0.25-0.15c0-0.1,0.066-0.217,0.2-0.35c0.367,0.133,0.6,0.25,0.7,0.35
				c0.033,0.3,0.017,0.517-0.05,0.65c-0.1,0.133-0.284,0.183-0.55,0.15c-0.233-0.067-0.667,0.033-1.3,0.3
				C28.267-30.85,28.05-30.717,27.95-30.55z M28.1-32.5L28-32.6l-0.05-0.05l-0.1-0.05l-0.15-0.05c-0.1-0.067-0.15,0-0.15,0.2
				C27.65-32.65,27.833-32.633,28.1-32.5z M27.15-30.55c-0.033-0.1-0.033-0.233,0-0.4l-0.05,0.1c-0.033,0.067-0.05,0.167-0.05,0.3
				C27.083-30.517,27.117-30.517,27.15-30.55z M11.7-21c0.066-0.067,0.15-0.133,0.25-0.2c0.167-0.167,0.25-0.35,0.25-0.55
				c-0.034,0.067-0.083,0.117-0.15,0.15c-0.167,0.1-0.316,0.15-0.45,0.15L11.7-21z M11.35-22.4c0.033-0.133,0.066-0.283,0.1-0.45
				l0.1-0.75c0-0.066-0.133-0.316-0.4-0.75c-0.033-0.066-0.05-0.483-0.05-1.25c0.1-0.9,0.35-1.45,0.75-1.65
				c0.167-0.033,0.433-0.05,0.8-0.05h0.1c-0.133-0.034-0.283-0.05-0.45-0.05c-0.7,0.033-1.1,0.233-1.2,0.6
				c-0.167,0.467-0.283,1-0.35,1.6c0.167,0.733,0.217,1.283,0.15,1.65c-0.033,0.133-0.083,0.25-0.15,0.35
				c0.033,0.033,0.067,0.066,0.1,0.1C11.05-22.85,11.217-22.633,11.35-22.4z M8.8-24.3c0.133,0.033,0.3,0.117,0.5,0.25
				c-0.033-0.1-0.066-0.184-0.1-0.25c-0.034-0.067-0.184-0.233-0.45-0.5c-0.133-0.1-0.35-0.15-0.65-0.15
				c-0.233,0-0.333,0.133-0.3,0.4c0,0.133,0.034,0.216,0.1,0.25c0.067,0,0.15-0.017,0.25-0.05v-0.05H7.9
				c-0.033-0.267,0.05-0.417,0.25-0.45c0.2-0.033,0.367,0.05,0.5,0.25C8.717-24.533,8.767-24.433,8.8-24.3z M6.7-23.85h0.05
				c0-0.3-0.05-0.533-0.15-0.7l-0.45-0.5c-0.2-0.167-0.316-0.367-0.35-0.6L5.75-26.2c-0.067,0.233-0.083,0.383-0.05,0.45
				c0,0.133,0.083,0.3,0.25,0.5c0.066,0.133,0.183,0.3,0.35,0.5c0.167,0.167,0.267,0.3,0.3,0.4C6.7-24.217,6.733-24.05,6.7-23.85z
				 M35.9-6.15c0,0.066-0.066,0.1-0.2,0.1h-0.1c0,0.033,0.017,0.066,0.05,0.1L36.05-6h0.05c0.066-0.133,0.333-0.317,0.8-0.55
				C36.967-6.65,37-6.833,37-7.1c0-0.467-0.083-0.783-0.25-0.95H36.7l0.05,0.1h-0.1c0,0.034-0.017,0.05-0.05,0.05l0.2,0.1
				c0.1,0.267,0.117,0.45,0.05,0.55l-0.2,0.4l-0.2,0.3L35.9-6.15z M36.9-9c-0.134,0.002-0.234,0.086-0.3,0.25l0.05,0.1v0.05
				c0.033-0.133,0.133-0.2,0.3-0.2c0.066-0.034,0.15,0.083,0.25,0.35c0.167,0.2,0.267,0.367,0.3,0.5l0.15,0.9
				c-0.1,0.167-0.167,0.267-0.2,0.3l-0.15,0.3c-0.033,0.1-0.083,0.184-0.15,0.25v0.4l0.05-0.05l0.45-0.65
				c0.1-0.167,0.117-0.467,0.05-0.9c-0.034-0.4-0.15-0.783-0.35-1.15c-0.1-0.167-0.2-0.267-0.3-0.3H36.7
				C36.765-8.947,36.831-8.997,36.9-9z M35.55-7.2v-0.15l-0.05-0.5c-0.133-0.167-0.217-0.267-0.25-0.3l0.2,0.45L35.55-7.2z
				 M37.2-5.4l-0.05-0.05v0.05H37.2z M36.4-8.65c-0.033-0.067-0.05-0.133-0.05-0.2c0-0.2,0.033-0.3,0.1-0.3V-9.2
				c0.033-0.133,0.133-0.316,0.3-0.55l-0.3,0.25c-0.1,0.1-0.15,0.25-0.15,0.45C36.3-8.883,36.333-8.75,36.4-8.65z M36.4-8.3
				c-0.066,0.1-0.05,0.216,0.05,0.35L36.4-8.2V-8.3z M34.75-5.8l0.2-0.05l-0.2-0.05c0.033-0.133,0.017-0.35-0.05-0.65L34.65-6.9
				L34.6-7.1c0,0.1,0,0.2,0,0.3v0.4L34.5-6c0,0.1,0,0.167,0,0.2h0.05l0.2-0.05V-5.8z M34.5-7.45V-7.5
				c-0.067-0.067-0.267-0.233-0.6-0.5l-0.15-0.25L33.7-8.4c0-0.033-0.05-0.217-0.15-0.55l0.1-0.4c0.233-0.066,0.383-0.017,0.45,0.15
				c0,0.267-0.083,0.367-0.25,0.3v-0.05H33.8c-0.066,0.2,0,0.25,0.2,0.15c0.167,0,0.25-0.083,0.25-0.25
				c0.033-0.167-0.1-0.333-0.4-0.5c-0.167-0.067-0.283-0.034-0.35,0.1c-0.167,0.3-0.233,0.583-0.2,0.85
				c0.1,0.333,0.3,0.583,0.6,0.75C34.267-7.683,34.467-7.55,34.5-7.45z"/>
			<path style="fill-rule:evenodd;clip-rule:evenodd;fill:#563A09;" d="M30.6-27.05c0,0.1,0,0.183,0,0.25
				c0,0.167-0.017,0.35-0.05,0.55c-0.033,0.067-0.066,0.15-0.1,0.25c-0.167,0.367-0.3,0.65-0.4,0.85l0.05,0.1l0.2-0.1
				c0.133-0.233,0.25-0.333,0.35-0.3l0.05,0.15l0.15-0.05c-0.033-0.233,0.066-0.35,0.3-0.35l-0.1-0.5L31-26.45l0.05,0.05l0.05-0.05
				l0.05-0.1c0.033,0.033,0.067,0.05,0.1,0.05c-0.133-0.367-0.283-0.55-0.45-0.55C30.733-27.05,30.667-27.05,30.6-27.05z M31.3-29.3
				l0.35-0.15L31.5-29.5c-0.133-0.067-0.233-0.067-0.3,0c-0.167,0.067-0.25,0.25-0.25,0.55c0.066,0.333,0.083,0.567,0.05,0.7
				c-0.067,0.233-0.167,0.383-0.3,0.45h-0.2c0,0.066,0.017,0.117,0.05,0.15c0.001,0.033,0.018,0.05,0.05,0.05h0.05
				c0.2-0.167,0.35-0.383,0.45-0.65c0.033-0.1,0.05-0.283,0.05-0.55C31.15-29.033,31.2-29.2,31.3-29.3z M28.5-30.4
				c0.1,0.033,0.2,0.066,0.3,0.1c-0.033,0-0.083,0-0.15,0c0.1,0.033,0.2,0.066,0.3,0.1c0-0.033,0.017-0.066,0.05-0.1
				c0.233-0.233,0.533-0.4,0.9-0.5c0.033-0.034,0.233-0.067,0.6-0.1h0.05c0.167,0,0.284-0.083,0.35-0.25c0-0.033-0.033-0.2-0.1-0.5
				c0-0.267-0.033-0.434-0.1-0.5c-0.034-0.067-0.1-0.133-0.2-0.2c-0.133-0.1-0.317-0.183-0.55-0.25c-0.067,0-0.117,0-0.15,0
				l0.15,0.1c0.3,0.067,0.483,0.133,0.55,0.2c0.133,0.133,0.2,0.3,0.2,0.5l0.05,0.4l-0.15,0.45h-0.05c0-0.033-0.117-0.05-0.35-0.05
				c-0.534,0-0.917,0.05-1.15,0.15c-0.1,0.033-0.267,0.167-0.5,0.4L28.5-30.4z M27.15-30.95c-0.033,0.167-0.033,0.3,0,0.4h0.05
				c0.083,0,0.167,0,0.25,0v-0.05c0.066-0.333,0.183-0.533,0.35-0.6l0.3-0.1c0.066-0.034,0.15-0.1,0.25-0.2
				c0.2-0.3,0.3-0.483,0.3-0.55c0-0.133-0.05-0.233-0.15-0.3c-0.133-0.066-0.25-0.117-0.35-0.15L28-32.6l0.1,0.1v0.05l0.1,0.05
				c0.2,0.133,0.267,0.283,0.2,0.45c-0.2,0.2-0.35,0.317-0.45,0.35c-0.233,0-0.4,0.05-0.5,0.15L27.15-30.95z M12.2-21.75
				c0,0.2-0.083,0.383-0.25,0.55c-0.1,0.067-0.184,0.133-0.25,0.2v0.05c0,0.034,0.017,0.067,0.05,0.1c0.1-0.1,0.25-0.2,0.45-0.3
				c0.3-0.133,0.466-0.283,0.5-0.45c0.033-0.167,0.05-0.667,0.05-1.5c0.033-0.633,0.15-1.083,0.35-1.35
				c-0.333,0.233-0.517,0.467-0.55,0.7L12.5-22.6C12.433-22.167,12.333-21.883,12.2-21.75z M12.75-27.3h-0.1
				c-0.367,0-0.633,0.017-0.8,0.05c-0.4,0.2-0.65,0.75-0.75,1.65c0,0.767,0.017,1.184,0.05,1.25c0.267,0.434,0.4,0.684,0.4,0.75
				l-0.1,0.75c-0.034,0.167-0.067,0.317-0.1,0.45c0.033,0.1,0.066,0.2,0.1,0.3c0,0.067,0.017,0.133,0.05,0.2
				c0,0.033,0.017,0.066,0.05,0.1c0.1-0.167,0.233-0.45,0.4-0.85c0.167-0.533,0.216-0.9,0.15-1.1c0-0.033-0.15-0.25-0.45-0.65
				c-0.066-0.133-0.183-0.317-0.35-0.55v-1.25c0.067-0.333,0.167-0.533,0.3-0.6l0.55-0.1c0.467-0.067,0.75,0.083,0.85,0.45
				c0.1,0.333,0.1,0.567,0,0.7c-0.067,0.133-0.25,0.167-0.55,0.1v-0.3c-0.1-0.033-0.15,0-0.15,0.1c-0.033,0.1-0.017,0.184,0.05,0.25
				c0.1,0.167,0.283,0.2,0.55,0.1c0.3-0.067,0.45-0.45,0.45-1.15C13.317-26.983,13.117-27.2,12.75-27.3z M6.75-23.85
				c0.1-0.066,0.233-0.133,0.4-0.2h0.025c0.023-0.017,0.048-0.034,0.075-0.05c0-0.333-0.067-0.566-0.2-0.7
				c-0.367-0.233-0.633-0.417-0.8-0.55C6.117-25.483,6.033-25.633,6-25.8l0.05-0.55c0-0.5,0.2-0.683,0.6-0.55L6.6-26.65
				c0.133-0.2,0.133-0.333,0-0.4c-0.233-0.1-0.434-0.067-0.6,0.1L5.8-26.4c-0.033,0.066-0.05,0.133-0.05,0.2l0.05,0.55
				c0.034,0.233,0.15,0.433,0.35,0.6l0.45,0.5C6.7-24.383,6.75-24.15,6.75-23.85z M37.15-5.45L37.2-5.4
				c0.066,0.066,0.15,0.133,0.25,0.2h0.05l-0.1-0.45c0-0.133,0.167-0.4,0.5-0.8c0.1-0.2,0.067-0.533-0.1-1
				c-0.066-0.466-0.133-0.733-0.2-0.8l-0.15-0.3c0-0.067,0-0.117,0-0.15L37.1-9.05c-0.067,0-0.133,0.017-0.2,0.05
				c-0.069,0.003-0.135,0.053-0.2,0.15h0.35c0.1,0.033,0.2,0.133,0.3,0.3c0.2,0.367,0.316,0.75,0.35,1.15
				c0.066,0.433,0.05,0.733-0.05,0.9L37.2-5.85L37.15-5.8V-5.45z M36.65-8.6v-0.05l-0.05-0.1v0.05c-0.1-0.167-0.15-0.316-0.15-0.45
				c-0.067,0-0.1,0.1-0.1,0.3c0,0.067,0.017,0.133,0.05,0.2h0.05v0.1L36.5-8.5l-0.1,0.2v0.1l0.05,0.25h0.05v0.05h0.1
				c0.033,0,0.05-0.017,0.05-0.05l-0.1-0.15c-0.033-0.1-0.033-0.2,0-0.3l0.15,0.35h0.05C36.917-7.883,37-7.567,37-7.1
				c0,0.267-0.033,0.45-0.1,0.55C36.433-6.317,36.167-6.133,36.1-6h0.1l0.05,0.05l0.3,0.1l0.2,0.15c0.033-0.066,0.067-0.15,0.1-0.25
				l0.2-0.65c0-0.1,0.017-0.133,0.05-0.1c0.1-0.333,0.117-0.617,0.05-0.85l-0.2-0.6L36.65-8.6z M35.6-6.05h0.1
				c0.133,0,0.2-0.034,0.2-0.1L35.85-6.1H35.8l-0.1-0.15l0.05-0.45L35.7-7.4c-0.067-0.233-0.133-0.383-0.2-0.45l0.05,0.5v0.15
				L35.5-6.6c0,0.067,0,0.117,0,0.15l0.1,0.35V-6.05z M35.3-5.95c-0.033-0.033-0.083-0.133-0.15-0.3v-0.1l-0.1-0.1L35-6.3l-0.15-0.4
				l-0.1-0.45l-0.35-0.8L34.35-8c-0.333-0.133-0.55-0.267-0.65-0.4l0.05,0.15L33.9-8c0.333,0.267,0.533,0.433,0.6,0.5v0.05v0.1
				l0.1,0.25l0.05,0.2l0.05,0.35c0.066,0.3,0.083,0.517,0.05,0.65l0.2,0.05h0.1L35.1-5.9h0.05h0.05L35.3-5.95z"/>
			<path style="fill-rule:evenodd;clip-rule:evenodd;fill:#602A16;" d="M33.1-20.55l-0.35,0.7c-0.067,0.133-0.117,0.267-0.15,0.4
				c-0.1,0.434-0.133,0.95-0.1,1.55h0.3h0.1c0-0.667,0.117-1.233,0.35-1.7c0.067-0.167,0.317-0.55,0.75-1.15
				c0.367-0.5,0.95-1.083,1.75-1.75h0.05c-0.466-0.167-0.867-0.133-1.2,0.1c-0.333,0.333-0.583,0.566-0.75,0.7
				c-0.267,0.267-0.434,0.483-0.5,0.65L33.1-20.55z M26.3-15.85c-0.133-0.066-0.267-0.117-0.4-0.15c-0.1,0-0.183,0-0.25,0
				c-0.367,0.033-0.65,0.15-0.85,0.35c0.167,0.066,0.4,0.083,0.7,0.05c0.133,0,0.367,0.1,0.7,0.3c0.267,0.2,0.633,0.566,1.1,1.1
				c0.2,0.267,0.35,0.534,0.45,0.8c0.067,0.267,0.1,0.533,0.1,0.8c0,0.1,0,0.184,0,0.25c-0.1,0.434-0.283,0.717-0.55,0.85
				c-0.367,0.2-0.65,0.333-0.85,0.4c-0.1,0.067-0.184,0.1-0.25,0.1h-1.3c-0.033,0-0.066,0-0.1,0c-0.333,0-0.767-0.067-1.3-0.2
				c-0.2-0.033-0.45-0.15-0.75-0.35c-0.333-0.233-0.55-0.367-0.65-0.4c0.333,0.467,0.8,0.85,1.4,1.15c0.467,0.167,1,0.25,1.6,0.25
				l1.6-0.05l0.1-0.05l0.45-0.1h0.2c0.033-0.067,0.167-0.133,0.4-0.2l0.2-0.2l0.2-0.15c0.133-0.133,0.267-0.25,0.4-0.35
				c0.167-0.2,0.267-0.4,0.3-0.6c0.066-0.367,0.083-0.683,0.05-0.95c-0.033-0.5-0.2-0.867-0.5-1.1l-0.55-0.15
				c-0.133-0.033-0.333-0.15-0.6-0.35l-0.85-0.9C26.433-15.767,26.367-15.817,26.3-15.85z M34.85-18
				c-0.133,0.067-0.25,0.15-0.35,0.25c-0.1,0.067-0.183,0.117-0.25,0.15l-0.05,0.05c-0.067,0.033-0.133,0.083-0.2,0.15
				c-0.067,0.033-0.117,0.066-0.15,0.1c-0.1,0.1-0.184,0.2-0.25,0.3l0.15,0.05l0.2,0.05c0.066,0.167,0.2,0.25,0.4,0.25
				c0.1,0,0.2-0.033,0.3-0.1c0.033,0,0.067-0.017,0.1-0.05l0.45-0.75c0.033-0.067,0.083-0.133,0.15-0.2
				c0.167-0.233,0.333-0.433,0.5-0.6c-0.067,0.033-0.133,0.067-0.2,0.1L34.85-18z"/>
			<path style="fill-rule:evenodd;clip-rule:evenodd;fill:#564208;" d="M28.2-29.4v0.05l-0.05,0.2c0.133-0.133,0.3-0.15,0.5-0.05
				l0.4,1.15c0,0.033,0.017,0.066,0.05,0.1c0.033,0.1,0.083,0.167,0.15,0.2c0.033,0.067,0.067,0.1,0.1,0.1
				c0.033-0.033,0.05-0.067,0.05-0.1c0.033-0.067,0.033-0.15,0-0.25s-0.066-0.2-0.1-0.3c-0.033-0.067-0.05-0.133-0.05-0.2
				c0-0.033,0-0.083,0-0.15c-0.067-0.133-0.1-0.283-0.1-0.45c-0.033-0.133-0.1-0.25-0.2-0.35c-0.071-0.067-0.171-0.118-0.3-0.15
				c-0.033,0-0.066,0-0.1,0C28.283-29.6,28.167-29.533,28.2-29.4z"/>
		</g>
	</g>
</symbol>
<use xlink:href="#rookswort_x5F_1"  width="61.838" height="32.775" x="0.025" y="-32.775" transform="matrix(0.8 0 0 -0.8 6.3501 23.9004)" style="overflow:visible;"/>
</svg>
