<?xml version="1.0" encoding="iso-8859-1"?>
<!-- Generator: Adobe Illustrator 15.1.0, SVG Export Plug-In . SVG Version: 6.00 Build 0)  -->
<!DOCTYPE svg PUBLIC "-//W3C//DTD SVG 1.1//EN" "http://www.w3.org/Graphics/SVG/1.1/DTD/svg11.dtd">
<svg version="1.1" id="butterfly" xmlns="http://www.w3.org/2000/svg" xmlns:xlink="http://www.w3.org/1999/xlink" x="0px" y="0px"
	 width="53px" height="17.5px" viewBox="0 0 53 17.5" style="enable-background:new 0 0 53 17.5;" xml:space="preserve">
<symbol  id="back" viewBox="-23.5 -7.45 23.65 14.85">
	<g id="Layer_1_4_">
		<g>
			<path style="fill-rule:evenodd;clip-rule:evenodd;fill:#595959;" d="M-20.35,2.4c0.4,0.133,0.883,0.3,1.45,0.5
				c2,0.7,3.617,1.25,4.85,1.65c1.267,0.467,2.083,0.75,2.45,0.85c2.667,0.867,5.267,1.45,7.8,1.75
				c0.367,0.067,0.75,0.117,1.15,0.15c0.967,0.067,1.9,0.1,2.8,0.1V6.85c-0.367,0.033-0.733,0.033-1.1,0h-0.8
				C-3.383,6.75-5.467,6.4-8,5.8c-3.033-0.667-6.917-1.9-11.65-3.7c-0.367-0.133-0.717-0.233-1.05-0.3v0.05
				c0,0.1-0.117,0.117-0.35,0.05c-0.3-0.1-0.483-0.183-0.55-0.25c-0.2-0.033-0.383-0.05-0.55-0.05c-0.167,0-0.317,0-0.45,0V2
				c0.033,0,0.083,0,0.15,0C-22.017,2-21.317,2.133-20.35,2.4z M-20.55,1.35c-0.067-0.033-0.117-0.067-0.15-0.1
				c-0.8-0.233-1.35-0.383-1.65-0.45c-0.1-0.033-0.167-0.05-0.2-0.05h-0.05V1.3c0.233-0.1,0.55-0.183,0.95-0.25
				C-21.25,1.15-20.883,1.25-20.55,1.35z M-19.7,1.6c0.367,0.1,0.7,0.2,1,0.3c0-0.033,0.017-0.05,0.05-0.05
				c-0.333-0.1-0.633-0.2-0.9-0.3C-19.617,1.583-19.667,1.6-19.7,1.6z"/>
			<path style="fill-rule:evenodd;clip-rule:evenodd;fill:#969696;" d="M0.15,4.65V4.1C0.05,4.133-0.067,4.15-0.2,4.15
				c-1.033,0.067-2.066,0.1-3.1,0.1c-2.1,0-4.534-0.2-7.3-0.6c-1.733-0.267-2.983-0.517-3.75-0.75c-0.066,0-0.133-0.017-0.2-0.05
				h-0.05c-0.467-0.1-0.95-0.2-1.45-0.3c-0.1-0.033-0.217-0.066-0.35-0.1c-0.033,0.033-0.083,0.05-0.15,0.05
				c-0.3,0.033-0.7-0.017-1.2-0.15C-18.383,2.15-18.7,2-18.7,1.9c-0.3-0.1-0.633-0.2-1-0.3c-0.1,0.033-0.25,0.017-0.45-0.05
				c-0.167-0.066-0.3-0.133-0.4-0.2c-0.333-0.1-0.7-0.2-1.1-0.3c-0.4,0.067-0.717,0.15-0.95,0.25v0.3c0.133,0,0.283,0,0.45,0
				c0.167,0,0.35,0.017,0.55,0.05c-0.066-0.033-0.083-0.066-0.05-0.1c0.066-0.1,0.25-0.117,0.55-0.05c0.167,0.1,0.3,0.2,0.4,0.3
				c0.333,0.067,0.684,0.167,1.05,0.3C-14.917,3.9-11.033,5.133-8,5.8c2.533,0.6,4.617,0.95,6.25,1.05h0.8
				c0.367,0.033,0.733,0.033,1.1,0V6.5c-0.1,0.033-0.217,0.033-0.35,0c-0.433,0-0.867-0.017-1.3-0.05
				c-1.067-0.1-2.05-0.217-2.95-0.35C-4.517,6.2-4.667,6.233-4.9,6.2c-0.467-0.1-0.8-0.2-1-0.3c-1.133-0.2-2.017-0.417-2.65-0.65
				c-0.233-0.033-0.467-0.083-0.7-0.15c-1.1-0.333-1.567-0.567-1.4-0.7c0.467-0.133,0.75-0.25,0.85-0.35
				c0.133-0.1,0.383-0.083,0.75,0.05c0.2,0.033,0.617,0.2,1.25,0.5c0.133,0.033,0.283,0.066,0.45,0.1c0.2,0,0.417,0.033,0.65,0.1
				c-0.066-0.033-0.117-0.066-0.15-0.1c-0.066-0.2,0.2-0.25,0.8-0.15c1.033,0.233,1.8,0.35,2.3,0.35c0.633,0.033,1.167,0,1.6-0.1
				C-1.617,4.667-1.1,4.583-0.6,4.55c0.167,0,0.3,0,0.4,0C-0.033,4.583,0.083,4.617,0.15,4.65z M-15.5,3.35
				c-0.133,0.033-0.383,0-0.75-0.1c-0.833-0.333-1.067-0.5-0.7-0.5c0.4-0.033,0.817,0.05,1.25,0.25
				C-15.4,3.2-15.333,3.317-15.5,3.35z M-12.05,4.05c-0.133-0.033-0.25-0.066-0.35-0.1c-0.633-0.2-0.717-0.317-0.25-0.35
				c0.433-0.067,0.933,0.017,1.5,0.25c0.433,0.267,0.45,0.383,0.05,0.35c-0.133,0-0.267-0.017-0.4-0.05
				c0.3,0.133,0.467,0.25,0.5,0.35c0,0.133-0.133,0.183-0.4,0.15c-0.9-0.1-1.367-0.283-1.4-0.55c0.1,0.033,0.2,0.017,0.3-0.05
				C-12.4,4.017-12.25,4.017-12.05,4.05z M-14.35,3.9c-0.1,0.033-0.267,0-0.5-0.1c-0.6-0.2-0.8-0.316-0.6-0.35
				c0.133-0.1,0.367-0.1,0.7,0c0.033,0,0.067-0.017,0.1-0.05c0.267-0.133,0.583-0.1,0.95,0.1c0.3,0.1,0.35,0.217,0.15,0.35
				c-0.2,0.167-0.4,0.217-0.6,0.15C-14.25,3.967-14.317,3.933-14.35,3.9z M-6.15,5c0.1,0.067,0.217,0.133,0.35,0.2
				c0.4,0.167,0.867,0.216,1.4,0.15c-0.067,0-0.117-0.017-0.15-0.05C-4.617,5.267-5,5.2-5.7,5.1C-5.867,5.067-6.017,5.033-6.15,5z"
				/>
			<path style="fill-rule:evenodd;clip-rule:evenodd;fill:#737373;" d="M-4.45,6.1C-4.983,6.033-5.467,5.967-5.9,5.9
				c0.2,0.1,0.533,0.2,1,0.3C-4.667,6.233-4.517,6.2-4.45,6.1z M0.15,4.65C0.083,4.617-0.033,4.583-0.2,4.55c-0.1,0-0.233,0-0.4,0
				C-1.1,4.583-1.617,4.667-2.15,4.8c-0.434,0.1-0.967,0.133-1.6,0.1c-0.5,0-1.267-0.117-2.3-0.35c-0.6-0.1-0.867-0.05-0.8,0.15
				c0.033,0.033,0.083,0.066,0.15,0.1C-6.6,4.9-6.417,4.967-6.15,5c0.133,0.033,0.283,0.067,0.45,0.1C-5,5.2-4.617,5.267-4.55,5.3
				c0.033,0.034,0.083,0.05,0.15,0.05c0.066,0,0.133,0,0.2,0c0.5-0.067,1.067-0.1,1.7-0.1c0.4,0.067,0.917,0,1.55-0.2
				C-0.717,4.95-0.467,4.9-0.2,4.9c0.1,0,0.217,0,0.35,0V4.65z M-20.7,1.8c-0.1-0.1-0.233-0.2-0.4-0.3
				c-0.3-0.067-0.483-0.05-0.55,0.05c-0.033,0.034-0.017,0.067,0.05,0.1c0.067,0.067,0.25,0.15,0.55,0.25
				c0.233,0.067,0.35,0.05,0.35-0.05V1.8z M-15.5,3.35c0.167-0.033,0.1-0.15-0.2-0.35c-0.433-0.2-0.85-0.283-1.25-0.25
				c-0.367,0-0.133,0.167,0.7,0.5C-15.883,3.35-15.633,3.383-15.5,3.35z M-14.35,3.9c0.033,0.033,0.1,0.067,0.2,0.1
				c0.2,0.067,0.4,0.017,0.6-0.15c0.2-0.133,0.15-0.25-0.15-0.35c-0.367-0.2-0.683-0.233-0.95-0.1c-0.033,0.033-0.067,0.05-0.1,0.05
				c0.033,0.033,0.067,0.05,0.1,0.05c0.333,0.067,0.45,0.167,0.35,0.3C-14.3,3.867-14.317,3.9-14.35,3.9z M-12.05,4.05
				c0.066,0,0.183,0.017,0.35,0.05c0.067,0.033,0.133,0.05,0.2,0.05c0.133,0.033,0.267,0.05,0.4,0.05
				c0.4,0.033,0.383-0.083-0.05-0.35c-0.567-0.233-1.067-0.317-1.5-0.25c-0.467,0.033-0.383,0.15,0.25,0.35
				C-12.3,3.983-12.183,4.017-12.05,4.05z M-8.55,5.25C-8.617,5.217-8.667,5.2-8.7,5.2c-0.966-0.367-1.2-0.65-0.7-0.85
				c0.1-0.067,0.25-0.067,0.45,0c0.333,0.1,0.717,0.183,1.15,0.25c-0.633-0.3-1.05-0.467-1.25-0.5C-9.417,3.967-9.667,3.95-9.8,4.05
				c-0.1,0.1-0.383,0.217-0.85,0.35c-0.167,0.133,0.3,0.367,1.4,0.7C-9.017,5.167-8.783,5.217-8.55,5.25z"/>
			<linearGradient id="SVGID_1_" gradientUnits="userSpaceOnUse" x1="-11.4927" y1="-7.4199" x2="-10.4959" y2="7.7303">
				<stop  offset="0" style="stop-color:#CF8D8D"/>
				<stop  offset="0.1765" style="stop-color:#CA9E9E"/>
				<stop  offset="0.4314" style="stop-color:#C4B0B0"/>
				<stop  offset="0.702" style="stop-color:#C0BBBB"/>
				<stop  offset="1" style="stop-color:#BFBFBF"/>
			</linearGradient>
			<path style="fill-rule:evenodd;clip-rule:evenodd;fill:url(#SVGID_1_);" d="M0.15-0.05c-0.233-0.1-0.3-0.25-0.2-0.45
				c0.033-0.067,0.1-0.133,0.2-0.2v-0.65c-0.167-0.066-0.167-0.183,0-0.35v-3.8c-3-0.067-5.433,0.017-7.3,0.25
				c-2.4,0.3-4.8,0.917-7.2,1.85c-2.4,0.933-4.066,1.583-5,1.95c-0.9,0.367-1.816,0.6-2.75,0.7c-0.167,0.067-0.333,0.1-0.5,0.1
				h-0.05l0.05,0.4v1h0.05c0.033,0,0.1,0.017,0.2,0.05c0.3,0.067,0.85,0.217,1.65,0.45c-0.1-0.067-0.083-0.117,0.05-0.15
				c0.233-0.1,0.517-0.067,0.85,0.1c0.233,0.133,0.316,0.25,0.25,0.35c0.267,0.1,0.566,0.2,0.9,0.3
				c0.033-0.067,0.183-0.117,0.45-0.15c0.534-0.067,1.05,0.117,1.55,0.55c0.2,0.1,0.283,0.167,0.25,0.2
				c0.133,0.033,0.25,0.066,0.35,0.1c0.5,0.1,0.983,0.2,1.45,0.3c-0.1-0.033-0.2-0.067-0.3-0.1c-0.333-0.067-0.25-0.133,0.25-0.2
				c0.5-0.033,1.033-0.017,1.6,0.05l1.6,0.2c0.6,0.1,1.083,0.1,1.45,0c0.367-0.1,0.833-0.1,1.4,0C-7.933,2.867-7.383,2.933-6.95,3
				C-6.45,3.067-6.133,3.1-6,3.1c0.2-0.133,0.467-0.25,0.8-0.35c0.4-0.133,0.833-0.133,1.3,0C-3.2,2.983-2.75,3.1-2.55,3.1
				c0.333-0.033,0.7-0.1,1.1-0.2c0.5-0.2,0.9-0.316,1.2-0.35C-0.15,2.517-0.033,2.5,0.1,2.5h0.05V1.75
				C0.083,1.883-0.017,1.933-0.15,1.9H-0.2c-0.566-0.033-0.75-0.167-0.55-0.4C-0.583,1.367-0.4,1.3-0.2,1.3c0.067,0,0.133,0,0.2,0
				s0.117,0.017,0.15,0.05v-0.1c-0.033,0-0.083,0-0.15,0S-0.133,1.233-0.2,1.2c-0.433-0.067-0.617-0.184-0.55-0.35
				c0-0.033,0.017-0.067,0.05-0.1V0.7c0.1-0.1,0.267-0.15,0.5-0.15c0.067,0,0.133,0.017,0.2,0.05h0.05c0.034,0,0.067,0,0.1,0V-0.05z
				 M-17.9-3.2h0.05l-0.9,0.4c-0.1,0.033-0.2,0.083-0.3,0.15c0.5-0.2,1.05-0.434,1.65-0.7c3.2-1.367,5.733-2.316,7.6-2.85
				c2.3-0.7,5.117-1.066,8.45-1.1c0.5,0,1-0.017,1.5-0.05v-0.1c-0.467,0-0.933,0-1.4,0C-3.217-7.417-5-7.283-6.6-7.05
				c-0.533,0.1-1.05,0.2-1.55,0.3C-8.383-6.683-8.6-6.633-8.8-6.6c-0.3,0.1-0.6,0.2-0.9,0.3c-0.2,0.066-0.4,0.117-0.6,0.15
				c-1.8,0.566-4.133,1.467-7,2.7C-17.5-3.35-17.7-3.267-17.9-3.2z M-15.75,1.45c0.1-0.133,0.283-0.15,0.55-0.05
				c0.233,0.067,0.284,0.167,0.15,0.3c-0.133,0.066-0.284,0.083-0.45,0.05C-15.8,1.65-15.883,1.55-15.75,1.45z M-17.1,1.25
				c-0.367-0.033-0.467-0.117-0.3-0.25c0.1-0.133,0.283-0.167,0.55-0.1c0.267,0.067,0.333,0.15,0.2,0.25
				C-16.75,1.217-16.9,1.25-17.1,1.25z M-18.2,0.75c-0.1,0.133-0.3,0.15-0.6,0.05c-0.567-0.2-0.717-0.316-0.45-0.35
				c0.2-0.067,0.483-0.067,0.85,0C-18.133,0.483-18.067,0.583-18.2,0.75z M-14.45,1.75c0.067-0.1,0.233-0.117,0.5-0.05
				c0.267,0.066,0.333,0.15,0.2,0.25c-0.1,0.066-0.25,0.1-0.45,0.1C-14.433,1.983-14.517,1.883-14.45,1.75z M-13.1,1.9
				c-0.233-0.066-0.267-0.167-0.1-0.3c0.133-0.1,0.3-0.133,0.5-0.1c0.2,0.033,0.25,0.117,0.15,0.25
				C-12.683,1.883-12.867,1.933-13.1,1.9z M-10.55,1.8c-0.633-0.167-0.817-0.3-0.55-0.4c0.233-0.1,0.583-0.1,1.05,0
				c0.367,0.1,0.417,0.217,0.15,0.35C-10.133,1.85-10.35,1.867-10.55,1.8z M-10.65,1.05c-0.567-0.1-0.7-0.25-0.4-0.45
				c0.333-0.233,0.683-0.283,1.05-0.15c0.367,0.066,0.467,0.216,0.3,0.45C-9.9,1.067-10.217,1.117-10.65,1.05z M-11.95,1.3
				c-0.066,0.133-0.2,0.167-0.4,0.1c-0.4-0.1-0.517-0.2-0.35-0.3c0.167-0.1,0.367-0.133,0.6-0.1C-11.9,1.067-11.85,1.167-11.95,1.3z
				 M-14.2,1.35c-0.433-0.167-0.533-0.283-0.3-0.35c0.2-0.067,0.433-0.05,0.7,0.05c0.233,0.1,0.283,0.2,0.15,0.3
				C-13.75,1.45-13.933,1.45-14.2,1.35z M-14.6,0.45c0.333,0.1,0.417,0.2,0.25,0.3c-0.2,0.1-0.433,0.133-0.7,0.1
				c-0.333-0.033-0.417-0.15-0.25-0.35C-15.167,0.4-14.933,0.383-14.6,0.45z M-6.5,1.5c-0.6-0.167-0.75-0.35-0.45-0.55
				C-6.617,0.75-6.3,0.683-6,0.75c0.2,0.067,0.233,0.233,0.1,0.5C-6.067,1.483-6.267,1.567-6.5,1.5z M-7.45,2.55
				c0.1-0.1,0.284-0.133,0.55-0.1c0.267,0.033,0.333,0.1,0.2,0.2c-0.066,0.1-0.216,0.133-0.45,0.1
				C-7.417,2.717-7.517,2.65-7.45,2.55z M-5.4,2.15c-0.233,0.1-0.533,0.117-0.9,0.05C-6.933,2.133-7.067,2-6.7,1.8
				c0.4-0.2,0.767-0.216,1.1-0.05C-5.267,1.917-5.2,2.05-5.4,2.15z M-8.3,1.2C-8,1.267-7.883,1.4-7.95,1.6
				C-8.017,1.833-8.167,1.95-8.4,1.95C-9,1.883-9.217,1.733-9.05,1.5C-8.883,1.233-8.633,1.133-8.3,1.2z M-3.75,1.9
				C-3.517,1.733-3.3,1.683-3.1,1.75c0.2,0.067,0.25,0.183,0.15,0.35c-0.1,0.167-0.216,0.233-0.35,0.2C-3.8,2.2-3.95,2.067-3.75,1.9
				z M-4,0.8c0.367,0.167,0.4,0.317,0.1,0.45C-4.2,1.35-4.567,1.4-5,1.4c-0.233,0-0.217-0.15,0.05-0.45
				C-4.683,0.717-4.367,0.667-4,0.8z M-1.2,0.45C-1.433,0.55-1.667,0.5-1.9,0.3c-0.167-0.2-0.217-0.35-0.15-0.45
				c0.066-0.1,0.267-0.15,0.6-0.15c0.3,0,0.583,0.083,0.85,0.25C-0.267,0.117-0.467,0.283-1.2,0.45z M-1.95,1.4
				c0.133-0.2,0.383-0.267,0.75-0.2c0.367,0.033,0.483,0.15,0.35,0.35c-0.167,0.1-0.45,0.167-0.85,0.2
				C-2,1.783-2.083,1.667-1.95,1.4z M-9.4-0.7c0.2,0.067,0.217,0.184,0.05,0.35c-0.2,0.133-0.4,0.167-0.6,0.1
				c-0.433-0.067-0.5-0.167-0.2-0.3C-9.85-0.75-9.6-0.8-9.4-0.7z M-7.85,0c-0.767-0.067-0.9-0.2-0.4-0.4c0.467-0.2,0.867-0.2,1.2,0
				C-6.517-0.033-6.783,0.1-7.85,0z M-6.45-1.35c0.233,0.033,0.284,0.133,0.15,0.3C-6.467-0.95-6.667-0.9-6.9-0.9
				c-0.367,0.033-0.434-0.067-0.2-0.3C-6.9-1.4-6.683-1.45-6.45-1.35z M-6.2-0.2c0.067-0.167,0.217-0.216,0.45-0.15
				c0.233,0.067,0.317,0.167,0.25,0.3C-5.6,0.083-5.767,0.133-6,0.1C-6.267,0.067-6.333-0.033-6.2-0.2z M-4.55-1.05
				c0.233,0.133,0.25,0.267,0.05,0.4C-4.733-0.45-4.983-0.4-5.25-0.5C-5.783-0.667-5.867-0.833-5.5-1
				C-5.167-1.1-4.85-1.117-4.55-1.05z M-3.45-1.85c0.267-0.167,0.55-0.233,0.85-0.2c0.233,0.033,0.267,0.167,0.1,0.4
				c-0.167,0.2-0.367,0.267-0.6,0.2C-3.567-1.55-3.683-1.683-3.45-1.85z M-3.15-0.4c0.267,0.167,0.267,0.3,0,0.4
				c-0.2,0.067-0.367,0.083-0.5,0.05C-4.117,0.017-4.233-0.1-4-0.3C-3.7-0.5-3.417-0.533-3.15-0.4z M-0.15-0.95
				C-0.117-0.883-0.133-0.833-0.2-0.8c-0.033,0.066-0.083,0.117-0.15,0.15c-0.1,0.066-0.233,0.083-0.4,0.05
				c-0.167,0-0.3-0.083-0.4-0.25c-0.133-0.133-0.133-0.25,0-0.35c0.133-0.133,0.333-0.167,0.6-0.1c0.167,0.033,0.283,0.1,0.35,0.2
				C-0.167-1.067-0.15-1.017-0.15-0.95z M-13.15-0.05c-0.467,0.033-0.633-0.067-0.5-0.3c0.1-0.167,0.333-0.25,0.7-0.25
				c0.267,0,0.35,0.083,0.25,0.25C-12.8-0.15-12.95-0.05-13.15-0.05z M-11.95-0.35c0.3,0.067,0.383,0.184,0.25,0.35
				c-0.233,0.167-0.45,0.233-0.65,0.2c-0.333-0.034-0.45-0.167-0.35-0.4C-12.567-0.367-12.317-0.417-11.95-0.35z"/>
			<path style="fill-rule:evenodd;clip-rule:evenodd;fill:#F1FCED;" d="M0.1,2.5C0,2.533-0.1,2.55-0.2,2.55h-0.05
				c-0.3,0.034-0.7,0.15-1.2,0.35c-0.4,0.1-0.767,0.167-1.1,0.2c-0.2,0-0.65-0.117-1.35-0.35c-0.467-0.133-0.9-0.133-1.3,0
				C-5.533,2.85-5.8,2.967-6,3.1c-0.133,0-0.45-0.033-0.95-0.1C-7.383,2.933-7.933,2.867-8.6,2.8c-0.566-0.1-1.033-0.1-1.4,0
				c-0.367,0.1-0.85,0.1-1.45,0l-1.6-0.2c-0.567-0.067-1.1-0.083-1.6-0.05c-0.5,0.067-0.583,0.133-0.25,0.2
				c0.1,0.033,0.2,0.067,0.3,0.1h0.05c0.066,0.033,0.133,0.05,0.2,0.05c0.767,0.233,2.017,0.483,3.75,0.75
				c2.767,0.4,5.2,0.6,7.3,0.6c1.033,0,2.066-0.033,3.1-0.1c0.133,0,0.25-0.017,0.35-0.05V2.5H0.1z M0.15,1.25V0.6
				c-0.033,0-0.066,0-0.1,0H0c-0.067-0.033-0.133-0.05-0.2-0.05c-0.233,0-0.4,0.05-0.5,0.15v0.05c-0.033,0.033-0.05,0.067-0.05,0.1
				C-0.817,1.017-0.633,1.133-0.2,1.2C-0.133,1.233-0.067,1.25,0,1.25S0.117,1.25,0.15,1.25z M0.15,1.35
				C0.117,1.317,0.067,1.3,0,1.3s-0.133,0-0.2,0c-0.2,0-0.383,0.067-0.55,0.2c-0.2,0.233-0.017,0.367,0.55,0.4h0.05
				c0.133,0.033,0.233-0.017,0.3-0.15V1.35z M0.15-0.7c-0.1,0.067-0.167,0.133-0.2,0.2c-0.1,0.2-0.034,0.35,0.2,0.45V-0.7z
				 M-18.65,1.85c-0.033,0-0.05,0.017-0.05,0.05c0,0.1,0.317,0.25,0.95,0.45c0.5,0.133,0.9,0.183,1.2,0.15
				c0.066,0,0.117-0.017,0.15-0.05c0.033-0.034-0.05-0.1-0.25-0.2c-0.5-0.433-1.017-0.617-1.55-0.55
				C-18.467,1.733-18.617,1.783-18.65,1.85z M-20.55,1.35c0.1,0.066,0.233,0.133,0.4,0.2c0.2,0.067,0.35,0.083,0.45,0.05
				c0.034,0,0.083-0.017,0.15-0.05c0.066-0.1-0.017-0.216-0.25-0.35c-0.333-0.167-0.617-0.2-0.85-0.1
				c-0.133,0.033-0.15,0.083-0.05,0.15C-20.667,1.283-20.617,1.317-20.55,1.35z M-18.2,0.75c0.133-0.167,0.067-0.267-0.2-0.3
				c-0.367-0.067-0.65-0.067-0.85,0c-0.267,0.033-0.117,0.15,0.45,0.35C-18.5,0.9-18.3,0.883-18.2,0.75z M-17.1,1.25
				c0.2,0,0.35-0.033,0.45-0.1c0.133-0.1,0.066-0.183-0.2-0.25C-17.117,0.833-17.3,0.867-17.4,1
				C-17.567,1.133-17.467,1.217-17.1,1.25z M-15.75,1.45c-0.133,0.1-0.05,0.2,0.25,0.3c0.167,0.033,0.317,0.017,0.45-0.05
				c0.133-0.133,0.083-0.233-0.15-0.3C-15.467,1.3-15.65,1.317-15.75,1.45z M-13.1,1.9c0.233,0.033,0.417-0.017,0.55-0.15
				c0.1-0.133,0.05-0.217-0.15-0.25c-0.2-0.033-0.367,0-0.5,0.1C-13.367,1.733-13.333,1.833-13.1,1.9z M-14.45,1.75
				c-0.066,0.133,0.017,0.233,0.25,0.3c0.2,0,0.35-0.033,0.45-0.1c0.133-0.1,0.067-0.184-0.2-0.25
				C-14.217,1.633-14.383,1.65-14.45,1.75z M-14.6,0.45c-0.333-0.067-0.566-0.05-0.7,0.05c-0.167,0.2-0.083,0.317,0.25,0.35
				c0.267,0.033,0.5,0,0.7-0.1C-14.183,0.65-14.267,0.55-14.6,0.45z M-14.2,1.35c0.267,0.1,0.45,0.1,0.55,0
				c0.133-0.1,0.083-0.2-0.15-0.3c-0.267-0.1-0.5-0.117-0.7-0.05C-14.733,1.067-14.633,1.183-14.2,1.35z M-11.95,1.3
				c0.1-0.133,0.05-0.233-0.15-0.3c-0.233-0.033-0.433,0-0.6,0.1c-0.167,0.1-0.05,0.2,0.35,0.3C-12.15,1.467-12.017,1.433-11.95,1.3
				z M-10.65,1.05C-10.217,1.117-9.9,1.067-9.7,0.9c0.167-0.233,0.067-0.383-0.3-0.45c-0.367-0.133-0.717-0.083-1.05,0.15
				C-11.35,0.8-11.217,0.95-10.65,1.05z M-10.55,1.8c0.2,0.067,0.417,0.05,0.65-0.05c0.267-0.133,0.217-0.25-0.15-0.35
				c-0.467-0.1-0.817-0.1-1.05,0C-11.367,1.5-11.183,1.633-10.55,1.8z M-8.3,1.2c-0.333-0.067-0.583,0.033-0.75,0.3
				C-9.217,1.733-9,1.883-8.4,1.95c0.233,0,0.383-0.117,0.45-0.35C-7.883,1.4-8,1.267-8.3,1.2z M-5.4,2.15
				c0.2-0.1,0.133-0.233-0.2-0.4C-5.933,1.583-6.3,1.6-6.7,1.8C-7.067,2-6.933,2.133-6.3,2.2C-5.933,2.267-5.633,2.25-5.4,2.15z
				 M-7.45,2.55c-0.066,0.1,0.034,0.167,0.3,0.2c0.233,0.033,0.383,0,0.45-0.1c0.133-0.1,0.067-0.167-0.2-0.2
				C-7.167,2.417-7.35,2.45-7.45,2.55z M-6.5,1.5c0.233,0.067,0.433-0.017,0.6-0.25c0.133-0.267,0.1-0.433-0.1-0.5
				c-0.3-0.067-0.617,0-0.95,0.2C-7.25,1.15-7.1,1.333-6.5,1.5z M-4,0.8c-0.367-0.133-0.683-0.083-0.95,0.15
				C-5.217,1.25-5.233,1.4-5,1.4c0.433,0,0.8-0.05,1.1-0.15C-3.6,1.117-3.633,0.967-4,0.8z M-3.75,1.9C-3.95,2.067-3.8,2.2-3.3,2.3
				c0.133,0.034,0.25-0.033,0.35-0.2c0.1-0.167,0.05-0.283-0.15-0.35C-3.3,1.683-3.517,1.733-3.75,1.9z M-1.95,1.4
				C-2.083,1.667-2,1.783-1.7,1.75c0.4-0.033,0.684-0.1,0.85-0.2c0.133-0.2,0.017-0.316-0.35-0.35C-1.567,1.133-1.817,1.2-1.95,1.4z
				 M-1.2,0.45c0.733-0.167,0.934-0.333,0.6-0.5C-0.867-0.217-1.15-0.3-1.45-0.3c-0.333,0-0.533,0.05-0.6,0.15
				C-2.117-0.05-2.067,0.1-1.9,0.3C-1.667,0.5-1.433,0.55-1.2,0.45z M-0.15-0.95c0-0.066-0.017-0.117-0.05-0.15
				c-0.066-0.1-0.183-0.167-0.35-0.2c-0.267-0.067-0.467-0.034-0.6,0.1c-0.133,0.1-0.133,0.217,0,0.35
				c0.1,0.167,0.233,0.25,0.4,0.25c0.167,0.033,0.3,0.017,0.4-0.05C-0.283-0.683-0.233-0.733-0.2-0.8
				C-0.133-0.833-0.117-0.883-0.15-0.95z M-3.15-0.4C-3.417-0.533-3.7-0.5-4-0.3c-0.233,0.2-0.117,0.316,0.35,0.35
				c0.133,0.034,0.3,0.017,0.5-0.05C-2.883-0.1-2.883-0.233-3.15-0.4z M-3.45-1.85c-0.233,0.167-0.117,0.3,0.35,0.4
				c0.233,0.067,0.434,0,0.6-0.2c0.167-0.233,0.133-0.367-0.1-0.4C-2.9-2.083-3.183-2.017-3.45-1.85z M-4.55-1.05
				C-4.85-1.117-5.167-1.1-5.5-1c-0.367,0.167-0.283,0.333,0.25,0.5c0.267,0.1,0.517,0.05,0.75-0.15
				C-4.3-0.783-4.317-0.917-4.55-1.05z M-6.2-0.2C-6.333-0.033-6.267,0.067-6,0.1c0.233,0.033,0.4-0.017,0.5-0.15
				c0.067-0.133-0.017-0.233-0.25-0.3C-5.983-0.417-6.133-0.367-6.2-0.2z M-6.45-1.35C-6.683-1.45-6.9-1.4-7.1-1.2
				c-0.233,0.233-0.167,0.333,0.2,0.3c0.233,0,0.433-0.05,0.6-0.15C-6.167-1.217-6.217-1.317-6.45-1.35z M-7.85,0
				c1.067,0.1,1.333-0.033,0.8-0.4c-0.333-0.2-0.733-0.2-1.2,0C-8.75-0.2-8.617-0.067-7.85,0z M-9.4-0.7
				c-0.2-0.1-0.45-0.05-0.75,0.15c-0.3,0.133-0.233,0.233,0.2,0.3c0.2,0.067,0.4,0.033,0.6-0.1C-9.183-0.517-9.2-0.633-9.4-0.7z
				 M-11.95-0.35c-0.367-0.066-0.617-0.017-0.75,0.15c-0.1,0.233,0.017,0.367,0.35,0.4c0.2,0.033,0.417-0.034,0.65-0.2
				C-11.567-0.167-11.65-0.283-11.95-0.35z M-13.15-0.05c0.2,0,0.35-0.1,0.45-0.3c0.1-0.167,0.017-0.25-0.25-0.25
				c-0.367,0-0.6,0.083-0.7,0.25C-13.783-0.117-13.617-0.017-13.15-0.05z"/>
			<path style="fill-rule:evenodd;clip-rule:evenodd;fill:#F7F7F7;" d="M0.15,6.5V4.9c-0.133,0-0.25,0-0.35,0
				c-0.267,0-0.517,0.05-0.75,0.15c-0.633,0.2-1.15,0.267-1.55,0.2c-0.633,0-1.2,0.033-1.7,0.1c-0.066,0-0.133,0-0.2,0
				c-0.533,0.066-1,0.017-1.4-0.15C-5.933,5.133-6.05,5.067-6.15,5C-6.417,4.967-6.6,4.9-6.7,4.8c-0.233-0.066-0.45-0.1-0.65-0.1
				C-7.517,4.667-7.667,4.633-7.8,4.6c-0.434-0.067-0.817-0.15-1.15-0.25c-0.2-0.067-0.35-0.067-0.45,0
				c-0.5,0.2-0.267,0.483,0.7,0.85c0.034,0,0.083,0.017,0.15,0.05C-7.917,5.483-7.033,5.7-5.9,5.9c0.433,0.067,0.917,0.133,1.45,0.2
				c0.9,0.133,1.883,0.25,2.95,0.35C-1.067,6.483-0.633,6.5-0.2,6.5C-0.067,6.533,0.05,6.533,0.15,6.5z M-12.05,4.05
				c-0.2-0.033-0.35-0.033-0.45,0c-0.1,0.067-0.2,0.083-0.3,0.05c0.033,0.267,0.5,0.45,1.4,0.55C-11.133,4.683-11,4.633-11,4.5
				c-0.033-0.1-0.2-0.217-0.5-0.35c-0.067,0-0.133-0.017-0.2-0.05C-11.867,4.067-11.983,4.05-12.05,4.05z M-14.35,3.9
				c0.033,0,0.05-0.033,0.05-0.1c0.1-0.133-0.017-0.233-0.35-0.3c-0.033,0-0.067-0.017-0.1-0.05c-0.333-0.1-0.567-0.1-0.7,0
				c-0.2,0.033,0,0.15,0.6,0.35C-14.617,3.9-14.45,3.933-14.35,3.9z"/>
			<linearGradient id="SVGID_2_" gradientUnits="userSpaceOnUse" x1="-17.1387" y1="3.397" x2="-18.2637" y2="4.822">
				<stop  offset="0" style="stop-color:#3B3B3B"/>
				<stop  offset="1" style="stop-color:#919191"/>
			</linearGradient>
			<path style="fill-rule:evenodd;clip-rule:evenodd;fill:url(#SVGID_2_);" d="M-14.05,4.55c-1.233-0.4-2.85-0.95-4.85-1.65
				c-0.567-0.2-1.05-0.367-1.45-0.5c0,0.067,0.083,0.15,0.25,0.25c-0.267-0.066-0.35-0.033-0.25,0.1c0,0.067,0.184,0.167,0.55,0.3
				l0.5,0.2c-0.267,0-0.267,0.083,0,0.25c0.167,0.1,0.383,0.15,0.65,0.15h0.15c-0.067,0.1,0.183,0.25,0.75,0.45
				c0.433,0.2,1.117,0.35,2.05,0.45C-15,4.617-14.45,4.617-14.05,4.55z"/>
			<path style="fill-rule:evenodd;clip-rule:evenodd;fill:#C68484;" d="M-21.65-0.95c0.333-0.133,0.7-0.3,1.1-0.5
				c0.9-0.466,2.267-1.1,4.1-1.9c1.833-0.767,3.717-1.417,5.65-1.95C-8.9-5.833-6.967-6.183-5-6.35c1.7-0.133,3.417-0.2,5.15-0.2
				v-0.8c-0.5,0.033-1,0.05-1.5,0.05C-4.683-7.267-7.5-6.9-9.8-6.2c-1.867,0.534-4.4,1.483-7.6,2.85c-0.6,0.267-1.15,0.5-1.65,0.7
				h-0.05c-0.5,0.3-1.3,0.833-2.4,1.6C-21.567-1.017-21.617-0.983-21.65-0.95z"/>
			<linearGradient id="SVGID_3_" gradientUnits="userSpaceOnUse" x1="-18.0845" y1="-1.6211" x2="-23.3093" y2="-2.3227">
				<stop  offset="0" style="stop-color:#3B3B3B"/>
				<stop  offset="1" style="stop-color:#A1A1A1"/>
			</linearGradient>
			<path style="fill-rule:evenodd;clip-rule:evenodd;fill:url(#SVGID_3_);" d="M-22.65-0.65h0.05c0.167,0,0.333-0.033,0.5-0.1
				c0.133-0.033,0.283-0.1,0.45-0.2c0.033-0.033,0.083-0.066,0.15-0.1c1.1-0.767,1.9-1.3,2.4-1.6h0.05c0.1-0.067,0.2-0.117,0.3-0.15
				l0.9-0.4h-0.05l-0.8,0.15c-0.633,0.167-1.15,0.233-1.55,0.2c-0.833,0-1.267,0.067-1.3,0.2L-21.7-2.5l-0.15-0.05
				c-0.1,0.033-0.233,0.1-0.4,0.2c-0.2,0.167-0.267,0.333-0.2,0.5c-0.066-0.033-0.117-0.066-0.15-0.1c-0.2-0.133-0.367-0.1-0.5,0.1
				c-0.1,0.2-0.15,0.367-0.15,0.5l0.15,0.15c-0.233-0.066-0.367-0.066-0.4,0v0.05c0,0.033,0.017,0.066,0.05,0.1
				c0,0.033,0.017,0.066,0.05,0.1C-23.167-0.717-22.917-0.617-22.65-0.65z"/>
			<path style="fill-rule:evenodd;clip-rule:evenodd;fill:#CC9191;" d="M0.15-6.55c-1.733,0-3.45,0.066-5.15,0.2
				c-1.967,0.167-3.9,0.517-5.8,1.05c-1.934,0.533-3.817,1.183-5.65,1.95c-1.833,0.8-3.2,1.434-4.1,1.9
				c-0.4,0.2-0.767,0.367-1.1,0.5c-0.167,0.1-0.317,0.167-0.45,0.2c0.934-0.1,1.85-0.333,2.75-0.7c0.934-0.367,2.6-1.017,5-1.95
				c2.4-0.934,4.8-1.55,7.2-1.85c1.867-0.233,4.3-0.317,7.3-0.25V-6.55z"/>
		</g>
	</g>
</symbol>
<symbol  id="body" viewBox="-21.776 -7.45 45.247 16.317">
	<g id="fin2_1_">
		
			<use xlink:href="#fin2"  width="7.75" height="1.917" x="-3.85" transform="matrix(1 0 0 1 -0.0498 6.9502)" style="overflow:visible;"/>
	</g>
	<g id="back_1_">
		
			<use xlink:href="#back"  width="23.65" height="14.85" x="-23.5" y="-7.45" transform="matrix(0.9287 0 0 1 0.0498 0)" style="overflow:visible;"/>
	</g>
	<g id="front_1_">
		
			<use xlink:href="#front"  width="23.547" height="14.85" x="0.025" y="-7.45" transform="matrix(1 0 0 1 -0.1001 0)" style="overflow:visible;"/>
	</g>
	<g id="fin_1_">
		
			<use xlink:href="#fin"  width="6.203" height="3.2" x="-6.2" y="-3.2" transform="matrix(1 0 0 1 3.7998 -3.2002)" style="overflow:visible;"/>
	</g>
</symbol>
<symbol  id="butterfly_1_" viewBox="-24.099 -7.894 52.51 17.508">
	<g id="Layer_3_1_">
		
			<use xlink:href="#body"  width="45.247" height="16.317" x="-21.776" y="-7.45" transform="matrix(0.9505 0 0 1.073 6.1001 0.1006)" style="overflow:visible;"/>
	</g>
	<g id="Layer_2_2_">
		
			<use xlink:href="#tail"  width="11.2" height="9.578" x="-11.2" y="-4.778" transform="matrix(0.9776 0 0 1.29 -13.1499 0.8506)" style="overflow:visible;"/>
	</g>
	<g id="final_1_">
	</g>
	<g id="side_1_">
	</g>
</symbol>
<symbol  id="fin" viewBox="-6.2 -3.2 6.203 3.2">
	<g id="Layer_1_2_">
		<g>
			<g>
				<path style="fill-rule:evenodd;clip-rule:evenodd;fill-opacity:0.2;" d="M-0.3-0.3c0.267,0.066,0.35-0.034,0.25-0.3
					c-0.067-0.267-0.233-0.566-0.5-0.9C-0.783-1.8-1.267-2.117-2-2.45c-0.567-0.267-1.05-0.433-1.45-0.5l-1-0.25
					c0.067,0.133,0.117,0.25,0.15,0.35c0.033,0.233-0.05,0.417-0.25,0.55c-0.034,0.033-0.267,0.167-0.7,0.4
					c-0.233,0.1-0.4,0.217-0.5,0.35c-0.167,0.267-0.233,0.466-0.2,0.6c1.267-0.233,2.267-0.3,3-0.2C-2.183-1.05-1.3-0.767-0.3-0.3z"
					/>
			</g>
			<g>
				<g>
					<linearGradient id="SVGID_4_" gradientUnits="userSpaceOnUse" x1="0.5649" y1="-1.9849" x2="-6.9601" y2="-0.6849">
						<stop  offset="0" style="stop-color:#3D3D3D"/>
						<stop  offset="1" style="stop-color:#C7C7C7"/>
					</linearGradient>
					<path style="fill-rule:evenodd;clip-rule:evenodd;fill:url(#SVGID_4_);" d="M-2.2-0.3c0.7,0.1,1.15,0.183,1.35,0.25
						c0.434,0.1,0.7,0.033,0.8-0.2c0.1-0.267-0.083-0.6-0.55-1c-1-0.9-2.033-1.417-3.1-1.55l-0.9-0.1c0.2,0.033,0.35,0.1,0.45,0.2
						c0.233,0.233,0.033,0.5-0.6,0.8C-5.65-1.433-6.133-1-6.2-0.6c0.8-0.167,1.567-0.167,2.3,0C-3.533-0.5-2.967-0.4-2.2-0.3z"/>
				</g>
				<g>
					<path style="fill-rule:evenodd;clip-rule:evenodd;fill:#454545;" d="M-0.45,0c0.2-0.033,0.317-0.05,0.35-0.05
						c0-0.034,0.033-0.133,0.1-0.3c0.033-0.133-0.233-0.533-0.8-1.2L-1.15-1.9l0.35,0.5l-0.7-0.4
						c-0.367-0.167-0.717-0.217-1.05-0.15c0.3,0.067,0.65,0.167,1.05,0.3c0.3,0.133,0.467,0.3,0.5,0.5l0.1,0.25l-0.45-0.2
						C-1.683-1.233-2-1.35-2.3-1.45C-2.833-1.55-3.4-1.567-4-1.5l0.45,0.05c0.8,0.1,1.433,0.25,1.9,0.45
						c0.233,0.133,0.4,0.25,0.5,0.35l0.05,0.1L-2.65-0.9C-3.083-0.967-3.733-0.983-4.6-0.95C-4-0.883-3.45-0.8-2.95-0.7
						c0.934,0.067,1.5,0.167,1.7,0.3C-0.917-0.167-1.167-0.183-2-0.45c-0.2,0-0.5,0.017-0.9,0.05c0.4,0.066,0.833,0.15,1.3,0.25
						C-0.967-0.05-0.583,0-0.45,0z"/>
				</g>
			</g>
		</g>
	</g>
</symbol>
<symbol  id="fin2" viewBox="-3.85 0 7.75 1.917">
	<g id="Layer_1_5_">
		<g>
			<linearGradient id="SVGID_5_" gradientUnits="userSpaceOnUse" x1="1.7373" y1="-0.2241" x2="-4.1377" y2="1.9009">
				<stop  offset="0" style="stop-color:#454545"/>
				<stop  offset="1" style="stop-color:#BABABA"/>
			</linearGradient>
			<path style="fill-rule:evenodd;clip-rule:evenodd;fill:url(#SVGID_5_);" d="M0,1.85C0.733,1.717,1.333,1.567,1.8,1.4
				C2.5,1.1,3.2,0.633,3.9,0C1.967,0.4-0.233,0.5-2.7,0.3c-0.4-0.033-0.783-0.083-1.15-0.15c0.133,0.067,0.3,0.15,0.5,0.25
				l0.05,0.15c0.066,0.067,0.233,0.133,0.5,0.2l0.35,0.1L-2.4,1.1c0.033,0.167,0.233,0.283,0.6,0.35l-0.1,0.1
				C-2.133,1.717-1.983,1.833-1.45,1.9C-1.117,1.933-0.633,1.917,0,1.85z"/>
		</g>
	</g>
</symbol>
<symbol  id="front" viewBox="0.025 -7.45 23.547 14.85">
	<g id="Layer_1_3_">
		<g>
			<path style="fill-rule:evenodd;clip-rule:evenodd;fill:#595959;" d="M23.1,0.55c-0.033,0.2-0.1,0.367-0.2,0.5l-0.05,0.1
				c-0.1,0.1-0.25,0.2-0.45,0.3c-1.033,0.566-3.033,1.117-6,1.65c-0.933,0.167-1.833,0.25-2.7,0.25c-0.6,0.2-1.733,0.6-3.4,1.2
				C8.3,5.317,6.4,5.9,4.6,6.3L0.4,6.85c-0.066,0.033-0.15,0.033-0.25,0V7.4C1.517,7.367,2.783,7.233,3.95,7
				C4.083,6.967,4.233,6.933,4.4,6.9c2.233-0.533,5.25-1.483,9.05-2.85c0.566-0.133,1.3-0.267,2.2-0.4
				c1.533-0.233,2.633-0.467,3.3-0.7c1.933-0.5,3.083-0.85,3.45-1.05c1.033-0.467,1.383-1.066,1.05-1.8
				c-0.333-0.7-0.85-1.267-1.55-1.7c-0.066-0.066-0.133-0.117-0.2-0.15l0.3,0.5l0.15,0.15c0.667,0.567,1,1.1,1,1.6L23.1,0.55z"/>
			<path style="fill-rule:evenodd;clip-rule:evenodd;fill:#969696;" d="M13.7,3.35c-0.6-0.033-1.167-0.1-1.7-0.2
				c-0.033,0.067-0.083,0.15-0.15,0.25c-0.167,0.333-0.5,0.483-1,0.45c-0.8,0-1-0.15-0.6-0.45c0.2-0.233,0.45-0.383,0.75-0.45
				c-0.2-0.067-0.383-0.133-0.55-0.2C10.217,2.983,9.967,3.1,9.7,3.1c-0.833,0.1-1.05,0-0.65-0.3C9.283,2.667,9.5,2.567,9.7,2.5
				C9.6,2.467,9.5,2.417,9.4,2.35C9.267,2.383,9.133,2.417,9,2.45l-0.95,0.2c-0.3,0.067-0.583,0.133-0.85,0.2
				C6.933,2.917,6.683,2.967,6.45,3c-0.8,0.2-1.633,0.4-2.5,0.6c-0.167,0.033-0.333,0.05-0.5,0.05c-0.1,0.033-0.217,0.067-0.35,0.1
				c-1,0.167-1.983,0.283-2.95,0.35v0.55c0.067,0.067,0.1,0.15,0.1,0.25C0.483,4.967,0.733,5.05,1,5.15S1.533,5.333,1.8,5.4
				c0.034-0.033,0.067-0.05,0.1-0.05c0.3-0.133,0.633-0.217,1-0.25l1.95-0.15c0.333-0.034,0.667-0.034,1,0c0.133,0,0.233,0,0.3,0
				c0.567,0,0.767,0.066,0.6,0.2H6.8C7.2,5.25,6.833,5.5,5.7,5.9C5.133,6.033,4.317,6.133,3.25,6.2
				c-1.033,0.233-2.067,0.333-3.1,0.3v0.35c0.1,0.033,0.184,0.033,0.25,0L4.6,6.3c1.8-0.4,3.7-0.983,5.7-1.75
				C11.967,3.95,13.1,3.55,13.7,3.35z M4.95,4.5C4.35,4.6,4.233,4.483,4.6,4.15c0.3-0.267,0.7-0.333,1.2-0.2
				c0.5,0.1,0.6,0.2,0.3,0.3C5.967,4.283,5.583,4.367,4.95,4.5z M0.9,4.45c0.5-0.2,1-0.267,1.5-0.2C2.833,4.35,2.95,4.5,2.75,4.7
				C2.45,4.867,2.033,4.933,1.5,4.9C0.6,4.8,0.4,4.65,0.9,4.45z M8.55,3.7C8.883,3.567,9.267,3.55,9.7,3.65
				c0.566,0.133,0.683,0.333,0.35,0.6C9.65,4.517,9.117,4.6,8.45,4.5C8.383,4.467,8.333,4.45,8.3,4.45
				C7.933,4.55,7.583,4.6,7.25,4.6c-0.3,0.033-0.5-0.033-0.6-0.2C6.517,4.267,6.6,4.133,6.9,4C7.633,3.767,8.183,3.667,8.55,3.7z"/>
			<path style="fill-rule:evenodd;clip-rule:evenodd;fill:#F7F7F7;" d="M0.15,4.9v1.6c1.033,0.033,2.067-0.067,3.1-0.3
				c0.833-0.133,1.667-0.35,2.5-0.65c0.567-0.167,0.9-0.3,1-0.4c0.167-0.133-0.033-0.2-0.6-0.2c-0.066,0-0.167,0-0.3,0
				c-0.233,0.033-0.533,0.1-0.9,0.2C4.417,4.983,3.683,5.067,2.75,5.4c-0.267,0.1-0.583,0.1-0.95,0C1.533,5.333,1.267,5.25,1,5.15
				S0.483,4.967,0.25,4.9C0.217,4.9,0.183,4.9,0.15,4.9z M8.3,4.45c0.034,0,0.083,0.017,0.15,0.05c0.667,0.1,1.2,0.017,1.6-0.25
				c0.333-0.267,0.217-0.467-0.35-0.6C9.267,3.55,8.883,3.567,8.55,3.7c-0.133,0.033-0.267,0.1-0.4,0.2
				C7.817,4.1,7.867,4.283,8.3,4.45z"/>
			<path style="fill-rule:evenodd;clip-rule:evenodd;fill:#737373;" d="M6.75,5.15c-0.1,0.1-0.433,0.233-1,0.4
				c-0.833,0.3-1.667,0.517-2.5,0.65C4.317,6.133,5.133,6.033,5.7,5.9c1.133-0.4,1.5-0.65,1.1-0.75H6.75z M1.8,5.4
				c0.367,0.1,0.684,0.1,0.95,0c0.933-0.333,1.667-0.417,2.2-0.25c0.367-0.1,0.667-0.167,0.9-0.2c-0.333-0.034-0.667-0.034-1,0
				L2.9,5.1c-0.367,0.033-0.7,0.117-1,0.25C1.867,5.35,1.833,5.367,1.8,5.4z M0.15,4.65V4.9c0.033,0,0.067,0,0.1,0
				C0.25,4.8,0.217,4.717,0.15,4.65z M11,2.95c-0.3,0.066-0.55,0.216-0.75,0.45c-0.4,0.3-0.2,0.45,0.6,0.45
				c0.5,0.033,0.833-0.117,1-0.45c0.066-0.1,0.117-0.183,0.15-0.25C11.633,3.117,11.3,3.05,11,2.95z M10.45,2.75
				C10.183,2.683,9.933,2.6,9.7,2.5C9.5,2.567,9.283,2.667,9.05,2.8C8.65,3.1,8.867,3.2,9.7,3.1C9.967,3.1,10.217,2.983,10.45,2.75z
				 M4.95,4.5C5.583,4.367,5.967,4.283,6.1,4.25c0.3-0.1,0.2-0.2-0.3-0.3c-0.5-0.133-0.9-0.067-1.2,0.2
				C4.233,4.483,4.35,4.6,4.95,4.5z M0.9,4.45C0.4,4.65,0.6,4.8,1.5,4.9c0.533,0.033,0.95-0.033,1.25-0.2
				c0.2-0.2,0.083-0.35-0.35-0.45C1.9,4.183,1.4,4.25,0.9,4.45z M8.55,3.7C8.183,3.667,7.633,3.767,6.9,4
				C6.6,4.133,6.517,4.267,6.65,4.4c0.1,0.167,0.3,0.233,0.6,0.2c0.333,0,0.683-0.05,1.05-0.15C7.867,4.283,7.817,4.1,8.15,3.9
				C8.283,3.8,8.417,3.733,8.55,3.7z"/>
			<linearGradient id="SVGID_6_" gradientUnits="userSpaceOnUse" x1="9.9438" y1="-8.8306" x2="10.9439" y2="6.3194">
				<stop  offset="0" style="stop-color:#CF8D8D"/>
				<stop  offset="0.1765" style="stop-color:#CA9E9E"/>
				<stop  offset="0.4314" style="stop-color:#C4B0B0"/>
				<stop  offset="0.702" style="stop-color:#C0BBBB"/>
				<stop  offset="1" style="stop-color:#BFBFBF"/>
			</linearGradient>
			<path style="fill-rule:evenodd;clip-rule:evenodd;fill:url(#SVGID_6_);" d="M3.75,1.3C3.317,1.2,3.2,1.067,3.4,0.9
				c0.167-0.167,0.434-0.217,0.8-0.15c0.267,0.067,0.333,0.2,0.2,0.4C4.233,1.317,4.017,1.367,3.75,1.3z M3.75,2.2
				c-0.067,0.066-0.2,0.1-0.4,0.1c-0.4-0.1-0.5-0.216-0.3-0.35c0.133-0.167,0.333-0.184,0.6-0.05C3.883,2,3.917,2.1,3.75,2.2z
				 M0.15,2.5L1.5,2.65C2.367,2.85,3.183,2.9,3.95,2.8c1-0.1,1.333-0.017,1,0.25c-0.3,0.267-0.8,0.467-1.5,0.6
				c0.167,0,0.333-0.017,0.5-0.05c0.867-0.2,1.7-0.4,2.5-0.6C6.35,3,6.267,3,6.2,3C5.6,2.9,5.517,2.767,5.95,2.6
				c0.4-0.2,0.783-0.267,1.15-0.2c0.333,0.033,0.383,0.167,0.15,0.4L7.2,2.85c0.267-0.067,0.55-0.133,0.85-0.2L9,2.45
				c0.133-0.034,0.267-0.067,0.4-0.1c-0.233-0.1-0.45-0.2-0.65-0.3C6.617,0.883,5.467-0.517,5.3-2.15
				c-0.1-0.367-0.133-0.733-0.1-1.1C5.233-3.617,5.317-3.933,5.45-4.2l0.2-0.3l0.1-0.075C5.962-4.779,6.229-4.954,6.55-5.1
				c-0.5-0.033-1.033-0.066-1.6-0.1c-1.733-0.133-3.333-0.233-4.8-0.3v3.8c0.3-0.2,0.517-0.216,0.65-0.05
				C1.1-1.45,0.95-1.3,0.35-1.3c-0.067,0-0.133-0.017-0.2-0.05v0.65c0.167-0.066,0.383-0.066,0.65,0
				c0.434,0.067,0.567,0.217,0.4,0.45c-0.133,0.233-0.383,0.333-0.75,0.3c-0.133-0.033-0.233-0.066-0.3-0.1V0.6
				c0.033,0.033,0.067,0.05,0.1,0.05C0.417,0.717,0.467,0.833,0.4,1C0.333,1.133,0.25,1.217,0.15,1.25v0.1
				c0.1,0.066,0.117,0.167,0.05,0.3c0,0.033-0.017,0.067-0.05,0.1V2.5z M6.05,1.9C5.683,1.833,5.633,1.733,5.9,1.6
				c0.267-0.2,0.5-0.25,0.7-0.15C6.8,1.483,6.817,1.567,6.65,1.7C6.483,1.867,6.283,1.933,6.05,1.9z M1.85,1.2
				C1.65,1.167,1.667,1.067,1.9,0.9c0.233-0.133,0.45-0.15,0.65-0.05C2.783,0.983,2.8,1.1,2.6,1.2C2.433,1.233,2.183,1.233,1.85,1.2
				z M2.9,0.1C2.8,0.4,2.617,0.533,2.35,0.5C1.883,0.4,1.7,0.217,1.8-0.05c0.1-0.233,0.35-0.333,0.75-0.3
				C2.917-0.317,3.033-0.167,2.9,0.1z M0.15-7.35c2.934,0.033,5.817,0.333,8.65,0.9c4.567,0.867,7.983,2,10.25,3.4
				c0.067,0.033,0.117,0.066,0.15,0.1l0.1,0.05c0.667,0.433,1.217,0.816,1.65,1.15V-1.8c-0.467-0.434-1.067-0.883-1.8-1.35
				C16.883-4.55,13.467-5.7,8.9-6.6C6.033-7.133,3.117-7.417,0.15-7.45V-7.35z M2.5-1.05c-0.433-0.133-0.65-0.267-0.65-0.4
				c0.033-0.2,0.25-0.267,0.65-0.2C2.867-1.617,3-1.5,2.9-1.3C2.8-1.1,2.667-1.017,2.5-1.05z M2.95-1.6
				C2.75-1.733,2.7-1.833,2.8-1.9c0.267,0,0.567-0.033,0.9-0.1c0.367-0.033,0.566-0.2,0.6-0.5c0.067-0.133,0.083-0.25,0.05-0.35
				c0.3,0.434,0.333,0.817,0.1,1.15C4.383-1.6,4.167-1.533,3.8-1.5C3.467-1.433,3.183-1.467,2.95-1.6z M4.55-0.05
				C4.417-0.017,4.233-0.017,4-0.05C3.6-0.083,3.517-0.2,3.75-0.4c0.233-0.167,0.467-0.184,0.7-0.05
				C4.683-0.317,4.717-0.183,4.55-0.05z"/>
			<path style="fill-rule:evenodd;clip-rule:evenodd;fill:#F1FCED;" d="M0.15,2.5v1.6C1.117,4.033,2.1,3.917,3.1,3.75
				c0.133-0.033,0.25-0.067,0.35-0.1c0.7-0.133,1.2-0.333,1.5-0.6c0.333-0.267,0-0.35-1-0.25C3.183,2.9,2.367,2.85,1.5,2.65
				L0.15,2.5z M3.75,2.2C3.917,2.1,3.883,2,3.65,1.9c-0.267-0.133-0.467-0.117-0.6,0.05c-0.2,0.133-0.1,0.25,0.3,0.35
				C3.55,2.3,3.683,2.267,3.75,2.2z M3.75,1.3C4.017,1.367,4.233,1.317,4.4,1.15c0.133-0.2,0.067-0.333-0.2-0.4
				C3.833,0.683,3.567,0.733,3.4,0.9C3.2,1.067,3.317,1.2,3.75,1.3z M6.45,3C6.683,2.967,6.933,2.917,7.2,2.85L7.25,2.8
				C7.483,2.567,7.433,2.433,7.1,2.4c-0.367-0.066-0.75,0-1.15,0.2C5.517,2.767,5.6,2.9,6.2,3C6.267,3,6.35,3,6.45,3z M6.05,1.9
				c0.233,0.033,0.434-0.033,0.6-0.2C6.817,1.567,6.8,1.483,6.6,1.45C6.4,1.35,6.167,1.4,5.9,1.6C5.633,1.733,5.683,1.833,6.05,1.9z
				 M0.15,1.35v0.4C0.183,1.717,0.2,1.683,0.2,1.65C0.267,1.517,0.25,1.417,0.15,1.35z M0.15,0.6v0.65C0.25,1.217,0.333,1.133,0.4,1
				c0.067-0.167,0.017-0.283-0.15-0.35C0.217,0.65,0.183,0.633,0.15,0.6z M0.15-0.7v0.65c0.067,0.033,0.167,0.066,0.3,0.1
				c0.367,0.034,0.617-0.066,0.75-0.3C1.367-0.483,1.233-0.633,0.8-0.7C0.533-0.767,0.317-0.767,0.15-0.7z M0.15-1.7
				c-0.167,0.167-0.167,0.284,0,0.35C0.217-1.317,0.283-1.3,0.35-1.3c0.6,0,0.75-0.15,0.45-0.45C0.667-1.917,0.45-1.9,0.15-1.7z
				 M1.85,1.2c0.333,0.033,0.583,0.033,0.75,0c0.2-0.1,0.183-0.217-0.05-0.35C2.35,0.75,2.133,0.767,1.9,0.9
				C1.667,1.067,1.65,1.167,1.85,1.2z M2.9,0.1c0.133-0.267,0.017-0.417-0.35-0.45C2.15-0.383,1.9-0.283,1.8-0.05
				C1.7,0.217,1.883,0.4,2.35,0.5C2.617,0.533,2.8,0.4,2.9,0.1z M4.55-0.05c0.167-0.133,0.133-0.267-0.1-0.4
				C4.217-0.583,3.983-0.567,3.75-0.4C3.517-0.2,3.6-0.083,4-0.05C4.233-0.017,4.417-0.017,4.55-0.05z M2.95-1.6
				C3.183-1.467,3.467-1.433,3.8-1.5c0.367-0.033,0.583-0.1,0.65-0.2c0.233-0.333,0.2-0.716-0.1-1.15
				C4.383-2.75,4.367-2.633,4.3-2.5C4.267-2.2,4.067-2.033,3.7-2C3.367-1.933,3.067-1.9,2.8-1.9C2.7-1.833,2.75-1.733,2.95-1.6z
				 M2.5-1.05C2.667-1.017,2.8-1.1,2.9-1.3C3-1.5,2.867-1.617,2.5-1.65c-0.4-0.067-0.617,0-0.65,0.2
				C1.85-1.317,2.067-1.183,2.5-1.05z"/>
			<linearGradient id="SVGID_7_" gradientUnits="userSpaceOnUse" x1="19.8701" y1="-1.8984" x2="9.7451" y2="-8.9484">
				<stop  offset="0" style="stop-color:#878787"/>
				<stop  offset="0" style="stop-color:#878787"/>
				<stop  offset="0.1882" style="stop-color:#A8A8A8"/>
				<stop  offset="0.3765" style="stop-color:#C2C2C2"/>
				<stop  offset="0.5725" style="stop-color:#D4D4D4"/>
				<stop  offset="0.7765" style="stop-color:#DFDFDF"/>
				<stop  offset="1" style="stop-color:#E3E3E3"/>
			</linearGradient>
			<path style="fill-rule:evenodd;clip-rule:evenodd;fill:url(#SVGID_7_);" d="M23.1,0.55L22.9,1v0.05
				C23,0.917,23.067,0.75,23.1,0.55z M21-1.85c0,0.067,0.067,0.184,0.2,0.35c-0.034-0.133-0.083-0.267-0.15-0.4L21-1.95L20.9-2
				C20.933-1.933,20.967-1.883,21-1.85z"/>
			<path style="fill-rule:evenodd;clip-rule:evenodd;fill:#5C5C5C;" d="M22-1.25l-0.95-1.5c0,0.3-0.017,0.55-0.05,0.75L22-1.25z"/>
			<path style="fill-rule:evenodd;clip-rule:evenodd;fill:#C68484;" d="M0.15-6.55c0.333,0.033,0.667,0.05,1,0.05
				C3.217-6.4,5.033-6.25,6.6-6.05c1.566,0.2,3.367,0.566,5.4,1.1c2.033,0.567,3.783,1.284,5.25,2.15c0.4,0.233,0.8,0.45,1.2,0.65
				c0.033-0.033,0.066-0.05,0.1-0.05c0.2,0.167,0.4,0.317,0.6,0.45c0.2,0.133,0.4,0.267,0.6,0.4c0.533,0.1,0.883,0.067,1.05-0.1
				c0.067-0.066,0.117-0.167,0.15-0.3c-0.434-0.333-0.983-0.717-1.65-1.15l-0.1-0.05c-0.034-0.033-0.083-0.066-0.15-0.1
				c-2.267-1.4-5.683-2.534-10.25-3.4c-2.833-0.566-5.716-0.867-8.65-0.9V-6.55z"/>
			<path style="fill-rule:evenodd;clip-rule:evenodd;fill:#CC9191;" d="M6.55-5.1c0.034,0,0.067,0,0.1,0
				c0.667-0.233,1.567-0.3,2.7-0.2c2.066,0.267,4.15,0.917,6.25,1.95c1.833,1.133,3,1.767,3.5,1.9c0.233,0.067,0.45,0.1,0.65,0.1
				c-0.2-0.133-0.4-0.267-0.6-0.4c-0.2-0.133-0.4-0.283-0.6-0.45c-0.033,0-0.066,0.017-0.1,0.05c-0.4-0.2-0.8-0.417-1.2-0.65
				C15.783-3.667,14.033-4.383,12-4.95c-2.033-0.533-3.833-0.9-5.4-1.1C5.033-6.25,3.217-6.4,1.15-6.5c-0.333,0-0.667-0.017-1-0.05
				v1.05c1.467,0.067,3.067,0.167,4.8,0.3C5.517-5.167,6.05-5.133,6.55-5.1z"/>
			<g>
				<linearGradient id="SVGID_8_" gradientUnits="userSpaceOnUse" x1="16.7373" y1="2.6011" x2="6.6123" y2="-4.4489">
					<stop  offset="0" style="stop-color:#878787"/>
					<stop  offset="0" style="stop-color:#878787"/>
					<stop  offset="0.1882" style="stop-color:#A8A8A8"/>
					<stop  offset="0.3765" style="stop-color:#C2C2C2"/>
					<stop  offset="0.5725" style="stop-color:#D4D4D4"/>
					<stop  offset="0.7765" style="stop-color:#DFDFDF"/>
					<stop  offset="1" style="stop-color:#E3E3E3"/>
				</linearGradient>
				<path style="fill-rule:evenodd;clip-rule:evenodd;fill:url(#SVGID_8_);" d="M8.55,0.55c0.333,0.167,0.467,0.284,0.4,0.35
					C8.883,1,8.683,1.017,8.35,0.95C7.883,0.783,7.7,0.633,7.8,0.5C7.933,0.4,8.183,0.417,8.55,0.55z M9.05-4l-0.7-0.1
					C6.183-4.167,5.167-3.533,5.3-2.2v0.05c0.167,1.633,1.317,3.033,3.45,4.2c0.2,0.1,0.417,0.2,0.65,0.3
					C9.5,2.417,9.6,2.467,9.7,2.5c0.233,0.1,0.483,0.183,0.75,0.25c0.167,0.067,0.35,0.133,0.55,0.2c0.3,0.1,0.633,0.167,1,0.2
					c0.533,0.1,1.1,0.167,1.7,0.2c0.867,0,1.767-0.083,2.7-0.25c2.967-0.533,4.967-1.083,6-1.65c-0.066,0-0.133,0.017-0.2,0.05
					c-0.567,0.1-1.317-0.05-2.25-0.45c-0.267-0.1-0.567-0.233-0.9-0.4c-1-0.533-2.367-1.35-4.1-2.45c-1.567-0.867-3.233-1.55-5-2.05
					L8.95-4C8.983-4,9.017-4,9.05-4z M12.5,1.7c-0.433-0.2-0.683-0.55-0.75-1.05c-0.067-0.533,0.067-0.983,0.4-1.35
					c0.4-0.4,0.983-0.483,1.75-0.25l-1.1,0.7C12.267,0.117,12.167,0.767,12.5,1.7z M14.7,2.6c-0.633-0.333-1.05-0.6-1.25-0.8
					c-0.034-0.033-0.067-0.083-0.1-0.15c-0.367-0.367-0.417-0.816-0.15-1.35c0.167-0.433,0.583-0.7,1.25-0.8
					C15.183-0.567,16-0.333,16.9,0.2c0.667,0.4,1.117,0.767,1.35,1.1c0.3,0.5,0.2,0.95-0.3,1.35c-0.233,0.2-0.733,0.283-1.5,0.25
					C15.75,2.9,15.167,2.8,14.7,2.6z M7.15-0.65C7.383-0.55,7.5-0.433,7.5-0.3C7.467-0.167,7.35-0.133,7.15-0.2
					C6.817-0.3,6.667-0.433,6.7-0.6C6.7-0.733,6.85-0.75,7.15-0.65z M9.6-0.1c-0.733-0.1-1.067-0.383-1-0.85
					c0-0.433,0.267-0.566,0.8-0.4c0.434,0.133,0.617,0.383,0.55,0.75C9.95-0.233,9.833-0.067,9.6-0.1z M8.6-2.1
					C8.4-1.8,8.183-1.7,7.95-1.8C7.35-1.967,7.167-2.167,7.4-2.4c0.267-0.233,0.6-0.283,1-0.15C8.7-2.483,8.767-2.333,8.6-2.1z
					 M11.25-1.55c0.2,0.2,0.15,0.3-0.15,0.3c-0.367,0-0.617-0.117-0.75-0.35c-0.167-0.233-0.1-0.316,0.2-0.25
					C10.817-1.817,11.05-1.717,11.25-1.55z"/>
				<path style="fill-rule:evenodd;clip-rule:evenodd;fill:#F1FCED;" d="M8.55,0.55C8.183,0.417,7.933,0.4,7.8,0.5
					C7.7,0.633,7.883,0.783,8.35,0.95C8.683,1.017,8.883,1,8.95,0.9C9.017,0.833,8.883,0.717,8.55,0.55z M11.25-1.55
					c-0.2-0.167-0.433-0.267-0.7-0.3c-0.3-0.066-0.367,0.017-0.2,0.25c0.133,0.233,0.383,0.35,0.75,0.35
					C11.4-1.25,11.45-1.35,11.25-1.55z M8.6-2.1c0.167-0.233,0.1-0.383-0.2-0.45C8-2.683,7.667-2.633,7.4-2.4
					C7.167-2.167,7.35-1.967,7.95-1.8C8.183-1.7,8.4-1.8,8.6-2.1z M9.6-0.1c0.233,0.033,0.35-0.133,0.35-0.5
					c0.066-0.367-0.117-0.617-0.55-0.75c-0.533-0.167-0.8-0.033-0.8,0.4C8.533-0.483,8.867-0.2,9.6-0.1z M7.15-0.65
					C6.85-0.75,6.7-0.733,6.7-0.6C6.667-0.433,6.817-0.3,7.15-0.2c0.2,0.067,0.317,0.034,0.35-0.1C7.5-0.433,7.383-0.55,7.15-0.65z"
					/>
				<path style="fill-rule:evenodd;clip-rule:evenodd;fill:#9E9E9E;" d="M12.5,1.7c-0.333-0.934-0.233-1.583,0.3-1.95l1.1-0.7
					c-0.767-0.233-1.35-0.15-1.75,0.25c-0.333,0.367-0.467,0.817-0.4,1.35C11.817,1.15,12.067,1.5,12.5,1.7z"/>
				<linearGradient id="SVGID_9_" gradientUnits="userSpaceOnUse" x1="17.8379" y1="2.5869" x2="13.5629" y2="0.1119">
					<stop  offset="0" style="stop-color:#878787"/>
					<stop  offset="0" style="stop-color:#878787"/>
					<stop  offset="0.1882" style="stop-color:#A8A8A8"/>
					<stop  offset="0.3765" style="stop-color:#C2C2C2"/>
					<stop  offset="0.5725" style="stop-color:#D4D4D4"/>
					<stop  offset="0.7765" style="stop-color:#DFDFDF"/>
					<stop  offset="1" style="stop-color:#E3E3E3"/>
				</linearGradient>
				<path style="fill-rule:evenodd;clip-rule:evenodd;fill:url(#SVGID_9_);" d="M14.7,2.6c0.466,0.2,1.05,0.3,1.75,0.3
					c0.767,0.033,1.267-0.05,1.5-0.25c0.5-0.4,0.6-0.85,0.3-1.35c-0.233-0.333-0.683-0.7-1.35-1.1c-0.9-0.534-1.717-0.767-2.45-0.7
					c-0.667,0.1-1.083,0.367-1.25,0.8c-0.267,0.534-0.217,0.983,0.15,1.35c0.033,0.067,0.066,0.117,0.1,0.15
					C13.65,2,14.067,2.267,14.7,2.6z M14,1.55c-0.267-0.7-0.083-1.133,0.55-1.3c0.534-0.1,0.983-0.133,1.35-0.1
					c0.467,0.1,0.983,0.367,1.55,0.8c0.133,0.1,0.25,0.2,0.35,0.3c0.267,0.3,0.284,0.583,0.05,0.85c-0.3,0.3-0.75,0.467-1.35,0.5
					c-1.3,0-2.117-0.35-2.45-1.05H14z"/>
				<path style="fill-rule:evenodd;clip-rule:evenodd;fill:#FFFFFF;" d="M14.75,1.85C14.683,1.717,14.633,1.6,14.6,1.5
					c-0.033-0.167-0.017-0.333,0.05-0.5c0.133-0.233,0.417-0.383,0.85-0.45c0.467-0.066,0.917,0.067,1.35,0.4
					c0.133,0.1,0.25,0.2,0.35,0.3c0.2,0.233,0.233,0.483,0.1,0.75c0-0.3-0.216-0.483-0.65-0.55c-0.5-0.067-0.767,0.066-0.8,0.4
					c-0.033,0.267,0.133,0.45,0.5,0.55c-0.033,0-0.067,0-0.1,0C15.55,2.367,15.05,2.183,14.75,1.85z M14,1.55h0.05
					c0.333,0.7,1.15,1.05,2.45,1.05c0.6-0.033,1.05-0.2,1.35-0.5c0.233-0.267,0.217-0.55-0.05-0.85c-0.1-0.1-0.216-0.2-0.35-0.3
					c-0.567-0.434-1.083-0.7-1.55-0.8c-0.367-0.033-0.816,0-1.35,0.1C13.917,0.417,13.733,0.85,14,1.55z M15.6,1.05
					c0-0.133-0.1-0.216-0.3-0.25C15.1,0.767,15,0.817,15,0.95c-0.033,0.133,0.05,0.216,0.25,0.25
					C15.45,1.233,15.567,1.183,15.6,1.05z"/>
				<path style="fill-rule:evenodd;clip-rule:evenodd;fill:#454545;" d="M14.75,1.85c0.3,0.333,0.8,0.517,1.5,0.55
					c0.033,0,0.067,0,0.1,0c-0.367-0.1-0.533-0.283-0.5-0.55c0.033-0.333,0.3-0.467,0.8-0.4C17.083,1.517,17.3,1.7,17.3,2
					c0.133-0.267,0.1-0.517-0.1-0.75c-0.1-0.1-0.217-0.2-0.35-0.3c-0.434-0.333-0.883-0.467-1.35-0.4
					C15.067,0.617,14.783,0.767,14.65,1c-0.066,0.167-0.083,0.333-0.05,0.5C14.633,1.6,14.683,1.717,14.75,1.85z M15.6,1.05
					c-0.033,0.133-0.15,0.184-0.35,0.15c-0.2-0.034-0.283-0.117-0.25-0.25c0-0.133,0.1-0.184,0.3-0.15
					C15.5,0.833,15.6,0.917,15.6,1.05z"/>
				<path style="fill-rule:evenodd;clip-rule:evenodd;fill:#707070;" d="M21.2-1.5c0.033,0.233,0.05,0.467,0.05,0.7
					c0,0.267-0.067,0.466-0.2,0.6C20.883,0,20.583,0.067,20.15,0c-0.133,0-0.283-0.033-0.45-0.1c-0.633-0.167-1.4-0.517-2.3-1.05
					l-0.95-0.5c-0.067-0.033-0.133-0.083-0.2-0.15c-1.133-0.633-2-1.034-2.6-1.2c-0.933-0.433-1.867-0.683-2.8-0.75
					C10.183-3.883,9.583-3.967,9.05-4c-0.033,0-0.066,0-0.1,0l1,0.15c1.767,0.5,3.433,1.184,5,2.05c1.733,1.1,3.1,1.917,4.1,2.45
					c0.333,0.167,0.633,0.3,0.9,0.4c0.933,0.4,1.683,0.55,2.25,0.45c0.066-0.033,0.133-0.05,0.2-0.05c0.2-0.1,0.35-0.2,0.45-0.3
					L22.9,1l0.2-0.45l0.05-0.05c0-0.5-0.333-1.033-1-1.6L21-2v0.05l0.05,0.05C21.117-1.767,21.167-1.633,21.2-1.5z"/>
				<path style="fill-rule:evenodd;clip-rule:evenodd;fill:#5C5C5C;" d="M5.3-2.15V-2.2C5.167-3.533,6.183-4.167,8.35-4.1L9.05-4
					c0.534,0.033,1.133,0.117,1.8,0.25c0.933,0.067,1.867,0.317,2.8,0.75c0.6,0.167,1.467,0.567,2.6,1.2
					c0.067,0.066,0.133,0.117,0.2,0.15l0.95,0.5c0.9,0.533,1.667,0.883,2.3,1.05C19.867-0.033,20.017,0,20.15,0
					c0.434,0.067,0.733,0,0.9-0.2c0.133-0.133,0.2-0.333,0.2-0.6c0-0.233-0.017-0.467-0.05-0.7C21.067-1.667,21-1.783,21-1.85
					L20.95-1.8v0.05c-0.034,0.133-0.083,0.233-0.15,0.3c-0.167,0.167-0.517,0.2-1.05,0.1c-0.2,0-0.417-0.033-0.65-0.1
					c-0.5-0.133-1.667-0.767-3.5-1.9c-2.1-1.033-4.184-1.683-6.25-1.95c-1.133-0.1-2.033-0.034-2.7,0.2
					c-0.379,0.146-0.68,0.321-0.9,0.525L5.65-4.5l-0.2,0.3C5.317-3.933,5.233-3.617,5.2-3.25C5.167-2.883,5.2-2.517,5.3-2.15z"/>
			</g>
		</g>
	</g>
</symbol>
<symbol  id="tail" viewBox="-11.2 -4.778 11.2 9.578">
	<g id="Layer_1_6_">
		<g>
			<path style="fill-rule:evenodd;clip-rule:evenodd;fill:#969696;" d="M0,0.45c-0.233,0.066-0.35,0.133-0.35,0.2
				c0,0.033,0.117,0.067,0.35,0.1V0.45z"/>
			<path style="fill-rule:evenodd;clip-rule:evenodd;fill:#595959;" d="M0,0.75c-0.233-0.033-0.35-0.067-0.35-0.1
				c0-0.066,0.117-0.133,0.35-0.2V-0.1h-0.05c-0.667,0.167-1.1,0.483-1.3,0.95c-0.167,0.433-0.133,0.917,0.1,1.45
				c0.033,0.1,0.083,0.2,0.15,0.3c0.067-0.233,0.167-0.55,0.3-0.95c0.133-0.3,0.4-0.467,0.8-0.5V0.75z"/>
			<linearGradient id="SVGID_10_" gradientUnits="userSpaceOnUse" x1="-1.0298" y1="0.9917" x2="-11.7048" y2="-0.4333">
				<stop  offset="0" style="stop-color:#424242"/>
				<stop  offset="1" style="stop-color:#D1D1D1"/>
			</linearGradient>
			<path style="fill-rule:evenodd;clip-rule:evenodd;fill:url(#SVGID_10_);" d="M-1.3,2.4h-0.25c-0.133,0-0.25,0-0.35,0
				c-0.3,0.567-0.617,0.983-0.95,1.25c-0.267,0.2-0.633,0.383-1.1,0.55L-4.9,4.45c0.967-0.3,1.583-0.667,1.85-1.1l0.35-0.7
				l-0.05-0.3c-0.167-0.233-0.4-0.283-0.7-0.15C-3.983,2.367-4.6,2.6-5.3,2.9c0.167-0.1,0.333-0.2,0.5-0.3
				c0.4-0.267,0.6-0.5,0.6-0.7c0.067-0.167,0.15-0.3,0.25-0.4c0.034-0.033-0.117-0.067-0.45-0.1l-0.85-0.15
				c0.4-0.033,0.7-0.183,0.9-0.45c0.233-0.333,0.3-0.6,0.2-0.8C-4.217-0.2-4.433-0.267-4.8-0.2L-6-0.15
				c0.367-0.333,0.733-0.5,1.1-0.5l1.05,0.1l0.25-0.3c0.033-0.267-0.25-0.467-0.85-0.6C-5.383-1.65-6.367-1.7-7.4-1.6
				c0.167-0.1,0.617-0.217,1.35-0.35c0.466-0.1,1.05-0.1,1.75,0l0.95,0.2l-0.05-0.2C-3.6-2.083-4-2.283-4.6-2.55
				C-5.267-2.817-6-3-6.8-3.1c-0.633-0.033-1.1-0.033-1.4,0h-0.45c0.233-0.267,1-0.333,2.3-0.2C-5.483-3.233-4.7-3.083-4-2.85
				l0.8,0.3L-3.5-2.9c-0.333-0.267-0.95-0.55-1.85-0.85c-1.066-0.3-1.7-0.483-1.9-0.55c-0.2-0.034-0.733-0.067-1.6-0.1
				c-0.9-0.1-1.683-0.083-2.35,0.05l0.65,0.1c0.233,0,0.733,0.4,1.5,1.2c0.833,0.966,1.45,1.566,1.85,1.8
				c0.467,0.333,0.733,0.667,0.8,1c0.066,0.4,0.15,0.767,0.25,1.1c0.2,0.4,0.217,1.183,0.05,2.35c-0.066,0.566-0.133,1.083-0.2,1.55
				c0.466,0.067,1.017,0.067,1.65,0c1.267-0.133,2.267-0.567,3-1.3c0.167-0.167,0.283-0.333,0.35-0.5c0-0.133,0.033-0.3,0.1-0.5
				L-1.3,2.4z"/>
			<path style="fill-rule:evenodd;clip-rule:evenodd;fill:#454545;" d="M-1.9,2.4V2.35L-2.4,2.3c-1.467-0.966-1.65-2.233-0.55-3.8
				c0.2-0.333,0.617-0.6,1.25-0.8c-0.066-0.034-0.117-0.067-0.15-0.1C-3.317-3.333-4.6-3.95-5.7-4.25c-1.433-0.433-2.767-0.6-4-0.5
				c-0.667,0.1-1.167,0.233-1.5,0.4c0.667-0.133,1.45-0.15,2.35-0.05c0.867,0.033,1.4,0.066,1.6,0.1c0.2,0.066,0.833,0.25,1.9,0.55
				c0.9,0.3,1.517,0.583,1.85,0.85l0.3,0.35L-4-2.85C-4.7-3.083-5.483-3.233-6.35-3.3c-1.3-0.133-2.066-0.067-2.3,0.2h0.45
				c0.3-0.033,0.767-0.033,1.4,0C-6-3-5.267-2.817-4.6-2.55c0.6,0.267,1,0.466,1.2,0.6l0.05,0.2l-0.95-0.2
				c-0.7-0.1-1.284-0.1-1.75,0C-6.783-1.817-7.233-1.7-7.4-1.6c1.033-0.1,2.017-0.05,2.95,0.15c0.6,0.133,0.883,0.333,0.85,0.6
				l-0.25,0.3l-1.05-0.1c-0.367,0-0.733,0.167-1.1,0.5l1.2-0.05c0.367-0.066,0.583,0,0.65,0.2c0.1,0.2,0.033,0.467-0.2,0.8
				c-0.2,0.267-0.5,0.417-0.9,0.45L-4.4,1.4c0.333,0.033,0.483,0.067,0.45,0.1c-0.1,0.1-0.183,0.233-0.25,0.4
				c0,0.2-0.2,0.434-0.6,0.7c-0.167,0.1-0.333,0.2-0.5,0.3c0.7-0.3,1.316-0.533,1.85-0.7c0.3-0.133,0.534-0.083,0.7,0.15l0.05,0.3
				l-0.35,0.7c-0.267,0.433-0.883,0.8-1.85,1.1l0.95-0.25c0.467-0.167,0.833-0.35,1.1-0.55C-2.517,3.383-2.2,2.967-1.9,2.4z"/>
			<linearGradient id="SVGID_11_" gradientUnits="userSpaceOnUse" x1="-2.2808" y1="-7.3921" x2="-1.2808" y2="7.7579">
				<stop  offset="0" style="stop-color:#CF8D8D"/>
				<stop  offset="0.1765" style="stop-color:#CA9E9E"/>
				<stop  offset="0.4314" style="stop-color:#C4B0B0"/>
				<stop  offset="0.702" style="stop-color:#C0BBBB"/>
				<stop  offset="1" style="stop-color:#BFBFBF"/>
			</linearGradient>
			<path style="fill-rule:evenodd;clip-rule:evenodd;fill:url(#SVGID_11_);" d="M-1.25,2.3c-0.233-0.533-0.267-1.017-0.1-1.45
				c0.2-0.467,0.633-0.783,1.3-0.95H0v-1.4c-0.3,0.033-0.567-0.067-0.8-0.3c-0.034-0.034-0.05-0.067-0.05-0.1
				C-1.108-1.986-1.391-2.119-1.7-2.3c-0.633,0.2-1.05,0.466-1.25,0.8c-1.1,1.567-0.917,2.833,0.55,3.8l0.5,0.05V2.4
				c0.1,0,0.217,0,0.35,0h0.25C-1.267,2.4-1.25,2.367-1.25,2.3z"/>
		</g>
	</g>
</symbol>
<use xlink:href="#butterfly_1_"  width="52.51" height="17.508" id="salmon" x="-24.099" y="-7.894" transform="matrix(1 0 0 -1 24.1001 9.5996)" style="overflow:visible;"/>
</svg>
