<?xml version="1.0" encoding="iso-8859-1"?>
<!-- Generator: Adobe Illustrator 15.0.0, SVG Export Plug-In . SVG Version: 6.00 Build 0)  -->
<!DOCTYPE svg PUBLIC "-//W3C//DTD SVG 1.1//EN" "http://www.w3.org/Graphics/SVG/1.1/DTD/svg11.dtd">
<svg version="1.1" id="Layer_1" xmlns="http://www.w3.org/2000/svg" xmlns:xlink="http://www.w3.org/1999/xlink" x="0px" y="0px"
	 width="128px" height="128px" viewBox="0 0 128 128" style="enable-background:new 0 0 128 128;" xml:space="preserve">
<g>
	<circle style="fill:#FFC200;" cx="64" cy="64" r="64"/>
	<path style="fill:#F2B800;" d="M64,0c-1.685,0-3.348,0.085-5,0.213C92.008,2.768,118,30.337,118,64s-25.992,61.233-59,63.787
		c1.652,0.128,3.315,0.213,5,0.213c35.348,0,64-28.652,64-64S99.348,0,64,0z"/>
	<path style="fill:#F2B800;" d="M87,82H42c-2.206,0-4,1.794-4,4s1.794,4,4,4h14v4c0,2.206,1.794,4,4,4h4
		c0.732,0,1.409-0.212,2-0.557C66.591,97.788,67.268,98,68,98h4c2.206,0,4-1.794,4-4v-4h11c2.206,0,4-1.794,4-4S89.206,82,87,82z"/>
	<rect x="54" y="42" style="fill:#263740;" width="20" height="6"/>
	<g>
		<circle style="fill:#263740;" cx="98" cy="48" r="28"/>
		<path style="fill:#C2E2F2;" d="M98,72c-13.232,0-24-10.766-24-24s10.768-24,24-24s24,10.766,24,24S111.232,72,98,72z"/>
		<g>
			<circle style="fill:#DAEAF2;" cx="87" cy="35" r="2"/>
			<circle style="fill:#DAEAF2;" cx="87" cy="44" r="4"/>
		</g>
		<circle style="fill:#242424;" cx="92.75" cy="55" r="3"/>
	</g>
	<g>
		<circle style="fill:#263740;" cx="30" cy="48" r="28"/>
		<path style="fill:#C2E2F2;" d="M30,72C16.767,72,6,61.234,6,48s10.767-24,24-24s24,10.766,24,24S43.233,72,30,72z"/>
		<g>
			<circle style="fill:#DAEAF2;" cx="18" cy="35" r="2"/>
			<circle style="fill:#DAEAF2;" cx="18" cy="44" r="4"/>
		</g>
		<circle style="fill:#242424;" cx="35.25" cy="55" r="3"/>
	</g>
	<path style="fill:#F5F5F5;" d="M87,88H42c-1.104,0-2-0.896-2-2s0.896-2,2-2h45c1.104,0,2,0.896,2,2S88.104,88,87,88z"/>
	<path style="fill:#F5F5F5;" d="M66,88v6c0,1.1-0.9,2-2,2h-4c-1.1,0-2-0.9-2-2v-6H66z"/>
	<path style="fill:#E6E6E6;" d="M65,88v6c0,1.1-0.9,2-2,2h1c1.1,0,2-0.9,2-2v-6H65z"/>
	<path style="fill:#F5F5F5;" d="M74,88v6c0,1.1-0.9,2-2,2h-4c-1.1,0-2-0.9-2-2v-6H74z"/>
	<path style="fill:#E6E6E6;" d="M73,88v6c0,1.1-0.9,2-2,2h1c1.1,0,2-0.9,2-2v-6H73z"/>
	<rect x="58" y="88" style="fill:#E6E6E6;" width="16" height="1"/>
</g>
</svg>
