<?xml version="1.0" encoding="iso-8859-1"?>
<!-- Generator: Adobe Illustrator 15.1.0, SVG Export Plug-In . SVG Version: 6.00 Build 0)  -->
<!DOCTYPE svg PUBLIC "-//W3C//DTD SVG 1.1//EN" "http://www.w3.org/Graphics/SVG/1.1/DTD/svg11.dtd">
<svg version="1.1" id="FlashAICB" xmlns="http://www.w3.org/2000/svg" xmlns:xlink="http://www.w3.org/1999/xlink" x="0px" y="0px"
	 width="88.2px" height="51.2px" viewBox="0 0 88.2 51.2" style="enable-background:new 0 0 88.2 51.2;" xml:space="preserve">
<symbol  id="FlashAICB_x2F_Layer_51_x2F__x3C_Compound_Path_x3E_" viewBox="0.025 -7.508 14.275 7.511">
	<g id="Layer_1_30_">
		<path style="fill-rule:evenodd;clip-rule:evenodd;fill:#6E8E3C;" d="M10.95-5.35c0-0.1-0.067-0.333-0.2-0.7
			c-0.1-0.3-0.133-0.5-0.1-0.6c-0.066-0.167,0-0.25,0.2-0.25c0.2,0.033,0.3,0.3,0.3,0.8c0.3,0.567,0.35,1.217,0.15,1.95L11.15-4
			C11.05-4.333,10.983-4.783,10.95-5.35z M14.05,0l0.25-0.05l-0.05-0.1c-0.5-0.7-0.867-1.417-1.1-2.15
			c-0.033-0.1-0.017-0.35,0.05-0.75c0.033-0.267-0.05-0.483-0.25-0.65c-0.233-0.033-0.4-0.133-0.5-0.3l-0.1-0.6
			c-0.133-0.367-0.317-0.967-0.55-1.8c-0.333-0.8-0.633-1.167-0.9-1.1c-0.433,0.133-0.566,0.633-0.4,1.5
			c0.2,0.867,0.167,1.367-0.1,1.5c-0.333-0.467-0.65-0.767-0.95-0.9C9.283-5.5,9.033-5.567,8.7-5.6C8.267-5.667,8-5.717,7.9-5.75
			c-0.367-0.167-0.633-0.3-0.8-0.4c-0.333-0.133-0.65-0.167-0.95-0.1c-0.5,0.033-1.1,0.3-1.8,0.8c-0.7,0.5-1.117,0.934-1.25,1.3
			C3-3.717,2.9-3.4,2.8-3.2C2.667-2.867,2.433-2.633,2.1-2.5C1.767-2.367,1.533-2.35,1.4-2.45c-0.167-0.233-0.333-0.4-0.5-0.5
			c-0.2-0.133-0.383-0.167-0.55-0.1c-0.133,0.1-0.233,0.283-0.3,0.55c-0.033,0.133-0.033,0.233,0,0.3c0-0.133,0.117-0.25,0.35-0.35
			V-2.6l0.25-0.15L0.8-2.6c0.167,0.067,0.4,0.317,0.7,0.75c0.4,0.633,0.717,1.067,0.95,1.3c0.033,0.033,0.1,0.133,0.2,0.3
			C2.583-0.583,2.667-0.867,2.9-1.1v-0.1C3-1.567,3.3-1.75,3.8-1.75c0.267-0.2,0.4-0.4,0.4-0.6C4.2-2.517,4.117-2.733,3.95-3
			c-0.2-0.267-0.3-0.467-0.3-0.6c0-0.167,0.167-0.45,0.5-0.85c0.3-0.367,0.55-0.633,0.75-0.8c0.333-0.3,0.767-0.333,1.3-0.1
			C6.433-5.25,6.6-5.2,6.7-5.2c0.033,0,0.15-0.017,0.35-0.05c0.1-0.033,0.2-0.017,0.3,0.05C7.383-5.2,7.6-4.917,8-4.35
			C8.267-3.883,8.433-3.633,8.5-3.6c0.167,0.233,0.417,0.4,0.75,0.5c0.133-0.4,0.433-0.367,0.9,0.1c0.267,0.233,0.567,0.567,0.9,1
			c0.067,0.033,0.233,0.067,0.5,0.1c0.233,0,0.417,0.033,0.55,0.1c0.2,0.066,0.583,0.433,1.15,1.1C13.517-0.2,13.783,0.033,14.05,0z
			"/>
	</g>
</symbol>
<symbol  id="FlashAICB_x2F_Layer_51_x2F__x3C_Path_x3E_" viewBox="-0.035 -1.069 1.11 1.028">
	<g id="Layer_1_8_">
		<path style="fill-rule:evenodd;clip-rule:evenodd;fill:#ECE0FE;" d="M0.9-0.25C1.133-0.55,1.133-0.8,0.9-1
			C0.667-1.167,0.417-1.033,0.15-0.6C-0.25,0,0,0.117,0.9-0.25z"/>
	</g>
</symbol>
<symbol  id="FlashAICB_x2F_Layer_51_x2F__x3C_Path_x3E__x5F_0" viewBox="0 -0.95 0.9 0.95">
	<g id="Layer_1_24_">
		<path style="fill-rule:evenodd;clip-rule:evenodd;fill:#4E6D90;" d="M0.9-0.95C0.533-0.75,0.283-0.5,0.15-0.2L0,0l0.3-0.3
			c0.3-0.233,0.483-0.417,0.55-0.55L0.9-0.95z"/>
	</g>
</symbol>
<symbol  id="FlashAICB_x2F_Layer_51_x2F__x3C_Path_x3E__x5F_1" viewBox="0 -0.95 0.9 0.95">
	<g id="Layer_1_23_">
		<path style="fill-rule:evenodd;clip-rule:evenodd;fill:#4E6D90;" d="M0.9-0.95C0.533-0.75,0.283-0.5,0.15-0.2L0,0l0.3-0.3
			c0.3-0.233,0.483-0.417,0.55-0.55L0.9-0.95z"/>
	</g>
</symbol>
<symbol  id="FlashAICB_x2F_Layer_51_x2F__x3C_Path_x3E__x5F_10" viewBox="0.022 -19.16 18.591 19.16">
	<g id="Layer_1_9_">
		<path style="fill-rule:evenodd;clip-rule:evenodd;fill:#633F90;" d="M11.1-1.85c1.767-1.433,2.767-2.25,3-2.45
			c0.933-0.867,1.95-1.983,3.05-3.35c0.367-1.233,0.567-2.117,0.6-2.65c0.133-0.9,0.417-2.367,0.85-4.4
			c0.066-1.167-0.133-2.316-0.6-3.45l-0.1,0.1c-0.133,0.466-0.283,0.816-0.45,1.05c-0.367,0.367-0.65,0.583-0.85,0.65
			c-0.1,0.067-0.283,0.1-0.55,0.1c-0.267,0-0.45,0.017-0.55,0.05c-0.2,0.034-0.433,0.117-0.7,0.25c-0.267,0.167-0.5,0.217-0.7,0.15
			c-0.133-0.067-0.3-0.233-0.5-0.5c-0.1-0.167-0.25-0.483-0.45-0.95C12.983-17.683,12.8-18,12.6-18.2c-0.7-0.8-1.233-1.1-1.6-0.9
			c-0.533,0.267-0.533,0.85,0,1.75c0.667,1.167,1,1.8,1,1.9c0,0.3-0.1,0.6-0.3,0.9c-0.3,0.466-0.467,0.733-0.5,0.8
			c-0.3,0.867-0.55,1.517-0.75,1.95c-0.133,0.3-0.4,0.617-0.8,0.95c-0.467,0.367-0.8,0.633-1,0.8C7.883-9.417,7.267-9.017,6.8-8.85
			C6.067-8.583,5.483-8.6,5.05-8.9c-0.3-0.233-0.733-0.4-1.3-0.5c-0.333-0.133-0.6-0.383-0.8-0.75c-0.1-0.2-0.267-0.533-0.5-1
			c-0.3-0.5-0.667-0.967-1.1-1.4c-0.633,0.333-0.7,0.95-0.2,1.85C1.783-9.533,2.333-8.75,2.8-8.35C3.133-8.183,3.367-8.033,3.5-7.9
			c0.3,0.2,0.383,0.433,0.25,0.7C3.683-7.033,3.467-6.817,3.1-6.55C2.7-6.283,2.433-6.1,2.3-6C1.833-5.6,1.533-5.15,1.4-4.65
			c-0.033,0.133-0.05,0.667-0.05,1.6C1.317-2.417,1.117-1.9,0.75-1.5C0.383-1.167,0.167-0.933,0.1-0.8C-0.067-0.5,0.033-0.233,0.4,0
			L11.1-1.85z"/>
	</g>
</symbol>
<symbol  id="FlashAICB_x2F_Layer_51_x2F__x3C_Path_x3E__x5F_10_x5F_0" viewBox="0 -15.45 17.4 15.429">
	<g id="Layer_1_69_">
		<path style="fill-rule:evenodd;clip-rule:evenodd;fill:#89733C;" d="M12.45-1.2l1.1-0.9l1.55-1.95c0.367-0.333,0.733-0.8,1.1-1.4
			c0.233-0.333,0.417-0.917,0.55-1.75c0.133-0.767,0.3-1.933,0.5-3.5c0.2-1,0.2-1.683,0-2.05c0-0.033-0.217-0.333-0.65-0.9
			c-0.267-0.367-0.467-0.684-0.6-0.95l-0.45-0.85l-0.4,0.1c0.2,0.167,0.3,0.4,0.3,0.7c0.1,0.167,0.083,0.367-0.05,0.6l-0.2,1.3
			l-0.05,0.1c-0.167,0-0.433-0.184-0.8-0.55c-0.1,0.1-0.15,0.233-0.15,0.4c0,0.1,0.117,0.25,0.35,0.45c0.2,0.2,0.3,0.383,0.3,0.55
			c0.066,0.333-0.15,0.683-0.65,1.05l-0.5,0.35c0,0.367-0.184,0.717-0.55,1.05l-2.3,0.5l-0.5-0.6l-0.2,0.05
			C9.983-9.3,9.833-9.167,9.7-9c-0.1,0.2-0.1,0.367,0,0.5C8.733-7.533,8.133-6.95,7.9-6.75C7.167-6.183,6.25-5.9,5.15-5.9
			C4.55-5.933,4-6.3,3.5-7C2.733-8,2.283-8.55,2.15-8.65L1.85-8.3L1.6-8.2c0.1,0.2,0.617,0.867,1.55,2
			C3.483-5.867,3.667-5.633,3.7-5.5C3.767-5.333,3.75-5.167,3.65-5c-0.066,0.167-0.2,0.2-0.4,0.1c-0.033-0.033-0.233-0.317-0.6-0.85
			C2.317-6.217,2.117-6.267,2.05-5.9c-0.033,0.167,0.067,0.383,0.3,0.65C2.617-4.883,2.767-4.667,2.8-4.6
			c0.067,0.133,0.1,0.4,0.1,0.8v0.3C2.867-3.467,2.783-3.383,2.65-3.25L2.5-3.1l0.85,0.55L1.6-1.85C1.233-2.017,1.05-2.2,1.05-2.4
			l-0.2,0.2l-0.6,0.25l-0.2-0.1L0-1.9l2.7,1.1c0.333-0.067,0.65-0.017,0.95,0.15l0.8,0.25C4.683-0.333,5.033-0.3,5.5-0.3
			c0.2,0.033,0.517,0.117,0.95,0.25c0.433,0.066,1,0.017,1.7-0.15C9.017-0.4,9.567-0.517,9.8-0.55
			C10.9-0.617,11.783-0.833,12.45-1.2z"/>
	</g>
</symbol>
<symbol  id="FlashAICB_x2F_Layer_51_x2F__x3C_Path_x3E__x5F_11" viewBox="-0.013 -1.063 1.309 1.088">
	<g id="Layer_1_5_">
		<path style="fill-rule:evenodd;clip-rule:evenodd;fill:#633F90;" d="M1.05-0.15C1.317-0.417,1.367-0.667,1.2-0.9
			C1-1.133,0.7-1.117,0.3-0.85c-0.4,0.267-0.417,0.5-0.05,0.7C0.583,0.083,0.85,0.083,1.05-0.15z"/>
	</g>
</symbol>
<symbol  id="FlashAICB_x2F_Layer_51_x2F__x3C_Path_x3E__x5F_11_x5F_0" viewBox="0 -0.738 0.6 0.783">
	<g id="Layer_1_68_">
		<path style="fill-rule:evenodd;clip-rule:evenodd;fill:#FBF3DF;" d="M0.55-0.35C0.183-0.85,0-0.867,0-0.4s0.2,0.566,0.6,0.3
			L0.55-0.35z"/>
	</g>
</symbol>
<symbol  id="FlashAICB_x2F_Layer_51_x2F__x3C_Path_x3E__x5F_12" viewBox="-0.03 -2.453 3.36 2.458">
	<g id="Layer_1_4_">
		<path style="fill-rule:evenodd;clip-rule:evenodd;fill:#633F90;" d="M2.85-0.4c0.4-0.133,0.55-0.467,0.45-1
			C3.2-1.9,2.967-2.2,2.6-2.3C1.933-2.533,1.217-2.5,0.45-2.2C0.05-2.067-0.1-1.833,0-1.5c0.233,0.433,0.383,0.783,0.45,1.05
			C0.55-0.117,0.833,0.033,1.3,0C1.6-0.033,2.117-0.167,2.85-0.4z"/>
	</g>
</symbol>
<symbol  id="FlashAICB_x2F_Layer_51_x2F__x3C_Path_x3E__x5F_13" viewBox="0 -5.962 3.357 5.962">
	<g id="Layer_1_3_">
		<path style="fill-rule:evenodd;clip-rule:evenodd;fill:#633F90;" d="M0.2-2.8C0.1-2.567,0.033-2.167,0-1.6
			c0,0.4,0.083,0.65,0.25,0.75C0.517-0.717,0.767-0.567,1-0.4C1.367-0.133,1.633,0,1.8,0C2-0.033,2.217-0.2,2.45-0.5
			c0.2-0.267,0.367-0.833,0.5-1.7c0.1-0.466,0.216-1.167,0.35-2.1C3.433-4.867,3.333-5.317,3-5.65c-0.3-0.333-0.7-0.4-1.2-0.2
			C1.467-5.717,1.317-5.433,1.35-5C1.383-4.467,1.267-4.083,1-3.85C0.6-3.517,0.333-3.167,0.2-2.8z"/>
	</g>
</symbol>
<symbol  id="FlashAICB_x2F_Layer_51_x2F__x3C_Path_x3E__x5F_14" viewBox="-0.001 -8.128 13.279 8.097">
	<g id="Layer_1_2_">
		<path style="fill-rule:evenodd;clip-rule:evenodd;fill:#633F90;" d="M11.2-7.95c-0.4-0.267-1.15-0.233-2.25,0.1
			C7.683-7.483,5.85-6.2,3.45-4C1.117-1.9-0.033-0.6,0-0.1C0.933-0.867,2.2-1.167,3.8-1c0.367,0.033,0.65,0.017,0.85-0.05
			C4.783-1.083,5-1.167,5.3-1.3c0.6-0.233,1.117-0.1,1.55,0.4C7.417-0.233,7.767,0.05,7.9-0.05c0.167-0.133,0.3-0.367,0.4-0.7
			c0.133-0.4,0.117-0.717-0.05-0.95c-0.1-0.2-0.233-0.383-0.4-0.55C7.783-2.417,7.883-2.6,8.15-2.8C8.383-3,8.617-3.1,8.85-3.1
			c0.2,0,0.417-0.083,0.65-0.25C9.733-3.517,9.933-3.6,10.1-3.6c0.066,0,0.083-0.083,0.05-0.25c0-0.033-0.117-0.15-0.35-0.35
			c-0.1-0.066,0.083-0.283,0.55-0.65c0.533-0.4,0.95-0.583,1.25-0.55c0.066,0,0.333,0.133,0.8,0.4c0.3,0.167,0.533,0.217,0.7,0.15
			c0.167-0.066,0.217-0.25,0.15-0.55c-0.067-0.233-0.117-0.583-0.15-1.05c-0.1-0.367-0.383-0.6-0.85-0.7
			C11.783-7.517,11.433-7.783,11.2-7.95z"/>
	</g>
</symbol>
<symbol  id="FlashAICB_x2F_Layer_51_x2F__x3C_Path_x3E__x5F_14_x5F_0" viewBox="-0.028 -1.35 1.483 1.35">
	<g id="Layer_1_95_">
		<path style="fill-rule:evenodd;clip-rule:evenodd;fill:#F6E0DE;" d="M1.1-1.35c-0.5,0.3-0.817,0.533-0.95,0.7
			C-0.117-0.217-0.083,0,0.25,0L0.9-0.4C1.567-0.8,1.633-1.117,1.1-1.35z"/>
	</g>
</symbol>
<symbol  id="FlashAICB_x2F_Layer_51_x2F__x3C_Path_x3E__x5F_15" viewBox="0 -1.25 2.3 1.25">
	<g id="Layer_1_78_">
		<path style="fill-rule:evenodd;clip-rule:evenodd;fill:#89733C;" d="M0.55,0L2.3-0.7L1.45-1.25C1.217-1.083,0.817-1,0.25-1
			L0.2-0.95C0.067-0.817,0-0.683,0-0.55C0-0.35,0.183-0.167,0.55,0z"/>
	</g>
</symbol>
<symbol  id="FlashAICB_x2F_Layer_51_x2F__x3C_Path_x3E__x5F_15_x5F_0" viewBox="-0.011 -1.606 2.099 1.606">
	<g id="Layer_1_94_">
		<path style="fill-rule:evenodd;clip-rule:evenodd;fill:#F6E0DE;" d="M0.05-0.35c0.267-0.233,0.517-0.3,0.75-0.2
			C0.967-0.517,1.183-0.333,1.45,0l0.4-0.3C2.183-0.533,2.167-0.85,1.8-1.25C1.467-1.617,1.117-1.7,0.75-1.5
			C0.183-1.167-0.067-0.817,0-0.45L0.05-0.35z"/>
	</g>
</symbol>
<symbol  id="FlashAICB_x2F_Layer_51_x2F__x3C_Path_x3E__x5F_16" viewBox="-0.022 -1.595 1.672 1.582">
	<g id="Layer_1_93_">
		<path style="fill-rule:evenodd;clip-rule:evenodd;fill:#F6E0DE;" d="M1.65-1.35C1.383-1.583,1.1-1.65,0.8-1.55
			c-0.267,0.1-0.5,0.3-0.7,0.6c-0.233,0.4-0.133,0.7,0.3,0.9c0.233,0.1,0.5,0,0.8-0.3L1.65-1.35z"/>
	</g>
</symbol>
<symbol  id="FlashAICB_x2F_Layer_51_x2F__x3C_Path_x3E__x5F_17" viewBox="0.022 -2.607 3.513 2.62">
	<g id="Layer_1_92_">
		<path style="fill-rule:evenodd;clip-rule:evenodd;fill:#F6E0DE;" d="M1.1-2.15c-0.833,0.6-1.184,1.1-1.05,1.5
			c0.1,0.4,0.4,0.617,0.9,0.65C1.117,0.033,1.5,0,2.1-0.1l1.2-1.1c0.434-0.3,0.267-0.683-0.5-1.15C2.5-2.55,2.217-2.633,1.95-2.6
			C1.717-2.567,1.433-2.417,1.1-2.15z"/>
	</g>
</symbol>
<symbol  id="FlashAICB_x2F_Layer_51_x2F__x3C_Path_x3E__x5F_18" viewBox="0.028 -1.065 1.172 1.088">
	<g id="Layer_1_17_">
		<path style="fill-rule:evenodd;clip-rule:evenodd;fill:#E5F4FF;" d="M1.2-0.55c-0.167-0.233-0.35-0.4-0.55-0.5
			c-0.3-0.067-0.5,0.083-0.6,0.45C-0.017-0.367,0.067-0.183,0.3-0.05C0.533,0.083,0.733,0.033,0.9-0.2L1.2-0.55z"/>
	</g>
</symbol>
<symbol  id="FlashAICB_x2F_Layer_51_x2F__x3C_Path_x3E__x5F_18_x5F_0" viewBox="-0.042 -1.474 2.592 1.508">
	<g id="Layer_1_91_">
		<path style="fill-rule:evenodd;clip-rule:evenodd;fill:#F6E0DE;" d="M1.5-0.35l1.05-0.4C2.183-1.183,1.833-1.417,1.5-1.45
			C1.1-1.55,0.667-1.333,0.2-0.8C-0.167-0.367-0.117-0.1,0.35,0C0.783,0.1,1.167-0.017,1.5-0.35z"/>
	</g>
</symbol>
<symbol  id="FlashAICB_x2F_Layer_51_x2F__x3C_Path_x3E__x5F_19" viewBox="-0.006 -1.538 1.956 1.52">
	<g id="Layer_1_16_">
		<path style="fill-rule:evenodd;clip-rule:evenodd;fill:#E5F4FF;" d="M0-0.6c0.133,0.533,0.433,0.7,0.9,0.5
			c0.067-0.033,0.417-0.283,1.05-0.75L1.45-1.3C1.05-1.6,0.667-1.617,0.3-1.35C0.067-1.117-0.033-0.867,0-0.6z"/>
	</g>
</symbol>
<symbol  id="FlashAICB_x2F_Layer_51_x2F__x3C_Path_x3E__x5F_19_x5F_0" viewBox="0.036 -1.708 1.864 1.715">
	<g id="Layer_1_90_">
		<path style="fill-rule:evenodd;clip-rule:evenodd;fill:#F6E0DE;" d="M1.9-0.85C1.567-1.383,1.3-1.667,1.1-1.7
			C1-1.733,0.833-1.667,0.6-1.5C0.4-1.367,0.25-1.233,0.15-1.1C-0.017-0.867,0-0.6,0.2-0.3C0.333-0.067,0.55,0.033,0.85,0
			c0.267,0,0.5-0.1,0.7-0.3L1.9-0.85z"/>
	</g>
</symbol>
<symbol  id="FlashAICB_x2F_Layer_51_x2F__x3C_Path_x3E__x5F_2" viewBox="-0.017 -3.2 3.273 3.17">
	<g id="Layer_1_7_">
		<path style="fill-rule:evenodd;clip-rule:evenodd;fill:#ECE0FE;" d="M2.75-0.9c0.6-0.6,0.667-1.167,0.2-1.7
			C2.583-3,2.183-3.2,1.75-3.2c-0.267,0-0.6,0.333-1,1C0.45-1.633,0.2-1.067,0-0.5c-0.1,0.433,0.25,0.567,1.05,0.4
			C1.817-0.267,2.383-0.533,2.75-0.9z"/>
	</g>
</symbol>
<symbol  id="FlashAICB_x2F_Layer_51_x2F__x3C_Path_x3E__x5F_20" viewBox="-0.003 -2.75 4.464 2.756">
	<g id="Layer_1_15_">
		<path style="fill-rule:evenodd;clip-rule:evenodd;fill:#E5F4FF;" d="M1.95-2.4c-0.233,0.133-0.6,0.433-1.1,0.9
			C0.25-1-0.033-0.683,0-0.55C0.033-0.217,0.367-0.033,1,0c0.6,0.033,1-0.067,1.2-0.3l1.2-0.35C4.067-1.083,4.417-1.367,4.45-1.5
			C4.517-1.7,4.3-2,3.8-2.4C3.233-2.867,2.617-2.867,1.95-2.4z"/>
	</g>
</symbol>
<symbol  id="FlashAICB_x2F_Layer_51_x2F__x3C_Path_x3E__x5F_20_x5F_0" viewBox="0 -1.929 3.004 1.929">
	<g id="Layer_1_89_">
		<path style="fill-rule:evenodd;clip-rule:evenodd;fill:#F6E0DE;" d="M1.65-1.9C1.35-1.833,0.8-1.4,0-0.6
			c0.233,0.3,0.467,0.483,0.7,0.55c0.167,0.066,0.483,0.066,0.95,0L3-1.1c0.033-0.267-0.133-0.483-0.5-0.65
			C2.2-1.917,1.917-1.967,1.65-1.9z"/>
	</g>
</symbol>
<symbol  id="FlashAICB_x2F_Layer_51_x2F__x3C_Path_x3E__x5F_21" viewBox="-0.011 -2.124 2.561 2.158">
	<g id="Layer_1_14_">
		<path style="fill-rule:evenodd;clip-rule:evenodd;fill:#4E6D90;" d="M1.45-0.15l1.1-1c-0.367-0.5-0.65-0.8-0.85-0.9
			C1.333-2.217,0.933-2.1,0.5-1.7C0-1.2-0.133-0.75,0.1-0.35C0.333,0.083,0.783,0.15,1.45-0.15z"/>
	</g>
</symbol>
<symbol  id="FlashAICB_x2F_Layer_51_x2F__x3C_Path_x3E__x5F_21_x5F_0" viewBox="-0.014 -1.4 1.171 1.388">
	<g id="Layer_1_67_">
		<path style="fill-rule:evenodd;clip-rule:evenodd;fill:#F8E6BB;" d="M0.1-0.2c0.133,0.233,0.316,0.25,0.55,0.05L1.1-0.4
			C1.2-0.633,1.167-0.833,1-1C0.933-1.1,0.783-1.233,0.55-1.4c-0.267,0.167-0.433,0.333-0.5,0.5C-0.05-0.667-0.033-0.433,0.1-0.2z"
			/>
	</g>
</symbol>
<symbol  id="FlashAICB_x2F_Layer_51_x2F__x3C_Path_x3E__x5F_21_x5F_1" viewBox="-0.04 -1.757 2.64 1.77">
	<g id="Layer_1_88_">
		<path style="fill-rule:evenodd;clip-rule:evenodd;fill:#7F403A;" d="M0.6-0.05C1-0.183,1.367-0.383,1.7-0.65L2.6-1.4
			C2.033-1.733,1.617-1.833,1.35-1.7C1.15-1.633,0.9-1.467,0.6-1.2C0.233-0.933,0.033-0.717,0-0.55
			C-0.133-0.05,0.067,0.117,0.6-0.05z"/>
	</g>
</symbol>
<symbol  id="FlashAICB_x2F_Layer_51_x2F__x3C_Path_x3E__x5F_22" viewBox="-0.02 -1.957 1.97 1.961">
	<g id="Layer_1_13_">
		<path style="fill-rule:evenodd;clip-rule:evenodd;fill:#4E6D90;" d="M0.9-1.8C0.833-1.667,0.65-1.483,0.35-1.25l-0.3,0.3
			C-0.117-0.317,0.017,0,0.45,0C0.683,0.033,0.967-0.183,1.3-0.65l0.65-0.8c-0.1,0-0.217-0.083-0.35-0.25
			C1.433-1.9,1.25-1.983,1.05-1.95L0.95-1.9L0.9-1.8z"/>
	</g>
</symbol>
<symbol  id="FlashAICB_x2F_Layer_51_x2F__x3C_Path_x3E__x5F_22_x5F_0" viewBox="-0.017 -1.638 1.967 1.731">
	<g id="Layer_1_66_">
		<path style="fill-rule:evenodd;clip-rule:evenodd;fill:#F8E6BB;" d="M1.45-1.5C1.117-1.7,0.767-1.683,0.4-1.45
			C-0.1-1.117-0.15-0.733,0.25-0.3C0.683,0.167,1.033,0.217,1.3-0.15L1.95-0.4c0-0.033-0.034-0.233-0.1-0.6
			C1.817-1.2,1.683-1.367,1.45-1.5z"/>
	</g>
</symbol>
<symbol  id="FlashAICB_x2F_Layer_51_x2F__x3C_Path_x3E__x5F_22_x5F_1" viewBox="-0.004 -2.25 2.854 2.24">
	<g id="Layer_1_87_">
		<path style="fill-rule:evenodd;clip-rule:evenodd;fill:#7F403A;" d="M1.5-2.05c-0.233,0.1-0.533,0.3-0.9,0.6
			C0.167-1.083-0.033-0.783,0-0.55C0-0.317,0.183-0.167,0.55-0.1c0.3,0.1,0.567,0.117,0.8,0.05L2.5-1c0.2-0.1,0.317-0.267,0.35-0.5
			c0-0.2-0.083-0.383-0.25-0.55C2.3-2.317,1.933-2.317,1.5-2.05z"/>
	</g>
</symbol>
<symbol  id="FlashAICB_x2F_Layer_51_x2F__x3C_Path_x3E__x5F_23" viewBox="0 -2.45 3.406 2.45">
	<g id="Layer_1_12_">
		<path style="fill-rule:evenodd;clip-rule:evenodd;fill:#4E6D90;" d="M2.6-0.15L3.1,0c0.233-0.267,0.333-0.55,0.3-0.85
			c-0.033-0.133-0.15-0.4-0.35-0.8l-0.1-0.1c-0.4-0.433-0.733-0.667-1-0.7c-0.4,0.167-0.7,0.267-0.9,0.3L0.5-2.1L0-1.95
			c0.1,0.167,0.333,0.267,0.7,0.3c0.4,0.033,0.65,0.1,0.75,0.2C1.883-1.15,2.267-0.717,2.6-0.15z"/>
	</g>
</symbol>
<symbol  id="FlashAICB_x2F_Layer_51_x2F__x3C_Path_x3E__x5F_23_x5F_0" viewBox="-0.017 -1.517 1.917 1.517">
	<g id="Layer_1_65_">
		<path style="fill-rule:evenodd;clip-rule:evenodd;fill:#FBF3DF;" d="M1.4-0.75L1.75-0.8L1.9-0.9C1.833-1.067,1.75-1.183,1.65-1.25
			C1.317-1.517,0.933-1.583,0.5-1.45v0.05l0.55,0.25L0.1-0.95H0.05C-0.017-0.817-0.033-0.7,0-0.6C0.067-0.4,0.233-0.2,0.5,0
			C0.633-0.467,0.933-0.717,1.4-0.75z"/>
	</g>
</symbol>
<symbol  id="FlashAICB_x2F_Layer_51_x2F__x3C_Path_x3E__x5F_23_x5F_1" viewBox="0.033 -3.639 2.817 3.694">
	<g id="Layer_1_86_">
		<path style="fill-rule:evenodd;clip-rule:evenodd;fill:#7F403A;" d="M2.7-1.25l0.15-0.8c-0.1-0.167-0.217-0.4-0.35-0.7
			c-0.133-0.267-0.317-0.467-0.55-0.6c-0.4-0.3-0.733-0.367-1-0.2c-0.534,0.4-0.833,0.816-0.9,1.25C0.017-2.1,0.033-1.9,0.1-1.7
			c0.133,0.233,0.217,0.417,0.25,0.55c0.066,0.3,0.133,0.517,0.2,0.65C0.65-0.3,0.8-0.15,1-0.05c0.4,0.167,0.833,0.133,1.3-0.1
			C2.8-0.417,2.933-0.783,2.7-1.25z"/>
	</g>
</symbol>
<symbol  id="FlashAICB_x2F_Layer_51_x2F__x3C_Path_x3E__x5F_24" viewBox="-0.04 -2.412 2.496 2.414">
	<g id="Layer_1_11_">
		<path style="fill-rule:evenodd;clip-rule:evenodd;fill:#4E6D90;" d="M2.3-1.15c0.333-0.434,0.133-0.8-0.6-1.1
			C0.967-2.55,0.417-2.433,0.05-1.9c-0.2,0.333-0.066,0.767,0.4,1.3c0.5,0.567,0.933,0.733,1.3,0.5L2.3-1.15z"/>
	</g>
</symbol>
<symbol  id="FlashAICB_x2F_Layer_51_x2F__x3C_Path_x3E__x5F_24_x5F_0" viewBox="-0.006 -2.503 2.433 2.512">
	<g id="Layer_1_43_">
		<path style="fill-rule:evenodd;clip-rule:evenodd;fill:#F1FEDF;" d="M1.15-2.5c-0.3,0.033-0.566,0.25-0.8,0.65
			c-0.267,0.367-0.383,0.7-0.35,1C0.033-0.217,0.467,0.067,1.3,0l0.95-0.5c0.267-0.3,0.233-0.717-0.1-1.25
			C1.817-2.283,1.483-2.533,1.15-2.5z"/>
	</g>
</symbol>
<symbol  id="FlashAICB_x2F_Layer_51_x2F__x3C_Path_x3E__x5F_24_x5F_1" viewBox="-0.006 -2.156 2.156 2.163">
	<g id="Layer_1_64_">
		<path style="fill-rule:evenodd;clip-rule:evenodd;fill:#89733C;" d="M2.15-1.45C1.883-1.817,1.733-2,1.7-2
			C1.533-2.167,1.333-2.2,1.1-2.1c-0.467,0.2-0.8,0.517-1,0.95c-0.2,0.4-0.117,0.733,0.25,1c0.2,0.167,0.433,0.2,0.7,0.1L1.7-0.5
			L2.15-1.45z"/>
	</g>
</symbol>
<symbol  id="FlashAICB_x2F_Layer_51_x2F__x3C_Path_x3E__x5F_24_x5F_2" viewBox="0.022 -1.406 1.728 1.406">
	<g id="Layer_1_85_">
		<path style="fill-rule:evenodd;clip-rule:evenodd;fill:#7F403A;" d="M0.05-0.5C0.15-0.167,0.417,0,0.85,0
			c0.233,0,0.5-0.117,0.8-0.35L1.55-0.7c0-0.1,0.067-0.216,0.2-0.35C1.317-1.417,0.917-1.5,0.55-1.3C0.117-1-0.05-0.733,0.05-0.5z"
			/>
	</g>
</symbol>
<symbol  id="FlashAICB_x2F_Layer_51_x2F__x3C_Path_x3E__x5F_25" viewBox="-0.006 -4.062 2.956 4.059">
	<g id="Layer_1_10_">
		<path style="fill-rule:evenodd;clip-rule:evenodd;fill:#4E6D90;" d="M0.15-1.4c0.3,1.233,0.767,1.65,1.4,1.25
			c0.133-0.1,0.383-0.434,0.75-1C2.333-1.217,2.467-1.433,2.7-1.8c0.133-0.233,0.216-0.45,0.25-0.65L2.55-3.5
			C2.45-3.667,2.167-3.817,1.7-3.95c-0.333-0.1-0.534-0.133-0.6-0.1c-0.133,0-0.317,0.117-0.55,0.35
			C-0.017-3.133-0.15-2.367,0.15-1.4z"/>
	</g>
</symbol>
<symbol  id="FlashAICB_x2F_Layer_51_x2F__x3C_Path_x3E__x5F_25_x5F_0" viewBox="0 -0.65 0.9 0.65">
	<g id="Layer_1_42_">
		<path style="fill-rule:evenodd;clip-rule:evenodd;fill:#F1FEDF;" d="M0.9-0.65C0.4-0.65,0.1-0.467,0-0.1V0
			C0.167-0.167,0.467-0.383,0.9-0.65z"/>
	</g>
</symbol>
<symbol  id="FlashAICB_x2F_Layer_51_x2F__x3C_Path_x3E__x5F_25_x5F_1" viewBox="-0.029 -2.923 4.078 2.923">
	<g id="Layer_1_63_">
		<path style="fill-rule:evenodd;clip-rule:evenodd;fill:#89733C;" d="M1.95,0c0.7-0.133,1.183-0.3,1.45-0.5
			c0.167-0.167,0.383-0.317,0.65-0.45c0-0.466-0.267-0.917-0.8-1.35c-0.8-0.6-1.5-0.767-2.1-0.5C0.75-2.633,0.433-2.383,0.2-2.05
			c-0.267,0.4-0.3,0.8-0.1,1.2C0.267-0.517,0.467-0.233,0.7,0C0.967-0.033,1.383-0.033,1.95,0z"/>
	</g>
</symbol>
<symbol  id="FlashAICB_x2F_Layer_51_x2F__x3C_Path_x3E__x5F_25_x5F_2" viewBox="-0.004 -2.851 2.903 2.876">
	<g id="Layer_1_84_">
		<path style="fill-rule:evenodd;clip-rule:evenodd;fill:#7F403A;" d="M1.85-0.2L2.8-1L2.75-1.35c0-0.433,0.017-0.683,0.05-0.75
			l0.1-0.15c-1.1-0.833-1.867-0.8-2.3,0.1C0.167-1.45-0.033-1,0-0.8c0.333,0.3,0.5,0.433,0.5,0.4C0.767-0.167,0.983-0.033,1.15,0
			C1.35,0.067,1.583,0,1.85-0.2z"/>
	</g>
</symbol>
<symbol  id="FlashAICB_x2F_Layer_51_x2F__x3C_Path_x3E__x5F_26" viewBox="0 -0.65 0.9 0.65">
	<g id="Layer_1_41_">
		<path style="fill-rule:evenodd;clip-rule:evenodd;fill:#6E8E3C;" d="M0.9-0.65C0.4-0.65,0.1-0.467,0-0.1V0
			C0.167-0.167,0.467-0.383,0.9-0.65z"/>
	</g>
</symbol>
<symbol  id="FlashAICB_x2F_Layer_51_x2F__x3C_Path_x3E__x5F_26_x5F_0" viewBox="0.017 -0.867 1.333 0.867">
	<g id="Layer_1_62_">
		<path style="fill-rule:evenodd;clip-rule:evenodd;fill:#89733C;" d="M0.5,0l0.05-0.1l0.8-0.15C1.217-0.517,1.033-0.7,0.8-0.8
			C0.533-0.933,0.317-0.867,0.15-0.6c-0.133,0.167-0.167,0.3-0.1,0.4C0.083-0.167,0.233-0.1,0.5,0z"/>
	</g>
</symbol>
<symbol  id="FlashAICB_x2F_Layer_51_x2F__x3C_Path_x3E__x5F_26_x5F_1" viewBox="0 -0.9 0.845 0.9">
	<g id="Layer_1_83_">
		<path style="fill-rule:evenodd;clip-rule:evenodd;fill:#7F403A;" d="M0.6-0.9L0-0.45C0.133-0.183,0.3-0.033,0.5,0l0.3-0.25
			C0.9-0.517,0.833-0.733,0.6-0.9z"/>
	</g>
</symbol>
<symbol  id="FlashAICB_x2F_Layer_51_x2F__x3C_Path_x3E__x5F_27" viewBox="0 -1.25 1.588 1.28">
	<g id="Layer_1_40_">
		<path style="fill-rule:evenodd;clip-rule:evenodd;fill:#F1FEDF;" d="M0.9-1.25C0.467-0.983,0.167-0.767,0-0.6
			c0,0.267,0.167,0.45,0.5,0.55c0.333,0.133,0.567,0.1,0.7-0.1L1.55-0.6C1.683-0.967,1.467-1.183,0.9-1.25z"/>
	</g>
</symbol>
<symbol  id="FlashAICB_x2F_Layer_51_x2F__x3C_Path_x3E__x5F_27_x5F_0" viewBox="0.005 -2.888 2.495 2.888">
	<g id="Layer_1_61_">
		<path style="fill-rule:evenodd;clip-rule:evenodd;fill:#89733C;" d="M2.15-0.6C2.383-0.833,2.5-1.117,2.5-1.45
			C2.467-1.55,2.35-1.7,2.15-1.9c-0.267-0.333-0.433-0.533-0.5-0.6C0.983-3,0.483-3.017,0.15-2.55c-0.3,0.466-0.133,1.017,0.5,1.65
			L1.4,0C1.567-0.167,1.817-0.367,2.15-0.6z"/>
	</g>
</symbol>
<symbol  id="FlashAICB_x2F_Layer_51_x2F__x3C_Path_x3E__x5F_27_x5F_1" viewBox="-0.05 -1.754 3.15 1.718">
	<g id="Layer_1_82_">
		<path style="fill-rule:evenodd;clip-rule:evenodd;fill:#7F403A;" d="M0.15-0.65c0.1,0.267,0.233,0.433,0.4,0.5
			C0.75-0.017,1.033,0,1.4-0.1c0.2-0.066,0.467-0.167,0.8-0.3l0.9-0.45c-0.5-0.6-1.017-0.9-1.55-0.9
			C0.983-1.783,0.533-1.617,0.2-1.25c-0.133,0.133-0.217,0.233-0.25,0.3C-0.05-0.917,0.017-0.817,0.15-0.65z"/>
	</g>
</symbol>
<symbol  id="FlashAICB_x2F_Layer_51_x2F__x3C_Path_x3E__x5F_28" viewBox="-0.027 -2.772 2.439 2.759">
	<g id="Layer_1_39_">
		<path style="fill-rule:evenodd;clip-rule:evenodd;fill:#F1FEDF;" d="M0.3-0.35c0.467,0.533,1.133,0.434,2-0.3L2.15-0.9
			C2.217-1.1,2.3-1.3,2.4-1.5c0.033-0.2,0-0.4-0.1-0.6C2.167-2.4,2.017-2.6,1.85-2.7C1.517-2.9,1.033-2.683,0.4-2.05
			C-0.133-1.45-0.167-0.883,0.3-0.35z"/>
	</g>
</symbol>
<symbol  id="FlashAICB_x2F_Layer_51_x2F__x3C_Path_x3E__x5F_28_x5F_0" viewBox="-0.02 -1.296 1.52 1.284">
	<g id="Layer_1_60_">
		<path style="fill-rule:evenodd;clip-rule:evenodd;fill:#89733C;" d="M0.25-0.2c0.3,0.233,0.6,0.25,0.9,0.05L1.5-0.7
			c-0.533-0.7-1-0.783-1.4-0.25C-0.1-0.683-0.05-0.433,0.25-0.2z"/>
	</g>
</symbol>
<symbol  id="FlashAICB_x2F_Layer_51_x2F__x3C_Path_x3E__x5F_28_x5F_1" viewBox="0 -10.275 16.15 10.285">
	<g id="Layer_1_81_">
		<path style="fill-rule:evenodd;clip-rule:evenodd;fill:#7F403A;" d="M15.35-4.95c0-0.066,0.033-0.183,0.1-0.35
			c0.1-0.133,0.133-0.25,0.1-0.35c-0.033-0.133-0.167-0.3-0.4-0.5C14.883-6.383,14.7-6.533,14.6-6.6
			c-0.467-0.533-0.85-0.95-1.15-1.25c-0.534-0.333-0.917-0.617-1.15-0.85c-0.433-0.633-0.8-1.083-1.1-1.35
			c-0.2-0.2-0.45-0.267-0.75-0.2c-0.3,0.1-0.5,0.3-0.6,0.6c-0.033,0.2,0.233,0.583,0.8,1.15c0.1,0.1,0.25,0.3,0.45,0.6
			c0.167,0.233,0.233,0.45,0.2,0.65c-0.033,0.3-0.216,0.483-0.55,0.55c-0.4,0-0.683,0.034-0.85,0.1C9.767-6.567,9.5-6.417,9.1-6.15
			C8.8-5.917,8.517-5.8,8.25-5.8L7.65-6C7.35-5.933,7.1-5.9,6.9-5.9C6.567-5.867,6.333-5.85,6.2-5.85
			C5.933-5.817,5.683-5.7,5.45-5.5C5.683-5.267,5.467-4.767,4.8-4C4.467-3.533,3.967-3.1,3.3-2.7C2.933-2.433,2.65-2.267,2.45-2.2
			C2.083-2.167,1.767-2.133,1.5-2.1C0.633-2.033,0.133-2.033,0-2.1l0.3,0.95c0.133,0.367,0.333,0.6,0.6,0.7
			c0.2,0.034,0.45,0.034,0.75,0c0.033,0.034,0.167,0.133,0.4,0.3C2.217-0.017,2.35,0.033,2.45,0c0.1,0,0.233-0.1,0.4-0.3L3.8-0.8
			c0.067-0.1,0.117-0.25,0.15-0.45c0-0.233,0.033-0.4,0.1-0.5C4.283-2.05,4.7-2.4,5.3-2.8c0.133-0.167,0.233-0.434,0.3-0.8
			c0.1-0.367,0.283-0.667,0.55-0.9c0.3-0.267,0.6-0.333,0.9-0.2c0.1,0.034,0.3,0.217,0.6,0.55C7.917-3.85,8.133-3.7,8.3-3.7
			c0.1,0,0.25-0.1,0.45-0.3c0.2-0.233,0.383-0.333,0.55-0.3c0.434,0.033,0.934,0.233,1.5,0.6l0.6-0.45
			c0.167-0.133,0.55-0.4,1.15-0.8c0.534-0.367,0.833-0.683,0.9-0.95c-0.367-0.067-0.717-0.184-1.05-0.35
			c-0.433-0.233-0.483-0.45-0.15-0.65c-0.067-0.167-0.217-0.3-0.45-0.4c-0.267-0.133-0.433-0.233-0.5-0.3
			c0.2-0.3,0.467-0.383,0.8-0.25c0.233,0.1,0.45,0.283,0.65,0.55c0.1,0.1,0.317,0.333,0.65,0.7c0.3,0.3,0.45,0.55,0.45,0.75
			c0,0.1-0.067,0.233-0.2,0.4c-0.2,0.2-0.316,0.317-0.35,0.35c-0.4,0.5-0.45,0.883-0.15,1.15c0.067,0.1,0.2,0.117,0.4,0.05
			c0.1-0.067,0.25-0.133,0.45-0.2c0.267,0,0.767,0.117,1.5,0.35l0.65,0.15C16.117-3.767,15.967-4,15.7-4.3
			C15.5-4.567,15.383-4.783,15.35-4.95z"/>
	</g>
</symbol>
<symbol  id="FlashAICB_x2F_Layer_51_x2F__x3C_Path_x3E__x5F_29" viewBox="-0.03 -1.12 1.23 1.12">
	<g id="Layer_1_38_">
		<path style="fill-rule:evenodd;clip-rule:evenodd;fill:#F1FEDF;" d="M0.15-0.15c0.167,0.2,0.35,0.2,0.55,0L1.2-0.7
			C1.033-0.9,0.85-1.033,0.65-1.1c-0.267-0.066-0.467,0.033-0.6,0.3C-0.083-0.6-0.05-0.383,0.15-0.15z"/>
	</g>
</symbol>
<symbol  id="FlashAICB_x2F_Layer_51_x2F__x3C_Path_x3E__x5F_29_x5F_0" viewBox="-0.011 -2.138 2.4 2.138">
	<g id="Layer_1_59_">
		<path style="fill-rule:evenodd;clip-rule:evenodd;fill:#89733C;" d="M0.15-0.3C0.317-0.1,0.55,0,0.85,0C1.117,0,1.333-0.1,1.5-0.3
			l0.75-0.6C2.417-1,2.433-1.183,2.3-1.45C2.167-1.65,2.017-1.8,1.85-1.9C1.55-2.233,1.167-2.217,0.7-1.85
			C0-1.25-0.183-0.733,0.15-0.3z"/>
	</g>
</symbol>
<symbol  id="FlashAICB_x2F_Layer_51_x2F__x3C_Path_x3E__x5F_29_x5F_1">
	<g id="Layer_1_80_">
	</g>
</symbol>
<symbol  id="FlashAICB_x2F_Layer_51_x2F__x3C_Path_x3E__x5F_2_x5F_0" viewBox="0 -1.05 3.05 1.05">
	<g id="Layer_1_22_">
		<path style="fill-rule:evenodd;clip-rule:evenodd;fill:#4E6D90;" d="M2.95-0.1L3.05,0L3-0.1C2.833-0.633,2.667-0.95,2.5-1.05
			c-0.133,0.066-0.567,0.167-1.3,0.3C0.6-0.65,0.2-0.5,0-0.3l0.5-0.15L1.05-0.5c0.2-0.033,0.5-0.133,0.9-0.3
			C2.217-0.767,2.55-0.533,2.95-0.1z"/>
	</g>
</symbol>
<symbol  id="FlashAICB_x2F_Layer_51_x2F__x3C_Path_x3E__x5F_2_x5F_1" viewBox="-0.012 -2.65 0.782 2.65">
	<g id="Layer_1_50_">
		<path style="fill-rule:evenodd;clip-rule:evenodd;fill:#F1FEDF;" d="M0.3-2.05L0-2.65c-0.033,0.1,0,0.3,0.1,0.6
			c0.133,0.367,0.2,0.6,0.2,0.7C0.333-0.783,0.4-0.333,0.5,0l0.15-0.15C0.85-0.883,0.8-1.533,0.5-2.1L0.4-1.6L0.3-2.05z"/>
	</g>
</symbol>
<symbol  id="FlashAICB_x2F_Layer_51_x2F__x3C_Path_x3E__x5F_2_x5F_2" viewBox="0 -18.9 14.1 18.883">
	<g id="Layer_1_52_">
		<path style="fill-rule:evenodd;clip-rule:evenodd;fill:#6E8E3C;" d="M6.35-1.2L7.5-1.95c3.733-3.2,5.933-6.517,6.6-9.95
			c-0.5-0.733-0.85-1.417-1.05-2.05c-0.033-0.1-0.017-0.35,0.05-0.75c0.033-0.267-0.05-0.483-0.25-0.65
			c-0.033-0.033-0.117-0.066-0.25-0.1c-0.1-0.033-0.184-0.1-0.25-0.2l-0.1-0.6l-0.4-1.45l-0.4-0.4l-1-0.8
			c-0.167,0.2-0.167,0.7,0,1.5c0.167,0.7,0.117,1.117-0.15,1.25c-0.066-0.067-0.216-0.233-0.45-0.5c-0.167-0.2-0.333-0.333-0.5-0.4
			c-0.267-0.167-0.783-0.284-1.55-0.35c-0.367-0.167-0.633-0.3-0.8-0.4c-0.333-0.133-0.65-0.167-0.95-0.1
			c-0.333,0.033-0.8,0.217-1.4,0.55H4.9c0.267,0,0.65-0.083,1.15-0.25c0.633,0,1.034,0.067,1.2,0.2c0.1,0.1,0.217,0.267,0.35,0.5
			c0.1,0.2,0.217,0.35,0.35,0.45c0.566,0.233,0.95,0.467,1.15,0.7c0.5,0.5,0.6,0.917,0.3,1.25c-0.066,0.1-0.3,0.15-0.7,0.15
			c-0.267,0.033-0.35,0.2-0.25,0.5c0.033,0.067,0.15,0.233,0.35,0.5c0.133,0.2,0.167,0.383,0.1,0.55
			c-0.066,0.167-0.233,0.333-0.5,0.5c-0.333,0.167-0.533,0.316-0.6,0.45c-0.033,0.167-0.05,0.283-0.05,0.35
			c-0.033,0.133-0.117,0.233-0.25,0.3c-0.267,0.133-0.483,0.083-0.65-0.15c-0.3-0.233-0.583-0.733-0.85-1.5
			c-0.1-0.167-0.267-0.367-0.5-0.6c-0.3-0.3-0.533-0.45-0.7-0.45c-0.4,0.033-0.466,0.433-0.2,1.2c0.7,1.1,1.167,1.95,1.4,2.55
			C6.133-9.883,6.133-9.567,6-9.2L5.8-8.65c-0.133,0.933-0.316,1.533-0.55,1.8C5.217-6.817,5-6.633,4.6-6.3
			C4.233-5.833,3.917-5.533,3.65-5.4c-0.4,0.2-0.767,0.133-1.1-0.2C2.317-5.967,2.1-6.167,1.9-6.2c-0.2,0-0.417,0.184-0.65,0.55
			C1.15-5.55,1.1-5.467,1.1-5.4c-0.033,0.066-0.033,0.167,0,0.3l0.4,0.5c0.533,0.533,0.817,0.9,0.85,1.1
			c0,0.267-0.184,0.633-0.55,1.1C1.667-2.3,1.567-2.217,1.5-2.15c-0.1,0.066-0.167,0.167-0.2,0.3c-0.033,0.1-0.033,0.233,0,0.4
			C1.333-1.283,1.317-1.133,1.25-1c-0.1,0.133-0.3,0.217-0.6,0.25C0.317-0.717,0.1-0.667,0-0.6c0.633,0.267,1.067,0.417,1.3,0.45
			c0.833,0.133,1.45,0.167,1.85,0.1L4.4-0.4C5.033-0.5,5.683-0.767,6.35-1.2z"/>
	</g>
</symbol>
<symbol  id="FlashAICB_x2F_Layer_51_x2F__x3C_Path_x3E__x5F_2_x5F_3" viewBox="0 -0.9 1.25 0.9">
	<g id="Layer_1_77_">
		<path style="fill-rule:evenodd;clip-rule:evenodd;fill:#89733C;" d="M0.9-0.85C0.433-0.817,0.133-0.567,0-0.1L0.2,0l0.6-0.25
			L1-0.45c0-0.133,0.067-0.267,0.2-0.4L1.25-0.9L0.9-0.85z"/>
	</g>
</symbol>
<symbol  id="FlashAICB_x2F_Layer_51_x2F__x3C_Path_x3E__x5F_3" viewBox="0 -3.19 3.056 3.204">
	<g id="Layer_1_6_">
		<path style="fill-rule:evenodd;clip-rule:evenodd;fill:#ECE0FE;" d="M1.75-0.55c1.533-1.467,1.717-2.333,0.55-2.6
			C1.967-3.217,1.717-3.2,1.55-3.1c-0.2,0.2-0.433,0.4-0.7,0.6c-0.367,0.267-0.6,0.55-0.7,0.85C0.05-1.417,0-1.033,0-0.5
			C0.033-0.1,0.267,0.067,0.7,0C1.067-0.067,1.417-0.25,1.75-0.55z"/>
	</g>
</symbol>
<symbol  id="FlashAICB_x2F_Layer_51_x2F__x3C_Path_x3E__x5F_30" viewBox="-0.01 -2.404 2.06 2.404">
	<g id="Layer_1_37_">
		<path style="fill-rule:evenodd;clip-rule:evenodd;fill:#F1FEDF;" d="M0.95-2.35C0.317-2.117,0-1.7,0-1.1
			c-0.067,0.7,0.2,1.05,0.8,1.05L1.25,0c0.133-0.167,0.333-0.433,0.6-0.8C2.05-1.1,2.1-1.4,2-1.7C1.733-2.3,1.383-2.517,0.95-2.35z"
			/>
	</g>
</symbol>
<symbol  id="FlashAICB_x2F_Layer_51_x2F__x3C_Path_x3E__x5F_30_x5F_0" viewBox="-0.012 -2.95 4.678 2.913">
	<g id="Layer_1_58_">
		<path style="fill-rule:evenodd;clip-rule:evenodd;fill:#89733C;" d="M4.3-0.8C4.167-0.967,4.083-1.083,4.05-1.15L4.6-1.6
			c0.066-0.133,0.083-0.25,0.05-0.35c-0.033-0.066-0.1-0.183-0.2-0.35l-0.1-0.35L4.3-2.55c-0.267,0.167-0.433,0.3-0.5,0.4
			c-0.167,0.367-0.333,0.633-0.5,0.8L2.7-0.9C2.467-0.733,2.317-0.683,2.25-0.75C2.217-0.75,2.1-0.9,1.9-1.2
			C1.233-2.233,0.767-2.817,0.5-2.95C-0.033-2.717-0.15-2.367,0.15-1.9L0.2-1.85c0.3-0.5,0.683-0.5,1.15,0
			c0.233,0.267,0.517,0.7,0.85,1.3c0.066,0.066,0.2,0.233,0.4,0.5c0.066,0.033,0.183,0,0.35-0.1l-0.1-0.1L3.1-0.4l0.1,0.1l0.3-0.15
			c0.033,0,0.167,0.017,0.4,0.05c0.2,0.033,0.333,0.017,0.4-0.05C4.4-0.55,4.4-0.667,4.3-0.8z"/>
	</g>
</symbol>
<symbol  id="FlashAICB_x2F_Layer_51_x2F__x3C_Path_x3E__x5F_30_x5F_1" viewBox="0 -1.9 1.85 1.9">
	<g id="Layer_1_79_">
		<path style="fill-rule:evenodd;clip-rule:evenodd;fill:#7F403A;" d="M0.4-1.85L0.15-1.9L0-1.75c0.167,0.033,0.567,0.367,1.2,1
			L1.85,0l-0.4-0.7C1.117-1.3,0.767-1.683,0.4-1.85z"/>
	</g>
</symbol>
<symbol  id="FlashAICB_x2F_Layer_51_x2F__x3C_Path_x3E__x5F_31" viewBox="-0.052 -1.378 1.852 1.408">
	<g id="Layer_1_36_">
		<path style="fill-rule:evenodd;clip-rule:evenodd;fill:#F1FEDF;" d="M1.5-0.05L1.8-0.7C1.233-1.467,0.7-1.583,0.2-1.05
			c-0.367,0.367-0.333,0.667,0.1,0.9C0.7,0.05,1.1,0.083,1.5-0.05z"/>
	</g>
</symbol>
<symbol  id="FlashAICB_x2F_Layer_51_x2F__x3C_Path_x3E__x5F_31_x5F_0" viewBox="0 -0.45 0.35 0.45">
	<g id="Layer_1_57_">
		<polygon style="fill-rule:evenodd;clip-rule:evenodd;fill:#89733C;" points="0.25,-0.35 0,-0.15 0.2,0 0.35,-0.45 		"/>
	</g>
</symbol>
<symbol  id="FlashAICB_x2F_Layer_51_x2F__x3C_Path_x3E__x5F_32" viewBox="-0.014 -2.7 2.93 2.705">
	<g id="Layer_1_35_">
		<path style="fill-rule:evenodd;clip-rule:evenodd;fill:#F1FEDF;" d="M0.75-2.7c-0.367,0.034-0.6,0.184-0.7,0.45
			C-0.05-1.983-0.033-1.667,0.1-1.3c0.1,0.233,0.333,0.517,0.7,0.85C1.2-0.117,1.5,0.033,1.7,0l0.7-0.45
			C3.033-0.883,3.083-1.367,2.55-1.9C2.05-2.433,1.45-2.7,0.75-2.7z"/>
	</g>
</symbol>
<symbol  id="FlashAICB_x2F_Layer_51_x2F__x3C_Path_x3E__x5F_32_x5F_0" viewBox="0 -2.4 0.617 2.4">
	<g id="Layer_1_56_">
		<path style="fill-rule:evenodd;clip-rule:evenodd;fill:#89733C;" d="M0.2-0.9c0,0.3-0.034,0.517-0.1,0.65L0,0l0.35-0.35
			c0.267-0.367,0.333-0.867,0.2-1.5c0-0.133-0.05-0.316-0.15-0.55L0.3-1.9C0.233-1.667,0.2-1.333,0.2-0.9z"/>
	</g>
</symbol>
<symbol  id="FlashAICB_x2F_Layer_51_x2F__x3C_Path_x3E__x5F_33" viewBox="-0.027 -1.464 1.727 1.482">
	<g id="Layer_1_34_">
		<path style="fill-rule:evenodd;clip-rule:evenodd;fill:#6E8E3C;" d="M1.25-0.15l0.45-0.5c-0.3-0.367-0.5-0.6-0.6-0.7
			C0.833-1.517,0.567-1.5,0.3-1.3c-0.4,0.333-0.433,0.667-0.1,1C0.5,0.067,0.85,0.117,1.25-0.15z"/>
	</g>
</symbol>
<symbol  id="FlashAICB_x2F_Layer_51_x2F__x3C_Path_x3E__x5F_33_x5F_0" viewBox="0 -7 6.25 6.963">
	<g id="Layer_1_55_">
		<path style="fill-rule:evenodd;clip-rule:evenodd;fill:#89733C;" d="M5.65-1.15c0.267,0,0.467-0.133,0.6-0.4L5.9-1.9
			C5.8-1.933,5.733-2,5.7-2.1c0-0.033-0.067-0.083-0.2-0.15l-0.45-0.3L4.6-2.65c-0.1,0-0.2-0.083-0.3-0.25L4-3.35
			c-0.067-0.133-0.317-0.4-0.75-0.8c-0.367-0.367-0.567-0.667-0.6-0.9c-0.1-0.8-0.333-1.383-0.7-1.75C1.783-7,1.617-7.05,1.45-6.95
			c-0.133,0.1-0.2,0.284-0.2,0.55C1.517-5.733,1.6-5.283,1.5-5.05c0.133,0.566,0.133,0.933,0,1.1c0.1,0.167,0.117,0.434,0.05,0.8
			C1.483-2.75,1.433-2.467,1.4-2.3C1.333-1.633,1.1-1.25,0.7-1.15c-0.267-0.1-0.483-0.067-0.65,0.1L0-0.4v0.1l0.1-0.1
			c0.133-0.067,0.25-0.067,0.35,0C0.583-0.3,0.7-0.25,0.8-0.25c0.067,0,0.167-0.05,0.3-0.15c0.1-0.1,0.2-0.133,0.3-0.1
			c0.1,0,0.233,0.083,0.4,0.25c0.167,0.133,0.317,0.2,0.45,0.2c0.2,0.033,0.533,0,1-0.1c0.4-0.067,0.733-0.05,1,0.05
			c0-0.233-0.117-0.5-0.35-0.8C3.633-1.233,3.45-1.467,3.35-1.6c0.3-0.333,0.566-0.467,0.8-0.4C4.25-1.967,4.533-1.783,5-1.45
			C5.2-1.283,5.417-1.183,5.65-1.15z"/>
	</g>
</symbol>
<symbol  id="FlashAICB_x2F_Layer_51_x2F__x3C_Path_x3E__x5F_34" viewBox="0.023 -2.8 2.624 2.82">
	<g id="Layer_1_33_">
		<path style="fill-rule:evenodd;clip-rule:evenodd;fill:#6E8E3C;" d="M1.15-2.8c-0.867,0.533-1.233,1.1-1.1,1.7
			c0.034,0.167,0.133,0.367,0.3,0.6C0.483-0.2,0.617-0.033,0.75,0C0.95,0.067,1.2-0.033,1.5-0.3C1.667-0.467,1.883-0.7,2.15-1
			L2.6-1.25C2.733-1.483,2.583-1.867,2.15-2.4c-0.1-0.1-0.267-0.167-0.5-0.2C1.45-2.633,1.283-2.7,1.15-2.8z"/>
	</g>
</symbol>
<symbol  id="FlashAICB_x2F_Layer_51_x2F__x3C_Path_x3E__x5F_34_x5F_0" viewBox="0 -2.95 2.25 2.975">
	<g id="Layer_1_54_">
		<path style="fill-rule:evenodd;clip-rule:evenodd;fill:#89733C;" d="M1.45-1.4c0.066,0.2,0.1,0.383,0.1,0.55
			C1.583-0.417,1.4-0.2,1-0.2c-0.1,0-0.433-0.066-1-0.2c0.1,0.033,0.217,0.1,0.35,0.2C0.45-0.1,0.567-0.033,0.7,0
			c0.333,0.067,0.65,0,0.95-0.2c0.2-0.133,0.3-0.3,0.3-0.5c0-0.133-0.034-0.35-0.1-0.65c0-0.167,0.117-0.4,0.35-0.7l0.05-0.6
			L2.1-2.95c-0.033,0.133-0.117,0.3-0.25,0.5c-0.167,0.233-0.267,0.4-0.3,0.5C1.45-1.75,1.417-1.567,1.45-1.4z"/>
	</g>
</symbol>
<symbol  id="FlashAICB_x2F_Layer_51_x2F__x3C_Path_x3E__x5F_35" viewBox="-0.035 -2.96 3.235 2.899">
	<g id="Layer_1_32_">
		<path style="fill-rule:evenodd;clip-rule:evenodd;fill:#6E8E3C;" d="M3.15-1L3.2-2C2.967-2.4,2.767-2.667,2.6-2.8
			C2.467-2.933,2.317-2.983,2.15-2.95c-0.2,0.067-0.367,0.133-0.5,0.2c-0.433,0.1-0.75,0.2-0.95,0.3C0.333-2.283,0.1-2.067,0-1.8
			c-0.1,0.333,0.017,0.667,0.35,1C0.583-0.533,0.867-0.333,1.2-0.2c0.566,0.2,1,0.184,1.3-0.05C2.867-0.483,3.083-0.733,3.15-1z"/>
	</g>
</symbol>
<symbol  id="FlashAICB_x2F_Layer_51_x2F__x3C_Path_x3E__x5F_35_x5F_0" viewBox="0.006 -1.261 2.544 1.261">
	<g id="Layer_1_53_">
		<path style="fill-rule:evenodd;clip-rule:evenodd;fill:#89733C;" d="M2.45-0.45c-0.2,0.133-0.367,0.184-0.5,0.15
			C1.85-0.333,1.767-0.4,1.7-0.5L1.5-0.75c-0.433-0.5-0.833-0.633-1.2-0.4c-0.333,0.2-0.383,0.483-0.15,0.85
			C0.35-0.567,0.6-0.65,0.9-0.55c0.033,0,0.283,0.133,0.75,0.4c0.333,0.2,0.633,0.2,0.9,0L2.45-0.45z"/>
	</g>
</symbol>
<symbol  id="FlashAICB_x2F_Layer_51_x2F__x3C_Path_x3E__x5F_36" viewBox="0.022 -1.9 1.841 1.89">
	<g id="Layer_1_31_">
		<path style="fill-rule:evenodd;clip-rule:evenodd;fill:#6E8E3C;" d="M0.1-0.5c0.3,0.467,0.633,0.6,1,0.4l0.65-0.55
			c0.1-0.267,0.133-0.45,0.1-0.55c-0.033-0.033-0.167-0.167-0.4-0.4c-0.2-0.2-0.367-0.3-0.5-0.3S0.633-1.783,0.4-1.55
			C0.033-1.183-0.067-0.833,0.1-0.5z"/>
	</g>
</symbol>
<symbol  id="FlashAICB_x2F_Layer_51_x2F__x3C_Path_x3E__x5F_37" viewBox="0 -1 0.75 1">
	<g id="Layer_1_29_">
		<path style="fill-rule:evenodd;clip-rule:evenodd;fill:#6E8E3C;" d="M0.7-0.85H0.55L0.2-1L0.1-0.8c-0.133,0.2-0.133,0.466,0,0.8
			l0.2-0.35l0.45-0.4L0.7-0.85z"/>
	</g>
</symbol>
<symbol  id="FlashAICB_x2F_Layer_51_x2F__x3C_Path_x3E__x5F_38" viewBox="-0.007 -6.05 9.857 6.061">
	<g id="Layer_1_28_">
		<path style="fill-rule:evenodd;clip-rule:evenodd;fill:#6E8E3C;" d="M6.4-2.1C6.3-1.733,6-1.517,5.5-1.45
			c-0.867,0.067-1.633-0.1-2.3-0.5c-0.333-0.2-0.717-0.367-1.15-0.5C1.717-2.55,1.433-2.733,1.2-3C1.1-3.1,0.95-3.233,0.75-3.4
			c-0.167-0.167-0.333-0.2-0.5-0.1C0.05-3.367-0.033-3.233,0-3.1c0.133-0.066,0.25-0.05,0.35,0.05c0.2-0.1,0.633,0.066,1.3,0.5
			c1.367,0.833,2.117,1.267,2.25,1.3C4.1-1.217,4.35-1.167,4.65-1.1C4.917-1.033,5.133-0.9,5.3-0.7C6.033,0,6.567,0.183,6.9-0.15
			C7.033-0.283,7.083-0.4,7.05-0.5C6.95-0.6,6.867-0.7,6.8-0.8C6.767-0.9,6.75-1.117,6.75-1.45C6.783-1.817,6.883-2.1,7.05-2.3
			c0.067-0.1,0.267-0.3,0.6-0.6L8.3-3.4C8.5-3.567,8.6-3.767,8.6-4C8.667-4.2,8.8-4.383,9-4.55c0.133-0.1,0.317-0.233,0.55-0.4
			c0.2-0.2,0.3-0.367,0.3-0.5c0-0.1-0.067-0.25-0.2-0.45l-0.1-0.15c0,0.3-0.2,0.65-0.6,1.05C8.35-4.633,7.933-4.317,7.7-4.05
			C7.6-3.75,7.5-3.533,7.4-3.4C7.2-3.267,7.067-3.167,7-3.1C6.767-2.867,6.567-2.533,6.4-2.1z"/>
	</g>
</symbol>
<symbol  id="FlashAICB_x2F_Layer_51_x2F__x3C_Path_x3E__x5F_3_x5F_0" viewBox="0 -1.05 3.05 1.05">
	<g id="Layer_1_21_">
		<path style="fill-rule:evenodd;clip-rule:evenodd;fill:#4E6D90;" d="M2.95-0.1L3.05,0L3-0.1C2.833-0.633,2.667-0.95,2.5-1.05
			c-0.133,0.066-0.567,0.167-1.3,0.3C0.6-0.65,0.2-0.5,0-0.3l0.5-0.15L1.05-0.5c0.2-0.033,0.5-0.133,0.9-0.3
			C2.217-0.767,2.55-0.533,2.95-0.1z"/>
	</g>
</symbol>
<symbol  id="FlashAICB_x2F_Layer_51_x2F__x3C_Path_x3E__x5F_3_x5F_1" viewBox="-0.012 -2.65 0.782 2.65">
	<g id="Layer_1_49_">
		<path style="fill-rule:evenodd;clip-rule:evenodd;fill:#6E8E3C;" d="M0.3-2.05L0-2.65c-0.033,0.1,0,0.3,0.1,0.6
			c0.133,0.367,0.2,0.6,0.2,0.7C0.333-0.783,0.4-0.333,0.5,0l0.15-0.15C0.85-0.883,0.8-1.533,0.5-2.1L0.4-1.6L0.3-2.05z"/>
	</g>
</symbol>
<symbol  id="FlashAICB_x2F_Layer_51_x2F__x3C_Path_x3E__x5F_3_x5F_2" viewBox="0 -0.9 1.25 0.9">
	<g id="Layer_1_76_">
		<path style="fill-rule:evenodd;clip-rule:evenodd;fill:#FBF3DF;" d="M0.9-0.85C0.433-0.817,0.133-0.567,0-0.1L0.2,0l0.6-0.25
			L1-0.45c0-0.133,0.067-0.267,0.2-0.4L1.25-0.9L0.9-0.85z"/>
	</g>
</symbol>
<symbol  id="FlashAICB_x2F_Layer_51_x2F__x3C_Path_x3E__x5F_4" viewBox="0 -2.5 2.111 2.5">
	<g id="Layer_1_20_">
		<path style="fill-rule:evenodd;clip-rule:evenodd;fill:#4E6D90;" d="M1.95-2.5c0,0.3-0.083,0.6-0.25,0.9
			C1.533-1.3,1.283-1.017,0.95-0.75C0.35-0.317,0.033-0.083,0-0.05L0.1,0c0.3-0.233,0.8-0.567,1.5-1C2.1-1.4,2.233-1.867,2-2.4
			L1.95-2.5z"/>
	</g>
</symbol>
<symbol  id="FlashAICB_x2F_Layer_51_x2F__x3C_Path_x3E__x5F_4_x5F_0">
	<g id="Layer_1_48_">
	</g>
</symbol>
<symbol  id="FlashAICB_x2F_Layer_51_x2F__x3C_Path_x3E__x5F_4_x5F_1" viewBox="0 -1.55 3.35 1.55">
	<g id="Layer_1_75_">
		<path style="fill-rule:evenodd;clip-rule:evenodd;fill:#89733C;" d="M2.8-0.5c0.367-0.333,0.55-0.683,0.55-1.05
			C3.083-1.417,2.867-1.267,2.7-1.1C2.433-0.9,1.95-0.733,1.25-0.6C0.683-0.633,0.267-0.633,0-0.6L0.5,0L2.8-0.5z"/>
	</g>
</symbol>
<symbol  id="FlashAICB_x2F_Layer_51_x2F__x3C_Path_x3E__x5F_5" viewBox="0 -5.45 8.65 5.456">
	<g id="Layer_1_19_">
		<path style="fill-rule:evenodd;clip-rule:evenodd;fill:#4E6D90;" d="M8.65-0.1v-0.1C8.55-1.633,8.1-2.767,7.3-3.6
			C6.833-3,6.517-2.667,6.35-2.6c-0.633,0-1.067,0.017-1.3,0.05C4.45-2.283,4.033-2.1,3.8-2C3.433-1.833,3.05-1.967,2.65-2.4
			C2.45-2.633,2.2-3.033,1.9-3.6C1.633-4.167,1.383-4.567,1.15-4.8c-0.3-0.233-0.667-0.45-1.1-0.65L0-5.35
			C0-5.217,0.133-5.033,0.4-4.8c0.3,0.233,0.483,0.383,0.55,0.45c0.333,0.333,0.617,0.767,0.85,1.3C2-2.383,2.217-1.9,2.45-1.6
			C2.617-1.3,2.767-1.067,2.9-0.9c0.233,0.267,0.45,0.35,0.65,0.25C3.683-0.717,3.817-0.9,3.95-1.2l0.3-0.25
			c0.2-0.2,0.6-0.35,1.2-0.45c0.733-0.133,1.167-0.233,1.3-0.3c0.167,0.1,0.333,0.417,0.5,0.95l0.05,0.1
			c0.1,0.133,0.267,0.4,0.5,0.8C8-0.083,8.2,0.033,8.4,0L8.65-0.1z"/>
	</g>
</symbol>
<symbol  id="FlashAICB_x2F_Layer_51_x2F__x3C_Path_x3E__x5F_5_x5F_0">
	<g id="Layer_1_47_">
	</g>
</symbol>
<symbol  id="FlashAICB_x2F_Layer_51_x2F__x3C_Path_x3E__x5F_5_x5F_1" viewBox="0 -1.55 3.35 1.55">
	<g id="Layer_1_74_">
		<path style="fill-rule:evenodd;clip-rule:evenodd;fill:#89733C;" d="M2.8-0.5c0.367-0.333,0.55-0.683,0.55-1.05
			C3.083-1.417,2.867-1.267,2.7-1.1C2.433-0.9,1.95-0.733,1.25-0.6C0.683-0.633,0.267-0.633,0-0.6L0.5,0L2.8-0.5z"/>
	</g>
</symbol>
<symbol  id="FlashAICB_x2F_Layer_51_x2F__x3C_Path_x3E__x5F_6" viewBox="0.016 -8.2 13.255 8.2">
	<g id="Layer_1_18_">
		<path style="fill-rule:evenodd;clip-rule:evenodd;fill:#4E6D90;" d="M10.35-2.25l0.4-0.5c0.1-0.4,0.2-0.65,0.3-0.75l0.45-0.55
			c0.133-0.3,0.383-0.55,0.75-0.75c0.067-0.2,0.1-0.534,0.1-1c0.033-0.133,0.233-0.434,0.6-0.9c0.267-0.367,0.367-0.7,0.3-1
			L12.9-8.2c0.1,0.467-0.1,1.017-0.6,1.65c-0.633,0.667-1.05,1.233-1.25,1.7c-0.267,0.633-0.4,0.967-0.4,1
			c-0.167,0.3-0.417,0.567-0.75,0.8C9.033-2.35,8.517-1.933,8.35-1.8C7.65-1.367,7.067-1.25,6.6-1.45
			C6.433-1.517,6.217-1.667,5.95-1.9c-0.267-0.2-0.467-0.333-0.6-0.4C5.217-2.333,4.9-2.367,4.4-2.4c-0.433,0-0.767-0.083-1-0.25
			c-0.133-0.1-0.5-0.6-1.1-1.5C1.833-4.817,1.35-5.1,0.85-5C0.117-4.867-0.133-4.617,0.1-4.25C0.9-4.517,1.767-4.133,2.7-3.1
			c0.233,0.2,0.517,0.5,0.85,0.9c0.3,0.3,0.667,0.5,1.1,0.6c0.434,0.033,0.833,0.267,1.2,0.7c0.3,0.333,0.5,0.533,0.6,0.6
			C6.683-0.1,6.967,0,7.3,0c0.067,0,0.317-0.05,0.75-0.15C8.35-0.217,8.6-0.233,8.8-0.2l0.55,0.1C9.517-0.167,9.7-0.3,9.9-0.5
			c0.2-0.2,0.317-0.367,0.35-0.5c0.033-0.1,0.033-0.317,0-0.65C10.217-1.883,10.25-2.083,10.35-2.25z"/>
	</g>
</symbol>
<symbol  id="FlashAICB_x2F_Layer_51_x2F__x3C_Path_x3E__x5F_6_x5F_0" viewBox="-0.027 -3.05 2.877 3.05">
	<g id="Layer_1_27_">
		<path style="fill-rule:evenodd;clip-rule:evenodd;fill:#E5F4FF;" d="M1.1-1.45L2.85,0C2.783-0.3,2.567-0.65,2.2-1.05
			c-0.2-0.233-0.5-0.567-0.9-1C0.967-2.517,0.767-2.767,0.7-2.8C0.6-2.867,0.433-2.95,0.2-3.05c-0.333,0.1-0.3,0.367,0.1,0.8
			C0.5-2.05,0.767-1.783,1.1-1.45z"/>
	</g>
</symbol>
<symbol  id="FlashAICB_x2F_Layer_51_x2F__x3C_Path_x3E__x5F_6_x5F_1">
	<g id="Layer_1_46_">
	</g>
</symbol>
<symbol  id="FlashAICB_x2F_Layer_51_x2F__x3C_Path_x3E__x5F_6_x5F_2" viewBox="0 -2 1.164 2">
	<g id="Layer_1_73_">
		<path style="fill-rule:evenodd;clip-rule:evenodd;fill:#89733C;" d="M1.05-1.4C1.183-1.633,1.2-1.833,1.1-2
			c0,0.333-0.117,0.617-0.35,0.85C0.417-0.917,0.167-0.717,0-0.55C0.367-0.183,0.633,0,0.8,0l0.05-0.1L1.05-1.4z"/>
	</g>
</symbol>
<symbol  id="FlashAICB_x2F_Layer_51_x2F__x3C_Path_x3E__x5F_7" viewBox="0 -1.75 2.2 1.75">
	<g id="Layer_1_26_">
		<path style="fill-rule:evenodd;clip-rule:evenodd;fill:#E5F4FF;" d="M1-0.8L2.2,0l-1-1.1L0.35-1.75C0.217-1.717,0.1-1.617,0-1.45
			C0.067-1.217,0.4-1,1-0.8z"/>
	</g>
</symbol>
<symbol  id="FlashAICB_x2F_Layer_51_x2F__x3C_Path_x3E__x5F_7_x5F_0">
	<g id="Layer_1_45_">
	</g>
</symbol>
<symbol  id="FlashAICB_x2F_Layer_51_x2F__x3C_Path_x3E__x5F_7_x5F_1" viewBox="0 -2 1.164 2">
	<g id="Layer_1_72_">
		<path style="fill-rule:evenodd;clip-rule:evenodd;fill:#89733C;" d="M1.05-1.4C1.183-1.633,1.2-1.833,1.1-2
			c0,0.333-0.117,0.617-0.35,0.85C0.417-0.917,0.167-0.717,0-0.55C0.367-0.183,0.633,0,0.8,0l0.05-0.1L1.05-1.4z"/>
	</g>
</symbol>
<symbol  id="FlashAICB_x2F_Layer_51_x2F__x3C_Path_x3E__x5F_8" viewBox="0 -15.45 18.958 15.45">
	<g id="Layer_1_25_">
		<path style="fill-rule:evenodd;clip-rule:evenodd;fill:#4E6D90;" d="M10.9-0.5c0.434-0.167,1.1-0.417,2-0.75
			c0.4-0.2,0.717-0.483,0.95-0.85c0.167-0.2,0.383-0.517,0.65-0.95c0.167-0.2,0.95-0.8,2.35-1.8c0.9-0.633,1.367-1.433,1.4-2.4
			c0.033-0.533,0.067-1.383,0.1-2.55c0.033-0.1,0.167-0.5,0.4-1.2c0.167-0.5,0.233-0.9,0.2-1.2c-0.067-0.433-0.4-0.966-1-1.6
			c-0.233-0.367-0.417-0.917-0.55-1.65c-0.333,0.1-0.617,0.3-0.85,0.6c-0.367,0.7-0.716,1.167-1.05,1.4
			c-0.333,0.233-0.8,0.267-1.4,0.1c-0.633-0.267-1.1-0.417-1.4-0.45c-0.3-0.067-0.517-0.1-0.65-0.1c-0.2,0-0.4,0.066-0.6,0.2
			c-0.333,0.2-0.617,0.467-0.85,0.8c-0.567,0.5-0.95,0.9-1.15,1.2l-0.4,0.55c-0.167,0.367-0.316,0.633-0.45,0.8
			C8.233-9.883,7.783-9.8,7.25-10.1c-0.167-0.1-0.333-0.167-0.5-0.2c-0.233-0.034-0.333,0.083-0.3,0.35
			c0.233,0.233,0.4,0.417,0.5,0.55C7.117-9.167,7.2-8.983,7.2-8.85c0,0.3-0.217,0.667-0.65,1.1C5.983-7.383,5.6-7.067,5.4-6.8
			C4.9-6.133,4.633-5.783,4.6-5.75c-0.267,0.2-0.5,0.433-0.7,0.7l-0.45,0.6c-0.3,0.3-0.684,0.4-1.15,0.3
			C2.167-4.183,1.983-4.2,1.75-4.2c-0.267,0-0.467-0.017-0.6-0.05C0.883-4.283,0.5-4.4,0-4.6l0.3,0.4L7.55,0
			C9.017,0,10.133-0.167,10.9-0.5z"/>
	</g>
</symbol>
<symbol  id="FlashAICB_x2F_Layer_51_x2F__x3C_Path_x3E__x5F_8_x5F_0" viewBox="0.017 -1.25 0.833 1.25">
	<g id="Layer_1_44_">
		<path style="fill-rule:evenodd;clip-rule:evenodd;fill:#F1FEDF;" d="M0.25-0.75c-0.167-0.167-0.233-0.333-0.2-0.5
			c-0.066,0.1-0.033,0.283,0.1,0.55C0.317-0.267,0.4-0.033,0.4,0c0.3-0.167,0.45-0.383,0.45-0.65V-0.7L0.25-0.75z"/>
	</g>
</symbol>
<symbol  id="FlashAICB_x2F_Layer_51_x2F__x3C_Path_x3E__x5F_8_x5F_1" viewBox="0 -0.6 0.65 0.6">
	<g id="Layer_1_71_">
		<polygon style="fill-rule:evenodd;clip-rule:evenodd;fill:#89733C;" points="0.1,0 0.35,-0.1 0.65,-0.45 0.45,-0.6 0,-0.3 		"/>
	</g>
</symbol>
<symbol  id="FlashAICB_x2F_Layer_51_x2F__x3C_Path_x3E__x5F_9" viewBox="-0.008 -1 1.058 1">
	<g id="Layer_1_51_">
		<path style="fill-rule:evenodd;clip-rule:evenodd;fill:#F1FEDF;" d="M0.3-1L0.05-0.85L0-0.6c-0.033,0.167,0.033,0.333,0.2,0.5
			l0.6,0.05L1.05,0l-0.6-0.85L0.3-1z"/>
	</g>
</symbol>
<symbol  id="FlashAICB_x2F_Layer_51_x2F__x3C_Path_x3E__x5F_9_x5F_0" viewBox="0 -0.6 0.65 0.6">
	<g id="Layer_1_70_">
		<polygon style="fill-rule:evenodd;clip-rule:evenodd;fill:#89733C;" points="0.1,0 0.35,-0.1 0.65,-0.45 0.45,-0.6 0,-0.3 		"/>
	</g>
</symbol>
<symbol  id="Symbol_1" viewBox="0.009 -45.8 39.648 45.789">
	<g id="Layer_1_96_">
		<g>
			<g>
				
					<linearGradient id="SVGID_1_" gradientUnits="userSpaceOnUse" x1="-3303.0322" y1="-6927.1211" x2="-3278.366" y2="-6927.1211" gradientTransform="matrix(0.7791 -0.6269 0.6269 0.7791 6919.4453 3304.1416)">
					<stop  offset="0" style="stop-color:#A7C0D5"/>
					<stop  offset="1" style="stop-color:#8B9DAF"/>
				</linearGradient>
				<path style="fill-rule:evenodd;clip-rule:evenodd;fill:url(#SVGID_1_);" d="M7.15-21.8c2.633-0.733,5.2-1.95,7.7-3.65
					c2.533-1.733,4.733-4.05,6.6-6.95c0.933-1.466,1.617-2.75,2.05-3.85c-0.767-0.433-1.8-0.683-3.1-0.75
					c-2.566-0.133-5.15,0.733-7.75,2.6L5.1-29.15c-0.267,1.2-0.533,2.883-0.8,5.05l-0.35,2.9L7.15-21.8z"/>
			</g>
			<g>
				
					<radialGradient id="SVGID_2_" cx="9651.4502" cy="3197.2324" r="21.7477" gradientTransform="matrix(0.5874 0.8093 0.6455 -0.4943 -7726.6738 -6268.4893)" gradientUnits="userSpaceOnUse">
					<stop  offset="0" style="stop-color:#431481"/>
					<stop  offset="1" style="stop-color:#D5BCF6"/>
				</radialGradient>
				<path style="fill-rule:evenodd;clip-rule:evenodd;fill:url(#SVGID_2_);" d="M18.95-20.25c1.066-0.633,1.966-1.433,2.7-2.4
					c0.3-0.367,0.633-1.183,1-2.45c0.267-1.034,0.45-1.934,0.55-2.7c0.066-0.767,0.233-2.033,0.5-3.8c0.033-0.4-0.034-0.95-0.2-1.65
					c-0.167-0.767-0.35-1.316-0.55-1.65c-0.267-0.5-0.684-1.117-1.25-1.85c-1.267-0.033-2.717,0.117-4.35,0.45
					c-3.267,0.633-5.75,1.783-7.45,3.45c-1.7,1.667-3.217,3.833-4.55,6.5l-1.5,3.55c0,0.267,0.183,0.65,0.55,1.15
					c0.2,0.267,0.75,0.667,1.65,1.2c0.8,0.466,1.483,0.816,2.05,1.05c0.433,0.2,1.1,0.317,2,0.35c0.467,0.033,0.883,0.05,1.25,0.05
					l1.25-0.05c0.066,0,0.75,0.1,2.05,0.3c0.934,0.134,1.633,0.05,2.1-0.25C17.117-19.267,17.85-19.683,18.95-20.25z"/>
				
					<use xlink:href="#FlashAICB_x2F_Layer_51_x2F__x3C_Path_x3E__x5F_14"  width="13.279" height="8.097" x="-0.001" y="-8.128" transform="matrix(1 0 0 1 9.0498 -29.2002)" style="overflow:visible;opacity:0.3516;enable-background:new    ;"/>
				
					<use xlink:href="#FlashAICB_x2F_Layer_51_x2F__x3C_Path_x3E__x5F_13"  width="3.357" height="5.962" y="-5.962" transform="matrix(1 0 0 1 19.3999 -24.6499)" style="overflow:visible;opacity:0.1406;enable-background:new    ;"/>
				
					<use xlink:href="#FlashAICB_x2F_Layer_51_x2F__x3C_Path_x3E__x5F_12"  width="3.36" height="2.458" x="-0.03" y="-2.453" transform="matrix(1 0 0 1 20.2002 -31.3496)" style="overflow:visible;opacity:0.1797;enable-background:new    ;"/>
				
					<use xlink:href="#FlashAICB_x2F_Layer_51_x2F__x3C_Path_x3E__x5F_11"  width="1.309" height="1.088" x="-0.013" y="-1.063" transform="matrix(1 0 0 1 18.0498 -30.0498)" style="overflow:visible;opacity:0.2305;enable-background:new    ;"/>
				<path style="fill-rule:evenodd;clip-rule:evenodd;fill:#E6D3FE;" d="M14.8-19.05l0.4-0.1c0.767-0.167,1.283-0.483,1.55-0.95
					c0.267-0.5,0.067-0.784-0.6-0.85c-0.533-0.067-0.833-0.067-0.9,0c-0.167,0.2-0.317,0.316-0.45,0.35
					c-0.4,0.1-0.667,0.183-0.8,0.25c-0.167,0.1-0.3,0.283-0.4,0.55c-0.067,0.233,0.117,0.434,0.55,0.6
					C14.35-19.133,14.567-19.083,14.8-19.05z"/>
				<path style="fill-rule:evenodd;clip-rule:evenodd;fill:#DABEFE;" d="M12.65-19.85c0.367-0.167,0.317-0.384-0.15-0.65
					c-0.467-0.233-0.767-0.183-0.9,0.15c-0.1,0.267-0.017,0.483,0.25,0.65l0.4,0.2L12.65-19.85z"/>
				<path style="fill-rule:evenodd;clip-rule:evenodd;fill:#DABEFE;" d="M12.25-22.1c0.233,0.366,0.383,0.616,0.45,0.75
					c0.133,0.2,0.383,0.283,0.75,0.25c0.367,0,0.667-0.067,0.9-0.2c0.566-0.3,0.983-0.8,1.25-1.5c0.3-0.633,0.35-1.133,0.15-1.5
					c-0.167-0.3-0.367-0.434-0.6-0.4c-0.3,0.1-0.583,0.167-0.85,0.2c-0.3,0.034-0.583,0.15-0.85,0.35c-0.333,0.367-0.633,0.7-0.9,1
					C12.217-22.816,12.117-22.466,12.25-22.1z"/>
				<path style="fill-rule:evenodd;clip-rule:evenodd;fill:#DABEFE;" d="M16.35-21.5c0.267-0.2,0.333-0.417,0.2-0.65
					c-0.133-0.267-0.367-0.233-0.7,0.1c-0.3,0.3-0.333,0.5-0.1,0.6C15.95-21.316,16.15-21.333,16.35-21.5z"/>
				<path style="fill-rule:evenodd;clip-rule:evenodd;fill:#E6D3FE;" d="M18.4-20.8c0.267-0.233,0.35-0.533,0.25-0.9
					c-0.1-0.467-0.083-0.9,0.05-1.3c0.367-1.066-0.034-1.533-1.2-1.4c-0.367,0.034-0.55,0.184-0.55,0.45
					c0.1,0.333,0.15,0.633,0.15,0.9c0.267,1.2,0.367,2.1,0.3,2.7c-0.033,0.333,0.033,0.433,0.2,0.3
					C17.7-20.15,17.967-20.4,18.4-20.8z"/>
				<path style="fill-rule:evenodd;clip-rule:evenodd;fill:#DABEFE;" d="M9.45-20.2c0.3-0.167,0.617-0.483,0.95-0.95
					c0.2-0.233,0.467-0.6,0.8-1.1c0.233-0.3,0.3-0.716,0.2-1.25c-0.1-0.5-0.3-0.783-0.6-0.85c-0.2-0.067-0.466,0.133-0.8,0.6
					c-0.367,0.634-0.65,1.117-0.85,1.45c-0.167,0.3-0.433,0.6-0.8,0.9c-0.267,0.2-0.434,0.45-0.5,0.75
					c-0.1,0.4,0.066,0.617,0.5,0.65C8.717-19.933,9.083-20,9.45-20.2z"/>
				<path style="fill-rule:evenodd;clip-rule:evenodd;fill:#DABEFE;" d="M10.5-19.65c0.2-0.133,0.2-0.25,0-0.35
					c-0.167-0.1-0.367-0.066-0.6,0.1s-0.25,0.284-0.05,0.35C10.017-19.45,10.233-19.483,10.5-19.65z"/>
				
					<use xlink:href="#FlashAICB_x2F_Layer_51_x2F__x3C_Path_x3E__x5F_3"  width="3.056" height="3.204" y="-3.19" transform="matrix(1 0 0 1 12.3501 -25.5498)" style="overflow:visible;opacity:0.1797;enable-background:new    ;"/>
				
					<use xlink:href="#FlashAICB_x2F_Layer_51_x2F__x3C_Path_x3E__x5F_2"  width="3.273" height="3.17" x="-0.017" y="-3.2" transform="matrix(1 0 0 1 8.7002 -24.6001)" style="overflow:visible;opacity:0.2891;enable-background:new    ;"/>
				<path style="fill-rule:evenodd;clip-rule:evenodd;fill:#DABEFE;" d="M7.4-21.7c0.167-0.133,0.184-0.35,0.05-0.65
					c-0.133-0.3-0.417-0.434-0.85-0.4c-0.434,0.034-0.7,0.2-0.8,0.5c-0.033,0.134-0.033,0.483,0,1.05
					C5.8-20.7,6.333-20.866,7.4-21.7z"/>
				
					<use xlink:href="#FlashAICB_x2F_Layer_51_x2F__x3C_Path_x3E_"  width="1.11" height="1.028" x="-0.035" y="-1.069" transform="matrix(1 0 0 1 7.6001 -22.3501)" style="overflow:visible;opacity:0.25;enable-background:new    ;"/>
			</g>
			
				<use xlink:href="#FlashAICB_x2F_Layer_51_x2F__x3C_Path_x3E__x5F_10"  width="18.591" height="19.16" x="0.022" y="-19.16" transform="matrix(1 0 0 1 7.3501 -17.6001)" style="overflow:visible;opacity:0.4805;enable-background:new    ;"/>
			<g>
				
					<linearGradient id="SVGID_3_" gradientUnits="userSpaceOnUse" x1="-3303.1777" y1="-6931.4053" x2="-3277.792" y2="-6931.4053" gradientTransform="matrix(0.7794 -0.6266 0.6266 0.7794 6914.1323 3303.5684)">
					<stop  offset="0" style="stop-color:#FFFFFF"/>
					<stop  offset="1" style="stop-color:#A7C0D5"/>
				</linearGradient>
				<path style="fill-rule:evenodd;clip-rule:evenodd;fill:url(#SVGID_3_);" d="M0.1-45.8c-0.233,2.2-0.017,5.25,0.65,9.15l2.8,16.1
					L5-24.05c1.5-2.733,3.583-5.117,6.25-7.15c3.5-2.667,6.6-4.317,9.3-4.95c1.333-0.3,2.317-0.333,2.95-0.1
					c-4.4-2.4-8.25-4.2-11.55-5.4L0.1-45.8z"/>
				<g>
					
						<linearGradient id="SVGID_4_" gradientUnits="userSpaceOnUse" x1="-3293.9834" y1="-6926.1406" x2="-3287.9902" y2="-6926.1406" gradientTransform="matrix(0.7801 -0.6257 0.6257 0.7801 6901.6812 3302.2236)">
						<stop  offset="0" style="stop-color:#AAD1F3"/>
						<stop  offset="1" style="stop-color:#7BA8D0"/>
					</linearGradient>
					<path style="fill-rule:evenodd;clip-rule:evenodd;fill:url(#SVGID_4_);" d="M0.85-36.4c-0.067-1.633-0.05-3.383,0.05-5.25
						c0.1-2.066,0.25-3.316,0.45-3.75L0.1-45.8C0-42.066,0.25-38.933,0.85-36.4z"/>
					
						<linearGradient id="SVGID_5_" gradientUnits="userSpaceOnUse" x1="-3300.0879" y1="-6935.5596" x2="-3286.1299" y2="-6935.5596" gradientTransform="matrix(0.7791 -0.6269 0.6269 0.7791 6918.8203 3304.0713)">
						<stop  offset="0" style="stop-color:#AAD1F3"/>
						<stop  offset="1" style="stop-color:#7BA8D0"/>
					</linearGradient>
					<path style="fill-rule:evenodd;clip-rule:evenodd;fill:url(#SVGID_5_);" d="M6.75-38.95L8-43.05l-4.3-1.5
						c-1.1,5.367-1.167,10.033-0.2,14c0.7,2.8,1.25,4.883,1.65,6.25c0.667-1.2,1.4-2.267,2.2-3.2
						C6.117-32.2,5.917-36.017,6.75-38.95z"/>
					
						<linearGradient id="SVGID_6_" gradientUnits="userSpaceOnUse" x1="-3292.3857" y1="-6934.3628" x2="-3283.0154" y2="-6934.3628" gradientTransform="matrix(0.779 -0.627 0.627 0.779 6920.1895 3304.2197)">
						<stop  offset="0" style="stop-color:#AAD1F3"/>
						<stop  offset="1" style="stop-color:#7BA8D0"/>
					</linearGradient>
					<path style="fill-rule:evenodd;clip-rule:evenodd;fill:url(#SVGID_6_);" d="M10.3-30.45l2.2-1.7
						c-0.233-3.167,0.083-5.667,0.95-7.5l0.55-1.2l-2.95-1.1c-1.566,4.2-1.833,7.966-0.8,11.3L10.3-30.45z"/>
					
						<linearGradient id="SVGID_7_" gradientUnits="userSpaceOnUse" x1="-3285.2754" y1="-6937.0117" x2="-3280.8127" y2="-6937.0117" gradientTransform="matrix(0.7787 -0.6274 0.6274 0.7787 6926.877 3304.9336)">
						<stop  offset="0" style="stop-color:#AAD1F3"/>
						<stop  offset="1" style="stop-color:#7BA8D0"/>
					</linearGradient>
					<path style="fill-rule:evenodd;clip-rule:evenodd;fill:url(#SVGID_7_);" d="M19.55-37.7l0.3-0.45L18.05-39
						c-0.633,1.333-1.033,2.75-1.2,4.25l2.2-0.95C19.117-36.633,19.283-37.3,19.55-37.7z"/>
				</g>
			</g>
			
				<radialGradient id="SVGID_8_" cx="10268.0938" cy="3183.2578" r="12.5533" gradientTransform="matrix(0.5815 0.8135 0.9758 -0.6682 -9063.0078 -6254.6187)" gradientUnits="userSpaceOnUse">
				<stop  offset="0" style="stop-color:#4479AF"/>
				<stop  offset="1" style="stop-color:#BBDCF6"/>
			</radialGradient>
			<path style="fill-rule:evenodd;clip-rule:evenodd;fill:url(#SVGID_8_);" d="M11.25-15.05c0.233,0.133,0.55,0.2,0.95,0.2
				c0.233,0.033,0.583,0.066,1.05,0.1c0.133,0.034,0.567,0.134,1.3,0.3c0.5,0.1,0.934,0.15,1.3,0.15c2.233,0,3.717-0.167,4.45-0.5
				c0.434-0.167,1.1-0.417,2-0.75c0.4-0.2,0.717-0.483,0.95-0.85c0.167-0.2,0.383-0.517,0.65-0.95c0.167-0.2,0.95-0.8,2.35-1.8
				c0.9-0.633,1.367-1.433,1.4-2.4c0.033-0.533,0.067-1.383,0.1-2.55c0.033-0.1,0.167-0.5,0.4-1.2c0.167-0.5,0.233-0.9,0.2-1.2
				c-0.067-0.433-0.4-0.966-1-1.6c-0.4-0.634-0.633-1.534-0.7-2.7c-0.1-1.434-0.55-2.566-1.35-3.4c-0.466,0.6-0.783,0.933-0.95,1
				c-0.633,0-1.067,0.017-1.3,0.05c-0.6,0.267-1.017,0.45-1.25,0.55c-0.367,0.167-0.75,0.033-1.15-0.4
				c-0.2-0.233-0.45-0.633-0.75-1.2c-0.267-0.567-0.517-0.967-0.75-1.2c-0.333-0.267-0.75-0.483-1.25-0.65
				c-0.6-0.233-1.017-0.233-1.25,0c0.333,0.566,1.05,1.45,2.15,2.65c0.5,0.534,0.75,1,0.75,1.4c0,0.367-0.216,0.85-0.65,1.45
				c-0.633,0.667-1.05,1.233-1.25,1.7c-0.267,0.633-0.4,0.966-0.4,1c-0.167,0.3-0.417,0.566-0.75,0.8
				c-0.867,0.7-1.383,1.117-1.55,1.25c-0.7,0.434-1.284,0.55-1.75,0.35c-0.534-0.434-0.95-0.717-1.25-0.85
				c-0.133-0.033-0.45-0.066-0.95-0.1c-0.433,0-0.767-0.083-1-0.25c-0.133-0.1-0.5-0.6-1.1-1.5C8.433-28.816,7.95-29.1,7.45-29
				c-0.867,0.167-1.067,0.483-0.6,0.95c0.733,0.533,1.183,0.867,1.35,1c0.733,0.467,1.283,0.833,1.65,1.1
				c0.7,0.5,1.15,0.966,1.35,1.4c-0.4,0.5-0.833,0.917-1.3,1.25s-0.733,0.583-0.8,0.75c-0.133,0.2-0.15,0.566-0.05,1.1
				c0.133,0.433,0.2,0.75,0.2,0.95c0.033,0.333-0.05,0.667-0.25,1c-0.167,0.3-0.45,0.6-0.85,0.9c-0.533,0.4-0.85,0.65-0.95,0.75
				c0.066,0.066,0.1,0.15,0.1,0.25l-0.1,0.2l0.5,0.65c0.533-0.2,1.167-0.05,1.9,0.45C10.367-15.633,10.917-15.216,11.25-15.05z"/>
			<g>
				
					<use xlink:href="#FlashAICB_x2F_Layer_51_x2F__x3C_Path_x3E__x5F_25"  width="2.956" height="4.059" x="-0.006" y="-4.062" transform="matrix(1 0 0 1 24.0498 -24.6499)" style="overflow:visible;opacity:0.1797;enable-background:new    ;"/>
				
					<use xlink:href="#FlashAICB_x2F_Layer_51_x2F__x3C_Path_x3E__x5F_24"  width="2.496" height="2.414" x="-0.04" y="-2.412" transform="matrix(1 0 0 1 21.7002 -28.2998)" style="overflow:visible;opacity:0.1797;enable-background:new    ;"/>
				
					<use xlink:href="#FlashAICB_x2F_Layer_51_x2F__x3C_Path_x3E__x5F_23"  width="3.406" height="2.45" y="-2.45" transform="matrix(1 0 0 1 22.25 -30.0996)" style="overflow:visible;opacity:0.1797;enable-background:new    ;"/>
				
					<use xlink:href="#FlashAICB_x2F_Layer_51_x2F__x3C_Path_x3E__x5F_22"  width="1.97" height="1.961" x="-0.02" y="-1.957" transform="matrix(1 0 0 1 17.8999 -26.9004)" style="overflow:visible;opacity:0.1797;enable-background:new    ;"/>
				
					<use xlink:href="#FlashAICB_x2F_Layer_51_x2F__x3C_Path_x3E__x5F_21"  width="2.561" height="2.158" x="-0.011" y="-2.124" transform="matrix(1 0 0 1 22.6499 -21.5498)" style="overflow:visible;opacity:0.1406;enable-background:new    ;"/>
				
					<use xlink:href="#FlashAICB_x2F_Layer_51_x2F__x3C_Path_x3E__x5F_20"  width="4.464" height="2.756" x="-0.003" y="-2.75" transform="matrix(1 0 0 1 14.6001 -20.3999)" style="overflow:visible;opacity:0.25;enable-background:new    ;"/>
				
					<use xlink:href="#FlashAICB_x2F_Layer_51_x2F__x3C_Path_x3E__x5F_19"  width="1.956" height="1.52" x="-0.006" y="-1.538" transform="matrix(1 0 0 1 11.3999 -21.0498)" style="overflow:visible;opacity:0.4492;enable-background:new    ;"/>
				
					<use xlink:href="#FlashAICB_x2F_Layer_51_x2F__x3C_Path_x3E__x5F_18"  width="1.172" height="1.088" x="0.028" y="-1.065" transform="matrix(1 0 0 1 9.5 -21.75)" style="overflow:visible;opacity:0.4492;enable-background:new    ;"/>
				<path style="fill-rule:evenodd;clip-rule:evenodd;fill:#E5F4FF;" d="M19.2-15.05c0.167-0.033,0.45-0.066,0.85-0.1
					c0.4-0.066,0.684-0.167,0.85-0.3l0.85-0.8c0.267-0.1,0.333-0.283,0.2-0.55c-0.1-0.233-0.267-0.417-0.5-0.55
					c-0.3-0.233-0.684-0.284-1.15-0.15c-0.466,0.134-1.083,0.417-1.85,0.85c-0.867,0.534-1.317,0.95-1.35,1.25
					C18.1-15.133,18.8-15.017,19.2-15.05z"/>
				<path style="fill-rule:evenodd;clip-rule:evenodd;fill:#E5F4FF;" d="M15.05-15.45c-0.367,0.2-0.5,0.4-0.4,0.6
					c0.1,0.2,0.333,0.216,0.7,0.05l1.05-0.3c-0.1-0.233-0.3-0.384-0.6-0.45C15.533-15.616,15.283-15.583,15.05-15.45z"/>
				<path style="fill-rule:evenodd;clip-rule:evenodd;fill:#E5F4FF;" d="M16.85-17.7c-0.167,0-0.417,0.167-0.75,0.5
					c-0.233,0.233-0.283,0.45-0.15,0.65c0.167,0.2,0.367,0.167,0.6-0.1l0.8-0.4c0.066-0.133,0.033-0.267-0.1-0.4
					C17.15-17.616,17.017-17.7,16.85-17.7z"/>
				<path style="fill-rule:evenodd;clip-rule:evenodd;fill:#E5F4FF;" d="M11.65-17.35c-0.733,0.667-0.6,1.167,0.4,1.5
					c1,0.333,1.8,0.283,2.4-0.15l0.75-0.7c0.133-0.3,0-0.567-0.4-0.8c-0.3-0.2-0.633-0.333-1-0.4
					c-0.533-0.066-0.917-0.083-1.15-0.05C12.317-17.883,11.983-17.683,11.65-17.35z"/>
				<path style="fill-rule:evenodd;clip-rule:evenodd;fill:#E5F4FF;" d="M9.15-17.75c-0.2,0.333-0.183,0.534,0.05,0.6
					c0.2,0.067,0.466,0,0.8-0.2l0.55-0.2C10.05-18.316,9.583-18.383,9.15-17.75z"/>
				<path style="fill-rule:evenodd;clip-rule:evenodd;fill:#E5F4FF;" d="M20.6-19.05c0.3-0.233,0.4-0.517,0.3-0.85
					s-0.316-0.533-0.65-0.6c-0.267-0.066-0.617,0.034-1.05,0.3c-0.467,0.333-0.784,0.55-0.95,0.65c-0.4,0.267-0.65,0.467-0.75,0.6
					c-0.133,0.233-0.05,0.466,0.25,0.7c0.567,0.434,1.267,0.333,2.1-0.3L20.6-19.05z"/>
				<path style="fill-rule:evenodd;clip-rule:evenodd;fill:#E5F4FF;" d="M22.1-18.3c0.167,0.467,0.4,0.633,0.7,0.5l0.7-0.5
					c0.133-0.2,0.117-0.367-0.05-0.5c-0.133-0.133-0.317-0.167-0.55-0.1C22.733-18.866,22.467-18.667,22.1-18.3z"/>
				<path style="fill-rule:evenodd;clip-rule:evenodd;fill:#E5F4FF;" d="M24.35-19.2c0.167,0.4,0.4,0.55,0.7,0.45l0.2-0.65
					C25.083-19.8,24.783-19.733,24.35-19.2z"/>
				<path style="fill-rule:evenodd;clip-rule:evenodd;fill:#E5F4FF;" d="M26.4-21c-0.2,0.067-0.417,0.25-0.65,0.55l0.95,0.05
					C26.767-20.6,26.667-20.8,26.4-21z"/>
				<path style="fill-rule:evenodd;clip-rule:evenodd;fill:#E5F4FF;" d="M22.65-19.7c0.067,0.6,0.517,0.55,1.35-0.15l0.55-0.7
					c-0.466-0.167-0.8-0.217-1-0.15c-0.167,0.066-0.35,0.2-0.55,0.4C22.767-20.066,22.65-19.866,22.65-19.7z"/>
				<path style="fill-rule:evenodd;clip-rule:evenodd;fill:#E5F4FF;" d="M15.9-19.2c-0.2-0.233-0.55-0.15-1.05,0.25
					c0.066,0.2,0.2,0.35,0.4,0.45c0.167,0.067,0.35,0.017,0.55-0.15L15.9-19.2z"/>
				
					<use xlink:href="#FlashAICB_x2F_Layer_51_x2F__x3C_Path_x3E__x5F_6"  width="13.255" height="8.2" x="0.016" y="-8.2" transform="matrix(1 0 0 1 6.6001 -24)" style="overflow:visible;opacity:0.1797;enable-background:new    ;"/>
				
					<use xlink:href="#FlashAICB_x2F_Layer_51_x2F__x3C_Path_x3E__x5F_5"  width="8.65" height="5.456" y="-5.45" transform="matrix(1 0 0 1 18 -30.5996)" style="overflow:visible;opacity:0.1797;enable-background:new    ;"/>
				
					<use xlink:href="#FlashAICB_x2F_Layer_51_x2F__x3C_Path_x3E__x5F_4"  width="2.111" height="2.5" y="-2.5" transform="matrix(1 0 0 1 7.2998 -17.8999)" style="overflow:visible;opacity:0.1797;enable-background:new    ;"/>
				
					<use xlink:href="#FlashAICB_x2F_Layer_51_x2F__x3C_Path_x3E__x5F_3_x5F_0"  width="3.05" height="1.05" y="-1.05" transform="matrix(1 0 0 1 22.25 -31.75)" style="overflow:visible;opacity:0.1797;enable-background:new    ;"/>
				
					<use xlink:href="#FlashAICB_x2F_Layer_51_x2F__x3C_Path_x3E__x5F_2_x5F_0"  width="3.05" height="1.05" y="-1.05" transform="matrix(1 0 0 1 22.25 -31.75)" style="overflow:visible;opacity:0.1797;enable-background:new    ;"/>
				
					<use xlink:href="#FlashAICB_x2F_Layer_51_x2F__x3C_Path_x3E__x5F_1"  width="0.9" height="0.95" y="-0.95" transform="matrix(1 0 0 1 17.9502 -27.8496)" style="overflow:visible;opacity:0.1797;enable-background:new    ;"/>
				
					<use xlink:href="#FlashAICB_x2F_Layer_51_x2F__x3C_Path_x3E__x5F_0"  width="0.9" height="0.95" y="-0.95" transform="matrix(1 0 0 1 17.9502 -27.8496)" style="overflow:visible;opacity:0.1797;enable-background:new    ;"/>
			</g>
			
				<use xlink:href="#FlashAICB_x2F_Layer_51_x2F__x3C_Path_x3E__x5F_8"  width="18.958" height="15.45" y="-15.45" transform="matrix(1 0 0 1 9.3999 -14.2998)" style="overflow:visible;opacity:0.4297;enable-background:new    ;"/>
			
				<use xlink:href="#FlashAICB_x2F_Layer_51_x2F__x3C_Path_x3E__x5F_7"  width="2.2" height="1.75" y="-1.75" transform="matrix(1 0 0 1 7.8501 -26.9004)" style="overflow:visible;opacity:0.25;enable-background:new    ;"/>
			
				<use xlink:href="#FlashAICB_x2F_Layer_51_x2F__x3C_Path_x3E__x5F_6_x5F_0"  width="2.877" height="3.05" x="-0.027" y="-3.05" transform="matrix(1 0 0 1 17.5498 -33.2998)" style="overflow:visible;opacity:0.25;enable-background:new    ;"/>
			<path style="fill-rule:evenodd;clip-rule:evenodd;fill:#E5F4FF;" d="M18.1-35.25l0.4,0.35c0.2-0.167,0.217-0.417,0.05-0.75
				c-0.133-0.267-0.316-0.466-0.55-0.6l-0.4,0.3L18.1-35.25z"/>
			<path style="fill-rule:evenodd;clip-rule:evenodd;fill:#E5F4FF;" d="M8.25-28.15l0.3-0.15c0-0.2-0.1-0.35-0.3-0.45
				c-0.167-0.1-0.317-0.05-0.45,0.15C7.933-28.333,8.083-28.183,8.25-28.15z"/>
			
				<radialGradient id="SVGID_9_" cx="9456.291" cy="3176.9756" r="16.981" gradientTransform="matrix(0.5786 0.8156 0.9297 -0.7398 -8409.3984 -5387.8574)" gradientUnits="userSpaceOnUse">
				<stop  offset="0" style="stop-color:#537F0C"/>
				<stop  offset="1" style="stop-color:#DDF5BA"/>
			</radialGradient>
			<path style="fill-rule:evenodd;clip-rule:evenodd;fill:url(#SVGID_9_);" d="M19.05-9.7l1.25-0.35c0.633-0.1,1.284-0.367,1.95-0.8
				l1.65-1c0.267-0.167,0.65-0.467,1.15-0.9c0.5-0.433,0.917-0.75,1.25-0.95c0.833-0.4,1.35-0.7,1.55-0.9
				c0.367-0.333,0.617-0.817,0.75-1.45c0.066-0.133,0.267-0.35,0.6-0.65l0.35-0.8c0.233-0.533,0.333-1.066,0.3-1.6
				c0-0.367,0.117-0.833,0.35-1.4c0.1-0.267,0.05-0.583-0.15-0.95c-0.5-0.7-0.867-1.417-1.1-2.15c-0.034-0.1-0.017-0.35,0.05-0.75
				c0.033-0.267-0.05-0.483-0.25-0.65c-0.033-0.033-0.117-0.066-0.25-0.1c-0.1-0.034-0.183-0.1-0.25-0.2l-0.1-0.6
				c-0.133-0.367-0.316-0.966-0.55-1.8c-0.333-0.8-0.633-1.167-0.9-1.1c-0.434,0.133-0.567,0.633-0.4,1.5
				c0.2,0.867,0.167,1.367-0.1,1.5c-0.067-0.066-0.217-0.233-0.45-0.5c-0.167-0.2-0.333-0.333-0.5-0.4
				c-0.267-0.167-0.783-0.284-1.55-0.35c-0.367-0.167-0.633-0.3-0.8-0.4c-0.333-0.133-0.65-0.167-0.95-0.1
				c-0.5,0.033-1.1,0.3-1.8,0.8c-0.7,0.5-1.117,0.934-1.25,1.3c-0.1,0.433-0.2,0.75-0.3,0.95c-0.133,0.333-0.367,0.567-0.7,0.7
				c-0.333,0.133-0.566,0.15-0.7,0.05c-0.1-0.1-0.267-0.267-0.5-0.5c-0.2-0.133-0.383-0.167-0.55-0.1
				c-0.133,0.1-0.233,0.283-0.3,0.55c-0.067,0.233-0.017,0.434,0.15,0.6c0.233,0.233,0.367,0.4,0.4,0.5c0.1,0.367-0.1,0.767-0.6,1.2
				c-0.6,0.367-1.017,0.684-1.25,0.95c-0.1,0.3-0.2,0.517-0.3,0.65c-0.2,0.133-0.333,0.233-0.4,0.3c-0.233,0.233-0.434,0.566-0.6,1
				c-0.1,0.366-0.4,0.583-0.9,0.65c-0.867,0.066-1.633-0.1-2.3-0.5c-0.333-0.2-0.716-0.367-1.15-0.5
				c-0.333-0.1-0.617-0.284-0.85-0.55c-0.1-0.1-0.25-0.233-0.45-0.4c-0.167-0.167-0.333-0.2-0.5-0.1c-0.367,0.2-0.317,0.5,0.15,0.9
				c0.2,0.133,0.55,0.25,1.05,0.35c0.5,0.134,0.85,0.267,1.05,0.4c0.333,0.3,0.533,0.6,0.6,0.9c0.033,0.2-0.05,0.417-0.25,0.65
				c-0.267,0.233-0.417,0.4-0.45,0.5c-0.267,0.5,0.033,1.15,0.9,1.95c0.233,0.5,0.5,0.85,0.8,1.05c0.466,0.3,0.8,0.55,1,0.75
				l1.5,1.4c0.433,0.4,1.05,0.65,1.85,0.75c0.267,0.034,0.583,0.133,0.95,0.3c0.4,0.167,0.717,0.267,0.95,0.3
				C18.033-9.667,18.65-9.633,19.05-9.7z"/>
			<g>
				
					<use xlink:href="#FlashAICB_x2F_Layer_51_x2F__x3C_Path_x3E__x5F_38"  width="9.857" height="6.061" x="-0.007" y="-6.05" transform="matrix(1 0 0 1 6.8501 -16.5)" style="overflow:visible;opacity:0.2891;enable-background:new    ;"/>
				
					<use xlink:href="#FlashAICB_x2F_Layer_51_x2F__x3C_Path_x3E__x5F_37"  width="0.75" height="1" x="0" y="-1" transform="matrix(1 0 0 1 9.1499 -15.5)" style="overflow:visible;opacity:0.2891;enable-background:new    ;"/>
				
					<use xlink:href="#FlashAICB_x2F_Layer_51_x2F__x3C_Compound_Path_x3E_"  width="14.275" height="7.511" x="0.025" y="-7.508" transform="matrix(1 0 0 1 15.7998 -21.2998)" style="overflow:visible;opacity:0.2891;enable-background:new    ;"/>
				
					<use xlink:href="#FlashAICB_x2F_Layer_51_x2F__x3C_Path_x3E__x5F_36"  width="1.841" height="1.89" x="0.022" y="-1.9" transform="matrix(1 0 0 1 26.8999 -20.25)" style="overflow:visible;opacity:0.2891;enable-background:new    ;"/>
				
					<use xlink:href="#FlashAICB_x2F_Layer_51_x2F__x3C_Path_x3E__x5F_35"  width="3.235" height="2.899" x="-0.035" y="-2.96" transform="matrix(1 0 0 1 23 -20.3999)" style="overflow:visible;opacity:0.2891;enable-background:new    ;"/>
				
					<use xlink:href="#FlashAICB_x2F_Layer_51_x2F__x3C_Path_x3E__x5F_34"  width="2.624" height="2.82" x="0.023" y="-2.8" transform="matrix(1 0 0 1 20.8999 -22.7998)" style="overflow:visible;opacity:0.2891;enable-background:new    ;"/>
				
					<use xlink:href="#FlashAICB_x2F_Layer_51_x2F__x3C_Path_x3E__x5F_33"  width="1.727" height="1.482" x="-0.027" y="-1.464" transform="matrix(1 0 0 1 20.6001 -19.7002)" style="overflow:visible;opacity:0.2891;enable-background:new    ;"/>
				
					<use xlink:href="#FlashAICB_x2F_Layer_51_x2F__x3C_Path_x3E__x5F_32"  width="2.93" height="2.705" x="-0.014" y="-2.7" transform="matrix(1 0 0 1 12.2998 -11.5)" style="overflow:visible;opacity:0.1797;enable-background:new    ;"/>
				
					<use xlink:href="#FlashAICB_x2F_Layer_51_x2F__x3C_Path_x3E__x5F_31"  width="1.852" height="1.408" x="-0.052" y="-1.378" transform="matrix(1 0 0 1 11.0498 -14.6499)" style="overflow:visible;opacity:0.1797;enable-background:new    ;"/>
				
					<use xlink:href="#FlashAICB_x2F_Layer_51_x2F__x3C_Path_x3E__x5F_30"  width="2.06" height="2.404" x="-0.01" y="-2.404" transform="matrix(1 0 0 1 14.5 -16.2998)" style="overflow:visible;opacity:0.1797;enable-background:new    ;"/>
				
					<use xlink:href="#FlashAICB_x2F_Layer_51_x2F__x3C_Path_x3E__x5F_29"  width="1.23" height="1.12" x="-0.03" y="-1.12" transform="matrix(1 0 0 1 13.7002 -15.1001)" style="overflow:visible;opacity:0.1797;enable-background:new    ;"/>
				
					<use xlink:href="#FlashAICB_x2F_Layer_51_x2F__x3C_Path_x3E__x5F_28"  width="2.439" height="2.759" x="-0.027" y="-2.772" transform="matrix(1 0 0 1 16.1001 -19.2002)" style="overflow:visible;opacity:0.1797;enable-background:new    ;"/>
				
					<use xlink:href="#FlashAICB_x2F_Layer_51_x2F__x3C_Path_x3E__x5F_27"  width="1.588" height="1.28" y="-1.25" transform="matrix(1 0 0 1 18.7002 -21.7998)" style="overflow:visible;opacity:0.1797;enable-background:new    ;"/>
				
					<use xlink:href="#FlashAICB_x2F_Layer_51_x2F__x3C_Path_x3E__x5F_26"  width="0.9" height="0.65" y="-0.65" transform="matrix(1 0 0 1 18.7002 -22.3999)" style="overflow:visible;opacity:0.2891;enable-background:new    ;"/>
				
					<use xlink:href="#FlashAICB_x2F_Layer_51_x2F__x3C_Path_x3E__x5F_25_x5F_0"  width="0.9" height="0.65" y="-0.65" transform="matrix(1 0 0 1 18.7002 -22.3999)" style="overflow:visible;opacity:0.1797;enable-background:new    ;"/>
				
					<use xlink:href="#FlashAICB_x2F_Layer_51_x2F__x3C_Path_x3E__x5F_24_x5F_0"  width="2.433" height="2.512" x="-0.006" y="-2.503" transform="matrix(1 0 0 1 16.7002 -15.9502)" style="overflow:visible;opacity:0.1797;enable-background:new    ;"/>
				<path style="fill-rule:evenodd;clip-rule:evenodd;fill:#E2FCBC;" d="M17.35-15.7c-0.3-0.167-0.75,0.017-1.35,0.55
					c-0.433,0.333-0.65,0.517-0.65,0.55c-0.2,0.2-0.233,0.433-0.1,0.7c0.233,0.333,0.55,0.517,0.95,0.55
					c0.4,0.033,0.75-0.1,1.05-0.4l0.85-0.4c0.1-0.2,0.05-0.483-0.15-0.85C17.783-15.366,17.583-15.6,17.35-15.7z"/>
				<path style="fill-rule:evenodd;clip-rule:evenodd;fill:#E2FCBC;" d="M17.25-11.6c-0.267-0.067-0.583-0.034-0.95,0.1
					c-0.433,0.167-0.667,0.4-0.7,0.7c0,0.233,0.167,0.45,0.5,0.65l0.3,0.1l0.7-0.15c0.633-0.367,0.95-0.633,0.95-0.8
					C18.05-11.3,17.783-11.5,17.25-11.6z"/>
				<path style="fill-rule:evenodd;clip-rule:evenodd;fill:#E2FCBC;" d="M16.8-12c0.067-0.566-0.117-0.683-0.55-0.35
					c-0.367,0.333-0.25,0.583,0.35,0.75L16.8-12z"/>
				<path style="fill-rule:evenodd;clip-rule:evenodd;fill:#E2FCBC;" d="M19.25-10.2l0.45-0.1c0.5-0.434,0.683-0.767,0.55-1
					c-0.1-0.167-0.217-0.217-0.35-0.15c-0.167,0.1-0.3,0.183-0.4,0.25c-0.633,0.3-0.9,0.583-0.8,0.85
					C18.8-10.083,18.983-10.033,19.25-10.2z"/>
				<path style="fill-rule:evenodd;clip-rule:evenodd;fill:#E2FCBC;" d="M18.9-12.05c-0.233,0.066-0.3,0.2-0.2,0.4
					c0.1,0.167,0.233,0.284,0.4,0.35l0.1-0.35L18.9-12.05z"/>
				<path style="fill-rule:evenodd;clip-rule:evenodd;fill:#E2FCBC;" d="M21.45-11.9c-0.034,0.2,0.05,0.333,0.25,0.4
					c0.2,0.1,0.383,0.1,0.55,0l0.6-0.25c0.1-0.066,0.35-0.25,0.75-0.55c0.367-0.267,0.517-0.5,0.45-0.7
					c-0.066-0.3-0.417-0.316-1.05-0.05c-0.233,0.066-0.533,0.217-0.9,0.45C21.667-12.3,21.45-12.066,21.45-11.9z"/>
				<path style="fill-rule:evenodd;clip-rule:evenodd;fill:#E2FCBC;" d="M20.45-13.25c-0.367,0.3-0.517,0.55-0.45,0.75
					c0.067,0.233,0.333,0.3,0.8,0.2c0.4-0.1,0.7-0.233,0.9-0.4l-0.35,0.15l-0.95,0.2C20.267-12.616,20.283-12.917,20.45-13.25z"/>
				<path style="fill-rule:evenodd;clip-rule:evenodd;fill:#E2FCBC;" d="M24.35-16.15c-0.3,0.2-0.467,0.367-0.5,0.5
					c-0.133,0.3,0.017,0.5,0.45,0.6c0.567,0.133,1.167-0.083,1.8-0.65l1.1-0.9c0.033-0.167-0.1-0.333-0.4-0.5
					c-0.3-0.134-0.55-0.2-0.75-0.2c-0.167,0.033-0.35,0.133-0.55,0.3c-0.233,0.2-0.4,0.333-0.5,0.4
					C24.733-16.433,24.517-16.283,24.35-16.15z"/>
				<path style="fill-rule:evenodd;clip-rule:evenodd;fill:#E2FCBC;" d="M20.4-12.35l0.95-0.2l0.35-0.15c0.367-0.2,0.7-0.483,1-0.85
					c-0.2-0.3-0.367-0.5-0.5-0.6c-0.2-0.1-0.45-0.1-0.75,0c-0.467,0.2-0.8,0.5-1,0.9C20.283-12.917,20.267-12.616,20.4-12.35z"/>
				<path style="fill-rule:evenodd;clip-rule:evenodd;fill:#E2FCBC;" d="M19.1-13.05c0.066,0.1,0.217,0.133,0.45,0.1
					c0.2-0.034,0.35-0.083,0.45-0.15l-0.1-0.45l-0.25-0.35C19.05-13.533,18.867-13.25,19.1-13.05z"/>
				<path style="fill-rule:evenodd;clip-rule:evenodd;fill:#E2FCBC;" d="M22.55-16.4c-0.3-0.2-0.65-0.2-1.05,0
					c-0.433,0.167-0.683,0.45-0.75,0.85c-0.033,0.2,0.067,0.367,0.3,0.5c0.333,0.167,0.717,0.1,1.15-0.2
					c0.267-0.167,0.6-0.45,1-0.85L22.55-16.4z"/>
				<path style="fill-rule:evenodd;clip-rule:evenodd;fill:#E2FCBC;" d="M21.25-16.95L21.2-17.7c-0.133-0.067-0.284-0.067-0.45,0
					c-0.167,0.1-0.267,0.216-0.3,0.35c-0.034,0.167,0.066,0.283,0.3,0.35C20.917-16.933,21.083-16.917,21.25-16.95z"/>
				<path style="fill-rule:evenodd;clip-rule:evenodd;fill:#E2FCBC;" d="M24.7-13.35c0.167,0.267,0.4,0.383,0.7,0.35
					c0.3-0.3,0.6-0.533,0.9-0.7c0.833-0.4,1.35-0.7,1.55-0.9c0.133-0.1,0.233-0.217,0.3-0.35c-0.066-0.133-0.167-0.217-0.3-0.25
					c-0.367-0.267-0.733-0.284-1.1-0.05C25.883-14.75,25.2-14.116,24.7-13.35z"/>
				<path style="fill-rule:evenodd;clip-rule:evenodd;fill:#E2FCBC;" d="M27.9-17c-0.1,0.567,0.017,0.75,0.35,0.55l0.6-0.95
					c0.3-0.167,0.283-0.367-0.05-0.6C28.3-17.7,28-17.366,27.9-17z"/>
				<path style="fill-rule:evenodd;clip-rule:evenodd;fill:#E2FCBC;" d="M9.7-16.35h0.15c0.566-0.034,0.683-0.35,0.35-0.95
					c-0.4-0.733-0.75-1.15-1.05-1.25c-0.4-0.1-0.7-0.184-0.9-0.25c-0.333-0.1-0.6-0.267-0.8-0.5L7.2-19.55
					c-0.1-0.1-0.217-0.117-0.35-0.05c0.033,0.1,0.167,0.267,0.4,0.5c0.2,0.133,0.55,0.25,1.05,0.35c0.5,0.134,0.85,0.267,1.05,0.4
					c0.333,0.3,0.533,0.6,0.6,0.9c0.033,0.2-0.034,0.383-0.2,0.55s-0.3,0.3-0.4,0.4L9.7-16.35z"/>
				
					<use xlink:href="#FlashAICB_x2F_Layer_51_x2F__x3C_Path_x3E__x5F_8_x5F_0"  width="0.833" height="1.25" x="0.017" y="-1.25" transform="matrix(1 0 0 1 16.1001 -22.3999)" style="overflow:visible;opacity:0.1797;enable-background:new    ;"/>
				
					<use xlink:href="#FlashAICB_x2F_Layer_51_x2F__x3C_Path_x3E__x5F_7_x5F_0"  width="-32766" height="-32766" x="16383" y="16383" transform="matrix(1 0 0 1 16.3501 -22.25)" style="overflow:visible;opacity:0.2891;enable-background:new    ;"/>
				
					<use xlink:href="#FlashAICB_x2F_Layer_51_x2F__x3C_Path_x3E__x5F_6_x5F_1"  width="-32766" height="-32766" x="16383" y="16383" transform="matrix(1 0 0 1 16.3501 -22.25)" style="overflow:visible;opacity:0.1797;enable-background:new    ;"/>
				
					<use xlink:href="#FlashAICB_x2F_Layer_51_x2F__x3C_Path_x3E__x5F_5_x5F_0"  width="-32766" height="-32766" x="16383" y="16383" transform="matrix(1 0 0 1 16.5 -22.3501)" style="overflow:visible;opacity:0.2891;enable-background:new    ;"/>
				
					<use xlink:href="#FlashAICB_x2F_Layer_51_x2F__x3C_Path_x3E__x5F_4_x5F_0"  width="-32766" height="-32766" x="16383" y="16383" transform="matrix(1 0 0 1 16.5 -22.3501)" style="overflow:visible;opacity:0.1797;enable-background:new    ;"/>
				
					<use xlink:href="#FlashAICB_x2F_Layer_51_x2F__x3C_Path_x3E__x5F_3_x5F_1"  width="0.782" height="2.65" x="-0.012" y="-2.65" transform="matrix(1 0 0 1 26.4502 -25.2998)" style="overflow:visible;opacity:0.2891;enable-background:new    ;"/>
				
					<use xlink:href="#FlashAICB_x2F_Layer_51_x2F__x3C_Path_x3E__x5F_2_x5F_1"  width="0.782" height="2.65" x="-0.012" y="-2.65" transform="matrix(1 0 0 1 26.4502 -25.2998)" style="overflow:visible;opacity:0.1797;enable-background:new    ;"/>
				<path style="fill-rule:evenodd;clip-rule:evenodd;fill:#F1FEDF;" d="M26.85-26.9l0.1-0.5c0-0.5-0.1-0.767-0.3-0.8
					c-0.2,0-0.267,0.083-0.2,0.25l0.3,0.6L26.85-26.9z"/>
				
					<use xlink:href="#FlashAICB_x2F_Layer_51_x2F__x3C_Path_x3E__x5F_9"  width="1.058" height="1" x="-0.008" y="-1" transform="matrix(1 0 0 1 16.1499 -23.0498)" style="overflow:visible;opacity:0.4688;enable-background:new    ;"/>
			</g>
			
				<use xlink:href="#FlashAICB_x2F_Layer_51_x2F__x3C_Path_x3E__x5F_2_x5F_2"  width="14.1" height="18.883" y="-18.9" transform="matrix(1 0 0 1 15.8999 -9.6499)" style="overflow:visible;opacity:0.8516;enable-background:new    ;"/>
			
				<radialGradient id="SVGID_10_" cx="9757.8535" cy="3177.0752" r="17.5781" gradientTransform="matrix(0.5796 0.8149 0.9017 -0.6798 -8499.75 -5814.9004)" gradientUnits="userSpaceOnUse">
				<stop  offset="0" style="stop-color:#D07A17"/>
				<stop  offset="1" style="stop-color:#F4DA91"/>
			</radialGradient>
			<path style="fill-rule:evenodd;clip-rule:evenodd;fill:url(#SVGID_10_);" d="M19.65-7.35c0.233,0.167,0.517,0.233,0.85,0.2
				C21.1-7.216,21.6-7.167,22-7l0.8,0.25c0.233,0.067,0.583,0.1,1.05,0.1c0.2,0.034,0.517,0.117,0.95,0.25
				c0.434,0.067,1,0.017,1.7-0.15c0.867-0.2,1.417-0.316,1.65-0.35c1.1-0.066,1.983-0.283,2.65-0.65l1.1-0.9l1.55-1.95
				c0.367-0.333,0.733-0.8,1.1-1.4c0.233-0.333,0.417-0.917,0.55-1.75c0.133-0.767,0.3-1.934,0.5-3.5c0.2-1,0.2-1.684,0-2.05
				c0-0.034-0.217-0.333-0.65-0.9c-0.267-0.366-0.467-0.683-0.6-0.95c-0.434-0.9-0.667-1.45-0.7-1.65
				c-0.033-0.267-0.2-0.517-0.5-0.75c-0.167-0.134-0.433-0.333-0.8-0.6l-0.6-0.3L31.3-24.7c-0.1-0.034-0.167-0.1-0.2-0.2
				c0-0.033-0.067-0.083-0.2-0.15l-0.45-0.3L30-25.45c-0.1,0-0.2-0.083-0.3-0.25l-0.3-0.45c-0.066-0.133-0.316-0.4-0.75-0.8
				c-0.367-0.367-0.566-0.667-0.6-0.9c-0.1-0.8-0.333-1.384-0.7-1.75c-0.167-0.2-0.333-0.25-0.5-0.15c-0.133,0.1-0.2,0.284-0.2,0.55
				c0.267,0.667,0.35,1.117,0.25,1.35c0.133,0.566,0.133,0.933,0,1.1c0.1,0.167,0.117,0.434,0.05,0.8
				c-0.067,0.4-0.117,0.683-0.15,0.85c-0.066,0.667-0.3,1.05-0.7,1.15c-0.267-0.1-0.483-0.067-0.65,0.1L25.4-23.2
				c-0.033,0.433-0.083,0.716-0.15,0.85c-0.267,0.167-0.433,0.3-0.5,0.4c-0.167,0.367-0.333,0.633-0.5,0.8l-0.6,0.45
				c-0.233,0.167-0.383,0.216-0.45,0.15c-0.034,0-0.15-0.15-0.35-0.45c-0.667-1.033-1.133-1.616-1.4-1.75
				c-0.534,0.233-0.65,0.583-0.35,1.05c0.033,0.033,0.183,0.3,0.45,0.8c0.167,0.267,0.284,0.534,0.35,0.8
				c0.2,0.5,0.217,1.033,0.05,1.6c-0.067,0.233-0.1,0.567-0.1,1c0,0.3-0.033,0.517-0.1,0.65c-0.233,0.5-0.633,1-1.2,1.5
				c-0.233,0.2-0.433,0.35-0.6,0.45c-0.267,0.167-0.467,0.233-0.6,0.2c-0.1-0.034-0.184-0.1-0.25-0.2l-0.2-0.25
				c-0.433-0.5-0.833-0.633-1.2-0.4c-0.3,0.167-0.367,0.4-0.2,0.7c0.267,0.3,0.433,0.533,0.5,0.7c0.2,0.4,0.317,0.717,0.35,0.95
				c0.033,0.2-0.033,0.417-0.2,0.65c-0.2,0.333-0.316,0.533-0.35,0.6c-0.1,0.2-0.133,0.383-0.1,0.55c0.066,0.2,0.1,0.383,0.1,0.55
				c0.034,0.566-0.267,0.783-0.9,0.65l-1.05-0.25c-0.2,0.4-0.1,0.667,0.3,0.8C16.817-9.383,17.333-9,17.7-8.5
				c0.066,0.134,0.267,0.25,0.6,0.35c0.4,0.1,0.633,0.167,0.7,0.2C19.3-7.683,19.517-7.483,19.65-7.35z"/>
			<g>
				
					<use xlink:href="#FlashAICB_x2F_Layer_51_x2F__x3C_Path_x3E__x5F_35_x5F_0"  width="2.544" height="1.261" x="0.006" y="-1.261" transform="matrix(1 0 0 1 17.3999 -14.3999)" style="overflow:visible;opacity:0.1797;enable-background:new    ;"/>
				
					<use xlink:href="#FlashAICB_x2F_Layer_51_x2F__x3C_Path_x3E__x5F_34_x5F_0"  width="2.25" height="2.975" y="-2.95" transform="matrix(1 0 0 1 16.25 -10)" style="overflow:visible;opacity:0.1797;enable-background:new    ;"/>
				
					<use xlink:href="#FlashAICB_x2F_Layer_51_x2F__x3C_Path_x3E__x5F_33_x5F_0"  width="6.25" height="6.963" y="-7" transform="matrix(1 0 0 1 25.3999 -22.7998)" style="overflow:visible;opacity:0.1797;enable-background:new    ;"/>
				
					<use xlink:href="#FlashAICB_x2F_Layer_51_x2F__x3C_Path_x3E__x5F_32_x5F_0"  width="0.617" height="2.4" y="-2.4" transform="matrix(1 0 0 1 21.6499 -16.6001)" style="overflow:visible;opacity:0.1797;enable-background:new    ;"/>
				
					<use xlink:href="#FlashAICB_x2F_Layer_51_x2F__x3C_Path_x3E__x5F_31_x5F_0"  width="0.35" height="0.45" y="-0.45" transform="matrix(1 0 0 1 20.2998 -15)" style="overflow:visible;opacity:0.1797;enable-background:new    ;"/>
				
					<use xlink:href="#FlashAICB_x2F_Layer_51_x2F__x3C_Path_x3E__x5F_30_x5F_0"  width="4.678" height="2.913" x="-0.012" y="-2.95" transform="matrix(1 0 0 1 20.9502 -19.7998)" style="overflow:visible;opacity:0.1797;enable-background:new    ;"/>
				
					<use xlink:href="#FlashAICB_x2F_Layer_51_x2F__x3C_Path_x3E__x5F_29_x5F_0"  width="2.4" height="2.138" x="-0.011" y="-2.138" transform="matrix(1 0 0 1 26.2002 -19.6001)" style="overflow:visible;opacity:0.1797;enable-background:new    ;"/>
				
					<use xlink:href="#FlashAICB_x2F_Layer_51_x2F__x3C_Path_x3E__x5F_28_x5F_0"  width="1.52" height="1.284" x="-0.02" y="-1.296" transform="matrix(1 0 0 1 28.8999 -20.7998)" style="overflow:visible;opacity:0.1797;enable-background:new    ;"/>
				
					<use xlink:href="#FlashAICB_x2F_Layer_51_x2F__x3C_Path_x3E__x5F_27_x5F_0"  width="2.495" height="2.888" x="0.005" y="-2.888" transform="matrix(1 0 0 1 31.2998 -19.5498)" style="overflow:visible;opacity:0.1797;enable-background:new    ;"/>
				
					<use xlink:href="#FlashAICB_x2F_Layer_51_x2F__x3C_Path_x3E__x5F_26_x5F_0"  width="1.333" height="0.867" x="0.017" y="-0.867" transform="matrix(1 0 0 1 30.3501 -23)" style="overflow:visible;opacity:0.1797;enable-background:new    ;"/>
				
					<use xlink:href="#FlashAICB_x2F_Layer_51_x2F__x3C_Path_x3E__x5F_25_x5F_1"  width="4.078" height="2.923" x="-0.029" y="-2.923" transform="matrix(1 0 0 1 28 -15.7998)" style="overflow:visible;opacity:0.1797;enable-background:new    ;"/>
				
					<use xlink:href="#FlashAICB_x2F_Layer_51_x2F__x3C_Path_x3E__x5F_24_x5F_1"  width="2.156" height="2.163" x="-0.006" y="-2.156" transform="matrix(1 0 0 1 23.2998 -16.5)" style="overflow:visible;opacity:0.1797;enable-background:new    ;"/>
				
					<use xlink:href="#FlashAICB_x2F_Layer_51_x2F__x3C_Path_x3E__x5F_23_x5F_0"  width="1.917" height="1.517" x="-0.017" y="-1.517" transform="matrix(1 0 0 1 17.8999 -8.3999)" style="overflow:visible;opacity:0.1797;enable-background:new    ;"/>
				
					<use xlink:href="#FlashAICB_x2F_Layer_51_x2F__x3C_Path_x3E__x5F_22_x5F_0"  width="1.967" height="1.731" x="-0.017" y="-1.638" transform="matrix(1 0 0 1 22.5498 -13.5)" style="overflow:visible;opacity:0.6211;enable-background:new    ;"/>
				
					<use xlink:href="#FlashAICB_x2F_Layer_51_x2F__x3C_Path_x3E__x5F_21_x5F_0"  width="1.171" height="1.388" x="-0.014" y="-1.4" transform="matrix(1 0 0 1 25.2998 -14.5)" style="overflow:visible;opacity:0.6211;enable-background:new    ;"/>
				<path style="fill-rule:evenodd;clip-rule:evenodd;fill:#F8E6BB;" d="M25.9-13.7c-0.167-0.467-0.566-0.467-1.2,0
					c-0.633,0.433-0.583,0.683,0.15,0.75l0.9-0.6C25.817-13.55,25.867-13.6,25.9-13.7z"/>
				<path style="fill-rule:evenodd;clip-rule:evenodd;fill:#F8E6BB;" d="M19.1-10.75c-0.033,0.167,0.033,0.317,0.2,0.45
					c0.2,0.167,0.383,0.217,0.55,0.15l0.4-0.85c-0.2-0.1-0.417-0.133-0.65-0.1C19.3-11.1,19.133-10.983,19.1-10.75z"/>
				<path style="fill-rule:evenodd;clip-rule:evenodd;fill:#F8E6BB;" d="M19.65-9.2c0.567,0,0.967-0.083,1.2-0.25L20.4-9.6
					c-0.233,0-0.433,0.1-0.6,0.3L19.65-9.2z"/>
				<path style="fill-rule:evenodd;clip-rule:evenodd;fill:#F8E6BB;" d="M18-9.35l0.95-0.2L18.4-9.8c-0.433-0.167-0.767-0.066-1,0.3
					c0.067,0.1,0.25,0.15,0.55,0.15H18z"/>
				<path style="fill-rule:evenodd;clip-rule:evenodd;fill:#F8E6BB;" d="M18.5-12.65l-0.05,0.6l0.05,0.25l1.2-0.55
					c0.2-0.233,0.183-0.45-0.05-0.65c-0.233-0.2-0.467-0.25-0.7-0.15C18.783-13.05,18.633-12.883,18.5-12.65z"/>
				<path style="fill-rule:evenodd;clip-rule:evenodd;fill:#F8E6BB;" d="M23.4-19.3c-0.233-0.1-0.417-0.017-0.55,0.25
					c-0.1,0.233-0.05,0.434,0.15,0.6c0.133-0.067,0.217-0.133,0.25-0.2L23.4-19.3z"/>
				<polygon style="fill-rule:evenodd;clip-rule:evenodd;fill:#F8E6BB;" points="24.2,-20.05 24.05,-20.2 23.8,-20.05 23.9,-19.95 
					24,-19.65 				"/>
				<path style="fill-rule:evenodd;clip-rule:evenodd;fill:#F8E6BB;" d="M21.9-20.85c-0.066-0.267-0.2-0.333-0.4-0.2l0.2,0.4
					L21.9-20.85z"/>
				
					<use xlink:href="#FlashAICB_x2F_Layer_51_x2F__x3C_Path_x3E__x5F_11_x5F_0"  width="0.6" height="0.783" y="-0.738" transform="matrix(1 0 0 1 28.6001 -18.9502)" style="overflow:visible;opacity:0.1797;enable-background:new    ;"/>
				
					<use xlink:href="#FlashAICB_x2F_Layer_51_x2F__x3C_Path_x3E__x5F_10_x5F_0"  width="17.4" height="15.429" y="-15.45" transform="matrix(1 0 0 1 18.3501 -6.3501)" style="overflow:visible;opacity:0.3594;enable-background:new    ;"/>
				
					<use xlink:href="#FlashAICB_x2F_Layer_51_x2F__x3C_Path_x3E__x5F_9_x5F_0"  width="0.65" height="0.6" y="-0.6" transform="matrix(1 0 0 1 19.8501 -14.5498)" style="overflow:visible;opacity:0.1797;enable-background:new    ;"/>
				
					<use xlink:href="#FlashAICB_x2F_Layer_51_x2F__x3C_Path_x3E__x5F_8_x5F_1"  width="0.65" height="0.6" y="-0.6" transform="matrix(1 0 0 1 19.8501 -14.5498)" style="overflow:visible;opacity:0.3594;enable-background:new    ;"/>
				
					<use xlink:href="#FlashAICB_x2F_Layer_51_x2F__x3C_Path_x3E__x5F_7_x5F_1"  width="1.164" height="2" y="-2" transform="matrix(1 0 0 1 32.7002 -19)" style="overflow:visible;opacity:0.1797;enable-background:new    ;"/>
				
					<use xlink:href="#FlashAICB_x2F_Layer_51_x2F__x3C_Path_x3E__x5F_6_x5F_2"  width="1.164" height="2" y="-2" transform="matrix(1 0 0 1 32.7002 -19)" style="overflow:visible;opacity:0.3594;enable-background:new    ;"/>
				
					<use xlink:href="#FlashAICB_x2F_Layer_51_x2F__x3C_Path_x3E__x5F_5_x5F_1"  width="3.35" height="1.55" y="-1.55" transform="matrix(1 0 0 1 28.7002 -15.2002)" style="overflow:visible;opacity:0.1797;enable-background:new    ;"/>
				
					<use xlink:href="#FlashAICB_x2F_Layer_51_x2F__x3C_Path_x3E__x5F_4_x5F_1"  width="3.35" height="1.55" y="-1.55" transform="matrix(1 0 0 1 28.7002 -15.2002)" style="overflow:visible;opacity:0.3594;enable-background:new    ;"/>
				
					<use xlink:href="#FlashAICB_x2F_Layer_51_x2F__x3C_Path_x3E__x5F_3_x5F_2"  width="1.25" height="0.9" y="-0.9" transform="matrix(1 0 0 1 18.3999 -8.2998)" style="overflow:visible;opacity:0.1797;enable-background:new    ;"/>
				
					<use xlink:href="#FlashAICB_x2F_Layer_51_x2F__x3C_Path_x3E__x5F_2_x5F_3"  width="1.25" height="0.9" y="-0.9" transform="matrix(1 0 0 1 18.3999 -8.2998)" style="overflow:visible;opacity:0.3594;enable-background:new    ;"/>
				<path style="fill-rule:evenodd;clip-rule:evenodd;fill:#F8E6BB;" d="M19.95-8.2l1.75-0.7l-0.85-0.55
					c-0.233,0.167-0.633,0.25-1.2,0.25L19.6-9.15c-0.133,0.133-0.2,0.267-0.2,0.4C19.4-8.55,19.583-8.366,19.95-8.2z"/>
				
					<use xlink:href="#FlashAICB_x2F_Layer_51_x2F__x3C_Path_x3E__x5F_15"  width="2.3" height="1.25" y="-1.25" transform="matrix(1 0 0 1 19.3999 -8.2002)" style="overflow:visible;opacity:0.3594;enable-background:new    ;"/>
			</g>
			
				<radialGradient id="SVGID_11_" cx="10235.1045" cy="3181.1191" r="18.9876" gradientTransform="matrix(0.5813 0.8137 0.8367 -0.578 -8587.4609 -6507.0767)" gradientUnits="userSpaceOnUse">
				<stop  offset="0" style="stop-color:#7A1C06"/>
				<stop  offset="1" style="stop-color:#DF9590"/>
			</radialGradient>
			<path style="fill-rule:evenodd;clip-rule:evenodd;fill:url(#SVGID_11_);" d="M20.9-3.8c0.167,0.167,0.4,0.283,0.7,0.35
				c0.467,0.1,0.717,0.167,0.75,0.2l2.3,1.6c0.333,0.434,0.617,0.717,0.85,0.85c0.067,0.066,0.333,0.133,0.8,0.2
				c0.467,0.033,1.167,0.2,2.1,0.5c1.333,0.167,2.3,0.1,2.9-0.2l1.4-0.75c0.333,0,0.683-0.184,1.05-0.55
				c0.267-0.134,0.617-0.3,1.05-0.5c0.6-0.4,1.034-0.733,1.3-1l0.4-0.7c0.467-0.5,1.2-1.233,2.2-2.2c0.466-0.6,0.633-1.383,0.5-2.35
				c0-0.434,0.017-0.684,0.05-0.75c0.033-0.134,0.167-0.333,0.4-0.6c0.033-0.133-0.05-0.317-0.25-0.55c-0.1-0.1-0.25-0.25-0.45-0.45
				c-0.2-0.434-0.3-0.684-0.3-0.75c0.033-0.2,0.2-0.417,0.5-0.65c0.1-0.134,0.133-0.35,0.1-0.65c0-0.133-0.033-0.35-0.1-0.65
				c0-0.2-0.133-0.45-0.4-0.75c-0.233-0.3-0.367-0.533-0.4-0.7c0-0.067,0.033-0.184,0.1-0.35c0.1-0.133,0.133-0.25,0.1-0.35
				c-0.033-0.133-0.167-0.3-0.4-0.5c-0.133-0.1-0.316-0.25-0.55-0.45c-0.3-0.267-0.684-0.683-1.15-1.25
				c-0.233-0.233-0.617-0.517-1.15-0.85c-0.133-0.134-0.316-0.367-0.55-0.7c-0.2-0.3-0.383-0.517-0.55-0.65
				c-0.2-0.2-0.45-0.267-0.75-0.2c-0.3,0.1-0.5,0.3-0.6,0.6c-0.033,0.2,0.233,0.583,0.8,1.15c0.2,0.233,0.35,0.434,0.45,0.6
				c0.167,0.233,0.233,0.45,0.2,0.65c-0.033,0.3-0.216,0.483-0.55,0.55c-0.4,0-0.683,0.033-0.85,0.1
				c-0.133,0.034-0.4,0.184-0.8,0.45c-0.3,0.233-0.583,0.35-0.85,0.35l-0.6-0.2c-0.3,0.067-0.55,0.1-0.75,0.1
				c-0.333,0.033-0.566,0.05-0.7,0.05c-0.267,0.034-0.517,0.15-0.75,0.35c0.233,0.233,0.017,0.733-0.65,1.5
				c-0.333,0.467-0.833,0.9-1.5,1.3c-0.367,0.267-0.65,0.433-0.85,0.5c-0.367,0.033-0.684,0.066-0.95,0.1
				c-0.5,0.067-0.85,0.1-1.05,0.1c-0.367,0-0.633-0.15-0.8-0.45L21.9-13.6c-0.333-0.6-0.683-0.983-1.05-1.15
				c-0.067-0.033-0.267-0.066-0.6-0.1c-0.233-0.067-0.417-0.15-0.55-0.25c-0.067-0.067-0.217-0.233-0.45-0.5
				c-0.233-0.2-0.417-0.2-0.55,0c0.433,0.833,1,1.417,1.7,1.75c0.367,0.167,0.717,0.483,1.05,0.95c0.367,0.567,0.633,0.967,0.8,1.2
				c0.2,0.233,0.317,0.4,0.35,0.5c0.066,0.2-0.033,0.35-0.3,0.45c-0.3,0.1-0.55,0.017-0.75-0.25c-0.066-0.133-0.216-0.383-0.45-0.75
				c-0.2-0.3-0.434-0.333-0.7-0.1c0.4,0.333,0.667,0.616,0.8,0.85c0.1,0.2,0.15,0.517,0.15,0.95c-0.1,0.467-0.317,0.767-0.65,0.9
				c-0.4,0.2-0.733,0.284-1,0.25L19.3-9c-0.1-0.033-0.233-0.017-0.4,0.05l-0.75,0.4c-0.3,0.2-0.367,0.467-0.2,0.8
				c0.333,0.333,0.55,0.6,0.65,0.8c0.167,0.466,0.3,0.816,0.4,1.05c0.1,0.167,0.35,0.417,0.75,0.75
				C20.217-4.517,20.6-4.066,20.9-3.8z"/>
			<g>
				<path style="fill-rule:evenodd;clip-rule:evenodd;fill:#7F403A;" d="M19.7-8.9L19.3-9c-0.1-0.033-0.233-0.017-0.4,0.05
					l-0.75,0.4c-0.3,0.2-0.367,0.467-0.2,0.8L18.2-7.5c0-0.267,0.1-0.5,0.3-0.7c0.2-0.2,0.433-0.317,0.7-0.35
					c0.066,0,0.533,0.066,1.4,0.2c0.467,0.066,0.867-0.1,1.2-0.5c0.167-0.2,0.2-0.434,0.1-0.7c-0.133-0.233-0.316-0.434-0.55-0.6
					v0.1c-0.1,0.467-0.317,0.767-0.65,0.9C20.3-8.95,19.967-8.866,19.7-8.9z"/>
				<path style="fill-rule:evenodd;clip-rule:evenodd;fill:#7F403A;" d="M22.65-9.75c0.2-0.033,0.083-0.366-0.35-1
					c-0.267,0.1-0.483,0.067-0.65-0.1l0.15,0.35c0.133,0.2,0.25,0.367,0.35,0.5C22.317-9.8,22.483-9.716,22.65-9.75z"/>
				
					<use xlink:href="#FlashAICB_x2F_Layer_51_x2F__x3C_Path_x3E__x5F_30_x5F_1"  width="1.85" height="1.9" y="-1.9" transform="matrix(1 0 0 1 20.4502 -12.8999)" style="overflow:visible;opacity:0.3008;enable-background:new    ;"/>
				
					<use xlink:href="#FlashAICB_x2F_Layer_51_x2F__x3C_Path_x3E__x5F_29_x5F_1"  width="-32766" height="-32766" x="16383" y="16383" transform="matrix(1 0 0 1 20.3999 -14.5498)" style="overflow:visible;opacity:0.3008;enable-background:new    ;"/>
				
					<use xlink:href="#FlashAICB_x2F_Layer_51_x2F__x3C_Path_x3E__x5F_28_x5F_1"  width="16.15" height="10.285" y="-10.275" transform="matrix(1 0 0 1 23 -9.8999)" style="overflow:visible;opacity:0.3008;enable-background:new    ;"/>
				
					<use xlink:href="#FlashAICB_x2F_Layer_51_x2F__x3C_Path_x3E__x5F_27_x5F_1"  width="3.15" height="1.718" x="-0.05" y="-1.754" transform="matrix(1 0 0 1 28.6001 -11.0498)" style="overflow:visible;opacity:0.3008;enable-background:new    ;"/>
				
					<use xlink:href="#FlashAICB_x2F_Layer_51_x2F__x3C_Path_x3E__x5F_26_x5F_1"  width="0.845" height="0.9" y="-0.9" transform="matrix(1 0 0 1 32.1001 -11.6499)" style="overflow:visible;opacity:0.3008;enable-background:new    ;"/>
				
					<use xlink:href="#FlashAICB_x2F_Layer_51_x2F__x3C_Path_x3E__x5F_25_x5F_2"  width="2.903" height="2.876" x="-0.004" y="-2.851" transform="matrix(1 0 0 1 36.4502 -7)" style="overflow:visible;opacity:0.3008;enable-background:new    ;"/>
				
					<use xlink:href="#FlashAICB_x2F_Layer_51_x2F__x3C_Path_x3E__x5F_24_x5F_2"  width="1.728" height="1.406" x="0.022" y="-1.406" transform="matrix(1 0 0 1 37.1001 -10.75)" style="overflow:visible;opacity:0.3008;enable-background:new    ;"/>
				
					<use xlink:href="#FlashAICB_x2F_Layer_51_x2F__x3C_Path_x3E__x5F_23_x5F_1"  width="2.817" height="3.694" x="0.033" y="-3.639" transform="matrix(1 0 0 1 33.5498 -9.7998)" style="overflow:visible;opacity:0.3008;enable-background:new    ;"/>
				
					<use xlink:href="#FlashAICB_x2F_Layer_51_x2F__x3C_Path_x3E__x5F_22_x5F_1"  width="2.854" height="2.24" x="-0.004" y="-2.25" transform="matrix(1 0 0 1 29.7998 -8.7998)" style="overflow:visible;opacity:0.3008;enable-background:new    ;"/>
				
					<use xlink:href="#FlashAICB_x2F_Layer_51_x2F__x3C_Path_x3E__x5F_21_x5F_1"  width="2.64" height="1.77" x="-0.04" y="-1.757" transform="matrix(1 0 0 1 26.1001 -8.6499)" style="overflow:visible;opacity:0.3008;enable-background:new    ;"/>
				
					<use xlink:href="#FlashAICB_x2F_Layer_51_x2F__x3C_Path_x3E__x5F_20_x5F_0"  width="3.004" height="1.929" y="-1.929" transform="matrix(1 0 0 1 26.8501 -6.2998)" style="overflow:visible;opacity:0.1797;enable-background:new    ;"/>
				
					<use xlink:href="#FlashAICB_x2F_Layer_51_x2F__x3C_Path_x3E__x5F_19_x5F_0"  width="1.864" height="1.715" x="0.036" y="-1.708" transform="matrix(1 0 0 1 24.3501 -6.3999)" style="overflow:visible;opacity:0.1797;enable-background:new    ;"/>
				
					<use xlink:href="#FlashAICB_x2F_Layer_51_x2F__x3C_Path_x3E__x5F_18_x5F_0"  width="2.592" height="1.508" x="-0.042" y="-1.474" transform="matrix(1 0 0 1 20.7998 -6.6001)" style="overflow:visible;opacity:0.1797;enable-background:new    ;"/>
				
					<use xlink:href="#FlashAICB_x2F_Layer_51_x2F__x3C_Path_x3E__x5F_17"  width="3.513" height="2.62" x="0.022" y="-2.607" transform="matrix(1 0 0 1 27.1001 -3.5)" style="overflow:visible;opacity:0.1797;enable-background:new    ;"/>
				
					<use xlink:href="#FlashAICB_x2F_Layer_51_x2F__x3C_Path_x3E__x5F_16"  width="1.672" height="1.582" x="-0.022" y="-1.595" transform="matrix(1 0 0 1 25.0498 -4.0498)" style="overflow:visible;opacity:0.1797;enable-background:new    ;"/>
				
					<use xlink:href="#FlashAICB_x2F_Layer_51_x2F__x3C_Path_x3E__x5F_15_x5F_0"  width="2.099" height="1.606" x="-0.011" y="-1.606" transform="matrix(1 0 0 1 31.6001 -6.7002)" style="overflow:visible;opacity:0.1797;enable-background:new    ;"/>
				
					<use xlink:href="#FlashAICB_x2F_Layer_51_x2F__x3C_Path_x3E__x5F_14_x5F_0"  width="1.483" height="1.35" x="-0.028" y="-1.35" transform="matrix(1 0 0 1 34.7998 -7.3501)" style="overflow:visible;opacity:0.1797;enable-background:new    ;"/>
				<path style="fill-rule:evenodd;clip-rule:evenodd;fill:#EDBCB9;" d="M25.95-1.55c0,0.1,0.133,0.283,0.4,0.55
					c0.2,0.2,0.367,0.333,0.5,0.4l1.8-0.5l0.45-0.4c-0.567-0.933-1.25-1.233-2.05-0.9C26.317-2.1,25.95-1.816,25.95-1.55z"/>
				<path style="fill-rule:evenodd;clip-rule:evenodd;fill:#EDBCB9;" d="M29.9-0.6c0.267,0.167,0.6,0.083,1-0.25l0.45-0.8
					c0.1-0.1,0.083-0.2-0.05-0.3c-0.1-0.1-0.216-0.15-0.35-0.15c-0.5-0.067-0.917,0.167-1.25,0.7C29.433-1.066,29.5-0.8,29.9-0.6z"
					/>
				<path style="fill-rule:evenodd;clip-rule:evenodd;fill:#EDBCB9;" d="M31.8-1.45c0.233,0.5,0.534,0.533,0.9,0.1l0.25-0.2
					c0.033-0.333-0.117-0.434-0.45-0.3C32.2-1.75,31.967-1.616,31.8-1.45z"/>
				<path style="fill-rule:evenodd;clip-rule:evenodd;fill:#EDBCB9;" d="M33.6-2.75c0.367,0.3,0.816,0.3,1.35,0v-0.5
					c-0.167,0-0.284-0.1-0.35-0.3C34.533-3.716,34.55-3.866,34.65-4L34.3-4.05c-0.3,0.1-0.566,0.333-0.8,0.7
					C33.333-3.15,33.367-2.95,33.6-2.75z"/>
				<path style="fill-rule:evenodd;clip-rule:evenodd;fill:#EDBCB9;" d="M31.1-2.8c0.066,0.2,0.2,0.316,0.4,0.35
					c0.233,0.033,0.417-0.017,0.55-0.15l0.3-0.5C32.017-3.466,31.6-3.366,31.1-2.8z"/>
				<path style="fill-rule:evenodd;clip-rule:evenodd;fill:#EDBCB9;" d="M31.35-3.85c0.066,0.1,0.217,0.133,0.45,0.1
					c0.2-0.033,0.35-0.083,0.45-0.15l-0.2-0.25c-0.133-0.133-0.316-0.167-0.55-0.1C31.3-4.183,31.25-4.05,31.35-3.85z"/>
				<path style="fill-rule:evenodd;clip-rule:evenodd;fill:#EDBCB9;" d="M34.9-6.25c-0.133,0-0.417,0.217-0.85,0.65
					c-0.233,0.267-0.267,0.466-0.1,0.6c0.2,0.2,0.55,0.117,1.05-0.25l0.4-0.05c0.067-0.167,0.033-0.367-0.1-0.6
					C35.2-6.133,35.067-6.25,34.9-6.25z"/>
				<path style="fill-rule:evenodd;clip-rule:evenodd;fill:#EDBCB9;" d="M34.6-3.55c0.066,0.2,0.183,0.3,0.35,0.3
					c0.267,0.067,0.816-0.216,1.65-0.85l0.2-0.3c0.133-0.566,0.034-0.9-0.3-1c-0.133-0.033-0.367,0.083-0.7,0.35
					c-0.3,0.3-0.483,0.483-0.55,0.55c-0.333,0.233-0.533,0.4-0.6,0.5C34.55-3.866,34.533-3.716,34.6-3.55z"/>
				<path style="fill-rule:evenodd;clip-rule:evenodd;fill:#EDBCB9;" d="M37.85-6.9c-0.233,0.167-0.417,0.383-0.55,0.65
					c-0.167,0.3-0.05,0.417,0.35,0.35l0.75-0.6c0.3-0.167,0.35-0.316,0.15-0.45C38.35-7.116,38.117-7.1,37.85-6.9z"/>
				<path style="fill-rule:evenodd;clip-rule:evenodd;fill:#EDBCB9;" d="M27.05-3.4c-0.3-0.367-0.6-0.5-0.9-0.4
					c-0.167,0.1-0.417,0.333-0.75,0.7c0.3,0.533,0.684,0.566,1.15,0.1L27.05-3.4z"/>
				<path style="fill-rule:evenodd;clip-rule:evenodd;fill:#EDBCB9;" d="M21.65-5.2c-0.5,0.267-0.483,0.85,0.05,1.75l0.65,0.2
					l0.75,0.5c1.066-0.167,1.417-0.533,1.05-1.1c-0.167-0.2-0.383-0.333-0.65-0.4c-0.1-0.066-0.217-0.216-0.35-0.45
					C22.75-5.366,22.25-5.533,21.65-5.2z"/>
				<path style="fill-rule:evenodd;clip-rule:evenodd;fill:#EDBCB9;" d="M21.35-5.2c-0.233-0.1-0.467-0.133-0.7-0.1
					c-0.333,0.033-0.483,0.2-0.45,0.5c0.033,0.267,0.3,0.367,0.8,0.3L21.35-5.2z"/>
				<path style="fill-rule:evenodd;clip-rule:evenodd;fill:#EDBCB9;" d="M24.35-6.25c-0.167-0.267-0.367-0.45-0.6-0.55
					c-0.267-0.133-0.483-0.033-0.65,0.3c-0.1,0.2-0.033,0.417,0.2,0.65L24.35-6.25z"/>
				<path style="fill-rule:evenodd;clip-rule:evenodd;fill:#EDBCB9;" d="M31.65-7.05L31.55-7c-0.333,0.3-0.367,0.534-0.1,0.7
					c0.2,0.167,0.5,0.217,0.9,0.15L33.1-6.6l-0.05-0.1c-0.267-0.333-0.483-0.517-0.65-0.55C32.167-7.35,31.917-7.283,31.65-7.05z"/>
			</g>
		</g>
	</g>
</symbol>
<use xlink:href="#Symbol_1"  width="39.648" height="45.789" x="0.009" y="-45.8" transform="matrix(1 0 0 -1 -0.2998 0.1001)" style="overflow:visible;"/>
</svg>
