<?xml version="1.0" encoding="iso-8859-1"?>
<!-- Generator: Adobe Illustrator 15.1.0, SVG Export Plug-In . SVG Version: 6.00 Build 0)  -->
<!DOCTYPE svg PUBLIC "-//W3C//DTD SVG 1.1//EN" "http://www.w3.org/Graphics/SVG/1.1/DTD/svg11.dtd">
<svg version="1.1" id="Layer_8" xmlns="http://www.w3.org/2000/svg" xmlns:xlink="http://www.w3.org/1999/xlink" x="0px" y="0px"
	 width="57px" height="72px" viewBox="0 0 57 72" style="enable-background:new 0 0 57 72;" xml:space="preserve">
<symbol  id="Misc._bits_x2F_PuffStar" viewBox="-45.15 -46.45 90.3 92.851">
	<g id="Layer_1_3_">
		<radialGradient id="SVGID_1_" cx="0" cy="-0.0249" r="52.3857" gradientUnits="userSpaceOnUse">
			<stop  offset="0" style="stop-color:#FFF6F5;stop-opacity:0.2471"/>
			<stop  offset="1" style="stop-color:#FFB8B8;stop-opacity:0.1412"/>
		</radialGradient>
		<polygon style="fill-rule:evenodd;clip-rule:evenodd;fill:url(#SVGID_1_);" points="41.2,32.4 13.55,1.7 45.15,-25 7.35,-8.15 
			-8.25,-46.45 -3.9,-5.3 -45.15,-2.3 -4.7,6.3 -14.6,46.4 6.1,10.6 		"/>
	</g>
</symbol>
<symbol  id="Misc._bits_x2F_PuffSymbol_2" viewBox="-0.016 -33.37 33.699 33.388">
	<g id="Layer_9_2_">
		
			<radialGradient id="SVGID_2_" cx="-2759.3418" cy="-10665.0498" r="14.9581" gradientTransform="matrix(0.5364 -0.8439 -1.0445 -0.4922 -9642.709 -7592.9927)" gradientUnits="userSpaceOnUse">
			<stop  offset="0" style="stop-color:#FFF6F5;stop-opacity:0.2471"/>
			<stop  offset="1" style="stop-color:#FFB8B8;stop-opacity:0.1294"/>
		</radialGradient>
		<path style="fill-rule:evenodd;clip-rule:evenodd;fill:url(#SVGID_2_);" d="M30.5-7c0.867-0.867,0.967-1.617,0.3-2.25l0.05-0.4
			c0.633-0.333,0.917-0.75,0.85-1.25c-0.1-0.467-0.467-0.917-1.1-1.35c2.267-0.333,3.283-1.517,3.05-3.55
			c-0.267-2-1.667-3.067-4.2-3.2c0.233-0.3,0.367-0.517,0.4-0.65c0.033-0.267-0.133-0.483-0.5-0.65c0.833-0.367,1.467-0.95,1.9-1.75
			c0.5-0.934,0.45-1.717-0.15-2.35c-0.667-0.7-1.75-1.117-3.25-1.25c-1.633-0.033-2.767-0.1-3.4-0.2c0.167-0.5-0.367-0.75-1.6-0.75
			c0.167-1.8-0.65-3.133-2.45-4c-0.9-0.433-1.6-0.683-2.1-0.75c-0.667-0.1-1.3,0.05-1.9,0.45c-0.7-0.533-1.25-0.7-1.65-0.5
			c-0.2,0.066-0.517,0.417-0.95,1.05c-1.566-0.733-2.966-0.833-4.2-0.3c-1.267,0.566-1.417,1.5-0.45,2.8
			c-2.467-0.066-4.167,0.383-5.1,1.35c-0.466,0.533-0.566,0.967-0.3,1.3c0.1,0.1,0.6,0.45,1.5,1.05c-1.033,0.4-1.733,0.717-2.1,0.95
			c-0.667,0.434-1.117,0.967-1.35,1.6c-0.167,0.5-0.167,0.883,0,1.15c0,0.034,0.3,0.383,0.9,1.05c-0.667,0.467-1.133,0.983-1.4,1.55
			C0.967-17.117,1.2-16.6,2-16.3c-0.667,0.4-1.2,0.917-1.6,1.55c-0.467,0.8-0.483,1.467-0.05,2C0.617-12.45,1-12.2,1.5-12
			c0.567,0.233,0.967,0.267,1.2,0.1c-1.3,1.4-1.784,2.467-1.45,3.2c0.367,0.733,0.9,1.017,1.6,0.85c0.4-0.066,1.033-0.283,1.9-0.65
			c0,0.067-0.35,0.7-1.05,1.9C3.233-5.833,3.267-5.133,3.8-4.5c0.733,0.8,1.733,0.933,3,0.4c0.7-0.3,1.6-0.833,2.7-1.6
			c0.633,0.567,1.067,0.9,1.3,1c0.534,0.233,0.967,0.034,1.3-0.6c-0.167,1.033-0.083,1.966,0.25,2.8c0.433,1,1.2,1.733,2.3,2.2
			c1.267,0.533,2.267,0.383,3-0.45c0.434-0.467,0.967-1.283,1.6-2.45c0.8,0.567,1.45,0.684,1.95,0.35c0.066-0.033,0.466-0.5,1.2-1.4
			c0.967,0.5,1.6,0.783,1.9,0.85c0.7,0.167,1.317,0.05,1.85-0.35c0.333-0.267,0.65-0.7,0.95-1.3c0.167-0.367,0.383-0.85,0.65-1.45
			C28.683-5.933,29.6-6.1,30.5-7z"/>
	</g>
	<g id="Layer_8_2_">
		
			<radialGradient id="SVGID_3_" cx="-3374.6885" cy="-7763.5811" r="14.0849" gradientTransform="matrix(0.7311 -0.6823 -0.5758 -0.5217 -1983.1504 -6371.6377)" gradientUnits="userSpaceOnUse">
			<stop  offset="0" style="stop-color:#FFE5E3;stop-opacity:0.6275"/>
			<stop  offset="0.2863" style="stop-color:#FFE0DF;stop-opacity:0.5255"/>
			<stop  offset="0.6039" style="stop-color:#FFD3D2;stop-opacity:0.3412"/>
			<stop  offset="0.9333" style="stop-color:#FFBDBD;stop-opacity:0.0667"/>
			<stop  offset="1" style="stop-color:#FFB8B8;stop-opacity:0"/>
		</radialGradient>
		<path style="fill-rule:evenodd;clip-rule:evenodd;fill:url(#SVGID_3_);" d="M21.6-30.95c-3.6,0.467-6.817,2.034-9.65,4.7
			c-2.833,2.633-4.467,5.617-4.9,8.95c-0.433,3.3,0.467,5.966,2.7,8c2.233,2.033,5.167,2.833,8.8,2.4
			c3.567-0.434,6.784-1.983,9.65-4.65c2.833-2.667,4.466-5.65,4.9-8.95c0.4-3.333-0.517-6.017-2.75-8.05
			C28.117-30.583,25.2-31.383,21.6-30.95z"/>
	</g>
	<g id="Layer_7_2_">
		
			<radialGradient id="SVGID_4_" cx="-2695.8203" cy="-11304.4697" r="6.8107" gradientTransform="matrix(0.4864 -0.8737 -0.8535 -0.402 -8310.832 -6911.7466)" gradientUnits="userSpaceOnUse">
			<stop  offset="0" style="stop-color:#FFE5E3;stop-opacity:0.6275"/>
			<stop  offset="0.2863" style="stop-color:#FFE0DF;stop-opacity:0.5255"/>
			<stop  offset="0.6039" style="stop-color:#FFD3D2;stop-opacity:0.3412"/>
			<stop  offset="0.9333" style="stop-color:#FFBDBD;stop-opacity:0.0667"/>
			<stop  offset="1" style="stop-color:#FFB8B8;stop-opacity:0"/>
		</radialGradient>
		<path style="fill-rule:evenodd;clip-rule:evenodd;fill:url(#SVGID_4_);" d="M24.85-18.25c-1.8,0.633-3.15,1.767-4.05,3.4
			c-0.933,1.667-1.15,3.333-0.65,5c0.467,1.733,1.517,2.967,3.15,3.7c1.6,0.767,3.3,0.833,5.1,0.2c1.767-0.633,3.1-1.767,4-3.4
			c0.934-1.633,1.15-3.316,0.65-5.05c-0.5-1.667-1.55-2.883-3.15-3.65C28.3-18.817,26.617-18.883,24.85-18.25z"/>
	</g>
	<g id="Layer_6_2_">
		
			<radialGradient id="SVGID_5_" cx="-2049.5273" cy="-12693.2871" r="8.8454" gradientTransform="matrix(0.3716 -0.9284 -1.129 -0.3462 -13554.1738 -6305.8955)" gradientUnits="userSpaceOnUse">
			<stop  offset="0" style="stop-color:#FFE5E3;stop-opacity:0.6275"/>
			<stop  offset="0.2863" style="stop-color:#FFE0DF;stop-opacity:0.5255"/>
			<stop  offset="0.6039" style="stop-color:#FFD3D2;stop-opacity:0.3412"/>
			<stop  offset="0.9333" style="stop-color:#FFBDBD;stop-opacity:0.0667"/>
			<stop  offset="1" style="stop-color:#FFB8B8;stop-opacity:0"/>
		</radialGradient>
		<path style="fill-rule:evenodd;clip-rule:evenodd;fill:url(#SVGID_5_);" d="M10.55-16.7c-2.6,1-4.35,2.633-5.25,4.9
			C4.4-9.567,4.6-7.35,5.9-5.15c1.333,2.2,3.367,3.733,6.1,4.6c2.767,0.833,5.433,0.75,8-0.25c2.6-1,4.367-2.633,5.3-4.9
			c0.9-2.267,0.7-4.5-0.6-6.7c-1.333-2.2-3.367-3.717-6.1-4.55C15.833-17.817,13.15-17.733,10.55-16.7z"/>
	</g>
	<g id="Layer_5_2_">
		
			<radialGradient id="SVGID_6_" cx="-3371.1064" cy="-6493.3877" r="6.1725" gradientTransform="matrix(0.8019 -0.5974 -0.6096 -0.6946 -1240.9551 -6535.4839)" gradientUnits="userSpaceOnUse">
			<stop  offset="0" style="stop-color:#FFE5E3;stop-opacity:0.6275"/>
			<stop  offset="0.2863" style="stop-color:#FFE0DF;stop-opacity:0.5255"/>
			<stop  offset="0.6039" style="stop-color:#FFD3D2;stop-opacity:0.3412"/>
			<stop  offset="0.9333" style="stop-color:#FFBDBD;stop-opacity:0.0667"/>
			<stop  offset="1" style="stop-color:#FFB8B8;stop-opacity:0"/>
		</radialGradient>
		<path style="fill-rule:evenodd;clip-rule:evenodd;fill:url(#SVGID_6_);" d="M14.55-16.8c-1.7-0.133-3.233,0.316-4.6,1.35
			c-1.367,1-2.167,2.284-2.4,3.85c-0.233,1.567,0.167,2.934,1.2,4.1c1.067,1.167,2.45,1.817,4.15,1.95
			c1.7,0.133,3.233-0.317,4.6-1.35s2.167-2.317,2.4-3.85c0.2-1.567-0.217-2.933-1.25-4.1C17.617-16.05,16.25-16.7,14.55-16.8z"/>
	</g>
	<g id="Layer_4_2_">
		
			<radialGradient id="SVGID_7_" cx="-2923.1055" cy="-10548.1582" r="10.9558" gradientTransform="matrix(0.5457 -0.838 -0.7478 -0.4121 -6279.623 -6819.8618)" gradientUnits="userSpaceOnUse">
			<stop  offset="0" style="stop-color:#FFE5E3;stop-opacity:0.6275"/>
			<stop  offset="0.2863" style="stop-color:#FFE0DF;stop-opacity:0.5255"/>
			<stop  offset="0.6039" style="stop-color:#FFD3D2;stop-opacity:0.3412"/>
			<stop  offset="0.9333" style="stop-color:#FFBDBD;stop-opacity:0.0667"/>
			<stop  offset="1" style="stop-color:#FFB8B8;stop-opacity:0"/>
		</radialGradient>
		<path style="fill-rule:evenodd;clip-rule:evenodd;fill:url(#SVGID_7_);" d="M11.4-32.8c-2.8,0.933-5.017,2.667-6.65,5.2
			s-2.233,5.133-1.8,7.8c0.4,2.667,1.733,4.633,4,5.9c2.267,1.233,4.783,1.4,7.55,0.5c2.8-0.934,5.017-2.667,6.65-5.2
			c1.667-2.533,2.267-5.133,1.8-7.8c-0.434-2.7-1.784-4.667-4.05-5.9C16.633-33.533,14.133-33.7,11.4-32.8z"/>
	</g>
	<g id="Layer_3_2_">
		
			<radialGradient id="SVGID_8_" cx="-2699.1885" cy="-11322.1387" r="8.9477" gradientTransform="matrix(0.4865 -0.8737 -0.7661 -0.3607 -7352.1484 -6458.373)" gradientUnits="userSpaceOnUse">
			<stop  offset="0" style="stop-color:#FFE5E3;stop-opacity:0.6275"/>
			<stop  offset="0.2863" style="stop-color:#FFE0DF;stop-opacity:0.5255"/>
			<stop  offset="0.6039" style="stop-color:#FFD3D2;stop-opacity:0.3412"/>
			<stop  offset="0.9333" style="stop-color:#FFBDBD;stop-opacity:0.0667"/>
			<stop  offset="1" style="stop-color:#FFB8B8;stop-opacity:0"/>
		</radialGradient>
		<path style="fill-rule:evenodd;clip-rule:evenodd;fill:url(#SVGID_8_);" d="M6.4-24.45c-2.2,0.9-3.9,2.434-5.1,4.6
			c-1.233,2.133-1.6,4.283-1.1,6.45c0.5,2.167,1.7,3.7,3.6,4.6c1.867,0.9,3.9,0.9,6.1,0c2.2-0.9,3.9-2.434,5.1-4.6
			c1.2-2.167,1.567-4.317,1.1-6.45c-0.5-2.167-1.7-3.7-3.6-4.6C10.6-25.35,8.567-25.35,6.4-24.45z"/>
	</g>
	<g id="Layer_2_3_">
		
			<radialGradient id="SVGID_9_" cx="-2977.4238" cy="-10337.502" r="9.5924" gradientTransform="matrix(0.5607 -0.828 -0.8463 -0.4838 -7061.29 -7482.8193)" gradientUnits="userSpaceOnUse">
			<stop  offset="0" style="stop-color:#FFE5E3;stop-opacity:0.6275"/>
			<stop  offset="0.2863" style="stop-color:#FFE0DF;stop-opacity:0.5255"/>
			<stop  offset="0.6039" style="stop-color:#FFD3D2;stop-opacity:0.3412"/>
			<stop  offset="0.9333" style="stop-color:#FFBDBD;stop-opacity:0.0667"/>
			<stop  offset="1" style="stop-color:#FFB8B8;stop-opacity:0"/>
		</radialGradient>
		<path style="fill-rule:evenodd;clip-rule:evenodd;fill:url(#SVGID_9_);" d="M15.65-25.4c-2.633,0.667-4.7,2.083-6.2,4.25
			c-1.467,2.2-1.934,4.533-1.4,7c0.534,2.467,1.917,4.333,4.15,5.6c2.267,1.267,4.716,1.583,7.35,0.95s4.684-2.05,6.15-4.25
			c1.466-2.2,1.933-4.533,1.4-7c-0.533-2.433-1.917-4.3-4.15-5.6C20.717-25.717,18.283-26.033,15.65-25.4z"/>
	</g>
</symbol>
<symbol  id="Misc._bits_x2F_PuffSymbol_3" viewBox="0.006 -49.099 52.385 49.098">
	<g id="Layer_1_2_">
		<g>
			<g>
				
					<radialGradient id="SVGID_10_" cx="2846.731" cy="2042.7168" r="21.3685" gradientTransform="matrix(0.9539 0.3001 0.2327 -0.7399 -3159.6221 634.1963)" gradientUnits="userSpaceOnUse">
					<stop  offset="0" style="stop-color:#FFD9D6;stop-opacity:0.498"/>
					<stop  offset="0.5333" style="stop-color:#FFC9C8;stop-opacity:0.2745"/>
					<stop  offset="1" style="stop-color:#FFB8B8;stop-opacity:0"/>
				</radialGradient>
				<path style="fill-rule:evenodd;clip-rule:evenodd;fill:url(#SVGID_10_);" d="M13.45-16.25c3,4.333,7.316,7.383,12.95,9.15
					s10.917,1.733,15.85-0.1c4.967-1.833,8.133-4.934,9.5-9.3s0.55-8.716-2.45-13.05c-3-4.367-7.317-7.417-12.95-9.15
					c-5.633-1.767-10.933-1.733-15.9,0.1c-4.967,1.833-8.133,4.934-9.5,9.3S10.417-20.584,13.45-16.25z"/>
				
					<radialGradient id="SVGID_11_" cx="26.0996" cy="-9.5005" r="10.575" gradientTransform="matrix(1 0 0 -0.8995 0 -18.0459)" gradientUnits="userSpaceOnUse">
					<stop  offset="0" style="stop-color:#FFD9D6;stop-opacity:0.498"/>
					<stop  offset="0.5333" style="stop-color:#FFC9C8;stop-opacity:0.2745"/>
					<stop  offset="1" style="stop-color:#FFB8B8;stop-opacity:0"/>
				</radialGradient>
				<path style="fill-rule:evenodd;clip-rule:evenodd;fill:url(#SVGID_11_);" d="M18.649-2.8C20.683-0.934,23.167,0,26.1,0
					s5.433-0.933,7.5-2.8c2.067-1.833,3.1-4.067,3.1-6.7s-1.033-4.883-3.1-6.75s-4.567-2.8-7.5-2.8s-5.417,0.933-7.45,2.8
					c-2.066,1.867-3.1,4.117-3.1,6.75S16.583-4.634,18.649-2.8z"/>
				
					<radialGradient id="SVGID_12_" cx="4002.1387" cy="2584.7852" r="11.1374" gradientTransform="matrix(0.9145 0.4045 0.3876 -0.8764 -4648.7109 629.873)" gradientUnits="userSpaceOnUse">
					<stop  offset="0" style="stop-color:#FFD9D6;stop-opacity:0.498"/>
					<stop  offset="0.5333" style="stop-color:#FFC9C8;stop-opacity:0.2745"/>
					<stop  offset="1" style="stop-color:#FFB8B8;stop-opacity:0"/>
				</radialGradient>
				<path style="fill-rule:evenodd;clip-rule:evenodd;fill:url(#SVGID_12_);" d="M17.45-6.4c2.833-1.033,4.833-2.9,6-5.6
					c1.2-2.667,1.233-5.4,0.1-8.2c-1.133-2.8-3.117-4.817-5.95-6.05c-2.8-1.267-5.617-1.383-8.45-0.35C6.316-25.567,4.3-23.7,3.1-21
					c-1.167,2.7-1.183,5.434-0.05,8.2C4.183-10,6.167-7.984,9-6.75C11.8-5.517,14.616-5.4,17.45-6.4z"/>
				
					<radialGradient id="SVGID_13_" cx="3995.4067" cy="2574.1729" r="9.2676" gradientTransform="matrix(0.9146 0.4045 0.3805 -0.8605 -4621.873 570.334)" gradientUnits="userSpaceOnUse">
					<stop  offset="0" style="stop-color:#FFD9D6;stop-opacity:0.498"/>
					<stop  offset="0.5333" style="stop-color:#FFC9C8;stop-opacity:0.2745"/>
					<stop  offset="1" style="stop-color:#FFB8B8;stop-opacity:0"/>
				</radialGradient>
				<path style="fill-rule:evenodd;clip-rule:evenodd;fill:url(#SVGID_13_);" d="M15.2-20.351c2.367-0.833,4.033-2.35,5-4.55
					s0.967-4.45,0-6.75s-2.617-3.967-4.95-5c-2.367-1.033-4.717-1.133-7.05-0.3c-2.333,0.8-3.983,2.316-4.95,4.55
					c-0.967,2.2-0.967,4.45,0,6.75c0.967,2.267,2.617,3.917,4.95,4.95C10.533-19.667,12.866-19.55,15.2-20.351z"/>
				
					<radialGradient id="SVGID_14_" cx="583.2695" cy="481.2002" r="16.9371" gradientTransform="matrix(0.9978 0.0657 0.0539 -0.8192 -575.3994 320.7705)" gradientUnits="userSpaceOnUse">
					<stop  offset="0" style="stop-color:#FFD9D6;stop-opacity:0.498"/>
					<stop  offset="0.5333" style="stop-color:#FFC9C8;stop-opacity:0.2745"/>
					<stop  offset="1" style="stop-color:#FFB8B8;stop-opacity:0"/>
				</radialGradient>
				<path style="fill-rule:evenodd;clip-rule:evenodd;fill:url(#SVGID_14_);" d="M49.45-34.05c0.267-3.833-1.167-7.217-4.3-10.15
					c-3.133-2.9-7.033-4.517-11.7-4.85c-4.667-0.3-8.733,0.8-12.2,3.3s-5.333,5.667-5.6,9.5c-0.267,3.8,1.167,7.167,4.3,10.1
					c3.1,2.934,6.983,4.566,11.65,4.9c4.667,0.3,8.75-0.8,12.25-3.3S49.216-30.217,49.45-34.05z"/>
				
					<radialGradient id="SVGID_15_" cx="20.2495" cy="-36.7002" r="13.9" gradientTransform="matrix(1 0 0 -0.8067 0 -66.3042)" gradientUnits="userSpaceOnUse">
					<stop  offset="0" style="stop-color:#FFD9D6;stop-opacity:0.498"/>
					<stop  offset="0.5333" style="stop-color:#FFC9C8;stop-opacity:0.2745"/>
					<stop  offset="1" style="stop-color:#FFB8B8;stop-opacity:0"/>
				</radialGradient>
				<path style="fill-rule:evenodd;clip-rule:evenodd;fill:url(#SVGID_15_);" d="M10.399-28.8c2.733,2.2,6.017,3.3,9.85,3.3
					c3.833,0,7.1-1.1,9.8-3.3c2.733-2.167,4.1-4.8,4.1-7.9c0-3.1-1.367-5.75-4.1-7.95c-2.7-2.2-5.967-3.3-9.8-3.3
					c-3.833,0-7.117,1.1-9.85,3.3c-2.7,2.2-4.05,4.85-4.05,7.95C6.35-33.601,7.7-30.967,10.399-28.8z"/>
				
					<radialGradient id="SVGID_16_" cx="726.8359" cy="620.9043" r="14.7897" gradientTransform="matrix(0.9966 0.0827 0.0777 -0.9366 -746.3154 497.042)" gradientUnits="userSpaceOnUse">
					<stop  offset="0" style="stop-color:#FFD9D6;stop-opacity:0.498"/>
					<stop  offset="0.5333" style="stop-color:#FFC9C8;stop-opacity:0.2745"/>
					<stop  offset="1" style="stop-color:#FFB8B8;stop-opacity:0"/>
				</radialGradient>
				<path style="fill-rule:evenodd;clip-rule:evenodd;fill:url(#SVGID_16_);" d="M15.05-15.45c2.667,2.933,6.033,4.583,10.1,4.95
					c4.067,0.333,7.667-0.733,10.8-3.2c3.1-2.467,4.8-5.617,5.1-9.45c0.333-3.833-0.833-7.217-3.5-10.15
					c-2.667-2.967-6.034-4.617-10.1-4.95c-4.067-0.333-7.65,0.733-10.75,3.2c-3.1,2.466-4.817,5.617-5.15,9.45
					C11.216-21.767,12.383-18.384,15.05-15.45z"/>
			</g>
			
				<radialGradient id="SVGID_17_" cx="10.7168" cy="416.0615" r="21.5839" gradientTransform="matrix(0.9985 0.0556 0 -1.105 12.6274 435.1904)" gradientUnits="userSpaceOnUse">
				<stop  offset="0" style="stop-color:#FFF6F5;stop-opacity:0.2196"/>
				<stop  offset="1" style="stop-color:#FFB8B8;stop-opacity:0.1373"/>
			</radialGradient>
			<path style="fill-rule:evenodd;clip-rule:evenodd;fill:url(#SVGID_17_);" d="M15.7-4.95c0.566-0.034,1.316-0.1,2.25-0.2
				c-0.1,1.333,0.7,2.217,2.4,2.65c1.7,0.4,2.75,0.05,3.15-1.05l0.55-0.2c0.867,0.467,1.617,0.5,2.25,0.1
				c0.566-0.4,0.917-1.066,1.05-2c1.967,2.3,4.283,2.65,6.95,1.05c2.667-1.566,3.2-3.8,1.6-6.7c0.6,0.066,1.017,0.066,1.25,0
				c0.367-0.133,0.534-0.467,0.5-1c1.167,0.633,2.5,0.933,4,0.9c1.7-0.033,2.817-0.617,3.35-1.75c0.6-1.267,0.45-2.8-0.45-4.6
				c-0.5-0.966-1.233-2.316-2.2-4.05c0.767-0.167,0.767-0.967,0-2.4c2.867-1.167,4.3-3.15,4.3-5.95c0-1.4-0.133-2.417-0.4-3.05
				c-0.367-0.867-1.066-1.483-2.1-1.85c0.333-1.233,0.2-2-0.4-2.3c-0.3-0.167-1.1-0.233-2.4-0.2c-0.033-2.467-0.883-4.184-2.55-5.15
				c-1.767-1-3.267-0.384-4.5,1.85c-1.7-2.866-3.583-4.383-5.65-4.55c-1.066-0.1-1.75,0.15-2.05,0.75c-0.1,0.2-0.233,1.05-0.4,2.55
				c-1.267-0.833-2.2-1.35-2.8-1.55c-1.033-0.4-2.066-0.467-3.1-0.2c-0.767,0.2-1.284,0.5-1.55,0.9
				c-0.033,0.066-0.283,0.683-0.75,1.85c-1.033-0.333-2.017-0.417-2.95-0.25c-1.2,0.2-1.733,0.867-1.6,2
				c-0.934-0.4-1.95-0.55-3.05-0.45c-1.267,0.1-2.1,0.583-2.5,1.45c-0.2,0.467-0.267,1.05-0.2,1.75c0.033,0.8,0.25,1.25,0.65,1.35
				c-1.133-0.133-1.983-0.167-2.55-0.1c-1.1,0.067-1.867,0.4-2.3,1c-0.633,0.867-0.65,1.617-0.05,2.25
				c0.967,0.634,1.65,1.134,2.05,1.5c-0.066,0.034-1.033,0.117-2.9,0.25c-1.233,0.067-2.033,0.6-2.4,1.6
				c-0.5,1.3-0.033,2.417,1.4,3.35c1.833,0.833,3.033,1.4,3.6,1.7c-0.3,0.966-0.434,1.633-0.4,2c0.066,0.7,0.583,1.017,1.55,0.95
				c-1.333,0.534-2.367,1.233-3.1,2.1c-0.933,1.066-1.316,2.3-1.15,3.7c0.133,1.633,0.933,2.566,2.4,2.8
				c0.8,0.167,2.083,0.217,3.85,0.15c-0.167,1.2,0.117,1.95,0.85,2.25c0.033,0,0.867,0.117,2.5,0.35c0.033,1.333,0.1,2.167,0.2,2.5
				c0.2,0.833,0.717,1.4,1.55,1.7C14.016-5,14.766-4.917,15.7-4.95z"/>
		</g>
	</g>
</symbol>
<symbol  id="Misc._bits_x2F_PuffSymbol_4" viewBox="-0.006 -39.368 41.653 39.356">
	<g id="Layer_9_1_">
		
			<radialGradient id="SVGID_18_" cx="14591.0176" cy="-18464.1621" r="18.3176" gradientTransform="matrix(-0.9478 -0.3189 -0.2281 1.1328 9639.9258 25550.4219)" gradientUnits="userSpaceOnUse">
			<stop  offset="0" style="stop-color:#FFF6F5;stop-opacity:0.2471"/>
			<stop  offset="1" style="stop-color:#FFB8B8;stop-opacity:0.1333"/>
		</radialGradient>
		<path style="fill-rule:evenodd;clip-rule:evenodd;fill:url(#SVGID_18_);" d="M33.9-3.4c0.867-0.633,1.1-1.383,0.7-2.25
			c-0.2-0.5-0.667-1.267-1.4-2.3c0.133,0,1.083,0.3,2.85,0.9c1.167,0.433,2.083,0.216,2.75-0.65c0.9-1.133,0.8-2.433-0.3-3.9
			c-0.6-0.8-1.567-1.8-2.9-3c0.566-0.9,0.883-1.5,0.95-1.8c0.133-0.7-0.25-1.184-1.15-1.45c1.367-0.066,2.533-0.4,3.5-1
			c1.2-0.733,1.934-1.8,2.2-3.2c0.3-1.6-0.167-2.717-1.4-3.35c-0.733-0.4-1.917-0.817-3.55-1.25c0.5-1.033,0.467-1.783-0.1-2.25
			c-0.066-0.067-0.767-0.383-2.1-0.95c0.367-1.267,0.55-2.033,0.55-2.3c0.067-0.8-0.217-1.434-0.85-1.9
			c-0.433-0.267-1.05-0.483-1.85-0.65c-0.9-0.167-1.533-0.283-1.9-0.35c0.467-1.1,0.083-2-1.15-2.7S26.6-38.367,26-37.5l-0.5,0.05
			c-0.533-0.566-1.083-0.75-1.65-0.55c-0.533,0.2-0.983,0.683-1.35,1.45c-0.8-2.2-2.35-2.934-4.65-2.2c-2.267,0.767-3.267,2.433-3,5
			c-0.367-0.167-0.633-0.25-0.8-0.25c-0.3,0-0.517,0.217-0.65,0.65c-0.566-0.733-1.35-1.217-2.35-1.45c-1.1-0.3-1.966-0.067-2.6,0.7
			c-0.733,0.833-1.067,2.033-1,3.6c0.233,1.7,0.316,2.9,0.25,3.6C7.133-26.933,6.9-26.3,7-25c-2.1,0.233-3.55,1.433-4.35,3.6
			c-0.367,1.1-0.566,1.933-0.6,2.5c-0.033,0.8,0.217,1.483,0.75,2.05c-0.566,0.9-0.716,1.567-0.45,2c0.133,0.233,0.6,0.533,1.4,0.9
			c-0.7,2.034-0.65,3.733,0.15,5.1C4.733-7.45,5.917-7.5,7.45-9c0.267,3.133,1.1,5.15,2.5,6.05c0.733,0.5,1.3,0.534,1.7,0.1
			C11.783-2.983,12.133-3.7,12.7-5c0.7,1.233,1.233,2.067,1.6,2.5c0.667,0.767,1.434,1.233,2.3,1.4c0.7,0.133,1.217,0.05,1.55-0.25
			c0.033-0.033,0.417-0.517,1.15-1.45c0.733,0.767,1.5,1.25,2.3,1.45c1.066,0.3,1.717-0.133,1.95-1.3c0.667,0.8,1.483,1.4,2.45,1.8
			c1.167,0.434,2.05,0.3,2.65-0.4c0.3-0.367,0.55-0.917,0.75-1.65c0.167-0.8,0.117-1.333-0.15-1.6
			C31.483-3.133,33.033-2.767,33.9-3.4z"/>
	</g>
	<g id="Layer_8_1_">
		
			<radialGradient id="SVGID_19_" cx="11483.2246" cy="-19418.4355" r="16.6373" gradientTransform="matrix(-0.8377 -0.5462 -0.3689 0.6837 2473.3223 19524.5117)" gradientUnits="userSpaceOnUse">
			<stop  offset="0" style="stop-color:#FFE5E3;stop-opacity:0.6275"/>
			<stop  offset="0.2863" style="stop-color:#FFE0DF;stop-opacity:0.5294"/>
			<stop  offset="0.6039" style="stop-color:#FFD3D2;stop-opacity:0.3451"/>
			<stop  offset="0.9333" style="stop-color:#FFBDBD;stop-opacity:0.0667"/>
			<stop  offset="1" style="stop-color:#FFB8B8;stop-opacity:0"/>
		</radialGradient>
		<path style="fill-rule:evenodd;clip-rule:evenodd;fill:url(#SVGID_19_);" d="M8.95-12.7c3.833,2.867,7.917,4.167,12.25,3.9
			c4.333-0.233,7.55-1.983,9.65-5.25c2-3.167,2.3-6.733,0.9-10.7c-1.4-3.933-4.05-7.1-7.95-9.5c-3.633-2.233-7.367-3.167-11.2-2.8
			c-3.833,0.367-6.75,1.917-8.75,4.65c-2.067,2.8-2.617,6.1-1.65,9.9C3.167-18.633,5.417-15.367,8.95-12.7z"/>
	</g>
	<g id="Layer_7_1_">
		
			<radialGradient id="SVGID_20_" cx="14558.1553" cy="-18133.7734" r="7.7976" gradientTransform="matrix(-0.9648 -0.2628 -0.1859 0.9248 10698.502 20563.8691)" gradientUnits="userSpaceOnUse">
			<stop  offset="0" style="stop-color:#FFE5E3;stop-opacity:0.6275"/>
			<stop  offset="0.2863" style="stop-color:#FFE0DF;stop-opacity:0.5294"/>
			<stop  offset="0.6039" style="stop-color:#FFD3D2;stop-opacity:0.3451"/>
			<stop  offset="0.9333" style="stop-color:#FFBDBD;stop-opacity:0.0667"/>
			<stop  offset="1" style="stop-color:#FFB8B8;stop-opacity:0"/>
		</radialGradient>
		<path style="fill-rule:evenodd;clip-rule:evenodd;fill:url(#SVGID_20_);" d="M31.4-30.4c0.533-1.9,0.233-3.7-0.9-5.4
			c-1.167-1.667-2.833-2.767-5-3.3c-2.067-0.5-4.033-0.3-5.9,0.6s-3.1,2.25-3.7,4.05c-0.633,1.867-0.417,3.667,0.65,5.4
			c1.067,1.733,2.667,2.9,4.8,3.5c2.233,0.633,4.333,0.466,6.3-0.5C29.617-27.017,30.867-28.467,31.4-30.4z"/>
	</g>
	<g id="Layer_6_1_">
		
			<radialGradient id="SVGID_21_" cx="15856.5137" cy="-17343.5938" r="10.9652" gradientTransform="matrix(-0.9903 -0.139 -0.0661 1.1795 14586.5361 22640.3262)" gradientUnits="userSpaceOnUse">
			<stop  offset="0" style="stop-color:#FFE5E3;stop-opacity:0.6275"/>
			<stop  offset="0.2863" style="stop-color:#FFE0DF;stop-opacity:0.5294"/>
			<stop  offset="0.6039" style="stop-color:#FFD3D2;stop-opacity:0.3451"/>
			<stop  offset="0.9333" style="stop-color:#FFBDBD;stop-opacity:0.0667"/>
			<stop  offset="1" style="stop-color:#FFB8B8;stop-opacity:0"/>
		</radialGradient>
		<path style="fill-rule:evenodd;clip-rule:evenodd;fill:url(#SVGID_21_);" d="M19.2-22.55c-0.5,3.4,0.15,6.533,1.95,9.4
			c1.867,2.9,4.367,4.65,7.5,5.25c3.267,0.633,6.184-0.15,8.75-2.35c2.533-2.167,3.934-5.05,4.2-8.65
			c0.267-3.434-0.583-6.483-2.55-9.15c-1.966-2.633-4.483-4.167-7.55-4.6c-2.967-0.4-5.633,0.367-8,2.3
			C21.133-28.383,19.7-25.783,19.2-22.55z"/>
	</g>
	<g id="Layer_5_1_">
		
			<radialGradient id="SVGID_22_" cx="10217.166" cy="-19610.0078" r="7.6904" gradientTransform="matrix(-0.7721 -0.6355 -0.5266 0.7591 -2411.3652 21360.5508)" gradientUnits="userSpaceOnUse">
			<stop  offset="0" style="stop-color:#FFE5E3;stop-opacity:0.6275"/>
			<stop  offset="0.2863" style="stop-color:#FFE0DF;stop-opacity:0.5294"/>
			<stop  offset="0.6039" style="stop-color:#FFD3D2;stop-opacity:0.3451"/>
			<stop  offset="0.9333" style="stop-color:#FFBDBD;stop-opacity:0.0667"/>
			<stop  offset="1" style="stop-color:#FFB8B8;stop-opacity:0"/>
		</radialGradient>
		<path style="fill-rule:evenodd;clip-rule:evenodd;fill:url(#SVGID_22_);" d="M22.85-12.8c1.6,1.433,3.433,2.1,5.5,2
			c2.1-0.067,3.783-0.883,5.05-2.45s1.75-3.383,1.45-5.45c-0.3-2.033-1.283-3.716-2.95-5.05c-1.6-1.3-3.383-1.883-5.35-1.75
			c-1.966,0.1-3.566,0.883-4.8,2.35c-1.267,1.467-1.783,3.2-1.55,5.2C20.4-15.917,21.283-14.2,22.85-12.8z"/>
	</g>
	<g id="Layer_4_1_">
		
			<radialGradient id="SVGID_23_" cx="13949.8477" cy="-18525.0879" r="13.4237" gradientTransform="matrix(-0.9444 -0.3288 -0.2207 0.8252 9098.2783 19859.0098)" gradientUnits="userSpaceOnUse">
			<stop  offset="0" style="stop-color:#FFE5E3;stop-opacity:0.6275"/>
			<stop  offset="0.2863" style="stop-color:#FFE0DF;stop-opacity:0.5294"/>
			<stop  offset="0.6039" style="stop-color:#FFD3D2;stop-opacity:0.3451"/>
			<stop  offset="0.9333" style="stop-color:#FFBDBD;stop-opacity:0.0667"/>
			<stop  offset="1" style="stop-color:#FFB8B8;stop-opacity:0"/>
		</radialGradient>
		<path style="fill-rule:evenodd;clip-rule:evenodd;fill:url(#SVGID_23_);" d="M18.75-3c3.4-1.167,5.65-3.333,6.75-6.5
			c1.067-3.067,0.733-6.117-1-9.15c-1.7-3-4.267-5.133-7.7-6.4c-3.267-1.167-6.45-1.2-9.55-0.1c-3.067,1.1-5.2,3.033-6.4,5.8
			c-1.233,2.867-1.133,5.833,0.3,8.9c1.467,3.1,3.883,5.4,7.25,6.9C11.933-1.983,15.383-1.8,18.75-3z"/>
	</g>
	<g id="Layer_3_1_">
		
			<radialGradient id="SVGID_24_" cx="14555.167" cy="-18155.1211" r="11.4699" gradientTransform="matrix(-0.9649 -0.2627 -0.1668 0.8297 11037.3604 18877.2246)" gradientUnits="userSpaceOnUse">
			<stop  offset="0" style="stop-color:#FFE5E3;stop-opacity:0.6275"/>
			<stop  offset="0.2863" style="stop-color:#FFE0DF;stop-opacity:0.5294"/>
			<stop  offset="0.6039" style="stop-color:#FFD3D2;stop-opacity:0.3451"/>
			<stop  offset="0.9333" style="stop-color:#FFBDBD;stop-opacity:0.0667"/>
			<stop  offset="1" style="stop-color:#FFB8B8;stop-opacity:0"/>
		</radialGradient>
		<path style="fill-rule:evenodd;clip-rule:evenodd;fill:url(#SVGID_24_);" d="M19-0.85c3.133,1.133,6.083,1.117,8.85-0.05
			c2.767-1.133,4.5-3.05,5.2-5.75c0.633-2.6,0.1-5.133-1.6-7.6c-1.7-2.467-4.067-4.15-7.1-5.05c-2.934-0.867-5.667-0.767-8.2,0.3
			c-2.566,1.067-4.25,2.817-5.05,5.25c-0.8,2.5-0.45,5,1.05,7.5C13.683-3.683,15.967-1.883,19-0.85z"/>
	</g>
	<g id="Layer_2_2_">
		
			<radialGradient id="SVGID_25_" cx="13776.8291" cy="-18604.4063" r="11.5255" gradientTransform="matrix(-0.9384 -0.3457 -0.2676 0.9373 7968.6152 22178.4238)" gradientUnits="userSpaceOnUse">
			<stop  offset="0" style="stop-color:#FFE5E3;stop-opacity:0.6275"/>
			<stop  offset="0.2863" style="stop-color:#FFE0DF;stop-opacity:0.5294"/>
			<stop  offset="0.6039" style="stop-color:#FFD3D2;stop-opacity:0.3451"/>
			<stop  offset="0.9333" style="stop-color:#FFBDBD;stop-opacity:0.0667"/>
			<stop  offset="1" style="stop-color:#FFB8B8;stop-opacity:0"/>
		</radialGradient>
		<path style="fill-rule:evenodd;clip-rule:evenodd;fill:url(#SVGID_25_);" d="M24-31.55c-2.9-1.034-5.75-0.967-8.55,0.2
			c-2.767,1.133-4.733,3.05-5.9,5.75c-1.2,2.767-1.216,5.583-0.05,8.45c1.2,2.9,3.283,4.983,6.25,6.25
			c3.1,1.333,6.167,1.383,9.2,0.15c3.066-1.267,5.133-3.417,6.2-6.45c1.067-2.9,0.883-5.767-0.55-8.6
			C29.2-28.567,27-30.483,24-31.55z"/>
	</g>
</symbol>
<symbol  id="Misc._bits_x2F_gelShine" viewBox="-12.678 -7.34 25.324 14.72">
	<g id="Layer_1_5_">
		<g>
			
				<radialGradient id="SVGID_26_" cx="-3.2002" cy="9.8501" r="16.4" gradientTransform="matrix(1 0 0 -1 0 19.7002)" gradientUnits="userSpaceOnUse">
				<stop  offset="0" style="stop-color:#FFFFFF;stop-opacity:0.2588"/>
				<stop  offset="1" style="stop-color:#FFFFFF;stop-opacity:0"/>
			</radialGradient>
			<path style="fill-rule:evenodd;clip-rule:evenodd;fill:url(#SVGID_26_);" d="M9.05,6.9c2.034-0.333,3.2-1.167,3.5-2.5
				c0.3-1.233-0.1-2.667-1.2-4.3C8.75-3.7,5.1-6.017,0.4-6.85c-4.467-0.767-7.75-0.633-9.85,0.4c-2,1-3.066,2.85-3.2,5.55
				c-0.1,2.467,0.066,4.316,0.5,5.55c0.333,1,0.933,1.75,1.8,2.25c0.7,0.4,3.917,0.55,9.65,0.45C4.533,7.25,7.783,7.1,9.05,6.9z"/>
		</g>
	</g>
</symbol>
<symbol  id="squidContainer" viewBox="-25.45 -38.957 53.8 64.107">
	<g id="squid_1_">
		<use xlink:href="#yellow_x2F_squidYellow"  width="53.8" height="64.107" x="-25.45" y="-38.957" style="overflow:visible;"/>
	</g>
</symbol>
<symbol  id="yellow_x2F_bodyYellow" viewBox="-19.35 -13.4 38.2 45">
	<g id="body_1_">
		<path style="fill-rule:evenodd;clip-rule:evenodd;fill:#6AC480;" d="M-17.3,27.95c-0.182-0.184-0.349-0.367-0.5-0.55l-0.05-0.025
			C-17.712,27.548-17.529,27.74-17.3,27.95z"/>
		
			<linearGradient id="SVGID_27_" gradientUnits="userSpaceOnUse" x1="-1082.9912" y1="-15085.1377" x2="-1033.5291" y2="-15085.1377" gradientTransform="matrix(0.14 -0.9902 0.9902 0.14 15096.6592 1069.4785)">
			<stop  offset="0" style="stop-color:#61BA77"/>
			<stop  offset="1" style="stop-color:#49945C"/>
		</linearGradient>
		<path style="fill-rule:evenodd;clip-rule:evenodd;fill:url(#SVGID_27_);" d="M6.75,27c1.7-0.1,3.033-0.2,4-0.3
			c0.1,0,0.2-0.034,0.3-0.1C9.517,26.733,8.083,26.867,6.75,27z"/>
		<path style="fill-rule:evenodd;clip-rule:evenodd;fill:#E1F8F8;" d="M-15,27c-0.2,0.067-0.267,0.183-0.2,0.35
			c0.034,0.167,0.2,0.283,0.5,0.35c0.534,0.1,0.867,0.033,1-0.2c0.067-0.1,0.067-0.217,0-0.35V27.1c-0.333-0.2-0.716-0.25-1.15-0.15
			C-14.917,26.95-14.967,26.967-15,27z M-8,27.2c0.033-0.067-0.083-0.133-0.35-0.2c-0.1,0-0.35-0.05-0.75-0.15
			c-0.2-0.067-0.467-0.083-0.8-0.05c-0.833,0.067-1.417,0.2-1.75,0.4c-0.1,0.066-0.184,0.133-0.25,0.2
			c-0.167,0.2,0.383,0.333,1.65,0.4c0.867,0.034,1.517-0.083,1.95-0.35C-8.1,27.35-8,27.267-8,27.2z"/>
		<path style="fill-rule:evenodd;clip-rule:evenodd;fill:#F6FF98;" d="M-11,31.55l-0.6-0.4c-0.4-0.333-1.8-1.183-4.2-2.55l-0.75-0.6
			l10.35-0.25c2.833,0,7.15-0.25,12.95-0.75c1.333-0.133,2.767-0.267,4.3-0.4C2.217,27.033-3.667,27.233-6.6,27.2
			c-0.5,0-0.967,0-1.4,0c0,0.066-0.1,0.15-0.3,0.25c-0.434,0.267-1.083,0.383-1.95,0.35c-1.267-0.066-1.817-0.2-1.65-0.4
			c0.066-0.066,0.15-0.133,0.25-0.2c-0.7,0-1.3-0.017-1.8-0.05c-0.1,0-0.183-0.017-0.25-0.05v0.05c0.067,0.133,0.067,0.25,0,0.35
			c-0.133,0.233-0.466,0.3-1,0.2c-0.3-0.067-0.466-0.184-0.5-0.35c-0.066-0.167,0-0.283,0.2-0.35c-1.533-0.2-2.467-0.567-2.8-1.1
			c-0.075-0.127-0.142-0.294-0.2-0.5c-0.3-1.024-0.45-3.024-0.45-6c0-0.5,0.034-2.9,0.1-7.2c0.033-1.733-0.033-8.7-0.2-20.9
			c0-0.637-0.008-1.287-0.025-1.95c-0.005-0.347-0.013-0.697-0.025-1.05c-0.005-0.314-0.013-0.63-0.025-0.95
			c-0.012-0.249-0.02-0.499-0.025-0.75h-0.7l0.1,1.8h0.05l0.25,37.1c0,0.267,0.117,0.6,0.35,1c0.248,0.434,0.498,0.726,0.75,0.875
			l0.05,0.025c0.151,0.184,0.318,0.367,0.5,0.55c0.087,0.081,0.179,0.164,0.275,0.25c0.787,0.667,1.762,1.283,2.925,1.85
			C-12.333,31.017-11.3,31.517-11,31.55z"/>
		<path style="fill-rule:evenodd;clip-rule:evenodd;fill:#BFC46A;" d="M6.75,27c-5.8,0.5-10.117,0.75-12.95,0.75L-16.55,28l0.75,0.6
			c2.4,1.367,3.8,2.217,4.2,2.55l0.6,0.4c2.433,0.1,7.15,0.05,14.15-0.15c6.967-0.167,11.667-0.367,14.1-0.6
			c0.167-0.033,0.333-0.133,0.5-0.3c0.933-1.133,0.117-2.15-2.45-3.05c-1.318-0.447-2.676-0.771-4.075-0.975
			c-0.058,0.05-0.116,0.091-0.175,0.125c-0.1,0.066-0.2,0.1-0.3,0.1C9.783,26.8,8.45,26.9,6.75,27z"/>
		
			<linearGradient id="SVGID_28_" gradientUnits="userSpaceOnUse" x1="-1075.373" y1="-15100.1514" x2="-1025.9109" y2="-15100.1514" gradientTransform="matrix(0.14 -0.9902 0.9902 0.14 15096.6592 1069.4785)">
			<stop  offset="0" style="stop-color:#B5BA5F"/>
			<stop  offset="1" style="stop-color:#909449"/>
		</linearGradient>
		<path style="fill-rule:evenodd;clip-rule:evenodd;fill:url(#SVGID_28_);" d="M-8,27.2c0.433,0,0.9,0,1.4,0
			c2.934,0.033,8.817-0.167,17.65-0.6c0.059-0.034,0.117-0.075,0.175-0.125c0.167-0.143,0.325-0.351,0.475-0.625
			c0.267-0.5,0.4-0.9,0.4-1.2c0-0.333,0.066-4.85,0.2-13.55V-7.7c0-1.083,0-2.066,0-2.95c-0.012-0.367-0.02-0.717-0.025-1.05
			c0.004-0.334,0.004-0.65,0-0.95c-0.001-0.264-0.001-0.514,0-0.75H-18.65c0.005,0.251,0.013,0.501,0.025,0.75
			c0.012,0.319,0.02,0.636,0.025,0.95c0.012,0.354,0.02,0.704,0.025,1.05c0.017,0.663,0.025,1.313,0.025,1.95
			c0.167,12.2,0.233,19.167,0.2,20.9c-0.066,4.3-0.1,6.7-0.1,7.2c0,2.976,0.15,4.976,0.45,6c0.058,0.206,0.125,0.373,0.2,0.5
			c0.333,0.533,1.267,0.9,2.8,1.1c0.033-0.033,0.083-0.05,0.15-0.05c0.434-0.1,0.817-0.05,1.15,0.15
			c0.067,0.033,0.15,0.05,0.25,0.05c0.5,0.033,1.1,0.05,1.8,0.05c0.333-0.2,0.917-0.333,1.75-0.4c0.333-0.033,0.6-0.017,0.8,0.05
			C-8.7,26.95-8.45,27-8.35,27C-8.083,27.067-7.967,27.133-8,27.2z"/>
		
			<linearGradient id="SVGID_29_" gradientUnits="userSpaceOnUse" x1="-11.9087" y1="-16304.7949" x2="36.8413" y2="-16304.7949" gradientTransform="matrix(2.051282e-005 -1 1 -0.001 16319.833 -0.1558)">
			<stop  offset="0" style="stop-color:#ABB05B"/>
			<stop  offset="1" style="stop-color:#818541"/>
		</linearGradient>
		<path style="fill-rule:evenodd;clip-rule:evenodd;fill:url(#SVGID_29_);" d="M11.225,26.475c1.398,0.204,2.757,0.528,4.075,0.975
			c2.567,0.9,3.383,1.917,2.45,3.05c-0.167,0.167-0.333,0.267-0.5,0.3c0.333-0.033,0.667-0.333,1-0.9c0.267-0.5,0.4-0.9,0.4-1.2
			c0-0.333,0.067-4.85,0.2-13.55v-18.8c0-2.871-0.1-5.205-0.3-7c-0.035-0.374-0.076-0.724-0.125-1.05
			c-0.042-0.342-0.091-0.659-0.15-0.95c-0.006-0.051-0.015-0.101-0.025-0.15c0.147-0.209,0.297-0.41,0.45-0.6h-6.425
			c-0.001,0.236-0.001,0.486,0,0.75c0.004,0.299,0.004,0.616,0,0.95c0.005,0.333,0.013,0.683,0.025,1.05c0,0.883,0,1.867,0,2.95
			v18.8c-0.133,8.7-0.2,13.217-0.2,13.55c0,0.3-0.133,0.7-0.4,1.2C11.55,26.124,11.392,26.333,11.225,26.475z"/>
	</g>
	<g id="shine_1_">
		
			<use xlink:href="#Misc._bits_x2F_gelShine"  width="25.324" height="14.72" x="-12.678" y="-7.34" transform="matrix(1 0 0 1 -4.1001 17.3999)" style="overflow:visible;"/>
	</g>
	<g id="states_1_">
	</g>
</symbol>
<symbol  id="yellow_x2F_squidYellow" viewBox="-25.45 -38.957 53.8 64.107">
	<g id="body_2_">
		
			<use xlink:href="#yellow_x2F_bodyYellow"  width="38.2" height="45" x="-19.35" y="-13.4" transform="matrix(1 0 0 1 1.1001 -6.4502)" style="overflow:visible;"/>
	</g>
	<g id="tentacles_1_">
		
			<use xlink:href="#yellow_x2F_tentaclesYellow"  width="53.8" height="21.857" x="-26.55" y="-32.507" transform="matrix(1 0 0 1 1.1001 -6.4502)" style="overflow:visible;"/>
	</g>
	<g id="eyes_1_">
		<g>
			<path style="fill-rule:evenodd;clip-rule:evenodd;fill:#3B3526;" d="M8.4-11.55c-0.267-0.567-0.117-1.067,0.45-1.5
				c0.7-0.5,1.167-0.483,1.4,0.05c0.367,0.467,0.217,0.967-0.45,1.5C9.2-11.1,8.733-11.117,8.4-11.55z M6.45-11.25
				c0.533,0.533,1.15,0.8,1.85,0.8c0.767,0,1.417-0.267,1.95-0.8c0.5-0.6,0.75-1.3,0.75-2.1c0-0.8-0.25-1.483-0.75-2.05
				C9.717-16,9.067-16.3,8.3-16.3c-0.7,0-1.316,0.3-1.85,0.9c-0.5,0.566-0.75,1.25-0.75,2.05C5.7-12.55,5.95-11.85,6.45-11.25z
				 M9.35-15.3c-0.5-0.1-1.067,0.017-1.7,0.35c-0.566,0.267-0.967,0.617-1.2,1.05L6.2-13.2v-0.85c0.167-0.6,0.517-1.067,1.05-1.4
				C8.05-15.95,8.75-15.9,9.35-15.3z M-12.75-12.05c0.567-0.467,1-0.45,1.3,0.05c0.2,0.567,0.017,1.067-0.55,1.5
				c-0.6,0.4-1.017,0.35-1.25-0.15C-13.517-11.15-13.35-11.617-12.75-12.05z M-15.05-10.5c0.5,0.6,1.066,0.933,1.7,1
				c0.667,0.033,1.25-0.217,1.75-0.75c0.5-0.567,0.767-1.25,0.8-2.05c0.066-0.8-0.133-1.5-0.6-2.1
				c-0.434-0.533-0.983-0.833-1.65-0.9c-0.7-0.034-1.3,0.216-1.8,0.75c-0.5,0.566-0.767,1.25-0.8,2.05
				C-15.717-11.7-15.517-11.033-15.05-10.5z M-12.2-14.3c-0.466-0.167-1-0.1-1.6,0.2c-0.434,0.267-0.8,0.617-1.1,1.05l-0.25,0.7
				l0.1-0.85c0.1-0.633,0.417-1.1,0.95-1.4C-13.333-15.067-12.7-14.967-12.2-14.3z"/>
			<path style="fill-rule:evenodd;clip-rule:evenodd;fill:#FFFFFF;" d="M8.4-11.55c0.333,0.433,0.8,0.45,1.4,0.05
				c0.667-0.533,0.817-1.033,0.45-1.5c-0.233-0.533-0.7-0.55-1.4-0.05C8.283-12.617,8.133-12.117,8.4-11.55z M-12.75-12.05
				c-0.6,0.433-0.767,0.9-0.5,1.4c0.233,0.5,0.65,0.55,1.25,0.15c0.567-0.433,0.75-0.933,0.55-1.5
				C-11.75-12.5-12.183-12.517-12.75-12.05z"/>
			<path style="fill-rule:evenodd;clip-rule:evenodd;fill:#5C4F2E;" d="M9.35-15.3c-0.6-0.6-1.3-0.65-2.1-0.15
				c-0.533,0.333-0.883,0.8-1.05,1.4v0.85l0.25-0.7c0.233-0.434,0.633-0.783,1.2-1.05C8.283-15.283,8.85-15.4,9.35-15.3z
				 M-12.2-14.3c-0.5-0.667-1.133-0.767-1.9-0.3c-0.533,0.3-0.85,0.767-0.95,1.4l-0.1,0.85l0.25-0.7c0.3-0.434,0.667-0.784,1.1-1.05
				C-13.2-14.4-12.667-14.467-12.2-14.3z"/>
		</g>
	</g>
	<g id="puff_1_">
	</g>
	<g id="states_2_">
	</g>
</symbol>
<symbol  id="yellow_x2F_tentaclesYellow" viewBox="-26.55 -32.507 53.8 21.857">
	<g id="Layer_7_3_">
		
			<linearGradient id="SVGID_30_" gradientUnits="userSpaceOnUse" x1="-9.3135" y1="-16304.5078" x2="39.4365" y2="-16304.5078" gradientTransform="matrix(2.051282e-005 -1 1 -0.001 16319.833 -0.1558)">
			<stop  offset="0" style="stop-color:#ABB05B"/>
			<stop  offset="1" style="stop-color:#818541"/>
		</linearGradient>
		<path style="fill-rule:evenodd;clip-rule:evenodd;fill:url(#SVGID_30_);" d="M18-12.65c0.033-1.1,0.367-2.983,1-5.65
			c0.6-2.567,0.9-4.617,0.9-6.15c0-1.966-0.367-3.4-1.1-4.3c-0.533-0.667-1.2-1-2-1c0.233,0.233,0.45,0.633,0.65,1.2
			c0.2,0.566,0.292,1.042,0.275,1.425c-0.114,1.36-0.623,2.36-1.525,3c-0.901,0.646-1.984,1.205-3.25,1.675
			c-1.467,0.5-2.2,3.067-2.2,7.7l0.05,2.1H18z"/>
	</g>
	<g id="Layer_8_3_">
		<path style="fill-rule:evenodd;clip-rule:evenodd;fill:#6E7338;" d="M14.95-32.2c0-0.033,0.033-0.083,0.1-0.15
			c0.067-0.033-0.167-0.083-0.7-0.15c-0.567-0.033-1.15,0.05-1.75,0.25c-0.633,0.233-1.017,0.417-1.15,0.55
			c-0.633,0.367-1.184,0.767-1.65,1.2c-0.133,0.1-0.267,0.217-0.4,0.35C9-29.783,8.65-29.433,8.35-29.1
			c-0.833,1.033-1.483,2.133-1.95,3.3c-0.033,0.1-0.066,0.2-0.1,0.3l-0.45,1.1L6-19.75l0.05-0.1c0-0.066,0-0.133,0-0.2l0.7-2.1
			c0.333-1.3,0.667-2.317,1-3.05c0.3-0.7,0.65-1.4,1.05-2.1c0.434-0.667,1-1.35,1.7-2.05c0.733-0.667,1.267-1.167,1.6-1.5
			c0.367-0.333,0.65-0.55,0.85-0.65c0.167-0.067,0.35-0.167,0.55-0.3c0.467-0.2,0.933-0.333,1.4-0.4H14.95z"/>
		
			<linearGradient id="SVGID_31_" gradientUnits="userSpaceOnUse" x1="-1072.0771" y1="-15090.8281" x2="-1022.615" y2="-15090.8281" gradientTransform="matrix(0.14 -0.9902 0.9902 0.14 15096.6592 1069.4785)">
			<stop  offset="0" style="stop-color:#B5BA5F"/>
			<stop  offset="1" style="stop-color:#909449"/>
		</linearGradient>
		<path style="fill-rule:evenodd;clip-rule:evenodd;fill:url(#SVGID_31_);" d="M14.95-32.2H14.9c-0.467,0.067-0.933,0.2-1.4,0.4
			c-0.2,0.133-0.383,0.233-0.55,0.3c-0.2,0.1-0.483,0.317-0.85,0.65c-0.333,0.333-0.867,0.833-1.6,1.5
			c-0.7,0.7-1.267,1.383-1.7,2.05c-0.4,0.7-0.75,1.4-1.05,2.1c-0.333,0.733-0.667,1.75-1,3.05l-0.7,2.1c0,0.066,0,0.133,0,0.2
			c-0.066,2.033-0.15,4.434-0.25,7.2l6.3-0.05c-0.167-0.6-0.217-1.566-0.15-2.9c0.033-1.5,0.066-3.017,0.1-4.55v-2.8
			c0.034-1.566,0.083-2.733,0.15-3.5c0.066-0.9,0.25-1.75,0.55-2.55c0.267-0.767,0.65-1.467,1.15-2.1c0.467-0.633,0.9-0.95,1.3-0.95
			c-0.067-0.067-0.133-0.1-0.2-0.1L14.95-32.2z"/>
	</g>
	<g id="Layer_9_3_">
		
			<linearGradient id="SVGID_32_" gradientUnits="userSpaceOnUse" x1="-1072.0771" y1="-15096.998" x2="-1022.615" y2="-15096.998" gradientTransform="matrix(0.14 -0.9902 0.9902 0.14 15096.6592 1069.4785)">
			<stop  offset="0" style="stop-color:#B5BA5F"/>
			<stop  offset="1" style="stop-color:#909449"/>
		</linearGradient>
		<path style="fill-rule:evenodd;clip-rule:evenodd;fill:url(#SVGID_32_);" d="M6.8-23.8c-0.033-0.934,0.034-1.867,0.2-2.8
			c0.067-0.933,0.117-2.333,0.15-4.2C6.617-30.6,5.233-29.367,3-27.1c-1.533,1.667-2.383,3.3-2.55,4.9c-1,4.9-1.7,8.083-2.1,9.55
			c2.767,0,5.533,0,8.3,0C6.517-20.817,6.567-24.533,6.8-23.8z"/>
	</g>
	<g id="Layer_12_1_">
		<path style="fill-rule:evenodd;clip-rule:evenodd;fill:#6E7338;" d="M-5.65-30.9c2.066,2,3.4,4.167,4,6.5
			c0.433,1.633,0.767,3.167,1,4.6l0.2,1.6l0.9-4v-0.05c-0.167-0.7-0.367-1.45-0.6-2.25c-0.167-0.467-0.35-0.917-0.55-1.35
			c-0.733-1.733-1.8-3.217-3.2-4.45c-0.7-0.6-1.333-1.034-1.9-1.3l0.1,0.7H-5.65z"/>
		
			<linearGradient id="SVGID_33_" gradientUnits="userSpaceOnUse" x1="-1072.0771" y1="-15103.8301" x2="-1022.615" y2="-15103.8301" gradientTransform="matrix(0.14 -0.9902 0.9902 0.14 15096.6592 1069.4785)">
			<stop  offset="0" style="stop-color:#B5BA5F"/>
			<stop  offset="1" style="stop-color:#909449"/>
		</linearGradient>
		<path style="fill-rule:evenodd;clip-rule:evenodd;fill:url(#SVGID_33_);" d="M0.45-22.2l-0.9,4l-0.2-1.6
			c-0.233-1.434-0.567-2.967-1-4.6c-0.6-2.333-1.934-4.5-4-6.5c0.033,0.533,0.066,1.316,0.1,2.35c0.066,1.333-0.034,2.767-0.3,4.3
			c-0.267,1.6-0.617,2.833-1.05,3.7l-0.2,0.5c-0.176,0.559-0.91,3.025-2.2,7.4h9.8v-9.8c-0.02,0.114-0.036,0.231-0.05,0.35
			C0.45-22.133,0.45-22.167,0.45-22.2z"/>
	</g>
	<g id="Layer_13_1_">
		
			<linearGradient id="SVGID_34_" gradientUnits="userSpaceOnUse" x1="-1082.9912" y1="-15114.0742" x2="-1033.5291" y2="-15114.0742" gradientTransform="matrix(0.14 -0.9902 0.9902 0.14 15096.6592 1069.4785)">
			<stop  offset="0" style="stop-color:#61BA77"/>
			<stop  offset="1" style="stop-color:#49945C"/>
		</linearGradient>
		<path style="fill-rule:evenodd;clip-rule:evenodd;fill:url(#SVGID_34_);" d="M-7.1-20.275c-0.007,0.023-0.015,0.048-0.025,0.075
			l0.025-0.05V-20.275z M-19.125-28.15h0.025l0.025-0.025C-19.093-28.166-19.109-28.158-19.125-28.15z"/>
		<path style="fill-rule:evenodd;clip-rule:evenodd;fill:#6E7338;" d="M-19.125-28.15c0.016-0.008,0.032-0.016,0.05-0.025
			c0.05-0.017,0.108-0.042,0.175-0.075c0.033,0,0.083-0.017,0.15-0.05c0.633-0.133,1.5-0.05,2.6,0.25
			c1.869,0.588,3.319,1.472,4.35,2.65c-0.482-0.526-1.049-0.993-1.7-1.4c0.766,0.515,1.416,1.132,1.95,1.85
			c0.308,0.417,0.583,0.859,0.825,1.325c-0.056-0.14-0.114-0.281-0.175-0.425c0.3,0.533,0.55,1.1,0.75,1.7
			c0.233,0.567,0.4,1.15,0.5,1.75c0.066,0.367,0.133,0.717,0.2,1.05c0.034,0.3,0.05,0.6,0.05,0.9v0.05l0.2,0.8
			c0.034,0.1,0.05,0.2,0.05,0.3c0.333-0.367,0.65-0.717,0.95-1.05c0.034-0.034,0.067-0.067,0.1-0.1
			c0.167-0.167,0.317-0.333,0.45-0.5c0.015-0.023,0.032-0.048,0.05-0.075c0.217-0.337,0.376-0.662,0.475-0.975
			c0.01-0.027,0.018-0.052,0.025-0.075V-20.3l-0.6-1.85c-0.7-2-1.867-3.6-3.5-4.8c-1.5-1.133-3.066-1.833-4.7-2.1
			c-0.1,0-0.2,0-0.3,0c-0.1,0-0.2,0-0.3,0c-0.133,0-0.25-0.017-0.35-0.05c-0.312,0.021-0.595,0.063-0.85,0.125
			c-0.299,0.051-0.574,0.135-0.825,0.25c0.098-0.065,0.197-0.124,0.3-0.175c-0.486,0.168-0.895,0.435-1.225,0.8
			c-0.033,0.033-0.066,0.067-0.1,0.1l-0.05,0.05c0.036-0.033,0.069-0.05,0.1-0.05c0.063-0.036,0.13-0.069,0.2-0.1
			c-0.019,0.019-0.035,0.035-0.05,0.05L-19.4-28c0.035-0.033,0.069-0.05,0.1-0.05l0.05-0.05
			C-19.213-28.112-19.172-28.129-19.125-28.15z"/>
		
			<linearGradient id="SVGID_35_" gradientUnits="userSpaceOnUse" x1="-1072.0771" y1="-15113.9648" x2="-1022.615" y2="-15113.9648" gradientTransform="matrix(0.14 -0.9902 0.9902 0.14 15096.6592 1069.4785)">
			<stop  offset="0" style="stop-color:#B5BA5F"/>
			<stop  offset="1" style="stop-color:#909449"/>
		</linearGradient>
		<path style="fill-rule:evenodd;clip-rule:evenodd;fill:url(#SVGID_35_);" d="M-7.6-19.225c-0.018,0.027-0.035,0.052-0.05,0.075
			c-0.133,0.167-0.283,0.333-0.45,0.5c-0.033,0.033-0.066,0.066-0.1,0.1c-0.3,0.333-0.617,0.683-0.95,1.05c0-0.1-0.017-0.2-0.05-0.3
			l-0.2-0.8v-0.05c0-0.3-0.017-0.6-0.05-0.9c-0.066-0.333-0.133-0.684-0.2-1.05c-0.1-0.6-0.267-1.183-0.5-1.75
			c-0.2-0.6-0.45-1.167-0.75-1.7c0.061,0.144,0.119,0.285,0.175,0.425c-0.242-0.466-0.517-0.908-0.825-1.325
			c-0.535-0.718-1.185-1.334-1.95-1.85c0.651,0.407,1.218,0.874,1.7,1.4c-1.031-1.178-2.481-2.062-4.35-2.65
			c-1.1-0.3-1.967-0.383-2.6-0.25c-0.067,0.033-0.117,0.05-0.15,0.05c-0.067,0.033-0.125,0.058-0.175,0.075
			c0.587-0.183,1.354-0.166,2.3,0.05c-1.169-0.234-2.062-0.176-2.675,0.175c-0.033,0.067-0.083,0.15-0.15,0.25l-0.4,0.6l0.4-0.15
			c0.333-0.1,0.717-0.117,1.15-0.05c0.133,0,0.3,0.017,0.5,0.05c0.5,0.167,1.034,0.483,1.6,0.95c0.133,0.1,0.267,0.2,0.4,0.3
			c0.5,0.5,0.9,1.05,1.2,1.65c0.1,0.267,0.2,0.55,0.3,0.85c0.167,0.633,0.217,1.433,0.15,2.4c-0.034,0.3-0.083,0.6-0.15,0.9
			c0.034,0.667-0.05,1.517-0.25,2.55c-0.333,1.6-0.65,3.183-0.95,4.75c0.467,0.1,0.967,0.183,1.5,0.25h6.9l0.2-1.25v-6.4
			c-0.145,0.521-0.361,0.946-0.65,1.275L-7.6-19.225z"/>
	</g>
	<g id="Layer_14_1_">
		<path style="fill-rule:evenodd;clip-rule:evenodd;fill:#F6FF98;" d="M-25.175-22c-0.11,0.051-0.201,0.101-0.275,0.15
			c-0.189,0.069-0.356,0.144-0.5,0.225c0.125,0.016,0.25,0.033,0.375,0.05c-0.092,0.044-0.183,0.086-0.275,0.125l0.4,0.05
			c1.215,0.27,2.131,0.537,2.75,0.8c0.618,0.263,1.201,0.788,1.75,1.575c0.551,0.792,0.893,1.425,1.025,1.9
			c0.13,0.468,0.239,0.893,0.325,1.275c0.139,0.75,0.222,1.525,0.25,2.325c-0.055,0.276-0.072,0.567-0.05,0.875
			c0,0.433,0.133,0.767,0.4,1c0.033,0,0.05-0.017,0.05-0.05c0.034,0,0.067-0.017,0.1-0.05c0.033,0,0.05,0.017,0.05,0.05
			c0.066,0.034,0.117,0.034,0.15,0c0.133-0.267,0.183-0.566,0.15-0.9h-0.05c-0.011-0.155-0.02-0.313-0.025-0.475
			c-0.016-0.076-0.033-0.151-0.05-0.225c0.009-0.025,0.017-0.05,0.025-0.075c0-0.124,0-0.249,0-0.375v-0.4
			c-0.032-0.604-0.065-1.204-0.1-1.8c-0.023-0.318-0.048-0.634-0.075-0.95c-0.007-0.033-0.015-0.066-0.025-0.1l0.025,0.025
			c-0.025-0.309-0.05-0.618-0.075-0.925c-0.1-0.667-1.066-1.917-2.9-3.75c-0.05-0.021-0.1-0.037-0.15-0.05l-0.2-0.075
			c-0.193-0.072-0.384-0.13-0.575-0.175h-0.05c-0.077,0-0.152,0-0.225,0c-0.233,0-0.466-0.017-0.7-0.05
			C-24.194-22.097-24.703-22.097-25.175-22z"/>
		<path style="fill-rule:evenodd;clip-rule:evenodd;fill:#6E7338;" d="M-25.175-22c0.04-0.016,0.081-0.033,0.125-0.05
			c0.167,0,0.383-0.034,0.65-0.1c0.267-0.033,0.566-0.083,0.9-0.15c0.133,0,0.283-0.017,0.45-0.05h0.3
			c0.433-0.066,0.867-0.1,1.3-0.1c1.233,0.067,2.333,0.383,3.3,0.95c0.333,0.167,0.65,0.367,0.95,0.6
			c0.6,0.533,1.083,1.167,1.45,1.9c0.1,0.233,0.2,0.467,0.3,0.7c0.066,0.197,0.124,0.389,0.175,0.575
			c0.049,0.181,0.091,0.356,0.125,0.525c0.033,0.067,0.05,0.133,0.05,0.2c0.033,0.1,0.067,0.217,0.1,0.35
			c0.033-0.033,0.067-0.05,0.1-0.05v-0.05l0.15-0.55c0-0.067,0.017-0.117,0.05-0.15c0.067-0.333,0.117-0.633,0.15-0.9
			c0-0.066,0-0.167,0-0.3c0.033-0.2,0.05-0.383,0.05-0.55c0-0.133,0-0.267,0-0.4c0-0.066,0-0.133,0-0.2
			c0-0.067-0.017-0.117-0.05-0.15c-0.067-0.133-0.133-0.233-0.2-0.3c-0.067-0.133-0.133-0.25-0.2-0.35
			c-0.033-0.066-0.066-0.117-0.1-0.15c-0.3-0.367-0.65-0.717-1.05-1.05c-0.2-0.1-0.4-0.217-0.6-0.35l-1.75-0.9
			c-0.1-0.034-0.2-0.083-0.3-0.15c-0.567-0.167-1.1-0.283-1.6-0.35c-0.933-0.133-1.883-0.133-2.85,0
			c-0.133,0.033-0.267,0.083-0.4,0.15c-1.033,0.167-1.816,0.55-2.35,1.15c-0.1,0.133-0.183,0.267-0.25,0.4l-0.3,0.6l-0.05,0.05
			l0.25-0.2c0.096-0.081,0.213-0.155,0.35-0.225c0.144-0.081,0.311-0.156,0.5-0.225C-25.376-21.899-25.285-21.949-25.175-22z"/>
		
			<linearGradient id="SVGID_36_" gradientUnits="userSpaceOnUse" x1="-1072.0771" y1="-15119.3691" x2="-1022.615" y2="-15119.3691" gradientTransform="matrix(0.14 -0.9902 0.9902 0.14 15096.6592 1069.4785)">
			<stop  offset="0" style="stop-color:#B5BA5F"/>
			<stop  offset="1" style="stop-color:#909449"/>
		</linearGradient>
		<path style="fill-rule:evenodd;clip-rule:evenodd;fill:url(#SVGID_36_);" d="M-15.275-17.725
			c-0.107-0.333-0.232-0.674-0.375-1.025c-0.467-1.033-1.184-1.867-2.15-2.5c-1.267-0.8-2.75-1.15-4.45-1.05l-1.65,0.25
			c0.385-0.019,0.777,0.015,1.175,0.1h0.05c0.19,0.045,0.382,0.104,0.575,0.175l0.2,0.075c0.05,0.013,0.1,0.03,0.15,0.05
			c1.833,1.833,2.8,3.083,2.9,3.75c0.025,0.307,0.05,0.616,0.075,0.925c-0.002,0.025-0.002,0.05,0,0.075
			c0.027,0.315,0.052,0.632,0.075,0.95c0.035,0.596,0.068,1.196,0.1,1.8v0.4c0.004,0.232,0.013,0.457,0.025,0.675
			c0.006,0.162,0.014,0.32,0.025,0.475h0.05c0.856,0.38,2.04,0.347,3.55-0.1L-15-16.65c-0.033-0.133-0.067-0.25-0.1-0.35
			c0-0.067-0.017-0.133-0.05-0.2C-15.184-17.369-15.226-17.544-15.275-17.725z"/>
	</g>
	<g id="Layer_6_3_">
		<path style="fill-rule:evenodd;clip-rule:evenodd;fill:#387347;" d="M26.075-15.55H26.05c0,0.033-0.017,0.066-0.05,0.1
			c-0.033,0.034-0.1,0.083-0.2,0.15c0.034,0.033,0.05,0.083,0.05,0.15c0.066-0.067,0.117-0.117,0.15-0.15
			C26.043-15.387,26.068-15.47,26.075-15.55z"/>
		<path style="fill-rule:evenodd;clip-rule:evenodd;fill:#6E7338;" d="M25.825-16.05c0.071,0.102,0.146,0.219,0.225,0.35
			c0.012,0.047,0.02,0.097,0.025,0.15c0.055-0.047,0.114-0.147,0.175-0.3l0.075-0.075c0.123,0.137,0.248,0.278,0.375,0.425
			c0.167,0.2,0.35,0.35,0.55,0.45l-0.125-0.675c-0.123-0.579-0.306-1.237-0.55-1.975c-0.06-0.178-0.151-0.345-0.275-0.5
			c-0.133-0.233-0.283-0.433-0.45-0.6c-0.033-0.067-0.1-0.117-0.2-0.15c-0.767-0.733-1.917-1.183-3.45-1.35
			c-0.333-0.034-0.667-0.034-1,0c-0.267,0-0.517,0.017-0.75,0.05c-0.9,0.067-1.617,0.317-2.15,0.75c-0.233,0.2-0.45,0.4-0.65,0.6
			c-0.033,0.066-0.066,0.15-0.1,0.25c-0.6,0.9-0.9,2.25-0.9,4.05c-0.033,0.567-0.033,1.217,0,1.95v0.05
			c0.067,0,0.15,0.017,0.25,0.05v-0.2c0.034-0.157,0.067-0.315,0.1-0.475l0.25-0.925c0.254-0.795,0.554-1.495,0.9-2.1
			c0.667-0.967,1.633-1.5,2.9-1.6c0.091-0.007,0.183-0.015,0.275-0.025c0.039-0.005,0.081-0.014,0.125-0.025c0.033,0,0.067,0,0.1,0
			H22c0.254,0.014,0.487,0.03,0.7,0.05c0.4,0.033,0.767,0.1,1.1,0.2c0.245,0.094,0.478,0.211,0.7,0.35
			c0.167,0.1,0.333,0.216,0.5,0.35c0.267,0.2,0.517,0.467,0.75,0.8C25.771-16.122,25.796-16.088,25.825-16.05z"/>
		
			<linearGradient id="SVGID_37_" gradientUnits="userSpaceOnUse" x1="-9.3135" y1="-16298.4707" x2="39.4365" y2="-16298.4707" gradientTransform="matrix(2.051282e-005 -1 1 -0.001 16319.833 -0.1558)">
			<stop  offset="0" style="stop-color:#ABB05B"/>
			<stop  offset="1" style="stop-color:#818541"/>
		</linearGradient>
		<path style="fill-rule:evenodd;clip-rule:evenodd;fill:url(#SVGID_37_);" d="M16.9-12.55c0.434,0.233,0.8,0.283,1.1,0.15
			c0.6-1.367,0.9-2.067,0.9-2.1c0.934-1.3,2.167-2.017,3.7-2.15c0.733-0.033,1.283-0.033,1.65,0c0.333,0.066,0.583,0.133,0.75,0.2
			c0.267,0.133,0.517,0.3,0.75,0.5c0.027-0.04,0.052-0.073,0.075-0.1c-0.029-0.039-0.054-0.072-0.075-0.1
			c-0.233-0.333-0.483-0.6-0.75-0.8c-0.167-0.133-0.333-0.25-0.5-0.35c-0.222-0.139-0.456-0.256-0.7-0.35
			c-0.333-0.1-0.7-0.167-1.1-0.2c-0.213-0.02-0.446-0.036-0.7-0.05h-0.45c-0.033,0-0.066,0-0.1,0
			c-0.044,0.011-0.086,0.02-0.125,0.025c-0.093,0.01-0.185,0.018-0.275,0.025c-1.267,0.1-2.233,0.633-2.9,1.6
			c-0.346,0.605-0.646,1.305-0.9,2.1L17-13.225c-0.033,0.16-0.066,0.318-0.1,0.475V-12.55z"/>
	</g>
	<g id="Layer_2_4_">
		<path style="fill-rule:evenodd;clip-rule:evenodd;fill:#F6FF98;" d="M-18.625-12.65H-19.3l0.05,1.05h0.05v0.95h0.625
			c-0.005-0.347-0.013-0.697-0.025-1.05C-18.605-12.014-18.613-12.331-18.625-12.65z"/>
		
			<linearGradient id="SVGID_38_" gradientUnits="userSpaceOnUse" x1="-1072.0771" y1="-15102.4648" x2="-1022.615" y2="-15102.4648" gradientTransform="matrix(0.14 -0.9902 0.9902 0.14 15096.6592 1069.4785)">
			<stop  offset="0" style="stop-color:#B5BA5F"/>
			<stop  offset="1" style="stop-color:#909449"/>
		</linearGradient>
		<path style="fill-rule:evenodd;clip-rule:evenodd;fill:url(#SVGID_38_);" d="M-18.575-10.65H12.3
			c-0.012-0.367-0.02-0.717-0.025-1.05c0.004-0.334,0.004-0.65,0-0.95h-30.9c0.012,0.319,0.02,0.636,0.025,0.95
			C-18.588-11.347-18.58-10.997-18.575-10.65z"/>
		
			<linearGradient id="SVGID_39_" gradientUnits="userSpaceOnUse" x1="-9.3135" y1="-16304.4209" x2="39.4365" y2="-16304.4209" gradientTransform="matrix(2.051282e-005 -1 1 -0.001 16319.833 -0.1558)">
			<stop  offset="0" style="stop-color:#ABB05B"/>
			<stop  offset="1" style="stop-color:#818541"/>
		</linearGradient>
		<path style="fill-rule:evenodd;clip-rule:evenodd;fill:url(#SVGID_39_);" d="M12.275-12.65c0.004,0.299,0.004,0.616,0,0.95
			c0.005,0.333,0.013,0.683,0.025,1.05h6.25c-0.035-0.374-0.076-0.724-0.125-1.05c-0.042-0.342-0.091-0.659-0.15-0.95H12.275z"/>
	</g>
</symbol>
<use xlink:href="#squidContainer"  width="53.8" height="64.107" id="squid_x5F_mc" x="-25.45" y="-38.957" transform="matrix(1 0 0 -1 27 31.0498)" style="overflow:visible;"/>
</svg>
